<?xml version="1.0" standalone="no"?><!DOCTYPE svg PUBLIC "-//W3C//DTD SVG 1.1//EN" "http://www.w3.org/Graphics/SVG/1.1/DTD/svg11.dtd"><svg xmlns="http://www.w3.org/2000/svg" version="1.1" width="173px" height="73.6px" viewBox="0 -3 173 73.6" style="top:-3px">  <desc>Yan Sehpa elik/Ah ap r n Kodu: YM 4382 l ler: 58 cm Renk: Beyaz</desc>  <defs/>  <g id="Polygon358312">    <path d="M 0.8 55.4 L 0.8 49.8 C 0.8 49.8 3.2 49.8 3.2 49.8 C 3.9 49.8 4.4 50 4.8 50.4 C 5.1 50.6 5.2 51 5.2 51.5 C 5.2 51.5 5.2 51.5 5.2 51.5 C 5.2 51.9 5.1 52.3 4.8 52.6 C 4.5 52.9 4.2 53 3.7 53.1 C 3.7 53.11 5.4 55.4 5.4 55.4 L 4.6 55.4 L 3 53.2 L 1.4 53.2 L 1.4 55.4 L 0.8 55.4 Z M 1.4 52.7 C 1.4 52.7 3.14 52.66 3.1 52.7 C 3.6 52.7 3.9 52.6 4.2 52.3 C 4.5 52.1 4.6 51.9 4.6 51.5 C 4.6 51.5 4.6 51.5 4.6 51.5 C 4.6 51.1 4.5 50.9 4.2 50.7 C 4 50.5 3.6 50.4 3.2 50.4 C 3.15 50.38 1.4 50.4 1.4 50.4 L 1.4 52.7 Z M 9.9 54.7 C 9.5 55.2 8.9 55.5 8.2 55.5 C 7.6 55.5 7.1 55.3 6.7 54.9 C 6.3 54.5 6.1 54 6.1 53.3 C 6.1 53.3 6.1 53.3 6.1 53.3 C 6.1 52.7 6.3 52.2 6.7 51.8 C 7.1 51.4 7.5 51.2 8.1 51.2 C 8.7 51.2 9.2 51.4 9.5 51.8 C 9.9 52.2 10 52.7 10 53.4 C 10 53.4 10 53.5 10 53.6 C 10 53.6 6.8 53.6 6.8 53.6 C 6.8 54 7 54.3 7.2 54.6 C 7.5 54.8 7.8 55 8.2 55 C 8.7 55 9.1 54.8 9.5 54.4 C 9.52 54.38 9.9 54.7 9.9 54.7 C 9.9 54.7 9.9 54.72 9.9 54.7 Z M 6.8 53.1 C 6.8 53.1 9.4 53.1 9.4 53.1 C 9.4 52.7 9.3 52.4 9 52.1 C 8.8 51.8 8.5 51.7 8.1 51.7 C 7.7 51.7 7.4 51.8 7.2 52.1 C 6.9 52.4 6.8 52.7 6.8 53.1 Z M 11.1 55.4 L 11.1 51.3 L 11.7 51.3 C 11.7 51.3 11.74 51.98 11.7 52 C 12.1 51.4 12.6 51.2 13.2 51.2 C 13.7 51.2 14 51.3 14.3 51.6 C 14.6 51.9 14.7 52.3 14.7 52.8 C 14.74 52.83 14.7 55.4 14.7 55.4 L 14.1 55.4 C 14.1 55.4 14.13 52.98 14.1 53 C 14.1 52.6 14 52.3 13.8 52.1 C 13.6 51.8 13.3 51.7 13 51.7 C 12.6 51.7 12.3 51.9 12.1 52.1 C 11.9 52.3 11.7 52.6 11.7 53 C 11.74 53.03 11.7 55.4 11.7 55.4 L 11.1 55.4 Z M 16.1 55.4 L 16.1 49.6 L 16.7 49.6 L 16.7 53.6 L 18.9 51.3 L 19.7 51.3 L 17.9 53 L 19.7 55.4 L 19 55.4 L 17.5 53.5 L 16.7 54.3 L 16.7 55.4 L 16.1 55.4 Z M 20.6 52.1 L 20.6 51.3 L 21.3 51.3 L 21.3 52.1 L 20.6 52.1 Z M 20.6 55.4 L 20.6 54.6 L 21.3 54.6 L 21.3 55.4 L 20.6 55.4 Z M 25.1 55.4 L 25.1 49.8 C 25.1 49.8 27.53 49.8 27.5 49.8 C 28.2 49.8 28.7 50 29 50.3 C 29.2 50.5 29.4 50.8 29.4 51.2 C 29.4 51.2 29.4 51.2 29.4 51.2 C 29.4 51.8 29.1 52.2 28.5 52.5 C 29.3 52.7 29.7 53.2 29.7 53.9 C 29.7 53.9 29.7 53.9 29.7 53.9 C 29.7 54.3 29.5 54.7 29.1 55 C 28.7 55.3 28.3 55.4 27.6 55.4 C 27.63 55.4 25.1 55.4 25.1 55.4 Z M 28.7 51.3 C 28.7 51.3 28.7 51.3 28.7 51.3 C 28.7 51 28.6 50.8 28.4 50.6 C 28.2 50.4 27.9 50.4 27.5 50.4 C 27.47 50.37 25.8 50.4 25.8 50.4 L 25.8 52.3 C 25.8 52.3 27.42 52.3 27.4 52.3 C 27.8 52.3 28.1 52.2 28.4 52 C 28.6 51.9 28.7 51.6 28.7 51.3 Z M 29 53.8 C 29 53.8 29 53.8 29 53.8 C 29 53.5 28.9 53.3 28.6 53.1 C 28.4 52.9 28 52.9 27.5 52.9 C 27.54 52.86 25.8 52.9 25.8 52.9 L 25.8 54.8 C 25.8 54.8 27.65 54.83 27.6 54.8 C 28.1 54.8 28.4 54.7 28.7 54.6 C 28.9 54.4 29 54.1 29 53.8 Z M 34.3 54.7 C 33.9 55.2 33.3 55.5 32.6 55.5 C 32 55.5 31.6 55.3 31.2 54.9 C 30.8 54.5 30.6 54 30.6 53.3 C 30.6 53.3 30.6 53.3 30.6 53.3 C 30.6 52.7 30.7 52.2 31.1 51.8 C 31.5 51.4 32 51.2 32.5 51.2 C 33.1 51.2 33.6 51.4 34 51.8 C 34.3 52.2 34.5 52.7 34.5 53.4 C 34.5 53.4 34.5 53.5 34.5 53.6 C 34.5 53.6 31.2 53.6 31.2 53.6 C 31.2 54 31.4 54.3 31.7 54.6 C 31.9 54.8 32.3 55 32.6 55 C 33.1 55 33.6 54.8 33.9 54.4 C 33.94 54.38 34.3 54.7 34.3 54.7 C 34.3 54.7 34.33 54.72 34.3 54.7 Z M 31.2 53.1 C 31.2 53.1 33.8 53.1 33.8 53.1 C 33.8 52.7 33.7 52.4 33.5 52.1 C 33.2 51.8 32.9 51.7 32.5 51.7 C 32.2 51.7 31.9 51.8 31.6 52.1 C 31.4 52.4 31.2 52.7 31.2 53.1 Z M 37.1 54.7 L 38.4 51.3 L 39.1 51.3 C 39.1 51.3 37.37 55.54 37.4 55.5 C 37.2 56 37 56.3 36.8 56.4 C 36.6 56.6 36.3 56.7 36 56.7 C 35.7 56.7 35.4 56.6 35.1 56.5 C 35.1 56.5 35.3 56 35.3 56 C 35.5 56.1 35.7 56.2 36 56.2 C 36.2 56.2 36.3 56.1 36.4 56 C 36.6 55.9 36.7 55.7 36.8 55.4 C 36.82 55.38 34.9 51.3 34.9 51.3 L 35.6 51.3 L 37.1 54.7 Z M 42.6 54.8 C 42.2 55.3 41.7 55.5 41.1 55.5 C 40.7 55.5 40.3 55.4 40 55.1 C 39.7 54.9 39.6 54.6 39.6 54.2 C 39.6 54.2 39.6 54.2 39.6 54.2 C 39.6 53.8 39.7 53.4 40.1 53.2 C 40.4 53 40.8 52.8 41.3 52.8 C 41.8 52.8 42.2 52.9 42.6 53 C 42.6 53 42.6 52.9 42.6 52.9 C 42.6 52.5 42.5 52.2 42.3 52 C 42.1 51.8 41.8 51.8 41.4 51.8 C 41 51.8 40.5 51.9 40.1 52.1 C 40.1 52.1 39.9 51.6 39.9 51.6 C 40.4 51.3 40.9 51.2 41.4 51.2 C 42 51.2 42.5 51.4 42.8 51.7 C 43.1 51.9 43.2 52.3 43.2 52.9 C 43.2 52.87 43.2 55.4 43.2 55.4 L 42.6 55.4 L 42.6 54.8 C 42.6 54.8 42.61 54.78 42.6 54.8 Z M 41.2 55 C 41.6 55 41.9 54.9 42.2 54.7 C 42.5 54.5 42.6 54.2 42.6 53.9 C 42.6 53.9 42.6 53.5 42.6 53.5 C 42.2 53.4 41.8 53.3 41.4 53.3 C 41 53.3 40.7 53.4 40.5 53.5 C 40.3 53.7 40.2 53.9 40.2 54.2 C 40.2 54.2 40.2 54.2 40.2 54.2 C 40.2 54.4 40.3 54.6 40.5 54.8 C 40.7 54.9 40.9 55 41.2 55 Z M 44.3 55.4 L 44.3 55 L 47 51.8 L 44.4 51.8 L 44.4 51.3 L 47.9 51.3 L 47.9 51.7 L 45.1 54.9 L 47.9 54.9 L 47.9 55.4 L 44.3 55.4 Z " stroke="none" fill="#000"/>  </g>  <g id="Polygon358311">    <path d="M 3.8 35.2 L 3.8 34.5 L 4.5 34.5 L 4.5 35.2 L 3.8 35.2 Z M 2.3 35.2 L 2.3 34.5 L 3 34.5 L 3 35.2 L 2.3 35.2 Z M 6.3 38.6 C 6.3 39.4 6 40.1 5.4 40.6 C 4.9 41.2 4.2 41.5 3.4 41.5 C 2.6 41.5 1.9 41.2 1.3 40.7 C 0.8 40.1 0.5 39.4 0.5 38.6 C 0.5 38.6 0.5 38.6 0.5 38.6 C 0.5 37.8 0.8 37.1 1.4 36.6 C 1.9 36 2.6 35.7 3.4 35.7 C 4.2 35.7 4.9 36 5.5 36.5 C 6 37.1 6.3 37.8 6.3 38.6 C 6.26 38.58 6.3 38.6 6.3 38.6 C 6.3 38.6 6.26 38.6 6.3 38.6 Z M 1.2 38.6 C 1.2 39.2 1.4 39.8 1.8 40.2 C 2.2 40.7 2.8 40.9 3.4 40.9 C 4 40.9 4.6 40.7 5 40.2 C 5.4 39.8 5.6 39.3 5.6 38.6 C 5.6 38.6 5.6 38.6 5.6 38.6 C 5.6 38 5.4 37.4 5 37 C 4.6 36.5 4 36.3 3.4 36.3 C 2.8 36.3 2.2 36.5 1.8 37 C 1.4 37.4 1.2 37.9 1.2 38.6 C 1.2 38.58 1.2 38.6 1.2 38.6 C 1.2 38.6 1.2 38.6 1.2 38.6 Z M 7.5 41.4 L 7.5 35.6 L 8.2 35.6 L 8.2 41.4 L 7.5 41.4 Z M 11 42.6 L 10.4 42.4 C 10.4 42.4 11.07 41.46 11.1 41.5 C 10.6 41.4 10.2 41.1 9.8 40.7 C 9.5 40.3 9.3 39.9 9.3 39.4 C 9.3 39.4 9.3 39.3 9.3 39.3 C 9.3 38.7 9.5 38.2 9.9 37.8 C 10.3 37.4 10.9 37.2 11.5 37.2 C 12.1 37.2 12.6 37.4 13.1 37.9 C 13.1 37.9 12.7 38.3 12.7 38.3 C 12.3 37.9 11.9 37.7 11.4 37.7 C 11 37.7 10.7 37.9 10.4 38.2 C 10.1 38.5 10 38.9 10 39.3 C 10 39.3 10 39.3 10 39.3 C 10 39.8 10.1 40.2 10.4 40.5 C 10.7 40.8 11.1 40.9 11.5 40.9 C 11.9 40.9 12.4 40.7 12.8 40.3 C 12.8 40.3 13.1 40.7 13.1 40.7 C 12.7 41.2 12.2 41.5 11.6 41.5 C 11.58 41.49 11 42.6 11 42.6 Z M 16.2 36.6 L 16.2 35.9 L 16.9 35.9 L 16.9 36.6 L 16.2 36.6 Z M 14.8 36.6 L 14.8 35.9 L 15.5 35.9 L 15.5 36.6 L 14.8 36.6 Z M 17.1 40.7 C 16.7 41.2 16.3 41.5 15.6 41.5 C 15.2 41.5 14.8 41.3 14.5 41 C 14.2 40.7 14.1 40.3 14.1 39.8 C 14.06 39.83 14.1 37.3 14.1 37.3 L 14.7 37.3 C 14.7 37.3 14.68 39.68 14.7 39.7 C 14.7 40.1 14.8 40.4 15 40.6 C 15.2 40.8 15.5 40.9 15.8 40.9 C 16.2 40.9 16.5 40.8 16.7 40.6 C 16.9 40.3 17.1 40 17.1 39.6 C 17.06 39.63 17.1 37.3 17.1 37.3 L 17.7 37.3 L 17.7 41.4 L 17.1 41.4 L 17.1 40.7 C 17.1 40.7 17.06 40.68 17.1 40.7 Z M 19.1 41.4 L 19.1 35.6 L 19.7 35.6 L 19.7 41.4 L 19.1 41.4 Z M 24.7 40.7 C 24.2 41.2 23.7 41.5 23 41.5 C 22.4 41.5 21.9 41.3 21.5 40.9 C 21.1 40.5 20.9 40 20.9 39.3 C 20.9 39.3 20.9 39.3 20.9 39.3 C 20.9 38.7 21.1 38.2 21.5 37.8 C 21.8 37.4 22.3 37.2 22.9 37.2 C 23.5 37.2 23.9 37.4 24.3 37.8 C 24.6 38.2 24.8 38.7 24.8 39.4 C 24.8 39.4 24.8 39.5 24.8 39.6 C 24.8 39.6 21.5 39.6 21.5 39.6 C 21.6 40 21.7 40.3 22 40.6 C 22.3 40.8 22.6 41 23 41 C 23.5 41 23.9 40.8 24.3 40.4 C 24.29 40.38 24.7 40.7 24.7 40.7 C 24.7 40.7 24.67 40.72 24.7 40.7 Z M 21.5 39.1 C 21.5 39.1 24.2 39.1 24.2 39.1 C 24.2 38.7 24 38.4 23.8 38.1 C 23.6 37.8 23.3 37.7 22.9 37.7 C 22.5 37.7 22.2 37.8 22 38.1 C 21.7 38.4 21.6 38.7 21.5 39.1 Z M 25.9 41.4 L 25.9 37.3 L 26.5 37.3 C 26.5 37.3 26.51 38.34 26.5 38.3 C 26.7 38 26.9 37.7 27.2 37.5 C 27.5 37.3 27.8 37.2 28.2 37.2 C 28.2 37.19 28.2 37.9 28.2 37.9 C 28.2 37.9 28.15 37.86 28.2 37.9 C 27.7 37.9 27.3 38 27 38.4 C 26.7 38.7 26.5 39.1 26.5 39.8 C 26.51 39.75 26.5 41.4 26.5 41.4 L 25.9 41.4 Z M 29.1 38.1 L 29.1 37.3 L 29.8 37.3 L 29.8 38.1 L 29.1 38.1 Z M 29.1 41.4 L 29.1 40.6 L 29.8 40.6 L 29.8 41.4 L 29.1 41.4 Z M 35.3 41.5 C 34.6 41.5 33.9 41.2 33.3 40.6 C 33.3 40.6 33.7 40.2 33.7 40.2 C 34.2 40.7 34.8 40.9 35.3 40.9 C 35.7 40.9 36 40.8 36.3 40.6 C 36.5 40.3 36.7 40 36.7 39.7 C 36.7 39.7 36.7 39.7 36.7 39.7 C 36.7 39.3 36.5 39 36.3 38.8 C 36 38.6 35.7 38.5 35.3 38.5 C 34.9 38.5 34.5 38.6 34.1 38.8 C 34.1 38.81 33.7 38.5 33.7 38.5 L 33.8 35.8 L 37.1 35.8 L 37.1 36.4 L 34.4 36.4 C 34.4 36.4 34.26 38.18 34.3 38.2 C 34.6 38 35 37.9 35.4 37.9 C 35.9 37.9 36.4 38.1 36.8 38.4 C 37.1 38.7 37.3 39.1 37.3 39.6 C 37.3 39.6 37.3 39.7 37.3 39.7 C 37.3 40.2 37.1 40.6 36.7 41 C 36.4 41.3 35.9 41.5 35.3 41.5 Z M 42.4 39.9 C 42.4 40.4 42.2 40.7 41.8 41 C 41.4 41.3 40.9 41.5 40.3 41.5 C 39.7 41.5 39.2 41.3 38.8 41 C 38.4 40.7 38.2 40.4 38.2 39.9 C 38.2 39.9 38.2 39.9 38.2 39.9 C 38.2 39.6 38.3 39.3 38.5 39.1 C 38.7 38.8 39 38.6 39.3 38.5 C 38.7 38.2 38.4 37.8 38.4 37.2 C 38.4 37.2 38.4 37.2 38.4 37.2 C 38.4 36.8 38.6 36.4 38.9 36.1 C 39.3 35.9 39.8 35.7 40.3 35.7 C 40.8 35.7 41.3 35.9 41.6 36.1 C 42 36.4 42.2 36.8 42.2 37.2 C 42.2 37.2 42.2 37.2 42.2 37.2 C 42.2 37.8 41.9 38.2 41.2 38.5 C 41.6 38.6 41.9 38.8 42.1 39 C 42.3 39.3 42.4 39.6 42.4 39.9 C 42.4 39.87 42.4 39.9 42.4 39.9 C 42.4 39.9 42.4 39.89 42.4 39.9 Z M 39 37.3 C 39 37.6 39.1 37.8 39.4 38 C 39.6 38.2 39.9 38.3 40.3 38.3 C 40.7 38.3 41 38.2 41.2 38 C 41.5 37.8 41.6 37.6 41.6 37.3 C 41.6 37.3 41.6 37.2 41.6 37.2 C 41.6 37 41.5 36.7 41.2 36.5 C 41 36.4 40.7 36.3 40.3 36.3 C 39.9 36.3 39.6 36.4 39.4 36.5 C 39.1 36.7 39 37 39 37.2 C 39.02 37.24 39 37.3 39 37.3 C 39 37.3 39.02 37.26 39 37.3 Z M 38.8 39.9 C 38.8 40.2 39 40.4 39.2 40.6 C 39.5 40.8 39.8 40.9 40.3 40.9 C 40.7 40.9 41.1 40.8 41.4 40.6 C 41.6 40.4 41.8 40.2 41.8 39.9 C 41.8 39.9 41.8 39.9 41.8 39.9 C 41.8 39.6 41.6 39.3 41.3 39.1 C 41.1 38.9 40.7 38.8 40.3 38.8 C 39.9 38.8 39.5 38.9 39.3 39.1 C 39 39.3 38.8 39.6 38.8 39.9 C 38.83 39.86 38.8 39.9 38.8 39.9 C 38.8 39.9 38.83 39.88 38.8 39.9 Z M 49.5 40.7 C 49 41.2 48.4 41.5 47.8 41.5 C 47.2 41.5 46.7 41.3 46.3 40.9 C 45.8 40.4 45.6 39.9 45.6 39.4 C 45.6 39.4 45.6 39.3 45.6 39.3 C 45.6 38.7 45.8 38.2 46.3 37.8 C 46.7 37.4 47.2 37.2 47.8 37.2 C 48.4 37.2 49 37.4 49.4 37.9 C 49.4 37.9 49 38.3 49 38.3 C 48.6 37.9 48.2 37.7 47.8 37.7 C 47.3 37.7 47 37.9 46.7 38.2 C 46.4 38.5 46.3 38.9 46.3 39.3 C 46.3 39.3 46.3 39.3 46.3 39.3 C 46.3 39.8 46.4 40.2 46.7 40.5 C 47 40.8 47.4 40.9 47.8 40.9 C 48.3 40.9 48.7 40.7 49.1 40.3 C 49.06 40.33 49.5 40.7 49.5 40.7 C 49.5 40.7 49.46 40.7 49.5 40.7 Z M 50.5 41.4 L 50.5 37.3 L 51.1 37.3 C 51.1 37.3 51.09 37.96 51.1 38 C 51.3 37.7 51.4 37.5 51.6 37.4 C 51.8 37.2 52.1 37.2 52.4 37.2 C 53 37.2 53.5 37.5 53.8 38 C 54.1 37.5 54.6 37.2 55.2 37.2 C 55.7 37.2 56.1 37.3 56.3 37.6 C 56.6 37.9 56.7 38.3 56.7 38.8 C 56.74 38.84 56.7 41.4 56.7 41.4 L 56.1 41.4 C 56.1 41.4 56.13 38.98 56.1 39 C 56.1 38.6 56 38.3 55.8 38.1 C 55.7 37.8 55.4 37.7 55.1 37.7 C 54.7 37.7 54.5 37.9 54.2 38.1 C 54 38.3 53.9 38.6 53.9 39 C 53.91 39.02 53.9 41.4 53.9 41.4 L 53.3 41.4 C 53.3 41.4 53.3 38.97 53.3 39 C 53.3 38.6 53.2 38.3 53 38.1 C 52.8 37.8 52.6 37.7 52.2 37.7 C 51.9 37.7 51.6 37.9 51.4 38.1 C 51.2 38.3 51.1 38.7 51.1 39 C 51.09 39.04 51.1 41.4 51.1 41.4 L 50.5 41.4 Z " stroke="none" fill="#000"/>  </g>  <g id="Polygon358310">    <path d="M 3.4 21.3 L 3.4 20.6 L 4.2 20.6 L 4.2 21.3 L 3.4 21.3 Z M 1.9 21.3 L 1.9 20.6 L 2.7 20.6 L 2.7 21.3 L 1.9 21.3 Z M 3 27.5 C 2.3 27.5 1.8 27.3 1.3 26.9 C 0.9 26.4 0.7 25.8 0.7 25.1 C 0.7 25.06 0.7 21.8 0.7 21.8 L 1.3 21.8 C 1.3 21.8 1.34 25.02 1.3 25 C 1.3 25.6 1.5 26.1 1.8 26.4 C 2.1 26.7 2.5 26.9 3 26.9 C 3.6 26.9 4 26.7 4.3 26.4 C 4.6 26.1 4.7 25.7 4.7 25.1 C 4.74 25.06 4.7 21.8 4.7 21.8 L 5.4 21.8 C 5.4 21.8 5.37 25.01 5.4 25 C 5.4 25.8 5.2 26.4 4.7 26.8 C 4.3 27.3 3.8 27.5 3 27.5 Z M 6.8 27.4 L 6.8 23.3 L 7.4 23.3 C 7.4 23.3 7.38 24.34 7.4 24.3 C 7.5 24 7.8 23.7 8.1 23.5 C 8.3 23.3 8.7 23.2 9.1 23.2 C 9.06 23.19 9.1 23.9 9.1 23.9 C 9.1 23.9 9.02 23.86 9 23.9 C 8.5 23.9 8.1 24 7.8 24.4 C 7.5 24.7 7.4 25.1 7.4 25.8 C 7.38 25.75 7.4 27.4 7.4 27.4 L 6.8 27.4 Z M 12.1 22.6 L 12.1 21.9 L 12.8 21.9 L 12.8 22.6 L 12.1 22.6 Z M 10.7 22.6 L 10.7 21.9 L 11.4 21.9 L 11.4 22.6 L 10.7 22.6 Z M 12.9 26.7 C 12.6 27.2 12.1 27.5 11.5 27.5 C 11 27.5 10.6 27.3 10.4 27 C 10.1 26.7 9.9 26.3 9.9 25.8 C 9.94 25.83 9.9 23.3 9.9 23.3 L 10.6 23.3 C 10.6 23.3 10.55 25.68 10.6 25.7 C 10.6 26.1 10.7 26.4 10.9 26.6 C 11.1 26.8 11.3 26.9 11.7 26.9 C 12.1 26.9 12.3 26.8 12.6 26.6 C 12.8 26.3 12.9 26 12.9 25.6 C 12.94 25.63 12.9 23.3 12.9 23.3 L 13.5 23.3 L 13.5 27.4 L 12.9 27.4 L 12.9 26.7 C 12.9 26.7 12.94 26.68 12.9 26.7 Z M 14.9 27.4 L 14.9 23.3 L 15.5 23.3 C 15.5 23.3 15.54 23.98 15.5 24 C 15.9 23.4 16.4 23.2 17 23.2 C 17.5 23.2 17.8 23.3 18.1 23.6 C 18.4 23.9 18.5 24.3 18.5 24.8 C 18.54 24.83 18.5 27.4 18.5 27.4 L 17.9 27.4 C 17.9 27.4 17.93 24.98 17.9 25 C 17.9 24.6 17.8 24.3 17.6 24.1 C 17.4 23.8 17.1 23.7 16.8 23.7 C 16.4 23.7 16.1 23.9 15.9 24.1 C 15.7 24.3 15.5 24.6 15.5 25 C 15.54 25.03 15.5 27.4 15.5 27.4 L 14.9 27.4 Z M 22.4 27.4 L 22.4 21.8 L 23 21.8 L 23 25.1 L 26.2 21.8 L 27 21.8 L 24.6 24.2 L 27.1 27.4 L 26.3 27.4 L 24.2 24.7 L 23 25.9 L 23 27.4 L 22.4 27.4 Z M 29.7 27.5 C 29 27.5 28.5 27.3 28.1 26.9 C 27.7 26.4 27.5 25.9 27.5 25.4 C 27.5 25.4 27.5 25.3 27.5 25.3 C 27.5 24.7 27.7 24.2 28.1 23.8 C 28.5 23.4 29.1 23.2 29.7 23.2 C 30.3 23.2 30.8 23.4 31.2 23.8 C 31.6 24.2 31.8 24.7 31.8 25.3 C 31.8 25.3 31.8 25.3 31.8 25.3 C 31.8 25.9 31.6 26.4 31.2 26.9 C 30.8 27.3 30.3 27.5 29.7 27.5 Z M 29.7 26.9 C 30.1 26.9 30.5 26.8 30.8 26.5 C 31 26.2 31.2 25.8 31.2 25.4 C 31.2 25.4 31.2 25.3 31.2 25.3 C 31.2 24.9 31 24.5 30.7 24.2 C 30.5 23.9 30.1 23.7 29.7 23.7 C 29.2 23.7 28.9 23.9 28.6 24.2 C 28.3 24.5 28.1 24.9 28.1 25.3 C 28.1 25.3 28.1 25.3 28.1 25.3 C 28.1 25.8 28.3 26.2 28.6 26.5 C 28.9 26.8 29.2 26.9 29.7 26.9 Z M 36.3 26.6 C 35.8 27.2 35.3 27.5 34.7 27.5 C 34.1 27.5 33.7 27.3 33.3 26.9 C 32.9 26.5 32.7 26 32.7 25.3 C 32.7 25.3 32.7 25.3 32.7 25.3 C 32.7 24.7 32.9 24.2 33.3 23.8 C 33.7 23.4 34.1 23.2 34.7 23.2 C 35.3 23.2 35.9 23.5 36.3 24.1 C 36.26 24.06 36.3 21.6 36.3 21.6 L 36.9 21.6 L 36.9 27.4 L 36.3 27.4 L 36.3 26.6 C 36.3 26.6 36.26 26.57 36.3 26.6 Z M 34.8 26.9 C 35.2 26.9 35.5 26.8 35.8 26.5 C 36.1 26.2 36.3 25.8 36.3 25.3 C 36.3 25.3 36.3 25.3 36.3 25.3 C 36.3 24.9 36.1 24.5 35.8 24.2 C 35.5 23.9 35.2 23.7 34.8 23.7 C 34.4 23.7 34 23.9 33.7 24.2 C 33.5 24.4 33.3 24.8 33.3 25.3 C 33.3 25.3 33.3 25.3 33.3 25.3 C 33.3 25.8 33.5 26.2 33.7 26.5 C 34 26.8 34.4 26.9 34.8 26.9 Z M 41.2 26.7 C 40.8 27.2 40.4 27.5 39.8 27.5 C 39.3 27.5 38.9 27.3 38.6 27 C 38.3 26.7 38.2 26.3 38.2 25.8 C 38.18 25.83 38.2 23.3 38.2 23.3 L 38.8 23.3 C 38.8 23.3 38.8 25.68 38.8 25.7 C 38.8 26.1 38.9 26.4 39.1 26.6 C 39.3 26.8 39.6 26.9 39.9 26.9 C 40.3 26.9 40.6 26.8 40.8 26.6 C 41.1 26.3 41.2 26 41.2 25.6 C 41.18 25.63 41.2 23.3 41.2 23.3 L 41.8 23.3 L 41.8 27.4 L 41.2 27.4 L 41.2 26.7 C 41.2 26.7 41.18 26.68 41.2 26.7 Z M 43.1 24.1 L 43.1 23.3 L 43.9 23.3 L 43.9 24.1 L 43.1 24.1 Z M 43.1 27.4 L 43.1 26.6 L 43.9 26.6 L 43.9 27.4 L 43.1 27.4 Z M 49.2 27.4 L 49.2 25.2 L 47 21.8 L 48.5 21.8 L 49.8 24 L 51.2 21.8 L 52.6 21.8 L 50.4 25.2 L 50.4 27.4 L 49.2 27.4 Z M 53.3 27.4 L 53.3 21.8 L 54.6 21.8 L 56.1 24.2 L 57.6 21.8 L 58.9 21.8 L 58.9 27.4 L 57.7 27.4 L 57.7 23.7 L 56.1 26.1 L 56.1 26.1 L 54.5 23.8 L 54.5 27.4 L 53.3 27.4 Z M 65.2 27.4 L 65.2 26.2 L 62.4 26.2 L 62.2 25.3 L 65.3 21.8 L 66.4 21.8 L 66.4 25.2 L 67.1 25.2 L 67.1 26.2 L 66.4 26.2 L 66.4 27.4 L 65.2 27.4 Z M 63.7 25.2 L 65.2 25.2 L 65.2 23.4 L 63.7 25.2 Z M 70 27.5 C 69.1 27.5 68.3 27.2 67.8 26.5 C 67.8 26.5 68.7 25.7 68.7 25.7 C 69 26.2 69.5 26.4 70 26.4 C 70.2 26.4 70.4 26.3 70.6 26.2 C 70.7 26.1 70.8 25.9 70.8 25.7 C 70.8 25.7 70.8 25.7 70.8 25.7 C 70.8 25.5 70.7 25.3 70.5 25.2 C 70.3 25 70 25 69.7 25 C 69.7 24.98 69.2 25 69.2 25 L 69 24.2 L 70.3 22.9 L 68.1 22.9 L 68.1 21.8 L 71.9 21.8 L 71.9 22.7 C 71.9 22.7 70.5 24.08 70.5 24.1 C 71.5 24.3 72 24.8 72 25.6 C 72 25.6 72 25.7 72 25.7 C 72 26.2 71.8 26.6 71.5 27 C 71.1 27.3 70.6 27.5 70 27.5 Z M 75 27.5 C 74.4 27.5 73.8 27.3 73.4 27 C 73 26.7 72.8 26.3 72.8 25.9 C 72.8 25.9 72.8 25.8 72.8 25.8 C 72.8 25.5 72.9 25.2 73.1 25 C 73.2 24.8 73.4 24.6 73.7 24.5 C 73.3 24.2 73 23.8 73 23.3 C 73 23.3 73 23.3 73 23.3 C 73 22.8 73.2 22.5 73.6 22.2 C 73.9 21.9 74.4 21.7 75 21.7 C 75.6 21.7 76 21.9 76.4 22.2 C 76.8 22.5 77 22.8 77 23.3 C 77 23.3 77 23.3 77 23.3 C 77 23.8 76.7 24.2 76.2 24.5 C 76.6 24.7 76.8 24.8 76.9 25 C 77.1 25.2 77.2 25.5 77.2 25.8 C 77.2 25.8 77.2 25.8 77.2 25.8 C 77.2 26.3 76.9 26.7 76.5 27 C 76.1 27.3 75.6 27.5 75 27.5 Z M 74.2 23.4 C 74.2 23.6 74.3 23.8 74.4 23.9 C 74.6 24 74.8 24.1 75 24.1 C 75.2 24.1 75.4 24 75.6 23.9 C 75.7 23.8 75.8 23.6 75.8 23.4 C 75.8 23.4 75.8 23.4 75.8 23.4 C 75.8 23.2 75.7 23.1 75.6 22.9 C 75.4 22.8 75.2 22.7 75 22.7 C 74.7 22.7 74.6 22.8 74.4 22.9 C 74.3 23 74.2 23.2 74.2 23.4 C 74.19 23.38 74.2 23.4 74.2 23.4 C 74.2 23.4 74.19 23.4 74.2 23.4 Z M 75 26.5 C 75.3 26.5 75.5 26.4 75.7 26.3 C 75.9 26.1 76 26 76 25.8 C 76 25.8 76 25.8 76 25.8 C 76 25.5 75.9 25.4 75.7 25.2 C 75.5 25.1 75.3 25.1 75 25.1 C 74.7 25.1 74.5 25.1 74.3 25.2 C 74.1 25.4 74 25.5 74 25.8 C 74 25.8 74 25.8 74 25.8 C 74 26 74.1 26.1 74.3 26.3 C 74.5 26.4 74.7 26.5 75 26.5 Z M 77.9 27.4 L 77.9 26.4 C 77.9 26.4 79.77 24.9 79.8 24.9 C 80.1 24.6 80.4 24.4 80.5 24.2 C 80.7 24 80.7 23.8 80.7 23.6 C 80.7 23.3 80.7 23.1 80.5 23 C 80.4 22.9 80.2 22.8 80 22.8 C 79.8 22.8 79.6 22.9 79.4 23 C 79.3 23.1 79.1 23.3 78.8 23.6 C 78.8 23.6 78 22.9 78 22.9 C 78.3 22.5 78.6 22.2 78.9 22 C 79.2 21.8 79.6 21.7 80.1 21.7 C 80.6 21.7 81.1 21.9 81.5 22.2 C 81.8 22.5 82 22.9 82 23.4 C 82 23.4 82 23.5 82 23.5 C 82 23.9 81.9 24.3 81.7 24.6 C 81.5 24.8 81.1 25.2 80.5 25.6 C 80.52 25.63 79.6 26.3 79.6 26.3 L 82 26.3 L 82 27.4 L 77.9 27.4 Z " stroke="none" fill="#000"/>  </g>  <g id="Polygon358309">    <path d="M 2.2 13.4 L 2.2 11.2 L 0.1 7.8 L 1.5 7.8 L 2.9 10 L 4.2 7.8 L 5.6 7.8 L 3.5 11.2 L 3.5 13.4 L 2.2 13.4 Z M 8 12.9 C 7.7 13.3 7.2 13.5 6.7 13.5 C 6.3 13.5 5.9 13.4 5.6 13.1 C 5.4 12.9 5.2 12.6 5.2 12.2 C 5.2 12.2 5.2 12.2 5.2 12.2 C 5.2 11.7 5.4 11.4 5.7 11.1 C 6 10.9 6.4 10.8 6.9 10.8 C 7.3 10.8 7.6 10.8 8 11 C 8 11 8 10.9 8 10.9 C 8 10.4 7.7 10.1 7.1 10.1 C 6.7 10.1 6.3 10.2 5.9 10.3 C 5.9 10.3 5.6 9.4 5.6 9.4 C 6.1 9.2 6.7 9.1 7.2 9.1 C 7.9 9.1 8.4 9.2 8.7 9.5 C 9 9.9 9.2 10.3 9.2 10.9 C 9.16 10.91 9.2 13.4 9.2 13.4 L 8 13.4 L 8 12.9 C 8 12.9 7.98 12.94 8 12.9 Z M 7.1 12.6 C 7.3 12.6 7.6 12.6 7.7 12.4 C 7.9 12.3 8 12.1 8 11.9 C 8 11.9 8 11.7 8 11.7 C 7.8 11.6 7.5 11.5 7.2 11.5 C 7 11.5 6.8 11.6 6.6 11.7 C 6.5 11.8 6.4 11.9 6.4 12.1 C 6.4 12.1 6.4 12.1 6.4 12.1 C 6.4 12.3 6.5 12.4 6.6 12.5 C 6.7 12.6 6.9 12.6 7.1 12.6 Z M 10.2 13.4 L 10.2 9.1 L 11.4 9.1 C 11.4 9.1 11.42 9.72 11.4 9.7 C 11.8 9.3 12.2 9 12.7 9 C 13.1 9 13.5 9.2 13.8 9.5 C 14 9.7 14.1 10.1 14.1 10.6 C 14.14 10.62 14.1 13.4 14.1 13.4 L 12.9 13.4 C 12.9 13.4 12.92 11.01 12.9 11 C 12.9 10.4 12.7 10.1 12.2 10.1 C 11.9 10.1 11.8 10.2 11.6 10.4 C 11.5 10.5 11.4 10.7 11.4 11 C 11.42 11.01 11.4 13.4 11.4 13.4 L 10.2 13.4 Z M 19.7 13.5 C 18.8 13.5 18 13.2 17.3 12.6 C 17.3 12.6 18.1 11.7 18.1 11.7 C 18.6 12.2 19.2 12.4 19.7 12.4 C 20 12.4 20.2 12.3 20.3 12.3 C 20.5 12.2 20.5 12 20.5 11.9 C 20.5 11.9 20.5 11.8 20.5 11.8 C 20.5 11.7 20.5 11.6 20.3 11.5 C 20.2 11.4 19.9 11.2 19.4 11.1 C 19.1 11.1 18.8 11 18.6 10.9 C 18.4 10.8 18.2 10.7 18.1 10.6 C 17.9 10.5 17.8 10.3 17.7 10.1 C 17.6 9.9 17.6 9.7 17.6 9.4 C 17.6 9.4 17.6 9.4 17.6 9.4 C 17.6 8.9 17.7 8.5 18.1 8.2 C 18.5 7.9 18.9 7.7 19.5 7.7 C 20.3 7.7 21 8 21.6 8.4 C 21.6 8.4 21 9.4 21 9.4 C 20.4 9 19.9 8.8 19.5 8.8 C 19.3 8.8 19.1 8.9 19 8.9 C 18.8 9 18.8 9.2 18.8 9.3 C 18.8 9.3 18.8 9.3 18.8 9.3 C 18.8 9.5 18.9 9.6 19 9.7 C 19.2 9.8 19.5 9.9 20 10 C 20.6 10.2 21 10.4 21.3 10.7 C 21.6 10.9 21.8 11.3 21.8 11.7 C 21.8 11.7 21.8 11.7 21.8 11.7 C 21.8 12.3 21.6 12.7 21.2 13 C 20.8 13.3 20.3 13.5 19.7 13.5 Z M 26.5 12.7 C 26.1 13.2 25.5 13.5 24.7 13.5 C 24.1 13.5 23.6 13.3 23.1 12.9 C 22.7 12.5 22.5 11.9 22.5 11.3 C 22.5 11.3 22.5 11.3 22.5 11.3 C 22.5 10.6 22.7 10.1 23.1 9.7 C 23.5 9.2 24 9 24.6 9 C 25.3 9 25.8 9.3 26.2 9.7 C 26.5 10.2 26.7 10.7 26.7 11.4 C 26.7 11.4 26.7 11.5 26.7 11.7 C 26.7 11.7 23.7 11.7 23.7 11.7 C 23.8 12 23.9 12.2 24.1 12.3 C 24.3 12.4 24.5 12.5 24.8 12.5 C 25.1 12.5 25.5 12.4 25.8 12.1 C 25.8 12.08 26.5 12.7 26.5 12.7 C 26.5 12.7 26.5 12.7 26.5 12.7 Z M 23.7 10.9 C 23.7 10.9 25.5 10.9 25.5 10.9 C 25.5 10.6 25.4 10.4 25.2 10.3 C 25.1 10.1 24.9 10 24.6 10 C 24.4 10 24.2 10.1 24 10.3 C 23.8 10.4 23.7 10.6 23.7 10.9 Z M 27.6 13.4 L 27.6 7.6 L 28.8 7.6 C 28.8 7.6 28.83 9.72 28.8 9.7 C 29.2 9.3 29.6 9 30.1 9 C 30.6 9 30.9 9.2 31.2 9.5 C 31.4 9.7 31.5 10.1 31.5 10.6 C 31.54 10.62 31.5 13.4 31.5 13.4 L 30.3 13.4 C 30.3 13.4 30.33 11.01 30.3 11 C 30.3 10.4 30.1 10.1 29.6 10.1 C 29.4 10.1 29.2 10.2 29 10.4 C 28.9 10.5 28.8 10.7 28.8 11 C 28.83 11.01 28.8 13.4 28.8 13.4 L 27.6 13.4 Z M 32.6 14.7 L 32.6 9.1 L 33.8 9.1 C 33.8 9.1 33.82 9.73 33.8 9.7 C 34.2 9.3 34.6 9 35.2 9 C 35.7 9 36.1 9.2 36.5 9.6 C 36.9 10 37.1 10.6 37.1 11.2 C 37.1 11.2 37.1 11.3 37.1 11.3 C 37.1 11.9 36.9 12.5 36.5 12.9 C 36.2 13.3 35.7 13.5 35.2 13.5 C 34.6 13.5 34.2 13.3 33.8 12.8 C 33.82 12.84 33.8 14.7 33.8 14.7 L 32.6 14.7 Z M 33.8 11.3 C 33.8 11.6 33.9 11.9 34.1 12.1 C 34.3 12.3 34.5 12.4 34.8 12.4 C 35.1 12.4 35.4 12.3 35.6 12.1 C 35.8 11.9 35.9 11.6 35.9 11.3 C 35.9 11.3 35.9 11.2 35.9 11.2 C 35.9 10.9 35.8 10.6 35.6 10.4 C 35.4 10.2 35.1 10.1 34.8 10.1 C 34.5 10.1 34.3 10.2 34.1 10.4 C 33.9 10.6 33.8 10.9 33.8 11.2 C 33.8 11.25 33.8 11.3 33.8 11.3 C 33.8 11.3 33.8 11.26 33.8 11.3 Z M 40.5 12.9 C 40.2 13.3 39.8 13.5 39.2 13.5 C 38.8 13.5 38.4 13.4 38.2 13.1 C 37.9 12.9 37.7 12.6 37.7 12.2 C 37.7 12.2 37.7 12.2 37.7 12.2 C 37.7 11.7 37.9 11.4 38.2 11.1 C 38.5 10.9 38.9 10.8 39.5 10.8 C 39.8 10.8 40.2 10.8 40.5 11 C 40.5 11 40.5 10.9 40.5 10.9 C 40.5 10.4 40.2 10.1 39.6 10.1 C 39.2 10.1 38.8 10.2 38.4 10.3 C 38.4 10.3 38.1 9.4 38.1 9.4 C 38.7 9.2 39.2 9.1 39.8 9.1 C 40.4 9.1 40.9 9.2 41.2 9.5 C 41.5 9.9 41.7 10.3 41.7 10.9 C 41.69 10.91 41.7 13.4 41.7 13.4 L 40.5 13.4 L 40.5 12.9 C 40.5 12.9 40.51 12.94 40.5 12.9 Z M 39.6 12.6 C 39.9 12.6 40.1 12.6 40.3 12.4 C 40.4 12.3 40.5 12.1 40.5 11.9 C 40.5 11.9 40.5 11.7 40.5 11.7 C 40.3 11.6 40 11.5 39.8 11.5 C 39.5 11.5 39.3 11.6 39.1 11.7 C 39 11.8 38.9 11.9 38.9 12.1 C 38.9 12.1 38.9 12.1 38.9 12.1 C 38.9 12.3 39 12.4 39.1 12.5 C 39.2 12.6 39.4 12.6 39.6 12.6 Z M 47.6 14.8 L 46.6 14.4 C 46.6 14.4 47.2 13.42 47.2 13.4 C 46.6 13.3 46 12.9 45.6 12.4 C 45.2 11.9 45 11.3 45 10.6 C 45 10.6 45 10.6 45 10.6 C 45 9.8 45.3 9.1 45.8 8.5 C 46.4 8 47.1 7.7 47.9 7.7 C 48.8 7.7 49.6 8 50.1 8.6 C 50.1 8.6 49.4 9.5 49.4 9.5 C 48.9 9.1 48.4 8.8 47.9 8.8 C 47.5 8.8 47.1 9 46.8 9.3 C 46.5 9.7 46.3 10.1 46.3 10.6 C 46.3 10.6 46.3 10.6 46.3 10.6 C 46.3 11.1 46.5 11.5 46.8 11.8 C 47.1 12.2 47.5 12.4 47.9 12.4 C 48.2 12.4 48.5 12.3 48.7 12.2 C 48.9 12.1 49.2 11.9 49.4 11.7 C 49.4 11.7 50.2 12.5 50.2 12.5 C 49.6 13.1 48.9 13.5 48.1 13.5 C 48.1 13.49 47.6 14.8 47.6 14.8 Z M 54.7 12.7 C 54.3 13.2 53.7 13.5 53 13.5 C 52.3 13.5 51.8 13.3 51.4 12.9 C 51 12.5 50.8 11.9 50.8 11.3 C 50.8 11.3 50.8 11.3 50.8 11.3 C 50.8 10.6 51 10.1 51.4 9.7 C 51.8 9.2 52.3 9 52.9 9 C 53.5 9 54.1 9.3 54.4 9.7 C 54.8 10.2 55 10.7 55 11.4 C 55 11.4 55 11.5 54.9 11.7 C 54.9 11.7 52 11.7 52 11.7 C 52 12 52.1 12.2 52.3 12.3 C 52.5 12.4 52.7 12.5 53 12.5 C 53.4 12.5 53.7 12.4 54 12.1 C 54.05 12.08 54.7 12.7 54.7 12.7 C 54.7 12.7 54.74 12.7 54.7 12.7 Z M 51.9 10.9 C 51.9 10.9 53.8 10.9 53.8 10.9 C 53.7 10.6 53.6 10.4 53.5 10.3 C 53.3 10.1 53.1 10 52.9 10 C 52.6 10 52.4 10.1 52.3 10.3 C 52.1 10.4 52 10.6 51.9 10.9 Z M 55.9 13.4 L 55.9 7.6 L 57.1 7.6 L 57.1 13.4 L 55.9 13.4 Z M 58.3 8.6 L 58.3 7.6 L 59.6 7.6 L 59.6 8.6 L 58.3 8.6 Z M 58.3 13.4 L 58.3 9.1 L 59.6 9.1 L 59.6 13.4 L 58.3 13.4 Z M 60.7 13.4 L 60.7 7.6 L 61.9 7.6 L 61.9 10.7 L 63.3 9.1 L 64.8 9.1 L 63.2 10.8 L 64.8 13.4 L 63.4 13.4 L 62.3 11.6 L 61.9 12.1 L 61.9 13.4 L 60.7 13.4 Z M 64.7 14.4 L 68.3 7 L 69.3 7 L 65.8 14.4 L 64.7 14.4 Z M 68.4 13.4 L 70.8 7.8 L 72 7.8 L 74.4 13.4 L 73.1 13.4 L 72.6 12.1 L 70.2 12.1 L 69.7 13.4 L 68.4 13.4 Z M 70.6 11.1 L 72.1 11.1 L 71.4 9.2 L 70.6 11.1 Z M 75.1 13.4 L 75.1 7.6 L 76.3 7.6 C 76.3 7.6 76.33 9.72 76.3 9.7 C 76.7 9.3 77.1 9 77.6 9 C 78 9 78.4 9.2 78.7 9.5 C 78.9 9.7 79 10.1 79 10.6 C 79.04 10.62 79 13.4 79 13.4 L 77.8 13.4 C 77.8 13.4 77.82 11.01 77.8 11 C 77.8 10.4 77.6 10.1 77.1 10.1 C 76.8 10.1 76.7 10.2 76.5 10.4 C 76.4 10.5 76.3 10.7 76.3 11 C 76.33 11.01 76.3 13.4 76.3 13.4 L 75.1 13.4 Z M 81.4 14.8 L 80.4 14.4 C 80.4 14.4 81.06 13.42 81.1 13.4 C 80.6 13.3 80.1 13.1 79.8 12.8 C 79.8 12.8 80.3 12 80.3 12 C 80.7 12.4 81.2 12.5 81.6 12.5 C 82 12.5 82.1 12.4 82.1 12.2 C 82.1 12.2 82.1 12.2 82.1 12.2 C 82.1 12.2 82.1 12.1 82.1 12.1 C 82.1 12.1 82.1 12 82 12 C 82 12 82 12 81.9 12 C 81.9 11.9 81.9 11.9 81.8 11.9 C 81.7 11.9 81.7 11.8 81.6 11.8 C 81.6 11.8 81.5 11.8 81.5 11.8 C 81.4 11.7 81.3 11.7 81.3 11.7 C 81.1 11.7 80.9 11.6 80.8 11.6 C 80.7 11.5 80.5 11.4 80.4 11.3 C 80.3 11.2 80.2 11.1 80.1 10.9 C 80 10.8 80 10.6 80 10.4 C 80 10.4 80 10.4 80 10.4 C 80 10 80.1 9.7 80.4 9.4 C 80.7 9.2 81.1 9 81.5 9 C 82.1 9 82.6 9.2 83.1 9.5 C 83.1 9.5 82.7 10.4 82.7 10.4 C 82.2 10.1 81.8 10 81.5 10 C 81.4 10 81.3 10 81.2 10.1 C 81.1 10.1 81.1 10.2 81.1 10.3 C 81.1 10.3 81.1 10.3 81.1 10.3 C 81.1 10.4 81.1 10.5 81.3 10.6 C 81.4 10.6 81.7 10.7 81.9 10.8 C 82.1 10.9 82.3 10.9 82.4 11 C 82.5 11 82.7 11.1 82.8 11.2 C 82.9 11.3 83.1 11.4 83.1 11.6 C 83.2 11.7 83.2 11.9 83.2 12.1 C 83.2 12.1 83.2 12.1 83.2 12.1 C 83.2 12.5 83.1 12.8 82.9 13 C 82.7 13.3 82.4 13.4 82 13.5 C 81.97 13.46 81.4 14.8 81.4 14.8 Z M 86.6 12.9 C 86.3 13.3 85.9 13.5 85.3 13.5 C 84.9 13.5 84.6 13.4 84.3 13.1 C 84 12.9 83.9 12.6 83.9 12.2 C 83.9 12.2 83.9 12.2 83.9 12.2 C 83.9 11.7 84 11.4 84.3 11.1 C 84.6 10.9 85.1 10.8 85.6 10.8 C 85.9 10.8 86.3 10.8 86.6 11 C 86.6 11 86.6 10.9 86.6 10.9 C 86.6 10.4 86.3 10.1 85.7 10.1 C 85.3 10.1 84.9 10.2 84.5 10.3 C 84.5 10.3 84.2 9.4 84.2 9.4 C 84.8 9.2 85.3 9.1 85.9 9.1 C 86.5 9.1 87 9.2 87.3 9.5 C 87.6 9.9 87.8 10.3 87.8 10.9 C 87.8 10.91 87.8 13.4 87.8 13.4 L 86.6 13.4 L 86.6 12.9 C 86.6 12.9 86.62 12.94 86.6 12.9 Z M 85.7 12.6 C 86 12.6 86.2 12.6 86.4 12.4 C 86.6 12.3 86.6 12.1 86.6 11.9 C 86.6 11.9 86.6 11.7 86.6 11.7 C 86.4 11.6 86.1 11.5 85.9 11.5 C 85.6 11.5 85.4 11.6 85.3 11.7 C 85.1 11.8 85 11.9 85 12.1 C 85 12.1 85 12.1 85 12.1 C 85 12.3 85.1 12.4 85.2 12.5 C 85.3 12.6 85.5 12.6 85.7 12.6 Z M 88.8 14.7 L 88.8 9.1 L 90.1 9.1 C 90.1 9.1 90.06 9.73 90.1 9.7 C 90.4 9.3 90.8 9 91.4 9 C 91.9 9 92.4 9.2 92.8 9.6 C 93.2 10 93.4 10.6 93.4 11.2 C 93.4 11.2 93.4 11.3 93.4 11.3 C 93.4 11.9 93.2 12.5 92.8 12.9 C 92.4 13.3 91.9 13.5 91.4 13.5 C 90.9 13.5 90.4 13.3 90.1 12.8 C 90.06 12.84 90.1 14.7 90.1 14.7 L 88.8 14.7 Z M 90 11.3 C 90 11.6 90.1 11.9 90.3 12.1 C 90.5 12.3 90.8 12.4 91.1 12.4 C 91.4 12.4 91.6 12.3 91.8 12.1 C 92 11.9 92.1 11.6 92.1 11.3 C 92.1 11.3 92.1 11.2 92.1 11.2 C 92.1 10.9 92 10.6 91.8 10.4 C 91.6 10.2 91.4 10.1 91.1 10.1 C 90.8 10.1 90.5 10.2 90.3 10.4 C 90.1 10.6 90 10.9 90 11.2 C 90.05 11.25 90 11.3 90 11.3 C 90 11.3 90.05 11.26 90 11.3 Z " stroke="none" fill="#000"/>  </g></svg>