<?xml version="1.0" standalone="no"?><!DOCTYPE svg PUBLIC "-//W3C//DTD SVG 1.1//EN" "http://www.w3.org/Graphics/SVG/1.1/DTD/svg11.dtd"><svg xmlns="http://www.w3.org/2000/svg" version="1.1" width="412.1px" height="60.4px" viewBox="0 -5 412.1 60.4" style="top:-5px"><desc>MOSCOW MULE</desc><defs/><g id="Polygon379040"><path d="m117.9 17.6V2.2h1.8l5.6 8.4l5.6-8.4h1.8v15.4h-1.8V5.1l-5.6 8.3h-.1l-5.6-8.3v12.5h-1.7zm34.2-7.7c0 2.2-.8 4.1-2.3 5.6c-1.4 1.6-3.3 2.4-5.6 2.4c-2.3 0-4.2-.8-5.7-2.4c-1.4-1.5-2.2-3.4-2.2-5.6c0-2.2.8-4.1 2.3-5.6c1.5-1.6 3.3-2.4 5.6-2.4c2.3 0 4.2.8 5.7 2.4c1.4 1.5 2.2 3.4 2.2 5.6c-.04-.04 0 0 0 0c0 0-.04 0 0 0zm-13.9 0c0 1.8.5 3.3 1.7 4.5c1.1 1.2 2.6 1.9 4.3 1.9c1.8 0 3.2-.7 4.3-1.9c1.2-1.2 1.8-2.7 1.8-4.5c0-1.8-.6-3.3-1.8-4.5c-1.1-1.2-2.6-1.9-4.3-1.9c-1.8 0-3.2.7-4.3 1.9c-1.2 1.2-1.7 2.7-1.7 4.5c-.05-.04 0 0 0 0c0 0-.05 0 0 0zm22.7 7.9c-2.4 0-4.5-.8-6.3-2.4l1.1-1.3c.8.7 1.6 1.3 2.5 1.6c.8.4 1.7.6 2.8.6c1 0 1.8-.3 2.5-.8c.6-.5.9-1.1.9-1.9c0-.8-.3-1.3-.8-1.8c-.6-.4-1.7-.8-3.2-1.1c-1.8-.4-3.1-1-4-1.6c-.8-.7-1.2-1.6-1.2-2.9c0-1.2.5-2.2 1.5-3c.9-.8 2.1-1.2 3.6-1.2c1.1 0 2.1.1 2.9.4c.8.3 1.7.8 2.5 1.5l-1 1.3c-1.4-1.1-2.9-1.7-4.5-1.7c-1 0-1.8.3-2.3.7c-.6.5-.9 1.1-.9 1.8v.1c0 .7.3 1.3.8 1.8c.6.4 1.7.8 3.3 1.2c1.8.4 3.1.9 3.9 1.6c.8.6 1.2 1.6 1.2 2.7v.1c0 1.3-.5 2.3-1.5 3.1c-1 .8-2.3 1.2-3.8 1.2zm15.8.1c-2.2 0-4-.8-5.5-2.3c-1.4-1.5-2.2-3.4-2.2-5.7c0-2.2.8-4.1 2.2-5.6c1.5-1.6 3.4-2.4 5.6-2.4c1.3 0 2.5.2 3.4.7c.9.4 1.8 1 2.6 1.8l-1.2 1.3c-.7-.7-1.5-1.3-2.2-1.6c-.8-.4-1.6-.6-2.6-.6c-1.7 0-3.1.7-4.3 1.9c-1.1 1.2-1.7 2.7-1.7 4.5c0 1.8.6 3.3 1.7 4.5c1.2 1.2 2.6 1.9 4.3 1.9c1 0 1.9-.2 2.6-.6c.8-.4 1.6-.9 2.4-1.7l1.1 1.2c-.9.8-1.8 1.5-2.8 2c-.9.4-2.1.7-3.4.7zm23.9-8c0 2.2-.7 4.1-2.2 5.6c-1.5 1.6-3.4 2.4-5.7 2.4c-2.3 0-4.1-.8-5.6-2.4c-1.5-1.5-2.2-3.4-2.2-5.6c0-2.2.7-4.1 2.2-5.6c1.5-1.6 3.4-2.4 5.7-2.4c2.3 0 4.1.8 5.6 2.4c1.5 1.5 2.2 3.4 2.2 5.6c.01-.04 0 0 0 0c0 0 .01 0 0 0zm-13.9 0c0 1.8.6 3.3 1.7 4.5c1.2 1.2 2.6 1.9 4.4 1.9c1.7 0 3.2-.7 4.3-1.9c1.1-1.2 1.7-2.7 1.7-4.5c0-1.8-.6-3.3-1.7-4.5c-1.2-1.2-2.6-1.9-4.4-1.9c-1.7 0-3.2.7-4.3 1.9c-1.1 1.2-1.7 2.7-1.7 4.5c.01-.04 0 0 0 0c0 0 .01 0 0 0zm21.1 7.8l-5.5-15.5h1.9l4.4 12.8l4.2-12.8h1.4l4.3 12.8l4.4-12.8h1.8l-5.5 15.5h-1.5l-4.2-12.5l-4.2 12.5h-1.5zm26.6-.1V2.2h1.8l5.6 8.4l5.6-8.4h1.8v15.4h-1.8V5.1l-5.6 8.3h-.1l-5.6-8.3v12.5h-1.7zm25.3.2c-1.9 0-3.5-.5-4.7-1.7c-1.1-1.2-1.7-2.8-1.7-4.9v-9h1.7s.04 8.84 0 8.8c0 1.7.4 3 1.3 3.9c.8.9 1.9 1.3 3.4 1.3c1.5 0 2.6-.4 3.5-1.3c.8-.8 1.2-2.1 1.2-3.7v-9h1.7s.03 8.82 0 8.8c0 2.2-.6 3.9-1.7 5.1c-1.2 1.2-2.7 1.7-4.7 1.7zm10.5-.2V2.2h1.8V16h8.6v1.6h-10.4zm13.6 0V2.2h11.1v1.6h-9.4v5.2h8.4v1.6h-8.4v5.4h9.5v1.6h-11.2z" stroke="none" fill="#000"/></g></svg>