<?xml version="1.0" standalone="no"?><!DOCTYPE svg PUBLIC "-//W3C//DTD SVG 1.1//EN" "http://www.w3.org/Graphics/SVG/1.1/DTD/svg11.dtd"><svg xmlns="http://www.w3.org/2000/svg" version="1.1" width="16.2px" height="12.4px" viewBox="0 -1 16.2 12.4" style="top:-1px"><desc/><defs/><g id="Polygon365210"><path d="m5.5 7.6c-.8 0-1.4-.3-1.8-.9l.4-.4c.4.5.9.8 1.4.8c.3 0 .6-.1.8-.3c.2-.2.3-.4.3-.7c0-.3-.1-.5-.4-.7c-.2-.2-.6-.3-1-.3c.03.05-.3 0-.3 0l-.1-.3l1.6-1.7H4v-.5h3.1v.4S5.55 4.69 5.5 4.7c.5 0 .9.2 1.2.4c.3.2.5.5.5 1c0 .4-.2.8-.5 1c-.3.3-.7.5-1.2.5zm3-1.1c.4.4.8.6 1.2.6c.4 0 .8-.2 1.1-.6c.2-.4.3-.9.3-1.5v-.1c-.3.5-.8.8-1.3.8c-.6 0-1-.2-1.3-.4C8.2 5 8 4.6 8 4.2c0-.5.2-.9.5-1.2c.4-.3.8-.5 1.3-.5c.5 0 1 .2 1.3.5c.4.4.6 1 .6 1.9c0 .8-.2 1.4-.6 1.9c-.3.5-.8.8-1.4.8c-.5 0-1.1-.2-1.5-.6c-.04-.04.3-.5.3-.5c0 0-.02.03 0 0zm1.3-1.3c.4 0 .7-.1.9-.3c.2-.2.3-.5.3-.8c0-.3-.1-.6-.3-.8c-.2-.2-.5-.3-.9-.3c-.4 0-.7.1-.9.3c-.2.2-.3.5-.3.8c0 .4.1.6.3.8c.3.2.6.3.9.3zm3.1 2.3l2.3-4.4h-2.7v-.5h3.3v.4l-2.2 4.5h-.7z" stroke="none" fill="#000"/></g></svg>