<?xml version="1.0" standalone="no"?><!DOCTYPE svg PUBLIC "-//W3C//DTD SVG 1.1//EN" "http://www.w3.org/Graphics/SVG/1.1/DTD/svg11.dtd"><svg xmlns="http://www.w3.org/2000/svg" version="1.1" width="84.1px" height="12.4px" viewBox="0 -1 84.1 12.4" style="top:-1px">  <desc>Hailo</desc>  <defs/>  <g id="Polygon357196">    <path d="M 67.2 7.5 L 67.2 2.6 L 67.8 2.6 L 67.8 4.8 L 70.6 4.8 L 70.6 2.6 L 71.2 2.6 L 71.2 7.5 L 70.6 7.5 L 70.6 5.3 L 67.8 5.3 L 67.8 7.5 L 67.2 7.5 Z M 74.9 6.9 C 74.5 7.3 74.1 7.6 73.5 7.6 C 73.2 7.6 72.9 7.5 72.6 7.3 C 72.3 7.1 72.2 6.8 72.2 6.4 C 72.2 6.4 72.2 6.4 72.2 6.4 C 72.2 6 72.3 5.8 72.6 5.6 C 72.9 5.3 73.3 5.2 73.7 5.2 C 74.1 5.2 74.5 5.3 74.9 5.4 C 74.9 5.4 74.9 5.3 74.9 5.3 C 74.9 5 74.8 4.7 74.6 4.5 C 74.4 4.4 74.1 4.3 73.8 4.3 C 73.4 4.3 73 4.4 72.7 4.6 C 72.7 4.6 72.5 4.1 72.5 4.1 C 72.9 3.9 73.4 3.8 73.8 3.8 C 74.3 3.8 74.7 3.9 75 4.2 C 75.2 4.5 75.4 4.8 75.4 5.3 C 75.37 5.27 75.4 7.5 75.4 7.5 L 74.9 7.5 L 74.9 6.9 C 74.9 6.9 74.85 6.93 74.9 6.9 Z M 73.6 7.1 C 74 7.1 74.3 7 74.5 6.9 C 74.7 6.7 74.9 6.4 74.9 6.1 C 74.9 6.1 74.9 5.8 74.9 5.8 C 74.5 5.7 74.1 5.6 73.8 5.6 C 73.5 5.6 73.2 5.7 73 5.8 C 72.8 6 72.7 6.2 72.7 6.4 C 72.7 6.4 72.7 6.4 72.7 6.4 C 72.7 6.6 72.8 6.8 73 6.9 C 73.2 7.1 73.4 7.1 73.6 7.1 Z M 76.5 3.1 L 76.5 2.5 L 77.1 2.5 L 77.1 3.1 L 76.5 3.1 Z M 76.6 7.5 L 76.6 3.9 L 77.1 3.9 L 77.1 7.5 L 76.6 7.5 Z M 78.4 7.5 L 78.4 2.4 L 78.9 2.4 L 78.9 7.5 L 78.4 7.5 Z M 81.9 7.6 C 81.3 7.6 80.9 7.4 80.5 7 C 80.2 6.6 80 6.2 80 5.7 C 80 5.7 80 5.7 80 5.7 C 80 5.1 80.2 4.7 80.5 4.3 C 80.9 4 81.3 3.8 81.9 3.8 C 82.4 3.8 82.8 4 83.2 4.3 C 83.6 4.7 83.7 5.1 83.7 5.7 C 83.7 5.7 83.7 5.7 83.7 5.7 C 83.7 6.2 83.6 6.6 83.2 7 C 82.8 7.4 82.4 7.6 81.9 7.6 Z M 81.9 7.1 C 82.2 7.1 82.6 6.9 82.8 6.7 C 83.1 6.4 83.2 6.1 83.2 5.7 C 83.2 5.7 83.2 5.7 83.2 5.7 C 83.2 5.3 83.1 4.9 82.8 4.7 C 82.5 4.4 82.2 4.3 81.9 4.3 C 81.5 4.3 81.2 4.4 80.9 4.7 C 80.7 4.9 80.5 5.3 80.5 5.7 C 80.5 5.7 80.5 5.7 80.5 5.7 C 80.5 6.1 80.7 6.4 80.9 6.7 C 81.2 6.9 81.5 7.1 81.9 7.1 Z " stroke="none" fill="#000"/>  </g></svg>