<?xml version="1.0" standalone="no"?><!DOCTYPE svg PUBLIC "-//W3C//DTD SVG 1.1//EN" "http://www.w3.org/Graphics/SVG/1.1/DTD/svg11.dtd"><svg xmlns="http://www.w3.org/2000/svg" version="1.1" width="141.3px" height="79.4px" viewBox="0 -3 141.3 79.4" style="top:-3px">  <desc>Solo S v Sabunluk 300 ml r n Kodu: ZD 34775 Renk: Soft Gri Malzeme: Porselen/ABS l ler: 17,50 Tasar m: Solo</desc>  <defs/>  <g id="Polygon46828">    <path d="M 2 59.6 L 2 55.2 L 0.3 55.2 L 0.3 54.7 L 4.2 54.7 L 4.2 55.2 L 2.5 55.2 L 2.5 59.6 L 2 59.6 Z M 7.5 59.1 C 7.2 59.5 6.7 59.7 6.2 59.7 C 5.8 59.7 5.5 59.6 5.2 59.4 C 5 59.2 4.8 58.9 4.8 58.5 C 4.8 58.5 4.8 58.5 4.8 58.5 C 4.8 58.2 5 57.9 5.2 57.7 C 5.5 57.5 5.9 57.4 6.4 57.4 C 6.7 57.4 7.1 57.4 7.5 57.5 C 7.5 57.5 7.5 57.4 7.5 57.4 C 7.5 57.1 7.4 56.8 7.2 56.7 C 7 56.5 6.7 56.4 6.4 56.4 C 6 56.4 5.7 56.5 5.3 56.7 C 5.3 56.7 5.1 56.2 5.1 56.2 C 5.6 56 6 55.9 6.5 55.9 C 7 55.9 7.4 56.1 7.6 56.3 C 7.9 56.6 8 56.9 8 57.4 C 7.99 57.39 8 59.6 8 59.6 L 7.5 59.6 L 7.5 59.1 C 7.5 59.1 7.48 59.05 7.5 59.1 Z M 6.3 59.2 C 6.6 59.2 6.9 59.2 7.1 59 C 7.4 58.8 7.5 58.6 7.5 58.3 C 7.5 58.3 7.5 57.9 7.5 57.9 C 7.1 57.8 6.8 57.8 6.4 57.8 C 6.1 57.8 5.8 57.8 5.6 58 C 5.5 58.1 5.4 58.3 5.4 58.5 C 5.4 58.5 5.4 58.5 5.4 58.5 C 5.4 58.7 5.5 58.9 5.6 59.1 C 5.8 59.2 6 59.2 6.3 59.2 Z M 10.3 59.7 C 9.8 59.7 9.3 59.5 8.8 59.1 C 8.8 59.1 9.1 58.8 9.1 58.8 C 9.5 59.1 9.9 59.2 10.4 59.2 C 10.6 59.2 10.8 59.2 10.9 59.1 C 11 59 11.1 58.8 11.1 58.6 C 11.1 58.6 11.1 58.6 11.1 58.6 C 11.1 58.5 11 58.3 10.9 58.2 C 10.7 58.2 10.5 58.1 10.2 58 C 10.1 58 10 57.9 9.9 57.9 C 9.9 57.9 9.8 57.8 9.7 57.8 C 9.5 57.8 9.5 57.7 9.4 57.7 C 9.3 57.6 9.3 57.6 9.2 57.5 C 9.1 57.4 9.1 57.4 9.1 57.3 C 9 57.2 9 57.1 9 57 C 9 57 9 57 9 57 C 9 56.6 9.1 56.4 9.4 56.2 C 9.6 56 9.9 55.9 10.2 55.9 C 10.7 55.9 11.1 56.1 11.5 56.3 C 11.5 56.3 11.3 56.7 11.3 56.7 C 10.9 56.5 10.6 56.4 10.2 56.4 C 10 56.4 9.9 56.4 9.7 56.5 C 9.6 56.6 9.5 56.7 9.5 56.9 C 9.5 56.9 9.5 56.9 9.5 56.9 C 9.5 57 9.6 57 9.6 57.1 C 9.6 57.1 9.7 57.2 9.7 57.2 C 9.8 57.3 9.8 57.3 9.9 57.4 C 10 57.4 10.1 57.4 10.2 57.4 C 10.2 57.5 10.3 57.5 10.5 57.5 C 10.6 57.6 10.7 57.6 10.8 57.6 C 10.9 57.7 11 57.7 11.1 57.8 C 11.2 57.8 11.3 57.9 11.4 58 C 11.5 58 11.5 58.1 11.6 58.2 C 11.6 58.3 11.6 58.4 11.6 58.6 C 11.6 58.6 11.6 58.6 11.6 58.6 C 11.6 58.9 11.5 59.2 11.3 59.4 C 11 59.6 10.7 59.7 10.3 59.7 Z M 15 59.1 C 14.7 59.5 14.3 59.7 13.7 59.7 C 13.3 59.7 13 59.6 12.8 59.4 C 12.5 59.2 12.4 58.9 12.4 58.5 C 12.4 58.5 12.4 58.5 12.4 58.5 C 12.4 58.2 12.5 57.9 12.8 57.7 C 13.1 57.5 13.4 57.4 13.9 57.4 C 14.3 57.4 14.6 57.4 15 57.5 C 15 57.5 15 57.4 15 57.4 C 15 57.1 14.9 56.8 14.7 56.7 C 14.5 56.5 14.3 56.4 13.9 56.4 C 13.6 56.4 13.2 56.5 12.8 56.7 C 12.8 56.7 12.7 56.2 12.7 56.2 C 13.1 56 13.5 55.9 14 55.9 C 14.5 55.9 14.9 56.1 15.2 56.3 C 15.4 56.6 15.5 56.9 15.5 57.4 C 15.53 57.39 15.5 59.6 15.5 59.6 L 15 59.6 L 15 59.1 C 15 59.1 15.01 59.05 15 59.1 Z M 13.8 59.2 C 14.2 59.2 14.4 59.2 14.7 59 C 14.9 58.8 15 58.6 15 58.3 C 15 58.3 15 57.9 15 57.9 C 14.7 57.8 14.3 57.8 14 57.8 C 13.6 57.8 13.4 57.8 13.2 58 C 13 58.1 12.9 58.3 12.9 58.5 C 12.9 58.5 12.9 58.5 12.9 58.5 C 12.9 58.7 13 58.9 13.2 59.1 C 13.3 59.2 13.6 59.2 13.8 59.2 Z M 16.7 59.6 L 16.7 56 L 17.2 56 C 17.2 56 17.22 56.93 17.2 56.9 C 17.4 56.6 17.6 56.4 17.8 56.2 C 18.1 56 18.4 55.9 18.7 55.9 C 18.7 55.92 18.7 56.5 18.7 56.5 C 18.7 56.5 18.65 56.5 18.7 56.5 C 18.2 56.5 17.9 56.6 17.6 56.9 C 17.4 57.2 17.2 57.6 17.2 58.2 C 17.22 58.16 17.2 59.6 17.2 59.6 L 16.7 59.6 Z M 19.6 59.6 L 19.6 56 L 20.1 56 L 20.1 59.6 L 19.6 59.6 Z M 21.4 59.6 L 21.4 56 L 21.9 56 C 21.9 56 21.9 56.59 21.9 56.6 C 22 56.4 22.2 56.2 22.4 56.1 C 22.6 56 22.8 55.9 23.1 55.9 C 23.6 55.9 24 56.1 24.2 56.6 C 24.5 56.1 25 55.9 25.5 55.9 C 25.9 55.9 26.2 56 26.5 56.3 C 26.7 56.6 26.8 56.9 26.8 57.4 C 26.84 57.36 26.8 59.6 26.8 59.6 L 26.3 59.6 C 26.3 59.6 26.31 57.49 26.3 57.5 C 26.3 57.1 26.2 56.9 26.1 56.7 C 25.9 56.5 25.7 56.4 25.4 56.4 C 25.1 56.4 24.9 56.5 24.7 56.7 C 24.5 56.9 24.4 57.2 24.4 57.5 C 24.37 57.51 24.4 59.6 24.4 59.6 L 23.8 59.6 C 23.8 59.6 23.83 57.47 23.8 57.5 C 23.8 57.1 23.8 56.9 23.6 56.7 C 23.4 56.5 23.2 56.4 22.9 56.4 C 22.6 56.4 22.4 56.5 22.2 56.7 C 22 56.9 21.9 57.2 21.9 57.5 C 21.9 57.53 21.9 59.6 21.9 59.6 L 21.4 59.6 Z M 28 56.7 L 28 56 L 28.6 56 L 28.6 56.7 L 28 56.7 Z M 28 59.6 L 28 58.9 L 28.6 58.9 L 28.6 59.6 L 28 59.6 Z M 33.6 59.7 C 32.9 59.7 32.2 59.4 31.6 58.9 C 31.6 58.9 32 58.5 32 58.5 C 32.2 58.7 32.5 58.9 32.8 59 C 33 59.1 33.3 59.2 33.7 59.2 C 34 59.2 34.3 59.1 34.5 58.9 C 34.7 58.8 34.8 58.6 34.8 58.3 C 34.8 58.3 34.8 58.3 34.8 58.3 C 34.8 58.1 34.7 57.9 34.5 57.8 C 34.3 57.6 34 57.5 33.5 57.4 C 32.9 57.3 32.5 57.1 32.2 56.9 C 32 56.7 31.8 56.4 31.8 56 C 31.8 56 31.8 56 31.8 56 C 31.8 55.6 32 55.3 32.3 55 C 32.6 54.8 33 54.6 33.4 54.6 C 33.8 54.6 34.1 54.7 34.4 54.8 C 34.6 54.9 34.9 55 35.2 55.2 C 35.2 55.2 34.8 55.7 34.8 55.7 C 34.4 55.3 33.9 55.1 33.4 55.1 C 33.1 55.1 32.9 55.2 32.7 55.4 C 32.5 55.5 32.4 55.7 32.4 55.9 C 32.4 55.9 32.4 55.9 32.4 55.9 C 32.4 56.2 32.5 56.4 32.7 56.5 C 32.8 56.7 33.2 56.8 33.7 56.9 C 34.3 57 34.7 57.2 34.9 57.4 C 35.2 57.6 35.3 57.9 35.3 58.3 C 35.3 58.3 35.3 58.3 35.3 58.3 C 35.3 58.7 35.2 59 34.8 59.3 C 34.5 59.5 34.1 59.7 33.6 59.7 Z M 38 59.7 C 37.5 59.7 37 59.5 36.7 59.1 C 36.3 58.8 36.1 58.3 36.1 57.8 C 36.1 57.8 36.1 57.8 36.1 57.8 C 36.1 57.3 36.3 56.8 36.7 56.5 C 37 56.1 37.5 55.9 38 55.9 C 38.6 55.9 39 56.1 39.4 56.5 C 39.7 56.8 39.9 57.3 39.9 57.8 C 39.9 57.8 39.9 57.8 39.9 57.8 C 39.9 58.3 39.7 58.8 39.4 59.1 C 39 59.5 38.5 59.7 38 59.7 Z M 38 59.2 C 38.4 59.2 38.7 59.1 39 58.8 C 39.2 58.5 39.3 58.2 39.3 57.8 C 39.3 57.8 39.3 57.8 39.3 57.8 C 39.3 57.4 39.2 57.1 39 56.8 C 38.7 56.5 38.4 56.4 38 56.4 C 37.6 56.4 37.3 56.5 37.1 56.8 C 36.8 57.1 36.7 57.4 36.7 57.8 C 36.7 57.8 36.7 57.8 36.7 57.8 C 36.7 58.2 36.8 58.5 37.1 58.8 C 37.3 59.1 37.6 59.2 38 59.2 Z M 40.9 59.6 L 40.9 54.5 L 41.5 54.5 L 41.5 59.6 L 40.9 59.6 Z M 44.4 59.7 C 43.8 59.7 43.4 59.5 43 59.1 C 42.7 58.8 42.5 58.3 42.5 57.8 C 42.5 57.8 42.5 57.8 42.5 57.8 C 42.5 57.3 42.7 56.8 43 56.5 C 43.4 56.1 43.8 55.9 44.4 55.9 C 44.9 55.9 45.4 56.1 45.7 56.5 C 46.1 56.8 46.3 57.3 46.3 57.8 C 46.3 57.8 46.3 57.8 46.3 57.8 C 46.3 58.3 46.1 58.8 45.7 59.1 C 45.4 59.5 44.9 59.7 44.4 59.7 Z M 44.4 59.2 C 44.8 59.2 45.1 59.1 45.3 58.8 C 45.6 58.5 45.7 58.2 45.7 57.8 C 45.7 57.8 45.7 57.8 45.7 57.8 C 45.7 57.4 45.6 57.1 45.3 56.8 C 45.1 56.5 44.7 56.4 44.4 56.4 C 44 56.4 43.7 56.5 43.4 56.8 C 43.2 57.1 43 57.4 43 57.8 C 43 57.8 43 57.8 43 57.8 C 43 58.2 43.2 58.5 43.4 58.8 C 43.7 59.1 44 59.2 44.4 59.2 Z " stroke="none" fill="#000"/>  </g>  <g id="Polygon46827">    <path d="M 3.3 45.2 L 3.3 44.6 L 4 44.6 L 4 45.2 L 3.3 45.2 Z M 2 45.2 L 2 44.6 L 2.6 44.6 L 2.6 45.2 L 2 45.2 Z M 5.5 48.1 C 5.5 48.8 5.2 49.4 4.8 49.9 C 4.3 50.4 3.7 50.7 3 50.7 C 2.2 50.7 1.6 50.4 1.2 49.9 C 0.7 49.5 0.5 48.9 0.5 48.2 C 0.5 48.2 0.5 48.1 0.5 48.1 C 0.5 47.5 0.7 46.9 1.2 46.4 C 1.7 45.9 2.3 45.6 3 45.6 C 3.7 45.6 4.3 45.9 4.8 46.4 C 5.2 46.8 5.5 47.4 5.5 48.1 C 5.47 48.14 5.5 48.1 5.5 48.1 C 5.5 48.1 5.47 48.15 5.5 48.1 Z M 1.1 48.1 C 1.1 48.7 1.2 49.2 1.6 49.6 C 2 50 2.4 50.2 3 50.2 C 3.5 50.2 4 50 4.4 49.6 C 4.7 49.2 4.9 48.7 4.9 48.2 C 4.9 48.2 4.9 48.1 4.9 48.1 C 4.9 47.6 4.7 47.1 4.4 46.7 C 4 46.3 3.5 46.1 3 46.1 C 2.4 46.1 2 46.3 1.6 46.7 C 1.2 47.1 1.1 47.6 1.1 48.1 C 1.05 48.14 1.1 48.1 1.1 48.1 C 1.1 48.1 1.05 48.15 1.1 48.1 Z M 6.6 50.6 L 6.6 45.5 L 7.1 45.5 L 7.1 50.6 L 6.6 50.6 Z M 9.7 51.7 L 9.1 51.4 C 9.1 51.4 9.69 50.65 9.7 50.6 C 9.2 50.6 8.9 50.4 8.6 50 C 8.3 49.7 8.2 49.3 8.2 48.8 C 8.2 48.8 8.2 48.8 8.2 48.8 C 8.2 48.3 8.3 47.8 8.7 47.5 C 9.1 47.1 9.5 46.9 10 46.9 C 10.6 46.9 11.1 47.1 11.5 47.5 C 11.5 47.5 11.1 47.9 11.1 47.9 C 10.8 47.6 10.4 47.4 10 47.4 C 9.6 47.4 9.3 47.5 9.1 47.8 C 8.8 48.1 8.7 48.4 8.7 48.8 C 8.7 48.8 8.7 48.8 8.7 48.8 C 8.7 49.2 8.8 49.5 9.1 49.8 C 9.4 50.1 9.7 50.2 10.1 50.2 C 10.5 50.2 10.8 50 11.2 49.7 C 11.2 49.7 11.5 50 11.5 50 C 11.1 50.4 10.7 50.7 10.1 50.7 C 10.13 50.68 9.7 51.7 9.7 51.7 Z M 14.2 46.4 L 14.2 45.8 L 14.8 45.8 L 14.8 46.4 L 14.2 46.4 Z M 13 46.4 L 13 45.8 L 13.6 45.8 L 13.6 46.4 L 13 46.4 Z M 15 50 C 14.7 50.4 14.3 50.7 13.7 50.7 C 13.3 50.7 13 50.5 12.7 50.3 C 12.5 50 12.3 49.7 12.3 49.2 C 12.33 49.23 12.3 47 12.3 47 L 12.9 47 C 12.9 47 12.87 49.09 12.9 49.1 C 12.9 49.4 13 49.7 13.1 49.9 C 13.3 50.1 13.6 50.2 13.9 50.2 C 14.2 50.2 14.4 50.1 14.7 49.9 C 14.9 49.7 15 49.4 15 49.1 C 14.96 49.05 15 47 15 47 L 15.5 47 L 15.5 50.6 L 15 50.6 L 15 50 C 15 50 14.96 49.97 15 50 Z M 16.8 50.6 L 16.8 45.5 L 17.3 45.5 L 17.3 50.6 L 16.8 50.6 Z M 21.6 50 C 21.2 50.5 20.7 50.7 20.1 50.7 C 19.6 50.7 19.2 50.5 18.8 50.2 C 18.5 49.8 18.3 49.4 18.3 48.8 C 18.3 48.8 18.3 48.8 18.3 48.8 C 18.3 48.3 18.5 47.8 18.8 47.4 C 19.1 47.1 19.6 46.9 20.1 46.9 C 20.6 46.9 21 47.1 21.3 47.4 C 21.6 47.8 21.7 48.3 21.7 48.8 C 21.7 48.9 21.7 48.9 21.7 49 C 21.7 49 18.9 49 18.9 49 C 18.9 49.4 19 49.7 19.3 49.9 C 19.5 50.1 19.8 50.2 20.1 50.2 C 20.6 50.2 20.9 50 21.3 49.7 C 21.28 49.7 21.6 50 21.6 50 C 21.6 50 21.62 50 21.6 50 Z M 18.9 48.6 C 18.9 48.6 21.2 48.6 21.2 48.6 C 21.2 48.2 21.1 47.9 20.9 47.7 C 20.7 47.5 20.4 47.4 20 47.4 C 19.7 47.4 19.5 47.5 19.2 47.7 C 19 47.9 18.9 48.2 18.9 48.6 Z M 22.7 50.6 L 22.7 47 L 23.2 47 C 23.2 47 23.23 47.93 23.2 47.9 C 23.4 47.6 23.6 47.4 23.8 47.2 C 24.1 47 24.4 46.9 24.7 46.9 C 24.7 46.92 24.7 47.5 24.7 47.5 C 24.7 47.5 24.66 47.5 24.7 47.5 C 24.2 47.5 23.9 47.6 23.6 47.9 C 23.4 48.2 23.2 48.6 23.2 49.2 C 23.23 49.16 23.2 50.6 23.2 50.6 L 22.7 50.6 Z M 25.5 47.7 L 25.5 47 L 26.1 47 L 26.1 47.7 L 25.5 47.7 Z M 25.5 50.6 L 25.5 49.9 L 26.1 49.9 L 26.1 50.6 L 25.5 50.6 Z M 30.1 50.6 L 30.1 46.2 L 29.1 46.5 L 29 46.1 L 30.2 45.7 L 30.6 45.7 L 30.6 50.6 L 30.1 50.6 Z M 32.3 50.6 L 34.5 46.2 L 31.8 46.2 L 31.8 45.7 L 35.1 45.7 L 35.1 46.1 L 32.9 50.6 L 32.3 50.6 Z M 35.9 51.5 C 35.9 51.5 35.8 51.2 35.8 51.2 C 36.1 51.1 36.3 50.9 36.3 50.6 C 36.27 50.6 36 50.6 36 50.6 L 36 49.9 L 36.7 49.9 C 36.7 49.9 36.66 50.49 36.7 50.5 C 36.7 50.8 36.6 51 36.5 51.1 C 36.3 51.3 36.2 51.4 35.9 51.5 Z M 39.3 50.7 C 38.7 50.7 38.1 50.4 37.6 49.9 C 37.6 49.9 37.9 49.5 37.9 49.5 C 38.4 50 38.8 50.2 39.3 50.2 C 39.7 50.2 39.9 50.1 40.2 49.9 C 40.4 49.7 40.5 49.4 40.5 49.1 C 40.5 49.1 40.5 49.1 40.5 49.1 C 40.5 48.8 40.4 48.5 40.2 48.3 C 39.9 48.1 39.6 48.1 39.3 48.1 C 38.9 48.1 38.6 48.1 38.3 48.3 C 38.25 48.33 37.9 48.1 37.9 48.1 L 38 45.7 L 40.8 45.7 L 40.8 46.2 L 38.5 46.2 C 38.5 46.2 38.4 47.78 38.4 47.8 C 38.7 47.6 39 47.6 39.4 47.6 C 39.9 47.6 40.3 47.7 40.6 48 C 40.9 48.2 41.1 48.6 41.1 49.1 C 41.1 49.1 41.1 49.1 41.1 49.1 C 41.1 49.5 40.9 49.9 40.6 50.2 C 40.3 50.5 39.8 50.7 39.3 50.7 Z M 46 48.1 C 46 48.9 45.9 49.5 45.5 49.9 C 45.1 50.4 44.6 50.7 44 50.7 C 43.4 50.7 42.9 50.4 42.5 50 C 42.1 49.5 41.9 48.9 41.9 48.2 C 41.9 48.2 41.9 48.1 41.9 48.1 C 41.9 47.4 42.1 46.8 42.5 46.4 C 42.9 45.9 43.4 45.6 44 45.6 C 44.6 45.6 45.1 45.9 45.5 46.3 C 45.9 46.8 46 47.4 46 48.1 C 46.05 48.14 46 48.1 46 48.1 C 46 48.1 46.05 48.15 46 48.1 Z M 42.5 48.1 C 42.5 48.7 42.6 49.2 42.9 49.6 C 43.2 50 43.5 50.2 44 50.2 C 44.4 50.2 44.8 50 45.1 49.6 C 45.3 49.2 45.5 48.7 45.5 48.2 C 45.5 48.2 45.5 48.1 45.5 48.1 C 45.5 47.6 45.3 47.1 45.1 46.7 C 44.8 46.3 44.4 46.1 44 46.1 C 43.5 46.1 43.2 46.3 42.9 46.7 C 42.6 47.1 42.5 47.6 42.5 48.1 C 42.48 48.14 42.5 48.1 42.5 48.1 C 42.5 48.1 42.48 48.15 42.5 48.1 Z " stroke="none" fill="#000"/>  </g>  <g id="Polygon46826">    <path d="M 0.7 41.6 L 0.7 36.7 L 1.3 36.7 L 3 39.4 L 4.8 36.7 L 5.4 36.7 L 5.4 41.6 L 4.8 41.6 L 4.8 37.6 L 3 40.3 L 3 40.3 L 1.2 37.6 L 1.2 41.6 L 0.7 41.6 Z M 9.1 41.1 C 8.7 41.5 8.3 41.7 7.8 41.7 C 7.4 41.7 7.1 41.6 6.8 41.4 C 6.5 41.2 6.4 40.9 6.4 40.5 C 6.4 40.5 6.4 40.5 6.4 40.5 C 6.4 40.2 6.5 39.9 6.8 39.7 C 7.1 39.5 7.5 39.4 8 39.4 C 8.3 39.4 8.7 39.4 9.1 39.5 C 9.1 39.5 9.1 39.4 9.1 39.4 C 9.1 39.1 9 38.8 8.8 38.7 C 8.6 38.5 8.3 38.4 8 38.4 C 7.6 38.4 7.3 38.5 6.9 38.7 C 6.9 38.7 6.7 38.2 6.7 38.2 C 7.2 38 7.6 37.9 8 37.9 C 8.6 37.9 8.9 38.1 9.2 38.3 C 9.5 38.6 9.6 38.9 9.6 39.4 C 9.58 39.39 9.6 41.6 9.6 41.6 L 9.1 41.6 L 9.1 41.1 C 9.1 41.1 9.06 41.05 9.1 41.1 Z M 7.9 41.2 C 8.2 41.2 8.5 41.2 8.7 41 C 9 40.8 9.1 40.6 9.1 40.3 C 9.1 40.3 9.1 39.9 9.1 39.9 C 8.7 39.8 8.4 39.8 8 39.8 C 7.7 39.8 7.4 39.8 7.2 40 C 7 40.1 7 40.3 7 40.5 C 7 40.5 7 40.5 7 40.5 C 7 40.7 7 40.9 7.2 41.1 C 7.4 41.2 7.6 41.2 7.9 41.2 Z M 10.8 41.6 L 10.8 36.5 L 11.3 36.5 L 11.3 41.6 L 10.8 41.6 Z M 12.4 41.6 L 12.4 41.3 L 14.8 38.4 L 12.4 38.4 L 12.4 38 L 15.5 38 L 15.5 38.3 L 13.1 41.1 L 15.5 41.1 L 15.5 41.6 L 12.4 41.6 Z M 19.5 41 C 19.1 41.5 18.6 41.7 18 41.7 C 17.5 41.7 17.1 41.5 16.8 41.2 C 16.4 40.8 16.2 40.4 16.2 39.8 C 16.2 39.8 16.2 39.8 16.2 39.8 C 16.2 39.3 16.4 38.8 16.7 38.4 C 17.1 38.1 17.5 37.9 18 37.9 C 18.5 37.9 18.9 38.1 19.2 38.4 C 19.5 38.8 19.7 39.3 19.7 39.8 C 19.7 39.9 19.7 39.9 19.7 40 C 19.7 40 16.8 40 16.8 40 C 16.8 40.4 17 40.7 17.2 40.9 C 17.4 41.1 17.7 41.2 18.1 41.2 C 18.5 41.2 18.9 41 19.2 40.7 C 19.2 40.7 19.5 41 19.5 41 C 19.5 41 19.54 41 19.5 41 Z M 16.8 39.6 C 16.8 39.6 19.1 39.6 19.1 39.6 C 19.1 39.2 19 38.9 18.8 38.7 C 18.6 38.5 18.3 38.4 18 38.4 C 17.6 38.4 17.4 38.5 17.2 38.7 C 17 38.9 16.8 39.2 16.8 39.6 Z M 20.6 41.6 L 20.6 38 L 21.1 38 C 21.1 38 21.15 38.59 21.1 38.6 C 21.3 38.4 21.5 38.2 21.6 38.1 C 21.8 38 22 37.9 22.3 37.9 C 22.9 37.9 23.2 38.1 23.5 38.6 C 23.8 38.1 24.2 37.9 24.8 37.9 C 25.2 37.9 25.5 38 25.7 38.3 C 26 38.6 26.1 38.9 26.1 39.4 C 26.1 39.36 26.1 41.6 26.1 41.6 L 25.6 41.6 C 25.6 41.6 25.56 39.49 25.6 39.5 C 25.6 39.1 25.5 38.9 25.3 38.7 C 25.1 38.5 24.9 38.4 24.6 38.4 C 24.3 38.4 24.1 38.5 23.9 38.7 C 23.7 38.9 23.6 39.2 23.6 39.5 C 23.62 39.51 23.6 41.6 23.6 41.6 L 23.1 41.6 C 23.1 41.6 23.09 39.47 23.1 39.5 C 23.1 39.1 23 38.9 22.8 38.7 C 22.7 38.5 22.4 38.4 22.2 38.4 C 21.9 38.4 21.6 38.5 21.4 38.7 C 21.2 38.9 21.1 39.2 21.1 39.5 C 21.15 39.53 21.1 41.6 21.1 41.6 L 20.6 41.6 Z M 30.3 41 C 29.9 41.5 29.4 41.7 28.8 41.7 C 28.3 41.7 27.9 41.5 27.5 41.2 C 27.2 40.8 27 40.4 27 39.8 C 27 39.8 27 39.8 27 39.8 C 27 39.3 27.2 38.8 27.5 38.4 C 27.8 38.1 28.3 37.9 28.8 37.9 C 29.3 37.9 29.7 38.1 30 38.4 C 30.3 38.8 30.4 39.3 30.4 39.8 C 30.4 39.9 30.4 39.9 30.4 40 C 30.4 40 27.6 40 27.6 40 C 27.6 40.4 27.7 40.7 28 40.9 C 28.2 41.1 28.5 41.2 28.8 41.2 C 29.3 41.2 29.6 41 30 40.7 C 29.98 40.7 30.3 41 30.3 41 C 30.3 41 30.32 41 30.3 41 Z M 27.6 39.6 C 27.6 39.6 29.9 39.6 29.9 39.6 C 29.9 39.2 29.8 38.9 29.6 38.7 C 29.4 38.5 29.1 38.4 28.7 38.4 C 28.4 38.4 28.2 38.5 27.9 38.7 C 27.7 38.9 27.6 39.2 27.6 39.6 Z M 31.4 38.7 L 31.4 38 L 32 38 L 32 38.7 L 31.4 38.7 Z M 31.4 41.6 L 31.4 40.9 L 32 40.9 L 32 41.6 L 31.4 41.6 Z M 35.4 41.6 L 35.4 36.7 C 35.4 36.7 37.19 36.7 37.2 36.7 C 37.7 36.7 38.2 36.8 38.5 37.1 C 38.9 37.4 39 37.8 39 38.3 C 39 38.3 39 38.3 39 38.3 C 39 38.8 38.8 39.2 38.5 39.5 C 38.1 39.7 37.7 39.9 37.1 39.9 C 37.1 39.87 35.9 39.9 35.9 39.9 L 35.9 41.6 L 35.4 41.6 Z M 35.9 39.4 C 35.9 39.4 37.12 39.37 37.1 39.4 C 37.5 39.4 37.9 39.3 38.1 39.1 C 38.3 38.9 38.5 38.6 38.5 38.3 C 38.5 38.3 38.5 38.3 38.5 38.3 C 38.5 37.9 38.3 37.7 38.1 37.5 C 37.9 37.3 37.6 37.2 37.1 37.2 C 37.15 37.21 35.9 37.2 35.9 37.2 L 35.9 39.4 Z M 41.6 41.7 C 41.1 41.7 40.6 41.5 40.3 41.1 C 39.9 40.8 39.7 40.3 39.7 39.8 C 39.7 39.8 39.7 39.8 39.7 39.8 C 39.7 39.3 39.9 38.8 40.3 38.5 C 40.6 38.1 41.1 37.9 41.6 37.9 C 42.1 37.9 42.6 38.1 43 38.5 C 43.3 38.8 43.5 39.3 43.5 39.8 C 43.5 39.8 43.5 39.8 43.5 39.8 C 43.5 40.3 43.3 40.8 42.9 41.1 C 42.6 41.5 42.1 41.7 41.6 41.7 Z M 41.6 41.2 C 42 41.2 42.3 41.1 42.6 40.8 C 42.8 40.5 42.9 40.2 42.9 39.8 C 42.9 39.8 42.9 39.8 42.9 39.8 C 42.9 39.4 42.8 39.1 42.5 38.8 C 42.3 38.5 42 38.4 41.6 38.4 C 41.2 38.4 40.9 38.5 40.6 38.8 C 40.4 39.1 40.3 39.4 40.3 39.8 C 40.3 39.8 40.3 39.8 40.3 39.8 C 40.3 40.2 40.4 40.5 40.7 40.8 C 40.9 41.1 41.2 41.2 41.6 41.2 Z M 44.5 41.6 L 44.5 38 L 45 38 C 45 38 45 38.93 45 38.9 C 45.1 38.6 45.3 38.4 45.6 38.2 C 45.9 38 46.1 37.9 46.5 37.9 C 46.48 37.92 46.5 38.5 46.5 38.5 C 46.5 38.5 46.44 38.5 46.4 38.5 C 46 38.5 45.7 38.6 45.4 38.9 C 45.1 39.2 45 39.6 45 40.2 C 45 40.16 45 41.6 45 41.6 L 44.5 41.6 Z M 48.5 41.7 C 47.9 41.7 47.4 41.5 47 41.1 C 47 41.1 47.3 40.8 47.3 40.8 C 47.7 41.1 48.1 41.2 48.5 41.2 C 48.7 41.2 48.9 41.2 49.1 41.1 C 49.2 41 49.3 40.8 49.3 40.6 C 49.3 40.6 49.3 40.6 49.3 40.6 C 49.3 40.5 49.2 40.3 49 40.2 C 48.9 40.2 48.7 40.1 48.4 40 C 48.2 40 48.1 39.9 48.1 39.9 C 48 39.9 47.9 39.8 47.8 39.8 C 47.7 39.8 47.6 39.7 47.6 39.7 C 47.5 39.6 47.4 39.6 47.4 39.5 C 47.3 39.4 47.2 39.4 47.2 39.3 C 47.2 39.2 47.2 39.1 47.2 39 C 47.2 39 47.2 39 47.2 39 C 47.2 38.6 47.3 38.4 47.5 38.2 C 47.8 38 48 37.9 48.4 37.9 C 48.9 37.9 49.3 38.1 49.7 38.3 C 49.7 38.3 49.5 38.7 49.5 38.7 C 49.1 38.5 48.7 38.4 48.4 38.4 C 48.2 38.4 48 38.4 47.9 38.5 C 47.8 38.6 47.7 38.7 47.7 38.9 C 47.7 38.9 47.7 38.9 47.7 38.9 C 47.7 39 47.7 39 47.7 39.1 C 47.8 39.1 47.8 39.2 47.9 39.2 C 47.9 39.3 48 39.3 48.1 39.4 C 48.2 39.4 48.3 39.4 48.3 39.4 C 48.4 39.5 48.5 39.5 48.6 39.5 C 48.8 39.6 48.9 39.6 49 39.6 C 49.1 39.7 49.2 39.7 49.3 39.8 C 49.4 39.8 49.5 39.9 49.5 40 C 49.6 40 49.7 40.1 49.7 40.2 C 49.8 40.3 49.8 40.4 49.8 40.6 C 49.8 40.6 49.8 40.6 49.8 40.6 C 49.8 40.9 49.7 41.2 49.4 41.4 C 49.2 41.6 48.9 41.7 48.5 41.7 Z M 53.9 41 C 53.5 41.5 53 41.7 52.4 41.7 C 51.9 41.7 51.4 41.5 51.1 41.2 C 50.7 40.8 50.6 40.4 50.6 39.8 C 50.6 39.8 50.6 39.8 50.6 39.8 C 50.6 39.3 50.7 38.8 51.1 38.4 C 51.4 38.1 51.8 37.9 52.3 37.9 C 52.8 37.9 53.2 38.1 53.5 38.4 C 53.8 38.8 54 39.3 54 39.8 C 54 39.9 54 39.9 54 40 C 54 40 51.1 40 51.1 40 C 51.1 40.4 51.3 40.7 51.5 40.9 C 51.8 41.1 52 41.2 52.4 41.2 C 52.8 41.2 53.2 41 53.5 40.7 C 53.52 40.7 53.9 41 53.9 41 C 53.9 41 53.86 41 53.9 41 Z M 51.1 39.6 C 51.1 39.6 53.4 39.6 53.4 39.6 C 53.4 39.2 53.3 38.9 53.1 38.7 C 52.9 38.5 52.6 38.4 52.3 38.4 C 52 38.4 51.7 38.5 51.5 38.7 C 51.3 38.9 51.1 39.2 51.1 39.6 Z M 55 41.6 L 55 36.5 L 55.5 36.5 L 55.5 41.6 L 55 41.6 Z M 59.8 41 C 59.4 41.5 58.9 41.7 58.4 41.7 C 57.8 41.7 57.4 41.5 57.1 41.2 C 56.7 40.8 56.5 40.4 56.5 39.8 C 56.5 39.8 56.5 39.8 56.5 39.8 C 56.5 39.3 56.7 38.8 57 38.4 C 57.4 38.1 57.8 37.9 58.3 37.9 C 58.8 37.9 59.2 38.1 59.5 38.4 C 59.8 38.8 60 39.3 60 39.8 C 60 39.9 60 39.9 60 40 C 60 40 57.1 40 57.1 40 C 57.1 40.4 57.3 40.7 57.5 40.9 C 57.7 41.1 58 41.2 58.4 41.2 C 58.8 41.2 59.2 41 59.5 40.7 C 59.51 40.7 59.8 41 59.8 41 C 59.8 41 59.84 41 59.8 41 Z M 57.1 39.6 C 57.1 39.6 59.4 39.6 59.4 39.6 C 59.4 39.2 59.3 38.9 59.1 38.7 C 58.9 38.5 58.6 38.4 58.3 38.4 C 58 38.4 57.7 38.5 57.5 38.7 C 57.3 38.9 57.1 39.2 57.1 39.6 Z M 60.9 41.6 L 60.9 38 L 61.5 38 C 61.5 38 61.45 38.61 61.5 38.6 C 61.7 38.1 62.2 37.9 62.7 37.9 C 63.1 37.9 63.5 38 63.7 38.3 C 64 38.6 64.1 38.9 64.1 39.4 C 64.08 39.35 64.1 41.6 64.1 41.6 L 63.5 41.6 C 63.5 41.6 63.54 39.49 63.5 39.5 C 63.5 39.1 63.5 38.9 63.3 38.7 C 63.1 38.5 62.9 38.4 62.5 38.4 C 62.2 38.4 62 38.5 61.8 38.7 C 61.6 38.9 61.5 39.2 61.5 39.5 C 61.45 39.53 61.5 41.6 61.5 41.6 L 60.9 41.6 Z M 64.5 42.5 L 67.7 36 L 68.2 36 L 65 42.5 L 64.5 42.5 Z M 68.5 41.6 L 70.7 36.7 L 71.2 36.7 L 73.4 41.6 L 72.8 41.6 L 72.3 40.3 L 69.6 40.3 L 69 41.6 L 68.5 41.6 Z M 69.8 39.8 L 72.1 39.8 L 70.9 37.3 L 69.8 39.8 Z M 74.4 41.6 L 74.4 36.7 C 74.4 36.7 76.49 36.7 76.5 36.7 C 77 36.7 77.5 36.8 77.8 37.1 C 78 37.3 78.1 37.6 78.1 37.9 C 78.1 37.9 78.1 37.9 78.1 37.9 C 78.1 38.5 77.8 38.8 77.3 39.1 C 78 39.3 78.4 39.7 78.4 40.2 C 78.4 40.2 78.4 40.3 78.4 40.3 C 78.4 40.7 78.2 41 77.9 41.2 C 77.6 41.5 77.1 41.6 76.6 41.6 C 76.58 41.6 74.4 41.6 74.4 41.6 Z M 77.5 38 C 77.5 38 77.5 38 77.5 38 C 77.5 37.7 77.4 37.6 77.2 37.4 C 77.1 37.3 76.8 37.2 76.4 37.2 C 76.44 37.2 74.9 37.2 74.9 37.2 L 74.9 38.9 C 74.9 38.9 76.4 38.88 76.4 38.9 C 76.7 38.9 77 38.8 77.2 38.7 C 77.4 38.5 77.5 38.3 77.5 38 Z M 77.8 40.2 C 77.8 40.2 77.8 40.2 77.8 40.2 C 77.8 39.9 77.7 39.7 77.5 39.6 C 77.2 39.4 76.9 39.4 76.5 39.4 C 76.5 39.37 74.9 39.4 74.9 39.4 L 74.9 41.1 C 74.9 41.1 76.59 41.1 76.6 41.1 C 77 41.1 77.3 41 77.5 40.9 C 77.7 40.7 77.8 40.5 77.8 40.2 Z M 81.1 41.7 C 80.4 41.7 79.7 41.4 79.1 40.9 C 79.1 40.9 79.5 40.5 79.5 40.5 C 79.7 40.7 80 40.9 80.3 41 C 80.5 41.1 80.8 41.2 81.2 41.2 C 81.5 41.2 81.7 41.1 81.9 40.9 C 82.1 40.8 82.2 40.6 82.2 40.3 C 82.2 40.3 82.2 40.3 82.2 40.3 C 82.2 40.1 82.2 39.9 82 39.8 C 81.8 39.6 81.5 39.5 81 39.4 C 80.4 39.3 80 39.1 79.7 38.9 C 79.5 38.7 79.3 38.4 79.3 38 C 79.3 38 79.3 38 79.3 38 C 79.3 37.6 79.5 37.3 79.8 37 C 80.1 36.8 80.5 36.6 80.9 36.6 C 81.3 36.6 81.6 36.7 81.9 36.8 C 82.1 36.9 82.4 37 82.7 37.2 C 82.7 37.2 82.3 37.7 82.3 37.7 C 81.9 37.3 81.4 37.1 80.9 37.1 C 80.6 37.1 80.4 37.2 80.2 37.4 C 80 37.5 79.9 37.7 79.9 37.9 C 79.9 37.9 79.9 37.9 79.9 37.9 C 79.9 38.2 80 38.4 80.2 38.5 C 80.3 38.7 80.7 38.8 81.2 38.9 C 81.8 39 82.2 39.2 82.4 39.4 C 82.7 39.6 82.8 39.9 82.8 40.3 C 82.8 40.3 82.8 40.3 82.8 40.3 C 82.8 40.7 82.7 41 82.3 41.3 C 82 41.5 81.6 41.7 81.1 41.7 Z " stroke="none" fill="#000"/>  </g>  <g id="Polygon46825">    <path d="M 0.7 23.6 L 0.7 18.7 C 0.7 18.7 2.8 18.7 2.8 18.7 C 3.4 18.7 3.9 18.9 4.2 19.2 C 4.4 19.4 4.6 19.8 4.6 20.2 C 4.6 20.2 4.6 20.2 4.6 20.2 C 4.6 20.6 4.4 20.9 4.2 21.1 C 4 21.4 3.6 21.5 3.2 21.6 C 3.24 21.6 4.7 23.6 4.7 23.6 L 4.1 23.6 L 2.6 21.7 L 1.2 21.7 L 1.2 23.6 L 0.7 23.6 Z M 1.2 21.2 C 1.2 21.2 2.75 21.2 2.8 21.2 C 3.1 21.2 3.4 21.1 3.7 20.9 C 3.9 20.7 4 20.5 4 20.2 C 4 20.2 4 20.2 4 20.2 C 4 19.9 3.9 19.6 3.7 19.5 C 3.5 19.3 3.2 19.2 2.8 19.2 C 2.76 19.21 1.2 19.2 1.2 19.2 L 1.2 21.2 Z M 8.7 23 C 8.3 23.5 7.8 23.7 7.2 23.7 C 6.7 23.7 6.3 23.5 6 23.2 C 5.6 22.8 5.4 22.4 5.4 21.8 C 5.4 21.8 5.4 21.8 5.4 21.8 C 5.4 21.3 5.6 20.8 5.9 20.4 C 6.3 20.1 6.7 19.9 7.2 19.9 C 7.7 19.9 8.1 20.1 8.4 20.4 C 8.7 20.8 8.9 21.3 8.9 21.8 C 8.9 21.9 8.9 21.9 8.9 22 C 8.9 22 6 22 6 22 C 6 22.4 6.2 22.7 6.4 22.9 C 6.6 23.1 6.9 23.2 7.3 23.2 C 7.7 23.2 8.1 23 8.4 22.7 C 8.4 22.7 8.7 23 8.7 23 C 8.7 23 8.74 23 8.7 23 Z M 6 21.6 C 6 21.6 8.3 21.6 8.3 21.6 C 8.3 21.2 8.2 20.9 8 20.7 C 7.8 20.5 7.5 20.4 7.2 20.4 C 6.8 20.4 6.6 20.5 6.4 20.7 C 6.1 20.9 6 21.2 6 21.6 Z M 9.8 23.6 L 9.8 20 L 10.3 20 C 10.3 20 10.35 20.61 10.3 20.6 C 10.6 20.1 11.1 19.9 11.6 19.9 C 12 19.9 12.4 20 12.6 20.3 C 12.8 20.6 13 20.9 13 21.4 C 12.97 21.35 13 23.6 13 23.6 L 12.4 23.6 C 12.4 23.6 12.43 21.49 12.4 21.5 C 12.4 21.1 12.3 20.9 12.2 20.7 C 12 20.5 11.7 20.4 11.4 20.4 C 11.1 20.4 10.9 20.5 10.7 20.7 C 10.4 20.9 10.3 21.2 10.3 21.5 C 10.35 21.53 10.3 23.6 10.3 23.6 L 9.8 23.6 Z M 14.1 23.6 L 14.1 18.5 L 14.7 18.5 L 14.7 22 L 16.6 20 L 17.3 20 L 15.8 21.5 L 17.3 23.6 L 16.7 23.6 L 15.4 21.9 L 14.7 22.7 L 14.7 23.6 L 14.1 23.6 Z M 18.1 20.7 L 18.1 20 L 18.7 20 L 18.7 20.7 L 18.1 20.7 Z M 18.1 23.6 L 18.1 22.9 L 18.7 22.9 L 18.7 23.6 L 18.1 23.6 Z M 23.8 23.7 C 23 23.7 22.3 23.4 21.7 22.9 C 21.7 22.9 22.1 22.5 22.1 22.5 C 22.4 22.7 22.6 22.9 22.9 23 C 23.1 23.1 23.4 23.2 23.8 23.2 C 24.1 23.2 24.4 23.1 24.6 22.9 C 24.8 22.8 24.9 22.6 24.9 22.3 C 24.9 22.3 24.9 22.3 24.9 22.3 C 24.9 22.1 24.8 21.9 24.6 21.8 C 24.4 21.6 24.1 21.5 23.6 21.4 C 23 21.3 22.6 21.1 22.3 20.9 C 22.1 20.7 21.9 20.4 21.9 20 C 21.9 20 21.9 20 21.9 20 C 21.9 19.6 22.1 19.3 22.4 19 C 22.7 18.8 23.1 18.6 23.6 18.6 C 23.9 18.6 24.2 18.7 24.5 18.8 C 24.8 18.9 25 19 25.3 19.2 C 25.3 19.2 25 19.7 25 19.7 C 24.5 19.3 24 19.1 23.5 19.1 C 23.2 19.1 23 19.2 22.8 19.4 C 22.6 19.5 22.5 19.7 22.5 19.9 C 22.5 19.9 22.5 19.9 22.5 19.9 C 22.5 20.2 22.6 20.4 22.8 20.5 C 23 20.7 23.3 20.8 23.8 20.9 C 24.4 21 24.8 21.2 25 21.4 C 25.3 21.6 25.4 21.9 25.4 22.3 C 25.4 22.3 25.4 22.3 25.4 22.3 C 25.4 22.7 25.3 23 25 23.3 C 24.6 23.5 24.2 23.7 23.8 23.7 Z M 28.1 23.7 C 27.6 23.7 27.1 23.5 26.8 23.1 C 26.4 22.8 26.2 22.3 26.2 21.8 C 26.2 21.8 26.2 21.8 26.2 21.8 C 26.2 21.3 26.4 20.8 26.8 20.5 C 27.1 20.1 27.6 19.9 28.1 19.9 C 28.7 19.9 29.1 20.1 29.5 20.5 C 29.8 20.8 30 21.3 30 21.8 C 30 21.8 30 21.8 30 21.8 C 30 22.3 29.8 22.8 29.5 23.1 C 29.1 23.5 28.7 23.7 28.1 23.7 Z M 28.1 23.2 C 28.5 23.2 28.8 23.1 29.1 22.8 C 29.3 22.5 29.5 22.2 29.5 21.8 C 29.5 21.8 29.5 21.8 29.5 21.8 C 29.5 21.4 29.3 21.1 29.1 20.8 C 28.8 20.5 28.5 20.4 28.1 20.4 C 27.7 20.4 27.4 20.5 27.2 20.8 C 26.9 21.1 26.8 21.4 26.8 21.8 C 26.8 21.8 26.8 21.8 26.8 21.8 C 26.8 22.2 26.9 22.5 27.2 22.8 C 27.4 23.1 27.7 23.2 28.1 23.2 Z M 31.2 23.6 L 31.2 20.5 L 30.7 20.5 L 30.7 20 L 31.2 20 C 31.2 20 31.18 19.67 31.2 19.7 C 31.2 19.3 31.3 19 31.5 18.7 C 31.7 18.6 31.9 18.5 32.3 18.5 C 32.5 18.5 32.7 18.5 32.9 18.6 C 32.9 18.6 32.9 19 32.9 19 C 32.7 19 32.5 18.9 32.3 18.9 C 31.9 18.9 31.7 19.2 31.7 19.7 C 31.72 19.7 31.7 20 31.7 20 L 32.9 20 L 32.9 20.5 L 31.7 20.5 L 31.7 23.6 L 31.2 23.6 Z M 35.4 23.5 C 35.2 23.6 35 23.7 34.8 23.7 C 34.4 23.7 34.2 23.6 34 23.4 C 33.8 23.2 33.7 23 33.7 22.6 C 33.74 22.64 33.7 20.5 33.7 20.5 L 33.2 20.5 L 33.2 20 L 33.7 20 L 33.7 18.9 L 34.3 18.9 L 34.3 20 L 35.4 20 L 35.4 20.5 L 34.3 20.5 C 34.3 20.5 34.28 22.57 34.3 22.6 C 34.3 23 34.5 23.2 34.9 23.2 C 35.1 23.2 35.2 23.1 35.4 23 C 35.41 23.05 35.4 23.5 35.4 23.5 C 35.4 23.5 35.41 23.51 35.4 23.5 Z M 42.8 22.9 C 42.3 23.4 41.6 23.7 40.8 23.7 C 40.1 23.7 39.5 23.4 39 23 C 38.6 22.5 38.4 21.9 38.4 21.2 C 38.4 21.2 38.4 21.1 38.4 21.1 C 38.4 20.5 38.6 19.9 39 19.4 C 39.5 18.9 40.1 18.6 40.8 18.6 C 41.2 18.6 41.5 18.7 41.8 18.8 C 42.1 18.9 42.4 19 42.6 19.3 C 42.6 19.3 42.3 19.7 42.3 19.7 C 41.9 19.3 41.4 19.1 40.8 19.1 C 40.3 19.1 39.8 19.3 39.5 19.7 C 39.1 20.1 38.9 20.6 38.9 21.1 C 38.9 21.1 38.9 21.1 38.9 21.1 C 38.9 21.7 39.1 22.2 39.5 22.6 C 39.8 23 40.3 23.2 40.9 23.2 C 41.4 23.2 41.9 23 42.3 22.7 C 42.28 22.7 42.3 21.5 42.3 21.5 L 40.8 21.5 L 40.8 21 L 42.8 21 L 42.8 22.9 C 42.8 22.9 42.81 22.93 42.8 22.9 Z M 44 23.6 L 44 20 L 44.5 20 C 44.5 20 44.51 20.93 44.5 20.9 C 44.6 20.6 44.8 20.4 45.1 20.2 C 45.4 20 45.7 19.9 46 19.9 C 45.98 19.92 46 20.5 46 20.5 C 46 20.5 45.94 20.5 45.9 20.5 C 45.5 20.5 45.2 20.6 44.9 20.9 C 44.6 21.2 44.5 21.6 44.5 22.2 C 44.51 22.16 44.5 23.6 44.5 23.6 L 44 23.6 Z M 46.8 19.2 L 46.8 18.6 L 47.4 18.6 L 47.4 19.2 L 46.8 19.2 Z M 46.9 23.6 L 46.9 20 L 47.4 20 L 47.4 23.6 L 46.9 23.6 Z " stroke="none" fill="#000"/>  </g>  <g id="Polygon46824">    <path d="M 3 9.3 L 3 8.6 L 3.6 8.6 L 3.6 9.3 L 3 9.3 Z M 1.7 9.3 L 1.7 8.6 L 2.3 8.6 L 2.3 9.3 L 1.7 9.3 Z M 2.7 14.7 C 2 14.7 1.5 14.5 1.2 14.1 C 0.8 13.7 0.6 13.2 0.6 12.5 C 0.62 12.55 0.6 9.7 0.6 9.7 L 1.2 9.7 C 1.2 9.7 1.17 12.51 1.2 12.5 C 1.2 13 1.3 13.4 1.6 13.7 C 1.8 14 2.2 14.2 2.7 14.2 C 3.1 14.2 3.5 14 3.8 13.8 C 4 13.5 4.1 13.1 4.1 12.5 C 4.14 12.55 4.1 9.7 4.1 9.7 L 4.7 9.7 C 4.7 9.7 4.7 12.51 4.7 12.5 C 4.7 13.2 4.5 13.7 4.1 14.1 C 3.8 14.5 3.3 14.7 2.7 14.7 Z M 5.9 14.6 L 5.9 11 L 6.5 11 C 6.5 11 6.45 11.93 6.5 11.9 C 6.6 11.6 6.8 11.4 7 11.2 C 7.3 11 7.6 10.9 7.9 10.9 C 7.93 10.92 7.9 11.5 7.9 11.5 C 7.9 11.5 7.89 11.5 7.9 11.5 C 7.5 11.5 7.1 11.6 6.9 11.9 C 6.6 12.2 6.5 12.6 6.5 13.2 C 6.45 13.16 6.5 14.6 6.5 14.6 L 5.9 14.6 Z M 10.6 10.4 L 10.6 9.8 L 11.2 9.8 L 11.2 10.4 L 10.6 10.4 Z M 9.3 10.4 L 9.3 9.8 L 10 9.8 L 10 10.4 L 9.3 10.4 Z M 11.3 14 C 11 14.4 10.6 14.7 10.1 14.7 C 9.7 14.7 9.3 14.5 9.1 14.3 C 8.8 14 8.7 13.7 8.7 13.2 C 8.69 13.23 8.7 11 8.7 11 L 9.2 11 C 9.2 11 9.23 13.09 9.2 13.1 C 9.2 13.4 9.3 13.7 9.5 13.9 C 9.7 14.1 9.9 14.2 10.2 14.2 C 10.5 14.2 10.8 14.1 11 13.9 C 11.2 13.7 11.3 13.4 11.3 13.1 C 11.32 13.05 11.3 11 11.3 11 L 11.9 11 L 11.9 14.6 L 11.3 14.6 L 11.3 14 C 11.3 14 11.32 13.97 11.3 14 Z M 13.1 14.6 L 13.1 11 L 13.6 11 C 13.6 11 13.6 11.61 13.6 11.6 C 13.9 11.1 14.3 10.9 14.8 10.9 C 15.3 10.9 15.6 11 15.9 11.3 C 16.1 11.6 16.2 11.9 16.2 12.4 C 16.23 12.35 16.2 14.6 16.2 14.6 L 15.7 14.6 C 15.7 14.6 15.69 12.49 15.7 12.5 C 15.7 12.1 15.6 11.9 15.4 11.7 C 15.2 11.5 15 11.4 14.7 11.4 C 14.4 11.4 14.1 11.5 13.9 11.7 C 13.7 11.9 13.6 12.2 13.6 12.5 C 13.6 12.53 13.6 14.6 13.6 14.6 L 13.1 14.6 Z M 19.6 14.6 L 19.6 9.7 L 20.1 9.7 L 20.1 12.6 L 22.9 9.7 L 23.7 9.7 L 21.5 11.8 L 23.7 14.6 L 23 14.6 L 21.2 12.2 L 20.1 13.3 L 20.1 14.6 L 19.6 14.6 Z M 26.2 14.7 C 25.6 14.7 25.2 14.5 24.8 14.1 C 24.5 13.8 24.3 13.3 24.3 12.8 C 24.3 12.8 24.3 12.8 24.3 12.8 C 24.3 12.3 24.5 11.8 24.8 11.5 C 25.2 11.1 25.6 10.9 26.2 10.9 C 26.7 10.9 27.2 11.1 27.5 11.5 C 27.9 11.8 28.1 12.3 28.1 12.8 C 28.1 12.8 28.1 12.8 28.1 12.8 C 28.1 13.3 27.9 13.8 27.5 14.1 C 27.2 14.5 26.7 14.7 26.2 14.7 Z M 26.2 14.2 C 26.6 14.2 26.9 14.1 27.1 13.8 C 27.4 13.5 27.5 13.2 27.5 12.8 C 27.5 12.8 27.5 12.8 27.5 12.8 C 27.5 12.4 27.4 12.1 27.1 11.8 C 26.9 11.5 26.5 11.4 26.2 11.4 C 25.8 11.4 25.5 11.5 25.2 11.8 C 25 12.1 24.8 12.4 24.8 12.8 C 24.8 12.8 24.8 12.8 24.8 12.8 C 24.8 13.2 25 13.5 25.2 13.8 C 25.5 14.1 25.8 14.2 26.2 14.2 Z M 31.9 13.9 C 31.6 14.4 31.1 14.7 30.5 14.7 C 30.1 14.7 29.7 14.5 29.3 14.2 C 29 13.8 28.8 13.4 28.8 12.8 C 28.8 12.8 28.8 12.8 28.8 12.8 C 28.8 12.2 29 11.8 29.3 11.4 C 29.7 11.1 30.1 10.9 30.5 10.9 C 31.1 10.9 31.6 11.2 31.9 11.7 C 31.93 11.67 31.9 9.5 31.9 9.5 L 32.5 9.5 L 32.5 14.6 L 31.9 14.6 L 31.9 13.9 C 31.9 13.9 31.93 13.87 31.9 13.9 Z M 30.6 14.2 C 31 14.2 31.3 14.1 31.6 13.8 C 31.8 13.5 32 13.2 32 12.8 C 32 12.8 32 12.8 32 12.8 C 32 12.4 31.8 12 31.6 11.8 C 31.3 11.5 31 11.4 30.6 11.4 C 30.3 11.4 30 11.5 29.7 11.8 C 29.5 12 29.4 12.4 29.4 12.8 C 29.4 12.8 29.4 12.8 29.4 12.8 C 29.4 13.2 29.5 13.6 29.7 13.8 C 30 14.1 30.3 14.2 30.6 14.2 Z M 36.2 14 C 36 14.4 35.5 14.7 35 14.7 C 34.6 14.7 34.2 14.5 34 14.3 C 33.7 14 33.6 13.7 33.6 13.2 C 33.62 13.23 33.6 11 33.6 11 L 34.2 11 C 34.2 11 34.16 13.09 34.2 13.1 C 34.2 13.4 34.2 13.7 34.4 13.9 C 34.6 14.1 34.8 14.2 35.2 14.2 C 35.5 14.2 35.7 14.1 35.9 13.9 C 36.1 13.7 36.2 13.4 36.2 13.1 C 36.25 13.05 36.2 11 36.2 11 L 36.8 11 L 36.8 14.6 L 36.2 14.6 L 36.2 14 C 36.2 14 36.25 13.97 36.2 14 Z M 38 11.7 L 38 11 L 38.6 11 L 38.6 11.7 L 38 11.7 Z M 38 14.6 L 38 13.9 L 38.6 13.9 L 38.6 14.6 L 38 14.6 Z M 41.7 14.6 L 41.7 13.8 L 44.4 10.6 L 41.8 10.6 L 41.8 9.7 L 45.8 9.7 L 45.8 10.5 L 43.1 13.7 L 45.8 13.7 L 45.8 14.6 L 41.7 14.6 Z M 46.8 14.6 L 46.8 9.7 C 46.8 9.7 48.72 9.7 48.7 9.7 C 49.5 9.7 50.1 9.9 50.6 10.4 C 51.1 10.9 51.3 11.4 51.3 12.1 C 51.3 12.1 51.3 12.1 51.3 12.1 C 51.3 12.8 51.1 13.4 50.6 13.9 C 50.1 14.4 49.5 14.6 48.7 14.6 C 48.72 14.6 46.8 14.6 46.8 14.6 Z M 48.7 10.7 C 48.72 10.67 47.9 10.7 47.9 10.7 L 47.9 13.6 C 47.9 13.6 48.72 13.63 48.7 13.6 C 49.2 13.6 49.5 13.5 49.8 13.2 C 50.1 13 50.2 12.6 50.2 12.2 C 50.2 12.2 50.2 12.1 50.2 12.1 C 50.2 11.7 50.1 11.4 49.8 11.1 C 49.5 10.8 49.2 10.7 48.7 10.7 Z M 56 14.7 C 55.2 14.7 54.5 14.4 54.1 13.8 C 54.1 13.8 54.8 13.1 54.8 13.1 C 55.1 13.5 55.5 13.7 56 13.7 C 56.2 13.7 56.4 13.7 56.5 13.6 C 56.6 13.4 56.7 13.3 56.7 13.1 C 56.7 13.1 56.7 13.1 56.7 13.1 C 56.7 12.9 56.6 12.8 56.4 12.6 C 56.3 12.5 56 12.5 55.7 12.5 C 55.72 12.49 55.3 12.5 55.3 12.5 L 55.1 11.8 L 56.3 10.6 L 54.3 10.6 L 54.3 9.7 L 57.7 9.7 L 57.7 10.5 C 57.7 10.5 56.42 11.69 56.4 11.7 C 57.3 11.8 57.7 12.3 57.7 13.1 C 57.7 13.1 57.7 13.1 57.7 13.1 C 57.7 13.6 57.6 13.9 57.3 14.2 C 56.9 14.5 56.5 14.7 56 14.7 Z M 60.9 14.6 L 60.9 13.5 L 58.5 13.5 L 58.4 12.8 L 61 9.7 L 62 9.7 L 62 12.7 L 62.6 12.7 L 62.6 13.5 L 62 13.5 L 62 14.6 L 60.9 14.6 Z M 59.6 12.7 L 60.9 12.7 L 60.9 11.1 L 59.6 12.7 Z M 63.6 14.6 L 65.7 10.6 L 63.4 10.6 L 63.4 9.7 L 67 9.7 L 67 10.5 L 64.8 14.6 L 63.6 14.6 Z M 67.9 14.6 L 70.1 10.6 L 67.8 10.6 L 67.8 9.7 L 71.3 9.7 L 71.3 10.5 L 69.1 14.6 L 67.9 14.6 Z M 73.8 14.7 C 73.1 14.7 72.4 14.4 71.9 13.9 C 71.9 13.9 72.6 13.2 72.6 13.2 C 73 13.5 73.4 13.7 73.8 13.7 C 74 13.7 74.2 13.6 74.4 13.5 C 74.5 13.4 74.6 13.2 74.6 13 C 74.6 13 74.6 13 74.6 13 C 74.6 12.8 74.5 12.6 74.3 12.5 C 74.2 12.4 74 12.3 73.7 12.3 C 73.4 12.3 73.1 12.4 72.9 12.5 C 72.88 12.53 72.3 12.1 72.3 12.1 L 72.4 9.7 L 75.4 9.7 L 75.4 10.6 L 73.3 10.6 C 73.3 10.6 73.27 11.49 73.3 11.5 C 73.5 11.4 73.7 11.4 73.9 11.4 C 74.4 11.4 74.8 11.5 75.2 11.8 C 75.5 12.1 75.6 12.5 75.6 13 C 75.6 13 75.6 13 75.6 13 C 75.6 13.5 75.5 13.9 75.1 14.2 C 74.8 14.5 74.3 14.7 73.8 14.7 Z " stroke="none" fill="#000"/>  </g>  <g id="Polygon46823">    <path d="M 2.3 5.7 C 1.5 5.7 0.8 5.4 0.3 4.9 C 0.3 4.9 0.9 4.1 0.9 4.1 C 1.4 4.5 1.9 4.7 2.4 4.7 C 2.6 4.7 2.7 4.7 2.9 4.6 C 3 4.5 3.1 4.4 3.1 4.3 C 3.1 4.3 3.1 4.2 3.1 4.2 C 3.1 4.1 3 4 2.9 3.9 C 2.7 3.8 2.5 3.7 2.1 3.6 C 1.8 3.5 1.6 3.5 1.4 3.4 C 1.2 3.3 1.1 3.3 0.9 3.1 C 0.7 3 0.6 2.9 0.6 2.7 C 0.5 2.6 0.4 2.4 0.4 2.1 C 0.4 2.1 0.4 2.1 0.4 2.1 C 0.4 1.7 0.6 1.3 0.9 1 C 1.2 0.8 1.7 0.6 2.2 0.6 C 2.9 0.6 3.5 0.8 4 1.3 C 4 1.3 3.4 2.1 3.4 2.1 C 3 1.7 2.5 1.6 2.1 1.6 C 1.9 1.6 1.8 1.6 1.7 1.7 C 1.6 1.8 1.5 1.9 1.5 2 C 1.5 2 1.5 2 1.5 2 C 1.5 2.2 1.6 2.3 1.7 2.4 C 1.9 2.5 2.1 2.6 2.6 2.7 C 3.1 2.8 3.5 3 3.8 3.2 C 4 3.4 4.1 3.7 4.1 4.1 C 4.1 4.1 4.1 4.2 4.1 4.2 C 4.1 4.6 4 5 3.6 5.3 C 3.3 5.5 2.9 5.7 2.3 5.7 Z M 6.8 5.7 C 6.2 5.7 5.7 5.5 5.4 5.1 C 5 4.8 4.8 4.3 4.8 3.7 C 4.8 3.7 4.8 3.7 4.8 3.7 C 4.8 3.2 5 2.7 5.4 2.3 C 5.7 2 6.2 1.8 6.8 1.8 C 7.4 1.8 7.9 2 8.3 2.3 C 8.6 2.7 8.8 3.2 8.8 3.7 C 8.8 3.7 8.8 3.7 8.8 3.7 C 8.8 4.3 8.6 4.7 8.2 5.1 C 7.9 5.5 7.4 5.7 6.8 5.7 Z M 6.8 4.8 C 7.1 4.8 7.3 4.7 7.5 4.5 C 7.7 4.3 7.8 4 7.8 3.7 C 7.8 3.7 7.8 3.7 7.8 3.7 C 7.8 3.4 7.7 3.2 7.5 3 C 7.3 2.8 7.1 2.7 6.8 2.7 C 6.5 2.7 6.3 2.8 6.1 3 C 5.9 3.2 5.8 3.4 5.8 3.7 C 5.8 3.7 5.8 3.7 5.8 3.7 C 5.8 4 5.9 4.3 6.1 4.5 C 6.3 4.7 6.5 4.8 6.8 4.8 Z M 9.7 5.6 L 9.7 0.5 L 10.7 0.5 L 10.7 5.6 L 9.7 5.6 Z M 13.6 5.7 C 13 5.7 12.5 5.5 12.1 5.1 C 11.7 4.8 11.5 4.3 11.5 3.7 C 11.5 3.7 11.5 3.7 11.5 3.7 C 11.5 3.2 11.7 2.7 12.1 2.3 C 12.5 2 13 1.8 13.6 1.8 C 14.1 1.8 14.6 2 15 2.3 C 15.4 2.7 15.6 3.2 15.6 3.7 C 15.6 3.7 15.6 3.7 15.6 3.7 C 15.6 4.3 15.4 4.7 15 5.1 C 14.6 5.5 14.1 5.7 13.6 5.7 Z M 13.6 4.8 C 13.9 4.8 14.1 4.7 14.3 4.5 C 14.5 4.3 14.5 4 14.5 3.7 C 14.5 3.7 14.5 3.7 14.5 3.7 C 14.5 3.4 14.5 3.2 14.3 3 C 14.1 2.8 13.8 2.7 13.6 2.7 C 13.3 2.7 13 2.8 12.9 3 C 12.7 3.2 12.6 3.4 12.6 3.7 C 12.6 3.7 12.6 3.7 12.6 3.7 C 12.6 4 12.7 4.3 12.9 4.5 C 13 4.7 13.3 4.8 13.6 4.8 Z M 20.3 5.7 C 19.5 5.7 18.8 5.4 18.2 4.9 C 18.2 4.9 18.9 4.1 18.9 4.1 C 19.4 4.5 19.9 4.7 20.3 4.7 C 20.6 4.7 20.7 4.7 20.9 4.6 C 21 4.5 21 4.4 21 4.3 C 21 4.3 21 4.2 21 4.2 C 21 4.1 21 4 20.9 3.9 C 20.7 3.8 20.5 3.7 20.1 3.6 C 19.8 3.5 19.6 3.5 19.4 3.4 C 19.2 3.3 19 3.3 18.9 3.1 C 18.7 3 18.6 2.9 18.5 2.7 C 18.5 2.6 18.4 2.4 18.4 2.1 C 18.4 2.1 18.4 2.1 18.4 2.1 C 18.4 1.7 18.6 1.3 18.9 1 C 19.2 0.8 19.6 0.6 20.2 0.6 C 20.8 0.6 21.4 0.8 22 1.3 C 22 1.3 21.4 2.1 21.4 2.1 C 20.9 1.7 20.5 1.6 20.1 1.6 C 19.9 1.6 19.8 1.6 19.7 1.7 C 19.6 1.8 19.5 1.9 19.5 2 C 19.5 2 19.5 2 19.5 2 C 19.5 2.2 19.6 2.3 19.7 2.4 C 19.8 2.5 20.1 2.6 20.6 2.7 C 21.1 2.8 21.5 3 21.7 3.2 C 22 3.4 22.1 3.7 22.1 4.1 C 22.1 4.1 22.1 4.2 22.1 4.2 C 22.1 4.6 22 5 21.6 5.3 C 21.3 5.5 20.9 5.7 20.3 5.7 Z M 23 5.6 L 23 1.8 L 24.1 1.8 L 24.1 5.6 L 23 5.6 Z M 26.2 5.6 L 24.7 1.8 L 25.9 1.8 L 26.7 4.4 L 27.5 1.8 L 28.6 1.8 L 27.2 5.6 L 26.2 5.6 Z M 29.3 5.6 L 29.3 1.8 L 30.4 1.8 L 30.4 5.6 L 29.3 5.6 Z M 35.3 5.7 C 34.5 5.7 33.8 5.4 33.2 4.9 C 33.2 4.9 33.9 4.1 33.9 4.1 C 34.4 4.5 34.9 4.7 35.3 4.7 C 35.6 4.7 35.7 4.7 35.9 4.6 C 36 4.5 36.1 4.4 36.1 4.3 C 36.1 4.3 36.1 4.2 36.1 4.2 C 36.1 4.1 36 4 35.9 3.9 C 35.7 3.8 35.5 3.7 35.1 3.6 C 34.8 3.5 34.6 3.5 34.4 3.4 C 34.2 3.3 34 3.3 33.9 3.1 C 33.7 3 33.6 2.9 33.6 2.7 C 33.5 2.6 33.4 2.4 33.4 2.1 C 33.4 2.1 33.4 2.1 33.4 2.1 C 33.4 1.7 33.6 1.3 33.9 1 C 34.2 0.8 34.7 0.6 35.2 0.6 C 35.9 0.6 36.5 0.8 37 1.3 C 37 1.3 36.4 2.1 36.4 2.1 C 35.9 1.7 35.5 1.6 35.1 1.6 C 34.9 1.6 34.8 1.6 34.7 1.7 C 34.6 1.8 34.5 1.9 34.5 2 C 34.5 2 34.5 2 34.5 2 C 34.5 2.2 34.6 2.3 34.7 2.4 C 34.8 2.5 35.1 2.6 35.6 2.7 C 36.1 2.8 36.5 3 36.7 3.2 C 37 3.4 37.1 3.7 37.1 4.1 C 37.1 4.1 37.1 4.2 37.1 4.2 C 37.1 4.6 37 5 36.6 5.3 C 36.3 5.5 35.9 5.7 35.3 5.7 Z M 40.2 5.2 C 39.9 5.5 39.5 5.7 39 5.7 C 38.6 5.7 38.3 5.6 38.1 5.4 C 37.9 5.2 37.7 4.9 37.7 4.5 C 37.7 4.5 37.7 4.5 37.7 4.5 C 37.7 4.1 37.9 3.8 38.1 3.6 C 38.4 3.4 38.8 3.3 39.2 3.3 C 39.5 3.3 39.9 3.4 40.2 3.5 C 40.2 3.5 40.2 3.4 40.2 3.4 C 40.2 2.9 39.9 2.7 39.4 2.7 C 39 2.7 38.7 2.8 38.3 2.9 C 38.3 2.9 38.1 2.1 38.1 2.1 C 38.5 1.9 39 1.8 39.5 1.8 C 40.1 1.8 40.5 1.9 40.8 2.2 C 41 2.5 41.2 2.9 41.2 3.4 C 41.18 3.42 41.2 5.6 41.2 5.6 L 40.2 5.6 L 40.2 5.2 C 40.2 5.2 40.15 5.19 40.2 5.2 Z M 39.3 4.9 C 39.6 4.9 39.8 4.9 39.9 4.8 C 40.1 4.6 40.2 4.5 40.2 4.3 C 40.2 4.3 40.2 4.1 40.2 4.1 C 40 4 39.7 3.9 39.5 3.9 C 39.3 3.9 39.1 4 39 4.1 C 38.8 4.2 38.8 4.3 38.8 4.5 C 38.8 4.5 38.8 4.5 38.8 4.5 C 38.8 4.6 38.8 4.7 38.9 4.8 C 39 4.9 39.2 4.9 39.3 4.9 Z M 44.3 5.7 C 43.9 5.7 43.5 5.5 43.2 5.1 C 43.16 5.11 43.2 5.6 43.2 5.6 L 42.1 5.6 L 42.1 0.5 L 43.2 0.5 C 43.2 0.5 43.16 2.39 43.2 2.4 C 43.5 2 43.8 1.8 44.3 1.8 C 44.8 1.8 45.2 2 45.5 2.3 C 45.9 2.6 46 3.1 46 3.7 C 46 3.7 46 3.7 46 3.7 C 46 4.3 45.9 4.8 45.5 5.1 C 45.2 5.5 44.8 5.7 44.3 5.7 Z M 43.1 3.7 C 43.1 4 43.2 4.3 43.4 4.5 C 43.6 4.7 43.8 4.8 44.1 4.8 C 44.3 4.8 44.5 4.7 44.7 4.5 C 44.9 4.3 45 4 45 3.7 C 45 3.7 45 3.7 45 3.7 C 45 3.4 44.9 3.2 44.7 3 C 44.5 2.8 44.3 2.7 44.1 2.7 C 43.8 2.7 43.6 2.8 43.4 3 C 43.2 3.2 43.1 3.4 43.1 3.7 C 43.15 3.72 43.1 3.7 43.1 3.7 C 43.1 3.7 43.15 3.73 43.1 3.7 Z M 49.2 5.1 C 48.9 5.5 48.5 5.7 48.1 5.7 C 47.7 5.7 47.3 5.5 47.1 5.3 C 46.9 5.1 46.8 4.7 46.8 4.3 C 46.79 4.28 46.8 1.8 46.8 1.8 L 47.9 1.8 C 47.9 1.8 47.86 3.94 47.9 3.9 C 47.9 4.4 48.1 4.7 48.5 4.7 C 48.7 4.7 48.9 4.6 49 4.5 C 49.1 4.4 49.2 4.2 49.2 3.9 C 49.17 3.94 49.2 1.8 49.2 1.8 L 50.2 1.8 L 50.2 5.6 L 49.2 5.6 L 49.2 5.1 C 49.2 5.1 49.17 5.07 49.2 5.1 Z M 51.2 5.6 L 51.2 1.8 L 52.2 1.8 C 52.2 1.8 52.25 2.38 52.2 2.4 C 52.6 2 52.9 1.8 53.3 1.8 C 53.8 1.8 54.1 1.9 54.3 2.1 C 54.5 2.4 54.6 2.7 54.6 3.2 C 54.62 3.17 54.6 5.6 54.6 5.6 L 53.6 5.6 C 53.6 5.6 53.56 3.51 53.6 3.5 C 53.6 3 53.3 2.7 52.9 2.7 C 52.7 2.7 52.5 2.8 52.4 2.9 C 52.3 3.1 52.2 3.3 52.2 3.5 C 52.25 3.51 52.2 5.6 52.2 5.6 L 51.2 5.6 Z M 55.6 5.6 L 55.6 0.5 L 56.7 0.5 L 56.7 5.6 L 55.6 5.6 Z M 60 5.1 C 59.7 5.5 59.3 5.7 58.9 5.7 C 58.5 5.7 58.2 5.5 58 5.3 C 57.7 5.1 57.6 4.7 57.6 4.3 C 57.63 4.28 57.6 1.8 57.6 1.8 L 58.7 1.8 C 58.7 1.8 58.69 3.94 58.7 3.9 C 58.7 4.4 58.9 4.7 59.3 4.7 C 59.5 4.7 59.7 4.6 59.8 4.5 C 59.9 4.4 60 4.2 60 3.9 C 60 3.94 60 1.8 60 1.8 L 61.1 1.8 L 61.1 5.6 L 60 5.6 L 60 5.1 C 60 5.1 60 5.07 60 5.1 Z M 62 5.6 L 62 0.5 L 63.1 0.5 L 63.1 3.2 L 64.3 1.8 L 65.6 1.8 L 64.2 3.3 L 65.7 5.6 L 64.4 5.6 L 63.5 4.1 L 63.1 4.5 L 63.1 5.6 L 62 5.6 Z M 70 5.7 C 69.2 5.7 68.5 5.4 68.1 4.8 C 68.1 4.8 68.8 4.1 68.8 4.1 C 69.1 4.5 69.5 4.7 70 4.7 C 70.2 4.7 70.4 4.7 70.5 4.6 C 70.6 4.4 70.7 4.3 70.7 4.1 C 70.7 4.1 70.7 4.1 70.7 4.1 C 70.7 3.9 70.6 3.8 70.4 3.6 C 70.3 3.5 70 3.5 69.7 3.5 C 69.71 3.49 69.3 3.5 69.3 3.5 L 69.1 2.8 L 70.3 1.6 L 68.3 1.6 L 68.3 0.7 L 71.7 0.7 L 71.7 1.5 C 71.7 1.5 70.41 2.69 70.4 2.7 C 71.3 2.8 71.7 3.3 71.7 4.1 C 71.7 4.1 71.7 4.1 71.7 4.1 C 71.7 4.6 71.6 4.9 71.2 5.2 C 70.9 5.5 70.5 5.7 70 5.7 Z M 74.7 5.7 C 74 5.7 73.5 5.4 73.1 5 C 72.7 4.5 72.5 3.9 72.5 3.2 C 72.5 3.2 72.5 3.1 72.5 3.1 C 72.5 2.4 72.7 1.8 73.1 1.3 C 73.5 0.9 74.1 0.6 74.7 0.6 C 75.3 0.6 75.9 0.9 76.3 1.3 C 76.7 1.8 76.9 2.4 76.9 3.1 C 76.9 3.1 76.9 3.1 76.9 3.1 C 76.9 3.9 76.7 4.5 76.3 5 C 75.9 5.4 75.3 5.7 74.7 5.7 Z M 73.6 3.1 C 73.6 3.6 73.7 4 73.9 4.3 C 74.1 4.6 74.4 4.7 74.7 4.7 C 75 4.7 75.3 4.6 75.5 4.3 C 75.7 4 75.8 3.6 75.8 3.2 C 75.8 3.2 75.8 3.1 75.8 3.1 C 75.8 2.7 75.7 2.3 75.5 2 C 75.3 1.7 75 1.6 74.7 1.6 C 74.4 1.6 74.1 1.7 73.9 2 C 73.7 2.3 73.6 2.7 73.6 3.1 C 73.62 3.14 73.6 3.1 73.6 3.1 C 73.6 3.1 73.62 3.15 73.6 3.1 Z M 79.8 5.7 C 79.1 5.7 78.6 5.4 78.2 5 C 77.8 4.5 77.6 3.9 77.6 3.2 C 77.6 3.2 77.6 3.1 77.6 3.1 C 77.6 2.4 77.8 1.8 78.2 1.3 C 78.6 0.9 79.2 0.6 79.8 0.6 C 80.4 0.6 81 0.9 81.4 1.3 C 81.8 1.8 82 2.4 82 3.1 C 82 3.1 82 3.1 82 3.1 C 82 3.9 81.8 4.5 81.4 5 C 81 5.4 80.4 5.7 79.8 5.7 Z M 78.7 3.1 C 78.7 3.6 78.8 4 79 4.3 C 79.2 4.6 79.5 4.7 79.8 4.7 C 80.1 4.7 80.4 4.6 80.6 4.3 C 80.8 4 80.9 3.6 80.9 3.2 C 80.9 3.2 80.9 3.1 80.9 3.1 C 80.9 2.7 80.8 2.3 80.6 2 C 80.4 1.7 80.1 1.6 79.8 1.6 C 79.5 1.6 79.2 1.7 79 2 C 78.8 2.3 78.7 2.7 78.7 3.1 C 78.73 3.14 78.7 3.1 78.7 3.1 C 78.7 3.1 78.73 3.15 78.7 3.1 Z M 84.9 5.6 L 84.9 1.8 L 86 1.8 C 86 1.8 85.99 2.38 86 2.4 C 86.3 2 86.7 1.8 87.1 1.8 C 87.6 1.8 88 2 88.2 2.4 C 88.5 2 88.9 1.8 89.4 1.8 C 89.8 1.8 90.1 1.9 90.3 2.1 C 90.5 2.4 90.7 2.7 90.7 3.2 C 90.66 3.16 90.7 5.6 90.7 5.6 L 89.6 5.6 C 89.6 5.6 89.59 3.51 89.6 3.5 C 89.6 3 89.4 2.7 89 2.7 C 88.8 2.7 88.6 2.8 88.5 2.9 C 88.4 3.1 88.3 3.3 88.3 3.5 C 88.32 3.51 88.3 5.6 88.3 5.6 L 87.3 5.6 C 87.3 5.6 87.26 3.51 87.3 3.5 C 87.3 3 87.1 2.7 86.6 2.7 C 86.4 2.7 86.3 2.8 86.2 2.9 C 86.1 3.1 86 3.3 86 3.5 C 85.99 3.51 86 5.6 86 5.6 L 84.9 5.6 Z M 91.6 5.6 L 91.6 0.5 L 92.7 0.5 L 92.7 5.6 L 91.6 5.6 Z " stroke="none" fill="#000"/>  </g></svg>