<?xml version="1.0" standalone="no"?><!DOCTYPE svg PUBLIC "-//W3C//DTD SVG 1.1//EN" "http://www.w3.org/Graphics/SVG/1.1/DTD/svg11.dtd"><svg xmlns="http://www.w3.org/2000/svg" version="1.1" width="43.1px" height="12.4px" viewBox="0 -1 43.1 12.4" style="top:-1px"><desc>UMBRA</desc><defs/><g id="Polygon370292"><path d="m2.7 7.6c-.7 0-1.2-.2-1.5-.6c-.4-.4-.6-.9-.6-1.6c.02.03 0-2.8 0-2.8h.6s-.03 2.79 0 2.8c0 .5.1.9.4 1.2c.2.3.6.4 1.1.4c.4 0 .8-.1 1.1-.4c.2-.2.3-.6.3-1.2c.04.03 0-2.8 0-2.8h.6v2.8c0 .7-.2 1.2-.6 1.6c-.3.4-.8.6-1.4.6zM6 7.5V2.6h.6l1.8 2.7l1.7-2.7h.6v4.9h-.6v-4L8.4 6.1h-.1L6.5 3.5v4h-.5zm6.1 0V2.6s2.07-.02 2.1 0c.5 0 1 .1 1.2.4c.3.2.4.5.4.8c0 .5-.3.9-.8 1.1c.7.2 1 .6 1 1.2c0 .5-.1.8-.4 1c-.4.3-.8.4-1.3.4c-.04-.02-2.2 0-2.2 0zm3.1-3.6c0-.3-.1-.5-.3-.6c-.2-.2-.4-.2-.8-.2c.02-.03-1.5 0-1.5 0v1.7s1.48-.04 1.5 0c.3 0 .6-.1.8-.3c.2-.1.3-.3.3-.6zm.3 2.2c0-.3-.1-.5-.4-.6c-.2-.2-.5-.2-.9-.2c-.03-.05-1.6 0-1.6 0v1.7s1.67-.02 1.7 0c.4 0 .6-.1.9-.3c.2-.1.3-.3.3-.6zm1.6 1.4V2.6s2.14-.02 2.1 0c.6 0 1.1.1 1.4.5c.3.2.4.5.4.9c0 .4-.1.8-.4 1c-.2.2-.5.4-.9.5l1.5 2h-.7l-1.4-1.9h-1.4v1.9h-.6zm.6-2.4s1.49-.02 1.5 0c.4 0 .7-.1.9-.3c.2-.2.4-.4.4-.7c0-.3-.2-.6-.4-.8c-.2-.1-.5-.2-.9-.2h-1.5v2zm4.1 2.4l2.2-5h.5l2.3 5h-.6l-.6-1.3h-2.7l-.6 1.3h-.5zm1.3-1.8h2.3l-1.1-2.5l-1.2 2.5z" stroke="none" fill="#000"/></g></svg>