<?xml version="1.0" standalone="no"?><!DOCTYPE svg PUBLIC "-//W3C//DTD SVG 1.1//EN" "http://www.w3.org/Graphics/SVG/1.1/DTD/svg11.dtd"><svg xmlns="http://www.w3.org/2000/svg" version="1.1" width="52.5px" height="20.5px" viewBox="0 -1 52.5 20.5" style="top:-1px"><desc>₺7.865,00</desc><defs/><g id="Polygon375585"><path d="m2.3 4.8v7.1h-.9V4.8h.9zm1.9 3.4h.9s.03.38 0 .4c0 .5 0 1-.2 1.4c-.1.4-.3.8-.5 1.1c-.3.3-.6.5-1 .7c-.3.1-.7.2-1.1.2h-.5c-.1 0-.3-.1-.4-.1l.9-.7c.3 0 .6 0 .8-.2c.2-.1.4-.2.6-.5c.2-.2.3-.5.4-.8c.1-.3.1-.7.1-1.1v-.4zm-.7-2.7v.9L.2 7.9v-.9l3.3-1.5zm0 1.6v.9L.2 9.5v-.9l3.3-1.5zm7.3-2.3v.5l-3 6.6h-.9l2.9-6.4H5.9v-.7h4.9zm1.1 6.6c0-.1 0-.2.1-.4c.1-.1.3-.1.5-.1c.1 0 .3 0 .4.1c.1.2.1.3.1.4c0 .2 0 .3-.1.4c-.1.1-.3.2-.4.2c-.2 0-.4-.1-.5-.2c-.1-.1-.1-.2-.1-.4zm7-1.4c0 .4-.1.8-.3 1.1c-.2.3-.5.5-.8.7c-.4.1-.7.2-1.2.2c-.4 0-.8-.1-1.1-.2c-.4-.2-.6-.4-.8-.7c-.2-.3-.3-.7-.3-1.1c0-.3 0-.6.1-.8c.1-.2.3-.4.5-.6c.2-.2.4-.3.7-.4c.3-.1.6-.2.9-.2c.5 0 .9.1 1.2.3c.3.2.6.4.8.7c.2.3.3.6.3 1zm-.9 0c0-.3-.1-.5-.2-.7c-.1-.2-.3-.4-.5-.5c-.2-.1-.4-.2-.7-.2c-.3 0-.5.1-.7.2c-.2.1-.3.3-.5.5c-.1.2-.1.4-.1.7c0 .2 0 .5.1.7c.2.2.3.3.5.4c.2.1.5.2.7.2c.3 0 .6-.1.8-.2c.2-.1.3-.2.4-.4c.1-.2.2-.5.2-.7zm.7-3.3c0 .3-.1.6-.2.9c-.2.3-.5.5-.8.6c-.3.2-.7.3-1.1.3c-.4 0-.7-.1-1.1-.3c-.3-.1-.5-.3-.7-.6c-.2-.3-.3-.6-.3-.9c0-.5.1-.8.3-1.1c.2-.3.4-.5.8-.7c.3-.1.6-.2 1-.2c.4 0 .8.1 1.1.2c.3.2.6.4.8.7c.1.3.2.6.2 1.1zm-.9 0c0-.3 0-.5-.1-.7l-.4-.4c-.2-.1-.4-.1-.7-.1c-.2 0-.4 0-.6.1c-.2.1-.3.2-.4.4c-.1.2-.2.4-.2.7c0 .2.1.4.2.6c.1.2.2.3.4.4c.2.1.4.2.6.2c.3 0 .5-.1.7-.2c.1-.1.3-.2.4-.4c.1-.2.1-.4.1-.6zm5.7-1.9h.1v.8s-.1-.04-.1 0c-.5 0-.9 0-1.2.2c-.3.1-.6.4-.8.6c-.2.3-.3.6-.4.9c-.1.3-.1.6-.1 1v1c0 .3 0 .6.1.9l.3.6c.2.1.3.3.5.3c.1.1.3.2.5.2c.2 0 .4-.1.5-.2c.2 0 .3-.1.4-.3c.2-.1.2-.3.3-.5c.1-.2.1-.4.1-.7c0-.2 0-.4-.1-.6c0-.2-.1-.3-.2-.5c-.1-.2-.3-.3-.4-.4c-.2-.1-.4-.1-.6-.1c-.3 0-.5.1-.7.2c-.2.1-.4.3-.5.5c-.2.2-.3.4-.3.6h-.5c.1-.4.2-.7.3-.9c.1-.3.3-.5.5-.7c.2-.1.4-.3.6-.3c.2-.1.5-.1.7-.1c.4 0 .7 0 1 .2c.2.1.4.3.6.5c.2.2.3.5.4.7c0 .3.1.6.1.9c0 .3-.1.6-.2.9c-.1.3-.2.6-.4.8c-.2.2-.4.4-.7.5c-.2.2-.6.2-.9.2c-.4 0-.7-.1-1-.2c-.3-.2-.6-.4-.7-.7c-.2-.2-.4-.5-.5-.8c-.1-.4-.1-.7-.1-1v-.4c0-.5 0-1 .1-1.5c.1-.5.3-.9.6-1.3c.2-.4.6-.7 1-1c.4-.2 1-.3 1.7-.3zm3.3 3.7c0 .03-.7-.2-.7-.2l.3-3.5h3.7v.8h-2.9s-.22 1.97-.2 2c.1-.1.3-.2.5-.2c.2-.1.4-.1.7-.1c.3 0 .6 0 .9.1c.2.1.4.3.6.5c.2.2.3.5.4.8c.1.3.2.6.2.9c0 .4-.1.7-.2 1c0 .3-.2.5-.4.7c-.2.3-.4.4-.7.5c-.3.2-.6.2-1 .2c-.2 0-.5 0-.8-.1c-.2-.1-.5-.2-.7-.4c-.2-.1-.3-.3-.4-.6c-.2-.2-.3-.5-.3-.9h.9c0 .3.1.5.2.7c.1.2.3.3.5.4c.2.1.4.2.6.2c.3 0 .4-.1.6-.1c.2-.1.3-.2.4-.4c.1-.1.2-.3.3-.5c0-.2.1-.4.1-.6c0-.3-.1-.5-.1-.7c-.1-.2-.2-.3-.3-.5c-.1-.1-.3-.2-.4-.3c-.2-.1-.4-.1-.6-.1c-.3 0-.6 0-.7.1c-.2.1-.3.2-.5.3zm5.4 2.3v.8c0 .3-.1.6-.2.9c-.2.3-.4.6-.7.8l-.5-.3c.1-.2.2-.3.3-.5c.1-.1.1-.3.2-.4v-1.3h.9zm5.5-3v1.1c0 .6 0 1.1-.2 1.5c-.1.4-.2.7-.4.9c-.2.3-.4.4-.7.5c-.3.2-.6.2-.9.2c-.3 0-.6 0-.8-.1l-.6-.3c-.2-.2-.4-.4-.5-.6l-.3-.9c-.1-.3-.1-.8-.1-1.2V7.8c0-.6.1-1.1.2-1.5c.1-.4.2-.7.4-.9c.2-.3.5-.4.7-.5c.3-.1.6-.2 1-.2c.2 0 .5 0 .7.1c.3.1.5.2.6.3c.2.2.4.4.5.6c.1.2.2.5.3.9c.1.3.1.7.1 1.2zM36.8 9V7.6c0-.3 0-.6-.1-.8c0-.2-.1-.4-.1-.6c-.1-.2-.2-.3-.3-.4c-.1-.1-.2-.2-.4-.3c-.1 0-.3-.1-.4-.1c-.3 0-.5.1-.6.2c-.2 0-.3.2-.4.3c-.1.2-.2.4-.3.7c0 .3-.1.6-.1 1v1.4c0 .3 0 .6.1.9c0 .2.1.4.1.6c.1.2.2.3.3.4c.1.2.3.2.4.3c.1 0 .3.1.5.1c.2 0 .4-.1.5-.2c.2 0 .4-.2.5-.4c.1-.1.2-.4.2-.7c.1-.2.1-.6.1-1zm6.5-1.2v1.1c0 .6 0 1.1-.1 1.5c-.1.4-.3.7-.5.9c-.2.3-.4.4-.7.5c-.3.2-.6.2-.9.2c-.3 0-.5 0-.8-.1l-.6-.3c-.2-.2-.3-.4-.5-.6l-.3-.9c0-.3-.1-.8-.1-1.2V7.8c0-.6.1-1.1.2-1.5c.1-.4.2-.7.4-.9c.2-.3.5-.4.7-.5c.3-.1.6-.2 1-.2c.3 0 .5 0 .7.1c.3.1.5.2.7.3c.1.2.3.4.4.6c.2.2.3.5.3.9c.1.3.1.7.1 1.2zM42.4 9V6.8c-.1-.2-.1-.4-.2-.6c-.1-.2-.2-.3-.3-.4l-.3-.3c-.2 0-.3-.1-.5-.1c-.2 0-.4.1-.6.2c-.2 0-.3.2-.4.3c-.1.2-.2.4-.3.7c0 .3-.1.6-.1 1v1.4c0 .3.1.6.1.9c0 .2.1.4.2.6c0 .2.1.3.2.4c.1.2.3.2.4.3c.2 0 .3.1.5.1c.2 0 .4-.1.6-.2c.1 0 .3-.2.4-.4c.1-.1.2-.4.2-.7c.1-.2.1-.6.1-1z" stroke="none" fill="#000"/></g></svg>