<?xml version="1.0" standalone="no"?><!DOCTYPE svg PUBLIC "-//W3C//DTD SVG 1.1//EN" "http://www.w3.org/Graphics/SVG/1.1/DTD/svg11.dtd"><svg xmlns="http://www.w3.org/2000/svg" version="1.1" width="52.5px" height="20.5px" viewBox="0 -1 52.5 20.5" style="top:-1px"><desc>₺5.332,47</desc><defs/><g id="Polygon371369"><path d="m2.3 4.8v7.1h-.9V4.8h.9zm1.9 3.4h.9s.03.38 0 .4c0 .5 0 1-.2 1.4c-.1.4-.3.8-.5 1.1c-.3.3-.6.5-1 .7c-.3.1-.7.2-1.1.2h-.5c-.1 0-.3-.1-.4-.1l.9-.7c.3 0 .6 0 .8-.2c.2-.1.4-.2.6-.5c.2-.2.3-.5.4-.8c.1-.3.1-.7.1-1.1v-.4zm-.7-2.7v.9L.2 7.9v-.9l3.3-1.5zm0 1.6v.9L.2 9.5v-.9l3.3-1.5zm3.8 1.4c0 .03-.7-.2-.7-.2l.3-3.5h3.7v.8H7.7s-.21 1.97-.2 2c.1-.1.3-.2.5-.2c.2-.1.4-.1.7-.1c.3 0 .6 0 .9.1c.2.1.4.3.6.5c.2.2.3.5.4.8c.1.3.2.6.2.9c0 .4-.1.7-.1 1c-.1.3-.3.5-.5.7c-.2.3-.4.4-.7.5c-.2.2-.6.2-1 .2c-.2 0-.5 0-.8-.1c-.2-.1-.5-.2-.7-.4c-.2-.1-.3-.3-.4-.6c-.2-.2-.2-.5-.3-.9h.9c0 .3.1.5.2.7c.1.2.3.3.5.4c.2.1.4.2.6.2c.3 0 .4-.1.6-.1c.2-.1.3-.2.4-.4c.1-.1.2-.3.3-.5c.1-.2.1-.4.1-.6c0-.3 0-.5-.1-.7c-.1-.2-.2-.3-.3-.5c-.1-.1-.3-.2-.4-.3c-.2-.1-.4-.1-.6-.1c-.3 0-.6 0-.7.1c-.2.1-.3.2-.5.3zm4.6 2.9c0-.1 0-.2.1-.4c.1-.1.3-.1.5-.1c.1 0 .3 0 .4.1c.1.2.1.3.1.4c0 .2 0 .3-.1.4c-.1.1-.3.2-.4.2c-.2 0-.4-.1-.5-.2c-.1-.1-.1-.2-.1-.4zm3.8-3.5s.68.02.7 0c.3 0 .6 0 .8-.1c.2-.1.3-.3.4-.5c.1-.2.2-.4.2-.6c0-.3-.1-.5-.2-.7c0-.2-.2-.3-.4-.4c-.2-.1-.4-.1-.7-.1c-.2 0-.4 0-.6.1c-.2.1-.4.2-.5.4c-.1.2-.2.4-.2.7h-.9c0-.4.1-.7.3-1c.2-.3.5-.6.8-.7c.3-.2.7-.3 1.1-.3c.5 0 .8.1 1.2.2c.3.2.5.4.7.7c.2.3.3.7.3 1.1c0 .2-.1.4-.1.6c-.1.2-.2.4-.4.6c-.2.1-.4.3-.7.4c-.3.1-.6.2-1 .2c0-.04-.8 0-.8 0v-.6zm0 .8v-.6s.8.02.8 0c.5 0 .8.1 1.1.2c.3.1.6.2.7.4c.2.2.3.4.4.6c.1.2.1.4.1.6c0 .4-.1.7-.2.9c-.1.3-.2.5-.4.7c-.3.2-.5.3-.8.4c-.2.1-.5.1-.9.1c-.3 0-.6 0-.8-.1c-.3-.1-.5-.2-.7-.4c-.3-.2-.4-.4-.5-.6c-.2-.3-.2-.5-.2-.9h.9c0 .3 0 .5.2.7c.1.2.2.3.4.4c.2.1.5.2.7.2c.3 0 .6-.1.8-.2c.2-.1.3-.2.4-.4c.1-.2.2-.5.2-.7c0-.3-.1-.6-.2-.8c-.1-.2-.3-.3-.5-.4c-.3-.1-.5-.1-.8-.1c-.02-.04-.7 0-.7 0zm5.7-.8s.6.02.6 0c.3 0 .6 0 .8-.1c.2-.1.3-.3.4-.5c.1-.2.2-.4.2-.6c0-.3 0-.5-.1-.7c-.1-.2-.3-.3-.4-.4c-.2-.1-.5-.1-.7-.1c-.3 0-.5 0-.7.1c-.2.1-.4.2-.5.4c-.1.2-.1.4-.1.7h-.9c0-.4.1-.7.2-1c.2-.3.5-.6.8-.7c.3-.2.7-.3 1.2-.3c.4 0 .8.1 1.1.2c.3.2.6.4.7.7c.2.3.3.7.3 1.1c0 .2 0 .4-.1.6c-.1.2-.2.4-.4.6c-.2.1-.4.3-.7.4c-.3.1-.6.2-1 .2c.02-.04-.7 0-.7 0v-.6zm0 .8v-.6s.72.02.7 0c.5 0 .9.1 1.1.2c.3.1.6.2.7.4c.2.2.3.4.4.6c.1.2.1.4.1.6c0 .4 0 .7-.2.9c-.1.3-.2.5-.4.7c-.2.2-.5.3-.7.4c-.3.1-.6.1-.9.1c-.3 0-.6 0-.9-.1c-.3-.1-.5-.2-.7-.4c-.2-.2-.4-.4-.5-.6c-.1-.3-.2-.5-.2-.9h.9c0 .3.1.5.2.7c.1.2.2.3.4.4c.2.1.5.2.8.2c.2 0 .5-.1.7-.2c.2-.1.3-.2.4-.4c.2-.2.2-.5.2-.7c0-.3-.1-.6-.2-.8c-.1-.2-.3-.3-.5-.4c-.2-.1-.5-.1-.8-.1c0-.04-.6 0-.6 0zm8.9 2.5v.7h-4.6v-.6s2.29-2.63 2.3-2.6c.3-.3.5-.6.7-.8c.1-.3.2-.5.3-.6c.1-.2.1-.4.1-.6c0-.2-.1-.4-.2-.6c-.1-.2-.2-.4-.4-.5c-.2-.1-.4-.1-.7-.1c-.3 0-.5 0-.7.1c-.3.2-.4.3-.5.5c-.1.3-.2.5-.2.8h-.9c0-.4.1-.8.3-1.1c.2-.3.4-.6.8-.8c.3-.2.7-.3 1.2-.3c.5 0 .9.1 1.2.2c.3.2.6.4.7.7c.2.3.3.6.3 1c0 .2 0 .4-.1.6c-.1.3-.2.5-.3.7c-.1.2-.3.4-.4.6c-.2.2-.4.4-.5.6c-.05.01-2 2.1-2 2.1h3.6zm1.9-.4v.8c0 .3-.1.6-.2.9c-.2.3-.4.6-.7.8l-.5-.3c.1-.2.2-.3.3-.5c.1-.1.1-.3.2-.4v-1.3h.9zM38 9.5v.8h-5.1v-.6l3.2-4.9h.7L36 6.2l-2.1 3.3h4.1zm-.9-4.7v7.1h-.9V4.8h.9zm6.4 0v.5l-3 6.6h-.9l2.9-6.4h-3.8v-.7h4.8z" stroke="none" fill="#000"/></g></svg>