<?xml version="1.0" standalone="no"?><!DOCTYPE svg PUBLIC "-//W3C//DTD SVG 1.1//EN" "http://www.w3.org/Graphics/SVG/1.1/DTD/svg11.dtd"><svg xmlns="http://www.w3.org/2000/svg" version="1.1" width="272px" height="48.4px" viewBox="0 -2 272 48.4" style="top:-2px"><desc>180/3: Kapal : h123 × L48 × d9 cm A k: h116 × L48 × d66 cm Platform: 60 cm</desc><defs/><g id="Polygon373994"><path d="m.7 35.6v-4.9h1.8c.6 0 1 .1 1.4.4c.3.3.5.7.5 1.2c0 .5-.2.9-.6 1.2c-.4.2-.8.4-1.4.4c.04-.03-1.2 0-1.2 0v1.7h-.5zm.5-2.2s1.26-.03 1.3 0c.4 0 .7-.1.9-.3c.3-.2.4-.5.4-.8c0-.4-.1-.6-.4-.8c-.2-.2-.5-.3-.9-.3H1.2v2.2zm4.1 2.2v-5.1h.6v5.1h-.6zm4.2-.5c-.3.4-.7.6-1.3.6c-.4 0-.7-.1-1-.3c-.2-.2-.4-.5-.4-.9c0-.3.2-.6.5-.8c.3-.2.6-.3 1.1-.3c.4 0 .7 0 1.1.1v-.1c0-.3-.1-.6-.3-.7c-.2-.2-.4-.3-.8-.3c-.3 0-.7.1-1.1.3l-.1-.5c.4-.2.8-.3 1.3-.3c.5 0 .9.2 1.2.4c.2.3.3.6.3 1.1c.02-.01 0 2.2 0 2.2h-.5v-.5s.01-.05 0 0zm-1.2.1c.3 0 .6 0 .9-.2c.2-.2.3-.4.3-.7v-.4c-.4-.1-.7-.1-1.1-.1c-.3 0-.5 0-.7.2c-.2.1-.3.3-.3.5c0 .2.1.4.3.6c.1.1.3.1.6.1zm4.7.3c-.2.1-.4.2-.7.2c-.3 0-.5-.1-.7-.3c-.2-.2-.3-.4-.3-.8c.03.04 0-2.1 0-2.1h-.5v-.5h.5v-1.1h.6v1.1h1.1v.5h-1.1s-.04 2.07 0 2.1c0 .4.2.6.6.6c.2 0 .3-.1.5-.2v.5s0 .01 0 0zm1.2.1v-3.1h-.5v-.5h.5s-.03-.33 0-.3c0-.4.1-.7.3-1c.2-.1.4-.2.8-.2c.2 0 .4 0 .6.1v.4c-.3 0-.4-.1-.6-.1c-.4 0-.6.3-.6.8v.3h1.1v.5h-1.1v3.1h-.5zm3.9.1c-.5 0-1-.2-1.3-.6c-.4-.3-.6-.8-.6-1.3c0-.5.2-1 .6-1.3c.3-.4.8-.6 1.3-.6c.6 0 1 .2 1.4.6c.3.3.5.8.5 1.3c0 .5-.2 1-.5 1.3c-.4.4-.8.6-1.4.6zm0-.5c.4 0 .7-.1 1-.4c.2-.3.4-.6.4-1c0-.4-.2-.7-.4-1c-.3-.3-.6-.4-1-.4c-.4 0-.7.1-.9.4c-.3.3-.4.6-.4 1c0 .4.1.7.4 1c.2.3.6.4.9.4zm2.9.4V32h.5s.02.93 0 .9c.2-.3.4-.5.6-.7c.3-.2.6-.3.9-.3v.6s-.04 0 0 0c-.5 0-.8.1-1.1.4c-.2.3-.4.7-.4 1.3c.02-.04 0 1.4 0 1.4h-.5zm2.8 0V32h.6s-.04.59 0 .6c.1-.2.3-.4.4-.5c.2-.1.4-.2.7-.2c.6 0 1 .2 1.2.7c.3-.5.7-.7 1.3-.7c.4 0 .7.1 1 .4c.2.3.3.6.3 1.1c.01-.04 0 2.2 0 2.2h-.5s-.03-2.11 0-2.1c0-.4-.1-.6-.3-.8c-.1-.2-.4-.3-.7-.3c-.2 0-.5.1-.7.3c-.2.2-.3.5-.3.8c.03.01 0 2.1 0 2.1h-.5v-2.1c0-.4-.1-.6-.2-.8c-.2-.2-.4-.3-.7-.3c-.3 0-.6.1-.8.3c-.1.2-.2.5-.2.8c-.04.03 0 2.1 0 2.1h-.6zm6.6-2.9v-.7h.7v.7h-.7zm0 2.9v-.7h.7v.7h-.7zm5.7.1c-.6 0-1-.2-1.3-.5c-.2-.2-.4-.5-.5-.8c-.1-.3-.1-.6-.1-1.1c0-.8.1-1.4.5-1.9c.4-.5.9-.8 1.5-.8c.5 0 1 .2 1.4.6l-.3.4c-.4-.3-.7-.5-1.1-.5c-.5 0-.8.2-1.1.6c-.2.4-.4.9-.4 1.5v.1c.4-.5.8-.8 1.4-.8c.5 0 .9.2 1.2.5c.4.2.5.6.5 1v.1c0 .4-.1.8-.5 1.1c-.3.3-.7.5-1.2.5zm0-.5c.3 0 .6-.1.8-.3c.2-.2.4-.5.4-.8c0-.3-.2-.6-.4-.8c-.2-.2-.5-.3-.8-.3c-.4 0-.7.1-.9.3c-.3.3-.4.5-.4.8c0 .3.1.6.4.8c.2.2.5.3.9.3zm6.7-2.1c0 .8-.2 1.4-.5 1.8c-.4.5-.9.8-1.5.8c-.7 0-1.2-.3-1.5-.7c-.4-.5-.6-1.1-.6-1.8v-.1c0-.7.2-1.3.6-1.7c.4-.5.9-.8 1.5-.8c.6 0 1.1.3 1.5.7c.3.5.5 1.1.5 1.8c.03.04 0 0 0 0c0 0 .03.05 0 0zm-3.5 0c0 .6.1 1.1.4 1.5c.3.4.6.6 1.1.6c.4 0 .8-.2 1.1-.6c.2-.4.4-.9.4-1.4v-.1c0-.5-.2-1-.5-1.4c-.2-.4-.6-.6-1-.6c-.5 0-.8.2-1.1.6c-.3.4-.4.9-.4 1.4c-.03.04 0 0 0 0c0 0-.03.05 0 0zm9.8 1.9c-.4.5-.9.7-1.5.7c-.5 0-1-.2-1.3-.6c-.4-.3-.6-.8-.6-1.3c0-.5.2-1 .6-1.3c.3-.4.8-.6 1.3-.6c.6 0 1 .2 1.4.6l-.3.4c-.4-.3-.7-.5-1.1-.5c-.4 0-.7.1-.9.4c-.3.3-.4.6-.4 1c0 .4.1.7.4 1c.2.3.5.4.9.4c.4 0 .8-.2 1.1-.5c.03-.04.4.3.4.3c0 0-.02-.02 0 0zm.9.6V32h.5v.6c.1-.2.3-.4.5-.5c.2-.1.4-.2.7-.2c.5 0 .9.2 1.1.7c.4-.5.8-.7 1.3-.7c.4 0 .8.1 1 .4c.2.3.4.6.4 1.1c-.05-.04 0 2.2 0 2.2h-.6v-2.1c0-.4-.1-.6-.2-.8c-.2-.2-.4-.3-.7-.3c-.3 0-.5.1-.7.3c-.2.2-.3.5-.3.8c-.02.01 0 2.1 0 2.1h-.6s.04-2.13 0-2.1c0-.4 0-.6-.2-.8c-.2-.2-.4-.3-.7-.3c-.3 0-.5.1-.7.3c-.2.2-.3.5-.3.8v2.1h-.5z" stroke="none" fill="#000"/></g><g id="Polygon373993"><path d="m.3 25.6l2.2-4.9h.5l2.3 4.9h-.6l-.6-1.3H1.4l-.6 1.3h-.5zm1.3-1.8h2.3l-1.1-2.5l-1.2 2.5zm5.6 2.9l-.5-.3l.6-.8c-.5 0-.8-.2-1.1-.6c-.3-.3-.5-.7-.5-1.2c0-.5.2-1 .6-1.3c.3-.4.8-.6 1.3-.6c.5 0 1 .2 1.4.6l-.3.4c-.4-.3-.7-.5-1.1-.5c-.4 0-.7.1-.9.4c-.3.3-.4.6-.4 1c0 .4.1.7.4 1c.2.3.5.4.9.4c.4 0 .8-.2 1.1-.5l.4.3c-.4.4-.9.7-1.4.7c-.01-.02-.5 1-.5 1zm2.8-1.1V22h.5v3.6h-.5zm1.8 0v-5.1h.5v3.5l2-2h.7l-1.6 1.5l1.6 2.1h-.6l-1.3-1.7l-.8.8v.9h-.5zm3.9-2.9v-.7h.7v.7h-.7zm0 2.9v-.7h.7v.7h-.7zm4 0v-5.1h.5v2.1c.3-.5.7-.7 1.2-.7c.5 0 .8.1 1 .4c.3.3.4.6.4 1.1c.02-.05 0 2.2 0 2.2h-.5s-.02-2.11 0-2.1c0-.4-.1-.6-.3-.8c-.2-.2-.4-.3-.7-.3c-.3 0-.6.1-.8.3c-.2.2-.3.5-.3.8v2.1h-.5zm4.9 0v-4.4l-.9.3l-.1-.4l1.2-.4h.4v4.9h-.6zm2.5 0v-4.4l-.9.3l-.1-.4l1.2-.4h.4v4.9h-.6zm3.6.1c-.5 0-.9-.2-1.3-.5c-.2-.2-.3-.5-.4-.8c-.1-.3-.2-.6-.2-1.1c0-.8.2-1.4.6-1.9c.3-.5.8-.8 1.4-.8c.6 0 1 .2 1.5.6l-.3.4c-.4-.3-.8-.5-1.2-.5c-.4 0-.8.2-1 .6c-.3.4-.4.9-.4 1.5v.1c.3-.5.8-.8 1.4-.8c.4 0 .8.2 1.2.5c.3.2.5.6.5 1v.1c0 .4-.2.8-.5 1.1c-.4.3-.8.5-1.3.5zm0-.5c.4 0 .7-.1.9-.3c.2-.2.3-.5.3-.8c0-.3-.1-.6-.3-.8c-.3-.2-.5-.3-.9-.3c-.4 0-.6.1-.9.3c-.2.3-.3.5-.3.8c0 .3.1.6.3.8c.3.2.6.3.9.3zm7.7-.5l-1.2-1.2l-1.2 1.2l-.4-.3l1.3-1.3l-1.3-1.2l.4-.3l1.2 1.2l1.2-1.2l.4.3l-1.3 1.2l1.3 1.2l-.4.4zm3.8.9v-4.9h.5v4.4h2.8v.5h-3.3zm6.6 0v-1.2h-2.6l-.1-.4l2.8-3.3h.4v3.3h.8v.4h-.8v1.2h-.5zm-2-1.6h2v-2.6l-2 2.6zm7.7.3c0 .4-.1.7-.5 1c-.3.2-.8.4-1.3.4c-.5 0-1-.2-1.3-.4c-.4-.3-.6-.6-.6-1c0-.3.1-.6.3-.8c.2-.2.4-.3.8-.4c-.6-.3-.9-.7-.9-1.2c0-.3.2-.7.5-.9c.3-.2.7-.4 1.2-.4c.4 0 .8.2 1.2.4c.3.2.5.6.5.9c0 .5-.3.9-.9 1.2c.3.1.6.2.8.4c.1.2.2.5.2.8c.03-.04 0 0 0 0c0 0 .03-.02 0 0zM51.6 22c0 .2.1.4.3.6c.2.2.5.3.8.3c.3 0 .6-.1.8-.3c.2-.2.3-.4.3-.6c0-.3-.1-.5-.3-.6c-.2-.2-.5-.3-.8-.3c-.3 0-.6.1-.8.3c-.2.1-.3.3-.3.6c-.03-.04 0 0 0 0c0 0-.03-.03 0 0zm-.2 2.3c0 .2.1.4.4.6c.2.2.5.3.9.3c.4 0 .7-.1.9-.3c.3-.2.4-.4.4-.6c0-.3-.2-.5-.4-.7c-.2-.2-.6-.3-.9-.3c-.4 0-.7.1-.9.3c-.3.2-.4.4-.4.7c.01-.04 0 0 0 0c0 0 .01-.03 0 0zm9 .4l-1.2-1.2l-1.2 1.2l-.4-.3l1.2-1.3l-1.2-1.2l.4-.3l1.2 1.2l1.2-1.2l.4.3l-1.3 1.2l1.3 1.2l-.4.4zm6.6.2c-.4.5-.9.8-1.4.8c-.5 0-.9-.2-1.2-.5c-.4-.4-.5-.8-.5-1.4c0-.6.1-1 .5-1.4c.3-.3.7-.5 1.2-.5c.6 0 1 .3 1.4.8c-.03-.03 0-2.2 0-2.2h.5v5.1h-.5v-.7s-.03-.03 0 0zm-1.3.3c.3 0 .6-.1.9-.4c.3-.3.4-.6.4-1c0-.4-.1-.8-.4-1c-.3-.3-.6-.4-.9-.4c-.4 0-.7.1-.9.4c-.3.2-.4.6-.4 1c0 .4.1.8.4 1c.2.3.5.4.9.4zm4.7.5c-.5 0-.9-.2-1.2-.5c-.3-.2-.4-.5-.5-.8c-.1-.3-.2-.6-.2-1.1c0-.8.2-1.4.6-1.9c.4-.5.9-.8 1.5-.8c.5 0 1 .2 1.4.6l-.3.4c-.4-.3-.8-.5-1.1-.5c-.5 0-.9.2-1.1.6c-.3.4-.4.9-.4 1.5v.1c.4-.5.8-.8 1.4-.8c.5 0 .9.2 1.2.5c.3.2.5.6.5 1v.1c0 .4-.2.8-.5 1.1c-.3.3-.8.5-1.3.5zm.1-.5c.3 0 .6-.1.8-.3c.2-.2.3-.5.3-.8c0-.3-.1-.6-.3-.8c-.2-.2-.5-.3-.9-.3c-.3 0-.6.1-.8.3c-.3.3-.4.5-.4.8c0 .3.1.6.4.8c.2.2.5.3.9.3zm4.5.5c-.6 0-1-.2-1.3-.5c-.2-.2-.4-.5-.5-.8c-.1-.3-.1-.6-.1-1.1c0-.8.2-1.4.5-1.9c.4-.5.9-.8 1.5-.8c.5 0 1 .2 1.5.6l-.4.4c-.3-.3-.7-.5-1.1-.5c-.5 0-.8.2-1.1.6c-.2.4-.4.9-.4 1.5v.1c.4-.5.9-.8 1.4-.8c.5 0 .9.2 1.2.5c.4.2.5.6.5 1v.1c0 .4-.1.8-.5 1.1c-.3.3-.7.5-1.2.5zm0-.5c.3 0 .6-.1.8-.3c.3-.2.4-.5.4-.8c0-.3-.1-.6-.4-.8c-.2-.2-.5-.3-.8-.3c-.4 0-.7.1-.9.3c-.2.3-.4.5-.4.8c0 .3.2.6.4.8c.2.2.5.3.9.3zm8-.2c-.4.5-.9.7-1.5.7c-.5 0-1-.2-1.3-.6c-.4-.3-.5-.8-.5-1.3c0-.5.1-1 .5-1.3c.3-.4.8-.6 1.3-.6c.6 0 1 .2 1.5.6l-.4.4c-.3-.3-.7-.5-1.1-.5c-.4 0-.7.1-.9.4c-.3.3-.4.6-.4 1c0 .4.1.7.4 1c.2.3.6.4.9.4c.4 0 .8-.2 1.1-.5c.04-.04.4.3.4.3c0 0-.02-.02 0 0zm.9.6V22h.5v.6c.2-.2.3-.4.5-.5c.2-.1.4-.2.7-.2c.5 0 .9.2 1.1.7c.4-.5.8-.7 1.3-.7c.4 0 .8.1 1 .4c.2.3.4.6.4 1.1c-.04-.04 0 2.2 0 2.2h-.6s.02-2.11 0-2.1c0-.4-.1-.6-.2-.8c-.2-.2-.4-.3-.7-.3c-.3 0-.5.1-.7.3c-.2.2-.3.5-.3.8c-.02.01 0 2.1 0 2.1h-.5s-.05-2.13 0-2.1c0-.4-.1-.6-.3-.8c-.2-.2-.4-.3-.7-.3c-.3 0-.5.1-.7.3c-.2.2-.3.5-.3.8v2.1h-.5z" stroke="none" fill="#000"/></g><g id="Polygon373992"><path d="m.7 15.6v-4.9h.5v2.9l2.9-2.9h.7l-2.1 2.1l2.2 2.8h-.7l-1.9-2.4l-1.1 1.1v1.3h-.5zm7.3-.5c-.4.4-.8.6-1.4.6c-.3 0-.6-.1-.9-.3c-.3-.2-.4-.5-.4-.9c0-.3.1-.6.4-.8c.3-.2.7-.3 1.1-.3c.4 0 .8 0 1.2.1v-.1c0-.3-.1-.6-.3-.7c-.2-.2-.5-.3-.8-.3c-.4 0-.8.1-1.1.3l-.2-.5c.4-.2.9-.3 1.3-.3c.5 0 .9.2 1.2.4c.2.3.4.6.4 1.1c-.03-.01 0 2.2 0 2.2h-.5v-.5s-.05-.05 0 0zm-1.3.1c.4 0 .7 0 .9-.2c.2-.2.4-.4.4-.7v-.4c-.4-.1-.8-.1-1.1-.1c-.3 0-.6 0-.8.2c-.2.1-.3.3-.3.5c0 .2.1.4.3.6c.2.1.4.1.6.1zm2.9 1.5V12h.6s-.04.71 0 .7c.3-.5.8-.8 1.3-.8c.5 0 .9.2 1.3.5c.3.4.5.8.5 1.4c0 .6-.2 1-.5 1.4c-.4.3-.8.5-1.3.5c-.5 0-1-.3-1.3-.8c-.04.01 0 1.8 0 1.8h-.6zm1.8-1.5c.4 0 .7-.1 1-.4c.2-.2.3-.6.3-1c0-.4-.1-.8-.3-1c-.3-.3-.6-.4-1-.4c-.3 0-.6.1-.9.4c-.2.3-.4.6-.4 1c0 .4.2.7.4 1c.3.3.6.4.9.4zm5.3-.1c-.4.4-.8.6-1.4.6c-.3 0-.6-.1-.9-.3c-.3-.2-.4-.5-.4-.9c0-.3.1-.6.4-.8c.3-.2.7-.3 1.1-.3c.4 0 .8 0 1.2.1v-.1c0-.3-.1-.6-.3-.7c-.2-.2-.5-.3-.8-.3c-.4 0-.8.1-1.1.3l-.2-.5c.4-.2.9-.3 1.3-.3c.5 0 .9.2 1.2.4c.2.3.4.6.4 1.1c-.03-.01 0 2.2 0 2.2h-.5v-.5s-.05-.05 0 0zm-1.3.1c.4 0 .7 0 .9-.2c.2-.2.4-.4.4-.7v-.4c-.4-.1-.8-.1-1.1-.1c-.3 0-.6 0-.8.2c-.2.1-.3.3-.3.5c0 .2.1.4.3.6c.2.1.4.1.6.1zm3 .4v-5.1h.5v5.1h-.5zm1.8 0V12h.5v3.6h-.5zm1.8-2.9v-.7h.6v.7h-.6zm0 2.9v-.7h.6v.7h-.6zm3.9 0v-5.1h.5s.02 2.11 0 2.1c.3-.5.7-.7 1.3-.7c.4 0 .7.1 1 .4c.2.3.3.6.3 1.1c.04-.05 0 2.2 0 2.2h-.5v-2.1c0-.4-.1-.6-.3-.8c-.1-.2-.4-.3-.7-.3c-.3 0-.6.1-.8.3c-.2.2-.3.5-.3.8c.02.03 0 2.1 0 2.1h-.5zm4.9 0v-4.4l-.9.3l-.1-.4l1.2-.4h.4v4.9h-.6zm1.6 0v-.4l1.8-1.6c.4-.3.7-.6.8-.8c.2-.3.2-.5.2-.7c0-.3-.1-.5-.3-.7c-.1-.2-.4-.3-.7-.3c-.2 0-.5.1-.7.2c-.2.2-.4.4-.6.7l-.4-.3c.3-.4.5-.7.8-.8c.2-.2.6-.3 1-.3c.4 0 .8.2 1.1.4c.3.3.4.6.4 1c0 .4-.1.7-.3.9c-.2.3-.5.6-.9 1l-1.3 1.2h2.6v.5h-3.5zm6.1.1c-.8 0-1.4-.3-1.9-.9l.4-.3c.4.4.9.7 1.5.7c.3 0 .5-.1.7-.3c.2-.2.3-.4.3-.7c0-.3-.1-.5-.3-.7c-.3-.1-.6-.2-1-.2c-.03-.03-.3 0-.3 0l-.2-.4l1.6-1.7h-2.4v-.5h3.1v.4l-1.5 1.7c.5.1.8.2 1.1.4c.4.2.5.6.5 1c0 .4-.2.8-.5 1.1c-.3.2-.7.4-1.1.4zm7.6-1l-1.2-1.2l-1.3 1.2l-.3-.3l1.2-1.3l-1.2-1.2l.4-.3l1.2 1.2l1.2-1.2l.3.3l-1.2 1.2l1.2 1.2l-.3.4zm3.7.9v-4.9h.6v4.4h2.8v.5h-3.4zm6.7 0v-1.2h-2.6l-.1-.4l2.7-3.3h.5v3.3h.8v.4h-.8v1.2h-.5zM54.4 14h2.1v-2.6L54.4 14zm7.8.3c0 .4-.2.7-.5 1c-.4.2-.8.4-1.3.4c-.6 0-1-.2-1.4-.4c-.3-.3-.5-.6-.5-1c0-.3.1-.6.3-.8c.2-.2.4-.3.7-.4c-.5-.3-.8-.7-.8-1.2c0-.3.2-.7.5-.9c.3-.2.7-.4 1.2-.4c.4 0 .8.2 1.1.4c.4.2.5.6.5.9c0 .5-.2.9-.8 1.2c.3.1.5.2.7.4c.2.2.3.5.3.8c0-.04 0 0 0 0c0 0 0-.02 0 0zm-3-2.3c0 .2.1.4.4.6c.2.2.4.3.8.3c.3 0 .5-.1.8-.3c.2-.2.3-.4.3-.6c0-.3-.1-.5-.3-.6c-.3-.2-.5-.3-.8-.3c-.4 0-.6.1-.8.3c-.3.1-.4.3-.4.6c.04-.04 0 0 0 0c0 0 .04-.03 0 0zm-.1 2.3c0 .2.1.4.3.6c.3.2.6.3 1 .3c.4 0 .7-.1.9-.3c.2-.2.3-.4.3-.6c0-.3-.1-.5-.3-.7c-.3-.2-.6-.3-.9-.3c-.4 0-.7.1-.9.3c-.3.2-.4.4-.4.7c-.02-.04 0 0 0 0c0 0-.02-.03 0 0zm9 .4l-1.3-1.2l-1.2 1.2l-.3-.3l1.2-1.3l-1.2-1.2l.3-.3l1.3 1.2l1.2-1.2l.3.3l-1.2 1.2l1.2 1.2l-.3.4zm6.5.2c-.3.5-.8.8-1.3.8c-.5 0-.9-.2-1.3-.5c-.3-.4-.5-.8-.5-1.4c0-.6.2-1 .5-1.4c.4-.3.8-.5 1.3-.5c.5 0 1 .3 1.3.8c.05-.03 0-2.2 0-2.2h.6v5.1h-.6v-.7s.05-.03 0 0zm-1.2.3c.3 0 .6-.1.9-.4c.2-.3.4-.6.4-1c0-.4-.2-.8-.4-1c-.3-.3-.6-.4-.9-.4c-.4 0-.7.1-1 .4c-.2.2-.3.6-.3 1c0 .4.1.8.4 1c.2.3.5.4.9.4zm3.3-.5c.4.3.8.5 1.2.5c.4 0 .8-.2 1-.6c.3-.4.4-.9.4-1.5v-.1c-.3.6-.8.8-1.4.8c-.5 0-.9-.1-1.2-.4c-.3-.3-.5-.7-.5-1.1c0-.5.2-.9.5-1.2c.4-.3.8-.5 1.3-.5c.5 0 .9.2 1.3.5c.4.4.6 1.1.6 1.9c0 .8-.2 1.4-.6 1.9c-.4.5-.8.8-1.4.8c-.6 0-1.1-.2-1.6-.6c.04-.02.4-.4.4-.4c0 0-.04-.05 0 0zm1.3-1.4c.4 0 .7-.1.9-.3c.2-.2.3-.5.3-.8c0-.3-.1-.6-.3-.8c-.3-.2-.6-.3-.9-.3c-.4 0-.7.1-.9.3c-.2.3-.3.5-.3.9c0 .3.1.5.3.7c.3.2.5.3.9.3zm8.1 1.7c-.4.5-.9.7-1.5.7c-.5 0-.9-.2-1.3-.6c-.3-.3-.5-.8-.5-1.3c0-.5.2-1 .5-1.3c.4-.4.8-.6 1.3-.6c.6 0 1.1.2 1.5.6l-.4.4c-.3-.3-.7-.5-1.1-.5c-.3 0-.6.1-.9.4c-.2.3-.4.6-.4 1c0 .4.2.7.4 1c.3.3.6.4 1 .4c.4 0 .7-.2 1.1-.5c-.02-.04.3.3.3.3c0 0 .03-.02 0 0zm.9.6V12h.6s-.05.59 0 .6c.1-.2.3-.4.4-.5c.2-.1.4-.2.7-.2c.6 0 1 .2 1.2.7c.3-.5.7-.7 1.3-.7c.4 0 .7.1.9.4c.3.3.4.6.4 1.1v2.2h-.5s-.04-2.11 0-2.1c0-.4-.1-.6-.3-.8c-.1-.2-.4-.3-.7-.3c-.3 0-.5.1-.7.3c-.2.2-.3.5-.3.8c.03.01 0 2.1 0 2.1h-.5v-2.1c0-.4-.1-.6-.3-.8c-.1-.2-.3-.3-.6-.3c-.3 0-.6.1-.8.3c-.1.2-.2.5-.2.8c-.05.03 0 2.1 0 2.1h-.6z" stroke="none" fill="#000"/></g><g id="Polygon373991"><path d="m1.3 5.6V1.2l-1 .3l-.1-.4L1.4.7h.4v4.9h-.5zm5.3-1.3c0 .4-.2.7-.6 1c-.3.2-.8.4-1.3.4c-.5 0-1-.2-1.3-.4c-.4-.3-.5-.6-.5-1c0-.3.1-.6.2-.8c.2-.2.5-.3.8-.4c-.6-.3-.9-.7-.9-1.2c0-.3.2-.7.5-.9c.4-.2.8-.4 1.2-.4c.5 0 .9.2 1.2.4c.3.2.5.6.5.9c0 .5-.3.9-.9 1.2c.4.1.6.2.8.4c.2.2.3.5.3.8c-.05-.04 0 0 0 0c0 0-.05-.02 0 0zM3.6 2c0 .2.1.4.3.6c.2.2.5.3.8.3c.3 0 .6-.1.8-.3c.2-.2.3-.4.3-.6c0-.3-.1-.5-.3-.6c-.2-.2-.5-.3-.8-.3c-.3 0-.6.1-.8.3c-.2.1-.3.3-.3.6c-.01-.04 0 0 0 0c0 0-.01-.03 0 0zm-.2 2.3c0 .2.1.4.4.6c.2.2.5.3.9.3c.4 0 .7-.1.9-.3c.3-.2.4-.4.4-.6c0-.3-.1-.5-.4-.7c-.2-.2-.5-.3-.9-.3c-.3 0-.7.1-.9.3c-.2.2-.4.4-.4.7c.03-.04 0 0 0 0c0 0 .03-.03 0 0zm8.1-1.2c0 .8-.2 1.4-.6 1.8c-.4.5-.9.8-1.5.8c-.6 0-1.1-.3-1.5-.7c-.4-.5-.6-1.1-.6-1.8v-.1c0-.7.2-1.3.6-1.7c.4-.5.9-.8 1.5-.8c.6 0 1.1.3 1.5.7c.4.5.6 1.1.6 1.8c-.01.04 0 0 0 0c0 0-.01.05 0 0zm-3.6 0c0 .6.2 1.1.4 1.5c.3.4.7.6 1.1.6c.5 0 .8-.2 1.1-.6c.3-.4.4-.9.4-1.4v-.1c0-.5-.1-1-.4-1.4c-.3-.4-.6-.6-1.1-.6c-.4 0-.8.2-1.1.6c-.2.4-.4.9-.4 1.4c.02.04 0 0 0 0c0 0 .02.05 0 0zm3.6 3.4L14.8 0h.5L12 6.5h-.5zm5.8-.8c-.7 0-1.3-.3-1.8-.9l.4-.3c.4.4.9.7 1.4.7c.3 0 .6-.1.8-.3c.2-.2.3-.4.3-.7c0-.3-.1-.5-.4-.7c-.2-.1-.5-.2-1-.2c.04-.03-.3 0-.3 0l-.1-.4l1.6-1.7h-2.4v-.5h3.1v.4s-1.54 1.71-1.5 1.7c.4.1.8.2 1.1.4c.3.2.5.6.5 1c0 .4-.2.8-.5 1.1c-.3.2-.7.4-1.2.4zm2.7-3v-.7h.7v.7h-.7zm0 2.9v-.7h.7v.7h-.7z" stroke="none" fill="#000"/></g></svg>