<?xml version="1.0" standalone="no"?><!DOCTYPE svg PUBLIC "-//W3C//DTD SVG 1.1//EN" "http://www.w3.org/Graphics/SVG/1.1/DTD/svg11.dtd"><svg xmlns="http://www.w3.org/2000/svg" version="1.1" width="52.5px" height="20.5px" viewBox="0 -1 52.5 20.5" style="top:-1px">  <desc>20.344,50</desc>  <defs/>  <g id="Polygon357858">    <path d="M 5.2 11.2 L 5.2 11.9 L 0.6 11.9 L 0.6 11.3 C 0.6 11.3 2.92 8.67 2.9 8.7 C 3.2 8.4 3.4 8.1 3.6 7.9 C 3.7 7.6 3.9 7.4 3.9 7.3 C 4 7.1 4 6.9 4 6.7 C 4 6.5 4 6.3 3.9 6.1 C 3.8 5.9 3.6 5.7 3.5 5.6 C 3.3 5.5 3 5.5 2.8 5.5 C 2.5 5.5 2.2 5.5 2 5.6 C 1.8 5.8 1.6 5.9 1.5 6.1 C 1.4 6.4 1.4 6.6 1.4 6.9 C 1.4 6.9 0.5 6.9 0.5 6.9 C 0.5 6.5 0.5 6.1 0.7 5.8 C 0.9 5.5 1.2 5.2 1.5 5 C 1.8 4.8 2.3 4.7 2.8 4.7 C 3.2 4.7 3.6 4.8 3.9 4.9 C 4.2 5.1 4.5 5.3 4.7 5.6 C 4.8 5.9 4.9 6.2 4.9 6.6 C 4.9 6.8 4.9 7 4.8 7.2 C 4.7 7.5 4.7 7.7 4.5 7.9 C 4.4 8.1 4.3 8.3 4.1 8.5 C 3.9 8.7 3.8 8.9 3.6 9.1 C 3.59 9.11 1.7 11.2 1.7 11.2 L 5.2 11.2 Z M 10.7 7.8 C 10.7 7.8 10.7 8.9 10.7 8.9 C 10.7 9.5 10.6 10 10.5 10.4 C 10.4 10.8 10.3 11.1 10.1 11.3 C 9.9 11.6 9.6 11.7 9.4 11.8 C 9.1 12 8.8 12 8.4 12 C 8.2 12 7.9 12 7.7 11.9 C 7.4 11.8 7.2 11.7 7.1 11.6 C 6.9 11.4 6.7 11.2 6.6 11 C 6.5 10.7 6.4 10.4 6.3 10.1 C 6.2 9.8 6.2 9.3 6.2 8.9 C 6.2 8.9 6.2 7.8 6.2 7.8 C 6.2 7.2 6.2 6.7 6.3 6.3 C 6.4 5.9 6.6 5.6 6.8 5.4 C 7 5.1 7.2 5 7.5 4.9 C 7.8 4.8 8.1 4.7 8.4 4.7 C 8.7 4.7 9 4.7 9.2 4.8 C 9.4 4.9 9.6 5 9.8 5.1 C 10 5.3 10.1 5.5 10.3 5.7 C 10.4 5.9 10.5 6.2 10.6 6.6 C 10.6 6.9 10.7 7.3 10.7 7.8 Z M 9.8 9 C 9.8 9 9.8 7.6 9.8 7.6 C 9.8 7.3 9.7 7 9.7 6.8 C 9.7 6.6 9.6 6.4 9.5 6.2 C 9.5 6 9.4 5.9 9.3 5.8 C 9.2 5.7 9 5.6 8.9 5.5 C 8.8 5.5 8.6 5.4 8.4 5.4 C 8.2 5.4 8 5.5 7.9 5.6 C 7.7 5.6 7.5 5.8 7.4 5.9 C 7.3 6.1 7.2 6.3 7.2 6.6 C 7.1 6.9 7.1 7.2 7.1 7.6 C 7.1 7.6 7.1 9 7.1 9 C 7.1 9.3 7.1 9.6 7.1 9.9 C 7.2 10.1 7.2 10.3 7.3 10.5 C 7.4 10.7 7.5 10.8 7.6 10.9 C 7.7 11.1 7.8 11.1 8 11.2 C 8.1 11.2 8.3 11.3 8.4 11.3 C 8.7 11.3 8.8 11.2 9 11.1 C 9.2 11.1 9.3 10.9 9.4 10.7 C 9.5 10.6 9.6 10.3 9.7 10 C 9.7 9.8 9.8 9.4 9.8 9 Z M 11.9 11.4 C 11.9 11.3 12 11.2 12.1 11 C 12.2 10.9 12.3 10.9 12.5 10.9 C 12.7 10.9 12.8 10.9 12.9 11 C 13 11.2 13.1 11.3 13.1 11.4 C 13.1 11.6 13 11.7 12.9 11.8 C 12.8 11.9 12.7 12 12.5 12 C 12.3 12 12.2 11.9 12.1 11.8 C 12 11.7 11.9 11.6 11.9 11.4 Z M 15.8 7.9 C 15.8 7.9 16.43 7.92 16.4 7.9 C 16.7 7.9 17 7.9 17.2 7.8 C 17.4 7.7 17.6 7.5 17.7 7.3 C 17.8 7.1 17.8 6.9 17.8 6.7 C 17.8 6.4 17.8 6.2 17.7 6 C 17.6 5.8 17.5 5.7 17.3 5.6 C 17.1 5.5 16.9 5.5 16.6 5.5 C 16.3 5.5 16.1 5.5 15.9 5.6 C 15.7 5.7 15.6 5.8 15.5 6 C 15.4 6.2 15.3 6.4 15.3 6.7 C 15.3 6.7 14.4 6.7 14.4 6.7 C 14.4 6.3 14.5 6 14.7 5.7 C 14.9 5.4 15.1 5.1 15.4 5 C 15.8 4.8 16.2 4.7 16.6 4.7 C 17 4.7 17.4 4.8 17.7 4.9 C 18 5.1 18.3 5.3 18.5 5.6 C 18.7 5.9 18.7 6.3 18.7 6.7 C 18.7 6.9 18.7 7.1 18.6 7.3 C 18.5 7.5 18.4 7.7 18.2 7.9 C 18.1 8 17.8 8.2 17.6 8.3 C 17.3 8.4 16.9 8.5 16.6 8.5 C 16.56 8.46 15.8 8.5 15.8 8.5 L 15.8 7.9 Z M 15.8 8.7 L 15.8 8.1 C 15.8 8.1 16.56 8.12 16.6 8.1 C 17 8.1 17.4 8.2 17.7 8.3 C 18 8.4 18.2 8.5 18.4 8.7 C 18.6 8.9 18.7 9.1 18.7 9.3 C 18.8 9.5 18.8 9.7 18.8 9.9 C 18.8 10.3 18.8 10.6 18.7 10.8 C 18.6 11.1 18.4 11.3 18.2 11.5 C 18 11.7 17.8 11.8 17.5 11.9 C 17.2 12 16.9 12 16.6 12 C 16.3 12 16 12 15.7 11.9 C 15.5 11.8 15.2 11.7 15 11.5 C 14.8 11.3 14.6 11.1 14.5 10.9 C 14.4 10.6 14.3 10.4 14.3 10 C 14.3 10 15.2 10 15.2 10 C 15.2 10.3 15.3 10.5 15.4 10.7 C 15.5 10.9 15.7 11 15.9 11.1 C 16.1 11.2 16.3 11.3 16.6 11.3 C 16.9 11.3 17.1 11.2 17.3 11.1 C 17.5 11 17.7 10.9 17.8 10.7 C 17.9 10.5 17.9 10.2 17.9 10 C 17.9 9.7 17.9 9.4 17.8 9.2 C 17.6 9 17.5 8.9 17.2 8.8 C 17 8.7 16.7 8.7 16.4 8.7 C 16.43 8.66 15.8 8.7 15.8 8.7 Z M 24.9 9.5 L 24.9 10.3 L 19.8 10.3 L 19.8 9.7 L 22.9 4.8 L 23.7 4.8 L 22.9 6.2 L 20.8 9.5 L 24.9 9.5 Z M 23.9 4.8 L 23.9 11.9 L 23 11.9 L 23 4.8 L 23.9 4.8 Z M 30.5 9.5 L 30.5 10.3 L 25.4 10.3 L 25.4 9.7 L 28.6 4.8 L 29.3 4.8 L 28.5 6.2 L 26.4 9.5 L 30.5 9.5 Z M 29.5 4.8 L 29.5 11.9 L 28.6 11.9 L 28.6 4.8 L 29.5 4.8 Z M 32.2 10.8 C 32.2 10.8 32.25 11.57 32.2 11.6 C 32.2 11.9 32.2 12.2 32 12.5 C 31.9 12.8 31.7 13.1 31.4 13.3 C 31.4 13.3 30.9 13 30.9 13 C 31 12.8 31.1 12.7 31.1 12.5 C 31.2 12.4 31.3 12.2 31.3 12.1 C 31.3 11.9 31.4 11.8 31.4 11.6 C 31.36 11.58 31.4 10.8 31.4 10.8 L 32.2 10.8 Z M 34.4 8.5 C 34.44 8.53 33.7 8.3 33.7 8.3 L 34.1 4.8 L 37.7 4.8 L 37.7 5.6 L 34.8 5.6 C 34.8 5.6 34.62 7.57 34.6 7.6 C 34.8 7.5 34.9 7.4 35.1 7.4 C 35.3 7.3 35.6 7.3 35.8 7.3 C 36.1 7.3 36.4 7.3 36.7 7.4 C 37 7.5 37.2 7.7 37.4 7.9 C 37.5 8.1 37.7 8.4 37.8 8.7 C 37.9 9 37.9 9.3 37.9 9.6 C 37.9 10 37.9 10.3 37.8 10.6 C 37.7 10.9 37.6 11.1 37.4 11.3 C 37.2 11.6 37 11.7 36.7 11.8 C 36.4 12 36.1 12 35.7 12 C 35.4 12 35.1 12 34.9 11.9 C 34.6 11.8 34.4 11.7 34.2 11.5 C 34 11.4 33.8 11.2 33.7 10.9 C 33.6 10.7 33.5 10.4 33.5 10 C 33.5 10 34.3 10 34.3 10 C 34.4 10.3 34.4 10.5 34.6 10.7 C 34.7 10.9 34.8 11 35 11.1 C 35.2 11.2 35.4 11.3 35.7 11.3 C 35.9 11.3 36.1 11.2 36.3 11.2 C 36.4 11.1 36.6 11 36.7 10.8 C 36.8 10.7 36.9 10.5 36.9 10.3 C 37 10.1 37 9.9 37 9.7 C 37 9.4 37 9.2 36.9 9 C 36.9 8.8 36.8 8.7 36.7 8.5 C 36.5 8.4 36.4 8.3 36.2 8.2 C 36 8.1 35.8 8.1 35.6 8.1 C 35.3 8.1 35.1 8.1 34.9 8.2 C 34.8 8.3 34.6 8.4 34.4 8.5 Z M 43.4 7.8 C 43.4 7.8 43.4 8.9 43.4 8.9 C 43.4 9.5 43.3 10 43.2 10.4 C 43.1 10.8 43 11.1 42.8 11.3 C 42.6 11.6 42.3 11.7 42.1 11.8 C 41.8 12 41.5 12 41.1 12 C 40.9 12 40.6 12 40.4 11.9 C 40.1 11.8 39.9 11.7 39.8 11.6 C 39.6 11.4 39.4 11.2 39.3 11 C 39.2 10.7 39.1 10.4 39 10.1 C 38.9 9.8 38.9 9.3 38.9 8.9 C 38.9 8.9 38.9 7.8 38.9 7.8 C 38.9 7.2 38.9 6.7 39 6.3 C 39.2 5.9 39.3 5.6 39.5 5.4 C 39.7 5.1 39.9 5 40.2 4.9 C 40.5 4.8 40.8 4.7 41.1 4.7 C 41.4 4.7 41.7 4.7 41.9 4.8 C 42.1 4.9 42.3 5 42.5 5.1 C 42.7 5.3 42.9 5.5 43 5.7 C 43.1 5.9 43.2 6.2 43.3 6.6 C 43.3 6.9 43.4 7.3 43.4 7.8 Z M 42.5 9 C 42.5 9 42.5 7.6 42.5 7.6 C 42.5 7.3 42.5 7 42.4 6.8 C 42.4 6.6 42.3 6.4 42.3 6.2 C 42.2 6 42.1 5.9 42 5.8 C 41.9 5.7 41.7 5.6 41.6 5.5 C 41.5 5.5 41.3 5.4 41.1 5.4 C 40.9 5.4 40.7 5.5 40.6 5.6 C 40.4 5.6 40.3 5.8 40.1 5.9 C 40 6.1 39.9 6.3 39.9 6.6 C 39.8 6.9 39.8 7.2 39.8 7.6 C 39.8 7.6 39.8 9 39.8 9 C 39.8 9.3 39.8 9.6 39.9 9.9 C 39.9 10.1 39.9 10.3 40 10.5 C 40.1 10.7 40.2 10.8 40.3 10.9 C 40.4 11.1 40.5 11.1 40.7 11.2 C 40.8 11.2 41 11.3 41.1 11.3 C 41.4 11.3 41.6 11.2 41.7 11.1 C 41.9 11.1 42 10.9 42.1 10.7 C 42.2 10.6 42.3 10.3 42.4 10 C 42.4 9.8 42.5 9.4 42.5 9 Z " stroke="none" fill="#000"/>  </g></svg>