<?xml version="1.0" standalone="no"?><!DOCTYPE svg PUBLIC "-//W3C//DTD SVG 1.1//EN" "http://www.w3.org/Graphics/SVG/1.1/DTD/svg11.dtd"><svg xmlns="http://www.w3.org/2000/svg" version="1.1" width="69px" height="14.4px" viewBox="0 -2 69 14.4" style="top:-2px"><desc>58 x 58 cm</desc><defs/><g id="Polygon370790"><path d="m2.1 5.7c-.3 0-.6-.1-.9-.2c-.3-.2-.6-.4-.8-.6l.3-.3c.4.5.9.8 1.4.8c.4 0 .7-.2 1-.4c.2-.2.3-.5.3-.9c0-.3-.1-.6-.3-.8c-.3-.2-.6-.4-1-.4c-.4 0-.7.1-1.1.4c-.01-.05-.3-.2-.3-.2L.9.7h2.7v.3H1.2s-.14 1.88-.1 1.9c.3-.2.7-.3 1-.3c.5 0 .9.2 1.2.4c.4.3.5.7.5 1.1c0 .5-.1.8-.5 1.1c-.3.3-.7.5-1.2.5zm6.2-1.4c0 .4-.2.7-.6 1c-.3.2-.7.4-1.3.4c-.5 0-.9-.2-1.3-.4c-.3-.3-.5-.6-.5-1c0-.3.1-.5.3-.8c.2-.2.5-.3.8-.4c-.3-.1-.5-.3-.7-.5c-.1-.2-.2-.4-.2-.7c0-.4.2-.7.5-.9C5.6.8 6 .6 6.4.6c.5 0 .9.2 1.2.4c.3.2.5.5.5.9c0 .3-.1.5-.3.7c-.1.2-.4.4-.6.5c.3.1.6.2.8.4c.2.3.3.5.3.8c-.04-.02 0 0 0 0c0 0-.04-.01 0 0zM5.2 1.9c0 .3.1.6.3.7c.3.2.6.3.9.3c.4 0 .7-.1.9-.3c.3-.1.4-.4.4-.7c0-.3-.1-.5-.4-.7c-.2-.2-.5-.2-.9-.2c-.3 0-.6 0-.9.2c-.2.2-.3.4-.3.7c-.03.01 0 0 0 0c0 0-.03.02 0 0zM5 4.3c0 .3.1.5.4.7c.3.2.6.3 1 .3c.5 0 .8-.1 1.1-.3c.3-.2.4-.4.4-.7c0-.3-.2-.6-.4-.8c-.3-.2-.7-.3-1.1-.3c-.4 0-.7.1-1 .3c-.3.2-.4.5-.4.8c0-.01 0 0 0 0zM11.5 2l1.2 1.5L14 2h.4L13 3.8l1.4 1.8h-.4L12.7 4l-1.2 1.6h-.4l1.4-1.8L11.1 2h.4zm7.4 3.7c-.3 0-.6-.1-.9-.2c-.3-.2-.5-.4-.8-.6l.3-.3c.5.5 1 .8 1.5.8c.3 0 .7-.2.9-.4c.3-.2.4-.5.4-.9c0-.3-.1-.6-.4-.8c-.3-.2-.6-.4-1-.4c-.3 0-.7.1-1.1.4c.03-.05-.3-.2-.3-.2l.2-2.4h2.7v.3H18s-.11 1.88-.1 1.9c.3-.2.7-.3 1.1-.3c.5 0 .9.2 1.2.4c.3.3.5.7.5 1.1c0 .5-.2.8-.5 1.1c-.3.3-.8.5-1.3.5zm6.2-1.4c0 .4-.2.7-.5 1c-.4.2-.8.4-1.3.4c-.5 0-1-.2-1.3-.4c-.4-.3-.5-.6-.5-1c0-.3.1-.5.3-.8c.2-.2.4-.3.7-.4c-.2-.1-.4-.3-.6-.5c-.2-.2-.3-.4-.3-.7c0-.4.2-.7.5-.9c.4-.2.7-.4 1.2-.4c.4 0 .8.2 1.1.4c.4.2.5.5.5.9c0 .3-.1.5-.2.7c-.2.2-.4.4-.7.5c.3.1.6.2.8.4c.2.3.3.5.3.8c-.01-.02 0 0 0 0c0 0-.01-.01 0 0zM22 1.9c0 .3.1.6.4.7c.2.2.5.3.9.3c.3 0 .6-.1.9-.3c.2-.1.3-.4.3-.7c0-.3-.1-.5-.3-.7c-.3-.2-.6-.2-.9-.2c-.4 0-.7 0-.9.2c-.3.2-.4.4-.4.7c0 .01 0 0 0 0c0 0 0 .02 0 0zm-.2 2.4c0 .3.2.5.4.7c.3.2.6.3 1.1.3c.4 0 .8-.1 1-.3c.3-.2.4-.4.4-.7c0-.3-.1-.6-.4-.8c-.3-.2-.6-.3-1-.3c-.4 0-.8.1-1.1.3c-.2.2-.4.5-.4.8c.03-.01 0 0 0 0c0 0 .03 0 0 0zm9.5.7c-.5.4-.9.7-1.5.7c-.5 0-.9-.2-1.3-.6c-.3-.3-.5-.8-.5-1.3c0-.5.2-.9.5-1.3c.4-.4.8-.6 1.3-.6c.5 0 1 .3 1.4.7l-.2.3c-.4-.4-.8-.6-1.2-.6c-.4 0-.7.1-1 .4c-.3.3-.4.7-.4 1.1c0 .4.1.8.4 1.1c.3.3.6.5 1 .5c.5 0 .9-.2 1.2-.6c.02-.03.3.2.3.2c0 0-.04-.02 0 0zm.9.6V2h.4s-.03.67 0 .7c.3-.5.7-.8 1.2-.8c.5 0 .9.3 1.2.8c.3-.5.7-.8 1.3-.8c.4 0 .7.2 1 .5c.2.2.3.6.3 1c.02.04 0 2.2 0 2.2h-.3s-.02-2.12 0-2.1c0-.4-.1-.7-.3-.9c-.2-.2-.4-.3-.8-.3c-.3 0-.6.1-.8.3c-.2.2-.3.5-.3.9v2.1h-.3s-.05-2.14 0-2.1c0-.4-.1-.7-.3-.9c-.2-.2-.5-.3-.8-.3c-.3 0-.6.1-.8.3c-.2.3-.3.6-.3.9c-.03.04 0 2.1 0 2.1h-.4z" stroke="none" fill="#000"/></g></svg>