<?xml version="1.0" standalone="no"?><!DOCTYPE svg PUBLIC "-//W3C//DTD SVG 1.1//EN" "http://www.w3.org/Graphics/SVG/1.1/DTD/svg11.dtd"><svg xmlns="http://www.w3.org/2000/svg" version="1.1" width="247px" height="113.4px" viewBox="0 -3 247 113.4" style="top:-3px"><desc>602 Aquilone — Kule Tipi ama r Kurutmal Renk: Kiraz a ac (Ciliegio) zellikler: 32 m ama r asma teli (kule fo...</desc><defs/><g id="Polygon367632"><path d="m3.3 100.2v-.6h.7v.6h-.7zm-1.3 0v-.6h.6v.6h-.6zm3.5 2.9c0 .7-.3 1.3-.7 1.8c-.5.5-1.1.8-1.8.8c-.8 0-1.4-.3-1.8-.8c-.5-.4-.7-1-.7-1.7v-.1c0-.6.2-1.2.7-1.7c.5-.5 1.1-.8 1.8-.8c.7 0 1.3.3 1.8.8c.4.4.7 1 .7 1.7c-.03.04 0 0 0 0c0 0-.03.05 0 0zm-4.4 0c0 .6.1 1.1.5 1.5c.4.4.8.6 1.4.6c.5 0 1-.2 1.4-.6c.3-.4.5-.9.5-1.4v-.1c0-.5-.2-1-.5-1.4c-.4-.4-.9-.6-1.4-.6c-.6 0-1 .2-1.4.6c-.4.4-.5.9-.5 1.4c-.05.04 0 0 0 0c0 0-.05.05 0 0zm5.5 2.5v-5.1h.5v5.1h-.5zm3.1 1.1l-.6-.3s.59-.75.6-.8c-.5 0-.8-.2-1.1-.6c-.3-.3-.4-.7-.4-1.2c0-.5.1-1 .5-1.3c.4-.4.8-.6 1.3-.6c.6 0 1.1.2 1.5.6l-.4.4c-.3-.3-.7-.5-1.1-.5c-.4 0-.7.1-.9.4c-.3.3-.4.6-.4 1c0 .4.1.7.4 1c.3.3.6.4 1 .4c.4 0 .7-.2 1.1-.5l.3.3c-.4.4-.8.7-1.4.7c.03-.02-.4 1-.4 1zm4.5-5.3v-.6h.6v.6h-.6zm-1.2 0v-.6h.6v.6h-.6zm1.9 3.6c-.3.4-.7.7-1.2.7c-.4 0-.8-.2-1-.4c-.3-.3-.4-.6-.4-1.1c.01.03 0-2.2 0-2.2h.5s.04 2.09 0 2.1c0 .3.1.6.3.8c.2.2.4.3.7.3c.4 0 .6-.1.8-.3c.2-.2.3-.5.3-.8c.03-.05 0-2.1 0-2.1h.6v3.6h-.6v-.6s.03-.03 0 0zm1.8.6v-5.1h.6v5.1h-.6zm4.9-.6c-.4.5-.9.7-1.5.7c-.5 0-.9-.2-1.3-.5c-.3-.4-.5-.8-.5-1.4c0-.5.2-1 .5-1.4c.3-.3.7-.5 1.2-.5c.5 0 1 .2 1.3.5c.3.4.4.9.4 1.4v.2h-2.9c.1.4.2.7.5.9c.2.2.5.3.8.3c.4 0 .8-.2 1.2-.5c-.05 0 .3.3.3.3c0 0-.01 0 0 0zm-2.8-1.4h2.4c-.1-.4-.2-.7-.4-.9c-.2-.2-.4-.3-.8-.3c-.3 0-.6.1-.8.3c-.2.2-.3.5-.4.9zm3.9 2V102h.5v.9c.1-.3.3-.5.6-.7c.2-.2.5-.3.9-.3c-.03.02 0 .6 0 .6h-.1c-.4 0-.7.1-1 .4c-.3.3-.4.7-.4 1.3v1.4h-.5zm5.3-2c0 1.1.6 1.9 1.6 2.6l-.2.4c-1.3-.7-1.9-1.7-1.9-3c0-1.3.6-2.3 1.9-3l.2.4c-1 .6-1.6 1.5-1.6 2.6c.01-.01 0 0 0 0c0 0 .01 0 0 0zm5 1.5c-.3.4-.7.6-1.3.6c-.4 0-.7-.1-.9-.3c-.3-.2-.4-.5-.4-.9c0-.3.1-.6.4-.8c.3-.2.6-.3 1.1-.3c.4 0 .7 0 1.1.1v-.1c0-.3-.1-.6-.3-.7c-.1-.2-.4-.3-.8-.3c-.3 0-.7.1-1.1.3l-.1-.5c.4-.2.8-.3 1.3-.3c.5 0 .9.2 1.2.4c.2.3.3.6.3 1.1c.04-.01 0 2.2 0 2.2h-.5v-.5s.02-.05 0 0zm-1.2.1c.4 0 .6 0 .9-.2c.2-.2.3-.4.3-.7v-.4c-.3-.1-.7-.1-1-.1c-.4 0-.6 0-.8.2c-.2.1-.3.3-.3.5c0 .2.1.4.3.6c.1.1.4.1.6.1zm4.2 1.5l-.6-.3s.58-.75.6-.8c-.5 0-.8-.2-1.1-.6c-.3-.3-.4-.7-.4-1.2c0-.5.1-1 .5-1.3c.3-.4.8-.6 1.3-.6c.6 0 1.1.2 1.5.6l-.4.4c-.3-.3-.7-.5-1.1-.5c-.4 0-.7.1-.9.4c-.3.3-.4.6-.4 1c0 .4.1.7.4 1c.2.3.6.4.9.4c.4 0 .8-.2 1.1-.5l.4.3c-.4.4-.8.7-1.4.7c.02-.02-.4 1-.4 1zm2.7-1.1V102h.6v3.6h-.6zm1.8 0v-5.1h.6v3.5l1.9-2h.7l-1.5 1.5l1.5 2.1h-.6l-1.3-1.7l-.7.8v.9h-.6zm6-2c0 1.3-.7 2.3-2 3l-.2-.4c1.1-.7 1.6-1.5 1.6-2.6c0-1.1-.5-2-1.6-2.6l.2-.4c1.3.7 2 1.7 2 3c-.03-.01 0 0 0 0c0 0-.03 0 0 0zm1-.9v-.7h.7v.7h-.7zm0 2.9v-.7h.7v.7h-.7zm4.6 0v-4.4l-1 .3l-.1-.4l1.2-.4h.4v4.9h-.5zm3.4.1c-.8 0-1.4-.3-1.8-.9l.4-.3c.4.4.8.7 1.4.7c.3 0 .6-.1.8-.3c.2-.2.3-.4.3-.7c0-.3-.1-.5-.4-.7c-.2-.1-.6-.2-1-.2c.01-.03-.3 0-.3 0l-.1-.4l1.5-1.7h-2.4v-.5h3.2v.4s-1.58 1.71-1.6 1.7c.5.1.9.2 1.2.4c.3.2.4.6.4 1c0 .4-.1.8-.4 1.1c-.3.2-.7.4-1.2.4zm2.5-.1v-.4s1.73-1.6 1.7-1.6c.4-.3.7-.6.8-.8c.2-.3.3-.5.3-.7c0-.3-.1-.5-.3-.7c-.2-.2-.5-.3-.7-.3c-.3 0-.5.1-.7.2l-.7.7l-.4-.3c.3-.4.5-.7.8-.8c.3-.2.6-.3 1-.3c.4 0 .8.2 1.1.4c.3.3.4.6.4 1c0 .4-.1.7-.2.9c-.2.3-.6.6-1 1c-.01.03-1.3 1.2-1.3 1.2h2.6v.5H58zm9.3-.9l-1.2-1.2l-1.2 1.2l-.4-.3l1.3-1.3l-1.3-1.2l.4-.3l1.2 1.2l1.2-1.2l.4.3l-1.3 1.2l1.3 1.2l-.4.4zm5.4 1c-.5 0-.9-.2-1.3-.5c-.2-.2-.3-.5-.4-.8c-.1-.3-.2-.6-.2-1.1c0-.8.2-1.4.6-1.9c.3-.5.8-.8 1.4-.8c.6 0 1 .2 1.5.6l-.3.4c-.4-.3-.8-.5-1.2-.5c-.4 0-.8.2-1 .6c-.3.4-.4.9-.4 1.5v.1c.3-.5.8-.8 1.4-.8c.4 0 .8.2 1.2.5c.3.2.5.6.5 1v.1c0 .4-.2.8-.5 1.1c-.4.3-.8.5-1.3.5zm0-.5c.4 0 .7-.1.9-.3c.2-.2.3-.5.3-.8c0-.3-.1-.6-.3-.8c-.3-.2-.5-.3-.9-.3c-.3 0-.6.1-.9.3c-.2.3-.3.5-.3.8c0 .3.1.6.3.8c.3.2.6.3.9.3zm6.3-.9c0 .4-.2.7-.6 1c-.3.2-.8.4-1.3.4c-.5 0-.9-.2-1.3-.4c-.3-.3-.5-.6-.5-1c0-.3.1-.6.2-.8c.2-.2.5-.3.8-.4c-.6-.3-.9-.7-.9-1.2c0-.3.2-.7.5-.9c.4-.2.8-.4 1.2-.4c.5 0 .9.2 1.2.4c.3.2.5.6.5.9c0 .5-.3.9-.8 1.2c.3.1.5.2.7.4c.2.2.3.5.3.8c-.04-.04 0 0 0 0c0 0-.04-.02 0 0zm-3-2.3c0 .2.1.4.3.6c.2.2.5.3.8.3c.3 0 .6-.1.8-.3c.2-.2.3-.4.3-.6c0-.3-.1-.5-.3-.6c-.2-.2-.5-.3-.8-.3c-.3 0-.6.1-.8.3c-.2.1-.3.3-.3.6c0-.04 0 0 0 0c0 0 0-.03 0 0zm-.2 2.3c0 .2.2.4.4.6c.2.2.5.3.9.3c.4 0 .7-.1 1-.3c.2-.2.3-.4.3-.6c0-.3-.1-.5-.4-.7c-.2-.2-.5-.3-.9-.3c-.3 0-.6.1-.9.3c-.2.2-.4.4-.4.7c.04-.04 0 0 0 0c0 0 .04-.03 0 0zm9 .4l-1.2-1.2l-1.2 1.2l-.4-.3l1.3-1.3l-1.3-1.2l.4-.3l1.2 1.2l1.2-1.2l.4.3l-1.3 1.2l1.3 1.2l-.4.4zm4.4.9v-4.4l-1 .3l-.1-.4l1.2-.4h.4v4.9h-.5zm3.4.1c-.8 0-1.4-.3-1.8-.9l.4-.3c.3.4.8.7 1.4.7c.3 0 .5-.1.8-.3c.2-.2.3-.4.3-.7c0-.3-.2-.5-.4-.7c-.3-.1-.6-.2-1-.2c-.01-.03-.3 0-.3 0l-.1-.4l1.5-1.7H91v-.5h3.1v.4l-1.5 1.7c.5.1.9.2 1.2.4c.3.2.4.6.4 1c0 .4-.1.8-.5 1.1c-.3.2-.7.4-1.1.4zm2.9-.1l2.2-4.4H95v-.5h3.3v.4l-2.2 4.5h-.6zm9-.6c-.4.5-.9.7-1.5.7c-.5 0-.9-.2-1.3-.6c-.3-.3-.5-.8-.5-1.3c0-.5.2-1 .5-1.3c.4-.4.8-.6 1.3-.6c.6 0 1.1.2 1.5.6l-.4.4c-.3-.3-.7-.5-1.1-.5c-.3 0-.7.1-.9.4c-.2.3-.4.6-.4 1c0 .4.2.7.4 1c.3.3.6.4 1 .4c.4 0 .7-.2 1.1-.5l.3.3s.01-.02 0 0zm.9.6V102h.5s.04.59 0 .6c.2-.2.3-.4.5-.5c.2-.1.4-.2.7-.2c.6 0 .9.2 1.2.7c.3-.5.7-.7 1.2-.7c.5 0 .8.1 1 .4c.3.3.4.6.4 1.1c-.01-.04 0 2.2 0 2.2h-.6s.05-2.11 0-2.1c0-.4 0-.6-.2-.8c-.2-.2-.4-.3-.7-.3c-.3 0-.5.1-.7.3c-.2.2-.3.5-.3.8v2.1h-.5s-.02-2.13 0-2.1c0-.4-.1-.6-.3-.8c-.1-.2-.4-.3-.7-.3c-.2 0-.5.1-.7.3c-.2.2-.3.5-.3.8c.04.03 0 2.1 0 2.1h-.5zm9.2-2c0 1.1.5 1.9 1.6 2.6l-.3.4c-1.2-.7-1.9-1.7-1.9-3c0-1.3.7-2.3 1.9-3l.3.4c-1.1.6-1.6 1.5-1.6 2.6c-.05-.01 0 0 0 0c0 0-.05 0 0 0zm6.7 1.3c-.6.5-1.2.8-2 .8c-.7 0-1.3-.3-1.8-.7c-.4-.5-.7-1.1-.7-1.8v-.1c0-.6.3-1.2.7-1.7c.5-.5 1.1-.8 1.8-.8c.4 0 .7.1 1 .2c.3.1.6.2.8.5l-.3.4c-.5-.4-1-.6-1.5-.6c-.6 0-1 .2-1.4.6c-.3.4-.5.9-.5 1.4c0 .6.2 1.1.5 1.5c.4.4.9.6 1.4.6c.6 0 1.1-.2 1.5-.5c-.04 0 0-1.2 0-1.2h-1.5v-.5h2v1.9s-.01.03 0 0zm6-.2l-1.2-1.2l-1.2 1.2l-.3-.3l1.2-1.3l-1.2-1.2l.3-.3l1.2 1.2l1.3-1.2l.3.3l-1.2 1.2l1.2 1.2l-.4.4zm3.8.9v-4.9h1.7c.8 0 1.4.2 1.9.7c.5.5.7 1 .7 1.7c0 .7-.2 1.3-.7 1.8c-.5.5-1.1.7-1.9.7h-1.7zm1.7-4.4c.02.01-1.1 0-1.1 0v3.9s1.12-.01 1.1 0c.6 0 1.1-.2 1.5-.6c.4-.3.5-.8.5-1.3v-.1c0-.5-.1-1-.5-1.3c-.4-.4-.9-.6-1.5-.6zm8.6 3.5l-1.2-1.2l-1.2 1.2l-.4-.3l1.2-1.3l-1.2-1.2l.4-.3l1.2 1.2l1.2-1.2l.4.3l-1.3 1.2l1.3 1.2l-.4.4zm5.3.9v-1.9l-2-3h.6l1.7 2.4l1.6-2.4h.7l-2 3v1.9h-.6zm5.3-2c0 1.3-.6 2.3-1.9 3l-.2-.4c1.1-.7 1.6-1.5 1.6-2.6c0-1.1-.5-2-1.6-2.6l.2-.4c1.3.7 1.9 1.7 1.9 3c.04-.01 0 0 0 0c0 0 .04 0 0 0z" stroke="none" fill="#000"/></g><g id="Polygon367631"><path d="m.7 85.6v-4.9h1.7c.8 0 1.4.2 1.9.7c.5.5.7 1 .7 1.7c0 .7-.2 1.3-.7 1.8c-.5.5-1.1.7-1.9.7H.7zm1.7-4.4H1.2v3.9h1.2c.6 0 1.1-.2 1.5-.6c.3-.3.5-.8.5-1.3v-.1c0-.5-.2-1-.5-1.3c-.4-.4-.9-.6-1.5-.6zM9.1 85c-.3.5-.8.7-1.4.7c-.5 0-1-.2-1.3-.5c-.4-.4-.5-.8-.5-1.4c0-.5.1-1 .4-1.4c.4-.3.8-.5 1.3-.5c.5 0 .9.2 1.2.5c.3.4.5.9.5 1.4v.2H6.4c0 .4.2.7.4.9c.3.2.5.3.9.3c.4 0 .8-.2 1.1-.5l.3.3s.05 0 0 0zm-2.7-1.4h2.3c0-.4-.1-.7-.3-.9c-.2-.2-.5-.3-.8-.3c-.3 0-.6.1-.8.3c-.2.2-.4.5-.4.9zm3.8 3.1V82h.6s-.04.71 0 .7c.3-.5.8-.8 1.3-.8c.5 0 .9.2 1.3.5c.3.4.5.8.5 1.4c0 .6-.2 1-.5 1.4c-.4.3-.8.5-1.3.5c-.5 0-1-.3-1.3-.8c-.04.01 0 1.8 0 1.8h-.6zm1.8-1.5c.4 0 .7-.1 1-.4c.2-.2.3-.6.3-1c0-.4-.1-.8-.3-1c-.3-.3-.6-.4-1-.4c-.3 0-.6.1-.9.4c-.2.3-.4.6-.4 1c0 .4.2.7.4 1c.3.3.6.4.9.4zm4.5.5c-.5 0-1-.2-1.3-.6c-.4-.3-.6-.8-.6-1.3c0-.5.2-1 .6-1.3c.3-.4.8-.6 1.3-.6c.6 0 1 .2 1.4.6c.3.3.5.8.5 1.3c0 .5-.2 1-.5 1.3c-.4.4-.8.6-1.4.6zm0-.5c.4 0 .7-.1 1-.4c.2-.3.4-.6.4-1c0-.4-.2-.7-.4-1c-.3-.3-.6-.4-1-.4c-.4 0-.7.1-.9.4c-.3.3-.4.6-.4 1c0 .4.1.7.4 1c.2.3.6.4.9.4zm2.9.4v-5.1h.6v5.1h-.6zm4.2-.5c-.3.4-.7.6-1.3.6c-.4 0-.7-.1-.9-.3c-.3-.2-.4-.5-.4-.9c0-.3.1-.6.4-.8c.3-.2.6-.3 1.1-.3c.4 0 .7 0 1.1.1v-.1c0-.3-.1-.6-.3-.7c-.1-.2-.4-.3-.8-.3c-.3 0-.7.1-1.1.3l-.1-.5c.4-.2.8-.3 1.3-.3c.5 0 .9.2 1.2.4c.2.3.3.6.3 1.1c.04-.01 0 2.2 0 2.2h-.5v-.5s.02-.05 0 0zm-1.2.1c.4 0 .6 0 .9-.2c.2-.2.3-.4.3-.7v-.4c-.3-.1-.7-.1-1-.1c-.4 0-.6 0-.8.2c-.2.1-.3.3-.3.5c0 .2.1.4.3.6c.1.1.4.1.6.1zm2.9.4V82h.5s.02.59 0 .6c.2-.2.3-.4.5-.5c.2-.1.4-.2.7-.2c.5 0 .9.2 1.2.7c.3-.5.7-.7 1.2-.7c.4 0 .8.1 1 .4c.3.3.4.6.4 1.1c-.03-.04 0 2.2 0 2.2h-.6s.03-2.11 0-2.1c0-.4-.1-.6-.2-.8c-.2-.2-.4-.3-.7-.3c-.3 0-.5.1-.7.3c-.2.2-.3.5-.3.8v2.1h-.5s-.04-2.13 0-2.1c0-.4-.1-.6-.3-.8c-.2-.2-.4-.3-.7-.3c-.3 0-.5.1-.7.3c-.2.2-.3.5-.3.8c.02.03 0 2.1 0 2.1h-.5zm9-.5c-.3.4-.7.6-1.3.6c-.4 0-.7-.1-1-.3c-.2-.2-.4-.5-.4-.9c0-.3.2-.6.5-.8c.3-.2.6-.3 1.1-.3c.4 0 .7 0 1.1.1v-.1c0-.3-.1-.6-.3-.7c-.2-.2-.4-.3-.8-.3c-.3 0-.7.1-1.1.3l-.1-.5c.4-.2.8-.3 1.3-.3c.5 0 .9.2 1.2.4c.2.3.3.6.3 1.1c.02-.01 0 2.2 0 2.2h-.5v-.5s.01-.05 0 0zm-1.2.1c.3 0 .6 0 .9-.2c.2-.2.3-.4.3-.7v-.4c-.4-.1-.7-.1-1.1-.1c-.3 0-.5 0-.7.2c-.2.1-.3.3-.3.5c0 .2.1.4.3.6c.1.1.4.1.6.1zm5-4v-.6h.6v.6h-.6zm0 4.4V82h.6v3.6h-.6zm3.1 1.1l-.5-.3s.51-.75.5-.8c-.4 0-.8-.2-1.1-.6c-.3-.3-.4-.7-.4-1.2c0-.5.2-1 .5-1.3c.4-.4.8-.6 1.3-.6c.6 0 1.1.2 1.5.6l-.4.4c-.3-.3-.7-.5-1.1-.5c-.3 0-.6.1-.9.4c-.2.3-.4.6-.4 1c0 .4.2.7.4 1c.3.3.6.4 1 .4c.4 0 .7-.2 1.1-.5l.3.3c-.4.4-.8.7-1.4.7c.05-.02-.4 1-.4 1zm2.7-5.5v-.6h.6v.6h-.6zm.1 4.4V82h.5v3.6h-.5zm1.8 0V82h.5v.6c.3-.5.7-.7 1.2-.7c.5 0 .8.1 1 .4c.3.3.4.6.4 1.1c.02-.05 0 2.2 0 2.2h-.5s-.02-2.11 0-2.1c0-.4-.1-.6-.3-.8c-.2-.2-.4-.3-.7-.3c-.3 0-.6.1-.8.3c-.2.2-.3.5-.3.8v2.1h-.5zm6.4 0v-5.1h.5v3.5l2-2h.6l-1.5 1.5l1.6 2.1h-.7l-1.3-1.7l-.7.8v.9h-.5zm6.3-.5c-.4.4-.8.6-1.3.6c-.4 0-.7-.1-1-.3c-.3-.2-.4-.5-.4-.9c0-.3.1-.6.4-.8c.3-.2.7-.3 1.2-.3c.3 0 .7 0 1.1.1v-.1c0-.3-.1-.6-.3-.7c-.2-.2-.5-.3-.8-.3c-.4 0-.7.1-1.1.3l-.2-.5c.4-.2.9-.3 1.3-.3c.6 0 .9.2 1.2.4c.3.3.4.6.4 1.1c-.02-.01 0 2.2 0 2.2h-.5v-.5s-.04-.05 0 0zm-1.2.1c.3 0 .6 0 .8-.2c.3-.2.4-.4.4-.7v-.4c-.4-.1-.7-.1-1.1-.1c-.3 0-.6 0-.8.2c-.2.1-.3.3-.3.5c0 .2.1.4.3.6c.2.1.4.1.7.1zm4.7.3c-.2.1-.4.2-.7.2c-.3 0-.6-.1-.7-.3c-.2-.2-.3-.4-.3-.8c-.02.04 0-2.1 0-2.1h-.5v-.5h.5v-1.1h.5v1.1h1.2v.5h-1.2s.02 2.07 0 2.1c0 .4.2.6.6.6c.2 0 .4-.1.6-.2c-.04.05 0 .5 0 .5c0 0-.04.01 0 0zm1 .1v-5.1h.5v5.1h-.5zm4.2-.5c-.4.4-.8.6-1.4.6c-.3 0-.6-.1-.9-.3c-.3-.2-.4-.5-.4-.9c0-.3.1-.6.4-.8c.3-.2.7-.3 1.1-.3c.4 0 .8 0 1.2.1v-.1c0-.3-.1-.6-.3-.7c-.2-.2-.5-.3-.8-.3c-.4 0-.8.1-1.1.3l-.2-.5c.4-.2.9-.3 1.3-.3c.5 0 .9.2 1.2.4c.2.3.4.6.4 1.1c-.03-.01 0 2.2 0 2.2h-.5v-.5s-.05-.05 0 0zm-1.3.1c.4 0 .7 0 .9-.2c.2-.2.4-.4.4-.7v-.4c-.4-.1-.8-.1-1.1-.1c-.3 0-.6 0-.8.2c-.2.1-.3.3-.3.5c0 .2.1.4.3.6c.2.1.4.1.6.1zm2.9.4V82h.6s-.04.61 0 .6c.2-.5.7-.7 1.2-.7c.4 0 .8.1 1 .4c.3.3.4.6.4 1.1c-.02-.05 0 2.2 0 2.2h-.6s.04-2.11 0-2.1c0-.4 0-.6-.2-.8c-.2-.2-.4-.3-.8-.3c-.3 0-.5.1-.7.3c-.2.2-.3.5-.3.8c-.04.03 0 2.1 0 2.1h-.6zm4.4 0V82h.5v3.6h-.5zm1.8 0V82h.5s.01.93 0 .9c.1-.3.3-.5.6-.7c.3-.2.6-.3.9-.3c-.02.02 0 .6 0 .6h-.1c-.4 0-.7.1-1 .4c-.3.3-.4.7-.4 1.3v1.4h-.5zm7.9.7c-.3.3-.8.4-1.4.4c-.6 0-1.2-.1-1.6-.5l.2-.4c.4.3.9.5 1.4.5c.4 0 .7-.1 1-.4c.2-.2.3-.5.3-.9v-.4c-.4.5-.8.7-1.4.7c-.5 0-.9-.1-1.2-.5c-.3-.3-.5-.7-.5-1.2c0-.5.2-.9.5-1.2c.3-.3.7-.5 1.2-.5c.6 0 1 .2 1.4.7v-.6h.5s.05 2.97 0 3c0 .5-.1.9-.4 1.3zm-1.4-1.5c.4 0 .7-.1.9-.3c.3-.2.4-.5.4-.9c0-.4-.1-.6-.4-.9c-.2-.2-.5-.3-.9-.3c-.4 0-.7.1-.9.3c-.2.2-.4.5-.4.9c0 .4.2.7.4.9c.3.2.6.3.9.3zm5-3.4v-.6h.6v.6h-.6zm-1.2 0v-.6h.6v.6h-.6zm.9 4.3c-.5 0-1-.2-1.3-.6c-.4-.3-.6-.8-.6-1.3c0-.5.2-1 .6-1.3c.3-.4.8-.6 1.3-.6c.6 0 1 .2 1.4.6c.3.3.5.8.5 1.3c0 .5-.2 1-.5 1.3c-.4.4-.9.6-1.4.6zm0-.5c.4 0 .7-.1 1-.4c.2-.3.3-.6.3-1c0-.4-.1-.7-.3-1c-.3-.3-.6-.4-1-.4c-.4 0-.7.1-.9.4c-.3.3-.4.6-.4 1c0 .4.1.7.4 1c.2.3.5.4.9.4zm3.9.4L88.5 82h.6l1.2 3l1.2-3h.6l-1.5 3.6h-.5zm5.6-.7c-.4.5-.8.8-1.4.8c-.4 0-.8-.2-1.2-.5c-.3-.4-.5-.8-.5-1.4c0-.6.2-1 .5-1.4c.4-.3.8-.5 1.2-.5c.6 0 1.1.3 1.4.8v-2.2h.5v5.1h-.5v-.7s0-.03 0 0zm-1.3.3c.4 0 .7-.1.9-.4c.3-.3.4-.6.4-1c0-.4-.1-.8-.4-1c-.2-.3-.5-.4-.9-.4c-.3 0-.7.1-.9.4c-.2.2-.4.6-.4 1c0 .4.2.8.4 1c.3.3.6.4.9.4zm6.1-.2c-.4.5-.9.7-1.5.7c-.5 0-.9-.2-1.3-.5c-.3-.4-.5-.8-.5-1.4c0-.5.2-1 .5-1.4c.3-.3.8-.5 1.3-.5c.5 0 .9.2 1.2.5c.3.4.4.9.4 1.4v.2h-2.8c0 .4.1.7.4.9c.2.2.5.3.8.3c.5 0 .9-.2 1.2-.5c-.02 0 .3.3.3.3c0 0 .02 0 0 0zm-2.7-1.4h2.3c0-.4-.1-.7-.3-.9c-.2-.2-.5-.3-.9-.3c-.3 0-.5.1-.8.3c-.2.2-.3.5-.3.9z" stroke="none" fill="#000"/></g><g id="Polygon367630"><path d="m.7 75.6v-4.9h3.5v.5h-3v1.8h2.7v.5H1.2v2.1h-.5zm4.5 0V72h.5s.03.93 0 .9c.2-.3.4-.5.6-.7c.3-.2.6-.3.9-.3v.6s-.03 0 0 0c-.4 0-.8.1-1.1.4c-.2.3-.4.7-.4 1.3c.03-.04 0 1.4 0 1.4h-.5zm5.7-.6c-.3.5-.8.7-1.4.7c-.5 0-1-.2-1.3-.5c-.4-.4-.5-.8-.5-1.4c0-.5.1-1 .4-1.4c.4-.3.8-.5 1.3-.5c.5 0 .9.2 1.2.5c.3.4.5.9.5 1.4v.2H8.2c0 .4.2.7.4.9c.3.2.5.3.9.3c.4 0 .8-.2 1.1-.5l.3.3s.05 0 0 0zm-2.7-1.4h2.3c0-.4-.1-.7-.3-.9c-.2-.2-.5-.3-.8-.3c-.3 0-.6.1-.8.3c-.2.2-.4.5-.4.9zm3.8 2V72h.6s-.04.61 0 .6c.3-.5.7-.7 1.2-.7c.4 0 .8.1 1 .4c.3.3.4.6.4 1.1c-.02-.05 0 2.2 0 2.2h-.6s.04-2.11 0-2.1c0-.4 0-.6-.2-.8c-.2-.2-.4-.3-.8-.3c-.3 0-.5.1-.7.3c-.2.2-.3.5-.3.8c-.04.03 0 2.1 0 2.1h-.6zm4.4 0v-5.1h.5v5.1h-.5zm1.8-4.4v-.6h.6v.6h-.6zm0 4.4V72h.6v3.6h-.6zm5.8-.1c-.2.1-.4.2-.7.2c-.3 0-.5-.1-.7-.3c-.2-.2-.3-.4-.3-.8v-2.1h-.5v-.5h.5v-1.1h.5v1.1h1.2v.5h-1.2s.04 2.07 0 2.1c0 .4.2.6.6.6c.2 0 .4-.1.6-.2c-.03.05 0 .5 0 .5c0 0-.03.01 0 0zm3.9-.5c-.4.5-.9.7-1.5.7c-.5 0-.9-.2-1.3-.5c-.3-.4-.5-.8-.5-1.4c0-.5.2-1 .5-1.4c.3-.3.7-.5 1.2-.5c.6 0 1 .2 1.3.5c.3.4.4.9.4 1.4v.2h-2.8c0 .4.1.7.4.9c.2.2.5.3.8.3c.5 0 .8-.2 1.2-.5c-.03 0 .3.3.3.3c0 0 .01 0 0 0zm-2.7-1.4h2.3c0-.4-.2-.7-.4-.9c-.1-.2-.4-.3-.8-.3c-.3 0-.5.1-.8.3c-.2.2-.3.5-.3.9zm3.8 2v-5.1h.5v3.5l2-2h.6l-1.5 1.5l1.6 2.1h-.7l-1.2-1.7l-.8.8v.9h-.5zm6.9-.6c-.4.5-.9.7-1.5.7c-.5 0-1-.2-1.3-.5c-.4-.4-.5-.8-.5-1.4c0-.5.1-1 .5-1.4c.3-.3.7-.5 1.2-.5c.5 0 .9.2 1.2.5c.3.4.5.9.5 1.4v.2h-2.9c0 .4.2.7.4.9c.3.2.6.3.9.3c.4 0 .8-.2 1.1-.5c.02 0 .4.3.4.3c0 0-.04 0 0 0zm-2.8-1.4h2.3c0-.4-.1-.7-.3-.9c-.2-.2-.5-.3-.8-.3c-.3 0-.6.1-.8.3c-.2.2-.4.5-.4.9zm3.8 2V72h.6s-.03.93 0 .9c.1-.3.3-.5.6-.7c.2-.2.5-.3.8-.3c.05.02 0 .6 0 .6c0 0 .01 0 0 0c-.4 0-.8.1-1 .4c-.3.3-.4.7-.4 1.3c-.03-.04 0 1.4 0 1.4h-.6zm2.9 0v-5.1h.6v5.1h-.6zm4.9-.6c-.4.5-.9.7-1.5.7c-.5 0-.9-.2-1.3-.5c-.3-.4-.5-.8-.5-1.4c0-.5.1-1 .5-1.4c.3-.3.7-.5 1.2-.5c.5 0 .9.2 1.3.5c.3.4.4.9.4 1.4v.2h-2.9c.1.4.2.7.4.9c.3.2.6.3.9.3c.4 0 .8-.2 1.1-.5c.04 0 .4.3.4.3c0 0-.02 0 0 0zm-2.8-1.4h2.4c-.1-.4-.2-.7-.4-.9c-.2-.2-.4-.3-.8-.3c-.3 0-.6.1-.8.3c-.2.2-.3.5-.4.9zm3.9 2v-5.1h.5v3.5l1.9-2h.7l-1.5 1.5l1.6 2.1h-.7L47 73.9l-.7.8v.9h-.5zm4 0v-5.1h.5v5.1h-.5zm4.8-.6c-.3.5-.8.7-1.4.7c-.5 0-1-.2-1.3-.5c-.4-.4-.5-.8-.5-1.4c0-.5.1-1 .4-1.4c.4-.3.8-.5 1.3-.5c.5 0 .9.2 1.2.5c.3.4.5.9.5 1.4v.2h-2.9c0 .4.2.7.4.9c.3.2.5.3.9.3c.4 0 .8-.2 1.1-.5l.3.3s.05 0 0 0zm-2.7-1.4h2.3c0-.4-.1-.7-.3-.9c-.2-.2-.5-.3-.8-.3c-.3 0-.6.1-.8.3c-.2.2-.4.5-.4.9zm3.8 2V72h.6s-.04.93 0 .9c.1-.3.3-.5.6-.7c.2-.2.5-.3.8-.3c.04.02 0 .6 0 .6c0 0-.01 0 0 0c-.4 0-.8.1-1 .4c-.3.3-.4.7-.4 1.3c-.04-.04 0 1.4 0 1.4h-.6z" stroke="none" fill="#000"/></g><g id="Polygon367629"><path d="m2.2 65.7c-.8 0-1.4-.3-1.8-.9l.3-.3c.4.4.9.7 1.5.7c.3 0 .5-.1.7-.3c.3-.2.4-.4.4-.7c0-.3-.2-.5-.4-.7c-.3-.1-.6-.2-1-.2c-.02-.03-.3 0-.3 0l-.1-.4L3 61.2H.6v-.5h3.1v.4l-1.5 1.7c.5.1.9.2 1.2.4c.3.2.4.6.4 1c0 .4-.1.8-.5 1.1c-.3.2-.7.4-1.1.4zm2.4-.1v-.4l1.8-1.6c.4-.3.7-.6.8-.8c.2-.3.2-.5.2-.7c0-.3-.1-.5-.3-.7c-.2-.2-.4-.3-.7-.3c-.2 0-.5.1-.7.2c-.2.2-.4.4-.6.7l-.4-.3c.3-.4.5-.7.8-.8c.2-.2.6-.3 1-.3c.4 0 .8.2 1.1.4c.3.3.4.6.4 1c0 .4-.1.7-.3.9c-.2.3-.5.6-.9 1l-1.3 1.2h2.5v.5H4.6zm6.6 0V62h.5s.02.59 0 .6c.2-.2.3-.4.5-.5c.2-.1.4-.2.7-.2c.5 0 .9.2 1.2.7c.3-.5.7-.7 1.2-.7c.4 0 .8.1 1 .4c.3.3.4.6.4 1.1c-.03-.04 0 2.2 0 2.2h-.6s.03-2.11 0-2.1c0-.4 0-.6-.2-.8c-.2-.2-.4-.3-.7-.3c-.3 0-.5.1-.7.3c-.2.2-.3.5-.3.8v2.1h-.5s-.04-2.13 0-2.1c0-.4-.1-.6-.3-.8c-.2-.2-.4-.3-.7-.3c-.3 0-.5.1-.7.3c-.2.2-.3.5-.3.8c.02.03 0 2.1 0 2.1h-.5zm10 1.1l-.5-.3s.52-.75.5-.8c-.4 0-.8-.2-1.1-.6c-.3-.3-.4-.7-.4-1.2c0-.5.2-1 .5-1.3c.4-.4.8-.6 1.4-.6c.5 0 1 .2 1.4.6l-.4.4c-.3-.3-.7-.5-1.1-.5c-.3 0-.6.1-.9.4c-.2.3-.3.6-.3 1c0 .4.1.7.3 1c.3.3.6.4 1 .4c.4 0 .8-.2 1.1-.5l.3.3c-.4.4-.8.7-1.3.7c-.04-.02-.5 1-.5 1zm5.1-1.6c-.3.4-.7.6-1.3.6c-.4 0-.7-.1-1-.3c-.2-.2-.4-.5-.4-.9c0-.3.2-.6.5-.8c.3-.2.6-.3 1.1-.3c.4 0 .7 0 1.1.1v-.1c0-.3-.1-.6-.3-.7c-.2-.2-.4-.3-.8-.3c-.3 0-.7.1-1.1.3l-.1-.5c.4-.2.8-.3 1.3-.3c.5 0 .9.2 1.2.4c.2.3.3.6.3 1.1c.02-.01 0 2.2 0 2.2h-.5v-.5s.01-.05 0 0zm-1.2.1c.3 0 .6 0 .9-.2c.2-.2.3-.4.3-.7v-.4c-.4-.1-.7-.1-1.1-.1c-.3 0-.5 0-.7.2c-.2.1-.3.3-.3.5c0 .2.1.4.3.6c.1.1.3.1.6.1zm2.9.4V62h.5v.6c.2-.2.3-.4.5-.5c.2-.1.4-.2.7-.2c.5 0 .9.2 1.1.7c.4-.5.8-.7 1.3-.7c.4 0 .8.1 1 .4c.2.3.4.6.4 1.1c-.04-.04 0 2.2 0 2.2h-.6s.02-2.11 0-2.1c0-.4-.1-.6-.2-.8c-.2-.2-.4-.3-.7-.3c-.3 0-.5.1-.7.3c-.2.2-.3.5-.3.8c-.02.01 0 2.1 0 2.1h-.6s.05-2.13 0-2.1c0-.4 0-.6-.2-.8c-.2-.2-.4-.3-.7-.3c-.3 0-.5.1-.7.3c-.2.2-.3.5-.3.8v2.1h-.5zm9-.5c-.3.4-.8.6-1.3.6c-.4 0-.7-.1-1-.3c-.2-.2-.4-.5-.4-.9c0-.3.2-.6.5-.8c.2-.2.6-.3 1.1-.3c.4 0 .7 0 1.1.1v-.1c0-.3-.1-.6-.3-.7c-.2-.2-.4-.3-.8-.3c-.3 0-.7.1-1.1.3l-.1-.5c.4-.2.8-.3 1.3-.3c.5 0 .9.2 1.1.4c.3.3.4.6.4 1.1c.01-.01 0 2.2 0 2.2h-.5v-.5s-.01-.05 0 0zm-1.2.1c.3 0 .6 0 .9-.2c.2-.2.3-.4.3-.7v-.4c-.4-.1-.7-.1-1.1-.1c-.3 0-.6 0-.7.2c-.2.1-.3.3-.3.5c0 .2.1.4.2.6c.2.1.4.1.7.1zm3.7 1.5l-.5-.3s.55-.75.5-.8c-.4 0-.8-.2-1.1-.5l.2-.3c.4.3.9.4 1.3.4c.2 0 .4 0 .5-.1c.2-.1.2-.3.2-.5c0-.1 0-.3-.2-.4c-.2 0-.4-.1-.7-.2c-.1 0-.2-.1-.3-.1c0 0-.1-.1-.2-.1c-.1 0-.2-.1-.3-.1c0-.1-.1-.1-.2-.2c0-.1-.1-.1-.1-.2c-.1-.1-.1-.2-.1-.3c0-.4.2-.6.4-.8c.2-.2.5-.3.9-.3c.4 0 .9.2 1.3.4l-.3.4c-.3-.2-.7-.3-1-.3c-.3 0-.4 0-.6.1c-.1.1-.1.2-.1.4v.2l.1.1c.1.1.2.1.3.2h.2c.1.1.2.1.3.1c.1.1.2.1.3.1c.1.1.2.1.3.2c.1 0 .2.1.3.2c.1 0 .1.1.2.2v.4c0 .3-.1.5-.3.7c-.2.2-.5.3-.8.4c0-.04-.5 1-.5 1zm2.7-1.1V62h.5v3.6h-.5zm1.8 0V62h.5s.03.93 0 .9c.2-.3.4-.5.6-.7c.3-.2.6-.3.9-.3v.6s-.04 0 0 0c-.5 0-.8.1-1.1.4c-.2.3-.4.7-.4 1.3c.03-.04 0 1.4 0 1.4h-.5zm7.3-.5c-.3.4-.7.6-1.3.6c-.4 0-.7-.1-.9-.3c-.3-.2-.5-.5-.5-.9c0-.3.2-.6.5-.8c.3-.2.6-.3 1.1-.3c.4 0 .7 0 1.1.1v-.1c0-.3-.1-.6-.3-.7c-.2-.2-.4-.3-.8-.3c-.3 0-.7.1-1.1.3l-.1-.5c.4-.2.8-.3 1.3-.3c.5 0 .9.2 1.2.4c.2.3.3.6.3 1.1c.03-.01 0 2.2 0 2.2h-.5v-.5s.01-.05 0 0zm-1.2.1c.3 0 .6 0 .9-.2c.2-.2.3-.4.3-.7v-.4c-.3-.1-.7-.1-1-.1c-.4 0-.6 0-.8.2c-.2.1-.3.3-.3.5c0 .2.1.4.3.6c.1.1.4.1.6.1zm4.1.5c-.6 0-1.1-.2-1.5-.6l.2-.3c.4.3.9.4 1.3.4c.2 0 .4 0 .5-.1c.2-.1.2-.3.2-.5c0-.1 0-.3-.2-.4c-.1 0-.4-.1-.7-.2c-.1 0-.2-.1-.2-.1c-.1 0-.2-.1-.3-.1c-.1 0-.2-.1-.3-.1c0-.1-.1-.1-.2-.2c0-.1-.1-.1-.1-.2c0-.1-.1-.2-.1-.3c0-.4.2-.6.4-.8c.2-.2.5-.3.9-.3c.4 0 .9.2 1.3.4l-.3.4c-.3-.2-.7-.3-1-.3c-.2 0-.4 0-.5.1c-.2.1-.2.2-.2.4v.2c.1 0 .1.1.1.1c.1.1.2.1.3.2h.2c.1.1.2.1.3.1c.1.1.2.1.3.1c.1.1.2.1.3.2c.2 0 .3.1.3.2c.1 0 .1.1.2.2c0 .1.1.2.1.4c0 .3-.2.6-.4.8c-.2.2-.6.3-.9.3zm2.3-.1V62h.5v.6c.1-.2.3-.4.5-.5c.2-.1.4-.2.7-.2c.5 0 .9.2 1.1.7c.4-.5.8-.7 1.3-.7c.4 0 .8.1 1 .4c.2.3.3.6.3 1.1c.05-.04 0 2.2 0 2.2h-.5v-2.1c0-.4-.1-.6-.2-.8c-.2-.2-.4-.3-.7-.3c-.3 0-.5.1-.7.3c-.2.2-.3.5-.3.8c-.03.01 0 2.1 0 2.1h-.6s.04-2.13 0-2.1c0-.4 0-.6-.2-.8c-.2-.2-.4-.3-.7-.3c-.3 0-.5.1-.7.3c-.2.2-.3.5-.3.8v2.1h-.5zm9-.5c-.3.4-.8.6-1.3.6c-.4 0-.7-.1-1-.3c-.2-.2-.4-.5-.4-.9c0-.3.2-.6.4-.8c.3-.2.7-.3 1.2-.3c.3 0 .7 0 1.1.1v-.1c0-.3-.1-.6-.3-.7c-.2-.2-.4-.3-.8-.3c-.4 0-.7.1-1.1.3l-.2-.5c.5-.2.9-.3 1.4-.3c.5 0 .9.2 1.1.4c.3.3.4.6.4 1.1v2.2h-.5v-.5s-.02-.05 0 0zm-1.2.1c.3 0 .6 0 .8-.2c.3-.2.4-.4.4-.7v-.4c-.4-.1-.7-.1-1.1-.1c-.3 0-.6 0-.8.2c-.1.1-.2.3-.2.5c0 .2.1.4.2.6c.2.1.4.1.7.1zm6.8.3c-.2.1-.4.2-.6.2c-.4 0-.6-.1-.8-.3c-.2-.2-.3-.4-.3-.8c.04.04 0-2.1 0-2.1h-.5v-.5h.5v-1.1h.6v1.1h1.1v.5H70s-.02 2.07 0 2.1c0 .4.2.6.6.6c.2 0 .3-.1.5-.2v.5s.01.01 0 0zM75 65c-.4.5-.8.7-1.4.7c-.5 0-1-.2-1.3-.5c-.4-.4-.6-.8-.6-1.4c0-.5.2-1 .5-1.4c.4-.3.8-.5 1.3-.5c.5 0 .9.2 1.2.5c.3.4.5.9.5 1.4v.2h-2.9c0 .4.2.7.4.9c.3.2.5.3.9.3c.4 0 .8-.2 1.1-.5l.3.3s.05 0 0 0zm-2.7-1.4h2.3c0-.4-.1-.7-.3-.9c-.2-.2-.5-.3-.8-.3c-.3 0-.6.1-.8.3c-.2.2-.4.5-.4.9zm3.9 2v-5.1h.5v5.1h-.5zm1.8-4.4v-.6h.6v.6h-.6zm0 4.4V62h.5v3.6h-.5zm4.3-2c0 1.1.6 1.9 1.6 2.6l-.2.4c-1.3-.7-1.9-1.7-1.9-3c0-1.3.6-2.3 1.9-3l.2.4c-1 .6-1.6 1.5-1.6 2.6c.02-.01 0 0 0 0c0 0 .02 0 0 0zm2.6 2v-5.1h.6v3.5l1.9-2h.7l-1.5 1.5l1.5 2.1h-.6l-1.3-1.7l-.7.8v.9h-.6zm6.5-.6c-.3.4-.7.7-1.2.7c-.4 0-.8-.2-1-.4c-.3-.3-.4-.6-.4-1.1c-.01.03 0-2.2 0-2.2h.5s.03 2.09 0 2.1c0 .3.1.6.3.8c.2.2.4.3.7.3c.3 0 .6-.1.8-.3c.2-.2.3-.5.3-.8c.02-.05 0-2.1 0-2.1h.6v3.6h-.6v-.6s.02-.03 0 0zm1.8.6v-5.1h.5v5.1h-.5zm4.9-.6c-.4.5-.9.7-1.5.7c-.5 0-.9-.2-1.3-.5c-.3-.4-.5-.8-.5-1.4c0-.5.1-1 .5-1.4c.3-.3.7-.5 1.2-.5c.5 0 .9.2 1.2.5c.3.4.5.9.5 1.4v.2h-2.9c.1.4.2.7.4.9c.3.2.6.3.9.3c.4 0 .8-.2 1.1-.5c.04 0 .4.3.4.3c0 0-.02 0 0 0zm-2.8-1.4h2.4c-.1-.4-.2-.7-.4-.9c-.2-.2-.5-.3-.8-.3c-.3 0-.6.1-.8.3c-.2.2-.3.5-.4.9zm6.1 2v-3.1h-.4v-.5h.4s.05-.33 0-.3c0-.4.2-.7.4-1c.2-.1.4-.2.7-.2c.3 0 .5 0 .6.1v.4c-.2 0-.4-.1-.5-.1c-.4 0-.6.3-.6.8c-.02 0 0 .3 0 .3h1.1v.5H102v3.1h-.6zm4 .1c-.5 0-1-.2-1.3-.6c-.4-.3-.6-.8-.6-1.3c0-.5.2-1 .6-1.3c.3-.4.8-.6 1.3-.6c.5 0 1 .2 1.4.6c.3.3.5.8.5 1.3c0 .5-.2 1-.5 1.3c-.4.4-.9.6-1.4.6zm0-.5c.4 0 .7-.1 1-.4c.2-.3.3-.6.3-1c0-.4-.1-.7-.3-1c-.3-.3-.6-.4-1-.4c-.4 0-.7.1-1 .4c-.2.3-.3.6-.3 1c0 .4.1.7.4 1c.2.3.5.4.9.4zm2.9.4V62h.5s.01.93 0 .9c.1-.3.3-.5.6-.7c.3-.2.6-.3.9-.3c-.02.02 0 .6 0 .6h-.1c-.4 0-.7.1-1 .4c-.3.3-.4.7-.4 1.3v1.4h-.5zm2.8 0V62h.5s.04.59 0 .6c.2-.2.3-.4.5-.5c.2-.1.4-.2.7-.2c.6 0 .9.2 1.2.7c.3-.5.7-.7 1.2-.7c.5 0 .8.1 1 .4c.3.3.4.6.4 1.1c-.01-.04 0 2.2 0 2.2h-.5s-.05-2.11 0-2.1c0-.4-.1-.6-.3-.8c-.2-.2-.4-.3-.7-.3c-.3 0-.5.1-.7.3c-.2.2-.3.5-.3.8v2.1h-.5s-.02-2.13 0-2.1c0-.4-.1-.6-.3-.8c-.1-.2-.4-.3-.7-.3c-.2 0-.5.1-.7.3c-.2.2-.3.5-.3.8c.04.03 0 2.1 0 2.1h-.5zm8.6-2c0 1.3-.6 2.3-1.9 3l-.3-.4c1.1-.7 1.7-1.5 1.7-2.6c0-1.1-.6-2-1.7-2.6l.3-.4c1.3.7 1.9 1.7 1.9 3c0-.01 0 0 0 0z" stroke="none" fill="#000"/></g><g id="Polygon367628"><path d="m3.3 50.2v-.6h.7v.6h-.7zm-1.3 0v-.6h.6v.6h-.6zm3.5 2.9c0 .7-.3 1.3-.7 1.8c-.5.5-1.1.8-1.8.8c-.8 0-1.4-.3-1.8-.8c-.5-.4-.7-1-.7-1.7v-.1c0-.6.2-1.2.7-1.7c.5-.5 1.1-.8 1.8-.8c.7 0 1.3.3 1.8.8c.4.4.7 1 .7 1.7c-.03.04 0 0 0 0c0 0-.03.05 0 0zm-4.4 0c0 .6.1 1.1.5 1.5c.4.4.8.6 1.4.6c.5 0 1-.2 1.4-.6c.3-.4.5-.9.5-1.4v-.1c0-.5-.2-1-.5-1.4c-.4-.4-.9-.6-1.4-.6c-.6 0-1 .2-1.4.6c-.4.4-.5.9-.5 1.4c-.05.04 0 0 0 0c0 0-.05.05 0 0zm5.2 2.5v-.3l2.4-2.9H6.4v-.4h3.1v.3l-2.4 2.8h2.4v.5H6.3zm7.1-.6c-.4.5-.9.7-1.5.7c-.5 0-.9-.2-1.3-.5c-.3-.4-.5-.8-.5-1.4c0-.5.2-1 .5-1.4c.3-.3.8-.5 1.3-.5c.5 0 .9.2 1.2.5c.3.4.4.9.4 1.4v.2h-2.8c0 .4.1.7.4.9c.2.2.5.3.8.3c.5 0 .8-.2 1.2-.5c-.02 0 .3.3.3.3c0 0 .01 0 0 0zm-2.7-1.4h2.3c0-.4-.1-.7-.3-.9c-.2-.2-.5-.3-.9-.3c-.3 0-.5.1-.8.3c-.2.2-.3.5-.3.9zm3.8 2v-5.1h.6v5.1h-.6zm1.9 0v-5.1h.5v5.1h-.5zm1.8-4.4v-.6h.6v.6h-.6zm0 4.4V52h.6v3.6h-.6zm1.8 0v-5.1h.5v3.5l2-2h.7l-1.5 1.5l1.5 2.1h-.6l-1.3-1.7l-.8.8v.9h-.5zm4 0v-5.1h.6v5.1h-.6zm4.9-.6c-.4.5-.9.7-1.5.7c-.5 0-.9-.2-1.3-.5c-.3-.4-.5-.8-.5-1.4c0-.5.2-1 .5-1.4c.3-.3.7-.5 1.2-.5c.6 0 1 .2 1.3.5c.3.4.4.9.4 1.4v.2h-2.8c0 .4.1.7.4.9c.2.2.5.3.8.3c.5 0 .8-.2 1.2-.5c-.03 0 .3.3.3.3zm-2.7-1.4h2.3c0-.4-.2-.7-.4-.9c-.2-.2-.4-.3-.8-.3c-.3 0-.6.1-.8.3c-.2.2-.3.5-.3.9zm3.8 2V52h.5s.01.93 0 .9c.2-.3.4-.5.6-.7c.3-.2.6-.3.9-.3v.6h-.1c-.4 0-.7.1-1 .4c-.3.3-.4.7-.4 1.3v1.4h-.5zm2.8-2.9v-.7h.6v.7h-.6zm0 2.9v-.7h.6v.7h-.6z" stroke="none" fill="#000"/></g><g id="Polygon367627"><path d="m.7 35.6v-4.9h.5v2.9l2.9-2.9h.7l-2.1 2.1l2.2 2.8h-.7l-1.9-2.4l-1.1 1.1v1.3h-.5zm4.9-4.4v-.6h.7v.6h-.7zm.1 4.4V32h.5v3.6h-.5zm1.8 0V32h.5s.01.93 0 .9c.2-.3.4-.5.6-.7c.3-.2.6-.3.9-.3v.6h-.1c-.4 0-.7.1-1 .4c-.2.3-.4.7-.4 1.3v1.4h-.5zm5-.5c-.3.4-.7.6-1.3.6c-.4 0-.7-.1-.9-.3c-.3-.2-.4-.5-.4-.9c0-.3.1-.6.4-.8c.3-.2.6-.3 1.1-.3c.4 0 .7 0 1.1.1v-.1c0-.3-.1-.6-.3-.7c-.1-.2-.4-.3-.8-.3c-.3 0-.7.1-1.1.3l-.1-.5c.4-.2.8-.3 1.3-.3c.5 0 .9.2 1.2.4c.2.3.3.6.3 1.1c.04-.01 0 2.2 0 2.2h-.5v-.5s.02-.05 0 0zm-1.2.1c.4 0 .6 0 .9-.2c.2-.2.3-.4.3-.7v-.4c-.3-.1-.7-.1-1-.1c-.4 0-.6 0-.8.2c-.2.1-.3.3-.3.5c0 .2.1.4.3.6c.2.1.4.1.6.1zm2.7.4v-.3l2.4-2.9h-2.3v-.4h3v.3l-2.4 2.8h2.4v.5H14zm8.6-.5c-.3.4-.8.6-1.3.6c-.4 0-.7-.1-1-.3c-.3-.2-.4-.5-.4-.9c0-.3.1-.6.4-.8c.3-.2.7-.3 1.2-.3c.3 0 .7 0 1.1.1v-.1c0-.3-.1-.6-.3-.7c-.2-.2-.5-.3-.8-.3c-.4 0-.7.1-1.1.3l-.2-.5c.5-.2.9-.3 1.3-.3c.6 0 .9.2 1.2.4c.3.3.4.6.4 1.1c-.01-.01 0 2.2 0 2.2h-.5v-.5s-.03-.05 0 0zm-1.2.1c.3 0 .6 0 .8-.2c.3-.2.4-.4.4-.7v-.4c-.4-.1-.7-.1-1.1-.1c-.3 0-.6 0-.8.2c-.2.1-.2.3-.2.5c0 .2 0 .4.2.6c.2.1.4.1.7.1zm5.8 1.1c-.3.3-.8.4-1.4.4c-.6 0-1.1-.1-1.6-.5l.2-.4c.5.3.9.5 1.4.5c.4 0 .8-.1 1-.4c.2-.2.3-.5.3-.9v-.4c-.3.5-.8.7-1.4.7c-.4 0-.8-.1-1.2-.5c-.3-.3-.5-.7-.5-1.2c0-.5.2-.9.5-1.2c.4-.3.8-.5 1.2-.5c.6 0 1.1.2 1.4.7c.04.03 0-.6 0-.6h.6s-.02 2.97 0 3c0 .5-.2.9-.5 1.3zm-1.4-1.5c.4 0 .7-.1 1-.3c.2-.2.4-.5.4-.9c0-.4-.2-.6-.4-.9c-.3-.2-.6-.3-1-.3c-.3 0-.6.1-.9.3c-.2.2-.3.5-.3.9c0 .4.1.7.3.9c.3.2.6.3.9.3zm1.2-4.2c0 .2-.1.5-.3.6c-.2.2-.4.2-.7.2c-.3 0-.6 0-.7-.2c-.2-.1-.3-.4-.4-.6h.4c.1.3.3.4.7.4c.3 0 .5-.1.6-.4c.02-.03.4 0 .4 0c0 0 .01-.03 0 0zm4.3 4.5c-.3.4-.8.6-1.3.6c-.4 0-.7-.1-1-.3c-.3-.2-.4-.5-.4-.9c0-.3.1-.6.4-.8c.3-.2.7-.3 1.2-.3c.3 0 .7 0 1.1.1v-.1c0-.3-.1-.6-.3-.7c-.2-.2-.5-.3-.8-.3c-.4 0-.7.1-1.1.3l-.2-.5c.5-.2.9-.3 1.3-.3c.6 0 .9.2 1.2.4c.3.3.4.6.4 1.1c-.01-.01 0 2.2 0 2.2h-.5v-.5s-.03-.05 0 0zm-1.2.1c.3 0 .6 0 .8-.2c.3-.2.4-.4.4-.7v-.4c-.4-.1-.7-.1-1.1-.1c-.3 0-.6 0-.8.2c-.2.1-.2.3-.2.5c0 .2 0 .4.2.6c.2.1.4.1.7.1zM36 35c-.4.5-.9.7-1.4.7c-.6 0-1-.2-1.4-.6c-.3-.3-.5-.8-.5-1.3c0-.5.2-1 .5-1.3c.4-.4.8-.6 1.4-.6c.5 0 1 .2 1.4.6l-.3.4c-.4-.3-.8-.5-1.1-.5c-.4 0-.7.1-1 .4c-.2.3-.3.6-.3 1c0 .4.1.7.3 1c.3.3.6.4 1 .4c.4 0 .8-.2 1.1-.5c0-.04.3.3.3.3c0 0 .04-.02 0 0zm1 .6V32h.5v3.6h-.5zm4.3-2c0 1.1.5 1.9 1.6 2.6l-.2.4c-1.3-.7-2-1.7-2-3c0-1.3.7-2.3 2-3l.2.4c-1.1.6-1.6 1.5-1.6 2.6c-.01-.01 0 0 0 0c0 0-.01 0 0 0zm4.7 2.1c-.7 0-1.3-.3-1.7-.7c-.5-.5-.7-1.1-.7-1.8v-.1c0-.7.2-1.3.7-1.7c.5-.5 1-.8 1.8-.8c.4 0 .7.1 1 .2c.3.1.6.3.9.6l-.4.4c-.2-.2-.5-.4-.7-.5c-.3-.1-.5-.2-.9-.2c-.5 0-.9.2-1.3.6c-.4.4-.6.9-.6 1.4c0 .6.2 1.1.6 1.5c.4.4.8.6 1.3.6c.4 0 .6-.1.9-.2c.2-.1.5-.3.7-.5l.4.3c-.3.3-.6.5-.9.7c-.3.1-.7.2-1.1.2zm2.9-4.5v-.6h.6v.6h-.6zm0 4.4V32h.6v3.6h-.6zm1.9 0v-5.1h.5v5.1h-.5zm1.8-4.4v-.6h.6v.6h-.6zm0 4.4V32h.6v3.6h-.6zm4.9-.6c-.4.5-.9.7-1.5.7c-.5 0-.9-.2-1.3-.5c-.3-.4-.5-.8-.5-1.4c0-.5.2-1 .5-1.4c.3-.3.7-.5 1.2-.5c.5 0 1 .2 1.3.5c.3.4.4.9.4 1.4v.2h-2.9c.1.4.2.7.5.9c.2.2.5.3.8.3c.4 0 .8-.2 1.2-.5c-.05 0 .3.3.3.3c0 0-.01 0 0 0zm-2.8-1.4h2.4c-.1-.4-.2-.7-.4-.9c-.2-.2-.4-.3-.8-.3c-.3 0-.6.1-.8.3c-.2.2-.3.5-.4.9zm6.8 2.7c-.3.3-.7.4-1.3.4c-.6 0-1.2-.1-1.7-.5l.3-.4c.4.3.9.5 1.4.5c.4 0 .7-.1.9-.4c.3-.2.4-.5.4-.9v-.4c-.4.5-.9.7-1.4.7c-.5 0-.9-.1-1.2-.5c-.4-.3-.5-.7-.5-1.2c0-.5.1-.9.5-1.2c.3-.3.7-.5 1.2-.5c.5 0 1 .2 1.4.7c-.03.03 0-.6 0-.6h.5v3c0 .5-.1.9-.5 1.3zm-1.3-1.5c.3 0 .6-.1.9-.3c.3-.2.4-.5.4-.9c0-.4-.1-.6-.4-.9c-.3-.2-.6-.3-.9-.3c-.4 0-.7.1-.9.3c-.3.2-.4.5-.4.9c0 .4.1.7.4.9c.2.2.5.3.9.3zm3-3.6v-.6h.6v.6h-.6zm.1 4.4V32h.5v3.6h-.5zm3.4.1c-.5 0-1-.2-1.3-.6c-.4-.3-.6-.8-.6-1.3c0-.5.2-1 .6-1.3c.3-.4.8-.6 1.3-.6c.6 0 1 .2 1.4.6c.3.3.5.8.5 1.3c0 .5-.2 1-.5 1.3c-.4.4-.9.6-1.4.6zm0-.5c.4 0 .7-.1 1-.4c.2-.3.3-.6.3-1c0-.4-.1-.7-.3-1c-.3-.3-.6-.4-1-.4c-.4 0-.7.1-.9.4c-.3.3-.4.6-.4 1c0 .4.1.7.4 1c.2.3.5.4.9.4zm4.6-1.6c0 1.3-.6 2.3-1.9 3l-.2-.4c1-.7 1.6-1.5 1.6-2.6c0-1.1-.6-2-1.6-2.6l.2-.4c1.3.7 1.9 1.7 1.9 3c.02-.01 0 0 0 0c0 0 .02 0 0 0z" stroke="none" fill="#000"/></g><g id="Polygon367626"><path d="m.7 25.6v-4.9h2.1c.6 0 1.1.2 1.4.5c.2.2.4.6.4 1c0 .4-.2.7-.4.9c-.2.3-.6.4-1 .5c.04 0 1.5 2 1.5 2h-.6l-1.5-1.9H1.2v1.9h-.5zm.5-2.4h1.6c.3 0 .6-.1.9-.3c.2-.2.3-.4.3-.7c0-.3-.1-.6-.3-.7c-.2-.2-.5-.3-.9-.3H1.2v2zM8.7 25c-.4.5-.9.7-1.5.7c-.5 0-1-.2-1.3-.5c-.4-.4-.5-.8-.5-1.4c0-.5.1-1 .5-1.4c.3-.3.7-.5 1.2-.5c.5 0 .9.2 1.2.5c.3.4.5.9.5 1.4v.2H5.9c.1.4.2.7.4.9c.3.2.6.3.9.3c.4 0 .8-.2 1.1-.5c.03 0 .4.3.4.3c0 0-.03 0 0 0zm-2.8-1.4h2.3c0-.4-.1-.7-.3-.9c-.2-.2-.5-.3-.8-.3c-.3 0-.6.1-.8.3c-.2.2-.3.5-.4.9zm3.8 2V22h.6s-.02.61 0 .6c.3-.5.7-.7 1.2-.7c.4 0 .8.1 1 .4c.3.3.4.6.4 1.1v2.2h-.5s-.04-2.11 0-2.1c0-.4-.1-.6-.3-.8c-.2-.2-.4-.3-.7-.3c-.4 0-.6.1-.8.3c-.2.2-.3.5-.3.8c-.02.03 0 2.1 0 2.1h-.6zm4.3 0v-5.1h.6v3.5l1.9-2h.7l-1.5 1.5l1.6 2.1h-.7l-1.3-1.7l-.7.8v.9h-.6zm4-2.9v-.7h.6v.7h-.6zm0 2.9v-.7h.6v.7h-.6z" stroke="none" fill="#000"/></g><g id="Polygon367625"><path d="m2.4 5.7c-.6 0-1.1-.2-1.4-.5c-.4-.4-.6-1-.6-1.9c0-.8.2-1.4.5-1.9c.4-.5.9-.8 1.6-.8c.6 0 1.1.2 1.6.6l-.6.8c-.2-.1-.3-.2-.5-.3c-.1-.1-.3-.1-.5-.1c-.2 0-.3 0-.5.1l-.3.3c0 .1-.1.3-.1.4c-.1.1-.1.2-.1.3c.3-.2.7-.3 1-.3c.5 0 .9.2 1.3.4c.3.3.4.7.4 1.2c0 .5-.1.9-.5 1.2c-.3.3-.8.5-1.3.5zM1.5 4c0 .2.1.4.2.6c.2.1.4.2.6.2c.3 0 .5-.1.6-.2c.2-.2.3-.3.3-.6c0-.2-.1-.4-.3-.5c-.1-.1-.3-.2-.6-.2c-.2 0-.4.1-.6.2c-.1.1-.2.3-.2.5c-.02.02 0 0 0 0c0 0-.02.03 0 0zm5.7 1.7c-.7 0-1.2-.3-1.6-.7c-.4-.5-.6-1.1-.6-1.8v-.1c0-.7.2-1.3.6-1.8C6 .9 6.6.6 7.2.6c.6 0 1.2.3 1.6.7c.4.5.6 1.1.6 1.8c0 .8-.2 1.4-.6 1.9c-.4.4-1 .7-1.6.7zM6.1 3.1c0 .5.1.9.3 1.2c.2.3.5.4.8.4c.3 0 .6-.1.8-.4c.2-.3.3-.7.3-1.1v-.1c0-.4-.1-.8-.3-1.1c-.2-.3-.5-.4-.8-.4c-.3 0-.6.1-.8.4c-.2.3-.3.7-.3 1.1c.02.04 0 0 0 0c0 0 .02.05 0 0zM10 5.6v-.9s1.65-1.29 1.6-1.3c.4-.3.6-.5.7-.6c.1-.2.2-.4.2-.6c0-.2-.1-.3-.2-.4c-.1-.1-.3-.2-.5-.2c-.1 0-.3 0-.5.1c-.1.1-.3.3-.5.6l-.7-.7c.2-.3.5-.6.8-.7c.2-.2.6-.3 1-.3c.5 0 .9.2 1.2.4c.3.3.5.7.5 1.1v.1c0 .3-.1.7-.3.9c-.2.3-.5.6-1 1c.01-.05-.8.6-.8.6h2.1v.9H10zm6.3 0L18.4.7h1l2.1 4.9h-1.1l-.5-1.1h-2.1l-.4 1.1h-1.1zm1.9-2.1h1.3L18.9 2l-.7 1.5zm6.5 3.2s-.03-1.64 0-1.6c-.3.4-.7.6-1.2.6c-.5 0-.9-.2-1.2-.6c-.3-.3-.5-.8-.5-1.4c0-.6.2-1.1.5-1.4c.3-.3.7-.5 1.2-.5c.5 0 .9.2 1.2.5c-.03.04 0-.5 0-.5h1v4.9h-1zm-1.8-3c0 .3.1.6.2.8c.2.2.4.3.7.3c.2 0 .5-.1.6-.3c.2-.2.3-.5.3-.8c0-.3-.1-.5-.3-.7c-.1-.2-.4-.3-.6-.3c-.3 0-.5.1-.7.3c-.1.2-.2.4-.2.7c-.04.02 0 0 0 0c0 0-.04.03 0 0zM29 5.1c-.3.4-.6.6-1.1.6c-.4 0-.7-.2-.9-.4c-.2-.2-.3-.6-.3-1c-.04-.02 0-2.5 0-2.5h1s.03 2.14 0 2.1c0 .5.2.8.7.8c.2 0 .3-.1.5-.2c.1-.1.1-.3.1-.6c.04.04 0-2.1 0-2.1h1.1v3.8H29v-.5s.04-.03 0 0zm2.1-3.7v-.9h1.1v.9h-1.1zm0 4.2V1.8h1.1v3.8h-1.1zm2.1 0V.5h1.1v5.1h-1.1zm3.9.1c-.6 0-1-.2-1.4-.6c-.4-.3-.6-.8-.6-1.4c0-.5.2-1 .6-1.4c.4-.3.9-.5 1.4-.5c.6 0 1.1.2 1.5.5c.4.4.6.9.6 1.4c0 .6-.2 1-.6 1.4c-.4.4-.9.6-1.5.6zm0-.9c.3 0 .6-.1.7-.3c.2-.2.3-.5.3-.8c0-.3-.1-.5-.3-.7c-.2-.2-.4-.3-.7-.3c-.3 0-.5.1-.7.3c-.2.2-.3.4-.3.7c0 .3.1.6.3.8c.2.2.4.3.7.3zm2.8.8V1.8h1.1v.6c.3-.4.7-.6 1.1-.6c.4 0 .7.1.9.3c.3.3.4.6.4 1.1c-.04-.03 0 2.4 0 2.4h-1.1V3.5c0-.5-.2-.8-.6-.8c-.3 0-.4.1-.5.2c-.2.2-.2.4-.2.6v2.1h-1.1zm7.7-.6c-.4.5-.9.7-1.5.7c-.6 0-1.1-.2-1.4-.6c-.4-.3-.6-.8-.6-1.4c0-.5.2-1 .5-1.4c.4-.3.8-.5 1.4-.5c.6 0 1 .2 1.3.6c.3.4.5.8.5 1.4v.3h-2.6c0 .2.1.4.3.5c.1.2.3.2.6.2c.3 0 .6-.1.9-.4c-.01.04.6.6.6.6c0 0 0-.02 0 0zm-2.5-1.6h1.7l-.3-.6c-.1-.1-.3-.2-.5-.2c-.3 0-.4.1-.6.2l-.3.6zm5.5.5v-1h5.5v1h-5.5zm8.6 1.7V.7h1.1v2.1L62.2.7h1.4l-2.1 2.1l2.1 2.8h-1.3l-1.5-2.1l-.5.6v1.5h-1.1zm7.2-.5c-.3.4-.7.6-1.1.6c-.4 0-.7-.2-1-.4c-.2-.2-.3-.6-.3-1c.01-.02 0-2.5 0-2.5h1.1s-.03 2.14 0 2.1c0 .5.2.8.6.8c.2 0 .4-.1.5-.2c.1-.1.2-.3.2-.6c-.02.04 0-2.1 0-2.1h1v3.8h-1v-.5s-.02-.03 0 0zm2 .5V.5h1.1v5.1h-1.1zm5.4-.6c-.4.5-.9.7-1.5.7c-.6 0-1.1-.2-1.4-.6c-.4-.3-.6-.8-.6-1.4c0-.5.2-1 .6-1.4c.3-.3.7-.5 1.3-.5c.6 0 1 .2 1.3.6c.4.4.5.8.5 1.4v.3h-2.6c0 .2.1.4.3.5c.2.2.4.2.6.2c.3 0 .6-.1.9-.4c.01.04.6.6.6.6c0 0 .02-.02 0 0zm-2.4-1.6h1.6c-.1-.2-.1-.4-.3-.6c-.1-.1-.3-.2-.5-.2c-.2 0-.4.1-.6.2c-.1.2-.2.4-.2.6zm6.8 2.2V1.7h-1.5v-1h4v1h-1.5v3.9h-1zm3.2-4.2v-.9h1.1v.9h-1.1zm0 4.2V1.8h1.1v3.8h-1.1zm2.1 1.1V1.8h1s.04.59 0 .6c.3-.4.7-.6 1.2-.6c.5 0 .9.2 1.2.5c.4.3.5.8.5 1.4c0 .6-.1 1.1-.5 1.4c-.3.4-.7.6-1.2.6c-.5 0-.8-.2-1.2-.6c.04.01 0 1.6 0 1.6h-1zm1-3c0 .3.1.6.3.8c.2.2.4.3.6.3c.3 0 .5-.1.7-.3c.2-.2.3-.5.3-.8c0-.3-.1-.5-.3-.7c-.2-.2-.4-.3-.7-.3c-.2 0-.4.1-.6.3c-.2.2-.3.4-.3.7c.03.02 0 0 0 0c0 0 .03.03 0 0zm3.7-2.3v-.9h1.1v.9h-1.1zm.1 4.2V1.8h1v3.8h-1zm6.3 1.2l-.9-.4s.53-.79.5-.8c-.5-.1-1-.4-1.4-.9c-.3-.4-.5-.9-.5-1.5v-.1c0-.7.3-1.3.7-1.7c.5-.5 1.1-.8 1.9-.8c.8 0 1.4.3 1.9.8l-.7.8c-.4-.4-.8-.6-1.2-.6c-.4 0-.8.2-1.1.5c-.2.3-.4.6-.4 1c0 .5.2.8.4 1.1c.3.3.7.5 1.1.5c.2 0 .5-.1.6-.2c.2 0 .4-.2.7-.4l.6.7c-.5.6-1.1.8-1.8.9l-.4 1.1zm5.2-1.6c-.3.3-.7.5-1.2.5c-.3 0-.6-.1-.9-.3c-.2-.2-.3-.5-.3-.9c0-.4.1-.7.4-.9c.2-.2.6-.3 1.1-.3c.3 0 .6.1.9.2v-.1c0-.5-.3-.7-.8-.7c-.4 0-.7.1-1.1.2l-.2-.8c.5-.2.9-.3 1.4-.3c.6 0 1 .1 1.3.4c.3.3.4.7.4 1.2c.01.02 0 2.2 0 2.2h-1v-.4s-.02-.01 0 0zm-.8-.3c.2 0 .4 0 .6-.1c.1-.2.2-.3.2-.5v-.2c-.2-.1-.4-.2-.7-.2c-.2 0-.4.1-.5.2c-.1.1-.2.2-.2.4c0 .1 0 .2.2.3c.1.1.2.1.4.1zm2.7.7V1.8h1.1v.6c.3-.4.7-.6 1.1-.6c.5 0 .9.2 1.1.6c.3-.4.7-.6 1.2-.6c.4 0 .7.1.9.3c.2.3.4.6.4 1.1c-.04-.04 0 2.4 0 2.4h-1.1V3.5c0-.5-.2-.8-.6-.8c-.2 0-.4.1-.5.2c-.1.2-.2.4-.2.6c.02.01 0 2.1 0 2.1h-1s-.04-2.09 0-2.1c0-.5-.2-.8-.7-.8c-.2 0-.3.1-.4.2c-.1.2-.2.4-.2.6v2.1h-1.1zm8.9-.4c-.3.3-.7.5-1.2.5c-.3 0-.6-.1-.9-.3c-.2-.2-.3-.5-.3-.9c0-.4.1-.7.4-.9c.2-.2.6-.3 1.1-.3c.3 0 .6.1.9.2v-.1c0-.5-.3-.7-.8-.7c-.4 0-.7.1-1.1.2l-.2-.8c.4-.2.9-.3 1.4-.3c.6 0 1 .1 1.3.4c.3.3.4.7.4 1.2c.01.02 0 2.2 0 2.2h-1v-.4s-.02-.01 0 0zm-.8-.3c.2 0 .4 0 .6-.1c.1-.2.2-.3.2-.5v-.2c-.2-.1-.4-.2-.7-.2c-.2 0-.4.1-.5.2c-.2.1-.2.2-.2.4c0 .1 0 .2.1.3c.2.1.3.1.5.1zm3.9 1.9l-.9-.4s.57-.78.6-.8c-.5-.1-.8-.2-1.2-.5l.5-.7c.4.3.8.5 1.2.5c.3 0 .4-.1.4-.3v-.1c0-.1 0-.1-.1-.1l-.1-.1h-.1l-.1-.1h-.2c-.1 0-.1-.1-.2-.1c-.1 0-.3-.1-.4-.1c-.1-.1-.2-.1-.3-.2l-.3-.3c-.1-.2-.1-.3-.1-.5c0-.4.1-.7.4-.9c.3-.2.6-.3 1-.3c.5 0 1 .1 1.4.4l-.4.8c-.4-.3-.8-.4-1-.4c-.2 0-.3 0-.3.1c-.1 0-.1.1-.1.2c0 .1 0 .1.2.2c.1.1.3.2.5.2c.2.1.3.1.4.2c.2 0 .3.1.4.2l.3.3c0 .1.1.3.1.4v.1c0 .3-.1.6-.3.8c-.2.2-.5.3-.8.3l-.5 1.2zm2.4-1.2V1.8h1.1v3.8h-1.1zm2.1 0V1.8h1s.02.8 0 .8c.3-.6.7-.8 1.2-.8c.01-.02 0 1.1 0 1.1c0 0-.04-.01 0 0c-.4 0-.7.1-.9.3c-.2.2-.3.6-.3 1c.02.01 0 1.4 0 1.4h-1zm5.1 0V.7h1.1v2.1l1.9-2.1h1.4l-2 2.1l2 2.8h-1.2l-1.6-2.1l-.5.6v1.5h-1.1zm7.2-.5c-.3.4-.7.6-1.1.6c-.4 0-.7-.2-.9-.4c-.3-.2-.4-.6-.4-1c.02-.02 0-2.5 0-2.5h1.1s-.02 2.14 0 2.1c0 .5.2.8.6.8c.2 0 .4-.1.5-.2c.1-.1.2-.3.2-.6V1.8h1.1v3.8h-1.1v-.5s-.01-.03 0 0zm2 .5V1.8h1.1s-.03.8 0 .8c.2-.6.6-.8 1.2-.8c-.03-.02 0 1.1 0 1.1h-.1c-.4 0-.6.1-.8.3c-.2.2-.3.6-.3 1c-.03.01 0 1.4 0 1.4h-1.1zm5.3-.5c-.3.4-.7.6-1.1.6c-.4 0-.7-.2-1-.4c-.2-.2-.3-.6-.3-1c.01-.02 0-2.5 0-2.5h1.1s-.03 2.14 0 2.1c0 .5.2.8.6.8c.2 0 .4-.1.5-.2c.1-.1.2-.3.2-.6c-.02.04 0-2.1 0-2.1h1v3.8h-1v-.5s-.02-.03 0 0zm4.1.3c-.2.2-.5.3-.8.3c-.4 0-.7-.1-.8-.3c-.2-.2-.3-.5-.3-.9c-.03.04 0-1.7 0-1.7h-.5v-1h.5v-.9h1v.9h.9v1h-.9s.03 1.56 0 1.6c0 .2.1.3.4.3c.2 0 .3 0 .5-.1v.8s0 .05 0 0zm.8.2V1.8h1.1s-.04.58 0 .6c.3-.4.6-.6 1.1-.6c.5 0 .8.2 1 .6c.4-.4.8-.6 1.3-.6c.4 0 .7.1.9.3c.2.3.3.6.3 1.1c.03-.04 0 2.4 0 2.4h-1s-.04-2.09 0-2.1c0-.5-.2-.8-.7-.8c-.2 0-.3.1-.4.2c-.1.2-.2.4-.2.6v2.1H145s.03-2.09 0-2.1c0-.5-.2-.8-.6-.8c-.2 0-.4.1-.5.2c-.1.2-.1.4-.1.6c-.04.01 0 2.1 0 2.1h-1.1zm8.8-.4c-.2.3-.6.5-1.1.5c-.4 0-.7-.1-.9-.3c-.3-.2-.4-.5-.4-.9c0-.4.2-.7.4-.9c.3-.2.7-.3 1.1-.3c.3 0 .6.1 1 .2v-.1c0-.5-.3-.7-.9-.7c-.3 0-.6.1-1 .2l-.3-.8c.5-.2 1-.3 1.5-.3c.6 0 1 .1 1.3.4c.2.3.4.7.4 1.2c-.02.02 0 2.2 0 2.2h-1.1v-.4s.05-.01 0 0zm-.8-.3c.3 0 .5 0 .6-.1c.2-.2.3-.3.3-.5v-.2c-.2-.1-.5-.2-.7-.2c-.2 0-.4.1-.5.2c-.2.1-.2.2-.2.4c0 .1 0 .2.1.3c.1.1.3.1.4.1zm2.8.7V.5h1.1v5.1h-1.1zm2.2 0V1.8h1v3.8h-1zm5.3.6c-.3.4-.9.5-1.6.5c-.6 0-1.2-.1-1.7-.4l.4-.8c.4.3.8.4 1.3.4c.7 0 1-.4 1-1v-.2c-.1.2-.3.3-.5.4c-.2.1-.4.2-.7.2c-.4 0-.8-.2-1.2-.5c-.3-.3-.4-.7-.4-1.3c0-.5.1-.9.4-1.2c.4-.4.8-.5 1.2-.5c.5 0 .9.2 1.2.5c.03.04 0-.5 0-.5h1.1v3c0 .6-.2 1.1-.5 1.4zm-2.4-2.7c0 .3.1.5.3.7c.1.1.4.2.6.2c.3 0 .5-.1.7-.2c.2-.2.2-.4.2-.7c0-.2 0-.4-.2-.6c-.2-.2-.4-.2-.7-.2c-.2 0-.5 0-.6.2c-.2.2-.3.4-.3.6c.02.03 0 0 0 0c0 0 .02.04 0 0zM161 .3c-.1.4-.2.7-.4.9c-.3.2-.6.2-.9.2c-.4 0-.7 0-1-.2c-.2-.2-.3-.5-.4-.9h.8c.1.3.3.5.6.5c.3 0 .5-.2.6-.5c-.04.04.7 0 .7 0c0 0-.02.04 0 0zm1.5 5.3V1.8h1.1v3.8h-1.1z" stroke="none" fill="#000"/></g></svg>