<?xml version="1.0" standalone="no"?><!DOCTYPE svg PUBLIC "-//W3C//DTD SVG 1.1//EN" "http://www.w3.org/Graphics/SVG/1.1/DTD/svg11.dtd"><svg xmlns="http://www.w3.org/2000/svg" version="1.1" width="136.1px" height="102.4px" viewBox="0 -3 136.1 102.4" style="top:-3px">  <desc>A l krema spatulas (PRIMELINE) r n Kodu: 29244 Hamur ve kremalar d zeltme/s rme i in ideal A l form; dengeli v...</desc>  <defs/>  <g id="Polygon390655">    <path d="M 3.3 80.2 L 3.3 79.6 L 4 79.6 L 4 80.2 L 3.3 80.2 Z M 2 80.2 L 2 79.6 L 2.6 79.6 L 2.6 80.2 L 2 80.2 Z M 5.5 83.1 C 5.5 83.8 5.2 84.4 4.8 84.9 C 4.3 85.4 3.7 85.7 3 85.7 C 2.2 85.7 1.6 85.4 1.2 84.9 C 0.7 84.5 0.5 83.9 0.5 83.2 C 0.5 83.2 0.5 83.1 0.5 83.1 C 0.5 82.5 0.7 81.9 1.2 81.4 C 1.7 80.9 2.3 80.6 3 80.6 C 3.7 80.6 4.3 80.9 4.8 81.4 C 5.2 81.8 5.5 82.4 5.5 83.1 C 5.47 83.14 5.5 83.1 5.5 83.1 C 5.5 83.1 5.47 83.15 5.5 83.1 Z M 1.1 83.1 C 1.1 83.7 1.2 84.2 1.6 84.6 C 2 85 2.4 85.2 3 85.2 C 3.5 85.2 4 85 4.4 84.6 C 4.7 84.2 4.9 83.7 4.9 83.2 C 4.9 83.2 4.9 83.1 4.9 83.1 C 4.9 82.6 4.7 82.1 4.4 81.7 C 4 81.3 3.5 81.1 3 81.1 C 2.4 81.1 2 81.3 1.6 81.7 C 1.2 82.1 1.1 82.6 1.1 83.1 C 1.05 83.14 1.1 83.1 1.1 83.1 C 1.1 83.1 1.05 83.15 1.1 83.1 Z M 6.6 85.6 L 6.6 80.5 L 7.1 80.5 L 7.1 85.6 L 6.6 85.6 Z M 9.7 86.7 L 9.1 86.4 C 9.1 86.4 9.69 85.65 9.7 85.6 C 9.2 85.6 8.9 85.4 8.6 85 C 8.3 84.7 8.2 84.3 8.2 83.8 C 8.2 83.8 8.2 83.8 8.2 83.8 C 8.2 83.3 8.3 82.8 8.7 82.5 C 9.1 82.1 9.5 81.9 10 81.9 C 10.6 81.9 11.1 82.1 11.5 82.5 C 11.5 82.5 11.1 82.9 11.1 82.9 C 10.8 82.6 10.4 82.4 10 82.4 C 9.6 82.4 9.3 82.5 9.1 82.8 C 8.8 83.1 8.7 83.4 8.7 83.8 C 8.7 83.8 8.7 83.8 8.7 83.8 C 8.7 84.2 8.8 84.5 9.1 84.8 C 9.4 85.1 9.7 85.2 10.1 85.2 C 10.5 85.2 10.8 85 11.2 84.7 C 11.2 84.7 11.5 85 11.5 85 C 11.1 85.4 10.7 85.7 10.1 85.7 C 10.13 85.68 9.7 86.7 9.7 86.7 Z M 14.2 81.4 L 14.2 80.8 L 14.8 80.8 L 14.8 81.4 L 14.2 81.4 Z M 13 81.4 L 13 80.8 L 13.6 80.8 L 13.6 81.4 L 13 81.4 Z M 14.9 85 C 14.6 85.4 14.2 85.7 13.7 85.7 C 13.3 85.7 12.9 85.5 12.7 85.3 C 12.4 85 12.3 84.7 12.3 84.2 C 12.31 84.23 12.3 82 12.3 82 L 12.8 82 C 12.8 82 12.84 84.09 12.8 84.1 C 12.8 84.4 12.9 84.7 13.1 84.9 C 13.3 85.1 13.5 85.2 13.8 85.2 C 14.2 85.2 14.4 85.1 14.6 84.9 C 14.8 84.7 14.9 84.4 14.9 84.1 C 14.93 84.05 14.9 82 14.9 82 L 15.5 82 L 15.5 85.6 L 14.9 85.6 L 14.9 85 C 14.9 85 14.93 84.97 14.9 85 Z M 16.7 85.6 L 16.7 80.5 L 17.3 80.5 L 17.3 85.6 L 16.7 85.6 Z M 21.6 85 C 21.2 85.5 20.7 85.7 20.1 85.7 C 19.6 85.7 19.2 85.5 18.8 85.2 C 18.5 84.8 18.3 84.4 18.3 83.8 C 18.3 83.8 18.3 83.8 18.3 83.8 C 18.3 83.3 18.5 82.8 18.8 82.4 C 19.1 82.1 19.5 81.9 20 81.9 C 20.5 81.9 21 82.1 21.3 82.4 C 21.6 82.8 21.7 83.3 21.7 83.8 C 21.7 83.9 21.7 83.9 21.7 84 C 21.7 84 18.8 84 18.8 84 C 18.9 84.4 19 84.7 19.3 84.9 C 19.5 85.1 19.8 85.2 20.1 85.2 C 20.5 85.2 20.9 85 21.3 84.7 C 21.25 84.7 21.6 85 21.6 85 C 21.6 85 21.59 85 21.6 85 Z M 18.8 83.6 C 18.8 83.6 21.2 83.6 21.2 83.6 C 21.1 83.2 21 82.9 20.8 82.7 C 20.6 82.5 20.4 82.4 20 82.4 C 19.7 82.4 19.4 82.5 19.2 82.7 C 19 82.9 18.9 83.2 18.8 83.6 Z M 22.7 85.6 L 22.7 82 L 23.2 82 C 23.2 82 23.2 82.93 23.2 82.9 C 23.3 82.6 23.5 82.4 23.8 82.2 C 24 82 24.3 81.9 24.7 81.9 C 24.67 81.92 24.7 82.5 24.7 82.5 C 24.7 82.5 24.63 82.5 24.6 82.5 C 24.2 82.5 23.9 82.6 23.6 82.9 C 23.3 83.2 23.2 83.6 23.2 84.2 C 23.2 84.16 23.2 85.6 23.2 85.6 L 22.7 85.6 Z M 25.5 82.7 L 25.5 82 L 26.1 82 L 26.1 82.7 L 25.5 82.7 Z M 25.5 85.6 L 25.5 84.9 L 26.1 84.9 L 26.1 85.6 L 25.5 85.6 Z M 29.5 85.6 L 29.5 80.7 L 30 80.7 L 30 85.1 L 32.8 85.1 L 32.8 85.6 L 29.5 85.6 Z M 37.4 85.7 C 36.6 85.7 36 85.4 35.5 84.8 C 35.5 84.8 35.9 84.5 35.9 84.5 C 36.3 84.9 36.8 85.2 37.4 85.2 C 37.7 85.2 37.9 85.1 38.1 84.9 C 38.3 84.7 38.4 84.5 38.4 84.2 C 38.4 84.2 38.4 84.2 38.4 84.2 C 38.4 83.9 38.3 83.7 38.1 83.5 C 37.8 83.4 37.5 83.3 37.1 83.3 C 37.06 83.27 36.7 83.3 36.7 83.3 L 36.6 82.9 L 38.2 81.2 L 35.8 81.2 L 35.8 80.7 L 38.9 80.7 L 38.9 81.1 C 38.9 81.1 37.37 82.81 37.4 82.8 C 37.8 82.9 38.2 83 38.5 83.2 C 38.8 83.4 39 83.8 39 84.2 C 39 84.2 39 84.2 39 84.2 C 39 84.6 38.8 85 38.5 85.3 C 38.2 85.5 37.8 85.7 37.4 85.7 Z M 43.5 84.3 C 43.5 84.7 43.3 85 43 85.3 C 42.6 85.5 42.2 85.7 41.7 85.7 C 41.1 85.7 40.7 85.5 40.4 85.3 C 40 85 39.8 84.7 39.8 84.3 C 39.8 84.3 39.8 84.3 39.8 84.3 C 39.8 84 39.9 83.7 40.1 83.5 C 40.3 83.3 40.5 83.2 40.8 83.1 C 40.3 82.8 40 82.4 40 81.9 C 40 81.9 40 81.9 40 81.9 C 40 81.6 40.2 81.2 40.5 81 C 40.8 80.8 41.2 80.6 41.7 80.6 C 42.1 80.6 42.5 80.8 42.8 81 C 43.2 81.2 43.3 81.6 43.3 81.9 C 43.3 81.9 43.3 81.9 43.3 81.9 C 43.3 82.4 43.1 82.8 42.5 83.1 C 42.8 83.2 43.1 83.3 43.2 83.5 C 43.4 83.7 43.5 84 43.5 84.3 C 43.51 84.26 43.5 84.3 43.5 84.3 C 43.5 84.3 43.51 84.28 43.5 84.3 Z M 40.6 82 C 40.6 82.2 40.7 82.4 40.9 82.6 C 41.1 82.8 41.4 82.9 41.7 82.9 C 42 82.9 42.3 82.8 42.5 82.6 C 42.7 82.4 42.8 82.2 42.8 82 C 42.8 82 42.8 82 42.8 82 C 42.8 81.7 42.7 81.5 42.5 81.4 C 42.3 81.2 42 81.1 41.7 81.1 C 41.3 81.1 41.1 81.2 40.9 81.4 C 40.7 81.5 40.6 81.7 40.6 82 C 40.55 81.96 40.6 82 40.6 82 C 40.6 82 40.55 81.97 40.6 82 Z M 40.4 84.3 C 40.4 84.5 40.5 84.7 40.7 84.9 C 41 85.1 41.3 85.2 41.7 85.2 C 42.1 85.2 42.4 85.1 42.6 84.9 C 42.8 84.7 43 84.5 43 84.3 C 43 84.3 43 84.3 43 84.3 C 43 84 42.8 83.8 42.6 83.6 C 42.3 83.4 42 83.3 41.7 83.3 C 41.3 83.3 41 83.4 40.8 83.6 C 40.5 83.8 40.4 84 40.4 84.3 C 40.39 84.26 40.4 84.3 40.4 84.3 C 40.4 84.3 40.39 84.27 40.4 84.3 Z M 44.3 86.5 C 44.3 86.5 44.2 86.2 44.2 86.2 C 44.5 86.1 44.7 85.9 44.7 85.6 C 44.67 85.6 44.4 85.6 44.4 85.6 L 44.4 84.9 L 45.1 84.9 C 45.1 84.9 45.06 85.49 45.1 85.5 C 45.1 85.8 45 86 44.9 86.1 C 44.7 86.3 44.6 86.4 44.3 86.5 Z M 46.4 85.6 L 48.6 81.2 L 45.9 81.2 L 45.9 80.7 L 49.3 80.7 L 49.3 81.1 L 47 85.6 L 46.4 85.6 Z M 55.4 85 C 55 85.5 54.5 85.7 54 85.7 C 53.4 85.7 53 85.5 52.6 85.1 C 52.3 84.8 52.1 84.3 52.1 83.8 C 52.1 83.8 52.1 83.8 52.1 83.8 C 52.1 83.3 52.3 82.8 52.6 82.5 C 53 82.1 53.4 81.9 54 81.9 C 54.5 81.9 55 82.1 55.4 82.5 C 55.4 82.5 55 82.9 55 82.9 C 54.7 82.6 54.3 82.4 53.9 82.4 C 53.6 82.4 53.3 82.5 53 82.8 C 52.8 83.1 52.7 83.4 52.7 83.8 C 52.7 83.8 52.7 83.8 52.7 83.8 C 52.7 84.2 52.8 84.5 53 84.8 C 53.3 85.1 53.6 85.2 54 85.2 C 54.4 85.2 54.8 85 55.1 84.7 C 55.09 84.66 55.4 85 55.4 85 C 55.4 85 55.43 84.98 55.4 85 Z M 56.3 85.6 L 56.3 82 L 56.9 82 C 56.9 82 56.86 82.59 56.9 82.6 C 57 82.4 57.2 82.2 57.3 82.1 C 57.5 82 57.7 81.9 58 81.9 C 58.6 81.9 59 82.1 59.2 82.6 C 59.5 82.1 59.9 81.9 60.5 81.9 C 60.9 81.9 61.2 82 61.5 82.3 C 61.7 82.6 61.8 82.9 61.8 83.4 C 61.81 83.36 61.8 85.6 61.8 85.6 L 61.3 85.6 C 61.3 85.6 61.27 83.49 61.3 83.5 C 61.3 83.1 61.2 82.9 61 82.7 C 60.9 82.5 60.6 82.4 60.3 82.4 C 60.1 82.4 59.8 82.5 59.6 82.7 C 59.4 82.9 59.3 83.2 59.3 83.5 C 59.33 83.51 59.3 85.6 59.3 85.6 L 58.8 85.6 C 58.8 85.6 58.8 83.47 58.8 83.5 C 58.8 83.1 58.7 82.9 58.6 82.7 C 58.4 82.5 58.2 82.4 57.9 82.4 C 57.6 82.4 57.3 82.5 57.1 82.7 C 57 82.9 56.9 83.2 56.9 83.5 C 56.86 83.53 56.9 85.6 56.9 85.6 L 56.3 85.6 Z M 62.8 86.5 C 62.8 86.5 62.7 86.2 62.7 86.2 C 63 86.1 63.2 85.9 63.1 85.6 C 63.15 85.6 62.9 85.6 62.9 85.6 L 62.9 84.9 L 63.5 84.9 C 63.5 84.9 63.54 85.49 63.5 85.5 C 63.5 85.8 63.5 86 63.4 86.1 C 63.2 86.3 63 86.4 62.8 86.5 Z M 68.2 85.6 L 66.5 80.7 L 67.1 80.7 L 68.5 84.8 L 69.8 80.7 L 70.3 80.7 L 71.6 84.8 L 73 80.7 L 73.6 80.7 L 71.9 85.6 L 71.4 85.6 L 70 81.7 L 68.7 85.6 L 68.2 85.6 Z M 79 85.6 L 79 84.4 L 76.5 84.4 L 76.3 84 L 79.1 80.7 L 79.6 80.7 L 79.6 84 L 80.3 84 L 80.3 84.4 L 79.6 84.4 L 79.6 85.6 L 79 85.6 Z M 77 84 L 79 84 L 79 81.4 L 77 84 Z M 81.1 86.5 C 81.1 86.5 81 86.2 81 86.2 C 81.4 86.1 81.5 85.9 81.5 85.6 C 81.51 85.6 81.3 85.6 81.3 85.6 L 81.3 84.9 L 81.9 84.9 C 81.9 84.9 81.9 85.49 81.9 85.5 C 81.9 85.8 81.8 86 81.7 86.1 C 81.6 86.3 81.4 86.4 81.1 86.5 Z M 84.6 85.7 C 83.9 85.7 83.3 85.4 82.8 84.9 C 82.8 84.9 83.2 84.5 83.2 84.5 C 83.6 85 84.1 85.2 84.6 85.2 C 84.9 85.2 85.2 85.1 85.4 84.9 C 85.6 84.7 85.7 84.4 85.7 84.1 C 85.7 84.1 85.7 84.1 85.7 84.1 C 85.7 83.8 85.6 83.5 85.4 83.3 C 85.2 83.1 84.9 83.1 84.5 83.1 C 84.2 83.1 83.8 83.1 83.5 83.3 C 83.49 83.33 83.1 83.1 83.1 83.1 L 83.3 80.7 L 86.1 80.7 L 86.1 81.2 L 83.7 81.2 C 83.7 81.2 83.64 82.78 83.6 82.8 C 84 82.6 84.3 82.6 84.6 82.6 C 85.1 82.6 85.5 82.7 85.8 83 C 86.1 83.2 86.3 83.6 86.3 84.1 C 86.3 84.1 86.3 84.1 86.3 84.1 C 86.3 84.5 86.1 84.9 85.8 85.2 C 85.5 85.5 85.1 85.7 84.6 85.7 Z M 92.5 85 C 92.1 85.5 91.6 85.7 91 85.7 C 90.5 85.7 90.1 85.5 89.7 85.1 C 89.4 84.8 89.2 84.3 89.2 83.8 C 89.2 83.8 89.2 83.8 89.2 83.8 C 89.2 83.3 89.4 82.8 89.7 82.5 C 90.1 82.1 90.5 81.9 91 81.9 C 91.6 81.9 92.1 82.1 92.5 82.5 C 92.5 82.5 92.1 82.9 92.1 82.9 C 91.8 82.6 91.4 82.4 91 82.4 C 90.7 82.4 90.4 82.5 90.1 82.8 C 89.9 83.1 89.7 83.4 89.7 83.8 C 89.7 83.8 89.7 83.8 89.7 83.8 C 89.7 84.2 89.9 84.5 90.1 84.8 C 90.4 85.1 90.7 85.2 91.1 85.2 C 91.5 85.2 91.8 85 92.2 84.7 C 92.18 84.66 92.5 85 92.5 85 C 92.5 85 92.52 84.98 92.5 85 Z M 93.4 85.6 L 93.4 82 L 94 82 C 94 82 93.95 82.59 94 82.6 C 94.1 82.4 94.3 82.2 94.4 82.1 C 94.6 82 94.8 81.9 95.1 81.9 C 95.7 81.9 96.1 82.1 96.3 82.6 C 96.6 82.1 97 81.9 97.6 81.9 C 98 81.9 98.3 82 98.5 82.3 C 98.8 82.6 98.9 82.9 98.9 83.4 C 98.9 83.36 98.9 85.6 98.9 85.6 L 98.4 85.6 C 98.4 85.6 98.36 83.49 98.4 83.5 C 98.4 83.1 98.3 82.9 98.1 82.7 C 97.9 82.5 97.7 82.4 97.4 82.4 C 97.1 82.4 96.9 82.5 96.7 82.7 C 96.5 82.9 96.4 83.2 96.4 83.5 C 96.42 83.51 96.4 85.6 96.4 85.6 L 95.9 85.6 C 95.9 85.6 95.89 83.47 95.9 83.5 C 95.9 83.1 95.8 82.9 95.6 82.7 C 95.5 82.5 95.3 82.4 95 82.4 C 94.7 82.4 94.4 82.5 94.2 82.7 C 94 82.9 94 83.2 94 83.5 C 93.95 83.53 94 85.6 94 85.6 L 93.4 85.6 Z M 99.9 86.5 C 99.9 86.5 99.8 86.2 99.8 86.2 C 100.1 86.1 100.3 85.9 100.2 85.6 C 100.24 85.6 100 85.6 100 85.6 L 100 84.9 L 100.6 84.9 C 100.6 84.9 100.63 85.49 100.6 85.5 C 100.6 85.8 100.6 86 100.4 86.1 C 100.3 86.3 100.1 86.4 99.9 86.5 Z M 104 85.6 L 104 80.7 L 104.5 80.7 L 104.5 82.9 L 107.3 82.9 L 107.3 80.7 L 107.9 80.7 L 107.9 85.6 L 107.3 85.6 L 107.3 83.4 L 104.5 83.4 L 104.5 85.6 L 104 85.6 Z M 111.9 85.6 L 111.9 81.2 L 111 81.5 L 110.9 81.1 L 112.1 80.7 L 112.5 80.7 L 112.5 85.6 L 111.9 85.6 Z M 113.6 86.5 C 113.6 86.5 113.5 86.2 113.5 86.2 C 113.9 86.1 114 85.9 114 85.6 C 113.98 85.6 113.7 85.6 113.7 85.6 L 113.7 84.9 L 114.4 84.9 C 114.4 84.9 114.37 85.49 114.4 85.5 C 114.4 85.8 114.3 86 114.2 86.1 C 114.1 86.3 113.9 86.4 113.6 86.5 Z M 118.9 84.3 C 118.9 84.7 118.8 85 118.4 85.3 C 118.1 85.5 117.6 85.7 117.1 85.7 C 116.6 85.7 116.1 85.5 115.8 85.3 C 115.4 85 115.3 84.7 115.3 84.3 C 115.3 84.3 115.3 84.3 115.3 84.3 C 115.3 84 115.4 83.7 115.5 83.5 C 115.7 83.3 116 83.2 116.3 83.1 C 115.7 82.8 115.4 82.4 115.4 81.9 C 115.4 81.9 115.4 81.9 115.4 81.9 C 115.4 81.6 115.6 81.2 115.9 81 C 116.3 80.8 116.7 80.6 117.1 80.6 C 117.6 80.6 118 80.8 118.3 81 C 118.6 81.2 118.8 81.6 118.8 81.9 C 118.8 81.9 118.8 81.9 118.8 81.9 C 118.8 82.4 118.5 82.8 117.9 83.1 C 118.2 83.2 118.5 83.3 118.7 83.5 C 118.9 83.7 118.9 84 118.9 84.3 C 118.95 84.26 118.9 84.3 118.9 84.3 C 118.9 84.3 118.95 84.28 118.9 84.3 Z M 116 82 C 116 82.2 116.1 82.4 116.3 82.6 C 116.5 82.8 116.8 82.9 117.1 82.9 C 117.4 82.9 117.7 82.8 117.9 82.6 C 118.1 82.4 118.2 82.2 118.2 82 C 118.2 82 118.2 82 118.2 82 C 118.2 81.7 118.1 81.5 117.9 81.4 C 117.7 81.2 117.4 81.1 117.1 81.1 C 116.8 81.1 116.5 81.2 116.3 81.4 C 116.1 81.5 116 81.7 116 82 C 115.99 81.96 116 82 116 82 C 116 82 115.99 81.97 116 82 Z M 115.8 84.3 C 115.8 84.5 115.9 84.7 116.2 84.9 C 116.4 85.1 116.7 85.2 117.1 85.2 C 117.5 85.2 117.8 85.1 118 84.9 C 118.3 84.7 118.4 84.5 118.4 84.3 C 118.4 84.3 118.4 84.3 118.4 84.3 C 118.4 84 118.3 83.8 118 83.6 C 117.8 83.4 117.5 83.3 117.1 83.3 C 116.7 83.3 116.4 83.4 116.2 83.6 C 116 83.8 115.8 84 115.8 84.3 C 115.83 84.26 115.8 84.3 115.8 84.3 C 115.8 84.3 115.83 84.27 115.8 84.3 Z M 125.1 85 C 124.7 85.5 124.2 85.7 123.6 85.7 C 123.1 85.7 122.7 85.5 122.3 85.1 C 122 84.8 121.8 84.3 121.8 83.8 C 121.8 83.8 121.8 83.8 121.8 83.8 C 121.8 83.3 122 82.8 122.3 82.5 C 122.7 82.1 123.1 81.9 123.6 81.9 C 124.2 81.9 124.7 82.1 125.1 82.5 C 125.1 82.5 124.7 82.9 124.7 82.9 C 124.4 82.6 124 82.4 123.6 82.4 C 123.3 82.4 123 82.5 122.7 82.8 C 122.5 83.1 122.3 83.4 122.3 83.8 C 122.3 83.8 122.3 83.8 122.3 83.8 C 122.3 84.2 122.5 84.5 122.7 84.8 C 123 85.1 123.3 85.2 123.7 85.2 C 124.1 85.2 124.4 85 124.8 84.7 C 124.78 84.66 125.1 85 125.1 85 C 125.1 85 125.12 84.98 125.1 85 Z M 126 85.6 L 126 82 L 126.6 82 C 126.6 82 126.55 82.59 126.6 82.6 C 126.7 82.4 126.9 82.2 127 82.1 C 127.2 82 127.4 81.9 127.7 81.9 C 128.3 81.9 128.7 82.1 128.9 82.6 C 129.2 82.1 129.6 81.9 130.2 81.9 C 130.6 81.9 130.9 82 131.1 82.3 C 131.4 82.6 131.5 82.9 131.5 83.4 C 131.5 83.36 131.5 85.6 131.5 85.6 L 131 85.6 C 131 85.6 130.96 83.49 131 83.5 C 131 83.1 130.9 82.9 130.7 82.7 C 130.5 82.5 130.3 82.4 130 82.4 C 129.7 82.4 129.5 82.5 129.3 82.7 C 129.1 82.9 129 83.2 129 83.5 C 129.02 83.51 129 85.6 129 85.6 L 128.5 85.6 C 128.5 85.6 128.49 83.47 128.5 83.5 C 128.5 83.1 128.4 82.9 128.2 82.7 C 128.1 82.5 127.8 82.4 127.6 82.4 C 127.3 82.4 127 82.5 126.8 82.7 C 126.6 82.9 126.6 83.2 126.6 83.5 C 126.55 83.53 126.6 85.6 126.6 85.6 L 126 85.6 Z " stroke="none" fill="#000"/>  </g>  <g id="Polygon390654">    <path d="M 2.2 75.6 L 2.2 73.7 L 0.2 70.7 L 0.9 70.7 L 2.5 73.1 L 4.2 70.7 L 4.8 70.7 L 2.8 73.7 L 2.8 75.6 L 2.2 75.6 Z M 7.3 75.1 C 7 75.5 6.5 75.7 6 75.7 C 5.6 75.7 5.3 75.6 5 75.4 C 4.8 75.2 4.6 74.9 4.6 74.5 C 4.6 74.5 4.6 74.5 4.6 74.5 C 4.6 74.2 4.8 73.9 5.1 73.7 C 5.3 73.5 5.7 73.4 6.2 73.4 C 6.6 73.4 6.9 73.4 7.3 73.5 C 7.3 73.5 7.3 73.4 7.3 73.4 C 7.3 73.1 7.2 72.8 7 72.7 C 6.8 72.5 6.6 72.4 6.2 72.4 C 5.9 72.4 5.5 72.5 5.1 72.7 C 5.1 72.7 5 72.2 5 72.2 C 5.4 72 5.8 71.9 6.3 71.9 C 6.8 71.9 7.2 72.1 7.4 72.3 C 7.7 72.6 7.8 72.9 7.8 73.4 C 7.82 73.39 7.8 75.6 7.8 75.6 L 7.3 75.6 L 7.3 75.1 C 7.3 75.1 7.3 75.05 7.3 75.1 Z M 6.1 75.2 C 6.4 75.2 6.7 75.2 7 75 C 7.2 74.8 7.3 74.6 7.3 74.3 C 7.3 74.3 7.3 73.9 7.3 73.9 C 6.9 73.8 6.6 73.8 6.2 73.8 C 5.9 73.8 5.6 73.8 5.5 74 C 5.3 74.1 5.2 74.3 5.2 74.5 C 5.2 74.5 5.2 74.5 5.2 74.5 C 5.2 74.7 5.3 74.9 5.5 75.1 C 5.6 75.2 5.8 75.2 6.1 75.2 Z M 10.4 75 L 11.5 72 L 12.1 72 C 12.1 72 10.59 75.72 10.6 75.7 C 10.4 76.1 10.3 76.4 10.1 76.5 C 9.9 76.7 9.7 76.7 9.4 76.7 C 9.1 76.7 8.9 76.7 8.6 76.6 C 8.6 76.6 8.8 76.1 8.8 76.1 C 9 76.2 9.2 76.3 9.4 76.3 C 9.5 76.3 9.7 76.2 9.8 76.1 C 9.9 76 10 75.8 10.1 75.6 C 10.11 75.59 8.5 72 8.5 72 L 9.1 72 L 10.4 75 Z M 13 75.6 L 13 72 L 13.5 72 C 13.5 72 13.5 72.59 13.5 72.6 C 13.6 72.4 13.8 72.2 14 72.1 C 14.2 72 14.4 71.9 14.7 71.9 C 15.2 71.9 15.6 72.1 15.8 72.6 C 16.2 72.1 16.6 71.9 17.1 71.9 C 17.5 71.9 17.9 72 18.1 72.3 C 18.3 72.6 18.5 72.9 18.5 73.4 C 18.45 73.36 18.5 75.6 18.5 75.6 L 17.9 75.6 C 17.9 75.6 17.91 73.49 17.9 73.5 C 17.9 73.1 17.8 72.9 17.7 72.7 C 17.5 72.5 17.3 72.4 17 72.4 C 16.7 72.4 16.5 72.5 16.3 72.7 C 16.1 72.9 16 73.2 16 73.5 C 15.97 73.51 16 75.6 16 75.6 L 15.4 75.6 C 15.4 75.6 15.44 73.47 15.4 73.5 C 15.4 73.1 15.4 72.9 15.2 72.7 C 15 72.5 14.8 72.4 14.5 72.4 C 14.2 72.4 14 72.5 13.8 72.7 C 13.6 72.9 13.5 73.2 13.5 73.5 C 13.5 73.53 13.5 75.6 13.5 75.6 L 13 75.6 Z M 22 75.1 C 21.7 75.5 21.2 75.7 20.7 75.7 C 20.3 75.7 20 75.6 19.7 75.4 C 19.5 75.2 19.3 74.9 19.3 74.5 C 19.3 74.5 19.3 74.5 19.3 74.5 C 19.3 74.2 19.5 73.9 19.8 73.7 C 20 73.5 20.4 73.4 20.9 73.4 C 21.2 73.4 21.6 73.4 22 73.5 C 22 73.5 22 73.4 22 73.4 C 22 73.1 21.9 72.8 21.7 72.7 C 21.5 72.5 21.3 72.4 20.9 72.4 C 20.5 72.4 20.2 72.5 19.8 72.7 C 19.8 72.7 19.6 72.2 19.6 72.2 C 20.1 72 20.5 71.9 21 71.9 C 21.5 71.9 21.9 72.1 22.1 72.3 C 22.4 72.6 22.5 72.9 22.5 73.4 C 22.5 73.39 22.5 75.6 22.5 75.6 L 22 75.6 L 22 75.1 C 22 75.1 21.99 75.05 22 75.1 Z M 20.8 75.2 C 21.1 75.2 21.4 75.2 21.6 75 C 21.9 74.8 22 74.6 22 74.3 C 22 74.3 22 73.9 22 73.9 C 21.6 73.8 21.3 73.8 20.9 73.8 C 20.6 73.8 20.3 73.8 20.1 74 C 20 74.1 19.9 74.3 19.9 74.5 C 19.9 74.5 19.9 74.5 19.9 74.5 C 19.9 74.7 20 74.9 20.1 75.1 C 20.3 75.2 20.5 75.2 20.8 75.2 Z M 28.1 75.1 C 27.8 75.5 27.4 75.7 26.8 75.7 C 26.5 75.7 26.2 75.6 25.9 75.4 C 25.6 75.2 25.5 74.9 25.5 74.5 C 25.5 74.5 25.5 74.5 25.5 74.5 C 25.5 74.2 25.6 73.9 25.9 73.7 C 26.2 73.5 26.6 73.4 27 73.4 C 27.4 73.4 27.8 73.4 28.1 73.5 C 28.1 73.5 28.1 73.4 28.1 73.4 C 28.1 73.1 28 72.8 27.9 72.7 C 27.7 72.5 27.4 72.4 27.1 72.4 C 26.7 72.4 26.3 72.5 26 72.7 C 26 72.7 25.8 72.2 25.8 72.2 C 26.2 72 26.7 71.9 27.1 71.9 C 27.6 71.9 28 72.1 28.3 72.3 C 28.5 72.6 28.7 72.9 28.7 73.4 C 28.66 73.39 28.7 75.6 28.7 75.6 L 28.1 75.6 L 28.1 75.1 C 28.1 75.1 28.14 75.05 28.1 75.1 Z M 26.9 75.2 C 27.3 75.2 27.6 75.2 27.8 75 C 28 74.8 28.1 74.6 28.1 74.3 C 28.1 74.3 28.1 73.9 28.1 73.9 C 27.8 73.8 27.4 73.8 27.1 73.8 C 26.7 73.8 26.5 73.8 26.3 74 C 26.1 74.1 26 74.3 26 74.5 C 26 74.5 26 74.5 26 74.5 C 26 74.7 26.1 74.9 26.3 75.1 C 26.5 75.2 26.7 75.2 26.9 75.2 Z M 29.9 75.6 L 29.9 70.5 L 30.4 70.5 L 30.4 75.6 L 29.9 75.6 Z M 34 75.1 C 33.7 75.5 33.3 75.7 32.7 75.7 C 32.4 75.7 32 75.6 31.8 75.4 C 31.5 75.2 31.4 74.9 31.4 74.5 C 31.4 74.5 31.4 74.5 31.4 74.5 C 31.4 74.2 31.5 73.9 31.8 73.7 C 32.1 73.5 32.5 73.4 32.9 73.4 C 33.3 73.4 33.7 73.4 34 73.5 C 34 73.5 34 73.4 34 73.4 C 34 73.1 33.9 72.8 33.8 72.7 C 33.6 72.5 33.3 72.4 33 72.4 C 32.6 72.4 32.2 72.5 31.9 72.7 C 31.9 72.7 31.7 72.2 31.7 72.2 C 32.1 72 32.6 71.9 33 71.9 C 33.5 71.9 33.9 72.1 34.2 72.3 C 34.4 72.6 34.6 72.9 34.6 73.4 C 34.55 73.39 34.6 75.6 34.6 75.6 L 34 75.6 L 34 75.1 C 34 75.1 34.03 75.05 34 75.1 Z M 32.8 75.2 C 33.2 75.2 33.5 75.2 33.7 75 C 33.9 74.8 34 74.6 34 74.3 C 34 74.3 34 73.9 34 73.9 C 33.7 73.8 33.3 73.8 33 73.8 C 32.6 73.8 32.4 73.8 32.2 74 C 32 74.1 31.9 74.3 31.9 74.5 C 31.9 74.5 31.9 74.5 31.9 74.5 C 31.9 74.7 32 74.9 32.2 75.1 C 32.4 75.2 32.6 75.2 32.8 75.2 Z M 35.7 75.6 L 35.7 72 L 36.2 72 C 36.2 72 36.24 72.61 36.2 72.6 C 36.5 72.1 36.9 71.9 37.5 71.9 C 37.9 71.9 38.2 72 38.5 72.3 C 38.7 72.6 38.9 72.9 38.9 73.4 C 38.86 73.35 38.9 75.6 38.9 75.6 L 38.3 75.6 C 38.3 75.6 38.32 73.49 38.3 73.5 C 38.3 73.1 38.2 72.9 38.1 72.7 C 37.9 72.5 37.6 72.4 37.3 72.4 C 37 72.4 36.8 72.5 36.5 72.7 C 36.3 72.9 36.2 73.2 36.2 73.5 C 36.24 73.53 36.2 75.6 36.2 75.6 L 35.7 75.6 Z M 40.1 75.6 L 40.1 72 L 40.6 72 L 40.6 75.6 L 40.1 75.6 Z M 41.8 72.7 L 41.8 72 L 42.5 72 L 42.5 72.7 L 41.8 72.7 Z M 41.8 75.6 L 41.8 74.9 L 42.5 74.9 L 42.5 75.6 L 41.8 75.6 Z M 45.5 75.6 L 45.5 75.2 C 45.5 75.2 47.24 73.6 47.2 73.6 C 47.6 73.3 47.9 73 48 72.8 C 48.2 72.5 48.3 72.3 48.3 72.1 C 48.3 71.8 48.2 71.6 48 71.4 C 47.8 71.2 47.6 71.1 47.3 71.1 C 47 71.1 46.8 71.2 46.6 71.3 C 46.4 71.5 46.2 71.7 46 72 C 46 72 45.6 71.7 45.6 71.7 C 45.8 71.3 46.1 71 46.3 70.9 C 46.6 70.7 46.9 70.6 47.3 70.6 C 47.8 70.6 48.1 70.8 48.4 71 C 48.7 71.3 48.8 71.6 48.8 72 C 48.8 72 48.8 72 48.8 72 C 48.8 72.4 48.7 72.7 48.6 72.9 C 48.4 73.2 48.1 73.5 47.6 73.9 C 47.6 73.93 46.3 75.1 46.3 75.1 L 48.9 75.1 L 48.9 75.6 L 45.5 75.6 Z M 50.6 75.6 L 50.6 71.2 L 49.7 71.5 L 49.5 71.1 L 50.7 70.7 L 51.1 70.7 L 51.1 75.6 L 50.6 75.6 Z M 57.6 75 C 57.2 75.5 56.7 75.7 56.2 75.7 C 55.6 75.7 55.2 75.5 54.8 75.1 C 54.5 74.8 54.3 74.3 54.3 73.8 C 54.3 73.8 54.3 73.8 54.3 73.8 C 54.3 73.3 54.5 72.8 54.8 72.5 C 55.2 72.1 55.6 71.9 56.2 71.9 C 56.7 71.9 57.2 72.1 57.6 72.5 C 57.6 72.5 57.3 72.9 57.3 72.9 C 56.9 72.6 56.5 72.4 56.2 72.4 C 55.8 72.4 55.5 72.5 55.2 72.8 C 55 73.1 54.9 73.4 54.9 73.8 C 54.9 73.8 54.9 73.8 54.9 73.8 C 54.9 74.2 55 74.5 55.2 74.8 C 55.5 75.1 55.8 75.2 56.2 75.2 C 56.6 75.2 57 75 57.3 74.7 C 57.29 74.66 57.6 75 57.6 75 C 57.6 75 57.64 74.98 57.6 75 Z M 58.5 75.6 L 58.5 72 L 59.1 72 C 59.1 72 59.07 72.59 59.1 72.6 C 59.2 72.4 59.4 72.2 59.5 72.1 C 59.7 72 60 71.9 60.2 71.9 C 60.8 71.9 61.2 72.1 61.4 72.6 C 61.7 72.1 62.1 71.9 62.7 71.9 C 63.1 71.9 63.4 72 63.7 72.3 C 63.9 72.6 64 72.9 64 73.4 C 64.01 73.36 64 75.6 64 75.6 L 63.5 75.6 C 63.5 75.6 63.48 73.49 63.5 73.5 C 63.5 73.1 63.4 72.9 63.2 72.7 C 63.1 72.5 62.8 72.4 62.5 72.4 C 62.3 72.4 62 72.5 61.8 72.7 C 61.6 72.9 61.5 73.2 61.5 73.5 C 61.54 73.51 61.5 75.6 61.5 75.6 L 61 75.6 C 61 75.6 61 73.47 61 73.5 C 61 73.1 60.9 72.9 60.8 72.7 C 60.6 72.5 60.4 72.4 60.1 72.4 C 59.8 72.4 59.5 72.5 59.4 72.7 C 59.2 72.9 59.1 73.2 59.1 73.5 C 59.07 73.53 59.1 75.6 59.1 75.6 L 58.5 75.6 Z " stroke="none" fill="#000"/>  </g>  <g id="Polygon390653">    <path d="M 0.3 65.6 L 2.5 60.7 L 3 60.7 L 5.3 65.6 L 4.7 65.6 L 4.1 64.3 L 1.4 64.3 L 0.8 65.6 L 0.3 65.6 Z M 1.6 63.8 L 3.9 63.8 L 2.8 61.3 L 1.6 63.8 Z M 7.2 66.7 L 6.7 66.4 C 6.7 66.4 7.25 65.65 7.3 65.6 C 6.8 65.6 6.5 65.4 6.2 65 C 5.9 64.7 5.7 64.3 5.7 63.8 C 5.7 63.8 5.7 63.8 5.7 63.8 C 5.7 63.3 5.9 62.8 6.3 62.5 C 6.6 62.1 7.1 61.9 7.6 61.9 C 8.1 61.9 8.6 62.1 9 62.5 C 9 62.5 8.7 62.9 8.7 62.9 C 8.3 62.6 8 62.4 7.6 62.4 C 7.2 62.4 6.9 62.5 6.7 62.8 C 6.4 63.1 6.3 63.4 6.3 63.8 C 6.3 63.8 6.3 63.8 6.3 63.8 C 6.3 64.2 6.4 64.5 6.7 64.8 C 6.9 65.1 7.2 65.2 7.6 65.2 C 8 65.2 8.4 65 8.7 64.7 C 8.7 64.7 9.1 65 9.1 65 C 8.7 65.4 8.2 65.7 7.7 65.7 C 7.69 65.68 7.2 66.7 7.2 66.7 Z M 10 65.6 L 10 62 L 10.5 62 L 10.5 65.6 L 10 65.6 Z M 11.8 65.6 L 11.8 60.5 L 12.4 60.5 L 12.4 65.6 L 11.8 65.6 Z M 13.7 65.6 L 13.7 62 L 14.2 62 L 14.2 65.6 L 13.7 65.6 Z M 17.8 65.6 L 17.8 62.5 L 17.3 62.5 L 17.3 62 L 17.8 62 C 17.8 62 17.78 61.67 17.8 61.7 C 17.8 61.3 17.9 61 18.1 60.7 C 18.3 60.6 18.5 60.5 18.9 60.5 C 19.1 60.5 19.3 60.5 19.5 60.6 C 19.5 60.6 19.5 61 19.5 61 C 19.3 61 19.1 60.9 18.9 60.9 C 18.5 60.9 18.3 61.2 18.3 61.7 C 18.31 61.7 18.3 62 18.3 62 L 19.5 62 L 19.5 62.5 L 18.3 62.5 L 18.3 65.6 L 17.8 65.6 Z M 21.7 65.7 C 21.2 65.7 20.7 65.5 20.4 65.1 C 20 64.8 19.9 64.3 19.9 63.8 C 19.9 63.8 19.9 63.8 19.9 63.8 C 19.9 63.3 20 62.8 20.4 62.5 C 20.7 62.1 21.2 61.9 21.7 61.9 C 22.3 61.9 22.7 62.1 23.1 62.5 C 23.4 62.8 23.6 63.3 23.6 63.8 C 23.6 63.8 23.6 63.8 23.6 63.8 C 23.6 64.3 23.4 64.8 23.1 65.1 C 22.7 65.5 22.3 65.7 21.7 65.7 Z M 21.7 65.2 C 22.1 65.2 22.4 65.1 22.7 64.8 C 22.9 64.5 23.1 64.2 23.1 63.8 C 23.1 63.8 23.1 63.8 23.1 63.8 C 23.1 63.4 22.9 63.1 22.7 62.8 C 22.4 62.5 22.1 62.4 21.7 62.4 C 21.3 62.4 21 62.5 20.8 62.8 C 20.5 63.1 20.4 63.4 20.4 63.8 C 20.4 63.8 20.4 63.8 20.4 63.8 C 20.4 64.2 20.5 64.5 20.8 64.8 C 21 65.1 21.4 65.2 21.7 65.2 Z M 24.6 65.6 L 24.6 62 L 25.1 62 C 25.1 62 25.14 62.93 25.1 62.9 C 25.3 62.6 25.5 62.4 25.7 62.2 C 26 62 26.3 61.9 26.6 61.9 C 26.61 61.92 26.6 62.5 26.6 62.5 C 26.6 62.5 26.57 62.5 26.6 62.5 C 26.2 62.5 25.8 62.6 25.5 62.9 C 25.3 63.2 25.1 63.6 25.1 64.2 C 25.14 64.16 25.1 65.6 25.1 65.6 L 24.6 65.6 Z M 27.4 65.6 L 27.4 62 L 28 62 C 28 62 27.97 62.59 28 62.6 C 28.1 62.4 28.3 62.2 28.5 62.1 C 28.6 62 28.9 61.9 29.1 61.9 C 29.7 61.9 30.1 62.1 30.3 62.6 C 30.6 62.1 31 61.9 31.6 61.9 C 32 61.9 32.3 62 32.6 62.3 C 32.8 62.6 32.9 62.9 32.9 63.4 C 32.92 63.36 32.9 65.6 32.9 65.6 L 32.4 65.6 C 32.4 65.6 32.38 63.49 32.4 63.5 C 32.4 63.1 32.3 62.9 32.1 62.7 C 32 62.5 31.7 62.4 31.4 62.4 C 31.2 62.4 30.9 62.5 30.7 62.7 C 30.5 62.9 30.4 63.2 30.4 63.5 C 30.44 63.51 30.4 65.6 30.4 65.6 L 29.9 65.6 C 29.9 65.6 29.91 63.47 29.9 63.5 C 29.9 63.1 29.8 62.9 29.7 62.7 C 29.5 62.5 29.3 62.4 29 62.4 C 28.7 62.4 28.4 62.5 28.3 62.7 C 28.1 62.9 28 63.2 28 63.5 C 27.97 63.53 28 65.6 28 65.6 L 27.4 65.6 Z M 34 62.7 L 34 62 L 34.7 62 L 34.7 62.7 L 34 62.7 Z M 33.9 66.5 C 33.9 66.5 33.8 66.2 33.8 66.2 C 34.2 66.1 34.3 65.9 34.3 65.6 C 34.29 65.6 34 65.6 34 65.6 L 34 64.9 L 34.7 64.9 C 34.7 64.9 34.68 65.49 34.7 65.5 C 34.7 65.8 34.6 66 34.5 66.1 C 34.4 66.3 34.2 66.4 33.9 66.5 Z M 40.9 64.9 C 40.5 65.4 40 65.7 39.5 65.7 C 39 65.7 38.6 65.5 38.3 65.2 C 37.9 64.8 37.7 64.4 37.7 63.8 C 37.7 63.8 37.7 63.8 37.7 63.8 C 37.7 63.2 37.9 62.8 38.3 62.4 C 38.6 62.1 39 61.9 39.5 61.9 C 40 61.9 40.5 62.2 40.9 62.7 C 40.86 62.67 40.9 60.5 40.9 60.5 L 41.4 60.5 L 41.4 65.6 L 40.9 65.6 L 40.9 64.9 C 40.9 64.9 40.86 64.87 40.9 64.9 Z M 39.6 65.2 C 39.9 65.2 40.2 65.1 40.5 64.8 C 40.7 64.5 40.9 64.2 40.9 63.8 C 40.9 63.8 40.9 63.8 40.9 63.8 C 40.9 63.4 40.7 63 40.5 62.8 C 40.2 62.5 39.9 62.4 39.6 62.4 C 39.2 62.4 38.9 62.5 38.7 62.8 C 38.4 63 38.3 63.4 38.3 63.8 C 38.3 63.8 38.3 63.8 38.3 63.8 C 38.3 64.2 38.4 64.6 38.7 64.8 C 38.9 65.1 39.2 65.2 39.6 65.2 Z M 45.7 65 C 45.3 65.5 44.8 65.7 44.2 65.7 C 43.7 65.7 43.3 65.5 42.9 65.2 C 42.6 64.8 42.4 64.4 42.4 63.8 C 42.4 63.8 42.4 63.8 42.4 63.8 C 42.4 63.3 42.5 62.8 42.9 62.4 C 43.2 62.1 43.6 61.9 44.1 61.9 C 44.6 61.9 45 62.1 45.3 62.4 C 45.6 62.8 45.8 63.3 45.8 63.8 C 45.8 63.9 45.8 63.9 45.8 64 C 45.8 64 42.9 64 42.9 64 C 43 64.4 43.1 64.7 43.3 64.9 C 43.6 65.1 43.9 65.2 44.2 65.2 C 44.6 65.2 45 65 45.3 64.7 C 45.34 64.7 45.7 65 45.7 65 C 45.7 65 45.67 65 45.7 65 Z M 42.9 63.6 C 42.9 63.6 45.3 63.6 45.3 63.6 C 45.2 63.2 45.1 62.9 44.9 62.7 C 44.7 62.5 44.4 62.4 44.1 62.4 C 43.8 62.4 43.5 62.5 43.3 62.7 C 43.1 62.9 43 63.2 42.9 63.6 Z M 46.7 65.6 L 46.7 62 L 47.3 62 C 47.3 62 47.28 62.61 47.3 62.6 C 47.6 62.1 48 61.9 48.5 61.9 C 49 61.9 49.3 62 49.5 62.3 C 49.8 62.6 49.9 62.9 49.9 63.4 C 49.91 63.35 49.9 65.6 49.9 65.6 L 49.4 65.6 C 49.4 65.6 49.37 63.49 49.4 63.5 C 49.4 63.1 49.3 62.9 49.1 62.7 C 48.9 62.5 48.7 62.4 48.4 62.4 C 48.1 62.4 47.8 62.5 47.6 62.7 C 47.4 62.9 47.3 63.2 47.3 63.5 C 47.28 63.53 47.3 65.6 47.3 65.6 L 46.7 65.6 Z M 54 66.3 C 53.7 66.6 53.3 66.7 52.7 66.7 C 52 66.7 51.5 66.6 51 66.2 C 51 66.2 51.3 65.8 51.3 65.8 C 51.7 66.1 52.2 66.3 52.7 66.3 C 53.1 66.3 53.4 66.2 53.6 65.9 C 53.9 65.7 54 65.4 54 65 C 54 65 54 64.6 54 64.6 C 53.6 65.1 53.1 65.3 52.5 65.3 C 52.1 65.3 51.7 65.2 51.4 64.8 C 51 64.5 50.8 64.1 50.8 63.6 C 50.8 63.6 50.8 63.6 50.8 63.6 C 50.8 63.1 51 62.7 51.4 62.4 C 51.7 62.1 52.1 61.9 52.5 61.9 C 53.1 61.9 53.6 62.1 54 62.6 C 53.96 62.63 54 62 54 62 L 54.5 62 C 54.5 62 54.5 64.97 54.5 65 C 54.5 65.5 54.3 65.9 54 66.3 C 54 66.3 54 66.3 54 66.3 Z M 52.7 64.8 C 53 64.8 53.3 64.7 53.6 64.5 C 53.9 64.3 54 64 54 63.6 C 54 63.6 54 63.6 54 63.6 C 54 63.2 53.9 63 53.6 62.7 C 53.3 62.5 53 62.4 52.7 62.4 C 52.3 62.4 52 62.5 51.8 62.7 C 51.5 62.9 51.4 63.2 51.4 63.6 C 51.4 63.6 51.4 63.6 51.4 63.6 C 51.4 64 51.5 64.3 51.8 64.5 C 52 64.7 52.3 64.8 52.7 64.8 Z M 58.8 65 C 58.4 65.5 57.9 65.7 57.3 65.7 C 56.8 65.7 56.4 65.5 56 65.2 C 55.7 64.8 55.5 64.4 55.5 63.8 C 55.5 63.8 55.5 63.8 55.5 63.8 C 55.5 63.3 55.6 62.8 56 62.4 C 56.3 62.1 56.7 61.9 57.2 61.9 C 57.7 61.9 58.1 62.1 58.4 62.4 C 58.8 62.8 58.9 63.3 58.9 63.8 C 58.9 63.9 58.9 63.9 58.9 64 C 58.9 64 56 64 56 64 C 56.1 64.4 56.2 64.7 56.4 64.9 C 56.7 65.1 57 65.2 57.3 65.2 C 57.7 65.2 58.1 65 58.4 64.7 C 58.44 64.7 58.8 65 58.8 65 C 58.8 65 58.78 65 58.8 65 Z M 56 63.6 C 56 63.6 58.4 63.6 58.4 63.6 C 58.3 63.2 58.2 62.9 58 62.7 C 57.8 62.5 57.5 62.4 57.2 62.4 C 56.9 62.4 56.6 62.5 56.4 62.7 C 56.2 62.9 56.1 63.2 56 63.6 Z M 59.9 65.6 L 59.9 60.5 L 60.4 60.5 L 60.4 65.6 L 59.9 65.6 Z M 61.7 61.2 L 61.7 60.6 L 62.3 60.6 L 62.3 61.2 L 61.7 61.2 Z M 61.7 65.6 L 61.7 62 L 62.3 62 L 62.3 65.6 L 61.7 65.6 Z M 66.8 65.6 L 65.3 62 L 65.9 62 L 67.1 65 L 68.3 62 L 68.9 62 L 67.3 65.6 L 66.8 65.6 Z M 72.6 65 C 72.2 65.5 71.7 65.7 71.1 65.7 C 70.6 65.7 70.2 65.5 69.8 65.2 C 69.5 64.8 69.3 64.4 69.3 63.8 C 69.3 63.8 69.3 63.8 69.3 63.8 C 69.3 63.3 69.5 62.8 69.8 62.4 C 70.1 62.1 70.5 61.9 71 61.9 C 71.6 61.9 72 62.1 72.3 62.4 C 72.6 62.8 72.7 63.3 72.7 63.8 C 72.7 63.9 72.7 63.9 72.7 64 C 72.7 64 69.9 64 69.9 64 C 69.9 64.4 70 64.7 70.3 64.9 C 70.5 65.1 70.8 65.2 71.1 65.2 C 71.6 65.2 71.9 65 72.3 64.7 C 72.27 64.7 72.6 65 72.6 65 C 72.6 65 72.6 65 72.6 65 Z M 69.9 63.6 C 69.9 63.6 72.2 63.6 72.2 63.6 C 72.2 63.2 72 62.9 71.8 62.7 C 71.6 62.5 71.4 62.4 71 62.4 C 70.7 62.4 70.5 62.5 70.2 62.7 C 70 62.9 69.9 63.2 69.9 63.6 Z M 78.8 65 C 78.4 65.5 78 65.7 77.4 65.7 C 76.9 65.7 76.4 65.5 76.1 65.2 C 75.7 64.8 75.5 64.4 75.5 63.8 C 75.5 63.8 75.5 63.8 75.5 63.8 C 75.5 63.3 75.7 62.8 76 62.4 C 76.4 62.1 76.8 61.9 77.3 61.9 C 77.8 61.9 78.2 62.1 78.5 62.4 C 78.8 62.8 79 63.3 79 63.8 C 79 63.9 79 63.9 79 64 C 79 64 76.1 64 76.1 64 C 76.1 64.4 76.3 64.7 76.5 64.9 C 76.8 65.1 77 65.2 77.4 65.2 C 77.8 65.2 78.2 65 78.5 64.7 C 78.51 64.7 78.8 65 78.8 65 C 78.8 65 78.85 65 78.8 65 Z M 76.1 63.6 C 76.1 63.6 78.4 63.6 78.4 63.6 C 78.4 63.2 78.3 62.9 78.1 62.7 C 77.9 62.5 77.6 62.4 77.3 62.4 C 77 62.4 76.7 62.5 76.5 62.7 C 76.3 62.9 76.1 63.2 76.1 63.6 Z M 81.1 65.7 C 80.6 65.7 80.1 65.5 79.6 65.1 C 79.6 65.1 79.9 64.8 79.9 64.8 C 80.3 65.1 80.7 65.2 81.1 65.2 C 81.4 65.2 81.5 65.2 81.7 65.1 C 81.8 65 81.9 64.8 81.9 64.6 C 81.9 64.6 81.9 64.6 81.9 64.6 C 81.9 64.5 81.8 64.3 81.7 64.2 C 81.5 64.2 81.3 64.1 81 64 C 80.9 64 80.8 63.9 80.7 63.9 C 80.6 63.9 80.6 63.8 80.4 63.8 C 80.3 63.8 80.2 63.7 80.2 63.7 C 80.1 63.6 80.1 63.6 80 63.5 C 79.9 63.4 79.9 63.4 79.8 63.3 C 79.8 63.2 79.8 63.1 79.8 63 C 79.8 63 79.8 63 79.8 63 C 79.8 62.6 79.9 62.4 80.1 62.2 C 80.4 62 80.7 61.9 81 61.9 C 81.5 61.9 81.9 62.1 82.3 62.3 C 82.3 62.3 82.1 62.7 82.1 62.7 C 81.7 62.5 81.4 62.4 81 62.4 C 80.8 62.4 80.6 62.4 80.5 62.5 C 80.4 62.6 80.3 62.7 80.3 62.9 C 80.3 62.9 80.3 62.9 80.3 62.9 C 80.3 63 80.3 63 80.4 63.1 C 80.4 63.1 80.4 63.2 80.5 63.2 C 80.5 63.3 80.6 63.3 80.7 63.4 C 80.8 63.4 80.9 63.4 81 63.4 C 81 63.5 81.1 63.5 81.2 63.5 C 81.4 63.6 81.5 63.6 81.6 63.6 C 81.7 63.7 81.8 63.7 81.9 63.8 C 82 63.8 82.1 63.9 82.2 64 C 82.2 64 82.3 64.1 82.3 64.2 C 82.4 64.3 82.4 64.4 82.4 64.6 C 82.4 64.6 82.4 64.6 82.4 64.6 C 82.4 64.9 82.3 65.2 82 65.4 C 81.8 65.6 81.5 65.7 81.1 65.7 Z M 83.4 65.6 L 83.4 62 L 83.9 62 C 83.9 62 83.94 62.61 83.9 62.6 C 84.2 62.1 84.6 61.9 85.2 61.9 C 85.6 61.9 85.9 62 86.2 62.3 C 86.4 62.6 86.6 62.9 86.6 63.4 C 86.57 63.35 86.6 65.6 86.6 65.6 L 86 65.6 C 86 65.6 86.03 63.49 86 63.5 C 86 63.1 85.9 62.9 85.8 62.7 C 85.6 62.5 85.3 62.4 85 62.4 C 84.7 62.4 84.5 62.5 84.3 62.7 C 84 62.9 83.9 63.2 83.9 63.5 C 83.94 63.53 83.9 65.6 83.9 65.6 L 83.4 65.6 Z M 90.8 65 C 90.4 65.5 89.9 65.7 89.3 65.7 C 88.8 65.7 88.4 65.5 88 65.2 C 87.7 64.8 87.5 64.4 87.5 63.8 C 87.5 63.8 87.5 63.8 87.5 63.8 C 87.5 63.3 87.7 62.8 88 62.4 C 88.3 62.1 88.7 61.9 89.2 61.9 C 89.7 61.9 90.2 62.1 90.5 62.4 C 90.8 62.8 90.9 63.3 90.9 63.8 C 90.9 63.9 90.9 63.9 90.9 64 C 90.9 64 88 64 88 64 C 88.1 64.4 88.2 64.7 88.5 64.9 C 88.7 65.1 89 65.2 89.3 65.2 C 89.7 65.2 90.1 65 90.5 64.7 C 90.45 64.7 90.8 65 90.8 65 C 90.8 65 90.79 65 90.8 65 Z M 88 63.6 C 88 63.6 90.4 63.6 90.4 63.6 C 90.3 63.2 90.2 62.9 90 62.7 C 89.8 62.5 89.6 62.4 89.2 62.4 C 88.9 62.4 88.6 62.5 88.4 62.7 C 88.2 62.9 88.1 63.2 88 63.6 Z M 91.9 65.6 L 91.9 60.5 L 92.4 60.5 L 92.4 64 L 94.4 62 L 95 62 L 93.5 63.5 L 95.1 65.6 L 94.4 65.6 L 93.1 63.9 L 92.4 64.7 L 92.4 65.6 L 91.9 65.6 Z M 97.9 65.6 L 97.9 60.5 L 98.5 60.5 L 98.5 64 L 100.4 62 L 101.1 62 L 99.6 63.5 L 101.2 65.6 L 100.5 65.6 L 99.2 63.9 L 98.5 64.7 L 98.5 65.6 L 97.9 65.6 Z M 104.4 65 C 104.1 65.4 103.7 65.7 103.2 65.7 C 102.8 65.7 102.4 65.5 102.2 65.3 C 101.9 65 101.8 64.7 101.8 64.2 C 101.8 64.23 101.8 62 101.8 62 L 102.3 62 C 102.3 62 102.34 64.09 102.3 64.1 C 102.3 64.4 102.4 64.7 102.6 64.9 C 102.8 65.1 103 65.2 103.3 65.2 C 103.7 65.2 103.9 65.1 104.1 64.9 C 104.3 64.7 104.4 64.4 104.4 64.1 C 104.42 64.05 104.4 62 104.4 62 L 105 62 L 105 65.6 L 104.4 65.6 L 104.4 65 C 104.4 65 104.42 64.97 104.4 65 Z M 106.2 65.6 L 106.2 60.5 L 106.8 60.5 L 106.8 65.6 L 106.2 65.6 Z M 108.1 65.6 L 108.1 60.5 L 108.6 60.5 L 108.6 65.6 L 108.1 65.6 Z M 112.2 65.1 C 111.9 65.5 111.5 65.7 110.9 65.7 C 110.6 65.7 110.2 65.6 110 65.4 C 109.7 65.2 109.6 64.9 109.6 64.5 C 109.6 64.5 109.6 64.5 109.6 64.5 C 109.6 64.2 109.7 63.9 110 63.7 C 110.3 63.5 110.7 63.4 111.1 63.4 C 111.5 63.4 111.9 63.4 112.2 63.5 C 112.2 63.5 112.2 63.4 112.2 63.4 C 112.2 63.1 112.1 62.8 112 62.7 C 111.8 62.5 111.5 62.4 111.2 62.4 C 110.8 62.4 110.4 62.5 110.1 62.7 C 110.1 62.7 109.9 62.2 109.9 62.2 C 110.3 62 110.8 61.9 111.2 61.9 C 111.7 61.9 112.1 62.1 112.4 62.3 C 112.6 62.6 112.8 62.9 112.8 63.4 C 112.75 63.39 112.8 65.6 112.8 65.6 L 112.2 65.6 L 112.2 65.1 C 112.2 65.1 112.24 65.05 112.2 65.1 Z M 111 65.2 C 111.4 65.2 111.7 65.2 111.9 65 C 112.1 64.8 112.2 64.6 112.2 64.3 C 112.2 64.3 112.2 63.9 112.2 63.9 C 111.9 63.8 111.5 63.8 111.2 63.8 C 110.8 63.8 110.6 63.8 110.4 64 C 110.2 64.1 110.1 64.3 110.1 64.5 C 110.1 64.5 110.1 64.5 110.1 64.5 C 110.1 64.7 110.2 64.9 110.4 65.1 C 110.6 65.2 110.8 65.2 111 65.2 Z M 113.9 65.6 L 113.9 62 L 114.4 62 C 114.4 62 114.44 62.61 114.4 62.6 C 114.7 62.1 115.1 61.9 115.7 61.9 C 116.1 61.9 116.4 62 116.7 62.3 C 116.9 62.6 117.1 62.9 117.1 63.4 C 117.07 63.35 117.1 65.6 117.1 65.6 L 116.5 65.6 C 116.5 65.6 116.53 63.49 116.5 63.5 C 116.5 63.1 116.4 62.9 116.3 62.7 C 116.1 62.5 115.8 62.4 115.5 62.4 C 115.2 62.4 115 62.5 114.7 62.7 C 114.5 62.9 114.4 63.2 114.4 63.5 C 114.44 63.53 114.4 65.6 114.4 65.6 L 113.9 65.6 Z M 118.3 65.6 L 118.3 62 L 118.8 62 L 118.8 65.6 L 118.3 65.6 Z M 120.1 65.6 L 120.1 62 L 120.6 62 C 120.6 62 120.59 62.59 120.6 62.6 C 120.7 62.4 120.9 62.2 121.1 62.1 C 121.3 62 121.5 61.9 121.8 61.9 C 122.3 61.9 122.7 62.1 122.9 62.6 C 123.2 62.1 123.7 61.9 124.2 61.9 C 124.6 61.9 124.9 62 125.2 62.3 C 125.4 62.6 125.5 62.9 125.5 63.4 C 125.54 63.36 125.5 65.6 125.5 65.6 L 125 65.6 C 125 65.6 125 63.49 125 63.5 C 125 63.1 124.9 62.9 124.8 62.7 C 124.6 62.5 124.4 62.4 124.1 62.4 C 123.8 62.4 123.5 62.5 123.4 62.7 C 123.2 62.9 123.1 63.2 123.1 63.5 C 123.06 63.51 123.1 65.6 123.1 65.6 L 122.5 65.6 C 122.5 65.6 122.53 63.47 122.5 63.5 C 122.5 63.1 122.4 62.9 122.3 62.7 C 122.1 62.5 121.9 62.4 121.6 62.4 C 121.3 62.4 121.1 62.5 120.9 62.7 C 120.7 62.9 120.6 63.2 120.6 63.5 C 120.59 63.53 120.6 65.6 120.6 65.6 L 120.1 65.6 Z " stroke="none" fill="#000"/>  </g>  <g id="Polygon390652">    <path d="M 0.6 41.2 L 0.6 40.6 L 1.2 40.6 L 1.2 41.2 L 0.6 41.2 Z M 0.7 45.6 L 0.7 42 L 1.2 42 L 1.2 45.6 L 0.7 45.6 Z M 3.7 46.7 L 3.2 46.4 C 3.2 46.4 3.74 45.65 3.7 45.6 C 3.3 45.6 2.9 45.4 2.6 45 C 2.4 44.7 2.2 44.3 2.2 43.8 C 2.2 43.8 2.2 43.8 2.2 43.8 C 2.2 43.3 2.4 42.8 2.8 42.5 C 3.1 42.1 3.5 41.9 4.1 41.9 C 4.6 41.9 5.1 42.1 5.5 42.5 C 5.5 42.5 5.2 42.9 5.2 42.9 C 4.8 42.6 4.5 42.4 4.1 42.4 C 3.7 42.4 3.4 42.5 3.1 42.8 C 2.9 43.1 2.8 43.4 2.8 43.8 C 2.8 43.8 2.8 43.8 2.8 43.8 C 2.8 44.2 2.9 44.5 3.2 44.8 C 3.4 45.1 3.7 45.2 4.1 45.2 C 4.5 45.2 4.9 45 5.2 44.7 C 5.2 44.7 5.6 45 5.6 45 C 5.2 45.4 4.7 45.7 4.2 45.7 C 4.18 45.68 3.7 46.7 3.7 46.7 Z M 6.5 41.2 L 6.5 40.6 L 7.1 40.6 L 7.1 41.2 L 6.5 41.2 Z M 6.5 45.6 L 6.5 42 L 7 42 L 7 45.6 L 6.5 45.6 Z M 8.3 45.6 L 8.3 42 L 8.8 42 C 8.8 42 8.82 42.61 8.8 42.6 C 9.1 42.1 9.5 41.9 10.1 41.9 C 10.5 41.9 10.8 42 11.1 42.3 C 11.3 42.6 11.4 42.9 11.4 43.4 C 11.44 43.35 11.4 45.6 11.4 45.6 L 10.9 45.6 C 10.9 45.6 10.91 43.49 10.9 43.5 C 10.9 43.1 10.8 42.9 10.6 42.7 C 10.5 42.5 10.2 42.4 9.9 42.4 C 9.6 42.4 9.3 42.5 9.1 42.7 C 8.9 42.9 8.8 43.2 8.8 43.5 C 8.82 43.53 8.8 45.6 8.8 45.6 L 8.3 45.6 Z M 14.7 41.2 L 14.7 40.6 L 15.3 40.6 L 15.3 41.2 L 14.7 41.2 Z M 14.7 45.6 L 14.7 42 L 15.3 42 L 15.3 45.6 L 14.7 45.6 Z M 19.4 44.9 C 19.1 45.4 18.6 45.7 18.1 45.7 C 17.6 45.7 17.2 45.5 16.8 45.2 C 16.5 44.8 16.3 44.4 16.3 43.8 C 16.3 43.8 16.3 43.8 16.3 43.8 C 16.3 43.2 16.5 42.8 16.8 42.4 C 17.2 42.1 17.6 41.9 18.1 41.9 C 18.6 41.9 19.1 42.2 19.4 42.7 C 19.44 42.67 19.4 40.5 19.4 40.5 L 20 40.5 L 20 45.6 L 19.4 45.6 L 19.4 44.9 C 19.4 44.9 19.44 44.87 19.4 44.9 Z M 18.2 45.2 C 18.5 45.2 18.8 45.1 19.1 44.8 C 19.3 44.5 19.5 44.2 19.5 43.8 C 19.5 43.8 19.5 43.8 19.5 43.8 C 19.5 43.4 19.3 43 19.1 42.8 C 18.8 42.5 18.5 42.4 18.2 42.4 C 17.8 42.4 17.5 42.5 17.2 42.8 C 17 43 16.9 43.4 16.9 43.8 C 16.9 43.8 16.9 43.8 16.9 43.8 C 16.9 44.2 17 44.6 17.2 44.8 C 17.5 45.1 17.8 45.2 18.2 45.2 Z M 24.3 45 C 23.9 45.5 23.4 45.7 22.8 45.7 C 22.3 45.7 21.8 45.5 21.5 45.2 C 21.1 44.8 21 44.4 21 43.8 C 21 43.8 21 43.8 21 43.8 C 21 43.3 21.1 42.8 21.5 42.4 C 21.8 42.1 22.2 41.9 22.7 41.9 C 23.2 41.9 23.6 42.1 23.9 42.4 C 24.2 42.8 24.4 43.3 24.4 43.8 C 24.4 43.9 24.4 43.9 24.4 44 C 24.4 44 21.5 44 21.5 44 C 21.5 44.4 21.7 44.7 21.9 44.9 C 22.2 45.1 22.4 45.2 22.8 45.2 C 23.2 45.2 23.6 45 23.9 44.7 C 23.92 44.7 24.3 45 24.3 45 C 24.3 45 24.25 45 24.3 45 Z M 21.5 43.6 C 21.5 43.6 23.8 43.6 23.8 43.6 C 23.8 43.2 23.7 42.9 23.5 42.7 C 23.3 42.5 23 42.4 22.7 42.4 C 22.4 42.4 22.1 42.5 21.9 42.7 C 21.7 42.9 21.5 43.2 21.5 43.6 Z M 27.7 45.1 C 27.4 45.5 27 45.7 26.4 45.7 C 26 45.7 25.7 45.6 25.5 45.4 C 25.2 45.2 25.1 44.9 25.1 44.5 C 25.1 44.5 25.1 44.5 25.1 44.5 C 25.1 44.2 25.2 43.9 25.5 43.7 C 25.8 43.5 26.1 43.4 26.6 43.4 C 27 43.4 27.3 43.4 27.7 43.5 C 27.7 43.5 27.7 43.4 27.7 43.4 C 27.7 43.1 27.6 42.8 27.4 42.7 C 27.2 42.5 27 42.4 26.6 42.4 C 26.3 42.4 25.9 42.5 25.5 42.7 C 25.5 42.7 25.4 42.2 25.4 42.2 C 25.8 42 26.2 41.9 26.7 41.9 C 27.2 41.9 27.6 42.1 27.9 42.3 C 28.1 42.6 28.2 42.9 28.2 43.4 C 28.23 43.39 28.2 45.6 28.2 45.6 L 27.7 45.6 L 27.7 45.1 C 27.7 45.1 27.71 45.05 27.7 45.1 Z M 26.5 45.2 C 26.8 45.2 27.1 45.2 27.4 45 C 27.6 44.8 27.7 44.6 27.7 44.3 C 27.7 44.3 27.7 43.9 27.7 43.9 C 27.4 43.8 27 43.8 26.7 43.8 C 26.3 43.8 26.1 43.8 25.9 44 C 25.7 44.1 25.6 44.3 25.6 44.5 C 25.6 44.5 25.6 44.5 25.6 44.5 C 25.6 44.7 25.7 44.9 25.9 45.1 C 26 45.2 26.3 45.2 26.5 45.2 Z M 29.4 45.6 L 29.4 40.5 L 30 40.5 L 30 45.6 L 29.4 45.6 Z " stroke="none" fill="#000"/>  </g>  <g id="Polygon390651">    <path d="M 0.7 35.6 L 0.7 30.7 L 1.2 30.7 L 1.2 32.9 L 4.1 32.9 L 4.1 30.7 L 4.6 30.7 L 4.6 35.6 L 4.1 35.6 L 4.1 33.4 L 1.2 33.4 L 1.2 35.6 L 0.7 35.6 Z M 8.3 35.1 C 8 35.5 7.6 35.7 7 35.7 C 6.6 35.7 6.3 35.6 6.1 35.4 C 5.8 35.2 5.6 34.9 5.6 34.5 C 5.6 34.5 5.6 34.5 5.6 34.5 C 5.6 34.2 5.8 33.9 6.1 33.7 C 6.4 33.5 6.7 33.4 7.2 33.4 C 7.6 33.4 7.9 33.4 8.3 33.5 C 8.3 33.5 8.3 33.4 8.3 33.4 C 8.3 33.1 8.2 32.8 8 32.7 C 7.8 32.5 7.6 32.4 7.2 32.4 C 6.9 32.4 6.5 32.5 6.1 32.7 C 6.1 32.7 6 32.2 6 32.2 C 6.4 32 6.8 31.9 7.3 31.9 C 7.8 31.9 8.2 32.1 8.5 32.3 C 8.7 32.6 8.8 32.9 8.8 33.4 C 8.83 33.39 8.8 35.6 8.8 35.6 L 8.3 35.6 L 8.3 35.1 C 8.3 35.1 8.31 35.05 8.3 35.1 Z M 7.1 35.2 C 7.4 35.2 7.7 35.2 8 35 C 8.2 34.8 8.3 34.6 8.3 34.3 C 8.3 34.3 8.3 33.9 8.3 33.9 C 8 33.8 7.6 33.8 7.3 33.8 C 6.9 33.8 6.7 33.8 6.5 34 C 6.3 34.1 6.2 34.3 6.2 34.5 C 6.2 34.5 6.2 34.5 6.2 34.5 C 6.2 34.7 6.3 34.9 6.5 35.1 C 6.6 35.2 6.9 35.2 7.1 35.2 Z M 10 35.6 L 10 32 L 10.5 32 C 10.5 32 10.51 32.59 10.5 32.6 C 10.7 32.4 10.8 32.2 11 32.1 C 11.2 32 11.4 31.9 11.7 31.9 C 12.2 31.9 12.6 32.1 12.8 32.6 C 13.2 32.1 13.6 31.9 14.1 31.9 C 14.5 31.9 14.9 32 15.1 32.3 C 15.3 32.6 15.5 32.9 15.5 33.4 C 15.46 33.36 15.5 35.6 15.5 35.6 L 14.9 35.6 C 14.9 35.6 14.92 33.49 14.9 33.5 C 14.9 33.1 14.8 32.9 14.7 32.7 C 14.5 32.5 14.3 32.4 14 32.4 C 13.7 32.4 13.5 32.5 13.3 32.7 C 13.1 32.9 13 33.2 13 33.5 C 12.98 33.51 13 35.6 13 35.6 L 12.5 35.6 C 12.5 35.6 12.45 33.47 12.5 33.5 C 12.5 33.1 12.4 32.9 12.2 32.7 C 12 32.5 11.8 32.4 11.5 32.4 C 11.2 32.4 11 32.5 10.8 32.7 C 10.6 32.9 10.5 33.2 10.5 33.5 C 10.51 33.53 10.5 35.6 10.5 35.6 L 10 35.6 Z M 19.2 35 C 18.9 35.4 18.5 35.7 17.9 35.7 C 17.5 35.7 17.2 35.5 16.9 35.3 C 16.7 35 16.6 34.7 16.6 34.2 C 16.55 34.23 16.6 32 16.6 32 L 17.1 32 C 17.1 32 17.09 34.09 17.1 34.1 C 17.1 34.4 17.2 34.7 17.4 34.9 C 17.5 35.1 17.8 35.2 18.1 35.2 C 18.4 35.2 18.7 35.1 18.9 34.9 C 19.1 34.7 19.2 34.4 19.2 34.1 C 19.18 34.05 19.2 32 19.2 32 L 19.7 32 L 19.7 35.6 L 19.2 35.6 L 19.2 35 C 19.2 35 19.18 34.97 19.2 35 Z M 20.9 35.6 L 20.9 32 L 21.5 32 C 21.5 32 21.46 32.93 21.5 32.9 C 21.6 32.6 21.8 32.4 22.1 32.2 C 22.3 32 22.6 31.9 22.9 31.9 C 22.94 31.92 22.9 32.5 22.9 32.5 C 22.9 32.5 22.9 32.5 22.9 32.5 C 22.5 32.5 22.1 32.6 21.9 32.9 C 21.6 33.2 21.5 33.6 21.5 34.2 C 21.46 34.16 21.5 35.6 21.5 35.6 L 20.9 35.6 Z M 27.1 35.6 L 25.5 32 L 26.1 32 L 27.3 35 L 28.5 32 L 29.1 32 L 27.5 35.6 L 27.1 35.6 Z M 32.8 35 C 32.4 35.5 31.9 35.7 31.3 35.7 C 30.8 35.7 30.4 35.5 30.1 35.2 C 29.7 34.8 29.5 34.4 29.5 33.8 C 29.5 33.8 29.5 33.8 29.5 33.8 C 29.5 33.3 29.7 32.8 30 32.4 C 30.4 32.1 30.8 31.9 31.3 31.9 C 31.8 31.9 32.2 32.1 32.5 32.4 C 32.8 32.8 33 33.3 33 33.8 C 33 33.9 33 33.9 32.9 34 C 32.9 34 30.1 34 30.1 34 C 30.1 34.4 30.3 34.7 30.5 34.9 C 30.7 35.1 31 35.2 31.4 35.2 C 31.8 35.2 32.2 35 32.5 34.7 C 32.49 34.7 32.8 35 32.8 35 C 32.8 35 32.83 35 32.8 35 Z M 30.1 33.6 C 30.1 33.6 32.4 33.6 32.4 33.6 C 32.4 33.2 32.3 32.9 32.1 32.7 C 31.9 32.5 31.6 32.4 31.3 32.4 C 30.9 32.4 30.7 32.5 30.5 32.7 C 30.2 32.9 30.1 33.2 30.1 33.6 Z M 36 35.6 L 36 30.5 L 36.5 30.5 L 36.5 34 L 38.5 32 L 39.2 32 L 37.6 33.5 L 39.2 35.6 L 38.6 35.6 L 37.3 33.9 L 36.5 34.7 L 36.5 35.6 L 36 35.6 Z M 40 35.6 L 40 32 L 40.5 32 C 40.5 32 40.52 32.93 40.5 32.9 C 40.7 32.6 40.9 32.4 41.1 32.2 C 41.4 32 41.7 31.9 42 31.9 C 42 31.92 42 32.5 42 32.5 C 42 32.5 41.96 32.5 42 32.5 C 41.5 32.5 41.2 32.6 40.9 32.9 C 40.7 33.2 40.5 33.6 40.5 34.2 C 40.52 34.16 40.5 35.6 40.5 35.6 L 40 35.6 Z M 45.7 35 C 45.3 35.5 44.8 35.7 44.2 35.7 C 43.7 35.7 43.3 35.5 43 35.2 C 42.6 34.8 42.4 34.4 42.4 33.8 C 42.4 33.8 42.4 33.8 42.4 33.8 C 42.4 33.3 42.6 32.8 42.9 32.4 C 43.3 32.1 43.7 31.9 44.2 31.9 C 44.7 31.9 45.1 32.1 45.4 32.4 C 45.7 32.8 45.9 33.3 45.9 33.8 C 45.9 33.9 45.9 33.9 45.9 34 C 45.9 34 43 34 43 34 C 43 34.4 43.2 34.7 43.4 34.9 C 43.6 35.1 43.9 35.2 44.3 35.2 C 44.7 35.2 45.1 35 45.4 34.7 C 45.4 34.7 45.7 35 45.7 35 C 45.7 35 45.74 35 45.7 35 Z M 43 33.6 C 43 33.6 45.3 33.6 45.3 33.6 C 45.3 33.2 45.2 32.9 45 32.7 C 44.8 32.5 44.5 32.4 44.2 32.4 C 43.8 32.4 43.6 32.5 43.4 32.7 C 43.2 32.9 43 33.2 43 33.6 Z M 46.8 35.6 L 46.8 32 L 47.3 32 C 47.3 32 47.35 32.59 47.3 32.6 C 47.5 32.4 47.7 32.2 47.8 32.1 C 48 32 48.2 31.9 48.5 31.9 C 49.1 31.9 49.4 32.1 49.7 32.6 C 50 32.1 50.4 31.9 51 31.9 C 51.4 31.9 51.7 32 51.9 32.3 C 52.2 32.6 52.3 32.9 52.3 33.4 C 52.3 33.36 52.3 35.6 52.3 35.6 L 51.8 35.6 C 51.8 35.6 51.76 33.49 51.8 33.5 C 51.8 33.1 51.7 32.9 51.5 32.7 C 51.3 32.5 51.1 32.4 50.8 32.4 C 50.5 32.4 50.3 32.5 50.1 32.7 C 49.9 32.9 49.8 33.2 49.8 33.5 C 49.82 33.51 49.8 35.6 49.8 35.6 L 49.3 35.6 C 49.3 35.6 49.29 33.47 49.3 33.5 C 49.3 33.1 49.2 32.9 49 32.7 C 48.9 32.5 48.6 32.4 48.4 32.4 C 48.1 32.4 47.8 32.5 47.6 32.7 C 47.4 32.9 47.3 33.2 47.3 33.5 C 47.35 33.53 47.3 35.6 47.3 35.6 L 46.8 35.6 Z M 55.8 35.1 C 55.5 35.5 55.1 35.7 54.5 35.7 C 54.2 35.7 53.8 35.6 53.6 35.4 C 53.3 35.2 53.2 34.9 53.2 34.5 C 53.2 34.5 53.2 34.5 53.2 34.5 C 53.2 34.2 53.3 33.9 53.6 33.7 C 53.9 33.5 54.3 33.4 54.7 33.4 C 55.1 33.4 55.5 33.4 55.8 33.5 C 55.8 33.5 55.8 33.4 55.8 33.4 C 55.8 33.1 55.7 32.8 55.6 32.7 C 55.4 32.5 55.1 32.4 54.8 32.4 C 54.4 32.4 54 32.5 53.7 32.7 C 53.7 32.7 53.5 32.2 53.5 32.2 C 53.9 32 54.4 31.9 54.8 31.9 C 55.3 31.9 55.7 32.1 56 32.3 C 56.2 32.6 56.3 32.9 56.3 33.4 C 56.35 33.39 56.3 35.6 56.3 35.6 L 55.8 35.6 L 55.8 35.1 C 55.8 35.1 55.83 35.05 55.8 35.1 Z M 54.6 35.2 C 55 35.2 55.3 35.2 55.5 35 C 55.7 34.8 55.8 34.6 55.8 34.3 C 55.8 34.3 55.8 33.9 55.8 33.9 C 55.5 33.8 55.1 33.8 54.8 33.8 C 54.4 33.8 54.2 33.8 54 34 C 53.8 34.1 53.7 34.3 53.7 34.5 C 53.7 34.5 53.7 34.5 53.7 34.5 C 53.7 34.7 53.8 34.9 54 35.1 C 54.2 35.2 54.4 35.2 54.6 35.2 Z M 57.5 35.6 L 57.5 30.5 L 58.1 30.5 L 58.1 35.6 L 57.5 35.6 Z M 61.7 35.1 C 61.4 35.5 61 35.7 60.4 35.7 C 60.1 35.7 59.7 35.6 59.5 35.4 C 59.2 35.2 59.1 34.9 59.1 34.5 C 59.1 34.5 59.1 34.5 59.1 34.5 C 59.1 34.2 59.2 33.9 59.5 33.7 C 59.8 33.5 60.1 33.4 60.6 33.4 C 61 33.4 61.4 33.4 61.7 33.5 C 61.7 33.5 61.7 33.4 61.7 33.4 C 61.7 33.1 61.6 32.8 61.4 32.7 C 61.3 32.5 61 32.4 60.6 32.4 C 60.3 32.4 59.9 32.5 59.5 32.7 C 59.5 32.7 59.4 32.2 59.4 32.2 C 59.8 32 60.3 31.9 60.7 31.9 C 61.2 31.9 61.6 32.1 61.9 32.3 C 62.1 32.6 62.2 32.9 62.2 33.4 C 62.24 33.39 62.2 35.6 62.2 35.6 L 61.7 35.6 L 61.7 35.1 C 61.7 35.1 61.73 35.05 61.7 35.1 Z M 60.5 35.2 C 60.9 35.2 61.1 35.2 61.4 35 C 61.6 34.8 61.7 34.6 61.7 34.3 C 61.7 34.3 61.7 33.9 61.7 33.9 C 61.4 33.8 61 33.8 60.7 33.8 C 60.3 33.8 60.1 33.8 59.9 34 C 59.7 34.1 59.6 34.3 59.6 34.5 C 59.6 34.5 59.6 34.5 59.6 34.5 C 59.6 34.7 59.7 34.9 59.9 35.1 C 60.1 35.2 60.3 35.2 60.5 35.2 Z M 63.4 35.6 L 63.4 32 L 63.9 32 C 63.9 32 63.93 32.93 63.9 32.9 C 64.1 32.6 64.3 32.4 64.5 32.2 C 64.8 32 65.1 31.9 65.4 31.9 C 65.41 31.92 65.4 32.5 65.4 32.5 C 65.4 32.5 65.37 32.5 65.4 32.5 C 64.9 32.5 64.6 32.6 64.3 32.9 C 64.1 33.2 63.9 33.6 63.9 34.2 C 63.93 34.16 63.9 35.6 63.9 35.6 L 63.4 35.6 Z M 66.3 35.6 L 66.3 32 L 66.8 32 L 66.8 35.6 L 66.3 35.6 Z M 73.1 34.9 C 72.7 35.4 72.2 35.7 71.7 35.7 C 71.2 35.7 70.8 35.5 70.5 35.2 C 70.1 34.8 70 34.4 70 33.8 C 70 33.8 70 33.8 70 33.8 C 70 33.2 70.1 32.8 70.5 32.4 C 70.8 32.1 71.2 31.9 71.7 31.9 C 72.3 31.9 72.7 32.2 73.1 32.7 C 73.07 32.67 73.1 30.5 73.1 30.5 L 73.6 30.5 L 73.6 35.6 L 73.1 35.6 L 73.1 34.9 C 73.1 34.9 73.07 34.87 73.1 34.9 Z M 71.8 35.2 C 72.1 35.2 72.4 35.1 72.7 34.8 C 73 34.5 73.1 34.2 73.1 33.8 C 73.1 33.8 73.1 33.8 73.1 33.8 C 73.1 33.4 73 33 72.7 32.8 C 72.4 32.5 72.1 32.4 71.8 32.4 C 71.4 32.4 71.1 32.5 70.9 32.8 C 70.6 33 70.5 33.4 70.5 33.8 C 70.5 33.8 70.5 33.8 70.5 33.8 C 70.5 34.2 70.6 34.6 70.9 34.8 C 71.1 35.1 71.4 35.2 71.8 35.2 Z M 76.6 31.4 L 76.6 30.8 L 77.3 30.8 L 77.3 31.4 L 76.6 31.4 Z M 75.4 31.4 L 75.4 30.8 L 76 30.8 L 76 31.4 L 75.4 31.4 Z M 77.4 35 C 77.1 35.4 76.7 35.7 76.1 35.7 C 75.7 35.7 75.4 35.5 75.1 35.3 C 74.9 35 74.8 34.7 74.8 34.2 C 74.76 34.23 74.8 32 74.8 32 L 75.3 32 C 75.3 32 75.3 34.09 75.3 34.1 C 75.3 34.4 75.4 34.7 75.6 34.9 C 75.7 35.1 76 35.2 76.3 35.2 C 76.6 35.2 76.9 35.1 77.1 34.9 C 77.3 34.7 77.4 34.4 77.4 34.1 C 77.38 34.05 77.4 32 77.4 32 L 77.9 32 L 77.9 35.6 L 77.4 35.6 L 77.4 35 C 77.4 35 77.38 34.97 77.4 35 Z M 78.9 35.6 L 78.9 35.3 L 81.3 32.4 L 79 32.4 L 79 32 L 82.1 32 L 82.1 32.3 L 79.6 35.1 L 82.1 35.1 L 82.1 35.6 L 78.9 35.6 Z M 86 35 C 85.6 35.5 85.1 35.7 84.5 35.7 C 84 35.7 83.6 35.5 83.2 35.2 C 82.9 34.8 82.7 34.4 82.7 33.8 C 82.7 33.8 82.7 33.8 82.7 33.8 C 82.7 33.3 82.9 32.8 83.2 32.4 C 83.5 32.1 83.9 31.9 84.4 31.9 C 84.9 31.9 85.4 32.1 85.7 32.4 C 86 32.8 86.1 33.3 86.1 33.8 C 86.1 33.9 86.1 33.9 86.1 34 C 86.1 34 83.2 34 83.2 34 C 83.3 34.4 83.4 34.7 83.7 34.9 C 83.9 35.1 84.2 35.2 84.5 35.2 C 84.9 35.2 85.3 35 85.7 34.7 C 85.65 34.7 86 35 86 35 C 86 35 85.99 35 86 35 Z M 83.2 33.6 C 83.2 33.6 85.6 33.6 85.6 33.6 C 85.5 33.2 85.4 32.9 85.2 32.7 C 85 32.5 84.8 32.4 84.4 32.4 C 84.1 32.4 83.8 32.5 83.6 32.7 C 83.4 32.9 83.3 33.2 83.2 33.6 Z M 87.1 35.6 L 87.1 30.5 L 87.6 30.5 L 87.6 35.6 L 87.1 35.6 Z M 90.8 35.5 C 90.6 35.6 90.4 35.7 90.1 35.7 C 89.8 35.7 89.5 35.6 89.4 35.4 C 89.2 35.2 89.1 35 89.1 34.6 C 89.09 34.64 89.1 32.5 89.1 32.5 L 88.6 32.5 L 88.6 32 L 89.1 32 L 89.1 30.9 L 89.6 30.9 L 89.6 32 L 90.8 32 L 90.8 32.5 L 89.6 32.5 C 89.6 32.5 89.63 34.57 89.6 34.6 C 89.6 35 89.8 35.2 90.2 35.2 C 90.4 35.2 90.6 35.1 90.8 35 C 90.76 35.05 90.8 35.5 90.8 35.5 C 90.8 35.5 90.76 35.51 90.8 35.5 Z M 91.7 35.6 L 91.7 32 L 92.3 32 C 92.3 32 92.27 32.59 92.3 32.6 C 92.4 32.4 92.6 32.2 92.7 32.1 C 92.9 32 93.2 31.9 93.4 31.9 C 94 31.9 94.4 32.1 94.6 32.6 C 94.9 32.1 95.3 31.9 95.9 31.9 C 96.3 31.9 96.6 32 96.9 32.3 C 97.1 32.6 97.2 32.9 97.2 33.4 C 97.21 33.36 97.2 35.6 97.2 35.6 L 96.7 35.6 C 96.7 35.6 96.68 33.49 96.7 33.5 C 96.7 33.1 96.6 32.9 96.4 32.7 C 96.3 32.5 96 32.4 95.7 32.4 C 95.5 32.4 95.2 32.5 95 32.7 C 94.8 32.9 94.7 33.2 94.7 33.5 C 94.74 33.51 94.7 35.6 94.7 35.6 L 94.2 35.6 C 94.2 35.6 94.2 33.47 94.2 33.5 C 94.2 33.1 94.1 32.9 94 32.7 C 93.8 32.5 93.6 32.4 93.3 32.4 C 93 32.4 92.7 32.5 92.6 32.7 C 92.4 32.9 92.3 33.2 92.3 33.5 C 92.27 33.53 92.3 35.6 92.3 35.6 L 91.7 35.6 Z M 101.4 35 C 101 35.5 100.5 35.7 99.9 35.7 C 99.4 35.7 99 35.5 98.7 35.2 C 98.3 34.8 98.1 34.4 98.1 33.8 C 98.1 33.8 98.1 33.8 98.1 33.8 C 98.1 33.3 98.3 32.8 98.6 32.4 C 99 32.1 99.4 31.9 99.9 31.9 C 100.4 31.9 100.8 32.1 101.1 32.4 C 101.4 32.8 101.6 33.3 101.6 33.8 C 101.6 33.9 101.6 33.9 101.6 34 C 101.6 34 98.7 34 98.7 34 C 98.7 34.4 98.9 34.7 99.1 34.9 C 99.3 35.1 99.6 35.2 100 35.2 C 100.4 35.2 100.8 35 101.1 34.7 C 101.1 34.7 101.4 35 101.4 35 C 101.4 35 101.44 35 101.4 35 Z M 98.7 33.6 C 98.7 33.6 101 33.6 101 33.6 C 101 33.2 100.9 32.9 100.7 32.7 C 100.5 32.5 100.2 32.4 99.9 32.4 C 99.5 32.4 99.3 32.5 99.1 32.7 C 98.8 32.9 98.7 33.2 98.7 33.6 Z M 101.8 36.5 L 105 30 L 105.5 30 L 102.3 36.5 L 101.8 36.5 Z M 106.7 35.7 C 106.1 35.7 105.6 35.5 105.2 35.1 C 105.2 35.1 105.4 34.8 105.4 34.8 C 105.8 35.1 106.3 35.2 106.7 35.2 C 106.9 35.2 107.1 35.2 107.2 35.1 C 107.4 35 107.4 34.8 107.4 34.6 C 107.4 34.6 107.4 34.6 107.4 34.6 C 107.4 34.5 107.4 34.3 107.2 34.2 C 107.1 34.2 106.8 34.1 106.5 34 C 106.4 34 106.3 33.9 106.3 33.9 C 106.2 33.9 106.1 33.8 106 33.8 C 105.9 33.8 105.8 33.7 105.7 33.7 C 105.7 33.6 105.6 33.6 105.5 33.5 C 105.5 33.4 105.4 33.4 105.4 33.3 C 105.4 33.2 105.3 33.1 105.3 33 C 105.3 33 105.3 33 105.3 33 C 105.3 32.6 105.5 32.4 105.7 32.2 C 105.9 32 106.2 31.9 106.6 31.9 C 107 31.9 107.5 32.1 107.9 32.3 C 107.9 32.3 107.6 32.7 107.6 32.7 C 107.3 32.5 106.9 32.4 106.6 32.4 C 106.3 32.4 106.2 32.4 106.1 32.5 C 105.9 32.6 105.9 32.7 105.9 32.9 C 105.9 32.9 105.9 32.9 105.9 32.9 C 105.9 33 105.9 33 105.9 33.1 C 106 33.1 106 33.2 106 33.2 C 106.1 33.3 106.2 33.3 106.3 33.4 C 106.4 33.4 106.4 33.4 106.5 33.4 C 106.6 33.5 106.7 33.5 106.8 33.5 C 106.9 33.6 107 33.6 107.1 33.6 C 107.2 33.7 107.3 33.7 107.4 33.8 C 107.6 33.8 107.6 33.9 107.7 34 C 107.8 34 107.8 34.1 107.9 34.2 C 107.9 34.3 108 34.4 108 34.6 C 108 34.6 108 34.6 108 34.6 C 108 34.9 107.8 35.2 107.6 35.4 C 107.3 35.6 107 35.7 106.7 35.7 Z M 110.8 31.4 L 110.8 30.8 L 111.4 30.8 L 111.4 31.4 L 110.8 31.4 Z M 109.5 31.4 L 109.5 30.8 L 110.2 30.8 L 110.2 31.4 L 109.5 31.4 Z M 111.5 35 C 111.2 35.4 110.8 35.7 110.3 35.7 C 109.9 35.7 109.5 35.5 109.3 35.3 C 109 35 108.9 34.7 108.9 34.2 C 108.9 34.23 108.9 32 108.9 32 L 109.4 32 C 109.4 32 109.44 34.09 109.4 34.1 C 109.4 34.4 109.5 34.7 109.7 34.9 C 109.9 35.1 110.1 35.2 110.4 35.2 C 110.8 35.2 111 35.1 111.2 34.9 C 111.4 34.7 111.5 34.4 111.5 34.1 C 111.52 34.05 111.5 32 111.5 32 L 112.1 32 L 112.1 35.6 L 111.5 35.6 L 111.5 35 C 111.5 35 111.52 34.97 111.5 35 Z M 113.3 35.6 L 113.3 32 L 113.8 32 C 113.8 32 113.8 32.93 113.8 32.9 C 113.9 32.6 114.1 32.4 114.4 32.2 C 114.7 32 115 31.9 115.3 31.9 C 115.28 31.92 115.3 32.5 115.3 32.5 C 115.3 32.5 115.24 32.5 115.2 32.5 C 114.8 32.5 114.5 32.6 114.2 32.9 C 113.9 33.2 113.8 33.6 113.8 34.2 C 113.8 34.16 113.8 35.6 113.8 35.6 L 113.3 35.6 Z M 116.1 35.6 L 116.1 32 L 116.6 32 C 116.6 32 116.64 32.59 116.6 32.6 C 116.8 32.4 116.9 32.2 117.1 32.1 C 117.3 32 117.5 31.9 117.8 31.9 C 118.4 31.9 118.7 32.1 119 32.6 C 119.3 32.1 119.7 31.9 120.2 31.9 C 120.7 31.9 121 32 121.2 32.3 C 121.5 32.6 121.6 32.9 121.6 33.4 C 121.59 33.36 121.6 35.6 121.6 35.6 L 121 35.6 C 121 35.6 121.05 33.49 121 33.5 C 121 33.1 121 32.9 120.8 32.7 C 120.6 32.5 120.4 32.4 120.1 32.4 C 119.8 32.4 119.6 32.5 119.4 32.7 C 119.2 32.9 119.1 33.2 119.1 33.5 C 119.11 33.51 119.1 35.6 119.1 35.6 L 118.6 35.6 C 118.6 35.6 118.58 33.47 118.6 33.5 C 118.6 33.1 118.5 32.9 118.3 32.7 C 118.2 32.5 117.9 32.4 117.6 32.4 C 117.4 32.4 117.1 32.5 116.9 32.7 C 116.7 32.9 116.6 33.2 116.6 33.5 C 116.64 33.53 116.6 35.6 116.6 35.6 L 116.1 35.6 Z M 125.8 35 C 125.4 35.5 124.9 35.7 124.3 35.7 C 123.8 35.7 123.4 35.5 123 35.2 C 122.7 34.8 122.5 34.4 122.5 33.8 C 122.5 33.8 122.5 33.8 122.5 33.8 C 122.5 33.3 122.7 32.8 123 32.4 C 123.3 32.1 123.7 31.9 124.2 31.9 C 124.8 31.9 125.2 32.1 125.5 32.4 C 125.8 32.8 125.9 33.3 125.9 33.8 C 125.9 33.9 125.9 33.9 125.9 34 C 125.9 34 123.1 34 123.1 34 C 123.1 34.4 123.2 34.7 123.5 34.9 C 123.7 35.1 124 35.2 124.3 35.2 C 124.8 35.2 125.1 35 125.5 34.7 C 125.47 34.7 125.8 35 125.8 35 C 125.8 35 125.81 35 125.8 35 Z M 123.1 33.6 C 123.1 33.6 125.4 33.6 125.4 33.6 C 125.4 33.2 125.2 32.9 125.1 32.7 C 124.9 32.5 124.6 32.4 124.2 32.4 C 123.9 32.4 123.7 32.5 123.4 32.7 C 123.2 32.9 123.1 33.2 123.1 33.6 Z " stroke="none" fill="#000"/>  </g>  <g id="Polygon390650">    <path d="M 3 10.3 L 3 9.6 L 3.6 9.6 L 3.6 10.3 L 3 10.3 Z M 1.7 10.3 L 1.7 9.6 L 2.3 9.6 L 2.3 10.3 L 1.7 10.3 Z M 2.7 15.7 C 2 15.7 1.5 15.5 1.2 15.1 C 0.8 14.7 0.6 14.2 0.6 13.5 C 0.62 13.55 0.6 10.7 0.6 10.7 L 1.2 10.7 C 1.2 10.7 1.17 13.51 1.2 13.5 C 1.2 14 1.3 14.4 1.6 14.7 C 1.8 15 2.2 15.2 2.7 15.2 C 3.1 15.2 3.5 15 3.8 14.8 C 4 14.5 4.1 14.1 4.1 13.5 C 4.14 13.55 4.1 10.7 4.1 10.7 L 4.7 10.7 C 4.7 10.7 4.7 13.51 4.7 13.5 C 4.7 14.2 4.5 14.7 4.1 15.1 C 3.8 15.5 3.3 15.7 2.7 15.7 Z M 5.9 15.6 L 5.9 12 L 6.5 12 C 6.5 12 6.45 12.93 6.5 12.9 C 6.6 12.6 6.8 12.4 7 12.2 C 7.3 12 7.6 11.9 7.9 11.9 C 7.93 11.92 7.9 12.5 7.9 12.5 C 7.9 12.5 7.89 12.5 7.9 12.5 C 7.5 12.5 7.1 12.6 6.9 12.9 C 6.6 13.2 6.5 13.6 6.5 14.2 C 6.45 14.16 6.5 15.6 6.5 15.6 L 5.9 15.6 Z M 10.6 11.4 L 10.6 10.8 L 11.2 10.8 L 11.2 11.4 L 10.6 11.4 Z M 9.3 11.4 L 9.3 10.8 L 10 10.8 L 10 11.4 L 9.3 11.4 Z M 11.3 15 C 11 15.4 10.6 15.7 10.1 15.7 C 9.7 15.7 9.3 15.5 9.1 15.3 C 8.8 15 8.7 14.7 8.7 14.2 C 8.69 14.23 8.7 12 8.7 12 L 9.2 12 C 9.2 12 9.23 14.09 9.2 14.1 C 9.2 14.4 9.3 14.7 9.5 14.9 C 9.7 15.1 9.9 15.2 10.2 15.2 C 10.5 15.2 10.8 15.1 11 14.9 C 11.2 14.7 11.3 14.4 11.3 14.1 C 11.32 14.05 11.3 12 11.3 12 L 11.9 12 L 11.9 15.6 L 11.3 15.6 L 11.3 15 C 11.3 15 11.32 14.97 11.3 15 Z M 13.1 15.6 L 13.1 12 L 13.6 12 C 13.6 12 13.6 12.61 13.6 12.6 C 13.9 12.1 14.3 11.9 14.8 11.9 C 15.3 11.9 15.6 12 15.9 12.3 C 16.1 12.6 16.2 12.9 16.2 13.4 C 16.23 13.35 16.2 15.6 16.2 15.6 L 15.7 15.6 C 15.7 15.6 15.69 13.49 15.7 13.5 C 15.7 13.1 15.6 12.9 15.4 12.7 C 15.2 12.5 15 12.4 14.7 12.4 C 14.4 12.4 14.1 12.5 13.9 12.7 C 13.7 12.9 13.6 13.2 13.6 13.5 C 13.6 13.53 13.6 15.6 13.6 15.6 L 13.1 15.6 Z M 19.6 15.6 L 19.6 10.7 L 20.1 10.7 L 20.1 13.6 L 22.9 10.7 L 23.7 10.7 L 21.5 12.8 L 23.7 15.6 L 23 15.6 L 21.2 13.2 L 20.1 14.3 L 20.1 15.6 L 19.6 15.6 Z M 25.9 15.7 C 25.4 15.7 25 15.5 24.6 15.1 C 24.3 14.8 24.1 14.3 24.1 13.8 C 24.1 13.8 24.1 13.8 24.1 13.8 C 24.1 13.3 24.3 12.8 24.6 12.5 C 25 12.1 25.4 11.9 26 11.9 C 26.5 11.9 26.9 12.1 27.3 12.5 C 27.7 12.8 27.8 13.3 27.8 13.8 C 27.8 13.8 27.8 13.8 27.8 13.8 C 27.8 14.3 27.7 14.8 27.3 15.1 C 26.9 15.5 26.5 15.7 25.9 15.7 Z M 26 15.2 C 26.3 15.2 26.7 15.1 26.9 14.8 C 27.2 14.5 27.3 14.2 27.3 13.8 C 27.3 13.8 27.3 13.8 27.3 13.8 C 27.3 13.4 27.2 13.1 26.9 12.8 C 26.6 12.5 26.3 12.4 25.9 12.4 C 25.6 12.4 25.2 12.5 25 12.8 C 24.8 13.1 24.6 13.4 24.6 13.8 C 24.6 13.8 24.6 13.8 24.6 13.8 C 24.6 14.2 24.8 14.5 25 14.8 C 25.3 15.1 25.6 15.2 26 15.2 Z M 31.7 14.9 C 31.4 15.4 30.9 15.7 30.3 15.7 C 29.9 15.7 29.5 15.5 29.1 15.2 C 28.8 14.8 28.6 14.4 28.6 13.8 C 28.6 13.8 28.6 13.8 28.6 13.8 C 28.6 13.2 28.8 12.8 29.1 12.4 C 29.5 12.1 29.9 11.9 30.3 11.9 C 30.9 11.9 31.4 12.2 31.7 12.7 C 31.72 12.67 31.7 10.5 31.7 10.5 L 32.3 10.5 L 32.3 15.6 L 31.7 15.6 L 31.7 14.9 C 31.7 14.9 31.72 14.87 31.7 14.9 Z M 30.4 15.2 C 30.8 15.2 31.1 15.1 31.4 14.8 C 31.6 14.5 31.7 14.2 31.7 13.8 C 31.7 13.8 31.7 13.8 31.7 13.8 C 31.7 13.4 31.6 13 31.4 12.8 C 31.1 12.5 30.8 12.4 30.4 12.4 C 30.1 12.4 29.8 12.5 29.5 12.8 C 29.3 13 29.2 13.4 29.2 13.8 C 29.2 13.8 29.2 13.8 29.2 13.8 C 29.2 14.2 29.3 14.6 29.5 14.8 C 29.8 15.1 30.1 15.2 30.4 15.2 Z M 36 15 C 35.7 15.4 35.3 15.7 34.8 15.7 C 34.4 15.7 34 15.5 33.8 15.3 C 33.5 15 33.4 14.7 33.4 14.2 C 33.41 14.23 33.4 12 33.4 12 L 33.9 12 C 33.9 12 33.95 14.09 33.9 14.1 C 33.9 14.4 34 14.7 34.2 14.9 C 34.4 15.1 34.6 15.2 35 15.2 C 35.3 15.2 35.5 15.1 35.7 14.9 C 35.9 14.7 36 14.4 36 14.1 C 36.04 14.05 36 12 36 12 L 36.6 12 L 36.6 15.6 L 36 15.6 L 36 15 C 36 15 36.04 14.97 36 15 Z M 37.7 12.7 L 37.7 12 L 38.4 12 L 38.4 12.7 L 37.7 12.7 Z M 37.7 15.6 L 37.7 14.9 L 38.4 14.9 L 38.4 15.6 L 37.7 15.6 Z M 41.4 15.6 L 41.4 14.7 C 41.4 14.7 43.03 13.41 43 13.4 C 43.4 13.1 43.6 12.9 43.7 12.8 C 43.8 12.6 43.9 12.4 43.9 12.2 C 43.9 12 43.8 11.9 43.7 11.8 C 43.6 11.7 43.4 11.6 43.2 11.6 C 43 11.6 42.9 11.6 42.7 11.7 C 42.6 11.8 42.4 12 42.2 12.3 C 42.2 12.3 41.5 11.6 41.5 11.6 C 41.7 11.3 42 11 42.3 10.9 C 42.5 10.7 42.9 10.6 43.3 10.6 C 43.8 10.6 44.2 10.8 44.5 11 C 44.8 11.3 45 11.7 45 12.1 C 45 12.1 45 12.2 45 12.2 C 45 12.5 44.9 12.9 44.7 13.1 C 44.5 13.4 44.2 13.7 43.7 14.1 C 43.69 14.05 42.9 14.7 42.9 14.7 L 45 14.7 L 45 15.6 L 41.4 15.6 Z M 46.5 14.3 C 46.8 14.6 47.2 14.7 47.6 14.7 C 47.8 14.7 48 14.6 48.1 14.5 C 48.3 14.4 48.4 14.2 48.4 14.1 C 48.5 13.9 48.5 13.8 48.6 13.6 C 48.3 13.8 48 13.9 47.6 13.9 C 47 13.9 46.6 13.8 46.3 13.5 C 46 13.2 45.8 12.8 45.8 12.3 C 45.8 12.3 45.8 12.3 45.8 12.3 C 45.8 11.8 46 11.4 46.3 11.1 C 46.7 10.8 47.1 10.6 47.7 10.6 C 48 10.6 48.3 10.7 48.5 10.7 C 48.7 10.8 48.9 11 49.1 11.1 C 49.5 11.5 49.7 12.2 49.7 13 C 49.7 13 49.7 13 49.7 13 C 49.7 13.8 49.5 14.5 49.1 15 C 48.7 15.4 48.2 15.7 47.5 15.7 C 46.9 15.7 46.4 15.5 45.9 15.1 C 45.92 15.1 46.5 14.3 46.5 14.3 C 46.5 14.3 46.49 14.28 46.5 14.3 Z M 47.7 13 C 48 13 48.2 13 48.3 12.8 C 48.5 12.7 48.6 12.5 48.6 12.3 C 48.6 12.3 48.6 12.3 48.6 12.3 C 48.6 12.1 48.5 11.9 48.3 11.7 C 48.2 11.6 48 11.5 47.7 11.5 C 47.4 11.5 47.2 11.6 47.1 11.7 C 47 11.9 46.9 12.1 46.9 12.3 C 46.9 12.3 46.9 12.3 46.9 12.3 C 46.9 12.5 47 12.7 47.1 12.8 C 47.3 13 47.5 13 47.7 13 Z M 50.3 15.6 L 50.3 14.7 C 50.3 14.7 51.95 13.41 52 13.4 C 52.3 13.1 52.5 12.9 52.6 12.8 C 52.7 12.6 52.8 12.4 52.8 12.2 C 52.8 12 52.7 11.9 52.6 11.8 C 52.5 11.7 52.3 11.6 52.1 11.6 C 52 11.6 51.8 11.6 51.6 11.7 C 51.5 11.8 51.3 12 51.1 12.3 C 51.1 12.3 50.4 11.6 50.4 11.6 C 50.6 11.3 50.9 11 51.2 10.9 C 51.5 10.7 51.8 10.6 52.2 10.6 C 52.7 10.6 53.1 10.8 53.4 11 C 53.7 11.3 53.9 11.7 53.9 12.1 C 53.9 12.1 53.9 12.2 53.9 12.2 C 53.9 12.5 53.8 12.9 53.6 13.1 C 53.4 13.4 53.1 13.7 52.6 14.1 C 52.61 14.05 51.8 14.7 51.8 14.7 L 53.9 14.7 L 53.9 15.6 L 50.3 15.6 Z M 57 15.6 L 57 14.5 L 54.6 14.5 L 54.5 13.8 L 57.1 10.7 L 58.1 10.7 L 58.1 13.7 L 58.7 13.7 L 58.7 14.5 L 58.1 14.5 L 58.1 15.6 L 57 15.6 Z M 55.7 13.7 L 57 13.7 L 57 12.1 L 55.7 13.7 Z M 61.8 15.6 L 61.8 14.5 L 59.5 14.5 L 59.3 13.8 L 62 10.7 L 62.9 10.7 L 62.9 13.7 L 63.5 13.7 L 63.5 14.5 L 62.9 14.5 L 62.9 15.6 L 61.8 15.6 Z M 60.5 13.7 L 61.8 13.7 L 61.8 12.1 L 60.5 13.7 Z " stroke="none" fill="#000"/>  </g>  <g id="Polygon390649">    <path d="M 0.2 5.6 L 2.3 0.7 L 3.3 0.7 L 5.4 5.6 L 4.2 5.6 L 3.8 4.5 L 1.7 4.5 L 1.3 5.6 L 0.2 5.6 Z M 2.1 3.5 L 3.4 3.5 L 2.8 2 L 2.1 3.5 Z M 7.3 6.8 L 6.4 6.4 C 6.4 6.4 7.01 5.6 7 5.6 C 6.6 5.5 6.3 5.2 6 4.9 C 5.8 4.6 5.6 4.2 5.6 3.7 C 5.6 3.7 5.6 3.7 5.6 3.7 C 5.6 3.2 5.8 2.7 6.2 2.3 C 6.6 2 7.1 1.8 7.6 1.8 C 8.2 1.8 8.7 2 9.1 2.4 C 9.1 2.4 8.5 3.1 8.5 3.1 C 8.3 3 8.2 2.9 8.1 2.8 C 7.9 2.7 7.8 2.7 7.6 2.7 C 7.3 2.7 7.1 2.8 7 3 C 6.8 3.2 6.7 3.4 6.7 3.7 C 6.7 3.7 6.7 3.7 6.7 3.7 C 6.7 4 6.8 4.3 7 4.5 C 7.1 4.7 7.4 4.8 7.7 4.8 C 7.9 4.8 8.2 4.6 8.5 4.4 C 8.5 4.4 9.1 5 9.1 5 C 9 5.2 8.8 5.4 8.5 5.5 C 8.3 5.6 8.1 5.7 7.8 5.7 C 7.78 5.68 7.3 6.8 7.3 6.8 Z M 9.9 5.6 L 9.9 1.8 L 10.9 1.8 L 10.9 5.6 L 9.9 5.6 Z M 12 5.6 L 12 0.5 L 13.1 0.5 L 13.1 5.6 L 12 5.6 Z M 14.1 5.6 L 14.1 1.8 L 15.2 1.8 L 15.2 5.6 L 14.1 5.6 Z M 18.3 5.6 L 18.3 0.5 L 19.3 0.5 L 19.3 3.2 L 20.6 1.8 L 21.9 1.8 L 20.4 3.3 L 21.9 5.6 L 20.7 5.6 L 19.7 4.1 L 19.3 4.5 L 19.3 5.6 L 18.3 5.6 Z M 22.4 5.6 L 22.4 1.8 L 23.5 1.8 C 23.5 1.8 23.48 2.6 23.5 2.6 C 23.7 2 24.1 1.8 24.7 1.8 C 24.67 1.78 24.7 2.9 24.7 2.9 C 24.7 2.9 24.62 2.89 24.6 2.9 C 24.3 2.9 24 3 23.8 3.2 C 23.6 3.4 23.5 3.8 23.5 4.2 C 23.48 4.21 23.5 5.6 23.5 5.6 L 22.4 5.6 Z M 28.5 5 C 28.2 5.5 27.7 5.7 27 5.7 C 26.4 5.7 26 5.5 25.6 5.1 C 25.2 4.8 25.1 4.3 25.1 3.7 C 25.1 3.7 25.1 3.7 25.1 3.7 C 25.1 3.2 25.2 2.7 25.6 2.3 C 25.9 2 26.4 1.8 26.9 1.8 C 27.5 1.8 28 2 28.3 2.4 C 28.6 2.8 28.7 3.2 28.7 3.8 C 28.7 3.9 28.7 4 28.7 4.1 C 28.7 4.1 26.1 4.1 26.1 4.1 C 26.2 4.3 26.3 4.5 26.4 4.6 C 26.6 4.8 26.8 4.8 27 4.8 C 27.3 4.8 27.7 4.7 27.9 4.4 C 27.94 4.44 28.5 5 28.5 5 C 28.5 5 28.55 4.98 28.5 5 Z M 26.1 3.4 C 26.1 3.4 27.7 3.4 27.7 3.4 C 27.7 3.2 27.6 3 27.4 2.8 C 27.3 2.7 27.1 2.6 26.9 2.6 C 26.7 2.6 26.5 2.7 26.4 2.8 C 26.2 3 26.1 3.2 26.1 3.4 Z M 29.5 5.6 L 29.5 1.8 L 30.6 1.8 C 30.6 1.8 30.59 2.38 30.6 2.4 C 30.9 2 31.3 1.8 31.7 1.8 C 32.2 1.8 32.6 2 32.8 2.4 C 33.1 2 33.5 1.8 34 1.8 C 34.4 1.8 34.7 1.9 34.9 2.1 C 35.1 2.4 35.3 2.7 35.3 3.2 C 35.25 3.16 35.3 5.6 35.3 5.6 L 34.2 5.6 C 34.2 5.6 34.19 3.51 34.2 3.5 C 34.2 3 34 2.7 33.6 2.7 C 33.4 2.7 33.2 2.8 33.1 2.9 C 33 3.1 32.9 3.3 32.9 3.5 C 32.92 3.51 32.9 5.6 32.9 5.6 L 31.9 5.6 C 31.9 5.6 31.86 3.51 31.9 3.5 C 31.9 3 31.6 2.7 31.2 2.7 C 31 2.7 30.9 2.8 30.8 2.9 C 30.6 3.1 30.6 3.3 30.6 3.5 C 30.59 3.51 30.6 5.6 30.6 5.6 L 29.5 5.6 Z M 38.4 5.2 C 38.1 5.5 37.7 5.7 37.2 5.7 C 36.9 5.7 36.6 5.6 36.3 5.4 C 36.1 5.2 36 4.9 36 4.5 C 36 4.5 36 4.5 36 4.5 C 36 4.1 36.1 3.8 36.4 3.6 C 36.6 3.4 37 3.3 37.5 3.3 C 37.8 3.3 38.1 3.4 38.4 3.5 C 38.4 3.5 38.4 3.4 38.4 3.4 C 38.4 2.9 38.1 2.7 37.6 2.7 C 37.2 2.7 36.9 2.8 36.5 2.9 C 36.5 2.9 36.3 2.1 36.3 2.1 C 36.7 1.9 37.2 1.8 37.7 1.8 C 38.3 1.8 38.7 1.9 39 2.2 C 39.3 2.5 39.4 2.9 39.4 3.4 C 39.4 3.42 39.4 5.6 39.4 5.6 L 38.4 5.6 L 38.4 5.2 C 38.4 5.2 38.37 5.19 38.4 5.2 Z M 37.6 4.9 C 37.8 4.9 38 4.9 38.2 4.8 C 38.3 4.6 38.4 4.5 38.4 4.3 C 38.4 4.3 38.4 4.1 38.4 4.1 C 38.2 4 38 3.9 37.7 3.9 C 37.5 3.9 37.3 4 37.2 4.1 C 37 4.2 37 4.3 37 4.5 C 37 4.5 37 4.5 37 4.5 C 37 4.6 37 4.7 37.1 4.8 C 37.2 4.9 37.4 4.9 37.6 4.9 Z M 43.7 5.7 C 43.1 5.7 42.6 5.5 42.1 5.1 C 42.1 5.1 42.6 4.4 42.6 4.4 C 43 4.7 43.4 4.9 43.8 4.9 C 44.1 4.9 44.2 4.8 44.2 4.6 C 44.2 4.6 44.2 4.6 44.2 4.6 C 44.2 4.5 44.2 4.5 44.2 4.5 C 44.2 4.4 44.2 4.4 44.1 4.4 C 44.1 4.4 44.1 4.4 44 4.3 C 44 4.3 44 4.3 43.9 4.3 C 43.9 4.3 43.8 4.2 43.8 4.2 C 43.7 4.2 43.7 4.2 43.6 4.2 C 43.5 4.2 43.5 4.1 43.4 4.1 C 43.3 4.1 43.1 4 43 4 C 42.9 3.9 42.8 3.9 42.7 3.8 C 42.6 3.7 42.5 3.6 42.4 3.5 C 42.3 3.3 42.3 3.2 42.3 3 C 42.3 3 42.3 3 42.3 3 C 42.3 2.6 42.4 2.3 42.7 2.1 C 43 1.9 43.3 1.8 43.7 1.8 C 44.2 1.8 44.6 1.9 45.1 2.2 C 45.1 2.2 44.7 3 44.7 3 C 44.3 2.7 43.9 2.6 43.7 2.6 C 43.5 2.6 43.4 2.6 43.4 2.7 C 43.3 2.7 43.3 2.8 43.3 2.9 C 43.3 2.9 43.3 2.9 43.3 2.9 C 43.3 3 43.3 3 43.5 3.1 C 43.6 3.2 43.8 3.3 44 3.3 C 44.2 3.4 44.3 3.4 44.4 3.5 C 44.6 3.5 44.7 3.6 44.8 3.7 C 44.9 3.8 45 3.9 45.1 4 C 45.1 4.1 45.2 4.3 45.2 4.4 C 45.2 4.4 45.2 4.5 45.2 4.5 C 45.2 4.9 45 5.2 44.8 5.4 C 44.5 5.6 44.2 5.7 43.7 5.7 Z M 45.9 6.7 L 45.9 1.8 L 47 1.8 C 47 1.8 47 2.39 47 2.4 C 47.3 2 47.7 1.8 48.2 1.8 C 48.6 1.8 49 2 49.4 2.3 C 49.7 2.6 49.9 3.1 49.9 3.7 C 49.9 3.7 49.9 3.7 49.9 3.7 C 49.9 4.3 49.7 4.8 49.4 5.1 C 49 5.5 48.6 5.7 48.2 5.7 C 47.7 5.7 47.3 5.5 47 5.1 C 47 5.11 47 6.7 47 6.7 L 45.9 6.7 Z M 47 3.7 C 47 4 47.1 4.3 47.2 4.5 C 47.4 4.7 47.6 4.8 47.9 4.8 C 48.1 4.8 48.4 4.7 48.5 4.5 C 48.7 4.3 48.8 4 48.8 3.7 C 48.8 3.7 48.8 3.7 48.8 3.7 C 48.8 3.4 48.7 3.2 48.5 3 C 48.4 2.8 48.1 2.7 47.9 2.7 C 47.6 2.7 47.4 2.8 47.2 3 C 47.1 3.2 47 3.4 47 3.7 C 46.98 3.72 47 3.7 47 3.7 C 47 3.7 46.98 3.73 47 3.7 Z M 52.9 5.2 C 52.6 5.5 52.2 5.7 51.7 5.7 C 51.4 5.7 51 5.6 50.8 5.4 C 50.6 5.2 50.4 4.9 50.4 4.5 C 50.4 4.5 50.4 4.5 50.4 4.5 C 50.4 4.1 50.6 3.8 50.8 3.6 C 51.1 3.4 51.5 3.3 51.9 3.3 C 52.2 3.3 52.6 3.4 52.9 3.5 C 52.9 3.5 52.9 3.4 52.9 3.4 C 52.9 2.9 52.6 2.7 52.1 2.7 C 51.7 2.7 51.4 2.8 51 2.9 C 51 2.9 50.8 2.1 50.8 2.1 C 51.2 1.9 51.7 1.8 52.2 1.8 C 52.8 1.8 53.2 1.9 53.5 2.2 C 53.7 2.5 53.9 2.9 53.9 3.4 C 53.89 3.42 53.9 5.6 53.9 5.6 L 52.9 5.6 L 52.9 5.2 C 52.9 5.2 52.86 5.19 52.9 5.2 Z M 52 4.9 C 52.3 4.9 52.5 4.9 52.6 4.8 C 52.8 4.6 52.9 4.5 52.9 4.3 C 52.9 4.3 52.9 4.1 52.9 4.1 C 52.7 4 52.4 3.9 52.2 3.9 C 52 3.9 51.8 4 51.7 4.1 C 51.5 4.2 51.5 4.3 51.5 4.5 C 51.5 4.5 51.5 4.5 51.5 4.5 C 51.5 4.6 51.5 4.7 51.6 4.8 C 51.7 4.9 51.9 4.9 52 4.9 Z M 56.9 5.4 C 56.6 5.6 56.4 5.7 56 5.7 C 55.7 5.7 55.4 5.6 55.2 5.4 C 55 5.2 54.9 4.9 54.9 4.5 C 54.94 4.54 54.9 2.8 54.9 2.8 L 54.5 2.8 L 54.5 1.8 L 54.9 1.8 L 54.9 0.9 L 56 0.9 L 56 1.8 L 56.9 1.8 L 56.9 2.8 L 56 2.8 C 56 2.8 56.01 4.36 56 4.4 C 56 4.6 56.1 4.7 56.3 4.7 C 56.5 4.7 56.7 4.7 56.9 4.6 C 56.87 4.59 56.9 5.4 56.9 5.4 C 56.9 5.4 56.87 5.45 56.9 5.4 Z M 60 5.1 C 59.7 5.5 59.3 5.7 58.9 5.7 C 58.5 5.7 58.2 5.5 58 5.3 C 57.8 5.1 57.6 4.7 57.6 4.3 C 57.64 4.28 57.6 1.8 57.6 1.8 L 58.7 1.8 C 58.7 1.8 58.71 3.94 58.7 3.9 C 58.7 4.4 58.9 4.7 59.4 4.7 C 59.6 4.7 59.7 4.6 59.8 4.5 C 60 4.4 60 4.2 60 3.9 C 60.02 3.94 60 1.8 60 1.8 L 61.1 1.8 L 61.1 5.6 L 60 5.6 L 60 5.1 C 60 5.1 60.02 5.07 60 5.1 Z M 62.1 5.6 L 62.1 0.5 L 63.1 0.5 L 63.1 5.6 L 62.1 5.6 Z M 66.3 5.2 C 66.1 5.5 65.7 5.7 65.2 5.7 C 64.8 5.7 64.5 5.6 64.3 5.4 C 64 5.2 63.9 4.9 63.9 4.5 C 63.9 4.5 63.9 4.5 63.9 4.5 C 63.9 4.1 64.1 3.8 64.3 3.6 C 64.6 3.4 65 3.3 65.4 3.3 C 65.7 3.3 66 3.4 66.4 3.5 C 66.4 3.5 66.4 3.4 66.4 3.4 C 66.4 2.9 66.1 2.7 65.5 2.7 C 65.2 2.7 64.9 2.8 64.5 2.9 C 64.5 2.9 64.2 2.1 64.2 2.1 C 64.7 1.9 65.2 1.8 65.7 1.8 C 66.3 1.8 66.7 1.9 67 2.2 C 67.2 2.5 67.4 2.9 67.4 3.4 C 67.37 3.42 67.4 5.6 67.4 5.6 L 66.3 5.6 L 66.3 5.2 C 66.3 5.2 66.35 5.19 66.3 5.2 Z M 65.5 4.9 C 65.8 4.9 66 4.9 66.1 4.8 C 66.3 4.6 66.4 4.5 66.4 4.3 C 66.4 4.3 66.4 4.1 66.4 4.1 C 66.2 4 65.9 3.9 65.7 3.9 C 65.5 3.9 65.3 4 65.1 4.1 C 65 4.2 65 4.3 65 4.5 C 65 4.5 65 4.5 65 4.5 C 65 4.6 65 4.7 65.1 4.8 C 65.2 4.9 65.4 4.9 65.5 4.9 Z M 69.6 5.7 C 69 5.7 68.5 5.5 68 5.1 C 68 5.1 68.5 4.4 68.5 4.4 C 68.9 4.7 69.3 4.9 69.6 4.9 C 69.9 4.9 70.1 4.8 70.1 4.6 C 70.1 4.6 70.1 4.6 70.1 4.6 C 70.1 4.5 70.1 4.5 70.1 4.5 C 70.1 4.4 70 4.4 70 4.4 C 70 4.4 69.9 4.4 69.9 4.3 C 69.9 4.3 69.8 4.3 69.8 4.3 C 69.7 4.3 69.7 4.2 69.6 4.2 C 69.6 4.2 69.5 4.2 69.5 4.2 C 69.4 4.2 69.3 4.1 69.3 4.1 C 69.2 4.1 69 4 68.9 4 C 68.8 3.9 68.7 3.9 68.6 3.8 C 68.4 3.7 68.3 3.6 68.3 3.5 C 68.2 3.3 68.2 3.2 68.2 3 C 68.2 3 68.2 3 68.2 3 C 68.2 2.6 68.3 2.3 68.6 2.1 C 68.8 1.9 69.2 1.8 69.6 1.8 C 70.1 1.8 70.5 1.9 71 2.2 C 71 2.2 70.6 3 70.6 3 C 70.2 2.7 69.8 2.6 69.5 2.6 C 69.4 2.6 69.3 2.6 69.2 2.7 C 69.2 2.7 69.1 2.8 69.1 2.9 C 69.1 2.9 69.1 2.9 69.1 2.9 C 69.1 3 69.2 3 69.3 3.1 C 69.5 3.2 69.7 3.3 69.9 3.3 C 70.1 3.4 70.2 3.4 70.3 3.5 C 70.4 3.5 70.5 3.6 70.7 3.7 C 70.8 3.8 70.9 3.9 70.9 4 C 71 4.1 71 4.3 71 4.4 C 71 4.4 71 4.5 71 4.5 C 71 4.9 70.9 5.2 70.6 5.4 C 70.4 5.6 70 5.7 69.6 5.7 Z M 71.9 5.6 L 71.9 1.8 L 72.9 1.8 L 72.9 5.6 L 71.9 5.6 Z M 78.4 5.9 C 78.4 5.9 77.9 6.6 77.9 6.6 C 77.2 6.2 76.8 5.8 76.4 5.3 C 76.1 4.8 76 4.3 76 3.6 C 76 3.6 76 3.6 76 3.6 C 76 2.9 76.1 2.3 76.4 1.9 C 76.8 1.4 77.2 0.9 77.9 0.6 C 77.9 0.6 78.4 1.3 78.4 1.3 C 77.9 1.6 77.5 2 77.3 2.3 C 77.1 2.7 77 3.1 77 3.6 C 77 3.6 77 3.6 77 3.6 C 77 4.1 77.1 4.5 77.3 4.9 C 77.5 5.2 77.9 5.6 78.4 5.9 Z M 79.2 5.6 L 79.2 0.7 C 79.2 0.7 81.25 0.7 81.2 0.7 C 81.8 0.7 82.3 0.9 82.6 1.2 C 83 1.5 83.1 1.9 83.1 2.4 C 83.1 2.4 83.1 2.4 83.1 2.4 C 83.1 3 82.9 3.4 82.6 3.7 C 82.2 4 81.7 4.1 81.1 4.1 C 81.14 4.13 80.3 4.1 80.3 4.1 L 80.3 5.6 L 79.2 5.6 Z M 80.3 3.2 C 80.3 3.2 81.18 3.17 81.2 3.2 C 81.4 3.2 81.6 3.1 81.8 3 C 82 2.8 82 2.6 82 2.4 C 82 2.4 82 2.4 82 2.4 C 82 2.2 82 2 81.8 1.9 C 81.6 1.7 81.4 1.7 81.2 1.7 C 81.16 1.67 80.3 1.7 80.3 1.7 L 80.3 3.2 Z M 83.9 5.6 L 83.9 0.7 C 83.9 0.7 86.16 0.7 86.2 0.7 C 86.8 0.7 87.3 0.9 87.6 1.2 C 87.9 1.5 88 1.9 88 2.3 C 88 2.3 88 2.3 88 2.3 C 88 3.1 87.7 3.6 87 3.8 C 86.96 3.85 88.2 5.6 88.2 5.6 L 86.9 5.6 L 85.8 4 L 85 4 L 85 5.6 L 83.9 5.6 Z M 85 3.1 C 85 3.1 86.09 3.08 86.1 3.1 C 86.4 3.1 86.6 3 86.7 2.9 C 86.8 2.8 86.9 2.6 86.9 2.4 C 86.9 2.4 86.9 2.4 86.9 2.4 C 86.9 2.1 86.8 2 86.7 1.9 C 86.6 1.7 86.3 1.7 86.1 1.7 C 86.07 1.67 85 1.7 85 1.7 L 85 3.1 Z M 89 5.6 L 89 0.7 L 90.1 0.7 L 90.1 5.6 L 89 5.6 Z M 91.3 5.6 L 91.3 0.7 L 92.5 0.7 L 93.8 2.8 L 95.1 0.7 L 96.2 0.7 L 96.2 5.6 L 95.2 5.6 L 95.2 2.4 L 93.8 4.5 L 93.8 4.5 L 92.4 2.4 L 92.4 5.6 L 91.3 5.6 Z M 97.4 5.6 L 97.4 0.7 L 101.1 0.7 L 101.1 1.7 L 98.5 1.7 L 98.5 2.7 L 100.8 2.7 L 100.8 3.6 L 98.5 3.6 L 98.5 4.6 L 101.1 4.6 L 101.1 5.6 L 97.4 5.6 Z M 102.1 5.6 L 102.1 0.7 L 103.2 0.7 L 103.2 4.6 L 105.6 4.6 L 105.6 5.6 L 102.1 5.6 Z M 106.5 5.6 L 106.5 0.7 L 107.6 0.7 L 107.6 5.6 L 106.5 5.6 Z M 108.8 5.6 L 108.8 0.7 L 109.8 0.7 L 112.1 3.7 L 112.1 0.7 L 113.1 0.7 L 113.1 5.6 L 112.2 5.6 L 109.8 2.5 L 109.8 5.6 L 108.8 5.6 Z M 114.3 5.6 L 114.3 0.7 L 118 0.7 L 118 1.7 L 115.4 1.7 L 115.4 2.7 L 117.7 2.7 L 117.7 3.6 L 115.4 3.6 L 115.4 4.6 L 118 4.6 L 118 5.6 L 114.3 5.6 Z M 119.2 6.6 C 119.2 6.6 118.7 5.9 118.7 5.9 C 119.2 5.6 119.5 5.2 119.7 4.9 C 120 4.5 120.1 4.1 120.1 3.6 C 120.1 3.6 120.1 3.6 120.1 3.6 C 120.1 3.1 120 2.7 119.7 2.3 C 119.5 2 119.2 1.6 118.7 1.3 C 118.7 1.3 119.2 0.6 119.2 0.6 C 119.8 0.9 120.3 1.4 120.6 1.9 C 121 2.3 121.1 2.9 121.1 3.6 C 121.1 3.6 121.1 3.6 121.1 3.6 C 121.1 4.3 121 4.8 120.6 5.3 C 120.3 5.8 119.8 6.2 119.2 6.6 Z " stroke="none" fill="#000"/>  </g></svg>