<?xml version="1.0" standalone="no"?><!DOCTYPE svg PUBLIC "-//W3C//DTD SVG 1.1//EN" "http://www.w3.org/Graphics/SVG/1.1/DTD/svg11.dtd"><svg xmlns="http://www.w3.org/2000/svg" version="1.1" width="16.2px" height="12.4px" viewBox="0 -1 16.2 12.4" style="top:-1px"><desc/><defs/><g id="Polygon397832"><path d="m1.3 7.5V3.1l-1 .3L.2 3l1.2-.5h.4v5h-.5zm3.5.1c-.5 0-.9-.2-1.3-.5c-.2-.2-.3-.5-.4-.8c-.1-.3-.2-.7-.2-1.1c0-.8.2-1.5.6-2c.3-.5.8-.7 1.5-.7c.5 0 1 .2 1.4.6l-.3.4c-.4-.3-.8-.5-1.2-.5c-.4 0-.8.2-1 .6c-.3.4-.4.9-.4 1.5v.1c.3-.5.8-.8 1.4-.8c.5 0 .9.2 1.2.4c.3.3.5.7.5 1.1c0 .5-.2.9-.5 1.2c-.3.3-.8.5-1.3.5zm0-.5c.4 0 .7-.1.9-.4c.2-.2.3-.4.3-.7v-.1c0-.3-.1-.5-.3-.7c-.2-.2-.5-.3-.9-.3c-.3 0-.6.1-.8.3c-.3.2-.4.5-.4.8c0 .3.1.5.4.8c.2.2.5.3.8.3zm6.3-.9c0 .4-.2.7-.5 1c-.4.2-.8.3-1.4.3c-.5 0-.9-.1-1.3-.3c-.3-.3-.5-.6-.5-1v-.1c0-.2.1-.5.3-.7c.2-.2.4-.3.7-.5c-.6-.2-.8-.6-.8-1.1c0-.4.1-.7.5-.9c.3-.3.7-.4 1.1-.4c.5 0 .9.1 1.2.4c.3.2.5.5.5.9c0 .5-.3.9-.8 1.1c.3.2.5.3.7.5c.2.2.3.5.3.7c-.02.04 0 .1 0 .1c0 0-.02-.05 0 0zm-3-2.3c0 .2.1.4.3.6c.3.2.5.2.8.2c.4 0 .6 0 .8-.2c.3-.2.4-.4.4-.6v-.1c0-.2-.1-.4-.4-.6c-.2-.1-.4-.2-.8-.2c-.3 0-.5.1-.8.2c-.2.2-.3.4-.3.6c.02.04 0 .1 0 .1c0 0 .02-.05 0 0zM8 6.1c0 .3.1.5.3.7c.2.2.5.3.9.3c.4 0 .7-.1 1-.3c.2-.2.3-.4.3-.7c0-.2-.1-.5-.4-.6c-.2-.2-.5-.3-.9-.3c-.3 0-.6.1-.9.3c-.2.1-.3.4-.3.6c-.04.03 0 0 0 0c0 0-.04.05 0 0z" stroke="none" fill="#000"/></g></svg>