<?xml version="1.0" standalone="no"?><!DOCTYPE svg PUBLIC "-//W3C//DTD SVG 1.1//EN" "http://www.w3.org/Graphics/SVG/1.1/DTD/svg11.dtd"><svg xmlns="http://www.w3.org/2000/svg" version="1.1" width="43.1px" height="12.4px" viewBox="0 -1 43.1 12.4" style="top:-1px">  <desc>GEFU</desc>  <defs/>  <g id="Polygon360293">    <path d="M 4.9 6.8 C 4.4 7.3 3.7 7.6 3 7.6 C 2.2 7.6 1.6 7.3 1.2 6.8 C 0.7 6.4 0.5 5.8 0.5 5 C 0.5 5 0.5 5 0.5 5 C 0.5 4.3 0.7 3.7 1.2 3.2 C 1.6 2.7 2.2 2.5 2.9 2.5 C 3.3 2.5 3.7 2.5 3.9 2.7 C 4.2 2.8 4.5 2.9 4.8 3.1 C 4.8 3.1 4.4 3.6 4.4 3.6 C 4 3.2 3.5 3 2.9 3 C 2.4 3 1.9 3.2 1.6 3.6 C 1.2 4 1.1 4.5 1.1 5 C 1.1 5 1.1 5 1.1 5 C 1.1 5.6 1.2 6.1 1.6 6.5 C 1.9 6.9 2.4 7.1 3 7.1 C 3.5 7.1 4 6.9 4.4 6.6 C 4.4 6.57 4.4 5.4 4.4 5.4 L 2.9 5.4 L 2.9 4.9 L 4.9 4.9 L 4.9 6.8 C 4.9 6.8 4.93 6.81 4.9 6.8 Z M 6.2 7.5 L 6.2 2.6 L 9.7 2.6 L 9.7 3.1 L 6.7 3.1 L 6.7 4.8 L 9.4 4.8 L 9.4 5.3 L 6.7 5.3 L 6.7 7 L 9.8 7 L 9.8 7.5 L 6.2 7.5 Z M 10.9 7.5 L 10.9 2.6 L 14.4 2.6 L 14.4 3.1 L 11.4 3.1 L 11.4 4.8 L 14.1 4.8 L 14.1 5.3 L 11.4 5.3 L 11.4 7.5 L 10.9 7.5 Z M 17.4 7.6 C 16.8 7.6 16.3 7.4 15.9 7 C 15.6 6.6 15.4 6.1 15.4 5.4 C 15.39 5.43 15.4 2.6 15.4 2.6 L 15.9 2.6 C 15.9 2.6 15.94 5.39 15.9 5.4 C 15.9 5.9 16.1 6.3 16.3 6.6 C 16.6 6.9 17 7 17.4 7 C 17.9 7 18.3 6.9 18.5 6.6 C 18.8 6.4 18.9 6 18.9 5.4 C 18.91 5.43 18.9 2.6 18.9 2.6 L 19.5 2.6 C 19.5 2.6 19.47 5.38 19.5 5.4 C 19.5 6.1 19.3 6.6 18.9 7 C 18.6 7.4 18.1 7.6 17.4 7.6 Z " stroke="none" fill="#000"/>  </g></svg>