<?xml version="1.0" standalone="no"?><!DOCTYPE svg PUBLIC "-//W3C//DTD SVG 1.1//EN" "http://www.w3.org/Graphics/SVG/1.1/DTD/svg11.dtd"><svg xmlns="http://www.w3.org/2000/svg" version="1.1" width="190px" height="42.4px" viewBox="0 -3 190 42.4" style="top:-3px">  <desc>Kesme Tahtas – LEVORO (K k) r n Kodu: 13980 l ler: U 24 cm, G 15 cm, Y 0,8 cm</desc>  <defs/>  <g id="Polygon363030">    <path d="M 3.3 19.6 L 3.3 19 L 4 19 L 4 19.6 L 3.3 19.6 Z M 2 19.6 L 2 19 L 2.6 19 L 2.6 19.6 L 2 19.6 Z M 5.5 22.5 C 5.5 23.2 5.2 23.8 4.8 24.3 C 4.3 24.8 3.7 25.1 3 25.1 C 2.2 25.1 1.6 24.8 1.2 24.3 C 0.7 23.9 0.5 23.3 0.5 22.6 C 0.5 22.6 0.5 22.5 0.5 22.5 C 0.5 21.9 0.7 21.3 1.2 20.8 C 1.7 20.3 2.3 20 3 20 C 3.7 20 4.3 20.3 4.8 20.8 C 5.2 21.2 5.5 21.8 5.5 22.5 C 5.47 22.54 5.5 22.5 5.5 22.5 C 5.5 22.5 5.47 22.55 5.5 22.5 Z M 1.1 22.5 C 1.1 23.1 1.2 23.6 1.6 24 C 2 24.4 2.4 24.6 3 24.6 C 3.5 24.6 4 24.4 4.4 24 C 4.7 23.6 4.9 23.1 4.9 22.6 C 4.9 22.6 4.9 22.5 4.9 22.5 C 4.9 22 4.7 21.5 4.4 21.1 C 4 20.7 3.5 20.5 3 20.5 C 2.4 20.5 2 20.7 1.6 21.1 C 1.2 21.5 1.1 22 1.1 22.5 C 1.05 22.54 1.1 22.5 1.1 22.5 C 1.1 22.5 1.05 22.55 1.1 22.5 Z M 6.6 25 L 6.6 19.9 L 7.1 19.9 L 7.1 25 L 6.6 25 Z M 9.7 26.1 L 9.1 25.8 C 9.1 25.8 9.69 25.05 9.7 25 C 9.2 25 8.9 24.8 8.6 24.4 C 8.3 24.1 8.2 23.7 8.2 23.2 C 8.2 23.2 8.2 23.2 8.2 23.2 C 8.2 22.7 8.3 22.2 8.7 21.9 C 9.1 21.5 9.5 21.3 10 21.3 C 10.6 21.3 11.1 21.5 11.5 21.9 C 11.5 21.9 11.1 22.3 11.1 22.3 C 10.8 22 10.4 21.8 10 21.8 C 9.6 21.8 9.3 21.9 9.1 22.2 C 8.8 22.5 8.7 22.8 8.7 23.2 C 8.7 23.2 8.7 23.2 8.7 23.2 C 8.7 23.6 8.8 23.9 9.1 24.2 C 9.4 24.5 9.7 24.6 10.1 24.6 C 10.5 24.6 10.8 24.4 11.2 24.1 C 11.2 24.1 11.5 24.4 11.5 24.4 C 11.1 24.8 10.7 25.1 10.1 25.1 C 10.13 25.08 9.7 26.1 9.7 26.1 Z M 14.2 20.8 L 14.2 20.2 L 14.8 20.2 L 14.8 20.8 L 14.2 20.8 Z M 13 20.8 L 13 20.2 L 13.6 20.2 L 13.6 20.8 L 13 20.8 Z M 14.9 24.4 C 14.6 24.8 14.2 25.1 13.7 25.1 C 13.3 25.1 12.9 24.9 12.7 24.7 C 12.4 24.4 12.3 24.1 12.3 23.6 C 12.31 23.63 12.3 21.4 12.3 21.4 L 12.8 21.4 C 12.8 21.4 12.85 23.49 12.8 23.5 C 12.8 23.8 12.9 24.1 13.1 24.3 C 13.3 24.5 13.5 24.6 13.8 24.6 C 14.2 24.6 14.4 24.5 14.6 24.3 C 14.8 24.1 14.9 23.8 14.9 23.5 C 14.93 23.45 14.9 21.4 14.9 21.4 L 15.5 21.4 L 15.5 25 L 14.9 25 L 14.9 24.4 C 14.9 24.4 14.93 24.37 14.9 24.4 Z M 16.7 25 L 16.7 19.9 L 17.3 19.9 L 17.3 25 L 16.7 25 Z M 21.6 24.4 C 21.2 24.9 20.7 25.1 20.1 25.1 C 19.6 25.1 19.2 24.9 18.8 24.6 C 18.5 24.2 18.3 23.8 18.3 23.2 C 18.3 23.2 18.3 23.2 18.3 23.2 C 18.3 22.7 18.5 22.2 18.8 21.8 C 19.1 21.5 19.5 21.3 20 21.3 C 20.5 21.3 21 21.5 21.3 21.8 C 21.6 22.2 21.7 22.7 21.7 23.2 C 21.7 23.3 21.7 23.3 21.7 23.4 C 21.7 23.4 18.8 23.4 18.8 23.4 C 18.9 23.8 19 24.1 19.3 24.3 C 19.5 24.5 19.8 24.6 20.1 24.6 C 20.5 24.6 20.9 24.4 21.3 24.1 C 21.25 24.1 21.6 24.4 21.6 24.4 C 21.6 24.4 21.59 24.4 21.6 24.4 Z M 18.8 23 C 18.8 23 21.2 23 21.2 23 C 21.1 22.6 21 22.3 20.8 22.1 C 20.6 21.9 20.4 21.8 20 21.8 C 19.7 21.8 19.4 21.9 19.2 22.1 C 19 22.3 18.9 22.6 18.8 23 Z M 22.7 25 L 22.7 21.4 L 23.2 21.4 C 23.2 21.4 23.2 22.33 23.2 22.3 C 23.3 22 23.5 21.8 23.8 21.6 C 24 21.4 24.3 21.3 24.7 21.3 C 24.68 21.32 24.7 21.9 24.7 21.9 C 24.7 21.9 24.63 21.9 24.6 21.9 C 24.2 21.9 23.9 22 23.6 22.3 C 23.3 22.6 23.2 23 23.2 23.6 C 23.2 23.56 23.2 25 23.2 25 L 22.7 25 Z M 25.5 22.1 L 25.5 21.4 L 26.1 21.4 L 26.1 22.1 L 25.5 22.1 Z M 25.5 25 L 25.5 24.3 L 26.1 24.3 L 26.1 25 L 25.5 25 Z M 31.4 25.1 C 30.8 25.1 30.3 24.9 29.9 24.5 C 29.6 24.1 29.4 23.6 29.4 22.9 C 29.39 22.95 29.4 20.1 29.4 20.1 L 29.9 20.1 C 29.9 20.1 29.94 22.91 29.9 22.9 C 29.9 23.4 30.1 23.8 30.3 24.1 C 30.6 24.4 31 24.6 31.4 24.6 C 31.9 24.6 32.3 24.4 32.5 24.2 C 32.8 23.9 32.9 23.5 32.9 22.9 C 32.91 22.95 32.9 20.1 32.9 20.1 L 33.5 20.1 C 33.5 20.1 33.47 22.91 33.5 22.9 C 33.5 23.6 33.3 24.1 32.9 24.5 C 32.6 24.9 32.1 25.1 31.4 25.1 Z M 36.5 25 L 36.5 24.6 C 36.5 24.6 38.3 23 38.3 23 C 38.7 22.7 38.9 22.4 39.1 22.2 C 39.2 21.9 39.3 21.7 39.3 21.5 C 39.3 21.2 39.2 21 39 20.8 C 38.8 20.6 38.6 20.5 38.3 20.5 C 38.1 20.5 37.8 20.6 37.6 20.7 C 37.4 20.9 37.2 21.1 37 21.4 C 37 21.4 36.6 21.1 36.6 21.1 C 36.9 20.7 37.1 20.4 37.4 20.3 C 37.6 20.1 38 20 38.4 20 C 38.8 20 39.2 20.2 39.5 20.4 C 39.7 20.7 39.9 21 39.9 21.4 C 39.9 21.4 39.9 21.4 39.9 21.4 C 39.9 21.8 39.8 22.1 39.6 22.3 C 39.4 22.6 39.1 22.9 38.7 23.3 C 38.65 23.33 37.3 24.5 37.3 24.5 L 39.9 24.5 L 39.9 25 L 36.5 25 Z M 43.2 25 L 43.2 23.8 L 40.6 23.8 L 40.5 23.4 L 43.3 20.1 L 43.8 20.1 L 43.8 23.4 L 44.5 23.4 L 44.5 23.8 L 43.8 23.8 L 43.8 25 L 43.2 25 Z M 41.2 23.4 L 43.2 23.4 L 43.2 20.8 L 41.2 23.4 Z M 50.7 24.4 C 50.3 24.9 49.8 25.1 49.2 25.1 C 48.7 25.1 48.3 24.9 47.9 24.5 C 47.5 24.2 47.4 23.7 47.4 23.2 C 47.4 23.2 47.4 23.2 47.4 23.2 C 47.4 22.7 47.5 22.2 47.9 21.9 C 48.3 21.5 48.7 21.3 49.2 21.3 C 49.8 21.3 50.3 21.5 50.7 21.9 C 50.7 21.9 50.3 22.3 50.3 22.3 C 50 22 49.6 21.8 49.2 21.8 C 48.8 21.8 48.5 21.9 48.3 22.2 C 48 22.5 47.9 22.8 47.9 23.2 C 47.9 23.2 47.9 23.2 47.9 23.2 C 47.9 23.6 48 23.9 48.3 24.2 C 48.6 24.5 48.9 24.6 49.3 24.6 C 49.7 24.6 50 24.4 50.4 24.1 C 50.36 24.06 50.7 24.4 50.7 24.4 C 50.7 24.4 50.7 24.38 50.7 24.4 Z M 51.6 25 L 51.6 21.4 L 52.1 21.4 C 52.1 21.4 52.13 21.99 52.1 22 C 52.3 21.8 52.4 21.6 52.6 21.5 C 52.8 21.4 53 21.3 53.3 21.3 C 53.8 21.3 54.2 21.5 54.5 22 C 54.8 21.5 55.2 21.3 55.7 21.3 C 56.2 21.3 56.5 21.4 56.7 21.7 C 57 22 57.1 22.3 57.1 22.8 C 57.08 22.76 57.1 25 57.1 25 L 56.5 25 C 56.5 25 56.54 22.89 56.5 22.9 C 56.5 22.5 56.5 22.3 56.3 22.1 C 56.1 21.9 55.9 21.8 55.6 21.8 C 55.3 21.8 55.1 21.9 54.9 22.1 C 54.7 22.3 54.6 22.6 54.6 22.9 C 54.6 22.91 54.6 25 54.6 25 L 54.1 25 C 54.1 25 54.07 22.87 54.1 22.9 C 54.1 22.5 54 22.3 53.8 22.1 C 53.7 21.9 53.4 21.8 53.1 21.8 C 52.8 21.8 52.6 21.9 52.4 22.1 C 52.2 22.3 52.1 22.6 52.1 22.9 C 52.13 22.93 52.1 25 52.1 25 L 51.6 25 Z M 58 25.9 C 58 25.9 57.9 25.6 57.9 25.6 C 58.3 25.5 58.4 25.3 58.4 25 C 58.42 25 58.2 25 58.2 25 L 58.2 24.3 L 58.8 24.3 C 58.8 24.3 58.81 24.89 58.8 24.9 C 58.8 25.2 58.7 25.4 58.6 25.5 C 58.5 25.7 58.3 25.8 58 25.9 Z M 66.4 24.3 C 65.8 24.8 65.2 25.1 64.4 25.1 C 63.7 25.1 63.1 24.8 62.6 24.4 C 62.1 23.9 61.9 23.3 61.9 22.6 C 61.9 22.6 61.9 22.5 61.9 22.5 C 61.9 21.9 62.1 21.3 62.6 20.8 C 63.1 20.3 63.7 20 64.4 20 C 64.8 20 65.1 20.1 65.4 20.2 C 65.7 20.3 65.9 20.4 66.2 20.7 C 66.2 20.7 65.8 21.1 65.8 21.1 C 65.4 20.7 64.9 20.5 64.4 20.5 C 63.8 20.5 63.4 20.7 63 21.1 C 62.7 21.5 62.5 22 62.5 22.5 C 62.5 22.5 62.5 22.5 62.5 22.5 C 62.5 23.1 62.7 23.6 63 24 C 63.4 24.4 63.8 24.6 64.4 24.6 C 65 24.6 65.4 24.4 65.8 24.1 C 65.84 24.1 65.8 22.9 65.8 22.9 L 64.4 22.9 L 64.4 22.4 L 66.4 22.4 L 66.4 24.3 C 66.4 24.3 66.37 24.33 66.4 24.3 Z M 70.3 25 L 70.3 20.6 L 69.4 20.9 L 69.2 20.5 L 70.4 20.1 L 70.8 20.1 L 70.8 25 L 70.3 25 Z M 73.7 25.1 C 73 25.1 72.4 24.8 71.9 24.3 C 71.9 24.3 72.3 23.9 72.3 23.9 C 72.7 24.4 73.2 24.6 73.7 24.6 C 74 24.6 74.3 24.5 74.5 24.3 C 74.7 24.1 74.8 23.8 74.8 23.5 C 74.8 23.5 74.8 23.5 74.8 23.5 C 74.8 23.2 74.7 22.9 74.5 22.7 C 74.3 22.5 74 22.5 73.6 22.5 C 73.3 22.5 72.9 22.5 72.6 22.7 C 72.6 22.73 72.2 22.5 72.2 22.5 L 72.4 20.1 L 75.2 20.1 L 75.2 20.6 L 72.8 20.6 C 72.8 20.6 72.74 22.18 72.7 22.2 C 73.1 22 73.4 22 73.7 22 C 74.2 22 74.6 22.1 74.9 22.4 C 75.2 22.6 75.4 23 75.4 23.5 C 75.4 23.5 75.4 23.5 75.4 23.5 C 75.4 23.9 75.2 24.3 74.9 24.6 C 74.6 24.9 74.2 25.1 73.7 25.1 Z M 81.6 24.4 C 81.2 24.9 80.7 25.1 80.2 25.1 C 79.6 25.1 79.2 24.9 78.8 24.5 C 78.5 24.2 78.3 23.7 78.3 23.2 C 78.3 23.2 78.3 23.2 78.3 23.2 C 78.3 22.7 78.5 22.2 78.8 21.9 C 79.2 21.5 79.6 21.3 80.2 21.3 C 80.7 21.3 81.2 21.5 81.6 21.9 C 81.6 21.9 81.2 22.3 81.2 22.3 C 80.9 22 80.5 21.8 80.1 21.8 C 79.8 21.8 79.5 21.9 79.2 22.2 C 79 22.5 78.8 22.8 78.8 23.2 C 78.8 23.2 78.8 23.2 78.8 23.2 C 78.8 23.6 79 23.9 79.2 24.2 C 79.5 24.5 79.8 24.6 80.2 24.6 C 80.6 24.6 80.9 24.4 81.3 24.1 C 81.28 24.06 81.6 24.4 81.6 24.4 C 81.6 24.4 81.63 24.38 81.6 24.4 Z M 82.5 25 L 82.5 21.4 L 83.1 21.4 C 83.1 21.4 83.06 21.99 83.1 22 C 83.2 21.8 83.4 21.6 83.5 21.5 C 83.7 21.4 83.9 21.3 84.2 21.3 C 84.8 21.3 85.2 21.5 85.4 22 C 85.7 21.5 86.1 21.3 86.7 21.3 C 87.1 21.3 87.4 21.4 87.6 21.7 C 87.9 22 88 22.3 88 22.8 C 88 22.76 88 25 88 25 L 87.5 25 C 87.5 25 87.47 22.89 87.5 22.9 C 87.5 22.5 87.4 22.3 87.2 22.1 C 87.1 21.9 86.8 21.8 86.5 21.8 C 86.2 21.8 86 21.9 85.8 22.1 C 85.6 22.3 85.5 22.6 85.5 22.9 C 85.53 22.91 85.5 25 85.5 25 L 85 25 C 85 25 84.99 22.87 85 22.9 C 85 22.5 84.9 22.3 84.7 22.1 C 84.6 21.9 84.4 21.8 84.1 21.8 C 83.8 21.8 83.5 21.9 83.3 22.1 C 83.2 22.3 83.1 22.6 83.1 22.9 C 83.06 22.93 83.1 25 83.1 25 L 82.5 25 Z M 89 25.9 C 89 25.9 88.9 25.6 88.9 25.6 C 89.2 25.5 89.4 25.3 89.3 25 C 89.34 25 89.1 25 89.1 25 L 89.1 24.3 L 89.7 24.3 C 89.7 24.3 89.73 24.89 89.7 24.9 C 89.7 25.2 89.7 25.4 89.5 25.5 C 89.4 25.7 89.2 25.8 89 25.9 Z M 94.6 25 L 94.6 23.1 L 92.6 20.1 L 93.2 20.1 L 94.9 22.5 L 96.5 20.1 L 97.2 20.1 L 95.2 23.1 L 95.2 25 L 94.6 25 Z M 104 22.5 C 104 23.3 103.9 23.9 103.5 24.3 C 103.1 24.8 102.6 25.1 102 25.1 C 101.4 25.1 100.9 24.8 100.5 24.4 C 100.1 23.9 99.9 23.3 99.9 22.6 C 99.9 22.6 99.9 22.5 99.9 22.5 C 99.9 21.8 100.1 21.2 100.5 20.8 C 100.9 20.3 101.4 20 102 20 C 102.6 20 103.1 20.3 103.5 20.7 C 103.9 21.2 104 21.8 104 22.5 C 104.05 22.54 104 22.5 104 22.5 C 104 22.5 104.05 22.55 104 22.5 Z M 100.5 22.5 C 100.5 23.1 100.6 23.6 100.9 24 C 101.2 24.4 101.5 24.6 102 24.6 C 102.4 24.6 102.8 24.4 103.1 24 C 103.3 23.6 103.5 23.1 103.5 22.6 C 103.5 22.6 103.5 22.5 103.5 22.5 C 103.5 22 103.3 21.5 103.1 21.1 C 102.8 20.7 102.4 20.5 102 20.5 C 101.5 20.5 101.2 20.7 100.9 21.1 C 100.6 21.5 100.5 22 100.5 22.5 C 100.49 22.54 100.5 22.5 100.5 22.5 C 100.5 22.5 100.49 22.55 100.5 22.5 Z M 104.7 25.9 C 104.7 25.9 104.7 25.6 104.7 25.6 C 105 25.5 105.2 25.3 105.1 25 C 105.13 25 104.9 25 104.9 25 L 104.9 24.3 L 105.5 24.3 C 105.5 24.3 105.53 24.89 105.5 24.9 C 105.5 25.2 105.5 25.4 105.3 25.5 C 105.2 25.7 105 25.8 104.7 25.9 Z M 110.1 23.7 C 110.1 24.1 109.9 24.4 109.6 24.7 C 109.2 24.9 108.8 25.1 108.3 25.1 C 107.7 25.1 107.3 24.9 106.9 24.7 C 106.6 24.4 106.4 24.1 106.4 23.7 C 106.4 23.7 106.4 23.7 106.4 23.7 C 106.4 23.4 106.5 23.1 106.7 22.9 C 106.9 22.7 107.1 22.6 107.4 22.5 C 106.9 22.2 106.6 21.8 106.6 21.3 C 106.6 21.3 106.6 21.3 106.6 21.3 C 106.6 21 106.8 20.6 107.1 20.4 C 107.4 20.2 107.8 20 108.3 20 C 108.7 20 109.1 20.2 109.4 20.4 C 109.8 20.6 109.9 21 109.9 21.3 C 109.9 21.3 109.9 21.3 109.9 21.3 C 109.9 21.8 109.7 22.2 109.1 22.5 C 109.4 22.6 109.6 22.7 109.8 22.9 C 110 23.1 110.1 23.4 110.1 23.7 C 110.1 23.66 110.1 23.7 110.1 23.7 C 110.1 23.7 110.1 23.68 110.1 23.7 Z M 107.1 21.4 C 107.1 21.6 107.2 21.8 107.5 22 C 107.7 22.2 107.9 22.3 108.3 22.3 C 108.6 22.3 108.8 22.2 109.1 22 C 109.3 21.8 109.4 21.6 109.4 21.4 C 109.4 21.4 109.4 21.4 109.4 21.4 C 109.4 21.1 109.3 20.9 109.1 20.8 C 108.9 20.6 108.6 20.5 108.3 20.5 C 107.9 20.5 107.7 20.6 107.5 20.8 C 107.2 20.9 107.1 21.1 107.1 21.4 C 107.14 21.36 107.1 21.4 107.1 21.4 C 107.1 21.4 107.14 21.37 107.1 21.4 Z M 107 23.7 C 107 23.9 107.1 24.1 107.3 24.3 C 107.6 24.5 107.9 24.6 108.3 24.6 C 108.7 24.6 109 24.5 109.2 24.3 C 109.4 24.1 109.5 23.9 109.5 23.7 C 109.5 23.7 109.5 23.7 109.5 23.7 C 109.5 23.4 109.4 23.2 109.2 23 C 108.9 22.8 108.6 22.7 108.3 22.7 C 107.9 22.7 107.6 22.8 107.4 23 C 107.1 23.2 107 23.4 107 23.7 C 106.98 23.66 107 23.7 107 23.7 C 107 23.7 106.98 23.67 107 23.7 Z M 116.3 24.4 C 115.9 24.9 115.4 25.1 114.8 25.1 C 114.3 25.1 113.8 24.9 113.5 24.5 C 113.1 24.2 112.9 23.7 112.9 23.2 C 112.9 23.2 112.9 23.2 112.9 23.2 C 112.9 22.7 113.1 22.2 113.5 21.9 C 113.8 21.5 114.3 21.3 114.8 21.3 C 115.4 21.3 115.8 21.5 116.2 21.9 C 116.2 21.9 115.9 22.3 115.9 22.3 C 115.5 22 115.2 21.8 114.8 21.8 C 114.4 21.8 114.1 21.9 113.9 22.2 C 113.6 22.5 113.5 22.8 113.5 23.2 C 113.5 23.2 113.5 23.2 113.5 23.2 C 113.5 23.6 113.6 23.9 113.9 24.2 C 114.1 24.5 114.5 24.6 114.8 24.6 C 115.2 24.6 115.6 24.4 115.9 24.1 C 115.93 24.06 116.3 24.4 116.3 24.4 C 116.3 24.4 116.28 24.38 116.3 24.4 Z M 117.2 25 L 117.2 21.4 L 117.7 21.4 C 117.7 21.4 117.71 21.99 117.7 22 C 117.8 21.8 118 21.6 118.2 21.5 C 118.4 21.4 118.6 21.3 118.9 21.3 C 119.4 21.3 119.8 21.5 120 22 C 120.4 21.5 120.8 21.3 121.3 21.3 C 121.7 21.3 122.1 21.4 122.3 21.7 C 122.5 22 122.7 22.3 122.7 22.8 C 122.65 22.76 122.7 25 122.7 25 L 122.1 25 C 122.1 25 122.12 22.89 122.1 22.9 C 122.1 22.5 122 22.3 121.9 22.1 C 121.7 21.9 121.5 21.8 121.2 21.8 C 120.9 21.8 120.7 21.9 120.5 22.1 C 120.3 22.3 120.2 22.6 120.2 22.9 C 120.18 22.91 120.2 25 120.2 25 L 119.6 25 C 119.6 25 119.64 22.87 119.6 22.9 C 119.6 22.5 119.6 22.3 119.4 22.1 C 119.2 21.9 119 21.8 118.7 21.8 C 118.4 21.8 118.2 21.9 118 22.1 C 117.8 22.3 117.7 22.6 117.7 22.9 C 117.71 22.93 117.7 25 117.7 25 L 117.2 25 Z " stroke="none" fill="#4f4f4e"/>  </g>  <g id="Polygon363029">    <path d="M 42.3 16 L 42.3 12.2 L 41.4 12.4 L 41.2 11.5 L 42.6 11.1 L 43.4 11.1 L 43.4 16 L 42.3 16 Z M 46.2 16.1 C 45.4 16.1 44.7 15.8 44.3 15.2 C 44.3 15.2 45 14.5 45 14.5 C 45.4 14.9 45.8 15.1 46.2 15.1 C 46.4 15.1 46.6 15.1 46.7 15 C 46.8 14.8 46.9 14.7 46.9 14.5 C 46.9 14.5 46.9 14.5 46.9 14.5 C 46.9 14.3 46.8 14.2 46.6 14 C 46.5 13.9 46.2 13.9 45.9 13.9 C 45.93 13.89 45.5 13.9 45.5 13.9 L 45.3 13.2 L 46.5 12 L 44.6 12 L 44.6 11.1 L 47.9 11.1 L 47.9 11.9 C 47.9 11.9 46.63 13.09 46.6 13.1 C 47.5 13.2 47.9 13.7 47.9 14.5 C 47.9 14.5 47.9 14.5 47.9 14.5 C 47.9 15 47.8 15.3 47.5 15.6 C 47.2 15.9 46.7 16.1 46.2 16.1 Z M 49.4 14.7 C 49.7 15 50.1 15.1 50.5 15.1 C 50.7 15.1 50.9 15 51 14.9 C 51.2 14.8 51.3 14.6 51.4 14.5 C 51.4 14.3 51.4 14.2 51.5 14 C 51.2 14.2 50.9 14.3 50.5 14.3 C 49.9 14.3 49.5 14.2 49.2 13.9 C 48.9 13.6 48.7 13.2 48.7 12.7 C 48.7 12.7 48.7 12.7 48.7 12.7 C 48.7 12.2 48.9 11.8 49.2 11.5 C 49.6 11.2 50 11 50.6 11 C 50.9 11 51.2 11.1 51.4 11.1 C 51.6 11.2 51.8 11.4 52 11.5 C 52.4 11.9 52.6 12.6 52.6 13.4 C 52.6 13.4 52.6 13.4 52.6 13.4 C 52.6 14.2 52.4 14.9 52 15.4 C 51.6 15.8 51.1 16.1 50.4 16.1 C 49.8 16.1 49.3 15.9 48.8 15.5 C 48.82 15.5 49.4 14.7 49.4 14.7 C 49.4 14.7 49.39 14.68 49.4 14.7 Z M 50.6 13.4 C 50.9 13.4 51.1 13.4 51.3 13.2 C 51.4 13.1 51.5 12.9 51.5 12.7 C 51.5 12.7 51.5 12.7 51.5 12.7 C 51.5 12.5 51.4 12.3 51.2 12.1 C 51.1 12 50.9 11.9 50.6 11.9 C 50.4 11.9 50.2 12 50 12.1 C 49.9 12.3 49.8 12.5 49.8 12.7 C 49.8 12.7 49.8 12.7 49.8 12.7 C 49.8 12.9 49.9 13.1 50 13.2 C 50.2 13.4 50.4 13.4 50.6 13.4 Z M 55.2 16.1 C 54.6 16.1 54.2 15.9 53.8 15.7 C 53.4 15.4 53.3 15.1 53.3 14.7 C 53.3 14.7 53.3 14.6 53.3 14.6 C 53.3 14.4 53.3 14.1 53.5 13.9 C 53.6 13.7 53.8 13.6 54.1 13.5 C 53.6 13.2 53.4 12.9 53.4 12.4 C 53.4 12.4 53.4 12.4 53.4 12.4 C 53.4 12 53.6 11.7 53.9 11.4 C 54.2 11.2 54.7 11 55.2 11 C 55.7 11 56.1 11.2 56.4 11.4 C 56.7 11.7 56.9 12 56.9 12.4 C 56.9 12.4 56.9 12.4 56.9 12.4 C 56.9 12.9 56.7 13.2 56.3 13.5 C 56.5 13.6 56.7 13.8 56.9 13.9 C 57 14.1 57 14.3 57 14.6 C 57 14.6 57 14.6 57 14.6 C 57 15.1 56.9 15.4 56.5 15.7 C 56.2 15.9 55.7 16.1 55.2 16.1 Z M 54.5 12.5 C 54.5 12.7 54.5 12.8 54.7 12.9 C 54.8 13 54.9 13.1 55.2 13.1 C 55.4 13.1 55.5 13 55.7 12.9 C 55.8 12.8 55.9 12.7 55.9 12.5 C 55.9 12.5 55.9 12.5 55.9 12.5 C 55.9 12.3 55.8 12.2 55.7 12.1 C 55.5 12 55.4 11.9 55.2 11.9 C 54.9 11.9 54.8 12 54.6 12.1 C 54.5 12.2 54.5 12.3 54.5 12.5 C 54.46 12.49 54.5 12.5 54.5 12.5 C 54.5 12.5 54.46 12.5 54.5 12.5 Z M 55.2 15.2 C 55.4 15.2 55.6 15.1 55.8 15 C 55.9 14.9 56 14.7 56 14.6 C 56 14.6 56 14.6 56 14.6 C 56 14.4 55.9 14.2 55.8 14.1 C 55.6 14 55.4 14 55.2 14 C 54.9 14 54.7 14 54.5 14.1 C 54.4 14.2 54.3 14.4 54.3 14.6 C 54.3 14.6 54.3 14.6 54.3 14.6 C 54.3 14.7 54.4 14.9 54.5 15 C 54.7 15.1 54.9 15.2 55.2 15.2 Z M 59.9 16.1 C 59.3 16.1 58.7 15.8 58.3 15.4 C 57.9 14.9 57.7 14.3 57.7 13.6 C 57.7 13.6 57.7 13.5 57.7 13.5 C 57.7 12.8 57.9 12.2 58.4 11.7 C 58.8 11.3 59.3 11 59.9 11 C 60.6 11 61.1 11.3 61.5 11.7 C 61.9 12.2 62.1 12.8 62.1 13.5 C 62.1 13.5 62.1 13.5 62.1 13.5 C 62.1 14.3 61.9 14.9 61.5 15.4 C 61.1 15.8 60.6 16.1 59.9 16.1 Z M 58.8 13.5 C 58.8 14 58.9 14.4 59.1 14.7 C 59.3 15 59.6 15.1 59.9 15.1 C 60.2 15.1 60.5 15 60.7 14.7 C 60.9 14.4 61 14 61 13.6 C 61 13.6 61 13.5 61 13.5 C 61 13.1 60.9 12.7 60.7 12.4 C 60.5 12.1 60.2 12 59.9 12 C 59.6 12 59.3 12.1 59.1 12.4 C 58.9 12.7 58.8 13.1 58.8 13.5 C 58.85 13.54 58.8 13.5 58.8 13.5 C 58.8 13.5 58.85 13.55 58.8 13.5 Z " stroke="none" fill="#000"/>  </g>  <g id="Polygon363028">    <path d="M 3 10.7 L 3 10 L 3.6 10 L 3.6 10.7 L 3 10.7 Z M 1.7 10.7 L 1.7 10 L 2.3 10 L 2.3 10.7 L 1.7 10.7 Z M 2.7 16.1 C 2 16.1 1.5 15.9 1.2 15.5 C 0.8 15.1 0.6 14.6 0.6 13.9 C 0.62 13.95 0.6 11.1 0.6 11.1 L 1.2 11.1 C 1.2 11.1 1.17 13.91 1.2 13.9 C 1.2 14.4 1.3 14.8 1.6 15.1 C 1.8 15.4 2.2 15.6 2.7 15.6 C 3.1 15.6 3.5 15.4 3.8 15.2 C 4 14.9 4.1 14.5 4.1 13.9 C 4.14 13.95 4.1 11.1 4.1 11.1 L 4.7 11.1 C 4.7 11.1 4.7 13.91 4.7 13.9 C 4.7 14.6 4.5 15.1 4.1 15.5 C 3.8 15.9 3.3 16.1 2.7 16.1 Z M 5.9 16 L 5.9 12.4 L 6.5 12.4 C 6.5 12.4 6.45 13.33 6.5 13.3 C 6.6 13 6.8 12.8 7 12.6 C 7.3 12.4 7.6 12.3 7.9 12.3 C 7.93 12.32 7.9 12.9 7.9 12.9 C 7.9 12.9 7.89 12.9 7.9 12.9 C 7.5 12.9 7.1 13 6.9 13.3 C 6.6 13.6 6.5 14 6.5 14.6 C 6.45 14.56 6.5 16 6.5 16 L 5.9 16 Z M 10.6 11.8 L 10.6 11.2 L 11.2 11.2 L 11.2 11.8 L 10.6 11.8 Z M 9.3 11.8 L 9.3 11.2 L 10 11.2 L 10 11.8 L 9.3 11.8 Z M 11.3 15.4 C 11 15.8 10.6 16.1 10.1 16.1 C 9.7 16.1 9.3 15.9 9.1 15.7 C 8.8 15.4 8.7 15.1 8.7 14.6 C 8.69 14.63 8.7 12.4 8.7 12.4 L 9.2 12.4 C 9.2 12.4 9.23 14.49 9.2 14.5 C 9.2 14.8 9.3 15.1 9.5 15.3 C 9.7 15.5 9.9 15.6 10.2 15.6 C 10.5 15.6 10.8 15.5 11 15.3 C 11.2 15.1 11.3 14.8 11.3 14.5 C 11.32 14.45 11.3 12.4 11.3 12.4 L 11.9 12.4 L 11.9 16 L 11.3 16 L 11.3 15.4 C 11.3 15.4 11.32 15.37 11.3 15.4 Z M 13.1 16 L 13.1 12.4 L 13.6 12.4 C 13.6 12.4 13.6 13.01 13.6 13 C 13.9 12.5 14.3 12.3 14.8 12.3 C 15.3 12.3 15.6 12.4 15.9 12.7 C 16.1 13 16.2 13.3 16.2 13.8 C 16.23 13.75 16.2 16 16.2 16 L 15.7 16 C 15.7 16 15.69 13.89 15.7 13.9 C 15.7 13.5 15.6 13.3 15.4 13.1 C 15.2 12.9 15 12.8 14.7 12.8 C 14.4 12.8 14.1 12.9 13.9 13.1 C 13.7 13.3 13.6 13.6 13.6 13.9 C 13.6 13.93 13.6 16 13.6 16 L 13.1 16 Z M 19.6 16 L 19.6 11.1 L 20.1 11.1 L 20.1 14 L 22.9 11.1 L 23.7 11.1 L 21.5 13.2 L 23.7 16 L 23 16 L 21.2 13.6 L 20.1 14.7 L 20.1 16 L 19.6 16 Z M 25.9 16.1 C 25.4 16.1 25 15.9 24.6 15.5 C 24.3 15.2 24.1 14.7 24.1 14.2 C 24.1 14.2 24.1 14.2 24.1 14.2 C 24.1 13.7 24.3 13.2 24.6 12.9 C 25 12.5 25.4 12.3 26 12.3 C 26.5 12.3 26.9 12.5 27.3 12.9 C 27.7 13.2 27.8 13.7 27.8 14.2 C 27.8 14.2 27.8 14.2 27.8 14.2 C 27.8 14.7 27.7 15.2 27.3 15.5 C 26.9 15.9 26.5 16.1 25.9 16.1 Z M 26 15.6 C 26.3 15.6 26.7 15.5 26.9 15.2 C 27.2 14.9 27.3 14.6 27.3 14.2 C 27.3 14.2 27.3 14.2 27.3 14.2 C 27.3 13.8 27.2 13.5 26.9 13.2 C 26.6 12.9 26.3 12.8 25.9 12.8 C 25.6 12.8 25.2 12.9 25 13.2 C 24.8 13.5 24.6 13.8 24.6 14.2 C 24.6 14.2 24.6 14.2 24.6 14.2 C 24.6 14.6 24.8 14.9 25 15.2 C 25.3 15.5 25.6 15.6 26 15.6 Z M 31.7 15.3 C 31.4 15.8 30.9 16.1 30.3 16.1 C 29.9 16.1 29.5 15.9 29.1 15.6 C 28.8 15.2 28.6 14.8 28.6 14.2 C 28.6 14.2 28.6 14.2 28.6 14.2 C 28.6 13.6 28.8 13.2 29.1 12.8 C 29.5 12.5 29.9 12.3 30.3 12.3 C 30.9 12.3 31.4 12.6 31.7 13.1 C 31.72 13.07 31.7 10.9 31.7 10.9 L 32.3 10.9 L 32.3 16 L 31.7 16 L 31.7 15.3 C 31.7 15.3 31.72 15.27 31.7 15.3 Z M 30.4 15.6 C 30.8 15.6 31.1 15.5 31.4 15.2 C 31.6 14.9 31.7 14.6 31.7 14.2 C 31.7 14.2 31.7 14.2 31.7 14.2 C 31.7 13.8 31.6 13.4 31.4 13.2 C 31.1 12.9 30.8 12.8 30.4 12.8 C 30.1 12.8 29.8 12.9 29.5 13.2 C 29.3 13.4 29.2 13.8 29.2 14.2 C 29.2 14.2 29.2 14.2 29.2 14.2 C 29.2 14.6 29.3 15 29.5 15.2 C 29.8 15.5 30.1 15.6 30.4 15.6 Z M 36 15.4 C 35.7 15.8 35.3 16.1 34.8 16.1 C 34.4 16.1 34 15.9 33.8 15.7 C 33.5 15.4 33.4 15.1 33.4 14.6 C 33.41 14.63 33.4 12.4 33.4 12.4 L 33.9 12.4 C 33.9 12.4 33.95 14.49 33.9 14.5 C 33.9 14.8 34 15.1 34.2 15.3 C 34.4 15.5 34.6 15.6 35 15.6 C 35.3 15.6 35.5 15.5 35.7 15.3 C 35.9 15.1 36 14.8 36 14.5 C 36.04 14.45 36 12.4 36 12.4 L 36.6 12.4 L 36.6 16 L 36 16 L 36 15.4 C 36 15.4 36.04 15.37 36 15.4 Z M 37.7 13.1 L 37.7 12.4 L 38.4 12.4 L 38.4 13.1 L 37.7 13.1 Z M 37.7 16 L 37.7 15.3 L 38.4 15.3 L 38.4 16 L 37.7 16 Z " stroke="none" fill="#4f4f4e"/>  </g>  <g id="Polygon363027">    <path d="M 0.6 5.6 L 0.6 0.7 L 1.7 0.7 L 1.7 2.8 L 3.6 0.7 L 5 0.7 L 3 2.8 L 5 5.6 L 3.8 5.6 L 2.2 3.5 L 1.7 4.1 L 1.7 5.6 L 0.6 5.6 Z M 8.7 5 C 8.3 5.5 7.8 5.7 7.2 5.7 C 6.6 5.7 6.1 5.5 5.7 5.1 C 5.4 4.8 5.2 4.3 5.2 3.7 C 5.2 3.7 5.2 3.7 5.2 3.7 C 5.2 3.2 5.4 2.7 5.7 2.3 C 6.1 2 6.5 1.8 7 1.8 C 7.6 1.8 8.1 2 8.4 2.4 C 8.7 2.8 8.9 3.2 8.9 3.8 C 8.9 3.9 8.9 4 8.9 4.1 C 8.9 4.1 6.3 4.1 6.3 4.1 C 6.3 4.3 6.4 4.5 6.6 4.6 C 6.7 4.8 6.9 4.8 7.2 4.8 C 7.5 4.8 7.8 4.7 8.1 4.4 C 8.08 4.44 8.7 5 8.7 5 C 8.7 5 8.69 4.98 8.7 5 Z M 6.2 3.4 C 6.2 3.4 7.8 3.4 7.8 3.4 C 7.8 3.2 7.7 3 7.6 2.8 C 7.4 2.7 7.3 2.6 7 2.6 C 6.8 2.6 6.6 2.7 6.5 2.8 C 6.4 3 6.3 3.2 6.2 3.4 Z M 11 5.7 C 10.4 5.7 9.9 5.5 9.4 5.1 C 9.4 5.1 9.8 4.4 9.8 4.4 C 10.2 4.7 10.6 4.9 11 4.9 C 11.3 4.9 11.5 4.8 11.5 4.6 C 11.5 4.6 11.5 4.6 11.5 4.6 C 11.5 4.5 11.5 4.5 11.4 4.5 C 11.4 4.4 11.4 4.4 11.4 4.4 C 11.3 4.4 11.3 4.4 11.3 4.3 C 11.3 4.3 11.2 4.3 11.2 4.3 C 11.1 4.3 11.1 4.2 11 4.2 C 11 4.2 10.9 4.2 10.9 4.2 C 10.8 4.2 10.7 4.1 10.7 4.1 C 10.5 4.1 10.4 4 10.3 4 C 10.2 3.9 10 3.9 9.9 3.8 C 9.8 3.7 9.7 3.6 9.7 3.5 C 9.6 3.3 9.6 3.2 9.6 3 C 9.6 3 9.6 3 9.6 3 C 9.6 2.6 9.7 2.3 10 2.1 C 10.2 1.9 10.5 1.8 10.9 1.8 C 11.4 1.8 11.9 1.9 12.3 2.2 C 12.3 2.2 11.9 3 11.9 3 C 11.5 2.7 11.2 2.6 10.9 2.6 C 10.8 2.6 10.7 2.6 10.6 2.7 C 10.6 2.7 10.5 2.8 10.5 2.9 C 10.5 2.9 10.5 2.9 10.5 2.9 C 10.5 3 10.6 3 10.7 3.1 C 10.8 3.2 11 3.3 11.3 3.3 C 11.4 3.4 11.6 3.4 11.7 3.5 C 11.8 3.5 11.9 3.6 12 3.7 C 12.2 3.8 12.3 3.9 12.3 4 C 12.4 4.1 12.4 4.3 12.4 4.4 C 12.4 4.4 12.4 4.5 12.4 4.5 C 12.4 4.9 12.3 5.2 12 5.4 C 11.8 5.6 11.4 5.7 11 5.7 Z M 13.2 5.6 L 13.2 1.8 L 14.2 1.8 C 14.2 1.8 14.24 2.38 14.2 2.4 C 14.6 2 14.9 1.8 15.4 1.8 C 15.9 1.8 16.2 2 16.4 2.4 C 16.7 2 17.1 1.8 17.6 1.8 C 18 1.8 18.4 1.9 18.6 2.1 C 18.8 2.4 18.9 2.7 18.9 3.2 C 18.91 3.16 18.9 5.6 18.9 5.6 L 17.8 5.6 C 17.8 5.6 17.84 3.51 17.8 3.5 C 17.8 3 17.6 2.7 17.2 2.7 C 17 2.7 16.9 2.8 16.7 2.9 C 16.6 3.1 16.6 3.3 16.6 3.5 C 16.58 3.51 16.6 5.6 16.6 5.6 L 15.5 5.6 C 15.5 5.6 15.51 3.51 15.5 3.5 C 15.5 3 15.3 2.7 14.9 2.7 C 14.7 2.7 14.5 2.8 14.4 2.9 C 14.3 3.1 14.2 3.3 14.2 3.5 C 14.24 3.51 14.2 5.6 14.2 5.6 L 13.2 5.6 Z M 23.1 5 C 22.8 5.5 22.3 5.7 21.6 5.7 C 21 5.7 20.6 5.5 20.2 5.1 C 19.8 4.8 19.6 4.3 19.6 3.7 C 19.6 3.7 19.6 3.7 19.6 3.7 C 19.6 3.2 19.8 2.7 20.2 2.3 C 20.5 2 21 1.8 21.5 1.8 C 22.1 1.8 22.5 2 22.9 2.4 C 23.2 2.8 23.3 3.2 23.3 3.8 C 23.3 3.9 23.3 4 23.3 4.1 C 23.3 4.1 20.7 4.1 20.7 4.1 C 20.8 4.3 20.9 4.5 21 4.6 C 21.2 4.8 21.4 4.8 21.6 4.8 C 21.9 4.8 22.2 4.7 22.5 4.4 C 22.53 4.44 23.1 5 23.1 5 C 23.1 5 23.14 4.98 23.1 5 Z M 20.7 3.4 C 20.7 3.4 22.3 3.4 22.3 3.4 C 22.3 3.2 22.2 3 22 2.8 C 21.9 2.7 21.7 2.6 21.5 2.6 C 21.3 2.6 21.1 2.7 21 2.8 C 20.8 3 20.7 3.2 20.7 3.4 Z M 27.5 5.6 L 27.5 1.7 L 26 1.7 L 26 0.7 L 30 0.7 L 30 1.7 L 28.6 1.7 L 28.6 5.6 L 27.5 5.6 Z M 32.2 5.2 C 31.9 5.5 31.6 5.7 31.1 5.7 C 30.7 5.7 30.4 5.6 30.2 5.4 C 29.9 5.2 29.8 4.9 29.8 4.5 C 29.8 4.5 29.8 4.5 29.8 4.5 C 29.8 4.1 29.9 3.8 30.2 3.6 C 30.5 3.4 30.8 3.3 31.3 3.3 C 31.6 3.3 31.9 3.4 32.2 3.5 C 32.2 3.5 32.2 3.4 32.2 3.4 C 32.2 2.9 32 2.7 31.4 2.7 C 31.1 2.7 30.7 2.8 30.4 2.9 C 30.4 2.9 30.1 2.1 30.1 2.1 C 30.6 1.9 31.1 1.8 31.6 1.8 C 32.1 1.8 32.6 1.9 32.8 2.2 C 33.1 2.5 33.2 2.9 33.2 3.4 C 33.25 3.42 33.2 5.6 33.2 5.6 L 32.2 5.6 L 32.2 5.2 C 32.2 5.2 32.22 5.19 32.2 5.2 Z M 31.4 4.9 C 31.7 4.9 31.9 4.9 32 4.8 C 32.2 4.6 32.2 4.5 32.2 4.3 C 32.2 4.3 32.2 4.1 32.2 4.1 C 32 4 31.8 3.9 31.6 3.9 C 31.3 3.9 31.2 4 31 4.1 C 30.9 4.2 30.8 4.3 30.8 4.5 C 30.8 4.5 30.8 4.5 30.8 4.5 C 30.8 4.6 30.9 4.7 31 4.8 C 31.1 4.9 31.2 4.9 31.4 4.9 Z M 34.2 5.6 L 34.2 0.5 L 35.2 0.5 C 35.2 0.5 35.23 2.38 35.2 2.4 C 35.5 2 35.9 1.8 36.3 1.8 C 36.7 1.8 37 1.9 37.3 2.1 C 37.5 2.4 37.6 2.7 37.6 3.2 C 37.6 3.17 37.6 5.6 37.6 5.6 L 36.5 5.6 C 36.5 5.6 36.54 3.51 36.5 3.5 C 36.5 3 36.3 2.7 35.9 2.7 C 35.7 2.7 35.5 2.8 35.4 2.9 C 35.3 3.1 35.2 3.3 35.2 3.5 C 35.23 3.51 35.2 5.6 35.2 5.6 L 34.2 5.6 Z M 40.6 5.4 C 40.4 5.6 40.1 5.7 39.8 5.7 C 39.4 5.7 39.2 5.6 39 5.4 C 38.8 5.2 38.7 4.9 38.7 4.5 C 38.7 4.54 38.7 2.8 38.7 2.8 L 38.3 2.8 L 38.3 1.8 L 38.7 1.8 L 38.7 0.9 L 39.8 0.9 L 39.8 1.8 L 40.6 1.8 L 40.6 2.8 L 39.8 2.8 C 39.8 2.8 39.77 4.36 39.8 4.4 C 39.8 4.6 39.9 4.7 40.1 4.7 C 40.3 4.7 40.5 4.7 40.6 4.6 C 40.63 4.59 40.6 5.4 40.6 5.4 C 40.6 5.4 40.63 5.45 40.6 5.4 Z M 43.6 5.2 C 43.3 5.5 43 5.7 42.5 5.7 C 42.1 5.7 41.8 5.6 41.6 5.4 C 41.3 5.2 41.2 4.9 41.2 4.5 C 41.2 4.5 41.2 4.5 41.2 4.5 C 41.2 4.1 41.3 3.8 41.6 3.6 C 41.9 3.4 42.3 3.3 42.7 3.3 C 43 3.3 43.3 3.4 43.6 3.5 C 43.6 3.5 43.6 3.4 43.6 3.4 C 43.6 2.9 43.4 2.7 42.8 2.7 C 42.5 2.7 42.1 2.8 41.8 2.9 C 41.8 2.9 41.5 2.1 41.5 2.1 C 42 1.9 42.5 1.8 43 1.8 C 43.6 1.8 44 1.9 44.3 2.2 C 44.5 2.5 44.7 2.9 44.7 3.4 C 44.66 3.42 44.7 5.6 44.7 5.6 L 43.6 5.6 L 43.6 5.2 C 43.6 5.2 43.63 5.19 43.6 5.2 Z M 42.8 4.9 C 43.1 4.9 43.3 4.9 43.4 4.8 C 43.6 4.6 43.7 4.5 43.7 4.3 C 43.7 4.3 43.7 4.1 43.7 4.1 C 43.4 4 43.2 3.9 43 3.9 C 42.7 3.9 42.6 4 42.4 4.1 C 42.3 4.2 42.2 4.3 42.2 4.5 C 42.2 4.5 42.2 4.5 42.2 4.5 C 42.2 4.6 42.3 4.7 42.4 4.8 C 42.5 4.9 42.6 4.9 42.8 4.9 Z M 46.9 5.7 C 46.3 5.7 45.8 5.5 45.3 5.1 C 45.3 5.1 45.7 4.4 45.7 4.4 C 46.1 4.7 46.5 4.9 46.9 4.9 C 47.2 4.9 47.4 4.8 47.4 4.6 C 47.4 4.6 47.4 4.6 47.4 4.6 C 47.4 4.5 47.4 4.5 47.4 4.5 C 47.3 4.4 47.3 4.4 47.3 4.4 C 47.3 4.4 47.2 4.4 47.2 4.3 C 47.2 4.3 47.1 4.3 47.1 4.3 C 47 4.3 47 4.2 46.9 4.2 C 46.9 4.2 46.8 4.2 46.8 4.2 C 46.7 4.2 46.6 4.1 46.6 4.1 C 46.4 4.1 46.3 4 46.2 4 C 46.1 3.9 46 3.9 45.8 3.8 C 45.7 3.7 45.6 3.6 45.6 3.5 C 45.5 3.3 45.5 3.2 45.5 3 C 45.5 3 45.5 3 45.5 3 C 45.5 2.6 45.6 2.3 45.9 2.1 C 46.1 1.9 46.5 1.8 46.8 1.8 C 47.3 1.8 47.8 1.9 48.2 2.2 C 48.2 2.2 47.8 3 47.8 3 C 47.4 2.7 47.1 2.6 46.8 2.6 C 46.7 2.6 46.6 2.6 46.5 2.7 C 46.5 2.7 46.4 2.8 46.4 2.9 C 46.4 2.9 46.4 2.9 46.4 2.9 C 46.4 3 46.5 3 46.6 3.1 C 46.8 3.2 46.9 3.3 47.2 3.3 C 47.4 3.4 47.5 3.4 47.6 3.5 C 47.7 3.5 47.8 3.6 47.9 3.7 C 48.1 3.8 48.2 3.9 48.2 4 C 48.3 4.1 48.3 4.3 48.3 4.4 C 48.3 4.4 48.3 4.5 48.3 4.5 C 48.3 4.9 48.2 5.2 47.9 5.4 C 47.7 5.6 47.3 5.7 46.9 5.7 Z M 49.1 5.6 L 49.1 1.8 L 50.2 1.8 L 50.2 5.6 L 49.1 5.6 Z M 53.2 3.9 L 53.2 2.9 L 56.2 2.9 L 56.2 3.9 L 53.2 3.9 Z M 59.2 5.6 L 59.2 0.7 L 60.3 0.7 L 60.3 4.6 L 62.7 4.6 L 62.7 5.6 L 59.2 5.6 Z M 63.5 5.6 L 63.5 0.7 L 67.2 0.7 L 67.2 1.7 L 64.6 1.7 L 64.6 2.7 L 66.9 2.7 L 66.9 3.6 L 64.6 3.6 L 64.6 4.6 L 67.3 4.6 L 67.3 5.6 L 63.5 5.6 Z M 69.8 5.6 L 67.8 0.7 L 69 0.7 L 70.3 4.2 L 71.6 0.7 L 72.7 0.7 L 70.7 5.6 L 69.8 5.6 Z M 78.2 3.1 C 78.2 3.9 77.9 4.5 77.4 4.9 C 76.9 5.4 76.3 5.7 75.6 5.7 C 74.8 5.7 74.2 5.4 73.7 5 C 73.2 4.5 73 3.9 73 3.2 C 73 3.2 73 3.1 73 3.1 C 73 2.4 73.2 1.8 73.7 1.4 C 74.2 0.9 74.8 0.6 75.6 0.6 C 76.3 0.6 76.9 0.9 77.4 1.3 C 77.9 1.8 78.2 2.4 78.2 3.1 C 78.16 3.14 78.2 3.1 78.2 3.1 C 78.2 3.1 78.16 3.15 78.2 3.1 Z M 74.1 3.1 C 74.1 3.6 74.2 3.9 74.5 4.2 C 74.8 4.5 75.1 4.7 75.6 4.7 C 76 4.7 76.3 4.5 76.6 4.2 C 76.9 4 77 3.6 77 3.2 C 77 3.2 77 3.1 77 3.1 C 77 2.7 76.9 2.4 76.6 2.1 C 76.3 1.8 76 1.6 75.6 1.6 C 75.1 1.6 74.8 1.8 74.5 2.1 C 74.2 2.3 74.1 2.7 74.1 3.1 C 74.08 3.14 74.1 3.1 74.1 3.1 C 74.1 3.1 74.08 3.15 74.1 3.1 Z M 79.1 5.6 L 79.1 0.7 C 79.1 0.7 81.36 0.7 81.4 0.7 C 82 0.7 82.5 0.9 82.8 1.2 C 83.1 1.5 83.2 1.9 83.2 2.3 C 83.2 2.3 83.2 2.3 83.2 2.3 C 83.2 3.1 82.9 3.6 82.2 3.8 C 82.16 3.85 83.4 5.6 83.4 5.6 L 82.1 5.6 L 81 4 L 80.2 4 L 80.2 5.6 L 79.1 5.6 Z M 80.2 3.1 C 80.2 3.1 81.29 3.08 81.3 3.1 C 81.6 3.1 81.8 3 81.9 2.9 C 82 2.8 82.1 2.6 82.1 2.4 C 82.1 2.4 82.1 2.4 82.1 2.4 C 82.1 2.1 82 2 81.9 1.9 C 81.7 1.7 81.5 1.7 81.3 1.7 C 81.27 1.67 80.2 1.7 80.2 1.7 L 80.2 3.1 Z M 89.2 3.1 C 89.2 3.9 88.9 4.5 88.4 4.9 C 87.9 5.4 87.3 5.7 86.6 5.7 C 85.8 5.7 85.2 5.4 84.7 5 C 84.2 4.5 84 3.9 84 3.2 C 84 3.2 84 3.1 84 3.1 C 84 2.4 84.2 1.8 84.7 1.4 C 85.2 0.9 85.8 0.6 86.6 0.6 C 87.3 0.6 87.9 0.9 88.4 1.3 C 88.9 1.8 89.2 2.4 89.2 3.1 C 89.17 3.14 89.2 3.1 89.2 3.1 C 89.2 3.1 89.17 3.15 89.2 3.1 Z M 85.1 3.1 C 85.1 3.6 85.2 3.9 85.5 4.2 C 85.8 4.5 86.1 4.7 86.6 4.7 C 87 4.7 87.4 4.5 87.6 4.2 C 87.9 4 88 3.6 88 3.2 C 88 3.2 88 3.1 88 3.1 C 88 2.7 87.9 2.4 87.6 2.1 C 87.3 1.8 87 1.6 86.6 1.6 C 86.1 1.6 85.8 1.8 85.5 2.1 C 85.2 2.3 85.1 2.7 85.1 3.1 C 85.09 3.14 85.1 3.1 85.1 3.1 C 85.1 3.1 85.09 3.15 85.1 3.1 Z M 94.5 5.9 C 94.5 5.9 94 6.6 94 6.6 C 93.3 6.2 92.9 5.8 92.5 5.3 C 92.2 4.8 92.1 4.3 92.1 3.6 C 92.1 3.6 92.1 3.6 92.1 3.6 C 92.1 2.9 92.2 2.3 92.5 1.9 C 92.9 1.4 93.3 0.9 94 0.6 C 94 0.6 94.5 1.3 94.5 1.3 C 94 1.6 93.6 2 93.4 2.3 C 93.2 2.7 93.1 3.1 93.1 3.6 C 93.1 3.6 93.1 3.6 93.1 3.6 C 93.1 4.1 93.2 4.5 93.4 4.9 C 93.6 5.2 94 5.6 94.5 5.9 Z M 95.3 5.6 L 95.3 0.7 L 96.4 0.7 L 96.4 2.8 L 98.4 0.7 L 99.7 0.7 L 97.7 2.8 L 99.8 5.6 L 98.5 5.6 L 97 3.5 L 96.4 4.1 L 96.4 5.6 L 95.3 5.6 Z M 102.5 5.1 C 102.2 5.5 101.9 5.7 101.4 5.7 C 101 5.7 100.7 5.5 100.5 5.3 C 100.3 5.1 100.2 4.7 100.2 4.3 C 100.18 4.28 100.2 1.8 100.2 1.8 L 101.2 1.8 C 101.2 1.8 101.24 3.94 101.2 3.9 C 101.2 4.4 101.5 4.7 101.9 4.7 C 102.1 4.7 102.3 4.6 102.4 4.5 C 102.5 4.4 102.5 4.2 102.5 3.9 C 102.55 3.94 102.5 1.8 102.5 1.8 L 103.6 1.8 L 103.6 5.6 L 102.5 5.6 L 102.5 5.1 C 102.5 5.1 102.55 5.07 102.5 5.1 Z M 102.1 1.4 L 102.1 0.5 L 103.1 0.5 L 103.1 1.4 L 102.1 1.4 Z M 100.7 1.4 L 100.7 0.5 L 101.7 0.5 L 101.7 1.4 L 100.7 1.4 Z M 106.1 6.8 L 105.2 6.4 C 105.2 6.4 105.74 5.6 105.7 5.6 C 105.3 5.5 105 5.2 104.8 4.9 C 104.5 4.6 104.4 4.2 104.4 3.7 C 104.4 3.7 104.4 3.7 104.4 3.7 C 104.4 3.2 104.6 2.7 104.9 2.3 C 105.3 2 105.8 1.8 106.3 1.8 C 107 1.8 107.5 2 107.8 2.4 C 107.8 2.4 107.2 3.1 107.2 3.1 C 107.1 3 106.9 2.9 106.8 2.8 C 106.7 2.7 106.5 2.7 106.3 2.7 C 106.1 2.7 105.9 2.8 105.7 3 C 105.5 3.2 105.4 3.4 105.4 3.7 C 105.4 3.7 105.4 3.7 105.4 3.7 C 105.4 4 105.5 4.3 105.7 4.5 C 105.9 4.7 106.1 4.8 106.4 4.8 C 106.7 4.8 107 4.6 107.2 4.4 C 107.2 4.4 107.9 5 107.9 5 C 107.7 5.2 107.5 5.4 107.3 5.5 C 107.1 5.6 106.8 5.7 106.5 5.7 C 106.51 5.68 106.1 6.8 106.1 6.8 Z M 110.9 5.1 C 110.6 5.5 110.2 5.7 109.8 5.7 C 109.4 5.7 109.1 5.5 108.9 5.3 C 108.6 5.1 108.5 4.7 108.5 4.3 C 108.53 4.28 108.5 1.8 108.5 1.8 L 109.6 1.8 C 109.6 1.8 109.6 3.94 109.6 3.9 C 109.6 4.4 109.8 4.7 110.2 4.7 C 110.5 4.7 110.6 4.6 110.7 4.5 C 110.8 4.4 110.9 4.2 110.9 3.9 C 110.91 3.94 110.9 1.8 110.9 1.8 L 112 1.8 L 112 5.6 L 110.9 5.6 L 110.9 5.1 C 110.9 5.1 110.91 5.07 110.9 5.1 Z M 110.5 1.4 L 110.5 0.5 L 111.5 0.5 L 111.5 1.4 L 110.5 1.4 Z M 109 1.4 L 109 0.5 L 110 0.5 L 110 1.4 L 109 1.4 Z M 112.9 5.6 L 112.9 0.5 L 114 0.5 L 114 3.2 L 115.2 1.8 L 116.5 1.8 L 115.1 3.3 L 116.6 5.6 L 115.3 5.6 L 114.4 4.1 L 114 4.5 L 114 5.6 L 112.9 5.6 Z M 117.4 6.6 C 117.4 6.6 116.9 5.9 116.9 5.9 C 117.4 5.6 117.7 5.2 117.9 4.9 C 118.1 4.5 118.2 4.1 118.2 3.6 C 118.2 3.6 118.2 3.6 118.2 3.6 C 118.2 3.1 118.1 2.7 117.9 2.3 C 117.7 2 117.4 1.6 116.9 1.3 C 116.9 1.3 117.4 0.6 117.4 0.6 C 118 0.9 118.5 1.4 118.8 1.9 C 119.1 2.3 119.3 2.9 119.3 3.6 C 119.3 3.6 119.3 3.6 119.3 3.6 C 119.3 4.3 119.1 4.8 118.8 5.3 C 118.5 5.8 118 6.2 117.4 6.6 Z " stroke="none" fill="#000"/>  </g></svg>