<?xml version="1.0" standalone="no"?><!DOCTYPE svg PUBLIC "-//W3C//DTD SVG 1.1//EN" "http://www.w3.org/Graphics/SVG/1.1/DTD/svg11.dtd"><svg xmlns="http://www.w3.org/2000/svg" version="1.1" width="257px" height="57.4px" viewBox="0 -3 257 57.4" style="top:-3px">  <desc>G da Saklama Kasesi – MUOVO r n Kodu: 35050 • Dolu hacim: 4.500 ml • 24 cm, H 15 cm</desc>  <defs/>  <g id="Polygon382514">    <path d="M 2.6 45.5 C 2.6 45.8 2.5 46 2.3 46.2 C 2.1 46.4 1.9 46.5 1.7 46.5 C 1.4 46.5 1.2 46.4 1 46.2 C 0.8 46 0.8 45.8 0.8 45.5 C 0.8 45.5 0.8 45.5 0.8 45.5 C 0.8 45.3 0.8 45.1 1 44.9 C 1.2 44.7 1.4 44.6 1.7 44.6 C 1.9 44.6 2.1 44.7 2.3 44.9 C 2.5 45.1 2.6 45.3 2.6 45.5 C 2.59 45.53 2.6 45.5 2.6 45.5 C 2.6 45.5 2.59 45.54 2.6 45.5 Z M 10.4 43.1 L 11 43.1 C 11 43.1 10.28 43.83 10.3 43.8 C 10.7 44.3 10.9 44.9 10.9 45.5 C 10.9 45.5 10.9 45.5 10.9 45.5 C 10.9 46.2 10.7 46.8 10.2 47.3 C 9.7 47.8 9.1 48.1 8.4 48.1 C 7.8 48.1 7.3 47.9 6.9 47.6 C 6.87 47.57 6.4 48 6.4 48 L 5.9 48 C 5.9 48 6.55 47.28 6.6 47.3 C 6.1 46.8 5.9 46.2 5.9 45.6 C 5.9 45.6 5.9 45.5 5.9 45.5 C 5.9 44.9 6.2 44.3 6.6 43.8 C 7.1 43.3 7.7 43 8.4 43 C 9 43 9.5 43.2 10 43.5 C 9.96 43.53 10.4 43.1 10.4 43.1 Z M 6.5 45.5 C 6.5 45.5 6.5 45.5 6.5 45.5 C 6.5 46.1 6.6 46.5 6.9 46.9 C 6.9 46.9 9.6 43.9 9.6 43.9 C 9.3 43.7 8.9 43.5 8.4 43.5 C 7.9 43.5 7.4 43.7 7 44.1 C 6.7 44.5 6.5 45 6.5 45.5 Z M 7.2 47.2 C 7.6 47.4 8 47.6 8.4 47.6 C 9 47.6 9.4 47.4 9.8 47 C 10.2 46.6 10.4 46.1 10.4 45.6 C 10.4 45.6 10.4 45.6 10.4 45.6 C 10.4 45.1 10.2 44.6 9.9 44.2 C 9.9 44.23 7.2 47.2 7.2 47.2 C 7.2 47.2 7.22 47.17 7.2 47.2 Z M 13.8 48 L 13.8 47.6 C 13.8 47.6 15.61 46 15.6 46 C 16 45.7 16.3 45.4 16.4 45.2 C 16.6 44.9 16.6 44.7 16.6 44.5 C 16.6 44.2 16.5 44 16.3 43.8 C 16.2 43.6 15.9 43.5 15.6 43.5 C 15.4 43.5 15.1 43.6 14.9 43.7 C 14.7 43.9 14.5 44.1 14.3 44.4 C 14.3 44.4 13.9 44.1 13.9 44.1 C 14.2 43.7 14.4 43.4 14.7 43.3 C 14.9 43.1 15.3 43 15.7 43 C 16.1 43 16.5 43.2 16.8 43.4 C 17.1 43.7 17.2 44 17.2 44.4 C 17.2 44.4 17.2 44.4 17.2 44.4 C 17.2 44.8 17.1 45.1 16.9 45.3 C 16.8 45.6 16.4 45.9 16 46.3 C 15.97 46.33 14.7 47.5 14.7 47.5 L 17.3 47.5 L 17.3 48 L 13.8 48 Z M 20.5 48 L 20.5 46.8 L 17.9 46.8 L 17.8 46.4 L 20.6 43.1 L 21.1 43.1 L 21.1 46.4 L 21.8 46.4 L 21.8 46.8 L 21.1 46.8 L 21.1 48 L 20.5 48 Z M 18.5 46.4 L 20.5 46.4 L 20.5 43.8 L 18.5 46.4 Z M 28 47.4 C 27.6 47.9 27.1 48.1 26.5 48.1 C 26 48.1 25.6 47.9 25.2 47.5 C 24.9 47.2 24.7 46.7 24.7 46.2 C 24.7 46.2 24.7 46.2 24.7 46.2 C 24.7 45.7 24.9 45.2 25.2 44.9 C 25.6 44.5 26 44.3 26.5 44.3 C 27.1 44.3 27.6 44.5 28 44.9 C 28 44.9 27.6 45.3 27.6 45.3 C 27.3 45 26.9 44.8 26.5 44.8 C 26.2 44.8 25.9 44.9 25.6 45.2 C 25.4 45.5 25.2 45.8 25.2 46.2 C 25.2 46.2 25.2 46.2 25.2 46.2 C 25.2 46.6 25.4 46.9 25.6 47.2 C 25.9 47.5 26.2 47.6 26.6 47.6 C 27 47.6 27.3 47.4 27.7 47.1 C 27.67 47.06 28 47.4 28 47.4 C 28 47.4 28.01 47.38 28 47.4 Z M 28.9 48 L 28.9 44.4 L 29.4 44.4 C 29.4 44.4 29.44 44.99 29.4 45 C 29.6 44.8 29.7 44.6 29.9 44.5 C 30.1 44.4 30.3 44.3 30.6 44.3 C 31.2 44.3 31.5 44.5 31.8 45 C 32.1 44.5 32.5 44.3 33 44.3 C 33.5 44.3 33.8 44.4 34 44.7 C 34.3 45 34.4 45.3 34.4 45.8 C 34.39 45.76 34.4 48 34.4 48 L 33.9 48 C 33.9 48 33.85 45.89 33.9 45.9 C 33.9 45.5 33.8 45.3 33.6 45.1 C 33.4 44.9 33.2 44.8 32.9 44.8 C 32.6 44.8 32.4 44.9 32.2 45.1 C 32 45.3 31.9 45.6 31.9 45.9 C 31.91 45.91 31.9 48 31.9 48 L 31.4 48 C 31.4 48 31.38 45.87 31.4 45.9 C 31.4 45.5 31.3 45.3 31.1 45.1 C 31 44.9 30.7 44.8 30.4 44.8 C 30.2 44.8 29.9 44.9 29.7 45.1 C 29.5 45.3 29.4 45.6 29.4 45.9 C 29.44 45.93 29.4 48 29.4 48 L 28.9 48 Z M 35.3 48.9 C 35.3 48.9 35.3 48.6 35.3 48.6 C 35.6 48.5 35.8 48.3 35.7 48 C 35.73 48 35.5 48 35.5 48 L 35.5 47.3 L 36.1 47.3 C 36.1 47.3 36.12 47.89 36.1 47.9 C 36.1 48.2 36.1 48.4 35.9 48.5 C 35.8 48.7 35.6 48.8 35.3 48.9 Z M 39.4 48 L 39.4 43.1 L 40 43.1 L 40 45.3 L 42.8 45.3 L 42.8 43.1 L 43.4 43.1 L 43.4 48 L 42.8 48 L 42.8 45.8 L 40 45.8 L 40 48 L 39.4 48 Z M 47.4 48 L 47.4 43.6 L 46.5 43.9 L 46.4 43.5 L 47.6 43.1 L 48 43.1 L 48 48 L 47.4 48 Z M 50.8 48.1 C 50.1 48.1 49.6 47.8 49 47.3 C 49 47.3 49.4 46.9 49.4 46.9 C 49.9 47.4 50.3 47.6 50.8 47.6 C 51.2 47.6 51.4 47.5 51.7 47.3 C 51.9 47.1 52 46.8 52 46.5 C 52 46.5 52 46.5 52 46.5 C 52 46.2 51.9 45.9 51.6 45.7 C 51.4 45.5 51.1 45.5 50.8 45.5 C 50.4 45.5 50.1 45.5 49.7 45.7 C 49.74 45.73 49.4 45.5 49.4 45.5 L 49.5 43.1 L 52.3 43.1 L 52.3 43.6 L 50 43.6 C 50 43.6 49.89 45.18 49.9 45.2 C 50.2 45 50.5 45 50.9 45 C 51.3 45 51.7 45.1 52.1 45.4 C 52.4 45.6 52.5 46 52.5 46.5 C 52.5 46.5 52.5 46.5 52.5 46.5 C 52.5 46.9 52.4 47.3 52.1 47.6 C 51.7 47.9 51.3 48.1 50.8 48.1 Z M 58.8 47.4 C 58.4 47.9 57.9 48.1 57.3 48.1 C 56.8 48.1 56.3 47.9 56 47.5 C 55.6 47.2 55.4 46.7 55.4 46.2 C 55.4 46.2 55.4 46.2 55.4 46.2 C 55.4 45.7 55.6 45.2 56 44.9 C 56.3 44.5 56.8 44.3 57.3 44.3 C 57.9 44.3 58.3 44.5 58.7 44.9 C 58.7 44.9 58.4 45.3 58.4 45.3 C 58 45 57.7 44.8 57.3 44.8 C 56.9 44.8 56.6 44.9 56.4 45.2 C 56.1 45.5 56 45.8 56 46.2 C 56 46.2 56 46.2 56 46.2 C 56 46.6 56.1 46.9 56.4 47.2 C 56.6 47.5 56.9 47.6 57.3 47.6 C 57.7 47.6 58.1 47.4 58.4 47.1 C 58.43 47.06 58.8 47.4 58.8 47.4 C 58.8 47.4 58.77 47.38 58.8 47.4 Z M 59.7 48 L 59.7 44.4 L 60.2 44.4 C 60.2 44.4 60.2 44.99 60.2 45 C 60.3 44.8 60.5 44.6 60.7 44.5 C 60.9 44.4 61.1 44.3 61.4 44.3 C 61.9 44.3 62.3 44.5 62.5 45 C 62.9 44.5 63.3 44.3 63.8 44.3 C 64.2 44.3 64.6 44.4 64.8 44.7 C 65 45 65.1 45.3 65.1 45.8 C 65.15 45.76 65.1 48 65.1 48 L 64.6 48 C 64.6 48 64.61 45.89 64.6 45.9 C 64.6 45.5 64.5 45.3 64.4 45.1 C 64.2 44.9 64 44.8 63.7 44.8 C 63.4 44.8 63.2 44.9 63 45.1 C 62.8 45.3 62.7 45.6 62.7 45.9 C 62.67 45.91 62.7 48 62.7 48 L 62.1 48 C 62.1 48 62.14 45.87 62.1 45.9 C 62.1 45.5 62.1 45.3 61.9 45.1 C 61.7 44.9 61.5 44.8 61.2 44.8 C 60.9 44.8 60.7 44.9 60.5 45.1 C 60.3 45.3 60.2 45.6 60.2 45.9 C 60.2 45.93 60.2 48 60.2 48 L 59.7 48 Z " stroke="none" fill="#000"/>  </g>  <g id="Polygon382513">    <path d="M 2.6 35.1 C 2.6 35.4 2.5 35.6 2.3 35.8 C 2.1 36 1.9 36.1 1.7 36.1 C 1.4 36.1 1.2 36 1 35.8 C 0.8 35.6 0.8 35.4 0.8 35.1 C 0.8 35.1 0.8 35.1 0.8 35.1 C 0.8 34.9 0.8 34.7 1 34.5 C 1.2 34.3 1.4 34.2 1.7 34.2 C 1.9 34.2 2.1 34.3 2.3 34.5 C 2.5 34.7 2.6 34.9 2.6 35.1 C 2.59 35.13 2.6 35.1 2.6 35.1 C 2.6 35.1 2.59 35.14 2.6 35.1 Z M 6.1 37.6 L 6.1 32.7 C 6.1 32.7 7.84 32.7 7.8 32.7 C 8.6 32.7 9.2 32.9 9.7 33.4 C 10.2 33.9 10.4 34.4 10.4 35.1 C 10.4 35.1 10.4 35.1 10.4 35.1 C 10.4 35.8 10.2 36.4 9.7 36.9 C 9.2 37.4 8.6 37.6 7.8 37.6 C 7.84 37.6 6.1 37.6 6.1 37.6 Z M 7.8 33.2 C 7.84 33.21 6.7 33.2 6.7 33.2 L 6.7 37.1 C 6.7 37.1 7.84 37.09 7.8 37.1 C 8.5 37.1 8.9 36.9 9.3 36.5 C 9.7 36.2 9.9 35.7 9.9 35.2 C 9.9 35.2 9.9 35.1 9.9 35.1 C 9.9 34.6 9.7 34.1 9.3 33.8 C 8.9 33.4 8.4 33.2 7.8 33.2 Z M 13.2 37.7 C 12.6 37.7 12.2 37.5 11.8 37.1 C 11.5 36.8 11.3 36.3 11.3 35.8 C 11.3 35.8 11.3 35.8 11.3 35.8 C 11.3 35.3 11.5 34.8 11.8 34.5 C 12.2 34.1 12.6 33.9 13.2 33.9 C 13.7 33.9 14.2 34.1 14.5 34.5 C 14.9 34.8 15.1 35.3 15.1 35.8 C 15.1 35.8 15.1 35.8 15.1 35.8 C 15.1 36.3 14.9 36.8 14.5 37.1 C 14.2 37.5 13.7 37.7 13.2 37.7 Z M 13.2 37.2 C 13.6 37.2 13.9 37.1 14.1 36.8 C 14.4 36.5 14.5 36.2 14.5 35.8 C 14.5 35.8 14.5 35.8 14.5 35.8 C 14.5 35.4 14.4 35.1 14.1 34.8 C 13.9 34.5 13.6 34.4 13.2 34.4 C 12.8 34.4 12.5 34.5 12.2 34.8 C 12 35.1 11.9 35.4 11.9 35.8 C 11.9 35.8 11.9 35.8 11.9 35.8 C 11.9 36.2 12 36.5 12.2 36.8 C 12.5 37.1 12.8 37.2 13.2 37.2 Z M 16.1 37.6 L 16.1 32.5 L 16.6 32.5 L 16.6 37.6 L 16.1 37.6 Z M 20.5 37 C 20.2 37.4 19.7 37.7 19.2 37.7 C 18.8 37.7 18.4 37.5 18.2 37.3 C 18 37 17.8 36.7 17.8 36.2 C 17.83 36.23 17.8 34 17.8 34 L 18.4 34 C 18.4 34 18.37 36.09 18.4 36.1 C 18.4 36.4 18.5 36.7 18.6 36.9 C 18.8 37.1 19.1 37.2 19.4 37.2 C 19.7 37.2 19.9 37.1 20.1 36.9 C 20.4 36.7 20.5 36.4 20.5 36.1 C 20.45 36.05 20.5 34 20.5 34 L 21 34 L 21 37.6 L 20.5 37.6 L 20.5 37 C 20.5 37 20.45 36.97 20.5 37 Z M 24.3 37.6 L 24.3 32.5 L 24.8 32.5 C 24.8 32.5 24.84 34.61 24.8 34.6 C 25.1 34.1 25.5 33.9 26.1 33.9 C 26.5 33.9 26.8 34 27.1 34.3 C 27.3 34.6 27.5 34.9 27.5 35.4 C 27.46 35.35 27.5 37.6 27.5 37.6 L 26.9 37.6 C 26.9 37.6 26.92 35.49 26.9 35.5 C 26.9 35.1 26.8 34.9 26.7 34.7 C 26.5 34.5 26.2 34.4 25.9 34.4 C 25.6 34.4 25.3 34.5 25.1 34.7 C 24.9 34.9 24.8 35.2 24.8 35.5 C 24.84 35.53 24.8 37.6 24.8 37.6 L 24.3 37.6 Z M 31 37.1 C 30.7 37.5 30.2 37.7 29.7 37.7 C 29.3 37.7 29 37.6 28.7 37.4 C 28.5 37.2 28.3 36.9 28.3 36.5 C 28.3 36.5 28.3 36.5 28.3 36.5 C 28.3 36.2 28.5 35.9 28.8 35.7 C 29 35.5 29.4 35.4 29.9 35.4 C 30.3 35.4 30.6 35.4 31 35.5 C 31 35.5 31 35.4 31 35.4 C 31 35.1 30.9 34.8 30.7 34.7 C 30.5 34.5 30.3 34.4 29.9 34.4 C 29.6 34.4 29.2 34.5 28.8 34.7 C 28.8 34.7 28.7 34.2 28.7 34.2 C 29.1 34 29.5 33.9 30 33.9 C 30.5 33.9 30.9 34.1 31.1 34.3 C 31.4 34.6 31.5 34.9 31.5 35.4 C 31.51 35.39 31.5 37.6 31.5 37.6 L 31 37.6 L 31 37.1 C 31 37.1 31 37.05 31 37.1 Z M 29.8 37.2 C 30.1 37.2 30.4 37.2 30.7 37 C 30.9 36.8 31 36.6 31 36.3 C 31 36.3 31 35.9 31 35.9 C 30.6 35.8 30.3 35.8 29.9 35.8 C 29.6 35.8 29.3 35.8 29.2 36 C 29 36.1 28.9 36.3 28.9 36.5 C 28.9 36.5 28.9 36.5 28.9 36.5 C 28.9 36.7 29 36.9 29.1 37.1 C 29.3 37.2 29.5 37.2 29.8 37.2 Z M 35.8 37 C 35.4 37.5 34.9 37.7 34.3 37.7 C 33.8 37.7 33.3 37.5 33 37.1 C 32.6 36.8 32.4 36.3 32.4 35.8 C 32.4 35.8 32.4 35.8 32.4 35.8 C 32.4 35.3 32.6 34.8 33 34.5 C 33.3 34.1 33.8 33.9 34.3 33.9 C 34.9 33.9 35.3 34.1 35.7 34.5 C 35.7 34.5 35.4 34.9 35.4 34.9 C 35 34.6 34.7 34.4 34.3 34.4 C 33.9 34.4 33.6 34.5 33.4 34.8 C 33.1 35.1 33 35.4 33 35.8 C 33 35.8 33 35.8 33 35.8 C 33 36.2 33.1 36.5 33.4 36.8 C 33.6 37.1 33.9 37.2 34.3 37.2 C 34.7 37.2 35.1 37 35.4 36.7 C 35.43 36.66 35.8 37 35.8 37 C 35.8 37 35.77 36.98 35.8 37 Z M 36.7 33.2 L 36.7 32.6 L 37.3 32.6 L 37.3 33.2 L 36.7 33.2 Z M 36.7 37.6 L 36.7 34 L 37.2 34 L 37.2 37.6 L 36.7 37.6 Z M 38.5 37.6 L 38.5 34 L 39 34 C 39 34 39.04 34.59 39 34.6 C 39.2 34.4 39.3 34.2 39.5 34.1 C 39.7 34 39.9 33.9 40.2 33.9 C 40.8 33.9 41.1 34.1 41.4 34.6 C 41.7 34.1 42.1 33.9 42.6 33.9 C 43.1 33.9 43.4 34 43.6 34.3 C 43.9 34.6 44 34.9 44 35.4 C 43.99 35.36 44 37.6 44 37.6 L 43.4 37.6 C 43.4 37.6 43.45 35.49 43.4 35.5 C 43.4 35.1 43.4 34.9 43.2 34.7 C 43 34.5 42.8 34.4 42.5 34.4 C 42.2 34.4 42 34.5 41.8 34.7 C 41.6 34.9 41.5 35.2 41.5 35.5 C 41.51 35.51 41.5 37.6 41.5 37.6 L 41 37.6 C 41 37.6 40.98 35.47 41 35.5 C 41 35.1 40.9 34.9 40.7 34.7 C 40.6 34.5 40.3 34.4 40 34.4 C 39.8 34.4 39.5 34.5 39.3 34.7 C 39.1 34.9 39 35.2 39 35.5 C 39.04 35.53 39 37.6 39 37.6 L 38.5 37.6 Z M 45.1 34.7 L 45.1 34 L 45.7 34 L 45.7 34.7 L 45.1 34.7 Z M 45.1 37.6 L 45.1 36.9 L 45.7 36.9 L 45.7 37.6 L 45.1 37.6 Z M 51.4 37.6 L 51.4 36.4 L 48.9 36.4 L 48.7 36 L 51.5 32.7 L 52 32.7 L 52 36 L 52.7 36 L 52.7 36.4 L 52 36.4 L 52 37.6 L 51.4 37.6 Z M 49.4 36 L 51.4 36 L 51.4 33.4 L 49.4 36 Z M 53.6 37.6 L 53.6 36.9 L 54.3 36.9 L 54.3 37.6 L 53.6 37.6 Z M 56.9 37.7 C 56.3 37.7 55.7 37.4 55.2 36.9 C 55.2 36.9 55.6 36.5 55.6 36.5 C 56 37 56.5 37.2 56.9 37.2 C 57.3 37.2 57.6 37.1 57.8 36.9 C 58 36.7 58.1 36.4 58.1 36.1 C 58.1 36.1 58.1 36.1 58.1 36.1 C 58.1 35.8 58 35.5 57.8 35.3 C 57.6 35.1 57.3 35.1 56.9 35.1 C 56.6 35.1 56.2 35.1 55.9 35.3 C 55.88 35.33 55.5 35.1 55.5 35.1 L 55.6 32.7 L 58.5 32.7 L 58.5 33.2 L 56.1 33.2 C 56.1 33.2 56.03 34.78 56 34.8 C 56.3 34.6 56.7 34.6 57 34.6 C 57.5 34.6 57.9 34.7 58.2 35 C 58.5 35.2 58.7 35.6 58.7 36.1 C 58.7 36.1 58.7 36.1 58.7 36.1 C 58.7 36.5 58.5 36.9 58.2 37.2 C 57.9 37.5 57.5 37.7 56.9 37.7 Z M 63.7 35.1 C 63.7 35.9 63.5 36.5 63.1 36.9 C 62.7 37.4 62.2 37.7 61.6 37.7 C 61 37.7 60.5 37.4 60.1 37 C 59.7 36.5 59.5 35.9 59.5 35.2 C 59.5 35.2 59.5 35.1 59.5 35.1 C 59.5 34.4 59.7 33.8 60.1 33.4 C 60.5 32.9 61 32.6 61.6 32.6 C 62.2 32.6 62.7 32.9 63.1 33.3 C 63.5 33.8 63.7 34.4 63.7 35.1 C 63.67 35.14 63.7 35.1 63.7 35.1 C 63.7 35.1 63.67 35.15 63.7 35.1 Z M 60.1 35.1 C 60.1 35.7 60.2 36.2 60.5 36.6 C 60.8 37 61.2 37.2 61.6 37.2 C 62.1 37.2 62.4 37 62.7 36.6 C 63 36.2 63.1 35.7 63.1 35.2 C 63.1 35.2 63.1 35.1 63.1 35.1 C 63.1 34.6 63 34.1 62.7 33.7 C 62.4 33.3 62 33.1 61.6 33.1 C 61.2 33.1 60.8 33.3 60.5 33.7 C 60.2 34.1 60.1 34.6 60.1 35.1 C 60.11 35.14 60.1 35.1 60.1 35.1 C 60.1 35.1 60.11 35.15 60.1 35.1 Z M 68.7 35.1 C 68.7 35.9 68.5 36.5 68.1 36.9 C 67.7 37.4 67.2 37.7 66.6 37.7 C 66 37.7 65.5 37.4 65.1 37 C 64.7 36.5 64.5 35.9 64.5 35.2 C 64.5 35.2 64.5 35.1 64.5 35.1 C 64.5 34.4 64.7 33.8 65.1 33.4 C 65.5 32.9 66 32.6 66.6 32.6 C 67.2 32.6 67.7 32.9 68.1 33.3 C 68.5 33.8 68.7 34.4 68.7 35.1 C 68.68 35.14 68.7 35.1 68.7 35.1 C 68.7 35.1 68.68 35.15 68.7 35.1 Z M 65.1 35.1 C 65.1 35.7 65.3 36.2 65.5 36.6 C 65.8 37 66.2 37.2 66.6 37.2 C 67.1 37.2 67.4 37 67.7 36.6 C 68 36.2 68.1 35.7 68.1 35.2 C 68.1 35.2 68.1 35.1 68.1 35.1 C 68.1 34.6 68 34.1 67.7 33.7 C 67.4 33.3 67 33.1 66.6 33.1 C 66.2 33.1 65.8 33.3 65.5 33.7 C 65.3 34.1 65.1 34.6 65.1 35.1 C 65.11 35.14 65.1 35.1 65.1 35.1 C 65.1 35.1 65.11 35.15 65.1 35.1 Z M 71.8 37.6 L 71.8 34 L 72.4 34 C 72.4 34 72.35 34.59 72.4 34.6 C 72.5 34.4 72.7 34.2 72.8 34.1 C 73 34 73.2 33.9 73.5 33.9 C 74.1 33.9 74.5 34.1 74.7 34.6 C 75 34.1 75.4 33.9 76 33.9 C 76.4 33.9 76.7 34 76.9 34.3 C 77.2 34.6 77.3 34.9 77.3 35.4 C 77.3 35.36 77.3 37.6 77.3 37.6 L 76.8 37.6 C 76.8 37.6 76.76 35.49 76.8 35.5 C 76.8 35.1 76.7 34.9 76.5 34.7 C 76.3 34.5 76.1 34.4 75.8 34.4 C 75.5 34.4 75.3 34.5 75.1 34.7 C 74.9 34.9 74.8 35.2 74.8 35.5 C 74.82 35.51 74.8 37.6 74.8 37.6 L 74.3 37.6 C 74.3 37.6 74.29 35.47 74.3 35.5 C 74.3 35.1 74.2 34.9 74 34.7 C 73.9 34.5 73.6 34.4 73.4 34.4 C 73.1 34.4 72.8 34.5 72.6 34.7 C 72.4 34.9 72.4 35.2 72.4 35.5 C 72.35 35.53 72.4 37.6 72.4 37.6 L 71.8 37.6 Z M 78.5 37.6 L 78.5 32.5 L 79 32.5 L 79 37.6 L 78.5 37.6 Z " stroke="none" fill="#000"/>  </g>  <g id="Polygon382512">    <path d="M 3 21.9 L 3 21.2 L 3.6 21.2 L 3.6 21.9 L 3 21.9 Z M 1.7 21.9 L 1.7 21.2 L 2.3 21.2 L 2.3 21.9 L 1.7 21.9 Z M 2.7 27.3 C 2 27.3 1.5 27.1 1.2 26.7 C 0.8 26.3 0.6 25.8 0.6 25.1 C 0.62 25.15 0.6 22.3 0.6 22.3 L 1.2 22.3 C 1.2 22.3 1.17 25.11 1.2 25.1 C 1.2 25.6 1.3 26 1.6 26.3 C 1.8 26.6 2.2 26.8 2.7 26.8 C 3.1 26.8 3.5 26.6 3.8 26.4 C 4 26.1 4.1 25.7 4.1 25.1 C 4.14 25.15 4.1 22.3 4.1 22.3 L 4.7 22.3 C 4.7 22.3 4.7 25.11 4.7 25.1 C 4.7 25.8 4.5 26.3 4.1 26.7 C 3.8 27.1 3.3 27.3 2.7 27.3 Z M 5.9 27.2 L 5.9 23.6 L 6.5 23.6 C 6.5 23.6 6.45 24.53 6.5 24.5 C 6.6 24.2 6.8 24 7 23.8 C 7.3 23.6 7.6 23.5 7.9 23.5 C 7.93 23.52 7.9 24.1 7.9 24.1 C 7.9 24.1 7.89 24.1 7.9 24.1 C 7.5 24.1 7.1 24.2 6.9 24.5 C 6.6 24.8 6.5 25.2 6.5 25.8 C 6.45 25.76 6.5 27.2 6.5 27.2 L 5.9 27.2 Z M 10.6 23 L 10.6 22.4 L 11.2 22.4 L 11.2 23 L 10.6 23 Z M 9.3 23 L 9.3 22.4 L 10 22.4 L 10 23 L 9.3 23 Z M 11.3 26.6 C 11 27 10.6 27.3 10.1 27.3 C 9.7 27.3 9.3 27.1 9.1 26.9 C 8.8 26.6 8.7 26.3 8.7 25.8 C 8.69 25.83 8.7 23.6 8.7 23.6 L 9.2 23.6 C 9.2 23.6 9.23 25.69 9.2 25.7 C 9.2 26 9.3 26.3 9.5 26.5 C 9.7 26.7 9.9 26.8 10.2 26.8 C 10.5 26.8 10.8 26.7 11 26.5 C 11.2 26.3 11.3 26 11.3 25.7 C 11.32 25.65 11.3 23.6 11.3 23.6 L 11.9 23.6 L 11.9 27.2 L 11.3 27.2 L 11.3 26.6 C 11.3 26.6 11.32 26.57 11.3 26.6 Z M 13.1 27.2 L 13.1 23.6 L 13.6 23.6 C 13.6 23.6 13.6 24.21 13.6 24.2 C 13.9 23.7 14.3 23.5 14.8 23.5 C 15.3 23.5 15.6 23.6 15.9 23.9 C 16.1 24.2 16.2 24.5 16.2 25 C 16.23 24.95 16.2 27.2 16.2 27.2 L 15.7 27.2 C 15.7 27.2 15.69 25.09 15.7 25.1 C 15.7 24.7 15.6 24.5 15.4 24.3 C 15.2 24.1 15 24 14.7 24 C 14.4 24 14.1 24.1 13.9 24.3 C 13.7 24.5 13.6 24.8 13.6 25.1 C 13.6 25.13 13.6 27.2 13.6 27.2 L 13.1 27.2 Z M 19.6 27.2 L 19.6 22.3 L 20.1 22.3 L 20.1 25.2 L 22.9 22.3 L 23.7 22.3 L 21.5 24.4 L 23.7 27.2 L 23 27.2 L 21.2 24.8 L 20.1 25.9 L 20.1 27.2 L 19.6 27.2 Z M 25.9 27.3 C 25.4 27.3 25 27.1 24.6 26.7 C 24.3 26.4 24.1 25.9 24.1 25.4 C 24.1 25.4 24.1 25.4 24.1 25.4 C 24.1 24.9 24.3 24.4 24.6 24.1 C 25 23.7 25.4 23.5 26 23.5 C 26.5 23.5 26.9 23.7 27.3 24.1 C 27.7 24.4 27.8 24.9 27.8 25.4 C 27.8 25.4 27.8 25.4 27.8 25.4 C 27.8 25.9 27.7 26.4 27.3 26.7 C 26.9 27.1 26.5 27.3 25.9 27.3 Z M 26 26.8 C 26.3 26.8 26.7 26.7 26.9 26.4 C 27.2 26.1 27.3 25.8 27.3 25.4 C 27.3 25.4 27.3 25.4 27.3 25.4 C 27.3 25 27.2 24.7 26.9 24.4 C 26.6 24.1 26.3 24 25.9 24 C 25.6 24 25.2 24.1 25 24.4 C 24.8 24.7 24.6 25 24.6 25.4 C 24.6 25.4 24.6 25.4 24.6 25.4 C 24.6 25.8 24.8 26.1 25 26.4 C 25.3 26.7 25.6 26.8 26 26.8 Z M 31.7 26.5 C 31.4 27 30.9 27.3 30.3 27.3 C 29.9 27.3 29.5 27.1 29.1 26.8 C 28.8 26.4 28.6 26 28.6 25.4 C 28.6 25.4 28.6 25.4 28.6 25.4 C 28.6 24.8 28.8 24.4 29.1 24 C 29.5 23.7 29.9 23.5 30.3 23.5 C 30.9 23.5 31.4 23.8 31.7 24.3 C 31.72 24.27 31.7 22.1 31.7 22.1 L 32.3 22.1 L 32.3 27.2 L 31.7 27.2 L 31.7 26.5 C 31.7 26.5 31.72 26.47 31.7 26.5 Z M 30.4 26.8 C 30.8 26.8 31.1 26.7 31.4 26.4 C 31.6 26.1 31.7 25.8 31.7 25.4 C 31.7 25.4 31.7 25.4 31.7 25.4 C 31.7 25 31.6 24.6 31.4 24.4 C 31.1 24.1 30.8 24 30.4 24 C 30.1 24 29.8 24.1 29.5 24.4 C 29.3 24.6 29.2 25 29.2 25.4 C 29.2 25.4 29.2 25.4 29.2 25.4 C 29.2 25.8 29.3 26.2 29.5 26.4 C 29.8 26.7 30.1 26.8 30.4 26.8 Z M 36 26.6 C 35.7 27 35.3 27.3 34.8 27.3 C 34.4 27.3 34 27.1 33.8 26.9 C 33.5 26.6 33.4 26.3 33.4 25.8 C 33.41 25.83 33.4 23.6 33.4 23.6 L 33.9 23.6 C 33.9 23.6 33.95 25.69 33.9 25.7 C 33.9 26 34 26.3 34.2 26.5 C 34.4 26.7 34.6 26.8 35 26.8 C 35.3 26.8 35.5 26.7 35.7 26.5 C 35.9 26.3 36 26 36 25.7 C 36.04 25.65 36 23.6 36 23.6 L 36.6 23.6 L 36.6 27.2 L 36 27.2 L 36 26.6 C 36 26.6 36.04 26.57 36 26.6 Z M 37.7 24.3 L 37.7 23.6 L 38.4 23.6 L 38.4 24.3 L 37.7 24.3 Z M 37.7 27.2 L 37.7 26.5 L 38.4 26.5 L 38.4 27.2 L 37.7 27.2 Z M 43.2 27.3 C 42.4 27.3 41.8 27 41.3 26.4 C 41.3 26.4 42.1 25.7 42.1 25.7 C 42.4 26.1 42.8 26.3 43.2 26.3 C 43.5 26.3 43.6 26.3 43.7 26.2 C 43.9 26 43.9 25.9 43.9 25.7 C 43.9 25.7 43.9 25.7 43.9 25.7 C 43.9 25.5 43.9 25.4 43.7 25.2 C 43.5 25.1 43.3 25.1 43 25.1 C 42.98 25.09 42.5 25.1 42.5 25.1 L 42.4 24.4 L 43.5 23.2 L 41.6 23.2 L 41.6 22.3 L 44.9 22.3 L 44.9 23.1 C 44.9 23.1 43.68 24.29 43.7 24.3 C 44.6 24.4 45 24.9 45 25.7 C 45 25.7 45 25.7 45 25.7 C 45 26.2 44.8 26.5 44.5 26.8 C 44.2 27.1 43.8 27.3 43.2 27.3 Z M 47.5 27.3 C 46.8 27.3 46.2 27 45.7 26.5 C 45.7 26.5 46.3 25.8 46.3 25.8 C 46.7 26.1 47.1 26.3 47.5 26.3 C 47.7 26.3 47.9 26.2 48.1 26.1 C 48.2 26 48.3 25.8 48.3 25.6 C 48.3 25.6 48.3 25.6 48.3 25.6 C 48.3 25.4 48.2 25.2 48.1 25.1 C 47.9 25 47.7 24.9 47.4 24.9 C 47.2 24.9 46.9 25 46.6 25.1 C 46.62 25.13 46 24.7 46 24.7 L 46.1 22.3 L 49.1 22.3 L 49.1 23.2 L 47.1 23.2 C 47.1 23.2 47 24.09 47 24.1 C 47.2 24 47.4 24 47.6 24 C 48.2 24 48.6 24.1 48.9 24.4 C 49.2 24.7 49.4 25.1 49.4 25.6 C 49.4 25.6 49.4 25.6 49.4 25.6 C 49.4 26.1 49.2 26.5 48.9 26.8 C 48.5 27.1 48.1 27.3 47.5 27.3 Z M 52.3 27.3 C 51.7 27.3 51.2 27 50.8 26.6 C 50.4 26.1 50.2 25.5 50.2 24.8 C 50.2 24.8 50.2 24.7 50.2 24.7 C 50.2 24 50.4 23.4 50.8 22.9 C 51.2 22.5 51.7 22.2 52.3 22.2 C 53 22.2 53.5 22.5 53.9 22.9 C 54.3 23.4 54.5 24 54.5 24.7 C 54.5 24.7 54.5 24.7 54.5 24.7 C 54.5 25.5 54.3 26.1 53.9 26.6 C 53.5 27 53 27.3 52.3 27.3 Z M 51.3 24.7 C 51.3 25.2 51.4 25.6 51.6 25.9 C 51.8 26.2 52 26.3 52.3 26.3 C 52.7 26.3 52.9 26.2 53.1 25.9 C 53.3 25.6 53.4 25.2 53.4 24.8 C 53.4 24.8 53.4 24.7 53.4 24.7 C 53.4 24.3 53.3 23.9 53.1 23.6 C 52.9 23.3 52.6 23.2 52.3 23.2 C 52 23.2 51.8 23.3 51.6 23.6 C 51.4 23.9 51.3 24.3 51.3 24.7 C 51.26 24.74 51.3 24.7 51.3 24.7 C 51.3 24.7 51.26 24.75 51.3 24.7 Z M 57 27.3 C 56.3 27.3 55.7 27 55.2 26.5 C 55.2 26.5 55.8 25.8 55.8 25.8 C 56.2 26.1 56.6 26.3 57 26.3 C 57.3 26.3 57.5 26.2 57.6 26.1 C 57.8 26 57.8 25.8 57.8 25.6 C 57.8 25.6 57.8 25.6 57.8 25.6 C 57.8 25.4 57.7 25.2 57.6 25.1 C 57.4 25 57.2 24.9 57 24.9 C 56.7 24.9 56.4 25 56.1 25.1 C 56.14 25.13 55.5 24.7 55.5 24.7 L 55.7 22.3 L 58.7 22.3 L 58.7 23.2 L 56.6 23.2 C 56.6 23.2 56.52 24.09 56.5 24.1 C 56.7 24 57 24 57.2 24 C 57.7 24 58.1 24.1 58.4 24.4 C 58.7 24.7 58.9 25.1 58.9 25.6 C 58.9 25.6 58.9 25.6 58.9 25.6 C 58.9 26.1 58.7 26.5 58.4 26.8 C 58 27.1 57.6 27.3 57 27.3 Z M 61.8 27.3 C 61.2 27.3 60.7 27 60.3 26.6 C 59.9 26.1 59.7 25.5 59.7 24.8 C 59.7 24.8 59.7 24.7 59.7 24.7 C 59.7 24 59.9 23.4 60.3 22.9 C 60.7 22.5 61.2 22.2 61.9 22.2 C 62.5 22.2 63 22.5 63.4 22.9 C 63.8 23.4 64 24 64 24.7 C 64 24.7 64 24.7 64 24.7 C 64 25.5 63.8 26.1 63.4 26.6 C 63 27 62.5 27.3 61.8 27.3 Z M 60.8 24.7 C 60.8 25.2 60.9 25.6 61.1 25.9 C 61.3 26.2 61.5 26.3 61.9 26.3 C 62.2 26.3 62.4 26.2 62.6 25.9 C 62.8 25.6 62.9 25.2 62.9 24.8 C 62.9 24.8 62.9 24.7 62.9 24.7 C 62.9 24.3 62.8 23.9 62.6 23.6 C 62.4 23.3 62.2 23.2 61.8 23.2 C 61.5 23.2 61.3 23.3 61.1 23.6 C 60.9 23.9 60.8 24.3 60.8 24.7 C 60.78 24.74 60.8 24.7 60.8 24.7 C 60.8 24.7 60.78 24.75 60.8 24.7 Z " stroke="none" fill="#000"/>  </g>  <g id="Polygon382511">    <path d="M 5.8 5.6 C 5.1 6.2 4.3 6.5 3.4 6.5 C 2.5 6.5 1.8 6.2 1.2 5.7 C 0.7 5.1 0.4 4.5 0.4 3.6 C 0.4 3.6 0.4 3.6 0.4 3.6 C 0.4 2.8 0.7 2.1 1.3 1.5 C 1.8 1 2.5 0.7 3.4 0.7 C 3.8 0.7 4.3 0.8 4.6 0.9 C 4.9 1 5.3 1.2 5.6 1.5 C 5.6 1.5 4.8 2.4 4.8 2.4 C 4.6 2.2 4.3 2.1 4.1 2 C 3.9 1.9 3.6 1.8 3.3 1.8 C 2.9 1.8 2.5 2 2.2 2.4 C 1.9 2.7 1.7 3.1 1.7 3.6 C 1.7 3.6 1.7 3.6 1.7 3.6 C 1.7 4.1 1.9 4.5 2.2 4.9 C 2.5 5.2 2.9 5.4 3.4 5.4 C 3.9 5.4 4.3 5.3 4.6 5 C 4.57 5.04 4.6 4.2 4.6 4.2 L 3.3 4.2 L 3.3 3.2 L 5.8 3.2 L 5.8 5.6 C 5.8 5.6 5.76 5.61 5.8 5.6 Z M 6.9 6.4 L 6.9 2.1 L 8.1 2.1 L 8.1 6.4 L 6.9 6.4 Z M 12.3 5.8 C 12 6.2 11.5 6.5 11 6.5 C 10.5 6.5 10 6.3 9.6 5.9 C 9.2 5.5 9 4.9 9 4.3 C 9 4.3 9 4.2 9 4.2 C 9 3.6 9.2 3 9.6 2.6 C 10 2.2 10.5 2 11 2 C 11.5 2 12 2.2 12.3 2.7 C 12.33 2.67 12.3 0.6 12.3 0.6 L 13.5 0.6 L 13.5 6.4 L 12.3 6.4 L 12.3 5.8 C 12.3 5.8 12.33 5.78 12.3 5.8 Z M 10.3 4.3 C 10.3 4.6 10.4 4.9 10.6 5.1 C 10.8 5.3 11 5.4 11.3 5.4 C 11.6 5.4 11.8 5.3 12 5.1 C 12.2 4.9 12.3 4.6 12.3 4.3 C 12.3 4.3 12.3 4.2 12.3 4.2 C 12.3 3.9 12.2 3.6 12 3.4 C 11.8 3.2 11.6 3.1 11.3 3.1 C 11 3.1 10.8 3.2 10.6 3.4 C 10.4 3.6 10.3 3.9 10.3 4.2 C 10.26 4.25 10.3 4.3 10.3 4.3 C 10.3 4.3 10.26 4.26 10.3 4.3 Z M 17.1 5.9 C 16.8 6.3 16.4 6.5 15.8 6.5 C 15.4 6.5 15.1 6.4 14.8 6.1 C 14.5 5.9 14.4 5.6 14.4 5.2 C 14.4 5.2 14.4 5.2 14.4 5.2 C 14.4 4.7 14.5 4.4 14.8 4.1 C 15.2 3.9 15.6 3.8 16.1 3.8 C 16.5 3.8 16.8 3.8 17.2 4 C 17.2 4 17.2 3.9 17.2 3.9 C 17.2 3.4 16.8 3.1 16.2 3.1 C 15.8 3.1 15.4 3.2 15 3.3 C 15 3.3 14.7 2.4 14.7 2.4 C 15.3 2.2 15.8 2.1 16.4 2.1 C 17.1 2.1 17.5 2.2 17.9 2.5 C 18.2 2.9 18.3 3.3 18.3 3.9 C 18.32 3.91 18.3 6.4 18.3 6.4 L 17.1 6.4 L 17.1 5.9 C 17.1 5.9 17.14 5.94 17.1 5.9 Z M 16.2 5.6 C 16.5 5.6 16.7 5.6 16.9 5.4 C 17.1 5.3 17.2 5.1 17.2 4.9 C 17.2 4.9 17.2 4.7 17.2 4.7 C 16.9 4.6 16.7 4.5 16.4 4.5 C 16.1 4.5 15.9 4.6 15.8 4.7 C 15.6 4.8 15.6 4.9 15.6 5.1 C 15.6 5.1 15.6 5.1 15.6 5.1 C 15.6 5.3 15.6 5.4 15.7 5.5 C 15.9 5.6 16 5.6 16.2 5.6 Z M 23.9 6.5 C 23 6.5 22.2 6.2 21.5 5.6 C 21.5 5.6 22.2 4.7 22.2 4.7 C 22.8 5.2 23.4 5.4 23.9 5.4 C 24.2 5.4 24.4 5.3 24.5 5.3 C 24.6 5.2 24.7 5 24.7 4.9 C 24.7 4.9 24.7 4.8 24.7 4.8 C 24.7 4.7 24.6 4.6 24.5 4.5 C 24.3 4.4 24 4.2 23.6 4.1 C 23.3 4.1 23 4 22.8 3.9 C 22.6 3.8 22.4 3.7 22.2 3.6 C 22.1 3.5 21.9 3.3 21.9 3.1 C 21.8 2.9 21.7 2.7 21.7 2.4 C 21.7 2.4 21.7 2.4 21.7 2.4 C 21.7 1.9 21.9 1.5 22.3 1.2 C 22.6 0.9 23.1 0.7 23.7 0.7 C 24.5 0.7 25.2 1 25.8 1.4 C 25.8 1.4 25.1 2.4 25.1 2.4 C 24.6 2 24.1 1.8 23.7 1.8 C 23.4 1.8 23.3 1.9 23.1 1.9 C 23 2 23 2.2 23 2.3 C 23 2.3 23 2.3 23 2.3 C 23 2.5 23 2.6 23.2 2.7 C 23.3 2.8 23.7 2.9 24.2 3 C 24.8 3.2 25.2 3.4 25.5 3.7 C 25.8 3.9 25.9 4.3 25.9 4.7 C 25.9 4.7 25.9 4.7 25.9 4.7 C 25.9 5.3 25.8 5.7 25.4 6 C 25 6.3 24.5 6.5 23.9 6.5 Z M 29.4 5.9 C 29.1 6.3 28.6 6.5 28.1 6.5 C 27.7 6.5 27.3 6.4 27.1 6.1 C 26.8 5.9 26.6 5.6 26.6 5.2 C 26.6 5.2 26.6 5.2 26.6 5.2 C 26.6 4.7 26.8 4.4 27.1 4.1 C 27.4 3.9 27.8 3.8 28.4 3.8 C 28.7 3.8 29.1 3.8 29.4 4 C 29.4 4 29.4 3.9 29.4 3.9 C 29.4 3.4 29.1 3.1 28.5 3.1 C 28.1 3.1 27.7 3.2 27.3 3.3 C 27.3 3.3 27 2.4 27 2.4 C 27.5 2.2 28.1 2.1 28.7 2.1 C 29.3 2.1 29.8 2.2 30.1 2.5 C 30.4 2.9 30.6 3.3 30.6 3.9 C 30.58 3.91 30.6 6.4 30.6 6.4 L 29.4 6.4 L 29.4 5.9 C 29.4 5.9 29.4 5.94 29.4 5.9 Z M 28.5 5.6 C 28.8 5.6 29 5.6 29.2 5.4 C 29.3 5.3 29.4 5.1 29.4 4.9 C 29.4 4.9 29.4 4.7 29.4 4.7 C 29.2 4.6 28.9 4.5 28.6 4.5 C 28.4 4.5 28.2 4.6 28 4.7 C 27.9 4.8 27.8 4.9 27.8 5.1 C 27.8 5.1 27.8 5.1 27.8 5.1 C 27.8 5.3 27.9 5.4 28 5.5 C 28.1 5.6 28.3 5.6 28.5 5.6 Z M 31.6 6.4 L 31.6 0.6 L 32.8 0.6 L 32.8 3.7 L 34.3 2.1 L 35.7 2.1 L 34.1 3.8 L 35.8 6.4 L 34.4 6.4 L 33.3 4.6 L 32.8 5.1 L 32.8 6.4 L 31.6 6.4 Z M 36.4 6.4 L 36.4 0.6 L 37.6 0.6 L 37.6 6.4 L 36.4 6.4 Z M 41.3 5.9 C 41 6.3 40.5 6.5 40 6.5 C 39.6 6.5 39.2 6.4 38.9 6.1 C 38.7 5.9 38.5 5.6 38.5 5.2 C 38.5 5.2 38.5 5.2 38.5 5.2 C 38.5 4.7 38.7 4.4 39 4.1 C 39.3 3.9 39.7 3.8 40.2 3.8 C 40.6 3.8 40.9 3.8 41.3 4 C 41.3 4 41.3 3.9 41.3 3.9 C 41.3 3.4 41 3.1 40.4 3.1 C 40 3.1 39.6 3.2 39.2 3.3 C 39.2 3.3 38.9 2.4 38.9 2.4 C 39.4 2.2 40 2.1 40.6 2.1 C 41.2 2.1 41.7 2.2 42 2.5 C 42.3 2.9 42.5 3.3 42.5 3.9 C 42.46 3.91 42.5 6.4 42.5 6.4 L 41.3 6.4 L 41.3 5.9 C 41.3 5.9 41.29 5.94 41.3 5.9 Z M 40.4 5.6 C 40.6 5.6 40.9 5.6 41.1 5.4 C 41.2 5.3 41.3 5.1 41.3 4.9 C 41.3 4.9 41.3 4.7 41.3 4.7 C 41.1 4.6 40.8 4.5 40.5 4.5 C 40.3 4.5 40.1 4.6 39.9 4.7 C 39.8 4.8 39.7 4.9 39.7 5.1 C 39.7 5.1 39.7 5.1 39.7 5.1 C 39.7 5.3 39.8 5.4 39.9 5.5 C 40 5.6 40.2 5.6 40.4 5.6 Z M 43.5 6.4 L 43.5 2.1 L 44.7 2.1 C 44.7 2.1 44.73 2.72 44.7 2.7 C 45.1 2.3 45.5 2 46 2 C 46.6 2 47 2.3 47.2 2.7 C 47.6 2.3 48 2 48.6 2 C 49.1 2 49.4 2.2 49.7 2.4 C 49.9 2.7 50.1 3.1 50.1 3.6 C 50.06 3.61 50.1 6.4 50.1 6.4 L 48.8 6.4 C 48.8 6.4 48.84 4.01 48.8 4 C 48.8 3.4 48.6 3.1 48.1 3.1 C 47.9 3.1 47.7 3.2 47.6 3.4 C 47.5 3.5 47.4 3.7 47.4 4 C 47.39 4.01 47.4 6.4 47.4 6.4 L 46.2 6.4 C 46.2 6.4 46.18 4.01 46.2 4 C 46.2 3.4 45.9 3.1 45.5 3.1 C 45.2 3.1 45.1 3.2 44.9 3.4 C 44.8 3.5 44.7 3.7 44.7 4 C 44.73 4.01 44.7 6.4 44.7 6.4 L 43.5 6.4 Z M 53.6 5.9 C 53.3 6.3 52.9 6.5 52.3 6.5 C 51.9 6.5 51.6 6.4 51.3 6.1 C 51 5.9 50.9 5.6 50.9 5.2 C 50.9 5.2 50.9 5.2 50.9 5.2 C 50.9 4.7 51 4.4 51.3 4.1 C 51.6 3.9 52.1 3.8 52.6 3.8 C 52.9 3.8 53.3 3.8 53.6 4 C 53.6 4 53.6 3.9 53.6 3.9 C 53.6 3.4 53.3 3.1 52.7 3.1 C 52.3 3.1 51.9 3.2 51.5 3.3 C 51.5 3.3 51.2 2.4 51.2 2.4 C 51.8 2.2 52.3 2.1 52.9 2.1 C 53.5 2.1 54 2.2 54.3 2.5 C 54.6 2.9 54.8 3.3 54.8 3.9 C 54.8 3.91 54.8 6.4 54.8 6.4 L 53.6 6.4 L 53.6 5.9 C 53.6 5.9 53.62 5.94 53.6 5.9 Z M 52.7 5.6 C 53 5.6 53.2 5.6 53.4 5.4 C 53.6 5.3 53.6 5.1 53.6 4.9 C 53.6 4.9 53.6 4.7 53.6 4.7 C 53.4 4.6 53.1 4.5 52.9 4.5 C 52.6 4.5 52.4 4.6 52.3 4.7 C 52.1 4.8 52 4.9 52 5.1 C 52 5.1 52 5.1 52 5.1 C 52 5.3 52.1 5.4 52.2 5.5 C 52.3 5.6 52.5 5.6 52.7 5.6 Z M 58.4 6.4 L 58.4 0.8 L 59.6 0.8 L 59.6 3.2 L 61.9 0.8 L 63.4 0.8 L 61.1 3.2 L 63.5 6.4 L 62 6.4 L 60.3 4 L 59.6 4.7 L 59.6 6.4 L 58.4 6.4 Z M 66.5 5.9 C 66.2 6.3 65.8 6.5 65.2 6.5 C 64.8 6.5 64.5 6.4 64.2 6.1 C 63.9 5.9 63.8 5.6 63.8 5.2 C 63.8 5.2 63.8 5.2 63.8 5.2 C 63.8 4.7 63.9 4.4 64.2 4.1 C 64.5 3.9 65 3.8 65.5 3.8 C 65.8 3.8 66.2 3.8 66.5 4 C 66.5 4 66.5 3.9 66.5 3.9 C 66.5 3.4 66.2 3.1 65.6 3.1 C 65.2 3.1 64.8 3.2 64.4 3.3 C 64.4 3.3 64.1 2.4 64.1 2.4 C 64.7 2.2 65.2 2.1 65.8 2.1 C 66.4 2.1 66.9 2.2 67.2 2.5 C 67.5 2.9 67.7 3.3 67.7 3.9 C 67.7 3.91 67.7 6.4 67.7 6.4 L 66.5 6.4 L 66.5 5.9 C 66.5 5.9 66.52 5.94 66.5 5.9 Z M 65.6 5.6 C 65.9 5.6 66.1 5.6 66.3 5.4 C 66.5 5.3 66.5 5.1 66.5 4.9 C 66.5 4.9 66.5 4.7 66.5 4.7 C 66.3 4.6 66 4.5 65.8 4.5 C 65.5 4.5 65.3 4.6 65.2 4.7 C 65 4.8 64.9 4.9 64.9 5.1 C 64.9 5.1 64.9 5.1 64.9 5.1 C 64.9 5.3 65 5.4 65.1 5.5 C 65.2 5.6 65.4 5.6 65.6 5.6 Z M 70.2 6.5 C 69.6 6.5 69 6.3 68.4 5.8 C 68.4 5.8 68.9 5 68.9 5 C 69.4 5.4 69.8 5.5 70.3 5.5 C 70.6 5.5 70.8 5.4 70.8 5.2 C 70.8 5.2 70.8 5.2 70.8 5.2 C 70.8 5.2 70.8 5.1 70.8 5.1 C 70.8 5.1 70.7 5 70.7 5 C 70.7 5 70.6 5 70.6 5 C 70.6 4.9 70.5 4.9 70.4 4.9 C 70.4 4.9 70.3 4.8 70.3 4.8 C 70.2 4.8 70.2 4.8 70.1 4.8 C 70 4.7 70 4.7 69.9 4.7 C 69.7 4.7 69.6 4.6 69.4 4.6 C 69.3 4.5 69.2 4.4 69 4.3 C 68.9 4.2 68.8 4.1 68.7 3.9 C 68.7 3.8 68.6 3.6 68.6 3.4 C 68.6 3.4 68.6 3.4 68.6 3.4 C 68.6 3 68.8 2.7 69.1 2.4 C 69.4 2.2 69.7 2 70.2 2 C 70.8 2 71.3 2.2 71.8 2.5 C 71.8 2.5 71.3 3.4 71.3 3.4 C 70.9 3.1 70.5 3 70.2 3 C 70 3 69.9 3 69.8 3.1 C 69.8 3.1 69.7 3.2 69.7 3.3 C 69.7 3.3 69.7 3.3 69.7 3.3 C 69.7 3.4 69.8 3.5 69.9 3.6 C 70.1 3.6 70.3 3.7 70.6 3.8 C 70.8 3.9 70.9 3.9 71.1 4 C 71.2 4 71.3 4.1 71.5 4.2 C 71.6 4.3 71.7 4.4 71.8 4.6 C 71.8 4.7 71.9 4.9 71.9 5.1 C 71.9 5.1 71.9 5.1 71.9 5.1 C 71.9 5.6 71.7 5.9 71.4 6.1 C 71.1 6.4 70.7 6.5 70.2 6.5 Z M 76.5 5.7 C 76.1 6.2 75.5 6.5 74.8 6.5 C 74.1 6.5 73.6 6.3 73.2 5.9 C 72.8 5.5 72.6 4.9 72.6 4.3 C 72.6 4.3 72.6 4.3 72.6 4.3 C 72.6 3.6 72.8 3.1 73.2 2.7 C 73.6 2.2 74.1 2 74.7 2 C 75.3 2 75.9 2.3 76.2 2.7 C 76.6 3.2 76.8 3.7 76.8 4.4 C 76.8 4.4 76.8 4.5 76.7 4.7 C 76.7 4.7 73.8 4.7 73.8 4.7 C 73.8 5 73.9 5.2 74.1 5.3 C 74.3 5.4 74.5 5.5 74.8 5.5 C 75.2 5.5 75.5 5.4 75.8 5.1 C 75.85 5.08 76.5 5.7 76.5 5.7 C 76.5 5.7 76.54 5.7 76.5 5.7 Z M 73.7 3.9 C 73.7 3.9 75.6 3.9 75.6 3.9 C 75.5 3.6 75.4 3.4 75.3 3.3 C 75.1 3.1 74.9 3 74.7 3 C 74.4 3 74.2 3.1 74.1 3.3 C 73.9 3.4 73.8 3.6 73.7 3.9 Z M 79.2 6.5 C 78.5 6.5 77.9 6.3 77.3 5.8 C 77.3 5.8 77.8 5 77.8 5 C 78.3 5.4 78.8 5.5 79.2 5.5 C 79.5 5.5 79.7 5.4 79.7 5.2 C 79.7 5.2 79.7 5.2 79.7 5.2 C 79.7 5.2 79.7 5.1 79.7 5.1 C 79.7 5.1 79.7 5 79.6 5 C 79.6 5 79.5 5 79.5 5 C 79.5 4.9 79.4 4.9 79.4 4.9 C 79.3 4.9 79.2 4.8 79.2 4.8 C 79.2 4.8 79.1 4.8 79 4.8 C 78.9 4.7 78.9 4.7 78.8 4.7 C 78.6 4.7 78.5 4.6 78.4 4.6 C 78.2 4.5 78.1 4.4 78 4.3 C 77.8 4.2 77.7 4.1 77.7 3.9 C 77.6 3.8 77.5 3.6 77.5 3.4 C 77.5 3.4 77.5 3.4 77.5 3.4 C 77.5 3 77.7 2.7 78 2.4 C 78.3 2.2 78.7 2 79.1 2 C 79.7 2 80.2 2.2 80.7 2.5 C 80.7 2.5 80.2 3.4 80.2 3.4 C 79.8 3.1 79.4 3 79.1 3 C 78.9 3 78.8 3 78.8 3.1 C 78.7 3.1 78.6 3.2 78.6 3.3 C 78.6 3.3 78.6 3.3 78.6 3.3 C 78.6 3.4 78.7 3.5 78.9 3.6 C 79 3.6 79.2 3.7 79.5 3.8 C 79.7 3.9 79.8 3.9 80 4 C 80.1 4 80.2 4.1 80.4 4.2 C 80.5 4.3 80.6 4.4 80.7 4.6 C 80.8 4.7 80.8 4.9 80.8 5.1 C 80.8 5.1 80.8 5.1 80.8 5.1 C 80.8 5.6 80.7 5.9 80.4 6.1 C 80.1 6.4 79.7 6.5 79.2 6.5 Z M 81.7 1.6 L 81.7 0.6 L 83 0.6 L 83 1.6 L 81.7 1.6 Z M 81.7 6.4 L 81.7 2.1 L 83 2.1 L 83 6.4 L 81.7 6.4 Z M 86.4 4.5 L 86.4 3.4 L 89.8 3.4 L 89.8 4.5 L 86.4 4.5 Z M 93.2 6.4 L 93.2 0.8 L 94.6 0.8 L 96 3.2 L 97.5 0.8 L 98.8 0.8 L 98.8 6.4 L 97.6 6.4 L 97.6 2.7 L 96 5.1 L 96 5.1 L 94.5 2.8 L 94.5 6.4 L 93.2 6.4 Z M 105 4 C 105 4.8 104.8 5.4 104.3 5.8 C 103.9 6.3 103.3 6.5 102.5 6.5 C 101.8 6.5 101.2 6.3 100.7 5.9 C 100.3 5.4 100.1 4.8 100.1 4 C 100.1 4 100.1 0.8 100.1 0.8 L 101.3 0.8 C 101.3 0.8 101.33 3.97 101.3 4 C 101.3 4.4 101.4 4.8 101.7 5 C 101.9 5.2 102.2 5.4 102.5 5.4 C 102.9 5.4 103.2 5.2 103.4 5 C 103.6 4.8 103.8 4.5 103.8 4 C 103.75 4.01 103.8 0.8 103.8 0.8 L 105 0.8 L 105 4 C 105 4 104.98 3.96 105 4 Z M 111.9 3.6 C 111.9 4.4 111.7 5.1 111.1 5.7 C 110.5 6.2 109.8 6.5 109 6.5 C 108.1 6.5 107.4 6.2 106.8 5.7 C 106.3 5.1 106 4.4 106 3.6 C 106 3.6 106 3.6 106 3.6 C 106 2.8 106.3 2.1 106.8 1.5 C 107.4 1 108.1 0.7 109 0.7 C 109.8 0.7 110.5 1 111.1 1.5 C 111.7 2.1 111.9 2.8 111.9 3.6 C 111.94 3.58 111.9 3.6 111.9 3.6 C 111.9 3.6 111.94 3.6 111.9 3.6 Z M 107.3 3.6 C 107.3 4.1 107.4 4.5 107.8 4.8 C 108.1 5.2 108.5 5.4 109 5.4 C 109.5 5.4 109.9 5.2 110.2 4.9 C 110.5 4.5 110.7 4.1 110.7 3.6 C 110.7 3.6 110.7 3.6 110.7 3.6 C 110.7 3.1 110.5 2.7 110.2 2.4 C 109.9 2 109.4 1.8 109 1.8 C 108.5 1.8 108.1 2 107.8 2.3 C 107.4 2.7 107.3 3.1 107.3 3.6 C 107.28 3.58 107.3 3.6 107.3 3.6 C 107.3 3.6 107.28 3.6 107.3 3.6 Z M 114.5 6.4 L 112.2 0.8 L 113.6 0.8 L 115 4.7 L 116.5 0.8 L 117.8 0.8 L 115.6 6.4 L 114.5 6.4 Z M 124 3.6 C 124 4.4 123.7 5.1 123.2 5.7 C 122.6 6.2 121.9 6.5 121 6.5 C 120.2 6.5 119.5 6.2 118.9 5.7 C 118.4 5.1 118.1 4.4 118.1 3.6 C 118.1 3.6 118.1 3.6 118.1 3.6 C 118.1 2.8 118.4 2.1 118.9 1.5 C 119.5 1 120.2 0.7 121.1 0.7 C 121.9 0.7 122.6 1 123.2 1.5 C 123.7 2.1 124 2.8 124 3.6 C 124.02 3.58 124 3.6 124 3.6 C 124 3.6 124.02 3.6 124 3.6 Z M 119.4 3.6 C 119.4 4.1 119.5 4.5 119.8 4.8 C 120.2 5.2 120.6 5.4 121.1 5.4 C 121.5 5.4 121.9 5.2 122.3 4.9 C 122.6 4.5 122.7 4.1 122.7 3.6 C 122.7 3.6 122.7 3.6 122.7 3.6 C 122.7 3.1 122.6 2.7 122.3 2.4 C 121.9 2 121.5 1.8 121 1.8 C 120.5 1.8 120.1 2 119.8 2.3 C 119.5 2.7 119.4 3.1 119.4 3.6 C 119.36 3.58 119.4 3.6 119.4 3.6 C 119.4 3.6 119.36 3.6 119.4 3.6 Z " stroke="none" fill="#000"/>  </g></svg>