<?xml version="1.0" standalone="no"?><!DOCTYPE svg PUBLIC "-//W3C//DTD SVG 1.1//EN" "http://www.w3.org/Graphics/SVG/1.1/DTD/svg11.dtd"><svg xmlns="http://www.w3.org/2000/svg" version="1.1" width="193px" height="49.4px" viewBox="0 -2 193 49.4" style="top:-2px">  <desc>r n Kodu: 35030 • Dolu hacim: 1.000 ml • 16 cm, H 11 cm</desc>  <defs/>  <g id="Polygon383439">    <path d="M 2.6 34.3 C 2.6 34.6 2.5 34.8 2.3 35 C 2.1 35.2 1.9 35.3 1.7 35.3 C 1.4 35.3 1.2 35.2 1 35 C 0.8 34.8 0.8 34.6 0.8 34.3 C 0.8 34.3 0.8 34.3 0.8 34.3 C 0.8 34.1 0.8 33.9 1 33.7 C 1.2 33.5 1.4 33.4 1.7 33.4 C 1.9 33.4 2.1 33.5 2.3 33.7 C 2.5 33.9 2.6 34.1 2.6 34.3 C 2.59 34.33 2.6 34.3 2.6 34.3 C 2.6 34.3 2.59 34.34 2.6 34.3 Z M 10.4 31.9 L 11 31.9 C 11 31.9 10.28 32.63 10.3 32.6 C 10.7 33.1 10.9 33.7 10.9 34.3 C 10.9 34.3 10.9 34.3 10.9 34.3 C 10.9 35 10.7 35.6 10.2 36.1 C 9.7 36.6 9.1 36.9 8.4 36.9 C 7.8 36.9 7.3 36.7 6.9 36.4 C 6.87 36.37 6.4 36.8 6.4 36.8 L 5.9 36.8 C 5.9 36.8 6.55 36.08 6.6 36.1 C 6.1 35.6 5.9 35 5.9 34.4 C 5.9 34.4 5.9 34.3 5.9 34.3 C 5.9 33.7 6.2 33.1 6.6 32.6 C 7.1 32.1 7.7 31.8 8.4 31.8 C 9 31.8 9.5 32 10 32.3 C 9.96 32.33 10.4 31.9 10.4 31.9 Z M 6.5 34.3 C 6.5 34.3 6.5 34.3 6.5 34.3 C 6.5 34.9 6.6 35.3 6.9 35.7 C 6.9 35.7 9.6 32.7 9.6 32.7 C 9.3 32.5 8.9 32.3 8.4 32.3 C 7.9 32.3 7.4 32.5 7 32.9 C 6.7 33.3 6.5 33.8 6.5 34.3 Z M 7.2 36 C 7.6 36.2 8 36.4 8.4 36.4 C 9 36.4 9.4 36.2 9.8 35.8 C 10.2 35.4 10.4 34.9 10.4 34.4 C 10.4 34.4 10.4 34.4 10.4 34.4 C 10.4 33.9 10.2 33.4 9.9 33 C 9.9 33.03 7.2 36 7.2 36 C 7.2 36 7.22 35.97 7.2 36 Z M 14.7 36.8 L 14.7 32.4 L 13.8 32.7 L 13.7 32.3 L 14.9 31.9 L 15.3 31.9 L 15.3 36.8 L 14.7 36.8 Z M 18.3 36.9 C 17.8 36.9 17.4 36.7 17 36.4 C 16.8 36.2 16.7 35.9 16.6 35.6 C 16.5 35.3 16.4 35 16.4 34.5 C 16.4 34.5 16.4 34.5 16.4 34.5 C 16.4 33.7 16.6 33.1 17 32.6 C 17.3 32.1 17.8 31.8 18.5 31.8 C 19 31.8 19.5 32 19.9 32.4 C 19.9 32.4 19.6 32.8 19.6 32.8 C 19.2 32.5 18.8 32.3 18.4 32.3 C 18 32.3 17.6 32.5 17.4 32.9 C 17.1 33.3 17 33.8 17 34.4 C 17 34.4 17 34.5 17 34.5 C 17.3 34 17.8 33.7 18.4 33.7 C 18.9 33.7 19.3 33.9 19.6 34.2 C 19.9 34.4 20.1 34.8 20.1 35.2 C 20.1 35.2 20.1 35.3 20.1 35.3 C 20.1 35.7 19.9 36.1 19.6 36.4 C 19.2 36.7 18.8 36.9 18.3 36.9 Z M 18.3 36.4 C 18.7 36.4 19 36.3 19.2 36.1 C 19.4 35.9 19.5 35.6 19.5 35.3 C 19.5 35.3 19.5 35.3 19.5 35.3 C 19.5 35 19.4 34.7 19.2 34.5 C 19 34.3 18.7 34.2 18.3 34.2 C 18 34.2 17.7 34.3 17.4 34.5 C 17.2 34.8 17.1 35 17.1 35.3 C 17.1 35.3 17.1 35.3 17.1 35.3 C 17.1 35.6 17.2 35.9 17.5 36.1 C 17.7 36.3 18 36.4 18.3 36.4 Z M 26.3 36.2 C 25.9 36.7 25.4 36.9 24.9 36.9 C 24.3 36.9 23.9 36.7 23.5 36.3 C 23.2 36 23 35.5 23 35 C 23 35 23 35 23 35 C 23 34.5 23.2 34 23.5 33.7 C 23.9 33.3 24.3 33.1 24.9 33.1 C 25.4 33.1 25.9 33.3 26.3 33.7 C 26.3 33.7 26 34.1 26 34.1 C 25.6 33.8 25.2 33.6 24.9 33.6 C 24.5 33.6 24.2 33.7 23.9 34 C 23.7 34.3 23.6 34.6 23.6 35 C 23.6 35 23.6 35 23.6 35 C 23.6 35.4 23.7 35.7 23.9 36 C 24.2 36.3 24.5 36.4 24.9 36.4 C 25.3 36.4 25.7 36.2 26 35.9 C 26 35.86 26.3 36.2 26.3 36.2 C 26.3 36.2 26.34 36.18 26.3 36.2 Z M 27.2 36.8 L 27.2 33.2 L 27.8 33.2 C 27.8 33.2 27.77 33.79 27.8 33.8 C 27.9 33.6 28.1 33.4 28.3 33.3 C 28.4 33.2 28.7 33.1 28.9 33.1 C 29.5 33.1 29.9 33.3 30.1 33.8 C 30.4 33.3 30.8 33.1 31.4 33.1 C 31.8 33.1 32.1 33.2 32.4 33.5 C 32.6 33.8 32.7 34.1 32.7 34.6 C 32.72 34.56 32.7 36.8 32.7 36.8 L 32.2 36.8 C 32.2 36.8 32.18 34.69 32.2 34.7 C 32.2 34.3 32.1 34.1 31.9 33.9 C 31.8 33.7 31.5 33.6 31.2 33.6 C 31 33.6 30.7 33.7 30.5 33.9 C 30.3 34.1 30.2 34.4 30.2 34.7 C 30.24 34.71 30.2 36.8 30.2 36.8 L 29.7 36.8 C 29.7 36.8 29.71 34.67 29.7 34.7 C 29.7 34.3 29.6 34.1 29.5 33.9 C 29.3 33.7 29.1 33.6 28.8 33.6 C 28.5 33.6 28.2 33.7 28.1 33.9 C 27.9 34.1 27.8 34.4 27.8 34.7 C 27.77 34.73 27.8 36.8 27.8 36.8 L 27.2 36.8 Z M 33.7 37.7 C 33.7 37.7 33.6 37.4 33.6 37.4 C 33.9 37.3 34.1 37.1 34.1 36.8 C 34.05 36.8 33.8 36.8 33.8 36.8 L 33.8 36.1 L 34.4 36.1 C 34.4 36.1 34.45 36.69 34.4 36.7 C 34.4 37 34.4 37.2 34.3 37.3 C 34.1 37.5 33.9 37.6 33.7 37.7 Z M 37.8 36.8 L 37.8 31.9 L 38.3 31.9 L 38.3 34.1 L 41.2 34.1 L 41.2 31.9 L 41.7 31.9 L 41.7 36.8 L 41.2 36.8 L 41.2 34.6 L 38.3 34.6 L 38.3 36.8 L 37.8 36.8 Z M 45.8 36.8 L 45.8 32.4 L 44.8 32.7 L 44.7 32.3 L 45.9 31.9 L 46.3 31.9 L 46.3 36.8 L 45.8 36.8 Z M 48.3 36.8 L 48.3 32.4 L 47.3 32.7 L 47.2 32.3 L 48.4 31.9 L 48.8 31.9 L 48.8 36.8 L 48.3 36.8 Z M 55.3 36.2 C 54.9 36.7 54.4 36.9 53.8 36.9 C 53.3 36.9 52.9 36.7 52.5 36.3 C 52.2 36 52 35.5 52 35 C 52 35 52 35 52 35 C 52 34.5 52.2 34 52.5 33.7 C 52.9 33.3 53.3 33.1 53.8 33.1 C 54.4 33.1 54.9 33.3 55.3 33.7 C 55.3 33.7 54.9 34.1 54.9 34.1 C 54.6 33.8 54.2 33.6 53.8 33.6 C 53.5 33.6 53.2 33.7 52.9 34 C 52.7 34.3 52.5 34.6 52.5 35 C 52.5 35 52.5 35 52.5 35 C 52.5 35.4 52.7 35.7 52.9 36 C 53.2 36.3 53.5 36.4 53.9 36.4 C 54.3 36.4 54.6 36.2 55 35.9 C 54.98 35.86 55.3 36.2 55.3 36.2 C 55.3 36.2 55.32 36.18 55.3 36.2 Z M 56.2 36.8 L 56.2 33.2 L 56.7 33.2 C 56.7 33.2 56.75 33.79 56.7 33.8 C 56.9 33.6 57.1 33.4 57.2 33.3 C 57.4 33.2 57.6 33.1 57.9 33.1 C 58.5 33.1 58.9 33.3 59.1 33.8 C 59.4 33.3 59.8 33.1 60.4 33.1 C 60.8 33.1 61.1 33.2 61.3 33.5 C 61.6 33.8 61.7 34.1 61.7 34.6 C 61.7 34.56 61.7 36.8 61.7 36.8 L 61.2 36.8 C 61.2 36.8 61.16 34.69 61.2 34.7 C 61.2 34.3 61.1 34.1 60.9 33.9 C 60.7 33.7 60.5 33.6 60.2 33.6 C 59.9 33.6 59.7 33.7 59.5 33.9 C 59.3 34.1 59.2 34.4 59.2 34.7 C 59.22 34.71 59.2 36.8 59.2 36.8 L 58.7 36.8 C 58.7 36.8 58.69 34.67 58.7 34.7 C 58.7 34.3 58.6 34.1 58.4 33.9 C 58.3 33.7 58 33.6 57.8 33.6 C 57.5 33.6 57.2 33.7 57 33.9 C 56.8 34.1 56.7 34.4 56.7 34.7 C 56.75 34.73 56.7 36.8 56.7 36.8 L 56.2 36.8 Z " stroke="none" fill="#000"/>  </g>  <g id="Polygon383438">    <path d="M 2.6 23.9 C 2.6 24.2 2.5 24.4 2.3 24.6 C 2.1 24.8 1.9 24.9 1.7 24.9 C 1.4 24.9 1.2 24.8 1 24.6 C 0.8 24.4 0.8 24.2 0.8 23.9 C 0.8 23.9 0.8 23.9 0.8 23.9 C 0.8 23.7 0.8 23.5 1 23.3 C 1.2 23.1 1.4 23 1.7 23 C 1.9 23 2.1 23.1 2.3 23.3 C 2.5 23.5 2.6 23.7 2.6 23.9 C 2.59 23.93 2.6 23.9 2.6 23.9 C 2.6 23.9 2.59 23.94 2.6 23.9 Z M 6.1 26.4 L 6.1 21.5 C 6.1 21.5 7.84 21.5 7.8 21.5 C 8.6 21.5 9.2 21.7 9.7 22.2 C 10.2 22.7 10.4 23.2 10.4 23.9 C 10.4 23.9 10.4 23.9 10.4 23.9 C 10.4 24.6 10.2 25.2 9.7 25.7 C 9.2 26.2 8.6 26.4 7.8 26.4 C 7.84 26.4 6.1 26.4 6.1 26.4 Z M 7.8 22 C 7.84 22.01 6.7 22 6.7 22 L 6.7 25.9 C 6.7 25.9 7.84 25.89 7.8 25.9 C 8.5 25.9 8.9 25.7 9.3 25.3 C 9.7 25 9.9 24.5 9.9 24 C 9.9 24 9.9 23.9 9.9 23.9 C 9.9 23.4 9.7 22.9 9.3 22.6 C 8.9 22.2 8.4 22 7.8 22 Z M 13.2 26.5 C 12.6 26.5 12.2 26.3 11.8 25.9 C 11.5 25.6 11.3 25.1 11.3 24.6 C 11.3 24.6 11.3 24.6 11.3 24.6 C 11.3 24.1 11.5 23.6 11.8 23.3 C 12.2 22.9 12.6 22.7 13.2 22.7 C 13.7 22.7 14.2 22.9 14.5 23.3 C 14.9 23.6 15.1 24.1 15.1 24.6 C 15.1 24.6 15.1 24.6 15.1 24.6 C 15.1 25.1 14.9 25.6 14.5 25.9 C 14.2 26.3 13.7 26.5 13.2 26.5 Z M 13.2 26 C 13.6 26 13.9 25.9 14.1 25.6 C 14.4 25.3 14.5 25 14.5 24.6 C 14.5 24.6 14.5 24.6 14.5 24.6 C 14.5 24.2 14.4 23.9 14.1 23.6 C 13.9 23.3 13.6 23.2 13.2 23.2 C 12.8 23.2 12.5 23.3 12.2 23.6 C 12 23.9 11.9 24.2 11.9 24.6 C 11.9 24.6 11.9 24.6 11.9 24.6 C 11.9 25 12 25.3 12.2 25.6 C 12.5 25.9 12.8 26 13.2 26 Z M 16.1 26.4 L 16.1 21.3 L 16.6 21.3 L 16.6 26.4 L 16.1 26.4 Z M 20.5 25.8 C 20.2 26.2 19.7 26.5 19.2 26.5 C 18.8 26.5 18.4 26.3 18.2 26.1 C 18 25.8 17.8 25.5 17.8 25 C 17.83 25.03 17.8 22.8 17.8 22.8 L 18.4 22.8 C 18.4 22.8 18.37 24.89 18.4 24.9 C 18.4 25.2 18.5 25.5 18.6 25.7 C 18.8 25.9 19.1 26 19.4 26 C 19.7 26 19.9 25.9 20.1 25.7 C 20.4 25.5 20.5 25.2 20.5 24.9 C 20.45 24.85 20.5 22.8 20.5 22.8 L 21 22.8 L 21 26.4 L 20.5 26.4 L 20.5 25.8 C 20.5 25.8 20.45 25.77 20.5 25.8 Z M 24.3 26.4 L 24.3 21.3 L 24.8 21.3 C 24.8 21.3 24.84 23.41 24.8 23.4 C 25.1 22.9 25.5 22.7 26.1 22.7 C 26.5 22.7 26.8 22.8 27.1 23.1 C 27.3 23.4 27.5 23.7 27.5 24.2 C 27.46 24.15 27.5 26.4 27.5 26.4 L 26.9 26.4 C 26.9 26.4 26.92 24.29 26.9 24.3 C 26.9 23.9 26.8 23.7 26.7 23.5 C 26.5 23.3 26.2 23.2 25.9 23.2 C 25.6 23.2 25.3 23.3 25.1 23.5 C 24.9 23.7 24.8 24 24.8 24.3 C 24.84 24.33 24.8 26.4 24.8 26.4 L 24.3 26.4 Z M 31 25.9 C 30.7 26.3 30.2 26.5 29.7 26.5 C 29.3 26.5 29 26.4 28.7 26.2 C 28.5 26 28.3 25.7 28.3 25.3 C 28.3 25.3 28.3 25.3 28.3 25.3 C 28.3 25 28.5 24.7 28.8 24.5 C 29 24.3 29.4 24.2 29.9 24.2 C 30.3 24.2 30.6 24.2 31 24.3 C 31 24.3 31 24.2 31 24.2 C 31 23.9 30.9 23.6 30.7 23.5 C 30.5 23.3 30.3 23.2 29.9 23.2 C 29.6 23.2 29.2 23.3 28.8 23.5 C 28.8 23.5 28.7 23 28.7 23 C 29.1 22.8 29.5 22.7 30 22.7 C 30.5 22.7 30.9 22.9 31.1 23.1 C 31.4 23.4 31.5 23.7 31.5 24.2 C 31.51 24.19 31.5 26.4 31.5 26.4 L 31 26.4 L 31 25.9 C 31 25.9 31 25.85 31 25.9 Z M 29.8 26 C 30.1 26 30.4 26 30.7 25.8 C 30.9 25.6 31 25.4 31 25.1 C 31 25.1 31 24.7 31 24.7 C 30.6 24.6 30.3 24.6 29.9 24.6 C 29.6 24.6 29.3 24.6 29.2 24.8 C 29 24.9 28.9 25.1 28.9 25.3 C 28.9 25.3 28.9 25.3 28.9 25.3 C 28.9 25.5 29 25.7 29.1 25.9 C 29.3 26 29.5 26 29.8 26 Z M 35.8 25.8 C 35.4 26.3 34.9 26.5 34.3 26.5 C 33.8 26.5 33.3 26.3 33 25.9 C 32.6 25.6 32.4 25.1 32.4 24.6 C 32.4 24.6 32.4 24.6 32.4 24.6 C 32.4 24.1 32.6 23.6 33 23.3 C 33.3 22.9 33.8 22.7 34.3 22.7 C 34.9 22.7 35.3 22.9 35.7 23.3 C 35.7 23.3 35.4 23.7 35.4 23.7 C 35 23.4 34.7 23.2 34.3 23.2 C 33.9 23.2 33.6 23.3 33.4 23.6 C 33.1 23.9 33 24.2 33 24.6 C 33 24.6 33 24.6 33 24.6 C 33 25 33.1 25.3 33.4 25.6 C 33.6 25.9 33.9 26 34.3 26 C 34.7 26 35.1 25.8 35.4 25.5 C 35.43 25.46 35.8 25.8 35.8 25.8 C 35.8 25.8 35.77 25.78 35.8 25.8 Z M 36.7 22 L 36.7 21.4 L 37.3 21.4 L 37.3 22 L 36.7 22 Z M 36.7 26.4 L 36.7 22.8 L 37.2 22.8 L 37.2 26.4 L 36.7 26.4 Z M 38.5 26.4 L 38.5 22.8 L 39 22.8 C 39 22.8 39.04 23.39 39 23.4 C 39.2 23.2 39.3 23 39.5 22.9 C 39.7 22.8 39.9 22.7 40.2 22.7 C 40.8 22.7 41.1 22.9 41.4 23.4 C 41.7 22.9 42.1 22.7 42.6 22.7 C 43.1 22.7 43.4 22.8 43.6 23.1 C 43.9 23.4 44 23.7 44 24.2 C 43.99 24.16 44 26.4 44 26.4 L 43.4 26.4 C 43.4 26.4 43.45 24.29 43.4 24.3 C 43.4 23.9 43.4 23.7 43.2 23.5 C 43 23.3 42.8 23.2 42.5 23.2 C 42.2 23.2 42 23.3 41.8 23.5 C 41.6 23.7 41.5 24 41.5 24.3 C 41.51 24.31 41.5 26.4 41.5 26.4 L 41 26.4 C 41 26.4 40.98 24.27 41 24.3 C 41 23.9 40.9 23.7 40.7 23.5 C 40.6 23.3 40.3 23.2 40 23.2 C 39.8 23.2 39.5 23.3 39.3 23.5 C 39.1 23.7 39 24 39 24.3 C 39.04 24.33 39 26.4 39 26.4 L 38.5 26.4 Z M 45.1 23.5 L 45.1 22.8 L 45.7 22.8 L 45.7 23.5 L 45.1 23.5 Z M 45.1 26.4 L 45.1 25.7 L 45.7 25.7 L 45.7 26.4 L 45.1 26.4 Z M 49.7 26.4 L 49.7 22 L 48.7 22.3 L 48.6 21.9 L 49.8 21.5 L 50.2 21.5 L 50.2 26.4 L 49.7 26.4 Z M 51.4 26.4 L 51.4 25.7 L 52.1 25.7 L 52.1 26.4 L 51.4 26.4 Z M 57.1 23.9 C 57.1 24.7 56.9 25.3 56.5 25.7 C 56.1 26.2 55.6 26.5 55 26.5 C 54.4 26.5 53.9 26.2 53.5 25.8 C 53.1 25.3 52.9 24.7 52.9 24 C 52.9 24 52.9 23.9 52.9 23.9 C 52.9 23.2 53.1 22.6 53.5 22.2 C 53.9 21.7 54.4 21.4 55 21.4 C 55.6 21.4 56.1 21.7 56.5 22.1 C 56.9 22.6 57.1 23.2 57.1 23.9 C 57.06 23.94 57.1 23.9 57.1 23.9 C 57.1 23.9 57.06 23.95 57.1 23.9 Z M 53.5 23.9 C 53.5 24.5 53.6 25 53.9 25.4 C 54.2 25.8 54.6 26 55 26 C 55.4 26 55.8 25.8 56.1 25.4 C 56.3 25 56.5 24.5 56.5 24 C 56.5 24 56.5 23.9 56.5 23.9 C 56.5 23.4 56.3 22.9 56.1 22.5 C 55.8 22.1 55.4 21.9 55 21.9 C 54.5 21.9 54.2 22.1 53.9 22.5 C 53.6 22.9 53.5 23.4 53.5 23.9 C 53.49 23.94 53.5 23.9 53.5 23.9 C 53.5 23.9 53.49 23.95 53.5 23.9 Z M 62.1 23.9 C 62.1 24.7 61.9 25.3 61.5 25.7 C 61.1 26.2 60.6 26.5 60 26.5 C 59.4 26.5 58.9 26.2 58.5 25.8 C 58.1 25.3 57.9 24.7 57.9 24 C 57.9 24 57.9 23.9 57.9 23.9 C 57.9 23.2 58.1 22.6 58.5 22.2 C 58.9 21.7 59.4 21.4 60 21.4 C 60.6 21.4 61.1 21.7 61.5 22.1 C 61.9 22.6 62.1 23.2 62.1 23.9 C 62.06 23.94 62.1 23.9 62.1 23.9 C 62.1 23.9 62.06 23.95 62.1 23.9 Z M 58.5 23.9 C 58.5 24.5 58.6 25 58.9 25.4 C 59.2 25.8 59.6 26 60 26 C 60.5 26 60.8 25.8 61.1 25.4 C 61.4 25 61.5 24.5 61.5 24 C 61.5 24 61.5 23.9 61.5 23.9 C 61.5 23.4 61.3 22.9 61.1 22.5 C 60.8 22.1 60.4 21.9 60 21.9 C 59.5 21.9 59.2 22.1 58.9 22.5 C 58.6 22.9 58.5 23.4 58.5 23.9 C 58.5 23.94 58.5 23.9 58.5 23.9 C 58.5 23.9 58.5 23.95 58.5 23.9 Z M 67.1 23.9 C 67.1 24.7 66.9 25.3 66.5 25.7 C 66.1 26.2 65.6 26.5 65 26.5 C 64.4 26.5 63.9 26.2 63.5 25.8 C 63.1 25.3 62.9 24.7 62.9 24 C 62.9 24 62.9 23.9 62.9 23.9 C 62.9 23.2 63.1 22.6 63.5 22.2 C 63.9 21.7 64.4 21.4 65 21.4 C 65.6 21.4 66.1 21.7 66.5 22.1 C 66.9 22.6 67.1 23.2 67.1 23.9 C 67.07 23.94 67.1 23.9 67.1 23.9 C 67.1 23.9 67.07 23.95 67.1 23.9 Z M 63.5 23.9 C 63.5 24.5 63.6 25 63.9 25.4 C 64.2 25.8 64.6 26 65 26 C 65.5 26 65.8 25.8 66.1 25.4 C 66.4 25 66.5 24.5 66.5 24 C 66.5 24 66.5 23.9 66.5 23.9 C 66.5 23.4 66.4 22.9 66.1 22.5 C 65.8 22.1 65.4 21.9 65 21.9 C 64.6 21.9 64.2 22.1 63.9 22.5 C 63.6 22.9 63.5 23.4 63.5 23.9 C 63.5 23.94 63.5 23.9 63.5 23.9 C 63.5 23.9 63.5 23.95 63.5 23.9 Z M 70.2 26.4 L 70.2 22.8 L 70.7 22.8 C 70.7 22.8 70.74 23.39 70.7 23.4 C 70.9 23.2 71 23 71.2 22.9 C 71.4 22.8 71.6 22.7 71.9 22.7 C 72.5 22.7 72.8 22.9 73.1 23.4 C 73.4 22.9 73.8 22.7 74.3 22.7 C 74.8 22.7 75.1 22.8 75.3 23.1 C 75.6 23.4 75.7 23.7 75.7 24.2 C 75.69 24.16 75.7 26.4 75.7 26.4 L 75.2 26.4 C 75.2 26.4 75.15 24.29 75.2 24.3 C 75.2 23.9 75.1 23.7 74.9 23.5 C 74.7 23.3 74.5 23.2 74.2 23.2 C 73.9 23.2 73.7 23.3 73.5 23.5 C 73.3 23.7 73.2 24 73.2 24.3 C 73.21 24.31 73.2 26.4 73.2 26.4 L 72.7 26.4 C 72.7 26.4 72.68 24.27 72.7 24.3 C 72.7 23.9 72.6 23.7 72.4 23.5 C 72.3 23.3 72 23.2 71.7 23.2 C 71.5 23.2 71.2 23.3 71 23.5 C 70.8 23.7 70.7 24 70.7 24.3 C 70.74 24.33 70.7 26.4 70.7 26.4 L 70.2 26.4 Z M 76.9 26.4 L 76.9 21.3 L 77.4 21.3 L 77.4 26.4 L 76.9 26.4 Z " stroke="none" fill="#000"/>  </g>  <g id="Polygon383437">    <path d="M 3 10.7 L 3 10 L 3.6 10 L 3.6 10.7 L 3 10.7 Z M 1.7 10.7 L 1.7 10 L 2.3 10 L 2.3 10.7 L 1.7 10.7 Z M 2.7 16.1 C 2 16.1 1.5 15.9 1.2 15.5 C 0.8 15.1 0.6 14.6 0.6 13.9 C 0.62 13.95 0.6 11.1 0.6 11.1 L 1.2 11.1 C 1.2 11.1 1.17 13.91 1.2 13.9 C 1.2 14.4 1.3 14.8 1.6 15.1 C 1.8 15.4 2.2 15.6 2.7 15.6 C 3.1 15.6 3.5 15.4 3.8 15.2 C 4 14.9 4.1 14.5 4.1 13.9 C 4.14 13.95 4.1 11.1 4.1 11.1 L 4.7 11.1 C 4.7 11.1 4.7 13.91 4.7 13.9 C 4.7 14.6 4.5 15.1 4.1 15.5 C 3.8 15.9 3.3 16.1 2.7 16.1 Z M 5.9 16 L 5.9 12.4 L 6.5 12.4 C 6.5 12.4 6.45 13.33 6.5 13.3 C 6.6 13 6.8 12.8 7 12.6 C 7.3 12.4 7.6 12.3 7.9 12.3 C 7.93 12.32 7.9 12.9 7.9 12.9 C 7.9 12.9 7.89 12.9 7.9 12.9 C 7.5 12.9 7.1 13 6.9 13.3 C 6.6 13.6 6.5 14 6.5 14.6 C 6.45 14.56 6.5 16 6.5 16 L 5.9 16 Z M 10.6 11.8 L 10.6 11.2 L 11.2 11.2 L 11.2 11.8 L 10.6 11.8 Z M 9.3 11.8 L 9.3 11.2 L 10 11.2 L 10 11.8 L 9.3 11.8 Z M 11.3 15.4 C 11 15.8 10.6 16.1 10.1 16.1 C 9.7 16.1 9.3 15.9 9.1 15.7 C 8.8 15.4 8.7 15.1 8.7 14.6 C 8.69 14.63 8.7 12.4 8.7 12.4 L 9.2 12.4 C 9.2 12.4 9.23 14.49 9.2 14.5 C 9.2 14.8 9.3 15.1 9.5 15.3 C 9.7 15.5 9.9 15.6 10.2 15.6 C 10.5 15.6 10.8 15.5 11 15.3 C 11.2 15.1 11.3 14.8 11.3 14.5 C 11.32 14.45 11.3 12.4 11.3 12.4 L 11.9 12.4 L 11.9 16 L 11.3 16 L 11.3 15.4 C 11.3 15.4 11.32 15.37 11.3 15.4 Z M 13.1 16 L 13.1 12.4 L 13.6 12.4 C 13.6 12.4 13.6 13.01 13.6 13 C 13.9 12.5 14.3 12.3 14.8 12.3 C 15.3 12.3 15.6 12.4 15.9 12.7 C 16.1 13 16.2 13.3 16.2 13.8 C 16.23 13.75 16.2 16 16.2 16 L 15.7 16 C 15.7 16 15.69 13.89 15.7 13.9 C 15.7 13.5 15.6 13.3 15.4 13.1 C 15.2 12.9 15 12.8 14.7 12.8 C 14.4 12.8 14.1 12.9 13.9 13.1 C 13.7 13.3 13.6 13.6 13.6 13.9 C 13.6 13.93 13.6 16 13.6 16 L 13.1 16 Z M 19.6 16 L 19.6 11.1 L 20.1 11.1 L 20.1 14 L 22.9 11.1 L 23.7 11.1 L 21.5 13.2 L 23.7 16 L 23 16 L 21.2 13.6 L 20.1 14.7 L 20.1 16 L 19.6 16 Z M 25.9 16.1 C 25.4 16.1 25 15.9 24.6 15.5 C 24.3 15.2 24.1 14.7 24.1 14.2 C 24.1 14.2 24.1 14.2 24.1 14.2 C 24.1 13.7 24.3 13.2 24.6 12.9 C 25 12.5 25.4 12.3 26 12.3 C 26.5 12.3 26.9 12.5 27.3 12.9 C 27.7 13.2 27.8 13.7 27.8 14.2 C 27.8 14.2 27.8 14.2 27.8 14.2 C 27.8 14.7 27.7 15.2 27.3 15.5 C 26.9 15.9 26.5 16.1 25.9 16.1 Z M 26 15.6 C 26.3 15.6 26.7 15.5 26.9 15.2 C 27.2 14.9 27.3 14.6 27.3 14.2 C 27.3 14.2 27.3 14.2 27.3 14.2 C 27.3 13.8 27.2 13.5 26.9 13.2 C 26.6 12.9 26.3 12.8 25.9 12.8 C 25.6 12.8 25.2 12.9 25 13.2 C 24.8 13.5 24.6 13.8 24.6 14.2 C 24.6 14.2 24.6 14.2 24.6 14.2 C 24.6 14.6 24.8 14.9 25 15.2 C 25.3 15.5 25.6 15.6 26 15.6 Z M 31.7 15.3 C 31.4 15.8 30.9 16.1 30.3 16.1 C 29.9 16.1 29.5 15.9 29.1 15.6 C 28.8 15.2 28.6 14.8 28.6 14.2 C 28.6 14.2 28.6 14.2 28.6 14.2 C 28.6 13.6 28.8 13.2 29.1 12.8 C 29.5 12.5 29.9 12.3 30.3 12.3 C 30.9 12.3 31.4 12.6 31.7 13.1 C 31.72 13.07 31.7 10.9 31.7 10.9 L 32.3 10.9 L 32.3 16 L 31.7 16 L 31.7 15.3 C 31.7 15.3 31.72 15.27 31.7 15.3 Z M 30.4 15.6 C 30.8 15.6 31.1 15.5 31.4 15.2 C 31.6 14.9 31.7 14.6 31.7 14.2 C 31.7 14.2 31.7 14.2 31.7 14.2 C 31.7 13.8 31.6 13.4 31.4 13.2 C 31.1 12.9 30.8 12.8 30.4 12.8 C 30.1 12.8 29.8 12.9 29.5 13.2 C 29.3 13.4 29.2 13.8 29.2 14.2 C 29.2 14.2 29.2 14.2 29.2 14.2 C 29.2 14.6 29.3 15 29.5 15.2 C 29.8 15.5 30.1 15.6 30.4 15.6 Z M 36 15.4 C 35.7 15.8 35.3 16.1 34.8 16.1 C 34.4 16.1 34 15.9 33.8 15.7 C 33.5 15.4 33.4 15.1 33.4 14.6 C 33.41 14.63 33.4 12.4 33.4 12.4 L 33.9 12.4 C 33.9 12.4 33.95 14.49 33.9 14.5 C 33.9 14.8 34 15.1 34.2 15.3 C 34.4 15.5 34.6 15.6 35 15.6 C 35.3 15.6 35.5 15.5 35.7 15.3 C 35.9 15.1 36 14.8 36 14.5 C 36.04 14.45 36 12.4 36 12.4 L 36.6 12.4 L 36.6 16 L 36 16 L 36 15.4 C 36 15.4 36.04 15.37 36 15.4 Z M 37.7 13.1 L 37.7 12.4 L 38.4 12.4 L 38.4 13.1 L 37.7 13.1 Z M 37.7 16 L 37.7 15.3 L 38.4 15.3 L 38.4 16 L 37.7 16 Z M 43.2 16.1 C 42.4 16.1 41.8 15.8 41.3 15.2 C 41.3 15.2 42.1 14.5 42.1 14.5 C 42.4 14.9 42.8 15.1 43.2 15.1 C 43.5 15.1 43.6 15.1 43.7 15 C 43.9 14.8 43.9 14.7 43.9 14.5 C 43.9 14.5 43.9 14.5 43.9 14.5 C 43.9 14.3 43.9 14.2 43.7 14 C 43.5 13.9 43.3 13.9 43 13.9 C 42.98 13.89 42.5 13.9 42.5 13.9 L 42.4 13.2 L 43.5 12 L 41.6 12 L 41.6 11.1 L 44.9 11.1 L 44.9 11.9 C 44.9 11.9 43.68 13.09 43.7 13.1 C 44.6 13.2 45 13.7 45 14.5 C 45 14.5 45 14.5 45 14.5 C 45 15 44.8 15.3 44.5 15.6 C 44.2 15.9 43.8 16.1 43.2 16.1 Z M 47.5 16.1 C 46.8 16.1 46.2 15.8 45.7 15.3 C 45.7 15.3 46.3 14.6 46.3 14.6 C 46.7 14.9 47.1 15.1 47.5 15.1 C 47.7 15.1 47.9 15 48.1 14.9 C 48.2 14.8 48.3 14.6 48.3 14.4 C 48.3 14.4 48.3 14.4 48.3 14.4 C 48.3 14.2 48.2 14 48.1 13.9 C 47.9 13.8 47.7 13.7 47.4 13.7 C 47.2 13.7 46.9 13.8 46.6 13.9 C 46.62 13.93 46 13.5 46 13.5 L 46.1 11.1 L 49.1 11.1 L 49.1 12 L 47.1 12 C 47.1 12 47 12.89 47 12.9 C 47.2 12.8 47.4 12.8 47.6 12.8 C 48.2 12.8 48.6 12.9 48.9 13.2 C 49.2 13.5 49.4 13.9 49.4 14.4 C 49.4 14.4 49.4 14.4 49.4 14.4 C 49.4 14.9 49.2 15.3 48.9 15.6 C 48.5 15.9 48.1 16.1 47.5 16.1 Z M 52.3 16.1 C 51.7 16.1 51.2 15.8 50.8 15.4 C 50.4 14.9 50.2 14.3 50.2 13.6 C 50.2 13.6 50.2 13.5 50.2 13.5 C 50.2 12.8 50.4 12.2 50.8 11.7 C 51.2 11.3 51.7 11 52.3 11 C 53 11 53.5 11.3 53.9 11.7 C 54.3 12.2 54.5 12.8 54.5 13.5 C 54.5 13.5 54.5 13.5 54.5 13.5 C 54.5 14.3 54.3 14.9 53.9 15.4 C 53.5 15.8 53 16.1 52.3 16.1 Z M 51.3 13.5 C 51.3 14 51.4 14.4 51.6 14.7 C 51.8 15 52 15.1 52.3 15.1 C 52.7 15.1 52.9 15 53.1 14.7 C 53.3 14.4 53.4 14 53.4 13.6 C 53.4 13.6 53.4 13.5 53.4 13.5 C 53.4 13.1 53.3 12.7 53.1 12.4 C 52.9 12.1 52.6 12 52.3 12 C 52 12 51.8 12.1 51.6 12.4 C 51.4 12.7 51.3 13.1 51.3 13.5 C 51.26 13.54 51.3 13.5 51.3 13.5 C 51.3 13.5 51.26 13.55 51.3 13.5 Z M 57 16.1 C 56.2 16.1 55.6 15.8 55.1 15.2 C 55.1 15.2 55.8 14.5 55.8 14.5 C 56.2 14.9 56.6 15.1 57 15.1 C 57.2 15.1 57.4 15.1 57.5 15 C 57.6 14.8 57.7 14.7 57.7 14.5 C 57.7 14.5 57.7 14.5 57.7 14.5 C 57.7 14.3 57.6 14.2 57.4 14 C 57.3 13.9 57 13.9 56.7 13.9 C 56.74 13.89 56.3 13.9 56.3 13.9 L 56.1 13.2 L 57.3 12 L 55.4 12 L 55.4 11.1 L 58.7 11.1 L 58.7 11.9 C 58.7 11.9 57.44 13.09 57.4 13.1 C 58.3 13.2 58.8 13.7 58.8 14.5 C 58.8 14.5 58.8 14.5 58.8 14.5 C 58.8 15 58.6 15.3 58.3 15.6 C 58 15.9 57.5 16.1 57 16.1 Z M 61.7 16.1 C 61.1 16.1 60.5 15.8 60.1 15.4 C 59.7 14.9 59.5 14.3 59.5 13.6 C 59.5 13.6 59.5 13.5 59.5 13.5 C 59.5 12.8 59.7 12.2 60.2 11.7 C 60.6 11.3 61.1 11 61.7 11 C 62.4 11 62.9 11.3 63.3 11.7 C 63.7 12.2 63.9 12.8 63.9 13.5 C 63.9 13.5 63.9 13.5 63.9 13.5 C 63.9 14.3 63.7 14.9 63.3 15.4 C 62.9 15.8 62.4 16.1 61.7 16.1 Z M 60.6 13.5 C 60.6 14 60.7 14.4 60.9 14.7 C 61.1 15 61.4 15.1 61.7 15.1 C 62 15.1 62.3 15 62.5 14.7 C 62.7 14.4 62.8 14 62.8 13.6 C 62.8 13.6 62.8 13.5 62.8 13.5 C 62.8 13.1 62.7 12.7 62.5 12.4 C 62.3 12.1 62 12 61.7 12 C 61.4 12 61.1 12.1 60.9 12.4 C 60.7 12.7 60.6 13.1 60.6 13.5 C 60.65 13.54 60.6 13.5 60.6 13.5 C 60.6 13.5 60.65 13.55 60.6 13.5 Z " stroke="none" fill="#000"/>  </g></svg>