<?xml version="1.0" standalone="no"?><!DOCTYPE svg PUBLIC "-//W3C//DTD SVG 1.1//EN" "http://www.w3.org/Graphics/SVG/1.1/DTD/svg11.dtd"><svg xmlns="http://www.w3.org/2000/svg" version="1.1" width="180.5px" height="60.4px" viewBox="0 -3 180.5 60.4" style="top:-3px">  <desc>r n Kodu: 28133 dolu hacim: 1,5 l uyumluluk: PREMIO s zge 23 cm l ler: 23 cm, L 26,5 cm, W 23 cm, H 9,5 cm</desc>  <defs/>  <g id="Polygon387912">    <path d="M 2.6 47.1 C 2.6 47.4 2.5 47.6 2.3 47.8 C 2.1 48 1.9 48.1 1.7 48.1 C 1.4 48.1 1.2 48 1 47.8 C 0.8 47.6 0.8 47.4 0.8 47.1 C 0.8 47.1 0.8 47.1 0.8 47.1 C 0.8 46.9 0.8 46.7 1 46.5 C 1.2 46.3 1.4 46.2 1.7 46.2 C 1.9 46.2 2.1 46.3 2.3 46.5 C 2.5 46.7 2.6 46.9 2.6 47.1 C 2.59 47.13 2.6 47.1 2.6 47.1 C 2.6 47.1 2.59 47.14 2.6 47.1 Z M 11.1 45.4 L 11.1 44.8 L 11.7 44.8 L 11.7 45.4 L 11.1 45.4 Z M 9.8 45.4 L 9.8 44.8 L 10.5 44.8 L 10.5 45.4 L 9.8 45.4 Z M 10.8 49.7 C 10.2 49.7 9.8 49.5 9.4 49.1 C 9.1 48.8 8.9 48.3 8.9 47.8 C 8.9 47.8 8.9 47.8 8.9 47.8 C 8.9 47.3 9.1 46.8 9.4 46.5 C 9.8 46.1 10.2 45.9 10.8 45.9 C 11.3 45.9 11.8 46.1 12.1 46.5 C 12.5 46.8 12.7 47.3 12.7 47.8 C 12.7 47.8 12.7 47.8 12.7 47.8 C 12.7 48.3 12.5 48.8 12.1 49.1 C 11.8 49.5 11.3 49.7 10.8 49.7 Z M 10.8 49.2 C 11.2 49.2 11.5 49.1 11.7 48.8 C 12 48.5 12.1 48.2 12.1 47.8 C 12.1 47.8 12.1 47.8 12.1 47.8 C 12.1 47.4 12 47.1 11.7 46.8 C 11.5 46.5 11.1 46.4 10.8 46.4 C 10.4 46.4 10.1 46.5 9.8 46.8 C 9.6 47.1 9.4 47.4 9.4 47.8 C 9.4 47.8 9.4 47.8 9.4 47.8 C 9.4 48.2 9.6 48.5 9.8 48.8 C 10.1 49.1 10.4 49.2 10.8 49.2 Z M 13.7 49.6 L 13.7 44.5 L 14.2 44.5 L 14.2 49.6 L 13.7 49.6 Z M 16.7 50.7 L 16.2 50.4 C 16.2 50.4 16.76 49.65 16.8 49.6 C 16.3 49.6 16 49.4 15.7 49 C 15.4 48.7 15.2 48.3 15.2 47.8 C 15.2 47.8 15.2 47.8 15.2 47.8 C 15.2 47.3 15.4 46.8 15.8 46.5 C 16.1 46.1 16.6 45.9 17.1 45.9 C 17.7 45.9 18.1 46.1 18.5 46.5 C 18.5 46.5 18.2 46.9 18.2 46.9 C 17.8 46.6 17.5 46.4 17.1 46.4 C 16.7 46.4 16.4 46.5 16.2 46.8 C 15.9 47.1 15.8 47.4 15.8 47.8 C 15.8 47.8 15.8 47.8 15.8 47.8 C 15.8 48.2 15.9 48.5 16.2 48.8 C 16.4 49.1 16.7 49.2 17.1 49.2 C 17.5 49.2 17.9 49 18.2 48.7 C 18.2 48.7 18.6 49 18.6 49 C 18.2 49.4 17.7 49.7 17.2 49.7 C 17.2 49.68 16.7 50.7 16.7 50.7 Z M 21.3 45.4 L 21.3 44.8 L 21.9 44.8 L 21.9 45.4 L 21.3 45.4 Z M 20 45.4 L 20 44.8 L 20.7 44.8 L 20.7 45.4 L 20 45.4 Z M 22 49 C 21.7 49.4 21.3 49.7 20.8 49.7 C 20.3 49.7 20 49.5 19.8 49.3 C 19.5 49 19.4 48.7 19.4 48.2 C 19.38 48.23 19.4 46 19.4 46 L 19.9 46 C 19.9 46 19.92 48.09 19.9 48.1 C 19.9 48.4 20 48.7 20.2 48.9 C 20.4 49.1 20.6 49.2 20.9 49.2 C 21.2 49.2 21.5 49.1 21.7 48.9 C 21.9 48.7 22 48.4 22 48.1 C 22.01 48.05 22 46 22 46 L 22.5 46 L 22.5 49.6 L 22 49.6 L 22 49 C 22 49 22.01 48.97 22 49 Z M 23.8 49.6 L 23.8 44.5 L 24.3 44.5 L 24.3 49.6 L 23.8 49.6 Z M 28.7 49 C 28.3 49.5 27.8 49.7 27.2 49.7 C 26.7 49.7 26.2 49.5 25.9 49.2 C 25.5 48.8 25.4 48.4 25.4 47.8 C 25.4 47.8 25.4 47.8 25.4 47.8 C 25.4 47.3 25.5 46.8 25.9 46.4 C 26.2 46.1 26.6 45.9 27.1 45.9 C 27.6 45.9 28 46.1 28.3 46.4 C 28.6 46.8 28.8 47.3 28.8 47.8 C 28.8 47.9 28.8 47.9 28.8 48 C 28.8 48 25.9 48 25.9 48 C 25.9 48.4 26.1 48.7 26.3 48.9 C 26.6 49.1 26.9 49.2 27.2 49.2 C 27.6 49.2 28 49 28.3 48.7 C 28.33 48.7 28.7 49 28.7 49 C 28.7 49 28.66 49 28.7 49 Z M 25.9 47.6 C 25.9 47.6 28.2 47.6 28.2 47.6 C 28.2 47.2 28.1 46.9 27.9 46.7 C 27.7 46.5 27.4 46.4 27.1 46.4 C 26.8 46.4 26.5 46.5 26.3 46.7 C 26.1 46.9 25.9 47.2 25.9 47.6 Z M 29.7 49.6 L 29.7 46 L 30.3 46 C 30.3 46 30.27 46.93 30.3 46.9 C 30.4 46.6 30.6 46.4 30.9 46.2 C 31.1 46 31.4 45.9 31.8 45.9 C 31.75 45.92 31.8 46.5 31.8 46.5 C 31.8 46.5 31.71 46.5 31.7 46.5 C 31.3 46.5 31 46.6 30.7 46.9 C 30.4 47.2 30.3 47.6 30.3 48.2 C 30.27 48.16 30.3 49.6 30.3 49.6 L 29.7 49.6 Z M 32.5 46.7 L 32.5 46 L 33.2 46 L 33.2 46.7 L 32.5 46.7 Z M 32.5 49.6 L 32.5 48.9 L 33.2 48.9 L 33.2 49.6 L 32.5 49.6 Z M 40.8 44.7 L 41.4 44.7 C 41.4 44.7 40.68 45.43 40.7 45.4 C 41.1 45.9 41.3 46.5 41.3 47.1 C 41.3 47.1 41.3 47.1 41.3 47.1 C 41.3 47.8 41.1 48.4 40.6 48.9 C 40.1 49.4 39.5 49.7 38.8 49.7 C 38.2 49.7 37.7 49.5 37.3 49.2 C 37.27 49.17 36.8 49.6 36.8 49.6 L 36.3 49.6 C 36.3 49.6 36.95 48.88 37 48.9 C 36.5 48.4 36.3 47.8 36.3 47.2 C 36.3 47.2 36.3 47.1 36.3 47.1 C 36.3 46.5 36.6 45.9 37 45.4 C 37.5 44.9 38.1 44.6 38.8 44.6 C 39.4 44.6 39.9 44.8 40.4 45.1 C 40.36 45.13 40.8 44.7 40.8 44.7 Z M 36.9 47.1 C 36.9 47.1 36.9 47.1 36.9 47.1 C 36.9 47.7 37 48.1 37.3 48.5 C 37.3 48.5 40 45.5 40 45.5 C 39.7 45.3 39.3 45.1 38.8 45.1 C 38.3 45.1 37.8 45.3 37.4 45.7 C 37.1 46.1 36.9 46.6 36.9 47.1 Z M 37.6 48.8 C 38 49 38.4 49.2 38.8 49.2 C 39.4 49.2 39.8 49 40.2 48.6 C 40.6 48.2 40.8 47.7 40.8 47.2 C 40.8 47.2 40.8 47.2 40.8 47.2 C 40.8 46.7 40.6 46.2 40.3 45.8 C 40.3 45.83 37.6 48.8 37.6 48.8 C 37.6 48.8 37.62 48.77 37.6 48.8 Z M 44.2 49.6 L 44.2 49.2 C 44.2 49.2 46.01 47.6 46 47.6 C 46.4 47.3 46.7 47 46.8 46.8 C 47 46.5 47 46.3 47 46.1 C 47 45.8 46.9 45.6 46.7 45.4 C 46.6 45.2 46.3 45.1 46 45.1 C 45.8 45.1 45.5 45.2 45.3 45.3 C 45.1 45.5 44.9 45.7 44.7 46 C 44.7 46 44.3 45.7 44.3 45.7 C 44.6 45.3 44.8 45 45.1 44.9 C 45.3 44.7 45.7 44.6 46.1 44.6 C 46.5 44.6 46.9 44.8 47.2 45 C 47.5 45.3 47.6 45.6 47.6 46 C 47.6 46 47.6 46 47.6 46 C 47.6 46.4 47.5 46.7 47.3 46.9 C 47.2 47.2 46.8 47.5 46.4 47.9 C 46.37 47.93 45.1 49.1 45.1 49.1 L 47.7 49.1 L 47.7 49.6 L 44.2 49.6 Z M 50.3 49.7 C 49.5 49.7 48.9 49.4 48.5 48.8 C 48.5 48.8 48.7 48.6 48.7 48.6 C 49.2 49.1 49.7 49.4 50.3 49.4 C 50.6 49.4 50.9 49.3 51.1 49.1 C 51.4 48.8 51.5 48.6 51.5 48.3 C 51.5 48.3 51.5 48.3 51.5 48.3 C 51.5 47.9 51.3 47.7 51.1 47.5 C 50.8 47.3 50.4 47.2 50 47.2 C 49.96 47.19 49.7 47.2 49.7 47.2 L 49.6 47 L 51.3 45 L 48.7 45 L 48.7 44.7 L 51.8 44.7 L 51.8 45 C 51.8 45 50.13 46.86 50.1 46.9 C 50.6 46.9 51 47 51.4 47.3 C 51.7 47.5 51.9 47.8 51.9 48.2 C 51.9 48.2 51.9 48.3 51.9 48.3 C 51.9 48.7 51.7 49 51.4 49.3 C 51.1 49.6 50.7 49.7 50.3 49.7 Z M 58.1 49 C 57.7 49.4 57.2 49.7 56.7 49.7 C 56.2 49.7 55.7 49.5 55.4 49.1 C 55 48.8 54.9 48.3 54.9 47.8 C 54.9 47.8 54.9 47.8 54.9 47.8 C 54.9 47.3 55 46.9 55.4 46.5 C 55.7 46.1 56.2 45.9 56.7 45.9 C 57.2 45.9 57.7 46.2 58.1 46.6 C 58.1 46.6 57.9 46.9 57.9 46.9 C 57.5 46.5 57.1 46.3 56.7 46.3 C 56.3 46.3 55.9 46.4 55.7 46.7 C 55.4 47 55.2 47.4 55.2 47.8 C 55.2 47.8 55.2 47.8 55.2 47.8 C 55.2 48.2 55.4 48.6 55.7 48.9 C 56 49.2 56.3 49.4 56.7 49.4 C 57.1 49.4 57.5 49.2 57.9 48.8 C 57.9 48.77 58.1 49 58.1 49 C 58.1 49 58.14 48.98 58.1 49 Z M 59.1 49.6 L 59.1 46 L 59.4 46 C 59.4 46 59.45 46.67 59.4 46.7 C 59.7 46.2 60.1 45.9 60.6 45.9 C 61.2 45.9 61.6 46.2 61.8 46.7 C 62.1 46.2 62.6 45.9 63.1 45.9 C 63.6 45.9 63.9 46.1 64.1 46.4 C 64.4 46.6 64.5 47 64.5 47.4 C 64.5 47.44 64.5 49.6 64.5 49.6 L 64.2 49.6 C 64.2 49.6 64.16 47.48 64.2 47.5 C 64.2 47.1 64.1 46.8 63.9 46.6 C 63.7 46.4 63.4 46.3 63.1 46.3 C 62.8 46.3 62.5 46.4 62.3 46.6 C 62.1 46.8 62 47.1 62 47.5 C 61.98 47.52 62 49.6 62 49.6 L 61.6 49.6 C 61.6 49.6 61.63 47.46 61.6 47.5 C 61.6 47.1 61.5 46.8 61.4 46.6 C 61.2 46.4 60.9 46.3 60.6 46.3 C 60.3 46.3 60 46.4 59.8 46.6 C 59.6 46.9 59.4 47.2 59.4 47.5 C 59.45 47.54 59.4 49.6 59.4 49.6 L 59.1 49.6 Z M 65.5 50.3 C 65.5 50.3 65.5 50.2 65.5 50.2 C 65.6 50.1 65.7 50 65.8 49.9 C 65.8 49.8 65.9 49.7 65.8 49.6 C 65.85 49.6 65.7 49.6 65.7 49.6 L 65.7 49 L 66.1 49 C 66.1 49 66.12 49.52 66.1 49.5 C 66.1 49.7 66.1 49.9 66 50 C 65.9 50.2 65.7 50.3 65.5 50.3 Z M 69.5 49.6 L 69.5 44.7 L 69.9 44.7 L 69.9 49.3 L 72.8 49.3 L 72.8 49.6 L 69.5 49.6 Z M 75.5 49.6 L 75.5 49.3 C 75.5 49.3 77.35 47.67 77.4 47.7 C 77.8 47.3 78 47 78.2 46.8 C 78.4 46.5 78.4 46.3 78.4 46 C 78.4 45.7 78.3 45.4 78.1 45.2 C 77.9 45 77.6 45 77.3 45 C 77 45 76.8 45 76.6 45.2 C 76.3 45.3 76.1 45.5 75.9 45.9 C 75.9 45.9 75.6 45.7 75.6 45.7 C 75.9 45.3 76.1 45.1 76.4 44.9 C 76.6 44.7 77 44.6 77.4 44.6 C 77.8 44.6 78.1 44.8 78.4 45 C 78.7 45.3 78.8 45.6 78.8 46 C 78.8 46 78.8 46 78.8 46 C 78.8 46.3 78.7 46.6 78.6 46.9 C 78.4 47.1 78.1 47.5 77.6 47.9 C 77.6 47.89 76.1 49.2 76.1 49.2 L 78.9 49.2 L 78.9 49.6 L 75.5 49.6 Z M 81.6 49.7 C 81.1 49.7 80.7 49.5 80.4 49.2 C 80.2 49 80 48.7 79.9 48.4 C 79.8 48.2 79.8 47.8 79.8 47.3 C 79.8 47.3 79.8 47.3 79.8 47.3 C 79.8 46.5 80 45.9 80.3 45.4 C 80.7 44.9 81.2 44.6 81.8 44.6 C 82.3 44.6 82.7 44.8 83.2 45.2 C 83.2 45.2 82.9 45.5 82.9 45.5 C 82.6 45.1 82.1 44.9 81.7 44.9 C 81.3 44.9 80.9 45.2 80.6 45.6 C 80.3 46.1 80.1 46.6 80.1 47.3 C 80.1 47.3 80.1 47.5 80.1 47.5 C 80.5 46.9 81 46.6 81.7 46.6 C 82.1 46.6 82.5 46.7 82.9 47 C 83.2 47.3 83.4 47.6 83.4 48.1 C 83.4 48.1 83.4 48.1 83.4 48.1 C 83.4 48.5 83.2 48.9 82.9 49.2 C 82.5 49.5 82.1 49.7 81.6 49.7 Z M 81.7 49.4 C 82 49.4 82.4 49.2 82.6 49 C 82.9 48.7 83 48.4 83 48.1 C 83 48.1 83 48.1 83 48.1 C 83 47.7 82.9 47.5 82.6 47.2 C 82.4 47 82 46.9 81.6 46.9 C 81.3 46.9 80.9 47 80.7 47.3 C 80.4 47.5 80.3 47.8 80.3 48.1 C 80.3 48.1 80.3 48.1 80.3 48.1 C 80.3 48.5 80.4 48.8 80.7 49 C 80.9 49.2 81.3 49.4 81.7 49.4 Z M 84.3 50.3 C 84.3 50.3 84.2 50.2 84.2 50.2 C 84.3 50.1 84.4 50 84.5 49.9 C 84.6 49.8 84.6 49.7 84.6 49.6 C 84.58 49.6 84.4 49.6 84.4 49.6 L 84.4 49 L 84.9 49 C 84.9 49 84.85 49.52 84.9 49.5 C 84.9 49.7 84.8 49.9 84.7 50 C 84.6 50.2 84.5 50.3 84.3 50.3 Z M 87.5 49.7 C 87.2 49.7 86.9 49.6 86.6 49.5 C 86.3 49.3 86.1 49.1 85.8 48.9 C 85.8 48.9 86.1 48.6 86.1 48.6 C 86.6 49.1 87.1 49.4 87.6 49.4 C 87.9 49.4 88.3 49.2 88.5 49 C 88.7 48.8 88.9 48.5 88.9 48.1 C 88.9 48.1 88.9 48.1 88.9 48.1 C 88.9 47.8 88.7 47.5 88.5 47.3 C 88.2 47.1 87.9 46.9 87.5 46.9 C 87.2 46.9 86.8 47 86.4 47.3 C 86.42 47.25 86.1 47.1 86.1 47.1 L 86.3 44.7 L 89 44.7 L 89 45 L 86.6 45 C 86.6 45 86.48 46.88 86.5 46.9 C 86.8 46.7 87.2 46.6 87.6 46.6 C 88 46.6 88.4 46.8 88.8 47 C 89.1 47.3 89.2 47.7 89.2 48.1 C 89.2 48.1 89.2 48.1 89.2 48.1 C 89.2 48.6 89.1 48.9 88.8 49.2 C 88.4 49.5 88 49.7 87.5 49.7 Z M 95.4 49 C 95 49.4 94.5 49.7 94 49.7 C 93.5 49.7 93 49.5 92.7 49.1 C 92.3 48.8 92.2 48.3 92.2 47.8 C 92.2 47.8 92.2 47.8 92.2 47.8 C 92.2 47.3 92.3 46.9 92.7 46.5 C 93 46.1 93.5 45.9 94 45.9 C 94.5 45.9 95 46.2 95.4 46.6 C 95.4 46.6 95.2 46.9 95.2 46.9 C 94.8 46.5 94.4 46.3 94 46.3 C 93.6 46.3 93.2 46.4 93 46.7 C 92.7 47 92.5 47.4 92.5 47.8 C 92.5 47.8 92.5 47.8 92.5 47.8 C 92.5 48.2 92.7 48.6 93 48.9 C 93.3 49.2 93.6 49.4 94 49.4 C 94.5 49.4 94.9 49.2 95.2 48.8 C 95.2 48.77 95.4 49 95.4 49 C 95.4 49 95.44 48.98 95.4 49 Z M 96.4 49.6 L 96.4 46 L 96.8 46 C 96.8 46 96.75 46.67 96.8 46.7 C 97 46.2 97.4 45.9 97.9 45.9 C 98.5 45.9 98.9 46.2 99.1 46.7 C 99.4 46.2 99.9 45.9 100.4 45.9 C 100.9 45.9 101.2 46.1 101.4 46.4 C 101.7 46.6 101.8 47 101.8 47.4 C 101.81 47.44 101.8 49.6 101.8 49.6 L 101.5 49.6 C 101.5 49.6 101.46 47.48 101.5 47.5 C 101.5 47.1 101.4 46.8 101.2 46.6 C 101 46.4 100.7 46.3 100.4 46.3 C 100.1 46.3 99.8 46.4 99.6 46.6 C 99.4 46.8 99.3 47.1 99.3 47.5 C 99.28 47.52 99.3 49.6 99.3 49.6 L 98.9 49.6 C 98.9 49.6 98.94 47.46 98.9 47.5 C 98.9 47.1 98.8 46.8 98.7 46.6 C 98.5 46.4 98.2 46.3 97.9 46.3 C 97.6 46.3 97.3 46.4 97.1 46.6 C 96.9 46.9 96.8 47.2 96.8 47.5 C 96.75 47.54 96.8 49.6 96.8 49.6 L 96.4 49.6 Z M 102.8 50.3 C 102.8 50.3 102.8 50.2 102.8 50.2 C 102.9 50.1 103 50 103.1 49.9 C 103.1 49.8 103.2 49.7 103.1 49.6 C 103.15 49.6 103 49.6 103 49.6 L 103 49 L 103.4 49 C 103.4 49 103.42 49.52 103.4 49.5 C 103.4 49.7 103.4 49.9 103.3 50 C 103.2 50.2 103.1 50.3 102.8 50.3 Z M 108.2 49.6 L 106.4 44.7 L 106.9 44.7 L 108.4 49.1 L 109.8 44.7 L 110.1 44.7 L 111.5 49.1 L 113.1 44.7 L 113.5 44.7 L 111.7 49.6 L 111.4 49.6 L 110 45.4 L 108.5 49.6 L 108.2 49.6 Z M 116.2 49.6 L 116.2 49.3 C 116.2 49.3 118.07 47.67 118.1 47.7 C 118.5 47.3 118.8 47 118.9 46.8 C 119.1 46.5 119.2 46.3 119.2 46 C 119.2 45.7 119 45.4 118.8 45.2 C 118.6 45 118.4 45 118.1 45 C 117.8 45 117.5 45 117.3 45.2 C 117.1 45.3 116.8 45.5 116.6 45.9 C 116.6 45.9 116.3 45.7 116.3 45.7 C 116.6 45.3 116.8 45.1 117.1 44.9 C 117.4 44.7 117.7 44.6 118.1 44.6 C 118.5 44.6 118.8 44.8 119.1 45 C 119.4 45.3 119.5 45.6 119.5 46 C 119.5 46 119.5 46 119.5 46 C 119.5 46.3 119.5 46.6 119.3 46.9 C 119.1 47.1 118.8 47.5 118.3 47.9 C 118.32 47.89 116.8 49.2 116.8 49.2 L 119.6 49.2 L 119.6 49.6 L 116.2 49.6 Z M 122.2 49.7 C 121.5 49.7 120.9 49.4 120.4 48.8 C 120.4 48.8 120.7 48.6 120.7 48.6 C 121.1 49.1 121.6 49.4 122.2 49.4 C 122.6 49.4 122.8 49.3 123.1 49.1 C 123.3 48.8 123.4 48.6 123.4 48.3 C 123.4 48.3 123.4 48.3 123.4 48.3 C 123.4 47.9 123.3 47.7 123 47.5 C 122.7 47.3 122.4 47.2 121.9 47.2 C 121.91 47.19 121.6 47.2 121.6 47.2 L 121.6 47 L 123.2 45 L 120.7 45 L 120.7 44.7 L 123.7 44.7 L 123.7 45 C 123.7 45 122.08 46.86 122.1 46.9 C 122.6 46.9 123 47 123.3 47.3 C 123.6 47.5 123.8 47.8 123.8 48.2 C 123.8 48.2 123.8 48.3 123.8 48.3 C 123.8 48.7 123.7 49 123.3 49.3 C 123 49.6 122.7 49.7 122.2 49.7 Z M 130.1 49 C 129.7 49.4 129.2 49.7 128.6 49.7 C 128.1 49.7 127.7 49.5 127.3 49.1 C 127 48.8 126.8 48.3 126.8 47.8 C 126.8 47.8 126.8 47.8 126.8 47.8 C 126.8 47.3 127 46.9 127.3 46.5 C 127.7 46.1 128.1 45.9 128.6 45.9 C 129.2 45.9 129.7 46.2 130.1 46.6 C 130.1 46.6 129.8 46.9 129.8 46.9 C 129.4 46.5 129 46.3 128.6 46.3 C 128.2 46.3 127.9 46.4 127.6 46.7 C 127.3 47 127.2 47.4 127.2 47.8 C 127.2 47.8 127.2 47.8 127.2 47.8 C 127.2 48.2 127.3 48.6 127.6 48.9 C 127.9 49.2 128.3 49.4 128.7 49.4 C 129.1 49.4 129.5 49.2 129.9 48.8 C 129.85 48.77 130.1 49 130.1 49 C 130.1 49 130.09 48.98 130.1 49 Z M 131.1 49.6 L 131.1 46 L 131.4 46 C 131.4 46 131.4 46.67 131.4 46.7 C 131.7 46.2 132.1 45.9 132.6 45.9 C 133.1 45.9 133.5 46.2 133.8 46.7 C 134.1 46.2 134.5 45.9 135.1 45.9 C 135.5 45.9 135.8 46.1 136.1 46.4 C 136.3 46.6 136.5 47 136.5 47.4 C 136.46 47.44 136.5 49.6 136.5 49.6 L 136.1 49.6 C 136.1 49.6 136.11 47.48 136.1 47.5 C 136.1 47.1 136 46.8 135.8 46.6 C 135.6 46.4 135.4 46.3 135.1 46.3 C 134.7 46.3 134.5 46.4 134.3 46.6 C 134 46.8 133.9 47.1 133.9 47.5 C 133.93 47.52 133.9 49.6 133.9 49.6 L 133.6 49.6 C 133.6 49.6 133.59 47.46 133.6 47.5 C 133.6 47.1 133.5 46.8 133.3 46.6 C 133.1 46.4 132.9 46.3 132.5 46.3 C 132.2 46.3 131.9 46.4 131.7 46.6 C 131.5 46.9 131.4 47.2 131.4 47.5 C 131.4 47.54 131.4 49.6 131.4 49.6 L 131.1 49.6 Z M 137.5 50.3 C 137.5 50.3 137.4 50.2 137.4 50.2 C 137.6 50.1 137.7 50 137.7 49.9 C 137.8 49.8 137.8 49.7 137.8 49.6 C 137.8 49.6 137.6 49.6 137.6 49.6 L 137.6 49 L 138.1 49 C 138.1 49 138.07 49.52 138.1 49.5 C 138.1 49.7 138 49.9 137.9 50 C 137.9 50.2 137.7 50.3 137.5 50.3 Z M 141.5 49.6 L 141.5 44.7 L 141.8 44.7 L 141.8 47 L 145 47 L 145 44.7 L 145.3 44.7 L 145.3 49.6 L 145 49.6 L 145 47.3 L 141.8 47.3 L 141.8 49.6 L 141.5 49.6 Z M 149 48.8 C 149.4 49.2 149.8 49.4 150.2 49.4 C 150.7 49.4 151.1 49.1 151.4 48.7 C 151.7 48.2 151.8 47.7 151.8 47 C 151.8 47 151.8 46.8 151.8 46.8 C 151.5 47.5 151 47.8 150.3 47.8 C 149.8 47.8 149.4 47.6 149.1 47.3 C 148.8 47.1 148.6 46.7 148.6 46.3 C 148.6 46.3 148.6 46.3 148.6 46.3 C 148.6 45.8 148.8 45.4 149.1 45.1 C 149.4 44.8 149.8 44.6 150.3 44.6 C 150.8 44.6 151.3 44.8 151.6 45.1 C 152 45.5 152.2 46.2 152.2 47 C 152.2 47 152.2 47 152.2 47 C 152.2 47.8 152 48.4 151.6 48.9 C 151.3 49.4 150.8 49.7 150.2 49.7 C 149.7 49.7 149.2 49.5 148.7 49.1 C 148.74 49.07 149 48.8 149 48.8 C 149 48.8 148.97 48.79 149 48.8 Z M 150.3 47.5 C 150.7 47.5 151.1 47.3 151.3 47.1 C 151.6 46.8 151.7 46.5 151.7 46.2 C 151.7 46.2 151.7 46.2 151.7 46.2 C 151.7 45.8 151.6 45.5 151.3 45.3 C 151 45.1 150.7 44.9 150.3 44.9 C 149.9 44.9 149.6 45.1 149.4 45.3 C 149.1 45.6 149 45.9 149 46.2 C 149 46.2 149 46.3 149 46.3 C 149 46.6 149.1 46.9 149.4 47.1 C 149.6 47.3 149.9 47.5 150.3 47.5 Z M 153 50.3 C 153 50.3 153 50.2 153 50.2 C 153.1 50.1 153.2 50 153.3 49.9 C 153.3 49.8 153.4 49.7 153.4 49.6 C 153.35 49.6 153.2 49.6 153.2 49.6 L 153.2 49 L 153.6 49 C 153.6 49 153.63 49.52 153.6 49.5 C 153.6 49.7 153.6 49.9 153.5 50 C 153.4 50.2 153.3 50.3 153 50.3 Z M 156.3 49.7 C 156 49.7 155.7 49.6 155.4 49.5 C 155.1 49.3 154.8 49.1 154.6 48.9 C 154.6 48.9 154.9 48.6 154.9 48.6 C 155.3 49.1 155.8 49.4 156.3 49.4 C 156.7 49.4 157 49.2 157.3 49 C 157.5 48.8 157.6 48.5 157.6 48.1 C 157.6 48.1 157.6 48.1 157.6 48.1 C 157.6 47.8 157.5 47.5 157.3 47.3 C 157 47.1 156.7 46.9 156.3 46.9 C 155.9 46.9 155.6 47 155.2 47.3 C 155.19 47.25 154.9 47.1 154.9 47.1 L 155.1 44.7 L 157.8 44.7 L 157.8 45 L 155.4 45 C 155.4 45 155.26 46.88 155.3 46.9 C 155.6 46.7 156 46.6 156.3 46.6 C 156.8 46.6 157.2 46.8 157.5 47 C 157.9 47.3 158 47.7 158 48.1 C 158 48.1 158 48.1 158 48.1 C 158 48.6 157.9 48.9 157.5 49.2 C 157.2 49.5 156.8 49.7 156.3 49.7 Z M 164.2 49 C 163.8 49.4 163.3 49.7 162.8 49.7 C 162.3 49.7 161.8 49.5 161.5 49.1 C 161.1 48.8 160.9 48.3 160.9 47.8 C 160.9 47.8 160.9 47.8 160.9 47.8 C 160.9 47.3 161.1 46.9 161.5 46.5 C 161.8 46.1 162.3 45.9 162.8 45.9 C 163.3 45.9 163.8 46.2 164.2 46.6 C 164.2 46.6 163.9 46.9 163.9 46.9 C 163.6 46.5 163.2 46.3 162.8 46.3 C 162.3 46.3 162 46.4 161.7 46.7 C 161.5 47 161.3 47.4 161.3 47.8 C 161.3 47.8 161.3 47.8 161.3 47.8 C 161.3 48.2 161.5 48.6 161.7 48.9 C 162 49.2 162.4 49.4 162.8 49.4 C 163.2 49.4 163.6 49.2 164 48.8 C 163.98 48.77 164.2 49 164.2 49 C 164.2 49 164.22 48.98 164.2 49 Z M 165.2 49.6 L 165.2 46 L 165.5 46 C 165.5 46 165.53 46.67 165.5 46.7 C 165.8 46.2 166.2 45.9 166.7 45.9 C 167.3 45.9 167.7 46.2 167.9 46.7 C 168.2 46.2 168.6 45.9 169.2 45.9 C 169.6 45.9 170 46.1 170.2 46.4 C 170.5 46.6 170.6 47 170.6 47.4 C 170.58 47.44 170.6 49.6 170.6 49.6 L 170.2 49.6 C 170.2 49.6 170.24 47.48 170.2 47.5 C 170.2 47.1 170.1 46.8 170 46.6 C 169.8 46.4 169.5 46.3 169.2 46.3 C 168.9 46.3 168.6 46.4 168.4 46.6 C 168.2 46.8 168.1 47.1 168.1 47.5 C 168.05 47.52 168.1 49.6 168.1 49.6 L 167.7 49.6 C 167.7 49.6 167.71 47.46 167.7 47.5 C 167.7 47.1 167.6 46.8 167.4 46.6 C 167.2 46.4 167 46.3 166.7 46.3 C 166.3 46.3 166.1 46.4 165.9 46.6 C 165.6 46.9 165.5 47.2 165.5 47.5 C 165.53 47.54 165.5 49.6 165.5 49.6 L 165.2 49.6 Z " stroke="none" fill="#000"/>  </g>  <g id="Polygon387911">    <path d="M 2.6 36.1 C 2.6 36.4 2.5 36.6 2.3 36.8 C 2.1 37 1.9 37.1 1.7 37.1 C 1.4 37.1 1.2 37 1 36.8 C 0.8 36.6 0.8 36.4 0.8 36.1 C 0.8 36.1 0.8 36.1 0.8 36.1 C 0.8 35.9 0.8 35.7 1 35.5 C 1.2 35.3 1.4 35.2 1.7 35.2 C 1.9 35.2 2.1 35.3 2.3 35.5 C 2.5 35.7 2.6 35.9 2.6 36.1 C 2.59 36.13 2.6 36.1 2.6 36.1 C 2.6 36.1 2.59 36.14 2.6 36.1 Z M 11.7 38 C 11.4 38.4 11 38.7 10.4 38.7 C 10 38.7 9.7 38.5 9.4 38.3 C 9.2 38 9 37.7 9 37.2 C 9.05 37.23 9 35 9 35 L 9.6 35 C 9.6 35 9.59 37.09 9.6 37.1 C 9.6 37.4 9.7 37.7 9.9 37.9 C 10 38.1 10.3 38.2 10.6 38.2 C 10.9 38.2 11.2 38.1 11.4 37.9 C 11.6 37.7 11.7 37.4 11.7 37.1 C 11.67 37.05 11.7 35 11.7 35 L 12.2 35 L 12.2 38.6 L 11.7 38.6 L 11.7 38 C 11.7 38 11.67 37.97 11.7 38 Z M 15 38 L 16.1 35 L 16.7 35 C 16.7 35 15.18 38.72 15.2 38.7 C 15 39.1 14.9 39.4 14.7 39.5 C 14.5 39.7 14.3 39.7 14 39.7 C 13.7 39.7 13.5 39.7 13.2 39.6 C 13.2 39.6 13.4 39.1 13.4 39.1 C 13.6 39.2 13.8 39.3 14 39.3 C 14.1 39.3 14.3 39.2 14.4 39.1 C 14.5 39 14.6 38.8 14.7 38.6 C 14.7 38.59 13.1 35 13.1 35 L 13.6 35 L 15 38 Z M 20.1 38 C 19.8 38.4 19.4 38.7 18.9 38.7 C 18.5 38.7 18.1 38.5 17.9 38.3 C 17.6 38 17.5 37.7 17.5 37.2 C 17.5 37.23 17.5 35 17.5 35 L 18 35 C 18 35 18.04 37.09 18 37.1 C 18 37.4 18.1 37.7 18.3 37.9 C 18.5 38.1 18.7 38.2 19 38.2 C 19.4 38.2 19.6 38.1 19.8 37.9 C 20 37.7 20.1 37.4 20.1 37.1 C 20.12 37.05 20.1 35 20.1 35 L 20.7 35 L 20.7 38.6 L 20.1 38.6 L 20.1 38 C 20.1 38 20.12 37.97 20.1 38 Z M 21.9 38.6 L 21.9 35 L 22.4 35 C 22.4 35 22.41 35.59 22.4 35.6 C 22.6 35.4 22.7 35.2 22.9 35.1 C 23.1 35 23.3 34.9 23.6 34.9 C 24.1 34.9 24.5 35.1 24.7 35.6 C 25.1 35.1 25.5 34.9 26 34.9 C 26.4 34.9 26.8 35 27 35.3 C 27.2 35.6 27.4 35.9 27.4 36.4 C 27.35 36.36 27.4 38.6 27.4 38.6 L 26.8 38.6 C 26.8 38.6 26.82 36.49 26.8 36.5 C 26.8 36.1 26.7 35.9 26.6 35.7 C 26.4 35.5 26.2 35.4 25.9 35.4 C 25.6 35.4 25.4 35.5 25.2 35.7 C 25 35.9 24.9 36.2 24.9 36.5 C 24.88 36.51 24.9 38.6 24.9 38.6 L 24.3 38.6 C 24.3 38.6 24.34 36.47 24.3 36.5 C 24.3 36.1 24.3 35.9 24.1 35.7 C 23.9 35.5 23.7 35.4 23.4 35.4 C 23.1 35.4 22.9 35.5 22.7 35.7 C 22.5 35.9 22.4 36.2 22.4 36.5 C 22.41 36.53 22.4 38.6 22.4 38.6 L 21.9 38.6 Z M 28.6 38.6 L 28.6 33.5 L 29.1 33.5 L 29.1 38.6 L 28.6 38.6 Z M 32.9 38 C 32.6 38.4 32.2 38.7 31.7 38.7 C 31.2 38.7 30.9 38.5 30.7 38.3 C 30.4 38 30.3 37.7 30.3 37.2 C 30.29 37.23 30.3 35 30.3 35 L 30.8 35 C 30.8 35 30.83 37.09 30.8 37.1 C 30.8 37.4 30.9 37.7 31.1 37.9 C 31.3 38.1 31.5 38.2 31.8 38.2 C 32.1 38.2 32.4 38.1 32.6 37.9 C 32.8 37.7 32.9 37.4 32.9 37.1 C 32.91 37.05 32.9 35 32.9 35 L 33.4 35 L 33.4 38.6 L 32.9 38.6 L 32.9 38 C 32.9 38 32.91 37.97 32.9 38 Z M 34.7 38.6 L 34.7 33.5 L 35.2 33.5 L 35.2 38.6 L 34.7 38.6 Z M 39.1 38 C 38.8 38.4 38.4 38.7 37.8 38.7 C 37.4 38.7 37.1 38.5 36.8 38.3 C 36.6 38 36.4 37.7 36.4 37.2 C 36.44 37.23 36.4 35 36.4 35 L 37 35 C 37 35 36.98 37.09 37 37.1 C 37 37.4 37.1 37.7 37.2 37.9 C 37.4 38.1 37.7 38.2 38 38.2 C 38.3 38.2 38.6 38.1 38.8 37.9 C 39 37.7 39.1 37.4 39.1 37.1 C 39.07 37.05 39.1 35 39.1 35 L 39.6 35 L 39.6 38.6 L 39.1 38.6 L 39.1 38 C 39.1 38 39.07 37.97 39.1 38 Z M 40.8 38.6 L 40.8 33.5 L 41.3 33.5 L 41.3 37 L 43.3 35 L 44 35 L 42.5 36.5 L 44 38.6 L 43.4 38.6 L 42.1 36.9 L 41.3 37.7 L 41.3 38.6 L 40.8 38.6 Z M 44.8 35.7 L 44.8 35 L 45.4 35 L 45.4 35.7 L 44.8 35.7 Z M 44.8 38.6 L 44.8 37.9 L 45.4 37.9 L 45.4 38.6 L 44.8 38.6 Z M 48.8 38.6 L 48.8 33.7 C 48.8 33.7 50.59 33.7 50.6 33.7 C 51.1 33.7 51.6 33.8 51.9 34.1 C 52.3 34.4 52.4 34.8 52.4 35.3 C 52.4 35.3 52.4 35.3 52.4 35.3 C 52.4 35.8 52.2 36.2 51.9 36.5 C 51.5 36.7 51.1 36.9 50.5 36.9 C 50.5 36.87 49.3 36.9 49.3 36.9 L 49.3 38.6 L 48.8 38.6 Z M 49.3 36.4 C 49.3 36.4 50.52 36.37 50.5 36.4 C 50.9 36.4 51.3 36.3 51.5 36.1 C 51.7 35.9 51.9 35.6 51.9 35.3 C 51.9 35.3 51.9 35.3 51.9 35.3 C 51.9 34.9 51.8 34.7 51.5 34.5 C 51.3 34.3 51 34.2 50.6 34.2 C 50.55 34.21 49.3 34.2 49.3 34.2 L 49.3 36.4 Z M 53.4 38.6 L 53.4 33.7 C 53.4 33.7 55.54 33.7 55.5 33.7 C 56.1 33.7 56.6 33.9 56.9 34.2 C 57.2 34.4 57.3 34.8 57.3 35.2 C 57.3 35.2 57.3 35.2 57.3 35.2 C 57.3 35.6 57.2 35.9 57 36.1 C 56.7 36.4 56.4 36.5 56 36.6 C 55.98 36.6 57.5 38.6 57.5 38.6 L 56.8 38.6 L 55.4 36.7 L 54 36.7 L 54 38.6 L 53.4 38.6 Z M 54 36.2 C 54 36.2 55.49 36.2 55.5 36.2 C 55.9 36.2 56.2 36.1 56.4 35.9 C 56.6 35.7 56.8 35.5 56.8 35.2 C 56.8 35.2 56.8 35.2 56.8 35.2 C 56.8 34.9 56.6 34.6 56.4 34.5 C 56.2 34.3 55.9 34.2 55.5 34.2 C 55.5 34.21 54 34.2 54 34.2 L 54 36.2 Z M 58.5 38.6 L 58.5 33.7 L 62 33.7 L 62 34.2 L 59.1 34.2 L 59.1 35.9 L 61.7 35.9 L 61.7 36.4 L 59.1 36.4 L 59.1 38.1 L 62.1 38.1 L 62.1 38.6 L 58.5 38.6 Z M 63.2 38.6 L 63.2 33.7 L 63.7 33.7 L 65.5 36.4 L 67.3 33.7 L 67.9 33.7 L 67.9 38.6 L 67.3 38.6 L 67.3 34.6 L 65.5 37.3 L 65.5 37.3 L 63.7 34.6 L 63.7 38.6 L 63.2 38.6 Z M 69.3 38.6 L 69.3 33.7 L 69.9 33.7 L 69.9 38.6 L 69.3 38.6 Z M 76.1 36.1 C 76.1 36.8 75.8 37.4 75.4 37.9 C 74.9 38.4 74.3 38.7 73.6 38.7 C 72.8 38.7 72.2 38.4 71.8 37.9 C 71.3 37.5 71.1 36.9 71.1 36.2 C 71.1 36.2 71.1 36.1 71.1 36.1 C 71.1 35.5 71.3 34.9 71.8 34.4 C 72.3 33.9 72.9 33.6 73.6 33.6 C 74.3 33.6 74.9 33.9 75.4 34.4 C 75.8 34.8 76.1 35.4 76.1 36.1 C 76.08 36.14 76.1 36.1 76.1 36.1 C 76.1 36.1 76.08 36.15 76.1 36.1 Z M 71.7 36.1 C 71.7 36.7 71.8 37.2 72.2 37.6 C 72.6 38 73 38.2 73.6 38.2 C 74.1 38.2 74.6 38 75 37.6 C 75.3 37.2 75.5 36.7 75.5 36.2 C 75.5 36.2 75.5 36.1 75.5 36.1 C 75.5 35.6 75.3 35.1 75 34.7 C 74.6 34.3 74.1 34.1 73.6 34.1 C 73 34.1 72.6 34.3 72.2 34.7 C 71.8 35.1 71.7 35.6 71.7 36.1 C 71.66 36.14 71.7 36.1 71.7 36.1 C 71.7 36.1 71.66 36.15 71.7 36.1 Z M 80.5 38.7 C 79.9 38.7 79.4 38.5 79 38.1 C 79 38.1 79.2 37.8 79.2 37.8 C 79.6 38.1 80 38.2 80.5 38.2 C 80.7 38.2 80.9 38.2 81 38.1 C 81.2 38 81.2 37.8 81.2 37.6 C 81.2 37.6 81.2 37.6 81.2 37.6 C 81.2 37.5 81.2 37.3 81 37.2 C 80.8 37.2 80.6 37.1 80.3 37 C 80.2 37 80.1 36.9 80 36.9 C 80 36.9 79.9 36.8 79.8 36.8 C 79.7 36.8 79.6 36.7 79.5 36.7 C 79.5 36.6 79.4 36.6 79.3 36.5 C 79.3 36.4 79.2 36.4 79.2 36.3 C 79.1 36.2 79.1 36.1 79.1 36 C 79.1 36 79.1 36 79.1 36 C 79.1 35.6 79.2 35.4 79.5 35.2 C 79.7 35 80 34.9 80.4 34.9 C 80.8 34.9 81.3 35.1 81.7 35.3 C 81.7 35.3 81.4 35.7 81.4 35.7 C 81.1 35.5 80.7 35.4 80.4 35.4 C 80.1 35.4 80 35.4 79.8 35.5 C 79.7 35.6 79.7 35.7 79.7 35.9 C 79.7 35.9 79.7 35.9 79.7 35.9 C 79.7 36 79.7 36 79.7 36.1 C 79.7 36.1 79.8 36.2 79.8 36.2 C 79.9 36.3 80 36.3 80.1 36.4 C 80.2 36.4 80.2 36.4 80.3 36.4 C 80.4 36.5 80.5 36.5 80.6 36.5 C 80.7 36.6 80.8 36.6 80.9 36.6 C 81 36.7 81.1 36.7 81.2 36.8 C 81.3 36.8 81.4 36.9 81.5 37 C 81.6 37 81.6 37.1 81.7 37.2 C 81.7 37.3 81.7 37.4 81.7 37.6 C 81.7 37.6 81.7 37.6 81.7 37.6 C 81.7 37.9 81.6 38.2 81.4 38.4 C 81.1 38.6 80.8 38.7 80.5 38.7 Z M 84.6 34.4 L 84.6 33.8 L 85.2 33.8 L 85.2 34.4 L 84.6 34.4 Z M 83.3 34.4 L 83.3 33.8 L 84 33.8 L 84 34.4 L 83.3 34.4 Z M 85.3 38 C 85 38.4 84.6 38.7 84.1 38.7 C 83.6 38.7 83.3 38.5 83.1 38.3 C 82.8 38 82.7 37.7 82.7 37.2 C 82.69 37.23 82.7 35 82.7 35 L 83.2 35 C 83.2 35 83.23 37.09 83.2 37.1 C 83.2 37.4 83.3 37.7 83.5 37.9 C 83.7 38.1 83.9 38.2 84.2 38.2 C 84.5 38.2 84.8 38.1 85 37.9 C 85.2 37.7 85.3 37.4 85.3 37.1 C 85.31 37.05 85.3 35 85.3 35 L 85.8 35 L 85.8 38.6 L 85.3 38.6 L 85.3 38 C 85.3 38 85.31 37.97 85.3 38 Z M 86.8 38.6 L 86.8 38.3 L 89.2 35.4 L 86.9 35.4 L 86.9 35 L 90 35 L 90 35.3 L 87.6 38.1 L 90 38.1 L 90 38.6 L 86.8 38.6 Z M 93.8 39.3 C 93.5 39.6 93 39.7 92.4 39.7 C 91.8 39.7 91.3 39.6 90.8 39.2 C 90.8 39.2 91 38.8 91 38.8 C 91.5 39.1 91.9 39.3 92.4 39.3 C 92.9 39.3 93.2 39.2 93.4 38.9 C 93.6 38.7 93.8 38.4 93.8 38 C 93.8 38 93.8 37.6 93.8 37.6 C 93.4 38.1 92.9 38.3 92.3 38.3 C 91.9 38.3 91.5 38.2 91.1 37.8 C 90.8 37.5 90.6 37.1 90.6 36.6 C 90.6 36.6 90.6 36.6 90.6 36.6 C 90.6 36.1 90.8 35.7 91.1 35.4 C 91.5 35.1 91.9 34.9 92.3 34.9 C 92.9 34.9 93.4 35.1 93.7 35.6 C 93.75 35.63 93.7 35 93.7 35 L 94.3 35 C 94.3 35 94.29 37.97 94.3 38 C 94.3 38.5 94.1 38.9 93.8 39.3 C 93.8 39.3 93.8 39.3 93.8 39.3 Z M 92.4 37.8 C 92.8 37.8 93.1 37.7 93.4 37.5 C 93.6 37.3 93.8 37 93.8 36.6 C 93.8 36.6 93.8 36.6 93.8 36.6 C 93.8 36.2 93.6 36 93.4 35.7 C 93.1 35.5 92.8 35.4 92.4 35.4 C 92.1 35.4 91.8 35.5 91.5 35.7 C 91.3 35.9 91.2 36.2 91.2 36.6 C 91.2 36.6 91.2 36.6 91.2 36.6 C 91.2 37 91.3 37.3 91.6 37.5 C 91.8 37.7 92.1 37.8 92.4 37.8 Z M 98.6 38 C 98.2 38.5 97.7 38.7 97.1 38.7 C 96.6 38.7 96.1 38.5 95.8 38.2 C 95.4 37.8 95.3 37.4 95.3 36.8 C 95.3 36.8 95.3 36.8 95.3 36.8 C 95.3 36.3 95.4 35.8 95.8 35.4 C 96.1 35.1 96.5 34.9 97 34.9 C 97.5 34.9 97.9 35.1 98.2 35.4 C 98.5 35.8 98.7 36.3 98.7 36.8 C 98.7 36.9 98.7 36.9 98.7 37 C 98.7 37 95.8 37 95.8 37 C 95.9 37.4 96 37.7 96.2 37.9 C 96.5 38.1 96.8 38.2 97.1 38.2 C 97.5 38.2 97.9 38 98.2 37.7 C 98.23 37.7 98.6 38 98.6 38 C 98.6 38 98.56 38 98.6 38 Z M 95.8 36.6 C 95.8 36.6 98.1 36.6 98.1 36.6 C 98.1 36.2 98 35.9 97.8 35.7 C 97.6 35.5 97.3 35.4 97 35.4 C 96.7 35.4 96.4 35.5 96.2 35.7 C 96 35.9 95.9 36.2 95.8 36.6 Z M 100.9 39.7 L 100.4 39.4 C 100.4 39.4 100.93 38.65 100.9 38.6 C 100.5 38.6 100.1 38.4 99.8 38 C 99.6 37.7 99.4 37.3 99.4 36.8 C 99.4 36.8 99.4 36.8 99.4 36.8 C 99.4 36.3 99.6 35.8 99.9 35.5 C 100.3 35.1 100.7 34.9 101.3 34.9 C 101.8 34.9 102.3 35.1 102.7 35.5 C 102.7 35.5 102.4 35.9 102.4 35.9 C 102 35.6 101.6 35.4 101.3 35.4 C 100.9 35.4 100.6 35.5 100.3 35.8 C 100.1 36.1 100 36.4 100 36.8 C 100 36.8 100 36.8 100 36.8 C 100 37.2 100.1 37.5 100.3 37.8 C 100.6 38.1 100.9 38.2 101.3 38.2 C 101.7 38.2 102.1 38 102.4 37.7 C 102.4 37.7 102.7 38 102.7 38 C 102.4 38.4 101.9 38.7 101.4 38.7 C 101.37 38.68 100.9 39.7 100.9 39.7 Z M 110.1 33.7 L 110.7 33.7 C 110.7 33.7 109.97 34.43 110 34.4 C 110.4 34.9 110.6 35.5 110.6 36.1 C 110.6 36.1 110.6 36.1 110.6 36.1 C 110.6 36.8 110.4 37.4 109.9 37.9 C 109.4 38.4 108.8 38.7 108.1 38.7 C 107.5 38.7 107 38.5 106.6 38.2 C 106.56 38.17 106.1 38.6 106.1 38.6 L 105.6 38.6 C 105.6 38.6 106.24 37.88 106.2 37.9 C 105.8 37.4 105.6 36.8 105.6 36.2 C 105.6 36.2 105.6 36.1 105.6 36.1 C 105.6 35.5 105.8 34.9 106.3 34.4 C 106.8 33.9 107.4 33.6 108.1 33.6 C 108.7 33.6 109.2 33.8 109.6 34.1 C 109.65 34.13 110.1 33.7 110.1 33.7 Z M 106.2 36.1 C 106.2 36.1 106.2 36.1 106.2 36.1 C 106.2 36.7 106.3 37.1 106.6 37.5 C 106.6 37.5 109.3 34.5 109.3 34.5 C 108.9 34.3 108.5 34.1 108.1 34.1 C 107.5 34.1 107.1 34.3 106.7 34.7 C 106.4 35.1 106.2 35.6 106.2 36.1 Z M 106.9 37.8 C 107.2 38 107.6 38.2 108.1 38.2 C 108.7 38.2 109.1 38 109.5 37.6 C 109.9 37.2 110 36.7 110 36.2 C 110 36.2 110 36.2 110 36.2 C 110 35.7 109.9 35.2 109.6 34.8 C 109.59 34.83 106.9 37.8 106.9 37.8 C 106.9 37.8 106.91 37.77 106.9 37.8 Z M 113.5 38.6 L 113.5 38.2 C 113.5 38.2 115.29 36.6 115.3 36.6 C 115.7 36.3 115.9 36 116.1 35.8 C 116.2 35.5 116.3 35.3 116.3 35.1 C 116.3 34.8 116.2 34.6 116 34.4 C 115.8 34.2 115.6 34.1 115.3 34.1 C 115.1 34.1 114.8 34.2 114.6 34.3 C 114.4 34.5 114.2 34.7 114 35 C 114 35 113.6 34.7 113.6 34.7 C 113.9 34.3 114.1 34 114.4 33.9 C 114.6 33.7 115 33.6 115.4 33.6 C 115.8 33.6 116.2 33.8 116.5 34 C 116.7 34.3 116.9 34.6 116.9 35 C 116.9 35 116.9 35 116.9 35 C 116.9 35.4 116.8 35.7 116.6 35.9 C 116.4 36.2 116.1 36.5 115.7 36.9 C 115.65 36.93 114.3 38.1 114.3 38.1 L 116.9 38.1 L 116.9 38.6 L 113.5 38.6 Z M 119.6 38.7 C 118.8 38.7 118.2 38.4 117.7 37.8 C 117.7 37.8 118.1 37.5 118.1 37.5 C 118.5 37.9 119 38.2 119.6 38.2 C 119.9 38.2 120.1 38.1 120.3 37.9 C 120.5 37.7 120.6 37.5 120.6 37.2 C 120.6 37.2 120.6 37.2 120.6 37.2 C 120.6 36.9 120.5 36.7 120.3 36.5 C 120 36.4 119.7 36.3 119.3 36.3 C 119.26 36.27 118.9 36.3 118.9 36.3 L 118.8 35.9 L 120.4 34.2 L 118 34.2 L 118 33.7 L 121.1 33.7 L 121.1 34.1 C 121.1 34.1 119.57 35.81 119.6 35.8 C 120 35.9 120.4 36 120.7 36.2 C 121 36.4 121.2 36.8 121.2 37.2 C 121.2 37.2 121.2 37.2 121.2 37.2 C 121.2 37.6 121 38 120.7 38.3 C 120.4 38.5 120 38.7 119.6 38.7 Z M 127.5 38 C 127.1 38.5 126.6 38.7 126 38.7 C 125.5 38.7 125 38.5 124.7 38.1 C 124.3 37.8 124.1 37.3 124.1 36.8 C 124.1 36.8 124.1 36.8 124.1 36.8 C 124.1 36.3 124.3 35.8 124.7 35.5 C 125 35.1 125.5 34.9 126 34.9 C 126.6 34.9 127 35.1 127.4 35.5 C 127.4 35.5 127.1 35.9 127.1 35.9 C 126.7 35.6 126.4 35.4 126 35.4 C 125.6 35.4 125.3 35.5 125.1 35.8 C 124.8 36.1 124.7 36.4 124.7 36.8 C 124.7 36.8 124.7 36.8 124.7 36.8 C 124.7 37.2 124.8 37.5 125.1 37.8 C 125.3 38.1 125.6 38.2 126 38.2 C 126.4 38.2 126.8 38 127.1 37.7 C 127.13 37.66 127.5 38 127.5 38 C 127.5 38 127.47 37.98 127.5 38 Z M 128.4 38.6 L 128.4 35 L 128.9 35 C 128.9 35 128.9 35.59 128.9 35.6 C 129 35.4 129.2 35.2 129.4 35.1 C 129.6 35 129.8 34.9 130.1 34.9 C 130.6 34.9 131 35.1 131.2 35.6 C 131.6 35.1 132 34.9 132.5 34.9 C 132.9 34.9 133.3 35 133.5 35.3 C 133.7 35.6 133.9 35.9 133.9 36.4 C 133.85 36.36 133.9 38.6 133.9 38.6 L 133.3 38.6 C 133.3 38.6 133.31 36.49 133.3 36.5 C 133.3 36.1 133.2 35.9 133.1 35.7 C 132.9 35.5 132.7 35.4 132.4 35.4 C 132.1 35.4 131.9 35.5 131.7 35.7 C 131.5 35.9 131.4 36.2 131.4 36.5 C 131.37 36.51 131.4 38.6 131.4 38.6 L 130.8 38.6 C 130.8 38.6 130.84 36.47 130.8 36.5 C 130.8 36.1 130.8 35.9 130.6 35.7 C 130.4 35.5 130.2 35.4 129.9 35.4 C 129.6 35.4 129.4 35.5 129.2 35.7 C 129 35.9 128.9 36.2 128.9 36.5 C 128.9 36.53 128.9 38.6 128.9 38.6 L 128.4 38.6 Z " stroke="none" fill="#000"/>  </g>  <g id="Polygon387910">    <path d="M 2.5 25.1 C 2.5 25.4 2.4 25.6 2.3 25.8 C 2.1 25.9 1.9 26 1.6 26 C 1.4 26 1.2 25.9 1 25.8 C 0.9 25.6 0.8 25.4 0.8 25.1 C 0.8 25.1 0.8 25.1 0.8 25.1 C 0.8 24.9 0.9 24.7 1 24.5 C 1.2 24.4 1.4 24.3 1.6 24.3 C 1.9 24.3 2.1 24.4 2.3 24.5 C 2.4 24.7 2.5 24.9 2.5 25.1 C 2.51 25.13 2.5 25.1 2.5 25.1 C 2.5 25.1 2.51 25.14 2.5 25.1 Z M 12.1 26.8 C 11.7 27.4 11.2 27.7 10.7 27.7 C 10.2 27.7 9.8 27.5 9.4 27.2 C 9.1 26.8 8.9 26.4 8.9 25.8 C 8.9 25.8 8.9 25.8 8.9 25.8 C 8.9 25.3 9.1 24.8 9.4 24.5 C 9.8 24.1 10.2 23.9 10.7 23.9 C 11.3 23.9 11.7 24.2 12.1 24.8 C 12.13 24.8 12.1 22.5 12.1 22.5 L 12.5 22.5 L 12.5 27.6 L 12.1 27.6 L 12.1 26.8 C 12.1 26.8 12.13 26.8 12.1 26.8 Z M 9.3 25.8 C 9.3 26.3 9.4 26.6 9.7 26.9 C 10 27.2 10.3 27.4 10.7 27.4 C 11.1 27.4 11.4 27.2 11.7 26.9 C 12 26.6 12.2 26.3 12.2 25.8 C 12.2 25.8 12.2 25.8 12.2 25.8 C 12.2 25.4 12 25 11.7 24.7 C 11.4 24.4 11.1 24.3 10.7 24.3 C 10.3 24.3 10 24.4 9.7 24.7 C 9.4 25 9.3 25.3 9.3 25.8 C 9.29 25.8 9.3 25.8 9.3 25.8 C 9.3 25.8 9.29 25.81 9.3 25.8 Z M 17.2 25.8 C 17.2 26.3 17 26.8 16.7 27.1 C 16.3 27.5 15.9 27.7 15.4 27.7 C 14.8 27.7 14.4 27.5 14.1 27.1 C 13.7 26.8 13.5 26.3 13.5 25.8 C 13.5 25.8 13.5 25.8 13.5 25.8 C 13.5 25.3 13.7 24.9 14.1 24.5 C 14.4 24.1 14.8 23.9 15.4 23.9 C 15.9 23.9 16.3 24.1 16.7 24.5 C 17 24.9 17.2 25.3 17.2 25.8 C 17.2 25.8 17.2 25.8 17.2 25.8 C 17.2 25.8 17.2 25.81 17.2 25.8 Z M 15.4 27.4 C 15.8 27.4 16.1 27.2 16.4 26.9 C 16.7 26.6 16.8 26.3 16.8 25.8 C 16.8 25.8 16.8 25.8 16.8 25.8 C 16.8 25.4 16.7 25 16.4 24.7 C 16.1 24.4 15.8 24.3 15.4 24.3 C 14.9 24.3 14.6 24.4 14.3 24.7 C 14 25 13.9 25.4 13.9 25.8 C 13.9 25.8 13.9 25.8 13.9 25.8 C 13.9 26.2 14 26.6 14.3 26.9 C 14.6 27.2 15 27.4 15.4 27.4 Z M 18.3 27.6 L 18.3 22.5 L 18.6 22.5 L 18.6 27.6 L 18.3 27.6 Z M 22.6 26.9 C 22.4 27.4 21.9 27.7 21.4 27.7 C 20.9 27.7 20.6 27.5 20.3 27.3 C 20.1 27 19.9 26.7 19.9 26.2 C 19.93 26.21 19.9 24 19.9 24 L 20.3 24 C 20.3 24 20.27 26.15 20.3 26.2 C 20.3 26.5 20.4 26.8 20.6 27 C 20.8 27.3 21 27.4 21.4 27.4 C 21.8 27.4 22.1 27.2 22.3 27 C 22.5 26.8 22.6 26.5 22.6 26.1 C 22.64 26.09 22.6 24 22.6 24 L 23 24 L 23 27.6 L 22.6 27.6 L 22.6 26.9 C 22.6 26.9 22.64 26.93 22.6 26.9 Z M 26.4 27.6 L 26.4 22.5 L 26.7 22.5 C 26.7 22.5 26.73 24.69 26.7 24.7 C 27 24.2 27.5 23.9 28 23.9 C 28.5 23.9 28.8 24.1 29.1 24.4 C 29.3 24.6 29.4 25 29.4 25.4 C 29.45 25.42 29.4 27.6 29.4 27.6 L 29.1 27.6 C 29.1 27.6 29.1 25.48 29.1 25.5 C 29.1 25.1 29 24.8 28.8 24.6 C 28.6 24.4 28.3 24.3 28 24.3 C 27.6 24.3 27.3 24.4 27.1 24.6 C 26.8 24.9 26.7 25.2 26.7 25.5 C 26.73 25.53 26.7 27.6 26.7 27.6 L 26.4 27.6 Z M 33.1 27 C 32.8 27.5 32.3 27.7 31.8 27.7 C 31.4 27.7 31.1 27.6 30.8 27.4 C 30.5 27.2 30.4 26.9 30.4 26.6 C 30.4 26.6 30.4 26.5 30.4 26.5 C 30.4 26.2 30.5 25.9 30.8 25.7 C 31.1 25.5 31.5 25.4 31.9 25.4 C 32.3 25.4 32.7 25.4 33.1 25.5 C 33.1 25.5 33.1 25.4 33.1 25.4 C 33.1 25 33 24.8 32.8 24.6 C 32.6 24.4 32.3 24.3 32 24.3 C 31.6 24.3 31.2 24.4 30.8 24.6 C 30.8 24.6 30.7 24.3 30.7 24.3 C 31.1 24.1 31.6 24 32 24 C 32.5 24 32.8 24.1 33.1 24.4 C 33.3 24.6 33.5 24.9 33.5 25.4 C 33.47 25.37 33.5 27.6 33.5 27.6 L 33.1 27.6 L 33.1 27 C 33.1 27 33.13 27 33.1 27 Z M 31.8 27.4 C 32.2 27.4 32.5 27.3 32.7 27.1 C 33 26.8 33.1 26.6 33.1 26.3 C 33.1 26.3 33.1 25.9 33.1 25.9 C 32.7 25.7 32.3 25.7 31.9 25.7 C 31.6 25.7 31.3 25.8 31.1 25.9 C 30.9 26.1 30.7 26.3 30.7 26.5 C 30.7 26.5 30.7 26.5 30.7 26.5 C 30.7 26.8 30.9 27 31.1 27.1 C 31.3 27.3 31.5 27.4 31.8 27.4 Z M 37.8 27 C 37.3 27.5 36.9 27.7 36.3 27.7 C 35.8 27.7 35.3 27.5 35 27.1 C 34.6 26.8 34.4 26.3 34.4 25.8 C 34.4 25.8 34.4 25.8 34.4 25.8 C 34.4 25.3 34.6 24.8 35 24.5 C 35.3 24.1 35.8 23.9 36.3 23.9 C 36.8 23.9 37.3 24.1 37.7 24.5 C 37.7 24.5 37.4 24.9 37.4 24.9 C 37 24.6 36.7 24.4 36.3 24.4 C 35.9 24.4 35.6 24.5 35.3 24.8 C 35.1 25.1 35 25.4 35 25.8 C 35 25.8 35 25.8 35 25.8 C 35 26.2 35.1 26.5 35.4 26.8 C 35.6 27.1 35.9 27.2 36.3 27.2 C 36.7 27.2 37.1 27 37.4 26.7 C 37.41 26.66 37.8 27 37.8 27 C 37.8 27 37.76 26.98 37.8 27 Z M 38.7 23.2 L 38.7 22.6 L 39.3 22.6 L 39.3 23.2 L 38.7 23.2 Z M 38.7 27.6 L 38.7 24 L 39.2 24 L 39.2 27.6 L 38.7 27.6 Z M 40.5 27.6 L 40.5 24 L 41 24 C 41 24 41.03 24.59 41 24.6 C 41.2 24.4 41.3 24.2 41.5 24.1 C 41.7 24 41.9 23.9 42.2 23.9 C 42.7 23.9 43.1 24.1 43.4 24.6 C 43.7 24.1 44.1 23.9 44.6 23.9 C 45.1 23.9 45.4 24 45.6 24.3 C 45.9 24.6 46 24.9 46 25.4 C 45.97 25.36 46 27.6 46 27.6 L 45.4 27.6 C 45.4 27.6 45.44 25.49 45.4 25.5 C 45.4 25.1 45.4 24.9 45.2 24.7 C 45 24.5 44.8 24.4 44.5 24.4 C 44.2 24.4 44 24.5 43.8 24.7 C 43.6 24.9 43.5 25.2 43.5 25.5 C 43.5 25.51 43.5 27.6 43.5 27.6 L 43 27.6 C 43 27.6 42.96 25.47 43 25.5 C 43 25.1 42.9 24.9 42.7 24.7 C 42.6 24.5 42.3 24.4 42 24.4 C 41.7 24.4 41.5 24.5 41.3 24.7 C 41.1 24.9 41 25.2 41 25.5 C 41.03 25.53 41 27.6 41 27.6 L 40.5 27.6 Z M 47.1 24.7 L 47.1 24 L 47.7 24 L 47.7 24.7 L 47.1 24.7 Z M 47.1 27.6 L 47.1 26.9 L 47.7 26.9 L 47.7 27.6 L 47.1 27.6 Z M 51.7 27.6 L 51.7 23.2 L 50.7 23.5 L 50.6 23.1 L 51.8 22.7 L 52.2 22.7 L 52.2 27.6 L 51.7 27.6 Z M 53.3 28.5 C 53.3 28.5 53.2 28.2 53.2 28.2 C 53.6 28.1 53.7 27.9 53.7 27.6 C 53.7 27.6 53.4 27.6 53.4 27.6 L 53.4 26.9 L 54.1 26.9 C 54.1 26.9 54.09 27.49 54.1 27.5 C 54.1 27.8 54 28 53.9 28.1 C 53.8 28.3 53.6 28.4 53.3 28.5 Z M 56.7 27.7 C 56.1 27.7 55.5 27.4 55 26.9 C 55 26.9 55.4 26.5 55.4 26.5 C 55.8 27 56.3 27.2 56.7 27.2 C 57.1 27.2 57.4 27.1 57.6 26.9 C 57.8 26.7 57.9 26.4 57.9 26.1 C 57.9 26.1 57.9 26.1 57.9 26.1 C 57.9 25.8 57.8 25.5 57.6 25.3 C 57.4 25.1 57.1 25.1 56.7 25.1 C 56.4 25.1 56 25.1 55.7 25.3 C 55.68 25.33 55.3 25.1 55.3 25.1 L 55.5 22.7 L 58.3 22.7 L 58.3 23.2 L 55.9 23.2 C 55.9 23.2 55.83 24.78 55.8 24.8 C 56.1 24.6 56.5 24.6 56.8 24.6 C 57.3 24.6 57.7 24.7 58 25 C 58.3 25.2 58.5 25.6 58.5 26.1 C 58.5 26.1 58.5 26.1 58.5 26.1 C 58.5 26.5 58.3 26.9 58 27.2 C 57.7 27.5 57.3 27.7 56.7 27.7 Z M 61.7 27.6 L 61.7 22.5 L 62.2 22.5 L 62.2 27.6 L 61.7 27.6 Z " stroke="none" fill="#000"/>  </g>  <g id="Polygon387909">    <path d="M 2.7 5.7 C 2.1 5.7 1.6 5.5 1.2 5.1 C 0.8 4.8 0.7 4.2 0.7 3.6 C 0.65 3.56 0.7 0.7 0.7 0.7 L 1 0.7 C 1 0.7 1.01 3.53 1 3.5 C 1 4.1 1.2 4.6 1.5 4.9 C 1.7 5.2 2.2 5.3 2.7 5.3 C 3.2 5.3 3.6 5.2 3.9 4.9 C 4.2 4.6 4.3 4.1 4.3 3.6 C 4.31 3.56 4.3 0.7 4.3 0.7 L 4.7 0.7 C 4.7 0.7 4.67 3.52 4.7 3.5 C 4.7 4.2 4.5 4.7 4.1 5.1 C 3.8 5.5 3.3 5.7 2.7 5.7 Z M 3 0.3 L 3 -0.3 L 3.5 -0.3 L 3.5 0.3 L 3 0.3 Z M 1.8 0.3 L 1.8 -0.3 L 2.3 -0.3 L 2.3 0.3 L 1.8 0.3 Z M 6 5.6 L 6 2 L 6.3 2 C 6.3 2 6.31 3.04 6.3 3 C 6.5 2.7 6.7 2.4 7 2.3 C 7.2 2.1 7.5 2 7.9 2 C 7.9 1.97 7.9 2.4 7.9 2.4 C 7.9 2.4 7.86 2.35 7.9 2.4 C 7.4 2.4 7.1 2.5 6.8 2.8 C 6.5 3.1 6.3 3.6 6.3 4.1 C 6.31 4.14 6.3 5.6 6.3 5.6 L 6 5.6 Z M 11.4 4.9 C 11.1 5.4 10.7 5.7 10.1 5.7 C 9.7 5.7 9.3 5.5 9.1 5.3 C 8.8 5 8.7 4.7 8.7 4.2 C 8.7 4.21 8.7 2 8.7 2 L 9 2 C 9 2 9.04 4.15 9 4.2 C 9 4.5 9.1 4.8 9.3 5 C 9.5 5.3 9.8 5.4 10.2 5.4 C 10.5 5.4 10.8 5.2 11.1 5 C 11.3 4.8 11.4 4.5 11.4 4.1 C 11.42 4.09 11.4 2 11.4 2 L 11.8 2 L 11.8 5.6 L 11.4 5.6 L 11.4 4.9 C 11.4 4.9 11.42 4.93 11.4 4.9 Z M 10.6 1.4 L 10.6 0.9 L 11 0.9 L 11 1.4 L 10.6 1.4 Z M 9.4 1.4 L 9.4 0.9 L 9.9 0.9 L 9.9 1.4 L 9.4 1.4 Z M 13.1 5.6 L 13.1 2 L 13.4 2 C 13.4 2 13.4 2.69 13.4 2.7 C 13.7 2.2 14.1 1.9 14.7 1.9 C 15.1 1.9 15.5 2.1 15.7 2.4 C 16 2.6 16.1 3 16.1 3.4 C 16.12 3.42 16.1 5.6 16.1 5.6 L 15.8 5.6 C 15.8 5.6 15.78 3.48 15.8 3.5 C 15.8 3.1 15.7 2.8 15.5 2.6 C 15.3 2.4 15 2.3 14.6 2.3 C 14.3 2.3 14 2.4 13.8 2.6 C 13.5 2.9 13.4 3.2 13.4 3.5 C 13.4 3.53 13.4 5.6 13.4 5.6 L 13.1 5.6 Z M 19.5 5.6 L 19.5 0.7 L 19.9 0.7 L 19.9 3.9 L 23 0.7 L 23.5 0.7 L 21.4 2.9 L 23.6 5.6 L 23.1 5.6 L 21.1 3.1 L 19.9 4.4 L 19.9 5.6 L 19.5 5.6 Z M 27.7 3.8 C 27.7 4.3 27.5 4.8 27.1 5.1 C 26.8 5.5 26.4 5.7 25.8 5.7 C 25.3 5.7 24.9 5.5 24.5 5.1 C 24.2 4.8 24 4.3 24 3.8 C 24 3.8 24 3.8 24 3.8 C 24 3.3 24.2 2.9 24.5 2.5 C 24.9 2.1 25.3 1.9 25.8 1.9 C 26.4 1.9 26.8 2.1 27.1 2.5 C 27.5 2.9 27.7 3.3 27.7 3.8 C 27.67 3.8 27.7 3.8 27.7 3.8 C 27.7 3.8 27.67 3.81 27.7 3.8 Z M 25.8 5.4 C 26.3 5.4 26.6 5.2 26.9 4.9 C 27.2 4.6 27.3 4.3 27.3 3.8 C 27.3 3.8 27.3 3.8 27.3 3.8 C 27.3 3.4 27.2 3 26.9 2.7 C 26.6 2.4 26.2 2.3 25.8 2.3 C 25.4 2.3 25.1 2.4 24.8 2.7 C 24.5 3 24.4 3.4 24.4 3.8 C 24.4 3.8 24.4 3.8 24.4 3.8 C 24.4 4.2 24.5 4.6 24.8 4.9 C 25.1 5.2 25.4 5.4 25.8 5.4 Z M 31.7 4.8 C 31.3 5.4 30.8 5.7 30.2 5.7 C 29.8 5.7 29.4 5.5 29 5.2 C 28.7 4.8 28.5 4.4 28.5 3.8 C 28.5 3.8 28.5 3.8 28.5 3.8 C 28.5 3.3 28.7 2.8 29 2.5 C 29.4 2.1 29.8 1.9 30.2 1.9 C 30.8 1.9 31.3 2.2 31.7 2.8 C 31.7 2.8 31.7 0.5 31.7 0.5 L 32 0.5 L 32 5.6 L 31.7 5.6 L 31.7 4.8 C 31.7 4.8 31.7 4.8 31.7 4.8 Z M 28.9 3.8 C 28.9 4.3 29 4.6 29.3 4.9 C 29.6 5.2 29.9 5.4 30.3 5.4 C 30.7 5.4 31 5.2 31.3 4.9 C 31.6 4.6 31.7 4.3 31.7 3.8 C 31.7 3.8 31.7 3.8 31.7 3.8 C 31.7 3.4 31.6 3 31.3 2.7 C 31 2.4 30.7 2.3 30.3 2.3 C 29.9 2.3 29.5 2.4 29.3 2.7 C 29 3 28.9 3.3 28.9 3.8 C 28.87 3.8 28.9 3.8 28.9 3.8 C 28.9 3.8 28.87 3.81 28.9 3.8 Z M 36 4.9 C 35.7 5.4 35.3 5.7 34.7 5.7 C 34.3 5.7 33.9 5.5 33.7 5.3 C 33.4 5 33.3 4.7 33.3 4.2 C 33.28 4.21 33.3 2 33.3 2 L 33.6 2 C 33.6 2 33.62 4.15 33.6 4.2 C 33.6 4.5 33.7 4.8 33.9 5 C 34.1 5.3 34.4 5.4 34.8 5.4 C 35.1 5.4 35.4 5.2 35.6 5 C 35.9 4.8 36 4.5 36 4.1 C 35.99 4.09 36 2 36 2 L 36.3 2 L 36.3 5.6 L 36 5.6 L 36 4.9 C 36 4.9 35.99 4.93 36 4.9 Z M 37.6 2.6 L 37.6 2 L 38.1 2 L 38.1 2.6 L 37.6 2.6 Z M 37.6 5.6 L 37.6 5 L 38.1 5 L 38.1 5.6 L 37.6 5.6 Z M 41.1 5.6 L 41.1 4.7 C 41.1 4.7 42.74 3.41 42.7 3.4 C 43.1 3.1 43.3 2.9 43.4 2.8 C 43.5 2.6 43.6 2.4 43.6 2.2 C 43.6 2 43.5 1.9 43.4 1.8 C 43.3 1.7 43.1 1.6 42.9 1.6 C 42.7 1.6 42.6 1.6 42.4 1.7 C 42.3 1.8 42.1 2 41.9 2.3 C 41.9 2.3 41.2 1.6 41.2 1.6 C 41.4 1.3 41.7 1 42 0.9 C 42.2 0.7 42.6 0.6 43 0.6 C 43.5 0.6 43.9 0.8 44.2 1 C 44.5 1.3 44.7 1.7 44.7 2.1 C 44.7 2.1 44.7 2.2 44.7 2.2 C 44.7 2.5 44.6 2.9 44.4 3.1 C 44.2 3.4 43.9 3.7 43.4 4.1 C 43.4 4.05 42.6 4.7 42.6 4.7 L 44.7 4.7 L 44.7 5.6 L 41.1 5.6 Z M 47.3 5.7 C 46.8 5.7 46.3 5.5 46 5.3 C 45.6 5 45.4 4.7 45.4 4.3 C 45.4 4.3 45.4 4.2 45.4 4.2 C 45.4 4 45.5 3.7 45.6 3.5 C 45.8 3.3 46 3.2 46.2 3.1 C 45.8 2.8 45.6 2.5 45.6 2 C 45.6 2 45.6 2 45.6 2 C 45.6 1.6 45.8 1.3 46.1 1 C 46.4 0.8 46.8 0.6 47.3 0.6 C 47.8 0.6 48.3 0.8 48.6 1 C 48.9 1.3 49.1 1.6 49.1 2 C 49.1 2 49.1 2 49.1 2 C 49.1 2.5 48.8 2.8 48.4 3.1 C 48.7 3.2 48.9 3.4 49 3.5 C 49.2 3.7 49.2 3.9 49.2 4.2 C 49.2 4.2 49.2 4.2 49.2 4.2 C 49.2 4.7 49 5 48.7 5.3 C 48.3 5.5 47.9 5.7 47.3 5.7 Z M 46.6 2.1 C 46.6 2.3 46.7 2.4 46.8 2.5 C 47 2.6 47.1 2.7 47.3 2.7 C 47.5 2.7 47.7 2.6 47.8 2.5 C 48 2.4 48 2.3 48 2.1 C 48 2.1 48 2.1 48 2.1 C 48 1.9 48 1.8 47.8 1.7 C 47.7 1.6 47.5 1.5 47.3 1.5 C 47.1 1.5 46.9 1.6 46.8 1.7 C 46.7 1.8 46.6 1.9 46.6 2.1 C 46.63 2.09 46.6 2.1 46.6 2.1 C 46.6 2.1 46.63 2.1 46.6 2.1 Z M 47.3 4.8 C 47.6 4.8 47.8 4.7 48 4.6 C 48.1 4.5 48.2 4.3 48.2 4.2 C 48.2 4.2 48.2 4.2 48.2 4.2 C 48.2 4 48.1 3.8 47.9 3.7 C 47.8 3.6 47.6 3.6 47.3 3.6 C 47.1 3.6 46.9 3.6 46.7 3.7 C 46.6 3.8 46.5 4 46.5 4.2 C 46.5 4.2 46.5 4.2 46.5 4.2 C 46.5 4.3 46.6 4.5 46.7 4.6 C 46.9 4.7 47.1 4.8 47.3 4.8 Z M 50.8 5.6 L 50.8 1.8 L 49.9 2 L 49.7 1.1 L 51.1 0.7 L 51.8 0.7 L 51.8 5.6 L 50.8 5.6 Z M 54.7 5.7 C 53.9 5.7 53.2 5.4 52.8 4.8 C 52.8 4.8 53.5 4.1 53.5 4.1 C 53.8 4.5 54.2 4.7 54.7 4.7 C 54.9 4.7 55.1 4.7 55.2 4.6 C 55.3 4.4 55.4 4.3 55.4 4.1 C 55.4 4.1 55.4 4.1 55.4 4.1 C 55.4 3.9 55.3 3.8 55.1 3.6 C 55 3.5 54.7 3.5 54.4 3.5 C 54.42 3.49 54 3.5 54 3.5 L 53.8 2.8 L 55 1.6 L 53 1.6 L 53 0.7 L 56.4 0.7 L 56.4 1.5 C 56.4 1.5 55.12 2.69 55.1 2.7 C 56 2.8 56.4 3.3 56.4 4.1 C 56.4 4.1 56.4 4.1 56.4 4.1 C 56.4 4.6 56.3 4.9 56 5.2 C 55.6 5.5 55.2 5.7 54.7 5.7 Z M 59 5.7 C 58.2 5.7 57.6 5.4 57.1 4.8 C 57.1 4.8 57.8 4.1 57.8 4.1 C 58.2 4.5 58.6 4.7 59 4.7 C 59.2 4.7 59.4 4.7 59.5 4.6 C 59.7 4.4 59.7 4.3 59.7 4.1 C 59.7 4.1 59.7 4.1 59.7 4.1 C 59.7 3.9 59.6 3.8 59.5 3.6 C 59.3 3.5 59.1 3.5 58.8 3.5 C 58.76 3.49 58.3 3.5 58.3 3.5 L 58.1 2.8 L 59.3 1.6 L 57.4 1.6 L 57.4 0.7 L 60.7 0.7 L 60.7 1.5 C 60.7 1.5 59.46 2.69 59.5 2.7 C 60.3 2.8 60.8 3.3 60.8 4.1 C 60.8 4.1 60.8 4.1 60.8 4.1 C 60.8 4.6 60.6 4.9 60.3 5.2 C 60 5.5 59.6 5.7 59 5.7 Z " stroke="none" fill="#000"/>  </g></svg>