<?xml version="1.0" standalone="no"?><!DOCTYPE svg PUBLIC "-//W3C//DTD SVG 1.1//EN" "http://www.w3.org/Graphics/SVG/1.1/DTD/svg11.dtd"><svg xmlns="http://www.w3.org/2000/svg" version="1.1" width="167px" height="81.4px" viewBox="0 -2 167 81.4" style="top:-2px">  <desc>MILO Saklama Kab – 1.500 ml r n Kodu: 12754 Hacim: 1.500 ml Boyut: 23 cm (U) x 17,5 cm (G) x 7,5 cm (Y)</desc>  <defs/>  <g id="Polygon378274">    <path d="M 5.4 63.5 C 5.4 63.8 5.3 64 5.2 64.2 C 5 64.4 4.8 64.5 4.5 64.5 C 4.3 64.5 4 64.4 3.9 64.2 C 3.7 64 3.6 63.8 3.6 63.5 C 3.6 63.5 3.6 63.5 3.6 63.5 C 3.6 63.3 3.7 63.1 3.9 62.9 C 4 62.7 4.3 62.6 4.5 62.6 C 4.8 62.6 5 62.7 5.1 62.9 C 5.3 63.1 5.4 63.3 5.4 63.5 C 5.42 63.53 5.4 63.5 5.4 63.5 C 5.4 63.5 5.42 63.54 5.4 63.5 Z M 12 66 L 12 61.1 C 12 61.1 14.12 61.1 14.1 61.1 C 14.7 61.1 15.1 61.2 15.4 61.5 C 15.6 61.7 15.7 62 15.7 62.3 C 15.7 62.3 15.7 62.3 15.7 62.3 C 15.7 62.9 15.5 63.2 14.9 63.5 C 15.6 63.7 16 64.1 16 64.6 C 16 64.6 16 64.7 16 64.7 C 16 65.1 15.8 65.4 15.5 65.6 C 15.2 65.9 14.7 66 14.2 66 C 14.21 66 12 66 12 66 Z M 15.2 62.4 C 15.2 62.4 15.2 62.4 15.2 62.4 C 15.2 62.1 15.1 62 14.9 61.8 C 14.7 61.7 14.4 61.6 14.1 61.6 C 14.07 61.6 12.6 61.6 12.6 61.6 L 12.6 63.3 C 12.6 63.3 14.03 63.28 14 63.3 C 14.4 63.3 14.6 63.2 14.8 63.1 C 15.1 62.9 15.2 62.7 15.2 62.4 Z M 15.4 64.6 C 15.4 64.6 15.4 64.6 15.4 64.6 C 15.4 64.3 15.3 64.1 15.1 64 C 14.9 63.8 14.5 63.8 14.1 63.8 C 14.12 63.77 12.6 63.8 12.6 63.8 L 12.6 65.5 C 12.6 65.5 14.22 65.5 14.2 65.5 C 14.6 65.5 14.9 65.4 15.1 65.3 C 15.3 65.1 15.4 64.9 15.4 64.6 Z M 18.6 66.1 C 18.1 66.1 17.7 65.9 17.3 65.5 C 16.9 65.2 16.8 64.7 16.8 64.2 C 16.8 64.2 16.8 64.2 16.8 64.2 C 16.8 63.7 17 63.2 17.3 62.9 C 17.7 62.5 18.1 62.3 18.7 62.3 C 19.2 62.3 19.6 62.5 20 62.9 C 20.4 63.2 20.5 63.7 20.5 64.2 C 20.5 64.2 20.5 64.2 20.5 64.2 C 20.5 64.7 20.4 65.2 20 65.5 C 19.6 65.9 19.2 66.1 18.6 66.1 Z M 18.7 65.6 C 19 65.6 19.4 65.5 19.6 65.2 C 19.9 64.9 20 64.6 20 64.2 C 20 64.2 20 64.2 20 64.2 C 20 63.8 19.9 63.5 19.6 63.2 C 19.3 62.9 19 62.8 18.6 62.8 C 18.3 62.8 17.9 62.9 17.7 63.2 C 17.4 63.5 17.3 63.8 17.3 64.2 C 17.3 64.2 17.3 64.2 17.3 64.2 C 17.3 64.6 17.5 64.9 17.7 65.2 C 18 65.5 18.3 65.6 18.7 65.6 Z M 22.9 65.4 L 24 62.4 L 24.6 62.4 C 24.6 62.4 23.07 66.12 23.1 66.1 C 22.9 66.5 22.8 66.8 22.6 66.9 C 22.4 67.1 22.1 67.1 21.9 67.1 C 21.6 67.1 21.3 67.1 21.1 67 C 21.1 67 21.3 66.5 21.3 66.5 C 21.5 66.6 21.6 66.7 21.8 66.7 C 22 66.7 22.2 66.6 22.3 66.5 C 22.4 66.4 22.5 66.2 22.6 66 C 22.59 65.99 20.9 62.4 20.9 62.4 L 21.5 62.4 L 22.9 65.4 Z M 28 65.4 C 27.7 65.8 27.3 66.1 26.8 66.1 C 26.3 66.1 26 65.9 25.8 65.7 C 25.5 65.4 25.4 65.1 25.4 64.6 C 25.39 64.63 25.4 62.4 25.4 62.4 L 25.9 62.4 C 25.9 62.4 25.93 64.49 25.9 64.5 C 25.9 64.8 26 65.1 26.2 65.3 C 26.4 65.5 26.6 65.6 26.9 65.6 C 27.2 65.6 27.5 65.5 27.7 65.3 C 27.9 65.1 28 64.8 28 64.5 C 28.01 64.45 28 62.4 28 62.4 L 28.5 62.4 L 28.5 66 L 28 66 L 28 65.4 C 28 65.4 28.01 65.37 28 65.4 Z M 31.6 65.9 C 31.4 66 31.2 66.1 31 66.1 C 30.7 66.1 30.4 66 30.2 65.8 C 30 65.6 29.9 65.4 29.9 65 C 29.94 65.04 29.9 62.9 29.9 62.9 L 29.4 62.9 L 29.4 62.4 L 29.9 62.4 L 29.9 61.3 L 30.5 61.3 L 30.5 62.4 L 31.6 62.4 L 31.6 62.9 L 30.5 62.9 C 30.5 62.9 30.48 64.97 30.5 65 C 30.5 65.4 30.7 65.6 31.1 65.6 C 31.3 65.6 31.4 65.5 31.6 65.4 C 31.62 65.45 31.6 65.9 31.6 65.9 C 31.6 65.9 31.62 65.91 31.6 65.9 Z M 32.5 63.1 L 32.5 62.4 L 33.2 62.4 L 33.2 63.1 L 32.5 63.1 Z M 32.5 66 L 32.5 65.3 L 33.2 65.3 L 33.2 66 L 32.5 66 Z M 36.2 66 L 36.2 65.6 C 36.2 65.6 37.97 64 38 64 C 38.4 63.7 38.6 63.4 38.8 63.2 C 38.9 62.9 39 62.7 39 62.5 C 39 62.2 38.9 62 38.7 61.8 C 38.5 61.6 38.3 61.5 38 61.5 C 37.7 61.5 37.5 61.6 37.3 61.7 C 37.1 61.9 36.9 62.1 36.7 62.4 C 36.7 62.4 36.3 62.1 36.3 62.1 C 36.5 61.7 36.8 61.4 37 61.3 C 37.3 61.1 37.6 61 38.1 61 C 38.5 61 38.9 61.2 39.1 61.4 C 39.4 61.7 39.6 62 39.6 62.4 C 39.6 62.4 39.6 62.4 39.6 62.4 C 39.6 62.8 39.5 63.1 39.3 63.3 C 39.1 63.6 38.8 63.9 38.3 64.3 C 38.33 64.33 37 65.5 37 65.5 L 39.6 65.5 L 39.6 66 L 36.2 66 Z M 42.2 66.1 C 41.5 66.1 40.8 65.8 40.4 65.2 C 40.4 65.2 40.8 64.9 40.8 64.9 C 41.2 65.3 41.7 65.6 42.2 65.6 C 42.5 65.6 42.8 65.5 43 65.3 C 43.2 65.1 43.3 64.9 43.3 64.6 C 43.3 64.6 43.3 64.6 43.3 64.6 C 43.3 64.3 43.2 64.1 42.9 63.9 C 42.7 63.8 42.3 63.7 41.9 63.7 C 41.94 63.67 41.6 63.7 41.6 63.7 L 41.5 63.3 L 43.1 61.6 L 40.7 61.6 L 40.7 61.1 L 43.8 61.1 L 43.8 61.5 C 43.8 61.5 42.25 63.21 42.3 63.2 C 42.7 63.3 43.1 63.4 43.4 63.6 C 43.7 63.8 43.9 64.2 43.9 64.6 C 43.9 64.6 43.9 64.6 43.9 64.6 C 43.9 65 43.7 65.4 43.4 65.7 C 43.1 65.9 42.7 66.1 42.2 66.1 Z M 50.2 65.4 C 49.7 65.9 49.3 66.1 48.7 66.1 C 48.1 66.1 47.7 65.9 47.4 65.5 C 47 65.2 46.8 64.7 46.8 64.2 C 46.8 64.2 46.8 64.2 46.8 64.2 C 46.8 63.7 47 63.2 47.4 62.9 C 47.7 62.5 48.1 62.3 48.7 62.3 C 49.2 62.3 49.7 62.5 50.1 62.9 C 50.1 62.9 49.8 63.3 49.8 63.3 C 49.4 63 49.1 62.8 48.7 62.8 C 48.3 62.8 48 62.9 47.7 63.2 C 47.5 63.5 47.4 63.8 47.4 64.2 C 47.4 64.2 47.4 64.2 47.4 64.2 C 47.4 64.6 47.5 64.9 47.8 65.2 C 48 65.5 48.3 65.6 48.7 65.6 C 49.1 65.6 49.5 65.4 49.8 65.1 C 49.81 65.06 50.2 65.4 50.2 65.4 C 50.2 65.4 50.15 65.38 50.2 65.4 Z M 51 66 L 51 62.4 L 51.6 62.4 C 51.6 62.4 51.58 62.99 51.6 63 C 51.7 62.8 51.9 62.6 52.1 62.5 C 52.2 62.4 52.5 62.3 52.8 62.3 C 53.3 62.3 53.7 62.5 53.9 63 C 54.2 62.5 54.7 62.3 55.2 62.3 C 55.6 62.3 55.9 62.4 56.2 62.7 C 56.4 63 56.5 63.3 56.5 63.8 C 56.53 63.76 56.5 66 56.5 66 L 56 66 C 56 66 55.99 63.89 56 63.9 C 56 63.5 55.9 63.3 55.7 63.1 C 55.6 62.9 55.3 62.8 55.1 62.8 C 54.8 62.8 54.5 62.9 54.3 63.1 C 54.1 63.3 54.1 63.6 54.1 63.9 C 54.05 63.91 54.1 66 54.1 66 L 53.5 66 C 53.5 66 53.52 63.87 53.5 63.9 C 53.5 63.5 53.4 63.3 53.3 63.1 C 53.1 62.9 52.9 62.8 52.6 62.8 C 52.3 62.8 52.1 62.9 51.9 63.1 C 51.7 63.3 51.6 63.6 51.6 63.9 C 51.58 63.93 51.6 66 51.6 66 L 51 66 Z M 60.2 64 C 60.2 65.1 60.7 65.9 61.8 66.6 C 61.8 66.6 61.6 67 61.6 67 C 60.3 66.3 59.7 65.3 59.7 64 C 59.7 64 59.7 64 59.7 64 C 59.7 62.7 60.3 61.7 61.6 61 C 61.6 61 61.8 61.4 61.8 61.4 C 60.7 62 60.2 62.9 60.2 64 C 60.2 63.99 60.2 64 60.2 64 C 60.2 64 60.2 64 60.2 64 Z M 64.9 66.1 C 64.2 66.1 63.8 65.9 63.4 65.5 C 63 65.1 62.8 64.6 62.8 63.9 C 62.83 63.95 62.8 61.1 62.8 61.1 L 63.4 61.1 C 63.4 61.1 63.38 63.91 63.4 63.9 C 63.4 64.4 63.5 64.8 63.8 65.1 C 64 65.4 64.4 65.6 64.9 65.6 C 65.3 65.6 65.7 65.4 66 65.2 C 66.2 64.9 66.4 64.5 66.4 63.9 C 66.36 63.95 66.4 61.1 66.4 61.1 L 66.9 61.1 C 66.9 61.1 66.91 63.91 66.9 63.9 C 66.9 64.6 66.7 65.1 66.4 65.5 C 66 65.9 65.5 66.1 64.9 66.1 Z M 70.1 64 C 70.1 65.3 69.4 66.3 68.2 67 C 68.2 67 67.9 66.6 67.9 66.6 C 69 65.9 69.5 65.1 69.5 64 C 69.5 64 69.5 64 69.5 64 C 69.5 62.9 69 62 67.9 61.4 C 67.9 61.4 68.2 61 68.2 61 C 69.4 61.7 70.1 62.7 70.1 64 C 70.09 63.99 70.1 64 70.1 64 C 70.1 64 70.09 64 70.1 64 Z M 73.6 62.4 L 74.7 63.8 L 75.8 62.4 L 76.4 62.4 L 75 64.2 L 76.4 66 L 75.8 66 L 74.7 64.5 L 73.5 66 L 72.9 66 L 74.4 64.2 L 73 62.4 L 73.6 62.4 Z M 80 66 L 80 61.6 L 79.1 61.9 L 79 61.5 L 80.2 61.1 L 80.6 61.1 L 80.6 66 L 80 66 Z M 82.2 66 L 84.5 61.6 L 81.8 61.6 L 81.8 61.1 L 85.1 61.1 L 85.1 61.5 L 82.9 66 L 82.2 66 Z M 85.2 66.9 C 85.2 66.9 85.1 66.6 85.1 66.6 C 85.4 66.5 85.6 66.3 85.6 66 C 85.55 66 85.3 66 85.3 66 L 85.3 65.3 L 85.9 65.3 C 85.9 65.3 85.94 65.89 85.9 65.9 C 85.9 66.2 85.9 66.4 85.8 66.5 C 85.6 66.7 85.4 66.8 85.2 66.9 Z M 88.6 66.1 C 87.9 66.1 87.4 65.8 86.8 65.3 C 86.8 65.3 87.2 64.9 87.2 64.9 C 87.7 65.4 88.1 65.6 88.6 65.6 C 88.9 65.6 89.2 65.5 89.5 65.3 C 89.7 65.1 89.8 64.8 89.8 64.5 C 89.8 64.5 89.8 64.5 89.8 64.5 C 89.8 64.2 89.7 63.9 89.4 63.7 C 89.2 63.5 88.9 63.5 88.6 63.5 C 88.2 63.5 87.9 63.5 87.5 63.7 C 87.54 63.73 87.2 63.5 87.2 63.5 L 87.3 61.1 L 90.1 61.1 L 90.1 61.6 L 87.8 61.6 C 87.8 61.6 87.69 63.18 87.7 63.2 C 88 63 88.3 63 88.7 63 C 89.1 63 89.5 63.1 89.9 63.4 C 90.2 63.6 90.3 64 90.3 64.5 C 90.3 64.5 90.3 64.5 90.3 64.5 C 90.3 64.9 90.2 65.3 89.9 65.6 C 89.5 65.9 89.1 66.1 88.6 66.1 Z M 96.6 65.4 C 96.2 65.9 95.7 66.1 95.1 66.1 C 94.6 66.1 94.1 65.9 93.8 65.5 C 93.4 65.2 93.2 64.7 93.2 64.2 C 93.2 64.2 93.2 64.2 93.2 64.2 C 93.2 63.7 93.4 63.2 93.8 62.9 C 94.1 62.5 94.6 62.3 95.1 62.3 C 95.7 62.3 96.1 62.5 96.5 62.9 C 96.5 62.9 96.2 63.3 96.2 63.3 C 95.8 63 95.5 62.8 95.1 62.8 C 94.7 62.8 94.4 62.9 94.2 63.2 C 93.9 63.5 93.8 63.8 93.8 64.2 C 93.8 64.2 93.8 64.2 93.8 64.2 C 93.8 64.6 93.9 64.9 94.2 65.2 C 94.4 65.5 94.7 65.6 95.1 65.6 C 95.5 65.6 95.9 65.4 96.2 65.1 C 96.23 65.06 96.6 65.4 96.6 65.4 C 96.6 65.4 96.57 65.38 96.6 65.4 Z M 97.5 66 L 97.5 62.4 L 98 62.4 C 98 62.4 98 62.99 98 63 C 98.1 62.8 98.3 62.6 98.5 62.5 C 98.7 62.4 98.9 62.3 99.2 62.3 C 99.7 62.3 100.1 62.5 100.3 63 C 100.7 62.5 101.1 62.3 101.6 62.3 C 102 62.3 102.4 62.4 102.6 62.7 C 102.8 63 102.9 63.3 102.9 63.8 C 102.95 63.76 102.9 66 102.9 66 L 102.4 66 C 102.4 66 102.41 63.89 102.4 63.9 C 102.4 63.5 102.3 63.3 102.2 63.1 C 102 62.9 101.8 62.8 101.5 62.8 C 101.2 62.8 101 62.9 100.8 63.1 C 100.6 63.3 100.5 63.6 100.5 63.9 C 100.47 63.91 100.5 66 100.5 66 L 99.9 66 C 99.9 66 99.94 63.87 99.9 63.9 C 99.9 63.5 99.9 63.3 99.7 63.1 C 99.5 62.9 99.3 62.8 99 62.8 C 98.7 62.8 98.5 62.9 98.3 63.1 C 98.1 63.3 98 63.6 98 63.9 C 98 63.93 98 66 98 66 L 97.5 66 Z M 106.6 64 C 106.6 65.1 107.2 65.9 108.2 66.6 C 108.2 66.6 108 67 108 67 C 106.7 66.3 106.1 65.3 106.1 64 C 106.1 64 106.1 64 106.1 64 C 106.1 62.7 106.7 61.7 108 61 C 108 61 108.2 61.4 108.2 61.4 C 107.2 62 106.6 62.9 106.6 64 C 106.62 63.99 106.6 64 106.6 64 C 106.6 64 106.62 64 106.6 64 Z M 113.4 65.3 C 112.8 65.8 112.2 66.1 111.4 66.1 C 110.6 66.1 110 65.8 109.6 65.4 C 109.1 64.9 108.9 64.3 108.9 63.6 C 108.9 63.6 108.9 63.5 108.9 63.5 C 108.9 62.9 109.1 62.3 109.6 61.8 C 110.1 61.3 110.6 61 111.4 61 C 111.7 61 112.1 61.1 112.4 61.2 C 112.6 61.3 112.9 61.4 113.2 61.7 C 113.2 61.7 112.8 62.1 112.8 62.1 C 112.4 61.7 111.9 61.5 111.3 61.5 C 110.8 61.5 110.4 61.7 110 62.1 C 109.6 62.5 109.5 63 109.5 63.5 C 109.5 63.5 109.5 63.5 109.5 63.5 C 109.5 64.1 109.6 64.6 110 65 C 110.4 65.4 110.8 65.6 111.4 65.6 C 112 65.6 112.4 65.4 112.8 65.1 C 112.82 65.1 112.8 63.9 112.8 63.9 L 111.3 63.9 L 111.3 63.4 L 113.4 63.4 L 113.4 65.3 C 113.4 65.3 113.36 65.33 113.4 65.3 Z M 116.5 64 C 116.5 65.3 115.8 66.3 114.5 67 C 114.5 67 114.3 66.6 114.3 66.6 C 115.4 65.9 115.9 65.1 115.9 64 C 115.9 64 115.9 64 115.9 64 C 115.9 62.9 115.4 62 114.3 61.4 C 114.3 61.4 114.5 61 114.5 61 C 115.8 61.7 116.5 62.7 116.5 64 C 116.47 63.99 116.5 64 116.5 64 C 116.5 64 116.47 64 116.5 64 Z M 120 62.4 L 121.1 63.8 L 122.1 62.4 L 122.7 62.4 L 121.4 64.2 L 122.8 66 L 122.2 66 L 121 64.5 L 119.9 66 L 119.3 66 L 120.7 64.2 L 119.4 62.4 L 120 62.4 Z M 126.1 66 L 128.3 61.6 L 125.6 61.6 L 125.6 61.1 L 129 61.1 L 129 61.5 L 126.7 66 L 126.1 66 Z M 129 66.9 C 129 66.9 129 66.6 129 66.6 C 129.3 66.5 129.5 66.3 129.4 66 C 129.43 66 129.2 66 129.2 66 L 129.2 65.3 L 129.8 65.3 C 129.8 65.3 129.82 65.89 129.8 65.9 C 129.8 66.2 129.8 66.4 129.6 66.5 C 129.5 66.7 129.3 66.8 129 66.9 Z M 132.5 66.1 C 131.8 66.1 131.2 65.8 130.7 65.3 C 130.7 65.3 131.1 64.9 131.1 64.9 C 131.5 65.4 132 65.6 132.5 65.6 C 132.8 65.6 133.1 65.5 133.3 65.3 C 133.6 65.1 133.7 64.8 133.7 64.5 C 133.7 64.5 133.7 64.5 133.7 64.5 C 133.7 64.2 133.5 63.9 133.3 63.7 C 133.1 63.5 132.8 63.5 132.4 63.5 C 132.1 63.5 131.7 63.5 131.4 63.7 C 131.42 63.73 131 63.5 131 63.5 L 131.2 61.1 L 134 61.1 L 134 61.6 L 131.7 61.6 C 131.7 61.6 131.56 63.18 131.6 63.2 C 131.9 63 132.2 63 132.5 63 C 133 63 133.4 63.1 133.7 63.4 C 134.1 63.6 134.2 64 134.2 64.5 C 134.2 64.5 134.2 64.5 134.2 64.5 C 134.2 64.9 134.1 65.3 133.7 65.6 C 133.4 65.9 133 66.1 132.5 66.1 Z M 140.4 65.4 C 140 65.9 139.5 66.1 139 66.1 C 138.4 66.1 138 65.9 137.6 65.5 C 137.3 65.2 137.1 64.7 137.1 64.2 C 137.1 64.2 137.1 64.2 137.1 64.2 C 137.1 63.7 137.3 63.2 137.6 62.9 C 138 62.5 138.4 62.3 139 62.3 C 139.5 62.3 140 62.5 140.4 62.9 C 140.4 62.9 140.1 63.3 140.1 63.3 C 139.7 63 139.3 62.8 139 62.8 C 138.6 62.8 138.3 62.9 138 63.2 C 137.8 63.5 137.7 63.8 137.7 64.2 C 137.7 64.2 137.7 64.2 137.7 64.2 C 137.7 64.6 137.8 64.9 138 65.2 C 138.3 65.5 138.6 65.6 139 65.6 C 139.4 65.6 139.8 65.4 140.1 65.1 C 140.1 65.06 140.4 65.4 140.4 65.4 C 140.4 65.4 140.45 65.38 140.4 65.4 Z M 141.3 66 L 141.3 62.4 L 141.9 62.4 C 141.9 62.4 141.87 62.99 141.9 63 C 142 62.8 142.2 62.6 142.4 62.5 C 142.5 62.4 142.8 62.3 143 62.3 C 143.6 62.3 144 62.5 144.2 63 C 144.5 62.5 145 62.3 145.5 62.3 C 145.9 62.3 146.2 62.4 146.5 62.7 C 146.7 63 146.8 63.3 146.8 63.8 C 146.82 63.76 146.8 66 146.8 66 L 146.3 66 C 146.3 66 146.28 63.89 146.3 63.9 C 146.3 63.5 146.2 63.3 146 63.1 C 145.9 62.9 145.6 62.8 145.3 62.8 C 145.1 62.8 144.8 62.9 144.6 63.1 C 144.4 63.3 144.3 63.6 144.3 63.9 C 144.35 63.91 144.3 66 144.3 66 L 143.8 66 C 143.8 66 143.81 63.87 143.8 63.9 C 143.8 63.5 143.7 63.3 143.6 63.1 C 143.4 62.9 143.2 62.8 142.9 62.8 C 142.6 62.8 142.4 62.9 142.2 63.1 C 142 63.3 141.9 63.6 141.9 63.9 C 141.87 63.93 141.9 66 141.9 66 L 141.3 66 Z M 150.5 64 C 150.5 65.1 151 65.9 152.1 66.6 C 152.1 66.6 151.9 67 151.9 67 C 150.6 66.3 149.9 65.3 149.9 64 C 149.9 64 149.9 64 149.9 64 C 149.9 62.7 150.6 61.7 151.9 61 C 151.9 61 152.1 61.4 152.1 61.4 C 151 62 150.5 62.9 150.5 64 C 150.49 63.99 150.5 64 150.5 64 C 150.5 64 150.49 64 150.5 64 Z M 154.7 66 L 154.7 64.1 L 152.7 61.1 L 153.4 61.1 L 155 63.5 L 156.7 61.1 L 157.3 61.1 L 155.3 64.1 L 155.3 66 L 154.7 66 Z M 160.1 64 C 160.1 65.3 159.4 66.3 158.1 67 C 158.1 67 157.9 66.6 157.9 66.6 C 159 65.9 159.5 65.1 159.5 64 C 159.5 64 159.5 64 159.5 64 C 159.5 62.9 159 62 157.9 61.4 C 157.9 61.4 158.1 61 158.1 61 C 159.4 61.7 160.1 62.7 160.1 64 C 160.08 63.99 160.1 64 160.1 64 C 160.1 64 160.08 64 160.1 64 Z " stroke="none" fill="#4f4f4e"/>  </g>  <g id="Polygon378273">    <path d="M 5.4 52.5 C 5.4 52.8 5.3 53 5.2 53.2 C 5 53.4 4.8 53.5 4.5 53.5 C 4.3 53.5 4 53.4 3.9 53.2 C 3.7 53 3.6 52.8 3.6 52.5 C 3.6 52.5 3.6 52.5 3.6 52.5 C 3.6 52.3 3.7 52.1 3.9 51.9 C 4 51.7 4.3 51.6 4.5 51.6 C 4.8 51.6 5 51.7 5.1 51.9 C 5.3 52.1 5.4 52.3 5.4 52.5 C 5.42 52.53 5.4 52.5 5.4 52.5 C 5.4 52.5 5.42 52.54 5.4 52.5 Z M 12 55 L 12 50.1 L 12.6 50.1 L 12.6 52.3 L 15.4 52.3 L 15.4 50.1 L 16 50.1 L 16 55 L 15.4 55 L 15.4 52.8 L 12.6 52.8 L 12.6 55 L 12 55 Z M 19.6 54.5 C 19.3 54.9 18.9 55.1 18.3 55.1 C 18 55.1 17.7 55 17.4 54.8 C 17.1 54.6 17 54.3 17 53.9 C 17 53.9 17 53.9 17 53.9 C 17 53.6 17.1 53.3 17.4 53.1 C 17.7 52.9 18.1 52.8 18.5 52.8 C 18.9 52.8 19.3 52.8 19.6 52.9 C 19.6 52.9 19.6 52.8 19.6 52.8 C 19.6 52.5 19.6 52.2 19.4 52.1 C 19.2 51.9 18.9 51.8 18.6 51.8 C 18.2 51.8 17.8 51.9 17.5 52.1 C 17.5 52.1 17.3 51.6 17.3 51.6 C 17.7 51.4 18.2 51.3 18.6 51.3 C 19.1 51.3 19.5 51.5 19.8 51.7 C 20 52 20.2 52.3 20.2 52.8 C 20.17 52.79 20.2 55 20.2 55 L 19.6 55 L 19.6 54.5 C 19.6 54.5 19.65 54.45 19.6 54.5 Z M 18.4 54.6 C 18.8 54.6 19.1 54.6 19.3 54.4 C 19.5 54.2 19.7 54 19.7 53.7 C 19.7 53.7 19.7 53.3 19.7 53.3 C 19.3 53.2 18.9 53.2 18.6 53.2 C 18.3 53.2 18 53.2 17.8 53.4 C 17.6 53.5 17.5 53.7 17.5 53.9 C 17.5 53.9 17.5 53.9 17.5 53.9 C 17.5 54.1 17.6 54.3 17.8 54.5 C 18 54.6 18.2 54.6 18.4 54.6 Z M 24.4 54.4 C 24 54.9 23.5 55.1 22.9 55.1 C 22.4 55.1 22 54.9 21.6 54.5 C 21.3 54.2 21.1 53.7 21.1 53.2 C 21.1 53.2 21.1 53.2 21.1 53.2 C 21.1 52.7 21.3 52.2 21.6 51.9 C 22 51.5 22.4 51.3 22.9 51.3 C 23.5 51.3 24 51.5 24.4 51.9 C 24.4 51.9 24 52.3 24 52.3 C 23.7 52 23.3 51.8 22.9 51.8 C 22.6 51.8 22.3 51.9 22 52.2 C 21.8 52.5 21.6 52.8 21.6 53.2 C 21.6 53.2 21.6 53.2 21.6 53.2 C 21.6 53.6 21.8 53.9 22 54.2 C 22.3 54.5 22.6 54.6 23 54.6 C 23.4 54.6 23.7 54.4 24.1 54.1 C 24.08 54.06 24.4 54.4 24.4 54.4 C 24.4 54.4 24.42 54.38 24.4 54.4 Z M 25.3 50.6 L 25.3 50 L 25.9 50 L 25.9 50.6 L 25.3 50.6 Z M 25.4 55 L 25.4 51.4 L 25.9 51.4 L 25.9 55 L 25.4 55 Z M 27.2 55 L 27.2 51.4 L 27.7 51.4 C 27.7 51.4 27.69 51.99 27.7 52 C 27.8 51.8 28 51.6 28.2 51.5 C 28.4 51.4 28.6 51.3 28.9 51.3 C 29.4 51.3 29.8 51.5 30 52 C 30.3 51.5 30.8 51.3 31.3 51.3 C 31.7 51.3 32 51.4 32.3 51.7 C 32.5 52 32.6 52.3 32.6 52.8 C 32.64 52.76 32.6 55 32.6 55 L 32.1 55 C 32.1 55 32.1 52.89 32.1 52.9 C 32.1 52.5 32 52.3 31.9 52.1 C 31.7 51.9 31.5 51.8 31.2 51.8 C 30.9 51.8 30.6 51.9 30.5 52.1 C 30.3 52.3 30.2 52.6 30.2 52.9 C 30.16 52.91 30.2 55 30.2 55 L 29.6 55 C 29.6 55 29.63 52.87 29.6 52.9 C 29.6 52.5 29.5 52.3 29.4 52.1 C 29.2 51.9 29 51.8 28.7 51.8 C 28.4 51.8 28.2 51.9 28 52.1 C 27.8 52.3 27.7 52.6 27.7 52.9 C 27.69 52.93 27.7 55 27.7 55 L 27.2 55 Z M 33.8 52.1 L 33.8 51.4 L 34.4 51.4 L 34.4 52.1 L 33.8 52.1 Z M 33.8 55 L 33.8 54.3 L 34.4 54.3 L 34.4 55 L 33.8 55 Z M 38.3 55 L 38.3 50.6 L 37.4 50.9 L 37.3 50.5 L 38.5 50.1 L 38.9 50.1 L 38.9 55 L 38.3 55 Z M 40.1 55 L 40.1 54.3 L 40.7 54.3 L 40.7 55 L 40.1 55 Z M 43.4 55.1 C 42.7 55.1 42.2 54.8 41.6 54.3 C 41.6 54.3 42 53.9 42 53.9 C 42.5 54.4 42.9 54.6 43.4 54.6 C 43.8 54.6 44 54.5 44.3 54.3 C 44.5 54.1 44.6 53.8 44.6 53.5 C 44.6 53.5 44.6 53.5 44.6 53.5 C 44.6 53.2 44.5 52.9 44.2 52.7 C 44 52.5 43.7 52.5 43.4 52.5 C 43 52.5 42.7 52.5 42.3 52.7 C 42.34 52.73 42 52.5 42 52.5 L 42.1 50.1 L 44.9 50.1 L 44.9 50.6 L 42.6 50.6 C 42.6 50.6 42.49 52.18 42.5 52.2 C 42.8 52 43.1 52 43.5 52 C 43.9 52 44.3 52.1 44.7 52.4 C 45 52.6 45.1 53 45.1 53.5 C 45.1 53.5 45.1 53.5 45.1 53.5 C 45.1 53.9 45 54.3 44.7 54.6 C 44.3 54.9 43.9 55.1 43.4 55.1 Z M 50.1 52.5 C 50.1 53.3 49.9 53.9 49.6 54.3 C 49.2 54.8 48.7 55.1 48.1 55.1 C 47.4 55.1 46.9 54.8 46.6 54.4 C 46.2 53.9 46 53.3 46 52.6 C 46 52.6 46 52.5 46 52.5 C 46 51.8 46.2 51.2 46.6 50.8 C 47 50.3 47.5 50 48.1 50 C 48.7 50 49.2 50.3 49.6 50.7 C 49.9 51.2 50.1 51.8 50.1 52.5 C 50.13 52.54 50.1 52.5 50.1 52.5 C 50.1 52.5 50.13 52.55 50.1 52.5 Z M 46.6 52.5 C 46.6 53.1 46.7 53.6 47 54 C 47.3 54.4 47.6 54.6 48.1 54.6 C 48.5 54.6 48.9 54.4 49.2 54 C 49.4 53.6 49.6 53.1 49.6 52.6 C 49.6 52.6 49.6 52.5 49.6 52.5 C 49.6 52 49.4 51.5 49.1 51.1 C 48.9 50.7 48.5 50.5 48.1 50.5 C 47.6 50.5 47.3 50.7 47 51.1 C 46.7 51.5 46.6 52 46.6 52.5 C 46.57 52.54 46.6 52.5 46.6 52.5 C 46.6 52.5 46.57 52.55 46.6 52.5 Z M 55.1 52.5 C 55.1 53.3 54.9 53.9 54.6 54.3 C 54.2 54.8 53.7 55.1 53.1 55.1 C 52.4 55.1 52 54.8 51.6 54.4 C 51.2 53.9 51 53.3 51 52.6 C 51 52.6 51 52.5 51 52.5 C 51 51.8 51.2 51.2 51.6 50.8 C 52 50.3 52.5 50 53.1 50 C 53.7 50 54.2 50.3 54.6 50.7 C 54.9 51.2 55.1 51.8 55.1 52.5 C 55.14 52.54 55.1 52.5 55.1 52.5 C 55.1 52.5 55.14 52.55 55.1 52.5 Z M 51.6 52.5 C 51.6 53.1 51.7 53.6 52 54 C 52.3 54.4 52.6 54.6 53.1 54.6 C 53.5 54.6 53.9 54.4 54.2 54 C 54.4 53.6 54.6 53.1 54.6 52.6 C 54.6 52.6 54.6 52.5 54.6 52.5 C 54.6 52 54.4 51.5 54.1 51.1 C 53.9 50.7 53.5 50.5 53.1 50.5 C 52.6 50.5 52.3 50.7 52 51.1 C 51.7 51.5 51.6 52 51.6 52.5 C 51.57 52.54 51.6 52.5 51.6 52.5 C 51.6 52.5 51.57 52.55 51.6 52.5 Z M 58.3 55 L 58.3 51.4 L 58.8 51.4 C 58.8 51.4 58.81 51.99 58.8 52 C 59 51.8 59.1 51.6 59.3 51.5 C 59.5 51.4 59.7 51.3 60 51.3 C 60.5 51.3 60.9 51.5 61.1 52 C 61.5 51.5 61.9 51.3 62.4 51.3 C 62.8 51.3 63.2 51.4 63.4 51.7 C 63.6 52 63.8 52.3 63.8 52.8 C 63.76 52.76 63.8 55 63.8 55 L 63.2 55 C 63.2 55 63.22 52.89 63.2 52.9 C 63.2 52.5 63.1 52.3 63 52.1 C 62.8 51.9 62.6 51.8 62.3 51.8 C 62 51.8 61.8 51.9 61.6 52.1 C 61.4 52.3 61.3 52.6 61.3 52.9 C 61.28 52.91 61.3 55 61.3 55 L 60.8 55 C 60.8 55 60.75 52.87 60.8 52.9 C 60.8 52.5 60.7 52.3 60.5 52.1 C 60.3 51.9 60.1 51.8 59.8 51.8 C 59.5 51.8 59.3 51.9 59.1 52.1 C 58.9 52.3 58.8 52.6 58.8 52.9 C 58.81 52.93 58.8 55 58.8 55 L 58.3 55 Z M 65 55 L 65 49.9 L 65.5 49.9 L 65.5 55 L 65 55 Z " stroke="none" fill="#4f4f4e"/>  </g>  <g id="Polygon378272">    <path d="M 3 19.7 L 3 19 L 3.6 19 L 3.6 19.7 L 3 19.7 Z M 1.7 19.7 L 1.7 19 L 2.3 19 L 2.3 19.7 L 1.7 19.7 Z M 2.7 25.1 C 2 25.1 1.5 24.9 1.2 24.5 C 0.8 24.1 0.6 23.6 0.6 22.9 C 0.62 22.95 0.6 20.1 0.6 20.1 L 1.2 20.1 C 1.2 20.1 1.17 22.91 1.2 22.9 C 1.2 23.4 1.3 23.8 1.6 24.1 C 1.8 24.4 2.2 24.6 2.7 24.6 C 3.1 24.6 3.5 24.4 3.8 24.2 C 4 23.9 4.1 23.5 4.1 22.9 C 4.14 22.95 4.1 20.1 4.1 20.1 L 4.7 20.1 C 4.7 20.1 4.7 22.91 4.7 22.9 C 4.7 23.6 4.5 24.1 4.1 24.5 C 3.8 24.9 3.3 25.1 2.7 25.1 Z M 5.9 25 L 5.9 21.4 L 6.5 21.4 C 6.5 21.4 6.45 22.33 6.5 22.3 C 6.6 22 6.8 21.8 7 21.6 C 7.3 21.4 7.6 21.3 7.9 21.3 C 7.93 21.32 7.9 21.9 7.9 21.9 C 7.9 21.9 7.89 21.9 7.9 21.9 C 7.5 21.9 7.1 22 6.9 22.3 C 6.6 22.6 6.5 23 6.5 23.6 C 6.45 23.56 6.5 25 6.5 25 L 5.9 25 Z M 10.6 20.8 L 10.6 20.2 L 11.2 20.2 L 11.2 20.8 L 10.6 20.8 Z M 9.3 20.8 L 9.3 20.2 L 10 20.2 L 10 20.8 L 9.3 20.8 Z M 11.3 24.4 C 11 24.8 10.6 25.1 10.1 25.1 C 9.7 25.1 9.3 24.9 9.1 24.7 C 8.8 24.4 8.7 24.1 8.7 23.6 C 8.69 23.63 8.7 21.4 8.7 21.4 L 9.2 21.4 C 9.2 21.4 9.23 23.49 9.2 23.5 C 9.2 23.8 9.3 24.1 9.5 24.3 C 9.7 24.5 9.9 24.6 10.2 24.6 C 10.5 24.6 10.8 24.5 11 24.3 C 11.2 24.1 11.3 23.8 11.3 23.5 C 11.32 23.45 11.3 21.4 11.3 21.4 L 11.9 21.4 L 11.9 25 L 11.3 25 L 11.3 24.4 C 11.3 24.4 11.32 24.37 11.3 24.4 Z M 13.1 25 L 13.1 21.4 L 13.6 21.4 C 13.6 21.4 13.6 22.01 13.6 22 C 13.9 21.5 14.3 21.3 14.8 21.3 C 15.3 21.3 15.6 21.4 15.9 21.7 C 16.1 22 16.2 22.3 16.2 22.8 C 16.23 22.75 16.2 25 16.2 25 L 15.7 25 C 15.7 25 15.69 22.89 15.7 22.9 C 15.7 22.5 15.6 22.3 15.4 22.1 C 15.2 21.9 15 21.8 14.7 21.8 C 14.4 21.8 14.1 21.9 13.9 22.1 C 13.7 22.3 13.6 22.6 13.6 22.9 C 13.6 22.93 13.6 25 13.6 25 L 13.1 25 Z M 19.6 25 L 19.6 20.1 L 20.1 20.1 L 20.1 23 L 22.9 20.1 L 23.7 20.1 L 21.5 22.2 L 23.7 25 L 23 25 L 21.2 22.6 L 20.1 23.7 L 20.1 25 L 19.6 25 Z M 25.9 25.1 C 25.4 25.1 25 24.9 24.6 24.5 C 24.3 24.2 24.1 23.7 24.1 23.2 C 24.1 23.2 24.1 23.2 24.1 23.2 C 24.1 22.7 24.3 22.2 24.6 21.9 C 25 21.5 25.4 21.3 26 21.3 C 26.5 21.3 26.9 21.5 27.3 21.9 C 27.7 22.2 27.8 22.7 27.8 23.2 C 27.8 23.2 27.8 23.2 27.8 23.2 C 27.8 23.7 27.7 24.2 27.3 24.5 C 26.9 24.9 26.5 25.1 25.9 25.1 Z M 26 24.6 C 26.3 24.6 26.7 24.5 26.9 24.2 C 27.2 23.9 27.3 23.6 27.3 23.2 C 27.3 23.2 27.3 23.2 27.3 23.2 C 27.3 22.8 27.2 22.5 26.9 22.2 C 26.6 21.9 26.3 21.8 25.9 21.8 C 25.6 21.8 25.3 21.9 25 22.2 C 24.8 22.5 24.6 22.8 24.6 23.2 C 24.6 23.2 24.6 23.2 24.6 23.2 C 24.6 23.6 24.8 23.9 25 24.2 C 25.3 24.5 25.6 24.6 26 24.6 Z M 31.7 24.3 C 31.4 24.8 30.9 25.1 30.3 25.1 C 29.9 25.1 29.5 24.9 29.1 24.6 C 28.8 24.2 28.6 23.8 28.6 23.2 C 28.6 23.2 28.6 23.2 28.6 23.2 C 28.6 22.6 28.8 22.2 29.1 21.8 C 29.5 21.5 29.9 21.3 30.3 21.3 C 30.9 21.3 31.4 21.6 31.7 22.1 C 31.72 22.07 31.7 19.9 31.7 19.9 L 32.3 19.9 L 32.3 25 L 31.7 25 L 31.7 24.3 C 31.7 24.3 31.72 24.27 31.7 24.3 Z M 30.4 24.6 C 30.8 24.6 31.1 24.5 31.4 24.2 C 31.6 23.9 31.7 23.6 31.7 23.2 C 31.7 23.2 31.7 23.2 31.7 23.2 C 31.7 22.8 31.6 22.4 31.4 22.2 C 31.1 21.9 30.8 21.8 30.4 21.8 C 30.1 21.8 29.8 21.9 29.5 22.2 C 29.3 22.4 29.2 22.8 29.2 23.2 C 29.2 23.2 29.2 23.2 29.2 23.2 C 29.2 23.6 29.3 24 29.5 24.2 C 29.8 24.5 30.1 24.6 30.4 24.6 Z M 36 24.4 C 35.7 24.8 35.3 25.1 34.8 25.1 C 34.4 25.1 34 24.9 33.8 24.7 C 33.5 24.4 33.4 24.1 33.4 23.6 C 33.41 23.63 33.4 21.4 33.4 21.4 L 34 21.4 C 34 21.4 33.95 23.49 34 23.5 C 34 23.8 34 24.1 34.2 24.3 C 34.4 24.5 34.6 24.6 35 24.6 C 35.3 24.6 35.5 24.5 35.7 24.3 C 35.9 24.1 36 23.8 36 23.5 C 36.04 23.45 36 21.4 36 21.4 L 36.6 21.4 L 36.6 25 L 36 25 L 36 24.4 C 36 24.4 36.04 24.37 36 24.4 Z M 37.7 22.1 L 37.7 21.4 L 38.4 21.4 L 38.4 22.1 L 37.7 22.1 Z M 37.7 25 L 37.7 24.3 L 38.4 24.3 L 38.4 25 L 37.7 25 Z M 42.3 25 L 42.3 21.2 L 41.4 21.4 L 41.2 20.5 L 42.6 20.1 L 43.4 20.1 L 43.4 25 L 42.3 25 Z M 44.4 25 L 44.4 24.1 C 44.4 24.1 45.98 22.81 46 22.8 C 46.3 22.5 46.5 22.3 46.6 22.2 C 46.8 22 46.8 21.8 46.8 21.6 C 46.8 21.4 46.8 21.3 46.7 21.2 C 46.5 21.1 46.4 21 46.2 21 C 46 21 45.8 21 45.7 21.1 C 45.5 21.2 45.4 21.4 45.2 21.7 C 45.2 21.7 44.4 21 44.4 21 C 44.7 20.7 44.9 20.4 45.2 20.3 C 45.5 20.1 45.8 20 46.2 20 C 46.7 20 47.2 20.2 47.5 20.4 C 47.8 20.7 47.9 21.1 47.9 21.5 C 47.9 21.5 47.9 21.6 47.9 21.6 C 47.9 21.9 47.8 22.3 47.6 22.5 C 47.5 22.8 47.1 23.1 46.6 23.5 C 46.64 23.45 45.8 24.1 45.8 24.1 L 48 24.1 L 48 25 L 44.4 25 Z M 48.9 25 L 51.1 21 L 48.8 21 L 48.8 20.1 L 52.3 20.1 L 52.3 20.9 L 50.1 25 L 48.9 25 Z M 54.6 25.1 C 53.9 25.1 53.3 24.8 52.8 24.3 C 52.8 24.3 53.4 23.6 53.4 23.6 C 53.8 23.9 54.2 24.1 54.6 24.1 C 54.9 24.1 55.1 24 55.2 23.9 C 55.4 23.8 55.4 23.6 55.4 23.4 C 55.4 23.4 55.4 23.4 55.4 23.4 C 55.4 23.2 55.4 23 55.2 22.9 C 55 22.8 54.8 22.7 54.6 22.7 C 54.3 22.7 54 22.8 53.7 22.9 C 53.75 22.93 53.1 22.5 53.1 22.5 L 53.3 20.1 L 56.3 20.1 L 56.3 21 L 54.2 21 C 54.2 21 54.13 21.89 54.1 21.9 C 54.4 21.8 54.6 21.8 54.8 21.8 C 55.3 21.8 55.7 21.9 56 22.2 C 56.3 22.5 56.5 22.9 56.5 23.4 C 56.5 23.4 56.5 23.4 56.5 23.4 C 56.5 23.9 56.3 24.3 56 24.6 C 55.6 24.9 55.2 25.1 54.6 25.1 Z M 59.7 25 L 59.7 23.9 L 57.3 23.9 L 57.1 23.2 L 59.8 20.1 L 60.7 20.1 L 60.7 23.1 L 61.4 23.1 L 61.4 23.9 L 60.7 23.9 L 60.7 25 L 59.7 25 Z M 58.4 23.1 L 59.7 23.1 L 59.7 21.5 L 58.4 23.1 Z " stroke="none" fill="#4f4f4e"/>  </g>  <g id="Polygon378271">    <path d="M 0.6 14 L 0.6 9.1 L 1.8 9.1 L 3 11.2 L 4.3 9.1 L 5.5 9.1 L 5.5 14 L 4.4 14 L 4.4 10.8 L 3 12.9 L 3 12.9 L 1.6 10.8 L 1.6 14 L 0.6 14 Z M 6.7 14 L 6.7 9.1 L 7.8 9.1 L 7.8 14 L 6.7 14 Z M 9 14 L 9 9.1 L 10.1 9.1 L 10.1 13 L 12.5 13 L 12.5 14 L 9 14 Z M 18.1 11.5 C 18.1 12.3 17.8 12.9 17.3 13.3 C 16.8 13.8 16.2 14.1 15.4 14.1 C 14.7 14.1 14.1 13.8 13.6 13.4 C 13.1 12.9 12.9 12.3 12.9 11.6 C 12.9 11.6 12.9 11.5 12.9 11.5 C 12.9 10.8 13.1 10.2 13.6 9.8 C 14.1 9.3 14.7 9 15.5 9 C 16.2 9 16.8 9.3 17.3 9.7 C 17.8 10.2 18.1 10.8 18.1 11.5 C 18.06 11.54 18.1 11.5 18.1 11.5 C 18.1 11.5 18.06 11.55 18.1 11.5 Z M 14 11.5 C 14 12 14.1 12.3 14.4 12.6 C 14.7 12.9 15 13.1 15.5 13.1 C 15.9 13.1 16.2 12.9 16.5 12.6 C 16.8 12.4 16.9 12 16.9 11.6 C 16.9 11.6 16.9 11.5 16.9 11.5 C 16.9 11.1 16.8 10.8 16.5 10.5 C 16.2 10.2 15.9 10 15.4 10 C 15 10 14.7 10.2 14.4 10.5 C 14.1 10.7 14 11.1 14 11.5 C 13.98 11.54 14 11.5 14 11.5 C 14 11.5 13.98 11.55 14 11.5 Z M 22.9 14.1 C 22.1 14.1 21.4 13.8 20.8 13.3 C 20.8 13.3 21.4 12.5 21.4 12.5 C 21.9 12.9 22.4 13.1 22.9 13.1 C 23.1 13.1 23.3 13.1 23.4 13 C 23.5 12.9 23.6 12.8 23.6 12.7 C 23.6 12.7 23.6 12.6 23.6 12.6 C 23.6 12.5 23.5 12.4 23.4 12.3 C 23.3 12.2 23 12.1 22.6 12 C 22.3 11.9 22.1 11.9 21.9 11.8 C 21.7 11.7 21.6 11.7 21.4 11.5 C 21.3 11.4 21.2 11.3 21.1 11.1 C 21 11 21 10.8 21 10.5 C 21 10.5 21 10.5 21 10.5 C 21 10.1 21.1 9.7 21.5 9.4 C 21.8 9.2 22.2 9 22.7 9 C 23.4 9 24 9.2 24.5 9.7 C 24.5 9.7 24 10.5 24 10.5 C 23.5 10.1 23.1 10 22.7 10 C 22.5 10 22.3 10 22.2 10.1 C 22.1 10.2 22 10.3 22 10.4 C 22 10.4 22 10.4 22 10.4 C 22 10.6 22.1 10.7 22.2 10.8 C 22.4 10.9 22.7 11 23.1 11.1 C 23.6 11.2 24 11.4 24.3 11.6 C 24.5 11.8 24.7 12.1 24.7 12.5 C 24.7 12.5 24.7 12.6 24.7 12.6 C 24.7 13 24.5 13.4 24.2 13.7 C 23.8 13.9 23.4 14.1 22.9 14.1 Z M 27.7 13.6 C 27.4 13.9 27 14.1 26.6 14.1 C 26.2 14.1 25.9 14 25.6 13.8 C 25.4 13.6 25.3 13.3 25.3 12.9 C 25.3 12.9 25.3 12.9 25.3 12.9 C 25.3 12.5 25.4 12.2 25.7 12 C 25.9 11.8 26.3 11.7 26.8 11.7 C 27.1 11.7 27.4 11.8 27.7 11.9 C 27.7 11.9 27.7 11.8 27.7 11.8 C 27.7 11.3 27.4 11.1 26.9 11.1 C 26.5 11.1 26.2 11.2 25.9 11.3 C 25.9 11.3 25.6 10.5 25.6 10.5 C 26.1 10.3 26.5 10.2 27 10.2 C 27.6 10.2 28 10.3 28.3 10.6 C 28.6 10.9 28.7 11.3 28.7 11.8 C 28.71 11.82 28.7 14 28.7 14 L 27.7 14 L 27.7 13.6 C 27.7 13.6 27.69 13.59 27.7 13.6 Z M 26.9 13.3 C 27.1 13.3 27.3 13.3 27.5 13.2 C 27.6 13 27.7 12.9 27.7 12.7 C 27.7 12.7 27.7 12.5 27.7 12.5 C 27.5 12.4 27.3 12.3 27 12.3 C 26.8 12.3 26.6 12.4 26.5 12.5 C 26.4 12.6 26.3 12.7 26.3 12.9 C 26.3 12.9 26.3 12.9 26.3 12.9 C 26.3 13 26.3 13.1 26.5 13.2 C 26.6 13.3 26.7 13.3 26.9 13.3 Z M 29.6 14 L 29.6 8.9 L 30.7 8.9 L 30.7 11.6 L 31.9 10.2 L 33.2 10.2 L 31.8 11.7 L 33.3 14 L 32 14 L 31.1 12.5 L 30.7 12.9 L 30.7 14 L 29.6 14 Z M 33.8 14 L 33.8 8.9 L 34.9 8.9 L 34.9 14 L 33.8 14 Z M 38.1 13.6 C 37.8 13.9 37.4 14.1 37 14.1 C 36.6 14.1 36.3 14 36 13.8 C 35.8 13.6 35.7 13.3 35.7 12.9 C 35.7 12.9 35.7 12.9 35.7 12.9 C 35.7 12.5 35.8 12.2 36.1 12 C 36.3 11.8 36.7 11.7 37.2 11.7 C 37.5 11.7 37.8 11.8 38.1 11.9 C 38.1 11.9 38.1 11.8 38.1 11.8 C 38.1 11.3 37.8 11.1 37.3 11.1 C 36.9 11.1 36.6 11.2 36.3 11.3 C 36.3 11.3 36 10.5 36 10.5 C 36.5 10.3 36.9 10.2 37.4 10.2 C 38 10.2 38.4 10.3 38.7 10.6 C 39 10.9 39.1 11.3 39.1 11.8 C 39.12 11.82 39.1 14 39.1 14 L 38.1 14 L 38.1 13.6 C 38.1 13.6 38.09 13.59 38.1 13.6 Z M 37.3 13.3 C 37.5 13.3 37.7 13.3 37.9 13.2 C 38 13 38.1 12.9 38.1 12.7 C 38.1 12.7 38.1 12.5 38.1 12.5 C 37.9 12.4 37.7 12.3 37.4 12.3 C 37.2 12.3 37 12.4 36.9 12.5 C 36.8 12.6 36.7 12.7 36.7 12.9 C 36.7 12.9 36.7 12.9 36.7 12.9 C 36.7 13 36.7 13.1 36.9 13.2 C 37 13.3 37.1 13.3 37.3 13.3 Z M 40 14 L 40 10.2 L 41.1 10.2 C 41.1 10.2 41.1 10.78 41.1 10.8 C 41.4 10.4 41.8 10.2 42.2 10.2 C 42.7 10.2 43.1 10.4 43.3 10.8 C 43.6 10.4 44 10.2 44.5 10.2 C 44.9 10.2 45.2 10.3 45.4 10.5 C 45.6 10.8 45.8 11.1 45.8 11.6 C 45.76 11.56 45.8 14 45.8 14 L 44.7 14 C 44.7 14 44.69 11.91 44.7 11.9 C 44.7 11.4 44.5 11.1 44.1 11.1 C 43.9 11.1 43.7 11.2 43.6 11.3 C 43.5 11.5 43.4 11.7 43.4 11.9 C 43.43 11.91 43.4 14 43.4 14 L 42.4 14 C 42.4 14 42.36 11.91 42.4 11.9 C 42.4 11.4 42.2 11.1 41.7 11.1 C 41.5 11.1 41.4 11.2 41.3 11.3 C 41.2 11.5 41.1 11.7 41.1 11.9 C 41.1 11.91 41.1 14 41.1 14 L 40 14 Z M 48.9 13.6 C 48.6 13.9 48.2 14.1 47.7 14.1 C 47.4 14.1 47.1 14 46.8 13.8 C 46.6 13.6 46.5 13.3 46.5 12.9 C 46.5 12.9 46.5 12.9 46.5 12.9 C 46.5 12.5 46.6 12.2 46.9 12 C 47.1 11.8 47.5 11.7 48 11.7 C 48.3 11.7 48.6 11.8 48.9 11.9 C 48.9 11.9 48.9 11.8 48.9 11.8 C 48.9 11.3 48.6 11.1 48.1 11.1 C 47.7 11.1 47.4 11.2 47 11.3 C 47 11.3 46.8 10.5 46.8 10.5 C 47.3 10.3 47.7 10.2 48.2 10.2 C 48.8 10.2 49.2 10.3 49.5 10.6 C 49.8 10.9 49.9 11.3 49.9 11.8 C 49.91 11.82 49.9 14 49.9 14 L 48.9 14 L 48.9 13.6 C 48.9 13.6 48.88 13.59 48.9 13.6 Z M 48.1 13.3 C 48.3 13.3 48.5 13.3 48.7 13.2 C 48.8 13 48.9 12.9 48.9 12.7 C 48.9 12.7 48.9 12.5 48.9 12.5 C 48.7 12.4 48.5 12.3 48.2 12.3 C 48 12.3 47.8 12.4 47.7 12.5 C 47.6 12.6 47.5 12.7 47.5 12.9 C 47.5 12.9 47.5 12.9 47.5 12.9 C 47.5 13 47.5 13.1 47.6 13.2 C 47.8 13.3 47.9 13.3 48.1 13.3 Z M 53 14 L 53 9.1 L 54.1 9.1 L 54.1 11.2 L 56.1 9.1 L 57.4 9.1 L 55.4 11.2 L 57.5 14 L 56.2 14 L 54.7 11.9 L 54.1 12.5 L 54.1 14 L 53 14 Z M 60.2 13.6 C 59.9 13.9 59.5 14.1 59 14.1 C 58.7 14.1 58.4 14 58.1 13.8 C 57.9 13.6 57.7 13.3 57.7 12.9 C 57.7 12.9 57.7 12.9 57.7 12.9 C 57.7 12.5 57.9 12.2 58.2 12 C 58.4 11.8 58.8 11.7 59.3 11.7 C 59.6 11.7 59.9 11.8 60.2 11.9 C 60.2 11.9 60.2 11.8 60.2 11.8 C 60.2 11.3 59.9 11.1 59.4 11.1 C 59 11.1 58.7 11.2 58.3 11.3 C 58.3 11.3 58.1 10.5 58.1 10.5 C 58.5 10.3 59 10.2 59.5 10.2 C 60.1 10.2 60.5 10.3 60.8 10.6 C 61.1 10.9 61.2 11.3 61.2 11.8 C 61.19 11.82 61.2 14 61.2 14 L 60.2 14 L 60.2 13.6 C 60.2 13.6 60.17 13.59 60.2 13.6 Z M 59.4 13.3 C 59.6 13.3 59.8 13.3 60 13.2 C 60.1 13 60.2 12.9 60.2 12.7 C 60.2 12.7 60.2 12.5 60.2 12.5 C 60 12.4 59.7 12.3 59.5 12.3 C 59.3 12.3 59.1 12.4 59 12.5 C 58.8 12.6 58.8 12.7 58.8 12.9 C 58.8 12.9 58.8 12.9 58.8 12.9 C 58.8 13 58.8 13.1 58.9 13.2 C 59 13.3 59.2 13.3 59.4 13.3 Z M 64.3 14.1 C 63.9 14.1 63.5 13.9 63.2 13.5 C 63.18 13.51 63.2 14 63.2 14 L 62.1 14 L 62.1 8.9 L 63.2 8.9 C 63.2 8.9 63.18 10.79 63.2 10.8 C 63.5 10.4 63.9 10.2 64.3 10.2 C 64.8 10.2 65.2 10.4 65.5 10.7 C 65.9 11 66.1 11.5 66.1 12.1 C 66.1 12.1 66.1 12.1 66.1 12.1 C 66.1 12.7 65.9 13.2 65.6 13.5 C 65.2 13.9 64.8 14.1 64.3 14.1 Z M 63.2 12.1 C 63.2 12.4 63.2 12.7 63.4 12.9 C 63.6 13.1 63.8 13.2 64.1 13.2 C 64.3 13.2 64.5 13.1 64.7 12.9 C 64.9 12.7 65 12.4 65 12.1 C 65 12.1 65 12.1 65 12.1 C 65 11.8 64.9 11.6 64.7 11.4 C 64.5 11.2 64.3 11.1 64.1 11.1 C 63.8 11.1 63.6 11.2 63.4 11.4 C 63.2 11.6 63.2 11.8 63.2 12.1 C 63.16 12.12 63.2 12.1 63.2 12.1 C 63.2 12.1 63.16 12.13 63.2 12.1 Z M 66.9 14 L 66.9 10.2 L 67.9 10.2 L 67.9 14 L 66.9 14 Z M 70.9 12.3 L 70.9 11.3 L 73.9 11.3 L 73.9 12.3 L 70.9 12.3 Z M 77.6 14 L 77.6 10.2 L 76.8 10.4 L 76.5 9.5 L 77.9 9.1 L 78.7 9.1 L 78.7 14 L 77.6 14 Z M 79.8 14 L 79.8 12.9 L 80.9 12.9 L 80.9 14 L 79.8 14 Z M 83.5 14.1 C 82.8 14.1 82.1 13.8 81.6 13.3 C 81.6 13.3 82.3 12.6 82.3 12.6 C 82.7 12.9 83.1 13.1 83.4 13.1 C 83.7 13.1 83.9 13 84 12.9 C 84.2 12.8 84.3 12.6 84.3 12.4 C 84.3 12.4 84.3 12.4 84.3 12.4 C 84.3 12.2 84.2 12 84 11.9 C 83.9 11.8 83.7 11.7 83.4 11.7 C 83.1 11.7 82.8 11.8 82.6 11.9 C 82.58 11.93 82 11.5 82 11.5 L 82.1 9.1 L 85.1 9.1 L 85.1 10 L 83 10 C 83 10 82.96 10.89 83 10.9 C 83.2 10.8 83.4 10.8 83.6 10.8 C 84.1 10.8 84.5 10.9 84.8 11.2 C 85.2 11.5 85.3 11.9 85.3 12.4 C 85.3 12.4 85.3 12.4 85.3 12.4 C 85.3 12.9 85.2 13.3 84.8 13.6 C 84.5 13.9 84 14.1 83.5 14.1 Z M 88.3 14.1 C 87.6 14.1 87.1 13.8 86.7 13.4 C 86.3 12.9 86.1 12.3 86.1 11.6 C 86.1 11.6 86.1 11.5 86.1 11.5 C 86.1 10.8 86.3 10.2 86.7 9.7 C 87.1 9.3 87.7 9 88.3 9 C 88.9 9 89.5 9.3 89.9 9.7 C 90.3 10.2 90.5 10.8 90.5 11.5 C 90.5 11.5 90.5 11.5 90.5 11.5 C 90.5 12.3 90.3 12.9 89.9 13.4 C 89.5 13.8 88.9 14.1 88.3 14.1 Z M 87.2 11.5 C 87.2 12 87.3 12.4 87.5 12.7 C 87.7 13 88 13.1 88.3 13.1 C 88.6 13.1 88.9 13 89.1 12.7 C 89.3 12.4 89.4 12 89.4 11.6 C 89.4 11.6 89.4 11.5 89.4 11.5 C 89.4 11.1 89.3 10.7 89.1 10.4 C 88.9 10.1 88.6 10 88.3 10 C 88 10 87.7 10.1 87.5 10.4 C 87.3 10.7 87.2 11.1 87.2 11.5 C 87.22 11.54 87.2 11.5 87.2 11.5 C 87.2 11.5 87.22 11.55 87.2 11.5 Z M 93.4 14.1 C 92.7 14.1 92.2 13.8 91.8 13.4 C 91.4 12.9 91.2 12.3 91.2 11.6 C 91.2 11.6 91.2 11.5 91.2 11.5 C 91.2 10.8 91.4 10.2 91.8 9.7 C 92.2 9.3 92.8 9 93.4 9 C 94 9 94.6 9.3 95 9.7 C 95.4 10.2 95.6 10.8 95.6 11.5 C 95.6 11.5 95.6 11.5 95.6 11.5 C 95.6 12.3 95.4 12.9 95 13.4 C 94.6 13.8 94 14.1 93.4 14.1 Z M 92.3 11.5 C 92.3 12 92.4 12.4 92.6 12.7 C 92.8 13 93.1 13.1 93.4 13.1 C 93.7 13.1 94 13 94.2 12.7 C 94.4 12.4 94.5 12 94.5 11.6 C 94.5 11.6 94.5 11.5 94.5 11.5 C 94.5 11.1 94.4 10.7 94.2 10.4 C 94 10.1 93.7 10 93.4 10 C 93.1 10 92.8 10.1 92.6 10.4 C 92.4 10.7 92.3 11.1 92.3 11.5 C 92.33 11.54 92.3 11.5 92.3 11.5 C 92.3 11.5 92.33 11.55 92.3 11.5 Z M 98.5 14 L 98.5 10.2 L 99.6 10.2 C 99.6 10.2 99.6 10.78 99.6 10.8 C 99.9 10.4 100.3 10.2 100.7 10.2 C 101.2 10.2 101.6 10.4 101.8 10.8 C 102.1 10.4 102.5 10.2 103 10.2 C 103.4 10.2 103.7 10.3 103.9 10.5 C 104.1 10.8 104.3 11.1 104.3 11.6 C 104.26 11.56 104.3 14 104.3 14 L 103.2 14 C 103.2 14 103.19 11.91 103.2 11.9 C 103.2 11.4 103 11.1 102.6 11.1 C 102.4 11.1 102.2 11.2 102.1 11.3 C 102 11.5 101.9 11.7 101.9 11.9 C 101.93 11.91 101.9 14 101.9 14 L 100.9 14 C 100.9 14 100.86 11.91 100.9 11.9 C 100.9 11.4 100.7 11.1 100.2 11.1 C 100 11.1 99.9 11.2 99.8 11.3 C 99.7 11.5 99.6 11.7 99.6 11.9 C 99.6 11.91 99.6 14 99.6 14 L 98.5 14 Z M 105.2 14 L 105.2 8.9 L 106.3 8.9 L 106.3 14 L 105.2 14 Z " stroke="none" fill="#4f4f4e"/>  </g></svg>