<?xml version="1.0" standalone="no"?><!DOCTYPE svg PUBLIC "-//W3C//DTD SVG 1.1//EN" "http://www.w3.org/Graphics/SVG/1.1/DTD/svg11.dtd"><svg xmlns="http://www.w3.org/2000/svg" version="1.1" width="211.2px" height="105.4px" viewBox="0 -3 211.2 105.4" style="top:-3px"><desc>5’i 1 Arada A acak APERTO r n Kodu: 12830 27–31 mm vidal kapaklar, mantar kapaklar, cam kapaklar, i ecek kutular ...</desc><defs/><g id="Polygon400378"><path d="m.7 75.6v-4.9h.6L3 73.4l1.8-2.7h.6v4.9h-.6v-4L3 74.3l-1.8-2.7v4h-.5zm8.4-.5c-.4.4-.8.6-1.3.6c-.4 0-.7-.1-1-.3c-.3-.2-.4-.5-.4-.9c0-.3.1-.6.4-.8c.3-.2.7-.3 1.2-.3c.3 0 .7 0 1.1.1v-.1c0-.3-.1-.6-.3-.7c-.2-.2-.5-.3-.8-.3c-.4 0-.7.1-1.1.3l-.2-.5c.5-.2.9-.3 1.3-.3c.6 0 .9.2 1.2.4c.3.3.4.6.4 1.1c-.02-.01 0 2.2 0 2.2h-.5v-.5s-.04-.05 0 0zm-1.2.1c.3 0 .6 0 .8-.2c.3-.2.4-.4.4-.7v-.4c-.4-.1-.7-.1-1.1-.1c-.3 0-.6 0-.8.2c-.2.1-.2.3-.2.5c0 .2 0 .4.2.6c.2.1.4.1.7.1zm2.9.4v-5.1h.5v5.1h-.5zm1.6 0v-.3l2.4-2.9h-2.4v-.4h3.1v.3l-2.4 2.8h2.4v.5h-3.1zm7-.6c-.4.5-.9.7-1.5.7c-.5 0-.9-.2-1.2-.5c-.4-.4-.6-.8-.6-1.4c0-.5.2-1 .5-1.4c.4-.3.8-.5 1.3-.5c.5 0 .9.2 1.2.5c.3.4.5.9.5 1.4v.2h-2.9c0 .4.2.7.4.9c.2.2.5.3.9.3c.4 0 .8-.2 1.1-.5l.3.3s.03 0 0 0zm-2.7-1.4h2.3c0-.4-.1-.7-.3-.9c-.2-.2-.5-.3-.8-.3c-.4 0-.6.1-.8.3c-.3.2-.4.5-.4.9zm3.8 2V72h.5s.04.59 0 .6c.2-.2.3-.4.5-.5c.2-.1.4-.2.7-.2c.6 0 .9.2 1.2.7c.3-.5.7-.7 1.2-.7c.5 0 .8.1 1 .4c.3.3.4.6.4 1.1c-.01-.04 0 2.2 0 2.2h-.5s-.05-2.11 0-2.1c0-.4-.1-.6-.3-.8c-.2-.2-.4-.3-.7-.3c-.3 0-.5.1-.7.3c-.2.2-.3.5-.3.8v2.1h-.5s-.02-2.13 0-2.1c0-.4-.1-.6-.3-.8c-.1-.2-.4-.3-.7-.3c-.2 0-.5.1-.7.3c-.2.2-.3.5-.3.8c.04.03 0 2.1 0 2.1h-.5zm9.7-.6c-.4.5-.9.7-1.5.7c-.5 0-.9-.2-1.3-.5c-.3-.4-.5-.8-.5-1.4c0-.5.2-1 .5-1.4c.3-.3.8-.5 1.3-.5c.5 0 .9.2 1.2.5c.3.4.4.9.4 1.4v.2h-2.8c0 .4.1.7.4.9c.2.2.5.3.8.3c.5 0 .8-.2 1.2-.5c-.02 0 .3.3.3.3c0 0 .01 0 0 0zm-2.7-1.4h2.3c0-.4-.1-.7-.3-.9c-.2-.2-.5-.3-.9-.3c-.3 0-.5.1-.8.3c-.2.2-.3.5-.3.9zm3.7-.9v-.7h.7v.7h-.7zm0 2.9v-.7h.7v.7h-.7zm4 1.1V72h.5v.7c.4-.5.8-.8 1.4-.8c.4 0 .9.2 1.2.5c.3.4.5.8.5 1.4c0 .6-.2 1-.5 1.4c-.3.3-.8.5-1.2.5c-.6 0-1.1-.3-1.4-.8v1.8h-.5zm1.8-1.5c.4 0 .7-.1.9-.4c.2-.2.4-.6.4-1c0-.4-.2-.8-.4-1c-.3-.3-.6-.4-.9-.4c-.4 0-.7.1-.9.4c-.3.3-.4.6-.4 1c0 .4.1.7.4 1c.2.3.5.4.9.4zm2.9.4v-5.1h.5v5.1h-.5zm4.1-.5c-.3.4-.7.6-1.3.6c-.3 0-.7-.1-.9-.3c-.3-.2-.4-.5-.4-.9c0-.3.1-.6.4-.8c.3-.2.7-.3 1.1-.3c.4 0 .8 0 1.1.1v-.1c0-.3-.1-.6-.2-.7c-.2-.2-.5-.3-.8-.3c-.4 0-.8.1-1.1.3l-.2-.5c.4-.2.9-.3 1.3-.3c.5 0 .9.2 1.2.4c.2.3.4.6.4 1.1c-.05-.01 0 2.2 0 2.2h-.6v-.5s.04-.05 0 0zm-1.2.1c.4 0 .7 0 .9-.2c.2-.2.3-.4.3-.7v-.4c-.3-.1-.7-.1-1-.1c-.4 0-.6 0-.8.2c-.2.1-.3.3-.3.5c0 .2.1.4.3.6c.2.1.4.1.6.1zm4.1.5c-.6 0-1.1-.2-1.5-.6l.3-.3c.4.3.8.4 1.2.4c.3 0 .4 0 .6-.1c.1-.1.2-.3.2-.5c0-.1-.1-.3-.3-.4c-.1 0-.3-.1-.6-.2c-.2 0-.3-.1-.3-.1c-.1 0-.2-.1-.3-.1c-.1 0-.2-.1-.2-.1c-.1-.1-.2-.1-.2-.2l-.2-.2v-.3c0-.4.1-.6.3-.8c.3-.2.5-.3.9-.3c.5 0 .9.2 1.3.4l-.2.4c-.4-.2-.8-.3-1.1-.3c-.2 0-.4 0-.5.1c-.1.1-.2.2-.2.4c0 .1 0 .1.1.2s0 .1.1.1c0 .1.1.1.2.2h.2c.1.1.2.1.3.1c.2.1.3.1.4.1c.1.1.2.1.3.2c.1 0 .2.1.2.2c.1 0 .2.1.2.2c.1.1.1.2.1.4c0 .3-.1.6-.4.8c-.2.2-.5.3-.9.3zm4.1-.2c-.2.1-.4.2-.7.2c-.3 0-.5-.1-.7-.3c-.2-.2-.3-.4-.3-.8v-2.1h-.5v-.5h.5v-1.1h.5v1.1h1.2v.5h-1.2s.05 2.07 0 2.1c0 .4.2.6.7.6c.1 0 .3-.1.5-.2c-.02.05 0 .5 0 .5c0 0-.02.01 0 0zm1-4.3v-.6h.6v.6h-.6zm0 4.4V72h.5v3.6h-.5zm1.8 0v-5.1h.5v3.5l2-2h.7l-1.6 1.5l1.6 2.1h-.6l-1.3-1.7l-.8.8v.9h-.5z" stroke="none" fill="#000"/></g><g id="Polygon400377"><path d="m3.3 60.2v-.6h.7v.6h-.7zm-1.3 0v-.6h.6v.6h-.6zm3.5 2.9c0 .7-.3 1.3-.7 1.8c-.5.5-1.1.8-1.8.8c-.8 0-1.4-.3-1.8-.8c-.5-.4-.7-1-.7-1.7v-.1c0-.6.2-1.2.7-1.7c.5-.5 1.1-.8 1.8-.8c.7 0 1.3.3 1.8.8c.4.4.7 1 .7 1.7c-.03.04 0 0 0 0c0 0-.03.05 0 0zm-4.4 0c0 .6.1 1.1.5 1.5c.4.4.8.6 1.4.6c.5 0 1-.2 1.4-.6c.3-.4.5-.9.5-1.4v-.1c0-.5-.2-1-.5-1.4c-.4-.4-.9-.6-1.4-.6c-.6 0-1 .2-1.4.6c-.4.4-.5.9-.5 1.4c-.05.04 0 0 0 0c0 0-.05.05 0 0zm5.5 2.5v-5.1h.5v5.1h-.5zm3.1 1.1l-.6-.3s.59-.75.6-.8c-.5 0-.8-.2-1.1-.6c-.3-.3-.4-.7-.4-1.2c0-.5.1-1 .5-1.3c.4-.4.8-.6 1.3-.6c.6 0 1.1.2 1.5.6l-.4.4c-.3-.3-.7-.5-1.1-.5c-.4 0-.7.1-.9.4c-.3.3-.4.6-.4 1c0 .4.1.7.4 1c.3.3.6.4 1 .4c.4 0 .7-.2 1.1-.5l.3.3c-.4.4-.8.7-1.4.7c.03-.02-.4 1-.4 1zm4.5-5.3v-.6h.6v.6h-.6zm-1.2 0v-.6h.6v.6h-.6zm1.9 3.6c-.3.4-.7.7-1.2.7c-.4 0-.8-.2-1-.4c-.3-.3-.4-.6-.4-1.1c.01.03 0-2.2 0-2.2h.5s.04 2.09 0 2.1c0 .3.1.6.3.8c.2.2.4.3.7.3c.4 0 .6-.1.8-.3c.2-.2.3-.5.3-.8c.03-.05 0-2.1 0-2.1h.6v3.6h-.6v-.6s.03-.03 0 0zm1.8.6v-5.1h.6v5.1h-.6zm4.9-.6c-.4.5-.9.7-1.5.7c-.5 0-.9-.2-1.3-.5c-.3-.4-.5-.8-.5-1.4c0-.5.2-1 .5-1.4c.3-.3.7-.5 1.2-.5c.5 0 1 .2 1.3.5c.3.4.4.9.4 1.4v.2h-2.9c.1.4.2.7.5.9c.2.2.5.3.8.3c.4 0 .8-.2 1.2-.5c-.05 0 .3.3.3.3c0 0-.01 0 0 0zm-2.8-1.4h2.4c-.1-.4-.2-.7-.4-.9c-.2-.2-.4-.3-.8-.3c-.3 0-.6.1-.8.3c-.2.2-.3.5-.4.9zm3.9 2V62h.5v.9c.1-.3.3-.5.6-.7c.2-.2.5-.3.9-.3c-.03.02 0 .6 0 .6h-.1c-.4 0-.7.1-1 .4c-.3.3-.4.7-.4 1.3v1.4h-.5zm2.8-2.9v-.7h.6v.7h-.6zm0 2.9v-.7h.6v.7h-.6zm4 0v-4.9h.5v4.4h2.8v.5h-3.3zm7.8.1c-.7 0-1.2-.3-1.8-.8l.4-.4c.5.5.9.7 1.4.7c.3 0 .6-.1.9-.3c.2-.2.3-.5.3-.8c0-.3-.1-.6-.4-.8c-.2-.2-.5-.2-.8-.2c-.4 0-.7 0-1.1.2l-.3-.2l.1-2.4h2.8v.5h-2.3s-.11 1.58-.1 1.6c.3-.2.6-.2 1-.2c.4 0 .8.1 1.2.4c.3.2.4.6.4 1.1c0 .4-.1.8-.4 1.1c-.4.3-.8.5-1.3.5zm2.6.8l-.1-.3c.3-.1.5-.3.4-.6h-.2v-.7h.6s.04.59 0 .6c0 .3 0 .5-.1.6c-.2.2-.4.3-.6.4zm2.1-.9l2.2-4.4h-2.7v-.5h3.3v.4l-2.2 4.5h-.6zm9-.6c-.4.5-.9.7-1.5.7c-.5 0-.9-.2-1.3-.6c-.3-.3-.5-.8-.5-1.3c0-.5.2-1 .5-1.3c.4-.4.8-.6 1.3-.6c.6 0 1.1.2 1.5.6l-.4.4c-.3-.3-.7-.5-1.1-.5c-.3 0-.6.1-.9.4c-.2.3-.4.6-.4 1c0 .4.2.7.4 1c.3.3.6.4 1 .4c.4 0 .7-.2 1.1-.5l.3.3s.02-.02 0 0zm.9.6V62h.5s.04.59 0 .6c.2-.2.3-.4.5-.5c.2-.1.4-.2.7-.2c.6 0 .9.2 1.2.7c.3-.5.7-.7 1.2-.7c.5 0 .8.1 1 .4c.3.3.4.6.4 1.1c-.01-.04 0 2.2 0 2.2h-.5s-.05-2.11 0-2.1c0-.4-.1-.6-.3-.8c-.2-.2-.4-.3-.7-.3c-.3 0-.5.1-.7.3c-.2.2-.3.5-.3.8v2.1h-.5s-.02-2.13 0-2.1c0-.4-.1-.6-.3-.8c-.1-.2-.4-.3-.6-.3c-.3 0-.6.1-.8.3c-.2.2-.3.5-.3.8c.04.03 0 2.1 0 2.1h-.5zm6.4.9v-.3c.3-.1.5-.3.4-.6h-.2v-.7h.6s.02.59 0 .6c0 .3 0 .5-.2.6c-.1.2-.3.3-.6.4zm5.5-.9l-1.7-4.9h.6l1.4 4.1l1.3-4.1h.5l1.3 4.1l1.4-4.1h.6l-1.8 4.9h-.4l-1.4-3.9l-1.3 3.9h-.5zm8.1 0v-.4s1.82-1.6 1.8-1.6c.4-.3.7-.6.8-.8c.2-.3.2-.5.2-.7c0-.3-.1-.5-.2-.7c-.2-.2-.5-.3-.7-.3c-.3 0-.6.1-.8.2c-.2.2-.4.4-.6.7l-.4-.3c.3-.4.5-.7.8-.8c.2-.2.6-.3 1-.3c.4 0 .8.2 1.1.4c.3.3.4.6.4 1c0 .4-.1.7-.3.9c-.1.3-.5.6-.9 1l-1.3 1.2h2.6v.5h-3.5zm4.3.9l-.1-.3c.4-.1.5-.3.5-.6h-.3v-.7h.7s-.02.59 0 .6c0 .3-.1.5-.2.6c-.1.2-.3.3-.6.4zm5.4-2.2c0 .4-.2.7-.6 1c-.3.2-.8.4-1.3.4c-.5 0-1-.2-1.3-.4c-.4-.3-.5-.6-.5-1c0-.3.1-.6.2-.8c.2-.2.5-.3.8-.4c-.6-.3-.9-.7-.9-1.2c0-.3.2-.7.5-.9c.4-.2.8-.4 1.2-.4c.5 0 .9.2 1.2.4c.3.2.5.6.5.9c0 .5-.3.9-.9 1.2c.4.1.6.2.8.4c.2.2.3.5.3.8c-.04-.04 0 0 0 0c0 0-.04-.02 0 0zm-3-2.3c0 .2.1.4.3.6c.2.2.5.3.8.3c.3 0 .6-.1.8-.3c.2-.2.3-.4.3-.6c0-.3-.1-.5-.3-.6c-.2-.2-.5-.3-.8-.3c-.3 0-.6.1-.8.3c-.2.1-.3.3-.3.6c0-.04 0 0 0 0c0 0 0-.03 0 0zm-.2 2.3c0 .2.1.4.4.6c.2.2.5.3.9.3c.4 0 .7-.1.9-.3c.3-.2.4-.4.4-.6c0-.3-.1-.5-.4-.7c-.2-.2-.5-.3-.9-.3c-.3 0-.6.1-.9.3c-.2.2-.4.4-.4.7c.03-.04 0 0 0 0c0 0 .03-.03 0 0zm9.3.7c-.4.5-.9.7-1.4.7c-.6 0-1-.2-1.4-.6c-.3-.3-.5-.8-.5-1.3c0-.5.2-1 .5-1.3c.4-.4.8-.6 1.4-.6c.5 0 1 .2 1.4.6l-.4.4c-.3-.3-.7-.5-1.1-.5c-.3 0-.6.1-.9.4c-.2.3-.3.6-.3 1c0 .4.1.7.3 1c.3.3.6.4 1 .4c.4 0 .8-.2 1.1-.5c-.01-.04.3.3.3.3c0 0 .03-.02 0 0zm.9.6V62h.6s-.04.59 0 .6c.1-.2.3-.4.4-.5c.2-.1.4-.2.7-.2c.6 0 1 .2 1.2.7c.3-.5.7-.7 1.3-.7c.4 0 .7.1.9.4c.3.3.4.6.4 1.1c.01-.04 0 2.2 0 2.2h-.5s-.03-2.11 0-2.1c0-.4-.1-.6-.3-.8c-.1-.2-.4-.3-.7-.3c-.3 0-.5.1-.7.3c-.2.2-.3.5-.3.8c.03.01 0 2.1 0 2.1h-.5v-2.1c0-.4-.1-.6-.3-.8c-.1-.2-.3-.3-.6-.3c-.3 0-.6.1-.8.3c-.1.2-.2.5-.2.8c-.04.03 0 2.1 0 2.1h-.6zm6.5.9l-.1-.3c.3-.1.5-.3.4-.6h-.2v-.7h.6s.04.59 0 .6c0 .3 0 .5-.1.6c-.2.2-.4.3-.6.4zm4.1-.9v-4.9h.5v2.2h2.8v-2.2h.6v4.9h-.6v-2.2h-2.8v2.2h-.5zm7.9 0v-4.4l-.9.3l-.1-.4l1.2-.4h.4v4.9h-.6zm4.3 0v-1.2h-2.6l-.1-.4l2.8-3.3h.4v3.3h.8v.4h-.8v1.2h-.5zm-2-1.6h2v-2.6l-2 2.6zm4.1 2.5l-.1-.3c.4-.1.5-.3.5-.6h-.3v-.7h.7s-.03.59 0 .6c0 .3-.1.5-.2.6c-.1.2-.3.3-.6.4zm3.6-.8c-.5 0-.9-.2-1.3-.5c-.2-.2-.3-.5-.4-.8c-.1-.3-.2-.6-.2-1.1c0-.8.2-1.4.6-1.9c.3-.5.8-.8 1.5-.8c.5 0 1 .2 1.4.6l-.3.4c-.4-.3-.8-.5-1.2-.5c-.4 0-.8.2-1 .6c-.3.4-.4.9-.4 1.5v.1c.3-.5.8-.8 1.4-.8c.5 0 .9.2 1.2.5c.3.2.5.6.5 1v.1c0 .4-.2.8-.5 1.1c-.3.3-.8.5-1.3.5zm0-.5c.4 0 .7-.1.9-.3c.2-.2.3-.5.3-.8c0-.3-.1-.6-.3-.8c-.2-.2-.5-.3-.9-.3c-.3 0-.6.1-.8.3c-.3.3-.4.5-.4.8c0 .3.1.6.4.8c.2.2.5.3.8.3zm8-.2c-.4.5-.9.7-1.4.7c-.6 0-1-.2-1.4-.6c-.3-.3-.5-.8-.5-1.3c0-.5.2-1 .5-1.3c.4-.4.8-.6 1.4-.6c.5 0 1 .2 1.4.6l-.3.4c-.4-.3-.8-.5-1.1-.5c-.4 0-.7.1-1 .4c-.2.3-.3.6-.3 1c0 .4.1.7.3 1c.3.3.6.4 1 .4c.4 0 .8-.2 1.1-.5c0-.04.3.3.3.3c0 0 .04-.02 0 0zm.9.6V62h.6s-.03.59 0 .6c.1-.2.3-.4.5-.5c.1-.1.4-.2.6-.2c.6 0 1 .2 1.2.7c.3-.5.7-.7 1.3-.7c.4 0 .7.1 1 .4c.2.3.3.6.3 1.1c.02-.04 0 2.2 0 2.2h-.5s-.02-2.11 0-2.1c0-.4-.1-.6-.3-.8c-.1-.2-.4-.3-.7-.3c-.2 0-.5.1-.7.3c-.2.2-.3.5-.3.8c.04.01 0 2.1 0 2.1h-.5v-2.1c0-.4-.1-.6-.2-.8c-.2-.2-.4-.3-.7-.3c-.3 0-.5.1-.7.3c-.2.2-.3.5-.3.8c-.03.03 0 2.1 0 2.1h-.6z" stroke="none" fill="#000"/></g><g id="Polygon400376"><path d="m2.6 56.7l-.5-.3s.5-.74.5-.7c-.6-.1-1.1-.4-1.5-.9c-.4-.4-.6-1-.6-1.6v-.1c0-.7.2-1.3.7-1.7c.5-.5 1-.8 1.8-.8c.4 0 .7.1 1 .2c.3.1.6.3.9.6l-.4.4c-.2-.2-.5-.4-.7-.5c-.3-.1-.5-.2-.9-.2c-.5 0-.9.2-1.3.6c-.4.4-.5.9-.5 1.4c0 .6.1 1.1.5 1.5c.4.4.8.6 1.3.6c.4 0 .6-.1.9-.2c.2-.1.5-.3.7-.5l.4.3c-.5.6-1.2.9-1.9.9c.05-.02-.4 1-.4 1zm4.8-1c-.6 0-1-.2-1.4-.6c-.3-.3-.5-.8-.5-1.3c0-.5.2-1 .5-1.3c.4-.4.9-.6 1.4-.6c.5 0 1 .2 1.3.6c.4.3.6.8.6 1.3c0 .5-.2 1-.6 1.3c-.3.4-.8.6-1.3.6zm0-.5c.4 0 .7-.1.9-.4c.3-.3.4-.6.4-1c0-.4-.1-.7-.4-1c-.2-.3-.5-.4-.9-.4c-.4 0-.7.1-1 .4c-.2.3-.3.6-.3 1c0 .4.1.7.3 1c.3.3.6.4 1 .4zm2.8.4v-5.1h.6v3.5l1.9-2h.7l-1.5 1.5l1.6 2.1h-.7l-1.3-1.7l-.7.8v.9h-.6zm8.5-.5c-.3.4-.7.6-1.3.6c-.4 0-.7-.1-.9-.3c-.3-.2-.4-.5-.4-.9c0-.3.1-.6.4-.8c.3-.2.6-.3 1.1-.3c.4 0 .7 0 1.1.1v-.1c0-.3-.1-.6-.3-.7c-.1-.2-.4-.3-.8-.3c-.3 0-.7.1-1.1.3l-.1-.5c.4-.2.8-.3 1.3-.3c.5 0 .9.2 1.2.4c.2.3.3.6.3 1.1c.04-.01 0 2.2 0 2.2h-.5v-.5s.02-.05 0 0zm-1.2.1c.4 0 .6 0 .9-.2c.2-.2.3-.4.3-.7v-.4c-.3-.1-.7-.1-1-.1c-.4 0-.6 0-.8.2c-.2.1-.3.3-.3.5c0 .2.1.4.3.6c.1.1.4.1.6.1zm2.9.4V52h.5s.02.59 0 .6c.2-.2.3-.4.5-.5c.2-.1.4-.2.7-.2c.5 0 .9.2 1.2.7c.3-.5.7-.7 1.2-.7c.4 0 .8.1 1 .4c.3.3.4.6.4 1.1c-.03-.04 0 2.2 0 2.2h-.6s.03-2.11 0-2.1c0-.4-.1-.6-.2-.8c-.2-.2-.4-.3-.7-.3c-.3 0-.5.1-.7.3c-.2.2-.3.5-.3.8v2.1h-.5s-.04-2.13 0-2.1c0-.4-.1-.6-.3-.8c-.2-.2-.4-.3-.7-.3c-.3 0-.5.1-.7.3c-.2.2-.3.5-.3.8c.02.03 0 2.1 0 2.1h-.5zm9-.5c-.3.4-.7.6-1.3.6c-.4 0-.7-.1-1-.3c-.2-.2-.4-.5-.4-.9c0-.3.2-.6.5-.8c.3-.2.6-.3 1.1-.3c.4 0 .7 0 1.1.1v-.1c0-.3-.1-.6-.3-.7c-.2-.2-.4-.3-.8-.3c-.3 0-.7.1-1.1.3l-.1-.5c.4-.2.8-.3 1.3-.3c.5 0 .9.2 1.2.4c.2.3.3.6.3 1.1c.02-.01 0 2.2 0 2.2h-.5v-.5s.01-.05 0 0zm-1.2.1c.3 0 .6 0 .9-.2c.2-.2.3-.4.3-.7v-.4c-.4-.1-.7-.1-1.1-.1c-.3 0-.5 0-.7.2c-.2.1-.3.3-.3.5c0 .2.1.4.3.6c.1.1.4.1.6.1zm4.1 1.5l-.5-.3l.6-.8c-.5 0-.8-.2-1.1-.6c-.3-.3-.5-.7-.5-1.2c0-.5.2-1 .6-1.3c.3-.4.8-.6 1.3-.6c.6 0 1 .2 1.5.6l-.4.4c-.3-.3-.7-.5-1.1-.5c-.4 0-.7.1-.9.4c-.3.3-.4.6-.4 1c0 .4.1.7.4 1c.2.3.6.4.9.4c.4 0 .8-.2 1.1-.5l.4.3c-.4.4-.9.7-1.4.7l-.5 1zm2.8-1.1v-5.1h.6v5.1h-.6zm1.9 0V52h.5v3.6h-.5zm1.6.9l-.1-.3c.3-.1.5-.3.4-.6h-.2v-.7h.6s.03.59 0 .6c0 .3 0 .5-.2.6c-.1.2-.3.3-.5.4zm4-.9v-5.1h.5v3.5l2-2h.6l-1.5 1.5l1.6 2.1h-.7l-1.3-1.7l-.7.8v.9h-.5zm6.3-.5c-.4.4-.8.6-1.3.6c-.4 0-.7-.1-1-.3c-.3-.2-.4-.5-.4-.9c0-.3.1-.6.4-.8c.3-.2.7-.3 1.2-.3c.3 0 .7 0 1.1.1v-.1c0-.3-.1-.6-.3-.7c-.2-.2-.5-.3-.8-.3c-.4 0-.7.1-1.1.3l-.2-.5c.5-.2.9-.3 1.3-.3c.6 0 .9.2 1.2.4c.3.3.4.6.4 1.1c-.02-.01 0 2.2 0 2.2h-.5v-.5s-.03-.05 0 0zm-1.2.1c.3 0 .6 0 .8-.2c.3-.2.4-.4.4-.7v-.4c-.4-.1-.7-.1-1.1-.1c-.3 0-.6 0-.8.2c-.2.1-.2.3-.2.5c0 .2 0 .4.2.6c.2.1.4.1.7.1zm3.9.4L50 52h.6l1.2 3l1.3-3h.6l-1.6 3.6h-.5zm2.9 0V52h.5s.04.93 0 .9c.2-.3.4-.5.6-.7c.3-.2.6-.3.9-.3c.02.02 0 .6 0 .6c0 0-.02 0 0 0c-.4 0-.8.1-1.1.4c-.2.3-.4.7-.4 1.3c.04-.04 0 1.4 0 1.4h-.5zm5-.5c-.3.4-.7.6-1.3.6c-.3 0-.6-.1-.9-.3c-.3-.2-.4-.5-.4-.9c0-.3.1-.6.4-.8c.3-.2.7-.3 1.1-.3c.4 0 .8 0 1.1.1v-.1c0-.3 0-.6-.2-.7c-.2-.2-.5-.3-.8-.3c-.4 0-.8.1-1.1.3l-.2-.5c.4-.2.9-.3 1.3-.3c.5 0 .9.2 1.2.4c.2.3.4.6.4 1.1c-.03-.01 0 2.2 0 2.2h-.6v-.5s.05-.05 0 0zm-1.2.1c.4 0 .7 0 .9-.2c.2-.2.4-.4.4-.7v-.4c-.4-.1-.8-.1-1.1-.1c-.3 0-.6 0-.8.2c-.2.1-.3.3-.3.5c0 .2.1.4.3.6c.2.1.4.1.6.1zm2.9.4V52h.6s-.05.59 0 .6c.1-.2.3-.4.4-.5c.2-.1.4-.2.7-.2c.6 0 1 .2 1.2.7c.3-.5.7-.7 1.3-.7c.4 0 .7.1.9.4c.3.3.4.6.4 1.1v2.2h-.5s-.04-2.11 0-2.1c0-.4-.1-.6-.3-.8c-.2-.2-.4-.3-.7-.3c-.3 0-.5.1-.7.3c-.2.2-.3.5-.3.8c.02.01 0 2.1 0 2.1h-.5v-2.1c0-.4-.1-.6-.3-.8c-.1-.2-.3-.3-.6-.3c-.3 0-.6.1-.8.3c-.2.2-.2.5-.2.8c-.05.03 0 2.1 0 2.1h-.6zm9-.5c-.3.4-.7.6-1.3.6c-.3 0-.7-.1-.9-.3c-.3-.2-.4-.5-.4-.9c0-.3.1-.6.4-.8c.3-.2.7-.3 1.1-.3c.4 0 .8 0 1.1.1v-.1c0-.3-.1-.6-.2-.7c-.2-.2-.5-.3-.8-.3c-.4 0-.8.1-1.1.3l-.2-.5c.4-.2.9-.3 1.3-.3c.5 0 .9.2 1.2.4c.2.3.4.6.4 1.1c-.04-.01 0 2.2 0 2.2h-.6v-.5s.04-.05 0 0zm-1.2.1c.4 0 .7 0 .9-.2c.2-.2.3-.4.3-.7v-.4c-.3-.1-.7-.1-1-.1c-.4 0-.6 0-.8.2c-.2.1-.3.3-.3.5c0 .2.1.4.3.6c.2.1.4.1.6.1zm4.1.5c-.6 0-1.1-.2-1.5-.6l.3-.3c.4.3.8.4 1.2.4c.3 0 .4 0 .6-.1c.1-.1.2-.3.2-.5c0-.1-.1-.3-.3-.4c-.1 0-.3-.1-.6-.2c-.2 0-.3-.1-.3-.1c-.1 0-.2-.1-.3-.1c-.1 0-.2-.1-.2-.1c-.1-.1-.2-.1-.2-.2l-.2-.2v-.3c0-.4.1-.6.3-.8c.3-.2.5-.3.9-.3c.5 0 .9.2 1.3.4l-.2.4c-.4-.2-.8-.3-1.1-.3c-.2 0-.4 0-.5.1c-.1.1-.2.2-.2.4c0 .1 0 .1.1.2s0 .1.1.1c0 .1.1.1.2.2h.2c.1.1.2.1.3.1c.2.1.3.1.4.1c.1.1.2.1.3.2c.1 0 .2.1.2.2c.1 0 .2.1.2.2c.1.1.1.2.1.4c0 .3-.1.6-.4.8c-.2.2-.5.3-.9.3zm2.3-.1V52h.6v3.6h-.6zm3.9 0v-5.1h.6v3.5l1.9-2h.7L81 53.5l1.5 2.1h-.6l-1.3-1.7l-.7.8v.9h-.6zm5.5.1c-.5 0-1-.2-1.4-.6c-.3-.3-.5-.8-.5-1.3c0-.5.2-1 .6-1.3c.3-.4.8-.6 1.3-.6c.5 0 1 .2 1.3.6c.4.3.6.8.6 1.3c0 .5-.2 1-.6 1.3c-.3.4-.8.6-1.3.6zm0-.5c.4 0 .7-.1 1-.4c.2-.3.3-.6.3-1c0-.4-.1-.7-.4-1c-.2-.3-.5-.4-.9-.4c-.4 0-.7.1-1 .4c-.2.3-.3.6-.3 1c0 .4.1.7.4 1c.2.3.5.4.9.4zm2.9.4v-5.1h.5v5.1h-.5zm4.2-.5c-.3.4-.8.6-1.3.6c-.4 0-.7-.1-1-.3c-.2-.2-.4-.5-.4-.9c0-.3.2-.6.5-.8c.2-.2.6-.3 1.1-.3c.3 0 .7 0 1.1.1v-.1c0-.3-.1-.6-.3-.7c-.2-.2-.4-.3-.8-.3c-.4 0-.7.1-1.1.3l-.2-.5c.5-.2.9-.3 1.4-.3c.5 0 .9.2 1.1.4c.3.3.4.6.4 1.1c.01-.01 0 2.2 0 2.2h-.5v-.5s-.01-.05 0 0zm-1.2.1c.3 0 .6 0 .8-.2c.3-.2.4-.4.4-.7v-.4c-.4-.1-.7-.1-1.1-.1c-.3 0-.6 0-.7.2c-.2.1-.3.3-.3.5c0 .2.1.4.2.6c.2.1.4.1.7.1zM95 55l1.1-3h.6s-1.52 3.72-1.5 3.7c-.2.4-.3.7-.5.8c-.2.2-.5.2-.7.2c-.3 0-.5 0-.8-.1l.2-.5c.2.1.3.2.6.2c.1 0 .3-.1.4-.2c.1-.1.2-.3.3-.5L93 52h.6l1.4 3zm7.6 1.3c-.3.3-.7.4-1.3.4c-.7 0-1.2-.1-1.7-.5l.3-.4c.4.3.8.5 1.3.5c.5 0 .8-.1 1-.4c.2-.2.4-.5.4-.9v-.4c-.4.5-.9.7-1.5.7c-.4 0-.8-.1-1.1-.5c-.4-.3-.6-.7-.6-1.2c0-.5.2-.9.5-1.2c.4-.3.8-.5 1.2-.5c.6 0 1.1.2 1.5.7c-.04.03 0-.6 0-.6h.5v3c0 .5-.2.9-.5 1.3zm-1.4-1.5c.4 0 .7-.1 1-.3c.2-.2.4-.5.4-.9c0-.4-.2-.6-.4-.9c-.3-.2-.6-.3-1-.3c-.3 0-.6.1-.8.3c-.3.2-.4.5-.4.9c0 .4.1.7.4.9c.2.2.5.3.8.3zm5.1-3.4v-.6h.6v.6h-.6zm-1.3 0v-.6h.7v.6h-.7zm1 4.3c-.6 0-1-.2-1.4-.6c-.3-.3-.5-.8-.5-1.3c0-.5.2-1 .5-1.3c.4-.4.8-.6 1.4-.6c.5 0 .9.2 1.3.6c.4.3.5.8.5 1.3c0 .5-.1 1-.5 1.3c-.4.4-.8.6-1.3.6zm0-.5c.3 0 .7-.1.9-.4c.3-.3.4-.6.4-1c0-.4-.1-.7-.4-1c-.3-.3-.6-.4-.9-.4c-.4 0-.7.1-1 .4c-.2.3-.4.6-.4 1c0 .4.2.7.4 1c.3.3.6.4 1 .4zm3.8.4l-1.5-3.6h.5l1.3 3l1.2-3h.6l-1.6 3.6h-.5zm5.6-.7c-.3.5-.8.8-1.3.8c-.5 0-.9-.2-1.2-.5c-.4-.4-.6-.8-.6-1.4c0-.6.2-1 .6-1.4c.3-.3.7-.5 1.2-.5c.5 0 1 .3 1.3.8c.05-.03 0-2.2 0-2.2h.6v5.1h-.6v-.7s.05-.03 0 0zm-1.2.3c.3 0 .6-.1.9-.4c.2-.3.4-.6.4-1c0-.4-.2-.8-.4-1c-.3-.3-.6-.4-.9-.4c-.4 0-.7.1-.9.4c-.3.2-.4.6-.4 1c0 .4.1.8.4 1c.2.3.5.4.9.4zm6.1-.2c-.4.5-.9.7-1.5.7c-.5 0-1-.2-1.3-.5c-.4-.4-.5-.8-.5-1.4c0-.5.1-1 .5-1.4c.3-.3.7-.5 1.2-.5c.5 0 .9.2 1.2.5c.3.4.5.9.5 1.4v.2h-2.9c.1.4.2.7.4.9c.3.2.6.3.9.3c.4 0 .8-.2 1.1-.5c.03 0 .4.3.4.3c0 0-.03 0 0 0zm-2.8-1.4h2.3c0-.4-.1-.7-.3-.9c-.2-.2-.5-.3-.8-.3c-.3 0-.6.1-.8.3c-.2.2-.3.5-.4.9z" stroke="none" fill="#000"/></g><g id="Polygon400375"><path d="m.6 41.2v-.6h.6v.6h-.6zm.1 4.4V42h.5v3.6h-.5zm3 1.1l-.5-.3s.54-.75.5-.8c-.4 0-.8-.2-1.1-.6c-.2-.3-.4-.7-.4-1.2c0-.5.2-1 .6-1.3c.3-.4.7-.6 1.3-.6c.5 0 1 .2 1.4.6l-.3.4c-.4-.3-.7-.5-1.1-.5c-.4 0-.7.1-1 .4c-.2.3-.3.6-.3 1c0 .4.1.7.4 1c.2.3.5.4.9.4c.4 0 .8-.2 1.1-.5l.4.3c-.4.4-.9.7-1.4.7c-.02-.02-.5 1-.5 1zM9.4 45c-.4.5-.9.7-1.5.7c-.5 0-.9-.2-1.3-.5c-.3-.4-.5-.8-.5-1.4c0-.5.2-1 .5-1.4c.3-.3.7-.5 1.2-.5c.6 0 1 .2 1.3.5c.3.4.4.9.4 1.4v.2H6.7c0 .4.1.7.4.9c.2.2.5.3.8.3c.5 0 .8-.2 1.2-.5c-.03 0 .3.3.3.3c0 0 .01 0 0 0zm-2.7-1.4h2.3c0-.4-.2-.7-.4-.9c-.2-.2-.4-.3-.8-.3c-.3 0-.5.1-.8.3c-.2.2-.3.5-.3.9zm6.9 1.4c-.4.5-.9.7-1.5.7c-.5 0-1-.2-1.3-.6c-.4-.3-.5-.8-.5-1.3c0-.5.1-1 .5-1.3c.3-.4.8-.6 1.3-.6c.6 0 1.1.2 1.5.6l-.4.4c-.3-.3-.7-.5-1.1-.5c-.4 0-.7.1-.9.4c-.3.3-.4.6-.4 1c0 .4.1.7.4 1c.2.3.6.4.9.4c.4 0 .8-.2 1.1-.5c.04-.04.4.3.4.3c0 0-.01-.02 0 0zm3.8 0c-.4.5-.8.7-1.4.7c-.6 0-1-.2-1.3-.5c-.4-.4-.6-.8-.6-1.4c0-.5.2-1 .5-1.4c.4-.3.8-.5 1.3-.5c.5 0 .9.2 1.2.5c.3.4.5.9.5 1.4v.2h-2.9c0 .4.2.7.4.9c.2.2.5.3.9.3c.4 0 .8-.2 1.1-.5l.3.3s.04 0 0 0zm-2.7-1.4h2.3c0-.4-.1-.7-.3-.9c-.2-.2-.5-.3-.8-.3c-.3 0-.6.1-.8.3c-.2.2-.4.5-.4.9zm3.8 2v-5.1h.6v3.5l1.9-2h.7l-1.5 1.5l1.5 2.1h-.6l-1.3-1.7l-.7.8v.9h-.6zm6.1 0v-5.1h.5v3.5l2-2h.7l-1.6 1.5l1.6 2.1h-.6l-1.3-1.7l-.8.8v.9h-.5zm6.5-.6c-.3.4-.7.7-1.3.7c-.4 0-.7-.2-1-.4c-.2-.3-.3-.6-.3-1.1c-.05.03 0-2.2 0-2.2h.5v2.1c0 .3.1.6.3.8c.1.2.4.3.7.3c.3 0 .6-.1.8-.3c.2-.2.3-.5.3-.8c-.02-.05 0-2.1 0-2.1h.5v3.6h-.5v-.6s-.02-.03 0 0zm3.6.5c-.2.1-.4.2-.7.2c-.3 0-.5-.1-.7-.3c-.2-.2-.3-.4-.3-.8v-2.1h-.5v-.5h.5v-1.1h.6v1.1h1.1v.5h-1.1s-.05 2.07 0 2.1c0 .4.2.6.6.6c.1 0 .3-.1.5-.2c-.02.05 0 .5 0 .5c0 0-.02.01 0 0zm3.5-.5c-.3.4-.7.7-1.2.7c-.4 0-.8-.2-1-.4c-.3-.3-.4-.6-.4-1.1c-.01.03 0-2.2 0-2.2h.5s.03 2.09 0 2.1c0 .3.1.6.3.8c.2.2.4.3.7.3c.3 0 .6-.1.8-.3c.2-.2.3-.5.3-.8c.02-.05 0-2.1 0-2.1h.6v3.6h-.6v-.6s.02-.03 0 0zm1.8.6v-5.1h.6v5.1h-.6zm4.2-.5c-.3.4-.8.6-1.3.6c-.4 0-.7-.1-1-.3c-.2-.2-.4-.5-.4-.9c0-.3.2-.6.5-.8c.2-.2.6-.3 1.1-.3c.3 0 .7 0 1.1.1v-.1c0-.3-.1-.6-.3-.7c-.2-.2-.4-.3-.8-.3c-.4 0-.7.1-1.1.3l-.1-.5c.4-.2.8-.3 1.3-.3c.5 0 .9.2 1.1.4c.3.3.4.6.4 1.1c.01-.01 0 2.2 0 2.2h-.5v-.5s-.01-.05 0 0zm-1.2.1c.3 0 .6 0 .8-.2c.3-.2.4-.4.4-.7v-.4c-.4-.1-.7-.1-1.1-.1c-.3 0-.6 0-.7.2c-.2.1-.3.3-.3.5c0 .2.1.4.2.6c.2.1.4.1.7.1zm2.9.4V42h.5v.9c.1-.3.3-.5.6-.7c.2-.2.5-.3.9-.3c-.03.02 0 .6 0 .6h-.1c-.4 0-.7.1-1 .4c-.3.3-.4.7-.4 1.3v1.4h-.5zm2.8 0V42h.6v3.6h-.6zm5.1 0L52.3 42h.6l1.2 3l1.2-3h.6l-1.6 3.6h-.5zm5.8-.6c-.4.5-.9.7-1.5.7c-.5 0-.9-.2-1.3-.5c-.3-.4-.5-.8-.5-1.4c0-.5.2-1 .5-1.4c.3-.3.7-.5 1.2-.5c.6 0 1 .2 1.3.5c.3.4.4.9.4 1.4v.2h-2.8c0 .4.1.7.4.9c.2.2.5.3.8.3c.5 0 .8-.2 1.2-.5c-.03 0 .3.3.3.3zm-2.7-1.4h2.3c0-.4-.2-.7-.4-.9c-.2-.2-.4-.3-.8-.3c-.3 0-.5.1-.8.3c-.2.2-.3.5-.3.9zm5.9 2v-5.1h.5v2.1c.3-.5.7-.7 1.3-.7c.4 0 .7.1 1 .4c.2.3.3.6.3 1.1c.04-.05 0 2.2 0 2.2h-.5v-2.1c0-.4-.1-.6-.3-.8c-.1-.2-.4-.3-.7-.3c-.3 0-.6.1-.8.3c-.2.2-.3.5-.3.8v2.1h-.5zm6.7-.5c-.3.4-.8.6-1.3.6c-.4 0-.7-.1-1-.3c-.3-.2-.4-.5-.4-.9c0-.3.2-.6.4-.8c.3-.2.7-.3 1.2-.3c.3 0 .7 0 1.1.1v-.1c0-.3-.1-.6-.3-.7c-.2-.2-.5-.3-.8-.3c-.4 0-.7.1-1.1.3l-.2-.5c.5-.2.9-.3 1.4-.3c.5 0 .9.2 1.1.4c.3.3.4.6.4 1.1c-.01-.01 0 2.2 0 2.2h-.5v-.5s-.03-.05 0 0zm-1.2.1c.3 0 .6 0 .8-.2c.3-.2.4-.4.4-.7v-.4c-.4-.1-.7-.1-1.1-.1c-.3 0-.6 0-.8.2c-.1.1-.2.3-.2.5c0 .2 0 .4.2.6c.2.1.4.1.7.1zm2.9.4v-5.1h.5v5.1h-.5zm1.8 0v-5.1h.5v3.5l2-2h.6l-1.5 1.5l1.6 2.1h-.7l-1.2-1.7l-.8.8v.9h-.5zm6.3-.5c-.3.4-.8.6-1.3.6c-.4 0-.7-.1-1-.3c-.2-.2-.4-.5-.4-.9c0-.3.2-.6.4-.8c.3-.2.7-.3 1.2-.3c.3 0 .7 0 1.1.1v-.1c0-.3-.1-.6-.3-.7c-.2-.2-.5-.3-.8-.3c-.4 0-.7.1-1.1.3l-.2-.5c.5-.2.9-.3 1.4-.3c.5 0 .9.2 1.1.4c.3.3.4.6.4 1.1v2.2h-.5v-.5s-.02-.05 0 0zm-1.2.1c.3 0 .6 0 .8-.2c.3-.2.4-.4.4-.7v-.4c-.4-.1-.7-.1-1.1-.1c-.3 0-.6 0-.8.2c-.1.1-.2.3-.2.5c0 .2.1.4.2.6c.2.1.4.1.7.1zm2.9.4v-5.1h.5v5.1h-.5zm1.8 0V42h.6v3.6h-.6zm3.9 0v-5.1h.6v3.5l1.9-2h.7l-1.5 1.5l1.5 2.1h-.6L88 43.9l-.7.8v.9h-.6zm6.5-.6c-.3.4-.7.7-1.2.7c-.5 0-.8-.2-1-.4c-.3-.3-.4-.6-.4-1.1c-.01.03 0-2.2 0-2.2h.5s.02 2.09 0 2.1c0 .3.1.6.3.8c.2.2.4.3.7.3c.3 0 .6-.1.8-.3c.2-.2.3-.5.3-.8V42h.5v3.6h-.5v-.6s.01-.03 0 0zm3.6.5c-.2.1-.4.2-.6.2c-.3 0-.6-.1-.8-.3c-.2-.2-.3-.4-.3-.8c.04.04 0-2.1 0-2.1h-.5v-.5h.5v-1.1h.6v1.1h1.1v.5h-1.1s-.02 2.07 0 2.1c0 .4.2.6.6.6c.2 0 .3-.1.5-.2c.02.05 0 .5 0 .5c0 0 .02.01 0 0zm3.6-.5c-.3.4-.8.7-1.3.7c-.4 0-.8-.2-1-.4c-.3-.3-.4-.6-.4-1.1c.03.03 0-2.2 0-2.2h.6s-.04 2.09 0 2.1c0 .3.1.6.2.8c.2.2.4.3.8.3c.3 0 .5-.1.7-.3c.2-.2.4-.5.4-.8c-.05-.05 0-2.1 0-2.1h.5v3.6h-.5v-.6s-.05-.03 0 0zm1.7.6v-5.1h.6v5.1h-.6zm4.2-.5c-.3.4-.7.6-1.3.6c-.4 0-.7-.1-.9-.3c-.3-.2-.4-.5-.4-.9c0-.3.1-.6.4-.8c.3-.2.6-.3 1.1-.3c.4 0 .7 0 1.1.1v-.1c0-.3-.1-.6-.3-.7c-.1-.2-.4-.3-.8-.3c-.3 0-.7.1-1.1.3l-.1-.5c.4-.2.8-.3 1.3-.3c.5 0 .9.2 1.2.4c.2.3.3.6.3 1.1c.04-.01 0 2.2 0 2.2h-.5v-.5s.02-.05 0 0zm-1.2.1c.4 0 .6 0 .9-.2c.2-.2.3-.4.3-.7v-.4c-.3-.1-.7-.1-1-.1c-.4 0-.6 0-.8.2c-.2.1-.3.3-.3.5c0 .2.1.4.3.6c.2.1.4.1.6.1zm2.9.4V42h.5s.03.93 0 .9c.2-.3.4-.5.6-.7c.3-.2.6-.3.9-.3v.6s-.04 0 0 0c-.5 0-.8.1-1.1.4c-.2.3-.4.7-.4 1.3c.03-.04 0 1.4 0 1.4h-.5zm2.9 0V42h.5v3.6h-.5zm6.2-.5c-.3.4-.7.6-1.3.6c-.3 0-.6-.1-.9-.3c-.3-.2-.4-.5-.4-.9c0-.3.1-.6.4-.8c.3-.2.7-.3 1.1-.3c.4 0 .8 0 1.1.1v-.1c0-.3 0-.6-.2-.7c-.2-.2-.5-.3-.8-.3c-.4 0-.8.1-1.1.3l-.2-.5c.4-.2.9-.3 1.3-.3c.5 0 .9.2 1.2.4c.2.3.4.6.4 1.1c-.03-.01 0 2.2 0 2.2h-.6v-.5s.05-.05 0 0zm-1.2.1c.4 0 .7 0 .9-.2c.2-.2.4-.4.4-.7v-.4c-.4-.1-.8-.1-1.1-.1c-.3 0-.6 0-.8.2c-.2.1-.3.3-.3.5c0 .2.1.4.3.6c.2.1.4.1.6.1zm4.2 1.5l-.5-.3s.51-.75.5-.8c-.4 0-.8-.2-1.1-.6c-.3-.3-.4-.7-.4-1.2c0-.5.2-1 .5-1.3c.4-.4.8-.6 1.3-.6c.6 0 1.1.2 1.5.6l-.4.4c-.3-.3-.7-.5-1.1-.5c-.3 0-.6.1-.9.4c-.2.3-.4.6-.4 1c0 .4.2.7.4 1c.3.3.6.4 1 .4c.4 0 .7-.2 1.1-.5l.3.3c-.4.4-.8.7-1.3.7c-.05-.02-.5 1-.5 1zm5.1-1.6c-.3.4-.8.6-1.3.6c-.4 0-.7-.1-1-.3c-.2-.2-.4-.5-.4-.9c0-.3.2-.6.5-.8c.2-.2.6-.3 1.1-.3c.4 0 .7 0 1.1.1v-.1c0-.3-.1-.6-.3-.7c-.2-.2-.4-.3-.8-.3c-.3 0-.7.1-1.1.3l-.1-.5c.4-.2.8-.3 1.3-.3c.5 0 .9.2 1.1.4c.3.3.4.6.4 1.1c.02-.01 0 2.2 0 2.2h-.5v-.5s0-.05 0 0zm-1.2.1c.3 0 .6 0 .9-.2c.2-.2.3-.4.3-.7v-.4c-.4-.1-.7-.1-1.1-.1c-.3 0-.6 0-.7.2c-.2.1-.3.3-.3.5c0 .2.1.4.3.6c.1.1.3.1.6.1zm2.9.4V42h.5v.9c.1-.3.3-.5.6-.7c.3-.2.6-.3.9-.3c-.02.02 0 .6 0 .6h-.1c-.4 0-.7.1-1 .4c-.3.3-.4.7-.4 1.3v1.4h-.5zm2.1 0v-.7h.6v.7h-.6z" stroke="none" fill="#000"/></g><g id="Polygon400374"><path d="m4.9 30.7h.6s-.66.73-.7.7c.5.5.7 1.1.7 1.7c0 .7-.3 1.3-.7 1.8c-.5.5-1.1.8-1.8.8c-.6 0-1.1-.2-1.6-.5l-.4.4h-.6l.7-.7c-.4-.5-.6-1.1-.6-1.7v-.1c0-.6.2-1.2.7-1.7c.5-.5 1.1-.8 1.8-.8c.6 0 1.1.2 1.5.5c.02.03.4-.4.4-.4zM1 33.1c0 .6.2 1 .5 1.4l2.7-3c-.4-.2-.8-.4-1.2-.4c-.6 0-1 .2-1.4.6c-.4.4-.6.9-.6 1.4zm.8 1.7c.3.2.7.4 1.2.4c.5 0 1-.2 1.4-.6c.3-.4.5-.9.5-1.4c0-.5-.1-1-.4-1.4l-2.7 3s-.02-.03 0 0zm6.6.8v-.4s1.76-1.6 1.8-1.6l.8-.8c.1-.3.2-.5.2-.7c0-.3-.1-.5-.3-.7c-.2-.2-.4-.3-.7-.3c-.3 0-.5.1-.7.2c-.2.2-.4.4-.6.7l-.4-.3c.2-.4.5-.7.7-.8c.3-.2.6-.3 1-.3c.5 0 .8.2 1.1.4c.3.3.5.6.5 1c0 .4-.1.7-.3.9c-.2.3-.5.6-1 1c.02.03-1.3 1.2-1.3 1.2h2.6v.5H8.4zm4.7 0l2.2-4.4h-2.7v-.5h3.4v.4l-2.3 4.5h-.6zm3.5-1.8v-.6h2.8v.6h-2.8zm5.3 1.9c-.8 0-1.4-.3-1.8-.9l.4-.3c.4.4.9.7 1.4.7c.3 0 .6-.1.8-.3c.2-.2.3-.4.3-.7c0-.3-.1-.5-.4-.7c-.2-.1-.6-.2-1-.2c.03-.03-.3 0-.3 0l-.1-.4l1.5-1.7h-2.3v-.5h3.1v.4s-1.56 1.71-1.6 1.7c.5.1.9.2 1.2.4c.3.2.5.6.5 1c0 .4-.2.8-.5 1.1c-.3.2-.7.4-1.2.4zm3.4-.1v-4.4l-.9.3l-.2-.4l1.2-.4h.4v4.9h-.5zm3.9 0V32h.6s-.02.59 0 .6c.1-.2.3-.4.5-.5c.1-.1.4-.2.7-.2c.5 0 .9.2 1.1.7c.3-.5.8-.7 1.3-.7c.4 0 .7.1 1 .4c.2.3.3.6.3 1.1c.03-.04 0 2.2 0 2.2h-.5v-2.1c0-.4-.1-.6-.3-.8c-.1-.2-.3-.3-.6-.3c-.3 0-.6.1-.8.3c-.1.2-.2.5-.2.8c-.04.01 0 2.1 0 2.1h-.6s.02-2.13 0-2.1c0-.4-.1-.6-.2-.8c-.2-.2-.4-.3-.7-.3c-.3 0-.5.1-.7.3c-.2.2-.3.5-.3.8c-.02.03 0 2.1 0 2.1h-.6zm6.7 0V32h.5s.02.59 0 .6c.2-.2.3-.4.5-.5c.2-.1.4-.2.7-.2c.5 0 .9.2 1.2.7c.3-.5.7-.7 1.2-.7c.4 0 .8.1 1 .4c.3.3.4.6.4 1.1c-.03-.04 0 2.2 0 2.2h-.6s.03-2.11 0-2.1c0-.4-.1-.6-.2-.8c-.2-.2-.4-.3-.7-.3c-.3 0-.5.1-.7.3c-.2.2-.3.5-.3.8v2.1h-.5s-.04-2.13 0-2.1c0-.4-.1-.6-.3-.8c-.2-.2-.4-.3-.7-.3c-.3 0-.5.1-.7.3c-.2.2-.3.5-.3.8c.02.03 0 2.1 0 2.1h-.5zm9.9 0L44.3 32h.6l1.2 3l1.2-3h.6l-1.6 3.6h-.5zm2.9-4.4v-.6h.7v.6h-.7zm.1 4.4V32h.5v3.6h-.5zm4.7-.7c-.4.5-.9.8-1.4.8c-.5 0-.9-.2-1.2-.5c-.4-.4-.5-.8-.5-1.4c0-.6.1-1 .5-1.4c.3-.3.7-.5 1.2-.5c.6 0 1 .3 1.4.8c-.03-.03 0-2.2 0-2.2h.5v5.1h-.5v-.7s-.03-.03 0 0zm-1.3.3c.3 0 .6-.1.9-.4c.3-.3.4-.6.4-1c0-.4-.1-.8-.4-1c-.3-.3-.6-.4-.9-.4c-.4 0-.7.1-.9.4c-.3.2-.4.6-.4 1c0 .4.1.8.4 1c.2.3.5.4.9.4zm5.4-.1c-.3.4-.8.6-1.3.6c-.4 0-.7-.1-1-.3c-.2-.2-.4-.5-.4-.9c0-.3.2-.6.5-.8c.2-.2.6-.3 1.1-.3c.4 0 .7 0 1.1.1v-.1c0-.3-.1-.6-.3-.7c-.2-.2-.4-.3-.8-.3c-.3 0-.7.1-1.1.3l-.1-.5c.4-.2.8-.3 1.3-.3c.5 0 .9.2 1.1.4c.3.3.4.6.4 1.1c.02-.01 0 2.2 0 2.2h-.5v-.5s0-.05 0 0zm-1.2.1c.3 0 .6 0 .9-.2c.2-.2.3-.4.3-.7v-.4c-.4-.1-.7-.1-1.1-.1c-.3 0-.6 0-.7.2c-.2.1-.3.3-.3.5c0 .2.1.4.3.6c.1.1.3.1.6.1zm2.9.4v-5.1h.6v5.1h-.6zm1.9 0V32h.5v3.6h-.5zm3.8 0v-5.1h.6v3.5l1.9-2h.7l-1.5 1.5l1.6 2.1h-.7l-1.3-1.7l-.7.8v.9h-.6zm6.3-.5c-.3.4-.7.6-1.3.6c-.3 0-.6-.1-.9-.3c-.3-.2-.4-.5-.4-.9c0-.3.1-.6.4-.8c.3-.2.7-.3 1.1-.3c.4 0 .8 0 1.1.1v-.1c0-.3 0-.6-.2-.7c-.2-.2-.5-.3-.8-.3c-.4 0-.8.1-1.1.3l-.2-.5c.4-.2.9-.3 1.3-.3c.5 0 .9.2 1.2.4c.2.3.4.6.4 1.1c-.03-.01 0 2.2 0 2.2h-.6v-.5s.05-.05 0 0zm-1.2.1c.4 0 .7 0 .9-.2c.2-.2.4-.4.4-.7v-.4c-.4-.1-.8-.1-1.1-.1c-.3 0-.6 0-.8.2c-.2.1-.3.3-.3.5c0 .2.1.4.3.6c.2.1.4.1.6.1zm2.9 1.5V32h.6s-.05.71 0 .7c.3-.5.8-.8 1.3-.8c.5 0 .9.2 1.3.5c.3.4.5.8.5 1.4c0 .6-.2 1-.5 1.4c-.4.3-.8.5-1.3.5c-.5 0-1-.3-1.3-.8c-.05.01 0 1.8 0 1.8h-.6zm1.8-1.5c.4 0 .7-.1 1-.4c.2-.2.3-.6.3-1c0-.4-.1-.8-.4-1c-.2-.3-.5-.4-.9-.4c-.3 0-.6.1-.9.4c-.2.3-.4.6-.4 1c0 .4.2.7.4 1c.3.3.6.4.9.4zm5.3-.1c-.4.4-.8.6-1.4.6c-.3 0-.6-.1-.9-.3c-.3-.2-.4-.5-.4-.9c0-.3.1-.6.4-.8c.3-.2.7-.3 1.1-.3c.4 0 .8 0 1.2.1v-.1c0-.3-.1-.6-.3-.7c-.2-.2-.5-.3-.8-.3c-.4 0-.8.1-1.1.3l-.2-.5c.4-.2.9-.3 1.3-.3c.5 0 .9.2 1.2.4c.2.3.4.6.4 1.1c-.03-.01 0 2.2 0 2.2h-.5v-.5s-.05-.05 0 0zm-1.3.1c.4 0 .7 0 .9-.2c.2-.2.4-.4.4-.7v-.4c-.4-.1-.8-.1-1.1-.1c-.3 0-.6 0-.8.2c-.2.1-.3.3-.3.5c0 .2.1.4.3.6c.2.1.4.1.6.1zm2.9.4v-5.1h.6v3.5l1.9-2h.7l-1.5 1.5l1.5 2.1h-.6L83 33.9l-.7.8v.9h-.6zm4 0v-5.1h.6v5.1h-.6zm4.2-.5c-.3.4-.7.6-1.3.6c-.3 0-.7-.1-.9-.3c-.3-.2-.4-.5-.4-.9c0-.3.1-.6.4-.8c.3-.2.6-.3 1.1-.3c.4 0 .8 0 1.1.1v-.1c0-.3-.1-.6-.3-.7c-.1-.2-.4-.3-.8-.3c-.3 0-.7.1-1 .3l-.2-.5c.4-.2.9-.3 1.3-.3c.5 0 .9.2 1.2.4c.2.3.3.6.3 1.1c.05-.01 0 2.2 0 2.2h-.5v-.5s.03-.05 0 0zm-1.2.1c.4 0 .7 0 .9-.2c.2-.2.3-.4.3-.7v-.4c-.3-.1-.7-.1-1-.1c-.4 0-.6 0-.8.2c-.2.1-.3.3-.3.5c0 .2.1.4.3.6c.2.1.4.1.6.1zm2.9.4V32h.5s.03.93 0 .9c.2-.3.4-.5.6-.7c.3-.2.6-.3.9-.3v.6s-.03 0 0 0c-.4 0-.8.1-1.1.4c-.2.3-.4.7-.4 1.3c.03-.04 0 1.4 0 1.4h-.5zm2 .9l-.1-.3c.4-.1.5-.3.5-.6h-.3v-.7h.7s-.02.59 0 .6c0 .3-.1.5-.2.6c-.1.2-.3.3-.6.4zm4-.9V32h.6s-.05.59 0 .6c.1-.2.3-.4.4-.5c.2-.1.4-.2.7-.2c.6 0 1 .2 1.2.7c.3-.5.7-.7 1.3-.7c.4 0 .7.1.9.4c.3.3.4.6.4 1.1v2.2h-.5s-.04-2.11 0-2.1c0-.4-.1-.6-.3-.8c-.2-.2-.4-.3-.7-.3c-.3 0-.5.1-.7.3c-.2.2-.3.5-.3.8c.02.01 0 2.1 0 2.1h-.5v-2.1c0-.4-.1-.6-.3-.8c-.1-.2-.4-.3-.6-.3c-.3 0-.6.1-.8.3c-.2.2-.2.5-.2.8c-.05.03 0 2.1 0 2.1h-.6zm9-.5c-.3.4-.7.6-1.3.6c-.3 0-.7-.1-.9-.3c-.3-.2-.4-.5-.4-.9c0-.3.1-.6.4-.8c.3-.2.7-.3 1.1-.3c.4 0 .8 0 1.1.1v-.1c0-.3-.1-.6-.2-.7c-.2-.2-.5-.3-.8-.3c-.4 0-.8.1-1.1.3l-.2-.5c.4-.2.9-.3 1.3-.3c.5 0 .9.2 1.2.4c.2.3.4.6.4 1.1c-.05-.01 0 2.2 0 2.2h-.6v-.5s.04-.05 0 0zm-1.2.1c.4 0 .7 0 .9-.2c.2-.2.3-.4.3-.7v-.4c-.3-.1-.7-.1-1-.1c-.4 0-.6 0-.8.2c-.2.1-.3.3-.3.5c0 .2.1.4.3.6c.2.1.4.1.6.1zm2.9.4V32h.5s.04.61 0 .6c.3-.5.7-.7 1.3-.7c.4 0 .7.1 1 .4c.2.3.4.6.4 1.1c-.03-.05 0 2.2 0 2.2h-.6s.03-2.11 0-2.1c0-.4-.1-.6-.2-.8c-.2-.2-.5-.3-.8-.3c-.3 0-.5.1-.8.3c-.2.2-.3.5-.3.8c.04.03 0 2.1 0 2.1h-.5zm6.2-.1c-.2.1-.4.2-.7.2c-.3 0-.5-.1-.7-.3c-.2-.2-.3-.4-.3-.8v-2.1h-.5v-.5h.5v-1.1h.5v1.1h1.2v.5h-1.2s.04 2.07 0 2.1c0 .4.2.6.7.6c.1 0 .3-.1.5-.2c-.02.05 0 .5 0 .5c0 0-.02.01 0 0zm3.3-.4c-.3.4-.7.6-1.3.6c-.3 0-.7-.1-.9-.3c-.3-.2-.4-.5-.4-.9c0-.3.1-.6.4-.8c.3-.2.6-.3 1.1-.3c.4 0 .8 0 1.1.1v-.1c0-.3-.1-.6-.3-.7c-.1-.2-.4-.3-.7-.3c-.4 0-.8.1-1.1.3l-.2-.5c.4-.2.9-.3 1.3-.3c.5 0 .9.2 1.2.4c.2.3.3.6.3 1.1c.05-.01 0 2.2 0 2.2h-.5v-.5s.03-.05 0 0zm-1.2.1c.4 0 .7 0 .9-.2c.2-.2.3-.4.3-.7v-.4c-.3-.1-.7-.1-1-.1c-.4 0-.6 0-.8.2c-.2.1-.3.3-.3.5c0 .2.1.4.3.6c.2.1.4.1.6.1zm2.9.4V32h.5s.03.93 0 .9c.2-.3.4-.5.6-.7c.3-.2.6-.3.9-.3v.6s-.03 0 0 0c-.4 0-.8.1-1.1.4c-.2.3-.4.7-.4 1.3c.03-.04 0 1.4 0 1.4h-.5zm4.9 0v-5.1h.6v3.5l1.9-2h.7l-1.5 1.5l1.5 2.1h-.6l-1.3-1.7l-.7.8v.9h-.6zm6.3-.5c-.3.4-.7.6-1.3.6c-.3 0-.7-.1-.9-.3c-.3-.2-.4-.5-.4-.9c0-.3.1-.6.4-.8c.3-.2.7-.3 1.1-.3c.4 0 .8 0 1.1.1v-.1c0-.3-.1-.6-.2-.7c-.2-.2-.5-.3-.8-.3c-.4 0-.8.1-1.1.3l-.2-.5c.4-.2.9-.3 1.3-.3c.5 0 .9.2 1.2.4c.2.3.3.6.3 1.1c.05-.01 0 2.2 0 2.2h-.5v-.5s.03-.05 0 0zm-1.2.1c.4 0 .7 0 .9-.2c.2-.2.3-.4.3-.7v-.4c-.3-.1-.7-.1-1-.1c-.4 0-.6 0-.8.2c-.2.1-.3.3-.3.5c0 .2.1.4.3.6c.2.1.4.1.6.1zm2.9 1.5V32h.5s.03.71 0 .7c.4-.5.9-.8 1.4-.8c.5 0 .9.2 1.2.5c.4.4.5.8.5 1.4c0 .6-.1 1-.5 1.4c-.3.3-.7.5-1.2.5c-.6 0-1-.3-1.4-.8c.03.01 0 1.8 0 1.8h-.5zm1.8-1.5c.4 0 .7-.1.9-.4c.3-.2.4-.6.4-1c0-.4-.1-.8-.4-1c-.2-.3-.5-.4-.9-.4c-.3 0-.6.1-.9.4c-.3.3-.4.6-.4 1c0 .4.1.7.4 1c.3.3.6.4.9.4zm5.2-.1c-.3.4-.7.6-1.3.6c-.3 0-.7-.1-.9-.3c-.3-.2-.4-.5-.4-.9c0-.3.1-.6.4-.8c.3-.2.7-.3 1.1-.3c.4 0 .8 0 1.1.1v-.1c0-.3-.1-.6-.2-.7c-.2-.2-.5-.3-.8-.3c-.4 0-.8.1-1.1.3l-.2-.5c.4-.2.9-.3 1.3-.3c.5 0 .9.2 1.2.4c.2.3.3.6.3 1.1c.05-.01 0 2.2 0 2.2h-.5v-.5s.03-.05 0 0zm-1.2.1c.4 0 .7 0 .9-.2c.2-.2.3-.4.3-.7v-.4c-.3-.1-.7-.1-1-.1c-.4 0-.6 0-.8.2c-.2.1-.3.3-.3.5c0 .2.1.4.3.6c.2.1.4.1.6.1zm2.9.4v-5.1h.5v3.5l2-2h.7l-1.6 1.5l1.6 2.1h-.6l-1.3-1.7l-.8.8v.9h-.5zm4 0v-5.1h.6v5.1h-.6zm4.2-.5c-.3.4-.7.6-1.3.6c-.4 0-.7-.1-.9-.3c-.3-.2-.5-.5-.5-.9c0-.3.2-.6.5-.8c.3-.2.6-.3 1.1-.3c.4 0 .7 0 1.1.1v-.1c0-.3-.1-.6-.3-.7c-.2-.2-.4-.3-.8-.3c-.3 0-.7.1-1.1.3l-.1-.5c.4-.2.8-.3 1.3-.3c.5 0 .9.2 1.2.4c.2.3.3.6.3 1.1c.03-.01 0 2.2 0 2.2h-.5v-.5s.01-.05 0 0zm-1.2.1c.3 0 .6 0 .9-.2c.2-.2.3-.4.3-.7v-.4c-.3-.1-.7-.1-1-.1c-.4 0-.6 0-.8.2c-.2.1-.3.3-.3.5c0 .2.1.4.3.6c.1.1.4.1.6.1zm2.9.4V32h.5s.01.93 0 .9c.2-.3.4-.5.6-.7c.3-.2.6-.3.9-.3v.6h-.1c-.4 0-.7.1-1 .4c-.3.3-.4.7-.4 1.3v1.4h-.5zm2 .9l-.1-.3c.3-.1.5-.3.5-.6h-.3v-.7h.7s-.04.59 0 .6c0 .3-.1.5-.2.6c-.1.2-.3.3-.6.4zm7.1-1.5c-.4.5-.9.7-1.5.7c-.5 0-.9-.2-1.3-.6c-.4-.3-.5-.8-.5-1.3c0-.5.1-1 .5-1.3c.4-.4.8-.6 1.3-.6c.6 0 1.1.2 1.5.6l-.4.4c-.3-.3-.7-.5-1.1-.5c-.4 0-.7.1-.9.4c-.3.3-.4.6-.4 1c0 .4.1.7.4 1c.3.3.6.4 1 .4c.4 0 .7-.2 1.1-.5l.3.3s0-.02 0 0zm3.3.1c-.3.4-.8.6-1.3.6c-.4 0-.7-.1-1-.3c-.2-.2-.4-.5-.4-.9c0-.3.2-.6.4-.8c.3-.2.7-.3 1.2-.3c.3 0 .7 0 1.1.1v-.1c0-.3-.1-.6-.3-.7c-.2-.2-.5-.3-.8-.3c-.4 0-.7.1-1.1.3l-.2-.5c.5-.2.9-.3 1.4-.3c.5 0 .9.2 1.1.4c.3.3.4.6.4 1.1v2.2h-.5v-.5s-.02-.05 0 0zm-1.2.1c.3 0 .6 0 .8-.2c.3-.2.4-.4.4-.7v-.4c-.4-.1-.7-.1-1.1-.1c-.3 0-.6 0-.8.2c-.1.1-.2.3-.2.5c0 .2.1.4.2.6c.2.1.4.1.7.1zm2.8.4V32h.6s-.02.59 0 .6c.1-.2.3-.4.5-.5c.1-.1.4-.2.7-.2c.5 0 .9.2 1.1.7c.3-.5.8-.7 1.3-.7c.4 0 .7.1 1 .4c.2.3.3.6.3 1.1c.03-.04 0 2.2 0 2.2h-.5v-2.1c0-.4-.1-.6-.3-.8c-.1-.2-.4-.3-.6-.3c-.3 0-.6.1-.8.3c-.1.2-.2.5-.2.8c-.05.01 0 2.1 0 2.1h-.6s.02-2.13 0-2.1c0-.4-.1-.6-.2-.8c-.2-.2-.4-.3-.7-.3c-.3 0-.5.1-.7.3c-.2.2-.3.5-.3.8c-.02.03 0 2.1 0 2.1h-.6zm8.8 0v-5.1h.5v3.5l2-2h.6l-1.5 1.5l1.6 2.1h-.7l-1.2-1.7l-.8.8v.9h-.5zm6.3-.5c-.3.4-.8.6-1.3.6c-.4 0-.7-.1-1-.3c-.2-.2-.4-.5-.4-.9c0-.3.2-.6.4-.8c.3-.2.7-.3 1.2-.3c.3 0 .7 0 1.1.1v-.1c0-.3-.1-.6-.3-.7c-.2-.2-.5-.3-.8-.3c-.4 0-.7.1-1.1.3l-.2-.5c.5-.2.9-.3 1.4-.3c.5 0 .9.2 1.1.4c.3.3.4.6.4 1.1v2.2h-.5v-.5s-.02-.05 0 0zm-1.2.1c.3 0 .6 0 .8-.2c.3-.2.4-.4.4-.7v-.4c-.4-.1-.7-.1-1.1-.1c-.3 0-.6 0-.8.2c-.1.1-.2.3-.2.5c0 .2.1.4.2.6c.2.1.4.1.7.1zm2.8 1.5V32h.6s-.02.71 0 .7c.4-.5.8-.8 1.4-.8c.4 0 .8.2 1.2.5c.3.4.5.8.5 1.4c0 .6-.2 1-.5 1.4c-.4.3-.8.5-1.2.5c-.6 0-1.1-.3-1.4-.8c-.02.01 0 1.8 0 1.8h-.6zm1.9-1.5c.3 0 .6-.1.9-.4c.2-.2.3-.6.3-1c0-.4-.1-.8-.3-1c-.3-.3-.6-.4-.9-.4c-.4 0-.7.1-.9.4c-.3.3-.4.6-.4 1c0 .4.1.7.4 1c.2.3.5.4.9.4zm5.2-.1c-.3.4-.8.6-1.3.6c-.4 0-.7-.1-1-.3c-.2-.2-.4-.5-.4-.9c0-.3.2-.6.4-.8c.3-.2.7-.3 1.2-.3c.3 0 .7 0 1.1.1v-.1c0-.3-.1-.6-.3-.7c-.2-.2-.5-.3-.8-.3c-.4 0-.7.1-1.1.3l-.2-.5c.5-.2.9-.3 1.4-.3c.5 0 .9.2 1.1.4c.3.3.4.6.4 1.1v2.2h-.5v-.5s-.02-.05 0 0zm-1.2.1c.3 0 .6 0 .8-.2c.3-.2.4-.4.4-.7v-.4c-.4-.1-.7-.1-1.1-.1c-.3 0-.6 0-.8.2c-.1.1-.2.3-.2.5c0 .2.1.4.2.6c.2.1.4.1.7.1zm2.8.4v-5.1h.6v3.5l1.9-2h.7l-1.5 1.5l1.6 2.1h-.7l-1.3-1.7l-.7.8v.9h-.6zm4.1 0v-5.1h.5v5.1h-.5zm4.2-.5c-.4.4-.8.6-1.4.6c-.3 0-.6-.1-.9-.3c-.3-.2-.4-.5-.4-.9c0-.3.1-.6.4-.8c.3-.2.7-.3 1.1-.3c.4 0 .8 0 1.2.1v-.1c0-.3-.1-.6-.3-.7c-.2-.2-.5-.3-.8-.3c-.4 0-.8.1-1.1.3l-.2-.5c.4-.2.9-.3 1.3-.3c.5 0 .9.2 1.2.4c.3.3.4.6.4 1.1c-.03-.01 0 2.2 0 2.2h-.5v-.5s-.04-.05 0 0zm-1.2.1c.3 0 .6 0 .8-.2c.2-.2.4-.4.4-.7v-.4c-.4-.1-.8-.1-1.1-.1c-.3 0-.6 0-.8.2c-.2.1-.3.3-.3.5c0 .2.1.4.3.6c.2.1.4.1.7.1zm2.8.4V32h.6s-.04.93 0 .9c.1-.3.3-.5.6-.7c.2-.2.5-.3.8-.3c.04.02 0 .6 0 .6c-.4 0-.8.1-1 .4c-.3.3-.4.7-.4 1.3c-.04-.04 0 1.4 0 1.4h-.6zm2 .9l-.1-.3c.4-.1.5-.3.5-.6h-.2v-.7h.6v.6c0 .3-.1.5-.2.6c-.1.2-.3.3-.6.4z" stroke="none" fill="#000"/></g><g id="Polygon400373"><path d="m3 10.3v-.7h.6v.7h-.6zm-1.3 0v-.7h.6v.7h-.6zm1 5.4c-.7 0-1.2-.2-1.5-.6c-.4-.4-.6-.9-.6-1.6c.02.05 0-2.8 0-2.8h.6s-.03 2.81 0 2.8c0 .5.1.9.4 1.2c.2.3.6.5 1.1.5c.4 0 .8-.2 1.1-.4c.2-.3.3-.7.3-1.3c.04.05 0-2.8 0-2.8h.6v2.8c0 .7-.2 1.2-.6 1.6c-.3.4-.8.6-1.4.6zm3.2-.1V12h.6s-.05.93 0 .9c.1-.3.3-.5.5-.7c.3-.2.6-.3.9-.3c.03.02 0 .6 0 .6c0 0-.01 0 0 0c-.4 0-.8.1-1 .4c-.3.3-.4.7-.4 1.3c-.05-.04 0 1.4 0 1.4h-.6zm4.7-4.2v-.6h.6v.6h-.6zm-1.3 0v-.6h.7v.6h-.7zm2 3.6c-.3.4-.7.7-1.2.7c-.4 0-.8-.2-1-.4c-.3-.3-.4-.6-.4-1.1c-.01.03 0-2.2 0-2.2h.5s.03 2.09 0 2.1c0 .3.1.6.3.8c.2.2.4.3.7.3c.3 0 .6-.1.8-.3c.2-.2.3-.5.3-.8c.02-.05 0-2.1 0-2.1h.6v3.6h-.6v-.6s.02-.03 0 0zm1.8.6V12h.5v.6c.3-.5.7-.7 1.2-.7c.5 0 .8.1 1.1.4c.2.3.3.6.3 1.1c.03-.05 0 2.2 0 2.2h-.5v-2.1c0-.4-.1-.6-.3-.8c-.2-.2-.4-.3-.7-.3c-.3 0-.6.1-.8.3c-.2.2-.3.5-.3.8v2.1h-.5zm6.5 0v-4.9h.5v2.9l2.8-2.9h.8l-2.2 2.1l2.2 2.8h-.7l-1.8-2.4l-1.1 1.1v1.3h-.5zm6.3.1c-.5 0-.9-.2-1.3-.6c-.3-.3-.5-.8-.5-1.3c0-.5.2-1 .5-1.3c.4-.4.8-.6 1.4-.6c.5 0 .9.2 1.3.6c.4.3.5.8.5 1.3c0 .5-.1 1-.5 1.3c-.4.4-.8.6-1.4.6zm.1-.5c.3 0 .7-.1.9-.4c.3-.3.4-.6.4-1c0-.4-.1-.7-.4-1c-.3-.3-.6-.4-1-.4c-.3 0-.7.1-.9.4c-.2.3-.4.6-.4 1c0 .4.2.7.4 1c.3.3.6.4 1 .4zm5.7-.3c-.3.5-.8.8-1.4.8c-.4 0-.8-.2-1.2-.5c-.3-.4-.5-.8-.5-1.4c0-.6.2-1 .5-1.4c.4-.3.8-.5 1.2-.5c.6 0 1.1.3 1.4.8c.02-.03 0-2.2 0-2.2h.6v5.1h-.6v-.7s.02-.03 0 0zm-1.3.3c.4 0 .7-.1 1-.4c.2-.3.3-.6.3-1c0-.4-.1-.8-.3-1c-.3-.3-.6-.4-1-.4c-.3 0-.6.1-.9.4c-.2.2-.3.6-.3 1c0 .4.1.8.3 1c.3.3.6.4.9.4zM36 15c-.3.4-.7.7-1.2.7c-.4 0-.8-.2-1-.4c-.3-.3-.4-.6-.4-1.1c.01.03 0-2.2 0-2.2h.5s.05 2.09 0 2.1c0 .3.1.6.3.8c.2.2.4.3.8.3c.3 0 .5-.1.7-.3c.2-.2.3-.5.3-.8c.04-.05 0-2.1 0-2.1h.6v3.6h-.6v-.6s.04-.03 0 0zm1.7-2.3v-.7h.7v.7h-.7zm0 2.9v-.7h.7v.7h-.7zm4.6 0v-3.8l-.9.2l-.2-.9l1.4-.4h.8v4.9h-1.1zm2.1 0v-.9l1.6-1.3l.6-.6c.2-.2.2-.4.2-.6c0-.2 0-.3-.1-.4c-.2-.1-.3-.2-.5-.2c-.2 0-.4 0-.5.1c-.2.1-.3.3-.5.6l-.8-.7c.3-.3.5-.6.8-.7c.3-.2.6-.3 1-.3c.5 0 1 .2 1.3.4c.3.3.4.7.4 1.1v.1c0 .3-.1.7-.3.9c-.1.3-.5.6-1 1c.04-.05-.8.6-.8.6h2.2v.9h-3.6zm6.2.1c-.6 0-1-.2-1.4-.4c-.3-.3-.5-.6-.5-1v-.1c0-.2 0-.5.2-.7c.1-.2.3-.3.6-.4c-.4-.3-.6-.6-.6-1.1c0-.4.1-.7.4-1c.4-.2.8-.4 1.3-.4c.5 0 .9.2 1.2.4c.3.3.5.6.5 1c0 .5-.2.8-.6 1.1c.2.1.4.3.6.4c.1.2.2.4.2.7c0 .5-.2.8-.6 1.1c-.3.2-.8.4-1.3.4zm-.7-3.6c0 .2 0 .3.2.4c.1.1.3.2.5.2c.2 0 .4-.1.5-.2c.1-.1.2-.2.2-.4c0-.2-.1-.3-.2-.4c-.1-.1-.3-.2-.5-.2c-.2 0-.4.1-.5.2c-.2.1-.2.2-.2.4c-.03-.01 0 0 0 0c0 0-.03 0 0 0zm.7 2.7c.2 0 .4-.1.6-.2c.1-.1.2-.3.2-.4c0-.2-.1-.4-.2-.5c-.2-.1-.4-.1-.6-.1c-.3 0-.5 0-.6.1c-.2.1-.3.3-.3.5c0 .1.1.3.3.4c.1.1.3.2.6.2zm4.4.9c-.8 0-1.5-.3-2-.9l.8-.7c.3.4.7.6 1.2.6c.2 0 .3 0 .5-.1c.1-.2.2-.3.2-.5c0-.2-.1-.3-.3-.5c-.2-.1-.4-.1-.7-.1h-.4l-.2-.7l1.2-1.2h-2v-.9h3.3v.8l-1.2 1.2c.9.1 1.3.6 1.3 1.4c0 .5-.1.8-.5 1.1c-.3.3-.7.5-1.2.5zm4.7 0c-.7 0-1.2-.3-1.6-.7c-.4-.5-.6-1.1-.6-1.8v-.1c0-.7.2-1.3.6-1.8c.4-.4.9-.7 1.6-.7c.6 0 1.1.3 1.6.7c.4.5.6 1.1.6 1.8c0 .8-.2 1.4-.7 1.9c-.4.4-.9.7-1.5.7zm-1.1-2.6c0 .5.1.9.3 1.2c.2.3.5.4.8.4c.3 0 .6-.1.8-.4c.2-.3.3-.7.3-1.1v-.1c0-.4-.1-.8-.3-1.1c-.2-.3-.5-.4-.8-.4c-.3 0-.6.1-.8.4c-.2.3-.3.7-.3 1.1c.01.04 0 0 0 0c0 0 .01.05 0 0z" stroke="none" fill="#000"/></g><g id="Polygon400372"><path d="m2.1 5.7c-.7 0-1.3-.3-1.8-.8l.7-.7c.3.3.7.5 1.1.5c.3 0 .5-.1.6-.2c.2-.1.2-.3.2-.5c0-.2 0-.4-.2-.5c-.2-.1-.4-.2-.6-.2c-.3 0-.6.1-.8.2c-.05.03-.7-.4-.7-.4L.8.7h3v.9H1.7s-.06.89-.1.9c.3-.1.5-.1.7-.1c.5 0 .9.1 1.2.4c.3.3.5.7.5 1.2c0 .5-.2.9-.5 1.2c-.3.3-.8.5-1.4.5zM4.7 3l-.1-.5c.5 0 .8-.3.7-.7c.01.02-.4 0-.4 0V.7h1.1s.01.94 0 .9c0 .5-.1.8-.3 1c-.2.2-.6.3-1 .4zm2.2-1.6v-.9h1.1v.9H6.9zm0 4.2V1.8h1.1v3.8H6.9zm5 0V1.8L11 2l-.2-.9l1.4-.4h.7v4.9h-1zm3.9 0L17.9.7h1L21 5.6h-1.1l-.4-1.1h-2.1l-.5 1.1h-1.1zm2-2.1h1.3L18.4 2l-.6 1.5zm3.9 2.1V1.8h1s.05.8 0 .8c.3-.6.7-.8 1.2-.8c.05-.02 0 1.1 0 1.1c0 0-.01-.01 0 0c-.4 0-.7.1-.9.3c-.2.2-.3.6-.3 1c.05.01 0 1.4 0 1.4h-1zm4.9-.4c-.3.3-.6.5-1.1.5c-.4 0-.7-.1-.9-.3c-.3-.2-.4-.5-.4-.9c0-.4.1-.7.4-.9c.3-.2.7-.3 1.1-.3c.3 0 .6.1.9.2v-.1c0-.5-.2-.7-.8-.7c-.3 0-.6.1-1 .2l-.3-.8c.5-.2 1-.3 1.5-.3c.6 0 1 .1 1.3.4c.2.3.4.7.4 1.2c-.04.02 0 2.2 0 2.2h-1.1v-.4s.03-.01 0 0zm-.8-.3c.3 0 .5 0 .6-.1c.2-.2.3-.3.3-.5v-.2c-.3-.1-.5-.2-.7-.2c-.3 0-.4.1-.6.2c-.1.1-.2.2-.2.4c0 .1.1.2.2.3c.1.1.2.1.4.1zm5.5.2c-.3.4-.7.6-1.2.6c-.4 0-.8-.2-1.2-.6c-.3-.3-.5-.8-.5-1.4c0-.6.2-1.1.5-1.4c.3-.3.7-.5 1.2-.5c.5 0 .9.2 1.2.5c-.01.04 0-1.8 0-1.8h1.1v5.1h-1.1v-.5s-.01-.04 0 0zm-1.8-1.4c0 .3.1.6.2.8c.2.2.4.3.7.3c.3 0 .5-.1.6-.3c.2-.2.3-.5.3-.8c0-.3-.1-.5-.3-.7c-.1-.2-.3-.3-.6-.3c-.3 0-.5.1-.7.3c-.1.2-.2.4-.2.7c-.02.02 0 0 0 0c0 0-.02.03 0 0zm6 1.5c-.3.3-.7.5-1.1.5c-.4 0-.7-.1-1-.3c-.2-.2-.3-.5-.3-.9c0-.4.1-.7.4-.9c.3-.2.6-.3 1.1-.3c.3 0 .6.1.9.2v-.1c0-.5-.3-.7-.8-.7c-.3 0-.7.1-1 .2l-.3-.8c.5-.2 1-.3 1.5-.3c.5 0 .9.1 1.2.4c.3.3.4.7.4 1.2c.03.02 0 2.2 0 2.2h-1v-.4s0-.01 0 0zm-.8-.3c.2 0 .4 0 .6-.1c.1-.2.2-.3.2-.5v-.2c-.2-.1-.4-.2-.7-.2c-.2 0-.4.1-.5.2c-.1.1-.2.2-.2.4c0 .1.1.2.2.3c.1.1.2.1.4.1zm4.5.7L41.3.7h1l2.1 4.9h-1.1l-.4-1.1h-2.1l-.5 1.1h-1.1zm2-2.1h1.3L41.8 2l-.6 1.5zm5.2 3.3l-.9-.4s.58-.8.6-.8c-.4-.1-.8-.4-1-.7c-.3-.3-.4-.7-.4-1.2c0-.5.2-1 .6-1.4c.4-.3.8-.5 1.4-.5c.6 0 1.1.2 1.5.6l-.7.7c-.1-.1-.2-.2-.4-.3c-.1-.1-.2-.1-.4-.1c-.3 0-.5.1-.7.3c-.1.2-.2.4-.2.7c0 .3.1.6.2.8c.2.2.4.3.7.3c.3 0 .6-.2.9-.4l.6.6c-.2.2-.4.4-.6.5c-.2.1-.4.2-.7.2c-.05-.02-.5 1.1-.5 1.1zm4.7-1.6c-.3.3-.7.5-1.1.5c-.4 0-.7-.1-1-.3c-.2-.2-.3-.5-.3-.9c0-.4.1-.7.4-.9c.3-.2.6-.3 1.1-.3c.3 0 .6.1.9.2v-.1c0-.5-.3-.7-.8-.7c-.3 0-.7.1-1 .2l-.3-.8c.5-.2 1-.3 1.5-.3c.5 0 .9.1 1.2.4c.3.3.4.7.4 1.2c.03.02 0 2.2 0 2.2h-1v-.4s0-.01 0 0zm-.8-.3c.2 0 .4 0 .6-.1c.1-.2.2-.3.2-.5v-.2c-.2-.1-.4-.2-.7-.2c-.2 0-.4.1-.5.2c-.1.1-.2.2-.2.4c0 .1.1.2.2.3c.1.1.2.1.4.1zm4.5.8c-.5 0-1-.2-1.4-.6c-.4-.4-.5-.8-.5-1.4c0-.5.1-1 .5-1.4c.4-.3.9-.5 1.4-.5c.6 0 1.1.2 1.5.6l-.6.7c-.2-.1-.3-.2-.4-.3c-.1-.1-.3-.1-.5-.1c-.2 0-.5.1-.6.3c-.2.2-.3.4-.3.7c0 .3.1.6.3.8c.2.2.4.3.7.3c.3 0 .5-.2.8-.4l.6.6c-.2.2-.4.4-.6.5c-.2.1-.5.2-.9.2zm4.4-.5c-.2.3-.6.5-1.1.5c-.4 0-.7-.1-.9-.3c-.3-.2-.4-.5-.4-.9c0-.4.2-.7.4-.9c.3-.2.7-.3 1.1-.3c.3 0 .6.1.9.2v-.1c0-.5-.2-.7-.8-.7c-.3 0-.6.1-1 .2l-.3-.8c.5-.2 1-.3 1.5-.3c.6 0 1 .1 1.3.4c.2.3.4.7.4 1.2c-.03.02 0 2.2 0 2.2h-1.1v-.4s.04-.01 0 0zm-.8-.3c.3 0 .5 0 .6-.1c.2-.2.3-.3.3-.5v-.2c-.2-.1-.5-.2-.7-.2c-.2 0-.4.1-.6.2c-.1.1-.2.2-.2.4c0 .1.1.2.2.3c.1.1.3.1.4.1zm2.8.7V.5h1.1v2.7l1.2-1.4h1.3l-1.5 1.5l1.5 2.3h-1.2l-1-1.5l-.3.4v1.1h-1.1zm5.9 0L69.2.7h1l2.1 4.9h-1.1l-.5-1.1h-2l-.5 1.1h-1.1zm2-2.1h1.3L69.7 2l-.6 1.5zm4 2.1V.7h2c.6 0 1 .2 1.3.5c.4.3.6.7.6 1.2c0 .6-.2 1-.6 1.3c-.4.3-.9.4-1.4.4c-.03.03-.8 0-.8 0v1.5h-1.1zm1.1-2.4s.8-.03.8 0c.3 0 .5-.1.6-.2c.2-.2.3-.4.3-.6c0-.2-.1-.4-.3-.5c-.1-.2-.3-.2-.6-.2c-.02-.03-.8 0-.8 0v1.5zm3.5 2.4V.7h3.7v1h-2.6v1h2.3v.9h-2.3v1h2.7v1h-3.8zm4.7 0V.7h2.3c.6 0 1.1.2 1.4.5c.3.3.4.7.4 1.1c0 .8-.3 1.3-1 1.5c-.02.05 1.2 1.8 1.2 1.8h-1.3l-1-1.6h-.9v1.6h-1.1zm1.1-2.5s1.11-.02 1.1 0c.3 0 .5-.1.6-.2c.2-.1.2-.3.2-.5c0-.3 0-.4-.2-.5c-.1-.2-.3-.2-.6-.2c-.01-.03-1.1 0-1.1 0v1.4zm5.1 2.5V1.7h-1.5v-1h4.1v1h-1.5v3.9h-1.1zm8.2-2.5c0 .8-.2 1.4-.7 1.8c-.5.5-1.1.8-1.9.8c-.7 0-1.4-.3-1.9-.7c-.4-.5-.7-1.1-.7-1.8v-.1c0-.7.3-1.3.8-1.7c.5-.5 1.1-.8 1.8-.8c.8 0 1.4.3 1.9.7c.5.5.7 1.1.7 1.8c.02.04 0 0 0 0c0 0 .02.05 0 0zm-4.1 0c0 .5.2.8.5 1.1c.2.3.6.5 1 .5c.4 0 .8-.2 1.1-.5c.3-.2.4-.6.4-1v-.1c0-.4-.2-.7-.4-1c-.3-.3-.7-.5-1.1-.5c-.4 0-.8.2-1.1.5c-.2.2-.4.6-.4 1c.04.04 0 0 0 0c0 0 .04.05 0 0z" stroke="none" fill="#000"/></g></svg>