<?xml version="1.0" standalone="no"?><!DOCTYPE svg PUBLIC "-//W3C//DTD SVG 1.1//EN" "http://www.w3.org/Graphics/SVG/1.1/DTD/svg11.dtd"><svg xmlns="http://www.w3.org/2000/svg" version="1.1" width="16.2px" height="12.4px" viewBox="0 -1 16.2 12.4" style="top:-1px">  <desc> </desc>  <defs/>  <g id="Polygon387755">    <path d="M 1.3 7.5 L 1.3 3.1 L 0.3 3.4 L 0.2 3 L 1.4 2.5 L 1.8 2.5 L 1.8 7.5 L 1.3 7.5 Z M 4.6 7.6 C 4 7.6 3.4 7.3 2.9 6.8 C 2.9 6.8 3.2 6.4 3.2 6.4 C 3.7 6.8 4.2 7.1 4.6 7.1 C 5 7.1 5.3 7 5.5 6.7 C 5.7 6.5 5.8 6.3 5.8 6 C 5.8 6 5.8 6 5.8 6 C 5.8 5.7 5.7 5.4 5.5 5.2 C 5.2 5 5 4.9 4.6 4.9 C 4.2 4.9 3.9 5 3.6 5.2 C 3.57 5.21 3.2 5 3.2 5 L 3.3 2.6 L 6.2 2.6 L 6.2 3.1 L 3.8 3.1 C 3.8 3.1 3.72 4.66 3.7 4.7 C 4 4.5 4.4 4.4 4.7 4.4 C 5.2 4.4 5.6 4.6 5.9 4.8 C 6.2 5.1 6.4 5.5 6.4 5.9 C 6.4 5.9 6.4 6 6.4 6 C 6.4 6.4 6.2 6.8 5.9 7.1 C 5.6 7.4 5.1 7.6 4.6 7.6 Z M 9.8 7.5 L 9.8 6.3 L 7.2 6.3 L 7.1 5.9 L 9.9 2.5 L 10.3 2.5 L 10.3 5.9 L 11.1 5.9 L 11.1 6.3 L 10.3 6.3 L 10.3 7.5 L 9.8 7.5 Z M 7.8 5.9 L 9.8 5.9 L 9.8 3.3 L 7.8 5.9 Z " stroke="none" fill="#000"/>  </g></svg>