<?xml version="1.0" standalone="no"?><!DOCTYPE svg PUBLIC "-//W3C//DTD SVG 1.1//EN" "http://www.w3.org/Graphics/SVG/1.1/DTD/svg11.dtd"><svg xmlns="http://www.w3.org/2000/svg" version="1.1" width="217px" height="120.8px" viewBox="0 -3 217 120.8" style="top:-3px"><desc>SLIZE Kesme Tahtas k k r n Kodu: 13965 Boyutlar: Uzunluk 30 cm, Geni lik 20 cm, Y kseklik 0.7 cm</desc><defs/><g id="Polygon361409"><path d="m5.4 29.7c0 .3-.1.5-.2.7c-.2.2-.4.3-.7.3c-.2 0-.5-.1-.6-.3c-.2-.2-.3-.4-.3-.7c0-.2.1-.4.3-.6c.1-.2.4-.3.6-.3c.3 0 .5.1.6.3c.2.2.3.4.3.6c.02.03 0 0 0 0c0 0 .02.04 0 0zm6.6 2.5v-4.9h2.1c.6 0 1 .1 1.3.4c.2.2.3.5.3.8c0 .6-.2.9-.8 1.2c.7.2 1.1.6 1.1 1.1v.1c0 .4-.2.7-.5.9c-.3.3-.8.4-1.3.4H12zm3.2-3.6c0-.3-.1-.4-.3-.6c-.2-.1-.5-.2-.8-.2h-1.5v1.7s1.43-.02 1.4 0c.4 0 .6-.1.8-.2c.3-.2.4-.4.4-.7zm.2 2.2c0-.3-.1-.5-.3-.6c-.2-.2-.6-.2-1-.2c.02-.03-1.5 0-1.5 0v1.7h1.6c.4 0 .7-.1.9-.2c.2-.2.3-.4.3-.7zm3.2 1.5c-.5 0-.9-.2-1.3-.6c-.4-.3-.5-.8-.5-1.3c0-.5.2-1 .5-1.3c.4-.4.8-.6 1.4-.6c.5 0 .9.2 1.3.6c.4.3.5.8.5 1.3c0 .5-.1 1-.5 1.3c-.4.4-.8.6-1.4.6zm.1-.5c.3 0 .7-.1.9-.4c.3-.3.4-.6.4-1c0-.4-.1-.7-.4-1c-.3-.3-.6-.4-1-.4c-.3 0-.7.1-.9.4c-.3.3-.4.6-.4 1c0 .4.2.7.4 1c.3.3.6.4 1 .4zm4.2-.2l1.1-3h.6s-1.53 3.72-1.5 3.7c-.2.4-.3.6-.5.8c-.2.2-.5.2-.7.2c-.3 0-.6 0-.8-.1l.2-.5c.2.1.3.2.5.2c.2 0 .4-.1.5-.2c.1-.1.2-.3.3-.5l-1.7-3.6h.6l1.4 3zm5.1 0c-.3.4-.7.7-1.2.7c-.5 0-.8-.2-1-.4c-.3-.3-.4-.6-.4-1.1c-.01.03 0-2.2 0-2.2h.5s.03 2.09 0 2.1c0 .3.1.6.3.8c.2.2.4.3.7.3c.3 0 .6-.1.8-.3c.2-.2.3-.5.3-.8v-2.1h.5v3.6h-.5v-.6s.01-.03 0 0zm3.6.5c-.2.1-.4.2-.6.2c-.3 0-.6-.1-.8-.3c-.2-.2-.3-.4-.3-.8c.04.04 0-2.1 0-2.1h-.5v-.5h.5v-1.1h.6v1.1h1.1v.5h-1.1s-.02 2.07 0 2.1c0 .4.2.6.6.6c.2 0 .3-.1.5-.2c.02.05 0 .5 0 .5c0 0 .02.01 0 0zm1 .1v-5.1h.6v5.1h-.6zm4.2-.5c-.3.4-.7.6-1.3.6c-.4 0-.7-.1-.9-.3c-.3-.2-.4-.5-.4-.9c0-.3.1-.6.4-.8c.3-.2.6-.3 1.1-.3c.4 0 .7 0 1.1.1v-.1c0-.3-.1-.6-.3-.7c-.2-.2-.4-.3-.8-.3c-.3 0-.7.1-1.1.3l-.1-.5c.4-.2.8-.3 1.3-.3c.5 0 .9.2 1.2.4c.2.3.3.6.3 1.1c.03-.01 0 2.2 0 2.2h-.5v-.5s.01-.05 0 0zm-1.2.1c.3 0 .6 0 .9-.2c.2-.2.3-.4.3-.7v-.4c-.3-.1-.7-.1-1-.1c-.4 0-.6 0-.8.2c-.2.1-.3.3-.3.5c0 .2.1.4.3.6c.1.1.4.1.6.1zm2.9.4v-3.6h.5s.02.93 0 .9c.2-.3.4-.5.6-.7c.3-.2.6-.3.9-.3v.6s-.05 0 0 0c-.5 0-.8.1-1.1.4c-.2.3-.4.7-.4 1.3c.02-.04 0 1.4 0 1.4h-.5zm2.8-2.9v-.7h.6v.7h-.6zm0 2.9v-.7h.6v.7h-.6zm5.9.1c-.6 0-1.1-.2-1.4-.6c-.4-.4-.6-.9-.6-1.6v-2.8h.6s-.04 2.81 0 2.8c0 .5.1.9.3 1.2c.3.3.7.5 1.2.5c.4 0 .8-.2 1-.4c.3-.3.4-.7.4-1.3c.03.05 0-2.8 0-2.8h.6v2.8c0 .7-.2 1.2-.6 1.6c-.3.4-.8.6-1.5.6zm3.1-.1v-.3l2.4-2.9h-2.3v-.4h3v.3L51 31.7h2.4v.5h-3.1zm6.7-.6c-.3.4-.7.7-1.3.7c-.4 0-.7-.2-1-.4c-.2-.3-.4-.6-.4-1.1c.04.03 0-2.2 0-2.2h.6s-.02 2.09 0 2.1c0 .3.1.6.2.8c.2.2.5.3.8.3c.3 0 .6-.1.8-.3c.2-.2.3-.5.3-.8c-.04-.05 0-2.1 0-2.1h.5v3.6h-.5v-.6s-.04-.03 0 0zm1.7.6v-3.6h.5s.05.61 0 .6c.3-.5.8-.7 1.3-.7c.4 0 .8.1 1 .4c.2.3.4.6.4 1.1c-.03-.05 0 2.2 0 2.2h-.6s.03-2.11 0-2.1c0-.4-.1-.6-.2-.8c-.2-.2-.5-.3-.8-.3c-.3 0-.5.1-.7.3c-.3.2-.4.5-.4.8c.05.03 0 2.1 0 2.1h-.5zm4.4 0v-5.1h.5v5.1h-.5zm4.3-.6c-.3.4-.7.7-1.2.7c-.4 0-.8-.2-1-.4c-.3-.3-.4-.6-.4-1.1v-2.2h.5s.04 2.09 0 2.1c0 .3.1.6.3.8c.2.2.4.3.7.3c.4 0 .6-.1.8-.3c.2-.2.3-.5.3-.8c.03-.05 0-2.1 0-2.1h.6v3.6h-.6v-.6s.03-.03 0 0zm1.8.6v-5.1h.5v3.5l2-2h.6l-1.5 1.5l1.6 2.1h-.7l-1.3-1.7l-.7.8v.9h-.5zm7.6.1c-.7 0-1.4-.3-1.8-.9l.4-.3c.4.4.9.7 1.4.7c.3 0 .6-.1.8-.3c.2-.2.3-.4.3-.7c0-.3-.1-.5-.4-.7c-.2-.1-.6-.2-1-.2c.04-.03-.3 0-.3 0l-.1-.4l1.6-1.7h-2.4v-.5h3.1v.4s-1.55 1.71-1.5 1.7c.4.1.8.2 1.1.4c.3.2.5.6.5 1c0 .4-.2.8-.5 1.1c-.3.2-.7.4-1.2.4zm6.7-2.6c0 .8-.2 1.4-.6 1.8c-.3.5-.8.8-1.5.8c-.6 0-1.1-.3-1.5-.7c-.3-.5-.5-1.1-.5-1.8v-.1c0-.7.2-1.3.6-1.7c.3-.5.8-.8 1.5-.8c.6 0 1.1.3 1.4.7c.4.5.6 1.1.6 1.8c.02.04 0 0 0 0c0 0 .02.05 0 0zm-3.5 0c0 .6.1 1.1.4 1.5c.2.4.6.6 1.1.6c.4 0 .8-.2 1-.6c.3-.4.4-.9.4-1.4v-.1c0-.5-.1-1-.4-1.4c-.3-.4-.6-.6-1.1-.6c-.4 0-.8.2-1 .6c-.3.4-.4.9-.4 1.4c-.05.04 0 0 0 0c0 0-.05.05 0 0zm9.8 1.9c-.5.5-.9.7-1.5.7c-.5 0-1-.2-1.3-.6c-.4-.3-.6-.8-.6-1.3c0-.5.2-1 .6-1.3c.3-.4.8-.6 1.3-.6c.5 0 1 .2 1.4.6l-.3.4c-.4-.3-.7-.5-1.1-.5c-.4 0-.7.1-.9.4c-.3.3-.4.6-.4 1c0 .4.1.7.4 1c.2.3.5.4.9.4c.4 0 .8-.2 1.1-.5c.02-.04.4.3.4.3c0 0-.04-.02 0 0zm.8.6v-3.6h.6v.6c.1-.2.3-.4.5-.5c.1-.1.4-.2.7-.2c.5 0 .9.2 1.1.7c.3-.5.8-.7 1.3-.7c.4 0 .7.1 1 .4c.2.3.3.6.3 1.1c.04-.04 0 2.2 0 2.2h-.5v-2.1c0-.4-.1-.6-.3-.8c-.1-.2-.3-.3-.6-.3c-.3 0-.6.1-.8.3c-.1.2-.2.5-.2.8c-.04.01 0 2.1 0 2.1h-.6s.03-2.13 0-2.1c0-.4-.1-.6-.2-.8c-.2-.2-.4-.3-.7-.3c-.3 0-.5.1-.7.3c-.2.2-.3.5-.3.8v2.1h-.6zm6.5.9l-.1-.3c.3-.1.5-.3.5-.6h-.3v-.7h.7s-.03.59 0 .6c0 .3-.1.5-.2.6c-.1.2-.3.3-.6.4zm8.3-1.6c-.5.5-1.2.8-1.9.8c-.8 0-1.4-.3-1.8-.7c-.5-.5-.7-1.1-.7-1.8v-.1c0-.6.2-1.2.7-1.7c.4-.5 1-.8 1.7-.8c.4 0 .8.1 1 .2c.3.1.6.2.9.5l-.4.4c-.4-.4-.9-.6-1.5-.6c-.5 0-1 .2-1.3.6c-.4.4-.6.9-.6 1.4c0 .6.2 1.1.6 1.5c.3.4.8.6 1.4.6c.5 0 1-.2 1.4-.5v-1.2h-1.5v-.5h2v1.9s.03.03 0 0zm4.3.1c-.4.5-.9.7-1.5.7c-.5 0-1-.2-1.3-.5c-.4-.4-.5-.8-.5-1.4c0-.5.1-1 .5-1.4c.3-.3.7-.5 1.2-.5c.5 0 .9.2 1.2.5c.3.4.5.9.5 1.4v.2h-2.9c0 .4.2.7.4.9c.3.2.6.3.9.3c.4 0 .8-.2 1.1-.5c.02 0 .4.3.4.3c0 0-.04 0 0 0zm-2.8-1.4h2.3c0-.4-.1-.7-.3-.9c-.2-.2-.5-.3-.8-.3c-.3 0-.6.1-.8.3c-.2.2-.4.5-.4.9zm3.8 2v-3.6h.6s-.03.61 0 .6c.3-.5.7-.7 1.2-.7c.4 0 .8.1 1 .4c.3.3.4.6.4 1.1v2.2h-.5s-.04-2.11 0-2.1c0-.4-.1-.6-.3-.8c-.2-.2-.4-.3-.7-.3c-.4 0-.6.1-.8.3c-.2.2-.3.5-.3.8c-.03.03 0 2.1 0 2.1h-.6zm4.4-4.4v-.6h.6v.6h-.6zm0 4.4v-3.6h.5v3.6h-.5zm2.7 1.1l-.6-.3l.6-.8c-.5 0-.9-.2-1.2-.5l.3-.3c.4.3.8.4 1.2.4c.2 0 .4 0 .6-.1c.1-.1.2-.3.2-.5c0-.1-.1-.3-.3-.4c-.1 0-.4-.1-.6-.2c-.2 0-.3-.1-.3-.1c-.1 0-.2-.1-.3-.1c-.1 0-.2-.1-.3-.1c0-.1-.1-.1-.1-.2c-.1-.1-.2-.1-.2-.2v-.3c0-.4.1-.6.3-.8c.2-.2.5-.3.9-.3c.5 0 .9.2 1.3.4l-.3.4c-.3-.2-.7-.3-1-.3c-.2 0-.4 0-.5.1c-.2.1-.2.2-.2.4v.2c.1 0 .1.1.2.1c0 .1.1.1.2.2h.2c.1.1.2.1.3.1c.1.1.3.1.3.1c.1.1.2.1.4.2c.1 0 .2.1.2.2c.1 0 .2.1.2.2c0 .1.1.2.1.4c0 .3-.1.5-.3.7c-.3.2-.5.3-.9.4l-.4 1zm2.6-1.1v-5.1h.6v5.1h-.6zm1.8-4.4v-.6h.6v.6h-.6zm.1 4.4v-3.6h.5v3.6h-.5zm1.8 0v-5.1h.5v3.5l1.9-2h.7l-1.5 1.5l1.6 2.1h-.7l-1.3-1.7l-.7.8v.9h-.5zm5.8 0v-.4s1.75-1.6 1.7-1.6c.4-.3.7-.6.8-.8c.2-.3.3-.5.3-.7c0-.3-.1-.5-.3-.7c-.2-.2-.4-.3-.7-.3c-.3 0-.5.1-.7.2c-.2.2-.4.4-.6.7l-.4-.3c.2-.4.5-.7.7-.8c.3-.2.6-.3 1-.3c.5 0 .8.2 1.1.4c.3.3.4.6.4 1c0 .4 0 .7-.2.9c-.2.3-.5.6-1 1c0 .03-1.3 1.2-1.3 1.2h2.6v.5h-3.4zm8.4-2.5c0 .8-.2 1.4-.6 1.8c-.4.5-.9.8-1.5.8c-.6 0-1.1-.3-1.5-.7c-.3-.5-.5-1.1-.5-1.8v-.1c0-.7.2-1.3.5-1.7c.4-.5.9-.8 1.5-.8c.7 0 1.2.3 1.5.7c.4.5.6 1.1.6 1.8c0 .04 0 0 0 0c0 0 0 .05 0 0zm-3.6 0c0 .6.2 1.1.5 1.5c.2.4.6.6 1 .6c.5 0 .8-.2 1.1-.6c.3-.4.4-.9.4-1.4v-.1c0-.5-.1-1-.4-1.4c-.3-.4-.6-.6-1.1-.6c-.4 0-.8.2-1.1.6c-.2.4-.4.9-.4 1.4c.03.04 0 0 0 0c0 0 .03.05 0 0zm9.8 1.9c-.4.5-.9.7-1.4.7c-.6 0-1-.2-1.4-.6c-.3-.3-.5-.8-.5-1.3c0-.5.2-1 .5-1.3c.4-.4.8-.6 1.4-.6c.5 0 1 .2 1.4.6l-.3.4c-.4-.3-.8-.5-1.1-.5c-.4 0-.7.1-1 .4c-.2.3-.3.6-.3 1c0 .4.1.7.3 1c.3.3.6.4 1 .4c.4 0 .8-.2 1.1-.5c0-.04.3.3.3.3c0 0 .04-.02 0 0zm.9.6v-3.6h.6s-.03.59 0 .6c.1-.2.3-.4.5-.5c.1-.1.4-.2.6-.2c.6 0 1 .2 1.2.7c.3-.5.7-.7 1.3-.7c.4 0 .7.1 1 .4c.2.3.3.6.3 1.1c.02-.04 0 2.2 0 2.2h-.5s-.02-2.11 0-2.1c0-.4-.1-.6-.3-.8c-.1-.2-.4-.3-.7-.3c-.2 0-.5.1-.7.3c-.2.2-.3.5-.3.8c.04.01 0 2.1 0 2.1h-.5v-2.1c0-.4-.1-.6-.2-.8c-.2-.2-.4-.3-.7-.3c-.3 0-.6.1-.7.3c-.2.2-.3.5-.3.8c-.03.03 0 2.1 0 2.1h-.6zm6.5.9l-.1-.3c.3-.1.5-.3.5-.6h-.3v-.7h.6s.05.59 0 .6c0 .3 0 .5-.1.6c-.2.2-.4.3-.6.4zm5.6-.9v-1.9l-2-3h.6l1.7 2.4l1.7-2.4h.6l-2 3v1.9h-.6zm4.7-4.2v-.6h.6v.6h-.6zm-1.2 0v-.6h.6v.6h-.6zm1.9 3.6c-.3.4-.7.7-1.2.7c-.4 0-.8-.2-1-.4c-.3-.3-.4-.6-.4-1.1c.01.03 0-2.2 0-2.2h.6s-.05 2.09 0 2.1c0 .3 0 .6.2.8c.2.2.4.3.8.3c.3 0 .5-.1.7-.3c.2-.2.3-.5.3-.8c.04-.05 0-2.1 0-2.1h.6v3.6h-.6v-.6s.04-.03 0 0zm1.8.6v-5.1h.5v3.5l2-2h.6l-1.5 1.5l1.6 2.1h-.7l-1.2-1.7l-.8.8v.9h-.5zm5.1.1c-.5 0-1-.2-1.5-.6l.3-.3c.4.3.8.4 1.2.4c.3 0 .4 0 .6-.1c.1-.1.2-.3.2-.5c0-.1-.1-.3-.2-.4c-.2 0-.4-.1-.7-.2c-.1 0-.2-.1-.3-.1c-.1 0-.2-.1-.3-.1c-.1 0-.2-.1-.2-.1c-.1-.1-.2-.1-.2-.2l-.2-.2v-.3c0-.4.1-.6.3-.8c.3-.2.6-.3.9-.3c.5 0 .9.2 1.3.4l-.2.4c-.4-.2-.7-.3-1.1-.3c-.2 0-.4 0-.5.1c-.1.1-.2.2-.2.4c0 .1 0 .1.1.2s0 .1.1.1c0 .1.1.1.2.2h.3c0 .1.1.1.2.1c.2.1.3.1.4.1c.1.1.2.1.3.2c.1 0 .2.1.3.2c0 0 .1.1.1.2c.1.1.1.2.1.4c0 .3-.1.6-.4.8c-.2.2-.5.3-.9.3zm5.4-.7c-.4.5-.9.7-1.5.7c-.5 0-.9-.2-1.3-.5c-.3-.4-.5-.8-.5-1.4c0-.5.1-1 .5-1.4c.3-.3.7-.5 1.2-.5c.5 0 .9.2 1.2.5c.3.4.5.9.5 1.4v.2h-2.9c.1.4.2.7.4.9c.3.2.6.3.9.3c.4 0 .8-.2 1.1-.5c.04 0 .4.3.4.3c0 0-.03 0 0 0zm-2.8-1.4h2.4c-.1-.4-.2-.7-.4-.9c-.2-.2-.5-.3-.8-.3c-.3 0-.6.1-.8.3c-.2.2-.3.5-.4.9zm3.8 2v-5.1h.6v3.5l1.9-2h.7l-1.5 1.5l1.6 2.1h-.7l-1.3-1.7l-.7.8v.9h-.6zm4.1 0v-5.1h.5v5.1h-.5zm1.8-4.4v-.6h.6v.6h-.6zm0 4.4v-3.6h.6v3.6h-.6zm1.8 0v-5.1h.5v3.5l2-2h.7l-1.5 1.5l1.5 2.1h-.6l-1.3-1.7l-.8.8v.9h-.5zm10.1-2.5c0 .8-.2 1.4-.6 1.8c-.4.5-.9.8-1.5.8c-.6 0-1.1-.3-1.5-.7c-.4-.5-.6-1.1-.6-1.8v-.1c0-.7.2-1.3.6-1.7c.4-.5.9-.8 1.5-.8c.6 0 1.1.3 1.5.7c.4.5.6 1.1.6 1.8c-.04.04 0 0 0 0c0 0-.04.05 0 0zm-3.6 0c0 .6.1 1.1.4 1.5c.3.4.7.6 1.1.6c.5 0 .8-.2 1.1-.6c.3-.4.4-.9.4-1.4v-.1c0-.5-.2-1-.4-1.4c-.3-.4-.7-.6-1.1-.6c-.5 0-.8.2-1.1.6c-.3.4-.4.9-.4 1.4c0 .04 0 0 0 0c0 0 0 .05 0 0zm4.4 2.5v-.7h.6v.7h-.6zm2 0l2.2-4.4h-2.7v-.5h3.3v.4l-2.2 4.5h-.6zm9-.6c-.4.5-.9.7-1.5.7c-.5 0-.9-.2-1.3-.6c-.3-.3-.5-.8-.5-1.3c0-.5.2-1 .5-1.3c.4-.4.8-.6 1.3-.6c.6 0 1.1.2 1.5.6l-.4.4c-.3-.3-.7-.5-1.1-.5c-.3 0-.7.1-.9.4c-.2.3-.4.6-.4 1c0 .4.2.7.4 1c.3.3.6.4 1 .4c.4 0 .7-.2 1.1-.5l.3.3s.01-.02 0 0zm.9.6v-3.6h.5s.03.59 0 .6c.2-.2.3-.4.5-.5c.2-.1.4-.2.7-.2c.5 0 .9.2 1.2.7c.3-.5.7-.7 1.2-.7c.5 0 .8.1 1 .4c.3.3.4.6.4 1.1c-.02-.04 0 2.2 0 2.2h-.6s.04-2.11 0-2.1c0-.4 0-.6-.2-.8c-.2-.2-.4-.3-.7-.3c-.3 0-.5.1-.7.3c-.2.2-.3.5-.3.8v2.1h-.5s-.03-2.13 0-2.1c0-.4-.1-.6-.3-.8c-.1-.2-.4-.3-.7-.3c-.2 0-.5.1-.7.3c-.2.2-.3.5-.3.8c.03.03 0 2.1 0 2.1h-.5z" stroke="none" fill="#4f4f4e"/></g><g id="Polygon361408"><path d="m3 12.9v-.7h.6v.7h-.6zm-1.3 0v-.7h.6v.7h-.6zm1 5.4c-.7 0-1.2-.2-1.5-.6c-.4-.4-.6-.9-.6-1.6c.02.05 0-2.8 0-2.8h.6s-.03 2.81 0 2.8c0 .5.1.9.4 1.2c.2.3.6.5 1.1.5c.4 0 .8-.2 1.1-.4c.2-.3.3-.7.3-1.3c.04.05 0-2.8 0-2.8h.6v2.8c0 .7-.2 1.2-.6 1.6c-.3.4-.8.6-1.4.6zm3.2-.1v-3.6h.6s-.05.93 0 .9c.1-.3.3-.5.5-.7c.3-.2.6-.3.9-.3c.03.02 0 .6 0 .6c0 0-.01 0 0 0c-.4 0-.8.1-1 .4c-.3.3-.4.7-.4 1.3c-.05-.04 0 1.4 0 1.4h-.6zm4.7-4.2v-.6h.6v.6h-.6zm-1.3 0v-.6h.7v.6h-.7zm2 3.6c-.3.4-.7.7-1.2.7c-.4 0-.8-.2-1-.4c-.3-.3-.4-.6-.4-1.1c-.01.03 0-2.2 0-2.2h.5s.03 2.09 0 2.1c0 .3.1.6.3.8c.2.2.4.3.7.3c.3 0 .6-.1.8-.3c.2-.2.3-.5.3-.8c.02-.05 0-2.1 0-2.1h.6v3.6h-.6v-.6s.02-.03 0 0zm1.8.6v-3.6h.5v.6c.3-.5.7-.7 1.2-.7c.5 0 .8.1 1.1.4c.2.3.3.6.3 1.1c.03-.05 0 2.2 0 2.2h-.5v-2.1c0-.4-.1-.6-.3-.8c-.2-.2-.4-.3-.7-.3c-.3 0-.6.1-.8.3c-.2.2-.3.5-.3.8v2.1h-.5zm6.5 0v-4.9h.5v2.9l2.8-2.9h.8l-2.2 2.1l2.2 2.8h-.7l-1.8-2.4l-1.1 1.1v1.3h-.5zm6.3.1c-.5 0-.9-.2-1.3-.6c-.3-.3-.5-.8-.5-1.3c0-.5.2-1 .5-1.3c.4-.4.8-.6 1.4-.6c.5 0 .9.2 1.3.6c.4.3.5.8.5 1.3c0 .5-.1 1-.5 1.3c-.4.4-.8.6-1.4.6zm.1-.5c.3 0 .7-.1.9-.4c.3-.3.4-.6.4-1c0-.4-.1-.7-.4-1c-.3-.3-.6-.4-1-.4c-.3 0-.6.1-.9.4c-.2.3-.4.6-.4 1c0 .4.2.7.4 1c.3.3.6.4 1 .4zm5.7-.3c-.3.5-.8.8-1.4.8c-.4 0-.8-.2-1.2-.5c-.3-.4-.5-.8-.5-1.4c0-.6.2-1 .5-1.4c.4-.3.8-.5 1.2-.5c.6 0 1.1.3 1.4.8c.02-.03 0-2.2 0-2.2h.6v5.1h-.6v-.7s.02-.03 0 0zm-1.3.3c.4 0 .7-.1 1-.4c.2-.3.3-.6.3-1c0-.4-.1-.8-.3-1c-.3-.3-.6-.4-1-.4c-.3 0-.6.1-.9.4c-.2.2-.3.6-.3 1c0 .4.1.8.3 1c.3.3.6.4.9.4zm5.6-.2c-.3.4-.7.7-1.2.7c-.4 0-.8-.2-1-.4c-.3-.3-.4-.6-.4-1.1c.01.03 0-2.2 0-2.2h.6s-.05 2.09 0 2.1c0 .3 0 .6.2.8c.2.2.4.3.8.3c.3 0 .5-.1.7-.3c.2-.2.3-.5.3-.8c.04-.05 0-2.1 0-2.1h.6v3.6h-.6v-.6s.04-.03 0 0zm1.7-2.3v-.7h.7v.7h-.7zm0 2.9v-.7h.7v.7h-.7zm4.6 0v-3.8l-.9.2l-.2-.9l1.4-.4h.8v4.9h-1.1zm3.9.1c-.8 0-1.5-.3-1.9-.9l.7-.7c.4.4.8.6 1.2.6c.2 0 .4 0 .5-.1c.1-.2.2-.3.2-.5c0-.2-.1-.3-.3-.5c-.1-.1-.4-.1-.7-.1h-.4l-.2-.7l1.2-1.2h-1.9v-.9h3.3v.8s-1.27 1.19-1.3 1.2c.9.1 1.4.6 1.4 1.4c0 .5-.2.8-.5 1.1c-.3.3-.8.5-1.3.5zm3.2-1.4c.3.3.7.4 1.1.4c.2 0 .4-.1.5-.2c.2-.1.3-.3.4-.4c0-.2 0-.3.1-.5c-.3.2-.6.3-1 .3c-.6 0-1-.1-1.3-.4c-.3-.3-.5-.7-.5-1.2c0-.5.2-.9.5-1.2c.4-.3.8-.5 1.4-.5c.3 0 .6.1.8.1c.2.1.4.3.6.4c.4.4.6 1.1.6 1.9c0 .8-.2 1.5-.6 2c-.4.4-.9.7-1.6.7c-.6 0-1.1-.2-1.6-.6c.03 0 .6-.8.6-.8c0 0-.01-.02 0 0zm1.2-1.3c.3 0 .5 0 .7-.2c.1-.1.2-.3.2-.5c0-.2-.1-.4-.3-.6c-.1-.1-.3-.2-.6-.2c-.2 0-.4.1-.6.2c-.1.2-.2.4-.2.6c0 .2.1.4.2.5c.2.2.4.2.6.2zm4.7 2.7c-.6 0-1-.2-1.4-.5c-.4-.4-.6-1-.6-1.9c0-.8.2-1.4.6-1.9c.3-.5.9-.8 1.6-.8c.6 0 1.1.2 1.5.6l-.6.8c-.1-.1-.3-.2-.4-.3c-.2-.1-.4-.1-.6-.1c-.1 0-.3 0-.4.1l-.3.3c-.1.1-.1.3-.2.4v.3c.3-.2.6-.3 1-.3c.5 0 .9.2 1.2.4c.3.3.5.7.5 1.2c0 .5-.2.9-.5 1.2c-.4.3-.8.5-1.4.5zm-.9-1.7c0 .2.1.4.3.6c.1.1.3.2.6.2c.2 0 .5-.1.6-.2c.2-.2.2-.3.2-.6c0-.2-.1-.4-.2-.5c-.2-.1-.4-.2-.6-.2c-.3 0-.5.1-.6.2c-.2.1-.3.3-.3.5c.03.02 0 0 0 0c0 0 .03.03 0 0zm5.3 1.7c-.7 0-1.3-.3-1.8-.8l.6-.7c.4.3.8.5 1.2.5c.3 0 .5-.1.6-.2c.2-.1.2-.3.2-.5c0-.2-.1-.4-.2-.5c-.2-.1-.4-.2-.6-.2c-.3 0-.6.1-.9.2l-.6-.4l.2-2.4h3v.9h-2.1s-.07.89-.1.9c.3-.1.5-.1.7-.1c.5 0 .9.1 1.2.4c.3.3.5.7.5 1.2c0 .5-.2.9-.5 1.2c-.4.3-.8.5-1.4.5z" stroke="none" fill="#4f4f4e"/></g><g id="Polygon361407"><path d="m3 7.3c-1 0-1.9-.3-2.7-1l.8-1c.7.5 1.3.8 1.9.8c.3 0 .5-.1.7-.2c.2-.1.2-.2.2-.4c0-.2-.1-.4-.2-.5c-.2-.1-.5-.2-1-.3c-.4-.1-.7-.2-.9-.3c-.2-.1-.5-.2-.6-.4c-.2-.1-.4-.3-.5-.5c-.1-.2-.1-.5-.1-.8c0-.6.2-1 .6-1.4c.4-.3.9-.5 1.6-.5c.9 0 1.6.3 2.3.8l-.7 1.1C3.8 2.2 3.2 2 2.8 2c-.3 0-.5.1-.6.2c-.2.1-.2.2-.2.4c0 .2 0 .4.2.5c.2.1.5.2 1.1.3c.7.2 1.2.4 1.5.7c.3.3.5.7.5 1.2c0 .6-.2 1.1-.6 1.5c-.4.3-1 .5-1.7.5zm3.5-.1V.9h1.4v5h3.1v1.3H6.5zm5.6 0V.9h1.4v6.3h-1.4zm2.8 0V6.1l3.5-4H15V.9h5.2v1.1l-3.5 4h3.5v1.2h-5.3zm6.6 0V.9h4.7v1.2h-3.3v1.3h2.9v1.2h-2.9v1.4h3.4v1.2h-4.8zm8.7 0V.9h1.4v2.8L34.1.9h1.7l-2.5 2.7l2.6 3.6h-1.6l-2-2.7l-.7.8v1.9h-1.4zm10.4-.8c-.5.6-1.1.9-1.9.9c-.8 0-1.4-.2-1.9-.7c-.4-.5-.7-1.1-.7-1.8c0-.7.3-1.3.7-1.8c.5-.5 1-.7 1.7-.7c.8 0 1.4.2 1.8.7c.4.5.6 1.2.6 1.9v.4h-3.4c.1.3.2.5.4.7c.2.1.5.2.8.2c.4 0 .8-.2 1.1-.5c.04.01.8.7.8.7c0 0 .03.01 0 0zm-3.1-2h2c0-.3-.1-.6-.3-.7c-.2-.2-.4-.3-.7-.3c-.3 0-.5.1-.7.3c-.2.1-.3.4-.3.7zm6.1 2.9c-.8 0-1.5-.3-2.1-.7l.6-.9c.5.3 1 .5 1.5.5c.4 0 .6-.1.6-.3v-.2s-.1 0-.1-.1h-.1c-.1-.1-.1-.1-.2-.1c-.1 0-.1 0-.2-.1h-.2c-.1-.1-.2-.1-.2-.1c-.2-.1-.4-.1-.5-.2c-.2 0-.3-.1-.5-.2c-.1-.1-.2-.3-.3-.5c-.1-.1-.1-.3-.1-.5v-.1c0-.4.1-.8.5-1.1c.3-.3.7-.4 1.2-.4c.7 0 1.3.2 1.8.6l-.5.9c-.5-.3-1-.4-1.3-.4c-.2 0-.3 0-.4.1c-.1 0-.1.1-.1.2c0 .1.1.2.2.3c.2.1.4.2.8.3c.2 0 .3.1.5.2c.1 0 .3.1.4.2c.2.2.3.3.4.5c.1.1.1.3.1.5c0 .5-.1.9-.5 1.2c-.3.3-.8.4-1.3.4zm2.8-.1V2.4h1.4s-.03.66 0 .7c.4-.6.8-.8 1.4-.8c.6 0 1.1.2 1.4.8c.4-.6.9-.8 1.5-.8c.6 0 1 .1 1.2.4c.3.3.5.8.5 1.4c-.03-.04 0 3.1 0 3.1h-1.4V4.5c0-.6-.3-1-.8-1c-.3 0-.5.1-.6.3c-.2.1-.2.4-.2.7c-.03.01 0 2.7 0 2.7h-1.4V4.5c0-.6-.3-1-.8-1c-.3 0-.5.1-.6.3c-.2.1-.2.4-.2.7c-.03.01 0 2.7 0 2.7h-1.4zm12.8-.8c-.5.6-1.1.9-2 .9c-.7 0-1.3-.2-1.8-.7c-.4-.5-.7-1.1-.7-1.8c0-.7.2-1.3.7-1.8c.4-.5 1-.7 1.7-.7c.8 0 1.3.2 1.8.7c.4.5.6 1.2.6 1.9c0 .1-.1.2-.1.4h-3.3c0 .3.2.5.4.7c.2.1.4.2.8.2c.4 0 .8-.2 1.1-.5c.03.01.8.7.8.7c0 0 .01.01 0 0zm-3.1-2h2c0-.3-.1-.6-.3-.7c-.2-.2-.4-.3-.7-.3c-.3 0-.5.1-.7.3c-.2.1-.3.4-.3.7zm8.7 2.8v-5h-1.9V.9h5.2v1.3h-1.9v5h-1.4zm6.1-.5c-.4.4-.9.6-1.5.6c-.4 0-.8-.1-1.2-.4c-.3-.3-.4-.6-.4-1.1c0-.5.1-.9.5-1.2c.3-.2.8-.3 1.4-.3c.4 0 .8 0 1.2.2v-.1c0-.6-.4-.9-1-.9c-.5 0-.9.1-1.4.3l-.3-1.1c.6-.2 1.2-.4 1.9-.4c.7 0 1.2.2 1.6.6c.3.3.5.8.5 1.5v2.8h-1.3v-.5s-.02-.02 0 0zm-1.1-.4c.4 0 .6 0 .8-.2c.2-.1.3-.3.3-.6v-.2c-.3-.2-.6-.2-.9-.2c-.3 0-.5 0-.7.1c-.1.2-.2.3-.2.5v.1c0 .1.1.3.2.4c.1.1.3.1.5.1zm3.6.9V.6h1.4s-.05 2.46 0 2.5c.4-.6.8-.8 1.4-.8c.5 0 .9.1 1.2.5c.3.3.4.7.4 1.3v3.1h-1.4s.04-2.69 0-2.7c0-.6-.2-1-.8-1c-.3 0-.5.1-.6.3c-.2.1-.2.4-.2.7c-.05.01 0 2.7 0 2.7h-1.4zm8.3-.2c-.3.2-.7.3-1.1.3c-.4 0-.8-.1-1-.3c-.3-.3-.4-.6-.4-1.2c.02.03 0-2.3 0-2.3h-.6V2.4h.6V1.1h1.4v1.3h1.1v1.1h-1.1v2.1c0 .3.1.5.4.5c.3 0 .5-.1.7-.2v1.1zm3.9-.3c-.4.4-.9.6-1.5.6c-.5 0-.9-.1-1.2-.4c-.3-.3-.5-.6-.5-1.1c0-.5.2-.9.6-1.2c.3-.2.8-.3 1.4-.3c.4 0 .8 0 1.2.2v-.1c0-.6-.4-.9-1.1-.9c-.4 0-.9.1-1.3.3l-.3-1.1c.6-.2 1.2-.4 1.8-.4c.8 0 1.3.2 1.7.6c.3.3.5.8.5 1.5c-.02 0 0 2.8 0 2.8h-1.3v-.5s-.05-.02 0 0zm-1.1-.4c.3 0 .6 0 .8-.2c.2-.1.3-.3.3-.6v-.2c-.3-.2-.6-.2-.9-.2c-.3 0-.5 0-.7.1c-.2.2-.2.3-.2.5v.1c0 .1 0 .3.2.4c.1.1.3.1.5.1zm5.2 1c-.7 0-1.4-.3-2-.7l.6-.9c.5.3 1 .5 1.5.5c.4 0 .6-.1.6-.3c0-.1 0-.1-.1-.2v-.1h-.2c0-.1-.1-.1-.1-.1c-.1 0-.2 0-.2-.1h-.2c-.1-.1-.2-.1-.2-.1c-.2-.1-.4-.1-.6-.2c-.1 0-.3-.1-.4-.2c-.2-.1-.3-.3-.4-.5c0-.1-.1-.3-.1-.5v-.1c0-.4.2-.8.5-1.1c.4-.3.8-.4 1.3-.4c.6 0 1.2.2 1.8.6l-.5.9c-.5-.3-1-.4-1.3-.4c-.2 0-.3 0-.4.1c-.1 0-.1.1-.1.2c0 .1 0 .2.2.3c.2.1.4.2.7.3c.2 0 .4.1.6.2c.1 0 .3.1.4.2c.2.2.3.3.4.5c.1.1.1.3.1.5c0 .5-.2.9-.5 1.2c-.4.3-.8.4-1.4.4zm2.9-.1V2.4h1.4v4.8h-1.4zm5.2-2.1V3.8h2.8v1.3h-2.8zm6.6 2.1V.6h1.3v3.5l1.6-1.7h1.7l-1.9 1.9l1.9 2.9h-1.5l-1.3-2l-.5.5v1.5h-1.3zm8.2-.7c-.4.5-.9.8-1.4.8c-.5 0-.9-.2-1.2-.5c-.3-.3-.4-.7-.4-1.3c-.03 0 0-3.1 0-3.1h1.3s.03 2.67 0 2.7c0 .6.3.9.9.9c.2 0 .4 0 .6-.2c.1-.2.2-.4.2-.7c.02-.03 0-2.7 0-2.7h1.4v4.8h-1.4v-.7s.02.02 0 0zm-.6-4.7V.6h1.4v1.2H112zm-1.8 0V.6h1.3v1.2h-1.3zm6.9 7l-1.1-.5s.72-1.1.7-1.1c-.5-.2-.9-.5-1.2-.9c-.4-.4-.5-.9-.5-1.5c0-.7.2-1.3.7-1.8c.5-.5 1.1-.7 1.8-.7c.8 0 1.4.3 1.9.8l-.8.9c-.2-.2-.4-.3-.5-.4c-.2-.1-.4-.1-.6-.1c-.3 0-.6.1-.8.3c-.3.3-.4.6-.4 1c0 .4.1.7.4 1c.2.2.5.3.8.3c.4 0 .8-.1 1.2-.5l.8.8c-.3.3-.5.5-.8.6c-.3.2-.6.3-1 .3l-.6 1.5zm6.3-2.3c-.4.5-.9.8-1.5.8c-.5 0-.9-.2-1.2-.5c-.2-.3-.4-.7-.4-1.3V2.4h1.4s-.02 2.67 0 2.7c0 .6.3.9.8.9c.3 0 .5 0 .6-.2c.2-.2.3-.4.3-.7c-.04-.03 0-2.7 0-2.7h1.3v4.8h-1.3v-.7s-.04.02 0 0zm-.6-4.7V.6h1.3v1.2h-1.3zm-1.9 0V.6h1.3v1.2h-1.3zm5.1 5.4V.6h1.3v3.5l1.6-1.7h1.7l-1.9 1.9l1.9 2.9H129l-1.2-2l-.5.5v1.5H126z" stroke="none" fill="#4f4f4e"/></g></svg>