<?xml version="1.0" standalone="no"?><!DOCTYPE svg PUBLIC "-//W3C//DTD SVG 1.1//EN" "http://www.w3.org/Graphics/SVG/1.1/DTD/svg11.dtd"><svg xmlns="http://www.w3.org/2000/svg" version="1.1" width="116.2px" height="29.6px" viewBox="0 -1 116.2 29.6" style="top:-1px"><desc>Hava ge irmez kapak</desc><defs/><g id="Polygon369884"><path d="m.8 16.4v-5.6h.6v2.5h3.3v-2.5h.6v5.6h-.6v-2.5H1.4v2.5h-.6zm8.7-.6c-.4.5-.9.7-1.5.7c-.4 0-.8-.1-1.1-.3c-.3-.3-.4-.6-.4-1c0-.4.1-.7.4-1c.4-.2.8-.3 1.3-.3c.4 0 .9 0 1.3.2v-.2c0-.4-.1-.6-.3-.8c-.2-.2-.5-.3-.9-.3c-.5 0-.9.1-1.3.3l-.2-.5c.5-.2 1-.4 1.5-.4c.6 0 1.1.2 1.4.5c.2.3.4.7.4 1.2c-.01 0 0 2.5 0 2.5h-.6v-.6zm-1.4.2c.4 0 .7-.1 1-.3c.3-.2.4-.5.4-.8v-.4c-.4-.1-.8-.2-1.2-.2c-.4 0-.7.1-.9.3c-.2.1-.3.3-.3.6c0 .3.1.5.3.6c.2.2.4.2.7.2zm4.5.5l-1.8-4.2h.7l1.4 3.4l1.4-3.4h.7l-1.8 4.2h-.6zm5.9-.7c-.4.5-.9.7-1.5.7c-.4 0-.8-.1-1.1-.3c-.3-.3-.5-.6-.5-1c0-.4.2-.7.5-1c.3-.2.8-.3 1.3-.3c.4 0 .8 0 1.3.2v-.2c0-.4-.1-.6-.4-.8c-.2-.2-.5-.3-.9-.3c-.4 0-.8.1-1.2.3l-.2-.5c.5-.2 1-.4 1.5-.4c.6 0 1 .2 1.3.5c.3.3.5.7.5 1.2c-.04 0 0 2.5 0 2.5h-.6v-.6s-.04 0 0 0zm-1.4.2c.4 0 .7-.1 1-.3c.2-.2.4-.5.4-.8v-.4c-.4-.1-.8-.2-1.2-.2c-.4 0-.7.1-.9.3c-.2.1-.4.3-.4.6c0 .3.1.5.4.6c.2.2.4.2.7.2zm9.1 1.2c-.4.3-.9.5-1.6.5c-.7 0-1.3-.2-1.9-.6l.3-.4c.5.3 1 .5 1.6.5c.5 0 .8-.1 1.1-.4c.3-.2.4-.6.4-1.1v-.5c-.4.6-1 .9-1.6.9c-.5 0-1-.2-1.4-.5c-.4-.4-.6-.9-.6-1.4c0-.6.2-1.1.6-1.5c.4-.3.8-.5 1.4-.5c.6 0 1.2.3 1.6.8v-.7h.6v3.4c0 .6-.2 1.1-.5 1.5zm-1.6-1.6c.4 0 .8-.2 1.1-.4c.3-.3.4-.6.4-1v-.1c0-.4-.1-.7-.4-1c-.3-.2-.7-.4-1.1-.4c-.4 0-.8.2-1 .4c-.3.3-.4.6-.4 1v.1c0 .4.1.7.4 1c.3.2.6.4 1 .4zm7 .1c-.5.6-1 .8-1.7.8c-.6 0-1.1-.2-1.5-.6c-.4-.4-.6-.9-.6-1.5c0-.6.2-1.2.6-1.6c.4-.4.8-.6 1.4-.6c.6 0 1.1.2 1.4.6c.4.4.5 1 .5 1.6v.2h-3.3c.1.4.2.8.5 1c.3.3.6.4 1 .4c.5 0 .9-.2 1.3-.6l.4.3s-.01.05 0 0zm-3.2-1.6h2.7c0-.4-.1-.7-.4-1c-.2-.2-.5-.4-.9-.4c-.4 0-.7.2-.9.4c-.3.3-.4.6-.5 1zm5.9 3.6l-.6-.3s.6-.92.6-.9c-.5-.1-.9-.3-1.2-.7c-.4-.4-.5-.9-.5-1.4c0-.6.2-1.1.6-1.6c.4-.4.9-.6 1.5-.6c.6 0 1.2.2 1.6.7l-.4.5c-.4-.4-.8-.7-1.2-.7c-.4 0-.8.2-1.1.5c-.3.3-.4.7-.4 1.1v.1c0 .4.1.8.4 1.1c.3.3.7.5 1.1.5c.5 0 .9-.2 1.3-.6l.4.3c-.5.5-1 .8-1.6.8l-.5 1.2zm3.1-6.3v-.7h.7v.7h-.7zm0 5v-4.1h.7v4.1h-.7zm2.1 0v-4.1h.6v1.1c.2-.4.4-.7.7-.9c.3-.2.6-.3 1-.3v.7s-.06-.02-.1 0c-.4 0-.8.1-1.1.5c-.3.3-.5.8-.5 1.4v1.6h-.6zm3.2 0v-4.1h.6s.04.69 0 .7c.2-.3.4-.4.6-.6c.2-.1.5-.2.8-.2c.6 0 1 .3 1.3.8c.4-.5.9-.8 1.5-.8c.4 0 .8.2 1.1.4c.3.3.4.8.4 1.3v2.5h-.6s-.02-2.39 0-2.4c0-.4-.1-.7-.3-.9c-.2-.2-.5-.3-.8-.3c-.3 0-.6.1-.8.3c-.2.2-.3.5-.3.9c-.03.04 0 2.4 0 2.4h-.6s-.04-2.4 0-2.4c0-.4-.1-.7-.3-.9c-.2-.2-.5-.3-.8-.3c-.3 0-.6.1-.8.3c-.2.3-.4.6-.4 1c.04-.03 0 2.3 0 2.3h-.6zm11.1-.7c-.4.6-1 .8-1.7.8c-.6 0-1-.2-1.4-.6c-.4-.4-.6-.9-.6-1.5c0-.6.1-1.2.5-1.6c.4-.4.9-.6 1.4-.6c.6 0 1.1.2 1.4.6c.4.4.6 1 .6 1.6v.2h-3.3c0 .4.2.8.5 1c.2.3.6.4.9.4c.5 0 1-.2 1.3-.6c.04 0 .4.3.4.3c0 0 .02.05 0 0zm-3.1-1.6h2.6c0-.4-.1-.7-.3-1c-.3-.2-.6-.4-1-.4c-.3 0-.6.2-.9.4c-.2.3-.4.6-.4 1zm4 2.3v-.4l2.7-3.2h-2.6v-.5h3.5v.4l-2.8 3.2h2.8v.5h-3.6zm7.1 0v-5.8h.6v4l2.2-2.3h.8l-1.7 1.8l1.7 2.3h-.7l-1.5-1.9l-.8.8v1.1h-.6zm7.2-.6c-.4.5-.9.7-1.5.7c-.4 0-.8-.1-1.1-.3c-.3-.3-.5-.6-.5-1c0-.4.2-.7.5-1c.3-.2.8-.3 1.3-.3c.4 0 .8 0 1.3.2v-.2c0-.4-.1-.6-.3-.8c-.3-.2-.6-.3-1-.3c-.4 0-.8.1-1.2.3l-.2-.5c.5-.2 1-.4 1.5-.4c.6 0 1 .2 1.3.5c.3.3.5.7.5 1.2c-.03 0 0 2.5 0 2.5h-.6v-.6s-.02 0 0 0zm-1.4.2c.4 0 .7-.1 1-.3c.2-.2.4-.5.4-.8v-.4c-.4-.1-.8-.2-1.2-.2c-.4 0-.7.1-.9.3c-.2.1-.3.3-.3.6c0 .3.1.5.3.6c.2.2.4.2.7.2zm3.3 1.7v-5.4h.6v.8c.4-.6 1-.9 1.6-.9c.5 0 1 .2 1.4.6c.4.4.6.9.6 1.5v.1c0 .6-.2 1.1-.6 1.5c-.4.4-.9.6-1.4.6c-.7 0-1.2-.3-1.6-.9v2.1h-.6zM73 16c.4 0 .7-.2 1-.5c.3-.3.4-.6.4-1.1c0-.5-.1-.9-.4-1.2c-.3-.3-.6-.4-1-.4c-.4 0-.8.1-1.1.4c-.3.3-.4.7-.4 1.1v.1c0 .4.1.8.4 1.1c.3.3.7.5 1.1.5zm5.9-.2c-.3.5-.8.7-1.5.7c-.4 0-.8-.1-1.1-.3c-.3-.3-.4-.6-.4-1c0-.4.1-.7.5-1c.3-.2.7-.3 1.2-.3c.5 0 .9 0 1.3.2v-.2c0-.4-.1-.6-.3-.8c-.2-.2-.5-.3-.9-.3c-.4 0-.8.1-1.3.3l-.2-.5c.5-.2 1-.4 1.6-.4c.5 0 1 .2 1.3.5c.3.3.4.7.4 1.2c.01 0 0 2.5 0 2.5h-.6v-.6s.02 0 0 0zm-1.4.2c.4 0 .8-.1 1-.3c.3-.2.4-.5.4-.8v-.4c-.4-.1-.8-.2-1.2-.2c-.4 0-.7.1-.9.3c-.2.1-.3.3-.3.6c0 .3.1.5.3.6c.2.2.5.2.7.2zm3.3.4v-5.8h.6v4l2.3-2.3h.7l-1.7 1.8l1.8 2.3h-.7l-1.5-1.9l-.9.8v1.1h-.6z" stroke="none" fill="#000"/></g></svg>