<?xml version="1.0" standalone="no"?><!DOCTYPE svg PUBLIC "-//W3C//DTD SVG 1.1//EN" "http://www.w3.org/Graphics/SVG/1.1/DTD/svg11.dtd"><svg xmlns="http://www.w3.org/2000/svg" version="1.1" width="100.1px" height="153.6px" viewBox="0 -1 100.1 153.6" style="top:-1px">  <desc>Simetrik ift konik burr (di li) t c : i erik st b l mde nce par alan r, ard ndan alt b l mde ok ince t l r....</desc>  <defs/>  <g id="Polygon369941">    <path d="M 2.1 116.8 L 0.3 112.6 L 1 112.6 L 2.4 116 L 3.8 112.6 L 4.4 112.6 L 2.6 116.8 L 2.1 116.8 Z M 8.7 116 C 8.2 116.6 7.6 116.8 7 116.8 C 6.4 116.8 5.9 116.6 5.5 116.2 C 5.1 115.8 4.9 115.3 4.9 114.7 C 4.9 114.7 4.9 114.6 4.9 114.6 C 4.9 114 5.1 113.5 5.5 113.1 C 5.8 112.7 6.3 112.5 6.9 112.5 C 7.5 112.5 7.9 112.7 8.3 113.1 C 8.6 113.5 8.8 114.1 8.8 114.7 C 8.8 114.8 8.8 114.8 8.8 114.9 C 8.8 114.9 5.5 114.9 5.5 114.9 C 5.6 115.3 5.7 115.7 6 115.9 C 6.3 116.2 6.6 116.3 7 116.3 C 7.5 116.3 7.9 116.1 8.3 115.7 C 8.27 115.69 8.7 116 8.7 116 C 8.7 116 8.66 116.04 8.7 116 Z M 5.5 114.4 C 5.5 114.4 8.2 114.4 8.2 114.4 C 8.1 114 8 113.7 7.8 113.4 C 7.6 113.1 7.3 113 6.9 113 C 6.5 113 6.2 113.1 5.9 113.4 C 5.7 113.7 5.6 114 5.5 114.4 Z M 9.9 116.7 L 9.9 112.6 L 10.5 112.6 C 10.5 112.6 10.5 113.66 10.5 113.7 C 10.7 113.3 10.9 113 11.2 112.8 C 11.5 112.6 11.8 112.5 12.2 112.5 C 12.18 112.51 12.2 113.2 12.2 113.2 C 12.2 113.2 12.14 113.17 12.1 113.2 C 11.7 113.2 11.3 113.3 11 113.7 C 10.7 114 10.5 114.5 10.5 115.1 C 10.5 115.07 10.5 116.7 10.5 116.7 L 9.9 116.7 Z M 13.1 111.7 L 13.1 111 L 13.8 111 L 13.8 111.7 L 13.1 111.7 Z M 13.2 116.7 L 13.2 112.6 L 13.8 112.6 L 13.8 116.7 L 13.2 116.7 Z M 15.2 116.7 L 15.2 112.6 L 15.8 112.6 C 15.8 112.6 15.84 113.28 15.8 113.3 C 16 113 16.2 112.8 16.4 112.7 C 16.6 112.6 16.9 112.5 17.2 112.5 C 17.8 112.5 18.2 112.8 18.5 113.3 C 18.9 112.8 19.4 112.5 20 112.5 C 20.4 112.5 20.8 112.6 21.1 112.9 C 21.4 113.2 21.5 113.6 21.5 114.2 C 21.5 114.16 21.5 116.7 21.5 116.7 L 20.9 116.7 C 20.9 116.7 20.88 114.3 20.9 114.3 C 20.9 113.9 20.8 113.6 20.6 113.4 C 20.4 113.2 20.1 113.1 19.8 113.1 C 19.5 113.1 19.2 113.2 19 113.4 C 18.8 113.6 18.7 113.9 18.7 114.3 C 18.66 114.33 18.7 116.7 18.7 116.7 L 18.1 116.7 C 18.1 116.7 18.06 114.29 18.1 114.3 C 18.1 113.9 18 113.6 17.8 113.4 C 17.6 113.2 17.3 113.1 17 113.1 C 16.7 113.1 16.4 113.2 16.2 113.4 C 15.9 113.7 15.8 114 15.8 114.4 C 15.84 114.36 15.8 116.7 15.8 116.7 L 15.2 116.7 Z M 22.9 116.7 L 22.9 110.9 L 23.5 110.9 L 23.5 116.7 L 22.9 116.7 Z M 24.9 111.7 L 24.9 111 L 25.6 111 L 25.6 111.7 L 24.9 111.7 Z M 25 116.7 L 25 112.6 L 25.6 112.6 L 25.6 116.7 L 25 116.7 Z M 29.4 116.7 L 29.4 110.9 L 30 110.9 L 30 114.9 L 32.3 112.6 L 33 112.6 L 31.3 114.4 L 33.1 116.7 L 32.4 116.7 L 30.9 114.8 L 30 115.6 L 30 116.7 L 29.4 116.7 Z M 34 116.7 L 34 112.6 L 34.6 112.6 L 34.6 116.7 L 34 116.7 Z M 36.1 116.7 L 36.1 110.9 L 36.7 110.9 L 36.7 116.7 L 36.1 116.7 Z M 40.9 116.1 C 40.5 116.6 40 116.8 39.4 116.8 C 39 116.8 38.6 116.7 38.3 116.5 C 38 116.2 37.9 115.9 37.9 115.5 C 37.9 115.5 37.9 115.5 37.9 115.5 C 37.9 115.1 38 114.8 38.3 114.5 C 38.7 114.3 39.1 114.2 39.6 114.2 C 40.1 114.2 40.5 114.2 40.9 114.3 C 40.9 114.3 40.9 114.2 40.9 114.2 C 40.9 113.8 40.8 113.6 40.6 113.4 C 40.4 113.2 40.1 113.1 39.7 113.1 C 39.3 113.1 38.8 113.2 38.4 113.4 C 38.4 113.4 38.2 112.9 38.2 112.9 C 38.7 112.6 39.2 112.5 39.7 112.5 C 40.3 112.5 40.8 112.7 41.1 113 C 41.4 113.3 41.5 113.7 41.5 114.2 C 41.5 114.19 41.5 116.7 41.5 116.7 L 40.9 116.7 L 40.9 116.1 C 40.9 116.1 40.9 116.09 40.9 116.1 Z M 39.5 116.3 C 39.9 116.3 40.2 116.2 40.5 116 C 40.8 115.8 40.9 115.5 40.9 115.2 C 40.9 115.2 40.9 114.8 40.9 114.8 C 40.5 114.7 40.1 114.6 39.7 114.6 C 39.3 114.6 39 114.7 38.8 114.9 C 38.6 115 38.5 115.2 38.5 115.5 C 38.5 115.5 38.5 115.5 38.5 115.5 C 38.5 115.7 38.6 115.9 38.8 116.1 C 39 116.2 39.2 116.3 39.5 116.3 Z M 42.8 116.7 L 42.8 112.6 L 43.4 112.6 C 43.4 112.6 43.42 113.66 43.4 113.7 C 43.6 113.3 43.8 113 44.1 112.8 C 44.4 112.6 44.7 112.5 45.1 112.5 C 45.11 112.51 45.1 113.2 45.1 113.2 C 45.1 113.2 45.06 113.17 45.1 113.2 C 44.6 113.2 44.2 113.3 43.9 113.7 C 43.6 114 43.4 114.5 43.4 115.1 C 43.42 115.07 43.4 116.7 43.4 116.7 L 42.8 116.7 Z M 45.2 116.7 L 45.2 115.9 L 46 115.9 L 46 116.7 L 45.2 116.7 Z " stroke="none" fill="#000"/>  </g>  <g id="Polygon369940">    <path d="M 2.1 107.2 L 0.3 103 L 1 103 L 2.4 106.4 L 3.8 103 L 4.4 103 L 2.6 107.2 L 2.1 107.2 Z M 8.7 106.4 C 8.2 107 7.6 107.2 7 107.2 C 6.4 107.2 5.9 107 5.5 106.6 C 5.1 106.2 4.9 105.7 4.9 105.1 C 4.9 105.1 4.9 105 4.9 105 C 4.9 104.4 5.1 103.9 5.5 103.5 C 5.8 103.1 6.3 102.9 6.9 102.9 C 7.5 102.9 7.9 103.1 8.3 103.5 C 8.6 103.9 8.8 104.5 8.8 105.1 C 8.8 105.2 8.8 105.2 8.8 105.3 C 8.8 105.3 5.5 105.3 5.5 105.3 C 5.6 105.7 5.7 106.1 6 106.3 C 6.3 106.6 6.6 106.7 7 106.7 C 7.5 106.7 7.9 106.5 8.3 106.1 C 8.27 106.09 8.7 106.4 8.7 106.4 C 8.7 106.4 8.66 106.44 8.7 106.4 Z M 5.5 104.8 C 5.5 104.8 8.2 104.8 8.2 104.8 C 8.1 104.4 8 104.1 7.8 103.8 C 7.6 103.5 7.3 103.4 6.9 103.4 C 6.5 103.4 6.2 103.5 5.9 103.8 C 5.7 104.1 5.6 104.4 5.5 104.8 Z M 13.7 108.4 L 13.1 108.1 C 13.1 108.1 13.76 107.17 13.8 107.2 C 13.3 107.1 12.8 106.8 12.5 106.4 C 12.2 106 12 105.6 12 105.1 C 12 105.1 12 105.1 12 105.1 C 12 104.5 12.2 103.9 12.6 103.5 C 13 103.1 13.5 102.9 14.1 102.9 C 14.8 102.9 15.3 103.1 15.8 103.6 C 15.8 103.6 15.4 104.1 15.4 104.1 C 15 103.6 14.6 103.4 14.1 103.4 C 13.7 103.4 13.4 103.6 13.1 103.9 C 12.8 104.2 12.7 104.6 12.7 105 C 12.7 105 12.7 105.1 12.7 105.1 C 12.7 105.5 12.8 105.9 13.1 106.2 C 13.4 106.5 13.7 106.7 14.2 106.7 C 14.6 106.7 15.1 106.5 15.4 106 C 15.4 106 15.8 106.4 15.8 106.4 C 15.4 106.9 14.9 107.2 14.3 107.2 C 14.26 107.21 13.7 108.4 13.7 108.4 Z M 16.9 107.1 L 16.9 103 L 17.5 103 L 17.5 107.1 L 16.9 107.1 Z M 19 107.1 L 19 101.3 L 19.6 101.3 L 19.6 105.3 L 21.8 103 L 22.6 103 L 20.8 104.8 L 22.6 107.1 L 21.9 107.1 L 20.4 105.2 L 19.6 106 L 19.6 107.1 L 19 107.1 Z M 25.6 107 C 25.3 107.1 25.1 107.2 24.8 107.2 C 24.5 107.2 24.2 107.1 24 106.9 C 23.7 106.7 23.6 106.4 23.6 106 C 23.64 106.02 23.6 103.5 23.6 103.5 L 23.1 103.5 L 23.1 103 L 23.6 103 L 23.6 101.7 L 24.3 101.7 L 24.3 103 L 25.6 103 L 25.6 103.5 L 24.3 103.5 C 24.3 103.5 24.26 105.94 24.3 105.9 C 24.3 106.4 24.5 106.6 25 106.6 C 25.2 106.6 25.4 106.6 25.6 106.5 C 25.55 106.49 25.6 107 25.6 107 C 25.6 107 25.55 107.01 25.6 107 Z M 26.7 107.1 L 26.7 103 L 27.3 103 L 27.3 107.1 L 26.7 107.1 Z M 30.5 106.4 L 31.9 103 L 32.5 103 C 32.5 103 30.78 107.25 30.8 107.3 C 30.6 107.7 30.4 108 30.2 108.2 C 30 108.3 29.7 108.4 29.4 108.4 C 29.1 108.4 28.8 108.4 28.5 108.2 C 28.5 108.2 28.7 107.7 28.7 107.7 C 28.9 107.8 29.1 107.9 29.4 107.9 C 29.6 107.9 29.7 107.8 29.9 107.7 C 30 107.6 30.1 107.4 30.2 107.1 C 30.22 107.1 28.3 103 28.3 103 L 29 103 L 30.5 106.4 Z M 33.5 107.1 L 33.5 103 L 34.2 103 L 34.2 107.1 L 33.5 107.1 Z M 39.4 107.2 C 38.7 107.2 38.2 107 37.6 106.6 C 37.6 106.6 38 106.2 38 106.2 C 38.4 106.5 38.9 106.7 39.4 106.7 C 39.6 106.7 39.9 106.6 40 106.5 C 40.2 106.4 40.2 106.2 40.2 106 C 40.2 106 40.2 106 40.2 106 C 40.2 105.8 40.2 105.7 40 105.6 C 39.8 105.5 39.6 105.4 39.2 105.3 C 39.1 105.2 39 105.2 38.9 105.2 C 38.8 105.2 38.7 105.1 38.6 105.1 C 38.4 105 38.3 105 38.3 104.9 C 38.2 104.9 38.1 104.8 38.1 104.7 C 38 104.6 37.9 104.5 37.9 104.4 C 37.9 104.3 37.8 104.2 37.8 104.1 C 37.8 104.1 37.8 104.1 37.8 104.1 C 37.8 103.7 38 103.5 38.2 103.2 C 38.5 103 38.8 102.9 39.3 102.9 C 39.8 102.9 40.3 103.1 40.7 103.4 C 40.7 103.4 40.5 103.8 40.5 103.8 C 40.1 103.6 39.6 103.4 39.2 103.4 C 39 103.4 38.8 103.5 38.7 103.6 C 38.5 103.7 38.4 103.9 38.4 104 C 38.4 104 38.4 104 38.4 104 C 38.4 104.1 38.5 104.2 38.5 104.3 C 38.5 104.3 38.6 104.4 38.6 104.4 C 38.7 104.5 38.8 104.5 38.9 104.6 C 39 104.6 39.1 104.6 39.2 104.7 C 39.2 104.7 39.4 104.7 39.5 104.8 C 39.7 104.8 39.8 104.8 39.9 104.9 C 40 104.9 40.1 105 40.2 105 C 40.4 105.1 40.5 105.2 40.6 105.3 C 40.6 105.3 40.7 105.4 40.8 105.6 C 40.8 105.7 40.8 105.8 40.8 105.9 C 40.8 105.9 40.8 106 40.8 106 C 40.8 106.3 40.7 106.6 40.4 106.9 C 40.1 107.1 39.8 107.2 39.4 107.2 Z M 43.9 107.2 C 43.2 107.2 42.7 107 42.3 106.6 C 41.9 106.2 41.7 105.7 41.7 105.1 C 41.7 105.1 41.7 105.1 41.7 105.1 C 41.7 104.5 41.9 103.9 42.3 103.5 C 42.7 103.1 43.3 102.9 43.9 102.9 C 44.5 102.9 45 103.1 45.4 103.5 C 45.8 103.9 46 104.4 46 105 C 46 105 46 105.1 46 105.1 C 46 105.7 45.8 106.2 45.4 106.6 C 45 107 44.5 107.2 43.9 107.2 Z M 43.9 106.7 C 44.3 106.7 44.7 106.5 45 106.2 C 45.3 105.9 45.4 105.5 45.4 105.1 C 45.4 105.1 45.4 105.1 45.4 105.1 C 45.4 104.6 45.3 104.2 45 103.9 C 44.7 103.6 44.3 103.4 43.9 103.4 C 43.4 103.4 43.1 103.6 42.8 103.9 C 42.5 104.2 42.4 104.6 42.4 105 C 42.4 105 42.4 105.1 42.4 105.1 C 42.4 105.5 42.5 105.9 42.8 106.2 C 43.1 106.5 43.4 106.7 43.9 106.7 Z M 47.1 107.1 L 47.1 103 L 47.8 103 C 47.8 103 47.76 103.7 47.8 103.7 C 48.1 103.2 48.6 102.9 49.2 102.9 C 49.7 102.9 50.1 103 50.3 103.4 C 50.6 103.7 50.8 104.1 50.8 104.6 C 50.76 104.55 50.8 107.1 50.8 107.1 L 50.1 107.1 C 50.1 107.1 50.14 104.7 50.1 104.7 C 50.1 104.3 50 104 49.8 103.8 C 49.6 103.6 49.4 103.5 49 103.5 C 48.6 103.5 48.3 103.6 48.1 103.8 C 47.9 104.1 47.8 104.4 47.8 104.8 C 47.76 104.75 47.8 107.1 47.8 107.1 L 47.1 107.1 Z M 57.8 106.3 C 57.4 106.9 56.8 107.2 56.2 107.2 C 55.7 107.2 55.2 107 54.8 106.6 C 54.4 106.2 54.2 105.7 54.2 105.1 C 54.2 105.1 54.2 105 54.2 105 C 54.2 104.4 54.4 103.9 54.8 103.5 C 55.2 103.1 55.7 102.9 56.2 102.9 C 56.9 102.9 57.4 103.2 57.8 103.8 C 57.79 103.77 57.8 101.3 57.8 101.3 L 58.4 101.3 L 58.4 107.1 L 57.8 107.1 L 57.8 106.3 C 57.8 106.3 57.79 106.29 57.8 106.3 Z M 56.3 106.7 C 56.7 106.7 57.1 106.5 57.4 106.2 C 57.7 105.9 57.8 105.5 57.8 105.1 C 57.8 105.1 57.8 105 57.8 105 C 57.8 104.6 57.7 104.2 57.4 103.9 C 57.1 103.6 56.7 103.4 56.3 103.4 C 55.9 103.4 55.6 103.6 55.3 103.9 C 55 104.2 54.9 104.6 54.9 105 C 54.9 105 54.9 105.1 54.9 105.1 C 54.9 105.5 55 105.9 55.3 106.2 C 55.6 106.5 55.9 106.7 56.3 106.7 Z M 63.3 106.4 C 62.8 107 62.3 107.2 61.6 107.2 C 61 107.2 60.5 107 60.1 106.6 C 59.7 106.2 59.5 105.7 59.5 105.1 C 59.5 105.1 59.5 105 59.5 105 C 59.5 104.4 59.7 103.9 60.1 103.5 C 60.5 103.1 60.9 102.9 61.5 102.9 C 62.1 102.9 62.6 103.1 62.9 103.5 C 63.3 103.9 63.4 104.5 63.4 105.1 C 63.4 105.2 63.4 105.2 63.4 105.3 C 63.4 105.3 60.2 105.3 60.2 105.3 C 60.2 105.7 60.4 106.1 60.6 106.3 C 60.9 106.6 61.2 106.7 61.6 106.7 C 62.1 106.7 62.5 106.5 62.9 106.1 C 62.91 106.09 63.3 106.4 63.3 106.4 C 63.3 106.4 63.29 106.44 63.3 106.4 Z M 60.2 104.8 C 60.2 104.8 62.8 104.8 62.8 104.8 C 62.8 104.4 62.7 104.1 62.4 103.8 C 62.2 103.5 61.9 103.4 61.5 103.4 C 61.1 103.4 60.8 103.5 60.6 103.8 C 60.3 104.1 60.2 104.4 60.2 104.8 Z M 64.5 107.1 L 64.5 103 L 65.1 103 C 65.1 103 65.13 104.06 65.1 104.1 C 65.3 103.7 65.5 103.4 65.8 103.2 C 66.1 103 66.4 102.9 66.8 102.9 C 66.82 102.91 66.8 103.6 66.8 103.6 C 66.8 103.6 66.77 103.57 66.8 103.6 C 66.3 103.6 65.9 103.7 65.6 104.1 C 65.3 104.4 65.1 104.9 65.1 105.5 C 65.13 105.47 65.1 107.1 65.1 107.1 L 64.5 107.1 Z M 71.1 106.4 C 70.6 107 70.1 107.2 69.4 107.2 C 68.8 107.2 68.3 107 67.9 106.6 C 67.5 106.2 67.3 105.7 67.3 105.1 C 67.3 105.1 67.3 105 67.3 105 C 67.3 104.4 67.5 103.9 67.9 103.5 C 68.3 103.1 68.7 102.9 69.3 102.9 C 69.9 102.9 70.4 103.1 70.7 103.5 C 71.1 103.9 71.2 104.5 71.2 105.1 C 71.2 105.2 71.2 105.2 71.2 105.3 C 71.2 105.3 68 105.3 68 105.3 C 68 105.7 68.2 106.1 68.4 106.3 C 68.7 106.6 69 106.7 69.4 106.7 C 69.9 106.7 70.3 106.5 70.7 106.1 C 70.71 106.09 71.1 106.4 71.1 106.4 C 71.1 106.4 71.09 106.44 71.1 106.4 Z M 68 104.8 C 68 104.8 70.6 104.8 70.6 104.8 C 70.6 104.4 70.5 104.1 70.2 103.8 C 70 103.5 69.7 103.4 69.3 103.4 C 68.9 103.4 68.6 103.5 68.4 103.8 C 68.1 104.1 68 104.4 68 104.8 Z M 75.9 106.4 C 75.4 106.9 74.8 107.2 74.2 107.2 C 73.6 107.2 73.1 107 72.7 106.6 C 72.3 106.2 72.1 105.7 72.1 105.1 C 72.1 105.1 72.1 105.1 72.1 105.1 C 72.1 104.5 72.3 103.9 72.7 103.5 C 73.1 103.1 73.6 102.9 74.2 102.9 C 74.8 102.9 75.4 103.1 75.8 103.6 C 75.8 103.6 75.4 104.1 75.4 104.1 C 75 103.6 74.6 103.4 74.2 103.4 C 73.8 103.4 73.4 103.6 73.1 103.9 C 72.8 104.2 72.7 104.6 72.7 105 C 72.7 105 72.7 105.1 72.7 105.1 C 72.7 105.5 72.8 105.9 73.1 106.2 C 73.4 106.5 73.8 106.7 74.2 106.7 C 74.7 106.7 75.1 106.5 75.5 106 C 75.48 106.05 75.9 106.4 75.9 106.4 C 75.9 106.4 75.87 106.41 75.9 106.4 Z M 80.3 106.4 C 79.8 107 79.3 107.2 78.6 107.2 C 78 107.2 77.5 107 77.1 106.6 C 76.7 106.2 76.5 105.7 76.5 105.1 C 76.5 105.1 76.5 105 76.5 105 C 76.5 104.4 76.7 103.9 77.1 103.5 C 77.5 103.1 77.9 102.9 78.5 102.9 C 79.1 102.9 79.6 103.1 79.9 103.5 C 80.2 103.9 80.4 104.5 80.4 105.1 C 80.4 105.2 80.4 105.2 80.4 105.3 C 80.4 105.3 77.1 105.3 77.1 105.3 C 77.2 105.7 77.3 106.1 77.6 106.3 C 77.9 106.6 78.2 106.7 78.6 106.7 C 79.1 106.7 79.5 106.5 79.9 106.1 C 79.89 106.09 80.3 106.4 80.3 106.4 C 80.3 106.4 80.28 106.44 80.3 106.4 Z M 77.1 104.8 C 77.1 104.8 79.8 104.8 79.8 104.8 C 79.8 104.4 79.6 104.1 79.4 103.8 C 79.2 103.5 78.9 103.4 78.5 103.4 C 78.1 103.4 77.8 103.5 77.6 103.8 C 77.3 104.1 77.2 104.4 77.1 104.8 Z " stroke="none" fill="#000"/>  </g>  <g id="Polygon369939">    <path d="M 0.7 97.5 L 0.7 91.7 L 1.3 91.7 C 1.3 91.7 1.3 94.1 1.3 94.1 C 1.6 93.6 2.1 93.3 2.7 93.3 C 3.2 93.3 3.6 93.4 3.9 93.8 C 4.2 94.1 4.3 94.5 4.3 95 C 4.3 94.95 4.3 97.5 4.3 97.5 L 3.7 97.5 C 3.7 97.5 3.69 95.1 3.7 95.1 C 3.7 94.7 3.6 94.4 3.4 94.2 C 3.2 94 2.9 93.9 2.5 93.9 C 2.2 93.9 1.9 94 1.7 94.2 C 1.4 94.5 1.3 94.8 1.3 95.2 C 1.3 95.15 1.3 97.5 1.3 97.5 L 0.7 97.5 Z M 7.5 97.6 C 6.9 97.6 6.4 97.4 6 97 C 5.6 96.6 5.4 96.1 5.4 95.5 C 5.4 95.5 5.4 95.5 5.4 95.5 C 5.4 94.9 5.6 94.3 6 93.9 C 6.4 93.5 6.9 93.3 7.5 93.3 C 8.1 93.3 8.6 93.5 9.1 93.9 C 9.5 94.3 9.7 94.8 9.7 95.4 C 9.7 95.4 9.7 95.5 9.7 95.5 C 9.7 96.1 9.5 96.6 9.1 97 C 8.6 97.4 8.1 97.6 7.5 97.6 Z M 7.5 97.1 C 8 97.1 8.3 96.9 8.6 96.6 C 8.9 96.3 9 95.9 9 95.5 C 9 95.5 9 95.5 9 95.5 C 9 95 8.9 94.6 8.6 94.3 C 8.3 94 7.9 93.8 7.5 93.8 C 7.1 93.8 6.7 94 6.4 94.3 C 6.1 94.6 6 95 6 95.4 C 6 95.4 6 95.5 6 95.5 C 6 95.9 6.1 96.3 6.4 96.6 C 6.7 96.9 7.1 97.1 7.5 97.1 Z M 10.8 97.5 L 10.8 93.4 L 11.4 93.4 C 11.4 93.4 11.4 94.08 11.4 94.1 C 11.6 93.8 11.7 93.6 12 93.5 C 12.2 93.4 12.4 93.3 12.7 93.3 C 13.4 93.3 13.8 93.6 14.1 94.1 C 14.4 93.6 14.9 93.3 15.5 93.3 C 16 93.3 16.4 93.4 16.6 93.7 C 16.9 94 17.1 94.4 17.1 95 C 17.06 94.96 17.1 97.5 17.1 97.5 L 16.4 97.5 C 16.4 97.5 16.44 95.1 16.4 95.1 C 16.4 94.7 16.3 94.4 16.2 94.2 C 16 94 15.7 93.9 15.4 93.9 C 15 93.9 14.8 94 14.6 94.2 C 14.3 94.4 14.2 94.7 14.2 95.1 C 14.22 95.13 14.2 97.5 14.2 97.5 L 13.6 97.5 C 13.6 97.5 13.62 95.09 13.6 95.1 C 13.6 94.7 13.5 94.4 13.3 94.2 C 13.1 94 12.9 93.9 12.6 93.9 C 12.2 93.9 11.9 94 11.7 94.2 C 11.5 94.5 11.4 94.8 11.4 95.2 C 11.4 95.16 11.4 97.5 11.4 97.5 L 10.8 97.5 Z M 20.3 97.6 C 19.6 97.6 19.1 97.4 18.7 97 C 18.3 96.6 18.1 96.1 18.1 95.5 C 18.1 95.5 18.1 95.5 18.1 95.5 C 18.1 94.9 18.3 94.3 18.7 93.9 C 19.1 93.5 19.7 93.3 20.3 93.3 C 20.9 93.3 21.4 93.5 21.8 93.9 C 22.2 94.3 22.4 94.8 22.4 95.4 C 22.4 95.4 22.4 95.5 22.4 95.5 C 22.4 96.1 22.2 96.6 21.8 97 C 21.4 97.4 20.9 97.6 20.3 97.6 Z M 20.3 97.1 C 20.7 97.1 21.1 96.9 21.4 96.6 C 21.6 96.3 21.8 95.9 21.8 95.5 C 21.8 95.5 21.8 95.5 21.8 95.5 C 21.8 95 21.6 94.6 21.3 94.3 C 21.1 94 20.7 93.8 20.3 93.8 C 19.8 93.8 19.5 94 19.2 94.3 C 18.9 94.6 18.7 95 18.7 95.4 C 18.7 95.4 18.7 95.5 18.7 95.5 C 18.7 95.9 18.9 96.3 19.2 96.6 C 19.5 96.9 19.8 97.1 20.3 97.1 Z M 23.6 92.5 L 23.6 91.8 L 24.3 91.8 L 24.3 92.5 L 23.6 92.5 Z M 24.2 97.8 C 24.2 98.5 23.9 98.8 23.2 98.8 C 23.1 98.8 22.9 98.8 22.8 98.8 C 22.8 98.8 22.8 98.3 22.8 98.3 C 22.9 98.3 23 98.3 23.1 98.3 C 23.4 98.3 23.6 98.1 23.6 97.8 C 23.59 97.75 23.6 93.4 23.6 93.4 L 24.2 93.4 L 24.2 97.8 C 24.2 97.8 24.21 97.76 24.2 97.8 Z M 29.2 96.8 C 28.7 97.4 28.1 97.6 27.4 97.6 C 26.9 97.6 26.4 97.4 26 97 C 25.6 96.6 25.4 96.1 25.4 95.5 C 25.4 95.5 25.4 95.4 25.4 95.4 C 25.4 94.8 25.6 94.3 25.9 93.9 C 26.3 93.5 26.8 93.3 27.4 93.3 C 28 93.3 28.4 93.5 28.8 93.9 C 29.1 94.3 29.3 94.9 29.3 95.5 C 29.3 95.6 29.3 95.6 29.3 95.7 C 29.3 95.7 26 95.7 26 95.7 C 26.1 96.1 26.2 96.5 26.5 96.7 C 26.8 97 27.1 97.1 27.5 97.1 C 28 97.1 28.4 96.9 28.8 96.5 C 28.77 96.49 29.2 96.8 29.2 96.8 C 29.2 96.8 29.15 96.84 29.2 96.8 Z M 26 95.2 C 26 95.2 28.7 95.2 28.7 95.2 C 28.6 94.8 28.5 94.5 28.3 94.2 C 28.1 93.9 27.7 93.8 27.4 93.8 C 27 93.8 26.7 93.9 26.4 94.2 C 26.2 94.5 26.1 94.8 26 95.2 Z M 30.4 97.5 L 30.4 93.4 L 31 93.4 C 31 93.4 30.99 94.1 31 94.1 C 31.3 93.6 31.8 93.3 32.4 93.3 C 32.9 93.3 33.3 93.4 33.6 93.8 C 33.9 94.1 34 94.5 34 95 C 33.99 94.95 34 97.5 34 97.5 L 33.4 97.5 C 33.4 97.5 33.38 95.1 33.4 95.1 C 33.4 94.7 33.3 94.4 33.1 94.2 C 32.9 94 32.6 93.9 32.2 93.9 C 31.9 93.9 31.6 94 31.3 94.2 C 31.1 94.5 31 94.8 31 95.2 C 30.99 95.15 31 97.5 31 97.5 L 30.4 97.5 Z M 39.6 97.6 C 39 97.6 38.5 97.4 38.1 97 C 37.7 96.6 37.4 96.1 37.4 95.5 C 37.4 95.5 37.4 95.5 37.4 95.5 C 37.4 94.9 37.7 94.3 38.1 93.9 C 38.5 93.5 39 93.3 39.6 93.3 C 40.2 93.3 40.7 93.5 41.1 93.9 C 41.6 94.3 41.8 94.8 41.8 95.4 C 41.8 95.4 41.8 95.5 41.8 95.5 C 41.8 96.1 41.6 96.6 41.1 97 C 40.7 97.4 40.2 97.6 39.6 97.6 Z M 39.6 97.1 C 40 97.1 40.4 96.9 40.7 96.6 C 41 96.3 41.1 95.9 41.1 95.5 C 41.1 95.5 41.1 95.5 41.1 95.5 C 41.1 95 41 94.6 40.7 94.3 C 40.4 94 40 93.8 39.6 93.8 C 39.2 93.8 38.8 94 38.5 94.3 C 38.2 94.6 38.1 95 38.1 95.4 C 38.1 95.4 38.1 95.5 38.1 95.5 C 38.1 95.9 38.2 96.3 38.5 96.6 C 38.8 96.9 39.2 97.1 39.6 97.1 Z M 42.9 97.5 L 42.9 91.7 L 43.5 91.7 L 43.5 97.5 L 42.9 97.5 Z M 45 97.5 L 45 93.4 L 45.6 93.4 C 45.6 93.4 45.59 94.08 45.6 94.1 C 45.8 93.8 45.9 93.6 46.1 93.5 C 46.3 93.4 46.6 93.3 46.9 93.3 C 47.6 93.3 48 93.6 48.3 94.1 C 48.6 93.6 49.1 93.3 49.7 93.3 C 50.2 93.3 50.6 93.4 50.8 93.7 C 51.1 94 51.2 94.4 51.2 95 C 51.25 94.96 51.2 97.5 51.2 97.5 L 50.6 97.5 C 50.6 97.5 50.63 95.1 50.6 95.1 C 50.6 94.7 50.5 94.4 50.3 94.2 C 50.2 94 49.9 93.9 49.6 93.9 C 49.2 93.9 49 94 48.7 94.2 C 48.5 94.4 48.4 94.7 48.4 95.1 C 48.42 95.13 48.4 97.5 48.4 97.5 L 47.8 97.5 C 47.8 97.5 47.81 95.09 47.8 95.1 C 47.8 94.7 47.7 94.4 47.5 94.2 C 47.3 94 47.1 93.9 46.7 93.9 C 46.4 93.9 46.1 94 45.9 94.2 C 45.7 94.5 45.6 94.8 45.6 95.2 C 45.59 95.16 45.6 97.5 45.6 97.5 L 45 97.5 Z M 55.3 96.9 C 54.9 97.4 54.4 97.6 53.8 97.6 C 53.4 97.6 53 97.5 52.7 97.3 C 52.4 97 52.2 96.7 52.2 96.3 C 52.2 96.3 52.2 96.3 52.2 96.3 C 52.2 95.9 52.4 95.6 52.7 95.3 C 53.1 95.1 53.5 95 54 95 C 54.4 95 54.9 95 55.3 95.1 C 55.3 95.1 55.3 95 55.3 95 C 55.3 94.6 55.2 94.4 55 94.2 C 54.8 94 54.5 93.9 54.1 93.9 C 53.6 93.9 53.2 94 52.8 94.2 C 52.8 94.2 52.6 93.7 52.6 93.7 C 53.1 93.4 53.6 93.3 54.1 93.3 C 54.7 93.3 55.2 93.5 55.5 93.8 C 55.7 94.1 55.9 94.5 55.9 95 C 55.88 94.99 55.9 97.5 55.9 97.5 L 55.3 97.5 L 55.3 96.9 C 55.3 96.9 55.29 96.89 55.3 96.9 Z M 53.9 97.1 C 54.3 97.1 54.6 97 54.9 96.8 C 55.2 96.6 55.3 96.3 55.3 96 C 55.3 96 55.3 95.6 55.3 95.6 C 54.9 95.5 54.5 95.4 54.1 95.4 C 53.7 95.4 53.4 95.5 53.2 95.7 C 53 95.8 52.9 96 52.9 96.3 C 52.9 96.3 52.9 96.3 52.9 96.3 C 52.9 96.5 53 96.7 53.2 96.9 C 53.4 97 53.6 97.1 53.9 97.1 Z M 58.6 97.6 C 57.9 97.6 57.4 97.4 56.8 97 C 56.8 97 57.2 96.6 57.2 96.6 C 57.6 96.9 58.1 97.1 58.6 97.1 C 58.8 97.1 59.1 97 59.2 96.9 C 59.4 96.8 59.4 96.6 59.4 96.4 C 59.4 96.4 59.4 96.4 59.4 96.4 C 59.4 96.2 59.4 96.1 59.2 96 C 59 95.9 58.8 95.8 58.4 95.7 C 58.3 95.6 58.2 95.6 58.1 95.6 C 58 95.6 57.9 95.5 57.8 95.5 C 57.7 95.4 57.6 95.4 57.5 95.3 C 57.4 95.3 57.3 95.2 57.3 95.1 C 57.2 95 57.1 94.9 57.1 94.8 C 57.1 94.7 57 94.6 57 94.5 C 57 94.5 57 94.5 57 94.5 C 57 94.1 57.2 93.9 57.4 93.6 C 57.7 93.4 58 93.3 58.5 93.3 C 59 93.3 59.5 93.5 59.9 93.8 C 59.9 93.8 59.7 94.2 59.7 94.2 C 59.3 94 58.8 93.8 58.4 93.8 C 58.2 93.8 58 93.9 57.9 94 C 57.7 94.1 57.6 94.3 57.6 94.4 C 57.6 94.4 57.6 94.4 57.6 94.4 C 57.6 94.5 57.7 94.6 57.7 94.7 C 57.7 94.7 57.8 94.8 57.8 94.8 C 57.9 94.9 58 94.9 58.1 95 C 58.2 95 58.3 95 58.4 95.1 C 58.4 95.1 58.6 95.1 58.7 95.2 C 58.9 95.2 59 95.2 59.1 95.3 C 59.2 95.3 59.3 95.4 59.4 95.4 C 59.6 95.5 59.7 95.6 59.8 95.7 C 59.8 95.7 59.9 95.8 60 96 C 60 96.1 60 96.2 60 96.3 C 60 96.3 60 96.4 60 96.4 C 60 96.7 59.9 97 59.6 97.3 C 59.3 97.5 59 97.6 58.6 97.6 Z M 61.2 97.5 L 61.2 93.4 L 61.8 93.4 L 61.8 97.5 L 61.2 97.5 Z M 63.3 97.5 L 63.3 93.4 L 63.9 93.4 C 63.9 93.4 63.9 94.1 63.9 94.1 C 64.2 93.6 64.7 93.3 65.3 93.3 C 65.8 93.3 66.2 93.4 66.5 93.8 C 66.8 94.1 66.9 94.5 66.9 95 C 66.9 94.95 66.9 97.5 66.9 97.5 L 66.3 97.5 C 66.3 97.5 66.28 95.1 66.3 95.1 C 66.3 94.7 66.2 94.4 66 94.2 C 65.8 94 65.5 93.9 65.1 93.9 C 64.8 93.9 64.5 94 64.2 94.2 C 64 94.5 63.9 94.8 63.9 95.2 C 63.9 95.15 63.9 97.5 63.9 97.5 L 63.3 97.5 Z M 68.3 97.5 L 68.3 93.4 L 68.9 93.4 L 68.9 97.5 L 68.3 97.5 Z M 74.1 97.6 C 73.4 97.6 72.9 97.4 72.4 97 C 72.4 97 72.7 96.6 72.7 96.6 C 73.1 96.9 73.6 97.1 74.1 97.1 C 74.4 97.1 74.6 97 74.7 96.9 C 74.9 96.8 75 96.6 75 96.4 C 75 96.4 75 96.4 75 96.4 C 75 96.2 74.9 96.1 74.7 96 C 74.5 95.9 74.3 95.8 73.9 95.7 C 73.8 95.6 73.7 95.6 73.6 95.6 C 73.5 95.6 73.4 95.5 73.3 95.5 C 73.2 95.4 73.1 95.4 73 95.3 C 72.9 95.3 72.9 95.2 72.8 95.1 C 72.7 95 72.7 94.9 72.6 94.8 C 72.6 94.7 72.6 94.6 72.6 94.5 C 72.6 94.5 72.6 94.5 72.6 94.5 C 72.6 94.1 72.7 93.9 73 93.6 C 73.2 93.4 73.6 93.3 74 93.3 C 74.5 93.3 75 93.5 75.5 93.8 C 75.5 93.8 75.2 94.2 75.2 94.2 C 74.8 94 74.4 93.8 74 93.8 C 73.7 93.8 73.5 93.9 73.4 94 C 73.2 94.1 73.2 94.3 73.2 94.4 C 73.2 94.4 73.2 94.4 73.2 94.4 C 73.2 94.5 73.2 94.6 73.2 94.7 C 73.3 94.7 73.3 94.8 73.4 94.8 C 73.4 94.9 73.5 94.9 73.6 95 C 73.7 95 73.8 95 73.9 95.1 C 74 95.1 74.1 95.1 74.2 95.2 C 74.4 95.2 74.5 95.2 74.6 95.3 C 74.7 95.3 74.8 95.4 75 95.4 C 75.1 95.5 75.2 95.6 75.3 95.7 C 75.4 95.7 75.4 95.8 75.5 96 C 75.5 96.1 75.6 96.2 75.6 96.3 C 75.6 96.3 75.6 96.4 75.6 96.4 C 75.6 96.7 75.4 97 75.1 97.3 C 74.9 97.5 74.5 97.6 74.1 97.6 Z M 79.4 96.9 C 79.1 97.4 78.6 97.6 77.9 97.6 C 77.5 97.6 77.1 97.5 76.8 97.3 C 76.5 97 76.4 96.7 76.4 96.3 C 76.4 96.3 76.4 96.3 76.4 96.3 C 76.4 95.9 76.5 95.6 76.9 95.3 C 77.2 95.1 77.6 95 78.2 95 C 78.6 95 79 95 79.4 95.1 C 79.4 95.1 79.4 95 79.4 95 C 79.4 94.6 79.3 94.4 79.1 94.2 C 78.9 94 78.6 93.9 78.2 93.9 C 77.8 93.9 77.4 94 76.9 94.2 C 76.9 94.2 76.8 93.7 76.8 93.7 C 77.2 93.4 77.7 93.3 78.3 93.3 C 78.8 93.3 79.3 93.5 79.6 93.8 C 79.9 94.1 80 94.5 80 95 C 80.01 94.99 80 97.5 80 97.5 L 79.4 97.5 L 79.4 96.9 C 79.4 96.9 79.42 96.89 79.4 96.9 Z M 78 97.1 C 78.4 97.1 78.8 97 79 96.8 C 79.3 96.6 79.4 96.3 79.4 96 C 79.4 96 79.4 95.6 79.4 95.6 C 79 95.5 78.6 95.4 78.2 95.4 C 77.8 95.4 77.5 95.5 77.3 95.7 C 77.1 95.8 77 96 77 96.3 C 77 96.3 77 96.3 77 96.3 C 77 96.5 77.1 96.7 77.3 96.9 C 77.5 97 77.8 97.1 78 97.1 Z M 84.7 98.3 C 84.4 98.6 83.8 98.8 83.2 98.8 C 82.5 98.8 81.8 98.6 81.3 98.2 C 81.3 98.2 81.6 97.8 81.6 97.8 C 82 98.1 82.6 98.3 83.2 98.3 C 83.6 98.3 84 98.2 84.3 97.9 C 84.5 97.7 84.7 97.3 84.7 96.8 C 84.7 96.8 84.7 96.3 84.7 96.3 C 84.2 96.9 83.7 97.2 83 97.2 C 82.5 97.2 82.1 97 81.7 96.7 C 81.3 96.3 81.1 95.8 81.1 95.3 C 81.1 95.3 81.1 95.2 81.1 95.2 C 81.1 94.7 81.3 94.2 81.7 93.8 C 82.1 93.5 82.5 93.3 83 93.3 C 83.7 93.3 84.2 93.6 84.6 94.1 C 84.65 94.13 84.6 93.4 84.6 93.4 L 85.3 93.4 C 85.3 93.4 85.26 96.8 85.3 96.8 C 85.3 97.4 85.1 97.9 84.7 98.3 C 84.7 98.3 84.7 98.3 84.7 98.3 Z M 83.2 96.7 C 83.6 96.7 83.9 96.5 84.2 96.3 C 84.5 96 84.7 95.7 84.7 95.3 C 84.7 95.3 84.7 95.2 84.7 95.2 C 84.7 94.8 84.5 94.5 84.2 94.2 C 83.9 94 83.6 93.8 83.2 93.8 C 82.7 93.8 82.4 94 82.1 94.2 C 81.9 94.5 81.7 94.8 81.7 95.2 C 81.7 95.2 81.7 95.2 81.7 95.2 C 81.7 95.7 81.9 96 82.1 96.3 C 82.4 96.5 82.8 96.7 83.2 96.7 Z M 84.5 91.8 C 84.5 92.1 84.4 92.3 84.1 92.5 C 83.9 92.7 83.7 92.8 83.3 92.8 C 83 92.8 82.7 92.7 82.5 92.5 C 82.3 92.3 82.2 92.1 82.1 91.8 C 82.1 91.8 82.6 91.8 82.6 91.8 C 82.7 92.1 82.9 92.3 83.3 92.3 C 83.7 92.3 83.9 92.1 84.1 91.8 C 84.05 91.77 84.5 91.8 84.5 91.8 C 84.5 91.8 84.5 91.77 84.5 91.8 Z M 86.7 97.5 L 86.7 91.7 L 87.3 91.7 L 87.3 97.5 L 86.7 97.5 Z M 91.5 96.9 C 91.1 97.4 90.6 97.6 90 97.6 C 89.6 97.6 89.2 97.5 88.9 97.3 C 88.6 97 88.4 96.7 88.4 96.3 C 88.4 96.3 88.4 96.3 88.4 96.3 C 88.4 95.9 88.6 95.6 88.9 95.3 C 89.2 95.1 89.7 95 90.2 95 C 90.6 95 91 95 91.5 95.1 C 91.5 95.1 91.5 95 91.5 95 C 91.5 94.6 91.4 94.4 91.2 94.2 C 90.9 94 90.6 93.9 90.2 93.9 C 89.8 93.9 89.4 94 89 94.2 C 89 94.2 88.8 93.7 88.8 93.7 C 89.3 93.4 89.8 93.3 90.3 93.3 C 90.9 93.3 91.3 93.5 91.6 93.8 C 91.9 94.1 92.1 94.5 92.1 95 C 92.06 94.99 92.1 97.5 92.1 97.5 L 91.5 97.5 L 91.5 96.9 C 91.5 96.9 91.47 96.89 91.5 96.9 Z M 90.1 97.1 C 90.5 97.1 90.8 97 91.1 96.8 C 91.3 96.6 91.5 96.3 91.5 96 C 91.5 96 91.5 95.6 91.5 95.6 C 91.1 95.5 90.7 95.4 90.3 95.4 C 89.9 95.4 89.6 95.5 89.4 95.7 C 89.2 95.8 89.1 96 89.1 96.3 C 89.1 96.3 89.1 96.3 89.1 96.3 C 89.1 96.5 89.2 96.7 89.4 96.9 C 89.6 97 89.8 97.1 90.1 97.1 Z M 93.4 97.5 L 93.4 93.4 L 94 93.4 C 94 93.4 93.99 94.46 94 94.5 C 94.2 94.1 94.4 93.8 94.7 93.6 C 95 93.4 95.3 93.3 95.7 93.3 C 95.68 93.31 95.7 94 95.7 94 C 95.7 94 95.63 93.97 95.6 94 C 95.2 94 94.8 94.1 94.5 94.5 C 94.1 94.8 94 95.3 94 95.9 C 93.99 95.87 94 97.5 94 97.5 L 93.4 97.5 Z " stroke="none" fill="#000"/>  </g>  <g id="Polygon369938">    <path d="M 2.1 88 C 1.4 88 0.9 87.8 0.3 87.4 C 0.3 87.4 0.7 87 0.7 87 C 1.1 87.3 1.6 87.5 2.1 87.5 C 2.3 87.5 2.6 87.4 2.7 87.3 C 2.9 87.2 2.9 87 2.9 86.8 C 2.9 86.8 2.9 86.8 2.9 86.8 C 2.9 86.6 2.9 86.5 2.7 86.4 C 2.5 86.3 2.2 86.2 1.9 86.1 C 1.8 86 1.7 86 1.6 86 C 1.5 86 1.4 85.9 1.3 85.9 C 1.1 85.8 1 85.8 1 85.7 C 0.9 85.7 0.8 85.6 0.8 85.5 C 0.7 85.4 0.6 85.3 0.6 85.2 C 0.6 85.1 0.5 85 0.5 84.9 C 0.5 84.9 0.5 84.9 0.5 84.9 C 0.5 84.5 0.7 84.3 0.9 84 C 1.2 83.8 1.5 83.7 2 83.7 C 2.5 83.7 3 83.9 3.4 84.2 C 3.4 84.2 3.2 84.6 3.2 84.6 C 2.7 84.4 2.3 84.2 1.9 84.2 C 1.7 84.2 1.5 84.3 1.4 84.4 C 1.2 84.5 1.1 84.7 1.1 84.8 C 1.1 84.8 1.1 84.8 1.1 84.8 C 1.1 84.9 1.2 85 1.2 85.1 C 1.2 85.1 1.3 85.2 1.3 85.2 C 1.4 85.3 1.5 85.3 1.6 85.4 C 1.7 85.4 1.8 85.4 1.9 85.5 C 1.9 85.5 2.1 85.5 2.2 85.6 C 2.4 85.6 2.5 85.6 2.6 85.7 C 2.7 85.7 2.8 85.8 2.9 85.8 C 3.1 85.9 3.2 86 3.3 86.1 C 3.3 86.1 3.4 86.2 3.4 86.4 C 3.5 86.5 3.5 86.6 3.5 86.7 C 3.5 86.7 3.5 86.8 3.5 86.8 C 3.5 87.1 3.4 87.4 3.1 87.7 C 2.8 87.9 2.5 88 2.1 88 Z M 6.6 88 C 5.9 88 5.4 87.8 5 87.4 C 4.6 87 4.4 86.5 4.4 85.9 C 4.4 85.9 4.4 85.9 4.4 85.9 C 4.4 85.3 4.6 84.7 5 84.3 C 5.4 83.9 6 83.7 6.6 83.7 C 7.2 83.7 7.7 83.9 8.1 84.3 C 8.5 84.7 8.7 85.2 8.7 85.8 C 8.7 85.8 8.7 85.9 8.7 85.9 C 8.7 86.5 8.5 87 8.1 87.4 C 7.7 87.8 7.2 88 6.6 88 Z M 6.6 87.5 C 7 87.5 7.4 87.3 7.7 87 C 8 86.7 8.1 86.3 8.1 85.9 C 8.1 85.9 8.1 85.9 8.1 85.9 C 8.1 85.4 7.9 85 7.7 84.7 C 7.4 84.4 7 84.2 6.6 84.2 C 6.1 84.2 5.8 84.4 5.5 84.7 C 5.2 85 5 85.4 5 85.8 C 5 85.8 5 85.9 5 85.9 C 5 86.3 5.2 86.7 5.5 87 C 5.8 87.3 6.1 87.5 6.6 87.5 Z M 9.8 87.9 L 9.8 83.8 L 10.5 83.8 C 10.5 83.8 10.46 84.5 10.5 84.5 C 10.8 84 11.3 83.7 11.9 83.7 C 12.4 83.7 12.7 83.8 13 84.2 C 13.3 84.5 13.5 84.9 13.5 85.4 C 13.46 85.35 13.5 87.9 13.5 87.9 L 12.8 87.9 C 12.8 87.9 12.84 85.5 12.8 85.5 C 12.8 85.1 12.7 84.8 12.5 84.6 C 12.3 84.4 12.1 84.3 11.7 84.3 C 11.3 84.3 11 84.4 10.8 84.6 C 10.6 84.9 10.5 85.2 10.5 85.6 C 10.46 85.55 10.5 87.9 10.5 87.9 L 9.8 87.9 Z M 17.7 87.2 C 17.4 87.7 16.9 88 16.3 88 C 15.8 88 15.4 87.9 15.1 87.6 C 14.8 87.2 14.7 86.8 14.7 86.4 C 14.7 86.35 14.7 83.8 14.7 83.8 L 15.3 83.8 C 15.3 83.8 15.32 86.2 15.3 86.2 C 15.3 86.6 15.4 86.9 15.6 87.1 C 15.8 87.3 16.1 87.4 16.5 87.4 C 16.8 87.4 17.1 87.3 17.4 87.1 C 17.6 86.8 17.7 86.5 17.7 86.2 C 17.7 86.15 17.7 83.8 17.7 83.8 L 18.3 83.8 L 18.3 87.9 L 17.7 87.9 L 17.7 87.2 C 17.7 87.2 17.7 87.2 17.7 87.2 Z M 21.2 89.2 L 20.6 88.9 C 20.6 88.9 21.18 87.97 21.2 88 C 20.7 87.9 20.3 87.6 19.9 87.2 C 19.6 86.8 19.4 86.4 19.4 85.9 C 19.4 85.9 19.4 85.9 19.4 85.9 C 19.4 85.3 19.6 84.7 20 84.3 C 20.5 83.9 21 83.7 21.6 83.7 C 22.2 83.7 22.8 83.9 23.2 84.4 C 23.2 84.4 22.8 84.9 22.8 84.9 C 22.4 84.4 22 84.2 21.6 84.2 C 21.1 84.2 20.8 84.4 20.5 84.7 C 20.2 85 20.1 85.4 20.1 85.8 C 20.1 85.8 20.1 85.9 20.1 85.9 C 20.1 86.3 20.2 86.7 20.5 87 C 20.8 87.3 21.2 87.5 21.6 87.5 C 22.1 87.5 22.5 87.3 22.9 86.8 C 22.9 86.8 23.2 87.2 23.2 87.2 C 22.8 87.7 22.3 88 21.7 88 C 21.68 88.01 21.2 89.2 21.2 89.2 Z M 24.3 87.9 L 24.3 82.1 L 24.9 82.1 L 24.9 87.9 L 24.3 87.9 Z M 29.1 87.3 C 28.7 87.8 28.2 88 27.6 88 C 27.2 88 26.8 87.9 26.5 87.7 C 26.2 87.4 26.1 87.1 26.1 86.7 C 26.1 86.7 26.1 86.7 26.1 86.7 C 26.1 86.3 26.2 86 26.5 85.7 C 26.9 85.5 27.3 85.4 27.8 85.4 C 28.2 85.4 28.7 85.4 29.1 85.5 C 29.1 85.5 29.1 85.4 29.1 85.4 C 29.1 85 29 84.8 28.8 84.6 C 28.6 84.4 28.3 84.3 27.9 84.3 C 27.4 84.3 27 84.4 26.6 84.6 C 26.6 84.6 26.4 84.1 26.4 84.1 C 26.9 83.8 27.4 83.7 27.9 83.7 C 28.5 83.7 29 83.9 29.3 84.2 C 29.5 84.5 29.7 84.9 29.7 85.4 C 29.69 85.39 29.7 87.9 29.7 87.9 L 29.1 87.9 L 29.1 87.3 C 29.1 87.3 29.1 87.29 29.1 87.3 Z M 27.7 87.5 C 28.1 87.5 28.4 87.4 28.7 87.2 C 29 87 29.1 86.7 29.1 86.4 C 29.1 86.4 29.1 86 29.1 86 C 28.7 85.9 28.3 85.8 27.9 85.8 C 27.5 85.8 27.2 85.9 27 86.1 C 26.8 86.2 26.7 86.4 26.7 86.7 C 26.7 86.7 26.7 86.7 26.7 86.7 C 26.7 86.9 26.8 87.1 27 87.3 C 27.2 87.4 27.4 87.5 27.7 87.5 Z M 31 87.9 L 31 83.8 L 31.6 83.8 C 31.6 83.8 31.62 84.86 31.6 84.9 C 31.8 84.5 32 84.2 32.3 84 C 32.6 83.8 32.9 83.7 33.3 83.7 C 33.3 83.71 33.3 84.4 33.3 84.4 C 33.3 84.4 33.26 84.37 33.3 84.4 C 32.8 84.4 32.4 84.5 32.1 84.9 C 31.8 85.2 31.6 85.7 31.6 86.3 C 31.62 86.27 31.6 87.9 31.6 87.9 L 31 87.9 Z M 34.3 87.9 L 34.3 83.8 L 34.9 83.8 L 34.9 87.9 L 34.3 87.9 Z M 36.3 87.9 L 36.3 83.8 L 37 83.8 C 37 83.8 36.96 84.5 37 84.5 C 37.3 84 37.8 83.7 38.4 83.7 C 38.9 83.7 39.3 83.8 39.5 84.2 C 39.8 84.5 40 84.9 40 85.4 C 39.96 85.35 40 87.9 40 87.9 L 39.3 87.9 C 39.3 87.9 39.34 85.5 39.3 85.5 C 39.3 85.1 39.2 84.8 39 84.6 C 38.8 84.4 38.6 84.3 38.2 84.3 C 37.8 84.3 37.5 84.4 37.3 84.6 C 37.1 84.9 37 85.2 37 85.6 C 36.96 85.55 37 87.9 37 87.9 L 36.3 87.9 Z M 45 88 C 44.4 88 43.8 87.8 43.3 87.4 C 43.3 87.4 43.6 87 43.6 87 C 44.1 87.3 44.6 87.5 45.1 87.5 C 45.3 87.5 45.5 87.4 45.7 87.3 C 45.8 87.2 45.9 87 45.9 86.8 C 45.9 86.8 45.9 86.8 45.9 86.8 C 45.9 86.6 45.8 86.5 45.7 86.4 C 45.5 86.3 45.2 86.2 44.9 86.1 C 44.7 86 44.6 86 44.6 86 C 44.5 86 44.4 85.9 44.3 85.9 C 44.1 85.8 44 85.8 44 85.7 C 43.9 85.7 43.8 85.6 43.7 85.5 C 43.7 85.4 43.6 85.3 43.6 85.2 C 43.5 85.1 43.5 85 43.5 84.9 C 43.5 84.9 43.5 84.9 43.5 84.9 C 43.5 84.5 43.7 84.3 43.9 84 C 44.2 83.8 44.5 83.7 44.9 83.7 C 45.5 83.7 46 83.9 46.4 84.2 C 46.4 84.2 46.1 84.6 46.1 84.6 C 45.7 84.4 45.3 84.2 44.9 84.2 C 44.7 84.2 44.5 84.3 44.3 84.4 C 44.2 84.5 44.1 84.7 44.1 84.8 C 44.1 84.8 44.1 84.8 44.1 84.8 C 44.1 84.9 44.1 85 44.2 85.1 C 44.2 85.1 44.3 85.2 44.3 85.2 C 44.4 85.3 44.5 85.3 44.6 85.4 C 44.7 85.4 44.8 85.4 44.9 85.5 C 44.9 85.5 45 85.5 45.2 85.6 C 45.3 85.6 45.5 85.6 45.6 85.7 C 45.7 85.7 45.8 85.8 45.9 85.8 C 46.1 85.9 46.2 86 46.2 86.1 C 46.3 86.1 46.4 86.2 46.4 86.4 C 46.5 86.5 46.5 86.6 46.5 86.7 C 46.5 86.7 46.5 86.8 46.5 86.8 C 46.5 87.1 46.4 87.4 46.1 87.7 C 45.8 87.9 45.5 88 45 88 Z M 49.5 88 C 48.9 88 48.4 87.8 48 87.4 C 47.6 87 47.4 86.5 47.4 85.9 C 47.4 85.9 47.4 85.9 47.4 85.9 C 47.4 85.3 47.6 84.7 48 84.3 C 48.4 83.9 48.9 83.7 49.6 83.7 C 50.2 83.7 50.7 83.9 51.1 84.3 C 51.5 84.7 51.7 85.2 51.7 85.8 C 51.7 85.8 51.7 85.9 51.7 85.9 C 51.7 86.5 51.5 87 51.1 87.4 C 50.7 87.8 50.2 88 49.5 88 Z M 49.6 87.5 C 50 87.5 50.4 87.3 50.6 87 C 50.9 86.7 51.1 86.3 51.1 85.9 C 51.1 85.9 51.1 85.9 51.1 85.9 C 51.1 85.4 50.9 85 50.6 84.7 C 50.3 84.4 50 84.2 49.5 84.2 C 49.1 84.2 48.7 84.4 48.5 84.7 C 48.2 85 48 85.4 48 85.8 C 48 85.8 48 85.9 48 85.9 C 48 86.3 48.2 86.7 48.5 87 C 48.8 87.3 49.1 87.5 49.6 87.5 Z M 52.8 87.9 L 52.8 83.8 L 53.4 83.8 C 53.4 83.8 53.44 84.5 53.4 84.5 C 53.8 84 54.2 83.7 54.9 83.7 C 55.3 83.7 55.7 83.8 56 84.2 C 56.3 84.5 56.4 84.9 56.4 85.4 C 56.44 85.35 56.4 87.9 56.4 87.9 L 55.8 87.9 C 55.8 87.9 55.82 85.5 55.8 85.5 C 55.8 85.1 55.7 84.8 55.5 84.6 C 55.3 84.4 55 84.3 54.7 84.3 C 54.3 84.3 54 84.4 53.8 84.6 C 53.6 84.9 53.4 85.2 53.4 85.6 C 53.44 85.55 53.4 87.9 53.4 87.9 L 52.8 87.9 Z M 63.5 87.1 C 63 87.7 62.5 88 61.9 88 C 61.4 88 60.9 87.8 60.5 87.4 C 60.1 87 59.9 86.5 59.9 85.9 C 59.9 85.9 59.9 85.8 59.9 85.8 C 59.9 85.2 60.1 84.7 60.5 84.3 C 60.9 83.9 61.4 83.7 61.9 83.7 C 62.5 83.7 63.1 84 63.5 84.6 C 63.47 84.57 63.5 82.1 63.5 82.1 L 64.1 82.1 L 64.1 87.9 L 63.5 87.9 L 63.5 87.1 C 63.5 87.1 63.47 87.09 63.5 87.1 Z M 62 87.5 C 62.4 87.5 62.7 87.3 63 87 C 63.3 86.7 63.5 86.3 63.5 85.9 C 63.5 85.9 63.5 85.8 63.5 85.8 C 63.5 85.4 63.3 85 63 84.7 C 62.7 84.4 62.4 84.2 62 84.2 C 61.6 84.2 61.2 84.4 61 84.7 C 60.7 85 60.5 85.4 60.5 85.8 C 60.5 85.8 60.5 85.9 60.5 85.9 C 60.5 86.3 60.7 86.7 61 87 C 61.2 87.3 61.6 87.5 62 87.5 Z M 69 87.2 C 68.5 87.8 68 88 67.3 88 C 66.7 88 66.2 87.8 65.8 87.4 C 65.4 87 65.2 86.5 65.2 85.9 C 65.2 85.9 65.2 85.8 65.2 85.8 C 65.2 85.2 65.4 84.7 65.8 84.3 C 66.1 83.9 66.6 83.7 67.2 83.7 C 67.8 83.7 68.3 83.9 68.6 84.3 C 68.9 84.7 69.1 85.3 69.1 85.9 C 69.1 86 69.1 86 69.1 86.1 C 69.1 86.1 65.8 86.1 65.8 86.1 C 65.9 86.5 66 86.9 66.3 87.1 C 66.6 87.4 66.9 87.5 67.3 87.5 C 67.8 87.5 68.2 87.3 68.6 86.9 C 68.59 86.89 69 87.2 69 87.2 C 69 87.2 68.98 87.24 69 87.2 Z M 65.8 85.6 C 65.8 85.6 68.5 85.6 68.5 85.6 C 68.5 85.2 68.3 84.9 68.1 84.6 C 67.9 84.3 67.6 84.2 67.2 84.2 C 66.8 84.2 66.5 84.3 66.3 84.6 C 66 84.9 65.9 85.2 65.8 85.6 Z M 70.2 87.9 L 70.2 83.8 L 70.8 83.8 C 70.8 83.8 70.81 84.86 70.8 84.9 C 71 84.5 71.2 84.2 71.5 84 C 71.8 83.8 72.1 83.7 72.5 83.7 C 72.5 83.71 72.5 84.4 72.5 84.4 C 72.5 84.4 72.45 84.37 72.5 84.4 C 72 84.4 71.6 84.5 71.3 84.9 C 71 85.2 70.8 85.7 70.8 86.3 C 70.81 86.27 70.8 87.9 70.8 87.9 L 70.2 87.9 Z M 76.8 87.2 C 76.3 87.8 75.8 88 75.1 88 C 74.5 88 74 87.8 73.6 87.4 C 73.2 87 73 86.5 73 85.9 C 73 85.9 73 85.8 73 85.8 C 73 85.2 73.2 84.7 73.6 84.3 C 73.9 83.9 74.4 83.7 75 83.7 C 75.6 83.7 76.1 83.9 76.4 84.3 C 76.7 84.7 76.9 85.3 76.9 85.9 C 76.9 86 76.9 86 76.9 86.1 C 76.9 86.1 73.6 86.1 73.6 86.1 C 73.7 86.5 73.8 86.9 74.1 87.1 C 74.4 87.4 74.7 87.5 75.1 87.5 C 75.6 87.5 76 87.3 76.4 86.9 C 76.39 86.89 76.8 87.2 76.8 87.2 C 76.8 87.2 76.78 87.24 76.8 87.2 Z M 73.6 85.6 C 73.6 85.6 76.3 85.6 76.3 85.6 C 76.3 85.2 76.1 84.9 75.9 84.6 C 75.7 84.3 75.4 84.2 75 84.2 C 74.6 84.2 74.3 84.3 74.1 84.6 C 73.8 84.9 73.7 85.2 73.6 85.6 Z M 81.6 87.2 C 81.1 87.7 80.5 88 79.9 88 C 79.3 88 78.8 87.8 78.4 87.4 C 77.9 87 77.7 86.5 77.7 85.9 C 77.7 85.9 77.7 85.9 77.7 85.9 C 77.7 85.3 77.9 84.7 78.4 84.3 C 78.8 83.9 79.3 83.7 79.9 83.7 C 80.5 83.7 81.1 83.9 81.5 84.4 C 81.5 84.4 81.1 84.9 81.1 84.9 C 80.7 84.4 80.3 84.2 79.9 84.2 C 79.4 84.2 79.1 84.4 78.8 84.7 C 78.5 85 78.4 85.4 78.4 85.8 C 78.4 85.8 78.4 85.9 78.4 85.9 C 78.4 86.3 78.5 86.7 78.8 87 C 79.1 87.3 79.5 87.5 79.9 87.5 C 80.4 87.5 80.8 87.3 81.2 86.8 C 81.16 86.85 81.6 87.2 81.6 87.2 C 81.6 87.2 81.55 87.21 81.6 87.2 Z M 86 87.2 C 85.5 87.8 84.9 88 84.3 88 C 83.7 88 83.2 87.8 82.8 87.4 C 82.4 87 82.2 86.5 82.2 85.9 C 82.2 85.9 82.2 85.8 82.2 85.8 C 82.2 85.2 82.4 84.7 82.8 84.3 C 83.1 83.9 83.6 83.7 84.2 83.7 C 84.8 83.7 85.2 83.9 85.6 84.3 C 85.9 84.7 86.1 85.3 86.1 85.9 C 86.1 86 86.1 86 86.1 86.1 C 86.1 86.1 82.8 86.1 82.8 86.1 C 82.9 86.5 83 86.9 83.3 87.1 C 83.6 87.4 83.9 87.5 84.3 87.5 C 84.8 87.5 85.2 87.3 85.6 86.9 C 85.58 86.89 86 87.2 86 87.2 C 86 87.2 85.96 87.24 86 87.2 Z M 82.8 85.6 C 82.8 85.6 85.5 85.6 85.5 85.6 C 85.4 85.2 85.3 84.9 85.1 84.6 C 84.9 84.3 84.6 84.2 84.2 84.2 C 83.8 84.2 83.5 84.3 83.3 84.6 C 83 84.9 82.9 85.2 82.8 85.6 Z " stroke="none" fill="#000"/>  </g>  <g id="Polygon369937">    <path d="M 2.1 79.6 L 1.5 79.3 C 1.5 79.3 2.17 78.37 2.2 78.4 C 1.7 78.3 1.3 78 0.9 77.6 C 0.6 77.2 0.4 76.8 0.4 76.3 C 0.4 76.3 0.4 76.3 0.4 76.3 C 0.4 75.7 0.6 75.1 1 74.7 C 1.4 74.3 1.9 74.1 2.6 74.1 C 3.2 74.1 3.7 74.3 4.2 74.8 C 4.2 74.8 3.8 75.3 3.8 75.3 C 3.4 74.8 3 74.6 2.5 74.6 C 2.1 74.6 1.8 74.8 1.5 75.1 C 1.2 75.4 1.1 75.8 1.1 76.2 C 1.1 76.2 1.1 76.3 1.1 76.3 C 1.1 76.7 1.2 77.1 1.5 77.4 C 1.8 77.7 2.2 77.9 2.6 77.9 C 3 77.9 3.5 77.7 3.8 77.2 C 3.8 77.2 4.2 77.6 4.2 77.6 C 3.8 78.1 3.3 78.4 2.7 78.4 C 2.67 78.41 2.1 79.6 2.1 79.6 Z M 7 78.4 C 6.4 78.4 5.9 78.2 5.5 77.8 C 5.1 77.4 4.9 76.9 4.9 76.3 C 4.9 76.3 4.9 76.3 4.9 76.3 C 4.9 75.7 5.1 75.1 5.5 74.7 C 5.9 74.3 6.4 74.1 7 74.1 C 7.7 74.1 8.2 74.3 8.6 74.7 C 9 75.1 9.2 75.6 9.2 76.2 C 9.2 76.2 9.2 76.3 9.2 76.3 C 9.2 76.9 9 77.4 8.6 77.8 C 8.2 78.2 7.6 78.4 7 78.4 Z M 7 77.9 C 7.5 77.9 7.8 77.7 8.1 77.4 C 8.4 77.1 8.6 76.7 8.6 76.3 C 8.6 76.3 8.6 76.3 8.6 76.3 C 8.6 75.8 8.4 75.4 8.1 75.1 C 7.8 74.8 7.5 74.6 7 74.6 C 6.6 74.6 6.2 74.8 5.9 75.1 C 5.7 75.4 5.5 75.8 5.5 76.2 C 5.5 76.2 5.5 76.3 5.5 76.3 C 5.5 76.7 5.7 77.1 6 77.4 C 6.2 77.7 6.6 77.9 7 77.9 Z M 10.3 78.3 L 10.3 72.5 L 10.9 72.5 L 10.9 76.5 L 13.2 74.2 L 13.9 74.2 L 12.2 76 L 14 78.3 L 13.2 78.3 L 11.8 76.4 L 10.9 77.2 L 10.9 78.3 L 10.3 78.3 Z M 17.3 73.3 L 17.3 72.6 L 18 72.6 L 18 73.3 L 17.3 73.3 Z M 17.3 78.3 L 17.3 74.2 L 17.9 74.2 L 17.9 78.3 L 17.3 78.3 Z M 19.4 78.3 L 19.4 74.2 L 20 74.2 C 20 74.2 19.98 74.9 20 74.9 C 20.3 74.4 20.8 74.1 21.4 74.1 C 21.9 74.1 22.3 74.2 22.6 74.6 C 22.8 74.9 23 75.3 23 75.8 C 22.98 75.75 23 78.3 23 78.3 L 22.4 78.3 C 22.4 78.3 22.36 75.9 22.4 75.9 C 22.4 75.5 22.3 75.2 22.1 75 C 21.9 74.8 21.6 74.7 21.2 74.7 C 20.9 74.7 20.6 74.8 20.3 75 C 20.1 75.3 20 75.6 20 76 C 19.98 75.95 20 78.3 20 78.3 L 19.4 78.3 Z M 27.8 77.6 C 27.4 78.1 26.8 78.4 26.2 78.4 C 25.5 78.4 25 78.2 24.6 77.8 C 24.2 77.4 24 76.9 24 76.3 C 24 76.3 24 76.3 24 76.3 C 24 75.7 24.2 75.1 24.6 74.7 C 25 74.3 25.5 74.1 26.2 74.1 C 26.8 74.1 27.3 74.3 27.8 74.8 C 27.8 74.8 27.4 75.3 27.4 75.3 C 27 74.8 26.6 74.6 26.1 74.6 C 25.7 74.6 25.4 74.8 25.1 75.1 C 24.8 75.4 24.7 75.8 24.7 76.2 C 24.7 76.2 24.7 76.3 24.7 76.3 C 24.7 76.7 24.8 77.1 25.1 77.4 C 25.4 77.7 25.8 77.9 26.2 77.9 C 26.6 77.9 27.1 77.7 27.4 77.2 C 27.45 77.25 27.8 77.6 27.8 77.6 C 27.8 77.6 27.84 77.61 27.8 77.6 Z M 32.2 77.6 C 31.8 78.2 31.2 78.4 30.5 78.4 C 30 78.4 29.5 78.2 29.1 77.8 C 28.7 77.4 28.5 76.9 28.5 76.3 C 28.5 76.3 28.5 76.2 28.5 76.2 C 28.5 75.6 28.7 75.1 29 74.7 C 29.4 74.3 29.9 74.1 30.5 74.1 C 31.1 74.1 31.5 74.3 31.9 74.7 C 32.2 75.1 32.4 75.7 32.4 76.3 C 32.4 76.4 32.4 76.4 32.4 76.5 C 32.4 76.5 29.1 76.5 29.1 76.5 C 29.1 76.9 29.3 77.3 29.6 77.5 C 29.9 77.8 30.2 77.9 30.6 77.9 C 31.1 77.9 31.5 77.7 31.9 77.3 C 31.86 77.29 32.2 77.6 32.2 77.6 C 32.2 77.6 32.25 77.64 32.2 77.6 Z M 29.1 76 C 29.1 76 31.8 76 31.8 76 C 31.7 75.6 31.6 75.3 31.4 75 C 31.2 74.7 30.8 74.6 30.4 74.6 C 30.1 74.6 29.8 74.7 29.5 75 C 29.3 75.3 29.1 75.6 29.1 76 Z M 38.1 73.6 L 38.1 72.8 L 38.8 72.8 L 38.8 73.6 L 38.1 73.6 Z M 36.7 73.6 L 36.7 72.8 L 37.4 72.8 L 37.4 73.6 L 36.7 73.6 Z M 37.8 78.4 C 37.1 78.4 36.6 78.2 36.2 77.8 C 35.8 77.4 35.6 76.9 35.6 76.3 C 35.6 76.3 35.6 76.3 35.6 76.3 C 35.6 75.7 35.8 75.1 36.2 74.7 C 36.6 74.3 37.2 74.1 37.8 74.1 C 38.4 74.1 38.9 74.3 39.3 74.7 C 39.7 75.1 39.9 75.6 39.9 76.2 C 39.9 76.2 39.9 76.3 39.9 76.3 C 39.9 76.9 39.7 77.4 39.3 77.8 C 38.9 78.2 38.4 78.4 37.8 78.4 Z M 37.8 77.9 C 38.2 77.9 38.6 77.7 38.9 77.4 C 39.2 77.1 39.3 76.7 39.3 76.3 C 39.3 76.3 39.3 76.3 39.3 76.3 C 39.3 75.8 39.1 75.4 38.9 75.1 C 38.6 74.8 38.2 74.6 37.8 74.6 C 37.3 74.6 37 74.8 36.7 75.1 C 36.4 75.4 36.2 75.8 36.2 76.2 C 36.2 76.2 36.2 76.3 36.2 76.3 C 36.2 76.7 36.4 77.1 36.7 77.4 C 37 77.7 37.3 77.9 37.8 77.9 Z M 44.4 79.1 C 44.1 79.4 43.6 79.6 42.9 79.6 C 42.2 79.6 41.5 79.4 41 79 C 41 79 41.3 78.6 41.3 78.6 C 41.8 78.9 42.3 79.1 42.9 79.1 C 43.3 79.1 43.7 79 44 78.7 C 44.2 78.5 44.4 78.1 44.4 77.6 C 44.4 77.6 44.4 77.1 44.4 77.1 C 43.9 77.7 43.4 78 42.7 78 C 42.2 78 41.8 77.8 41.4 77.5 C 41 77.1 40.8 76.6 40.8 76.1 C 40.8 76.1 40.8 76 40.8 76 C 40.8 75.5 41 75 41.4 74.6 C 41.8 74.3 42.2 74.1 42.7 74.1 C 43.4 74.1 43.9 74.4 44.4 74.9 C 44.36 74.93 44.4 74.2 44.4 74.2 L 45 74.2 C 45 74.2 44.98 77.6 45 77.6 C 45 78.2 44.8 78.7 44.4 79.1 C 44.4 79.1 44.4 79.1 44.4 79.1 Z M 42.9 77.5 C 43.3 77.5 43.6 77.3 43.9 77.1 C 44.2 76.8 44.4 76.5 44.4 76.1 C 44.4 76.1 44.4 76 44.4 76 C 44.4 75.6 44.2 75.3 43.9 75 C 43.6 74.8 43.3 74.6 42.9 74.6 C 42.5 74.6 42.1 74.8 41.8 75 C 41.6 75.3 41.4 75.6 41.4 76 C 41.4 76 41.4 76 41.4 76 C 41.4 76.5 41.6 76.8 41.9 77.1 C 42.1 77.3 42.5 77.5 42.9 77.5 Z M 44.2 72.6 C 44.2 72.9 44.1 73.1 43.9 73.3 C 43.6 73.5 43.4 73.6 43 73.6 C 42.7 73.6 42.4 73.5 42.2 73.3 C 42 73.1 41.9 72.9 41.8 72.6 C 41.8 72.6 42.3 72.6 42.3 72.6 C 42.4 72.9 42.6 73.1 43 73.1 C 43.4 73.1 43.7 72.9 43.8 72.6 C 43.77 72.57 44.2 72.6 44.2 72.6 C 44.2 72.6 44.22 72.57 44.2 72.6 Z M 48.4 73.6 L 48.4 72.8 L 49.1 72.8 L 49.1 73.6 L 48.4 73.6 Z M 47 73.6 L 47 72.8 L 47.7 72.8 L 47.7 73.6 L 47 73.6 Z M 49.3 77.6 C 49 78.1 48.5 78.4 47.9 78.4 C 47.4 78.4 47 78.3 46.7 78 C 46.4 77.6 46.3 77.2 46.3 76.8 C 46.29 76.75 46.3 74.2 46.3 74.2 L 46.9 74.2 C 46.9 74.2 46.9 76.6 46.9 76.6 C 46.9 77 47 77.3 47.2 77.5 C 47.4 77.7 47.7 77.8 48 77.8 C 48.4 77.8 48.7 77.7 48.9 77.5 C 49.2 77.2 49.3 76.9 49.3 76.6 C 49.29 76.55 49.3 74.2 49.3 74.2 L 49.9 74.2 L 49.9 78.3 L 49.3 78.3 L 49.3 77.6 C 49.3 77.6 49.29 77.6 49.3 77.6 Z M 53.4 78.2 C 53.2 78.3 52.9 78.4 52.7 78.4 C 52.3 78.4 52 78.3 51.8 78.1 C 51.6 77.9 51.5 77.6 51.5 77.2 C 51.5 77.22 51.5 74.7 51.5 74.7 L 50.9 74.7 L 50.9 74.2 L 51.5 74.2 L 51.5 72.9 L 52.1 72.9 L 52.1 74.2 L 53.4 74.2 L 53.4 74.7 L 52.1 74.7 C 52.1 74.7 52.11 77.14 52.1 77.1 C 52.1 77.6 52.3 77.8 52.8 77.8 C 53 77.8 53.2 77.8 53.4 77.7 C 53.41 77.69 53.4 78.2 53.4 78.2 C 53.4 78.2 53.41 78.21 53.4 78.2 Z M 56.6 73.6 L 56.6 72.8 L 57.3 72.8 L 57.3 73.6 L 56.6 73.6 Z M 55.2 73.6 L 55.2 72.8 L 55.9 72.8 L 55.9 73.6 L 55.2 73.6 Z M 57.4 77.6 C 57.1 78.1 56.6 78.4 56 78.4 C 55.5 78.4 55.2 78.3 54.9 78 C 54.6 77.6 54.4 77.2 54.4 76.8 C 54.45 76.75 54.4 74.2 54.4 74.2 L 55.1 74.2 C 55.1 74.2 55.06 76.6 55.1 76.6 C 55.1 77 55.2 77.3 55.4 77.5 C 55.6 77.7 55.8 77.8 56.2 77.8 C 56.6 77.8 56.9 77.7 57.1 77.5 C 57.3 77.2 57.4 76.9 57.4 76.6 C 57.45 76.55 57.4 74.2 57.4 74.2 L 58.1 74.2 L 58.1 78.3 L 57.4 78.3 L 57.4 77.6 C 57.4 77.6 57.45 77.6 57.4 77.6 Z M 59.5 78.3 L 59.5 72.5 L 60.1 72.5 L 60.1 78.3 L 59.5 78.3 Z M 63.6 73.6 L 63.6 72.8 L 64.3 72.8 L 64.3 73.6 L 63.6 73.6 Z M 62.2 73.6 L 62.2 72.8 L 62.9 72.8 L 62.9 73.6 L 62.2 73.6 Z M 64.5 77.6 C 64.1 78.1 63.7 78.4 63.1 78.4 C 62.6 78.4 62.2 78.3 61.9 78 C 61.6 77.6 61.5 77.2 61.5 76.8 C 61.48 76.75 61.5 74.2 61.5 74.2 L 62.1 74.2 C 62.1 74.2 62.1 76.6 62.1 76.6 C 62.1 77 62.2 77.3 62.4 77.5 C 62.6 77.7 62.9 77.8 63.2 77.8 C 63.6 77.8 63.9 77.7 64.1 77.5 C 64.4 77.2 64.5 76.9 64.5 76.6 C 64.48 76.55 64.5 74.2 64.5 74.2 L 65.1 74.2 L 65.1 78.3 L 64.5 78.3 L 64.5 77.6 C 64.5 77.6 64.48 77.6 64.5 77.6 Z M 66.5 78.3 L 66.5 74.2 L 67.1 74.2 C 67.1 74.2 67.09 75.26 67.1 75.3 C 67.2 74.9 67.5 74.6 67.8 74.4 C 68.1 74.2 68.4 74.1 68.8 74.1 C 68.78 74.11 68.8 74.8 68.8 74.8 C 68.8 74.8 68.73 74.77 68.7 74.8 C 68.3 74.8 67.9 74.9 67.6 75.3 C 67.2 75.6 67.1 76.1 67.1 76.7 C 67.09 76.67 67.1 78.3 67.1 78.3 L 66.5 78.3 Z M 68.9 78.3 L 68.9 77.5 L 69.6 77.5 L 69.6 78.3 L 68.9 78.3 Z M 73.4 78.3 L 73.4 72.7 C 73.4 72.7 75.83 72.72 75.8 72.7 C 76.5 72.7 77 72.9 77.3 73.2 C 77.5 73.5 77.7 73.8 77.7 74.1 C 77.7 74.1 77.7 74.1 77.7 74.1 C 77.7 74.7 77.4 75.2 76.8 75.4 C 77.6 75.7 78 76.1 78 76.8 C 78 76.8 78 76.8 78 76.8 C 78 77.3 77.8 77.6 77.4 77.9 C 77 78.2 76.6 78.3 75.9 78.3 C 75.93 78.32 73.4 78.3 73.4 78.3 Z M 77 74.2 C 77 74.2 77 74.2 77 74.2 C 77 73.9 76.9 73.7 76.7 73.5 C 76.5 73.4 76.2 73.3 75.8 73.3 C 75.77 73.29 74.1 73.3 74.1 73.3 L 74.1 75.2 C 74.1 75.2 75.73 75.21 75.7 75.2 C 76.1 75.2 76.4 75.1 76.7 75 C 76.9 74.8 77 74.5 77 74.2 Z M 77.3 76.8 C 77.3 76.8 77.3 76.7 77.3 76.7 C 77.3 76.4 77.2 76.2 76.9 76 C 76.7 75.9 76.3 75.8 75.8 75.8 C 75.84 75.77 74.1 75.8 74.1 75.8 L 74.1 77.8 C 74.1 77.8 75.95 77.75 76 77.8 C 76.4 77.8 76.7 77.7 77 77.5 C 77.2 77.3 77.3 77.1 77.3 76.8 Z M 82.1 77.6 C 81.7 78.1 81.2 78.4 80.6 78.4 C 80.1 78.4 79.8 78.3 79.5 78 C 79.2 77.6 79.1 77.2 79.1 76.8 C 79.05 76.75 79.1 74.2 79.1 74.2 L 79.7 74.2 C 79.7 74.2 79.67 76.6 79.7 76.6 C 79.7 77 79.8 77.3 80 77.5 C 80.2 77.7 80.5 77.8 80.8 77.8 C 81.2 77.8 81.5 77.7 81.7 77.5 C 81.9 77.2 82.1 76.9 82.1 76.6 C 82.05 76.55 82.1 74.2 82.1 74.2 L 82.7 74.2 L 82.7 78.3 L 82.1 78.3 L 82.1 77.6 C 82.1 77.6 82.05 77.6 82.1 77.6 Z M 83.8 79.3 C 83.8 79.3 83.7 79 83.7 79 C 84.1 78.9 84.3 78.6 84.3 78.3 C 84.26 78.32 84 78.3 84 78.3 L 84 77.5 L 84.7 77.5 C 84.7 77.5 84.71 78.2 84.7 78.2 C 84.7 78.5 84.6 78.8 84.5 78.9 C 84.4 79.1 84.1 79.2 83.8 79.3 Z " stroke="none" fill="#000"/>  </g>  <g id="Polygon369936">    <path d="M 3.4 68.1 C 3.1 68.6 2.6 68.8 1.9 68.8 C 1.5 68.8 1.1 68.7 0.8 68.5 C 0.5 68.2 0.4 67.9 0.4 67.5 C 0.4 67.5 0.4 67.5 0.4 67.5 C 0.4 67.1 0.5 66.8 0.9 66.5 C 1.2 66.3 1.6 66.2 2.1 66.2 C 2.6 66.2 3 66.2 3.4 66.3 C 3.4 66.3 3.4 66.2 3.4 66.2 C 3.4 65.8 3.3 65.6 3.1 65.4 C 2.9 65.2 2.6 65.1 2.2 65.1 C 1.8 65.1 1.3 65.2 0.9 65.4 C 0.9 65.4 0.7 64.9 0.7 64.9 C 1.2 64.6 1.7 64.5 2.2 64.5 C 2.8 64.5 3.3 64.7 3.6 65 C 3.9 65.3 4 65.7 4 66.2 C 4.01 66.19 4 68.7 4 68.7 L 3.4 68.7 L 3.4 68.1 C 3.4 68.1 3.42 68.09 3.4 68.1 Z M 2 68.3 C 2.4 68.3 2.8 68.2 3 68 C 3.3 67.8 3.4 67.5 3.4 67.2 C 3.4 67.2 3.4 66.8 3.4 66.8 C 3 66.7 2.6 66.6 2.2 66.6 C 1.8 66.6 1.5 66.7 1.3 66.9 C 1.1 67 1 67.2 1 67.5 C 1 67.5 1 67.5 1 67.5 C 1 67.7 1.1 67.9 1.3 68.1 C 1.5 68.2 1.8 68.3 2 68.3 Z M 5.3 68.7 L 5.3 64.6 L 5.9 64.6 C 5.9 64.6 5.94 65.66 5.9 65.7 C 6.1 65.3 6.3 65 6.6 64.8 C 6.9 64.6 7.2 64.5 7.6 64.5 C 7.62 64.51 7.6 65.2 7.6 65.2 C 7.6 65.2 7.58 65.17 7.6 65.2 C 7.1 65.2 6.7 65.3 6.4 65.7 C 6.1 66 5.9 66.5 5.9 67.1 C 5.94 67.07 5.9 68.7 5.9 68.7 L 5.3 68.7 Z M 11.7 67.9 C 11.3 68.5 10.8 68.8 10.1 68.8 C 9.6 68.8 9.1 68.6 8.7 68.2 C 8.3 67.8 8.2 67.3 8.2 66.7 C 8.2 66.7 8.2 66.6 8.2 66.6 C 8.2 66 8.3 65.5 8.7 65.1 C 9.1 64.7 9.6 64.5 10.1 64.5 C 10.8 64.5 11.3 64.8 11.7 65.4 C 11.71 65.37 11.7 62.9 11.7 62.9 L 12.3 62.9 L 12.3 68.7 L 11.7 68.7 L 11.7 67.9 C 11.7 67.9 11.71 67.89 11.7 67.9 Z M 10.2 68.3 C 10.6 68.3 11 68.1 11.3 67.8 C 11.6 67.5 11.7 67.1 11.7 66.7 C 11.7 66.7 11.7 66.6 11.7 66.6 C 11.7 66.2 11.6 65.8 11.3 65.5 C 11 65.2 10.6 65 10.2 65 C 9.8 65 9.5 65.2 9.2 65.5 C 8.9 65.8 8.8 66.2 8.8 66.6 C 8.8 66.6 8.8 66.7 8.8 66.7 C 8.8 67.1 8.9 67.5 9.2 67.8 C 9.5 68.1 9.8 68.3 10.2 68.3 Z M 13.8 68.7 L 13.8 64.6 L 14.4 64.6 L 14.4 68.7 L 13.8 68.7 Z M 15.8 68.7 L 15.8 64.6 L 16.4 64.6 C 16.4 64.6 16.42 65.3 16.4 65.3 C 16.8 64.8 17.2 64.5 17.8 64.5 C 18.3 64.5 18.7 64.6 19 65 C 19.3 65.3 19.4 65.7 19.4 66.2 C 19.42 66.15 19.4 68.7 19.4 68.7 L 18.8 68.7 C 18.8 68.7 18.81 66.3 18.8 66.3 C 18.8 65.9 18.7 65.6 18.5 65.4 C 18.3 65.2 18 65.1 17.7 65.1 C 17.3 65.1 17 65.2 16.8 65.4 C 16.5 65.7 16.4 66 16.4 66.4 C 16.42 66.35 16.4 68.7 16.4 68.7 L 15.8 68.7 Z M 24.1 67.9 C 23.6 68.5 23.1 68.8 22.5 68.8 C 21.9 68.8 21.5 68.6 21.1 68.2 C 20.7 67.8 20.5 67.3 20.5 66.7 C 20.5 66.7 20.5 66.6 20.5 66.6 C 20.5 66 20.7 65.5 21.1 65.1 C 21.5 64.7 21.9 64.5 22.5 64.5 C 23.1 64.5 23.7 64.8 24.1 65.4 C 24.06 65.37 24.1 62.9 24.1 62.9 L 24.7 62.9 L 24.7 68.7 L 24.1 68.7 L 24.1 67.9 C 24.1 67.9 24.06 67.89 24.1 67.9 Z M 22.6 68.3 C 23 68.3 23.3 68.1 23.6 67.8 C 23.9 67.5 24.1 67.1 24.1 66.7 C 24.1 66.7 24.1 66.6 24.1 66.6 C 24.1 66.2 23.9 65.8 23.6 65.5 C 23.3 65.2 23 65 22.6 65 C 22.2 65 21.8 65.2 21.5 65.5 C 21.3 65.8 21.1 66.2 21.1 66.6 C 21.1 66.6 21.1 66.7 21.1 66.7 C 21.1 67.1 21.3 67.5 21.5 67.8 C 21.8 68.1 22.2 68.3 22.6 68.3 Z M 28.8 68.1 C 28.4 68.6 27.9 68.8 27.3 68.8 C 26.9 68.8 26.5 68.7 26.2 68.5 C 25.9 68.2 25.7 67.9 25.7 67.5 C 25.7 67.5 25.7 67.5 25.7 67.5 C 25.7 67.1 25.9 66.8 26.2 66.5 C 26.5 66.3 27 66.2 27.5 66.2 C 27.9 66.2 28.3 66.2 28.8 66.3 C 28.8 66.3 28.8 66.2 28.8 66.2 C 28.8 65.8 28.7 65.6 28.5 65.4 C 28.2 65.2 27.9 65.1 27.5 65.1 C 27.1 65.1 26.7 65.2 26.3 65.4 C 26.3 65.4 26.1 64.9 26.1 64.9 C 26.6 64.6 27.1 64.5 27.6 64.5 C 28.2 64.5 28.6 64.7 28.9 65 C 29.2 65.3 29.4 65.7 29.4 66.2 C 29.37 66.19 29.4 68.7 29.4 68.7 L 28.8 68.7 L 28.8 68.1 C 28.8 68.1 28.78 68.09 28.8 68.1 Z M 27.4 68.3 C 27.8 68.3 28.1 68.2 28.4 68 C 28.7 67.8 28.8 67.5 28.8 67.2 C 28.8 67.2 28.8 66.8 28.8 66.8 C 28.4 66.7 28 66.6 27.6 66.6 C 27.2 66.6 26.9 66.7 26.7 66.9 C 26.5 67 26.4 67.2 26.4 67.5 C 26.4 67.5 26.4 67.5 26.4 67.5 C 26.4 67.7 26.5 67.9 26.7 68.1 C 26.9 68.2 27.1 68.3 27.4 68.3 Z M 30.7 68.7 L 30.7 64.6 L 31.3 64.6 C 31.3 64.6 31.3 65.3 31.3 65.3 C 31.6 64.8 32.1 64.5 32.7 64.5 C 33.2 64.5 33.6 64.6 33.9 65 C 34.2 65.3 34.3 65.7 34.3 66.2 C 34.3 66.15 34.3 68.7 34.3 68.7 L 33.7 68.7 C 33.7 68.7 33.68 66.3 33.7 66.3 C 33.7 65.9 33.6 65.6 33.4 65.4 C 33.2 65.2 32.9 65.1 32.5 65.1 C 32.2 65.1 31.9 65.2 31.6 65.4 C 31.4 65.7 31.3 66 31.3 66.4 C 31.3 66.35 31.3 68.7 31.3 68.7 L 30.7 68.7 Z M 40.7 68.1 C 40.4 68.6 39.9 68.8 39.2 68.8 C 38.8 68.8 38.5 68.7 38.2 68.5 C 37.8 68.2 37.7 67.9 37.7 67.5 C 37.7 67.5 37.7 67.5 37.7 67.5 C 37.7 67.1 37.9 66.8 38.2 66.5 C 38.5 66.3 38.9 66.2 39.5 66.2 C 39.9 66.2 40.3 66.2 40.7 66.3 C 40.7 66.3 40.7 66.2 40.7 66.2 C 40.7 65.8 40.6 65.6 40.4 65.4 C 40.2 65.2 39.9 65.1 39.5 65.1 C 39.1 65.1 38.7 65.2 38.2 65.4 C 38.2 65.4 38.1 64.9 38.1 64.9 C 38.5 64.6 39.1 64.5 39.6 64.5 C 40.2 64.5 40.6 64.7 40.9 65 C 41.2 65.3 41.3 65.7 41.3 66.2 C 41.33 66.19 41.3 68.7 41.3 68.7 L 40.7 68.7 L 40.7 68.1 C 40.7 68.1 40.74 68.09 40.7 68.1 Z M 39.4 68.3 C 39.7 68.3 40.1 68.2 40.3 68 C 40.6 67.8 40.7 67.5 40.7 67.2 C 40.7 67.2 40.7 66.8 40.7 66.8 C 40.3 66.7 39.9 66.6 39.5 66.6 C 39.1 66.6 38.8 66.7 38.6 66.9 C 38.4 67 38.3 67.2 38.3 67.5 C 38.3 67.5 38.3 67.5 38.3 67.5 C 38.3 67.7 38.4 67.9 38.6 68.1 C 38.8 68.2 39.1 68.3 39.4 68.3 Z M 42.7 68.7 L 42.7 62.9 L 43.3 62.9 L 43.3 68.7 L 42.7 68.7 Z M 46.9 68.6 C 46.7 68.7 46.4 68.8 46.1 68.8 C 45.8 68.8 45.5 68.7 45.3 68.5 C 45.1 68.3 45 68 45 67.6 C 44.96 67.62 45 65.1 45 65.1 L 44.4 65.1 L 44.4 64.6 L 45 64.6 L 45 63.3 L 45.6 63.3 L 45.6 64.6 L 46.9 64.6 L 46.9 65.1 L 45.6 65.1 C 45.6 65.1 45.58 67.54 45.6 67.5 C 45.6 68 45.8 68.2 46.3 68.2 C 46.5 68.2 46.7 68.2 46.9 68.1 C 46.87 68.09 46.9 68.6 46.9 68.6 C 46.9 68.6 46.87 68.61 46.9 68.6 Z M 52.6 68.8 C 51.9 68.8 51.4 68.5 51 67.9 C 50.99 67.93 51 68.7 51 68.7 L 50.4 68.7 L 50.4 62.9 L 51 62.9 C 51 62.9 50.99 65.41 51 65.4 C 51.4 64.8 52 64.5 52.6 64.5 C 53.1 64.5 53.6 64.7 54 65.1 C 54.4 65.5 54.6 66 54.6 66.6 C 54.6 66.6 54.6 66.7 54.6 66.7 C 54.6 67.3 54.4 67.8 54 68.2 C 53.6 68.6 53.1 68.8 52.6 68.8 Z M 52.5 68.3 C 52.9 68.3 53.2 68.1 53.5 67.8 C 53.8 67.5 53.9 67.1 53.9 66.7 C 53.9 66.7 53.9 66.6 53.9 66.6 C 53.9 66.2 53.8 65.8 53.5 65.5 C 53.2 65.2 52.9 65 52.5 65 C 52.1 65 51.7 65.2 51.4 65.5 C 51.1 65.8 51 66.2 51 66.6 C 51 66.6 51 66.7 51 66.7 C 51 67.1 51.1 67.5 51.4 67.8 C 51.7 68.1 52.1 68.3 52.5 68.3 Z M 57.9 64 L 57.9 63.2 L 58.6 63.2 L 58.6 64 L 57.9 64 Z M 56.5 64 L 56.5 63.2 L 57.2 63.2 L 57.2 64 L 56.5 64 Z M 57.6 68.8 C 57 68.8 56.5 68.6 56 68.2 C 55.6 67.8 55.4 67.3 55.4 66.7 C 55.4 66.7 55.4 66.7 55.4 66.7 C 55.4 66.1 55.6 65.5 56 65.1 C 56.5 64.7 57 64.5 57.6 64.5 C 58.2 64.5 58.7 64.7 59.1 65.1 C 59.5 65.5 59.7 66 59.7 66.6 C 59.7 66.6 59.7 66.7 59.7 66.7 C 59.7 67.3 59.5 67.8 59.1 68.2 C 58.7 68.6 58.2 68.8 57.6 68.8 Z M 57.6 68.3 C 58 68.3 58.4 68.1 58.7 67.8 C 59 67.5 59.1 67.1 59.1 66.7 C 59.1 66.7 59.1 66.7 59.1 66.7 C 59.1 66.2 59 65.8 58.7 65.5 C 58.4 65.2 58 65 57.6 65 C 57.1 65 56.8 65.2 56.5 65.5 C 56.2 65.8 56.1 66.2 56.1 66.6 C 56.1 66.6 56.1 66.7 56.1 66.7 C 56.1 67.1 56.2 67.5 56.5 67.8 C 56.8 68.1 57.2 68.3 57.6 68.3 Z M 60.9 68.7 L 60.9 62.9 L 61.5 62.9 L 61.5 68.7 L 60.9 68.7 Z M 65 64 L 65 63.2 L 65.8 63.2 L 65.8 64 L 65 64 Z M 63.6 64 L 63.6 63.2 L 64.4 63.2 L 64.4 64 L 63.6 64 Z M 65.9 68 C 65.6 68.5 65.1 68.8 64.5 68.8 C 64 68.8 63.6 68.7 63.3 68.4 C 63 68 62.9 67.6 62.9 67.2 C 62.89 67.15 62.9 64.6 62.9 64.6 L 63.5 64.6 C 63.5 64.6 63.51 67 63.5 67 C 63.5 67.4 63.6 67.7 63.8 67.9 C 64 68.1 64.3 68.2 64.7 68.2 C 65 68.2 65.3 68.1 65.5 67.9 C 65.8 67.6 65.9 67.3 65.9 67 C 65.89 66.95 65.9 64.6 65.9 64.6 L 66.5 64.6 L 66.5 68.7 L 65.9 68.7 L 65.9 68 C 65.9 68 65.89 68 65.9 68 Z M 67.9 68.7 L 67.9 64.6 L 68.5 64.6 C 68.5 64.6 68.5 65.28 68.5 65.3 C 68.7 65 68.9 64.8 69.1 64.7 C 69.3 64.6 69.5 64.5 69.8 64.5 C 70.5 64.5 70.9 64.8 71.2 65.3 C 71.5 64.8 72 64.5 72.6 64.5 C 73.1 64.5 73.5 64.6 73.8 64.9 C 74 65.2 74.2 65.6 74.2 66.2 C 74.16 66.16 74.2 68.7 74.2 68.7 L 73.5 68.7 C 73.5 68.7 73.54 66.3 73.5 66.3 C 73.5 65.9 73.4 65.6 73.3 65.4 C 73.1 65.2 72.8 65.1 72.5 65.1 C 72.2 65.1 71.9 65.2 71.7 65.4 C 71.4 65.6 71.3 65.9 71.3 66.3 C 71.33 66.33 71.3 68.7 71.3 68.7 L 70.7 68.7 C 70.7 68.7 70.72 66.29 70.7 66.3 C 70.7 65.9 70.6 65.6 70.4 65.4 C 70.2 65.2 70 65.1 69.7 65.1 C 69.3 65.1 69 65.2 68.8 65.4 C 68.6 65.7 68.5 66 68.5 66.4 C 68.5 66.36 68.5 68.7 68.5 68.7 L 67.9 68.7 Z M 78.8 67.9 C 78.4 68.5 77.8 68.8 77.2 68.8 C 76.7 68.8 76.2 68.6 75.8 68.2 C 75.4 67.8 75.2 67.3 75.2 66.7 C 75.2 66.7 75.2 66.6 75.2 66.6 C 75.2 66 75.4 65.5 75.8 65.1 C 76.2 64.7 76.7 64.5 77.2 64.5 C 77.9 64.5 78.4 64.8 78.8 65.4 C 78.79 65.37 78.8 62.9 78.8 62.9 L 79.4 62.9 L 79.4 68.7 L 78.8 68.7 L 78.8 67.9 C 78.8 67.9 78.79 67.89 78.8 67.9 Z M 77.3 68.3 C 77.7 68.3 78.1 68.1 78.4 67.8 C 78.7 67.5 78.8 67.1 78.8 66.7 C 78.8 66.7 78.8 66.6 78.8 66.6 C 78.8 66.2 78.7 65.8 78.4 65.5 C 78.1 65.2 77.7 65 77.3 65 C 76.9 65 76.6 65.2 76.3 65.5 C 76 65.8 75.9 66.2 75.9 66.6 C 75.9 66.6 75.9 66.7 75.9 66.7 C 75.9 67.1 76 67.5 76.3 67.8 C 76.6 68.1 76.9 68.3 77.3 68.3 Z M 84.3 68 C 83.8 68.6 83.3 68.8 82.6 68.8 C 82 68.8 81.5 68.6 81.1 68.2 C 80.7 67.8 80.5 67.3 80.5 66.7 C 80.5 66.7 80.5 66.6 80.5 66.6 C 80.5 66 80.7 65.5 81.1 65.1 C 81.5 64.7 81.9 64.5 82.5 64.5 C 83.1 64.5 83.6 64.7 83.9 65.1 C 84.3 65.5 84.4 66.1 84.4 66.7 C 84.4 66.8 84.4 66.8 84.4 66.9 C 84.4 66.9 81.2 66.9 81.2 66.9 C 81.2 67.3 81.4 67.7 81.6 67.9 C 81.9 68.2 82.2 68.3 82.6 68.3 C 83.1 68.3 83.5 68.1 83.9 67.7 C 83.91 67.69 84.3 68 84.3 68 C 84.3 68 84.29 68.04 84.3 68 Z M 81.2 66.4 C 81.2 66.4 83.8 66.4 83.8 66.4 C 83.8 66 83.7 65.7 83.4 65.4 C 83.2 65.1 82.9 65 82.5 65 C 82.1 65 81.8 65.1 81.6 65.4 C 81.3 65.7 81.2 66 81.2 66.4 Z " stroke="none" fill="#000"/>  </g>  <g id="Polygon369935">    <path d="M 2.9 59.2 C 2.2 59.2 1.7 58.9 1.3 58.3 C 1.3 58.33 1.3 59.1 1.3 59.1 L 0.7 59.1 L 0.7 53.3 L 1.3 53.3 C 1.3 53.3 1.3 55.81 1.3 55.8 C 1.7 55.2 2.3 54.9 2.9 54.9 C 3.4 54.9 3.9 55.1 4.3 55.5 C 4.7 55.9 4.9 56.4 4.9 57 C 4.9 57 4.9 57.1 4.9 57.1 C 4.9 57.7 4.7 58.2 4.3 58.6 C 3.9 59 3.4 59.2 2.9 59.2 Z M 2.8 58.7 C 3.2 58.7 3.5 58.5 3.8 58.2 C 4.1 57.9 4.2 57.5 4.2 57.1 C 4.2 57.1 4.2 57 4.2 57 C 4.2 56.6 4.1 56.2 3.8 55.9 C 3.5 55.6 3.2 55.4 2.8 55.4 C 2.4 55.4 2 55.6 1.7 55.9 C 1.4 56.2 1.3 56.6 1.3 57 C 1.3 57 1.3 57.1 1.3 57.1 C 1.3 57.5 1.4 57.9 1.7 58.2 C 2 58.5 2.4 58.7 2.8 58.7 Z M 8.2 54.4 L 8.2 53.6 L 9 53.6 L 9 54.4 L 8.2 54.4 Z M 6.8 54.4 L 6.8 53.6 L 7.6 53.6 L 7.6 54.4 L 6.8 54.4 Z M 7.9 59.2 C 7.3 59.2 6.8 59 6.4 58.6 C 5.9 58.2 5.7 57.7 5.7 57.1 C 5.7 57.1 5.7 57.1 5.7 57.1 C 5.7 56.5 5.9 55.9 6.4 55.5 C 6.8 55.1 7.3 54.9 7.9 54.9 C 8.5 54.9 9 55.1 9.4 55.5 C 9.9 55.9 10.1 56.4 10.1 57 C 10.1 57 10.1 57.1 10.1 57.1 C 10.1 57.7 9.8 58.2 9.4 58.6 C 9 59 8.5 59.2 7.9 59.2 Z M 7.9 58.7 C 8.3 58.7 8.7 58.5 9 58.2 C 9.3 57.9 9.4 57.5 9.4 57.1 C 9.4 57.1 9.4 57.1 9.4 57.1 C 9.4 56.6 9.3 56.2 9 55.9 C 8.7 55.6 8.3 55.4 7.9 55.4 C 7.5 55.4 7.1 55.6 6.8 55.9 C 6.5 56.2 6.4 56.6 6.4 57 C 6.4 57 6.4 57.1 6.4 57.1 C 6.4 57.5 6.5 57.9 6.8 58.2 C 7.1 58.5 7.5 58.7 7.9 58.7 Z M 11.2 59.1 L 11.2 53.3 L 11.8 53.3 L 11.8 59.1 L 11.2 59.1 Z M 15.4 54.4 L 15.4 53.6 L 16.1 53.6 L 16.1 54.4 L 15.4 54.4 Z M 14 54.4 L 14 53.6 L 14.7 53.6 L 14.7 54.4 L 14 54.4 Z M 16.2 58.4 C 15.9 58.9 15.4 59.2 14.8 59.2 C 14.3 59.2 13.9 59.1 13.6 58.8 C 13.3 58.4 13.2 58 13.2 57.6 C 13.21 57.55 13.2 55 13.2 55 L 13.8 55 C 13.8 55 13.82 57.4 13.8 57.4 C 13.8 57.8 13.9 58.1 14.1 58.3 C 14.3 58.5 14.6 58.6 15 58.6 C 15.3 58.6 15.6 58.5 15.9 58.3 C 16.1 58 16.2 57.7 16.2 57.4 C 16.21 57.35 16.2 55 16.2 55 L 16.8 55 L 16.8 59.1 L 16.2 59.1 L 16.2 58.4 C 16.2 58.4 16.21 58.4 16.2 58.4 Z M 18.2 59.1 L 18.2 55 L 18.8 55 C 18.8 55 18.82 55.68 18.8 55.7 C 19 55.4 19.2 55.2 19.4 55.1 C 19.6 55 19.8 54.9 20.2 54.9 C 20.8 54.9 21.2 55.2 21.5 55.7 C 21.8 55.2 22.3 54.9 22.9 54.9 C 23.4 54.9 23.8 55 24.1 55.3 C 24.3 55.6 24.5 56 24.5 56.6 C 24.47 56.56 24.5 59.1 24.5 59.1 L 23.9 59.1 C 23.9 59.1 23.86 56.7 23.9 56.7 C 23.9 56.3 23.8 56 23.6 55.8 C 23.4 55.6 23.1 55.5 22.8 55.5 C 22.5 55.5 22.2 55.6 22 55.8 C 21.8 56 21.6 56.3 21.6 56.7 C 21.64 56.73 21.6 59.1 21.6 59.1 L 21 59.1 C 21 59.1 21.03 56.69 21 56.7 C 21 56.3 20.9 56 20.7 55.8 C 20.6 55.6 20.3 55.5 20 55.5 C 19.6 55.5 19.4 55.6 19.1 55.8 C 18.9 56.1 18.8 56.4 18.8 56.8 C 18.82 56.76 18.8 59.1 18.8 59.1 L 18.2 59.1 Z M 29.1 58.3 C 28.7 58.9 28.1 59.2 27.5 59.2 C 27 59.2 26.5 59 26.1 58.6 C 25.7 58.2 25.5 57.7 25.5 57.1 C 25.5 57.1 25.5 57 25.5 57 C 25.5 56.4 25.7 55.9 26.1 55.5 C 26.5 55.1 27 54.9 27.5 54.9 C 28.2 54.9 28.7 55.2 29.1 55.8 C 29.1 55.77 29.1 53.3 29.1 53.3 L 29.7 53.3 L 29.7 59.1 L 29.1 59.1 L 29.1 58.3 C 29.1 58.3 29.1 58.29 29.1 58.3 Z M 27.6 58.7 C 28 58.7 28.4 58.5 28.7 58.2 C 29 57.9 29.1 57.5 29.1 57.1 C 29.1 57.1 29.1 57 29.1 57 C 29.1 56.6 29 56.2 28.7 55.9 C 28.4 55.6 28 55.4 27.6 55.4 C 27.2 55.4 26.9 55.6 26.6 55.9 C 26.3 56.2 26.2 56.6 26.2 57 C 26.2 57 26.2 57.1 26.2 57.1 C 26.2 57.5 26.3 57.9 26.6 58.2 C 26.9 58.5 27.2 58.7 27.6 58.7 Z M 34.6 58.4 C 34.2 59 33.6 59.2 32.9 59.2 C 32.3 59.2 31.8 59 31.4 58.6 C 31 58.2 30.8 57.7 30.8 57.1 C 30.8 57.1 30.8 57 30.8 57 C 30.8 56.4 31 55.9 31.4 55.5 C 31.8 55.1 32.3 54.9 32.8 54.9 C 33.4 54.9 33.9 55.1 34.2 55.5 C 34.6 55.9 34.8 56.5 34.8 57.1 C 34.8 57.2 34.7 57.2 34.7 57.3 C 34.7 57.3 31.5 57.3 31.5 57.3 C 31.5 57.7 31.7 58.1 31.9 58.3 C 32.2 58.6 32.5 58.7 32.9 58.7 C 33.4 58.7 33.8 58.5 34.2 58.1 C 34.22 58.09 34.6 58.4 34.6 58.4 C 34.6 58.4 34.61 58.44 34.6 58.4 Z M 31.5 56.8 C 31.5 56.8 34.1 56.8 34.1 56.8 C 34.1 56.4 34 56.1 33.7 55.8 C 33.5 55.5 33.2 55.4 32.8 55.4 C 32.5 55.4 32.1 55.5 31.9 55.8 C 31.7 56.1 31.5 56.4 31.5 56.8 Z M 40.5 54.4 L 40.5 53.6 L 41.2 53.6 L 41.2 54.4 L 40.5 54.4 Z M 39.1 54.4 L 39.1 53.6 L 39.8 53.6 L 39.8 54.4 L 39.1 54.4 Z M 40.1 59.2 C 39.5 59.2 39 59 38.6 58.6 C 38.2 58.2 38 57.7 38 57.1 C 38 57.1 38 57.1 38 57.1 C 38 56.5 38.2 55.9 38.6 55.5 C 39 55.1 39.5 54.9 40.1 54.9 C 40.7 54.9 41.3 55.1 41.7 55.5 C 42.1 55.9 42.3 56.4 42.3 57 C 42.3 57 42.3 57.1 42.3 57.1 C 42.3 57.7 42.1 58.2 41.7 58.6 C 41.3 59 40.7 59.2 40.1 59.2 Z M 40.1 58.7 C 40.6 58.7 40.9 58.5 41.2 58.2 C 41.5 57.9 41.7 57.5 41.7 57.1 C 41.7 57.1 41.7 57.1 41.7 57.1 C 41.7 56.6 41.5 56.2 41.2 55.9 C 40.9 55.6 40.6 55.4 40.1 55.4 C 39.7 55.4 39.3 55.6 39 55.9 C 38.8 56.2 38.6 56.6 38.6 57 C 38.6 57 38.6 57.1 38.6 57.1 C 38.6 57.5 38.8 57.9 39 58.2 C 39.3 58.5 39.7 58.7 40.1 58.7 Z M 43.4 59.1 L 43.4 55 L 44 55 C 44 55 44.02 55.7 44 55.7 C 44.4 55.2 44.8 54.9 45.4 54.9 C 45.9 54.9 46.3 55 46.6 55.4 C 46.9 55.7 47 56.1 47 56.6 C 47.02 56.55 47 59.1 47 59.1 L 46.4 59.1 C 46.4 59.1 46.4 56.7 46.4 56.7 C 46.4 56.3 46.3 56 46.1 55.8 C 45.9 55.6 45.6 55.5 45.3 55.5 C 44.9 55.5 44.6 55.6 44.4 55.8 C 44.1 56.1 44 56.4 44 56.8 C 44.02 56.75 44 59.1 44 59.1 L 43.4 59.1 Z M 51.9 58.4 C 51.4 58.9 50.8 59.2 50.2 59.2 C 49.6 59.2 49.1 59 48.7 58.6 C 48.3 58.2 48.1 57.7 48.1 57.1 C 48.1 57.1 48.1 57.1 48.1 57.1 C 48.1 56.5 48.3 55.9 48.7 55.5 C 49.1 55.1 49.6 54.9 50.2 54.9 C 50.8 54.9 51.4 55.1 51.8 55.6 C 51.8 55.6 51.4 56.1 51.4 56.1 C 51 55.6 50.6 55.4 50.2 55.4 C 49.8 55.4 49.4 55.6 49.1 55.9 C 48.8 56.2 48.7 56.6 48.7 57 C 48.7 57 48.7 57.1 48.7 57.1 C 48.7 57.5 48.8 57.9 49.1 58.2 C 49.4 58.5 49.8 58.7 50.2 58.7 C 50.7 58.7 51.1 58.5 51.5 58 C 51.49 58.05 51.9 58.4 51.9 58.4 C 51.9 58.4 51.88 58.41 51.9 58.4 Z M 56.3 58.4 C 55.8 59 55.3 59.2 54.6 59.2 C 54 59.2 53.5 59 53.1 58.6 C 52.7 58.2 52.5 57.7 52.5 57.1 C 52.5 57.1 52.5 57 52.5 57 C 52.5 56.4 52.7 55.9 53.1 55.5 C 53.5 55.1 53.9 54.9 54.5 54.9 C 55.1 54.9 55.6 55.1 55.9 55.5 C 56.3 55.9 56.4 56.5 56.4 57.1 C 56.4 57.2 56.4 57.2 56.4 57.3 C 56.4 57.3 53.1 57.3 53.1 57.3 C 53.2 57.7 53.3 58.1 53.6 58.3 C 53.9 58.6 54.2 58.7 54.6 58.7 C 55.1 58.7 55.5 58.5 55.9 58.1 C 55.9 58.09 56.3 58.4 56.3 58.4 C 56.3 58.4 56.29 58.44 56.3 58.4 Z M 53.1 56.8 C 53.1 56.8 55.8 56.8 55.8 56.8 C 55.8 56.4 55.6 56.1 55.4 55.8 C 55.2 55.5 54.9 55.4 54.5 55.4 C 54.1 55.4 53.8 55.5 53.6 55.8 C 53.3 56.1 53.2 56.4 53.1 56.8 Z M 59.9 60.4 L 59.9 55 L 60.5 55 C 60.5 55 60.53 55.81 60.5 55.8 C 61 55.2 61.5 54.9 62.1 54.9 C 62.6 54.9 63.1 55.1 63.5 55.5 C 63.9 55.9 64.1 56.4 64.1 57 C 64.1 57 64.1 57.1 64.1 57.1 C 64.1 57.7 63.9 58.2 63.5 58.6 C 63.1 59 62.6 59.2 62.1 59.2 C 61.5 59.2 60.9 58.9 60.5 58.3 C 60.53 58.33 60.5 60.4 60.5 60.4 L 59.9 60.4 Z M 62 58.7 C 62.4 58.7 62.8 58.5 63 58.2 C 63.3 57.9 63.5 57.5 63.5 57.1 C 63.5 57.1 63.5 57 63.5 57 C 63.5 56.6 63.3 56.2 63 55.9 C 62.8 55.6 62.4 55.4 62 55.4 C 61.6 55.4 61.3 55.6 61 55.9 C 60.7 56.2 60.5 56.6 60.5 57 C 60.5 57 60.5 57.1 60.5 57.1 C 60.5 57.5 60.7 57.9 61 58.2 C 61.2 58.5 61.6 58.7 62 58.7 Z M 68 58.5 C 67.6 59 67.1 59.2 66.5 59.2 C 66 59.2 65.7 59.1 65.4 58.9 C 65.1 58.6 64.9 58.3 64.9 57.9 C 64.9 57.9 64.9 57.9 64.9 57.9 C 64.9 57.5 65.1 57.2 65.4 56.9 C 65.7 56.7 66.1 56.6 66.7 56.6 C 67.1 56.6 67.5 56.6 68 56.7 C 68 56.7 68 56.6 68 56.6 C 68 56.2 67.8 56 67.6 55.8 C 67.4 55.6 67.1 55.5 66.7 55.5 C 66.3 55.5 65.9 55.6 65.5 55.8 C 65.5 55.8 65.3 55.3 65.3 55.3 C 65.8 55 66.3 54.9 66.8 54.9 C 67.4 54.9 67.8 55.1 68.1 55.4 C 68.4 55.7 68.5 56.1 68.5 56.6 C 68.54 56.59 68.5 59.1 68.5 59.1 L 68 59.1 L 68 58.5 C 68 58.5 67.95 58.49 68 58.5 Z M 66.6 58.7 C 67 58.7 67.3 58.6 67.6 58.4 C 67.8 58.2 68 57.9 68 57.6 C 68 57.6 68 57.2 68 57.2 C 67.5 57.1 67.1 57 66.7 57 C 66.4 57 66.1 57.1 65.9 57.3 C 65.6 57.4 65.5 57.6 65.5 57.9 C 65.5 57.9 65.5 57.9 65.5 57.9 C 65.5 58.1 65.6 58.3 65.8 58.5 C 66 58.6 66.3 58.7 66.6 58.7 Z M 69.9 59.1 L 69.9 55 L 70.5 55 C 70.5 55 70.47 56.06 70.5 56.1 C 70.6 55.7 70.9 55.4 71.2 55.2 C 71.4 55 71.8 54.9 72.2 54.9 C 72.16 54.91 72.2 55.6 72.2 55.6 C 72.2 55.6 72.11 55.57 72.1 55.6 C 71.6 55.6 71.2 55.7 70.9 56.1 C 70.6 56.4 70.5 56.9 70.5 57.5 C 70.47 57.47 70.5 59.1 70.5 59.1 L 69.9 59.1 Z M 74.4 60.4 L 73.8 60.1 C 73.8 60.1 74.4 59.17 74.4 59.2 C 73.9 59.1 73.5 58.8 73.2 58.4 C 72.8 58 72.7 57.6 72.7 57.1 C 72.7 57.1 72.7 57.1 72.7 57.1 C 72.7 56.5 72.9 55.9 73.3 55.5 C 73.7 55.1 74.2 54.9 74.8 54.9 C 75.4 54.9 76 55.1 76.4 55.6 C 76.4 55.6 76 56.1 76 56.1 C 75.6 55.6 75.2 55.4 74.8 55.4 C 74.4 55.4 74 55.6 73.7 55.9 C 73.4 56.2 73.3 56.6 73.3 57 C 73.3 57 73.3 57.1 73.3 57.1 C 73.3 57.5 73.4 57.9 73.7 58.2 C 74 58.5 74.4 58.7 74.8 58.7 C 75.3 58.7 75.7 58.5 76.1 58 C 76.1 58 76.5 58.4 76.5 58.4 C 76 58.9 75.5 59.2 74.9 59.2 C 74.9 59.21 74.4 60.4 74.4 60.4 Z M 80.2 58.5 C 79.9 59 79.4 59.2 78.7 59.2 C 78.3 59.2 77.9 59.1 77.6 58.9 C 77.3 58.6 77.2 58.3 77.2 57.9 C 77.2 57.9 77.2 57.9 77.2 57.9 C 77.2 57.5 77.3 57.2 77.7 56.9 C 78 56.7 78.4 56.6 78.9 56.6 C 79.4 56.6 79.8 56.6 80.2 56.7 C 80.2 56.7 80.2 56.6 80.2 56.6 C 80.2 56.2 80.1 56 79.9 55.8 C 79.7 55.6 79.4 55.5 79 55.5 C 78.6 55.5 78.1 55.6 77.7 55.8 C 77.7 55.8 77.5 55.3 77.5 55.3 C 78 55 78.5 54.9 79 54.9 C 79.6 54.9 80.1 55.1 80.4 55.4 C 80.7 55.7 80.8 56.1 80.8 56.6 C 80.81 56.59 80.8 59.1 80.8 59.1 L 80.2 59.1 L 80.2 58.5 C 80.2 58.5 80.22 58.49 80.2 58.5 Z M 78.8 58.7 C 79.2 58.7 79.6 58.6 79.8 58.4 C 80.1 58.2 80.2 57.9 80.2 57.6 C 80.2 57.6 80.2 57.2 80.2 57.2 C 79.8 57.1 79.4 57 79 57 C 78.6 57 78.3 57.1 78.1 57.3 C 77.9 57.4 77.8 57.6 77.8 57.9 C 77.8 57.9 77.8 57.9 77.8 57.9 C 77.8 58.1 77.9 58.3 78.1 58.5 C 78.3 58.6 78.6 58.7 78.8 58.7 Z M 82.2 59.1 L 82.2 53.3 L 82.8 53.3 L 82.8 59.1 L 82.2 59.1 Z M 87 58.5 C 86.6 59 86.1 59.2 85.5 59.2 C 85 59.2 84.7 59.1 84.4 58.9 C 84.1 58.6 83.9 58.3 83.9 57.9 C 83.9 57.9 83.9 57.9 83.9 57.9 C 83.9 57.5 84.1 57.2 84.4 56.9 C 84.7 56.7 85.1 56.6 85.7 56.6 C 86.1 56.6 86.5 56.6 87 56.7 C 87 56.7 87 56.6 87 56.6 C 87 56.2 86.8 56 86.6 55.8 C 86.4 55.6 86.1 55.5 85.7 55.5 C 85.3 55.5 84.9 55.6 84.5 55.8 C 84.5 55.8 84.3 55.3 84.3 55.3 C 84.8 55 85.3 54.9 85.8 54.9 C 86.4 54.9 86.8 55.1 87.1 55.4 C 87.4 55.7 87.5 56.1 87.5 56.6 C 87.54 56.59 87.5 59.1 87.5 59.1 L 87 59.1 L 87 58.5 C 87 58.5 86.95 58.49 87 58.5 Z M 85.6 58.7 C 86 58.7 86.3 58.6 86.6 58.4 C 86.8 58.2 87 57.9 87 57.6 C 87 57.6 87 57.2 87 57.2 C 86.5 57.1 86.1 57 85.7 57 C 85.4 57 85.1 57.1 84.9 57.3 C 84.6 57.4 84.5 57.6 84.5 57.9 C 84.5 57.9 84.5 57.9 84.5 57.9 C 84.5 58.1 84.6 58.3 84.8 58.5 C 85 58.6 85.3 58.7 85.6 58.7 Z M 88.9 59.1 L 88.9 55 L 89.5 55 C 89.5 55 89.47 55.7 89.5 55.7 C 89.8 55.2 90.3 54.9 90.9 54.9 C 91.4 54.9 91.8 55 92 55.4 C 92.3 55.7 92.5 56.1 92.5 56.6 C 92.47 56.55 92.5 59.1 92.5 59.1 L 91.9 59.1 C 91.9 59.1 91.85 56.7 91.9 56.7 C 91.9 56.3 91.8 56 91.6 55.8 C 91.4 55.6 91.1 55.5 90.7 55.5 C 90.4 55.5 90.1 55.6 89.8 55.8 C 89.6 56.1 89.5 56.4 89.5 56.8 C 89.47 56.75 89.5 59.1 89.5 59.1 L 88.9 59.1 Z M 93.8 59.1 L 93.8 55 L 94.5 55 L 94.5 59.1 L 93.8 59.1 Z M 95.9 59.1 L 95.9 55 L 96.5 55 C 96.5 55 96.5 56.06 96.5 56.1 C 96.7 55.7 96.9 55.4 97.2 55.2 C 97.5 55 97.8 54.9 98.2 54.9 C 98.19 54.91 98.2 55.6 98.2 55.6 C 98.2 55.6 98.14 55.57 98.1 55.6 C 97.7 55.6 97.3 55.7 97 56.1 C 96.7 56.4 96.5 56.9 96.5 57.5 C 96.5 57.47 96.5 59.1 96.5 59.1 L 95.9 59.1 Z M 98.2 60.1 C 98.2 60.1 98.1 59.8 98.1 59.8 C 98.5 59.7 98.7 59.4 98.6 59.1 C 98.62 59.12 98.3 59.1 98.3 59.1 L 98.3 58.3 L 99.1 58.3 C 99.1 58.3 99.07 59 99.1 59 C 99.1 59.3 99 59.6 98.9 59.7 C 98.7 59.9 98.5 60 98.2 60.1 Z " stroke="none" fill="#000"/>  </g>  <g id="Polygon369934">    <path d="M 1.2 47.2 C 1.2 48.5 1.8 49.5 3 50.2 C 3 50.2 2.8 50.6 2.8 50.6 C 1.3 49.8 0.5 48.7 0.5 47.2 C 0.5 47.2 0.5 47.2 0.5 47.2 C 0.5 45.8 1.3 44.6 2.8 43.8 C 2.8 43.8 3 44.2 3 44.2 C 1.8 45 1.2 46 1.2 47.2 C 1.17 47.22 1.2 47.2 1.2 47.2 C 1.2 47.2 1.17 47.23 1.2 47.2 Z M 7.2 48.7 C 6.8 49.3 6.3 49.6 5.7 49.6 C 5.1 49.6 4.7 49.4 4.3 49 C 3.9 48.6 3.7 48.1 3.7 47.5 C 3.7 47.5 3.7 47.4 3.7 47.4 C 3.7 46.8 3.9 46.3 4.3 45.9 C 4.7 45.5 5.1 45.3 5.7 45.3 C 6.3 45.3 6.8 45.6 7.2 46.2 C 7.24 46.17 7.2 43.7 7.2 43.7 L 7.9 43.7 L 7.9 49.5 L 7.2 49.5 L 7.2 48.7 C 7.2 48.7 7.24 48.69 7.2 48.7 Z M 5.8 49.1 C 6.2 49.1 6.5 48.9 6.8 48.6 C 7.1 48.3 7.3 47.9 7.3 47.5 C 7.3 47.5 7.3 47.4 7.3 47.4 C 7.3 47 7.1 46.6 6.8 46.3 C 6.5 46 6.2 45.8 5.8 45.8 C 5.4 45.8 5 46 4.7 46.3 C 4.5 46.6 4.3 47 4.3 47.4 C 4.3 47.4 4.3 47.5 4.3 47.5 C 4.3 47.9 4.5 48.3 4.7 48.6 C 5 48.9 5.4 49.1 5.8 49.1 Z M 9.2 44.5 L 9.2 43.8 L 10 43.8 L 10 44.5 L 9.2 44.5 Z M 9.3 49.5 L 9.3 45.4 L 9.9 45.4 L 9.9 49.5 L 9.3 49.5 Z M 12.3 50.8 L 11.7 50.5 C 11.7 50.5 12.35 49.57 12.4 49.6 C 11.8 49.5 11.4 49.3 11 49 C 11 49 11.3 48.6 11.3 48.6 C 11.8 48.9 12.2 49.1 12.7 49.1 C 13 49.1 13.2 49 13.4 48.9 C 13.5 48.8 13.6 48.6 13.6 48.4 C 13.6 48.4 13.6 48.4 13.6 48.4 C 13.6 48.2 13.5 48.1 13.3 48 C 13.2 47.9 12.9 47.8 12.6 47.7 C 12.4 47.6 12.3 47.6 12.2 47.6 C 12.2 47.6 12.1 47.5 11.9 47.5 C 11.8 47.4 11.7 47.4 11.6 47.3 C 11.6 47.3 11.5 47.2 11.4 47.1 C 11.3 47 11.3 46.9 11.2 46.8 C 11.2 46.7 11.2 46.6 11.2 46.5 C 11.2 46.5 11.2 46.5 11.2 46.5 C 11.2 46.1 11.3 45.9 11.6 45.6 C 11.9 45.4 12.2 45.3 12.6 45.3 C 13.1 45.3 13.6 45.5 14.1 45.8 C 14.1 45.8 13.8 46.2 13.8 46.2 C 13.4 46 13 45.8 12.6 45.8 C 12.3 45.8 12.2 45.9 12 46 C 11.9 46.1 11.8 46.3 11.8 46.4 C 11.8 46.4 11.8 46.4 11.8 46.4 C 11.8 46.5 11.8 46.6 11.8 46.7 C 11.9 46.7 11.9 46.8 12 46.8 C 12 46.9 12.1 46.9 12.2 47 C 12.4 47 12.5 47 12.5 47.1 C 12.6 47.1 12.7 47.1 12.8 47.2 C 13 47.2 13.1 47.2 13.2 47.3 C 13.3 47.3 13.5 47.4 13.6 47.4 C 13.7 47.5 13.8 47.6 13.9 47.7 C 14 47.7 14 47.8 14.1 48 C 14.1 48.1 14.2 48.2 14.2 48.3 C 14.2 48.3 14.2 48.4 14.2 48.4 C 14.2 48.7 14.1 49 13.8 49.2 C 13.6 49.4 13.3 49.6 12.9 49.6 C 12.86 49.59 12.3 50.8 12.3 50.8 Z M 15.4 49.5 L 15.4 43.7 L 16 43.7 L 16 49.5 L 15.4 49.5 Z M 17.4 44.5 L 17.4 43.8 L 18.1 43.8 L 18.1 44.5 L 17.4 44.5 Z M 17.5 49.5 L 17.5 45.4 L 18.1 45.4 L 18.1 49.5 L 17.5 49.5 Z M 21.8 47.2 C 21.8 48.7 21 49.8 19.6 50.6 C 19.6 50.6 19.3 50.2 19.3 50.2 C 20.5 49.5 21.1 48.4 21.1 47.2 C 21.1 47.2 21.1 47.2 21.1 47.2 C 21.1 46 20.5 45 19.3 44.2 C 19.3 44.2 19.6 43.8 19.6 43.8 C 21 44.6 21.8 45.8 21.8 47.2 C 21.77 47.22 21.8 47.2 21.8 47.2 C 21.8 47.2 21.77 47.23 21.8 47.2 Z M 27.6 44.8 L 27.6 44 L 28.4 44 L 28.4 44.8 L 27.6 44.8 Z M 26.2 44.8 L 26.2 44 L 27 44 L 27 44.8 L 26.2 44.8 Z M 27.3 49.6 C 26.7 49.6 26.2 49.4 25.8 49 C 25.3 48.6 25.1 48.1 25.1 47.5 C 25.1 47.5 25.1 47.5 25.1 47.5 C 25.1 46.9 25.3 46.3 25.8 45.9 C 26.2 45.5 26.7 45.3 27.3 45.3 C 27.9 45.3 28.4 45.5 28.8 45.9 C 29.2 46.3 29.5 46.8 29.5 47.4 C 29.5 47.4 29.5 47.5 29.5 47.5 C 29.5 48.1 29.2 48.6 28.8 49 C 28.4 49.4 27.9 49.6 27.3 49.6 Z M 27.3 49.1 C 27.7 49.1 28.1 48.9 28.4 48.6 C 28.7 48.3 28.8 47.9 28.8 47.5 C 28.8 47.5 28.8 47.5 28.8 47.5 C 28.8 47 28.7 46.6 28.4 46.3 C 28.1 46 27.7 45.8 27.3 45.8 C 26.8 45.8 26.5 46 26.2 46.3 C 25.9 46.6 25.8 47 25.8 47.4 C 25.8 47.4 25.8 47.5 25.8 47.5 C 25.8 47.9 25.9 48.3 26.2 48.6 C 26.5 48.9 26.9 49.1 27.3 49.1 Z M 34 50.3 C 33.6 50.6 33.1 50.8 32.4 50.8 C 31.7 50.8 31.1 50.6 30.5 50.2 C 30.5 50.2 30.8 49.8 30.8 49.8 C 31.3 50.1 31.8 50.3 32.4 50.3 C 32.9 50.3 33.2 50.2 33.5 49.9 C 33.8 49.7 33.9 49.3 33.9 48.8 C 33.9 48.8 33.9 48.3 33.9 48.3 C 33.5 48.9 32.9 49.2 32.3 49.2 C 31.8 49.2 31.3 49 30.9 48.7 C 30.5 48.3 30.3 47.8 30.3 47.3 C 30.3 47.3 30.3 47.2 30.3 47.2 C 30.3 46.7 30.5 46.2 30.9 45.8 C 31.3 45.5 31.7 45.3 32.3 45.3 C 32.9 45.3 33.5 45.6 33.9 46.1 C 33.89 46.13 33.9 45.4 33.9 45.4 L 34.5 45.4 C 34.5 45.4 34.5 48.8 34.5 48.8 C 34.5 49.4 34.3 49.9 34 50.3 C 34 50.3 34 50.3 34 50.3 Z M 32.4 48.7 C 32.8 48.7 33.2 48.5 33.5 48.3 C 33.8 48 33.9 47.7 33.9 47.3 C 33.9 47.3 33.9 47.2 33.9 47.2 C 33.9 46.8 33.8 46.5 33.5 46.2 C 33.2 46 32.8 45.8 32.4 45.8 C 32 45.8 31.6 46 31.4 46.2 C 31.1 46.5 31 46.8 31 47.2 C 31 47.2 31 47.2 31 47.2 C 31 47.7 31.1 48 31.4 48.3 C 31.7 48.5 32 48.7 32.4 48.7 Z M 33.7 43.8 C 33.7 44.1 33.6 44.3 33.4 44.5 C 33.2 44.7 32.9 44.8 32.6 44.8 C 32.2 44.8 31.9 44.7 31.7 44.5 C 31.5 44.3 31.4 44.1 31.4 43.8 C 31.4 43.8 31.8 43.8 31.8 43.8 C 31.9 44.1 32.2 44.3 32.6 44.3 C 32.9 44.3 33.2 44.1 33.3 43.8 C 33.3 43.77 33.7 43.8 33.7 43.8 C 33.7 43.8 33.74 43.77 33.7 43.8 Z M 38 44.8 L 38 44 L 38.7 44 L 38.7 44.8 L 38 44.8 Z M 36.6 44.8 L 36.6 44 L 37.3 44 L 37.3 44.8 L 36.6 44.8 Z M 38.8 48.8 C 38.5 49.3 38 49.6 37.4 49.6 C 36.9 49.6 36.5 49.5 36.2 49.2 C 36 48.8 35.8 48.4 35.8 48 C 35.82 47.95 35.8 45.4 35.8 45.4 L 36.4 45.4 C 36.4 45.4 36.43 47.8 36.4 47.8 C 36.4 48.2 36.5 48.5 36.7 48.7 C 36.9 48.9 37.2 49 37.6 49 C 37.9 49 38.2 48.9 38.5 48.7 C 38.7 48.4 38.8 48.1 38.8 47.8 C 38.82 47.75 38.8 45.4 38.8 45.4 L 39.4 45.4 L 39.4 49.5 L 38.8 49.5 L 38.8 48.8 C 38.8 48.8 38.82 48.8 38.8 48.8 Z M 42.9 49.4 C 42.7 49.5 42.5 49.6 42.2 49.6 C 41.8 49.6 41.5 49.5 41.3 49.3 C 41.1 49.1 41 48.8 41 48.4 C 41.02 48.42 41 45.9 41 45.9 L 40.4 45.9 L 40.4 45.4 L 41 45.4 L 41 44.1 L 41.6 44.1 L 41.6 45.4 L 43 45.4 L 43 45.9 L 41.6 45.9 C 41.6 45.9 41.64 48.34 41.6 48.3 C 41.6 48.8 41.9 49 42.3 49 C 42.5 49 42.7 49 42.9 48.9 C 42.94 48.89 42.9 49.4 42.9 49.4 C 42.9 49.4 42.94 49.41 42.9 49.4 Z M 46.1 44.8 L 46.1 44 L 46.8 44 L 46.8 44.8 L 46.1 44.8 Z M 44.7 44.8 L 44.7 44 L 45.4 44 L 45.4 44.8 L 44.7 44.8 Z M 47 48.8 C 46.6 49.3 46.2 49.6 45.6 49.6 C 45.1 49.6 44.7 49.5 44.4 49.2 C 44.1 48.8 44 48.4 44 48 C 43.97 47.95 44 45.4 44 45.4 L 44.6 45.4 C 44.6 45.4 44.59 47.8 44.6 47.8 C 44.6 48.2 44.7 48.5 44.9 48.7 C 45.1 48.9 45.4 49 45.7 49 C 46.1 49 46.4 48.9 46.6 48.7 C 46.9 48.4 47 48.1 47 47.8 C 46.97 47.75 47 45.4 47 45.4 L 47.6 45.4 L 47.6 49.5 L 47 49.5 L 47 48.8 C 47 48.8 46.97 48.8 47 48.8 Z M 52.5 48.8 C 52 49.3 51.5 49.6 50.8 49.6 C 50.2 49.6 49.7 49.4 49.3 49 C 48.9 48.6 48.7 48.1 48.7 47.5 C 48.7 47.5 48.7 47.5 48.7 47.5 C 48.7 46.9 48.9 46.3 49.3 45.9 C 49.7 45.5 50.2 45.3 50.8 45.3 C 51.5 45.3 52 45.5 52.5 46 C 52.5 46 52.1 46.5 52.1 46.5 C 51.7 46 51.3 45.8 50.8 45.8 C 50.4 45.8 50 46 49.8 46.3 C 49.5 46.6 49.3 47 49.3 47.4 C 49.3 47.4 49.3 47.5 49.3 47.5 C 49.3 47.9 49.5 48.3 49.8 48.6 C 50.1 48.9 50.4 49.1 50.9 49.1 C 51.3 49.1 51.7 48.9 52.1 48.4 C 52.13 48.45 52.5 48.8 52.5 48.8 C 52.5 48.8 52.52 48.81 52.5 48.8 Z M 55.6 44.8 L 55.6 44 L 56.3 44 L 56.3 44.8 L 55.6 44.8 Z M 54.2 44.8 L 54.2 44 L 54.9 44 L 54.9 44.8 L 54.2 44.8 Z M 56.4 48.8 C 56.1 49.3 55.6 49.6 55 49.6 C 54.5 49.6 54.1 49.5 53.9 49.2 C 53.6 48.8 53.4 48.4 53.4 48 C 53.44 47.95 53.4 45.4 53.4 45.4 L 54.1 45.4 C 54.1 45.4 54.05 47.8 54.1 47.8 C 54.1 48.2 54.2 48.5 54.4 48.7 C 54.6 48.9 54.8 49 55.2 49 C 55.6 49 55.9 48.9 56.1 48.7 C 56.3 48.4 56.4 48.1 56.4 47.8 C 56.44 47.75 56.4 45.4 56.4 45.4 L 57 45.4 L 57 49.5 L 56.4 49.5 L 56.4 48.8 C 56.4 48.8 56.44 48.8 56.4 48.8 Z M 58.4 46.2 L 58.4 45.4 L 59.1 45.4 L 59.1 46.2 L 58.4 46.2 Z M 58.4 49.5 L 58.4 48.7 L 59.1 48.7 L 59.1 49.5 L 58.4 49.5 Z M 62.9 44.5 L 62.9 43.8 L 63.6 43.8 L 63.6 44.5 L 62.9 44.5 Z M 62.9 49.5 L 62.9 45.4 L 63.5 45.4 L 63.5 49.5 L 62.9 49.5 Z M 66.4 50.8 L 65.8 50.5 C 65.8 50.5 66.45 49.57 66.4 49.6 C 65.9 49.5 65.5 49.2 65.2 48.8 C 64.9 48.4 64.7 48 64.7 47.5 C 64.7 47.5 64.7 47.5 64.7 47.5 C 64.7 46.9 64.9 46.3 65.3 45.9 C 65.7 45.5 66.2 45.3 66.8 45.3 C 67.5 45.3 68 45.5 68.5 46 C 68.5 46 68.1 46.5 68.1 46.5 C 67.7 46 67.3 45.8 66.8 45.8 C 66.4 45.8 66 46 65.8 46.3 C 65.5 46.6 65.3 47 65.3 47.4 C 65.3 47.4 65.3 47.5 65.3 47.5 C 65.3 47.9 65.5 48.3 65.8 48.6 C 66.1 48.9 66.4 49.1 66.9 49.1 C 67.3 49.1 67.7 48.9 68.1 48.4 C 68.1 48.4 68.5 48.8 68.5 48.8 C 68.1 49.3 67.6 49.6 67 49.6 C 66.95 49.61 66.4 50.8 66.4 50.8 Z M 72.9 48.8 C 72.5 49.4 71.9 49.6 71.2 49.6 C 70.6 49.6 70.2 49.4 69.8 49 C 69.4 48.6 69.2 48.1 69.2 47.5 C 69.2 47.5 69.2 47.4 69.2 47.4 C 69.2 46.8 69.3 46.3 69.7 45.9 C 70.1 45.5 70.6 45.3 71.1 45.3 C 71.7 45.3 72.2 45.5 72.6 45.9 C 72.9 46.3 73.1 46.9 73.1 47.5 C 73.1 47.6 73.1 47.6 73.1 47.7 C 73.1 47.7 69.8 47.7 69.8 47.7 C 69.8 48.1 70 48.5 70.3 48.7 C 70.5 49 70.9 49.1 71.2 49.1 C 71.7 49.1 72.2 48.9 72.5 48.5 C 72.54 48.49 72.9 48.8 72.9 48.8 C 72.9 48.8 72.93 48.84 72.9 48.8 Z M 69.8 47.2 C 69.8 47.2 72.4 47.2 72.4 47.2 C 72.4 46.8 72.3 46.5 72.1 46.2 C 71.8 45.9 71.5 45.8 71.1 45.8 C 70.8 45.8 70.5 45.9 70.2 46.2 C 70 46.5 69.8 46.8 69.8 47.2 Z M 74.2 49.5 L 74.2 45.4 L 74.8 45.4 C 74.8 45.4 74.77 46.46 74.8 46.5 C 74.9 46.1 75.2 45.8 75.4 45.6 C 75.7 45.4 76.1 45.3 76.5 45.3 C 76.45 45.31 76.5 46 76.5 46 C 76.5 46 76.41 45.97 76.4 46 C 75.9 46 75.5 46.1 75.2 46.5 C 74.9 46.8 74.8 47.3 74.8 47.9 C 74.77 47.87 74.8 49.5 74.8 49.5 L 74.2 49.5 Z M 77.4 44.5 L 77.4 43.8 L 78.1 43.8 L 78.1 44.5 L 77.4 44.5 Z M 77.4 49.5 L 77.4 45.4 L 78.1 45.4 L 78.1 49.5 L 77.4 49.5 Z M 79.5 49.5 L 79.5 43.7 L 80.1 43.7 L 80.1 47.7 L 82.3 45.4 L 83.1 45.4 L 81.4 47.2 L 83.2 49.5 L 82.4 49.5 L 81 47.6 L 80.1 48.4 L 80.1 49.5 L 79.5 49.5 Z M 88.5 44.8 L 88.5 44 L 89.2 44 L 89.2 44.8 L 88.5 44.8 Z M 87.1 44.8 L 87.1 44 L 87.8 44 L 87.8 44.8 L 87.1 44.8 Z M 89.4 48.8 C 89 49.3 88.6 49.6 88 49.6 C 87.5 49.6 87.1 49.5 86.8 49.2 C 86.5 48.8 86.4 48.4 86.4 48 C 86.38 47.95 86.4 45.4 86.4 45.4 L 87 45.4 C 87 45.4 87 47.8 87 47.8 C 87 48.2 87.1 48.5 87.3 48.7 C 87.5 48.9 87.8 49 88.1 49 C 88.5 49 88.8 48.9 89 48.7 C 89.3 48.4 89.4 48.1 89.4 47.8 C 89.38 47.75 89.4 45.4 89.4 45.4 L 90 45.4 L 90 49.5 L 89.4 49.5 L 89.4 48.8 C 89.4 48.8 89.38 48.8 89.4 48.8 Z M 92.7 49.6 C 92.1 49.6 91.5 49.4 91 49 C 91 49 91.3 48.6 91.3 48.6 C 91.8 48.9 92.3 49.1 92.8 49.1 C 93 49.1 93.2 49 93.4 48.9 C 93.6 48.8 93.6 48.6 93.6 48.4 C 93.6 48.4 93.6 48.4 93.6 48.4 C 93.6 48.2 93.5 48.1 93.4 48 C 93.2 47.9 92.9 47.8 92.6 47.7 C 92.4 47.6 92.3 47.6 92.3 47.6 C 92.2 47.6 92.1 47.5 92 47.5 C 91.8 47.4 91.7 47.4 91.7 47.3 C 91.6 47.3 91.5 47.2 91.5 47.1 C 91.4 47 91.3 46.9 91.3 46.8 C 91.2 46.7 91.2 46.6 91.2 46.5 C 91.2 46.5 91.2 46.5 91.2 46.5 C 91.2 46.1 91.4 45.9 91.6 45.6 C 91.9 45.4 92.2 45.3 92.6 45.3 C 93.2 45.3 93.7 45.5 94.1 45.8 C 94.1 45.8 93.8 46.2 93.8 46.2 C 93.4 46 93 45.8 92.6 45.8 C 92.4 45.8 92.2 45.9 92 46 C 91.9 46.1 91.8 46.3 91.8 46.4 C 91.8 46.4 91.8 46.4 91.8 46.4 C 91.8 46.5 91.8 46.6 91.9 46.7 C 91.9 46.7 92 46.8 92 46.8 C 92.1 46.9 92.2 46.9 92.3 47 C 92.4 47 92.5 47 92.6 47.1 C 92.6 47.1 92.7 47.1 92.9 47.2 C 93 47.2 93.2 47.2 93.3 47.3 C 93.4 47.3 93.5 47.4 93.6 47.4 C 93.8 47.5 93.9 47.6 93.9 47.7 C 94 47.7 94.1 47.8 94.1 48 C 94.2 48.1 94.2 48.2 94.2 48.3 C 94.2 48.3 94.2 48.4 94.2 48.4 C 94.2 48.7 94.1 49 93.8 49.3 C 93.5 49.5 93.2 49.6 92.7 49.6 Z M 97.4 49.4 C 97.2 49.5 96.9 49.6 96.7 49.6 C 96.3 49.6 96 49.5 95.8 49.3 C 95.6 49.1 95.5 48.8 95.5 48.4 C 95.49 48.42 95.5 45.9 95.5 45.9 L 94.9 45.9 L 94.9 45.4 L 95.5 45.4 L 95.5 44.1 L 96.1 44.1 L 96.1 45.4 L 97.4 45.4 L 97.4 45.9 L 96.1 45.9 C 96.1 45.9 96.11 48.34 96.1 48.3 C 96.1 48.8 96.3 49 96.8 49 C 97 49 97.2 49 97.4 48.9 C 97.41 48.89 97.4 49.4 97.4 49.4 C 97.4 49.4 97.41 49.41 97.4 49.4 Z " stroke="none" fill="#000"/>  </g>  <g id="Polygon369933">    <path d="M 2.7 40 C 1.8 40 1.1 39.7 0.4 39.1 C 0.4 39.1 0.8 38.6 0.8 38.6 C 1.1 38.9 1.4 39.1 1.7 39.2 C 2 39.4 2.4 39.4 2.7 39.4 C 3.1 39.4 3.4 39.3 3.6 39.2 C 3.9 39 4 38.8 4 38.5 C 4 38.5 4 38.5 4 38.5 C 4 38.2 3.9 38 3.7 37.8 C 3.5 37.7 3.1 37.5 2.5 37.4 C 1.9 37.3 1.4 37.1 1.1 36.8 C 0.8 36.6 0.6 36.2 0.6 35.8 C 0.6 35.8 0.6 35.8 0.6 35.8 C 0.6 35.3 0.8 35 1.2 34.7 C 1.5 34.4 2 34.2 2.5 34.2 C 2.9 34.2 3.2 34.3 3.5 34.4 C 3.9 34.5 4.2 34.7 4.5 34.9 C 4.5 34.9 4.1 35.4 4.1 35.4 C 3.6 35 3.1 34.8 2.5 34.8 C 2.1 34.8 1.8 34.9 1.6 35.1 C 1.4 35.2 1.3 35.4 1.3 35.7 C 1.3 35.7 1.3 35.7 1.3 35.7 C 1.3 36 1.4 36.2 1.6 36.4 C 1.8 36.5 2.2 36.7 2.8 36.8 C 3.4 37 3.9 37.2 4.2 37.4 C 4.5 37.6 4.6 38 4.6 38.4 C 4.6 38.4 4.6 38.4 4.6 38.4 C 4.6 38.9 4.4 39.3 4.1 39.6 C 3.7 39.9 3.3 40 2.7 40 Z M 5.8 34.9 L 5.8 34.2 L 6.5 34.2 L 6.5 34.9 L 5.8 34.9 Z M 5.9 39.9 L 5.9 35.8 L 6.5 35.8 L 6.5 39.9 L 5.9 39.9 Z M 7.9 39.9 L 7.9 35.8 L 8.5 35.8 C 8.5 35.8 8.53 36.48 8.5 36.5 C 8.7 36.2 8.9 36 9.1 35.9 C 9.3 35.8 9.5 35.7 9.9 35.7 C 10.5 35.7 10.9 36 11.2 36.5 C 11.6 36 12 35.7 12.6 35.7 C 13.1 35.7 13.5 35.8 13.8 36.1 C 14 36.4 14.2 36.8 14.2 37.4 C 14.18 37.36 14.2 39.9 14.2 39.9 L 13.6 39.9 C 13.6 39.9 13.57 37.5 13.6 37.5 C 13.6 37.1 13.5 36.8 13.3 36.6 C 13.1 36.4 12.8 36.3 12.5 36.3 C 12.2 36.3 11.9 36.4 11.7 36.6 C 11.5 36.8 11.4 37.1 11.4 37.5 C 11.35 37.53 11.4 39.9 11.4 39.9 L 10.7 39.9 C 10.7 39.9 10.74 37.49 10.7 37.5 C 10.7 37.1 10.6 36.8 10.5 36.6 C 10.3 36.4 10 36.3 9.7 36.3 C 9.3 36.3 9.1 36.4 8.9 36.6 C 8.6 36.9 8.5 37.2 8.5 37.6 C 8.53 37.56 8.5 39.9 8.5 39.9 L 7.9 39.9 Z M 19 39.2 C 18.6 39.8 18 40 17.3 40 C 16.7 40 16.2 39.8 15.8 39.4 C 15.4 39 15.2 38.5 15.2 37.9 C 15.2 37.9 15.2 37.8 15.2 37.8 C 15.2 37.2 15.4 36.7 15.8 36.3 C 16.2 35.9 16.7 35.7 17.2 35.7 C 17.8 35.7 18.3 35.9 18.6 36.3 C 19 36.7 19.2 37.3 19.2 37.9 C 19.2 38 19.1 38 19.1 38.1 C 19.1 38.1 15.9 38.1 15.9 38.1 C 15.9 38.5 16.1 38.9 16.3 39.1 C 16.6 39.4 16.9 39.5 17.3 39.5 C 17.8 39.5 18.2 39.3 18.6 38.9 C 18.62 38.89 19 39.2 19 39.2 C 19 39.2 19.01 39.24 19 39.2 Z M 15.9 37.6 C 15.9 37.6 18.5 37.6 18.5 37.6 C 18.5 37.2 18.4 36.9 18.1 36.6 C 17.9 36.3 17.6 36.2 17.2 36.2 C 16.9 36.2 16.5 36.3 16.3 36.6 C 16.1 36.9 15.9 37.2 15.9 37.6 Z M 22.4 39.8 C 22.1 39.9 21.9 40 21.6 40 C 21.3 40 21 39.9 20.8 39.7 C 20.6 39.5 20.4 39.2 20.4 38.8 C 20.45 38.82 20.4 36.3 20.4 36.3 L 19.9 36.3 L 19.9 35.8 L 20.4 35.8 L 20.4 34.5 L 21.1 34.5 L 21.1 35.8 L 22.4 35.8 L 22.4 36.3 L 21.1 36.3 C 21.1 36.3 21.06 38.74 21.1 38.7 C 21.1 39.2 21.3 39.4 21.8 39.4 C 22 39.4 22.2 39.4 22.4 39.3 C 22.36 39.29 22.4 39.8 22.4 39.8 C 22.4 39.8 22.36 39.81 22.4 39.8 Z M 23.5 39.9 L 23.5 35.8 L 24.1 35.8 C 24.1 35.8 24.08 36.86 24.1 36.9 C 24.2 36.5 24.5 36.2 24.8 36 C 25.1 35.8 25.4 35.7 25.8 35.7 C 25.77 35.71 25.8 36.4 25.8 36.4 C 25.8 36.4 25.72 36.37 25.7 36.4 C 25.2 36.4 24.9 36.5 24.5 36.9 C 24.2 37.2 24.1 37.7 24.1 38.3 C 24.08 38.27 24.1 39.9 24.1 39.9 L 23.5 39.9 Z M 26.7 34.9 L 26.7 34.2 L 27.4 34.2 L 27.4 34.9 L 26.7 34.9 Z M 26.8 39.9 L 26.8 35.8 L 27.4 35.8 L 27.4 39.9 L 26.8 39.9 Z M 28.8 39.9 L 28.8 34.1 L 29.4 34.1 L 29.4 38.1 L 31.7 35.8 L 32.4 35.8 L 30.7 37.6 L 32.5 39.9 L 31.7 39.9 L 30.3 38 L 29.4 38.8 L 29.4 39.9 L 28.8 39.9 Z M 37.2 41.2 L 36.6 40.9 C 36.6 40.9 37.24 39.97 37.2 40 C 36.7 39.9 36.3 39.6 36 39.2 C 35.7 38.8 35.5 38.4 35.5 37.9 C 35.5 37.9 35.5 37.9 35.5 37.9 C 35.5 37.3 35.7 36.7 36.1 36.3 C 36.5 35.9 37 35.7 37.6 35.7 C 38.3 35.7 38.8 35.9 39.3 36.4 C 39.3 36.4 38.9 36.9 38.9 36.9 C 38.5 36.4 38.1 36.2 37.6 36.2 C 37.2 36.2 36.8 36.4 36.6 36.7 C 36.3 37 36.1 37.4 36.1 37.8 C 36.1 37.8 36.1 37.9 36.1 37.9 C 36.1 38.3 36.3 38.7 36.6 39 C 36.9 39.3 37.2 39.5 37.7 39.5 C 38.1 39.5 38.5 39.3 38.9 38.8 C 38.9 38.8 39.3 39.2 39.3 39.2 C 38.9 39.7 38.4 40 37.7 40 C 37.74 40.01 37.2 41.2 37.2 41.2 Z M 40.3 34.9 L 40.3 34.2 L 41 34.2 L 41 34.9 L 40.3 34.9 Z M 40.4 39.9 L 40.4 35.8 L 41 35.8 L 41 39.9 L 40.4 39.9 Z M 42.7 39.9 L 42.7 36.3 L 42.1 36.3 L 42.1 35.8 L 42.7 35.8 C 42.7 35.8 42.66 35.43 42.7 35.4 C 42.7 35 42.8 34.6 43 34.4 C 43.2 34.2 43.5 34 43.9 34 C 44.2 34 44.4 34.1 44.6 34.2 C 44.6 34.2 44.6 34.7 44.6 34.7 C 44.3 34.6 44.1 34.6 44 34.6 C 43.5 34.6 43.3 34.9 43.3 35.5 C 43.27 35.46 43.3 35.8 43.3 35.8 L 44.6 35.8 L 44.6 36.3 L 43.3 36.3 L 43.3 39.9 L 42.7 39.9 Z M 47.5 39.8 C 47.3 39.9 47 40 46.8 40 C 46.4 40 46.1 39.9 45.9 39.7 C 45.7 39.5 45.6 39.2 45.6 38.8 C 45.58 38.82 45.6 36.3 45.6 36.3 L 45 36.3 L 45 35.8 L 45.6 35.8 L 45.6 34.5 L 46.2 34.5 L 46.2 35.8 L 47.5 35.8 L 47.5 36.3 L 46.2 36.3 C 46.2 36.3 46.2 38.74 46.2 38.7 C 46.2 39.2 46.4 39.4 46.9 39.4 C 47.1 39.4 47.3 39.4 47.5 39.3 C 47.5 39.29 47.5 39.8 47.5 39.8 C 47.5 39.8 47.5 39.81 47.5 39.8 Z M 51 39.9 L 51 34.1 L 51.6 34.1 L 51.6 38.1 L 53.8 35.8 L 54.6 35.8 L 52.9 37.6 L 54.7 39.9 L 53.9 39.9 L 52.5 38 L 51.6 38.8 L 51.6 39.9 L 51 39.9 Z M 57.2 40 C 56.6 40 56.1 39.8 55.7 39.4 C 55.3 39 55.1 38.5 55.1 37.9 C 55.1 37.9 55.1 37.9 55.1 37.9 C 55.1 37.3 55.3 36.7 55.7 36.3 C 56.1 35.9 56.6 35.7 57.3 35.7 C 57.9 35.7 58.4 35.9 58.8 36.3 C 59.2 36.7 59.4 37.2 59.4 37.8 C 59.4 37.8 59.4 37.9 59.4 37.9 C 59.4 38.5 59.2 39 58.8 39.4 C 58.4 39.8 57.9 40 57.2 40 Z M 57.3 39.5 C 57.7 39.5 58.1 39.3 58.3 39 C 58.6 38.7 58.8 38.3 58.8 37.9 C 58.8 37.9 58.8 37.9 58.8 37.9 C 58.8 37.4 58.6 37 58.3 36.7 C 58 36.4 57.7 36.2 57.2 36.2 C 56.8 36.2 56.4 36.4 56.2 36.7 C 55.9 37 55.7 37.4 55.7 37.8 C 55.7 37.8 55.7 37.9 55.7 37.9 C 55.7 38.3 55.9 38.7 56.2 39 C 56.5 39.3 56.8 39.5 57.3 39.5 Z M 60.5 39.9 L 60.5 35.8 L 61.1 35.8 C 61.1 35.8 61.13 36.5 61.1 36.5 C 61.5 36 61.9 35.7 62.6 35.7 C 63 35.7 63.4 35.8 63.7 36.2 C 64 36.5 64.1 36.9 64.1 37.4 C 64.13 37.35 64.1 39.9 64.1 39.9 L 63.5 39.9 C 63.5 39.9 63.52 37.5 63.5 37.5 C 63.5 37.1 63.4 36.8 63.2 36.6 C 63 36.4 62.7 36.3 62.4 36.3 C 62 36.3 61.7 36.4 61.5 36.6 C 61.3 36.9 61.1 37.2 61.1 37.6 C 61.13 37.55 61.1 39.9 61.1 39.9 L 60.5 39.9 Z M 65.5 34.9 L 65.5 34.2 L 66.2 34.2 L 66.2 34.9 L 65.5 34.9 Z M 65.5 39.9 L 65.5 35.8 L 66.1 35.8 L 66.1 39.9 L 65.5 39.9 Z M 67.6 39.9 L 67.6 34.1 L 68.2 34.1 L 68.2 38.1 L 70.4 35.8 L 71.2 35.8 L 69.4 37.6 L 71.2 39.9 L 70.5 39.9 L 69 38 L 68.2 38.8 L 68.2 39.9 L 67.6 39.9 Z M 76.7 40 C 76 40 75.5 39.7 75.1 39.1 C 75.12 39.13 75.1 39.9 75.1 39.9 L 74.5 39.9 L 74.5 34.1 L 75.1 34.1 C 75.1 34.1 75.12 36.61 75.1 36.6 C 75.6 36 76.1 35.7 76.7 35.7 C 77.2 35.7 77.7 35.9 78.1 36.3 C 78.5 36.7 78.7 37.2 78.7 37.8 C 78.7 37.8 78.7 37.9 78.7 37.9 C 78.7 38.5 78.5 39 78.1 39.4 C 77.7 39.8 77.2 40 76.7 40 Z M 76.6 39.5 C 77 39.5 77.4 39.3 77.6 39 C 77.9 38.7 78 38.3 78 37.9 C 78 37.9 78 37.8 78 37.8 C 78 37.4 77.9 37 77.6 36.7 C 77.3 36.4 77 36.2 76.6 36.2 C 76.2 36.2 75.8 36.4 75.5 36.7 C 75.2 37 75.1 37.4 75.1 37.8 C 75.1 37.8 75.1 37.9 75.1 37.9 C 75.1 38.3 75.2 38.7 75.5 39 C 75.8 39.3 76.2 39.5 76.6 39.5 Z M 82.8 39.2 C 82.4 39.7 81.9 40 81.3 40 C 80.8 40 80.5 39.9 80.2 39.6 C 79.9 39.2 79.8 38.8 79.8 38.4 C 79.75 38.35 79.8 35.8 79.8 35.8 L 80.4 35.8 C 80.4 35.8 80.37 38.2 80.4 38.2 C 80.4 38.6 80.5 38.9 80.7 39.1 C 80.9 39.3 81.1 39.4 81.5 39.4 C 81.9 39.4 82.2 39.3 82.4 39.1 C 82.6 38.8 82.8 38.5 82.8 38.2 C 82.75 38.15 82.8 35.8 82.8 35.8 L 83.4 35.8 L 83.4 39.9 L 82.8 39.9 L 82.8 39.2 C 82.8 39.2 82.75 39.2 82.8 39.2 Z M 84.7 39.9 L 84.7 35.8 L 85.4 35.8 C 85.4 35.8 85.36 36.86 85.4 36.9 C 85.5 36.5 85.7 36.2 86 36 C 86.3 35.8 86.7 35.7 87 35.7 C 87.05 35.71 87 36.4 87 36.4 C 87 36.4 87 36.37 87 36.4 C 86.5 36.4 86.1 36.5 85.8 36.9 C 85.5 37.2 85.4 37.7 85.4 38.3 C 85.36 38.27 85.4 39.9 85.4 39.9 L 84.7 39.9 Z M 88 39.9 L 88 35.8 L 88.6 35.8 C 88.6 35.8 88.6 36.86 88.6 36.9 C 88.8 36.5 89 36.2 89.3 36 C 89.6 35.8 89.9 35.7 90.3 35.7 C 90.29 35.71 90.3 36.4 90.3 36.4 C 90.3 36.4 90.24 36.37 90.2 36.4 C 89.8 36.4 89.4 36.5 89.1 36.9 C 88.8 37.2 88.6 37.7 88.6 38.3 C 88.6 38.27 88.6 39.9 88.6 39.9 L 88 39.9 Z " stroke="none" fill="#000"/>  </g></svg>