<?xml version="1.0" standalone="no"?><!DOCTYPE svg PUBLIC "-//W3C//DTD SVG 1.1//EN" "http://www.w3.org/Graphics/SVG/1.1/DTD/svg11.dtd"><svg xmlns="http://www.w3.org/2000/svg" version="1.1" width="52.5px" height="20.5px" viewBox="0 -1 52.5 20.5" style="top:-1px">  <desc>₺6.988,96</desc>  <defs/>  <g id="Polygon373859">    <path d="M 2.3 4.8 L 2.3 11.9 L 1.4 11.9 L 1.4 4.8 L 2.3 4.8 Z M 4.2 8.2 L 5.1 8.2 C 5.1 8.2 5.13 8.58 5.1 8.6 C 5.1 9.1 5.1 9.6 4.9 10 C 4.8 10.4 4.6 10.8 4.4 11.1 C 4.1 11.4 3.8 11.6 3.4 11.8 C 3.1 11.9 2.7 12 2.3 12 C 2.1 12 2 12 1.8 12 C 1.7 12 1.5 11.9 1.4 11.9 C 1.4 11.9 2.3 11.2 2.3 11.2 C 2.6 11.2 2.9 11.2 3.1 11 C 3.3 10.9 3.5 10.8 3.7 10.5 C 3.9 10.3 4 10 4.1 9.7 C 4.2 9.4 4.2 9 4.2 8.6 C 4.2 8.58 4.2 8.2 4.2 8.2 Z M 3.5 5.5 L 3.5 6.4 L 0.2 7.9 L 0.2 7 L 3.5 5.5 Z M 3.5 7.1 L 3.5 8 L 0.2 9.5 L 0.2 8.6 L 3.5 7.1 Z M 9.6 4.8 C 9.62 4.8 9.7 4.8 9.7 4.8 L 9.7 5.6 C 9.7 5.6 9.62 5.56 9.6 5.6 C 9.1 5.6 8.7 5.6 8.4 5.8 C 8.1 5.9 7.8 6.2 7.7 6.4 C 7.5 6.7 7.3 7 7.2 7.3 C 7.2 7.6 7.1 7.9 7.1 8.3 C 7.1 8.3 7.1 9.3 7.1 9.3 C 7.1 9.6 7.2 9.9 7.2 10.2 C 7.3 10.4 7.4 10.6 7.5 10.8 C 7.7 10.9 7.8 11.1 8 11.1 C 8.2 11.2 8.3 11.3 8.5 11.3 C 8.7 11.3 8.9 11.2 9.1 11.1 C 9.2 11.1 9.4 11 9.5 10.8 C 9.6 10.7 9.7 10.5 9.7 10.3 C 9.8 10.1 9.8 9.9 9.8 9.6 C 9.8 9.4 9.8 9.2 9.7 9 C 9.7 8.8 9.6 8.7 9.5 8.5 C 9.4 8.3 9.3 8.2 9.1 8.1 C 8.9 8 8.7 8 8.5 8 C 8.3 8 8 8.1 7.8 8.2 C 7.6 8.3 7.4 8.5 7.3 8.7 C 7.1 8.9 7.1 9.1 7.1 9.3 C 7.1 9.3 6.6 9.3 6.6 9.3 C 6.6 8.9 6.7 8.6 6.8 8.4 C 7 8.1 7.1 7.9 7.3 7.7 C 7.5 7.6 7.7 7.4 7.9 7.4 C 8.2 7.3 8.4 7.3 8.7 7.3 C 9 7.3 9.3 7.3 9.6 7.5 C 9.8 7.6 10.1 7.8 10.2 8 C 10.4 8.2 10.5 8.5 10.6 8.7 C 10.7 9 10.7 9.3 10.7 9.6 C 10.7 9.9 10.7 10.2 10.6 10.5 C 10.5 10.8 10.3 11.1 10.1 11.3 C 10 11.5 9.7 11.7 9.5 11.8 C 9.2 12 8.9 12 8.5 12 C 8.1 12 7.8 11.9 7.5 11.8 C 7.2 11.6 7 11.4 6.8 11.1 C 6.6 10.9 6.5 10.6 6.4 10.3 C 6.3 9.9 6.2 9.6 6.2 9.3 C 6.2 9.3 6.2 8.9 6.2 8.9 C 6.2 8.4 6.3 7.9 6.4 7.4 C 6.5 6.9 6.6 6.5 6.9 6.1 C 7.1 5.7 7.5 5.4 7.9 5.1 C 8.4 4.9 8.9 4.8 9.6 4.8 Z M 11.9 11.4 C 11.9 11.3 11.9 11.2 12 11 C 12.1 10.9 12.3 10.9 12.5 10.9 C 12.6 10.9 12.8 10.9 12.9 11 C 13 11.2 13 11.3 13 11.4 C 13 11.6 13 11.7 12.9 11.8 C 12.8 11.9 12.6 12 12.5 12 C 12.3 12 12.1 11.9 12 11.8 C 11.9 11.7 11.9 11.6 11.9 11.4 Z M 15.3 11.2 C 15.3 11.2 15.41 11.16 15.4 11.2 C 15.9 11.2 16.3 11.1 16.7 10.9 C 17 10.8 17.3 10.6 17.4 10.3 C 17.6 10.1 17.7 9.8 17.8 9.5 C 17.9 9.2 17.9 8.9 17.9 8.6 C 17.9 8.6 17.9 7.5 17.9 7.5 C 17.9 7.1 17.8 6.9 17.8 6.6 C 17.7 6.4 17.6 6.1 17.5 6 C 17.3 5.8 17.2 5.7 17 5.6 C 16.9 5.5 16.7 5.5 16.5 5.5 C 16.3 5.5 16.1 5.5 16 5.6 C 15.8 5.7 15.7 5.8 15.5 5.9 C 15.4 6.1 15.3 6.3 15.3 6.5 C 15.2 6.7 15.2 6.9 15.2 7.1 C 15.2 7.3 15.2 7.5 15.3 7.7 C 15.3 7.9 15.4 8.1 15.5 8.3 C 15.6 8.4 15.8 8.6 15.9 8.6 C 16.1 8.7 16.3 8.8 16.5 8.8 C 16.7 8.8 16.9 8.7 17.1 8.7 C 17.2 8.6 17.4 8.5 17.5 8.3 C 17.7 8.2 17.8 8 17.9 7.9 C 17.9 7.7 18 7.5 18 7.3 C 18 7.3 18.4 7.3 18.4 7.3 C 18.4 7.6 18.4 7.9 18.3 8.1 C 18.2 8.4 18 8.6 17.8 8.8 C 17.6 9 17.4 9.2 17.2 9.3 C 16.9 9.5 16.6 9.5 16.3 9.5 C 16 9.5 15.7 9.5 15.4 9.3 C 15.2 9.2 15 9 14.8 8.8 C 14.6 8.6 14.5 8.3 14.4 8 C 14.4 7.7 14.3 7.5 14.3 7.2 C 14.3 6.8 14.4 6.5 14.5 6.2 C 14.5 5.9 14.7 5.7 14.9 5.4 C 15.1 5.2 15.3 5 15.6 4.9 C 15.8 4.8 16.2 4.7 16.5 4.7 C 16.9 4.7 17.3 4.8 17.6 5 C 17.8 5.1 18.1 5.3 18.3 5.6 C 18.4 5.9 18.6 6.2 18.7 6.5 C 18.7 6.9 18.8 7.2 18.8 7.6 C 18.8 7.6 18.8 7.9 18.8 7.9 C 18.8 8.3 18.8 8.7 18.7 9 C 18.7 9.4 18.6 9.8 18.4 10.1 C 18.3 10.5 18.1 10.8 17.9 11 C 17.6 11.3 17.3 11.5 16.9 11.7 C 16.5 11.8 16 11.9 15.4 11.9 C 15.41 11.93 15.3 11.9 15.3 11.9 L 15.3 11.2 Z M 24.5 10 C 24.5 10.4 24.4 10.8 24.2 11.1 C 24 11.4 23.7 11.6 23.4 11.8 C 23.1 11.9 22.7 12 22.3 12 C 21.8 12 21.4 11.9 21.1 11.8 C 20.8 11.6 20.5 11.4 20.3 11.1 C 20.1 10.8 20 10.4 20 10 C 20 9.7 20 9.4 20.2 9.2 C 20.3 9 20.4 8.8 20.6 8.6 C 20.8 8.4 21.1 8.3 21.3 8.2 C 21.6 8.1 21.9 8 22.2 8 C 22.7 8 23.1 8.1 23.4 8.3 C 23.8 8.5 24 8.7 24.2 9 C 24.4 9.3 24.5 9.6 24.5 10 Z M 23.6 10 C 23.6 9.7 23.6 9.5 23.4 9.3 C 23.3 9.1 23.2 8.9 23 8.8 C 22.8 8.7 22.5 8.6 22.2 8.6 C 22 8.6 21.7 8.7 21.5 8.8 C 21.3 8.9 21.2 9.1 21.1 9.3 C 21 9.5 20.9 9.7 20.9 10 C 20.9 10.2 21 10.5 21.1 10.7 C 21.2 10.9 21.3 11 21.5 11.1 C 21.7 11.2 22 11.3 22.3 11.3 C 22.5 11.3 22.8 11.2 23 11.1 C 23.2 11 23.3 10.9 23.4 10.7 C 23.6 10.5 23.6 10.2 23.6 10 Z M 24.4 6.7 C 24.4 7 24.3 7.3 24.1 7.6 C 23.9 7.9 23.6 8.1 23.3 8.2 C 23 8.4 22.7 8.5 22.3 8.5 C 21.8 8.5 21.5 8.4 21.2 8.2 C 20.9 8.1 20.6 7.9 20.4 7.6 C 20.2 7.3 20.2 7 20.2 6.7 C 20.2 6.2 20.2 5.9 20.4 5.6 C 20.6 5.3 20.9 5.1 21.2 4.9 C 21.5 4.8 21.8 4.7 22.3 4.7 C 22.7 4.7 23 4.8 23.3 4.9 C 23.7 5.1 23.9 5.3 24.1 5.6 C 24.3 5.9 24.4 6.2 24.4 6.7 Z M 23.4 6.7 C 23.4 6.4 23.4 6.2 23.3 6 C 23.2 5.9 23.1 5.7 22.9 5.6 C 22.7 5.5 22.5 5.5 22.3 5.5 C 22 5.5 21.8 5.5 21.6 5.6 C 21.5 5.7 21.3 5.8 21.2 6 C 21.1 6.2 21.1 6.4 21.1 6.7 C 21.1 6.9 21.1 7.1 21.2 7.3 C 21.3 7.5 21.5 7.6 21.6 7.7 C 21.8 7.8 22 7.9 22.3 7.9 C 22.5 7.9 22.7 7.8 22.9 7.7 C 23.1 7.6 23.2 7.5 23.3 7.3 C 23.4 7.1 23.4 6.9 23.4 6.7 Z M 30.1 10 C 30.1 10.4 30 10.8 29.8 11.1 C 29.6 11.4 29.4 11.6 29 11.8 C 28.7 11.9 28.3 12 27.9 12 C 27.4 12 27.1 11.9 26.7 11.8 C 26.4 11.6 26.1 11.4 25.9 11.1 C 25.7 10.8 25.6 10.4 25.6 10 C 25.6 9.7 25.7 9.4 25.8 9.2 C 25.9 9 26 8.8 26.2 8.6 C 26.4 8.4 26.7 8.3 27 8.2 C 27.2 8.1 27.5 8 27.9 8 C 28.3 8 28.7 8.1 29 8.3 C 29.4 8.5 29.6 8.7 29.8 9 C 30 9.3 30.1 9.6 30.1 10 Z M 29.2 10 C 29.2 9.7 29.2 9.5 29.1 9.3 C 28.9 9.1 28.8 8.9 28.6 8.8 C 28.4 8.7 28.1 8.6 27.9 8.6 C 27.6 8.6 27.4 8.7 27.2 8.8 C 27 8.9 26.8 9.1 26.7 9.3 C 26.6 9.5 26.5 9.7 26.5 10 C 26.5 10.2 26.6 10.5 26.7 10.7 C 26.8 10.9 26.9 11 27.2 11.1 C 27.4 11.2 27.6 11.3 27.9 11.3 C 28.2 11.3 28.4 11.2 28.6 11.1 C 28.8 11 29 10.9 29.1 10.7 C 29.2 10.5 29.2 10.2 29.2 10 Z M 30 6.7 C 30 7 29.9 7.3 29.7 7.6 C 29.5 7.9 29.3 8.1 29 8.2 C 28.6 8.4 28.3 8.5 27.9 8.5 C 27.5 8.5 27.1 8.4 26.8 8.2 C 26.5 8.1 26.2 7.9 26 7.6 C 25.9 7.3 25.8 7 25.8 6.7 C 25.8 6.2 25.9 5.9 26 5.6 C 26.2 5.3 26.5 5.1 26.8 4.9 C 27.1 4.8 27.5 4.7 27.9 4.7 C 28.3 4.7 28.6 4.8 29 4.9 C 29.3 5.1 29.5 5.3 29.7 5.6 C 29.9 5.9 30 6.2 30 6.7 Z M 29.1 6.7 C 29.1 6.4 29 6.2 28.9 6 C 28.8 5.9 28.7 5.7 28.5 5.6 C 28.3 5.5 28.1 5.5 27.9 5.5 C 27.6 5.5 27.4 5.5 27.2 5.6 C 27.1 5.7 26.9 5.8 26.8 6 C 26.7 6.2 26.7 6.4 26.7 6.7 C 26.7 6.9 26.7 7.1 26.8 7.3 C 26.9 7.5 27.1 7.6 27.3 7.7 C 27.4 7.8 27.6 7.9 27.9 7.9 C 28.1 7.9 28.3 7.8 28.5 7.7 C 28.7 7.6 28.8 7.5 28.9 7.3 C 29 7.1 29.1 6.9 29.1 6.7 Z M 32.2 10.8 C 32.2 10.8 32.19 11.57 32.2 11.6 C 32.2 11.9 32.1 12.2 32 12.5 C 31.8 12.8 31.6 13.1 31.3 13.3 C 31.3 13.3 30.8 13 30.8 13 C 30.9 12.8 31 12.7 31.1 12.5 C 31.2 12.4 31.2 12.2 31.3 12.1 C 31.3 11.9 31.3 11.8 31.3 11.6 C 31.31 11.58 31.3 10.8 31.3 10.8 L 32.2 10.8 Z M 34.1 11.2 C 34.1 11.2 34.23 11.16 34.2 11.2 C 34.8 11.2 35.2 11.1 35.5 10.9 C 35.8 10.8 36.1 10.6 36.3 10.3 C 36.4 10.1 36.6 9.8 36.6 9.5 C 36.7 9.2 36.7 8.9 36.7 8.6 C 36.7 8.6 36.7 7.5 36.7 7.5 C 36.7 7.1 36.7 6.9 36.6 6.6 C 36.5 6.4 36.4 6.1 36.3 6 C 36.2 5.8 36 5.7 35.9 5.6 C 35.7 5.5 35.5 5.5 35.3 5.5 C 35.1 5.5 35 5.5 34.8 5.6 C 34.6 5.7 34.5 5.8 34.4 5.9 C 34.3 6.1 34.2 6.3 34.1 6.5 C 34.1 6.7 34 6.9 34 7.1 C 34 7.3 34.1 7.5 34.1 7.7 C 34.2 7.9 34.2 8.1 34.3 8.3 C 34.5 8.4 34.6 8.6 34.7 8.6 C 34.9 8.7 35.1 8.8 35.3 8.8 C 35.5 8.8 35.7 8.7 35.9 8.7 C 36.1 8.6 36.2 8.5 36.4 8.3 C 36.5 8.2 36.6 8 36.7 7.9 C 36.8 7.7 36.8 7.5 36.8 7.3 C 36.8 7.3 37.3 7.3 37.3 7.3 C 37.3 7.6 37.2 7.9 37.1 8.1 C 37 8.4 36.9 8.6 36.7 8.8 C 36.5 9 36.3 9.2 36 9.3 C 35.7 9.5 35.5 9.5 35.2 9.5 C 34.8 9.5 34.5 9.5 34.3 9.3 C 34 9.2 33.8 9 33.6 8.8 C 33.5 8.6 33.3 8.3 33.3 8 C 33.2 7.7 33.1 7.5 33.1 7.2 C 33.1 6.8 33.2 6.5 33.3 6.2 C 33.4 5.9 33.5 5.7 33.7 5.4 C 33.9 5.2 34.1 5 34.4 4.9 C 34.7 4.8 35 4.7 35.3 4.7 C 35.8 4.7 36.1 4.8 36.4 5 C 36.7 5.1 36.9 5.3 37.1 5.6 C 37.3 5.9 37.4 6.2 37.5 6.5 C 37.6 6.9 37.6 7.2 37.6 7.6 C 37.6 7.6 37.6 7.9 37.6 7.9 C 37.6 8.3 37.6 8.7 37.5 9 C 37.5 9.4 37.4 9.8 37.3 10.1 C 37.1 10.5 36.9 10.8 36.7 11 C 36.4 11.3 36.1 11.5 35.7 11.7 C 35.3 11.8 34.8 11.9 34.2 11.9 C 34.23 11.93 34.1 11.9 34.1 11.9 L 34.1 11.2 Z M 42.3 4.8 C 42.33 4.8 42.4 4.8 42.4 4.8 L 42.4 5.6 C 42.4 5.6 42.33 5.56 42.3 5.6 C 41.9 5.6 41.5 5.6 41.1 5.8 C 40.8 5.9 40.6 6.2 40.4 6.4 C 40.2 6.7 40 7 40 7.3 C 39.9 7.6 39.8 7.9 39.8 8.3 C 39.8 8.3 39.8 9.3 39.8 9.3 C 39.8 9.6 39.9 9.9 39.9 10.2 C 40 10.4 40.1 10.6 40.2 10.8 C 40.4 10.9 40.5 11.1 40.7 11.1 C 40.9 11.2 41 11.3 41.2 11.3 C 41.4 11.3 41.6 11.2 41.8 11.1 C 41.9 11.1 42.1 11 42.2 10.8 C 42.3 10.7 42.4 10.5 42.4 10.3 C 42.5 10.1 42.5 9.9 42.5 9.6 C 42.5 9.4 42.5 9.2 42.4 9 C 42.4 8.8 42.3 8.7 42.2 8.5 C 42.1 8.3 42 8.2 41.8 8.1 C 41.6 8 41.4 8 41.2 8 C 41 8 40.7 8.1 40.5 8.2 C 40.3 8.3 40.1 8.5 40 8.7 C 39.9 8.9 39.8 9.1 39.8 9.3 C 39.8 9.3 39.3 9.3 39.3 9.3 C 39.3 8.9 39.4 8.6 39.5 8.4 C 39.7 8.1 39.8 7.9 40 7.7 C 40.2 7.6 40.4 7.4 40.6 7.4 C 40.9 7.3 41.1 7.3 41.4 7.3 C 41.7 7.3 42 7.3 42.3 7.5 C 42.5 7.6 42.8 7.8 42.9 8 C 43.1 8.2 43.2 8.5 43.3 8.7 C 43.4 9 43.4 9.3 43.4 9.6 C 43.4 9.9 43.4 10.2 43.3 10.5 C 43.2 10.8 43 11.1 42.8 11.3 C 42.7 11.5 42.4 11.7 42.2 11.8 C 41.9 12 41.6 12 41.2 12 C 40.8 12 40.5 11.9 40.2 11.8 C 39.9 11.6 39.7 11.4 39.5 11.1 C 39.3 10.9 39.2 10.6 39.1 10.3 C 39 9.9 38.9 9.6 38.9 9.3 C 38.9 9.3 38.9 8.9 38.9 8.9 C 38.9 8.4 39 7.9 39.1 7.4 C 39.2 6.9 39.3 6.5 39.6 6.1 C 39.8 5.7 40.2 5.4 40.6 5.1 C 41.1 4.9 41.6 4.8 42.3 4.8 Z " stroke="none" fill="#000"/>  </g></svg>