<?xml version="1.0" standalone="no"?><!DOCTYPE svg PUBLIC "-//W3C//DTD SVG 1.1//EN" "http://www.w3.org/Graphics/SVG/1.1/DTD/svg11.dtd"><svg xmlns="http://www.w3.org/2000/svg" version="1.1" width="138.1px" height="55.4px" viewBox="0 -2 138.1 55.4" style="top:-2px">  <desc>r n Kodu: 15810 Dolu hacim: 1.000 ml 12 cm, H 17.5 cm</desc>  <defs/>  <g id="Polygon385741">    <path d="M 4.9 34.3 L 5.5 34.3 C 5.5 34.3 4.84 35.03 4.8 35 C 5.3 35.5 5.5 36.1 5.5 36.7 C 5.5 36.7 5.5 36.7 5.5 36.7 C 5.5 37.4 5.2 38 4.8 38.5 C 4.3 39 3.7 39.3 3 39.3 C 2.4 39.3 1.9 39.1 1.4 38.8 C 1.43 38.77 1 39.2 1 39.2 L 0.4 39.2 C 0.4 39.2 1.11 38.48 1.1 38.5 C 0.7 38 0.5 37.4 0.5 36.8 C 0.5 36.8 0.5 36.7 0.5 36.7 C 0.5 36.1 0.7 35.5 1.2 35 C 1.7 34.5 2.3 34.2 3 34.2 C 3.6 34.2 4.1 34.4 4.5 34.7 C 4.52 34.73 4.9 34.3 4.9 34.3 Z M 1 36.7 C 1 36.7 1 36.7 1 36.7 C 1 37.3 1.2 37.7 1.5 38.1 C 1.5 38.1 4.2 35.1 4.2 35.1 C 3.8 34.9 3.4 34.7 3 34.7 C 2.4 34.7 2 34.9 1.6 35.3 C 1.2 35.7 1 36.2 1 36.7 Z M 1.8 38.4 C 2.1 38.6 2.5 38.8 3 38.8 C 3.5 38.8 4 38.6 4.4 38.2 C 4.7 37.8 4.9 37.3 4.9 36.8 C 4.9 36.8 4.9 36.8 4.9 36.8 C 4.9 36.3 4.8 35.8 4.5 35.4 C 4.46 35.43 1.8 38.4 1.8 38.4 C 1.8 38.4 1.78 38.37 1.8 38.4 Z M 9.3 39.2 L 9.3 34.8 L 8.4 35.1 L 8.2 34.7 L 9.4 34.3 L 9.8 34.3 L 9.8 39.2 L 9.3 39.2 Z M 10.9 39.2 L 10.9 38.8 C 10.9 38.8 12.67 37.2 12.7 37.2 C 13.1 36.9 13.3 36.6 13.5 36.4 C 13.6 36.1 13.7 35.9 13.7 35.7 C 13.7 35.4 13.6 35.2 13.4 35 C 13.2 34.8 13 34.7 12.7 34.7 C 12.4 34.7 12.2 34.8 12 34.9 C 11.8 35.1 11.6 35.3 11.4 35.6 C 11.4 35.6 11 35.3 11 35.3 C 11.2 34.9 11.5 34.6 11.7 34.5 C 12 34.3 12.3 34.2 12.7 34.2 C 13.2 34.2 13.5 34.4 13.8 34.6 C 14.1 34.9 14.3 35.2 14.3 35.6 C 14.3 35.6 14.3 35.6 14.3 35.6 C 14.3 36 14.2 36.3 14 36.5 C 13.8 36.8 13.5 37.1 13 37.5 C 13.03 37.53 11.7 38.7 11.7 38.7 L 14.3 38.7 L 14.3 39.2 L 10.9 39.2 Z M 20.6 38.6 C 20.1 39.1 19.7 39.3 19.1 39.3 C 18.6 39.3 18.1 39.1 17.8 38.7 C 17.4 38.4 17.2 37.9 17.2 37.4 C 17.2 37.4 17.2 37.4 17.2 37.4 C 17.2 36.9 17.4 36.4 17.8 36.1 C 18.1 35.7 18.6 35.5 19.1 35.5 C 19.6 35.5 20.1 35.7 20.5 36.1 C 20.5 36.1 20.2 36.5 20.2 36.5 C 19.8 36.2 19.5 36 19.1 36 C 18.7 36 18.4 36.1 18.2 36.4 C 17.9 36.7 17.8 37 17.8 37.4 C 17.8 37.4 17.8 37.4 17.8 37.4 C 17.8 37.8 17.9 38.1 18.2 38.4 C 18.4 38.7 18.7 38.8 19.1 38.8 C 19.5 38.8 19.9 38.6 20.2 38.3 C 20.22 38.26 20.6 38.6 20.6 38.6 C 20.6 38.6 20.56 38.58 20.6 38.6 Z M 21.4 39.2 L 21.4 35.6 L 22 35.6 C 22 35.6 21.99 36.19 22 36.2 C 22.1 36 22.3 35.8 22.5 35.7 C 22.6 35.6 22.9 35.5 23.2 35.5 C 23.7 35.5 24.1 35.7 24.3 36.2 C 24.6 35.7 25.1 35.5 25.6 35.5 C 26 35.5 26.3 35.6 26.6 35.9 C 26.8 36.2 26.9 36.5 26.9 37 C 26.94 36.96 26.9 39.2 26.9 39.2 L 26.4 39.2 C 26.4 39.2 26.4 37.09 26.4 37.1 C 26.4 36.7 26.3 36.5 26.1 36.3 C 26 36.1 25.8 36 25.5 36 C 25.2 36 24.9 36.1 24.7 36.3 C 24.6 36.5 24.5 36.8 24.5 37.1 C 24.46 37.11 24.5 39.2 24.5 39.2 L 23.9 39.2 C 23.9 39.2 23.93 37.07 23.9 37.1 C 23.9 36.7 23.8 36.5 23.7 36.3 C 23.5 36.1 23.3 36 23 36 C 22.7 36 22.5 36.1 22.3 36.3 C 22.1 36.5 22 36.8 22 37.1 C 21.99 37.13 22 39.2 22 39.2 L 21.4 39.2 Z M 27.9 40.1 C 27.9 40.1 27.8 39.8 27.8 39.8 C 28.1 39.7 28.3 39.5 28.3 39.2 C 28.27 39.2 28 39.2 28 39.2 L 28 38.5 L 28.7 38.5 C 28.7 38.5 28.66 39.09 28.7 39.1 C 28.7 39.4 28.6 39.6 28.5 39.7 C 28.4 39.9 28.2 40 27.9 40.1 Z M 32 39.2 L 32 34.3 L 32.5 34.3 L 32.5 36.5 L 35.4 36.5 L 35.4 34.3 L 35.9 34.3 L 35.9 39.2 L 35.4 39.2 L 35.4 37 L 32.5 37 L 32.5 39.2 L 32 39.2 Z M 40 39.2 L 40 34.8 L 39 35.1 L 38.9 34.7 L 40.1 34.3 L 40.5 34.3 L 40.5 39.2 L 40 39.2 Z M 42.2 39.2 L 44.4 34.8 L 41.7 34.8 L 41.7 34.3 L 45 34.3 L 45 34.7 L 42.8 39.2 L 42.2 39.2 Z M 45.2 39.2 L 45.2 38.5 L 45.9 38.5 L 45.9 39.2 L 45.2 39.2 Z M 48.5 39.3 C 47.9 39.3 47.3 39 46.8 38.5 C 46.8 38.5 47.1 38.1 47.1 38.1 C 47.6 38.6 48.1 38.8 48.5 38.8 C 48.9 38.8 49.2 38.7 49.4 38.5 C 49.6 38.3 49.7 38 49.7 37.7 C 49.7 37.7 49.7 37.7 49.7 37.7 C 49.7 37.4 49.6 37.1 49.4 36.9 C 49.1 36.7 48.8 36.7 48.5 36.7 C 48.1 36.7 47.8 36.7 47.5 36.9 C 47.47 36.93 47.1 36.7 47.1 36.7 L 47.2 34.3 L 50.1 34.3 L 50.1 34.8 L 47.7 34.8 C 47.7 34.8 47.61 36.38 47.6 36.4 C 47.9 36.2 48.2 36.2 48.6 36.2 C 49.1 36.2 49.5 36.3 49.8 36.6 C 50.1 36.8 50.3 37.2 50.3 37.7 C 50.3 37.7 50.3 37.7 50.3 37.7 C 50.3 38.1 50.1 38.5 49.8 38.8 C 49.5 39.1 49 39.3 48.5 39.3 Z M 56.5 38.6 C 56.1 39.1 55.6 39.3 55 39.3 C 54.5 39.3 54.1 39.1 53.7 38.7 C 53.3 38.4 53.2 37.9 53.2 37.4 C 53.2 37.4 53.2 37.4 53.2 37.4 C 53.2 36.9 53.3 36.4 53.7 36.1 C 54.1 35.7 54.5 35.5 55 35.5 C 55.6 35.5 56.1 35.7 56.5 36.1 C 56.5 36.1 56.1 36.5 56.1 36.5 C 55.8 36.2 55.4 36 55 36 C 54.6 36 54.3 36.1 54.1 36.4 C 53.8 36.7 53.7 37 53.7 37.4 C 53.7 37.4 53.7 37.4 53.7 37.4 C 53.7 37.8 53.8 38.1 54.1 38.4 C 54.4 38.7 54.7 38.8 55 38.8 C 55.4 38.8 55.8 38.6 56.2 38.3 C 56.15 38.26 56.5 38.6 56.5 38.6 C 56.5 38.6 56.5 38.58 56.5 38.6 Z M 57.4 39.2 L 57.4 35.6 L 57.9 35.6 C 57.9 35.6 57.92 36.19 57.9 36.2 C 58.1 36 58.2 35.8 58.4 35.7 C 58.6 35.6 58.8 35.5 59.1 35.5 C 59.6 35.5 60 35.7 60.3 36.2 C 60.6 35.7 61 35.5 61.5 35.5 C 61.9 35.5 62.3 35.6 62.5 35.9 C 62.8 36.2 62.9 36.5 62.9 37 C 62.87 36.96 62.9 39.2 62.9 39.2 L 62.3 39.2 C 62.3 39.2 62.33 37.09 62.3 37.1 C 62.3 36.7 62.3 36.5 62.1 36.3 C 61.9 36.1 61.7 36 61.4 36 C 61.1 36 60.9 36.1 60.7 36.3 C 60.5 36.5 60.4 36.8 60.4 37.1 C 60.4 37.11 60.4 39.2 60.4 39.2 L 59.9 39.2 C 59.9 39.2 59.86 37.07 59.9 37.1 C 59.9 36.7 59.8 36.5 59.6 36.3 C 59.4 36.1 59.2 36 58.9 36 C 58.6 36 58.4 36.1 58.2 36.3 C 58 36.5 57.9 36.8 57.9 37.1 C 57.92 37.13 57.9 39.2 57.9 39.2 L 57.4 39.2 Z " stroke="none" fill="#000"/>  </g>  <g id="Polygon385740">    <path d="M 0.7 30.8 L 0.7 25.9 C 0.7 25.9 2.39 25.9 2.4 25.9 C 3.2 25.9 3.8 26.1 4.3 26.6 C 4.8 27.1 5 27.6 5 28.3 C 5 28.3 5 28.3 5 28.3 C 5 29 4.8 29.6 4.3 30.1 C 3.8 30.6 3.2 30.8 2.4 30.8 C 2.39 30.8 0.7 30.8 0.7 30.8 Z M 2.4 26.4 C 2.39 26.41 1.2 26.4 1.2 26.4 L 1.2 30.3 C 1.2 30.3 2.39 30.29 2.4 30.3 C 3 30.3 3.5 30.1 3.9 29.7 C 4.2 29.4 4.4 28.9 4.4 28.4 C 4.4 28.4 4.4 28.3 4.4 28.3 C 4.4 27.8 4.2 27.3 3.9 27 C 3.5 26.6 3 26.4 2.4 26.4 Z M 7.7 30.9 C 7.2 30.9 6.7 30.7 6.4 30.3 C 6 30 5.9 29.5 5.9 29 C 5.9 29 5.9 29 5.9 29 C 5.9 28.5 6 28 6.4 27.7 C 6.8 27.3 7.2 27.1 7.7 27.1 C 8.3 27.1 8.7 27.3 9.1 27.7 C 9.4 28 9.6 28.5 9.6 29 C 9.6 29 9.6 29 9.6 29 C 9.6 29.5 9.4 30 9.1 30.3 C 8.7 30.7 8.3 30.9 7.7 30.9 Z M 7.7 30.4 C 8.1 30.4 8.4 30.3 8.7 30 C 8.9 29.7 9.1 29.4 9.1 29 C 9.1 29 9.1 29 9.1 29 C 9.1 28.6 8.9 28.3 8.7 28 C 8.4 27.7 8.1 27.6 7.7 27.6 C 7.3 27.6 7 27.7 6.8 28 C 6.5 28.3 6.4 28.6 6.4 29 C 6.4 29 6.4 29 6.4 29 C 6.4 29.4 6.5 29.7 6.8 30 C 7 30.3 7.4 30.4 7.7 30.4 Z M 10.6 30.8 L 10.6 25.7 L 11.2 25.7 L 11.2 30.8 L 10.6 30.8 Z M 15 30.2 C 14.7 30.6 14.3 30.9 13.8 30.9 C 13.3 30.9 13 30.7 12.8 30.5 C 12.5 30.2 12.4 29.9 12.4 29.4 C 12.38 29.43 12.4 27.2 12.4 27.2 L 12.9 27.2 C 12.9 27.2 12.92 29.29 12.9 29.3 C 12.9 29.6 13 29.9 13.2 30.1 C 13.4 30.3 13.6 30.4 13.9 30.4 C 14.2 30.4 14.5 30.3 14.7 30.1 C 14.9 29.9 15 29.6 15 29.3 C 15.01 29.25 15 27.2 15 27.2 L 15.5 27.2 L 15.5 30.8 L 15 30.8 L 15 30.2 C 15 30.2 15.01 30.17 15 30.2 Z M 18.9 30.8 L 18.9 25.7 L 19.4 25.7 C 19.4 25.7 19.39 27.81 19.4 27.8 C 19.7 27.3 20.1 27.1 20.6 27.1 C 21.1 27.1 21.4 27.2 21.6 27.5 C 21.9 27.8 22 28.1 22 28.6 C 22.01 28.55 22 30.8 22 30.8 L 21.5 30.8 C 21.5 30.8 21.48 28.69 21.5 28.7 C 21.5 28.3 21.4 28.1 21.2 27.9 C 21 27.7 20.8 27.6 20.5 27.6 C 20.2 27.6 19.9 27.7 19.7 27.9 C 19.5 28.1 19.4 28.4 19.4 28.7 C 19.39 28.73 19.4 30.8 19.4 30.8 L 18.9 30.8 Z M 25.5 30.3 C 25.2 30.7 24.8 30.9 24.2 30.9 C 23.9 30.9 23.6 30.8 23.3 30.6 C 23 30.4 22.9 30.1 22.9 29.7 C 22.9 29.7 22.9 29.7 22.9 29.7 C 22.9 29.4 23 29.1 23.3 28.9 C 23.6 28.7 24 28.6 24.4 28.6 C 24.8 28.6 25.2 28.6 25.5 28.7 C 25.5 28.7 25.5 28.6 25.5 28.6 C 25.5 28.3 25.5 28 25.3 27.9 C 25.1 27.7 24.8 27.6 24.5 27.6 C 24.1 27.6 23.7 27.7 23.4 27.9 C 23.4 27.9 23.2 27.4 23.2 27.4 C 23.6 27.2 24.1 27.1 24.5 27.1 C 25 27.1 25.4 27.3 25.7 27.5 C 25.9 27.8 26.1 28.1 26.1 28.6 C 26.07 28.59 26.1 30.8 26.1 30.8 L 25.5 30.8 L 25.5 30.3 C 25.5 30.3 25.55 30.25 25.5 30.3 Z M 24.3 30.4 C 24.7 30.4 25 30.4 25.2 30.2 C 25.4 30 25.6 29.8 25.6 29.5 C 25.6 29.5 25.6 29.1 25.6 29.1 C 25.2 29 24.8 29 24.5 29 C 24.2 29 23.9 29 23.7 29.2 C 23.5 29.3 23.4 29.5 23.4 29.7 C 23.4 29.7 23.4 29.7 23.4 29.7 C 23.4 29.9 23.5 30.1 23.7 30.3 C 23.9 30.4 24.1 30.4 24.3 30.4 Z M 30.3 30.2 C 29.9 30.7 29.4 30.9 28.8 30.9 C 28.3 30.9 27.9 30.7 27.5 30.3 C 27.2 30 27 29.5 27 29 C 27 29 27 29 27 29 C 27 28.5 27.2 28 27.5 27.7 C 27.9 27.3 28.3 27.1 28.8 27.1 C 29.4 27.1 29.9 27.3 30.3 27.7 C 30.3 27.7 29.9 28.1 29.9 28.1 C 29.6 27.8 29.2 27.6 28.8 27.6 C 28.5 27.6 28.2 27.7 27.9 28 C 27.7 28.3 27.5 28.6 27.5 29 C 27.5 29 27.5 29 27.5 29 C 27.5 29.4 27.7 29.7 27.9 30 C 28.2 30.3 28.5 30.4 28.9 30.4 C 29.3 30.4 29.6 30.2 30 29.9 C 29.98 29.86 30.3 30.2 30.3 30.2 C 30.3 30.2 30.32 30.18 30.3 30.2 Z M 31.2 26.4 L 31.2 25.8 L 31.8 25.8 L 31.8 26.4 L 31.2 26.4 Z M 31.3 30.8 L 31.3 27.2 L 31.8 27.2 L 31.8 30.8 L 31.3 30.8 Z M 33.1 30.8 L 33.1 27.2 L 33.6 27.2 C 33.6 27.2 33.59 27.79 33.6 27.8 C 33.7 27.6 33.9 27.4 34.1 27.3 C 34.3 27.2 34.5 27.1 34.8 27.1 C 35.3 27.1 35.7 27.3 35.9 27.8 C 36.2 27.3 36.7 27.1 37.2 27.1 C 37.6 27.1 37.9 27.2 38.2 27.5 C 38.4 27.8 38.5 28.1 38.5 28.6 C 38.54 28.56 38.5 30.8 38.5 30.8 L 38 30.8 C 38 30.8 38 28.69 38 28.7 C 38 28.3 37.9 28.1 37.8 27.9 C 37.6 27.7 37.4 27.6 37.1 27.6 C 36.8 27.6 36.5 27.7 36.4 27.9 C 36.2 28.1 36.1 28.4 36.1 28.7 C 36.06 28.71 36.1 30.8 36.1 30.8 L 35.5 30.8 C 35.5 30.8 35.53 28.67 35.5 28.7 C 35.5 28.3 35.4 28.1 35.3 27.9 C 35.1 27.7 34.9 27.6 34.6 27.6 C 34.3 27.6 34.1 27.7 33.9 27.9 C 33.7 28.1 33.6 28.4 33.6 28.7 C 33.59 28.73 33.6 30.8 33.6 30.8 L 33.1 30.8 Z M 39.7 27.9 L 39.7 27.2 L 40.3 27.2 L 40.3 27.9 L 39.7 27.9 Z M 39.7 30.8 L 39.7 30.1 L 40.3 30.1 L 40.3 30.8 L 39.7 30.8 Z M 44.2 30.8 L 44.2 26.4 L 43.3 26.7 L 43.2 26.3 L 44.4 25.9 L 44.8 25.9 L 44.8 30.8 L 44.2 30.8 Z M 46 30.8 L 46 30.1 L 46.6 30.1 L 46.6 30.8 L 46 30.8 Z M 51.6 28.3 C 51.6 29.1 51.4 29.7 51 30.1 C 50.7 30.6 50.2 30.9 49.5 30.9 C 48.9 30.9 48.4 30.6 48 30.2 C 47.7 29.7 47.5 29.1 47.5 28.4 C 47.5 28.4 47.5 28.3 47.5 28.3 C 47.5 27.6 47.7 27 48.1 26.6 C 48.4 26.1 48.9 25.8 49.6 25.8 C 50.2 25.8 50.7 26.1 51 26.5 C 51.4 27 51.6 27.6 51.6 28.3 C 51.61 28.34 51.6 28.3 51.6 28.3 C 51.6 28.3 51.61 28.35 51.6 28.3 Z M 48 28.3 C 48 28.9 48.2 29.4 48.5 29.8 C 48.7 30.2 49.1 30.4 49.6 30.4 C 50 30.4 50.4 30.2 50.6 29.8 C 50.9 29.4 51 28.9 51 28.4 C 51 28.4 51 28.3 51 28.3 C 51 27.8 50.9 27.3 50.6 26.9 C 50.3 26.5 50 26.3 49.5 26.3 C 49.1 26.3 48.7 26.5 48.5 26.9 C 48.2 27.3 48 27.8 48 28.3 C 48.05 28.34 48 28.3 48 28.3 C 48 28.3 48.05 28.35 48 28.3 Z M 56.6 28.3 C 56.6 29.1 56.4 29.7 56 30.1 C 55.7 30.6 55.2 30.9 54.5 30.9 C 53.9 30.9 53.4 30.6 53 30.2 C 52.7 29.7 52.5 29.1 52.5 28.4 C 52.5 28.4 52.5 28.3 52.5 28.3 C 52.5 27.6 52.7 27 53.1 26.6 C 53.4 26.1 53.9 25.8 54.6 25.8 C 55.2 25.8 55.7 26.1 56 26.5 C 56.4 27 56.6 27.6 56.6 28.3 C 56.62 28.34 56.6 28.3 56.6 28.3 C 56.6 28.3 56.62 28.35 56.6 28.3 Z M 53.1 28.3 C 53.1 28.9 53.2 29.4 53.5 29.8 C 53.7 30.2 54.1 30.4 54.6 30.4 C 55 30.4 55.4 30.2 55.6 29.8 C 55.9 29.4 56 28.9 56 28.4 C 56 28.4 56 28.3 56 28.3 C 56 27.8 55.9 27.3 55.6 26.9 C 55.3 26.5 55 26.3 54.5 26.3 C 54.1 26.3 53.7 26.5 53.5 26.9 C 53.2 27.3 53.1 27.8 53.1 28.3 C 53.05 28.34 53.1 28.3 53.1 28.3 C 53.1 28.3 53.05 28.35 53.1 28.3 Z M 61.6 28.3 C 61.6 29.1 61.4 29.7 61 30.1 C 60.7 30.6 60.2 30.9 59.5 30.9 C 58.9 30.9 58.4 30.6 58.1 30.2 C 57.7 29.7 57.5 29.1 57.5 28.4 C 57.5 28.4 57.5 28.3 57.5 28.3 C 57.5 27.6 57.7 27 58.1 26.6 C 58.4 26.1 58.9 25.8 59.6 25.8 C 60.2 25.8 60.7 26.1 61.1 26.5 C 61.4 27 61.6 27.6 61.6 28.3 C 61.62 28.34 61.6 28.3 61.6 28.3 C 61.6 28.3 61.62 28.35 61.6 28.3 Z M 58.1 28.3 C 58.1 28.9 58.2 29.4 58.5 29.8 C 58.8 30.2 59.1 30.4 59.6 30.4 C 60 30.4 60.4 30.2 60.6 29.8 C 60.9 29.4 61 28.9 61 28.4 C 61 28.4 61 28.3 61 28.3 C 61 27.8 60.9 27.3 60.6 26.9 C 60.4 26.5 60 26.3 59.5 26.3 C 59.1 26.3 58.7 26.5 58.5 26.9 C 58.2 27.3 58.1 27.8 58.1 28.3 C 58.06 28.34 58.1 28.3 58.1 28.3 C 58.1 28.3 58.06 28.35 58.1 28.3 Z M 64.8 30.8 L 64.8 27.2 L 65.3 27.2 C 65.3 27.2 65.3 27.79 65.3 27.8 C 65.4 27.6 65.6 27.4 65.8 27.3 C 66 27.2 66.2 27.1 66.5 27.1 C 67 27.1 67.4 27.3 67.6 27.8 C 67.9 27.3 68.4 27.1 68.9 27.1 C 69.3 27.1 69.6 27.2 69.9 27.5 C 70.1 27.8 70.2 28.1 70.2 28.6 C 70.24 28.56 70.2 30.8 70.2 30.8 L 69.7 30.8 C 69.7 30.8 69.71 28.69 69.7 28.7 C 69.7 28.3 69.6 28.1 69.5 27.9 C 69.3 27.7 69.1 27.6 68.8 27.6 C 68.5 27.6 68.3 27.7 68.1 27.9 C 67.9 28.1 67.8 28.4 67.8 28.7 C 67.77 28.71 67.8 30.8 67.8 30.8 L 67.2 30.8 C 67.2 30.8 67.23 28.67 67.2 28.7 C 67.2 28.3 67.2 28.1 67 27.9 C 66.8 27.7 66.6 27.6 66.3 27.6 C 66 27.6 65.8 27.7 65.6 27.9 C 65.4 28.1 65.3 28.4 65.3 28.7 C 65.3 28.73 65.3 30.8 65.3 30.8 L 64.8 30.8 Z M 71.4 30.8 L 71.4 25.7 L 72 25.7 L 72 30.8 L 71.4 30.8 Z " stroke="none" fill="#000"/>  </g>  <g id="Polygon385739">    <path d="M 3 17.1 L 3 16.4 L 3.6 16.4 L 3.6 17.1 L 3 17.1 Z M 1.7 17.1 L 1.7 16.4 L 2.3 16.4 L 2.3 17.1 L 1.7 17.1 Z M 2.7 22.5 C 2 22.5 1.5 22.3 1.2 21.9 C 0.8 21.5 0.6 21 0.6 20.3 C 0.62 20.35 0.6 17.5 0.6 17.5 L 1.2 17.5 C 1.2 17.5 1.17 20.31 1.2 20.3 C 1.2 20.8 1.3 21.2 1.6 21.5 C 1.8 21.8 2.2 22 2.7 22 C 3.1 22 3.5 21.8 3.8 21.6 C 4 21.3 4.1 20.9 4.1 20.3 C 4.14 20.35 4.1 17.5 4.1 17.5 L 4.7 17.5 C 4.7 17.5 4.7 20.31 4.7 20.3 C 4.7 21 4.5 21.5 4.1 21.9 C 3.8 22.3 3.3 22.5 2.7 22.5 Z M 5.9 22.4 L 5.9 18.8 L 6.5 18.8 C 6.5 18.8 6.45 19.73 6.5 19.7 C 6.6 19.4 6.8 19.2 7 19 C 7.3 18.8 7.6 18.7 7.9 18.7 C 7.93 18.72 7.9 19.3 7.9 19.3 C 7.9 19.3 7.89 19.3 7.9 19.3 C 7.5 19.3 7.1 19.4 6.9 19.7 C 6.6 20 6.5 20.4 6.5 21 C 6.45 20.96 6.5 22.4 6.5 22.4 L 5.9 22.4 Z M 10.6 18.2 L 10.6 17.6 L 11.2 17.6 L 11.2 18.2 L 10.6 18.2 Z M 9.3 18.2 L 9.3 17.6 L 10 17.6 L 10 18.2 L 9.3 18.2 Z M 11.3 21.8 C 11 22.2 10.6 22.5 10.1 22.5 C 9.7 22.5 9.3 22.3 9.1 22.1 C 8.8 21.8 8.7 21.5 8.7 21 C 8.69 21.03 8.7 18.8 8.7 18.8 L 9.2 18.8 C 9.2 18.8 9.23 20.89 9.2 20.9 C 9.2 21.2 9.3 21.5 9.5 21.7 C 9.7 21.9 9.9 22 10.2 22 C 10.5 22 10.8 21.9 11 21.7 C 11.2 21.5 11.3 21.2 11.3 20.9 C 11.32 20.85 11.3 18.8 11.3 18.8 L 11.9 18.8 L 11.9 22.4 L 11.3 22.4 L 11.3 21.8 C 11.3 21.8 11.32 21.77 11.3 21.8 Z M 13.1 22.4 L 13.1 18.8 L 13.6 18.8 C 13.6 18.8 13.6 19.41 13.6 19.4 C 13.9 18.9 14.3 18.7 14.8 18.7 C 15.3 18.7 15.6 18.8 15.9 19.1 C 16.1 19.4 16.2 19.7 16.2 20.2 C 16.23 20.15 16.2 22.4 16.2 22.4 L 15.7 22.4 C 15.7 22.4 15.69 20.29 15.7 20.3 C 15.7 19.9 15.6 19.7 15.4 19.5 C 15.2 19.3 15 19.2 14.7 19.2 C 14.4 19.2 14.1 19.3 13.9 19.5 C 13.7 19.7 13.6 20 13.6 20.3 C 13.6 20.33 13.6 22.4 13.6 22.4 L 13.1 22.4 Z M 19.6 22.4 L 19.6 17.5 L 20.1 17.5 L 20.1 20.4 L 22.9 17.5 L 23.7 17.5 L 21.5 19.6 L 23.7 22.4 L 23 22.4 L 21.2 20 L 20.1 21.1 L 20.1 22.4 L 19.6 22.4 Z M 25.9 22.5 C 25.4 22.5 25 22.3 24.6 21.9 C 24.3 21.6 24.1 21.1 24.1 20.6 C 24.1 20.6 24.1 20.6 24.1 20.6 C 24.1 20.1 24.3 19.6 24.6 19.3 C 25 18.9 25.4 18.7 26 18.7 C 26.5 18.7 26.9 18.9 27.3 19.3 C 27.7 19.6 27.8 20.1 27.8 20.6 C 27.8 20.6 27.8 20.6 27.8 20.6 C 27.8 21.1 27.7 21.6 27.3 21.9 C 26.9 22.3 26.5 22.5 25.9 22.5 Z M 26 22 C 26.3 22 26.7 21.9 26.9 21.6 C 27.2 21.3 27.3 21 27.3 20.6 C 27.3 20.6 27.3 20.6 27.3 20.6 C 27.3 20.2 27.2 19.9 26.9 19.6 C 26.6 19.3 26.3 19.2 25.9 19.2 C 25.6 19.2 25.2 19.3 25 19.6 C 24.8 19.9 24.6 20.2 24.6 20.6 C 24.6 20.6 24.6 20.6 24.6 20.6 C 24.6 21 24.8 21.3 25 21.6 C 25.3 21.9 25.6 22 26 22 Z M 31.7 21.7 C 31.4 22.2 30.9 22.5 30.3 22.5 C 29.9 22.5 29.5 22.3 29.1 22 C 28.8 21.6 28.6 21.2 28.6 20.6 C 28.6 20.6 28.6 20.6 28.6 20.6 C 28.6 20 28.8 19.6 29.1 19.2 C 29.5 18.9 29.9 18.7 30.3 18.7 C 30.9 18.7 31.4 19 31.7 19.5 C 31.72 19.47 31.7 17.3 31.7 17.3 L 32.3 17.3 L 32.3 22.4 L 31.7 22.4 L 31.7 21.7 C 31.7 21.7 31.72 21.67 31.7 21.7 Z M 30.4 22 C 30.8 22 31.1 21.9 31.4 21.6 C 31.6 21.3 31.7 21 31.7 20.6 C 31.7 20.6 31.7 20.6 31.7 20.6 C 31.7 20.2 31.6 19.8 31.4 19.6 C 31.1 19.3 30.8 19.2 30.4 19.2 C 30.1 19.2 29.8 19.3 29.5 19.6 C 29.3 19.8 29.2 20.2 29.2 20.6 C 29.2 20.6 29.2 20.6 29.2 20.6 C 29.2 21 29.3 21.4 29.5 21.6 C 29.8 21.9 30.1 22 30.4 22 Z M 36 21.8 C 35.7 22.2 35.3 22.5 34.8 22.5 C 34.4 22.5 34 22.3 33.8 22.1 C 33.5 21.8 33.4 21.5 33.4 21 C 33.41 21.03 33.4 18.8 33.4 18.8 L 33.9 18.8 C 33.9 18.8 33.95 20.89 33.9 20.9 C 33.9 21.2 34 21.5 34.2 21.7 C 34.4 21.9 34.6 22 35 22 C 35.3 22 35.5 21.9 35.7 21.7 C 35.9 21.5 36 21.2 36 20.9 C 36.04 20.85 36 18.8 36 18.8 L 36.6 18.8 L 36.6 22.4 L 36 22.4 L 36 21.8 C 36 21.8 36.04 21.77 36 21.8 Z M 37.7 19.5 L 37.7 18.8 L 38.4 18.8 L 38.4 19.5 L 37.7 19.5 Z M 37.7 22.4 L 37.7 21.7 L 38.4 21.7 L 38.4 22.4 L 37.7 22.4 Z M 42.3 22.4 L 42.3 18.6 L 41.4 18.8 L 41.2 17.9 L 42.6 17.5 L 43.4 17.5 L 43.4 22.4 L 42.3 22.4 Z M 46.1 22.5 C 45.4 22.5 44.8 22.2 44.3 21.7 C 44.3 21.7 45 21 45 21 C 45.4 21.3 45.7 21.5 46.1 21.5 C 46.4 21.5 46.6 21.4 46.7 21.3 C 46.9 21.2 46.9 21 46.9 20.8 C 46.9 20.8 46.9 20.8 46.9 20.8 C 46.9 20.6 46.9 20.4 46.7 20.3 C 46.6 20.2 46.3 20.1 46.1 20.1 C 45.8 20.1 45.5 20.2 45.3 20.3 C 45.26 20.33 44.6 19.9 44.6 19.9 L 44.8 17.5 L 47.8 17.5 L 47.8 18.4 L 45.7 18.4 C 45.7 18.4 45.65 19.29 45.6 19.3 C 45.9 19.2 46.1 19.2 46.3 19.2 C 46.8 19.2 47.2 19.3 47.5 19.6 C 47.8 19.9 48 20.3 48 20.8 C 48 20.8 48 20.8 48 20.8 C 48 21.3 47.8 21.7 47.5 22 C 47.2 22.3 46.7 22.5 46.1 22.5 Z M 50.6 22.5 C 50.1 22.5 49.6 22.3 49.3 22.1 C 48.9 21.8 48.7 21.5 48.7 21.1 C 48.7 21.1 48.7 21 48.7 21 C 48.7 20.8 48.8 20.5 48.9 20.3 C 49.1 20.1 49.3 20 49.5 19.9 C 49.1 19.6 48.9 19.3 48.9 18.8 C 48.9 18.8 48.9 18.8 48.9 18.8 C 48.9 18.4 49.1 18.1 49.4 17.8 C 49.7 17.6 50.1 17.4 50.6 17.4 C 51.1 17.4 51.5 17.6 51.9 17.8 C 52.2 18.1 52.3 18.4 52.3 18.8 C 52.3 18.8 52.3 18.8 52.3 18.8 C 52.3 19.3 52.1 19.6 51.7 19.9 C 52 20 52.2 20.2 52.3 20.3 C 52.4 20.5 52.5 20.7 52.5 21 C 52.5 21 52.5 21 52.5 21 C 52.5 21.5 52.3 21.8 52 22.1 C 51.6 22.3 51.2 22.5 50.6 22.5 Z M 49.9 18.9 C 49.9 19.1 50 19.2 50.1 19.3 C 50.2 19.4 50.4 19.5 50.6 19.5 C 50.8 19.5 51 19.4 51.1 19.3 C 51.3 19.2 51.3 19.1 51.3 18.9 C 51.3 18.9 51.3 18.9 51.3 18.9 C 51.3 18.7 51.3 18.6 51.1 18.5 C 51 18.4 50.8 18.3 50.6 18.3 C 50.4 18.3 50.2 18.4 50.1 18.5 C 50 18.6 49.9 18.7 49.9 18.9 C 49.92 18.89 49.9 18.9 49.9 18.9 C 49.9 18.9 49.92 18.9 49.9 18.9 Z M 50.6 21.6 C 50.9 21.6 51.1 21.5 51.2 21.4 C 51.4 21.3 51.5 21.1 51.5 21 C 51.5 21 51.5 21 51.5 21 C 51.5 20.8 51.4 20.6 51.2 20.5 C 51.1 20.4 50.9 20.4 50.6 20.4 C 50.4 20.4 50.2 20.4 50 20.5 C 49.9 20.6 49.8 20.8 49.8 21 C 49.8 21 49.8 21 49.8 21 C 49.8 21.1 49.9 21.3 50 21.4 C 50.2 21.5 50.4 21.6 50.6 21.6 Z M 54.1 22.4 L 54.1 18.6 L 53.2 18.8 L 53 17.9 L 54.4 17.5 L 55.1 17.5 L 55.1 22.4 L 54.1 22.4 Z M 58.3 22.5 C 57.7 22.5 57.2 22.2 56.8 21.8 C 56.4 21.3 56.2 20.7 56.2 20 C 56.2 20 56.2 19.9 56.2 19.9 C 56.2 19.2 56.4 18.6 56.8 18.1 C 57.2 17.7 57.7 17.4 58.3 17.4 C 59 17.4 59.5 17.7 59.9 18.1 C 60.3 18.6 60.5 19.2 60.5 19.9 C 60.5 19.9 60.5 19.9 60.5 19.9 C 60.5 20.7 60.3 21.3 59.9 21.8 C 59.5 22.2 59 22.5 58.3 22.5 Z M 57.3 19.9 C 57.3 20.4 57.4 20.8 57.6 21.1 C 57.8 21.4 58 21.5 58.3 21.5 C 58.7 21.5 58.9 21.4 59.1 21.1 C 59.3 20.8 59.4 20.4 59.4 20 C 59.4 20 59.4 19.9 59.4 19.9 C 59.4 19.5 59.3 19.1 59.1 18.8 C 58.9 18.5 58.6 18.4 58.3 18.4 C 58 18.4 57.8 18.5 57.6 18.8 C 57.4 19.1 57.3 19.5 57.3 19.9 C 57.27 19.94 57.3 19.9 57.3 19.9 C 57.3 19.9 57.27 19.95 57.3 19.9 Z " stroke="none" fill="#000"/>  </g></svg>