<?xml version="1.0" standalone="no"?><!DOCTYPE svg PUBLIC "-//W3C//DTD SVG 1.1//EN" "http://www.w3.org/Graphics/SVG/1.1/DTD/svg11.dtd"><svg xmlns="http://www.w3.org/2000/svg" version="1.1" width="52.5px" height="20.5px" viewBox="0 -1 52.5 20.5" style="top:-1px">  <desc>₺1.295,24</desc>  <defs/>  <g id="Polygon382304">    <path d="M 2.3 4.8 L 2.3 11.9 L 1.4 11.9 L 1.4 4.8 L 2.3 4.8 Z M 4.2 8.2 L 5.1 8.2 C 5.1 8.2 5.13 8.58 5.1 8.6 C 5.1 9.1 5.1 9.6 4.9 10 C 4.8 10.4 4.6 10.8 4.4 11.1 C 4.1 11.4 3.8 11.6 3.4 11.8 C 3.1 11.9 2.7 12 2.3 12 C 2.1 12 2 12 1.8 12 C 1.7 12 1.5 11.9 1.4 11.9 C 1.4 11.9 2.3 11.2 2.3 11.2 C 2.6 11.2 2.9 11.2 3.1 11 C 3.3 10.9 3.5 10.8 3.7 10.5 C 3.9 10.3 4 10 4.1 9.7 C 4.2 9.4 4.2 9 4.2 8.6 C 4.2 8.58 4.2 8.2 4.2 8.2 Z M 3.5 5.5 L 3.5 6.4 L 0.2 7.9 L 0.2 7 L 3.5 5.5 Z M 3.5 7.1 L 3.5 8 L 0.2 9.5 L 0.2 8.6 L 3.5 7.1 Z M 9.1 4.8 L 9.1 11.9 L 8.2 11.9 L 8.2 5.9 L 6.4 6.6 L 6.4 5.7 L 9 4.8 L 9.1 4.8 Z M 11.9 11.4 C 11.9 11.3 11.9 11.2 12 11 C 12.1 10.9 12.3 10.9 12.5 10.9 C 12.6 10.9 12.8 10.9 12.9 11 C 13 11.2 13 11.3 13 11.4 C 13 11.6 13 11.7 12.9 11.8 C 12.8 11.9 12.6 12 12.5 12 C 12.3 12 12.1 11.9 12 11.8 C 11.9 11.7 11.9 11.6 11.9 11.4 Z M 19.1 11.2 L 19.1 11.9 L 14.4 11.9 L 14.4 11.3 C 14.4 11.3 16.75 8.67 16.7 8.7 C 17 8.4 17.3 8.1 17.4 7.9 C 17.6 7.6 17.7 7.4 17.7 7.3 C 17.8 7.1 17.8 6.9 17.8 6.7 C 17.8 6.5 17.8 6.3 17.7 6.1 C 17.6 5.9 17.5 5.7 17.3 5.6 C 17.1 5.5 16.9 5.5 16.6 5.5 C 16.3 5.5 16 5.5 15.8 5.6 C 15.6 5.8 15.4 5.9 15.3 6.1 C 15.2 6.4 15.2 6.6 15.2 6.9 C 15.2 6.9 14.3 6.9 14.3 6.9 C 14.3 6.5 14.4 6.1 14.5 5.8 C 14.7 5.5 15 5.2 15.3 5 C 15.7 4.8 16.1 4.7 16.6 4.7 C 17.1 4.7 17.4 4.8 17.8 4.9 C 18.1 5.1 18.3 5.3 18.5 5.6 C 18.7 5.9 18.7 6.2 18.7 6.6 C 18.7 6.8 18.7 7 18.6 7.2 C 18.6 7.5 18.5 7.7 18.4 7.9 C 18.2 8.1 18.1 8.3 17.9 8.5 C 17.8 8.7 17.6 8.9 17.4 9.1 C 17.41 9.11 15.5 11.2 15.5 11.2 L 19.1 11.2 Z M 20.9 11.2 C 20.9 11.2 21.03 11.16 21 11.2 C 21.5 11.2 22 11.1 22.3 10.9 C 22.6 10.8 22.9 10.6 23 10.3 C 23.2 10.1 23.3 9.8 23.4 9.5 C 23.5 9.2 23.5 8.9 23.5 8.6 C 23.5 8.6 23.5 7.5 23.5 7.5 C 23.5 7.1 23.5 6.9 23.4 6.6 C 23.3 6.4 23.2 6.1 23.1 6 C 23 5.8 22.8 5.7 22.7 5.6 C 22.5 5.5 22.3 5.5 22.1 5.5 C 21.9 5.5 21.7 5.5 21.6 5.6 C 21.4 5.7 21.3 5.8 21.2 5.9 C 21.1 6.1 21 6.3 20.9 6.5 C 20.8 6.7 20.8 6.9 20.8 7.1 C 20.8 7.3 20.8 7.5 20.9 7.7 C 21 7.9 21 8.1 21.1 8.3 C 21.2 8.4 21.4 8.6 21.5 8.6 C 21.7 8.7 21.9 8.8 22.1 8.8 C 22.3 8.8 22.5 8.7 22.7 8.7 C 22.9 8.6 23 8.5 23.2 8.3 C 23.3 8.2 23.4 8 23.5 7.9 C 23.6 7.7 23.6 7.5 23.6 7.3 C 23.6 7.3 24.1 7.3 24.1 7.3 C 24.1 7.6 24 7.9 23.9 8.1 C 23.8 8.4 23.6 8.6 23.5 8.8 C 23.3 9 23 9.2 22.8 9.3 C 22.5 9.5 22.3 9.5 22 9.5 C 21.6 9.5 21.3 9.5 21 9.3 C 20.8 9.2 20.6 9 20.4 8.8 C 20.3 8.6 20.1 8.3 20.1 8 C 20 7.7 19.9 7.5 19.9 7.2 C 19.9 6.8 20 6.5 20.1 6.2 C 20.2 5.9 20.3 5.7 20.5 5.4 C 20.7 5.2 20.9 5 21.2 4.9 C 21.5 4.8 21.8 4.7 22.1 4.7 C 22.5 4.7 22.9 4.8 23.2 5 C 23.5 5.1 23.7 5.3 23.9 5.6 C 24.1 5.9 24.2 6.2 24.3 6.5 C 24.4 6.9 24.4 7.2 24.4 7.6 C 24.4 7.6 24.4 7.9 24.4 7.9 C 24.4 8.3 24.4 8.7 24.3 9 C 24.3 9.4 24.2 9.8 24.1 10.1 C 23.9 10.5 23.7 10.8 23.5 11 C 23.2 11.3 22.9 11.5 22.5 11.7 C 22.1 11.8 21.6 11.9 21 11.9 C 21.03 11.93 20.9 11.9 20.9 11.9 L 20.9 11.2 Z M 26.8 8.5 C 26.8 8.53 26.1 8.3 26.1 8.3 L 26.4 4.8 L 30.1 4.8 L 30.1 5.6 L 27.2 5.6 C 27.2 5.6 26.98 7.57 27 7.6 C 27.1 7.5 27.3 7.4 27.5 7.4 C 27.7 7.3 27.9 7.3 28.2 7.3 C 28.5 7.3 28.8 7.3 29.1 7.4 C 29.3 7.5 29.5 7.7 29.7 7.9 C 29.9 8.1 30 8.4 30.1 8.7 C 30.2 9 30.3 9.3 30.3 9.6 C 30.3 10 30.2 10.3 30.1 10.6 C 30.1 10.9 29.9 11.1 29.7 11.3 C 29.5 11.6 29.3 11.7 29 11.8 C 28.7 12 28.4 12 28 12 C 27.8 12 27.5 12 27.2 11.9 C 27 11.8 26.7 11.7 26.5 11.5 C 26.3 11.4 26.2 11.2 26.1 10.9 C 25.9 10.7 25.8 10.4 25.8 10 C 25.8 10 26.7 10 26.7 10 C 26.7 10.3 26.8 10.5 26.9 10.7 C 27 10.9 27.2 11 27.4 11.1 C 27.6 11.2 27.8 11.3 28 11.3 C 28.3 11.3 28.4 11.2 28.6 11.2 C 28.8 11.1 28.9 11 29 10.8 C 29.1 10.7 29.2 10.5 29.3 10.3 C 29.3 10.1 29.4 9.9 29.4 9.7 C 29.4 9.4 29.3 9.2 29.3 9 C 29.2 8.8 29.1 8.7 29 8.5 C 28.9 8.4 28.7 8.3 28.6 8.2 C 28.4 8.1 28.2 8.1 28 8.1 C 27.7 8.1 27.4 8.1 27.3 8.2 C 27.1 8.3 27 8.4 26.8 8.5 Z M 32.2 10.8 C 32.2 10.8 32.19 11.57 32.2 11.6 C 32.2 11.9 32.1 12.2 32 12.5 C 31.8 12.8 31.6 13.1 31.3 13.3 C 31.3 13.3 30.8 13 30.8 13 C 30.9 12.8 31 12.7 31.1 12.5 C 31.2 12.4 31.2 12.2 31.3 12.1 C 31.3 11.9 31.3 11.8 31.3 11.6 C 31.31 11.58 31.3 10.8 31.3 10.8 L 32.2 10.8 Z M 37.9 11.2 L 37.9 11.9 L 33.2 11.9 L 33.2 11.3 C 33.2 11.3 35.58 8.67 35.6 8.7 C 35.9 8.4 36.1 8.1 36.2 7.9 C 36.4 7.6 36.5 7.4 36.6 7.3 C 36.6 7.1 36.7 6.9 36.7 6.7 C 36.7 6.5 36.6 6.3 36.5 6.1 C 36.4 5.9 36.3 5.7 36.1 5.6 C 35.9 5.5 35.7 5.5 35.4 5.5 C 35.1 5.5 34.9 5.5 34.6 5.6 C 34.4 5.8 34.3 5.9 34.2 6.1 C 34.1 6.4 34 6.6 34 6.9 C 34 6.9 33.1 6.9 33.1 6.9 C 33.1 6.5 33.2 6.1 33.4 5.8 C 33.5 5.5 33.8 5.2 34.2 5 C 34.5 4.8 34.9 4.7 35.4 4.7 C 35.9 4.7 36.3 4.8 36.6 4.9 C 36.9 5.1 37.1 5.3 37.3 5.6 C 37.5 5.9 37.6 6.2 37.6 6.6 C 37.6 6.8 37.5 7 37.5 7.2 C 37.4 7.5 37.3 7.7 37.2 7.9 C 37.1 8.1 36.9 8.3 36.8 8.5 C 36.6 8.7 36.4 8.9 36.2 9.1 C 36.24 9.11 34.3 11.2 34.3 11.2 L 37.9 11.2 Z M 43.7 9.5 L 43.7 10.3 L 38.5 10.3 L 38.5 9.7 L 41.7 4.8 L 42.5 4.8 L 41.7 6.2 L 39.6 9.5 L 43.7 9.5 Z M 42.7 4.8 L 42.7 11.9 L 41.8 11.9 L 41.8 4.8 L 42.7 4.8 Z " stroke="none" fill="#000"/>  </g></svg>