<?xml version="1.0" standalone="no"?><!DOCTYPE svg PUBLIC "-//W3C//DTD SVG 1.1//EN" "http://www.w3.org/Graphics/SVG/1.1/DTD/svg11.dtd"><svg xmlns="http://www.w3.org/2000/svg" version="1.1" width="180.5px" height="60.4px" viewBox="0 -3 180.5 60.4" style="top:-3px"><desc>r n Kodu: 28133 dolu hacim: 1,5 l uyumluluk: PREMIO s zge 23 cm l ler: 23 cm, L 26,5 cm, W 23 cm, H 9,5 cm</desc><defs/><g id="Polygon387912"><path d="m2.6 47.1c0 .3-.1.5-.3.7c-.2.2-.4.3-.6.3c-.3 0-.5-.1-.7-.3c-.2-.2-.2-.4-.2-.7c0-.2 0-.4.2-.6c.2-.2.4-.3.7-.3c.2 0 .4.1.6.3c.2.2.3.4.3.6c-.01.03 0 0 0 0c0 0-.01.04 0 0zm8.5-1.7v-.6h.6v.6h-.6zm-1.3 0v-.6h.7v.6h-.7zm1 4.3c-.6 0-1-.2-1.4-.6c-.3-.3-.5-.8-.5-1.3c0-.5.2-1 .5-1.3c.4-.4.8-.6 1.4-.6c.5 0 1 .2 1.3.6c.4.3.6.8.6 1.3c0 .5-.2 1-.6 1.3c-.3.4-.8.6-1.3.6zm0-.5c.4 0 .7-.1.9-.4c.3-.3.4-.6.4-1c0-.4-.1-.7-.4-1c-.2-.3-.6-.4-.9-.4c-.4 0-.7.1-1 .4c-.2.3-.4.6-.4 1c0 .4.2.7.4 1c.3.3.6.4 1 .4zm2.9.4v-5.1h.5v5.1h-.5zm3 1.1l-.5-.3l.6-.8c-.5 0-.8-.2-1.1-.6c-.3-.3-.5-.7-.5-1.2c0-.5.2-1 .6-1.3c.3-.4.8-.6 1.3-.6c.6 0 1 .2 1.4.6l-.3.4c-.4-.3-.7-.5-1.1-.5c-.4 0-.7.1-.9.4c-.3.3-.4.6-.4 1c0 .4.1.7.4 1c.2.3.5.4.9.4c.4 0 .8-.2 1.1-.5l.4.3c-.4.4-.9.7-1.4.7l-.5 1zm4.6-5.3v-.6h.6v.6h-.6zm-1.3 0v-.6h.7v.6h-.7zm2 3.6c-.3.4-.7.7-1.2.7c-.5 0-.8-.2-1-.4c-.3-.3-.4-.6-.4-1.1c-.02.03 0-2.2 0-2.2h.5s.02 2.09 0 2.1c0 .3.1.6.3.8c.2.2.4.3.7.3c.3 0 .6-.1.8-.3c.2-.2.3-.5.3-.8V46h.5v3.6h-.5v-.6s.01-.03 0 0zm1.8.6v-5.1h.5v5.1h-.5zm4.9-.6c-.4.5-.9.7-1.5.7c-.5 0-1-.2-1.3-.5c-.4-.4-.5-.8-.5-1.4c0-.5.1-1 .5-1.4c.3-.3.7-.5 1.2-.5c.5 0 .9.2 1.2.5c.3.4.5.9.5 1.4v.2h-2.9c0 .4.2.7.4.9c.3.2.6.3.9.3c.4 0 .8-.2 1.1-.5c.03 0 .4.3.4.3c0 0-.04 0 0 0zm-2.8-1.4h2.3c0-.4-.1-.7-.3-.9c-.2-.2-.5-.3-.8-.3c-.3 0-.6.1-.8.3c-.2.2-.4.5-.4.9zm3.8 2V46h.6s-.03.93 0 .9c.1-.3.3-.5.6-.7c.2-.2.5-.3.9-.3c-.05.02 0 .6 0 .6h-.1c-.4 0-.7.1-1 .4c-.3.3-.4.7-.4 1.3c-.03-.04 0 1.4 0 1.4h-.6zm2.8-2.9v-.7h.7v.7h-.7zm0 2.9v-.7h.7v.7h-.7zm8.3-4.9h.6l-.7.7c.4.5.6 1.1.6 1.7c0 .7-.2 1.3-.7 1.8c-.5.5-1.1.8-1.8.8c-.6 0-1.1-.2-1.5-.5c-.03-.03-.5.4-.5.4h-.5s.65-.72.7-.7c-.5-.5-.7-1.1-.7-1.7v-.1c0-.6.3-1.2.7-1.7c.5-.5 1.1-.8 1.8-.8c.6 0 1.1.2 1.6.5l.4-.4zm-3.9 2.4c0 .6.1 1 .4 1.4l2.7-3c-.3-.2-.7-.4-1.2-.4c-.5 0-1 .2-1.4.6c-.3.4-.5.9-.5 1.4zm.7 1.7c.4.2.8.4 1.2.4c.6 0 1-.2 1.4-.6c.4-.4.6-.9.6-1.4c0-.5-.2-1-.5-1.4c0 .03-2.7 3-2.7 3c0 0 .02-.03 0 0zm6.6.8v-.4l1.8-1.6c.4-.3.7-.6.8-.8c.2-.3.2-.5.2-.7c0-.3-.1-.5-.3-.7c-.1-.2-.4-.3-.7-.3c-.2 0-.5.1-.7.2c-.2.2-.4.4-.6.7l-.4-.3c.3-.4.5-.7.8-.8c.2-.2.6-.3 1-.3c.4 0 .8.2 1.1.4c.3.3.4.6.4 1c0 .4-.1.7-.3.9c-.1.3-.5.6-.9 1l-1.3 1.2h2.6v.5h-3.5zm6.1.1c-.8 0-1.4-.3-1.8-.9l.2-.2c.5.5 1 .8 1.6.8c.3 0 .6-.1.8-.3c.3-.3.4-.5.4-.8c0-.4-.2-.6-.4-.8c-.3-.2-.7-.3-1.1-.3h-.3l-.1-.2l1.7-2h-2.6v-.3h3.1v.3l-1.7 1.9c.5 0 .9.1 1.3.4c.3.2.5.5.5.9v.1c0 .4-.2.7-.5 1c-.3.3-.7.4-1.1.4zm7.8-.7c-.4.4-.9.7-1.4.7c-.5 0-1-.2-1.3-.6c-.4-.3-.5-.8-.5-1.3c0-.5.1-.9.5-1.3c.3-.4.8-.6 1.3-.6c.5 0 1 .3 1.4.7l-.2.3c-.4-.4-.8-.6-1.2-.6c-.4 0-.8.1-1 .4c-.3.3-.5.7-.5 1.1c0 .4.2.8.5 1.1c.3.3.6.5 1 .5c.4 0 .8-.2 1.2-.6c0-.03.2.2.2.2c0 0 .04-.02 0 0zm1 .6V46h.3s.05.67 0 .7c.3-.5.7-.8 1.2-.8c.6 0 1 .3 1.2.8c.3-.5.8-.8 1.3-.8c.5 0 .8.2 1 .5c.3.2.4.6.4 1v2.2h-.3s-.04-2.12 0-2.1c0-.4-.1-.7-.3-.9c-.2-.2-.5-.3-.8-.3c-.3 0-.6.1-.8.3c-.2.2-.3.5-.3.9c-.02.02 0 2.1 0 2.1h-.4s.03-2.14 0-2.1c0-.4-.1-.7-.2-.9c-.2-.2-.5-.3-.8-.3c-.3 0-.6.1-.8.3c-.2.3-.4.6-.4.9c.05.04 0 2.1 0 2.1h-.3zm6.4.7v-.1l.3-.3c0-.1.1-.2 0-.3h-.1v-.6h.4s.02.52 0 .5c0 .2 0 .4-.1.5c-.1.2-.3.3-.5.3zm4-.7v-4.9h.4v4.6h2.9v.3h-3.3zm6 0v-.3s1.85-1.63 1.9-1.6c.4-.4.6-.7.8-.9c.2-.3.2-.5.2-.8c0-.3-.1-.6-.3-.8c-.2-.2-.5-.2-.8-.2c-.3 0-.5 0-.7.2c-.3.1-.5.3-.7.7l-.3-.2c.3-.4.5-.6.8-.8c.2-.2.6-.3 1-.3c.4 0 .7.2 1 .4c.3.3.4.6.4 1c0 .3-.1.6-.2.9c-.2.2-.5.6-1 1l-1.5 1.3h2.8v.4h-3.4zm6.1.1c-.5 0-.9-.2-1.2-.5c-.2-.2-.4-.5-.5-.8c-.1-.2-.1-.6-.1-1.1c0-.8.2-1.4.5-1.9c.4-.5.9-.8 1.5-.8c.5 0 .9.2 1.4.6l-.3.3c-.3-.4-.8-.6-1.2-.6c-.4 0-.8.3-1.1.7c-.3.5-.5 1-.5 1.7v.2c.4-.6.9-.9 1.6-.9c.4 0 .8.1 1.2.4c.3.3.5.6.5 1.1c0 .4-.2.8-.5 1.1c-.4.3-.8.5-1.3.5zm.1-.3c.3 0 .7-.2.9-.4c.3-.3.4-.6.4-.9c0-.4-.1-.6-.4-.9c-.2-.2-.6-.3-1-.3c-.3 0-.7.1-.9.4c-.3.2-.4.5-.4.8c0 .4.1.7.4.9c.2.2.6.4 1 .4zm2.6.9l-.1-.1l.3-.3c.1-.1.1-.2.1-.3h-.2v-.6h.5s-.05.52 0 .5c0 .2-.1.4-.2.5c-.1.2-.2.3-.4.3zm3.2-.6c-.3 0-.6-.1-.9-.2c-.3-.2-.5-.4-.8-.6l.3-.3c.5.5 1 .8 1.5.8c.3 0 .7-.2.9-.4c.2-.2.4-.5.4-.9c0-.3-.2-.6-.4-.8c-.3-.2-.6-.4-1-.4c-.3 0-.7.1-1.1.4c.02-.05-.3-.2-.3-.2l.2-2.4h2.7v.3h-2.4s-.12 1.88-.1 1.9c.3-.2.7-.3 1.1-.3c.4 0 .8.2 1.2.4c.3.3.4.7.4 1.1c0 .5-.1.8-.4 1.1c-.4.3-.8.5-1.3.5zm7.9-.7c-.4.4-.9.7-1.4.7c-.5 0-1-.2-1.3-.6c-.4-.3-.5-.8-.5-1.3c0-.5.1-.9.5-1.3c.3-.4.8-.6 1.3-.6c.5 0 1 .3 1.4.7l-.2.3c-.4-.4-.8-.6-1.2-.6c-.4 0-.8.1-1 .4c-.3.3-.5.7-.5 1.1c0 .4.2.8.5 1.1c.3.3.6.5 1 .5c.5 0 .9-.2 1.2-.6c0-.03.2.2.2.2c0 0 .04-.02 0 0zm1 .6V46h.4s-.05.67 0 .7c.2-.5.6-.8 1.1-.8c.6 0 1 .3 1.2.8c.3-.5.8-.8 1.3-.8c.5 0 .8.2 1 .5c.3.2.4.6.4 1c.01.04 0 2.2 0 2.2h-.3s-.04-2.12 0-2.1c0-.4-.1-.7-.3-.9c-.2-.2-.5-.3-.8-.3c-.3 0-.6.1-.8.3c-.2.2-.3.5-.3.9c-.02.02 0 2.1 0 2.1h-.4s.04-2.14 0-2.1c0-.4-.1-.7-.2-.9c-.2-.2-.5-.3-.8-.3c-.3 0-.6.1-.8.3c-.2.3-.3.6-.3.9c-.05.04 0 2.1 0 2.1h-.4zm6.4.7v-.1l.3-.3c0-.1.1-.2 0-.3h-.1v-.6h.4s.02.52 0 .5c0 .2 0 .4-.1.5c-.1.2-.2.3-.5.3zm5.4-.7l-1.8-4.9h.5l1.5 4.4l1.4-4.4h.3l1.4 4.4l1.6-4.4h.4l-1.8 4.9h-.3l-1.4-4.2l-1.5 4.2h-.3zm8 0v-.3s1.87-1.63 1.9-1.6c.4-.4.7-.7.8-.9c.2-.3.3-.5.3-.8c0-.3-.2-.6-.4-.8c-.2-.2-.4-.2-.7-.2c-.3 0-.6 0-.8.2c-.2.1-.5.3-.7.7l-.3-.2c.3-.4.5-.6.8-.8c.3-.2.6-.3 1-.3c.4 0 .7.2 1 .4c.3.3.4.6.4 1c0 .3 0 .6-.2.9c-.2.2-.5.6-1 1l-1.5 1.3h2.8v.4h-3.4zm6 .1c-.7 0-1.3-.3-1.8-.9l.3-.2c.4.5.9.8 1.5.8c.4 0 .6-.1.9-.3c.2-.3.3-.5.3-.8c0-.4-.1-.6-.4-.8c-.3-.2-.6-.3-1.1-.3h-.3v-.2l1.6-2h-2.5v-.3h3v.3s-1.62 1.86-1.6 1.9c.5 0 .9.1 1.2.4c.3.2.5.5.5.9v.1c0 .4-.1.7-.5 1c-.3.3-.6.4-1.1.4zm7.9-.7c-.4.4-.9.7-1.5.7c-.5 0-.9-.2-1.3-.6c-.3-.3-.5-.8-.5-1.3c0-.5.2-.9.5-1.3c.4-.4.8-.6 1.3-.6c.6 0 1.1.3 1.5.7l-.3.3c-.4-.4-.8-.6-1.2-.6c-.4 0-.7.1-1 .4c-.3.3-.4.7-.4 1.1c0 .4.1.8.4 1.1c.3.3.7.5 1.1.5c.4 0 .8-.2 1.2-.6c-.05-.03.2.2.2.2c0 0-.01-.02 0 0zm1 .6V46h.3v.7c.3-.5.7-.8 1.2-.8c.5 0 .9.3 1.2.8c.3-.5.7-.8 1.3-.8c.4 0 .7.2 1 .5c.2.2.4.6.4 1c-.04.04 0 2.2 0 2.2h-.4v-2.1c0-.4-.1-.7-.3-.9c-.2-.2-.4-.3-.7-.3c-.4 0-.6.1-.8.3c-.3.2-.4.5-.4.9c.03.02 0 2.1 0 2.1h-.3v-2.1c0-.4-.1-.7-.3-.9c-.2-.2-.4-.3-.8-.3c-.3 0-.6.1-.8.3c-.2.3-.3.6-.3.9v2.1h-.3zm6.4.7l-.1-.1c.2-.1.3-.2.3-.3c.1-.1.1-.2.1-.3h-.2v-.6h.5s-.03.52 0 .5c0 .2-.1.4-.2.5c0 .2-.2.3-.4.3zm4-.7v-4.9h.3v2.3h3.2v-2.3h.3v4.9h-.3v-2.3h-3.2v2.3h-.3zm7.5-.8c.4.4.8.6 1.2.6c.5 0 .9-.3 1.2-.7c.3-.5.4-1 .4-1.7v-.2c-.3.7-.8 1-1.5 1c-.5 0-.9-.2-1.2-.5c-.3-.2-.5-.6-.5-1c0-.5.2-.9.5-1.2c.3-.3.7-.5 1.2-.5c.5 0 1 .2 1.3.5c.4.4.6 1.1.6 1.9c0 .8-.2 1.4-.6 1.9c-.3.5-.8.8-1.4.8c-.5 0-1-.2-1.5-.6l.3-.3s-.03-.01 0 0zm1.3-1.3c.4 0 .8-.2 1-.4c.3-.3.4-.6.4-.9c0-.4-.1-.7-.4-.9c-.3-.2-.6-.4-1-.4c-.4 0-.7.2-.9.4c-.3.3-.4.6-.4.9v.1c0 .3.1.6.4.8c.2.2.5.4.9.4zm2.7 2.8v-.1l.3-.3c0-.1.1-.2.1-.3h-.2v-.6h.4s.03.52 0 .5c0 .2 0 .4-.1.5c-.1.2-.2.3-.5.3zm3.3-.6c-.3 0-.6-.1-.9-.2c-.3-.2-.6-.4-.8-.6l.3-.3c.4.5.9.8 1.4.8c.4 0 .7-.2 1-.4c.2-.2.3-.5.3-.9c0-.3-.1-.6-.3-.8c-.3-.2-.6-.4-1-.4c-.4 0-.7.1-1.1.4c-.01-.05-.3-.2-.3-.2l.2-2.4h2.7v.3h-2.4s-.14 1.88-.1 1.9c.3-.2.7-.3 1-.3c.5 0 .9.2 1.2.4c.4.3.5.7.5 1.1c0 .5-.1.8-.5 1.1c-.3.3-.7.5-1.2.5zm7.9-.7c-.4.4-.9.7-1.4.7c-.5 0-1-.2-1.3-.6c-.4-.3-.6-.8-.6-1.3c0-.5.2-.9.6-1.3c.3-.4.8-.6 1.3-.6c.5 0 1 .3 1.4.7l-.3.3c-.3-.4-.7-.6-1.1-.6c-.5 0-.8.1-1.1.4c-.2.3-.4.7-.4 1.1c0 .4.2.8.4 1.1c.3.3.7.5 1.1.5c.4 0 .8-.2 1.2-.6l.2.2s.02-.02 0 0zm1 .6V46h.3s.03.67 0 .7c.3-.5.7-.8 1.2-.8c.6 0 1 .3 1.2.8c.3-.5.7-.8 1.3-.8c.4 0 .8.2 1 .5c.3.2.4.6.4 1c-.02.04 0 2.2 0 2.2h-.4s.04-2.12 0-2.1c0-.4-.1-.7-.2-.9c-.2-.2-.5-.3-.8-.3c-.3 0-.6.1-.8.3c-.2.2-.3.5-.3.9c-.05.02 0 2.1 0 2.1h-.4v-2.1c0-.4-.1-.7-.3-.9c-.2-.2-.4-.3-.7-.3c-.4 0-.6.1-.8.3c-.3.3-.4.6-.4.9c.03.04 0 2.1 0 2.1h-.3z" stroke="none" fill="#000"/></g><g id="Polygon387911"><path d="m2.6 36.1c0 .3-.1.5-.3.7c-.2.2-.4.3-.6.3c-.3 0-.5-.1-.7-.3c-.2-.2-.2-.4-.2-.7c0-.2 0-.4.2-.6c.2-.2.4-.3.7-.3c.2 0 .4.1.6.3c.2.2.3.4.3.6c-.01.03 0 0 0 0c0 0-.01.04 0 0zm9.1 1.9c-.3.4-.7.7-1.3.7c-.4 0-.7-.2-1-.4c-.2-.3-.4-.6-.4-1.1c.05.03 0-2.2 0-2.2h.6v2.1c0 .3.1.6.3.8c.1.2.4.3.7.3c.3 0 .6-.1.8-.3c.2-.2.3-.5.3-.8c-.03-.05 0-2.1 0-2.1h.5v3.6h-.5v-.6s-.03-.03 0 0zm3.3 0l1.1-3h.6s-1.52 3.72-1.5 3.7c-.2.4-.3.7-.5.8c-.2.2-.4.2-.7.2c-.3 0-.5 0-.8-.1l.2-.5c.2.1.4.2.6.2c.1 0 .3-.1.4-.2c.1-.1.2-.3.3-.5L13.1 35h.5l1.4 3zm5.1 0c-.3.4-.7.7-1.2.7c-.4 0-.8-.2-1-.4c-.3-.3-.4-.6-.4-1.1V35h.5s.04 2.09 0 2.1c0 .3.1.6.3.8c.2.2.4.3.7.3c.4 0 .6-.1.8-.3c.2-.2.3-.5.3-.8c.02-.05 0-2.1 0-2.1h.6v3.6h-.6v-.6s.02-.03 0 0zm1.8.6V35h.5v.6c.2-.2.3-.4.5-.5c.2-.1.4-.2.7-.2c.5 0 .9.2 1.1.7c.4-.5.8-.7 1.3-.7c.4 0 .8.1 1 .4c.2.3.4.6.4 1.1c-.05-.04 0 2.2 0 2.2h-.6s.02-2.11 0-2.1c0-.4-.1-.6-.2-.8c-.2-.2-.4-.3-.7-.3c-.3 0-.5.1-.7.3c-.2.2-.3.5-.3.8c-.02.01 0 2.1 0 2.1h-.6s.04-2.13 0-2.1c0-.4 0-.6-.2-.8c-.2-.2-.4-.3-.7-.3c-.3 0-.5.1-.7.3c-.2.2-.3.5-.3.8v2.1h-.5zm6.7 0v-5.1h.5v5.1h-.5zm4.3-.6c-.3.4-.7.7-1.2.7c-.5 0-.8-.2-1-.4c-.3-.3-.4-.6-.4-1.1c-.01.03 0-2.2 0-2.2h.5s.03 2.09 0 2.1c0 .3.1.6.3.8c.2.2.4.3.7.3c.3 0 .6-.1.8-.3c.2-.2.3-.5.3-.8V35h.5v3.6h-.5v-.6s.01-.03 0 0zm1.8.6v-5.1h.5v5.1h-.5zm4.4-.6c-.3.4-.7.7-1.3.7c-.4 0-.7-.2-1-.4c-.2-.3-.4-.6-.4-1.1c.04.03 0-2.2 0-2.2h.6s-.02 2.09 0 2.1c0 .3.1.6.2.8c.2.2.5.3.8.3c.3 0 .6-.1.8-.3c.2-.2.3-.5.3-.8c-.03-.05 0-2.1 0-2.1h.5v3.6h-.5v-.6s-.03-.03 0 0zm1.7.6v-5.1h.5v3.5l2-2h.7l-1.5 1.5l1.5 2.1h-.6l-1.3-1.7l-.8.8v.9h-.5zm4-2.9v-.7h.6v.7h-.6zm0 2.9v-.7h.6v.7h-.6zm4 0v-4.9h1.8c.5 0 1 .1 1.3.4c.4.3.5.7.5 1.2c0 .5-.2.9-.5 1.2c-.4.2-.8.4-1.4.4c0-.03-1.2 0-1.2 0v1.7h-.5zm.5-2.2s1.22-.03 1.2 0c.4 0 .8-.1 1-.3c.2-.2.4-.5.4-.8c0-.4-.1-.6-.4-.8c-.2-.2-.5-.3-.9-.3h-1.3v2.2zm4.1 2.2v-4.9h2.1c.6 0 1.1.2 1.4.5c.3.2.4.6.4 1c0 .4-.1.7-.3.9c-.3.3-.6.4-1 .5c-.02 0 1.5 2 1.5 2h-.7l-1.4-1.9H54v1.9h-.6zm.6-2.4h1.5c.4 0 .7-.1.9-.3c.2-.2.4-.4.4-.7c0-.3-.2-.6-.4-.7c-.2-.2-.5-.3-.9-.3H54v2zm4.5 2.4v-4.9h3.5v.5h-2.9v1.7h2.6v.5h-2.6v1.7h3v.5h-3.6zm4.7 0v-4.9h.5l1.8 2.7l1.8-2.7h.6v4.9h-.6v-4l-1.8 2.7l-1.8-2.7v4h-.5zm6.1 0v-4.9h.6v4.9h-.6zm6.8-2.5c0 .7-.3 1.3-.7 1.8c-.5.5-1.1.8-1.8.8c-.8 0-1.4-.3-1.8-.8c-.5-.4-.7-1-.7-1.7v-.1c0-.6.2-1.2.7-1.7c.5-.5 1.1-.8 1.8-.8c.7 0 1.3.3 1.8.8c.4.4.7 1 .7 1.7c-.02.04 0 0 0 0c0 0-.02.05 0 0zm-4.4 0c0 .6.1 1.1.5 1.5c.4.4.8.6 1.4.6c.5 0 1-.2 1.4-.6c.3-.4.5-.9.5-1.4v-.1c0-.5-.2-1-.5-1.4c-.4-.4-.9-.6-1.4-.6c-.6 0-1 .2-1.4.6c-.4.4-.5.9-.5 1.4c-.04.04 0 0 0 0c0 0-.04.05 0 0zm8.8 2.6c-.6 0-1.1-.2-1.5-.6l.2-.3c.4.3.8.4 1.3.4c.2 0 .4 0 .5-.1c.2-.1.2-.3.2-.5c0-.1 0-.3-.2-.4c-.2 0-.4-.1-.7-.2c-.1 0-.2-.1-.3-.1c0 0-.1-.1-.2-.1c-.1 0-.2-.1-.3-.1c0-.1-.1-.1-.2-.2c0-.1-.1-.1-.1-.2c-.1-.1-.1-.2-.1-.3c0-.4.1-.6.4-.8c.2-.2.5-.3.9-.3c.4 0 .9.2 1.3.4l-.3.4c-.3-.2-.7-.3-1-.3c-.3 0-.4 0-.6.1c-.1.1-.1.2-.1.4v.2l.1.1c.1.1.2.1.3.2h.2c.1.1.2.1.3.1c.1.1.2.1.3.1c.1.1.2.1.3.2c.1 0 .2.1.3.2c.1 0 .1.1.2.2v.4c0 .3-.1.6-.3.8c-.3.2-.6.3-.9.3zm4.1-4.3v-.6h.6v.6h-.6zm-1.3 0v-.6h.7v.6h-.7zm2 3.6c-.3.4-.7.7-1.2.7c-.5 0-.8-.2-1-.4c-.3-.3-.4-.6-.4-1.1c-.01.03 0-2.2 0-2.2h.5s.03 2.09 0 2.1c0 .3.1.6.3.8c.2.2.4.3.7.3c.3 0 .6-.1.8-.3c.2-.2.3-.5.3-.8V35h.5v3.6h-.5v-.6s.01-.03 0 0zm1.5.6v-.3l2.4-2.9h-2.3v-.4h3.1v.3l-2.4 2.8h2.4v.5h-3.2zm7 .7c-.3.3-.8.4-1.4.4c-.6 0-1.1-.1-1.6-.5l.2-.4c.5.3.9.5 1.4.5c.5 0 .8-.1 1-.4c.2-.2.4-.5.4-.9v-.4c-.4.5-.9.7-1.5.7c-.4 0-.8-.1-1.2-.5c-.3-.3-.5-.7-.5-1.2c0-.5.2-.9.5-1.2c.4-.3.8-.5 1.2-.5c.6 0 1.1.2 1.4.7c.05.03 0-.6 0-.6h.6v3c0 .5-.2.9-.5 1.3zm-1.4-1.5c.4 0 .7-.1 1-.3c.2-.2.4-.5.4-.9c0-.4-.2-.6-.4-.9c-.3-.2-.6-.3-1-.3c-.3 0-.6.1-.9.3c-.2.2-.3.5-.3.9c0 .4.1.7.4.9c.2.2.5.3.8.3zm6.2.2c-.4.5-.9.7-1.5.7c-.5 0-1-.2-1.3-.5c-.4-.4-.5-.8-.5-1.4c0-.5.1-1 .5-1.4c.3-.3.7-.5 1.2-.5c.5 0 .9.2 1.2.5c.3.4.5.9.5 1.4v.2h-2.9c.1.4.2.7.4.9c.3.2.6.3.9.3c.4 0 .8-.2 1.1-.5c.03 0 .4.3.4.3c0 0-.04 0 0 0zm-2.8-1.4h2.3c0-.4-.1-.7-.3-.9c-.2-.2-.5-.3-.8-.3c-.3 0-.6.1-.8.3c-.2.2-.3.5-.4.9zm5.1 3.1l-.5-.3s.53-.75.5-.8c-.4 0-.8-.2-1.1-.6c-.2-.3-.4-.7-.4-1.2c0-.5.2-1 .5-1.3c.4-.4.8-.6 1.4-.6c.5 0 1 .2 1.4.6l-.3.4c-.4-.3-.8-.5-1.1-.5c-.4 0-.7.1-1 .4c-.2.3-.3.6-.3 1c0 .4.1.7.3 1c.3.3.6.4 1 .4c.4 0 .8-.2 1.1-.5l.3.3c-.3.4-.8.7-1.3.7c-.03-.02-.5 1-.5 1zm9.2-6h.6l-.7.7c.4.5.6 1.1.6 1.7c0 .7-.2 1.3-.7 1.8c-.5.5-1.1.8-1.8.8c-.6 0-1.1-.2-1.5-.5c-.04-.03-.5.4-.5.4h-.5s.64-.72.6-.7c-.4-.5-.6-1.1-.6-1.7v-.1c0-.6.2-1.2.7-1.7c.5-.5 1.1-.8 1.8-.8c.6 0 1.1.2 1.5.5c.05.03.5-.4.5-.4zm-3.9 2.4c0 .6.1 1 .4 1.4l2.7-3c-.4-.2-.8-.4-1.2-.4c-.6 0-1 .2-1.4.6c-.3.4-.5.9-.5 1.4zm.7 1.7c.3.2.7.4 1.2.4c.6 0 1-.2 1.4-.6c.4-.4.5-.9.5-1.4c0-.5-.1-1-.4-1.4c-.01.03-2.7 3-2.7 3c0 0 .01-.03 0 0zm6.6.8v-.4l1.8-1.6c.4-.3.6-.6.8-.8c.1-.3.2-.5.2-.7c0-.3-.1-.5-.3-.7c-.2-.2-.4-.3-.7-.3c-.2 0-.5.1-.7.2c-.2.2-.4.4-.6.7l-.4-.3c.3-.4.5-.7.8-.8c.2-.2.6-.3 1-.3c.4 0 .8.2 1.1.4c.2.3.4.6.4 1c0 .4-.1.7-.3.9c-.2.3-.5.6-.9 1l-1.4 1.2h2.6v.5h-3.4zm6.1.1c-.8 0-1.4-.3-1.9-.9l.4-.3c.4.4.9.7 1.5.7c.3 0 .5-.1.7-.3c.2-.2.3-.4.3-.7c0-.3-.1-.5-.3-.7c-.3-.1-.6-.2-1-.2c-.04-.03-.4 0-.4 0l-.1-.4l1.6-1.7H118v-.5h3.1v.4s-1.53 1.71-1.5 1.7c.4.1.8.2 1.1.4c.3.2.5.6.5 1c0 .4-.2.8-.5 1.1c-.3.2-.7.4-1.1.4zm7.9-.7c-.4.5-.9.7-1.5.7c-.5 0-1-.2-1.3-.6c-.4-.3-.6-.8-.6-1.3c0-.5.2-1 .6-1.3c.3-.4.8-.6 1.3-.6c.6 0 1 .2 1.4.6l-.3.4c-.4-.3-.7-.5-1.1-.5c-.4 0-.7.1-.9.4c-.3.3-.4.6-.4 1c0 .4.1.7.4 1c.2.3.5.4.9.4c.4 0 .8-.2 1.1-.5c.03-.04.4.3.4.3c0 0-.03-.02 0 0zm.9.6V35h.5v.6c.1-.2.3-.4.5-.5c.2-.1.4-.2.7-.2c.5 0 .9.2 1.1.7c.4-.5.8-.7 1.3-.7c.4 0 .8.1 1 .4c.2.3.4.6.4 1.1c-.05-.04 0 2.2 0 2.2h-.6v-2.1c0-.4-.1-.6-.2-.8c-.2-.2-.4-.3-.7-.3c-.3 0-.5.1-.7.3c-.2.2-.3.5-.3.8c-.03.01 0 2.1 0 2.1h-.6s.04-2.13 0-2.1c0-.4 0-.6-.2-.8c-.2-.2-.4-.3-.7-.3c-.3 0-.5.1-.7.3c-.2.2-.3.5-.3.8v2.1h-.5z" stroke="none" fill="#000"/></g><g id="Polygon387910"><path d="m2.5 25.1c0 .3-.1.5-.2.7c-.2.1-.4.2-.7.2c-.2 0-.4-.1-.6-.2c-.1-.2-.2-.4-.2-.7c0-.2.1-.4.2-.6c.2-.1.4-.2.6-.2c.3 0 .5.1.7.2c.1.2.2.4.2.6c.01.03 0 0 0 0c0 0 .01.04 0 0zm9.6 1.7c-.4.6-.9.9-1.4.9c-.5 0-.9-.2-1.3-.5c-.3-.4-.5-.8-.5-1.4c0-.5.2-1 .5-1.3c.4-.4.8-.6 1.3-.6c.6 0 1 .3 1.4.9c.03 0 0-2.3 0-2.3h.4v5.1h-.4v-.8s.03 0 0 0zm-2.8-1c0 .5.1.8.4 1.1c.3.3.6.5 1 .5c.4 0 .7-.2 1-.5c.3-.3.5-.6.5-1.1c0-.4-.2-.8-.5-1.1c-.3-.3-.6-.4-1-.4c-.4 0-.7.1-1 .4c-.3.3-.4.6-.4 1.1c-.01 0 0 0 0 0c0 0-.01.01 0 0zm7.9 0c0 .5-.2 1-.5 1.3c-.4.4-.8.6-1.3.6c-.6 0-1-.2-1.3-.6c-.4-.3-.6-.8-.6-1.3c0-.5.2-.9.6-1.3c.3-.4.7-.6 1.3-.6c.5 0 .9.2 1.3.6c.3.4.5.8.5 1.3c0 0 0 .01 0 0zm-1.8 1.6c.4 0 .7-.2 1-.5c.3-.3.4-.6.4-1.1c0-.4-.1-.8-.4-1.1c-.3-.3-.6-.4-1-.4c-.5 0-.8.1-1.1.4c-.3.3-.4.7-.4 1.1c0 .4.1.8.4 1.1c.3.3.7.5 1.1.5zm2.9.2v-5.1h.3v5.1h-.3zm4.3-.7c-.2.5-.7.8-1.2.8c-.5 0-.8-.2-1.1-.4c-.2-.3-.4-.6-.4-1.1c.03.01 0-2.2 0-2.2h.4s-.03 2.15 0 2.2c0 .3.1.6.3.8c.2.3.4.4.8.4c.4 0 .7-.2.9-.4c.2-.2.3-.5.3-.9c.04-.01 0-2.1 0-2.1h.4v3.6h-.4v-.7s.04.03 0 0zm3.8.7v-5.1h.3s.03 2.19 0 2.2c.3-.5.8-.8 1.3-.8c.5 0 .8.2 1.1.5c.2.2.3.6.3 1c.05.02 0 2.2 0 2.2h-.3v-2.1c0-.4-.1-.7-.3-.9c-.2-.2-.5-.3-.8-.3c-.4 0-.7.1-.9.3c-.3.3-.4.6-.4.9c.03.03 0 2.1 0 2.1h-.3zm6.7-.6c-.3.5-.8.7-1.3.7c-.4 0-.7-.1-1-.3c-.3-.2-.4-.5-.4-.8v-.1c0-.3.1-.6.4-.8c.3-.2.7-.3 1.1-.3c.4 0 .8 0 1.2.1v-.1c0-.4-.1-.6-.3-.8c-.2-.2-.5-.3-.8-.3c-.4 0-.8.1-1.2.3l-.1-.3c.4-.2.9-.3 1.3-.3c.5 0 .8.1 1.1.4c.2.2.4.5.4 1c-.03-.03 0 2.2 0 2.2h-.4v-.6s.03 0 0 0zm-1.3.4c.4 0 .7-.1.9-.3c.3-.3.4-.5.4-.8v-.4c-.4-.2-.8-.2-1.2-.2c-.3 0-.6.1-.8.2c-.2.2-.4.4-.4.6c0 .3.2.5.4.6c.2.2.4.3.7.3zm6-.4c-.5.5-.9.7-1.5.7c-.5 0-1-.2-1.3-.6c-.4-.3-.6-.8-.6-1.3c0-.5.2-1 .6-1.3c.3-.4.8-.6 1.3-.6c.5 0 1 .2 1.4.6l-.3.4c-.4-.3-.7-.5-1.1-.5c-.4 0-.7.1-1 .4c-.2.3-.3.6-.3 1c0 .4.1.7.4 1c.2.3.5.4.9.4c.4 0 .8-.2 1.1-.5c.01-.04.4.3.4.3c0 0-.04-.02 0 0zm.9-3.8v-.6h.6v.6h-.6zm0 4.4V24h.5v3.6h-.5zm1.8 0V24h.5s.03.59 0 .6c.2-.2.3-.4.5-.5c.2-.1.4-.2.7-.2c.5 0 .9.2 1.2.7c.3-.5.7-.7 1.2-.7c.5 0 .8.1 1 .4c.3.3.4.6.4 1.1c-.03-.04 0 2.2 0 2.2h-.6s.04-2.11 0-2.1c0-.4 0-.6-.2-.8c-.2-.2-.4-.3-.7-.3c-.3 0-.5.1-.7.3c-.2.2-.3.5-.3.8v2.1h-.5s-.04-2.13 0-2.1c0-.4-.1-.6-.3-.8c-.1-.2-.4-.3-.7-.3c-.3 0-.5.1-.7.3c-.2.2-.3.5-.3.8c.03.03 0 2.1 0 2.1h-.5zm6.6-2.9v-.7h.6v.7h-.6zm0 2.9v-.7h.6v.7h-.6zm4.6 0v-4.4l-1 .3l-.1-.4l1.2-.4h.4v4.9h-.5zm1.6.9l-.1-.3c.4-.1.5-.3.5-.6h-.3v-.7h.7v.6c0 .3-.1.5-.2.6c-.1.2-.3.3-.6.4zm3.4-.8c-.6 0-1.2-.3-1.7-.8l.4-.4c.4.5.9.7 1.3.7c.4 0 .7-.1.9-.3c.2-.2.3-.5.3-.8c0-.3-.1-.6-.3-.8c-.2-.2-.5-.2-.9-.2c-.3 0-.7 0-1 .2c-.02.03-.4-.2-.4-.2l.2-2.4h2.8v.5h-2.4s-.07 1.58-.1 1.6c.3-.2.7-.2 1-.2c.5 0 .9.1 1.2.4c.3.2.5.6.5 1.1c0 .4-.2.8-.5 1.1c-.3.3-.7.5-1.3.5zm5-.1v-5.1h.5v5.1h-.5z" stroke="none" fill="#000"/></g><g id="Polygon387909"><path d="m2.7 5.7c-.6 0-1.1-.2-1.5-.6c-.4-.3-.5-.9-.5-1.5C.65 3.56.7.7.7.7h.3v2.8c0 .6.2 1.1.5 1.4c.2.3.7.4 1.2.4c.5 0 .9-.1 1.2-.4c.3-.3.4-.8.4-1.3V.7h.4s-.03 2.82 0 2.8c0 .7-.2 1.2-.6 1.6c-.3.4-.8.6-1.4.6zM3 .3v-.6h.5v.6h-.5zM1.8.3v-.6h.5v.6h-.5zM6 5.6V2h.3v1c.2-.3.4-.6.7-.7c.2-.2.5-.3.9-.3v.4s-.04-.05 0 0c-.5 0-.8.1-1.1.4c-.3.3-.5.8-.5 1.3v1.5h-.3zm5.4-.7c-.3.5-.7.8-1.3.8c-.4 0-.8-.2-1-.4c-.3-.3-.4-.6-.4-1.1V2h.3s.04 2.15 0 2.2c0 .3.1.6.3.8c.2.3.5.4.9.4c.3 0 .6-.2.9-.4c.2-.2.3-.5.3-.9c.02-.01 0-2.1 0-2.1h.4v3.6h-.4v-.7s.02.03 0 0zm-.8-3.5v-.5h.4v.5h-.4zm-1.2 0v-.5h.5v.5h-.5zm3.7 4.2V2h.3v.7c.3-.5.7-.8 1.3-.8c.4 0 .8.2 1 .5c.3.2.4.6.4 1c.02.02 0 2.2 0 2.2h-.3s-.02-2.12 0-2.1c0-.4-.1-.7-.3-.9c-.2-.2-.5-.3-.9-.3c-.3 0-.6.1-.8.3c-.3.3-.4.6-.4.9v2.1h-.3zm6.4 0V.7h.4v3.2L23 .7h.5l-2.1 2.2l2.2 2.7h-.5l-2-2.5l-1.2 1.3v1.2h-.4zm8.2-1.8c0 .5-.2 1-.6 1.3c-.3.4-.7.6-1.3.6c-.5 0-.9-.2-1.3-.6c-.3-.3-.5-.8-.5-1.3c0-.5.2-.9.5-1.3c.4-.4.8-.6 1.3-.6c.6 0 1 .2 1.3.6c.4.4.6.8.6 1.3c-.03 0 0 0 0 0c0 0-.03.01 0 0zm-1.9 1.6c.5 0 .8-.2 1.1-.5c.3-.3.4-.6.4-1.1c0-.4-.1-.8-.4-1.1c-.3-.3-.7-.4-1.1-.4c-.4 0-.7.1-1 .4c-.3.3-.4.7-.4 1.1c0 .4.1.8.4 1.1c.3.3.6.5 1 .5zm5.9-.6c-.4.6-.9.9-1.5.9c-.4 0-.8-.2-1.2-.5c-.3-.4-.5-.8-.5-1.4c0-.5.2-1 .5-1.3c.4-.4.8-.6 1.2-.6c.6 0 1.1.3 1.5.9V.5h.3v5.1h-.3v-.8zm-2.8-1c0 .5.1.8.4 1.1c.3.3.6.5 1 .5c.4 0 .7-.2 1-.5c.3-.3.4-.6.4-1.1c0-.4-.1-.8-.4-1.1c-.3-.3-.6-.4-1-.4c-.4 0-.8.1-1 .4c-.3.3-.4.6-.4 1.1c-.03 0 0 0 0 0c0 0-.03.01 0 0zM36 4.9c-.3.5-.7.8-1.3.8c-.4 0-.8-.2-1-.4c-.3-.3-.4-.6-.4-1.1c-.02.01 0-2.2 0-2.2h.3s.02 2.15 0 2.2c0 .3.1.6.3.8c.2.3.5.4.9.4c.3 0 .6-.2.8-.4c.3-.2.4-.5.4-.9V2h.3v3.6h-.3v-.7s-.01.03 0 0zm1.6-2.3v-.6h.5v.6h-.5zm0 3v-.6h.5v.6h-.5zm3.5 0v-.9s1.64-1.29 1.6-1.3c.4-.3.6-.5.7-.6c.1-.2.2-.4.2-.6c0-.2-.1-.3-.2-.4c-.1-.1-.3-.2-.5-.2c-.2 0-.3 0-.5.1c-.1.1-.3.3-.5.6l-.7-.7c.2-.3.5-.6.8-.7c.2-.2.6-.3 1-.3c.5 0 .9.2 1.2.4c.3.3.5.7.5 1.1v.1c0 .3-.1.7-.3.9c-.2.3-.5.6-1 1c0-.05-.8.6-.8.6h2.1v.9h-3.6zm6.2.1c-.5 0-1-.2-1.3-.4c-.4-.3-.6-.6-.6-1v-.1c0-.2.1-.5.2-.7c.2-.2.4-.3.6-.4c-.4-.3-.6-.6-.6-1.1c0-.4.2-.7.5-1c.3-.2.7-.4 1.2-.4c.5 0 1 .2 1.3.4c.3.3.5.6.5 1c0 .5-.3.8-.7 1.1c.3.1.5.3.6.4c.2.2.2.4.2.7c0 .5-.2.8-.5 1.1c-.4.2-.8.4-1.4.4zm-.7-3.6c0 .2.1.3.2.4c.2.1.3.2.5.2c.2 0 .4-.1.5-.2c.2-.1.2-.2.2-.4c0-.2 0-.3-.2-.4c-.1-.1-.3-.2-.5-.2c-.2 0-.4.1-.5.2c-.1.1-.2.2-.2.4c.03-.01 0 0 0 0c0 0 .03 0 0 0zm.7 2.7c.3 0 .5-.1.7-.2c.1-.1.2-.3.2-.4c0-.2-.1-.4-.3-.5c-.1-.1-.3-.1-.6-.1c-.2 0-.4 0-.6.1c-.1.1-.2.3-.2.5c0 .1.1.3.2.4c.2.1.4.2.6.2zm3.5.8V1.8l-.9.2l-.2-.9l1.4-.4h.7v4.9h-1zm3.9.1c-.8 0-1.5-.3-1.9-.9l.7-.7c.3.4.7.6 1.2.6c.2 0 .4 0 .5-.1c.1-.2.2-.3.2-.5c0-.2-.1-.3-.3-.5c-.1-.1-.4-.1-.7-.1h-.4l-.2-.7L55 1.6h-2v-.9h3.4v.8l-1.3 1.2c.9.1 1.3.6 1.3 1.4c0 .5-.1.8-.4 1.1c-.4.3-.8.5-1.3.5zm4.3 0c-.8 0-1.4-.3-1.9-.9l.7-.7c.4.4.8.6 1.2.6c.2 0 .4 0 .5-.1c.2-.2.2-.3.2-.5c0-.2-.1-.3-.2-.5c-.2-.1-.4-.1-.7-.1h-.5l-.2-.7l1.2-1.2h-1.9v-.9h3.3v.8s-1.24 1.19-1.2 1.2c.8.1 1.3.6 1.3 1.4c0 .5-.2.8-.5 1.1c-.3.3-.7.5-1.3.5z" stroke="none" fill="#000"/></g></svg>