<?xml version="1.0" standalone="no"?><!DOCTYPE svg PUBLIC "-//W3C//DTD SVG 1.1//EN" "http://www.w3.org/Graphics/SVG/1.1/DTD/svg11.dtd"><svg xmlns="http://www.w3.org/2000/svg" version="1.1" width="150px" height="84.4px" viewBox="0 -3 150 84.4" style="top:-3px"><desc>Kesme Tahtas Te hir Stand r n Kodu: 00224 4 adet b y k SLIZE kesme tahtas 4 adet orta SLIZE kesme tahtas 4 adet ...</desc><defs/><g id="Rectangle362235"><path d="m116.1 61.6V58h.6v3.6h-.6z" stroke="none" fill="#4f4f4e"/></g><g id="Polygon362234"><path d="m3 61.6v-1.2H.4L.3 60l2.8-3.3h.5v3.3h.7v.4h-.7v1.2h-.6zM1 60h2v-2.6L1 60zm8.8 1.1c-.3.4-.8.6-1.3.6c-.4 0-.7-.1-1-.3c-.2-.2-.4-.5-.4-.9c0-.3.2-.6.4-.8c.3-.2.7-.3 1.2-.3c.3 0 .7 0 1.1.1v-.1c0-.3-.1-.6-.3-.7c-.2-.2-.4-.3-.8-.3c-.4 0-.7.1-1.1.3l-.2-.5c.5-.2.9-.3 1.4-.3c.5 0 .9.2 1.1.4c.3.3.4.6.4 1.1v2.2h-.5v-.5s-.01-.05 0 0zm-1.2.1c.3 0 .6 0 .8-.2c.3-.2.4-.4.4-.7v-.4c-.4-.1-.7-.1-1.1-.1c-.3 0-.6 0-.8.2c-.1.1-.2.3-.2.5c0 .2.1.4.2.6c.2.1.4.1.7.1zm5.8-.3c-.4.5-.9.8-1.4.8c-.5 0-.9-.2-1.2-.5c-.4-.4-.6-.8-.6-1.4c0-.6.2-1 .6-1.4c.3-.3.7-.5 1.2-.5c.5 0 1 .3 1.4.8c-.04-.03 0-2.2 0-2.2h.5v5.1h-.5v-.7s-.04-.03 0 0zm-1.3.3c.3 0 .6-.1.9-.4c.2-.3.4-.6.4-1c0-.4-.2-.8-.4-1c-.3-.3-.6-.4-.9-.4c-.4 0-.7.1-.9.4c-.3.2-.4.6-.4 1c0 .4.1.8.4 1c.2.3.5.4.9.4zm6.1-.2c-.4.5-.9.7-1.5.7c-.5 0-.9-.2-1.3-.5c-.3-.4-.5-.8-.5-1.4c0-.5.1-1 .5-1.4c.3-.3.7-.5 1.2-.5c.5 0 .9.2 1.2.5c.3.4.5.9.5 1.4v.2h-2.9c.1.4.2.7.4.9c.3.2.6.3.9.3c.4 0 .8-.2 1.1-.5c.04 0 .4.3.4.3c0 0-.03 0 0 0zm-2.8-1.4h2.4c-.1-.4-.2-.7-.4-.9c-.2-.2-.5-.3-.8-.3c-.3 0-.6.1-.8.3c-.2.2-.3.5-.4.9zm5.7 1.9c-.2.1-.4.2-.6.2c-.4 0-.6-.1-.8-.3c-.2-.2-.3-.4-.3-.8c.03.04 0-2.1 0-2.1h-.5v-.5h.5v-1.1h.6v1.1h1.1v.5H21s-.03 2.07 0 2.1c0 .4.2.6.6.6c.2 0 .3-.1.5-.2v.5s.01.01 0 0zm3.1.1v-5.1h.5v3.5l2-2h.6l-1.5 1.5l1.6 2.1h-.7l-1.3-1.7l-.7.8v.9h-.5zm5.7-4.2v-.6h.6v.6h-.6zm-1.2 0v-.6h.6v.6h-.6zm2 3.6c-.3.4-.8.7-1.3.7c-.4 0-.8-.2-1-.4c-.2-.3-.4-.6-.4-1.1c.03.03 0-2.2 0-2.2h.6s-.03 2.09 0 2.1c0 .3.1.6.2.8c.2.2.5.3.8.3c.3 0 .5-.1.7-.3c.3-.2.4-.5.4-.8c-.05-.05 0-2.1 0-2.1h.5v3.6h-.5v-.6s-.05-.03 0 0zm3 1.7l-.6-.3s.59-.75.6-.8c-.4 0-.8-.2-1.1-.6c-.3-.3-.4-.7-.4-1.2c0-.5.1-1 .5-1.3c.4-.4.8-.6 1.3-.6c.6 0 1.1.2 1.5.6l-.4.4c-.3-.3-.7-.5-1.1-.5c-.3 0-.7.1-.9.4c-.3.3-.4.6-.4 1c0 .4.2.7.4 1c.3.3.6.4 1 .4c.4 0 .7-.2 1.1-.5l.3.3c-.4.4-.8.7-1.4.7c.03-.02-.4 1-.4 1zm4.5-5.3v-.6h.6v.6h-.6zm-1.2 0v-.6h.6v.6h-.6zm1.9 3.6c-.3.4-.7.7-1.2.7c-.4 0-.8-.2-1-.4c-.3-.3-.4-.6-.4-1.1c.01.03 0-2.2 0-2.2h.5s.05 2.09 0 2.1c0 .3.1.6.3.8c.2.2.4.3.7.3c.4 0 .6-.1.8-.3c.2-.2.3-.5.3-.8c.03-.05 0-2.1 0-2.1h.6v3.6h-.6v-.6s.03-.03 0 0zm1.8.6v-5.1h.5v3.5l2-2h.6l-1.5 1.5l1.6 2.1h-.7L43 59.9l-.8.8v.9h-.5zm7.8.1c-.7 0-1.4-.3-2-.8l.4-.4c.2.2.5.4.8.5c.2.1.5.2.9.2c.3 0 .5-.1.7-.3c.2-.1.3-.3.3-.6c0-.2 0-.4-.2-.5c-.2-.2-.5-.3-1-.4c-.6-.1-1-.3-1.3-.5c-.2-.2-.4-.5-.4-.9c0-.4.2-.7.5-1c.3-.2.7-.4 1.1-.4c.4 0 .7.1 1 .2c.2.1.5.2.8.4l-.4.5c-.4-.4-.9-.6-1.4-.6c-.3 0-.5.1-.7.3c-.2.1-.3.3-.3.5c0 .3.1.5.3.6c.1.2.5.3 1 .4c.6.1 1 .3 1.2.5c.3.2.4.5.4.9c0 .4-.2.7-.5 1c-.3.2-.7.4-1.2.4zm2.8-.1v-4.9h.6v4.4h2.7v.5h-3.3zm4.4 0v-4.9h.5v4.9h-.5zm1.7 0v-.4l3.2-4h-3v-.5h3.8v.4l-3.2 4h3.2v.5h-4zm5.1 0v-4.9h3.6v.5h-3v1.7h2.7v.5h-2.7v1.7h3v.5h-3.6zm6.7 0v-5.1h.6v3.5l1.9-2h.7l-1.5 1.5l1.5 2.1h-.6l-1.3-1.7l-.7.8v.9h-.6zm6.9-.6c-.4.5-.9.7-1.5.7c-.5 0-.9-.2-1.3-.5c-.3-.4-.5-.8-.5-1.4c0-.5.2-1 .5-1.4c.3-.3.7-.5 1.2-.5c.6 0 1 .2 1.3.5c.3.4.4.9.4 1.4v.2h-2.8c0 .4.1.7.4.9c.2.2.5.3.8.3c.5 0 .8-.2 1.2-.5c-.03 0 .3.3.3.3zm-2.7-1.4h2.3c0-.4-.2-.7-.4-.9c-.2-.2-.4-.3-.8-.3c-.3 0-.5.1-.8.3c-.2.2-.3.5-.3.9zm5 2.1c-.6 0-1.1-.2-1.5-.6l.2-.3c.4.3.9.4 1.3.4c.2 0 .4 0 .5-.1c.2-.1.2-.3.2-.5c0-.1 0-.3-.2-.4c-.1 0-.4-.1-.7-.2c-.1 0-.2-.1-.2-.1c-.1 0-.2-.1-.3-.1c-.1 0-.2-.1-.3-.1c0-.1-.1-.1-.2-.2c0-.1-.1-.1-.1-.2c0-.1-.1-.2-.1-.3c0-.4.2-.6.4-.8c.2-.2.5-.3.9-.3c.4 0 .9.2 1.3.4l-.3.4c-.3-.2-.7-.3-1-.3c-.2 0-.4 0-.5.1c-.2.1-.2.2-.2.4v.2c.1 0 .1.1.1.1c.1.1.2.1.3.2h.2c.1.1.2.1.3.1c.1.1.2.1.3.1c.1.1.2.1.3.2c.2 0 .3.1.3.2c.1 0 .1.1.2.2c0 .1.1.2.1.4c0 .3-.2.6-.4.8c-.2.2-.6.3-.9.3zm2.3-.1V58h.5v.6c.1-.2.3-.4.5-.5c.2-.1.4-.2.7-.2c.5 0 .9.2 1.1.7c.4-.5.8-.7 1.3-.7c.4 0 .8.1 1 .4c.2.3.3.6.3 1.1c.05-.04 0 2.2 0 2.2h-.5v-2.1c0-.4-.1-.6-.2-.8c-.2-.2-.4-.3-.7-.3c-.3 0-.5.1-.7.3c-.2.2-.3.5-.3.8c-.03.01 0 2.1 0 2.1h-.6s.04-2.13 0-2.1c0-.4 0-.6-.2-.8c-.2-.2-.4-.3-.7-.3c-.3 0-.5.1-.7.3c-.2.2-.3.5-.3.8v2.1h-.5zm9.7-.6c-.4.5-.9.7-1.5.7c-.5 0-1-.2-1.3-.5c-.4-.4-.5-.8-.5-1.4c0-.5.1-1 .5-1.4c.3-.3.7-.5 1.2-.5c.5 0 .9.2 1.2.5c.3.4.5.9.5 1.4v.2h-2.9c.1.4.2.7.4.9c.3.2.6.3.9.3c.4 0 .8-.2 1.1-.5c.03 0 .4.3.4.3c0 0-.03 0 0 0zm-2.8-1.4h2.3c0-.4-.1-.7-.3-.9c-.2-.2-.5-.3-.8-.3c-.3 0-.6.1-.8.3c-.2.2-.3.5-.4.9zm7.8 1.9c-.2.1-.4.2-.6.2c-.4 0-.6-.1-.8-.3c-.2-.2-.3-.4-.3-.8c.03.04 0-2.1 0-2.1h-.5v-.5h.5v-1.1h.6v1.1h1.1v.5h-1.1s-.03 2.07 0 2.1c0 .4.2.6.6.6c.2 0 .3-.1.5-.2v.5s0 .01 0 0zm3.4-.4c-.4.4-.8.6-1.4.6c-.3 0-.6-.1-.9-.3c-.3-.2-.4-.5-.4-.9c0-.3.1-.6.4-.8c.3-.2.7-.3 1.1-.3c.4 0 .8 0 1.2.1v-.1c0-.3-.1-.6-.3-.7c-.2-.2-.5-.3-.8-.3c-.4 0-.8.1-1.1.3l-.2-.5c.4-.2.9-.3 1.3-.3c.5 0 .9.2 1.2.4c.2.3.4.6.4 1.1c-.03-.01 0 2.2 0 2.2h-.5v-.5s-.04-.05 0 0zm-1.2.1c.3 0 .6 0 .8-.2c.2-.2.4-.4.4-.7v-.4c-.4-.1-.8-.1-1.1-.1c-.3 0-.6 0-.8.2c-.2.1-.3.3-.3.5c0 .2.1.4.3.6c.2.1.4.1.7.1zm2.8.4v-5.1h.6s-.04 2.11 0 2.1c.3-.5.7-.7 1.2-.7c.4 0 .8.1 1 .4c.3.3.4.6.4 1.1c-.01-.05 0 2.2 0 2.2h-.6s.05-2.11 0-2.1c0-.4 0-.6-.2-.8c-.2-.2-.4-.3-.8-.3c-.3 0-.5.1-.7.3c-.2.2-.3.5-.3.8c-.04.03 0 2.1 0 2.1h-.6zm6.2-.1c-.2.1-.4.2-.7.2c-.3 0-.5-.1-.7-.3c-.2-.2-.3-.4-.3-.8c.02.04 0-2.1 0-2.1h-.5v-.5h.5v-1.1h.6v1.1h1.1v.5h-1.1s-.04 2.07 0 2.1c0 .4.2.6.6.6c.1 0 .3-.1.5-.2v.5s0 .01 0 0zm3.3-.4c-.3.4-.7.6-1.3.6c-.3 0-.6-.1-.9-.3c-.3-.2-.4-.5-.4-.9c0-.3.1-.6.4-.8c.3-.2.7-.3 1.1-.3c.4 0 .8 0 1.1.1v-.1c0-.3 0-.6-.2-.7c-.2-.2-.5-.3-.8-.3c-.4 0-.8.1-1.1.3l-.2-.5c.4-.2.9-.3 1.3-.3c.5 0 .9.2 1.2.4c.2.3.4.6.4 1.1c-.03-.01 0 2.2 0 2.2h-.6v-.5s.05-.05 0 0zm-1.2.1c.4 0 .7 0 .9-.2c.2-.2.4-.4.4-.7v-.4c-.4-.1-.8-.1-1.1-.1c-.3 0-.6 0-.8.2c-.2.1-.3.3-.3.5c0 .2.1.4.3.6c.2.1.4.1.6.1zm4.1.5c-.5 0-1-.2-1.5-.6l.3-.3c.4.3.8.4 1.2.4c.3 0 .4 0 .6-.1c.1-.1.2-.3.2-.5c0-.1-.1-.3-.2-.4c-.2 0-.4-.1-.7-.2c-.1 0-.2-.1-.3-.1c-.1 0-.2-.1-.3-.1c-.1 0-.2-.1-.2-.1c-.1-.1-.2-.1-.2-.2l-.2-.2v-.3c0-.4.1-.6.3-.8c.3-.2.6-.3.9-.3c.5 0 .9.2 1.3.4l-.2.4c-.4-.2-.7-.3-1.1-.3c-.2 0-.4 0-.5.1c-.1.1-.2.2-.2.4c0 .1 0 .1.1.2s0 .1.1.1c0 .1.1.1.2.2h.3c0 .1.1.1.2.1c.2.1.3.1.4.1c.1.1.2.1.3.2c.1 0 .2.1.3.2c0 0 .1.1.1.2c.1.1.1.2.1.4c0 .3-.1.6-.4.8c-.2.2-.5.3-.9.3z" stroke="none" fill="#000"/></g><g id="Polygon362233"><path d="m3 50.6v-1.2H.4L.3 49l2.8-3.3h.5v3.3h.7v.4h-.7v1.2h-.6zM1 49h2v-2.6L1 49zm8.8 1.1c-.3.4-.8.6-1.3.6c-.4 0-.7-.1-1-.3c-.2-.2-.4-.5-.4-.9c0-.3.2-.6.4-.8c.3-.2.7-.3 1.2-.3c.3 0 .7 0 1.1.1v-.1c0-.3-.1-.6-.3-.7c-.2-.2-.4-.3-.8-.3c-.4 0-.7.1-1.1.3l-.2-.5c.5-.2.9-.3 1.4-.3c.5 0 .9.2 1.1.4c.3.3.4.6.4 1.1v2.2h-.5v-.5s-.01-.05 0 0zm-1.2.1c.3 0 .6 0 .8-.2c.3-.2.4-.4.4-.7v-.4c-.4-.1-.7-.1-1.1-.1c-.3 0-.6 0-.8.2c-.1.1-.2.3-.2.5c0 .2.1.4.2.6c.2.1.4.1.7.1zm5.8-.3c-.4.5-.9.8-1.4.8c-.5 0-.9-.2-1.2-.5c-.4-.4-.6-.8-.6-1.4c0-.6.2-1 .6-1.4c.3-.3.7-.5 1.2-.5c.5 0 1 .3 1.4.8c-.04-.03 0-2.2 0-2.2h.5v5.1h-.5v-.7s-.04-.03 0 0zm-1.3.3c.3 0 .6-.1.9-.4c.2-.3.4-.6.4-1c0-.4-.2-.8-.4-1c-.3-.3-.6-.4-.9-.4c-.4 0-.7.1-.9.4c-.3.2-.4.6-.4 1c0 .4.1.8.4 1c.2.3.5.4.9.4zm6.1-.2c-.4.5-.9.7-1.5.7c-.5 0-.9-.2-1.3-.5c-.3-.4-.5-.8-.5-1.4c0-.5.1-1 .5-1.4c.3-.3.7-.5 1.2-.5c.5 0 .9.2 1.2.5c.3.4.5.9.5 1.4v.2h-2.9c.1.4.2.7.4.9c.3.2.6.3.9.3c.4 0 .8-.2 1.1-.5c.04 0 .4.3.4.3c0 0-.03 0 0 0zm-2.8-1.4h2.4c-.1-.4-.2-.7-.4-.9c-.2-.2-.5-.3-.8-.3c-.3 0-.6.1-.8.3c-.2.2-.3.5-.4.9zm5.7 1.9c-.2.1-.4.2-.6.2c-.4 0-.6-.1-.8-.3c-.2-.2-.3-.4-.3-.8c.03.04 0-2.1 0-2.1h-.5v-.5h.5v-1.1h.6v1.1h1.1v.5H21s-.03 2.07 0 2.1c0 .4.2.6.6.6c.2 0 .3-.1.5-.2v.5s.01.01 0 0zm4.7.2c-.5 0-1-.2-1.3-.6c-.4-.3-.6-.8-.6-1.3c0-.5.2-1 .6-1.3c.3-.4.8-.6 1.3-.6c.6 0 1 .2 1.4.6c.3.3.5.8.5 1.3c0 .5-.2 1-.5 1.3c-.4.4-.8.6-1.4.6zm0-.5c.4 0 .7-.1 1-.4c.2-.3.4-.6.4-1c0-.4-.2-.7-.4-1c-.3-.3-.6-.4-1-.4c-.4 0-.7.1-.9.4c-.3.3-.4.6-.4 1c0 .4.1.7.4 1c.2.3.6.4.9.4zm2.9.4V47h.5s.03.93 0 .9c.2-.3.4-.5.6-.7c.3-.2.6-.3.9-.3v.6s-.03 0 0 0c-.4 0-.8.1-1.1.4c-.2.3-.4.7-.4 1.3c.03-.04 0 1.4 0 1.4h-.5zm4.7-.1c-.2.1-.4.2-.7.2c-.3 0-.5-.1-.7-.3c-.2-.2-.3-.4-.3-.8c.02.04 0-2.1 0-2.1h-.5v-.5h.5v-1.1h.6v1.1h1.1v.5h-1.1s-.04 2.07 0 2.1c0 .4.2.6.6.6c.1 0 .3-.1.5-.2v.5s-.01.01 0 0zm3.3-.4c-.3.4-.7.6-1.3.6c-.3 0-.6-.1-.9-.3c-.3-.2-.4-.5-.4-.9c0-.3.1-.6.4-.8c.3-.2.7-.3 1.1-.3c.4 0 .8 0 1.1.1v-.1c0-.3 0-.6-.2-.7c-.2-.2-.5-.3-.8-.3c-.4 0-.8.1-1.1.3l-.2-.5c.4-.2.9-.3 1.3-.3c.5 0 .9.2 1.2.4c.2.3.4.6.4 1.1c-.04-.01 0 2.2 0 2.2h-.6v-.5s.04-.05 0 0zm-1.2.1c.4 0 .7 0 .9-.2c.2-.2.4-.4.4-.7v-.4c-.4-.1-.8-.1-1.1-.1c-.3 0-.6 0-.8.2c-.2.1-.3.3-.3.5c0 .2.1.4.3.6c.2.1.4.1.6.1zm6.8.5c-.8 0-1.4-.3-2-.8l.3-.4c.3.2.5.4.8.5c.3.1.6.2.9.2c.3 0 .6-.1.8-.3c.2-.1.3-.3.3-.6c0-.2-.1-.4-.3-.5c-.2-.2-.5-.3-1-.4c-.6-.1-1-.3-1.2-.5c-.3-.2-.4-.5-.4-.9c0-.4.1-.7.4-1c.3-.2.7-.4 1.2-.4c.3 0 .6.1.9.2c.3.1.5.2.8.4l-.3.5c-.4-.4-.9-.6-1.4-.6c-.3 0-.6.1-.8.3c-.2.1-.3.3-.3.5c0 .3.1.5.3.6c.2.2.5.3 1.1.4c.5.1.9.3 1.2.5c.2.2.4.5.4.9c0 .4-.2.7-.5 1c-.3.2-.7.4-1.2.4zm2.8-.1v-4.9h.5v4.4h2.8v.5h-3.3zm4.3 0v-4.9h.6v4.9h-.6zm1.8 0v-.4l3.2-4h-3.1v-.5h3.8v.4l-3.2 4h3.2v.5h-3.9zm5.1 0v-4.9h3.5v.5h-3v1.7h2.7v.5h-2.7v1.7h3.1v.5h-3.6zm6.7 0v-5.1h.5v3.5l2-2h.6l-1.5 1.5l1.6 2.1h-.7l-1.3-1.7l-.7.8v.9h-.5zm6.9-.6c-.4.5-.9.7-1.5.7c-.5 0-1-.2-1.3-.5c-.4-.4-.5-.8-.5-1.4c0-.5.1-1 .4-1.4c.4-.3.8-.5 1.3-.5c.5 0 .9.2 1.2.5c.3.4.5.9.5 1.4v.2h-2.9c0 .4.2.7.4.9c.3.2.5.3.9.3c.4 0 .8-.2 1.1-.5c.02 0 .4.3.4.3c0 0-.05 0 0 0zm-2.8-1.4h2.3c0-.4-.1-.7-.3-.9c-.2-.2-.5-.3-.8-.3c-.3 0-.6.1-.8.3c-.2.2-.4.5-.4.9zm5 2.1c-.5 0-1-.2-1.5-.6l.3-.3c.4.3.8.4 1.2.4c.3 0 .5 0 .6-.1c.1-.1.2-.3.2-.5c0-.1-.1-.3-.2-.4c-.2 0-.4-.1-.7-.2c-.1 0-.2-.1-.3-.1c-.1 0-.1-.1-.3-.1c-.1 0-.2-.1-.2-.1l-.2-.2l-.2-.2v-.3c0-.4.1-.6.3-.8c.3-.2.6-.3.9-.3c.5 0 .9.2 1.3.4l-.2.4c-.4-.2-.7-.3-1.1-.3c-.2 0-.4 0-.5.1c-.1.1-.2.2-.2.4c0 .1 0 .1.1.2l.1.1c0 .1.1.1.2.2h.3c0 .1.1.1.2.1c.2.1.3.1.4.1c.1.1.2.1.3.2c.1 0 .2.1.3.2c0 0 .1.1.1.2c.1.1.1.2.1.4c0 .3-.1.6-.4.8c-.2.2-.5.3-.9.3zm2.3-.1V47h.5s.05.59 0 .6l.5-.5c.2-.1.4-.2.7-.2c.6 0 1 .2 1.2.7c.3-.5.7-.7 1.3-.7c.4 0 .7.1.9.4c.3.3.4.6.4 1.1v2.2h-.5s-.04-2.11 0-2.1c0-.4-.1-.6-.3-.8c-.2-.2-.4-.3-.7-.3c-.3 0-.5.1-.7.3c-.2.2-.3.5-.3.8c.02.01 0 2.1 0 2.1h-.5v-2.1c0-.4-.1-.6-.3-.8c-.1-.2-.4-.3-.6-.3c-.3 0-.6.1-.8.3c-.2.2-.3.5-.3.8c.05.03 0 2.1 0 2.1h-.5zm9.7-.6c-.4.5-.9.7-1.5.7c-.5 0-.9-.2-1.3-.5c-.3-.4-.5-.8-.5-1.4c0-.5.2-1 .5-1.4c.3-.3.8-.5 1.3-.5c.5 0 .9.2 1.2.5c.3.4.4.9.4 1.4v.2h-2.8c0 .4.1.7.4.9c.2.2.5.3.8.3c.5 0 .9-.2 1.2-.5c-.02 0 .3.3.3.3c0 0 .02 0 0 0zm-2.7-1.4h2.3c0-.4-.1-.7-.3-.9c-.2-.2-.5-.3-.9-.3c-.3 0-.5.1-.8.3c-.2.2-.3.5-.3.9zm7.8 1.9c-.2.1-.5.2-.7.2c-.3 0-.6-.1-.7-.3c-.2-.2-.3-.4-.3-.8c-.02.04 0-2.1 0-2.1h-.5v-.5h.5v-1.1h.5v1.1h1.2v.5H89s.02 2.07 0 2.1c0 .4.2.6.6.6c.2 0 .4-.1.6-.2c-.05.05 0 .5 0 .5c0 0-.05.01 0 0zm3.3-.4c-.3.4-.7.6-1.3.6c-.4 0-.7-.1-1-.3c-.2-.2-.4-.5-.4-.9c0-.3.2-.6.5-.8c.3-.2.6-.3 1.1-.3c.4 0 .7 0 1.1.1v-.1c0-.3-.1-.6-.3-.7c-.2-.2-.4-.3-.8-.3c-.3 0-.7.1-1.1.3l-.1-.5c.4-.2.8-.3 1.3-.3c.5 0 .9.2 1.2.4c.2.3.3.6.3 1.1c.02-.01 0 2.2 0 2.2h-.5v-.5s0-.05 0 0zm-1.2.1c.3 0 .6 0 .9-.2c.2-.2.3-.4.3-.7v-.4c-.4-.1-.7-.1-1.1-.1c-.3 0-.5 0-.7.2c-.2.1-.3.3-.3.5c0 .2.1.4.3.6c.1.1.3.1.6.1zm2.9.4v-5.1h.5v2.1c.3-.5.7-.7 1.2-.7c.5 0 .8.1 1.1.4c.2.3.3.6.3 1.1c.03-.05 0 2.2 0 2.2h-.5v-2.1c0-.4-.1-.6-.3-.8c-.1-.2-.4-.3-.7-.3c-.3 0-.6.1-.8.3c-.2.2-.3.5-.3.8v2.1h-.5zm6.1-.1c-.1.1-.4.2-.6.2c-.3 0-.6-.1-.8-.3c-.1-.2-.2-.4-.2-.8c-.03.04 0-2.1 0-2.1h-.5v-.5h.5v-1.1h.5v1.1h1.2v.5h-1.2v2.1c0 .4.2.6.6.6c.2 0 .4-.1.5-.2c.04.05 0 .5 0 .5c0 0 .04.01 0 0zm3.4-.4c-.3.4-.8.6-1.3.6c-.4 0-.7-.1-1-.3c-.2-.2-.4-.5-.4-.9c0-.3.2-.6.5-.8c.2-.2.6-.3 1.1-.3c.4 0 .7 0 1.1.1v-.1c0-.3-.1-.6-.3-.7c-.2-.2-.4-.3-.8-.3c-.3 0-.7.1-1.1.3l-.1-.5c.4-.2.8-.3 1.3-.3c.5 0 .9.2 1.1.4c.3.3.4.6.4 1.1c.02-.01 0 2.2 0 2.2h-.5v-.5s0-.05 0 0zm-1.2.1c.3 0 .6 0 .9-.2c.2-.2.3-.4.3-.7v-.4c-.4-.1-.7-.1-1.1-.1c-.3 0-.6 0-.7.2c-.2.1-.3.3-.3.5c0 .2.1.4.2.6c.2.1.4.1.7.1zm4.1.5c-.6 0-1.1-.2-1.5-.6l.2-.3c.4.3.9.4 1.3.4c.2 0 .4 0 .5-.1c.2-.1.2-.3.2-.5c0-.1 0-.3-.2-.4c-.1 0-.4-.1-.7-.2c-.1 0-.2-.1-.3-.1c0 0-.1-.1-.2-.1c-.1 0-.2-.1-.3-.1c0-.1-.1-.1-.2-.2c0-.1-.1-.1-.1-.2c0-.1-.1-.2-.1-.3c0-.4.2-.6.4-.8c.2-.2.5-.3.9-.3c.4 0 .9.2 1.3.4l-.3.4c-.3-.2-.7-.3-1-.3c-.3 0-.4 0-.6.1c-.1.1-.1.2-.1.4v.2l.1.1c.1.1.2.1.3.2h.2c.1.1.2.1.3.1c.1.1.2.1.3.1c.1.1.2.1.3.2c.1 0 .2.1.3.2c.1 0 .1.1.2.2v.4c0 .3-.1.6-.3.8c-.3.2-.6.3-.9.3zm2.3-.1V47h.5v3.6h-.5z" stroke="none" fill="#000"/></g><g id="Polygon362232"><path d="m40.1 36v-.6h.6v.6h-.6zm-1.2 0v-.6h.6v.6h-.6zm1.9 3.6c-.3.4-.7.7-1.2.7c-.4 0-.8-.2-1-.4c-.3-.3-.4-.6-.4-1.1c.01.03 0-2.2 0-2.2h.6s-.05 2.09 0 2.1c0 .3 0 .6.2.8c.2.2.4.3.8.3c.3 0 .5-.1.7-.3c.2-.2.3-.5.3-.8c.04-.05 0-2.1 0-2.1h.6v3.6h-.6v-.6s.04-.03 0 0zm1.8.6v-5.1h.5v3.5l2-2h.6l-1.5 1.5l1.6 2.1h-.7l-1.2-1.7l-.8.8v.9h-.5zm7.8.1c-.7 0-1.4-.3-2-.8l.4-.4c.2.2.5.4.8.5c.2.1.5.2.9.2c.3 0 .5-.1.7-.3c.2-.1.3-.3.3-.6c0-.2 0-.4-.2-.5c-.2-.2-.5-.3-1-.4c-.6-.1-1-.3-1.3-.5c-.2-.2-.4-.5-.4-.9c0-.4.2-.7.5-1c.3-.2.7-.4 1.1-.4c.4 0 .7.1 1 .2c.2.1.5.2.8.4l-.4.5c-.4-.4-.9-.6-1.4-.6c-.3 0-.5.1-.7.3c-.2.1-.3.3-.3.5c0 .3.1.5.3.6c.1.2.5.3 1 .4c.6.1 1 .3 1.2.5c.3.2.4.5.4.9c0 .4-.1.7-.5 1c-.3.2-.7.4-1.2.4zm2.8-.1v-4.9h.6v4.4h2.7v.5h-3.3zm4.4 0v-4.9h.5v4.9h-.5zm1.8 0v-.4l3.1-4h-3v-.5h3.8v.4l-3.2 4h3.2v.5h-3.9zm5 0v-4.9h3.6v.5h-3v1.7h2.7v.5H65v1.7h3v.5h-3.6zm6.7 0v-5.1h.6v3.5l1.9-2h.7l-1.5 1.5l1.5 2.1h-.6l-1.3-1.7l-.7.8v.9h-.6zm6.9-.6c-.4.5-.9.7-1.5.7c-.5 0-.9-.2-1.3-.5c-.3-.4-.5-.8-.5-1.4c0-.5.2-1 .5-1.4c.3-.3.7-.5 1.2-.5c.6 0 1 .2 1.3.5c.3.4.4.9.4 1.4v.2h-2.8c0 .4.1.7.4.9c.2.2.5.3.8.3c.5 0 .8-.2 1.2-.5c-.03 0 .3.3.3.3c0 0 .01 0 0 0zm-2.7-1.4h2.3c0-.4-.2-.7-.4-.9c-.2-.2-.4-.3-.8-.3c-.3 0-.5.1-.8.3c-.2.2-.3.5-.3.9zm5 2.1c-.6 0-1.1-.2-1.5-.6l.2-.3c.5.3.9.4 1.3.4c.2 0 .4 0 .5-.1c.2-.1.3-.3.3-.5c0-.1-.1-.3-.3-.4c-.1 0-.4-.1-.7-.2c-.1 0-.2-.1-.2-.1c-.1 0-.2-.1-.3-.1c-.1 0-.2-.1-.3-.1c0-.1-.1-.1-.2-.2c0-.1-.1-.1-.1-.2v-.3c0-.4.1-.6.3-.8c.2-.2.5-.3.9-.3c.5 0 .9.2 1.3.4l-.3.4c-.3-.2-.7-.3-1-.3c-.2 0-.4 0-.5.1c-.2.1-.2.2-.2.4v.2c.1 0 .1.1.2.1c0 .1.1.1.2.2h.2c.1.1.2.1.3.1c.1.1.2.1.3.1c.1.1.2.1.3.2c.2 0 .3.1.3.2c.1 0 .1.1.2.2c0 .1.1.2.1.4c0 .3-.2.6-.4.8c-.2.2-.6.3-.9.3zm2.3-.1v-3.6h.5v.6c.1-.2.3-.4.5-.5c.2-.1.4-.2.7-.2c.5 0 .9.2 1.1.7c.4-.5.8-.7 1.3-.7c.4 0 .8.1 1 .4c.2.3.4.6.4 1.1c-.05-.04 0 2.2 0 2.2h-.6v-2.1c0-.4-.1-.6-.2-.8c-.2-.2-.4-.3-.7-.3c-.3 0-.5.1-.7.3c-.2.2-.3.5-.3.8c-.03.01 0 2.1 0 2.1h-.6s.04-2.13 0-2.1c0-.4 0-.6-.2-.8c-.2-.2-.4-.3-.7-.3c-.3 0-.5.1-.7.3c-.2.2-.3.5-.3.8v2.1h-.5zm9.7-.6c-.4.5-.9.7-1.5.7c-.5 0-.9-.2-1.3-.5c-.3-.4-.5-.8-.5-1.4c0-.5.1-1 .5-1.4c.3-.3.7-.5 1.2-.5c.5 0 .9.2 1.2.5c.3.4.5.9.5 1.4v.2h-2.9c.1.4.2.7.4.9c.3.2.6.3.9.3c.4 0 .8-.2 1.1-.5c.04 0 .4.3.4.3c0 0-.03 0 0 0zm-2.8-1.4h2.4c-.1-.4-.2-.7-.4-.9c-.2-.2-.5-.3-.8-.3c-.3 0-.6.1-.8.3c-.2.2-.3.5-.4.9zm7.8 1.9c-.2.1-.4.2-.6.2c-.4 0-.6-.1-.8-.3c-.2-.2-.3-.4-.3-.8c.03.04 0-2.1 0-2.1h-.5v-.5h.5v-1.1h.6v1.1h1.1v.5h-1.1s-.03 2.07 0 2.1c0 .4.2.6.6.6c.2 0 .3-.1.5-.2v.5s.01.01 0 0zm3.4-.4c-.4.4-.8.6-1.4.6c-.3 0-.6-.1-.9-.3c-.3-.2-.4-.5-.4-.9c0-.3.1-.6.4-.8c.3-.2.7-.3 1.1-.3c.4 0 .8 0 1.2.1v-.1c0-.3-.1-.6-.3-.7c-.2-.2-.5-.3-.8-.3c-.4 0-.7.1-1.1.3l-.2-.5c.4-.2.9-.3 1.3-.3c.5 0 .9.2 1.2.4c.3.3.4.6.4 1.1c-.02-.01 0 2.2 0 2.2h-.5v-.5s-.04-.05 0 0zm-1.2.1c.3 0 .6 0 .8-.2c.2-.2.4-.4.4-.7v-.4c-.4-.1-.8-.1-1.1-.1c-.3 0-.6 0-.8.2c-.2.1-.3.3-.3.5c0 .2.1.4.3.6c.2.1.4.1.7.1zm2.8.4v-5.1h.6s-.04 2.11 0 2.1c.3-.5.7-.7 1.2-.7c.4 0 .8.1 1 .4c.3.3.4.6.4 1.1c-.01-.05 0 2.2 0 2.2h-.6s.05-2.11 0-2.1c0-.4 0-.6-.2-.8c-.2-.2-.4-.3-.8-.3c-.3 0-.5.1-.7.3c-.2.2-.3.5-.3.8c-.04.03 0 2.1 0 2.1h-.6zm6.2-.1c-.2.1-.4.2-.7.2c-.3 0-.5-.1-.7-.3c-.2-.2-.3-.4-.3-.8c.03.04 0-2.1 0-2.1h-.5v-.5h.5v-1.1h.6v1.1h1.1v.5h-1.1s-.04 2.07 0 2.1c0 .4.2.6.6.6c.2 0 .3-.1.5-.2v.5s0 .01 0 0zm3.4-.4c-.4.4-.8.6-1.4.6c-.3 0-.6-.1-.9-.3c-.3-.2-.4-.5-.4-.9c0-.3.1-.6.4-.8c.3-.2.7-.3 1.1-.3c.4 0 .8 0 1.2.1v-.1c0-.3-.1-.6-.3-.7c-.2-.2-.5-.3-.8-.3c-.4 0-.8.1-1.1.3l-.2-.5c.4-.2.9-.3 1.3-.3c.5 0 .9.2 1.2.4c.2.3.4.6.4 1.1c-.03-.01 0 2.2 0 2.2h-.5v-.5s-.05-.05 0 0zm-1.3.1c.4 0 .7 0 .9-.2c.2-.2.4-.4.4-.7v-.4c-.4-.1-.8-.1-1.1-.1c-.3 0-.6 0-.8.2c-.2.1-.3.3-.3.5c0 .2.1.4.3.6c.2.1.4.1.6.1zm4.1.5c-.5 0-1-.2-1.5-.6l.3-.3c.4.3.8.4 1.2.4c.3 0 .4 0 .6-.1c.1-.1.2-.3.2-.5c0-.1-.1-.3-.2-.4c-.2 0-.4-.1-.7-.2c-.1 0-.2-.1-.3-.1c-.1 0-.1-.1-.3-.1c-.1 0-.2-.1-.2-.1l-.2-.2l-.2-.2v-.3c0-.4.1-.6.3-.8c.3-.2.6-.3.9-.3c.5 0 .9.2 1.3.4l-.2.4c-.4-.2-.7-.3-1.1-.3c-.2 0-.4 0-.5.1c-.1.1-.2.2-.2.4c0 .1 0 .1.1.2s0 .1.1.1c0 .1.1.1.2.2h.3c0 .1.1.1.2.1c.2.1.3.1.4.1c.1.1.2.1.3.2c.1 0 .2.1.3.2c0 0 .1.1.1.2c.1.1.1.2.1.4c0 .3-.1.6-.4.8c-.2.2-.5.3-.9.3zm2.4-.1v-3.6h.5v3.6h-.5z" stroke="none" fill="#000"/></g><g id="Polygon362231"><path d="m3 40.2V39H.4l-.1-.4l2.8-3.3h.5v3.3h.7v.4h-.7v1.2h-.6zm-2-1.6h2V36l-2 2.6zm8.8 1.1c-.3.4-.8.6-1.3.6c-.4 0-.7-.1-1-.3c-.2-.2-.4-.5-.4-.9c0-.3.2-.6.4-.8c.3-.2.7-.3 1.2-.3c.3 0 .7 0 1.1.1v-.1c0-.3-.1-.6-.3-.7c-.2-.2-.4-.3-.8-.3c-.4 0-.7.1-1.1.3l-.2-.5c.5-.2.9-.3 1.4-.3c.5 0 .9.2 1.1.4c.3.3.4.6.4 1.1v2.2h-.5v-.5s-.01-.05 0 0zm-1.2.1c.3 0 .6 0 .8-.2c.3-.2.4-.4.4-.7v-.4c-.4-.1-.7-.1-1.1-.1c-.3 0-.6 0-.8.2c-.1.1-.2.3-.2.5c0 .2.1.4.2.6c.2.1.4.1.7.1zm5.8-.3c-.4.5-.9.8-1.4.8c-.5 0-.9-.2-1.2-.5c-.4-.4-.6-.8-.6-1.4c0-.6.2-1 .6-1.4c.3-.3.7-.5 1.2-.5c.5 0 1 .3 1.4.8c-.04-.03 0-2.2 0-2.2h.5v5.1h-.5v-.7s-.04-.03 0 0zm-1.3.3c.3 0 .6-.1.9-.4c.2-.3.4-.6.4-1c0-.4-.2-.8-.4-1c-.3-.3-.6-.4-.9-.4c-.4 0-.7.1-.9.4c-.3.2-.4.6-.4 1c0 .4.1.8.4 1c.2.3.5.4.9.4zm6.1-.2c-.4.5-.9.7-1.5.7c-.5 0-.9-.2-1.3-.5c-.3-.4-.5-.8-.5-1.4c0-.5.1-1 .5-1.4c.3-.3.7-.5 1.2-.5c.5 0 .9.2 1.2.5c.3.4.5.9.5 1.4v.2h-2.9c.1.4.2.7.4.9c.3.2.6.3.9.3c.4 0 .8-.2 1.1-.5c.04 0 .4.3.4.3c0 0-.03 0 0 0zm-2.8-1.4h2.4c-.1-.4-.2-.7-.4-.9c-.2-.2-.5-.3-.8-.3c-.3 0-.6.1-.8.3c-.2.2-.3.5-.4.9zm5.7 1.9c-.2.1-.4.2-.6.2c-.4 0-.6-.1-.8-.3c-.2-.2-.3-.4-.3-.8c.03.04 0-2.1 0-2.1h-.5v-.5h.5v-1.1h.6v1.1h1.1v.5H21s-.03 2.07 0 2.1c0 .4.2.6.6.6c.2 0 .3-.1.5-.2v.5s.01.01 0 0zm5 .2c-.6 0-1-.3-1.4-.8v.7h-.5v-5.1h.5s.01 2.21 0 2.2c.4-.5.9-.8 1.4-.8c.5 0 .9.2 1.2.5c.4.4.5.8.5 1.4c0 .6-.1 1-.5 1.4c-.3.3-.7.5-1.2.5zm-.1-.5c.4 0 .7-.1.9-.4c.3-.2.4-.6.4-1c0-.4-.1-.8-.4-1c-.2-.3-.5-.4-.9-.4c-.3 0-.7.1-.9.4c-.3.3-.4.6-.4 1c0 .4.1.7.4 1c.2.3.5.4.9.4zm4.6-3.8v-.6h.7v.6h-.7zm-1.2 0v-.6h.6v.6h-.6zm2 3.6c-.3.4-.7.7-1.3.7c-.4 0-.7-.2-1-.4c-.2-.3-.3-.6-.3-1.1c-.04.03 0-2.2 0-2.2h.5v2.1c0 .3.1.6.3.8c.1.2.4.3.7.3c.3 0 .6-.1.8-.3c.2-.2.3-.5.3-.8v-2.1h.5v3.6h-.5v-.6s-.01-.03 0 0zm3.3 0l1.1-3h.6l-1.5 3.7c-.2.4-.3.6-.5.8c-.2.2-.4.2-.7.2c-.3 0-.5 0-.8-.1l.2-.5c.2.1.4.2.6.2c.1 0 .3-.1.4-.2c.1-.1.2-.3.3-.5c.01-.01-1.6-3.6-1.6-3.6h.6l1.3 3z" stroke="none" fill="#4f4f4e"/></g><g id="Polygon362230"><path d="m3 12.9v-.7h.6v.7h-.6zm-1.3 0v-.7h.6v.7h-.6zm1 5.4c-.7 0-1.2-.2-1.5-.6c-.4-.4-.6-.9-.6-1.6c.02.05 0-2.8 0-2.8h.6s-.03 2.81 0 2.8c0 .5.1.9.4 1.2c.2.3.6.5 1.1.5c.4 0 .8-.2 1.1-.4c.2-.3.3-.7.3-1.3c.04.05 0-2.8 0-2.8h.6v2.8c0 .7-.2 1.2-.6 1.6c-.3.4-.8.6-1.4.6zm3.2-.1v-3.6h.6s-.05.93 0 .9c.1-.3.3-.5.5-.7c.3-.2.6-.3.9-.3c.03.02 0 .6 0 .6c0 0-.01 0 0 0c-.4 0-.8.1-1 .4c-.3.3-.4.7-.4 1.3c-.05-.04 0 1.4 0 1.4h-.6zm4.7-4.2v-.6h.6v.6h-.6zm-1.3 0v-.6h.7v.6h-.7zm2 3.6c-.3.4-.7.7-1.2.7c-.4 0-.8-.2-1-.4c-.3-.3-.4-.6-.4-1.1c-.01.03 0-2.2 0-2.2h.5s.03 2.09 0 2.1c0 .3.1.6.3.8c.2.2.4.3.7.3c.3 0 .6-.1.8-.3c.2-.2.3-.5.3-.8c.02-.05 0-2.1 0-2.1h.6v3.6h-.6v-.6s.02-.03 0 0zm1.8.6v-3.6h.5v.6c.3-.5.7-.7 1.2-.7c.5 0 .8.1 1.1.4c.2.3.3.6.3 1.1c.03-.05 0 2.2 0 2.2h-.5v-2.1c0-.4-.1-.6-.3-.8c-.2-.2-.4-.3-.7-.3c-.3 0-.6.1-.8.3c-.2.2-.3.5-.3.8v2.1h-.5zm6.5 0v-4.9h.5v2.9l2.8-2.9h.8l-2.2 2.1l2.2 2.8h-.7l-1.8-2.4l-1.1 1.1v1.3h-.5zm6.3.1c-.5 0-.9-.2-1.3-.6c-.3-.3-.5-.8-.5-1.3c0-.5.2-1 .5-1.3c.4-.4.8-.6 1.4-.6c.5 0 .9.2 1.3.6c.4.3.5.8.5 1.3c0 .5-.1 1-.5 1.3c-.4.4-.8.6-1.4.6zm.1-.5c.3 0 .7-.1.9-.4c.3-.3.4-.6.4-1c0-.4-.1-.7-.4-1c-.3-.3-.6-.4-1-.4c-.3 0-.6.1-.9.4c-.2.3-.4.6-.4 1c0 .4.2.7.4 1c.3.3.6.4 1 .4zm5.7-.3c-.3.5-.8.8-1.4.8c-.4 0-.8-.2-1.2-.5c-.3-.4-.5-.8-.5-1.4c0-.6.2-1 .5-1.4c.4-.3.8-.5 1.2-.5c.6 0 1.1.3 1.4.8c.02-.03 0-2.2 0-2.2h.6v5.1h-.6v-.7s.02-.03 0 0zm-1.3.3c.4 0 .7-.1 1-.4c.2-.3.3-.6.3-1c0-.4-.1-.8-.3-1c-.3-.3-.6-.4-1-.4c-.3 0-.6.1-.9.4c-.2.2-.3.6-.3 1c0 .4.1.8.3 1c.3.3.6.4.9.4zm5.6-.2c-.3.4-.7.7-1.2.7c-.4 0-.8-.2-1-.4c-.3-.3-.4-.6-.4-1.1c.01.03 0-2.2 0-2.2h.6s-.05 2.09 0 2.1c0 .3 0 .6.2.8c.2.2.4.3.8.3c.3 0 .5-.1.7-.3c.2-.2.3-.5.3-.8c.04-.05 0-2.1 0-2.1h.6v3.6h-.6v-.6s.04-.03 0 0zm1.7-2.3v-.7h.7v.7h-.7zm0 2.9v-.7h.7v.7h-.7zm5.9.1c-.6 0-1.2-.3-1.6-.7c-.4-.5-.6-1.1-.6-1.8v-.1c0-.7.2-1.3.6-1.8c.4-.4 1-.7 1.6-.7c.7 0 1.2.3 1.6.7c.4.5.6 1.1.6 1.8c0 .8-.2 1.4-.6 1.9c-.4.4-1 .7-1.6.7zm-1.1-2.6c0 .5.1.9.3 1.2c.2.3.5.4.8.4c.3 0 .6-.1.8-.4c.2-.3.3-.7.3-1.1v-.1c0-.4-.1-.8-.3-1.1c-.2-.3-.5-.4-.8-.4c-.3 0-.6.1-.8.4c-.2.3-.3.7-.3 1.1c.04.04 0 0 0 0c0 0 .04.05 0 0zm6.2 2.6c-.6 0-1.2-.3-1.6-.7c-.4-.5-.6-1.1-.6-1.8v-.1c0-.7.2-1.3.7-1.8c.4-.4.9-.7 1.5-.7c.7 0 1.2.3 1.6.7c.4.5.6 1.1.6 1.8c0 .8-.2 1.4-.6 1.9c-.4.4-.9.7-1.6.7zm-1.1-2.6c0 .5.1.9.3 1.2c.2.3.5.4.8.4c.3 0 .6-.1.8-.4c.2-.3.3-.7.3-1.1v-.1c0-.4-.1-.8-.3-1.1c-.2-.3-.5-.4-.8-.4c-.3 0-.6.1-.8.4c-.2.3-.3.7-.3 1.1c.05.04 0 0 0 0c0 0 .05.05 0 0zm3.9 2.5v-.9l1.7-1.3l.6-.6c.2-.2.2-.4.2-.6c0-.2 0-.3-.2-.4c-.1-.1-.2-.2-.4-.2c-.2 0-.4 0-.5.1c-.2.1-.3.3-.5.6l-.8-.7c.3-.3.5-.6.8-.7c.3-.2.6-.3 1-.3c.5 0 .9.2 1.3.4c.3.3.4.7.4 1.1v.1c0 .3-.1.7-.3.9c-.1.3-.5.6-1 1c.04-.05-.8.6-.8.6h2.2v.9h-3.7zm4.4 0v-.9s1.64-1.29 1.6-1.3c.4-.3.6-.5.7-.6c.1-.2.2-.4.2-.6c0-.2-.1-.3-.2-.4c-.1-.1-.3-.2-.5-.2c-.2 0-.3 0-.5.1c-.1.1-.3.3-.5.6l-.7-.7c.2-.3.5-.6.8-.7c.2-.2.6-.3 1-.3c.5 0 .9.2 1.2.4c.3.3.5.7.5 1.1v.1c0 .3-.1.7-.3.9c-.2.3-.5.6-1 1c0-.05-.8.6-.8.6h2.1v.9h-3.6zm6.7 0v-1.1h-2.4l-.2-.7l2.7-3.1h.9v3h.7v.8h-.7v1.1h-1zm-1.3-1.9h1.3v-1.6l-1.3 1.6z" stroke="none" fill="#4f4f4e"/></g><g id="Polygon362229"><path d="m.8 7.2V.9h1.3v2.8L4.7.9h1.7L3.8 3.6l2.7 3.6H4.8L2.9 4.5l-.8.8v1.9H.8zm10.4-.8c-.5.6-1.2.9-2 .9c-.7 0-1.3-.2-1.8-.7c-.5-.5-.7-1.1-.7-1.8c0-.7.2-1.3.7-1.8c.4-.5 1-.7 1.7-.7c.7 0 1.3.2 1.7.7c.4.5.6 1.2.6 1.9v.4H8c.1.3.2.5.4.7c.2.1.5.2.8.2c.4 0 .8-.2 1.2-.5c-.01.01.8.7.8.7c0 0-.03.01 0 0zM8 4.4h2.1c-.1-.3-.2-.6-.3-.7c-.2-.2-.5-.3-.7-.3c-.3 0-.6.1-.7.3c-.2.1-.3.4-.4.7zm6.1 2.9c-.7 0-1.4-.3-2-.7l.5-.9c.6.3 1.1.5 1.6.5c.3 0 .5-.1.5-.3v-.2l-.1-.1h-.1c0-.1-.1-.1-.2-.1c0 0-.1 0-.1-.1h-.2c-.1-.1-.2-.1-.3-.1c-.2-.1-.3-.1-.5-.2c-.1 0-.3-.1-.4-.2c-.2-.1-.3-.3-.4-.5c-.1-.1-.1-.3-.1-.5v-.1c0-.4.2-.8.5-1.1c.3-.3.8-.4 1.3-.4c.6 0 1.2.2 1.8.6l-.6.9c-.5-.3-.9-.4-1.3-.4c-.1 0-.3 0-.3.1c-.1 0-.2.1-.2.2c0 .1.1.2.3.3c.1.1.4.2.7.3c.2 0 .4.1.5.2c.2 0 .3.1.5.2c.1.2.3.3.3.5c.1.1.2.3.2.5c0 .5-.2.9-.5 1.2c-.4.3-.8.4-1.4.4zm2.8-.1V2.4h1.4v.7c.4-.6.9-.8 1.4-.8c.7 0 1.1.2 1.4.8c.4-.6.9-.8 1.6-.8c.5 0 .9.1 1.2.4c.3.3.4.8.4 1.4v3.1h-1.4s.04-2.69 0-2.7c0-.6-.2-1-.8-1c-.2 0-.4.1-.6.3c-.1.1-.2.4-.2.7v2.7h-1.4s.04-2.69 0-2.7c0-.6-.2-1-.8-1c-.2 0-.4.1-.6.3c-.1.1-.2.4-.2.7v2.7h-1.4zm12.9-.8c-.5.6-1.2.9-2 .9c-.7 0-1.4-.2-1.8-.7c-.5-.5-.7-1.1-.7-1.8c0-.7.2-1.3.6-1.8c.5-.5 1.1-.7 1.7-.7c.8 0 1.4.2 1.8.7c.4.5.6 1.2.6 1.9v.4h-3.4c.1.3.2.5.4.7c.2.1.5.2.8.2c.4 0 .8-.2 1.2-.5c-.03.01.8.7.8.7c0 0-.05.01 0 0zm-3.2-2h2.1c-.1-.3-.2-.6-.4-.7c-.1-.2-.4-.3-.7-.3c-.2 0-.5.1-.6.3c-.2.1-.3.4-.4.7zm8.7 2.8v-5h-1.9V.9h5.2v1.3h-1.9v5h-1.4zm6.1-.5c-.3.4-.8.6-1.4.6c-.5 0-.9-.1-1.2-.4c-.3-.3-.5-.6-.5-1.1c0-.5.2-.9.5-1.2c.4-.2.9-.3 1.5-.3c.3 0 .7 0 1.1.2v-.1c0-.6-.3-.9-1-.9c-.4 0-.9.1-1.3.3l-.4-1.1c.6-.2 1.3-.4 1.9-.4c.7 0 1.3.2 1.6.6c.4.3.6.8.6 1.5c-.05 0 0 2.8 0 2.8h-1.4v-.5s.03-.02 0 0zm-1-.4c.3 0 .6 0 .8-.2c.2-.1.3-.3.3-.6v-.2c-.3-.2-.6-.2-.9-.2c-.3 0-.5 0-.7.1c-.2.2-.3.3-.3.5v.1c0 .1.1.3.2.4c.2.1.4.1.6.1zm3.5.9V.6h1.4v2.5c.4-.6.9-.8 1.4-.8c.5 0 .9.1 1.2.5c.3.3.4.7.4 1.3c.05-.02 0 3.1 0 3.1H47s-.02-2.69 0-2.7c0-.6-.3-1-.8-1c-.3 0-.5.1-.7.3c-.1.1-.2.4-.2.7v2.7h-1.4zm8.3-.2c-.3.2-.6.3-1 .3c-.5 0-.8-.1-1.1-.3c-.2-.3-.3-.6-.3-1.2c-.04.03 0-2.3 0-2.3h-.6V2.4h.6V1.1h1.3v1.3h1.2v1.1h-1.2s.03 2.11 0 2.1c0 .3.2.5.5.5c.2 0 .4-.1.6-.2c.04 0 0 1.1 0 1.1c0 0 .04 0 0 0zm3.9-.3c-.4.4-.9.6-1.5.6c-.4 0-.8-.1-1.1-.4c-.4-.3-.5-.6-.5-1.1c0-.5.2-.9.5-1.2c.4-.2.8-.3 1.4-.3c.4 0 .8 0 1.2.2v-.1c0-.6-.3-.9-1-.9c-.5 0-.9.1-1.4.3l-.3-1.1c.6-.2 1.2-.4 1.9-.4c.7 0 1.2.2 1.6.6c.3.3.5.8.5 1.5c.02 0 0 2.8 0 2.8h-1.3v-.5s0-.02 0 0zm-1-.4c.3 0 .5 0 .7-.2c.2-.1.3-.3.3-.6v-.2c-.2-.2-.5-.2-.8-.2c-.3 0-.6 0-.7.1c-.2.2-.3.3-.3.5v.1c0 .1.1.3.2.4c.2.1.3.1.6.1zm5.2 1c-.8 0-1.5-.3-2.1-.7l.6-.9c.5.3 1 .5 1.5.5c.4 0 .6-.1.6-.3v-.2s-.1 0-.1-.1h-.1c-.1-.1-.1-.1-.2-.1c-.1 0-.1 0-.2-.1h-.2c-.1-.1-.1-.1-.2-.1c-.2-.1-.4-.1-.5-.2c-.2 0-.3-.1-.5-.2c-.1-.1-.2-.3-.3-.5c-.1-.1-.1-.3-.1-.5v-.1c0-.4.1-.8.5-1.1c.3-.3.7-.4 1.2-.4c.7 0 1.3.2 1.8.6l-.5.9c-.5-.3-.9-.4-1.3-.4c-.2 0-.3 0-.4.1c-.1 0-.1.1-.1.2c0 .1.1.2.2.3c.2.1.5.2.8.3c.2 0 .4.1.5.2c.1 0 .3.1.4.2c.2.2.3.3.4.5c.1.1.1.3.1.5c0 .5-.1.9-.5 1.2c-.3.3-.8.4-1.3.4zm2.9-.1V2.4h1.3v4.8h-1.3zm6.9 0v-5h-1.9V.9h5.2v1.3h-1.9v5h-1.4zm7.6-.8c-.5.6-1.2.9-2 .9c-.7 0-1.3-.2-1.8-.7c-.5-.5-.7-1.1-.7-1.8c0-.7.2-1.3.7-1.8c.4-.5 1-.7 1.7-.7c.7 0 1.3.2 1.7.7c.4.5.6 1.2.6 1.9v.4h-3.4c.1.3.2.5.5.7c.2.1.4.2.7.2c.4 0 .8-.2 1.2-.5l.8.7s-.02.01 0 0zm-3.2-2h2.1c-.1-.3-.2-.6-.3-.7c-.2-.2-.4-.3-.7-.3c-.3 0-.5.1-.7.3c-.2.1-.3.4-.4.7zm6 4.4l-1.2-.5s.73-1.07.7-1.1c-.5-.1-1-.3-1.4-.6l.5-.9c.6.3 1.1.5 1.6.5c.4 0 .5-.1.5-.3v-.2l-.1-.1h-.1c0-.1-.1-.1-.1-.1c-.1 0-.2 0-.2-.1h-.2c-.1-.1-.2-.1-.3-.1c-.2-.1-.3-.1-.5-.2c-.1 0-.3-.1-.4-.2c-.2-.1-.3-.3-.4-.5c-.1-.1-.1-.3-.1-.5v-.1c0-.4.2-.8.5-1.1c.3-.3.8-.4 1.3-.4c.6 0 1.2.2 1.8.6l-.6.9c-.5-.3-.9-.4-1.3-.4c-.1 0-.2 0-.3.1c-.1 0-.2.1-.2.2c0 .1.1.2.3.3c.1.1.4.2.7.3c.2 0 .4.1.5.2c.2 0 .3.1.5.2c.1.2.3.3.3.5c.1.1.2.3.2.5c0 .5-.2.8-.4 1.1c-.3.2-.6.4-1 .5c-.05-.04-.6 1.5-.6 1.5zm3-1.6V.6h1.3s.02 2.46 0 2.5c.4-.6.9-.8 1.4-.8c.6 0 1 .1 1.2.5c.3.3.5.7.5 1.3c-.02-.02 0 3.1 0 3.1h-1.4V4.5c0-.6-.3-1-.8-1c-.3 0-.5.1-.7.3c-.1.1-.2.4-.2.7c.02.01 0 2.7 0 2.7h-1.3zm5.6-5.4V.6h1.4v1.2h-1.4zm0 5.4V2.4h1.4v4.8h-1.4zm2.7 0V2.4h1.4s-.05.95 0 .9c.3-.7.8-1 1.5-1v1.4s-.08.02-.1 0c-.5 0-.8.2-1.1.4c-.2.3-.3.7-.3 1.3c-.05.02 0 1.8 0 1.8h-1.4zm8.8.1c-1 0-1.9-.3-2.6-1l.8-1c.6.5 1.2.8 1.9.8c.2 0 .5-.1.6-.2c.2-.1.3-.2.3-.4c0-.2-.1-.4-.3-.5c-.2-.1-.5-.2-1-.3c-.4-.1-.6-.2-.9-.3c-.2-.1-.4-.2-.6-.4c-.2-.1-.4-.3-.5-.5c0-.2-.1-.5-.1-.8c0-.6.2-1 .6-1.4c.4-.3 1-.5 1.6-.5c.9 0 1.7.3 2.4.8l-.8 1.1c-.6-.5-1.1-.7-1.6-.7c-.3 0-.5.1-.6.2c-.1.1-.2.2-.2.4c0 .2.1.4.2.5c.2.1.6.2 1.1.3c.7.2 1.2.4 1.6.7c.3.3.4.7.4 1.2c0 .6-.2 1.1-.6 1.5c-.4.3-1 .5-1.7.5zm6.1-.3c-.3.2-.7.3-1.1.3c-.5 0-.8-.1-1.1-.3c-.2-.3-.3-.6-.3-1.2c-.02.03 0-2.3 0-2.3h-.6V2.4h.6V1.1h1.4v1.3h1.1v1.1h-1.1s-.05 2.11 0 2.1c0 .3.1.5.4.5c.2 0 .5-.1.7-.2c-.03 0 0 1.1 0 1.1c0 0-.03 0 0 0zm3.8-.3c-.3.4-.8.6-1.4.6c-.5 0-.9-.1-1.2-.4c-.3-.3-.5-.6-.5-1.1c0-.5.2-.9.5-1.2c.4-.2.9-.3 1.4-.3c.4 0 .8 0 1.2.2v-.1c0-.6-.3-.9-1-.9c-.4 0-.9.1-1.3.3l-.4-1.1c.6-.2 1.2-.4 1.9-.4c.7 0 1.3.2 1.6.6c.4.3.5.8.5 1.5c.04 0 0 2.8 0 2.8h-1.3v-.5s.02-.02 0 0zm-1-.4c.3 0 .6 0 .8-.2c.1-.1.2-.3.2-.6v-.2c-.2-.2-.5-.2-.8-.2c-.3 0-.6 0-.7.1c-.2.2-.3.3-.3.5v.1c0 .1.1.3.2.4c.2.1.4.1.6.1zm3.5.9V2.4h1.4v.7c.4-.6.9-.8 1.4-.8c.5 0 .9.1 1.2.5c.3.3.4.7.4 1.3c.04-.02 0 3.1 0 3.1h-1.3s-.03-2.69 0-2.7c0-.6-.3-1-.9-1c-.2 0-.4.1-.6.3c-.1.1-.2.4-.2.7v2.7H113zm9.1-.7c-.4.5-.9.8-1.5.8c-.6 0-1.1-.2-1.5-.7c-.5-.4-.7-1-.7-1.8c0-.8.2-1.4.7-1.8c.4-.5.9-.7 1.5-.7c.6 0 1.1.2 1.5.7V.6h1.4v6.6h-1.4v-.7s.01.01 0 0zm-2.3-1.7c0 .4.1.7.3 1c.3.2.5.3.9.3c.3 0 .6-.1.8-.3c.2-.3.3-.6.3-1c0-.4-.1-.7-.3-1c-.2-.2-.5-.4-.8-.4c-.4 0-.6.2-.9.4c-.2.3-.3.6-.3 1c-.02-.02 0 0 0 0c0 0-.02 0 0 0zm5 2.4V2.4h1.3v4.8h-1.3z" stroke="none" fill="#4f4f4e"/></g></svg>