<?xml version="1.0" standalone="no"?><!DOCTYPE svg PUBLIC "-//W3C//DTD SVG 1.1//EN" "http://www.w3.org/Graphics/SVG/1.1/DTD/svg11.dtd"><svg xmlns="http://www.w3.org/2000/svg" version="1.1" width="146.5px" height="119.4px" viewBox="0 -3 146.5 119.4" style="top:-3px">  <desc>Biber De irmeni – X PLOSION® L r n Kodu: 34629 Harici 16 kademeli tme ayar , ince tozdan ekstra kal na 7,5 cm, ...</desc>  <defs/>  <g id="Polygon371570">    <path d="M 4.9 42.3 L 5.5 42.3 C 5.5 42.3 4.84 43.03 4.8 43 C 5.3 43.5 5.5 44.1 5.5 44.7 C 5.5 44.7 5.5 44.7 5.5 44.7 C 5.5 45.4 5.2 46 4.8 46.5 C 4.3 47 3.7 47.3 3 47.3 C 2.4 47.3 1.9 47.1 1.4 46.8 C 1.43 46.77 1 47.2 1 47.2 L 0.4 47.2 C 0.4 47.2 1.11 46.48 1.1 46.5 C 0.7 46 0.5 45.4 0.5 44.8 C 0.5 44.8 0.5 44.7 0.5 44.7 C 0.5 44.1 0.7 43.5 1.2 43 C 1.7 42.5 2.3 42.2 3 42.2 C 3.6 42.2 4.1 42.4 4.5 42.7 C 4.52 42.73 4.9 42.3 4.9 42.3 Z M 1 44.7 C 1 44.7 1 44.7 1 44.7 C 1 45.3 1.2 45.7 1.5 46.1 C 1.5 46.1 4.2 43.1 4.2 43.1 C 3.8 42.9 3.4 42.7 3 42.7 C 2.4 42.7 2 42.9 1.6 43.3 C 1.2 43.7 1 44.2 1 44.7 Z M 1.8 46.4 C 2.1 46.6 2.5 46.8 3 46.8 C 3.5 46.8 4 46.6 4.4 46.2 C 4.7 45.8 4.9 45.3 4.9 44.8 C 4.9 44.8 4.9 44.8 4.9 44.8 C 4.9 44.3 4.8 43.8 4.5 43.4 C 4.46 43.43 1.8 46.4 1.8 46.4 C 1.8 46.4 1.78 46.37 1.8 46.4 Z M 9 47.2 L 11.2 42.8 L 8.5 42.8 L 8.5 42.3 L 11.9 42.3 L 11.9 42.7 L 9.6 47.2 L 9 47.2 Z M 11.9 48.1 C 11.9 48.1 11.8 47.8 11.8 47.8 C 12.2 47.7 12.3 47.5 12.3 47.2 C 12.31 47.2 12.1 47.2 12.1 47.2 L 12.1 46.5 L 12.7 46.5 C 12.7 46.5 12.7 47.09 12.7 47.1 C 12.7 47.4 12.6 47.6 12.5 47.7 C 12.4 47.9 12.2 48 11.9 48.1 Z M 15.4 47.3 C 14.7 47.3 14.1 47 13.6 46.5 C 13.6 46.5 14 46.1 14 46.1 C 14.4 46.6 14.9 46.8 15.4 46.8 C 15.7 46.8 16 46.7 16.2 46.5 C 16.4 46.3 16.5 46 16.5 45.7 C 16.5 45.7 16.5 45.7 16.5 45.7 C 16.5 45.4 16.4 45.1 16.2 44.9 C 16 44.7 15.7 44.7 15.3 44.7 C 15 44.7 14.6 44.7 14.3 44.9 C 14.3 44.93 13.9 44.7 13.9 44.7 L 14.1 42.3 L 16.9 42.3 L 16.9 42.8 L 14.6 42.8 C 14.6 42.8 14.45 44.38 14.4 44.4 C 14.8 44.2 15.1 44.2 15.4 44.2 C 15.9 44.2 16.3 44.3 16.6 44.6 C 16.9 44.8 17.1 45.2 17.1 45.7 C 17.1 45.7 17.1 45.7 17.1 45.7 C 17.1 46.1 16.9 46.5 16.6 46.8 C 16.3 47.1 15.9 47.3 15.4 47.3 Z M 23.3 46.6 C 22.9 47.1 22.4 47.3 21.9 47.3 C 21.3 47.3 20.9 47.1 20.5 46.7 C 20.2 46.4 20 45.9 20 45.4 C 20 45.4 20 45.4 20 45.4 C 20 44.9 20.2 44.4 20.5 44.1 C 20.9 43.7 21.3 43.5 21.9 43.5 C 22.4 43.5 22.9 43.7 23.3 44.1 C 23.3 44.1 22.9 44.5 22.9 44.5 C 22.6 44.2 22.2 44 21.8 44 C 21.5 44 21.2 44.1 20.9 44.4 C 20.7 44.7 20.6 45 20.6 45.4 C 20.6 45.4 20.6 45.4 20.6 45.4 C 20.6 45.8 20.7 46.1 20.9 46.4 C 21.2 46.7 21.5 46.8 21.9 46.8 C 22.3 46.8 22.7 46.6 23 46.3 C 22.99 46.26 23.3 46.6 23.3 46.6 C 23.3 46.6 23.33 46.58 23.3 46.6 Z M 24.2 47.2 L 24.2 43.6 L 24.8 43.6 C 24.8 43.6 24.76 44.19 24.8 44.2 C 24.9 44 25.1 43.8 25.2 43.7 C 25.4 43.6 25.6 43.5 25.9 43.5 C 26.5 43.5 26.9 43.7 27.1 44.2 C 27.4 43.7 27.8 43.5 28.4 43.5 C 28.8 43.5 29.1 43.6 29.4 43.9 C 29.6 44.2 29.7 44.5 29.7 45 C 29.71 44.96 29.7 47.2 29.7 47.2 L 29.2 47.2 C 29.2 47.2 29.17 45.09 29.2 45.1 C 29.2 44.7 29.1 44.5 28.9 44.3 C 28.8 44.1 28.5 44 28.2 44 C 28 44 27.7 44.1 27.5 44.3 C 27.3 44.5 27.2 44.8 27.2 45.1 C 27.23 45.11 27.2 47.2 27.2 47.2 L 26.7 47.2 C 26.7 47.2 26.7 45.07 26.7 45.1 C 26.7 44.7 26.6 44.5 26.4 44.3 C 26.3 44.1 26.1 44 25.8 44 C 25.5 44 25.2 44.1 25 44.3 C 24.9 44.5 24.8 44.8 24.8 45.1 C 24.76 45.13 24.8 47.2 24.8 47.2 L 24.2 47.2 Z M 30.7 48.1 C 30.7 48.1 30.6 47.8 30.6 47.8 C 30.9 47.7 31.1 47.5 31 47.2 C 31.05 47.2 30.8 47.2 30.8 47.2 L 30.8 46.5 L 31.4 46.5 C 31.4 46.5 31.44 47.09 31.4 47.1 C 31.4 47.4 31.4 47.6 31.3 47.7 C 31.1 47.9 30.9 48 30.7 48.1 Z M 36.3 47.2 L 36.3 45.3 L 34.3 42.3 L 34.9 42.3 L 36.6 44.7 L 38.2 42.3 L 38.9 42.3 L 36.9 45.3 L 36.9 47.2 L 36.3 47.2 Z M 42.4 47.2 L 42.4 42.8 L 41.5 43.1 L 41.4 42.7 L 42.6 42.3 L 43 42.3 L 43 47.2 L 42.4 47.2 Z M 47.7 45.9 C 47.7 46.3 47.6 46.6 47.2 46.9 C 46.9 47.1 46.4 47.3 45.9 47.3 C 45.4 47.3 44.9 47.1 44.6 46.9 C 44.2 46.6 44.1 46.3 44.1 45.9 C 44.1 45.9 44.1 45.9 44.1 45.9 C 44.1 45.6 44.1 45.3 44.3 45.1 C 44.5 44.9 44.8 44.8 45.1 44.7 C 44.5 44.4 44.2 44 44.2 43.5 C 44.2 43.5 44.2 43.5 44.2 43.5 C 44.2 43.2 44.4 42.8 44.7 42.6 C 45 42.4 45.4 42.2 45.9 42.2 C 46.3 42.2 46.7 42.4 47.1 42.6 C 47.4 42.8 47.6 43.2 47.6 43.5 C 47.6 43.5 47.6 43.5 47.6 43.5 C 47.6 44 47.3 44.4 46.7 44.7 C 47 44.8 47.3 44.9 47.5 45.1 C 47.6 45.3 47.7 45.6 47.7 45.9 C 47.73 45.86 47.7 45.9 47.7 45.9 C 47.7 45.9 47.73 45.88 47.7 45.9 Z M 44.8 43.6 C 44.8 43.8 44.9 44 45.1 44.2 C 45.3 44.4 45.6 44.5 45.9 44.5 C 46.2 44.5 46.5 44.4 46.7 44.2 C 46.9 44 47 43.8 47 43.6 C 47 43.6 47 43.6 47 43.6 C 47 43.3 46.9 43.1 46.7 43 C 46.5 42.8 46.2 42.7 45.9 42.7 C 45.6 42.7 45.3 42.8 45.1 43 C 44.9 43.1 44.8 43.3 44.8 43.6 C 44.77 43.56 44.8 43.6 44.8 43.6 C 44.8 43.6 44.77 43.57 44.8 43.6 Z M 44.6 45.9 C 44.6 46.1 44.7 46.3 45 46.5 C 45.2 46.7 45.5 46.8 45.9 46.8 C 46.3 46.8 46.6 46.7 46.8 46.5 C 47.1 46.3 47.2 46.1 47.2 45.9 C 47.2 45.9 47.2 45.9 47.2 45.9 C 47.2 45.6 47 45.4 46.8 45.2 C 46.6 45 46.3 44.9 45.9 44.9 C 45.5 44.9 45.2 45 45 45.2 C 44.7 45.4 44.6 45.6 44.6 45.9 C 44.61 45.86 44.6 45.9 44.6 45.9 C 44.6 45.9 44.61 45.87 44.6 45.9 Z M 48.5 48.1 C 48.5 48.1 48.4 47.8 48.4 47.8 C 48.8 47.7 48.9 47.5 48.9 47.2 C 48.89 47.2 48.6 47.2 48.6 47.2 L 48.6 46.5 L 49.3 46.5 C 49.3 46.5 49.28 47.09 49.3 47.1 C 49.3 47.4 49.2 47.6 49.1 47.7 C 49 47.9 48.8 48 48.5 48.1 Z M 51.9 47.3 C 51.3 47.3 50.7 47 50.2 46.5 C 50.2 46.5 50.5 46.1 50.5 46.1 C 51 46.6 51.5 46.8 51.9 46.8 C 52.3 46.8 52.6 46.7 52.8 46.5 C 53 46.3 53.1 46 53.1 45.7 C 53.1 45.7 53.1 45.7 53.1 45.7 C 53.1 45.4 53 45.1 52.8 44.9 C 52.6 44.7 52.3 44.7 51.9 44.7 C 51.6 44.7 51.2 44.7 50.9 44.9 C 50.88 44.93 50.5 44.7 50.5 44.7 L 50.6 42.3 L 53.5 42.3 L 53.5 42.8 L 51.1 42.8 C 51.1 42.8 51.02 44.38 51 44.4 C 51.3 44.2 51.7 44.2 52 44.2 C 52.5 44.2 52.9 44.3 53.2 44.6 C 53.5 44.8 53.7 45.2 53.7 45.7 C 53.7 45.7 53.7 45.7 53.7 45.7 C 53.7 46.1 53.5 46.5 53.2 46.8 C 52.9 47.1 52.5 47.3 51.9 47.3 Z M 59.9 46.6 C 59.5 47.1 59 47.3 58.4 47.3 C 57.9 47.3 57.5 47.1 57.1 46.7 C 56.8 46.4 56.6 45.9 56.6 45.4 C 56.6 45.4 56.6 45.4 56.6 45.4 C 56.6 44.9 56.8 44.4 57.1 44.1 C 57.5 43.7 57.9 43.5 58.4 43.5 C 59 43.5 59.5 43.7 59.9 44.1 C 59.9 44.1 59.5 44.5 59.5 44.5 C 59.2 44.2 58.8 44 58.4 44 C 58.1 44 57.7 44.1 57.5 44.4 C 57.3 44.7 57.1 45 57.1 45.4 C 57.1 45.4 57.1 45.4 57.1 45.4 C 57.1 45.8 57.3 46.1 57.5 46.4 C 57.8 46.7 58.1 46.8 58.5 46.8 C 58.9 46.8 59.2 46.6 59.6 46.3 C 59.56 46.26 59.9 46.6 59.9 46.6 C 59.9 46.6 59.91 46.58 59.9 46.6 Z M 60.8 47.2 L 60.8 43.6 L 61.3 43.6 C 61.3 43.6 61.33 44.19 61.3 44.2 C 61.5 44 61.6 43.8 61.8 43.7 C 62 43.6 62.2 43.5 62.5 43.5 C 63 43.5 63.4 43.7 63.7 44.2 C 64 43.7 64.4 43.5 64.9 43.5 C 65.4 43.5 65.7 43.6 65.9 43.9 C 66.2 44.2 66.3 44.5 66.3 45 C 66.28 44.96 66.3 47.2 66.3 47.2 L 65.7 47.2 C 65.7 47.2 65.74 45.09 65.7 45.1 C 65.7 44.7 65.7 44.5 65.5 44.3 C 65.3 44.1 65.1 44 64.8 44 C 64.5 44 64.3 44.1 64.1 44.3 C 63.9 44.5 63.8 44.8 63.8 45.1 C 63.81 45.11 63.8 47.2 63.8 47.2 L 63.3 47.2 C 63.3 47.2 63.27 45.07 63.3 45.1 C 63.3 44.7 63.2 44.5 63 44.3 C 62.9 44.1 62.6 44 62.3 44 C 62.1 44 61.8 44.1 61.6 44.3 C 61.4 44.5 61.3 44.8 61.3 45.1 C 61.33 45.13 61.3 47.2 61.3 47.2 L 60.8 47.2 Z " stroke="none" fill="#4f4f4e"/>  </g>  <g id="Polygon371569">    <path d="M 2.5 36.7 C 2.3 36.8 2.1 36.9 1.8 36.9 C 1.5 36.9 1.3 36.8 1.1 36.6 C 0.9 36.4 0.8 36.2 0.8 35.8 C 0.79 35.84 0.8 33.7 0.8 33.7 L 0.3 33.7 L 0.3 33.2 L 0.8 33.2 L 0.8 32.1 L 1.3 32.1 L 1.3 33.2 L 2.5 33.2 L 2.5 33.7 L 1.3 33.7 C 1.3 33.7 1.33 35.77 1.3 35.8 C 1.3 36.2 1.5 36.4 1.9 36.4 C 2.1 36.4 2.3 36.3 2.5 36.2 C 2.46 36.25 2.5 36.7 2.5 36.7 C 2.5 36.7 2.46 36.71 2.5 36.7 Z M 5 36.9 C 4.4 36.9 4 36.7 3.6 36.3 C 3.3 36 3.1 35.5 3.1 35 C 3.1 35 3.1 35 3.1 35 C 3.1 34.5 3.3 34 3.6 33.7 C 4 33.3 4.4 33.1 5 33.1 C 5.5 33.1 6 33.3 6.3 33.7 C 6.7 34 6.9 34.5 6.9 35 C 6.9 35 6.9 35 6.9 35 C 6.9 35.5 6.7 36 6.3 36.3 C 6 36.7 5.5 36.9 5 36.9 Z M 5 36.4 C 5.4 36.4 5.7 36.3 5.9 36 C 6.2 35.7 6.3 35.4 6.3 35 C 6.3 35 6.3 35 6.3 35 C 6.3 34.6 6.2 34.3 5.9 34 C 5.7 33.7 5.4 33.6 5 33.6 C 4.6 33.6 4.3 33.7 4 34 C 3.8 34.3 3.7 34.6 3.7 35 C 3.7 35 3.7 35 3.7 35 C 3.7 35.4 3.8 35.7 4 36 C 4.3 36.3 4.6 36.4 5 36.4 Z M 7.5 36.8 L 7.5 36.5 L 9.9 33.6 L 7.6 33.6 L 7.6 33.2 L 10.6 33.2 L 10.6 33.5 L 8.2 36.3 L 10.6 36.3 L 10.6 36.8 L 7.5 36.8 Z M 14.4 36.1 C 14 36.6 13.6 36.9 13 36.9 C 12.6 36.9 12.1 36.7 11.8 36.4 C 11.5 36 11.3 35.6 11.3 35 C 11.3 35 11.3 35 11.3 35 C 11.3 34.4 11.5 34 11.8 33.6 C 12.1 33.3 12.6 33.1 13 33.1 C 13.6 33.1 14 33.4 14.4 33.9 C 14.4 33.87 14.4 31.7 14.4 31.7 L 14.9 31.7 L 14.9 36.8 L 14.4 36.8 L 14.4 36.1 C 14.4 36.1 14.4 36.07 14.4 36.1 Z M 13.1 36.4 C 13.5 36.4 13.8 36.3 14 36 C 14.3 35.7 14.4 35.4 14.4 35 C 14.4 35 14.4 35 14.4 35 C 14.4 34.6 14.3 34.2 14 34 C 13.8 33.7 13.5 33.6 13.1 33.6 C 12.7 33.6 12.4 33.7 12.2 34 C 12 34.2 11.8 34.6 11.8 35 C 11.8 35 11.8 35 11.8 35 C 11.8 35.4 12 35.8 12.2 36 C 12.4 36.3 12.8 36.4 13.1 36.4 Z M 18.5 36.3 C 18.2 36.7 17.8 36.9 17.2 36.9 C 16.9 36.9 16.5 36.8 16.3 36.6 C 16 36.4 15.9 36.1 15.9 35.7 C 15.9 35.7 15.9 35.7 15.9 35.7 C 15.9 35.4 16 35.1 16.3 34.9 C 16.6 34.7 16.9 34.6 17.4 34.6 C 17.8 34.6 18.2 34.6 18.5 34.7 C 18.5 34.7 18.5 34.6 18.5 34.6 C 18.5 34.3 18.4 34 18.2 33.9 C 18.1 33.7 17.8 33.6 17.5 33.6 C 17.1 33.6 16.7 33.7 16.4 33.9 C 16.4 33.9 16.2 33.4 16.2 33.4 C 16.6 33.2 17.1 33.1 17.5 33.1 C 18 33.1 18.4 33.3 18.7 33.5 C 18.9 33.8 19 34.1 19 34.6 C 19.05 34.59 19 36.8 19 36.8 L 18.5 36.8 L 18.5 36.3 C 18.5 36.3 18.53 36.25 18.5 36.3 Z M 17.3 36.4 C 17.7 36.4 18 36.4 18.2 36.2 C 18.4 36 18.5 35.8 18.5 35.5 C 18.5 35.5 18.5 35.1 18.5 35.1 C 18.2 35 17.8 35 17.5 35 C 17.1 35 16.9 35 16.7 35.2 C 16.5 35.3 16.4 35.5 16.4 35.7 C 16.4 35.7 16.4 35.7 16.4 35.7 C 16.4 35.9 16.5 36.1 16.7 36.3 C 16.9 36.4 17.1 36.4 17.3 36.4 Z M 20.2 36.8 L 20.2 33.2 L 20.7 33.2 C 20.7 33.2 20.73 33.81 20.7 33.8 C 21 33.3 21.4 33.1 22 33.1 C 22.4 33.1 22.7 33.2 23 33.5 C 23.2 33.8 23.4 34.1 23.4 34.6 C 23.36 34.55 23.4 36.8 23.4 36.8 L 22.8 36.8 C 22.8 36.8 22.82 34.69 22.8 34.7 C 22.8 34.3 22.7 34.1 22.6 33.9 C 22.4 33.7 22.1 33.6 21.8 33.6 C 21.5 33.6 21.2 33.7 21 33.9 C 20.8 34.1 20.7 34.4 20.7 34.7 C 20.73 34.73 20.7 36.8 20.7 36.8 L 20.2 36.8 Z M 29.7 36.2 C 29.3 36.7 28.8 36.9 28.2 36.9 C 27.7 36.9 27.3 36.7 26.9 36.4 C 26.6 36 26.4 35.6 26.4 35 C 26.4 35 26.4 35 26.4 35 C 26.4 34.5 26.5 34 26.9 33.6 C 27.2 33.3 27.6 33.1 28.1 33.1 C 28.6 33.1 29 33.3 29.4 33.6 C 29.7 34 29.8 34.5 29.8 35 C 29.8 35.1 29.8 35.1 29.8 35.2 C 29.8 35.2 26.9 35.2 26.9 35.2 C 27 35.6 27.1 35.9 27.3 36.1 C 27.6 36.3 27.9 36.4 28.2 36.4 C 28.6 36.4 29 36.2 29.3 35.9 C 29.34 35.9 29.7 36.2 29.7 36.2 C 29.7 36.2 29.68 36.2 29.7 36.2 Z M 26.9 34.8 C 26.9 34.8 29.3 34.8 29.3 34.8 C 29.2 34.4 29.1 34.1 28.9 33.9 C 28.7 33.7 28.5 33.6 28.1 33.6 C 27.8 33.6 27.5 33.7 27.3 33.9 C 27.1 34.1 27 34.4 26.9 34.8 Z M 30.8 36.8 L 30.8 31.7 L 31.3 31.7 L 31.3 35.2 L 33.2 33.2 L 33.9 33.2 L 32.4 34.7 L 34 36.8 L 33.3 36.8 L 32 35.1 L 31.3 35.9 L 31.3 36.8 L 30.8 36.8 Z M 35.9 36.9 C 35.3 36.9 34.8 36.7 34.4 36.3 C 34.4 36.3 34.7 36 34.7 36 C 35.1 36.3 35.5 36.4 35.9 36.4 C 36.1 36.4 36.3 36.4 36.5 36.3 C 36.6 36.2 36.7 36 36.7 35.8 C 36.7 35.8 36.7 35.8 36.7 35.8 C 36.7 35.7 36.6 35.5 36.4 35.4 C 36.3 35.4 36 35.3 35.8 35.2 C 35.6 35.2 35.5 35.1 35.5 35.1 C 35.4 35.1 35.3 35 35.2 35 C 35.1 35 35 34.9 34.9 34.9 C 34.9 34.8 34.8 34.8 34.8 34.7 C 34.7 34.6 34.6 34.6 34.6 34.5 C 34.6 34.4 34.6 34.3 34.6 34.2 C 34.6 34.2 34.6 34.2 34.6 34.2 C 34.6 33.8 34.7 33.6 34.9 33.4 C 35.1 33.2 35.4 33.1 35.8 33.1 C 36.3 33.1 36.7 33.3 37.1 33.5 C 37.1 33.5 36.8 33.9 36.8 33.9 C 36.5 33.7 36.1 33.6 35.8 33.6 C 35.6 33.6 35.4 33.6 35.3 33.7 C 35.1 33.8 35.1 33.9 35.1 34.1 C 35.1 34.1 35.1 34.1 35.1 34.1 C 35.1 34.2 35.1 34.2 35.1 34.3 C 35.2 34.3 35.2 34.4 35.3 34.4 C 35.3 34.5 35.4 34.5 35.5 34.6 C 35.6 34.6 35.7 34.6 35.7 34.6 C 35.8 34.7 35.9 34.7 36 34.7 C 36.1 34.8 36.3 34.8 36.3 34.8 C 36.4 34.9 36.5 34.9 36.7 35 C 36.8 35 36.9 35.1 36.9 35.2 C 37 35.2 37.1 35.3 37.1 35.4 C 37.1 35.5 37.2 35.6 37.2 35.8 C 37.2 35.8 37.2 35.8 37.2 35.8 C 37.2 36.1 37 36.4 36.8 36.6 C 36.6 36.8 36.3 36.9 35.9 36.9 Z M 40 36.7 C 39.8 36.8 39.6 36.9 39.3 36.9 C 39 36.9 38.8 36.8 38.6 36.6 C 38.4 36.4 38.3 36.2 38.3 35.8 C 38.29 35.84 38.3 33.7 38.3 33.7 L 37.8 33.7 L 37.8 33.2 L 38.3 33.2 L 38.3 32.1 L 38.8 32.1 L 38.8 33.2 L 40 33.2 L 40 33.7 L 38.8 33.7 C 38.8 33.7 38.83 35.77 38.8 35.8 C 38.8 36.2 39 36.4 39.4 36.4 C 39.6 36.4 39.8 36.3 40 36.2 C 39.96 36.25 40 36.7 40 36.7 C 40 36.7 39.96 36.71 40 36.7 Z M 40.9 36.8 L 40.9 33.2 L 41.5 33.2 C 41.5 33.2 41.47 34.13 41.5 34.1 C 41.6 33.8 41.8 33.6 42.1 33.4 C 42.3 33.2 42.6 33.1 42.9 33.1 C 42.94 33.12 42.9 33.7 42.9 33.7 C 42.9 33.7 42.9 33.7 42.9 33.7 C 42.5 33.7 42.1 33.8 41.9 34.1 C 41.6 34.4 41.5 34.8 41.5 35.4 C 41.47 35.36 41.5 36.8 41.5 36.8 L 40.9 36.8 Z M 46 36.3 C 45.7 36.7 45.2 36.9 44.7 36.9 C 44.3 36.9 44 36.8 43.7 36.6 C 43.5 36.4 43.3 36.1 43.3 35.7 C 43.3 35.7 43.3 35.7 43.3 35.7 C 43.3 35.4 43.5 35.1 43.7 34.9 C 44 34.7 44.4 34.6 44.9 34.6 C 45.2 34.6 45.6 34.6 46 34.7 C 46 34.7 46 34.6 46 34.6 C 46 34.3 45.9 34 45.7 33.9 C 45.5 33.7 45.2 33.6 44.9 33.6 C 44.5 33.6 44.2 33.7 43.8 33.9 C 43.8 33.9 43.6 33.4 43.6 33.4 C 44.1 33.2 44.5 33.1 45 33.1 C 45.5 33.1 45.9 33.3 46.1 33.5 C 46.4 33.8 46.5 34.1 46.5 34.6 C 46.49 34.59 46.5 36.8 46.5 36.8 L 46 36.8 L 46 36.3 C 46 36.3 45.98 36.25 46 36.3 Z M 44.8 36.4 C 45.1 36.4 45.4 36.4 45.6 36.2 C 45.9 36 46 35.8 46 35.5 C 46 35.5 46 35.1 46 35.1 C 45.6 35 45.3 35 44.9 35 C 44.6 35 44.3 35 44.1 35.2 C 44 35.3 43.9 35.5 43.9 35.7 C 43.9 35.7 43.9 35.7 43.9 35.7 C 43.9 35.9 44 36.1 44.1 36.3 C 44.3 36.4 44.5 36.4 44.8 36.4 Z M 49.7 36.8 L 49.7 31.7 L 50.3 31.7 L 50.3 35.2 L 52.2 33.2 L 52.9 33.2 L 51.4 34.7 L 53 36.8 L 52.3 36.8 L 51 35.1 L 50.3 35.9 L 50.3 36.8 L 49.7 36.8 Z M 56 36.3 C 55.7 36.7 55.3 36.9 54.7 36.9 C 54.4 36.9 54.1 36.8 53.8 36.6 C 53.5 36.4 53.4 36.1 53.4 35.7 C 53.4 35.7 53.4 35.7 53.4 35.7 C 53.4 35.4 53.5 35.1 53.8 34.9 C 54.1 34.7 54.5 34.6 54.9 34.6 C 55.3 34.6 55.7 34.6 56 34.7 C 56 34.7 56 34.6 56 34.6 C 56 34.3 55.9 34 55.8 33.9 C 55.6 33.7 55.3 33.6 55 33.6 C 54.6 33.6 54.2 33.7 53.9 33.9 C 53.9 33.9 53.7 33.4 53.7 33.4 C 54.1 33.2 54.6 33.1 55 33.1 C 55.5 33.1 55.9 33.3 56.2 33.5 C 56.4 33.8 56.6 34.1 56.6 34.6 C 56.56 34.59 56.6 36.8 56.6 36.8 L 56 36.8 L 56 36.3 C 56 36.3 56.04 36.25 56 36.3 Z M 54.8 36.4 C 55.2 36.4 55.5 36.4 55.7 36.2 C 55.9 36 56 35.8 56 35.5 C 56 35.5 56 35.1 56 35.1 C 55.7 35 55.3 35 55 35 C 54.6 35 54.4 35 54.2 35.2 C 54 35.3 53.9 35.5 53.9 35.7 C 53.9 35.7 53.9 35.7 53.9 35.7 C 53.9 35.9 54 36.1 54.2 36.3 C 54.4 36.4 54.6 36.4 54.8 36.4 Z M 57.8 36.8 L 57.8 31.7 L 58.3 31.7 L 58.3 36.8 L 57.8 36.8 Z M 59.6 36.8 L 59.6 33.2 L 60.1 33.2 L 60.1 36.8 L 59.6 36.8 Z M 61.4 36.8 L 61.4 33.2 L 61.9 33.2 C 61.9 33.2 61.93 33.81 61.9 33.8 C 62.2 33.3 62.6 33.1 63.2 33.1 C 63.6 33.1 63.9 33.2 64.2 33.5 C 64.4 33.8 64.6 34.1 64.6 34.6 C 64.55 34.55 64.6 36.8 64.6 36.8 L 64 36.8 C 64 36.8 64.01 34.69 64 34.7 C 64 34.3 63.9 34.1 63.8 33.9 C 63.6 33.7 63.3 33.6 63 33.6 C 62.7 33.6 62.4 33.7 62.2 33.9 C 62 34.1 61.9 34.4 61.9 34.7 C 61.93 34.73 61.9 36.8 61.9 36.8 L 61.4 36.8 Z M 68.1 36.3 C 67.8 36.7 67.3 36.9 66.8 36.9 C 66.4 36.9 66.1 36.8 65.8 36.6 C 65.6 36.4 65.4 36.1 65.4 35.7 C 65.4 35.7 65.4 35.7 65.4 35.7 C 65.4 35.4 65.6 35.1 65.9 34.9 C 66.1 34.7 66.5 34.6 67 34.6 C 67.3 34.6 67.7 34.6 68.1 34.7 C 68.1 34.7 68.1 34.6 68.1 34.6 C 68.1 34.3 68 34 67.8 33.9 C 67.6 33.7 67.4 33.6 67 33.6 C 66.6 33.6 66.3 33.7 65.9 33.9 C 65.9 33.9 65.8 33.4 65.8 33.4 C 66.2 33.2 66.6 33.1 67.1 33.1 C 67.6 33.1 68 33.3 68.2 33.5 C 68.5 33.8 68.6 34.1 68.6 34.6 C 68.61 34.59 68.6 36.8 68.6 36.8 L 68.1 36.8 L 68.1 36.3 C 68.1 36.3 68.09 36.25 68.1 36.3 Z M 66.9 36.4 C 67.2 36.4 67.5 36.4 67.7 36.2 C 68 36 68.1 35.8 68.1 35.5 C 68.1 35.5 68.1 35.1 68.1 35.1 C 67.7 35 67.4 35 67 35 C 66.7 35 66.4 35 66.3 35.2 C 66.1 35.3 66 35.5 66 35.7 C 66 35.7 66 35.7 66 35.7 C 66 35.9 66.1 36.1 66.2 36.3 C 66.4 36.4 66.6 36.4 66.9 36.4 Z " stroke="none" fill="#4f4f4e"/>  </g>  <g id="Polygon371568">    <path d="M 0.7 26.4 L 0.7 21.5 L 1.2 21.5 L 1.2 23.7 L 4.1 23.7 L 4.1 21.5 L 4.6 21.5 L 4.6 26.4 L 4.1 26.4 L 4.1 24.2 L 1.2 24.2 L 1.2 26.4 L 0.7 26.4 Z M 8.3 25.9 C 8 26.3 7.6 26.5 7 26.5 C 6.6 26.5 6.3 26.4 6.1 26.2 C 5.8 26 5.6 25.7 5.6 25.3 C 5.6 25.3 5.6 25.3 5.6 25.3 C 5.6 25 5.8 24.7 6.1 24.5 C 6.4 24.3 6.7 24.2 7.2 24.2 C 7.6 24.2 7.9 24.2 8.3 24.3 C 8.3 24.3 8.3 24.2 8.3 24.2 C 8.3 23.9 8.2 23.6 8 23.5 C 7.8 23.3 7.6 23.2 7.2 23.2 C 6.9 23.2 6.5 23.3 6.1 23.5 C 6.1 23.5 6 23 6 23 C 6.4 22.8 6.8 22.7 7.3 22.7 C 7.8 22.7 8.2 22.9 8.5 23.1 C 8.7 23.4 8.8 23.7 8.8 24.2 C 8.83 24.19 8.8 26.4 8.8 26.4 L 8.3 26.4 L 8.3 25.9 C 8.3 25.9 8.31 25.85 8.3 25.9 Z M 7.1 26 C 7.4 26 7.7 26 8 25.8 C 8.2 25.6 8.3 25.4 8.3 25.1 C 8.3 25.1 8.3 24.7 8.3 24.7 C 8 24.6 7.6 24.6 7.3 24.6 C 6.9 24.6 6.7 24.6 6.5 24.8 C 6.3 24.9 6.2 25.1 6.2 25.3 C 6.2 25.3 6.2 25.3 6.2 25.3 C 6.2 25.5 6.3 25.7 6.5 25.9 C 6.6 26 6.9 26 7.1 26 Z M 10 26.4 L 10 22.8 L 10.5 22.8 C 10.5 22.8 10.51 23.73 10.5 23.7 C 10.7 23.4 10.9 23.2 11.1 23 C 11.4 22.8 11.7 22.7 12 22.7 C 11.99 22.72 12 23.3 12 23.3 C 12 23.3 11.95 23.3 11.9 23.3 C 11.5 23.3 11.2 23.4 10.9 23.7 C 10.6 24 10.5 24.4 10.5 25 C 10.51 24.96 10.5 26.4 10.5 26.4 L 10 26.4 Z M 12.8 22 L 12.8 21.4 L 13.4 21.4 L 13.4 22 L 12.8 22 Z M 12.9 26.4 L 12.9 22.8 L 13.4 22.8 L 13.4 26.4 L 12.9 26.4 Z M 17.8 25.8 C 17.3 26.3 16.9 26.5 16.3 26.5 C 15.8 26.5 15.3 26.3 15 25.9 C 14.6 25.6 14.4 25.1 14.4 24.6 C 14.4 24.6 14.4 24.6 14.4 24.6 C 14.4 24.1 14.6 23.6 15 23.3 C 15.3 22.9 15.8 22.7 16.3 22.7 C 16.8 22.7 17.3 22.9 17.7 23.3 C 17.7 23.3 17.4 23.7 17.4 23.7 C 17 23.4 16.7 23.2 16.3 23.2 C 15.9 23.2 15.6 23.3 15.4 23.6 C 15.1 23.9 15 24.2 15 24.6 C 15 24.6 15 24.6 15 24.6 C 15 25 15.1 25.3 15.4 25.6 C 15.6 25.9 15.9 26 16.3 26 C 16.7 26 17.1 25.8 17.4 25.5 C 17.42 25.46 17.8 25.8 17.8 25.8 C 17.8 25.8 17.76 25.78 17.8 25.8 Z M 18.7 22 L 18.7 21.4 L 19.3 21.4 L 19.3 22 L 18.7 22 Z M 18.7 26.4 L 18.7 22.8 L 19.2 22.8 L 19.2 26.4 L 18.7 26.4 Z M 23.2 26.4 L 23.2 22 L 22.3 22.3 L 22.2 21.9 L 23.4 21.5 L 23.8 21.5 L 23.8 26.4 L 23.2 26.4 Z M 26.8 26.5 C 26.3 26.5 25.9 26.3 25.5 26 C 25.3 25.8 25.2 25.5 25.1 25.2 C 25 24.9 24.9 24.6 24.9 24.1 C 24.9 24.1 24.9 24.1 24.9 24.1 C 24.9 23.3 25.1 22.7 25.5 22.2 C 25.8 21.7 26.3 21.4 27 21.4 C 27.5 21.4 28 21.6 28.4 22 C 28.4 22 28.1 22.4 28.1 22.4 C 27.7 22.1 27.3 21.9 26.9 21.9 C 26.5 21.9 26.1 22.1 25.9 22.5 C 25.6 22.9 25.5 23.4 25.5 24 C 25.5 24 25.5 24.1 25.5 24.1 C 25.8 23.6 26.3 23.3 26.9 23.3 C 27.4 23.3 27.8 23.5 28.1 23.8 C 28.4 24 28.6 24.4 28.6 24.8 C 28.6 24.8 28.6 24.9 28.6 24.9 C 28.6 25.3 28.4 25.7 28.1 26 C 27.7 26.3 27.3 26.5 26.8 26.5 Z M 26.8 26 C 27.2 26 27.5 25.9 27.7 25.7 C 27.9 25.5 28 25.2 28 24.9 C 28 24.9 28 24.9 28 24.9 C 28 24.6 27.9 24.3 27.7 24.1 C 27.5 23.9 27.2 23.8 26.8 23.8 C 26.5 23.8 26.2 23.9 25.9 24.1 C 25.7 24.4 25.6 24.6 25.6 24.9 C 25.6 24.9 25.6 24.9 25.6 24.9 C 25.6 25.2 25.7 25.5 25.9 25.7 C 26.2 25.9 26.5 26 26.8 26 Z M 31.7 26.4 L 31.7 21.3 L 32.3 21.3 L 32.3 24.8 L 34.2 22.8 L 34.9 22.8 L 33.4 24.3 L 34.9 26.4 L 34.3 26.4 L 33 24.7 L 32.3 25.5 L 32.3 26.4 L 31.7 26.4 Z M 38 25.9 C 37.7 26.3 37.3 26.5 36.7 26.5 C 36.4 26.5 36 26.4 35.8 26.2 C 35.5 26 35.4 25.7 35.4 25.3 C 35.4 25.3 35.4 25.3 35.4 25.3 C 35.4 25 35.5 24.7 35.8 24.5 C 36.1 24.3 36.4 24.2 36.9 24.2 C 37.3 24.2 37.7 24.2 38 24.3 C 38 24.3 38 24.2 38 24.2 C 38 23.9 37.9 23.6 37.7 23.5 C 37.6 23.3 37.3 23.2 36.9 23.2 C 36.6 23.2 36.2 23.3 35.8 23.5 C 35.8 23.5 35.7 23 35.7 23 C 36.1 22.8 36.5 22.7 37 22.7 C 37.5 22.7 37.9 22.9 38.2 23.1 C 38.4 23.4 38.5 23.7 38.5 24.2 C 38.54 24.19 38.5 26.4 38.5 26.4 L 38 26.4 L 38 25.9 C 38 25.9 38.02 25.85 38 25.9 Z M 36.8 26 C 37.2 26 37.4 26 37.7 25.8 C 37.9 25.6 38 25.4 38 25.1 C 38 25.1 38 24.7 38 24.7 C 37.7 24.6 37.3 24.6 37 24.6 C 36.6 24.6 36.4 24.6 36.2 24.8 C 36 24.9 35.9 25.1 35.9 25.3 C 35.9 25.3 35.9 25.3 35.9 25.3 C 35.9 25.5 36 25.7 36.2 25.9 C 36.4 26 36.6 26 36.8 26 Z M 42.6 25.7 C 42.2 26.2 41.8 26.5 41.2 26.5 C 40.7 26.5 40.3 26.3 40 26 C 39.7 25.6 39.5 25.2 39.5 24.6 C 39.5 24.6 39.5 24.6 39.5 24.6 C 39.5 24 39.7 23.6 40 23.2 C 40.3 22.9 40.7 22.7 41.2 22.7 C 41.8 22.7 42.2 23 42.6 23.5 C 42.6 23.47 42.6 21.3 42.6 21.3 L 43.1 21.3 L 43.1 26.4 L 42.6 26.4 L 42.6 25.7 C 42.6 25.7 42.6 25.67 42.6 25.7 Z M 41.3 26 C 41.7 26 42 25.9 42.2 25.6 C 42.5 25.3 42.6 25 42.6 24.6 C 42.6 24.6 42.6 24.6 42.6 24.6 C 42.6 24.2 42.5 23.8 42.2 23.6 C 42 23.3 41.7 23.2 41.3 23.2 C 40.9 23.2 40.6 23.3 40.4 23.6 C 40.2 23.8 40 24.2 40 24.6 C 40 24.6 40 24.6 40 24.6 C 40 25 40.2 25.4 40.4 25.6 C 40.6 25.9 40.9 26 41.3 26 Z M 47.4 25.8 C 47 26.3 46.5 26.5 45.9 26.5 C 45.4 26.5 45 26.3 44.6 26 C 44.3 25.6 44.1 25.2 44.1 24.6 C 44.1 24.6 44.1 24.6 44.1 24.6 C 44.1 24.1 44.3 23.6 44.6 23.2 C 44.9 22.9 45.4 22.7 45.8 22.7 C 46.4 22.7 46.8 22.9 47.1 23.2 C 47.4 23.6 47.5 24.1 47.5 24.6 C 47.5 24.7 47.5 24.7 47.5 24.8 C 47.5 24.8 44.7 24.8 44.7 24.8 C 44.7 25.2 44.8 25.5 45.1 25.7 C 45.3 25.9 45.6 26 45.9 26 C 46.4 26 46.7 25.8 47.1 25.5 C 47.08 25.5 47.4 25.8 47.4 25.8 C 47.4 25.8 47.41 25.8 47.4 25.8 Z M 44.7 24.4 C 44.7 24.4 47 24.4 47 24.4 C 47 24 46.8 23.7 46.7 23.5 C 46.5 23.3 46.2 23.2 45.8 23.2 C 45.5 23.2 45.3 23.3 45 23.5 C 44.8 23.7 44.7 24 44.7 24.4 Z M 48.5 26.4 L 48.5 22.8 L 49 22.8 C 49 22.8 49.02 23.39 49 23.4 C 49.2 23.2 49.3 23 49.5 22.9 C 49.7 22.8 49.9 22.7 50.2 22.7 C 50.7 22.7 51.1 22.9 51.4 23.4 C 51.7 22.9 52.1 22.7 52.6 22.7 C 53 22.7 53.4 22.8 53.6 23.1 C 53.9 23.4 54 23.7 54 24.2 C 53.97 24.16 54 26.4 54 26.4 L 53.4 26.4 C 53.4 26.4 53.43 24.29 53.4 24.3 C 53.4 23.9 53.3 23.7 53.2 23.5 C 53 23.3 52.8 23.2 52.5 23.2 C 52.2 23.2 52 23.3 51.8 23.5 C 51.6 23.7 51.5 24 51.5 24.3 C 51.49 24.31 51.5 26.4 51.5 26.4 L 51 26.4 C 51 26.4 50.96 24.27 51 24.3 C 51 23.9 50.9 23.7 50.7 23.5 C 50.5 23.3 50.3 23.2 50 23.2 C 49.7 23.2 49.5 23.3 49.3 23.5 C 49.1 23.7 49 24 49 24.3 C 49.02 24.33 49 26.4 49 26.4 L 48.5 26.4 Z M 58.2 25.8 C 57.8 26.3 57.3 26.5 56.7 26.5 C 56.2 26.5 55.8 26.3 55.4 26 C 55.1 25.6 54.9 25.2 54.9 24.6 C 54.9 24.6 54.9 24.6 54.9 24.6 C 54.9 24.1 55.1 23.6 55.4 23.2 C 55.7 22.9 56.1 22.7 56.6 22.7 C 57.1 22.7 57.6 22.9 57.9 23.2 C 58.2 23.6 58.3 24.1 58.3 24.6 C 58.3 24.7 58.3 24.7 58.3 24.8 C 58.3 24.8 55.4 24.8 55.4 24.8 C 55.5 25.2 55.6 25.5 55.9 25.7 C 56.1 25.9 56.4 26 56.7 26 C 57.1 26 57.5 25.8 57.9 25.5 C 57.86 25.5 58.2 25.8 58.2 25.8 C 58.2 25.8 58.19 25.8 58.2 25.8 Z M 55.4 24.4 C 55.4 24.4 57.8 24.4 57.8 24.4 C 57.7 24 57.6 23.7 57.4 23.5 C 57.2 23.3 57 23.2 56.6 23.2 C 56.3 23.2 56 23.3 55.8 23.5 C 55.6 23.7 55.5 24 55.4 24.4 Z M 59.3 26.4 L 59.3 21.3 L 59.9 21.3 L 59.9 26.4 L 59.3 26.4 Z M 61.1 22 L 61.1 21.4 L 61.7 21.4 L 61.7 22 L 61.1 22 Z M 61.2 26.4 L 61.2 22.8 L 61.7 22.8 L 61.7 26.4 L 61.2 26.4 Z M 67 22.2 L 67 21.6 L 67.6 21.6 L 67.6 22.2 L 67 22.2 Z M 65.8 22.2 L 65.8 21.6 L 66.4 21.6 L 66.4 22.2 L 65.8 22.2 Z M 66.7 26.5 C 66.2 26.5 65.7 26.3 65.4 25.9 C 65 25.6 64.8 25.1 64.8 24.6 C 64.8 24.6 64.8 24.6 64.8 24.6 C 64.8 24.1 65 23.6 65.4 23.3 C 65.7 22.9 66.2 22.7 66.7 22.7 C 67.2 22.7 67.7 22.9 68.1 23.3 C 68.4 23.6 68.6 24.1 68.6 24.6 C 68.6 24.6 68.6 24.6 68.6 24.6 C 68.6 25.1 68.4 25.6 68.1 25.9 C 67.7 26.3 67.2 26.5 66.7 26.5 Z M 66.7 26 C 67.1 26 67.4 25.9 67.7 25.6 C 67.9 25.3 68 25 68 24.6 C 68 24.6 68 24.6 68 24.6 C 68 24.2 67.9 23.9 67.7 23.6 C 67.4 23.3 67.1 23.2 66.7 23.2 C 66.3 23.2 66 23.3 65.7 23.6 C 65.5 23.9 65.4 24.2 65.4 24.6 C 65.4 24.6 65.4 24.6 65.4 24.6 C 65.4 25 65.5 25.3 65.8 25.6 C 66 25.9 66.3 26 66.7 26 Z M 72.5 27.1 C 72.2 27.4 71.8 27.5 71.2 27.5 C 70.6 27.5 70 27.4 69.5 27 C 69.5 27 69.8 26.6 69.8 26.6 C 70.2 26.9 70.7 27.1 71.2 27.1 C 71.6 27.1 71.9 27 72.1 26.7 C 72.4 26.5 72.5 26.2 72.5 25.8 C 72.5 25.8 72.5 25.4 72.5 25.4 C 72.1 25.9 71.6 26.1 71.1 26.1 C 70.6 26.1 70.2 26 69.9 25.6 C 69.5 25.3 69.4 24.9 69.4 24.4 C 69.4 24.4 69.4 24.4 69.4 24.4 C 69.4 23.9 69.5 23.5 69.9 23.2 C 70.2 22.9 70.6 22.7 71.1 22.7 C 71.6 22.7 72.1 22.9 72.5 23.4 C 72.47 23.43 72.5 22.8 72.5 22.8 L 73 22.8 C 73 22.8 73.01 25.77 73 25.8 C 73 26.3 72.9 26.7 72.5 27.1 C 72.5 27.1 72.5 27.1 72.5 27.1 Z M 71.2 25.6 C 71.5 25.6 71.8 25.5 72.1 25.3 C 72.4 25.1 72.5 24.8 72.5 24.4 C 72.5 24.4 72.5 24.4 72.5 24.4 C 72.5 24 72.4 23.8 72.1 23.5 C 71.8 23.3 71.5 23.2 71.2 23.2 C 70.8 23.2 70.5 23.3 70.3 23.5 C 70 23.7 69.9 24 69.9 24.4 C 69.9 24.4 69.9 24.4 69.9 24.4 C 69.9 24.8 70 25.1 70.3 25.3 C 70.5 25.5 70.8 25.6 71.2 25.6 Z M 72.3 21.4 C 72.3 21.6 72.2 21.9 72 22 C 71.8 22.2 71.6 22.2 71.3 22.2 C 71 22.2 70.8 22.2 70.6 22 C 70.4 21.9 70.3 21.6 70.3 21.4 C 70.3 21.4 70.7 21.4 70.7 21.4 C 70.8 21.7 71 21.8 71.3 21.8 C 71.6 21.8 71.9 21.7 72 21.4 C 71.95 21.37 72.3 21.4 72.3 21.4 C 72.3 21.4 72.35 21.37 72.3 21.4 Z M 76 22.2 L 76 21.6 L 76.7 21.6 L 76.7 22.2 L 76 22.2 Z M 74.8 22.2 L 74.8 21.6 L 75.4 21.6 L 75.4 22.2 L 74.8 22.2 Z M 76.8 25.8 C 76.5 26.2 76.1 26.5 75.5 26.5 C 75.1 26.5 74.8 26.3 74.5 26.1 C 74.3 25.8 74.2 25.5 74.2 25 C 74.16 25.03 74.2 22.8 74.2 22.8 L 74.7 22.8 C 74.7 22.8 74.7 24.89 74.7 24.9 C 74.7 25.2 74.8 25.5 75 25.7 C 75.1 25.9 75.4 26 75.7 26 C 76 26 76.3 25.9 76.5 25.7 C 76.7 25.5 76.8 25.2 76.8 24.9 C 76.78 24.85 76.8 22.8 76.8 22.8 L 77.3 22.8 L 77.3 26.4 L 76.8 26.4 L 76.8 25.8 C 76.8 25.8 76.78 25.77 76.8 25.8 Z M 80.4 26.3 C 80.2 26.4 80 26.5 79.7 26.5 C 79.4 26.5 79.2 26.4 79 26.2 C 78.8 26 78.7 25.8 78.7 25.4 C 78.72 25.44 78.7 23.3 78.7 23.3 L 78.2 23.3 L 78.2 22.8 L 78.7 22.8 L 78.7 21.7 L 79.3 21.7 L 79.3 22.8 L 80.4 22.8 L 80.4 23.3 L 79.3 23.3 C 79.3 23.3 79.25 25.37 79.3 25.4 C 79.3 25.8 79.5 26 79.9 26 C 80 26 80.2 25.9 80.4 25.8 C 80.39 25.85 80.4 26.3 80.4 26.3 C 80.4 26.3 80.39 26.31 80.4 26.3 Z M 81.4 26.4 L 81.4 22.8 L 81.9 22.8 C 81.9 22.8 81.89 23.39 81.9 23.4 C 82 23.2 82.2 23 82.4 22.9 C 82.6 22.8 82.8 22.7 83.1 22.7 C 83.6 22.7 84 22.9 84.2 23.4 C 84.5 22.9 85 22.7 85.5 22.7 C 85.9 22.7 86.2 22.8 86.5 23.1 C 86.7 23.4 86.8 23.7 86.8 24.2 C 86.84 24.16 86.8 26.4 86.8 26.4 L 86.3 26.4 C 86.3 26.4 86.3 24.29 86.3 24.3 C 86.3 23.9 86.2 23.7 86.1 23.5 C 85.9 23.3 85.7 23.2 85.4 23.2 C 85.1 23.2 84.8 23.3 84.7 23.5 C 84.5 23.7 84.4 24 84.4 24.3 C 84.36 24.31 84.4 26.4 84.4 26.4 L 83.8 26.4 C 83.8 26.4 83.83 24.27 83.8 24.3 C 83.8 23.9 83.7 23.7 83.6 23.5 C 83.4 23.3 83.2 23.2 82.9 23.2 C 82.6 23.2 82.4 23.3 82.2 23.5 C 82 23.7 81.9 24 81.9 24.3 C 81.89 24.33 81.9 26.4 81.9 26.4 L 81.4 26.4 Z M 91.1 25.8 C 90.7 26.3 90.2 26.5 89.6 26.5 C 89.1 26.5 88.6 26.3 88.3 26 C 87.9 25.6 87.8 25.2 87.8 24.6 C 87.8 24.6 87.8 24.6 87.8 24.6 C 87.8 24.1 87.9 23.6 88.3 23.2 C 88.6 22.9 89 22.7 89.5 22.7 C 90 22.7 90.4 22.9 90.7 23.2 C 91 23.6 91.2 24.1 91.2 24.6 C 91.2 24.7 91.2 24.7 91.2 24.8 C 91.2 24.8 88.3 24.8 88.3 24.8 C 88.3 25.2 88.5 25.5 88.7 25.7 C 89 25.9 89.3 26 89.6 26 C 90 26 90.4 25.8 90.7 25.5 C 90.73 25.5 91.1 25.8 91.1 25.8 C 91.1 25.8 91.06 25.8 91.1 25.8 Z M 88.3 24.4 C 88.3 24.4 90.6 24.4 90.6 24.4 C 90.6 24 90.5 23.7 90.3 23.5 C 90.1 23.3 89.8 23.2 89.5 23.2 C 89.2 23.2 88.9 23.3 88.7 23.5 C 88.5 23.7 88.3 24 88.3 24.4 Z M 96.6 25.9 C 96.3 26.3 95.9 26.5 95.3 26.5 C 94.9 26.5 94.6 26.4 94.4 26.2 C 94.1 26 94 25.7 94 25.3 C 94 25.3 94 25.3 94 25.3 C 94 25 94.1 24.7 94.4 24.5 C 94.7 24.3 95 24.2 95.5 24.2 C 95.9 24.2 96.2 24.2 96.6 24.3 C 96.6 24.3 96.6 24.2 96.6 24.2 C 96.6 23.9 96.5 23.6 96.3 23.5 C 96.2 23.3 95.9 23.2 95.5 23.2 C 95.2 23.2 94.8 23.3 94.4 23.5 C 94.4 23.5 94.3 23 94.3 23 C 94.7 22.8 95.1 22.7 95.6 22.7 C 96.1 22.7 96.5 22.9 96.8 23.1 C 97 23.4 97.1 23.7 97.1 24.2 C 97.14 24.19 97.1 26.4 97.1 26.4 L 96.6 26.4 L 96.6 25.9 C 96.6 25.9 96.62 25.85 96.6 25.9 Z M 95.4 26 C 95.8 26 96 26 96.3 25.8 C 96.5 25.6 96.6 25.4 96.6 25.1 C 96.6 25.1 96.6 24.7 96.6 24.7 C 96.3 24.6 95.9 24.6 95.6 24.6 C 95.2 24.6 95 24.6 94.8 24.8 C 94.6 24.9 94.5 25.1 94.5 25.3 C 94.5 25.3 94.5 25.3 94.5 25.3 C 94.5 25.5 94.6 25.7 94.8 25.9 C 95 26 95.2 26 95.4 26 Z M 99.7 25.8 L 100.9 22.8 L 101.4 22.8 C 101.4 22.8 99.91 26.52 99.9 26.5 C 99.8 26.9 99.6 27.2 99.4 27.3 C 99.2 27.5 99 27.5 98.7 27.5 C 98.4 27.5 98.2 27.5 97.9 27.4 C 97.9 27.4 98.1 26.9 98.1 26.9 C 98.3 27 98.5 27.1 98.7 27.1 C 98.9 27.1 99 27 99.1 26.9 C 99.2 26.8 99.3 26.6 99.4 26.4 C 99.43 26.39 97.8 22.8 97.8 22.8 L 98.4 22.8 L 99.7 25.8 Z M 104.5 25.9 C 104.2 26.3 103.7 26.5 103.2 26.5 C 102.8 26.5 102.5 26.4 102.2 26.2 C 102 26 101.8 25.7 101.8 25.3 C 101.8 25.3 101.8 25.3 101.8 25.3 C 101.8 25 102 24.7 102.3 24.5 C 102.5 24.3 102.9 24.2 103.4 24.2 C 103.8 24.2 104.1 24.2 104.5 24.3 C 104.5 24.3 104.5 24.2 104.5 24.2 C 104.5 23.9 104.4 23.6 104.2 23.5 C 104 23.3 103.8 23.2 103.4 23.2 C 103.1 23.2 102.7 23.3 102.3 23.5 C 102.3 23.5 102.2 23 102.2 23 C 102.6 22.8 103 22.7 103.5 22.7 C 104 22.7 104.4 22.9 104.6 23.1 C 104.9 23.4 105 23.7 105 24.2 C 105.01 24.19 105 26.4 105 26.4 L 104.5 26.4 L 104.5 25.9 C 104.5 25.9 104.5 25.85 104.5 25.9 Z M 103.3 26 C 103.6 26 103.9 26 104.2 25.8 C 104.4 25.6 104.5 25.4 104.5 25.1 C 104.5 25.1 104.5 24.7 104.5 24.7 C 104.1 24.6 103.8 24.6 103.4 24.6 C 103.1 24.6 102.8 24.6 102.7 24.8 C 102.5 24.9 102.4 25.1 102.4 25.3 C 102.4 25.3 102.4 25.3 102.4 25.3 C 102.4 25.5 102.5 25.7 102.6 25.9 C 102.8 26 103 26 103.3 26 Z M 106.2 26.4 L 106.2 22.8 L 106.7 22.8 C 106.7 22.8 106.7 23.73 106.7 23.7 C 106.8 23.4 107 23.2 107.3 23 C 107.6 22.8 107.8 22.7 108.2 22.7 C 108.18 22.72 108.2 23.3 108.2 23.3 C 108.2 23.3 108.14 23.3 108.1 23.3 C 107.7 23.3 107.4 23.4 107.1 23.7 C 106.8 24 106.7 24.4 106.7 25 C 106.7 24.96 106.7 26.4 106.7 26.4 L 106.2 26.4 Z M 109 26.4 L 109 22.8 L 109.6 22.8 L 109.6 26.4 L 109 26.4 Z M 110.6 27.3 C 110.6 27.3 110.6 27 110.6 27 C 110.9 26.9 111.1 26.7 111 26.4 C 111.03 26.4 110.8 26.4 110.8 26.4 L 110.8 25.7 L 111.4 25.7 C 111.4 25.7 111.42 26.29 111.4 26.3 C 111.4 26.6 111.4 26.8 111.2 26.9 C 111.1 27.1 110.9 27.2 110.6 27.3 Z M 114.7 22 L 114.7 21.4 L 115.3 21.4 L 115.3 22 L 114.7 22 Z M 114.7 26.4 L 114.7 22.8 L 115.2 22.8 L 115.2 26.4 L 114.7 26.4 Z M 116.5 26.4 L 116.5 22.8 L 117 22.8 C 117 22.8 117.03 23.41 117 23.4 C 117.3 22.9 117.7 22.7 118.3 22.7 C 118.7 22.7 119 22.8 119.3 23.1 C 119.5 23.4 119.7 23.7 119.7 24.2 C 119.66 24.15 119.7 26.4 119.7 26.4 L 119.1 26.4 C 119.1 26.4 119.12 24.29 119.1 24.3 C 119.1 23.9 119 23.7 118.9 23.5 C 118.7 23.3 118.4 23.2 118.1 23.2 C 117.8 23.2 117.5 23.3 117.3 23.5 C 117.1 23.7 117 24 117 24.3 C 117.03 24.33 117 26.4 117 26.4 L 116.5 26.4 Z M 123.9 25.8 C 123.5 26.3 123 26.5 122.4 26.5 C 121.9 26.5 121.5 26.3 121.1 25.9 C 120.8 25.6 120.6 25.1 120.6 24.6 C 120.6 24.6 120.6 24.6 120.6 24.6 C 120.6 24.1 120.8 23.6 121.1 23.3 C 121.5 22.9 121.9 22.7 122.4 22.7 C 123 22.7 123.5 22.9 123.9 23.3 C 123.9 23.3 123.5 23.7 123.5 23.7 C 123.2 23.4 122.8 23.2 122.4 23.2 C 122.1 23.2 121.8 23.3 121.5 23.6 C 121.3 23.9 121.1 24.2 121.1 24.6 C 121.1 24.6 121.1 24.6 121.1 24.6 C 121.1 25 121.3 25.3 121.5 25.6 C 121.8 25.9 122.1 26 122.5 26 C 122.9 26 123.2 25.8 123.6 25.5 C 123.57 25.46 123.9 25.8 123.9 25.8 C 123.9 25.8 123.91 25.78 123.9 25.8 Z M 127.8 25.8 C 127.4 26.3 126.9 26.5 126.3 26.5 C 125.8 26.5 125.3 26.3 125 26 C 124.6 25.6 124.5 25.2 124.5 24.6 C 124.5 24.6 124.5 24.6 124.5 24.6 C 124.5 24.1 124.6 23.6 125 23.2 C 125.3 22.9 125.7 22.7 126.2 22.7 C 126.7 22.7 127.1 22.9 127.4 23.2 C 127.7 23.6 127.9 24.1 127.9 24.6 C 127.9 24.7 127.9 24.7 127.9 24.8 C 127.9 24.8 125 24.8 125 24.8 C 125.1 25.2 125.2 25.5 125.4 25.7 C 125.7 25.9 126 26 126.3 26 C 126.7 26 127.1 25.8 127.4 25.5 C 127.43 25.5 127.8 25.8 127.8 25.8 C 127.8 25.8 127.77 25.8 127.8 25.8 Z M 125 24.4 C 125 24.4 127.4 24.4 127.4 24.4 C 127.3 24 127.2 23.7 127 23.5 C 126.8 23.3 126.5 23.2 126.2 23.2 C 125.9 23.2 125.6 23.3 125.4 23.5 C 125.2 23.7 125.1 24 125 24.4 Z " stroke="none" fill="#4f4f4e"/>  </g>  <g id="Polygon371567">    <path d="M 3 10.7 L 3 10 L 3.6 10 L 3.6 10.7 L 3 10.7 Z M 1.7 10.7 L 1.7 10 L 2.3 10 L 2.3 10.7 L 1.7 10.7 Z M 2.7 16.1 C 2 16.1 1.5 15.9 1.2 15.5 C 0.8 15.1 0.6 14.6 0.6 13.9 C 0.62 13.95 0.6 11.1 0.6 11.1 L 1.2 11.1 C 1.2 11.1 1.17 13.91 1.2 13.9 C 1.2 14.4 1.3 14.8 1.6 15.1 C 1.8 15.4 2.2 15.6 2.7 15.6 C 3.1 15.6 3.5 15.4 3.8 15.2 C 4 14.9 4.1 14.5 4.1 13.9 C 4.14 13.95 4.1 11.1 4.1 11.1 L 4.7 11.1 C 4.7 11.1 4.7 13.91 4.7 13.9 C 4.7 14.6 4.5 15.1 4.1 15.5 C 3.8 15.9 3.3 16.1 2.7 16.1 Z M 5.9 16 L 5.9 12.4 L 6.5 12.4 C 6.5 12.4 6.45 13.33 6.5 13.3 C 6.6 13 6.8 12.8 7 12.6 C 7.3 12.4 7.6 12.3 7.9 12.3 C 7.93 12.32 7.9 12.9 7.9 12.9 C 7.9 12.9 7.89 12.9 7.9 12.9 C 7.5 12.9 7.1 13 6.9 13.3 C 6.6 13.6 6.5 14 6.5 14.6 C 6.45 14.56 6.5 16 6.5 16 L 5.9 16 Z M 10.6 11.8 L 10.6 11.2 L 11.2 11.2 L 11.2 11.8 L 10.6 11.8 Z M 9.3 11.8 L 9.3 11.2 L 10 11.2 L 10 11.8 L 9.3 11.8 Z M 11.3 15.4 C 11 15.8 10.6 16.1 10.1 16.1 C 9.7 16.1 9.3 15.9 9.1 15.7 C 8.8 15.4 8.7 15.1 8.7 14.6 C 8.69 14.63 8.7 12.4 8.7 12.4 L 9.2 12.4 C 9.2 12.4 9.23 14.49 9.2 14.5 C 9.2 14.8 9.3 15.1 9.5 15.3 C 9.7 15.5 9.9 15.6 10.2 15.6 C 10.5 15.6 10.8 15.5 11 15.3 C 11.2 15.1 11.3 14.8 11.3 14.5 C 11.32 14.45 11.3 12.4 11.3 12.4 L 11.9 12.4 L 11.9 16 L 11.3 16 L 11.3 15.4 C 11.3 15.4 11.32 15.37 11.3 15.4 Z M 13.1 16 L 13.1 12.4 L 13.6 12.4 C 13.6 12.4 13.6 13.01 13.6 13 C 13.9 12.5 14.3 12.3 14.8 12.3 C 15.3 12.3 15.6 12.4 15.9 12.7 C 16.1 13 16.2 13.3 16.2 13.8 C 16.23 13.75 16.2 16 16.2 16 L 15.7 16 C 15.7 16 15.69 13.89 15.7 13.9 C 15.7 13.5 15.6 13.3 15.4 13.1 C 15.2 12.9 15 12.8 14.7 12.8 C 14.4 12.8 14.1 12.9 13.9 13.1 C 13.7 13.3 13.6 13.6 13.6 13.9 C 13.6 13.93 13.6 16 13.6 16 L 13.1 16 Z M 19.6 16 L 19.6 11.1 L 20.1 11.1 L 20.1 14 L 22.9 11.1 L 23.7 11.1 L 21.5 13.2 L 23.7 16 L 23 16 L 21.2 13.6 L 20.1 14.7 L 20.1 16 L 19.6 16 Z M 25.9 16.1 C 25.4 16.1 25 15.9 24.6 15.5 C 24.3 15.2 24.1 14.7 24.1 14.2 C 24.1 14.2 24.1 14.2 24.1 14.2 C 24.1 13.7 24.3 13.2 24.6 12.9 C 25 12.5 25.4 12.3 26 12.3 C 26.5 12.3 26.9 12.5 27.3 12.9 C 27.7 13.2 27.8 13.7 27.8 14.2 C 27.8 14.2 27.8 14.2 27.8 14.2 C 27.8 14.7 27.7 15.2 27.3 15.5 C 26.9 15.9 26.5 16.1 25.9 16.1 Z M 26 15.6 C 26.3 15.6 26.7 15.5 26.9 15.2 C 27.2 14.9 27.3 14.6 27.3 14.2 C 27.3 14.2 27.3 14.2 27.3 14.2 C 27.3 13.8 27.2 13.5 26.9 13.2 C 26.6 12.9 26.3 12.8 25.9 12.8 C 25.6 12.8 25.3 12.9 25 13.2 C 24.8 13.5 24.6 13.8 24.6 14.2 C 24.6 14.2 24.6 14.2 24.6 14.2 C 24.6 14.6 24.8 14.9 25 15.2 C 25.3 15.5 25.6 15.6 26 15.6 Z M 31.7 15.3 C 31.4 15.8 30.9 16.1 30.3 16.1 C 29.9 16.1 29.5 15.9 29.1 15.6 C 28.8 15.2 28.6 14.8 28.6 14.2 C 28.6 14.2 28.6 14.2 28.6 14.2 C 28.6 13.6 28.8 13.2 29.1 12.8 C 29.5 12.5 29.9 12.3 30.3 12.3 C 30.9 12.3 31.4 12.6 31.7 13.1 C 31.72 13.07 31.7 10.9 31.7 10.9 L 32.3 10.9 L 32.3 16 L 31.7 16 L 31.7 15.3 C 31.7 15.3 31.72 15.27 31.7 15.3 Z M 30.4 15.6 C 30.8 15.6 31.1 15.5 31.4 15.2 C 31.6 14.9 31.7 14.6 31.7 14.2 C 31.7 14.2 31.7 14.2 31.7 14.2 C 31.7 13.8 31.6 13.4 31.4 13.2 C 31.1 12.9 30.8 12.8 30.4 12.8 C 30.1 12.8 29.8 12.9 29.5 13.2 C 29.3 13.4 29.2 13.8 29.2 14.2 C 29.2 14.2 29.2 14.2 29.2 14.2 C 29.2 14.6 29.3 15 29.5 15.2 C 29.8 15.5 30.1 15.6 30.4 15.6 Z M 36 15.4 C 35.7 15.8 35.3 16.1 34.8 16.1 C 34.4 16.1 34 15.9 33.8 15.7 C 33.5 15.4 33.4 15.1 33.4 14.6 C 33.41 14.63 33.4 12.4 33.4 12.4 L 34 12.4 C 34 12.4 33.95 14.49 34 14.5 C 34 14.8 34 15.1 34.2 15.3 C 34.4 15.5 34.6 15.6 35 15.6 C 35.3 15.6 35.5 15.5 35.7 15.3 C 35.9 15.1 36 14.8 36 14.5 C 36.04 14.45 36 12.4 36 12.4 L 36.6 12.4 L 36.6 16 L 36 16 L 36 15.4 C 36 15.4 36.04 15.37 36 15.4 Z M 37.7 13.1 L 37.7 12.4 L 38.4 12.4 L 38.4 13.1 L 37.7 13.1 Z M 37.7 16 L 37.7 15.3 L 38.4 15.3 L 38.4 16 L 37.7 16 Z M 43.2 16.1 C 42.4 16.1 41.8 15.8 41.3 15.2 C 41.3 15.2 42.1 14.5 42.1 14.5 C 42.4 14.9 42.8 15.1 43.2 15.1 C 43.5 15.1 43.6 15.1 43.8 15 C 43.9 14.8 43.9 14.7 43.9 14.5 C 43.9 14.5 43.9 14.5 43.9 14.5 C 43.9 14.3 43.9 14.2 43.7 14 C 43.5 13.9 43.3 13.9 43 13.9 C 42.98 13.89 42.5 13.9 42.5 13.9 L 42.4 13.2 L 43.5 12 L 41.6 12 L 41.6 11.1 L 44.9 11.1 L 44.9 11.9 C 44.9 11.9 43.68 13.09 43.7 13.1 C 44.6 13.2 45 13.7 45 14.5 C 45 14.5 45 14.5 45 14.5 C 45 15 44.8 15.3 44.5 15.6 C 44.2 15.9 43.8 16.1 43.2 16.1 Z M 48.2 16 L 48.2 14.9 L 45.8 14.9 L 45.6 14.2 L 48.3 11.1 L 49.2 11.1 L 49.2 14.1 L 49.9 14.1 L 49.9 14.9 L 49.2 14.9 L 49.2 16 L 48.2 16 Z M 46.9 14.1 L 48.2 14.1 L 48.2 12.5 L 46.9 14.1 Z M 52.6 16.1 C 52 16.1 51.5 15.9 51.2 15.6 C 50.8 15.2 50.6 14.6 50.6 13.7 C 50.6 13.7 50.6 13.7 50.6 13.7 C 50.6 12.9 50.8 12.3 51.1 11.8 C 51.5 11.3 52 11 52.8 11 C 53.3 11 53.8 11.2 54.3 11.6 C 54.3 11.6 53.7 12.4 53.7 12.4 C 53.5 12.3 53.4 12.2 53.2 12.1 C 53.1 12 52.9 12 52.7 12 C 52.5 12 52.4 12 52.3 12.1 C 52.1 12.2 52 12.3 52 12.4 C 51.9 12.5 51.8 12.7 51.8 12.8 C 51.8 12.9 51.7 13 51.7 13.1 C 52 12.9 52.4 12.8 52.7 12.8 C 53.2 12.8 53.7 13 54 13.2 C 54.3 13.5 54.5 13.9 54.5 14.4 C 54.5 14.4 54.5 14.4 54.5 14.4 C 54.5 14.9 54.3 15.3 53.9 15.6 C 53.6 15.9 53.1 16.1 52.6 16.1 Z M 51.7 14.4 C 51.7 14.6 51.8 14.8 51.9 15 C 52.1 15.1 52.3 15.2 52.6 15.2 C 52.8 15.2 53 15.1 53.2 15 C 53.3 14.8 53.4 14.7 53.4 14.4 C 53.4 14.4 53.4 14.4 53.4 14.4 C 53.4 14.2 53.3 14 53.2 13.9 C 53 13.8 52.8 13.7 52.5 13.7 C 52.3 13.7 52.1 13.8 51.9 13.9 C 51.8 14 51.7 14.2 51.7 14.4 C 51.7 14.42 51.7 14.4 51.7 14.4 C 51.7 14.4 51.7 14.43 51.7 14.4 Z M 55.2 16 L 55.2 15.1 C 55.2 15.1 56.83 13.81 56.8 13.8 C 57.2 13.5 57.4 13.3 57.5 13.2 C 57.6 13 57.7 12.8 57.7 12.6 C 57.7 12.4 57.6 12.3 57.5 12.2 C 57.4 12.1 57.2 12 57 12 C 56.8 12 56.7 12 56.5 12.1 C 56.4 12.2 56.2 12.4 56 12.7 C 56 12.7 55.3 12 55.3 12 C 55.5 11.7 55.8 11.4 56.1 11.3 C 56.3 11.1 56.7 11 57.1 11 C 57.6 11 58 11.2 58.3 11.4 C 58.6 11.7 58.8 12.1 58.8 12.5 C 58.8 12.5 58.8 12.6 58.8 12.6 C 58.8 12.9 58.7 13.3 58.5 13.5 C 58.3 13.8 58 14.1 57.5 14.5 C 57.49 14.45 56.7 15.1 56.7 15.1 L 58.8 15.1 L 58.8 16 L 55.2 16 Z M 60.3 14.7 C 60.6 15 61 15.1 61.4 15.1 C 61.6 15.1 61.8 15 61.9 14.9 C 62.1 14.8 62.2 14.6 62.3 14.5 C 62.3 14.3 62.3 14.2 62.4 14 C 62.1 14.2 61.8 14.3 61.4 14.3 C 60.8 14.3 60.4 14.2 60.1 13.9 C 59.8 13.6 59.6 13.2 59.6 12.7 C 59.6 12.7 59.6 12.7 59.6 12.7 C 59.6 12.2 59.8 11.8 60.1 11.5 C 60.5 11.2 60.9 11 61.5 11 C 61.8 11 62.1 11.1 62.3 11.1 C 62.5 11.2 62.7 11.4 62.9 11.5 C 63.3 11.9 63.5 12.6 63.5 13.4 C 63.5 13.4 63.5 13.4 63.5 13.4 C 63.5 14.2 63.3 14.9 62.9 15.4 C 62.5 15.8 62 16.1 61.3 16.1 C 60.7 16.1 60.2 15.9 59.7 15.5 C 59.72 15.5 60.3 14.7 60.3 14.7 C 60.3 14.7 60.29 14.68 60.3 14.7 Z M 61.5 13.4 C 61.8 13.4 62 13.4 62.2 13.2 C 62.3 13.1 62.4 12.9 62.4 12.7 C 62.4 12.7 62.4 12.7 62.4 12.7 C 62.4 12.5 62.3 12.3 62.1 12.1 C 62 12 61.8 11.9 61.5 11.9 C 61.3 11.9 61.1 12 60.9 12.1 C 60.8 12.3 60.7 12.5 60.7 12.7 C 60.7 12.7 60.7 12.7 60.7 12.7 C 60.7 12.9 60.8 13.1 60.9 13.2 C 61.1 13.4 61.3 13.4 61.5 13.4 Z " stroke="none" fill="#4f4f4e"/>  </g>  <g id="Polygon371566">    <path d="M 0.6 5.6 L 0.6 0.7 C 0.6 0.7 2.86 0.7 2.9 0.7 C 3.4 0.7 3.9 0.8 4.1 1.1 C 4.4 1.4 4.5 1.6 4.5 2 C 4.5 2 4.5 2 4.5 2 C 4.5 2.5 4.3 2.8 3.8 3 C 4.1 3.2 4.4 3.3 4.5 3.5 C 4.7 3.7 4.8 3.9 4.8 4.2 C 4.8 4.2 4.8 4.3 4.8 4.3 C 4.8 4.7 4.6 5 4.3 5.3 C 3.9 5.5 3.5 5.6 2.9 5.6 C 2.92 5.6 0.6 5.6 0.6 5.6 Z M 2.6 2.7 C 3.2 2.7 3.4 2.5 3.4 2.2 C 3.4 2.2 3.4 2.1 3.4 2.1 C 3.4 1.8 3.2 1.6 2.7 1.6 C 2.7 1.64 1.6 1.6 1.6 1.6 L 1.6 2.7 L 2.6 2.7 C 2.6 2.7 2.63 2.68 2.6 2.7 Z M 2.9 4.7 C 3.4 4.7 3.7 4.5 3.7 4.1 C 3.7 4.1 3.7 4.1 3.7 4.1 C 3.7 3.8 3.4 3.6 2.9 3.6 C 2.88 3.58 1.6 3.6 1.6 3.6 L 1.6 4.7 L 2.9 4.7 C 2.9 4.7 2.92 4.65 2.9 4.7 Z M 5.6 1.4 L 5.6 0.5 L 6.7 0.5 L 6.7 1.4 L 5.6 1.4 Z M 5.6 5.6 L 5.6 1.8 L 6.6 1.8 L 6.6 5.6 L 5.6 5.6 Z M 9.9 5.7 C 9.4 5.7 9 5.5 8.7 5.1 C 8.71 5.11 8.7 5.6 8.7 5.6 L 7.6 5.6 L 7.6 0.5 L 8.7 0.5 C 8.7 0.5 8.71 2.39 8.7 2.4 C 9 2 9.4 1.8 9.9 1.8 C 10.3 1.8 10.7 2 11.1 2.3 C 11.4 2.6 11.6 3.1 11.6 3.7 C 11.6 3.7 11.6 3.7 11.6 3.7 C 11.6 4.3 11.4 4.8 11.1 5.1 C 10.8 5.5 10.3 5.7 9.9 5.7 Z M 8.7 3.7 C 8.7 4 8.8 4.3 9 4.5 C 9.1 4.7 9.3 4.8 9.6 4.8 C 9.9 4.8 10.1 4.7 10.3 4.5 C 10.4 4.3 10.5 4 10.5 3.7 C 10.5 3.7 10.5 3.7 10.5 3.7 C 10.5 3.4 10.4 3.2 10.3 3 C 10.1 2.8 9.9 2.7 9.6 2.7 C 9.3 2.7 9.1 2.8 9 3 C 8.8 3.2 8.7 3.4 8.7 3.7 C 8.69 3.72 8.7 3.7 8.7 3.7 C 8.7 3.7 8.69 3.73 8.7 3.7 Z M 15.7 5 C 15.3 5.5 14.8 5.7 14.1 5.7 C 13.6 5.7 13.1 5.5 12.7 5.1 C 12.4 4.8 12.2 4.3 12.2 3.7 C 12.2 3.7 12.2 3.7 12.2 3.7 C 12.2 3.2 12.4 2.7 12.7 2.3 C 13.1 2 13.5 1.8 14 1.8 C 14.6 1.8 15.1 2 15.4 2.4 C 15.7 2.8 15.9 3.2 15.9 3.8 C 15.9 3.9 15.9 4 15.9 4.1 C 15.9 4.1 13.2 4.1 13.2 4.1 C 13.3 4.3 13.4 4.5 13.6 4.6 C 13.7 4.8 13.9 4.8 14.2 4.8 C 14.5 4.8 14.8 4.7 15.1 4.4 C 15.07 4.44 15.7 5 15.7 5 C 15.7 5 15.68 4.98 15.7 5 Z M 13.2 3.4 C 13.2 3.4 14.8 3.4 14.8 3.4 C 14.8 3.2 14.7 3 14.6 2.8 C 14.4 2.7 14.3 2.6 14 2.6 C 13.8 2.6 13.6 2.7 13.5 2.8 C 13.4 3 13.3 3.2 13.2 3.4 Z M 16.7 5.6 L 16.7 1.8 L 17.7 1.8 C 17.7 1.8 17.72 2.6 17.7 2.6 C 18 2 18.4 1.8 18.9 1.8 C 18.92 1.78 18.9 2.9 18.9 2.9 C 18.9 2.9 18.87 2.89 18.9 2.9 C 18.5 2.9 18.2 3 18 3.2 C 17.8 3.4 17.7 3.8 17.7 4.2 C 17.72 4.21 17.7 5.6 17.7 5.6 L 16.7 5.6 Z M 21.8 5.6 L 21.8 0.7 C 21.8 0.7 23.71 0.7 23.7 0.7 C 24.5 0.7 25.1 0.9 25.6 1.4 C 26.1 1.9 26.3 2.4 26.3 3.1 C 26.3 3.1 26.3 3.1 26.3 3.1 C 26.3 3.8 26.1 4.4 25.6 4.9 C 25.1 5.4 24.5 5.6 23.7 5.6 C 23.71 5.6 21.8 5.6 21.8 5.6 Z M 23.7 1.7 C 23.71 1.67 22.9 1.7 22.9 1.7 L 22.9 4.6 C 22.9 4.6 23.71 4.63 23.7 4.6 C 24.1 4.6 24.5 4.5 24.8 4.2 C 25 4 25.2 3.6 25.2 3.2 C 25.2 3.2 25.2 3.1 25.2 3.1 C 25.2 2.7 25 2.4 24.8 2.1 C 24.5 1.8 24.1 1.7 23.7 1.7 Z M 30.5 5 C 30.1 5.5 29.6 5.7 28.9 5.7 C 28.4 5.7 27.9 5.5 27.5 5.1 C 27.2 4.8 27 4.3 27 3.7 C 27 3.7 27 3.7 27 3.7 C 27 3.2 27.2 2.7 27.5 2.3 C 27.9 2 28.3 1.8 28.8 1.8 C 29.4 1.8 29.9 2 30.2 2.4 C 30.5 2.8 30.7 3.2 30.7 3.8 C 30.7 3.9 30.7 4 30.6 4.1 C 30.6 4.1 28 4.1 28 4.1 C 28.1 4.3 28.2 4.5 28.4 4.6 C 28.5 4.8 28.7 4.8 29 4.8 C 29.3 4.8 29.6 4.7 29.9 4.4 C 29.86 4.44 30.5 5 30.5 5 C 30.5 5 30.47 4.98 30.5 5 Z M 28 3.4 C 28 3.4 29.6 3.4 29.6 3.4 C 29.6 3.2 29.5 3 29.4 2.8 C 29.2 2.7 29.1 2.6 28.8 2.6 C 28.6 2.6 28.4 2.7 28.3 2.8 C 28.2 3 28.1 3.2 28 3.4 Z M 34.7 6.2 C 34.4 6.6 33.9 6.7 33.1 6.7 C 32.5 6.7 32 6.6 31.5 6.3 C 31.5 6.3 31.8 5.5 31.8 5.5 C 32.3 5.8 32.7 5.9 33.1 5.9 C 33.8 5.9 34.2 5.5 34.2 4.9 C 34.2 4.9 34.2 4.7 34.2 4.7 C 34 4.9 33.8 5 33.6 5.1 C 33.4 5.2 33.2 5.3 32.9 5.3 C 32.5 5.3 32.1 5.1 31.8 4.8 C 31.4 4.5 31.3 4.1 31.3 3.5 C 31.3 3.5 31.3 3.5 31.3 3.5 C 31.3 3 31.4 2.6 31.8 2.3 C 32.1 1.9 32.5 1.8 32.9 1.8 C 33.4 1.8 33.8 2 34.2 2.3 C 34.16 2.34 34.2 1.8 34.2 1.8 L 35.2 1.8 C 35.2 1.8 35.22 4.75 35.2 4.8 C 35.2 5.4 35.1 5.9 34.7 6.2 C 34.7 6.2 34.7 6.2 34.7 6.2 Z M 32.3 3.5 C 32.3 3.8 32.4 4 32.6 4.2 C 32.8 4.3 33 4.4 33.3 4.4 C 33.5 4.4 33.7 4.3 33.9 4.2 C 34.1 4 34.2 3.8 34.2 3.5 C 34.2 3.5 34.2 3.5 34.2 3.5 C 34.2 3.3 34.1 3.1 33.9 2.9 C 33.7 2.7 33.5 2.7 33.3 2.7 C 33 2.7 32.8 2.7 32.6 2.9 C 32.4 3.1 32.3 3.3 32.3 3.5 C 32.35 3.53 32.3 3.5 32.3 3.5 C 32.3 3.5 32.35 3.54 32.3 3.5 Z M 34.7 0.3 C 34.7 0.7 34.5 1 34.3 1.2 C 34.1 1.4 33.8 1.4 33.4 1.4 C 33 1.4 32.7 1.4 32.5 1.2 C 32.2 1 32.1 0.7 32.1 0.3 C 32.1 0.3 32.8 0.3 32.8 0.3 C 32.9 0.6 33.1 0.8 33.4 0.8 C 33.7 0.8 33.9 0.6 34 0.3 C 33.99 0.34 34.7 0.3 34.7 0.3 C 34.7 0.3 34.71 0.34 34.7 0.3 Z M 36.2 1.4 L 36.2 0.5 L 37.3 0.5 L 37.3 1.4 L 36.2 1.4 Z M 36.2 5.6 L 36.2 1.8 L 37.3 1.8 L 37.3 5.6 L 36.2 5.6 Z M 38.3 5.6 L 38.3 1.8 L 39.4 1.8 C 39.4 1.8 39.35 2.6 39.4 2.6 C 39.6 2 40 1.8 40.6 1.8 C 40.55 1.78 40.6 2.9 40.6 2.9 C 40.6 2.9 40.5 2.89 40.5 2.9 C 40.1 2.9 39.8 3 39.7 3.2 C 39.5 3.4 39.4 3.8 39.4 4.2 C 39.35 4.21 39.4 5.6 39.4 5.6 L 38.3 5.6 Z M 41.2 5.6 L 41.2 1.8 L 42.3 1.8 C 42.3 1.8 42.28 2.38 42.3 2.4 C 42.6 2 43 1.8 43.4 1.8 C 43.9 1.8 44.2 2 44.4 2.4 C 44.8 2 45.2 1.8 45.7 1.8 C 46.1 1.8 46.4 1.9 46.6 2.1 C 46.8 2.4 46.9 2.7 46.9 3.2 C 46.94 3.16 46.9 5.6 46.9 5.6 L 45.9 5.6 C 45.9 5.6 45.88 3.51 45.9 3.5 C 45.9 3 45.7 2.7 45.3 2.7 C 45.1 2.7 44.9 2.8 44.8 2.9 C 44.7 3.1 44.6 3.3 44.6 3.5 C 44.61 3.51 44.6 5.6 44.6 5.6 L 43.5 5.6 C 43.5 5.6 43.55 3.51 43.5 3.5 C 43.5 3 43.3 2.7 42.9 2.7 C 42.7 2.7 42.6 2.8 42.5 2.9 C 42.3 3.1 42.3 3.3 42.3 3.5 C 42.28 3.51 42.3 5.6 42.3 5.6 L 41.2 5.6 Z M 51.2 5 C 50.8 5.5 50.3 5.7 49.6 5.7 C 49.1 5.7 48.6 5.5 48.2 5.1 C 47.9 4.8 47.7 4.3 47.7 3.7 C 47.7 3.7 47.7 3.7 47.7 3.7 C 47.7 3.2 47.9 2.7 48.2 2.3 C 48.6 2 49 1.8 49.5 1.8 C 50.1 1.8 50.6 2 50.9 2.4 C 51.2 2.8 51.4 3.2 51.4 3.8 C 51.4 3.9 51.4 4 51.4 4.1 C 51.4 4.1 48.7 4.1 48.7 4.1 C 48.8 4.3 48.9 4.5 49.1 4.6 C 49.2 4.8 49.4 4.8 49.7 4.8 C 50 4.8 50.3 4.7 50.6 4.4 C 50.57 4.44 51.2 5 51.2 5 C 51.2 5 51.18 4.98 51.2 5 Z M 48.7 3.4 C 48.7 3.4 50.3 3.4 50.3 3.4 C 50.3 3.2 50.2 3 50.1 2.8 C 49.9 2.7 49.8 2.6 49.5 2.6 C 49.3 2.6 49.1 2.7 49 2.8 C 48.9 3 48.8 3.2 48.7 3.4 Z M 52.2 5.6 L 52.2 1.8 L 53.2 1.8 C 53.2 1.8 53.22 2.38 53.2 2.4 C 53.5 2 53.9 1.8 54.3 1.8 C 54.7 1.8 55 1.9 55.3 2.1 C 55.5 2.4 55.6 2.7 55.6 3.2 C 55.59 3.17 55.6 5.6 55.6 5.6 L 54.5 5.6 C 54.5 5.6 54.53 3.51 54.5 3.5 C 54.5 3 54.3 2.7 53.9 2.7 C 53.7 2.7 53.5 2.8 53.4 2.9 C 53.3 3.1 53.2 3.3 53.2 3.5 C 53.22 3.51 53.2 5.6 53.2 5.6 L 52.2 5.6 Z M 56.5 1.4 L 56.5 0.5 L 57.7 0.5 L 57.7 1.4 L 56.5 1.4 Z M 56.6 5.6 L 56.6 1.8 L 57.6 1.8 L 57.6 5.6 L 56.6 5.6 Z M 60.6 3.9 L 60.6 2.9 L 63.6 2.9 L 63.6 3.9 L 60.6 3.9 Z M 69.7 0.7 L 70.9 0.7 L 69.3 3.1 L 71 5.6 L 69.7 5.6 L 68.6 3.9 L 67.5 5.6 L 66.3 5.6 L 68 3.1 L 66.3 0.7 L 67.6 0.7 L 68.6 2.3 L 69.7 0.7 Z M 71.2 3.9 L 71.2 2.9 L 73.3 2.9 L 73.3 3.9 L 71.2 3.9 Z M 74.3 5.6 L 74.3 0.7 C 74.3 0.7 76.27 0.7 76.3 0.7 C 76.9 0.7 77.3 0.9 77.6 1.2 C 78 1.5 78.1 1.9 78.1 2.4 C 78.1 2.4 78.1 2.4 78.1 2.4 C 78.1 3 78 3.4 77.6 3.7 C 77.2 4 76.7 4.1 76.2 4.1 C 76.17 4.13 75.3 4.1 75.3 4.1 L 75.3 5.6 L 74.3 5.6 Z M 75.3 3.2 C 75.3 3.2 76.2 3.17 76.2 3.2 C 76.5 3.2 76.7 3.1 76.8 3 C 77 2.8 77.1 2.6 77.1 2.4 C 77.1 2.4 77.1 2.4 77.1 2.4 C 77.1 2.2 77 2 76.8 1.9 C 76.7 1.7 76.5 1.7 76.2 1.7 C 76.18 1.67 75.3 1.7 75.3 1.7 L 75.3 3.2 Z M 78.9 5.6 L 78.9 0.7 L 80 0.7 L 80 4.6 L 82.5 4.6 L 82.5 5.6 L 78.9 5.6 Z M 88 3.1 C 88 3.9 87.7 4.5 87.2 4.9 C 86.7 5.4 86.1 5.7 85.4 5.7 C 84.6 5.7 84 5.4 83.5 5 C 83 4.5 82.8 3.9 82.8 3.2 C 82.8 3.2 82.8 3.1 82.8 3.1 C 82.8 2.4 83 1.8 83.5 1.4 C 84 0.9 84.6 0.6 85.4 0.6 C 86.1 0.6 86.8 0.9 87.3 1.3 C 87.7 1.8 88 2.4 88 3.1 C 87.99 3.14 88 3.1 88 3.1 C 88 3.1 87.99 3.15 88 3.1 Z M 83.9 3.1 C 83.9 3.6 84 3.9 84.3 4.2 C 84.6 4.5 85 4.7 85.4 4.7 C 85.8 4.7 86.2 4.5 86.5 4.2 C 86.7 4 86.9 3.6 86.9 3.2 C 86.9 3.2 86.9 3.1 86.9 3.1 C 86.9 2.7 86.7 2.4 86.4 2.1 C 86.2 1.8 85.8 1.6 85.4 1.6 C 84.9 1.6 84.6 1.8 84.3 2.1 C 84 2.3 83.9 2.7 83.9 3.1 C 83.91 3.14 83.9 3.1 83.9 3.1 C 83.9 3.1 83.91 3.15 83.9 3.1 Z M 90.7 5.7 C 89.8 5.7 89.2 5.4 88.6 4.9 C 88.6 4.9 89.2 4.1 89.2 4.1 C 89.7 4.5 90.2 4.7 90.7 4.7 C 90.9 4.7 91.1 4.7 91.2 4.6 C 91.3 4.5 91.4 4.4 91.4 4.3 C 91.4 4.3 91.4 4.2 91.4 4.2 C 91.4 4.1 91.3 4 91.2 3.9 C 91.1 3.8 90.8 3.7 90.4 3.6 C 90.1 3.5 89.9 3.5 89.7 3.4 C 89.5 3.3 89.4 3.3 89.2 3.1 C 89.1 3 89 2.9 88.9 2.7 C 88.8 2.6 88.8 2.4 88.8 2.1 C 88.8 2.1 88.8 2.1 88.8 2.1 C 88.8 1.7 88.9 1.3 89.3 1 C 89.6 0.8 90 0.6 90.5 0.6 C 91.2 0.6 91.8 0.8 92.3 1.3 C 92.3 1.3 91.7 2.1 91.7 2.1 C 91.3 1.7 90.9 1.6 90.5 1.6 C 90.3 1.6 90.1 1.6 90 1.7 C 89.9 1.8 89.8 1.9 89.8 2 C 89.8 2 89.8 2 89.8 2 C 89.8 2.2 89.9 2.3 90 2.4 C 90.2 2.5 90.5 2.6 90.9 2.7 C 91.4 2.8 91.8 3 92.1 3.2 C 92.3 3.4 92.5 3.7 92.5 4.1 C 92.5 4.1 92.5 4.2 92.5 4.2 C 92.5 4.6 92.3 5 92 5.3 C 91.6 5.5 91.2 5.7 90.7 5.7 Z M 93.4 5.6 L 93.4 0.7 L 94.5 0.7 L 94.5 5.6 L 93.4 5.6 Z M 100.7 3.1 C 100.7 3.9 100.5 4.5 100 4.9 C 99.5 5.4 98.9 5.7 98.1 5.7 C 97.4 5.7 96.8 5.4 96.3 5 C 95.8 4.5 95.5 3.9 95.5 3.2 C 95.5 3.2 95.5 3.1 95.5 3.1 C 95.5 2.4 95.8 1.8 96.3 1.4 C 96.8 0.9 97.4 0.6 98.1 0.6 C 98.9 0.6 99.5 0.9 100 1.3 C 100.5 1.8 100.7 2.4 100.7 3.1 C 100.74 3.14 100.7 3.1 100.7 3.1 C 100.7 3.1 100.74 3.15 100.7 3.1 Z M 96.7 3.1 C 96.7 3.6 96.8 3.9 97.1 4.2 C 97.4 4.5 97.7 4.7 98.1 4.7 C 98.6 4.7 98.9 4.5 99.2 4.2 C 99.5 4 99.6 3.6 99.6 3.2 C 99.6 3.2 99.6 3.1 99.6 3.1 C 99.6 2.7 99.5 2.4 99.2 2.1 C 98.9 1.8 98.6 1.6 98.1 1.6 C 97.7 1.6 97.3 1.8 97.1 2.1 C 96.8 2.3 96.7 2.7 96.7 3.1 C 96.66 3.14 96.7 3.1 96.7 3.1 C 96.7 3.1 96.66 3.15 96.7 3.1 Z M 101.7 5.6 L 101.7 0.7 L 102.7 0.7 L 105 3.7 L 105 0.7 L 106.1 0.7 L 106.1 5.6 L 105.1 5.6 L 102.8 2.5 L 102.8 5.6 L 101.7 5.6 Z M 107.9 3.1 C 107.6 3.1 107.3 3 107.1 2.7 C 106.8 2.5 106.7 2.2 106.7 1.9 C 106.7 1.9 106.7 1.9 106.7 1.9 C 106.7 1.5 106.8 1.2 107.1 1 C 107.3 0.8 107.6 0.6 107.9 0.6 C 108.3 0.6 108.6 0.7 108.8 1 C 109 1.2 109.1 1.5 109.1 1.8 C 109.1 1.8 109.1 1.9 109.1 1.9 C 109.1 2.2 109 2.5 108.8 2.7 C 108.5 3 108.3 3.1 107.9 3.1 Z M 106.8 1.9 C 106.8 2.2 107 2.4 107.2 2.6 C 107.4 2.8 107.6 2.9 107.9 2.9 C 108.2 2.9 108.5 2.8 108.7 2.6 C 108.9 2.4 109 2.2 109 1.9 C 109 1.9 109 1.8 109 1.8 C 109 1.5 108.9 1.3 108.7 1.1 C 108.5 0.9 108.2 0.8 107.9 0.8 C 107.6 0.8 107.4 0.9 107.2 1.1 C 107 1.3 106.8 1.6 106.8 1.9 C 106.85 1.85 106.8 1.9 106.8 1.9 C 106.8 1.9 106.85 1.86 106.8 1.9 Z M 107.4 2.5 L 107.4 1.2 C 107.4 1.2 108.01 1.19 108 1.2 C 108.4 1.2 108.5 1.3 108.5 1.6 C 108.5 1.6 108.5 1.6 108.5 1.6 C 108.5 1.8 108.5 2 108.3 2 C 108.28 2.03 108.6 2.5 108.6 2.5 L 108.2 2.5 L 107.9 2.1 L 107.8 2.1 L 107.8 2.5 L 107.4 2.5 Z M 107.8 1.8 C 107.8 1.8 107.99 1.81 108 1.8 C 108.1 1.8 108.2 1.8 108.2 1.7 C 108.2 1.7 108.2 1.6 108.2 1.6 C 108.2 1.5 108.1 1.5 108 1.5 C 107.99 1.5 107.8 1.5 107.8 1.5 L 107.8 1.8 Z M 111.9 5.6 L 111.9 0.7 L 113 0.7 L 113 4.6 L 115.4 4.6 L 115.4 5.6 L 111.9 5.6 Z " stroke="none" fill="#4f4f4e"/>  </g></svg>