<?xml version="1.0" standalone="no"?><!DOCTYPE svg PUBLIC "-//W3C//DTD SVG 1.1//EN" "http://www.w3.org/Graphics/SVG/1.1/DTD/svg11.dtd"><svg xmlns="http://www.w3.org/2000/svg" version="1.1" width="43.1px" height="12.4px" viewBox="0 -1 43.1 12.4" style="top:-1px"><desc>GEFU</desc><defs/><g id="Polygon360391"><path d="m27.9 6.8c-.5.5-1.2.8-1.9.8c-.8 0-1.4-.3-1.8-.8c-.5-.4-.7-1-.7-1.8c0-.7.2-1.3.7-1.8c.4-.5 1-.7 1.7-.7c.4 0 .8 0 1 .2c.3.1.6.2.9.4l-.4.5c-.4-.4-.9-.6-1.5-.6c-.5 0-1 .2-1.3.6c-.4.4-.5.9-.5 1.4c0 .6.1 1.1.5 1.5c.3.4.8.6 1.4.6c.5 0 1-.2 1.4-.5V5.4h-1.5v-.5h2v1.9s.04.01 0 0zm1.3.7V2.6h3.5v.5h-3v1.7h2.7v.5h-2.7v1.7h3.1v.5h-3.6zm4.7 0V2.6h3.5v.5h-3v1.7h2.7v.5h-2.7v2.2h-.5zm6.5.1c-.6 0-1.1-.2-1.5-.6c-.3-.4-.5-.9-.5-1.6V2.6h.5s.04 2.79 0 2.8c0 .5.2.9.4 1.2c.3.3.7.4 1.1.4c.5 0 .9-.1 1.1-.4c.3-.2.4-.6.4-1.2c.02.03 0-2.8 0-2.8h.6s-.03 2.78 0 2.8c0 .7-.2 1.2-.6 1.6c-.3.4-.8.6-1.5.6z" stroke="none" fill="#000"/></g></svg>