<?xml version="1.0" standalone="no"?><!DOCTYPE svg PUBLIC "-//W3C//DTD SVG 1.1//EN" "http://www.w3.org/Graphics/SVG/1.1/DTD/svg11.dtd"><svg xmlns="http://www.w3.org/2000/svg" version="1.1" width="16.2px" height="12.4px" viewBox="0 -1 16.2 12.4" style="top:-1px"><desc/><defs/><g id="Polygon384095"><path d="m1.3 7.5V3.1l-1 .3L.2 3l1.2-.5h.4v5h-.5zm4.2 0V6.3H2.9l-.1-.4l2.8-3.4h.5v3.4h.7v.4h-.7v1.2h-.6zm-2-1.6h2V3.3l-2 2.6zm7.7.3c0 .4-.1.7-.5 1c-.3.2-.8.3-1.3.3c-.5 0-1-.1-1.3-.3c-.4-.3-.5-.6-.5-1v-.1c0-.2.1-.5.2-.7c.2-.2.5-.3.8-.5c-.6-.2-.9-.6-.9-1.1c0-.4.2-.7.5-.9c.4-.3.8-.4 1.2-.4c.5 0 .9.1 1.2.4c.3.2.5.5.5.9c0 .5-.3.9-.9 1.1c.3.2.6.3.8.5c.2.2.2.5.2.7c.05.04 0 .1 0 .1c0 0 .05-.05 0 0zM8.3 3.9c0 .2.1.4.3.6c.2.2.5.2.8.2c.3 0 .6 0 .8-.2c.2-.2.3-.4.3-.6v-.1c0-.2-.1-.4-.3-.6c-.2-.1-.5-.2-.8-.2c-.3 0-.6.1-.8.2c-.2.2-.3.4-.3.6v.1s-.01-.05 0 0zm-.2 2.2c0 .3.1.5.4.7c.2.2.5.3.9.3c.4 0 .7-.1.9-.3c.3-.2.4-.4.4-.7c0-.2-.1-.5-.4-.6c-.2-.2-.5-.3-.9-.3c-.4 0-.7.1-.9.3c-.2.1-.4.4-.4.6c.03.03 0 0 0 0c0 0 .03.05 0 0z" stroke="none" fill="#000"/></g></svg>