<?xml version="1.0" standalone="no"?><!DOCTYPE svg PUBLIC "-//W3C//DTD SVG 1.1//EN" "http://www.w3.org/Graphics/SVG/1.1/DTD/svg11.dtd"><svg xmlns="http://www.w3.org/2000/svg" version="1.1" width="181px" height="44.4px" viewBox="0 -2 181 44.4" style="top:-2px">  <desc>r n Kodu: 12809 • Dolu hacim: 400 ml • L 7 cm, W 7 cm, H 17,5 cm</desc>  <defs/>  <g id="Polygon382404">    <path d="M 2.6 28.3 C 2.6 28.6 2.5 28.8 2.3 29 C 2.1 29.2 1.9 29.3 1.7 29.3 C 1.4 29.3 1.2 29.2 1 29 C 0.8 28.8 0.8 28.6 0.8 28.3 C 0.8 28.3 0.8 28.3 0.8 28.3 C 0.8 28.1 0.8 27.9 1 27.7 C 1.2 27.5 1.4 27.4 1.7 27.4 C 1.9 27.4 2.1 27.5 2.3 27.7 C 2.5 27.9 2.6 28.1 2.6 28.3 C 2.59 28.33 2.6 28.3 2.6 28.3 C 2.6 28.3 2.59 28.34 2.6 28.3 Z M 6.1 30.8 L 6.1 25.9 L 6.7 25.9 L 6.7 30.3 L 9.4 30.3 L 9.4 30.8 L 6.1 30.8 Z M 12.8 30.8 L 15 26.4 L 12.3 26.4 L 12.3 25.9 L 15.7 25.9 L 15.7 26.3 L 13.4 30.8 L 12.8 30.8 Z M 21.8 30.2 C 21.4 30.7 20.9 30.9 20.4 30.9 C 19.8 30.9 19.4 30.7 19 30.3 C 18.7 30 18.5 29.5 18.5 29 C 18.5 29 18.5 29 18.5 29 C 18.5 28.5 18.7 28 19 27.7 C 19.4 27.3 19.8 27.1 20.4 27.1 C 20.9 27.1 21.4 27.3 21.8 27.7 C 21.8 27.7 21.4 28.1 21.4 28.1 C 21.1 27.8 20.7 27.6 20.3 27.6 C 20 27.6 19.7 27.7 19.4 28 C 19.2 28.3 19.1 28.6 19.1 29 C 19.1 29 19.1 29 19.1 29 C 19.1 29.4 19.2 29.7 19.4 30 C 19.7 30.3 20 30.4 20.4 30.4 C 20.8 30.4 21.2 30.2 21.5 29.9 C 21.49 29.86 21.8 30.2 21.8 30.2 C 21.8 30.2 21.83 30.18 21.8 30.2 Z M 22.7 30.8 L 22.7 27.2 L 23.3 27.2 C 23.3 27.2 23.26 27.79 23.3 27.8 C 23.4 27.6 23.6 27.4 23.7 27.3 C 23.9 27.2 24.1 27.1 24.4 27.1 C 25 27.1 25.4 27.3 25.6 27.8 C 25.9 27.3 26.3 27.1 26.9 27.1 C 27.3 27.1 27.6 27.2 27.9 27.5 C 28.1 27.8 28.2 28.1 28.2 28.6 C 28.21 28.56 28.2 30.8 28.2 30.8 L 27.7 30.8 C 27.7 30.8 27.67 28.69 27.7 28.7 C 27.7 28.3 27.6 28.1 27.4 27.9 C 27.3 27.7 27 27.6 26.7 27.6 C 26.5 27.6 26.2 27.7 26 27.9 C 25.8 28.1 25.7 28.4 25.7 28.7 C 25.73 28.71 25.7 30.8 25.7 30.8 L 25.2 30.8 C 25.2 30.8 25.2 28.67 25.2 28.7 C 25.2 28.3 25.1 28.1 25 27.9 C 24.8 27.7 24.6 27.6 24.3 27.6 C 24 27.6 23.7 27.7 23.5 27.9 C 23.4 28.1 23.3 28.4 23.3 28.7 C 23.26 28.73 23.3 30.8 23.3 30.8 L 22.7 30.8 Z M 29.2 31.7 C 29.2 31.7 29.1 31.4 29.1 31.4 C 29.4 31.3 29.6 31.1 29.5 30.8 C 29.55 30.8 29.3 30.8 29.3 30.8 L 29.3 30.1 L 29.9 30.1 C 29.9 30.1 29.94 30.69 29.9 30.7 C 29.9 31 29.9 31.2 29.8 31.3 C 29.6 31.5 29.4 31.6 29.2 31.7 Z M 34.6 30.8 L 32.9 25.9 L 33.5 25.9 L 34.9 30 L 36.2 25.9 L 36.7 25.9 L 38 30 L 39.4 25.9 L 40 25.9 L 38.3 30.8 L 37.8 30.8 L 36.4 26.9 L 35.1 30.8 L 34.6 30.8 Z M 43.4 30.8 L 45.6 26.4 L 42.9 26.4 L 42.9 25.9 L 46.2 25.9 L 46.2 26.3 L 44 30.8 L 43.4 30.8 Z M 52.4 30.2 C 52 30.7 51.5 30.9 50.9 30.9 C 50.4 30.9 50 30.7 49.6 30.3 C 49.2 30 49.1 29.5 49.1 29 C 49.1 29 49.1 29 49.1 29 C 49.1 28.5 49.2 28 49.6 27.7 C 50 27.3 50.4 27.1 50.9 27.1 C 51.5 27.1 52 27.3 52.4 27.7 C 52.4 27.7 52 28.1 52 28.1 C 51.7 27.8 51.3 27.6 50.9 27.6 C 50.5 27.6 50.2 27.7 50 28 C 49.7 28.3 49.6 28.6 49.6 29 C 49.6 29 49.6 29 49.6 29 C 49.6 29.4 49.7 29.7 50 30 C 50.3 30.3 50.6 30.4 51 30.4 C 51.4 30.4 51.7 30.2 52.1 29.9 C 52.06 29.86 52.4 30.2 52.4 30.2 C 52.4 30.2 52.4 30.18 52.4 30.2 Z M 53.3 30.8 L 53.3 27.2 L 53.8 27.2 C 53.8 27.2 53.83 27.79 53.8 27.8 C 54 27.6 54.1 27.4 54.3 27.3 C 54.5 27.2 54.7 27.1 55 27.1 C 55.5 27.1 55.9 27.3 56.2 27.8 C 56.5 27.3 56.9 27.1 57.4 27.1 C 57.9 27.1 58.2 27.2 58.4 27.5 C 58.7 27.8 58.8 28.1 58.8 28.6 C 58.78 28.56 58.8 30.8 58.8 30.8 L 58.2 30.8 C 58.2 30.8 58.24 28.69 58.2 28.7 C 58.2 28.3 58.2 28.1 58 27.9 C 57.8 27.7 57.6 27.6 57.3 27.6 C 57 27.6 56.8 27.7 56.6 27.9 C 56.4 28.1 56.3 28.4 56.3 28.7 C 56.3 28.71 56.3 30.8 56.3 30.8 L 55.8 30.8 C 55.8 30.8 55.77 28.67 55.8 28.7 C 55.8 28.3 55.7 28.1 55.5 27.9 C 55.4 27.7 55.1 27.6 54.8 27.6 C 54.5 27.6 54.3 27.7 54.1 27.9 C 53.9 28.1 53.8 28.4 53.8 28.7 C 53.83 28.73 53.8 30.8 53.8 30.8 L 53.3 30.8 Z M 59.7 31.7 C 59.7 31.7 59.6 31.4 59.6 31.4 C 60 31.3 60.1 31.1 60.1 30.8 C 60.12 30.8 59.9 30.8 59.9 30.8 L 59.9 30.1 L 60.5 30.1 C 60.5 30.1 60.51 30.69 60.5 30.7 C 60.5 31 60.4 31.2 60.3 31.3 C 60.2 31.5 60 31.6 59.7 31.7 Z M 63.8 30.8 L 63.8 25.9 L 64.4 25.9 L 64.4 28.1 L 67.2 28.1 L 67.2 25.9 L 67.8 25.9 L 67.8 30.8 L 67.2 30.8 L 67.2 28.6 L 64.4 28.6 L 64.4 30.8 L 63.8 30.8 Z M 71.8 30.8 L 71.8 26.4 L 70.9 26.7 L 70.8 26.3 L 72 25.9 L 72.4 25.9 L 72.4 30.8 L 71.8 30.8 Z M 74 30.8 L 76.2 26.4 L 73.5 26.4 L 73.5 25.9 L 76.9 25.9 L 76.9 26.3 L 74.6 30.8 L 74 30.8 Z M 76.9 31.7 C 76.9 31.7 76.9 31.4 76.9 31.4 C 77.2 31.3 77.4 31.1 77.3 30.8 C 77.33 30.8 77.1 30.8 77.1 30.8 L 77.1 30.1 L 77.7 30.1 C 77.7 30.1 77.72 30.69 77.7 30.7 C 77.7 31 77.7 31.2 77.5 31.3 C 77.4 31.5 77.2 31.6 76.9 31.7 Z M 80.4 30.9 C 79.7 30.9 79.1 30.6 78.6 30.1 C 78.6 30.1 79 29.7 79 29.7 C 79.4 30.2 79.9 30.4 80.4 30.4 C 80.7 30.4 81 30.3 81.2 30.1 C 81.5 29.9 81.6 29.6 81.6 29.3 C 81.6 29.3 81.6 29.3 81.6 29.3 C 81.6 29 81.4 28.7 81.2 28.5 C 81 28.3 80.7 28.3 80.3 28.3 C 80 28.3 79.6 28.3 79.3 28.5 C 79.32 28.53 78.9 28.3 78.9 28.3 L 79.1 25.9 L 81.9 25.9 L 81.9 26.4 L 79.6 26.4 C 79.6 26.4 79.46 27.98 79.5 28 C 79.8 27.8 80.1 27.8 80.4 27.8 C 80.9 27.8 81.3 27.9 81.6 28.2 C 82 28.4 82.1 28.8 82.1 29.3 C 82.1 29.3 82.1 29.3 82.1 29.3 C 82.1 29.7 82 30.1 81.6 30.4 C 81.3 30.7 80.9 30.9 80.4 30.9 Z M 88.3 30.2 C 87.9 30.7 87.4 30.9 86.9 30.9 C 86.3 30.9 85.9 30.7 85.5 30.3 C 85.2 30 85 29.5 85 29 C 85 29 85 29 85 29 C 85 28.5 85.2 28 85.5 27.7 C 85.9 27.3 86.3 27.1 86.9 27.1 C 87.4 27.1 87.9 27.3 88.3 27.7 C 88.3 27.7 88 28.1 88 28.1 C 87.6 27.8 87.2 27.6 86.9 27.6 C 86.5 27.6 86.2 27.7 85.9 28 C 85.7 28.3 85.6 28.6 85.6 29 C 85.6 29 85.6 29 85.6 29 C 85.6 29.4 85.7 29.7 85.9 30 C 86.2 30.3 86.5 30.4 86.9 30.4 C 87.3 30.4 87.7 30.2 88 29.9 C 88 29.86 88.3 30.2 88.3 30.2 C 88.3 30.2 88.35 30.18 88.3 30.2 Z M 89.2 30.8 L 89.2 27.2 L 89.8 27.2 C 89.8 27.2 89.77 27.79 89.8 27.8 C 89.9 27.6 90.1 27.4 90.3 27.3 C 90.4 27.2 90.7 27.1 90.9 27.1 C 91.5 27.1 91.9 27.3 92.1 27.8 C 92.4 27.3 92.9 27.1 93.4 27.1 C 93.8 27.1 94.1 27.2 94.4 27.5 C 94.6 27.8 94.7 28.1 94.7 28.6 C 94.72 28.56 94.7 30.8 94.7 30.8 L 94.2 30.8 C 94.2 30.8 94.18 28.69 94.2 28.7 C 94.2 28.3 94.1 28.1 93.9 27.9 C 93.8 27.7 93.5 27.6 93.2 27.6 C 93 27.6 92.7 27.7 92.5 27.9 C 92.3 28.1 92.2 28.4 92.2 28.7 C 92.24 28.71 92.2 30.8 92.2 30.8 L 91.7 30.8 C 91.7 30.8 91.71 28.67 91.7 28.7 C 91.7 28.3 91.6 28.1 91.5 27.9 C 91.3 27.7 91.1 27.6 90.8 27.6 C 90.5 27.6 90.3 27.7 90.1 27.9 C 89.9 28.1 89.8 28.4 89.8 28.7 C 89.77 28.73 89.8 30.8 89.8 30.8 L 89.2 30.8 Z " stroke="none" fill="#000"/>  </g>  <g id="Polygon382403">    <path d="M 2.6 19.9 C 2.6 20.2 2.5 20.4 2.3 20.6 C 2.1 20.8 1.9 20.9 1.7 20.9 C 1.4 20.9 1.2 20.8 1 20.6 C 0.8 20.4 0.8 20.2 0.8 19.9 C 0.8 19.9 0.8 19.9 0.8 19.9 C 0.8 19.7 0.8 19.5 1 19.3 C 1.2 19.1 1.4 19 1.7 19 C 1.9 19 2.1 19.1 2.3 19.3 C 2.5 19.5 2.6 19.7 2.6 19.9 C 2.59 19.93 2.6 19.9 2.6 19.9 C 2.6 19.9 2.59 19.94 2.6 19.9 Z M 6.1 22.4 L 6.1 17.5 C 6.1 17.5 7.84 17.5 7.8 17.5 C 8.6 17.5 9.2 17.7 9.7 18.2 C 10.2 18.7 10.4 19.2 10.4 19.9 C 10.4 19.9 10.4 19.9 10.4 19.9 C 10.4 20.6 10.2 21.2 9.7 21.7 C 9.2 22.2 8.6 22.4 7.8 22.4 C 7.84 22.4 6.1 22.4 6.1 22.4 Z M 7.8 18 C 7.84 18.01 6.7 18 6.7 18 L 6.7 21.9 C 6.7 21.9 7.84 21.89 7.8 21.9 C 8.5 21.9 8.9 21.7 9.3 21.3 C 9.7 21 9.9 20.5 9.9 20 C 9.9 20 9.9 19.9 9.9 19.9 C 9.9 19.4 9.7 18.9 9.3 18.6 C 8.9 18.2 8.4 18 7.8 18 Z M 13.2 22.5 C 12.6 22.5 12.2 22.3 11.8 21.9 C 11.5 21.6 11.3 21.1 11.3 20.6 C 11.3 20.6 11.3 20.6 11.3 20.6 C 11.3 20.1 11.5 19.6 11.8 19.3 C 12.2 18.9 12.6 18.7 13.2 18.7 C 13.7 18.7 14.2 18.9 14.5 19.3 C 14.9 19.6 15.1 20.1 15.1 20.6 C 15.1 20.6 15.1 20.6 15.1 20.6 C 15.1 21.1 14.9 21.6 14.5 21.9 C 14.2 22.3 13.7 22.5 13.2 22.5 Z M 13.2 22 C 13.6 22 13.9 21.9 14.1 21.6 C 14.4 21.3 14.5 21 14.5 20.6 C 14.5 20.6 14.5 20.6 14.5 20.6 C 14.5 20.2 14.4 19.9 14.1 19.6 C 13.9 19.3 13.6 19.2 13.2 19.2 C 12.8 19.2 12.5 19.3 12.2 19.6 C 12 19.9 11.9 20.2 11.9 20.6 C 11.9 20.6 11.9 20.6 11.9 20.6 C 11.9 21 12 21.3 12.2 21.6 C 12.5 21.9 12.8 22 13.2 22 Z M 16.1 22.4 L 16.1 17.3 L 16.6 17.3 L 16.6 22.4 L 16.1 22.4 Z M 20.5 21.8 C 20.2 22.2 19.7 22.5 19.2 22.5 C 18.8 22.5 18.4 22.3 18.2 22.1 C 18 21.8 17.8 21.5 17.8 21 C 17.83 21.03 17.8 18.8 17.8 18.8 L 18.4 18.8 C 18.4 18.8 18.37 20.89 18.4 20.9 C 18.4 21.2 18.5 21.5 18.6 21.7 C 18.8 21.9 19.1 22 19.4 22 C 19.7 22 19.9 21.9 20.1 21.7 C 20.4 21.5 20.5 21.2 20.5 20.9 C 20.45 20.85 20.5 18.8 20.5 18.8 L 21 18.8 L 21 22.4 L 20.5 22.4 L 20.5 21.8 C 20.5 21.8 20.45 21.77 20.5 21.8 Z M 24.3 22.4 L 24.3 17.3 L 24.8 17.3 C 24.8 17.3 24.84 19.41 24.8 19.4 C 25.1 18.9 25.5 18.7 26.1 18.7 C 26.5 18.7 26.8 18.8 27.1 19.1 C 27.3 19.4 27.5 19.7 27.5 20.2 C 27.46 20.15 27.5 22.4 27.5 22.4 L 26.9 22.4 C 26.9 22.4 26.92 20.29 26.9 20.3 C 26.9 19.9 26.8 19.7 26.7 19.5 C 26.5 19.3 26.2 19.2 25.9 19.2 C 25.6 19.2 25.3 19.3 25.1 19.5 C 24.9 19.7 24.8 20 24.8 20.3 C 24.84 20.33 24.8 22.4 24.8 22.4 L 24.3 22.4 Z M 31 21.9 C 30.7 22.3 30.2 22.5 29.7 22.5 C 29.3 22.5 29 22.4 28.7 22.2 C 28.5 22 28.3 21.7 28.3 21.3 C 28.3 21.3 28.3 21.3 28.3 21.3 C 28.3 21 28.5 20.7 28.8 20.5 C 29 20.3 29.4 20.2 29.9 20.2 C 30.3 20.2 30.6 20.2 31 20.3 C 31 20.3 31 20.2 31 20.2 C 31 19.9 30.9 19.6 30.7 19.5 C 30.5 19.3 30.3 19.2 29.9 19.2 C 29.6 19.2 29.2 19.3 28.8 19.5 C 28.8 19.5 28.7 19 28.7 19 C 29.1 18.8 29.5 18.7 30 18.7 C 30.5 18.7 30.9 18.9 31.1 19.1 C 31.4 19.4 31.5 19.7 31.5 20.2 C 31.51 20.19 31.5 22.4 31.5 22.4 L 31 22.4 L 31 21.9 C 31 21.9 31 21.85 31 21.9 Z M 29.8 22 C 30.1 22 30.4 22 30.7 21.8 C 30.9 21.6 31 21.4 31 21.1 C 31 21.1 31 20.7 31 20.7 C 30.6 20.6 30.3 20.6 29.9 20.6 C 29.6 20.6 29.3 20.6 29.2 20.8 C 29 20.9 28.9 21.1 28.9 21.3 C 28.9 21.3 28.9 21.3 28.9 21.3 C 28.9 21.5 29 21.7 29.1 21.9 C 29.3 22 29.5 22 29.8 22 Z M 35.8 21.8 C 35.4 22.3 34.9 22.5 34.3 22.5 C 33.8 22.5 33.3 22.3 33 21.9 C 32.6 21.6 32.4 21.1 32.4 20.6 C 32.4 20.6 32.4 20.6 32.4 20.6 C 32.4 20.1 32.6 19.6 33 19.3 C 33.3 18.9 33.8 18.7 34.3 18.7 C 34.9 18.7 35.3 18.9 35.7 19.3 C 35.7 19.3 35.4 19.7 35.4 19.7 C 35 19.4 34.7 19.2 34.3 19.2 C 33.9 19.2 33.6 19.3 33.4 19.6 C 33.1 19.9 33 20.2 33 20.6 C 33 20.6 33 20.6 33 20.6 C 33 21 33.1 21.3 33.4 21.6 C 33.6 21.9 33.9 22 34.3 22 C 34.7 22 35.1 21.8 35.4 21.5 C 35.43 21.46 35.8 21.8 35.8 21.8 C 35.8 21.8 35.77 21.78 35.8 21.8 Z M 36.7 18 L 36.7 17.4 L 37.3 17.4 L 37.3 18 L 36.7 18 Z M 36.7 22.4 L 36.7 18.8 L 37.2 18.8 L 37.2 22.4 L 36.7 22.4 Z M 38.5 22.4 L 38.5 18.8 L 39 18.8 C 39 18.8 39.04 19.39 39 19.4 C 39.2 19.2 39.3 19 39.5 18.9 C 39.7 18.8 39.9 18.7 40.2 18.7 C 40.8 18.7 41.1 18.9 41.4 19.4 C 41.7 18.9 42.1 18.7 42.6 18.7 C 43.1 18.7 43.4 18.8 43.6 19.1 C 43.9 19.4 44 19.7 44 20.2 C 43.99 20.16 44 22.4 44 22.4 L 43.4 22.4 C 43.4 22.4 43.45 20.29 43.4 20.3 C 43.4 19.9 43.4 19.7 43.2 19.5 C 43 19.3 42.8 19.2 42.5 19.2 C 42.2 19.2 42 19.3 41.8 19.5 C 41.6 19.7 41.5 20 41.5 20.3 C 41.51 20.31 41.5 22.4 41.5 22.4 L 41 22.4 C 41 22.4 40.98 20.27 41 20.3 C 41 19.9 40.9 19.7 40.7 19.5 C 40.6 19.3 40.3 19.2 40 19.2 C 39.8 19.2 39.5 19.3 39.3 19.5 C 39.1 19.7 39 20 39 20.3 C 39.04 20.33 39 22.4 39 22.4 L 38.5 22.4 Z M 45.1 19.5 L 45.1 18.8 L 45.7 18.8 L 45.7 19.5 L 45.1 19.5 Z M 45.1 22.4 L 45.1 21.7 L 45.7 21.7 L 45.7 22.4 L 45.1 22.4 Z M 51.4 22.4 L 51.4 21.2 L 48.9 21.2 L 48.7 20.8 L 51.5 17.5 L 52 17.5 L 52 20.8 L 52.7 20.8 L 52.7 21.2 L 52 21.2 L 52 22.4 L 51.4 22.4 Z M 49.4 20.8 L 51.4 20.8 L 51.4 18.2 L 49.4 20.8 Z M 57.7 19.9 C 57.7 20.7 57.5 21.3 57.1 21.7 C 56.7 22.2 56.2 22.5 55.6 22.5 C 55 22.5 54.5 22.2 54.1 21.8 C 53.7 21.3 53.5 20.7 53.5 20 C 53.5 20 53.5 19.9 53.5 19.9 C 53.5 19.2 53.7 18.6 54.1 18.2 C 54.5 17.7 55 17.4 55.6 17.4 C 56.2 17.4 56.7 17.7 57.1 18.1 C 57.5 18.6 57.7 19.2 57.7 19.9 C 57.68 19.94 57.7 19.9 57.7 19.9 C 57.7 19.9 57.68 19.95 57.7 19.9 Z M 54.1 19.9 C 54.1 20.5 54.3 21 54.5 21.4 C 54.8 21.8 55.2 22 55.6 22 C 56.1 22 56.4 21.8 56.7 21.4 C 57 21 57.1 20.5 57.1 20 C 57.1 20 57.1 19.9 57.1 19.9 C 57.1 19.4 57 18.9 56.7 18.5 C 56.4 18.1 56.1 17.9 55.6 17.9 C 55.2 17.9 54.8 18.1 54.5 18.5 C 54.3 18.9 54.1 19.4 54.1 19.9 C 54.12 19.94 54.1 19.9 54.1 19.9 C 54.1 19.9 54.12 19.95 54.1 19.9 Z M 62.7 19.9 C 62.7 20.7 62.5 21.3 62.1 21.7 C 61.7 22.2 61.2 22.5 60.6 22.5 C 60 22.5 59.5 22.2 59.1 21.8 C 58.7 21.3 58.5 20.7 58.5 20 C 58.5 20 58.5 19.9 58.5 19.9 C 58.5 19.2 58.7 18.6 59.1 18.2 C 59.5 17.7 60 17.4 60.6 17.4 C 61.2 17.4 61.7 17.7 62.1 18.1 C 62.5 18.6 62.7 19.2 62.7 19.9 C 62.68 19.94 62.7 19.9 62.7 19.9 C 62.7 19.9 62.68 19.95 62.7 19.9 Z M 59.1 19.9 C 59.1 20.5 59.3 21 59.5 21.4 C 59.8 21.8 60.2 22 60.6 22 C 61.1 22 61.4 21.8 61.7 21.4 C 62 21 62.1 20.5 62.1 20 C 62.1 20 62.1 19.9 62.1 19.9 C 62.1 19.4 62 18.9 61.7 18.5 C 61.4 18.1 61.1 17.9 60.6 17.9 C 60.2 17.9 59.8 18.1 59.5 18.5 C 59.3 18.9 59.1 19.4 59.1 19.9 C 59.12 19.94 59.1 19.9 59.1 19.9 C 59.1 19.9 59.12 19.95 59.1 19.9 Z M 65.8 22.4 L 65.8 18.8 L 66.4 18.8 C 66.4 18.8 66.36 19.39 66.4 19.4 C 66.5 19.2 66.7 19 66.8 18.9 C 67 18.8 67.2 18.7 67.5 18.7 C 68.1 18.7 68.5 18.9 68.7 19.4 C 69 18.9 69.4 18.7 70 18.7 C 70.4 18.7 70.7 18.8 71 19.1 C 71.2 19.4 71.3 19.7 71.3 20.2 C 71.31 20.16 71.3 22.4 71.3 22.4 L 70.8 22.4 C 70.8 22.4 70.77 20.29 70.8 20.3 C 70.8 19.9 70.7 19.7 70.5 19.5 C 70.4 19.3 70.1 19.2 69.8 19.2 C 69.6 19.2 69.3 19.3 69.1 19.5 C 68.9 19.7 68.8 20 68.8 20.3 C 68.83 20.31 68.8 22.4 68.8 22.4 L 68.3 22.4 C 68.3 22.4 68.3 20.27 68.3 20.3 C 68.3 19.9 68.2 19.7 68 19.5 C 67.9 19.3 67.7 19.2 67.4 19.2 C 67.1 19.2 66.8 19.3 66.6 19.5 C 66.5 19.7 66.4 20 66.4 20.3 C 66.36 20.33 66.4 22.4 66.4 22.4 L 65.8 22.4 Z M 72.5 22.4 L 72.5 17.3 L 73 17.3 L 73 22.4 L 72.5 22.4 Z " stroke="none" fill="#000"/>  </g>  <g id="Polygon382402">    <path d="M 3 8.7 L 3 8 L 3.6 8 L 3.6 8.7 L 3 8.7 Z M 1.7 8.7 L 1.7 8 L 2.3 8 L 2.3 8.7 L 1.7 8.7 Z M 2.7 14.1 C 2 14.1 1.5 13.9 1.2 13.5 C 0.8 13.1 0.6 12.6 0.6 11.9 C 0.62 11.95 0.6 9.1 0.6 9.1 L 1.2 9.1 C 1.2 9.1 1.17 11.91 1.2 11.9 C 1.2 12.4 1.3 12.8 1.6 13.1 C 1.8 13.4 2.2 13.6 2.7 13.6 C 3.1 13.6 3.5 13.4 3.8 13.2 C 4 12.9 4.1 12.5 4.1 11.9 C 4.14 11.95 4.1 9.1 4.1 9.1 L 4.7 9.1 C 4.7 9.1 4.7 11.91 4.7 11.9 C 4.7 12.6 4.5 13.1 4.1 13.5 C 3.8 13.9 3.3 14.1 2.7 14.1 Z M 5.9 14 L 5.9 10.4 L 6.5 10.4 C 6.5 10.4 6.45 11.33 6.5 11.3 C 6.6 11 6.8 10.8 7 10.6 C 7.3 10.4 7.6 10.3 7.9 10.3 C 7.93 10.32 7.9 10.9 7.9 10.9 C 7.9 10.9 7.89 10.9 7.9 10.9 C 7.5 10.9 7.1 11 6.9 11.3 C 6.6 11.6 6.5 12 6.5 12.6 C 6.45 12.56 6.5 14 6.5 14 L 5.9 14 Z M 10.6 9.8 L 10.6 9.2 L 11.2 9.2 L 11.2 9.8 L 10.6 9.8 Z M 9.3 9.8 L 9.3 9.2 L 10 9.2 L 10 9.8 L 9.3 9.8 Z M 11.3 13.4 C 11 13.8 10.6 14.1 10.1 14.1 C 9.7 14.1 9.3 13.9 9.1 13.7 C 8.8 13.4 8.7 13.1 8.7 12.6 C 8.69 12.63 8.7 10.4 8.7 10.4 L 9.2 10.4 C 9.2 10.4 9.23 12.49 9.2 12.5 C 9.2 12.8 9.3 13.1 9.5 13.3 C 9.7 13.5 9.9 13.6 10.2 13.6 C 10.5 13.6 10.8 13.5 11 13.3 C 11.2 13.1 11.3 12.8 11.3 12.5 C 11.32 12.45 11.3 10.4 11.3 10.4 L 11.9 10.4 L 11.9 14 L 11.3 14 L 11.3 13.4 C 11.3 13.4 11.32 13.37 11.3 13.4 Z M 13.1 14 L 13.1 10.4 L 13.6 10.4 C 13.6 10.4 13.6 11.01 13.6 11 C 13.9 10.5 14.3 10.3 14.8 10.3 C 15.3 10.3 15.6 10.4 15.9 10.7 C 16.1 11 16.2 11.3 16.2 11.8 C 16.23 11.75 16.2 14 16.2 14 L 15.7 14 C 15.7 14 15.69 11.89 15.7 11.9 C 15.7 11.5 15.6 11.3 15.4 11.1 C 15.2 10.9 15 10.8 14.7 10.8 C 14.4 10.8 14.1 10.9 13.9 11.1 C 13.7 11.3 13.6 11.6 13.6 11.9 C 13.6 11.93 13.6 14 13.6 14 L 13.1 14 Z M 19.6 14 L 19.6 9.1 L 20.1 9.1 L 20.1 12 L 22.9 9.1 L 23.7 9.1 L 21.5 11.2 L 23.7 14 L 23 14 L 21.2 11.6 L 20.1 12.7 L 20.1 14 L 19.6 14 Z M 25.9 14.1 C 25.4 14.1 25 13.9 24.6 13.5 C 24.3 13.2 24.1 12.7 24.1 12.2 C 24.1 12.2 24.1 12.2 24.1 12.2 C 24.1 11.7 24.3 11.2 24.6 10.9 C 25 10.5 25.4 10.3 26 10.3 C 26.5 10.3 26.9 10.5 27.3 10.9 C 27.7 11.2 27.8 11.7 27.8 12.2 C 27.8 12.2 27.8 12.2 27.8 12.2 C 27.8 12.7 27.7 13.2 27.3 13.5 C 26.9 13.9 26.5 14.1 25.9 14.1 Z M 26 13.6 C 26.3 13.6 26.7 13.5 26.9 13.2 C 27.2 12.9 27.3 12.6 27.3 12.2 C 27.3 12.2 27.3 12.2 27.3 12.2 C 27.3 11.8 27.2 11.5 26.9 11.2 C 26.6 10.9 26.3 10.8 25.9 10.8 C 25.6 10.8 25.2 10.9 25 11.2 C 24.8 11.5 24.6 11.8 24.6 12.2 C 24.6 12.2 24.6 12.2 24.6 12.2 C 24.6 12.6 24.8 12.9 25 13.2 C 25.3 13.5 25.6 13.6 26 13.6 Z M 31.7 13.3 C 31.4 13.8 30.9 14.1 30.3 14.1 C 29.9 14.1 29.5 13.9 29.1 13.6 C 28.8 13.2 28.6 12.8 28.6 12.2 C 28.6 12.2 28.6 12.2 28.6 12.2 C 28.6 11.6 28.8 11.2 29.1 10.8 C 29.5 10.5 29.9 10.3 30.3 10.3 C 30.9 10.3 31.4 10.6 31.7 11.1 C 31.72 11.07 31.7 8.9 31.7 8.9 L 32.3 8.9 L 32.3 14 L 31.7 14 L 31.7 13.3 C 31.7 13.3 31.72 13.27 31.7 13.3 Z M 30.4 13.6 C 30.8 13.6 31.1 13.5 31.4 13.2 C 31.6 12.9 31.7 12.6 31.7 12.2 C 31.7 12.2 31.7 12.2 31.7 12.2 C 31.7 11.8 31.6 11.4 31.4 11.2 C 31.1 10.9 30.8 10.8 30.4 10.8 C 30.1 10.8 29.8 10.9 29.5 11.2 C 29.3 11.4 29.2 11.8 29.2 12.2 C 29.2 12.2 29.2 12.2 29.2 12.2 C 29.2 12.6 29.3 13 29.5 13.2 C 29.8 13.5 30.1 13.6 30.4 13.6 Z M 36 13.4 C 35.7 13.8 35.3 14.1 34.8 14.1 C 34.4 14.1 34 13.9 33.8 13.7 C 33.5 13.4 33.4 13.1 33.4 12.6 C 33.41 12.63 33.4 10.4 33.4 10.4 L 33.9 10.4 C 33.9 10.4 33.95 12.49 33.9 12.5 C 33.9 12.8 34 13.1 34.2 13.3 C 34.4 13.5 34.6 13.6 35 13.6 C 35.3 13.6 35.5 13.5 35.7 13.3 C 35.9 13.1 36 12.8 36 12.5 C 36.04 12.45 36 10.4 36 10.4 L 36.6 10.4 L 36.6 14 L 36 14 L 36 13.4 C 36 13.4 36.04 13.37 36 13.4 Z M 37.7 11.1 L 37.7 10.4 L 38.4 10.4 L 38.4 11.1 L 37.7 11.1 Z M 37.7 14 L 37.7 13.3 L 38.4 13.3 L 38.4 14 L 37.7 14 Z M 42.3 14 L 42.3 10.2 L 41.4 10.4 L 41.2 9.5 L 42.6 9.1 L 43.4 9.1 L 43.4 14 L 42.3 14 Z M 44.4 14 L 44.4 13.1 C 44.4 13.1 45.98 11.81 46 11.8 C 46.3 11.5 46.5 11.3 46.6 11.2 C 46.8 11 46.8 10.8 46.8 10.6 C 46.8 10.4 46.8 10.3 46.7 10.2 C 46.5 10.1 46.4 10 46.2 10 C 46 10 45.8 10 45.7 10.1 C 45.5 10.2 45.4 10.4 45.2 10.7 C 45.2 10.7 44.4 10 44.4 10 C 44.7 9.7 44.9 9.4 45.2 9.3 C 45.5 9.1 45.8 9 46.2 9 C 46.7 9 47.2 9.2 47.5 9.4 C 47.8 9.7 47.9 10.1 47.9 10.5 C 47.9 10.5 47.9 10.6 47.9 10.6 C 47.9 10.9 47.8 11.3 47.6 11.5 C 47.5 11.8 47.1 12.1 46.6 12.5 C 46.64 12.45 45.8 13.1 45.8 13.1 L 48 13.1 L 48 14 L 44.4 14 Z M 50.6 14.1 C 50 14.1 49.6 13.9 49.2 13.7 C 48.9 13.4 48.7 13.1 48.7 12.7 C 48.7 12.7 48.7 12.6 48.7 12.6 C 48.7 12.4 48.7 12.1 48.9 11.9 C 49 11.7 49.2 11.6 49.5 11.5 C 49.1 11.2 48.9 10.9 48.9 10.4 C 48.9 10.4 48.9 10.4 48.9 10.4 C 48.9 10 49 9.7 49.3 9.4 C 49.7 9.2 50.1 9 50.6 9 C 51.1 9 51.5 9.2 51.8 9.4 C 52.1 9.7 52.3 10 52.3 10.4 C 52.3 10.4 52.3 10.4 52.3 10.4 C 52.3 10.9 52.1 11.2 51.7 11.5 C 51.9 11.6 52.1 11.8 52.3 11.9 C 52.4 12.1 52.5 12.3 52.5 12.6 C 52.5 12.6 52.5 12.6 52.5 12.6 C 52.5 13.1 52.3 13.4 51.9 13.7 C 51.6 13.9 51.1 14.1 50.6 14.1 Z M 49.9 10.5 C 49.9 10.7 49.9 10.8 50.1 10.9 C 50.2 11 50.4 11.1 50.6 11.1 C 50.8 11.1 51 11 51.1 10.9 C 51.2 10.8 51.3 10.7 51.3 10.5 C 51.3 10.5 51.3 10.5 51.3 10.5 C 51.3 10.3 51.2 10.2 51.1 10.1 C 51 10 50.8 9.9 50.6 9.9 C 50.4 9.9 50.2 10 50.1 10.1 C 49.9 10.2 49.9 10.3 49.9 10.5 C 49.87 10.49 49.9 10.5 49.9 10.5 C 49.9 10.5 49.87 10.5 49.9 10.5 Z M 50.6 13.2 C 50.8 13.2 51 13.1 51.2 13 C 51.3 12.9 51.4 12.7 51.4 12.6 C 51.4 12.6 51.4 12.6 51.4 12.6 C 51.4 12.4 51.3 12.2 51.2 12.1 C 51 12 50.8 12 50.6 12 C 50.3 12 50.1 12 50 12.1 C 49.8 12.2 49.7 12.4 49.7 12.6 C 49.7 12.6 49.7 12.6 49.7 12.6 C 49.7 12.7 49.8 12.9 50 13 C 50.1 13.1 50.3 13.2 50.6 13.2 Z M 55.3 14.1 C 54.7 14.1 54.2 13.8 53.8 13.4 C 53.4 12.9 53.2 12.3 53.2 11.6 C 53.2 11.6 53.2 11.5 53.2 11.5 C 53.2 10.8 53.4 10.2 53.8 9.7 C 54.2 9.3 54.7 9 55.3 9 C 56 9 56.5 9.3 56.9 9.7 C 57.3 10.2 57.5 10.8 57.5 11.5 C 57.5 11.5 57.5 11.5 57.5 11.5 C 57.5 12.3 57.3 12.9 56.9 13.4 C 56.5 13.8 56 14.1 55.3 14.1 Z M 54.3 11.5 C 54.3 12 54.4 12.4 54.6 12.7 C 54.8 13 55 13.1 55.3 13.1 C 55.7 13.1 55.9 13 56.1 12.7 C 56.3 12.4 56.4 12 56.4 11.6 C 56.4 11.6 56.4 11.5 56.4 11.5 C 56.4 11.1 56.3 10.7 56.1 10.4 C 55.9 10.1 55.6 10 55.3 10 C 55 10 54.8 10.1 54.6 10.4 C 54.4 10.7 54.3 11.1 54.3 11.5 C 54.26 11.54 54.3 11.5 54.3 11.5 C 54.3 11.5 54.26 11.55 54.3 11.5 Z M 59 12.7 C 59.3 13 59.7 13.1 60 13.1 C 60.3 13.1 60.5 13 60.6 12.9 C 60.8 12.8 60.9 12.6 60.9 12.5 C 61 12.3 61 12.2 61 12 C 60.8 12.2 60.4 12.3 60 12.3 C 59.5 12.3 59.1 12.2 58.8 11.9 C 58.4 11.6 58.3 11.2 58.3 10.7 C 58.3 10.7 58.3 10.7 58.3 10.7 C 58.3 10.2 58.5 9.8 58.8 9.5 C 59.2 9.2 59.6 9 60.2 9 C 60.5 9 60.7 9.1 61 9.1 C 61.2 9.2 61.4 9.4 61.6 9.5 C 62 9.9 62.1 10.6 62.1 11.4 C 62.1 11.4 62.1 11.4 62.1 11.4 C 62.1 12.2 62 12.9 61.6 13.4 C 61.2 13.8 60.7 14.1 60 14.1 C 59.4 14.1 58.9 13.9 58.4 13.5 C 58.39 13.5 59 12.7 59 12.7 C 59 12.7 58.96 12.68 59 12.7 Z M 60.2 11.4 C 60.5 11.4 60.7 11.4 60.8 11.2 C 61 11.1 61 10.9 61 10.7 C 61 10.7 61 10.7 61 10.7 C 61 10.5 61 10.3 60.8 10.1 C 60.7 10 60.5 9.9 60.2 9.9 C 59.9 9.9 59.7 10 59.6 10.1 C 59.4 10.3 59.4 10.5 59.4 10.7 C 59.4 10.7 59.4 10.7 59.4 10.7 C 59.4 10.9 59.4 11.1 59.6 11.2 C 59.7 11.4 59.9 11.4 60.2 11.4 Z " stroke="none" fill="#000"/>  </g></svg>