<?xml version="1.0" standalone="no"?><!DOCTYPE svg PUBLIC "-//W3C//DTD SVG 1.1//EN" "http://www.w3.org/Graphics/SVG/1.1/DTD/svg11.dtd"><svg xmlns="http://www.w3.org/2000/svg" version="1.1" width="181px" height="35.4px" viewBox="0 -3 181 35.4" style="top:-3px">  <desc>r n Kodu: 12775 • Dolu hacim: 1.300 ml • l ler: L 20 cm, W 15 cm, H 7.5 cm</desc>  <defs/>  <g id="Polygon380479">    <path d="M 2.6 19.9 C 2.6 20.2 2.5 20.4 2.3 20.6 C 2.1 20.8 1.9 20.9 1.7 20.9 C 1.4 20.9 1.2 20.8 1 20.6 C 0.8 20.4 0.8 20.2 0.8 19.9 C 0.8 19.9 0.8 19.9 0.8 19.9 C 0.8 19.7 0.8 19.5 1 19.3 C 1.2 19.1 1.4 19 1.7 19 C 1.9 19 2.1 19.1 2.3 19.3 C 2.5 19.5 2.6 19.7 2.6 19.9 C 2.59 19.93 2.6 19.9 2.6 19.9 C 2.6 19.9 2.59 19.94 2.6 19.9 Z M 8.7 17 L 8.7 16.4 L 9.4 16.4 L 9.4 17 L 8.7 17 Z M 7.4 17 L 7.4 16.4 L 8.1 16.4 L 8.1 17 L 7.4 17 Z M 10.9 19.9 C 10.9 20.6 10.7 21.2 10.2 21.7 C 9.7 22.2 9.1 22.5 8.4 22.5 C 7.7 22.5 7.1 22.2 6.6 21.7 C 6.2 21.3 5.9 20.7 5.9 20 C 5.9 20 5.9 19.9 5.9 19.9 C 5.9 19.3 6.2 18.7 6.6 18.2 C 7.1 17.7 7.7 17.4 8.4 17.4 C 9.2 17.4 9.8 17.7 10.2 18.2 C 10.7 18.6 10.9 19.2 10.9 19.9 C 10.92 19.94 10.9 19.9 10.9 19.9 C 10.9 19.9 10.92 19.95 10.9 19.9 Z M 6.5 19.9 C 6.5 20.5 6.7 21 7 21.4 C 7.4 21.8 7.9 22 8.4 22 C 9 22 9.4 21.8 9.8 21.4 C 10.2 21 10.3 20.5 10.3 20 C 10.3 20 10.3 19.9 10.3 19.9 C 10.3 19.4 10.2 18.9 9.8 18.5 C 9.4 18.1 9 17.9 8.4 17.9 C 7.9 17.9 7.4 18.1 7 18.5 C 6.7 18.9 6.5 19.4 6.5 19.9 C 6.5 19.94 6.5 19.9 6.5 19.9 C 6.5 19.9 6.5 19.95 6.5 19.9 Z M 12 22.4 L 12 17.3 L 12.6 17.3 L 12.6 22.4 L 12 22.4 Z M 15.1 23.5 L 14.6 23.2 C 14.6 23.2 15.13 22.45 15.1 22.4 C 14.7 22.4 14.3 22.2 14 21.8 C 13.8 21.5 13.6 21.1 13.6 20.6 C 13.6 20.6 13.6 20.6 13.6 20.6 C 13.6 20.1 13.8 19.6 14.1 19.3 C 14.5 18.9 14.9 18.7 15.5 18.7 C 16 18.7 16.5 18.9 16.9 19.3 C 16.9 19.3 16.6 19.7 16.6 19.7 C 16.2 19.4 15.9 19.2 15.5 19.2 C 15.1 19.2 14.8 19.3 14.5 19.6 C 14.3 19.9 14.2 20.2 14.2 20.6 C 14.2 20.6 14.2 20.6 14.2 20.6 C 14.2 21 14.3 21.3 14.5 21.6 C 14.8 21.9 15.1 22 15.5 22 C 15.9 22 16.3 21.8 16.6 21.5 C 16.6 21.5 16.9 21.8 16.9 21.8 C 16.6 22.2 16.1 22.5 15.6 22.5 C 15.57 22.48 15.1 23.5 15.1 23.5 Z M 19.6 18.2 L 19.6 17.6 L 20.3 17.6 L 20.3 18.2 L 19.6 18.2 Z M 18.4 18.2 L 18.4 17.6 L 19 17.6 L 19 18.2 L 18.4 18.2 Z M 20.4 21.8 C 20.1 22.2 19.7 22.5 19.1 22.5 C 18.7 22.5 18.4 22.3 18.1 22.1 C 17.9 21.8 17.8 21.5 17.8 21 C 17.75 21.03 17.8 18.8 17.8 18.8 L 18.3 18.8 C 18.3 18.8 18.29 20.89 18.3 20.9 C 18.3 21.2 18.4 21.5 18.6 21.7 C 18.7 21.9 19 22 19.3 22 C 19.6 22 19.9 21.9 20.1 21.7 C 20.3 21.5 20.4 21.2 20.4 20.9 C 20.38 20.85 20.4 18.8 20.4 18.8 L 20.9 18.8 L 20.9 22.4 L 20.4 22.4 L 20.4 21.8 C 20.4 21.8 20.38 21.77 20.4 21.8 Z M 22.2 22.4 L 22.2 17.3 L 22.7 17.3 L 22.7 22.4 L 22.2 22.4 Z M 27 21.8 C 26.6 22.3 26.1 22.5 25.5 22.5 C 25 22.5 24.6 22.3 24.3 22 C 23.9 21.6 23.7 21.2 23.7 20.6 C 23.7 20.6 23.7 20.6 23.7 20.6 C 23.7 20.1 23.9 19.6 24.2 19.2 C 24.6 18.9 25 18.7 25.5 18.7 C 26 18.7 26.4 18.9 26.7 19.2 C 27 19.6 27.2 20.1 27.2 20.6 C 27.2 20.7 27.2 20.7 27.2 20.8 C 27.2 20.8 24.3 20.8 24.3 20.8 C 24.3 21.2 24.5 21.5 24.7 21.7 C 24.9 21.9 25.2 22 25.6 22 C 26 22 26.4 21.8 26.7 21.5 C 26.7 21.5 27 21.8 27 21.8 C 27 21.8 27.03 21.8 27 21.8 Z M 24.3 20.4 C 24.3 20.4 26.6 20.4 26.6 20.4 C 26.6 20 26.5 19.7 26.3 19.5 C 26.1 19.3 25.8 19.2 25.5 19.2 C 25.1 19.2 24.9 19.3 24.7 19.5 C 24.4 19.7 24.3 20 24.3 20.4 Z M 28.1 22.4 L 28.1 18.8 L 28.6 18.8 C 28.6 18.8 28.64 19.73 28.6 19.7 C 28.8 19.4 29 19.2 29.2 19 C 29.5 18.8 29.8 18.7 30.1 18.7 C 30.12 18.72 30.1 19.3 30.1 19.3 C 30.1 19.3 30.08 19.3 30.1 19.3 C 29.7 19.3 29.3 19.4 29 19.7 C 28.8 20 28.6 20.4 28.6 21 C 28.64 20.96 28.6 22.4 28.6 22.4 L 28.1 22.4 Z M 30.9 19.5 L 30.9 18.8 L 31.5 18.8 L 31.5 19.5 L 30.9 19.5 Z M 30.9 22.4 L 30.9 21.7 L 31.5 21.7 L 31.5 22.4 L 30.9 22.4 Z M 34.9 22.4 L 34.9 17.5 L 35.5 17.5 L 35.5 21.9 L 38.2 21.9 L 38.2 22.4 L 34.9 22.4 Z M 41 22.4 L 41 22 C 41 22 42.73 20.4 42.7 20.4 C 43.1 20.1 43.4 19.8 43.5 19.6 C 43.7 19.3 43.8 19.1 43.8 18.9 C 43.8 18.6 43.7 18.4 43.5 18.2 C 43.3 18 43 17.9 42.8 17.9 C 42.5 17.9 42.3 18 42.1 18.1 C 41.9 18.3 41.7 18.5 41.5 18.8 C 41.5 18.8 41 18.5 41 18.5 C 41.3 18.1 41.5 17.8 41.8 17.7 C 42.1 17.5 42.4 17.4 42.8 17.4 C 43.2 17.4 43.6 17.6 43.9 17.8 C 44.2 18.1 44.3 18.4 44.3 18.8 C 44.3 18.8 44.3 18.8 44.3 18.8 C 44.3 19.2 44.2 19.5 44.1 19.7 C 43.9 20 43.6 20.3 43.1 20.7 C 43.09 20.73 41.8 21.9 41.8 21.9 L 44.4 21.9 L 44.4 22.4 L 41 22.4 Z M 49.4 19.9 C 49.4 20.7 49.2 21.3 48.8 21.7 C 48.4 22.2 47.9 22.5 47.3 22.5 C 46.7 22.5 46.2 22.2 45.8 21.8 C 45.4 21.3 45.2 20.7 45.2 20 C 45.2 20 45.2 19.9 45.2 19.9 C 45.2 19.2 45.4 18.6 45.8 18.2 C 46.2 17.7 46.7 17.4 47.3 17.4 C 47.9 17.4 48.4 17.7 48.8 18.1 C 49.2 18.6 49.4 19.2 49.4 19.9 C 49.38 19.94 49.4 19.9 49.4 19.9 C 49.4 19.9 49.38 19.95 49.4 19.9 Z M 45.8 19.9 C 45.8 20.5 46 21 46.2 21.4 C 46.5 21.8 46.9 22 47.3 22 C 47.8 22 48.1 21.8 48.4 21.4 C 48.7 21 48.8 20.5 48.8 20 C 48.8 20 48.8 19.9 48.8 19.9 C 48.8 19.4 48.7 18.9 48.4 18.5 C 48.1 18.1 47.8 17.9 47.3 17.9 C 46.9 17.9 46.5 18.1 46.2 18.5 C 46 18.9 45.8 19.4 45.8 19.9 C 45.82 19.94 45.8 19.9 45.8 19.9 C 45.8 19.9 45.82 19.95 45.8 19.9 Z M 55.6 21.8 C 55.2 22.3 54.7 22.5 54.2 22.5 C 53.6 22.5 53.2 22.3 52.8 21.9 C 52.5 21.6 52.3 21.1 52.3 20.6 C 52.3 20.6 52.3 20.6 52.3 20.6 C 52.3 20.1 52.5 19.6 52.8 19.3 C 53.2 18.9 53.6 18.7 54.2 18.7 C 54.7 18.7 55.2 18.9 55.6 19.3 C 55.6 19.3 55.2 19.7 55.2 19.7 C 54.9 19.4 54.5 19.2 54.1 19.2 C 53.8 19.2 53.5 19.3 53.2 19.6 C 53 19.9 52.8 20.2 52.8 20.6 C 52.8 20.6 52.8 20.6 52.8 20.6 C 52.8 21 53 21.3 53.2 21.6 C 53.5 21.9 53.8 22 54.2 22 C 54.6 22 54.9 21.8 55.3 21.5 C 55.29 21.46 55.6 21.8 55.6 21.8 C 55.6 21.8 55.63 21.78 55.6 21.8 Z M 56.5 22.4 L 56.5 18.8 L 57.1 18.8 C 57.1 18.8 57.06 19.39 57.1 19.4 C 57.2 19.2 57.4 19 57.5 18.9 C 57.7 18.8 57.9 18.7 58.2 18.7 C 58.8 18.7 59.2 18.9 59.4 19.4 C 59.7 18.9 60.1 18.7 60.7 18.7 C 61.1 18.7 61.4 18.8 61.6 19.1 C 61.9 19.4 62 19.7 62 20.2 C 62.01 20.16 62 22.4 62 22.4 L 61.5 22.4 C 61.5 22.4 61.47 20.29 61.5 20.3 C 61.5 19.9 61.4 19.7 61.2 19.5 C 61.1 19.3 60.8 19.2 60.5 19.2 C 60.2 19.2 60 19.3 59.8 19.5 C 59.6 19.7 59.5 20 59.5 20.3 C 59.53 20.31 59.5 22.4 59.5 22.4 L 59 22.4 C 59 22.4 59 20.27 59 20.3 C 59 19.9 58.9 19.7 58.7 19.5 C 58.6 19.3 58.4 19.2 58.1 19.2 C 57.8 19.2 57.5 19.3 57.3 19.5 C 57.2 19.7 57.1 20 57.1 20.3 C 57.06 20.33 57.1 22.4 57.1 22.4 L 56.5 22.4 Z M 63 23.3 C 63 23.3 62.9 23 62.9 23 C 63.2 22.9 63.4 22.7 63.3 22.4 C 63.34 22.4 63.1 22.4 63.1 22.4 L 63.1 21.7 L 63.7 21.7 C 63.7 21.7 63.73 22.29 63.7 22.3 C 63.7 22.6 63.7 22.8 63.5 22.9 C 63.4 23.1 63.2 23.2 63 23.3 Z M 68.4 22.4 L 66.7 17.5 L 67.3 17.5 L 68.7 21.6 L 70 17.5 L 70.5 17.5 L 71.8 21.6 L 73.2 17.5 L 73.8 17.5 L 72.1 22.4 L 71.6 22.4 L 70.2 18.5 L 68.9 22.4 L 68.4 22.4 Z M 77.5 22.4 L 77.5 18 L 76.5 18.3 L 76.4 17.9 L 77.6 17.5 L 78 17.5 L 78 22.4 L 77.5 22.4 Z M 80.8 22.5 C 80.2 22.5 79.6 22.2 79.1 21.7 C 79.1 21.7 79.5 21.3 79.5 21.3 C 79.9 21.8 80.4 22 80.8 22 C 81.2 22 81.5 21.9 81.7 21.7 C 81.9 21.5 82 21.2 82 20.9 C 82 20.9 82 20.9 82 20.9 C 82 20.6 81.9 20.3 81.7 20.1 C 81.5 19.9 81.2 19.9 80.8 19.9 C 80.5 19.9 80.1 19.9 79.8 20.1 C 79.78 20.13 79.4 19.9 79.4 19.9 L 79.6 17.5 L 82.4 17.5 L 82.4 18 L 80 18 C 80 18 79.93 19.58 79.9 19.6 C 80.2 19.4 80.6 19.4 80.9 19.4 C 81.4 19.4 81.8 19.5 82.1 19.8 C 82.4 20 82.6 20.4 82.6 20.9 C 82.6 20.9 82.6 20.9 82.6 20.9 C 82.6 21.3 82.4 21.7 82.1 22 C 81.8 22.3 81.4 22.5 80.8 22.5 Z M 88.8 21.8 C 88.4 22.3 87.9 22.5 87.3 22.5 C 86.8 22.5 86.4 22.3 86 21.9 C 85.7 21.6 85.5 21.1 85.5 20.6 C 85.5 20.6 85.5 20.6 85.5 20.6 C 85.5 20.1 85.7 19.6 86 19.3 C 86.4 18.9 86.8 18.7 87.3 18.7 C 87.9 18.7 88.4 18.9 88.8 19.3 C 88.8 19.3 88.4 19.7 88.4 19.7 C 88.1 19.4 87.7 19.2 87.3 19.2 C 87 19.2 86.7 19.3 86.4 19.6 C 86.2 19.9 86 20.2 86 20.6 C 86 20.6 86 20.6 86 20.6 C 86 21 86.2 21.3 86.4 21.6 C 86.7 21.9 87 22 87.4 22 C 87.8 22 88.1 21.8 88.5 21.5 C 88.47 21.46 88.8 21.8 88.8 21.8 C 88.8 21.8 88.81 21.78 88.8 21.8 Z M 89.7 22.4 L 89.7 18.8 L 90.2 18.8 C 90.2 18.8 90.24 19.39 90.2 19.4 C 90.4 19.2 90.5 19 90.7 18.9 C 90.9 18.8 91.1 18.7 91.4 18.7 C 92 18.7 92.3 18.9 92.6 19.4 C 92.9 18.9 93.3 18.7 93.8 18.7 C 94.3 18.7 94.6 18.8 94.8 19.1 C 95.1 19.4 95.2 19.7 95.2 20.2 C 95.19 20.16 95.2 22.4 95.2 22.4 L 94.7 22.4 C 94.7 22.4 94.65 20.29 94.7 20.3 C 94.7 19.9 94.6 19.7 94.4 19.5 C 94.2 19.3 94 19.2 93.7 19.2 C 93.4 19.2 93.2 19.3 93 19.5 C 92.8 19.7 92.7 20 92.7 20.3 C 92.71 20.31 92.7 22.4 92.7 22.4 L 92.2 22.4 C 92.2 22.4 92.18 20.27 92.2 20.3 C 92.2 19.9 92.1 19.7 91.9 19.5 C 91.8 19.3 91.5 19.2 91.3 19.2 C 91 19.2 90.7 19.3 90.5 19.5 C 90.3 19.7 90.2 20 90.2 20.3 C 90.24 20.33 90.2 22.4 90.2 22.4 L 89.7 22.4 Z M 96.1 23.3 C 96.1 23.3 96.1 23 96.1 23 C 96.4 22.9 96.6 22.7 96.5 22.4 C 96.53 22.4 96.3 22.4 96.3 22.4 L 96.3 21.7 L 96.9 21.7 C 96.9 21.7 96.92 22.29 96.9 22.3 C 96.9 22.6 96.9 22.8 96.7 22.9 C 96.6 23.1 96.4 23.2 96.1 23.3 Z M 100.2 22.4 L 100.2 17.5 L 100.8 17.5 L 100.8 19.7 L 103.6 19.7 L 103.6 17.5 L 104.2 17.5 L 104.2 22.4 L 103.6 22.4 L 103.6 20.2 L 100.8 20.2 L 100.8 22.4 L 100.2 22.4 Z M 107.9 22.4 L 110.1 18 L 107.4 18 L 107.4 17.5 L 110.8 17.5 L 110.8 17.9 L 108.5 22.4 L 107.9 22.4 Z M 111 22.4 L 111 21.7 L 111.6 21.7 L 111.6 22.4 L 111 22.4 Z M 114.3 22.5 C 113.6 22.5 113 22.2 112.5 21.7 C 112.5 21.7 112.9 21.3 112.9 21.3 C 113.3 21.8 113.8 22 114.3 22 C 114.6 22 114.9 21.9 115.1 21.7 C 115.4 21.5 115.5 21.2 115.5 20.9 C 115.5 20.9 115.5 20.9 115.5 20.9 C 115.5 20.6 115.3 20.3 115.1 20.1 C 114.9 19.9 114.6 19.9 114.2 19.9 C 113.9 19.9 113.5 19.9 113.2 20.1 C 113.22 20.13 112.8 19.9 112.8 19.9 L 113 17.5 L 115.8 17.5 L 115.8 18 L 113.5 18 C 113.5 18 113.36 19.58 113.4 19.6 C 113.7 19.4 114 19.4 114.3 19.4 C 114.8 19.4 115.2 19.5 115.5 19.8 C 115.9 20 116 20.4 116 20.9 C 116 20.9 116 20.9 116 20.9 C 116 21.3 115.9 21.7 115.5 22 C 115.2 22.3 114.8 22.5 114.3 22.5 Z M 122.2 21.8 C 121.8 22.3 121.3 22.5 120.8 22.5 C 120.2 22.5 119.8 22.3 119.4 21.9 C 119.1 21.6 118.9 21.1 118.9 20.6 C 118.9 20.6 118.9 20.6 118.9 20.6 C 118.9 20.1 119.1 19.6 119.4 19.3 C 119.8 18.9 120.2 18.7 120.8 18.7 C 121.3 18.7 121.8 18.9 122.2 19.3 C 122.2 19.3 121.9 19.7 121.9 19.7 C 121.5 19.4 121.1 19.2 120.8 19.2 C 120.4 19.2 120.1 19.3 119.8 19.6 C 119.6 19.9 119.5 20.2 119.5 20.6 C 119.5 20.6 119.5 20.6 119.5 20.6 C 119.5 21 119.6 21.3 119.8 21.6 C 120.1 21.9 120.4 22 120.8 22 C 121.2 22 121.6 21.8 121.9 21.5 C 121.9 21.46 122.2 21.8 122.2 21.8 C 122.2 21.8 122.25 21.78 122.2 21.8 Z M 123.1 22.4 L 123.1 18.8 L 123.7 18.8 C 123.7 18.8 123.67 19.39 123.7 19.4 C 123.8 19.2 124 19 124.2 18.9 C 124.3 18.8 124.6 18.7 124.8 18.7 C 125.4 18.7 125.8 18.9 126 19.4 C 126.3 18.9 126.8 18.7 127.3 18.7 C 127.7 18.7 128 18.8 128.3 19.1 C 128.5 19.4 128.6 19.7 128.6 20.2 C 128.62 20.16 128.6 22.4 128.6 22.4 L 128.1 22.4 C 128.1 22.4 128.08 20.29 128.1 20.3 C 128.1 19.9 128 19.7 127.8 19.5 C 127.7 19.3 127.4 19.2 127.1 19.2 C 126.9 19.2 126.6 19.3 126.4 19.5 C 126.2 19.7 126.1 20 126.1 20.3 C 126.15 20.31 126.1 22.4 126.1 22.4 L 125.6 22.4 C 125.6 22.4 125.61 20.27 125.6 20.3 C 125.6 19.9 125.5 19.7 125.4 19.5 C 125.2 19.3 125 19.2 124.7 19.2 C 124.4 19.2 124.2 19.3 124 19.5 C 123.8 19.7 123.7 20 123.7 20.3 C 123.67 20.33 123.7 22.4 123.7 22.4 L 123.1 22.4 Z " stroke="none" fill="#000"/>  </g>  <g id="Polygon380478">    <path d="M 2.6 11.5 C 2.6 11.8 2.5 12 2.3 12.2 C 2.1 12.4 1.9 12.5 1.7 12.5 C 1.4 12.5 1.2 12.4 1 12.2 C 0.8 12 0.8 11.8 0.8 11.5 C 0.8 11.5 0.8 11.5 0.8 11.5 C 0.8 11.3 0.8 11.1 1 10.9 C 1.2 10.7 1.4 10.6 1.7 10.6 C 1.9 10.6 2.1 10.7 2.3 10.9 C 2.5 11.1 2.6 11.3 2.6 11.5 C 2.59 11.53 2.6 11.5 2.6 11.5 C 2.6 11.5 2.59 11.54 2.6 11.5 Z M 6.1 14 L 6.1 9.1 C 6.1 9.1 7.84 9.1 7.8 9.1 C 8.6 9.1 9.2 9.3 9.7 9.8 C 10.2 10.3 10.4 10.8 10.4 11.5 C 10.4 11.5 10.4 11.5 10.4 11.5 C 10.4 12.2 10.2 12.8 9.7 13.3 C 9.2 13.8 8.6 14 7.8 14 C 7.84 14 6.1 14 6.1 14 Z M 7.8 9.6 C 7.84 9.61 6.7 9.6 6.7 9.6 L 6.7 13.5 C 6.7 13.5 7.84 13.49 7.8 13.5 C 8.5 13.5 8.9 13.3 9.3 12.9 C 9.7 12.6 9.9 12.1 9.9 11.6 C 9.9 11.6 9.9 11.5 9.9 11.5 C 9.9 11 9.7 10.5 9.3 10.2 C 8.9 9.8 8.4 9.6 7.8 9.6 Z M 13.2 14.1 C 12.6 14.1 12.2 13.9 11.8 13.5 C 11.5 13.2 11.3 12.7 11.3 12.2 C 11.3 12.2 11.3 12.2 11.3 12.2 C 11.3 11.7 11.5 11.2 11.8 10.9 C 12.2 10.5 12.6 10.3 13.2 10.3 C 13.7 10.3 14.2 10.5 14.5 10.9 C 14.9 11.2 15.1 11.7 15.1 12.2 C 15.1 12.2 15.1 12.2 15.1 12.2 C 15.1 12.7 14.9 13.2 14.5 13.5 C 14.2 13.9 13.7 14.1 13.2 14.1 Z M 13.2 13.6 C 13.6 13.6 13.9 13.5 14.1 13.2 C 14.4 12.9 14.5 12.6 14.5 12.2 C 14.5 12.2 14.5 12.2 14.5 12.2 C 14.5 11.8 14.4 11.5 14.1 11.2 C 13.9 10.9 13.6 10.8 13.2 10.8 C 12.8 10.8 12.5 10.9 12.2 11.2 C 12 11.5 11.9 11.8 11.9 12.2 C 11.9 12.2 11.9 12.2 11.9 12.2 C 11.9 12.6 12 12.9 12.2 13.2 C 12.5 13.5 12.8 13.6 13.2 13.6 Z M 16.1 14 L 16.1 8.9 L 16.6 8.9 L 16.6 14 L 16.1 14 Z M 20.5 13.4 C 20.2 13.8 19.7 14.1 19.2 14.1 C 18.8 14.1 18.4 13.9 18.2 13.7 C 18 13.4 17.8 13.1 17.8 12.6 C 17.83 12.63 17.8 10.4 17.8 10.4 L 18.4 10.4 C 18.4 10.4 18.37 12.49 18.4 12.5 C 18.4 12.8 18.5 13.1 18.6 13.3 C 18.8 13.5 19.1 13.6 19.4 13.6 C 19.7 13.6 19.9 13.5 20.1 13.3 C 20.4 13.1 20.5 12.8 20.5 12.5 C 20.45 12.45 20.5 10.4 20.5 10.4 L 21 10.4 L 21 14 L 20.5 14 L 20.5 13.4 C 20.5 13.4 20.45 13.37 20.5 13.4 Z M 24.3 14 L 24.3 8.9 L 24.8 8.9 C 24.8 8.9 24.84 11.01 24.8 11 C 25.1 10.5 25.5 10.3 26.1 10.3 C 26.5 10.3 26.8 10.4 27.1 10.7 C 27.3 11 27.5 11.3 27.5 11.8 C 27.46 11.75 27.5 14 27.5 14 L 26.9 14 C 26.9 14 26.92 11.89 26.9 11.9 C 26.9 11.5 26.8 11.3 26.7 11.1 C 26.5 10.9 26.2 10.8 25.9 10.8 C 25.6 10.8 25.3 10.9 25.1 11.1 C 24.9 11.3 24.8 11.6 24.8 11.9 C 24.84 11.93 24.8 14 24.8 14 L 24.3 14 Z M 31 13.5 C 30.7 13.9 30.2 14.1 29.7 14.1 C 29.3 14.1 29 14 28.7 13.8 C 28.5 13.6 28.3 13.3 28.3 12.9 C 28.3 12.9 28.3 12.9 28.3 12.9 C 28.3 12.6 28.5 12.3 28.8 12.1 C 29 11.9 29.4 11.8 29.9 11.8 C 30.3 11.8 30.6 11.8 31 11.9 C 31 11.9 31 11.8 31 11.8 C 31 11.5 30.9 11.2 30.7 11.1 C 30.5 10.9 30.3 10.8 29.9 10.8 C 29.6 10.8 29.2 10.9 28.8 11.1 C 28.8 11.1 28.7 10.6 28.7 10.6 C 29.1 10.4 29.5 10.3 30 10.3 C 30.5 10.3 30.9 10.5 31.1 10.7 C 31.4 11 31.5 11.3 31.5 11.8 C 31.51 11.79 31.5 14 31.5 14 L 31 14 L 31 13.5 C 31 13.5 31 13.45 31 13.5 Z M 29.8 13.6 C 30.1 13.6 30.4 13.6 30.7 13.4 C 30.9 13.2 31 13 31 12.7 C 31 12.7 31 12.3 31 12.3 C 30.6 12.2 30.3 12.2 29.9 12.2 C 29.6 12.2 29.3 12.2 29.2 12.4 C 29 12.5 28.9 12.7 28.9 12.9 C 28.9 12.9 28.9 12.9 28.9 12.9 C 28.9 13.1 29 13.3 29.1 13.5 C 29.3 13.6 29.5 13.6 29.8 13.6 Z M 35.8 13.4 C 35.4 13.9 34.9 14.1 34.3 14.1 C 33.8 14.1 33.3 13.9 33 13.5 C 32.6 13.2 32.4 12.7 32.4 12.2 C 32.4 12.2 32.4 12.2 32.4 12.2 C 32.4 11.7 32.6 11.2 33 10.9 C 33.3 10.5 33.8 10.3 34.3 10.3 C 34.9 10.3 35.3 10.5 35.7 10.9 C 35.7 10.9 35.4 11.3 35.4 11.3 C 35 11 34.7 10.8 34.3 10.8 C 33.9 10.8 33.6 10.9 33.4 11.2 C 33.1 11.5 33 11.8 33 12.2 C 33 12.2 33 12.2 33 12.2 C 33 12.6 33.1 12.9 33.4 13.2 C 33.6 13.5 33.9 13.6 34.3 13.6 C 34.7 13.6 35.1 13.4 35.4 13.1 C 35.43 13.06 35.8 13.4 35.8 13.4 C 35.8 13.4 35.77 13.38 35.8 13.4 Z M 36.7 9.6 L 36.7 9 L 37.3 9 L 37.3 9.6 L 36.7 9.6 Z M 36.7 14 L 36.7 10.4 L 37.2 10.4 L 37.2 14 L 36.7 14 Z M 38.5 14 L 38.5 10.4 L 39 10.4 C 39 10.4 39.04 10.99 39 11 C 39.2 10.8 39.3 10.6 39.5 10.5 C 39.7 10.4 39.9 10.3 40.2 10.3 C 40.8 10.3 41.1 10.5 41.4 11 C 41.7 10.5 42.1 10.3 42.6 10.3 C 43.1 10.3 43.4 10.4 43.6 10.7 C 43.9 11 44 11.3 44 11.8 C 43.99 11.76 44 14 44 14 L 43.4 14 C 43.4 14 43.45 11.89 43.4 11.9 C 43.4 11.5 43.4 11.3 43.2 11.1 C 43 10.9 42.8 10.8 42.5 10.8 C 42.2 10.8 42 10.9 41.8 11.1 C 41.6 11.3 41.5 11.6 41.5 11.9 C 41.51 11.91 41.5 14 41.5 14 L 41 14 C 41 14 40.98 11.87 41 11.9 C 41 11.5 40.9 11.3 40.7 11.1 C 40.6 10.9 40.3 10.8 40 10.8 C 39.8 10.8 39.5 10.9 39.3 11.1 C 39.1 11.3 39 11.6 39 11.9 C 39.04 11.93 39 14 39 14 L 38.5 14 Z M 45.1 11.1 L 45.1 10.4 L 45.7 10.4 L 45.7 11.1 L 45.1 11.1 Z M 45.1 14 L 45.1 13.3 L 45.7 13.3 L 45.7 14 L 45.1 14 Z M 49.7 14 L 49.7 9.6 L 48.7 9.9 L 48.6 9.5 L 49.8 9.1 L 50.2 9.1 L 50.2 14 L 49.7 14 Z M 51.4 14 L 51.4 13.3 L 52.1 13.3 L 52.1 14 L 51.4 14 Z M 54.8 14.1 C 54 14.1 53.4 13.8 53 13.2 C 53 13.2 53.4 12.9 53.4 12.9 C 53.8 13.3 54.2 13.6 54.8 13.6 C 55.1 13.6 55.4 13.5 55.6 13.3 C 55.8 13.1 55.9 12.9 55.9 12.6 C 55.9 12.6 55.9 12.6 55.9 12.6 C 55.9 12.3 55.8 12.1 55.5 11.9 C 55.3 11.8 54.9 11.7 54.5 11.7 C 54.51 11.67 54.2 11.7 54.2 11.7 L 54.1 11.3 L 55.6 9.6 L 53.2 9.6 L 53.2 9.1 L 56.4 9.1 L 56.4 9.5 C 56.4 9.5 54.82 11.21 54.8 11.2 C 55.3 11.3 55.7 11.4 56 11.6 C 56.3 11.8 56.4 12.2 56.4 12.6 C 56.4 12.6 56.4 12.6 56.4 12.6 C 56.4 13 56.3 13.4 56 13.7 C 55.7 13.9 55.3 14.1 54.8 14.1 Z M 61.5 11.5 C 61.5 12.3 61.3 12.9 60.9 13.3 C 60.5 13.8 60 14.1 59.4 14.1 C 58.8 14.1 58.3 13.8 57.9 13.4 C 57.5 12.9 57.4 12.3 57.4 11.6 C 57.4 11.6 57.4 11.5 57.4 11.5 C 57.4 10.8 57.5 10.2 57.9 9.8 C 58.3 9.3 58.8 9 59.4 9 C 60 9 60.5 9.3 60.9 9.7 C 61.3 10.2 61.5 10.8 61.5 11.5 C 61.49 11.54 61.5 11.5 61.5 11.5 C 61.5 11.5 61.49 11.55 61.5 11.5 Z M 57.9 11.5 C 57.9 12.1 58.1 12.6 58.3 13 C 58.6 13.4 59 13.6 59.4 13.6 C 59.9 13.6 60.2 13.4 60.5 13 C 60.8 12.6 60.9 12.1 60.9 11.6 C 60.9 11.6 60.9 11.5 60.9 11.5 C 60.9 11 60.8 10.5 60.5 10.1 C 60.2 9.7 59.9 9.5 59.4 9.5 C 59 9.5 58.6 9.7 58.3 10.1 C 58.1 10.5 57.9 11 57.9 11.5 C 57.92 11.54 57.9 11.5 57.9 11.5 C 57.9 11.5 57.92 11.55 57.9 11.5 Z M 66.5 11.5 C 66.5 12.3 66.3 12.9 65.9 13.3 C 65.5 13.8 65 14.1 64.4 14.1 C 63.8 14.1 63.3 13.8 62.9 13.4 C 62.5 12.9 62.4 12.3 62.4 11.6 C 62.4 11.6 62.4 11.5 62.4 11.5 C 62.4 10.8 62.5 10.2 62.9 9.8 C 63.3 9.3 63.8 9 64.4 9 C 65.1 9 65.5 9.3 65.9 9.7 C 66.3 10.2 66.5 10.8 66.5 11.5 C 66.49 11.54 66.5 11.5 66.5 11.5 C 66.5 11.5 66.49 11.55 66.5 11.5 Z M 62.9 11.5 C 62.9 12.1 63.1 12.6 63.3 13 C 63.6 13.4 64 13.6 64.4 13.6 C 64.9 13.6 65.2 13.4 65.5 13 C 65.8 12.6 65.9 12.1 65.9 11.6 C 65.9 11.6 65.9 11.5 65.9 11.5 C 65.9 11 65.8 10.5 65.5 10.1 C 65.2 9.7 64.9 9.5 64.4 9.5 C 64 9.5 63.6 9.7 63.3 10.1 C 63.1 10.5 62.9 11 62.9 11.5 C 62.93 11.54 62.9 11.5 62.9 11.5 C 62.9 11.5 62.93 11.55 62.9 11.5 Z M 69.6 14 L 69.6 10.4 L 70.2 10.4 C 70.2 10.4 70.17 10.99 70.2 11 C 70.3 10.8 70.5 10.6 70.6 10.5 C 70.8 10.4 71.1 10.3 71.3 10.3 C 71.9 10.3 72.3 10.5 72.5 11 C 72.8 10.5 73.2 10.3 73.8 10.3 C 74.2 10.3 74.5 10.4 74.8 10.7 C 75 11 75.1 11.3 75.1 11.8 C 75.12 11.76 75.1 14 75.1 14 L 74.6 14 C 74.6 14 74.58 11.89 74.6 11.9 C 74.6 11.5 74.5 11.3 74.3 11.1 C 74.2 10.9 73.9 10.8 73.6 10.8 C 73.4 10.8 73.1 10.9 72.9 11.1 C 72.7 11.3 72.6 11.6 72.6 11.9 C 72.64 11.91 72.6 14 72.6 14 L 72.1 14 C 72.1 14 72.11 11.87 72.1 11.9 C 72.1 11.5 72 11.3 71.9 11.1 C 71.7 10.9 71.5 10.8 71.2 10.8 C 70.9 10.8 70.6 10.9 70.5 11.1 C 70.3 11.3 70.2 11.6 70.2 11.9 C 70.17 11.93 70.2 14 70.2 14 L 69.6 14 Z M 76.3 14 L 76.3 8.9 L 76.9 8.9 L 76.9 14 L 76.3 14 Z " stroke="none" fill="#000"/>  </g>  <g id="Polygon380477">    <path d="M 3 0.3 L 3 -0.4 L 3.6 -0.4 L 3.6 0.3 L 3 0.3 Z M 1.7 0.3 L 1.7 -0.4 L 2.3 -0.4 L 2.3 0.3 L 1.7 0.3 Z M 2.7 5.7 C 2 5.7 1.5 5.5 1.2 5.1 C 0.8 4.7 0.6 4.2 0.6 3.5 C 0.62 3.55 0.6 0.7 0.6 0.7 L 1.2 0.7 C 1.2 0.7 1.17 3.51 1.2 3.5 C 1.2 4 1.3 4.4 1.6 4.7 C 1.8 5 2.2 5.2 2.7 5.2 C 3.1 5.2 3.5 5 3.8 4.8 C 4 4.5 4.1 4.1 4.1 3.5 C 4.14 3.55 4.1 0.7 4.1 0.7 L 4.7 0.7 C 4.7 0.7 4.7 3.51 4.7 3.5 C 4.7 4.2 4.5 4.7 4.1 5.1 C 3.8 5.5 3.3 5.7 2.7 5.7 Z M 5.9 5.6 L 5.9 2 L 6.5 2 C 6.5 2 6.45 2.93 6.5 2.9 C 6.6 2.6 6.8 2.4 7 2.2 C 7.3 2 7.6 1.9 7.9 1.9 C 7.93 1.92 7.9 2.5 7.9 2.5 C 7.9 2.5 7.89 2.5 7.9 2.5 C 7.5 2.5 7.1 2.6 6.9 2.9 C 6.6 3.2 6.5 3.6 6.5 4.2 C 6.45 4.16 6.5 5.6 6.5 5.6 L 5.9 5.6 Z M 10.6 1.4 L 10.6 0.8 L 11.2 0.8 L 11.2 1.4 L 10.6 1.4 Z M 9.3 1.4 L 9.3 0.8 L 10 0.8 L 10 1.4 L 9.3 1.4 Z M 11.3 5 C 11 5.4 10.6 5.7 10.1 5.7 C 9.7 5.7 9.3 5.5 9.1 5.3 C 8.8 5 8.7 4.7 8.7 4.2 C 8.69 4.23 8.7 2 8.7 2 L 9.2 2 C 9.2 2 9.23 4.09 9.2 4.1 C 9.2 4.4 9.3 4.7 9.5 4.9 C 9.7 5.1 9.9 5.2 10.2 5.2 C 10.5 5.2 10.8 5.1 11 4.9 C 11.2 4.7 11.3 4.4 11.3 4.1 C 11.32 4.05 11.3 2 11.3 2 L 11.9 2 L 11.9 5.6 L 11.3 5.6 L 11.3 5 C 11.3 5 11.32 4.97 11.3 5 Z M 13.1 5.6 L 13.1 2 L 13.6 2 C 13.6 2 13.6 2.61 13.6 2.6 C 13.9 2.1 14.3 1.9 14.8 1.9 C 15.3 1.9 15.6 2 15.9 2.3 C 16.1 2.6 16.2 2.9 16.2 3.4 C 16.23 3.35 16.2 5.6 16.2 5.6 L 15.7 5.6 C 15.7 5.6 15.69 3.49 15.7 3.5 C 15.7 3.1 15.6 2.9 15.4 2.7 C 15.2 2.5 15 2.4 14.7 2.4 C 14.4 2.4 14.1 2.5 13.9 2.7 C 13.7 2.9 13.6 3.2 13.6 3.5 C 13.6 3.53 13.6 5.6 13.6 5.6 L 13.1 5.6 Z M 19.6 5.6 L 19.6 0.7 L 20.1 0.7 L 20.1 3.6 L 22.9 0.7 L 23.7 0.7 L 21.5 2.8 L 23.7 5.6 L 23 5.6 L 21.2 3.2 L 20.1 4.3 L 20.1 5.6 L 19.6 5.6 Z M 25.9 5.7 C 25.4 5.7 25 5.5 24.6 5.1 C 24.3 4.8 24.1 4.3 24.1 3.8 C 24.1 3.8 24.1 3.8 24.1 3.8 C 24.1 3.3 24.3 2.8 24.6 2.5 C 25 2.1 25.4 1.9 26 1.9 C 26.5 1.9 26.9 2.1 27.3 2.5 C 27.7 2.8 27.8 3.3 27.8 3.8 C 27.8 3.8 27.8 3.8 27.8 3.8 C 27.8 4.3 27.7 4.8 27.3 5.1 C 26.9 5.5 26.5 5.7 25.9 5.7 Z M 26 5.2 C 26.3 5.2 26.7 5.1 26.9 4.8 C 27.2 4.5 27.3 4.2 27.3 3.8 C 27.3 3.8 27.3 3.8 27.3 3.8 C 27.3 3.4 27.2 3.1 26.9 2.8 C 26.6 2.5 26.3 2.4 25.9 2.4 C 25.6 2.4 25.2 2.5 25 2.8 C 24.8 3.1 24.6 3.4 24.6 3.8 C 24.6 3.8 24.6 3.8 24.6 3.8 C 24.6 4.2 24.8 4.5 25 4.8 C 25.3 5.1 25.6 5.2 26 5.2 Z M 31.7 4.9 C 31.4 5.4 30.9 5.7 30.3 5.7 C 29.9 5.7 29.5 5.5 29.1 5.2 C 28.8 4.8 28.6 4.4 28.6 3.8 C 28.6 3.8 28.6 3.8 28.6 3.8 C 28.6 3.2 28.8 2.8 29.1 2.4 C 29.5 2.1 29.9 1.9 30.3 1.9 C 30.9 1.9 31.4 2.2 31.7 2.7 C 31.72 2.67 31.7 0.5 31.7 0.5 L 32.3 0.5 L 32.3 5.6 L 31.7 5.6 L 31.7 4.9 C 31.7 4.9 31.72 4.87 31.7 4.9 Z M 30.4 5.2 C 30.8 5.2 31.1 5.1 31.4 4.8 C 31.6 4.5 31.7 4.2 31.7 3.8 C 31.7 3.8 31.7 3.8 31.7 3.8 C 31.7 3.4 31.6 3 31.4 2.8 C 31.1 2.5 30.8 2.4 30.4 2.4 C 30.1 2.4 29.8 2.5 29.5 2.8 C 29.3 3 29.2 3.4 29.2 3.8 C 29.2 3.8 29.2 3.8 29.2 3.8 C 29.2 4.2 29.3 4.6 29.5 4.8 C 29.8 5.1 30.1 5.2 30.4 5.2 Z M 36 5 C 35.7 5.4 35.3 5.7 34.8 5.7 C 34.4 5.7 34 5.5 33.8 5.3 C 33.5 5 33.4 4.7 33.4 4.2 C 33.41 4.23 33.4 2 33.4 2 L 33.9 2 C 33.9 2 33.95 4.09 33.9 4.1 C 33.9 4.4 34 4.7 34.2 4.9 C 34.4 5.1 34.6 5.2 35 5.2 C 35.3 5.2 35.5 5.1 35.7 4.9 C 35.9 4.7 36 4.4 36 4.1 C 36.04 4.05 36 2 36 2 L 36.6 2 L 36.6 5.6 L 36 5.6 L 36 5 C 36 5 36.04 4.97 36 5 Z M 37.7 2.7 L 37.7 2 L 38.4 2 L 38.4 2.7 L 37.7 2.7 Z M 37.7 5.6 L 37.7 4.9 L 38.4 4.9 L 38.4 5.6 L 37.7 5.6 Z M 42.3 5.6 L 42.3 1.8 L 41.4 2 L 41.2 1.1 L 42.6 0.7 L 43.4 0.7 L 43.4 5.6 L 42.3 5.6 Z M 44.4 5.6 L 44.4 4.7 C 44.4 4.7 45.98 3.41 46 3.4 C 46.3 3.1 46.5 2.9 46.6 2.8 C 46.8 2.6 46.8 2.4 46.8 2.2 C 46.8 2 46.8 1.9 46.7 1.8 C 46.5 1.7 46.4 1.6 46.2 1.6 C 46 1.6 45.8 1.6 45.7 1.7 C 45.5 1.8 45.4 2 45.2 2.3 C 45.2 2.3 44.4 1.6 44.4 1.6 C 44.7 1.3 44.9 1 45.2 0.9 C 45.5 0.7 45.8 0.6 46.2 0.6 C 46.7 0.6 47.2 0.8 47.5 1 C 47.8 1.3 47.9 1.7 47.9 2.1 C 47.9 2.1 47.9 2.2 47.9 2.2 C 47.9 2.5 47.8 2.9 47.6 3.1 C 47.5 3.4 47.1 3.7 46.6 4.1 C 46.64 4.05 45.8 4.7 45.8 4.7 L 48 4.7 L 48 5.6 L 44.4 5.6 Z M 48.9 5.6 L 51.1 1.6 L 48.8 1.6 L 48.8 0.7 L 52.3 0.7 L 52.3 1.5 L 50.1 5.6 L 48.9 5.6 Z M 53.3 5.6 L 55.4 1.6 L 53.1 1.6 L 53.1 0.7 L 56.7 0.7 L 56.7 1.5 L 54.5 5.6 L 53.3 5.6 Z M 59 5.7 C 58.3 5.7 57.6 5.4 57.1 4.9 C 57.1 4.9 57.8 4.2 57.8 4.2 C 58.2 4.5 58.6 4.7 58.9 4.7 C 59.2 4.7 59.4 4.6 59.5 4.5 C 59.7 4.4 59.8 4.2 59.8 4 C 59.8 4 59.8 4 59.8 4 C 59.8 3.8 59.7 3.6 59.5 3.5 C 59.4 3.4 59.2 3.3 58.9 3.3 C 58.6 3.3 58.3 3.4 58.1 3.5 C 58.08 3.53 57.5 3.1 57.5 3.1 L 57.6 0.7 L 60.6 0.7 L 60.6 1.6 L 58.5 1.6 C 58.5 1.6 58.46 2.49 58.5 2.5 C 58.7 2.4 58.9 2.4 59.1 2.4 C 59.6 2.4 60 2.5 60.3 2.8 C 60.7 3.1 60.8 3.5 60.8 4 C 60.8 4 60.8 4 60.8 4 C 60.8 4.5 60.7 4.9 60.3 5.2 C 60 5.5 59.5 5.7 59 5.7 Z " stroke="none" fill="#000"/>  </g></svg>