<?xml version="1.0" standalone="no"?><!DOCTYPE svg PUBLIC "-//W3C//DTD SVG 1.1//EN" "http://www.w3.org/Graphics/SVG/1.1/DTD/svg11.dtd"><svg xmlns="http://www.w3.org/2000/svg" version="1.1" width="16.2px" height="12.4px" viewBox="0 -1 16.2 12.4" style="top:-1px"><desc/><defs/><g id="Polygon360342"><path d="m1.3 7.5V3.1l-1 .3L.2 3l1.2-.5h.4v5h-.5zM7.1 5c0 .7-.2 1.3-.6 1.8c-.4.5-.9.8-1.5.8c-.6 0-1.1-.3-1.5-.8c-.4-.5-.6-1.1-.6-1.8c0-.7.2-1.3.6-1.8c.4-.5.9-.7 1.5-.7c.6 0 1.1.2 1.5.7c.4.5.6 1.1.6 1.8c-.02.01 0 0 0 0c0 0-.02.03 0 0zM3.5 5c0 .6.2 1.1.4 1.5c.3.4.7.6 1.1.6c.5 0 .8-.2 1.1-.6c.3-.4.4-.9.4-1.5c0-.5-.1-1-.4-1.4C5.8 3.2 5.4 3 5 3c-.4 0-.8.2-1.1.6c-.2.4-.4.9-.4 1.4c.01.01 0 0 0 0c0 0 .01.03 0 0zm8.1 1.2c0 .4-.2.7-.6 1c-.3.2-.8.3-1.3.3c-.5 0-1-.1-1.3-.3c-.4-.3-.5-.6-.5-1v-.1c0-.2.1-.5.2-.7c.2-.2.5-.3.8-.5c-.6-.2-.9-.6-.9-1.1c0-.4.2-.7.5-.9c.4-.3.8-.4 1.2-.4c.5 0 .9.1 1.2.4c.3.2.5.5.5.9c0 .5-.3.9-.9 1.1c.4.2.6.3.8.5c.2.2.3.5.3.7c-.04.04 0 .1 0 .1c0 0-.04-.05 0 0zm-3-2.3c0 .2.1.4.3.6c.2.2.5.2.8.2c.3 0 .6 0 .8-.2c.2-.2.3-.4.3-.6v-.1c0-.2-.1-.4-.3-.6c-.2-.1-.5-.2-.8-.2c-.3 0-.6.1-.8.2c-.2.2-.3.4-.3.6v.1s0-.05 0 0zm-.2 2.2c0 .3.2.5.4.7c.2.2.5.3.9.3c.4 0 .7-.1 1-.3c.2-.2.3-.4.3-.7c0-.2-.1-.5-.4-.6c-.2-.2-.5-.3-.9-.3c-.3 0-.6.1-.9.3c-.2.1-.4.4-.4.6c.03.03 0 0 0 0c0 0 .03.05 0 0z" stroke="none" fill="#000"/></g></svg>