<?xml version="1.0" standalone="no"?><!DOCTYPE svg PUBLIC "-//W3C//DTD SVG 1.1//EN" "http://www.w3.org/Graphics/SVG/1.1/DTD/svg11.dtd"><svg xmlns="http://www.w3.org/2000/svg" version="1.1" width="116.2px" height="29.6px" viewBox="0 -1 116.2 29.6" style="top:-1px"><desc>Aroma korumas</desc><defs/><g id="Polygon369991"><path d="m51.4 16.4l2.5-5.6h.6l2.6 5.6h-.7l-.7-1.5h-3l-.7 1.5h-.6zm1.5-2h2.6l-1.3-2.9l-1.3 2.9zm5.2 2v-4.1h.6s-.02 1.07 0 1.1c.1-.4.4-.7.7-.9c.3-.2.6-.3 1-.3c-.03.02 0 .7 0 .7c0 0-.08-.02-.1 0c-.4 0-.8.1-1.2.5c-.3.3-.4.8-.4 1.4c-.02-.02 0 1.6 0 1.6h-.6zm4.9.1c-.6 0-1.1-.2-1.5-.6c-.4-.4-.6-.9-.6-1.5c0-.6.2-1.1.6-1.6c.4-.4.9-.6 1.5-.6c.7 0 1.2.2 1.6.6c.4.5.6 1 .6 1.5v.1c0 .6-.2 1.1-.6 1.5c-.4.4-1 .6-1.6.6zm0-.5c.5 0 .8-.2 1.1-.5c.3-.3.5-.7.5-1.1c0-.5-.2-.9-.5-1.2c-.3-.3-.6-.5-1.1-.5c-.4 0-.8.2-1.1.5c-.2.3-.4.7-.4 1.1v.1c0 .4.2.8.4 1.1c.3.3.7.5 1.1.5zm3.3.4v-4.1h.6s.02.69 0 .7c.2-.3.4-.4.6-.6c.2-.1.4-.2.8-.2c.6 0 1 .3 1.3.8c.3-.5.8-.8 1.4-.8c.5 0 .9.2 1.2.4c.2.3.4.8.4 1.3c-.03-.03 0 2.5 0 2.5h-.6s-.04-2.39 0-2.4c0-.4-.1-.7-.3-.9c-.2-.2-.5-.3-.8-.3c-.3 0-.6.1-.8.3c-.2.2-.4.5-.4.9c.04.04 0 2.4 0 2.4h-.6s.03-2.4 0-2.4c0-.4-.1-.7-.3-.9c-.1-.2-.4-.3-.7-.3c-.4 0-.6.1-.9.3c-.2.3-.3.6-.3 1c.02-.03 0 2.3 0 2.3h-.6zm10.3-.6c-.3.5-.8.7-1.5.7c-.4 0-.8-.1-1.1-.3c-.3-.3-.4-.6-.4-1c0-.4.1-.7.5-1c.3-.2.7-.3 1.2-.3c.5 0 .9 0 1.3.2v-.2c0-.4-.1-.6-.3-.8c-.2-.2-.5-.3-.9-.3c-.4 0-.9.1-1.3.3l-.2-.5c.5-.2 1-.4 1.5-.4c.6 0 1.1.2 1.4.5c.3.3.4.7.4 1.2c.01 0 0 2.5 0 2.5h-.6v-.6s.01 0 0 0zm-1.4.2c.4 0 .8-.1 1-.3c.3-.2.4-.5.4-.8v-.4c-.4-.1-.8-.2-1.2-.2c-.4 0-.7.1-.9.3c-.2.1-.3.3-.3.6c0 .3.1.5.3.6c.2.2.4.2.7.2zm5.7.4v-5.8h.6v4l2.3-2.3h.7l-1.7 1.8l1.8 2.3h-.7l-1.5-1.9l-.9.8v1.1h-.6zm6.3.1c-.7 0-1.2-.2-1.6-.6c-.4-.4-.6-.9-.6-1.5c0-.6.2-1.1.6-1.6c.4-.4 1-.6 1.6-.6c.6 0 1.1.2 1.5.6c.4.5.6 1 .6 1.5v.1c0 .6-.2 1.1-.6 1.5c-.4.4-.9.6-1.5.6zm0-.5c.4 0 .8-.2 1.1-.5c.2-.3.4-.7.4-1.1c0-.5-.2-.9-.5-1.2c-.2-.3-.6-.5-1-.5c-.5 0-.8.2-1.1.5c-.3.3-.5.7-.5 1.1v.1c0 .4.2.8.5 1.1c.3.3.6.5 1.1.5zm3.2.4v-4.1h.7s-.05 1.07 0 1.1c.1-.4.3-.7.6-.9c.3-.2.7-.3 1-.3c.04.02 0 .7 0 .7c0 0-.01-.02 0 0c-.5 0-.9.1-1.2.5c-.3.3-.4.8-.4 1.4c-.05-.02 0 1.6 0 1.6h-.7zm6.2-.7c-.3.5-.8.8-1.4.8c-.5 0-.9-.1-1.2-.4c-.2-.3-.4-.7-.4-1.2v-2.6h.6s.03 2.41 0 2.4c0 .4.1.7.3.9c.2.2.5.4.9.4c.3 0 .6-.2.9-.4c.2-.2.3-.6.3-.9v-2.4h.6v4.1h-.6v-.7s.01.01 0 0zm2 .7v-4.1h.6s.02.69 0 .7c.2-.3.4-.4.6-.6c.2-.1.4-.2.8-.2c.6 0 1 .3 1.3.8c.4-.5.8-.8 1.4-.8c.5 0 .9.2 1.2.4c.2.3.4.8.4 1.3c-.02-.03 0 2.5 0 2.5h-.6s-.04-2.39 0-2.4c0-.4-.1-.7-.3-.9c-.2-.2-.5-.3-.8-.3c-.3 0-.6.1-.8.3c-.2.2-.4.5-.4.9c.04.04 0 2.4 0 2.4h-.6s.04-2.4 0-2.4c0-.4-.1-.7-.2-.9c-.2-.2-.5-.3-.8-.3c-.4 0-.6.1-.9.3c-.2.3-.3.6-.3 1c.02-.03 0 2.3 0 2.3h-.6zm10.3-.6c-.3.5-.8.7-1.5.7c-.4 0-.8-.1-1.1-.3c-.3-.3-.4-.6-.4-1c0-.4.1-.7.5-1c.3-.2.7-.3 1.2-.3c.5 0 .9 0 1.3.2v-.2c0-.4-.1-.6-.3-.8c-.2-.2-.5-.3-.9-.3c-.4 0-.9.1-1.3.3l-.2-.5c.5-.2 1-.4 1.5-.4c.6 0 1.1.2 1.4.5c.3.3.4.7.4 1.2c.01 0 0 2.5 0 2.5h-.6v-.6s.02 0 0 0zm-1.4.2c.4 0 .8-.1 1-.3c.3-.2.4-.5.4-.8v-.4c-.4-.1-.8-.2-1.2-.2c-.4 0-.7.1-.9.3c-.2.1-.3.3-.3.6c0 .3.1.5.3.6c.2.2.5.2.7.2zm4.7.5c-.6 0-1.2-.2-1.7-.6l.3-.4c.4.3.9.5 1.4.5c.3 0 .5-.1.6-.2c.2-.1.3-.3.3-.5c0-.2-.1-.3-.3-.4c-.2-.1-.4-.2-.8-.3c-.1-.1-.2-.1-.3-.1c-.1 0-.2-.1-.3-.1c-.1-.1-.2-.1-.3-.2c-.1 0-.1-.1-.2-.2l-.2-.2v-.4c0-.3.1-.6.4-.9c.2-.2.6-.3 1-.3c.5 0 1 .2 1.5.5l-.3.4c-.4-.2-.8-.4-1.2-.4c-.3 0-.5.1-.6.2c-.2.1-.2.3-.2.4v.3c.1 0 .1.1.2.1c0 .1.1.1.2.2c.1 0 .2 0 .3.1c.1 0 .2 0 .3.1c.2 0 .3.1.4.1c.1 0 .2.1.4.2c.1 0 .2.1.3.2c.1 0 .1.1.2.3c0 .1.1.2.1.4c0 .4-.2.7-.5.9c-.2.2-.6.3-1 .3zm2.7-.1v-4.1h.6v4.1h-.6z" stroke="none" fill="#000"/></g></svg>