<?xml version="1.0" standalone="no"?><!DOCTYPE svg PUBLIC "-//W3C//DTD SVG 1.1//EN" "http://www.w3.org/Graphics/SVG/1.1/DTD/svg11.dtd"><svg xmlns="http://www.w3.org/2000/svg" version="1.1" width="150px" height="110.5px" viewBox="0 -5 150 110.5" style="top:-5px">  <desc>HEPS N B R: DO RAMA KARI TIRMA D ND RME</desc>  <defs/>  <g id="Polygon364062">    <path d="M 1.8 97.7 L 1.8 85.5 C 1.8 85.5 5.9 85.5 5.9 85.5 C 7.8 85.5 9.4 86.1 10.6 87.2 C 11.8 88.4 12.4 89.9 12.4 91.6 C 12.4 91.6 12.4 91.6 12.4 91.6 C 12.4 93.4 11.8 94.8 10.6 96 C 9.4 97.2 7.8 97.7 5.9 97.7 C 5.9 97.75 1.8 97.7 1.8 97.7 Z M 5.9 86.3 C 5.9 86.34 2.7 86.3 2.7 86.3 L 2.7 96.9 C 2.7 96.9 5.9 96.91 5.9 96.9 C 7.6 96.9 8.9 96.4 9.9 95.4 C 11 94.4 11.5 93.2 11.5 91.7 C 11.5 91.7 11.5 91.6 11.5 91.6 C 11.5 90.1 11 88.9 9.9 87.9 C 8.9 86.9 7.6 86.3 5.9 86.3 Z M 27.3 91.6 C 27.3 93.4 26.7 94.9 25.5 96.1 C 24.4 97.3 22.9 98 21.1 98 C 19.3 98 17.8 97.3 16.7 96.1 C 15.5 94.9 15 93.4 15 91.7 C 15 91.7 15 91.6 15 91.6 C 15 89.9 15.5 88.4 16.7 87.2 C 17.8 85.9 19.3 85.3 21.1 85.3 C 22.9 85.3 24.4 85.9 25.6 87.1 C 26.7 88.4 27.3 89.9 27.3 91.6 C 27.28 91.59 27.3 91.6 27.3 91.6 C 27.3 91.6 27.28 91.62 27.3 91.6 Z M 15.9 91.6 C 15.9 93.2 16.4 94.5 17.4 95.5 C 18.4 96.6 19.6 97.1 21.1 97.1 C 22.6 97.1 23.9 96.6 24.9 95.5 C 25.8 94.5 26.3 93.2 26.3 91.7 C 26.3 91.7 26.3 91.6 26.3 91.6 C 26.3 90.1 25.8 88.8 24.8 87.7 C 23.8 86.6 22.6 86.1 21.1 86.1 C 19.6 86.1 18.4 86.6 17.4 87.7 C 16.4 88.8 15.9 90.1 15.9 91.6 C 15.91 91.59 15.9 91.6 15.9 91.6 C 15.9 91.6 15.91 91.62 15.9 91.6 Z M 22 84.2 L 22 82.9 L 23.3 82.9 L 23.3 84.2 L 22 84.2 Z M 19 84.2 L 19 82.9 L 20.2 82.9 L 20.2 84.2 L 19 84.2 Z M 30.4 97.7 L 30.4 85.5 L 31.2 85.5 L 39.7 96.2 L 39.7 85.5 L 40.6 85.5 L 40.6 97.7 L 39.9 97.7 L 31.3 86.9 L 31.3 97.7 L 30.4 97.7 Z M 44.2 97.7 L 44.2 85.5 C 44.2 85.5 48.28 85.5 48.3 85.5 C 50.2 85.5 51.7 86.1 53 87.2 C 54.2 88.4 54.8 89.9 54.8 91.6 C 54.8 91.6 54.8 91.6 54.8 91.6 C 54.8 93.4 54.2 94.8 53 96 C 51.7 97.2 50.2 97.7 48.3 97.7 C 48.28 97.75 44.2 97.7 44.2 97.7 Z M 48.3 86.3 C 48.28 86.34 45.1 86.3 45.1 86.3 L 45.1 96.9 C 45.1 96.9 48.28 96.91 48.3 96.9 C 50 96.9 51.3 96.4 52.3 95.4 C 53.3 94.4 53.8 93.2 53.8 91.7 C 53.8 91.7 53.8 91.6 53.8 91.6 C 53.8 90.1 53.3 88.9 52.3 87.9 C 51.3 86.9 50 86.3 48.3 86.3 Z M 62.7 97.9 C 61.2 97.9 60 97.5 59.1 96.6 C 58.2 95.6 57.7 94.3 57.7 92.7 C 57.7 92.66 57.7 85.5 57.7 85.5 L 58.6 85.5 C 58.6 85.5 58.61 92.57 58.6 92.6 C 58.6 94 59 95.2 59.7 95.9 C 60.4 96.7 61.4 97.1 62.8 97.1 C 64 97.1 65 96.7 65.7 96 C 66.5 95.2 66.8 94.1 66.8 92.7 C 66.83 92.66 66.8 85.5 66.8 85.5 L 67.7 85.5 C 67.7 85.5 67.74 92.55 67.7 92.6 C 67.7 94.3 67.3 95.6 66.4 96.5 C 65.5 97.5 64.2 97.9 62.7 97.9 Z M 63.6 84.4 L 63.6 83.1 L 64.9 83.1 L 64.9 84.4 L 63.6 84.4 Z M 60.5 84.4 L 60.5 83.1 L 61.8 83.1 L 61.8 84.4 L 60.5 84.4 Z M 71.2 97.7 L 71.2 85.5 C 71.2 85.5 76.33 85.5 76.3 85.5 C 77.8 85.5 79 85.9 79.8 86.7 C 80.4 87.3 80.7 88.1 80.7 89 C 80.7 89 80.7 89 80.7 89 C 80.7 90 80.4 90.8 79.7 91.4 C 79.1 92 78.2 92.4 77.1 92.5 C 77.12 92.52 81.2 97.7 81.2 97.7 L 80 97.7 L 76.1 92.7 L 72.1 92.7 L 72.1 97.7 L 71.2 97.7 Z M 72.1 91.9 C 72.1 91.9 76.23 91.85 76.2 91.9 C 77.3 91.9 78.1 91.6 78.8 91.1 C 79.5 90.6 79.8 89.9 79.8 89.1 C 79.8 89.1 79.8 89 79.8 89 C 79.8 88.2 79.5 87.5 78.9 87 C 78.3 86.6 77.4 86.3 76.3 86.3 C 76.28 86.34 72.1 86.3 72.1 86.3 L 72.1 91.9 Z M 83.8 97.7 L 83.8 85.5 L 84.7 85.5 L 89.6 92.7 L 94.5 85.5 L 95.4 85.5 L 95.4 97.7 L 94.5 97.7 L 94.5 87.1 L 89.6 94.2 L 89.6 94.2 L 84.7 87.1 L 84.7 97.7 L 83.8 97.7 Z M 99 97.7 L 99 85.5 L 107.7 85.5 L 107.7 86.3 L 99.9 86.3 L 99.9 91.2 L 107 91.2 L 107 92 L 99.9 92 L 99.9 96.9 L 107.8 96.9 L 107.8 97.7 L 99 97.7 Z " stroke="none" fill="#000"/>  </g>  <g id="Polygon364061">    <path d="M 1.8 72.7 L 1.8 60.5 L 2.7 60.5 L 2.7 68.5 L 10.5 60.5 L 11.8 60.5 L 6.4 65.9 L 12 72.7 L 10.8 72.7 L 5.8 66.6 L 2.7 69.6 L 2.7 72.7 L 1.8 72.7 Z M 12.9 72.7 L 18.6 60.4 L 19.5 60.4 L 25.2 72.7 L 24.2 72.7 L 22.7 69.3 L 15.4 69.3 L 13.9 72.7 L 12.9 72.7 Z M 15.8 68.5 L 22.3 68.5 L 19.1 61.4 L 15.8 68.5 Z M 27.8 72.7 L 27.8 60.5 C 27.8 60.5 32.95 60.5 33 60.5 C 34.4 60.5 35.6 60.9 36.4 61.7 C 37 62.3 37.3 63.1 37.3 64 C 37.3 64 37.3 64 37.3 64 C 37.3 65 37 65.8 36.3 66.4 C 35.7 67 34.8 67.4 33.7 67.5 C 33.74 67.52 37.8 72.7 37.8 72.7 L 36.6 72.7 L 32.7 67.7 L 28.7 67.7 L 28.7 72.7 L 27.8 72.7 Z M 28.7 66.9 C 28.7 66.9 32.85 66.85 32.8 66.9 C 33.9 66.9 34.8 66.6 35.4 66.1 C 36.1 65.6 36.4 64.9 36.4 64.1 C 36.4 64.1 36.4 64 36.4 64 C 36.4 63.2 36.1 62.5 35.5 62 C 34.9 61.6 34 61.3 32.9 61.3 C 32.9 61.34 28.7 61.3 28.7 61.3 L 28.7 66.9 Z M 40.6 72.7 L 40.6 60.5 L 41.5 60.5 L 41.5 72.7 L 40.6 72.7 Z M 48.5 75.3 L 47.5 74.9 C 47.5 74.9 48.86 72.91 48.9 72.9 C 47.2 72.8 45.8 72.1 44.5 71 C 44.5 71 45.1 70.3 45.1 70.3 C 45.8 70.9 46.4 71.4 47.1 71.7 C 47.8 72 48.6 72.1 49.5 72.1 C 50.4 72.1 51.1 71.9 51.7 71.4 C 52.3 71 52.6 70.4 52.6 69.7 C 52.6 69.7 52.6 69.6 52.6 69.6 C 52.6 69 52.3 68.4 51.8 68 C 51.3 67.6 50.4 67.3 49.1 67 C 47.6 66.7 46.5 66.3 45.9 65.8 C 45.3 65.2 45 64.5 45 63.6 C 45 63.6 45 63.5 45 63.5 C 45 62.6 45.3 61.9 46.1 61.3 C 46.8 60.6 47.8 60.3 48.9 60.3 C 49.8 60.3 50.5 60.4 51.2 60.7 C 51.8 60.9 52.5 61.3 53.1 61.8 C 53.1 61.8 52.5 62.5 52.5 62.5 C 51.4 61.6 50.2 61.1 48.9 61.1 C 48 61.1 47.3 61.4 46.7 61.8 C 46.1 62.3 45.9 62.8 45.9 63.5 C 45.9 63.5 45.9 63.5 45.9 63.5 C 45.9 64.2 46.1 64.7 46.6 65.1 C 47.1 65.5 48 65.9 49.4 66.2 C 50.9 66.5 51.9 66.9 52.5 67.4 C 53.1 67.9 53.5 68.6 53.5 69.5 C 53.5 69.5 53.5 69.6 53.5 69.6 C 53.5 70.5 53.1 71.3 52.4 71.9 C 51.7 72.5 50.8 72.9 49.7 72.9 C 49.66 72.91 48.5 75.3 48.5 75.3 Z M 59.6 72.7 L 59.6 61.3 L 55.3 61.3 L 55.3 60.5 L 64.8 60.5 L 64.8 61.3 L 60.5 61.3 L 60.5 72.7 L 59.6 72.7 Z M 67.6 72.7 L 67.6 60.5 L 68.5 60.5 L 68.5 72.7 L 67.6 72.7 Z M 72.2 72.7 L 72.2 60.5 C 72.2 60.5 77.38 60.5 77.4 60.5 C 78.9 60.5 80 60.9 80.8 61.7 C 81.4 62.3 81.8 63.1 81.8 64 C 81.8 64 81.8 64 81.8 64 C 81.8 65 81.4 65.8 80.8 66.4 C 80.1 67 79.2 67.4 78.2 67.5 C 78.17 67.52 82.2 72.7 82.2 72.7 L 81.1 72.7 L 77.2 67.7 L 73.1 67.7 L 73.1 72.7 L 72.2 72.7 Z M 73.1 66.9 C 73.1 66.9 77.28 66.85 77.3 66.9 C 78.3 66.9 79.2 66.6 79.9 66.1 C 80.5 65.6 80.8 64.9 80.8 64.1 C 80.8 64.1 80.8 64 80.8 64 C 80.8 63.2 80.5 62.5 79.9 62 C 79.3 61.6 78.4 61.3 77.3 61.3 C 77.33 61.34 73.1 61.3 73.1 61.3 L 73.1 66.9 Z M 84.9 72.7 L 84.9 60.5 L 85.7 60.5 L 90.7 67.7 L 95.6 60.5 L 96.4 60.5 L 96.4 72.7 L 95.5 72.7 L 95.5 62.1 L 90.7 69.2 L 90.6 69.2 L 85.8 62.1 L 85.8 72.7 L 84.9 72.7 Z M 99 72.7 L 104.7 60.4 L 105.6 60.4 L 111.3 72.7 L 110.3 72.7 L 108.8 69.3 L 101.5 69.3 L 100 72.7 L 99 72.7 Z M 101.9 68.5 L 108.4 68.5 L 105.2 61.4 L 101.9 68.5 Z " stroke="none" fill="#000"/>  </g>  <g id="Polygon364060">    <path d="M 1.8 47.7 L 1.8 35.5 C 1.8 35.5 5.9 35.5 5.9 35.5 C 7.8 35.5 9.4 36.1 10.6 37.2 C 11.8 38.4 12.4 39.9 12.4 41.6 C 12.4 41.6 12.4 41.6 12.4 41.6 C 12.4 43.4 11.8 44.8 10.6 46 C 9.4 47.2 7.8 47.7 5.9 47.7 C 5.9 47.75 1.8 47.7 1.8 47.7 Z M 5.9 36.3 C 5.9 36.34 2.7 36.3 2.7 36.3 L 2.7 46.9 C 2.7 46.9 5.9 46.91 5.9 46.9 C 7.6 46.9 8.9 46.4 9.9 45.4 C 11 44.4 11.5 43.2 11.5 41.7 C 11.5 41.7 11.5 41.6 11.5 41.6 C 11.5 40.1 11 38.9 9.9 37.9 C 8.9 36.9 7.6 36.3 5.9 36.3 Z M 27.3 41.6 C 27.3 43.4 26.7 44.9 25.5 46.1 C 24.4 47.3 22.9 48 21.1 48 C 19.3 48 17.8 47.3 16.7 46.1 C 15.5 44.9 15 43.4 15 41.7 C 15 41.7 15 41.6 15 41.6 C 15 39.9 15.5 38.4 16.7 37.2 C 17.8 35.9 19.3 35.3 21.1 35.3 C 22.9 35.3 24.4 35.9 25.6 37.1 C 26.7 38.4 27.3 39.9 27.3 41.6 C 27.28 41.59 27.3 41.6 27.3 41.6 C 27.3 41.6 27.28 41.62 27.3 41.6 Z M 15.9 41.6 C 15.9 43.2 16.4 44.5 17.4 45.5 C 18.4 46.6 19.6 47.1 21.1 47.1 C 22.6 47.1 23.9 46.6 24.9 45.5 C 25.8 44.5 26.3 43.2 26.3 41.7 C 26.3 41.7 26.3 41.6 26.3 41.6 C 26.3 40.1 25.8 38.8 24.8 37.7 C 23.8 36.6 22.6 36.1 21.1 36.1 C 19.6 36.1 18.4 36.6 17.4 37.7 C 16.4 38.8 15.9 40.1 15.9 41.6 C 15.91 41.59 15.9 41.6 15.9 41.6 C 15.9 41.6 15.91 41.62 15.9 41.6 Z M 40.8 46.1 C 39.4 47.3 37.8 48 36 48 C 34.1 48 32.6 47.4 31.5 46.1 C 30.4 44.9 29.8 43.4 29.8 41.7 C 29.8 41.7 29.8 41.6 29.8 41.6 C 29.8 39.9 30.4 38.4 31.5 37.2 C 32.7 35.9 34.1 35.3 35.9 35.3 C 36.8 35.3 37.7 35.4 38.4 35.7 C 39 35.9 39.7 36.4 40.4 36.9 C 40.4 36.9 39.8 37.6 39.8 37.6 C 38.7 36.6 37.3 36.1 35.8 36.1 C 34.4 36.1 33.2 36.6 32.2 37.7 C 31.3 38.8 30.8 40.1 30.8 41.6 C 30.8 41.6 30.8 41.6 30.8 41.6 C 30.8 43.2 31.3 44.6 32.2 45.6 C 33.1 46.6 34.4 47.2 36 47.2 C 36.8 47.2 37.5 47 38.2 46.8 C 38.9 46.5 39.5 46.2 39.9 45.8 C 39.93 45.75 39.9 42.2 39.9 42.2 L 35.8 42.2 L 35.8 41.4 L 40.8 41.4 L 40.8 46.1 C 40.8 46.1 40.81 46.12 40.8 46.1 Z M 38.1 32.5 C 38.1 33 37.8 33.4 37.4 33.8 C 37 34.1 36.4 34.2 35.8 34.2 C 35.1 34.2 34.6 34.1 34.1 33.8 C 33.7 33.4 33.5 33 33.4 32.5 C 33.4 32.5 34.2 32.5 34.2 32.5 C 34.4 33.1 34.9 33.4 35.8 33.4 C 36.6 33.4 37.1 33.1 37.3 32.5 C 37.33 32.47 38.1 32.5 38.1 32.5 C 38.1 32.5 38.1 32.47 38.1 32.5 Z M 44.1 47.7 L 44.1 35.5 C 44.1 35.5 49.24 35.5 49.2 35.5 C 50.7 35.5 51.9 35.9 52.7 36.7 C 53.3 37.3 53.6 38.1 53.6 39 C 53.6 39 53.6 39 53.6 39 C 53.6 40 53.3 40.8 52.6 41.4 C 52 42 51.1 42.4 50 42.5 C 50.03 42.52 54.1 47.7 54.1 47.7 L 52.9 47.7 L 49 42.7 L 45 42.7 L 45 47.7 L 44.1 47.7 Z M 45 41.9 C 45 41.9 49.14 41.85 49.1 41.9 C 50.2 41.9 51 41.6 51.7 41.1 C 52.4 40.6 52.7 39.9 52.7 39.1 C 52.7 39.1 52.7 39 52.7 39 C 52.7 38.2 52.4 37.5 51.8 37 C 51.2 36.6 50.3 36.3 49.2 36.3 C 49.19 36.34 45 36.3 45 36.3 L 45 41.9 Z M 55.7 47.7 L 61.4 35.4 L 62.3 35.4 L 68 47.7 L 67 47.7 L 65.4 44.3 L 58.2 44.3 L 56.6 47.7 L 55.7 47.7 Z M 58.6 43.5 L 65 43.5 L 61.8 36.4 L 58.6 43.5 Z M 70.6 47.7 L 70.6 35.5 L 71.4 35.5 L 76.4 42.7 L 81.3 35.5 L 82.1 35.5 L 82.1 47.7 L 81.2 47.7 L 81.2 37.1 L 76.4 44.2 L 76.3 44.2 L 71.5 37.1 L 71.5 47.7 L 70.6 47.7 Z M 84.7 47.7 L 90.4 35.4 L 91.3 35.4 L 97 47.7 L 96 47.7 L 94.4 44.3 L 87.2 44.3 L 85.7 47.7 L 84.7 47.7 Z M 87.6 43.5 L 94.1 43.5 L 90.8 36.4 L 87.6 43.5 Z " stroke="none" fill="#000"/>  </g>  <g id="Polygon364059">    <path d="M 1.5 14 L 1.5 1.7 L 4.2 1.7 L 4.2 6.6 L 9.1 6.6 L 9.1 1.7 L 11.8 1.7 L 11.8 14 L 9.1 14 L 9.1 9.1 L 4.2 9.1 L 4.2 14 L 1.5 14 Z M 14.8 14 L 14.8 1.7 L 24 1.7 L 24 4.1 L 17.4 4.1 L 17.4 6.6 L 23.2 6.6 L 23.2 9 L 17.4 9 L 17.4 11.6 L 24.1 11.6 L 24.1 14 L 14.8 14 Z M 26.5 14 L 26.5 1.7 C 26.5 1.7 31.5 1.75 31.5 1.7 C 32.9 1.7 34.1 2.1 34.9 2.9 C 35.8 3.7 36.2 4.7 36.2 6 C 36.2 6 36.2 6 36.2 6 C 36.2 7.4 35.7 8.5 34.8 9.2 C 33.9 10 32.7 10.3 31.2 10.3 C 31.24 10.32 29.2 10.3 29.2 10.3 L 29.2 14 L 26.5 14 Z M 29.2 7.9 C 29.2 7.9 31.32 7.93 31.3 7.9 C 32 7.9 32.5 7.8 32.9 7.4 C 33.3 7.1 33.5 6.6 33.5 6.1 C 33.5 6.1 33.5 6 33.5 6 C 33.5 5.4 33.3 5 32.9 4.7 C 32.5 4.3 32 4.2 31.3 4.2 C 31.27 4.18 29.2 4.2 29.2 4.2 L 29.2 7.9 Z M 42.5 14.2 C 40.5 14.2 38.8 13.5 37.3 12.2 C 37.3 12.2 38.9 10.3 38.9 10.3 C 40.2 11.3 41.4 11.8 42.6 11.8 C 43.2 11.8 43.6 11.7 43.9 11.5 C 44.2 11.3 44.4 11 44.4 10.6 C 44.4 10.6 44.4 10.6 44.4 10.6 C 44.4 10.3 44.2 10 43.9 9.7 C 43.5 9.5 42.9 9.3 41.9 9 C 41.2 8.9 40.6 8.7 40.2 8.5 C 39.8 8.4 39.3 8.1 39 7.9 C 38.6 7.6 38.3 7.2 38.1 6.8 C 37.9 6.4 37.8 5.9 37.8 5.3 C 37.8 5.3 37.8 5.3 37.8 5.3 C 37.8 4.2 38.2 3.3 39 2.6 C 39.8 1.9 40.9 1.6 42.1 1.6 C 43.8 1.6 45.4 2.1 46.7 3.1 C 46.7 3.1 45.3 5.2 45.3 5.2 C 44.1 4.4 43 4 42.1 4 C 41.6 4 41.2 4.1 40.9 4.3 C 40.6 4.5 40.5 4.7 40.5 5 C 40.5 5 40.5 5.1 40.5 5.1 C 40.5 5.5 40.7 5.7 41 5.9 C 41.3 6.1 42.1 6.4 43.2 6.7 C 44.5 7 45.5 7.5 46.1 8 C 46.7 8.6 47 9.3 47 10.3 C 47 10.3 47 10.4 47 10.4 C 47 11.6 46.6 12.5 45.8 13.2 C 45 13.8 43.9 14.2 42.5 14.2 Z M 49.5 14 L 49.5 1.7 L 52.2 1.7 L 52.2 14 L 49.5 14 Z M 49.6 0.8 L 49.6 -1.4 L 52.2 -1.4 L 52.2 0.8 L 49.6 0.8 Z M 60.6 14 L 60.6 1.7 L 63.3 1.7 L 63.3 14 L 60.6 14 Z M 60.7 0.8 L 60.7 -1.4 L 63.3 -1.4 L 63.3 0.8 L 60.7 0.8 Z M 71.5 17 L 69.2 16.1 C 69.2 16.1 70.63 14.03 70.6 14 C 69.2 13.7 68.1 13 67.2 11.9 C 66.3 10.7 65.9 9.4 65.9 7.9 C 65.9 7.9 65.9 7.9 65.9 7.9 C 65.9 6.1 66.5 4.6 67.7 3.4 C 68.9 2.2 70.4 1.5 72.2 1.5 C 74.2 1.5 75.8 2.2 77.1 3.4 C 77.1 3.4 75.4 5.4 75.4 5.4 C 74.3 4.5 73.3 4 72.2 4 C 71.2 4 70.4 4.4 69.7 5.1 C 69 5.9 68.7 6.8 68.7 7.8 C 68.7 7.8 68.7 7.9 68.7 7.9 C 68.7 8.9 69 9.9 69.7 10.6 C 70.3 11.4 71.2 11.7 72.2 11.7 C 72.9 11.7 73.4 11.6 73.9 11.4 C 74.4 11.1 74.9 10.8 75.4 10.3 C 75.4 10.3 77.2 12 77.2 12 C 75.9 13.4 74.4 14.1 72.6 14.2 C 72.59 14.19 71.5 17 71.5 17 Z M 79.4 14 L 79.4 1.7 L 82.1 1.7 L 82.1 14 L 79.4 14 Z M 79.5 0.8 L 79.5 -1.4 L 82.1 -1.4 L 82.1 0.8 L 79.5 0.8 Z M 85.2 14 L 85.2 1.7 L 87.7 1.7 L 93.4 9.3 L 93.4 1.7 L 96.1 1.7 L 96.1 14 L 93.8 14 L 87.8 6.2 L 87.8 14 L 85.2 14 Z M 104.3 14 L 104.3 1.7 C 104.3 1.7 109.95 1.75 110 1.7 C 111.4 1.7 112.4 2.1 113.2 2.8 C 113.7 3.4 114 4.1 114 4.9 C 114 4.9 114 5 114 5 C 114 6.2 113.5 7 112.4 7.6 C 113.1 7.9 113.7 8.3 114.1 8.7 C 114.5 9.2 114.7 9.8 114.7 10.6 C 114.7 10.6 114.7 10.6 114.7 10.6 C 114.7 11.7 114.3 12.6 113.5 13.1 C 112.6 13.7 111.5 14 110.1 14 C 110.09 14 104.3 14 104.3 14 Z M 109.4 6.7 C 110.7 6.7 111.3 6.3 111.3 5.4 C 111.3 5.4 111.3 5.4 111.3 5.4 C 111.3 4.5 110.7 4.1 109.5 4.1 C 109.55 4.11 106.9 4.1 106.9 4.1 L 106.9 6.7 L 109.4 6.7 C 109.4 6.7 109.37 6.7 109.4 6.7 Z M 110.1 11.6 C 111.4 11.6 112 11.2 112 10.3 C 112 10.3 112 10.3 112 10.3 C 112 9.4 111.3 8.9 110 8.9 C 110 8.94 106.9 8.9 106.9 8.9 L 106.9 11.6 L 110.1 11.6 C 110.1 11.6 110.09 11.64 110.1 11.6 Z M 117 14 L 117 1.7 L 119.7 1.7 L 119.7 14 L 117 14 Z M 117.1 0.8 L 117.1 -1.4 L 119.7 -1.4 L 119.7 0.8 L 117.1 0.8 Z M 122.8 14 L 122.8 1.7 C 122.8 1.7 128.38 1.75 128.4 1.7 C 129.9 1.7 131.1 2.2 131.9 3 C 132.6 3.7 133 4.6 133 5.8 C 133 5.8 133 5.8 133 5.8 C 133 7.7 132.1 9 130.4 9.6 C 130.37 9.62 133.4 14 133.4 14 L 130.2 14 L 127.6 10.1 L 125.5 10.1 L 125.5 14 L 122.8 14 Z M 125.5 7.7 C 125.5 7.7 128.2 7.7 128.2 7.7 C 128.9 7.7 129.4 7.5 129.7 7.2 C 130.1 6.9 130.3 6.5 130.3 6 C 130.3 6 130.3 5.9 130.3 5.9 C 130.3 5.4 130.1 4.9 129.7 4.6 C 129.3 4.3 128.8 4.2 128.2 4.2 C 128.15 4.18 125.5 4.2 125.5 4.2 L 125.5 7.7 Z M 135.1 7.4 L 135.1 4.6 L 138 4.6 L 138 7.4 L 135.1 7.4 Z M 135.1 14 L 135.1 11.2 L 138 11.2 L 138 14 L 135.1 14 Z " stroke="none" fill="#000"/>  </g></svg>