<?xml version="1.0" standalone="no"?><!DOCTYPE svg PUBLIC "-//W3C//DTD SVG 1.1//EN" "http://www.w3.org/Graphics/SVG/1.1/DTD/svg11.dtd"><svg xmlns="http://www.w3.org/2000/svg" version="1.1" width="193px" height="40.4px" viewBox="0 -3 193 40.4" style="top:-3px">  <desc>r n Kodu: 35040 • Dolu hacim: 2.500 ml • 20 cm, H 13 cm</desc>  <defs/>  <g id="Polygon383387">    <path d="M 2.6 23.9 C 2.6 24.2 2.5 24.4 2.3 24.6 C 2.1 24.8 1.9 24.9 1.7 24.9 C 1.4 24.9 1.2 24.8 1 24.6 C 0.8 24.4 0.8 24.2 0.8 23.9 C 0.8 23.9 0.8 23.9 0.8 23.9 C 0.8 23.7 0.8 23.5 1 23.3 C 1.2 23.1 1.4 23 1.7 23 C 1.9 23 2.1 23.1 2.3 23.3 C 2.5 23.5 2.6 23.7 2.6 23.9 C 2.59 23.93 2.6 23.9 2.6 23.9 C 2.6 23.9 2.59 23.94 2.6 23.9 Z M 10.4 21.5 L 11 21.5 C 11 21.5 10.28 22.23 10.3 22.2 C 10.7 22.7 10.9 23.3 10.9 23.9 C 10.9 23.9 10.9 23.9 10.9 23.9 C 10.9 24.6 10.7 25.2 10.2 25.7 C 9.7 26.2 9.1 26.5 8.4 26.5 C 7.8 26.5 7.3 26.3 6.9 26 C 6.87 25.97 6.4 26.4 6.4 26.4 L 5.9 26.4 C 5.9 26.4 6.55 25.68 6.6 25.7 C 6.1 25.2 5.9 24.6 5.9 24 C 5.9 24 5.9 23.9 5.9 23.9 C 5.9 23.3 6.2 22.7 6.6 22.2 C 7.1 21.7 7.7 21.4 8.4 21.4 C 9 21.4 9.5 21.6 10 21.9 C 9.96 21.93 10.4 21.5 10.4 21.5 Z M 6.5 23.9 C 6.5 23.9 6.5 23.9 6.5 23.9 C 6.5 24.5 6.6 24.9 6.9 25.3 C 6.9 25.3 9.6 22.3 9.6 22.3 C 9.3 22.1 8.9 21.9 8.4 21.9 C 7.9 21.9 7.4 22.1 7 22.5 C 6.7 22.9 6.5 23.4 6.5 23.9 Z M 7.2 25.6 C 7.6 25.8 8 26 8.4 26 C 9 26 9.4 25.8 9.8 25.4 C 10.2 25 10.4 24.5 10.4 24 C 10.4 24 10.4 24 10.4 24 C 10.4 23.5 10.2 23 9.9 22.6 C 9.9 22.63 7.2 25.6 7.2 25.6 C 7.2 25.6 7.22 25.57 7.2 25.6 Z M 13.8 26.4 L 13.8 26 C 13.8 26 15.61 24.4 15.6 24.4 C 16 24.1 16.3 23.8 16.4 23.6 C 16.6 23.3 16.6 23.1 16.6 22.9 C 16.6 22.6 16.5 22.4 16.3 22.2 C 16.2 22 15.9 21.9 15.6 21.9 C 15.4 21.9 15.1 22 14.9 22.1 C 14.7 22.3 14.5 22.5 14.3 22.8 C 14.3 22.8 13.9 22.5 13.9 22.5 C 14.2 22.1 14.4 21.8 14.7 21.7 C 14.9 21.5 15.3 21.4 15.7 21.4 C 16.1 21.4 16.5 21.6 16.8 21.8 C 17.1 22.1 17.2 22.4 17.2 22.8 C 17.2 22.8 17.2 22.8 17.2 22.8 C 17.2 23.2 17.1 23.5 16.9 23.7 C 16.8 24 16.4 24.3 16 24.7 C 15.97 24.73 14.7 25.9 14.7 25.9 L 17.3 25.9 L 17.3 26.4 L 13.8 26.4 Z M 22.3 23.9 C 22.3 24.7 22.1 25.3 21.7 25.7 C 21.3 26.2 20.8 26.5 20.2 26.5 C 19.6 26.5 19.1 26.2 18.7 25.8 C 18.3 25.3 18.1 24.7 18.1 24 C 18.1 24 18.1 23.9 18.1 23.9 C 18.1 23.2 18.3 22.6 18.7 22.2 C 19.1 21.7 19.6 21.4 20.2 21.4 C 20.8 21.4 21.3 21.7 21.7 22.1 C 22.1 22.6 22.3 23.2 22.3 23.9 C 22.26 23.94 22.3 23.9 22.3 23.9 C 22.3 23.9 22.26 23.95 22.3 23.9 Z M 18.7 23.9 C 18.7 24.5 18.8 25 19.1 25.4 C 19.4 25.8 19.8 26 20.2 26 C 20.6 26 21 25.8 21.3 25.4 C 21.6 25 21.7 24.5 21.7 24 C 21.7 24 21.7 23.9 21.7 23.9 C 21.7 23.4 21.5 22.9 21.3 22.5 C 21 22.1 20.6 21.9 20.2 21.9 C 19.7 21.9 19.4 22.1 19.1 22.5 C 18.8 22.9 18.7 23.4 18.7 23.9 C 18.7 23.94 18.7 23.9 18.7 23.9 C 18.7 23.9 18.7 23.95 18.7 23.9 Z M 28.5 25.8 C 28.1 26.3 27.6 26.5 27 26.5 C 26.5 26.5 26.1 26.3 25.7 25.9 C 25.3 25.6 25.2 25.1 25.2 24.6 C 25.2 24.6 25.2 24.6 25.2 24.6 C 25.2 24.1 25.3 23.6 25.7 23.3 C 26.1 22.9 26.5 22.7 27 22.7 C 27.6 22.7 28.1 22.9 28.5 23.3 C 28.5 23.3 28.1 23.7 28.1 23.7 C 27.8 23.4 27.4 23.2 27 23.2 C 26.7 23.2 26.3 23.3 26.1 23.6 C 25.8 23.9 25.7 24.2 25.7 24.6 C 25.7 24.6 25.7 24.6 25.7 24.6 C 25.7 25 25.9 25.3 26.1 25.6 C 26.4 25.9 26.7 26 27.1 26 C 27.5 26 27.8 25.8 28.2 25.5 C 28.16 25.46 28.5 25.8 28.5 25.8 C 28.5 25.8 28.5 25.78 28.5 25.8 Z M 29.4 26.4 L 29.4 22.8 L 29.9 22.8 C 29.9 22.8 29.93 23.39 29.9 23.4 C 30.1 23.2 30.2 23 30.4 22.9 C 30.6 22.8 30.8 22.7 31.1 22.7 C 31.6 22.7 32 22.9 32.3 23.4 C 32.6 22.9 33 22.7 33.5 22.7 C 34 22.7 34.3 22.8 34.5 23.1 C 34.8 23.4 34.9 23.7 34.9 24.2 C 34.88 24.16 34.9 26.4 34.9 26.4 L 34.3 26.4 C 34.3 26.4 34.34 24.29 34.3 24.3 C 34.3 23.9 34.3 23.7 34.1 23.5 C 33.9 23.3 33.7 23.2 33.4 23.2 C 33.1 23.2 32.9 23.3 32.7 23.5 C 32.5 23.7 32.4 24 32.4 24.3 C 32.4 24.31 32.4 26.4 32.4 26.4 L 31.9 26.4 C 31.9 26.4 31.87 24.27 31.9 24.3 C 31.9 23.9 31.8 23.7 31.6 23.5 C 31.5 23.3 31.2 23.2 30.9 23.2 C 30.7 23.2 30.4 23.3 30.2 23.5 C 30 23.7 29.9 24 29.9 24.3 C 29.93 24.33 29.9 26.4 29.9 26.4 L 29.4 26.4 Z M 35.8 27.3 C 35.8 27.3 35.7 27 35.7 27 C 36.1 26.9 36.2 26.7 36.2 26.4 C 36.22 26.4 36 26.4 36 26.4 L 36 25.7 L 36.6 25.7 C 36.6 25.7 36.61 26.29 36.6 26.3 C 36.6 26.6 36.5 26.8 36.4 26.9 C 36.3 27.1 36.1 27.2 35.8 27.3 Z M 39.9 26.4 L 39.9 21.5 L 40.5 21.5 L 40.5 23.7 L 43.3 23.7 L 43.3 21.5 L 43.9 21.5 L 43.9 26.4 L 43.3 26.4 L 43.3 24.2 L 40.5 24.2 L 40.5 26.4 L 39.9 26.4 Z M 47.9 26.4 L 47.9 22 L 47 22.3 L 46.9 21.9 L 48.1 21.5 L 48.5 21.5 L 48.5 26.4 L 47.9 26.4 Z M 51.3 26.5 C 50.6 26.5 50 26.2 49.5 25.6 C 49.5 25.6 49.9 25.3 49.9 25.3 C 50.3 25.7 50.8 26 51.4 26 C 51.7 26 51.9 25.9 52.1 25.7 C 52.3 25.5 52.4 25.3 52.4 25 C 52.4 25 52.4 25 52.4 25 C 52.4 24.7 52.3 24.5 52 24.3 C 51.8 24.2 51.5 24.1 51.1 24.1 C 51.05 24.07 50.7 24.1 50.7 24.1 L 50.6 23.7 L 52.2 22 L 49.8 22 L 49.8 21.5 L 52.9 21.5 L 52.9 21.9 C 52.9 21.9 51.37 23.61 51.4 23.6 C 51.8 23.7 52.2 23.8 52.5 24 C 52.8 24.2 53 24.6 53 25 C 53 25 53 25 53 25 C 53 25.4 52.8 25.8 52.5 26.1 C 52.2 26.3 51.8 26.5 51.3 26.5 Z M 59.3 25.8 C 58.9 26.3 58.4 26.5 57.8 26.5 C 57.3 26.5 56.8 26.3 56.5 25.9 C 56.1 25.6 55.9 25.1 55.9 24.6 C 55.9 24.6 55.9 24.6 55.9 24.6 C 55.9 24.1 56.1 23.6 56.5 23.3 C 56.8 22.9 57.3 22.7 57.8 22.7 C 58.4 22.7 58.8 22.9 59.2 23.3 C 59.2 23.3 58.9 23.7 58.9 23.7 C 58.5 23.4 58.2 23.2 57.8 23.2 C 57.4 23.2 57.1 23.3 56.9 23.6 C 56.6 23.9 56.5 24.2 56.5 24.6 C 56.5 24.6 56.5 24.6 56.5 24.6 C 56.5 25 56.6 25.3 56.9 25.6 C 57.1 25.9 57.4 26 57.8 26 C 58.2 26 58.6 25.8 58.9 25.5 C 58.93 25.46 59.3 25.8 59.3 25.8 C 59.3 25.8 59.27 25.78 59.3 25.8 Z M 60.2 26.4 L 60.2 22.8 L 60.7 22.8 C 60.7 22.8 60.7 23.39 60.7 23.4 C 60.8 23.2 61 23 61.2 22.9 C 61.4 22.8 61.6 22.7 61.9 22.7 C 62.4 22.7 62.8 22.9 63 23.4 C 63.3 22.9 63.8 22.7 64.3 22.7 C 64.7 22.7 65.1 22.8 65.3 23.1 C 65.5 23.4 65.6 23.7 65.6 24.2 C 65.65 24.16 65.6 26.4 65.6 26.4 L 65.1 26.4 C 65.1 26.4 65.11 24.29 65.1 24.3 C 65.1 23.9 65 23.7 64.9 23.5 C 64.7 23.3 64.5 23.2 64.2 23.2 C 63.9 23.2 63.7 23.3 63.5 23.5 C 63.3 23.7 63.2 24 63.2 24.3 C 63.17 24.31 63.2 26.4 63.2 26.4 L 62.6 26.4 C 62.6 26.4 62.64 24.27 62.6 24.3 C 62.6 23.9 62.6 23.7 62.4 23.5 C 62.2 23.3 62 23.2 61.7 23.2 C 61.4 23.2 61.2 23.3 61 23.5 C 60.8 23.7 60.7 24 60.7 24.3 C 60.7 24.33 60.7 26.4 60.7 26.4 L 60.2 26.4 Z " stroke="none" fill="#000"/>  </g>  <g id="Polygon383386">    <path d="M 2.6 13.5 C 2.6 13.8 2.5 14 2.3 14.2 C 2.1 14.4 1.9 14.5 1.7 14.5 C 1.4 14.5 1.2 14.4 1 14.2 C 0.8 14 0.8 13.8 0.8 13.5 C 0.8 13.5 0.8 13.5 0.8 13.5 C 0.8 13.3 0.8 13.1 1 12.9 C 1.2 12.7 1.4 12.6 1.7 12.6 C 1.9 12.6 2.1 12.7 2.3 12.9 C 2.5 13.1 2.6 13.3 2.6 13.5 C 2.59 13.53 2.6 13.5 2.6 13.5 C 2.6 13.5 2.59 13.54 2.6 13.5 Z M 6.1 16 L 6.1 11.1 C 6.1 11.1 7.84 11.1 7.8 11.1 C 8.6 11.1 9.2 11.3 9.7 11.8 C 10.2 12.3 10.4 12.8 10.4 13.5 C 10.4 13.5 10.4 13.5 10.4 13.5 C 10.4 14.2 10.2 14.8 9.7 15.3 C 9.2 15.8 8.6 16 7.8 16 C 7.84 16 6.1 16 6.1 16 Z M 7.8 11.6 C 7.84 11.61 6.7 11.6 6.7 11.6 L 6.7 15.5 C 6.7 15.5 7.84 15.49 7.8 15.5 C 8.5 15.5 8.9 15.3 9.3 14.9 C 9.7 14.6 9.9 14.1 9.9 13.6 C 9.9 13.6 9.9 13.5 9.9 13.5 C 9.9 13 9.7 12.5 9.3 12.2 C 8.9 11.8 8.4 11.6 7.8 11.6 Z M 13.2 16.1 C 12.6 16.1 12.2 15.9 11.8 15.5 C 11.5 15.2 11.3 14.7 11.3 14.2 C 11.3 14.2 11.3 14.2 11.3 14.2 C 11.3 13.7 11.5 13.2 11.8 12.9 C 12.2 12.5 12.6 12.3 13.2 12.3 C 13.7 12.3 14.2 12.5 14.5 12.9 C 14.9 13.2 15.1 13.7 15.1 14.2 C 15.1 14.2 15.1 14.2 15.1 14.2 C 15.1 14.7 14.9 15.2 14.5 15.5 C 14.2 15.9 13.7 16.1 13.2 16.1 Z M 13.2 15.6 C 13.6 15.6 13.9 15.5 14.1 15.2 C 14.4 14.9 14.5 14.6 14.5 14.2 C 14.5 14.2 14.5 14.2 14.5 14.2 C 14.5 13.8 14.4 13.5 14.1 13.2 C 13.9 12.9 13.6 12.8 13.2 12.8 C 12.8 12.8 12.5 12.9 12.2 13.2 C 12 13.5 11.9 13.8 11.9 14.2 C 11.9 14.2 11.9 14.2 11.9 14.2 C 11.9 14.6 12 14.9 12.2 15.2 C 12.5 15.5 12.8 15.6 13.2 15.6 Z M 16.1 16 L 16.1 10.9 L 16.6 10.9 L 16.6 16 L 16.1 16 Z M 20.5 15.4 C 20.2 15.8 19.7 16.1 19.2 16.1 C 18.8 16.1 18.4 15.9 18.2 15.7 C 18 15.4 17.8 15.1 17.8 14.6 C 17.83 14.63 17.8 12.4 17.8 12.4 L 18.4 12.4 C 18.4 12.4 18.37 14.49 18.4 14.5 C 18.4 14.8 18.5 15.1 18.6 15.3 C 18.8 15.5 19.1 15.6 19.4 15.6 C 19.7 15.6 19.9 15.5 20.1 15.3 C 20.4 15.1 20.5 14.8 20.5 14.5 C 20.45 14.45 20.5 12.4 20.5 12.4 L 21 12.4 L 21 16 L 20.5 16 L 20.5 15.4 C 20.5 15.4 20.45 15.37 20.5 15.4 Z M 24.3 16 L 24.3 10.9 L 24.8 10.9 C 24.8 10.9 24.84 13.01 24.8 13 C 25.1 12.5 25.5 12.3 26.1 12.3 C 26.5 12.3 26.8 12.4 27.1 12.7 C 27.3 13 27.5 13.3 27.5 13.8 C 27.46 13.75 27.5 16 27.5 16 L 26.9 16 C 26.9 16 26.92 13.89 26.9 13.9 C 26.9 13.5 26.8 13.3 26.7 13.1 C 26.5 12.9 26.2 12.8 25.9 12.8 C 25.6 12.8 25.3 12.9 25.1 13.1 C 24.9 13.3 24.8 13.6 24.8 13.9 C 24.84 13.93 24.8 16 24.8 16 L 24.3 16 Z M 31 15.5 C 30.7 15.9 30.2 16.1 29.7 16.1 C 29.3 16.1 29 16 28.7 15.8 C 28.5 15.6 28.3 15.3 28.3 14.9 C 28.3 14.9 28.3 14.9 28.3 14.9 C 28.3 14.6 28.5 14.3 28.8 14.1 C 29 13.9 29.4 13.8 29.9 13.8 C 30.3 13.8 30.6 13.8 31 13.9 C 31 13.9 31 13.8 31 13.8 C 31 13.5 30.9 13.2 30.7 13.1 C 30.5 12.9 30.3 12.8 29.9 12.8 C 29.6 12.8 29.2 12.9 28.8 13.1 C 28.8 13.1 28.7 12.6 28.7 12.6 C 29.1 12.4 29.5 12.3 30 12.3 C 30.5 12.3 30.9 12.5 31.1 12.7 C 31.4 13 31.5 13.3 31.5 13.8 C 31.51 13.79 31.5 16 31.5 16 L 31 16 L 31 15.5 C 31 15.5 31 15.45 31 15.5 Z M 29.8 15.6 C 30.1 15.6 30.4 15.6 30.7 15.4 C 30.9 15.2 31 15 31 14.7 C 31 14.7 31 14.3 31 14.3 C 30.6 14.2 30.3 14.2 29.9 14.2 C 29.6 14.2 29.3 14.2 29.2 14.4 C 29 14.5 28.9 14.7 28.9 14.9 C 28.9 14.9 28.9 14.9 28.9 14.9 C 28.9 15.1 29 15.3 29.1 15.5 C 29.3 15.6 29.5 15.6 29.8 15.6 Z M 35.8 15.4 C 35.4 15.9 34.9 16.1 34.3 16.1 C 33.8 16.1 33.3 15.9 33 15.5 C 32.6 15.2 32.4 14.7 32.4 14.2 C 32.4 14.2 32.4 14.2 32.4 14.2 C 32.4 13.7 32.6 13.2 33 12.9 C 33.3 12.5 33.8 12.3 34.3 12.3 C 34.9 12.3 35.3 12.5 35.7 12.9 C 35.7 12.9 35.4 13.3 35.4 13.3 C 35 13 34.7 12.8 34.3 12.8 C 33.9 12.8 33.6 12.9 33.4 13.2 C 33.1 13.5 33 13.8 33 14.2 C 33 14.2 33 14.2 33 14.2 C 33 14.6 33.1 14.9 33.4 15.2 C 33.6 15.5 33.9 15.6 34.3 15.6 C 34.7 15.6 35.1 15.4 35.4 15.1 C 35.43 15.06 35.8 15.4 35.8 15.4 C 35.8 15.4 35.77 15.38 35.8 15.4 Z M 36.7 11.6 L 36.7 11 L 37.3 11 L 37.3 11.6 L 36.7 11.6 Z M 36.7 16 L 36.7 12.4 L 37.2 12.4 L 37.2 16 L 36.7 16 Z M 38.5 16 L 38.5 12.4 L 39 12.4 C 39 12.4 39.04 12.99 39 13 C 39.2 12.8 39.3 12.6 39.5 12.5 C 39.7 12.4 39.9 12.3 40.2 12.3 C 40.8 12.3 41.1 12.5 41.4 13 C 41.7 12.5 42.1 12.3 42.6 12.3 C 43.1 12.3 43.4 12.4 43.6 12.7 C 43.9 13 44 13.3 44 13.8 C 43.99 13.76 44 16 44 16 L 43.4 16 C 43.4 16 43.45 13.89 43.4 13.9 C 43.4 13.5 43.4 13.3 43.2 13.1 C 43 12.9 42.8 12.8 42.5 12.8 C 42.2 12.8 42 12.9 41.8 13.1 C 41.6 13.3 41.5 13.6 41.5 13.9 C 41.51 13.91 41.5 16 41.5 16 L 41 16 C 41 16 40.98 13.87 41 13.9 C 41 13.5 40.9 13.3 40.7 13.1 C 40.6 12.9 40.3 12.8 40 12.8 C 39.8 12.8 39.5 12.9 39.3 13.1 C 39.1 13.3 39 13.6 39 13.9 C 39.04 13.93 39 16 39 16 L 38.5 16 Z M 45.1 13.1 L 45.1 12.4 L 45.7 12.4 L 45.7 13.1 L 45.1 13.1 Z M 45.1 16 L 45.1 15.3 L 45.7 15.3 L 45.7 16 L 45.1 16 Z M 48.7 16 L 48.7 15.6 C 48.7 15.6 50.53 14 50.5 14 C 50.9 13.7 51.2 13.4 51.3 13.2 C 51.5 12.9 51.5 12.7 51.5 12.5 C 51.5 12.2 51.5 12 51.3 11.8 C 51.1 11.6 50.8 11.5 50.6 11.5 C 50.3 11.5 50.1 11.6 49.9 11.7 C 49.7 11.9 49.4 12.1 49.2 12.4 C 49.2 12.4 48.8 12.1 48.8 12.1 C 49.1 11.7 49.3 11.4 49.6 11.3 C 49.9 11.1 50.2 11 50.6 11 C 51 11 51.4 11.2 51.7 11.4 C 52 11.7 52.1 12 52.1 12.4 C 52.1 12.4 52.1 12.4 52.1 12.4 C 52.1 12.8 52 13.1 51.8 13.3 C 51.7 13.6 51.3 13.9 50.9 14.3 C 50.88 14.33 49.6 15.5 49.6 15.5 L 52.2 15.5 L 52.2 16 L 48.7 16 Z M 53.1 16 L 53.1 15.3 L 53.8 15.3 L 53.8 16 L 53.1 16 Z M 56.4 16.1 C 55.8 16.1 55.2 15.8 54.7 15.3 C 54.7 15.3 55 14.9 55 14.9 C 55.5 15.4 56 15.6 56.4 15.6 C 56.8 15.6 57.1 15.5 57.3 15.3 C 57.5 15.1 57.6 14.8 57.6 14.5 C 57.6 14.5 57.6 14.5 57.6 14.5 C 57.6 14.2 57.5 13.9 57.3 13.7 C 57.1 13.5 56.8 13.5 56.4 13.5 C 56.1 13.5 55.7 13.5 55.4 13.7 C 55.38 13.73 55 13.5 55 13.5 L 55.1 11.1 L 58 11.1 L 58 11.6 L 55.6 11.6 C 55.6 11.6 55.52 13.18 55.5 13.2 C 55.8 13 56.2 13 56.5 13 C 57 13 57.4 13.1 57.7 13.4 C 58 13.6 58.2 14 58.2 14.5 C 58.2 14.5 58.2 14.5 58.2 14.5 C 58.2 14.9 58 15.3 57.7 15.6 C 57.4 15.9 57 16.1 56.4 16.1 Z M 63.2 13.5 C 63.2 14.3 63 14.9 62.6 15.3 C 62.2 15.8 61.7 16.1 61.1 16.1 C 60.5 16.1 60 15.8 59.6 15.4 C 59.2 14.9 59 14.3 59 13.6 C 59 13.6 59 13.5 59 13.5 C 59 12.8 59.2 12.2 59.6 11.8 C 60 11.3 60.5 11 61.1 11 C 61.7 11 62.2 11.3 62.6 11.7 C 63 12.2 63.2 12.8 63.2 13.5 C 63.17 13.54 63.2 13.5 63.2 13.5 C 63.2 13.5 63.17 13.55 63.2 13.5 Z M 59.6 13.5 C 59.6 14.1 59.7 14.6 60 15 C 60.3 15.4 60.7 15.6 61.1 15.6 C 61.6 15.6 61.9 15.4 62.2 15 C 62.5 14.6 62.6 14.1 62.6 13.6 C 62.6 13.6 62.6 13.5 62.6 13.5 C 62.6 13 62.5 12.5 62.2 12.1 C 61.9 11.7 61.5 11.5 61.1 11.5 C 60.7 11.5 60.3 11.7 60 12.1 C 59.7 12.5 59.6 13 59.6 13.5 C 59.6 13.54 59.6 13.5 59.6 13.5 C 59.6 13.5 59.6 13.55 59.6 13.5 Z M 68.2 13.5 C 68.2 14.3 68 14.9 67.6 15.3 C 67.2 15.8 66.7 16.1 66.1 16.1 C 65.5 16.1 65 15.8 64.6 15.4 C 64.2 14.9 64 14.3 64 13.6 C 64 13.6 64 13.5 64 13.5 C 64 12.8 64.2 12.2 64.6 11.8 C 65 11.3 65.5 11 66.1 11 C 66.7 11 67.2 11.3 67.6 11.7 C 68 12.2 68.2 12.8 68.2 13.5 C 68.17 13.54 68.2 13.5 68.2 13.5 C 68.2 13.5 68.17 13.55 68.2 13.5 Z M 64.6 13.5 C 64.6 14.1 64.7 14.6 65 15 C 65.3 15.4 65.7 15.6 66.1 15.6 C 66.6 15.6 66.9 15.4 67.2 15 C 67.5 14.6 67.6 14.1 67.6 13.6 C 67.6 13.6 67.6 13.5 67.6 13.5 C 67.6 13 67.5 12.5 67.2 12.1 C 66.9 11.7 66.5 11.5 66.1 11.5 C 65.7 11.5 65.3 11.7 65 12.1 C 64.7 12.5 64.6 13 64.6 13.5 C 64.61 13.54 64.6 13.5 64.6 13.5 C 64.6 13.5 64.61 13.55 64.6 13.5 Z M 71.3 16 L 71.3 12.4 L 71.8 12.4 C 71.8 12.4 71.85 12.99 71.8 13 C 72 12.8 72.2 12.6 72.3 12.5 C 72.5 12.4 72.7 12.3 73 12.3 C 73.6 12.3 73.9 12.5 74.2 13 C 74.5 12.5 74.9 12.3 75.5 12.3 C 75.9 12.3 76.2 12.4 76.4 12.7 C 76.7 13 76.8 13.3 76.8 13.8 C 76.8 13.76 76.8 16 76.8 16 L 76.3 16 C 76.3 16 76.26 13.89 76.3 13.9 C 76.3 13.5 76.2 13.3 76 13.1 C 75.8 12.9 75.6 12.8 75.3 12.8 C 75 12.8 74.8 12.9 74.6 13.1 C 74.4 13.3 74.3 13.6 74.3 13.9 C 74.32 13.91 74.3 16 74.3 16 L 73.8 16 C 73.8 16 73.79 13.87 73.8 13.9 C 73.8 13.5 73.7 13.3 73.5 13.1 C 73.4 12.9 73.1 12.8 72.9 12.8 C 72.6 12.8 72.3 12.9 72.1 13.1 C 71.9 13.3 71.8 13.6 71.8 13.9 C 71.85 13.93 71.8 16 71.8 16 L 71.3 16 Z M 78 16 L 78 10.9 L 78.5 10.9 L 78.5 16 L 78 16 Z " stroke="none" fill="#000"/>  </g>  <g id="Polygon383385">    <path d="M 3 0.3 L 3 -0.4 L 3.6 -0.4 L 3.6 0.3 L 3 0.3 Z M 1.7 0.3 L 1.7 -0.4 L 2.3 -0.4 L 2.3 0.3 L 1.7 0.3 Z M 2.7 5.7 C 2 5.7 1.5 5.5 1.2 5.1 C 0.8 4.7 0.6 4.2 0.6 3.5 C 0.62 3.55 0.6 0.7 0.6 0.7 L 1.2 0.7 C 1.2 0.7 1.17 3.51 1.2 3.5 C 1.2 4 1.3 4.4 1.6 4.7 C 1.8 5 2.2 5.2 2.7 5.2 C 3.1 5.2 3.5 5 3.8 4.8 C 4 4.5 4.1 4.1 4.1 3.5 C 4.14 3.55 4.1 0.7 4.1 0.7 L 4.7 0.7 C 4.7 0.7 4.7 3.51 4.7 3.5 C 4.7 4.2 4.5 4.7 4.1 5.1 C 3.8 5.5 3.3 5.7 2.7 5.7 Z M 5.9 5.6 L 5.9 2 L 6.5 2 C 6.5 2 6.45 2.93 6.5 2.9 C 6.6 2.6 6.8 2.4 7 2.2 C 7.3 2 7.6 1.9 7.9 1.9 C 7.93 1.92 7.9 2.5 7.9 2.5 C 7.9 2.5 7.89 2.5 7.9 2.5 C 7.5 2.5 7.1 2.6 6.9 2.9 C 6.6 3.2 6.5 3.6 6.5 4.2 C 6.45 4.16 6.5 5.6 6.5 5.6 L 5.9 5.6 Z M 10.6 1.4 L 10.6 0.8 L 11.2 0.8 L 11.2 1.4 L 10.6 1.4 Z M 9.3 1.4 L 9.3 0.8 L 10 0.8 L 10 1.4 L 9.3 1.4 Z M 11.3 5 C 11 5.4 10.6 5.7 10.1 5.7 C 9.7 5.7 9.3 5.5 9.1 5.3 C 8.8 5 8.7 4.7 8.7 4.2 C 8.69 4.23 8.7 2 8.7 2 L 9.2 2 C 9.2 2 9.23 4.09 9.2 4.1 C 9.2 4.4 9.3 4.7 9.5 4.9 C 9.7 5.1 9.9 5.2 10.2 5.2 C 10.5 5.2 10.8 5.1 11 4.9 C 11.2 4.7 11.3 4.4 11.3 4.1 C 11.32 4.05 11.3 2 11.3 2 L 11.9 2 L 11.9 5.6 L 11.3 5.6 L 11.3 5 C 11.3 5 11.32 4.97 11.3 5 Z M 13.1 5.6 L 13.1 2 L 13.6 2 C 13.6 2 13.6 2.61 13.6 2.6 C 13.9 2.1 14.3 1.9 14.8 1.9 C 15.3 1.9 15.6 2 15.9 2.3 C 16.1 2.6 16.2 2.9 16.2 3.4 C 16.23 3.35 16.2 5.6 16.2 5.6 L 15.7 5.6 C 15.7 5.6 15.69 3.49 15.7 3.5 C 15.7 3.1 15.6 2.9 15.4 2.7 C 15.2 2.5 15 2.4 14.7 2.4 C 14.4 2.4 14.1 2.5 13.9 2.7 C 13.7 2.9 13.6 3.2 13.6 3.5 C 13.6 3.53 13.6 5.6 13.6 5.6 L 13.1 5.6 Z M 19.6 5.6 L 19.6 0.7 L 20.1 0.7 L 20.1 3.6 L 22.9 0.7 L 23.7 0.7 L 21.5 2.8 L 23.7 5.6 L 23 5.6 L 21.2 3.2 L 20.1 4.3 L 20.1 5.6 L 19.6 5.6 Z M 25.9 5.7 C 25.4 5.7 25 5.5 24.6 5.1 C 24.3 4.8 24.1 4.3 24.1 3.8 C 24.1 3.8 24.1 3.8 24.1 3.8 C 24.1 3.3 24.3 2.8 24.6 2.5 C 25 2.1 25.4 1.9 26 1.9 C 26.5 1.9 26.9 2.1 27.3 2.5 C 27.7 2.8 27.8 3.3 27.8 3.8 C 27.8 3.8 27.8 3.8 27.8 3.8 C 27.8 4.3 27.7 4.8 27.3 5.1 C 26.9 5.5 26.5 5.7 25.9 5.7 Z M 26 5.2 C 26.3 5.2 26.7 5.1 26.9 4.8 C 27.2 4.5 27.3 4.2 27.3 3.8 C 27.3 3.8 27.3 3.8 27.3 3.8 C 27.3 3.4 27.2 3.1 26.9 2.8 C 26.6 2.5 26.3 2.4 25.9 2.4 C 25.6 2.4 25.2 2.5 25 2.8 C 24.8 3.1 24.6 3.4 24.6 3.8 C 24.6 3.8 24.6 3.8 24.6 3.8 C 24.6 4.2 24.8 4.5 25 4.8 C 25.3 5.1 25.6 5.2 26 5.2 Z M 31.7 4.9 C 31.4 5.4 30.9 5.7 30.3 5.7 C 29.9 5.7 29.5 5.5 29.1 5.2 C 28.8 4.8 28.6 4.4 28.6 3.8 C 28.6 3.8 28.6 3.8 28.6 3.8 C 28.6 3.2 28.8 2.8 29.1 2.4 C 29.5 2.1 29.9 1.9 30.3 1.9 C 30.9 1.9 31.4 2.2 31.7 2.7 C 31.72 2.67 31.7 0.5 31.7 0.5 L 32.3 0.5 L 32.3 5.6 L 31.7 5.6 L 31.7 4.9 C 31.7 4.9 31.72 4.87 31.7 4.9 Z M 30.4 5.2 C 30.8 5.2 31.1 5.1 31.4 4.8 C 31.6 4.5 31.7 4.2 31.7 3.8 C 31.7 3.8 31.7 3.8 31.7 3.8 C 31.7 3.4 31.6 3 31.4 2.8 C 31.1 2.5 30.8 2.4 30.4 2.4 C 30.1 2.4 29.8 2.5 29.5 2.8 C 29.3 3 29.2 3.4 29.2 3.8 C 29.2 3.8 29.2 3.8 29.2 3.8 C 29.2 4.2 29.3 4.6 29.5 4.8 C 29.8 5.1 30.1 5.2 30.4 5.2 Z M 36 5 C 35.7 5.4 35.3 5.7 34.8 5.7 C 34.4 5.7 34 5.5 33.8 5.3 C 33.5 5 33.4 4.7 33.4 4.2 C 33.41 4.23 33.4 2 33.4 2 L 33.9 2 C 33.9 2 33.95 4.09 33.9 4.1 C 33.9 4.4 34 4.7 34.2 4.9 C 34.4 5.1 34.6 5.2 35 5.2 C 35.3 5.2 35.5 5.1 35.7 4.9 C 35.9 4.7 36 4.4 36 4.1 C 36.04 4.05 36 2 36 2 L 36.6 2 L 36.6 5.6 L 36 5.6 L 36 5 C 36 5 36.04 4.97 36 5 Z M 37.7 2.7 L 37.7 2 L 38.4 2 L 38.4 2.7 L 37.7 2.7 Z M 37.7 5.6 L 37.7 4.9 L 38.4 4.9 L 38.4 5.6 L 37.7 5.6 Z M 43.2 5.7 C 42.4 5.7 41.8 5.4 41.3 4.8 C 41.3 4.8 42.1 4.1 42.1 4.1 C 42.4 4.5 42.8 4.7 43.2 4.7 C 43.5 4.7 43.6 4.7 43.7 4.6 C 43.9 4.4 43.9 4.3 43.9 4.1 C 43.9 4.1 43.9 4.1 43.9 4.1 C 43.9 3.9 43.9 3.8 43.7 3.6 C 43.5 3.5 43.3 3.5 43 3.5 C 42.98 3.49 42.5 3.5 42.5 3.5 L 42.4 2.8 L 43.5 1.6 L 41.6 1.6 L 41.6 0.7 L 44.9 0.7 L 44.9 1.5 C 44.9 1.5 43.68 2.69 43.7 2.7 C 44.6 2.8 45 3.3 45 4.1 C 45 4.1 45 4.1 45 4.1 C 45 4.6 44.8 4.9 44.5 5.2 C 44.2 5.5 43.8 5.7 43.2 5.7 Z M 47.5 5.7 C 46.8 5.7 46.2 5.4 45.7 4.9 C 45.7 4.9 46.3 4.2 46.3 4.2 C 46.7 4.5 47.1 4.7 47.5 4.7 C 47.7 4.7 47.9 4.6 48.1 4.5 C 48.2 4.4 48.3 4.2 48.3 4 C 48.3 4 48.3 4 48.3 4 C 48.3 3.8 48.2 3.6 48.1 3.5 C 47.9 3.4 47.7 3.3 47.4 3.3 C 47.2 3.3 46.9 3.4 46.6 3.5 C 46.62 3.53 46 3.1 46 3.1 L 46.1 0.7 L 49.1 0.7 L 49.1 1.6 L 47.1 1.6 C 47.1 1.6 47 2.49 47 2.5 C 47.2 2.4 47.4 2.4 47.6 2.4 C 48.2 2.4 48.6 2.5 48.9 2.8 C 49.2 3.1 49.4 3.5 49.4 4 C 49.4 4 49.4 4 49.4 4 C 49.4 4.5 49.2 4.9 48.9 5.2 C 48.5 5.5 48.1 5.7 47.5 5.7 Z M 52.3 5.7 C 51.7 5.7 51.2 5.4 50.8 5 C 50.4 4.5 50.2 3.9 50.2 3.2 C 50.2 3.2 50.2 3.1 50.2 3.1 C 50.2 2.4 50.4 1.8 50.8 1.3 C 51.2 0.9 51.7 0.6 52.3 0.6 C 53 0.6 53.5 0.9 53.9 1.3 C 54.3 1.8 54.5 2.4 54.5 3.1 C 54.5 3.1 54.5 3.1 54.5 3.1 C 54.5 3.9 54.3 4.5 53.9 5 C 53.5 5.4 53 5.7 52.3 5.7 Z M 51.3 3.1 C 51.3 3.6 51.4 4 51.6 4.3 C 51.8 4.6 52 4.7 52.3 4.7 C 52.7 4.7 52.9 4.6 53.1 4.3 C 53.3 4 53.4 3.6 53.4 3.2 C 53.4 3.2 53.4 3.1 53.4 3.1 C 53.4 2.7 53.3 2.3 53.1 2 C 52.9 1.7 52.6 1.6 52.3 1.6 C 52 1.6 51.8 1.7 51.6 2 C 51.4 2.3 51.3 2.7 51.3 3.1 C 51.26 3.14 51.3 3.1 51.3 3.1 C 51.3 3.1 51.26 3.15 51.3 3.1 Z M 57.7 5.6 L 57.7 4.5 L 55.3 4.5 L 55.1 3.8 L 57.8 0.7 L 58.7 0.7 L 58.7 3.7 L 59.4 3.7 L 59.4 4.5 L 58.7 4.5 L 58.7 5.6 L 57.7 5.6 Z M 56.4 3.7 L 57.7 3.7 L 57.7 2.1 L 56.4 3.7 Z M 62.3 5.7 C 61.6 5.7 61.1 5.4 60.7 5 C 60.3 4.5 60.1 3.9 60.1 3.2 C 60.1 3.2 60.1 3.1 60.1 3.1 C 60.1 2.4 60.3 1.8 60.7 1.3 C 61.1 0.9 61.6 0.6 62.3 0.6 C 62.9 0.6 63.4 0.9 63.8 1.3 C 64.2 1.8 64.4 2.4 64.4 3.1 C 64.4 3.1 64.4 3.1 64.4 3.1 C 64.4 3.9 64.2 4.5 63.8 5 C 63.4 5.4 62.9 5.7 62.3 5.7 Z M 61.2 3.1 C 61.2 3.6 61.3 4 61.5 4.3 C 61.7 4.6 61.9 4.7 62.3 4.7 C 62.6 4.7 62.9 4.6 63 4.3 C 63.2 4 63.3 3.6 63.3 3.2 C 63.3 3.2 63.3 3.1 63.3 3.1 C 63.3 2.7 63.2 2.3 63 2 C 62.8 1.7 62.6 1.6 62.3 1.6 C 61.9 1.6 61.7 1.7 61.5 2 C 61.3 2.3 61.2 2.7 61.2 3.1 C 61.19 3.14 61.2 3.1 61.2 3.1 C 61.2 3.1 61.19 3.15 61.2 3.1 Z " stroke="none" fill="#000"/>  </g></svg>