<?xml version="1.0" standalone="no"?><!DOCTYPE svg PUBLIC "-//W3C//DTD SVG 1.1//EN" "http://www.w3.org/Graphics/SVG/1.1/DTD/svg11.dtd"><svg xmlns="http://www.w3.org/2000/svg" version="1.1" width="62.1px" height="19.6px" viewBox="0 -1 62.1 19.6" style="top:-1px">  <desc>F YAT SORUN</desc>  <defs/>  <g id="Polygon363563">    <path d="M 6.5 11 L 6.5 6 L 10.2 6 L 10.2 6.8 L 7.4 6.8 L 7.4 8.2 L 9.9 8.2 L 9.9 9 L 7.4 9 L 7.4 11 L 6.5 11 Z M 11.2 11 L 11.2 6 L 12.1 6 L 12.1 11 L 11.2 11 Z M 11.2 5.6 L 11.2 4.8 L 12.2 4.8 L 12.2 5.6 L 11.2 5.6 Z M 14.9 11 L 14.9 9 L 12.9 6 L 14 6 L 15.4 8.2 L 16.8 6 L 17.8 6 L 15.8 9 L 15.8 11 L 14.9 11 Z M 17.4 11 L 19.6 6 L 20.4 6 L 22.6 11 L 21.7 11 L 21.1 9.8 L 18.8 9.8 L 18.3 11 L 17.4 11 Z M 19.1 9 L 20.8 9 L 20 7 L 19.1 9 Z M 24 11 L 24 6.8 L 22.4 6.8 L 22.4 6 L 26.5 6 L 26.5 6.8 L 24.9 6.8 L 24.9 11 L 24 11 Z M 31.3 11.1 C 30.5 11.1 29.8 10.8 29.2 10.3 C 29.2 10.3 29.7 9.7 29.7 9.7 C 30.2 10.1 30.8 10.3 31.3 10.3 C 31.6 10.3 31.8 10.2 32 10.1 C 32.1 10 32.2 9.9 32.2 9.7 C 32.2 9.7 32.2 9.7 32.2 9.7 C 32.2 9.5 32.1 9.3 32 9.2 C 31.8 9.1 31.5 9 31.1 8.9 C 30.5 8.8 30.1 8.6 29.8 8.4 C 29.6 8.2 29.4 7.8 29.4 7.4 C 29.4 7.4 29.4 7.4 29.4 7.4 C 29.4 7 29.6 6.6 29.9 6.3 C 30.2 6.1 30.6 5.9 31.1 5.9 C 31.8 5.9 32.4 6.1 32.9 6.6 C 32.9 6.6 32.5 7.2 32.5 7.2 C 32 6.9 31.6 6.7 31.1 6.7 C 30.9 6.7 30.7 6.8 30.5 6.9 C 30.4 7 30.3 7.1 30.3 7.3 C 30.3 7.3 30.3 7.3 30.3 7.3 C 30.3 7.5 30.4 7.7 30.5 7.8 C 30.7 7.9 31 8 31.5 8.1 C 32.1 8.3 32.5 8.4 32.7 8.7 C 33 8.9 33.1 9.2 33.1 9.6 C 33.1 9.6 33.1 9.6 33.1 9.6 C 33.1 10.1 32.9 10.4 32.6 10.7 C 32.3 11 31.8 11.1 31.3 11.1 Z M 36.5 11.1 C 35.8 11.1 35.1 10.8 34.6 10.3 C 34.2 9.8 33.9 9.2 33.9 8.5 C 33.9 8.5 33.9 8.5 33.9 8.5 C 33.9 7.8 34.2 7.2 34.7 6.7 C 35.2 6.2 35.8 5.9 36.5 5.9 C 37.3 5.9 37.9 6.2 38.4 6.7 C 38.9 7.2 39.1 7.8 39.1 8.5 C 39.1 8.5 39.1 8.5 39.1 8.5 C 39.1 9.2 38.9 9.8 38.4 10.3 C 37.9 10.8 37.3 11.1 36.5 11.1 Z M 34.8 8.5 C 34.8 9 35 9.4 35.3 9.8 C 35.6 10.1 36 10.3 36.5 10.3 C 37 10.3 37.4 10.1 37.7 9.8 C 38.1 9.4 38.2 9 38.2 8.5 C 38.2 8.5 38.2 8.5 38.2 8.5 C 38.2 8 38.1 7.6 37.7 7.3 C 37.4 6.9 37 6.7 36.5 6.7 C 36 6.7 35.6 6.9 35.3 7.2 C 35 7.6 34.8 8 34.8 8.5 C 34.83 8.5 34.8 8.5 34.8 8.5 C 34.8 8.5 34.83 8.51 34.8 8.5 Z M 40.2 11 L 40.2 6 C 40.2 6 42.44 6.01 42.4 6 C 43.1 6 43.5 6.2 43.9 6.5 C 44.2 6.8 44.3 7.2 44.3 7.6 C 44.3 7.6 44.3 7.6 44.3 7.6 C 44.3 8 44.2 8.3 44 8.6 C 43.8 8.8 43.5 9 43.1 9.1 C 43.11 9.12 44.5 11 44.5 11 L 43.4 11 L 42.2 9.3 L 41.1 9.3 L 41.1 11 L 40.2 11 Z M 41.1 8.5 C 41.1 8.5 42.37 8.49 42.4 8.5 C 42.7 8.5 42.9 8.4 43.1 8.3 C 43.3 8.1 43.4 7.9 43.4 7.7 C 43.4 7.7 43.4 7.6 43.4 7.6 C 43.4 7.4 43.3 7.2 43.1 7 C 43 6.9 42.7 6.8 42.4 6.8 C 42.36 6.81 41.1 6.8 41.1 6.8 L 41.1 8.5 Z M 47.4 11.1 C 46.8 11.1 46.2 10.9 45.9 10.5 C 45.5 10.1 45.3 9.6 45.3 8.9 C 45.29 8.89 45.3 6 45.3 6 L 46.2 6 C 46.2 6 46.17 8.86 46.2 8.9 C 46.2 9.3 46.3 9.7 46.5 9.9 C 46.7 10.2 47 10.3 47.4 10.3 C 47.8 10.3 48.1 10.2 48.4 9.9 C 48.6 9.7 48.7 9.3 48.7 8.9 C 48.7 8.89 48.7 6 48.7 6 L 49.6 6 C 49.6 6 49.58 8.85 49.6 8.8 C 49.6 9.6 49.4 10.1 49 10.5 C 48.6 10.9 48.1 11.1 47.4 11.1 Z M 50.8 11 L 50.8 6 L 51.6 6 L 54.3 9.5 L 54.3 6 L 55.1 6 L 55.1 11 L 54.4 11 L 51.6 7.5 L 51.6 11 L 50.8 11 Z " stroke="none" fill="#fff"/>  </g></svg>