<?xml version="1.0" standalone="no"?><!DOCTYPE svg PUBLIC "-//W3C//DTD SVG 1.1//EN" "http://www.w3.org/Graphics/SVG/1.1/DTD/svg11.dtd"><svg xmlns="http://www.w3.org/2000/svg" version="1.1" width="122px" height="65.4px" viewBox="0 -3 122 65.4" style="top:-3px">  <desc>Spatula PRIMELINE r n Kodu: 29203 D z evirme y zeyi l ler: L 36,3 cm, W 7,4 cm</desc>  <defs/>  <g id="Polygon389778">    <path d="M 3.3 40.2 L 3.3 39.6 L 4 39.6 L 4 40.2 L 3.3 40.2 Z M 2 40.2 L 2 39.6 L 2.6 39.6 L 2.6 40.2 L 2 40.2 Z M 5.5 43.1 C 5.5 43.8 5.2 44.4 4.8 44.9 C 4.3 45.4 3.7 45.7 3 45.7 C 2.2 45.7 1.6 45.4 1.2 44.9 C 0.7 44.5 0.5 43.9 0.5 43.2 C 0.5 43.2 0.5 43.1 0.5 43.1 C 0.5 42.5 0.7 41.9 1.2 41.4 C 1.7 40.9 2.3 40.6 3 40.6 C 3.7 40.6 4.3 40.9 4.8 41.4 C 5.2 41.8 5.5 42.4 5.5 43.1 C 5.47 43.14 5.5 43.1 5.5 43.1 C 5.5 43.1 5.47 43.15 5.5 43.1 Z M 1.1 43.1 C 1.1 43.7 1.2 44.2 1.6 44.6 C 2 45 2.4 45.2 3 45.2 C 3.5 45.2 4 45 4.4 44.6 C 4.7 44.2 4.9 43.7 4.9 43.2 C 4.9 43.2 4.9 43.1 4.9 43.1 C 4.9 42.6 4.7 42.1 4.4 41.7 C 4 41.3 3.5 41.1 3 41.1 C 2.4 41.1 2 41.3 1.6 41.7 C 1.2 42.1 1.1 42.6 1.1 43.1 C 1.05 43.14 1.1 43.1 1.1 43.1 C 1.1 43.1 1.05 43.15 1.1 43.1 Z M 6.6 45.6 L 6.6 40.5 L 7.1 40.5 L 7.1 45.6 L 6.6 45.6 Z M 9.7 46.7 L 9.1 46.4 C 9.1 46.4 9.69 45.65 9.7 45.6 C 9.2 45.6 8.9 45.4 8.6 45 C 8.3 44.7 8.2 44.3 8.2 43.8 C 8.2 43.8 8.2 43.8 8.2 43.8 C 8.2 43.3 8.3 42.8 8.7 42.5 C 9.1 42.1 9.5 41.9 10 41.9 C 10.6 41.9 11.1 42.1 11.5 42.5 C 11.5 42.5 11.1 42.9 11.1 42.9 C 10.8 42.6 10.4 42.4 10 42.4 C 9.6 42.4 9.3 42.5 9.1 42.8 C 8.8 43.1 8.7 43.4 8.7 43.8 C 8.7 43.8 8.7 43.8 8.7 43.8 C 8.7 44.2 8.8 44.5 9.1 44.8 C 9.4 45.1 9.7 45.2 10.1 45.2 C 10.5 45.2 10.8 45 11.2 44.7 C 11.2 44.7 11.5 45 11.5 45 C 11.1 45.4 10.7 45.7 10.1 45.7 C 10.13 45.68 9.7 46.7 9.7 46.7 Z M 14.2 41.4 L 14.2 40.8 L 14.8 40.8 L 14.8 41.4 L 14.2 41.4 Z M 13 41.4 L 13 40.8 L 13.6 40.8 L 13.6 41.4 L 13 41.4 Z M 14.9 45 C 14.6 45.4 14.2 45.7 13.7 45.7 C 13.3 45.7 12.9 45.5 12.7 45.3 C 12.4 45 12.3 44.7 12.3 44.2 C 12.31 44.23 12.3 42 12.3 42 L 12.8 42 C 12.8 42 12.84 44.09 12.8 44.1 C 12.8 44.4 12.9 44.7 13.1 44.9 C 13.3 45.1 13.5 45.2 13.8 45.2 C 14.2 45.2 14.4 45.1 14.6 44.9 C 14.8 44.7 14.9 44.4 14.9 44.1 C 14.93 44.05 14.9 42 14.9 42 L 15.5 42 L 15.5 45.6 L 14.9 45.6 L 14.9 45 C 14.9 45 14.93 44.97 14.9 45 Z M 16.7 45.6 L 16.7 40.5 L 17.3 40.5 L 17.3 45.6 L 16.7 45.6 Z M 21.6 45 C 21.2 45.5 20.7 45.7 20.1 45.7 C 19.6 45.7 19.2 45.5 18.8 45.2 C 18.5 44.8 18.3 44.4 18.3 43.8 C 18.3 43.8 18.3 43.8 18.3 43.8 C 18.3 43.3 18.5 42.8 18.8 42.4 C 19.1 42.1 19.5 41.9 20 41.9 C 20.5 41.9 21 42.1 21.3 42.4 C 21.6 42.8 21.7 43.3 21.7 43.8 C 21.7 43.9 21.7 43.9 21.7 44 C 21.7 44 18.8 44 18.8 44 C 18.9 44.4 19 44.7 19.3 44.9 C 19.5 45.1 19.8 45.2 20.1 45.2 C 20.5 45.2 20.9 45 21.3 44.7 C 21.25 44.7 21.6 45 21.6 45 C 21.6 45 21.59 45 21.6 45 Z M 18.8 43.6 C 18.8 43.6 21.2 43.6 21.2 43.6 C 21.1 43.2 21 42.9 20.8 42.7 C 20.6 42.5 20.4 42.4 20 42.4 C 19.7 42.4 19.4 42.5 19.2 42.7 C 19 42.9 18.9 43.2 18.8 43.6 Z M 22.7 45.6 L 22.7 42 L 23.2 42 C 23.2 42 23.2 42.93 23.2 42.9 C 23.3 42.6 23.5 42.4 23.8 42.2 C 24 42 24.3 41.9 24.7 41.9 C 24.67 41.92 24.7 42.5 24.7 42.5 C 24.7 42.5 24.63 42.5 24.6 42.5 C 24.2 42.5 23.9 42.6 23.6 42.9 C 23.3 43.2 23.2 43.6 23.2 44.2 C 23.2 44.16 23.2 45.6 23.2 45.6 L 22.7 45.6 Z M 25.5 42.7 L 25.5 42 L 26.1 42 L 26.1 42.7 L 25.5 42.7 Z M 25.5 45.6 L 25.5 44.9 L 26.1 44.9 L 26.1 45.6 L 25.5 45.6 Z M 29.5 45.6 L 29.5 40.7 L 30 40.7 L 30 45.1 L 32.8 45.1 L 32.8 45.6 L 29.5 45.6 Z M 37.4 45.7 C 36.6 45.7 36 45.4 35.5 44.8 C 35.5 44.8 35.9 44.5 35.9 44.5 C 36.3 44.9 36.8 45.2 37.4 45.2 C 37.7 45.2 37.9 45.1 38.1 44.9 C 38.3 44.7 38.4 44.5 38.4 44.2 C 38.4 44.2 38.4 44.2 38.4 44.2 C 38.4 43.9 38.3 43.7 38.1 43.5 C 37.8 43.4 37.5 43.3 37.1 43.3 C 37.06 43.27 36.7 43.3 36.7 43.3 L 36.6 42.9 L 38.2 41.2 L 35.8 41.2 L 35.8 40.7 L 38.9 40.7 L 38.9 41.1 C 38.9 41.1 37.37 42.81 37.4 42.8 C 37.8 42.9 38.2 43 38.5 43.2 C 38.8 43.4 39 43.8 39 44.2 C 39 44.2 39 44.2 39 44.2 C 39 44.6 38.8 45 38.5 45.3 C 38.2 45.5 37.8 45.7 37.4 45.7 Z M 41.8 45.7 C 41.3 45.7 40.8 45.5 40.5 45.2 C 40.3 45 40.1 44.7 40 44.4 C 39.9 44.1 39.9 43.8 39.9 43.3 C 39.9 43.3 39.9 43.3 39.9 43.3 C 39.9 42.5 40.1 41.9 40.4 41.4 C 40.8 40.9 41.3 40.6 41.9 40.6 C 42.4 40.6 42.9 40.8 43.4 41.2 C 43.4 41.2 43.1 41.6 43.1 41.6 C 42.7 41.3 42.3 41.1 41.9 41.1 C 41.4 41.1 41.1 41.3 40.8 41.7 C 40.6 42.1 40.5 42.6 40.5 43.2 C 40.5 43.2 40.5 43.3 40.5 43.3 C 40.8 42.8 41.3 42.5 41.9 42.5 C 42.3 42.5 42.7 42.7 43.1 43 C 43.4 43.2 43.6 43.6 43.6 44 C 43.6 44 43.6 44.1 43.6 44.1 C 43.6 44.5 43.4 44.9 43 45.2 C 42.7 45.5 42.3 45.7 41.8 45.7 Z M 41.8 45.2 C 42.2 45.2 42.4 45.1 42.7 44.9 C 42.9 44.7 43 44.4 43 44.1 C 43 44.1 43 44.1 43 44.1 C 43 43.8 42.9 43.5 42.7 43.3 C 42.4 43.1 42.1 43 41.8 43 C 41.4 43 41.1 43.1 40.9 43.3 C 40.7 43.6 40.6 43.8 40.6 44.1 C 40.6 44.1 40.6 44.1 40.6 44.1 C 40.6 44.4 40.7 44.7 40.9 44.9 C 41.1 45.1 41.4 45.2 41.8 45.2 Z M 44.4 46.5 C 44.4 46.5 44.3 46.2 44.3 46.2 C 44.7 46.1 44.8 45.9 44.8 45.6 C 44.79 45.6 44.5 45.6 44.5 45.6 L 44.5 44.9 L 45.2 44.9 C 45.2 44.9 45.18 45.49 45.2 45.5 C 45.2 45.8 45.1 46 45 46.1 C 44.9 46.3 44.7 46.4 44.4 46.5 Z M 47.9 45.7 C 47.1 45.7 46.5 45.4 46.1 44.8 C 46.1 44.8 46.5 44.5 46.5 44.5 C 46.9 44.9 47.3 45.2 47.9 45.2 C 48.2 45.2 48.5 45.1 48.7 44.9 C 48.9 44.7 49 44.5 49 44.2 C 49 44.2 49 44.2 49 44.2 C 49 43.9 48.8 43.7 48.6 43.5 C 48.3 43.4 48 43.3 47.6 43.3 C 47.59 43.27 47.3 43.3 47.3 43.3 L 47.2 42.9 L 48.7 41.2 L 46.3 41.2 L 46.3 40.7 L 49.4 40.7 L 49.4 41.1 C 49.4 41.1 47.91 42.81 47.9 42.8 C 48.4 42.9 48.8 43 49.1 43.2 C 49.4 43.4 49.5 43.8 49.5 44.2 C 49.5 44.2 49.5 44.2 49.5 44.2 C 49.5 44.6 49.4 45 49.1 45.3 C 48.7 45.5 48.3 45.7 47.9 45.7 Z M 55.8 45 C 55.4 45.5 54.9 45.7 54.3 45.7 C 53.8 45.7 53.4 45.5 53 45.1 C 52.7 44.8 52.5 44.3 52.5 43.8 C 52.5 43.8 52.5 43.8 52.5 43.8 C 52.5 43.3 52.7 42.8 53 42.5 C 53.4 42.1 53.8 41.9 54.3 41.9 C 54.9 41.9 55.4 42.1 55.8 42.5 C 55.8 42.5 55.4 42.9 55.4 42.9 C 55.1 42.6 54.7 42.4 54.3 42.4 C 54 42.4 53.6 42.5 53.4 42.8 C 53.2 43.1 53 43.4 53 43.8 C 53 43.8 53 43.8 53 43.8 C 53 44.2 53.2 44.5 53.4 44.8 C 53.7 45.1 54 45.2 54.4 45.2 C 54.8 45.2 55.1 45 55.5 44.7 C 55.47 44.66 55.8 45 55.8 45 C 55.8 45 55.81 44.98 55.8 45 Z M 56.7 45.6 L 56.7 42 L 57.2 42 C 57.2 42 57.24 42.59 57.2 42.6 C 57.4 42.4 57.5 42.2 57.7 42.1 C 57.9 42 58.1 41.9 58.4 41.9 C 59 41.9 59.3 42.1 59.6 42.6 C 59.9 42.1 60.3 41.9 60.8 41.9 C 61.3 41.9 61.6 42 61.8 42.3 C 62.1 42.6 62.2 42.9 62.2 43.4 C 62.19 43.36 62.2 45.6 62.2 45.6 L 61.6 45.6 C 61.6 45.6 61.65 43.49 61.6 43.5 C 61.6 43.1 61.6 42.9 61.4 42.7 C 61.2 42.5 61 42.4 60.7 42.4 C 60.4 42.4 60.2 42.5 60 42.7 C 59.8 42.9 59.7 43.2 59.7 43.5 C 59.71 43.51 59.7 45.6 59.7 45.6 L 59.2 45.6 C 59.2 45.6 59.18 43.47 59.2 43.5 C 59.2 43.1 59.1 42.9 58.9 42.7 C 58.8 42.5 58.5 42.4 58.2 42.4 C 58 42.4 57.7 42.5 57.5 42.7 C 57.3 42.9 57.2 43.2 57.2 43.5 C 57.24 43.53 57.2 45.6 57.2 45.6 L 56.7 45.6 Z M 63.1 46.5 C 63.1 46.5 63.1 46.2 63.1 46.2 C 63.4 46.1 63.6 45.9 63.5 45.6 C 63.52 45.6 63.3 45.6 63.3 45.6 L 63.3 44.9 L 63.9 44.9 C 63.9 44.9 63.92 45.49 63.9 45.5 C 63.9 45.8 63.9 46 63.7 46.1 C 63.6 46.3 63.4 46.4 63.1 46.5 Z M 68.6 45.6 L 66.9 40.7 L 67.5 40.7 L 68.9 44.8 L 70.2 40.7 L 70.7 40.7 L 72 44.8 L 73.4 40.7 L 74 40.7 L 72.2 45.6 L 71.8 45.6 L 70.4 41.7 L 69.1 45.6 L 68.6 45.6 Z M 77.4 45.6 L 79.6 41.2 L 76.9 41.2 L 76.9 40.7 L 80.2 40.7 L 80.2 41.1 L 78 45.6 L 77.4 45.6 Z M 80.3 46.5 C 80.3 46.5 80.2 46.2 80.2 46.2 C 80.5 46.1 80.7 45.9 80.7 45.6 C 80.66 45.6 80.4 45.6 80.4 45.6 L 80.4 44.9 L 81.1 44.9 C 81.1 44.9 81.05 45.49 81.1 45.5 C 81.1 45.8 81 46 80.9 46.1 C 80.7 46.3 80.5 46.4 80.3 46.5 Z M 84.6 45.6 L 84.6 44.4 L 82 44.4 L 81.9 44 L 84.7 40.7 L 85.1 40.7 L 85.1 44 L 85.9 44 L 85.9 44.4 L 85.1 44.4 L 85.1 45.6 L 84.6 45.6 Z M 82.5 44 L 84.6 44 L 84.6 41.4 L 82.5 44 Z M 92.1 45 C 91.7 45.5 91.2 45.7 90.6 45.7 C 90.1 45.7 89.6 45.5 89.3 45.1 C 88.9 44.8 88.8 44.3 88.8 43.8 C 88.8 43.8 88.8 43.8 88.8 43.8 C 88.8 43.3 88.9 42.8 89.3 42.5 C 89.6 42.1 90.1 41.9 90.6 41.9 C 91.2 41.9 91.7 42.1 92.1 42.5 C 92.1 42.5 91.7 42.9 91.7 42.9 C 91.4 42.6 91 42.4 90.6 42.4 C 90.2 42.4 89.9 42.5 89.7 42.8 C 89.4 43.1 89.3 43.4 89.3 43.8 C 89.3 43.8 89.3 43.8 89.3 43.8 C 89.3 44.2 89.4 44.5 89.7 44.8 C 89.9 45.1 90.3 45.2 90.6 45.2 C 91 45.2 91.4 45 91.7 44.7 C 91.75 44.66 92.1 45 92.1 45 C 92.1 45 92.09 44.98 92.1 45 Z M 93 45.6 L 93 42 L 93.5 42 C 93.5 42 93.52 42.59 93.5 42.6 C 93.7 42.4 93.8 42.2 94 42.1 C 94.2 42 94.4 41.9 94.7 41.9 C 95.2 41.9 95.6 42.1 95.8 42.6 C 96.2 42.1 96.6 41.9 97.1 41.9 C 97.5 41.9 97.9 42 98.1 42.3 C 98.3 42.6 98.5 42.9 98.5 43.4 C 98.47 43.36 98.5 45.6 98.5 45.6 L 97.9 45.6 C 97.9 45.6 97.93 43.49 97.9 43.5 C 97.9 43.1 97.8 42.9 97.7 42.7 C 97.5 42.5 97.3 42.4 97 42.4 C 96.7 42.4 96.5 42.5 96.3 42.7 C 96.1 42.9 96 43.2 96 43.5 C 95.99 43.51 96 45.6 96 45.6 L 95.5 45.6 C 95.5 45.6 95.46 43.47 95.5 43.5 C 95.5 43.1 95.4 42.9 95.2 42.7 C 95 42.5 94.8 42.4 94.5 42.4 C 94.2 42.4 94 42.5 93.8 42.7 C 93.6 42.9 93.5 43.2 93.5 43.5 C 93.52 43.53 93.5 45.6 93.5 45.6 L 93 45.6 Z " stroke="none" fill="#000"/>  </g>  <g id="Polygon389777">    <path d="M 0.7 35.6 L 0.7 30.7 C 0.7 30.7 2.39 30.7 2.4 30.7 C 3.2 30.7 3.8 30.9 4.3 31.4 C 4.8 31.9 5 32.4 5 33.1 C 5 33.1 5 33.1 5 33.1 C 5 33.8 4.8 34.4 4.3 34.9 C 3.8 35.4 3.2 35.6 2.4 35.6 C 2.39 35.6 0.7 35.6 0.7 35.6 Z M 2.4 31.2 C 2.39 31.21 1.2 31.2 1.2 31.2 L 1.2 35.1 C 1.2 35.1 2.39 35.09 2.4 35.1 C 3 35.1 3.5 34.9 3.9 34.5 C 4.2 34.2 4.4 33.7 4.4 33.2 C 4.4 33.2 4.4 33.1 4.4 33.1 C 4.4 32.6 4.2 32.1 3.9 31.8 C 3.5 31.4 3 31.2 2.4 31.2 Z M 7.9 31.4 L 7.9 30.8 L 8.5 30.8 L 8.5 31.4 L 7.9 31.4 Z M 6.7 31.4 L 6.7 30.8 L 7.3 30.8 L 7.3 31.4 L 6.7 31.4 Z M 8.6 35 C 8.4 35.4 7.9 35.7 7.4 35.7 C 7 35.7 6.6 35.5 6.4 35.3 C 6.1 35 6 34.7 6 34.2 C 6.02 34.23 6 32 6 32 L 6.6 32 C 6.6 32 6.56 34.09 6.6 34.1 C 6.6 34.4 6.6 34.7 6.8 34.9 C 7 35.1 7.2 35.2 7.6 35.2 C 7.9 35.2 8.1 35.1 8.3 34.9 C 8.5 34.7 8.6 34.4 8.6 34.1 C 8.64 34.05 8.6 32 8.6 32 L 9.2 32 L 9.2 35.6 L 8.6 35.6 L 8.6 35 C 8.6 35 8.64 34.97 8.6 35 Z M 10.2 35.6 L 10.2 35.3 L 12.6 32.4 L 10.3 32.4 L 10.3 32 L 13.3 32 L 13.3 32.3 L 10.9 35.1 L 13.3 35.1 L 13.3 35.6 L 10.2 35.6 Z M 17.7 36.7 L 17.1 36.4 C 17.1 36.4 17.67 35.65 17.7 35.6 C 17.2 35.6 16.9 35.4 16.6 35 C 16.3 34.7 16.2 34.3 16.2 33.8 C 16.2 33.8 16.2 33.8 16.2 33.8 C 16.2 33.3 16.3 32.8 16.7 32.5 C 17 32.1 17.5 31.9 18 31.9 C 18.6 31.9 19.1 32.1 19.5 32.5 C 19.5 32.5 19.1 32.9 19.1 32.9 C 18.8 32.6 18.4 32.4 18 32.4 C 17.6 32.4 17.3 32.5 17.1 32.8 C 16.8 33.1 16.7 33.4 16.7 33.8 C 16.7 33.8 16.7 33.8 16.7 33.8 C 16.7 34.2 16.8 34.5 17.1 34.8 C 17.3 35.1 17.7 35.2 18 35.2 C 18.4 35.2 18.8 35 19.1 34.7 C 19.1 34.7 19.5 35 19.5 35 C 19.1 35.4 18.6 35.7 18.1 35.7 C 18.12 35.68 17.7 36.7 17.7 36.7 Z M 23.3 35 C 22.9 35.5 22.5 35.7 21.9 35.7 C 21.3 35.7 20.9 35.5 20.6 35.2 C 20.2 34.8 20 34.4 20 33.8 C 20 33.8 20 33.8 20 33.8 C 20 33.3 20.2 32.8 20.5 32.4 C 20.9 32.1 21.3 31.9 21.8 31.9 C 22.3 31.9 22.7 32.1 23 32.4 C 23.3 32.8 23.5 33.3 23.5 33.8 C 23.5 33.9 23.5 33.9 23.5 34 C 23.5 34 20.6 34 20.6 34 C 20.6 34.4 20.8 34.7 21 34.9 C 21.3 35.1 21.5 35.2 21.9 35.2 C 22.3 35.2 22.7 35 23 34.7 C 23.01 34.7 23.3 35 23.3 35 C 23.3 35 23.34 35 23.3 35 Z M 20.6 33.6 C 20.6 33.6 22.9 33.6 22.9 33.6 C 22.9 33.2 22.8 32.9 22.6 32.7 C 22.4 32.5 22.1 32.4 21.8 32.4 C 21.5 32.4 21.2 32.5 21 32.7 C 20.8 32.9 20.6 33.2 20.6 33.6 Z M 25.5 35.6 L 23.9 32 L 24.5 32 L 25.7 35 L 26.9 32 L 27.5 32 L 25.9 35.6 L 25.5 35.6 Z M 28.4 31.2 L 28.4 30.6 L 29 30.6 L 29 31.2 L 28.4 31.2 Z M 28.4 35.6 L 28.4 32 L 28.9 32 L 28.9 35.6 L 28.4 35.6 Z M 30.2 35.6 L 30.2 32 L 30.7 32 C 30.7 32 30.73 32.93 30.7 32.9 C 30.9 32.6 31.1 32.4 31.3 32.2 C 31.6 32 31.9 31.9 32.2 31.9 C 32.21 31.92 32.2 32.5 32.2 32.5 C 32.2 32.5 32.16 32.5 32.2 32.5 C 31.7 32.5 31.4 32.6 31.1 32.9 C 30.9 33.2 30.7 33.6 30.7 34.2 C 30.73 34.16 30.7 35.6 30.7 35.6 L 30.2 35.6 Z M 33 35.6 L 33 32 L 33.6 32 C 33.6 32 33.56 32.59 33.6 32.6 C 33.7 32.4 33.9 32.2 34 32.1 C 34.2 32 34.5 31.9 34.7 31.9 C 35.3 31.9 35.7 32.1 35.9 32.6 C 36.2 32.1 36.6 31.9 37.2 31.9 C 37.6 31.9 37.9 32 38.2 32.3 C 38.4 32.6 38.5 32.9 38.5 33.4 C 38.51 33.36 38.5 35.6 38.5 35.6 L 38 35.6 C 38 35.6 37.97 33.49 38 33.5 C 38 33.1 37.9 32.9 37.7 32.7 C 37.6 32.5 37.3 32.4 37 32.4 C 36.8 32.4 36.5 32.5 36.3 32.7 C 36.1 32.9 36 33.2 36 33.5 C 36.04 33.51 36 35.6 36 35.6 L 35.5 35.6 C 35.5 35.6 35.5 33.47 35.5 33.5 C 35.5 33.1 35.4 32.9 35.3 32.7 C 35.1 32.5 34.9 32.4 34.6 32.4 C 34.3 32.4 34 32.5 33.9 32.7 C 33.7 32.9 33.6 33.2 33.6 33.5 C 33.56 33.53 33.6 35.6 33.6 35.6 L 33 35.6 Z M 42.7 35 C 42.3 35.5 41.8 35.7 41.2 35.7 C 40.7 35.7 40.3 35.5 40 35.2 C 39.6 34.8 39.4 34.4 39.4 33.8 C 39.4 33.8 39.4 33.8 39.4 33.8 C 39.4 33.3 39.6 32.8 39.9 32.4 C 40.3 32.1 40.7 31.9 41.2 31.9 C 41.7 31.9 42.1 32.1 42.4 32.4 C 42.7 32.8 42.9 33.3 42.9 33.8 C 42.9 33.9 42.9 33.9 42.9 34 C 42.9 34 40 34 40 34 C 40 34.4 40.2 34.7 40.4 34.9 C 40.6 35.1 40.9 35.2 41.3 35.2 C 41.7 35.2 42.1 35 42.4 34.7 C 42.4 34.7 42.7 35 42.7 35 C 42.7 35 42.73 35 42.7 35 Z M 40 33.6 C 40 33.6 42.3 33.6 42.3 33.6 C 42.3 33.2 42.2 32.9 42 32.7 C 41.8 32.5 41.5 32.4 41.2 32.4 C 40.8 32.4 40.6 32.5 40.4 32.7 C 40.1 32.9 40 33.2 40 33.6 Z M 47.5 35 L 48.6 32 L 49.2 32 C 49.2 32 47.67 35.72 47.7 35.7 C 47.5 36.1 47.4 36.4 47.2 36.5 C 47 36.7 46.7 36.7 46.5 36.7 C 46.2 36.7 45.9 36.7 45.7 36.6 C 45.7 36.6 45.9 36.1 45.9 36.1 C 46.1 36.2 46.2 36.3 46.4 36.3 C 46.6 36.3 46.8 36.2 46.9 36.1 C 47 36 47.1 35.8 47.2 35.6 C 47.19 35.59 45.5 32 45.5 32 L 46.1 32 L 47.5 35 Z M 51.9 31.4 L 51.9 30.8 L 52.5 30.8 L 52.5 31.4 L 51.9 31.4 Z M 50.6 31.4 L 50.6 30.8 L 51.3 30.8 L 51.3 31.4 L 50.6 31.4 Z M 52.6 35 C 52.3 35.4 51.9 35.7 51.4 35.7 C 50.9 35.7 50.6 35.5 50.4 35.3 C 50.1 35 50 34.7 50 34.2 C 49.99 34.23 50 32 50 32 L 50.5 32 C 50.5 32 50.53 34.09 50.5 34.1 C 50.5 34.4 50.6 34.7 50.8 34.9 C 51 35.1 51.2 35.2 51.5 35.2 C 51.8 35.2 52.1 35.1 52.3 34.9 C 52.5 34.7 52.6 34.4 52.6 34.1 C 52.61 34.05 52.6 32 52.6 32 L 53.1 32 L 53.1 35.6 L 52.6 35.6 L 52.6 35 C 52.6 35 52.61 34.97 52.6 35 Z M 54.1 35.6 L 54.1 35.3 L 56.5 32.4 L 54.2 32.4 L 54.2 32 L 57.3 32 L 57.3 32.3 L 54.9 35.1 L 57.3 35.1 L 57.3 35.6 L 54.1 35.6 Z M 61.2 35 C 60.8 35.5 60.3 35.7 59.7 35.7 C 59.2 35.7 58.8 35.5 58.4 35.2 C 58.1 34.8 57.9 34.4 57.9 33.8 C 57.9 33.8 57.9 33.8 57.9 33.8 C 57.9 33.3 58.1 32.8 58.4 32.4 C 58.7 32.1 59.2 31.9 59.7 31.9 C 60.2 31.9 60.6 32.1 60.9 32.4 C 61.2 32.8 61.3 33.3 61.3 33.8 C 61.3 33.9 61.3 33.9 61.3 34 C 61.3 34 58.5 34 58.5 34 C 58.5 34.4 58.6 34.7 58.9 34.9 C 59.1 35.1 59.4 35.2 59.7 35.2 C 60.2 35.2 60.5 35 60.9 34.7 C 60.88 34.7 61.2 35 61.2 35 C 61.2 35 61.21 35 61.2 35 Z M 58.5 33.6 C 58.5 33.6 60.8 33.6 60.8 33.6 C 60.8 33.2 60.7 32.9 60.5 32.7 C 60.3 32.5 60 32.4 59.6 32.4 C 59.3 32.4 59.1 32.5 58.8 32.7 C 58.6 32.9 58.5 33.2 58.5 33.6 Z M 63.7 35 L 64.8 32 L 65.4 32 C 65.4 32 63.87 35.72 63.9 35.7 C 63.7 36.1 63.6 36.4 63.4 36.5 C 63.2 36.7 62.9 36.7 62.7 36.7 C 62.4 36.7 62.2 36.7 61.9 36.6 C 61.9 36.6 62.1 36.1 62.1 36.1 C 62.3 36.2 62.4 36.3 62.6 36.3 C 62.8 36.3 63 36.2 63.1 36.1 C 63.2 36 63.3 35.8 63.4 35.6 C 63.39 35.59 61.7 32 61.7 32 L 62.3 32 L 63.7 35 Z M 66.3 31.2 L 66.3 30.6 L 66.9 30.6 L 66.9 31.2 L 66.3 31.2 Z M 66.3 35.6 L 66.3 32 L 66.8 32 L 66.8 35.6 L 66.3 35.6 Z " stroke="none" fill="#000"/>  </g>  <g id="Polygon389776">    <path d="M 3 10.3 L 3 9.6 L 3.6 9.6 L 3.6 10.3 L 3 10.3 Z M 1.7 10.3 L 1.7 9.6 L 2.3 9.6 L 2.3 10.3 L 1.7 10.3 Z M 2.7 15.7 C 2 15.7 1.5 15.5 1.2 15.1 C 0.8 14.7 0.6 14.2 0.6 13.5 C 0.62 13.55 0.6 10.7 0.6 10.7 L 1.2 10.7 C 1.2 10.7 1.17 13.51 1.2 13.5 C 1.2 14 1.3 14.4 1.6 14.7 C 1.8 15 2.2 15.2 2.7 15.2 C 3.1 15.2 3.5 15 3.8 14.8 C 4 14.5 4.1 14.1 4.1 13.5 C 4.14 13.55 4.1 10.7 4.1 10.7 L 4.7 10.7 C 4.7 10.7 4.7 13.51 4.7 13.5 C 4.7 14.2 4.5 14.7 4.1 15.1 C 3.8 15.5 3.3 15.7 2.7 15.7 Z M 5.9 15.6 L 5.9 12 L 6.5 12 C 6.5 12 6.45 12.93 6.5 12.9 C 6.6 12.6 6.8 12.4 7 12.2 C 7.3 12 7.6 11.9 7.9 11.9 C 7.93 11.92 7.9 12.5 7.9 12.5 C 7.9 12.5 7.89 12.5 7.9 12.5 C 7.5 12.5 7.1 12.6 6.9 12.9 C 6.6 13.2 6.5 13.6 6.5 14.2 C 6.45 14.16 6.5 15.6 6.5 15.6 L 5.9 15.6 Z M 10.6 11.4 L 10.6 10.8 L 11.2 10.8 L 11.2 11.4 L 10.6 11.4 Z M 9.3 11.4 L 9.3 10.8 L 10 10.8 L 10 11.4 L 9.3 11.4 Z M 11.3 15 C 11 15.4 10.6 15.7 10.1 15.7 C 9.7 15.7 9.3 15.5 9.1 15.3 C 8.8 15 8.7 14.7 8.7 14.2 C 8.69 14.23 8.7 12 8.7 12 L 9.2 12 C 9.2 12 9.23 14.09 9.2 14.1 C 9.2 14.4 9.3 14.7 9.5 14.9 C 9.7 15.1 9.9 15.2 10.2 15.2 C 10.5 15.2 10.8 15.1 11 14.9 C 11.2 14.7 11.3 14.4 11.3 14.1 C 11.32 14.05 11.3 12 11.3 12 L 11.9 12 L 11.9 15.6 L 11.3 15.6 L 11.3 15 C 11.3 15 11.32 14.97 11.3 15 Z M 13.1 15.6 L 13.1 12 L 13.6 12 C 13.6 12 13.6 12.61 13.6 12.6 C 13.9 12.1 14.3 11.9 14.8 11.9 C 15.3 11.9 15.6 12 15.9 12.3 C 16.1 12.6 16.2 12.9 16.2 13.4 C 16.23 13.35 16.2 15.6 16.2 15.6 L 15.7 15.6 C 15.7 15.6 15.69 13.49 15.7 13.5 C 15.7 13.1 15.6 12.9 15.4 12.7 C 15.2 12.5 15 12.4 14.7 12.4 C 14.4 12.4 14.1 12.5 13.9 12.7 C 13.7 12.9 13.6 13.2 13.6 13.5 C 13.6 13.53 13.6 15.6 13.6 15.6 L 13.1 15.6 Z M 19.6 15.6 L 19.6 10.7 L 20.1 10.7 L 20.1 13.6 L 22.9 10.7 L 23.7 10.7 L 21.5 12.8 L 23.7 15.6 L 23 15.6 L 21.2 13.2 L 20.1 14.3 L 20.1 15.6 L 19.6 15.6 Z M 25.9 15.7 C 25.4 15.7 25 15.5 24.6 15.1 C 24.3 14.8 24.1 14.3 24.1 13.8 C 24.1 13.8 24.1 13.8 24.1 13.8 C 24.1 13.3 24.3 12.8 24.6 12.5 C 25 12.1 25.4 11.9 26 11.9 C 26.5 11.9 26.9 12.1 27.3 12.5 C 27.7 12.8 27.8 13.3 27.8 13.8 C 27.8 13.8 27.8 13.8 27.8 13.8 C 27.8 14.3 27.7 14.8 27.3 15.1 C 26.9 15.5 26.5 15.7 25.9 15.7 Z M 26 15.2 C 26.3 15.2 26.7 15.1 26.9 14.8 C 27.2 14.5 27.3 14.2 27.3 13.8 C 27.3 13.8 27.3 13.8 27.3 13.8 C 27.3 13.4 27.2 13.1 26.9 12.8 C 26.6 12.5 26.3 12.4 25.9 12.4 C 25.6 12.4 25.2 12.5 25 12.8 C 24.8 13.1 24.6 13.4 24.6 13.8 C 24.6 13.8 24.6 13.8 24.6 13.8 C 24.6 14.2 24.8 14.5 25 14.8 C 25.3 15.1 25.6 15.2 26 15.2 Z M 31.7 14.9 C 31.4 15.4 30.9 15.7 30.3 15.7 C 29.9 15.7 29.5 15.5 29.1 15.2 C 28.8 14.8 28.6 14.4 28.6 13.8 C 28.6 13.8 28.6 13.8 28.6 13.8 C 28.6 13.2 28.8 12.8 29.1 12.4 C 29.5 12.1 29.9 11.9 30.3 11.9 C 30.9 11.9 31.4 12.2 31.7 12.7 C 31.72 12.67 31.7 10.5 31.7 10.5 L 32.3 10.5 L 32.3 15.6 L 31.7 15.6 L 31.7 14.9 C 31.7 14.9 31.72 14.87 31.7 14.9 Z M 30.4 15.2 C 30.8 15.2 31.1 15.1 31.4 14.8 C 31.6 14.5 31.7 14.2 31.7 13.8 C 31.7 13.8 31.7 13.8 31.7 13.8 C 31.7 13.4 31.6 13 31.4 12.8 C 31.1 12.5 30.8 12.4 30.4 12.4 C 30.1 12.4 29.8 12.5 29.5 12.8 C 29.3 13 29.2 13.4 29.2 13.8 C 29.2 13.8 29.2 13.8 29.2 13.8 C 29.2 14.2 29.3 14.6 29.5 14.8 C 29.8 15.1 30.1 15.2 30.4 15.2 Z M 36 15 C 35.7 15.4 35.3 15.7 34.8 15.7 C 34.4 15.7 34 15.5 33.8 15.3 C 33.5 15 33.4 14.7 33.4 14.2 C 33.41 14.23 33.4 12 33.4 12 L 33.9 12 C 33.9 12 33.95 14.09 33.9 14.1 C 33.9 14.4 34 14.7 34.2 14.9 C 34.4 15.1 34.6 15.2 35 15.2 C 35.3 15.2 35.5 15.1 35.7 14.9 C 35.9 14.7 36 14.4 36 14.1 C 36.04 14.05 36 12 36 12 L 36.6 12 L 36.6 15.6 L 36 15.6 L 36 15 C 36 15 36.04 14.97 36 15 Z M 37.7 12.7 L 37.7 12 L 38.4 12 L 38.4 12.7 L 37.7 12.7 Z M 37.7 15.6 L 37.7 14.9 L 38.4 14.9 L 38.4 15.6 L 37.7 15.6 Z M 41.4 15.6 L 41.4 14.7 C 41.4 14.7 43.03 13.41 43 13.4 C 43.4 13.1 43.6 12.9 43.7 12.8 C 43.8 12.6 43.9 12.4 43.9 12.2 C 43.9 12 43.8 11.9 43.7 11.8 C 43.6 11.7 43.4 11.6 43.2 11.6 C 43 11.6 42.9 11.6 42.7 11.7 C 42.6 11.8 42.4 12 42.2 12.3 C 42.2 12.3 41.5 11.6 41.5 11.6 C 41.7 11.3 42 11 42.3 10.9 C 42.5 10.7 42.9 10.6 43.3 10.6 C 43.8 10.6 44.2 10.8 44.5 11 C 44.8 11.3 45 11.7 45 12.1 C 45 12.1 45 12.2 45 12.2 C 45 12.5 44.9 12.9 44.7 13.1 C 44.5 13.4 44.2 13.7 43.7 14.1 C 43.69 14.05 42.9 14.7 42.9 14.7 L 45 14.7 L 45 15.6 L 41.4 15.6 Z M 46.5 14.3 C 46.8 14.6 47.2 14.7 47.6 14.7 C 47.8 14.7 48 14.6 48.1 14.5 C 48.3 14.4 48.4 14.2 48.4 14.1 C 48.5 13.9 48.5 13.8 48.6 13.6 C 48.3 13.8 48 13.9 47.6 13.9 C 47 13.9 46.6 13.8 46.3 13.5 C 46 13.2 45.8 12.8 45.8 12.3 C 45.8 12.3 45.8 12.3 45.8 12.3 C 45.8 11.8 46 11.4 46.3 11.1 C 46.7 10.8 47.1 10.6 47.7 10.6 C 48 10.6 48.3 10.7 48.5 10.7 C 48.7 10.8 48.9 11 49.1 11.1 C 49.5 11.5 49.7 12.2 49.7 13 C 49.7 13 49.7 13 49.7 13 C 49.7 13.8 49.5 14.5 49.1 15 C 48.7 15.4 48.2 15.7 47.5 15.7 C 46.9 15.7 46.4 15.5 45.9 15.1 C 45.92 15.1 46.5 14.3 46.5 14.3 C 46.5 14.3 46.49 14.28 46.5 14.3 Z M 47.7 13 C 48 13 48.2 13 48.3 12.8 C 48.5 12.7 48.6 12.5 48.6 12.3 C 48.6 12.3 48.6 12.3 48.6 12.3 C 48.6 12.1 48.5 11.9 48.3 11.7 C 48.2 11.6 48 11.5 47.7 11.5 C 47.4 11.5 47.2 11.6 47.1 11.7 C 47 11.9 46.9 12.1 46.9 12.3 C 46.9 12.3 46.9 12.3 46.9 12.3 C 46.9 12.5 47 12.7 47.1 12.8 C 47.3 13 47.5 13 47.7 13 Z M 50.3 15.6 L 50.3 14.7 C 50.3 14.7 51.95 13.41 52 13.4 C 52.3 13.1 52.5 12.9 52.6 12.8 C 52.7 12.6 52.8 12.4 52.8 12.2 C 52.8 12 52.7 11.9 52.6 11.8 C 52.5 11.7 52.3 11.6 52.1 11.6 C 52 11.6 51.8 11.6 51.6 11.7 C 51.5 11.8 51.3 12 51.1 12.3 C 51.1 12.3 50.4 11.6 50.4 11.6 C 50.6 11.3 50.9 11 51.2 10.9 C 51.5 10.7 51.8 10.6 52.2 10.6 C 52.7 10.6 53.1 10.8 53.4 11 C 53.7 11.3 53.9 11.7 53.9 12.1 C 53.9 12.1 53.9 12.2 53.9 12.2 C 53.9 12.5 53.8 12.9 53.6 13.1 C 53.4 13.4 53.1 13.7 52.6 14.1 C 52.61 14.05 51.8 14.7 51.8 14.7 L 53.9 14.7 L 53.9 15.6 L 50.3 15.6 Z M 56.9 15.7 C 56.2 15.7 55.7 15.4 55.3 15 C 54.9 14.5 54.7 13.9 54.7 13.2 C 54.7 13.2 54.7 13.1 54.7 13.1 C 54.7 12.4 54.9 11.8 55.3 11.3 C 55.7 10.9 56.3 10.6 56.9 10.6 C 57.5 10.6 58.1 10.9 58.5 11.3 C 58.9 11.8 59.1 12.4 59.1 13.1 C 59.1 13.1 59.1 13.1 59.1 13.1 C 59.1 13.9 58.9 14.5 58.5 15 C 58.1 15.4 57.5 15.7 56.9 15.7 Z M 55.8 13.1 C 55.8 13.6 55.9 14 56.1 14.3 C 56.3 14.6 56.6 14.7 56.9 14.7 C 57.2 14.7 57.5 14.6 57.7 14.3 C 57.9 14 58 13.6 58 13.2 C 58 13.2 58 13.1 58 13.1 C 58 12.7 57.9 12.3 57.7 12 C 57.5 11.7 57.2 11.6 56.9 11.6 C 56.6 11.6 56.3 11.7 56.1 12 C 55.9 12.3 55.8 12.7 55.8 13.1 C 55.82 13.14 55.8 13.1 55.8 13.1 C 55.8 13.1 55.82 13.15 55.8 13.1 Z M 61.6 15.7 C 60.8 15.7 60.1 15.4 59.6 14.8 C 59.6 14.8 60.4 14.1 60.4 14.1 C 60.7 14.5 61.1 14.7 61.6 14.7 C 61.8 14.7 61.9 14.7 62.1 14.6 C 62.2 14.4 62.3 14.3 62.3 14.1 C 62.3 14.1 62.3 14.1 62.3 14.1 C 62.3 13.9 62.2 13.8 62 13.6 C 61.8 13.5 61.6 13.5 61.3 13.5 C 61.31 13.49 60.9 13.5 60.9 13.5 L 60.7 12.8 L 61.9 11.6 L 59.9 11.6 L 59.9 10.7 L 63.2 10.7 L 63.2 11.5 C 63.2 11.5 62.01 12.69 62 12.7 C 62.9 12.8 63.3 13.3 63.3 14.1 C 63.3 14.1 63.3 14.1 63.3 14.1 C 63.3 14.6 63.2 14.9 62.8 15.2 C 62.5 15.5 62.1 15.7 61.6 15.7 Z " stroke="none" fill="#000"/>  </g>  <g id="Polygon389775">    <path d="M 2.3 5.7 C 1.5 5.7 0.8 5.4 0.3 4.9 C 0.3 4.9 0.9 4.1 0.9 4.1 C 1.4 4.5 1.9 4.7 2.4 4.7 C 2.6 4.7 2.7 4.7 2.9 4.6 C 3 4.5 3.1 4.4 3.1 4.3 C 3.1 4.3 3.1 4.2 3.1 4.2 C 3.1 4.1 3 4 2.9 3.9 C 2.7 3.8 2.5 3.7 2.1 3.6 C 1.8 3.5 1.6 3.5 1.4 3.4 C 1.2 3.3 1.1 3.3 0.9 3.1 C 0.7 3 0.6 2.9 0.6 2.7 C 0.5 2.6 0.4 2.4 0.4 2.1 C 0.4 2.1 0.4 2.1 0.4 2.1 C 0.4 1.7 0.6 1.3 0.9 1 C 1.2 0.8 1.7 0.6 2.2 0.6 C 2.9 0.6 3.5 0.8 4 1.3 C 4 1.3 3.4 2.1 3.4 2.1 C 3 1.7 2.5 1.6 2.1 1.6 C 1.9 1.6 1.8 1.6 1.7 1.7 C 1.6 1.8 1.5 1.9 1.5 2 C 1.5 2 1.5 2 1.5 2 C 1.5 2.2 1.6 2.3 1.7 2.4 C 1.9 2.5 2.1 2.6 2.6 2.7 C 3.1 2.8 3.5 3 3.8 3.2 C 4 3.4 4.1 3.7 4.1 4.1 C 4.1 4.1 4.1 4.2 4.1 4.2 C 4.1 4.6 4 5 3.6 5.3 C 3.3 5.5 2.9 5.7 2.3 5.7 Z M 5 6.7 L 5 1.8 L 6 1.8 C 6 1.8 6.02 2.39 6 2.4 C 6.3 2 6.7 1.8 7.2 1.8 C 7.7 1.8 8.1 2 8.4 2.3 C 8.7 2.6 8.9 3.1 8.9 3.7 C 8.9 3.7 8.9 3.7 8.9 3.7 C 8.9 4.3 8.7 4.8 8.4 5.1 C 8.1 5.5 7.7 5.7 7.2 5.7 C 6.7 5.7 6.3 5.5 6 5.1 C 6.02 5.11 6 6.7 6 6.7 L 5 6.7 Z M 6 3.7 C 6 4 6.1 4.3 6.3 4.5 C 6.4 4.7 6.7 4.8 6.9 4.8 C 7.2 4.8 7.4 4.7 7.6 4.5 C 7.7 4.3 7.8 4 7.8 3.7 C 7.8 3.7 7.8 3.7 7.8 3.7 C 7.8 3.4 7.7 3.2 7.6 3 C 7.4 2.8 7.2 2.7 6.9 2.7 C 6.7 2.7 6.4 2.8 6.3 3 C 6.1 3.2 6 3.4 6 3.7 C 6.01 3.72 6 3.7 6 3.7 C 6 3.7 6.01 3.73 6 3.7 Z M 11.9 5.2 C 11.6 5.5 11.2 5.7 10.7 5.7 C 10.4 5.7 10.1 5.6 9.8 5.4 C 9.6 5.2 9.5 4.9 9.5 4.5 C 9.5 4.5 9.5 4.5 9.5 4.5 C 9.5 4.1 9.6 3.8 9.9 3.6 C 10.1 3.4 10.5 3.3 11 3.3 C 11.3 3.3 11.6 3.4 11.9 3.5 C 11.9 3.5 11.9 3.4 11.9 3.4 C 11.9 2.9 11.6 2.7 11.1 2.7 C 10.7 2.7 10.4 2.8 10 2.9 C 10 2.9 9.8 2.1 9.8 2.1 C 10.3 1.9 10.7 1.8 11.2 1.8 C 11.8 1.8 12.2 1.9 12.5 2.2 C 12.8 2.5 12.9 2.9 12.9 3.4 C 12.91 3.42 12.9 5.6 12.9 5.6 L 11.9 5.6 L 11.9 5.2 C 11.9 5.2 11.88 5.19 11.9 5.2 Z M 11.1 4.9 C 11.3 4.9 11.5 4.9 11.7 4.8 C 11.8 4.6 11.9 4.5 11.9 4.3 C 11.9 4.3 11.9 4.1 11.9 4.1 C 11.7 4 11.5 3.9 11.2 3.9 C 11 3.9 10.8 4 10.7 4.1 C 10.6 4.2 10.5 4.3 10.5 4.5 C 10.5 4.5 10.5 4.5 10.5 4.5 C 10.5 4.6 10.5 4.7 10.6 4.8 C 10.8 4.9 10.9 4.9 11.1 4.9 Z M 15.9 5.4 C 15.7 5.6 15.4 5.7 15.1 5.7 C 14.7 5.7 14.4 5.6 14.2 5.4 C 14.1 5.2 14 4.9 14 4.5 C 13.96 4.54 14 2.8 14 2.8 L 13.5 2.8 L 13.5 1.8 L 14 1.8 L 14 0.9 L 15 0.9 L 15 1.8 L 15.9 1.8 L 15.9 2.8 L 15 2.8 C 15 2.8 15.03 4.36 15 4.4 C 15 4.6 15.1 4.7 15.4 4.7 C 15.6 4.7 15.7 4.7 15.9 4.6 C 15.9 4.59 15.9 5.4 15.9 5.4 C 15.9 5.4 15.9 5.45 15.9 5.4 Z M 19 5.1 C 18.7 5.5 18.4 5.7 17.9 5.7 C 17.5 5.7 17.2 5.5 17 5.3 C 16.8 5.1 16.7 4.7 16.7 4.3 C 16.67 4.28 16.7 1.8 16.7 1.8 L 17.7 1.8 C 17.7 1.8 17.73 3.94 17.7 3.9 C 17.7 4.4 17.9 4.7 18.4 4.7 C 18.6 4.7 18.7 4.6 18.9 4.5 C 19 4.4 19 4.2 19 3.9 C 19.04 3.94 19 1.8 19 1.8 L 20.1 1.8 L 20.1 5.6 L 19 5.6 L 19 5.1 C 19 5.1 19.04 5.07 19 5.1 Z M 21.1 5.6 L 21.1 0.5 L 22.2 0.5 L 22.2 5.6 L 21.1 5.6 Z M 25.4 5.2 C 25.1 5.5 24.7 5.7 24.2 5.7 C 23.9 5.7 23.6 5.6 23.3 5.4 C 23.1 5.2 22.9 4.9 22.9 4.5 C 22.9 4.5 22.9 4.5 22.9 4.5 C 22.9 4.1 23.1 3.8 23.4 3.6 C 23.6 3.4 24 3.3 24.5 3.3 C 24.8 3.3 25.1 3.4 25.4 3.5 C 25.4 3.5 25.4 3.4 25.4 3.4 C 25.4 2.9 25.1 2.7 24.6 2.7 C 24.2 2.7 23.9 2.8 23.5 2.9 C 23.5 2.9 23.3 2.1 23.3 2.1 C 23.7 1.9 24.2 1.8 24.7 1.8 C 25.3 1.8 25.7 1.9 26 2.2 C 26.3 2.5 26.4 2.9 26.4 3.4 C 26.4 3.42 26.4 5.6 26.4 5.6 L 25.4 5.6 L 25.4 5.2 C 25.4 5.2 25.37 5.19 25.4 5.2 Z M 24.6 4.9 C 24.8 4.9 25 4.9 25.2 4.8 C 25.3 4.6 25.4 4.5 25.4 4.3 C 25.4 4.3 25.4 4.1 25.4 4.1 C 25.2 4 25 3.9 24.7 3.9 C 24.5 3.9 24.3 4 24.2 4.1 C 24 4.2 24 4.3 24 4.5 C 24 4.5 24 4.5 24 4.5 C 24 4.6 24 4.7 24.1 4.8 C 24.2 4.9 24.4 4.9 24.6 4.9 Z M 29.5 5.6 L 29.5 0.7 C 29.5 0.7 31.53 0.7 31.5 0.7 C 32.1 0.7 32.6 0.9 32.9 1.2 C 33.2 1.5 33.4 1.9 33.4 2.4 C 33.4 2.4 33.4 2.4 33.4 2.4 C 33.4 3 33.2 3.4 32.8 3.7 C 32.5 4 32 4.1 31.4 4.1 C 31.42 4.13 30.6 4.1 30.6 4.1 L 30.6 5.6 L 29.5 5.6 Z M 30.6 3.2 C 30.6 3.2 31.46 3.17 31.5 3.2 C 31.7 3.2 31.9 3.1 32.1 3 C 32.2 2.8 32.3 2.6 32.3 2.4 C 32.3 2.4 32.3 2.4 32.3 2.4 C 32.3 2.2 32.2 2 32.1 1.9 C 31.9 1.7 31.7 1.7 31.4 1.7 C 31.44 1.67 30.6 1.7 30.6 1.7 L 30.6 3.2 Z M 34.2 5.6 L 34.2 0.7 C 34.2 0.7 36.44 0.7 36.4 0.7 C 37.1 0.7 37.5 0.9 37.9 1.2 C 38.1 1.5 38.3 1.9 38.3 2.3 C 38.3 2.3 38.3 2.3 38.3 2.3 C 38.3 3.1 37.9 3.6 37.2 3.8 C 37.24 3.85 38.4 5.6 38.4 5.6 L 37.2 5.6 L 36.1 4 L 35.3 4 L 35.3 5.6 L 34.2 5.6 Z M 35.3 3.1 C 35.3 3.1 36.37 3.08 36.4 3.1 C 36.6 3.1 36.8 3 37 2.9 C 37.1 2.8 37.2 2.6 37.2 2.4 C 37.2 2.4 37.2 2.4 37.2 2.4 C 37.2 2.1 37.1 2 37 1.9 C 36.8 1.7 36.6 1.7 36.4 1.7 C 36.35 1.67 35.3 1.7 35.3 1.7 L 35.3 3.1 Z M 39.3 5.6 L 39.3 0.7 L 40.4 0.7 L 40.4 5.6 L 39.3 5.6 Z M 41.6 5.6 L 41.6 0.7 L 42.8 0.7 L 44.1 2.8 L 45.4 0.7 L 46.5 0.7 L 46.5 5.6 L 45.4 5.6 L 45.4 2.4 L 44.1 4.5 L 44 4.5 L 42.7 2.4 L 42.7 5.6 L 41.6 5.6 Z M 47.7 5.6 L 47.7 0.7 L 51.4 0.7 L 51.4 1.7 L 48.8 1.7 L 48.8 2.7 L 51.1 2.7 L 51.1 3.6 L 48.8 3.6 L 48.8 4.6 L 51.4 4.6 L 51.4 5.6 L 47.7 5.6 Z M 52.4 5.6 L 52.4 0.7 L 53.5 0.7 L 53.5 4.6 L 55.9 4.6 L 55.9 5.6 L 52.4 5.6 Z M 56.8 5.6 L 56.8 0.7 L 57.8 0.7 L 57.8 5.6 L 56.8 5.6 Z M 59.1 5.6 L 59.1 0.7 L 60.1 0.7 L 62.4 3.7 L 62.4 0.7 L 63.4 0.7 L 63.4 5.6 L 62.5 5.6 L 60.1 2.5 L 60.1 5.6 L 59.1 5.6 Z M 64.6 5.6 L 64.6 0.7 L 68.3 0.7 L 68.3 1.7 L 65.7 1.7 L 65.7 2.7 L 68 2.7 L 68 3.6 L 65.7 3.6 L 65.7 4.6 L 68.3 4.6 L 68.3 5.6 L 64.6 5.6 Z " stroke="none" fill="#000"/>  </g></svg>