<?xml version="1.0" standalone="no"?><!DOCTYPE svg PUBLIC "-//W3C//DTD SVG 1.1//EN" "http://www.w3.org/Graphics/SVG/1.1/DTD/svg11.dtd"><svg xmlns="http://www.w3.org/2000/svg" version="1.1" width="69.5px" height="21px" viewBox="0 -1 69.5 21" style="top:-1px">  <desc>₺2.891,74</desc>  <defs/>  <g id="Polygon50850">    <path d="M 2.7 4.1 L 2.7 12.7 L 1.6 12.7 L 1.6 4.1 L 2.7 4.1 Z M 5 8.1 L 6.2 8.1 C 6.2 8.1 6.16 8.66 6.2 8.7 C 6.2 9.3 6.1 9.9 5.9 10.4 C 5.8 10.9 5.5 11.3 5.2 11.7 C 4.9 12 4.6 12.3 4.1 12.5 C 3.7 12.7 3.2 12.8 2.7 12.8 C 2.5 12.8 2.4 12.8 2.2 12.7 C 2 12.7 1.8 12.7 1.6 12.7 C 1.6 12.7 2.7 11.8 2.7 11.8 C 3.1 11.8 3.4 11.7 3.7 11.6 C 4 11.5 4.2 11.3 4.4 11 C 4.6 10.7 4.8 10.4 4.9 10 C 5 9.6 5 9.2 5 8.7 C 5.04 8.66 5 8.1 5 8.1 Z M 4.2 5 L 4.2 6 L 0.2 7.8 L 0.2 6.8 L 4.2 5 Z M 4.2 6.9 L 4.2 7.9 L 0.2 9.8 L 0.2 8.7 L 4.2 6.9 Z M 13 11.8 L 13 12.7 L 7.4 12.7 L 7.4 11.9 C 7.4 11.9 10.19 8.77 10.2 8.8 C 10.5 8.4 10.8 8.1 11 7.8 C 11.2 7.5 11.3 7.3 11.4 7.1 C 11.5 6.9 11.5 6.6 11.5 6.4 C 11.5 6.1 11.4 5.9 11.3 5.7 C 11.2 5.4 11 5.2 10.8 5.1 C 10.6 5 10.3 4.9 10 4.9 C 9.6 4.9 9.3 5 9.1 5.1 C 8.8 5.3 8.6 5.5 8.5 5.7 C 8.4 6 8.3 6.3 8.3 6.6 C 8.3 6.6 7.2 6.6 7.2 6.6 C 7.2 6.2 7.3 5.7 7.5 5.3 C 7.8 4.9 8.1 4.6 8.5 4.4 C 8.9 4.1 9.4 4 10 4 C 10.6 4 11 4.1 11.4 4.3 C 11.8 4.5 12.1 4.8 12.3 5.1 C 12.5 5.4 12.6 5.8 12.6 6.3 C 12.6 6.5 12.5 6.8 12.5 7.1 C 12.4 7.3 12.3 7.6 12.1 7.8 C 12 8.1 11.8 8.3 11.6 8.6 C 11.4 8.8 11.2 9.1 11 9.3 C 10.99 9.3 8.7 11.8 8.7 11.8 L 13 11.8 Z M 14.3 12.1 C 14.3 11.9 14.3 11.8 14.4 11.6 C 14.6 11.5 14.7 11.4 14.9 11.4 C 15.2 11.4 15.3 11.5 15.4 11.6 C 15.6 11.8 15.6 11.9 15.6 12.1 C 15.6 12.3 15.6 12.4 15.4 12.5 C 15.3 12.7 15.2 12.7 14.9 12.7 C 14.7 12.7 14.6 12.7 14.4 12.5 C 14.3 12.4 14.3 12.3 14.3 12.1 Z M 22.7 10.4 C 22.7 10.9 22.6 11.3 22.3 11.7 C 22.1 12 21.8 12.3 21.3 12.5 C 20.9 12.7 20.5 12.8 20 12.8 C 19.5 12.8 19 12.7 18.6 12.5 C 18.2 12.3 17.8 12 17.6 11.7 C 17.4 11.3 17.3 10.9 17.3 10.4 C 17.3 10 17.3 9.7 17.4 9.4 C 17.6 9.1 17.8 8.9 18 8.7 C 18.2 8.5 18.5 8.3 18.9 8.2 C 19.2 8.1 19.6 8 20 8 C 20.5 8 20.9 8.1 21.4 8.3 C 21.8 8.5 22.1 8.8 22.3 9.1 C 22.6 9.5 22.7 9.9 22.7 10.4 Z M 21.6 10.3 C 21.6 10 21.5 9.7 21.4 9.5 C 21.2 9.2 21.1 9.1 20.8 8.9 C 20.6 8.8 20.3 8.7 20 8.7 C 19.6 8.7 19.3 8.8 19.1 8.9 C 18.9 9.1 18.7 9.2 18.5 9.5 C 18.4 9.7 18.3 10 18.3 10.3 C 18.3 10.7 18.4 10.9 18.5 11.2 C 18.7 11.4 18.8 11.6 19.1 11.7 C 19.3 11.8 19.6 11.9 20 11.9 C 20.3 11.9 20.6 11.8 20.8 11.7 C 21.1 11.6 21.3 11.4 21.4 11.2 C 21.5 10.9 21.6 10.7 21.6 10.3 Z M 22.5 6.4 C 22.5 6.8 22.4 7.1 22.1 7.5 C 21.9 7.8 21.6 8.1 21.3 8.3 C 20.9 8.5 20.4 8.5 20 8.5 C 19.5 8.5 19 8.5 18.7 8.3 C 18.3 8.1 18 7.8 17.8 7.5 C 17.6 7.1 17.4 6.8 17.4 6.4 C 17.4 5.9 17.6 5.4 17.8 5.1 C 18 4.7 18.3 4.5 18.7 4.3 C 19 4.1 19.5 4 20 4 C 20.4 4 20.9 4.1 21.3 4.3 C 21.6 4.5 21.9 4.7 22.2 5.1 C 22.4 5.4 22.5 5.9 22.5 6.4 Z M 21.4 6.4 C 21.4 6.1 21.3 5.8 21.2 5.6 C 21.1 5.4 20.9 5.2 20.7 5.1 C 20.5 5 20.2 4.9 20 4.9 C 19.7 4.9 19.4 5 19.2 5.1 C 19 5.2 18.8 5.4 18.7 5.6 C 18.6 5.8 18.5 6.1 18.5 6.4 C 18.5 6.7 18.6 6.9 18.7 7.1 C 18.8 7.4 19 7.5 19.2 7.6 C 19.4 7.8 19.7 7.8 20 7.8 C 20.2 7.8 20.5 7.8 20.7 7.6 C 20.9 7.5 21.1 7.4 21.2 7.1 C 21.3 6.9 21.4 6.7 21.4 6.4 Z M 25.1 11.8 C 25.1 11.8 25.23 11.76 25.2 11.8 C 25.9 11.8 26.4 11.7 26.8 11.5 C 27.1 11.3 27.4 11.1 27.7 10.8 C 27.9 10.5 28 10.2 28.1 9.8 C 28.2 9.4 28.2 9 28.2 8.6 C 28.2 8.6 28.2 7.3 28.2 7.3 C 28.2 6.9 28.2 6.6 28.1 6.3 C 28 6 27.9 5.7 27.7 5.5 C 27.6 5.3 27.4 5.2 27.2 5.1 C 27 5 26.8 4.9 26.6 4.9 C 26.3 4.9 26.1 5 25.9 5.1 C 25.7 5.2 25.5 5.3 25.4 5.5 C 25.3 5.7 25.2 5.9 25.1 6.1 C 25 6.4 25 6.6 25 6.9 C 25 7.2 25 7.4 25.1 7.6 C 25.1 7.9 25.2 8.1 25.4 8.3 C 25.5 8.5 25.7 8.6 25.8 8.7 C 26 8.9 26.3 8.9 26.5 8.9 C 26.8 8.9 27 8.9 27.2 8.8 C 27.4 8.7 27.6 8.5 27.8 8.4 C 27.9 8.2 28.1 8 28.2 7.8 C 28.3 7.6 28.3 7.4 28.4 7.1 C 28.4 7.1 28.9 7.1 28.9 7.1 C 28.9 7.5 28.8 7.8 28.7 8.1 C 28.6 8.4 28.4 8.7 28.1 9 C 27.9 9.2 27.7 9.4 27.4 9.6 C 27 9.7 26.7 9.8 26.4 9.8 C 25.9 9.8 25.6 9.7 25.3 9.6 C 25 9.4 24.7 9.2 24.5 8.9 C 24.3 8.6 24.2 8.3 24.1 8 C 24 7.7 23.9 7.3 23.9 7 C 23.9 6.6 24 6.2 24.1 5.8 C 24.2 5.5 24.4 5.2 24.6 4.9 C 24.8 4.6 25.1 4.4 25.4 4.2 C 25.8 4.1 26.1 4 26.6 4 C 27.1 4 27.5 4.1 27.8 4.3 C 28.2 4.5 28.4 4.8 28.7 5.1 C 28.9 5.4 29 5.8 29.1 6.2 C 29.2 6.6 29.3 7 29.3 7.5 C 29.3 7.5 29.3 7.9 29.3 7.9 C 29.3 8.3 29.3 8.8 29.2 9.2 C 29.1 9.7 29 10.1 28.9 10.5 C 28.7 10.9 28.5 11.3 28.2 11.6 C 27.9 11.9 27.5 12.2 27 12.4 C 26.5 12.6 25.9 12.7 25.2 12.7 C 25.23 12.68 25.1 12.7 25.1 12.7 L 25.1 11.8 Z M 34.3 4.1 L 34.3 12.7 L 33.3 12.7 L 33.3 5.4 L 31.1 6.2 L 31.1 5.3 L 34.2 4.1 L 34.3 4.1 Z M 38.6 11.4 C 38.6 11.4 38.63 12.25 38.6 12.2 C 38.6 12.6 38.5 13 38.4 13.4 C 38.2 13.8 37.9 14.1 37.6 14.4 C 37.6 14.4 37 13.9 37 13.9 C 37.1 13.8 37.2 13.6 37.3 13.4 C 37.4 13.2 37.5 13.1 37.5 12.9 C 37.5 12.7 37.6 12.5 37.6 12.3 C 37.57 12.27 37.6 11.4 37.6 11.4 L 38.6 11.4 Z M 45.4 4.1 L 45.4 4.7 L 41.9 12.7 L 40.7 12.7 L 44.3 5 L 39.6 5 L 39.6 4.1 L 45.4 4.1 Z M 52.4 9.8 L 52.4 10.7 L 46.2 10.7 L 46.2 10 L 50.1 4.1 L 50.9 4.1 L 50 5.8 L 47.5 9.8 L 52.4 9.8 Z M 51.2 4.1 L 51.2 12.7 L 50.1 12.7 L 50.1 4.1 L 51.2 4.1 Z " stroke="none" fill="#000"/>  </g></svg>