<?xml version="1.0" standalone="no"?><!DOCTYPE svg PUBLIC "-//W3C//DTD SVG 1.1//EN" "http://www.w3.org/Graphics/SVG/1.1/DTD/svg11.dtd"><svg xmlns="http://www.w3.org/2000/svg" version="1.1" width="304.3px" height="163.8px" viewBox="0 -4 304.3 163.8" style="top:-4px">  <desc>Her zaman yan n zda k SINGLES tepsiler, evinizin her yerinde ta ma, d zenleme ve dekoratif bir dokunu katmak i in...</desc>  <defs/>  <g id="Polygon56379">    <path d="M 0.8 66 L 0.8 61.3 L 1.5 61.3 C 1.5 61.3 1.47 62.56 1.5 62.6 C 1.6 62.2 1.9 61.8 2.2 61.6 C 2.6 61.4 2.9 61.3 3.4 61.3 C 3.37 61.27 3.4 62 3.4 62 C 3.4 62 3.31 62.01 3.3 62 C 2.8 62 2.3 62.2 2 62.6 C 1.6 62.9 1.5 63.5 1.5 64.1 C 1.47 64.15 1.5 66 1.5 66 L 0.8 66 Z M 8.4 65.2 C 7.9 65.8 7.2 66.1 6.5 66.1 C 5.8 66.1 5.3 65.9 4.8 65.4 C 4.4 65 4.1 64.4 4.1 63.7 C 4.1 63.7 4.1 63.7 4.1 63.7 C 4.1 63 4.3 62.4 4.8 61.9 C 5.2 61.5 5.7 61.2 6.4 61.2 C 7 61.2 7.6 61.5 7.9 61.9 C 8.3 62.4 8.5 63 8.5 63.7 C 8.5 63.8 8.5 63.9 8.5 63.9 C 8.5 63.9 4.8 63.9 4.8 63.9 C 4.9 64.4 5.1 64.8 5.4 65.1 C 5.7 65.4 6 65.5 6.5 65.5 C 7 65.5 7.5 65.3 7.9 64.8 C 7.94 64.85 8.4 65.2 8.4 65.2 C 8.4 65.2 8.37 65.23 8.4 65.2 Z M 4.8 63.4 C 4.8 63.4 7.8 63.4 7.8 63.4 C 7.8 63 7.6 62.6 7.4 62.3 C 7.1 62 6.8 61.8 6.3 61.8 C 5.9 61.8 5.6 62 5.3 62.3 C 5 62.6 4.9 63 4.8 63.4 Z M 9.7 66 L 9.7 61.3 L 10.4 61.3 C 10.4 61.3 10.44 62.16 10.4 62.2 C 10.8 61.6 11.3 61.2 12 61.2 C 12.6 61.2 13 61.4 13.3 61.8 C 13.7 62.1 13.8 62.6 13.8 63.1 C 13.81 63.11 13.8 66 13.8 66 L 13.1 66 C 13.1 66 13.12 63.28 13.1 63.3 C 13.1 62.8 13 62.5 12.8 62.3 C 12.6 62 12.2 61.9 11.8 61.9 C 11.4 61.9 11.1 62 10.8 62.3 C 10.6 62.6 10.4 62.9 10.4 63.3 C 10.44 63.34 10.4 66 10.4 66 L 9.7 66 Z M 15.3 66 L 15.3 59.4 L 16 59.4 L 16 64 L 18.5 61.3 L 19.4 61.3 L 17.4 63.3 L 19.4 66 L 18.6 66 L 16.9 63.8 L 16 64.8 L 16 66 L 15.3 66 Z M 24.7 66.1 C 23.9 66.1 23.3 65.9 22.7 65.4 C 22.7 65.4 23.1 64.9 23.1 64.9 C 23.6 65.3 24.1 65.5 24.7 65.5 C 25 65.5 25.2 65.4 25.4 65.3 C 25.6 65.2 25.6 65 25.6 64.8 C 25.6 64.8 25.6 64.7 25.6 64.7 C 25.6 64.5 25.6 64.4 25.4 64.3 C 25.2 64.1 24.9 64 24.5 63.9 C 24.3 63.9 24.2 63.8 24.1 63.8 C 24 63.8 23.9 63.7 23.8 63.7 C 23.6 63.6 23.5 63.6 23.4 63.5 C 23.4 63.5 23.3 63.4 23.2 63.3 C 23.1 63.2 23 63.1 23 63 C 23 62.9 22.9 62.8 22.9 62.6 C 22.9 62.6 22.9 62.6 22.9 62.6 C 22.9 62.2 23.1 61.9 23.4 61.6 C 23.7 61.4 24.1 61.3 24.5 61.3 C 25.1 61.3 25.7 61.4 26.2 61.8 C 26.2 61.8 25.9 62.3 25.9 62.3 C 25.4 62 25 61.9 24.5 61.9 C 24.2 61.9 24 61.9 23.9 62 C 23.7 62.2 23.6 62.3 23.6 62.5 C 23.6 62.5 23.6 62.5 23.6 62.5 C 23.6 62.6 23.6 62.7 23.7 62.8 C 23.7 62.8 23.8 62.9 23.8 63 C 23.9 63 24 63.1 24.1 63.1 C 24.3 63.2 24.4 63.2 24.4 63.2 C 24.5 63.3 24.6 63.3 24.8 63.3 C 25 63.4 25.1 63.4 25.2 63.5 C 25.4 63.5 25.5 63.6 25.6 63.7 C 25.8 63.7 25.9 63.8 26 63.9 C 26.1 64 26.2 64.1 26.2 64.2 C 26.3 64.4 26.3 64.5 26.3 64.7 C 26.3 64.7 26.3 64.7 26.3 64.7 C 26.3 65.1 26.2 65.5 25.8 65.7 C 25.5 66 25.1 66.1 24.7 66.1 Z M 31.5 65.2 C 31 65.8 30.4 66.1 29.6 66.1 C 29 66.1 28.4 65.9 28 65.4 C 27.5 65 27.3 64.4 27.3 63.7 C 27.3 63.7 27.3 63.7 27.3 63.7 C 27.3 63 27.5 62.4 27.9 61.9 C 28.4 61.5 28.9 61.2 29.5 61.2 C 30.2 61.2 30.7 61.5 31.1 61.9 C 31.5 62.4 31.7 63 31.7 63.7 C 31.7 63.8 31.7 63.9 31.7 63.9 C 31.7 63.9 28 63.9 28 63.9 C 28.1 64.4 28.2 64.8 28.5 65.1 C 28.9 65.4 29.2 65.5 29.6 65.5 C 30.2 65.5 30.7 65.3 31.1 64.8 C 31.11 64.85 31.5 65.2 31.5 65.2 C 31.5 65.2 31.54 65.23 31.5 65.2 Z M 28 63.4 C 28 63.4 31 63.4 31 63.4 C 31 63 30.8 62.6 30.6 62.3 C 30.3 62 30 61.8 29.5 61.8 C 29.1 61.8 28.8 62 28.5 62.3 C 28.2 62.6 28.1 63 28 63.4 Z M 34.6 67.4 L 33.9 67.1 C 33.9 67.1 34.59 66.06 34.6 66.1 C 34 66 33.6 65.7 33.2 65.2 C 32.8 64.8 32.6 64.3 32.6 63.7 C 32.6 63.7 32.6 63.7 32.6 63.7 C 32.6 63 32.9 62.4 33.3 62 C 33.8 61.5 34.3 61.2 35 61.2 C 35.7 61.2 36.4 61.5 36.9 62.1 C 36.9 62.1 36.4 62.6 36.4 62.6 C 36 62.1 35.5 61.9 35 61.9 C 34.5 61.9 34.1 62 33.8 62.4 C 33.5 62.7 33.3 63.2 33.3 63.7 C 33.3 63.7 33.3 63.7 33.3 63.7 C 33.3 64.2 33.5 64.6 33.8 65 C 34.2 65.3 34.6 65.5 35.1 65.5 C 35.6 65.5 36 65.3 36.5 64.8 C 36.5 64.8 36.9 65.2 36.9 65.2 C 36.4 65.8 35.8 66.1 35.2 66.1 C 35.15 66.1 34.6 67.4 34.6 67.4 Z M 42 65.2 C 41.5 65.8 40.9 66.1 40.1 66.1 C 39.4 66.1 38.9 65.9 38.4 65.4 C 38 65 37.8 64.4 37.8 63.7 C 37.8 63.7 37.8 63.7 37.8 63.7 C 37.8 63 38 62.4 38.4 61.9 C 38.8 61.5 39.4 61.2 40 61.2 C 40.7 61.2 41.2 61.5 41.6 61.9 C 42 62.4 42.2 63 42.2 63.7 C 42.2 63.8 42.2 63.9 42.2 63.9 C 42.2 63.9 38.5 63.9 38.5 63.9 C 38.5 64.4 38.7 64.8 39 65.1 C 39.3 65.4 39.7 65.5 40.1 65.5 C 40.7 65.5 41.2 65.3 41.6 64.8 C 41.58 64.85 42 65.2 42 65.2 C 42 65.2 42.01 65.23 42 65.2 Z M 38.5 63.4 C 38.5 63.4 41.5 63.4 41.5 63.4 C 41.4 63 41.3 62.6 41 62.3 C 40.8 62 40.4 61.8 40 61.8 C 39.6 61.8 39.2 62 39 62.3 C 38.7 62.6 38.5 63 38.5 63.4 Z M 43.4 66 L 43.4 61.3 L 44.1 61.3 C 44.1 61.3 44.08 62.16 44.1 62.2 C 44.5 61.6 45 61.2 45.7 61.2 C 46.2 61.2 46.7 61.4 47 61.8 C 47.3 62.1 47.5 62.6 47.5 63.1 C 47.46 63.11 47.5 66 47.5 66 L 46.8 66 C 46.8 66 46.76 63.28 46.8 63.3 C 46.8 62.8 46.7 62.5 46.4 62.3 C 46.2 62 45.9 61.9 45.5 61.9 C 45.1 61.9 44.7 62 44.5 62.3 C 44.2 62.6 44.1 62.9 44.1 63.3 C 44.08 63.34 44.1 66 44.1 66 L 43.4 66 Z M 52.9 65.2 C 52.4 65.8 51.7 66.1 51 66.1 C 50.3 66.1 49.8 65.9 49.3 65.4 C 48.9 65 48.6 64.4 48.6 63.7 C 48.6 63.7 48.6 63.7 48.6 63.7 C 48.6 63 48.9 62.4 49.3 61.9 C 49.7 61.5 50.2 61.2 50.9 61.2 C 51.5 61.2 52.1 61.5 52.5 61.9 C 52.9 62.4 53 63 53 63.7 C 53 63.8 53 63.9 53 63.9 C 53 63.9 49.3 63.9 49.3 63.9 C 49.4 64.4 49.6 64.8 49.9 65.1 C 50.2 65.4 50.6 65.5 51 65.5 C 51.5 65.5 52 65.3 52.5 64.8 C 52.45 64.85 52.9 65.2 52.9 65.2 C 52.9 65.2 52.88 65.23 52.9 65.2 Z M 49.3 63.4 C 49.3 63.4 52.3 63.4 52.3 63.4 C 52.3 63 52.2 62.6 51.9 62.3 C 51.7 62 51.3 61.8 50.9 61.8 C 50.5 61.8 50.1 62 49.8 62.3 C 49.6 62.6 49.4 63 49.3 63.4 Z M 54.3 66 L 54.3 59.4 L 55 59.4 L 55 64 L 57.5 61.3 L 58.3 61.3 L 56.4 63.3 L 58.4 66 L 57.6 66 L 55.9 63.8 L 55 64.8 L 55 66 L 54.3 66 Z M 59.4 66 L 59.4 59.4 L 60.1 59.4 L 60.1 66 L 59.4 66 Z M 65.7 65.2 C 65.2 65.8 64.6 66.1 63.8 66.1 C 63.1 66.1 62.6 65.9 62.1 65.4 C 61.7 65 61.5 64.4 61.5 63.7 C 61.5 63.7 61.5 63.7 61.5 63.7 C 61.5 63 61.7 62.4 62.1 61.9 C 62.5 61.5 63.1 61.2 63.7 61.2 C 64.4 61.2 64.9 61.5 65.3 61.9 C 65.7 62.4 65.9 63 65.9 63.7 C 65.9 63.8 65.9 63.9 65.9 63.9 C 65.9 63.9 62.2 63.9 62.2 63.9 C 62.2 64.4 62.4 64.8 62.7 65.1 C 63 65.4 63.4 65.5 63.8 65.5 C 64.4 65.5 64.8 65.3 65.3 64.8 C 65.27 64.85 65.7 65.2 65.7 65.2 C 65.7 65.2 65.7 65.23 65.7 65.2 Z M 62.2 63.4 C 62.2 63.4 65.2 63.4 65.2 63.4 C 65.1 63 65 62.6 64.7 62.3 C 64.5 62 64.1 61.8 63.7 61.8 C 63.3 61.8 62.9 62 62.7 62.3 C 62.4 62.6 62.2 63 62.2 63.4 Z M 67.1 66 L 67.1 61.3 L 67.8 61.3 C 67.8 61.3 67.77 62.56 67.8 62.6 C 67.9 62.2 68.2 61.8 68.5 61.6 C 68.9 61.4 69.2 61.3 69.7 61.3 C 69.67 61.27 69.7 62 69.7 62 C 69.7 62 69.61 62.01 69.6 62 C 69.1 62 68.6 62.2 68.3 62.6 C 67.9 62.9 67.8 63.5 67.8 64.1 C 67.77 64.15 67.8 66 67.8 66 L 67.1 66 Z M 70.7 60.3 L 70.7 59.6 L 71.5 59.6 L 71.5 60.3 L 70.7 60.3 Z M 70.8 66 L 70.8 61.3 L 71.5 61.3 L 71.5 66 L 70.8 66 Z M 75.8 66 L 75.8 61.3 L 76.5 61.3 C 76.5 61.3 76.48 62.13 76.5 62.1 C 76.7 61.9 76.9 61.6 77.1 61.5 C 77.3 61.3 77.6 61.2 78 61.2 C 78.7 61.2 79.2 61.6 79.5 62.2 C 79.9 61.6 80.4 61.2 81.1 61.2 C 81.7 61.2 82.1 61.4 82.4 61.7 C 82.7 62.1 82.8 62.5 82.8 63.1 C 82.84 63.12 82.8 66 82.8 66 L 82.2 66 C 82.2 66 82.15 63.28 82.2 63.3 C 82.2 62.8 82 62.5 81.8 62.2 C 81.6 62 81.3 61.9 80.9 61.9 C 80.6 61.9 80.3 62 80 62.3 C 79.8 62.5 79.7 62.9 79.7 63.3 C 79.66 63.32 79.7 66 79.7 66 L 79 66 C 79 66 78.97 63.26 79 63.3 C 79 62.8 78.9 62.5 78.7 62.2 C 78.4 62 78.1 61.9 77.8 61.9 C 77.4 61.9 77.1 62 76.8 62.3 C 76.6 62.6 76.5 62.9 76.5 63.3 C 76.48 63.34 76.5 66 76.5 66 L 75.8 66 Z M 88.3 65.2 C 87.8 65.8 87.1 66.1 86.4 66.1 C 85.7 66.1 85.2 65.9 84.7 65.4 C 84.3 65 84 64.4 84 63.7 C 84 63.7 84 63.7 84 63.7 C 84 63 84.2 62.4 84.7 61.9 C 85.1 61.5 85.6 61.2 86.3 61.2 C 86.9 61.2 87.5 61.5 87.8 61.9 C 88.2 62.4 88.4 63 88.4 63.7 C 88.4 63.8 88.4 63.9 88.4 63.9 C 88.4 63.9 84.7 63.9 84.7 63.9 C 84.8 64.4 85 64.8 85.3 65.1 C 85.6 65.4 85.9 65.5 86.4 65.5 C 86.9 65.5 87.4 65.3 87.8 64.8 C 87.84 64.85 88.3 65.2 88.3 65.2 C 88.3 65.2 88.27 65.23 88.3 65.2 Z M 84.7 63.4 C 84.7 63.4 87.7 63.4 87.7 63.4 C 87.7 63 87.5 62.6 87.3 62.3 C 87 62 86.7 61.8 86.2 61.8 C 85.8 61.8 85.5 62 85.2 62.3 C 84.9 62.6 84.8 63 84.7 63.4 Z M 91.2 66 L 89.2 61.3 L 90 61.3 L 91.5 65.2 L 93.1 61.3 L 93.8 61.3 L 91.8 66 L 91.2 66 Z M 98.9 65.2 C 98.4 65.8 97.8 66.1 97 66.1 C 96.3 66.1 95.8 65.9 95.3 65.4 C 94.9 64.9 94.6 64.4 94.6 63.7 C 94.6 63.7 94.6 63.7 94.6 63.7 C 94.6 63 94.9 62.4 95.3 62 C 95.8 61.5 96.3 61.2 97 61.2 C 97.7 61.2 98.4 61.5 98.9 62.1 C 98.9 62.1 98.4 62.6 98.4 62.6 C 98 62.1 97.5 61.9 97 61.9 C 96.5 61.9 96.1 62 95.8 62.4 C 95.5 62.7 95.4 63.2 95.4 63.7 C 95.4 63.7 95.4 63.7 95.4 63.7 C 95.4 64.2 95.5 64.6 95.8 65 C 96.2 65.3 96.6 65.5 97.1 65.5 C 97.6 65.5 98.1 65.3 98.5 64.8 C 98.49 64.79 98.9 65.2 98.9 65.2 C 98.9 65.2 98.93 65.21 98.9 65.2 Z M 103.4 65.2 C 103 65.8 102.5 66.1 101.8 66.1 C 101.2 66.1 100.8 65.9 100.5 65.6 C 100.2 65.2 100 64.8 100 64.2 C 100 64.24 100 61.3 100 61.3 L 100.7 61.3 C 100.7 61.3 100.69 64.06 100.7 64.1 C 100.7 64.5 100.8 64.8 101 65.1 C 101.3 65.3 101.6 65.5 102 65.5 C 102.4 65.5 102.7 65.3 103 65.1 C 103.2 64.8 103.4 64.4 103.4 64 C 103.37 64.01 103.4 61.3 103.4 61.3 L 104.1 61.3 L 104.1 66 L 103.4 66 L 103.4 65.2 C 103.4 65.2 103.37 65.19 103.4 65.2 Z M 108 65.9 C 107.8 66 107.5 66.1 107.2 66.1 C 106.8 66.1 106.4 66 106.2 65.8 C 106 65.5 105.9 65.2 105.9 64.8 C 105.86 64.77 105.9 62 105.9 62 L 105.2 62 L 105.2 61.3 L 105.9 61.3 L 105.9 59.9 L 106.5 59.9 L 106.5 61.3 L 108 61.3 L 108 62 L 106.5 62 C 106.5 62 106.55 64.68 106.5 64.7 C 106.5 65.2 106.8 65.5 107.3 65.5 C 107.6 65.5 107.8 65.4 108 65.3 C 108.01 65.29 108 65.9 108 65.9 C 108 65.9 108.01 65.88 108 65.9 Z M 111.6 65.9 C 111.4 66 111.1 66.1 110.8 66.1 C 110.4 66.1 110.1 66 109.8 65.8 C 109.6 65.5 109.5 65.2 109.5 64.8 C 109.49 64.77 109.5 62 109.5 62 L 108.8 62 L 108.8 61.3 L 109.5 61.3 L 109.5 59.9 L 110.2 59.9 L 110.2 61.3 L 111.7 61.3 L 111.7 62 L 110.2 62 C 110.2 62 110.19 64.68 110.2 64.7 C 110.2 65.2 110.4 65.5 111 65.5 C 111.2 65.5 111.4 65.4 111.6 65.3 C 111.64 65.29 111.6 65.9 111.6 65.9 C 111.6 65.9 111.64 65.88 111.6 65.9 Z M 116.2 65.2 C 115.8 65.8 115.3 66.1 114.6 66.1 C 114 66.1 113.6 65.9 113.3 65.6 C 113 65.2 112.8 64.8 112.8 64.2 C 112.81 64.24 112.8 61.3 112.8 61.3 L 113.5 61.3 C 113.5 61.3 113.51 64.06 113.5 64.1 C 113.5 64.5 113.6 64.8 113.8 65.1 C 114.1 65.3 114.4 65.5 114.8 65.5 C 115.2 65.5 115.5 65.3 115.8 65.1 C 116.1 64.8 116.2 64.4 116.2 64 C 116.19 64.01 116.2 61.3 116.2 61.3 L 116.9 61.3 L 116.9 66 L 116.2 66 L 116.2 65.2 C 116.2 65.2 116.19 65.19 116.2 65.2 Z M 118.4 66 L 118.4 61.3 L 119.1 61.3 C 119.1 61.3 119.12 62.56 119.1 62.6 C 119.3 62.2 119.6 61.8 119.9 61.6 C 120.2 61.4 120.6 61.3 121 61.3 C 121.02 61.27 121 62 121 62 C 121 62 120.97 62.01 121 62 C 120.4 62 120 62.2 119.6 62.6 C 119.3 62.9 119.1 63.5 119.1 64.1 C 119.12 64.15 119.1 66 119.1 66 L 118.4 66 Z M 122 66 L 122 65.1 L 122.8 65.1 L 122.8 66 L 122 66 Z " stroke="none" fill="#000"/>  </g>  <g id="Polygon56378">    <path d="M 4.5 51.1 C 4 51.8 3.4 52.1 2.7 52.1 C 2.1 52.1 1.6 51.9 1.2 51.4 C 0.7 51 0.5 50.4 0.5 49.7 C 0.5 49.7 0.5 49.7 0.5 49.7 C 0.5 48.9 0.7 48.4 1.2 47.9 C 1.6 47.5 2.1 47.2 2.7 47.2 C 3.5 47.2 4.1 47.6 4.5 48.2 C 4.51 48.24 4.5 45.4 4.5 45.4 L 5.2 45.4 L 5.2 52 L 4.5 52 L 4.5 51.1 C 4.5 51.1 4.51 51.06 4.5 51.1 Z M 2.9 51.5 C 3.3 51.5 3.7 51.3 4 51 C 4.4 50.6 4.5 50.2 4.5 49.7 C 4.5 49.7 4.5 49.7 4.5 49.7 C 4.5 49.1 4.4 48.7 4 48.4 C 3.7 48 3.3 47.9 2.9 47.9 C 2.4 47.9 2 48 1.7 48.4 C 1.4 48.7 1.2 49.1 1.2 49.7 C 1.2 49.7 1.2 49.7 1.2 49.7 C 1.2 50.2 1.4 50.7 1.7 51 C 2 51.3 2.4 51.5 2.9 51.5 Z M 10.7 51.2 C 10.2 51.8 9.6 52.1 8.8 52.1 C 8.1 52.1 7.6 51.9 7.1 51.4 C 6.7 51 6.5 50.4 6.5 49.7 C 6.5 49.7 6.5 49.7 6.5 49.7 C 6.5 49 6.7 48.4 7.1 47.9 C 7.5 47.5 8.1 47.2 8.7 47.2 C 9.4 47.2 9.9 47.5 10.3 47.9 C 10.7 48.4 10.9 49 10.9 49.7 C 10.9 49.8 10.9 49.9 10.9 49.9 C 10.9 49.9 7.2 49.9 7.2 49.9 C 7.2 50.4 7.4 50.8 7.7 51.1 C 8 51.4 8.4 51.5 8.8 51.5 C 9.4 51.5 9.8 51.3 10.3 50.8 C 10.27 50.85 10.7 51.2 10.7 51.2 C 10.7 51.2 10.7 51.23 10.7 51.2 Z M 7.2 49.4 C 7.2 49.4 10.2 49.4 10.2 49.4 C 10.1 49 10 48.6 9.7 48.3 C 9.5 48 9.1 47.8 8.7 47.8 C 8.3 47.8 7.9 48 7.7 48.3 C 7.4 48.6 7.2 49 7.2 49.4 Z M 12.1 52 L 12.1 45.4 L 12.8 45.4 L 12.8 50 L 15.3 47.3 L 16.1 47.3 L 14.2 49.3 L 16.2 52 L 15.4 52 L 13.7 49.8 L 12.8 50.8 L 12.8 52 L 12.1 52 Z M 19.3 52.1 C 18.6 52.1 18.1 51.9 17.6 51.4 C 17.1 50.9 16.9 50.4 16.9 49.7 C 16.9 49.7 16.9 49.7 16.9 49.7 C 16.9 49 17.1 48.4 17.6 48 C 18.1 47.5 18.6 47.2 19.3 47.2 C 20 47.2 20.6 47.5 21.1 48 C 21.5 48.4 21.8 49 21.8 49.7 C 21.8 49.7 21.8 49.7 21.8 49.7 C 21.8 50.3 21.5 50.9 21.1 51.4 C 20.6 51.9 20 52.1 19.3 52.1 Z M 19.3 51.5 C 19.8 51.5 20.2 51.3 20.6 51 C 20.9 50.6 21.1 50.2 21.1 49.7 C 21.1 49.7 21.1 49.7 21.1 49.7 C 21.1 49.2 20.9 48.7 20.6 48.4 C 20.2 48 19.8 47.9 19.3 47.9 C 18.8 47.9 18.4 48 18.1 48.4 C 17.8 48.7 17.6 49.2 17.6 49.7 C 17.6 49.7 17.6 49.7 17.6 49.7 C 17.6 50.2 17.8 50.6 18.1 51 C 18.4 51.3 18.9 51.5 19.3 51.5 Z M 23 52 L 23 47.3 L 23.7 47.3 C 23.7 47.3 23.71 48.56 23.7 48.6 C 23.9 48.2 24.1 47.8 24.5 47.6 C 24.8 47.4 25.2 47.3 25.6 47.3 C 25.6 47.27 25.6 48 25.6 48 C 25.6 48 25.55 48.01 25.6 48 C 25 48 24.6 48.2 24.2 48.6 C 23.9 48.9 23.7 49.5 23.7 50.1 C 23.71 50.15 23.7 52 23.7 52 L 23 52 Z M 29.7 51.3 C 29.3 51.8 28.8 52.1 28 52.1 C 27.6 52.1 27.2 52 26.8 51.7 C 26.5 51.5 26.3 51.1 26.3 50.6 C 26.3 50.6 26.3 50.6 26.3 50.6 C 26.3 50.2 26.5 49.8 26.9 49.5 C 27.2 49.3 27.7 49.1 28.3 49.1 C 28.8 49.1 29.2 49.2 29.7 49.3 C 29.7 49.3 29.7 49.2 29.7 49.2 C 29.7 48.8 29.6 48.4 29.4 48.2 C 29.1 48 28.8 47.9 28.3 47.9 C 27.9 47.9 27.4 48 26.9 48.2 C 26.9 48.2 26.7 47.7 26.7 47.7 C 27.3 47.4 27.8 47.3 28.4 47.3 C 29.1 47.3 29.6 47.5 29.9 47.8 C 30.2 48.1 30.4 48.6 30.4 49.2 C 30.39 49.16 30.4 52 30.4 52 L 29.7 52 L 29.7 51.3 C 29.7 51.3 29.73 51.3 29.7 51.3 Z M 28.2 51.5 C 28.6 51.5 29 51.4 29.3 51.2 C 29.6 51 29.7 50.7 29.7 50.3 C 29.7 50.3 29.7 49.8 29.7 49.8 C 29.3 49.7 28.8 49.6 28.4 49.6 C 27.9 49.6 27.6 49.7 27.4 49.9 C 27.1 50.1 27 50.3 27 50.6 C 27 50.6 27 50.6 27 50.6 C 27 50.9 27.1 51.1 27.4 51.3 C 27.6 51.5 27.9 51.5 28.2 51.5 Z M 34.3 51.9 C 34 52 33.7 52.1 33.4 52.1 C 33 52.1 32.7 52 32.5 51.8 C 32.2 51.5 32.1 51.2 32.1 50.8 C 32.11 50.77 32.1 48 32.1 48 L 31.5 48 L 31.5 47.3 L 32.1 47.3 L 32.1 45.9 L 32.8 45.9 L 32.8 47.3 L 34.3 47.3 L 34.3 48 L 32.8 48 C 32.8 48 32.8 50.68 32.8 50.7 C 32.8 51.2 33.1 51.5 33.6 51.5 C 33.8 51.5 34 51.4 34.3 51.3 C 34.26 51.29 34.3 51.9 34.3 51.9 C 34.3 51.9 34.26 51.88 34.3 51.9 Z M 35.5 46.3 L 35.5 45.6 L 36.3 45.6 L 36.3 46.3 L 35.5 46.3 Z M 35.6 52 L 35.6 47.3 L 36.3 47.3 L 36.3 52 L 35.6 52 Z M 38.1 52 L 38.1 48 L 37.5 48 L 37.5 47.4 L 38.1 47.4 C 38.1 47.4 38.13 46.95 38.1 47 C 38.1 46.4 38.3 46 38.5 45.8 C 38.8 45.5 39.1 45.4 39.5 45.4 C 39.8 45.4 40.1 45.4 40.3 45.5 C 40.3 45.5 40.3 46.1 40.3 46.1 C 40 46 39.8 46 39.6 46 C 39.1 46 38.8 46.3 38.8 47 C 38.82 46.99 38.8 47.4 38.8 47.4 L 40.3 47.4 L 40.3 48 L 38.8 48 L 38.8 52 L 38.1 52 Z M 46.3 52.1 C 45.6 52.1 45 51.8 44.6 51.1 C 44.57 51.11 44.6 52 44.6 52 L 43.9 52 L 43.9 45.4 L 44.6 45.4 C 44.6 45.4 44.57 48.28 44.6 48.3 C 45.1 47.6 45.6 47.2 46.3 47.2 C 46.9 47.2 47.5 47.5 47.9 47.9 C 48.4 48.3 48.6 48.9 48.6 49.7 C 48.6 49.7 48.6 49.7 48.6 49.7 C 48.6 50.4 48.4 51 47.9 51.4 C 47.5 51.9 46.9 52.1 46.3 52.1 Z M 46.2 51.5 C 46.7 51.5 47.1 51.3 47.4 51 C 47.7 50.7 47.9 50.2 47.9 49.7 C 47.9 49.7 47.9 49.7 47.9 49.7 C 47.9 49.1 47.7 48.7 47.4 48.4 C 47.1 48 46.7 47.9 46.2 47.9 C 45.8 47.9 45.4 48 45 48.4 C 44.7 48.7 44.5 49.1 44.5 49.7 C 44.5 49.7 44.5 49.7 44.5 49.7 C 44.5 50.2 44.7 50.6 45 51 C 45.4 51.3 45.8 51.5 46.2 51.5 Z M 49.9 46.3 L 49.9 45.6 L 50.7 45.6 L 50.7 46.3 L 49.9 46.3 Z M 49.9 52 L 49.9 47.3 L 50.6 47.3 L 50.6 52 L 49.9 52 Z M 52.2 52 L 52.2 47.3 L 52.9 47.3 C 52.9 47.3 52.91 48.56 52.9 48.6 C 53.1 48.2 53.3 47.8 53.7 47.6 C 54 47.4 54.4 47.3 54.8 47.3 C 54.81 47.27 54.8 48 54.8 48 C 54.8 48 54.75 48.01 54.8 48 C 54.2 48 53.8 48.2 53.4 48.6 C 53.1 48.9 52.9 49.5 52.9 50.1 C 52.91 50.15 52.9 52 52.9 52 L 52.2 52 Z M 62.3 51.1 C 61.8 51.8 61.2 52.1 60.5 52.1 C 59.9 52.1 59.4 51.9 59 51.4 C 58.5 51 58.3 50.4 58.3 49.7 C 58.3 49.7 58.3 49.7 58.3 49.7 C 58.3 48.9 58.5 48.4 59 47.9 C 59.4 47.5 59.9 47.2 60.5 47.2 C 61.3 47.2 61.8 47.6 62.3 48.2 C 62.3 48.24 62.3 45.4 62.3 45.4 L 63 45.4 L 63 52 L 62.3 52 L 62.3 51.1 C 62.3 51.1 62.3 51.06 62.3 51.1 Z M 60.6 51.5 C 61.1 51.5 61.5 51.3 61.8 51 C 62.2 50.6 62.3 50.2 62.3 49.7 C 62.3 49.7 62.3 49.7 62.3 49.7 C 62.3 49.1 62.2 48.7 61.8 48.4 C 61.5 48 61.1 47.9 60.6 47.9 C 60.2 47.9 59.8 48 59.5 48.4 C 59.2 48.7 59 49.1 59 49.7 C 59 49.7 59 49.7 59 49.7 C 59 50.2 59.2 50.7 59.5 51 C 59.8 51.3 60.2 51.5 60.6 51.5 Z M 66.7 52.1 C 66 52.1 65.4 51.9 64.9 51.4 C 64.5 50.9 64.2 50.4 64.2 49.7 C 64.2 49.7 64.2 49.7 64.2 49.7 C 64.2 49 64.5 48.4 64.9 48 C 65.4 47.5 66 47.2 66.7 47.2 C 67.4 47.2 67.9 47.5 68.4 48 C 68.9 48.4 69.1 49 69.1 49.7 C 69.1 49.7 69.1 49.7 69.1 49.7 C 69.1 50.3 68.9 50.9 68.4 51.4 C 67.9 51.9 67.4 52.1 66.7 52.1 Z M 66.7 51.5 C 67.2 51.5 67.6 51.3 67.9 51 C 68.2 50.6 68.4 50.2 68.4 49.7 C 68.4 49.7 68.4 49.7 68.4 49.7 C 68.4 49.2 68.2 48.7 67.9 48.4 C 67.6 48 67.1 47.9 66.7 47.9 C 66.2 47.9 65.8 48 65.4 48.4 C 65.1 48.7 65 49.2 65 49.7 C 65 49.7 65 49.7 65 49.7 C 65 50.2 65.1 50.6 65.5 51 C 65.8 51.3 66.2 51.5 66.7 51.5 Z M 70.4 52 L 70.4 45.4 L 71 45.4 L 71 50 L 73.6 47.3 L 74.4 47.3 L 72.5 49.3 L 74.5 52 L 73.7 52 L 72 49.8 L 71 50.8 L 71 52 L 70.4 52 Z M 78.8 51.2 C 78.4 51.8 77.9 52.1 77.2 52.1 C 76.6 52.1 76.2 51.9 75.9 51.6 C 75.6 51.2 75.4 50.8 75.4 50.2 C 75.4 50.24 75.4 47.3 75.4 47.3 L 76.1 47.3 C 76.1 47.3 76.09 50.06 76.1 50.1 C 76.1 50.5 76.2 50.8 76.4 51.1 C 76.7 51.3 77 51.5 77.4 51.5 C 77.8 51.5 78.1 51.3 78.4 51.1 C 78.6 50.8 78.8 50.4 78.8 50 C 78.78 50.01 78.8 47.3 78.8 47.3 L 79.5 47.3 L 79.5 52 L 78.8 52 L 78.8 51.2 C 78.8 51.2 78.78 51.19 78.8 51.2 Z M 81 52 L 81 47.3 L 81.7 47.3 C 81.7 47.3 81.71 48.16 81.7 48.2 C 82.1 47.6 82.6 47.2 83.3 47.2 C 83.9 47.2 84.3 47.4 84.6 47.8 C 84.9 48.1 85.1 48.6 85.1 49.1 C 85.08 49.11 85.1 52 85.1 52 L 84.4 52 C 84.4 52 84.39 49.28 84.4 49.3 C 84.4 48.8 84.3 48.5 84.1 48.3 C 83.8 48 83.5 47.9 83.1 47.9 C 82.7 47.9 82.4 48 82.1 48.3 C 81.8 48.6 81.7 48.9 81.7 49.3 C 81.71 49.34 81.7 52 81.7 52 L 81 52 Z M 89.9 51.2 C 89.5 51.8 89 52.1 88.3 52.1 C 87.7 52.1 87.3 51.9 87 51.6 C 86.6 51.2 86.5 50.8 86.5 50.2 C 86.49 50.24 86.5 47.3 86.5 47.3 L 87.2 47.3 C 87.2 47.3 87.18 50.06 87.2 50.1 C 87.2 50.5 87.3 50.8 87.5 51.1 C 87.7 51.3 88.1 51.5 88.5 51.5 C 88.9 51.5 89.2 51.3 89.5 51.1 C 89.7 50.8 89.9 50.4 89.9 50 C 89.86 50.01 89.9 47.3 89.9 47.3 L 90.5 47.3 L 90.5 52 L 89.9 52 L 89.9 51.2 C 89.9 51.2 89.86 51.19 89.9 51.2 Z M 93.2 53.4 L 92.5 53.1 C 92.5 53.1 93.25 52.06 93.2 52.1 C 92.7 52 92.2 51.8 91.7 51.4 C 91.7 51.4 92.1 50.9 92.1 50.9 C 92.6 51.3 93.1 51.5 93.7 51.5 C 94 51.5 94.2 51.4 94.4 51.3 C 94.6 51.2 94.6 51 94.6 50.8 C 94.6 50.8 94.6 50.7 94.6 50.7 C 94.6 50.5 94.5 50.4 94.3 50.3 C 94.1 50.1 93.9 50 93.5 49.9 C 93.3 49.9 93.2 49.8 93.1 49.8 C 93 49.8 92.9 49.7 92.8 49.7 C 92.6 49.6 92.5 49.6 92.4 49.5 C 92.4 49.5 92.3 49.4 92.2 49.3 C 92.1 49.2 92 49.1 92 49 C 92 48.9 91.9 48.8 91.9 48.6 C 91.9 48.6 91.9 48.6 91.9 48.6 C 91.9 48.2 92.1 47.9 92.4 47.6 C 92.7 47.4 93.1 47.3 93.5 47.3 C 94.1 47.3 94.7 47.4 95.2 47.8 C 95.2 47.8 94.9 48.3 94.9 48.3 C 94.4 48 94 47.9 93.5 47.9 C 93.2 47.9 93 47.9 92.9 48 C 92.7 48.2 92.6 48.3 92.6 48.5 C 92.6 48.5 92.6 48.5 92.6 48.5 C 92.6 48.6 92.6 48.7 92.7 48.8 C 92.7 48.8 92.8 48.9 92.8 49 C 92.9 49 93 49.1 93.1 49.1 C 93.3 49.2 93.4 49.2 93.4 49.2 C 93.5 49.3 93.6 49.3 93.8 49.3 C 94 49.4 94.1 49.4 94.2 49.5 C 94.4 49.5 94.5 49.6 94.6 49.7 C 94.8 49.7 94.9 49.8 95 49.9 C 95.1 50 95.1 50.1 95.2 50.2 C 95.3 50.4 95.3 50.5 95.3 50.7 C 95.3 50.7 95.3 50.7 95.3 50.7 C 95.3 51.1 95.2 51.4 94.9 51.7 C 94.6 51.9 94.3 52 93.8 52.1 C 93.82 52.08 93.2 53.4 93.2 53.4 Z M 99.3 52 L 99.3 45.4 L 100 45.4 L 100 50 L 102.5 47.3 L 103.4 47.3 L 101.4 49.3 L 103.4 52 L 102.6 52 L 100.9 49.8 L 100 50.8 L 100 52 L 99.3 52 Z M 107.5 51.3 C 107.1 51.8 106.5 52.1 105.8 52.1 C 105.3 52.1 104.9 52 104.6 51.7 C 104.2 51.5 104.1 51.1 104.1 50.6 C 104.1 50.6 104.1 50.6 104.1 50.6 C 104.1 50.2 104.2 49.8 104.6 49.5 C 105 49.3 105.4 49.1 106 49.1 C 106.5 49.1 107 49.2 107.5 49.3 C 107.5 49.3 107.5 49.2 107.5 49.2 C 107.5 48.8 107.4 48.4 107.1 48.2 C 106.9 48 106.5 47.9 106.1 47.9 C 105.6 47.9 105.2 48 104.7 48.2 C 104.7 48.2 104.5 47.7 104.5 47.7 C 105 47.4 105.6 47.3 106.2 47.3 C 106.8 47.3 107.3 47.5 107.7 47.8 C 108 48.1 108.1 48.6 108.1 49.2 C 108.14 49.16 108.1 52 108.1 52 L 107.5 52 L 107.5 51.3 C 107.5 51.3 107.48 51.3 107.5 51.3 Z M 105.9 51.5 C 106.4 51.5 106.7 51.4 107 51.2 C 107.3 51 107.5 50.7 107.5 50.3 C 107.5 50.3 107.5 49.8 107.5 49.8 C 107 49.7 106.6 49.6 106.1 49.6 C 105.7 49.6 105.4 49.7 105.1 49.9 C 104.9 50.1 104.8 50.3 104.8 50.6 C 104.8 50.6 104.8 50.6 104.8 50.6 C 104.8 50.9 104.9 51.1 105.1 51.3 C 105.3 51.5 105.6 51.5 105.9 51.5 Z M 112 51.9 C 111.8 52 111.5 52.1 111.2 52.1 C 110.8 52.1 110.5 52 110.2 51.8 C 110 51.5 109.9 51.2 109.9 50.8 C 109.86 50.77 109.9 48 109.9 48 L 109.2 48 L 109.2 47.3 L 109.9 47.3 L 109.9 45.9 L 110.6 45.9 L 110.6 47.3 L 112 47.3 L 112 48 L 110.6 48 C 110.6 48 110.55 50.68 110.6 50.7 C 110.6 51.2 110.8 51.5 111.3 51.5 C 111.6 51.5 111.8 51.4 112 51.3 C 112.01 51.29 112 51.9 112 51.9 C 112 51.9 112.01 51.88 112 51.9 Z M 113.3 52 L 113.3 47.3 L 113.9 47.3 C 113.9 47.3 113.95 48.13 113.9 48.1 C 114.1 47.9 114.3 47.6 114.6 47.5 C 114.8 47.3 115.1 47.2 115.4 47.2 C 116.2 47.2 116.6 47.6 116.9 48.2 C 117.4 47.6 117.9 47.2 118.6 47.2 C 119.1 47.2 119.5 47.4 119.9 47.7 C 120.2 48.1 120.3 48.5 120.3 49.1 C 120.31 49.12 120.3 52 120.3 52 L 119.6 52 C 119.6 52 119.62 49.28 119.6 49.3 C 119.6 48.8 119.5 48.5 119.3 48.2 C 119.1 48 118.8 47.9 118.4 47.9 C 118.1 47.9 117.7 48 117.5 48.3 C 117.2 48.5 117.1 48.9 117.1 49.3 C 117.12 49.32 117.1 52 117.1 52 L 116.4 52 C 116.4 52 116.44 49.26 116.4 49.3 C 116.4 48.8 116.3 48.5 116.1 48.2 C 115.9 48 115.6 47.9 115.2 47.9 C 114.9 47.9 114.6 48 114.3 48.3 C 114.1 48.6 113.9 48.9 113.9 49.3 C 113.95 49.34 113.9 52 113.9 52 L 113.3 52 Z M 124.9 51.3 C 124.4 51.8 123.9 52.1 123.2 52.1 C 122.7 52.1 122.3 52 122 51.7 C 121.6 51.5 121.4 51.1 121.4 50.6 C 121.4 50.6 121.4 50.6 121.4 50.6 C 121.4 50.2 121.6 49.8 122 49.5 C 122.3 49.3 122.8 49.1 123.4 49.1 C 123.9 49.1 124.4 49.2 124.9 49.3 C 124.9 49.3 124.9 49.2 124.9 49.2 C 124.9 48.8 124.7 48.4 124.5 48.2 C 124.3 48 123.9 47.9 123.5 47.9 C 123 47.9 122.5 48 122.1 48.2 C 122.1 48.2 121.8 47.7 121.8 47.7 C 122.4 47.4 123 47.3 123.5 47.3 C 124.2 47.3 124.7 47.5 125 47.8 C 125.4 48.1 125.5 48.6 125.5 49.2 C 125.52 49.16 125.5 52 125.5 52 L 124.9 52 L 124.9 51.3 C 124.9 51.3 124.85 51.3 124.9 51.3 Z M 123.3 51.5 C 123.7 51.5 124.1 51.4 124.4 51.2 C 124.7 51 124.9 50.7 124.9 50.3 C 124.9 50.3 124.9 49.8 124.9 49.8 C 124.4 49.7 123.9 49.6 123.5 49.6 C 123.1 49.6 122.7 49.7 122.5 49.9 C 122.3 50.1 122.1 50.3 122.1 50.6 C 122.1 50.6 122.1 50.6 122.1 50.6 C 122.1 50.9 122.3 51.1 122.5 51.3 C 122.7 51.5 123 51.5 123.3 51.5 Z M 127 52 L 127 45.4 L 127.7 45.4 L 127.7 50 L 130.2 47.3 L 131.1 47.3 L 129.1 49.3 L 131.1 52 L 130.3 52 L 128.6 49.8 L 127.7 50.8 L 127.7 52 L 127 52 Z M 134.8 46.3 L 134.8 45.6 L 135.6 45.6 L 135.6 46.3 L 134.8 46.3 Z M 134.9 52 L 134.9 47.3 L 135.6 47.3 L 135.6 52 L 134.9 52 Z M 138.8 53.4 L 138.1 53.1 C 138.1 53.1 138.85 52.06 138.8 52.1 C 138.3 52 137.8 51.7 137.5 51.2 C 137.1 50.8 136.9 50.3 136.9 49.7 C 136.9 49.7 136.9 49.7 136.9 49.7 C 136.9 49 137.1 48.4 137.6 48 C 138 47.5 138.6 47.2 139.3 47.2 C 140 47.2 140.6 47.5 141.1 48.1 C 141.1 48.1 140.7 48.6 140.7 48.6 C 140.2 48.1 139.8 47.9 139.3 47.9 C 138.8 47.9 138.4 48 138.1 48.4 C 137.8 48.7 137.6 49.2 137.6 49.7 C 137.6 49.7 137.6 49.7 137.6 49.7 C 137.6 50.2 137.8 50.6 138.1 51 C 138.4 51.3 138.8 51.5 139.3 51.5 C 139.8 51.5 140.3 51.3 140.7 50.8 C 140.7 50.8 141.2 51.2 141.2 51.2 C 140.7 51.8 140.1 52.1 139.4 52.1 C 139.42 52.1 138.8 53.4 138.8 53.4 Z M 142.3 46.3 L 142.3 45.6 L 143.1 45.6 L 143.1 46.3 L 142.3 46.3 Z M 142.4 52 L 142.4 47.3 L 143.1 47.3 L 143.1 52 L 142.4 52 Z M 144.7 52 L 144.7 47.3 L 145.4 47.3 C 145.4 47.3 145.38 48.16 145.4 48.2 C 145.8 47.6 146.3 47.2 147 47.2 C 147.5 47.2 148 47.4 148.3 47.8 C 148.6 48.1 148.8 48.6 148.8 49.1 C 148.76 49.11 148.8 52 148.8 52 L 148.1 52 C 148.1 52 148.07 49.28 148.1 49.3 C 148.1 48.8 148 48.5 147.7 48.3 C 147.5 48 147.2 47.9 146.8 47.9 C 146.4 47.9 146 48 145.8 48.3 C 145.5 48.6 145.4 48.9 145.4 49.3 C 145.38 49.34 145.4 52 145.4 52 L 144.7 52 Z M 155.3 51.9 C 155.1 52 154.8 52.1 154.5 52.1 C 154.1 52.1 153.8 52 153.5 51.8 C 153.3 51.5 153.2 51.2 153.2 50.8 C 153.18 50.77 153.2 48 153.2 48 L 152.5 48 L 152.5 47.3 L 153.2 47.3 L 153.2 45.9 L 153.9 45.9 L 153.9 47.3 L 155.3 47.3 L 155.3 48 L 153.9 48 C 153.9 48 153.87 50.68 153.9 50.7 C 153.9 51.2 154.1 51.5 154.7 51.5 C 154.9 51.5 155.1 51.4 155.3 51.3 C 155.33 51.29 155.3 51.9 155.3 51.9 C 155.3 51.9 155.33 51.88 155.3 51.9 Z M 159.6 51.3 C 159.2 51.8 158.7 52.1 158 52.1 C 157.5 52.1 157.1 52 156.7 51.7 C 156.4 51.5 156.2 51.1 156.2 50.6 C 156.2 50.6 156.2 50.6 156.2 50.6 C 156.2 50.2 156.4 49.8 156.8 49.5 C 157.1 49.3 157.6 49.1 158.2 49.1 C 158.7 49.1 159.2 49.2 159.6 49.3 C 159.6 49.3 159.6 49.2 159.6 49.2 C 159.6 48.8 159.5 48.4 159.3 48.2 C 159 48 158.7 47.9 158.3 47.9 C 157.8 47.9 157.3 48 156.8 48.2 C 156.8 48.2 156.6 47.7 156.6 47.7 C 157.2 47.4 157.7 47.3 158.3 47.3 C 159 47.3 159.5 47.5 159.8 47.8 C 160.1 48.1 160.3 48.6 160.3 49.2 C 160.31 49.16 160.3 52 160.3 52 L 159.6 52 L 159.6 51.3 C 159.6 51.3 159.64 51.3 159.6 51.3 Z M 158.1 51.5 C 158.5 51.5 158.9 51.4 159.2 51.2 C 159.5 51 159.6 50.7 159.6 50.3 C 159.6 50.3 159.6 49.8 159.6 49.8 C 159.2 49.7 158.7 49.6 158.3 49.6 C 157.8 49.6 157.5 49.7 157.3 49.9 C 157 50.1 156.9 50.3 156.9 50.6 C 156.9 50.6 156.9 50.6 156.9 50.6 C 156.9 50.9 157 51.1 157.3 51.3 C 157.5 51.5 157.8 51.5 158.1 51.5 Z M 163.3 52.1 C 162.6 52.1 162 51.9 161.4 51.4 C 161.4 51.4 161.7 50.9 161.7 50.9 C 162.3 51.3 162.8 51.5 163.4 51.5 C 163.6 51.5 163.9 51.4 164.1 51.3 C 164.2 51.2 164.3 51 164.3 50.8 C 164.3 50.8 164.3 50.7 164.3 50.7 C 164.3 50.5 164.2 50.4 164 50.3 C 163.8 50.1 163.5 50 163.2 49.9 C 163 49.9 162.9 49.8 162.8 49.8 C 162.7 49.8 162.6 49.7 162.4 49.7 C 162.3 49.6 162.2 49.6 162.1 49.5 C 162 49.5 162 49.4 161.9 49.3 C 161.8 49.2 161.7 49.1 161.7 49 C 161.6 48.9 161.6 48.8 161.6 48.6 C 161.6 48.6 161.6 48.6 161.6 48.6 C 161.6 48.2 161.8 47.9 162.1 47.6 C 162.4 47.4 162.7 47.3 163.2 47.3 C 163.8 47.3 164.4 47.4 164.9 47.8 C 164.9 47.8 164.6 48.3 164.6 48.3 C 164.1 48 163.6 47.9 163.2 47.9 C 162.9 47.9 162.7 47.9 162.5 48 C 162.4 48.2 162.3 48.3 162.3 48.5 C 162.3 48.5 162.3 48.5 162.3 48.5 C 162.3 48.6 162.3 48.7 162.4 48.8 C 162.4 48.8 162.5 48.9 162.5 49 C 162.6 49 162.7 49.1 162.8 49.1 C 162.9 49.2 163 49.2 163.1 49.2 C 163.2 49.3 163.3 49.3 163.5 49.3 C 163.7 49.4 163.8 49.4 163.9 49.5 C 164 49.5 164.2 49.6 164.3 49.7 C 164.5 49.7 164.6 49.8 164.7 49.9 C 164.8 50 164.8 50.1 164.9 50.2 C 164.9 50.4 165 50.5 165 50.7 C 165 50.7 165 50.7 165 50.7 C 165 51.1 164.8 51.5 164.5 51.7 C 164.2 52 163.8 52.1 163.3 52.1 Z M 169.3 51.3 C 168.9 51.8 168.4 52.1 167.6 52.1 C 167.2 52.1 166.8 52 166.4 51.7 C 166.1 51.5 165.9 51.1 165.9 50.6 C 165.9 50.6 165.9 50.6 165.9 50.6 C 165.9 50.2 166.1 49.8 166.5 49.5 C 166.8 49.3 167.3 49.1 167.9 49.1 C 168.4 49.1 168.9 49.2 169.3 49.3 C 169.3 49.3 169.3 49.2 169.3 49.2 C 169.3 48.8 169.2 48.4 169 48.2 C 168.7 48 168.4 47.9 167.9 47.9 C 167.5 47.9 167 48 166.5 48.2 C 166.5 48.2 166.3 47.7 166.3 47.7 C 166.9 47.4 167.4 47.3 168 47.3 C 168.7 47.3 169.2 47.5 169.5 47.8 C 169.8 48.1 170 48.6 170 49.2 C 170 49.16 170 52 170 52 L 169.3 52 L 169.3 51.3 C 169.3 51.3 169.33 51.3 169.3 51.3 Z M 167.8 51.5 C 168.2 51.5 168.6 51.4 168.9 51.2 C 169.2 51 169.3 50.7 169.3 50.3 C 169.3 50.3 169.3 49.8 169.3 49.8 C 168.9 49.7 168.4 49.6 168 49.6 C 167.5 49.6 167.2 49.7 167 49.9 C 166.7 50.1 166.6 50.3 166.6 50.6 C 166.6 50.6 166.6 50.6 166.6 50.6 C 166.6 50.9 166.7 51.1 167 51.3 C 167.2 51.5 167.5 51.5 167.8 51.5 Z M 171.5 52 L 171.5 47.3 L 172.2 47.3 C 172.2 47.3 172.17 48.56 172.2 48.6 C 172.3 48.2 172.6 47.8 172.9 47.6 C 173.3 47.4 173.6 47.3 174.1 47.3 C 174.07 47.27 174.1 48 174.1 48 C 174.1 48 174.01 48.01 174 48 C 173.5 48 173 48.2 172.7 48.6 C 172.3 48.9 172.2 49.5 172.2 50.1 C 172.17 50.15 172.2 52 172.2 52 L 171.5 52 Z M 175.2 52 L 175.2 45.4 L 175.9 45.4 L 175.9 52 L 175.2 52 Z M 180.6 51.3 C 180.1 51.8 179.6 52.1 178.9 52.1 C 178.4 52.1 178 52 177.7 51.7 C 177.3 51.5 177.1 51.1 177.1 50.6 C 177.1 50.6 177.1 50.6 177.1 50.6 C 177.1 50.2 177.3 49.8 177.7 49.5 C 178 49.3 178.5 49.1 179.1 49.1 C 179.6 49.1 180.1 49.2 180.6 49.3 C 180.6 49.3 180.6 49.2 180.6 49.2 C 180.6 48.8 180.4 48.4 180.2 48.2 C 180 48 179.6 47.9 179.2 47.9 C 178.7 47.9 178.2 48 177.8 48.2 C 177.8 48.2 177.5 47.7 177.5 47.7 C 178.1 47.4 178.7 47.3 179.2 47.3 C 179.9 47.3 180.4 47.5 180.7 47.8 C 181.1 48.1 181.2 48.6 181.2 49.2 C 181.22 49.16 181.2 52 181.2 52 L 180.6 52 L 180.6 51.3 C 180.6 51.3 180.55 51.3 180.6 51.3 Z M 179 51.5 C 179.4 51.5 179.8 51.4 180.1 51.2 C 180.4 51 180.6 50.7 180.6 50.3 C 180.6 50.3 180.6 49.8 180.6 49.8 C 180.1 49.7 179.6 49.6 179.2 49.6 C 178.8 49.6 178.4 49.7 178.2 49.9 C 178 50.1 177.8 50.3 177.8 50.6 C 177.8 50.6 177.8 50.6 177.8 50.6 C 177.8 50.9 178 51.1 178.2 51.3 C 178.4 51.5 178.7 51.5 179 51.5 Z M 182.7 52 L 182.7 47.3 L 183.4 47.3 C 183.4 47.3 183.39 48.16 183.4 48.2 C 183.8 47.6 184.3 47.2 185 47.2 C 185.5 47.2 186 47.4 186.3 47.8 C 186.6 48.1 186.8 48.6 186.8 49.1 C 186.76 49.11 186.8 52 186.8 52 L 186.1 52 C 186.1 52 186.07 49.28 186.1 49.3 C 186.1 48.8 186 48.5 185.7 48.3 C 185.5 48 185.2 47.9 184.8 47.9 C 184.4 47.9 184 48 183.8 48.3 C 183.5 48.6 183.4 48.9 183.4 49.3 C 183.39 49.34 183.4 52 183.4 52 L 182.7 52 Z M 188.2 52 L 188.2 47.3 L 188.9 47.3 C 188.9 47.3 188.93 48.13 188.9 48.1 C 189.1 47.9 189.3 47.6 189.6 47.5 C 189.8 47.3 190.1 47.2 190.4 47.2 C 191.1 47.2 191.6 47.6 191.9 48.2 C 192.3 47.6 192.9 47.2 193.6 47.2 C 194.1 47.2 194.5 47.4 194.8 47.7 C 195.1 48.1 195.3 48.5 195.3 49.1 C 195.3 49.12 195.3 52 195.3 52 L 194.6 52 C 194.6 52 194.6 49.28 194.6 49.3 C 194.6 48.8 194.5 48.5 194.3 48.2 C 194.1 48 193.8 47.9 193.4 47.9 C 193 47.9 192.7 48 192.5 48.3 C 192.2 48.5 192.1 48.9 192.1 49.3 C 192.11 49.32 192.1 52 192.1 52 L 191.4 52 C 191.4 52 191.43 49.26 191.4 49.3 C 191.4 48.8 191.3 48.5 191.1 48.2 C 190.9 48 190.6 47.9 190.2 47.9 C 189.9 47.9 189.5 48 189.3 48.3 C 189.1 48.6 188.9 48.9 188.9 49.3 C 188.93 49.34 188.9 52 188.9 52 L 188.2 52 Z M 196.8 52 L 196.8 47.3 L 197.5 47.3 L 197.5 52 L 196.8 52 Z M 200.3 53.4 L 199.6 53.1 C 199.6 53.1 200.28 52.06 200.3 52.1 C 199.7 52 199.2 51.8 198.8 51.4 C 198.8 51.4 199.1 50.9 199.1 50.9 C 199.6 51.3 200.2 51.5 200.7 51.5 C 201 51.5 201.2 51.4 201.4 51.3 C 201.6 51.2 201.7 51 201.7 50.8 C 201.7 50.8 201.7 50.7 201.7 50.7 C 201.7 50.5 201.6 50.4 201.4 50.3 C 201.2 50.1 200.9 50 200.5 49.9 C 200.3 49.9 200.2 49.8 200.1 49.8 C 200.1 49.8 200 49.7 199.8 49.7 C 199.7 49.6 199.5 49.6 199.5 49.5 C 199.4 49.5 199.3 49.4 199.2 49.3 C 199.1 49.2 199.1 49.1 199 49 C 199 48.9 199 48.8 199 48.6 C 199 48.6 199 48.6 199 48.6 C 199 48.2 199.1 47.9 199.4 47.6 C 199.7 47.4 200.1 47.3 200.6 47.3 C 201.2 47.3 201.7 47.4 202.2 47.8 C 202.2 47.8 201.9 48.3 201.9 48.3 C 201.5 48 201 47.9 200.5 47.9 C 200.3 47.9 200.1 47.9 199.9 48 C 199.7 48.2 199.6 48.3 199.6 48.5 C 199.6 48.5 199.6 48.5 199.6 48.5 C 199.6 48.6 199.7 48.7 199.7 48.8 C 199.8 48.8 199.8 48.9 199.9 49 C 199.9 49 200 49.1 200.2 49.1 C 200.3 49.2 200.4 49.2 200.5 49.2 C 200.5 49.3 200.7 49.3 200.8 49.3 C 201 49.4 201.2 49.4 201.3 49.5 C 201.4 49.5 201.5 49.6 201.7 49.7 C 201.8 49.7 201.9 49.8 202 49.9 C 202.1 50 202.2 50.1 202.2 50.2 C 202.3 50.4 202.3 50.5 202.3 50.7 C 202.3 50.7 202.3 50.7 202.3 50.7 C 202.3 51.1 202.2 51.4 201.9 51.7 C 201.7 51.9 201.3 52 200.9 52.1 C 200.86 52.08 200.3 53.4 200.3 53.4 Z M 206 51.9 C 205.8 52 205.5 52.1 205.2 52.1 C 204.8 52.1 204.5 52 204.2 51.8 C 204 51.5 203.9 51.2 203.9 50.8 C 203.86 50.77 203.9 48 203.9 48 L 203.2 48 L 203.2 47.3 L 203.9 47.3 L 203.9 45.9 L 204.6 45.9 L 204.6 47.3 L 206 47.3 L 206 48 L 204.6 48 C 204.6 48 204.56 50.68 204.6 50.7 C 204.6 51.2 204.8 51.5 205.3 51.5 C 205.6 51.5 205.8 51.4 206 51.3 C 206.02 51.29 206 51.9 206 51.9 C 206 51.9 206.02 51.88 206 51.9 Z M 207.3 52 L 207.3 47.3 L 208 47.3 L 208 52 L 207.3 52 Z M 209.6 52 L 209.6 47.3 L 210.3 47.3 C 210.3 47.3 210.32 48.56 210.3 48.6 C 210.5 48.2 210.8 47.8 211.1 47.6 C 211.4 47.4 211.8 47.3 212.2 47.3 C 212.22 47.27 212.2 48 212.2 48 C 212.2 48 212.16 48.01 212.2 48 C 211.6 48 211.2 48.2 210.8 48.6 C 210.5 48.9 210.3 49.5 210.3 50.1 C 210.32 50.15 210.3 52 210.3 52 L 209.6 52 Z M 213.2 52 L 213.2 51.1 L 214 51.1 L 214 52 L 213.2 52 Z M 220.4 52.1 C 219.5 52.1 218.6 51.8 217.9 51.1 C 217.9 51.1 218.3 50.6 218.3 50.6 C 218.6 50.9 219 51.1 219.3 51.2 C 219.7 51.4 220 51.5 220.5 51.5 C 220.9 51.5 221.2 51.4 221.5 51.1 C 221.7 50.9 221.9 50.7 221.9 50.4 C 221.9 50.4 221.9 50.4 221.9 50.4 C 221.9 50.1 221.8 49.8 221.5 49.6 C 221.3 49.5 220.9 49.3 220.2 49.2 C 219.5 49 219 48.8 218.6 48.5 C 218.3 48.2 218.1 47.9 218.1 47.3 C 218.1 47.3 218.1 47.3 218.1 47.3 C 218.1 46.8 218.3 46.4 218.7 46.1 C 219.1 45.8 219.6 45.6 220.2 45.6 C 220.6 45.6 221 45.7 221.4 45.8 C 221.7 45.9 222.1 46.1 222.4 46.4 C 222.4 46.4 222 46.9 222 46.9 C 221.4 46.5 220.8 46.2 220.2 46.2 C 219.8 46.2 219.4 46.3 219.2 46.5 C 219 46.7 218.8 47 218.8 47.3 C 218.8 47.3 218.8 47.3 218.8 47.3 C 218.8 47.6 218.9 47.8 219.2 48 C 219.4 48.2 219.9 48.4 220.5 48.5 C 221.3 48.7 221.8 48.9 222.1 49.2 C 222.4 49.4 222.6 49.8 222.6 50.3 C 222.6 50.3 222.6 50.3 222.6 50.3 C 222.6 50.8 222.4 51.3 222 51.6 C 221.6 51.9 221.1 52.1 220.4 52.1 Z M 223.9 46.3 L 223.9 45.6 L 224.7 45.6 L 224.7 46.3 L 223.9 46.3 Z M 224 52 L 224 47.3 L 224.7 47.3 L 224.7 52 L 224 52 Z M 228.3 51.2 L 229.8 47.3 L 230.5 47.3 C 230.5 47.3 228.56 52.15 228.6 52.2 C 228.4 52.6 228.2 53 227.9 53.2 C 227.7 53.4 227.4 53.5 227 53.5 C 226.7 53.5 226.3 53.4 226 53.2 C 226 53.2 226.3 52.7 226.3 52.7 C 226.5 52.8 226.7 52.9 227 52.9 C 227.2 52.9 227.4 52.8 227.5 52.7 C 227.7 52.5 227.8 52.3 227.9 52 C 227.94 51.98 225.8 47.3 225.8 47.3 L 226.6 47.3 L 228.3 51.2 Z M 234.7 51.3 C 234.3 51.8 233.7 52.1 233 52.1 C 232.5 52.1 232.1 52 231.8 51.7 C 231.4 51.5 231.3 51.1 231.3 50.6 C 231.3 50.6 231.3 50.6 231.3 50.6 C 231.3 50.2 231.4 49.8 231.8 49.5 C 232.2 49.3 232.6 49.1 233.2 49.1 C 233.7 49.1 234.2 49.2 234.7 49.3 C 234.7 49.3 234.7 49.2 234.7 49.2 C 234.7 48.8 234.6 48.4 234.3 48.2 C 234.1 48 233.7 47.9 233.3 47.9 C 232.8 47.9 232.4 48 231.9 48.2 C 231.9 48.2 231.7 47.7 231.7 47.7 C 232.2 47.4 232.8 47.3 233.4 47.3 C 234 47.3 234.5 47.5 234.9 47.8 C 235.2 48.1 235.3 48.6 235.3 49.2 C 235.35 49.16 235.3 52 235.3 52 L 234.7 52 L 234.7 51.3 C 234.7 51.3 234.68 51.3 234.7 51.3 Z M 233.1 51.5 C 233.6 51.5 233.9 51.4 234.2 51.2 C 234.5 51 234.7 50.7 234.7 50.3 C 234.7 50.3 234.7 49.8 234.7 49.8 C 234.2 49.7 233.8 49.6 233.3 49.6 C 232.9 49.6 232.6 49.7 232.3 49.9 C 232.1 50.1 232 50.3 232 50.6 C 232 50.6 232 50.6 232 50.6 C 232 50.9 232.1 51.1 232.3 51.3 C 232.5 51.5 232.8 51.5 233.1 51.5 Z M 236.8 52 L 236.8 45.4 L 237.5 45.4 C 237.5 45.4 237.51 48.16 237.5 48.2 C 237.9 47.6 238.4 47.2 239.1 47.2 C 239.7 47.2 240.1 47.4 240.4 47.8 C 240.7 48.1 240.9 48.6 240.9 49.1 C 240.89 49.11 240.9 52 240.9 52 L 240.2 52 C 240.2 52 240.2 49.28 240.2 49.3 C 240.2 48.8 240.1 48.5 239.9 48.3 C 239.6 48 239.3 47.9 238.9 47.9 C 238.5 47.9 238.2 48 237.9 48.3 C 237.6 48.6 237.5 48.9 237.5 49.3 C 237.51 49.34 237.5 52 237.5 52 L 236.8 52 Z M 246.6 52 L 244.6 47.3 L 245.4 47.3 L 246.9 51.2 L 248.5 47.3 L 249.3 47.3 L 247.2 52 L 246.6 52 Z M 254.3 51.2 C 253.8 51.8 253.2 52.1 252.4 52.1 C 251.7 52.1 251.2 51.9 250.7 51.4 C 250.3 51 250.1 50.4 250.1 49.7 C 250.1 49.7 250.1 49.7 250.1 49.7 C 250.1 49 250.3 48.4 250.7 47.9 C 251.1 47.5 251.7 47.2 252.3 47.2 C 253 47.2 253.5 47.5 253.9 47.9 C 254.3 48.4 254.5 49 254.5 49.7 C 254.5 49.8 254.5 49.9 254.5 49.9 C 254.5 49.9 250.8 49.9 250.8 49.9 C 250.8 50.4 251 50.8 251.3 51.1 C 251.6 51.4 252 51.5 252.4 51.5 C 253 51.5 253.4 51.3 253.9 50.8 C 253.87 50.85 254.3 51.2 254.3 51.2 C 254.3 51.2 254.3 51.23 254.3 51.2 Z M 250.8 49.4 C 250.8 49.4 253.8 49.4 253.8 49.4 C 253.7 49 253.6 48.6 253.3 48.3 C 253.1 48 252.7 47.8 252.3 47.8 C 251.9 47.8 251.5 48 251.3 48.3 C 251 48.6 250.8 49 250.8 49.4 Z M 260.7 52.1 C 259.7 52.1 258.8 51.8 258.1 51.1 C 258.1 51.1 258.5 50.6 258.5 50.6 C 258.9 50.9 259.2 51.1 259.5 51.2 C 259.9 51.4 260.3 51.5 260.7 51.5 C 261.1 51.5 261.4 51.4 261.7 51.1 C 262 50.9 262.1 50.7 262.1 50.4 C 262.1 50.4 262.1 50.4 262.1 50.4 C 262.1 50.1 262 49.8 261.7 49.6 C 261.5 49.5 261.1 49.3 260.4 49.2 C 259.7 49 259.2 48.8 258.8 48.5 C 258.5 48.2 258.3 47.9 258.3 47.3 C 258.3 47.3 258.3 47.3 258.3 47.3 C 258.3 46.8 258.5 46.4 258.9 46.1 C 259.3 45.8 259.8 45.6 260.4 45.6 C 260.9 45.6 261.2 45.7 261.6 45.8 C 261.9 45.9 262.3 46.1 262.6 46.4 C 262.6 46.4 262.2 46.9 262.2 46.9 C 261.6 46.5 261 46.2 260.4 46.2 C 260 46.2 259.6 46.3 259.4 46.5 C 259.2 46.7 259 47 259 47.3 C 259 47.3 259 47.3 259 47.3 C 259 47.6 259.2 47.8 259.4 48 C 259.6 48.2 260.1 48.4 260.8 48.5 C 261.5 48.7 262 48.9 262.3 49.2 C 262.6 49.4 262.8 49.8 262.8 50.3 C 262.8 50.3 262.8 50.3 262.8 50.3 C 262.8 50.8 262.6 51.3 262.2 51.6 C 261.8 51.9 261.3 52.1 260.7 52.1 Z M 264.2 52 L 264.2 47.3 L 264.9 47.3 L 264.9 52 L 264.2 52 Z M 270.5 51.2 C 270 51.8 269.3 52.1 268.6 52.1 C 267.9 52.1 267.4 51.9 266.9 51.4 C 266.4 50.9 266.2 50.4 266.2 49.7 C 266.2 49.7 266.2 49.7 266.2 49.7 C 266.2 49 266.4 48.4 266.9 48 C 267.4 47.5 267.9 47.2 268.6 47.2 C 269.3 47.2 269.9 47.5 270.5 48.1 C 270.5 48.1 270 48.6 270 48.6 C 269.6 48.1 269.1 47.9 268.6 47.9 C 268.1 47.9 267.7 48 267.4 48.4 C 267.1 48.7 266.9 49.2 266.9 49.7 C 266.9 49.7 266.9 49.7 266.9 49.7 C 266.9 50.2 267.1 50.6 267.4 51 C 267.7 51.3 268.2 51.5 268.6 51.5 C 269.2 51.5 269.6 51.3 270.1 50.8 C 270.06 50.79 270.5 51.2 270.5 51.2 C 270.5 51.2 270.5 51.21 270.5 51.2 Z M 274.7 51.3 C 274.3 51.8 273.7 52.1 273 52.1 C 272.6 52.1 272.2 52 271.8 51.7 C 271.5 51.5 271.3 51.1 271.3 50.6 C 271.3 50.6 271.3 50.6 271.3 50.6 C 271.3 50.2 271.5 49.8 271.8 49.5 C 272.2 49.3 272.7 49.1 273.3 49.1 C 273.8 49.1 274.2 49.2 274.7 49.3 C 274.7 49.3 274.7 49.2 274.7 49.2 C 274.7 48.8 274.6 48.4 274.4 48.2 C 274.1 48 273.8 47.9 273.3 47.9 C 272.9 47.9 272.4 48 271.9 48.2 C 271.9 48.2 271.7 47.7 271.7 47.7 C 272.3 47.4 272.8 47.3 273.4 47.3 C 274.1 47.3 274.6 47.5 274.9 47.8 C 275.2 48.1 275.4 48.6 275.4 49.2 C 275.38 49.16 275.4 52 275.4 52 L 274.7 52 L 274.7 51.3 C 274.7 51.3 274.71 51.3 274.7 51.3 Z M 273.2 51.5 C 273.6 51.5 274 51.4 274.3 51.2 C 274.6 51 274.7 50.7 274.7 50.3 C 274.7 50.3 274.7 49.8 274.7 49.8 C 274.3 49.7 273.8 49.6 273.4 49.6 C 272.9 49.6 272.6 49.7 272.3 49.9 C 272.1 50.1 272 50.3 272 50.6 C 272 50.6 272 50.6 272 50.6 C 272 50.9 272.1 51.1 272.3 51.3 C 272.6 51.5 272.8 51.5 273.2 51.5 Z M 276.9 52 L 276.9 45.4 L 277.5 45.4 L 277.5 50 L 280.1 47.3 L 280.9 47.3 L 279 49.3 L 281 52 L 280.2 52 L 278.5 49.8 L 277.5 50.8 L 277.5 52 L 276.9 52 Z M 290.2 51.1 C 289.5 51.8 288.7 52.1 287.7 52.1 C 286.7 52.1 286 51.8 285.4 51.2 C 284.8 50.6 284.5 49.8 284.5 48.9 C 284.5 48.9 284.5 48.8 284.5 48.8 C 284.5 48 284.8 47.2 285.4 46.6 C 286 45.9 286.8 45.6 287.7 45.6 C 288.2 45.6 288.6 45.7 289 45.8 C 289.3 45.9 289.7 46.1 290 46.4 C 290 46.4 289.6 47 289.6 47 C 289 46.5 288.4 46.2 287.6 46.2 C 287 46.2 286.4 46.5 285.9 47 C 285.5 47.5 285.2 48.1 285.2 48.8 C 285.2 48.8 285.2 48.8 285.2 48.8 C 285.2 49.6 285.5 50.2 285.9 50.7 C 286.4 51.2 287 51.5 287.7 51.5 C 288.4 51.5 289 51.3 289.6 50.8 C 289.56 50.84 289.6 49.3 289.6 49.3 L 287.6 49.3 L 287.6 48.6 L 290.2 48.6 L 290.2 51.1 C 290.2 51.1 290.24 51.14 290.2 51.1 Z M 291.7 52 L 291.7 47.3 L 292.4 47.3 C 292.4 47.3 292.42 48.56 292.4 48.6 C 292.6 48.2 292.9 47.8 293.2 47.6 C 293.5 47.4 293.9 47.3 294.3 47.3 C 294.32 47.27 294.3 48 294.3 48 C 294.3 48 294.27 48.01 294.3 48 C 293.7 48 293.3 48.2 292.9 48.6 C 292.6 48.9 292.4 49.5 292.4 50.1 C 292.42 50.15 292.4 52 292.4 52 L 291.7 52 Z M 295.4 46.3 L 295.4 45.6 L 296.2 45.6 L 296.2 46.3 L 295.4 46.3 Z M 295.4 52 L 295.4 47.3 L 296.1 47.3 L 296.1 52 L 295.4 52 Z " stroke="none" fill="#000"/>  </g>  <g id="Polygon56377">    <path d="M 2.7 39.4 L 2 39.1 C 2 39.1 2.67 38.07 2.7 38.1 C 1.9 38 1.1 37.7 0.5 37.1 C 0.5 37.1 0.9 36.6 0.9 36.6 C 1.3 36.9 1.6 37.1 1.9 37.2 C 2.3 37.4 2.7 37.5 3.1 37.5 C 3.5 37.5 3.8 37.4 4.1 37.1 C 4.4 36.9 4.5 36.7 4.5 36.4 C 4.5 36.4 4.5 36.4 4.5 36.4 C 4.5 36.1 4.4 35.8 4.1 35.6 C 3.9 35.5 3.5 35.3 2.8 35.2 C 2.1 35 1.6 34.8 1.2 34.5 C 0.9 34.2 0.7 33.9 0.7 33.3 C 0.7 33.3 0.7 33.3 0.7 33.3 C 0.7 32.8 0.9 32.4 1.3 32.1 C 1.7 31.8 2.2 31.6 2.8 31.6 C 3.2 31.6 3.6 31.7 4 31.8 C 4.3 31.9 4.7 32.1 5 32.4 C 5 32.4 4.6 32.9 4.6 32.9 C 4 32.5 3.4 32.2 2.8 32.2 C 2.4 32.2 2 32.3 1.8 32.5 C 1.6 32.7 1.4 33 1.4 33.3 C 1.4 33.3 1.4 33.3 1.4 33.3 C 1.4 33.6 1.6 33.8 1.8 34 C 2 34.2 2.5 34.4 3.1 34.5 C 3.9 34.7 4.4 34.9 4.7 35.2 C 5 35.4 5.2 35.8 5.2 36.3 C 5.2 36.3 5.2 36.3 5.2 36.3 C 5.2 36.8 5 37.2 4.7 37.5 C 4.3 37.9 3.8 38 3.3 38.1 C 3.26 38.08 2.7 39.4 2.7 39.4 Z M 6.6 38 L 6.6 33.3 L 7.3 33.3 L 7.3 38 L 6.6 38 Z M 8.9 38 L 8.9 31.4 L 9.6 31.4 L 9.6 36 L 12.1 33.3 L 13 33.3 L 11 35.3 L 13 38 L 12.2 38 L 10.5 35.8 L 9.6 36.8 L 9.6 38 L 8.9 38 Z M 19 38.1 C 18 38.1 17.2 37.8 16.4 37.1 C 16.4 37.1 16.9 36.6 16.9 36.6 C 17.2 36.9 17.5 37.1 17.9 37.2 C 18.2 37.4 18.6 37.5 19 37.5 C 19.4 37.5 19.8 37.4 20 37.1 C 20.3 36.9 20.4 36.7 20.4 36.4 C 20.4 36.4 20.4 36.4 20.4 36.4 C 20.4 36.1 20.3 35.8 20.1 35.6 C 19.9 35.5 19.4 35.3 18.8 35.2 C 18 35 17.5 34.8 17.2 34.5 C 16.8 34.2 16.7 33.9 16.7 33.3 C 16.7 33.3 16.7 33.3 16.7 33.3 C 16.7 32.8 16.9 32.4 17.3 32.1 C 17.7 31.8 18.2 31.6 18.7 31.6 C 19.2 31.6 19.6 31.7 19.9 31.8 C 20.3 31.9 20.6 32.1 21 32.4 C 21 32.4 20.5 32.9 20.5 32.9 C 20 32.5 19.4 32.2 18.7 32.2 C 18.3 32.2 18 32.3 17.8 32.5 C 17.5 32.7 17.4 33 17.4 33.3 C 17.4 33.3 17.4 33.3 17.4 33.3 C 17.4 33.6 17.5 33.8 17.7 34 C 18 34.2 18.4 34.4 19.1 34.5 C 19.8 34.7 20.3 34.9 20.7 35.2 C 21 35.4 21.1 35.8 21.1 36.3 C 21.1 36.3 21.1 36.3 21.1 36.3 C 21.1 36.8 20.9 37.3 20.5 37.6 C 20.1 37.9 19.6 38.1 19 38.1 Z M 22.7 38 L 22.7 31.7 L 23.4 31.7 L 23.4 38 L 22.7 38 Z M 25.2 38 L 25.2 31.7 L 25.9 31.7 L 29.9 36.7 L 29.9 31.7 L 30.5 31.7 L 30.5 38 L 30 38 L 25.9 32.8 L 25.9 38 L 25.2 38 Z M 37.8 37.1 C 37.1 37.8 36.2 38.1 35.3 38.1 C 34.3 38.1 33.5 37.8 32.9 37.2 C 32.3 36.6 32 35.8 32 34.9 C 32 34.9 32 34.8 32 34.8 C 32 34 32.3 33.2 32.9 32.6 C 33.5 31.9 34.3 31.6 35.2 31.6 C 35.7 31.6 36.1 31.7 36.5 31.8 C 36.9 31.9 37.2 32.1 37.6 32.4 C 37.6 32.4 37.1 33 37.1 33 C 36.6 32.5 35.9 32.2 35.2 32.2 C 34.5 32.2 33.9 32.5 33.5 33 C 33 33.5 32.8 34.1 32.8 34.8 C 32.8 34.8 32.8 34.8 32.8 34.8 C 32.8 35.6 33 36.2 33.5 36.7 C 33.9 37.2 34.5 37.5 35.3 37.5 C 36 37.5 36.6 37.3 37.1 36.8 C 37.1 36.84 37.1 35.3 37.1 35.3 L 35.2 35.3 L 35.2 34.6 L 37.8 34.6 L 37.8 37.1 C 37.8 37.1 37.78 37.14 37.8 37.1 Z M 39.4 38 L 39.4 31.7 L 40.1 31.7 L 40.1 37.3 L 43.6 37.3 L 43.6 38 L 39.4 38 Z M 44.9 38 L 44.9 31.7 L 49.5 31.7 L 49.5 32.3 L 45.6 32.3 L 45.6 34.5 L 49.1 34.5 L 49.1 35.1 L 45.6 35.1 L 45.6 37.4 L 49.5 37.4 L 49.5 38 L 44.9 38 Z M 53.1 38.1 C 52.1 38.1 51.3 37.8 50.5 37.1 C 50.5 37.1 51 36.6 51 36.6 C 51.3 36.9 51.6 37.1 52 37.2 C 52.3 37.4 52.7 37.5 53.1 37.5 C 53.6 37.5 53.9 37.4 54.2 37.1 C 54.4 36.9 54.5 36.7 54.5 36.4 C 54.5 36.4 54.5 36.4 54.5 36.4 C 54.5 36.1 54.4 35.8 54.2 35.6 C 54 35.5 53.5 35.3 52.9 35.2 C 52.2 35 51.6 34.8 51.3 34.5 C 51 34.2 50.8 33.9 50.8 33.3 C 50.8 33.3 50.8 33.3 50.8 33.3 C 50.8 32.8 51 32.4 51.4 32.1 C 51.8 31.8 52.3 31.6 52.9 31.6 C 53.3 31.6 53.7 31.7 54 31.8 C 54.4 31.9 54.7 32.1 55.1 32.4 C 55.1 32.4 54.7 32.9 54.7 32.9 C 54.1 32.5 53.5 32.2 52.8 32.2 C 52.4 32.2 52.1 32.3 51.9 32.5 C 51.6 32.7 51.5 33 51.5 33.3 C 51.5 33.3 51.5 33.3 51.5 33.3 C 51.5 33.6 51.6 33.8 51.9 34 C 52.1 34.2 52.5 34.4 53.2 34.5 C 53.9 34.7 54.4 34.9 54.8 35.2 C 55.1 35.4 55.3 35.8 55.3 36.3 C 55.3 36.3 55.3 36.3 55.3 36.3 C 55.3 36.8 55.1 37.3 54.7 37.6 C 54.3 37.9 53.7 38.1 53.1 38.1 Z M 61.7 37.9 C 61.4 38 61.2 38.1 60.8 38.1 C 60.4 38.1 60.1 38 59.9 37.8 C 59.7 37.5 59.5 37.2 59.5 36.8 C 59.53 36.77 59.5 34 59.5 34 L 58.9 34 L 58.9 33.3 L 59.5 33.3 L 59.5 31.9 L 60.2 31.9 L 60.2 33.3 L 61.7 33.3 L 61.7 34 L 60.2 34 C 60.2 34 60.23 36.68 60.2 36.7 C 60.2 37.2 60.5 37.5 61 37.5 C 61.2 37.5 61.5 37.4 61.7 37.3 C 61.69 37.29 61.7 37.9 61.7 37.9 C 61.7 37.9 61.69 37.88 61.7 37.9 Z M 66.9 37.2 C 66.4 37.8 65.7 38.1 65 38.1 C 64.3 38.1 63.8 37.9 63.3 37.4 C 62.9 37 62.6 36.4 62.6 35.7 C 62.6 35.7 62.6 35.7 62.6 35.7 C 62.6 35 62.9 34.4 63.3 33.9 C 63.7 33.5 64.2 33.2 64.9 33.2 C 65.5 33.2 66.1 33.5 66.5 33.9 C 66.8 34.4 67 35 67 35.7 C 67 35.8 67 35.9 67 35.9 C 67 35.9 63.3 35.9 63.3 35.9 C 63.4 36.4 63.6 36.8 63.9 37.1 C 64.2 37.4 64.6 37.5 65 37.5 C 65.5 37.5 66 37.3 66.4 36.8 C 66.45 36.85 66.9 37.2 66.9 37.2 C 66.9 37.2 66.88 37.23 66.9 37.2 Z M 63.3 35.4 C 63.3 35.4 66.3 35.4 66.3 35.4 C 66.3 35 66.2 34.6 65.9 34.3 C 65.6 34 65.3 33.8 64.9 33.8 C 64.5 33.8 64.1 34 63.8 34.3 C 63.6 34.6 63.4 35 63.3 35.4 Z M 68.3 39.4 L 68.3 33.3 L 68.9 33.3 C 68.9 33.3 68.95 34.28 68.9 34.3 C 69.4 33.6 70 33.2 70.7 33.2 C 71.3 33.2 71.8 33.5 72.3 33.9 C 72.7 34.3 73 34.9 73 35.7 C 73 35.7 73 35.7 73 35.7 C 73 36.4 72.7 37 72.3 37.4 C 71.8 37.9 71.3 38.1 70.7 38.1 C 70 38.1 69.4 37.8 68.9 37.1 C 68.95 37.11 68.9 39.4 68.9 39.4 L 68.3 39.4 Z M 70.6 37.5 C 71.1 37.5 71.5 37.3 71.8 37 C 72.1 36.7 72.2 36.2 72.2 35.7 C 72.2 35.7 72.2 35.7 72.2 35.7 C 72.2 35.1 72.1 34.7 71.8 34.4 C 71.5 34 71.1 33.9 70.6 33.9 C 70.2 33.9 69.8 34 69.4 34.4 C 69.1 34.7 68.9 35.1 68.9 35.7 C 68.9 35.7 68.9 35.7 68.9 35.7 C 68.9 36.2 69.1 36.6 69.4 37 C 69.8 37.3 70.2 37.5 70.6 37.5 Z M 75.8 38.1 C 75.1 38.1 74.4 37.9 73.8 37.4 C 73.8 37.4 74.2 36.9 74.2 36.9 C 74.7 37.3 75.2 37.5 75.8 37.5 C 76.1 37.5 76.3 37.4 76.5 37.3 C 76.7 37.2 76.8 37 76.8 36.8 C 76.8 36.8 76.8 36.7 76.8 36.7 C 76.8 36.5 76.7 36.4 76.5 36.3 C 76.3 36.1 76 36 75.6 35.9 C 75.4 35.9 75.3 35.8 75.2 35.8 C 75.2 35.8 75 35.7 74.9 35.7 C 74.7 35.6 74.6 35.6 74.6 35.5 C 74.5 35.5 74.4 35.4 74.3 35.3 C 74.2 35.2 74.2 35.1 74.1 35 C 74.1 34.9 74.1 34.8 74.1 34.6 C 74.1 34.6 74.1 34.6 74.1 34.6 C 74.1 34.2 74.2 33.9 74.5 33.6 C 74.8 33.4 75.2 33.3 75.7 33.3 C 76.3 33.3 76.8 33.4 77.3 33.8 C 77.3 33.8 77 34.3 77 34.3 C 76.5 34 76.1 33.9 75.6 33.9 C 75.4 33.9 75.1 33.9 75 34 C 74.8 34.2 74.7 34.3 74.7 34.5 C 74.7 34.5 74.7 34.5 74.7 34.5 C 74.7 34.6 74.8 34.7 74.8 34.8 C 74.9 34.8 74.9 34.9 75 35 C 75 35 75.1 35.1 75.3 35.1 C 75.4 35.2 75.5 35.2 75.6 35.2 C 75.6 35.3 75.8 35.3 75.9 35.3 C 76.1 35.4 76.3 35.4 76.4 35.5 C 76.5 35.5 76.6 35.6 76.8 35.7 C 76.9 35.7 77 35.8 77.1 35.9 C 77.2 36 77.3 36.1 77.3 36.2 C 77.4 36.4 77.4 36.5 77.4 36.7 C 77.4 36.7 77.4 36.7 77.4 36.7 C 77.4 37.1 77.3 37.5 77 37.7 C 76.6 38 76.2 38.1 75.8 38.1 Z M 78.7 32.3 L 78.7 31.6 L 79.5 31.6 L 79.5 32.3 L 78.7 32.3 Z M 78.8 38 L 78.8 33.3 L 79.5 33.3 L 79.5 38 L 78.8 38 Z M 81.1 38 L 81.1 31.4 L 81.8 31.4 L 81.8 38 L 81.1 38 Z M 87.4 37.2 C 86.9 37.8 86.2 38.1 85.5 38.1 C 84.8 38.1 84.3 37.9 83.8 37.4 C 83.4 37 83.2 36.4 83.2 35.7 C 83.2 35.7 83.2 35.7 83.2 35.7 C 83.2 35 83.4 34.4 83.8 33.9 C 84.2 33.5 84.7 33.2 85.4 33.2 C 86.1 33.2 86.6 33.5 87 33.9 C 87.4 34.4 87.6 35 87.6 35.7 C 87.6 35.8 87.6 35.9 87.6 35.9 C 87.6 35.9 83.9 35.9 83.9 35.9 C 83.9 36.4 84.1 36.8 84.4 37.1 C 84.7 37.4 85.1 37.5 85.5 37.5 C 86.1 37.5 86.5 37.3 87 36.8 C 86.97 36.85 87.4 37.2 87.4 37.2 C 87.4 37.2 87.4 37.23 87.4 37.2 Z M 83.9 35.4 C 83.9 35.4 86.9 35.4 86.9 35.4 C 86.8 35 86.7 34.6 86.4 34.3 C 86.2 34 85.8 33.8 85.4 33.8 C 85 33.8 84.6 34 84.4 34.3 C 84.1 34.6 83.9 35 83.9 35.4 Z M 88.8 38 L 88.8 33.3 L 89.5 33.3 C 89.5 33.3 89.47 34.56 89.5 34.6 C 89.6 34.2 89.9 33.8 90.2 33.6 C 90.6 33.4 90.9 33.3 91.4 33.3 C 91.37 33.27 91.4 34 91.4 34 C 91.4 34 91.31 34.01 91.3 34 C 90.8 34 90.3 34.2 90 34.6 C 89.6 34.9 89.5 35.5 89.5 36.1 C 89.47 36.15 89.5 38 89.5 38 L 88.8 38 Z M 92.2 39.1 C 92.2 39.1 92.1 38.8 92.1 38.8 C 92.5 38.6 92.7 38.4 92.7 38 C 92.66 38 92.3 38 92.3 38 L 92.3 37.1 L 93.2 37.1 C 93.2 37.1 93.17 37.86 93.2 37.9 C 93.2 38.2 93.1 38.5 92.9 38.7 C 92.8 38.9 92.5 39 92.2 39.1 Z M 101.3 37.2 C 100.8 37.8 100.1 38.1 99.4 38.1 C 98.7 38.1 98.2 37.9 97.7 37.4 C 97.3 37 97 36.4 97 35.7 C 97 35.7 97 35.7 97 35.7 C 97 35 97.2 34.4 97.7 33.9 C 98.1 33.5 98.6 33.2 99.3 33.2 C 99.9 33.2 100.5 33.5 100.9 33.9 C 101.2 34.4 101.4 35 101.4 35.7 C 101.4 35.8 101.4 35.9 101.4 35.9 C 101.4 35.9 97.7 35.9 97.7 35.9 C 97.8 36.4 98 36.8 98.3 37.1 C 98.6 37.4 99 37.5 99.4 37.5 C 99.9 37.5 100.4 37.3 100.8 36.8 C 100.84 36.85 101.3 37.2 101.3 37.2 C 101.3 37.2 101.28 37.23 101.3 37.2 Z M 97.7 35.4 C 97.7 35.4 100.7 35.4 100.7 35.4 C 100.7 35 100.6 34.6 100.3 34.3 C 100 34 99.7 33.8 99.3 33.8 C 98.8 33.8 98.5 34 98.2 34.3 C 97.9 34.6 97.8 35 97.7 35.4 Z M 104.2 38 L 102.2 33.3 L 103 33.3 L 104.5 37.2 L 106.1 33.3 L 106.8 33.3 L 104.8 38 L 104.2 38 Z M 108 32.3 L 108 31.6 L 108.7 31.6 L 108.7 32.3 L 108 32.3 Z M 108 38 L 108 33.3 L 108.7 33.3 L 108.7 38 L 108 38 Z M 110.3 38 L 110.3 33.3 L 111 33.3 C 111 33.3 111 34.16 111 34.2 C 111.4 33.6 111.9 33.2 112.6 33.2 C 113.1 33.2 113.6 33.4 113.9 33.8 C 114.2 34.1 114.4 34.6 114.4 35.1 C 114.37 35.11 114.4 38 114.4 38 L 113.7 38 C 113.7 38 113.68 35.28 113.7 35.3 C 113.7 34.8 113.6 34.5 113.3 34.3 C 113.1 34 112.8 33.9 112.4 33.9 C 112 33.9 111.7 34 111.4 34.3 C 111.1 34.6 111 34.9 111 35.3 C 111 35.34 111 38 111 38 L 110.3 38 Z M 115.9 32.3 L 115.9 31.6 L 116.7 31.6 L 116.7 32.3 L 115.9 32.3 Z M 115.9 38 L 115.9 33.3 L 116.6 33.3 L 116.6 38 L 115.9 38 Z M 117.9 38 L 117.9 37.6 L 121 33.9 L 118.1 33.9 L 118.1 33.3 L 122 33.3 L 122 33.8 L 118.9 37.4 L 122 37.4 L 122 38 L 117.9 38 Z M 123.2 32.3 L 123.2 31.6 L 124 31.6 L 124 32.3 L 123.2 32.3 Z M 123.3 38 L 123.3 33.3 L 124 33.3 L 124 38 L 123.3 38 Z M 125.6 38 L 125.6 33.3 L 126.3 33.3 C 126.3 33.3 126.28 34.16 126.3 34.2 C 126.7 33.6 127.2 33.2 127.9 33.2 C 128.4 33.2 128.9 33.4 129.2 33.8 C 129.5 34.1 129.7 34.6 129.7 35.1 C 129.65 35.11 129.7 38 129.7 38 L 129 38 C 129 38 128.96 35.28 129 35.3 C 129 34.8 128.8 34.5 128.6 34.3 C 128.4 34 128.1 33.9 127.7 33.9 C 127.3 33.9 126.9 34 126.7 34.3 C 126.4 34.6 126.3 34.9 126.3 35.3 C 126.28 35.34 126.3 38 126.3 38 L 125.6 38 Z M 133.8 38 L 133.8 31.4 L 134.5 31.4 C 134.5 31.4 134.52 34.16 134.5 34.2 C 134.9 33.6 135.4 33.2 136.1 33.2 C 136.7 33.2 137.1 33.4 137.4 33.8 C 137.7 34.1 137.9 34.6 137.9 35.1 C 137.9 35.11 137.9 38 137.9 38 L 137.2 38 C 137.2 38 137.2 35.28 137.2 35.3 C 137.2 34.8 137.1 34.5 136.9 34.3 C 136.6 34 136.3 33.9 135.9 33.9 C 135.5 33.9 135.2 34 134.9 34.3 C 134.7 34.6 134.5 34.9 134.5 35.3 C 134.52 35.34 134.5 38 134.5 38 L 133.8 38 Z M 143.3 37.2 C 142.8 37.8 142.2 38.1 141.4 38.1 C 140.8 38.1 140.2 37.9 139.8 37.4 C 139.3 37 139.1 36.4 139.1 35.7 C 139.1 35.7 139.1 35.7 139.1 35.7 C 139.1 35 139.3 34.4 139.7 33.9 C 140.1 33.5 140.7 33.2 141.3 33.2 C 142 33.2 142.5 33.5 142.9 33.9 C 143.3 34.4 143.5 35 143.5 35.7 C 143.5 35.8 143.5 35.9 143.5 35.9 C 143.5 35.9 139.8 35.9 139.8 35.9 C 139.8 36.4 140 36.8 140.3 37.1 C 140.6 37.4 141 37.5 141.4 37.5 C 142 37.5 142.5 37.3 142.9 36.8 C 142.89 36.85 143.3 37.2 143.3 37.2 C 143.3 37.2 143.32 37.23 143.3 37.2 Z M 139.8 35.4 C 139.8 35.4 142.8 35.4 142.8 35.4 C 142.7 35 142.6 34.6 142.3 34.3 C 142.1 34 141.7 33.8 141.3 33.8 C 140.9 33.8 140.6 34 140.3 34.3 C 140 34.6 139.8 35 139.8 35.4 Z M 144.7 38 L 144.7 33.3 L 145.4 33.3 C 145.4 33.3 145.39 34.56 145.4 34.6 C 145.6 34.2 145.8 33.8 146.2 33.6 C 146.5 33.4 146.9 33.3 147.3 33.3 C 147.29 33.27 147.3 34 147.3 34 C 147.3 34 147.24 34.01 147.2 34 C 146.7 34 146.3 34.2 145.9 34.6 C 145.6 34.9 145.4 35.5 145.4 36.1 C 145.39 36.15 145.4 38 145.4 38 L 144.7 38 Z M 153 37.2 L 154.5 33.3 L 155.3 33.3 C 155.3 33.3 153.31 38.15 153.3 38.2 C 153.1 38.6 152.9 39 152.7 39.2 C 152.4 39.4 152.1 39.5 151.8 39.5 C 151.4 39.5 151.1 39.4 150.8 39.2 C 150.8 39.2 151 38.7 151 38.7 C 151.2 38.8 151.5 38.9 151.7 38.9 C 152 38.9 152.1 38.8 152.3 38.7 C 152.4 38.5 152.6 38.3 152.7 38 C 152.69 37.98 150.6 33.3 150.6 33.3 L 151.3 33.3 L 153 37.2 Z M 160.3 37.2 C 159.8 37.8 159.2 38.1 158.4 38.1 C 157.7 38.1 157.2 37.9 156.8 37.4 C 156.3 37 156.1 36.4 156.1 35.7 C 156.1 35.7 156.1 35.7 156.1 35.7 C 156.1 35 156.3 34.4 156.7 33.9 C 157.1 33.5 157.7 33.2 158.3 33.2 C 159 33.2 159.5 33.5 159.9 33.9 C 160.3 34.4 160.5 35 160.5 35.7 C 160.5 35.8 160.5 35.9 160.5 35.9 C 160.5 35.9 156.8 35.9 156.8 35.9 C 156.8 36.4 157 36.8 157.3 37.1 C 157.6 37.4 158 37.5 158.4 37.5 C 159 37.5 159.5 37.3 159.9 36.8 C 159.88 36.85 160.3 37.2 160.3 37.2 C 160.3 37.2 160.31 37.23 160.3 37.2 Z M 156.8 35.4 C 156.8 35.4 159.8 35.4 159.8 35.4 C 159.7 35 159.6 34.6 159.3 34.3 C 159.1 34 158.7 33.8 158.3 33.8 C 157.9 33.8 157.5 34 157.3 34.3 C 157 34.6 156.8 35 156.8 35.4 Z M 161.7 38 L 161.7 33.3 L 162.4 33.3 C 162.4 33.3 162.38 34.56 162.4 34.6 C 162.6 34.2 162.8 33.8 163.1 33.6 C 163.5 33.4 163.9 33.3 164.3 33.3 C 164.28 33.27 164.3 34 164.3 34 C 164.3 34 164.23 34.01 164.2 34 C 163.7 34 163.3 34.2 162.9 34.6 C 162.6 34.9 162.4 35.5 162.4 36.1 C 162.38 36.15 162.4 38 162.4 38 L 161.7 38 Z M 165.4 32.3 L 165.4 31.6 L 166.1 31.6 L 166.1 32.3 L 165.4 32.3 Z M 165.4 38 L 165.4 33.3 L 166.1 33.3 L 166.1 38 L 165.4 38 Z M 167.7 38 L 167.7 33.3 L 168.4 33.3 C 168.4 33.3 168.4 34.16 168.4 34.2 C 168.8 33.6 169.3 33.2 170 33.2 C 170.5 33.2 171 33.4 171.3 33.8 C 171.6 34.1 171.8 34.6 171.8 35.1 C 171.77 35.11 171.8 38 171.8 38 L 171.1 38 C 171.1 38 171.08 35.28 171.1 35.3 C 171.1 34.8 171 34.5 170.7 34.3 C 170.5 34 170.2 33.9 169.8 33.9 C 169.4 33.9 169.1 34 168.8 34.3 C 168.5 34.6 168.4 34.9 168.4 35.3 C 168.4 35.34 168.4 38 168.4 38 L 167.7 38 Z M 177 37.1 C 176.5 37.8 175.9 38.1 175.2 38.1 C 174.6 38.1 174.1 37.9 173.6 37.4 C 173.2 37 173 36.4 173 35.7 C 173 35.7 173 35.7 173 35.7 C 173 34.9 173.2 34.4 173.6 33.9 C 174.1 33.5 174.6 33.2 175.2 33.2 C 175.9 33.2 176.5 33.6 177 34.2 C 176.98 34.24 177 31.4 177 31.4 L 177.7 31.4 L 177.7 38 L 177 38 L 177 37.1 C 177 37.1 176.98 37.06 177 37.1 Z M 175.3 37.5 C 175.8 37.5 176.2 37.3 176.5 37 C 176.8 36.6 177 36.2 177 35.7 C 177 35.7 177 35.7 177 35.7 C 177 35.1 176.8 34.7 176.5 34.4 C 176.2 34 175.8 33.9 175.3 33.9 C 174.9 33.9 174.5 34 174.2 34.4 C 173.8 34.7 173.7 35.1 173.7 35.7 C 173.7 35.7 173.7 35.7 173.7 35.7 C 173.7 36.2 173.8 36.7 174.2 37 C 174.5 37.3 174.9 37.5 175.3 37.5 Z M 183.2 37.2 C 182.7 37.8 182 38.1 181.3 38.1 C 180.6 38.1 180.1 37.9 179.6 37.4 C 179.2 37 178.9 36.4 178.9 35.7 C 178.9 35.7 178.9 35.7 178.9 35.7 C 178.9 35 179.1 34.4 179.6 33.9 C 180 33.5 180.5 33.2 181.2 33.2 C 181.8 33.2 182.4 33.5 182.8 33.9 C 183.1 34.4 183.3 35 183.3 35.7 C 183.3 35.8 183.3 35.9 183.3 35.9 C 183.3 35.9 179.6 35.9 179.6 35.9 C 179.7 36.4 179.9 36.8 180.2 37.1 C 180.5 37.4 180.8 37.5 181.3 37.5 C 181.8 37.5 182.3 37.3 182.7 36.8 C 182.74 36.85 183.2 37.2 183.2 37.2 C 183.2 37.2 183.17 37.23 183.2 37.2 Z M 179.6 35.4 C 179.6 35.4 182.6 35.4 182.6 35.4 C 182.6 35 182.5 34.6 182.2 34.3 C 181.9 34 181.6 33.8 181.1 33.8 C 180.7 33.8 180.4 34 180.1 34.3 C 179.8 34.6 179.7 35 179.6 35.4 Z M 189.6 37.9 C 189.4 38 189.1 38.1 188.8 38.1 C 188.4 38.1 188.1 38 187.8 37.8 C 187.6 37.5 187.5 37.2 187.5 36.8 C 187.49 36.77 187.5 34 187.5 34 L 186.8 34 L 186.8 33.3 L 187.5 33.3 L 187.5 31.9 L 188.2 31.9 L 188.2 33.3 L 189.7 33.3 L 189.7 34 L 188.2 34 C 188.2 34 188.19 36.68 188.2 36.7 C 188.2 37.2 188.4 37.5 189 37.5 C 189.2 37.5 189.4 37.4 189.6 37.3 C 189.64 37.29 189.6 37.9 189.6 37.9 C 189.6 37.9 189.64 37.88 189.6 37.9 Z M 194 37.3 C 193.5 37.8 193 38.1 192.3 38.1 C 191.8 38.1 191.4 38 191.1 37.7 C 190.7 37.5 190.5 37.1 190.5 36.6 C 190.5 36.6 190.5 36.6 190.5 36.6 C 190.5 36.2 190.7 35.8 191.1 35.5 C 191.4 35.3 191.9 35.1 192.5 35.1 C 193 35.1 193.5 35.2 194 35.3 C 194 35.3 194 35.2 194 35.2 C 194 34.8 193.8 34.4 193.6 34.2 C 193.4 34 193 33.9 192.6 33.9 C 192.1 33.9 191.6 34 191.2 34.2 C 191.2 34.2 190.9 33.7 190.9 33.7 C 191.5 33.4 192.1 33.3 192.6 33.3 C 193.3 33.3 193.8 33.5 194.1 33.8 C 194.5 34.1 194.6 34.6 194.6 35.2 C 194.62 35.16 194.6 38 194.6 38 L 194 38 L 194 37.3 C 194 37.3 193.96 37.3 194 37.3 Z M 192.4 37.5 C 192.8 37.5 193.2 37.4 193.5 37.2 C 193.8 37 194 36.7 194 36.3 C 194 36.3 194 35.8 194 35.8 C 193.5 35.7 193 35.6 192.6 35.6 C 192.2 35.6 191.8 35.7 191.6 35.9 C 191.4 36.1 191.2 36.3 191.2 36.6 C 191.2 36.6 191.2 36.6 191.2 36.6 C 191.2 36.9 191.4 37.1 191.6 37.3 C 191.8 37.5 192.1 37.5 192.4 37.5 Z M 197.2 39.4 L 196.5 39.1 C 196.5 39.1 197.24 38.06 197.2 38.1 C 196.7 38 196.1 37.8 195.7 37.4 C 195.7 37.4 196.1 36.9 196.1 36.9 C 196.6 37.3 197.1 37.5 197.7 37.5 C 198 37.5 198.2 37.4 198.4 37.3 C 198.5 37.2 198.6 37 198.6 36.8 C 198.6 36.8 198.6 36.7 198.6 36.7 C 198.6 36.5 198.5 36.4 198.3 36.3 C 198.1 36.1 197.9 36 197.5 35.9 C 197.3 35.9 197.2 35.8 197.1 35.8 C 197 35.8 196.9 35.7 196.8 35.7 C 196.6 35.6 196.5 35.6 196.4 35.5 C 196.4 35.5 196.3 35.4 196.2 35.3 C 196.1 35.2 196 35.1 196 35 C 196 34.9 195.9 34.8 195.9 34.6 C 195.9 34.6 195.9 34.6 195.9 34.6 C 195.9 34.2 196.1 33.9 196.4 33.6 C 196.7 33.4 197.1 33.3 197.5 33.3 C 198.1 33.3 198.7 33.4 199.2 33.8 C 199.2 33.8 198.9 34.3 198.9 34.3 C 198.4 34 198 33.9 197.5 33.9 C 197.2 33.9 197 33.9 196.8 34 C 196.7 34.2 196.6 34.3 196.6 34.5 C 196.6 34.5 196.6 34.5 196.6 34.5 C 196.6 34.6 196.6 34.7 196.7 34.8 C 196.7 34.8 196.8 34.9 196.8 35 C 196.9 35 197 35.1 197.1 35.1 C 197.2 35.2 197.4 35.2 197.4 35.2 C 197.5 35.3 197.6 35.3 197.8 35.3 C 198 35.4 198.1 35.4 198.2 35.5 C 198.4 35.5 198.5 35.6 198.6 35.7 C 198.8 35.7 198.9 35.8 199 35.9 C 199.1 36 199.1 36.1 199.2 36.2 C 199.3 36.4 199.3 36.5 199.3 36.7 C 199.3 36.7 199.3 36.7 199.3 36.7 C 199.3 37.1 199.2 37.4 198.9 37.7 C 198.6 37.9 198.3 38 197.8 38.1 C 197.82 38.08 197.2 39.4 197.2 39.4 Z M 200.6 38 L 200.6 33.3 L 201.3 33.3 L 201.3 38 L 200.6 38 Z M 202.9 38 L 202.9 33.3 L 203.6 33.3 C 203.6 33.3 203.64 34.13 203.6 34.1 C 203.8 33.9 204 33.6 204.3 33.5 C 204.5 33.3 204.8 33.2 205.1 33.2 C 205.8 33.2 206.3 33.6 206.6 34.2 C 207.1 33.6 207.6 33.2 208.3 33.2 C 208.8 33.2 209.2 33.4 209.5 33.7 C 209.8 34.1 210 34.5 210 35.1 C 210 35.12 210 38 210 38 L 209.3 38 C 209.3 38 209.31 35.28 209.3 35.3 C 209.3 34.8 209.2 34.5 209 34.2 C 208.8 34 208.5 33.9 208.1 33.9 C 207.7 33.9 207.4 34 207.2 34.3 C 206.9 34.5 206.8 34.9 206.8 35.3 C 206.82 35.32 206.8 38 206.8 38 L 206.1 38 C 206.1 38 206.13 35.26 206.1 35.3 C 206.1 34.8 206 34.5 205.8 34.2 C 205.6 34 205.3 33.9 204.9 33.9 C 204.6 33.9 204.3 34 204 34.3 C 203.8 34.6 203.6 34.9 203.6 35.3 C 203.64 35.34 203.6 38 203.6 38 L 202.9 38 Z M 214.5 37.3 C 214.1 37.8 213.6 38.1 212.9 38.1 C 212.4 38.1 212 38 211.6 37.7 C 211.3 37.5 211.1 37.1 211.1 36.6 C 211.1 36.6 211.1 36.6 211.1 36.6 C 211.1 36.2 211.3 35.8 211.7 35.5 C 212 35.3 212.5 35.1 213.1 35.1 C 213.6 35.1 214.1 35.2 214.5 35.3 C 214.5 35.3 214.5 35.2 214.5 35.2 C 214.5 34.8 214.4 34.4 214.2 34.2 C 213.9 34 213.6 33.9 213.2 33.9 C 212.7 33.9 212.2 34 211.7 34.2 C 211.7 34.2 211.5 33.7 211.5 33.7 C 212.1 33.4 212.7 33.3 213.2 33.3 C 213.9 33.3 214.4 33.5 214.7 33.8 C 215.1 34.1 215.2 34.6 215.2 35.2 C 215.21 35.16 215.2 38 215.2 38 L 214.5 38 L 214.5 37.3 C 214.5 37.3 214.55 37.3 214.5 37.3 Z M 213 37.5 C 213.4 37.5 213.8 37.4 214.1 37.2 C 214.4 37 214.6 36.7 214.6 36.3 C 214.6 36.3 214.6 35.8 214.6 35.8 C 214.1 35.7 213.6 35.6 213.2 35.6 C 212.8 35.6 212.4 35.7 212.2 35.9 C 211.9 36.1 211.8 36.3 211.8 36.6 C 211.8 36.6 211.8 36.6 211.8 36.6 C 211.8 36.9 211.9 37.1 212.2 37.3 C 212.4 37.5 212.7 37.5 213 37.5 Z M 216.4 39.1 C 216.4 39.1 216.3 38.8 216.3 38.8 C 216.8 38.6 217 38.4 216.9 38 C 216.93 38 216.6 38 216.6 38 L 216.6 37.1 L 217.4 37.1 C 217.4 37.1 217.44 37.86 217.4 37.9 C 217.4 38.2 217.4 38.5 217.2 38.7 C 217 38.9 216.8 39 216.4 39.1 Z M 225.3 37.1 C 224.8 37.8 224.3 38.1 223.5 38.1 C 223 38.1 222.4 37.9 222 37.4 C 221.5 37 221.3 36.4 221.3 35.7 C 221.3 35.7 221.3 35.7 221.3 35.7 C 221.3 34.9 221.5 34.4 222 33.9 C 222.4 33.5 223 33.2 223.5 33.2 C 224.3 33.2 224.9 33.6 225.3 34.2 C 225.33 34.24 225.3 31.4 225.3 31.4 L 226 31.4 L 226 38 L 225.3 38 L 225.3 37.1 C 225.3 37.1 225.33 37.06 225.3 37.1 Z M 223.7 37.5 C 224.1 37.5 224.5 37.3 224.9 37 C 225.2 36.6 225.4 36.2 225.4 35.7 C 225.4 35.7 225.4 35.7 225.4 35.7 C 225.4 35.1 225.2 34.7 224.9 34.4 C 224.5 34 224.1 33.9 223.7 33.9 C 223.2 33.9 222.8 34 222.5 34.4 C 222.2 34.7 222 35.1 222 35.7 C 222 35.7 222 35.7 222 35.7 C 222 36.2 222.2 36.7 222.5 37 C 222.8 37.3 223.2 37.5 223.7 37.5 Z M 229.9 32.6 L 229.9 31.8 L 230.7 31.8 L 230.7 32.6 L 229.9 32.6 Z M 228.3 32.6 L 228.3 31.8 L 229.1 31.8 L 229.1 32.6 L 228.3 32.6 Z M 230.9 37.2 C 230.5 37.8 230 38.1 229.3 38.1 C 228.7 38.1 228.3 37.9 228 37.6 C 227.7 37.2 227.5 36.8 227.5 36.2 C 227.5 36.24 227.5 33.3 227.5 33.3 L 228.2 33.3 C 228.2 33.3 228.19 36.06 228.2 36.1 C 228.2 36.5 228.3 36.8 228.5 37.1 C 228.8 37.3 229.1 37.5 229.5 37.5 C 229.9 37.5 230.2 37.3 230.5 37.1 C 230.7 36.8 230.9 36.4 230.9 36 C 230.87 36.01 230.9 33.3 230.9 33.3 L 231.6 33.3 L 231.6 38 L 230.9 38 L 230.9 37.2 C 230.9 37.2 230.87 37.19 230.9 37.2 Z M 232.8 38 L 232.8 37.6 L 235.9 33.9 L 233 33.9 L 233 33.3 L 236.9 33.3 L 236.9 33.8 L 233.8 37.4 L 236.9 37.4 L 236.9 38 L 232.8 38 Z M 242.1 37.2 C 241.6 37.8 240.9 38.1 240.2 38.1 C 239.5 38.1 239 37.9 238.5 37.4 C 238.1 37 237.8 36.4 237.8 35.7 C 237.8 35.7 237.8 35.7 237.8 35.7 C 237.8 35 238 34.4 238.5 33.9 C 238.9 33.5 239.4 33.2 240.1 33.2 C 240.7 33.2 241.3 33.5 241.6 33.9 C 242 34.4 242.2 35 242.2 35.7 C 242.2 35.8 242.2 35.9 242.2 35.9 C 242.2 35.9 238.5 35.9 238.5 35.9 C 238.6 36.4 238.8 36.8 239.1 37.1 C 239.4 37.4 239.7 37.5 240.2 37.5 C 240.7 37.5 241.2 37.3 241.6 36.8 C 241.64 36.85 242.1 37.2 242.1 37.2 C 242.1 37.2 242.07 37.23 242.1 37.2 Z M 238.5 35.4 C 238.5 35.4 241.5 35.4 241.5 35.4 C 241.5 35 241.3 34.6 241.1 34.3 C 240.8 34 240.5 33.8 240 33.8 C 239.6 33.8 239.3 34 239 34.3 C 238.7 34.6 238.6 35 238.5 35.4 Z M 243.4 38 L 243.4 33.3 L 244.1 33.3 C 244.1 33.3 244.14 34.16 244.1 34.2 C 244.5 33.6 245 33.2 245.7 33.2 C 246.3 33.2 246.7 33.4 247 33.8 C 247.4 34.1 247.5 34.6 247.5 35.1 C 247.51 35.11 247.5 38 247.5 38 L 246.8 38 C 246.8 38 246.82 35.28 246.8 35.3 C 246.8 34.8 246.7 34.5 246.5 34.3 C 246.3 34 245.9 33.9 245.5 33.9 C 245.1 33.9 244.8 34 244.5 34.3 C 244.3 34.6 244.1 34.9 244.1 35.3 C 244.14 35.34 244.1 38 244.1 38 L 243.4 38 Z M 249.1 38 L 249.1 31.4 L 249.7 31.4 L 249.7 38 L 249.1 38 Z M 255.3 37.2 C 254.8 37.8 254.2 38.1 253.4 38.1 C 252.7 38.1 252.2 37.9 251.7 37.4 C 251.3 37 251.1 36.4 251.1 35.7 C 251.1 35.7 251.1 35.7 251.1 35.7 C 251.1 35 251.3 34.4 251.7 33.9 C 252.1 33.5 252.7 33.2 253.3 33.2 C 254 33.2 254.5 33.5 254.9 33.9 C 255.3 34.4 255.5 35 255.5 35.7 C 255.5 35.8 255.5 35.9 255.5 35.9 C 255.5 35.9 251.8 35.9 251.8 35.9 C 251.8 36.4 252 36.8 252.3 37.1 C 252.6 37.4 253 37.5 253.4 37.5 C 254 37.5 254.4 37.3 254.9 36.8 C 254.88 36.85 255.3 37.2 255.3 37.2 C 255.3 37.2 255.31 37.23 255.3 37.2 Z M 251.8 35.4 C 251.8 35.4 254.8 35.4 254.8 35.4 C 254.7 35 254.6 34.6 254.3 34.3 C 254.1 34 253.7 33.8 253.3 33.8 C 252.9 33.8 252.5 34 252.3 34.3 C 252 34.6 251.8 35 251.8 35.4 Z M 256.7 38 L 256.7 33.3 L 257.4 33.3 C 257.4 33.3 257.38 34.13 257.4 34.1 C 257.6 33.9 257.8 33.6 258 33.5 C 258.2 33.3 258.5 33.2 258.9 33.2 C 259.6 33.2 260.1 33.6 260.4 34.2 C 260.8 33.6 261.3 33.2 262 33.2 C 262.6 33.2 263 33.4 263.3 33.7 C 263.6 34.1 263.7 34.5 263.7 35.1 C 263.74 35.12 263.7 38 263.7 38 L 263 38 C 263 38 263.05 35.28 263 35.3 C 263 34.8 262.9 34.5 262.7 34.2 C 262.5 34 262.2 33.9 261.8 33.9 C 261.5 33.9 261.2 34 260.9 34.3 C 260.7 34.5 260.6 34.9 260.6 35.3 C 260.55 35.32 260.6 38 260.6 38 L 259.9 38 C 259.9 38 259.87 35.26 259.9 35.3 C 259.9 34.8 259.8 34.5 259.6 34.2 C 259.3 34 259 33.9 258.7 33.9 C 258.3 33.9 258 34 257.7 34.3 C 257.5 34.6 257.4 34.9 257.4 35.3 C 257.38 35.34 257.4 38 257.4 38 L 256.7 38 Z M 269.2 37.2 C 268.7 37.8 268 38.1 267.3 38.1 C 266.6 38.1 266.1 37.9 265.6 37.4 C 265.2 37 264.9 36.4 264.9 35.7 C 264.9 35.7 264.9 35.7 264.9 35.7 C 264.9 35 265.1 34.4 265.6 33.9 C 266 33.5 266.5 33.2 267.2 33.2 C 267.8 33.2 268.4 33.5 268.7 33.9 C 269.1 34.4 269.3 35 269.3 35.7 C 269.3 35.8 269.3 35.9 269.3 35.9 C 269.3 35.9 265.6 35.9 265.6 35.9 C 265.7 36.4 265.9 36.8 266.2 37.1 C 266.5 37.4 266.8 37.5 267.3 37.5 C 267.8 37.5 268.3 37.3 268.7 36.8 C 268.74 36.85 269.2 37.2 269.2 37.2 C 269.2 37.2 269.17 37.23 269.2 37.2 Z M 265.6 35.4 C 265.6 35.4 268.6 35.4 268.6 35.4 C 268.6 35 268.4 34.6 268.2 34.3 C 267.9 34 267.6 33.8 267.1 33.8 C 266.7 33.8 266.4 34 266.1 34.3 C 265.8 34.6 265.7 35 265.6 35.4 Z M 274.8 38 L 272.8 33.3 L 273.6 33.3 L 275.1 37.2 L 276.7 33.3 L 277.4 33.3 L 275.4 38 L 274.8 38 Z M 282.5 37.2 C 282 37.8 281.3 38.1 280.6 38.1 C 279.9 38.1 279.4 37.9 278.9 37.4 C 278.5 37 278.2 36.4 278.2 35.7 C 278.2 35.7 278.2 35.7 278.2 35.7 C 278.2 35 278.5 34.4 278.9 33.9 C 279.3 33.5 279.8 33.2 280.5 33.2 C 281.1 33.2 281.7 33.5 282.1 33.9 C 282.4 34.4 282.6 35 282.6 35.7 C 282.6 35.8 282.6 35.9 282.6 35.9 C 282.6 35.9 278.9 35.9 278.9 35.9 C 279 36.4 279.2 36.8 279.5 37.1 C 279.8 37.4 280.2 37.5 280.6 37.5 C 281.1 37.5 281.6 37.3 282 36.8 C 282.05 36.85 282.5 37.2 282.5 37.2 C 282.5 37.2 282.48 37.23 282.5 37.2 Z M 278.9 35.4 C 278.9 35.4 281.9 35.4 281.9 35.4 C 281.9 35 281.8 34.6 281.5 34.3 C 281.2 34 280.9 33.8 280.5 33.8 C 280.1 33.8 279.7 34 279.4 34.3 C 279.2 34.6 279 35 278.9 35.4 Z " stroke="none" fill="#000"/>  </g>  <g id="Polygon56376">    <path d="M 1 9.6 L 1 1.2 L 2.9 1.2 L 2.9 4.5 L 6.3 4.5 L 6.3 1.2 L 8.1 1.2 L 8.1 9.6 L 6.3 9.6 L 6.3 6.2 L 2.9 6.2 L 2.9 9.6 L 1 9.6 Z M 15.6 8.5 C 15 9.3 14.1 9.7 13 9.7 C 12 9.7 11.2 9.4 10.6 8.8 C 9.9 8.2 9.6 7.4 9.6 6.4 C 9.6 6.4 9.6 6.4 9.6 6.4 C 9.6 5.5 9.9 4.7 10.5 4 C 11.1 3.4 11.9 3 12.8 3 C 13.8 3 14.6 3.4 15.1 4.1 C 15.7 4.7 15.9 5.6 15.9 6.5 C 15.9 6.6 15.9 6.8 15.9 7 C 15.9 7 11.4 7 11.4 7 C 11.5 7.4 11.7 7.7 12 8 C 12.2 8.2 12.6 8.3 13 8.3 C 13.6 8.3 14.1 8.1 14.6 7.6 C 14.57 7.62 15.6 8.5 15.6 8.5 C 15.6 8.5 15.61 8.54 15.6 8.5 Z M 11.4 5.9 C 11.4 5.9 14.2 5.9 14.2 5.9 C 14.1 5.5 14 5.1 13.7 4.9 C 13.5 4.6 13.2 4.5 12.8 4.5 C 12.4 4.5 12.1 4.6 11.9 4.9 C 11.6 5.1 11.5 5.5 11.4 5.9 Z M 17.3 9.6 L 17.3 3.2 L 19.1 3.2 C 19.1 3.2 19.12 4.46 19.1 4.5 C 19.5 3.5 20.2 3 21.2 3 C 21.17 3.05 21.2 5 21.2 5 C 21.2 5 21.07 4.96 21.1 5 C 20.4 5 20 5.1 19.6 5.5 C 19.3 5.9 19.1 6.5 19.1 7.2 C 19.12 7.22 19.1 9.6 19.1 9.6 L 17.3 9.6 Z M 25.7 9.6 L 25.7 8.3 L 29 4.6 L 25.8 4.6 L 25.8 3.2 L 31.3 3.2 L 31.3 4.5 L 27.9 8.1 L 31.3 8.1 L 31.3 9.6 L 25.7 9.6 Z M 36.4 8.9 C 35.9 9.4 35.3 9.7 34.5 9.7 C 33.9 9.7 33.3 9.5 32.9 9.2 C 32.5 8.8 32.3 8.4 32.3 7.8 C 32.3 7.8 32.3 7.7 32.3 7.7 C 32.3 7.1 32.5 6.5 33 6.2 C 33.4 5.8 34.1 5.7 34.9 5.7 C 35.4 5.7 35.9 5.8 36.4 5.9 C 36.4 5.9 36.4 5.8 36.4 5.8 C 36.4 5 36 4.7 35.1 4.7 C 34.5 4.7 33.9 4.8 33.3 5 C 33.3 5 32.8 3.6 32.8 3.6 C 33.6 3.3 34.5 3.1 35.3 3.1 C 36.3 3.1 37 3.3 37.5 3.8 C 38 4.3 38.2 5 38.2 5.9 C 38.2 5.87 38.2 9.6 38.2 9.6 L 36.4 9.6 L 36.4 8.9 C 36.4 8.9 36.43 8.9 36.4 8.9 Z M 35 8.5 C 35.5 8.5 35.8 8.4 36.1 8.1 C 36.3 7.9 36.5 7.7 36.5 7.3 C 36.5 7.3 36.5 7 36.5 7 C 36.1 6.8 35.7 6.8 35.3 6.8 C 34.9 6.8 34.6 6.8 34.4 7 C 34.2 7.1 34 7.4 34 7.7 C 34 7.7 34 7.7 34 7.7 C 34 7.9 34.1 8.1 34.3 8.2 C 34.5 8.4 34.7 8.5 35 8.5 Z M 39.8 9.6 L 39.8 3.2 L 41.6 3.2 C 41.6 3.2 41.59 4.08 41.6 4.1 C 42.1 3.4 42.8 3 43.5 3 C 44.4 3 45 3.4 45.3 4.1 C 45.9 3.4 46.6 3 47.4 3 C 48.1 3 48.6 3.2 49 3.7 C 49.4 4.1 49.6 4.6 49.6 5.4 C 49.58 5.41 49.6 9.6 49.6 9.6 L 47.8 9.6 C 47.8 9.6 47.76 6.01 47.8 6 C 47.8 5.1 47.4 4.7 46.7 4.7 C 46.3 4.7 46.1 4.8 45.9 5 C 45.7 5.3 45.6 5.6 45.6 6 C 45.59 6.01 45.6 9.6 45.6 9.6 L 43.8 9.6 C 43.8 9.6 43.76 6.01 43.8 6 C 43.8 5.1 43.4 4.7 42.7 4.7 C 42.4 4.7 42.1 4.8 41.9 5 C 41.7 5.3 41.6 5.6 41.6 6 C 41.59 6.01 41.6 9.6 41.6 9.6 L 39.8 9.6 Z M 54.9 8.9 C 54.4 9.4 53.8 9.7 53 9.7 C 52.4 9.7 51.8 9.5 51.4 9.2 C 51 8.8 50.8 8.4 50.8 7.8 C 50.8 7.8 50.8 7.7 50.8 7.7 C 50.8 7.1 51 6.5 51.5 6.2 C 52 5.8 52.6 5.7 53.4 5.7 C 53.9 5.7 54.4 5.8 54.9 5.9 C 54.9 5.9 54.9 5.8 54.9 5.8 C 54.9 5 54.5 4.7 53.6 4.7 C 53 4.7 52.4 4.8 51.8 5 C 51.8 5 51.3 3.6 51.3 3.6 C 52.1 3.3 53 3.1 53.8 3.1 C 54.8 3.1 55.5 3.3 56 3.8 C 56.5 4.3 56.7 5 56.7 5.9 C 56.7 5.87 56.7 9.6 56.7 9.6 L 54.9 9.6 L 54.9 8.9 C 54.9 8.9 54.94 8.9 54.9 8.9 Z M 53.5 8.5 C 54 8.5 54.3 8.4 54.6 8.1 C 54.8 7.9 55 7.7 55 7.3 C 55 7.3 55 7 55 7 C 54.6 6.8 54.2 6.8 53.8 6.8 C 53.4 6.8 53.1 6.8 52.9 7 C 52.7 7.1 52.5 7.4 52.5 7.7 C 52.5 7.7 52.5 7.7 52.5 7.7 C 52.5 7.9 52.6 8.1 52.8 8.2 C 53 8.4 53.2 8.5 53.5 8.5 Z M 58.3 9.6 L 58.3 3.2 L 60.1 3.2 C 60.1 3.2 60.1 4.08 60.1 4.1 C 60.6 3.4 61.3 3 62 3 C 62.7 3 63.2 3.3 63.6 3.7 C 64 4.1 64.2 4.7 64.2 5.4 C 64.16 5.44 64.2 9.6 64.2 9.6 L 62.3 9.6 C 62.3 9.6 62.34 6.01 62.3 6 C 62.3 5.1 62 4.7 61.2 4.7 C 60.9 4.7 60.6 4.8 60.4 5 C 60.2 5.3 60.1 5.6 60.1 6 C 60.1 6.01 60.1 9.6 60.1 9.6 L 58.3 9.6 Z M 72.2 7.5 L 73.6 3.2 L 75.5 3.2 C 75.5 3.2 73 9.76 73 9.8 C 72.8 10.4 72.5 10.9 72.2 11.1 C 71.8 11.4 71.4 11.6 70.9 11.6 C 70.3 11.6 69.8 11.4 69.3 11.1 C 69.3 11.1 69.9 9.8 69.9 9.8 C 70.2 10 70.4 10 70.7 10 C 70.8 10 70.9 10 71 10 C 71.1 9.9 71.2 9.8 71.3 9.6 C 71.29 9.62 68.8 3.2 68.8 3.2 L 70.7 3.2 L 72.2 7.5 Z M 80.3 8.9 C 79.8 9.4 79.2 9.7 78.4 9.7 C 77.7 9.7 77.2 9.5 76.8 9.2 C 76.4 8.8 76.2 8.4 76.2 7.8 C 76.2 7.8 76.2 7.7 76.2 7.7 C 76.2 7.1 76.4 6.5 76.9 6.2 C 77.3 5.8 78 5.7 78.8 5.7 C 79.3 5.7 79.8 5.8 80.3 5.9 C 80.3 5.9 80.3 5.8 80.3 5.8 C 80.3 5 79.9 4.7 78.9 4.7 C 78.4 4.7 77.8 4.8 77.2 5 C 77.2 5 76.7 3.6 76.7 3.6 C 77.5 3.3 78.4 3.1 79.2 3.1 C 80.2 3.1 80.9 3.3 81.4 3.8 C 81.8 4.3 82.1 5 82.1 5.9 C 82.08 5.87 82.1 9.6 82.1 9.6 L 80.3 9.6 L 80.3 8.9 C 80.3 8.9 80.31 8.9 80.3 8.9 Z M 78.9 8.5 C 79.4 8.5 79.7 8.4 80 8.1 C 80.2 7.9 80.4 7.7 80.4 7.3 C 80.4 7.3 80.4 7 80.4 7 C 80 6.8 79.6 6.8 79.2 6.8 C 78.8 6.8 78.5 6.8 78.3 7 C 78 7.1 77.9 7.4 77.9 7.7 C 77.9 7.7 77.9 7.7 77.9 7.7 C 77.9 7.9 78 8.1 78.2 8.2 C 78.4 8.4 78.6 8.5 78.9 8.5 Z M 83.7 9.6 L 83.7 3.2 L 85.5 3.2 C 85.5 3.2 85.47 4.08 85.5 4.1 C 86 3.4 86.6 3 87.4 3 C 88.1 3 88.6 3.3 89 3.7 C 89.4 4.1 89.5 4.7 89.5 5.4 C 89.54 5.44 89.5 9.6 89.5 9.6 L 87.7 9.6 C 87.7 9.6 87.72 6.01 87.7 6 C 87.7 5.1 87.4 4.7 86.6 4.7 C 86.3 4.7 86 4.8 85.8 5 C 85.6 5.3 85.5 5.6 85.5 6 C 85.47 6.01 85.5 9.6 85.5 9.6 L 83.7 9.6 Z M 91.2 9.6 L 91.2 3.2 L 93 3.2 L 93 9.6 L 91.2 9.6 Z M 94.8 9.6 L 94.8 3.2 L 96.6 3.2 C 96.6 3.2 96.57 4.08 96.6 4.1 C 97.1 3.4 97.7 3 98.5 3 C 99.2 3 99.7 3.3 100.1 3.7 C 100.5 4.1 100.6 4.7 100.6 5.4 C 100.64 5.44 100.6 9.6 100.6 9.6 L 98.8 9.6 C 98.8 9.6 98.82 6.01 98.8 6 C 98.8 5.1 98.5 4.7 97.7 4.7 C 97.4 4.7 97.1 4.8 96.9 5 C 96.7 5.3 96.6 5.6 96.6 6 C 96.57 6.01 96.6 9.6 96.6 9.6 L 94.8 9.6 Z M 102.3 9.6 L 102.3 3.2 L 104.1 3.2 L 104.1 9.6 L 102.3 9.6 Z M 105.6 9.6 L 105.6 8.3 L 109 4.6 L 105.7 4.6 L 105.7 3.2 L 111.2 3.2 L 111.2 4.5 L 107.9 8.1 L 111.2 8.1 L 111.2 9.6 L 105.6 9.6 Z M 117.3 8.7 C 116.7 9.4 116.1 9.7 115.2 9.7 C 114.4 9.7 113.8 9.4 113.2 8.8 C 112.6 8.2 112.3 7.4 112.3 6.4 C 112.3 6.4 112.3 6.4 112.3 6.4 C 112.3 5.3 112.6 4.5 113.2 3.9 C 113.7 3.3 114.4 3 115.2 3 C 116 3 116.7 3.4 117.3 4 C 117.25 4.01 117.3 0.8 117.3 0.8 L 119.1 0.8 L 119.1 9.6 L 117.3 9.6 L 117.3 8.7 C 117.3 8.7 117.25 8.68 117.3 8.7 Z M 114.1 6.4 C 114.1 6.9 114.3 7.3 114.6 7.7 C 114.9 8 115.3 8.2 115.7 8.2 C 116.2 8.2 116.5 8 116.8 7.7 C 117.1 7.3 117.3 6.9 117.3 6.4 C 117.3 6.4 117.3 6.4 117.3 6.4 C 117.3 5.9 117.1 5.4 116.8 5.1 C 116.5 4.8 116.2 4.6 115.7 4.6 C 115.3 4.6 114.9 4.8 114.6 5.1 C 114.3 5.4 114.1 5.8 114.1 6.4 C 114.14 6.37 114.1 6.4 114.1 6.4 C 114.1 6.4 114.14 6.4 114.1 6.4 Z M 124.5 8.9 C 124 9.4 123.3 9.7 122.5 9.7 C 121.9 9.7 121.4 9.5 121 9.2 C 120.5 8.8 120.3 8.4 120.3 7.8 C 120.3 7.8 120.3 7.7 120.3 7.7 C 120.3 7.1 120.6 6.5 121 6.2 C 121.5 5.8 122.1 5.7 122.9 5.7 C 123.4 5.7 124 5.8 124.5 5.9 C 124.5 5.9 124.5 5.8 124.5 5.8 C 124.5 5 124 4.7 123.1 4.7 C 122.5 4.7 121.9 4.8 121.3 5 C 121.3 5 120.9 3.6 120.9 3.6 C 121.7 3.3 122.5 3.1 123.4 3.1 C 124.3 3.1 125.1 3.3 125.5 3.8 C 126 4.3 126.2 5 126.2 5.9 C 126.24 5.87 126.2 9.6 126.2 9.6 L 124.5 9.6 L 124.5 8.9 C 124.5 8.9 124.47 8.9 124.5 8.9 Z M 123.1 8.5 C 123.5 8.5 123.9 8.4 124.1 8.1 C 124.4 7.9 124.5 7.7 124.5 7.3 C 124.5 7.3 124.5 7 124.5 7 C 124.1 6.8 123.8 6.8 123.3 6.8 C 123 6.8 122.6 6.8 122.4 7 C 122.2 7.1 122.1 7.4 122.1 7.7 C 122.1 7.7 122.1 7.7 122.1 7.7 C 122.1 7.9 122.2 8.1 122.4 8.2 C 122.5 8.4 122.8 8.5 123.1 8.5 Z " stroke="none" fill="#000"/>  </g></svg>