<?xml version="1.0" standalone="no"?><!DOCTYPE svg PUBLIC "-//W3C//DTD SVG 1.1//EN" "http://www.w3.org/Graphics/SVG/1.1/DTD/svg11.dtd"><svg xmlns="http://www.w3.org/2000/svg" version="1.1" width="127px" height="78.4px" viewBox="0 -3 127 78.4" style="top:-3px">  <desc>Fener – Firefly r n Kodu: ZD 32318 Renk: Black Toz boyal ve elektro kaplamal elik D 15,3 cm, H 25 cm Tasar m: Mav...</desc>  <defs/>  <g id="Polygon42473">    <path d="M 2 59.6 L 2 55.2 L 0.3 55.2 L 0.3 54.7 L 4.2 54.7 L 4.2 55.2 L 2.5 55.2 L 2.5 59.6 L 2 59.6 Z M 7.5 59.1 C 7.2 59.5 6.7 59.7 6.2 59.7 C 5.8 59.7 5.5 59.6 5.2 59.4 C 5 59.2 4.8 58.9 4.8 58.5 C 4.8 58.5 4.8 58.5 4.8 58.5 C 4.8 58.2 5 57.9 5.2 57.7 C 5.5 57.5 5.9 57.4 6.4 57.4 C 6.7 57.4 7.1 57.4 7.5 57.5 C 7.5 57.5 7.5 57.4 7.5 57.4 C 7.5 57.1 7.4 56.8 7.2 56.7 C 7 56.5 6.7 56.4 6.4 56.4 C 6 56.4 5.7 56.5 5.3 56.7 C 5.3 56.7 5.1 56.2 5.1 56.2 C 5.6 56 6 55.9 6.5 55.9 C 7 55.9 7.4 56.1 7.6 56.3 C 7.9 56.6 8 56.9 8 57.4 C 7.99 57.39 8 59.6 8 59.6 L 7.5 59.6 L 7.5 59.1 C 7.5 59.1 7.48 59.05 7.5 59.1 Z M 6.3 59.2 C 6.6 59.2 6.9 59.2 7.1 59 C 7.4 58.8 7.5 58.6 7.5 58.3 C 7.5 58.3 7.5 57.9 7.5 57.9 C 7.1 57.8 6.8 57.8 6.4 57.8 C 6.1 57.8 5.8 57.8 5.6 58 C 5.5 58.1 5.4 58.3 5.4 58.5 C 5.4 58.5 5.4 58.5 5.4 58.5 C 5.4 58.7 5.5 58.9 5.6 59.1 C 5.8 59.2 6 59.2 6.3 59.2 Z M 10.3 59.7 C 9.8 59.7 9.3 59.5 8.8 59.1 C 8.8 59.1 9.1 58.8 9.1 58.8 C 9.5 59.1 9.9 59.2 10.4 59.2 C 10.6 59.2 10.8 59.2 10.9 59.1 C 11 59 11.1 58.8 11.1 58.6 C 11.1 58.6 11.1 58.6 11.1 58.6 C 11.1 58.5 11 58.3 10.9 58.2 C 10.7 58.2 10.5 58.1 10.2 58 C 10.1 58 10 57.9 9.9 57.9 C 9.9 57.9 9.8 57.8 9.7 57.8 C 9.5 57.8 9.5 57.7 9.4 57.7 C 9.3 57.6 9.3 57.6 9.2 57.5 C 9.1 57.4 9.1 57.4 9.1 57.3 C 9 57.2 9 57.1 9 57 C 9 57 9 57 9 57 C 9 56.6 9.1 56.4 9.4 56.2 C 9.6 56 9.9 55.9 10.2 55.9 C 10.7 55.9 11.1 56.1 11.5 56.3 C 11.5 56.3 11.3 56.7 11.3 56.7 C 10.9 56.5 10.6 56.4 10.2 56.4 C 10 56.4 9.9 56.4 9.7 56.5 C 9.6 56.6 9.5 56.7 9.5 56.9 C 9.5 56.9 9.5 56.9 9.5 56.9 C 9.5 57 9.6 57 9.6 57.1 C 9.6 57.1 9.7 57.2 9.7 57.2 C 9.8 57.3 9.8 57.3 9.9 57.4 C 10 57.4 10.1 57.4 10.2 57.4 C 10.2 57.5 10.3 57.5 10.5 57.5 C 10.6 57.6 10.7 57.6 10.8 57.6 C 10.9 57.7 11 57.7 11.1 57.8 C 11.2 57.8 11.3 57.9 11.4 58 C 11.5 58 11.5 58.1 11.6 58.2 C 11.6 58.3 11.6 58.4 11.6 58.6 C 11.6 58.6 11.6 58.6 11.6 58.6 C 11.6 58.9 11.5 59.2 11.3 59.4 C 11 59.6 10.7 59.7 10.3 59.7 Z M 15 59.1 C 14.7 59.5 14.3 59.7 13.7 59.7 C 13.3 59.7 13 59.6 12.8 59.4 C 12.5 59.2 12.4 58.9 12.4 58.5 C 12.4 58.5 12.4 58.5 12.4 58.5 C 12.4 58.2 12.5 57.9 12.8 57.7 C 13.1 57.5 13.4 57.4 13.9 57.4 C 14.3 57.4 14.6 57.4 15 57.5 C 15 57.5 15 57.4 15 57.4 C 15 57.1 14.9 56.8 14.7 56.7 C 14.5 56.5 14.3 56.4 13.9 56.4 C 13.6 56.4 13.2 56.5 12.8 56.7 C 12.8 56.7 12.7 56.2 12.7 56.2 C 13.1 56 13.5 55.9 14 55.9 C 14.5 55.9 14.9 56.1 15.2 56.3 C 15.4 56.6 15.5 56.9 15.5 57.4 C 15.53 57.39 15.5 59.6 15.5 59.6 L 15 59.6 L 15 59.1 C 15 59.1 15.01 59.05 15 59.1 Z M 13.8 59.2 C 14.2 59.2 14.4 59.2 14.7 59 C 14.9 58.8 15 58.6 15 58.3 C 15 58.3 15 57.9 15 57.9 C 14.7 57.8 14.3 57.8 14 57.8 C 13.6 57.8 13.4 57.8 13.2 58 C 13 58.1 12.9 58.3 12.9 58.5 C 12.9 58.5 12.9 58.5 12.9 58.5 C 12.9 58.7 13 58.9 13.2 59.1 C 13.3 59.2 13.6 59.2 13.8 59.2 Z M 16.7 59.6 L 16.7 56 L 17.2 56 C 17.2 56 17.22 56.93 17.2 56.9 C 17.4 56.6 17.6 56.4 17.8 56.2 C 18.1 56 18.4 55.9 18.7 55.9 C 18.7 55.92 18.7 56.5 18.7 56.5 C 18.7 56.5 18.65 56.5 18.7 56.5 C 18.2 56.5 17.9 56.6 17.6 56.9 C 17.4 57.2 17.2 57.6 17.2 58.2 C 17.22 58.16 17.2 59.6 17.2 59.6 L 16.7 59.6 Z M 19.6 59.6 L 19.6 56 L 20.1 56 L 20.1 59.6 L 19.6 59.6 Z M 21.4 59.6 L 21.4 56 L 21.9 56 C 21.9 56 21.9 56.59 21.9 56.6 C 22 56.4 22.2 56.2 22.4 56.1 C 22.6 56 22.8 55.9 23.1 55.9 C 23.6 55.9 24 56.1 24.2 56.6 C 24.5 56.1 25 55.9 25.5 55.9 C 25.9 55.9 26.2 56 26.5 56.3 C 26.7 56.6 26.8 56.9 26.8 57.4 C 26.84 57.36 26.8 59.6 26.8 59.6 L 26.3 59.6 C 26.3 59.6 26.31 57.49 26.3 57.5 C 26.3 57.1 26.2 56.9 26.1 56.7 C 25.9 56.5 25.7 56.4 25.4 56.4 C 25.1 56.4 24.9 56.5 24.7 56.7 C 24.5 56.9 24.4 57.2 24.4 57.5 C 24.37 57.51 24.4 59.6 24.4 59.6 L 23.8 59.6 C 23.8 59.6 23.83 57.47 23.8 57.5 C 23.8 57.1 23.8 56.9 23.6 56.7 C 23.4 56.5 23.2 56.4 22.9 56.4 C 22.6 56.4 22.4 56.5 22.2 56.7 C 22 56.9 21.9 57.2 21.9 57.5 C 21.9 57.53 21.9 59.6 21.9 59.6 L 21.4 59.6 Z M 28 56.7 L 28 56 L 28.6 56 L 28.6 56.7 L 28 56.7 Z M 28 59.6 L 28 58.9 L 28.6 58.9 L 28.6 59.6 L 28 59.6 Z M 32 59.6 L 32 54.7 L 32.5 54.7 L 34.3 57.4 L 36.1 54.7 L 36.7 54.7 L 36.7 59.6 L 36.1 59.6 L 36.1 55.6 L 34.3 58.3 L 34.3 58.3 L 32.5 55.6 L 32.5 59.6 L 32 59.6 Z M 40.3 59.1 C 40 59.5 39.6 59.7 39 59.7 C 38.7 59.7 38.3 59.6 38.1 59.4 C 37.8 59.2 37.7 58.9 37.7 58.5 C 37.7 58.5 37.7 58.5 37.7 58.5 C 37.7 58.2 37.8 57.9 38.1 57.7 C 38.4 57.5 38.8 57.4 39.2 57.4 C 39.6 57.4 40 57.4 40.3 57.5 C 40.3 57.5 40.3 57.4 40.3 57.4 C 40.3 57.1 40.2 56.8 40.1 56.7 C 39.9 56.5 39.6 56.4 39.3 56.4 C 38.9 56.4 38.5 56.5 38.2 56.7 C 38.2 56.7 38 56.2 38 56.2 C 38.4 56 38.9 55.9 39.3 55.9 C 39.8 55.9 40.2 56.1 40.5 56.3 C 40.7 56.6 40.9 56.9 40.9 57.4 C 40.85 57.39 40.9 59.6 40.9 59.6 L 40.3 59.6 L 40.3 59.1 C 40.3 59.1 40.33 59.05 40.3 59.1 Z M 39.1 59.2 C 39.5 59.2 39.8 59.2 40 59 C 40.2 58.8 40.3 58.6 40.3 58.3 C 40.3 58.3 40.3 57.9 40.3 57.9 C 40 57.8 39.6 57.8 39.3 57.8 C 38.9 57.8 38.7 57.8 38.5 58 C 38.3 58.1 38.2 58.3 38.2 58.5 C 38.2 58.5 38.2 58.5 38.2 58.5 C 38.2 58.7 38.3 58.9 38.5 59.1 C 38.7 59.2 38.9 59.2 39.1 59.2 Z M 43.2 59.6 L 41.6 56 L 42.2 56 L 43.5 59 L 44.7 56 L 45.3 56 L 43.7 59.6 L 43.2 59.6 Z M 46.1 59.6 L 46.1 56 L 46.6 56 C 46.6 56 46.65 56.93 46.6 56.9 C 46.8 56.6 47 56.4 47.2 56.2 C 47.5 56 47.8 55.9 48.1 55.9 C 48.12 55.92 48.1 56.5 48.1 56.5 C 48.1 56.5 48.08 56.5 48.1 56.5 C 47.7 56.5 47.3 56.6 47.1 56.9 C 46.8 57.2 46.6 57.6 46.6 58.2 C 46.65 58.16 46.6 59.6 46.6 59.6 L 46.1 59.6 Z M 50.6 59.7 C 50.1 59.7 49.6 59.5 49.3 59.1 C 48.9 58.8 48.7 58.3 48.7 57.8 C 48.7 57.8 48.7 57.8 48.7 57.8 C 48.7 57.3 48.9 56.8 49.3 56.5 C 49.6 56.1 50.1 55.9 50.6 55.9 C 51.1 55.9 51.6 56.1 52 56.5 C 52.3 56.8 52.5 57.3 52.5 57.8 C 52.5 57.8 52.5 57.8 52.5 57.8 C 52.5 58.3 52.3 58.8 51.9 59.1 C 51.6 59.5 51.1 59.7 50.6 59.7 Z M 50.6 59.2 C 51 59.2 51.3 59.1 51.6 58.8 C 51.8 58.5 51.9 58.2 51.9 57.8 C 51.9 57.8 51.9 57.8 51.9 57.8 C 51.9 57.4 51.8 57.1 51.6 56.8 C 51.3 56.5 51 56.4 50.6 56.4 C 50.2 56.4 49.9 56.5 49.6 56.8 C 49.4 57.1 49.3 57.4 49.3 57.8 C 49.3 57.8 49.3 57.8 49.3 57.8 C 49.3 58.2 49.4 58.5 49.7 58.8 C 49.9 59.1 50.2 59.2 50.6 59.2 Z M 52.7 60.5 L 56 54 L 56.5 54 L 53.2 60.5 L 52.7 60.5 Z M 57.1 59.6 L 57.1 54.7 L 57.7 54.7 L 57.7 59.1 L 60.4 59.1 L 60.4 59.6 L 57.1 59.6 Z M 64.4 59 C 64 59.5 63.5 59.7 62.9 59.7 C 62.4 59.7 62 59.5 61.6 59.2 C 61.3 58.8 61.1 58.4 61.1 57.8 C 61.1 57.8 61.1 57.8 61.1 57.8 C 61.1 57.3 61.3 56.8 61.6 56.4 C 61.9 56.1 62.3 55.9 62.8 55.9 C 63.4 55.9 63.8 56.1 64.1 56.4 C 64.4 56.8 64.5 57.3 64.5 57.8 C 64.5 57.9 64.5 57.9 64.5 58 C 64.5 58 61.6 58 61.6 58 C 61.7 58.4 61.8 58.7 62.1 58.9 C 62.3 59.1 62.6 59.2 62.9 59.2 C 63.4 59.2 63.7 59 64.1 58.7 C 64.06 58.7 64.4 59 64.4 59 C 64.4 59 64.4 59 64.4 59 Z M 61.6 57.6 C 61.6 57.6 64 57.6 64 57.6 C 64 57.2 63.8 56.9 63.6 56.7 C 63.4 56.5 63.2 56.4 62.8 56.4 C 62.5 56.4 62.2 56.5 62 56.7 C 61.8 56.9 61.7 57.2 61.6 57.6 Z M 65.7 59.6 L 65.7 56.5 L 65.2 56.5 L 65.2 56 L 65.7 56 C 65.7 56 65.67 55.67 65.7 55.7 C 65.7 55.3 65.8 55 66 54.7 C 66.2 54.6 66.4 54.5 66.8 54.5 C 67 54.5 67.2 54.5 67.4 54.6 C 67.4 54.6 67.4 55 67.4 55 C 67.1 55 67 54.9 66.8 54.9 C 66.4 54.9 66.2 55.2 66.2 55.7 C 66.21 55.7 66.2 56 66.2 56 L 67.4 56 L 67.4 56.5 L 66.2 56.5 L 66.2 59.6 L 65.7 59.6 Z M 71.1 59 C 70.7 59.5 70.2 59.7 69.6 59.7 C 69.1 59.7 68.7 59.5 68.3 59.2 C 68 58.8 67.8 58.4 67.8 57.8 C 67.8 57.8 67.8 57.8 67.8 57.8 C 67.8 57.3 68 56.8 68.3 56.4 C 68.6 56.1 69.1 55.9 69.6 55.9 C 70.1 55.9 70.5 56.1 70.8 56.4 C 71.1 56.8 71.2 57.3 71.2 57.8 C 71.2 57.9 71.2 57.9 71.2 58 C 71.2 58 68.4 58 68.4 58 C 68.4 58.4 68.5 58.7 68.8 58.9 C 69 59.1 69.3 59.2 69.6 59.2 C 70.1 59.2 70.4 59 70.8 58.7 C 70.78 58.7 71.1 59 71.1 59 C 71.1 59 71.11 59 71.1 59 Z M 68.4 57.6 C 68.4 57.6 70.7 57.6 70.7 57.6 C 70.7 57.2 70.6 56.9 70.4 56.7 C 70.2 56.5 69.9 56.4 69.5 56.4 C 69.2 56.4 69 56.5 68.7 56.7 C 68.5 56.9 68.4 57.2 68.4 57.6 Z M 69.3 55.4 L 68.5 54.7 L 69.1 54.4 L 69.8 55.4 L 69.3 55.4 Z M 73.4 59.6 L 71.8 56 L 72.4 56 L 73.6 59 L 74.9 56 L 75.4 56 L 73.9 59.6 L 73.4 59.6 Z M 76.3 59.6 L 76.3 56 L 76.8 56 C 76.8 56 76.83 56.93 76.8 56.9 C 77 56.6 77.2 56.4 77.4 56.2 C 77.7 56 78 55.9 78.3 55.9 C 78.31 55.92 78.3 56.5 78.3 56.5 C 78.3 56.5 78.27 56.5 78.3 56.5 C 77.9 56.5 77.5 56.6 77.2 56.9 C 77 57.2 76.8 57.6 76.8 58.2 C 76.83 58.16 76.8 59.6 76.8 59.6 L 76.3 59.6 Z M 82.2 59 C 81.8 59.5 81.3 59.7 80.7 59.7 C 80.2 59.7 79.8 59.5 79.4 59.2 C 79.1 58.8 78.9 58.4 78.9 57.8 C 78.9 57.8 78.9 57.8 78.9 57.8 C 78.9 57.3 79.1 56.8 79.4 56.4 C 79.7 56.1 80.1 55.9 80.6 55.9 C 81.2 55.9 81.6 56.1 81.9 56.4 C 82.2 56.8 82.3 57.3 82.3 57.8 C 82.3 57.9 82.3 57.9 82.3 58 C 82.3 58 79.4 58 79.4 58 C 79.5 58.4 79.6 58.7 79.9 58.9 C 80.1 59.1 80.4 59.2 80.7 59.2 C 81.2 59.2 81.5 59 81.9 58.7 C 81.86 58.7 82.2 59 82.2 59 C 82.2 59 82.2 59 82.2 59 Z M 79.4 57.6 C 79.4 57.6 81.8 57.6 81.8 57.6 C 81.8 57.2 81.6 56.9 81.4 56.7 C 81.2 56.5 81 56.4 80.6 56.4 C 80.3 56.4 80 56.5 79.8 56.7 C 79.6 56.9 79.5 57.2 79.4 57.6 Z " stroke="none" fill="#000"/>  </g>  <g id="Polygon42472">    <path d="M 0.7 50.6 L 0.7 45.7 C 0.7 45.7 2.39 45.7 2.4 45.7 C 3.2 45.7 3.8 45.9 4.3 46.4 C 4.8 46.9 5 47.4 5 48.1 C 5 48.1 5 48.1 5 48.1 C 5 48.8 4.8 49.4 4.3 49.9 C 3.8 50.4 3.2 50.6 2.4 50.6 C 2.39 50.6 0.7 50.6 0.7 50.6 Z M 2.4 46.2 C 2.39 46.21 1.2 46.2 1.2 46.2 L 1.2 50.1 C 1.2 50.1 2.39 50.09 2.4 50.1 C 3 50.1 3.5 49.9 3.9 49.5 C 4.2 49.2 4.4 48.7 4.4 48.2 C 4.4 48.2 4.4 48.1 4.4 48.1 C 4.4 47.6 4.2 47.1 3.9 46.8 C 3.5 46.4 3 46.2 2.4 46.2 Z M 8.8 50.6 L 8.8 46.2 L 7.9 46.5 L 7.8 46.1 L 9 45.7 L 9.4 45.7 L 9.4 50.6 L 8.8 50.6 Z M 12.2 50.7 C 11.6 50.7 11 50.4 10.5 49.9 C 10.5 49.9 10.8 49.5 10.8 49.5 C 11.3 50 11.7 50.2 12.2 50.2 C 12.6 50.2 12.8 50.1 13.1 49.9 C 13.3 49.7 13.4 49.4 13.4 49.1 C 13.4 49.1 13.4 49.1 13.4 49.1 C 13.4 48.8 13.3 48.5 13 48.3 C 12.8 48.1 12.5 48.1 12.2 48.1 C 11.8 48.1 11.5 48.1 11.1 48.3 C 11.14 48.33 10.8 48.1 10.8 48.1 L 10.9 45.7 L 13.7 45.7 L 13.7 46.2 L 11.4 46.2 C 11.4 46.2 11.29 47.78 11.3 47.8 C 11.6 47.6 11.9 47.6 12.3 47.6 C 12.7 47.6 13.2 47.7 13.5 48 C 13.8 48.2 14 48.6 14 49.1 C 14 49.1 14 49.1 14 49.1 C 14 49.5 13.8 49.9 13.5 50.2 C 13.1 50.5 12.7 50.7 12.2 50.7 Z M 14.8 51.5 C 14.8 51.5 14.7 51.2 14.7 51.2 C 15 51.1 15.2 50.9 15.2 50.6 C 15.15 50.6 14.9 50.6 14.9 50.6 L 14.9 49.9 L 15.5 49.9 C 15.5 49.9 15.55 50.49 15.5 50.5 C 15.5 50.8 15.5 51 15.4 51.1 C 15.2 51.3 15 51.4 14.8 51.5 Z M 18.3 50.7 C 17.5 50.7 16.9 50.4 16.4 49.8 C 16.4 49.8 16.8 49.5 16.8 49.5 C 17.2 49.9 17.7 50.2 18.3 50.2 C 18.6 50.2 18.8 50.1 19 49.9 C 19.2 49.7 19.3 49.5 19.3 49.2 C 19.3 49.2 19.3 49.2 19.3 49.2 C 19.3 48.9 19.2 48.7 19 48.5 C 18.7 48.4 18.4 48.3 18 48.3 C 17.96 48.27 17.6 48.3 17.6 48.3 L 17.5 47.9 L 19.1 46.2 L 16.7 46.2 L 16.7 45.7 L 19.8 45.7 L 19.8 46.1 C 19.8 46.1 18.28 47.81 18.3 47.8 C 18.7 47.9 19.1 48 19.4 48.2 C 19.7 48.4 19.9 48.8 19.9 49.2 C 19.9 49.2 19.9 49.2 19.9 49.2 C 19.9 49.6 19.7 50 19.4 50.3 C 19.1 50.5 18.7 50.7 18.3 50.7 Z M 26.2 50 C 25.8 50.5 25.3 50.7 24.7 50.7 C 24.2 50.7 23.7 50.5 23.4 50.1 C 23 49.8 22.8 49.3 22.8 48.8 C 22.8 48.8 22.8 48.8 22.8 48.8 C 22.8 48.3 23 47.8 23.4 47.5 C 23.7 47.1 24.2 46.9 24.7 46.9 C 25.3 46.9 25.7 47.1 26.2 47.5 C 26.2 47.5 25.8 47.9 25.8 47.9 C 25.4 47.6 25.1 47.4 24.7 47.4 C 24.3 47.4 24 47.5 23.8 47.8 C 23.5 48.1 23.4 48.4 23.4 48.8 C 23.4 48.8 23.4 48.8 23.4 48.8 C 23.4 49.2 23.5 49.5 23.8 49.8 C 24 50.1 24.4 50.2 24.7 50.2 C 25.1 50.2 25.5 50 25.8 49.7 C 25.84 49.66 26.2 50 26.2 50 C 26.2 50 26.18 49.98 26.2 50 Z M 27.1 50.6 L 27.1 47 L 27.6 47 C 27.6 47 27.61 47.59 27.6 47.6 C 27.8 47.4 27.9 47.2 28.1 47.1 C 28.3 47 28.5 46.9 28.8 46.9 C 29.3 46.9 29.7 47.1 29.9 47.6 C 30.3 47.1 30.7 46.9 31.2 46.9 C 31.6 46.9 32 47 32.2 47.3 C 32.4 47.6 32.6 47.9 32.6 48.4 C 32.56 48.36 32.6 50.6 32.6 50.6 L 32 50.6 C 32 50.6 32.02 48.49 32 48.5 C 32 48.1 31.9 47.9 31.8 47.7 C 31.6 47.5 31.4 47.4 31.1 47.4 C 30.8 47.4 30.6 47.5 30.4 47.7 C 30.2 47.9 30.1 48.2 30.1 48.5 C 30.08 48.51 30.1 50.6 30.1 50.6 L 29.5 50.6 C 29.5 50.6 29.55 48.47 29.5 48.5 C 29.5 48.1 29.5 47.9 29.3 47.7 C 29.1 47.5 28.9 47.4 28.6 47.4 C 28.3 47.4 28.1 47.5 27.9 47.7 C 27.7 47.9 27.6 48.2 27.6 48.5 C 27.61 48.53 27.6 50.6 27.6 50.6 L 27.1 50.6 Z M 33.5 51.5 C 33.5 51.5 33.4 51.2 33.4 51.2 C 33.8 51.1 33.9 50.9 33.9 50.6 C 33.89 50.6 33.6 50.6 33.6 50.6 L 33.6 49.9 L 34.3 49.9 C 34.3 49.9 34.29 50.49 34.3 50.5 C 34.3 50.8 34.2 51 34.1 51.1 C 34 51.3 33.8 51.4 33.5 51.5 Z M 37.6 50.6 L 37.6 45.7 L 38.2 45.7 L 38.2 47.9 L 41 47.9 L 41 45.7 L 41.5 45.7 L 41.5 50.6 L 41 50.6 L 41 48.4 L 38.2 48.4 L 38.2 50.6 L 37.6 50.6 Z M 44.7 50.6 L 44.7 50.2 C 44.7 50.2 46.45 48.6 46.5 48.6 C 46.8 48.3 47.1 48 47.2 47.8 C 47.4 47.5 47.5 47.3 47.5 47.1 C 47.5 46.8 47.4 46.6 47.2 46.4 C 47 46.2 46.8 46.1 46.5 46.1 C 46.2 46.1 46 46.2 45.8 46.3 C 45.6 46.5 45.4 46.7 45.2 47 C 45.2 47 44.8 46.7 44.8 46.7 C 45 46.3 45.3 46 45.5 45.9 C 45.8 45.7 46.1 45.6 46.5 45.6 C 47 45.6 47.3 45.8 47.6 46 C 47.9 46.3 48 46.6 48 47 C 48 47 48 47 48 47 C 48 47.4 48 47.7 47.8 47.9 C 47.6 48.2 47.3 48.5 46.8 48.9 C 46.81 48.93 45.5 50.1 45.5 50.1 L 48.1 50.1 L 48.1 50.6 L 44.7 50.6 Z M 50.7 50.7 C 50 50.7 49.4 50.4 48.9 49.9 C 48.9 49.9 49.3 49.5 49.3 49.5 C 49.7 50 50.2 50.2 50.7 50.2 C 51 50.2 51.3 50.1 51.5 49.9 C 51.7 49.7 51.8 49.4 51.8 49.1 C 51.8 49.1 51.8 49.1 51.8 49.1 C 51.8 48.8 51.7 48.5 51.5 48.3 C 51.3 48.1 51 48.1 50.6 48.1 C 50.3 48.1 49.9 48.1 49.6 48.3 C 49.59 48.33 49.2 48.1 49.2 48.1 L 49.4 45.7 L 52.2 45.7 L 52.2 46.2 L 49.8 46.2 C 49.8 46.2 49.74 47.78 49.7 47.8 C 50.1 47.6 50.4 47.6 50.7 47.6 C 51.2 47.6 51.6 47.7 51.9 48 C 52.2 48.2 52.4 48.6 52.4 49.1 C 52.4 49.1 52.4 49.1 52.4 49.1 C 52.4 49.5 52.2 49.9 51.9 50.2 C 51.6 50.5 51.2 50.7 50.7 50.7 Z M 58.6 50 C 58.2 50.5 57.7 50.7 57.1 50.7 C 56.6 50.7 56.2 50.5 55.8 50.1 C 55.5 49.8 55.3 49.3 55.3 48.8 C 55.3 48.8 55.3 48.8 55.3 48.8 C 55.3 48.3 55.5 47.8 55.8 47.5 C 56.2 47.1 56.6 46.9 57.1 46.9 C 57.7 46.9 58.2 47.1 58.6 47.5 C 58.6 47.5 58.2 47.9 58.2 47.9 C 57.9 47.6 57.5 47.4 57.1 47.4 C 56.8 47.4 56.5 47.5 56.2 47.8 C 56 48.1 55.8 48.4 55.8 48.8 C 55.8 48.8 55.8 48.8 55.8 48.8 C 55.8 49.2 56 49.5 56.2 49.8 C 56.5 50.1 56.8 50.2 57.2 50.2 C 57.6 50.2 57.9 50 58.3 49.7 C 58.28 49.66 58.6 50 58.6 50 C 58.6 50 58.62 49.98 58.6 50 Z M 59.5 50.6 L 59.5 47 L 60.1 47 C 60.1 47 60.05 47.59 60.1 47.6 C 60.2 47.4 60.4 47.2 60.5 47.1 C 60.7 47 60.9 46.9 61.2 46.9 C 61.8 46.9 62.2 47.1 62.4 47.6 C 62.7 47.1 63.1 46.9 63.7 46.9 C 64.1 46.9 64.4 47 64.6 47.3 C 64.9 47.6 65 47.9 65 48.4 C 65 48.36 65 50.6 65 50.6 L 64.5 50.6 C 64.5 50.6 64.46 48.49 64.5 48.5 C 64.5 48.1 64.4 47.9 64.2 47.7 C 64 47.5 63.8 47.4 63.5 47.4 C 63.2 47.4 63 47.5 62.8 47.7 C 62.6 47.9 62.5 48.2 62.5 48.5 C 62.52 48.51 62.5 50.6 62.5 50.6 L 62 50.6 C 62 50.6 61.99 48.47 62 48.5 C 62 48.1 61.9 47.9 61.7 47.7 C 61.6 47.5 61.3 47.4 61.1 47.4 C 60.8 47.4 60.5 47.5 60.3 47.7 C 60.1 47.9 60.1 48.2 60.1 48.5 C 60.05 48.53 60.1 50.6 60.1 50.6 L 59.5 50.6 Z " stroke="none" fill="#000"/>  </g>  <g id="Polygon42471">    <path d="M 2 41.6 L 2 37.2 L 0.3 37.2 L 0.3 36.7 L 4.2 36.7 L 4.2 37.2 L 2.5 37.2 L 2.5 41.6 L 2 41.6 Z M 6.7 41.7 C 6.2 41.7 5.8 41.5 5.4 41.1 C 5 40.8 4.9 40.3 4.9 39.8 C 4.9 39.8 4.9 39.8 4.9 39.8 C 4.9 39.3 5 38.8 5.4 38.5 C 5.8 38.1 6.2 37.9 6.8 37.9 C 7.3 37.9 7.7 38.1 8.1 38.5 C 8.5 38.8 8.6 39.3 8.6 39.8 C 8.6 39.8 8.6 39.8 8.6 39.8 C 8.6 40.3 8.5 40.8 8.1 41.1 C 7.7 41.5 7.3 41.7 6.7 41.7 Z M 6.8 41.2 C 7.1 41.2 7.5 41.1 7.7 40.8 C 8 40.5 8.1 40.2 8.1 39.8 C 8.1 39.8 8.1 39.8 8.1 39.8 C 8.1 39.4 8 39.1 7.7 38.8 C 7.4 38.5 7.1 38.4 6.7 38.4 C 6.4 38.4 6 38.5 5.8 38.8 C 5.5 39.1 5.4 39.4 5.4 39.8 C 5.4 39.8 5.4 39.8 5.4 39.8 C 5.4 40.2 5.5 40.5 5.8 40.8 C 6.1 41.1 6.4 41.2 6.8 41.2 Z M 9.4 41.6 L 9.4 41.3 L 11.8 38.4 L 9.5 38.4 L 9.5 38 L 12.5 38 L 12.5 38.3 L 10.1 41.1 L 12.5 41.1 L 12.5 41.6 L 9.4 41.6 Z M 17.5 41.7 C 17 41.7 16.5 41.4 16.1 40.9 C 16.14 40.91 16.1 41.6 16.1 41.6 L 15.6 41.6 L 15.6 36.5 L 16.1 36.5 C 16.1 36.5 16.14 38.71 16.1 38.7 C 16.5 38.2 17 37.9 17.5 37.9 C 18 37.9 18.4 38.1 18.7 38.4 C 19.1 38.8 19.3 39.2 19.3 39.8 C 19.3 39.8 19.3 39.8 19.3 39.8 C 19.3 40.4 19.1 40.8 18.7 41.2 C 18.4 41.5 18 41.7 17.5 41.7 Z M 17.4 41.2 C 17.8 41.2 18.1 41.1 18.3 40.8 C 18.6 40.6 18.7 40.2 18.7 39.8 C 18.7 39.8 18.7 39.8 18.7 39.8 C 18.7 39.4 18.6 39 18.3 38.8 C 18.1 38.5 17.8 38.4 17.4 38.4 C 17.1 38.4 16.8 38.5 16.5 38.8 C 16.3 39.1 16.1 39.4 16.1 39.8 C 16.1 39.8 16.1 39.8 16.1 39.8 C 16.1 40.2 16.3 40.5 16.5 40.8 C 16.8 41.1 17.1 41.2 17.4 41.2 Z M 21.9 41.7 C 21.4 41.7 20.9 41.5 20.6 41.1 C 20.2 40.8 20 40.3 20 39.8 C 20 39.8 20 39.8 20 39.8 C 20 39.3 20.2 38.8 20.6 38.5 C 20.9 38.1 21.4 37.9 21.9 37.9 C 22.5 37.9 22.9 38.1 23.3 38.5 C 23.6 38.8 23.8 39.3 23.8 39.8 C 23.8 39.8 23.8 39.8 23.8 39.8 C 23.8 40.3 23.6 40.8 23.3 41.1 C 22.9 41.5 22.4 41.7 21.9 41.7 Z M 21.9 41.2 C 22.3 41.2 22.6 41.1 22.9 40.8 C 23.1 40.5 23.2 40.2 23.2 39.8 C 23.2 39.8 23.2 39.8 23.2 39.8 C 23.2 39.4 23.1 39.1 22.9 38.8 C 22.6 38.5 22.3 38.4 21.9 38.4 C 21.5 38.4 21.2 38.5 21 38.8 C 20.7 39.1 20.6 39.4 20.6 39.8 C 20.6 39.8 20.6 39.8 20.6 39.8 C 20.6 40.2 20.7 40.5 21 40.8 C 21.2 41.1 21.5 41.2 21.9 41.2 Z M 26.3 41 L 27.5 38 L 28.1 38 C 28.1 38 26.54 41.72 26.5 41.7 C 26.4 42.1 26.2 42.4 26 42.5 C 25.8 42.7 25.6 42.7 25.3 42.7 C 25.1 42.7 24.8 42.7 24.6 42.6 C 24.6 42.6 24.7 42.1 24.7 42.1 C 24.9 42.2 25.1 42.3 25.3 42.3 C 25.5 42.3 25.6 42.2 25.7 42.1 C 25.8 42 25.9 41.8 26.1 41.6 C 26.05 41.59 24.4 38 24.4 38 L 25 38 L 26.3 41 Z M 31.3 41.1 C 31 41.5 30.5 41.7 30 41.7 C 29.6 41.7 29.3 41.6 29 41.4 C 28.8 41.2 28.6 40.9 28.6 40.5 C 28.6 40.5 28.6 40.5 28.6 40.5 C 28.6 40.2 28.8 39.9 29.1 39.7 C 29.3 39.5 29.7 39.4 30.2 39.4 C 30.6 39.4 30.9 39.4 31.3 39.5 C 31.3 39.5 31.3 39.4 31.3 39.4 C 31.3 39.1 31.2 38.8 31 38.7 C 30.8 38.5 30.6 38.4 30.2 38.4 C 29.9 38.4 29.5 38.5 29.1 38.7 C 29.1 38.7 29 38.2 29 38.2 C 29.4 38 29.8 37.9 30.3 37.9 C 30.8 37.9 31.2 38.1 31.4 38.3 C 31.7 38.6 31.8 38.9 31.8 39.4 C 31.81 39.39 31.8 41.6 31.8 41.6 L 31.3 41.6 L 31.3 41.1 C 31.3 41.1 31.3 41.05 31.3 41.1 Z M 30.1 41.2 C 30.4 41.2 30.7 41.2 31 41 C 31.2 40.8 31.3 40.6 31.3 40.3 C 31.3 40.3 31.3 39.9 31.3 39.9 C 30.9 39.8 30.6 39.8 30.2 39.8 C 29.9 39.8 29.6 39.8 29.5 40 C 29.3 40.1 29.2 40.3 29.2 40.5 C 29.2 40.5 29.2 40.5 29.2 40.5 C 29.2 40.7 29.3 40.9 29.4 41.1 C 29.6 41.2 29.8 41.2 30.1 41.2 Z M 33 41.6 L 33 36.5 L 33.6 36.5 L 33.6 41.6 L 33 41.6 Z M 34.9 41.6 L 34.9 38 L 35.4 38 L 35.4 41.6 L 34.9 41.6 Z M 40 41.6 L 38.4 38 L 39 38 L 40.2 41 L 41.4 38 L 42 38 L 40.4 41.6 L 40 41.6 Z M 45.9 41 C 45.5 41.5 45 41.7 44.4 41.7 C 43.9 41.7 43.5 41.5 43.2 41.2 C 42.8 40.8 42.6 40.4 42.6 39.8 C 42.6 39.8 42.6 39.8 42.6 39.8 C 42.6 39.3 42.8 38.8 43.1 38.4 C 43.5 38.1 43.9 37.9 44.4 37.9 C 44.9 37.9 45.3 38.1 45.6 38.4 C 45.9 38.8 46.1 39.3 46.1 39.8 C 46.1 39.9 46 39.9 46 40 C 46 40 43.2 40 43.2 40 C 43.2 40.4 43.4 40.7 43.6 40.9 C 43.8 41.1 44.1 41.2 44.4 41.2 C 44.9 41.2 45.3 41 45.6 40.7 C 45.59 40.7 45.9 41 45.9 41 C 45.9 41 45.93 41 45.9 41 Z M 43.2 39.6 C 43.2 39.6 45.5 39.6 45.5 39.6 C 45.5 39.2 45.4 38.9 45.2 38.7 C 45 38.5 44.7 38.4 44.4 38.4 C 44 38.4 43.8 38.5 43.6 38.7 C 43.3 38.9 43.2 39.2 43.2 39.6 Z M 52.2 41 C 51.8 41.5 51.3 41.7 50.7 41.7 C 50.2 41.7 49.7 41.5 49.4 41.2 C 49 40.8 48.9 40.4 48.9 39.8 C 48.9 39.8 48.9 39.8 48.9 39.8 C 48.9 39.3 49 38.8 49.4 38.4 C 49.7 38.1 50.1 37.9 50.6 37.9 C 51.1 37.9 51.5 38.1 51.8 38.4 C 52.1 38.8 52.3 39.3 52.3 39.8 C 52.3 39.9 52.3 39.9 52.3 40 C 52.3 40 49.4 40 49.4 40 C 49.5 40.4 49.6 40.7 49.8 40.9 C 50.1 41.1 50.4 41.2 50.7 41.2 C 51.1 41.2 51.5 41 51.8 40.7 C 51.83 40.7 52.2 41 52.2 41 C 52.2 41 52.17 41 52.2 41 Z M 49.4 39.6 C 49.4 39.6 51.8 39.6 51.8 39.6 C 51.7 39.2 51.6 38.9 51.4 38.7 C 51.2 38.5 50.9 38.4 50.6 38.4 C 50.3 38.4 50 38.5 49.8 38.7 C 49.6 38.9 49.5 39.2 49.4 39.6 Z M 53.3 41.6 L 53.3 36.5 L 53.8 36.5 L 53.8 41.6 L 53.3 41.6 Z M 58.2 41 C 57.8 41.5 57.3 41.7 56.7 41.7 C 56.2 41.7 55.7 41.5 55.4 41.2 C 55 40.8 54.9 40.4 54.9 39.8 C 54.9 39.8 54.9 39.8 54.9 39.8 C 54.9 39.3 55 38.8 55.4 38.4 C 55.7 38.1 56.1 37.9 56.6 37.9 C 57.1 37.9 57.5 38.1 57.8 38.4 C 58.1 38.8 58.3 39.3 58.3 39.8 C 58.3 39.9 58.3 39.9 58.3 40 C 58.3 40 55.4 40 55.4 40 C 55.4 40.4 55.6 40.7 55.8 40.9 C 56.1 41.1 56.3 41.2 56.7 41.2 C 57.1 41.2 57.5 41 57.8 40.7 C 57.82 40.7 58.2 41 58.2 41 C 58.2 41 58.15 41 58.2 41 Z M 55.4 39.6 C 55.4 39.6 57.7 39.6 57.7 39.6 C 57.7 39.2 57.6 38.9 57.4 38.7 C 57.2 38.5 56.9 38.4 56.6 38.4 C 56.3 38.4 56 38.5 55.8 38.7 C 55.6 38.9 55.4 39.2 55.4 39.6 Z M 59.2 41.6 L 59.2 36.5 L 59.8 36.5 L 59.8 40 L 61.7 38 L 62.4 38 L 60.9 39.5 L 62.4 41.6 L 61.8 41.6 L 60.5 39.9 L 59.8 40.7 L 59.8 41.6 L 59.2 41.6 Z M 65.1 41.5 C 64.9 41.6 64.7 41.7 64.4 41.7 C 64.1 41.7 63.9 41.6 63.7 41.4 C 63.5 41.2 63.4 41 63.4 40.6 C 63.4 40.64 63.4 38.5 63.4 38.5 L 62.9 38.5 L 62.9 38 L 63.4 38 L 63.4 36.9 L 63.9 36.9 L 63.9 38 L 65.1 38 L 65.1 38.5 L 63.9 38.5 C 63.9 38.5 63.94 40.57 63.9 40.6 C 63.9 41 64.1 41.2 64.5 41.2 C 64.7 41.2 64.9 41.1 65.1 41 C 65.07 41.05 65.1 41.5 65.1 41.5 C 65.1 41.5 65.07 41.51 65.1 41.5 Z M 66 41.6 L 66 38 L 66.6 38 C 66.6 38 66.58 38.93 66.6 38.9 C 66.7 38.6 66.9 38.4 67.2 38.2 C 67.4 38 67.7 37.9 68.1 37.9 C 68.05 37.92 68.1 38.5 68.1 38.5 C 68.1 38.5 68.01 38.5 68 38.5 C 67.6 38.5 67.3 38.6 67 38.9 C 66.7 39.2 66.6 39.6 66.6 40.2 C 66.58 40.16 66.6 41.6 66.6 41.6 L 66 41.6 Z M 70.5 41.7 C 70 41.7 69.5 41.5 69.2 41.1 C 68.8 40.8 68.6 40.3 68.6 39.8 C 68.6 39.8 68.6 39.8 68.6 39.8 C 68.6 39.3 68.8 38.8 69.2 38.5 C 69.5 38.1 70 37.9 70.5 37.9 C 71.1 37.9 71.5 38.1 71.9 38.5 C 72.2 38.8 72.4 39.3 72.4 39.8 C 72.4 39.8 72.4 39.8 72.4 39.8 C 72.4 40.3 72.2 40.8 71.9 41.1 C 71.5 41.5 71.1 41.7 70.5 41.7 Z M 70.5 41.2 C 70.9 41.2 71.2 41.1 71.5 40.8 C 71.7 40.5 71.9 40.2 71.9 39.8 C 71.9 39.8 71.9 39.8 71.9 39.8 C 71.9 39.4 71.7 39.1 71.5 38.8 C 71.2 38.5 70.9 38.4 70.5 38.4 C 70.1 38.4 69.8 38.5 69.6 38.8 C 69.3 39.1 69.2 39.4 69.2 39.8 C 69.2 39.8 69.2 39.8 69.2 39.8 C 69.2 40.2 69.3 40.5 69.6 40.8 C 69.8 41.1 70.2 41.2 70.5 41.2 Z M 75.5 41.6 L 75.5 36.5 L 76 36.5 L 76 40 L 78 38 L 78.7 38 L 77.1 39.5 L 78.7 41.6 L 78.1 41.6 L 76.8 39.9 L 76 40.7 L 76 41.6 L 75.5 41.6 Z M 81.9 41.1 C 81.5 41.5 81.1 41.7 80.6 41.7 C 80.2 41.7 79.9 41.6 79.6 41.4 C 79.3 41.2 79.2 40.9 79.2 40.5 C 79.2 40.5 79.2 40.5 79.2 40.5 C 79.2 40.2 79.3 39.9 79.6 39.7 C 79.9 39.5 80.3 39.4 80.8 39.4 C 81.1 39.4 81.5 39.4 81.9 39.5 C 81.9 39.5 81.9 39.4 81.9 39.4 C 81.9 39.1 81.8 38.8 81.6 38.7 C 81.4 38.5 81.1 38.4 80.8 38.4 C 80.4 38.4 80.1 38.5 79.7 38.7 C 79.7 38.7 79.5 38.2 79.5 38.2 C 80 38 80.4 37.9 80.8 37.9 C 81.4 37.9 81.7 38.1 82 38.3 C 82.3 38.6 82.4 38.9 82.4 39.4 C 82.38 39.39 82.4 41.6 82.4 41.6 L 81.9 41.6 L 81.9 41.1 C 81.9 41.1 81.86 41.05 81.9 41.1 Z M 80.7 41.2 C 81 41.2 81.3 41.2 81.5 41 C 81.8 40.8 81.9 40.6 81.9 40.3 C 81.9 40.3 81.9 39.9 81.9 39.9 C 81.5 39.8 81.2 39.8 80.8 39.8 C 80.5 39.8 80.2 39.8 80 40 C 79.8 40.1 79.7 40.3 79.7 40.5 C 79.7 40.5 79.7 40.5 79.7 40.5 C 79.7 40.7 79.8 40.9 80 41.1 C 80.2 41.2 80.4 41.2 80.7 41.2 Z M 83.5 42.7 L 83.5 38 L 84.1 38 C 84.1 38 84.07 38.71 84.1 38.7 C 84.4 38.2 84.9 37.9 85.5 37.9 C 85.9 37.9 86.3 38.1 86.7 38.4 C 87 38.8 87.2 39.2 87.2 39.8 C 87.2 39.8 87.2 39.8 87.2 39.8 C 87.2 40.4 87 40.8 86.7 41.2 C 86.3 41.5 85.9 41.7 85.5 41.7 C 84.9 41.7 84.4 41.4 84.1 40.9 C 84.07 40.91 84.1 42.7 84.1 42.7 L 83.5 42.7 Z M 85.4 41.2 C 85.7 41.2 86 41.1 86.3 40.8 C 86.5 40.6 86.6 40.2 86.6 39.8 C 86.6 39.8 86.6 39.8 86.6 39.8 C 86.6 39.4 86.5 39 86.3 38.8 C 86 38.5 85.7 38.4 85.4 38.4 C 85 38.4 84.7 38.5 84.4 38.8 C 84.2 39.1 84 39.4 84 39.8 C 84 39.8 84 39.8 84 39.8 C 84 40.2 84.2 40.5 84.4 40.8 C 84.7 41.1 85 41.2 85.4 41.2 Z M 88.2 41.6 L 88.2 36.5 L 88.8 36.5 L 88.8 41.6 L 88.2 41.6 Z M 92.4 41.1 C 92.1 41.5 91.7 41.7 91.1 41.7 C 90.7 41.7 90.4 41.6 90.1 41.4 C 89.9 41.2 89.7 40.9 89.7 40.5 C 89.7 40.5 89.7 40.5 89.7 40.5 C 89.7 40.2 89.9 39.9 90.2 39.7 C 90.5 39.5 90.8 39.4 91.3 39.4 C 91.7 39.4 92 39.4 92.4 39.5 C 92.4 39.5 92.4 39.4 92.4 39.4 C 92.4 39.1 92.3 38.8 92.1 38.7 C 91.9 38.5 91.7 38.4 91.3 38.4 C 91 38.4 90.6 38.5 90.2 38.7 C 90.2 38.7 90.1 38.2 90.1 38.2 C 90.5 38 90.9 37.9 91.4 37.9 C 91.9 37.9 92.3 38.1 92.6 38.3 C 92.8 38.6 92.9 38.9 92.9 39.4 C 92.92 39.39 92.9 41.6 92.9 41.6 L 92.4 41.6 L 92.4 41.1 C 92.4 41.1 92.41 41.05 92.4 41.1 Z M 91.2 41.2 C 91.5 41.2 91.8 41.2 92.1 41 C 92.3 40.8 92.4 40.6 92.4 40.3 C 92.4 40.3 92.4 39.9 92.4 39.9 C 92 39.8 91.7 39.8 91.3 39.8 C 91 39.8 90.8 39.8 90.6 40 C 90.4 40.1 90.3 40.3 90.3 40.5 C 90.3 40.5 90.3 40.5 90.3 40.5 C 90.3 40.7 90.4 40.9 90.6 41.1 C 90.7 41.2 90.9 41.2 91.2 41.2 Z M 94.1 41.6 L 94.1 38 L 94.6 38 C 94.6 38 94.61 38.59 94.6 38.6 C 94.8 38.4 94.9 38.2 95.1 38.1 C 95.3 38 95.5 37.9 95.8 37.9 C 96.3 37.9 96.7 38.1 96.9 38.6 C 97.3 38.1 97.7 37.9 98.2 37.9 C 98.6 37.9 99 38 99.2 38.3 C 99.4 38.6 99.6 38.9 99.6 39.4 C 99.56 39.36 99.6 41.6 99.6 41.6 L 99 41.6 C 99 41.6 99.02 39.49 99 39.5 C 99 39.1 98.9 38.9 98.8 38.7 C 98.6 38.5 98.4 38.4 98.1 38.4 C 97.8 38.4 97.6 38.5 97.4 38.7 C 97.2 38.9 97.1 39.2 97.1 39.5 C 97.08 39.51 97.1 41.6 97.1 41.6 L 96.5 41.6 C 96.5 41.6 96.55 39.47 96.5 39.5 C 96.5 39.1 96.5 38.9 96.3 38.7 C 96.1 38.5 95.9 38.4 95.6 38.4 C 95.3 38.4 95.1 38.5 94.9 38.7 C 94.7 38.9 94.6 39.2 94.6 39.5 C 94.61 39.53 94.6 41.6 94.6 41.6 L 94.1 41.6 Z M 103.1 41.1 C 102.8 41.5 102.3 41.7 101.8 41.7 C 101.4 41.7 101.1 41.6 100.8 41.4 C 100.6 41.2 100.4 40.9 100.4 40.5 C 100.4 40.5 100.4 40.5 100.4 40.5 C 100.4 40.2 100.6 39.9 100.9 39.7 C 101.1 39.5 101.5 39.4 102 39.4 C 102.3 39.4 102.7 39.4 103.1 39.5 C 103.1 39.5 103.1 39.4 103.1 39.4 C 103.1 39.1 103 38.8 102.8 38.7 C 102.6 38.5 102.4 38.4 102 38.4 C 101.7 38.4 101.3 38.5 100.9 38.7 C 100.9 38.7 100.8 38.2 100.8 38.2 C 101.2 38 101.6 37.9 102.1 37.9 C 102.6 37.9 103 38.1 103.2 38.3 C 103.5 38.6 103.6 38.9 103.6 39.4 C 103.61 39.39 103.6 41.6 103.6 41.6 L 103.1 41.6 L 103.1 41.1 C 103.1 41.1 103.09 41.05 103.1 41.1 Z M 101.9 41.2 C 102.2 41.2 102.5 41.2 102.8 41 C 103 40.8 103.1 40.6 103.1 40.3 C 103.1 40.3 103.1 39.9 103.1 39.9 C 102.7 39.8 102.4 39.8 102 39.8 C 101.7 39.8 101.4 39.8 101.3 40 C 101.1 40.1 101 40.3 101 40.5 C 101 40.5 101 40.5 101 40.5 C 101 40.7 101.1 40.9 101.2 41.1 C 101.4 41.2 101.6 41.2 101.9 41.2 Z M 104.8 41.6 L 104.8 36.5 L 105.3 36.5 L 105.3 41.6 L 104.8 41.6 Z M 106.7 41.6 L 106.7 38 L 107.2 38 L 107.2 41.6 L 106.7 41.6 Z M 111.8 42.7 L 111.3 42.4 C 111.3 42.4 111.84 41.65 111.8 41.6 C 111.4 41.6 111 41.4 110.7 41 C 110.5 40.7 110.3 40.3 110.3 39.8 C 110.3 39.8 110.3 39.8 110.3 39.8 C 110.3 39.3 110.5 38.8 110.8 38.5 C 111.2 38.1 111.6 37.9 112.2 37.9 C 112.7 37.9 113.2 38.1 113.6 38.5 C 113.6 38.5 113.3 38.9 113.3 38.9 C 112.9 38.6 112.6 38.4 112.2 38.4 C 111.8 38.4 111.5 38.5 111.2 38.8 C 111 39.1 110.9 39.4 110.9 39.8 C 110.9 39.8 110.9 39.8 110.9 39.8 C 110.9 40.2 111 40.5 111.3 40.8 C 111.5 41.1 111.8 41.2 112.2 41.2 C 112.6 41.2 113 41 113.3 40.7 C 113.3 40.7 113.6 41 113.6 41 C 113.3 41.4 112.8 41.7 112.3 41.7 C 112.28 41.68 111.8 42.7 111.8 42.7 Z M 117.6 41 C 117.2 41.5 116.7 41.7 116.1 41.7 C 115.6 41.7 115.2 41.5 114.8 41.2 C 114.5 40.8 114.3 40.4 114.3 39.8 C 114.3 39.8 114.3 39.8 114.3 39.8 C 114.3 39.3 114.5 38.8 114.8 38.4 C 115.1 38.1 115.6 37.9 116.1 37.9 C 116.6 37.9 117 38.1 117.3 38.4 C 117.6 38.8 117.7 39.3 117.7 39.8 C 117.7 39.9 117.7 39.9 117.7 40 C 117.7 40 114.9 40 114.9 40 C 114.9 40.4 115 40.7 115.3 40.9 C 115.5 41.1 115.8 41.2 116.1 41.2 C 116.6 41.2 116.9 41 117.3 40.7 C 117.28 40.7 117.6 41 117.6 41 C 117.6 41 117.61 41 117.6 41 Z M 114.9 39.6 C 114.9 39.6 117.2 39.6 117.2 39.6 C 117.2 39.2 117.1 38.9 116.9 38.7 C 116.7 38.5 116.4 38.4 116 38.4 C 115.7 38.4 115.5 38.5 115.2 38.7 C 115 38.9 114.9 39.2 114.9 39.6 Z M 118.7 41.6 L 118.7 36.5 L 119.3 36.5 L 119.3 41.6 L 118.7 41.6 Z M 120.5 37.2 L 120.5 36.6 L 121.2 36.6 L 121.2 37.2 L 120.5 37.2 Z M 120.6 41.6 L 120.6 38 L 121.1 38 L 121.1 41.6 L 120.6 41.6 Z M 122.4 41.6 L 122.4 36.5 L 122.9 36.5 L 122.9 40 L 124.9 38 L 125.5 38 L 124 39.5 L 125.6 41.6 L 124.9 41.6 L 123.6 39.9 L 122.9 40.7 L 122.9 41.6 L 122.4 41.6 Z " stroke="none" fill="#000"/>  </g>  <g id="Polygon42470">    <path d="M 0.7 23.6 L 0.7 18.7 C 0.7 18.7 2.8 18.7 2.8 18.7 C 3.4 18.7 3.9 18.9 4.2 19.2 C 4.4 19.4 4.6 19.8 4.6 20.2 C 4.6 20.2 4.6 20.2 4.6 20.2 C 4.6 20.6 4.4 20.9 4.2 21.1 C 4 21.4 3.6 21.5 3.2 21.6 C 3.24 21.6 4.7 23.6 4.7 23.6 L 4.1 23.6 L 2.6 21.7 L 1.2 21.7 L 1.2 23.6 L 0.7 23.6 Z M 1.2 21.2 C 1.2 21.2 2.75 21.2 2.8 21.2 C 3.1 21.2 3.4 21.1 3.7 20.9 C 3.9 20.7 4 20.5 4 20.2 C 4 20.2 4 20.2 4 20.2 C 4 19.9 3.9 19.6 3.7 19.5 C 3.5 19.3 3.2 19.2 2.8 19.2 C 2.76 19.21 1.2 19.2 1.2 19.2 L 1.2 21.2 Z M 8.7 23 C 8.3 23.5 7.8 23.7 7.2 23.7 C 6.7 23.7 6.3 23.5 6 23.2 C 5.6 22.8 5.4 22.4 5.4 21.8 C 5.4 21.8 5.4 21.8 5.4 21.8 C 5.4 21.3 5.6 20.8 5.9 20.4 C 6.3 20.1 6.7 19.9 7.2 19.9 C 7.7 19.9 8.1 20.1 8.4 20.4 C 8.7 20.8 8.9 21.3 8.9 21.8 C 8.9 21.9 8.9 21.9 8.9 22 C 8.9 22 6 22 6 22 C 6 22.4 6.2 22.7 6.4 22.9 C 6.6 23.1 6.9 23.2 7.3 23.2 C 7.7 23.2 8.1 23 8.4 22.7 C 8.4 22.7 8.7 23 8.7 23 C 8.7 23 8.74 23 8.7 23 Z M 6 21.6 C 6 21.6 8.3 21.6 8.3 21.6 C 8.3 21.2 8.2 20.9 8 20.7 C 7.8 20.5 7.5 20.4 7.2 20.4 C 6.8 20.4 6.6 20.5 6.4 20.7 C 6.1 20.9 6 21.2 6 21.6 Z M 9.8 23.6 L 9.8 20 L 10.3 20 C 10.3 20 10.35 20.61 10.3 20.6 C 10.6 20.1 11.1 19.9 11.6 19.9 C 12 19.9 12.4 20 12.6 20.3 C 12.8 20.6 13 20.9 13 21.4 C 12.97 21.35 13 23.6 13 23.6 L 12.4 23.6 C 12.4 23.6 12.43 21.49 12.4 21.5 C 12.4 21.1 12.3 20.9 12.2 20.7 C 12 20.5 11.7 20.4 11.4 20.4 C 11.1 20.4 10.9 20.5 10.7 20.7 C 10.4 20.9 10.3 21.2 10.3 21.5 C 10.35 21.53 10.3 23.6 10.3 23.6 L 9.8 23.6 Z M 14.1 23.6 L 14.1 18.5 L 14.7 18.5 L 14.7 22 L 16.6 20 L 17.3 20 L 15.8 21.5 L 17.3 23.6 L 16.7 23.6 L 15.4 21.9 L 14.7 22.7 L 14.7 23.6 L 14.1 23.6 Z M 18.1 20.7 L 18.1 20 L 18.7 20 L 18.7 20.7 L 18.1 20.7 Z M 18.1 23.6 L 18.1 22.9 L 18.7 22.9 L 18.7 23.6 L 18.1 23.6 Z M 22.1 23.6 L 22.1 18.7 C 22.1 18.7 24.16 18.7 24.2 18.7 C 24.7 18.7 25.1 18.8 25.4 19.1 C 25.6 19.3 25.8 19.6 25.8 19.9 C 25.8 19.9 25.8 19.9 25.8 19.9 C 25.8 20.5 25.5 20.8 25 21.1 C 25.7 21.3 26 21.7 26 22.2 C 26 22.2 26 22.3 26 22.3 C 26 22.7 25.9 23 25.5 23.2 C 25.2 23.5 24.8 23.6 24.2 23.6 C 24.25 23.6 22.1 23.6 22.1 23.6 Z M 25.2 20 C 25.2 20 25.2 20 25.2 20 C 25.2 19.7 25.1 19.6 24.9 19.4 C 24.7 19.3 24.5 19.2 24.1 19.2 C 24.11 19.2 22.6 19.2 22.6 19.2 L 22.6 20.9 C 22.6 20.9 24.07 20.88 24.1 20.9 C 24.4 20.9 24.7 20.8 24.9 20.7 C 25.1 20.5 25.2 20.3 25.2 20 Z M 25.5 22.2 C 25.5 22.2 25.5 22.2 25.5 22.2 C 25.5 21.9 25.4 21.7 25.1 21.6 C 24.9 21.4 24.6 21.4 24.2 21.4 C 24.16 21.37 22.6 21.4 22.6 21.4 L 22.6 23.1 C 22.6 23.1 24.26 23.1 24.3 23.1 C 24.6 23.1 24.9 23 25.1 22.9 C 25.4 22.7 25.5 22.5 25.5 22.2 Z M 27.1 23.6 L 27.1 18.5 L 27.6 18.5 L 27.6 23.6 L 27.1 23.6 Z M 31.3 23.1 C 30.9 23.5 30.5 23.7 30 23.7 C 29.6 23.7 29.3 23.6 29 23.4 C 28.7 23.2 28.6 22.9 28.6 22.5 C 28.6 22.5 28.6 22.5 28.6 22.5 C 28.6 22.2 28.7 21.9 29 21.7 C 29.3 21.5 29.7 21.4 30.1 21.4 C 30.5 21.4 30.9 21.4 31.3 21.5 C 31.3 21.5 31.3 21.4 31.3 21.4 C 31.3 21.1 31.2 20.8 31 20.7 C 30.8 20.5 30.5 20.4 30.2 20.4 C 29.8 20.4 29.5 20.5 29.1 20.7 C 29.1 20.7 28.9 20.2 28.9 20.2 C 29.3 20 29.8 19.9 30.2 19.9 C 30.8 19.9 31.1 20.1 31.4 20.3 C 31.7 20.6 31.8 20.9 31.8 21.4 C 31.78 21.39 31.8 23.6 31.8 23.6 L 31.3 23.6 L 31.3 23.1 C 31.3 23.1 31.26 23.05 31.3 23.1 Z M 30.1 23.2 C 30.4 23.2 30.7 23.2 30.9 23 C 31.2 22.8 31.3 22.6 31.3 22.3 C 31.3 22.3 31.3 21.9 31.3 21.9 C 30.9 21.8 30.5 21.8 30.2 21.8 C 29.9 21.8 29.6 21.8 29.4 22 C 29.2 22.1 29.1 22.3 29.1 22.5 C 29.1 22.5 29.1 22.5 29.1 22.5 C 29.1 22.7 29.2 22.9 29.4 23.1 C 29.6 23.2 29.8 23.2 30.1 23.2 Z M 36 23 C 35.6 23.5 35.1 23.7 34.6 23.7 C 34 23.7 33.6 23.5 33.2 23.1 C 32.9 22.8 32.7 22.3 32.7 21.8 C 32.7 21.8 32.7 21.8 32.7 21.8 C 32.7 21.3 32.9 20.8 33.2 20.5 C 33.6 20.1 34 19.9 34.6 19.9 C 35.1 19.9 35.6 20.1 36 20.5 C 36 20.5 35.7 20.9 35.7 20.9 C 35.3 20.6 34.9 20.4 34.6 20.4 C 34.2 20.4 33.9 20.5 33.6 20.8 C 33.4 21.1 33.3 21.4 33.3 21.8 C 33.3 21.8 33.3 21.8 33.3 21.8 C 33.3 22.2 33.4 22.5 33.6 22.8 C 33.9 23.1 34.2 23.2 34.6 23.2 C 35 23.2 35.4 23 35.7 22.7 C 35.69 22.66 36 23 36 23 C 36 23 36.04 22.98 36 23 Z M 36.9 23.6 L 36.9 18.5 L 37.5 18.5 L 37.5 22 L 39.4 20 L 40.1 20 L 38.6 21.5 L 40.1 23.6 L 39.5 23.6 L 38.2 21.9 L 37.5 22.7 L 37.5 23.6 L 36.9 23.6 Z " stroke="none" fill="#000"/>  </g>  <g id="Polygon42469">    <path d="M 3 9.3 L 3 8.6 L 3.6 8.6 L 3.6 9.3 L 3 9.3 Z M 1.7 9.3 L 1.7 8.6 L 2.3 8.6 L 2.3 9.3 L 1.7 9.3 Z M 2.7 14.7 C 2 14.7 1.5 14.5 1.2 14.1 C 0.8 13.7 0.6 13.2 0.6 12.5 C 0.62 12.55 0.6 9.7 0.6 9.7 L 1.2 9.7 C 1.2 9.7 1.17 12.51 1.2 12.5 C 1.2 13 1.3 13.4 1.6 13.7 C 1.8 14 2.2 14.2 2.7 14.2 C 3.1 14.2 3.5 14 3.8 13.8 C 4 13.5 4.1 13.1 4.1 12.5 C 4.14 12.55 4.1 9.7 4.1 9.7 L 4.7 9.7 C 4.7 9.7 4.7 12.51 4.7 12.5 C 4.7 13.2 4.5 13.7 4.1 14.1 C 3.8 14.5 3.3 14.7 2.7 14.7 Z M 5.9 14.6 L 5.9 11 L 6.5 11 C 6.5 11 6.45 11.93 6.5 11.9 C 6.6 11.6 6.8 11.4 7 11.2 C 7.3 11 7.6 10.9 7.9 10.9 C 7.93 10.92 7.9 11.5 7.9 11.5 C 7.9 11.5 7.89 11.5 7.9 11.5 C 7.5 11.5 7.1 11.6 6.9 11.9 C 6.6 12.2 6.5 12.6 6.5 13.2 C 6.45 13.16 6.5 14.6 6.5 14.6 L 5.9 14.6 Z M 10.6 10.4 L 10.6 9.8 L 11.2 9.8 L 11.2 10.4 L 10.6 10.4 Z M 9.3 10.4 L 9.3 9.8 L 10 9.8 L 10 10.4 L 9.3 10.4 Z M 11.3 14 C 11 14.4 10.6 14.7 10.1 14.7 C 9.7 14.7 9.3 14.5 9.1 14.3 C 8.8 14 8.7 13.7 8.7 13.2 C 8.69 13.23 8.7 11 8.7 11 L 9.2 11 C 9.2 11 9.23 13.09 9.2 13.1 C 9.2 13.4 9.3 13.7 9.5 13.9 C 9.7 14.1 9.9 14.2 10.2 14.2 C 10.5 14.2 10.8 14.1 11 13.9 C 11.2 13.7 11.3 13.4 11.3 13.1 C 11.32 13.05 11.3 11 11.3 11 L 11.9 11 L 11.9 14.6 L 11.3 14.6 L 11.3 14 C 11.3 14 11.32 13.97 11.3 14 Z M 13.1 14.6 L 13.1 11 L 13.6 11 C 13.6 11 13.6 11.61 13.6 11.6 C 13.9 11.1 14.3 10.9 14.8 10.9 C 15.3 10.9 15.6 11 15.9 11.3 C 16.1 11.6 16.2 11.9 16.2 12.4 C 16.23 12.35 16.2 14.6 16.2 14.6 L 15.7 14.6 C 15.7 14.6 15.69 12.49 15.7 12.5 C 15.7 12.1 15.6 11.9 15.4 11.7 C 15.2 11.5 15 11.4 14.7 11.4 C 14.4 11.4 14.1 11.5 13.9 11.7 C 13.7 11.9 13.6 12.2 13.6 12.5 C 13.6 12.53 13.6 14.6 13.6 14.6 L 13.1 14.6 Z M 19.6 14.6 L 19.6 9.7 L 20.1 9.7 L 20.1 12.6 L 22.9 9.7 L 23.7 9.7 L 21.5 11.8 L 23.7 14.6 L 23 14.6 L 21.2 12.2 L 20.1 13.3 L 20.1 14.6 L 19.6 14.6 Z M 26.2 14.7 C 25.6 14.7 25.2 14.5 24.8 14.1 C 24.5 13.8 24.3 13.3 24.3 12.8 C 24.3 12.8 24.3 12.8 24.3 12.8 C 24.3 12.3 24.5 11.8 24.8 11.5 C 25.2 11.1 25.6 10.9 26.2 10.9 C 26.7 10.9 27.2 11.1 27.5 11.5 C 27.9 11.8 28.1 12.3 28.1 12.8 C 28.1 12.8 28.1 12.8 28.1 12.8 C 28.1 13.3 27.9 13.8 27.5 14.1 C 27.2 14.5 26.7 14.7 26.2 14.7 Z M 26.2 14.2 C 26.6 14.2 26.9 14.1 27.1 13.8 C 27.4 13.5 27.5 13.2 27.5 12.8 C 27.5 12.8 27.5 12.8 27.5 12.8 C 27.5 12.4 27.4 12.1 27.1 11.8 C 26.9 11.5 26.5 11.4 26.2 11.4 C 25.8 11.4 25.5 11.5 25.2 11.8 C 25 12.1 24.8 12.4 24.8 12.8 C 24.8 12.8 24.8 12.8 24.8 12.8 C 24.8 13.2 25 13.5 25.2 13.8 C 25.5 14.1 25.8 14.2 26.2 14.2 Z M 31.9 13.9 C 31.6 14.4 31.1 14.7 30.5 14.7 C 30.1 14.7 29.7 14.5 29.3 14.2 C 29 13.8 28.8 13.4 28.8 12.8 C 28.8 12.8 28.8 12.8 28.8 12.8 C 28.8 12.2 29 11.8 29.3 11.4 C 29.7 11.1 30.1 10.9 30.5 10.9 C 31.1 10.9 31.6 11.2 31.9 11.7 C 31.93 11.67 31.9 9.5 31.9 9.5 L 32.5 9.5 L 32.5 14.6 L 31.9 14.6 L 31.9 13.9 C 31.9 13.9 31.93 13.87 31.9 13.9 Z M 30.6 14.2 C 31 14.2 31.3 14.1 31.6 13.8 C 31.8 13.5 32 13.2 32 12.8 C 32 12.8 32 12.8 32 12.8 C 32 12.4 31.8 12 31.6 11.8 C 31.3 11.5 31 11.4 30.6 11.4 C 30.3 11.4 30 11.5 29.7 11.8 C 29.5 12 29.4 12.4 29.4 12.8 C 29.4 12.8 29.4 12.8 29.4 12.8 C 29.4 13.2 29.5 13.6 29.7 13.8 C 30 14.1 30.3 14.2 30.6 14.2 Z M 36.2 14 C 36 14.4 35.5 14.7 35 14.7 C 34.6 14.7 34.2 14.5 34 14.3 C 33.7 14 33.6 13.7 33.6 13.2 C 33.62 13.23 33.6 11 33.6 11 L 34.2 11 C 34.2 11 34.16 13.09 34.2 13.1 C 34.2 13.4 34.2 13.7 34.4 13.9 C 34.6 14.1 34.8 14.2 35.2 14.2 C 35.5 14.2 35.7 14.1 35.9 13.9 C 36.1 13.7 36.2 13.4 36.2 13.1 C 36.25 13.05 36.2 11 36.2 11 L 36.8 11 L 36.8 14.6 L 36.2 14.6 L 36.2 14 C 36.2 14 36.25 13.97 36.2 14 Z M 38 11.7 L 38 11 L 38.6 11 L 38.6 11.7 L 38 11.7 Z M 38 14.6 L 38 13.9 L 38.6 13.9 L 38.6 14.6 L 38 14.6 Z M 41.7 14.6 L 41.7 13.8 L 44.4 10.6 L 41.8 10.6 L 41.8 9.7 L 45.8 9.7 L 45.8 10.5 L 43.1 13.7 L 45.8 13.7 L 45.8 14.6 L 41.7 14.6 Z M 46.8 14.6 L 46.8 9.7 C 46.8 9.7 48.72 9.7 48.7 9.7 C 49.5 9.7 50.1 9.9 50.6 10.4 C 51.1 10.9 51.3 11.4 51.3 12.1 C 51.3 12.1 51.3 12.1 51.3 12.1 C 51.3 12.8 51.1 13.4 50.6 13.9 C 50.1 14.4 49.5 14.6 48.7 14.6 C 48.72 14.6 46.8 14.6 46.8 14.6 Z M 48.7 10.7 C 48.72 10.67 47.9 10.7 47.9 10.7 L 47.9 13.6 C 47.9 13.6 48.72 13.63 48.7 13.6 C 49.2 13.6 49.5 13.5 49.8 13.2 C 50.1 13 50.2 12.6 50.2 12.2 C 50.2 12.2 50.2 12.1 50.2 12.1 C 50.2 11.7 50.1 11.4 49.8 11.1 C 49.5 10.8 49.2 10.7 48.7 10.7 Z M 56 14.7 C 55.2 14.7 54.5 14.4 54.1 13.8 C 54.1 13.8 54.8 13.1 54.8 13.1 C 55.1 13.5 55.5 13.7 56 13.7 C 56.2 13.7 56.4 13.7 56.5 13.6 C 56.6 13.4 56.7 13.3 56.7 13.1 C 56.7 13.1 56.7 13.1 56.7 13.1 C 56.7 12.9 56.6 12.8 56.4 12.6 C 56.3 12.5 56 12.5 55.7 12.5 C 55.72 12.49 55.3 12.5 55.3 12.5 L 55.1 11.8 L 56.3 10.6 L 54.3 10.6 L 54.3 9.7 L 57.7 9.7 L 57.7 10.5 C 57.7 10.5 56.42 11.69 56.4 11.7 C 57.3 11.8 57.7 12.3 57.7 13.1 C 57.7 13.1 57.7 13.1 57.7 13.1 C 57.7 13.6 57.6 13.9 57.3 14.2 C 56.9 14.5 56.5 14.7 56 14.7 Z M 58.5 14.6 L 58.5 13.7 C 58.5 13.7 60.12 12.41 60.1 12.4 C 60.4 12.1 60.7 11.9 60.8 11.8 C 60.9 11.6 61 11.4 61 11.2 C 61 11 60.9 10.9 60.8 10.8 C 60.7 10.7 60.5 10.6 60.3 10.6 C 60.1 10.6 60 10.6 59.8 10.7 C 59.7 10.8 59.5 11 59.3 11.3 C 59.3 11.3 58.5 10.6 58.5 10.6 C 58.8 10.3 59.1 10 59.3 9.9 C 59.6 9.7 60 9.6 60.4 9.6 C 60.9 9.6 61.3 9.8 61.6 10 C 61.9 10.3 62.1 10.7 62.1 11.1 C 62.1 11.1 62.1 11.2 62.1 11.2 C 62.1 11.5 62 11.9 61.8 12.1 C 61.6 12.4 61.3 12.7 60.8 13.1 C 60.77 13.05 60 13.7 60 13.7 L 62.1 13.7 L 62.1 14.6 L 58.5 14.6 Z M 64.7 14.7 C 63.9 14.7 63.2 14.4 62.8 13.8 C 62.8 13.8 63.5 13.1 63.5 13.1 C 63.9 13.5 64.2 13.7 64.7 13.7 C 64.9 13.7 65.1 13.7 65.2 13.6 C 65.3 13.4 65.4 13.3 65.4 13.1 C 65.4 13.1 65.4 13.1 65.4 13.1 C 65.4 12.9 65.3 12.8 65.1 12.6 C 65 12.5 64.7 12.5 64.4 12.5 C 64.43 12.49 64 12.5 64 12.5 L 63.8 11.8 L 65 10.6 L 63.1 10.6 L 63.1 9.7 L 66.4 9.7 L 66.4 10.5 C 66.4 10.5 65.13 11.69 65.1 11.7 C 66 11.8 66.4 12.3 66.4 13.1 C 66.4 13.1 66.4 13.1 66.4 13.1 C 66.4 13.6 66.3 13.9 66 14.2 C 65.6 14.5 65.2 14.7 64.7 14.7 Z M 68.1 14.6 L 68.1 10.8 L 67.2 11 L 67 10.1 L 68.4 9.7 L 69.2 9.7 L 69.2 14.6 L 68.1 14.6 Z M 72 14.7 C 71.5 14.7 71 14.5 70.7 14.3 C 70.3 14 70.1 13.7 70.1 13.3 C 70.1 13.3 70.1 13.2 70.1 13.2 C 70.1 13 70.2 12.7 70.3 12.5 C 70.4 12.3 70.6 12.2 70.9 12.1 C 70.5 11.8 70.3 11.5 70.3 11 C 70.3 11 70.3 11 70.3 11 C 70.3 10.6 70.4 10.3 70.8 10 C 71.1 9.8 71.5 9.6 72 9.6 C 72.5 9.6 72.9 9.8 73.3 10 C 73.6 10.3 73.7 10.6 73.7 11 C 73.7 11 73.7 11 73.7 11 C 73.7 11.5 73.5 11.8 73.1 12.1 C 73.4 12.2 73.6 12.4 73.7 12.5 C 73.8 12.7 73.9 12.9 73.9 13.2 C 73.9 13.2 73.9 13.2 73.9 13.2 C 73.9 13.7 73.7 14 73.4 14.3 C 73 14.5 72.6 14.7 72 14.7 Z M 71.3 11.1 C 71.3 11.3 71.4 11.4 71.5 11.5 C 71.6 11.6 71.8 11.7 72 11.7 C 72.2 11.7 72.4 11.6 72.5 11.5 C 72.6 11.4 72.7 11.3 72.7 11.1 C 72.7 11.1 72.7 11.1 72.7 11.1 C 72.7 10.9 72.6 10.8 72.5 10.7 C 72.4 10.6 72.2 10.5 72 10.5 C 71.8 10.5 71.6 10.6 71.5 10.7 C 71.4 10.8 71.3 10.9 71.3 11.1 C 71.31 11.09 71.3 11.1 71.3 11.1 C 71.3 11.1 71.31 11.1 71.3 11.1 Z M 72 13.8 C 72.3 13.8 72.5 13.7 72.6 13.6 C 72.8 13.5 72.9 13.3 72.9 13.2 C 72.9 13.2 72.9 13.2 72.9 13.2 C 72.9 13 72.8 12.8 72.6 12.7 C 72.5 12.6 72.3 12.6 72 12.6 C 71.8 12.6 71.6 12.6 71.4 12.7 C 71.2 12.8 71.2 13 71.2 13.2 C 71.2 13.2 71.2 13.2 71.2 13.2 C 71.2 13.3 71.2 13.5 71.4 13.6 C 71.5 13.7 71.8 13.8 72 13.8 Z " stroke="none" fill="#000"/>  </g>  <g id="Polygon42468">    <path d="M 0.6 5.6 L 0.6 0.7 L 4.3 0.7 L 4.3 1.7 L 1.7 1.7 L 1.7 2.7 L 4 2.7 L 4 3.7 L 1.7 3.7 L 1.7 5.6 L 0.6 5.6 Z M 8.4 5 C 8 5.5 7.5 5.7 6.8 5.7 C 6.3 5.7 5.8 5.5 5.4 5.1 C 5.1 4.8 4.9 4.3 4.9 3.7 C 4.9 3.7 4.9 3.7 4.9 3.7 C 4.9 3.2 5.1 2.7 5.4 2.3 C 5.8 2 6.2 1.8 6.7 1.8 C 7.3 1.8 7.8 2 8.1 2.4 C 8.4 2.8 8.6 3.2 8.6 3.8 C 8.6 3.9 8.6 4 8.6 4.1 C 8.6 4.1 5.9 4.1 5.9 4.1 C 6 4.3 6.1 4.5 6.3 4.6 C 6.4 4.8 6.6 4.8 6.9 4.8 C 7.2 4.8 7.5 4.7 7.8 4.4 C 7.77 4.44 8.4 5 8.4 5 C 8.4 5 8.38 4.98 8.4 5 Z M 5.9 3.4 C 5.9 3.4 7.5 3.4 7.5 3.4 C 7.5 3.2 7.4 3 7.3 2.8 C 7.1 2.7 7 2.6 6.7 2.6 C 6.5 2.6 6.3 2.7 6.2 2.8 C 6.1 3 6 3.2 5.9 3.4 Z M 9.4 5.6 L 9.4 1.8 L 10.4 1.8 C 10.4 1.8 10.42 2.38 10.4 2.4 C 10.7 2 11.1 1.8 11.5 1.8 C 11.9 1.8 12.2 1.9 12.5 2.1 C 12.7 2.4 12.8 2.7 12.8 3.2 C 12.8 3.17 12.8 5.6 12.8 5.6 L 11.7 5.6 C 11.7 5.6 11.73 3.51 11.7 3.5 C 11.7 3 11.5 2.7 11.1 2.7 C 10.9 2.7 10.7 2.8 10.6 2.9 C 10.5 3.1 10.4 3.3 10.4 3.5 C 10.42 3.51 10.4 5.6 10.4 5.6 L 9.4 5.6 Z M 17 5 C 16.7 5.5 16.1 5.7 15.5 5.7 C 14.9 5.7 14.5 5.5 14.1 5.1 C 13.7 4.8 13.5 4.3 13.5 3.7 C 13.5 3.7 13.5 3.7 13.5 3.7 C 13.5 3.2 13.7 2.7 14.1 2.3 C 14.4 2 14.9 1.8 15.4 1.8 C 16 1.8 16.4 2 16.8 2.4 C 17.1 2.8 17.2 3.2 17.2 3.8 C 17.2 3.9 17.2 4 17.2 4.1 C 17.2 4.1 14.6 4.1 14.6 4.1 C 14.6 4.3 14.8 4.5 14.9 4.6 C 15.1 4.8 15.3 4.8 15.5 4.8 C 15.8 4.8 16.1 4.7 16.4 4.4 C 16.42 4.44 17 5 17 5 C 17 5 17.03 4.98 17 5 Z M 14.6 3.4 C 14.6 3.4 16.2 3.4 16.2 3.4 C 16.2 3.2 16.1 3 15.9 2.8 C 15.8 2.7 15.6 2.6 15.4 2.6 C 15.2 2.6 15 2.7 14.9 2.8 C 14.7 3 14.6 3.2 14.6 3.4 Z M 18 5.6 L 18 1.8 L 19.1 1.8 C 19.1 1.8 19.07 2.6 19.1 2.6 C 19.3 2 19.7 1.8 20.3 1.8 C 20.27 1.78 20.3 2.9 20.3 2.9 C 20.3 2.9 20.22 2.89 20.2 2.9 C 19.9 2.9 19.6 3 19.4 3.2 C 19.2 3.4 19.1 3.8 19.1 4.2 C 19.07 4.21 19.1 5.6 19.1 5.6 L 18 5.6 Z M 22.9 3.9 L 22.9 2.9 L 25.9 2.9 L 25.9 3.9 L 22.9 3.9 Z M 28.9 5.6 L 28.9 0.7 L 32.7 0.7 L 32.7 1.7 L 30 1.7 L 30 2.7 L 32.4 2.7 L 32.4 3.7 L 30 3.7 L 30 5.6 L 28.9 5.6 Z M 33.4 1.4 L 33.4 0.5 L 34.6 0.5 L 34.6 1.4 L 33.4 1.4 Z M 33.5 5.6 L 33.5 1.8 L 34.5 1.8 L 34.5 5.6 L 33.5 5.6 Z M 35.5 5.6 L 35.5 1.8 L 36.6 1.8 C 36.6 1.8 36.6 2.6 36.6 2.6 C 36.8 2 37.2 1.8 37.8 1.8 C 37.8 1.78 37.8 2.9 37.8 2.9 C 37.8 2.9 37.74 2.89 37.7 2.9 C 37.4 2.9 37.1 3 36.9 3.2 C 36.7 3.4 36.6 3.8 36.6 4.2 C 36.6 4.21 36.6 5.6 36.6 5.6 L 35.5 5.6 Z M 41.8 5 C 41.4 5.5 40.9 5.7 40.2 5.7 C 39.7 5.7 39.2 5.5 38.8 5.1 C 38.5 4.8 38.3 4.3 38.3 3.7 C 38.3 3.7 38.3 3.7 38.3 3.7 C 38.3 3.2 38.5 2.7 38.8 2.3 C 39.2 2 39.6 1.8 40.1 1.8 C 40.7 1.8 41.2 2 41.5 2.4 C 41.8 2.8 42 3.2 42 3.8 C 42 3.9 42 4 42 4.1 C 42 4.1 39.3 4.1 39.3 4.1 C 39.4 4.3 39.5 4.5 39.7 4.6 C 39.8 4.8 40 4.8 40.3 4.8 C 40.6 4.8 40.9 4.7 41.2 4.4 C 41.17 4.44 41.8 5 41.8 5 C 41.8 5 41.78 4.98 41.8 5 Z M 39.3 3.4 C 39.3 3.4 40.9 3.4 40.9 3.4 C 40.9 3.2 40.8 3 40.7 2.8 C 40.5 2.7 40.4 2.6 40.1 2.6 C 39.9 2.6 39.7 2.7 39.6 2.8 C 39.5 3 39.4 3.2 39.3 3.4 Z M 42.9 5.6 L 42.9 2.8 L 42.5 2.8 L 42.5 1.9 L 42.9 1.9 C 42.9 1.9 42.94 1.64 42.9 1.6 C 42.9 1.2 43 0.9 43.2 0.7 C 43.4 0.5 43.7 0.4 44.1 0.4 C 44.4 0.4 44.6 0.5 44.9 0.5 C 44.9 0.5 44.9 1.4 44.9 1.4 C 44.7 1.4 44.5 1.3 44.4 1.3 C 44.1 1.3 44 1.5 44 1.7 C 43.99 1.74 44 1.9 44 1.9 L 44.8 1.9 L 44.8 2.8 L 44 2.8 L 44 5.6 L 42.9 5.6 Z M 45.5 5.6 L 45.5 0.5 L 46.5 0.5 L 46.5 5.6 L 45.5 5.6 Z M 49.2 4.4 L 50 1.8 L 51.1 1.8 C 51.1 1.8 49.67 5.69 49.7 5.7 C 49.5 6.1 49.4 6.3 49.2 6.5 C 49 6.7 48.8 6.7 48.4 6.7 C 48.1 6.7 47.8 6.7 47.5 6.5 C 47.5 6.5 47.9 5.7 47.9 5.7 C 48 5.8 48.2 5.9 48.3 5.9 C 48.4 5.9 48.5 5.8 48.5 5.8 C 48.6 5.8 48.6 5.7 48.7 5.6 C 48.68 5.61 47.2 1.8 47.2 1.8 L 48.3 1.8 L 49.2 4.4 Z " stroke="none" fill="#000"/>  </g></svg>