<?xml version="1.0" standalone="no"?><!DOCTYPE svg PUBLIC "-//W3C//DTD SVG 1.1//EN" "http://www.w3.org/Graphics/SVG/1.1/DTD/svg11.dtd"><svg xmlns="http://www.w3.org/2000/svg" version="1.1" width="69.5px" height="21px" viewBox="0 -1 69.5 21" style="top:-1px">  <desc>₺10.038,09</desc>  <defs/>  <g id="Polygon55959">    <path d="M 2.7 4.1 L 2.7 12.7 L 1.6 12.7 L 1.6 4.1 L 2.7 4.1 Z M 5 8.1 L 6.2 8.1 C 6.2 8.1 6.16 8.66 6.2 8.7 C 6.2 9.3 6.1 9.9 5.9 10.4 C 5.8 10.9 5.5 11.3 5.2 11.7 C 4.9 12 4.6 12.3 4.1 12.5 C 3.7 12.7 3.2 12.8 2.7 12.8 C 2.5 12.8 2.4 12.8 2.2 12.7 C 2 12.7 1.8 12.7 1.6 12.7 C 1.6 12.7 2.7 11.8 2.7 11.8 C 3.1 11.8 3.4 11.7 3.7 11.6 C 4 11.5 4.2 11.3 4.4 11 C 4.6 10.7 4.8 10.4 4.9 10 C 5 9.6 5 9.2 5 8.7 C 5.04 8.66 5 8.1 5 8.1 Z M 4.2 5 L 4.2 6 L 0.2 7.8 L 0.2 6.8 L 4.2 5 Z M 4.2 6.9 L 4.2 7.9 L 0.2 9.8 L 0.2 8.7 L 4.2 6.9 Z M 11 4.1 L 11 12.7 L 9.9 12.7 L 9.9 5.4 L 7.7 6.2 L 7.7 5.3 L 10.8 4.1 L 11 4.1 Z M 19.5 7.7 C 19.5 7.7 19.5 9 19.5 9 C 19.5 9.7 19.4 10.3 19.3 10.8 C 19.2 11.3 19 11.7 18.8 12 C 18.5 12.2 18.2 12.5 17.9 12.6 C 17.6 12.7 17.2 12.8 16.8 12.8 C 16.5 12.8 16.2 12.7 15.9 12.7 C 15.6 12.6 15.4 12.4 15.1 12.3 C 14.9 12.1 14.7 11.8 14.6 11.6 C 14.4 11.3 14.3 10.9 14.2 10.5 C 14.1 10.1 14.1 9.6 14.1 9 C 14.1 9 14.1 7.7 14.1 7.7 C 14.1 7 14.2 6.4 14.3 6 C 14.4 5.5 14.6 5.1 14.8 4.8 C 15.1 4.5 15.3 4.3 15.7 4.2 C 16 4.1 16.4 4 16.8 4 C 17.1 4 17.4 4.1 17.7 4.1 C 18 4.2 18.2 4.3 18.5 4.5 C 18.7 4.7 18.9 4.9 19 5.2 C 19.2 5.5 19.3 5.8 19.4 6.3 C 19.4 6.7 19.5 7.2 19.5 7.7 Z M 18.4 9.2 C 18.4 9.2 18.4 7.5 18.4 7.5 C 18.4 7.2 18.4 6.8 18.3 6.5 C 18.3 6.2 18.2 6 18.1 5.8 C 18 5.6 17.9 5.4 17.8 5.3 C 17.7 5.1 17.5 5.1 17.4 5 C 17.2 4.9 17 4.9 16.8 4.9 C 16.5 4.9 16.3 4.9 16.1 5 C 15.9 5.1 15.7 5.3 15.6 5.5 C 15.5 5.7 15.4 6 15.3 6.3 C 15.2 6.6 15.2 7.1 15.2 7.5 C 15.2 7.5 15.2 9.2 15.2 9.2 C 15.2 9.6 15.2 9.9 15.3 10.2 C 15.3 10.5 15.4 10.8 15.5 11 C 15.5 11.2 15.7 11.4 15.8 11.5 C 15.9 11.6 16.1 11.7 16.2 11.8 C 16.4 11.9 16.6 11.9 16.8 11.9 C 17.1 11.9 17.3 11.8 17.5 11.7 C 17.7 11.6 17.9 11.5 18 11.3 C 18.1 11 18.2 10.8 18.3 10.4 C 18.4 10.1 18.4 9.7 18.4 9.2 Z M 21 12.1 C 21 11.9 21.1 11.8 21.2 11.6 C 21.3 11.5 21.5 11.4 21.7 11.4 C 21.9 11.4 22.1 11.5 22.2 11.6 C 22.3 11.8 22.4 11.9 22.4 12.1 C 22.4 12.3 22.3 12.4 22.2 12.5 C 22.1 12.7 21.9 12.7 21.7 12.7 C 21.5 12.7 21.3 12.7 21.2 12.5 C 21.1 12.4 21 12.3 21 12.1 Z M 29.4 7.7 C 29.4 7.7 29.4 9 29.4 9 C 29.4 9.7 29.3 10.3 29.2 10.8 C 29.1 11.3 28.9 11.7 28.7 12 C 28.4 12.2 28.2 12.5 27.8 12.6 C 27.5 12.7 27.1 12.8 26.7 12.8 C 26.4 12.8 26.1 12.7 25.8 12.7 C 25.5 12.6 25.3 12.4 25.1 12.3 C 24.8 12.1 24.6 11.8 24.5 11.6 C 24.3 11.3 24.2 10.9 24.1 10.5 C 24 10.1 24 9.6 24 9 C 24 9 24 7.7 24 7.7 C 24 7 24.1 6.4 24.2 6 C 24.3 5.5 24.5 5.1 24.7 4.8 C 25 4.5 25.3 4.3 25.6 4.2 C 25.9 4.1 26.3 4 26.7 4 C 27 4 27.3 4.1 27.6 4.1 C 27.9 4.2 28.1 4.3 28.4 4.5 C 28.6 4.7 28.8 4.9 28.9 5.2 C 29.1 5.5 29.2 5.8 29.3 6.3 C 29.4 6.7 29.4 7.2 29.4 7.7 Z M 28.3 9.2 C 28.3 9.2 28.3 7.5 28.3 7.5 C 28.3 7.2 28.3 6.8 28.2 6.5 C 28.2 6.2 28.1 6 28 5.8 C 28 5.6 27.8 5.4 27.7 5.3 C 27.6 5.1 27.4 5.1 27.3 5 C 27.1 4.9 26.9 4.9 26.7 4.9 C 26.4 4.9 26.2 4.9 26 5 C 25.8 5.1 25.6 5.3 25.5 5.5 C 25.4 5.7 25.3 6 25.2 6.3 C 25.1 6.6 25.1 7.1 25.1 7.5 C 25.1 7.5 25.1 9.2 25.1 9.2 C 25.1 9.6 25.1 9.9 25.2 10.2 C 25.2 10.5 25.3 10.8 25.4 11 C 25.5 11.2 25.6 11.4 25.7 11.5 C 25.8 11.6 26 11.7 26.1 11.8 C 26.3 11.9 26.5 11.9 26.7 11.9 C 27 11.9 27.2 11.8 27.4 11.7 C 27.6 11.6 27.8 11.5 27.9 11.3 C 28 11 28.1 10.8 28.2 10.4 C 28.3 10.1 28.3 9.7 28.3 9.2 Z M 32.4 7.9 C 32.4 7.9 33.14 7.87 33.1 7.9 C 33.5 7.9 33.8 7.8 34.1 7.7 C 34.3 7.5 34.5 7.4 34.6 7.2 C 34.8 6.9 34.8 6.7 34.8 6.4 C 34.8 6.1 34.8 5.8 34.7 5.6 C 34.5 5.4 34.4 5.2 34.2 5.1 C 33.9 5 33.7 4.9 33.3 4.9 C 33 4.9 32.8 5 32.5 5.1 C 32.3 5.2 32.1 5.4 32 5.6 C 31.9 5.8 31.8 6.1 31.8 6.4 C 31.8 6.4 30.7 6.4 30.7 6.4 C 30.7 5.9 30.8 5.5 31 5.2 C 31.2 4.8 31.6 4.5 32 4.3 C 32.4 4.1 32.8 4 33.3 4 C 33.8 4 34.3 4.1 34.7 4.3 C 35.1 4.5 35.4 4.7 35.6 5.1 C 35.8 5.5 35.9 5.9 35.9 6.4 C 35.9 6.6 35.9 6.9 35.8 7.1 C 35.7 7.4 35.5 7.6 35.3 7.8 C 35.1 8 34.8 8.2 34.5 8.3 C 34.2 8.5 33.8 8.5 33.3 8.5 C 33.29 8.52 32.4 8.5 32.4 8.5 L 32.4 7.9 Z M 32.4 8.8 L 32.4 8.1 C 32.4 8.1 33.29 8.11 33.3 8.1 C 33.8 8.1 34.3 8.2 34.6 8.3 C 35 8.4 35.3 8.6 35.5 8.8 C 35.7 9 35.8 9.3 35.9 9.5 C 36 9.8 36 10 36 10.3 C 36 10.7 36 11 35.8 11.3 C 35.7 11.7 35.5 11.9 35.3 12.1 C 35 12.3 34.7 12.5 34.4 12.6 C 34.1 12.7 33.7 12.8 33.3 12.8 C 33 12.8 32.6 12.7 32.3 12.6 C 32 12.5 31.7 12.4 31.4 12.2 C 31.2 12 31 11.7 30.8 11.4 C 30.7 11.1 30.6 10.8 30.6 10.4 C 30.6 10.4 31.7 10.4 31.7 10.4 C 31.7 10.7 31.8 11 31.9 11.2 C 32 11.4 32.2 11.6 32.5 11.7 C 32.7 11.8 33 11.9 33.3 11.9 C 33.7 11.9 34 11.8 34.2 11.7 C 34.4 11.6 34.6 11.4 34.8 11.2 C 34.9 11 35 10.7 35 10.3 C 35 10 34.9 9.7 34.7 9.4 C 34.6 9.2 34.4 9 34.1 8.9 C 33.8 8.8 33.5 8.8 33.1 8.8 C 33.14 8.76 32.4 8.8 32.4 8.8 Z M 42.9 10.4 C 42.9 10.9 42.8 11.3 42.5 11.7 C 42.3 12 42 12.3 41.6 12.5 C 41.2 12.7 40.7 12.8 40.2 12.8 C 39.7 12.8 39.2 12.7 38.8 12.5 C 38.4 12.3 38.1 12 37.8 11.7 C 37.6 11.3 37.5 10.9 37.5 10.4 C 37.5 10 37.5 9.7 37.7 9.4 C 37.8 9.1 38 8.9 38.2 8.7 C 38.5 8.5 38.8 8.3 39.1 8.2 C 39.4 8.1 39.8 8 40.2 8 C 40.7 8 41.2 8.1 41.6 8.3 C 42 8.5 42.3 8.8 42.6 9.1 C 42.8 9.5 42.9 9.9 42.9 10.4 Z M 41.8 10.3 C 41.8 10 41.7 9.7 41.6 9.5 C 41.5 9.2 41.3 9.1 41 8.9 C 40.8 8.8 40.5 8.7 40.2 8.7 C 39.9 8.7 39.6 8.8 39.3 8.9 C 39.1 9.1 38.9 9.2 38.8 9.5 C 38.6 9.7 38.6 10 38.6 10.3 C 38.6 10.7 38.6 10.9 38.8 11.2 C 38.9 11.4 39.1 11.6 39.3 11.7 C 39.6 11.8 39.9 11.9 40.2 11.9 C 40.5 11.9 40.8 11.8 41.1 11.7 C 41.3 11.6 41.5 11.4 41.6 11.2 C 41.8 10.9 41.8 10.7 41.8 10.3 Z M 42.7 6.4 C 42.7 6.8 42.6 7.1 42.4 7.5 C 42.2 7.8 41.9 8.1 41.5 8.3 C 41.1 8.5 40.7 8.5 40.2 8.5 C 39.7 8.5 39.3 8.5 38.9 8.3 C 38.5 8.1 38.2 7.8 38 7.5 C 37.8 7.1 37.7 6.8 37.7 6.4 C 37.7 5.9 37.8 5.4 38 5.1 C 38.2 4.7 38.5 4.5 38.9 4.3 C 39.3 4.1 39.7 4 40.2 4 C 40.7 4 41.1 4.1 41.5 4.3 C 41.9 4.5 42.2 4.7 42.4 5.1 C 42.6 5.4 42.7 5.9 42.7 6.4 Z M 41.6 6.4 C 41.6 6.1 41.6 5.8 41.4 5.6 C 41.3 5.4 41.2 5.2 40.9 5.1 C 40.7 5 40.5 4.9 40.2 4.9 C 39.9 4.9 39.7 5 39.4 5.1 C 39.2 5.2 39.1 5.4 38.9 5.6 C 38.8 5.8 38.8 6.1 38.8 6.4 C 38.8 6.7 38.8 6.9 38.9 7.1 C 39.1 7.4 39.2 7.5 39.4 7.6 C 39.7 7.8 39.9 7.8 40.2 7.8 C 40.5 7.8 40.7 7.8 40.9 7.6 C 41.2 7.5 41.3 7.4 41.4 7.1 C 41.6 6.9 41.6 6.7 41.6 6.4 Z M 45.4 11.4 C 45.4 11.4 45.38 12.25 45.4 12.2 C 45.4 12.6 45.3 13 45.1 13.4 C 44.9 13.8 44.7 14.1 44.3 14.4 C 44.3 14.4 43.7 13.9 43.7 13.9 C 43.9 13.8 44 13.6 44.1 13.4 C 44.1 13.2 44.2 13.1 44.2 12.9 C 44.3 12.7 44.3 12.5 44.3 12.3 C 44.31 12.27 44.3 11.4 44.3 11.4 L 45.4 11.4 Z M 52 7.7 C 52 7.7 52 9 52 9 C 52 9.7 51.9 10.3 51.8 10.8 C 51.7 11.3 51.5 11.7 51.3 12 C 51 12.2 50.7 12.5 50.4 12.6 C 50.1 12.7 49.7 12.8 49.3 12.8 C 49 12.8 48.7 12.7 48.4 12.7 C 48.1 12.6 47.9 12.4 47.6 12.3 C 47.4 12.1 47.2 11.8 47.1 11.6 C 46.9 11.3 46.8 10.9 46.7 10.5 C 46.6 10.1 46.6 9.6 46.6 9 C 46.6 9 46.6 7.7 46.6 7.7 C 46.6 7 46.7 6.4 46.8 6 C 46.9 5.5 47.1 5.1 47.3 4.8 C 47.6 4.5 47.8 4.3 48.2 4.2 C 48.5 4.1 48.9 4 49.3 4 C 49.6 4 49.9 4.1 50.2 4.1 C 50.5 4.2 50.7 4.3 51 4.5 C 51.2 4.7 51.4 4.9 51.5 5.2 C 51.7 5.5 51.8 5.8 51.9 6.3 C 51.9 6.7 52 7.2 52 7.7 Z M 50.9 9.2 C 50.9 9.2 50.9 7.5 50.9 7.5 C 50.9 7.2 50.9 6.8 50.8 6.5 C 50.8 6.2 50.7 6 50.6 5.8 C 50.6 5.6 50.4 5.4 50.3 5.3 C 50.2 5.1 50 5.1 49.9 5 C 49.7 4.9 49.5 4.9 49.3 4.9 C 49 4.9 48.8 4.9 48.6 5 C 48.4 5.1 48.2 5.3 48.1 5.5 C 48 5.7 47.9 6 47.8 6.3 C 47.7 6.6 47.7 7.1 47.7 7.5 C 47.7 7.5 47.7 9.2 47.7 9.2 C 47.7 9.6 47.7 9.9 47.8 10.2 C 47.8 10.5 47.9 10.8 48 11 C 48 11.2 48.2 11.4 48.3 11.5 C 48.4 11.6 48.6 11.7 48.7 11.8 C 48.9 11.9 49.1 11.9 49.3 11.9 C 49.6 11.9 49.8 11.8 50 11.7 C 50.2 11.6 50.4 11.5 50.5 11.3 C 50.6 11 50.7 10.8 50.8 10.4 C 50.9 10.1 50.9 9.7 50.9 9.2 Z M 54.5 11.8 C 54.5 11.8 54.57 11.76 54.6 11.8 C 55.2 11.8 55.7 11.7 56.1 11.5 C 56.5 11.3 56.8 11.1 57 10.8 C 57.2 10.5 57.3 10.2 57.4 9.8 C 57.5 9.4 57.5 9 57.5 8.6 C 57.5 8.6 57.5 7.3 57.5 7.3 C 57.5 6.9 57.5 6.6 57.4 6.3 C 57.3 6 57.2 5.7 57 5.5 C 56.9 5.3 56.7 5.2 56.5 5.1 C 56.3 5 56.1 4.9 55.9 4.9 C 55.7 4.9 55.4 5 55.2 5.1 C 55 5.2 54.9 5.3 54.7 5.5 C 54.6 5.7 54.5 5.9 54.4 6.1 C 54.4 6.4 54.3 6.6 54.3 6.9 C 54.3 7.2 54.4 7.4 54.4 7.6 C 54.5 7.9 54.6 8.1 54.7 8.3 C 54.8 8.5 55 8.6 55.2 8.7 C 55.4 8.9 55.6 8.9 55.9 8.9 C 56.1 8.9 56.3 8.9 56.6 8.8 C 56.8 8.7 57 8.5 57.1 8.4 C 57.3 8.2 57.4 8 57.5 7.8 C 57.6 7.6 57.7 7.4 57.7 7.1 C 57.7 7.1 58.2 7.1 58.2 7.1 C 58.2 7.5 58.1 7.8 58 8.1 C 57.9 8.4 57.7 8.7 57.5 9 C 57.3 9.2 57 9.4 56.7 9.6 C 56.4 9.7 56.1 9.8 55.7 9.8 C 55.3 9.8 54.9 9.7 54.6 9.6 C 54.3 9.4 54 9.2 53.8 8.9 C 53.6 8.6 53.5 8.3 53.4 8 C 53.3 7.7 53.3 7.3 53.3 7 C 53.3 6.6 53.3 6.2 53.4 5.8 C 53.5 5.5 53.7 5.2 53.9 4.9 C 54.2 4.6 54.4 4.4 54.8 4.2 C 55.1 4.1 55.5 4 55.9 4 C 56.4 4 56.8 4.1 57.2 4.3 C 57.5 4.5 57.8 4.8 58 5.1 C 58.2 5.4 58.4 5.8 58.5 6.2 C 58.6 6.6 58.6 7 58.6 7.5 C 58.6 7.5 58.6 7.9 58.6 7.9 C 58.6 8.3 58.6 8.8 58.5 9.2 C 58.5 9.7 58.4 10.1 58.2 10.5 C 58.1 10.9 57.8 11.3 57.5 11.6 C 57.2 11.9 56.8 12.2 56.4 12.4 C 55.9 12.6 55.3 12.7 54.6 12.7 C 54.57 12.68 54.5 12.7 54.5 12.7 L 54.5 11.8 Z " stroke="none" fill="#000"/>  </g></svg>