<?xml version="1.0" standalone="no"?><!DOCTYPE svg PUBLIC "-//W3C//DTD SVG 1.1//EN" "http://www.w3.org/Graphics/SVG/1.1/DTD/svg11.dtd"><svg xmlns="http://www.w3.org/2000/svg" version="1.1" width="69.5px" height="20.8px" viewBox="0 -1 69.5 20.8" style="top:-1px">  <desc>₺18.890,35</desc>  <defs/>  <g id="Polygon46743">    <path d="M 2.5 4.4 L 2.5 12.2 L 1.5 12.2 L 1.5 4.4 L 2.5 4.4 Z M 4.6 8.1 L 5.6 8.1 C 5.6 8.1 5.65 8.55 5.6 8.6 C 5.6 9.1 5.6 9.7 5.4 10.1 C 5.3 10.6 5.1 11 4.8 11.3 C 4.5 11.6 4.2 11.9 3.8 12.1 C 3.4 12.2 3 12.3 2.5 12.3 C 2.3 12.3 2.2 12.3 2 12.3 C 1.8 12.3 1.7 12.3 1.5 12.2 C 1.5 12.2 2.5 11.4 2.5 11.4 C 2.8 11.4 3.1 11.4 3.4 11.3 C 3.7 11.1 3.9 11 4.1 10.7 C 4.3 10.5 4.4 10.2 4.5 9.8 C 4.6 9.4 4.6 9 4.6 8.6 C 4.62 8.55 4.6 8.1 4.6 8.1 Z M 3.9 5.2 L 3.9 6.1 L 0.2 7.8 L 0.2 6.8 L 3.9 5.2 Z M 3.9 6.9 L 3.9 7.9 L 0.2 9.6 L 0.2 8.6 L 3.9 6.9 Z M 10 4.4 L 10 12.2 L 9 12.2 L 9 5.6 L 7 6.3 L 7 5.4 L 9.9 4.4 L 10 4.4 Z M 17.9 10.1 C 17.9 10.6 17.8 11 17.6 11.3 C 17.3 11.6 17 11.9 16.7 12.1 C 16.3 12.2 15.9 12.3 15.4 12.3 C 14.9 12.3 14.5 12.2 14.1 12.1 C 13.8 11.9 13.5 11.6 13.2 11.3 C 13 11 12.9 10.6 12.9 10.1 C 12.9 9.8 13 9.5 13.1 9.3 C 13.2 9 13.4 8.8 13.6 8.6 C 13.8 8.4 14.1 8.2 14.4 8.1 C 14.7 8 15 8 15.4 8 C 15.9 8 16.3 8.1 16.7 8.2 C 17 8.4 17.3 8.7 17.6 9 C 17.8 9.3 17.9 9.7 17.9 10.1 Z M 16.9 10.1 C 16.9 9.8 16.8 9.5 16.7 9.3 C 16.6 9.1 16.4 8.9 16.2 8.8 C 15.9 8.7 15.7 8.6 15.4 8.6 C 15.1 8.6 14.8 8.7 14.6 8.8 C 14.4 8.9 14.2 9.1 14.1 9.3 C 14 9.5 13.9 9.8 13.9 10.1 C 13.9 10.4 14 10.6 14.1 10.9 C 14.2 11.1 14.4 11.2 14.6 11.3 C 14.8 11.5 15.1 11.5 15.4 11.5 C 15.7 11.5 16 11.5 16.2 11.3 C 16.4 11.2 16.6 11.1 16.7 10.9 C 16.8 10.6 16.9 10.4 16.9 10.1 Z M 17.7 6.4 C 17.7 6.8 17.6 7.2 17.4 7.5 C 17.2 7.8 16.9 8 16.6 8.2 C 16.2 8.4 15.8 8.4 15.4 8.4 C 15 8.4 14.6 8.4 14.2 8.2 C 13.9 8 13.6 7.8 13.4 7.5 C 13.2 7.2 13.1 6.8 13.1 6.4 C 13.1 6 13.2 5.6 13.4 5.3 C 13.6 5 13.9 4.7 14.2 4.5 C 14.6 4.4 14.9 4.3 15.4 4.3 C 15.8 4.3 16.2 4.4 16.6 4.5 C 16.9 4.7 17.2 5 17.4 5.3 C 17.6 5.6 17.7 6 17.7 6.4 Z M 16.7 6.5 C 16.7 6.2 16.7 6 16.5 5.8 C 16.4 5.6 16.3 5.4 16.1 5.3 C 15.9 5.2 15.7 5.1 15.4 5.1 C 15.1 5.1 14.9 5.2 14.7 5.3 C 14.5 5.4 14.4 5.5 14.3 5.7 C 14.1 5.9 14.1 6.2 14.1 6.5 C 14.1 6.7 14.1 7 14.3 7.2 C 14.4 7.4 14.5 7.5 14.7 7.6 C 14.9 7.7 15.1 7.8 15.4 7.8 C 15.7 7.8 15.9 7.7 16.1 7.6 C 16.3 7.5 16.4 7.4 16.5 7.2 C 16.7 7 16.7 6.7 16.7 6.5 Z M 19.3 11.7 C 19.3 11.5 19.3 11.4 19.4 11.3 C 19.5 11.2 19.7 11.1 19.9 11.1 C 20.1 11.1 20.2 11.2 20.3 11.3 C 20.4 11.4 20.5 11.5 20.5 11.7 C 20.5 11.9 20.4 12 20.3 12.1 C 20.2 12.2 20.1 12.3 19.9 12.3 C 19.7 12.3 19.5 12.2 19.4 12.1 C 19.3 12 19.3 11.9 19.3 11.7 Z M 27 10.1 C 27 10.6 26.9 11 26.6 11.3 C 26.4 11.6 26.1 11.9 25.7 12.1 C 25.4 12.2 25 12.3 24.5 12.3 C 24 12.3 23.6 12.2 23.2 12.1 C 22.8 11.9 22.5 11.6 22.3 11.3 C 22.1 11 22 10.6 22 10.1 C 22 9.8 22.1 9.5 22.2 9.3 C 22.3 9 22.5 8.8 22.7 8.6 C 22.9 8.4 23.2 8.2 23.5 8.1 C 23.8 8 24.1 8 24.5 8 C 25 8 25.4 8.1 25.8 8.2 C 26.1 8.4 26.4 8.7 26.6 9 C 26.9 9.3 27 9.7 27 10.1 Z M 26 10.1 C 26 9.8 25.9 9.5 25.8 9.3 C 25.7 9.1 25.5 8.9 25.3 8.8 C 25 8.7 24.8 8.6 24.5 8.6 C 24.2 8.6 23.9 8.7 23.7 8.8 C 23.5 8.9 23.3 9.1 23.2 9.3 C 23 9.5 23 9.8 23 10.1 C 23 10.4 23 10.6 23.2 10.9 C 23.3 11.1 23.5 11.2 23.7 11.3 C 23.9 11.5 24.2 11.5 24.5 11.5 C 24.8 11.5 25.1 11.5 25.3 11.3 C 25.5 11.2 25.7 11.1 25.8 10.9 C 25.9 10.6 26 10.4 26 10.1 Z M 26.8 6.4 C 26.8 6.8 26.7 7.2 26.5 7.5 C 26.3 7.8 26 8 25.7 8.2 C 25.3 8.4 24.9 8.4 24.5 8.4 C 24 8.4 23.6 8.4 23.3 8.2 C 22.9 8 22.7 7.8 22.5 7.5 C 22.3 7.2 22.2 6.8 22.2 6.4 C 22.2 6 22.3 5.6 22.5 5.3 C 22.7 5 22.9 4.7 23.3 4.5 C 23.6 4.4 24 4.3 24.5 4.3 C 24.9 4.3 25.3 4.4 25.7 4.5 C 26 4.7 26.3 5 26.5 5.3 C 26.7 5.6 26.8 6 26.8 6.4 Z M 25.8 6.5 C 25.8 6.2 25.7 6 25.6 5.8 C 25.5 5.6 25.4 5.4 25.2 5.3 C 25 5.2 24.7 5.1 24.5 5.1 C 24.2 5.1 24 5.2 23.8 5.3 C 23.6 5.4 23.4 5.5 23.3 5.7 C 23.2 5.9 23.2 6.2 23.2 6.5 C 23.2 6.7 23.2 7 23.3 7.2 C 23.4 7.4 23.6 7.5 23.8 7.6 C 24 7.7 24.2 7.8 24.5 7.8 C 24.7 7.8 25 7.7 25.2 7.6 C 25.4 7.5 25.5 7.4 25.6 7.2 C 25.7 7 25.8 6.7 25.8 6.5 Z M 29.2 11.4 C 29.2 11.4 29.31 11.39 29.3 11.4 C 29.9 11.4 30.3 11.3 30.7 11.1 C 31.1 11 31.3 10.8 31.5 10.5 C 31.7 10.2 31.9 9.9 31.9 9.6 C 32 9.2 32 8.9 32 8.5 C 32 8.5 32 7.3 32 7.3 C 32 7 32 6.7 31.9 6.4 C 31.8 6.1 31.7 5.9 31.6 5.7 C 31.4 5.5 31.3 5.4 31.1 5.3 C 30.9 5.2 30.7 5.1 30.5 5.1 C 30.3 5.1 30.1 5.2 29.9 5.3 C 29.7 5.3 29.6 5.5 29.5 5.6 C 29.3 5.8 29.2 6 29.2 6.2 C 29.1 6.4 29.1 6.7 29.1 6.9 C 29.1 7.2 29.1 7.4 29.2 7.6 C 29.2 7.8 29.3 8 29.4 8.2 C 29.6 8.4 29.7 8.5 29.9 8.6 C 30.1 8.7 30.3 8.8 30.5 8.8 C 30.7 8.8 30.9 8.7 31.1 8.6 C 31.3 8.6 31.5 8.4 31.6 8.3 C 31.8 8.1 31.9 8 32 7.8 C 32.1 7.6 32.2 7.4 32.2 7.2 C 32.2 7.2 32.6 7.2 32.6 7.2 C 32.6 7.5 32.6 7.8 32.5 8 C 32.4 8.3 32.2 8.6 32 8.8 C 31.8 9.1 31.5 9.3 31.3 9.4 C 31 9.5 30.7 9.6 30.3 9.6 C 30 9.6 29.6 9.5 29.3 9.4 C 29.1 9.2 28.8 9 28.6 8.8 C 28.5 8.5 28.3 8.2 28.2 7.9 C 28.2 7.6 28.1 7.3 28.1 7 C 28.1 6.6 28.2 6.3 28.3 5.9 C 28.4 5.6 28.5 5.3 28.7 5.1 C 28.9 4.8 29.2 4.6 29.5 4.5 C 29.8 4.4 30.1 4.3 30.5 4.3 C 31 4.3 31.4 4.4 31.7 4.6 C 32 4.7 32.3 5 32.4 5.3 C 32.6 5.6 32.8 5.9 32.9 6.3 C 33 6.7 33 7.1 33 7.5 C 33 7.5 33 7.8 33 7.8 C 33 8.2 33 8.6 32.9 9.1 C 32.9 9.5 32.8 9.9 32.7 10.2 C 32.5 10.6 32.3 11 32 11.3 C 31.7 11.6 31.4 11.8 30.9 12 C 30.5 12.1 30 12.2 29.3 12.2 C 29.31 12.23 29.2 12.2 29.2 12.2 L 29.2 11.4 Z M 39.3 7.7 C 39.3 7.7 39.3 8.9 39.3 8.9 C 39.3 9.5 39.3 10.1 39.1 10.5 C 39 10.9 38.9 11.3 38.6 11.6 C 38.4 11.8 38.2 12 37.9 12.2 C 37.6 12.3 37.2 12.3 36.8 12.3 C 36.5 12.3 36.3 12.3 36 12.2 C 35.8 12.1 35.5 12 35.3 11.9 C 35.1 11.7 35 11.5 34.8 11.2 C 34.7 10.9 34.6 10.6 34.5 10.2 C 34.4 9.8 34.4 9.4 34.4 8.9 C 34.4 8.9 34.4 7.7 34.4 7.7 C 34.4 7 34.4 6.5 34.5 6.1 C 34.7 5.6 34.8 5.3 35 5 C 35.3 4.8 35.5 4.6 35.8 4.5 C 36.1 4.4 36.5 4.3 36.8 4.3 C 37.1 4.3 37.4 4.3 37.7 4.4 C 37.9 4.5 38.2 4.6 38.4 4.8 C 38.6 4.9 38.7 5.1 38.9 5.4 C 39 5.7 39.1 6 39.2 6.4 C 39.3 6.7 39.3 7.2 39.3 7.7 Z M 38.3 9 C 38.3 9 38.3 7.5 38.3 7.5 C 38.3 7.2 38.3 6.9 38.3 6.6 C 38.2 6.3 38.1 6.1 38.1 5.9 C 38 5.7 37.9 5.6 37.8 5.5 C 37.7 5.3 37.5 5.2 37.4 5.2 C 37.2 5.1 37 5.1 36.8 5.1 C 36.6 5.1 36.4 5.2 36.2 5.2 C 36 5.3 35.9 5.5 35.7 5.7 C 35.6 5.8 35.5 6.1 35.5 6.4 C 35.4 6.7 35.4 7.1 35.4 7.5 C 35.4 7.5 35.4 9 35.4 9 C 35.4 9.4 35.4 9.7 35.4 10 C 35.5 10.2 35.5 10.5 35.6 10.7 C 35.7 10.9 35.8 11 35.9 11.1 C 36 11.3 36.2 11.4 36.3 11.4 C 36.5 11.5 36.7 11.5 36.8 11.5 C 37.1 11.5 37.3 11.5 37.5 11.4 C 37.7 11.3 37.8 11.1 37.9 10.9 C 38.1 10.7 38.2 10.5 38.2 10.2 C 38.3 9.9 38.3 9.5 38.3 9 Z M 41.6 11 C 41.6 11 41.59 11.84 41.6 11.8 C 41.6 12.2 41.5 12.5 41.3 12.9 C 41.2 13.2 41 13.5 40.7 13.8 C 40.7 13.8 40.1 13.4 40.1 13.4 C 40.2 13.2 40.3 13.1 40.4 12.9 C 40.5 12.8 40.5 12.6 40.6 12.4 C 40.6 12.2 40.6 12.1 40.6 11.9 C 40.62 11.86 40.6 11 40.6 11 L 41.6 11 Z M 44.2 7.8 C 44.2 7.8 44.91 7.82 44.9 7.8 C 45.3 7.8 45.5 7.8 45.8 7.6 C 46 7.5 46.2 7.4 46.3 7.2 C 46.4 7 46.4 6.7 46.4 6.5 C 46.4 6.2 46.4 5.9 46.3 5.7 C 46.2 5.5 46 5.4 45.8 5.3 C 45.6 5.2 45.4 5.1 45.1 5.1 C 44.8 5.1 44.6 5.2 44.3 5.3 C 44.1 5.4 44 5.5 43.8 5.7 C 43.7 5.9 43.7 6.2 43.7 6.4 C 43.7 6.4 42.7 6.4 42.7 6.4 C 42.7 6.1 42.8 5.7 43 5.4 C 43.2 5 43.5 4.8 43.8 4.6 C 44.2 4.4 44.6 4.3 45.1 4.3 C 45.6 4.3 46 4.4 46.3 4.5 C 46.7 4.7 47 5 47.2 5.3 C 47.3 5.6 47.4 6 47.4 6.5 C 47.4 6.7 47.4 6.9 47.3 7.1 C 47.2 7.4 47.1 7.6 46.9 7.8 C 46.7 8 46.4 8.1 46.1 8.2 C 45.8 8.4 45.5 8.4 45 8.4 C 45.05 8.43 44.2 8.4 44.2 8.4 L 44.2 7.8 Z M 44.2 8.6 L 44.2 8 C 44.2 8 45.05 8.04 45 8 C 45.5 8 46 8.1 46.3 8.2 C 46.6 8.3 46.9 8.5 47.1 8.7 C 47.2 8.9 47.4 9.1 47.5 9.3 C 47.5 9.6 47.6 9.8 47.6 10 C 47.6 10.4 47.5 10.7 47.4 11 C 47.3 11.3 47.1 11.5 46.9 11.7 C 46.6 11.9 46.4 12.1 46.1 12.2 C 45.8 12.3 45.4 12.3 45.1 12.3 C 44.8 12.3 44.4 12.3 44.1 12.2 C 43.8 12.1 43.6 11.9 43.3 11.8 C 43.1 11.6 42.9 11.4 42.8 11.1 C 42.7 10.8 42.6 10.5 42.6 10.2 C 42.6 10.2 43.6 10.2 43.6 10.2 C 43.6 10.4 43.7 10.7 43.8 10.9 C 43.9 11.1 44.1 11.2 44.3 11.3 C 44.5 11.5 44.8 11.5 45.1 11.5 C 45.4 11.5 45.7 11.5 45.9 11.4 C 46.1 11.3 46.3 11.1 46.4 10.9 C 46.5 10.7 46.6 10.4 46.6 10.1 C 46.6 9.7 46.5 9.5 46.4 9.3 C 46.2 9.1 46 8.9 45.8 8.8 C 45.5 8.7 45.2 8.6 44.9 8.6 C 44.91 8.64 44.2 8.6 44.2 8.6 Z M 50.2 8.5 C 50.19 8.5 49.4 8.3 49.4 8.3 L 49.8 4.4 L 53.8 4.4 L 53.8 5.3 L 50.6 5.3 C 50.6 5.3 50.39 7.45 50.4 7.4 C 50.5 7.4 50.7 7.3 50.9 7.2 C 51.2 7.1 51.4 7.1 51.7 7.1 C 52.1 7.1 52.4 7.2 52.7 7.3 C 53 7.4 53.2 7.6 53.4 7.8 C 53.6 8.1 53.8 8.3 53.9 8.7 C 54 9 54 9.3 54 9.7 C 54 10.1 54 10.5 53.9 10.8 C 53.8 11.1 53.6 11.4 53.4 11.6 C 53.2 11.8 53 12 52.6 12.1 C 52.3 12.3 52 12.3 51.6 12.3 C 51.2 12.3 50.9 12.3 50.7 12.2 C 50.4 12.1 50.1 12 49.9 11.8 C 49.7 11.6 49.5 11.4 49.4 11.1 C 49.2 10.8 49.1 10.5 49.1 10.2 C 49.1 10.2 50.1 10.2 50.1 10.2 C 50.1 10.5 50.2 10.7 50.3 10.9 C 50.4 11.1 50.6 11.3 50.8 11.4 C 51 11.5 51.3 11.5 51.6 11.5 C 51.8 11.5 52 11.5 52.2 11.4 C 52.4 11.3 52.5 11.2 52.6 11 C 52.8 10.9 52.9 10.7 52.9 10.5 C 53 10.3 53 10 53 9.7 C 53 9.5 53 9.3 52.9 9.1 C 52.9 8.8 52.8 8.7 52.6 8.5 C 52.5 8.3 52.3 8.2 52.1 8.1 C 51.9 8 51.7 8 51.5 8 C 51.1 8 50.9 8 50.7 8.1 C 50.5 8.2 50.4 8.3 50.2 8.5 Z " stroke="none" fill="#000"/>  </g></svg>