<?xml version="1.0" standalone="no"?><!DOCTYPE svg PUBLIC "-//W3C//DTD SVG 1.1//EN" "http://www.w3.org/Graphics/SVG/1.1/DTD/svg11.dtd"><svg xmlns="http://www.w3.org/2000/svg" version="1.1" width="213.2px" height="169.7px" viewBox="0 -12 213.2 169.7" style="top:-12px">  <desc>Sunumda Zarafet</desc>  <defs/>  <g id="Polygon56464">    <path d="M 1.8 79.3 L 1.8 73.2 L 17 56.1 L 2.3 56.1 L 2.3 49 L 28.5 49 L 28.5 55.1 L 13.3 72.2 L 28.5 72.2 L 28.5 79.3 L 1.8 79.3 Z M 46 76.8 C 44.1 78.8 41.8 79.8 39.1 79.8 C 36.8 79.8 34.9 79.2 33.5 77.9 C 32 76.6 31.3 74.9 31.3 72.6 C 31.3 72.6 31.3 72.5 31.3 72.5 C 31.3 70.1 32.1 68.3 33.7 67 C 35.4 65.8 37.6 65.2 40.5 65.2 C 42.6 65.2 44.5 65.5 46.1 66.1 C 46.1 66.1 46.1 65.7 46.1 65.7 C 46.1 63.1 44.5 61.8 41.4 61.8 C 39.3 61.8 37.1 62.3 34.9 63.1 C 34.9 63.1 33.2 57.4 33.2 57.4 C 36.2 56.2 39.3 55.6 42.7 55.6 C 46.7 55.6 49.7 56.5 51.6 58.4 C 53.3 60.1 54.1 62.5 54.1 65.9 C 54.12 65.86 54.1 79.3 54.1 79.3 L 46 79.3 L 46 76.8 C 46 76.8 46.03 76.85 46 76.8 Z M 42.1 74.7 C 43.3 74.7 44.3 74.3 45 73.6 C 45.8 73 46.2 72 46.2 70.8 C 46.2 70.8 46.2 69.8 46.2 69.8 C 45.2 69.4 44.1 69.1 42.9 69.1 C 41.7 69.1 40.8 69.4 40.1 69.9 C 39.5 70.4 39.2 71.2 39.2 72 C 39.2 72 39.2 72.1 39.2 72.1 C 39.2 72.9 39.4 73.5 40 74 C 40.5 74.5 41.2 74.7 42.1 74.7 Z M 58.3 79.3 L 58.3 55.9 L 66.5 55.9 C 66.5 55.9 66.54 60.63 66.5 60.6 C 68 57.1 70.5 55.4 73.9 55.5 C 73.94 55.52 73.9 64.2 73.9 64.2 C 73.9 64.2 73.24 64.17 73.2 64.2 C 68.8 64.2 66.5 66.8 66.5 72 C 66.54 72 66.5 79.3 66.5 79.3 L 58.3 79.3 Z M 90.5 76.8 C 88.6 78.8 86.3 79.8 83.5 79.8 C 81.2 79.8 79.4 79.2 77.9 77.9 C 76.4 76.6 75.7 74.9 75.7 72.6 C 75.7 72.6 75.7 72.5 75.7 72.5 C 75.7 70.1 76.5 68.3 78.2 67 C 79.8 65.8 82.1 65.2 84.9 65.2 C 87.1 65.2 88.9 65.5 90.5 66.1 C 90.5 66.1 90.5 65.7 90.5 65.7 C 90.5 63.1 88.9 61.8 85.8 61.8 C 83.7 61.8 81.6 62.3 79.3 63.1 C 79.3 63.1 77.7 57.4 77.7 57.4 C 80.6 56.2 83.8 55.6 87.1 55.6 C 91.2 55.6 94.1 56.5 96 58.4 C 97.7 60.1 98.6 62.5 98.6 65.9 C 98.55 65.86 98.6 79.3 98.6 79.3 L 90.5 79.3 L 90.5 76.8 C 90.5 76.8 90.46 76.85 90.5 76.8 Z M 86.5 74.7 C 87.7 74.7 88.7 74.3 89.4 73.6 C 90.2 73 90.6 72 90.6 70.8 C 90.6 70.8 90.6 69.8 90.6 69.8 C 89.6 69.4 88.5 69.1 87.3 69.1 C 86.1 69.1 85.2 69.4 84.6 69.9 C 83.9 70.4 83.6 71.2 83.6 72 C 83.6 72 83.6 72.1 83.6 72.1 C 83.6 72.9 83.9 73.5 84.4 74 C 84.9 74.5 85.6 74.7 86.5 74.7 Z M 104.2 79.3 L 104.2 62.5 L 101.5 62.5 L 101.5 56 L 104.2 56 C 104.2 56 104.22 55.52 104.2 55.5 C 104.2 52.8 104.9 50.8 106.2 49.5 C 107.6 48.1 109.6 47.4 112.4 47.4 C 114.5 47.4 116.3 47.6 117.7 48.1 C 117.7 48.1 117.7 53.9 117.7 53.9 C 116.6 53.6 115.6 53.4 114.6 53.4 C 113 53.4 112.3 54.1 112.3 55.6 C 112.27 55.61 112.3 56.2 112.3 56.2 L 117.7 56.2 L 117.7 62.5 L 112.4 62.5 L 112.4 79.3 L 104.2 79.3 Z M 142 75.1 C 139.5 78.3 136.2 79.9 131.9 79.9 C 128.2 79.9 125.2 78.8 122.8 76.5 C 120.5 74.3 119.3 71.3 119.3 67.7 C 119.3 67.7 119.3 67.6 119.3 67.6 C 119.3 64.2 120.4 61.3 122.6 58.9 C 124.9 56.6 127.7 55.4 131.1 55.4 C 135 55.4 137.9 56.6 139.9 59 C 141.9 61.5 142.9 64.5 142.9 68.2 C 142.9 68.9 142.9 69.5 142.9 69.9 C 142.9 69.9 127.2 69.9 127.2 69.9 C 127.8 72.5 129.5 73.7 132.3 73.7 C 134.1 73.7 135.9 72.9 137.4 71.4 C 137.45 71.35 142 75.1 142 75.1 C 142 75.1 141.99 75.12 142 75.1 Z M 127.1 65.7 C 127.1 65.7 135.2 65.7 135.2 65.7 C 135.1 64.4 134.7 63.4 133.9 62.6 C 133.2 61.8 132.3 61.4 131.1 61.4 C 130.1 61.4 129.2 61.8 128.5 62.6 C 127.8 63.3 127.3 64.4 127.1 65.7 Z M 161.5 78.4 C 159.8 79.3 157.9 79.8 155.7 79.8 C 153.2 79.8 151.2 79.2 149.9 78 C 148.6 76.7 147.9 74.8 147.9 72 C 147.91 72.05 147.9 62.5 147.9 62.5 L 145.1 62.5 L 145.1 55.9 L 147.9 55.9 L 147.9 50 L 156.1 50 L 156.1 55.9 L 161.5 55.9 L 161.5 62.5 L 156.1 62.5 C 156.1 62.5 156.09 70.45 156.1 70.4 C 156.1 72 156.8 72.8 158.3 72.8 C 159.3 72.8 160.4 72.5 161.5 72 C 161.46 72 161.5 78.4 161.5 78.4 C 161.5 78.4 161.46 78.41 161.5 78.4 Z " stroke="none" fill="#fff"/>  </g>  <g id="Polygon56463">    <path d="M 14.6 35.1 C 9 35.1 4.2 33.5 0.4 30.1 C 0.4 30.1 5.1 24.5 5.1 24.5 C 8.1 27 11.4 28.2 14.9 28.2 C 17.2 28.2 18.4 27.5 18.4 26.1 C 18.4 26.1 18.4 26 18.4 26 C 18.4 25.3 18 24.8 17.3 24.4 C 16.7 24 15.3 23.6 13.2 23.1 C 11.4 22.6 9.9 22.2 8.7 21.8 C 7.5 21.4 6.3 20.8 5.2 20.1 C 4 19.4 3.2 18.5 2.6 17.5 C 2.1 16.4 1.8 15.1 1.8 13.6 C 1.8 13.6 1.8 13.5 1.8 13.5 C 1.8 10.6 2.9 8.3 5 6.5 C 7.1 4.7 10 3.8 13.5 3.8 C 18.5 3.8 22.7 5.1 26 7.8 C 26 7.8 21.8 13.8 21.8 13.8 C 19.1 11.8 16.3 10.8 13.3 10.8 C 11.3 10.8 10.3 11.4 10.3 12.7 C 10.3 12.7 10.3 12.8 10.3 12.8 C 10.3 13.5 10.7 14.1 11.4 14.5 C 12.1 14.9 13.5 15.3 15.6 15.7 C 19.4 16.6 22.2 17.7 24 19.1 C 25.9 20.5 26.8 22.5 26.8 25.2 C 26.8 25.2 26.8 25.3 26.8 25.3 C 26.8 28.3 25.7 30.7 23.5 32.5 C 21.3 34.2 18.3 35.1 14.6 35.1 Z M 45.3 31.4 C 43.3 33.9 41 35.1 38.2 35.1 C 35.7 35.1 33.8 34.4 32.4 32.8 C 30.9 31.3 30.2 29.2 30.2 26.5 C 30.24 26.48 30.2 11.2 30.2 11.2 L 38.5 11.2 C 38.5 11.2 38.46 23.88 38.5 23.9 C 38.5 25.2 38.8 26.1 39.3 26.8 C 39.9 27.5 40.8 27.8 41.8 27.8 C 42.8 27.8 43.7 27.5 44.3 26.8 C 44.9 26.1 45.3 25.2 45.3 23.9 C 45.25 23.88 45.3 11.2 45.3 11.2 L 53.4 11.2 L 53.4 34.6 L 45.3 34.6 L 45.3 31.4 C 45.3 31.4 45.25 31.37 45.3 31.4 Z M 57.8 34.6 L 57.8 11.2 L 66.1 11.2 C 66.1 11.2 66.06 14.49 66.1 14.5 C 68 12 70.4 10.7 73.1 10.7 C 75.6 10.7 77.5 11.4 78.9 13 C 80.3 14.5 81 16.6 81 19.3 C 81.03 19.29 81 34.6 81 34.6 L 72.9 34.6 C 72.9 34.6 72.85 21.93 72.9 21.9 C 72.9 20.7 72.6 19.7 72 19 C 71.4 18.3 70.6 18 69.5 18 C 68.5 18 67.6 18.3 67 19 C 66.4 19.7 66.1 20.7 66.1 21.9 C 66.06 21.93 66.1 34.6 66.1 34.6 L 57.8 34.6 Z M 100.1 31.4 C 98.2 33.9 95.9 35.1 93.1 35.1 C 90.6 35.1 88.6 34.4 87.2 32.8 C 85.8 31.3 85.1 29.2 85.1 26.5 C 85.1 26.48 85.1 11.2 85.1 11.2 L 93.3 11.2 C 93.3 11.2 93.32 23.88 93.3 23.9 C 93.3 25.2 93.6 26.1 94.2 26.8 C 94.8 27.5 95.6 27.8 96.6 27.8 C 97.7 27.8 98.5 27.5 99.2 26.8 C 99.8 26.1 100.1 25.2 100.1 23.9 C 100.11 23.88 100.1 11.2 100.1 11.2 L 108.3 11.2 L 108.3 34.6 L 100.1 34.6 L 100.1 31.4 C 100.1 31.4 100.11 31.37 100.1 31.4 Z M 112.7 34.6 L 112.7 11.2 L 120.9 11.2 C 120.9 11.2 120.92 14.41 120.9 14.4 C 122.9 11.9 125.2 10.7 127.9 10.7 C 131.1 10.7 133.3 12 134.6 14.5 C 136.8 12 139.4 10.7 142.5 10.7 C 145 10.7 146.9 11.4 148.3 12.9 C 149.8 14.4 150.5 16.5 150.5 19.3 C 150.47 19.25 150.5 34.6 150.5 34.6 L 142.2 34.6 C 142.2 34.6 142.25 21.89 142.2 21.9 C 142.2 20.6 142 19.6 141.4 19 C 140.8 18.3 140 18 139 18 C 138 18 137.2 18.3 136.6 19 C 136 19.6 135.7 20.6 135.7 21.9 C 135.67 21.89 135.7 34.6 135.7 34.6 L 127.5 34.6 C 127.5 34.6 127.49 21.89 127.5 21.9 C 127.5 20.6 127.2 19.6 126.6 19 C 126.1 18.3 125.3 18 124.2 18 C 123.2 18 122.4 18.3 121.8 19 C 121.2 19.6 120.9 20.6 120.9 21.9 C 120.92 21.89 120.9 34.6 120.9 34.6 L 112.7 34.6 Z M 171.3 31.5 C 169.3 33.9 167 35.1 164.2 35.1 C 161.3 35.1 158.9 34 156.9 31.8 C 154.9 29.6 153.8 26.6 153.8 23 C 153.8 23 153.8 22.9 153.8 22.9 C 153.8 19.2 154.8 16.3 156.8 14 C 158.9 11.8 161.3 10.7 164.2 10.7 C 167 10.7 169.4 11.8 171.3 14.1 C 171.32 14.06 171.3 3 171.3 3 L 179.5 3 L 179.5 34.6 L 171.3 34.6 L 171.3 31.5 C 171.3 31.5 171.32 31.49 171.3 31.5 Z M 166.7 28.3 C 168 28.3 169.2 27.7 170.1 26.7 C 171 25.7 171.5 24.5 171.5 22.9 C 171.5 22.9 171.5 22.8 171.5 22.8 C 171.5 21.3 171 20 170.1 19 C 169.2 18 168 17.5 166.7 17.5 C 165.4 17.5 164.2 18 163.3 19 C 162.4 20 161.9 21.3 161.9 22.8 C 161.9 22.8 161.9 22.9 161.9 22.9 C 161.9 24.5 162.4 25.7 163.3 26.7 C 164.2 27.7 165.4 28.3 166.7 28.3 Z M 197.6 32.1 C 195.7 34.1 193.4 35.1 190.7 35.1 C 188.3 35.1 186.5 34.5 185 33.2 C 183.6 31.9 182.8 30.2 182.8 27.9 C 182.8 27.9 182.8 27.8 182.8 27.8 C 182.8 25.4 183.6 23.6 185.3 22.3 C 186.9 21.1 189.2 20.5 192 20.5 C 194.2 20.5 196.1 20.8 197.6 21.4 C 197.6 21.4 197.6 21 197.6 21 C 197.6 18.4 196.1 17.1 193 17.1 C 190.8 17.1 188.7 17.6 186.5 18.4 C 186.5 18.4 184.8 12.7 184.8 12.7 C 187.7 11.5 190.9 10.9 194.2 10.9 C 198.3 10.9 201.3 11.8 203.2 13.7 C 204.8 15.4 205.7 17.8 205.7 21.2 C 205.67 21.16 205.7 34.6 205.7 34.6 L 197.6 34.6 L 197.6 32.1 C 197.6 32.1 197.58 32.14 197.6 32.1 Z M 193.6 30 C 194.8 30 195.8 29.6 196.6 28.9 C 197.3 28.3 197.7 27.3 197.7 26.1 C 197.7 26.1 197.7 25 197.7 25 C 196.7 24.6 195.6 24.4 194.5 24.4 C 193.3 24.4 192.3 24.7 191.7 25.2 C 191 25.7 190.7 26.4 190.7 27.3 C 190.7 27.3 190.7 27.4 190.7 27.4 C 190.7 28.2 191 28.8 191.5 29.3 C 192 29.8 192.7 30 193.6 30 Z " stroke="none" fill="#fff"/>  </g></svg>