<?xml version="1.0" standalone="no"?><!DOCTYPE svg PUBLIC "-//W3C//DTD SVG 1.1//EN" "http://www.w3.org/Graphics/SVG/1.1/DTD/svg11.dtd"><svg xmlns="http://www.w3.org/2000/svg" version="1.1" width="69.5px" height="21px" viewBox="0 -1 69.5 21" style="top:-1px">  <desc>₺7.434,98</desc>  <defs/>  <g id="Polygon48646">    <path d="M 2.7 4.1 L 2.7 12.7 L 1.6 12.7 L 1.6 4.1 L 2.7 4.1 Z M 5 8.1 L 6.2 8.1 C 6.2 8.1 6.16 8.66 6.2 8.7 C 6.2 9.3 6.1 9.9 5.9 10.4 C 5.8 10.9 5.5 11.3 5.2 11.7 C 4.9 12 4.6 12.3 4.1 12.5 C 3.7 12.7 3.2 12.8 2.7 12.8 C 2.5 12.8 2.4 12.8 2.2 12.7 C 2 12.7 1.8 12.7 1.6 12.7 C 1.6 12.7 2.7 11.8 2.7 11.8 C 3.1 11.8 3.4 11.7 3.7 11.6 C 4 11.5 4.2 11.3 4.4 11 C 4.6 10.7 4.8 10.4 4.9 10 C 5 9.6 5 9.2 5 8.7 C 5.04 8.66 5 8.1 5 8.1 Z M 4.2 5 L 4.2 6 L 0.2 7.8 L 0.2 6.8 L 4.2 5 Z M 4.2 6.9 L 4.2 7.9 L 0.2 9.8 L 0.2 8.7 L 4.2 6.9 Z M 12.9 4.1 L 12.9 4.7 L 9.4 12.7 L 8.2 12.7 L 11.8 5 L 7.1 5 L 7.1 4.1 L 12.9 4.1 Z M 14.3 12.1 C 14.3 11.9 14.3 11.8 14.4 11.6 C 14.6 11.5 14.7 11.4 14.9 11.4 C 15.2 11.4 15.3 11.5 15.4 11.6 C 15.6 11.8 15.6 11.9 15.6 12.1 C 15.6 12.3 15.6 12.4 15.4 12.5 C 15.3 12.7 15.2 12.7 14.9 12.7 C 14.7 12.7 14.6 12.7 14.4 12.5 C 14.3 12.4 14.3 12.3 14.3 12.1 Z M 23.1 9.8 L 23.1 10.7 L 16.9 10.7 L 16.9 10 L 20.7 4.1 L 21.6 4.1 L 20.7 5.8 L 18.1 9.8 L 23.1 9.8 Z M 21.9 4.1 L 21.9 12.7 L 20.8 12.7 L 20.8 4.1 L 21.9 4.1 Z M 25.6 7.9 C 25.6 7.9 26.4 7.87 26.4 7.9 C 26.8 7.9 27.1 7.8 27.3 7.7 C 27.6 7.5 27.8 7.4 27.9 7.2 C 28 6.9 28.1 6.7 28.1 6.4 C 28.1 6.1 28 5.8 27.9 5.6 C 27.8 5.4 27.6 5.2 27.4 5.1 C 27.2 5 26.9 4.9 26.6 4.9 C 26.3 4.9 26 5 25.8 5.1 C 25.6 5.2 25.4 5.4 25.2 5.6 C 25.1 5.8 25 6.1 25 6.4 C 25 6.4 24 6.4 24 6.4 C 24 5.9 24.1 5.5 24.3 5.2 C 24.5 4.8 24.8 4.5 25.2 4.3 C 25.6 4.1 26.1 4 26.6 4 C 27.1 4 27.6 4.1 27.9 4.3 C 28.3 4.5 28.6 4.7 28.8 5.1 C 29.1 5.5 29.2 5.9 29.2 6.4 C 29.2 6.6 29.1 6.9 29 7.1 C 28.9 7.4 28.8 7.6 28.6 7.8 C 28.3 8 28.1 8.2 27.7 8.3 C 27.4 8.5 27 8.5 26.5 8.5 C 26.55 8.52 25.6 8.5 25.6 8.5 L 25.6 7.9 Z M 25.6 8.8 L 25.6 8.1 C 25.6 8.1 26.55 8.11 26.5 8.1 C 27.1 8.1 27.5 8.2 27.9 8.3 C 28.3 8.4 28.5 8.6 28.7 8.8 C 28.9 9 29.1 9.3 29.2 9.5 C 29.3 9.8 29.3 10 29.3 10.3 C 29.3 10.7 29.2 11 29.1 11.3 C 29 11.7 28.8 11.9 28.5 12.1 C 28.3 12.3 28 12.5 27.7 12.6 C 27.3 12.7 27 12.8 26.6 12.8 C 26.2 12.8 25.9 12.7 25.5 12.6 C 25.2 12.5 24.9 12.4 24.7 12.2 C 24.4 12 24.2 11.7 24.1 11.4 C 24 11.1 23.9 10.8 23.9 10.4 C 23.9 10.4 25 10.4 25 10.4 C 25 10.7 25 11 25.2 11.2 C 25.3 11.4 25.5 11.6 25.7 11.7 C 26 11.8 26.3 11.9 26.6 11.9 C 26.9 11.9 27.2 11.8 27.5 11.7 C 27.7 11.6 27.9 11.4 28 11.2 C 28.1 11 28.2 10.7 28.2 10.3 C 28.2 10 28.1 9.7 28 9.4 C 27.8 9.2 27.6 9 27.4 8.9 C 27.1 8.8 26.8 8.8 26.4 8.8 C 26.4 8.76 25.6 8.8 25.6 8.8 Z M 36.6 9.8 L 36.6 10.7 L 30.4 10.7 L 30.4 10 L 34.2 4.1 L 35.1 4.1 L 34.1 5.8 L 31.6 9.8 L 36.6 9.8 Z M 35.4 4.1 L 35.4 12.7 L 34.3 12.7 L 34.3 4.1 L 35.4 4.1 Z M 38.6 11.4 C 38.6 11.4 38.63 12.25 38.6 12.2 C 38.6 12.6 38.5 13 38.4 13.4 C 38.2 13.8 37.9 14.1 37.6 14.4 C 37.6 14.4 37 13.9 37 13.9 C 37.1 13.8 37.2 13.6 37.3 13.4 C 37.4 13.2 37.5 13.1 37.5 12.9 C 37.5 12.7 37.6 12.5 37.6 12.3 C 37.57 12.27 37.6 11.4 37.6 11.4 L 38.6 11.4 Z M 41 11.8 C 41 11.8 41.08 11.76 41.1 11.8 C 41.7 11.8 42.2 11.7 42.6 11.5 C 43 11.3 43.3 11.1 43.5 10.8 C 43.7 10.5 43.9 10.2 43.9 9.8 C 44 9.4 44.1 9 44.1 8.6 C 44.1 8.6 44.1 7.3 44.1 7.3 C 44.1 6.9 44 6.6 43.9 6.3 C 43.8 6 43.7 5.7 43.6 5.5 C 43.4 5.3 43.2 5.2 43 5.1 C 42.8 5 42.6 4.9 42.4 4.9 C 42.2 4.9 41.9 5 41.7 5.1 C 41.5 5.2 41.4 5.3 41.2 5.5 C 41.1 5.7 41 5.9 40.9 6.1 C 40.9 6.4 40.8 6.6 40.8 6.9 C 40.8 7.2 40.9 7.4 40.9 7.6 C 41 7.9 41.1 8.1 41.2 8.3 C 41.3 8.5 41.5 8.6 41.7 8.7 C 41.9 8.9 42.1 8.9 42.4 8.9 C 42.6 8.9 42.9 8.9 43.1 8.8 C 43.3 8.7 43.5 8.5 43.6 8.4 C 43.8 8.2 43.9 8 44 7.8 C 44.1 7.6 44.2 7.4 44.2 7.1 C 44.2 7.1 44.7 7.1 44.7 7.1 C 44.7 7.5 44.7 7.8 44.5 8.1 C 44.4 8.4 44.2 8.7 44 9 C 43.8 9.2 43.5 9.4 43.2 9.6 C 42.9 9.7 42.6 9.8 42.2 9.8 C 41.8 9.8 41.4 9.7 41.1 9.6 C 40.8 9.4 40.5 9.2 40.4 8.9 C 40.2 8.6 40 8.3 39.9 8 C 39.8 7.7 39.8 7.3 39.8 7 C 39.8 6.6 39.8 6.2 39.9 5.8 C 40.1 5.5 40.2 5.2 40.4 4.9 C 40.7 4.6 40.9 4.4 41.3 4.2 C 41.6 4.1 42 4 42.4 4 C 42.9 4 43.3 4.1 43.7 4.3 C 44 4.5 44.3 4.8 44.5 5.1 C 44.7 5.4 44.9 5.8 45 6.2 C 45.1 6.6 45.1 7 45.1 7.5 C 45.1 7.5 45.1 7.9 45.1 7.9 C 45.1 8.3 45.1 8.8 45 9.2 C 45 9.7 44.9 10.1 44.7 10.5 C 44.6 10.9 44.3 11.3 44 11.6 C 43.7 11.9 43.3 12.2 42.9 12.4 C 42.4 12.6 41.8 12.7 41.1 12.7 C 41.08 12.68 41 12.7 41 12.7 L 41 11.8 Z M 52 10.4 C 52 10.9 51.9 11.3 51.7 11.7 C 51.4 12 51.1 12.3 50.7 12.5 C 50.3 12.7 49.8 12.8 49.3 12.8 C 48.8 12.8 48.3 12.7 47.9 12.5 C 47.5 12.3 47.2 12 46.9 11.7 C 46.7 11.3 46.6 10.9 46.6 10.4 C 46.6 10 46.7 9.7 46.8 9.4 C 46.9 9.1 47.1 8.9 47.3 8.7 C 47.6 8.5 47.9 8.3 48.2 8.2 C 48.5 8.1 48.9 8 49.3 8 C 49.8 8 50.3 8.1 50.7 8.3 C 51.1 8.5 51.4 8.8 51.7 9.1 C 51.9 9.5 52 9.9 52 10.4 Z M 50.9 10.3 C 50.9 10 50.9 9.7 50.7 9.5 C 50.6 9.2 50.4 9.1 50.1 8.9 C 49.9 8.8 49.6 8.7 49.3 8.7 C 49 8.7 48.7 8.8 48.4 8.9 C 48.2 9.1 48 9.2 47.9 9.5 C 47.7 9.7 47.7 10 47.7 10.3 C 47.7 10.7 47.7 10.9 47.9 11.2 C 48 11.4 48.2 11.6 48.4 11.7 C 48.7 11.8 49 11.9 49.3 11.9 C 49.6 11.9 49.9 11.8 50.2 11.7 C 50.4 11.6 50.6 11.4 50.7 11.2 C 50.9 10.9 50.9 10.7 50.9 10.3 Z M 51.8 6.4 C 51.8 6.8 51.7 7.1 51.5 7.5 C 51.3 7.8 51 8.1 50.6 8.3 C 50.2 8.5 49.8 8.5 49.3 8.5 C 48.8 8.5 48.4 8.5 48 8.3 C 47.6 8.1 47.3 7.8 47.1 7.5 C 46.9 7.1 46.8 6.8 46.8 6.4 C 46.8 5.9 46.9 5.4 47.1 5.1 C 47.3 4.7 47.6 4.5 48 4.3 C 48.4 4.1 48.8 4 49.3 4 C 49.8 4 50.2 4.1 50.6 4.3 C 51 4.5 51.3 4.7 51.5 5.1 C 51.7 5.4 51.8 5.9 51.8 6.4 Z M 50.7 6.4 C 50.7 6.1 50.7 5.8 50.5 5.6 C 50.4 5.4 50.3 5.2 50 5.1 C 49.8 5 49.6 4.9 49.3 4.9 C 49 4.9 48.8 5 48.5 5.1 C 48.3 5.2 48.2 5.4 48 5.6 C 47.9 5.8 47.9 6.1 47.9 6.4 C 47.9 6.7 47.9 6.9 48 7.1 C 48.2 7.4 48.3 7.5 48.6 7.6 C 48.8 7.8 49 7.8 49.3 7.8 C 49.6 7.8 49.8 7.8 50 7.6 C 50.3 7.5 50.4 7.4 50.5 7.1 C 50.7 6.9 50.7 6.7 50.7 6.4 Z " stroke="none" fill="#000"/>  </g></svg>