<?xml version="1.0" standalone="no"?><!DOCTYPE svg PUBLIC "-//W3C//DTD SVG 1.1//EN" "http://www.w3.org/Graphics/SVG/1.1/DTD/svg11.dtd"><svg xmlns="http://www.w3.org/2000/svg" version="1.1" width="88px" height="17.4px" viewBox="0 -3 88 17.4" style="top:-3px">  <desc>r n Kodu: AR 71</desc>  <defs/>  <g id="Polygon358278">    <path d="M 3 0.3 L 3 -0.4 L 3.6 -0.4 L 3.6 0.3 L 3 0.3 Z M 1.7 0.3 L 1.7 -0.4 L 2.3 -0.4 L 2.3 0.3 L 1.7 0.3 Z M 2.7 5.7 C 2 5.7 1.5 5.5 1.2 5.1 C 0.8 4.7 0.6 4.2 0.6 3.5 C 0.62 3.55 0.6 0.7 0.6 0.7 L 1.2 0.7 C 1.2 0.7 1.17 3.51 1.2 3.5 C 1.2 4 1.3 4.4 1.6 4.7 C 1.8 5 2.2 5.2 2.7 5.2 C 3.1 5.2 3.5 5 3.8 4.8 C 4 4.5 4.1 4.1 4.1 3.5 C 4.14 3.55 4.1 0.7 4.1 0.7 L 4.7 0.7 C 4.7 0.7 4.7 3.51 4.7 3.5 C 4.7 4.2 4.5 4.7 4.1 5.1 C 3.8 5.5 3.3 5.7 2.7 5.7 Z M 5.9 5.6 L 5.9 2 L 6.5 2 C 6.5 2 6.45 2.93 6.5 2.9 C 6.6 2.6 6.8 2.4 7 2.2 C 7.3 2 7.6 1.9 7.9 1.9 C 7.93 1.92 7.9 2.5 7.9 2.5 C 7.9 2.5 7.89 2.5 7.9 2.5 C 7.5 2.5 7.1 2.6 6.9 2.9 C 6.6 3.2 6.5 3.6 6.5 4.2 C 6.45 4.16 6.5 5.6 6.5 5.6 L 5.9 5.6 Z M 10.6 1.4 L 10.6 0.8 L 11.2 0.8 L 11.2 1.4 L 10.6 1.4 Z M 9.3 1.4 L 9.3 0.8 L 10 0.8 L 10 1.4 L 9.3 1.4 Z M 11.3 5 C 11 5.4 10.6 5.7 10.1 5.7 C 9.7 5.7 9.3 5.5 9.1 5.3 C 8.8 5 8.7 4.7 8.7 4.2 C 8.69 4.23 8.7 2 8.7 2 L 9.2 2 C 9.2 2 9.23 4.09 9.2 4.1 C 9.2 4.4 9.3 4.7 9.5 4.9 C 9.7 5.1 9.9 5.2 10.2 5.2 C 10.5 5.2 10.8 5.1 11 4.9 C 11.2 4.7 11.3 4.4 11.3 4.1 C 11.32 4.05 11.3 2 11.3 2 L 11.9 2 L 11.9 5.6 L 11.3 5.6 L 11.3 5 C 11.3 5 11.32 4.97 11.3 5 Z M 13.1 5.6 L 13.1 2 L 13.6 2 C 13.6 2 13.6 2.61 13.6 2.6 C 13.9 2.1 14.3 1.9 14.8 1.9 C 15.3 1.9 15.6 2 15.9 2.3 C 16.1 2.6 16.2 2.9 16.2 3.4 C 16.23 3.35 16.2 5.6 16.2 5.6 L 15.7 5.6 C 15.7 5.6 15.69 3.49 15.7 3.5 C 15.7 3.1 15.6 2.9 15.4 2.7 C 15.2 2.5 15 2.4 14.7 2.4 C 14.4 2.4 14.1 2.5 13.9 2.7 C 13.7 2.9 13.6 3.2 13.6 3.5 C 13.6 3.53 13.6 5.6 13.6 5.6 L 13.1 5.6 Z M 19.6 5.6 L 19.6 0.7 L 20.1 0.7 L 20.1 3.6 L 22.9 0.7 L 23.7 0.7 L 21.5 2.8 L 23.7 5.6 L 23 5.6 L 21.2 3.2 L 20.1 4.3 L 20.1 5.6 L 19.6 5.6 Z M 25.9 5.7 C 25.4 5.7 25 5.5 24.6 5.1 C 24.3 4.8 24.1 4.3 24.1 3.8 C 24.1 3.8 24.1 3.8 24.1 3.8 C 24.1 3.3 24.3 2.8 24.6 2.5 C 25 2.1 25.4 1.9 26 1.9 C 26.5 1.9 26.9 2.1 27.3 2.5 C 27.7 2.8 27.8 3.3 27.8 3.8 C 27.8 3.8 27.8 3.8 27.8 3.8 C 27.8 4.3 27.7 4.8 27.3 5.1 C 26.9 5.5 26.5 5.7 25.9 5.7 Z M 26 5.2 C 26.3 5.2 26.7 5.1 26.9 4.8 C 27.2 4.5 27.3 4.2 27.3 3.8 C 27.3 3.8 27.3 3.8 27.3 3.8 C 27.3 3.4 27.2 3.1 26.9 2.8 C 26.6 2.5 26.3 2.4 25.9 2.4 C 25.6 2.4 25.2 2.5 25 2.8 C 24.8 3.1 24.6 3.4 24.6 3.8 C 24.6 3.8 24.6 3.8 24.6 3.8 C 24.6 4.2 24.8 4.5 25 4.8 C 25.3 5.1 25.6 5.2 26 5.2 Z M 31.7 4.9 C 31.4 5.4 30.9 5.7 30.3 5.7 C 29.9 5.7 29.5 5.5 29.1 5.2 C 28.8 4.8 28.6 4.4 28.6 3.8 C 28.6 3.8 28.6 3.8 28.6 3.8 C 28.6 3.2 28.8 2.8 29.1 2.4 C 29.5 2.1 29.9 1.9 30.3 1.9 C 30.9 1.9 31.4 2.2 31.7 2.7 C 31.72 2.67 31.7 0.5 31.7 0.5 L 32.3 0.5 L 32.3 5.6 L 31.7 5.6 L 31.7 4.9 C 31.7 4.9 31.72 4.87 31.7 4.9 Z M 30.4 5.2 C 30.8 5.2 31.1 5.1 31.4 4.8 C 31.6 4.5 31.7 4.2 31.7 3.8 C 31.7 3.8 31.7 3.8 31.7 3.8 C 31.7 3.4 31.6 3 31.4 2.8 C 31.1 2.5 30.8 2.4 30.4 2.4 C 30.1 2.4 29.8 2.5 29.5 2.8 C 29.3 3 29.2 3.4 29.2 3.8 C 29.2 3.8 29.2 3.8 29.2 3.8 C 29.2 4.2 29.3 4.6 29.5 4.8 C 29.8 5.1 30.1 5.2 30.4 5.2 Z M 36 5 C 35.7 5.4 35.3 5.7 34.8 5.7 C 34.4 5.7 34 5.5 33.8 5.3 C 33.5 5 33.4 4.7 33.4 4.2 C 33.41 4.23 33.4 2 33.4 2 L 33.9 2 C 33.9 2 33.95 4.09 33.9 4.1 C 33.9 4.4 34 4.7 34.2 4.9 C 34.4 5.1 34.6 5.2 35 5.2 C 35.3 5.2 35.5 5.1 35.7 4.9 C 35.9 4.7 36 4.4 36 4.1 C 36.04 4.05 36 2 36 2 L 36.6 2 L 36.6 5.6 L 36 5.6 L 36 5 C 36 5 36.04 4.97 36 5 Z M 37.7 2.7 L 37.7 2 L 38.4 2 L 38.4 2.7 L 37.7 2.7 Z M 37.7 5.6 L 37.7 4.9 L 38.4 4.9 L 38.4 5.6 L 37.7 5.6 Z M 41.2 5.6 L 43.3 0.7 L 44.3 0.7 L 46.4 5.6 L 45.3 5.6 L 44.8 4.5 L 42.8 4.5 L 42.3 5.6 L 41.2 5.6 Z M 43.2 3.5 L 44.5 3.5 L 43.8 2 L 43.2 3.5 Z M 47.2 5.6 L 47.2 0.7 C 47.2 0.7 49.41 0.7 49.4 0.7 C 50 0.7 50.5 0.9 50.8 1.2 C 51.1 1.5 51.3 1.9 51.3 2.3 C 51.3 2.3 51.3 2.3 51.3 2.3 C 51.3 3.1 50.9 3.6 50.2 3.8 C 50.21 3.85 51.4 5.6 51.4 5.6 L 50.1 5.6 L 49.1 4 L 48.3 4 L 48.3 5.6 L 47.2 5.6 Z M 48.3 3.1 C 48.3 3.1 49.34 3.08 49.3 3.1 C 49.6 3.1 49.8 3 50 2.9 C 50.1 2.8 50.2 2.6 50.2 2.4 C 50.2 2.4 50.2 2.4 50.2 2.4 C 50.2 2.1 50.1 2 49.9 1.9 C 49.8 1.7 49.6 1.7 49.3 1.7 C 49.32 1.67 48.3 1.7 48.3 1.7 L 48.3 3.1 Z M 54.3 5.6 L 56.5 1.6 L 54.2 1.6 L 54.2 0.7 L 57.7 0.7 L 57.7 1.5 L 55.6 5.6 L 54.3 5.6 Z M 59.4 5.6 L 59.4 1.8 L 58.5 2 L 58.3 1.1 L 59.7 0.7 L 60.5 0.7 L 60.5 5.6 L 59.4 5.6 Z " stroke="none" fill="#000"/>  </g></svg>