<?xml version="1.0" standalone="no"?><!DOCTYPE svg PUBLIC "-//W3C//DTD SVG 1.1//EN" "http://www.w3.org/Graphics/SVG/1.1/DTD/svg11.dtd"><svg xmlns="http://www.w3.org/2000/svg" version="1.1" width="113.1px" height="12.4px" viewBox="0 -1 113.1 12.4" style="top:-1px"><desc>FOPPAPEDRETTI</desc><defs/><g id="Polygon362499"><path d="m.7 7.5V2.6h3.5v.5h-3v1.7h2.7v.5H1.2v2.2h-.5zM10 5c0 .7-.3 1.3-.7 1.8c-.5.5-1.1.8-1.8.8c-.8 0-1.4-.3-1.8-.8C5.2 6.3 5 5.7 5 5c0-.7.2-1.3.7-1.8c.4-.5 1-.7 1.8-.7c.7 0 1.3.2 1.8.7c.4.5.7 1.1.7 1.8c-.04.01 0 0 0 0c0 0-.04.03 0 0zM5.5 5c0 .6.2 1.1.6 1.5c.4.4.8.6 1.4.6c.5 0 1-.2 1.3-.6c.4-.4.6-.9.6-1.5c0-.5-.2-1-.6-1.4C8.5 3.2 8 3 7.5 3c-.6 0-1.1.2-1.4.6c-.4.4-.6.8-.6 1.4c.04.01 0 0 0 0c0 0 .04.03 0 0zm5.6 2.5V2.6s1.86-.02 1.9 0c.5 0 1 .1 1.3.4c.3.3.5.7.5 1.1c0 .6-.2.9-.6 1.2c-.3.3-.8.4-1.3.4c-.03.05-1.2 0-1.2 0v1.8h-.6zm.6-2.3s1.19.04 1.2 0c.4 0 .7-.1 1-.3c.2-.2.3-.4.3-.7c0-.4-.1-.7-.3-.8c-.3-.2-.6-.3-1-.3h-1.2v2.1zm4.1 2.3V2.6s1.84-.02 1.8 0c.6 0 1 .1 1.4.4c.3.3.5.7.5 1.1c0 .6-.2.9-.6 1.2c-.3.3-.8.4-1.4.4c.05.05-1.1 0-1.1 0v1.8h-.6zm.6-2.3s1.17.04 1.2 0c.4 0 .7-.1.9-.3c.3-.2.4-.4.4-.7c0-.4-.1-.7-.3-.8c-.3-.2-.6-.3-1-.3h-1.2v2.1zm3.2 2.3l2.2-5h.5l2.3 5h-.6l-.6-1.3h-2.7l-.6 1.3h-.5zm1.3-1.8h2.3l-1.1-2.5l-1.2 2.5zm4.6 1.8V2.6s1.86-.02 1.9 0c.5 0 1 .1 1.3.4c.3.3.5.7.5 1.1c0 .6-.2.9-.6 1.2c-.3.3-.8.4-1.3.4c-.04.05-1.2 0-1.2 0v1.8h-.6zm.6-2.3s1.19.04 1.2 0c.4 0 .7-.1 1-.3c.2-.2.3-.4.3-.7c0-.4-.1-.7-.3-.8c-.3-.2-.6-.3-1-.3h-1.2v2.1zm4.1 2.3V2.6h3.5v.5h-2.9v1.7h2.6v.5h-2.6v1.7h3v.5h-3.6zm4.7 0V2.6s1.69-.02 1.7 0c.7 0 1.4.2 1.9.7c.4.4.7 1 .7 1.7c0 .7-.3 1.3-.7 1.8c-.5.4-1.2.7-1.9.7c-.01-.02-1.7 0-1.7 0zm1.7-4.4h-1.2v3.9s1.19-.03 1.2 0c.6 0 1.1-.2 1.5-.6c.3-.3.5-.8.5-1.4c0-.5-.2-1-.5-1.4c-.4-.3-.9-.5-1.5-.5zm3.8 4.4V2.6s2.07-.02 2.1 0c.6 0 1 .1 1.4.5c.2.2.3.5.3.9c0 .4-.1.8-.3 1c-.3.2-.6.4-1 .5c.01-.02 1.5 2 1.5 2h-.7l-1.4-1.9h-1.4v1.9h-.5zm.5-2.4s1.52-.02 1.5 0c.4 0 .7-.1.9-.3c.3-.2.4-.4.4-.7c0-.3-.1-.6-.3-.8c-.3-.1-.6-.2-1-.2h-1.5v2zm4.5 2.4V2.6h3.6v.5h-3v1.7h2.6v.5H46v1.7h3v.5h-3.6zm6 0V3.1h-1.7v-.5h3.9v.5h-1.7v4.4h-.5zm4.4 0V3.1h-1.6v-.5h3.9v.5h-1.7v4.4h-.6zm3.3 0V2.6h.6v4.9h-.6z" stroke="none" fill="#000"/></g></svg>