<?xml version="1.0" standalone="no"?><!DOCTYPE svg PUBLIC "-//W3C//DTD SVG 1.1//EN" "http://www.w3.org/Graphics/SVG/1.1/DTD/svg11.dtd"><svg xmlns="http://www.w3.org/2000/svg" version="1.1" width="16.2px" height="12.4px" viewBox="0 -1 16.2 12.4" style="top:-1px"><desc/><defs/><g id="Polygon378543"><path d="m7.4 7.6c-.7 0-1.3-.3-1.8-.8l.4-.4c.4.4.9.7 1.4.7c.3 0 .6-.1.8-.4c.2-.2.4-.4.4-.7c0-.3-.2-.6-.4-.8c-.2-.2-.5-.3-.9-.3c-.3 0-.7.1-1 .3L5.9 5l.2-2.4h2.8v.5H6.6s-.14 1.56-.1 1.6c.3-.2.6-.3.9-.3c.5 0 .9.2 1.2.4c.4.3.5.7.5 1.1v.1c0 .4-.1.8-.5 1.1c-.3.3-.7.5-1.2.5zm2.4-.1v-.4s1.77-1.62 1.8-1.6c.4-.4.6-.6.8-.9c.1-.2.2-.4.2-.7c0-.2-.1-.5-.3-.6c-.2-.2-.4-.3-.7-.3c-.3 0-.5.1-.7.2c-.2.1-.4.4-.6.6l-.4-.2c.2-.4.5-.7.7-.8c.3-.2.6-.3 1-.3c.5 0 .9.1 1.1.4c.3.3.5.6.5 1c0 .3-.1.7-.3.9c-.2.3-.5.6-1 1c.03.01-1.3 1.2-1.3 1.2h2.6v.5H9.8zm5.1 0V3.1l-.9.3l-.2-.4l1.2-.5h.5v5h-.6z" stroke="none" fill="#000"/></g></svg>