<?xml version="1.0" standalone="no"?><!DOCTYPE svg PUBLIC "-//W3C//DTD SVG 1.1//EN" "http://www.w3.org/Graphics/SVG/1.1/DTD/svg11.dtd"><svg xmlns="http://www.w3.org/2000/svg" version="1.1" width="216px" height="157.4px" viewBox="0 -4 216 157.4" style="top:-4px"><desc>Servi tu rafl mutfak arabas /masas . st al ma tablas geni letilebilir. kar labilir kesme tahtas vard r. 4 ...</desc><defs/><g id="Polygon377614"><path d="m.7 141.2v-4.9h.6L3 139l1.8-2.7h.6v4.9h-.6v-4L3 139.9l-1.8-2.7v4h-.5zm8.4-.5c-.4.4-.8.6-1.3.6c-.4 0-.7-.1-1-.3c-.3-.2-.4-.5-.4-.9c0-.3.1-.6.4-.8c.3-.2.7-.3 1.2-.3c.3 0 .7 0 1.1.1v-.1c0-.3-.1-.6-.3-.7c-.2-.2-.5-.3-.8-.3c-.4 0-.7.1-1.1.3l-.2-.5c.5-.2.9-.3 1.3-.3c.6 0 .9.2 1.2.4c.3.3.4.6.4 1.1c-.02-.01 0 2.2 0 2.2h-.5v-.5s-.04-.05 0 0zm-1.2.1c.3 0 .6 0 .8-.2c.3-.2.4-.4.4-.7v-.4c-.4-.1-.7-.1-1.1-.1c-.3 0-.6 0-.8.2c-.2.1-.2.3-.2.5c0 .2 0 .4.2.6c.2.1.4.1.7.1zm4 .5c-.5 0-1-.2-1.5-.6l.3-.3c.4.3.8.4 1.3.4c.2 0 .4 0 .5-.1c.1-.1.2-.3.2-.5c0-.1-.1-.3-.2-.4c-.2 0-.4-.1-.7-.2c-.1 0-.2-.1-.3-.1c0 0-.1-.1-.3-.1c-.1 0-.2-.1-.2-.1l-.2-.2c-.1-.1-.1-.1-.1-.2c-.1-.1-.1-.2-.1-.3c0-.4.1-.6.4-.8c.2-.2.5-.3.8-.3c.5 0 .9.2 1.3.4l-.2.4c-.4-.2-.7-.3-1.1-.3c-.2 0-.4 0-.5.1c-.1.1-.2.2-.2.4c0 .1 0 .1.1.2l.1.1l.2.2h.3c0 .1.1.1.3.1c.1.1.2.1.3.1c.1.1.2.1.3.2c.1 0 .2.1.3.2c0 0 .1.1.1.2c.1.1.1.2.1.4c0 .3-.1.6-.3.8c-.3.2-.6.3-1 .3zm4.7-.6c-.3.4-.7.6-1.3.6c-.4 0-.7-.1-1-.3c-.2-.2-.4-.5-.4-.9c0-.3.2-.6.5-.8c.2-.2.6-.3 1.1-.3c.4 0 .7 0 1.1.1v-.1c0-.3-.1-.6-.3-.7c-.2-.2-.4-.3-.8-.3c-.3 0-.7.1-1.1.3l-.1-.5c.4-.2.8-.3 1.3-.3c.5 0 .9.2 1.2.4c.2.3.3.6.3 1.1c.02-.01 0 2.2 0 2.2h-.5v-.5s0-.05 0 0zm-1.2.1c.3 0 .6 0 .9-.2c.2-.2.3-.4.3-.7v-.4c-.4-.1-.7-.1-1.1-.1c-.3 0-.5 0-.7.2c-.2.1-.3.3-.3.5c0 .2.1.4.3.6c.1.1.3.1.6.1zm2.8-2.5v-.7h.7v.7h-.7zm0 2.9v-.7h.7v.7h-.7zm5.6 0v-1.9l-2.1-3h.7l1.7 2.4l1.6-2.4h.7l-2.1 3v1.9h-.5zm4.7-4.2v-.6h.6v.6h-.6zm-1.3 0v-.6h.7v.6h-.7zm2 3.6c-.3.4-.7.7-1.2.7c-.5 0-.8-.2-1.1-.4c-.2-.3-.3-.6-.3-1.1c-.02.03 0-2.2 0-2.2h.5s.02 2.09 0 2.1c0 .3.1.6.3.8c.2.2.4.3.7.3c.3 0 .6-.1.8-.3c.2-.2.3-.5.3-.8v-2.1h.5v3.6h-.5v-.6s0-.03 0 0zm1.7.6v-5.1h.6v3.5l1.9-2h.7l-1.5 1.5l1.6 2.1h-.7l-1.3-1.7l-.7.8v.9h-.6zm5.2.1c-.6 0-1.1-.2-1.5-.6l.3-.3c.4.3.8.4 1.2.4c.2 0 .4 0 .5-.1c.2-.1.3-.3.3-.5c0-.1-.1-.3-.3-.4c-.1 0-.4-.1-.6-.2c-.2 0-.3-.1-.3-.1c-.1 0-.2-.1-.3-.1c-.1 0-.2-.1-.3-.1c0-.1-.1-.1-.2-.2c0-.1-.1-.1-.1-.2v-.3c0-.4.1-.6.3-.8c.2-.2.5-.3.9-.3c.5 0 .9.2 1.3.4l-.3.4c-.3-.2-.7-.3-1-.3c-.2 0-.4 0-.5.1c-.2.1-.2.2-.2.4v.2c.1 0 .1.1.2.1c0 .1.1.1.2.2h.2c.1.1.2.1.3.1c.1.1.3.1.3.1c.1.1.2.1.4.2c.1 0 .2.1.2.2c.1 0 .1.1.2.2c0 .1.1.2.1.4c0 .3-.2.6-.4.8c-.2.2-.5.3-.9.3zm5.3-.7c-.4.5-.9.7-1.5.7c-.5 0-.9-.2-1.2-.5c-.4-.4-.6-.8-.6-1.4c0-.5.2-1 .5-1.4c.4-.3.8-.5 1.3-.5c.5 0 .9.2 1.2.5c.3.4.5.9.5 1.4v.2h-2.9c0 .4.2.7.4.9c.2.2.5.3.9.3c.4 0 .8-.2 1.1-.5l.3.3s.04 0 0 0zm-2.7-1.4h2.3c0-.4-.1-.7-.3-.9c-.2-.2-.5-.3-.8-.3c-.3 0-.6.1-.8.3c-.2.2-.4.5-.4.9zm3.8 2v-5.1h.5v3.5l2-2h.7l-1.5 1.5l1.5 2.1h-.6l-1.3-1.7l-.8.8v.9h-.5zm4 0v-5.1h.6v5.1h-.6zm1.8-4.4v-.6h.7v.6h-.7zm.1 4.4v-3.6h.5v3.6h-.5zm1.8 0v-5.1h.5v3.5l2-2h.6l-1.5 1.5l1.6 2.1h-.7l-1.3-1.7l-.7.8v.9h-.5zm9.5-1.3c0 .4-.2.7-.5 1c-.4.2-.8.4-1.3.4c-.6 0-1-.2-1.4-.4c-.3-.3-.5-.6-.5-1c0-.3.1-.6.3-.8c.2-.2.4-.3.7-.4c-.5-.3-.8-.7-.8-1.2c0-.3.2-.7.5-.9c.3-.2.7-.4 1.2-.4c.4 0 .8.2 1.1.4c.4.2.5.6.5.9c0 .5-.2.9-.8 1.2c.3.1.5.2.7.4c.2.2.3.5.3.8c0-.04 0 0 0 0c0 0 0-.02 0 0zm-3-2.3c0 .2.1.4.4.6c.2.2.4.3.8.3c.3 0 .5-.1.8-.3c.2-.2.3-.4.3-.6c0-.3-.1-.5-.3-.6c-.2-.2-.5-.3-.8-.3c-.4 0-.6.1-.8.3c-.3.1-.4.3-.4.6c.04-.04 0 0 0 0c0 0 .04-.03 0 0zm-.1 2.3c0 .2.1.4.3.6c.3.2.6.3 1 .3c.4 0 .7-.1.9-.3c.2-.2.3-.4.3-.6c0-.3-.1-.5-.3-.7c-.3-.2-.6-.3-.9-.3c-.4 0-.7.1-.9.3c-.3.2-.4.4-.4.7c-.02-.04 0 0 0 0c0 0-.02-.03 0 0zm5.6 1.4c-.7 0-1.2-.3-1.8-.8l.4-.4c.5.5.9.7 1.4.7c.3 0 .6-.1.8-.3c.3-.2.4-.5.4-.8c0-.3-.1-.6-.4-.8c-.2-.2-.5-.2-.8-.2c-.4 0-.7 0-1.1.2l-.3-.2l.1-2.4h2.8v.5h-2.3s-.12 1.58-.1 1.6c.3-.2.6-.2.9-.2c.5 0 .9.1 1.3.4c.3.2.4.6.4 1.1c0 .4-.1.8-.4 1.1c-.4.3-.8.5-1.3.5zm8-.7c-.5.5-.9.7-1.5.7c-.5 0-1-.2-1.3-.6c-.4-.3-.6-.8-.6-1.3c0-.5.2-1 .6-1.3c.3-.4.8-.6 1.3-.6c.5 0 1 .2 1.4.6l-.3.4c-.4-.3-.7-.5-1.1-.5c-.4 0-.7.1-.9.4c-.3.3-.4.6-.4 1c0 .4.1.7.4 1c.2.3.5.4.9.4c.4 0 .8-.2 1.1-.5c.02-.04.4.3.4.3c0 0-.04-.02 0 0zm.8.6v-3.6h.6v.6c.1-.2.3-.4.5-.5c.1-.1.4-.2.7-.2c.5 0 .9.2 1.1.7c.3-.5.8-.7 1.3-.7c.4 0 .7.1 1 .4c.2.3.3.6.3 1.1c.04-.04 0 2.2 0 2.2h-.5v-2.1c0-.4-.1-.6-.3-.8c-.1-.2-.3-.3-.6-.3c-.3 0-.6.1-.8.3c-.1.2-.2.5-.2.8c-.04.01 0 2.1 0 2.1h-.6s.03-2.13 0-2.1c0-.4-.1-.6-.2-.8c-.2-.2-.4-.3-.7-.3c-.3 0-.5.1-.7.3c-.2.2-.3.5-.3.8v2.1h-.6zm8.6-1.8v-.6h2.8v.6h-2.8zm6.1 1.8v-4.9h1.7c.7 0 1.4.2 1.8.7c.5.5.8 1 .8 1.7c0 .7-.3 1.3-.8 1.8c-.4.5-1.1.7-1.8.7h-1.7zm1.7-4.4h-1.2v3.9h1.2c.6 0 1.1-.2 1.4-.6c.4-.3.6-.8.6-1.3v-.1c0-.5-.2-1-.6-1.3c-.3-.4-.8-.6-1.4-.6zm6.7 3.8c-.4.5-.9.7-1.5.7c-.5 0-.9-.2-1.2-.5c-.4-.4-.6-.8-.6-1.4c0-.5.2-1 .5-1.4c.4-.3.8-.5 1.3-.5c.5 0 .9.2 1.2.5c.3.4.5.9.5 1.4c0 .1 0 .1-.1.2h-2.8c0 .4.2.7.4.9c.2.2.5.3.9.3c.4 0 .8-.2 1.1-.5l.3.3s.03 0 0 0zm-2.7-1.4h2.3c0-.4-.1-.7-.3-.9c-.2-.2-.5-.3-.8-.3c-.4 0-.6.1-.8.3c-.3.2-.4.5-.4.9zm3.8 2v-3.6h.5s.04.93 0 .9c.2-.3.4-.5.6-.7c.3-.2.6-.3.9-.3v.6s-.03 0 0 0c-.4 0-.8.1-1.1.4c-.2.3-.4.7-.4 1.3c.04-.04 0 1.4 0 1.4h-.5zm2.8-4.4v-.6h.7v.6h-.7zm.1 4.4v-3.6h.5v3.6h-.5zm1.8 0v-3.6h.5v.6c.3-.5.7-.7 1.3-.7c.4 0 .7.1 1 .4c.2.3.3.6.3 1.1c.04-.05 0 2.2 0 2.2h-.5v-2.1c0-.4-.1-.6-.3-.8c-.1-.2-.4-.3-.7-.3c-.3 0-.6.1-.8.3c-.2.2-.3.5-.3.8v2.1h-.5zm4.3 0v-5.1h.6v5.1h-.6zm1.8-4.4v-.6h.7v.6h-.7zm.1 4.4v-3.6h.5v3.6h-.5zm1.8 0v-5.1h.5v3.5l2-2h.6l-1.5 1.5l1.6 2.1h-.7l-1.3-1.7l-.7.8v.9h-.5zm7.6.1c-.7 0-1.3-.3-1.8-.8l.4-.4c.4.5.9.7 1.4.7c.3 0 .6-.1.8-.3c.2-.2.4-.5.4-.8c0-.3-.2-.6-.4-.8c-.2-.2-.5-.2-.9-.2c-.3 0-.7 0-1 .2c.01.03-.4-.2-.4-.2l.2-2.4h2.8v.5h-2.3s-.14 1.58-.1 1.6c.3-.2.6-.2.9-.2c.5 0 .9.1 1.2.4c.4.2.5.6.5 1.1c0 .4-.1.8-.5 1.1c-.3.3-.7.5-1.2.5zm6.7-2.6c0 .8-.2 1.4-.6 1.8c-.4.5-.9.8-1.5.8c-.6 0-1.1-.3-1.5-.7c-.3-.5-.5-1.1-.5-1.8v-.1c0-.7.2-1.3.5-1.7c.4-.5.9-.8 1.5-.8c.7 0 1.2.3 1.5.7c.4.5.6 1.1.6 1.8c0 .04 0 0 0 0c0 0 0 .05 0 0zm-3.6 0c0 .6.2 1.1.5 1.5c.2.4.6.6 1 .6c.5 0 .9-.2 1.1-.6c.3-.4.4-.9.4-1.4v-.1c0-.5-.1-1-.4-1.4c-.3-.4-.6-.6-1.1-.6c-.4 0-.8.2-1 .6c-.3.4-.5.9-.5 1.4c.04.04 0 0 0 0c0 0 .04.05 0 0zm9.8 1.9c-.4.5-.9.7-1.4.7c-.6 0-1-.2-1.4-.6c-.3-.3-.5-.8-.5-1.3c0-.5.2-1 .5-1.3c.4-.4.8-.6 1.4-.6c.5 0 1 .2 1.4.6l-.3.4c-.4-.3-.7-.5-1.1-.5c-.4 0-.7.1-1 .4c-.2.3-.3.6-.3 1c0 .4.1.7.4 1c.2.3.5.4.9.4c.4 0 .8-.2 1.1-.5c0-.04.3.3.3.3c0 0 .05-.02 0 0zm.9.6v-3.6h.6s-.02.59 0 .6c.1-.2.3-.4.5-.5c.1-.1.4-.2.6-.2c.6 0 1 .2 1.2.7c.3-.5.8-.7 1.3-.7c.4 0 .7.1 1 .4c.2.3.3.6.3 1.1c.02-.04 0 2.2 0 2.2h-.5v-2.1c0-.4-.1-.6-.3-.8c-.1-.2-.4-.3-.7-.3c-.2 0-.5.1-.7.3c-.2.2-.3.5-.3.8c.05.01 0 2.1 0 2.1h-.5v-2.1c0-.4-.1-.6-.2-.8c-.2-.2-.4-.3-.7-.3c-.3 0-.5.1-.7.3c-.2.2-.3.5-.3.8c-.02.03 0 2.1 0 2.1h-.6zm8.6-1.8v-.6h2.8v.6h-2.8zm10.3 1.1c-.5.5-1.2.8-2 .8c-.7 0-1.3-.3-1.8-.7c-.4-.5-.7-1.1-.7-1.8v-.1c0-.6.3-1.2.7-1.7c.5-.5 1.1-.8 1.8-.8c.4 0 .7.1 1 .2c.3.1.6.2.8.5l-.3.4c-.5-.4-.9-.6-1.5-.6c-.6 0-1 .2-1.4.6c-.3.4-.5.9-.5 1.4c0 .6.2 1.1.5 1.5c.4.4.9.6 1.5.6c.5 0 1-.2 1.4-.5c-.03 0 0-1.2 0-1.2h-1.5v-.5h2v1.9s0 .03 0 0zm4.2.1c-.4.5-.9.7-1.5.7c-.5 0-.9-.2-1.2-.5c-.4-.4-.6-.8-.6-1.4c0-.5.2-1 .5-1.4c.4-.3.8-.5 1.3-.5c.5 0 .9.2 1.2.5c.3.4.5.9.5 1.4c0 .1 0 .1-.1.2h-2.8c0 .4.2.7.4.9c.2.2.5.3.9.3c.4 0 .8-.2 1.1-.5l.3.3s.03 0 0 0zm-2.7-1.4h2.3c0-.4-.1-.7-.3-.9c-.2-.2-.5-.3-.8-.3c-.4 0-.6.1-.8.3c-.3.2-.4.5-.4.9zm3.8 2v-3.6h.5s.04.61 0 .6c.3-.5.7-.7 1.3-.7c.4 0 .7.1 1 .4c.2.3.4.6.4 1.1c-.04-.05 0 2.2 0 2.2h-.6s.03-2.11 0-2.1c0-.4-.1-.6-.2-.8c-.2-.2-.5-.3-.8-.3c-.3 0-.5.1-.8.3c-.2.2-.3.5-.3.8c.04.03 0 2.1 0 2.1h-.5zm4.3-4.4v-.6h.6v.6h-.6zm.1 4.4v-3.6h.5v3.6h-.5zm2.6 1.1l-.5-.3s.54-.75.5-.8c-.4 0-.8-.2-1.1-.5l.2-.3c.4.3.8.4 1.3.4c.2 0 .4 0 .5-.1c.2-.1.2-.3.2-.5c0-.1 0-.3-.2-.4c-.2 0-.4-.1-.7-.2c-.1 0-.2-.1-.3-.1c0 0-.1-.1-.2-.1c-.1 0-.2-.1-.3-.1c0-.1-.1-.1-.2-.2c0-.1-.1-.1-.1-.2c-.1-.1-.1-.2-.1-.3c0-.4.1-.6.4-.8c.2-.2.5-.3.9-.3c.4 0 .9.2 1.3.4l-.3.4c-.3-.2-.7-.3-1.1-.3c-.2 0-.3 0-.5.1c-.1.1-.2.2-.2.4c0 .1.1.1.1.2l.1.1l.2.2h.3c.1.1.1.1.3.1c.1.1.2.1.3.1c.1.1.2.1.3.2c.1 0 .2.1.3.2c.1 0 .1.1.2.2v.4c0 .3-.1.5-.3.7c-.2.2-.5.3-.8.4c-.01-.04-.5 1-.5 1zm2.7-1.1v-5.1h.5v5.1h-.5zm1.8-4.4v-.6h.6v.6h-.6zm0 4.4v-3.6h.6v3.6h-.6zm1.8 0v-5.1h.6v3.5l1.9-2h.7l-1.5 1.5l1.5 2.1h-.6l-1.3-1.7l-.7.8v.9h-.6zm9.5-1.3c0 .4-.1.7-.5 1c-.3.2-.8.4-1.3.4c-.5 0-1-.2-1.3-.4c-.4-.3-.5-.6-.5-1c0-.3.1-.6.2-.8c.2-.2.5-.3.8-.4c-.6-.3-.9-.7-.9-1.2c0-.3.2-.7.5-.9c.4-.2.7-.4 1.2-.4c.5 0 .9.2 1.2.4c.3.2.5.6.5.9c0 .5-.3.9-.9 1.2c.3.1.6.2.8.4c.2.2.2.5.2.8c.05-.04 0 0 0 0c0 0 .05-.02 0 0zm-2.9-2.3c0 .2.1.4.3.6c.2.2.5.3.8.3c.3 0 .6-.1.8-.3c.2-.2.3-.4.3-.6c0-.3-.1-.5-.3-.6c-.2-.2-.5-.3-.8-.3c-.3 0-.6.1-.8.3c-.2.1-.3.3-.3.6c-.01-.04 0 0 0 0c0 0-.01-.03 0 0zm-.2 2.3c0 .2.1.4.4.6c.2.2.5.3.9.3c.4 0 .7-.1.9-.3c.3-.2.4-.4.4-.6c0-.3-.1-.5-.4-.7c-.2-.2-.5-.3-.9-.3c-.4 0-.7.1-.9.3c-.3.2-.4.4-.4.7c.03-.04 0 0 0 0c0 0 .03-.03 0 0zm8.1-1.2c0 .8-.2 1.4-.6 1.8c-.4.5-.9.8-1.5.8c-.6 0-1.1-.3-1.5-.7c-.4-.5-.6-1.1-.6-1.8v-.1c0-.7.2-1.3.6-1.7c.4-.5.9-.8 1.5-.8c.6 0 1.1.3 1.5.7c.4.5.6 1.1.6 1.8c-.02.04 0 0 0 0c0 0-.02.05 0 0zm-3.6 0c0 .6.2 1.1.4 1.5c.3.4.7.6 1.1.6c.5 0 .8-.2 1.1-.6c.3-.4.4-.9.4-1.4v-.1c0-.5-.1-1-.4-1.4c-.3-.4-.6-.6-1.1-.6c-.4 0-.8.2-1.1.6c-.2.4-.4.9-.4 1.4c.02.04 0 0 0 0c0 0 .02.05 0 0zm9.8 1.9c-.4.5-.9.7-1.5.7c-.5 0-.9-.2-1.3-.6c-.3-.3-.5-.8-.5-1.3c0-.5.2-1 .5-1.3c.4-.4.8-.6 1.3-.6c.6 0 1.1.2 1.5.6l-.4.4c-.3-.3-.7-.5-1.1-.5c-.3 0-.6.1-.9.4c-.2.3-.4.6-.4 1c0 .4.2.7.4 1c.3.3.6.4 1 .4c.4 0 .7-.2 1.1-.5c-.02-.04.3.3.3.3c0 0 .03-.02 0 0zm.9.6v-3.6h.6s-.05.59 0 .6c.1-.2.3-.4.4-.5c.2-.1.4-.2.7-.2c.6 0 1 .2 1.2.7c.3-.5.7-.7 1.3-.7c.4 0 .7.1.9.4c.3.3.4.6.4 1.1v2.2h-.5s-.04-2.11 0-2.1c0-.4-.1-.6-.3-.8c-.1-.2-.4-.3-.7-.3c-.3 0-.5.1-.7.3c-.2.2-.3.5-.3.8c.03.01 0 2.1 0 2.1h-.5v-2.1c0-.4-.1-.6-.3-.8c-.1-.2-.3-.3-.6-.3c-.3 0-.6.1-.8.3c-.1.2-.2.5-.2.8c-.05.03 0 2.1 0 2.1h-.6z" stroke="none" fill="#000"/></g><g id="Polygon377613"><path d="m2 130.2v-4.4H.3v-.5h3.9v.5H2.5v4.4h-.5zm2.5 0v-3.6h.5s.03.93 0 .9c.2-.3.4-.5.6-.7c.3-.2.6-.3.9-.3v.6s-.04 0 0 0c-.5 0-.8.1-1.1.4c-.2.3-.4.7-.4 1.3c.03-.04 0 1.4 0 1.4h-.5zm4.3.1c-.5 0-1-.2-1.3-.6c-.4-.3-.6-.8-.6-1.3c0-.5.2-1 .6-1.3c.3-.4.8-.6 1.3-.6c.6 0 1 .2 1.4.6c.3.3.5.8.5 1.3c0 .5-.2 1-.5 1.3c-.4.4-.8.6-1.4.6zm0-.5c.4 0 .7-.1 1-.4c.2-.3.4-.6.4-1c0-.4-.2-.7-.4-1c-.3-.3-.6-.4-1-.4c-.4 0-.7.1-.9.4c-.3.3-.4.6-.4 1c0 .4.1.7.4 1c.2.3.6.4.9.4zm2.9.4v-5.1h.6v5.1h-.6zm1.9 0v-5.1h.5v5.1h-.5zm4.8-.6c-.4.5-.8.7-1.4.7c-.6 0-1-.2-1.3-.5c-.4-.4-.6-.8-.6-1.4c0-.5.2-1 .5-1.4c.4-.3.8-.5 1.3-.5c.5 0 .9.2 1.2.5c.3.4.5.9.5 1.4v.2h-2.9c0 .4.2.7.4.9c.3.2.5.3.9.3c.4 0 .8-.2 1.1-.5l.3.3s.04 0 0 0zm-2.7-1.4h2.3c0-.4-.1-.7-.3-.9c-.2-.2-.5-.3-.8-.3c-.3 0-.6.1-.8.3c-.2.2-.4.5-.4.9zm5.2 1.4l1.1-3h.6l-1.5 3.7c-.1.4-.3.6-.5.8c-.2.2-.4.2-.7.2c-.3 0-.5 0-.8-.1l.2-.5c.2.1.4.2.6.2c.1 0 .3-.1.4-.2c.1-.1.2-.3.3-.5c.02-.01-1.6-3.6-1.6-3.6h.6l1.3 3zm2.5-2.3v-.7h.7v.7h-.7zm0 2.9v-.7h.7v.7h-.7zm5.6 0v-1.9l-2.1-3h.7l1.7 2.4l1.6-2.4h.7l-2.1 3v1.9h-.5zm4.7-4.2v-.6h.6v.6h-.6zm-1.3 0v-.6h.7v.6h-.7zm2 3.6c-.3.4-.7.7-1.2.7c-.5 0-.8-.2-1-.4c-.3-.3-.4-.6-.4-1.1c-.01.03 0-2.2 0-2.2h.5s.03 2.09 0 2.1c0 .3.1.6.3.8c.2.2.4.3.7.3c.3 0 .6-.1.8-.3c.2-.2.3-.5.3-.8v-2.1h.5v3.6h-.5v-.6s.01-.03 0 0zm1.8.6v-5.1h.5v3.5l1.9-2h.7l-1.5 1.5l1.6 2.1h-.7l-1.3-1.7l-.7.8v.9h-.5zm5.1.1c-.6 0-1.1-.2-1.5-.6l.3-.3c.4.3.8.4 1.2.4c.2 0 .4 0 .6-.1c.1-.1.2-.3.2-.5c0-.1-.1-.3-.3-.4c-.1 0-.3-.1-.6-.2c-.2 0-.3-.1-.3-.1c-.1 0-.2-.1-.3-.1c-.1 0-.2-.1-.3-.1c0-.1-.1-.1-.1-.2c-.1-.1-.2-.1-.2-.2v-.3c0-.4.1-.6.3-.8c.2-.2.5-.3.9-.3c.5 0 .9.2 1.3.4l-.2.4c-.4-.2-.8-.3-1.1-.3c-.2 0-.4 0-.5.1c-.2.1-.2.2-.2.4v.2c.1 0 .1.1.2.1c0 .1.1.1.2.2h.2c.1.1.2.1.3.1c.1.1.3.1.4.1c0 .1.1.1.3.2c.1 0 .2.1.2.2c.1 0 .2.1.2.2c.1.1.1.2.1.4c0 .3-.1.6-.4.8c-.2.2-.5.3-.9.3zm5.3-.7c-.3.5-.8.7-1.4.7c-.5 0-1-.2-1.3-.5c-.4-.4-.5-.8-.5-1.4c0-.5.1-1 .4-1.4c.4-.3.8-.5 1.3-.5c.5 0 .9.2 1.2.5c.3.4.5.9.5 1.4v.2h-2.9c0 .4.2.7.4.9c.3.2.5.3.9.3c.4 0 .8-.2 1.1-.5l.3.3s.05 0 0 0zm-2.7-1.4h2.3c0-.4-.1-.7-.3-.9c-.2-.2-.5-.3-.8-.3c-.3 0-.6.1-.8.3c-.2.2-.4.5-.4.9zm3.8 2v-5.1h.6v3.5l1.9-2h.7l-1.5 1.5l1.5 2.1h-.6l-1.3-1.7l-.7.8v.9h-.6zm4.1 0v-5.1h.5v5.1h-.5zm1.8-4.4v-.6h.6v.6h-.6zm0 4.4v-3.6h.5v3.6h-.5zm1.8 0v-5.1h.5v3.5l2-2h.6l-1.5 1.5l1.6 2.1h-.6l-1.3-1.7l-.8.8v.9h-.5zm9.5-1.3c0 .4-.2.7-.5 1c-.4.2-.8.4-1.3.4c-.6 0-1-.2-1.3-.4c-.4-.3-.6-.6-.6-1c0-.3.1-.6.3-.8c.2-.2.4-.3.7-.4c-.5-.3-.8-.7-.8-1.2c0-.3.2-.7.5-.9c.3-.2.7-.4 1.2-.4c.4 0 .8.2 1.1.4c.4.2.5.6.5.9c0 .5-.2.9-.8 1.2c.3.1.6.2.7.4c.2.2.3.5.3.8c.01-.04 0 0 0 0c0 0 .01-.02 0 0zm-3-2.3c0 .2.2.4.4.6c.2.2.5.3.8.3c.3 0 .6-.1.8-.3c.2-.2.3-.4.3-.6c0-.3-.1-.5-.3-.6c-.2-.2-.5-.3-.8-.3c-.4 0-.6.1-.8.3c-.2.1-.4.3-.4.6c.05-.04 0 0 0 0c0 0 .05-.03 0 0zm-.1 2.3c0 .2.1.4.3.6c.3.2.6.3 1 .3c.4 0 .7-.1.9-.3c.2-.2.3-.4.3-.6c0-.3-.1-.5-.3-.7c-.3-.2-.6-.3-.9-.3c-.4 0-.7.1-.9.3c-.3.2-.4.4-.4.7c-.01-.04 0 0 0 0c0 0-.01-.03 0 0zm4.4 1.3l2.2-4.4h-2.7v-.5h3.3v.4l-2.2 4.5h-.6zm9-.6c-.4.5-.9.7-1.5.7c-.5 0-1-.2-1.3-.6c-.4-.3-.5-.8-.5-1.3c0-.5.1-1 .5-1.3c.3-.4.8-.6 1.3-.6c.6 0 1.1.2 1.5.6l-.4.4c-.3-.3-.7-.5-1.1-.5c-.4 0-.7.1-.9.4c-.3.3-.4.6-.4 1c0 .4.1.7.4 1c.2.3.6.4.9.4c.4 0 .8-.2 1.1-.5c.04-.04.4.3.4.3c0 0-.01-.02 0 0zm.9.6v-3.6h.5v.6c.2-.2.3-.4.5-.5c.2-.1.4-.2.7-.2c.5 0 .9.2 1.1.7c.4-.5.8-.7 1.3-.7c.4 0 .8.1 1 .4c.2.3.4.6.4 1.1c-.04-.04 0 2.2 0 2.2h-.6s.02-2.11 0-2.1c0-.4-.1-.6-.2-.8c-.2-.2-.4-.3-.7-.3c-.3 0-.5.1-.7.3c-.2.2-.3.5-.3.8c-.02.01 0 2.1 0 2.1h-.5s-.05-2.13 0-2.1c0-.4-.1-.6-.3-.8c-.2-.2-.4-.3-.7-.3c-.3 0-.5.1-.7.3c-.2.2-.3.5-.3.8v2.1h-.5zm8.6-1.8v-.6h2.7v.6h-2.7zm6 1.8v-4.9h1.7c.8 0 1.4.2 1.9.7c.5.5.7 1 .7 1.7c0 .7-.2 1.3-.7 1.8c-.5.5-1.1.7-1.9.7h-1.7zm1.7-4.4c0 .01-1.1 0-1.1 0v3.9s1.1-.01 1.1 0c.6 0 1.1-.2 1.5-.6c.3-.3.5-.8.5-1.3v-.1c0-.5-.2-1-.5-1.3c-.4-.4-.9-.6-1.5-.6zm6.8 3.8c-.4.5-.9.7-1.5.7c-.5 0-1-.2-1.3-.5c-.4-.4-.5-.8-.5-1.4c0-.5.1-1 .4-1.4c.4-.3.8-.5 1.3-.5c.5 0 .9.2 1.2.5c.3.4.5.9.5 1.4v.2h-2.9c0 .4.2.7.4.9c.3.2.5.3.9.3c.4 0 .8-.2 1.1-.5c.02 0 .4.3.4.3c0 0-.05 0 0 0zm-2.8-1.4h2.3c0-.4-.1-.7-.3-.9c-.2-.2-.5-.3-.8-.3c-.3 0-.6.1-.8.3c-.2.2-.4.5-.4.9zm3.8 2v-3.6h.6s-.04.93 0 .9c.1-.3.3-.5.6-.7c.2-.2.5-.3.8-.3c.04.02 0 .6 0 .6c-.4 0-.8.1-1 .4c-.3.3-.4.7-.4 1.3c-.04-.04 0 1.4 0 1.4h-.6zm2.9-4.4v-.6h.6v.6h-.6zm0 4.4v-3.6h.5v3.6h-.5zm1.8 0v-3.6h.5s.04.61 0 .6c.3-.5.7-.7 1.3-.7c.4 0 .7.1 1 .4c.2.3.4.6.4 1.1c-.04-.05 0 2.2 0 2.2h-.6s.03-2.11 0-2.1c0-.4-.1-.6-.2-.8c-.2-.2-.5-.3-.8-.3c-.3 0-.5.1-.8.3c-.2.2-.3.5-.3.8c.04.03 0 2.1 0 2.1h-.5zm4.4 0v-5.1h.5v5.1h-.5zm1.8-4.4v-.6h.6v.6h-.6zm0 4.4v-3.6h.5v3.6h-.5zm1.8 0v-5.1h.5v3.5l2-2h.7l-1.6 1.5l1.6 2.1h-.6l-1.3-1.7l-.8.8v.9h-.5zm7.6.1c-.7 0-1.2-.3-1.8-.8l.4-.4c.5.5.9.7 1.4.7c.3 0 .6-.1.9-.3c.2-.2.3-.5.3-.8c0-.3-.1-.6-.4-.8c-.2-.2-.5-.2-.8-.2c-.4 0-.7 0-1.1.2l-.3-.2l.1-2.4h2.8v.5h-2.3s-.11 1.58-.1 1.6c.3-.2.6-.2 1-.2c.4 0 .8.1 1.2.4c.3.2.4.6.4 1.1c0 .4-.1.8-.4 1.1c-.4.3-.8.5-1.3.5zm6.7-2.6c0 .8-.2 1.4-.5 1.8c-.4.5-.9.8-1.5.8c-.7 0-1.2-.3-1.5-.7c-.4-.5-.6-1.1-.6-1.8v-.1c0-.7.2-1.3.6-1.7c.4-.5.9-.8 1.5-.8c.6 0 1.1.3 1.5.7c.3.5.5 1.1.5 1.8c.03.04 0 0 0 0c0 0 .03.05 0 0zm-3.5 0c0 .6.1 1.1.4 1.5c.3.4.6.6 1.1.6c.4 0 .8-.2 1-.6c.3-.4.5-.9.5-1.4v-.1c0-.5-.2-1-.5-1.4c-.2-.4-.6-.6-1-.6c-.5 0-.8.2-1.1.6c-.3.4-.4.9-.4 1.4c-.03.04 0 0 0 0c0 0-.03.05 0 0zm9.8 1.9c-.4.5-.9.7-1.5.7c-.5 0-1-.2-1.3-.6c-.4-.3-.6-.8-.6-1.3c0-.5.2-1 .6-1.3c.3-.4.8-.6 1.3-.6c.6 0 1 .2 1.4.6l-.3.4c-.4-.3-.7-.5-1.1-.5c-.4 0-.7.1-.9.4c-.3.3-.4.6-.4 1c0 .4.1.7.4 1c.2.3.5.4.9.4c.4 0 .8-.2 1.1-.5c.03-.04.4.3.4.3c0 0-.03-.02 0 0zm.9.6v-3.6h.5v.6c.1-.2.3-.4.5-.5c.2-.1.4-.2.7-.2c.5 0 .9.2 1.1.7c.4-.5.8-.7 1.3-.7c.4 0 .8.1 1 .4c.2.3.4.6.4 1.1c-.05-.04 0 2.2 0 2.2h-.6v-2.1c0-.4-.1-.6-.2-.8c-.2-.2-.4-.3-.7-.3c-.3 0-.5.1-.7.3c-.2.2-.3.5-.3.8c-.03.01 0 2.1 0 2.1h-.6s.04-2.13 0-2.1c0-.4 0-.6-.2-.8c-.2-.2-.4-.3-.7-.3c-.3 0-.5.1-.7.3c-.2.2-.3.5-.3.8v2.1h-.5zm8.6-1.8v-.6h2.7v.6H143zm10.2 1.1c-.5.5-1.2.8-1.9.8c-.8 0-1.4-.3-1.8-.7c-.5-.5-.7-1.1-.7-1.8v-.1c0-.6.2-1.2.7-1.7c.4-.5 1-.8 1.7-.8c.4 0 .8.1 1 .2c.3.1.6.2.9.5l-.4.4c-.4-.4-.9-.6-1.5-.6c-.5 0-1 .2-1.3.6c-.4.4-.6.9-.6 1.4c0 .6.2 1.1.6 1.5c.3.4.8.6 1.4.6c.5 0 1-.2 1.4-.5v-1.2h-1.5v-.5h2v1.9s.03.03 0 0zm4.3.1c-.4.5-.9.7-1.5.7c-.5 0-1-.2-1.3-.5c-.4-.4-.5-.8-.5-1.4c0-.5.1-1 .5-1.4c.3-.3.7-.5 1.2-.5c.5 0 .9.2 1.2.5c.3.4.5.9.5 1.4v.2h-2.9c0 .4.2.7.4.9c.3.2.5.3.9.3c.4 0 .8-.2 1.1-.5c.02 0 .4.3.4.3c0 0-.04 0 0 0zm-2.8-1.4h2.3c0-.4-.1-.7-.3-.9c-.2-.2-.5-.3-.8-.3c-.3 0-.6.1-.8.3c-.2.2-.4.5-.4.9zm3.8 2v-3.6h.6s-.03.61 0 .6c.3-.5.7-.7 1.2-.7c.4 0 .8.1 1 .4c.3.3.4.6.4 1.1c-.01-.05 0 2.2 0 2.2h-.5s-.05-2.11 0-2.1c0-.4-.1-.6-.3-.8c-.2-.2-.4-.3-.7-.3c-.4 0-.6.1-.8.3c-.2.2-.3.5-.3.8c-.03.03 0 2.1 0 2.1h-.6zm4.4-4.4v-.6h.6v.6h-.6zm0 4.4v-3.6h.5v3.6h-.5zm2.6 1.1l-.5-.3l.6-.8c-.5 0-.9-.2-1.2-.5l.3-.3c.4.3.8.4 1.2.4c.2 0 .4 0 .5-.1c.2-.1.3-.3.3-.5c0-.1-.1-.3-.3-.4c-.1 0-.4-.1-.6-.2c-.2 0-.3-.1-.3-.1c-.1 0-.2-.1-.3-.1c-.1 0-.2-.1-.3-.1c0-.1-.1-.1-.2-.2c0-.1-.1-.1-.1-.2v-.3c0-.4.1-.6.3-.8c.2-.2.5-.3.9-.3c.5 0 .9.2 1.3.4l-.3.4c-.3-.2-.7-.3-1-.3c-.2 0-.4 0-.5.1c-.2.1-.2.2-.2.4v.2c.1 0 .1.1.2.1c0 .1.1.1.2.2h.2c.1.1.2.1.3.1c.1.1.3.1.3.1c.1.1.2.1.3.2c.2 0 .3.1.3.2c.1 0 .1.1.2.2c0 .1.1.2.1.4c0 .3-.1.5-.4.7c-.2.2-.4.3-.8.4l-.5 1zm2.7-1.1v-5.1h.6v5.1h-.6zm1.8-4.4v-.6h.6v.6h-.6zm.1 4.4v-3.6h.5v3.6h-.5zm1.7 0v-5.1h.6v3.5l1.9-2h.7l-1.5 1.5l1.6 2.1h-.7l-1.3-1.7l-.7.8v.9h-.6zm8.6 0V129h-2.6l-.2-.4l2.8-3.3h.5v3.3h.7v.4h-.7v1.2h-.5zm-2.1-1.6h2.1V126l-2.1 2.6zm8.3-.9c0 .8-.2 1.4-.6 1.8c-.4.5-.9.8-1.5.8c-.6 0-1.1-.3-1.5-.7c-.4-.5-.5-1.1-.5-1.8v-.1c0-.7.2-1.3.5-1.7c.4-.5.9-.8 1.5-.8c.7 0 1.2.3 1.5.7c.4.5.6 1.1.6 1.8c0 .04 0 0 0 0c0 0 0 .05 0 0zm-3.6 0c0 .6.2 1.1.4 1.5c.3.4.7.6 1.1.6c.5 0 .8-.2 1.1-.6c.3-.4.4-.9.4-1.4v-.1c0-.5-.1-1-.4-1.4c-.3-.4-.6-.6-1.1-.6c-.4 0-.8.2-1.1.6c-.2.4-.4.9-.4 1.4c.03.04 0 0 0 0c0 0 .03.05 0 0zm9.8 1.9c-.4.5-.9.7-1.4.7c-.6 0-1-.2-1.4-.6c-.3-.3-.5-.8-.5-1.3c0-.5.2-1 .5-1.3c.4-.4.8-.6 1.4-.6c.5 0 1 .2 1.4.6l-.3.4c-.4-.3-.8-.5-1.1-.5c-.4 0-.7.1-1 .4c-.2.3-.3.6-.3 1c0 .4.1.7.3 1c.3.3.6.4 1 .4c.4 0 .8-.2 1.1-.5c0-.04.3.3.3.3c0 0 .04-.02 0 0zm.9.6v-3.6h.6s-.03.59 0 .6c.1-.2.3-.4.5-.5c.1-.1.4-.2.6-.2c.6 0 1 .2 1.2.7c.3-.5.7-.7 1.3-.7c.4 0 .7.1 1 .4c.2.3.3.6.3 1.1c.02-.04 0 2.2 0 2.2h-.5s-.02-2.11 0-2.1c0-.4-.1-.6-.3-.8c-.1-.2-.4-.3-.7-.3c-.2 0-.5.1-.7.3c-.2.2-.3.5-.3.8c.04.01 0 2.1 0 2.1h-.5v-2.1c0-.4-.1-.6-.2-.8c-.2-.2-.4-.3-.7-.3c-.3 0-.6.1-.7.3c-.2.2-.3.5-.3.8c-.03.03 0 2.1 0 2.1h-.6z" stroke="none" fill="#000"/></g><g id="Polygon377612"><path d="m5.6 105.7c0 .8-.3 1.4-.8 1.8c-.5.5-1.1.8-1.8.8c-.8 0-1.4-.3-1.9-.7c-.5-.5-.7-1.1-.7-1.8v-.1c0-.7.2-1.3.7-1.7c.5-.5 1.1-.8 1.9-.8c.7 0 1.3.3 1.8.7c.5.5.8 1.1.8 1.8c-.02.04 0 0 0 0c0 0-.02.05 0 0zm-4.1 0c0 .5.1.8.4 1.1c.3.3.7.5 1.1.5c.4 0 .8-.2 1-.5c.3-.2.5-.6.5-1v-.1c0-.4-.2-.7-.5-1c-.2-.3-.6-.5-1-.5c-.5 0-.8.2-1.1.5c-.3.2-.4.6-.4 1c0 .04 0 0 0 0c0 0 0 .05 0 0zm1.7-2.9v-.8h1v.8h-1zm-1.5 0v-.8h1v.8h-1zm4.8 5.4v-5.1h1v5.1h-1zm3.5 1.2l-.9-.4s.62-.8.6-.8c-.4-.1-.7-.4-1-.7c-.2-.3-.3-.7-.3-1.2c0-.5.1-1 .5-1.4c.4-.3.9-.5 1.4-.5c.6 0 1.1.2 1.5.6l-.6.7c-.2-.1-.3-.2-.4-.3c-.2-.1-.3-.1-.5-.1c-.2 0-.5.1-.6.3c-.2.2-.3.4-.3.7c0 .3.1.6.3.8c.1.2.4.3.7.3c.3 0 .5-.2.8-.4l.6.6c-.1.2-.3.4-.5.5c-.3.1-.5.2-.8.2c-.01-.02-.5 1.1-.5 1.1zm4.9-1.7c-.3.4-.7.6-1.1.6c-.4 0-.7-.2-1-.4c-.2-.2-.3-.6-.3-1c.01-.02 0-2.5 0-2.5h1.1s-.03 2.14 0 2.1c0 .5.2.8.6.8c.2 0 .4-.1.5-.2c.1-.1.2-.3.2-.6c-.02.04 0-2.1 0-2.1h1v3.8h-1v-.5s-.02-.03 0 0zm-.5-3.7v-.9h1.1v.9h-1.1zm-1.4 0v-.9h1v.9h-1zm3.9 4.2v-5.1h1.1v5.1h-1.1zm5.4-.6c-.4.5-.9.7-1.5.7c-.6 0-1-.2-1.4-.6c-.4-.3-.6-.8-.6-1.4c0-.5.2-1 .6-1.4c.3-.3.7-.5 1.3-.5c.6 0 1 .2 1.3.6c.4.4.5.8.5 1.4v.3h-2.6c0 .2.1.4.3.5c.2.2.4.2.6.2c.3 0 .6-.1.9-.4c.01.04.6.6.6.6c0 0 .02-.02 0 0zm-2.4-1.6h1.6c-.1-.2-.1-.4-.3-.6c-.1-.1-.3-.2-.5-.2c-.2 0-.4.1-.6.2c-.1.2-.2.4-.2.6zm3.4 2.2v-3.8h1.1s-.03.8 0 .8c.2-.6.6-.8 1.2-.8c-.04-.02 0 1.1 0 1.1h-.1c-.4 0-.6.1-.8.3c-.2.2-.3.6-.3 1c-.03.01 0 1.4 0 1.4h-1.1zm2.9-2.6v-1.2h1.2v1.2h-1.2zm0 2.6v-1.1h1.2v1.1h-1.2z" stroke="none" fill="#000"/></g><g id="Polygon377611"><path d="m.6 86.2v-4.9h2.2c.6 0 1.1.2 1.5.5c.2.3.4.7.4 1.1c0 .8-.4 1.3-1.1 1.5l1.2 1.8H3.6l-1.1-1.6h-.8v1.6H.6zm1.1-2.5s1.06-.02 1.1 0c.2 0 .4-.1.6-.2c.1-.1.2-.3.2-.5c0-.3-.1-.4-.2-.5c-.2-.2-.4-.2-.7-.2c.04-.03-1 0-1 0v1.4zm7.1 1.9c-.4.5-.9.7-1.6.7c-.5 0-1-.2-1.4-.6c-.3-.3-.5-.8-.5-1.4c0-.5.2-1 .5-1.4c.4-.3.8-.5 1.3-.5c.6 0 1.1.2 1.4.6c.3.4.5.8.5 1.4v.3H6.3c.1.2.2.4.4.5c.1.2.3.2.6.2c.3 0 .6-.1.9-.4c-.03.04.6.6.6.6c0 0-.02-.02 0 0zM6.3 84h1.6c0-.2-.1-.4-.2-.6c-.2-.1-.3-.2-.6-.2c-.2 0-.4.1-.5.2l-.3.6zm3.5 2.2v-3.8h1s.02.58 0 .6c.3-.4.7-.6 1.1-.6c.4 0 .7.1 1 .3c.2.3.3.6.3 1.1v2.4h-1.1s.03-2.09 0-2.1c0-.5-.2-.8-.6-.8c-.2 0-.4.1-.5.2c-.1.2-.2.4-.2.6c.02.01 0 2.1 0 2.1h-1zm4.3 0v-5.1h1.1v2.7l1.2-1.4h1.3l-1.4 1.5l1.5 2.3h-1.3l-.9-1.5l-.4.4v1.1h-1.1zm4.2-2.6v-1.2h1.1v1.2h-1.1zm0 2.6v-1.1h1.1v1.1h-1.1zm4.4 0v-4.9h1.7c.7 0 1.3.2 1.8.7c.5.5.8 1 .8 1.7c0 .7-.3 1.3-.8 1.8c-.5.5-1.1.7-1.8.7h-1.7zm1.7-4.4h-1.2v3.9h1.2c.6 0 1.1-.2 1.4-.6c.4-.3.6-.8.6-1.3v-.1c0-.5-.2-1-.6-1.3c-.4-.4-.8-.6-1.4-.6zm5.3 4.5c-.6 0-1-.2-1.4-.6c-.3-.3-.5-.8-.5-1.3c0-.5.2-1 .5-1.3c.4-.4.9-.6 1.4-.6c.5 0 1 .2 1.3.6c.4.3.6.8.6 1.3c0 .5-.2 1-.6 1.3c-.3.4-.8.6-1.3.6zm0-.5c.4 0 .7-.1 1-.4c.2-.3.3-.6.3-1c0-.4-.1-.7-.4-1c-.2-.3-.5-.4-.9-.4c-.4 0-.7.1-1 .4c-.2.3-.3.6-.3 1c0 .4.1.7.3 1c.3.3.6.4 1 .4zm5.8 1.1c-.3.3-.7.4-1.3.4c-.7 0-1.2-.1-1.7-.5l.3-.4c.4.3.9.5 1.4.5c.4 0 .7-.1.9-.4c.3-.2.4-.5.4-.9v-.4c-.4.5-.9.7-1.5.7c-.4 0-.8-.1-1.1-.5c-.4-.3-.6-.7-.6-1.2c0-.5.2-.9.6-1.2c.3-.3.7-.5 1.1-.5c.6 0 1.1.2 1.5.7c-.04.03 0-.6 0-.6h.5v3c0 .5-.2.9-.5 1.3zm-1.3-1.5c.3 0 .6-.1.9-.3c.2-.2.4-.5.4-.9c0-.4-.1-.6-.4-.9c-.3-.2-.6-.3-.9-.3c-.4 0-.7.1-.9.3c-.3.2-.4.5-.4.9c0 .4.1.7.4.9c.2.2.5.3.9.3zm1.1-4.2c0 .2-.1.5-.3.6c-.2.2-.4.2-.7.2c-.3 0-.5 0-.7-.2c-.2-.1-.3-.4-.3-.6h.4c0 .3.3.4.6.4c.3 0 .6-.1.6-.4c.04-.03.4 0 .4 0c0 0 .04-.03 0 0zm4.3 4.5c-.3.4-.8.6-1.3.6c-.4 0-.7-.1-1-.3c-.2-.2-.4-.5-.4-.9c0-.3.2-.6.5-.8c.2-.2.6-.3 1.1-.3c.3 0 .7 0 1.1.1v-.1c0-.3-.1-.6-.3-.7c-.2-.2-.4-.3-.8-.3c-.4 0-.7.1-1.1.3l-.1-.5c.4-.2.8-.3 1.3-.3c.5 0 .9.2 1.1.4c.3.3.4.6.4 1.1c.01-.01 0 2.2 0 2.2h-.5v-.5s-.01-.05 0 0zm-1.2.1c.3 0 .6 0 .8-.2c.3-.2.4-.4.4-.7v-.4c-.4-.1-.7-.1-1.1-.1c-.3 0-.6 0-.7.2c-.2.1-.3.3-.3.5c0 .2.1.4.2.6c.2.1.4.1.7.1zm2.9.4v-5.1h.5v5.1h-.5zm1.7 0v-.7h.7v.7h-.7z" stroke="none" fill="#000"/></g><g id="Polygon377610"><path d="m2.1 63.6l1.2-3h.6s-1.53 3.72-1.5 3.7c-.2.4-.4.6-.5.8c-.2.2-.5.2-.7.2c-.3 0-.6 0-.8-.1l.2-.5c.1.1.3.2.5.2c.2 0 .3-.1.5-.2c.1-.1.2-.3.3-.5c-.02-.01-1.7-3.6-1.7-3.6h.6l1.3 3zm4.9.1c-.4.4-.8.6-1.4.6c-.3 0-.6-.1-.9-.3c-.3-.2-.4-.5-.4-.9c0-.3.1-.6.4-.8c.3-.2.7-.3 1.1-.3c.4 0 .8 0 1.2.1v-.1c0-.3-.1-.6-.3-.7c-.2-.2-.5-.3-.8-.3c-.4 0-.8.1-1.1.3l-.2-.5c.4-.2.9-.3 1.3-.3c.5 0 .9.2 1.2.4c.2.3.4.6.4 1.1c-.03-.01 0 2.2 0 2.2h-.5v-.5s-.05-.05 0 0zm-1.3.1c.4 0 .7 0 .9-.2c.2-.2.4-.4.4-.7v-.4c-.4-.1-.8-.1-1.1-.1c-.3 0-.6 0-.8.2c-.2.1-.3.3-.3.5c0 .2.1.4.3.6c.2.1.4.1.6.1zm2.9 1.5v-4.7h.6s-.04.71 0 .7c.3-.5.8-.8 1.3-.8c.5 0 .9.2 1.3.5c.3.4.5.8.5 1.4c0 .6-.2 1-.5 1.4c-.4.3-.8.5-1.3.5c-.5 0-1-.3-1.3-.8c-.04.01 0 1.8 0 1.8h-.6zm1.8-1.5c.4 0 .7-.1 1-.4c.2-.2.3-.6.3-1c0-.4-.1-.8-.3-1c-.3-.3-.6-.4-1-.4c-.3 0-.6.1-.9.4c-.2.3-.4.6-.4 1c0 .4.2.7.4 1c.3.3.6.4.9.4zm2.9.4v-3.6h.6v3.6h-.6zm1.9 0v-5.1h.5v5.1h-.5zm1.7 0v-3.6h.6v.6c.1-.2.3-.4.5-.5c.1-.1.4-.2.7-.2c.5 0 .9.2 1.1.7c.3-.5.8-.7 1.3-.7c.4 0 .7.1 1 .4c.2.3.3.6.3 1.1c.03-.04 0 2.2 0 2.2h-.5v-2.1c0-.4-.1-.6-.3-.8c-.1-.2-.3-.3-.6-.3c-.3 0-.6.1-.8.3c-.1.2-.2.5-.2.8c-.04.01 0 2.1 0 2.1h-.6s.02-2.13 0-2.1c0-.4-.1-.6-.2-.8c-.2-.2-.4-.3-.7-.3c-.3 0-.5.1-.7.3c-.2.2-.3.5-.3.8v2.1h-.6zm6.7 0v-3.6h.6v3.6h-.6zm2.7 1.1l-.5-.3s.51-.75.5-.8c-.4 0-.8-.2-1.2-.5l.3-.3c.4.3.8.4 1.2.4c.3 0 .5 0 .6-.1c.1-.1.2-.3.2-.5c0-.1-.1-.3-.2-.4c-.2 0-.4-.1-.7-.2c-.1 0-.2-.1-.3-.1c-.1 0-.1-.1-.3-.1c-.1 0-.2-.1-.2-.1l-.2-.2l-.2-.2v-.3c0-.4.1-.6.3-.8c.3-.2.6-.3.9-.3c.5 0 .9.2 1.3.4l-.2.4c-.4-.2-.7-.3-1.1-.3c-.2 0-.4 0-.5.1c-.1.1-.2.2-.2.4c0 .1 0 .1.1.2l.1.1c0 .1.1.1.2.2h.3c0 .1.1.1.2.1c.2.1.3.1.4.1c.1.1.2.1.3.2c.1 0 .2.1.3.2c0 0 .1.1.1.2c.1.1.1.2.1.4c0 .3-.1.5-.3.7c-.2.2-.5.3-.8.4c-.04-.04-.5 1-.5 1zm5.6 0l-.5-.3s.5-.75.5-.8c-.5 0-.9-.2-1.2-.5l.3-.3c.4.3.8.4 1.2.4c.3 0 .4 0 .6-.1c.1-.1.2-.3.2-.5c0-.1-.1-.3-.2-.4c-.2 0-.4-.1-.7-.2c-.2 0-.2-.1-.3-.1c-.1 0-.2-.1-.3-.1c-.1 0-.2-.1-.2-.1c-.1-.1-.2-.1-.2-.2l-.2-.2v-.3c0-.4.1-.6.3-.8c.3-.2.6-.3.9-.3c.5 0 .9.2 1.3.4l-.2.4c-.4-.2-.7-.3-1.1-.3c-.2 0-.4 0-.5.1c-.1.1-.2.2-.2.4c0 .1 0 .1.1.2s0 .1.1.1c0 .1.1.1.2.2h.2c.1.1.2.1.3.1c.2.1.3.1.4.1c.1.1.2.1.3.2c.1 0 .2.1.3.2c0 0 .1.1.1.2c.1.1.1.2.1.4c0 .3-.1.5-.3.7c-.2.2-.5.3-.9.4c.05-.04-.4 1-.4 1zm2.6-5.5v-.6h.6v.6h-.6zm0 4.4v-3.6h.6v3.6h-.6zm2.7 1.1l-.5-.3s.53-.75.5-.8c-.4 0-.8-.2-1.2-.5l.3-.3c.4.3.8.4 1.3.4c.2 0 .4 0 .5-.1c.1-.1.2-.3.2-.5c0-.1-.1-.3-.2-.4c-.2 0-.4-.1-.7-.2c-.1 0-.2-.1-.3-.1c0 0-.1-.1-.2-.1c-.2 0-.3-.1-.3-.1l-.2-.2c-.1-.1-.1-.1-.1-.2c-.1-.1-.1-.2-.1-.3c0-.4.1-.6.4-.8c.2-.2.5-.3.8-.3c.5 0 .9.2 1.3.4l-.2.4c-.4-.2-.7-.3-1.1-.3c-.2 0-.4 0-.5.1c-.1.1-.2.2-.2.4c0 .1 0 .1.1.2l.1.1l.2.2h.3c0 .1.1.1.3.1c.1.1.2.1.3.1c.1.1.2.1.3.2c.1 0 .2.1.3.2l.2.2v.4c0 .3-.1.5-.3.7c-.2.2-.5.3-.8.4c-.03-.04-.5 1-.5 1zm5.7-1.7c-.4.5-.9.7-1.5.7c-.5 0-.9-.2-1.3-.5c-.3-.4-.5-.8-.5-1.4c0-.5.2-1 .5-1.4c.3-.3.7-.5 1.2-.5c.6 0 1 .2 1.3.5c.3.4.4.9.4 1.4v.2h-2.9c.1.4.2.7.5.9c.2.2.5.3.8.3c.4 0 .8-.2 1.2-.5c-.04 0 .3.3.3.3zm-2.8-1.4h2.4c-.1-.4-.2-.7-.4-.9c-.2-.2-.4-.3-.8-.3c-.3 0-.6.1-.8.3c-.2.2-.3.5-.4.9zm3.9 2v-5.1h.6v5.1h-.6zm1.8-4.4v-.6h.6v.6h-.6zm.1 4.4v-3.6h.5v3.6h-.5zm1.7 0v-5.1h.6v3.5l1.9-2h.7l-1.5 1.5l1.6 2.1h-.7l-1.3-1.7l-.7.8v.9h-.6zm9-.7c-.3.5-.8.8-1.4.8c-.4 0-.8-.2-1.2-.5c-.3-.4-.5-.8-.5-1.4c0-.6.2-1 .5-1.4c.4-.3.8-.5 1.2-.5c.6 0 1.1.3 1.4.8c.04-.03 0-2.2 0-2.2h.6v5.1h-.6v-.7s.04-.03 0 0zm-1.3.3c.4 0 .7-.1 1-.4c.2-.3.4-.6.4-1c0-.4-.2-.8-.4-1c-.3-.3-.6-.4-1-.4c-.3 0-.6.1-.9.4c-.2.2-.3.6-.3 1c0 .4.1.8.3 1c.3.3.6.4.9.4zm5.5-.1c-.4.4-.8.6-1.3.6c-.4 0-.7-.1-1-.3c-.3-.2-.4-.5-.4-.9c0-.3.1-.6.4-.8c.3-.2.7-.3 1.2-.3c.3 0 .7 0 1.1.1v-.1c0-.3-.1-.6-.3-.7c-.2-.2-.5-.3-.8-.3c-.4 0-.7.1-1.1.3l-.2-.5c.5-.2.9-.3 1.3-.3c.6 0 .9.2 1.2.4c.3.3.4.6.4 1.1c-.02-.01 0 2.2 0 2.2h-.5v-.5s-.03-.05 0 0zm-1.2.1c.3 0 .6 0 .8-.2c.3-.2.4-.4.4-.7v-.4c-.4-.1-.7-.1-1.1-.1c-.3 0-.6 0-.8.2c-.2.1-.2.3-.2.5c0 .2 0 .4.2.6c.2.1.4.1.7.1zm2.8.4v-5.1h.6s-.03 2.11 0 2.1c.3-.5.7-.7 1.2-.7c.4 0 .8.1 1 .4c.3.3.4.6.4 1.1v2.2h-.5s-.04-2.11 0-2.1c0-.4-.1-.6-.3-.8c-.2-.2-.4-.3-.7-.3c-.4 0-.6.1-.8.3c-.2.2-.3.5-.3.8c-.03.03 0 2.1 0 2.1h-.6zm4.4-4.4v-.6h.6v.6h-.6zm0 4.4v-3.6h.5v3.6h-.5zm1.8 0v-5.1h.6v5.1h-.6zm4.7-.7c-.3.5-.8.8-1.4.8c-.4 0-.8-.2-1.2-.5c-.3-.4-.5-.8-.5-1.4c0-.6.2-1 .5-1.4c.4-.3.8-.5 1.2-.5c.6 0 1.1.3 1.4.8c.03-.03 0-2.2 0-2.2h.6v5.1h-.6v-.7s.03-.03 0 0zm-1.3.3c.4 0 .7-.1 1-.4c.2-.3.4-.6.4-1c0-.4-.2-.8-.4-1c-.3-.3-.6-.4-1-.4c-.3 0-.6.1-.9.4c-.2.2-.3.6-.3 1c0 .4.1.8.3 1c.3.3.6.4.9.4zm3.1-4v-.6h.6v.6h-.6zm0 4.4v-3.6h.6v3.6h-.6zm1.8 0v-3.6h.6s-.05.93 0 .9c.1-.3.3-.5.5-.7c.3-.2.6-.3.9-.3c.03.02 0 .6 0 .6c0 0-.01 0 0 0c-.4 0-.8.1-1 .4c-.3.3-.4.7-.4 1.3c-.05-.04 0 1.4 0 1.4h-.6zm2.1 0v-.7h.7v.7h-.7z" stroke="none" fill="#000"/></g><g id="Polygon377609"><path d="m3.5 52.5c-.4.5-.8.8-1.4.8c-.4 0-.8-.2-1.2-.5c-.3-.4-.5-.8-.5-1.4c0-.6.2-1 .5-1.4c.4-.3.8-.5 1.2-.5c.6 0 1.1.3 1.4.8c.01-.03 0-2.2 0-2.2h.5v5.1h-.5v-.7s.01-.03 0 0zm-1.3.3c.4 0 .7-.1.9-.4c.3-.3.4-.6.4-1c0-.4-.1-.8-.4-1c-.2-.3-.5-.4-.9-.4c-.3 0-.6.1-.9.4c-.2.2-.4.6-.4 1c0 .4.2.8.4 1c.3.3.6.4.9.4zm5-3.8v-.6h.6v.6h-.6zM6 49v-.6h.6v.6h-.6zm.9 4.3c-.5 0-1-.2-1.3-.6c-.4-.3-.6-.8-.6-1.3c0-.5.2-1 .6-1.3c.3-.4.8-.6 1.3-.6c.6 0 1 .2 1.4.6c.3.3.5.8.5 1.3c0 .5-.2 1-.5 1.3c-.4.4-.9.6-1.4.6zm0-.5c.4 0 .7-.1 1-.4c.2-.3.3-.6.3-1c0-.4-.1-.7-.3-1c-.3-.3-.6-.4-1-.4c-.4 0-.7.1-.9.4c-.3.3-.4.6-.4 1c0 .4.1.7.4 1c.2.3.5.4.9.4zm2.9.4v-3.6h.5v.6c.3-.5.7-.7 1.2-.7c.5 0 .8.1 1.1.4c.2.3.3.6.3 1.1c.04-.05 0 2.2 0 2.2h-.5v-2.1c0-.4-.1-.6-.3-.8c-.1-.2-.4-.3-.7-.3c-.3 0-.6.1-.8.3c-.2.2-.3.5-.3.8v2.1h-.5zm7.4-.6c-.4.5-.9.7-1.5.7c-.5 0-1-.2-1.3-.5c-.4-.4-.5-.8-.5-1.4c0-.5.1-1 .5-1.4c.3-.3.7-.5 1.2-.5c.5 0 .9.2 1.2.5c.3.4.5.9.5 1.4v.2h-2.9c0 .4.2.7.4.9c.3.2.5.3.9.3c.4 0 .8-.2 1.1-.5c.02 0 .4.3.4.3c0 0-.04 0 0 0zm-2.8-1.4h2.3c0-.4-.1-.7-.3-.9c-.2-.2-.5-.3-.8-.3c-.3 0-.6.1-.8.3c-.2.2-.4.5-.4.9zm3.8 2v-3.6h.6s-.03.93 0 .9c.1-.3.3-.5.6-.7c.2-.2.5-.3.8-.3c.04.02 0 .6 0 .6c-.4 0-.8.1-1 .4c-.3.3-.4.7-.4 1.3c-.03-.04 0 1.4 0 1.4h-.6zm6.8-.1c-.2.1-.4.2-.6.2c-.3 0-.6-.1-.8-.3c-.2-.2-.2-.4-.2-.8c-.05.04 0-2.1 0-2.1h-.6v-.5h.6v-1.1h.5v1.1h1.1v.5h-1.1v2.1c0 .4.2.6.6.6c.2 0 .4-.1.5-.2c.02.05 0 .5 0 .5c0 0 .02.01 0 0zm4-.5c-.4.5-.9.7-1.5.7c-.5 0-1-.2-1.3-.5c-.4-.4-.5-.8-.5-1.4c0-.5.1-1 .5-1.4c.3-.3.7-.5 1.2-.5c.5 0 .9.2 1.2.5c.3.4.5.9.5 1.4v.2h-2.9c0 .4.2.7.4.9c.3.2.6.3.9.3c.4 0 .8-.2 1.1-.5c.02 0 .4.3.4.3c0 0-.04 0 0 0zm-2.8-1.4h2.3c0-.4-.1-.7-.3-.9c-.2-.2-.5-.3-.8-.3c-.3 0-.6.1-.8.3c-.2.2-.4.5-.4.9zm3.8 2v-5.1h.6v3.5l1.9-2h.7l-1.5 1.5l1.5 2.1h-.6l-1.3-1.7l-.7.8v.9h-.6zm6.9-.6c-.4.5-.9.7-1.5.7c-.5 0-.9-.2-1.3-.5c-.3-.4-.5-.8-.5-1.4c0-.5.2-1 .5-1.4c.3-.3.8-.5 1.2-.5c.6 0 1 .2 1.3.5c.3.4.4.9.4 1.4v.2h-2.8c0 .4.1.7.4.9c.2.2.5.3.8.3c.5 0 .8-.2 1.2-.5c-.03 0 .3.3.3.3c0 0 .01 0 0 0zm-2.7-1.4h2.3c0-.4-.2-.7-.3-.9c-.2-.2-.5-.3-.9-.3c-.3 0-.5.1-.8.3c-.2.2-.3.5-.3.9zm3.8 2v-3.6h.5s.02.93 0 .9c.2-.3.4-.5.6-.7c.3-.2.6-.3.9-.3v.6s-.04 0 0 0c-.5 0-.8.1-1.1.4c-.2.3-.4.7-.4 1.3c.02-.04 0 1.4 0 1.4h-.5zm2.9 0v-5.1h.5v5.1h-.5zm4.8-.6c-.4.5-.9.7-1.5.7c-.5 0-.9-.2-1.2-.5c-.4-.4-.6-.8-.6-1.4c0-.5.2-1 .5-1.4c.4-.3.8-.5 1.3-.5c.5 0 .9.2 1.2.5c.3.4.5.9.5 1.4c0 .1 0 .1-.1.2H43c0 .4.2.7.4.9c.2.2.5.3.9.3c.4 0 .8-.2 1.1-.5l.3.3s.03 0 0 0zM43 51.2h2.3c0-.4-.1-.7-.3-.9c-.2-.2-.5-.3-.8-.3c-.4 0-.6.1-.8.3c-.3.2-.4.5-.4.9zm3.8 2v-5.1h.5v3.5l2-2h.7l-1.6 1.5l1.6 2.1h-.6l-1.3-1.7l-.8.8v.9h-.5zm6.5-2c0 1.1.5 1.9 1.6 2.6l-.2.4c-1.3-.7-1.9-1.7-1.9-3c0-1.3.6-2.3 1.9-3l.2.4c-1.1.6-1.6 1.5-1.6 2.6c0-.01 0 0 0 0zm2.8 2v-3.1h-.5v-.5h.5s.03-.33 0-.3c0-.4.1-.7.3-1c.2-.1.5-.2.8-.2c.2 0 .4 0 .6.1v.4c-.2 0-.4-.1-.5-.1c-.4 0-.6.3-.6.8c-.04 0 0 .3 0 .3h1.1v.5h-1.1v3.1h-.6zm2.4 0v-3.6h.5s.03.93 0 .9c.2-.3.4-.5.6-.7c.3-.2.6-.3.9-.3v.6s-.03 0 0 0c-.5 0-.8.1-1.1.4c-.2.3-.4.7-.4 1.3c.03-.04 0 1.4 0 1.4h-.5zm5.7-.6c-.4.5-.8.7-1.4.7c-.5 0-1-.2-1.3-.5c-.4-.4-.6-.8-.6-1.4c0-.5.2-1 .5-1.4c.4-.3.8-.5 1.3-.5c.5 0 .9.2 1.2.5c.3.4.5.9.5 1.4v.2h-2.9c0 .4.2.7.4.9c.3.2.5.3.9.3c.4 0 .8-.2 1.1-.5l.3.3s.05 0 0 0zm-2.7-1.4h2.3c0-.4-.1-.7-.3-.9c-.2-.2-.5-.3-.8-.3c-.3 0-.6.1-.8.3c-.2.2-.4.5-.4.9zm3.8 2v-3.6h.6s-.04.61 0 .6c.2-.5.7-.7 1.2-.7c.4 0 .8.1 1 .4c.3.3.4.6.4 1.1c-.02-.05 0 2.2 0 2.2h-.6s.04-2.11 0-2.1c0-.4 0-.6-.2-.8c-.2-.2-.4-.3-.8-.3c-.3 0-.5.1-.7.3c-.2.2-.3.5-.3.8c-.04.03 0 2.1 0 2.1h-.6zm4.4 0v-5.1h.5v5.1h-.5zm1.8-4.4v-.6h.6v.6h-.6zm0 4.4v-3.6h.6v3.6h-.6zm3.8-2c0 1.3-.7 2.3-2 3l-.2-.4c1.1-.7 1.6-1.5 1.6-2.6c0-1.1-.5-2-1.6-2.6l.2-.4c1.3.7 2 1.7 2 3c-.03-.01 0 0 0 0c0 0-.03 0 0 0zm3.2-2.4v-.6h.6v.6h-.6zm0 4.4v-3.6h.5v3.6h-.5zm1.8 0v-5.1h.6v5.1h-.6zm4.9-.6c-.4.5-.9.7-1.5.7c-.5 0-.9-.2-1.3-.5c-.3-.4-.5-.8-.5-1.4c0-.5.2-1 .5-1.4c.3-.3.7-.5 1.2-.5c.6 0 1 .2 1.3.5c.3.4.4.9.4 1.4v.2h-2.8c0 .4.1.7.4.9c.2.2.5.3.8.3c.5 0 .8-.2 1.2-.5c-.03 0 .3.3.3.3zm-2.7-1.4h2.3c0-.4-.2-.7-.4-.9c-.2-.2-.4-.3-.8-.3c-.3 0-.5.1-.8.3c-.2.2-.3.5-.3.9zm8.8 1.3c-.4.5-.9.8-1.4.8c-.5 0-.9-.2-1.2-.5c-.4-.4-.5-.8-.5-1.4c0-.6.1-1 .5-1.4c.3-.3.7-.5 1.2-.5c.6 0 1 .3 1.4.8c-.02-.03 0-2.2 0-2.2h.5v5.1h-.5v-.7s-.02-.03 0 0zm-1.3.3c.3 0 .6-.1.9-.4c.3-.3.4-.6.4-1c0-.4-.1-.8-.4-1c-.3-.3-.6-.4-.9-.4c-.4 0-.7.1-.9.4c-.3.2-.4.6-.4 1c0 .4.1.8.4 1c.2.3.5.4.9.4zm4.7.5c-.6 0-1-.2-1.4-.6c-.3-.3-.5-.8-.5-1.3c0-.5.2-1 .5-1.3c.4-.4.8-.6 1.4-.6c.5 0 1 .2 1.3.6c.4.3.6.8.6 1.3c0 .5-.2 1-.6 1.3c-.3.4-.8.6-1.3.6zm0-.5c.4 0 .7-.1.9-.4c.3-.3.4-.6.4-1c0-.4-.1-.7-.4-1c-.2-.3-.5-.4-.9-.4c-.4 0-.7.1-1 .4c-.2.3-.3.6-.3 1c0 .4.1.7.3 1c.3.3.6.4 1 .4zm2.8.4v-3.6h.6s-.02.61 0 .6c.3-.5.7-.7 1.2-.7c.5 0 .8.1 1 .4c.3.3.4.6.4 1.1c.01-.05 0 2.2 0 2.2h-.5s-.03-2.11 0-2.1c0-.4-.1-.6-.3-.8c-.2-.2-.4-.3-.7-.3c-.3 0-.6.1-.8.3c-.2.2-.3.5-.3.8c-.02.03 0 2.1 0 2.1h-.6zm6.7-.5c-.3.4-.7.6-1.3.6c-.3 0-.6-.1-.9-.3c-.3-.2-.4-.5-.4-.9c0-.3.1-.6.4-.8c.3-.2.7-.3 1.1-.3c.4 0 .8 0 1.1.1v-.1c0-.3-.1-.6-.2-.7c-.2-.2-.5-.3-.8-.3c-.4 0-.8.1-1.1.3l-.2-.5c.4-.2.9-.3 1.3-.3c.5 0 .9.2 1.2.4c.2.3.4.6.4 1.1c-.04-.01 0 2.2 0 2.2h-.6v-.5s.04-.05 0 0zm-1.2.1c.4 0 .7 0 .9-.2c.2-.2.3-.4.3-.7v-.4c-.3-.1-.7-.1-1-.1c-.4 0-.6 0-.8.2c-.2.1-.3.3-.3.5c0 .2.1.4.3.6c.2.1.4.1.6.1zm4.7.3c-.2.1-.4.2-.6.2c-.3 0-.6-.1-.8-.3c-.1-.2-.2-.4-.2-.8c-.04.04 0-2.1 0-2.1h-.5v-.5h.5v-1.1h.5v1.1h1.1v.5h-1.1v2.1c0 .4.2.6.6.6c.2 0 .4-.1.5-.2c.04.05 0 .5 0 .5c0 0 .04.01 0 0zm1.1.1v-3.6h.5v3.6h-.5zm1.8 0v-5.1h.5v5.1h-.5zm1.8 0v-3.6h.5s.02.59 0 .6c.2-.2.3-.4.5-.5c.2-.1.4-.2.7-.2c.5 0 .9.2 1.2.7c.3-.5.7-.7 1.2-.7c.4 0 .8.1 1 .4c.3.3.4.6.4 1.1c-.03-.04 0 2.2 0 2.2h-.6s.03-2.11 0-2.1c0-.4-.1-.6-.2-.8c-.2-.2-.4-.3-.7-.3c-.3 0-.5.1-.7.3c-.2.2-.3.5-.3.8v2.1h-.5s-.04-2.13 0-2.1c0-.4-.1-.6-.3-.8c-.2-.2-.4-.3-.7-.3c-.3 0-.5.1-.7.3c-.2.2-.3.5-.3.8c.02.03 0 2.1 0 2.1h-.5zm6.7 0v-3.6h.5v3.6h-.5zm2.6 1.1l-.5-.3s.55-.75.5-.8c-.4 0-.8-.2-1.1-.5l.2-.3c.4.3.9.4 1.3.4c.2 0 .4 0 .5-.1c.2-.1.2-.3.2-.5c0-.1 0-.3-.2-.4c-.2 0-.4-.1-.7-.2c-.1 0-.2-.1-.3-.1c0 0-.1-.1-.2-.1c-.1 0-.2-.1-.3-.1c0-.1-.1-.1-.2-.2c0-.1-.1-.1-.1-.2c-.1-.1-.1-.2-.1-.3c0-.4.1-.6.4-.8c.2-.2.5-.3.9-.3c.4 0 .9.2 1.3.4l-.3.4c-.3-.2-.7-.3-1-.3c-.3 0-.4 0-.6.1c-.1.1-.1.2-.1.4v.2l.1.1c.1.1.2.1.3.2h.2c.1.1.2.1.3.1c.1.1.2.1.3.1c.1.1.2.1.3.2c.1 0 .2.1.3.2c.1 0 .1.1.2.2v.4c0 .3-.1.5-.3.7c-.2.2-.5.3-.8.4c0-.04-.5 1-.5 1zm4.4-1.2c-.1.1-.4.2-.6.2c-.3 0-.6-.1-.8-.3c-.1-.2-.2-.4-.2-.8c-.04.04 0-2.1 0-2.1h-.5v-.5h.5v-1.1h.5v1.1h1.2v.5H125v2.1c0 .4.2.6.6.6c.2 0 .4-.1.5-.2c.04.05 0 .5 0 .5c0 0 .04.01 0 0zm1.1.1v-3.6h.5v3.6h-.5zm1.7 0v-3.6h.6s-.02.93 0 .9c.1-.3.3-.5.6-.7c.2-.2.5-.3.9-.3c-.04.02 0 .6 0 .6h-.1c-.4 0-.7.1-1 .4c-.3.3-.4.7-.4 1.3c-.02-.04 0 1.4 0 1.4h-.6zm2.2 0v-.7h.6v.7h-.6zm3.9 0v-4.9h.6v2.9l2.8-2.9h.7l-2.1 2.1l2.2 2.8h-.7l-1.9-2.4l-1 1.1v1.3h-.6zm5 0v-3.6h.5s.03.93 0 .9c.2-.3.4-.5.6-.7c.3-.2.6-.3.9-.3v.6s-.04 0 0 0c-.5 0-.8.1-1.1.4c-.2.3-.4.7-.4 1.3c.03-.04 0 1.4 0 1.4h-.5zm4.3.1c-.5 0-1-.2-1.3-.6c-.4-.3-.6-.8-.6-1.3c0-.5.2-1 .6-1.3c.3-.4.8-.6 1.3-.6c.6 0 1 .2 1.4.6c.3.3.5.8.5 1.3c0 .5-.2 1-.5 1.3c-.4.4-.8.6-1.4.6zm0-.5c.4 0 .7-.1 1-.4c.2-.3.4-.6.4-1c0-.4-.2-.7-.4-1c-.3-.3-.6-.4-1-.4c-.4 0-.7.1-.9.4c-.3.3-.4.6-.4 1c0 .4.1.7.4 1c.2.3.6.4.9.4zm2.9.4v-3.6h.5s.03.59 0 .6c.2-.2.3-.4.5-.5c.2-.1.4-.2.7-.2c.5 0 .9.2 1.2.7c.3-.5.7-.7 1.2-.7c.5 0 .8.1 1 .4c.3.3.4.6.4 1.1c-.02-.04 0 2.2 0 2.2h-.6s.04-2.11 0-2.1c0-.4 0-.6-.2-.8c-.2-.2-.4-.3-.7-.3c-.3 0-.5.1-.7.3c-.2.2-.3.5-.3.8v2.1h-.5s-.03-2.13 0-2.1c0-.4-.1-.6-.3-.8c-.1-.2-.4-.3-.7-.3c-.2 0-.5.1-.7.3c-.2.2-.3.5-.3.8c.03.03 0 2.1 0 2.1h-.5zm8.7 0v-5.1h.6v3.5l1.9-2h.7l-1.5 1.5l1.5 2.1h-.6l-1.3-1.7l-.7.8v.9h-.6zm6.3-.5c-.3.4-.7.6-1.3.6c-.3 0-.7-.1-.9-.3c-.3-.2-.4-.5-.4-.9c0-.3.1-.6.4-.8c.3-.2.6-.3 1.1-.3c.4 0 .8 0 1.1.1v-.1c0-.3-.1-.6-.3-.7c-.1-.2-.4-.3-.7-.3c-.4 0-.8.1-1.1.3l-.2-.5c.4-.2.9-.3 1.3-.3c.5 0 .9.2 1.2.4c.2.3.3.6.3 1.1c.05-.01 0 2.2 0 2.2h-.5v-.5s.03-.05 0 0zm-1.2.1c.4 0 .7 0 .9-.2c.2-.2.3-.4.3-.7v-.4c-.3-.1-.7-.1-1-.1c-.4 0-.6 0-.8.2c-.2.1-.3.3-.3.5c0 .2.1.4.3.6c.2.1.4.1.6.1zm2.9 1.5v-4.7h.5s.03.71 0 .7c.4-.5.9-.8 1.4-.8c.5 0 .9.2 1.2.5c.4.4.5.8.5 1.4c0 .6-.1 1-.5 1.4c-.3.3-.7.5-1.2.5c-.6 0-1-.3-1.4-.8c.03.01 0 1.8 0 1.8h-.5zm1.8-1.5c.4 0 .7-.1.9-.4c.3-.2.4-.6.4-1c0-.4-.1-.8-.4-1c-.2-.3-.5-.4-.9-.4c-.3 0-.6.1-.9.4c-.3.3-.4.6-.4 1c0 .4.1.7.4 1c.3.3.6.4.9.4zm2.9.4v-5.1h.5v5.1h-.5zm1.8 0v-3.6h.6v3.6h-.6zm5.2 1.1l-.5-.3s.52-.75.5-.8c-.4 0-.8-.2-1.1-.6c-.3-.3-.4-.7-.4-1.2c0-.5.2-1 .5-1.3c.4-.4.8-.6 1.4-.6c.5 0 1 .2 1.4.6l-.4.4c-.3-.3-.7-.5-1.1-.5c-.3 0-.6.1-.9.4c-.2.3-.3.6-.3 1c0 .4.1.7.3 1c.3.3.6.4 1 .4c.4 0 .8-.2 1.1-.5l.3.3c-.3.4-.8.7-1.3.7c-.04-.02-.5 1-.5 1zm5.7-1.7c-.4.5-.9.7-1.5.7c-.5 0-.9-.2-1.3-.5c-.3-.4-.5-.8-.5-1.4c0-.5.2-1 .5-1.4c.3-.3.7-.5 1.2-.5c.5 0 1 .2 1.3.5c.3.4.4.9.4 1.4v.2h-2.9c.1.4.2.7.5.9c.2.2.5.3.8.3c.4 0 .8-.2 1.2-.5c-.05 0 .3.3.3.3c0 0-.01 0 0 0zm-2.8-1.4h2.4c-.1-.4-.2-.7-.4-.9c-.2-.2-.4-.3-.8-.3c-.3 0-.6.1-.8.3c-.2.2-.3.5-.4.9zm3.9 2v-5.1h.5v5.1h-.5zm1.8-4.4v-.6h.6v.6h-.6zm.1 4.4v-3.6h.5v3.6h-.5zm1.7 0v-5.1h.6v3.5l1.9-2h.7l-1.5 1.5l1.6 2.1h-.7l-1.3-1.7l-.7.8v.9h-.6zm5.8-.1c-.2.1-.4.2-.6.2c-.3 0-.6-.1-.8-.3c-.2-.2-.3-.4-.3-.8c.04.04 0-2.1 0-2.1h-.5v-.5h.5v-1.1h.6v1.1h1.1v.5h-1.1s-.02 2.07 0 2.1c0 .4.2.6.6.6c.2 0 .3-.1.5-.2c.02.05 0 .5 0 .5c0 0 .02.01 0 0zm4-.5c-.4.5-.9.7-1.5.7c-.5 0-1-.2-1.3-.5c-.4-.4-.5-.8-.5-1.4c0-.5.1-1 .4-1.4c.4-.3.8-.5 1.3-.5c.5 0 .9.2 1.2.5c.3.4.5.9.5 1.4v.2H193c0 .4.2.7.4.9c.3.2.5.3.9.3c.4 0 .8-.2 1.1-.5c.02 0 .4.3.4.3c0 0-.05 0 0 0zm-2.8-1.4h2.3c0-.4-.1-.7-.3-.9c-.2-.2-.5-.3-.8-.3c-.3 0-.6.1-.8.3c-.2.2-.4.5-.4.9zm3.8 2v-3.6h.6s-.04.61 0 .6c.3-.5.7-.7 1.2-.7c.4 0 .8.1 1 .4c.3.3.4.6.4 1.1c-.01-.05 0 2.2 0 2.2h-.6s.05-2.11 0-2.1c0-.4 0-.6-.2-.8c-.2-.2-.4-.3-.8-.3c-.3 0-.5.1-.7.3c-.2.2-.3.5-.3.8c-.04.03 0 2.1 0 2.1h-.6z" stroke="none" fill="#000"/></g><g id="Polygon377608"><path d="m3.6 42.9c-.3.3-.8.4-1.4.4c-.6 0-1.2-.1-1.6-.5l.2-.4c.4.3.9.5 1.4.5c.4 0 .7-.1 1-.4c.2-.2.3-.5.3-.9v-.4c-.4.5-.8.7-1.4.7c-.5 0-.9-.1-1.2-.5c-.3-.3-.5-.7-.5-1.2c0-.5.2-.9.5-1.2c.3-.3.7-.5 1.2-.5c.6 0 1 .2 1.4.7v-.6h.5s.05 2.97 0 3c0 .5-.1.9-.4 1.3zm-1.4-1.5c.4 0 .7-.1.9-.3c.3-.2.4-.5.4-.9c0-.4-.1-.6-.4-.9c-.2-.2-.5-.3-.9-.3c-.4 0-.7.1-.9.3c-.2.2-.4.5-.4.9c0 .4.2.7.4.9c.3.2.6.3.9.3zm6.1.2c-.4.5-.9.7-1.5.7c-.5 0-.9-.2-1.2-.5c-.4-.4-.6-.8-.6-1.4c0-.5.2-1 .5-1.4c.3-.3.8-.5 1.3-.5c.5 0 .9.2 1.2.5c.3.4.4.9.4 1.4v.2H5.6c0 .4.1.7.4.9c.2.2.5.3.8.3c.5 0 .9-.2 1.2-.5l.3.3s.02 0 0 0zm-2.7-1.4h2.3c0-.4-.1-.7-.3-.9c-.2-.2-.5-.3-.9-.3c-.3 0-.5.1-.7.3c-.3.2-.4.5-.4.9zm3.8 2v-3.6h.5s.03.61 0 .6c.3-.5.7-.7 1.3-.7c.4 0 .7.1 1 .4c.2.3.4.6.4 1.1c-.04-.05 0 2.2 0 2.2h-.6s.02-2.11 0-2.1c0-.4-.1-.6-.2-.8c-.2-.2-.5-.3-.8-.3c-.3 0-.6.1-.8.3c-.2.2-.3.5-.3.8c.03.03 0 2.1 0 2.1h-.5zm4.3-4.4v-.6h.6v.6h-.6zm.1 4.4v-3.6h.5v3.6h-.5zm2.6 1.1l-.5-.3s.54-.75.5-.8c-.4 0-.8-.2-1.2-.5l.3-.3c.4.3.8.4 1.3.4c.2 0 .4 0 .5-.1c.2-.1.2-.3.2-.5c0-.1-.1-.3-.2-.4c-.2 0-.4-.1-.7-.2c-.1 0-.2-.1-.3-.1c0 0-.1-.1-.2-.1c-.2 0-.2-.1-.3-.1l-.2-.2c-.1-.1-.1-.1-.1-.2c-.1-.1-.1-.2-.1-.3c0-.4.1-.6.4-.8c.2-.2.5-.3.9-.3c.4 0 .9.2 1.3.4l-.3.4c-.3-.2-.7-.3-1.1-.3c-.2 0-.3 0-.5.1c-.1.1-.2.2-.2.4c0 .1.1.1.1.2l.1.1l.2.2h.3c0 .1.1.1.3.1c.1.1.2.1.3.1c.1.1.2.1.3.2c.1 0 .2.1.3.2c.1 0 .1.1.2.2v.4c0 .3-.1.5-.3.7c-.2.2-.5.3-.8.4c-.02-.04-.5 1-.5 1zm2.7-1.1v-5.1h.5v5.1h-.5zm4.8-.6c-.4.5-.8.7-1.4.7c-.5 0-1-.2-1.3-.5c-.4-.4-.6-.8-.6-1.4c0-.5.2-1 .5-1.4c.4-.3.8-.5 1.3-.5c.5 0 .9.2 1.2.5c.3.4.5.9.5 1.4v.2h-2.9c0 .4.2.7.4.9c.3.2.5.3.9.3c.4 0 .8-.2 1.1-.5l.3.3s.05 0 0 0zm-2.7-1.4h2.3c0-.4-.1-.7-.3-.9c-.2-.2-.5-.3-.8-.3c-.3 0-.6.1-.8.3c-.2.2-.4.5-.4.9zm5.7 1.9c-.2.1-.4.2-.7.2c-.3 0-.5-.1-.7-.3c-.2-.2-.3-.4-.3-.8v-2.1h-.5v-.5h.5v-1.1h.5v1.1h1.2v.5h-1.2s.05 2.07 0 2.1c0 .4.2.6.7.6c.1 0 .3-.1.5-.2c-.02.05 0 .5 0 .5c0 0-.02.01 0 0zm1-4.3v-.6h.6v.6h-.6zm0 4.4v-3.6h.5v3.6h-.5zm1.8 0v-5.1h.6v5.1h-.6zm4.9-.6c-.4.5-.9.7-1.5.7c-.5 0-.9-.2-1.3-.5c-.3-.4-.5-.8-.5-1.4c0-.5.2-1 .5-1.4c.3-.3.7-.5 1.2-.5c.6 0 1 .2 1.3.5c.3.4.4.9.4 1.4v.2h-2.9c.1.4.2.7.5.9c.2.2.5.3.8.3c.5 0 .8-.2 1.2-.5c-.04 0 .3.3.3.3zm-2.8-1.4h2.4c0-.4-.2-.7-.4-.9c-.2-.2-.4-.3-.8-.3c-.3 0-.6.1-.8.3c-.2.2-.3.5-.4.9zm5.8 2.1c-.6 0-1-.3-1.4-.8v.7h-.5v-5.1h.5s.01 2.21 0 2.2c.4-.5.9-.8 1.4-.8c.5 0 .9.2 1.2.5c.4.4.5.8.5 1.4c0 .6-.1 1-.5 1.4c-.3.3-.7.5-1.2.5zm-.1-.5c.4 0 .7-.1.9-.4c.3-.2.4-.6.4-1c0-.4-.2-.8-.4-1c-.2-.3-.5-.4-.9-.4c-.3 0-.7.1-.9.4c-.3.3-.4.6-.4 1c0 .4.1.7.4 1c.2.3.5.4.9.4zm2.8-4v-.6h.6v.6h-.6zm.1 4.4v-3.6h.5v3.6h-.5zm1.8 0v-5.1h.5v5.1h-.5zm1.8-4.4v-.6h.6v.6h-.6zm0 4.4v-3.6h.6v3.6h-.6zm1.8 0v-3.6h.6s-.02.93 0 .9c.1-.3.3-.5.6-.7c.2-.2.5-.3.9-.3c-.04.02 0 .6 0 .6h-.1c-.4 0-.7.1-1 .4c-.3.3-.4.7-.4 1.3c-.02-.04 0 1.4 0 1.4h-.6zm2.2 0v-.7h.6v.7h-.6zm5.8 1.1l-.5-.3s.55-.74.5-.7c-.6-.1-1.1-.4-1.5-.9c-.4-.4-.6-1-.6-1.6v-.1c0-.7.3-1.3.7-1.7c.5-.5 1.1-.8 1.8-.8c.4 0 .8.1 1.1.2c.3.1.6.3.8.6l-.4.4c-.2-.2-.4-.4-.7-.5c-.2-.1-.5-.2-.8-.2c-.5 0-1 .2-1.4.6c-.3.4-.5.9-.5 1.4c0 .6.2 1.1.5 1.5c.4.4.9.6 1.4.6c.3 0 .6-.1.8-.2c.3-.1.5-.3.8-.5l.3.3c-.5.6-1.1.9-1.8.9l-.5 1zm3.3-1.1v-3.6h.5v3.6h-.5zm1.8 0v-5.1h.5v3.5l2-2h.7l-1.6 1.5l1.6 2.1h-.6l-1.3-1.7l-.8.8v.9h-.5zm6.3-.5c-.3.4-.8.6-1.3.6c-.4 0-.7-.1-1-.3c-.2-.2-.4-.5-.4-.9c0-.3.2-.6.5-.8c.2-.2.6-.3 1.1-.3c.3 0 .7 0 1.1.1v-.1c0-.3-.1-.6-.3-.7c-.2-.2-.4-.3-.8-.3c-.4 0-.7.1-1.1.3l-.1-.5c.4-.2.8-.3 1.3-.3c.5 0 .9.2 1.1.4c.3.3.4.6.4 1.1c.01-.01 0 2.2 0 2.2h-.5v-.5s-.01-.05 0 0zm-1.2.1c.3 0 .6 0 .8-.2c.3-.2.4-.4.4-.7v-.4c-.4-.1-.7-.1-1.1-.1c-.3 0-.6 0-.7.2c-.2.1-.3.3-.3.5c0 .2.1.4.2.6c.2.1.4.1.7.1zm2.9.4v-3.6h.5s-.01.93 0 .9c.1-.3.3-.5.6-.7c.2-.2.5-.3.9-.3c-.03.02 0 .6 0 .6h-.1c-.4 0-.7.1-1 .4c-.3.3-.4.7-.4 1.3v1.4h-.5zm2.8 0v-3.6h.6v3.6h-.6zm1.9 0v-5.1h.5v5.1h-.5zm4.2-.5c-.4.4-.8.6-1.3.6c-.4 0-.7-.1-1-.3c-.3-.2-.4-.5-.4-.9c0-.3.1-.6.4-.8c.3-.2.7-.3 1.1-.3c.4 0 .8 0 1.2.1v-.1c0-.3-.1-.6-.3-.7c-.2-.2-.5-.3-.8-.3c-.4 0-.7.1-1.1.3l-.2-.5c.4-.2.9-.3 1.3-.3c.6 0 .9.2 1.2.4c.3.3.4.6.4 1.1c-.02-.01 0 2.2 0 2.2h-.5v-.5s-.04-.05 0 0zm-1.2.1c.3 0 .6 0 .8-.2c.2-.2.4-.4.4-.7v-.4c-.4-.1-.8-.1-1.1-.1c-.3 0-.6 0-.8.2c-.2.1-.3.3-.3.5c0 .2.1.4.3.6c.2.1.4.1.7.1zm4.8.5c-.6 0-1.1-.3-1.4-.8c-.04.01 0 .7 0 .7h-.6v-5.1h.6s-.04 2.21 0 2.2c.3-.5.8-.8 1.4-.8c.4 0 .8.2 1.2.5c.3.4.5.8.5 1.4c0 .6-.2 1-.5 1.4c-.4.3-.8.5-1.2.5zm-.1-.5c.3 0 .6-.1.9-.4c.2-.2.3-.6.3-1c0-.4-.1-.8-.3-1c-.3-.3-.6-.4-.9-.4c-.4 0-.7.1-1 .4c-.2.3-.4.6-.4 1c0 .4.2.7.4 1c.3.3.6.4 1 .4zm2.8-4v-.6h.6v.6h-.6zm0 4.4v-3.6h.6v3.6h-.6zm1.9 0v-5.1h.5v5.1h-.5zm1.8-4.4v-.6h.6v.6h-.6zm0 4.4v-3.6h.5v3.6h-.5zm1.8 0v-3.6h.5s.03.93 0 .9c.2-.3.4-.5.6-.7c.3-.2.6-.3.9-.3v.6s-.03 0 0 0c-.4 0-.8.1-1.1.4c-.2.3-.4.7-.4 1.3c.03-.04 0 1.4 0 1.4h-.5zm4.9 0v-5.1h.6v3.5l1.9-2h.7l-1.5 1.5l1.5 2.1h-.6l-1.3-1.7l-.7.8v.9h-.6zm6.9-.6c-.4.5-.9.7-1.5.7c-.5 0-.9-.2-1.3-.5c-.3-.4-.5-.8-.5-1.4c0-.5.2-1 .5-1.4c.3-.3.8-.5 1.3-.5c.5 0 .9.2 1.2.5c.3.4.4.9.4 1.4v.2h-2.8c0 .4.1.7.4.9c.2.2.5.3.8.3c.5 0 .8-.2 1.2-.5c-.02 0 .3.3.3.3c0 0 .01 0 0 0zm-2.7-1.4h2.3c0-.4-.1-.7-.3-.9c-.2-.2-.5-.3-.9-.3c-.3 0-.5.1-.8.3c-.2.2-.3.5-.3.9zm5 2.1c-.6 0-1.1-.2-1.5-.6l.3-.3c.4.3.8.4 1.2.4c.2 0 .4 0 .6-.1c.1-.1.2-.3.2-.5c0-.1-.1-.3-.3-.4c-.1 0-.4-.1-.6-.2c-.2 0-.3-.1-.3-.1c-.1 0-.2-.1-.3-.1c-.1 0-.2-.1-.3-.1c0-.1-.1-.1-.2-.2c0-.1-.1-.1-.1-.2v-.3c0-.4.1-.6.3-.8c.2-.2.5-.3.9-.3c.5 0 .9.2 1.3.4l-.3.4c-.3-.2-.7-.3-1-.3c-.2 0-.4 0-.5.1c-.2.1-.2.2-.2.4v.2c.1 0 .1.1.2.1c0 .1.1.1.2.2h.2c.1.1.2.1.3.1c.1.1.3.1.3.1c.1.1.2.1.4.2c.1 0 .2.1.2.2c.1 0 .2.1.2.2c0 .1.1.2.1.4c0 .3-.2.6-.4.8c-.2.2-.5.3-.9.3zm2.3-.1v-3.6h.5v.6c.2-.2.3-.4.5-.5c.2-.1.4-.2.7-.2c.5 0 .9.2 1.1.7c.4-.5.8-.7 1.3-.7c.4 0 .8.1 1 .4c.2.3.4.6.4 1.1c-.04-.04 0 2.2 0 2.2h-.6s.02-2.11 0-2.1c0-.4-.1-.6-.2-.8c-.2-.2-.4-.3-.7-.3c-.3 0-.5.1-.7.3c-.2.2-.3.5-.3.8c-.02.01 0 2.1 0 2.1h-.6s.05-2.13 0-2.1c0-.4 0-.6-.2-.8c-.2-.2-.4-.3-.7-.3c-.3 0-.5.1-.7.3c-.2.2-.3.5-.3.8v2.1h-.5zm9.7-.6c-.4.5-.9.7-1.5.7c-.5 0-.9-.2-1.3-.5c-.3-.4-.5-.8-.5-1.4c0-.5.1-1 .5-1.4c.3-.3.7-.5 1.2-.5c.5 0 .9.2 1.2.5c.4.4.5.9.5 1.4v.2h-2.9c.1.4.2.7.4.9c.3.2.6.3.9.3c.4 0 .8-.2 1.1-.5c.04 0 .4.3.4.3c0 0-.02 0 0 0zm-2.8-1.4h2.4c-.1-.4-.2-.7-.4-.9c-.2-.2-.5-.3-.8-.3c-.3 0-.6.1-.8.3c-.2.2-.3.5-.4.9zm7.8 1.9c-.2.1-.4.2-.6.2c-.4 0-.6-.1-.8-.3c-.2-.2-.3-.4-.3-.8c.04.04 0-2.1 0-2.1h-.5v-.5h.5v-1.1h.6v1.1h1.1v.5h-1.1s-.02 2.07 0 2.1c0 .4.2.6.6.6c.2 0 .3-.1.5-.2v.5s.01.01 0 0zm3.4-.4c-.4.4-.8.6-1.3.6c-.4 0-.7-.1-1-.3c-.3-.2-.4-.5-.4-.9c0-.3.1-.6.4-.8c.3-.2.7-.3 1.2-.3c.3 0 .7 0 1.1.1v-.1c0-.3-.1-.6-.3-.7c-.2-.2-.5-.3-.8-.3c-.4 0-.7.1-1.1.3l-.2-.5c.4-.2.9-.3 1.3-.3c.6 0 .9.2 1.2.4c.3.3.4.6.4 1.1c-.02-.01 0 2.2 0 2.2h-.5v-.5s-.04-.05 0 0zm-1.2.1c.3 0 .6 0 .8-.2c.3-.2.4-.4.4-.7v-.4c-.4-.1-.7-.1-1.1-.1c-.3 0-.6 0-.8.2c-.2.1-.3.3-.3.5c0 .2.1.4.3.6c.2.1.4.1.7.1zm2.8.4v-5.1h.6s-.03 2.11 0 2.1c.3-.5.7-.7 1.2-.7c.4 0 .8.1 1 .4c.3.3.4.6.4 1.1c-.01-.05 0 2.2 0 2.2h-.5s-.05-2.11 0-2.1c0-.4-.1-.6-.3-.8c-.2-.2-.4-.3-.7-.3c-.4 0-.6.1-.8.3c-.2.2-.3.5-.3.8c-.03.03 0 2.1 0 2.1h-.6zm6.2-.1c-.2.1-.4.2-.6.2c-.4 0-.6-.1-.8-.3c-.2-.2-.3-.4-.3-.8c.03.04 0-2.1 0-2.1h-.5v-.5h.5v-1.1h.6v1.1h1.1v.5h-1.1s-.03 2.07 0 2.1c0 .4.2.6.6.6c.2 0 .3-.1.5-.2v.5s0 .01 0 0zm3.4-.4c-.4.4-.8.6-1.4.6c-.3 0-.6-.1-.9-.3c-.3-.2-.4-.5-.4-.9c0-.3.1-.6.4-.8c.3-.2.7-.3 1.1-.3c.4 0 .8 0 1.2.1v-.1c0-.3-.1-.6-.3-.7c-.2-.2-.5-.3-.8-.3c-.4 0-.8.1-1.1.3l-.2-.5c.4-.2.9-.3 1.3-.3c.5 0 .9.2 1.2.4c.3.3.4.6.4 1.1c-.03-.01 0 2.2 0 2.2h-.5v-.5s-.04-.05 0 0zm-1.2.1c.3 0 .6 0 .8-.2c.2-.2.4-.4.4-.7v-.4c-.4-.1-.8-.1-1.1-.1c-.3 0-.6 0-.8.2c-.2.1-.3.3-.3.5c0 .2.1.4.3.6c.2.1.4.1.7.1zm4 .5c-.5 0-1-.2-1.5-.6l.3-.3c.4.3.8.4 1.2.4c.3 0 .5 0 .6-.1c.1-.1.2-.3.2-.5c0-.1-.1-.3-.2-.4c-.2 0-.4-.1-.7-.2c-.1 0-.2-.1-.3-.1c-.1 0-.1-.1-.3-.1c-.1 0-.2-.1-.2-.1l-.2-.2l-.2-.2v-.3c0-.4.1-.6.3-.8c.3-.2.6-.3.9-.3c.5 0 .9.2 1.3.4l-.2.4c-.4-.2-.7-.3-1.1-.3c-.2 0-.4 0-.5.1c-.1.1-.2.2-.2.4c0 .1 0 .1.1.2s0 .1.1.1c0 .1.1.1.2.2h.3c0 .1.1.1.2.1c.2.1.3.1.4.1c.1.1.2.1.3.2c.1 0 .2.1.3.2c0 0 .1.1.1.2c.1.1.1.2.1.4c0 .3-.1.6-.4.8c-.2.2-.5.3-.9.3zm2.4-.1v-3.6h.5v3.6h-.5zm5.1 0l-1.6-3.6h.6l1.2 3l1.2-3h.6l-1.6 3.6h-.4zm5.1-.5c-.3.4-.8.6-1.3.6c-.4 0-.7-.1-1-.3c-.3-.2-.4-.5-.4-.9c0-.3.2-.6.4-.8c.3-.2.7-.3 1.2-.3c.3 0 .7 0 1.1.1v-.1c0-.3-.1-.6-.3-.7c-.2-.2-.5-.3-.8-.3c-.4 0-.7.1-1.1.3l-.2-.5c.5-.2.9-.3 1.3-.3c.6 0 1 .2 1.2.4c.3.3.4.6.4 1.1c-.01-.01 0 2.2 0 2.2h-.5v-.5s-.03-.05 0 0zm-1.2.1c.3 0 .6 0 .8-.2c.3-.2.4-.4.4-.7v-.4c-.4-.1-.7-.1-1.1-.1c-.3 0-.6 0-.8.2c-.2.1-.2.3-.2.5c0 .2 0 .4.2.6c.2.1.4.1.7.1zm2.8.4v-3.6h.6s-.03.93 0 .9c.1-.3.3-.5.6-.7c.2-.2.5-.3.9-.3c-.05.02 0 .6 0 .6h-.1c-.4 0-.7.1-1 .4c-.3.3-.4.7-.4 1.3c-.03-.04 0 1.4 0 1.4h-.6zm5.6-.7c-.3.5-.8.8-1.4.8c-.4 0-.8-.2-1.2-.5c-.3-.4-.5-.8-.5-1.4c0-.6.2-1 .5-1.4c.4-.3.8-.5 1.2-.5c.6 0 1.1.3 1.4.8c.03-.03 0-2.2 0-2.2h.6v5.1h-.6v-.7s.03-.03 0 0zm-1.3.3c.4 0 .7-.1 1-.4c.2-.3.3-.6.3-1c0-.4-.1-.8-.3-1c-.3-.3-.6-.4-1-.4c-.3 0-.6.1-.9.4c-.2.2-.3.6-.3 1c0 .4.1.8.3 1c.3.3.6.4.9.4zm3.1.4v-3.6h.6v3.6h-.6zm1.8 0v-3.6h.6s-.05.93 0 .9c.1-.3.3-.5.5-.7c.3-.2.6-.3.9-.3c.03.02 0 .6 0 .6c0 0-.01 0 0 0c-.4 0-.8.1-1 .4c-.3.3-.4.7-.4 1.3c-.05-.04 0 1.4 0 1.4h-.6zm2.1 0v-.7h.7v.7h-.7zm6.3 0V41h-2.5l-.2-.4l2.8-3.3h.5v3.3h.7v.4h-.7v1.2h-.6zm-2-1.6h2V38l-2 2.6zm8.8 1.1c-.3.4-.7.6-1.3.6c-.4 0-.7-.1-.9-.3c-.3-.2-.5-.5-.5-.9c0-.3.2-.6.5-.8c.3-.2.6-.3 1.1-.3c.4 0 .7 0 1.1.1v-.1c0-.3-.1-.6-.3-.7c-.2-.2-.4-.3-.8-.3c-.3 0-.7.1-1.1.3l-.1-.5c.4-.2.8-.3 1.3-.3c.5 0 .9.2 1.2.4c.2.3.3.6.3 1.1c.03-.01 0 2.2 0 2.2h-.5v-.5s.01-.05 0 0zm-1.2.1c.3 0 .6 0 .9-.2c.2-.2.3-.4.3-.7v-.4c-.3-.1-.7-.1-1-.1c-.4 0-.6 0-.8.2c-.2.1-.3.3-.3.5c0 .2.1.4.3.6c.1.1.4.1.6.1zm5.8-.3c-.4.5-.9.8-1.4.8c-.5 0-.9-.2-1.2-.5c-.4-.4-.5-.8-.5-1.4c0-.6.1-1 .5-1.4c.3-.3.7-.5 1.2-.5c.6 0 1 .3 1.4.8c-.02-.03 0-2.2 0-2.2h.5v5.1h-.5v-.7s-.02-.03 0 0zm-1.3.3c.3 0 .6-.1.9-.4c.3-.3.4-.6.4-1c0-.4-.1-.8-.4-1c-.3-.3-.6-.4-.9-.4c-.4 0-.7.1-.9.4c-.3.2-.4.6-.4 1c0 .4.1.8.4 1c.2.3.5.4.9.4zm6.1-.2c-.4.5-.9.7-1.5.7c-.5 0-.9-.2-1.3-.5c-.3-.4-.5-.8-.5-1.4c0-.5.2-1 .5-1.4c.3-.3.7-.5 1.2-.5c.6 0 1 .2 1.3.5c.3.4.4.9.4 1.4v.2h-2.9c.1.4.2.7.5.9c.2.2.5.3.8.3c.4 0 .8-.2 1.2-.5c-.04 0 .3.3.3.3zm-2.8-1.4h2.4c-.1-.4-.2-.7-.4-.9c-.2-.2-.4-.3-.8-.3c-.3 0-.6.1-.8.3c-.2.2-.3.5-.4.9zm5.7 1.9c-.2.1-.4.2-.6.2c-.3 0-.6-.1-.8-.3c-.2-.2-.2-.4-.2-.8c-.04.04 0-2.1 0-2.1h-.5v-.5h.5v-1.1h.5v1.1h1.1v.5h-1.1v2.1c0 .4.2.6.6.6c.2 0 .4-.1.5-.2c.03.05 0 .5 0 .5c0 0 .03.01 0 0zm3.1.1v-5.1h.5v3.5l2-2h.7l-1.6 1.5l1.6 2.1h-.6l-1.3-1.7l-.8.8v.9h-.5zm6.3-.5c-.3.4-.8.6-1.3.6c-.4 0-.7-.1-1-.3c-.2-.2-.4-.5-.4-.9c0-.3.2-.6.5-.8c.2-.2.6-.3 1.1-.3c.4 0 .7 0 1.1.1v-.1c0-.3-.1-.6-.3-.7c-.2-.2-.4-.3-.8-.3c-.3 0-.7.1-1.1.3l-.1-.5c.4-.2.8-.3 1.3-.3c.5 0 .9.2 1.1.4c.3.3.4.6.4 1.1c.01-.01 0 2.2 0 2.2h-.5v-.5s-.01-.05 0 0zm-1.2.1c.3 0 .6 0 .9-.2c.2-.2.3-.4.3-.7v-.4c-.4-.1-.7-.1-1.1-.1c-.3 0-.6 0-.7.2c-.2.1-.3.3-.3.5c0 .2.1.4.2.6c.2.1.4.1.7.1zm5.4-.2c-.3.4-.7.7-1.2.7c-.4 0-.8-.2-1-.4c-.3-.3-.4-.6-.4-1.1v-2.2h.5s.04 2.09 0 2.1c0 .3.1.6.3.8c.2.2.4.3.7.3c.4 0 .6-.1.8-.3c.2-.2.3-.5.3-.8c.03-.05 0-2.1 0-2.1h.6v3.6h-.6v-.6s.03-.03 0 0zm3 1.7l-.5-.3l.6-.8c-.5 0-.8-.2-1.1-.6c-.3-.3-.5-.7-.5-1.2c0-.5.2-1 .6-1.3c.3-.4.8-.6 1.3-.6c.6 0 1 .2 1.5.6l-.4.4c-.3-.3-.7-.5-1.1-.5c-.4 0-.7.1-.9.4c-.3.3-.4.6-.4 1c0 .4.1.7.4 1c.2.3.6.4.9.4c.4 0 .8-.2 1.1-.5l.4.3c-.4.4-.9.7-1.4.7l-.5 1zm5.3-1.7c-.3.4-.7.7-1.2.7c-.5 0-.8-.2-1-.4c-.3-.3-.4-.6-.4-1.1c-.01.03 0-2.2 0-2.2h.5s.02 2.09 0 2.1c0 .3.1.6.3.8c.2.2.4.3.7.3c.3 0 .6-.1.8-.3c.2-.2.3-.5.3-.8v-2.1h.5v3.6h-.5v-.6s.01-.03 0 0zm1.8.6v-5.1h.5v3.5l1.9-2h.7l-1.5 1.5l1.6 2.1h-.7l-1.3-1.7l-.7.8v.9h-.5z" stroke="none" fill="#000"/></g><g id="Polygon377607"><path d="m3 25.9v-.7h.6v.7h-.6zm-1.3 0v-.7h.6v.7h-.6zm1 5.4c-.7 0-1.2-.2-1.5-.6c-.4-.4-.6-.9-.6-1.6c.02.05 0-2.8 0-2.8h.6s-.03 2.81 0 2.8c0 .5.1.9.4 1.2c.2.3.6.5 1.1.5c.4 0 .8-.2 1.1-.4c.2-.3.3-.7.3-1.3c.04.05 0-2.8 0-2.8h.6v2.8c0 .7-.2 1.2-.6 1.6c-.3.4-.8.6-1.4.6zm4.5 1l-.5-.3s.51-.75.5-.8c-.4 0-.8-.2-1.1-.6c-.3-.3-.4-.7-.4-1.2c0-.5.2-1 .5-1.3c.4-.4.8-.6 1.3-.6c.6 0 1.1.2 1.5.6l-.4.4c-.3-.3-.7-.5-1.1-.5c-.3 0-.6.1-.9.4c-.2.3-.4.6-.4 1c0 .4.2.7.4 1c.3.3.6.4 1 .4c.4 0 .7-.2 1.1-.5l.3.3c-.4.4-.8.7-1.3.7c-.05-.02-.5 1-.5 1zm4.8-1.1v-3.6h.6s-.05.93 0 .9c.1-.3.3-.5.5-.7c.3-.2.6-.3.9-.3c.03.02 0 .6 0 .6c0 0-.01 0 0 0c-.4 0-.8.1-1 .4c-.3.3-.4.7-.4 1.3c-.05-.04 0 1.4 0 1.4h-.6zm5.1-.5c-.4.4-.8.6-1.4.6c-.3 0-.6-.1-.9-.3c-.3-.2-.4-.5-.4-.9c0-.3.1-.6.4-.8c.3-.2.7-.3 1.1-.3c.4 0 .8 0 1.2.1v-.1c0-.3-.1-.6-.3-.7c-.2-.2-.5-.3-.8-.3c-.4 0-.7.1-1.1.3l-.2-.5c.4-.2.9-.3 1.3-.3c.6 0 .9.2 1.2.4c.3.3.4.6.4 1.1c-.02-.01 0 2.2 0 2.2h-.5v-.5s-.04-.05 0 0zm-1.2.1c.3 0 .6 0 .8-.2c.2-.2.4-.4.4-.7v-.4c-.4-.1-.8-.1-1.1-.1c-.3 0-.6 0-.8.2c-.2.1-.3.3-.3.5c0 .2.1.4.3.6c.2.1.4.1.7.1zm3 .4v-3.1h-.5v-.5h.5s.03-.33 0-.3c0-.4.1-.7.3-1c.2-.1.5-.2.8-.2c.2 0 .4 0 .6.1v.4c-.2 0-.4-.1-.5-.1c-.4 0-.6.3-.6.8c-.04 0 0 .3 0 .3h1.1v.5h-1.1v3.1h-.6zm2.4 0v-5.1h.6v5.1h-.6zm1.9 0v-3.6h.5v3.6h-.5zm3.9 0v-3.6h.5s.02.59 0 .6c.2-.2.3-.4.5-.5c.2-.1.4-.2.7-.2c.5 0 .9.2 1.2.7c.3-.5.7-.7 1.2-.7c.4 0 .8.1 1 .4c.3.3.4.6.4 1.1c-.03-.04 0 2.2 0 2.2h-.6s.03-2.11 0-2.1c0-.4-.1-.6-.2-.8c-.2-.2-.4-.3-.7-.3c-.3 0-.5.1-.7.3c-.2.2-.3.5-.3.8v2.1h-.5s-.04-2.13 0-2.1c0-.4-.1-.6-.3-.8c-.2-.2-.4-.3-.7-.3c-.3 0-.5.1-.7.3c-.2.2-.3.5-.3.8c.02.03 0 2.1 0 2.1h-.5zm9.2-.6c-.3.4-.7.7-1.3.7c-.4 0-.7-.2-1-.4c-.2-.3-.3-.6-.3-1.1c-.04.03 0-2.2 0-2.2h.5v2.1c0 .3.1.6.3.8c.1.2.4.3.7.3c.3 0 .6-.1.8-.3c.2-.2.3-.5.3-.8v-2.1h.5v3.6h-.5v-.6s-.01-.03 0 0zm3.6.5c-.2.1-.4.2-.7.2c-.3 0-.5-.1-.7-.3c-.2-.2-.3-.4-.3-.8c.02.04 0-2.1 0-2.1h-.5v-.5h.5v-1.1h.6v1.1h1.1v.5h-1.1s-.04 2.07 0 2.1c0 .4.2.6.6.6c.1 0 .3-.1.5-.2v.5s-.01.01 0 0zm1.2.1v-3.1h-.5v-.5h.5s-.04-.33 0-.3c0-.4.1-.7.3-1c.2-.1.4-.2.8-.2c.2 0 .4 0 .5.1v.4c-.2 0-.3-.1-.5-.1c-.4 0-.6.3-.6.8v.3h1.1v.5h-1.1v3.1h-.5zm4.6-.5c-.3.4-.7.6-1.3.6c-.4 0-.7-.1-.9-.3c-.3-.2-.5-.5-.5-.9c0-.3.2-.6.5-.8c.3-.2.6-.3 1.1-.3c.4 0 .7 0 1.1.1v-.1c0-.3-.1-.6-.3-.7c-.2-.2-.4-.3-.8-.3c-.3 0-.7.1-1.1.3l-.1-.5c.4-.2.8-.3 1.3-.3c.5 0 .9.2 1.2.4c.2.3.3.6.3 1.1c.03-.01 0 2.2 0 2.2h-.5v-.5s.01-.05 0 0zm-1.2.1c.3 0 .6 0 .9-.2c.2-.2.3-.4.3-.7v-.4c-.3-.1-.7-.1-1-.1c-.4 0-.6 0-.8.2c-.2.1-.3.3-.3.5c0 .2.1.4.3.6c.1.1.4.1.6.1zm2.9.4v-5.1h.5v3.5l2-2h.6L49 29.1l1.6 2.1h-.7l-1.3-1.7l-.7.8v.9h-.5zm8.4-.5c-.3.4-.7.6-1.3.6c-.3 0-.6-.1-.9-.3c-.3-.2-.4-.5-.4-.9c0-.3.1-.6.4-.8c.3-.2.7-.3 1.1-.3c.4 0 .8 0 1.1.1v-.1c0-.3 0-.6-.2-.7c-.2-.2-.5-.3-.8-.3c-.4 0-.8.1-1.1.3l-.2-.5c.4-.2.9-.3 1.3-.3c.5 0 .9.2 1.2.4c.2.3.4.6.4 1.1c-.04-.01 0 2.2 0 2.2h-.6v-.5s.05-.05 0 0zm-1.2.1c.4 0 .7 0 .9-.2c.2-.2.4-.4.4-.7v-.4c-.4-.1-.8-.1-1.1-.1c-.3 0-.6 0-.8.2c-.2.1-.3.3-.3.5c0 .2.1.4.3.6c.2.1.4.1.6.1zm2.9.4v-3.6h.6s-.05.93 0 .9c.1-.3.3-.5.5-.7c.3-.2.6-.3.9-.3c.03.02 0 .6 0 .6c0 0-.01 0 0 0c-.4 0-.8.1-1 .4c-.3.3-.4.7-.4 1.3c-.05-.04 0 1.4 0 1.4h-.6zm5.1-.5c-.4.4-.8.6-1.4.6c-.3 0-.6-.1-.9-.3c-.3-.2-.4-.5-.4-.9c0-.3.1-.6.4-.8c.3-.2.7-.3 1.1-.3c.4 0 .8 0 1.2.1v-.1c0-.3-.1-.6-.3-.7c-.2-.2-.5-.3-.8-.3c-.4 0-.8.1-1.1.3l-.2-.5c.4-.2.9-.3 1.3-.3c.5 0 .9.2 1.2.4c.3.3.4.6.4 1.1c-.02-.01 0 2.2 0 2.2h-.5v-.5s-.04-.05 0 0zm-1.2.1c.3 0 .6 0 .8-.2c.2-.2.4-.4.4-.7v-.4c-.4-.1-.8-.1-1.1-.1c-.3 0-.6 0-.8.2c-.2.1-.3.3-.3.5c0 .2.1.4.3.6c.2.1.4.1.7.1zm4.7.5c-.5 0-1-.3-1.3-.8c-.04.01 0 .7 0 .7h-.6v-5.1h.6s-.04 2.21 0 2.2c.3-.5.8-.8 1.3-.8c.5 0 .9.2 1.3.5c.3.4.5.8.5 1.4c0 .6-.2 1-.5 1.4c-.4.3-.8.5-1.3.5zm0-.5c.3 0 .6-.1.9-.4c.2-.2.3-.6.3-1c0-.4-.1-.8-.3-1c-.3-.3-.6-.4-.9-.4c-.4 0-.7.1-1 .4c-.2.3-.4.6-.4 1c0 .4.2.7.4 1c.3.3.6.4 1 .4zm5.2-.1c-.4.4-.8.6-1.3.6c-.4 0-.7-.1-1-.3c-.3-.2-.4-.5-.4-.9c0-.3.1-.6.4-.8c.3-.2.7-.3 1.1-.3c.4 0 .8 0 1.2.1v-.1c0-.3-.1-.6-.3-.7c-.2-.2-.5-.3-.8-.3c-.4 0-.7.1-1.1.3l-.2-.5c.4-.2.9-.3 1.3-.3c.6 0 .9.2 1.2.4c.3.3.4.6.4 1.1c-.02-.01 0 2.2 0 2.2h-.5v-.5s-.04-.05 0 0zm-1.2.1c.3 0 .6 0 .8-.2c.2-.2.4-.4.4-.7v-.4c-.4-.1-.8-.1-1.1-.1c-.3 0-.6 0-.8.2c-.2.1-.3.3-.3.5c0 .2.1.4.3.6c.2.1.4.1.7.1zm4 .5c-.5 0-1-.2-1.5-.6l.3-.3c.4.3.8.4 1.3.4c.2 0 .4 0 .5-.1c.1-.1.2-.3.2-.5c0-.1-.1-.3-.2-.4c-.2 0-.4-.1-.7-.2c-.1 0-.2-.1-.3-.1c-.1 0-.1-.1-.3-.1c-.1 0-.2-.1-.2-.1l-.2-.2l-.2-.2v-.3c0-.4.1-.6.3-.8c.3-.2.6-.3.9-.3c.5 0 .9.2 1.3.4l-.2.4c-.4-.2-.7-.3-1.1-.3c-.2 0-.4 0-.5.1c-.1.1-.2.2-.2.4c0 .1 0 .1.1.2l.1.1c0 .1.1.1.2.2h.3c0 .1.1.1.2.1c.2.1.3.1.4.1c.1.1.2.1.3.2c.1 0 .2.1.3.2c0 0 .1.1.1.2c.1.1.1.2.1.4c0 .3-.1.6-.4.8c-.2.2-.5.3-.9.3zm2.4-.1v-3.6h.5v3.6h-.5zm1 .9l3.3-6.5h.4L78 32.1h-.5zm4-.9v-3.6h.5v.6c.1-.2.3-.4.5-.5c.2-.1.4-.2.7-.2c.5 0 .9.2 1.1.7c.3-.5.8-.7 1.3-.7c.4 0 .8.1 1 .4c.2.3.3.6.3 1.1c.05-.04 0 2.2 0 2.2h-.5v-2.1c0-.4-.1-.6-.2-.8c-.2-.2-.4-.3-.7-.3c-.3 0-.5.1-.7.3c-.2.2-.3.5-.3.8c-.03.01 0 2.1 0 2.1h-.6s.04-2.13 0-2.1c0-.4 0-.6-.2-.8c-.2-.2-.4-.3-.7-.3c-.3 0-.5.1-.7.3c-.2.2-.3.5-.3.8v2.1h-.5zm9-.5c-.3.4-.8.6-1.3.6c-.4 0-.7-.1-1-.3c-.2-.2-.4-.5-.4-.9c0-.3.2-.6.4-.8c.3-.2.7-.3 1.2-.3c.3 0 .7 0 1.1.1v-.1c0-.3-.1-.6-.3-.7c-.2-.2-.5-.3-.8-.3c-.4 0-.7.1-1.1.3l-.2-.5c.5-.2.9-.3 1.4-.3c.5 0 .9.2 1.1.4c.3.3.4.6.4 1.1v2.2h-.5v-.5s-.02-.05 0 0zm-1.2.1c.3 0 .6 0 .8-.2c.3-.2.4-.4.4-.7v-.4c-.4-.1-.7-.1-1.1-.1c-.3 0-.6 0-.8.2c-.1.1-.2.3-.2.5c0 .2.1.4.2.6c.2.1.4.1.7.1zm4 .5c-.5 0-1-.2-1.5-.6l.3-.3c.4.3.8.4 1.3.4c.2 0 .4 0 .5-.1c.2-.1.2-.3.2-.5c0-.1-.1-.3-.2-.4c-.2 0-.4-.1-.7-.2c-.1 0-.2-.1-.3-.1c0 0-.1-.1-.2-.1c-.2 0-.2-.1-.3-.1l-.2-.2c-.1-.1-.1-.1-.1-.2c-.1-.1-.1-.2-.1-.3c0-.4.1-.6.4-.8c.2-.2.5-.3.9-.3c.4 0 .9.2 1.3.4l-.3.4c-.3-.2-.7-.3-1.1-.3c-.2 0-.3 0-.5.1c-.1.1-.2.2-.2.4c0 .1.1.1.1.2l.1.1l.2.2h.3c0 .1.1.1.3.1c.1.1.2.1.3.1c.1.1.2.1.3.2c.1 0 .2.1.3.2c.1 0 .1.1.2.2v.4c0 .3-.1.6-.3.8c-.3.2-.6.3-1 .3zm4.7-.6c-.3.4-.7.6-1.3.6c-.4 0-.7-.1-.9-.3c-.3-.2-.4-.5-.4-.9c0-.3.1-.6.4-.8c.3-.2.6-.3 1.1-.3c.4 0 .7 0 1.1.1v-.1c0-.3-.1-.6-.3-.7c-.1-.2-.4-.3-.8-.3c-.3 0-.7.1-1.1.3l-.1-.5c.4-.2.8-.3 1.3-.3c.5 0 .9.2 1.2.4c.2.3.3.6.3 1.1c.04-.01 0 2.2 0 2.2h-.5v-.5s.02-.05 0 0zm-1.2.1c.4 0 .6 0 .9-.2c.2-.2.3-.4.3-.7v-.4c-.3-.1-.7-.1-1-.1c-.4 0-.6 0-.8.2c-.2.1-.3.3-.3.5c0 .2.1.4.3.6c.1.1.4.1.6.1zm4.1.5c-.6 0-1.1-.2-1.5-.6l.3-.3c.4.3.8.4 1.2.4c.2 0 .4 0 .6-.1c.1-.1.2-.3.2-.5c0-.1-.1-.3-.3-.4c-.1 0-.3-.1-.6-.2c-.2 0-.3-.1-.3-.1c-.1 0-.2-.1-.3-.1c-.1 0-.2-.1-.3-.1c0-.1-.1-.1-.1-.2c-.1-.1-.2-.1-.2-.2v-.3c0-.4.1-.6.3-.8c.2-.2.5-.3.9-.3c.5 0 .9.2 1.3.4l-.3.4c-.3-.2-.7-.3-1-.3c-.2 0-.4 0-.5.1c-.2.1-.2.2-.2.4v.2c.1 0 .1.1.2.1c0 .1.1.1.2.2h.2c.1.1.2.1.3.1c.1.1.3.1.3.1c.1.1.2.1.4.2c.1 0 .2.1.2.2c.1 0 .2.1.2.2c0 .1.1.2.1.4c0 .3-.2.6-.4.8c-.2.2-.5.3-.9.3zm2.3-.1v-3.6h.6v3.6h-.6zm1.7 0v-.7h.7v.7h-.7zm6.3-5.3v-.7h.7v.7h-.7zm-1.3 0v-.7h.6v.7h-.6zm1 5.4c-.6 0-1.1-.2-1.5-.6c-.4-.4-.6-.9-.6-1.6c.03.05 0-2.8 0-2.8h.6v2.8c0 .5.1.9.4 1.2c.2.3.6.5 1.1.5c.4 0 .8-.2 1.1-.4c.2-.3.4-.7.4-1.3c-.04.05 0-2.8 0-2.8h.5s.02 2.81 0 2.8c0 .7-.2 1.2-.5 1.6c-.4.4-.9.6-1.5.6zm4.4 0c-.5 0-1-.2-1.5-.6l.3-.3c.4.3.8.4 1.3.4c.2 0 .4 0 .5-.1c.1-.1.2-.3.2-.5c0-.1-.1-.3-.2-.4c-.2 0-.4-.1-.7-.2c-.1 0-.2-.1-.3-.1c0 0-.1-.1-.2-.1c-.2 0-.3-.1-.3-.1l-.2-.2c-.1-.1-.1-.1-.1-.2c-.1-.1-.1-.2-.1-.3c0-.4.1-.6.4-.8c.2-.2.5-.3.8-.3c.5 0 .9.2 1.3.4l-.2.4c-.4-.2-.7-.3-1.1-.3c-.2 0-.4 0-.5.1c-.1.1-.2.2-.2.4c0 .1 0 .1.1.2l.1.1l.2.2h.3c0 .1.1.1.3.1c.1.1.2.1.3.1c.1.1.2.1.3.2c.1 0 .2.1.3.2c0 0 .1.1.1.2c.1.1.1.2.1.4c0 .3-.1.6-.3.8c-.3.2-.6.3-1 .3zm4.1-.2c-.2.1-.4.2-.6.2c-.4 0-.6-.1-.8-.3c-.2-.2-.3-.4-.3-.8c.04.04 0-2.1 0-2.1h-.5v-.5h.5v-1.1h.6v1.1h1.1v.5h-1.1s-.02 2.07 0 2.1c0 .4.2.6.6.6c.2 0 .3-.1.5-.2v.5s.01.01 0 0zm4.4 1.2l-.6-.3l.6-.8c-.5 0-.8-.2-1.1-.6c-.3-.3-.4-.7-.4-1.2c0-.5.1-1 .5-1.3c.3-.4.8-.6 1.3-.6c.6 0 1.1.2 1.5.6l-.4.4c-.3-.3-.7-.5-1.1-.5c-.4 0-.7.1-.9.4c-.3.3-.4.6-.4 1c0 .4.1.7.4 1c.2.3.6.4.9.4c.4 0 .8-.2 1.1-.5l.4.3c-.4.4-.9.7-1.4.7l-.4 1zm5.1-1.6c-.4.4-.8.6-1.3.6c-.4 0-.7-.1-1-.3c-.3-.2-.4-.5-.4-.9c0-.3.1-.6.4-.8c.3-.2.7-.3 1.1-.3c.4 0 .8 0 1.2.1v-.1c0-.3-.1-.6-.3-.7c-.2-.2-.5-.3-.8-.3c-.4 0-.7.1-1.1.3l-.2-.5c.4-.2.9-.3 1.3-.3c.6 0 .9.2 1.2.4c.3.3.4.6.4 1.1c-.02-.01 0 2.2 0 2.2h-.5v-.5s-.04-.05 0 0zm-1.2.1c.3 0 .6 0 .8-.2c.3-.2.4-.4.4-.7v-.4c-.4-.1-.8-.1-1.1-.1c-.3 0-.6 0-.8.2c-.2.1-.3.3-.3.5c0 .2.1.4.3.6c.2.1.4.1.7.1zm2.9.4v-5.1h.5v5.1h-.5zm1.8 0v-3.6h.6v3.6h-.6zm2.7 1.1l-.5-.3s.5-.75.5-.8c-.5 0-.9-.2-1.2-.5l.3-.3c.4.3.8.4 1.2.4c.3 0 .4 0 .6-.1c.1-.1.2-.3.2-.5c0-.1-.1-.3-.2-.4c-.2 0-.4-.1-.7-.2c-.2 0-.2-.1-.3-.1c-.1 0-.2-.1-.3-.1c-.1 0-.2-.1-.2-.1c-.1-.1-.2-.1-.2-.2l-.2-.2v-.3c0-.4.1-.6.3-.8c.3-.2.6-.3.9-.3c.5 0 .9.2 1.3.4l-.2.4c-.4-.2-.7-.3-1.1-.3c-.2 0-.4 0-.5.1c-.1.1-.2.2-.2.4c0 .1 0 .1.1.2s0 .1.1.1c0 .1.1.1.2.2h.2c.1.1.2.1.3.1c.2.1.3.1.4.1c.1.1.2.1.3.2c.1 0 .2.1.3.2c0 0 .1.1.1.2c.1.1.1.2.1.4c0 .3-.1.5-.3.7c-.2.2-.5.3-.9.4c.05-.04-.4 1-.4 1zm2.6-1.1v-3.6h.5s.03.59 0 .6c.2-.2.3-.4.5-.5c.2-.1.4-.2.7-.2c.5 0 .9.2 1.2.7c.3-.5.7-.7 1.2-.7c.5 0 .8.1 1 .4c.3.3.4.6.4 1.1c-.02-.04 0 2.2 0 2.2h-.6s.04-2.11 0-2.1c0-.4 0-.6-.2-.8c-.2-.2-.4-.3-.7-.3c-.3 0-.5.1-.7.3c-.2.2-.3.5-.3.8v2.1h-.5s-.03-2.13 0-2.1c0-.4-.1-.6-.3-.8c-.1-.2-.4-.3-.7-.3c-.2 0-.5.1-.7.3c-.2.2-.3.5-.3.8c.03.03 0 2.1 0 2.1h-.5zm9-.5c-.3.4-.7.6-1.3.6c-.4 0-.7-.1-.9-.3c-.3-.2-.4-.5-.4-.9c0-.3.1-.6.4-.8c.3-.2.6-.3 1.1-.3c.4 0 .7 0 1.1.1v-.1c0-.3-.1-.6-.3-.7c-.1-.2-.4-.3-.8-.3c-.3 0-.7.1-1.1.3l-.1-.5c.4-.2.8-.3 1.3-.3c.5 0 .9.2 1.2.4c.2.3.3.6.3 1.1c.04-.01 0 2.2 0 2.2h-.5v-.5s.02-.05 0 0zm-1.2.1c.4 0 .6 0 .9-.2c.2-.2.3-.4.3-.7v-.4c-.3-.1-.7-.1-1-.1c-.4 0-.6 0-.8.2c-.2.1-.3.3-.3.5c0 .2.1.4.3.6c.1.1.4.1.6.1zm6.8.3c-.1.1-.4.2-.6.2c-.3 0-.6-.1-.8-.3c-.1-.2-.2-.4-.2-.8c-.03.04 0-2.1 0-2.1h-.5v-.5h.5v-1.1h.5v1.1h1.2v.5h-1.2v2.1c0 .4.2.6.6.6c.2 0 .4-.1.5-.2c.05.05 0 .5 0 .5c0 0 .05.01 0 0zm3.4-.4c-.3.4-.8.6-1.3.6c-.4 0-.7-.1-1-.3c-.2-.2-.4-.5-.4-.9c0-.3.2-.6.5-.8c.2-.2.6-.3 1.1-.3c.4 0 .7 0 1.1.1v-.1c0-.3-.1-.6-.3-.7c-.2-.2-.4-.3-.8-.3c-.3 0-.7.1-1.1.3l-.1-.5c.4-.2.8-.3 1.3-.3c.5 0 .9.2 1.1.4c.3.3.4.6.4 1.1c.02-.01 0 2.2 0 2.2h-.5v-.5s0-.05 0 0zm-1.2.1c.3 0 .6 0 .9-.2c.2-.2.3-.4.3-.7v-.4c-.4-.1-.7-.1-1.1-.1c-.3 0-.6 0-.7.2c-.2.1-.3.3-.3.5c0 .2.1.4.3.6c.1.1.3.1.6.1zm4.8.5c-.6 0-1-.3-1.4-.8v.7h-.5v-5.1h.5v2.2c.4-.5.8-.8 1.4-.8c.5 0 .9.2 1.2.5c.3.4.5.8.5 1.4c0 .6-.2 1-.5 1.4c-.3.3-.7.5-1.2.5zm-.1-.5c.4 0 .7-.1.9-.4c.2-.2.4-.6.4-1c0-.4-.2-.8-.4-1c-.2-.3-.5-.4-.9-.4c-.4 0-.7.1-.9.4c-.3.3-.4.6-.4 1c0 .4.1.7.4 1c.2.3.5.4.9.4zm2.9.4v-5.1h.5v5.1h-.5zm4.1-.5c-.3.4-.7.6-1.3.6c-.3 0-.6-.1-.9-.3c-.3-.2-.4-.5-.4-.9c0-.3.1-.6.4-.8c.3-.2.7-.3 1.1-.3c.4 0 .8 0 1.1.1v-.1c0-.3-.1-.6-.2-.7c-.2-.2-.5-.3-.8-.3c-.4 0-.8.1-1.1.3l-.2-.5c.4-.2.9-.3 1.3-.3c.5 0 .9.2 1.2.4c.2.3.4.6.4 1.1c-.04-.01 0 2.2 0 2.2h-.6v-.5s.04-.05 0 0zm-1.2.1c.4 0 .7 0 .9-.2c.2-.2.3-.4.3-.7v-.4c-.3-.1-.7-.1-1-.1c-.4 0-.6 0-.8.2c-.2.1-.3.3-.3.5c0 .2.1.4.3.6c.2.1.4.1.6.1zm4.1.5c-.6 0-1.1-.2-1.5-.6l.3-.3c.4.3.8.4 1.2.4c.3 0 .4 0 .6-.1c.1-.1.2-.3.2-.5c0-.1-.1-.3-.3-.4c-.1 0-.3-.1-.6-.2c-.2 0-.2-.1-.3-.1c-.1 0-.2-.1-.3-.1c-.1 0-.2-.1-.2-.1c-.1-.1-.2-.1-.2-.2l-.2-.2v-.3c0-.4.1-.6.3-.8c.3-.2.6-.3.9-.3c.5 0 .9.2 1.3.4l-.2.4c-.4-.2-.7-.3-1.1-.3c-.2 0-.4 0-.5.1c-.1.1-.2.2-.2.4c0 .1 0 .1.1.2s0 .1.1.1c0 .1.1.1.2.2h.2c.1.1.2.1.3.1c.2.1.3.1.4.1c.1.1.2.1.3.2c.1 0 .2.1.2.2c.1 0 .2.1.2.2c.1.1.1.2.1.4c0 .3-.1.6-.4.8c-.2.2-.5.3-.9.3zm2.3-.1v-3.6h.6v3.6h-.6z" stroke="none" fill="#000"/></g><g id="Polygon377606"><path d="m4.7 11.3c-1.7 0-3-.5-4.2-1.5l1.3-1.6c1 .8 1.9 1.2 2.9 1.2c.5 0 .8 0 1-.2c.3-.2.4-.4.4-.7c0-.3-.1-.5-.4-.7c-.2-.2-.8-.4-1.6-.6c-.5-.1-1-.2-1.3-.4c-.4-.1-.7-.3-1-.5c-.3-.2-.5-.5-.7-.9C1 5.1.9 4.7.9 4.2c0-.9.3-1.6.9-2.1c.7-.6 1.5-.8 2.5-.8c1.4 0 2.6.4 3.7 1.2L6.8 4.1c-.9-.6-1.7-.9-2.5-.9c-.4 0-.7 0-.9.2c-.3.2-.4.4-.4.6c0 .4.2.6.4.8c.3.1.9.3 1.8.5c1 .3 1.8.7 2.3 1.1c.5.4.8 1.1.8 1.9c0 1-.4 1.7-1 2.2c-.7.6-1.6.8-2.6.8zM16.5 10c-.7.9-1.7 1.4-3 1.4c-1.2 0-2.1-.4-2.8-1.1c-.8-.7-1.2-1.7-1.2-2.8c0-1.1.4-2.1 1.1-2.8c.7-.8 1.6-1.1 2.7-1.1c1.1 0 2 .3 2.7 1.1c.6.8.9 1.8.9 2.9v.6h-5.2c.1.5.3.8.6 1.1c.3.2.7.4 1.2.4c.6 0 1.2-.3 1.8-.8c.02-.01 1.2 1.1 1.2 1.1c0 0 .03-.03 0 0zm-4.9-3.1h3.2c0-.5-.2-.9-.5-1.2c-.2-.3-.6-.4-1-.4c-.5 0-.8.1-1.1.4c-.3.3-.5.7-.6 1.2zm6.9 4.3V3.7h2.1s.02 1.51 0 1.5c.5-1.1 1.3-1.7 2.4-1.6c.02-.04 0 2.2 0 2.2c0 0-.1-.02-.1 0c-.7 0-1.3.2-1.7.6c-.4.5-.6 1.1-.6 2c.02.03 0 2.8 0 2.8h-2.1zm8.1.1l-2.9-7.6h2.2l1.7 5l1.7-5h2.2l-2.9 7.6h-2zm6.2-8.4V1h2.2v1.9h-2.2zm0 8.3V3.7h2.2v7.5h-2.2zm3.9-3.3V5.8h4.3v2.1h-4.3zm10.2 3c-.5.3-1 .4-1.7.4c-.7 0-1.2-.1-1.6-.5c-.4-.3-.6-.9-.6-1.7c.04-.03 0-3.6 0-3.6h-.9V3.7h.9V1.8h2.2v1.9h1.7v1.8h-1.7s-.04 3.22 0 3.2c0 .5.2.7.6.7c.4 0 .8 0 1.1-.2v1.7s0-.01 0 0zm6.3-.8c-.6.8-1.4 1.2-2.2 1.2c-.8 0-1.5-.2-1.9-.7c-.4-.5-.7-1.2-.7-2c.04-.05 0-4.9 0-4.9h2.2s-.03 4.18 0 4.2c0 1 .4 1.5 1.3 1.5c.4 0 .7-.1.9-.4c.3-.2.4-.6.4-1.1V3.7h2.1v7.5h-2.1v-1.1s-.01.04 0 0z" stroke="none" fill="#000"/></g></svg>