<?xml version="1.0" standalone="no"?><!DOCTYPE svg PUBLIC "-//W3C//DTD SVG 1.1//EN" "http://www.w3.org/Graphics/SVG/1.1/DTD/svg11.dtd"><svg xmlns="http://www.w3.org/2000/svg" version="1.1" width="173px" height="126.6px" viewBox="0 -3 173 126.6" style="top:-3px"><desc>TOWER Dayama Merdiven r n Kodu: WH 2812 l ler: 45x24x160 cm Malzeme: elik / Ah ap Paketleme: Kahverengi Kutu Kuru...</desc><defs/><g id="Polygon371088"><path d="m.8 90.4v-5.6h.6v3.3l3.2-3.3h.9l-2.4 2.4l2.5 3.2h-.8l-2.2-2.7l-1.2 1.2v1.5h-.6zm8.4-.7c-.3.5-.8.8-1.4.8c-.5 0-.9-.2-1.2-.5c-.2-.3-.4-.7-.4-1.2c.02.03 0-2.5 0-2.5h.6s.03 2.38 0 2.4c0 .4.1.7.3.9c.2.2.5.3.9.3c.3 0 .6-.1.9-.3c.2-.3.3-.6.3-1c.02.03 0-2.3 0-2.3h.6v4.1h-.6v-.7s.02-.02 0 0zm2 .7v-4.1h.6s.02 1.04 0 1c.2-.3.4-.6.7-.8c.3-.2.6-.3 1-.3v.7s-.04-.04 0 0c-.5 0-.9.1-1.2.5c-.3.3-.5.7-.5 1.4c.02-.05 0 1.6 0 1.6h-.6zm6.2-.7c-.4.5-.8.8-1.4.8c-.5 0-.9-.2-1.2-.5c-.3-.3-.4-.7-.4-1.2c-.02.03 0-2.5 0-2.5h.6v2.4c0 .4.1.7.3.9c.2.2.5.3.8.3c.4 0 .7-.1.9-.3c.3-.3.4-.6.4-1c-.02.03 0-2.3 0-2.3h.6v4.1h-.6v-.7s-.02-.02 0 0zm2 .7v-5.8h.6v5.8h-.6zm5-.7c-.3.5-.8.8-1.4.8c-.5 0-.9-.2-1.2-.5c-.2-.3-.4-.7-.4-1.2c.02.03 0-2.5 0-2.5h.6s.03 2.38 0 2.4c0 .4.1.7.3.9c.2.2.5.3.9.3c.3 0 .6-.1.9-.3c.2-.3.3-.6.3-1c.02.03 0-2.3 0-2.3h.6v4.1h-.6v-.7s.02-.02 0 0zm2 .7v-4.1h.6s.02.66 0 .7c.2-.3.4-.5.6-.6c.2-.2.4-.2.8-.2c.6 0 1 .3 1.3.8c.4-.5.8-.8 1.4-.8c.5 0 .9.1 1.2.4c.2.3.4.7.4 1.2c-.02.04 0 2.6 0 2.6h-.6s-.04-2.42 0-2.4c0-.4-.1-.7-.3-.9c-.2-.3-.5-.4-.8-.4c-.3 0-.6.2-.8.4c-.2.2-.4.5-.4.9c.05.02 0 2.4 0 2.4h-.6s.04-2.43 0-2.4c0-.4-.1-.7-.2-.9c-.2-.3-.5-.4-.8-.4c-.4 0-.6.2-.8.4c-.3.2-.4.6-.4.9c.02.04 0 2.4 0 2.4h-.6zm14.9-.8c-.6.6-1.3.9-2.2.9c-.9 0-1.6-.3-2.1-.8c-.5-.6-.8-1.3-.8-2.1c0-.8.3-1.5.8-2c.6-.6 1.2-.9 2.1-.9c.4 0 .8.1 1.1.2c.3.1.6.3.9.5l-.4.5c-.4-.4-1-.6-1.7-.6c-.6 0-1.1.2-1.5.7c-.4.4-.6.9-.6 1.6c0 .7.2 1.2.6 1.7c.4.4.9.6 1.6.6c.6 0 1.2-.2 1.6-.5c.04-.03 0-1.4 0-1.4H39v-.6h2.3v2.2s.04.04 0 0zm4.9.1c-.5.5-1 .8-1.7.8c-.6 0-1.1-.2-1.5-.6c-.4-.4-.6-.9-.6-1.6c0-.6.2-1.1.6-1.5c.3-.4.8-.6 1.4-.6c.6 0 1.1.2 1.4.6c.3.4.5.9.5 1.6v.2H43c.1.4.2.7.5 1c.3.2.6.4 1 .4c.5 0 .9-.2 1.3-.6l.4.3s-.02.02 0 0zM43 88.1h2.7c0-.4-.2-.7-.4-1c-.2-.3-.5-.4-.9-.4c-.4 0-.7.1-.9.4c-.3.3-.4.6-.5 1zm4.4 2.3v-4.1h.6s.02 1.04 0 1c.2-.3.4-.6.7-.8c.3-.2.6-.3 1-.3v.7s-.04-.04 0 0c-.5 0-.9.1-1.2.5c-.3.3-.5.7-.5 1.4c.02-.05 0 1.6 0 1.6h-.6zm6.6-.7c-.5.5-1 .8-1.7.8c-.6 0-1.1-.2-1.5-.6c-.4-.4-.6-.9-.6-1.6c0-.6.2-1.1.6-1.5c.3-.4.8-.6 1.4-.6c.6 0 1.1.2 1.4.6c.3.4.5.9.5 1.6v.2h-3.3c.1.4.2.7.5 1c.3.2.6.4 1 .4c.5 0 .9-.2 1.3-.6l.4.3s-.02.02 0 0zm-3.2-1.6h2.7c0-.4-.2-.7-.4-1c-.2-.3-.5-.4-.9-.4c-.4 0-.7.1-.9.4c-.3.3-.4.6-.5 1zm4.4 2.3v-5.8h.6v4l2.2-2.3h.8L57.1 88l1.8 2.4h-.8l-1.4-1.9l-.9.8v1.1h-.6zm6.6-.1c-.2.1-.5.2-.7.2c-.4 0-.7-.1-.9-.3c-.2-.2-.3-.5-.3-.9c-.01 0 0-2.5 0-2.5h-.6v-.5h.6V85h.6v1.3h1.3v.5h-1.3v2.4c0 .5.2.7.7.7c.2 0 .4 0 .6-.1v.5zm1.1-4.9v-.7h.7v.7h-.7zm.1 5v-4.1h.6v4.1h-.6zm2 0v-4.1h.6s.02 1.04 0 1c.2-.3.4-.6.7-.8c.3-.2.6-.3 1-.3v.7s-.04-.04 0 0c-.5 0-.9.1-1.2.5c-.3.3-.5.7-.5 1.4c.02-.05 0 1.6 0 1.6h-.6zm3.3-5v-.7h.7v.7h-.7zm0 5v-4.1h.6v4.1h-.6zm2.1 0v-4.1h.6s-.03 1.04 0 1c.1-.3.4-.6.6-.8c.3-.2.7-.3 1.1-.3c-.04-.01 0 .7 0 .7c0 0-.09-.04-.1 0c-.5 0-.9.1-1.2.5c-.3.3-.4.7-.4 1.4c-.03-.05 0 1.6 0 1.6h-.6z" stroke="none" fill="#000"/></g><g id="Polygon371087"><path d="m.8 76.4v-5.6h2.1c.6 0 1.1.2 1.5.5c.4.3.6.7.6 1.3c0 .6-.2 1-.6 1.3c-.5.4-1 .5-1.6.5c-.02.02-1.4 0-1.4 0v2h-.6zm.6-2.6s1.41.05 1.4 0c.5 0 .8-.1 1.1-.3c.3-.2.4-.5.4-.9c0-.4-.1-.7-.4-.9c-.2-.2-.6-.3-1.1-.3c.04-.02-1.4 0-1.4 0v2.4zm7.3 2c-.4.5-.9.7-1.5.7c-.4 0-.8-.1-1.1-.4c-.3-.2-.5-.5-.5-.9c0-.4.2-.8.5-1c.3-.2.8-.4 1.3-.4c.4 0 .9.1 1.3.2v-.1c0-.4-.1-.7-.3-.9c-.3-.2-.6-.2-1-.2c-.4 0-.8.1-1.2.3l-.2-.5c.5-.3 1-.4 1.5-.4c.6 0 1 .2 1.3.5c.3.2.5.6.5 1.2c-.03-.03 0 2.5 0 2.5h-.6v-.6s-.02-.02 0 0zm-1.4.2c.4 0 .7-.1 1-.3c.3-.2.4-.5.4-.8v-.4c-.4-.1-.8-.2-1.2-.2c-.4 0-.7.1-.9.2c-.2.2-.3.4-.3.7c0 .2.1.4.3.6c.2.1.4.2.7.2zm3.3.4v-5.8h.6v4l2.2-2.3h.8L12.5 74l1.8 2.4h-.8L12 74.5l-.8.8v1.1h-.6zm7.8-.7c-.4.5-1 .8-1.7.8c-.5 0-1-.2-1.4-.6c-.4-.4-.6-.9-.6-1.6c0-.6.2-1.1.5-1.5c.4-.4.9-.6 1.5-.6c.6 0 1 .2 1.4.6c.3.4.5.9.5 1.6v.2h-3.3c0 .4.2.7.5 1c.3.2.6.4 1 .4c.5 0 .9-.2 1.3-.6c-.04-.02.3.3.3.3c0 0 .05.02 0 0zm-3.1-1.6h2.7c-.1-.4-.2-.7-.4-1c-.2-.3-.6-.4-1-.4c-.3 0-.6.1-.9.4c-.2.3-.4.6-.4 1zm6.5 2.2c-.2.1-.5.2-.7.2c-.4 0-.7-.1-.9-.3c-.2-.2-.3-.5-.3-.9c-.01 0 0-2.5 0-2.5h-.6v-.5h.6V71h.6v1.3h1.3v.5h-1.3v2.4c0 .5.2.7.7.7c.2 0 .4 0 .6-.1v.5zm1.2.1v-5.8h.6v5.8h-.6zm5.5-.7c-.4.5-1 .8-1.7.8c-.6 0-1-.2-1.4-.6c-.4-.4-.6-.9-.6-1.6c0-.6.1-1.1.5-1.5c.4-.4.9-.6 1.4-.6c.6 0 1.1.2 1.4.6c.4.4.6.9.6 1.6v.2h-3.3c0 .4.2.7.5 1c.2.2.6.4.9.4c.5 0 1-.2 1.3-.6c.04-.02.4.3.4.3c0 0 .02.02 0 0zm-3.1-1.6h2.6c0-.4-.1-.7-.3-1c-.3-.3-.6-.4-1-.4c-.3 0-.6.1-.9.4c-.2.3-.4.6-.4 1zm4.3 2.3v-4.1h.7s-.04.66 0 .7c.1-.3.3-.5.5-.6c.2-.2.5-.2.8-.2c.6 0 1.1.3 1.3.8c.4-.5.9-.8 1.5-.8c.5 0 .8.1 1.1.4c.3.3.4.7.4 1.2c.02.04 0 2.6 0 2.6h-.6V74c0-.4-.1-.7-.3-.9c-.2-.3-.4-.4-.8-.4c-.3 0-.6.2-.8.4c-.2.2-.3.5-.3.9c-.02.02 0 2.4 0 2.4h-.6s-.02-2.43 0-2.4c0-.4-.1-.7-.3-.9c-.2-.3-.5-.4-.8-.4c-.3 0-.6.2-.8.4c-.2.2-.3.6-.3.9c-.04.04 0 2.4 0 2.4h-.7zm11.1-.7c-.4.5-1 .8-1.7.8c-.5 0-1-.2-1.4-.6c-.4-.4-.6-.9-.6-1.6c0-.6.2-1.1.5-1.5c.4-.4.9-.6 1.5-.6c.5 0 1 .2 1.4.6c.3.4.5.9.5 1.6v.2h-3.3c0 .4.2.7.5 1c.2.2.6.4 1 .4c.4 0 .9-.2 1.3-.6c-.04-.02.3.3.3.3c0 0 .04.02 0 0zm-3.1-1.6h2.7c-.1-.4-.2-.7-.4-1c-.3-.3-.6-.4-1-.4c-.3 0-.6.1-.9.4c-.2.3-.4.6-.4 1zm4.3-1v-.8h.8v.8h-.8zm0 3.3v-.8h.8v.8h-.8zm4.6 0v-5.6h.6v3.3l3.2-3.3h.9l-2.4 2.4l2.5 3.2h-.8l-2.2-2.7l-1.2 1.2v1.5h-.6zm8.3-.6c-.4.5-.9.7-1.5.7c-.4 0-.8-.1-1.1-.4c-.3-.2-.4-.5-.4-.9c0-.4.1-.8.4-1c.4-.2.8-.4 1.3-.4c.4 0 .9.1 1.3.2v-.1c0-.4-.1-.7-.3-.9c-.2-.2-.5-.2-.9-.2c-.5 0-.9.1-1.3.3l-.2-.5c.5-.3 1-.4 1.5-.4c.6 0 1.1.2 1.4.5c.2.2.4.6.4 1.2c-.01-.03 0 2.5 0 2.5h-.6v-.6s0-.02 0 0zm-1.4.2c.4 0 .7-.1 1-.3c.3-.2.4-.5.4-.8v-.4c-.4-.1-.8-.2-1.2-.2c-.4 0-.7.1-.9.2c-.2.2-.3.4-.3.7c0 .2.1.4.3.6c.2.1.4.2.7.2zm3.3.4v-5.8h.6s.02 2.38 0 2.4c.4-.6.8-.8 1.4-.8c.5 0 .9.1 1.2.4c.3.3.4.7.4 1.2c.02.03 0 2.6 0 2.6h-.6V74c0-.4-.1-.7-.3-.9c-.2-.3-.5-.4-.8-.4c-.4 0-.7.2-.9.4c-.3.2-.4.5-.4.9c.02.03 0 2.4 0 2.4h-.6zm6.2 0l-1.8-4.1h.6l1.4 3.4l1.4-3.4h.7l-1.8 4.1h-.5zm6.5-.7c-.4.5-1 .8-1.7.8c-.5 0-1-.2-1.4-.6c-.4-.4-.6-.9-.6-1.6c0-.6.2-1.1.5-1.5c.4-.4.9-.6 1.5-.6c.5 0 1 .2 1.4.6c.3.4.5.9.5 1.6v.2h-3.3c0 .4.2.7.5 1c.2.2.6.4.9.4c.5 0 1-.2 1.4-.6c-.05-.02.3.3.3.3c0 0 .04.02 0 0zm-3.1-1.6h2.7c-.1-.4-.2-.7-.4-1c-.3-.3-.6-.4-1-.4c-.3 0-.6.1-.9.4c-.2.3-.4.6-.4 1zm4.4 2.3v-4.1h.6s-.02 1.04 0 1c.1-.3.4-.6.7-.8c.2-.2.6-.3 1-.3c-.04-.01 0 .7 0 .7c0 0-.08-.04-.1 0c-.5 0-.9.1-1.2.5c-.3.3-.4.7-.4 1.4c-.02-.05 0 1.6 0 1.6h-.6zm6.5-.7c-.4.5-1 .8-1.7.8c-.5 0-1-.2-1.4-.6c-.4-.4-.6-.9-.6-1.6c0-.6.2-1.1.5-1.5c.4-.4.9-.6 1.5-.6c.5 0 1 .2 1.4.6c.3.4.5.9.5 1.6v.2h-3.3c0 .4.2.7.5 1c.2.2.6.4.9.4c.5 0 1-.2 1.4-.6c-.05-.02.3.3.3.3c0 0 .04.02 0 0zm-3.1-1.6h2.7c-.1-.4-.2-.7-.4-1c-.3-.3-.6-.4-1-.4c-.3 0-.6.1-.9.4c-.2.3-.4.6-.4 1zm4.4 2.3v-4.1h.6s-.02.68 0 .7c.3-.6.8-.8 1.4-.8c.5 0 .9.1 1.2.4c.2.3.4.7.4 1.2c-.02.03 0 2.6 0 2.6h-.6s-.04-2.42 0-2.4c0-.4-.1-.7-.3-.9c-.2-.3-.5-.4-.9-.4c-.3 0-.6.2-.9.4c-.2.2-.3.5-.3.9c-.02.03 0 2.4 0 2.4h-.6zm8.3.7c-.4.4-.9.6-1.6.6c-.7 0-1.3-.2-1.9-.6l.3-.5c.5.4 1 .6 1.6.6c.5 0 .8-.2 1.1-.4c.3-.3.4-.6.4-1.1v-.5c-.4.6-1 .9-1.6.9c-.5 0-1-.2-1.4-.6c-.4-.3-.6-.8-.6-1.4c0-.6.2-1 .6-1.4c.4-.3.9-.5 1.4-.5c.6 0 1.2.3 1.6.8v-.7h.6s.02 3.38 0 3.4c0 .6-.2 1.1-.5 1.4zm-1.6-1.6c.4 0 .8-.1 1.1-.4c.3-.2.4-.6.4-1c0-.4-.1-.7-.4-1c-.3-.2-.7-.4-1.1-.4c-.4 0-.7.1-1 .4c-.3.3-.4.6-.4 1c0 .4.1.8.4 1c.3.3.6.4 1 .4zm3.5-4.1v-.7h.7v.7h-.7zm.1 5v-4.1h.6v4.1h-.6zm4.5 0v-5.6h.6v3.3l3.3-3.3h.8l-2.4 2.4l2.5 3.2h-.8l-2.2-2.7l-1.2 1.2v1.5h-.6zm8.4-.7c-.3.5-.8.8-1.4.8c-.5 0-.9-.2-1.1-.5c-.3-.3-.5-.7-.5-1.2c.03.03 0-2.5 0-2.5h.6s.05 2.38 0 2.4c0 .4.1.7.3.9c.2.2.5.3.9.3c.3 0 .6-.1.9-.3c.2-.3.3-.6.3-1c.03.03 0-2.3 0-2.3h.6v4.1h-.6v-.7s.03-.02 0 0zm4.2.6c-.3.1-.5.2-.8.2c-.4 0-.6-.1-.8-.3c-.3-.2-.4-.5-.4-.9c.04 0 0-2.5 0-2.5h-.5v-.5h.5V71h.7v1.3h1.3v.5h-1.3s-.04 2.42 0 2.4c0 .5.2.7.7.7c.2 0 .4 0 .6-.1c-.05-.03 0 .5 0 .5c0 0-.05 0 0 0zm4-.6c-.3.5-.8.8-1.4.8c-.5 0-.9-.2-1.2-.5c-.3-.3-.4-.7-.4-1.2c-.01.03 0-2.5 0-2.5h.6v2.4c0 .4.1.7.3.9c.2.2.5.3.9.3c.3 0 .6-.1.8-.3c.3-.3.4-.6.4-1v-2.3h.6v4.1h-.6v-.7s-.01-.02 0 0z" stroke="none" fill="#000"/></g><g id="Polygon371086"><path d="m.8 62.4v-5.6h.6l2.1 3.1l2-3.1h.7v5.6h-.7v-4.5l-2 3h-.1l-2-3v4.5h-.6zm9.6-.6c-.4.5-.9.7-1.5.7c-.5 0-.8-.1-1.1-.4c-.3-.2-.5-.5-.5-.9c0-.4.2-.8.5-1c.3-.2.8-.4 1.3-.4c.4 0 .8.1 1.3.2v-.1c0-.4-.1-.7-.4-.9c-.2-.2-.5-.2-.9-.2c-.4 0-.8.1-1.2.3l-.2-.5c.5-.3 1-.4 1.5-.4c.6 0 1 .2 1.3.5c.3.2.5.6.5 1.2c-.05-.03 0 2.5 0 2.5h-.6v-.6s-.04-.02 0 0zM9 62c.4 0 .7-.1 1-.3c.2-.2.4-.5.4-.8v-.4c-.4-.1-.9-.2-1.2-.2c-.4 0-.7.1-.9.2c-.3.2-.4.4-.4.7c0 .2.1.4.3.6c.3.1.5.2.8.2zm3.3.4v-5.8h.6v5.8h-.6zm1.8 0v-.4l2.8-3.2h-2.7v-.5h3.5v.4L15 61.9h2.7v.5h-3.6zm8.1-.7c-.4.5-1 .8-1.7.8c-.6 0-1.1-.2-1.5-.6c-.4-.4-.6-.9-.6-1.6c0-.6.2-1.1.6-1.5c.4-.4.9-.6 1.4-.6c.6 0 1.1.2 1.4.6c.4.4.6.9.6 1.6c0 0-.1.1-.1.2h-3.2c0 .4.2.7.4 1c.3.2.6.4 1 .4c.5 0 .9-.2 1.3-.6c.02-.02.4.3.4.3c0 0 .01.02 0 0zm-3.1-1.6h2.6c0-.4-.1-.7-.4-1c-.2-.3-.5-.4-.9-.4c-.3 0-.7.1-.9.4c-.2.3-.4.6-.4 1zm4.3 2.3v-4.1h.6s.05.66 0 .7c.2-.3.4-.5.6-.6c.2-.2.5-.2.8-.2c.6 0 1.1.3 1.3.8c.4-.5.9-.8 1.5-.8c.4 0 .8.1 1.1.4c.3.3.4.7.4 1.2v2.6h-.6V60c0-.4-.1-.7-.3-.9c-.2-.3-.4-.4-.8-.4c-.3 0-.6.2-.8.4c-.2.2-.3.5-.3.9c-.03.02 0 2.4 0 2.4h-.6s-.04-2.43 0-2.4c0-.4-.1-.7-.3-.9c-.2-.3-.5-.4-.8-.4c-.3 0-.6.2-.8.4c-.2.2-.4.6-.4.9c.05.04 0 2.4 0 2.4h-.6zm11.1-.7c-.4.5-1 .8-1.7.8c-.6 0-1-.2-1.4-.6c-.4-.4-.6-.9-.6-1.6c0-.6.1-1.1.5-1.5c.4-.4.9-.6 1.4-.6c.6 0 1.1.2 1.5.6c.3.4.5.9.5 1.6v.2h-3.3c0 .4.2.7.5 1c.2.2.6.4.9.4c.5 0 1-.2 1.3-.6c.04-.02.4.3.4.3c0 0 .03.02 0 0zm-3.1-1.6h2.6c0-.4-.1-.7-.3-1c-.3-.3-.6-.4-1-.4c-.3 0-.6.1-.9.4c-.2.3-.4.6-.4 1zm4.3-1v-.8h.7v.8h-.7zm0 3.3v-.8h.7v.8h-.7zm6.7 1.2l-.6-.2s.66-.93.7-.9c-.7-.1-1.3-.4-1.8-1c-.4-.5-.7-1.1-.7-1.9c0-.8.3-1.5.8-2.1c.6-.5 1.3-.8 2.1-.8c.5 0 .9.1 1.2.2c.3.2.7.4 1 .7l-.5.5c-.2-.3-.5-.5-.8-.6c-.3-.1-.6-.2-.9-.2c-.7 0-1.2.2-1.6.7c-.4.4-.6.9-.6 1.6c0 .7.2 1.2.6 1.6c.4.5.9.7 1.6.7c.3 0 .6-.1.9-.2c.3-.1.6-.3.9-.6l.4.4c-.6.6-1.3 1-2.1 1c-.02-.01-.6 1.1-.6 1.1zm7.2-1.9c-.5.5-1.1.8-1.8.8c-.5 0-1-.2-1.4-.6c-.4-.4-.6-.9-.6-1.6c0-.6.2-1.1.5-1.5c.4-.4.9-.6 1.5-.6c.6 0 1 .2 1.4.6c.3.4.5.9.5 1.6v.2h-3.3c.1.4.2.7.5 1c.3.2.6.4 1 .4c.5 0 .9-.2 1.3-.6l.4.3s-.05.02 0 0zm-3.2-1.6h2.7c-.1-.4-.2-.7-.4-1c-.2-.3-.6-.4-.9-.4c-.4 0-.7.1-1 .4c-.2.3-.3.6-.4 1zm4.4 2.3v-5.8h.6v5.8h-.6zm2.1-5v-.7h.7v.7h-.7zm0 5v-4.1h.7v4.1h-.7zm2.1 0v-5.8h.6v4l2.2-2.3h.8L56.9 60l1.8 2.4h-.8l-1.5-1.9l-.8.8v1.1h-.6zm6.1 1l3.7-7.4h.6l-3.8 7.4h-.5zm6.9-1l2.6-5.6h.6l2.5 5.6h-.7l-.6-1.5h-3.1l-.6 1.5h-.7zm1.6-2h2.5l-1.2-2.9l-1.3 2.9zm5.1 2v-5.8h.6s.03 2.38 0 2.4c.4-.6.8-.8 1.5-.8c.4 0 .8.1 1.1.4c.3.3.4.7.4 1.2c.03.03 0 2.6 0 2.6h-.6s.02-2.42 0-2.4c0-.4-.1-.7-.3-.9c-.2-.3-.5-.4-.8-.4c-.4 0-.7.2-.9.4c-.2.2-.4.5-.4.9c.03.03 0 2.4 0 2.4h-.6zm5.9 1.2l-.6-.2s.66-.94.7-.9c-.6-.1-1-.3-1.4-.6l.3-.5c.5.4 1 .6 1.4.6c.3 0 .5-.1.7-.2c.1-.1.2-.3.2-.5c0-.2-.1-.3-.3-.4c-.1-.1-.4-.2-.7-.3c-.2-.1-.3-.1-.4-.1c0-.1-.1-.1-.3-.2c-.1 0-.2-.1-.3-.1c0-.1-.1-.1-.2-.2c-.1-.1-.1-.2-.1-.3c-.1-.1-.1-.2-.1-.3c0-.4.1-.7.4-.9c.3-.2.6-.3 1-.3c.5 0 1 .1 1.5.4l-.3.5c-.4-.3-.8-.4-1.2-.4c-.2 0-.4.1-.6.2c-.1.1-.2.2-.2.4c0 .1 0 .2.1.2c0 .1 0 .2.1.2c.1 0 .1.1.3.1c.1.1.2.1.2.1c.1.1.2.1.4.1c.1.1.2.1.3.2c.2 0 .3.1.4.1c.1.1.2.2.3.2c.1.1.2.2.2.3c.1.1.1.3.1.4c0 .4-.1.7-.4.9c-.2.2-.5.3-.9.4c-.03-.03-.6 1.1-.6 1.1zm5.8-1.8c-.4.5-.9.7-1.5.7c-.5 0-.8-.1-1.1-.4c-.3-.2-.5-.5-.5-.9c0-.4.2-.8.5-1c.3-.2.8-.4 1.3-.4c.4 0 .8.1 1.3.2v-.1c0-.4-.1-.7-.4-.9c-.2-.2-.5-.2-.9-.2c-.4 0-.8.1-1.2.3l-.2-.5c.5-.3 1-.4 1.5-.4c.6 0 1 .2 1.3.5c.3.2.5.6.5 1.2c-.05-.03 0 2.5 0 2.5h-.6v-.6s-.04-.02 0 0zM85 62c.4 0 .7-.1 1-.3c.2-.2.4-.5.4-.8v-.4c-.4-.1-.9-.2-1.2-.2c-.4 0-.7.1-.9.2c-.3.2-.4.4-.4.7c0 .2.1.4.3.6c.2.1.5.2.8.2zm3.3 1.7v-5.4h.6s-.02.8 0 .8c.4-.6.9-.9 1.6-.9c.5 0 1 .2 1.3.6c.4.3.6.9.6 1.5c0 .7-.2 1.2-.6 1.6c-.3.4-.8.6-1.3.6c-.7 0-1.2-.3-1.6-.9c-.02.01 0 2.1 0 2.1h-.6zm2.1-1.8c.4 0 .7-.1 1-.4c.3-.3.4-.7.4-1.2c0-.5-.1-.8-.4-1.1c-.3-.3-.6-.5-1-.5c-.4 0-.8.2-1.1.5c-.3.3-.4.7-.4 1.1c0 .5.1.9.4 1.2c.3.3.7.4 1.1.4z" stroke="none" fill="#000"/></g><g id="Polygon371085"><path d="m3.8 42.2v-.7h.7v.7h-.7zm-1.5 0v-.7h.7v.7h-.7zm4 3.4c0 .8-.3 1.5-.9 2c-.5.6-1.2.9-2 .9c-.8 0-1.5-.3-2.1-.8c-.5-.6-.8-1.3-.8-2.1c0-.8.3-1.5.9-2c.5-.6 1.2-.9 2-.9c.8 0 1.5.3 2.1.8c.5.6.8 1.3.8 2.1c-.04-.02 0 0 0 0c0 0-.04 0 0 0zm-5.1 0c0 .6.2 1.2.6 1.6c.4.5 1 .7 1.6.7c.6 0 1.2-.2 1.6-.7c.4-.4.6-.9.6-1.6c0-.6-.2-1.2-.6-1.6c-.4-.5-1-.7-1.6-.7c-.6 0-1.2.2-1.6.7c-.4.4-.6.9-.6 1.6c0-.02 0 0 0 0zm6.3 2.8v-5.8h.7v5.8h-.7zm3.5 1.2l-.6-.2s.67-.94.7-.9c-.5-.1-.9-.4-1.3-.8c-.3-.4-.5-.8-.5-1.3v-.1c0-.6.2-1.1.6-1.5c.4-.4 1-.6 1.6-.6c.6 0 1.1.2 1.6.7l-.4.4c-.4-.4-.8-.6-1.3-.6c-.4 0-.7.2-1 .5c-.3.3-.4.7-.4 1.1c0 .5.1.9.4 1.2c.3.3.7.4 1.1.4c.4 0 .9-.2 1.3-.6l.3.4c-.4.5-.9.8-1.5.8c-.02-.01-.6 1.1-.6 1.1zm5.2-6v-.7h.7v.7h-.7zm-1.4 0v-.7h.7v.7h-.7zm2.3 4.1c-.4.5-.8.8-1.5.8c-.4 0-.8-.2-1.1-.5c-.3-.3-.4-.7-.4-1.2c-.04.03 0-2.5 0-2.5h.6s-.02 2.38 0 2.4c0 .4.1.7.3.9c.2.2.5.3.8.3c.4 0 .7-.1.9-.3c.2-.3.4-.6.4-1c-.04.03 0-2.3 0-2.3h.6v4.1h-.6v-.7s-.04-.02 0 0zm2 .7v-5.8h.6v5.8h-.6zm5.6-.7c-.5.5-1 .8-1.7.8c-.6 0-1.1-.2-1.5-.6c-.4-.4-.6-.9-.6-1.6c0-.6.2-1.1.6-1.5c.3-.4.8-.6 1.4-.6c.6 0 1 .2 1.4.6c.3.4.5.9.5 1.6v.2h-3.3c.1.4.2.7.5 1c.3.2.6.4 1 .4c.5 0 .9-.2 1.3-.6l.4.3s-.03.02 0 0zm-3.2-1.6h2.7c0-.4-.2-.7-.4-1c-.2-.3-.5-.4-.9-.4c-.4 0-.7.1-.9.4c-.3.3-.4.6-.5 1zm4.4 2.3v-4.1h.6v1c.2-.3.4-.6.7-.8c.3-.2.6-.3 1-.3v.7s-.05-.04 0 0c-.5 0-.9.1-1.2.5c-.3.3-.5.7-.5 1.4v1.6h-.6zm3.2-3.3v-.8h.7v.8h-.7zm0 3.3v-.8h.7v.8h-.7zm7.2 0v-1.3h-2.9l-.2-.5l3.2-3.8h.5v3.7h.9v.6h-.9v1.3h-.6zM34 46.5h2.3v-2.8L34 46.5zm6.7 2c-.8 0-1.4-.3-2-.9l.4-.4c.5.5 1 .7 1.6.7c.4 0 .7-.1 1-.3c.2-.3.3-.6.3-.9c0-.4-.1-.7-.4-.9c-.2-.2-.6-.3-1-.3c-.4 0-.8.1-1.1.3c-.04.01-.5-.3-.5-.3l.2-2.7h3.2v.6h-2.6s-.17 1.78-.2 1.8c.4-.2.8-.3 1.1-.3c.6 0 1.1.2 1.4.5c.4.3.6.7.6 1.2v.1c0 .5-.2.9-.6 1.3c-.4.3-.8.5-1.4.5zm3.5-4.2l1.2 1.6l1.3-1.6h.7l-1.6 2l1.6 2.1h-.7l-1.3-1.7l-1.3 1.7h-.6l1.6-2.1l-1.6-2h.7zm3.9 4.1v-.5s2.05-1.78 2.1-1.8l.9-.9c.1-.3.2-.6.2-.8c0-.4-.1-.6-.3-.8c-.2-.2-.5-.3-.8-.3c-.3 0-.6.1-.8.2c-.2.2-.5.4-.7.7l-.5-.3c.3-.4.6-.7.9-.9c.3-.2.7-.3 1.1-.3c.5 0 1 .2 1.3.5c.3.3.5.6.5 1.1c0 .4-.1.8-.3 1.1c-.2.3-.6.6-1.1 1.1c-.04 0-1.5 1.3-1.5 1.3h2.9v.6h-3.9zm7.7 0v-1.3h-3l-.1-.5l3.1-3.8h.6v3.7h.9v.6h-.9v1.3h-.6zm-2.4-1.9h2.4v-2.8l-2.4 2.8zm5.4-2.2l1.2 1.6l1.2-1.6h.7l-1.6 2l1.7 2.1h-.7L60 46.7l-1.3 1.7h-.7l1.6-2.1l-1.5-2h.7zm4.9 4.1v-5l-1 .3l-.2-.5l1.4-.4h.4v5.6h-.6zm4.1.1c-.6 0-1.1-.2-1.5-.6c-.2-.2-.4-.5-.5-.8c-.1-.4-.2-.8-.2-1.3v-.1c0-.8.2-1.6.7-2.1c.4-.6.9-.9 1.7-.9c.6 0 1.1.2 1.6.6l-.4.5c-.4-.3-.8-.5-1.3-.5c-.5 0-.9.2-1.2.7c-.3.4-.4 1-.4 1.7v.1c.4-.6.9-.9 1.6-.9c.5 0 1 .2 1.4.5c.3.3.5.7.5 1.2c0 .6-.2 1-.6 1.4c-.3.3-.8.5-1.4.5zm0-.6c.4 0 .7-.1 1-.3c.2-.3.4-.6.4-.9v-.1c0-.3-.2-.6-.4-.8c-.3-.2-.6-.4-1-.4c-.4 0-.7.2-1 .4c-.3.3-.4.5-.4.9c0 .3.1.6.4.9c.3.2.6.3 1 .3zm7.7-2.3c0 .8-.2 1.5-.6 2.1c-.5.5-1 .8-1.7.8c-.7 0-1.3-.3-1.7-.8c-.5-.6-.7-1.3-.7-2.1c0-.8.2-1.5.7-2.1c.4-.5 1-.8 1.7-.8c.7 0 1.3.3 1.7.8c.4.6.6 1.3.6 2.1c.04-.02 0 0 0 0c0 0 .04 0 0 0zm-4 0c0 .6.1 1.2.4 1.6c.4.5.8.7 1.3.7c.5 0 .9-.2 1.2-.7c.3-.4.5-.9.5-1.6c0-.6-.2-1.2-.5-1.6c-.3-.5-.7-.7-1.2-.7c-.5 0-.9.2-1.3.7c-.3.4-.4.9-.4 1.6c-.03-.02 0 0 0 0c0 0-.03 0 0 0zm11.2 2.1c-.5.5-1.1.8-1.7.8c-.6 0-1.1-.2-1.5-.6c-.4-.5-.6-1-.6-1.5v-.1c0-.6.2-1.1.6-1.5c.4-.4.9-.6 1.5-.6c.6 0 1.2.2 1.6.7l-.4.4c-.4-.4-.8-.6-1.2-.6c-.4 0-.8.2-1.1.5c-.3.3-.4.7-.4 1.1c0 .5.1.9.4 1.2c.3.3.7.4 1.1.4c.5 0 .9-.2 1.3-.6c-.01.03.4.4.4.4c0 0-.02 0 0 0zm1 .7v-4.1h.6v.7c.2-.3.4-.5.6-.6c.2-.2.4-.2.7-.2c.7 0 1.1.3 1.4.8c.3-.5.8-.8 1.4-.8c.5 0 .9.1 1.2.4c.2.3.4.7.4 1.2c-.03.04 0 2.6 0 2.6h-.6s-.05-2.42 0-2.4c0-.4-.1-.7-.3-.9c-.2-.3-.5-.4-.8-.4c-.3 0-.6.2-.8.4c-.3.2-.4.5-.4.9c.03.02 0 2.4 0 2.4h-.6s.03-2.43 0-2.4c0-.4-.1-.7-.3-.9c-.1-.3-.4-.4-.7-.4c-.4 0-.6.2-.9.4c-.2.2-.3.6-.3.9v2.4h-.6z" stroke="none" fill="#000"/></g><g id="Polygon371084"><path d="m3.4 28.3v-.7h.8v.7h-.8zm-1.5 0v-.7h.8v.7h-.8zM3 34.5c-.7 0-1.2-.2-1.7-.6c-.4-.5-.6-1.1-.6-1.8v-3.3h.6s.04 3.22 0 3.2c0 .6.2 1.1.5 1.4c.3.3.7.5 1.2.5c.6 0 1-.2 1.3-.5c.3-.3.4-.7.4-1.3c.04-.04 0-3.3 0-3.3h.7s-.03 3.21 0 3.2c0 .8-.2 1.4-.7 1.8c-.4.5-.9.7-1.7.7zm3.8-.1v-4.1h.6s-.02 1.04 0 1c.1-.3.4-.6.7-.8c.2-.2.6-.3 1-.3c-.04-.01 0 .7 0 .7c0 0-.08-.04-.1 0c-.5 0-.9.1-1.2.5c-.3.3-.4.7-.4 1.4c-.02-.05 0 1.6 0 1.6h-.6zm5.3-4.8v-.7h.7v.7h-.7zm-1.4 0v-.7h.7v.7h-.7zm2.2 4.1c-.3.5-.8.8-1.4.8c-.5 0-.9-.2-1.1-.5c-.3-.3-.5-.7-.5-1.2c.04.03 0-2.5 0-2.5h.7s-.05 2.38 0 2.4c0 .4.1.7.3.9c.2.2.4.3.8.3c.4 0 .6-.1.9-.3c.2-.3.3-.6.3-1c.04.03 0-2.3 0-2.3h.6v4.1h-.6v-.7s.04-.02 0 0zm2 .7v-4.1h.6s.04.68 0 .7c.4-.6.9-.8 1.5-.8c.5 0 .8.1 1.1.4c.3.3.4.7.4 1.2c.04.03 0 2.6 0 2.6h-.6s.03-2.42 0-2.4c0-.4-.1-.7-.3-.9c-.2-.3-.5-.4-.8-.4c-.4 0-.7.2-.9.4c-.2.2-.4.5-.4.9c.04.03 0 2.4 0 2.4h-.6zm7.5 0v-5.6h.6v3.3l3.2-3.3h.8l-2.4 2.4l2.5 3.2h-.8l-2.1-2.7l-1.2 1.2v1.5h-.6zm7.3.1c-.7 0-1.2-.2-1.6-.6c-.4-.5-.6-1-.6-1.5v-.1c0-.6.2-1.1.6-1.5c.4-.4 1-.6 1.6-.6c.6 0 1.1.2 1.5.6c.4.4.6.9.6 1.5c0 .6-.2 1.1-.6 1.6c-.4.4-.9.6-1.5.6zm0-.6c.4 0 .8-.1 1.1-.4c.2-.3.4-.7.4-1.1v-.1c0-.4-.2-.8-.5-1.1c-.2-.3-.6-.5-1-.5c-.5 0-.8.2-1.1.5c-.3.3-.5.7-.5 1.1c0 .5.2.9.5 1.2c.3.3.6.4 1.1.4zm6.6-.3c-.5.6-1 .9-1.6.9c-.6 0-1-.2-1.4-.6c-.4-.4-.6-.9-.6-1.6c0-.6.2-1.1.6-1.5c.4-.4.8-.6 1.4-.6c.6 0 1.2.3 1.6.9c-.04-.04 0-2.5 0-2.5h.6v5.8h-.6v-.8s-.04-.03 0 0zm-1.5.3c.4 0 .7-.1 1-.4c.3-.3.5-.7.5-1.2c0-.4-.2-.8-.5-1.1c-.3-.3-.6-.5-1-.5c-.4 0-.8.2-1.1.5c-.2.2-.4.6-.4 1.1c0 .5.2.9.4 1.2c.3.3.7.4 1.1.4zm6.4-.2c-.4.5-.8.8-1.4.8c-.5 0-.9-.2-1.2-.5c-.3-.3-.4-.7-.4-1.2c-.02.03 0-2.5 0-2.5h.6v2.4c0 .4.1.7.3.9c.2.2.5.3.8.3c.4 0 .7-.1.9-.3c.3-.3.4-.6.4-1c-.02.03 0-2.3 0-2.3h.6v4.1h-.6v-.7s-.02-.02 0 0zm1.9-2.6v-.8h.8v.8h-.8zm0 3.3v-.8h.8v.8h-.8zm6 0l-1.9-5.6h1.3l1.1 3.8l1.3-3.8h1.1l1.2 3.8l1.2-3.8h1.3l-2 5.6h-1l-1.3-3.6l-1.3 3.6h-1zm7.5 0v-5.6h1.2v2.2h2.3v-2.2h1.2v5.6h-1.2v-2.2h-2.3v2.2h-1.2zm8.2 0v-1s1.83-1.5 1.8-1.5c.4-.3.7-.5.8-.7c.1-.2.2-.4.2-.6c0-.3-.1-.5-.2-.6c-.1-.1-.3-.2-.6-.2c-.2 0-.3.1-.5.2c-.2.1-.4.3-.6.6l-.9-.7c.3-.4.6-.7 1-.9c.3-.2.7-.3 1.1-.3c.6 0 1.1.2 1.4.5c.4.3.6.7.6 1.2v.1c0 .4-.2.8-.4 1.1c-.2.2-.6.6-1.1 1c-.02.03-.9.7-.9.7h2.4v1.1h-4.1zm7.1.1c-.7 0-1.2-.2-1.6-.5c-.4-.3-.6-.7-.6-1.1v-.1c0-.3.1-.6.2-.8c.2-.2.4-.4.7-.5c-.5-.3-.7-.7-.7-1.2c0-.5.2-.8.6-1.1c.3-.3.8-.5 1.4-.5c.6 0 1 .2 1.4.5c.4.3.5.6.5 1.1c0 .5-.2.9-.7 1.2c.3.2.6.3.7.5c.2.2.2.5.2.8c0 .5-.2.9-.6 1.2c-.4.3-.9.5-1.5.5zm-.8-4.1c0 .2.1.4.2.5c.1.1.3.2.6.2c.2 0 .4-.1.6-.2c.1-.1.2-.3.2-.5c0-.2-.1-.3-.2-.5c-.2-.1-.4-.2-.6-.2c-.3 0-.5.1-.6.2c-.1.1-.2.3-.2.5c-.02-.02 0 0 0 0c0 0-.02 0 0 0zm.8 3.1c.3 0 .5-.1.7-.2c.2-.2.2-.3.2-.5c0-.3 0-.4-.2-.6c-.2-.1-.4-.1-.7-.1c-.3 0-.5 0-.7.1c-.2.2-.3.3-.3.6c0 .2.1.3.3.5c.2.1.4.2.7.2zm3.9.9V30l-1 .2l-.2-1l1.6-.4h.8v5.6h-1.2zm2.4 0v-1s1.83-1.5 1.8-1.5c.4-.3.7-.5.8-.7c.1-.2.2-.4.2-.6c0-.3-.1-.5-.2-.6c-.1-.1-.3-.2-.6-.2c-.2 0-.3.1-.5.2c-.2.1-.4.3-.6.6l-.9-.7c.3-.4.6-.7 1-.9c.3-.2.7-.3 1.1-.3c.6 0 1.1.2 1.4.5c.4.3.6.7.6 1.2v.1c0 .4-.2.8-.4 1.1c-.2.2-.6.6-1.1 1c-.02.03-.9.7-.9.7h2.4v1.1h-4.1z" stroke="none" fill="#000"/></g><g id="Polygon371083"><path d="m.7 20.4v-5.6h2.2c.8 0 1.5.3 2.1.8c.6.5.8 1.2.8 2c0 .8-.2 1.5-.8 2c-.6.5-1.3.8-2.1.8H.7zm2.2-4.5h-1v3.4h1c.5 0 .9-.2 1.2-.5c.3-.3.4-.7.4-1.2c0-.5-.1-.9-.4-1.2c-.3-.3-.7-.5-1.2-.5zm6.4 4c-.3.4-.7.6-1.3.6c-.4 0-.8-.1-1-.4c-.3-.2-.5-.5-.5-.9c0-.5.2-.8.5-1.1c.3-.2.7-.3 1.3-.3c.3 0 .7 0 1 .2v-.1c0-.5-.3-.8-.9-.8c-.4 0-.8.1-1.2.2l-.3-.9c.6-.2 1.1-.3 1.7-.3c.6 0 1.1.1 1.4.4c.3.4.5.8.5 1.4c-.01.01 0 2.5 0 2.5H9.3v-.5s.01.04 0 0zm-.9-.3c.3 0 .5 0 .7-.2c.1-.1.2-.3.2-.5v-.2c-.2-.1-.5-.2-.7-.2c-.3 0-.5.1-.7.2c-.1.1-.2.2-.2.4c0 .2.1.3.2.4c.1.1.3.1.5.1zm4.9-.6l.9-2.9h1.3l-1.7 4.4c-.2.4-.3.8-.5.9c-.3.2-.5.3-.9.3c-.4 0-.7-.1-1.1-.3l.4-.9c.2.1.4.2.5.2c.2 0 .2 0 .3-.1c.1 0 .1-.1.2-.2c-.03.02-1.7-4.3-1.7-4.3h1.3l1 2.9zm5.2.9c-.3.4-.8.6-1.3.6c-.4 0-.8-.1-1.1-.4c-.2-.2-.4-.5-.4-.9c0-.5.2-.8.5-1.1c.3-.2.7-.3 1.2-.3c.4 0 .7 0 1.1.2v-.1c0-.5-.3-.8-.9-.8c-.4 0-.8.1-1.2.2l-.3-.9c.5-.2 1.1-.3 1.7-.3c.6 0 1.1.1 1.4.4c.3.4.5.8.5 1.4c-.04.01 0 2.5 0 2.5h-1.2v-.5s-.01.04 0 0zm-.9-.3c.2 0 .5 0 .7-.2c.1-.1.2-.3.2-.5v-.2c-.2-.1-.5-.2-.8-.2c-.2 0-.4.1-.6.2c-.1.1-.2.2-.2.4c0 .2.1.3.2.4c.1.1.3.1.5.1zm3.1.8v-4.3h1.2s.03.62 0 .6c.4-.4.8-.7 1.3-.7c.6 0 1 .3 1.2.7c.4-.4.8-.7 1.4-.7c.5 0 .8.2 1.1.4c.2.3.4.7.4 1.2c-.04.01 0 2.8 0 2.8H26s.04-2.39 0-2.4c0-.6-.2-.9-.7-.9c-.2 0-.4.1-.5.3c-.1.1-.2.3-.2.6v2.4h-1.2s-.02-2.39 0-2.4c0-.6-.3-.9-.7-.9c-.3 0-.4.1-.6.3c-.1.1-.2.3-.2.6c.03.01 0 2.4 0 2.4h-1.2zm10.1-.5c-.3.4-.7.6-1.3.6c-.4 0-.7-.1-1-.4c-.3-.2-.4-.5-.4-.9c0-.5.1-.8.4-1.1c.3-.2.8-.3 1.3-.3c.3 0 .7 0 1 .2v-.1c0-.5-.3-.8-.9-.8c-.4 0-.8.1-1.2.2l-.3-.9c.6-.2 1.1-.3 1.7-.3c.6 0 1.1.1 1.4.4c.3.4.5.8.5 1.4v2.5h-1.2v-.5s.02.04 0 0zm-.9-.3c.3 0 .5 0 .7-.2c.2-.1.2-.3.2-.5v-.2c-.2-.1-.5-.2-.7-.2c-.3 0-.5.1-.6.2c-.2.1-.3.2-.3.4c0 .2.1.3.2.4c.1.1.3.1.5.1zm5.7.8v-5.6h1.3l1.5 2.4l1.4-2.4h1.4v5.6H40v-3.7l-1.6 2.4h-.1l-1.5-2.3v3.6h-1.2zm10.6-.7c-.5.5-1 .8-1.8.8c-.6 0-1.2-.2-1.6-.6c-.4-.4-.6-1-.6-1.6c0-.7.2-1.2.6-1.6c.4-.5.9-.7 1.5-.7c.7 0 1.2.3 1.6.7c.3.5.5 1 .5 1.7v.3h-3c.1.3.2.5.4.6c.1.1.4.2.6.2c.4 0 .8-.1 1.1-.4l.7.6s-.02 0 0 0zm-2.8-1.8h1.8c0-.3-.1-.5-.3-.6c-.1-.2-.3-.3-.6-.3c-.2 0-.5.1-.6.3c-.2.1-.3.3-.3.6zm3.9 2.5v-4.3h1.2s.01.88 0 .9c.3-.7.7-1 1.4-1c-.02.03 0 1.3 0 1.3h-.1c-.4 0-.7.1-.9.4c-.3.2-.4.6-.4 1.1v1.6h-1.2zm6.4-.6c-.4.4-.8.7-1.4.7c-.5 0-1-.2-1.4-.6c-.3-.4-.5-1-.5-1.6v-.1c0-.6.2-1.2.5-1.6c.4-.4.9-.6 1.4-.6c.6 0 1 .2 1.4.7c-.04-.03 0-2.1 0-2.1h1.2v5.8h-1.2v-.6s-.04-.02 0 0zm-2.1-1.5c0 .3.1.6.3.8c.2.2.4.3.7.3c.3 0 .6-.1.8-.3c.2-.2.3-.5.3-.8v-.1c0-.3-.1-.6-.3-.8c-.2-.2-.5-.3-.8-.3c-.3 0-.5.1-.7.3c-.2.2-.3.5-.3.8c-.02.05 0 .1 0 .1c0 0-.02-.04 0 0zm4.4-2.7v-1h1.3v1H56zm0 4.8v-4.3h1.2v4.3H56zm3.7 0L58 16.1h1.3l.9 2.9l1-2.9h1.3l-1.7 4.3h-1.1zm7-.7c-.4.5-1 .8-1.7.8c-.7 0-1.2-.2-1.6-.6c-.5-.4-.7-1-.7-1.6c0-.7.2-1.2.6-1.6c.4-.5.9-.7 1.5-.7c.7 0 1.2.3 1.6.7c.4.5.5 1 .5 1.7v.3h-3c.1.3.2.5.4.6c.2.1.4.2.7.2c.4 0 .7-.1 1-.4c.02-.02.7.6.7.6c0 0 .02 0 0 0zm-2.8-1.8h1.9c-.1-.3-.2-.5-.3-.6c-.2-.2-.4-.3-.7-.3c-.2 0-.4.1-.6.3c-.1.1-.2.3-.3.6zm3.9 2.5v-4.3h1.3s-.04.62 0 .6c.3-.4.7-.7 1.2-.7c.5 0 .8.2 1.1.5c.2.2.4.6.4 1.1c-.03.02 0 2.8 0 2.8h-1.2s-.05-2.39 0-2.4c0-.6-.3-.9-.8-.9c-.2 0-.4.1-.5.3c-.2.1-.2.3-.2.6c-.04.01 0 2.4 0 2.4h-1.3z" stroke="none" fill="#000"/></g><g id="Polygon371082"><path d="m2.2 6.4v-5H.4v-.6h4.4v.6H2.9v5h-.7zM11 3.6c0 .8-.2 1.5-.8 2c-.5.6-1.2.9-2 .9c-.9 0-1.6-.3-2.1-.8c-.5-.6-.8-1.3-.8-2.1c0-.8.3-1.5.8-2C6.7 1 7.3.7 8.2.7c.8 0 1.5.3 2 .8c.6.6.8 1.3.8 2.1c.02-.02 0 0 0 0c0 0 .02 0 0 0zm-5 0c0 .6.2 1.2.6 1.6c.4.5.9.7 1.6.7c.6 0 1.1-.2 1.5-.7c.5-.4.7-.9.7-1.6c0-.6-.2-1.2-.7-1.6c-.4-.5-.9-.7-1.5-.7c-.7 0-1.2.2-1.6.7c-.4.4-.6.9-.6 1.6c-.03-.02 0 0 0 0c0 0-.03 0 0 0zm7.6 2.8l-2-5.6h.7l1.6 4.7L15.5.8h.5l1.5 4.7L19.1.8h.7l-2 5.6h-.6l-1.5-4.5l-1.5 4.5h-.6zm7.3 0V.8h4.1v.6h-3.4v1.9h3v.6h-3v1.9h3.4v.6h-4.1zm5.4 0V.8h2.4c.7 0 1.2.2 1.6.6c.3.2.4.6.4 1.1c0 .4-.1.8-.4 1.1c-.3.3-.6.4-1.1.5l1.7 2.3h-.8l-1.6-2.2h-1.6v2.2h-.6zm.6-2.7s1.74-.04 1.7 0c.5 0 .8-.1 1.1-.4c.2-.2.4-.4.4-.8c0-.4-.1-.6-.4-.8c-.2-.2-.6-.3-1.1-.3c.05-.02-1.7 0-1.7 0v2.3z" stroke="none" fill="#000"/></g></svg>