<?xml version="1.0" standalone="no"?><!DOCTYPE svg PUBLIC "-//W3C//DTD SVG 1.1//EN" "http://www.w3.org/Graphics/SVG/1.1/DTD/svg11.dtd"><svg xmlns="http://www.w3.org/2000/svg" version="1.1" width="52.5px" height="25.6px" viewBox="0 -3 52.5 25.6" style="top:-3px"><desc>BK 5612</desc><defs/><g id="Polygon363983"><path d="m.7 6.4V.8h2.6c.6 0 1.1.2 1.4.5c.3.3.4.6.4.9v.1c0 .5-.2.9-.7 1.2c.3.1.6.3.8.5c.1.2.2.5.2.8v.1c0 .5-.2.8-.5 1.1c-.4.3-.9.4-1.6.4H.7zM3 3.1c.6 0 .9-.2.9-.6c0-.4-.3-.6-.8-.6c-.01-.02-1.2 0-1.2 0v1.2h1.1s.01-.04 0 0zm.3 2.2c.6 0 .9-.2.9-.6c0-.4-.3-.6-.9-.6H1.9v1.2h1.4s.04.02 0 0zm3.1 1.1V.8h1.3v2.4L9.9.8h1.5L9.2 3.2l2.3 3.2h-1.4L8.3 4l-.6.7v1.7H6.4zm10.1.1c-.9 0-1.6-.3-2.1-.8l.7-.9c.5.4.9.6 1.3.6c.3 0 .6-.1.7-.2c.2-.2.3-.3.3-.6c0-.3-.1-.4-.3-.6c-.2-.1-.4-.2-.7-.2c-.3 0-.6.1-1 .2l-.7-.4l.2-2.8h3.4v1.1H16l-.1.9h.7c.6 0 1.1.1 1.4.4c.4.3.6.7.6 1.3v.1c0 .6-.2 1-.6 1.4c-.4.3-.9.5-1.5.5zm5.3 0c-.7 0-1.2-.2-1.6-.6c-.5-.4-.7-1.2-.7-2.1c0-.9.2-1.7.6-2.2c.4-.6 1-.9 1.8-.9c.7 0 1.3.2 1.8.6l-.7 1c-.1-.2-.3-.3-.5-.4c-.2 0-.4-.1-.6-.1c-.2 0-.4.1-.5.2c-.2 0-.3.2-.4.3c0 .1-.1.3-.1.4c-.1.1-.1.3-.1.4c.3-.2.7-.3 1.1-.3c.6 0 1.1.1 1.5.4c.3.3.5.8.5 1.3v.1c0 .5-.2 1-.6 1.4c-.4.3-.9.5-1.5.5zm-1.1-1.9c0 .3.1.5.3.6c.2.2.4.2.7.2c.3 0 .6 0 .7-.2c.2-.1.3-.3.3-.6c0-.2-.1-.4-.3-.6c-.2-.1-.4-.2-.7-.2c-.3 0-.5.1-.7.2c-.2.2-.3.3-.3.6c.04-.01 0 0 0 0c0 0 .04.01 0 0zm5 1.8V2l-1 .2l-.2-1l1.6-.4h.8v5.6h-1.2zm2.3 0v-1l1.9-1.5c.4-.3.6-.5.8-.7c.1-.2.2-.4.2-.6c0-.3-.1-.5-.2-.6c-.2-.1-.4-.2-.6-.2c-.2 0-.4.1-.5.2c-.2.1-.4.3-.6.6l-.9-.7c.3-.4.6-.7.9-.9c.3-.2.7-.3 1.2-.3c.6 0 1 .2 1.4.5c.4.3.5.7.5 1.2v.1c0 .4-.1.8-.3 1.1c-.2.2-.6.6-1.1 1l-1 .7h2.5v1.1H28z" stroke="none" fill="#000"/></g></svg>