<?xml version="1.0" standalone="no"?><!DOCTYPE svg PUBLIC "-//W3C//DTD SVG 1.1//EN" "http://www.w3.org/Graphics/SVG/1.1/DTD/svg11.dtd"><svg xmlns="http://www.w3.org/2000/svg" version="1.1" width="43px" height="21.6px" viewBox="0 -1 43 21.6" style="top:-1px"><desc>SEPET</desc><defs/><g id="Polygon397010"><path d="m10.5 12.4c-.9 0-1.7-.3-2.3-.9l.6-.7c.5.5 1.1.7 1.7.7c.3 0 .6 0 .8-.2c.1-.1.2-.3.2-.5c0-.2-.1-.4-.2-.5c-.2-.1-.5-.2-1-.3c-.7-.2-1.2-.4-1.5-.6c-.3-.3-.4-.6-.4-1.1c0-.5.2-.9.5-1.2c.4-.3.9-.5 1.4-.5c.8 0 1.5.3 2 .8l-.5.7c-.5-.4-1-.6-1.5-.6c-.3 0-.5.1-.7.2c-.1.1-.2.3-.2.5c0 .2.1.4.3.5c.1.1.5.3 1 .4c.6.1 1.1.3 1.4.6c.3.2.4.6.4 1c0 .6-.2 1-.5 1.3c-.4.3-.9.4-1.5.4zm3.2-.1V6.7h4.1v.9h-3.1v1.5h2.8v.9h-2.8v1.4h3.2v.9h-4.2zm5.3 0V6.7s2.24.03 2.2 0c.7 0 1.2.2 1.6.5c.4.4.6.8.6 1.4c0 .6-.2 1.1-.7 1.4c-.4.4-.9.5-1.6.5c.03.03-1.1 0-1.1 0v1.8h-1zm1-2.7s1.16.04 1.2 0c.3 0 .6-.1.8-.2c.3-.2.4-.5.4-.8c0-.3-.1-.5-.4-.7c-.2-.2-.5-.3-.8-.3c-.04.02-1.2 0-1.2 0v2zm4.4 2.7V6.7h4.1v.9h-3.1v1.5h2.8v.9h-2.8v1.4h3.2v.9h-4.2zm6.7 0V7.6h-1.8v-.9h4.6v.9h-1.8v4.7h-1z" stroke="none" fill="#fff"/></g></svg>