<?xml version="1.0" standalone="no"?><!DOCTYPE svg PUBLIC "-//W3C//DTD SVG 1.1//EN" "http://www.w3.org/Graphics/SVG/1.1/DTD/svg11.dtd"><svg xmlns="http://www.w3.org/2000/svg" version="1.1" width="285px" height="71.4px" viewBox="0 -3 285 71.4" style="top:-3px"><desc>Ekstra depolama i in 3 kullan l duvar ask s yla alan n z geli tirin</desc><defs/><g id="Polygon412357"><path d="m5.1 26.7c-.5.7-1.3 1-2.2 1c-.6 0-1.2-.1-1.6-.5c-.5-.3-.7-.8-.7-1.4c0-.7.2-1.1.7-1.5c.5-.4 1.1-.5 1.9-.5c.6 0 1.3.1 1.9.2v-.2c0-.5-.1-1-.5-1.2c-.3-.3-.7-.5-1.3-.5c-.6 0-1.3.2-1.9.5l-.3-.8c.7-.3 1.5-.5 2.3-.5c.9 0 1.5.2 2 .7c.4.4.6 1 .6 1.8v3.8h-.9v-.9s.02-.04 0 0zm-2 .3c.5 0 1-.2 1.4-.5c.4-.3.6-.7.6-1.2v-.6c-.6-.2-1.2-.2-1.8-.2c-.6 0-1 .1-1.3.3c-.3.2-.5.5-.5.9v.1c0 .3.2.6.5.9c.3.2.6.3 1.1.3zm5 .6v-8.8h.9v8.8h-.9zm7.1-.9c-.5.7-1.3 1-2.2 1c-.6 0-1.2-.1-1.6-.5c-.5-.3-.7-.8-.7-1.4c0-.7.2-1.1.7-1.5c.5-.4 1.1-.5 1.9-.5c.7 0 1.3.1 1.9.2v-.2c0-.5-.1-1-.5-1.2c-.3-.3-.7-.5-1.3-.5c-.6 0-1.3.2-1.9.5l-.3-.8c.7-.3 1.5-.5 2.3-.5c.9 0 1.5.2 2 .7c.4.4.6 1 .6 1.8c.02.01 0 3.8 0 3.8h-.9v-.9s.03-.04 0 0zm-2 .3c.5 0 1-.2 1.4-.5c.4-.3.6-.7.6-1.2v-.6c-.6-.2-1.2-.2-1.8-.2c-.6 0-1 .1-1.3.3c-.3.2-.5.5-.5.9v.1c0 .3.2.6.5.9c.3.2.6.3 1.1.3zm4.9.6v-6.2h.9s.01 1.08 0 1.1c.5-.8 1.2-1.2 2.1-1.2c.8 0 1.3.2 1.8.6c.4.5.6 1.1.6 1.8v3.9h-.9s-.02-3.62 0-3.6c0-.6-.2-1.1-.5-1.4c-.3-.3-.7-.5-1.2-.5c-.6 0-1 .2-1.4.5c-.3.4-.5.9-.5 1.4c.01.05 0 3.6 0 3.6h-.9zm7.5 0v-6.2h.9v6.2h-.9zm3 0v-6.2h1s-.04 1.08 0 1.1c.5-.8 1.2-1.2 2.1-1.2c.7 0 1.3.2 1.7.6c.4.5.7 1.1.7 1.8c-.04.05 0 3.9 0 3.9h-1s.03-3.62 0-3.6c0-.6-.1-1.1-.4-1.4c-.3-.3-.7-.5-1.3-.5c-.5 0-1 .2-1.3.5c-.4.4-.5.9-.5 1.4c-.04.05 0 3.6 0 3.6h-1zm7.5 0v-6.2h.9v6.2h-.9zm2.7 0v-.6l4.1-4.8H39v-.8h5.2v.6l-4.1 4.8h4.1v.8h-5.4zm7.1 0v-6.2h1v6.2h-1zm11.8 1.1c-.5.6-1.3.8-2.3.8c-1.1 0-2-.2-2.9-.8l.5-.7c.7.5 1.5.8 2.3.8c.7 0 1.3-.2 1.7-.6c.4-.4.6-.9.6-1.7v-.7c-.7.9-1.5 1.3-2.4 1.3c-.8 0-1.5-.3-2.1-.8c-.6-.5-.9-1.2-.9-2.1c0-.9.3-1.6.9-2.1c.6-.6 1.3-.8 2.1-.8c.9 0 1.7.4 2.4 1.2c-.01.01 0-1.1 0-1.1h.9v5.1c0 1-.3 1.7-.8 2.2zm-2.4-2.4c.7 0 1.2-.2 1.6-.6c.5-.4.7-.9.7-1.5c0-.6-.2-1.1-.7-1.5c-.4-.4-.9-.6-1.6-.6c-.6 0-1.1.2-1.5.6c-.4.3-.6.8-.6 1.5c0 .6.2 1.1.6 1.5c.4.4 1 .6 1.5.6zm10.5.3c-.6.8-1.5 1.1-2.5 1.1c-.9 0-1.6-.3-2.2-.9c-.6-.6-.9-1.3-.9-2.3c0-.9.3-1.7.8-2.3c.6-.6 1.3-.9 2.2-.9c.9 0 1.6.3 2.1.9c.5.6.8 1.4.8 2.3c0 .2 0 .3-.1.3h-4.9c.1.7.3 1.2.7 1.6c.5.4.9.5 1.5.5c.7 0 1.4-.3 2-.8l.5.5s.04-.02 0 0zm-4.7-2.4h4c0-.6-.2-1.1-.6-1.6c-.3-.4-.8-.6-1.4-.6c-.5 0-.9.2-1.3.6c-.4.4-.6.9-.7 1.6zm6.7 3.4v-8.8h.9v8.8h-.9zm3.1-7.6v-1h1v1h-1zm0 7.6v-6.2h.9v6.2h-.9zm4.6 1.9l-.9-.4l.9-1.4c-.8-.1-1.4-.4-2-.9l.4-.7c.7.6 1.4.8 2.2.8c.4 0 .7 0 .9-.2c.3-.2.4-.4.4-.7v-.1c0-.2-.2-.5-.4-.6c-.3-.2-.7-.3-1.2-.5c-.2 0-.4-.1-.5-.1c-.1 0-.2-.1-.4-.2c-.2-.1-.4-.1-.5-.2l-.3-.3c-.1-.1-.2-.3-.2-.4c-.1-.2-.1-.3-.1-.5c0-.6.2-1 .6-1.3c.4-.3.9-.5 1.5-.5c.8 0 1.5.2 2.2.7l-.4.7c-.6-.4-1.2-.6-1.8-.6c-.4 0-.7.1-.9.2c-.2.2-.3.4-.3.7c0 .1 0 .2.1.3c0 .1.1.2.2.2c.1.1.2.2.4.2c.1.1.3.2.4.2c.1 0 .2.1.5.2c.2 0 .4.1.5.2c.2 0 .4.1.6.2c.2.1.3.2.4.3c.2.1.3.3.3.4c.1.2.2.4.2.6v.1c0 .5-.2.9-.6 1.2c-.4.4-.8.6-1.4.6c-.02.01-.8 1.8-.8 1.8zm7.5-2.1c-.3.2-.7.3-1.1.3c-.5 0-.9-.1-1.3-.4c-.3-.3-.4-.7-.4-1.3c-.03-.04 0-3.8 0-3.8h-.9v-.8h.9v-1.9h.9v1.9h2v.8h-2s-.01 3.64 0 3.6c0 .7.3 1.1 1 1.1c.3 0 .6-.1.9-.2c.04-.05 0 .7 0 .7c0 0 .04.04 0 0zm1.7-7.4v-1h1.1v1h-1.1zm.1 7.6v-6.2h.9v6.2h-.9zm3 0v-6.2h1s-.03 1.62 0 1.6c.2-.5.6-.9 1-1.3c.4-.3.9-.4 1.5-.4v1s-.07-.02-.1 0c-.7 0-1.3.2-1.7.7c-.5.5-.7 1.2-.7 2.1c-.03.03 0 2.5 0 2.5h-1zm4.9-7.6v-1h1.1v1h-1.1zm.1 7.6v-6.2h.9v6.2h-.9zm3.1 0v-6.2h.9s-.01 1.08 0 1.1c.5-.8 1.2-1.2 2.1-1.2c.7 0 1.3.2 1.8.6c.4.5.6 1.1.6 1.8v3.9h-.9s-.03-3.62 0-3.6c0-.6-.2-1.1-.5-1.4c-.3-.3-.7-.5-1.3-.5c-.5 0-.9.2-1.3.5c-.3.4-.5.9-.5 1.4c-.01.05 0 3.6 0 3.6h-.9z" stroke="none" fill="#000"/></g><g id="Polygon412356"><path d="m1.2 9.6V1.2h6.1v.9H2.1v2.8h4.6v.9H2.1v2.9h5.2v.9H1.2zm7.9 0V.8h.9v6.1l3.3-3.5h1.2l-2.6 2.7l2.7 3.5h-1.1l-2.2-2.9L10 8v1.6h-.9zm8.8.1c-1 0-1.8-.3-2.6-.9l.5-.7c.7.6 1.4.8 2.1.8c.4 0 .7 0 .9-.2c.3-.2.4-.4.4-.7v-.1c0-.2-.1-.5-.4-.6c-.3-.2-.6-.3-1.1-.5c-.3 0-.4-.1-.5-.1c-.1 0-.3-.1-.5-.2c-.2-.1-.3-.1-.4-.2c-.1-.1-.3-.2-.4-.3c-.1-.1-.2-.3-.2-.4c-.1-.2-.1-.3-.1-.5c0-.6.2-1 .6-1.3c.4-.3.9-.5 1.5-.5c.8 0 1.6.2 2.2.7l-.4.7c-.6-.4-1.2-.6-1.8-.6c-.4 0-.7.1-.9.2c-.2.2-.3.4-.3.7c0 .1 0 .2.1.3c0 .1.1.2.2.2c.1.1.2.2.4.2c.1.1.3.2.4.2c.1 0 .3.1.5.2c.2 0 .4.1.6.2c.1 0 .3.1.5.2c.2.1.3.2.5.3c.1.1.2.3.3.4c0 .2.1.4.1.6v.1c0 .5-.2 1-.6 1.3c-.5.4-1 .5-1.6.5zm7-.3c-.4.2-.7.3-1.2.3c-.5 0-.9-.1-1.2-.4c-.3-.3-.5-.7-.5-1.3V4.2h-.9v-.8h.9V1.5h.9v1.9h2v.8h-2s.02 3.64 0 3.6c0 .7.4 1.1 1.1 1.1c.3 0 .6-.1.9-.2c-.04-.05 0 .7 0 .7c0 0-.04.04 0 0zm1.6.2V3.4h.9s.04 1.62 0 1.6c.3-.5.6-.9 1.1-1.3c.4-.3.9-.4 1.5-.4c-.02-.01 0 1 0 1c0 0-.1-.02-.1 0c-.7 0-1.3.2-1.8.7c-.4.5-.7 1.2-.7 2.1c.04.03 0 2.5 0 2.5h-.9zm8.7-.9c-.6.7-1.3 1-2.3 1c-.6 0-1.1-.1-1.6-.5c-.5-.3-.7-.8-.7-1.4c0-.7.3-1.1.7-1.5c.5-.4 1.2-.5 2-.5c.6 0 1.2.1 1.9.2v-.2c0-.5-.2-1-.5-1.2c-.3-.3-.8-.5-1.4-.5c-.6 0-1.2.2-1.9.5l-.2-.8c.7-.3 1.4-.5 2.2-.5c.9 0 1.6.2 2 .7c.4.4.7 1 .7 1.8c-.04.01 0 3.8 0 3.8h-.9v-.9s-.03-.04 0 0zm-2.1.3c.6 0 1.1-.2 1.5-.5c.4-.3.6-.7.6-1.2v-.6c-.6-.2-1.2-.2-1.8-.2c-.6 0-1.1.1-1.4.3c-.3.2-.5.5-.5.9v.1c0 .3.2.6.5.9c.3.2.7.3 1.1.3zm13.5-.6c-.6.9-1.4 1.3-2.4 1.3c-.8 0-1.5-.3-2-.8c-.6-.6-.9-1.4-.9-2.4c0-1 .3-1.8.9-2.3c.5-.6 1.2-.9 2-.9c1 0 1.8.4 2.4 1.3V.8h.9v8.8h-.9V8.4s.01-.05 0 0zm-2.2.5c.6 0 1.1-.2 1.6-.7c.4-.4.6-1 .6-1.7c0-.7-.2-1.3-.6-1.7c-.5-.5-1-.7-1.6-.7c-.6 0-1.1.2-1.6.6c-.4.5-.6 1.1-.6 1.8c0 .7.2 1.3.6 1.7c.5.5 1 .7 1.6.7zm10.5-.3c-.7.8-1.6 1.1-2.6 1.1c-.9 0-1.6-.3-2.2-.9c-.6-.6-.9-1.3-.9-2.3c0-.9.3-1.7.9-2.3c.5-.6 1.2-.9 2.1-.9c.9 0 1.6.3 2.1.9c.5.6.8 1.4.8 2.3v.3h-5c.1.7.3 1.2.8 1.6c.4.4.9.5 1.4.5c.8 0 1.4-.3 2-.8c-.01-.04.6.5.6.5c0 0-.04-.02 0 0zm-4.8-2.4h4c0-.6-.2-1.1-.5-1.6c-.4-.4-.8-.6-1.4-.6c-.6 0-1 .2-1.4.6c-.4.4-.6.9-.7 1.6zm6.6 5.3V3.4h.9s.02 1.24 0 1.2c.7-.9 1.5-1.3 2.4-1.3c.8 0 1.5.3 2.1.8c.6.6.9 1.4.9 2.4c0 1-.3 1.8-.9 2.3c-.6.6-1.3.9-2.1.9c-1 0-1.8-.4-2.4-1.3c.02.01 0 3.1 0 3.1h-.9zm3.1-2.6c.7 0 1.2-.2 1.6-.6c.4-.5.6-1.1.6-1.8c0-.7-.2-1.3-.6-1.7c-.4-.5-1-.7-1.6-.7c-.6 0-1.1.2-1.5.7c-.5.4-.7 1-.7 1.7c0 .7.2 1.3.7 1.7c.4.5.9.7 1.5.7zm7.7.8c-.9 0-1.7-.3-2.3-.9c-.6-.6-.9-1.4-.9-2.3c0-.9.3-1.7.9-2.3c.6-.6 1.4-.9 2.3-.9c.9 0 1.7.3 2.3.9c.6.6 1 1.4 1 2.3c0 .9-.4 1.7-1 2.3c-.6.6-1.4.9-2.3.9zm0-.8c.7 0 1.2-.2 1.7-.7c.4-.4.6-1 .6-1.7c0-.7-.2-1.2-.7-1.7c-.4-.5-1-.7-1.6-.7c-.7 0-1.2.2-1.6.7c-.5.4-.7 1-.7 1.7c0 .7.3 1.2.7 1.7c.4.5 1 .7 1.6.7zm5 .7V.8h.9v8.8h-.9zm7.2-.9c-.6.7-1.3 1-2.3 1c-.6 0-1.1-.1-1.6-.5c-.5-.3-.7-.8-.7-1.4c0-.7.2-1.1.7-1.5c.5-.4 1.2-.5 2-.5c.6 0 1.2.1 1.9.2v-.2c0-.5-.2-1-.5-1.2c-.3-.3-.8-.5-1.4-.5c-.6 0-1.2.2-1.9.5l-.2-.8c.7-.3 1.4-.5 2.2-.5c.9 0 1.6.2 2 .7c.4.4.7 1 .7 1.8c-.05.01 0 3.8 0 3.8h-.9v-.9s-.03-.04 0 0zm-2.1.3c.6 0 1.1-.2 1.5-.5c.4-.3.6-.7.6-1.2v-.6c-.6-.2-1.3-.2-1.8-.2c-.6 0-1.1.1-1.4.3c-.3.2-.5.5-.5.9v.1c0 .3.2.6.5.9c.3.2.7.3 1.1.3zm4.9.6V3.4h.9s.05 1.04 0 1c.3-.3.6-.6.9-.8c.3-.2.7-.3 1.2-.3c.9 0 1.6.4 1.9 1.2c.6-.8 1.3-1.2 2.2-1.2c.7 0 1.3.2 1.7.6c.4.5.6 1.1.6 1.9c.03-.04 0 3.8 0 3.8h-.9s.01-3.62 0-3.6c0-.6-.1-1.1-.4-1.4c-.3-.3-.7-.5-1.2-.5c-.5 0-.9.2-1.2.5c-.4.4-.5.8-.5 1.4c-.02.02 0 3.6 0 3.6h-.9s-.03-3.65 0-3.6c0-.6-.2-1.1-.5-1.4c-.2-.3-.6-.5-1.1-.5c-.5 0-.9.2-1.3.6c-.3.3-.5.8-.5 1.4c.05-.04 0 3.5 0 3.5h-.9zM98 8.7c-.6.7-1.3 1-2.3 1c-.6 0-1.1-.1-1.6-.5c-.4-.3-.7-.8-.7-1.4c0-.7.3-1.1.8-1.5c.4-.4 1.1-.5 1.9-.5c.6 0 1.3.1 1.9.2v-.2c0-.5-.2-1-.5-1.2c-.3-.3-.8-.5-1.4-.5c-.6 0-1.2.2-1.8.5l-.3-.8c.7-.3 1.5-.5 2.2-.5c.9 0 1.6.2 2 .7c.5.4.7 1 .7 1.8c-.02.01 0 3.8 0 3.8h-.9v-.9s-.01-.04 0 0zm-2.1.3c.6 0 1.1-.2 1.5-.5c.4-.3.6-.7.6-1.2v-.6c-.6-.2-1.2-.2-1.8-.2c-.6 0-1 .1-1.4.3c-.3.2-.4.5-.4.9v.1c0 .3.1.6.4.9c.3.2.7.3 1.1.3zm8.6-7v-1h1v1h-1zm0 7.6V3.4h1v6.2h-1zm5.3 1.9l-.9-.4l.9-1.4c-.7-.1-1.4-.5-1.8-1.1c-.5-.6-.8-1.3-.8-2.1c0-.9.3-1.7.9-2.3c.6-.6 1.4-.9 2.3-.9c1 0 1.8.3 2.5 1.1l-.6.6c-.6-.6-1.2-.9-1.9-.9c-.6 0-1.2.2-1.6.7c-.4.4-.6 1-.6 1.7c0 .7.2 1.2.6 1.7c.5.5 1 .7 1.6.7c.7 0 1.4-.3 1.9-.9l.6.5c-.6.8-1.4 1.2-2.3 1.2l-.8 1.8zm4.7-9.5v-1h1v1h-1zm0 7.6V3.4h1v6.2h-1zm3.1 0V3.4h.9s.03 1.08 0 1.1c.5-.8 1.2-1.2 2.2-1.2c.7 0 1.3.2 1.7.6c.4.5.6 1.1.6 1.8c.03.05 0 3.9 0 3.9h-.9s.01-3.62 0-3.6c0-.6-.1-1.1-.4-1.4c-.3-.3-.8-.5-1.3-.5c-.5 0-1 .2-1.3.5c-.4.4-.6.9-.6 1.4c.03.05 0 3.6 0 3.6h-.9zm13.7.1c-1.3 0-2.4-.5-3.1-1.5l.7-.6c.6.9 1.5 1.3 2.4 1.3c.5 0 1-.2 1.3-.5c.4-.3.6-.7.6-1.2c0-.5-.3-.9-.7-1.2c-.4-.3-1-.4-1.7-.4h-.5l-.2-.6l2.6-2.9h-4.1v-.9h5.4v.7s-2.66 2.92-2.7 2.9c.8.1 1.5.3 2 .7c.6.4.8 1 .8 1.7c0 .7-.3 1.4-.8 1.8c-.5.5-1.2.7-2 .7zm8.3-.1V.8h.9v6.1l3.3-3.5h1.2l-2.6 2.7l2.7 3.5H144l-2.3-2.9l-1.2 1.3v1.6h-.9zm11.1-1.1c-.5.8-1.2 1.2-2.2 1.2c-.7 0-1.3-.2-1.7-.7c-.4-.4-.6-1-.6-1.8c-.03.05 0-3.8 0-3.8h.9s-.01 3.62 0 3.6c0 .6.1 1.1.4 1.4c.3.3.8.5 1.3.5c.5 0 1-.2 1.3-.5c.4-.4.6-.9.6-1.5c-.03.05 0-3.5 0-3.5h.9v6.2h-.9V8.5s-.03.02 0 0zm3 1.1V.8h1v8.8h-1zm3.2 0V.8h.9v8.8h-.9zm7.2-.9c-.6.7-1.3 1-2.3 1c-.6 0-1.1-.1-1.6-.5c-.5-.3-.7-.8-.7-1.4c0-.7.2-1.1.7-1.5c.5-.4 1.2-.5 2-.5c.6 0 1.2.1 1.9.2v-.2c0-.5-.2-1-.5-1.2c-.3-.3-.8-.5-1.4-.5c-.6 0-1.2.2-1.9.5l-.2-.8c.7-.3 1.4-.5 2.2-.5c.9 0 1.6.2 2 .7c.4.4.6 1 .6 1.8c.05.01 0 3.8 0 3.8h-.8v-.9s-.04-.04 0 0zM162 9c.6 0 1.1-.2 1.5-.5c.4-.3.6-.7.6-1.2v-.6c-.7-.2-1.3-.2-1.9-.2c-.5 0-1 .1-1.3.3c-.3.2-.5.5-.5.9v.1c0 .3.2.6.5.9c.3.2.7.3 1.1.3zm4.9.6V3.4h.9s.04 1.08 0 1.1c.5-.8 1.3-1.2 2.2-1.2c.7 0 1.3.2 1.7.6c.4.5.6 1.1.6 1.8c.04.05 0 3.9 0 3.9h-.9s.02-3.62 0-3.6c0-.6-.1-1.1-.4-1.4c-.3-.3-.8-.5-1.3-.5c-.5 0-1 .2-1.3.5c-.4.4-.6.9-.6 1.4c.04.05 0 3.6 0 3.6h-.9zm7.5 0V3.4h.9v6.2h-.9zm4.6 1.9l-.9-.4s.89-1.42.9-1.4c-.8-.1-1.5-.4-2.1-.9l.5-.7c.7.6 1.4.8 2.2.8c.3 0 .7 0 .9-.2c.2-.2.3-.4.3-.7v-.1c0-.2-.1-.5-.3-.6c-.3-.2-.7-.3-1.2-.5c-.2 0-.4-.1-.5-.1c-.1 0-.2-.1-.4-.2c-.2-.1-.4-.1-.5-.2l-.3-.3c-.1-.1-.2-.3-.3-.4c0-.2-.1-.3-.1-.5c0-.6.2-1 .6-1.3c.4-.3.9-.5 1.6-.5c.8 0 1.5.2 2.2.7l-.4.7c-.6-.4-1.3-.6-1.9-.6c-.3 0-.6.1-.8.2c-.3.2-.4.4-.4.7c0 .1.1.2.1.3l.2.2c.1.1.3.2.4.2c.2.1.3.2.4.2c.1 0 .3.1.5.2c.3 0 .5.1.6.2c.2 0 .3.1.5.2c.2.1.4.2.5.3c.1.1.2.3.3.4c.1.2.1.4.1.6v.1c0 .5-.2.9-.5 1.2c-.4.4-.9.6-1.4.6c-.04.01-.8 1.8-.8 1.8zm4.5-1.9V.8h.9v8.8h-.9zm3.2 0V3.4h.9v6.2h-.9zm11.6-1.2c-.6.9-1.4 1.3-2.3 1.3c-.8 0-1.5-.3-2.1-.8c-.6-.6-.9-1.4-.9-2.4c0-1 .3-1.8.9-2.3c.6-.6 1.3-.9 2.1-.9c.9 0 1.7.4 2.3 1.3c.03-.02 0-3.8 0-3.8h1v8.8h-1V8.4s.03-.05 0 0zm-2.2.5c.6 0 1.1-.2 1.6-.7c.4-.4.7-1 .7-1.7c0-.7-.3-1.3-.7-1.7c-.5-.5-1-.7-1.6-.7c-.6 0-1.1.2-1.5.6c-.5.5-.7 1.1-.7 1.8c0 .7.3 1.3.7 1.7c.4.5.9.7 1.5.7zm9.6-.4c-.5.8-1.2 1.2-2.1 1.2c-.7 0-1.3-.2-1.7-.7c-.5-.4-.7-1-.7-1.8c.02.05 0-3.8 0-3.8h.9s.05 3.62 0 3.6c0 .6.2 1.1.5 1.4c.3.3.7.5 1.3.5c.5 0 .9-.2 1.3-.5c.3-.4.5-.9.5-1.5c.02.05 0-3.5 0-3.5h.9v6.2h-.9V8.5s.02.02 0 0zm5.1 1.1l-2.7-6.2h1l2.1 5.1l2.1-5.1h1l-2.7 6.2h-.8zm8.7-.9c-.5.7-1.2 1-2.2 1c-.6 0-1.2-.1-1.6-.5c-.5-.3-.7-.8-.7-1.4c0-.7.2-1.1.7-1.5c.5-.4 1.1-.5 1.9-.5c.7 0 1.3.1 1.9.2v-.2c0-.5-.1-1-.4-1.2c-.4-.3-.8-.5-1.4-.5c-.6 0-1.3.2-1.9.5l-.3-.8c.8-.3 1.5-.5 2.3-.5c.9 0 1.5.2 2 .7c.4.4.6 1 .6 1.8c.04.01 0 3.8 0 3.8h-.9v-.9s.05-.04 0 0zm-2 .3c.6 0 1.1-.2 1.5-.5c.4-.3.6-.7.6-1.2v-.6c-.7-.2-1.3-.2-1.9-.2c-.5 0-1 .1-1.3.3c-.3.2-.5.5-.5.9v.1c0 .3.2.6.5.9c.3.2.7.3 1.1.3zm4.9.6V3.4h.9s.03 1.62 0 1.6c.3-.5.6-.9 1-1.3c.5-.3 1-.4 1.6-.4c-.04-.01 0 1 0 1c0 0-.11-.02-.1 0c-.7 0-1.3.2-1.8.7c-.4.5-.7 1.2-.7 2.1c.03.03 0 2.5 0 2.5h-.9zm12.6-.9c-.6.7-1.3 1-2.3 1c-.6 0-1.2-.1-1.6-.5c-.5-.3-.7-.8-.7-1.4c0-.7.2-1.1.7-1.5c.5-.4 1.1-.5 1.9-.5c.7 0 1.3.1 2 .2v-.2c0-.5-.2-1-.5-1.2c-.3-.3-.8-.5-1.4-.5c-.6 0-1.2.2-1.9.5l-.3-.8c.8-.3 1.5-.5 2.3-.5c.9 0 1.6.2 2 .7c.4.4.6 1 .6 1.8c.04.01 0 3.8 0 3.8h-.8v-.9s-.04-.04 0 0zm-2.1.3c.6 0 1.1-.2 1.5-.5c.4-.3.6-.7.6-1.2v-.6c-.7-.2-1.3-.2-1.9-.2c-.5 0-1 .1-1.3.3c-.3.2-.5.5-.5.9v.1c0 .3.2.6.5.9c.3.2.7.3 1.1.3zm7 .7c-1 0-1.8-.3-2.6-.9l.5-.7c.7.6 1.4.8 2.1.8c.4 0 .7 0 .9-.2c.3-.2.4-.4.4-.7v-.1c0-.2-.1-.5-.4-.6c-.3-.2-.6-.3-1.2-.5c-.2 0-.3-.1-.4-.1c-.1 0-.3-.1-.5-.2c-.2-.1-.4-.1-.5-.2l-.3-.3c-.1-.1-.2-.3-.2-.4c-.1-.2-.1-.3-.1-.5c0-.6.2-1 .6-1.3c.4-.3.9-.5 1.5-.5c.8 0 1.6.2 2.2.7l-.4.7c-.6-.4-1.2-.6-1.8-.6c-.4 0-.7.1-.9.2c-.2.2-.3.4-.3.7c0 .1 0 .2.1.3c0 .1.1.2.2.2c.1.1.2.2.4.2c.1.1.3.2.4.2c.1 0 .3.1.5.2c.2 0 .4.1.6.2c.1 0 .3.1.5.2c.2.1.3.2.5.3c.1.1.2.3.3.4c0 .2.1.4.1.6v.1c0 .5-.2 1-.7 1.3c-.4.4-.9.5-1.5.5zm3.9-.1V.8h.9v6.1l3.4-3.5h1.1l-2.6 2.7l2.7 3.5h-1.1L246 6.7l-1.3 1.3v1.6h-.9zm6.9 0V3.4h.9v6.2h-.9zm5.1.1c-.9 0-1.8-.3-2.5-.9l.4-.7c.7.6 1.4.8 2.2.8c.4 0 .7 0 .9-.2c.2-.2.4-.4.4-.7v-.1c0-.2-.2-.5-.4-.6c-.3-.2-.7-.3-1.2-.5c-.2 0-.4-.1-.5-.1c-.1 0-.2-.1-.4-.2c-.2-.1-.4-.1-.5-.2l-.3-.3c-.1-.1-.2-.3-.3-.4v-.5c0-.6.2-1 .5-1.3c.4-.3 1-.5 1.6-.5c.8 0 1.5.2 2.2.7l-.4.7c-.6-.4-1.2-.6-1.9-.6c-.3 0-.6.1-.8.2c-.2.2-.4.4-.4.7c0 .1.1.2.1.3c.1.1.2.2.3.2c0 .1.2.2.3.2c.2.1.3.2.4.2c.2 0 .3.1.5.2c.3 0 .5.1.6.2c.2 0 .4.1.5.2c.2.1.4.2.5.3c.1.1.2.3.3.4c.1.2.1.4.1.6v.1c0 .5-.2 1-.6 1.3c-.4.4-.9.5-1.6.5zm4-.1V3.4h1v6.2h-1zm5.8-1l1.9-5.2h1s-2.57 6.4-2.6 6.4c-.2.6-.5 1.1-.8 1.4c-.4.2-.8.4-1.2.4c-.5 0-.9-.1-1.4-.4l.4-.7c.3.2.6.2.9.2c.3 0 .6 0 .7-.2c.2-.2.4-.5.6-.9l-2.8-6.2h1l2.3 5.2zm4.5 1V.8h.9v8.8h-.9zm7.1-.9c-.5.7-1.2 1-2.2 1c-.6 0-1.2-.1-1.6-.5c-.5-.3-.7-.8-.7-1.4c0-.7.2-1.1.7-1.5c.5-.4 1.1-.5 1.9-.5c.7 0 1.3.1 1.9.2v-.2c0-.5-.1-1-.4-1.2c-.4-.3-.8-.5-1.4-.5c-.6 0-1.3.2-1.9.5l-.3-.8c.8-.3 1.5-.5 2.3-.5c.9 0 1.5.2 2 .7c.4.4.6 1 .6 1.8c.03.01 0 3.8 0 3.8h-.9v-.9s.04-.04 0 0zm-2 .3c.6 0 1.1-.2 1.5-.5c.4-.3.6-.7.6-1.2v-.6c-.7-.2-1.3-.2-1.9-.2c-.5 0-1 .1-1.3.3c-.3.2-.5.5-.5.9v.1c0 .3.2.6.5.9c.3.2.6.3 1.1.3z" stroke="none" fill="#000"/></g></svg>