<?xml version="1.0" standalone="no"?><!DOCTYPE svg PUBLIC "-//W3C//DTD SVG 1.1//EN" "http://www.w3.org/Graphics/SVG/1.1/DTD/svg11.dtd"><svg xmlns="http://www.w3.org/2000/svg" version="1.1" width="16.2px" height="12.4px" viewBox="0 -1 16.2 12.4" style="top:-1px"><desc/><defs/><g id="Polygon361409"><path d="m3.6 7.5v-.4s1.76-1.62 1.8-1.6c.3-.4.6-.6.8-.9c.1-.2.2-.4.2-.7c0-.2-.1-.5-.3-.6c-.2-.2-.4-.3-.7-.3c-.3 0-.5.1-.7.2c-.2.1-.4.4-.6.6l-.4-.2c.2-.4.5-.7.7-.8c.3-.2.6-.3 1-.3c.5 0 .8.1 1.1.4c.3.3.5.6.5 1c0 .3-.1.7-.3.9c-.2.3-.5.6-1 1c.01.01-1.3 1.2-1.3 1.2h2.6v.5H3.6zm4.2 0v-.4s1.75-1.62 1.7-1.6c.4-.4.7-.6.8-.9c.2-.2.3-.4.3-.7c0-.2-.1-.5-.3-.6c-.2-.2-.4-.3-.7-.3c-.3 0-.5.1-.7.2c-.2.1-.4.4-.6.6l-.4-.2c.2-.4.5-.7.7-.8c.3-.2.6-.3 1-.3c.5 0 .8.1 1.1.4c.3.3.4.6.4 1c0 .3 0 .7-.2.9c-.2.3-.5.6-1 1c.01.01-1.3 1.2-1.3 1.2h2.6v.5H7.8zm4.7-1c.4.4.8.6 1.2.6c.5 0 .8-.2 1.1-.6c.2-.4.4-.9.4-1.5v-.1c-.4.5-.8.8-1.4.8c-.5 0-.9-.2-1.3-.4c-.3-.3-.4-.7-.4-1.1c0-.5.1-.9.5-1.2c.3-.3.7-.5 1.2-.5c.6 0 1 .2 1.3.5c.4.4.6 1 .6 1.9c0 .8-.2 1.4-.5 1.9c-.4.5-.9.8-1.5.8c-.5 0-1-.2-1.5-.6c-.02-.04.3-.5.3-.5c0 0 0 .03 0 0zm1.3-1.3c.4 0 .7-.1.9-.3c.2-.2.4-.5.4-.8c0-.3-.2-.6-.4-.8c-.2-.2-.5-.3-.9-.3c-.3 0-.6.1-.8.3c-.3.2-.4.5-.4.8c0 .4.1.6.4.8c.2.2.5.3.8.3z" stroke="none" fill="#000"/></g></svg>