<?xml version="1.0" standalone="no"?><!DOCTYPE svg PUBLIC "-//W3C//DTD SVG 1.1//EN" "http://www.w3.org/Graphics/SVG/1.1/DTD/svg11.dtd"><svg xmlns="http://www.w3.org/2000/svg" version="1.1" width="67px" height="21.6px" viewBox="0 -3 67 21.6" style="top:-3px"><desc>BK 2249</desc><defs/><g id="Polygon389959"><path d="m.7 6.4V.8h2.6c.6 0 1.1.2 1.4.5c.3.3.4.6.4.9v.1c0 .5-.2.9-.7 1.2c.3.1.6.3.8.5c.1.2.2.5.2.8v.1c0 .5-.2.8-.5 1.1c-.4.3-.9.4-1.6.4H.7zM3 3.1c.6 0 .9-.2.9-.6c0-.4-.3-.6-.8-.6c-.01-.02-1.2 0-1.2 0v1.2h1.1s.01-.04 0 0zm.3 2.2c.6 0 .9-.2.9-.6c0-.4-.3-.6-.9-.6H1.9v1.2h1.4s.04.02 0 0zm3.1 1.1V.8h1.3v2.4L9.9.8h1.5L9.2 3.2l2.3 3.2h-1.4L8.3 4l-.6.7v1.7H6.4zm8 0v-1s1.87-1.5 1.9-1.5c.3-.3.6-.5.7-.7c.2-.2.2-.4.2-.6c0-.3 0-.5-.2-.6c-.1-.1-.3-.2-.5-.2c-.2 0-.4.1-.6.2l-.6.6l-.8-.7c.3-.4.6-.7.9-.9c.3-.2.7-.3 1.2-.3c.5 0 1 .2 1.4.5c.3.3.5.7.5 1.2v.1c0 .4-.1.8-.3 1.1c-.2.2-.6.6-1.2 1c.02.03-.9.7-.9.7h2.5v1.1h-4.2zm5 0v-1s1.86-1.5 1.9-1.5c.3-.3.6-.5.7-.7c.2-.2.2-.4.2-.6c0-.3 0-.5-.2-.6c-.1-.1-.3-.2-.5-.2c-.2 0-.4.1-.6.2c-.2.1-.4.3-.6.6l-.8-.7c.3-.4.6-.7.9-.9c.3-.2.7-.3 1.2-.3c.5 0 1 .2 1.3.5c.4.3.6.7.6 1.2v.1c0 .4-.1.8-.3 1.1c-.3.2-.6.6-1.2 1c.01.03-.9.7-.9.7h2.4v1.1h-4.1zm7.6 0V5.2h-2.7l-.2-.9L27.2.8h1v3.4h.8v1h-.8v1.2H27zm-1.4-2.2h1.4V2.4l-1.4 1.8zm4.9.7c.4.3.8.5 1.2.5c.3 0 .5-.1.7-.3c.2-.1.3-.3.4-.4c0-.2.1-.4.1-.6c-.3.3-.7.4-1.2.4c-.6 0-1.1-.2-1.4-.5c-.4-.3-.6-.8-.6-1.3c0-.6.2-1.1.6-1.4c.4-.4 1-.6 1.6-.6c.3 0 .7.1.9.1c.3.1.5.3.7.5c.4.5.7 1.2.7 2.1c0 1-.3 1.7-.7 2.3c-.4.5-1 .8-1.8.8c-.7 0-1.3-.2-1.8-.7l.6-.9s.02 0 0 0zm1.4-1.4c.3 0 .6-.1.7-.3c.2-.1.3-.3.3-.6c0-.2-.1-.4-.3-.6c-.1-.2-.4-.2-.7-.2c-.3 0-.5 0-.7.2c-.1.1-.2.4-.2.6c0 .3.1.5.2.6c.2.2.4.3.7.3z" stroke="none" fill="#000"/></g></svg>