<?xml version="1.0" standalone="no"?><!DOCTYPE svg PUBLIC "-//W3C//DTD SVG 1.1//EN" "http://www.w3.org/Graphics/SVG/1.1/DTD/svg11.dtd"><svg xmlns="http://www.w3.org/2000/svg" version="1.1" width="127px" height="78.4px" viewBox="0 -3 127 78.4" style="top:-3px">  <desc>Fener – Firefly r n Kodu: ZD 32318 Renk: Black Toz boyal ve elektro kaplamal elik D 15,3 cm, H 25 cm Tasar m: Mav...</desc>  <defs/>  <g id="Polygon357725">    <path d="M 2 59.6 L 2 55.2 L 0.3 55.2 L 0.3 54.7 L 4.2 54.7 L 4.2 55.2 L 2.5 55.2 L 2.5 59.6 L 2 59.6 Z M 6.6 59.1 C 6.3 59.5 5.9 59.7 5.3 59.7 C 4.9 59.7 4.6 59.6 4.4 59.4 C 4.1 59.2 4 58.9 4 58.5 C 4 58.5 4 58.5 4 58.5 C 4 58.2 4.1 57.9 4.4 57.7 C 4.7 57.5 5 57.4 5.5 57.4 C 5.9 57.4 6.2 57.4 6.6 57.5 C 6.6 57.5 6.6 57.4 6.6 57.4 C 6.6 57.1 6.5 56.8 6.3 56.7 C 6.1 56.5 5.9 56.4 5.5 56.4 C 5.2 56.4 4.8 56.5 4.4 56.7 C 4.4 56.7 4.3 56.2 4.3 56.2 C 4.7 56 5.1 55.9 5.6 55.9 C 6.1 55.9 6.5 56.1 6.8 56.3 C 7 56.6 7.1 56.9 7.1 57.4 C 7.13 57.39 7.1 59.6 7.1 59.6 L 6.6 59.6 L 6.6 59.1 C 6.6 59.1 6.62 59.05 6.6 59.1 Z M 5.4 59.2 C 5.8 59.2 6 59.2 6.3 59 C 6.5 58.8 6.6 58.6 6.6 58.3 C 6.6 58.3 6.6 57.9 6.6 57.9 C 6.3 57.8 5.9 57.8 5.6 57.8 C 5.2 57.8 5 57.8 4.8 58 C 4.6 58.1 4.5 58.3 4.5 58.5 C 4.5 58.5 4.5 58.5 4.5 58.5 C 4.5 58.7 4.6 58.9 4.8 59.1 C 4.9 59.2 5.2 59.2 5.4 59.2 Z M 9.5 59.7 C 8.9 59.7 8.4 59.5 8 59.1 C 8 59.1 8.3 58.8 8.3 58.8 C 8.7 59.1 9.1 59.2 9.5 59.2 C 9.7 59.2 9.9 59.2 10 59.1 C 10.2 59 10.3 58.8 10.3 58.6 C 10.3 58.6 10.3 58.6 10.3 58.6 C 10.3 58.5 10.2 58.3 10 58.2 C 9.9 58.2 9.6 58.1 9.4 58 C 9.2 58 9.1 57.9 9.1 57.9 C 9 57.9 8.9 57.8 8.8 57.8 C 8.7 57.8 8.6 57.7 8.5 57.7 C 8.5 57.6 8.4 57.6 8.3 57.5 C 8.3 57.4 8.2 57.4 8.2 57.3 C 8.2 57.2 8.2 57.1 8.2 57 C 8.2 57 8.2 57 8.2 57 C 8.2 56.6 8.3 56.4 8.5 56.2 C 8.7 56 9 55.9 9.4 55.9 C 9.9 55.9 10.3 56.1 10.7 56.3 C 10.7 56.3 10.4 56.7 10.4 56.7 C 10.1 56.5 9.7 56.4 9.4 56.4 C 9.2 56.4 9 56.4 8.9 56.5 C 8.7 56.6 8.7 56.7 8.7 56.9 C 8.7 56.9 8.7 56.9 8.7 56.9 C 8.7 57 8.7 57 8.7 57.1 C 8.8 57.1 8.8 57.2 8.9 57.2 C 8.9 57.3 9 57.3 9.1 57.4 C 9.2 57.4 9.3 57.4 9.3 57.4 C 9.4 57.5 9.5 57.5 9.6 57.5 C 9.7 57.6 9.9 57.6 9.9 57.6 C 10 57.7 10.1 57.7 10.3 57.8 C 10.4 57.8 10.5 57.9 10.5 58 C 10.6 58 10.6 58.1 10.7 58.2 C 10.7 58.3 10.8 58.4 10.8 58.6 C 10.8 58.6 10.8 58.6 10.8 58.6 C 10.8 58.9 10.6 59.2 10.4 59.4 C 10.2 59.6 9.9 59.7 9.5 59.7 Z M 14.2 59.1 C 13.8 59.5 13.4 59.7 12.8 59.7 C 12.5 59.7 12.2 59.6 11.9 59.4 C 11.6 59.2 11.5 58.9 11.5 58.5 C 11.5 58.5 11.5 58.5 11.5 58.5 C 11.5 58.2 11.6 57.9 11.9 57.7 C 12.2 57.5 12.6 57.4 13 57.4 C 13.4 57.4 13.8 57.4 14.2 57.5 C 14.2 57.5 14.2 57.4 14.2 57.4 C 14.2 57.1 14.1 56.8 13.9 56.7 C 13.7 56.5 13.4 56.4 13.1 56.4 C 12.7 56.4 12.3 56.5 12 56.7 C 12 56.7 11.8 56.2 11.8 56.2 C 12.2 56 12.7 55.9 13.1 55.9 C 13.6 55.9 14 56.1 14.3 56.3 C 14.5 56.6 14.7 56.9 14.7 57.4 C 14.67 57.39 14.7 59.6 14.7 59.6 L 14.2 59.6 L 14.2 59.1 C 14.2 59.1 14.15 59.05 14.2 59.1 Z M 12.9 59.2 C 13.3 59.2 13.6 59.2 13.8 59 C 14 58.8 14.2 58.6 14.2 58.3 C 14.2 58.3 14.2 57.9 14.2 57.9 C 13.8 57.8 13.4 57.8 13.1 57.8 C 12.8 57.8 12.5 57.8 12.3 58 C 12.1 58.1 12 58.3 12 58.5 C 12 58.5 12 58.5 12 58.5 C 12 58.7 12.1 58.9 12.3 59.1 C 12.5 59.2 12.7 59.2 12.9 59.2 Z M 15.8 59.6 L 15.8 56 L 16.4 56 C 16.4 56 16.36 56.93 16.4 56.9 C 16.5 56.6 16.7 56.4 17 56.2 C 17.2 56 17.5 55.9 17.8 55.9 C 17.84 55.92 17.8 56.5 17.8 56.5 C 17.8 56.5 17.79 56.5 17.8 56.5 C 17.4 56.5 17 56.6 16.8 56.9 C 16.5 57.2 16.4 57.6 16.4 58.2 C 16.36 58.16 16.4 59.6 16.4 59.6 L 15.8 59.6 Z M 18.7 59.6 L 18.7 56 L 19.2 56 L 19.2 59.6 L 18.7 59.6 Z M 20.5 59.6 L 20.5 56 L 21 56 C 21 56 21.03 56.59 21 56.6 C 21.2 56.4 21.3 56.2 21.5 56.1 C 21.7 56 21.9 55.9 22.2 55.9 C 22.7 55.9 23.1 56.1 23.4 56.6 C 23.7 56.1 24.1 55.9 24.6 55.9 C 25.1 55.9 25.4 56 25.6 56.3 C 25.9 56.6 26 56.9 26 57.4 C 25.98 57.36 26 59.6 26 59.6 L 25.4 59.6 C 25.4 59.6 25.44 57.49 25.4 57.5 C 25.4 57.1 25.4 56.9 25.2 56.7 C 25 56.5 24.8 56.4 24.5 56.4 C 24.2 56.4 24 56.5 23.8 56.7 C 23.6 56.9 23.5 57.2 23.5 57.5 C 23.51 57.51 23.5 59.6 23.5 59.6 L 23 59.6 C 23 59.6 22.97 57.47 23 57.5 C 23 57.1 22.9 56.9 22.7 56.7 C 22.6 56.5 22.3 56.4 22 56.4 C 21.8 56.4 21.5 56.5 21.3 56.7 C 21.1 56.9 21 57.2 21 57.5 C 21.03 57.53 21 59.6 21 59.6 L 20.5 59.6 Z M 27.1 56.7 L 27.1 56 L 27.7 56 L 27.7 56.7 L 27.1 56.7 Z M 27.1 59.6 L 27.1 58.9 L 27.7 58.9 L 27.7 59.6 L 27.1 59.6 Z M 31.1 59.6 L 31.1 54.7 L 31.7 54.7 L 33.4 57.4 L 35.2 54.7 L 35.8 54.7 L 35.8 59.6 L 35.2 59.6 L 35.2 55.6 L 33.5 58.3 L 33.4 58.3 L 31.6 55.6 L 31.6 59.6 L 31.1 59.6 Z M 39.5 59.1 C 39.2 59.5 38.7 59.7 38.2 59.7 C 37.8 59.7 37.5 59.6 37.2 59.4 C 36.9 59.2 36.8 58.9 36.8 58.5 C 36.8 58.5 36.8 58.5 36.8 58.5 C 36.8 58.2 37 57.9 37.2 57.7 C 37.5 57.5 37.9 57.4 38.4 57.4 C 38.7 57.4 39.1 57.4 39.5 57.5 C 39.5 57.5 39.5 57.4 39.5 57.4 C 39.5 57.1 39.4 56.8 39.2 56.7 C 39 56.5 38.7 56.4 38.4 56.4 C 38 56.4 37.7 56.5 37.3 56.7 C 37.3 56.7 37.1 56.2 37.1 56.2 C 37.6 56 38 55.9 38.5 55.9 C 39 55.9 39.4 56.1 39.6 56.3 C 39.9 56.6 40 56.9 40 57.4 C 39.99 57.39 40 59.6 40 59.6 L 39.5 59.6 L 39.5 59.1 C 39.5 59.1 39.47 59.05 39.5 59.1 Z M 38.3 59.2 C 38.6 59.2 38.9 59.2 39.1 59 C 39.4 58.8 39.5 58.6 39.5 58.3 C 39.5 58.3 39.5 57.9 39.5 57.9 C 39.1 57.8 38.8 57.8 38.4 57.8 C 38.1 57.8 37.8 57.8 37.6 58 C 37.5 58.1 37.4 58.3 37.4 58.5 C 37.4 58.5 37.4 58.5 37.4 58.5 C 37.4 58.7 37.4 58.9 37.6 59.1 C 37.8 59.2 38 59.2 38.3 59.2 Z M 42.2 59.6 L 40.6 56 L 41.2 56 L 42.5 59 L 43.7 56 L 44.3 56 L 42.7 59.6 L 42.2 59.6 Z M 45.1 59.6 L 45.1 56 L 45.6 56 C 45.6 56 45.65 56.93 45.6 56.9 C 45.8 56.6 46 56.4 46.2 56.2 C 46.5 56 46.8 55.9 47.1 55.9 C 47.12 55.92 47.1 56.5 47.1 56.5 C 47.1 56.5 47.08 56.5 47.1 56.5 C 46.7 56.5 46.3 56.6 46.1 56.9 C 45.8 57.2 45.6 57.6 45.6 58.2 C 45.65 58.16 45.6 59.6 45.6 59.6 L 45.1 59.6 Z M 49.4 59.7 C 48.9 59.7 48.5 59.5 48.1 59.1 C 47.7 58.8 47.6 58.3 47.6 57.8 C 47.6 57.8 47.6 57.8 47.6 57.8 C 47.6 57.3 47.7 56.8 48.1 56.5 C 48.5 56.1 48.9 55.9 49.5 55.9 C 50 55.9 50.4 56.1 50.8 56.5 C 51.2 56.8 51.3 57.3 51.3 57.8 C 51.3 57.8 51.3 57.8 51.3 57.8 C 51.3 58.3 51.2 58.8 50.8 59.1 C 50.4 59.5 50 59.7 49.4 59.7 Z M 49.5 59.2 C 49.8 59.2 50.2 59.1 50.4 58.8 C 50.7 58.5 50.8 58.2 50.8 57.8 C 50.8 57.8 50.8 57.8 50.8 57.8 C 50.8 57.4 50.7 57.1 50.4 56.8 C 50.1 56.5 49.8 56.4 49.4 56.4 C 49.1 56.4 48.7 56.5 48.5 56.8 C 48.2 57.1 48.1 57.4 48.1 57.8 C 48.1 57.8 48.1 57.8 48.1 57.8 C 48.1 58.2 48.2 58.5 48.5 58.8 C 48.8 59.1 49.1 59.2 49.5 59.2 Z M 51.6 60.5 L 54.8 54 L 55.3 54 L 52.1 60.5 L 51.6 60.5 Z M 56 59.6 L 56 54.7 L 56.5 54.7 L 56.5 59.1 L 59.3 59.1 L 59.3 59.6 L 56 59.6 Z M 63.2 59 C 62.8 59.5 62.3 59.7 61.7 59.7 C 61.2 59.7 60.8 59.5 60.4 59.2 C 60.1 58.8 59.9 58.4 59.9 57.8 C 59.9 57.8 59.9 57.8 59.9 57.8 C 59.9 57.3 60.1 56.8 60.4 56.4 C 60.7 56.1 61.1 55.9 61.6 55.9 C 62.2 55.9 62.6 56.1 62.9 56.4 C 63.2 56.8 63.3 57.3 63.3 57.8 C 63.3 57.9 63.3 57.9 63.3 58 C 63.3 58 60.5 58 60.5 58 C 60.5 58.4 60.6 58.7 60.9 58.9 C 61.1 59.1 61.4 59.2 61.7 59.2 C 62.2 59.2 62.5 59 62.9 58.7 C 62.87 58.7 63.2 59 63.2 59 C 63.2 59 63.2 59 63.2 59 Z M 60.5 57.6 C 60.5 57.6 62.8 57.6 62.8 57.6 C 62.8 57.2 62.6 56.9 62.4 56.7 C 62.2 56.5 62 56.4 61.6 56.4 C 61.3 56.4 61.1 56.5 60.8 56.7 C 60.6 56.9 60.5 57.2 60.5 57.6 Z M 64.5 59.6 L 64.5 56.5 L 64 56.5 L 64 56 L 64.5 56 C 64.5 56 64.48 55.67 64.5 55.7 C 64.5 55.3 64.6 55 64.8 54.7 C 65 54.6 65.2 54.5 65.6 54.5 C 65.8 54.5 66 54.5 66.2 54.6 C 66.2 54.6 66.2 55 66.2 55 C 65.9 55 65.8 54.9 65.6 54.9 C 65.2 54.9 65 55.2 65 55.7 C 65.01 55.7 65 56 65 56 L 66.2 56 L 66.2 56.5 L 65 56.5 L 65 59.6 L 64.5 59.6 Z M 69.8 59 C 69.4 59.5 69 59.7 68.4 59.7 C 67.9 59.7 67.4 59.5 67.1 59.2 C 66.7 58.8 66.5 58.4 66.5 57.8 C 66.5 57.8 66.5 57.8 66.5 57.8 C 66.5 57.3 66.7 56.8 67 56.4 C 67.4 56.1 67.8 55.9 68.3 55.9 C 68.8 55.9 69.2 56.1 69.5 56.4 C 69.8 56.8 70 57.3 70 57.8 C 70 57.9 70 57.9 70 58 C 70 58 67.1 58 67.1 58 C 67.1 58.4 67.3 58.7 67.5 58.9 C 67.8 59.1 68 59.2 68.4 59.2 C 68.8 59.2 69.2 59 69.5 58.7 C 69.51 58.7 69.8 59 69.8 59 C 69.8 59 69.85 59 69.8 59 Z M 67.1 57.6 C 67.1 57.6 69.4 57.6 69.4 57.6 C 69.4 57.2 69.3 56.9 69.1 56.7 C 68.9 56.5 68.6 56.4 68.3 56.4 C 68 56.4 67.7 56.5 67.5 56.7 C 67.3 56.9 67.1 57.2 67.1 57.6 Z M 68.1 55.4 L 67.3 54.7 L 67.8 54.4 L 68.5 55.4 L 68.1 55.4 Z M 72 59.6 L 70.4 56 L 71 56 L 72.2 59 L 73.4 56 L 74 56 L 72.4 59.6 L 72 59.6 Z M 74.9 59.6 L 74.9 56 L 75.4 56 C 75.4 56 75.39 56.93 75.4 56.9 C 75.5 56.6 75.7 56.4 76 56.2 C 76.2 56 76.5 55.9 76.9 55.9 C 76.87 55.92 76.9 56.5 76.9 56.5 C 76.9 56.5 76.82 56.5 76.8 56.5 C 76.4 56.5 76.1 56.6 75.8 56.9 C 75.5 57.2 75.4 57.6 75.4 58.2 C 75.39 58.16 75.4 59.6 75.4 59.6 L 74.9 59.6 Z M 80.6 59 C 80.2 59.5 79.7 59.7 79.1 59.7 C 78.6 59.7 78.2 59.5 77.8 59.2 C 77.5 58.8 77.3 58.4 77.3 57.8 C 77.3 57.8 77.3 57.8 77.3 57.8 C 77.3 57.3 77.5 56.8 77.8 56.4 C 78.1 56.1 78.5 55.9 79 55.9 C 79.6 55.9 80 56.1 80.3 56.4 C 80.6 56.8 80.7 57.3 80.7 57.8 C 80.7 57.9 80.7 57.9 80.7 58 C 80.7 58 77.9 58 77.9 58 C 77.9 58.4 78 58.7 78.3 58.9 C 78.5 59.1 78.8 59.2 79.1 59.2 C 79.6 59.2 79.9 59 80.3 58.7 C 80.27 58.7 80.6 59 80.6 59 C 80.6 59 80.6 59 80.6 59 Z M 77.9 57.6 C 77.9 57.6 80.2 57.6 80.2 57.6 C 80.2 57.2 80 56.9 79.8 56.7 C 79.6 56.5 79.4 56.4 79 56.4 C 78.7 56.4 78.5 56.5 78.2 56.7 C 78 56.9 77.9 57.2 77.9 57.6 Z " stroke="none" fill="#000"/>  </g>  <g id="Polygon357724">    <path d="M 0.7 50.6 L 0.7 45.7 C 0.7 45.7 2.39 45.7 2.4 45.7 C 3.2 45.7 3.8 45.9 4.3 46.4 C 4.8 46.9 5 47.4 5 48.1 C 5 48.1 5 48.1 5 48.1 C 5 48.8 4.8 49.4 4.3 49.9 C 3.8 50.4 3.2 50.6 2.4 50.6 C 2.39 50.6 0.7 50.6 0.7 50.6 Z M 2.4 46.2 C 2.39 46.21 1.2 46.2 1.2 46.2 L 1.2 50.1 C 1.2 50.1 2.39 50.09 2.4 50.1 C 3 50.1 3.5 49.9 3.9 49.5 C 4.2 49.2 4.4 48.7 4.4 48.2 C 4.4 48.2 4.4 48.1 4.4 48.1 C 4.4 47.6 4.2 47.1 3.9 46.8 C 3.5 46.4 3 46.2 2.4 46.2 Z M 8.8 50.6 L 8.8 46.2 L 7.9 46.5 L 7.8 46.1 L 9 45.7 L 9.4 45.7 L 9.4 50.6 L 8.8 50.6 Z M 12.2 50.7 C 11.6 50.7 11 50.4 10.5 49.9 C 10.5 49.9 10.8 49.5 10.8 49.5 C 11.3 50 11.7 50.2 12.2 50.2 C 12.6 50.2 12.8 50.1 13.1 49.9 C 13.3 49.7 13.4 49.4 13.4 49.1 C 13.4 49.1 13.4 49.1 13.4 49.1 C 13.4 48.8 13.3 48.5 13 48.3 C 12.8 48.1 12.5 48.1 12.2 48.1 C 11.8 48.1 11.5 48.1 11.1 48.3 C 11.14 48.33 10.8 48.1 10.8 48.1 L 10.9 45.7 L 13.7 45.7 L 13.7 46.2 L 11.4 46.2 C 11.4 46.2 11.29 47.78 11.3 47.8 C 11.6 47.6 11.9 47.6 12.3 47.6 C 12.7 47.6 13.2 47.7 13.5 48 C 13.8 48.2 14 48.6 14 49.1 C 14 49.1 14 49.1 14 49.1 C 14 49.5 13.8 49.9 13.5 50.2 C 13.1 50.5 12.7 50.7 12.2 50.7 Z M 14.8 51.5 C 14.8 51.5 14.7 51.2 14.7 51.2 C 15 51.1 15.2 50.9 15.2 50.6 C 15.15 50.6 14.9 50.6 14.9 50.6 L 14.9 49.9 L 15.5 49.9 C 15.5 49.9 15.55 50.49 15.5 50.5 C 15.5 50.8 15.5 51 15.4 51.1 C 15.2 51.3 15 51.4 14.8 51.5 Z M 18.3 50.7 C 17.5 50.7 16.9 50.4 16.4 49.8 C 16.4 49.8 16.8 49.5 16.8 49.5 C 17.2 49.9 17.7 50.2 18.3 50.2 C 18.6 50.2 18.8 50.1 19 49.9 C 19.2 49.7 19.3 49.5 19.3 49.2 C 19.3 49.2 19.3 49.2 19.3 49.2 C 19.3 48.9 19.2 48.7 19 48.5 C 18.7 48.4 18.4 48.3 18 48.3 C 17.96 48.27 17.6 48.3 17.6 48.3 L 17.5 47.9 L 19.1 46.2 L 16.7 46.2 L 16.7 45.7 L 19.8 45.7 L 19.8 46.1 C 19.8 46.1 18.28 47.81 18.3 47.8 C 18.7 47.9 19.1 48 19.4 48.2 C 19.7 48.4 19.9 48.8 19.9 49.2 C 19.9 49.2 19.9 49.2 19.9 49.2 C 19.9 49.6 19.7 50 19.4 50.3 C 19.1 50.5 18.7 50.7 18.3 50.7 Z M 26.2 50 C 25.8 50.5 25.3 50.7 24.7 50.7 C 24.2 50.7 23.7 50.5 23.4 50.1 C 23 49.8 22.8 49.3 22.8 48.8 C 22.8 48.8 22.8 48.8 22.8 48.8 C 22.8 48.3 23 47.8 23.4 47.5 C 23.7 47.1 24.2 46.9 24.7 46.9 C 25.3 46.9 25.7 47.1 26.2 47.5 C 26.2 47.5 25.8 47.9 25.8 47.9 C 25.4 47.6 25.1 47.4 24.7 47.4 C 24.3 47.4 24 47.5 23.8 47.8 C 23.5 48.1 23.4 48.4 23.4 48.8 C 23.4 48.8 23.4 48.8 23.4 48.8 C 23.4 49.2 23.5 49.5 23.8 49.8 C 24 50.1 24.4 50.2 24.7 50.2 C 25.1 50.2 25.5 50 25.8 49.7 C 25.84 49.66 26.2 50 26.2 50 C 26.2 50 26.18 49.98 26.2 50 Z M 27.1 50.6 L 27.1 47 L 27.6 47 C 27.6 47 27.61 47.59 27.6 47.6 C 27.8 47.4 27.9 47.2 28.1 47.1 C 28.3 47 28.5 46.9 28.8 46.9 C 29.3 46.9 29.7 47.1 29.9 47.6 C 30.3 47.1 30.7 46.9 31.2 46.9 C 31.6 46.9 32 47 32.2 47.3 C 32.4 47.6 32.6 47.9 32.6 48.4 C 32.56 48.36 32.6 50.6 32.6 50.6 L 32 50.6 C 32 50.6 32.02 48.49 32 48.5 C 32 48.1 31.9 47.9 31.8 47.7 C 31.6 47.5 31.4 47.4 31.1 47.4 C 30.8 47.4 30.6 47.5 30.4 47.7 C 30.2 47.9 30.1 48.2 30.1 48.5 C 30.08 48.51 30.1 50.6 30.1 50.6 L 29.5 50.6 C 29.5 50.6 29.55 48.47 29.5 48.5 C 29.5 48.1 29.5 47.9 29.3 47.7 C 29.1 47.5 28.9 47.4 28.6 47.4 C 28.3 47.4 28.1 47.5 27.9 47.7 C 27.7 47.9 27.6 48.2 27.6 48.5 C 27.61 48.53 27.6 50.6 27.6 50.6 L 27.1 50.6 Z M 33.5 51.5 C 33.5 51.5 33.4 51.2 33.4 51.2 C 33.8 51.1 33.9 50.9 33.9 50.6 C 33.89 50.6 33.6 50.6 33.6 50.6 L 33.6 49.9 L 34.3 49.9 C 34.3 49.9 34.29 50.49 34.3 50.5 C 34.3 50.8 34.2 51 34.1 51.1 C 34 51.3 33.8 51.4 33.5 51.5 Z M 37.6 50.6 L 37.6 45.7 L 38.2 45.7 L 38.2 47.9 L 41 47.9 L 41 45.7 L 41.5 45.7 L 41.5 50.6 L 41 50.6 L 41 48.4 L 38.2 48.4 L 38.2 50.6 L 37.6 50.6 Z M 44.7 50.6 L 44.7 50.2 C 44.7 50.2 46.45 48.6 46.5 48.6 C 46.8 48.3 47.1 48 47.2 47.8 C 47.4 47.5 47.5 47.3 47.5 47.1 C 47.5 46.8 47.4 46.6 47.2 46.4 C 47 46.2 46.8 46.1 46.5 46.1 C 46.2 46.1 46 46.2 45.8 46.3 C 45.6 46.5 45.4 46.7 45.2 47 C 45.2 47 44.8 46.7 44.8 46.7 C 45 46.3 45.3 46 45.5 45.9 C 45.8 45.7 46.1 45.6 46.5 45.6 C 47 45.6 47.3 45.8 47.6 46 C 47.9 46.3 48 46.6 48 47 C 48 47 48 47 48 47 C 48 47.4 48 47.7 47.8 47.9 C 47.6 48.2 47.3 48.5 46.8 48.9 C 46.81 48.93 45.5 50.1 45.5 50.1 L 48.1 50.1 L 48.1 50.6 L 44.7 50.6 Z M 50.7 50.7 C 50 50.7 49.4 50.4 48.9 49.9 C 48.9 49.9 49.3 49.5 49.3 49.5 C 49.7 50 50.2 50.2 50.7 50.2 C 51 50.2 51.3 50.1 51.5 49.9 C 51.7 49.7 51.8 49.4 51.8 49.1 C 51.8 49.1 51.8 49.1 51.8 49.1 C 51.8 48.8 51.7 48.5 51.5 48.3 C 51.3 48.1 51 48.1 50.6 48.1 C 50.3 48.1 49.9 48.1 49.6 48.3 C 49.59 48.33 49.2 48.1 49.2 48.1 L 49.4 45.7 L 52.2 45.7 L 52.2 46.2 L 49.8 46.2 C 49.8 46.2 49.74 47.78 49.7 47.8 C 50.1 47.6 50.4 47.6 50.7 47.6 C 51.2 47.6 51.6 47.7 51.9 48 C 52.2 48.2 52.4 48.6 52.4 49.1 C 52.4 49.1 52.4 49.1 52.4 49.1 C 52.4 49.5 52.2 49.9 51.9 50.2 C 51.6 50.5 51.2 50.7 50.7 50.7 Z M 58.6 50 C 58.2 50.5 57.7 50.7 57.1 50.7 C 56.6 50.7 56.2 50.5 55.8 50.1 C 55.5 49.8 55.3 49.3 55.3 48.8 C 55.3 48.8 55.3 48.8 55.3 48.8 C 55.3 48.3 55.5 47.8 55.8 47.5 C 56.2 47.1 56.6 46.9 57.1 46.9 C 57.7 46.9 58.2 47.1 58.6 47.5 C 58.6 47.5 58.2 47.9 58.2 47.9 C 57.9 47.6 57.5 47.4 57.1 47.4 C 56.8 47.4 56.5 47.5 56.2 47.8 C 56 48.1 55.8 48.4 55.8 48.8 C 55.8 48.8 55.8 48.8 55.8 48.8 C 55.8 49.2 56 49.5 56.2 49.8 C 56.5 50.1 56.8 50.2 57.2 50.2 C 57.6 50.2 57.9 50 58.3 49.7 C 58.28 49.66 58.6 50 58.6 50 C 58.6 50 58.62 49.98 58.6 50 Z M 59.5 50.6 L 59.5 47 L 60.1 47 C 60.1 47 60.05 47.59 60.1 47.6 C 60.2 47.4 60.4 47.2 60.5 47.1 C 60.7 47 60.9 46.9 61.2 46.9 C 61.8 46.9 62.2 47.1 62.4 47.6 C 62.7 47.1 63.1 46.9 63.7 46.9 C 64.1 46.9 64.4 47 64.6 47.3 C 64.9 47.6 65 47.9 65 48.4 C 65 48.36 65 50.6 65 50.6 L 64.5 50.6 C 64.5 50.6 64.46 48.49 64.5 48.5 C 64.5 48.1 64.4 47.9 64.2 47.7 C 64 47.5 63.8 47.4 63.5 47.4 C 63.2 47.4 63 47.5 62.8 47.7 C 62.6 47.9 62.5 48.2 62.5 48.5 C 62.52 48.51 62.5 50.6 62.5 50.6 L 62 50.6 C 62 50.6 61.99 48.47 62 48.5 C 62 48.1 61.9 47.9 61.7 47.7 C 61.6 47.5 61.3 47.4 61.1 47.4 C 60.8 47.4 60.5 47.5 60.3 47.7 C 60.1 47.9 60.1 48.2 60.1 48.5 C 60.05 48.53 60.1 50.6 60.1 50.6 L 59.5 50.6 Z " stroke="none" fill="#000"/>  </g>  <g id="Polygon357723">    <path d="M 2 41.6 L 2 37.2 L 0.3 37.2 L 0.3 36.7 L 4.2 36.7 L 4.2 37.2 L 2.5 37.2 L 2.5 41.6 L 2 41.6 Z M 5.9 41.7 C 5.3 41.7 4.9 41.5 4.5 41.1 C 4.2 40.8 4 40.3 4 39.8 C 4 39.8 4 39.8 4 39.8 C 4 39.3 4.2 38.8 4.5 38.5 C 4.9 38.1 5.4 37.9 5.9 37.9 C 6.4 37.9 6.9 38.1 7.2 38.5 C 7.6 38.8 7.8 39.3 7.8 39.8 C 7.8 39.8 7.8 39.8 7.8 39.8 C 7.8 40.3 7.6 40.8 7.2 41.1 C 6.9 41.5 6.4 41.7 5.9 41.7 Z M 5.9 41.2 C 6.3 41.2 6.6 41.1 6.8 40.8 C 7.1 40.5 7.2 40.2 7.2 39.8 C 7.2 39.8 7.2 39.8 7.2 39.8 C 7.2 39.4 7.1 39.1 6.8 38.8 C 6.6 38.5 6.3 38.4 5.9 38.4 C 5.5 38.4 5.2 38.5 4.9 38.8 C 4.7 39.1 4.6 39.4 4.6 39.8 C 4.6 39.8 4.6 39.8 4.6 39.8 C 4.6 40.2 4.7 40.5 4.9 40.8 C 5.2 41.1 5.5 41.2 5.9 41.2 Z M 8.4 41.6 L 8.4 41.3 L 10.8 38.4 L 8.5 38.4 L 8.5 38 L 11.5 38 L 11.5 38.3 L 9.1 41.1 L 11.5 41.1 L 11.5 41.6 L 8.4 41.6 Z M 16.5 41.7 C 16 41.7 15.5 41.4 15.1 40.9 C 15.14 40.91 15.1 41.6 15.1 41.6 L 14.6 41.6 L 14.6 36.5 L 15.1 36.5 C 15.1 36.5 15.14 38.71 15.1 38.7 C 15.5 38.2 16 37.9 16.5 37.9 C 17 37.9 17.4 38.1 17.7 38.4 C 18.1 38.8 18.3 39.2 18.3 39.8 C 18.3 39.8 18.3 39.8 18.3 39.8 C 18.3 40.4 18.1 40.8 17.7 41.2 C 17.4 41.5 17 41.7 16.5 41.7 Z M 16.4 41.2 C 16.8 41.2 17.1 41.1 17.3 40.8 C 17.6 40.6 17.7 40.2 17.7 39.8 C 17.7 39.8 17.7 39.8 17.7 39.8 C 17.7 39.4 17.6 39 17.3 38.8 C 17.1 38.5 16.8 38.4 16.4 38.4 C 16.1 38.4 15.8 38.5 15.5 38.8 C 15.3 39.1 15.1 39.4 15.1 39.8 C 15.1 39.8 15.1 39.8 15.1 39.8 C 15.1 40.2 15.3 40.5 15.5 40.8 C 15.8 41.1 16.1 41.2 16.4 41.2 Z M 20.9 41.7 C 20.4 41.7 19.9 41.5 19.6 41.1 C 19.2 40.8 19 40.3 19 39.8 C 19 39.8 19 39.8 19 39.8 C 19 39.3 19.2 38.8 19.6 38.5 C 19.9 38.1 20.4 37.9 20.9 37.9 C 21.5 37.9 21.9 38.1 22.3 38.5 C 22.6 38.8 22.8 39.3 22.8 39.8 C 22.8 39.8 22.8 39.8 22.8 39.8 C 22.8 40.3 22.6 40.8 22.3 41.1 C 21.9 41.5 21.4 41.7 20.9 41.7 Z M 20.9 41.2 C 21.3 41.2 21.6 41.1 21.9 40.8 C 22.1 40.5 22.2 40.2 22.2 39.8 C 22.2 39.8 22.2 39.8 22.2 39.8 C 22.2 39.4 22.1 39.1 21.9 38.8 C 21.6 38.5 21.3 38.4 20.9 38.4 C 20.5 38.4 20.2 38.5 20 38.8 C 19.7 39.1 19.6 39.4 19.6 39.8 C 19.6 39.8 19.6 39.8 19.6 39.8 C 19.6 40.2 19.7 40.5 20 40.8 C 20.2 41.1 20.5 41.2 20.9 41.2 Z M 25.1 41 L 26.3 38 L 26.8 38 C 26.8 38 25.33 41.72 25.3 41.7 C 25.2 42.1 25 42.4 24.8 42.5 C 24.6 42.7 24.4 42.7 24.1 42.7 C 23.9 42.7 23.6 42.7 23.4 42.6 C 23.4 42.6 23.5 42.1 23.5 42.1 C 23.7 42.2 23.9 42.3 24.1 42.3 C 24.3 42.3 24.4 42.2 24.5 42.1 C 24.6 42 24.7 41.8 24.8 41.6 C 24.84 41.59 23.2 38 23.2 38 L 23.8 38 L 25.1 41 Z M 29.9 41.1 C 29.6 41.5 29.2 41.7 28.6 41.7 C 28.2 41.7 27.9 41.6 27.7 41.4 C 27.4 41.2 27.3 40.9 27.3 40.5 C 27.3 40.5 27.3 40.5 27.3 40.5 C 27.3 40.2 27.4 39.9 27.7 39.7 C 28 39.5 28.3 39.4 28.8 39.4 C 29.2 39.4 29.5 39.4 29.9 39.5 C 29.9 39.5 29.9 39.4 29.9 39.4 C 29.9 39.1 29.8 38.8 29.6 38.7 C 29.4 38.5 29.2 38.4 28.8 38.4 C 28.5 38.4 28.1 38.5 27.7 38.7 C 27.7 38.7 27.6 38.2 27.6 38.2 C 28 38 28.4 37.9 28.9 37.9 C 29.4 37.9 29.8 38.1 30.1 38.3 C 30.3 38.6 30.4 38.9 30.4 39.4 C 30.43 39.39 30.4 41.6 30.4 41.6 L 29.9 41.6 L 29.9 41.1 C 29.9 41.1 29.91 41.05 29.9 41.1 Z M 28.7 41.2 C 29 41.2 29.3 41.2 29.6 41 C 29.8 40.8 29.9 40.6 29.9 40.3 C 29.9 40.3 29.9 39.9 29.9 39.9 C 29.6 39.8 29.2 39.8 28.9 39.8 C 28.5 39.8 28.3 39.8 28.1 40 C 27.9 40.1 27.8 40.3 27.8 40.5 C 27.8 40.5 27.8 40.5 27.8 40.5 C 27.8 40.7 27.9 40.9 28.1 41.1 C 28.2 41.2 28.5 41.2 28.7 41.2 Z M 31.6 41.6 L 31.6 36.5 L 32.2 36.5 L 32.2 41.6 L 31.6 41.6 Z M 33.5 41.6 L 33.5 38 L 34 38 L 34 41.6 L 33.5 41.6 Z M 38.6 41.6 L 37 38 L 37.6 38 L 38.8 41 L 40 38 L 40.6 38 L 39 41.6 L 38.6 41.6 Z M 44.3 41 C 43.9 41.5 43.4 41.7 42.8 41.7 C 42.3 41.7 41.9 41.5 41.6 41.2 C 41.2 40.8 41 40.4 41 39.8 C 41 39.8 41 39.8 41 39.8 C 41 39.3 41.2 38.8 41.5 38.4 C 41.9 38.1 42.3 37.9 42.8 37.9 C 43.3 37.9 43.7 38.1 44 38.4 C 44.3 38.8 44.5 39.3 44.5 39.8 C 44.5 39.9 44.5 39.9 44.4 40 C 44.4 40 41.6 40 41.6 40 C 41.6 40.4 41.8 40.7 42 40.9 C 42.2 41.1 42.5 41.2 42.9 41.2 C 43.3 41.2 43.7 41 44 40.7 C 43.99 40.7 44.3 41 44.3 41 C 44.3 41 44.33 41 44.3 41 Z M 41.6 39.6 C 41.6 39.6 43.9 39.6 43.9 39.6 C 43.9 39.2 43.8 38.9 43.6 38.7 C 43.4 38.5 43.1 38.4 42.8 38.4 C 42.4 38.4 42.2 38.5 42 38.7 C 41.7 38.9 41.6 39.2 41.6 39.6 Z M 50.6 41 C 50.2 41.5 49.7 41.7 49.1 41.7 C 48.6 41.7 48.2 41.5 47.8 41.2 C 47.5 40.8 47.3 40.4 47.3 39.8 C 47.3 39.8 47.3 39.8 47.3 39.8 C 47.3 39.3 47.4 38.8 47.8 38.4 C 48.1 38.1 48.5 37.9 49 37.9 C 49.5 37.9 49.9 38.1 50.2 38.4 C 50.5 38.8 50.7 39.3 50.7 39.8 C 50.7 39.9 50.7 39.9 50.7 40 C 50.7 40 47.8 40 47.8 40 C 47.9 40.4 48 40.7 48.2 40.9 C 48.5 41.1 48.8 41.2 49.1 41.2 C 49.5 41.2 49.9 41 50.2 40.7 C 50.24 40.7 50.6 41 50.6 41 C 50.6 41 50.57 41 50.6 41 Z M 47.8 39.6 C 47.8 39.6 50.2 39.6 50.2 39.6 C 50.1 39.2 50 38.9 49.8 38.7 C 49.6 38.5 49.3 38.4 49 38.4 C 48.7 38.4 48.4 38.5 48.2 38.7 C 48 38.9 47.9 39.2 47.8 39.6 Z M 51.7 41.6 L 51.7 36.5 L 52.2 36.5 L 52.2 41.6 L 51.7 41.6 Z M 56.6 41 C 56.2 41.5 55.7 41.7 55.1 41.7 C 54.6 41.7 54.1 41.5 53.8 41.2 C 53.4 40.8 53.3 40.4 53.3 39.8 C 53.3 39.8 53.3 39.8 53.3 39.8 C 53.3 39.3 53.4 38.8 53.8 38.4 C 54.1 38.1 54.5 37.9 55 37.9 C 55.5 37.9 55.9 38.1 56.2 38.4 C 56.5 38.8 56.7 39.3 56.7 39.8 C 56.7 39.9 56.7 39.9 56.7 40 C 56.7 40 53.8 40 53.8 40 C 53.8 40.4 54 40.7 54.2 40.9 C 54.5 41.1 54.8 41.2 55.1 41.2 C 55.5 41.2 55.9 41 56.2 40.7 C 56.22 40.7 56.6 41 56.6 41 C 56.6 41 56.56 41 56.6 41 Z M 53.8 39.6 C 53.8 39.6 56.1 39.6 56.1 39.6 C 56.1 39.2 56 38.9 55.8 38.7 C 55.6 38.5 55.3 38.4 55 38.4 C 54.7 38.4 54.4 38.5 54.2 38.7 C 54 38.9 53.8 39.2 53.8 39.6 Z M 57.6 41.6 L 57.6 36.5 L 58.2 36.5 L 58.2 40 L 60.1 38 L 60.8 38 L 59.3 39.5 L 60.8 41.6 L 60.2 41.6 L 58.9 39.9 L 58.2 40.7 L 58.2 41.6 L 57.6 41.6 Z M 63.4 41.5 C 63.2 41.6 63 41.7 62.8 41.7 C 62.4 41.7 62.2 41.6 62 41.4 C 61.8 41.2 61.7 41 61.7 40.6 C 61.73 40.64 61.7 38.5 61.7 38.5 L 61.2 38.5 L 61.2 38 L 61.7 38 L 61.7 36.9 L 62.3 36.9 L 62.3 38 L 63.4 38 L 63.4 38.5 L 62.3 38.5 C 62.3 38.5 62.27 40.57 62.3 40.6 C 62.3 41 62.5 41.2 62.9 41.2 C 63.1 41.2 63.2 41.1 63.4 41 C 63.41 41.05 63.4 41.5 63.4 41.5 C 63.4 41.5 63.41 41.51 63.4 41.5 Z M 64.4 41.6 L 64.4 38 L 64.9 38 C 64.9 38 64.91 38.93 64.9 38.9 C 65.1 38.6 65.2 38.4 65.5 38.2 C 65.8 38 66.1 37.9 66.4 37.9 C 66.39 37.92 66.4 38.5 66.4 38.5 C 66.4 38.5 66.35 38.5 66.3 38.5 C 65.9 38.5 65.6 38.6 65.3 38.9 C 65 39.2 64.9 39.6 64.9 40.2 C 64.91 40.16 64.9 41.6 64.9 41.6 L 64.4 41.6 Z M 68.7 41.7 C 68.2 41.7 67.7 41.5 67.4 41.1 C 67 40.8 66.8 40.3 66.8 39.8 C 66.8 39.8 66.8 39.8 66.8 39.8 C 66.8 39.3 67 38.8 67.4 38.5 C 67.7 38.1 68.2 37.9 68.7 37.9 C 69.3 37.9 69.7 38.1 70.1 38.5 C 70.4 38.8 70.6 39.3 70.6 39.8 C 70.6 39.8 70.6 39.8 70.6 39.8 C 70.6 40.3 70.4 40.8 70.1 41.1 C 69.7 41.5 69.2 41.7 68.7 41.7 Z M 68.7 41.2 C 69.1 41.2 69.4 41.1 69.7 40.8 C 69.9 40.5 70 40.2 70 39.8 C 70 39.8 70 39.8 70 39.8 C 70 39.4 69.9 39.1 69.7 38.8 C 69.4 38.5 69.1 38.4 68.7 38.4 C 68.3 38.4 68 38.5 67.8 38.8 C 67.5 39.1 67.4 39.4 67.4 39.8 C 67.4 39.8 67.4 39.8 67.4 39.8 C 67.4 40.2 67.5 40.5 67.8 40.8 C 68 41.1 68.3 41.2 68.7 41.2 Z M 73.7 41.6 L 73.7 36.5 L 74.2 36.5 L 74.2 40 L 76.2 38 L 76.8 38 L 75.3 39.5 L 76.9 41.6 L 76.2 41.6 L 74.9 39.9 L 74.2 40.7 L 74.2 41.6 L 73.7 41.6 Z M 80 41.1 C 79.7 41.5 79.2 41.7 78.7 41.7 C 78.3 41.7 78 41.6 77.7 41.4 C 77.4 41.2 77.3 40.9 77.3 40.5 C 77.3 40.5 77.3 40.5 77.3 40.5 C 77.3 40.2 77.5 39.9 77.7 39.7 C 78 39.5 78.4 39.4 78.9 39.4 C 79.2 39.4 79.6 39.4 80 39.5 C 80 39.5 80 39.4 80 39.4 C 80 39.1 79.9 38.8 79.7 38.7 C 79.5 38.5 79.2 38.4 78.9 38.4 C 78.5 38.4 78.2 38.5 77.8 38.7 C 77.8 38.7 77.6 38.2 77.6 38.2 C 78.1 38 78.5 37.9 79 37.9 C 79.5 37.9 79.9 38.1 80.1 38.3 C 80.4 38.6 80.5 38.9 80.5 39.4 C 80.49 39.39 80.5 41.6 80.5 41.6 L 80 41.6 L 80 41.1 C 80 41.1 79.97 41.05 80 41.1 Z M 78.8 41.2 C 79.1 41.2 79.4 41.2 79.6 41 C 79.9 40.8 80 40.6 80 40.3 C 80 40.3 80 39.9 80 39.9 C 79.6 39.8 79.3 39.8 78.9 39.8 C 78.6 39.8 78.3 39.8 78.1 40 C 78 40.1 77.9 40.3 77.9 40.5 C 77.9 40.5 77.9 40.5 77.9 40.5 C 77.9 40.7 77.9 40.9 78.1 41.1 C 78.3 41.2 78.5 41.2 78.8 41.2 Z M 81.6 42.7 L 81.6 38 L 82.2 38 C 82.2 38 82.18 38.71 82.2 38.7 C 82.6 38.2 83 37.9 83.6 37.9 C 84 37.9 84.4 38.1 84.8 38.4 C 85.1 38.8 85.3 39.2 85.3 39.8 C 85.3 39.8 85.3 39.8 85.3 39.8 C 85.3 40.4 85.1 40.8 84.8 41.2 C 84.4 41.5 84 41.7 83.6 41.7 C 83 41.7 82.5 41.4 82.2 40.9 C 82.18 40.91 82.2 42.7 82.2 42.7 L 81.6 42.7 Z M 83.5 41.2 C 83.8 41.2 84.1 41.1 84.4 40.8 C 84.6 40.6 84.7 40.2 84.7 39.8 C 84.7 39.8 84.7 39.8 84.7 39.8 C 84.7 39.4 84.6 39 84.4 38.8 C 84.1 38.5 83.8 38.4 83.5 38.4 C 83.1 38.4 82.8 38.5 82.6 38.8 C 82.3 39.1 82.2 39.4 82.2 39.8 C 82.2 39.8 82.2 39.8 82.2 39.8 C 82.2 40.2 82.3 40.5 82.5 40.8 C 82.8 41.1 83.1 41.2 83.5 41.2 Z M 86.3 41.6 L 86.3 36.5 L 86.9 36.5 L 86.9 41.6 L 86.3 41.6 Z M 90.5 41.1 C 90.2 41.5 89.8 41.7 89.2 41.7 C 88.8 41.7 88.5 41.6 88.3 41.4 C 88 41.2 87.9 40.9 87.9 40.5 C 87.9 40.5 87.9 40.5 87.9 40.5 C 87.9 40.2 88 39.9 88.3 39.7 C 88.6 39.5 88.9 39.4 89.4 39.4 C 89.8 39.4 90.1 39.4 90.5 39.5 C 90.5 39.5 90.5 39.4 90.5 39.4 C 90.5 39.1 90.4 38.8 90.2 38.7 C 90 38.5 89.8 38.4 89.4 38.4 C 89.1 38.4 88.7 38.5 88.3 38.7 C 88.3 38.7 88.2 38.2 88.2 38.2 C 88.6 38 89 37.9 89.5 37.9 C 90 37.9 90.4 38.1 90.7 38.3 C 90.9 38.6 91 38.9 91 39.4 C 91.03 39.39 91 41.6 91 41.6 L 90.5 41.6 L 90.5 41.1 C 90.5 41.1 90.52 41.05 90.5 41.1 Z M 89.3 41.2 C 89.7 41.2 89.9 41.2 90.2 41 C 90.4 40.8 90.5 40.6 90.5 40.3 C 90.5 40.3 90.5 39.9 90.5 39.9 C 90.2 39.8 89.8 39.8 89.5 39.8 C 89.1 39.8 88.9 39.8 88.7 40 C 88.5 40.1 88.4 40.3 88.4 40.5 C 88.4 40.5 88.4 40.5 88.4 40.5 C 88.4 40.7 88.5 40.9 88.7 41.1 C 88.8 41.2 89.1 41.2 89.3 41.2 Z M 92.2 41.6 L 92.2 38 L 92.7 38 C 92.7 38 92.72 38.59 92.7 38.6 C 92.9 38.4 93 38.2 93.2 38.1 C 93.4 38 93.6 37.9 93.9 37.9 C 94.4 37.9 94.8 38.1 95.1 38.6 C 95.4 38.1 95.8 37.9 96.3 37.9 C 96.7 37.9 97.1 38 97.3 38.3 C 97.6 38.6 97.7 38.9 97.7 39.4 C 97.67 39.36 97.7 41.6 97.7 41.6 L 97.1 41.6 C 97.1 41.6 97.13 39.49 97.1 39.5 C 97.1 39.1 97 38.9 96.9 38.7 C 96.7 38.5 96.5 38.4 96.2 38.4 C 95.9 38.4 95.7 38.5 95.5 38.7 C 95.3 38.9 95.2 39.2 95.2 39.5 C 95.19 39.51 95.2 41.6 95.2 41.6 L 94.7 41.6 C 94.7 41.6 94.66 39.47 94.7 39.5 C 94.7 39.1 94.6 38.9 94.4 38.7 C 94.2 38.5 94 38.4 93.7 38.4 C 93.4 38.4 93.2 38.5 93 38.7 C 92.8 38.9 92.7 39.2 92.7 39.5 C 92.72 39.53 92.7 41.6 92.7 41.6 L 92.2 41.6 Z M 101.2 41.1 C 100.9 41.5 100.5 41.7 99.9 41.7 C 99.5 41.7 99.2 41.6 98.9 41.4 C 98.7 41.2 98.5 40.9 98.5 40.5 C 98.5 40.5 98.5 40.5 98.5 40.5 C 98.5 40.2 98.7 39.9 99 39.7 C 99.3 39.5 99.6 39.4 100.1 39.4 C 100.5 39.4 100.8 39.4 101.2 39.5 C 101.2 39.5 101.2 39.4 101.2 39.4 C 101.2 39.1 101.1 38.8 100.9 38.7 C 100.7 38.5 100.5 38.4 100.1 38.4 C 99.8 38.4 99.4 38.5 99 38.7 C 99 38.7 98.9 38.2 98.9 38.2 C 99.3 38 99.7 37.9 100.2 37.9 C 100.7 37.9 101.1 38.1 101.4 38.3 C 101.6 38.6 101.7 38.9 101.7 39.4 C 101.72 39.39 101.7 41.6 101.7 41.6 L 101.2 41.6 L 101.2 41.1 C 101.2 41.1 101.2 41.05 101.2 41.1 Z M 100 41.2 C 100.3 41.2 100.6 41.2 100.9 41 C 101.1 40.8 101.2 40.6 101.2 40.3 C 101.2 40.3 101.2 39.9 101.2 39.9 C 100.8 39.8 100.5 39.8 100.1 39.8 C 99.8 39.8 99.6 39.8 99.4 40 C 99.2 40.1 99.1 40.3 99.1 40.5 C 99.1 40.5 99.1 40.5 99.1 40.5 C 99.1 40.7 99.2 40.9 99.4 41.1 C 99.5 41.2 99.7 41.2 100 41.2 Z M 102.9 41.6 L 102.9 36.5 L 103.5 36.5 L 103.5 41.6 L 102.9 41.6 Z M 104.8 41.6 L 104.8 38 L 105.3 38 L 105.3 41.6 L 104.8 41.6 Z M 109.9 42.7 L 109.4 42.4 C 109.4 42.4 109.95 41.65 109.9 41.6 C 109.5 41.6 109.1 41.4 108.9 41 C 108.6 40.7 108.4 40.3 108.4 39.8 C 108.4 39.8 108.4 39.8 108.4 39.8 C 108.4 39.3 108.6 38.8 109 38.5 C 109.3 38.1 109.8 37.9 110.3 37.9 C 110.8 37.9 111.3 38.1 111.7 38.5 C 111.7 38.5 111.4 38.9 111.4 38.9 C 111 38.6 110.7 38.4 110.3 38.4 C 109.9 38.4 109.6 38.5 109.4 38.8 C 109.1 39.1 109 39.4 109 39.8 C 109 39.8 109 39.8 109 39.8 C 109 40.2 109.1 40.5 109.4 40.8 C 109.6 41.1 109.9 41.2 110.3 41.2 C 110.7 41.2 111.1 41 111.4 40.7 C 111.4 40.7 111.8 41 111.8 41 C 111.4 41.4 110.9 41.7 110.4 41.7 C 110.39 41.68 109.9 42.7 109.9 42.7 Z M 115.6 41 C 115.2 41.5 114.7 41.7 114.1 41.7 C 113.6 41.7 113.2 41.5 112.8 41.2 C 112.5 40.8 112.3 40.4 112.3 39.8 C 112.3 39.8 112.3 39.8 112.3 39.8 C 112.3 39.3 112.5 38.8 112.8 38.4 C 113.1 38.1 113.6 37.9 114.1 37.9 C 114.6 37.9 115 38.1 115.3 38.4 C 115.6 38.8 115.7 39.3 115.7 39.8 C 115.7 39.9 115.7 39.9 115.7 40 C 115.7 40 112.9 40 112.9 40 C 112.9 40.4 113 40.7 113.3 40.9 C 113.5 41.1 113.8 41.2 114.1 41.2 C 114.6 41.2 114.9 41 115.3 40.7 C 115.28 40.7 115.6 41 115.6 41 C 115.6 41 115.62 41 115.6 41 Z M 112.9 39.6 C 112.9 39.6 115.2 39.6 115.2 39.6 C 115.2 39.2 115.1 38.9 114.9 38.7 C 114.7 38.5 114.4 38.4 114 38.4 C 113.7 38.4 113.5 38.5 113.2 38.7 C 113 38.9 112.9 39.2 112.9 39.6 Z M 116.7 41.6 L 116.7 36.5 L 117.3 36.5 L 117.3 41.6 L 116.7 41.6 Z M 118.5 37.2 L 118.5 36.6 L 119.2 36.6 L 119.2 37.2 L 118.5 37.2 Z M 118.6 41.6 L 118.6 38 L 119.1 38 L 119.1 41.6 L 118.6 41.6 Z M 120.4 41.6 L 120.4 36.5 L 120.9 36.5 L 120.9 40 L 122.9 38 L 123.5 38 L 122 39.5 L 123.6 41.6 L 122.9 41.6 L 121.6 39.9 L 120.9 40.7 L 120.9 41.6 L 120.4 41.6 Z " stroke="none" fill="#000"/>  </g>  <g id="Polygon357722">    <path d="M 0.7 23.6 L 0.7 18.7 C 0.7 18.7 2.8 18.7 2.8 18.7 C 3.4 18.7 3.9 18.9 4.2 19.2 C 4.4 19.4 4.6 19.8 4.6 20.2 C 4.6 20.2 4.6 20.2 4.6 20.2 C 4.6 20.6 4.4 20.9 4.2 21.1 C 4 21.4 3.6 21.5 3.2 21.6 C 3.24 21.6 4.7 23.6 4.7 23.6 L 4.1 23.6 L 2.6 21.7 L 1.2 21.7 L 1.2 23.6 L 0.7 23.6 Z M 1.2 21.2 C 1.2 21.2 2.75 21.2 2.8 21.2 C 3.1 21.2 3.4 21.1 3.7 20.9 C 3.9 20.7 4 20.5 4 20.2 C 4 20.2 4 20.2 4 20.2 C 4 19.9 3.9 19.6 3.7 19.5 C 3.5 19.3 3.2 19.2 2.8 19.2 C 2.76 19.21 1.2 19.2 1.2 19.2 L 1.2 21.2 Z M 8.7 23 C 8.3 23.5 7.8 23.7 7.2 23.7 C 6.7 23.7 6.2 23.5 5.9 23.2 C 5.5 22.8 5.4 22.4 5.4 21.8 C 5.4 21.8 5.4 21.8 5.4 21.8 C 5.4 21.3 5.5 20.8 5.9 20.4 C 6.2 20.1 6.6 19.9 7.1 19.9 C 7.6 19.9 8 20.1 8.3 20.4 C 8.6 20.8 8.8 21.3 8.8 21.8 C 8.8 21.9 8.8 21.9 8.8 22 C 8.8 22 5.9 22 5.9 22 C 6 22.4 6.1 22.7 6.3 22.9 C 6.6 23.1 6.9 23.2 7.2 23.2 C 7.6 23.2 8 23 8.3 22.7 C 8.33 22.7 8.7 23 8.7 23 C 8.7 23 8.67 23 8.7 23 Z M 5.9 21.6 C 5.9 21.6 8.2 21.6 8.2 21.6 C 8.2 21.2 8.1 20.9 7.9 20.7 C 7.7 20.5 7.4 20.4 7.1 20.4 C 6.8 20.4 6.5 20.5 6.3 20.7 C 6.1 20.9 6 21.2 5.9 21.6 Z M 9.7 23.6 L 9.7 20 L 10.3 20 C 10.3 20 10.28 20.61 10.3 20.6 C 10.6 20.1 11 19.9 11.5 19.9 C 11.9 19.9 12.3 20 12.5 20.3 C 12.8 20.6 12.9 20.9 12.9 21.4 C 12.9 21.35 12.9 23.6 12.9 23.6 L 12.4 23.6 C 12.4 23.6 12.36 21.49 12.4 21.5 C 12.4 21.1 12.3 20.9 12.1 20.7 C 11.9 20.5 11.7 20.4 11.4 20.4 C 11 20.4 10.8 20.5 10.6 20.7 C 10.4 20.9 10.3 21.2 10.3 21.5 C 10.28 21.53 10.3 23.6 10.3 23.6 L 9.7 23.6 Z M 14 23.6 L 14 18.5 L 14.6 18.5 L 14.6 22 L 16.5 20 L 17.2 20 L 15.7 21.5 L 17.3 23.6 L 16.6 23.6 L 15.3 21.9 L 14.6 22.7 L 14.6 23.6 L 14 23.6 Z M 18 20.7 L 18 20 L 18.6 20 L 18.6 20.7 L 18 20.7 Z M 18 23.6 L 18 22.9 L 18.6 22.9 L 18.6 23.6 L 18 23.6 Z M 22 23.6 L 22 18.7 C 22 18.7 24.09 18.7 24.1 18.7 C 24.6 18.7 25.1 18.8 25.4 19.1 C 25.6 19.3 25.7 19.6 25.7 19.9 C 25.7 19.9 25.7 19.9 25.7 19.9 C 25.7 20.5 25.4 20.8 24.9 21.1 C 25.6 21.3 26 21.7 26 22.2 C 26 22.2 26 22.3 26 22.3 C 26 22.7 25.8 23 25.5 23.2 C 25.2 23.5 24.7 23.6 24.2 23.6 C 24.18 23.6 22 23.6 22 23.6 Z M 25.1 20 C 25.1 20 25.1 20 25.1 20 C 25.1 19.7 25 19.6 24.8 19.4 C 24.7 19.3 24.4 19.2 24 19.2 C 24.04 19.2 22.5 19.2 22.5 19.2 L 22.5 20.9 C 22.5 20.9 24 20.88 24 20.9 C 24.3 20.9 24.6 20.8 24.8 20.7 C 25 20.5 25.1 20.3 25.1 20 Z M 25.4 22.2 C 25.4 22.2 25.4 22.2 25.4 22.2 C 25.4 21.9 25.3 21.7 25.1 21.6 C 24.8 21.4 24.5 21.4 24.1 21.4 C 24.09 21.37 22.5 21.4 22.5 21.4 L 22.5 23.1 C 22.5 23.1 24.19 23.1 24.2 23.1 C 24.6 23.1 24.9 23 25.1 22.9 C 25.3 22.7 25.4 22.5 25.4 22.2 Z M 27 23.6 L 27 18.5 L 27.6 18.5 L 27.6 23.6 L 27 23.6 Z M 31.2 23.1 C 30.9 23.5 30.4 23.7 29.9 23.7 C 29.5 23.7 29.2 23.6 28.9 23.4 C 28.7 23.2 28.5 22.9 28.5 22.5 C 28.5 22.5 28.5 22.5 28.5 22.5 C 28.5 22.2 28.7 21.9 29 21.7 C 29.2 21.5 29.6 21.4 30.1 21.4 C 30.4 21.4 30.8 21.4 31.2 21.5 C 31.2 21.5 31.2 21.4 31.2 21.4 C 31.2 21.1 31.1 20.8 30.9 20.7 C 30.7 20.5 30.5 20.4 30.1 20.4 C 29.7 20.4 29.4 20.5 29 20.7 C 29 20.7 28.9 20.2 28.9 20.2 C 29.3 20 29.7 19.9 30.2 19.9 C 30.7 19.9 31.1 20.1 31.3 20.3 C 31.6 20.6 31.7 20.9 31.7 21.4 C 31.71 21.39 31.7 23.6 31.7 23.6 L 31.2 23.6 L 31.2 23.1 C 31.2 23.1 31.19 23.05 31.2 23.1 Z M 30 23.2 C 30.3 23.2 30.6 23.2 30.8 23 C 31.1 22.8 31.2 22.6 31.2 22.3 C 31.2 22.3 31.2 21.9 31.2 21.9 C 30.8 21.8 30.5 21.8 30.1 21.8 C 29.8 21.8 29.5 21.8 29.4 22 C 29.2 22.1 29.1 22.3 29.1 22.5 C 29.1 22.5 29.1 22.5 29.1 22.5 C 29.1 22.7 29.2 22.9 29.3 23.1 C 29.5 23.2 29.7 23.2 30 23.2 Z M 36 23 C 35.6 23.5 35.1 23.7 34.5 23.7 C 34 23.7 33.5 23.5 33.2 23.1 C 32.8 22.8 32.6 22.3 32.6 21.8 C 32.6 21.8 32.6 21.8 32.6 21.8 C 32.6 21.3 32.8 20.8 33.2 20.5 C 33.5 20.1 34 19.9 34.5 19.9 C 35 19.9 35.5 20.1 35.9 20.5 C 35.9 20.5 35.6 20.9 35.6 20.9 C 35.2 20.6 34.9 20.4 34.5 20.4 C 34.1 20.4 33.8 20.5 33.6 20.8 C 33.3 21.1 33.2 21.4 33.2 21.8 C 33.2 21.8 33.2 21.8 33.2 21.8 C 33.2 22.2 33.3 22.5 33.6 22.8 C 33.8 23.1 34.1 23.2 34.5 23.2 C 34.9 23.2 35.3 23 35.6 22.7 C 35.62 22.66 36 23 36 23 C 36 23 35.97 22.98 36 23 Z M 36.9 23.6 L 36.9 18.5 L 37.4 18.5 L 37.4 22 L 39.3 20 L 40 20 L 38.5 21.5 L 40.1 23.6 L 39.4 23.6 L 38.1 21.9 L 37.4 22.7 L 37.4 23.6 L 36.9 23.6 Z " stroke="none" fill="#000"/>  </g>  <g id="Polygon357721">    <path d="M 3 9.3 L 3 8.6 L 3.6 8.6 L 3.6 9.3 L 3 9.3 Z M 1.7 9.3 L 1.7 8.6 L 2.3 8.6 L 2.3 9.3 L 1.7 9.3 Z M 2.7 14.7 C 2 14.7 1.5 14.5 1.2 14.1 C 0.8 13.7 0.6 13.2 0.6 12.5 C 0.62 12.55 0.6 9.7 0.6 9.7 L 1.2 9.7 C 1.2 9.7 1.17 12.51 1.2 12.5 C 1.2 13 1.3 13.4 1.6 13.7 C 1.8 14 2.2 14.2 2.7 14.2 C 3.1 14.2 3.5 14 3.8 13.8 C 4 13.5 4.1 13.1 4.1 12.5 C 4.14 12.55 4.1 9.7 4.1 9.7 L 4.7 9.7 C 4.7 9.7 4.7 12.51 4.7 12.5 C 4.7 13.2 4.5 13.7 4.1 14.1 C 3.8 14.5 3.3 14.7 2.7 14.7 Z M 5.9 14.6 L 5.9 11 L 6.5 11 C 6.5 11 6.45 11.93 6.5 11.9 C 6.6 11.6 6.8 11.4 7 11.2 C 7.3 11 7.6 10.9 7.9 10.9 C 7.93 10.92 7.9 11.5 7.9 11.5 C 7.9 11.5 7.89 11.5 7.9 11.5 C 7.5 11.5 7.1 11.6 6.9 11.9 C 6.6 12.2 6.5 12.6 6.5 13.2 C 6.45 13.16 6.5 14.6 6.5 14.6 L 5.9 14.6 Z M 10.6 10.4 L 10.6 9.8 L 11.2 9.8 L 11.2 10.4 L 10.6 10.4 Z M 9.3 10.4 L 9.3 9.8 L 10 9.8 L 10 10.4 L 9.3 10.4 Z M 11.3 14 C 11 14.4 10.6 14.7 10.1 14.7 C 9.7 14.7 9.3 14.5 9.1 14.3 C 8.8 14 8.7 13.7 8.7 13.2 C 8.69 13.23 8.7 11 8.7 11 L 9.2 11 C 9.2 11 9.23 13.09 9.2 13.1 C 9.2 13.4 9.3 13.7 9.5 13.9 C 9.7 14.1 9.9 14.2 10.2 14.2 C 10.5 14.2 10.8 14.1 11 13.9 C 11.2 13.7 11.3 13.4 11.3 13.1 C 11.32 13.05 11.3 11 11.3 11 L 11.9 11 L 11.9 14.6 L 11.3 14.6 L 11.3 14 C 11.3 14 11.32 13.97 11.3 14 Z M 13.1 14.6 L 13.1 11 L 13.6 11 C 13.6 11 13.6 11.61 13.6 11.6 C 13.9 11.1 14.3 10.9 14.8 10.9 C 15.3 10.9 15.6 11 15.9 11.3 C 16.1 11.6 16.2 11.9 16.2 12.4 C 16.23 12.35 16.2 14.6 16.2 14.6 L 15.7 14.6 C 15.7 14.6 15.69 12.49 15.7 12.5 C 15.7 12.1 15.6 11.9 15.4 11.7 C 15.2 11.5 15 11.4 14.7 11.4 C 14.4 11.4 14.1 11.5 13.9 11.7 C 13.7 11.9 13.6 12.2 13.6 12.5 C 13.6 12.53 13.6 14.6 13.6 14.6 L 13.1 14.6 Z M 19.6 14.6 L 19.6 9.7 L 20.1 9.7 L 20.1 12.6 L 22.9 9.7 L 23.7 9.7 L 21.5 11.8 L 23.7 14.6 L 23 14.6 L 21.2 12.2 L 20.1 13.3 L 20.1 14.6 L 19.6 14.6 Z M 25.9 14.7 C 25.4 14.7 25 14.5 24.6 14.1 C 24.3 13.8 24.1 13.3 24.1 12.8 C 24.1 12.8 24.1 12.8 24.1 12.8 C 24.1 12.3 24.3 11.8 24.6 11.5 C 25 11.1 25.4 10.9 26 10.9 C 26.5 10.9 26.9 11.1 27.3 11.5 C 27.7 11.8 27.8 12.3 27.8 12.8 C 27.8 12.8 27.8 12.8 27.8 12.8 C 27.8 13.3 27.7 13.8 27.3 14.1 C 26.9 14.5 26.5 14.7 25.9 14.7 Z M 26 14.2 C 26.3 14.2 26.7 14.1 26.9 13.8 C 27.2 13.5 27.3 13.2 27.3 12.8 C 27.3 12.8 27.3 12.8 27.3 12.8 C 27.3 12.4 27.2 12.1 26.9 11.8 C 26.6 11.5 26.3 11.4 25.9 11.4 C 25.6 11.4 25.2 11.5 25 11.8 C 24.8 12.1 24.6 12.4 24.6 12.8 C 24.6 12.8 24.6 12.8 24.6 12.8 C 24.6 13.2 24.8 13.5 25 13.8 C 25.3 14.1 25.6 14.2 26 14.2 Z M 31.7 13.9 C 31.4 14.4 30.9 14.7 30.3 14.7 C 29.9 14.7 29.5 14.5 29.1 14.2 C 28.8 13.8 28.6 13.4 28.6 12.8 C 28.6 12.8 28.6 12.8 28.6 12.8 C 28.6 12.2 28.8 11.8 29.1 11.4 C 29.5 11.1 29.9 10.9 30.3 10.9 C 30.9 10.9 31.4 11.2 31.7 11.7 C 31.72 11.67 31.7 9.5 31.7 9.5 L 32.3 9.5 L 32.3 14.6 L 31.7 14.6 L 31.7 13.9 C 31.7 13.9 31.72 13.87 31.7 13.9 Z M 30.4 14.2 C 30.8 14.2 31.1 14.1 31.4 13.8 C 31.6 13.5 31.7 13.2 31.7 12.8 C 31.7 12.8 31.7 12.8 31.7 12.8 C 31.7 12.4 31.6 12 31.4 11.8 C 31.1 11.5 30.8 11.4 30.4 11.4 C 30.1 11.4 29.8 11.5 29.5 11.8 C 29.3 12 29.2 12.4 29.2 12.8 C 29.2 12.8 29.2 12.8 29.2 12.8 C 29.2 13.2 29.3 13.6 29.5 13.8 C 29.8 14.1 30.1 14.2 30.4 14.2 Z M 36 14 C 35.7 14.4 35.3 14.7 34.8 14.7 C 34.4 14.7 34 14.5 33.8 14.3 C 33.5 14 33.4 13.7 33.4 13.2 C 33.41 13.23 33.4 11 33.4 11 L 33.9 11 C 33.9 11 33.95 13.09 33.9 13.1 C 33.9 13.4 34 13.7 34.2 13.9 C 34.4 14.1 34.6 14.2 35 14.2 C 35.3 14.2 35.5 14.1 35.7 13.9 C 35.9 13.7 36 13.4 36 13.1 C 36.04 13.05 36 11 36 11 L 36.6 11 L 36.6 14.6 L 36 14.6 L 36 14 C 36 14 36.04 13.97 36 14 Z M 37.7 11.7 L 37.7 11 L 38.4 11 L 38.4 11.7 L 37.7 11.7 Z M 37.7 14.6 L 37.7 13.9 L 38.4 13.9 L 38.4 14.6 L 37.7 14.6 Z M 41.5 14.6 L 41.5 13.8 L 44.2 10.6 L 41.6 10.6 L 41.6 9.7 L 45.6 9.7 L 45.6 10.5 L 42.9 13.7 L 45.6 13.7 L 45.6 14.6 L 41.5 14.6 Z M 46.6 14.6 L 46.6 9.7 C 46.6 9.7 48.51 9.7 48.5 9.7 C 49.3 9.7 49.9 9.9 50.4 10.4 C 50.9 10.9 51.1 11.4 51.1 12.1 C 51.1 12.1 51.1 12.1 51.1 12.1 C 51.1 12.8 50.9 13.4 50.4 13.9 C 49.9 14.4 49.3 14.6 48.5 14.6 C 48.51 14.6 46.6 14.6 46.6 14.6 Z M 48.5 10.7 C 48.51 10.67 47.7 10.7 47.7 10.7 L 47.7 13.6 C 47.7 13.6 48.51 13.63 48.5 13.6 C 48.9 13.6 49.3 13.5 49.6 13.2 C 49.8 13 50 12.6 50 12.2 C 50 12.2 50 12.1 50 12.1 C 50 11.7 49.8 11.4 49.6 11.1 C 49.3 10.8 48.9 10.7 48.5 10.7 Z M 55.8 14.7 C 55 14.7 54.3 14.4 53.9 13.8 C 53.9 13.8 54.6 13.1 54.6 13.1 C 54.9 13.5 55.3 13.7 55.8 13.7 C 56 13.7 56.2 13.7 56.3 13.6 C 56.4 13.4 56.5 13.3 56.5 13.1 C 56.5 13.1 56.5 13.1 56.5 13.1 C 56.5 12.9 56.4 12.8 56.2 12.6 C 56 12.5 55.8 12.5 55.5 12.5 C 55.51 12.49 55.1 12.5 55.1 12.5 L 54.9 11.8 L 56.1 10.6 L 54.1 10.6 L 54.1 9.7 L 57.4 9.7 L 57.4 10.5 C 57.4 10.5 56.21 11.69 56.2 11.7 C 57.1 11.8 57.5 12.3 57.5 13.1 C 57.5 13.1 57.5 13.1 57.5 13.1 C 57.5 13.6 57.4 13.9 57 14.2 C 56.7 14.5 56.3 14.7 55.8 14.7 Z M 58.3 14.6 L 58.3 13.7 C 58.3 13.7 59.91 12.41 59.9 12.4 C 60.2 12.1 60.4 11.9 60.6 11.8 C 60.7 11.6 60.8 11.4 60.8 11.2 C 60.8 11 60.7 10.9 60.6 10.8 C 60.5 10.7 60.3 10.6 60.1 10.6 C 59.9 10.6 59.7 10.6 59.6 10.7 C 59.5 10.8 59.3 11 59.1 11.3 C 59.1 11.3 58.3 10.6 58.3 10.6 C 58.6 10.3 58.9 10 59.1 9.9 C 59.4 9.7 59.7 9.6 60.2 9.6 C 60.7 9.6 61.1 9.8 61.4 10 C 61.7 10.3 61.9 10.7 61.9 11.1 C 61.9 11.1 61.9 11.2 61.9 11.2 C 61.9 11.5 61.8 11.9 61.6 12.1 C 61.4 12.4 61 12.7 60.6 13.1 C 60.56 13.05 59.8 13.7 59.8 13.7 L 61.9 13.7 L 61.9 14.6 L 58.3 14.6 Z M 64.5 14.7 C 63.7 14.7 63 14.4 62.6 13.8 C 62.6 13.8 63.3 13.1 63.3 13.1 C 63.6 13.5 64 13.7 64.5 13.7 C 64.7 13.7 64.9 13.7 65 13.6 C 65.1 13.4 65.2 13.3 65.2 13.1 C 65.2 13.1 65.2 13.1 65.2 13.1 C 65.2 12.9 65.1 12.8 64.9 12.6 C 64.8 12.5 64.5 12.5 64.2 12.5 C 64.22 12.49 63.8 12.5 63.8 12.5 L 63.6 11.8 L 64.8 10.6 L 62.8 10.6 L 62.8 9.7 L 66.2 9.7 L 66.2 10.5 C 66.2 10.5 64.92 11.69 64.9 11.7 C 65.8 11.8 66.2 12.3 66.2 13.1 C 66.2 13.1 66.2 13.1 66.2 13.1 C 66.2 13.6 66.1 13.9 65.8 14.2 C 65.4 14.5 65 14.7 64.5 14.7 Z M 67.9 14.6 L 67.9 10.8 L 67 11 L 66.8 10.1 L 68.2 9.7 L 68.9 9.7 L 68.9 14.6 L 67.9 14.6 Z M 71.8 14.7 C 71.2 14.7 70.8 14.5 70.4 14.3 C 70.1 14 69.9 13.7 69.9 13.3 C 69.9 13.3 69.9 13.2 69.9 13.2 C 69.9 13 70 12.7 70.1 12.5 C 70.2 12.3 70.4 12.2 70.7 12.1 C 70.3 11.8 70.1 11.5 70.1 11 C 70.1 11 70.1 11 70.1 11 C 70.1 10.6 70.2 10.3 70.6 10 C 70.9 9.8 71.3 9.6 71.8 9.6 C 72.3 9.6 72.7 9.8 73 10 C 73.4 10.3 73.5 10.6 73.5 11 C 73.5 11 73.5 11 73.5 11 C 73.5 11.5 73.3 11.8 72.9 12.1 C 73.2 12.2 73.4 12.4 73.5 12.5 C 73.6 12.7 73.7 12.9 73.7 13.2 C 73.7 13.2 73.7 13.2 73.7 13.2 C 73.7 13.7 73.5 14 73.2 14.3 C 72.8 14.5 72.4 14.7 71.8 14.7 Z M 71.1 11.1 C 71.1 11.3 71.2 11.4 71.3 11.5 C 71.4 11.6 71.6 11.7 71.8 11.7 C 72 11.7 72.2 11.6 72.3 11.5 C 72.4 11.4 72.5 11.3 72.5 11.1 C 72.5 11.1 72.5 11.1 72.5 11.1 C 72.5 10.9 72.4 10.8 72.3 10.7 C 72.2 10.6 72 10.5 71.8 10.5 C 71.6 10.5 71.4 10.6 71.3 10.7 C 71.2 10.8 71.1 10.9 71.1 11.1 C 71.1 11.09 71.1 11.1 71.1 11.1 C 71.1 11.1 71.1 11.1 71.1 11.1 Z M 71.8 13.8 C 72.1 13.8 72.3 13.7 72.4 13.6 C 72.6 13.5 72.6 13.3 72.6 13.2 C 72.6 13.2 72.6 13.2 72.6 13.2 C 72.6 13 72.6 12.8 72.4 12.7 C 72.3 12.6 72.1 12.6 71.8 12.6 C 71.5 12.6 71.3 12.6 71.2 12.7 C 71 12.8 71 13 71 13.2 C 71 13.2 71 13.2 71 13.2 C 71 13.3 71 13.5 71.2 13.6 C 71.3 13.7 71.5 13.8 71.8 13.8 Z " stroke="none" fill="#000"/>  </g>  <g id="Polygon357720">    <path d="M 0.6 5.6 L 0.6 0.7 L 4.3 0.7 L 4.3 1.7 L 1.7 1.7 L 1.7 2.7 L 4 2.7 L 4 3.7 L 1.7 3.7 L 1.7 5.6 L 0.6 5.6 Z M 8.3 5 C 7.9 5.5 7.4 5.7 6.7 5.7 C 6.2 5.7 5.7 5.5 5.3 5.1 C 5 4.8 4.8 4.3 4.8 3.7 C 4.8 3.7 4.8 3.7 4.8 3.7 C 4.8 3.2 5 2.7 5.3 2.3 C 5.7 2 6.1 1.8 6.6 1.8 C 7.2 1.8 7.7 2 8 2.4 C 8.3 2.8 8.5 3.2 8.5 3.8 C 8.5 3.9 8.5 4 8.4 4.1 C 8.4 4.1 5.8 4.1 5.8 4.1 C 5.9 4.3 6 4.5 6.2 4.6 C 6.3 4.8 6.5 4.8 6.8 4.8 C 7.1 4.8 7.4 4.7 7.7 4.4 C 7.66 4.44 8.3 5 8.3 5 C 8.3 5 8.27 4.98 8.3 5 Z M 5.8 3.4 C 5.8 3.4 7.4 3.4 7.4 3.4 C 7.4 3.2 7.3 3 7.2 2.8 C 7 2.7 6.9 2.6 6.6 2.6 C 6.4 2.6 6.2 2.7 6.1 2.8 C 6 3 5.9 3.2 5.8 3.4 Z M 9.3 5.6 L 9.3 1.8 L 10.3 1.8 C 10.3 1.8 10.32 2.38 10.3 2.4 C 10.6 2 11 1.8 11.4 1.8 C 11.8 1.8 12.1 1.9 12.4 2.1 C 12.6 2.4 12.7 2.7 12.7 3.2 C 12.69 3.17 12.7 5.6 12.7 5.6 L 11.6 5.6 C 11.6 5.6 11.63 3.51 11.6 3.5 C 11.6 3 11.4 2.7 11 2.7 C 10.8 2.7 10.6 2.8 10.5 2.9 C 10.4 3.1 10.3 3.3 10.3 3.5 C 10.32 3.51 10.3 5.6 10.3 5.6 L 9.3 5.6 Z M 16.9 5 C 16.5 5.5 16 5.7 15.4 5.7 C 14.8 5.7 14.4 5.5 14 5.1 C 13.6 4.8 13.4 4.3 13.4 3.7 C 13.4 3.7 13.4 3.7 13.4 3.7 C 13.4 3.2 13.6 2.7 14 2.3 C 14.3 2 14.8 1.8 15.3 1.8 C 15.9 1.8 16.3 2 16.6 2.4 C 17 2.8 17.1 3.2 17.1 3.8 C 17.1 3.9 17.1 4 17.1 4.1 C 17.1 4.1 14.5 4.1 14.5 4.1 C 14.5 4.3 14.6 4.5 14.8 4.6 C 15 4.8 15.2 4.8 15.4 4.8 C 15.7 4.8 16 4.7 16.3 4.4 C 16.32 4.44 16.9 5 16.9 5 C 16.9 5 16.93 4.98 16.9 5 Z M 14.5 3.4 C 14.5 3.4 16.1 3.4 16.1 3.4 C 16 3.2 16 3 15.8 2.8 C 15.7 2.7 15.5 2.6 15.3 2.6 C 15.1 2.6 14.9 2.7 14.7 2.8 C 14.6 3 14.5 3.2 14.5 3.4 Z M 17.9 5.6 L 17.9 1.8 L 19 1.8 C 19 1.8 18.97 2.6 19 2.6 C 19.2 2 19.6 1.8 20.2 1.8 C 20.17 1.78 20.2 2.9 20.2 2.9 C 20.2 2.9 20.11 2.89 20.1 2.9 C 19.7 2.9 19.5 3 19.3 3.2 C 19.1 3.4 19 3.8 19 4.2 C 18.97 4.21 19 5.6 19 5.6 L 17.9 5.6 Z M 22.8 3.9 L 22.8 2.9 L 25.8 2.9 L 25.8 3.9 L 22.8 3.9 Z M 28.8 5.6 L 28.8 0.7 L 32.6 0.7 L 32.6 1.7 L 29.9 1.7 L 29.9 2.7 L 32.3 2.7 L 32.3 3.7 L 29.9 3.7 L 29.9 5.6 L 28.8 5.6 Z M 33.3 1.4 L 33.3 0.5 L 34.5 0.5 L 34.5 1.4 L 33.3 1.4 Z M 33.4 5.6 L 33.4 1.8 L 34.4 1.8 L 34.4 5.6 L 33.4 5.6 Z M 35.4 5.6 L 35.4 1.8 L 36.5 1.8 C 36.5 1.8 36.5 2.6 36.5 2.6 C 36.7 2 37.1 1.8 37.7 1.8 C 37.69 1.78 37.7 2.9 37.7 2.9 C 37.7 2.9 37.64 2.89 37.6 2.9 C 37.3 2.9 37 3 36.8 3.2 C 36.6 3.4 36.5 3.8 36.5 4.2 C 36.5 4.21 36.5 5.6 36.5 5.6 L 35.4 5.6 Z M 41.6 5 C 41.2 5.5 40.7 5.7 40 5.7 C 39.5 5.7 39 5.5 38.6 5.1 C 38.3 4.8 38.1 4.3 38.1 3.7 C 38.1 3.7 38.1 3.7 38.1 3.7 C 38.1 3.2 38.2 2.7 38.6 2.3 C 38.9 2 39.4 1.8 39.9 1.8 C 40.5 1.8 41 2 41.3 2.4 C 41.6 2.8 41.8 3.2 41.8 3.8 C 41.8 3.9 41.7 4 41.7 4.1 C 41.7 4.1 39.1 4.1 39.1 4.1 C 39.2 4.3 39.3 4.5 39.4 4.6 C 39.6 4.8 39.8 4.8 40 4.8 C 40.4 4.8 40.7 4.7 41 4.4 C 40.96 4.44 41.6 5 41.6 5 C 41.6 5 41.57 4.98 41.6 5 Z M 39.1 3.4 C 39.1 3.4 40.7 3.4 40.7 3.4 C 40.7 3.2 40.6 3 40.5 2.8 C 40.3 2.7 40.1 2.6 39.9 2.6 C 39.7 2.6 39.5 2.7 39.4 2.8 C 39.2 3 39.2 3.2 39.1 3.4 Z M 42.7 5.6 L 42.7 2.8 L 42.3 2.8 L 42.3 1.9 L 42.7 1.9 C 42.7 1.9 42.73 1.64 42.7 1.6 C 42.7 1.2 42.8 0.9 43 0.7 C 43.2 0.5 43.5 0.4 43.9 0.4 C 44.2 0.4 44.4 0.5 44.6 0.5 C 44.6 0.5 44.6 1.4 44.6 1.4 C 44.5 1.4 44.3 1.3 44.2 1.3 C 43.9 1.3 43.8 1.5 43.8 1.7 C 43.78 1.74 43.8 1.9 43.8 1.9 L 44.6 1.9 L 44.6 2.8 L 43.8 2.8 L 43.8 5.6 L 42.7 5.6 Z M 45.3 5.6 L 45.3 0.5 L 46.3 0.5 L 46.3 5.6 L 45.3 5.6 Z M 49 4.4 L 49.8 1.8 L 50.9 1.8 C 50.9 1.8 49.46 5.69 49.5 5.7 C 49.3 6.1 49.2 6.3 49 6.5 C 48.8 6.7 48.5 6.7 48.2 6.7 C 47.9 6.7 47.6 6.7 47.3 6.5 C 47.3 6.5 47.6 5.7 47.6 5.7 C 47.8 5.8 48 5.9 48.1 5.9 C 48.2 5.9 48.3 5.8 48.3 5.8 C 48.4 5.8 48.4 5.7 48.5 5.6 C 48.47 5.61 47 1.8 47 1.8 L 48.1 1.8 L 49 4.4 Z " stroke="none" fill="#000"/>  </g></svg>