<?xml version="1.0" standalone="no"?><!DOCTYPE svg PUBLIC "-//W3C//DTD SVG 1.1//EN" "http://www.w3.org/Graphics/SVG/1.1/DTD/svg11.dtd"><svg xmlns="http://www.w3.org/2000/svg" version="1.1" width="93px" height="115.4px" viewBox="0 -3 93 115.4" style="top:-3px">  <desc>Bula k Seti – Singles r n Kodu: ZD 28078 Renk: Taupe Silikon / Seramik / ABS L 19 cm, W 6 cm, H 20,5 cm, 0,4 l Tasa...</desc>  <defs/>  <g id="Polygon378450">    <path d="M 2 68.6 L 2 64.2 L 0.3 64.2 L 0.3 63.7 L 4.2 63.7 L 4.2 64.2 L 2.5 64.2 L 2.5 68.6 L 2 68.6 Z M 6.6 68.1 C 6.3 68.5 5.9 68.7 5.3 68.7 C 4.9 68.7 4.6 68.6 4.4 68.4 C 4.1 68.2 4 67.9 4 67.5 C 4 67.5 4 67.5 4 67.5 C 4 67.2 4.1 66.9 4.4 66.7 C 4.7 66.5 5 66.4 5.5 66.4 C 5.9 66.4 6.2 66.4 6.6 66.5 C 6.6 66.5 6.6 66.4 6.6 66.4 C 6.6 66.1 6.5 65.8 6.3 65.7 C 6.1 65.5 5.9 65.4 5.5 65.4 C 5.2 65.4 4.8 65.5 4.4 65.7 C 4.4 65.7 4.3 65.2 4.3 65.2 C 4.7 65 5.1 64.9 5.6 64.9 C 6.1 64.9 6.5 65.1 6.8 65.3 C 7 65.6 7.1 65.9 7.1 66.4 C 7.13 66.39 7.1 68.6 7.1 68.6 L 6.6 68.6 L 6.6 68.1 C 6.6 68.1 6.62 68.05 6.6 68.1 Z M 5.4 68.2 C 5.8 68.2 6 68.2 6.3 68 C 6.5 67.8 6.6 67.6 6.6 67.3 C 6.6 67.3 6.6 66.9 6.6 66.9 C 6.3 66.8 5.9 66.8 5.6 66.8 C 5.2 66.8 5 66.8 4.8 67 C 4.6 67.1 4.5 67.3 4.5 67.5 C 4.5 67.5 4.5 67.5 4.5 67.5 C 4.5 67.7 4.6 67.9 4.8 68.1 C 4.9 68.2 5.2 68.2 5.4 68.2 Z M 9.5 68.7 C 8.9 68.7 8.4 68.5 8 68.1 C 8 68.1 8.3 67.8 8.3 67.8 C 8.7 68.1 9.1 68.2 9.5 68.2 C 9.7 68.2 9.9 68.2 10 68.1 C 10.2 68 10.3 67.8 10.3 67.6 C 10.3 67.6 10.3 67.6 10.3 67.6 C 10.3 67.5 10.2 67.3 10 67.2 C 9.9 67.2 9.6 67.1 9.4 67 C 9.2 67 9.1 66.9 9.1 66.9 C 9 66.9 8.9 66.8 8.8 66.8 C 8.7 66.8 8.6 66.7 8.5 66.7 C 8.5 66.6 8.4 66.6 8.3 66.5 C 8.3 66.4 8.2 66.4 8.2 66.3 C 8.2 66.2 8.2 66.1 8.2 66 C 8.2 66 8.2 66 8.2 66 C 8.2 65.6 8.3 65.4 8.5 65.2 C 8.7 65 9 64.9 9.4 64.9 C 9.9 64.9 10.3 65.1 10.7 65.3 C 10.7 65.3 10.4 65.7 10.4 65.7 C 10.1 65.5 9.7 65.4 9.4 65.4 C 9.2 65.4 9 65.4 8.9 65.5 C 8.7 65.6 8.7 65.7 8.7 65.9 C 8.7 65.9 8.7 65.9 8.7 65.9 C 8.7 66 8.7 66 8.7 66.1 C 8.8 66.1 8.8 66.2 8.9 66.2 C 8.9 66.3 9 66.3 9.1 66.4 C 9.2 66.4 9.3 66.4 9.3 66.4 C 9.4 66.5 9.5 66.5 9.6 66.5 C 9.7 66.6 9.9 66.6 9.9 66.6 C 10 66.7 10.1 66.7 10.3 66.8 C 10.4 66.8 10.5 66.9 10.5 67 C 10.6 67 10.6 67.1 10.7 67.2 C 10.7 67.3 10.8 67.4 10.8 67.6 C 10.8 67.6 10.8 67.6 10.8 67.6 C 10.8 67.9 10.6 68.2 10.4 68.4 C 10.2 68.6 9.9 68.7 9.5 68.7 Z M 14.2 68.1 C 13.8 68.5 13.4 68.7 12.8 68.7 C 12.5 68.7 12.2 68.6 11.9 68.4 C 11.6 68.2 11.5 67.9 11.5 67.5 C 11.5 67.5 11.5 67.5 11.5 67.5 C 11.5 67.2 11.6 66.9 11.9 66.7 C 12.2 66.5 12.6 66.4 13 66.4 C 13.4 66.4 13.8 66.4 14.2 66.5 C 14.2 66.5 14.2 66.4 14.2 66.4 C 14.2 66.1 14.1 65.8 13.9 65.7 C 13.7 65.5 13.4 65.4 13.1 65.4 C 12.7 65.4 12.3 65.5 12 65.7 C 12 65.7 11.8 65.2 11.8 65.2 C 12.2 65 12.7 64.9 13.1 64.9 C 13.6 64.9 14 65.1 14.3 65.3 C 14.5 65.6 14.7 65.9 14.7 66.4 C 14.67 66.39 14.7 68.6 14.7 68.6 L 14.2 68.6 L 14.2 68.1 C 14.2 68.1 14.15 68.05 14.2 68.1 Z M 12.9 68.2 C 13.3 68.2 13.6 68.2 13.8 68 C 14 67.8 14.2 67.6 14.2 67.3 C 14.2 67.3 14.2 66.9 14.2 66.9 C 13.8 66.8 13.4 66.8 13.1 66.8 C 12.8 66.8 12.5 66.8 12.3 67 C 12.1 67.1 12 67.3 12 67.5 C 12 67.5 12 67.5 12 67.5 C 12 67.7 12.1 67.9 12.3 68.1 C 12.5 68.2 12.7 68.2 12.9 68.2 Z M 15.8 68.6 L 15.8 65 L 16.4 65 C 16.4 65 16.36 65.93 16.4 65.9 C 16.5 65.6 16.7 65.4 17 65.2 C 17.2 65 17.5 64.9 17.8 64.9 C 17.84 64.92 17.8 65.5 17.8 65.5 C 17.8 65.5 17.79 65.5 17.8 65.5 C 17.4 65.5 17 65.6 16.8 65.9 C 16.5 66.2 16.4 66.6 16.4 67.2 C 16.36 67.16 16.4 68.6 16.4 68.6 L 15.8 68.6 Z M 18.7 68.6 L 18.7 65 L 19.2 65 L 19.2 68.6 L 18.7 68.6 Z M 20.5 68.6 L 20.5 65 L 21 65 C 21 65 21.03 65.59 21 65.6 C 21.2 65.4 21.3 65.2 21.5 65.1 C 21.7 65 21.9 64.9 22.2 64.9 C 22.7 64.9 23.1 65.1 23.4 65.6 C 23.7 65.1 24.1 64.9 24.6 64.9 C 25.1 64.9 25.4 65 25.6 65.3 C 25.9 65.6 26 65.9 26 66.4 C 25.98 66.36 26 68.6 26 68.6 L 25.4 68.6 C 25.4 68.6 25.44 66.49 25.4 66.5 C 25.4 66.1 25.4 65.9 25.2 65.7 C 25 65.5 24.8 65.4 24.5 65.4 C 24.2 65.4 24 65.5 23.8 65.7 C 23.6 65.9 23.5 66.2 23.5 66.5 C 23.51 66.51 23.5 68.6 23.5 68.6 L 23 68.6 C 23 68.6 22.97 66.47 23 66.5 C 23 66.1 22.9 65.9 22.7 65.7 C 22.6 65.5 22.3 65.4 22 65.4 C 21.8 65.4 21.5 65.5 21.3 65.7 C 21.1 65.9 21 66.2 21 66.5 C 21.03 66.53 21 68.6 21 68.6 L 20.5 68.6 Z M 27.1 65.7 L 27.1 65 L 27.7 65 L 27.7 65.7 L 27.1 65.7 Z M 27.1 68.6 L 27.1 67.9 L 27.7 67.9 L 27.7 68.6 L 27.1 68.6 Z M 32.8 68.6 L 30.7 63.7 L 31.3 63.7 L 33 67.9 L 34.8 63.7 L 35.4 63.7 L 33.3 68.6 L 32.8 68.6 Z M 36.4 68.6 L 36.4 63.7 L 39.9 63.7 L 39.9 64.2 L 36.9 64.2 L 36.9 65.9 L 39.6 65.9 L 39.6 66.4 L 36.9 66.4 L 36.9 68.1 L 39.9 68.1 L 39.9 68.6 L 36.4 68.6 Z M 40.7 68.6 L 40.7 68.2 C 40.7 68.2 42.46 66.6 42.5 66.6 C 42.8 66.3 43.1 66 43.3 65.8 C 43.4 65.5 43.5 65.3 43.5 65.1 C 43.5 64.8 43.4 64.6 43.2 64.4 C 43 64.2 42.8 64.1 42.5 64.1 C 42.2 64.1 42 64.2 41.8 64.3 C 41.6 64.5 41.4 64.7 41.2 65 C 41.2 65 40.8 64.7 40.8 64.7 C 41 64.3 41.3 64 41.5 63.9 C 41.8 63.7 42.1 63.6 42.5 63.6 C 43 63.6 43.3 63.8 43.6 64 C 43.9 64.3 44.1 64.6 44.1 65 C 44.1 65 44.1 65 44.1 65 C 44.1 65.4 44 65.7 43.8 65.9 C 43.6 66.2 43.3 66.5 42.8 66.9 C 42.82 66.93 41.5 68.1 41.5 68.1 L 44.1 68.1 L 44.1 68.6 L 40.7 68.6 Z " stroke="none" fill="#000"/>  </g>  <g id="Polygon378449">    <path d="M 3.7 59 C 3.3 59.5 2.8 59.7 2.2 59.7 C 1.7 59.7 1.3 59.5 0.9 59.1 C 0.6 58.8 0.4 58.3 0.4 57.8 C 0.4 57.8 0.4 57.8 0.4 57.8 C 0.4 57.3 0.6 56.8 0.9 56.5 C 1.3 56.1 1.7 55.9 2.2 55.9 C 2.8 55.9 3.3 56.1 3.7 56.5 C 3.7 56.5 3.3 56.9 3.3 56.9 C 3 56.6 2.6 56.4 2.2 56.4 C 1.9 56.4 1.5 56.5 1.3 56.8 C 1.1 57.1 0.9 57.4 0.9 57.8 C 0.9 57.8 0.9 57.8 0.9 57.8 C 0.9 58.2 1.1 58.5 1.3 58.8 C 1.6 59.1 1.9 59.2 2.3 59.2 C 2.7 59.2 3 59 3.4 58.7 C 3.37 58.66 3.7 59 3.7 59 C 3.7 59 3.71 58.98 3.7 59 Z M 4.6 59.6 L 4.6 56 L 5.1 56 C 5.1 56 5.14 56.59 5.1 56.6 C 5.3 56.4 5.4 56.2 5.6 56.1 C 5.8 56 6 55.9 6.3 55.9 C 6.9 55.9 7.2 56.1 7.5 56.6 C 7.8 56.1 8.2 55.9 8.7 55.9 C 9.2 55.9 9.5 56 9.7 56.3 C 10 56.6 10.1 56.9 10.1 57.4 C 10.09 57.36 10.1 59.6 10.1 59.6 L 9.5 59.6 C 9.5 59.6 9.55 57.49 9.5 57.5 C 9.5 57.1 9.5 56.9 9.3 56.7 C 9.1 56.5 8.9 56.4 8.6 56.4 C 8.3 56.4 8.1 56.5 7.9 56.7 C 7.7 56.9 7.6 57.2 7.6 57.5 C 7.61 57.51 7.6 59.6 7.6 59.6 L 7.1 59.6 C 7.1 59.6 7.08 57.47 7.1 57.5 C 7.1 57.1 7 56.9 6.8 56.7 C 6.7 56.5 6.4 56.4 6.1 56.4 C 5.9 56.4 5.6 56.5 5.4 56.7 C 5.2 56.9 5.1 57.2 5.1 57.5 C 5.14 57.53 5.1 59.6 5.1 59.6 L 4.6 59.6 Z M 11 60.5 C 11 60.5 11 60.2 11 60.2 C 11.3 60.1 11.5 59.9 11.4 59.6 C 11.42 59.6 11.2 59.6 11.2 59.6 L 11.2 58.9 L 11.8 58.9 C 11.8 58.9 11.82 59.49 11.8 59.5 C 11.8 59.8 11.8 60 11.6 60.1 C 11.5 60.3 11.3 60.4 11 60.5 Z M 19 57.1 C 19 57.9 18.8 58.5 18.4 58.9 C 18.1 59.4 17.6 59.7 16.9 59.7 C 16.3 59.7 15.8 59.4 15.5 59 C 15.1 58.5 14.9 57.9 14.9 57.2 C 14.9 57.2 14.9 57.1 14.9 57.1 C 14.9 56.4 15.1 55.8 15.5 55.4 C 15.8 54.9 16.3 54.6 17 54.6 C 17.6 54.6 18.1 54.9 18.5 55.3 C 18.8 55.8 19 56.4 19 57.1 C 19.02 57.14 19 57.1 19 57.1 C 19 57.1 19.02 57.15 19 57.1 Z M 15.5 57.1 C 15.5 57.7 15.6 58.2 15.9 58.6 C 16.1 59 16.5 59.2 17 59.2 C 17.4 59.2 17.8 59 18 58.6 C 18.3 58.2 18.4 57.7 18.4 57.2 C 18.4 57.2 18.4 57.1 18.4 57.1 C 18.4 56.6 18.3 56.1 18 55.7 C 17.8 55.3 17.4 55.1 16.9 55.1 C 16.5 55.1 16.1 55.3 15.9 55.7 C 15.6 56.1 15.5 56.6 15.5 57.1 C 15.46 57.14 15.5 57.1 15.5 57.1 C 15.5 57.1 15.46 57.15 15.5 57.1 Z M 19.7 60.5 C 19.7 60.5 19.6 60.2 19.6 60.2 C 20 60.1 20.1 59.9 20.1 59.6 C 20.1 59.6 19.9 59.6 19.9 59.6 L 19.9 58.9 L 20.5 58.9 C 20.5 58.9 20.5 59.49 20.5 59.5 C 20.5 59.8 20.4 60 20.3 60.1 C 20.2 60.3 20 60.4 19.7 60.5 Z M 24.1 59.6 L 24.1 58.4 L 21.5 58.4 L 21.3 58 L 24.1 54.7 L 24.6 54.7 L 24.6 58 L 25.3 58 L 25.3 58.4 L 24.6 58.4 L 24.6 59.6 L 24.1 59.6 Z M 22 58 L 24.1 58 L 24.1 55.4 L 22 58 Z M 28.5 59.6 L 28.5 54.5 L 29 54.5 L 29 59.6 L 28.5 59.6 Z " stroke="none" fill="#000"/>  </g>  <g id="Polygon378448">    <path d="M 0.7 50.6 L 0.7 45.7 L 1.2 45.7 L 1.2 50.1 L 4 50.1 L 4 50.6 L 0.7 50.6 Z M 7.7 50.6 L 7.7 46.2 L 6.7 46.5 L 6.6 46.1 L 7.8 45.7 L 8.2 45.7 L 8.2 50.6 L 7.7 50.6 Z M 9.8 49.7 C 10.2 50 10.6 50.2 11 50.2 C 11.4 50.2 11.8 50 12.1 49.6 C 12.3 49.2 12.4 48.7 12.4 48.1 C 12.4 48.1 12.4 48 12.4 48 C 12.1 48.6 11.6 48.8 11.1 48.8 C 10.6 48.8 10.1 48.7 9.8 48.4 C 9.5 48.1 9.4 47.7 9.4 47.3 C 9.4 47.3 9.4 47.3 9.4 47.3 C 9.4 46.8 9.5 46.4 9.8 46.1 C 10.2 45.8 10.6 45.6 11.1 45.6 C 11.6 45.6 12.1 45.8 12.4 46.1 C 12.8 46.5 13 47.2 13 48 C 13 48 13 48 13 48 C 13 48.8 12.8 49.4 12.4 49.9 C 12.1 50.4 11.6 50.7 11 50.7 C 10.5 50.7 10 50.5 9.5 50.1 C 9.46 50.08 9.8 49.7 9.8 49.7 C 9.8 49.7 9.79 49.65 9.8 49.7 Z M 11.1 48.3 C 11.5 48.3 11.8 48.2 12 48 C 12.2 47.8 12.3 47.5 12.3 47.2 C 12.3 47.2 12.3 47.2 12.3 47.2 C 12.3 46.9 12.2 46.6 12 46.4 C 11.8 46.2 11.5 46.1 11.1 46.1 C 10.7 46.1 10.5 46.2 10.2 46.4 C 10 46.7 9.9 46.9 9.9 47.3 C 9.9 47.3 9.9 47.3 9.9 47.3 C 9.9 47.6 10 47.8 10.3 48 C 10.5 48.2 10.8 48.3 11.1 48.3 Z M 19.2 50 C 18.8 50.5 18.3 50.7 17.8 50.7 C 17.2 50.7 16.8 50.5 16.4 50.1 C 16.1 49.8 15.9 49.3 15.9 48.8 C 15.9 48.8 15.9 48.8 15.9 48.8 C 15.9 48.3 16.1 47.8 16.4 47.5 C 16.8 47.1 17.2 46.9 17.8 46.9 C 18.3 46.9 18.8 47.1 19.2 47.5 C 19.2 47.5 18.9 47.9 18.9 47.9 C 18.5 47.6 18.2 47.4 17.8 47.4 C 17.4 47.4 17.1 47.5 16.8 47.8 C 16.6 48.1 16.5 48.4 16.5 48.8 C 16.5 48.8 16.5 48.8 16.5 48.8 C 16.5 49.2 16.6 49.5 16.9 49.8 C 17.1 50.1 17.4 50.2 17.8 50.2 C 18.2 50.2 18.6 50 18.9 49.7 C 18.91 49.66 19.2 50 19.2 50 C 19.2 50 19.25 49.98 19.2 50 Z M 20.1 50.6 L 20.1 47 L 20.7 47 C 20.7 47 20.68 47.59 20.7 47.6 C 20.8 47.4 21 47.2 21.2 47.1 C 21.3 47 21.6 46.9 21.8 46.9 C 22.4 46.9 22.8 47.1 23 47.6 C 23.3 47.1 23.8 46.9 24.3 46.9 C 24.7 46.9 25 47 25.3 47.3 C 25.5 47.6 25.6 47.9 25.6 48.4 C 25.63 48.36 25.6 50.6 25.6 50.6 L 25.1 50.6 C 25.1 50.6 25.09 48.49 25.1 48.5 C 25.1 48.1 25 47.9 24.8 47.7 C 24.7 47.5 24.4 47.4 24.1 47.4 C 23.9 47.4 23.6 47.5 23.4 47.7 C 23.2 47.9 23.1 48.2 23.1 48.5 C 23.15 48.51 23.1 50.6 23.1 50.6 L 22.6 50.6 C 22.6 50.6 22.62 48.47 22.6 48.5 C 22.6 48.1 22.5 47.9 22.4 47.7 C 22.2 47.5 22 47.4 21.7 47.4 C 21.4 47.4 21.2 47.5 21 47.7 C 20.8 47.9 20.7 48.2 20.7 48.5 C 20.68 48.53 20.7 50.6 20.7 50.6 L 20.1 50.6 Z M 26.6 51.5 C 26.6 51.5 26.5 51.2 26.5 51.2 C 26.8 51.1 27 50.9 27 50.6 C 26.96 50.6 26.7 50.6 26.7 50.6 L 26.7 49.9 L 27.4 49.9 C 27.4 49.9 27.36 50.49 27.4 50.5 C 27.4 50.8 27.3 51 27.2 51.1 C 27 51.3 26.8 51.4 26.6 51.5 Z M 32.1 50.6 L 30.3 45.7 L 30.9 45.7 L 32.3 49.8 L 33.6 45.7 L 34.1 45.7 L 35.4 49.8 L 36.8 45.7 L 37.4 45.7 L 35.7 50.6 L 35.2 50.6 L 33.9 46.7 L 32.5 50.6 L 32.1 50.6 Z M 42.2 50.7 C 41.6 50.7 41.2 50.5 40.9 50.2 C 40.7 50 40.5 49.7 40.4 49.4 C 40.3 49.1 40.3 48.8 40.3 48.3 C 40.3 48.3 40.3 48.3 40.3 48.3 C 40.3 47.5 40.4 46.9 40.8 46.4 C 41.2 45.9 41.7 45.6 42.3 45.6 C 42.8 45.6 43.3 45.8 43.7 46.2 C 43.7 46.2 43.4 46.6 43.4 46.6 C 43 46.3 42.7 46.1 42.3 46.1 C 41.8 46.1 41.5 46.3 41.2 46.7 C 41 47.1 40.8 47.6 40.8 48.2 C 40.8 48.2 40.8 48.3 40.8 48.3 C 41.2 47.8 41.6 47.5 42.2 47.5 C 42.7 47.5 43.1 47.7 43.4 48 C 43.8 48.2 43.9 48.6 43.9 49 C 43.9 49 43.9 49.1 43.9 49.1 C 43.9 49.5 43.8 49.9 43.4 50.2 C 43.1 50.5 42.7 50.7 42.2 50.7 Z M 42.2 50.2 C 42.5 50.2 42.8 50.1 43 49.9 C 43.2 49.7 43.4 49.4 43.4 49.1 C 43.4 49.1 43.4 49.1 43.4 49.1 C 43.4 48.8 43.2 48.5 43 48.3 C 42.8 48.1 42.5 48 42.2 48 C 41.8 48 41.5 48.1 41.3 48.3 C 41.1 48.6 40.9 48.8 40.9 49.1 C 40.9 49.1 40.9 49.1 40.9 49.1 C 40.9 49.4 41.1 49.7 41.3 49.9 C 41.5 50.1 41.8 50.2 42.2 50.2 Z M 50.2 50 C 49.8 50.5 49.3 50.7 48.7 50.7 C 48.2 50.7 47.7 50.5 47.4 50.1 C 47 49.8 46.8 49.3 46.8 48.8 C 46.8 48.8 46.8 48.8 46.8 48.8 C 46.8 48.3 47 47.8 47.4 47.5 C 47.7 47.1 48.2 46.9 48.7 46.9 C 49.3 46.9 49.7 47.1 50.1 47.5 C 50.1 47.5 49.8 47.9 49.8 47.9 C 49.4 47.6 49.1 47.4 48.7 47.4 C 48.3 47.4 48 47.5 47.8 47.8 C 47.5 48.1 47.4 48.4 47.4 48.8 C 47.4 48.8 47.4 48.8 47.4 48.8 C 47.4 49.2 47.5 49.5 47.8 49.8 C 48 50.1 48.3 50.2 48.7 50.2 C 49.1 50.2 49.5 50 49.8 49.7 C 49.83 49.66 50.2 50 50.2 50 C 50.2 50 50.18 49.98 50.2 50 Z M 51.1 50.6 L 51.1 47 L 51.6 47 C 51.6 47 51.6 47.59 51.6 47.6 C 51.7 47.4 51.9 47.2 52.1 47.1 C 52.3 47 52.5 46.9 52.8 46.9 C 53.3 46.9 53.7 47.1 53.9 47.6 C 54.3 47.1 54.7 46.9 55.2 46.9 C 55.6 46.9 56 47 56.2 47.3 C 56.4 47.6 56.6 47.9 56.6 48.4 C 56.55 48.36 56.6 50.6 56.6 50.6 L 56 50.6 C 56 50.6 56.01 48.49 56 48.5 C 56 48.1 55.9 47.9 55.8 47.7 C 55.6 47.5 55.4 47.4 55.1 47.4 C 54.8 47.4 54.6 47.5 54.4 47.7 C 54.2 47.9 54.1 48.2 54.1 48.5 C 54.07 48.51 54.1 50.6 54.1 50.6 L 53.5 50.6 C 53.5 50.6 53.54 48.47 53.5 48.5 C 53.5 48.1 53.5 47.9 53.3 47.7 C 53.1 47.5 52.9 47.4 52.6 47.4 C 52.3 47.4 52.1 47.5 51.9 47.7 C 51.7 47.9 51.6 48.2 51.6 48.5 C 51.6 48.53 51.6 50.6 51.6 50.6 L 51.1 50.6 Z M 57.5 51.5 C 57.5 51.5 57.4 51.2 57.4 51.2 C 57.8 51.1 57.9 50.9 57.9 50.6 C 57.89 50.6 57.6 50.6 57.6 50.6 L 57.6 49.9 L 58.3 49.9 C 58.3 49.9 58.28 50.49 58.3 50.5 C 58.3 50.8 58.2 51 58.1 51.1 C 58 51.3 57.8 51.4 57.5 51.5 Z M 61.6 50.6 L 61.6 45.7 L 62.2 45.7 L 62.2 47.9 L 65 47.9 L 65 45.7 L 65.5 45.7 L 65.5 50.6 L 65 50.6 L 65 48.4 L 62.2 48.4 L 62.2 50.6 L 61.6 50.6 Z M 68.7 50.6 L 68.7 50.2 C 68.7 50.2 70.45 48.6 70.4 48.6 C 70.8 48.3 71.1 48 71.2 47.8 C 71.4 47.5 71.5 47.3 71.5 47.1 C 71.5 46.8 71.4 46.6 71.2 46.4 C 71 46.2 70.8 46.1 70.5 46.1 C 70.2 46.1 70 46.2 69.8 46.3 C 69.6 46.5 69.4 46.7 69.2 47 C 69.2 47 68.8 46.7 68.8 46.7 C 69 46.3 69.3 46 69.5 45.9 C 69.8 45.7 70.1 45.6 70.5 45.6 C 71 45.6 71.3 45.8 71.6 46 C 71.9 46.3 72 46.6 72 47 C 72 47 72 47 72 47 C 72 47.4 72 47.7 71.8 47.9 C 71.6 48.2 71.3 48.5 70.8 48.9 C 70.8 48.93 69.5 50.1 69.5 50.1 L 72.1 50.1 L 72.1 50.6 L 68.7 50.6 Z M 77.1 48.1 C 77.1 48.9 76.9 49.5 76.5 49.9 C 76.1 50.4 75.6 50.7 75 50.7 C 74.4 50.7 73.9 50.4 73.5 50 C 73.1 49.5 73 48.9 73 48.2 C 73 48.2 73 48.1 73 48.1 C 73 47.4 73.2 46.8 73.5 46.4 C 73.9 45.9 74.4 45.6 75 45.6 C 75.7 45.6 76.2 45.9 76.5 46.3 C 76.9 46.8 77.1 47.4 77.1 48.1 C 77.1 48.14 77.1 48.1 77.1 48.1 C 77.1 48.1 77.1 48.15 77.1 48.1 Z M 73.5 48.1 C 73.5 48.7 73.7 49.2 74 49.6 C 74.2 50 74.6 50.2 75 50.2 C 75.5 50.2 75.8 50 76.1 49.6 C 76.4 49.2 76.5 48.7 76.5 48.2 C 76.5 48.2 76.5 48.1 76.5 48.1 C 76.5 47.6 76.4 47.1 76.1 46.7 C 75.8 46.3 75.5 46.1 75 46.1 C 74.6 46.1 74.2 46.3 73.9 46.7 C 73.7 47.1 73.5 47.6 73.5 48.1 C 73.53 48.14 73.5 48.1 73.5 48.1 C 73.5 48.1 73.53 48.15 73.5 48.1 Z M 77.8 51.5 C 77.8 51.5 77.7 51.2 77.7 51.2 C 78.1 51.1 78.2 50.9 78.2 50.6 C 78.18 50.6 77.9 50.6 77.9 50.6 L 77.9 49.9 L 78.6 49.9 C 78.6 49.9 78.57 50.49 78.6 50.5 C 78.6 50.8 78.5 51 78.4 51.1 C 78.3 51.3 78.1 51.4 77.8 51.5 Z M 81.2 50.7 C 80.6 50.7 80 50.4 79.5 49.9 C 79.5 49.9 79.8 49.5 79.8 49.5 C 80.3 50 80.8 50.2 81.2 50.2 C 81.6 50.2 81.9 50.1 82.1 49.9 C 82.3 49.7 82.4 49.4 82.4 49.1 C 82.4 49.1 82.4 49.1 82.4 49.1 C 82.4 48.8 82.3 48.5 82.1 48.3 C 81.8 48.1 81.6 48.1 81.2 48.1 C 80.8 48.1 80.5 48.1 80.2 48.3 C 80.17 48.33 79.8 48.1 79.8 48.1 L 79.9 45.7 L 82.8 45.7 L 82.8 46.2 L 80.4 46.2 C 80.4 46.2 80.32 47.78 80.3 47.8 C 80.6 47.6 81 47.6 81.3 47.6 C 81.8 47.6 82.2 47.7 82.5 48 C 82.8 48.2 83 48.6 83 49.1 C 83 49.1 83 49.1 83 49.1 C 83 49.5 82.8 49.9 82.5 50.2 C 82.2 50.5 81.7 50.7 81.2 50.7 Z " stroke="none" fill="#000"/>  </g>  <g id="Polygon378447">    <path d="M 2.4 41.7 C 1.6 41.7 0.9 41.4 0.4 40.9 C 0.4 40.9 0.7 40.5 0.7 40.5 C 1 40.7 1.2 40.9 1.5 41 C 1.8 41.1 2.1 41.2 2.4 41.2 C 2.7 41.2 3 41.1 3.2 40.9 C 3.4 40.8 3.5 40.6 3.5 40.3 C 3.5 40.3 3.5 40.3 3.5 40.3 C 3.5 40.1 3.4 39.9 3.2 39.8 C 3 39.6 2.7 39.5 2.2 39.4 C 1.6 39.3 1.2 39.1 1 38.9 C 0.7 38.7 0.6 38.4 0.6 38 C 0.6 38 0.6 38 0.6 38 C 0.6 37.6 0.7 37.3 1 37 C 1.3 36.8 1.7 36.6 2.2 36.6 C 2.5 36.6 2.8 36.7 3.1 36.8 C 3.4 36.9 3.6 37 3.9 37.2 C 3.9 37.2 3.6 37.7 3.6 37.7 C 3.1 37.3 2.7 37.1 2.2 37.1 C 1.8 37.1 1.6 37.2 1.4 37.4 C 1.2 37.5 1.1 37.7 1.1 37.9 C 1.1 37.9 1.1 37.9 1.1 37.9 C 1.1 38.2 1.2 38.4 1.4 38.5 C 1.6 38.7 1.9 38.8 2.5 38.9 C 3 39 3.4 39.2 3.7 39.4 C 3.9 39.6 4 39.9 4 40.3 C 4 40.3 4 40.3 4 40.3 C 4 40.7 3.9 41 3.6 41.3 C 3.3 41.5 2.9 41.7 2.4 41.7 Z M 5.1 37.2 L 5.1 36.6 L 5.7 36.6 L 5.7 37.2 L 5.1 37.2 Z M 5.1 41.6 L 5.1 38 L 5.7 38 L 5.7 41.6 L 5.1 41.6 Z M 7 41.6 L 7 36.5 L 7.5 36.5 L 7.5 41.6 L 7 41.6 Z M 8.8 37.2 L 8.8 36.6 L 9.4 36.6 L 9.4 37.2 L 8.8 37.2 Z M 8.8 41.6 L 8.8 38 L 9.4 38 L 9.4 41.6 L 8.8 41.6 Z M 10.6 41.6 L 10.6 36.5 L 11.1 36.5 L 11.1 40 L 13.1 38 L 13.8 38 L 12.2 39.5 L 13.8 41.6 L 13.2 41.6 L 11.9 39.9 L 11.1 40.7 L 11.1 41.6 L 10.6 41.6 Z M 16.1 41.7 C 15.5 41.7 15.1 41.5 14.7 41.1 C 14.4 40.8 14.2 40.3 14.2 39.8 C 14.2 39.8 14.2 39.8 14.2 39.8 C 14.2 39.3 14.4 38.8 14.7 38.5 C 15.1 38.1 15.5 37.9 16.1 37.9 C 16.6 37.9 17.1 38.1 17.4 38.5 C 17.8 38.8 18 39.3 18 39.8 C 18 39.8 18 39.8 18 39.8 C 18 40.3 17.8 40.8 17.4 41.1 C 17.1 41.5 16.6 41.7 16.1 41.7 Z M 16.1 41.2 C 16.5 41.2 16.8 41.1 17 40.8 C 17.3 40.5 17.4 40.2 17.4 39.8 C 17.4 39.8 17.4 39.8 17.4 39.8 C 17.4 39.4 17.3 39.1 17 38.8 C 16.8 38.5 16.4 38.4 16.1 38.4 C 15.7 38.4 15.4 38.5 15.1 38.8 C 14.9 39.1 14.7 39.4 14.7 39.8 C 14.7 39.8 14.7 39.8 14.7 39.8 C 14.7 40.2 14.9 40.5 15.1 40.8 C 15.4 41.1 15.7 41.2 16.1 41.2 Z M 18.9 41.6 L 18.9 38 L 19.5 38 C 19.5 38 19.47 38.61 19.5 38.6 C 19.8 38.1 20.2 37.9 20.7 37.9 C 21.1 37.9 21.5 38 21.7 38.3 C 22 38.6 22.1 38.9 22.1 39.4 C 22.1 39.35 22.1 41.6 22.1 41.6 L 21.6 41.6 C 21.6 41.6 21.56 39.49 21.6 39.5 C 21.6 39.1 21.5 38.9 21.3 38.7 C 21.1 38.5 20.9 38.4 20.6 38.4 C 20.2 38.4 20 38.5 19.8 38.7 C 19.6 38.9 19.5 39.2 19.5 39.5 C 19.47 39.53 19.5 41.6 19.5 41.6 L 18.9 41.6 Z M 24.6 42.5 L 27.8 36 L 28.3 36 L 25.1 42.5 L 24.6 42.5 Z M 32.8 41.7 C 32 41.7 31.3 41.4 30.8 40.9 C 30.8 40.9 31.1 40.5 31.1 40.5 C 31.4 40.7 31.6 40.9 31.9 41 C 32.2 41.1 32.5 41.2 32.8 41.2 C 33.1 41.2 33.4 41.1 33.6 40.9 C 33.8 40.8 33.9 40.6 33.9 40.3 C 33.9 40.3 33.9 40.3 33.9 40.3 C 33.9 40.1 33.8 39.9 33.6 39.8 C 33.4 39.6 33.1 39.5 32.6 39.4 C 32 39.3 31.6 39.1 31.4 38.9 C 31.1 38.7 31 38.4 31 38 C 31 38 31 38 31 38 C 31 37.6 31.1 37.3 31.4 37 C 31.7 36.8 32.1 36.6 32.6 36.6 C 32.9 36.6 33.2 36.7 33.5 36.8 C 33.8 36.9 34 37 34.3 37.2 C 34.3 37.2 34 37.7 34 37.7 C 33.5 37.3 33.1 37.1 32.6 37.1 C 32.2 37.1 32 37.2 31.8 37.4 C 31.6 37.5 31.5 37.7 31.5 37.9 C 31.5 37.9 31.5 37.9 31.5 37.9 C 31.5 38.2 31.6 38.4 31.8 38.5 C 32 38.7 32.3 38.8 32.9 38.9 C 33.4 39 33.8 39.2 34.1 39.4 C 34.3 39.6 34.4 39.9 34.4 40.3 C 34.4 40.3 34.4 40.3 34.4 40.3 C 34.4 40.7 34.3 41 34 41.3 C 33.7 41.5 33.3 41.7 32.8 41.7 Z M 38.6 41 C 38.2 41.5 37.7 41.7 37.1 41.7 C 36.6 41.7 36.1 41.5 35.8 41.2 C 35.4 40.8 35.3 40.4 35.3 39.8 C 35.3 39.8 35.3 39.8 35.3 39.8 C 35.3 39.3 35.4 38.8 35.8 38.4 C 36.1 38.1 36.5 37.9 37 37.9 C 37.5 37.9 37.9 38.1 38.2 38.4 C 38.5 38.8 38.7 39.3 38.7 39.8 C 38.7 39.9 38.7 39.9 38.7 40 C 38.7 40 35.8 40 35.8 40 C 35.8 40.4 36 40.7 36.2 40.9 C 36.5 41.1 36.7 41.2 37.1 41.2 C 37.5 41.2 37.9 41 38.2 40.7 C 38.22 40.7 38.6 41 38.6 41 C 38.6 41 38.56 41 38.6 41 Z M 35.8 39.6 C 35.8 39.6 38.1 39.6 38.1 39.6 C 38.1 39.2 38 38.9 37.8 38.7 C 37.6 38.5 37.3 38.4 37 38.4 C 36.7 38.4 36.4 38.5 36.2 38.7 C 36 38.9 35.8 39.2 35.8 39.6 Z M 39.6 41.6 L 39.6 38 L 40.2 38 C 40.2 38 40.17 38.93 40.2 38.9 C 40.3 38.6 40.5 38.4 40.8 38.2 C 41 38 41.3 37.9 41.6 37.9 C 41.64 37.92 41.6 38.5 41.6 38.5 C 41.6 38.5 41.6 38.5 41.6 38.5 C 41.2 38.5 40.8 38.6 40.6 38.9 C 40.3 39.2 40.2 39.6 40.2 40.2 C 40.17 40.16 40.2 41.6 40.2 41.6 L 39.6 41.6 Z M 44.7 41.1 C 44.4 41.5 43.9 41.7 43.4 41.7 C 43 41.7 42.7 41.6 42.4 41.4 C 42.1 41.2 42 40.9 42 40.5 C 42 40.5 42 40.5 42 40.5 C 42 40.2 42.2 39.9 42.4 39.7 C 42.7 39.5 43.1 39.4 43.6 39.4 C 43.9 39.4 44.3 39.4 44.7 39.5 C 44.7 39.5 44.7 39.4 44.7 39.4 C 44.7 39.1 44.6 38.8 44.4 38.7 C 44.2 38.5 43.9 38.4 43.6 38.4 C 43.2 38.4 42.9 38.5 42.5 38.7 C 42.5 38.7 42.3 38.2 42.3 38.2 C 42.8 38 43.2 37.9 43.7 37.9 C 44.2 37.9 44.6 38.1 44.8 38.3 C 45.1 38.6 45.2 38.9 45.2 39.4 C 45.19 39.39 45.2 41.6 45.2 41.6 L 44.7 41.6 L 44.7 41.1 C 44.7 41.1 44.67 41.05 44.7 41.1 Z M 43.5 41.2 C 43.8 41.2 44.1 41.2 44.3 41 C 44.6 40.8 44.7 40.6 44.7 40.3 C 44.7 40.3 44.7 39.9 44.7 39.9 C 44.3 39.8 44 39.8 43.6 39.8 C 43.3 39.8 43 39.8 42.8 40 C 42.7 40.1 42.6 40.3 42.6 40.5 C 42.6 40.5 42.6 40.5 42.6 40.5 C 42.6 40.7 42.6 40.9 42.8 41.1 C 43 41.2 43.2 41.2 43.5 41.2 Z M 46.3 41.6 L 46.3 38 L 46.9 38 C 46.9 38 46.88 38.59 46.9 38.6 C 47 38.4 47.2 38.2 47.4 38.1 C 47.5 38 47.8 37.9 48 37.9 C 48.6 37.9 49 38.1 49.2 38.6 C 49.5 38.1 50 37.9 50.5 37.9 C 50.9 37.9 51.2 38 51.5 38.3 C 51.7 38.6 51.8 38.9 51.8 39.4 C 51.83 39.36 51.8 41.6 51.8 41.6 L 51.3 41.6 C 51.3 41.6 51.29 39.49 51.3 39.5 C 51.3 39.1 51.2 38.9 51 38.7 C 50.9 38.5 50.6 38.4 50.4 38.4 C 50.1 38.4 49.8 38.5 49.6 38.7 C 49.4 38.9 49.3 39.2 49.3 39.5 C 49.35 39.51 49.3 41.6 49.3 41.6 L 48.8 41.6 C 48.8 41.6 48.82 39.47 48.8 39.5 C 48.8 39.1 48.7 38.9 48.6 38.7 C 48.4 38.5 48.2 38.4 47.9 38.4 C 47.6 38.4 47.4 38.5 47.2 38.7 C 47 38.9 46.9 39.2 46.9 39.5 C 46.88 39.53 46.9 41.6 46.9 41.6 L 46.3 41.6 Z M 53 37.2 L 53 36.6 L 53.6 36.6 L 53.6 37.2 L 53 37.2 Z M 53 41.6 L 53 38 L 53.6 38 L 53.6 41.6 L 53 41.6 Z M 54.8 41.6 L 54.8 36.5 L 55.4 36.5 L 55.4 40 L 57.3 38 L 58 38 L 56.5 39.5 L 58 41.6 L 57.4 41.6 L 56.1 39.9 L 55.4 40.7 L 55.4 41.6 L 54.8 41.6 Z M 60.2 42.5 L 63.4 36 L 63.9 36 L 60.6 42.5 L 60.2 42.5 Z M 66.2 41.6 L 68.5 36.7 L 69 36.7 L 71.2 41.6 L 70.6 41.6 L 70 40.3 L 67.4 40.3 L 66.8 41.6 L 66.2 41.6 Z M 67.6 39.8 L 69.8 39.8 L 68.7 37.3 L 67.6 39.8 Z M 72.2 41.6 L 72.2 36.7 C 72.2 36.7 74.26 36.7 74.3 36.7 C 74.8 36.7 75.2 36.8 75.5 37.1 C 75.8 37.3 75.9 37.6 75.9 37.9 C 75.9 37.9 75.9 37.9 75.9 37.9 C 75.9 38.5 75.6 38.8 75.1 39.1 C 75.8 39.3 76.1 39.7 76.1 40.2 C 76.1 40.2 76.1 40.3 76.1 40.3 C 76.1 40.7 76 41 75.6 41.2 C 75.3 41.5 74.9 41.6 74.4 41.6 C 74.35 41.6 72.2 41.6 72.2 41.6 Z M 75.3 38 C 75.3 38 75.3 38 75.3 38 C 75.3 37.7 75.2 37.6 75 37.4 C 74.8 37.3 74.6 37.2 74.2 37.2 C 74.21 37.2 72.7 37.2 72.7 37.2 L 72.7 38.9 C 72.7 38.9 74.17 38.88 74.2 38.9 C 74.5 38.9 74.8 38.8 75 38.7 C 75.2 38.5 75.3 38.3 75.3 38 Z M 75.6 40.2 C 75.6 40.2 75.6 40.2 75.6 40.2 C 75.6 39.9 75.5 39.7 75.2 39.6 C 75 39.4 74.7 39.4 74.3 39.4 C 74.27 39.37 72.7 39.4 72.7 39.4 L 72.7 41.1 C 72.7 41.1 74.37 41.1 74.4 41.1 C 74.7 41.1 75 41 75.3 40.9 C 75.5 40.7 75.6 40.5 75.6 40.2 Z M 78.9 41.7 C 78.2 41.7 77.5 41.4 76.9 40.9 C 76.9 40.9 77.3 40.5 77.3 40.5 C 77.5 40.7 77.8 40.9 78 41 C 78.3 41.1 78.6 41.2 78.9 41.2 C 79.3 41.2 79.5 41.1 79.7 40.9 C 79.9 40.8 80 40.6 80 40.3 C 80 40.3 80 40.3 80 40.3 C 80 40.1 79.9 39.9 79.8 39.8 C 79.6 39.6 79.2 39.5 78.7 39.4 C 78.2 39.3 77.8 39.1 77.5 38.9 C 77.2 38.7 77.1 38.4 77.1 38 C 77.1 38 77.1 38 77.1 38 C 77.1 37.6 77.3 37.3 77.6 37 C 77.9 36.8 78.3 36.6 78.7 36.6 C 79.1 36.6 79.4 36.7 79.6 36.8 C 79.9 36.9 80.2 37 80.4 37.2 C 80.4 37.2 80.1 37.7 80.1 37.7 C 79.7 37.3 79.2 37.1 78.7 37.1 C 78.4 37.1 78.1 37.2 77.9 37.4 C 77.8 37.5 77.7 37.7 77.7 37.9 C 77.7 37.9 77.7 37.9 77.7 37.9 C 77.7 38.2 77.7 38.4 77.9 38.5 C 78.1 38.7 78.5 38.8 79 38.9 C 79.5 39 79.9 39.2 80.2 39.4 C 80.5 39.6 80.6 39.9 80.6 40.3 C 80.6 40.3 80.6 40.3 80.6 40.3 C 80.6 40.7 80.4 41 80.1 41.3 C 79.8 41.5 79.4 41.7 78.9 41.7 Z " stroke="none" fill="#000"/>  </g>  <g id="Polygon378446">    <path d="M 0.7 23.6 L 0.7 18.7 C 0.7 18.7 2.8 18.7 2.8 18.7 C 3.4 18.7 3.9 18.9 4.2 19.2 C 4.4 19.4 4.6 19.8 4.6 20.2 C 4.6 20.2 4.6 20.2 4.6 20.2 C 4.6 20.6 4.4 20.9 4.2 21.1 C 4 21.4 3.6 21.5 3.2 21.6 C 3.24 21.6 4.7 23.6 4.7 23.6 L 4.1 23.6 L 2.6 21.7 L 1.2 21.7 L 1.2 23.6 L 0.7 23.6 Z M 1.2 21.2 C 1.2 21.2 2.75 21.2 2.8 21.2 C 3.1 21.2 3.4 21.1 3.7 20.9 C 3.9 20.7 4 20.5 4 20.2 C 4 20.2 4 20.2 4 20.2 C 4 19.9 3.9 19.6 3.7 19.5 C 3.5 19.3 3.2 19.2 2.8 19.2 C 2.76 19.21 1.2 19.2 1.2 19.2 L 1.2 21.2 Z M 8.7 23 C 8.3 23.5 7.8 23.7 7.2 23.7 C 6.7 23.7 6.2 23.5 5.9 23.2 C 5.5 22.8 5.4 22.4 5.4 21.8 C 5.4 21.8 5.4 21.8 5.4 21.8 C 5.4 21.3 5.5 20.8 5.9 20.4 C 6.2 20.1 6.6 19.9 7.1 19.9 C 7.6 19.9 8 20.1 8.3 20.4 C 8.6 20.8 8.8 21.3 8.8 21.8 C 8.8 21.9 8.8 21.9 8.8 22 C 8.8 22 5.9 22 5.9 22 C 6 22.4 6.1 22.7 6.3 22.9 C 6.6 23.1 6.9 23.2 7.2 23.2 C 7.6 23.2 8 23 8.3 22.7 C 8.33 22.7 8.7 23 8.7 23 C 8.7 23 8.67 23 8.7 23 Z M 5.9 21.6 C 5.9 21.6 8.2 21.6 8.2 21.6 C 8.2 21.2 8.1 20.9 7.9 20.7 C 7.7 20.5 7.4 20.4 7.1 20.4 C 6.8 20.4 6.5 20.5 6.3 20.7 C 6.1 20.9 6 21.2 5.9 21.6 Z M 9.7 23.6 L 9.7 20 L 10.3 20 C 10.3 20 10.28 20.61 10.3 20.6 C 10.6 20.1 11 19.9 11.5 19.9 C 11.9 19.9 12.3 20 12.5 20.3 C 12.8 20.6 12.9 20.9 12.9 21.4 C 12.9 21.35 12.9 23.6 12.9 23.6 L 12.4 23.6 C 12.4 23.6 12.36 21.49 12.4 21.5 C 12.4 21.1 12.3 20.9 12.1 20.7 C 11.9 20.5 11.7 20.4 11.4 20.4 C 11 20.4 10.8 20.5 10.6 20.7 C 10.4 20.9 10.3 21.2 10.3 21.5 C 10.28 21.53 10.3 23.6 10.3 23.6 L 9.7 23.6 Z M 14 23.6 L 14 18.5 L 14.6 18.5 L 14.6 22 L 16.5 20 L 17.2 20 L 15.7 21.5 L 17.3 23.6 L 16.6 23.6 L 15.3 21.9 L 14.6 22.7 L 14.6 23.6 L 14 23.6 Z M 18 20.7 L 18 20 L 18.6 20 L 18.6 20.7 L 18 20.7 Z M 18 23.6 L 18 22.9 L 18.6 22.9 L 18.6 23.6 L 18 23.6 Z M 23.3 23.6 L 23.3 19.2 L 21.6 19.2 L 21.6 18.7 L 25.5 18.7 L 25.5 19.2 L 23.8 19.2 L 23.8 23.6 L 23.3 23.6 Z M 27.9 23.1 C 27.6 23.5 27.2 23.7 26.6 23.7 C 26.2 23.7 25.9 23.6 25.7 23.4 C 25.4 23.2 25.3 22.9 25.3 22.5 C 25.3 22.5 25.3 22.5 25.3 22.5 C 25.3 22.2 25.4 21.9 25.7 21.7 C 26 21.5 26.3 21.4 26.8 21.4 C 27.2 21.4 27.5 21.4 27.9 21.5 C 27.9 21.5 27.9 21.4 27.9 21.4 C 27.9 21.1 27.8 20.8 27.6 20.7 C 27.5 20.5 27.2 20.4 26.8 20.4 C 26.5 20.4 26.1 20.5 25.7 20.7 C 25.7 20.7 25.6 20.2 25.6 20.2 C 26 20 26.4 19.9 26.9 19.9 C 27.4 19.9 27.8 20.1 28.1 20.3 C 28.3 20.6 28.4 20.9 28.4 21.4 C 28.44 21.39 28.4 23.6 28.4 23.6 L 27.9 23.6 L 27.9 23.1 C 27.9 23.1 27.92 23.05 27.9 23.1 Z M 26.7 23.2 C 27.1 23.2 27.3 23.2 27.6 23 C 27.8 22.8 27.9 22.6 27.9 22.3 C 27.9 22.3 27.9 21.9 27.9 21.9 C 27.6 21.8 27.2 21.8 26.9 21.8 C 26.5 21.8 26.3 21.8 26.1 22 C 25.9 22.1 25.8 22.3 25.8 22.5 C 25.8 22.5 25.8 22.5 25.8 22.5 C 25.8 22.7 25.9 22.9 26.1 23.1 C 26.3 23.2 26.5 23.2 26.7 23.2 Z M 32.2 23 C 31.9 23.4 31.5 23.7 30.9 23.7 C 30.5 23.7 30.2 23.5 29.9 23.3 C 29.7 23 29.5 22.7 29.5 22.2 C 29.53 22.23 29.5 20 29.5 20 L 30.1 20 C 30.1 20 30.07 22.09 30.1 22.1 C 30.1 22.4 30.2 22.7 30.3 22.9 C 30.5 23.1 30.8 23.2 31.1 23.2 C 31.4 23.2 31.6 23.1 31.8 22.9 C 32.1 22.7 32.2 22.4 32.2 22.1 C 32.16 22.05 32.2 20 32.2 20 L 32.7 20 L 32.7 23.6 L 32.2 23.6 L 32.2 23 C 32.2 23 32.16 22.97 32.2 23 Z M 33.9 24.7 L 33.9 20 L 34.4 20 C 34.4 20 34.44 20.71 34.4 20.7 C 34.8 20.2 35.3 19.9 35.8 19.9 C 36.3 19.9 36.7 20.1 37 20.4 C 37.4 20.8 37.6 21.2 37.6 21.8 C 37.6 21.8 37.6 21.8 37.6 21.8 C 37.6 22.4 37.4 22.8 37 23.2 C 36.7 23.5 36.3 23.7 35.8 23.7 C 35.3 23.7 34.8 23.4 34.4 22.9 C 34.44 22.91 34.4 24.7 34.4 24.7 L 33.9 24.7 Z M 35.7 23.2 C 36.1 23.2 36.4 23.1 36.6 22.8 C 36.9 22.6 37 22.2 37 21.8 C 37 21.8 37 21.8 37 21.8 C 37 21.4 36.9 21 36.6 20.8 C 36.4 20.5 36.1 20.4 35.7 20.4 C 35.4 20.4 35.1 20.5 34.8 20.8 C 34.6 21.1 34.4 21.4 34.4 21.8 C 34.4 21.8 34.4 21.8 34.4 21.8 C 34.4 22.2 34.5 22.5 34.8 22.8 C 35.1 23.1 35.4 23.2 35.7 23.2 Z M 41.6 23 C 41.2 23.5 40.7 23.7 40.1 23.7 C 39.6 23.7 39.2 23.5 38.8 23.2 C 38.5 22.8 38.3 22.4 38.3 21.8 C 38.3 21.8 38.3 21.8 38.3 21.8 C 38.3 21.3 38.5 20.8 38.8 20.4 C 39.1 20.1 39.6 19.9 40.1 19.9 C 40.6 19.9 41 20.1 41.3 20.4 C 41.6 20.8 41.7 21.3 41.7 21.8 C 41.7 21.9 41.7 21.9 41.7 22 C 41.7 22 38.9 22 38.9 22 C 38.9 22.4 39 22.7 39.3 22.9 C 39.5 23.1 39.8 23.2 40.1 23.2 C 40.6 23.2 41 23 41.3 22.7 C 41.29 22.7 41.6 23 41.6 23 C 41.6 23 41.62 23 41.6 23 Z M 38.9 21.6 C 38.9 21.6 41.2 21.6 41.2 21.6 C 41.2 21.2 41.1 20.9 40.9 20.7 C 40.7 20.5 40.4 20.4 40 20.4 C 39.7 20.4 39.5 20.5 39.3 20.7 C 39 20.9 38.9 21.2 38.9 21.6 Z " stroke="none" fill="#000"/>  </g>  <g id="Polygon378445">    <path d="M 3 9.3 L 3 8.6 L 3.6 8.6 L 3.6 9.3 L 3 9.3 Z M 1.7 9.3 L 1.7 8.6 L 2.3 8.6 L 2.3 9.3 L 1.7 9.3 Z M 2.7 14.7 C 2 14.7 1.5 14.5 1.2 14.1 C 0.8 13.7 0.6 13.2 0.6 12.5 C 0.62 12.55 0.6 9.7 0.6 9.7 L 1.2 9.7 C 1.2 9.7 1.17 12.51 1.2 12.5 C 1.2 13 1.3 13.4 1.6 13.7 C 1.8 14 2.2 14.2 2.7 14.2 C 3.1 14.2 3.5 14 3.8 13.8 C 4 13.5 4.1 13.1 4.1 12.5 C 4.14 12.55 4.1 9.7 4.1 9.7 L 4.7 9.7 C 4.7 9.7 4.7 12.51 4.7 12.5 C 4.7 13.2 4.5 13.7 4.1 14.1 C 3.8 14.5 3.3 14.7 2.7 14.7 Z M 5.9 14.6 L 5.9 11 L 6.5 11 C 6.5 11 6.45 11.93 6.5 11.9 C 6.6 11.6 6.8 11.4 7 11.2 C 7.3 11 7.6 10.9 7.9 10.9 C 7.93 10.92 7.9 11.5 7.9 11.5 C 7.9 11.5 7.89 11.5 7.9 11.5 C 7.5 11.5 7.1 11.6 6.9 11.9 C 6.6 12.2 6.5 12.6 6.5 13.2 C 6.45 13.16 6.5 14.6 6.5 14.6 L 5.9 14.6 Z M 10.6 10.4 L 10.6 9.8 L 11.2 9.8 L 11.2 10.4 L 10.6 10.4 Z M 9.3 10.4 L 9.3 9.8 L 10 9.8 L 10 10.4 L 9.3 10.4 Z M 11.3 14 C 11 14.4 10.6 14.7 10.1 14.7 C 9.7 14.7 9.3 14.5 9.1 14.3 C 8.8 14 8.7 13.7 8.7 13.2 C 8.69 13.23 8.7 11 8.7 11 L 9.2 11 C 9.2 11 9.23 13.09 9.2 13.1 C 9.2 13.4 9.3 13.7 9.5 13.9 C 9.7 14.1 9.9 14.2 10.2 14.2 C 10.5 14.2 10.8 14.1 11 13.9 C 11.2 13.7 11.3 13.4 11.3 13.1 C 11.32 13.05 11.3 11 11.3 11 L 11.9 11 L 11.9 14.6 L 11.3 14.6 L 11.3 14 C 11.3 14 11.32 13.97 11.3 14 Z M 13.1 14.6 L 13.1 11 L 13.6 11 C 13.6 11 13.6 11.61 13.6 11.6 C 13.9 11.1 14.3 10.9 14.8 10.9 C 15.3 10.9 15.6 11 15.9 11.3 C 16.1 11.6 16.2 11.9 16.2 12.4 C 16.23 12.35 16.2 14.6 16.2 14.6 L 15.7 14.6 C 15.7 14.6 15.69 12.49 15.7 12.5 C 15.7 12.1 15.6 11.9 15.4 11.7 C 15.2 11.5 15 11.4 14.7 11.4 C 14.4 11.4 14.1 11.5 13.9 11.7 C 13.7 11.9 13.6 12.2 13.6 12.5 C 13.6 12.53 13.6 14.6 13.6 14.6 L 13.1 14.6 Z M 19.6 14.6 L 19.6 9.7 L 20.1 9.7 L 20.1 12.6 L 22.9 9.7 L 23.7 9.7 L 21.5 11.8 L 23.7 14.6 L 23 14.6 L 21.2 12.2 L 20.1 13.3 L 20.1 14.6 L 19.6 14.6 Z M 25.9 14.7 C 25.4 14.7 25 14.5 24.6 14.1 C 24.3 13.8 24.1 13.3 24.1 12.8 C 24.1 12.8 24.1 12.8 24.1 12.8 C 24.1 12.3 24.3 11.8 24.6 11.5 C 25 11.1 25.4 10.9 26 10.9 C 26.5 10.9 26.9 11.1 27.3 11.5 C 27.7 11.8 27.8 12.3 27.8 12.8 C 27.8 12.8 27.8 12.8 27.8 12.8 C 27.8 13.3 27.7 13.8 27.3 14.1 C 26.9 14.5 26.5 14.7 25.9 14.7 Z M 26 14.2 C 26.3 14.2 26.7 14.1 26.9 13.8 C 27.2 13.5 27.3 13.2 27.3 12.8 C 27.3 12.8 27.3 12.8 27.3 12.8 C 27.3 12.4 27.2 12.1 26.9 11.8 C 26.6 11.5 26.3 11.4 25.9 11.4 C 25.6 11.4 25.2 11.5 25 11.8 C 24.8 12.1 24.6 12.4 24.6 12.8 C 24.6 12.8 24.6 12.8 24.6 12.8 C 24.6 13.2 24.8 13.5 25 13.8 C 25.3 14.1 25.6 14.2 26 14.2 Z M 31.7 13.9 C 31.4 14.4 30.9 14.7 30.3 14.7 C 29.9 14.7 29.5 14.5 29.1 14.2 C 28.8 13.8 28.6 13.4 28.6 12.8 C 28.6 12.8 28.6 12.8 28.6 12.8 C 28.6 12.2 28.8 11.8 29.1 11.4 C 29.5 11.1 29.9 10.9 30.3 10.9 C 30.9 10.9 31.4 11.2 31.7 11.7 C 31.72 11.67 31.7 9.5 31.7 9.5 L 32.3 9.5 L 32.3 14.6 L 31.7 14.6 L 31.7 13.9 C 31.7 13.9 31.72 13.87 31.7 13.9 Z M 30.4 14.2 C 30.8 14.2 31.1 14.1 31.4 13.8 C 31.6 13.5 31.7 13.2 31.7 12.8 C 31.7 12.8 31.7 12.8 31.7 12.8 C 31.7 12.4 31.6 12 31.4 11.8 C 31.1 11.5 30.8 11.4 30.4 11.4 C 30.1 11.4 29.8 11.5 29.5 11.8 C 29.3 12 29.2 12.4 29.2 12.8 C 29.2 12.8 29.2 12.8 29.2 12.8 C 29.2 13.2 29.3 13.6 29.5 13.8 C 29.8 14.1 30.1 14.2 30.4 14.2 Z M 36 14 C 35.7 14.4 35.3 14.7 34.8 14.7 C 34.4 14.7 34 14.5 33.8 14.3 C 33.5 14 33.4 13.7 33.4 13.2 C 33.41 13.23 33.4 11 33.4 11 L 33.9 11 C 33.9 11 33.95 13.09 33.9 13.1 C 33.9 13.4 34 13.7 34.2 13.9 C 34.4 14.1 34.6 14.2 35 14.2 C 35.3 14.2 35.5 14.1 35.7 13.9 C 35.9 13.7 36 13.4 36 13.1 C 36.04 13.05 36 11 36 11 L 36.6 11 L 36.6 14.6 L 36 14.6 L 36 14 C 36 14 36.04 13.97 36 14 Z M 37.7 11.7 L 37.7 11 L 38.4 11 L 38.4 11.7 L 37.7 11.7 Z M 37.7 14.6 L 37.7 13.9 L 38.4 13.9 L 38.4 14.6 L 37.7 14.6 Z M 41.5 14.6 L 41.5 13.8 L 44.2 10.6 L 41.6 10.6 L 41.6 9.7 L 45.6 9.7 L 45.6 10.5 L 42.9 13.7 L 45.6 13.7 L 45.6 14.6 L 41.5 14.6 Z M 46.6 14.6 L 46.6 9.7 C 46.6 9.7 48.51 9.7 48.5 9.7 C 49.3 9.7 49.9 9.9 50.4 10.4 C 50.9 10.9 51.1 11.4 51.1 12.1 C 51.1 12.1 51.1 12.1 51.1 12.1 C 51.1 12.8 50.9 13.4 50.4 13.9 C 49.9 14.4 49.3 14.6 48.5 14.6 C 48.51 14.6 46.6 14.6 46.6 14.6 Z M 48.5 10.7 C 48.51 10.67 47.7 10.7 47.7 10.7 L 47.7 13.6 C 47.7 13.6 48.51 13.63 48.5 13.6 C 48.9 13.6 49.3 13.5 49.6 13.2 C 49.8 13 50 12.6 50 12.2 C 50 12.2 50 12.1 50 12.1 C 50 11.7 49.8 11.4 49.6 11.1 C 49.3 10.8 48.9 10.7 48.5 10.7 Z M 53.9 14.6 L 53.9 13.7 C 53.9 13.7 55.56 12.41 55.6 12.4 C 55.9 12.1 56.1 11.9 56.2 11.8 C 56.3 11.6 56.4 11.4 56.4 11.2 C 56.4 11 56.3 10.9 56.2 10.8 C 56.1 10.7 55.9 10.6 55.7 10.6 C 55.6 10.6 55.4 10.6 55.3 10.7 C 55.1 10.8 54.9 11 54.7 11.3 C 54.7 11.3 54 10.6 54 10.6 C 54.3 10.3 54.5 10 54.8 9.9 C 55.1 9.7 55.4 9.6 55.8 9.6 C 56.3 9.6 56.7 9.8 57 10 C 57.3 10.3 57.5 10.7 57.5 11.1 C 57.5 11.1 57.5 11.2 57.5 11.2 C 57.5 11.5 57.4 11.9 57.2 12.1 C 57 12.4 56.7 12.7 56.2 13.1 C 56.22 13.05 55.4 13.7 55.4 13.7 L 57.6 13.7 L 57.6 14.6 L 53.9 14.6 Z M 60.2 14.7 C 59.6 14.7 59.1 14.5 58.8 14.3 C 58.4 14 58.3 13.7 58.3 13.3 C 58.3 13.3 58.3 13.2 58.3 13.2 C 58.3 13 58.3 12.7 58.5 12.5 C 58.6 12.3 58.8 12.2 59.1 12.1 C 58.6 11.8 58.4 11.5 58.4 11 C 58.4 11 58.4 11 58.4 11 C 58.4 10.6 58.6 10.3 58.9 10 C 59.2 9.8 59.6 9.6 60.2 9.6 C 60.7 9.6 61.1 9.8 61.4 10 C 61.7 10.3 61.9 10.6 61.9 11 C 61.9 11 61.9 11 61.9 11 C 61.9 11.5 61.7 11.8 61.2 12.1 C 61.5 12.2 61.7 12.4 61.8 12.5 C 62 12.7 62 12.9 62 13.2 C 62 13.2 62 13.2 62 13.2 C 62 13.7 61.9 14 61.5 14.3 C 61.2 14.5 60.7 14.7 60.2 14.7 Z M 59.5 11.1 C 59.5 11.3 59.5 11.4 59.6 11.5 C 59.8 11.6 59.9 11.7 60.2 11.7 C 60.4 11.7 60.5 11.6 60.7 11.5 C 60.8 11.4 60.9 11.3 60.9 11.1 C 60.9 11.1 60.9 11.1 60.9 11.1 C 60.9 10.9 60.8 10.8 60.7 10.7 C 60.5 10.6 60.4 10.5 60.2 10.5 C 59.9 10.5 59.8 10.6 59.6 10.7 C 59.5 10.8 59.5 10.9 59.5 11.1 C 59.45 11.09 59.5 11.1 59.5 11.1 C 59.5 11.1 59.45 11.1 59.5 11.1 Z M 60.2 13.8 C 60.4 13.8 60.6 13.7 60.8 13.6 C 60.9 13.5 61 13.3 61 13.2 C 61 13.2 61 13.2 61 13.2 C 61 13 60.9 12.8 60.8 12.7 C 60.6 12.6 60.4 12.6 60.2 12.6 C 59.9 12.6 59.7 12.6 59.5 12.7 C 59.4 12.8 59.3 13 59.3 13.2 C 59.3 13.2 59.3 13.2 59.3 13.2 C 59.3 13.3 59.4 13.5 59.5 13.6 C 59.7 13.7 59.9 13.8 60.2 13.8 Z M 64.9 14.7 C 64.3 14.7 63.7 14.4 63.3 14 C 62.9 13.5 62.7 12.9 62.7 12.2 C 62.7 12.2 62.7 12.1 62.7 12.1 C 62.7 11.4 62.9 10.8 63.3 10.3 C 63.7 9.9 64.3 9.6 64.9 9.6 C 65.6 9.6 66.1 9.9 66.5 10.3 C 66.9 10.8 67.1 11.4 67.1 12.1 C 67.1 12.1 67.1 12.1 67.1 12.1 C 67.1 12.9 66.9 13.5 66.5 14 C 66.1 14.4 65.5 14.7 64.9 14.7 Z M 63.8 12.1 C 63.8 12.6 63.9 13 64.1 13.3 C 64.3 13.6 64.6 13.7 64.9 13.7 C 65.2 13.7 65.5 13.6 65.7 13.3 C 65.9 13 66 12.6 66 12.2 C 66 12.2 66 12.1 66 12.1 C 66 11.7 65.9 11.3 65.7 11 C 65.5 10.7 65.2 10.6 64.9 10.6 C 64.6 10.6 64.3 10.7 64.1 11 C 63.9 11.3 63.8 11.7 63.8 12.1 C 63.84 12.14 63.8 12.1 63.8 12.1 C 63.8 12.1 63.84 12.15 63.8 12.1 Z M 67.9 14.6 L 70.1 10.6 L 67.8 10.6 L 67.8 9.7 L 71.3 9.7 L 71.3 10.5 L 69.1 14.6 L 67.9 14.6 Z M 73.8 14.7 C 73.2 14.7 72.8 14.5 72.4 14.3 C 72 14 71.9 13.7 71.9 13.3 C 71.9 13.3 71.9 13.2 71.9 13.2 C 71.9 13 71.9 12.7 72.1 12.5 C 72.2 12.3 72.4 12.2 72.7 12.1 C 72.2 11.8 72 11.5 72 11 C 72 11 72 11 72 11 C 72 10.6 72.2 10.3 72.5 10 C 72.8 9.8 73.2 9.6 73.8 9.6 C 74.3 9.6 74.7 9.8 75 10 C 75.3 10.3 75.5 10.6 75.5 11 C 75.5 11 75.5 11 75.5 11 C 75.5 11.5 75.3 11.8 74.9 12.1 C 75.1 12.2 75.3 12.4 75.5 12.5 C 75.6 12.7 75.6 12.9 75.6 13.2 C 75.6 13.2 75.6 13.2 75.6 13.2 C 75.6 13.7 75.5 14 75.1 14.3 C 74.8 14.5 74.3 14.7 73.8 14.7 Z M 73.1 11.1 C 73.1 11.3 73.1 11.4 73.3 11.5 C 73.4 11.6 73.5 11.7 73.8 11.7 C 74 11.7 74.1 11.6 74.3 11.5 C 74.4 11.4 74.5 11.3 74.5 11.1 C 74.5 11.1 74.5 11.1 74.5 11.1 C 74.5 10.9 74.4 10.8 74.3 10.7 C 74.1 10.6 74 10.5 73.8 10.5 C 73.5 10.5 73.4 10.6 73.2 10.7 C 73.1 10.8 73.1 10.9 73.1 11.1 C 73.06 11.09 73.1 11.1 73.1 11.1 C 73.1 11.1 73.06 11.1 73.1 11.1 Z M 73.8 13.8 C 74 13.8 74.2 13.7 74.4 13.6 C 74.5 13.5 74.6 13.3 74.6 13.2 C 74.6 13.2 74.6 13.2 74.6 13.2 C 74.6 13 74.5 12.8 74.4 12.7 C 74.2 12.6 74 12.6 73.8 12.6 C 73.5 12.6 73.3 12.6 73.1 12.7 C 73 12.8 72.9 13 72.9 13.2 C 72.9 13.2 72.9 13.2 72.9 13.2 C 72.9 13.3 73 13.5 73.1 13.6 C 73.3 13.7 73.5 13.8 73.8 13.8 Z " stroke="none" fill="#000"/>  </g>  <g id="Polygon378444">    <path d="M 0.6 5.6 L 0.6 0.7 C 0.6 0.7 2.86 0.7 2.9 0.7 C 3.4 0.7 3.9 0.8 4.1 1.1 C 4.4 1.4 4.5 1.6 4.5 2 C 4.5 2 4.5 2 4.5 2 C 4.5 2.5 4.3 2.8 3.8 3 C 4.1 3.2 4.4 3.3 4.5 3.5 C 4.7 3.7 4.8 3.9 4.8 4.2 C 4.8 4.2 4.8 4.3 4.8 4.3 C 4.8 4.7 4.6 5 4.3 5.3 C 3.9 5.5 3.5 5.6 2.9 5.6 C 2.92 5.6 0.6 5.6 0.6 5.6 Z M 2.6 2.7 C 3.2 2.7 3.4 2.5 3.4 2.2 C 3.4 2.2 3.4 2.1 3.4 2.1 C 3.4 1.8 3.2 1.6 2.7 1.6 C 2.7 1.64 1.6 1.6 1.6 1.6 L 1.6 2.7 L 2.6 2.7 C 2.6 2.7 2.63 2.68 2.6 2.7 Z M 2.9 4.7 C 3.4 4.7 3.7 4.5 3.7 4.1 C 3.7 4.1 3.7 4.1 3.7 4.1 C 3.7 3.8 3.4 3.6 2.9 3.6 C 2.88 3.58 1.6 3.6 1.6 3.6 L 1.6 4.7 L 2.9 4.7 C 2.9 4.7 2.92 4.65 2.9 4.7 Z M 7.9 5.1 C 7.6 5.5 7.2 5.7 6.8 5.7 C 6.4 5.7 6.1 5.5 5.8 5.3 C 5.6 5.1 5.5 4.7 5.5 4.3 C 5.5 4.28 5.5 1.8 5.5 1.8 L 6.6 1.8 C 6.6 1.8 6.57 3.94 6.6 3.9 C 6.6 4.4 6.8 4.7 7.2 4.7 C 7.4 4.7 7.6 4.6 7.7 4.5 C 7.8 4.4 7.9 4.2 7.9 3.9 C 7.87 3.94 7.9 1.8 7.9 1.8 L 8.9 1.8 L 8.9 5.6 L 7.9 5.6 L 7.9 5.1 C 7.9 5.1 7.87 5.07 7.9 5.1 Z M 9.9 5.6 L 9.9 0.5 L 11 0.5 L 11 5.6 L 9.9 5.6 Z M 14.2 5.2 C 13.9 5.5 13.5 5.7 13.1 5.7 C 12.7 5.7 12.4 5.6 12.1 5.4 C 11.9 5.2 11.8 4.9 11.8 4.5 C 11.8 4.5 11.8 4.5 11.8 4.5 C 11.8 4.1 11.9 3.8 12.2 3.6 C 12.5 3.4 12.8 3.3 13.3 3.3 C 13.6 3.3 13.9 3.4 14.2 3.5 C 14.2 3.5 14.2 3.4 14.2 3.4 C 14.2 2.9 13.9 2.7 13.4 2.7 C 13.1 2.7 12.7 2.8 12.4 2.9 C 12.4 2.9 12.1 2.1 12.1 2.1 C 12.6 1.9 13.1 1.8 13.6 1.8 C 14.1 1.8 14.5 1.9 14.8 2.2 C 15.1 2.5 15.2 2.9 15.2 3.4 C 15.23 3.42 15.2 5.6 15.2 5.6 L 14.2 5.6 L 14.2 5.2 C 14.2 5.2 14.2 5.19 14.2 5.2 Z M 13.4 4.9 C 13.6 4.9 13.8 4.9 14 4.8 C 14.1 4.6 14.2 4.5 14.2 4.3 C 14.2 4.3 14.2 4.1 14.2 4.1 C 14 4 13.8 3.9 13.5 3.9 C 13.3 3.9 13.1 4 13 4.1 C 12.9 4.2 12.8 4.3 12.8 4.5 C 12.8 4.5 12.8 4.5 12.8 4.5 C 12.8 4.6 12.9 4.7 13 4.8 C 13.1 4.9 13.2 4.9 13.4 4.9 Z M 17.3 6.8 L 16.4 6.4 C 16.4 6.4 17 5.62 17 5.6 C 16.6 5.5 16.2 5.4 15.9 5.1 C 15.9 5.1 16.3 4.4 16.3 4.4 C 16.7 4.7 17.1 4.9 17.5 4.9 C 17.8 4.9 17.9 4.8 17.9 4.6 C 17.9 4.6 17.9 4.6 17.9 4.6 C 17.9 4.5 17.9 4.5 17.9 4.5 C 17.9 4.4 17.9 4.4 17.9 4.4 C 17.8 4.4 17.8 4.4 17.8 4.3 C 17.7 4.3 17.7 4.3 17.6 4.3 C 17.6 4.3 17.5 4.2 17.5 4.2 C 17.5 4.2 17.4 4.2 17.3 4.2 C 17.3 4.2 17.2 4.1 17.2 4.1 C 17 4.1 16.9 4 16.8 4 C 16.6 3.9 16.5 3.9 16.4 3.8 C 16.3 3.7 16.2 3.6 16.1 3.5 C 16.1 3.3 16 3.2 16 3 C 16 3 16 3 16 3 C 16 2.6 16.2 2.3 16.4 2.1 C 16.7 1.9 17 1.8 17.4 1.8 C 17.9 1.8 18.4 1.9 18.8 2.2 C 18.8 2.2 18.4 3 18.4 3 C 18 2.7 17.7 2.6 17.4 2.6 C 17.3 2.6 17.2 2.6 17.1 2.7 C 17 2.7 17 2.8 17 2.9 C 17 2.9 17 2.9 17 2.9 C 17 3 17.1 3 17.2 3.1 C 17.3 3.2 17.5 3.3 17.8 3.3 C 17.9 3.4 18.1 3.4 18.2 3.5 C 18.3 3.5 18.4 3.6 18.5 3.7 C 18.6 3.8 18.7 3.9 18.8 4 C 18.9 4.1 18.9 4.3 18.9 4.4 C 18.9 4.4 18.9 4.5 18.9 4.5 C 18.9 4.8 18.8 5.1 18.6 5.3 C 18.4 5.5 18.1 5.6 17.8 5.6 C 17.79 5.65 17.3 6.8 17.3 6.8 Z M 19.7 5.6 L 19.7 1.8 L 20.8 1.8 L 20.8 5.6 L 19.7 5.6 Z M 21.8 5.6 L 21.8 0.5 L 22.8 0.5 L 22.8 3.2 L 24.1 1.8 L 25.4 1.8 L 23.9 3.3 L 25.4 5.6 L 24.2 5.6 L 23.2 4.1 L 22.8 4.5 L 22.8 5.6 L 21.8 5.6 Z M 29.9 5.7 C 29.1 5.7 28.4 5.4 27.8 4.9 C 27.8 4.9 28.4 4.1 28.4 4.1 C 28.9 4.5 29.4 4.7 29.9 4.7 C 30.1 4.7 30.3 4.7 30.4 4.6 C 30.5 4.5 30.6 4.4 30.6 4.3 C 30.6 4.3 30.6 4.2 30.6 4.2 C 30.6 4.1 30.5 4 30.4 3.9 C 30.3 3.8 30 3.7 29.6 3.6 C 29.3 3.5 29.1 3.5 28.9 3.4 C 28.8 3.3 28.6 3.3 28.4 3.1 C 28.3 3 28.2 2.9 28.1 2.7 C 28 2.6 28 2.4 28 2.1 C 28 2.1 28 2.1 28 2.1 C 28 1.7 28.2 1.3 28.5 1 C 28.8 0.8 29.2 0.6 29.7 0.6 C 30.4 0.6 31 0.8 31.5 1.3 C 31.5 1.3 31 2.1 31 2.1 C 30.5 1.7 30.1 1.6 29.7 1.6 C 29.5 1.6 29.3 1.6 29.2 1.7 C 29.1 1.8 29.1 1.9 29.1 2 C 29.1 2 29.1 2 29.1 2 C 29.1 2.2 29.1 2.3 29.3 2.4 C 29.4 2.5 29.7 2.6 30.1 2.7 C 30.7 2.8 31 3 31.3 3.2 C 31.5 3.4 31.7 3.7 31.7 4.1 C 31.7 4.1 31.7 4.2 31.7 4.2 C 31.7 4.6 31.5 5 31.2 5.3 C 30.9 5.5 30.4 5.7 29.9 5.7 Z M 35.8 5 C 35.4 5.5 34.9 5.7 34.3 5.7 C 33.7 5.7 33.2 5.5 32.9 5.1 C 32.5 4.8 32.3 4.3 32.3 3.7 C 32.3 3.7 32.3 3.7 32.3 3.7 C 32.3 3.2 32.5 2.7 32.8 2.3 C 33.2 2 33.6 1.8 34.2 1.8 C 34.8 1.8 35.2 2 35.5 2.4 C 35.8 2.8 36 3.2 36 3.8 C 36 3.9 36 4 36 4.1 C 36 4.1 33.4 4.1 33.4 4.1 C 33.4 4.3 33.5 4.5 33.7 4.6 C 33.8 4.8 34 4.8 34.3 4.8 C 34.6 4.8 34.9 4.7 35.2 4.4 C 35.2 4.44 35.8 5 35.8 5 C 35.8 5 35.81 4.98 35.8 5 Z M 33.4 3.4 C 33.4 3.4 35 3.4 35 3.4 C 34.9 3.2 34.8 3 34.7 2.8 C 34.6 2.7 34.4 2.6 34.2 2.6 C 34 2.6 33.8 2.7 33.6 2.8 C 33.5 3 33.4 3.2 33.4 3.4 Z M 38.9 5.4 C 38.7 5.6 38.4 5.7 38.1 5.7 C 37.7 5.7 37.4 5.6 37.2 5.4 C 37.1 5.2 37 4.9 37 4.5 C 36.97 4.54 37 2.8 37 2.8 L 36.5 2.8 L 36.5 1.8 L 37 1.8 L 37 0.9 L 38 0.9 L 38 1.8 L 38.9 1.8 L 38.9 2.8 L 38 2.8 C 38 2.8 38.03 4.36 38 4.4 C 38 4.6 38.1 4.7 38.4 4.7 C 38.6 4.7 38.7 4.7 38.9 4.6 C 38.9 4.59 38.9 5.4 38.9 5.4 C 38.9 5.4 38.9 5.45 38.9 5.4 Z M 39.7 1.4 L 39.7 0.5 L 40.8 0.5 L 40.8 1.4 L 39.7 1.4 Z M 39.7 5.6 L 39.7 1.8 L 40.8 1.8 L 40.8 5.6 L 39.7 5.6 Z M 43.8 3.9 L 43.8 2.9 L 46.8 2.9 L 46.8 3.9 L 43.8 3.9 Z M 51.6 5.7 C 50.8 5.7 50.1 5.4 49.5 4.9 C 49.5 4.9 50.1 4.1 50.1 4.1 C 50.6 4.5 51.1 4.7 51.6 4.7 C 51.8 4.7 52 4.7 52.1 4.6 C 52.2 4.5 52.3 4.4 52.3 4.3 C 52.3 4.3 52.3 4.2 52.3 4.2 C 52.3 4.1 52.2 4 52.1 3.9 C 52 3.8 51.7 3.7 51.3 3.6 C 51 3.5 50.8 3.5 50.6 3.4 C 50.4 3.3 50.3 3.3 50.1 3.1 C 50 3 49.9 2.9 49.8 2.7 C 49.7 2.6 49.7 2.4 49.7 2.1 C 49.7 2.1 49.7 2.1 49.7 2.1 C 49.7 1.7 49.8 1.3 50.2 1 C 50.5 0.8 50.9 0.6 51.4 0.6 C 52.1 0.6 52.7 0.8 53.2 1.3 C 53.2 1.3 52.7 2.1 52.7 2.1 C 52.2 1.7 51.8 1.6 51.4 1.6 C 51.2 1.6 51 1.6 50.9 1.7 C 50.8 1.8 50.7 1.9 50.7 2 C 50.7 2 50.7 2 50.7 2 C 50.7 2.2 50.8 2.3 50.9 2.4 C 51.1 2.5 51.4 2.6 51.8 2.7 C 52.3 2.8 52.7 3 53 3.2 C 53.2 3.4 53.4 3.7 53.4 4.1 C 53.4 4.1 53.4 4.2 53.4 4.2 C 53.4 4.6 53.2 5 52.9 5.3 C 52.5 5.5 52.1 5.7 51.6 5.7 Z M 54.2 1.4 L 54.2 0.5 L 55.3 0.5 L 55.3 1.4 L 54.2 1.4 Z M 54.2 5.6 L 54.2 1.8 L 55.3 1.8 L 55.3 5.6 L 54.2 5.6 Z M 56.3 5.6 L 56.3 1.8 L 57.4 1.8 C 57.4 1.8 57.36 2.38 57.4 2.4 C 57.7 2 58 1.8 58.5 1.8 C 58.9 1.8 59.2 1.9 59.4 2.1 C 59.6 2.4 59.7 2.7 59.7 3.2 C 59.74 3.17 59.7 5.6 59.7 5.6 L 58.7 5.6 C 58.7 5.6 58.67 3.51 58.7 3.5 C 58.7 3 58.5 2.7 58 2.7 C 57.8 2.7 57.7 2.8 57.5 2.9 C 57.4 3.1 57.4 3.3 57.4 3.5 C 57.36 3.51 57.4 5.6 57.4 5.6 L 56.3 5.6 Z M 64 6.2 C 63.6 6.6 63.1 6.7 62.3 6.7 C 61.7 6.7 61.2 6.6 60.7 6.3 C 60.7 6.3 61 5.5 61 5.5 C 61.5 5.8 61.9 5.9 62.3 5.9 C 63 5.9 63.4 5.5 63.4 4.9 C 63.4 4.9 63.4 4.7 63.4 4.7 C 63.2 4.9 63 5 62.8 5.1 C 62.7 5.2 62.4 5.3 62.2 5.3 C 61.7 5.3 61.3 5.1 61 4.8 C 60.7 4.5 60.5 4.1 60.5 3.5 C 60.5 3.5 60.5 3.5 60.5 3.5 C 60.5 3 60.7 2.6 61 2.3 C 61.3 1.9 61.7 1.8 62.2 1.8 C 62.6 1.8 63 2 63.4 2.3 C 63.37 2.34 63.4 1.8 63.4 1.8 L 64.4 1.8 C 64.4 1.8 64.43 4.75 64.4 4.8 C 64.4 5.4 64.3 5.9 64 6.2 C 64 6.2 64 6.2 64 6.2 Z M 61.6 3.5 C 61.6 3.8 61.6 4 61.8 4.2 C 62 4.3 62.2 4.4 62.5 4.4 C 62.7 4.4 63 4.3 63.1 4.2 C 63.3 4 63.4 3.8 63.4 3.5 C 63.4 3.5 63.4 3.5 63.4 3.5 C 63.4 3.3 63.3 3.1 63.1 2.9 C 63 2.7 62.7 2.7 62.5 2.7 C 62.2 2.7 62 2.7 61.8 2.9 C 61.6 3.1 61.6 3.3 61.6 3.5 C 61.56 3.53 61.6 3.5 61.6 3.5 C 61.6 3.5 61.56 3.54 61.6 3.5 Z M 65.4 5.6 L 65.4 0.5 L 66.5 0.5 L 66.5 5.6 L 65.4 5.6 Z M 70.8 5 C 70.4 5.5 69.9 5.7 69.3 5.7 C 68.7 5.7 68.2 5.5 67.9 5.1 C 67.5 4.8 67.3 4.3 67.3 3.7 C 67.3 3.7 67.3 3.7 67.3 3.7 C 67.3 3.2 67.5 2.7 67.8 2.3 C 68.2 2 68.6 1.8 69.2 1.8 C 69.8 1.8 70.2 2 70.5 2.4 C 70.8 2.8 71 3.2 71 3.8 C 71 3.9 71 4 71 4.1 C 71 4.1 68.4 4.1 68.4 4.1 C 68.4 4.3 68.5 4.5 68.7 4.6 C 68.8 4.8 69 4.8 69.3 4.8 C 69.6 4.8 69.9 4.7 70.2 4.4 C 70.2 4.44 70.8 5 70.8 5 C 70.8 5 70.81 4.98 70.8 5 Z M 68.4 3.4 C 68.4 3.4 70 3.4 70 3.4 C 69.9 3.2 69.8 3 69.7 2.8 C 69.6 2.7 69.4 2.6 69.2 2.6 C 69 2.6 68.8 2.7 68.6 2.8 C 68.5 3 68.4 3.2 68.4 3.4 Z M 73.1 5.7 C 72.5 5.7 72 5.5 71.5 5.1 C 71.5 5.1 72 4.4 72 4.4 C 72.4 4.7 72.8 4.9 73.1 4.9 C 73.4 4.9 73.6 4.8 73.6 4.6 C 73.6 4.6 73.6 4.6 73.6 4.6 C 73.6 4.5 73.6 4.5 73.6 4.5 C 73.6 4.4 73.5 4.4 73.5 4.4 C 73.5 4.4 73.4 4.4 73.4 4.3 C 73.4 4.3 73.3 4.3 73.3 4.3 C 73.2 4.3 73.2 4.2 73.1 4.2 C 73.1 4.2 73 4.2 73 4.2 C 72.9 4.2 72.8 4.1 72.8 4.1 C 72.7 4.1 72.5 4 72.4 4 C 72.3 3.9 72.2 3.9 72.1 3.8 C 71.9 3.7 71.8 3.6 71.8 3.5 C 71.7 3.3 71.7 3.2 71.7 3 C 71.7 3 71.7 3 71.7 3 C 71.7 2.6 71.8 2.3 72.1 2.1 C 72.3 1.9 72.7 1.8 73.1 1.8 C 73.6 1.8 74 1.9 74.5 2.2 C 74.5 2.2 74.1 3 74.1 3 C 73.7 2.7 73.3 2.6 73 2.6 C 72.9 2.6 72.8 2.6 72.7 2.7 C 72.7 2.7 72.6 2.8 72.6 2.9 C 72.6 2.9 72.6 2.9 72.6 2.9 C 72.6 3 72.7 3 72.8 3.1 C 73 3.2 73.2 3.3 73.4 3.3 C 73.6 3.4 73.7 3.4 73.8 3.5 C 73.9 3.5 74 3.6 74.2 3.7 C 74.3 3.8 74.4 3.9 74.4 4 C 74.5 4.1 74.5 4.3 74.5 4.4 C 74.5 4.4 74.5 4.5 74.5 4.5 C 74.5 4.9 74.4 5.2 74.1 5.4 C 73.9 5.6 73.5 5.7 73.1 5.7 Z " stroke="none" fill="#000"/>  </g></svg>