<?xml version="1.0" standalone="no"?><!DOCTYPE svg PUBLIC "-//W3C//DTD SVG 1.1//EN" "http://www.w3.org/Graphics/SVG/1.1/DTD/svg11.dtd"><svg xmlns="http://www.w3.org/2000/svg" version="1.1" width="181.4px" height="98.4px" viewBox="0 -3 181.4 98.4" style="top:-3px">  <desc>Havlu – Inu %100 Pamuk / 600 g 50 × 70 cm</desc>  <defs/>  <g id="Polygon431522">    <path d="M 2.1 23.7 C 1.5 23.7 0.9 23.4 0.4 22.9 C 0.4 22.9 0.7 22.5 0.7 22.5 C 1.2 23 1.7 23.2 2.1 23.2 C 2.5 23.2 2.8 23.1 3 22.9 C 3.2 22.7 3.3 22.4 3.3 22.1 C 3.3 22.1 3.3 22.1 3.3 22.1 C 3.3 21.8 3.2 21.5 3 21.3 C 2.7 21.1 2.4 21.1 2.1 21.1 C 1.7 21.1 1.4 21.1 1.1 21.3 C 1.06 21.33 0.7 21.1 0.7 21.1 L 0.8 18.7 L 3.7 18.7 L 3.7 19.2 L 1.3 19.2 C 1.3 19.2 1.21 20.78 1.2 20.8 C 1.5 20.6 1.8 20.6 2.2 20.6 C 2.7 20.6 3.1 20.7 3.4 21 C 3.7 21.2 3.9 21.6 3.9 22.1 C 3.9 22.1 3.9 22.1 3.9 22.1 C 3.9 22.5 3.7 22.9 3.4 23.2 C 3.1 23.5 2.6 23.7 2.1 23.7 Z M 8.9 21.1 C 8.9 21.9 8.7 22.5 8.3 22.9 C 7.9 23.4 7.4 23.7 6.8 23.7 C 6.2 23.7 5.7 23.4 5.3 23 C 4.9 22.5 4.7 21.9 4.7 21.2 C 4.7 21.2 4.7 21.1 4.7 21.1 C 4.7 20.4 4.9 19.8 5.3 19.4 C 5.7 18.9 6.2 18.6 6.8 18.6 C 7.4 18.6 7.9 18.9 8.3 19.3 C 8.7 19.8 8.9 20.4 8.9 21.1 C 8.85 21.14 8.9 21.1 8.9 21.1 C 8.9 21.1 8.85 21.15 8.9 21.1 Z M 5.3 21.1 C 5.3 21.7 5.4 22.2 5.7 22.6 C 6 23 6.3 23.2 6.8 23.2 C 7.2 23.2 7.6 23 7.9 22.6 C 8.1 22.2 8.3 21.7 8.3 21.2 C 8.3 21.2 8.3 21.1 8.3 21.1 C 8.3 20.6 8.1 20.1 7.9 19.7 C 7.6 19.3 7.2 19.1 6.8 19.1 C 6.3 19.1 6 19.3 5.7 19.7 C 5.4 20.1 5.3 20.6 5.3 21.1 C 5.29 21.14 5.3 21.1 5.3 21.1 C 5.3 21.1 5.29 21.15 5.3 21.1 Z M 14.8 22.7 L 13.6 21.5 L 12.4 22.7 L 12 22.4 L 13.2 21.1 L 12 19.9 L 12.4 19.6 L 13.6 20.8 L 14.8 19.6 L 15.2 19.9 L 13.9 21.1 L 15.2 22.3 L 14.8 22.7 Z M 18.8 23.6 L 21 19.2 L 18.3 19.2 L 18.3 18.7 L 21.7 18.7 L 21.7 19.1 L 19.4 23.6 L 18.8 23.6 Z M 26.5 21.1 C 26.5 21.9 26.3 22.5 25.9 22.9 C 25.5 23.4 25 23.7 24.4 23.7 C 23.8 23.7 23.3 23.4 22.9 23 C 22.5 22.5 22.3 21.9 22.3 21.2 C 22.3 21.2 22.3 21.1 22.3 21.1 C 22.3 20.4 22.5 19.8 22.9 19.4 C 23.3 18.9 23.8 18.6 24.4 18.6 C 25 18.6 25.5 18.9 25.9 19.3 C 26.3 19.8 26.5 20.4 26.5 21.1 C 26.47 21.14 26.5 21.1 26.5 21.1 C 26.5 21.1 26.47 21.15 26.5 21.1 Z M 22.9 21.1 C 22.9 21.7 23 22.2 23.3 22.6 C 23.6 23 24 23.2 24.4 23.2 C 24.9 23.2 25.2 23 25.5 22.6 C 25.8 22.2 25.9 21.7 25.9 21.2 C 25.9 21.2 25.9 21.1 25.9 21.1 C 25.9 20.6 25.8 20.1 25.5 19.7 C 25.2 19.3 24.8 19.1 24.4 19.1 C 24 19.1 23.6 19.3 23.3 19.7 C 23 20.1 22.9 20.6 22.9 21.1 C 22.9 21.14 22.9 21.1 22.9 21.1 C 22.9 21.1 22.9 21.15 22.9 21.1 Z M 32.7 23 C 32.3 23.5 31.8 23.7 31.2 23.7 C 30.7 23.7 30.3 23.5 29.9 23.1 C 29.6 22.8 29.4 22.3 29.4 21.8 C 29.4 21.8 29.4 21.8 29.4 21.8 C 29.4 21.3 29.6 20.8 29.9 20.5 C 30.3 20.1 30.7 19.9 31.2 19.9 C 31.8 19.9 32.3 20.1 32.7 20.5 C 32.7 20.5 32.3 20.9 32.3 20.9 C 32 20.6 31.6 20.4 31.2 20.4 C 30.9 20.4 30.6 20.5 30.3 20.8 C 30.1 21.1 29.9 21.4 29.9 21.8 C 29.9 21.8 29.9 21.8 29.9 21.8 C 29.9 22.2 30.1 22.5 30.3 22.8 C 30.6 23.1 30.9 23.2 31.3 23.2 C 31.7 23.2 32 23 32.4 22.7 C 32.37 22.66 32.7 23 32.7 23 C 32.7 23 32.71 22.98 32.7 23 Z M 33.6 23.6 L 33.6 20 L 34.1 20 C 34.1 20 34.14 20.59 34.1 20.6 C 34.3 20.4 34.4 20.2 34.6 20.1 C 34.8 20 35 19.9 35.3 19.9 C 35.9 19.9 36.2 20.1 36.5 20.6 C 36.8 20.1 37.2 19.9 37.7 19.9 C 38.2 19.9 38.5 20 38.7 20.3 C 39 20.6 39.1 20.9 39.1 21.4 C 39.09 21.36 39.1 23.6 39.1 23.6 L 38.5 23.6 C 38.5 23.6 38.55 21.49 38.5 21.5 C 38.5 21.1 38.5 20.9 38.3 20.7 C 38.1 20.5 37.9 20.4 37.6 20.4 C 37.3 20.4 37.1 20.5 36.9 20.7 C 36.7 20.9 36.6 21.2 36.6 21.5 C 36.61 21.51 36.6 23.6 36.6 23.6 L 36.1 23.6 C 36.1 23.6 36.08 21.47 36.1 21.5 C 36.1 21.1 36 20.9 35.8 20.7 C 35.7 20.5 35.4 20.4 35.1 20.4 C 34.9 20.4 34.6 20.5 34.4 20.7 C 34.2 20.9 34.1 21.2 34.1 21.5 C 34.14 21.53 34.1 23.6 34.1 23.6 L 33.6 23.6 Z " stroke="none" fill="#000"/>  </g>  <g id="Polygon431521">    <path d="M 2.6 10.9 C 2.6 11.2 2.5 11.5 2.3 11.8 C 2.1 12 1.8 12.1 1.5 12.1 C 1.1 12.1 0.9 12 0.7 11.8 C 0.5 11.5 0.4 11.2 0.4 10.9 C 0.4 10.9 0.4 10.9 0.4 10.9 C 0.4 10.6 0.5 10.3 0.7 10 C 0.9 9.8 1.2 9.6 1.5 9.6 C 1.8 9.6 2.1 9.8 2.3 10 C 2.5 10.3 2.6 10.5 2.6 10.9 C 2.58 10.88 2.6 10.9 2.6 10.9 C 2.6 10.9 2.58 10.9 2.6 10.9 Z M 1.5 10 C 1.3 10 1.1 10.1 1 10.3 C 0.9 10.4 0.8 10.6 0.8 10.9 C 0.8 10.9 0.8 10.9 0.8 10.9 C 0.8 11.1 0.9 11.3 1 11.5 C 1.1 11.7 1.3 11.8 1.5 11.8 C 1.7 11.8 1.8 11.7 1.9 11.5 C 2.1 11.3 2.1 11.1 2.1 10.9 C 2.1 10.9 2.1 10.9 2.1 10.9 C 2.1 10.7 2.1 10.5 1.9 10.3 C 1.8 10.1 1.6 10 1.5 10 Z M 2.8 12 L 4.5 9.7 L 5 9.7 L 3.1 12.3 L 1.4 14.6 L 0.9 14.6 L 2.8 12 Z M 4.4 14.7 C 4 14.7 3.8 14.5 3.6 14.3 C 3.4 14 3.3 13.8 3.3 13.4 C 3.3 13.4 3.3 13.4 3.3 13.4 C 3.3 13.1 3.4 12.8 3.6 12.5 C 3.8 12.3 4 12.1 4.4 12.1 C 4.7 12.1 5 12.3 5.2 12.5 C 5.4 12.8 5.5 13.1 5.5 13.4 C 5.5 13.4 5.5 13.4 5.5 13.4 C 5.5 13.7 5.4 14 5.2 14.3 C 4.9 14.5 4.7 14.7 4.4 14.7 Z M 4.4 14.3 C 4.6 14.3 4.7 14.2 4.8 14 C 4.9 13.9 5 13.7 5 13.4 C 5 13.4 5 13.4 5 13.4 C 5 13.2 4.9 13 4.8 12.8 C 4.7 12.6 4.5 12.5 4.4 12.5 C 4.2 12.5 4 12.6 3.9 12.8 C 3.8 13 3.7 13.2 3.7 13.4 C 3.7 13.4 3.7 13.4 3.7 13.4 C 3.7 13.6 3.8 13.8 3.9 14 C 4 14.2 4.2 14.3 4.4 14.3 Z M 7.1 14.6 L 7.1 10.2 L 6.2 10.5 L 6 10.1 L 7.2 9.7 L 7.6 9.7 L 7.6 14.6 L 7.1 14.6 Z M 12.9 12.1 C 12.9 12.9 12.7 13.5 12.3 13.9 C 12 14.4 11.5 14.7 10.8 14.7 C 10.2 14.7 9.7 14.4 9.3 14 C 9 13.5 8.8 12.9 8.8 12.2 C 8.8 12.2 8.8 12.1 8.8 12.1 C 8.8 11.4 9 10.8 9.4 10.4 C 9.7 9.9 10.2 9.6 10.9 9.6 C 11.5 9.6 12 9.9 12.3 10.3 C 12.7 10.8 12.9 11.4 12.9 12.1 C 12.91 12.14 12.9 12.1 12.9 12.1 C 12.9 12.1 12.91 12.15 12.9 12.1 Z M 9.4 12.1 C 9.4 12.7 9.5 13.2 9.8 13.6 C 10 14 10.4 14.2 10.9 14.2 C 11.3 14.2 11.7 14 11.9 13.6 C 12.2 13.2 12.3 12.7 12.3 12.2 C 12.3 12.2 12.3 12.1 12.3 12.1 C 12.3 11.6 12.2 11.1 11.9 10.7 C 11.6 10.3 11.3 10.1 10.8 10.1 C 10.4 10.1 10 10.3 9.8 10.7 C 9.5 11.1 9.4 11.6 9.4 12.1 C 9.35 12.14 9.4 12.1 9.4 12.1 C 9.4 12.1 9.35 12.15 9.4 12.1 Z M 17.9 12.1 C 17.9 12.9 17.7 13.5 17.3 13.9 C 17 14.4 16.5 14.7 15.8 14.7 C 15.2 14.7 14.7 14.4 14.4 14 C 14 13.5 13.8 12.9 13.8 12.2 C 13.8 12.2 13.8 12.1 13.8 12.1 C 13.8 11.4 14 10.8 14.4 10.4 C 14.7 9.9 15.2 9.6 15.9 9.6 C 16.5 9.6 17 9.9 17.4 10.3 C 17.7 10.8 17.9 11.4 17.9 12.1 C 17.92 12.14 17.9 12.1 17.9 12.1 C 17.9 12.1 17.92 12.15 17.9 12.1 Z M 14.4 12.1 C 14.4 12.7 14.5 13.2 14.8 13.6 C 15.1 14 15.4 14.2 15.9 14.2 C 16.3 14.2 16.7 14 16.9 13.6 C 17.2 13.2 17.3 12.7 17.3 12.2 C 17.3 12.2 17.3 12.1 17.3 12.1 C 17.3 11.6 17.2 11.1 16.9 10.7 C 16.7 10.3 16.3 10.1 15.8 10.1 C 15.4 10.1 15 10.3 14.8 10.7 C 14.5 11.1 14.4 11.6 14.4 12.1 C 14.36 12.14 14.4 12.1 14.4 12.1 C 14.4 12.1 14.36 12.15 14.4 12.1 Z M 21.1 14.6 L 21.1 9.7 C 21.1 9.7 22.98 9.7 23 9.7 C 23.5 9.7 24 9.8 24.3 10.1 C 24.6 10.4 24.8 10.8 24.8 11.3 C 24.8 11.3 24.8 11.3 24.8 11.3 C 24.8 11.8 24.6 12.2 24.3 12.5 C 23.9 12.7 23.4 12.9 22.9 12.9 C 22.89 12.87 21.7 12.9 21.7 12.9 L 21.7 14.6 L 21.1 14.6 Z M 21.7 12.4 C 21.7 12.4 22.91 12.37 22.9 12.4 C 23.3 12.4 23.6 12.3 23.9 12.1 C 24.1 11.9 24.3 11.6 24.3 11.3 C 24.3 11.3 24.3 11.3 24.3 11.3 C 24.3 10.9 24.1 10.7 23.9 10.5 C 23.7 10.3 23.3 10.2 22.9 10.2 C 22.94 10.21 21.7 10.2 21.7 10.2 L 21.7 12.4 Z M 28 14.1 C 27.7 14.5 27.3 14.7 26.7 14.7 C 26.4 14.7 26.1 14.6 25.8 14.4 C 25.5 14.2 25.4 13.9 25.4 13.5 C 25.4 13.5 25.4 13.5 25.4 13.5 C 25.4 13.2 25.5 12.9 25.8 12.7 C 26.1 12.5 26.5 12.4 26.9 12.4 C 27.3 12.4 27.7 12.4 28 12.5 C 28 12.5 28 12.4 28 12.4 C 28 12.1 28 11.8 27.8 11.7 C 27.6 11.5 27.3 11.4 27 11.4 C 26.6 11.4 26.2 11.5 25.9 11.7 C 25.9 11.7 25.7 11.2 25.7 11.2 C 26.1 11 26.6 10.9 27 10.9 C 27.5 10.9 27.9 11.1 28.2 11.3 C 28.4 11.6 28.6 11.9 28.6 12.4 C 28.57 12.39 28.6 14.6 28.6 14.6 L 28 14.6 L 28 14.1 C 28 14.1 28.05 14.05 28 14.1 Z M 26.8 14.2 C 27.2 14.2 27.5 14.2 27.7 14 C 27.9 13.8 28.1 13.6 28.1 13.3 C 28.1 13.3 28.1 12.9 28.1 12.9 C 27.7 12.8 27.3 12.8 27 12.8 C 26.7 12.8 26.4 12.8 26.2 13 C 26 13.1 25.9 13.3 25.9 13.5 C 25.9 13.5 25.9 13.5 25.9 13.5 C 25.9 13.7 26 13.9 26.2 14.1 C 26.4 14.2 26.6 14.2 26.8 14.2 Z M 29.7 14.6 L 29.7 11 L 30.3 11 C 30.3 11 30.25 11.59 30.3 11.6 C 30.4 11.4 30.6 11.2 30.7 11.1 C 30.9 11 31.1 10.9 31.4 10.9 C 32 10.9 32.4 11.1 32.6 11.6 C 32.9 11.1 33.3 10.9 33.9 10.9 C 34.3 10.9 34.6 11 34.8 11.3 C 35.1 11.6 35.2 11.9 35.2 12.4 C 35.2 12.36 35.2 14.6 35.2 14.6 L 34.7 14.6 C 34.7 14.6 34.66 12.49 34.7 12.5 C 34.7 12.1 34.6 11.9 34.4 11.7 C 34.2 11.5 34 11.4 33.7 11.4 C 33.4 11.4 33.2 11.5 33 11.7 C 32.8 11.9 32.7 12.2 32.7 12.5 C 32.72 12.51 32.7 14.6 32.7 14.6 L 32.2 14.6 C 32.2 14.6 32.19 12.47 32.2 12.5 C 32.2 12.1 32.1 11.9 31.9 11.7 C 31.8 11.5 31.6 11.4 31.3 11.4 C 31 11.4 30.7 11.5 30.5 11.7 C 30.3 11.9 30.3 12.2 30.3 12.5 C 30.25 12.53 30.3 14.6 30.3 14.6 L 29.7 14.6 Z M 38.9 14 C 38.6 14.4 38.2 14.7 37.7 14.7 C 37.3 14.7 36.9 14.5 36.7 14.3 C 36.4 14 36.3 13.7 36.3 13.2 C 36.29 13.23 36.3 11 36.3 11 L 36.8 11 C 36.8 11 36.83 13.09 36.8 13.1 C 36.8 13.4 36.9 13.7 37.1 13.9 C 37.3 14.1 37.5 14.2 37.8 14.2 C 38.1 14.2 38.4 14.1 38.6 13.9 C 38.8 13.7 38.9 13.4 38.9 13.1 C 38.92 13.05 38.9 11 38.9 11 L 39.5 11 L 39.5 14.6 L 38.9 14.6 L 38.9 14 C 38.9 14 38.92 13.97 38.9 14 Z M 40.7 14.6 L 40.7 9.5 L 41.2 9.5 L 41.2 13 L 43.2 11 L 43.8 11 L 42.3 12.5 L 43.9 14.6 L 43.2 14.6 L 41.9 12.9 L 41.2 13.7 L 41.2 14.6 L 40.7 14.6 Z M 46 15.5 L 49.2 9 L 49.7 9 L 46.5 15.5 L 46 15.5 Z M 54.1 14.7 C 53.6 14.7 53.2 14.5 52.8 14.2 C 52.6 14 52.5 13.7 52.4 13.4 C 52.3 13.1 52.2 12.8 52.2 12.3 C 52.2 12.3 52.2 12.3 52.2 12.3 C 52.2 11.5 52.4 10.9 52.8 10.4 C 53.1 9.9 53.6 9.6 54.3 9.6 C 54.8 9.6 55.3 9.8 55.7 10.2 C 55.7 10.2 55.4 10.6 55.4 10.6 C 55 10.3 54.6 10.1 54.2 10.1 C 53.8 10.1 53.4 10.3 53.2 10.7 C 52.9 11.1 52.8 11.6 52.8 12.2 C 52.8 12.2 52.8 12.3 52.8 12.3 C 53.1 11.8 53.6 11.5 54.2 11.5 C 54.7 11.5 55.1 11.7 55.4 12 C 55.7 12.2 55.9 12.6 55.9 13 C 55.9 13 55.9 13.1 55.9 13.1 C 55.9 13.5 55.7 13.9 55.4 14.2 C 55 14.5 54.6 14.7 54.1 14.7 Z M 54.1 14.2 C 54.5 14.2 54.8 14.1 55 13.9 C 55.2 13.7 55.3 13.4 55.3 13.1 C 55.3 13.1 55.3 13.1 55.3 13.1 C 55.3 12.8 55.2 12.5 55 12.3 C 54.8 12.1 54.5 12 54.1 12 C 53.8 12 53.5 12.1 53.2 12.3 C 53 12.6 52.9 12.8 52.9 13.1 C 52.9 13.1 52.9 13.1 52.9 13.1 C 52.9 13.4 53 13.7 53.2 13.9 C 53.5 14.1 53.8 14.2 54.1 14.2 Z M 60.9 12.1 C 60.9 12.9 60.7 13.5 60.3 13.9 C 59.9 14.4 59.4 14.7 58.8 14.7 C 58.2 14.7 57.7 14.4 57.3 14 C 57 13.5 56.8 12.9 56.8 12.2 C 56.8 12.2 56.8 12.1 56.8 12.1 C 56.8 11.4 57 10.8 57.3 10.4 C 57.7 9.9 58.2 9.6 58.8 9.6 C 59.5 9.6 60 9.9 60.3 10.3 C 60.7 10.8 60.9 11.4 60.9 12.1 C 60.9 12.14 60.9 12.1 60.9 12.1 C 60.9 12.1 60.9 12.15 60.9 12.1 Z M 57.3 12.1 C 57.3 12.7 57.5 13.2 57.8 13.6 C 58 14 58.4 14.2 58.8 14.2 C 59.3 14.2 59.6 14 59.9 13.6 C 60.2 13.2 60.3 12.7 60.3 12.2 C 60.3 12.2 60.3 12.1 60.3 12.1 C 60.3 11.6 60.2 11.1 59.9 10.7 C 59.6 10.3 59.3 10.1 58.8 10.1 C 58.4 10.1 58 10.3 57.7 10.7 C 57.5 11.1 57.3 11.6 57.3 12.1 C 57.34 12.14 57.3 12.1 57.3 12.1 C 57.3 12.1 57.34 12.15 57.3 12.1 Z M 65.9 12.1 C 65.9 12.9 65.7 13.5 65.3 13.9 C 64.9 14.4 64.4 14.7 63.8 14.7 C 63.2 14.7 62.7 14.4 62.3 14 C 62 13.5 61.8 12.9 61.8 12.2 C 61.8 12.2 61.8 12.1 61.8 12.1 C 61.8 11.4 62 10.8 62.3 10.4 C 62.7 9.9 63.2 9.6 63.8 9.6 C 64.5 9.6 65 9.9 65.3 10.3 C 65.7 10.8 65.9 11.4 65.9 12.1 C 65.9 12.14 65.9 12.1 65.9 12.1 C 65.9 12.1 65.9 12.15 65.9 12.1 Z M 62.3 12.1 C 62.3 12.7 62.5 13.2 62.8 13.6 C 63 14 63.4 14.2 63.8 14.2 C 64.3 14.2 64.7 14 64.9 13.6 C 65.2 13.2 65.3 12.7 65.3 12.2 C 65.3 12.2 65.3 12.1 65.3 12.1 C 65.3 11.6 65.2 11.1 64.9 10.7 C 64.6 10.3 64.3 10.1 63.8 10.1 C 63.4 10.1 63 10.3 62.8 10.7 C 62.5 11.1 62.3 11.6 62.3 12.1 C 62.34 12.14 62.3 12.1 62.3 12.1 C 62.3 12.1 62.34 12.15 62.3 12.1 Z M 72 15.3 C 71.7 15.6 71.2 15.7 70.6 15.7 C 70 15.7 69.5 15.6 69 15.2 C 69 15.2 69.2 14.8 69.2 14.8 C 69.7 15.1 70.1 15.3 70.6 15.3 C 71 15.3 71.4 15.2 71.6 14.9 C 71.8 14.7 72 14.4 72 14 C 72 14 72 13.6 72 13.6 C 71.6 14.1 71.1 14.3 70.5 14.3 C 70.1 14.3 69.7 14.2 69.3 13.8 C 69 13.5 68.8 13.1 68.8 12.6 C 68.8 12.6 68.8 12.6 68.8 12.6 C 68.8 12.1 69 11.7 69.3 11.4 C 69.7 11.1 70.1 10.9 70.5 10.9 C 71.1 10.9 71.6 11.1 71.9 11.6 C 71.95 11.63 71.9 11 71.9 11 L 72.5 11 C 72.5 11 72.48 13.97 72.5 14 C 72.5 14.5 72.3 14.9 72 15.3 C 72 15.3 72 15.3 72 15.3 Z M 70.6 13.8 C 71 13.8 71.3 13.7 71.6 13.5 C 71.8 13.3 72 13 72 12.6 C 72 12.6 72 12.6 72 12.6 C 72 12.2 71.8 12 71.6 11.7 C 71.3 11.5 71 11.4 70.6 11.4 C 70.3 11.4 70 11.5 69.7 11.7 C 69.5 11.9 69.4 12.2 69.4 12.6 C 69.4 12.6 69.4 12.6 69.4 12.6 C 69.4 13 69.5 13.3 69.8 13.5 C 70 13.7 70.3 13.8 70.6 13.8 Z " stroke="none" fill="#000"/>  </g>  <g id="Polygon431520">    <path d="M 0.6 5.6 L 0.6 0.7 L 1.7 0.7 L 1.7 2.6 L 3.7 2.6 L 3.7 0.7 L 4.7 0.7 L 4.7 5.6 L 3.7 5.6 L 3.7 3.6 L 1.7 3.6 L 1.7 5.6 L 0.6 5.6 Z M 8 5.2 C 7.7 5.5 7.3 5.7 6.9 5.7 C 6.5 5.7 6.2 5.6 5.9 5.4 C 5.7 5.2 5.6 4.9 5.6 4.5 C 5.6 4.5 5.6 4.5 5.6 4.5 C 5.6 4.1 5.7 3.8 6 3.6 C 6.3 3.4 6.6 3.3 7.1 3.3 C 7.4 3.3 7.7 3.4 8 3.5 C 8 3.5 8 3.4 8 3.4 C 8 2.9 7.7 2.7 7.2 2.7 C 6.9 2.7 6.5 2.8 6.2 2.9 C 6.2 2.9 5.9 2.1 5.9 2.1 C 6.4 1.9 6.9 1.8 7.3 1.8 C 7.9 1.8 8.3 1.9 8.6 2.2 C 8.9 2.5 9 2.9 9 3.4 C 9.02 3.42 9 5.6 9 5.6 L 8 5.6 L 8 5.2 C 8 5.2 7.99 5.19 8 5.2 Z M 7.2 4.9 C 7.4 4.9 7.6 4.9 7.8 4.8 C 7.9 4.6 8 4.5 8 4.3 C 8 4.3 8 4.1 8 4.1 C 7.8 4 7.6 3.9 7.3 3.9 C 7.1 3.9 6.9 4 6.8 4.1 C 6.7 4.2 6.6 4.3 6.6 4.5 C 6.6 4.5 6.6 4.5 6.6 4.5 C 6.6 4.6 6.7 4.7 6.8 4.8 C 6.9 4.9 7 4.9 7.2 4.9 Z M 10.9 5.6 L 9.5 1.8 L 10.6 1.8 L 11.4 4.4 L 12.3 1.8 L 13.4 1.8 L 11.9 5.6 L 10.9 5.6 Z M 14 5.6 L 14 0.5 L 15.1 0.5 L 15.1 5.6 L 14 5.6 Z M 18.5 5.1 C 18.1 5.5 17.8 5.7 17.4 5.7 C 17 5.7 16.6 5.5 16.4 5.3 C 16.2 5.1 16.1 4.7 16.1 4.3 C 16.09 4.28 16.1 1.8 16.1 1.8 L 17.1 1.8 C 17.1 1.8 17.15 3.94 17.1 3.9 C 17.1 4.4 17.4 4.7 17.8 4.7 C 18 4.7 18.2 4.6 18.3 4.5 C 18.4 4.4 18.5 4.2 18.5 3.9 C 18.46 3.94 18.5 1.8 18.5 1.8 L 19.5 1.8 L 19.5 5.6 L 18.5 5.6 L 18.5 5.1 C 18.5 5.1 18.46 5.07 18.5 5.1 Z M 22.4 3.9 L 22.4 2.9 L 25.4 2.9 L 25.4 3.9 L 22.4 3.9 Z M 28.5 5.6 L 28.5 0.7 L 29.6 0.7 L 29.6 5.6 L 28.5 5.6 Z M 30.7 5.6 L 30.7 1.8 L 31.8 1.8 C 31.8 1.8 31.79 2.38 31.8 2.4 C 32.1 2 32.5 1.8 32.9 1.8 C 33.3 1.8 33.6 1.9 33.8 2.1 C 34 2.4 34.2 2.7 34.2 3.2 C 34.16 3.17 34.2 5.6 34.2 5.6 L 33.1 5.6 C 33.1 5.6 33.1 3.51 33.1 3.5 C 33.1 3 32.9 2.7 32.5 2.7 C 32.2 2.7 32.1 2.8 32 2.9 C 31.8 3.1 31.8 3.3 31.8 3.5 C 31.79 3.51 31.8 5.6 31.8 5.6 L 30.7 5.6 Z M 37.4 5.1 C 37.1 5.5 36.7 5.7 36.3 5.7 C 35.9 5.7 35.6 5.5 35.4 5.3 C 35.2 5.1 35.1 4.7 35.1 4.3 C 35.06 4.28 35.1 1.8 35.1 1.8 L 36.1 1.8 C 36.1 1.8 36.12 3.94 36.1 3.9 C 36.1 4.4 36.3 4.7 36.8 4.7 C 37 4.7 37.1 4.6 37.3 4.5 C 37.4 4.4 37.4 4.2 37.4 3.9 C 37.43 3.94 37.4 1.8 37.4 1.8 L 38.5 1.8 L 38.5 5.6 L 37.4 5.6 L 37.4 5.1 C 37.4 5.1 37.43 5.07 37.4 5.1 Z " stroke="none" fill="#000"/>  </g></svg>