<?xml version="1.0" standalone="no"?><!DOCTYPE svg PUBLIC "-//W3C//DTD SVG 1.1//EN" "http://www.w3.org/Graphics/SVG/1.1/DTD/svg11.dtd"><svg xmlns="http://www.w3.org/2000/svg" version="1.1" width="173px" height="92.4px" viewBox="0 -3 173 92.4" style="top:-3px">  <desc>Yumurta Kaplar (Ta y c l , 4’l ) – Singles r n Kodu: ZD 332023 Renk: Warm Grey Silikon / Metal D 11,2 cm, H 9,5 cm...</desc>  <defs/>  <g id="Polygon376447">    <path d="M 2 56.6 L 2 52.2 L 0.3 52.2 L 0.3 51.7 L 4.2 51.7 L 4.2 52.2 L 2.5 52.2 L 2.5 56.6 L 2 56.6 Z M 6.6 56.1 C 6.3 56.5 5.9 56.7 5.3 56.7 C 4.9 56.7 4.6 56.6 4.4 56.4 C 4.1 56.2 4 55.9 4 55.5 C 4 55.5 4 55.5 4 55.5 C 4 55.2 4.1 54.9 4.4 54.7 C 4.7 54.5 5 54.4 5.5 54.4 C 5.9 54.4 6.2 54.4 6.6 54.5 C 6.6 54.5 6.6 54.4 6.6 54.4 C 6.6 54.1 6.5 53.8 6.3 53.7 C 6.1 53.5 5.9 53.4 5.5 53.4 C 5.2 53.4 4.8 53.5 4.4 53.7 C 4.4 53.7 4.3 53.2 4.3 53.2 C 4.7 53 5.1 52.9 5.6 52.9 C 6.1 52.9 6.5 53.1 6.8 53.3 C 7 53.6 7.1 53.9 7.1 54.4 C 7.13 54.39 7.1 56.6 7.1 56.6 L 6.6 56.6 L 6.6 56.1 C 6.6 56.1 6.62 56.05 6.6 56.1 Z M 5.4 56.2 C 5.8 56.2 6 56.2 6.3 56 C 6.5 55.8 6.6 55.6 6.6 55.3 C 6.6 55.3 6.6 54.9 6.6 54.9 C 6.3 54.8 5.9 54.8 5.6 54.8 C 5.2 54.8 5 54.8 4.8 55 C 4.6 55.1 4.5 55.3 4.5 55.5 C 4.5 55.5 4.5 55.5 4.5 55.5 C 4.5 55.7 4.6 55.9 4.8 56.1 C 4.9 56.2 5.2 56.2 5.4 56.2 Z M 9.5 56.7 C 8.9 56.7 8.4 56.5 8 56.1 C 8 56.1 8.3 55.8 8.3 55.8 C 8.7 56.1 9.1 56.2 9.5 56.2 C 9.7 56.2 9.9 56.2 10 56.1 C 10.2 56 10.3 55.8 10.3 55.6 C 10.3 55.6 10.3 55.6 10.3 55.6 C 10.3 55.5 10.2 55.3 10 55.2 C 9.9 55.2 9.6 55.1 9.4 55 C 9.2 55 9.1 54.9 9.1 54.9 C 9 54.9 8.9 54.8 8.8 54.8 C 8.7 54.8 8.6 54.7 8.5 54.7 C 8.5 54.6 8.4 54.6 8.3 54.5 C 8.3 54.4 8.2 54.4 8.2 54.3 C 8.2 54.2 8.2 54.1 8.2 54 C 8.2 54 8.2 54 8.2 54 C 8.2 53.6 8.3 53.4 8.5 53.2 C 8.7 53 9 52.9 9.4 52.9 C 9.9 52.9 10.3 53.1 10.7 53.3 C 10.7 53.3 10.4 53.7 10.4 53.7 C 10.1 53.5 9.7 53.4 9.4 53.4 C 9.2 53.4 9 53.4 8.9 53.5 C 8.7 53.6 8.7 53.7 8.7 53.9 C 8.7 53.9 8.7 53.9 8.7 53.9 C 8.7 54 8.7 54 8.7 54.1 C 8.8 54.1 8.8 54.2 8.9 54.2 C 8.9 54.3 9 54.3 9.1 54.4 C 9.2 54.4 9.3 54.4 9.3 54.4 C 9.4 54.5 9.5 54.5 9.6 54.5 C 9.7 54.6 9.9 54.6 9.9 54.6 C 10 54.7 10.1 54.7 10.3 54.8 C 10.4 54.8 10.5 54.9 10.5 55 C 10.6 55 10.6 55.1 10.7 55.2 C 10.7 55.3 10.8 55.4 10.8 55.6 C 10.8 55.6 10.8 55.6 10.8 55.6 C 10.8 55.9 10.6 56.2 10.4 56.4 C 10.2 56.6 9.9 56.7 9.5 56.7 Z M 14.2 56.1 C 13.8 56.5 13.4 56.7 12.8 56.7 C 12.5 56.7 12.2 56.6 11.9 56.4 C 11.6 56.2 11.5 55.9 11.5 55.5 C 11.5 55.5 11.5 55.5 11.5 55.5 C 11.5 55.2 11.6 54.9 11.9 54.7 C 12.2 54.5 12.6 54.4 13 54.4 C 13.4 54.4 13.8 54.4 14.2 54.5 C 14.2 54.5 14.2 54.4 14.2 54.4 C 14.2 54.1 14.1 53.8 13.9 53.7 C 13.7 53.5 13.4 53.4 13.1 53.4 C 12.7 53.4 12.3 53.5 12 53.7 C 12 53.7 11.8 53.2 11.8 53.2 C 12.2 53 12.7 52.9 13.1 52.9 C 13.6 52.9 14 53.1 14.3 53.3 C 14.5 53.6 14.7 53.9 14.7 54.4 C 14.67 54.39 14.7 56.6 14.7 56.6 L 14.2 56.6 L 14.2 56.1 C 14.2 56.1 14.15 56.05 14.2 56.1 Z M 12.9 56.2 C 13.3 56.2 13.6 56.2 13.8 56 C 14 55.8 14.2 55.6 14.2 55.3 C 14.2 55.3 14.2 54.9 14.2 54.9 C 13.8 54.8 13.4 54.8 13.1 54.8 C 12.8 54.8 12.5 54.8 12.3 55 C 12.1 55.1 12 55.3 12 55.5 C 12 55.5 12 55.5 12 55.5 C 12 55.7 12.1 55.9 12.3 56.1 C 12.5 56.2 12.7 56.2 12.9 56.2 Z M 15.8 56.6 L 15.8 53 L 16.4 53 C 16.4 53 16.36 53.93 16.4 53.9 C 16.5 53.6 16.7 53.4 17 53.2 C 17.2 53 17.5 52.9 17.8 52.9 C 17.84 52.92 17.8 53.5 17.8 53.5 C 17.8 53.5 17.79 53.5 17.8 53.5 C 17.4 53.5 17 53.6 16.8 53.9 C 16.5 54.2 16.4 54.6 16.4 55.2 C 16.36 55.16 16.4 56.6 16.4 56.6 L 15.8 56.6 Z M 18.7 56.6 L 18.7 53 L 19.2 53 L 19.2 56.6 L 18.7 56.6 Z M 20.5 56.6 L 20.5 53 L 21 53 C 21 53 21.03 53.59 21 53.6 C 21.2 53.4 21.3 53.2 21.5 53.1 C 21.7 53 21.9 52.9 22.2 52.9 C 22.7 52.9 23.1 53.1 23.4 53.6 C 23.7 53.1 24.1 52.9 24.6 52.9 C 25.1 52.9 25.4 53 25.6 53.3 C 25.9 53.6 26 53.9 26 54.4 C 25.98 54.36 26 56.6 26 56.6 L 25.4 56.6 C 25.4 56.6 25.44 54.49 25.4 54.5 C 25.4 54.1 25.4 53.9 25.2 53.7 C 25 53.5 24.8 53.4 24.5 53.4 C 24.2 53.4 24 53.5 23.8 53.7 C 23.6 53.9 23.5 54.2 23.5 54.5 C 23.51 54.51 23.5 56.6 23.5 56.6 L 23 56.6 C 23 56.6 22.97 54.47 23 54.5 C 23 54.1 22.9 53.9 22.7 53.7 C 22.6 53.5 22.3 53.4 22 53.4 C 21.8 53.4 21.5 53.5 21.3 53.7 C 21.1 53.9 21 54.2 21 54.5 C 21.03 54.53 21 56.6 21 56.6 L 20.5 56.6 Z M 27.1 53.7 L 27.1 53 L 27.7 53 L 27.7 53.7 L 27.1 53.7 Z M 27.1 56.6 L 27.1 55.9 L 27.7 55.9 L 27.7 56.6 L 27.1 56.6 Z M 32.8 56.6 L 30.7 51.7 L 31.3 51.7 L 33 55.9 L 34.8 51.7 L 35.4 51.7 L 33.3 56.6 L 32.8 56.6 Z M 36.4 56.6 L 36.4 51.7 L 39.9 51.7 L 39.9 52.2 L 36.9 52.2 L 36.9 53.9 L 39.6 53.9 L 39.6 54.4 L 36.9 54.4 L 36.9 56.1 L 39.9 56.1 L 39.9 56.6 L 36.4 56.6 Z M 40.7 56.6 L 40.7 56.2 C 40.7 56.2 42.46 54.6 42.5 54.6 C 42.8 54.3 43.1 54 43.3 53.8 C 43.4 53.5 43.5 53.3 43.5 53.1 C 43.5 52.8 43.4 52.6 43.2 52.4 C 43 52.2 42.8 52.1 42.5 52.1 C 42.2 52.1 42 52.2 41.8 52.3 C 41.6 52.5 41.4 52.7 41.2 53 C 41.2 53 40.8 52.7 40.8 52.7 C 41 52.3 41.3 52 41.5 51.9 C 41.8 51.7 42.1 51.6 42.5 51.6 C 43 51.6 43.3 51.8 43.6 52 C 43.9 52.3 44.1 52.6 44.1 53 C 44.1 53 44.1 53 44.1 53 C 44.1 53.4 44 53.7 43.8 53.9 C 43.6 54.2 43.3 54.5 42.8 54.9 C 42.82 54.93 41.5 56.1 41.5 56.1 L 44.1 56.1 L 44.1 56.6 L 40.7 56.6 Z " stroke="none" fill="#000"/>  </g>  <g id="Polygon376446">    <path d="M 0.7 48.2 L 0.7 43.3 C 0.7 43.3 2.39 43.3 2.4 43.3 C 3.2 43.3 3.8 43.5 4.3 44 C 4.8 44.5 5 45 5 45.7 C 5 45.7 5 45.7 5 45.7 C 5 46.4 4.8 47 4.3 47.5 C 3.8 48 3.2 48.2 2.4 48.2 C 2.39 48.2 0.7 48.2 0.7 48.2 Z M 2.4 43.8 C 2.39 43.81 1.2 43.8 1.2 43.8 L 1.2 47.7 C 1.2 47.7 2.39 47.69 2.4 47.7 C 3 47.7 3.5 47.5 3.9 47.1 C 4.2 46.8 4.4 46.3 4.4 45.8 C 4.4 45.8 4.4 45.7 4.4 45.7 C 4.4 45.2 4.2 44.7 3.9 44.4 C 3.5 44 3 43.8 2.4 43.8 Z M 8.8 48.2 L 8.8 43.8 L 7.9 44.1 L 7.8 43.7 L 9 43.3 L 9.4 43.3 L 9.4 48.2 L 8.8 48.2 Z M 11.3 48.2 L 11.3 43.8 L 10.4 44.1 L 10.3 43.7 L 11.5 43.3 L 11.9 43.3 L 11.9 48.2 L 11.3 48.2 Z M 13 49.1 C 13 49.1 12.9 48.8 12.9 48.8 C 13.2 48.7 13.4 48.5 13.4 48.2 C 13.38 48.2 13.1 48.2 13.1 48.2 L 13.1 47.5 L 13.8 47.5 C 13.8 47.5 13.77 48.09 13.8 48.1 C 13.8 48.4 13.7 48.6 13.6 48.7 C 13.5 48.9 13.3 49 13 49.1 Z M 14.6 48.2 L 14.6 47.8 C 14.6 47.8 16.41 46.2 16.4 46.2 C 16.8 45.9 17.1 45.6 17.2 45.4 C 17.4 45.1 17.4 44.9 17.4 44.7 C 17.4 44.4 17.3 44.2 17.1 44 C 17 43.8 16.7 43.7 16.4 43.7 C 16.2 43.7 15.9 43.8 15.7 43.9 C 15.5 44.1 15.3 44.3 15.1 44.6 C 15.1 44.6 14.7 44.3 14.7 44.3 C 15 43.9 15.2 43.6 15.5 43.5 C 15.7 43.3 16.1 43.2 16.5 43.2 C 16.9 43.2 17.3 43.4 17.6 43.6 C 17.9 43.9 18 44.2 18 44.6 C 18 44.6 18 44.6 18 44.6 C 18 45 17.9 45.3 17.7 45.5 C 17.6 45.8 17.2 46.1 16.8 46.5 C 16.77 46.53 15.5 47.7 15.5 47.7 L 18.1 47.7 L 18.1 48.2 L 14.6 48.2 Z M 24.3 47.6 C 23.9 48.1 23.4 48.3 22.8 48.3 C 22.3 48.3 21.9 48.1 21.5 47.7 C 21.1 47.4 21 46.9 21 46.4 C 21 46.4 21 46.4 21 46.4 C 21 45.9 21.1 45.4 21.5 45.1 C 21.9 44.7 22.3 44.5 22.8 44.5 C 23.4 44.5 23.9 44.7 24.3 45.1 C 24.3 45.1 23.9 45.5 23.9 45.5 C 23.6 45.2 23.2 45 22.8 45 C 22.5 45 22.1 45.1 21.9 45.4 C 21.6 45.7 21.5 46 21.5 46.4 C 21.5 46.4 21.5 46.4 21.5 46.4 C 21.5 46.8 21.7 47.1 21.9 47.4 C 22.2 47.7 22.5 47.8 22.9 47.8 C 23.3 47.8 23.6 47.6 24 47.3 C 23.96 47.26 24.3 47.6 24.3 47.6 C 24.3 47.6 24.3 47.58 24.3 47.6 Z M 25.2 48.2 L 25.2 44.6 L 25.7 44.6 C 25.7 44.6 25.73 45.19 25.7 45.2 C 25.9 45 26 44.8 26.2 44.7 C 26.4 44.6 26.6 44.5 26.9 44.5 C 27.4 44.5 27.8 44.7 28.1 45.2 C 28.4 44.7 28.8 44.5 29.3 44.5 C 29.8 44.5 30.1 44.6 30.3 44.9 C 30.6 45.2 30.7 45.5 30.7 46 C 30.68 45.96 30.7 48.2 30.7 48.2 L 30.1 48.2 C 30.1 48.2 30.14 46.09 30.1 46.1 C 30.1 45.7 30.1 45.5 29.9 45.3 C 29.7 45.1 29.5 45 29.2 45 C 28.9 45 28.7 45.1 28.5 45.3 C 28.3 45.5 28.2 45.8 28.2 46.1 C 28.2 46.11 28.2 48.2 28.2 48.2 L 27.7 48.2 C 27.7 48.2 27.67 46.07 27.7 46.1 C 27.7 45.7 27.6 45.5 27.4 45.3 C 27.3 45.1 27 45 26.7 45 C 26.5 45 26.2 45.1 26 45.3 C 25.8 45.5 25.7 45.8 25.7 46.1 C 25.73 46.13 25.7 48.2 25.7 48.2 L 25.2 48.2 Z M 31.6 49.1 C 31.6 49.1 31.5 48.8 31.5 48.8 C 31.9 48.7 32 48.5 32 48.2 C 32.02 48.2 31.8 48.2 31.8 48.2 L 31.8 47.5 L 32.4 47.5 C 32.4 47.5 32.41 48.09 32.4 48.1 C 32.4 48.4 32.3 48.6 32.2 48.7 C 32.1 48.9 31.9 49 31.6 49.1 Z M 35.7 48.2 L 35.7 43.3 L 36.3 43.3 L 36.3 45.5 L 39.1 45.5 L 39.1 43.3 L 39.7 43.3 L 39.7 48.2 L 39.1 48.2 L 39.1 46 L 36.3 46 L 36.3 48.2 L 35.7 48.2 Z M 43.3 47.3 C 43.7 47.6 44.1 47.8 44.5 47.8 C 45 47.8 45.3 47.6 45.6 47.2 C 45.9 46.8 46 46.3 46 45.7 C 46 45.7 46 45.6 46 45.6 C 45.7 46.2 45.2 46.4 44.6 46.4 C 44.1 46.4 43.7 46.3 43.4 46 C 43.1 45.7 42.9 45.3 42.9 44.9 C 42.9 44.9 42.9 44.9 42.9 44.9 C 42.9 44.4 43.1 44 43.4 43.7 C 43.7 43.4 44.2 43.2 44.7 43.2 C 45.2 43.2 45.6 43.4 46 43.7 C 46.4 44.1 46.6 44.8 46.6 45.6 C 46.6 45.6 46.6 45.6 46.6 45.6 C 46.6 46.4 46.4 47 46 47.5 C 45.6 48 45.1 48.3 44.5 48.3 C 44 48.3 43.5 48.1 43 47.7 C 43.01 47.68 43.3 47.3 43.3 47.3 C 43.3 47.3 43.34 47.25 43.3 47.3 Z M 44.7 45.9 C 45 45.9 45.3 45.8 45.6 45.6 C 45.8 45.4 45.9 45.1 45.9 44.8 C 45.9 44.8 45.9 44.8 45.9 44.8 C 45.9 44.5 45.8 44.2 45.5 44 C 45.3 43.8 45 43.7 44.6 43.7 C 44.3 43.7 44 43.8 43.8 44 C 43.6 44.3 43.5 44.5 43.5 44.9 C 43.5 44.9 43.5 44.9 43.5 44.9 C 43.5 45.2 43.6 45.4 43.8 45.6 C 44 45.8 44.3 45.9 44.7 45.9 Z M 47.3 49.1 C 47.3 49.1 47.2 48.8 47.2 48.8 C 47.6 48.7 47.7 48.5 47.7 48.2 C 47.71 48.2 47.5 48.2 47.5 48.2 L 47.5 47.5 L 48.1 47.5 C 48.1 47.5 48.1 48.09 48.1 48.1 C 48.1 48.4 48 48.6 47.9 48.7 C 47.8 48.9 47.6 49 47.3 49.1 Z M 50.8 48.3 C 50.1 48.3 49.5 48 49 47.5 C 49 47.5 49.4 47.1 49.4 47.1 C 49.8 47.6 50.3 47.8 50.8 47.8 C 51.1 47.8 51.4 47.7 51.6 47.5 C 51.8 47.3 51.9 47 51.9 46.7 C 51.9 46.7 51.9 46.7 51.9 46.7 C 51.9 46.4 51.8 46.1 51.6 45.9 C 51.4 45.7 51.1 45.7 50.7 45.7 C 50.4 45.7 50 45.7 49.7 45.9 C 49.7 45.93 49.3 45.7 49.3 45.7 L 49.5 43.3 L 52.3 43.3 L 52.3 43.8 L 50 43.8 C 50 43.8 49.85 45.38 49.8 45.4 C 50.2 45.2 50.5 45.2 50.8 45.2 C 51.3 45.2 51.7 45.3 52 45.6 C 52.3 45.8 52.5 46.2 52.5 46.7 C 52.5 46.7 52.5 46.7 52.5 46.7 C 52.5 47.1 52.3 47.5 52 47.8 C 51.7 48.1 51.3 48.3 50.8 48.3 Z M 58.7 47.6 C 58.3 48.1 57.8 48.3 57.3 48.3 C 56.7 48.3 56.3 48.1 55.9 47.7 C 55.6 47.4 55.4 46.9 55.4 46.4 C 55.4 46.4 55.4 46.4 55.4 46.4 C 55.4 45.9 55.6 45.4 55.9 45.1 C 56.3 44.7 56.7 44.5 57.3 44.5 C 57.8 44.5 58.3 44.7 58.7 45.1 C 58.7 45.1 58.3 45.5 58.3 45.5 C 58 45.2 57.6 45 57.2 45 C 56.9 45 56.6 45.1 56.3 45.4 C 56.1 45.7 56 46 56 46.4 C 56 46.4 56 46.4 56 46.4 C 56 46.8 56.1 47.1 56.3 47.4 C 56.6 47.7 56.9 47.8 57.3 47.8 C 57.7 47.8 58.1 47.6 58.4 47.3 C 58.39 47.26 58.7 47.6 58.7 47.6 C 58.7 47.6 58.73 47.58 58.7 47.6 Z M 59.6 48.2 L 59.6 44.6 L 60.2 44.6 C 60.2 44.6 60.16 45.19 60.2 45.2 C 60.3 45 60.5 44.8 60.6 44.7 C 60.8 44.6 61 44.5 61.3 44.5 C 61.9 44.5 62.3 44.7 62.5 45.2 C 62.8 44.7 63.2 44.5 63.8 44.5 C 64.2 44.5 64.5 44.6 64.7 44.9 C 65 45.2 65.1 45.5 65.1 46 C 65.11 45.96 65.1 48.2 65.1 48.2 L 64.6 48.2 C 64.6 48.2 64.57 46.09 64.6 46.1 C 64.6 45.7 64.5 45.5 64.3 45.3 C 64.2 45.1 63.9 45 63.6 45 C 63.3 45 63.1 45.1 62.9 45.3 C 62.7 45.5 62.6 45.8 62.6 46.1 C 62.63 46.11 62.6 48.2 62.6 48.2 L 62.1 48.2 C 62.1 48.2 62.1 46.07 62.1 46.1 C 62.1 45.7 62 45.5 61.8 45.3 C 61.7 45.1 61.5 45 61.2 45 C 60.9 45 60.6 45.1 60.4 45.3 C 60.3 45.5 60.2 45.8 60.2 46.1 C 60.16 46.13 60.2 48.2 60.2 48.2 L 59.6 48.2 Z " stroke="none" fill="#000"/>  </g>  <g id="Polygon376445">    <path d="M 2.4 39.9 C 1.6 39.9 0.9 39.6 0.4 39.1 C 0.4 39.1 0.7 38.7 0.7 38.7 C 1 38.9 1.2 39.1 1.5 39.2 C 1.8 39.3 2.1 39.4 2.4 39.4 C 2.7 39.4 3 39.3 3.2 39.1 C 3.4 39 3.5 38.8 3.5 38.5 C 3.5 38.5 3.5 38.5 3.5 38.5 C 3.5 38.3 3.4 38.1 3.2 38 C 3 37.8 2.7 37.7 2.2 37.6 C 1.6 37.5 1.2 37.3 1 37.1 C 0.7 36.9 0.6 36.6 0.6 36.2 C 0.6 36.2 0.6 36.2 0.6 36.2 C 0.6 35.8 0.7 35.5 1 35.2 C 1.3 35 1.7 34.8 2.2 34.8 C 2.5 34.8 2.8 34.9 3.1 35 C 3.4 35.1 3.6 35.2 3.9 35.4 C 3.9 35.4 3.6 35.9 3.6 35.9 C 3.1 35.5 2.7 35.3 2.2 35.3 C 1.8 35.3 1.6 35.4 1.4 35.6 C 1.2 35.7 1.1 35.9 1.1 36.1 C 1.1 36.1 1.1 36.1 1.1 36.1 C 1.1 36.4 1.2 36.6 1.4 36.7 C 1.6 36.9 1.9 37 2.5 37.1 C 3 37.2 3.4 37.4 3.7 37.6 C 3.9 37.8 4 38.1 4 38.5 C 4 38.5 4 38.5 4 38.5 C 4 38.9 3.9 39.2 3.6 39.5 C 3.3 39.7 2.9 39.9 2.4 39.9 Z M 5.1 35.4 L 5.1 34.8 L 5.7 34.8 L 5.7 35.4 L 5.1 35.4 Z M 5.1 39.8 L 5.1 36.2 L 5.7 36.2 L 5.7 39.8 L 5.1 39.8 Z M 7 39.8 L 7 34.7 L 7.5 34.7 L 7.5 39.8 L 7 39.8 Z M 8.8 35.4 L 8.8 34.8 L 9.4 34.8 L 9.4 35.4 L 8.8 35.4 Z M 8.8 39.8 L 8.8 36.2 L 9.4 36.2 L 9.4 39.8 L 8.8 39.8 Z M 10.6 39.8 L 10.6 34.7 L 11.1 34.7 L 11.1 38.2 L 13.1 36.2 L 13.8 36.2 L 12.2 37.7 L 13.8 39.8 L 13.2 39.8 L 11.9 38.1 L 11.1 38.9 L 11.1 39.8 L 10.6 39.8 Z M 16.1 39.9 C 15.5 39.9 15.1 39.7 14.7 39.3 C 14.4 39 14.2 38.5 14.2 38 C 14.2 38 14.2 38 14.2 38 C 14.2 37.5 14.4 37 14.7 36.7 C 15.1 36.3 15.5 36.1 16.1 36.1 C 16.6 36.1 17.1 36.3 17.4 36.7 C 17.8 37 18 37.5 18 38 C 18 38 18 38 18 38 C 18 38.5 17.8 39 17.4 39.3 C 17.1 39.7 16.6 39.9 16.1 39.9 Z M 16.1 39.4 C 16.5 39.4 16.8 39.3 17 39 C 17.3 38.7 17.4 38.4 17.4 38 C 17.4 38 17.4 38 17.4 38 C 17.4 37.6 17.3 37.3 17 37 C 16.8 36.7 16.4 36.6 16.1 36.6 C 15.7 36.6 15.4 36.7 15.1 37 C 14.9 37.3 14.7 37.6 14.7 38 C 14.7 38 14.7 38 14.7 38 C 14.7 38.4 14.9 38.7 15.1 39 C 15.4 39.3 15.7 39.4 16.1 39.4 Z M 18.9 39.8 L 18.9 36.2 L 19.5 36.2 C 19.5 36.2 19.47 36.81 19.5 36.8 C 19.8 36.3 20.2 36.1 20.7 36.1 C 21.1 36.1 21.5 36.2 21.7 36.5 C 22 36.8 22.1 37.1 22.1 37.6 C 22.1 37.55 22.1 39.8 22.1 39.8 L 21.6 39.8 C 21.6 39.8 21.56 37.69 21.6 37.7 C 21.6 37.3 21.5 37.1 21.3 36.9 C 21.1 36.7 20.9 36.6 20.6 36.6 C 20.2 36.6 20 36.7 19.8 36.9 C 19.6 37.1 19.5 37.4 19.5 37.7 C 19.47 37.73 19.5 39.8 19.5 39.8 L 18.9 39.8 Z M 24.6 40.7 L 27.8 34.2 L 28.3 34.2 L 25.1 40.7 L 24.6 40.7 Z M 31.1 39.8 L 31.1 34.9 L 31.7 34.9 L 33.4 37.6 L 35.2 34.9 L 35.8 34.9 L 35.8 39.8 L 35.2 39.8 L 35.2 35.8 L 33.4 38.5 L 33.4 38.5 L 31.6 35.8 L 31.6 39.8 L 31.1 39.8 Z M 40.2 39.2 C 39.8 39.7 39.3 39.9 38.7 39.9 C 38.2 39.9 37.7 39.7 37.4 39.4 C 37 39 36.9 38.6 36.9 38 C 36.9 38 36.9 38 36.9 38 C 36.9 37.5 37 37 37.3 36.6 C 37.7 36.3 38.1 36.1 38.6 36.1 C 39.1 36.1 39.5 36.3 39.8 36.6 C 40.1 37 40.3 37.5 40.3 38 C 40.3 38.1 40.3 38.1 40.3 38.2 C 40.3 38.2 37.4 38.2 37.4 38.2 C 37.4 38.6 37.6 38.9 37.8 39.1 C 38.1 39.3 38.3 39.4 38.7 39.4 C 39.1 39.4 39.5 39.2 39.8 38.9 C 39.82 38.9 40.2 39.2 40.2 39.2 C 40.2 39.2 40.15 39.2 40.2 39.2 Z M 37.4 37.8 C 37.4 37.8 39.7 37.8 39.7 37.8 C 39.7 37.4 39.6 37.1 39.4 36.9 C 39.2 36.7 38.9 36.6 38.6 36.6 C 38.3 36.6 38 36.7 37.8 36.9 C 37.6 37.1 37.4 37.4 37.4 37.8 Z M 43.1 39.7 C 42.9 39.8 42.7 39.9 42.4 39.9 C 42.1 39.9 41.9 39.8 41.7 39.6 C 41.5 39.4 41.4 39.2 41.4 38.8 C 41.41 38.84 41.4 36.7 41.4 36.7 L 40.9 36.7 L 40.9 36.2 L 41.4 36.2 L 41.4 35.1 L 42 35.1 L 42 36.2 L 43.1 36.2 L 43.1 36.7 L 42 36.7 C 42 36.7 41.95 38.77 42 38.8 C 42 39.2 42.2 39.4 42.6 39.4 C 42.7 39.4 42.9 39.3 43.1 39.2 C 43.08 39.25 43.1 39.7 43.1 39.7 C 43.1 39.7 43.08 39.71 43.1 39.7 Z M 46.4 39.3 C 46.1 39.7 45.7 39.9 45.1 39.9 C 44.8 39.9 44.4 39.8 44.2 39.6 C 43.9 39.4 43.8 39.1 43.8 38.7 C 43.8 38.7 43.8 38.7 43.8 38.7 C 43.8 38.4 43.9 38.1 44.2 37.9 C 44.5 37.7 44.9 37.6 45.3 37.6 C 45.7 37.6 46.1 37.6 46.4 37.7 C 46.4 37.7 46.4 37.6 46.4 37.6 C 46.4 37.3 46.3 37 46.2 36.9 C 46 36.7 45.7 36.6 45.4 36.6 C 45 36.6 44.6 36.7 44.3 36.9 C 44.3 36.9 44.1 36.4 44.1 36.4 C 44.5 36.2 45 36.1 45.4 36.1 C 45.9 36.1 46.3 36.3 46.6 36.5 C 46.8 36.8 47 37.1 47 37.6 C 46.96 37.59 47 39.8 47 39.8 L 46.4 39.8 L 46.4 39.3 C 46.4 39.3 46.44 39.25 46.4 39.3 Z M 45.2 39.4 C 45.6 39.4 45.9 39.4 46.1 39.2 C 46.3 39 46.4 38.8 46.4 38.5 C 46.4 38.5 46.4 38.1 46.4 38.1 C 46.1 38 45.7 38 45.4 38 C 45 38 44.8 38 44.6 38.2 C 44.4 38.3 44.3 38.5 44.3 38.7 C 44.3 38.7 44.3 38.7 44.3 38.7 C 44.3 38.9 44.4 39.1 44.6 39.3 C 44.8 39.4 45 39.4 45.2 39.4 Z M 48.2 39.8 L 48.2 34.7 L 48.7 34.7 L 48.7 39.8 L 48.2 39.8 Z " stroke="none" fill="#000"/>  </g>  <g id="Polygon376444">    <path d="M 0.7 23 L 0.7 18.1 C 0.7 18.1 2.8 18.1 2.8 18.1 C 3.4 18.1 3.9 18.3 4.2 18.6 C 4.4 18.8 4.6 19.2 4.6 19.6 C 4.6 19.6 4.6 19.6 4.6 19.6 C 4.6 20 4.4 20.3 4.2 20.5 C 4 20.8 3.6 20.9 3.2 21 C 3.24 21 4.7 23 4.7 23 L 4.1 23 L 2.6 21.1 L 1.2 21.1 L 1.2 23 L 0.7 23 Z M 1.2 20.6 C 1.2 20.6 2.75 20.6 2.8 20.6 C 3.1 20.6 3.4 20.5 3.7 20.3 C 3.9 20.1 4 19.9 4 19.6 C 4 19.6 4 19.6 4 19.6 C 4 19.3 3.9 19 3.7 18.9 C 3.5 18.7 3.2 18.6 2.8 18.6 C 2.76 18.61 1.2 18.6 1.2 18.6 L 1.2 20.6 Z M 8.7 22.4 C 8.3 22.9 7.8 23.1 7.2 23.1 C 6.7 23.1 6.2 22.9 5.9 22.6 C 5.5 22.2 5.4 21.8 5.4 21.2 C 5.4 21.2 5.4 21.2 5.4 21.2 C 5.4 20.7 5.5 20.2 5.9 19.8 C 6.2 19.5 6.6 19.3 7.1 19.3 C 7.6 19.3 8 19.5 8.3 19.8 C 8.6 20.2 8.8 20.7 8.8 21.2 C 8.8 21.3 8.8 21.3 8.8 21.4 C 8.8 21.4 5.9 21.4 5.9 21.4 C 6 21.8 6.1 22.1 6.3 22.3 C 6.6 22.5 6.9 22.6 7.2 22.6 C 7.6 22.6 8 22.4 8.3 22.1 C 8.33 22.1 8.7 22.4 8.7 22.4 C 8.7 22.4 8.67 22.4 8.7 22.4 Z M 5.9 21 C 5.9 21 8.2 21 8.2 21 C 8.2 20.6 8.1 20.3 7.9 20.1 C 7.7 19.9 7.4 19.8 7.1 19.8 C 6.8 19.8 6.5 19.9 6.3 20.1 C 6.1 20.3 6 20.6 5.9 21 Z M 9.7 23 L 9.7 19.4 L 10.3 19.4 C 10.3 19.4 10.28 20.01 10.3 20 C 10.6 19.5 11 19.3 11.5 19.3 C 11.9 19.3 12.3 19.4 12.5 19.7 C 12.8 20 12.9 20.3 12.9 20.8 C 12.9 20.75 12.9 23 12.9 23 L 12.4 23 C 12.4 23 12.36 20.89 12.4 20.9 C 12.4 20.5 12.3 20.3 12.1 20.1 C 11.9 19.9 11.7 19.8 11.4 19.8 C 11 19.8 10.8 19.9 10.6 20.1 C 10.4 20.3 10.3 20.6 10.3 20.9 C 10.28 20.93 10.3 23 10.3 23 L 9.7 23 Z M 14 23 L 14 17.9 L 14.6 17.9 L 14.6 21.4 L 16.5 19.4 L 17.2 19.4 L 15.7 20.9 L 17.3 23 L 16.6 23 L 15.3 21.3 L 14.6 22.1 L 14.6 23 L 14 23 Z M 18 20.1 L 18 19.4 L 18.6 19.4 L 18.6 20.1 L 18 20.1 Z M 18 23 L 18 22.3 L 18.6 22.3 L 18.6 23 L 18 23 Z M 23.4 23 L 21.6 18.1 L 22.2 18.1 L 23.6 22.2 L 25 18.1 L 25.4 18.1 L 26.8 22.2 L 28.2 18.1 L 28.7 18.1 L 27 23 L 26.5 23 L 25.2 19.1 L 23.8 23 L 23.4 23 Z M 31.6 22.5 C 31.2 22.9 30.8 23.1 30.2 23.1 C 29.9 23.1 29.6 23 29.3 22.8 C 29 22.6 28.9 22.3 28.9 21.9 C 28.9 21.9 28.9 21.9 28.9 21.9 C 28.9 21.6 29 21.3 29.3 21.1 C 29.6 20.9 30 20.8 30.4 20.8 C 30.8 20.8 31.2 20.8 31.6 20.9 C 31.6 20.9 31.6 20.8 31.6 20.8 C 31.6 20.5 31.5 20.2 31.3 20.1 C 31.1 19.9 30.8 19.8 30.5 19.8 C 30.1 19.8 29.7 19.9 29.4 20.1 C 29.4 20.1 29.2 19.6 29.2 19.6 C 29.6 19.4 30.1 19.3 30.5 19.3 C 31 19.3 31.4 19.5 31.7 19.7 C 32 20 32.1 20.3 32.1 20.8 C 32.07 20.79 32.1 23 32.1 23 L 31.6 23 L 31.6 22.5 C 31.6 22.5 31.56 22.45 31.6 22.5 Z M 30.4 22.6 C 30.7 22.6 31 22.6 31.2 22.4 C 31.4 22.2 31.6 22 31.6 21.7 C 31.6 21.7 31.6 21.3 31.6 21.3 C 31.2 21.2 30.8 21.2 30.5 21.2 C 30.2 21.2 29.9 21.2 29.7 21.4 C 29.5 21.5 29.4 21.7 29.4 21.9 C 29.4 21.9 29.4 21.9 29.4 21.9 C 29.4 22.1 29.5 22.3 29.7 22.5 C 29.9 22.6 30.1 22.6 30.4 22.6 Z M 33.2 23 L 33.2 19.4 L 33.8 19.4 C 33.8 19.4 33.76 20.33 33.8 20.3 C 33.9 20 34.1 19.8 34.4 19.6 C 34.6 19.4 34.9 19.3 35.2 19.3 C 35.24 19.32 35.2 19.9 35.2 19.9 C 35.2 19.9 35.2 19.9 35.2 19.9 C 34.8 19.9 34.4 20 34.2 20.3 C 33.9 20.6 33.8 21 33.8 21.6 C 33.76 21.56 33.8 23 33.8 23 L 33.2 23 Z M 36.1 23 L 36.1 19.4 L 36.6 19.4 C 36.6 19.4 36.6 19.99 36.6 20 C 36.7 19.8 36.9 19.6 37.1 19.5 C 37.3 19.4 37.5 19.3 37.8 19.3 C 38.3 19.3 38.7 19.5 38.9 20 C 39.2 19.5 39.7 19.3 40.2 19.3 C 40.6 19.3 40.9 19.4 41.2 19.7 C 41.4 20 41.5 20.3 41.5 20.8 C 41.54 20.76 41.5 23 41.5 23 L 41 23 C 41 23 41.01 20.89 41 20.9 C 41 20.5 40.9 20.3 40.8 20.1 C 40.6 19.9 40.4 19.8 40.1 19.8 C 39.8 19.8 39.6 19.9 39.4 20.1 C 39.2 20.3 39.1 20.6 39.1 20.9 C 39.07 20.91 39.1 23 39.1 23 L 38.5 23 C 38.5 23 38.53 20.87 38.5 20.9 C 38.5 20.5 38.5 20.3 38.3 20.1 C 38.1 19.9 37.9 19.8 37.6 19.8 C 37.3 19.8 37.1 19.9 36.9 20.1 C 36.7 20.3 36.6 20.6 36.6 20.9 C 36.6 20.93 36.6 23 36.6 23 L 36.1 23 Z M 49.1 22.3 C 48.6 22.8 47.9 23.1 47.2 23.1 C 46.4 23.1 45.8 22.8 45.3 22.4 C 44.9 21.9 44.7 21.3 44.7 20.6 C 44.7 20.6 44.7 20.5 44.7 20.5 C 44.7 19.9 44.9 19.3 45.4 18.8 C 45.8 18.3 46.4 18 47.1 18 C 47.5 18 47.9 18.1 48.1 18.2 C 48.4 18.3 48.7 18.4 49 18.7 C 49 18.7 48.6 19.1 48.6 19.1 C 48.2 18.7 47.7 18.5 47.1 18.5 C 46.6 18.5 46.1 18.7 45.8 19.1 C 45.4 19.5 45.2 20 45.2 20.5 C 45.2 20.5 45.2 20.5 45.2 20.5 C 45.2 21.1 45.4 21.6 45.8 22 C 46.1 22.4 46.6 22.6 47.2 22.6 C 47.7 22.6 48.2 22.4 48.6 22.1 C 48.59 22.1 48.6 20.9 48.6 20.9 L 47.1 20.9 L 47.1 20.4 L 49.1 20.4 L 49.1 22.3 C 49.1 22.3 49.13 22.33 49.1 22.3 Z M 50.3 23 L 50.3 19.4 L 50.8 19.4 C 50.8 19.4 50.82 20.33 50.8 20.3 C 51 20 51.2 19.8 51.4 19.6 C 51.7 19.4 52 19.3 52.3 19.3 C 52.3 19.32 52.3 19.9 52.3 19.9 C 52.3 19.9 52.25 19.9 52.3 19.9 C 51.8 19.9 51.5 20 51.2 20.3 C 51 20.6 50.8 21 50.8 21.6 C 50.82 21.56 50.8 23 50.8 23 L 50.3 23 Z M 56 22.4 C 55.6 22.9 55.1 23.1 54.5 23.1 C 54 23.1 53.6 22.9 53.3 22.6 C 52.9 22.2 52.7 21.8 52.7 21.2 C 52.7 21.2 52.7 21.2 52.7 21.2 C 52.7 20.7 52.9 20.2 53.2 19.8 C 53.6 19.5 54 19.3 54.5 19.3 C 55 19.3 55.4 19.5 55.7 19.8 C 56 20.2 56.2 20.7 56.2 21.2 C 56.2 21.3 56.2 21.3 56.2 21.4 C 56.2 21.4 53.3 21.4 53.3 21.4 C 53.3 21.8 53.5 22.1 53.7 22.3 C 53.9 22.5 54.2 22.6 54.6 22.6 C 55 22.6 55.4 22.4 55.7 22.1 C 55.7 22.1 56 22.4 56 22.4 C 56 22.4 56.03 22.4 56 22.4 Z M 53.3 21 C 53.3 21 55.6 21 55.6 21 C 55.6 20.6 55.5 20.3 55.3 20.1 C 55.1 19.9 54.8 19.8 54.5 19.8 C 54.1 19.8 53.9 19.9 53.7 20.1 C 53.4 20.3 53.3 20.6 53.3 21 Z M 58.5 22.4 L 59.6 19.4 L 60.2 19.4 C 60.2 19.4 58.69 23.12 58.7 23.1 C 58.5 23.5 58.4 23.8 58.2 23.9 C 58 24.1 57.8 24.1 57.5 24.1 C 57.2 24.1 57 24.1 56.7 24 C 56.7 24 56.9 23.5 56.9 23.5 C 57.1 23.6 57.3 23.7 57.5 23.7 C 57.6 23.7 57.8 23.6 57.9 23.5 C 58 23.4 58.1 23.2 58.2 23 C 58.21 22.99 56.6 19.4 56.6 19.4 L 57.2 19.4 L 58.5 22.4 Z " stroke="none" fill="#000"/>  </g>  <g id="Polygon376443">    <path d="M 3 9.3 L 3 8.6 L 3.6 8.6 L 3.6 9.3 L 3 9.3 Z M 1.7 9.3 L 1.7 8.6 L 2.3 8.6 L 2.3 9.3 L 1.7 9.3 Z M 2.7 14.7 C 2 14.7 1.5 14.5 1.2 14.1 C 0.8 13.7 0.6 13.2 0.6 12.5 C 0.62 12.55 0.6 9.7 0.6 9.7 L 1.2 9.7 C 1.2 9.7 1.17 12.51 1.2 12.5 C 1.2 13 1.3 13.4 1.6 13.7 C 1.8 14 2.2 14.2 2.7 14.2 C 3.1 14.2 3.5 14 3.8 13.8 C 4 13.5 4.1 13.1 4.1 12.5 C 4.14 12.55 4.1 9.7 4.1 9.7 L 4.7 9.7 C 4.7 9.7 4.7 12.51 4.7 12.5 C 4.7 13.2 4.5 13.7 4.1 14.1 C 3.8 14.5 3.3 14.7 2.7 14.7 Z M 5.9 14.6 L 5.9 11 L 6.5 11 C 6.5 11 6.45 11.93 6.5 11.9 C 6.6 11.6 6.8 11.4 7 11.2 C 7.3 11 7.6 10.9 7.9 10.9 C 7.93 10.92 7.9 11.5 7.9 11.5 C 7.9 11.5 7.89 11.5 7.9 11.5 C 7.5 11.5 7.1 11.6 6.9 11.9 C 6.6 12.2 6.5 12.6 6.5 13.2 C 6.45 13.16 6.5 14.6 6.5 14.6 L 5.9 14.6 Z M 10.6 10.4 L 10.6 9.8 L 11.2 9.8 L 11.2 10.4 L 10.6 10.4 Z M 9.3 10.4 L 9.3 9.8 L 10 9.8 L 10 10.4 L 9.3 10.4 Z M 11.3 14 C 11 14.4 10.6 14.7 10.1 14.7 C 9.7 14.7 9.3 14.5 9.1 14.3 C 8.8 14 8.7 13.7 8.7 13.2 C 8.69 13.23 8.7 11 8.7 11 L 9.2 11 C 9.2 11 9.23 13.09 9.2 13.1 C 9.2 13.4 9.3 13.7 9.5 13.9 C 9.7 14.1 9.9 14.2 10.2 14.2 C 10.5 14.2 10.8 14.1 11 13.9 C 11.2 13.7 11.3 13.4 11.3 13.1 C 11.32 13.05 11.3 11 11.3 11 L 11.9 11 L 11.9 14.6 L 11.3 14.6 L 11.3 14 C 11.3 14 11.32 13.97 11.3 14 Z M 13.1 14.6 L 13.1 11 L 13.6 11 C 13.6 11 13.6 11.61 13.6 11.6 C 13.9 11.1 14.3 10.9 14.8 10.9 C 15.3 10.9 15.6 11 15.9 11.3 C 16.1 11.6 16.2 11.9 16.2 12.4 C 16.23 12.35 16.2 14.6 16.2 14.6 L 15.7 14.6 C 15.7 14.6 15.69 12.49 15.7 12.5 C 15.7 12.1 15.6 11.9 15.4 11.7 C 15.2 11.5 15 11.4 14.7 11.4 C 14.4 11.4 14.1 11.5 13.9 11.7 C 13.7 11.9 13.6 12.2 13.6 12.5 C 13.6 12.53 13.6 14.6 13.6 14.6 L 13.1 14.6 Z M 19.6 14.6 L 19.6 9.7 L 20.1 9.7 L 20.1 12.6 L 22.9 9.7 L 23.7 9.7 L 21.5 11.8 L 23.7 14.6 L 23 14.6 L 21.2 12.2 L 20.1 13.3 L 20.1 14.6 L 19.6 14.6 Z M 25.9 14.7 C 25.4 14.7 25 14.5 24.6 14.1 C 24.3 13.8 24.1 13.3 24.1 12.8 C 24.1 12.8 24.1 12.8 24.1 12.8 C 24.1 12.3 24.3 11.8 24.6 11.5 C 25 11.1 25.4 10.9 26 10.9 C 26.5 10.9 26.9 11.1 27.3 11.5 C 27.7 11.8 27.8 12.3 27.8 12.8 C 27.8 12.8 27.8 12.8 27.8 12.8 C 27.8 13.3 27.7 13.8 27.3 14.1 C 26.9 14.5 26.5 14.7 25.9 14.7 Z M 26 14.2 C 26.3 14.2 26.7 14.1 26.9 13.8 C 27.2 13.5 27.3 13.2 27.3 12.8 C 27.3 12.8 27.3 12.8 27.3 12.8 C 27.3 12.4 27.2 12.1 26.9 11.8 C 26.6 11.5 26.3 11.4 25.9 11.4 C 25.6 11.4 25.2 11.5 25 11.8 C 24.8 12.1 24.6 12.4 24.6 12.8 C 24.6 12.8 24.6 12.8 24.6 12.8 C 24.6 13.2 24.8 13.5 25 13.8 C 25.3 14.1 25.6 14.2 26 14.2 Z M 31.7 13.9 C 31.4 14.4 30.9 14.7 30.3 14.7 C 29.9 14.7 29.5 14.5 29.1 14.2 C 28.8 13.8 28.6 13.4 28.6 12.8 C 28.6 12.8 28.6 12.8 28.6 12.8 C 28.6 12.2 28.8 11.8 29.1 11.4 C 29.5 11.1 29.9 10.9 30.3 10.9 C 30.9 10.9 31.4 11.2 31.7 11.7 C 31.72 11.67 31.7 9.5 31.7 9.5 L 32.3 9.5 L 32.3 14.6 L 31.7 14.6 L 31.7 13.9 C 31.7 13.9 31.72 13.87 31.7 13.9 Z M 30.4 14.2 C 30.8 14.2 31.1 14.1 31.4 13.8 C 31.6 13.5 31.7 13.2 31.7 12.8 C 31.7 12.8 31.7 12.8 31.7 12.8 C 31.7 12.4 31.6 12 31.4 11.8 C 31.1 11.5 30.8 11.4 30.4 11.4 C 30.1 11.4 29.8 11.5 29.5 11.8 C 29.3 12 29.2 12.4 29.2 12.8 C 29.2 12.8 29.2 12.8 29.2 12.8 C 29.2 13.2 29.3 13.6 29.5 13.8 C 29.8 14.1 30.1 14.2 30.4 14.2 Z M 36 14 C 35.7 14.4 35.3 14.7 34.8 14.7 C 34.4 14.7 34 14.5 33.8 14.3 C 33.5 14 33.4 13.7 33.4 13.2 C 33.41 13.23 33.4 11 33.4 11 L 33.9 11 C 33.9 11 33.95 13.09 33.9 13.1 C 33.9 13.4 34 13.7 34.2 13.9 C 34.4 14.1 34.6 14.2 35 14.2 C 35.3 14.2 35.5 14.1 35.7 13.9 C 35.9 13.7 36 13.4 36 13.1 C 36.04 13.05 36 11 36 11 L 36.6 11 L 36.6 14.6 L 36 14.6 L 36 14 C 36 14 36.04 13.97 36 14 Z M 37.7 11.7 L 37.7 11 L 38.4 11 L 38.4 11.7 L 37.7 11.7 Z M 37.7 14.6 L 37.7 13.9 L 38.4 13.9 L 38.4 14.6 L 37.7 14.6 Z M 41.5 14.6 L 41.5 13.8 L 44.2 10.6 L 41.6 10.6 L 41.6 9.7 L 45.6 9.7 L 45.6 10.5 L 42.9 13.7 L 45.6 13.7 L 45.6 14.6 L 41.5 14.6 Z M 46.6 14.6 L 46.6 9.7 C 46.6 9.7 48.51 9.7 48.5 9.7 C 49.3 9.7 49.9 9.9 50.4 10.4 C 50.9 10.9 51.1 11.4 51.1 12.1 C 51.1 12.1 51.1 12.1 51.1 12.1 C 51.1 12.8 50.9 13.4 50.4 13.9 C 49.9 14.4 49.3 14.6 48.5 14.6 C 48.51 14.6 46.6 14.6 46.6 14.6 Z M 48.5 10.7 C 48.51 10.67 47.7 10.7 47.7 10.7 L 47.7 13.6 C 47.7 13.6 48.51 13.63 48.5 13.6 C 48.9 13.6 49.3 13.5 49.6 13.2 C 49.8 13 50 12.6 50 12.2 C 50 12.2 50 12.1 50 12.1 C 50 11.7 49.8 11.4 49.6 11.1 C 49.3 10.8 48.9 10.7 48.5 10.7 Z M 55.8 14.7 C 55 14.7 54.3 14.4 53.9 13.8 C 53.9 13.8 54.6 13.1 54.6 13.1 C 54.9 13.5 55.3 13.7 55.8 13.7 C 56 13.7 56.2 13.7 56.3 13.6 C 56.4 13.4 56.5 13.3 56.5 13.1 C 56.5 13.1 56.5 13.1 56.5 13.1 C 56.5 12.9 56.4 12.8 56.2 12.6 C 56 12.5 55.8 12.5 55.5 12.5 C 55.51 12.49 55.1 12.5 55.1 12.5 L 54.9 11.8 L 56.1 10.6 L 54.1 10.6 L 54.1 9.7 L 57.4 9.7 L 57.4 10.5 C 57.4 10.5 56.21 11.69 56.2 11.7 C 57.1 11.8 57.5 12.3 57.5 13.1 C 57.5 13.1 57.5 13.1 57.5 13.1 C 57.5 13.6 57.4 13.9 57 14.2 C 56.7 14.5 56.3 14.7 55.8 14.7 Z M 60.1 14.7 C 59.3 14.7 58.7 14.4 58.2 13.8 C 58.2 13.8 58.9 13.1 58.9 13.1 C 59.3 13.5 59.7 13.7 60.1 13.7 C 60.3 13.7 60.5 13.7 60.6 13.6 C 60.8 13.4 60.8 13.3 60.8 13.1 C 60.8 13.1 60.8 13.1 60.8 13.1 C 60.8 12.9 60.7 12.8 60.6 12.6 C 60.4 12.5 60.2 12.5 59.9 12.5 C 59.86 12.49 59.4 12.5 59.4 12.5 L 59.2 11.8 L 60.4 10.6 L 58.5 10.6 L 58.5 9.7 L 61.8 9.7 L 61.8 10.5 C 61.8 10.5 60.56 11.69 60.6 11.7 C 61.4 11.8 61.9 12.3 61.9 13.1 C 61.9 13.1 61.9 13.1 61.9 13.1 C 61.9 13.6 61.7 13.9 61.4 14.2 C 61.1 14.5 60.6 14.7 60.1 14.7 Z M 62.6 14.6 L 62.6 13.7 C 62.6 13.7 64.25 12.41 64.3 12.4 C 64.6 12.1 64.8 11.9 64.9 11.8 C 65 11.6 65.1 11.4 65.1 11.2 C 65.1 11 65 10.9 64.9 10.8 C 64.8 10.7 64.6 10.6 64.4 10.6 C 64.3 10.6 64.1 10.6 63.9 10.7 C 63.8 10.8 63.6 11 63.4 11.3 C 63.4 11.3 62.7 10.6 62.7 10.6 C 62.9 10.3 63.2 10 63.5 9.9 C 63.8 9.7 64.1 9.6 64.5 9.6 C 65 9.6 65.4 9.8 65.7 10 C 66 10.3 66.2 10.7 66.2 11.1 C 66.2 11.1 66.2 11.2 66.2 11.2 C 66.2 11.5 66.1 11.9 65.9 12.1 C 65.7 12.4 65.4 12.7 64.9 13.1 C 64.91 13.05 64.1 13.7 64.1 13.7 L 66.2 13.7 L 66.2 14.6 L 62.6 14.6 Z M 69.2 14.7 C 68.5 14.7 68 14.4 67.6 14 C 67.2 13.5 67 12.9 67 12.2 C 67 12.2 67 12.1 67 12.1 C 67 11.4 67.2 10.8 67.6 10.3 C 68 9.9 68.6 9.6 69.2 9.6 C 69.8 9.6 70.4 9.9 70.8 10.3 C 71.2 10.8 71.4 11.4 71.4 12.1 C 71.4 12.1 71.4 12.1 71.4 12.1 C 71.4 12.9 71.2 13.5 70.8 14 C 70.4 14.4 69.8 14.7 69.2 14.7 Z M 68.1 12.1 C 68.1 12.6 68.2 13 68.4 13.3 C 68.6 13.6 68.9 13.7 69.2 13.7 C 69.5 13.7 69.8 13.6 70 13.3 C 70.2 13 70.3 12.6 70.3 12.2 C 70.3 12.2 70.3 12.1 70.3 12.1 C 70.3 11.7 70.2 11.3 70 11 C 69.8 10.7 69.5 10.6 69.2 10.6 C 68.9 10.6 68.6 10.7 68.4 11 C 68.2 11.3 68.1 11.7 68.1 12.1 C 68.12 12.14 68.1 12.1 68.1 12.1 C 68.1 12.1 68.12 12.15 68.1 12.1 Z M 72 14.6 L 72 13.7 C 72 13.7 73.65 12.41 73.7 12.4 C 74 12.1 74.2 11.9 74.3 11.8 C 74.4 11.6 74.5 11.4 74.5 11.2 C 74.5 11 74.4 10.9 74.3 10.8 C 74.2 10.7 74 10.6 73.8 10.6 C 73.7 10.6 73.5 10.6 73.3 10.7 C 73.2 10.8 73 11 72.8 11.3 C 72.8 11.3 72.1 10.6 72.1 10.6 C 72.3 10.3 72.6 10 72.9 9.9 C 73.2 9.7 73.5 9.6 73.9 9.6 C 74.4 9.6 74.8 9.8 75.1 10 C 75.4 10.3 75.6 10.7 75.6 11.1 C 75.6 11.1 75.6 11.2 75.6 11.2 C 75.6 11.5 75.5 11.9 75.3 12.1 C 75.1 12.4 74.8 12.7 74.3 13.1 C 74.31 13.05 73.5 13.7 73.5 13.7 L 75.6 13.7 L 75.6 14.6 L 72 14.6 Z M 78.2 14.7 C 77.4 14.7 76.8 14.4 76.3 13.8 C 76.3 13.8 77 13.1 77 13.1 C 77.4 13.5 77.8 13.7 78.2 13.7 C 78.4 13.7 78.6 13.7 78.7 13.6 C 78.9 13.4 78.9 13.3 78.9 13.1 C 78.9 13.1 78.9 13.1 78.9 13.1 C 78.9 12.9 78.8 12.8 78.7 12.6 C 78.5 12.5 78.3 12.5 78 12.5 C 77.96 12.49 77.5 12.5 77.5 12.5 L 77.3 11.8 L 78.5 10.6 L 76.6 10.6 L 76.6 9.7 L 79.9 9.7 L 79.9 10.5 C 79.9 10.5 78.66 11.69 78.7 11.7 C 79.5 11.8 80 12.3 80 13.1 C 80 13.1 80 13.1 80 13.1 C 80 13.6 79.8 13.9 79.5 14.2 C 79.2 14.5 78.8 14.7 78.2 14.7 Z " stroke="none" fill="#000"/>  </g>  <g id="Polygon376442">    <path d="M 2 5.6 L 2 3.7 L 0.1 0.7 L 1.3 0.7 L 2.5 2.7 L 3.7 0.7 L 4.9 0.7 L 3 3.6 L 3 5.6 L 2 5.6 Z M 7.3 5.1 C 7 5.5 6.6 5.7 6.2 5.7 C 5.8 5.7 5.5 5.5 5.3 5.3 C 5 5.1 4.9 4.7 4.9 4.3 C 4.93 4.28 4.9 1.8 4.9 1.8 L 6 1.8 C 6 1.8 6 3.94 6 3.9 C 6 4.4 6.2 4.7 6.6 4.7 C 6.9 4.7 7 4.6 7.1 4.5 C 7.2 4.4 7.3 4.2 7.3 3.9 C 7.31 3.94 7.3 1.8 7.3 1.8 L 8.4 1.8 L 8.4 5.6 L 7.3 5.6 L 7.3 5.1 C 7.3 5.1 7.31 5.07 7.3 5.1 Z M 9.3 5.6 L 9.3 1.8 L 10.4 1.8 C 10.4 1.8 10.39 2.38 10.4 2.4 C 10.7 2 11.1 1.8 11.5 1.8 C 12 1.8 12.4 2 12.6 2.4 C 12.9 2 13.3 1.8 13.8 1.8 C 14.2 1.8 14.5 1.9 14.7 2.1 C 14.9 2.4 15 2.7 15 3.2 C 15.05 3.16 15 5.6 15 5.6 L 14 5.6 C 14 5.6 13.99 3.51 14 3.5 C 14 3 13.8 2.7 13.4 2.7 C 13.2 2.7 13 2.8 12.9 2.9 C 12.8 3.1 12.7 3.3 12.7 3.5 C 12.72 3.51 12.7 5.6 12.7 5.6 L 11.7 5.6 C 11.7 5.6 11.65 3.51 11.7 3.5 C 11.7 3 11.4 2.7 11 2.7 C 10.8 2.7 10.7 2.8 10.6 2.9 C 10.4 3.1 10.4 3.3 10.4 3.5 C 10.39 3.51 10.4 5.6 10.4 5.6 L 9.3 5.6 Z M 18.3 5.1 C 18 5.5 17.6 5.7 17.2 5.7 C 16.8 5.7 16.5 5.5 16.3 5.3 C 16.1 5.1 15.9 4.7 15.9 4.3 C 15.95 4.28 15.9 1.8 15.9 1.8 L 17 1.8 C 17 1.8 17.01 3.94 17 3.9 C 17 4.4 17.2 4.7 17.7 4.7 C 17.9 4.7 18 4.6 18.1 4.5 C 18.3 4.4 18.3 4.2 18.3 3.9 C 18.32 3.94 18.3 1.8 18.3 1.8 L 19.4 1.8 L 19.4 5.6 L 18.3 5.6 L 18.3 5.1 C 18.3 5.1 18.32 5.07 18.3 5.1 Z M 20.3 5.6 L 20.3 1.8 L 21.4 1.8 C 21.4 1.8 21.4 2.6 21.4 2.6 C 21.6 2 22 1.8 22.6 1.8 C 22.6 1.78 22.6 2.9 22.6 2.9 C 22.6 2.9 22.54 2.89 22.5 2.9 C 22.2 2.9 21.9 3 21.7 3.2 C 21.5 3.4 21.4 3.8 21.4 4.2 C 21.4 4.21 21.4 5.6 21.4 5.6 L 20.3 5.6 Z M 25.4 5.4 C 25.1 5.6 24.8 5.7 24.5 5.7 C 24.2 5.7 23.9 5.6 23.7 5.4 C 23.5 5.2 23.4 4.9 23.4 4.5 C 23.44 4.54 23.4 2.8 23.4 2.8 L 23 2.8 L 23 1.8 L 23.4 1.8 L 23.4 0.9 L 24.5 0.9 L 24.5 1.8 L 25.4 1.8 L 25.4 2.8 L 24.5 2.8 C 24.5 2.8 24.5 4.36 24.5 4.4 C 24.5 4.6 24.6 4.7 24.8 4.7 C 25 4.7 25.2 4.7 25.4 4.6 C 25.37 4.59 25.4 5.4 25.4 5.4 C 25.4 5.4 25.37 5.45 25.4 5.4 Z M 28.4 5.2 C 28.1 5.5 27.7 5.7 27.2 5.7 C 26.9 5.7 26.6 5.6 26.3 5.4 C 26.1 5.2 25.9 4.9 25.9 4.5 C 25.9 4.5 25.9 4.5 25.9 4.5 C 25.9 4.1 26.1 3.8 26.4 3.6 C 26.6 3.4 27 3.3 27.5 3.3 C 27.8 3.3 28.1 3.4 28.4 3.5 C 28.4 3.5 28.4 3.4 28.4 3.4 C 28.4 2.9 28.1 2.7 27.6 2.7 C 27.2 2.7 26.9 2.8 26.5 2.9 C 26.5 2.9 26.3 2.1 26.3 2.1 C 26.7 1.9 27.2 1.8 27.7 1.8 C 28.3 1.8 28.7 1.9 29 2.2 C 29.3 2.5 29.4 2.9 29.4 3.4 C 29.39 3.42 29.4 5.6 29.4 5.6 L 28.4 5.6 L 28.4 5.2 C 28.4 5.2 28.36 5.19 28.4 5.2 Z M 27.6 4.9 C 27.8 4.9 28 4.9 28.2 4.8 C 28.3 4.6 28.4 4.5 28.4 4.3 C 28.4 4.3 28.4 4.1 28.4 4.1 C 28.2 4 27.9 3.9 27.7 3.9 C 27.5 3.9 27.3 4 27.2 4.1 C 27 4.2 27 4.3 27 4.5 C 27 4.5 27 4.5 27 4.5 C 27 4.6 27 4.7 27.1 4.8 C 27.2 4.9 27.4 4.9 27.6 4.9 Z M 32.5 5.6 L 32.5 0.7 L 33.6 0.7 L 33.6 2.8 L 35.6 0.7 L 36.9 0.7 L 34.9 2.8 L 37 5.6 L 35.7 5.6 L 34.2 3.5 L 33.6 4.1 L 33.6 5.6 L 32.5 5.6 Z M 39.6 5.2 C 39.4 5.5 39 5.7 38.5 5.7 C 38.1 5.7 37.8 5.6 37.6 5.4 C 37.3 5.2 37.2 4.9 37.2 4.5 C 37.2 4.5 37.2 4.5 37.2 4.5 C 37.2 4.1 37.4 3.8 37.6 3.6 C 37.9 3.4 38.3 3.3 38.7 3.3 C 39 3.3 39.3 3.4 39.7 3.5 C 39.7 3.5 39.7 3.4 39.7 3.4 C 39.7 2.9 39.4 2.7 38.8 2.7 C 38.5 2.7 38.2 2.8 37.8 2.9 C 37.8 2.9 37.5 2.1 37.5 2.1 C 38 1.9 38.5 1.8 39 1.8 C 39.6 1.8 40 1.9 40.3 2.2 C 40.5 2.5 40.7 2.9 40.7 3.4 C 40.68 3.42 40.7 5.6 40.7 5.6 L 39.6 5.6 L 39.6 5.2 C 39.6 5.2 39.65 5.19 39.6 5.2 Z M 38.8 4.9 C 39.1 4.9 39.3 4.9 39.4 4.8 C 39.6 4.6 39.7 4.5 39.7 4.3 C 39.7 4.3 39.7 4.1 39.7 4.1 C 39.5 4 39.2 3.9 39 3.9 C 38.8 3.9 38.6 4 38.5 4.1 C 38.3 4.2 38.3 4.3 38.3 4.5 C 38.3 4.5 38.3 4.5 38.3 4.5 C 38.3 4.6 38.3 4.7 38.4 4.8 C 38.5 4.9 38.7 4.9 38.8 4.9 Z M 41.6 6.7 L 41.6 1.8 L 42.7 1.8 C 42.7 1.8 42.66 2.39 42.7 2.4 C 43 2 43.3 1.8 43.8 1.8 C 44.3 1.8 44.7 2 45 2.3 C 45.4 2.6 45.5 3.1 45.5 3.7 C 45.5 3.7 45.5 3.7 45.5 3.7 C 45.5 4.3 45.4 4.8 45 5.1 C 44.7 5.5 44.3 5.7 43.8 5.7 C 43.4 5.7 43 5.5 42.7 5.1 C 42.66 5.11 42.7 6.7 42.7 6.7 L 41.6 6.7 Z M 42.6 3.7 C 42.6 4 42.7 4.3 42.9 4.5 C 43.1 4.7 43.3 4.8 43.6 4.8 C 43.8 4.8 44 4.7 44.2 4.5 C 44.4 4.3 44.5 4 44.5 3.7 C 44.5 3.7 44.5 3.7 44.5 3.7 C 44.5 3.4 44.4 3.2 44.2 3 C 44 2.8 43.8 2.7 43.6 2.7 C 43.3 2.7 43.1 2.8 42.9 3 C 42.7 3.2 42.6 3.4 42.6 3.7 C 42.64 3.72 42.6 3.7 42.6 3.7 C 42.6 3.7 42.64 3.73 42.6 3.7 Z M 46.4 5.6 L 46.4 0.5 L 47.4 0.5 L 47.4 5.6 L 46.4 5.6 Z M 50.6 5.2 C 50.3 5.5 50 5.7 49.5 5.7 C 49.1 5.7 48.8 5.6 48.6 5.4 C 48.3 5.2 48.2 4.9 48.2 4.5 C 48.2 4.5 48.2 4.5 48.2 4.5 C 48.2 4.1 48.3 3.8 48.6 3.6 C 48.9 3.4 49.3 3.3 49.7 3.3 C 50 3.3 50.3 3.4 50.6 3.5 C 50.6 3.5 50.6 3.4 50.6 3.4 C 50.6 2.9 50.4 2.7 49.8 2.7 C 49.5 2.7 49.1 2.8 48.8 2.9 C 48.8 2.9 48.5 2.1 48.5 2.1 C 49 1.9 49.5 1.8 50 1.8 C 50.6 1.8 51 1.9 51.3 2.2 C 51.5 2.5 51.7 2.9 51.7 3.4 C 51.66 3.42 51.7 5.6 51.7 5.6 L 50.6 5.6 L 50.6 5.2 C 50.6 5.2 50.63 5.19 50.6 5.2 Z M 49.8 4.9 C 50.1 4.9 50.3 4.9 50.4 4.8 C 50.6 4.6 50.7 4.5 50.7 4.3 C 50.7 4.3 50.7 4.1 50.7 4.1 C 50.4 4 50.2 3.9 50 3.9 C 49.7 3.9 49.6 4 49.4 4.1 C 49.3 4.2 49.2 4.3 49.2 4.5 C 49.2 4.5 49.2 4.5 49.2 4.5 C 49.2 4.6 49.3 4.7 49.4 4.8 C 49.5 4.9 49.6 4.9 49.8 4.9 Z M 52.6 5.6 L 52.6 1.8 L 53.6 1.8 C 53.6 1.8 53.64 2.6 53.6 2.6 C 53.9 2 54.3 1.8 54.8 1.8 C 54.84 1.78 54.8 2.9 54.8 2.9 C 54.8 2.9 54.78 2.89 54.8 2.9 C 54.4 2.9 54.1 3 53.9 3.2 C 53.7 3.4 53.6 3.8 53.6 4.2 C 53.64 4.21 53.6 5.6 53.6 5.6 L 52.6 5.6 Z M 55.6 5.6 L 55.6 1.8 L 56.6 1.8 L 56.6 5.6 L 55.6 5.6 Z M 62.1 5.9 C 62.1 5.9 61.6 6.6 61.6 6.6 C 60.9 6.2 60.5 5.8 60.1 5.3 C 59.8 4.8 59.7 4.3 59.7 3.6 C 59.7 3.6 59.7 3.6 59.7 3.6 C 59.7 2.9 59.8 2.3 60.1 1.9 C 60.5 1.4 60.9 0.9 61.6 0.6 C 61.6 0.6 62.1 1.3 62.1 1.3 C 61.6 1.6 61.2 2 61 2.3 C 60.8 2.7 60.7 3.1 60.7 3.6 C 60.7 3.6 60.7 3.6 60.7 3.6 C 60.7 4.1 60.8 4.5 61 4.9 C 61.2 5.2 61.6 5.6 62.1 5.9 Z M 64.1 5.6 L 64.1 1.7 L 62.6 1.7 L 62.6 0.7 L 66.7 0.7 L 66.7 1.7 L 65.2 1.7 L 65.2 5.6 L 64.1 5.6 Z M 68.8 5.2 C 68.5 5.5 68.2 5.7 67.7 5.7 C 67.3 5.7 67 5.6 66.8 5.4 C 66.5 5.2 66.4 4.9 66.4 4.5 C 66.4 4.5 66.4 4.5 66.4 4.5 C 66.4 4.1 66.5 3.8 66.8 3.6 C 67.1 3.4 67.5 3.3 67.9 3.3 C 68.2 3.3 68.5 3.4 68.8 3.5 C 68.8 3.5 68.8 3.4 68.8 3.4 C 68.8 2.9 68.6 2.7 68 2.7 C 67.7 2.7 67.3 2.8 67 2.9 C 67 2.9 66.7 2.1 66.7 2.1 C 67.2 1.9 67.7 1.8 68.2 1.8 C 68.8 1.8 69.2 1.9 69.5 2.2 C 69.7 2.5 69.9 2.9 69.9 3.4 C 69.86 3.42 69.9 5.6 69.9 5.6 L 68.8 5.6 L 68.8 5.2 C 68.8 5.2 68.83 5.19 68.8 5.2 Z M 68 4.9 C 68.3 4.9 68.5 4.9 68.6 4.8 C 68.8 4.6 68.9 4.5 68.9 4.3 C 68.9 4.3 68.9 4.1 68.9 4.1 C 68.6 4 68.4 3.9 68.2 3.9 C 67.9 3.9 67.8 4 67.6 4.1 C 67.5 4.2 67.4 4.3 67.4 4.5 C 67.4 4.5 67.4 4.5 67.4 4.5 C 67.4 4.6 67.5 4.7 67.6 4.8 C 67.7 4.9 67.8 4.9 68 4.9 Z M 72 6.8 L 71.1 6.4 C 71.1 6.4 71.62 5.62 71.6 5.6 C 71.2 5.5 70.8 5.4 70.5 5.1 C 70.5 5.1 70.9 4.4 70.9 4.4 C 71.3 4.7 71.7 4.9 72.1 4.9 C 72.4 4.9 72.6 4.8 72.6 4.6 C 72.6 4.6 72.6 4.6 72.6 4.6 C 72.6 4.5 72.6 4.5 72.6 4.5 C 72.5 4.4 72.5 4.4 72.5 4.4 C 72.5 4.4 72.4 4.4 72.4 4.3 C 72.4 4.3 72.3 4.3 72.3 4.3 C 72.2 4.3 72.2 4.2 72.1 4.2 C 72.1 4.2 72 4.2 72 4.2 C 71.9 4.2 71.8 4.1 71.8 4.1 C 71.6 4.1 71.5 4 71.4 4 C 71.3 3.9 71.2 3.9 71 3.8 C 70.9 3.7 70.8 3.6 70.8 3.5 C 70.7 3.3 70.7 3.2 70.7 3 C 70.7 3 70.7 3 70.7 3 C 70.7 2.6 70.8 2.3 71.1 2.1 C 71.3 1.9 71.7 1.8 72 1.8 C 72.5 1.8 73 1.9 73.4 2.2 C 73.4 2.2 73 3 73 3 C 72.6 2.7 72.3 2.6 72 2.6 C 71.9 2.6 71.8 2.6 71.7 2.7 C 71.7 2.7 71.6 2.8 71.6 2.9 C 71.6 2.9 71.6 2.9 71.6 2.9 C 71.6 3 71.7 3 71.8 3.1 C 72 3.2 72.1 3.3 72.4 3.3 C 72.6 3.4 72.7 3.4 72.8 3.5 C 72.9 3.5 73 3.6 73.1 3.7 C 73.3 3.8 73.4 3.9 73.4 4 C 73.5 4.1 73.5 4.3 73.5 4.4 C 73.5 4.4 73.5 4.5 73.5 4.5 C 73.5 4.8 73.4 5.1 73.2 5.3 C 73 5.5 72.8 5.6 72.4 5.6 C 72.42 5.65 72 6.8 72 6.8 Z M 74.3 5.6 L 74.3 1.8 L 75.4 1.8 L 75.4 5.6 L 74.3 5.6 Z M 78 4.4 L 78.9 1.8 L 80 1.8 C 80 1.8 78.53 5.69 78.5 5.7 C 78.4 6.1 78.2 6.3 78 6.5 C 77.9 6.7 77.6 6.7 77.3 6.7 C 77 6.7 76.6 6.7 76.4 6.5 C 76.4 6.5 76.7 5.7 76.7 5.7 C 76.9 5.8 77 5.9 77.2 5.9 C 77.3 5.9 77.3 5.8 77.4 5.8 C 77.4 5.8 77.5 5.7 77.5 5.6 C 77.54 5.61 76.1 1.8 76.1 1.8 L 77.2 1.8 L 78 4.4 Z M 80.7 5.6 L 80.7 1.8 L 81.7 1.8 L 81.7 5.6 L 80.7 5.6 Z M 84.5 5.7 C 83.9 5.7 83.5 5.5 83.1 5.1 C 82.7 4.7 82.5 4.3 82.5 3.7 C 82.5 3.7 82.5 3.7 82.5 3.7 C 82.5 3.2 82.7 2.7 83.1 2.3 C 83.5 2 83.9 1.8 84.5 1.8 C 85.1 1.8 85.6 2 86 2.4 C 86 2.4 85.3 3.1 85.3 3.1 C 85.2 3 85.1 2.9 85 2.8 C 84.8 2.7 84.7 2.7 84.5 2.7 C 84.2 2.7 84 2.8 83.8 3 C 83.7 3.2 83.6 3.4 83.6 3.7 C 83.6 3.7 83.6 3.7 83.6 3.7 C 83.6 4 83.7 4.3 83.8 4.5 C 84 4.7 84.3 4.8 84.5 4.8 C 84.8 4.8 85.1 4.6 85.4 4.4 C 85.4 4.4 86 5 86 5 C 85.8 5.2 85.6 5.4 85.4 5.5 C 85.1 5.6 84.8 5.7 84.5 5.7 Z M 86.8 5.6 L 86.8 1.8 L 87.8 1.8 L 87.8 5.6 L 86.8 5.6 Z M 88.9 5.6 L 88.9 0.5 L 89.9 0.5 L 89.9 5.6 L 88.9 5.6 Z M 91 5.6 L 91 1.8 L 92.1 1.8 L 92.1 5.6 L 91 5.6 Z M 92.9 6.7 C 92.9 6.7 92.8 6.3 92.8 6.3 C 93.3 6.2 93.5 6 93.4 5.6 C 93.45 5.6 93 5.6 93 5.6 L 93 4.5 L 94.1 4.5 C 94.1 4.5 94.15 5.42 94.1 5.4 C 94.1 5.9 94 6.2 93.8 6.4 C 93.6 6.6 93.3 6.7 92.9 6.7 Z M 99.5 5.6 L 99.5 4.5 L 97.1 4.5 L 96.9 3.8 L 99.6 0.7 L 100.5 0.7 L 100.5 3.7 L 101.2 3.7 L 101.2 4.5 L 100.5 4.5 L 100.5 5.6 L 99.5 5.6 Z M 98.2 3.7 L 99.5 3.7 L 99.5 2.1 L 98.2 3.7 Z M 101.8 3 C 101.8 3 101.7 2.5 101.7 2.5 C 102.2 2.5 102.4 2.2 102.4 1.8 C 102.41 1.82 102 1.8 102 1.8 L 102 0.7 L 103.1 0.7 C 103.1 0.7 103.11 1.64 103.1 1.6 C 103.1 2.1 103 2.4 102.8 2.6 C 102.6 2.8 102.2 2.9 101.8 3 Z M 104 5.6 L 104 0.5 L 105.1 0.5 L 105.1 5.6 L 104 5.6 Z M 108.4 5.1 C 108.1 5.5 107.8 5.7 107.3 5.7 C 106.9 5.7 106.6 5.5 106.4 5.3 C 106.2 5.1 106.1 4.7 106.1 4.3 C 106.07 4.28 106.1 1.8 106.1 1.8 L 107.1 1.8 C 107.1 1.8 107.13 3.94 107.1 3.9 C 107.1 4.4 107.3 4.7 107.8 4.7 C 108 4.7 108.2 4.6 108.3 4.5 C 108.4 4.4 108.4 4.2 108.4 3.9 C 108.44 3.94 108.4 1.8 108.4 1.8 L 109.5 1.8 L 109.5 5.6 L 108.4 5.6 L 108.4 5.1 C 108.4 5.1 108.44 5.07 108.4 5.1 Z M 108 1.4 L 108 0.5 L 109 0.5 L 109 1.4 L 108 1.4 Z M 106.5 1.4 L 106.5 0.5 L 107.6 0.5 L 107.6 1.4 L 106.5 1.4 Z M 110.7 6.6 C 110.7 6.6 110.3 5.9 110.3 5.9 C 110.8 5.6 111.1 5.2 111.3 4.9 C 111.5 4.5 111.6 4.1 111.6 3.6 C 111.6 3.6 111.6 3.6 111.6 3.6 C 111.6 3.1 111.5 2.7 111.3 2.3 C 111.1 2 110.8 1.6 110.3 1.3 C 110.3 1.3 110.7 0.6 110.7 0.6 C 111.4 0.9 111.9 1.4 112.2 1.9 C 112.5 2.3 112.7 2.9 112.7 3.6 C 112.7 3.6 112.7 3.6 112.7 3.6 C 112.7 4.3 112.5 4.8 112.2 5.3 C 111.9 5.8 111.4 6.2 110.7 6.6 Z M 115.5 3.9 L 115.5 2.9 L 118.5 2.9 L 118.5 3.9 L 115.5 3.9 Z M 123.3 5.7 C 122.5 5.7 121.8 5.4 121.2 4.9 C 121.2 4.9 121.9 4.1 121.9 4.1 C 122.4 4.5 122.9 4.7 123.3 4.7 C 123.6 4.7 123.7 4.7 123.9 4.6 C 124 4.5 124.1 4.4 124.1 4.3 C 124.1 4.3 124.1 4.2 124.1 4.2 C 124.1 4.1 124 4 123.9 3.9 C 123.7 3.8 123.5 3.7 123.1 3.6 C 122.8 3.5 122.6 3.5 122.4 3.4 C 122.2 3.3 122 3.3 121.9 3.1 C 121.7 3 121.6 2.9 121.5 2.7 C 121.5 2.6 121.4 2.4 121.4 2.1 C 121.4 2.1 121.4 2.1 121.4 2.1 C 121.4 1.7 121.6 1.3 121.9 1 C 122.2 0.8 122.6 0.6 123.2 0.6 C 123.8 0.6 124.5 0.8 125 1.3 C 125 1.3 124.4 2.1 124.4 2.1 C 123.9 1.7 123.5 1.6 123.1 1.6 C 122.9 1.6 122.8 1.6 122.7 1.7 C 122.6 1.8 122.5 1.9 122.5 2 C 122.5 2 122.5 2 122.5 2 C 122.5 2.2 122.6 2.3 122.7 2.4 C 122.8 2.5 123.1 2.6 123.6 2.7 C 124.1 2.8 124.5 3 124.7 3.2 C 125 3.4 125.1 3.7 125.1 4.1 C 125.1 4.1 125.1 4.2 125.1 4.2 C 125.1 4.6 125 5 124.6 5.3 C 124.3 5.5 123.9 5.7 123.3 5.7 Z M 126 1.4 L 126 0.5 L 127.1 0.5 L 127.1 1.4 L 126 1.4 Z M 126 5.6 L 126 1.8 L 127.1 1.8 L 127.1 5.6 L 126 5.6 Z M 128.1 5.6 L 128.1 1.8 L 129.1 1.8 C 129.1 1.8 129.13 2.38 129.1 2.4 C 129.4 2 129.8 1.8 130.2 1.8 C 130.6 1.8 130.9 1.9 131.2 2.1 C 131.4 2.4 131.5 2.7 131.5 3.2 C 131.5 3.17 131.5 5.6 131.5 5.6 L 130.4 5.6 C 130.4 5.6 130.44 3.51 130.4 3.5 C 130.4 3 130.2 2.7 129.8 2.7 C 129.6 2.7 129.4 2.8 129.3 2.9 C 129.2 3.1 129.1 3.3 129.1 3.5 C 129.13 3.51 129.1 5.6 129.1 5.6 L 128.1 5.6 Z M 135.7 6.2 C 135.4 6.6 134.8 6.7 134.1 6.7 C 133.5 6.7 132.9 6.6 132.4 6.3 C 132.4 6.3 132.8 5.5 132.8 5.5 C 133.2 5.8 133.6 5.9 134.1 5.9 C 134.8 5.9 135.1 5.5 135.1 4.9 C 135.1 4.9 135.1 4.7 135.1 4.7 C 135 4.9 134.8 5 134.6 5.1 C 134.4 5.2 134.2 5.3 133.9 5.3 C 133.5 5.3 133.1 5.1 132.7 4.8 C 132.4 4.5 132.3 4.1 132.3 3.5 C 132.3 3.5 132.3 3.5 132.3 3.5 C 132.3 3 132.4 2.6 132.7 2.3 C 133.1 1.9 133.5 1.8 133.9 1.8 C 134.4 1.8 134.8 2 135.1 2.3 C 135.13 2.34 135.1 1.8 135.1 1.8 L 136.2 1.8 C 136.2 1.8 136.2 4.75 136.2 4.8 C 136.2 5.4 136 5.9 135.7 6.2 C 135.7 6.2 135.7 6.2 135.7 6.2 Z M 133.3 3.5 C 133.3 3.8 133.4 4 133.6 4.2 C 133.7 4.3 134 4.4 134.2 4.4 C 134.5 4.4 134.7 4.3 134.9 4.2 C 135.1 4 135.1 3.8 135.1 3.5 C 135.1 3.5 135.1 3.5 135.1 3.5 C 135.1 3.3 135.1 3.1 134.9 2.9 C 134.7 2.7 134.5 2.7 134.2 2.7 C 134 2.7 133.8 2.7 133.6 2.9 C 133.4 3.1 133.3 3.3 133.3 3.5 C 133.32 3.53 133.3 3.5 133.3 3.5 C 133.3 3.5 133.32 3.54 133.3 3.5 Z M 137.2 5.6 L 137.2 0.5 L 138.3 0.5 L 138.3 5.6 L 137.2 5.6 Z M 142.6 5 C 142.2 5.5 141.7 5.7 141 5.7 C 140.5 5.7 140 5.5 139.6 5.1 C 139.3 4.8 139.1 4.3 139.1 3.7 C 139.1 3.7 139.1 3.7 139.1 3.7 C 139.1 3.2 139.3 2.7 139.6 2.3 C 140 2 140.4 1.8 140.9 1.8 C 141.5 1.8 142 2 142.3 2.4 C 142.6 2.8 142.8 3.2 142.8 3.8 C 142.8 3.9 142.8 4 142.7 4.1 C 142.7 4.1 140.1 4.1 140.1 4.1 C 140.2 4.3 140.3 4.5 140.5 4.6 C 140.6 4.8 140.8 4.8 141.1 4.8 C 141.4 4.8 141.7 4.7 142 4.4 C 141.96 4.44 142.6 5 142.6 5 C 142.6 5 142.57 4.98 142.6 5 Z M 140.1 3.4 C 140.1 3.4 141.7 3.4 141.7 3.4 C 141.7 3.2 141.6 3 141.5 2.8 C 141.3 2.7 141.2 2.6 140.9 2.6 C 140.7 2.6 140.5 2.7 140.4 2.8 C 140.3 3 140.2 3.2 140.1 3.4 Z M 144.9 5.7 C 144.3 5.7 143.7 5.5 143.3 5.1 C 143.3 5.1 143.7 4.4 143.7 4.4 C 144.1 4.7 144.5 4.9 144.9 4.9 C 145.2 4.9 145.3 4.8 145.3 4.6 C 145.3 4.6 145.3 4.6 145.3 4.6 C 145.3 4.5 145.3 4.5 145.3 4.5 C 145.3 4.4 145.3 4.4 145.3 4.4 C 145.2 4.4 145.2 4.4 145.2 4.3 C 145.1 4.3 145.1 4.3 145 4.3 C 145 4.3 144.9 4.2 144.9 4.2 C 144.9 4.2 144.8 4.2 144.7 4.2 C 144.7 4.2 144.6 4.1 144.6 4.1 C 144.4 4.1 144.3 4 144.2 4 C 144.1 3.9 143.9 3.9 143.8 3.8 C 143.7 3.7 143.6 3.6 143.5 3.5 C 143.5 3.3 143.4 3.2 143.4 3 C 143.4 3 143.4 3 143.4 3 C 143.4 2.6 143.6 2.3 143.8 2.1 C 144.1 1.9 144.4 1.8 144.8 1.8 C 145.3 1.8 145.8 1.9 146.2 2.2 C 146.2 2.2 145.8 3 145.8 3 C 145.4 2.7 145.1 2.6 144.8 2.6 C 144.7 2.6 144.6 2.6 144.5 2.7 C 144.4 2.7 144.4 2.8 144.4 2.9 C 144.4 2.9 144.4 2.9 144.4 2.9 C 144.4 3 144.5 3 144.6 3.1 C 144.7 3.2 144.9 3.3 145.2 3.3 C 145.3 3.4 145.5 3.4 145.6 3.5 C 145.7 3.5 145.8 3.6 145.9 3.7 C 146 3.8 146.1 3.9 146.2 4 C 146.3 4.1 146.3 4.3 146.3 4.4 C 146.3 4.4 146.3 4.5 146.3 4.5 C 146.3 4.9 146.2 5.2 145.9 5.4 C 145.6 5.6 145.3 5.7 144.9 5.7 Z " stroke="none" fill="#000"/>  </g></svg>