<?xml version="1.0" standalone="no"?><!DOCTYPE svg PUBLIC "-//W3C//DTD SVG 1.1//EN" "http://www.w3.org/Graphics/SVG/1.1/DTD/svg11.dtd"><svg xmlns="http://www.w3.org/2000/svg" version="1.1" width="134px" height="66.4px" viewBox="0 -3 134 66.4" style="top:-3px">  <desc>Banyo Havlusu – Classic r n Kodu: 330491 Renk: Siyah Malzeme: 100% Pamuk / 600 g l ler: 70 × 140 cm</desc>  <defs/>  <g id="Polygon424083">    <path d="M 3.3 45.2 L 3.3 44.6 L 4 44.6 L 4 45.2 L 3.3 45.2 Z M 2 45.2 L 2 44.6 L 2.6 44.6 L 2.6 45.2 L 2 45.2 Z M 5.5 48.1 C 5.5 48.8 5.2 49.4 4.8 49.9 C 4.3 50.4 3.7 50.7 3 50.7 C 2.2 50.7 1.6 50.4 1.2 49.9 C 0.7 49.5 0.5 48.9 0.5 48.2 C 0.5 48.2 0.5 48.1 0.5 48.1 C 0.5 47.5 0.7 46.9 1.2 46.4 C 1.7 45.9 2.3 45.6 3 45.6 C 3.7 45.6 4.3 45.9 4.8 46.4 C 5.2 46.8 5.5 47.4 5.5 48.1 C 5.47 48.14 5.5 48.1 5.5 48.1 C 5.5 48.1 5.47 48.15 5.5 48.1 Z M 1.1 48.1 C 1.1 48.7 1.2 49.2 1.6 49.6 C 2 50 2.4 50.2 3 50.2 C 3.5 50.2 4 50 4.4 49.6 C 4.7 49.2 4.9 48.7 4.9 48.2 C 4.9 48.2 4.9 48.1 4.9 48.1 C 4.9 47.6 4.7 47.1 4.4 46.7 C 4 46.3 3.5 46.1 3 46.1 C 2.4 46.1 2 46.3 1.6 46.7 C 1.2 47.1 1.1 47.6 1.1 48.1 C 1.05 48.14 1.1 48.1 1.1 48.1 C 1.1 48.1 1.05 48.15 1.1 48.1 Z M 6.6 50.6 L 6.6 45.5 L 7.1 45.5 L 7.1 50.6 L 6.6 50.6 Z M 9.7 51.7 L 9.1 51.4 C 9.1 51.4 9.69 50.65 9.7 50.6 C 9.2 50.6 8.9 50.4 8.6 50 C 8.3 49.7 8.2 49.3 8.2 48.8 C 8.2 48.8 8.2 48.8 8.2 48.8 C 8.2 48.3 8.3 47.8 8.7 47.5 C 9.1 47.1 9.5 46.9 10 46.9 C 10.6 46.9 11.1 47.1 11.5 47.5 C 11.5 47.5 11.1 47.9 11.1 47.9 C 10.8 47.6 10.4 47.4 10 47.4 C 9.6 47.4 9.3 47.5 9.1 47.8 C 8.8 48.1 8.7 48.4 8.7 48.8 C 8.7 48.8 8.7 48.8 8.7 48.8 C 8.7 49.2 8.8 49.5 9.1 49.8 C 9.4 50.1 9.7 50.2 10.1 50.2 C 10.5 50.2 10.8 50 11.2 49.7 C 11.2 49.7 11.5 50 11.5 50 C 11.1 50.4 10.7 50.7 10.1 50.7 C 10.13 50.68 9.7 51.7 9.7 51.7 Z M 14.2 46.4 L 14.2 45.8 L 14.8 45.8 L 14.8 46.4 L 14.2 46.4 Z M 13 46.4 L 13 45.8 L 13.6 45.8 L 13.6 46.4 L 13 46.4 Z M 14.9 50 C 14.6 50.4 14.2 50.7 13.7 50.7 C 13.3 50.7 12.9 50.5 12.7 50.3 C 12.4 50 12.3 49.7 12.3 49.2 C 12.31 49.23 12.3 47 12.3 47 L 12.8 47 C 12.8 47 12.84 49.09 12.8 49.1 C 12.8 49.4 12.9 49.7 13.1 49.9 C 13.3 50.1 13.5 50.2 13.8 50.2 C 14.2 50.2 14.4 50.1 14.6 49.9 C 14.8 49.7 14.9 49.4 14.9 49.1 C 14.93 49.05 14.9 47 14.9 47 L 15.5 47 L 15.5 50.6 L 14.9 50.6 L 14.9 50 C 14.9 50 14.93 49.97 14.9 50 Z M 16.7 50.6 L 16.7 45.5 L 17.3 45.5 L 17.3 50.6 L 16.7 50.6 Z M 21.6 50 C 21.2 50.5 20.7 50.7 20.1 50.7 C 19.6 50.7 19.2 50.5 18.8 50.2 C 18.5 49.8 18.3 49.4 18.3 48.8 C 18.3 48.8 18.3 48.8 18.3 48.8 C 18.3 48.3 18.5 47.8 18.8 47.4 C 19.1 47.1 19.5 46.9 20 46.9 C 20.5 46.9 21 47.1 21.3 47.4 C 21.6 47.8 21.7 48.3 21.7 48.8 C 21.7 48.9 21.7 48.9 21.7 49 C 21.7 49 18.8 49 18.8 49 C 18.9 49.4 19 49.7 19.3 49.9 C 19.5 50.1 19.8 50.2 20.1 50.2 C 20.5 50.2 20.9 50 21.3 49.7 C 21.25 49.7 21.6 50 21.6 50 C 21.6 50 21.59 50 21.6 50 Z M 18.8 48.6 C 18.8 48.6 21.2 48.6 21.2 48.6 C 21.1 48.2 21 47.9 20.8 47.7 C 20.6 47.5 20.4 47.4 20 47.4 C 19.7 47.4 19.4 47.5 19.2 47.7 C 19 47.9 18.9 48.2 18.8 48.6 Z M 22.7 50.6 L 22.7 47 L 23.2 47 C 23.2 47 23.2 47.93 23.2 47.9 C 23.3 47.6 23.5 47.4 23.8 47.2 C 24 47 24.3 46.9 24.7 46.9 C 24.67 46.92 24.7 47.5 24.7 47.5 C 24.7 47.5 24.63 47.5 24.6 47.5 C 24.2 47.5 23.9 47.6 23.6 47.9 C 23.3 48.2 23.2 48.6 23.2 49.2 C 23.2 49.16 23.2 50.6 23.2 50.6 L 22.7 50.6 Z M 25.5 47.7 L 25.5 47 L 26.1 47 L 26.1 47.7 L 25.5 47.7 Z M 25.5 50.6 L 25.5 49.9 L 26.1 49.9 L 26.1 50.6 L 25.5 50.6 Z M 29.7 50.6 L 31.9 46.2 L 29.2 46.2 L 29.2 45.7 L 32.6 45.7 L 32.6 46.1 L 30.3 50.6 L 29.7 50.6 Z M 37.4 48.1 C 37.4 48.9 37.2 49.5 36.8 49.9 C 36.4 50.4 35.9 50.7 35.3 50.7 C 34.7 50.7 34.2 50.4 33.8 50 C 33.4 49.5 33.2 48.9 33.2 48.2 C 33.2 48.2 33.2 48.1 33.2 48.1 C 33.2 47.4 33.4 46.8 33.8 46.4 C 34.2 45.9 34.7 45.6 35.3 45.6 C 35.9 45.6 36.4 45.9 36.8 46.3 C 37.2 46.8 37.4 47.4 37.4 48.1 C 37.37 48.14 37.4 48.1 37.4 48.1 C 37.4 48.1 37.37 48.15 37.4 48.1 Z M 33.8 48.1 C 33.8 48.7 33.9 49.2 34.2 49.6 C 34.5 50 34.9 50.2 35.3 50.2 C 35.8 50.2 36.1 50 36.4 49.6 C 36.7 49.2 36.8 48.7 36.8 48.2 C 36.8 48.2 36.8 48.1 36.8 48.1 C 36.8 47.6 36.7 47.1 36.4 46.7 C 36.1 46.3 35.7 46.1 35.3 46.1 C 34.9 46.1 34.5 46.3 34.2 46.7 C 33.9 47.1 33.8 47.6 33.8 48.1 C 33.81 48.14 33.8 48.1 33.8 48.1 C 33.8 48.1 33.81 48.15 33.8 48.1 Z M 43.3 49.7 L 42.1 48.5 L 40.9 49.7 L 40.5 49.4 L 41.8 48.1 L 40.5 46.9 L 40.9 46.6 L 42.1 47.8 L 43.3 46.6 L 43.7 46.9 L 42.4 48.1 L 43.7 49.3 L 43.3 49.7 Z M 47.6 50.6 L 47.6 46.2 L 46.7 46.5 L 46.6 46.1 L 47.8 45.7 L 48.2 45.7 L 48.2 50.6 L 47.6 50.6 Z M 51.9 50.6 L 51.9 49.4 L 49.3 49.4 L 49.2 49 L 52 45.7 L 52.4 45.7 L 52.4 49 L 53.2 49 L 53.2 49.4 L 52.4 49.4 L 52.4 50.6 L 51.9 50.6 Z M 49.9 49 L 51.9 49 L 51.9 46.4 L 49.9 49 Z M 58.2 48.1 C 58.2 48.9 58 49.5 57.6 49.9 C 57.2 50.4 56.7 50.7 56.1 50.7 C 55.5 50.7 55 50.4 54.6 50 C 54.2 49.5 54 48.9 54 48.2 C 54 48.2 54 48.1 54 48.1 C 54 47.4 54.2 46.8 54.6 46.4 C 55 45.9 55.5 45.6 56.1 45.6 C 56.7 45.6 57.2 45.9 57.6 46.3 C 58 46.8 58.2 47.4 58.2 48.1 C 58.16 48.14 58.2 48.1 58.2 48.1 C 58.2 48.1 58.16 48.15 58.2 48.1 Z M 54.6 48.1 C 54.6 48.7 54.7 49.2 55 49.6 C 55.3 50 55.6 50.2 56.1 50.2 C 56.5 50.2 56.9 50 57.2 49.6 C 57.4 49.2 57.6 48.7 57.6 48.2 C 57.6 48.2 57.6 48.1 57.6 48.1 C 57.6 47.6 57.4 47.1 57.2 46.7 C 56.9 46.3 56.5 46.1 56.1 46.1 C 55.6 46.1 55.3 46.3 55 46.7 C 54.7 47.1 54.6 47.6 54.6 48.1 C 54.59 48.14 54.6 48.1 54.6 48.1 C 54.6 48.1 54.59 48.15 54.6 48.1 Z M 64.4 50 C 64 50.5 63.5 50.7 62.9 50.7 C 62.4 50.7 62 50.5 61.6 50.1 C 61.2 49.8 61.1 49.3 61.1 48.8 C 61.1 48.8 61.1 48.8 61.1 48.8 C 61.1 48.3 61.2 47.8 61.6 47.5 C 62 47.1 62.4 46.9 62.9 46.9 C 63.5 46.9 64 47.1 64.4 47.5 C 64.4 47.5 64 47.9 64 47.9 C 63.7 47.6 63.3 47.4 62.9 47.4 C 62.5 47.4 62.2 47.5 62 47.8 C 61.7 48.1 61.6 48.4 61.6 48.8 C 61.6 48.8 61.6 48.8 61.6 48.8 C 61.6 49.2 61.7 49.5 62 49.8 C 62.3 50.1 62.6 50.2 63 50.2 C 63.4 50.2 63.7 50 64.1 49.7 C 64.06 49.66 64.4 50 64.4 50 C 64.4 50 64.4 49.98 64.4 50 Z M 65.3 50.6 L 65.3 47 L 65.8 47 C 65.8 47 65.83 47.59 65.8 47.6 C 66 47.4 66.1 47.2 66.3 47.1 C 66.5 47 66.7 46.9 67 46.9 C 67.5 46.9 67.9 47.1 68.2 47.6 C 68.5 47.1 68.9 46.9 69.4 46.9 C 69.9 46.9 70.2 47 70.4 47.3 C 70.7 47.6 70.8 47.9 70.8 48.4 C 70.78 48.36 70.8 50.6 70.8 50.6 L 70.2 50.6 C 70.2 50.6 70.24 48.49 70.2 48.5 C 70.2 48.1 70.2 47.9 70 47.7 C 69.8 47.5 69.6 47.4 69.3 47.4 C 69 47.4 68.8 47.5 68.6 47.7 C 68.4 47.9 68.3 48.2 68.3 48.5 C 68.3 48.51 68.3 50.6 68.3 50.6 L 67.8 50.6 C 67.8 50.6 67.77 48.47 67.8 48.5 C 67.8 48.1 67.7 47.9 67.5 47.7 C 67.4 47.5 67.1 47.4 66.8 47.4 C 66.5 47.4 66.3 47.5 66.1 47.7 C 65.9 47.9 65.8 48.2 65.8 48.5 C 65.83 48.53 65.8 50.6 65.8 50.6 L 65.3 50.6 Z " stroke="none" fill="#000"/>  </g>  <g id="Polygon424082">    <path d="M 0.7 41.6 L 0.7 36.7 L 1.3 36.7 L 3 39.4 L 4.8 36.7 L 5.4 36.7 L 5.4 41.6 L 4.8 41.6 L 4.8 37.6 L 3 40.3 L 3 40.3 L 1.2 37.6 L 1.2 41.6 L 0.7 41.6 Z M 9.1 41.1 C 8.7 41.5 8.3 41.7 7.8 41.7 C 7.4 41.7 7.1 41.6 6.8 41.4 C 6.5 41.2 6.4 40.9 6.4 40.5 C 6.4 40.5 6.4 40.5 6.4 40.5 C 6.4 40.2 6.5 39.9 6.8 39.7 C 7.1 39.5 7.5 39.4 8 39.4 C 8.3 39.4 8.7 39.4 9.1 39.5 C 9.1 39.5 9.1 39.4 9.1 39.4 C 9.1 39.1 9 38.8 8.8 38.7 C 8.6 38.5 8.3 38.4 8 38.4 C 7.6 38.4 7.3 38.5 6.9 38.7 C 6.9 38.7 6.7 38.2 6.7 38.2 C 7.2 38 7.6 37.9 8 37.9 C 8.6 37.9 8.9 38.1 9.2 38.3 C 9.5 38.6 9.6 38.9 9.6 39.4 C 9.58 39.39 9.6 41.6 9.6 41.6 L 9.1 41.6 L 9.1 41.1 C 9.1 41.1 9.06 41.05 9.1 41.1 Z M 7.9 41.2 C 8.2 41.2 8.5 41.2 8.7 41 C 9 40.8 9.1 40.6 9.1 40.3 C 9.1 40.3 9.1 39.9 9.1 39.9 C 8.7 39.8 8.4 39.8 8 39.8 C 7.7 39.8 7.4 39.8 7.2 40 C 7 40.1 7 40.3 7 40.5 C 7 40.5 7 40.5 7 40.5 C 7 40.7 7 40.9 7.2 41.1 C 7.4 41.2 7.6 41.2 7.9 41.2 Z M 10.8 41.6 L 10.8 36.5 L 11.3 36.5 L 11.3 41.6 L 10.8 41.6 Z M 12.4 41.6 L 12.4 41.3 L 14.8 38.4 L 12.4 38.4 L 12.4 38 L 15.5 38 L 15.5 38.3 L 13.1 41.1 L 15.5 41.1 L 15.5 41.6 L 12.4 41.6 Z M 19.4 41 C 19 41.5 18.5 41.7 17.9 41.7 C 17.4 41.7 17 41.5 16.7 41.2 C 16.3 40.8 16.1 40.4 16.1 39.8 C 16.1 39.8 16.1 39.8 16.1 39.8 C 16.1 39.3 16.3 38.8 16.6 38.4 C 17 38.1 17.4 37.9 17.9 37.9 C 18.4 37.9 18.8 38.1 19.1 38.4 C 19.4 38.8 19.6 39.3 19.6 39.8 C 19.6 39.9 19.6 39.9 19.6 40 C 19.6 40 16.7 40 16.7 40 C 16.7 40.4 16.9 40.7 17.1 40.9 C 17.3 41.1 17.6 41.2 18 41.2 C 18.4 41.2 18.8 41 19.1 40.7 C 19.1 40.7 19.4 41 19.4 41 C 19.4 41 19.43 41 19.4 41 Z M 16.7 39.6 C 16.7 39.6 19 39.6 19 39.6 C 19 39.2 18.9 38.9 18.7 38.7 C 18.5 38.5 18.2 38.4 17.9 38.4 C 17.5 38.4 17.3 38.5 17.1 38.7 C 16.8 38.9 16.7 39.2 16.7 39.6 Z M 20.5 41.6 L 20.5 38 L 21 38 C 21 38 21.04 38.59 21 38.6 C 21.2 38.4 21.3 38.2 21.5 38.1 C 21.7 38 21.9 37.9 22.2 37.9 C 22.8 37.9 23.1 38.1 23.4 38.6 C 23.7 38.1 24.1 37.9 24.6 37.9 C 25.1 37.9 25.4 38 25.6 38.3 C 25.9 38.6 26 38.9 26 39.4 C 25.99 39.36 26 41.6 26 41.6 L 25.5 41.6 C 25.5 41.6 25.45 39.49 25.5 39.5 C 25.5 39.1 25.4 38.9 25.2 38.7 C 25 38.5 24.8 38.4 24.5 38.4 C 24.2 38.4 24 38.5 23.8 38.7 C 23.6 38.9 23.5 39.2 23.5 39.5 C 23.51 39.51 23.5 41.6 23.5 41.6 L 23 41.6 C 23 41.6 22.98 39.47 23 39.5 C 23 39.1 22.9 38.9 22.7 38.7 C 22.6 38.5 22.3 38.4 22 38.4 C 21.8 38.4 21.5 38.5 21.3 38.7 C 21.1 38.9 21 39.2 21 39.5 C 21.04 39.53 21 41.6 21 41.6 L 20.5 41.6 Z M 30.2 41 C 29.8 41.5 29.3 41.7 28.7 41.7 C 28.2 41.7 27.8 41.5 27.4 41.2 C 27.1 40.8 26.9 40.4 26.9 39.8 C 26.9 39.8 26.9 39.8 26.9 39.8 C 26.9 39.3 27.1 38.8 27.4 38.4 C 27.7 38.1 28.2 37.9 28.7 37.9 C 29.2 37.9 29.6 38.1 29.9 38.4 C 30.2 38.8 30.3 39.3 30.3 39.8 C 30.3 39.9 30.3 39.9 30.3 40 C 30.3 40 27.5 40 27.5 40 C 27.5 40.4 27.6 40.7 27.9 40.9 C 28.1 41.1 28.4 41.2 28.7 41.2 C 29.2 41.2 29.5 41 29.9 40.7 C 29.88 40.7 30.2 41 30.2 41 C 30.2 41 30.21 41 30.2 41 Z M 27.5 39.6 C 27.5 39.6 29.8 39.6 29.8 39.6 C 29.8 39.2 29.7 38.9 29.5 38.7 C 29.3 38.5 29 38.4 28.6 38.4 C 28.3 38.4 28.1 38.5 27.8 38.7 C 27.6 38.9 27.5 39.2 27.5 39.6 Z M 31.2 38.7 L 31.2 38 L 31.9 38 L 31.9 38.7 L 31.2 38.7 Z M 31.2 41.6 L 31.2 40.9 L 31.9 40.9 L 31.9 41.6 L 31.2 41.6 Z M 35.8 41.6 L 35.8 37.2 L 34.9 37.5 L 34.8 37.1 L 36 36.7 L 36.4 36.7 L 36.4 41.6 L 35.8 41.6 Z M 41.6 39.1 C 41.6 39.9 41.4 40.5 41.1 40.9 C 40.7 41.4 40.2 41.7 39.6 41.7 C 38.9 41.7 38.4 41.4 38.1 41 C 37.7 40.5 37.5 39.9 37.5 39.2 C 37.5 39.2 37.5 39.1 37.5 39.1 C 37.5 38.4 37.7 37.8 38.1 37.4 C 38.5 36.9 39 36.6 39.6 36.6 C 40.2 36.6 40.7 36.9 41.1 37.3 C 41.4 37.8 41.6 38.4 41.6 39.1 C 41.64 39.14 41.6 39.1 41.6 39.1 C 41.6 39.1 41.64 39.15 41.6 39.1 Z M 38.1 39.1 C 38.1 39.7 38.2 40.2 38.5 40.6 C 38.8 41 39.1 41.2 39.6 41.2 C 40 41.2 40.4 41 40.7 40.6 C 40.9 40.2 41.1 39.7 41.1 39.2 C 41.1 39.2 41.1 39.1 41.1 39.1 C 41.1 38.6 40.9 38.1 40.6 37.7 C 40.4 37.3 40 37.1 39.6 37.1 C 39.1 37.1 38.8 37.3 38.5 37.7 C 38.2 38.1 38.1 38.6 38.1 39.1 C 38.07 39.14 38.1 39.1 38.1 39.1 C 38.1 39.1 38.07 39.15 38.1 39.1 Z M 46.6 39.1 C 46.6 39.9 46.4 40.5 46.1 40.9 C 45.7 41.4 45.2 41.7 44.6 41.7 C 44 41.7 43.5 41.4 43.1 41 C 42.7 40.5 42.5 39.9 42.5 39.2 C 42.5 39.2 42.5 39.1 42.5 39.1 C 42.5 38.4 42.7 37.8 43.1 37.4 C 43.5 36.9 44 36.6 44.6 36.6 C 45.2 36.6 45.7 36.9 46.1 37.3 C 46.5 37.8 46.6 38.4 46.6 39.1 C 46.64 39.14 46.6 39.1 46.6 39.1 C 46.6 39.1 46.64 39.15 46.6 39.1 Z M 43.1 39.1 C 43.1 39.7 43.2 40.2 43.5 40.6 C 43.8 41 44.1 41.2 44.6 41.2 C 45 41.2 45.4 41 45.7 40.6 C 45.9 40.2 46.1 39.7 46.1 39.2 C 46.1 39.2 46.1 39.1 46.1 39.1 C 46.1 38.6 45.9 38.1 45.7 37.7 C 45.4 37.3 45 37.1 44.6 37.1 C 44.1 37.1 43.8 37.3 43.5 37.7 C 43.2 38.1 43.1 38.6 43.1 39.1 C 43.08 39.14 43.1 39.1 43.1 39.1 C 43.1 39.1 43.08 39.15 43.1 39.1 Z M 49.7 37.9 C 49.7 38.2 49.6 38.5 49.3 38.8 C 49.1 39 48.9 39.1 48.5 39.1 C 48.2 39.1 48 39 47.8 38.8 C 47.5 38.5 47.4 38.2 47.4 37.9 C 47.4 37.9 47.4 37.9 47.4 37.9 C 47.4 37.6 47.5 37.3 47.8 37 C 48 36.8 48.2 36.6 48.6 36.6 C 48.9 36.6 49.1 36.8 49.3 37 C 49.6 37.3 49.7 37.5 49.7 37.9 C 49.66 37.88 49.7 37.9 49.7 37.9 C 49.7 37.9 49.66 37.9 49.7 37.9 Z M 48.5 37 C 48.4 37 48.2 37.1 48.1 37.3 C 48 37.4 47.9 37.6 47.9 37.9 C 47.9 37.9 47.9 37.9 47.9 37.9 C 47.9 38.1 48 38.3 48.1 38.5 C 48.2 38.7 48.4 38.8 48.6 38.8 C 48.7 38.8 48.9 38.7 49 38.5 C 49.1 38.3 49.2 38.1 49.2 37.9 C 49.2 37.9 49.2 37.9 49.2 37.9 C 49.2 37.7 49.1 37.5 49 37.3 C 48.9 37.1 48.7 37 48.5 37 Z M 49.8 39 L 51.5 36.7 L 52 36.7 L 50.1 39.3 L 48.4 41.6 L 47.9 41.6 L 49.8 39 Z M 51.4 41.7 C 51.1 41.7 50.8 41.5 50.6 41.3 C 50.4 41 50.3 40.8 50.3 40.4 C 50.3 40.4 50.3 40.4 50.3 40.4 C 50.3 40.1 50.4 39.8 50.6 39.5 C 50.9 39.3 51.1 39.1 51.4 39.1 C 51.8 39.1 52 39.3 52.2 39.5 C 52.4 39.8 52.5 40.1 52.5 40.4 C 52.5 40.4 52.5 40.4 52.5 40.4 C 52.5 40.7 52.4 41 52.2 41.3 C 52 41.5 51.8 41.7 51.4 41.7 Z M 51.4 41.3 C 51.6 41.3 51.8 41.2 51.9 41 C 52 40.9 52.1 40.7 52.1 40.4 C 52.1 40.4 52.1 40.4 52.1 40.4 C 52.1 40.2 52 40 51.9 39.8 C 51.8 39.6 51.6 39.5 51.4 39.5 C 51.2 39.5 51.1 39.6 51 39.8 C 50.9 40 50.8 40.2 50.8 40.4 C 50.8 40.4 50.8 40.4 50.8 40.4 C 50.8 40.6 50.9 40.8 51 41 C 51.1 41.2 51.3 41.3 51.4 41.3 Z M 55.7 41.6 L 55.7 36.7 C 55.7 36.7 57.54 36.7 57.5 36.7 C 58.1 36.7 58.5 36.8 58.9 37.1 C 59.2 37.4 59.4 37.8 59.4 38.3 C 59.4 38.3 59.4 38.3 59.4 38.3 C 59.4 38.8 59.2 39.2 58.8 39.5 C 58.5 39.7 58 39.9 57.4 39.9 C 57.45 39.87 56.3 39.9 56.3 39.9 L 56.3 41.6 L 55.7 41.6 Z M 56.3 39.4 C 56.3 39.4 57.47 39.37 57.5 39.4 C 57.9 39.4 58.2 39.3 58.4 39.1 C 58.7 38.9 58.8 38.6 58.8 38.3 C 58.8 38.3 58.8 38.3 58.8 38.3 C 58.8 37.9 58.7 37.7 58.5 37.5 C 58.2 37.3 57.9 37.2 57.5 37.2 C 57.5 37.21 56.3 37.2 56.3 37.2 L 56.3 39.4 Z M 62.6 41.1 C 62.3 41.5 61.9 41.7 61.3 41.7 C 60.9 41.7 60.6 41.6 60.3 41.4 C 60.1 41.2 59.9 40.9 59.9 40.5 C 59.9 40.5 59.9 40.5 59.9 40.5 C 59.9 40.2 60.1 39.9 60.4 39.7 C 60.7 39.5 61 39.4 61.5 39.4 C 61.9 39.4 62.2 39.4 62.6 39.5 C 62.6 39.5 62.6 39.4 62.6 39.4 C 62.6 39.1 62.5 38.8 62.3 38.7 C 62.1 38.5 61.9 38.4 61.5 38.4 C 61.2 38.4 60.8 38.5 60.4 38.7 C 60.4 38.7 60.3 38.2 60.3 38.2 C 60.7 38 61.1 37.9 61.6 37.9 C 62.1 37.9 62.5 38.1 62.8 38.3 C 63 38.6 63.1 38.9 63.1 39.4 C 63.13 39.39 63.1 41.6 63.1 41.6 L 62.6 41.6 L 62.6 41.1 C 62.6 41.1 62.61 41.05 62.6 41.1 Z M 61.4 41.2 C 61.7 41.2 62 41.2 62.3 41 C 62.5 40.8 62.6 40.6 62.6 40.3 C 62.6 40.3 62.6 39.9 62.6 39.9 C 62.3 39.8 61.9 39.8 61.6 39.8 C 61.2 39.8 61 39.8 60.8 40 C 60.6 40.1 60.5 40.3 60.5 40.5 C 60.5 40.5 60.5 40.5 60.5 40.5 C 60.5 40.7 60.6 40.9 60.8 41.1 C 60.9 41.2 61.2 41.2 61.4 41.2 Z M 64.3 41.6 L 64.3 38 L 64.8 38 C 64.8 38 64.81 38.59 64.8 38.6 C 65 38.4 65.1 38.2 65.3 38.1 C 65.5 38 65.7 37.9 66 37.9 C 66.5 37.9 66.9 38.1 67.1 38.6 C 67.5 38.1 67.9 37.9 68.4 37.9 C 68.8 37.9 69.2 38 69.4 38.3 C 69.6 38.6 69.8 38.9 69.8 39.4 C 69.76 39.36 69.8 41.6 69.8 41.6 L 69.2 41.6 C 69.2 41.6 69.22 39.49 69.2 39.5 C 69.2 39.1 69.1 38.9 69 38.7 C 68.8 38.5 68.6 38.4 68.3 38.4 C 68 38.4 67.8 38.5 67.6 38.7 C 67.4 38.9 67.3 39.2 67.3 39.5 C 67.28 39.51 67.3 41.6 67.3 41.6 L 66.8 41.6 C 66.8 41.6 66.75 39.47 66.8 39.5 C 66.8 39.1 66.7 38.9 66.5 38.7 C 66.3 38.5 66.1 38.4 65.8 38.4 C 65.5 38.4 65.3 38.5 65.1 38.7 C 64.9 38.9 64.8 39.2 64.8 39.5 C 64.81 39.53 64.8 41.6 64.8 41.6 L 64.3 41.6 Z M 73.5 41 C 73.2 41.4 72.8 41.7 72.2 41.7 C 71.8 41.7 71.5 41.5 71.2 41.3 C 71 41 70.9 40.7 70.9 40.2 C 70.85 40.23 70.9 38 70.9 38 L 71.4 38 C 71.4 38 71.39 40.09 71.4 40.1 C 71.4 40.4 71.5 40.7 71.7 40.9 C 71.8 41.1 72.1 41.2 72.4 41.2 C 72.7 41.2 73 41.1 73.2 40.9 C 73.4 40.7 73.5 40.4 73.5 40.1 C 73.48 40.05 73.5 38 73.5 38 L 74 38 L 74 41.6 L 73.5 41.6 L 73.5 41 C 73.5 41 73.48 40.97 73.5 41 Z M 75.2 41.6 L 75.2 36.5 L 75.8 36.5 L 75.8 40 L 77.7 38 L 78.4 38 L 76.9 39.5 L 78.4 41.6 L 77.8 41.6 L 76.5 39.9 L 75.8 40.7 L 75.8 41.6 L 75.2 41.6 Z M 80.6 42.5 L 83.8 36 L 84.3 36 L 81.1 42.5 L 80.6 42.5 Z M 88.7 41.7 C 88.2 41.7 87.7 41.5 87.4 41.2 C 87.2 41 87 40.7 86.9 40.4 C 86.8 40.1 86.8 39.8 86.8 39.3 C 86.8 39.3 86.8 39.3 86.8 39.3 C 86.8 38.5 87 37.9 87.3 37.4 C 87.7 36.9 88.2 36.6 88.8 36.6 C 89.3 36.6 89.8 36.8 90.3 37.2 C 90.3 37.2 89.9 37.6 89.9 37.6 C 89.6 37.3 89.2 37.1 88.8 37.1 C 88.3 37.1 88 37.3 87.7 37.7 C 87.5 38.1 87.4 38.6 87.4 39.2 C 87.4 39.2 87.4 39.3 87.4 39.3 C 87.7 38.8 88.2 38.5 88.8 38.5 C 89.2 38.5 89.6 38.7 90 39 C 90.3 39.2 90.4 39.6 90.4 40 C 90.4 40 90.4 40.1 90.4 40.1 C 90.4 40.5 90.3 40.9 89.9 41.2 C 89.6 41.5 89.2 41.7 88.7 41.7 Z M 88.7 41.2 C 89.1 41.2 89.3 41.1 89.6 40.9 C 89.8 40.7 89.9 40.4 89.9 40.1 C 89.9 40.1 89.9 40.1 89.9 40.1 C 89.9 39.8 89.8 39.5 89.5 39.3 C 89.3 39.1 89 39 88.7 39 C 88.3 39 88 39.1 87.8 39.3 C 87.6 39.6 87.5 39.8 87.5 40.1 C 87.5 40.1 87.5 40.1 87.5 40.1 C 87.5 40.4 87.6 40.7 87.8 40.9 C 88 41.1 88.3 41.2 88.7 41.2 Z M 95.5 39.1 C 95.5 39.9 95.3 40.5 94.9 40.9 C 94.5 41.4 94 41.7 93.4 41.7 C 92.8 41.7 92.3 41.4 91.9 41 C 91.5 40.5 91.3 39.9 91.3 39.2 C 91.3 39.2 91.3 39.1 91.3 39.1 C 91.3 38.4 91.5 37.8 91.9 37.4 C 92.3 36.9 92.8 36.6 93.4 36.6 C 94 36.6 94.5 36.9 94.9 37.3 C 95.3 37.8 95.5 38.4 95.5 39.1 C 95.46 39.14 95.5 39.1 95.5 39.1 C 95.5 39.1 95.46 39.15 95.5 39.1 Z M 91.9 39.1 C 91.9 39.7 92 40.2 92.3 40.6 C 92.6 41 93 41.2 93.4 41.2 C 93.8 41.2 94.2 41 94.5 40.6 C 94.7 40.2 94.9 39.7 94.9 39.2 C 94.9 39.2 94.9 39.1 94.9 39.1 C 94.9 38.6 94.7 38.1 94.5 37.7 C 94.2 37.3 93.8 37.1 93.4 37.1 C 92.9 37.1 92.6 37.3 92.3 37.7 C 92 38.1 91.9 38.6 91.9 39.1 C 91.89 39.14 91.9 39.1 91.9 39.1 C 91.9 39.1 91.89 39.15 91.9 39.1 Z M 100.5 39.1 C 100.5 39.9 100.3 40.5 99.9 40.9 C 99.5 41.4 99 41.7 98.4 41.7 C 97.8 41.7 97.3 41.4 96.9 41 C 96.5 40.5 96.3 39.9 96.3 39.2 C 96.3 39.2 96.3 39.1 96.3 39.1 C 96.3 38.4 96.5 37.8 96.9 37.4 C 97.3 36.9 97.8 36.6 98.4 36.6 C 99 36.6 99.5 36.9 99.9 37.3 C 100.3 37.8 100.5 38.4 100.5 39.1 C 100.46 39.14 100.5 39.1 100.5 39.1 C 100.5 39.1 100.46 39.15 100.5 39.1 Z M 96.9 39.1 C 96.9 39.7 97 40.2 97.3 40.6 C 97.6 41 98 41.2 98.4 41.2 C 98.9 41.2 99.2 41 99.5 40.6 C 99.8 40.2 99.9 39.7 99.9 39.2 C 99.9 39.2 99.9 39.1 99.9 39.1 C 99.9 38.6 99.8 38.1 99.5 37.7 C 99.2 37.3 98.8 37.1 98.4 37.1 C 97.9 37.1 97.6 37.3 97.3 37.7 C 97 38.1 96.9 38.6 96.9 39.1 C 96.9 39.14 96.9 39.1 96.9 39.1 C 96.9 39.1 96.9 39.15 96.9 39.1 Z M 106.6 42.3 C 106.3 42.6 105.8 42.7 105.2 42.7 C 104.6 42.7 104 42.6 103.6 42.2 C 103.6 42.2 103.8 41.8 103.8 41.8 C 104.2 42.1 104.7 42.3 105.2 42.3 C 105.6 42.3 105.9 42.2 106.2 41.9 C 106.4 41.7 106.5 41.4 106.5 41 C 106.5 41 106.5 40.6 106.5 40.6 C 106.1 41.1 105.7 41.3 105.1 41.3 C 104.6 41.3 104.2 41.2 103.9 40.8 C 103.6 40.5 103.4 40.1 103.4 39.6 C 103.4 39.6 103.4 39.6 103.4 39.6 C 103.4 39.1 103.6 38.7 103.9 38.4 C 104.2 38.1 104.6 37.9 105.1 37.9 C 105.7 37.9 106.1 38.1 106.5 38.6 C 106.5 38.63 106.5 38 106.5 38 L 107 38 C 107 38 107.04 40.97 107 41 C 107 41.5 106.9 41.9 106.6 42.3 C 106.6 42.3 106.6 42.3 106.6 42.3 Z M 105.2 40.8 C 105.5 40.8 105.9 40.7 106.1 40.5 C 106.4 40.3 106.5 40 106.5 39.6 C 106.5 39.6 106.5 39.6 106.5 39.6 C 106.5 39.2 106.4 39 106.1 38.7 C 105.9 38.5 105.6 38.4 105.2 38.4 C 104.8 38.4 104.5 38.5 104.3 38.7 C 104.1 38.9 103.9 39.2 103.9 39.6 C 103.9 39.6 103.9 39.6 103.9 39.6 C 103.9 40 104.1 40.3 104.3 40.5 C 104.6 40.7 104.8 40.8 105.2 40.8 Z " stroke="none" fill="#000"/>  </g>  <g id="Polygon424081">    <path d="M 0.7 23.6 L 0.7 18.7 C 0.7 18.7 2.8 18.7 2.8 18.7 C 3.4 18.7 3.9 18.9 4.2 19.2 C 4.4 19.4 4.6 19.8 4.6 20.2 C 4.6 20.2 4.6 20.2 4.6 20.2 C 4.6 20.6 4.4 20.9 4.2 21.1 C 4 21.4 3.6 21.5 3.2 21.6 C 3.24 21.6 4.7 23.6 4.7 23.6 L 4.1 23.6 L 2.6 21.7 L 1.2 21.7 L 1.2 23.6 L 0.7 23.6 Z M 1.2 21.2 C 1.2 21.2 2.75 21.2 2.8 21.2 C 3.1 21.2 3.4 21.1 3.7 20.9 C 3.9 20.7 4 20.5 4 20.2 C 4 20.2 4 20.2 4 20.2 C 4 19.9 3.9 19.6 3.7 19.5 C 3.5 19.3 3.2 19.2 2.8 19.2 C 2.76 19.21 1.2 19.2 1.2 19.2 L 1.2 21.2 Z M 8.7 23 C 8.3 23.5 7.8 23.7 7.2 23.7 C 6.7 23.7 6.2 23.5 5.9 23.2 C 5.5 22.8 5.4 22.4 5.4 21.8 C 5.4 21.8 5.4 21.8 5.4 21.8 C 5.4 21.3 5.5 20.8 5.9 20.4 C 6.2 20.1 6.6 19.9 7.1 19.9 C 7.6 19.9 8 20.1 8.3 20.4 C 8.6 20.8 8.8 21.3 8.8 21.8 C 8.8 21.9 8.8 21.9 8.8 22 C 8.8 22 5.9 22 5.9 22 C 6 22.4 6.1 22.7 6.3 22.9 C 6.6 23.1 6.9 23.2 7.2 23.2 C 7.6 23.2 8 23 8.3 22.7 C 8.33 22.7 8.7 23 8.7 23 C 8.7 23 8.67 23 8.7 23 Z M 5.9 21.6 C 5.9 21.6 8.2 21.6 8.2 21.6 C 8.2 21.2 8.1 20.9 7.9 20.7 C 7.7 20.5 7.4 20.4 7.1 20.4 C 6.8 20.4 6.5 20.5 6.3 20.7 C 6.1 20.9 6 21.2 5.9 21.6 Z M 9.7 23.6 L 9.7 20 L 10.3 20 C 10.3 20 10.28 20.61 10.3 20.6 C 10.6 20.1 11 19.9 11.5 19.9 C 11.9 19.9 12.3 20 12.5 20.3 C 12.8 20.6 12.9 20.9 12.9 21.4 C 12.9 21.35 12.9 23.6 12.9 23.6 L 12.4 23.6 C 12.4 23.6 12.36 21.49 12.4 21.5 C 12.4 21.1 12.3 20.9 12.1 20.7 C 11.9 20.5 11.7 20.4 11.4 20.4 C 11 20.4 10.8 20.5 10.6 20.7 C 10.4 20.9 10.3 21.2 10.3 21.5 C 10.28 21.53 10.3 23.6 10.3 23.6 L 9.7 23.6 Z M 14 23.6 L 14 18.5 L 14.6 18.5 L 14.6 22 L 16.5 20 L 17.2 20 L 15.7 21.5 L 17.3 23.6 L 16.6 23.6 L 15.3 21.9 L 14.6 22.7 L 14.6 23.6 L 14 23.6 Z M 18 20.7 L 18 20 L 18.6 20 L 18.6 20.7 L 18 20.7 Z M 18 23.6 L 18 22.9 L 18.6 22.9 L 18.6 23.6 L 18 23.6 Z M 23.7 23.7 C 22.9 23.7 22.3 23.4 21.7 22.9 C 21.7 22.9 22 22.5 22 22.5 C 22.3 22.7 22.5 22.9 22.8 23 C 23.1 23.1 23.4 23.2 23.7 23.2 C 24 23.2 24.3 23.1 24.5 22.9 C 24.7 22.8 24.8 22.6 24.8 22.3 C 24.8 22.3 24.8 22.3 24.8 22.3 C 24.8 22.1 24.7 21.9 24.5 21.8 C 24.4 21.6 24 21.5 23.5 21.4 C 22.9 21.3 22.5 21.1 22.3 20.9 C 22 20.7 21.9 20.4 21.9 20 C 21.9 20 21.9 20 21.9 20 C 21.9 19.6 22 19.3 22.3 19 C 22.6 18.8 23 18.6 23.5 18.6 C 23.8 18.6 24.1 18.7 24.4 18.8 C 24.7 18.9 24.9 19 25.2 19.2 C 25.2 19.2 24.9 19.7 24.9 19.7 C 24.5 19.3 24 19.1 23.5 19.1 C 23.2 19.1 22.9 19.2 22.7 19.4 C 22.5 19.5 22.4 19.7 22.4 19.9 C 22.4 19.9 22.4 19.9 22.4 19.9 C 22.4 20.2 22.5 20.4 22.7 20.5 C 22.9 20.7 23.2 20.8 23.8 20.9 C 24.3 21 24.7 21.2 25 21.4 C 25.2 21.6 25.4 21.9 25.4 22.3 C 25.4 22.3 25.4 22.3 25.4 22.3 C 25.4 22.7 25.2 23 24.9 23.3 C 24.6 23.5 24.2 23.7 23.7 23.7 Z M 26.4 19.2 L 26.4 18.6 L 27 18.6 L 27 19.2 L 26.4 19.2 Z M 26.4 23.6 L 26.4 20 L 27 20 L 27 23.6 L 26.4 23.6 Z M 29.8 23 L 30.9 20 L 31.5 20 C 31.5 20 29.99 23.72 30 23.7 C 29.8 24.1 29.7 24.4 29.5 24.5 C 29.3 24.7 29.1 24.7 28.8 24.7 C 28.5 24.7 28.3 24.7 28 24.6 C 28 24.6 28.2 24.1 28.2 24.1 C 28.4 24.2 28.6 24.3 28.8 24.3 C 28.9 24.3 29.1 24.2 29.2 24.1 C 29.3 24 29.4 23.8 29.5 23.6 C 29.51 23.59 27.9 20 27.9 20 L 28.5 20 L 29.8 23 Z M 34.6 23.1 C 34.3 23.5 33.8 23.7 33.3 23.7 C 32.9 23.7 32.6 23.6 32.3 23.4 C 32.1 23.2 31.9 22.9 31.9 22.5 C 31.9 22.5 31.9 22.5 31.9 22.5 C 31.9 22.2 32.1 21.9 32.3 21.7 C 32.6 21.5 33 21.4 33.5 21.4 C 33.8 21.4 34.2 21.4 34.6 21.5 C 34.6 21.5 34.6 21.4 34.6 21.4 C 34.6 21.1 34.5 20.8 34.3 20.7 C 34.1 20.5 33.8 20.4 33.5 20.4 C 33.1 20.4 32.8 20.5 32.4 20.7 C 32.4 20.7 32.2 20.2 32.2 20.2 C 32.7 20 33.1 19.9 33.6 19.9 C 34.1 19.9 34.5 20.1 34.7 20.3 C 35 20.6 35.1 20.9 35.1 21.4 C 35.1 21.39 35.1 23.6 35.1 23.6 L 34.6 23.6 L 34.6 23.1 C 34.6 23.1 34.58 23.05 34.6 23.1 Z M 33.4 23.2 C 33.7 23.2 34 23.2 34.2 23 C 34.5 22.8 34.6 22.6 34.6 22.3 C 34.6 22.3 34.6 21.9 34.6 21.9 C 34.2 21.8 33.9 21.8 33.5 21.8 C 33.2 21.8 32.9 21.8 32.7 22 C 32.6 22.1 32.5 22.3 32.5 22.5 C 32.5 22.5 32.5 22.5 32.5 22.5 C 32.5 22.7 32.6 22.9 32.7 23.1 C 32.9 23.2 33.1 23.2 33.4 23.2 Z M 36.2 23.6 L 36.2 18.5 L 36.8 18.5 C 36.8 18.5 36.78 20.61 36.8 20.6 C 37.1 20.1 37.5 19.9 38 19.9 C 38.5 19.9 38.8 20 39 20.3 C 39.3 20.6 39.4 20.9 39.4 21.4 C 39.41 21.35 39.4 23.6 39.4 23.6 L 38.9 23.6 C 38.9 23.6 38.87 21.49 38.9 21.5 C 38.9 21.1 38.8 20.9 38.6 20.7 C 38.4 20.5 38.2 20.4 37.9 20.4 C 37.6 20.4 37.3 20.5 37.1 20.7 C 36.9 20.9 36.8 21.2 36.8 21.5 C 36.78 21.53 36.8 23.6 36.8 23.6 L 36.2 23.6 Z " stroke="none" fill="#000"/>  </g>  <g id="Polygon424080">    <path d="M 3 9.3 L 3 8.6 L 3.6 8.6 L 3.6 9.3 L 3 9.3 Z M 1.7 9.3 L 1.7 8.6 L 2.3 8.6 L 2.3 9.3 L 1.7 9.3 Z M 2.7 14.7 C 2 14.7 1.5 14.5 1.2 14.1 C 0.8 13.7 0.6 13.2 0.6 12.5 C 0.62 12.55 0.6 9.7 0.6 9.7 L 1.2 9.7 C 1.2 9.7 1.17 12.51 1.2 12.5 C 1.2 13 1.3 13.4 1.6 13.7 C 1.8 14 2.2 14.2 2.7 14.2 C 3.1 14.2 3.5 14 3.8 13.8 C 4 13.5 4.1 13.1 4.1 12.5 C 4.14 12.55 4.1 9.7 4.1 9.7 L 4.7 9.7 C 4.7 9.7 4.7 12.51 4.7 12.5 C 4.7 13.2 4.5 13.7 4.1 14.1 C 3.8 14.5 3.3 14.7 2.7 14.7 Z M 5.9 14.6 L 5.9 11 L 6.5 11 C 6.5 11 6.45 11.93 6.5 11.9 C 6.6 11.6 6.8 11.4 7 11.2 C 7.3 11 7.6 10.9 7.9 10.9 C 7.93 10.92 7.9 11.5 7.9 11.5 C 7.9 11.5 7.89 11.5 7.9 11.5 C 7.5 11.5 7.1 11.6 6.9 11.9 C 6.6 12.2 6.5 12.6 6.5 13.2 C 6.45 13.16 6.5 14.6 6.5 14.6 L 5.9 14.6 Z M 10.6 10.4 L 10.6 9.8 L 11.2 9.8 L 11.2 10.4 L 10.6 10.4 Z M 9.3 10.4 L 9.3 9.8 L 10 9.8 L 10 10.4 L 9.3 10.4 Z M 11.3 14 C 11 14.4 10.6 14.7 10.1 14.7 C 9.7 14.7 9.3 14.5 9.1 14.3 C 8.8 14 8.7 13.7 8.7 13.2 C 8.69 13.23 8.7 11 8.7 11 L 9.2 11 C 9.2 11 9.23 13.09 9.2 13.1 C 9.2 13.4 9.3 13.7 9.5 13.9 C 9.7 14.1 9.9 14.2 10.2 14.2 C 10.5 14.2 10.8 14.1 11 13.9 C 11.2 13.7 11.3 13.4 11.3 13.1 C 11.32 13.05 11.3 11 11.3 11 L 11.9 11 L 11.9 14.6 L 11.3 14.6 L 11.3 14 C 11.3 14 11.32 13.97 11.3 14 Z M 13.1 14.6 L 13.1 11 L 13.6 11 C 13.6 11 13.6 11.61 13.6 11.6 C 13.9 11.1 14.3 10.9 14.8 10.9 C 15.3 10.9 15.6 11 15.9 11.3 C 16.1 11.6 16.2 11.9 16.2 12.4 C 16.23 12.35 16.2 14.6 16.2 14.6 L 15.7 14.6 C 15.7 14.6 15.69 12.49 15.7 12.5 C 15.7 12.1 15.6 11.9 15.4 11.7 C 15.2 11.5 15 11.4 14.7 11.4 C 14.4 11.4 14.1 11.5 13.9 11.7 C 13.7 11.9 13.6 12.2 13.6 12.5 C 13.6 12.53 13.6 14.6 13.6 14.6 L 13.1 14.6 Z M 19.6 14.6 L 19.6 9.7 L 20.1 9.7 L 20.1 12.6 L 22.9 9.7 L 23.7 9.7 L 21.5 11.8 L 23.7 14.6 L 23 14.6 L 21.2 12.2 L 20.1 13.3 L 20.1 14.6 L 19.6 14.6 Z M 25.9 14.7 C 25.4 14.7 25 14.5 24.6 14.1 C 24.3 13.8 24.1 13.3 24.1 12.8 C 24.1 12.8 24.1 12.8 24.1 12.8 C 24.1 12.3 24.3 11.8 24.6 11.5 C 25 11.1 25.4 10.9 26 10.9 C 26.5 10.9 26.9 11.1 27.3 11.5 C 27.7 11.8 27.8 12.3 27.8 12.8 C 27.8 12.8 27.8 12.8 27.8 12.8 C 27.8 13.3 27.7 13.8 27.3 14.1 C 26.9 14.5 26.5 14.7 25.9 14.7 Z M 26 14.2 C 26.3 14.2 26.7 14.1 26.9 13.8 C 27.2 13.5 27.3 13.2 27.3 12.8 C 27.3 12.8 27.3 12.8 27.3 12.8 C 27.3 12.4 27.2 12.1 26.9 11.8 C 26.6 11.5 26.3 11.4 25.9 11.4 C 25.6 11.4 25.2 11.5 25 11.8 C 24.8 12.1 24.6 12.4 24.6 12.8 C 24.6 12.8 24.6 12.8 24.6 12.8 C 24.6 13.2 24.8 13.5 25 13.8 C 25.3 14.1 25.6 14.2 26 14.2 Z M 31.7 13.9 C 31.4 14.4 30.9 14.7 30.3 14.7 C 29.9 14.7 29.5 14.5 29.1 14.2 C 28.8 13.8 28.6 13.4 28.6 12.8 C 28.6 12.8 28.6 12.8 28.6 12.8 C 28.6 12.2 28.8 11.8 29.1 11.4 C 29.5 11.1 29.9 10.9 30.3 10.9 C 30.9 10.9 31.4 11.2 31.7 11.7 C 31.72 11.67 31.7 9.5 31.7 9.5 L 32.3 9.5 L 32.3 14.6 L 31.7 14.6 L 31.7 13.9 C 31.7 13.9 31.72 13.87 31.7 13.9 Z M 30.4 14.2 C 30.8 14.2 31.1 14.1 31.4 13.8 C 31.6 13.5 31.7 13.2 31.7 12.8 C 31.7 12.8 31.7 12.8 31.7 12.8 C 31.7 12.4 31.6 12 31.4 11.8 C 31.1 11.5 30.8 11.4 30.4 11.4 C 30.1 11.4 29.8 11.5 29.5 11.8 C 29.3 12 29.2 12.4 29.2 12.8 C 29.2 12.8 29.2 12.8 29.2 12.8 C 29.2 13.2 29.3 13.6 29.5 13.8 C 29.8 14.1 30.1 14.2 30.4 14.2 Z M 36 14 C 35.7 14.4 35.3 14.7 34.8 14.7 C 34.4 14.7 34 14.5 33.8 14.3 C 33.5 14 33.4 13.7 33.4 13.2 C 33.41 13.23 33.4 11 33.4 11 L 33.9 11 C 33.9 11 33.95 13.09 33.9 13.1 C 33.9 13.4 34 13.7 34.2 13.9 C 34.4 14.1 34.6 14.2 35 14.2 C 35.3 14.2 35.5 14.1 35.7 13.9 C 35.9 13.7 36 13.4 36 13.1 C 36.04 13.05 36 11 36 11 L 36.6 11 L 36.6 14.6 L 36 14.6 L 36 14 C 36 14 36.04 13.97 36 14 Z M 37.7 11.7 L 37.7 11 L 38.4 11 L 38.4 11.7 L 37.7 11.7 Z M 37.7 14.6 L 37.7 13.9 L 38.4 13.9 L 38.4 14.6 L 37.7 14.6 Z M 43.2 14.7 C 42.4 14.7 41.8 14.4 41.3 13.8 C 41.3 13.8 42.1 13.1 42.1 13.1 C 42.4 13.5 42.8 13.7 43.2 13.7 C 43.5 13.7 43.6 13.7 43.7 13.6 C 43.9 13.4 43.9 13.3 43.9 13.1 C 43.9 13.1 43.9 13.1 43.9 13.1 C 43.9 12.9 43.9 12.8 43.7 12.6 C 43.5 12.5 43.3 12.5 43 12.5 C 42.98 12.49 42.5 12.5 42.5 12.5 L 42.4 11.8 L 43.5 10.6 L 41.6 10.6 L 41.6 9.7 L 44.9 9.7 L 44.9 10.5 C 44.9 10.5 43.68 11.69 43.7 11.7 C 44.6 11.8 45 12.3 45 13.1 C 45 13.1 45 13.1 45 13.1 C 45 13.6 44.8 13.9 44.5 14.2 C 44.2 14.5 43.8 14.7 43.2 14.7 Z M 47.6 14.7 C 46.8 14.7 46.1 14.4 45.7 13.8 C 45.7 13.8 46.4 13.1 46.4 13.1 C 46.8 13.5 47.1 13.7 47.6 13.7 C 47.8 13.7 48 13.7 48.1 13.6 C 48.2 13.4 48.3 13.3 48.3 13.1 C 48.3 13.1 48.3 13.1 48.3 13.1 C 48.3 12.9 48.2 12.8 48 12.6 C 47.9 12.5 47.6 12.5 47.3 12.5 C 47.33 12.49 46.9 12.5 46.9 12.5 L 46.7 11.8 L 47.9 10.6 L 46 10.6 L 46 9.7 L 49.3 9.7 L 49.3 10.5 C 49.3 10.5 48.03 11.69 48 11.7 C 48.9 11.8 49.3 12.3 49.3 13.1 C 49.3 13.1 49.3 13.1 49.3 13.1 C 49.3 13.6 49.2 13.9 48.9 14.2 C 48.5 14.5 48.1 14.7 47.6 14.7 Z M 52.3 14.7 C 51.6 14.7 51.1 14.4 50.7 14 C 50.3 13.5 50.1 12.9 50.1 12.2 C 50.1 12.2 50.1 12.1 50.1 12.1 C 50.1 11.4 50.3 10.8 50.7 10.3 C 51.1 9.9 51.7 9.6 52.3 9.6 C 52.9 9.6 53.5 9.9 53.9 10.3 C 54.3 10.8 54.5 11.4 54.5 12.1 C 54.5 12.1 54.5 12.1 54.5 12.1 C 54.5 12.9 54.3 13.5 53.9 14 C 53.5 14.4 52.9 14.7 52.3 14.7 Z M 51.2 12.1 C 51.2 12.6 51.3 13 51.5 13.3 C 51.7 13.6 52 13.7 52.3 13.7 C 52.6 13.7 52.9 13.6 53.1 13.3 C 53.3 13 53.4 12.6 53.4 12.2 C 53.4 12.2 53.4 12.1 53.4 12.1 C 53.4 11.7 53.3 11.3 53.1 11 C 52.9 10.7 52.6 10.6 52.3 10.6 C 52 10.6 51.7 10.7 51.5 11 C 51.3 11.3 51.2 11.7 51.2 12.1 C 51.23 12.14 51.2 12.1 51.2 12.1 C 51.2 12.1 51.23 12.15 51.2 12.1 Z M 57.6 14.6 L 57.6 13.5 L 55.3 13.5 L 55.1 12.8 L 57.8 9.7 L 58.7 9.7 L 58.7 12.7 L 59.3 12.7 L 59.3 13.5 L 58.7 13.5 L 58.7 14.6 L 57.6 14.6 Z M 56.3 12.7 L 57.6 12.7 L 57.6 11.1 L 56.3 12.7 Z M 60.7 13.3 C 61 13.6 61.4 13.7 61.8 13.7 C 62 13.7 62.2 13.6 62.3 13.5 C 62.5 13.4 62.6 13.2 62.6 13.1 C 62.7 12.9 62.7 12.8 62.7 12.6 C 62.5 12.8 62.2 12.9 61.8 12.9 C 61.2 12.9 60.8 12.8 60.5 12.5 C 60.2 12.2 60 11.8 60 11.3 C 60 11.3 60 11.3 60 11.3 C 60 10.8 60.2 10.4 60.5 10.1 C 60.9 9.8 61.3 9.6 61.9 9.6 C 62.2 9.6 62.5 9.7 62.7 9.7 C 62.9 9.8 63.1 10 63.3 10.1 C 63.7 10.5 63.9 11.2 63.9 12 C 63.9 12 63.9 12 63.9 12 C 63.9 12.8 63.7 13.5 63.3 14 C 62.9 14.4 62.4 14.7 61.7 14.7 C 61.1 14.7 60.6 14.5 60.1 14.1 C 60.12 14.1 60.7 13.3 60.7 13.3 C 60.7 13.3 60.68 13.28 60.7 13.3 Z M 61.9 12 C 62.2 12 62.4 12 62.5 11.8 C 62.7 11.7 62.8 11.5 62.8 11.3 C 62.8 11.3 62.8 11.3 62.8 11.3 C 62.8 11.1 62.7 10.9 62.5 10.7 C 62.4 10.6 62.2 10.5 61.9 10.5 C 61.6 10.5 61.4 10.6 61.3 10.7 C 61.1 10.9 61.1 11.1 61.1 11.3 C 61.1 11.3 61.1 11.3 61.1 11.3 C 61.1 11.5 61.2 11.7 61.3 11.8 C 61.5 12 61.7 12 61.9 12 Z M 65.5 14.6 L 65.5 10.8 L 64.6 11 L 64.4 10.1 L 65.8 9.7 L 66.6 9.7 L 66.6 14.6 L 65.5 14.6 Z " stroke="none" fill="#000"/>  </g>  <g id="Polygon424079">    <path d="M 0.6 5.6 L 0.6 0.7 C 0.6 0.7 2.86 0.7 2.9 0.7 C 3.4 0.7 3.9 0.8 4.1 1.1 C 4.4 1.4 4.5 1.6 4.5 2 C 4.5 2 4.5 2 4.5 2 C 4.5 2.5 4.3 2.8 3.8 3 C 4.1 3.2 4.4 3.3 4.5 3.5 C 4.7 3.7 4.8 3.9 4.8 4.2 C 4.8 4.2 4.8 4.3 4.8 4.3 C 4.8 4.7 4.6 5 4.3 5.3 C 3.9 5.5 3.5 5.6 2.9 5.6 C 2.92 5.6 0.6 5.6 0.6 5.6 Z M 2.6 2.7 C 3.2 2.7 3.4 2.5 3.4 2.2 C 3.4 2.2 3.4 2.1 3.4 2.1 C 3.4 1.8 3.2 1.6 2.7 1.6 C 2.7 1.64 1.6 1.6 1.6 1.6 L 1.6 2.7 L 2.6 2.7 C 2.6 2.7 2.63 2.68 2.6 2.7 Z M 2.9 4.7 C 3.4 4.7 3.7 4.5 3.7 4.1 C 3.7 4.1 3.7 4.1 3.7 4.1 C 3.7 3.8 3.4 3.6 2.9 3.6 C 2.88 3.58 1.6 3.6 1.6 3.6 L 1.6 4.7 L 2.9 4.7 C 2.9 4.7 2.92 4.65 2.9 4.7 Z M 7.7 5.2 C 7.4 5.5 7.1 5.7 6.6 5.7 C 6.2 5.7 5.9 5.6 5.7 5.4 C 5.4 5.2 5.3 4.9 5.3 4.5 C 5.3 4.5 5.3 4.5 5.3 4.5 C 5.3 4.1 5.4 3.8 5.7 3.6 C 6 3.4 6.4 3.3 6.8 3.3 C 7.1 3.3 7.4 3.4 7.7 3.5 C 7.7 3.5 7.7 3.4 7.7 3.4 C 7.7 2.9 7.5 2.7 6.9 2.7 C 6.6 2.7 6.2 2.8 5.9 2.9 C 5.9 2.9 5.6 2.1 5.6 2.1 C 6.1 1.9 6.6 1.8 7.1 1.8 C 7.6 1.8 8.1 1.9 8.4 2.2 C 8.6 2.5 8.8 2.9 8.8 3.4 C 8.76 3.42 8.8 5.6 8.8 5.6 L 7.7 5.6 L 7.7 5.2 C 7.7 5.2 7.73 5.19 7.7 5.2 Z M 6.9 4.9 C 7.2 4.9 7.4 4.9 7.5 4.8 C 7.7 4.6 7.7 4.5 7.7 4.3 C 7.7 4.3 7.7 4.1 7.7 4.1 C 7.5 4 7.3 3.9 7.1 3.9 C 6.8 3.9 6.7 4 6.5 4.1 C 6.4 4.2 6.3 4.3 6.3 4.5 C 6.3 4.5 6.3 4.5 6.3 4.5 C 6.3 4.6 6.4 4.7 6.5 4.8 C 6.6 4.9 6.7 4.9 6.9 4.9 Z M 9.7 5.6 L 9.7 1.8 L 10.7 1.8 C 10.7 1.8 10.74 2.38 10.7 2.4 C 11.1 2 11.4 1.8 11.8 1.8 C 12.2 1.8 12.6 1.9 12.8 2.1 C 13 2.4 13.1 2.7 13.1 3.2 C 13.11 3.17 13.1 5.6 13.1 5.6 L 12 5.6 C 12 5.6 12.05 3.51 12 3.5 C 12 3 11.8 2.7 11.4 2.7 C 11.2 2.7 11 2.8 10.9 2.9 C 10.8 3.1 10.7 3.3 10.7 3.5 C 10.74 3.51 10.7 5.6 10.7 5.6 L 9.7 5.6 Z M 15.6 4.4 L 16.4 1.8 L 17.5 1.8 C 17.5 1.8 16.06 5.69 16.1 5.7 C 15.9 6.1 15.8 6.3 15.6 6.5 C 15.4 6.7 15.1 6.7 14.8 6.7 C 14.5 6.7 14.2 6.7 13.9 6.5 C 13.9 6.5 14.2 5.7 14.2 5.7 C 14.4 5.8 14.6 5.9 14.7 5.9 C 14.8 5.9 14.9 5.8 14.9 5.8 C 15 5.8 15 5.7 15.1 5.6 C 15.06 5.61 13.6 1.8 13.6 1.8 L 14.7 1.8 L 15.6 4.4 Z M 19.8 5.7 C 19.2 5.7 18.7 5.5 18.3 5.1 C 17.9 4.8 17.7 4.3 17.7 3.7 C 17.7 3.7 17.7 3.7 17.7 3.7 C 17.7 3.2 17.9 2.7 18.3 2.3 C 18.7 2 19.2 1.8 19.8 1.8 C 20.3 1.8 20.8 2 21.2 2.3 C 21.6 2.7 21.8 3.2 21.8 3.7 C 21.8 3.7 21.8 3.7 21.8 3.7 C 21.8 4.3 21.6 4.7 21.2 5.1 C 20.8 5.5 20.3 5.7 19.8 5.7 Z M 19.8 4.8 C 20.1 4.8 20.3 4.7 20.5 4.5 C 20.7 4.3 20.7 4 20.7 3.7 C 20.7 3.7 20.7 3.7 20.7 3.7 C 20.7 3.4 20.7 3.2 20.5 3 C 20.3 2.8 20.1 2.7 19.8 2.7 C 19.5 2.7 19.2 2.8 19.1 3 C 18.9 3.2 18.8 3.4 18.8 3.7 C 18.8 3.7 18.8 3.7 18.8 3.7 C 18.8 4 18.9 4.3 19.1 4.5 C 19.2 4.7 19.5 4.8 19.8 4.8 Z M 24.8 5.6 L 24.8 0.7 L 25.9 0.7 L 25.9 2.6 L 27.8 2.6 L 27.8 0.7 L 28.9 0.7 L 28.9 5.6 L 27.8 5.6 L 27.8 3.6 L 25.9 3.6 L 25.9 5.6 L 24.8 5.6 Z M 32.2 5.2 C 31.9 5.5 31.5 5.7 31.1 5.7 C 30.7 5.7 30.4 5.6 30.1 5.4 C 29.9 5.2 29.8 4.9 29.8 4.5 C 29.8 4.5 29.8 4.5 29.8 4.5 C 29.8 4.1 29.9 3.8 30.2 3.6 C 30.4 3.4 30.8 3.3 31.3 3.3 C 31.6 3.3 31.9 3.4 32.2 3.5 C 32.2 3.5 32.2 3.4 32.2 3.4 C 32.2 2.9 31.9 2.7 31.4 2.7 C 31 2.7 30.7 2.8 30.4 2.9 C 30.4 2.9 30.1 2.1 30.1 2.1 C 30.6 1.9 31 1.8 31.5 1.8 C 32.1 1.8 32.5 1.9 32.8 2.2 C 33.1 2.5 33.2 2.9 33.2 3.4 C 33.21 3.42 33.2 5.6 33.2 5.6 L 32.2 5.6 L 32.2 5.2 C 32.2 5.2 32.19 5.19 32.2 5.2 Z M 31.4 4.9 C 31.6 4.9 31.8 4.9 32 4.8 C 32.1 4.6 32.2 4.5 32.2 4.3 C 32.2 4.3 32.2 4.1 32.2 4.1 C 32 4 31.8 3.9 31.5 3.9 C 31.3 3.9 31.1 4 31 4.1 C 30.9 4.2 30.8 4.3 30.8 4.5 C 30.8 4.5 30.8 4.5 30.8 4.5 C 30.8 4.6 30.8 4.7 31 4.8 C 31.1 4.9 31.2 4.9 31.4 4.9 Z M 35.1 5.6 L 33.7 1.8 L 34.8 1.8 L 35.6 4.4 L 36.5 1.8 L 37.6 1.8 L 36.1 5.6 L 35.1 5.6 Z M 38.2 5.6 L 38.2 0.5 L 39.3 0.5 L 39.3 5.6 L 38.2 5.6 Z M 42.7 5.1 C 42.3 5.5 42 5.7 41.6 5.7 C 41.1 5.7 40.8 5.5 40.6 5.3 C 40.4 5.1 40.3 4.7 40.3 4.3 C 40.28 4.28 40.3 1.8 40.3 1.8 L 41.3 1.8 C 41.3 1.8 41.34 3.94 41.3 3.9 C 41.3 4.4 41.6 4.7 42 4.7 C 42.2 4.7 42.4 4.6 42.5 4.5 C 42.6 4.4 42.7 4.2 42.7 3.9 C 42.65 3.94 42.7 1.8 42.7 1.8 L 43.7 1.8 L 43.7 5.6 L 42.7 5.6 L 42.7 5.1 C 42.7 5.1 42.65 5.07 42.7 5.1 Z M 46 5.7 C 45.4 5.7 44.9 5.5 44.4 5.1 C 44.4 5.1 44.8 4.4 44.8 4.4 C 45.2 4.7 45.6 4.9 46 4.9 C 46.3 4.9 46.5 4.8 46.5 4.6 C 46.5 4.6 46.5 4.6 46.5 4.6 C 46.5 4.5 46.5 4.5 46.4 4.5 C 46.4 4.4 46.4 4.4 46.4 4.4 C 46.3 4.4 46.3 4.4 46.3 4.3 C 46.3 4.3 46.2 4.3 46.2 4.3 C 46.1 4.3 46.1 4.2 46 4.2 C 46 4.2 45.9 4.2 45.9 4.2 C 45.8 4.2 45.7 4.1 45.7 4.1 C 45.5 4.1 45.4 4 45.3 4 C 45.2 3.9 45 3.9 44.9 3.8 C 44.8 3.7 44.7 3.6 44.7 3.5 C 44.6 3.3 44.6 3.2 44.6 3 C 44.6 3 44.6 3 44.6 3 C 44.6 2.6 44.7 2.3 45 2.1 C 45.2 1.9 45.5 1.8 45.9 1.8 C 46.4 1.8 46.9 1.9 47.3 2.2 C 47.3 2.2 46.9 3 46.9 3 C 46.5 2.7 46.2 2.6 45.9 2.6 C 45.8 2.6 45.7 2.6 45.6 2.7 C 45.6 2.7 45.5 2.8 45.5 2.9 C 45.5 2.9 45.5 2.9 45.5 2.9 C 45.5 3 45.6 3 45.7 3.1 C 45.8 3.2 46 3.3 46.3 3.3 C 46.4 3.4 46.6 3.4 46.7 3.5 C 46.8 3.5 46.9 3.6 47 3.7 C 47.2 3.8 47.3 3.9 47.3 4 C 47.4 4.1 47.4 4.3 47.4 4.4 C 47.4 4.4 47.4 4.5 47.4 4.5 C 47.4 4.9 47.3 5.2 47 5.4 C 46.8 5.6 46.4 5.7 46 5.7 Z M 50.5 5.1 C 50.2 5.5 49.8 5.7 49.4 5.7 C 49 5.7 48.7 5.5 48.5 5.3 C 48.3 5.1 48.2 4.7 48.2 4.3 C 48.15 4.28 48.2 1.8 48.2 1.8 L 49.2 1.8 C 49.2 1.8 49.22 3.94 49.2 3.9 C 49.2 4.4 49.4 4.7 49.9 4.7 C 50.1 4.7 50.2 4.6 50.4 4.5 C 50.5 4.4 50.5 4.2 50.5 3.9 C 50.53 3.94 50.5 1.8 50.5 1.8 L 51.6 1.8 L 51.6 5.6 L 50.5 5.6 L 50.5 5.1 C 50.5 5.1 50.53 5.07 50.5 5.1 Z M 54.5 3.9 L 54.5 2.9 L 57.5 2.9 L 57.5 3.9 L 54.5 3.9 Z M 62.8 5.7 C 62.1 5.7 61.5 5.4 61 5 C 60.6 4.5 60.3 3.9 60.3 3.2 C 60.3 3.2 60.3 3.1 60.3 3.1 C 60.3 2.4 60.6 1.8 61.1 1.4 C 61.5 0.9 62.1 0.6 62.9 0.6 C 63.7 0.6 64.3 0.9 64.8 1.4 C 64.8 1.4 64.1 2.2 64.1 2.2 C 63.7 1.8 63.3 1.6 62.9 1.6 C 62.5 1.6 62.1 1.8 61.9 2.1 C 61.6 2.4 61.5 2.7 61.5 3.1 C 61.5 3.1 61.5 3.1 61.5 3.1 C 61.5 3.6 61.6 3.9 61.9 4.2 C 62.1 4.5 62.5 4.7 62.9 4.7 C 63.1 4.7 63.4 4.6 63.6 4.5 C 63.8 4.5 64 4.3 64.2 4.1 C 64.2 4.1 64.9 4.8 64.9 4.8 C 64.6 5.1 64.3 5.3 64 5.5 C 63.7 5.6 63.3 5.7 62.8 5.7 Z M 65.7 5.6 L 65.7 0.5 L 66.7 0.5 L 66.7 5.6 L 65.7 5.6 Z M 69.9 5.2 C 69.6 5.5 69.3 5.7 68.8 5.7 C 68.4 5.7 68.1 5.6 67.9 5.4 C 67.6 5.2 67.5 4.9 67.5 4.5 C 67.5 4.5 67.5 4.5 67.5 4.5 C 67.5 4.1 67.6 3.8 67.9 3.6 C 68.2 3.4 68.5 3.3 69 3.3 C 69.3 3.3 69.6 3.4 69.9 3.5 C 69.9 3.5 69.9 3.4 69.9 3.4 C 69.9 2.9 69.7 2.7 69.1 2.7 C 68.8 2.7 68.4 2.8 68.1 2.9 C 68.1 2.9 67.8 2.1 67.8 2.1 C 68.3 1.9 68.8 1.8 69.3 1.8 C 69.8 1.8 70.3 1.9 70.5 2.2 C 70.8 2.5 70.9 2.9 70.9 3.4 C 70.94 3.42 70.9 5.6 70.9 5.6 L 69.9 5.6 L 69.9 5.2 C 69.9 5.2 69.91 5.19 69.9 5.2 Z M 69.1 4.9 C 69.4 4.9 69.6 4.9 69.7 4.8 C 69.9 4.6 69.9 4.5 69.9 4.3 C 69.9 4.3 69.9 4.1 69.9 4.1 C 69.7 4 69.5 3.9 69.3 3.9 C 69 3.9 68.8 4 68.7 4.1 C 68.6 4.2 68.5 4.3 68.5 4.5 C 68.5 4.5 68.5 4.5 68.5 4.5 C 68.5 4.6 68.6 4.7 68.7 4.8 C 68.8 4.9 68.9 4.9 69.1 4.9 Z M 73.2 5.7 C 72.6 5.7 72.1 5.5 71.6 5.1 C 71.6 5.1 72 4.4 72 4.4 C 72.4 4.7 72.8 4.9 73.2 4.9 C 73.5 4.9 73.7 4.8 73.7 4.6 C 73.7 4.6 73.7 4.6 73.7 4.6 C 73.7 4.5 73.6 4.5 73.6 4.5 C 73.6 4.4 73.6 4.4 73.6 4.4 C 73.5 4.4 73.5 4.4 73.5 4.3 C 73.4 4.3 73.4 4.3 73.4 4.3 C 73.3 4.3 73.2 4.2 73.2 4.2 C 73.2 4.2 73.1 4.2 73 4.2 C 73 4.2 72.9 4.1 72.9 4.1 C 72.7 4.1 72.6 4 72.5 4 C 72.4 3.9 72.2 3.9 72.1 3.8 C 72 3.7 71.9 3.6 71.9 3.5 C 71.8 3.3 71.8 3.2 71.8 3 C 71.8 3 71.8 3 71.8 3 C 71.8 2.6 71.9 2.3 72.1 2.1 C 72.4 1.9 72.7 1.8 73.1 1.8 C 73.6 1.8 74.1 1.9 74.5 2.2 C 74.5 2.2 74.1 3 74.1 3 C 73.7 2.7 73.4 2.6 73.1 2.6 C 73 2.6 72.9 2.6 72.8 2.7 C 72.7 2.7 72.7 2.8 72.7 2.9 C 72.7 2.9 72.7 2.9 72.7 2.9 C 72.7 3 72.8 3 72.9 3.1 C 73 3.2 73.2 3.3 73.5 3.3 C 73.6 3.4 73.8 3.4 73.9 3.5 C 74 3.5 74.1 3.6 74.2 3.7 C 74.4 3.8 74.4 3.9 74.5 4 C 74.6 4.1 74.6 4.3 74.6 4.4 C 74.6 4.4 74.6 4.5 74.6 4.5 C 74.6 4.9 74.5 5.2 74.2 5.4 C 74 5.6 73.6 5.7 73.2 5.7 Z M 76.6 5.7 C 76 5.7 75.5 5.5 75 5.1 C 75 5.1 75.5 4.4 75.5 4.4 C 75.9 4.7 76.3 4.9 76.6 4.9 C 76.9 4.9 77.1 4.8 77.1 4.6 C 77.1 4.6 77.1 4.6 77.1 4.6 C 77.1 4.5 77.1 4.5 77.1 4.5 C 77.1 4.4 77 4.4 77 4.4 C 77 4.4 76.9 4.4 76.9 4.3 C 76.9 4.3 76.9 4.3 76.8 4.3 C 76.7 4.3 76.7 4.2 76.7 4.2 C 76.6 4.2 76.6 4.2 76.5 4.2 C 76.4 4.2 76.4 4.1 76.3 4.1 C 76.2 4.1 76 4 75.9 4 C 75.8 3.9 75.7 3.9 75.6 3.8 C 75.4 3.7 75.4 3.6 75.3 3.5 C 75.2 3.3 75.2 3.2 75.2 3 C 75.2 3 75.2 3 75.2 3 C 75.2 2.6 75.3 2.3 75.6 2.1 C 75.9 1.9 76.2 1.8 76.6 1.8 C 77.1 1.8 77.5 1.9 78 2.2 C 78 2.2 77.6 3 77.6 3 C 77.2 2.7 76.8 2.6 76.6 2.6 C 76.4 2.6 76.3 2.6 76.3 2.7 C 76.2 2.7 76.2 2.8 76.2 2.9 C 76.2 2.9 76.2 2.9 76.2 2.9 C 76.2 3 76.2 3 76.4 3.1 C 76.5 3.2 76.7 3.3 76.9 3.3 C 77.1 3.4 77.2 3.4 77.3 3.5 C 77.4 3.5 77.6 3.6 77.7 3.7 C 77.8 3.8 77.9 3.9 78 4 C 78 4.1 78.1 4.3 78.1 4.4 C 78.1 4.4 78.1 4.5 78.1 4.5 C 78.1 4.9 77.9 5.2 77.7 5.4 C 77.4 5.6 77.1 5.7 76.6 5.7 Z M 78.8 1.4 L 78.8 0.5 L 80 0.5 L 80 1.4 L 78.8 1.4 Z M 78.9 5.6 L 78.9 1.8 L 79.9 1.8 L 79.9 5.6 L 78.9 5.6 Z M 82.7 5.7 C 82.1 5.7 81.7 5.5 81.3 5.1 C 80.9 4.7 80.8 4.3 80.8 3.7 C 80.8 3.7 80.8 3.7 80.8 3.7 C 80.8 3.2 80.9 2.7 81.3 2.3 C 81.7 2 82.2 1.8 82.7 1.8 C 83.3 1.8 83.8 2 84.2 2.4 C 84.2 2.4 83.6 3.1 83.6 3.1 C 83.4 3 83.3 2.9 83.2 2.8 C 83 2.7 82.9 2.7 82.7 2.7 C 82.4 2.7 82.2 2.8 82.1 3 C 81.9 3.2 81.8 3.4 81.8 3.7 C 81.8 3.7 81.8 3.7 81.8 3.7 C 81.8 4 81.9 4.3 82.1 4.5 C 82.2 4.7 82.5 4.8 82.8 4.8 C 83 4.8 83.3 4.6 83.6 4.4 C 83.6 4.4 84.2 5 84.2 5 C 84 5.2 83.8 5.4 83.6 5.5 C 83.3 5.6 83.1 5.7 82.7 5.7 Z " stroke="none" fill="#000"/>  </g></svg>