<?xml version="1.0" standalone="no"?><!DOCTYPE svg PUBLIC "-//W3C//DTD SVG 1.1//EN" "http://www.w3.org/Graphics/SVG/1.1/DTD/svg11.dtd"><svg xmlns="http://www.w3.org/2000/svg" version="1.1" width="69.5px" height="20.5px" viewBox="0 -1 69.5 20.5" style="top:-1px">  <desc>₺10.038,09</desc>  <defs/>  <g id="Polygon366682">    <path d="M 2.3 4.8 L 2.3 11.9 L 1.4 11.9 L 1.4 4.8 L 2.3 4.8 Z M 4.2 8.2 L 5.1 8.2 C 5.1 8.2 5.13 8.58 5.1 8.6 C 5.1 9.1 5.1 9.6 4.9 10 C 4.8 10.4 4.6 10.8 4.4 11.1 C 4.1 11.4 3.8 11.6 3.4 11.8 C 3.1 11.9 2.7 12 2.3 12 C 2.1 12 2 12 1.8 12 C 1.7 12 1.5 11.9 1.4 11.9 C 1.4 11.9 2.3 11.2 2.3 11.2 C 2.6 11.2 2.9 11.2 3.1 11 C 3.3 10.9 3.5 10.8 3.7 10.5 C 3.9 10.3 4 10 4.1 9.7 C 4.2 9.4 4.2 9 4.2 8.6 C 4.2 8.58 4.2 8.2 4.2 8.2 Z M 3.5 5.5 L 3.5 6.4 L 0.2 7.9 L 0.2 7 L 3.5 5.5 Z M 3.5 7.1 L 3.5 8 L 0.2 9.5 L 0.2 8.6 L 3.5 7.1 Z M 9.1 4.8 L 9.1 11.9 L 8.2 11.9 L 8.2 5.9 L 6.4 6.6 L 6.4 5.7 L 9 4.8 L 9.1 4.8 Z M 16.2 7.8 C 16.2 7.8 16.2 8.9 16.2 8.9 C 16.2 9.5 16.2 10 16.1 10.4 C 16 10.8 15.8 11.1 15.6 11.3 C 15.4 11.6 15.2 11.7 14.9 11.8 C 14.7 12 14.3 12 14 12 C 13.7 12 13.5 12 13.2 11.9 C 13 11.8 12.8 11.7 12.6 11.6 C 12.4 11.4 12.3 11.2 12.1 11 C 12 10.7 11.9 10.4 11.9 10.1 C 11.8 9.8 11.7 9.3 11.7 8.9 C 11.7 8.9 11.7 7.8 11.7 7.8 C 11.7 7.2 11.8 6.7 11.9 6.3 C 12 5.9 12.2 5.6 12.4 5.4 C 12.6 5.1 12.8 5 13.1 4.9 C 13.3 4.8 13.6 4.7 14 4.7 C 14.3 4.7 14.5 4.7 14.8 4.8 C 15 4.9 15.2 5 15.4 5.1 C 15.6 5.3 15.7 5.5 15.8 5.7 C 16 5.9 16.1 6.2 16.1 6.6 C 16.2 6.9 16.2 7.3 16.2 7.8 Z M 15.3 9 C 15.3 9 15.3 7.6 15.3 7.6 C 15.3 7.3 15.3 7 15.3 6.8 C 15.2 6.6 15.2 6.4 15.1 6.2 C 15 6 15 5.9 14.8 5.8 C 14.7 5.7 14.6 5.6 14.5 5.5 C 14.3 5.5 14.2 5.4 14 5.4 C 13.8 5.4 13.6 5.5 13.4 5.6 C 13.3 5.6 13.1 5.8 13 5.9 C 12.9 6.1 12.8 6.3 12.7 6.6 C 12.7 6.9 12.7 7.2 12.7 7.6 C 12.7 7.6 12.7 9 12.7 9 C 12.7 9.3 12.7 9.6 12.7 9.9 C 12.7 10.1 12.8 10.3 12.9 10.5 C 13 10.7 13 10.8 13.2 10.9 C 13.3 11.1 13.4 11.1 13.5 11.2 C 13.7 11.2 13.8 11.3 14 11.3 C 14.2 11.3 14.4 11.2 14.6 11.1 C 14.7 11.1 14.9 10.9 15 10.7 C 15.1 10.6 15.2 10.3 15.2 10 C 15.3 9.8 15.3 9.4 15.3 9 Z M 17.5 11.4 C 17.5 11.3 17.6 11.2 17.7 11 C 17.7 10.9 17.9 10.9 18.1 10.9 C 18.3 10.9 18.4 10.9 18.5 11 C 18.6 11.2 18.6 11.3 18.6 11.4 C 18.6 11.6 18.6 11.7 18.5 11.8 C 18.4 11.9 18.3 12 18.1 12 C 17.9 12 17.7 11.9 17.7 11.8 C 17.6 11.7 17.5 11.6 17.5 11.4 Z M 24.5 7.8 C 24.5 7.8 24.5 8.9 24.5 8.9 C 24.5 9.5 24.4 10 24.3 10.4 C 24.2 10.8 24.1 11.1 23.9 11.3 C 23.7 11.6 23.5 11.7 23.2 11.8 C 22.9 12 22.6 12 22.3 12 C 22 12 21.7 12 21.5 11.9 C 21.3 11.8 21.1 11.7 20.9 11.6 C 20.7 11.4 20.5 11.2 20.4 11 C 20.3 10.7 20.2 10.4 20.1 10.1 C 20 9.8 20 9.3 20 8.9 C 20 8.9 20 7.8 20 7.8 C 20 7.2 20.1 6.7 20.2 6.3 C 20.3 5.9 20.4 5.6 20.6 5.4 C 20.8 5.1 21 5 21.3 4.9 C 21.6 4.8 21.9 4.7 22.2 4.7 C 22.5 4.7 22.8 4.7 23 4.8 C 23.2 4.9 23.5 5 23.6 5.1 C 23.8 5.3 24 5.5 24.1 5.7 C 24.2 5.9 24.3 6.2 24.4 6.6 C 24.5 6.9 24.5 7.3 24.5 7.8 Z M 23.6 9 C 23.6 9 23.6 7.6 23.6 7.6 C 23.6 7.3 23.6 7 23.5 6.8 C 23.5 6.6 23.4 6.4 23.4 6.2 C 23.3 6 23.2 5.9 23.1 5.8 C 23 5.7 22.9 5.6 22.7 5.5 C 22.6 5.5 22.4 5.4 22.2 5.4 C 22 5.4 21.8 5.5 21.7 5.6 C 21.5 5.6 21.4 5.8 21.3 5.9 C 21.1 6.1 21.1 6.3 21 6.6 C 20.9 6.9 20.9 7.2 20.9 7.6 C 20.9 7.6 20.9 9 20.9 9 C 20.9 9.3 20.9 9.6 21 9.9 C 21 10.1 21.1 10.3 21.1 10.5 C 21.2 10.7 21.3 10.8 21.4 10.9 C 21.5 11.1 21.6 11.1 21.8 11.2 C 21.9 11.2 22.1 11.3 22.3 11.3 C 22.5 11.3 22.7 11.2 22.8 11.1 C 23 11.1 23.1 10.9 23.3 10.7 C 23.4 10.6 23.5 10.3 23.5 10 C 23.6 9.8 23.6 9.4 23.6 9 Z M 27 7.9 C 27 7.9 27.62 7.92 27.6 7.9 C 27.9 7.9 28.2 7.9 28.4 7.8 C 28.6 7.7 28.8 7.5 28.9 7.3 C 29 7.1 29 6.9 29 6.7 C 29 6.4 29 6.2 28.9 6 C 28.8 5.8 28.7 5.7 28.5 5.6 C 28.3 5.5 28.1 5.5 27.8 5.5 C 27.5 5.5 27.3 5.5 27.1 5.6 C 26.9 5.7 26.8 5.8 26.7 6 C 26.5 6.2 26.5 6.4 26.5 6.7 C 26.5 6.7 25.6 6.7 25.6 6.7 C 25.6 6.3 25.7 6 25.9 5.7 C 26 5.4 26.3 5.1 26.6 5 C 27 4.8 27.3 4.7 27.8 4.7 C 28.2 4.7 28.6 4.8 28.9 4.9 C 29.2 5.1 29.5 5.3 29.7 5.6 C 29.8 5.9 29.9 6.3 29.9 6.7 C 29.9 6.9 29.9 7.1 29.8 7.3 C 29.7 7.5 29.6 7.7 29.4 7.9 C 29.2 8 29 8.2 28.7 8.3 C 28.5 8.4 28.1 8.5 27.7 8.5 C 27.74 8.46 27 8.5 27 8.5 L 27 7.9 Z M 27 8.7 L 27 8.1 C 27 8.1 27.74 8.12 27.7 8.1 C 28.2 8.1 28.6 8.2 28.9 8.3 C 29.2 8.4 29.4 8.5 29.6 8.7 C 29.7 8.9 29.9 9.1 29.9 9.3 C 30 9.5 30 9.7 30 9.9 C 30 10.3 30 10.6 29.9 10.8 C 29.8 11.1 29.6 11.3 29.4 11.5 C 29.2 11.7 29 11.8 28.7 11.9 C 28.4 12 28.1 12 27.8 12 C 27.5 12 27.2 12 26.9 11.9 C 26.6 11.8 26.4 11.7 26.2 11.5 C 26 11.3 25.8 11.1 25.7 10.9 C 25.6 10.6 25.5 10.4 25.5 10 C 25.5 10 26.4 10 26.4 10 C 26.4 10.3 26.5 10.5 26.6 10.7 C 26.7 10.9 26.9 11 27.1 11.1 C 27.3 11.2 27.5 11.3 27.8 11.3 C 28.1 11.3 28.3 11.2 28.5 11.1 C 28.7 11 28.9 10.9 29 10.7 C 29.1 10.5 29.1 10.2 29.1 10 C 29.1 9.7 29.1 9.4 28.9 9.2 C 28.8 9 28.6 8.9 28.4 8.8 C 28.2 8.7 27.9 8.7 27.6 8.7 C 27.62 8.66 27 8.7 27 8.7 Z M 35.8 10 C 35.8 10.4 35.7 10.8 35.5 11.1 C 35.3 11.4 35 11.6 34.6 11.8 C 34.3 11.9 33.9 12 33.5 12 C 33.1 12 32.7 11.9 32.3 11.8 C 32 11.6 31.7 11.4 31.5 11.1 C 31.3 10.8 31.2 10.4 31.2 10 C 31.2 9.7 31.3 9.4 31.4 9.2 C 31.5 9 31.7 8.8 31.9 8.6 C 32.1 8.4 32.3 8.3 32.6 8.2 C 32.9 8.1 33.2 8 33.5 8 C 33.9 8 34.3 8.1 34.7 8.3 C 35 8.5 35.3 8.7 35.5 9 C 35.7 9.3 35.8 9.6 35.8 10 Z M 34.8 10 C 34.8 9.7 34.8 9.5 34.7 9.3 C 34.6 9.1 34.4 8.9 34.2 8.8 C 34 8.7 33.8 8.6 33.5 8.6 C 33.2 8.6 33 8.7 32.8 8.8 C 32.6 8.9 32.4 9.1 32.3 9.3 C 32.2 9.5 32.1 9.7 32.1 10 C 32.1 10.2 32.2 10.5 32.3 10.7 C 32.4 10.9 32.6 11 32.8 11.1 C 33 11.2 33.2 11.3 33.5 11.3 C 33.8 11.3 34 11.2 34.2 11.1 C 34.4 11 34.6 10.9 34.7 10.7 C 34.8 10.5 34.8 10.2 34.8 10 Z M 35.6 6.7 C 35.6 7 35.5 7.3 35.3 7.6 C 35.1 7.9 34.9 8.1 34.6 8.2 C 34.3 8.4 33.9 8.5 33.5 8.5 C 33.1 8.5 32.7 8.4 32.4 8.2 C 32.1 8.1 31.8 7.9 31.7 7.6 C 31.5 7.3 31.4 7 31.4 6.7 C 31.4 6.2 31.5 5.9 31.7 5.6 C 31.8 5.3 32.1 5.1 32.4 4.9 C 32.7 4.8 33.1 4.7 33.5 4.7 C 33.9 4.7 34.3 4.8 34.6 4.9 C 34.9 5.1 35.1 5.3 35.3 5.6 C 35.5 5.9 35.6 6.2 35.6 6.7 Z M 34.7 6.7 C 34.7 6.4 34.6 6.2 34.5 6 C 34.4 5.9 34.3 5.7 34.1 5.6 C 33.9 5.5 33.7 5.5 33.5 5.5 C 33.3 5.5 33 5.5 32.9 5.6 C 32.7 5.7 32.6 5.8 32.5 6 C 32.4 6.2 32.3 6.4 32.3 6.7 C 32.3 6.9 32.4 7.1 32.5 7.3 C 32.6 7.5 32.7 7.6 32.9 7.7 C 33.1 7.8 33.3 7.9 33.5 7.9 C 33.7 7.9 33.9 7.8 34.1 7.7 C 34.3 7.6 34.4 7.5 34.5 7.3 C 34.6 7.1 34.7 6.9 34.7 6.7 Z M 37.8 10.8 C 37.8 10.8 37.81 11.57 37.8 11.6 C 37.8 11.9 37.7 12.2 37.6 12.5 C 37.4 12.8 37.2 13.1 37 13.3 C 37 13.3 36.4 13 36.4 13 C 36.5 12.8 36.6 12.7 36.7 12.5 C 36.8 12.4 36.8 12.2 36.9 12.1 C 36.9 11.9 36.9 11.8 36.9 11.6 C 36.93 11.58 36.9 10.8 36.9 10.8 L 37.8 10.8 Z M 43.3 7.8 C 43.3 7.8 43.3 8.9 43.3 8.9 C 43.3 9.5 43.3 10 43.2 10.4 C 43.1 10.8 42.9 11.1 42.7 11.3 C 42.5 11.6 42.3 11.7 42 11.8 C 41.7 12 41.4 12 41.1 12 C 40.8 12 40.6 12 40.3 11.9 C 40.1 11.8 39.9 11.7 39.7 11.6 C 39.5 11.4 39.4 11.2 39.2 11 C 39.1 10.7 39 10.4 38.9 10.1 C 38.9 9.8 38.8 9.3 38.8 8.9 C 38.8 8.9 38.8 7.8 38.8 7.8 C 38.8 7.2 38.9 6.7 39 6.3 C 39.1 5.9 39.2 5.6 39.4 5.4 C 39.6 5.1 39.9 5 40.1 4.9 C 40.4 4.8 40.7 4.7 41.1 4.7 C 41.4 4.7 41.6 4.7 41.8 4.8 C 42.1 4.9 42.3 5 42.5 5.1 C 42.6 5.3 42.8 5.5 42.9 5.7 C 43.1 5.9 43.2 6.2 43.2 6.6 C 43.3 6.9 43.3 7.3 43.3 7.8 Z M 42.4 9 C 42.4 9 42.4 7.6 42.4 7.6 C 42.4 7.3 42.4 7 42.4 6.8 C 42.3 6.6 42.3 6.4 42.2 6.2 C 42.1 6 42 5.9 41.9 5.8 C 41.8 5.7 41.7 5.6 41.6 5.5 C 41.4 5.5 41.3 5.4 41.1 5.4 C 40.9 5.4 40.7 5.5 40.5 5.6 C 40.3 5.6 40.2 5.8 40.1 5.9 C 40 6.1 39.9 6.3 39.8 6.6 C 39.8 6.9 39.7 7.2 39.7 7.6 C 39.7 7.6 39.7 9 39.7 9 C 39.7 9.3 39.8 9.6 39.8 9.9 C 39.8 10.1 39.9 10.3 40 10.5 C 40 10.7 40.1 10.8 40.2 10.9 C 40.3 11.1 40.5 11.1 40.6 11.2 C 40.8 11.2 40.9 11.3 41.1 11.3 C 41.3 11.3 41.5 11.2 41.7 11.1 C 41.8 11.1 42 10.9 42.1 10.7 C 42.2 10.6 42.3 10.3 42.3 10 C 42.4 9.8 42.4 9.4 42.4 9 Z M 45.4 11.2 C 45.4 11.2 45.47 11.16 45.5 11.2 C 46 11.2 46.4 11.1 46.7 10.9 C 47.1 10.8 47.3 10.6 47.5 10.3 C 47.7 10.1 47.8 9.8 47.9 9.5 C 47.9 9.2 48 8.9 48 8.6 C 48 8.6 48 7.5 48 7.5 C 48 7.1 47.9 6.9 47.8 6.6 C 47.8 6.4 47.7 6.1 47.5 6 C 47.4 5.8 47.3 5.7 47.1 5.6 C 46.9 5.5 46.8 5.5 46.6 5.5 C 46.4 5.5 46.2 5.5 46 5.6 C 45.9 5.7 45.7 5.8 45.6 5.9 C 45.5 6.1 45.4 6.3 45.4 6.5 C 45.3 6.7 45.3 6.9 45.3 7.1 C 45.3 7.3 45.3 7.5 45.3 7.7 C 45.4 7.9 45.5 8.1 45.6 8.3 C 45.7 8.4 45.8 8.6 46 8.6 C 46.1 8.7 46.3 8.8 46.6 8.8 C 46.8 8.8 46.9 8.7 47.1 8.7 C 47.3 8.6 47.5 8.5 47.6 8.3 C 47.7 8.2 47.8 8 47.9 7.9 C 48 7.7 48.1 7.5 48.1 7.3 C 48.1 7.3 48.5 7.3 48.5 7.3 C 48.5 7.6 48.5 7.9 48.3 8.1 C 48.2 8.4 48.1 8.6 47.9 8.8 C 47.7 9 47.5 9.2 47.2 9.3 C 47 9.5 46.7 9.5 46.4 9.5 C 46.1 9.5 45.8 9.5 45.5 9.3 C 45.2 9.2 45 9 44.9 8.8 C 44.7 8.6 44.6 8.3 44.5 8 C 44.4 7.7 44.4 7.5 44.4 7.2 C 44.4 6.8 44.4 6.5 44.5 6.2 C 44.6 5.9 44.8 5.7 44.9 5.4 C 45.1 5.2 45.4 5 45.6 4.9 C 45.9 4.8 46.2 4.7 46.6 4.7 C 47 4.7 47.3 4.8 47.6 5 C 47.9 5.1 48.1 5.3 48.3 5.6 C 48.5 5.9 48.6 6.2 48.7 6.5 C 48.8 6.9 48.9 7.2 48.9 7.6 C 48.9 7.6 48.9 7.9 48.9 7.9 C 48.9 8.3 48.8 8.7 48.8 9 C 48.7 9.4 48.6 9.8 48.5 10.1 C 48.4 10.5 48.2 10.8 47.9 11 C 47.7 11.3 47.4 11.5 47 11.7 C 46.6 11.8 46.1 11.9 45.5 11.9 C 45.47 11.93 45.4 11.9 45.4 11.9 L 45.4 11.2 Z " stroke="none" fill="#000"/>  </g></svg>