<?xml version="1.0" standalone="no"?><!DOCTYPE svg PUBLIC "-//W3C//DTD SVG 1.1//EN" "http://www.w3.org/Graphics/SVG/1.1/DTD/svg11.dtd"><svg xmlns="http://www.w3.org/2000/svg" version="1.1" width="93px" height="92.4px" viewBox="0 -3 93 92.4" style="top:-3px">  <desc>Sebze Soyaca – Singles r n Kodu: ZD 29621 Renk: Black PP / SS420 L 12 cm, W 5,9 cm Tasar m: VE2</desc>  <defs/>  <g id="Polygon371431">    <path d="M 2 56.6 L 2 52.2 L 0.3 52.2 L 0.3 51.7 L 4.2 51.7 L 4.2 52.2 L 2.5 52.2 L 2.5 56.6 L 2 56.6 Z M 6.6 56.1 C 6.3 56.5 5.9 56.7 5.3 56.7 C 4.9 56.7 4.6 56.6 4.4 56.4 C 4.1 56.2 4 55.9 4 55.5 C 4 55.5 4 55.5 4 55.5 C 4 55.2 4.1 54.9 4.4 54.7 C 4.7 54.5 5 54.4 5.5 54.4 C 5.9 54.4 6.2 54.4 6.6 54.5 C 6.6 54.5 6.6 54.4 6.6 54.4 C 6.6 54.1 6.5 53.8 6.3 53.7 C 6.1 53.5 5.9 53.4 5.5 53.4 C 5.2 53.4 4.8 53.5 4.4 53.7 C 4.4 53.7 4.3 53.2 4.3 53.2 C 4.7 53 5.1 52.9 5.6 52.9 C 6.1 52.9 6.5 53.1 6.8 53.3 C 7 53.6 7.1 53.9 7.1 54.4 C 7.13 54.39 7.1 56.6 7.1 56.6 L 6.6 56.6 L 6.6 56.1 C 6.6 56.1 6.62 56.05 6.6 56.1 Z M 5.4 56.2 C 5.8 56.2 6 56.2 6.3 56 C 6.5 55.8 6.6 55.6 6.6 55.3 C 6.6 55.3 6.6 54.9 6.6 54.9 C 6.3 54.8 5.9 54.8 5.6 54.8 C 5.2 54.8 5 54.8 4.8 55 C 4.6 55.1 4.5 55.3 4.5 55.5 C 4.5 55.5 4.5 55.5 4.5 55.5 C 4.5 55.7 4.6 55.9 4.8 56.1 C 4.9 56.2 5.2 56.2 5.4 56.2 Z M 9.5 56.7 C 8.9 56.7 8.4 56.5 8 56.1 C 8 56.1 8.3 55.8 8.3 55.8 C 8.7 56.1 9.1 56.2 9.5 56.2 C 9.7 56.2 9.9 56.2 10 56.1 C 10.2 56 10.3 55.8 10.3 55.6 C 10.3 55.6 10.3 55.6 10.3 55.6 C 10.3 55.5 10.2 55.3 10 55.2 C 9.9 55.2 9.6 55.1 9.4 55 C 9.2 55 9.1 54.9 9.1 54.9 C 9 54.9 8.9 54.8 8.8 54.8 C 8.7 54.8 8.6 54.7 8.5 54.7 C 8.5 54.6 8.4 54.6 8.3 54.5 C 8.3 54.4 8.2 54.4 8.2 54.3 C 8.2 54.2 8.2 54.1 8.2 54 C 8.2 54 8.2 54 8.2 54 C 8.2 53.6 8.3 53.4 8.5 53.2 C 8.7 53 9 52.9 9.4 52.9 C 9.9 52.9 10.3 53.1 10.7 53.3 C 10.7 53.3 10.4 53.7 10.4 53.7 C 10.1 53.5 9.7 53.4 9.4 53.4 C 9.2 53.4 9 53.4 8.9 53.5 C 8.7 53.6 8.7 53.7 8.7 53.9 C 8.7 53.9 8.7 53.9 8.7 53.9 C 8.7 54 8.7 54 8.7 54.1 C 8.8 54.1 8.8 54.2 8.9 54.2 C 8.9 54.3 9 54.3 9.1 54.4 C 9.2 54.4 9.3 54.4 9.3 54.4 C 9.4 54.5 9.5 54.5 9.6 54.5 C 9.7 54.6 9.9 54.6 9.9 54.6 C 10 54.7 10.1 54.7 10.3 54.8 C 10.4 54.8 10.5 54.9 10.5 55 C 10.6 55 10.6 55.1 10.7 55.2 C 10.7 55.3 10.8 55.4 10.8 55.6 C 10.8 55.6 10.8 55.6 10.8 55.6 C 10.8 55.9 10.6 56.2 10.4 56.4 C 10.2 56.6 9.9 56.7 9.5 56.7 Z M 14.2 56.1 C 13.8 56.5 13.4 56.7 12.8 56.7 C 12.5 56.7 12.2 56.6 11.9 56.4 C 11.6 56.2 11.5 55.9 11.5 55.5 C 11.5 55.5 11.5 55.5 11.5 55.5 C 11.5 55.2 11.6 54.9 11.9 54.7 C 12.2 54.5 12.6 54.4 13 54.4 C 13.4 54.4 13.8 54.4 14.2 54.5 C 14.2 54.5 14.2 54.4 14.2 54.4 C 14.2 54.1 14.1 53.8 13.9 53.7 C 13.7 53.5 13.4 53.4 13.1 53.4 C 12.7 53.4 12.3 53.5 12 53.7 C 12 53.7 11.8 53.2 11.8 53.2 C 12.2 53 12.7 52.9 13.1 52.9 C 13.6 52.9 14 53.1 14.3 53.3 C 14.5 53.6 14.7 53.9 14.7 54.4 C 14.67 54.39 14.7 56.6 14.7 56.6 L 14.2 56.6 L 14.2 56.1 C 14.2 56.1 14.15 56.05 14.2 56.1 Z M 12.9 56.2 C 13.3 56.2 13.6 56.2 13.8 56 C 14 55.8 14.2 55.6 14.2 55.3 C 14.2 55.3 14.2 54.9 14.2 54.9 C 13.8 54.8 13.4 54.8 13.1 54.8 C 12.8 54.8 12.5 54.8 12.3 55 C 12.1 55.1 12 55.3 12 55.5 C 12 55.5 12 55.5 12 55.5 C 12 55.7 12.1 55.9 12.3 56.1 C 12.5 56.2 12.7 56.2 12.9 56.2 Z M 15.8 56.6 L 15.8 53 L 16.4 53 C 16.4 53 16.36 53.93 16.4 53.9 C 16.5 53.6 16.7 53.4 17 53.2 C 17.2 53 17.5 52.9 17.8 52.9 C 17.84 52.92 17.8 53.5 17.8 53.5 C 17.8 53.5 17.79 53.5 17.8 53.5 C 17.4 53.5 17 53.6 16.8 53.9 C 16.5 54.2 16.4 54.6 16.4 55.2 C 16.36 55.16 16.4 56.6 16.4 56.6 L 15.8 56.6 Z M 18.7 56.6 L 18.7 53 L 19.2 53 L 19.2 56.6 L 18.7 56.6 Z M 20.5 56.6 L 20.5 53 L 21 53 C 21 53 21.03 53.59 21 53.6 C 21.2 53.4 21.3 53.2 21.5 53.1 C 21.7 53 21.9 52.9 22.2 52.9 C 22.7 52.9 23.1 53.1 23.4 53.6 C 23.7 53.1 24.1 52.9 24.6 52.9 C 25.1 52.9 25.4 53 25.6 53.3 C 25.9 53.6 26 53.9 26 54.4 C 25.98 54.36 26 56.6 26 56.6 L 25.4 56.6 C 25.4 56.6 25.44 54.49 25.4 54.5 C 25.4 54.1 25.4 53.9 25.2 53.7 C 25 53.5 24.8 53.4 24.5 53.4 C 24.2 53.4 24 53.5 23.8 53.7 C 23.6 53.9 23.5 54.2 23.5 54.5 C 23.51 54.51 23.5 56.6 23.5 56.6 L 23 56.6 C 23 56.6 22.97 54.47 23 54.5 C 23 54.1 22.9 53.9 22.7 53.7 C 22.6 53.5 22.3 53.4 22 53.4 C 21.8 53.4 21.5 53.5 21.3 53.7 C 21.1 53.9 21 54.2 21 54.5 C 21.03 54.53 21 56.6 21 56.6 L 20.5 56.6 Z M 27.1 53.7 L 27.1 53 L 27.7 53 L 27.7 53.7 L 27.1 53.7 Z M 27.1 56.6 L 27.1 55.9 L 27.7 55.9 L 27.7 56.6 L 27.1 56.6 Z M 32.8 56.6 L 30.7 51.7 L 31.3 51.7 L 33 55.9 L 34.8 51.7 L 35.4 51.7 L 33.3 56.6 L 32.8 56.6 Z M 36.4 56.6 L 36.4 51.7 L 39.9 51.7 L 39.9 52.2 L 36.9 52.2 L 36.9 53.9 L 39.6 53.9 L 39.6 54.4 L 36.9 54.4 L 36.9 56.1 L 39.9 56.1 L 39.9 56.6 L 36.4 56.6 Z M 40.7 56.6 L 40.7 56.2 C 40.7 56.2 42.46 54.6 42.5 54.6 C 42.8 54.3 43.1 54 43.3 53.8 C 43.4 53.5 43.5 53.3 43.5 53.1 C 43.5 52.8 43.4 52.6 43.2 52.4 C 43 52.2 42.8 52.1 42.5 52.1 C 42.2 52.1 42 52.2 41.8 52.3 C 41.6 52.5 41.4 52.7 41.2 53 C 41.2 53 40.8 52.7 40.8 52.7 C 41 52.3 41.3 52 41.5 51.9 C 41.8 51.7 42.1 51.6 42.5 51.6 C 43 51.6 43.3 51.8 43.6 52 C 43.9 52.3 44.1 52.6 44.1 53 C 44.1 53 44.1 53 44.1 53 C 44.1 53.4 44 53.7 43.8 53.9 C 43.6 54.2 43.3 54.5 42.8 54.9 C 42.82 54.93 41.5 56.1 41.5 56.1 L 44.1 56.1 L 44.1 56.6 L 40.7 56.6 Z " stroke="none" fill="#000"/>  </g>  <g id="Polygon371430">    <path d="M 0.7 48.2 L 0.7 43.3 L 1.2 43.3 L 1.2 47.7 L 4 47.7 L 4 48.2 L 0.7 48.2 Z M 7.7 48.2 L 7.7 43.8 L 6.7 44.1 L 6.6 43.7 L 7.8 43.3 L 8.2 43.3 L 8.2 48.2 L 7.7 48.2 Z M 9.2 48.2 L 9.2 47.8 C 9.2 47.8 11.02 46.2 11 46.2 C 11.4 45.9 11.7 45.6 11.8 45.4 C 12 45.1 12 44.9 12 44.7 C 12 44.4 12 44.2 11.8 44 C 11.6 43.8 11.3 43.7 11.1 43.7 C 10.8 43.7 10.6 43.8 10.4 43.9 C 10.2 44.1 9.9 44.3 9.7 44.6 C 9.7 44.6 9.3 44.3 9.3 44.3 C 9.6 43.9 9.8 43.6 10.1 43.5 C 10.4 43.3 10.7 43.2 11.1 43.2 C 11.5 43.2 11.9 43.4 12.2 43.6 C 12.5 43.9 12.6 44.2 12.6 44.6 C 12.6 44.6 12.6 44.6 12.6 44.6 C 12.6 45 12.5 45.3 12.3 45.5 C 12.2 45.8 11.8 46.1 11.4 46.5 C 11.38 46.53 10.1 47.7 10.1 47.7 L 12.7 47.7 L 12.7 48.2 L 9.2 48.2 Z M 18.9 47.6 C 18.5 48.1 18 48.3 17.4 48.3 C 16.9 48.3 16.5 48.1 16.1 47.7 C 15.8 47.4 15.6 46.9 15.6 46.4 C 15.6 46.4 15.6 46.4 15.6 46.4 C 15.6 45.9 15.8 45.4 16.1 45.1 C 16.5 44.7 16.9 44.5 17.4 44.5 C 18 44.5 18.5 44.7 18.9 45.1 C 18.9 45.1 18.5 45.5 18.5 45.5 C 18.2 45.2 17.8 45 17.4 45 C 17.1 45 16.8 45.1 16.5 45.4 C 16.3 45.7 16.1 46 16.1 46.4 C 16.1 46.4 16.1 46.4 16.1 46.4 C 16.1 46.8 16.3 47.1 16.5 47.4 C 16.8 47.7 17.1 47.8 17.5 47.8 C 17.9 47.8 18.2 47.6 18.6 47.3 C 18.57 47.26 18.9 47.6 18.9 47.6 C 18.9 47.6 18.91 47.58 18.9 47.6 Z M 19.8 48.2 L 19.8 44.6 L 20.3 44.6 C 20.3 44.6 20.34 45.19 20.3 45.2 C 20.5 45 20.6 44.8 20.8 44.7 C 21 44.6 21.2 44.5 21.5 44.5 C 22.1 44.5 22.4 44.7 22.7 45.2 C 23 44.7 23.4 44.5 23.9 44.5 C 24.4 44.5 24.7 44.6 24.9 44.9 C 25.2 45.2 25.3 45.5 25.3 46 C 25.29 45.96 25.3 48.2 25.3 48.2 L 24.8 48.2 C 24.8 48.2 24.75 46.09 24.8 46.1 C 24.8 45.7 24.7 45.5 24.5 45.3 C 24.3 45.1 24.1 45 23.8 45 C 23.5 45 23.3 45.1 23.1 45.3 C 22.9 45.5 22.8 45.8 22.8 46.1 C 22.81 46.11 22.8 48.2 22.8 48.2 L 22.3 48.2 C 22.3 48.2 22.28 46.07 22.3 46.1 C 22.3 45.7 22.2 45.5 22 45.3 C 21.9 45.1 21.6 45 21.3 45 C 21.1 45 20.8 45.1 20.6 45.3 C 20.4 45.5 20.3 45.8 20.3 46.1 C 20.34 46.13 20.3 48.2 20.3 48.2 L 19.8 48.2 Z M 26.2 49.1 C 26.2 49.1 26.2 48.8 26.2 48.8 C 26.5 48.7 26.7 48.5 26.6 48.2 C 26.63 48.2 26.4 48.2 26.4 48.2 L 26.4 47.5 L 27 47.5 C 27 47.5 27.02 48.09 27 48.1 C 27 48.4 27 48.6 26.8 48.7 C 26.7 48.9 26.5 49 26.2 49.1 Z M 31.7 48.2 L 30 43.3 L 30.6 43.3 L 32 47.4 L 33.3 43.3 L 33.8 43.3 L 35.1 47.4 L 36.5 43.3 L 37.1 43.3 L 35.3 48.2 L 34.9 48.2 L 33.5 44.3 L 32.2 48.2 L 31.7 48.2 Z M 41.6 48.3 C 41 48.3 40.4 48 39.9 47.5 C 39.9 47.5 40.2 47.1 40.2 47.1 C 40.7 47.6 41.2 47.8 41.6 47.8 C 42 47.8 42.3 47.7 42.5 47.5 C 42.7 47.3 42.8 47 42.8 46.7 C 42.8 46.7 42.8 46.7 42.8 46.7 C 42.8 46.4 42.7 46.1 42.5 45.9 C 42.2 45.7 41.9 45.7 41.6 45.7 C 41.2 45.7 40.9 45.7 40.6 45.9 C 40.56 45.93 40.2 45.7 40.2 45.7 L 40.3 43.3 L 43.2 43.3 L 43.2 43.8 L 40.8 43.8 C 40.8 43.8 40.71 45.38 40.7 45.4 C 41 45.2 41.3 45.2 41.7 45.2 C 42.2 45.2 42.6 45.3 42.9 45.6 C 43.2 45.8 43.4 46.2 43.4 46.7 C 43.4 46.7 43.4 46.7 43.4 46.7 C 43.4 47.1 43.2 47.5 42.9 47.8 C 42.6 48.1 42.1 48.3 41.6 48.3 Z M 44.2 49.1 C 44.2 49.1 44.1 48.8 44.1 48.8 C 44.4 48.7 44.6 48.5 44.6 48.2 C 44.58 48.2 44.3 48.2 44.3 48.2 L 44.3 47.5 L 45 47.5 C 45 47.5 44.97 48.09 45 48.1 C 45 48.4 44.9 48.6 44.8 48.7 C 44.7 48.9 44.5 49 44.2 49.1 Z M 46.4 47.3 C 46.8 47.6 47.2 47.8 47.6 47.8 C 48 47.8 48.4 47.6 48.6 47.2 C 48.9 46.8 49 46.3 49 45.7 C 49 45.7 49 45.6 49 45.6 C 48.7 46.2 48.2 46.4 47.6 46.4 C 47.1 46.4 46.7 46.3 46.4 46 C 46.1 45.7 45.9 45.3 45.9 44.9 C 45.9 44.9 45.9 44.9 45.9 44.9 C 45.9 44.4 46.1 44 46.4 43.7 C 46.8 43.4 47.2 43.2 47.7 43.2 C 48.2 43.2 48.7 43.4 49 43.7 C 49.4 44.1 49.6 44.8 49.6 45.6 C 49.6 45.6 49.6 45.6 49.6 45.6 C 49.6 46.4 49.4 47 49 47.5 C 48.7 48 48.2 48.3 47.6 48.3 C 47 48.3 46.5 48.1 46.1 47.7 C 46.05 47.68 46.4 47.3 46.4 47.3 C 46.4 47.3 46.37 47.25 46.4 47.3 Z M 47.7 45.9 C 48.1 45.9 48.4 45.8 48.6 45.6 C 48.8 45.4 48.9 45.1 48.9 44.8 C 48.9 44.8 48.9 44.8 48.9 44.8 C 48.9 44.5 48.8 44.2 48.6 44 C 48.3 43.8 48 43.7 47.7 43.7 C 47.3 43.7 47 43.8 46.8 44 C 46.6 44.3 46.5 44.5 46.5 44.9 C 46.5 44.9 46.5 44.9 46.5 44.9 C 46.5 45.2 46.6 45.4 46.8 45.6 C 47.1 45.8 47.4 45.9 47.7 45.9 Z M 55.8 47.6 C 55.4 48.1 54.9 48.3 54.4 48.3 C 53.8 48.3 53.4 48.1 53 47.7 C 52.7 47.4 52.5 46.9 52.5 46.4 C 52.5 46.4 52.5 46.4 52.5 46.4 C 52.5 45.9 52.7 45.4 53 45.1 C 53.4 44.7 53.8 44.5 54.4 44.5 C 54.9 44.5 55.4 44.7 55.8 45.1 C 55.8 45.1 55.5 45.5 55.5 45.5 C 55.1 45.2 54.7 45 54.4 45 C 54 45 53.7 45.1 53.4 45.4 C 53.2 45.7 53.1 46 53.1 46.4 C 53.1 46.4 53.1 46.4 53.1 46.4 C 53.1 46.8 53.2 47.1 53.4 47.4 C 53.7 47.7 54 47.8 54.4 47.8 C 54.8 47.8 55.2 47.6 55.5 47.3 C 55.5 47.26 55.8 47.6 55.8 47.6 C 55.8 47.6 55.84 47.58 55.8 47.6 Z M 56.7 48.2 L 56.7 44.6 L 57.3 44.6 C 57.3 44.6 57.27 45.19 57.3 45.2 C 57.4 45 57.6 44.8 57.7 44.7 C 57.9 44.6 58.2 44.5 58.4 44.5 C 59 44.5 59.4 44.7 59.6 45.2 C 59.9 44.7 60.3 44.5 60.9 44.5 C 61.3 44.5 61.6 44.6 61.9 44.9 C 62.1 45.2 62.2 45.5 62.2 46 C 62.22 45.96 62.2 48.2 62.2 48.2 L 61.7 48.2 C 61.7 48.2 61.68 46.09 61.7 46.1 C 61.7 45.7 61.6 45.5 61.4 45.3 C 61.3 45.1 61 45 60.7 45 C 60.5 45 60.2 45.1 60 45.3 C 59.8 45.5 59.7 45.8 59.7 46.1 C 59.74 46.11 59.7 48.2 59.7 48.2 L 59.2 48.2 C 59.2 48.2 59.21 46.07 59.2 46.1 C 59.2 45.7 59.1 45.5 59 45.3 C 58.8 45.1 58.6 45 58.3 45 C 58 45 57.7 45.1 57.6 45.3 C 57.4 45.5 57.3 45.8 57.3 46.1 C 57.27 46.13 57.3 48.2 57.3 48.2 L 56.7 48.2 Z " stroke="none" fill="#000"/>  </g>  <g id="Polygon371429">    <path d="M 0.7 39.8 L 0.7 34.9 C 0.7 34.9 2.53 34.9 2.5 34.9 C 3.1 34.9 3.5 35 3.9 35.3 C 4.2 35.6 4.4 36 4.4 36.5 C 4.4 36.5 4.4 36.5 4.4 36.5 C 4.4 37 4.2 37.4 3.8 37.7 C 3.4 37.9 3 38.1 2.4 38.1 C 2.44 38.07 1.2 38.1 1.2 38.1 L 1.2 39.8 L 0.7 39.8 Z M 1.2 37.6 C 1.2 37.6 2.46 37.57 2.5 37.6 C 2.9 37.6 3.2 37.5 3.4 37.3 C 3.7 37.1 3.8 36.8 3.8 36.5 C 3.8 36.5 3.8 36.5 3.8 36.5 C 3.8 36.1 3.7 35.9 3.4 35.7 C 3.2 35.5 2.9 35.4 2.5 35.4 C 2.49 35.41 1.2 35.4 1.2 35.4 L 1.2 37.6 Z M 5.4 39.8 L 5.4 34.9 C 5.4 34.9 7.2 34.9 7.2 34.9 C 7.8 34.9 8.2 35 8.5 35.3 C 8.9 35.6 9 36 9 36.5 C 9 36.5 9 36.5 9 36.5 C 9 37 8.9 37.4 8.5 37.7 C 8.1 37.9 7.7 38.1 7.1 38.1 C 7.11 38.07 5.9 38.1 5.9 38.1 L 5.9 39.8 L 5.4 39.8 Z M 5.9 37.6 C 5.9 37.6 7.13 37.57 7.1 37.6 C 7.5 37.6 7.9 37.5 8.1 37.3 C 8.4 37.1 8.5 36.8 8.5 36.5 C 8.5 36.5 8.5 36.5 8.5 36.5 C 8.5 36.1 8.4 35.9 8.1 35.7 C 7.9 35.5 7.6 35.4 7.2 35.4 C 7.16 35.41 5.9 35.4 5.9 35.4 L 5.9 37.6 Z M 11.3 40.7 L 14.6 34.2 L 15 34.2 L 11.8 40.7 L 11.3 40.7 Z M 19.5 39.9 C 18.7 39.9 18.1 39.6 17.5 39.1 C 17.5 39.1 17.8 38.7 17.8 38.7 C 18.1 38.9 18.3 39.1 18.6 39.2 C 18.9 39.3 19.2 39.4 19.5 39.4 C 19.8 39.4 20.1 39.3 20.3 39.1 C 20.5 39 20.6 38.8 20.6 38.5 C 20.6 38.5 20.6 38.5 20.6 38.5 C 20.6 38.3 20.5 38.1 20.3 38 C 20.2 37.8 19.8 37.7 19.3 37.6 C 18.7 37.5 18.3 37.3 18.1 37.1 C 17.8 36.9 17.7 36.6 17.7 36.2 C 17.7 36.2 17.7 36.2 17.7 36.2 C 17.7 35.8 17.8 35.5 18.1 35.2 C 18.4 35 18.8 34.8 19.3 34.8 C 19.6 34.8 19.9 34.9 20.2 35 C 20.5 35.1 20.7 35.2 21 35.4 C 21 35.4 20.7 35.9 20.7 35.9 C 20.3 35.5 19.8 35.3 19.3 35.3 C 19 35.3 18.7 35.4 18.5 35.6 C 18.3 35.7 18.2 35.9 18.2 36.1 C 18.2 36.1 18.2 36.1 18.2 36.1 C 18.2 36.4 18.3 36.6 18.5 36.7 C 18.7 36.9 19 37 19.6 37.1 C 20.1 37.2 20.5 37.4 20.8 37.6 C 21 37.8 21.2 38.1 21.2 38.5 C 21.2 38.5 21.2 38.5 21.2 38.5 C 21.2 38.9 21 39.2 20.7 39.5 C 20.4 39.7 20 39.9 19.5 39.9 Z M 23.9 39.9 C 23.1 39.9 22.5 39.6 21.9 39.1 C 21.9 39.1 22.2 38.7 22.2 38.7 C 22.5 38.9 22.8 39.1 23 39.2 C 23.3 39.3 23.6 39.4 23.9 39.4 C 24.2 39.4 24.5 39.3 24.7 39.1 C 24.9 39 25 38.8 25 38.5 C 25 38.5 25 38.5 25 38.5 C 25 38.3 24.9 38.1 24.7 38 C 24.6 37.8 24.2 37.7 23.7 37.6 C 23.2 37.5 22.7 37.3 22.5 37.1 C 22.2 36.9 22.1 36.6 22.1 36.2 C 22.1 36.2 22.1 36.2 22.1 36.2 C 22.1 35.8 22.2 35.5 22.5 35.2 C 22.8 35 23.2 34.8 23.7 34.8 C 24 34.8 24.4 34.9 24.6 35 C 24.9 35.1 25.2 35.2 25.4 35.4 C 25.4 35.4 25.1 35.9 25.1 35.9 C 24.7 35.5 24.2 35.3 23.7 35.3 C 23.4 35.3 23.1 35.4 22.9 35.6 C 22.7 35.7 22.6 35.9 22.6 36.1 C 22.6 36.1 22.6 36.1 22.6 36.1 C 22.6 36.4 22.7 36.6 22.9 36.7 C 23.1 36.9 23.4 37 24 37.1 C 24.5 37.2 24.9 37.4 25.2 37.6 C 25.4 37.8 25.6 38.1 25.6 38.5 C 25.6 38.5 25.6 38.5 25.6 38.5 C 25.6 38.9 25.4 39.2 25.1 39.5 C 24.8 39.7 24.4 39.9 23.9 39.9 Z M 29 39.8 L 29 38.6 L 26.4 38.6 L 26.3 38.2 L 29.1 34.9 L 29.6 34.9 L 29.6 38.2 L 30.3 38.2 L 30.3 38.6 L 29.6 38.6 L 29.6 39.8 L 29 39.8 Z M 27 38.2 L 29 38.2 L 29 35.6 L 27 38.2 Z M 31 39.8 L 31 39.4 C 31 39.4 32.81 37.8 32.8 37.8 C 33.2 37.5 33.5 37.2 33.6 37 C 33.8 36.7 33.8 36.5 33.8 36.3 C 33.8 36 33.7 35.8 33.5 35.6 C 33.4 35.4 33.1 35.3 32.8 35.3 C 32.6 35.3 32.3 35.4 32.1 35.5 C 31.9 35.7 31.7 35.9 31.5 36.2 C 31.5 36.2 31.1 35.9 31.1 35.9 C 31.4 35.5 31.6 35.2 31.9 35.1 C 32.1 34.9 32.5 34.8 32.9 34.8 C 33.3 34.8 33.7 35 34 35.2 C 34.3 35.5 34.4 35.8 34.4 36.2 C 34.4 36.2 34.4 36.2 34.4 36.2 C 34.4 36.6 34.3 36.9 34.1 37.1 C 33.9 37.4 33.6 37.7 33.2 38.1 C 33.17 38.13 31.9 39.3 31.9 39.3 L 34.5 39.3 L 34.5 39.8 L 31 39.8 Z M 39.5 37.3 C 39.5 38.1 39.3 38.7 38.9 39.1 C 38.5 39.6 38 39.9 37.4 39.9 C 36.8 39.9 36.3 39.6 35.9 39.2 C 35.5 38.7 35.3 38.1 35.3 37.4 C 35.3 37.4 35.3 37.3 35.3 37.3 C 35.3 36.6 35.5 36 35.9 35.6 C 36.3 35.1 36.8 34.8 37.4 34.8 C 38 34.8 38.5 35.1 38.9 35.5 C 39.3 36 39.5 36.6 39.5 37.3 C 39.46 37.34 39.5 37.3 39.5 37.3 C 39.5 37.3 39.46 37.35 39.5 37.3 Z M 35.9 37.3 C 35.9 37.9 36 38.4 36.3 38.8 C 36.6 39.2 37 39.4 37.4 39.4 C 37.8 39.4 38.2 39.2 38.5 38.8 C 38.7 38.4 38.9 37.9 38.9 37.4 C 38.9 37.4 38.9 37.3 38.9 37.3 C 38.9 36.8 38.7 36.3 38.5 35.9 C 38.2 35.5 37.8 35.3 37.4 35.3 C 36.9 35.3 36.6 35.5 36.3 35.9 C 36 36.3 35.9 36.8 35.9 37.3 C 35.9 37.34 35.9 37.3 35.9 37.3 C 35.9 37.3 35.9 37.35 35.9 37.3 Z " stroke="none" fill="#000"/>  </g>  <g id="Polygon371428">    <path d="M 0.7 23 L 0.7 18.1 C 0.7 18.1 2.8 18.1 2.8 18.1 C 3.4 18.1 3.9 18.3 4.2 18.6 C 4.4 18.8 4.6 19.2 4.6 19.6 C 4.6 19.6 4.6 19.6 4.6 19.6 C 4.6 20 4.4 20.3 4.2 20.5 C 4 20.8 3.6 20.9 3.2 21 C 3.24 21 4.7 23 4.7 23 L 4.1 23 L 2.6 21.1 L 1.2 21.1 L 1.2 23 L 0.7 23 Z M 1.2 20.6 C 1.2 20.6 2.75 20.6 2.8 20.6 C 3.1 20.6 3.4 20.5 3.7 20.3 C 3.9 20.1 4 19.9 4 19.6 C 4 19.6 4 19.6 4 19.6 C 4 19.3 3.9 19 3.7 18.9 C 3.5 18.7 3.2 18.6 2.8 18.6 C 2.76 18.61 1.2 18.6 1.2 18.6 L 1.2 20.6 Z M 8.7 22.4 C 8.3 22.9 7.8 23.1 7.2 23.1 C 6.7 23.1 6.2 22.9 5.9 22.6 C 5.5 22.2 5.4 21.8 5.4 21.2 C 5.4 21.2 5.4 21.2 5.4 21.2 C 5.4 20.7 5.5 20.2 5.9 19.8 C 6.2 19.5 6.6 19.3 7.1 19.3 C 7.6 19.3 8 19.5 8.3 19.8 C 8.6 20.2 8.8 20.7 8.8 21.2 C 8.8 21.3 8.8 21.3 8.8 21.4 C 8.8 21.4 5.9 21.4 5.9 21.4 C 6 21.8 6.1 22.1 6.3 22.3 C 6.6 22.5 6.9 22.6 7.2 22.6 C 7.6 22.6 8 22.4 8.3 22.1 C 8.33 22.1 8.7 22.4 8.7 22.4 C 8.7 22.4 8.67 22.4 8.7 22.4 Z M 5.9 21 C 5.9 21 8.2 21 8.2 21 C 8.2 20.6 8.1 20.3 7.9 20.1 C 7.7 19.9 7.4 19.8 7.1 19.8 C 6.8 19.8 6.5 19.9 6.3 20.1 C 6.1 20.3 6 20.6 5.9 21 Z M 9.7 23 L 9.7 19.4 L 10.3 19.4 C 10.3 19.4 10.28 20.01 10.3 20 C 10.6 19.5 11 19.3 11.5 19.3 C 11.9 19.3 12.3 19.4 12.5 19.7 C 12.8 20 12.9 20.3 12.9 20.8 C 12.9 20.75 12.9 23 12.9 23 L 12.4 23 C 12.4 23 12.36 20.89 12.4 20.9 C 12.4 20.5 12.3 20.3 12.1 20.1 C 11.9 19.9 11.7 19.8 11.4 19.8 C 11 19.8 10.8 19.9 10.6 20.1 C 10.4 20.3 10.3 20.6 10.3 20.9 C 10.28 20.93 10.3 23 10.3 23 L 9.7 23 Z M 14 23 L 14 17.9 L 14.6 17.9 L 14.6 21.4 L 16.5 19.4 L 17.2 19.4 L 15.7 20.9 L 17.3 23 L 16.6 23 L 15.3 21.3 L 14.6 22.1 L 14.6 23 L 14 23 Z M 18 20.1 L 18 19.4 L 18.6 19.4 L 18.6 20.1 L 18 20.1 Z M 18 23 L 18 22.3 L 18.6 22.3 L 18.6 23 L 18 23 Z M 22 23 L 22 18.1 C 22 18.1 24.09 18.1 24.1 18.1 C 24.6 18.1 25.1 18.2 25.4 18.5 C 25.6 18.7 25.7 19 25.7 19.3 C 25.7 19.3 25.7 19.3 25.7 19.3 C 25.7 19.9 25.4 20.2 24.9 20.5 C 25.6 20.7 26 21.1 26 21.6 C 26 21.6 26 21.7 26 21.7 C 26 22.1 25.8 22.4 25.5 22.6 C 25.2 22.9 24.7 23 24.2 23 C 24.18 23 22 23 22 23 Z M 25.1 19.4 C 25.1 19.4 25.1 19.4 25.1 19.4 C 25.1 19.1 25 19 24.8 18.8 C 24.7 18.7 24.4 18.6 24 18.6 C 24.04 18.6 22.5 18.6 22.5 18.6 L 22.5 20.3 C 22.5 20.3 24 20.28 24 20.3 C 24.3 20.3 24.6 20.2 24.8 20.1 C 25 19.9 25.1 19.7 25.1 19.4 Z M 25.4 21.6 C 25.4 21.6 25.4 21.6 25.4 21.6 C 25.4 21.3 25.3 21.1 25.1 21 C 24.8 20.8 24.5 20.8 24.1 20.8 C 24.09 20.77 22.5 20.8 22.5 20.8 L 22.5 22.5 C 22.5 22.5 24.19 22.5 24.2 22.5 C 24.6 22.5 24.9 22.4 25.1 22.3 C 25.3 22.1 25.4 21.9 25.4 21.6 Z M 27 23 L 27 17.9 L 27.6 17.9 L 27.6 23 L 27 23 Z M 31.2 22.5 C 30.9 22.9 30.4 23.1 29.9 23.1 C 29.5 23.1 29.2 23 28.9 22.8 C 28.7 22.6 28.5 22.3 28.5 21.9 C 28.5 21.9 28.5 21.9 28.5 21.9 C 28.5 21.6 28.7 21.3 29 21.1 C 29.2 20.9 29.6 20.8 30.1 20.8 C 30.4 20.8 30.8 20.8 31.2 20.9 C 31.2 20.9 31.2 20.8 31.2 20.8 C 31.2 20.5 31.1 20.2 30.9 20.1 C 30.7 19.9 30.5 19.8 30.1 19.8 C 29.7 19.8 29.4 19.9 29 20.1 C 29 20.1 28.9 19.6 28.9 19.6 C 29.3 19.4 29.7 19.3 30.2 19.3 C 30.7 19.3 31.1 19.5 31.3 19.7 C 31.6 20 31.7 20.3 31.7 20.8 C 31.71 20.79 31.7 23 31.7 23 L 31.2 23 L 31.2 22.5 C 31.2 22.5 31.19 22.45 31.2 22.5 Z M 30 22.6 C 30.3 22.6 30.6 22.6 30.8 22.4 C 31.1 22.2 31.2 22 31.2 21.7 C 31.2 21.7 31.2 21.3 31.2 21.3 C 30.8 21.2 30.5 21.2 30.1 21.2 C 29.8 21.2 29.5 21.2 29.4 21.4 C 29.2 21.5 29.1 21.7 29.1 21.9 C 29.1 21.9 29.1 21.9 29.1 21.9 C 29.1 22.1 29.2 22.3 29.3 22.5 C 29.5 22.6 29.7 22.6 30 22.6 Z M 36 22.4 C 35.6 22.9 35.1 23.1 34.5 23.1 C 34 23.1 33.5 22.9 33.2 22.5 C 32.8 22.2 32.6 21.7 32.6 21.2 C 32.6 21.2 32.6 21.2 32.6 21.2 C 32.6 20.7 32.8 20.2 33.2 19.9 C 33.5 19.5 34 19.3 34.5 19.3 C 35 19.3 35.5 19.5 35.9 19.9 C 35.9 19.9 35.6 20.3 35.6 20.3 C 35.2 20 34.9 19.8 34.5 19.8 C 34.1 19.8 33.8 19.9 33.6 20.2 C 33.3 20.5 33.2 20.8 33.2 21.2 C 33.2 21.2 33.2 21.2 33.2 21.2 C 33.2 21.6 33.3 21.9 33.6 22.2 C 33.8 22.5 34.1 22.6 34.5 22.6 C 34.9 22.6 35.3 22.4 35.6 22.1 C 35.62 22.06 36 22.4 36 22.4 C 36 22.4 35.97 22.38 36 22.4 Z M 36.9 23 L 36.9 17.9 L 37.4 17.9 L 37.4 21.4 L 39.3 19.4 L 40 19.4 L 38.5 20.9 L 40.1 23 L 39.4 23 L 38.1 21.3 L 37.4 22.1 L 37.4 23 L 36.9 23 Z " stroke="none" fill="#000"/>  </g>  <g id="Polygon371427">    <path d="M 3 9.3 L 3 8.6 L 3.6 8.6 L 3.6 9.3 L 3 9.3 Z M 1.7 9.3 L 1.7 8.6 L 2.3 8.6 L 2.3 9.3 L 1.7 9.3 Z M 2.7 14.7 C 2 14.7 1.5 14.5 1.2 14.1 C 0.8 13.7 0.6 13.2 0.6 12.5 C 0.62 12.55 0.6 9.7 0.6 9.7 L 1.2 9.7 C 1.2 9.7 1.17 12.51 1.2 12.5 C 1.2 13 1.3 13.4 1.6 13.7 C 1.8 14 2.2 14.2 2.7 14.2 C 3.1 14.2 3.5 14 3.8 13.8 C 4 13.5 4.1 13.1 4.1 12.5 C 4.14 12.55 4.1 9.7 4.1 9.7 L 4.7 9.7 C 4.7 9.7 4.7 12.51 4.7 12.5 C 4.7 13.2 4.5 13.7 4.1 14.1 C 3.8 14.5 3.3 14.7 2.7 14.7 Z M 5.9 14.6 L 5.9 11 L 6.5 11 C 6.5 11 6.45 11.93 6.5 11.9 C 6.6 11.6 6.8 11.4 7 11.2 C 7.3 11 7.6 10.9 7.9 10.9 C 7.93 10.92 7.9 11.5 7.9 11.5 C 7.9 11.5 7.89 11.5 7.9 11.5 C 7.5 11.5 7.1 11.6 6.9 11.9 C 6.6 12.2 6.5 12.6 6.5 13.2 C 6.45 13.16 6.5 14.6 6.5 14.6 L 5.9 14.6 Z M 10.6 10.4 L 10.6 9.8 L 11.2 9.8 L 11.2 10.4 L 10.6 10.4 Z M 9.3 10.4 L 9.3 9.8 L 10 9.8 L 10 10.4 L 9.3 10.4 Z M 11.3 14 C 11 14.4 10.6 14.7 10.1 14.7 C 9.7 14.7 9.3 14.5 9.1 14.3 C 8.8 14 8.7 13.7 8.7 13.2 C 8.69 13.23 8.7 11 8.7 11 L 9.2 11 C 9.2 11 9.23 13.09 9.2 13.1 C 9.2 13.4 9.3 13.7 9.5 13.9 C 9.7 14.1 9.9 14.2 10.2 14.2 C 10.5 14.2 10.8 14.1 11 13.9 C 11.2 13.7 11.3 13.4 11.3 13.1 C 11.32 13.05 11.3 11 11.3 11 L 11.9 11 L 11.9 14.6 L 11.3 14.6 L 11.3 14 C 11.3 14 11.32 13.97 11.3 14 Z M 13.1 14.6 L 13.1 11 L 13.6 11 C 13.6 11 13.6 11.61 13.6 11.6 C 13.9 11.1 14.3 10.9 14.8 10.9 C 15.3 10.9 15.6 11 15.9 11.3 C 16.1 11.6 16.2 11.9 16.2 12.4 C 16.23 12.35 16.2 14.6 16.2 14.6 L 15.7 14.6 C 15.7 14.6 15.69 12.49 15.7 12.5 C 15.7 12.1 15.6 11.9 15.4 11.7 C 15.2 11.5 15 11.4 14.7 11.4 C 14.4 11.4 14.1 11.5 13.9 11.7 C 13.7 11.9 13.6 12.2 13.6 12.5 C 13.6 12.53 13.6 14.6 13.6 14.6 L 13.1 14.6 Z M 19.6 14.6 L 19.6 9.7 L 20.1 9.7 L 20.1 12.6 L 22.9 9.7 L 23.7 9.7 L 21.5 11.8 L 23.7 14.6 L 23 14.6 L 21.2 12.2 L 20.1 13.3 L 20.1 14.6 L 19.6 14.6 Z M 25.9 14.7 C 25.4 14.7 25 14.5 24.6 14.1 C 24.3 13.8 24.1 13.3 24.1 12.8 C 24.1 12.8 24.1 12.8 24.1 12.8 C 24.1 12.3 24.3 11.8 24.6 11.5 C 25 11.1 25.4 10.9 26 10.9 C 26.5 10.9 26.9 11.1 27.3 11.5 C 27.7 11.8 27.8 12.3 27.8 12.8 C 27.8 12.8 27.8 12.8 27.8 12.8 C 27.8 13.3 27.7 13.8 27.3 14.1 C 26.9 14.5 26.5 14.7 25.9 14.7 Z M 26 14.2 C 26.3 14.2 26.7 14.1 26.9 13.8 C 27.2 13.5 27.3 13.2 27.3 12.8 C 27.3 12.8 27.3 12.8 27.3 12.8 C 27.3 12.4 27.2 12.1 26.9 11.8 C 26.6 11.5 26.3 11.4 25.9 11.4 C 25.6 11.4 25.2 11.5 25 11.8 C 24.8 12.1 24.6 12.4 24.6 12.8 C 24.6 12.8 24.6 12.8 24.6 12.8 C 24.6 13.2 24.8 13.5 25 13.8 C 25.3 14.1 25.6 14.2 26 14.2 Z M 31.7 13.9 C 31.4 14.4 30.9 14.7 30.3 14.7 C 29.9 14.7 29.5 14.5 29.1 14.2 C 28.8 13.8 28.6 13.4 28.6 12.8 C 28.6 12.8 28.6 12.8 28.6 12.8 C 28.6 12.2 28.8 11.8 29.1 11.4 C 29.5 11.1 29.9 10.9 30.3 10.9 C 30.9 10.9 31.4 11.2 31.7 11.7 C 31.72 11.67 31.7 9.5 31.7 9.5 L 32.3 9.5 L 32.3 14.6 L 31.7 14.6 L 31.7 13.9 C 31.7 13.9 31.72 13.87 31.7 13.9 Z M 30.4 14.2 C 30.8 14.2 31.1 14.1 31.4 13.8 C 31.6 13.5 31.7 13.2 31.7 12.8 C 31.7 12.8 31.7 12.8 31.7 12.8 C 31.7 12.4 31.6 12 31.4 11.8 C 31.1 11.5 30.8 11.4 30.4 11.4 C 30.1 11.4 29.8 11.5 29.5 11.8 C 29.3 12 29.2 12.4 29.2 12.8 C 29.2 12.8 29.2 12.8 29.2 12.8 C 29.2 13.2 29.3 13.6 29.5 13.8 C 29.8 14.1 30.1 14.2 30.4 14.2 Z M 36 14 C 35.7 14.4 35.3 14.7 34.8 14.7 C 34.4 14.7 34 14.5 33.8 14.3 C 33.5 14 33.4 13.7 33.4 13.2 C 33.41 13.23 33.4 11 33.4 11 L 33.9 11 C 33.9 11 33.95 13.09 33.9 13.1 C 33.9 13.4 34 13.7 34.2 13.9 C 34.4 14.1 34.6 14.2 35 14.2 C 35.3 14.2 35.5 14.1 35.7 13.9 C 35.9 13.7 36 13.4 36 13.1 C 36.04 13.05 36 11 36 11 L 36.6 11 L 36.6 14.6 L 36 14.6 L 36 14 C 36 14 36.04 13.97 36 14 Z M 37.7 11.7 L 37.7 11 L 38.4 11 L 38.4 11.7 L 37.7 11.7 Z M 37.7 14.6 L 37.7 13.9 L 38.4 13.9 L 38.4 14.6 L 37.7 14.6 Z M 41.5 14.6 L 41.5 13.8 L 44.2 10.6 L 41.6 10.6 L 41.6 9.7 L 45.6 9.7 L 45.6 10.5 L 42.9 13.7 L 45.6 13.7 L 45.6 14.6 L 41.5 14.6 Z M 46.6 14.6 L 46.6 9.7 C 46.6 9.7 48.51 9.7 48.5 9.7 C 49.3 9.7 49.9 9.9 50.4 10.4 C 50.9 10.9 51.1 11.4 51.1 12.1 C 51.1 12.1 51.1 12.1 51.1 12.1 C 51.1 12.8 50.9 13.4 50.4 13.9 C 49.9 14.4 49.3 14.6 48.5 14.6 C 48.51 14.6 46.6 14.6 46.6 14.6 Z M 48.5 10.7 C 48.51 10.67 47.7 10.7 47.7 10.7 L 47.7 13.6 C 47.7 13.6 48.51 13.63 48.5 13.6 C 48.9 13.6 49.3 13.5 49.6 13.2 C 49.8 13 50 12.6 50 12.2 C 50 12.2 50 12.1 50 12.1 C 50 11.7 49.8 11.4 49.6 11.1 C 49.3 10.8 48.9 10.7 48.5 10.7 Z M 53.9 14.6 L 53.9 13.7 C 53.9 13.7 55.56 12.41 55.6 12.4 C 55.9 12.1 56.1 11.9 56.2 11.8 C 56.3 11.6 56.4 11.4 56.4 11.2 C 56.4 11 56.3 10.9 56.2 10.8 C 56.1 10.7 55.9 10.6 55.7 10.6 C 55.6 10.6 55.4 10.6 55.3 10.7 C 55.1 10.8 54.9 11 54.7 11.3 C 54.7 11.3 54 10.6 54 10.6 C 54.3 10.3 54.5 10 54.8 9.9 C 55.1 9.7 55.4 9.6 55.8 9.6 C 56.3 9.6 56.7 9.8 57 10 C 57.3 10.3 57.5 10.7 57.5 11.1 C 57.5 11.1 57.5 11.2 57.5 11.2 C 57.5 11.5 57.4 11.9 57.2 12.1 C 57 12.4 56.7 12.7 56.2 13.1 C 56.22 13.05 55.4 13.7 55.4 13.7 L 57.6 13.7 L 57.6 14.6 L 53.9 14.6 Z M 59 13.3 C 59.4 13.6 59.7 13.7 60.1 13.7 C 60.3 13.7 60.5 13.6 60.7 13.5 C 60.8 13.4 60.9 13.2 61 13.1 C 61 12.9 61.1 12.8 61.1 12.6 C 60.8 12.8 60.5 12.9 60.1 12.9 C 59.6 12.9 59.1 12.8 58.8 12.5 C 58.5 12.2 58.3 11.8 58.3 11.3 C 58.3 11.3 58.3 11.3 58.3 11.3 C 58.3 10.8 58.5 10.4 58.9 10.1 C 59.2 9.8 59.7 9.6 60.2 9.6 C 60.5 9.6 60.8 9.7 61 9.7 C 61.2 9.8 61.4 10 61.6 10.1 C 62 10.5 62.2 11.2 62.2 12 C 62.2 12 62.2 12 62.2 12 C 62.2 12.8 62 13.5 61.6 14 C 61.3 14.4 60.7 14.7 60.1 14.7 C 59.5 14.7 58.9 14.5 58.4 14.1 C 58.45 14.1 59 13.3 59 13.3 C 59 13.3 59.02 13.28 59 13.3 Z M 60.3 12 C 60.5 12 60.7 12 60.9 11.8 C 61 11.7 61.1 11.5 61.1 11.3 C 61.1 11.3 61.1 11.3 61.1 11.3 C 61.1 11.1 61 10.9 60.9 10.7 C 60.7 10.6 60.5 10.5 60.2 10.5 C 60 10.5 59.8 10.6 59.6 10.7 C 59.5 10.9 59.4 11.1 59.4 11.3 C 59.4 11.3 59.4 11.3 59.4 11.3 C 59.4 11.5 59.5 11.7 59.6 11.8 C 59.8 12 60 12 60.3 12 Z M 65 14.7 C 64.4 14.7 63.9 14.5 63.5 14.2 C 63.2 13.8 63 13.2 63 12.3 C 63 12.3 63 12.3 63 12.3 C 63 11.5 63.1 10.9 63.5 10.4 C 63.9 9.9 64.4 9.6 65.1 9.6 C 65.7 9.6 66.2 9.8 66.6 10.2 C 66.6 10.2 66.1 11 66.1 11 C 65.9 10.9 65.7 10.8 65.6 10.7 C 65.4 10.6 65.3 10.6 65.1 10.6 C 64.9 10.6 64.7 10.6 64.6 10.7 C 64.5 10.8 64.4 10.9 64.3 11 C 64.2 11.1 64.2 11.3 64.2 11.4 C 64.1 11.5 64.1 11.6 64.1 11.7 C 64.4 11.5 64.7 11.4 65.1 11.4 C 65.6 11.4 66 11.6 66.3 11.8 C 66.7 12.1 66.8 12.5 66.8 13 C 66.8 13 66.8 13 66.8 13 C 66.8 13.5 66.6 13.9 66.3 14.2 C 65.9 14.5 65.5 14.7 65 14.7 Z M 64.1 13 C 64.1 13.2 64.1 13.4 64.3 13.6 C 64.4 13.7 64.6 13.8 64.9 13.8 C 65.2 13.8 65.4 13.7 65.5 13.6 C 65.7 13.4 65.8 13.3 65.8 13 C 65.8 13 65.8 13 65.8 13 C 65.8 12.8 65.7 12.6 65.5 12.5 C 65.4 12.4 65.2 12.3 64.9 12.3 C 64.6 12.3 64.4 12.4 64.3 12.5 C 64.1 12.6 64.1 12.8 64.1 13 C 64.06 13.02 64.1 13 64.1 13 C 64.1 13 64.06 13.03 64.1 13 Z M 67.6 14.6 L 67.6 13.7 C 67.6 13.7 69.19 12.41 69.2 12.4 C 69.5 12.1 69.7 11.9 69.9 11.8 C 70 11.6 70 11.4 70 11.2 C 70 11 70 10.9 69.9 10.8 C 69.7 10.7 69.6 10.6 69.4 10.6 C 69.2 10.6 69 10.6 68.9 10.7 C 68.7 10.8 68.6 11 68.4 11.3 C 68.4 11.3 67.6 10.6 67.6 10.6 C 67.9 10.3 68.1 10 68.4 9.9 C 68.7 9.7 69 9.6 69.4 9.6 C 70 9.6 70.4 9.8 70.7 10 C 71 10.3 71.1 10.7 71.1 11.1 C 71.1 11.1 71.1 11.2 71.1 11.2 C 71.1 11.5 71 11.9 70.9 12.1 C 70.7 12.4 70.3 12.7 69.8 13.1 C 69.85 13.05 69 13.7 69 13.7 L 71.2 13.7 L 71.2 14.6 L 67.6 14.6 Z M 72.8 14.6 L 72.8 10.8 L 72 11 L 71.7 10.1 L 73.1 9.7 L 73.9 9.7 L 73.9 14.6 L 72.8 14.6 Z " stroke="none" fill="#000"/>  </g>  <g id="Polygon371426">    <path d="M 2.3 5.7 C 1.5 5.7 0.8 5.4 0.3 4.9 C 0.3 4.9 0.9 4.1 0.9 4.1 C 1.4 4.5 1.9 4.7 2.4 4.7 C 2.6 4.7 2.7 4.7 2.9 4.6 C 3 4.5 3.1 4.4 3.1 4.3 C 3.1 4.3 3.1 4.2 3.1 4.2 C 3.1 4.1 3 4 2.9 3.9 C 2.7 3.8 2.5 3.7 2.1 3.6 C 1.8 3.5 1.6 3.5 1.4 3.4 C 1.2 3.3 1.1 3.3 0.9 3.1 C 0.7 3 0.6 2.9 0.6 2.7 C 0.5 2.6 0.4 2.4 0.4 2.1 C 0.4 2.1 0.4 2.1 0.4 2.1 C 0.4 1.7 0.6 1.3 0.9 1 C 1.2 0.8 1.7 0.6 2.2 0.6 C 2.9 0.6 3.5 0.8 4 1.3 C 4 1.3 3.4 2.1 3.4 2.1 C 3 1.7 2.5 1.6 2.1 1.6 C 1.9 1.6 1.8 1.6 1.7 1.7 C 1.6 1.8 1.5 1.9 1.5 2 C 1.5 2 1.5 2 1.5 2 C 1.5 2.2 1.6 2.3 1.7 2.4 C 1.9 2.5 2.1 2.6 2.6 2.7 C 3.1 2.8 3.5 3 3.8 3.2 C 4 3.4 4.1 3.7 4.1 4.1 C 4.1 4.1 4.1 4.2 4.1 4.2 C 4.1 4.6 4 5 3.6 5.3 C 3.3 5.5 2.9 5.7 2.3 5.7 Z M 8.3 5 C 7.9 5.5 7.4 5.7 6.7 5.7 C 6.2 5.7 5.7 5.5 5.3 5.1 C 5 4.8 4.8 4.3 4.8 3.7 C 4.8 3.7 4.8 3.7 4.8 3.7 C 4.8 3.2 4.9 2.7 5.3 2.3 C 5.6 2 6.1 1.8 6.6 1.8 C 7.2 1.8 7.7 2 8 2.4 C 8.3 2.8 8.5 3.2 8.5 3.8 C 8.5 3.9 8.5 4 8.4 4.1 C 8.4 4.1 5.8 4.1 5.8 4.1 C 5.9 4.3 6 4.5 6.1 4.6 C 6.3 4.8 6.5 4.8 6.7 4.8 C 7.1 4.8 7.4 4.7 7.7 4.4 C 7.66 4.44 8.3 5 8.3 5 C 8.3 5 8.27 4.98 8.3 5 Z M 5.8 3.4 C 5.8 3.4 7.4 3.4 7.4 3.4 C 7.4 3.2 7.3 3 7.2 2.8 C 7 2.7 6.8 2.6 6.6 2.6 C 6.4 2.6 6.2 2.7 6.1 2.8 C 5.9 3 5.9 3.2 5.8 3.4 Z M 11.5 5.7 C 11 5.7 10.6 5.5 10.3 5.1 C 10.31 5.11 10.3 5.6 10.3 5.6 L 9.2 5.6 L 9.2 0.5 L 10.3 0.5 C 10.3 0.5 10.31 2.39 10.3 2.4 C 10.6 2 11 1.8 11.5 1.8 C 11.9 1.8 12.3 2 12.7 2.3 C 13 2.6 13.2 3.1 13.2 3.7 C 13.2 3.7 13.2 3.7 13.2 3.7 C 13.2 4.3 13 4.8 12.7 5.1 C 12.4 5.5 12 5.7 11.5 5.7 Z M 10.3 3.7 C 10.3 4 10.4 4.3 10.6 4.5 C 10.7 4.7 11 4.8 11.2 4.8 C 11.5 4.8 11.7 4.7 11.9 4.5 C 12 4.3 12.1 4 12.1 3.7 C 12.1 3.7 12.1 3.7 12.1 3.7 C 12.1 3.4 12 3.2 11.9 3 C 11.7 2.8 11.5 2.7 11.2 2.7 C 11 2.7 10.7 2.8 10.6 3 C 10.4 3.2 10.3 3.4 10.3 3.7 C 10.3 3.72 10.3 3.7 10.3 3.7 C 10.3 3.7 10.3 3.73 10.3 3.7 Z M 13.7 5.6 L 13.7 4.9 L 15.7 2.7 L 13.8 2.7 L 13.8 1.8 L 17 1.8 L 17 2.6 L 15.1 4.7 L 17 4.7 L 17 5.6 L 13.7 5.6 Z M 21 5 C 20.6 5.5 20.1 5.7 19.5 5.7 C 18.9 5.7 18.4 5.5 18.1 5.1 C 17.7 4.8 17.5 4.3 17.5 3.7 C 17.5 3.7 17.5 3.7 17.5 3.7 C 17.5 3.2 17.7 2.7 18 2.3 C 18.4 2 18.8 1.8 19.4 1.8 C 20 1.8 20.4 2 20.7 2.4 C 21 2.8 21.2 3.2 21.2 3.8 C 21.2 3.9 21.2 4 21.2 4.1 C 21.2 4.1 18.6 4.1 18.6 4.1 C 18.6 4.3 18.7 4.5 18.9 4.6 C 19.1 4.8 19.3 4.8 19.5 4.8 C 19.8 4.8 20.1 4.7 20.4 4.4 C 20.4 4.44 21 5 21 5 C 21 5 21.01 4.98 21 5 Z M 18.6 3.4 C 18.6 3.4 20.2 3.4 20.2 3.4 C 20.1 3.2 20 3 19.9 2.8 C 19.8 2.7 19.6 2.6 19.4 2.6 C 19.2 2.6 19 2.7 18.8 2.8 C 18.7 3 18.6 3.2 18.6 3.4 Z M 25.9 5.7 C 25.1 5.7 24.4 5.4 23.9 4.9 C 23.9 4.9 24.5 4.1 24.5 4.1 C 25 4.5 25.5 4.7 26 4.7 C 26.2 4.7 26.4 4.7 26.5 4.6 C 26.6 4.5 26.7 4.4 26.7 4.3 C 26.7 4.3 26.7 4.2 26.7 4.2 C 26.7 4.1 26.6 4 26.5 3.9 C 26.3 3.8 26.1 3.7 25.7 3.6 C 25.4 3.5 25.2 3.5 25 3.4 C 24.8 3.3 24.7 3.3 24.5 3.1 C 24.4 3 24.2 2.9 24.2 2.7 C 24.1 2.6 24.1 2.4 24.1 2.1 C 24.1 2.1 24.1 2.1 24.1 2.1 C 24.1 1.7 24.2 1.3 24.5 1 C 24.9 0.8 25.3 0.6 25.8 0.6 C 26.5 0.6 27.1 0.8 27.6 1.3 C 27.6 1.3 27 2.1 27 2.1 C 26.6 1.7 26.1 1.6 25.8 1.6 C 25.6 1.6 25.4 1.6 25.3 1.7 C 25.2 1.8 25.1 1.9 25.1 2 C 25.1 2 25.1 2 25.1 2 C 25.1 2.2 25.2 2.3 25.3 2.4 C 25.5 2.5 25.8 2.6 26.2 2.7 C 26.7 2.8 27.1 3 27.4 3.2 C 27.6 3.4 27.7 3.7 27.7 4.1 C 27.7 4.1 27.7 4.2 27.7 4.2 C 27.7 4.6 27.6 5 27.3 5.3 C 26.9 5.5 26.5 5.7 25.9 5.7 Z M 30.4 5.7 C 29.8 5.7 29.4 5.5 29 5.1 C 28.6 4.8 28.4 4.3 28.4 3.7 C 28.4 3.7 28.4 3.7 28.4 3.7 C 28.4 3.2 28.6 2.7 29 2.3 C 29.4 2 29.8 1.8 30.4 1.8 C 31 1.8 31.5 2 31.9 2.3 C 32.3 2.7 32.5 3.2 32.5 3.7 C 32.5 3.7 32.5 3.7 32.5 3.7 C 32.5 4.3 32.3 4.7 31.9 5.1 C 31.5 5.5 31 5.7 30.4 5.7 Z M 30.4 4.8 C 30.7 4.8 31 4.7 31.1 4.5 C 31.3 4.3 31.4 4 31.4 3.7 C 31.4 3.7 31.4 3.7 31.4 3.7 C 31.4 3.4 31.3 3.2 31.1 3 C 30.9 2.8 30.7 2.7 30.4 2.7 C 30.1 2.7 29.9 2.8 29.7 3 C 29.5 3.2 29.4 3.4 29.4 3.7 C 29.4 3.7 29.4 3.7 29.4 3.7 C 29.4 4 29.5 4.3 29.7 4.5 C 29.9 4.7 30.1 4.8 30.4 4.8 Z M 34.7 4.4 L 35.5 1.8 L 36.6 1.8 C 36.6 1.8 35.14 5.69 35.1 5.7 C 35 6.1 34.8 6.3 34.7 6.5 C 34.5 6.7 34.2 6.7 33.9 6.7 C 33.6 6.7 33.3 6.7 33 6.5 C 33 6.5 33.3 5.7 33.3 5.7 C 33.5 5.8 33.6 5.9 33.8 5.9 C 33.9 5.9 33.9 5.8 34 5.8 C 34 5.8 34.1 5.7 34.1 5.6 C 34.15 5.61 32.7 1.8 32.7 1.8 L 33.8 1.8 L 34.7 4.4 Z M 39.2 5.2 C 38.9 5.5 38.6 5.7 38.1 5.7 C 37.7 5.7 37.4 5.6 37.2 5.4 C 36.9 5.2 36.8 4.9 36.8 4.5 C 36.8 4.5 36.8 4.5 36.8 4.5 C 36.8 4.1 36.9 3.8 37.2 3.6 C 37.5 3.4 37.9 3.3 38.3 3.3 C 38.6 3.3 38.9 3.4 39.2 3.5 C 39.2 3.5 39.2 3.4 39.2 3.4 C 39.2 2.9 39 2.7 38.4 2.7 C 38.1 2.7 37.8 2.8 37.4 2.9 C 37.4 2.9 37.1 2.1 37.1 2.1 C 37.6 1.9 38.1 1.8 38.6 1.8 C 39.2 1.8 39.6 1.9 39.9 2.2 C 40.1 2.5 40.3 2.9 40.3 3.4 C 40.26 3.42 40.3 5.6 40.3 5.6 L 39.2 5.6 L 39.2 5.2 C 39.2 5.2 39.23 5.19 39.2 5.2 Z M 38.4 4.9 C 38.7 4.9 38.9 4.9 39 4.8 C 39.2 4.6 39.3 4.5 39.3 4.3 C 39.3 4.3 39.3 4.1 39.3 4.1 C 39 4 38.8 3.9 38.6 3.9 C 38.3 3.9 38.2 4 38 4.1 C 37.9 4.2 37.8 4.3 37.8 4.5 C 37.8 4.5 37.8 4.5 37.8 4.5 C 37.8 4.6 37.9 4.7 38 4.8 C 38.1 4.9 38.2 4.9 38.4 4.9 Z M 43 5.7 C 42.4 5.7 41.9 5.5 41.6 5.1 C 41.2 4.7 41 4.3 41 3.7 C 41 3.7 41 3.7 41 3.7 C 41 3.2 41.2 2.7 41.6 2.3 C 41.9 2 42.4 1.8 43 1.8 C 43.6 1.8 44.1 2 44.5 2.4 C 44.5 2.4 43.8 3.1 43.8 3.1 C 43.7 3 43.5 2.9 43.4 2.8 C 43.3 2.7 43.1 2.7 43 2.7 C 42.7 2.7 42.5 2.8 42.3 3 C 42.1 3.2 42 3.4 42 3.7 C 42 3.7 42 3.7 42 3.7 C 42 4 42.1 4.3 42.3 4.5 C 42.5 4.7 42.7 4.8 43 4.8 C 43.3 4.8 43.6 4.6 43.9 4.4 C 43.9 4.4 44.5 5 44.5 5 C 44.3 5.2 44.1 5.4 43.8 5.5 C 43.6 5.6 43.3 5.7 43 5.7 Z M 47.4 5.2 C 47.1 5.5 46.7 5.7 46.2 5.7 C 45.9 5.7 45.6 5.6 45.3 5.4 C 45.1 5.2 45 4.9 45 4.5 C 45 4.5 45 4.5 45 4.5 C 45 4.1 45.1 3.8 45.4 3.6 C 45.6 3.4 46 3.3 46.5 3.3 C 46.8 3.3 47.1 3.4 47.4 3.5 C 47.4 3.5 47.4 3.4 47.4 3.4 C 47.4 2.9 47.1 2.7 46.6 2.7 C 46.2 2.7 45.9 2.8 45.5 2.9 C 45.5 2.9 45.3 2.1 45.3 2.1 C 45.7 1.9 46.2 1.8 46.7 1.8 C 47.3 1.8 47.7 1.9 48 2.2 C 48.3 2.5 48.4 2.9 48.4 3.4 C 48.4 3.42 48.4 5.6 48.4 5.6 L 47.4 5.6 L 47.4 5.2 C 47.4 5.2 47.38 5.19 47.4 5.2 Z M 46.6 4.9 C 46.8 4.9 47 4.9 47.2 4.8 C 47.3 4.6 47.4 4.5 47.4 4.3 C 47.4 4.3 47.4 4.1 47.4 4.1 C 47.2 4 47 3.9 46.7 3.9 C 46.5 3.9 46.3 4 46.2 4.1 C 46 4.2 46 4.3 46 4.5 C 46 4.5 46 4.5 46 4.5 C 46 4.6 46 4.7 46.1 4.8 C 46.3 4.9 46.4 4.9 46.6 4.9 Z M 52.6 6.2 C 52.3 6.6 51.7 6.7 51 6.7 C 50.4 6.7 49.8 6.6 49.3 6.3 C 49.3 6.3 49.7 5.5 49.7 5.5 C 50.1 5.8 50.5 5.9 51 5.9 C 51.7 5.9 52 5.5 52 4.9 C 52 4.9 52 4.7 52 4.7 C 51.9 4.9 51.7 5 51.5 5.1 C 51.3 5.2 51.1 5.3 50.8 5.3 C 50.4 5.3 50 5.1 49.6 4.8 C 49.3 4.5 49.2 4.1 49.2 3.5 C 49.2 3.5 49.2 3.5 49.2 3.5 C 49.2 3 49.3 2.6 49.6 2.3 C 50 1.9 50.4 1.8 50.8 1.8 C 51.3 1.8 51.7 2 52 2.3 C 52.03 2.34 52 1.8 52 1.8 L 53.1 1.8 C 53.1 1.8 53.09 4.75 53.1 4.8 C 53.1 5.4 52.9 5.9 52.6 6.2 C 52.6 6.2 52.6 6.2 52.6 6.2 Z M 50.2 3.5 C 50.2 3.8 50.3 4 50.5 4.2 C 50.6 4.3 50.9 4.4 51.1 4.4 C 51.4 4.4 51.6 4.3 51.8 4.2 C 52 4 52 3.8 52 3.5 C 52 3.5 52 3.5 52 3.5 C 52 3.3 52 3.1 51.8 2.9 C 51.6 2.7 51.4 2.7 51.1 2.7 C 50.9 2.7 50.6 2.7 50.5 2.9 C 50.3 3.1 50.2 3.3 50.2 3.5 C 50.22 3.53 50.2 3.5 50.2 3.5 C 50.2 3.5 50.22 3.54 50.2 3.5 Z M 52.6 0.3 C 52.5 0.7 52.4 1 52.2 1.2 C 51.9 1.4 51.6 1.4 51.3 1.4 C 50.9 1.4 50.6 1.4 50.3 1.2 C 50.1 1 50 0.7 49.9 0.3 C 49.9 0.3 50.7 0.3 50.7 0.3 C 50.8 0.6 51 0.8 51.3 0.8 C 51.6 0.8 51.8 0.6 51.9 0.3 C 51.86 0.34 52.6 0.3 52.6 0.3 C 52.6 0.3 52.58 0.34 52.6 0.3 Z M 54.1 5.6 L 54.1 1.8 L 55.2 1.8 L 55.2 5.6 L 54.1 5.6 Z M 58.1 3.9 L 58.1 2.9 L 61.1 2.9 L 61.1 3.9 L 58.1 3.9 Z M 65.9 5.7 C 65.1 5.7 64.4 5.4 63.8 4.9 C 63.8 4.9 64.5 4.1 64.5 4.1 C 65 4.5 65.4 4.7 65.9 4.7 C 66.2 4.7 66.3 4.7 66.5 4.6 C 66.6 4.5 66.6 4.4 66.6 4.3 C 66.6 4.3 66.6 4.2 66.6 4.2 C 66.6 4.1 66.6 4 66.4 3.9 C 66.3 3.8 66 3.7 65.7 3.6 C 65.4 3.5 65.2 3.5 65 3.4 C 64.8 3.3 64.6 3.3 64.5 3.1 C 64.3 3 64.2 2.9 64.1 2.7 C 64.1 2.6 64 2.4 64 2.1 C 64 2.1 64 2.1 64 2.1 C 64 1.7 64.2 1.3 64.5 1 C 64.8 0.8 65.2 0.6 65.7 0.6 C 66.4 0.6 67 0.8 67.6 1.3 C 67.6 1.3 67 2.1 67 2.1 C 66.5 1.7 66.1 1.6 65.7 1.6 C 65.5 1.6 65.4 1.6 65.3 1.7 C 65.2 1.8 65.1 1.9 65.1 2 C 65.1 2 65.1 2 65.1 2 C 65.1 2.2 65.2 2.3 65.3 2.4 C 65.4 2.5 65.7 2.6 66.2 2.7 C 66.7 2.8 67.1 3 67.3 3.2 C 67.6 3.4 67.7 3.7 67.7 4.1 C 67.7 4.1 67.7 4.2 67.7 4.2 C 67.7 4.6 67.5 5 67.2 5.3 C 66.9 5.5 66.5 5.7 65.9 5.7 Z M 68.6 1.4 L 68.6 0.5 L 69.7 0.5 L 69.7 1.4 L 68.6 1.4 Z M 68.6 5.6 L 68.6 1.8 L 69.6 1.8 L 69.6 5.6 L 68.6 5.6 Z M 70.6 5.6 L 70.6 1.8 L 71.7 1.8 C 71.7 1.8 71.71 2.38 71.7 2.4 C 72 2 72.4 1.8 72.8 1.8 C 73.2 1.8 73.5 1.9 73.8 2.1 C 74 2.4 74.1 2.7 74.1 3.2 C 74.09 3.17 74.1 5.6 74.1 5.6 L 73 5.6 C 73 5.6 73.02 3.51 73 3.5 C 73 3 72.8 2.7 72.4 2.7 C 72.2 2.7 72 2.8 71.9 2.9 C 71.8 3.1 71.7 3.3 71.7 3.5 C 71.71 3.51 71.7 5.6 71.7 5.6 L 70.6 5.6 Z M 78.3 6.2 C 78 6.6 77.4 6.7 76.7 6.7 C 76.1 6.7 75.5 6.6 75 6.3 C 75 6.3 75.4 5.5 75.4 5.5 C 75.8 5.8 76.2 5.9 76.7 5.9 C 77.4 5.9 77.7 5.5 77.7 4.9 C 77.7 4.9 77.7 4.7 77.7 4.7 C 77.6 4.9 77.4 5 77.2 5.1 C 77 5.2 76.8 5.3 76.5 5.3 C 76 5.3 75.7 5.1 75.3 4.8 C 75 4.5 74.8 4.1 74.8 3.5 C 74.8 3.5 74.8 3.5 74.8 3.5 C 74.8 3 75 2.6 75.3 2.3 C 75.7 1.9 76.1 1.8 76.5 1.8 C 77 1.8 77.4 2 77.7 2.3 C 77.72 2.34 77.7 1.8 77.7 1.8 L 78.8 1.8 C 78.8 1.8 78.78 4.75 78.8 4.8 C 78.8 5.4 78.6 5.9 78.3 6.2 C 78.3 6.2 78.3 6.2 78.3 6.2 Z M 75.9 3.5 C 75.9 3.8 76 4 76.2 4.2 C 76.3 4.3 76.6 4.4 76.8 4.4 C 77.1 4.4 77.3 4.3 77.5 4.2 C 77.6 4 77.7 3.8 77.7 3.5 C 77.7 3.5 77.7 3.5 77.7 3.5 C 77.7 3.3 77.6 3.1 77.5 2.9 C 77.3 2.7 77.1 2.7 76.8 2.7 C 76.6 2.7 76.3 2.7 76.2 2.9 C 76 3.1 75.9 3.3 75.9 3.5 C 75.91 3.53 75.9 3.5 75.9 3.5 C 75.9 3.5 75.91 3.54 75.9 3.5 Z M 79.8 5.6 L 79.8 0.5 L 80.8 0.5 L 80.8 5.6 L 79.8 5.6 Z M 85.2 5 C 84.8 5.5 84.3 5.7 83.6 5.7 C 83.1 5.7 82.6 5.5 82.2 5.1 C 81.9 4.8 81.7 4.3 81.7 3.7 C 81.7 3.7 81.7 3.7 81.7 3.7 C 81.7 3.2 81.8 2.7 82.2 2.3 C 82.5 2 83 1.8 83.5 1.8 C 84.1 1.8 84.6 2 84.9 2.4 C 85.2 2.8 85.3 3.2 85.3 3.8 C 85.3 3.9 85.3 4 85.3 4.1 C 85.3 4.1 82.7 4.1 82.7 4.1 C 82.8 4.3 82.9 4.5 83 4.6 C 83.2 4.8 83.4 4.8 83.6 4.8 C 84 4.8 84.3 4.7 84.6 4.4 C 84.55 4.44 85.2 5 85.2 5 C 85.2 5 85.16 4.98 85.2 5 Z M 82.7 3.4 C 82.7 3.4 84.3 3.4 84.3 3.4 C 84.3 3.2 84.2 3 84.1 2.8 C 83.9 2.7 83.7 2.6 83.5 2.6 C 83.3 2.6 83.1 2.7 83 2.8 C 82.8 3 82.8 3.2 82.7 3.4 Z M 87.5 5.7 C 86.9 5.7 86.3 5.5 85.8 5.1 C 85.8 5.1 86.3 4.4 86.3 4.4 C 86.7 4.7 87.1 4.9 87.5 4.9 C 87.8 4.9 87.9 4.8 87.9 4.6 C 87.9 4.6 87.9 4.6 87.9 4.6 C 87.9 4.5 87.9 4.5 87.9 4.5 C 87.9 4.4 87.9 4.4 87.8 4.4 C 87.8 4.4 87.8 4.4 87.8 4.3 C 87.7 4.3 87.7 4.3 87.6 4.3 C 87.6 4.3 87.5 4.2 87.5 4.2 C 87.5 4.2 87.4 4.2 87.3 4.2 C 87.3 4.2 87.2 4.1 87.2 4.1 C 87 4.1 86.9 4 86.8 4 C 86.6 3.9 86.5 3.9 86.4 3.8 C 86.3 3.7 86.2 3.6 86.1 3.5 C 86.1 3.3 86 3.2 86 3 C 86 3 86 3 86 3 C 86 2.6 86.2 2.3 86.4 2.1 C 86.7 1.9 87 1.8 87.4 1.8 C 87.9 1.8 88.4 1.9 88.8 2.2 C 88.8 2.2 88.4 3 88.4 3 C 88 2.7 87.7 2.6 87.4 2.6 C 87.3 2.6 87.2 2.6 87.1 2.7 C 87 2.7 87 2.8 87 2.9 C 87 2.9 87 2.9 87 2.9 C 87 3 87.1 3 87.2 3.1 C 87.3 3.2 87.5 3.3 87.8 3.3 C 87.9 3.4 88.1 3.4 88.2 3.5 C 88.3 3.5 88.4 3.6 88.5 3.7 C 88.6 3.8 88.7 3.9 88.8 4 C 88.9 4.1 88.9 4.3 88.9 4.4 C 88.9 4.4 88.9 4.5 88.9 4.5 C 88.9 4.9 88.8 5.2 88.5 5.4 C 88.2 5.6 87.9 5.7 87.5 5.7 Z " stroke="none" fill="#000"/>  </g></svg>