<?xml version="1.0" standalone="no"?><!DOCTYPE svg PUBLIC "-//W3C//DTD SVG 1.1//EN" "http://www.w3.org/Graphics/SVG/1.1/DTD/svg11.dtd"><svg xmlns="http://www.w3.org/2000/svg" version="1.1" width="93px" height="80.4px" viewBox="0 -3 93 80.4" style="top:-3px">  <desc>LED Fener – Firefly r n Kodu: ZD 32315 Renk: Black Al minyum D 19 cm, H 30 cm Tasar m: Mavro/Lef vre</desc>  <defs/>  <g id="Polygon356734">    <path d="M 2 59.6 L 2 55.2 L 0.3 55.2 L 0.3 54.7 L 4.2 54.7 L 4.2 55.2 L 2.5 55.2 L 2.5 59.6 L 2 59.6 Z M 6.6 59.1 C 6.3 59.5 5.9 59.7 5.3 59.7 C 4.9 59.7 4.6 59.6 4.4 59.4 C 4.1 59.2 4 58.9 4 58.5 C 4 58.5 4 58.5 4 58.5 C 4 58.2 4.1 57.9 4.4 57.7 C 4.7 57.5 5 57.4 5.5 57.4 C 5.9 57.4 6.2 57.4 6.6 57.5 C 6.6 57.5 6.6 57.4 6.6 57.4 C 6.6 57.1 6.5 56.8 6.3 56.7 C 6.1 56.5 5.9 56.4 5.5 56.4 C 5.2 56.4 4.8 56.5 4.4 56.7 C 4.4 56.7 4.3 56.2 4.3 56.2 C 4.7 56 5.1 55.9 5.6 55.9 C 6.1 55.9 6.5 56.1 6.8 56.3 C 7 56.6 7.1 56.9 7.1 57.4 C 7.13 57.39 7.1 59.6 7.1 59.6 L 6.6 59.6 L 6.6 59.1 C 6.6 59.1 6.62 59.05 6.6 59.1 Z M 5.4 59.2 C 5.8 59.2 6 59.2 6.3 59 C 6.5 58.8 6.6 58.6 6.6 58.3 C 6.6 58.3 6.6 57.9 6.6 57.9 C 6.3 57.8 5.9 57.8 5.6 57.8 C 5.2 57.8 5 57.8 4.8 58 C 4.6 58.1 4.5 58.3 4.5 58.5 C 4.5 58.5 4.5 58.5 4.5 58.5 C 4.5 58.7 4.6 58.9 4.8 59.1 C 4.9 59.2 5.2 59.2 5.4 59.2 Z M 9.5 59.7 C 8.9 59.7 8.4 59.5 8 59.1 C 8 59.1 8.3 58.8 8.3 58.8 C 8.7 59.1 9.1 59.2 9.5 59.2 C 9.7 59.2 9.9 59.2 10 59.1 C 10.2 59 10.3 58.8 10.3 58.6 C 10.3 58.6 10.3 58.6 10.3 58.6 C 10.3 58.5 10.2 58.3 10 58.2 C 9.9 58.2 9.6 58.1 9.4 58 C 9.2 58 9.1 57.9 9.1 57.9 C 9 57.9 8.9 57.8 8.8 57.8 C 8.7 57.8 8.6 57.7 8.5 57.7 C 8.5 57.6 8.4 57.6 8.3 57.5 C 8.3 57.4 8.2 57.4 8.2 57.3 C 8.2 57.2 8.2 57.1 8.2 57 C 8.2 57 8.2 57 8.2 57 C 8.2 56.6 8.3 56.4 8.5 56.2 C 8.7 56 9 55.9 9.4 55.9 C 9.9 55.9 10.3 56.1 10.7 56.3 C 10.7 56.3 10.4 56.7 10.4 56.7 C 10.1 56.5 9.7 56.4 9.4 56.4 C 9.2 56.4 9 56.4 8.9 56.5 C 8.7 56.6 8.7 56.7 8.7 56.9 C 8.7 56.9 8.7 56.9 8.7 56.9 C 8.7 57 8.7 57 8.7 57.1 C 8.8 57.1 8.8 57.2 8.9 57.2 C 8.9 57.3 9 57.3 9.1 57.4 C 9.2 57.4 9.3 57.4 9.3 57.4 C 9.4 57.5 9.5 57.5 9.6 57.5 C 9.7 57.6 9.9 57.6 9.9 57.6 C 10 57.7 10.1 57.7 10.3 57.8 C 10.4 57.8 10.5 57.9 10.5 58 C 10.6 58 10.6 58.1 10.7 58.2 C 10.7 58.3 10.8 58.4 10.8 58.6 C 10.8 58.6 10.8 58.6 10.8 58.6 C 10.8 58.9 10.6 59.2 10.4 59.4 C 10.2 59.6 9.9 59.7 9.5 59.7 Z M 14.2 59.1 C 13.8 59.5 13.4 59.7 12.8 59.7 C 12.5 59.7 12.2 59.6 11.9 59.4 C 11.6 59.2 11.5 58.9 11.5 58.5 C 11.5 58.5 11.5 58.5 11.5 58.5 C 11.5 58.2 11.6 57.9 11.9 57.7 C 12.2 57.5 12.6 57.4 13 57.4 C 13.4 57.4 13.8 57.4 14.2 57.5 C 14.2 57.5 14.2 57.4 14.2 57.4 C 14.2 57.1 14.1 56.8 13.9 56.7 C 13.7 56.5 13.4 56.4 13.1 56.4 C 12.7 56.4 12.3 56.5 12 56.7 C 12 56.7 11.8 56.2 11.8 56.2 C 12.2 56 12.7 55.9 13.1 55.9 C 13.6 55.9 14 56.1 14.3 56.3 C 14.5 56.6 14.7 56.9 14.7 57.4 C 14.67 57.39 14.7 59.6 14.7 59.6 L 14.2 59.6 L 14.2 59.1 C 14.2 59.1 14.15 59.05 14.2 59.1 Z M 12.9 59.2 C 13.3 59.2 13.6 59.2 13.8 59 C 14 58.8 14.2 58.6 14.2 58.3 C 14.2 58.3 14.2 57.9 14.2 57.9 C 13.8 57.8 13.4 57.8 13.1 57.8 C 12.8 57.8 12.5 57.8 12.3 58 C 12.1 58.1 12 58.3 12 58.5 C 12 58.5 12 58.5 12 58.5 C 12 58.7 12.1 58.9 12.3 59.1 C 12.5 59.2 12.7 59.2 12.9 59.2 Z M 15.8 59.6 L 15.8 56 L 16.4 56 C 16.4 56 16.36 56.93 16.4 56.9 C 16.5 56.6 16.7 56.4 17 56.2 C 17.2 56 17.5 55.9 17.8 55.9 C 17.84 55.92 17.8 56.5 17.8 56.5 C 17.8 56.5 17.79 56.5 17.8 56.5 C 17.4 56.5 17 56.6 16.8 56.9 C 16.5 57.2 16.4 57.6 16.4 58.2 C 16.36 58.16 16.4 59.6 16.4 59.6 L 15.8 59.6 Z M 18.7 59.6 L 18.7 56 L 19.2 56 L 19.2 59.6 L 18.7 59.6 Z M 20.5 59.6 L 20.5 56 L 21 56 C 21 56 21.03 56.59 21 56.6 C 21.2 56.4 21.3 56.2 21.5 56.1 C 21.7 56 21.9 55.9 22.2 55.9 C 22.7 55.9 23.1 56.1 23.4 56.6 C 23.7 56.1 24.1 55.9 24.6 55.9 C 25.1 55.9 25.4 56 25.6 56.3 C 25.9 56.6 26 56.9 26 57.4 C 25.98 57.36 26 59.6 26 59.6 L 25.4 59.6 C 25.4 59.6 25.44 57.49 25.4 57.5 C 25.4 57.1 25.4 56.9 25.2 56.7 C 25 56.5 24.8 56.4 24.5 56.4 C 24.2 56.4 24 56.5 23.8 56.7 C 23.6 56.9 23.5 57.2 23.5 57.5 C 23.51 57.51 23.5 59.6 23.5 59.6 L 23 59.6 C 23 59.6 22.97 57.47 23 57.5 C 23 57.1 22.9 56.9 22.7 56.7 C 22.6 56.5 22.3 56.4 22 56.4 C 21.8 56.4 21.5 56.5 21.3 56.7 C 21.1 56.9 21 57.2 21 57.5 C 21.03 57.53 21 59.6 21 59.6 L 20.5 59.6 Z M 27.1 56.7 L 27.1 56 L 27.7 56 L 27.7 56.7 L 27.1 56.7 Z M 27.1 59.6 L 27.1 58.9 L 27.7 58.9 L 27.7 59.6 L 27.1 59.6 Z M 31.1 59.6 L 31.1 54.7 L 31.7 54.7 L 33.4 57.4 L 35.2 54.7 L 35.8 54.7 L 35.8 59.6 L 35.2 59.6 L 35.2 55.6 L 33.5 58.3 L 33.4 58.3 L 31.6 55.6 L 31.6 59.6 L 31.1 59.6 Z M 39.5 59.1 C 39.2 59.5 38.7 59.7 38.2 59.7 C 37.8 59.7 37.5 59.6 37.2 59.4 C 36.9 59.2 36.8 58.9 36.8 58.5 C 36.8 58.5 36.8 58.5 36.8 58.5 C 36.8 58.2 37 57.9 37.2 57.7 C 37.5 57.5 37.9 57.4 38.4 57.4 C 38.7 57.4 39.1 57.4 39.5 57.5 C 39.5 57.5 39.5 57.4 39.5 57.4 C 39.5 57.1 39.4 56.8 39.2 56.7 C 39 56.5 38.7 56.4 38.4 56.4 C 38 56.4 37.7 56.5 37.3 56.7 C 37.3 56.7 37.1 56.2 37.1 56.2 C 37.6 56 38 55.9 38.5 55.9 C 39 55.9 39.4 56.1 39.6 56.3 C 39.9 56.6 40 56.9 40 57.4 C 39.99 57.39 40 59.6 40 59.6 L 39.5 59.6 L 39.5 59.1 C 39.5 59.1 39.47 59.05 39.5 59.1 Z M 38.3 59.2 C 38.6 59.2 38.9 59.2 39.1 59 C 39.4 58.8 39.5 58.6 39.5 58.3 C 39.5 58.3 39.5 57.9 39.5 57.9 C 39.1 57.8 38.8 57.8 38.4 57.8 C 38.1 57.8 37.8 57.8 37.6 58 C 37.5 58.1 37.4 58.3 37.4 58.5 C 37.4 58.5 37.4 58.5 37.4 58.5 C 37.4 58.7 37.4 58.9 37.6 59.1 C 37.8 59.2 38 59.2 38.3 59.2 Z M 42.2 59.6 L 40.6 56 L 41.2 56 L 42.5 59 L 43.7 56 L 44.3 56 L 42.7 59.6 L 42.2 59.6 Z M 45.1 59.6 L 45.1 56 L 45.6 56 C 45.6 56 45.65 56.93 45.6 56.9 C 45.8 56.6 46 56.4 46.2 56.2 C 46.5 56 46.8 55.9 47.1 55.9 C 47.12 55.92 47.1 56.5 47.1 56.5 C 47.1 56.5 47.08 56.5 47.1 56.5 C 46.7 56.5 46.3 56.6 46.1 56.9 C 45.8 57.2 45.6 57.6 45.6 58.2 C 45.65 58.16 45.6 59.6 45.6 59.6 L 45.1 59.6 Z M 49.4 59.7 C 48.9 59.7 48.5 59.5 48.1 59.1 C 47.7 58.8 47.6 58.3 47.6 57.8 C 47.6 57.8 47.6 57.8 47.6 57.8 C 47.6 57.3 47.7 56.8 48.1 56.5 C 48.5 56.1 48.9 55.9 49.5 55.9 C 50 55.9 50.4 56.1 50.8 56.5 C 51.2 56.8 51.3 57.3 51.3 57.8 C 51.3 57.8 51.3 57.8 51.3 57.8 C 51.3 58.3 51.2 58.8 50.8 59.1 C 50.4 59.5 50 59.7 49.4 59.7 Z M 49.5 59.2 C 49.8 59.2 50.2 59.1 50.4 58.8 C 50.7 58.5 50.8 58.2 50.8 57.8 C 50.8 57.8 50.8 57.8 50.8 57.8 C 50.8 57.4 50.7 57.1 50.4 56.8 C 50.1 56.5 49.8 56.4 49.4 56.4 C 49.1 56.4 48.7 56.5 48.5 56.8 C 48.2 57.1 48.1 57.4 48.1 57.8 C 48.1 57.8 48.1 57.8 48.1 57.8 C 48.1 58.2 48.2 58.5 48.5 58.8 C 48.8 59.1 49.1 59.2 49.5 59.2 Z M 51.6 60.5 L 54.8 54 L 55.3 54 L 52.1 60.5 L 51.6 60.5 Z M 56 59.6 L 56 54.7 L 56.5 54.7 L 56.5 59.1 L 59.3 59.1 L 59.3 59.6 L 56 59.6 Z M 63.2 59 C 62.8 59.5 62.3 59.7 61.7 59.7 C 61.2 59.7 60.8 59.5 60.4 59.2 C 60.1 58.8 59.9 58.4 59.9 57.8 C 59.9 57.8 59.9 57.8 59.9 57.8 C 59.9 57.3 60.1 56.8 60.4 56.4 C 60.7 56.1 61.1 55.9 61.6 55.9 C 62.2 55.9 62.6 56.1 62.9 56.4 C 63.2 56.8 63.3 57.3 63.3 57.8 C 63.3 57.9 63.3 57.9 63.3 58 C 63.3 58 60.5 58 60.5 58 C 60.5 58.4 60.6 58.7 60.9 58.9 C 61.1 59.1 61.4 59.2 61.7 59.2 C 62.2 59.2 62.5 59 62.9 58.7 C 62.87 58.7 63.2 59 63.2 59 C 63.2 59 63.2 59 63.2 59 Z M 60.5 57.6 C 60.5 57.6 62.8 57.6 62.8 57.6 C 62.8 57.2 62.6 56.9 62.4 56.7 C 62.2 56.5 62 56.4 61.6 56.4 C 61.3 56.4 61.1 56.5 60.8 56.7 C 60.6 56.9 60.5 57.2 60.5 57.6 Z M 64.5 59.6 L 64.5 56.5 L 64 56.5 L 64 56 L 64.5 56 C 64.5 56 64.48 55.67 64.5 55.7 C 64.5 55.3 64.6 55 64.8 54.7 C 65 54.6 65.2 54.5 65.6 54.5 C 65.8 54.5 66 54.5 66.2 54.6 C 66.2 54.6 66.2 55 66.2 55 C 65.9 55 65.8 54.9 65.6 54.9 C 65.2 54.9 65 55.2 65 55.7 C 65.01 55.7 65 56 65 56 L 66.2 56 L 66.2 56.5 L 65 56.5 L 65 59.6 L 64.5 59.6 Z M 69.8 59 C 69.4 59.5 69 59.7 68.4 59.7 C 67.9 59.7 67.4 59.5 67.1 59.2 C 66.7 58.8 66.5 58.4 66.5 57.8 C 66.5 57.8 66.5 57.8 66.5 57.8 C 66.5 57.3 66.7 56.8 67 56.4 C 67.4 56.1 67.8 55.9 68.3 55.9 C 68.8 55.9 69.2 56.1 69.5 56.4 C 69.8 56.8 70 57.3 70 57.8 C 70 57.9 70 57.9 70 58 C 70 58 67.1 58 67.1 58 C 67.1 58.4 67.3 58.7 67.5 58.9 C 67.8 59.1 68 59.2 68.4 59.2 C 68.8 59.2 69.2 59 69.5 58.7 C 69.51 58.7 69.8 59 69.8 59 C 69.8 59 69.85 59 69.8 59 Z M 67.1 57.6 C 67.1 57.6 69.4 57.6 69.4 57.6 C 69.4 57.2 69.3 56.9 69.1 56.7 C 68.9 56.5 68.6 56.4 68.3 56.4 C 68 56.4 67.7 56.5 67.5 56.7 C 67.3 56.9 67.1 57.2 67.1 57.6 Z M 68.1 55.4 L 67.3 54.7 L 67.8 54.4 L 68.5 55.4 L 68.1 55.4 Z M 72 59.6 L 70.4 56 L 71 56 L 72.2 59 L 73.4 56 L 74 56 L 72.4 59.6 L 72 59.6 Z M 74.9 59.6 L 74.9 56 L 75.4 56 C 75.4 56 75.39 56.93 75.4 56.9 C 75.5 56.6 75.7 56.4 76 56.2 C 76.2 56 76.5 55.9 76.9 55.9 C 76.87 55.92 76.9 56.5 76.9 56.5 C 76.9 56.5 76.82 56.5 76.8 56.5 C 76.4 56.5 76.1 56.6 75.8 56.9 C 75.5 57.2 75.4 57.6 75.4 58.2 C 75.39 58.16 75.4 59.6 75.4 59.6 L 74.9 59.6 Z M 80.6 59 C 80.2 59.5 79.7 59.7 79.1 59.7 C 78.6 59.7 78.2 59.5 77.8 59.2 C 77.5 58.8 77.3 58.4 77.3 57.8 C 77.3 57.8 77.3 57.8 77.3 57.8 C 77.3 57.3 77.5 56.8 77.8 56.4 C 78.1 56.1 78.5 55.9 79 55.9 C 79.6 55.9 80 56.1 80.3 56.4 C 80.6 56.8 80.7 57.3 80.7 57.8 C 80.7 57.9 80.7 57.9 80.7 58 C 80.7 58 77.9 58 77.9 58 C 77.9 58.4 78 58.7 78.3 58.9 C 78.5 59.1 78.8 59.2 79.1 59.2 C 79.6 59.2 79.9 59 80.3 58.7 C 80.27 58.7 80.6 59 80.6 59 C 80.6 59 80.6 59 80.6 59 Z M 77.9 57.6 C 77.9 57.6 80.2 57.6 80.2 57.6 C 80.2 57.2 80 56.9 79.8 56.7 C 79.6 56.5 79.4 56.4 79 56.4 C 78.7 56.4 78.5 56.5 78.2 56.7 C 78 56.9 77.9 57.2 77.9 57.6 Z " stroke="none" fill="#000"/>  </g>  <g id="Polygon356733">    <path d="M 0.7 50.6 L 0.7 45.7 C 0.7 45.7 2.39 45.7 2.4 45.7 C 3.2 45.7 3.8 45.9 4.3 46.4 C 4.8 46.9 5 47.4 5 48.1 C 5 48.1 5 48.1 5 48.1 C 5 48.8 4.8 49.4 4.3 49.9 C 3.8 50.4 3.2 50.6 2.4 50.6 C 2.39 50.6 0.7 50.6 0.7 50.6 Z M 2.4 46.2 C 2.39 46.21 1.2 46.2 1.2 46.2 L 1.2 50.1 C 1.2 50.1 2.39 50.09 2.4 50.1 C 3 50.1 3.5 49.9 3.9 49.5 C 4.2 49.2 4.4 48.7 4.4 48.2 C 4.4 48.2 4.4 48.1 4.4 48.1 C 4.4 47.6 4.2 47.1 3.9 46.8 C 3.5 46.4 3 46.2 2.4 46.2 Z M 8.8 50.6 L 8.8 46.2 L 7.9 46.5 L 7.8 46.1 L 9 45.7 L 9.4 45.7 L 9.4 50.6 L 8.8 50.6 Z M 11 49.7 C 11.3 50 11.7 50.2 12.2 50.2 C 12.6 50.2 13 50 13.2 49.6 C 13.5 49.2 13.6 48.7 13.6 48.1 C 13.6 48.1 13.6 48 13.6 48 C 13.3 48.6 12.8 48.8 12.2 48.8 C 11.7 48.8 11.3 48.7 11 48.4 C 10.7 48.1 10.5 47.7 10.5 47.3 C 10.5 47.3 10.5 47.3 10.5 47.3 C 10.5 46.8 10.7 46.4 11 46.1 C 11.3 45.8 11.8 45.6 12.3 45.6 C 12.8 45.6 13.2 45.8 13.6 46.1 C 14 46.5 14.2 47.2 14.2 48 C 14.2 48 14.2 48 14.2 48 C 14.2 48.8 14 49.4 13.6 49.9 C 13.2 50.4 12.7 50.7 12.1 50.7 C 11.6 50.7 11.1 50.5 10.6 50.1 C 10.63 50.08 11 49.7 11 49.7 C 11 49.7 10.95 49.65 11 49.7 Z M 12.3 48.3 C 12.7 48.3 12.9 48.2 13.2 48 C 13.4 47.8 13.5 47.5 13.5 47.2 C 13.5 47.2 13.5 47.2 13.5 47.2 C 13.5 46.9 13.4 46.6 13.2 46.4 C 12.9 46.2 12.6 46.1 12.3 46.1 C 11.9 46.1 11.6 46.2 11.4 46.4 C 11.2 46.7 11.1 46.9 11.1 47.3 C 11.1 47.3 11.1 47.3 11.1 47.3 C 11.1 47.6 11.2 47.8 11.4 48 C 11.6 48.2 11.9 48.3 12.3 48.3 Z M 20.4 50 C 20 50.5 19.5 50.7 18.9 50.7 C 18.4 50.7 18 50.5 17.6 50.1 C 17.3 49.8 17.1 49.3 17.1 48.8 C 17.1 48.8 17.1 48.8 17.1 48.8 C 17.1 48.3 17.3 47.8 17.6 47.5 C 18 47.1 18.4 46.9 18.9 46.9 C 19.5 46.9 20 47.1 20.4 47.5 C 20.4 47.5 20 47.9 20 47.9 C 19.7 47.6 19.3 47.4 18.9 47.4 C 18.6 47.4 18.3 47.5 18 47.8 C 17.8 48.1 17.6 48.4 17.6 48.8 C 17.6 48.8 17.6 48.8 17.6 48.8 C 17.6 49.2 17.8 49.5 18 49.8 C 18.3 50.1 18.6 50.2 19 50.2 C 19.4 50.2 19.7 50 20.1 49.7 C 20.08 49.66 20.4 50 20.4 50 C 20.4 50 20.42 49.98 20.4 50 Z M 21.3 50.6 L 21.3 47 L 21.8 47 C 21.8 47 21.85 47.59 21.8 47.6 C 22 47.4 22.2 47.2 22.3 47.1 C 22.5 47 22.7 46.9 23 46.9 C 23.6 46.9 23.9 47.1 24.2 47.6 C 24.5 47.1 24.9 46.9 25.5 46.9 C 25.9 46.9 26.2 47 26.4 47.3 C 26.7 47.6 26.8 47.9 26.8 48.4 C 26.8 48.36 26.8 50.6 26.8 50.6 L 26.3 50.6 C 26.3 50.6 26.26 48.49 26.3 48.5 C 26.3 48.1 26.2 47.9 26 47.7 C 25.8 47.5 25.6 47.4 25.3 47.4 C 25 47.4 24.8 47.5 24.6 47.7 C 24.4 47.9 24.3 48.2 24.3 48.5 C 24.32 48.51 24.3 50.6 24.3 50.6 L 23.8 50.6 C 23.8 50.6 23.79 48.47 23.8 48.5 C 23.8 48.1 23.7 47.9 23.5 47.7 C 23.4 47.5 23.1 47.4 22.9 47.4 C 22.6 47.4 22.3 47.5 22.1 47.7 C 21.9 47.9 21.8 48.2 21.8 48.5 C 21.85 48.53 21.8 50.6 21.8 50.6 L 21.3 50.6 Z M 27.7 51.5 C 27.7 51.5 27.7 51.2 27.7 51.2 C 28 51.1 28.2 50.9 28.1 50.6 C 28.13 50.6 27.9 50.6 27.9 50.6 L 27.9 49.9 L 28.5 49.9 C 28.5 49.9 28.52 50.49 28.5 50.5 C 28.5 50.8 28.5 51 28.3 51.1 C 28.2 51.3 28 51.4 27.7 51.5 Z M 31.8 50.6 L 31.8 45.7 L 32.4 45.7 L 32.4 47.9 L 35.2 47.9 L 35.2 45.7 L 35.8 45.7 L 35.8 50.6 L 35.2 50.6 L 35.2 48.4 L 32.4 48.4 L 32.4 50.6 L 31.8 50.6 Z M 40.8 50.7 C 40 50.7 39.4 50.4 38.9 49.8 C 38.9 49.8 39.3 49.5 39.3 49.5 C 39.7 49.9 40.2 50.2 40.8 50.2 C 41.1 50.2 41.3 50.1 41.5 49.9 C 41.7 49.7 41.8 49.5 41.8 49.2 C 41.8 49.2 41.8 49.2 41.8 49.2 C 41.8 48.9 41.7 48.7 41.5 48.5 C 41.2 48.4 40.9 48.3 40.5 48.3 C 40.46 48.27 40.1 48.3 40.1 48.3 L 40 47.9 L 41.6 46.2 L 39.2 46.2 L 39.2 45.7 L 42.3 45.7 L 42.3 46.1 C 42.3 46.1 40.77 47.81 40.8 47.8 C 41.2 47.9 41.6 48 41.9 48.2 C 42.2 48.4 42.4 48.8 42.4 49.2 C 42.4 49.2 42.4 49.2 42.4 49.2 C 42.4 49.6 42.2 50 41.9 50.3 C 41.6 50.5 41.2 50.7 40.8 50.7 Z M 47.4 48.1 C 47.4 48.9 47.2 49.5 46.9 49.9 C 46.5 50.4 46 50.7 45.4 50.7 C 44.8 50.7 44.3 50.4 43.9 50 C 43.5 49.5 43.3 48.9 43.3 48.2 C 43.3 48.2 43.3 48.1 43.3 48.1 C 43.3 47.4 43.5 46.8 43.9 46.4 C 44.3 45.9 44.8 45.6 45.4 45.6 C 46 45.6 46.5 45.9 46.9 46.3 C 47.2 46.8 47.4 47.4 47.4 48.1 C 47.44 48.14 47.4 48.1 47.4 48.1 C 47.4 48.1 47.44 48.15 47.4 48.1 Z M 43.9 48.1 C 43.9 48.7 44 49.2 44.3 49.6 C 44.6 50 44.9 50.2 45.4 50.2 C 45.8 50.2 46.2 50 46.5 49.6 C 46.7 49.2 46.9 48.7 46.9 48.2 C 46.9 48.2 46.9 48.1 46.9 48.1 C 46.9 47.6 46.7 47.1 46.4 46.7 C 46.2 46.3 45.8 46.1 45.4 46.1 C 44.9 46.1 44.6 46.3 44.3 46.7 C 44 47.1 43.9 47.6 43.9 48.1 C 43.88 48.14 43.9 48.1 43.9 48.1 C 43.9 48.1 43.88 48.15 43.9 48.1 Z M 53.7 50 C 53.3 50.5 52.8 50.7 52.2 50.7 C 51.7 50.7 51.2 50.5 50.9 50.1 C 50.5 49.8 50.4 49.3 50.4 48.8 C 50.4 48.8 50.4 48.8 50.4 48.8 C 50.4 48.3 50.5 47.8 50.9 47.5 C 51.2 47.1 51.7 46.9 52.2 46.9 C 52.8 46.9 53.2 47.1 53.7 47.5 C 53.7 47.5 53.3 47.9 53.3 47.9 C 53 47.6 52.6 47.4 52.2 47.4 C 51.8 47.4 51.5 47.5 51.3 47.8 C 51 48.1 50.9 48.4 50.9 48.8 C 50.9 48.8 50.9 48.8 50.9 48.8 C 50.9 49.2 51 49.5 51.3 49.8 C 51.5 50.1 51.9 50.2 52.2 50.2 C 52.6 50.2 53 50 53.3 49.7 C 53.34 49.66 53.7 50 53.7 50 C 53.7 50 53.68 49.98 53.7 50 Z M 54.6 50.6 L 54.6 47 L 55.1 47 C 55.1 47 55.11 47.59 55.1 47.6 C 55.3 47.4 55.4 47.2 55.6 47.1 C 55.8 47 56 46.9 56.3 46.9 C 56.8 46.9 57.2 47.1 57.4 47.6 C 57.8 47.1 58.2 46.9 58.7 46.9 C 59.1 46.9 59.5 47 59.7 47.3 C 59.9 47.6 60.1 47.9 60.1 48.4 C 60.06 48.36 60.1 50.6 60.1 50.6 L 59.5 50.6 C 59.5 50.6 59.52 48.49 59.5 48.5 C 59.5 48.1 59.4 47.9 59.3 47.7 C 59.1 47.5 58.9 47.4 58.6 47.4 C 58.3 47.4 58.1 47.5 57.9 47.7 C 57.7 47.9 57.6 48.2 57.6 48.5 C 57.58 48.51 57.6 50.6 57.6 50.6 L 57 50.6 C 57 50.6 57.05 48.47 57 48.5 C 57 48.1 57 47.9 56.8 47.7 C 56.6 47.5 56.4 47.4 56.1 47.4 C 55.8 47.4 55.6 47.5 55.4 47.7 C 55.2 47.9 55.1 48.2 55.1 48.5 C 55.11 48.53 55.1 50.6 55.1 50.6 L 54.6 50.6 Z " stroke="none" fill="#000"/>  </g>  <g id="Polygon356732">    <path d="M 0.3 41.6 L 2.5 36.7 L 3 36.7 L 5.3 41.6 L 4.7 41.6 L 4.1 40.3 L 1.4 40.3 L 0.8 41.6 L 0.3 41.6 Z M 1.6 39.8 L 3.9 39.8 L 2.8 37.3 L 1.6 39.8 Z M 6.2 41.6 L 6.2 36.5 L 6.7 36.5 L 6.7 41.6 L 6.2 41.6 Z M 9.8 37.4 L 9.8 36.8 L 10.4 36.8 L 10.4 37.4 L 9.8 37.4 Z M 8.6 37.4 L 8.6 36.8 L 9.2 36.8 L 9.2 37.4 L 8.6 37.4 Z M 10.5 41 C 10.2 41.4 9.8 41.7 9.3 41.7 C 8.9 41.7 8.5 41.5 8.3 41.3 C 8 41 7.9 40.7 7.9 40.2 C 7.92 40.23 7.9 38 7.9 38 L 8.5 38 C 8.5 38 8.46 40.09 8.5 40.1 C 8.5 40.4 8.5 40.7 8.7 40.9 C 8.9 41.1 9.1 41.2 9.5 41.2 C 9.8 41.2 10 41.1 10.2 40.9 C 10.4 40.7 10.5 40.4 10.5 40.1 C 10.54 40.05 10.5 38 10.5 38 L 11.1 38 L 11.1 41.6 L 10.5 41.6 L 10.5 41 C 10.5 41 10.54 40.97 10.5 41 Z M 12.3 41.6 L 12.3 38 L 12.8 38 C 12.8 38 12.82 38.59 12.8 38.6 C 13 38.4 13.1 38.2 13.3 38.1 C 13.5 38 13.7 37.9 14 37.9 C 14.5 37.9 14.9 38.1 15.2 38.6 C 15.5 38.1 15.9 37.9 16.4 37.9 C 16.8 37.9 17.2 38 17.4 38.3 C 17.7 38.6 17.8 38.9 17.8 39.4 C 17.77 39.36 17.8 41.6 17.8 41.6 L 17.2 41.6 C 17.2 41.6 17.23 39.49 17.2 39.5 C 17.2 39.1 17.2 38.9 17 38.7 C 16.8 38.5 16.6 38.4 16.3 38.4 C 16 38.4 15.8 38.5 15.6 38.7 C 15.4 38.9 15.3 39.2 15.3 39.5 C 15.29 39.51 15.3 41.6 15.3 41.6 L 14.8 41.6 C 14.8 41.6 14.76 39.47 14.8 39.5 C 14.8 39.1 14.7 38.9 14.5 38.7 C 14.3 38.5 14.1 38.4 13.8 38.4 C 13.5 38.4 13.3 38.5 13.1 38.7 C 12.9 38.9 12.8 39.2 12.8 39.5 C 12.82 39.53 12.8 41.6 12.8 41.6 L 12.3 41.6 Z M 18.9 37.2 L 18.9 36.6 L 19.6 36.6 L 19.6 37.2 L 18.9 37.2 Z M 19 41.6 L 19 38 L 19.5 38 L 19.5 41.6 L 19 41.6 Z M 20.8 41.6 L 20.8 38 L 21.3 38 C 21.3 38 21.3 38.61 21.3 38.6 C 21.6 38.1 22 37.9 22.5 37.9 C 23 37.9 23.3 38 23.6 38.3 C 23.8 38.6 23.9 38.9 23.9 39.4 C 23.93 39.35 23.9 41.6 23.9 41.6 L 23.4 41.6 C 23.4 41.6 23.39 39.49 23.4 39.5 C 23.4 39.1 23.3 38.9 23.1 38.7 C 22.9 38.5 22.7 38.4 22.4 38.4 C 22.1 38.4 21.8 38.5 21.6 38.7 C 21.4 38.9 21.3 39.2 21.3 39.5 C 21.3 39.53 21.3 41.6 21.3 41.6 L 20.8 41.6 Z M 26.5 41 L 27.7 38 L 28.3 38 C 28.3 38 26.73 41.72 26.7 41.7 C 26.6 42.1 26.4 42.4 26.2 42.5 C 26 42.7 25.8 42.7 25.5 42.7 C 25.3 42.7 25 42.7 24.8 42.6 C 24.8 42.6 24.9 42.1 24.9 42.1 C 25.1 42.2 25.3 42.3 25.5 42.3 C 25.7 42.3 25.8 42.2 25.9 42.1 C 26 42 26.1 41.8 26.2 41.6 C 26.25 41.59 24.6 38 24.6 38 L 25.2 38 L 26.5 41 Z M 31.7 41 C 31.4 41.4 31 41.7 30.4 41.7 C 30 41.7 29.7 41.5 29.4 41.3 C 29.2 41 29 40.7 29 40.2 C 29.05 40.23 29 38 29 38 L 29.6 38 C 29.6 38 29.59 40.09 29.6 40.1 C 29.6 40.4 29.7 40.7 29.9 40.9 C 30 41.1 30.3 41.2 30.6 41.2 C 30.9 41.2 31.2 41.1 31.4 40.9 C 31.6 40.7 31.7 40.4 31.7 40.1 C 31.67 40.05 31.7 38 31.7 38 L 32.2 38 L 32.2 41.6 L 31.7 41.6 L 31.7 41 C 31.7 41 31.67 40.97 31.7 41 Z M 33.4 41.6 L 33.4 38 L 34 38 C 34 38 33.96 38.59 34 38.6 C 34.1 38.4 34.3 38.2 34.4 38.1 C 34.6 38 34.8 37.9 35.1 37.9 C 35.7 37.9 36.1 38.1 36.3 38.6 C 36.6 38.1 37 37.9 37.6 37.9 C 38 37.9 38.3 38 38.5 38.3 C 38.8 38.6 38.9 38.9 38.9 39.4 C 38.91 39.36 38.9 41.6 38.9 41.6 L 38.4 41.6 C 38.4 41.6 38.37 39.49 38.4 39.5 C 38.4 39.1 38.3 38.9 38.1 38.7 C 38 38.5 37.7 38.4 37.4 38.4 C 37.1 38.4 36.9 38.5 36.7 38.7 C 36.5 38.9 36.4 39.2 36.4 39.5 C 36.43 39.51 36.4 41.6 36.4 41.6 L 35.9 41.6 C 35.9 41.6 35.9 39.47 35.9 39.5 C 35.9 39.1 35.8 38.9 35.6 38.7 C 35.5 38.5 35.3 38.4 35 38.4 C 34.7 38.4 34.4 38.5 34.2 38.7 C 34.1 38.9 34 39.2 34 39.5 C 33.96 39.53 34 41.6 34 41.6 L 33.4 41.6 Z " stroke="none" fill="#000"/>  </g>  <g id="Polygon356731">    <path d="M 0.7 23.6 L 0.7 18.7 C 0.7 18.7 2.8 18.7 2.8 18.7 C 3.4 18.7 3.9 18.9 4.2 19.2 C 4.4 19.4 4.6 19.8 4.6 20.2 C 4.6 20.2 4.6 20.2 4.6 20.2 C 4.6 20.6 4.4 20.9 4.2 21.1 C 4 21.4 3.6 21.5 3.2 21.6 C 3.24 21.6 4.7 23.6 4.7 23.6 L 4.1 23.6 L 2.6 21.7 L 1.2 21.7 L 1.2 23.6 L 0.7 23.6 Z M 1.2 21.2 C 1.2 21.2 2.75 21.2 2.8 21.2 C 3.1 21.2 3.4 21.1 3.7 20.9 C 3.9 20.7 4 20.5 4 20.2 C 4 20.2 4 20.2 4 20.2 C 4 19.9 3.9 19.6 3.7 19.5 C 3.5 19.3 3.2 19.2 2.8 19.2 C 2.76 19.21 1.2 19.2 1.2 19.2 L 1.2 21.2 Z M 8.7 23 C 8.3 23.5 7.8 23.7 7.2 23.7 C 6.7 23.7 6.2 23.5 5.9 23.2 C 5.5 22.8 5.4 22.4 5.4 21.8 C 5.4 21.8 5.4 21.8 5.4 21.8 C 5.4 21.3 5.5 20.8 5.9 20.4 C 6.2 20.1 6.6 19.9 7.1 19.9 C 7.6 19.9 8 20.1 8.3 20.4 C 8.6 20.8 8.8 21.3 8.8 21.8 C 8.8 21.9 8.8 21.9 8.8 22 C 8.8 22 5.9 22 5.9 22 C 6 22.4 6.1 22.7 6.3 22.9 C 6.6 23.1 6.9 23.2 7.2 23.2 C 7.6 23.2 8 23 8.3 22.7 C 8.33 22.7 8.7 23 8.7 23 C 8.7 23 8.67 23 8.7 23 Z M 5.9 21.6 C 5.9 21.6 8.2 21.6 8.2 21.6 C 8.2 21.2 8.1 20.9 7.9 20.7 C 7.7 20.5 7.4 20.4 7.1 20.4 C 6.8 20.4 6.5 20.5 6.3 20.7 C 6.1 20.9 6 21.2 5.9 21.6 Z M 9.7 23.6 L 9.7 20 L 10.3 20 C 10.3 20 10.28 20.61 10.3 20.6 C 10.6 20.1 11 19.9 11.5 19.9 C 11.9 19.9 12.3 20 12.5 20.3 C 12.8 20.6 12.9 20.9 12.9 21.4 C 12.9 21.35 12.9 23.6 12.9 23.6 L 12.4 23.6 C 12.4 23.6 12.36 21.49 12.4 21.5 C 12.4 21.1 12.3 20.9 12.1 20.7 C 11.9 20.5 11.7 20.4 11.4 20.4 C 11 20.4 10.8 20.5 10.6 20.7 C 10.4 20.9 10.3 21.2 10.3 21.5 C 10.28 21.53 10.3 23.6 10.3 23.6 L 9.7 23.6 Z M 14 23.6 L 14 18.5 L 14.6 18.5 L 14.6 22 L 16.5 20 L 17.2 20 L 15.7 21.5 L 17.3 23.6 L 16.6 23.6 L 15.3 21.9 L 14.6 22.7 L 14.6 23.6 L 14 23.6 Z M 18 20.7 L 18 20 L 18.6 20 L 18.6 20.7 L 18 20.7 Z M 18 23.6 L 18 22.9 L 18.6 22.9 L 18.6 23.6 L 18 23.6 Z M 22 23.6 L 22 18.7 C 22 18.7 24.09 18.7 24.1 18.7 C 24.6 18.7 25.1 18.8 25.4 19.1 C 25.6 19.3 25.7 19.6 25.7 19.9 C 25.7 19.9 25.7 19.9 25.7 19.9 C 25.7 20.5 25.4 20.8 24.9 21.1 C 25.6 21.3 26 21.7 26 22.2 C 26 22.2 26 22.3 26 22.3 C 26 22.7 25.8 23 25.5 23.2 C 25.2 23.5 24.7 23.6 24.2 23.6 C 24.18 23.6 22 23.6 22 23.6 Z M 25.1 20 C 25.1 20 25.1 20 25.1 20 C 25.1 19.7 25 19.6 24.8 19.4 C 24.7 19.3 24.4 19.2 24 19.2 C 24.04 19.2 22.5 19.2 22.5 19.2 L 22.5 20.9 C 22.5 20.9 24 20.88 24 20.9 C 24.3 20.9 24.6 20.8 24.8 20.7 C 25 20.5 25.1 20.3 25.1 20 Z M 25.4 22.2 C 25.4 22.2 25.4 22.2 25.4 22.2 C 25.4 21.9 25.3 21.7 25.1 21.6 C 24.8 21.4 24.5 21.4 24.1 21.4 C 24.09 21.37 22.5 21.4 22.5 21.4 L 22.5 23.1 C 22.5 23.1 24.19 23.1 24.2 23.1 C 24.6 23.1 24.9 23 25.1 22.9 C 25.3 22.7 25.4 22.5 25.4 22.2 Z M 27 23.6 L 27 18.5 L 27.6 18.5 L 27.6 23.6 L 27 23.6 Z M 31.2 23.1 C 30.9 23.5 30.4 23.7 29.9 23.7 C 29.5 23.7 29.2 23.6 28.9 23.4 C 28.7 23.2 28.5 22.9 28.5 22.5 C 28.5 22.5 28.5 22.5 28.5 22.5 C 28.5 22.2 28.7 21.9 29 21.7 C 29.2 21.5 29.6 21.4 30.1 21.4 C 30.4 21.4 30.8 21.4 31.2 21.5 C 31.2 21.5 31.2 21.4 31.2 21.4 C 31.2 21.1 31.1 20.8 30.9 20.7 C 30.7 20.5 30.5 20.4 30.1 20.4 C 29.7 20.4 29.4 20.5 29 20.7 C 29 20.7 28.9 20.2 28.9 20.2 C 29.3 20 29.7 19.9 30.2 19.9 C 30.7 19.9 31.1 20.1 31.3 20.3 C 31.6 20.6 31.7 20.9 31.7 21.4 C 31.71 21.39 31.7 23.6 31.7 23.6 L 31.2 23.6 L 31.2 23.1 C 31.2 23.1 31.19 23.05 31.2 23.1 Z M 30 23.2 C 30.3 23.2 30.6 23.2 30.8 23 C 31.1 22.8 31.2 22.6 31.2 22.3 C 31.2 22.3 31.2 21.9 31.2 21.9 C 30.8 21.8 30.5 21.8 30.1 21.8 C 29.8 21.8 29.5 21.8 29.4 22 C 29.2 22.1 29.1 22.3 29.1 22.5 C 29.1 22.5 29.1 22.5 29.1 22.5 C 29.1 22.7 29.2 22.9 29.3 23.1 C 29.5 23.2 29.7 23.2 30 23.2 Z M 36 23 C 35.6 23.5 35.1 23.7 34.5 23.7 C 34 23.7 33.5 23.5 33.2 23.1 C 32.8 22.8 32.6 22.3 32.6 21.8 C 32.6 21.8 32.6 21.8 32.6 21.8 C 32.6 21.3 32.8 20.8 33.2 20.5 C 33.5 20.1 34 19.9 34.5 19.9 C 35 19.9 35.5 20.1 35.9 20.5 C 35.9 20.5 35.6 20.9 35.6 20.9 C 35.2 20.6 34.9 20.4 34.5 20.4 C 34.1 20.4 33.8 20.5 33.6 20.8 C 33.3 21.1 33.2 21.4 33.2 21.8 C 33.2 21.8 33.2 21.8 33.2 21.8 C 33.2 22.2 33.3 22.5 33.6 22.8 C 33.8 23.1 34.1 23.2 34.5 23.2 C 34.9 23.2 35.3 23 35.6 22.7 C 35.62 22.66 36 23 36 23 C 36 23 35.97 22.98 36 23 Z M 36.9 23.6 L 36.9 18.5 L 37.4 18.5 L 37.4 22 L 39.3 20 L 40 20 L 38.5 21.5 L 40.1 23.6 L 39.4 23.6 L 38.1 21.9 L 37.4 22.7 L 37.4 23.6 L 36.9 23.6 Z " stroke="none" fill="#000"/>  </g>  <g id="Polygon356730">    <path d="M 3 9.3 L 3 8.6 L 3.6 8.6 L 3.6 9.3 L 3 9.3 Z M 1.7 9.3 L 1.7 8.6 L 2.3 8.6 L 2.3 9.3 L 1.7 9.3 Z M 2.7 14.7 C 2 14.7 1.5 14.5 1.2 14.1 C 0.8 13.7 0.6 13.2 0.6 12.5 C 0.62 12.55 0.6 9.7 0.6 9.7 L 1.2 9.7 C 1.2 9.7 1.17 12.51 1.2 12.5 C 1.2 13 1.3 13.4 1.6 13.7 C 1.8 14 2.2 14.2 2.7 14.2 C 3.1 14.2 3.5 14 3.8 13.8 C 4 13.5 4.1 13.1 4.1 12.5 C 4.14 12.55 4.1 9.7 4.1 9.7 L 4.7 9.7 C 4.7 9.7 4.7 12.51 4.7 12.5 C 4.7 13.2 4.5 13.7 4.1 14.1 C 3.8 14.5 3.3 14.7 2.7 14.7 Z M 5.9 14.6 L 5.9 11 L 6.5 11 C 6.5 11 6.45 11.93 6.5 11.9 C 6.6 11.6 6.8 11.4 7 11.2 C 7.3 11 7.6 10.9 7.9 10.9 C 7.93 10.92 7.9 11.5 7.9 11.5 C 7.9 11.5 7.89 11.5 7.9 11.5 C 7.5 11.5 7.1 11.6 6.9 11.9 C 6.6 12.2 6.5 12.6 6.5 13.2 C 6.45 13.16 6.5 14.6 6.5 14.6 L 5.9 14.6 Z M 10.6 10.4 L 10.6 9.8 L 11.2 9.8 L 11.2 10.4 L 10.6 10.4 Z M 9.3 10.4 L 9.3 9.8 L 10 9.8 L 10 10.4 L 9.3 10.4 Z M 11.3 14 C 11 14.4 10.6 14.7 10.1 14.7 C 9.7 14.7 9.3 14.5 9.1 14.3 C 8.8 14 8.7 13.7 8.7 13.2 C 8.69 13.23 8.7 11 8.7 11 L 9.2 11 C 9.2 11 9.23 13.09 9.2 13.1 C 9.2 13.4 9.3 13.7 9.5 13.9 C 9.7 14.1 9.9 14.2 10.2 14.2 C 10.5 14.2 10.8 14.1 11 13.9 C 11.2 13.7 11.3 13.4 11.3 13.1 C 11.32 13.05 11.3 11 11.3 11 L 11.9 11 L 11.9 14.6 L 11.3 14.6 L 11.3 14 C 11.3 14 11.32 13.97 11.3 14 Z M 13.1 14.6 L 13.1 11 L 13.6 11 C 13.6 11 13.6 11.61 13.6 11.6 C 13.9 11.1 14.3 10.9 14.8 10.9 C 15.3 10.9 15.6 11 15.9 11.3 C 16.1 11.6 16.2 11.9 16.2 12.4 C 16.23 12.35 16.2 14.6 16.2 14.6 L 15.7 14.6 C 15.7 14.6 15.69 12.49 15.7 12.5 C 15.7 12.1 15.6 11.9 15.4 11.7 C 15.2 11.5 15 11.4 14.7 11.4 C 14.4 11.4 14.1 11.5 13.9 11.7 C 13.7 11.9 13.6 12.2 13.6 12.5 C 13.6 12.53 13.6 14.6 13.6 14.6 L 13.1 14.6 Z M 19.6 14.6 L 19.6 9.7 L 20.1 9.7 L 20.1 12.6 L 22.9 9.7 L 23.7 9.7 L 21.5 11.8 L 23.7 14.6 L 23 14.6 L 21.2 12.2 L 20.1 13.3 L 20.1 14.6 L 19.6 14.6 Z M 25.9 14.7 C 25.4 14.7 25 14.5 24.6 14.1 C 24.3 13.8 24.1 13.3 24.1 12.8 C 24.1 12.8 24.1 12.8 24.1 12.8 C 24.1 12.3 24.3 11.8 24.6 11.5 C 25 11.1 25.4 10.9 26 10.9 C 26.5 10.9 26.9 11.1 27.3 11.5 C 27.7 11.8 27.8 12.3 27.8 12.8 C 27.8 12.8 27.8 12.8 27.8 12.8 C 27.8 13.3 27.7 13.8 27.3 14.1 C 26.9 14.5 26.5 14.7 25.9 14.7 Z M 26 14.2 C 26.3 14.2 26.7 14.1 26.9 13.8 C 27.2 13.5 27.3 13.2 27.3 12.8 C 27.3 12.8 27.3 12.8 27.3 12.8 C 27.3 12.4 27.2 12.1 26.9 11.8 C 26.6 11.5 26.3 11.4 25.9 11.4 C 25.6 11.4 25.2 11.5 25 11.8 C 24.8 12.1 24.6 12.4 24.6 12.8 C 24.6 12.8 24.6 12.8 24.6 12.8 C 24.6 13.2 24.8 13.5 25 13.8 C 25.3 14.1 25.6 14.2 26 14.2 Z M 31.7 13.9 C 31.4 14.4 30.9 14.7 30.3 14.7 C 29.9 14.7 29.5 14.5 29.1 14.2 C 28.8 13.8 28.6 13.4 28.6 12.8 C 28.6 12.8 28.6 12.8 28.6 12.8 C 28.6 12.2 28.8 11.8 29.1 11.4 C 29.5 11.1 29.9 10.9 30.3 10.9 C 30.9 10.9 31.4 11.2 31.7 11.7 C 31.72 11.67 31.7 9.5 31.7 9.5 L 32.3 9.5 L 32.3 14.6 L 31.7 14.6 L 31.7 13.9 C 31.7 13.9 31.72 13.87 31.7 13.9 Z M 30.4 14.2 C 30.8 14.2 31.1 14.1 31.4 13.8 C 31.6 13.5 31.7 13.2 31.7 12.8 C 31.7 12.8 31.7 12.8 31.7 12.8 C 31.7 12.4 31.6 12 31.4 11.8 C 31.1 11.5 30.8 11.4 30.4 11.4 C 30.1 11.4 29.8 11.5 29.5 11.8 C 29.3 12 29.2 12.4 29.2 12.8 C 29.2 12.8 29.2 12.8 29.2 12.8 C 29.2 13.2 29.3 13.6 29.5 13.8 C 29.8 14.1 30.1 14.2 30.4 14.2 Z M 36 14 C 35.7 14.4 35.3 14.7 34.8 14.7 C 34.4 14.7 34 14.5 33.8 14.3 C 33.5 14 33.4 13.7 33.4 13.2 C 33.41 13.23 33.4 11 33.4 11 L 33.9 11 C 33.9 11 33.95 13.09 33.9 13.1 C 33.9 13.4 34 13.7 34.2 13.9 C 34.4 14.1 34.6 14.2 35 14.2 C 35.3 14.2 35.5 14.1 35.7 13.9 C 35.9 13.7 36 13.4 36 13.1 C 36.04 13.05 36 11 36 11 L 36.6 11 L 36.6 14.6 L 36 14.6 L 36 14 C 36 14 36.04 13.97 36 14 Z M 37.7 11.7 L 37.7 11 L 38.4 11 L 38.4 11.7 L 37.7 11.7 Z M 37.7 14.6 L 37.7 13.9 L 38.4 13.9 L 38.4 14.6 L 37.7 14.6 Z M 41.5 14.6 L 41.5 13.8 L 44.2 10.6 L 41.6 10.6 L 41.6 9.7 L 45.6 9.7 L 45.6 10.5 L 42.9 13.7 L 45.6 13.7 L 45.6 14.6 L 41.5 14.6 Z M 46.6 14.6 L 46.6 9.7 C 46.6 9.7 48.51 9.7 48.5 9.7 C 49.3 9.7 49.9 9.9 50.4 10.4 C 50.9 10.9 51.1 11.4 51.1 12.1 C 51.1 12.1 51.1 12.1 51.1 12.1 C 51.1 12.8 50.9 13.4 50.4 13.9 C 49.9 14.4 49.3 14.6 48.5 14.6 C 48.51 14.6 46.6 14.6 46.6 14.6 Z M 48.5 10.7 C 48.51 10.67 47.7 10.7 47.7 10.7 L 47.7 13.6 C 47.7 13.6 48.51 13.63 48.5 13.6 C 48.9 13.6 49.3 13.5 49.6 13.2 C 49.8 13 50 12.6 50 12.2 C 50 12.2 50 12.1 50 12.1 C 50 11.7 49.8 11.4 49.6 11.1 C 49.3 10.8 48.9 10.7 48.5 10.7 Z M 55.8 14.7 C 55 14.7 54.3 14.4 53.9 13.8 C 53.9 13.8 54.6 13.1 54.6 13.1 C 54.9 13.5 55.3 13.7 55.8 13.7 C 56 13.7 56.2 13.7 56.3 13.6 C 56.4 13.4 56.5 13.3 56.5 13.1 C 56.5 13.1 56.5 13.1 56.5 13.1 C 56.5 12.9 56.4 12.8 56.2 12.6 C 56 12.5 55.8 12.5 55.5 12.5 C 55.51 12.49 55.1 12.5 55.1 12.5 L 54.9 11.8 L 56.1 10.6 L 54.1 10.6 L 54.1 9.7 L 57.4 9.7 L 57.4 10.5 C 57.4 10.5 56.21 11.69 56.2 11.7 C 57.1 11.8 57.5 12.3 57.5 13.1 C 57.5 13.1 57.5 13.1 57.5 13.1 C 57.5 13.6 57.4 13.9 57 14.2 C 56.7 14.5 56.3 14.7 55.8 14.7 Z M 58.3 14.6 L 58.3 13.7 C 58.3 13.7 59.91 12.41 59.9 12.4 C 60.2 12.1 60.4 11.9 60.6 11.8 C 60.7 11.6 60.8 11.4 60.8 11.2 C 60.8 11 60.7 10.9 60.6 10.8 C 60.5 10.7 60.3 10.6 60.1 10.6 C 59.9 10.6 59.7 10.6 59.6 10.7 C 59.5 10.8 59.3 11 59.1 11.3 C 59.1 11.3 58.3 10.6 58.3 10.6 C 58.6 10.3 58.9 10 59.1 9.9 C 59.4 9.7 59.7 9.6 60.2 9.6 C 60.7 9.6 61.1 9.8 61.4 10 C 61.7 10.3 61.9 10.7 61.9 11.1 C 61.9 11.1 61.9 11.2 61.9 11.2 C 61.9 11.5 61.8 11.9 61.6 12.1 C 61.4 12.4 61 12.7 60.6 13.1 C 60.56 13.05 59.8 13.7 59.8 13.7 L 61.9 13.7 L 61.9 14.6 L 58.3 14.6 Z M 64.5 14.7 C 63.7 14.7 63 14.4 62.6 13.8 C 62.6 13.8 63.3 13.1 63.3 13.1 C 63.6 13.5 64 13.7 64.5 13.7 C 64.7 13.7 64.9 13.7 65 13.6 C 65.1 13.4 65.2 13.3 65.2 13.1 C 65.2 13.1 65.2 13.1 65.2 13.1 C 65.2 12.9 65.1 12.8 64.9 12.6 C 64.8 12.5 64.5 12.5 64.2 12.5 C 64.22 12.49 63.8 12.5 63.8 12.5 L 63.6 11.8 L 64.8 10.6 L 62.8 10.6 L 62.8 9.7 L 66.2 9.7 L 66.2 10.5 C 66.2 10.5 64.92 11.69 64.9 11.7 C 65.8 11.8 66.2 12.3 66.2 13.1 C 66.2 13.1 66.2 13.1 66.2 13.1 C 66.2 13.6 66.1 13.9 65.8 14.2 C 65.4 14.5 65 14.7 64.5 14.7 Z M 67.9 14.6 L 67.9 10.8 L 67 11 L 66.8 10.1 L 68.2 9.7 L 68.9 9.7 L 68.9 14.6 L 67.9 14.6 Z M 71.7 14.7 C 71 14.7 70.4 14.4 69.9 13.9 C 69.9 13.9 70.5 13.2 70.5 13.2 C 70.9 13.5 71.3 13.7 71.7 13.7 C 72 13.7 72.2 13.6 72.3 13.5 C 72.5 13.4 72.5 13.2 72.5 13 C 72.5 13 72.5 13 72.5 13 C 72.5 12.8 72.5 12.6 72.3 12.5 C 72.1 12.4 71.9 12.3 71.7 12.3 C 71.4 12.3 71.1 12.4 70.8 12.5 C 70.85 12.53 70.2 12.1 70.2 12.1 L 70.4 9.7 L 73.4 9.7 L 73.4 10.6 L 71.3 10.6 C 71.3 10.6 71.23 11.49 71.2 11.5 C 71.5 11.4 71.7 11.4 71.9 11.4 C 72.4 11.4 72.8 11.5 73.1 11.8 C 73.4 12.1 73.6 12.5 73.6 13 C 73.6 13 73.6 13 73.6 13 C 73.6 13.5 73.4 13.9 73.1 14.2 C 72.7 14.5 72.3 14.7 71.7 14.7 Z " stroke="none" fill="#000"/>  </g>  <g id="Polygon356729">    <path d="M 0.6 5.6 L 0.6 0.7 L 1.7 0.7 L 1.7 4.6 L 4.1 4.6 L 4.1 5.6 L 0.6 5.6 Z M 4.9 5.6 L 4.9 0.7 L 8.6 0.7 L 8.6 1.7 L 6 1.7 L 6 2.7 L 8.3 2.7 L 8.3 3.6 L 6 3.6 L 6 4.6 L 8.7 4.6 L 8.7 5.6 L 4.9 5.6 Z M 9.6 5.6 L 9.6 0.7 C 9.6 0.7 11.52 0.7 11.5 0.7 C 12.3 0.7 12.9 0.9 13.4 1.4 C 13.9 1.9 14.1 2.4 14.1 3.1 C 14.1 3.1 14.1 3.1 14.1 3.1 C 14.1 3.8 13.9 4.4 13.4 4.9 C 12.9 5.4 12.3 5.6 11.5 5.6 C 11.52 5.6 9.6 5.6 9.6 5.6 Z M 11.5 1.7 C 11.52 1.67 10.7 1.7 10.7 1.7 L 10.7 4.6 C 10.7 4.6 11.52 4.63 11.5 4.6 C 12 4.6 12.3 4.5 12.6 4.2 C 12.9 4 13 3.6 13 3.2 C 13 3.2 13 3.1 13 3.1 C 13 2.7 12.9 2.4 12.6 2.1 C 12.3 1.8 12 1.7 11.5 1.7 Z M 17.2 5.6 L 17.2 0.7 L 20.9 0.7 L 20.9 1.7 L 18.3 1.7 L 18.3 2.7 L 20.6 2.7 L 20.6 3.7 L 18.3 3.7 L 18.3 5.6 L 17.2 5.6 Z M 24.9 5 C 24.5 5.5 24 5.7 23.3 5.7 C 22.8 5.7 22.3 5.5 21.9 5.1 C 21.6 4.8 21.4 4.3 21.4 3.7 C 21.4 3.7 21.4 3.7 21.4 3.7 C 21.4 3.2 21.6 2.7 21.9 2.3 C 22.3 2 22.7 1.8 23.2 1.8 C 23.8 1.8 24.3 2 24.6 2.4 C 24.9 2.8 25.1 3.2 25.1 3.8 C 25.1 3.9 25.1 4 25 4.1 C 25 4.1 22.4 4.1 22.4 4.1 C 22.5 4.3 22.6 4.5 22.7 4.6 C 22.9 4.8 23.1 4.8 23.4 4.8 C 23.7 4.8 24 4.7 24.3 4.4 C 24.26 4.44 24.9 5 24.9 5 C 24.9 5 24.87 4.98 24.9 5 Z M 22.4 3.4 C 22.4 3.4 24 3.4 24 3.4 C 24 3.2 23.9 3 23.8 2.8 C 23.6 2.7 23.5 2.6 23.2 2.6 C 23 2.6 22.8 2.7 22.7 2.8 C 22.6 3 22.5 3.2 22.4 3.4 Z M 25.9 5.6 L 25.9 1.8 L 26.9 1.8 C 26.9 1.8 26.91 2.38 26.9 2.4 C 27.2 2 27.6 1.8 28 1.8 C 28.4 1.8 28.7 1.9 29 2.1 C 29.2 2.4 29.3 2.7 29.3 3.2 C 29.29 3.17 29.3 5.6 29.3 5.6 L 28.2 5.6 C 28.2 5.6 28.22 3.51 28.2 3.5 C 28.2 3 28 2.7 27.6 2.7 C 27.4 2.7 27.2 2.8 27.1 2.9 C 27 3.1 26.9 3.3 26.9 3.5 C 26.91 3.51 26.9 5.6 26.9 5.6 L 25.9 5.6 Z M 33.5 5 C 33.1 5.5 32.6 5.7 32 5.7 C 31.4 5.7 31 5.5 30.6 5.1 C 30.2 4.8 30 4.3 30 3.7 C 30 3.7 30 3.7 30 3.7 C 30 3.2 30.2 2.7 30.6 2.3 C 30.9 2 31.3 1.8 31.9 1.8 C 32.5 1.8 32.9 2 33.2 2.4 C 33.6 2.8 33.7 3.2 33.7 3.8 C 33.7 3.9 33.7 4 33.7 4.1 C 33.7 4.1 31.1 4.1 31.1 4.1 C 31.1 4.3 31.2 4.5 31.4 4.6 C 31.6 4.8 31.8 4.8 32 4.8 C 32.3 4.8 32.6 4.7 32.9 4.4 C 32.91 4.44 33.5 5 33.5 5 C 33.5 5 33.52 4.98 33.5 5 Z M 31.1 3.4 C 31.1 3.4 32.7 3.4 32.7 3.4 C 32.6 3.2 32.6 3 32.4 2.8 C 32.3 2.7 32.1 2.6 31.9 2.6 C 31.7 2.6 31.5 2.7 31.3 2.8 C 31.2 3 31.1 3.2 31.1 3.4 Z M 34.5 5.6 L 34.5 1.8 L 35.6 1.8 C 35.6 1.8 35.57 2.6 35.6 2.6 C 35.8 2 36.2 1.8 36.8 1.8 C 36.76 1.78 36.8 2.9 36.8 2.9 C 36.8 2.9 36.71 2.89 36.7 2.9 C 36.3 2.9 36.1 3 35.9 3.2 C 35.7 3.4 35.6 3.8 35.6 4.2 C 35.57 4.21 35.6 5.6 35.6 5.6 L 34.5 5.6 Z M 39.4 3.9 L 39.4 2.9 L 42.4 2.9 L 42.4 3.9 L 39.4 3.9 Z M 45.4 5.6 L 45.4 0.7 L 49.2 0.7 L 49.2 1.7 L 46.5 1.7 L 46.5 2.7 L 48.9 2.7 L 48.9 3.7 L 46.5 3.7 L 46.5 5.6 L 45.4 5.6 Z M 49.9 1.4 L 49.9 0.5 L 51.1 0.5 L 51.1 1.4 L 49.9 1.4 Z M 50 5.6 L 50 1.8 L 51 1.8 L 51 5.6 L 50 5.6 Z M 52 5.6 L 52 1.8 L 53.1 1.8 C 53.1 1.8 53.09 2.6 53.1 2.6 C 53.3 2 53.7 1.8 54.3 1.8 C 54.29 1.78 54.3 2.9 54.3 2.9 C 54.3 2.9 54.24 2.89 54.2 2.9 C 53.9 2.9 53.6 3 53.4 3.2 C 53.2 3.4 53.1 3.8 53.1 4.2 C 53.09 4.21 53.1 5.6 53.1 5.6 L 52 5.6 Z M 58.2 5 C 57.8 5.5 57.3 5.7 56.6 5.7 C 56.1 5.7 55.6 5.5 55.2 5.1 C 54.9 4.8 54.7 4.3 54.7 3.7 C 54.7 3.7 54.7 3.7 54.7 3.7 C 54.7 3.2 54.8 2.7 55.2 2.3 C 55.5 2 56 1.8 56.5 1.8 C 57.1 1.8 57.6 2 57.9 2.4 C 58.2 2.8 58.4 3.2 58.4 3.8 C 58.4 3.9 58.3 4 58.3 4.1 C 58.3 4.1 55.7 4.1 55.7 4.1 C 55.8 4.3 55.9 4.5 56 4.6 C 56.2 4.8 56.4 4.8 56.6 4.8 C 57 4.8 57.3 4.7 57.6 4.4 C 57.55 4.44 58.2 5 58.2 5 C 58.2 5 58.16 4.98 58.2 5 Z M 55.7 3.4 C 55.7 3.4 57.3 3.4 57.3 3.4 C 57.3 3.2 57.2 3 57.1 2.8 C 56.9 2.7 56.7 2.6 56.5 2.6 C 56.3 2.6 56.1 2.7 56 2.8 C 55.8 3 55.8 3.2 55.7 3.4 Z M 59.3 5.6 L 59.3 2.8 L 58.9 2.8 L 58.9 1.9 L 59.3 1.9 C 59.3 1.9 59.32 1.64 59.3 1.6 C 59.3 1.2 59.4 0.9 59.6 0.7 C 59.8 0.5 60.1 0.4 60.5 0.4 C 60.8 0.4 61 0.5 61.2 0.5 C 61.2 0.5 61.2 1.4 61.2 1.4 C 61.1 1.4 60.9 1.3 60.8 1.3 C 60.5 1.3 60.4 1.5 60.4 1.7 C 60.37 1.74 60.4 1.9 60.4 1.9 L 61.2 1.9 L 61.2 2.8 L 60.4 2.8 L 60.4 5.6 L 59.3 5.6 Z M 61.9 5.6 L 61.9 0.5 L 62.9 0.5 L 62.9 5.6 L 61.9 5.6 Z M 65.6 4.4 L 66.4 1.8 L 67.5 1.8 C 67.5 1.8 66.06 5.69 66.1 5.7 C 65.9 6.1 65.8 6.3 65.6 6.5 C 65.4 6.7 65.1 6.7 64.8 6.7 C 64.5 6.7 64.2 6.7 63.9 6.5 C 63.9 6.5 64.2 5.7 64.2 5.7 C 64.4 5.8 64.6 5.9 64.7 5.9 C 64.8 5.9 64.9 5.8 64.9 5.8 C 65 5.8 65 5.7 65.1 5.6 C 65.06 5.61 63.6 1.8 63.6 1.8 L 64.7 1.8 L 65.6 4.4 Z " stroke="none" fill="#000"/>  </g></svg>