<?xml version="1.0" standalone="no"?><!DOCTYPE svg PUBLIC "-//W3C//DTD SVG 1.1//EN" "http://www.w3.org/Graphics/SVG/1.1/DTD/svg11.dtd"><svg xmlns="http://www.w3.org/2000/svg" version="1.1" width="200.3px" height="124.1px" viewBox="0 -4 200.3 124.1" style="top:-4px">  <desc>“E er elimden gelse, senin yerine bula klar y kard m...”</desc>  <defs/>  <g id="Polygon377278">    <path d="M 4.7 47.6 L 6.5 41.9 L 8.9 41.9 C 8.9 41.9 5.74 50.41 5.7 50.4 C 5.4 51.3 5.1 51.9 4.7 52.2 C 4.3 52.6 3.7 52.7 3 52.7 C 2.3 52.7 1.6 52.5 0.9 52.2 C 0.9 52.2 1.7 50.5 1.7 50.5 C 2.1 50.7 2.4 50.8 2.7 50.8 C 2.9 50.8 3.1 50.7 3.2 50.7 C 3.3 50.6 3.4 50.4 3.6 50.2 C 3.55 50.24 0.3 41.9 0.3 41.9 L 2.8 41.9 L 4.7 47.6 Z M 10.4 50.2 L 10.4 41.9 L 12.8 41.9 L 12.8 50.2 L 10.4 50.2 Z M 15 50.2 L 15 38.9 L 17.3 38.9 L 17.3 44.9 L 20.1 41.9 L 22.9 41.9 L 19.7 45.2 L 23 50.2 L 20.3 50.2 L 18.2 46.8 L 17.3 47.7 L 17.3 50.2 L 15 50.2 Z M 28.8 49.3 C 28.2 50 27.3 50.4 26.3 50.4 C 25.5 50.4 24.8 50.1 24.3 49.7 C 23.7 49.2 23.5 48.6 23.5 47.8 C 23.5 47.8 23.5 47.8 23.5 47.8 C 23.5 46.9 23.8 46.3 24.4 45.8 C 25 45.4 25.8 45.2 26.8 45.2 C 27.5 45.2 28.1 45.3 28.8 45.5 C 28.8 45.5 28.8 45.4 28.8 45.4 C 28.8 44.4 28.2 43.9 27 43.9 C 26.3 43.9 25.5 44 24.8 44.3 C 24.8 44.3 24.2 42.5 24.2 42.5 C 25.2 42.1 26.3 41.8 27.4 41.8 C 28.6 41.8 29.6 42.2 30.2 42.8 C 30.8 43.4 31.1 44.2 31.1 45.4 C 31.07 45.41 31.1 50.2 31.1 50.2 L 28.8 50.2 L 28.8 49.3 C 28.8 49.3 28.8 49.32 28.8 49.3 Z M 27 48.7 C 27.6 48.7 28 48.6 28.3 48.3 C 28.7 48.1 28.8 47.7 28.8 47.3 C 28.8 47.3 28.8 46.9 28.8 46.9 C 28.4 46.7 27.9 46.6 27.4 46.6 C 26.8 46.6 26.4 46.7 26.2 46.9 C 25.9 47.1 25.7 47.3 25.7 47.7 C 25.7 47.7 25.7 47.7 25.7 47.7 C 25.7 48 25.8 48.3 26.1 48.5 C 26.3 48.7 26.6 48.7 27 48.7 Z M 33.1 50.2 L 33.1 41.9 L 35.4 41.9 C 35.4 41.9 35.44 43.6 35.4 43.6 C 36 42.3 36.9 41.7 38.1 41.8 C 38.08 41.78 38.1 44.2 38.1 44.2 C 38.1 44.2 37.95 44.24 38 44.2 C 37.2 44.2 36.5 44.5 36.1 45 C 35.7 45.4 35.4 46.2 35.4 47.2 C 35.44 47.15 35.4 50.2 35.4 50.2 L 33.1 50.2 Z M 45.4 49 C 44.7 49.9 43.9 50.4 42.8 50.4 C 41.8 50.4 40.9 50 40.1 49.2 C 39.4 48.4 39 47.4 39 46.1 C 39 46.1 39 46.1 39 46.1 C 39 44.7 39.4 43.7 40.1 42.9 C 40.9 42.2 41.7 41.8 42.8 41.8 C 43.8 41.8 44.7 42.2 45.4 43 C 45.36 43.02 45.4 38.9 45.4 38.9 L 47.7 38.9 L 47.7 50.2 L 45.4 50.2 L 45.4 49 C 45.4 49 45.36 49.02 45.4 49 Z M 41.4 46.1 C 41.4 46.8 41.6 47.3 42 47.7 C 42.3 48.2 42.8 48.4 43.4 48.4 C 44 48.4 44.4 48.2 44.8 47.7 C 45.2 47.3 45.4 46.8 45.4 46.1 C 45.4 46.1 45.4 46.1 45.4 46.1 C 45.4 45.4 45.2 44.8 44.8 44.4 C 44.4 44 44 43.8 43.4 43.8 C 42.8 43.8 42.3 44 42 44.4 C 41.6 44.8 41.4 45.4 41.4 46.1 C 41.36 46.06 41.4 46.1 41.4 46.1 C 41.4 46.1 41.36 46.09 41.4 46.1 Z M 49.9 50.2 L 49.9 41.9 L 52.3 41.9 L 52.3 50.2 L 49.9 50.2 Z M 54.5 50.2 L 54.5 41.9 L 56.8 41.9 C 56.8 41.9 56.81 43.11 56.8 43.1 C 57.5 42.2 58.3 41.8 59.3 41.8 C 60.4 41.8 61.1 42.2 61.6 43.1 C 62.3 42.2 63.2 41.8 64.3 41.8 C 65.2 41.8 65.9 42 66.4 42.6 C 66.8 43.1 67.1 43.8 67.1 44.8 C 67.09 44.82 67.1 50.2 67.1 50.2 L 64.7 50.2 C 64.7 50.2 64.75 45.6 64.7 45.6 C 64.7 44.5 64.3 43.9 63.4 43.9 C 62.9 43.9 62.6 44.1 62.3 44.3 C 62.1 44.6 62 45.1 62 45.6 C 61.95 45.6 62 50.2 62 50.2 L 59.6 50.2 C 59.6 50.2 59.61 45.6 59.6 45.6 C 59.6 44.5 59.2 43.9 58.2 43.9 C 57.8 43.9 57.4 44.1 57.2 44.3 C 56.9 44.6 56.8 45.1 56.8 45.6 C 56.81 45.6 56.8 50.2 56.8 50.2 L 54.5 50.2 Z M 69 50.2 L 69 47.7 L 71.5 47.7 L 71.5 50.2 L 69 50.2 Z M 73.5 50.2 L 73.5 47.7 L 76 47.7 L 76 50.2 L 73.5 50.2 Z M 77.9 50.2 L 77.9 47.7 L 80.4 47.7 L 80.4 50.2 L 77.9 50.2 Z M 85.3 44.4 C 85.3 44.4 85.1 43.4 85.1 43.4 C 86.2 43.3 86.7 42.8 86.6 41.9 C 86.62 41.88 85.7 41.9 85.7 41.9 L 85.7 39.4 L 88.2 39.4 C 88.2 39.4 88.16 41.49 88.2 41.5 C 88.2 42.5 87.9 43.2 87.4 43.7 C 87 44.1 86.3 44.4 85.3 44.4 Z M 81.4 44.4 C 81.4 44.4 81.2 43.4 81.2 43.4 C 82.3 43.3 82.8 42.8 82.7 41.9 C 82.7 41.88 81.7 41.9 81.7 41.9 L 81.7 39.4 L 84.2 39.4 C 84.2 39.4 84.24 41.49 84.2 41.5 C 84.2 42.5 84 43.2 83.5 43.7 C 83 44.1 82.3 44.4 81.4 44.4 Z " stroke="none" fill="#000"/>  </g>  <g id="Polygon377277">    <path d="M 4 31.4 C 2.7 31.4 1.5 31 0.4 30.2 C 0.4 30.2 1.4 28.6 1.4 28.6 C 2.3 29.3 3.2 29.6 4 29.6 C 4.7 29.6 5 29.4 5 29 C 5 29 5 29 5 29 C 5 28.9 5 28.8 5 28.8 C 4.9 28.7 4.9 28.7 4.8 28.6 C 4.7 28.6 4.7 28.5 4.6 28.5 C 4.6 28.4 4.5 28.4 4.3 28.4 C 4.2 28.3 4.1 28.3 4 28.3 C 3.9 28.2 3.8 28.2 3.7 28.1 C 3.5 28.1 3.4 28.1 3.3 28 C 2.9 27.9 2.7 27.8 2.4 27.7 C 2.1 27.6 1.9 27.5 1.6 27.3 C 1.4 27.1 1.2 26.8 1 26.5 C 0.9 26.3 0.8 25.9 0.8 25.5 C 0.8 25.5 0.8 25.5 0.8 25.5 C 0.8 24.7 1.1 24.1 1.7 23.6 C 2.3 23.1 3 22.9 3.8 22.9 C 4.9 22.9 6 23.2 6.9 23.8 C 6.9 23.8 6 25.5 6 25.5 C 5.2 24.9 4.4 24.7 3.8 24.7 C 3.5 24.7 3.3 24.7 3.2 24.9 C 3 25 2.9 25.1 2.9 25.3 C 2.9 25.3 2.9 25.3 2.9 25.3 C 2.9 25.5 3.1 25.7 3.4 25.8 C 3.6 25.9 4.1 26.1 4.6 26.3 C 5 26.4 5.3 26.5 5.5 26.6 C 5.8 26.7 6 26.9 6.3 27.1 C 6.5 27.3 6.8 27.5 6.9 27.8 C 7 28.1 7.1 28.4 7.1 28.7 C 7.1 28.7 7.1 28.8 7.1 28.8 C 7.1 29.6 6.8 30.3 6.2 30.8 C 5.7 31.2 4.9 31.4 4 31.4 Z M 16.1 29.9 C 15.3 30.9 14.1 31.5 12.7 31.5 C 11.5 31.5 10.4 31.1 9.6 30.3 C 8.8 29.5 8.4 28.4 8.4 27.2 C 8.4 27.2 8.4 27.2 8.4 27.2 C 8.4 26 8.8 24.9 9.6 24.1 C 10.3 23.3 11.3 22.9 12.5 22.9 C 13.8 22.9 14.8 23.3 15.5 24.1 C 16.2 25 16.5 26.1 16.5 27.3 C 16.5 27.4 16.5 27.7 16.5 28 C 16.5 28 10.7 28 10.7 28 C 10.8 28.5 11.1 28.9 11.4 29.2 C 11.8 29.4 12.2 29.6 12.7 29.6 C 13.5 29.6 14.1 29.3 14.8 28.7 C 14.76 28.73 16.1 29.9 16.1 29.9 C 16.1 29.9 16.1 29.92 16.1 29.9 Z M 10.7 26.5 C 10.7 26.5 14.2 26.5 14.2 26.5 C 14.2 26 14 25.5 13.7 25.2 C 13.4 24.9 13 24.7 12.5 24.7 C 12 24.7 11.6 24.9 11.3 25.2 C 11 25.5 10.8 25.9 10.7 26.5 Z M 18.3 31.3 L 18.3 23 L 20.6 23 C 20.6 23 20.61 24.18 20.6 24.2 C 21.3 23.3 22.1 22.9 23 22.9 C 23.9 22.9 24.6 23.1 25.1 23.7 C 25.6 24.2 25.8 25 25.8 25.9 C 25.84 25.92 25.8 31.3 25.8 31.3 L 23.5 31.3 C 23.5 31.3 23.49 26.66 23.5 26.7 C 23.5 25.5 23 25 22.1 25 C 21.6 25 21.2 25.1 21 25.4 C 20.7 25.7 20.6 26.1 20.6 26.7 C 20.61 26.66 20.6 31.3 20.6 31.3 L 18.3 31.3 Z M 27.9 22.1 L 27.9 20 L 30.4 20 L 30.4 22.1 L 27.9 22.1 Z M 28 31.3 L 28 23 L 30.3 23 L 30.3 31.3 L 28 31.3 Z M 32.5 31.3 L 32.5 23 L 34.9 23 C 34.9 23 34.88 24.18 34.9 24.2 C 35.6 23.3 36.4 22.9 37.3 22.9 C 38.2 22.9 38.9 23.1 39.4 23.7 C 39.9 24.2 40.1 25 40.1 25.9 C 40.11 25.92 40.1 31.3 40.1 31.3 L 37.8 31.3 C 37.8 31.3 37.77 26.66 37.8 26.7 C 37.8 25.5 37.3 25 36.3 25 C 35.9 25 35.5 25.1 35.3 25.4 C 35 25.7 34.9 26.1 34.9 26.7 C 34.88 26.66 34.9 31.3 34.9 31.3 L 32.5 31.3 Z M 50.4 28.6 L 52.2 23 L 54.7 23 C 54.7 23 51.47 31.48 51.5 31.5 C 51.2 32.3 50.8 32.9 50.4 33.3 C 50 33.6 49.4 33.8 48.8 33.8 C 48 33.8 47.3 33.6 46.7 33.2 C 46.7 33.2 47.5 31.5 47.5 31.5 C 47.8 31.7 48.2 31.9 48.5 31.9 C 48.7 31.9 48.8 31.8 49 31.7 C 49.1 31.7 49.2 31.5 49.3 31.3 C 49.28 31.31 46 23 46 23 L 48.5 23 L 50.4 28.6 Z M 62.9 29.9 C 62 30.9 60.9 31.5 59.5 31.5 C 58.2 31.5 57.2 31.1 56.4 30.3 C 55.6 29.5 55.2 28.4 55.2 27.2 C 55.2 27.2 55.2 27.2 55.2 27.2 C 55.2 26 55.6 24.9 56.3 24.1 C 57.1 23.3 58.1 22.9 59.3 22.9 C 60.6 22.9 61.6 23.3 62.3 24.1 C 63 25 63.3 26.1 63.3 27.3 C 63.3 27.4 63.3 27.7 63.3 28 C 63.3 28 57.5 28 57.5 28 C 57.6 28.5 57.9 28.9 58.2 29.2 C 58.6 29.4 59 29.6 59.5 29.6 C 60.2 29.6 60.9 29.3 61.5 28.7 C 61.54 28.73 62.9 29.9 62.9 29.9 C 62.9 29.9 62.88 29.92 62.9 29.9 Z M 57.5 26.5 C 57.5 26.5 61 26.5 61 26.5 C 60.9 26 60.8 25.5 60.4 25.2 C 60.1 24.9 59.8 24.7 59.3 24.7 C 58.8 24.7 58.4 24.9 58.1 25.2 C 57.8 25.5 57.6 25.9 57.5 26.5 Z M 65 31.3 L 65 23 L 67.4 23 C 67.4 23 67.39 24.67 67.4 24.7 C 67.9 23.4 68.8 22.8 70 22.9 C 70.03 22.85 70 25.3 70 25.3 C 70 25.3 69.9 25.31 69.9 25.3 C 69.1 25.3 68.5 25.5 68 26 C 67.6 26.5 67.4 27.2 67.4 28.2 C 67.39 28.22 67.4 31.3 67.4 31.3 L 65 31.3 Z M 71.5 22.1 L 71.5 20 L 74 20 L 74 22.1 L 71.5 22.1 Z M 71.6 31.3 L 71.6 23 L 73.9 23 L 73.9 31.3 L 71.6 31.3 Z M 76.2 31.3 L 76.2 23 L 78.5 23 C 78.5 23 78.5 24.18 78.5 24.2 C 79.2 23.3 80 22.9 80.9 22.9 C 81.8 22.9 82.5 23.1 83 23.7 C 83.5 24.2 83.7 25 83.7 25.9 C 83.73 25.92 83.7 31.3 83.7 31.3 L 81.4 31.3 C 81.4 31.3 81.39 26.66 81.4 26.7 C 81.4 25.5 80.9 25 80 25 C 79.5 25 79.1 25.1 78.9 25.4 C 78.6 25.7 78.5 26.1 78.5 26.7 C 78.5 26.66 78.5 31.3 78.5 31.3 L 76.2 31.3 Z M 93.1 29.9 C 92.2 30.9 91.1 31.5 89.7 31.5 C 88.4 31.5 87.4 31.1 86.6 30.3 C 85.8 29.5 85.4 28.4 85.4 27.2 C 85.4 27.2 85.4 27.2 85.4 27.2 C 85.4 26 85.8 24.9 86.5 24.1 C 87.3 23.3 88.3 22.9 89.5 22.9 C 90.8 22.9 91.8 23.3 92.5 24.1 C 93.1 25 93.5 26.1 93.5 27.3 C 93.5 27.4 93.5 27.7 93.5 28 C 93.5 28 87.7 28 87.7 28 C 87.8 28.5 88 28.9 88.4 29.2 C 88.7 29.4 89.2 29.6 89.7 29.6 C 90.4 29.6 91.1 29.3 91.7 28.7 C 91.73 28.73 93.1 29.9 93.1 29.9 C 93.1 29.9 93.07 29.92 93.1 29.9 Z M 87.7 26.5 C 87.7 26.5 91.2 26.5 91.2 26.5 C 91.1 26 90.9 25.5 90.6 25.2 C 90.3 24.9 89.9 24.7 89.5 24.7 C 89 24.7 88.6 24.9 88.3 25.2 C 88 25.5 87.8 25.9 87.7 26.5 Z M 104.8 31.4 C 103.8 31.4 102.9 31 102.2 30.2 C 102.21 30.2 102.2 31.3 102.2 31.3 L 99.9 31.3 L 99.9 20 L 102.2 20 C 102.2 20 102.21 24.19 102.2 24.2 C 102.9 23.3 103.7 22.9 104.8 22.9 C 105.8 22.9 106.7 23.2 107.4 24 C 108.2 24.8 108.6 25.8 108.6 27.1 C 108.6 27.1 108.6 27.2 108.6 27.2 C 108.6 28.5 108.2 29.5 107.4 30.3 C 106.7 31.1 105.8 31.4 104.8 31.4 Z M 102.2 27.2 C 102.2 27.8 102.4 28.4 102.8 28.8 C 103.1 29.2 103.6 29.4 104.2 29.4 C 104.7 29.4 105.2 29.2 105.6 28.8 C 106 28.4 106.2 27.8 106.2 27.2 C 106.2 27.2 106.2 27.1 106.2 27.1 C 106.2 26.5 106 25.9 105.6 25.5 C 105.2 25.1 104.7 24.8 104.2 24.8 C 103.6 24.8 103.1 25.1 102.8 25.5 C 102.4 25.9 102.2 26.5 102.2 27.1 C 102.18 27.13 102.2 27.2 102.2 27.2 C 102.2 27.2 102.18 27.16 102.2 27.2 Z M 115.5 30.1 C 114.8 31 114 31.4 113 31.4 C 112.1 31.4 111.4 31.2 111 30.6 C 110.5 30.1 110.2 29.3 110.2 28.4 C 110.22 28.36 110.2 23 110.2 23 L 112.6 23 C 112.6 23 112.56 27.62 112.6 27.6 C 112.6 28.7 113 29.3 114 29.3 C 114.4 29.3 114.8 29.2 115.1 28.9 C 115.3 28.6 115.5 28.2 115.5 27.6 C 115.45 27.62 115.5 23 115.5 23 L 117.8 23 L 117.8 31.3 L 115.5 31.3 L 115.5 30.1 C 115.5 30.1 115.45 30.11 115.5 30.1 Z M 120 31.3 L 120 20 L 122.3 20 L 122.3 31.3 L 120 31.3 Z M 129.4 30.4 C 128.8 31.1 127.9 31.4 126.9 31.4 C 126.1 31.4 125.4 31.2 124.9 30.8 C 124.3 30.3 124.1 29.7 124.1 28.9 C 124.1 28.9 124.1 28.9 124.1 28.9 C 124.1 28 124.4 27.4 125 26.9 C 125.6 26.5 126.4 26.2 127.4 26.2 C 128.1 26.2 128.7 26.3 129.4 26.6 C 129.4 26.6 129.4 26.4 129.4 26.4 C 129.4 25.4 128.8 24.9 127.6 24.9 C 126.9 24.9 126.1 25.1 125.4 25.4 C 125.4 25.4 124.8 23.6 124.8 23.6 C 125.8 23.1 126.9 22.9 128 22.9 C 129.2 22.9 130.2 23.2 130.8 23.8 C 131.4 24.4 131.7 25.3 131.7 26.5 C 131.67 26.48 131.7 31.3 131.7 31.3 L 129.4 31.3 L 129.4 30.4 C 129.4 30.4 129.4 30.38 129.4 30.4 Z M 127.6 29.8 C 128.2 29.8 128.6 29.7 128.9 29.4 C 129.3 29.1 129.4 28.8 129.4 28.4 C 129.4 28.4 129.4 27.9 129.4 27.9 C 129 27.7 128.5 27.6 128 27.6 C 127.4 27.6 127.1 27.7 126.8 27.9 C 126.5 28.1 126.3 28.4 126.3 28.8 C 126.3 28.8 126.3 28.8 126.3 28.8 C 126.3 29.1 126.4 29.4 126.7 29.5 C 126.9 29.7 127.2 29.8 127.6 29.8 Z M 136.3 33.9 L 134.3 33.1 C 134.3 33.1 135.56 31.33 135.6 31.3 C 134.6 31.1 133.8 30.8 133 30.2 C 133 30.2 134 28.6 134 28.6 C 135 29.3 135.8 29.6 136.7 29.6 C 137.3 29.6 137.6 29.4 137.6 29 C 137.6 29 137.6 29 137.6 29 C 137.6 28.9 137.6 28.8 137.6 28.8 C 137.6 28.7 137.5 28.7 137.5 28.6 C 137.4 28.6 137.3 28.5 137.3 28.5 C 137.2 28.4 137.1 28.4 137 28.4 C 136.9 28.3 136.8 28.3 136.7 28.3 C 136.6 28.2 136.5 28.2 136.3 28.1 C 136.2 28.1 136 28.1 135.9 28 C 135.6 27.9 135.3 27.8 135 27.7 C 134.8 27.6 134.5 27.5 134.3 27.3 C 134 27.1 133.8 26.8 133.7 26.5 C 133.5 26.3 133.5 25.9 133.5 25.5 C 133.5 25.5 133.5 25.5 133.5 25.5 C 133.5 24.7 133.7 24.1 134.3 23.6 C 134.9 23.1 135.6 22.9 136.5 22.9 C 137.6 22.9 138.6 23.2 139.6 23.8 C 139.6 23.8 138.7 25.5 138.7 25.5 C 137.8 24.9 137.1 24.7 136.4 24.7 C 136.2 24.7 135.9 24.7 135.8 24.9 C 135.7 25 135.6 25.1 135.6 25.3 C 135.6 25.3 135.6 25.3 135.6 25.3 C 135.6 25.5 135.7 25.7 136 25.8 C 136.3 25.9 136.7 26.1 137.3 26.3 C 137.6 26.4 137.9 26.5 138.2 26.6 C 138.4 26.7 138.7 26.9 138.9 27.1 C 139.2 27.3 139.4 27.5 139.5 27.8 C 139.7 28.1 139.8 28.4 139.8 28.7 C 139.8 28.7 139.8 28.8 139.8 28.8 C 139.8 29.5 139.5 30.1 139.1 30.6 C 138.7 31 138.1 31.3 137.3 31.4 C 137.32 31.39 136.3 33.9 136.3 33.9 Z M 141.5 31.3 L 141.5 23 L 143.9 23 L 143.9 31.3 L 141.5 31.3 Z M 146.1 31.3 L 146.1 20 L 148.4 20 L 148.4 26 L 151.2 23 L 154 23 L 150.9 26.3 L 154.1 31.3 L 151.4 31.3 L 149.3 27.9 L 148.4 28.8 L 148.4 31.3 L 146.1 31.3 Z M 155.3 31.3 L 155.3 20 L 157.7 20 L 157.7 31.3 L 155.3 31.3 Z M 164.7 30.4 C 164.1 31.1 163.3 31.4 162.2 31.4 C 161.4 31.4 160.8 31.2 160.2 30.8 C 159.7 30.3 159.4 29.7 159.4 28.9 C 159.4 28.9 159.4 28.9 159.4 28.9 C 159.4 28 159.7 27.4 160.3 26.9 C 160.9 26.5 161.7 26.2 162.7 26.2 C 163.4 26.2 164.1 26.3 164.8 26.6 C 164.8 26.6 164.8 26.4 164.8 26.4 C 164.8 25.4 164.2 24.9 163 24.9 C 162.2 24.9 161.5 25.1 160.7 25.4 C 160.7 25.4 160.1 23.6 160.1 23.6 C 161.2 23.1 162.2 22.9 163.3 22.9 C 164.6 22.9 165.5 23.2 166.1 23.8 C 166.7 24.4 167 25.3 167 26.5 C 167.02 26.48 167 31.3 167 31.3 L 164.7 31.3 L 164.7 30.4 C 164.7 30.4 164.75 30.38 164.7 30.4 Z M 163 29.8 C 163.5 29.8 164 29.7 164.3 29.4 C 164.6 29.1 164.8 28.8 164.8 28.4 C 164.8 28.4 164.8 27.9 164.8 27.9 C 164.3 27.7 163.8 27.6 163.3 27.6 C 162.8 27.6 162.4 27.7 162.1 27.9 C 161.8 28.1 161.7 28.4 161.7 28.8 C 161.7 28.8 161.7 28.8 161.7 28.8 C 161.7 29.1 161.8 29.4 162 29.5 C 162.3 29.7 162.6 29.8 163 29.8 Z M 169 31.3 L 169 23 L 171.4 23 C 171.4 23 171.38 24.67 171.4 24.7 C 171.9 23.4 172.8 22.8 174 22.9 C 174.02 22.85 174 25.3 174 25.3 C 174 25.3 173.9 25.31 173.9 25.3 C 173.1 25.3 172.5 25.5 172 26 C 171.6 26.5 171.4 27.2 171.4 28.2 C 171.38 28.22 171.4 31.3 171.4 31.3 L 169 31.3 Z M 175.6 31.3 L 175.6 23 L 177.9 23 L 177.9 31.3 L 175.6 31.3 Z " stroke="none" fill="#000"/>  </g>  <g id="Polygon377276">    <path d="M 4.8 6.4 C 4.8 6.4 4.8 4.35 4.8 4.4 C 4.8 3.4 5 2.6 5.5 2.2 C 6 1.7 6.7 1.5 7.7 1.5 C 7.7 1.5 7.9 2.4 7.9 2.4 C 6.8 2.5 6.3 3.1 6.3 4 C 6.34 3.97 7.3 4 7.3 4 L 7.3 6.4 L 4.8 6.4 Z M 0.9 6.4 C 0.9 6.4 0.88 4.35 0.9 4.4 C 0.9 3.4 1.1 2.6 1.6 2.2 C 2.1 1.7 2.8 1.5 3.7 1.5 C 3.7 1.5 3.9 2.4 3.9 2.4 C 2.8 2.5 2.3 3.1 2.4 4 C 2.42 3.97 3.4 4 3.4 4 L 3.4 6.4 L 0.9 6.4 Z M 9.6 12.3 L 9.6 1.5 L 17.8 1.5 L 17.8 3.7 L 12 3.7 L 12 5.8 L 17.1 5.8 L 17.1 8 L 12 8 L 12 10.2 L 17.9 10.2 L 17.9 12.3 L 9.6 12.3 Z M 26.8 13.7 C 26.1 14.5 24.9 14.8 23.3 14.8 C 21.9 14.8 20.7 14.6 19.6 14 C 19.6 14 20.4 12.2 20.4 12.2 C 21.3 12.7 22.3 13 23.2 13 C 24.8 13 25.6 12.2 25.6 10.7 C 25.6 10.7 25.6 10.3 25.6 10.3 C 25.2 10.8 24.8 11.1 24.4 11.3 C 24 11.6 23.5 11.7 22.9 11.7 C 21.9 11.7 21 11.3 20.3 10.6 C 19.6 9.9 19.2 9 19.2 7.8 C 19.2 7.8 19.2 7.8 19.2 7.8 C 19.2 6.6 19.6 5.7 20.3 5 C 21 4.3 21.9 3.9 22.9 3.9 C 23.9 3.9 24.8 4.3 25.5 5.2 C 25.54 5.16 25.5 4.1 25.5 4.1 L 27.9 4.1 C 27.9 4.1 27.89 10.48 27.9 10.5 C 27.9 12 27.5 13 26.8 13.7 C 26.8 13.7 26.8 13.7 26.8 13.7 Z M 21.5 7.8 C 21.5 8.4 21.7 8.8 22.1 9.2 C 22.5 9.5 23 9.7 23.6 9.7 C 24.1 9.7 24.6 9.5 25 9.2 C 25.4 8.8 25.6 8.4 25.6 7.8 C 25.6 7.8 25.6 7.8 25.6 7.8 C 25.6 7.2 25.4 6.8 25 6.4 C 24.6 6 24.1 5.9 23.6 5.9 C 23 5.9 22.5 6 22.1 6.4 C 21.7 6.8 21.5 7.2 21.5 7.8 C 21.55 7.78 21.5 7.8 21.5 7.8 C 21.5 7.8 21.55 7.81 21.5 7.8 Z M 26.7 0.7 C 26.7 1.5 26.4 2.1 25.9 2.5 C 25.4 3 24.7 3.2 23.8 3.2 C 23 3.2 22.3 3 21.8 2.5 C 21.3 2.1 21 1.5 20.9 0.7 C 20.9 0.7 22.5 0.7 22.5 0.7 C 22.7 1.4 23.2 1.7 23.8 1.7 C 24.5 1.7 25 1.4 25.2 0.7 C 25.17 0.74 26.7 0.7 26.7 0.7 C 26.7 0.7 26.75 0.74 26.7 0.7 Z M 37.3 11 C 36.5 12 35.3 12.5 33.9 12.5 C 32.7 12.5 31.6 12.1 30.8 11.3 C 30 10.5 29.6 9.5 29.6 8.3 C 29.6 8.3 29.6 8.2 29.6 8.2 C 29.6 7 30 6 30.7 5.2 C 31.5 4.3 32.5 3.9 33.7 3.9 C 35 3.9 36 4.4 36.7 5.2 C 37.4 6.1 37.7 7.1 37.7 8.4 C 37.7 8.5 37.7 8.7 37.7 9 C 37.7 9 31.9 9 31.9 9 C 32 9.6 32.3 10 32.6 10.2 C 33 10.5 33.4 10.6 33.9 10.6 C 34.7 10.6 35.3 10.4 35.9 9.8 C 35.95 9.8 37.3 11 37.3 11 C 37.3 11 37.29 10.99 37.3 11 Z M 31.9 7.6 C 31.9 7.6 35.4 7.6 35.4 7.6 C 35.4 7 35.2 6.6 34.9 6.3 C 34.6 6 34.2 5.8 33.7 5.8 C 33.2 5.8 32.8 6 32.5 6.3 C 32.2 6.6 32 7 31.9 7.6 Z M 39.5 12.3 L 39.5 4.1 L 41.8 4.1 C 41.8 4.1 41.8 5.74 41.8 5.7 C 42.3 4.5 43.2 3.9 44.4 3.9 C 44.44 3.92 44.4 6.4 44.4 6.4 C 44.4 6.4 44.31 6.37 44.3 6.4 C 43.5 6.4 42.9 6.6 42.5 7.1 C 42 7.6 41.8 8.3 41.8 9.3 C 41.8 9.29 41.8 12.3 41.8 12.3 L 39.5 12.3 Z M 57.8 11 C 57 12 55.9 12.5 54.5 12.5 C 53.2 12.5 52.2 12.1 51.4 11.3 C 50.5 10.5 50.1 9.5 50.1 8.3 C 50.1 8.3 50.1 8.2 50.1 8.2 C 50.1 7 50.5 6 51.3 5.2 C 52.1 4.3 53 3.9 54.2 3.9 C 55.5 3.9 56.5 4.4 57.2 5.2 C 57.9 6.1 58.3 7.1 58.3 8.4 C 58.3 8.5 58.2 8.7 58.2 9 C 58.2 9 52.5 9 52.5 9 C 52.6 9.6 52.8 10 53.2 10.2 C 53.5 10.5 53.9 10.6 54.5 10.6 C 55.2 10.6 55.9 10.4 56.5 9.8 C 56.49 9.8 57.8 11 57.8 11 C 57.8 11 57.83 10.99 57.8 11 Z M 52.4 7.6 C 52.4 7.6 56 7.6 56 7.6 C 55.9 7 55.7 6.6 55.4 6.3 C 55.1 6 54.7 5.8 54.2 5.8 C 53.7 5.8 53.3 6 53 6.3 C 52.7 6.6 52.5 7 52.4 7.6 Z M 60.1 12.3 L 60.1 1.1 L 62.4 1.1 L 62.4 12.3 L 60.1 12.3 Z M 64.7 3.2 L 64.7 1.1 L 67.2 1.1 L 67.2 3.2 L 64.7 3.2 Z M 64.8 12.3 L 64.8 4.1 L 67.1 4.1 L 67.1 12.3 L 64.8 12.3 Z M 69.3 12.3 L 69.3 4.1 L 71.7 4.1 C 71.7 4.1 71.66 5.25 71.7 5.2 C 72.4 4.4 73.2 3.9 74.1 3.9 C 75.2 3.9 76 4.4 76.4 5.2 C 77.2 4.4 78.1 3.9 79.1 3.9 C 80 3.9 80.7 4.2 81.2 4.7 C 81.7 5.2 81.9 6 81.9 7 C 81.94 6.96 81.9 12.3 81.9 12.3 L 79.6 12.3 C 79.6 12.3 79.6 7.73 79.6 7.7 C 79.6 6.6 79.1 6.1 78.2 6.1 C 77.8 6.1 77.4 6.2 77.2 6.5 C 76.9 6.8 76.8 7.2 76.8 7.7 C 76.8 7.73 76.8 12.3 76.8 12.3 L 74.5 12.3 C 74.5 12.3 74.46 7.73 74.5 7.7 C 74.5 6.6 74 6.1 73.1 6.1 C 72.6 6.1 72.3 6.2 72 6.5 C 71.8 6.8 71.7 7.2 71.7 7.7 C 71.66 7.73 71.7 12.3 71.7 12.3 L 69.3 12.3 Z M 90 11.2 C 89.3 12.1 88.4 12.5 87.4 12.5 C 86.3 12.5 85.5 12.1 84.7 11.4 C 84 10.6 83.6 9.5 83.6 8.2 C 83.6 8.2 83.6 8.2 83.6 8.2 C 83.6 6.9 84 5.8 84.7 5.1 C 85.4 4.3 86.3 3.9 87.4 3.9 C 88.4 3.9 89.3 4.3 90 5.2 C 89.95 5.16 90 1.1 90 1.1 L 92.3 1.1 L 92.3 12.3 L 90 12.3 L 90 11.2 C 90 11.2 89.95 11.16 90 11.2 Z M 86 8.2 C 86 8.9 86.2 9.4 86.5 9.9 C 86.9 10.3 87.4 10.5 88 10.5 C 88.5 10.5 89 10.3 89.4 9.9 C 89.8 9.4 90 8.9 90 8.2 C 90 8.2 90 8.2 90 8.2 C 90 7.5 89.8 7 89.4 6.6 C 89 6.1 88.5 5.9 88 5.9 C 87.4 5.9 86.9 6.1 86.5 6.5 C 86.2 7 86 7.5 86 8.2 C 85.96 8.2 86 8.2 86 8.2 C 86 8.2 85.96 8.23 86 8.2 Z M 101.7 11 C 100.9 12 99.7 12.5 98.3 12.5 C 97.1 12.5 96 12.1 95.2 11.3 C 94.4 10.5 94 9.5 94 8.3 C 94 8.3 94 8.2 94 8.2 C 94 7 94.4 6 95.2 5.2 C 95.9 4.3 96.9 3.9 98.1 3.9 C 99.4 3.9 100.4 4.4 101.1 5.2 C 101.8 6.1 102.1 7.1 102.1 8.4 C 102.1 8.5 102.1 8.7 102.1 9 C 102.1 9 96.3 9 96.3 9 C 96.4 9.6 96.7 10 97 10.2 C 97.4 10.5 97.8 10.6 98.3 10.6 C 99.1 10.6 99.7 10.4 100.4 9.8 C 100.36 9.8 101.7 11 101.7 11 C 101.7 11 101.7 10.99 101.7 11 Z M 96.3 7.6 C 96.3 7.6 99.8 7.6 99.8 7.6 C 99.8 7 99.6 6.6 99.3 6.3 C 99 6 98.6 5.8 98.1 5.8 C 97.6 5.8 97.2 6 96.9 6.3 C 96.6 6.6 96.4 7 96.3 7.6 Z M 103.9 12.3 L 103.9 4.1 L 106.2 4.1 C 106.2 4.1 106.21 5.25 106.2 5.2 C 106.9 4.4 107.7 3.9 108.6 3.9 C 109.5 3.9 110.2 4.2 110.7 4.7 C 111.2 5.3 111.4 6 111.4 7 C 111.44 6.99 111.4 12.3 111.4 12.3 L 109.1 12.3 C 109.1 12.3 109.09 7.73 109.1 7.7 C 109.1 6.6 108.6 6.1 107.7 6.1 C 107.2 6.1 106.8 6.2 106.6 6.5 C 106.3 6.8 106.2 7.2 106.2 7.7 C 106.21 7.73 106.2 12.3 106.2 12.3 L 103.9 12.3 Z M 125.4 13.7 C 124.6 14.5 123.4 14.8 121.8 14.8 C 120.5 14.8 119.2 14.6 118.2 14 C 118.2 14 119 12.2 119 12.2 C 119.9 12.7 120.8 13 121.7 13 C 123.3 13 124.1 12.2 124.1 10.7 C 124.1 10.7 124.1 10.3 124.1 10.3 C 123.7 10.8 123.3 11.1 122.9 11.3 C 122.5 11.6 122 11.7 121.4 11.7 C 120.4 11.7 119.5 11.3 118.8 10.6 C 118.1 9.9 117.7 9 117.7 7.8 C 117.7 7.8 117.7 7.8 117.7 7.8 C 117.7 6.6 118.1 5.7 118.8 5 C 119.5 4.3 120.4 3.9 121.4 3.9 C 122.4 3.9 123.3 4.3 124.1 5.2 C 124.08 5.16 124.1 4.1 124.1 4.1 L 126.4 4.1 C 126.4 4.1 126.42 10.48 126.4 10.5 C 126.4 12 126.1 13 125.4 13.7 C 125.4 13.7 125.4 13.7 125.4 13.7 Z M 120.1 7.8 C 120.1 8.4 120.3 8.8 120.6 9.2 C 121 9.5 121.5 9.7 122.1 9.7 C 122.7 9.7 123.2 9.5 123.5 9.2 C 123.9 8.8 124.1 8.4 124.1 7.8 C 124.1 7.8 124.1 7.8 124.1 7.8 C 124.1 7.2 123.9 6.8 123.5 6.4 C 123.2 6 122.7 5.9 122.1 5.9 C 121.5 5.9 121 6 120.7 6.4 C 120.3 6.8 120.1 7.2 120.1 7.8 C 120.08 7.78 120.1 7.8 120.1 7.8 C 120.1 7.8 120.08 7.81 120.1 7.8 Z M 135.8 11 C 135 12 133.9 12.5 132.4 12.5 C 131.2 12.5 130.2 12.1 129.3 11.3 C 128.5 10.5 128.1 9.5 128.1 8.3 C 128.1 8.3 128.1 8.2 128.1 8.2 C 128.1 7 128.5 6 129.3 5.2 C 130.1 4.3 131 3.9 132.2 3.9 C 133.5 3.9 134.5 4.4 135.2 5.2 C 135.9 6.1 136.2 7.1 136.2 8.4 C 136.2 8.5 136.2 8.7 136.2 9 C 136.2 9 130.5 9 130.5 9 C 130.6 9.6 130.8 10 131.1 10.2 C 131.5 10.5 131.9 10.6 132.5 10.6 C 133.2 10.6 133.9 10.4 134.5 9.8 C 134.48 9.8 135.8 11 135.8 11 C 135.8 11 135.82 10.99 135.8 11 Z M 130.4 7.6 C 130.4 7.6 134 7.6 134 7.6 C 133.9 7 133.7 6.6 133.4 6.3 C 133.1 6 132.7 5.8 132.2 5.8 C 131.7 5.8 131.3 6 131 6.3 C 130.7 6.6 130.5 7 130.4 7.6 Z M 138.1 12.3 L 138.1 1.1 L 140.4 1.1 L 140.4 12.3 L 138.1 12.3 Z M 145.5 12.5 C 144.3 12.5 143.1 12.1 142 11.3 C 142 11.3 143 9.7 143 9.7 C 143.9 10.4 144.8 10.7 145.6 10.7 C 146.3 10.7 146.6 10.5 146.6 10.1 C 146.6 10.1 146.6 10 146.6 10 C 146.6 10 146.6 9.9 146.6 9.8 C 146.5 9.8 146.5 9.7 146.4 9.7 C 146.3 9.6 146.3 9.6 146.2 9.6 C 146.1 9.5 146.1 9.5 145.9 9.4 C 145.8 9.4 145.7 9.4 145.6 9.3 C 145.5 9.3 145.4 9.3 145.3 9.2 C 145.1 9.2 145 9.1 144.9 9.1 C 144.5 9 144.2 8.9 144 8.8 C 143.7 8.7 143.5 8.5 143.2 8.3 C 143 8.1 142.8 7.9 142.6 7.6 C 142.5 7.3 142.4 7 142.4 6.6 C 142.4 6.6 142.4 6.6 142.4 6.6 C 142.4 5.8 142.7 5.1 143.3 4.7 C 143.9 4.2 144.6 4 145.4 4 C 146.5 4 147.6 4.3 148.5 4.9 C 148.5 4.9 147.6 6.5 147.6 6.5 C 146.8 6 146 5.8 145.4 5.8 C 145.1 5.8 144.9 5.8 144.8 5.9 C 144.6 6 144.5 6.2 144.5 6.3 C 144.5 6.3 144.5 6.4 144.5 6.4 C 144.5 6.6 144.7 6.7 145 6.9 C 145.2 7 145.7 7.2 146.2 7.3 C 146.6 7.5 146.9 7.6 147.1 7.7 C 147.4 7.8 147.6 8 147.9 8.1 C 148.1 8.3 148.4 8.6 148.5 8.8 C 148.6 9.1 148.7 9.4 148.7 9.8 C 148.7 9.8 148.7 9.8 148.7 9.8 C 148.7 10.7 148.4 11.4 147.8 11.8 C 147.3 12.3 146.5 12.5 145.5 12.5 Z M 157.7 11 C 156.9 12 155.7 12.5 154.3 12.5 C 153.1 12.5 152 12.1 151.2 11.3 C 150.4 10.5 150 9.5 150 8.3 C 150 8.3 150 8.2 150 8.2 C 150 7 150.4 6 151.2 5.2 C 151.9 4.3 152.9 3.9 154.1 3.9 C 155.4 3.9 156.4 4.4 157.1 5.2 C 157.8 6.1 158.1 7.1 158.1 8.4 C 158.1 8.5 158.1 8.7 158.1 9 C 158.1 9 152.3 9 152.3 9 C 152.4 9.6 152.7 10 153 10.2 C 153.4 10.5 153.8 10.6 154.3 10.6 C 155.1 10.6 155.7 10.4 156.4 9.8 C 156.35 9.8 157.7 11 157.7 11 C 157.7 11 157.69 10.99 157.7 11 Z M 152.3 7.6 C 152.3 7.6 155.8 7.6 155.8 7.6 C 155.8 7 155.6 6.6 155.3 6.3 C 155 6 154.6 5.8 154.1 5.8 C 153.6 5.8 153.2 6 152.9 6.3 C 152.6 6.6 152.4 7 152.3 7.6 Z M 159.3 14.8 C 159.3 14.8 159.1 13.9 159.1 13.9 C 160.1 13.8 160.6 13.3 160.6 12.3 C 160.57 12.35 159.6 12.3 159.6 12.3 L 159.6 9.9 L 162.1 9.9 C 162.1 9.9 162.11 11.96 162.1 12 C 162.1 13 161.9 13.7 161.4 14.1 C 160.9 14.6 160.2 14.8 159.3 14.8 Z " stroke="none" fill="#000"/>  </g></svg>