<?xml version="1.0" standalone="no"?><!DOCTYPE svg PUBLIC "-//W3C//DTD SVG 1.1//EN" "http://www.w3.org/Graphics/SVG/1.1/DTD/svg11.dtd"><svg xmlns="http://www.w3.org/2000/svg" version="1.1" width="43px" height="47.4px" viewBox="0 -2 43 47.4" style="top:-2px">  <desc>r n Kodu: ZD 26525 Renk: White</desc>  <defs/>  <g id="Polygon406890">    <path d="M 2.1 32.6 L 0.3 27.7 L 0.9 27.7 L 2.3 31.8 L 3.7 27.7 L 4.1 27.7 L 5.5 31.8 L 6.9 27.7 L 7.4 27.7 L 5.7 32.6 L 5.2 32.6 L 3.9 28.7 L 2.5 32.6 L 2.1 32.6 Z M 8.3 32.6 L 8.3 27.5 L 8.8 27.5 C 8.8 27.5 8.82 29.61 8.8 29.6 C 9.1 29.1 9.5 28.9 10.1 28.9 C 10.5 28.9 10.8 29 11.1 29.3 C 11.3 29.6 11.4 29.9 11.4 30.4 C 11.45 30.35 11.4 32.6 11.4 32.6 L 10.9 32.6 C 10.9 32.6 10.91 30.49 10.9 30.5 C 10.9 30.1 10.8 29.9 10.6 29.7 C 10.5 29.5 10.2 29.4 9.9 29.4 C 9.6 29.4 9.3 29.5 9.1 29.7 C 8.9 29.9 8.8 30.2 8.8 30.5 C 8.82 30.53 8.8 32.6 8.8 32.6 L 8.3 32.6 Z M 12.6 28.2 L 12.6 27.6 L 13.2 27.6 L 13.2 28.2 L 12.6 28.2 Z M 12.6 32.6 L 12.6 29 L 13.2 29 L 13.2 32.6 L 12.6 32.6 Z M 16.3 32.5 C 16.1 32.6 15.9 32.7 15.6 32.7 C 15.3 32.7 15.1 32.6 14.9 32.4 C 14.7 32.2 14.6 32 14.6 31.6 C 14.62 31.64 14.6 29.5 14.6 29.5 L 14.1 29.5 L 14.1 29 L 14.6 29 L 14.6 27.9 L 15.2 27.9 L 15.2 29 L 16.3 29 L 16.3 29.5 L 15.2 29.5 C 15.2 29.5 15.16 31.57 15.2 31.6 C 15.2 32 15.4 32.2 15.8 32.2 C 15.9 32.2 16.1 32.1 16.3 32 C 16.3 32.05 16.3 32.5 16.3 32.5 C 16.3 32.5 16.3 32.51 16.3 32.5 Z M 20.2 32 C 19.8 32.5 19.3 32.7 18.7 32.7 C 18.2 32.7 17.8 32.5 17.5 32.2 C 17.1 31.8 16.9 31.4 16.9 30.8 C 16.9 30.8 16.9 30.8 16.9 30.8 C 16.9 30.3 17.1 29.8 17.4 29.4 C 17.8 29.1 18.2 28.9 18.7 28.9 C 19.2 28.9 19.6 29.1 19.9 29.4 C 20.2 29.8 20.4 30.3 20.4 30.8 C 20.4 30.9 20.4 30.9 20.3 31 C 20.3 31 17.5 31 17.5 31 C 17.5 31.4 17.7 31.7 17.9 31.9 C 18.1 32.1 18.4 32.2 18.8 32.2 C 19.2 32.2 19.6 32 19.9 31.7 C 19.89 31.7 20.2 32 20.2 32 C 20.2 32 20.23 32 20.2 32 Z M 17.5 30.6 C 17.5 30.6 19.8 30.6 19.8 30.6 C 19.8 30.2 19.7 29.9 19.5 29.7 C 19.3 29.5 19 29.4 18.7 29.4 C 18.3 29.4 18.1 29.5 17.9 29.7 C 17.6 29.9 17.5 30.2 17.5 30.6 Z " stroke="none" fill="#000"/>  </g>  <g id="Polygon406889">    <path d="M 0.7 23.6 L 0.7 18.7 C 0.7 18.7 2.8 18.7 2.8 18.7 C 3.4 18.7 3.9 18.9 4.2 19.2 C 4.4 19.4 4.6 19.8 4.6 20.2 C 4.6 20.2 4.6 20.2 4.6 20.2 C 4.6 20.6 4.4 20.9 4.2 21.1 C 4 21.4 3.6 21.5 3.2 21.6 C 3.24 21.6 4.7 23.6 4.7 23.6 L 4.1 23.6 L 2.6 21.7 L 1.2 21.7 L 1.2 23.6 L 0.7 23.6 Z M 1.2 21.2 C 1.2 21.2 2.75 21.2 2.8 21.2 C 3.1 21.2 3.4 21.1 3.7 20.9 C 3.9 20.7 4 20.5 4 20.2 C 4 20.2 4 20.2 4 20.2 C 4 19.9 3.9 19.6 3.7 19.5 C 3.5 19.3 3.2 19.2 2.8 19.2 C 2.76 19.21 1.2 19.2 1.2 19.2 L 1.2 21.2 Z M 8.7 23 C 8.3 23.5 7.8 23.7 7.2 23.7 C 6.7 23.7 6.2 23.5 5.9 23.2 C 5.5 22.8 5.4 22.4 5.4 21.8 C 5.4 21.8 5.4 21.8 5.4 21.8 C 5.4 21.3 5.5 20.8 5.9 20.4 C 6.2 20.1 6.6 19.9 7.1 19.9 C 7.6 19.9 8 20.1 8.3 20.4 C 8.6 20.8 8.8 21.3 8.8 21.8 C 8.8 21.9 8.8 21.9 8.8 22 C 8.8 22 5.9 22 5.9 22 C 6 22.4 6.1 22.7 6.3 22.9 C 6.6 23.1 6.9 23.2 7.2 23.2 C 7.6 23.2 8 23 8.3 22.7 C 8.33 22.7 8.7 23 8.7 23 C 8.7 23 8.67 23 8.7 23 Z M 5.9 21.6 C 5.9 21.6 8.2 21.6 8.2 21.6 C 8.2 21.2 8.1 20.9 7.9 20.7 C 7.7 20.5 7.4 20.4 7.1 20.4 C 6.8 20.4 6.5 20.5 6.3 20.7 C 6.1 20.9 6 21.2 5.9 21.6 Z M 9.7 23.6 L 9.7 20 L 10.3 20 C 10.3 20 10.28 20.61 10.3 20.6 C 10.6 20.1 11 19.9 11.5 19.9 C 11.9 19.9 12.3 20 12.5 20.3 C 12.8 20.6 12.9 20.9 12.9 21.4 C 12.9 21.35 12.9 23.6 12.9 23.6 L 12.4 23.6 C 12.4 23.6 12.36 21.49 12.4 21.5 C 12.4 21.1 12.3 20.9 12.1 20.7 C 11.9 20.5 11.7 20.4 11.4 20.4 C 11 20.4 10.8 20.5 10.6 20.7 C 10.4 20.9 10.3 21.2 10.3 21.5 C 10.28 21.53 10.3 23.6 10.3 23.6 L 9.7 23.6 Z M 14 23.6 L 14 18.5 L 14.6 18.5 L 14.6 22 L 16.5 20 L 17.2 20 L 15.7 21.5 L 17.3 23.6 L 16.6 23.6 L 15.3 21.9 L 14.6 22.7 L 14.6 23.6 L 14 23.6 Z M 18 20.7 L 18 20 L 18.6 20 L 18.6 20.7 L 18 20.7 Z M 18 23.6 L 18 22.9 L 18.6 22.9 L 18.6 23.6 L 18 23.6 Z " stroke="none" fill="#000"/>  </g>  <g id="Polygon406888">    <path d="M 0.4 14.6 L 0.4 13.8 L 3.1 10.6 L 0.5 10.6 L 0.5 9.7 L 4.5 9.7 L 4.5 10.5 L 1.8 13.7 L 4.5 13.7 L 4.5 14.6 L 0.4 14.6 Z M 5.5 14.6 L 5.5 9.7 C 5.5 9.7 7.45 9.7 7.5 9.7 C 8.2 9.7 8.8 9.9 9.3 10.4 C 9.8 10.9 10.1 11.4 10.1 12.1 C 10.1 12.1 10.1 12.1 10.1 12.1 C 10.1 12.8 9.8 13.4 9.3 13.9 C 8.8 14.4 8.2 14.6 7.5 14.6 C 7.45 14.6 5.5 14.6 5.5 14.6 Z M 7.5 10.7 C 7.45 10.67 6.6 10.7 6.6 10.7 L 6.6 13.6 C 6.6 13.6 7.45 13.63 7.5 13.6 C 7.9 13.6 8.2 13.5 8.5 13.2 C 8.8 13 8.9 12.6 8.9 12.2 C 8.9 12.2 8.9 12.1 8.9 12.1 C 8.9 11.7 8.8 11.4 8.5 11.1 C 8.2 10.8 7.9 10.7 7.5 10.7 Z M 12.9 14.6 L 12.9 13.7 C 12.9 13.7 14.5 12.41 14.5 12.4 C 14.8 12.1 15 11.9 15.2 11.8 C 15.3 11.6 15.4 11.4 15.4 11.2 C 15.4 11 15.3 10.9 15.2 10.8 C 15.1 10.7 14.9 10.6 14.7 10.6 C 14.5 10.6 14.3 10.6 14.2 10.7 C 14.1 10.8 13.9 11 13.7 11.3 C 13.7 11.3 12.9 10.6 12.9 10.6 C 13.2 10.3 13.5 10 13.7 9.9 C 14 9.7 14.3 9.6 14.8 9.6 C 15.3 9.6 15.7 9.8 16 10 C 16.3 10.3 16.4 10.7 16.4 11.1 C 16.4 11.1 16.4 11.2 16.4 11.2 C 16.4 11.5 16.4 11.9 16.2 12.1 C 16 12.4 15.6 12.7 15.2 13.1 C 15.16 13.05 14.4 13.7 14.4 13.7 L 16.5 13.7 L 16.5 14.6 L 12.9 14.6 Z M 19.3 14.7 C 18.7 14.7 18.2 14.5 17.8 14.2 C 17.5 13.8 17.3 13.2 17.3 12.3 C 17.3 12.3 17.3 12.3 17.3 12.3 C 17.3 11.5 17.5 10.9 17.8 10.4 C 18.2 9.9 18.7 9.6 19.4 9.6 C 20 9.6 20.5 9.8 21 10.2 C 21 10.2 20.4 11 20.4 11 C 20.2 10.9 20.1 10.8 19.9 10.7 C 19.8 10.6 19.6 10.6 19.4 10.6 C 19.2 10.6 19.1 10.6 18.9 10.7 C 18.8 10.8 18.7 10.9 18.6 11 C 18.6 11.1 18.5 11.3 18.5 11.4 C 18.4 11.5 18.4 11.6 18.4 11.7 C 18.7 11.5 19 11.4 19.4 11.4 C 19.9 11.4 20.3 11.6 20.6 11.8 C 21 12.1 21.1 12.5 21.1 13 C 21.1 13 21.1 13 21.1 13 C 21.1 13.5 21 13.9 20.6 14.2 C 20.2 14.5 19.8 14.7 19.3 14.7 Z M 18.4 13 C 18.4 13.2 18.4 13.4 18.6 13.6 C 18.8 13.7 19 13.8 19.2 13.8 C 19.5 13.8 19.7 13.7 19.8 13.6 C 20 13.4 20.1 13.3 20.1 13 C 20.1 13 20.1 13 20.1 13 C 20.1 12.8 20 12.6 19.8 12.5 C 19.7 12.4 19.5 12.3 19.2 12.3 C 18.9 12.3 18.7 12.4 18.6 12.5 C 18.4 12.6 18.4 12.8 18.4 13 C 18.37 13.02 18.4 13 18.4 13 C 18.4 13 18.37 13.03 18.4 13 Z M 23.7 14.7 C 23 14.7 22.3 14.4 21.8 13.9 C 21.8 13.9 22.5 13.2 22.5 13.2 C 22.9 13.5 23.3 13.7 23.6 13.7 C 23.9 13.7 24.1 13.6 24.2 13.5 C 24.4 13.4 24.5 13.2 24.5 13 C 24.5 13 24.5 13 24.5 13 C 24.5 12.8 24.4 12.6 24.2 12.5 C 24.1 12.4 23.9 12.3 23.6 12.3 C 23.3 12.3 23 12.4 22.8 12.5 C 22.78 12.53 22.2 12.1 22.2 12.1 L 22.3 9.7 L 25.3 9.7 L 25.3 10.6 L 23.2 10.6 C 23.2 10.6 23.16 11.49 23.2 11.5 C 23.4 11.4 23.6 11.4 23.8 11.4 C 24.3 11.4 24.7 11.5 25 11.8 C 25.4 12.1 25.5 12.5 25.5 13 C 25.5 13 25.5 13 25.5 13 C 25.5 13.5 25.4 13.9 25 14.2 C 24.7 14.5 24.2 14.7 23.7 14.7 Z M 26.2 14.6 L 26.2 13.7 C 26.2 13.7 27.84 12.41 27.8 12.4 C 28.2 12.1 28.4 11.9 28.5 11.8 C 28.6 11.6 28.7 11.4 28.7 11.2 C 28.7 11 28.6 10.9 28.5 10.8 C 28.4 10.7 28.2 10.6 28 10.6 C 27.8 10.6 27.7 10.6 27.5 10.7 C 27.4 10.8 27.2 11 27 11.3 C 27 11.3 26.3 10.6 26.3 10.6 C 26.5 10.3 26.8 10 27.1 9.9 C 27.3 9.7 27.7 9.6 28.1 9.6 C 28.6 9.6 29 9.8 29.3 10 C 29.6 10.3 29.8 10.7 29.8 11.1 C 29.8 11.1 29.8 11.2 29.8 11.2 C 29.8 11.5 29.7 11.9 29.5 12.1 C 29.3 12.4 29 12.7 28.5 13.1 C 28.5 13.05 27.7 13.7 27.7 13.7 L 29.8 13.7 L 29.8 14.6 L 26.2 14.6 Z M 32.4 14.7 C 31.7 14.7 31 14.4 30.5 13.9 C 30.5 13.9 31.2 13.2 31.2 13.2 C 31.6 13.5 32 13.7 32.3 13.7 C 32.6 13.7 32.8 13.6 32.9 13.5 C 33.1 13.4 33.2 13.2 33.2 13 C 33.2 13 33.2 13 33.2 13 C 33.2 12.8 33.1 12.6 32.9 12.5 C 32.8 12.4 32.6 12.3 32.3 12.3 C 32 12.3 31.7 12.4 31.5 12.5 C 31.48 12.53 30.9 12.1 30.9 12.1 L 31 9.7 L 34 9.7 L 34 10.6 L 31.9 10.6 C 31.9 10.6 31.86 11.49 31.9 11.5 C 32.1 11.4 32.3 11.4 32.5 11.4 C 33 11.4 33.4 11.5 33.7 11.8 C 34.1 12.1 34.2 12.5 34.2 13 C 34.2 13 34.2 13 34.2 13 C 34.2 13.5 34.1 13.9 33.7 14.2 C 33.4 14.5 32.9 14.7 32.4 14.7 Z " stroke="none" fill="#000"/>  </g>  <g id="Polygon406887">    <path d="M 3 0.3 L 3 -0.4 L 3.6 -0.4 L 3.6 0.3 L 3 0.3 Z M 1.7 0.3 L 1.7 -0.4 L 2.3 -0.4 L 2.3 0.3 L 1.7 0.3 Z M 2.7 5.7 C 2 5.7 1.5 5.5 1.2 5.1 C 0.8 4.7 0.6 4.2 0.6 3.5 C 0.62 3.55 0.6 0.7 0.6 0.7 L 1.2 0.7 C 1.2 0.7 1.17 3.51 1.2 3.5 C 1.2 4 1.3 4.4 1.6 4.7 C 1.8 5 2.2 5.2 2.7 5.2 C 3.1 5.2 3.5 5 3.8 4.8 C 4 4.5 4.1 4.1 4.1 3.5 C 4.14 3.55 4.1 0.7 4.1 0.7 L 4.7 0.7 C 4.7 0.7 4.7 3.51 4.7 3.5 C 4.7 4.2 4.5 4.7 4.1 5.1 C 3.8 5.5 3.3 5.7 2.7 5.7 Z M 5.9 5.6 L 5.9 2 L 6.5 2 C 6.5 2 6.45 2.93 6.5 2.9 C 6.6 2.6 6.8 2.4 7 2.2 C 7.3 2 7.6 1.9 7.9 1.9 C 7.93 1.92 7.9 2.5 7.9 2.5 C 7.9 2.5 7.89 2.5 7.9 2.5 C 7.5 2.5 7.1 2.6 6.9 2.9 C 6.6 3.2 6.5 3.6 6.5 4.2 C 6.45 4.16 6.5 5.6 6.5 5.6 L 5.9 5.6 Z M 10.6 1.4 L 10.6 0.8 L 11.2 0.8 L 11.2 1.4 L 10.6 1.4 Z M 9.3 1.4 L 9.3 0.8 L 10 0.8 L 10 1.4 L 9.3 1.4 Z M 11.3 5 C 11 5.4 10.6 5.7 10.1 5.7 C 9.7 5.7 9.3 5.5 9.1 5.3 C 8.8 5 8.7 4.7 8.7 4.2 C 8.69 4.23 8.7 2 8.7 2 L 9.2 2 C 9.2 2 9.23 4.09 9.2 4.1 C 9.2 4.4 9.3 4.7 9.5 4.9 C 9.7 5.1 9.9 5.2 10.2 5.2 C 10.5 5.2 10.8 5.1 11 4.9 C 11.2 4.7 11.3 4.4 11.3 4.1 C 11.32 4.05 11.3 2 11.3 2 L 11.9 2 L 11.9 5.6 L 11.3 5.6 L 11.3 5 C 11.3 5 11.32 4.97 11.3 5 Z M 13.1 5.6 L 13.1 2 L 13.6 2 C 13.6 2 13.6 2.61 13.6 2.6 C 13.9 2.1 14.3 1.9 14.8 1.9 C 15.3 1.9 15.6 2 15.9 2.3 C 16.1 2.6 16.2 2.9 16.2 3.4 C 16.23 3.35 16.2 5.6 16.2 5.6 L 15.7 5.6 C 15.7 5.6 15.69 3.49 15.7 3.5 C 15.7 3.1 15.6 2.9 15.4 2.7 C 15.2 2.5 15 2.4 14.7 2.4 C 14.4 2.4 14.1 2.5 13.9 2.7 C 13.7 2.9 13.6 3.2 13.6 3.5 C 13.6 3.53 13.6 5.6 13.6 5.6 L 13.1 5.6 Z M 19.6 5.6 L 19.6 0.7 L 20.1 0.7 L 20.1 3.6 L 22.9 0.7 L 23.7 0.7 L 21.5 2.8 L 23.7 5.6 L 23 5.6 L 21.2 3.2 L 20.1 4.3 L 20.1 5.6 L 19.6 5.6 Z M 25.9 5.7 C 25.4 5.7 25 5.5 24.6 5.1 C 24.3 4.8 24.1 4.3 24.1 3.8 C 24.1 3.8 24.1 3.8 24.1 3.8 C 24.1 3.3 24.3 2.8 24.6 2.5 C 25 2.1 25.4 1.9 26 1.9 C 26.5 1.9 26.9 2.1 27.3 2.5 C 27.7 2.8 27.8 3.3 27.8 3.8 C 27.8 3.8 27.8 3.8 27.8 3.8 C 27.8 4.3 27.7 4.8 27.3 5.1 C 26.9 5.5 26.5 5.7 25.9 5.7 Z M 26 5.2 C 26.3 5.2 26.7 5.1 26.9 4.8 C 27.2 4.5 27.3 4.2 27.3 3.8 C 27.3 3.8 27.3 3.8 27.3 3.8 C 27.3 3.4 27.2 3.1 26.9 2.8 C 26.6 2.5 26.3 2.4 25.9 2.4 C 25.6 2.4 25.2 2.5 25 2.8 C 24.8 3.1 24.6 3.4 24.6 3.8 C 24.6 3.8 24.6 3.8 24.6 3.8 C 24.6 4.2 24.8 4.5 25 4.8 C 25.3 5.1 25.6 5.2 26 5.2 Z M 31.7 4.9 C 31.4 5.4 30.9 5.7 30.3 5.7 C 29.9 5.7 29.5 5.5 29.1 5.2 C 28.8 4.8 28.6 4.4 28.6 3.8 C 28.6 3.8 28.6 3.8 28.6 3.8 C 28.6 3.2 28.8 2.8 29.1 2.4 C 29.5 2.1 29.9 1.9 30.3 1.9 C 30.9 1.9 31.4 2.2 31.7 2.7 C 31.72 2.67 31.7 0.5 31.7 0.5 L 32.3 0.5 L 32.3 5.6 L 31.7 5.6 L 31.7 4.9 C 31.7 4.9 31.72 4.87 31.7 4.9 Z M 30.4 5.2 C 30.8 5.2 31.1 5.1 31.4 4.8 C 31.6 4.5 31.7 4.2 31.7 3.8 C 31.7 3.8 31.7 3.8 31.7 3.8 C 31.7 3.4 31.6 3 31.4 2.8 C 31.1 2.5 30.8 2.4 30.4 2.4 C 30.1 2.4 29.8 2.5 29.5 2.8 C 29.3 3 29.2 3.4 29.2 3.8 C 29.2 3.8 29.2 3.8 29.2 3.8 C 29.2 4.2 29.3 4.6 29.5 4.8 C 29.8 5.1 30.1 5.2 30.4 5.2 Z M 36 5 C 35.7 5.4 35.3 5.7 34.8 5.7 C 34.4 5.7 34 5.5 33.8 5.3 C 33.5 5 33.4 4.7 33.4 4.2 C 33.41 4.23 33.4 2 33.4 2 L 33.9 2 C 33.9 2 33.95 4.09 33.9 4.1 C 33.9 4.4 34 4.7 34.2 4.9 C 34.4 5.1 34.6 5.2 35 5.2 C 35.3 5.2 35.5 5.1 35.7 4.9 C 35.9 4.7 36 4.4 36 4.1 C 36.04 4.05 36 2 36 2 L 36.6 2 L 36.6 5.6 L 36 5.6 L 36 5 C 36 5 36.04 4.97 36 5 Z M 37.7 2.7 L 37.7 2 L 38.4 2 L 38.4 2.7 L 37.7 2.7 Z M 37.7 5.6 L 37.7 4.9 L 38.4 4.9 L 38.4 5.6 L 37.7 5.6 Z " stroke="none" fill="#000"/>  </g></svg>