<?xml version="1.0" standalone="no"?><!DOCTYPE svg PUBLIC "-//W3C//DTD SVG 1.1//EN" "http://www.w3.org/Graphics/SVG/1.1/DTD/svg11.dtd"><svg xmlns="http://www.w3.org/2000/svg" version="1.1" width="69.5px" height="20.5px" viewBox="0 -1 69.5 20.5" style="top:-1px">  <desc>₺2.921,03</desc>  <defs/>  <g id="Polygon423744">    <path d="M 2.3 4.8 L 2.3 11.9 L 1.4 11.9 L 1.4 4.8 L 2.3 4.8 Z M 4.2 8.2 L 5.1 8.2 C 5.1 8.2 5.13 8.58 5.1 8.6 C 5.1 9.1 5.1 9.6 4.9 10 C 4.8 10.4 4.6 10.8 4.4 11.1 C 4.1 11.4 3.8 11.6 3.4 11.8 C 3.1 11.9 2.7 12 2.3 12 C 2.1 12 2 12 1.8 12 C 1.7 12 1.5 11.9 1.4 11.9 C 1.4 11.9 2.3 11.2 2.3 11.2 C 2.6 11.2 2.9 11.2 3.1 11 C 3.3 10.9 3.5 10.8 3.7 10.5 C 3.9 10.3 4 10 4.1 9.7 C 4.2 9.4 4.2 9 4.2 8.6 C 4.2 8.58 4.2 8.2 4.2 8.2 Z M 3.5 5.5 L 3.5 6.4 L 0.2 7.9 L 0.2 7 L 3.5 5.5 Z M 3.5 7.1 L 3.5 8 L 0.2 9.5 L 0.2 8.6 L 3.5 7.1 Z M 10.8 11.2 L 10.8 11.9 L 6.2 11.9 L 6.2 11.3 C 6.2 11.3 8.49 8.67 8.5 8.7 C 8.8 8.4 9 8.1 9.2 7.9 C 9.3 7.6 9.4 7.4 9.5 7.3 C 9.6 7.1 9.6 6.9 9.6 6.7 C 9.6 6.5 9.5 6.3 9.4 6.1 C 9.3 5.9 9.2 5.7 9 5.6 C 8.8 5.5 8.6 5.5 8.3 5.5 C 8 5.5 7.8 5.5 7.6 5.6 C 7.3 5.8 7.2 5.9 7.1 6.1 C 7 6.4 6.9 6.6 6.9 6.9 C 6.9 6.9 6 6.9 6 6.9 C 6 6.5 6.1 6.1 6.3 5.8 C 6.5 5.5 6.7 5.2 7.1 5 C 7.4 4.8 7.8 4.7 8.3 4.7 C 8.8 4.7 9.2 4.8 9.5 4.9 C 9.8 5.1 10.1 5.3 10.2 5.6 C 10.4 5.9 10.5 6.2 10.5 6.6 C 10.5 6.8 10.5 7 10.4 7.2 C 10.3 7.5 10.2 7.7 10.1 7.9 C 10 8.1 9.8 8.3 9.7 8.5 C 9.5 8.7 9.3 8.9 9.2 9.1 C 9.16 9.11 7.3 11.2 7.3 11.2 L 10.8 11.2 Z M 11.9 11.4 C 11.9 11.3 11.9 11.2 12 11 C 12.1 10.9 12.3 10.9 12.5 10.9 C 12.6 10.9 12.8 10.9 12.9 11 C 13 11.2 13 11.3 13 11.4 C 13 11.6 13 11.7 12.9 11.8 C 12.8 11.9 12.6 12 12.5 12 C 12.3 12 12.1 11.9 12 11.8 C 11.9 11.7 11.9 11.6 11.9 11.4 Z M 15.3 11.2 C 15.3 11.2 15.41 11.16 15.4 11.2 C 15.9 11.2 16.3 11.1 16.7 10.9 C 17 10.8 17.3 10.6 17.4 10.3 C 17.6 10.1 17.7 9.8 17.8 9.5 C 17.9 9.2 17.9 8.9 17.9 8.6 C 17.9 8.6 17.9 7.5 17.9 7.5 C 17.9 7.1 17.8 6.9 17.8 6.6 C 17.7 6.4 17.6 6.1 17.5 6 C 17.3 5.8 17.2 5.7 17 5.6 C 16.9 5.5 16.7 5.5 16.5 5.5 C 16.3 5.5 16.1 5.5 16 5.6 C 15.8 5.7 15.7 5.8 15.5 5.9 C 15.4 6.1 15.3 6.3 15.3 6.5 C 15.2 6.7 15.2 6.9 15.2 7.1 C 15.2 7.3 15.2 7.5 15.3 7.7 C 15.3 7.9 15.4 8.1 15.5 8.3 C 15.6 8.4 15.8 8.6 15.9 8.6 C 16.1 8.7 16.3 8.8 16.5 8.8 C 16.7 8.8 16.9 8.7 17.1 8.7 C 17.2 8.6 17.4 8.5 17.5 8.3 C 17.7 8.2 17.8 8 17.9 7.9 C 17.9 7.7 18 7.5 18 7.3 C 18 7.3 18.4 7.3 18.4 7.3 C 18.4 7.6 18.4 7.9 18.3 8.1 C 18.2 8.4 18 8.6 17.8 8.8 C 17.6 9 17.4 9.2 17.2 9.3 C 16.9 9.5 16.6 9.5 16.3 9.5 C 16 9.5 15.7 9.5 15.4 9.3 C 15.2 9.2 15 9 14.8 8.8 C 14.6 8.6 14.5 8.3 14.4 8 C 14.4 7.7 14.3 7.5 14.3 7.2 C 14.3 6.8 14.4 6.5 14.5 6.2 C 14.5 5.9 14.7 5.7 14.9 5.4 C 15.1 5.2 15.3 5 15.6 4.9 C 15.8 4.8 16.2 4.7 16.5 4.7 C 16.9 4.7 17.3 4.8 17.6 5 C 17.8 5.1 18.1 5.3 18.3 5.6 C 18.4 5.9 18.6 6.2 18.7 6.5 C 18.7 6.9 18.8 7.2 18.8 7.6 C 18.8 7.6 18.8 7.9 18.8 7.9 C 18.8 8.3 18.8 8.7 18.7 9 C 18.7 9.4 18.6 9.8 18.4 10.1 C 18.3 10.5 18.1 10.8 17.9 11 C 17.6 11.3 17.3 11.5 16.9 11.7 C 16.5 11.8 16 11.9 15.4 11.9 C 15.41 11.93 15.3 11.9 15.3 11.9 L 15.3 11.2 Z M 24.7 11.2 L 24.7 11.9 L 20 11.9 L 20 11.3 C 20 11.3 22.37 8.67 22.4 8.7 C 22.7 8.4 22.9 8.1 23 7.9 C 23.2 7.6 23.3 7.4 23.4 7.3 C 23.4 7.1 23.5 6.9 23.5 6.7 C 23.5 6.5 23.4 6.3 23.3 6.1 C 23.2 5.9 23.1 5.7 22.9 5.6 C 22.7 5.5 22.5 5.5 22.2 5.5 C 21.9 5.5 21.6 5.5 21.4 5.6 C 21.2 5.8 21.1 5.9 21 6.1 C 20.9 6.4 20.8 6.6 20.8 6.9 C 20.8 6.9 19.9 6.9 19.9 6.9 C 19.9 6.5 20 6.1 20.2 5.8 C 20.3 5.5 20.6 5.2 20.9 5 C 21.3 4.8 21.7 4.7 22.2 4.7 C 22.7 4.7 23.1 4.8 23.4 4.9 C 23.7 5.1 23.9 5.3 24.1 5.6 C 24.3 5.9 24.4 6.2 24.4 6.6 C 24.4 6.8 24.3 7 24.3 7.2 C 24.2 7.5 24.1 7.7 24 7.9 C 23.9 8.1 23.7 8.3 23.5 8.5 C 23.4 8.7 23.2 8.9 23 9.1 C 23.03 9.11 21.1 11.2 21.1 11.2 L 24.7 11.2 Z M 28.6 4.8 L 28.6 11.9 L 27.7 11.9 L 27.7 5.9 L 25.9 6.6 L 25.9 5.7 L 28.5 4.8 L 28.6 4.8 Z M 32.2 10.8 C 32.2 10.8 32.19 11.57 32.2 11.6 C 32.2 11.9 32.1 12.2 32 12.5 C 31.8 12.8 31.6 13.1 31.3 13.3 C 31.3 13.3 30.8 13 30.8 13 C 30.9 12.8 31 12.7 31.1 12.5 C 31.2 12.4 31.2 12.2 31.3 12.1 C 31.3 11.9 31.3 11.8 31.3 11.6 C 31.31 11.58 31.3 10.8 31.3 10.8 L 32.2 10.8 Z M 37.7 7.8 C 37.7 7.8 37.7 8.9 37.7 8.9 C 37.7 9.5 37.7 10 37.5 10.4 C 37.4 10.8 37.3 11.1 37.1 11.3 C 36.9 11.6 36.7 11.7 36.4 11.8 C 36.1 12 35.8 12 35.5 12 C 35.2 12 34.9 12 34.7 11.9 C 34.5 11.8 34.3 11.7 34.1 11.6 C 33.9 11.4 33.7 11.2 33.6 11 C 33.5 10.7 33.4 10.4 33.3 10.1 C 33.2 9.8 33.2 9.3 33.2 8.9 C 33.2 8.9 33.2 7.8 33.2 7.8 C 33.2 7.2 33.3 6.7 33.4 6.3 C 33.5 5.9 33.6 5.6 33.8 5.4 C 34 5.1 34.3 5 34.5 4.9 C 34.8 4.8 35.1 4.7 35.5 4.7 C 35.7 4.7 36 4.7 36.2 4.8 C 36.5 4.9 36.7 5 36.8 5.1 C 37 5.3 37.2 5.5 37.3 5.7 C 37.4 5.9 37.5 6.2 37.6 6.6 C 37.7 6.9 37.7 7.3 37.7 7.8 Z M 36.8 9 C 36.8 9 36.8 7.6 36.8 7.6 C 36.8 7.3 36.8 7 36.7 6.8 C 36.7 6.6 36.6 6.4 36.6 6.2 C 36.5 6 36.4 5.9 36.3 5.8 C 36.2 5.7 36.1 5.6 35.9 5.5 C 35.8 5.5 35.6 5.4 35.5 5.4 C 35.2 5.4 35 5.5 34.9 5.6 C 34.7 5.6 34.6 5.8 34.5 5.9 C 34.4 6.1 34.3 6.3 34.2 6.6 C 34.2 6.9 34.1 7.2 34.1 7.6 C 34.1 7.6 34.1 9 34.1 9 C 34.1 9.3 34.1 9.6 34.2 9.9 C 34.2 10.1 34.3 10.3 34.3 10.5 C 34.4 10.7 34.5 10.8 34.6 10.9 C 34.7 11.1 34.9 11.1 35 11.2 C 35.1 11.2 35.3 11.3 35.5 11.3 C 35.7 11.3 35.9 11.2 36 11.1 C 36.2 11.1 36.4 10.9 36.5 10.7 C 36.6 10.6 36.7 10.3 36.7 10 C 36.8 9.8 36.8 9.4 36.8 9 Z M 40.2 7.9 C 40.2 7.9 40.83 7.92 40.8 7.9 C 41.1 7.9 41.4 7.9 41.6 7.8 C 41.8 7.7 42 7.5 42.1 7.3 C 42.2 7.1 42.2 6.9 42.2 6.7 C 42.2 6.4 42.2 6.2 42.1 6 C 42 5.8 41.9 5.7 41.7 5.6 C 41.5 5.5 41.3 5.5 41 5.5 C 40.7 5.5 40.5 5.5 40.3 5.6 C 40.1 5.7 40 5.8 39.9 6 C 39.8 6.2 39.7 6.4 39.7 6.7 C 39.7 6.7 38.8 6.7 38.8 6.7 C 38.8 6.3 38.9 6 39.1 5.7 C 39.2 5.4 39.5 5.1 39.8 5 C 40.2 4.8 40.6 4.7 41 4.7 C 41.4 4.7 41.8 4.8 42.1 4.9 C 42.4 5.1 42.7 5.3 42.9 5.6 C 43 5.9 43.1 6.3 43.1 6.7 C 43.1 6.9 43.1 7.1 43 7.3 C 42.9 7.5 42.8 7.7 42.6 7.9 C 42.5 8 42.2 8.2 41.9 8.3 C 41.7 8.4 41.3 8.5 41 8.5 C 40.95 8.46 40.2 8.5 40.2 8.5 L 40.2 7.9 Z M 40.2 8.7 L 40.2 8.1 C 40.2 8.1 40.95 8.12 41 8.1 C 41.4 8.1 41.8 8.2 42.1 8.3 C 42.4 8.4 42.6 8.5 42.8 8.7 C 42.9 8.9 43.1 9.1 43.1 9.3 C 43.2 9.5 43.2 9.7 43.2 9.9 C 43.2 10.3 43.2 10.6 43.1 10.8 C 43 11.1 42.8 11.3 42.6 11.5 C 42.4 11.7 42.2 11.8 41.9 11.9 C 41.6 12 41.3 12 41 12 C 40.7 12 40.4 12 40.1 11.9 C 39.8 11.8 39.6 11.7 39.4 11.5 C 39.2 11.3 39 11.1 38.9 10.9 C 38.8 10.6 38.7 10.4 38.7 10 C 38.7 10 39.6 10 39.6 10 C 39.6 10.3 39.7 10.5 39.8 10.7 C 39.9 10.9 40.1 11 40.3 11.1 C 40.5 11.2 40.7 11.3 41 11.3 C 41.3 11.3 41.5 11.2 41.7 11.1 C 41.9 11 42.1 10.9 42.2 10.7 C 42.3 10.5 42.3 10.2 42.3 10 C 42.3 9.7 42.3 9.4 42.1 9.2 C 42 9 41.8 8.9 41.6 8.8 C 41.4 8.7 41.1 8.7 40.8 8.7 C 40.83 8.66 40.2 8.7 40.2 8.7 Z " stroke="none" fill="#000"/>  </g></svg>