<?xml version="1.0" standalone="no"?><!DOCTYPE svg PUBLIC "-//W3C//DTD SVG 1.1//EN" "http://www.w3.org/Graphics/SVG/1.1/DTD/svg11.dtd"><svg xmlns="http://www.w3.org/2000/svg" version="1.1" width="295.1px" height="25.4px" viewBox="0 -3 295.1 25.4" style="top:-3px">  <desc>Di F r al k – Ume Malzeme: Stoneware / Soft Touch | l ler: D 8,3 cm, H 10,3 cm | Tasar m: VE2</desc>  <defs/>  <g id="Polygon399531">    <path d="M 0.7 15.6 L 0.7 10.7 L 1.3 10.7 L 3 13.4 L 4.8 10.7 L 5.4 10.7 L 5.4 15.6 L 4.8 15.6 L 4.8 11.6 L 3 14.3 L 3 14.3 L 1.2 11.6 L 1.2 15.6 L 0.7 15.6 Z M 9.1 15.1 C 8.7 15.5 8.3 15.7 7.8 15.7 C 7.4 15.7 7.1 15.6 6.8 15.4 C 6.5 15.2 6.4 14.9 6.4 14.5 C 6.4 14.5 6.4 14.5 6.4 14.5 C 6.4 14.2 6.5 13.9 6.8 13.7 C 7.1 13.5 7.5 13.4 8 13.4 C 8.3 13.4 8.7 13.4 9.1 13.5 C 9.1 13.5 9.1 13.4 9.1 13.4 C 9.1 13.1 9 12.8 8.8 12.7 C 8.6 12.5 8.3 12.4 8 12.4 C 7.6 12.4 7.3 12.5 6.9 12.7 C 6.9 12.7 6.7 12.2 6.7 12.2 C 7.2 12 7.6 11.9 8 11.9 C 8.6 11.9 8.9 12.1 9.2 12.3 C 9.5 12.6 9.6 12.9 9.6 13.4 C 9.58 13.39 9.6 15.6 9.6 15.6 L 9.1 15.6 L 9.1 15.1 C 9.1 15.1 9.06 15.05 9.1 15.1 Z M 7.9 15.2 C 8.2 15.2 8.5 15.2 8.7 15 C 9 14.8 9.1 14.6 9.1 14.3 C 9.1 14.3 9.1 13.9 9.1 13.9 C 8.7 13.8 8.4 13.8 8 13.8 C 7.7 13.8 7.4 13.8 7.2 14 C 7 14.1 7 14.3 7 14.5 C 7 14.5 7 14.5 7 14.5 C 7 14.7 7 14.9 7.2 15.1 C 7.4 15.2 7.6 15.2 7.9 15.2 Z M 10.8 15.6 L 10.8 10.5 L 11.3 10.5 L 11.3 15.6 L 10.8 15.6 Z M 12.4 15.6 L 12.4 15.3 L 14.8 12.4 L 12.4 12.4 L 12.4 12 L 15.5 12 L 15.5 12.3 L 13.1 15.1 L 15.5 15.1 L 15.5 15.6 L 12.4 15.6 Z M 19.4 15 C 19 15.5 18.5 15.7 17.9 15.7 C 17.4 15.7 17 15.5 16.7 15.2 C 16.3 14.8 16.1 14.4 16.1 13.8 C 16.1 13.8 16.1 13.8 16.1 13.8 C 16.1 13.3 16.3 12.8 16.6 12.4 C 17 12.1 17.4 11.9 17.9 11.9 C 18.4 11.9 18.8 12.1 19.1 12.4 C 19.4 12.8 19.6 13.3 19.6 13.8 C 19.6 13.9 19.6 13.9 19.6 14 C 19.6 14 16.7 14 16.7 14 C 16.7 14.4 16.9 14.7 17.1 14.9 C 17.3 15.1 17.6 15.2 18 15.2 C 18.4 15.2 18.8 15 19.1 14.7 C 19.1 14.7 19.4 15 19.4 15 C 19.4 15 19.43 15 19.4 15 Z M 16.7 13.6 C 16.7 13.6 19 13.6 19 13.6 C 19 13.2 18.9 12.9 18.7 12.7 C 18.5 12.5 18.2 12.4 17.9 12.4 C 17.5 12.4 17.3 12.5 17.1 12.7 C 16.8 12.9 16.7 13.2 16.7 13.6 Z M 20.5 15.6 L 20.5 12 L 21 12 C 21 12 21.04 12.59 21 12.6 C 21.2 12.4 21.3 12.2 21.5 12.1 C 21.7 12 21.9 11.9 22.2 11.9 C 22.8 11.9 23.1 12.1 23.4 12.6 C 23.7 12.1 24.1 11.9 24.6 11.9 C 25.1 11.9 25.4 12 25.6 12.3 C 25.9 12.6 26 12.9 26 13.4 C 25.99 13.36 26 15.6 26 15.6 L 25.5 15.6 C 25.5 15.6 25.45 13.49 25.5 13.5 C 25.5 13.1 25.4 12.9 25.2 12.7 C 25 12.5 24.8 12.4 24.5 12.4 C 24.2 12.4 24 12.5 23.8 12.7 C 23.6 12.9 23.5 13.2 23.5 13.5 C 23.51 13.51 23.5 15.6 23.5 15.6 L 23 15.6 C 23 15.6 22.98 13.47 23 13.5 C 23 13.1 22.9 12.9 22.7 12.7 C 22.6 12.5 22.3 12.4 22 12.4 C 21.8 12.4 21.5 12.5 21.3 12.7 C 21.1 12.9 21 13.2 21 13.5 C 21.04 13.53 21 15.6 21 15.6 L 20.5 15.6 Z M 30.2 15 C 29.8 15.5 29.3 15.7 28.7 15.7 C 28.2 15.7 27.8 15.5 27.4 15.2 C 27.1 14.8 26.9 14.4 26.9 13.8 C 26.9 13.8 26.9 13.8 26.9 13.8 C 26.9 13.3 27.1 12.8 27.4 12.4 C 27.7 12.1 28.2 11.9 28.7 11.9 C 29.2 11.9 29.6 12.1 29.9 12.4 C 30.2 12.8 30.3 13.3 30.3 13.8 C 30.3 13.9 30.3 13.9 30.3 14 C 30.3 14 27.5 14 27.5 14 C 27.5 14.4 27.6 14.7 27.9 14.9 C 28.1 15.1 28.4 15.2 28.7 15.2 C 29.2 15.2 29.5 15 29.9 14.7 C 29.88 14.7 30.2 15 30.2 15 C 30.2 15 30.21 15 30.2 15 Z M 27.5 13.6 C 27.5 13.6 29.8 13.6 29.8 13.6 C 29.8 13.2 29.7 12.9 29.5 12.7 C 29.3 12.5 29 12.4 28.6 12.4 C 28.3 12.4 28.1 12.5 27.8 12.7 C 27.6 12.9 27.5 13.2 27.5 13.6 Z M 31.2 12.7 L 31.2 12 L 31.9 12 L 31.9 12.7 L 31.2 12.7 Z M 31.2 15.6 L 31.2 14.9 L 31.9 14.9 L 31.9 15.6 L 31.2 15.6 Z M 36.9 15.7 C 36.2 15.7 35.5 15.4 34.9 14.9 C 34.9 14.9 35.3 14.5 35.3 14.5 C 35.5 14.7 35.8 14.9 36.1 15 C 36.3 15.1 36.6 15.2 37 15.2 C 37.3 15.2 37.5 15.1 37.7 14.9 C 37.9 14.8 38 14.6 38 14.3 C 38 14.3 38 14.3 38 14.3 C 38 14.1 38 13.9 37.8 13.8 C 37.6 13.6 37.3 13.5 36.8 13.4 C 36.2 13.3 35.8 13.1 35.5 12.9 C 35.3 12.7 35.1 12.4 35.1 12 C 35.1 12 35.1 12 35.1 12 C 35.1 11.6 35.3 11.3 35.6 11 C 35.9 10.8 36.3 10.6 36.7 10.6 C 37.1 10.6 37.4 10.7 37.7 10.8 C 37.9 10.9 38.2 11 38.5 11.2 C 38.5 11.2 38.1 11.7 38.1 11.7 C 37.7 11.3 37.2 11.1 36.7 11.1 C 36.4 11.1 36.2 11.2 36 11.4 C 35.8 11.5 35.7 11.7 35.7 11.9 C 35.7 11.9 35.7 11.9 35.7 11.9 C 35.7 12.2 35.8 12.4 36 12.5 C 36.1 12.7 36.5 12.8 37 12.9 C 37.6 13 38 13.2 38.2 13.4 C 38.5 13.6 38.6 13.9 38.6 14.3 C 38.6 14.3 38.6 14.3 38.6 14.3 C 38.6 14.7 38.4 15 38.1 15.3 C 37.8 15.5 37.4 15.7 36.9 15.7 Z M 41.5 15.5 C 41.3 15.6 41.1 15.7 40.8 15.7 C 40.5 15.7 40.3 15.6 40.1 15.4 C 39.9 15.2 39.8 15 39.8 14.6 C 39.79 14.64 39.8 12.5 39.8 12.5 L 39.3 12.5 L 39.3 12 L 39.8 12 L 39.8 10.9 L 40.3 10.9 L 40.3 12 L 41.5 12 L 41.5 12.5 L 40.3 12.5 C 40.3 12.5 40.33 14.57 40.3 14.6 C 40.3 15 40.5 15.2 40.9 15.2 C 41.1 15.2 41.3 15.1 41.5 15 C 41.47 15.05 41.5 15.5 41.5 15.5 C 41.5 15.5 41.47 15.51 41.5 15.5 Z M 44 15.7 C 43.4 15.7 43 15.5 42.6 15.1 C 42.3 14.8 42.1 14.3 42.1 13.8 C 42.1 13.8 42.1 13.8 42.1 13.8 C 42.1 13.3 42.3 12.8 42.6 12.5 C 43 12.1 43.5 11.9 44 11.9 C 44.5 11.9 45 12.1 45.3 12.5 C 45.7 12.8 45.9 13.3 45.9 13.8 C 45.9 13.8 45.9 13.8 45.9 13.8 C 45.9 14.3 45.7 14.8 45.3 15.1 C 45 15.5 44.5 15.7 44 15.7 Z M 44 15.2 C 44.4 15.2 44.7 15.1 44.9 14.8 C 45.2 14.5 45.3 14.2 45.3 13.8 C 45.3 13.8 45.3 13.8 45.3 13.8 C 45.3 13.4 45.2 13.1 44.9 12.8 C 44.7 12.5 44.4 12.4 44 12.4 C 43.6 12.4 43.3 12.5 43 12.8 C 42.8 13.1 42.7 13.4 42.7 13.8 C 42.7 13.8 42.7 13.8 42.7 13.8 C 42.7 14.2 42.8 14.5 43 14.8 C 43.3 15.1 43.6 15.2 44 15.2 Z M 46.9 15.6 L 46.9 12 L 47.4 12 C 47.4 12 47.39 12.61 47.4 12.6 C 47.7 12.1 48.1 11.9 48.6 11.9 C 49.1 11.9 49.4 12 49.6 12.3 C 49.9 12.6 50 12.9 50 13.4 C 50.01 13.35 50 15.6 50 15.6 L 49.5 15.6 C 49.5 15.6 49.48 13.49 49.5 13.5 C 49.5 13.1 49.4 12.9 49.2 12.7 C 49 12.5 48.8 12.4 48.5 12.4 C 48.2 12.4 47.9 12.5 47.7 12.7 C 47.5 12.9 47.4 13.2 47.4 13.5 C 47.39 13.53 47.4 15.6 47.4 15.6 L 46.9 15.6 Z M 54.2 15 C 53.8 15.5 53.3 15.7 52.7 15.7 C 52.2 15.7 51.8 15.5 51.5 15.2 C 51.1 14.8 50.9 14.4 50.9 13.8 C 50.9 13.8 50.9 13.8 50.9 13.8 C 50.9 13.3 51.1 12.8 51.4 12.4 C 51.8 12.1 52.2 11.9 52.7 11.9 C 53.2 11.9 53.6 12.1 53.9 12.4 C 54.2 12.8 54.4 13.3 54.4 13.8 C 54.4 13.9 54.4 13.9 54.4 14 C 54.4 14 51.5 14 51.5 14 C 51.5 14.4 51.7 14.7 51.9 14.9 C 52.1 15.1 52.4 15.2 52.8 15.2 C 53.2 15.2 53.6 15 53.9 14.7 C 53.9 14.7 54.2 15 54.2 15 C 54.2 15 54.24 15 54.2 15 Z M 51.5 13.6 C 51.5 13.6 53.8 13.6 53.8 13.6 C 53.8 13.2 53.7 12.9 53.5 12.7 C 53.3 12.5 53 12.4 52.7 12.4 C 52.3 12.4 52.1 12.5 51.9 12.7 C 51.6 12.9 51.5 13.2 51.5 13.6 Z M 56.1 15.6 L 54.8 12 L 55.4 12 L 56.3 14.9 L 57.3 12 L 57.8 12 L 58.8 14.9 L 59.7 12 L 60.3 12 L 59 15.6 L 58.5 15.6 L 57.5 12.8 L 56.6 15.6 L 56.1 15.6 Z M 63.4 15.1 C 63.1 15.5 62.7 15.7 62.1 15.7 C 61.7 15.7 61.4 15.6 61.1 15.4 C 60.9 15.2 60.7 14.9 60.7 14.5 C 60.7 14.5 60.7 14.5 60.7 14.5 C 60.7 14.2 60.9 13.9 61.2 13.7 C 61.5 13.5 61.8 13.4 62.3 13.4 C 62.7 13.4 63 13.4 63.4 13.5 C 63.4 13.5 63.4 13.4 63.4 13.4 C 63.4 13.1 63.3 12.8 63.1 12.7 C 62.9 12.5 62.7 12.4 62.3 12.4 C 62 12.4 61.6 12.5 61.2 12.7 C 61.2 12.7 61.1 12.2 61.1 12.2 C 61.5 12 61.9 11.9 62.4 11.9 C 62.9 11.9 63.3 12.1 63.6 12.3 C 63.8 12.6 63.9 12.9 63.9 13.4 C 63.92 13.39 63.9 15.6 63.9 15.6 L 63.4 15.6 L 63.4 15.1 C 63.4 15.1 63.41 15.05 63.4 15.1 Z M 62.2 15.2 C 62.5 15.2 62.8 15.2 63.1 15 C 63.3 14.8 63.4 14.6 63.4 14.3 C 63.4 14.3 63.4 13.9 63.4 13.9 C 63 13.8 62.7 13.8 62.3 13.8 C 62 13.8 61.8 13.8 61.6 14 C 61.4 14.1 61.3 14.3 61.3 14.5 C 61.3 14.5 61.3 14.5 61.3 14.5 C 61.3 14.7 61.4 14.9 61.6 15.1 C 61.7 15.2 61.9 15.2 62.2 15.2 Z M 65.1 15.6 L 65.1 12 L 65.6 12 C 65.6 12 65.61 12.93 65.6 12.9 C 65.8 12.6 65.9 12.4 66.2 12.2 C 66.5 12 66.8 11.9 67.1 11.9 C 67.09 11.92 67.1 12.5 67.1 12.5 C 67.1 12.5 67.05 12.5 67 12.5 C 66.6 12.5 66.3 12.6 66 12.9 C 65.7 13.2 65.6 13.6 65.6 14.2 C 65.61 14.16 65.6 15.6 65.6 15.6 L 65.1 15.6 Z M 70.8 15 C 70.4 15.5 69.9 15.7 69.3 15.7 C 68.8 15.7 68.4 15.5 68.1 15.2 C 67.7 14.8 67.5 14.4 67.5 13.8 C 67.5 13.8 67.5 13.8 67.5 13.8 C 67.5 13.3 67.7 12.8 68 12.4 C 68.4 12.1 68.8 11.9 69.3 11.9 C 69.8 11.9 70.2 12.1 70.5 12.4 C 70.8 12.8 71 13.3 71 13.8 C 71 13.9 70.9 13.9 70.9 14 C 70.9 14 68.1 14 68.1 14 C 68.1 14.4 68.3 14.7 68.5 14.9 C 68.7 15.1 69 15.2 69.3 15.2 C 69.8 15.2 70.2 15 70.5 14.7 C 70.49 14.7 70.8 15 70.8 15 C 70.8 15 70.83 15 70.8 15 Z M 68.1 13.6 C 68.1 13.6 70.4 13.6 70.4 13.6 C 70.4 13.2 70.3 12.9 70.1 12.7 C 69.9 12.5 69.6 12.4 69.3 12.4 C 68.9 12.4 68.7 12.5 68.5 12.7 C 68.2 12.9 68.1 13.2 68.1 13.6 Z M 73.2 16.5 L 76.5 10 L 77 10 L 73.7 16.5 L 73.2 16.5 Z M 81.4 15.7 C 80.7 15.7 80 15.4 79.4 14.9 C 79.4 14.9 79.8 14.5 79.8 14.5 C 80 14.7 80.3 14.9 80.6 15 C 80.8 15.1 81.1 15.2 81.4 15.2 C 81.8 15.2 82 15.1 82.2 14.9 C 82.4 14.8 82.5 14.6 82.5 14.3 C 82.5 14.3 82.5 14.3 82.5 14.3 C 82.5 14.1 82.4 13.9 82.3 13.8 C 82.1 13.6 81.8 13.5 81.3 13.4 C 80.7 13.3 80.3 13.1 80 12.9 C 79.7 12.7 79.6 12.4 79.6 12 C 79.6 12 79.6 12 79.6 12 C 79.6 11.6 79.8 11.3 80.1 11 C 80.4 10.8 80.8 10.6 81.2 10.6 C 81.6 10.6 81.9 10.7 82.2 10.8 C 82.4 10.9 82.7 11 82.9 11.2 C 82.9 11.2 82.6 11.7 82.6 11.7 C 82.2 11.3 81.7 11.1 81.2 11.1 C 80.9 11.1 80.6 11.2 80.5 11.4 C 80.3 11.5 80.2 11.7 80.2 11.9 C 80.2 11.9 80.2 11.9 80.2 11.9 C 80.2 12.2 80.3 12.4 80.4 12.5 C 80.6 12.7 81 12.8 81.5 12.9 C 82.1 13 82.5 13.2 82.7 13.4 C 83 13.6 83.1 13.9 83.1 14.3 C 83.1 14.3 83.1 14.3 83.1 14.3 C 83.1 14.7 82.9 15 82.6 15.3 C 82.3 15.5 81.9 15.7 81.4 15.7 Z M 85.8 15.7 C 85.2 15.7 84.8 15.5 84.4 15.1 C 84.1 14.8 83.9 14.3 83.9 13.8 C 83.9 13.8 83.9 13.8 83.9 13.8 C 83.9 13.3 84.1 12.8 84.4 12.5 C 84.8 12.1 85.3 11.9 85.8 11.9 C 86.3 11.9 86.8 12.1 87.1 12.5 C 87.5 12.8 87.7 13.3 87.7 13.8 C 87.7 13.8 87.7 13.8 87.7 13.8 C 87.7 14.3 87.5 14.8 87.1 15.1 C 86.8 15.5 86.3 15.7 85.8 15.7 Z M 85.8 15.2 C 86.2 15.2 86.5 15.1 86.8 14.8 C 87 14.5 87.1 14.2 87.1 13.8 C 87.1 13.8 87.1 13.8 87.1 13.8 C 87.1 13.4 87 13.1 86.7 12.8 C 86.5 12.5 86.2 12.4 85.8 12.4 C 85.4 12.4 85.1 12.5 84.8 12.8 C 84.6 13.1 84.5 13.4 84.5 13.8 C 84.5 13.8 84.5 13.8 84.5 13.8 C 84.5 14.2 84.6 14.5 84.8 14.8 C 85.1 15.1 85.4 15.2 85.8 15.2 Z M 88.9 15.6 L 88.9 12.5 L 88.4 12.5 L 88.4 12 L 88.9 12 C 88.9 12 88.86 11.67 88.9 11.7 C 88.9 11.3 89 11 89.2 10.7 C 89.4 10.6 89.6 10.5 89.9 10.5 C 90.2 10.5 90.4 10.5 90.5 10.6 C 90.5 10.6 90.5 11 90.5 11 C 90.3 11 90.2 10.9 90 10.9 C 89.6 10.9 89.4 11.2 89.4 11.7 C 89.39 11.7 89.4 12 89.4 12 L 90.5 12 L 90.5 12.5 L 89.4 12.5 L 89.4 15.6 L 88.9 15.6 Z M 93.1 15.5 C 92.9 15.6 92.7 15.7 92.4 15.7 C 92.1 15.7 91.9 15.6 91.7 15.4 C 91.5 15.2 91.4 15 91.4 14.6 C 91.41 14.64 91.4 12.5 91.4 12.5 L 90.9 12.5 L 90.9 12 L 91.4 12 L 91.4 10.9 L 92 10.9 L 92 12 L 93.1 12 L 93.1 12.5 L 92 12.5 C 92 12.5 91.95 14.57 92 14.6 C 92 15 92.2 15.2 92.6 15.2 C 92.7 15.2 92.9 15.1 93.1 15 C 93.09 15.05 93.1 15.5 93.1 15.5 C 93.1 15.5 93.09 15.51 93.1 15.5 Z M 97.5 15.6 L 97.5 11.2 L 95.9 11.2 L 95.9 10.7 L 99.7 10.7 L 99.7 11.2 L 98.1 11.2 L 98.1 15.6 L 97.5 15.6 Z M 101.4 15.7 C 100.9 15.7 100.4 15.5 100.1 15.1 C 99.7 14.8 99.6 14.3 99.6 13.8 C 99.6 13.8 99.6 13.8 99.6 13.8 C 99.6 13.3 99.7 12.8 100.1 12.5 C 100.5 12.1 100.9 11.9 101.4 11.9 C 102 11.9 102.4 12.1 102.8 12.5 C 103.1 12.8 103.3 13.3 103.3 13.8 C 103.3 13.8 103.3 13.8 103.3 13.8 C 103.3 14.3 103.1 14.8 102.8 15.1 C 102.4 15.5 102 15.7 101.4 15.7 Z M 101.4 15.2 C 101.8 15.2 102.1 15.1 102.4 14.8 C 102.6 14.5 102.8 14.2 102.8 13.8 C 102.8 13.8 102.8 13.8 102.8 13.8 C 102.8 13.4 102.6 13.1 102.4 12.8 C 102.1 12.5 101.8 12.4 101.4 12.4 C 101 12.4 100.7 12.5 100.5 12.8 C 100.2 13.1 100.1 13.4 100.1 13.8 C 100.1 13.8 100.1 13.8 100.1 13.8 C 100.1 14.2 100.2 14.5 100.5 14.8 C 100.7 15.1 101.1 15.2 101.4 15.2 Z M 106.9 15 C 106.6 15.4 106.2 15.7 105.6 15.7 C 105.2 15.7 104.9 15.5 104.6 15.3 C 104.4 15 104.2 14.7 104.2 14.2 C 104.24 14.23 104.2 12 104.2 12 L 104.8 12 C 104.8 12 104.78 14.09 104.8 14.1 C 104.8 14.4 104.9 14.7 105 14.9 C 105.2 15.1 105.5 15.2 105.8 15.2 C 106.1 15.2 106.4 15.1 106.6 14.9 C 106.8 14.7 106.9 14.4 106.9 14.1 C 106.87 14.05 106.9 12 106.9 12 L 107.4 12 L 107.4 15.6 L 106.9 15.6 L 106.9 15 C 106.9 15 106.87 14.97 106.9 15 Z M 111.7 15 C 111.3 15.5 110.8 15.7 110.2 15.7 C 109.7 15.7 109.3 15.5 108.9 15.1 C 108.6 14.8 108.4 14.3 108.4 13.8 C 108.4 13.8 108.4 13.8 108.4 13.8 C 108.4 13.3 108.6 12.8 108.9 12.5 C 109.3 12.1 109.7 11.9 110.2 11.9 C 110.8 11.9 111.3 12.1 111.7 12.5 C 111.7 12.5 111.3 12.9 111.3 12.9 C 111 12.6 110.6 12.4 110.2 12.4 C 109.9 12.4 109.6 12.5 109.3 12.8 C 109.1 13.1 108.9 13.4 108.9 13.8 C 108.9 13.8 108.9 13.8 108.9 13.8 C 108.9 14.2 109.1 14.5 109.3 14.8 C 109.6 15.1 109.9 15.2 110.3 15.2 C 110.7 15.2 111 15 111.4 14.7 C 111.38 14.66 111.7 15 111.7 15 C 111.7 15 111.72 14.98 111.7 15 Z M 112.6 15.6 L 112.6 10.5 L 113.1 10.5 C 113.1 10.5 113.15 12.61 113.1 12.6 C 113.4 12.1 113.9 11.9 114.4 11.9 C 114.8 11.9 115.2 12 115.4 12.3 C 115.6 12.6 115.8 12.9 115.8 13.4 C 115.77 13.35 115.8 15.6 115.8 15.6 L 115.2 15.6 C 115.2 15.6 115.23 13.49 115.2 13.5 C 115.2 13.1 115.1 12.9 115 12.7 C 114.8 12.5 114.5 12.4 114.2 12.4 C 113.9 12.4 113.7 12.5 113.5 12.7 C 113.2 12.9 113.1 13.2 113.1 13.5 C 113.15 13.53 113.1 15.6 113.1 15.6 L 112.6 15.6 Z M 119.3 16.5 L 119.3 10 L 119.7 10 L 119.7 16.5 L 119.3 16.5 Z M 125.9 10.2 L 125.9 9.6 L 126.6 9.6 L 126.6 10.2 L 125.9 10.2 Z M 124.6 10.2 L 124.6 9.6 L 125.3 9.6 L 125.3 10.2 L 124.6 10.2 Z M 128.1 13.1 C 128.1 13.8 127.9 14.4 127.4 14.9 C 126.9 15.4 126.3 15.7 125.6 15.7 C 124.9 15.7 124.3 15.4 123.8 14.9 C 123.3 14.5 123.1 13.9 123.1 13.2 C 123.1 13.2 123.1 13.1 123.1 13.1 C 123.1 12.5 123.4 11.9 123.8 11.4 C 124.3 10.9 124.9 10.6 125.6 10.6 C 126.3 10.6 126.9 10.9 127.4 11.4 C 127.9 11.8 128.1 12.4 128.1 13.1 C 128.11 13.14 128.1 13.1 128.1 13.1 C 128.1 13.1 128.11 13.15 128.1 13.1 Z M 123.7 13.1 C 123.7 13.7 123.9 14.2 124.2 14.6 C 124.6 15 125.1 15.2 125.6 15.2 C 126.2 15.2 126.6 15 127 14.6 C 127.4 14.2 127.5 13.7 127.5 13.2 C 127.5 13.2 127.5 13.1 127.5 13.1 C 127.5 12.6 127.4 12.1 127 11.7 C 126.6 11.3 126.2 11.1 125.6 11.1 C 125.1 11.1 124.6 11.3 124.2 11.7 C 123.9 12.1 123.7 12.6 123.7 13.1 C 123.69 13.14 123.7 13.1 123.7 13.1 C 123.7 13.1 123.69 13.15 123.7 13.1 Z M 129.2 15.6 L 129.2 10.5 L 129.8 10.5 L 129.8 15.6 L 129.2 15.6 Z M 132.3 16.7 L 131.8 16.4 C 131.8 16.4 132.33 15.65 132.3 15.6 C 131.9 15.6 131.5 15.4 131.2 15 C 131 14.7 130.8 14.3 130.8 13.8 C 130.8 13.8 130.8 13.8 130.8 13.8 C 130.8 13.3 131 12.8 131.3 12.5 C 131.7 12.1 132.1 11.9 132.7 11.9 C 133.2 11.9 133.7 12.1 134.1 12.5 C 134.1 12.5 133.8 12.9 133.8 12.9 C 133.4 12.6 133 12.4 132.7 12.4 C 132.3 12.4 132 12.5 131.7 12.8 C 131.5 13.1 131.4 13.4 131.4 13.8 C 131.4 13.8 131.4 13.8 131.4 13.8 C 131.4 14.2 131.5 14.5 131.7 14.8 C 132 15.1 132.3 15.2 132.7 15.2 C 133.1 15.2 133.5 15 133.8 14.7 C 133.8 14.7 134.1 15 134.1 15 C 133.8 15.4 133.3 15.7 132.8 15.7 C 132.77 15.68 132.3 16.7 132.3 16.7 Z M 136.8 11.4 L 136.8 10.8 L 137.4 10.8 L 137.4 11.4 L 136.8 11.4 Z M 135.6 11.4 L 135.6 10.8 L 136.2 10.8 L 136.2 11.4 L 135.6 11.4 Z M 137.6 15 C 137.3 15.4 136.9 15.7 136.3 15.7 C 135.9 15.7 135.6 15.5 135.3 15.3 C 135.1 15 134.9 14.7 134.9 14.2 C 134.94 14.23 134.9 12 134.9 12 L 135.5 12 C 135.5 12 135.48 14.09 135.5 14.1 C 135.5 14.4 135.6 14.7 135.7 14.9 C 135.9 15.1 136.2 15.2 136.5 15.2 C 136.8 15.2 137.1 15.1 137.3 14.9 C 137.5 14.7 137.6 14.4 137.6 14.1 C 137.57 14.05 137.6 12 137.6 12 L 138.1 12 L 138.1 15.6 L 137.6 15.6 L 137.6 15 C 137.6 15 137.57 14.97 137.6 15 Z M 139.4 15.6 L 139.4 10.5 L 139.9 10.5 L 139.9 15.6 L 139.4 15.6 Z M 144.2 15 C 143.8 15.5 143.3 15.7 142.7 15.7 C 142.2 15.7 141.8 15.5 141.5 15.2 C 141.1 14.8 140.9 14.4 140.9 13.8 C 140.9 13.8 140.9 13.8 140.9 13.8 C 140.9 13.3 141.1 12.8 141.4 12.4 C 141.8 12.1 142.2 11.9 142.7 11.9 C 143.2 11.9 143.6 12.1 143.9 12.4 C 144.2 12.8 144.4 13.3 144.4 13.8 C 144.4 13.9 144.4 13.9 144.3 14 C 144.3 14 141.5 14 141.5 14 C 141.5 14.4 141.7 14.7 141.9 14.9 C 142.1 15.1 142.4 15.2 142.7 15.2 C 143.2 15.2 143.6 15 143.9 14.7 C 143.89 14.7 144.2 15 144.2 15 C 144.2 15 144.23 15 144.2 15 Z M 141.5 13.6 C 141.5 13.6 143.8 13.6 143.8 13.6 C 143.8 13.2 143.7 12.9 143.5 12.7 C 143.3 12.5 143 12.4 142.7 12.4 C 142.3 12.4 142.1 12.5 141.9 12.7 C 141.6 12.9 141.5 13.2 141.5 13.6 Z M 145.3 15.6 L 145.3 12 L 145.8 12 C 145.8 12 145.84 12.93 145.8 12.9 C 146 12.6 146.2 12.4 146.4 12.2 C 146.7 12 147 11.9 147.3 11.9 C 147.31 11.92 147.3 12.5 147.3 12.5 C 147.3 12.5 147.27 12.5 147.3 12.5 C 146.9 12.5 146.5 12.6 146.2 12.9 C 146 13.2 145.8 13.6 145.8 14.2 C 145.84 14.16 145.8 15.6 145.8 15.6 L 145.3 15.6 Z M 148.1 12.7 L 148.1 12 L 148.7 12 L 148.7 12.7 L 148.1 12.7 Z M 148.1 15.6 L 148.1 14.9 L 148.7 14.9 L 148.7 15.6 L 148.1 15.6 Z M 152.1 15.6 L 152.1 10.7 C 152.1 10.7 153.8 10.7 153.8 10.7 C 154.6 10.7 155.2 10.9 155.7 11.4 C 156.2 11.9 156.4 12.4 156.4 13.1 C 156.4 13.1 156.4 13.1 156.4 13.1 C 156.4 13.8 156.2 14.4 155.7 14.9 C 155.2 15.4 154.6 15.6 153.8 15.6 C 153.8 15.6 152.1 15.6 152.1 15.6 Z M 153.8 11.2 C 153.8 11.21 152.7 11.2 152.7 11.2 L 152.7 15.1 C 152.7 15.1 153.8 15.09 153.8 15.1 C 154.4 15.1 154.9 14.9 155.3 14.5 C 155.6 14.2 155.8 13.7 155.8 13.2 C 155.8 13.2 155.8 13.1 155.8 13.1 C 155.8 12.6 155.6 12.1 155.3 11.8 C 154.9 11.4 154.4 11.2 153.8 11.2 Z M 163 14.3 C 163 14.7 162.9 15 162.5 15.3 C 162.2 15.5 161.7 15.7 161.2 15.7 C 160.7 15.7 160.2 15.5 159.9 15.3 C 159.5 15 159.3 14.7 159.3 14.3 C 159.3 14.3 159.3 14.3 159.3 14.3 C 159.3 14 159.4 13.7 159.6 13.5 C 159.8 13.3 160 13.2 160.4 13.1 C 159.8 12.8 159.5 12.4 159.5 11.9 C 159.5 11.9 159.5 11.9 159.5 11.9 C 159.5 11.6 159.7 11.2 160 11 C 160.3 10.8 160.7 10.6 161.2 10.6 C 161.6 10.6 162 10.8 162.4 11 C 162.7 11.2 162.9 11.6 162.9 11.9 C 162.9 11.9 162.9 11.9 162.9 11.9 C 162.9 12.4 162.6 12.8 162 13.1 C 162.3 13.2 162.6 13.3 162.8 13.5 C 162.9 13.7 163 14 163 14.3 C 163.03 14.26 163 14.3 163 14.3 C 163 14.3 163.03 14.28 163 14.3 Z M 160.1 12 C 160.1 12.2 160.2 12.4 160.4 12.6 C 160.6 12.8 160.9 12.9 161.2 12.9 C 161.5 12.9 161.8 12.8 162 12.6 C 162.2 12.4 162.3 12.2 162.3 12 C 162.3 12 162.3 12 162.3 12 C 162.3 11.7 162.2 11.5 162 11.4 C 161.8 11.2 161.5 11.1 161.2 11.1 C 160.9 11.1 160.6 11.2 160.4 11.4 C 160.2 11.5 160.1 11.7 160.1 12 C 160.07 11.96 160.1 12 160.1 12 C 160.1 12 160.07 11.97 160.1 12 Z M 159.9 14.3 C 159.9 14.5 160 14.7 160.3 14.9 C 160.5 15.1 160.8 15.2 161.2 15.2 C 161.6 15.2 161.9 15.1 162.1 14.9 C 162.4 14.7 162.5 14.5 162.5 14.3 C 162.5 14.3 162.5 14.3 162.5 14.3 C 162.5 14 162.3 13.8 162.1 13.6 C 161.9 13.4 161.5 13.3 161.2 13.3 C 160.8 13.3 160.5 13.4 160.3 13.6 C 160 13.8 159.9 14 159.9 14.3 C 159.91 14.26 159.9 14.3 159.9 14.3 C 159.9 14.3 159.91 14.27 159.9 14.3 Z M 163.8 16.5 C 163.8 16.5 163.7 16.2 163.7 16.2 C 164.1 16.1 164.2 15.9 164.2 15.6 C 164.18 15.6 163.9 15.6 163.9 15.6 L 163.9 14.9 L 164.6 14.9 C 164.6 14.9 164.58 15.49 164.6 15.5 C 164.6 15.8 164.5 16 164.4 16.1 C 164.3 16.3 164.1 16.4 163.8 16.5 Z M 167.3 15.7 C 166.5 15.7 165.9 15.4 165.5 14.8 C 165.5 14.8 165.9 14.5 165.9 14.5 C 166.3 14.9 166.7 15.2 167.3 15.2 C 167.6 15.2 167.8 15.1 168.1 14.9 C 168.3 14.7 168.4 14.5 168.4 14.2 C 168.4 14.2 168.4 14.2 168.4 14.2 C 168.4 13.9 168.2 13.7 168 13.5 C 167.7 13.4 167.4 13.3 167 13.3 C 166.99 13.27 166.7 13.3 166.7 13.3 L 166.6 12.9 L 168.1 11.2 L 165.7 11.2 L 165.7 10.7 L 168.8 10.7 L 168.8 11.1 C 168.8 11.1 167.31 12.81 167.3 12.8 C 167.8 12.9 168.2 13 168.5 13.2 C 168.8 13.4 168.9 13.8 168.9 14.2 C 168.9 14.2 168.9 14.2 168.9 14.2 C 168.9 14.6 168.8 15 168.4 15.3 C 168.1 15.5 167.7 15.7 167.3 15.7 Z M 175.2 15 C 174.8 15.5 174.3 15.7 173.7 15.7 C 173.2 15.7 172.8 15.5 172.4 15.1 C 172.1 14.8 171.9 14.3 171.9 13.8 C 171.9 13.8 171.9 13.8 171.9 13.8 C 171.9 13.3 172.1 12.8 172.4 12.5 C 172.8 12.1 173.2 11.9 173.7 11.9 C 174.3 11.9 174.8 12.1 175.2 12.5 C 175.2 12.5 174.8 12.9 174.8 12.9 C 174.5 12.6 174.1 12.4 173.7 12.4 C 173.4 12.4 173 12.5 172.8 12.8 C 172.6 13.1 172.4 13.4 172.4 13.8 C 172.4 13.8 172.4 13.8 172.4 13.8 C 172.4 14.2 172.6 14.5 172.8 14.8 C 173.1 15.1 173.4 15.2 173.8 15.2 C 174.2 15.2 174.5 15 174.9 14.7 C 174.87 14.66 175.2 15 175.2 15 C 175.2 15 175.21 14.98 175.2 15 Z M 176.1 15.6 L 176.1 12 L 176.6 12 C 176.6 12 176.64 12.59 176.6 12.6 C 176.8 12.4 176.9 12.2 177.1 12.1 C 177.3 12 177.5 11.9 177.8 11.9 C 178.4 11.9 178.7 12.1 179 12.6 C 179.3 12.1 179.7 11.9 180.2 11.9 C 180.7 11.9 181 12 181.2 12.3 C 181.5 12.6 181.6 12.9 181.6 13.4 C 181.59 13.36 181.6 15.6 181.6 15.6 L 181 15.6 C 181 15.6 181.05 13.49 181 13.5 C 181 13.1 181 12.9 180.8 12.7 C 180.6 12.5 180.4 12.4 180.1 12.4 C 179.8 12.4 179.6 12.5 179.4 12.7 C 179.2 12.9 179.1 13.2 179.1 13.5 C 179.11 13.51 179.1 15.6 179.1 15.6 L 178.6 15.6 C 178.6 15.6 178.58 13.47 178.6 13.5 C 178.6 13.1 178.5 12.9 178.3 12.7 C 178.2 12.5 177.9 12.4 177.6 12.4 C 177.4 12.4 177.1 12.5 176.9 12.7 C 176.7 12.9 176.6 13.2 176.6 13.5 C 176.64 13.53 176.6 15.6 176.6 15.6 L 176.1 15.6 Z M 182.5 16.5 C 182.5 16.5 182.5 16.2 182.5 16.2 C 182.8 16.1 183 15.9 182.9 15.6 C 182.92 15.6 182.7 15.6 182.7 15.6 L 182.7 14.9 L 183.3 14.9 C 183.3 14.9 183.31 15.49 183.3 15.5 C 183.3 15.8 183.3 16 183.1 16.1 C 183 16.3 182.8 16.4 182.5 16.5 Z M 186.6 15.6 L 186.6 10.7 L 187.2 10.7 L 187.2 12.9 L 190 12.9 L 190 10.7 L 190.6 10.7 L 190.6 15.6 L 190 15.6 L 190 13.4 L 187.2 13.4 L 187.2 15.6 L 186.6 15.6 Z M 194.6 15.6 L 194.6 11.2 L 193.7 11.5 L 193.6 11.1 L 194.8 10.7 L 195.2 10.7 L 195.2 15.6 L 194.6 15.6 Z M 200.4 13.1 C 200.4 13.9 200.3 14.5 199.9 14.9 C 199.5 15.4 199 15.7 198.4 15.7 C 197.8 15.7 197.3 15.4 196.9 15 C 196.5 14.5 196.3 13.9 196.3 13.2 C 196.3 13.2 196.3 13.1 196.3 13.1 C 196.3 12.4 196.5 11.8 196.9 11.4 C 197.3 10.9 197.8 10.6 198.4 10.6 C 199 10.6 199.5 10.9 199.9 11.3 C 200.3 11.8 200.4 12.4 200.4 13.1 C 200.44 13.14 200.4 13.1 200.4 13.1 C 200.4 13.1 200.44 13.15 200.4 13.1 Z M 196.9 13.1 C 196.9 13.7 197 14.2 197.3 14.6 C 197.6 15 197.9 15.2 198.4 15.2 C 198.8 15.2 199.2 15 199.5 14.6 C 199.7 14.2 199.9 13.7 199.9 13.2 C 199.9 13.2 199.9 13.1 199.9 13.1 C 199.9 12.6 199.7 12.1 199.5 11.7 C 199.2 11.3 198.8 11.1 198.4 11.1 C 197.9 11.1 197.6 11.3 197.3 11.7 C 197 12.1 196.9 12.6 196.9 13.1 C 196.88 13.14 196.9 13.1 196.9 13.1 C 196.9 13.1 196.88 13.15 196.9 13.1 Z M 201.1 16.5 C 201.1 16.5 201.1 16.2 201.1 16.2 C 201.4 16.1 201.6 15.9 201.5 15.6 C 201.53 15.6 201.3 15.6 201.3 15.6 L 201.3 14.9 L 201.9 14.9 C 201.9 14.9 201.92 15.49 201.9 15.5 C 201.9 15.8 201.9 16 201.7 16.1 C 201.6 16.3 201.4 16.4 201.1 16.5 Z M 204.6 15.7 C 203.9 15.7 203.2 15.4 202.8 14.8 C 202.8 14.8 203.2 14.5 203.2 14.5 C 203.6 14.9 204.1 15.2 204.6 15.2 C 204.9 15.2 205.2 15.1 205.4 14.9 C 205.6 14.7 205.7 14.5 205.7 14.2 C 205.7 14.2 205.7 14.2 205.7 14.2 C 205.7 13.9 205.6 13.7 205.3 13.5 C 205.1 13.4 204.7 13.3 204.3 13.3 C 204.33 13.27 204 13.3 204 13.3 L 203.9 12.9 L 205.5 11.2 L 203.1 11.2 L 203.1 10.7 L 206.2 10.7 L 206.2 11.1 C 206.2 11.1 204.65 12.81 204.6 12.8 C 205.1 12.9 205.5 13 205.8 13.2 C 206.1 13.4 206.3 13.8 206.3 14.2 C 206.3 14.2 206.3 14.2 206.3 14.2 C 206.3 14.6 206.1 15 205.8 15.3 C 205.5 15.5 205.1 15.7 204.6 15.7 Z M 212.6 15 C 212.1 15.5 211.6 15.7 211.1 15.7 C 210.5 15.7 210.1 15.5 209.8 15.1 C 209.4 14.8 209.2 14.3 209.2 13.8 C 209.2 13.8 209.2 13.8 209.2 13.8 C 209.2 13.3 209.4 12.8 209.8 12.5 C 210.1 12.1 210.5 11.9 211.1 11.9 C 211.6 11.9 212.1 12.1 212.5 12.5 C 212.5 12.5 212.2 12.9 212.2 12.9 C 211.8 12.6 211.5 12.4 211.1 12.4 C 210.7 12.4 210.4 12.5 210.1 12.8 C 209.9 13.1 209.8 13.4 209.8 13.8 C 209.8 13.8 209.8 13.8 209.8 13.8 C 209.8 14.2 209.9 14.5 210.2 14.8 C 210.4 15.1 210.7 15.2 211.1 15.2 C 211.5 15.2 211.9 15 212.2 14.7 C 212.21 14.66 212.6 15 212.6 15 C 212.6 15 212.55 14.98 212.6 15 Z M 213.4 15.6 L 213.4 12 L 214 12 C 214 12 213.98 12.59 214 12.6 C 214.1 12.4 214.3 12.2 214.5 12.1 C 214.6 12 214.9 11.9 215.1 11.9 C 215.7 11.9 216.1 12.1 216.3 12.6 C 216.6 12.1 217.1 11.9 217.6 11.9 C 218 11.9 218.3 12 218.6 12.3 C 218.8 12.6 218.9 12.9 218.9 13.4 C 218.93 13.36 218.9 15.6 218.9 15.6 L 218.4 15.6 C 218.4 15.6 218.39 13.49 218.4 13.5 C 218.4 13.1 218.3 12.9 218.1 12.7 C 218 12.5 217.7 12.4 217.5 12.4 C 217.2 12.4 216.9 12.5 216.7 12.7 C 216.5 12.9 216.5 13.2 216.5 13.5 C 216.45 13.51 216.5 15.6 216.5 15.6 L 215.9 15.6 C 215.9 15.6 215.92 13.47 215.9 13.5 C 215.9 13.1 215.8 12.9 215.7 12.7 C 215.5 12.5 215.3 12.4 215 12.4 C 214.7 12.4 214.5 12.5 214.3 12.7 C 214.1 12.9 214 13.2 214 13.5 C 213.98 13.53 214 15.6 214 15.6 L 213.4 15.6 Z M 222.4 16.5 L 222.4 10 L 222.9 10 L 222.9 16.5 L 222.4 16.5 Z M 227.8 15.6 L 227.8 11.2 L 226.1 11.2 L 226.1 10.7 L 230 10.7 L 230 11.2 L 228.3 11.2 L 228.3 15.6 L 227.8 15.6 Z M 232.4 15.1 C 232.1 15.5 231.7 15.7 231.1 15.7 C 230.7 15.7 230.4 15.6 230.2 15.4 C 229.9 15.2 229.8 14.9 229.8 14.5 C 229.8 14.5 229.8 14.5 229.8 14.5 C 229.8 14.2 229.9 13.9 230.2 13.7 C 230.5 13.5 230.8 13.4 231.3 13.4 C 231.7 13.4 232 13.4 232.4 13.5 C 232.4 13.5 232.4 13.4 232.4 13.4 C 232.4 13.1 232.3 12.8 232.1 12.7 C 231.9 12.5 231.7 12.4 231.3 12.4 C 231 12.4 230.6 12.5 230.2 12.7 C 230.2 12.7 230.1 12.2 230.1 12.2 C 230.5 12 230.9 11.9 231.4 11.9 C 231.9 11.9 232.3 12.1 232.6 12.3 C 232.8 12.6 232.9 12.9 232.9 13.4 C 232.93 13.39 232.9 15.6 232.9 15.6 L 232.4 15.6 L 232.4 15.1 C 232.4 15.1 232.41 15.05 232.4 15.1 Z M 231.2 15.2 C 231.5 15.2 231.8 15.2 232.1 15 C 232.3 14.8 232.4 14.6 232.4 14.3 C 232.4 14.3 232.4 13.9 232.4 13.9 C 232.1 13.8 231.7 13.8 231.4 13.8 C 231 13.8 230.8 13.8 230.6 14 C 230.4 14.1 230.3 14.3 230.3 14.5 C 230.3 14.5 230.3 14.5 230.3 14.5 C 230.3 14.7 230.4 14.9 230.6 15.1 C 230.7 15.2 231 15.2 231.2 15.2 Z M 235.3 15.7 C 234.7 15.7 234.2 15.5 233.8 15.1 C 233.8 15.1 234 14.8 234 14.8 C 234.5 15.1 234.9 15.2 235.3 15.2 C 235.5 15.2 235.7 15.2 235.8 15.1 C 236 15 236.1 14.8 236.1 14.6 C 236.1 14.6 236.1 14.6 236.1 14.6 C 236.1 14.5 236 14.3 235.8 14.2 C 235.7 14.2 235.4 14.1 235.1 14 C 235 14 234.9 13.9 234.9 13.9 C 234.8 13.9 234.7 13.8 234.6 13.8 C 234.5 13.8 234.4 13.7 234.3 13.7 C 234.3 13.6 234.2 13.6 234.1 13.5 C 234.1 13.4 234 13.4 234 13.3 C 234 13.2 234 13.1 234 13 C 234 13 234 13 234 13 C 234 12.6 234.1 12.4 234.3 12.2 C 234.5 12 234.8 11.9 235.2 11.9 C 235.7 11.9 236.1 12.1 236.5 12.3 C 236.5 12.3 236.2 12.7 236.2 12.7 C 235.9 12.5 235.5 12.4 235.2 12.4 C 235 12.4 234.8 12.4 234.7 12.5 C 234.5 12.6 234.5 12.7 234.5 12.9 C 234.5 12.9 234.5 12.9 234.5 12.9 C 234.5 13 234.5 13 234.5 13.1 C 234.6 13.1 234.6 13.2 234.7 13.2 C 234.7 13.3 234.8 13.3 234.9 13.4 C 235 13.4 235.1 13.4 235.1 13.4 C 235.2 13.5 235.3 13.5 235.4 13.5 C 235.5 13.6 235.6 13.6 235.7 13.6 C 235.8 13.7 235.9 13.7 236 13.8 C 236.2 13.8 236.3 13.9 236.3 14 C 236.4 14 236.4 14.1 236.5 14.2 C 236.5 14.3 236.6 14.4 236.6 14.6 C 236.6 14.6 236.6 14.6 236.6 14.6 C 236.6 14.9 236.4 15.2 236.2 15.4 C 236 15.6 235.6 15.7 235.3 15.7 Z M 240 15.1 C 239.6 15.5 239.2 15.7 238.6 15.7 C 238.3 15.7 238 15.6 237.7 15.4 C 237.4 15.2 237.3 14.9 237.3 14.5 C 237.3 14.5 237.3 14.5 237.3 14.5 C 237.3 14.2 237.4 13.9 237.7 13.7 C 238 13.5 238.4 13.4 238.8 13.4 C 239.2 13.4 239.6 13.4 240 13.5 C 240 13.5 240 13.4 240 13.4 C 240 13.1 239.9 12.8 239.7 12.7 C 239.5 12.5 239.2 12.4 238.9 12.4 C 238.5 12.4 238.1 12.5 237.8 12.7 C 237.8 12.7 237.6 12.2 237.6 12.2 C 238 12 238.5 11.9 238.9 11.9 C 239.4 11.9 239.8 12.1 240.1 12.3 C 240.3 12.6 240.5 12.9 240.5 13.4 C 240.47 13.39 240.5 15.6 240.5 15.6 L 240 15.6 L 240 15.1 C 240 15.1 239.95 15.05 240 15.1 Z M 238.7 15.2 C 239.1 15.2 239.4 15.2 239.6 15 C 239.8 14.8 240 14.6 240 14.3 C 240 14.3 240 13.9 240 13.9 C 239.6 13.8 239.2 13.8 238.9 13.8 C 238.6 13.8 238.3 13.8 238.1 14 C 237.9 14.1 237.8 14.3 237.8 14.5 C 237.8 14.5 237.8 14.5 237.8 14.5 C 237.8 14.7 237.9 14.9 238.1 15.1 C 238.3 15.2 238.5 15.2 238.7 15.2 Z M 241.6 15.6 L 241.6 12 L 242.2 12 C 242.2 12 242.16 12.93 242.2 12.9 C 242.3 12.6 242.5 12.4 242.8 12.2 C 243 12 243.3 11.9 243.6 11.9 C 243.63 11.92 243.6 12.5 243.6 12.5 C 243.6 12.5 243.59 12.5 243.6 12.5 C 243.2 12.5 242.8 12.6 242.6 12.9 C 242.3 13.2 242.2 13.6 242.2 14.2 C 242.16 14.16 242.2 15.6 242.2 15.6 L 241.6 15.6 Z M 244.5 15.6 L 244.5 12 L 245 12 L 245 15.6 L 244.5 15.6 Z M 246.3 15.6 L 246.3 12 L 246.8 12 C 246.8 12 246.83 12.59 246.8 12.6 C 247 12.4 247.1 12.2 247.3 12.1 C 247.5 12 247.7 11.9 248 11.9 C 248.5 11.9 248.9 12.1 249.2 12.6 C 249.5 12.1 249.9 11.9 250.4 11.9 C 250.9 11.9 251.2 12 251.4 12.3 C 251.7 12.6 251.8 12.9 251.8 13.4 C 251.78 13.36 251.8 15.6 251.8 15.6 L 251.2 15.6 C 251.2 15.6 251.24 13.49 251.2 13.5 C 251.2 13.1 251.2 12.9 251 12.7 C 250.8 12.5 250.6 12.4 250.3 12.4 C 250 12.4 249.8 12.5 249.6 12.7 C 249.4 12.9 249.3 13.2 249.3 13.5 C 249.3 13.51 249.3 15.6 249.3 15.6 L 248.8 15.6 C 248.8 15.6 248.77 13.47 248.8 13.5 C 248.8 13.1 248.7 12.9 248.5 12.7 C 248.4 12.5 248.1 12.4 247.8 12.4 C 247.5 12.4 247.3 12.5 247.1 12.7 C 246.9 12.9 246.8 13.2 246.8 13.5 C 246.83 13.53 246.8 15.6 246.8 15.6 L 246.3 15.6 Z M 252.9 12.7 L 252.9 12 L 253.5 12 L 253.5 12.7 L 252.9 12.7 Z M 252.9 15.6 L 252.9 14.9 L 253.5 14.9 L 253.5 15.6 L 252.9 15.6 Z M 258.6 15.6 L 256.5 10.7 L 257.1 10.7 L 258.8 14.9 L 260.6 10.7 L 261.2 10.7 L 259.1 15.6 L 258.6 15.6 Z M 262.1 15.6 L 262.1 10.7 L 265.7 10.7 L 265.7 11.2 L 262.7 11.2 L 262.7 12.9 L 265.4 12.9 L 265.4 13.4 L 262.7 13.4 L 262.7 15.1 L 265.7 15.1 L 265.7 15.6 L 262.1 15.6 Z M 266.5 15.6 L 266.5 15.2 C 266.5 15.2 268.26 13.6 268.3 13.6 C 268.6 13.3 268.9 13 269.1 12.8 C 269.2 12.5 269.3 12.3 269.3 12.1 C 269.3 11.8 269.2 11.6 269 11.4 C 268.8 11.2 268.6 11.1 268.3 11.1 C 268 11.1 267.8 11.2 267.6 11.3 C 267.4 11.5 267.2 11.7 267 12 C 267 12 266.6 11.7 266.6 11.7 C 266.8 11.3 267.1 11 267.3 10.9 C 267.6 10.7 267.9 10.6 268.3 10.6 C 268.8 10.6 269.1 10.8 269.4 11 C 269.7 11.3 269.9 11.6 269.9 12 C 269.9 12 269.9 12 269.9 12 C 269.9 12.4 269.8 12.7 269.6 12.9 C 269.4 13.2 269.1 13.5 268.6 13.9 C 268.62 13.93 267.3 15.1 267.3 15.1 L 269.9 15.1 L 269.9 15.6 L 266.5 15.6 Z " stroke="none" fill="#000"/>  </g>  <g id="Polygon399530">    <path d="M 0.6 5.6 L 0.6 0.7 C 0.6 0.7 2.5 0.7 2.5 0.7 C 3.3 0.7 3.9 0.9 4.4 1.4 C 4.9 1.9 5.1 2.4 5.1 3.1 C 5.1 3.1 5.1 3.1 5.1 3.1 C 5.1 3.8 4.9 4.4 4.4 4.9 C 3.9 5.4 3.3 5.6 2.5 5.6 C 2.5 5.6 0.6 5.6 0.6 5.6 Z M 2.5 1.7 C 2.5 1.67 1.7 1.7 1.7 1.7 L 1.7 4.6 C 1.7 4.6 2.5 4.63 2.5 4.6 C 2.9 4.6 3.3 4.5 3.6 4.2 C 3.8 4 4 3.6 4 3.2 C 4 3.2 4 3.1 4 3.1 C 4 2.7 3.8 2.4 3.6 2.1 C 3.3 1.8 2.9 1.7 2.5 1.7 Z M 6 1.4 L 6 0.5 L 7.1 0.5 L 7.1 1.4 L 6 1.4 Z M 6 5.6 L 6 1.8 L 7.1 1.8 L 7.1 5.6 L 6 5.6 Z M 9.2 6.8 L 8.4 6.4 C 8.4 6.4 8.91 5.62 8.9 5.6 C 8.5 5.5 8.1 5.4 7.8 5.1 C 7.8 5.1 8.2 4.4 8.2 4.4 C 8.6 4.7 9 4.9 9.4 4.9 C 9.7 4.9 9.9 4.8 9.9 4.6 C 9.9 4.6 9.9 4.6 9.9 4.6 C 9.9 4.5 9.8 4.5 9.8 4.5 C 9.8 4.4 9.8 4.4 9.8 4.4 C 9.7 4.4 9.7 4.4 9.7 4.3 C 9.7 4.3 9.6 4.3 9.6 4.3 C 9.5 4.3 9.5 4.2 9.4 4.2 C 9.4 4.2 9.3 4.2 9.3 4.2 C 9.2 4.2 9.1 4.1 9.1 4.1 C 8.9 4.1 8.8 4 8.7 4 C 8.6 3.9 8.4 3.9 8.3 3.8 C 8.2 3.7 8.1 3.6 8.1 3.5 C 8 3.3 8 3.2 8 3 C 8 3 8 3 8 3 C 8 2.6 8.1 2.3 8.4 2.1 C 8.6 1.9 8.9 1.8 9.3 1.8 C 9.8 1.8 10.3 1.9 10.7 2.2 C 10.7 2.2 10.3 3 10.3 3 C 9.9 2.7 9.6 2.6 9.3 2.6 C 9.2 2.6 9.1 2.6 9 2.7 C 9 2.7 8.9 2.8 8.9 2.9 C 8.9 2.9 8.9 2.9 8.9 2.9 C 8.9 3 9 3 9.1 3.1 C 9.2 3.2 9.4 3.3 9.7 3.3 C 9.8 3.4 10 3.4 10.1 3.5 C 10.2 3.5 10.3 3.6 10.4 3.7 C 10.6 3.8 10.7 3.9 10.7 4 C 10.8 4.1 10.8 4.3 10.8 4.4 C 10.8 4.4 10.8 4.5 10.8 4.5 C 10.8 4.8 10.7 5.1 10.5 5.3 C 10.3 5.5 10 5.6 9.7 5.6 C 9.71 5.65 9.2 6.8 9.2 6.8 Z M 13.8 5.6 L 13.8 0.7 L 17.5 0.7 L 17.5 1.7 L 14.9 1.7 L 14.9 2.7 L 17.2 2.7 L 17.2 3.7 L 14.9 3.7 L 14.9 5.6 L 13.8 5.6 Z M 18.3 5.6 L 18.3 1.8 L 19.4 1.8 L 19.4 5.6 L 18.3 5.6 Z M 20.4 5.6 L 20.4 1.8 L 21.4 1.8 C 21.4 1.8 21.45 2.6 21.4 2.6 C 21.7 2 22.1 1.8 22.6 1.8 C 22.64 1.78 22.6 2.9 22.6 2.9 C 22.6 2.9 22.59 2.89 22.6 2.9 C 22.2 2.9 21.9 3 21.7 3.2 C 21.5 3.4 21.4 3.8 21.4 4.2 C 21.45 4.21 21.4 5.6 21.4 5.6 L 20.4 5.6 Z M 24.7 6.8 L 23.8 6.4 C 23.8 6.4 24.38 5.6 24.4 5.6 C 24 5.5 23.6 5.2 23.4 4.9 C 23.1 4.6 23 4.2 23 3.7 C 23 3.7 23 3.7 23 3.7 C 23 3.2 23.2 2.7 23.6 2.3 C 24 2 24.4 1.8 25 1.8 C 25.6 1.8 26.1 2 26.5 2.4 C 26.5 2.4 25.8 3.1 25.8 3.1 C 25.7 3 25.6 2.9 25.4 2.8 C 25.3 2.7 25.2 2.7 25 2.7 C 24.7 2.7 24.5 2.8 24.3 3 C 24.2 3.2 24.1 3.4 24.1 3.7 C 24.1 3.7 24.1 3.7 24.1 3.7 C 24.1 4 24.2 4.3 24.3 4.5 C 24.5 4.7 24.7 4.8 25 4.8 C 25.3 4.8 25.6 4.6 25.9 4.4 C 25.9 4.4 26.5 5 26.5 5 C 26.3 5.2 26.1 5.4 25.9 5.5 C 25.7 5.6 25.5 5.7 25.2 5.7 C 25.15 5.68 24.7 6.8 24.7 6.8 Z M 29.4 5.2 C 29.1 5.5 28.7 5.7 28.3 5.7 C 27.9 5.7 27.6 5.6 27.3 5.4 C 27.1 5.2 27 4.9 27 4.5 C 27 4.5 27 4.5 27 4.5 C 27 4.1 27.1 3.8 27.4 3.6 C 27.7 3.4 28 3.3 28.5 3.3 C 28.8 3.3 29.1 3.4 29.4 3.5 C 29.4 3.5 29.4 3.4 29.4 3.4 C 29.4 2.9 29.1 2.7 28.6 2.7 C 28.3 2.7 27.9 2.8 27.6 2.9 C 27.6 2.9 27.3 2.1 27.3 2.1 C 27.8 1.9 28.3 1.8 28.8 1.8 C 29.3 1.8 29.7 1.9 30 2.2 C 30.3 2.5 30.4 2.9 30.4 3.4 C 30.43 3.42 30.4 5.6 30.4 5.6 L 29.4 5.6 L 29.4 5.2 C 29.4 5.2 29.4 5.19 29.4 5.2 Z M 28.6 4.9 C 28.8 4.9 29 4.9 29.2 4.8 C 29.3 4.6 29.4 4.5 29.4 4.3 C 29.4 4.3 29.4 4.1 29.4 4.1 C 29.2 4 29 3.9 28.7 3.9 C 28.5 3.9 28.3 4 28.2 4.1 C 28.1 4.2 28 4.3 28 4.5 C 28 4.5 28 4.5 28 4.5 C 28 4.6 28.1 4.7 28.2 4.8 C 28.3 4.9 28.4 4.9 28.6 4.9 Z M 31.4 5.6 L 31.4 0.5 L 32.5 0.5 L 32.5 5.6 L 31.4 5.6 Z M 33.5 5.6 L 33.5 1.8 L 34.6 1.8 L 34.6 5.6 L 33.5 5.6 Z M 35.6 5.6 L 35.6 0.5 L 36.6 0.5 L 36.6 3.2 L 37.9 1.8 L 39.2 1.8 L 37.7 3.3 L 39.2 5.6 L 38 5.6 L 37 4.1 L 36.6 4.5 L 36.6 5.6 L 35.6 5.6 Z M 41.7 3.9 L 41.7 2.9 L 44.7 2.9 L 44.7 3.9 L 41.7 3.9 Z M 51.9 3.5 C 51.9 4.2 51.7 4.7 51.3 5.1 C 51 5.5 50.4 5.7 49.8 5.7 C 49.1 5.7 48.6 5.5 48.2 5.1 C 47.8 4.8 47.6 4.2 47.6 3.5 C 47.65 3.5 47.6 0.7 47.6 0.7 L 48.7 0.7 C 48.7 0.7 48.73 3.47 48.7 3.5 C 48.7 3.9 48.8 4.2 49 4.4 C 49.2 4.6 49.4 4.7 49.8 4.7 C 50.1 4.7 50.4 4.6 50.6 4.4 C 50.7 4.2 50.8 3.9 50.8 3.5 C 50.84 3.51 50.8 0.7 50.8 0.7 L 51.9 0.7 L 51.9 3.5 C 51.9 3.5 51.92 3.46 51.9 3.5 Z M 52.9 5.6 L 52.9 1.8 L 54 1.8 C 54 1.8 53.97 2.38 54 2.4 C 54.3 2 54.7 1.8 55.1 1.8 C 55.6 1.8 55.9 2 56.1 2.4 C 56.5 2 56.9 1.8 57.4 1.8 C 57.8 1.8 58.1 1.9 58.3 2.1 C 58.5 2.4 58.6 2.7 58.6 3.2 C 58.63 3.16 58.6 5.6 58.6 5.6 L 57.6 5.6 C 57.6 5.6 57.57 3.51 57.6 3.5 C 57.6 3 57.4 2.7 56.9 2.7 C 56.7 2.7 56.6 2.8 56.5 2.9 C 56.4 3.1 56.3 3.3 56.3 3.5 C 56.3 3.51 56.3 5.6 56.3 5.6 L 55.2 5.6 C 55.2 5.6 55.24 3.51 55.2 3.5 C 55.2 3 55 2.7 54.6 2.7 C 54.4 2.7 54.3 2.8 54.1 2.9 C 54 3.1 54 3.3 54 3.5 C 53.97 3.51 54 5.6 54 5.6 L 52.9 5.6 Z M 62.9 5 C 62.5 5.5 62 5.7 61.3 5.7 C 60.8 5.7 60.3 5.5 59.9 5.1 C 59.6 4.8 59.4 4.3 59.4 3.7 C 59.4 3.7 59.4 3.7 59.4 3.7 C 59.4 3.2 59.5 2.7 59.9 2.3 C 60.2 2 60.7 1.8 61.2 1.8 C 61.8 1.8 62.3 2 62.6 2.4 C 62.9 2.8 63.1 3.2 63.1 3.8 C 63.1 3.9 63.1 4 63 4.1 C 63 4.1 60.4 4.1 60.4 4.1 C 60.5 4.3 60.6 4.5 60.7 4.6 C 60.9 4.8 61.1 4.8 61.3 4.8 C 61.7 4.8 62 4.7 62.3 4.4 C 62.26 4.44 62.9 5 62.9 5 C 62.9 5 62.87 4.98 62.9 5 Z M 60.4 3.4 C 60.4 3.4 62 3.4 62 3.4 C 62 3.2 61.9 3 61.8 2.8 C 61.6 2.7 61.4 2.6 61.2 2.6 C 61 2.6 60.8 2.7 60.7 2.8 C 60.5 3 60.5 3.2 60.4 3.4 Z " stroke="none" fill="#000"/>  </g></svg>