<?xml version="1.0" standalone="no"?><!DOCTYPE svg PUBLIC "-//W3C//DTD SVG 1.1//EN" "http://www.w3.org/Graphics/SVG/1.1/DTD/svg11.dtd"><svg xmlns="http://www.w3.org/2000/svg" version="1.1" width="195.1px" height="86.1px" viewBox="0 -13 195.1 86.1" style="top:-13px">  <desc>Banyo</desc>  <defs/>  <g id="Polygon386098">    <path d="M 14.8 44.3 L 14.8 5.5 C 14.8 5.5 32.83 5.54 32.8 5.5 C 37.3 5.5 40.7 6.7 43 9 C 44.7 10.7 45.6 12.9 45.6 15.6 C 45.6 15.6 45.6 15.7 45.6 15.7 C 45.6 19.5 43.9 22.3 40.5 24 C 42.9 25 44.7 26.2 46 27.6 C 47.2 29.1 47.8 31.1 47.8 33.5 C 47.8 33.5 47.8 33.7 47.8 33.7 C 47.8 37.1 46.5 39.8 43.9 41.6 C 41.3 43.4 37.8 44.3 33.3 44.3 C 33.27 44.29 14.8 44.3 14.8 44.3 Z M 31 21.2 C 35.1 21.2 37.1 19.8 37.1 17.1 C 37.1 17.1 37.1 17 37.1 17 C 37.1 14.3 35.3 13 31.6 13 C 31.56 13.01 23.1 13 23.1 13 L 23.1 21.2 L 31 21.2 C 31 21.2 31 21.2 31 21.2 Z M 33.3 36.8 C 37.3 36.8 39.3 35.4 39.3 32.6 C 39.3 32.6 39.3 32.5 39.3 32.5 C 39.3 29.7 37.2 28.3 33 28.3 C 33 28.29 23.1 28.3 23.1 28.3 L 23.1 36.8 L 33.3 36.8 C 33.3 36.8 33.27 36.82 33.3 36.8 Z M 71.3 41.1 C 69.1 43.6 66.1 44.8 62.3 44.8 C 59.4 44.8 57 44 55.1 42.4 C 53.1 40.8 52.2 38.6 52.2 35.8 C 52.2 35.8 52.2 35.7 52.2 35.7 C 52.2 32.6 53.2 30.2 55.4 28.6 C 57.6 27 60.5 26.2 64.1 26.2 C 66.5 26.2 68.9 26.6 71.4 27.4 C 71.4 27.4 71.4 26.9 71.4 26.9 C 71.4 23.3 69.2 21.5 65 21.5 C 62.3 21.5 59.6 22 56.8 23.1 C 56.8 23.1 54.7 16.7 54.7 16.7 C 58.4 15.1 62.3 14.3 66.2 14.3 C 70.7 14.3 74 15.4 76.2 17.6 C 78.4 19.7 79.4 22.9 79.4 27.1 C 79.45 27.07 79.4 44.3 79.4 44.3 L 71.3 44.3 L 71.3 41.1 C 71.3 41.1 71.31 41.08 71.3 41.1 Z M 64.9 39 C 66.9 39 68.5 38.6 69.7 37.6 C 70.9 36.6 71.5 35.4 71.5 33.8 C 71.5 33.8 71.5 32.3 71.5 32.3 C 69.8 31.6 68 31.2 66.1 31.2 C 64.3 31.2 62.9 31.6 61.8 32.3 C 60.8 33 60.3 34 60.3 35.3 C 60.3 35.3 60.3 35.4 60.3 35.4 C 60.3 36.5 60.7 37.4 61.6 38.1 C 62.4 38.7 63.5 39 64.9 39 Z M 86.7 44.3 L 86.7 14.6 L 95.1 14.6 C 95.1 14.6 95.12 18.82 95.1 18.8 C 97.6 15.6 100.5 14.1 103.8 14.1 C 107 14.1 109.5 15 111.3 17 C 113 18.9 113.9 21.6 113.9 25.1 C 113.88 25.08 113.9 44.3 113.9 44.3 L 105.5 44.3 C 105.5 44.3 105.47 27.74 105.5 27.7 C 105.5 23.7 103.8 21.7 100.4 21.7 C 98.7 21.7 97.4 22.2 96.5 23.3 C 95.6 24.3 95.1 25.8 95.1 27.7 C 95.12 27.74 95.1 44.3 95.1 44.3 L 86.7 44.3 Z M 133.4 34.8 L 139.8 14.6 L 148.6 14.6 C 148.6 14.6 137.19 45.01 137.2 45 C 136.1 48 134.8 50.2 133.3 51.4 C 131.9 52.7 129.9 53.3 127.4 53.3 C 124.8 53.3 122.3 52.6 120 51.3 C 120 51.3 122.8 45.2 122.8 45.2 C 124.1 46 125.3 46.3 126.4 46.3 C 127.1 46.3 127.7 46.2 128.1 45.9 C 128.6 45.6 129 45.1 129.3 44.4 C 129.33 44.4 117.7 14.6 117.7 14.6 L 126.6 14.6 L 133.4 34.8 Z M 166.5 45 C 161.9 45 158.1 43.5 155.1 40.5 C 152 37.6 150.5 33.9 150.5 29.6 C 150.5 29.6 150.5 29.5 150.5 29.5 C 150.5 25.2 152 21.5 155.1 18.5 C 158.2 15.6 162 14.1 166.6 14.1 C 171.1 14.1 174.9 15.5 178 18.5 C 181.1 21.4 182.6 25.1 182.6 29.4 C 182.6 29.4 182.6 29.5 182.6 29.5 C 182.6 33.8 181 37.5 178 40.5 C 174.9 43.5 171.1 45 166.5 45 Z M 166.6 37.7 C 168.9 37.7 170.8 36.9 172.2 35.4 C 173.6 33.8 174.3 31.9 174.3 29.6 C 174.3 29.6 174.3 29.5 174.3 29.5 C 174.3 27.3 173.6 25.3 172.1 23.7 C 170.6 22.1 168.8 21.3 166.5 21.3 C 164.2 21.3 162.3 22.1 160.9 23.6 C 159.5 25.2 158.8 27.1 158.8 29.4 C 158.8 29.4 158.8 29.5 158.8 29.5 C 158.8 31.8 159.5 33.7 161 35.3 C 162.4 36.9 164.3 37.7 166.6 37.7 Z " stroke="none" fill="#fff"/>  </g></svg>