<?xml version="1.0" standalone="no"?><!DOCTYPE svg PUBLIC "-//W3C//DTD SVG 1.1//EN" "http://www.w3.org/Graphics/SVG/1.1/DTD/svg11.dtd"><svg xmlns="http://www.w3.org/2000/svg" version="1.1" width="69.5px" height="20.5px" viewBox="0 -1 69.5 20.5" style="top:-1px">  <desc>₺2.202,22</desc>  <defs/>  <g id="Polygon377076">    <path d="M 2.3 4.8 L 2.3 11.9 L 1.4 11.9 L 1.4 4.8 L 2.3 4.8 Z M 4.2 8.2 L 5.1 8.2 C 5.1 8.2 5.13 8.58 5.1 8.6 C 5.1 9.1 5.1 9.6 4.9 10 C 4.8 10.4 4.6 10.8 4.4 11.1 C 4.1 11.4 3.8 11.6 3.4 11.8 C 3.1 11.9 2.7 12 2.3 12 C 2.1 12 2 12 1.8 12 C 1.7 12 1.5 11.9 1.4 11.9 C 1.4 11.9 2.3 11.2 2.3 11.2 C 2.6 11.2 2.9 11.2 3.1 11 C 3.3 10.9 3.5 10.8 3.7 10.5 C 3.9 10.3 4 10 4.1 9.7 C 4.2 9.4 4.2 9 4.2 8.6 C 4.2 8.58 4.2 8.2 4.2 8.2 Z M 3.5 5.5 L 3.5 6.4 L 0.2 7.9 L 0.2 7 L 3.5 5.5 Z M 3.5 7.1 L 3.5 8 L 0.2 9.5 L 0.2 8.6 L 3.5 7.1 Z M 10.8 11.2 L 10.8 11.9 L 6.2 11.9 L 6.2 11.3 C 6.2 11.3 8.49 8.67 8.5 8.7 C 8.8 8.4 9 8.1 9.2 7.9 C 9.3 7.6 9.4 7.4 9.5 7.3 C 9.6 7.1 9.6 6.9 9.6 6.7 C 9.6 6.5 9.5 6.3 9.4 6.1 C 9.3 5.9 9.2 5.7 9 5.6 C 8.8 5.5 8.6 5.5 8.3 5.5 C 8 5.5 7.8 5.5 7.6 5.6 C 7.3 5.8 7.2 5.9 7.1 6.1 C 7 6.4 6.9 6.6 6.9 6.9 C 6.9 6.9 6 6.9 6 6.9 C 6 6.5 6.1 6.1 6.3 5.8 C 6.5 5.5 6.7 5.2 7.1 5 C 7.4 4.8 7.8 4.7 8.3 4.7 C 8.8 4.7 9.2 4.8 9.5 4.9 C 9.8 5.1 10.1 5.3 10.2 5.6 C 10.4 5.9 10.5 6.2 10.5 6.6 C 10.5 6.8 10.5 7 10.4 7.2 C 10.3 7.5 10.2 7.7 10.1 7.9 C 10 8.1 9.8 8.3 9.7 8.5 C 9.5 8.7 9.3 8.9 9.2 9.1 C 9.16 9.11 7.3 11.2 7.3 11.2 L 10.8 11.2 Z M 11.9 11.4 C 11.9 11.3 11.9 11.2 12 11 C 12.1 10.9 12.3 10.9 12.5 10.9 C 12.6 10.9 12.8 10.9 12.9 11 C 13 11.2 13 11.3 13 11.4 C 13 11.6 13 11.7 12.9 11.8 C 12.8 11.9 12.6 12 12.5 12 C 12.3 12 12.1 11.9 12 11.8 C 11.9 11.7 11.9 11.6 11.9 11.4 Z M 19.1 11.2 L 19.1 11.9 L 14.4 11.9 L 14.4 11.3 C 14.4 11.3 16.75 8.67 16.7 8.7 C 17 8.4 17.3 8.1 17.4 7.9 C 17.6 7.6 17.7 7.4 17.7 7.3 C 17.8 7.1 17.8 6.9 17.8 6.7 C 17.8 6.5 17.8 6.3 17.7 6.1 C 17.6 5.9 17.5 5.7 17.3 5.6 C 17.1 5.5 16.9 5.5 16.6 5.5 C 16.3 5.5 16 5.5 15.8 5.6 C 15.6 5.8 15.4 5.9 15.3 6.1 C 15.2 6.4 15.2 6.6 15.2 6.9 C 15.2 6.9 14.3 6.9 14.3 6.9 C 14.3 6.5 14.4 6.1 14.5 5.8 C 14.7 5.5 15 5.2 15.3 5 C 15.7 4.8 16.1 4.7 16.6 4.7 C 17.1 4.7 17.4 4.8 17.8 4.9 C 18.1 5.1 18.3 5.3 18.5 5.6 C 18.7 5.9 18.7 6.2 18.7 6.6 C 18.7 6.8 18.7 7 18.6 7.2 C 18.6 7.5 18.5 7.7 18.4 7.9 C 18.2 8.1 18.1 8.3 17.9 8.5 C 17.8 8.7 17.6 8.9 17.4 9.1 C 17.41 9.11 15.5 11.2 15.5 11.2 L 19.1 11.2 Z M 24.5 7.8 C 24.5 7.8 24.5 8.9 24.5 8.9 C 24.5 9.5 24.4 10 24.3 10.4 C 24.2 10.8 24.1 11.1 23.9 11.3 C 23.7 11.6 23.5 11.7 23.2 11.8 C 22.9 12 22.6 12 22.3 12 C 22 12 21.7 12 21.5 11.9 C 21.3 11.8 21.1 11.7 20.9 11.6 C 20.7 11.4 20.5 11.2 20.4 11 C 20.3 10.7 20.2 10.4 20.1 10.1 C 20 9.8 20 9.3 20 8.9 C 20 8.9 20 7.8 20 7.8 C 20 7.2 20.1 6.7 20.2 6.3 C 20.3 5.9 20.4 5.6 20.6 5.4 C 20.8 5.1 21 5 21.3 4.9 C 21.6 4.8 21.9 4.7 22.2 4.7 C 22.5 4.7 22.8 4.7 23 4.8 C 23.2 4.9 23.5 5 23.6 5.1 C 23.8 5.3 24 5.5 24.1 5.7 C 24.2 5.9 24.3 6.2 24.4 6.6 C 24.5 6.9 24.5 7.3 24.5 7.8 Z M 23.6 9 C 23.6 9 23.6 7.6 23.6 7.6 C 23.6 7.3 23.6 7 23.5 6.8 C 23.5 6.6 23.4 6.4 23.4 6.2 C 23.3 6 23.2 5.9 23.1 5.8 C 23 5.7 22.9 5.6 22.7 5.5 C 22.6 5.5 22.4 5.4 22.2 5.4 C 22 5.4 21.8 5.5 21.7 5.6 C 21.5 5.6 21.4 5.8 21.3 5.9 C 21.1 6.1 21.1 6.3 21 6.6 C 20.9 6.9 20.9 7.2 20.9 7.6 C 20.9 7.6 20.9 9 20.9 9 C 20.9 9.3 20.9 9.6 21 9.9 C 21 10.1 21.1 10.3 21.1 10.5 C 21.2 10.7 21.3 10.8 21.4 10.9 C 21.5 11.1 21.6 11.1 21.8 11.2 C 21.9 11.2 22.1 11.3 22.3 11.3 C 22.5 11.3 22.7 11.2 22.8 11.1 C 23 11.1 23.1 10.9 23.3 10.7 C 23.4 10.6 23.5 10.3 23.5 10 C 23.6 9.8 23.6 9.4 23.6 9 Z M 30.3 11.2 L 30.3 11.9 L 25.7 11.9 L 25.7 11.3 C 25.7 11.3 27.99 8.67 28 8.7 C 28.3 8.4 28.5 8.1 28.7 7.9 C 28.8 7.6 28.9 7.4 29 7.3 C 29.1 7.1 29.1 6.9 29.1 6.7 C 29.1 6.5 29 6.3 28.9 6.1 C 28.8 5.9 28.7 5.7 28.5 5.6 C 28.3 5.5 28.1 5.5 27.8 5.5 C 27.5 5.5 27.3 5.5 27.1 5.6 C 26.8 5.8 26.7 5.9 26.6 6.1 C 26.5 6.4 26.4 6.6 26.4 6.9 C 26.4 6.9 25.5 6.9 25.5 6.9 C 25.5 6.5 25.6 6.1 25.8 5.8 C 26 5.5 26.2 5.2 26.6 5 C 26.9 4.8 27.3 4.7 27.8 4.7 C 28.3 4.7 28.7 4.8 29 4.9 C 29.3 5.1 29.6 5.3 29.7 5.6 C 29.9 5.9 30 6.2 30 6.6 C 30 6.8 30 7 29.9 7.2 C 29.8 7.5 29.7 7.7 29.6 7.9 C 29.5 8.1 29.3 8.3 29.2 8.5 C 29 8.7 28.8 8.9 28.7 9.1 C 28.65 9.11 26.7 11.2 26.7 11.2 L 30.3 11.2 Z M 32.2 10.8 C 32.2 10.8 32.19 11.57 32.2 11.6 C 32.2 11.9 32.1 12.2 32 12.5 C 31.8 12.8 31.6 13.1 31.3 13.3 C 31.3 13.3 30.8 13 30.8 13 C 30.9 12.8 31 12.7 31.1 12.5 C 31.2 12.4 31.2 12.2 31.3 12.1 C 31.3 11.9 31.3 11.8 31.3 11.6 C 31.31 11.58 31.3 10.8 31.3 10.8 L 32.2 10.8 Z M 37.9 11.2 L 37.9 11.9 L 33.2 11.9 L 33.2 11.3 C 33.2 11.3 35.58 8.67 35.6 8.7 C 35.9 8.4 36.1 8.1 36.2 7.9 C 36.4 7.6 36.5 7.4 36.6 7.3 C 36.6 7.1 36.7 6.9 36.7 6.7 C 36.7 6.5 36.6 6.3 36.5 6.1 C 36.4 5.9 36.3 5.7 36.1 5.6 C 35.9 5.5 35.7 5.5 35.4 5.5 C 35.1 5.5 34.9 5.5 34.6 5.6 C 34.4 5.8 34.3 5.9 34.2 6.1 C 34.1 6.4 34 6.6 34 6.9 C 34 6.9 33.1 6.9 33.1 6.9 C 33.1 6.5 33.2 6.1 33.4 5.8 C 33.5 5.5 33.8 5.2 34.2 5 C 34.5 4.8 34.9 4.7 35.4 4.7 C 35.9 4.7 36.3 4.8 36.6 4.9 C 36.9 5.1 37.1 5.3 37.3 5.6 C 37.5 5.9 37.6 6.2 37.6 6.6 C 37.6 6.8 37.5 7 37.5 7.2 C 37.4 7.5 37.3 7.7 37.2 7.9 C 37.1 8.1 36.9 8.3 36.8 8.5 C 36.6 8.7 36.4 8.9 36.2 9.1 C 36.24 9.11 34.3 11.2 34.3 11.2 L 37.9 11.2 Z M 43.5 11.2 L 43.5 11.9 L 38.9 11.9 L 38.9 11.3 C 38.9 11.3 41.2 8.67 41.2 8.7 C 41.5 8.4 41.7 8.1 41.9 7.9 C 42 7.6 42.1 7.4 42.2 7.3 C 42.3 7.1 42.3 6.9 42.3 6.7 C 42.3 6.5 42.2 6.3 42.1 6.1 C 42 5.9 41.9 5.7 41.7 5.6 C 41.5 5.5 41.3 5.5 41 5.5 C 40.7 5.5 40.5 5.5 40.3 5.6 C 40.1 5.8 39.9 5.9 39.8 6.1 C 39.7 6.4 39.6 6.6 39.6 6.9 C 39.6 6.9 38.7 6.9 38.7 6.9 C 38.7 6.5 38.8 6.1 39 5.8 C 39.2 5.5 39.4 5.2 39.8 5 C 40.1 4.8 40.5 4.7 41 4.7 C 41.5 4.7 41.9 4.8 42.2 4.9 C 42.5 5.1 42.8 5.3 42.9 5.6 C 43.1 5.9 43.2 6.2 43.2 6.6 C 43.2 6.8 43.2 7 43.1 7.2 C 43 7.5 42.9 7.7 42.8 7.9 C 42.7 8.1 42.5 8.3 42.4 8.5 C 42.2 8.7 42 8.9 41.9 9.1 C 41.86 9.11 40 11.2 40 11.2 L 43.5 11.2 Z " stroke="none" fill="#000"/>  </g></svg>