<?xml version="1.0" standalone="no"?><!DOCTYPE svg PUBLIC "-//W3C//DTD SVG 1.1//EN" "http://www.w3.org/Graphics/SVG/1.1/DTD/svg11.dtd"><svg xmlns="http://www.w3.org/2000/svg" version="1.1" width="167.3px" height="22.5px" viewBox="0 -4 167.3 22.5" style="top:-4px">  <desc>Singles | B ak Stand</desc>  <defs/>  <g id="Polygon372993">    <path d="M 4.1 9.9 C 2.7 9.9 1.5 9.5 0.5 8.6 C 0.5 8.6 1.4 7.5 1.4 7.5 C 2.3 8.2 3.2 8.6 4.1 8.6 C 4.6 8.6 5 8.5 5.3 8.3 C 5.5 8.1 5.7 7.8 5.7 7.5 C 5.7 7.5 5.7 7.5 5.7 7.5 C 5.7 7.2 5.5 6.9 5.3 6.7 C 5 6.5 4.5 6.3 3.7 6.2 C 2.7 5.9 2 5.6 1.6 5.3 C 1.1 4.9 0.9 4.4 0.9 3.6 C 0.9 3.6 0.9 3.6 0.9 3.6 C 0.9 2.9 1.1 2.3 1.7 1.8 C 2.2 1.3 2.9 1.1 3.8 1.1 C 5 1.1 6 1.5 6.9 2.2 C 6.9 2.2 6.1 3.3 6.1 3.3 C 5.3 2.7 4.5 2.4 3.8 2.4 C 3.3 2.4 3 2.5 2.8 2.7 C 2.5 2.9 2.4 3.2 2.4 3.5 C 2.4 3.5 2.4 3.5 2.4 3.5 C 2.4 3.8 2.5 4.1 2.8 4.3 C 3.1 4.4 3.6 4.6 4.4 4.8 C 5.4 5.1 6.1 5.4 6.5 5.8 C 6.9 6.1 7.2 6.7 7.2 7.3 C 7.2 7.3 7.2 7.4 7.2 7.4 C 7.2 8.2 6.9 8.8 6.3 9.2 C 5.8 9.7 5 9.9 4.1 9.9 Z M 8.8 2.3 L 8.8 0.9 L 10.4 0.9 L 10.4 2.3 L 8.8 2.3 Z M 8.8 9.8 L 8.8 3.3 L 10.3 3.3 L 10.3 9.8 L 8.8 9.8 Z M 12.3 9.8 L 12.3 3.3 L 13.8 3.3 C 13.8 3.3 13.76 4.33 13.8 4.3 C 14.3 3.6 15 3.2 15.8 3.2 C 16.5 3.2 17.1 3.4 17.5 3.9 C 17.9 4.3 18.1 4.9 18.1 5.7 C 18.09 5.67 18.1 9.8 18.1 9.8 L 16.6 9.8 C 16.6 9.8 16.6 6.13 16.6 6.1 C 16.6 5.6 16.5 5.2 16.2 5 C 16 4.7 15.7 4.5 15.2 4.5 C 14.8 4.5 14.4 4.7 14.2 5 C 13.9 5.3 13.8 5.7 13.8 6.2 C 13.76 6.15 13.8 9.8 13.8 9.8 L 12.3 9.8 Z M 25.4 10.9 C 24.8 11.5 23.9 11.8 22.8 11.8 C 21.7 11.8 20.7 11.5 19.9 11 C 19.9 11 20.4 9.9 20.4 9.9 C 21.1 10.4 21.9 10.6 22.7 10.6 C 23.4 10.6 23.9 10.4 24.2 10.1 C 24.6 9.7 24.8 9.3 24.8 8.6 C 24.8 8.6 24.8 8.1 24.8 8.1 C 24.2 8.9 23.4 9.3 22.5 9.3 C 21.7 9.3 21 9 20.4 8.5 C 19.8 7.9 19.5 7.2 19.5 6.3 C 19.5 6.3 19.5 6.2 19.5 6.2 C 19.5 5.3 19.8 4.6 20.4 4 C 21 3.5 21.7 3.2 22.5 3.2 C 23.4 3.2 24.1 3.6 24.8 4.3 C 24.75 4.3 24.8 3.3 24.8 3.3 L 26.2 3.3 C 26.2 3.3 26.24 8.48 26.2 8.5 C 26.2 9.6 26 10.4 25.4 10.9 C 25.4 10.9 25.4 10.9 25.4 10.9 Z M 22.9 8 C 23.4 8 23.8 7.9 24.2 7.5 C 24.6 7.2 24.8 6.8 24.8 6.2 C 24.8 6.2 24.8 6.2 24.8 6.2 C 24.8 5.7 24.6 5.3 24.2 5 C 23.8 4.6 23.4 4.5 22.9 4.5 C 22.4 4.5 21.9 4.6 21.6 5 C 21.2 5.3 21 5.7 21 6.2 C 21 6.2 21 6.2 21 6.2 C 21 6.8 21.2 7.2 21.6 7.5 C 21.9 7.9 22.4 8 22.9 8 Z M 28.2 9.8 L 28.2 0.9 L 29.7 0.9 L 29.7 9.8 L 28.2 9.8 Z M 37.2 8.7 C 36.5 9.5 35.6 9.9 34.6 9.9 C 33.6 9.9 32.8 9.6 32.2 9 C 31.6 8.4 31.2 7.6 31.2 6.6 C 31.2 6.6 31.2 6.6 31.2 6.6 C 31.2 5.6 31.5 4.8 32.1 4.2 C 32.7 3.5 33.5 3.2 34.4 3.2 C 35.4 3.2 36.2 3.5 36.7 4.2 C 37.2 4.9 37.5 5.7 37.5 6.7 C 37.5 6.8 37.5 6.9 37.5 7.1 C 37.5 7.1 32.7 7.1 32.7 7.1 C 32.8 7.6 33 8 33.4 8.3 C 33.7 8.6 34.1 8.7 34.6 8.7 C 35.2 8.7 35.8 8.5 36.3 8 C 36.34 7.96 37.2 8.7 37.2 8.7 C 37.2 8.7 37.21 8.74 37.2 8.7 Z M 32.7 6.1 C 32.7 6.1 36 6.1 36 6.1 C 36 5.6 35.8 5.2 35.5 4.9 C 35.2 4.6 34.9 4.4 34.4 4.4 C 33.9 4.4 33.6 4.6 33.3 4.9 C 33 5.2 32.8 5.6 32.7 6.1 Z M 41.2 9.9 C 40.2 9.9 39.3 9.6 38.5 9 C 38.5 9 39.1 8 39.1 8 C 39.9 8.5 40.6 8.7 41.3 8.7 C 41.6 8.7 41.8 8.7 42 8.6 C 42.2 8.4 42.3 8.3 42.3 8.1 C 42.3 8.1 42.3 8 42.3 8 C 42.3 7.9 42.2 7.8 42.2 7.7 C 42.1 7.7 42 7.6 41.8 7.5 C 41.7 7.4 41.5 7.4 41.5 7.3 C 41.4 7.3 41.2 7.2 40.9 7.2 C 40.9 7.1 40.8 7.1 40.8 7.1 C 40.5 7 40.3 7 40.1 6.9 C 39.9 6.8 39.7 6.7 39.5 6.5 C 39.2 6.4 39.1 6.2 39 6 C 38.9 5.8 38.8 5.5 38.8 5.2 C 38.8 5.2 38.8 5.2 38.8 5.2 C 38.8 4.6 39 4.1 39.5 3.8 C 39.9 3.4 40.4 3.2 41.1 3.2 C 41.9 3.2 42.7 3.5 43.5 4 C 43.5 4 42.9 5 42.9 5 C 42.2 4.6 41.6 4.4 41.1 4.4 C 40.8 4.4 40.6 4.5 40.4 4.6 C 40.2 4.7 40.2 4.9 40.2 5 C 40.2 5 40.2 5.1 40.2 5.1 C 40.2 5.2 40.2 5.3 40.4 5.5 C 40.5 5.6 40.7 5.7 40.9 5.7 C 41 5.8 41.3 5.9 41.6 6 C 41.9 6.1 42.1 6.2 42.3 6.2 C 42.5 6.3 42.7 6.4 43 6.6 C 43.2 6.7 43.3 6.9 43.5 7.1 C 43.6 7.3 43.6 7.6 43.6 7.9 C 43.6 7.9 43.6 7.9 43.6 7.9 C 43.6 8.5 43.4 9 42.9 9.4 C 42.5 9.7 41.9 9.9 41.2 9.9 Z M 49.3 11.4 L 49.3 0 L 50.5 0 L 50.5 11.4 L 49.3 11.4 Z M 56.7 9.8 L 56.7 1.2 C 56.7 1.2 60.57 1.23 60.6 1.2 C 61.6 1.2 62.3 1.5 62.8 2 C 63.2 2.4 63.4 2.8 63.4 3.4 C 63.4 3.4 63.4 3.4 63.4 3.4 C 63.4 4.3 63 4.9 62.2 5.3 C 62.7 5.5 63.1 5.8 63.4 6.1 C 63.7 6.4 63.9 6.9 63.9 7.4 C 63.9 7.4 63.9 7.5 63.9 7.5 C 63.9 8.2 63.6 8.8 63 9.2 C 62.4 9.6 61.7 9.8 60.7 9.8 C 60.69 9.8 56.7 9.8 56.7 9.8 Z M 61.9 3.7 C 61.9 3.7 61.9 3.7 61.9 3.7 C 61.9 3.3 61.8 3 61.5 2.8 C 61.2 2.7 60.9 2.6 60.4 2.6 C 60.37 2.56 58.2 2.6 58.2 2.6 L 58.2 4.8 C 58.2 4.8 60.26 4.84 60.3 4.8 C 60.8 4.8 61.2 4.7 61.5 4.5 C 61.7 4.3 61.9 4.1 61.9 3.7 Z M 62.4 7.3 C 62.4 7.3 62.4 7.3 62.4 7.3 C 62.4 6.5 61.8 6.1 60.6 6.1 C 60.59 6.11 58.2 6.1 58.2 6.1 L 58.2 8.5 C 58.2 8.5 60.7 8.47 60.7 8.5 C 61.2 8.5 61.6 8.4 61.9 8.2 C 62.2 8 62.4 7.7 62.4 7.3 Z M 65.5 9.8 L 65.5 3.3 L 67 3.3 L 67 9.8 L 65.5 9.8 Z M 71.4 11.8 L 70.1 11.3 C 70.1 11.3 71.03 9.84 71 9.8 C 70.3 9.7 69.7 9.3 69.2 8.7 C 68.8 8.1 68.5 7.4 68.5 6.6 C 68.5 6.6 68.5 6.6 68.5 6.6 C 68.5 5.6 68.9 4.9 69.5 4.2 C 70.1 3.5 71 3.2 71.9 3.2 C 72.9 3.2 73.8 3.6 74.5 4.3 C 74.5 4.3 73.6 5.3 73.6 5.3 C 73.1 4.8 72.5 4.5 71.9 4.5 C 71.4 4.5 70.9 4.7 70.6 5.1 C 70.2 5.5 70 6 70 6.6 C 70 6.6 70 6.6 70 6.6 C 70 7.2 70.2 7.7 70.6 8.1 C 70.9 8.5 71.4 8.7 72 8.7 C 72.6 8.7 73.1 8.4 73.6 7.9 C 73.6 7.9 74.5 8.7 74.5 8.7 C 73.9 9.5 73.1 9.9 72.2 9.9 C 72.16 9.94 71.4 11.8 71.4 11.8 Z M 79.9 9 C 79.3 9.6 78.6 9.9 77.8 9.9 C 77.1 9.9 76.6 9.8 76.1 9.4 C 75.7 9.1 75.5 8.6 75.5 7.9 C 75.5 7.9 75.5 7.9 75.5 7.9 C 75.5 7.2 75.7 6.7 76.2 6.4 C 76.7 6 77.3 5.8 78.1 5.8 C 78.7 5.8 79.3 5.9 79.9 6.1 C 79.9 6.1 79.9 5.9 79.9 5.9 C 79.9 5 79.3 4.5 78.3 4.5 C 77.7 4.5 77.1 4.7 76.4 4.9 C 76.4 4.9 76 3.8 76 3.8 C 76.8 3.4 77.7 3.2 78.5 3.2 C 79.4 3.2 80.2 3.5 80.6 4 C 81.1 4.4 81.3 5.1 81.3 6 C 81.31 5.97 81.3 9.8 81.3 9.8 L 79.9 9.8 L 79.9 9 C 79.9 9 79.87 8.99 79.9 9 Z M 78.2 8.9 C 78.7 8.9 79.1 8.7 79.4 8.5 C 79.7 8.2 79.9 7.9 79.9 7.5 C 79.9 7.5 79.9 7 79.9 7 C 79.5 6.9 79 6.8 78.4 6.8 C 78 6.8 77.6 6.9 77.3 7.1 C 77 7.2 76.9 7.5 76.9 7.9 C 76.9 7.9 76.9 7.9 76.9 7.9 C 76.9 8.2 77 8.4 77.3 8.6 C 77.5 8.8 77.8 8.9 78.2 8.9 Z M 83.1 9.8 L 83.1 0.9 L 84.6 0.9 L 84.6 6.2 L 87.3 3.3 L 89.1 3.3 L 86.5 6 L 89.1 9.8 L 87.4 9.8 L 85.5 7 L 84.6 8 L 84.6 9.8 L 83.1 9.8 Z M 97.1 9.9 C 95.7 9.9 94.5 9.5 93.5 8.6 C 93.5 8.6 94.4 7.5 94.4 7.5 C 95.3 8.2 96.2 8.6 97.1 8.6 C 97.6 8.6 97.9 8.5 98.2 8.3 C 98.5 8.1 98.6 7.8 98.6 7.5 C 98.6 7.5 98.6 7.5 98.6 7.5 C 98.6 7.2 98.5 6.9 98.2 6.7 C 98 6.5 97.5 6.3 96.7 6.2 C 95.7 5.9 95 5.6 94.5 5.3 C 94.1 4.9 93.8 4.4 93.8 3.6 C 93.8 3.6 93.8 3.6 93.8 3.6 C 93.8 2.9 94.1 2.3 94.7 1.8 C 95.2 1.3 95.9 1.1 96.8 1.1 C 97.9 1.1 99 1.5 99.9 2.2 C 99.9 2.2 99.1 3.3 99.1 3.3 C 98.3 2.7 97.5 2.4 96.7 2.4 C 96.3 2.4 96 2.5 95.7 2.7 C 95.5 2.9 95.3 3.2 95.3 3.5 C 95.3 3.5 95.3 3.5 95.3 3.5 C 95.3 3.8 95.5 4.1 95.8 4.3 C 96 4.4 96.6 4.6 97.4 4.8 C 98.3 5.1 99 5.4 99.5 5.8 C 99.9 6.1 100.1 6.7 100.1 7.3 C 100.1 7.3 100.1 7.4 100.1 7.4 C 100.1 8.2 99.9 8.8 99.3 9.2 C 98.7 9.7 98 9.9 97.1 9.9 Z M 105.2 9.6 C 104.8 9.8 104.3 9.9 103.8 9.9 C 102.6 9.9 102 9.3 102 8 C 101.99 8.01 102 4.6 102 4.6 L 101.2 4.6 L 101.2 3.3 L 102 3.3 L 102 1.6 L 103.5 1.6 L 103.5 3.3 L 105.2 3.3 L 105.2 4.6 L 103.5 4.6 C 103.5 4.6 103.47 7.78 103.5 7.8 C 103.5 8.3 103.7 8.6 104.3 8.6 C 104.6 8.6 104.9 8.5 105.2 8.4 C 105.18 8.37 105.2 9.6 105.2 9.6 C 105.2 9.6 105.18 9.58 105.2 9.6 Z M 110.7 9 C 110.2 9.6 109.5 9.9 108.6 9.9 C 107.9 9.9 107.4 9.8 106.9 9.4 C 106.5 9.1 106.3 8.6 106.3 7.9 C 106.3 7.9 106.3 7.9 106.3 7.9 C 106.3 7.2 106.5 6.7 107 6.4 C 107.5 6 108.1 5.8 109 5.8 C 109.6 5.8 110.1 5.9 110.7 6.1 C 110.7 6.1 110.7 5.9 110.7 5.9 C 110.7 5 110.2 4.5 109.1 4.5 C 108.5 4.5 107.9 4.7 107.2 4.9 C 107.2 4.9 106.8 3.8 106.8 3.8 C 107.7 3.4 108.5 3.2 109.3 3.2 C 110.3 3.2 111 3.5 111.4 4 C 111.9 4.4 112.1 5.1 112.1 6 C 112.13 5.97 112.1 9.8 112.1 9.8 L 110.7 9.8 L 110.7 9 C 110.7 9 110.69 8.99 110.7 9 Z M 109 8.9 C 109.5 8.9 109.9 8.7 110.2 8.5 C 110.6 8.2 110.7 7.9 110.7 7.5 C 110.7 7.5 110.7 7 110.7 7 C 110.3 6.9 109.8 6.8 109.3 6.8 C 108.8 6.8 108.4 6.9 108.1 7.1 C 107.9 7.2 107.7 7.5 107.7 7.9 C 107.7 7.9 107.7 7.9 107.7 7.9 C 107.7 8.2 107.9 8.4 108.1 8.6 C 108.3 8.8 108.6 8.9 109 8.9 Z M 113.9 9.8 L 113.9 3.3 L 115.4 3.3 C 115.4 3.3 115.39 4.33 115.4 4.3 C 115.9 3.6 116.6 3.2 117.4 3.2 C 118.1 3.2 118.7 3.4 119.1 3.9 C 119.5 4.3 119.7 4.9 119.7 5.7 C 119.72 5.67 119.7 9.8 119.7 9.8 L 118.2 9.8 C 118.2 9.8 118.23 6.13 118.2 6.1 C 118.2 5.6 118.1 5.2 117.9 5 C 117.6 4.7 117.3 4.5 116.8 4.5 C 116.4 4.5 116.1 4.7 115.8 5 C 115.5 5.3 115.4 5.7 115.4 6.2 C 115.39 6.15 115.4 9.8 115.4 9.8 L 113.9 9.8 Z M 126.4 8.7 C 125.8 9.5 125.1 9.9 124.2 9.9 C 123.4 9.9 122.7 9.6 122.1 9 C 121.5 8.4 121.2 7.6 121.2 6.6 C 121.2 6.6 121.2 6.6 121.2 6.6 C 121.2 5.5 121.5 4.7 122.1 4.1 C 122.7 3.5 123.4 3.2 124.2 3.2 C 125.1 3.2 125.8 3.6 126.4 4.3 C 126.38 4.34 126.4 0.9 126.4 0.9 L 127.9 0.9 L 127.9 9.8 L 126.4 9.8 L 126.4 8.7 C 126.4 8.7 126.38 8.72 126.4 8.7 Z M 124.5 8.7 C 125 8.7 125.5 8.5 125.9 8.1 C 126.2 7.7 126.4 7.2 126.4 6.6 C 126.4 6.6 126.4 6.6 126.4 6.6 C 126.4 6 126.2 5.5 125.9 5.1 C 125.5 4.7 125 4.5 124.5 4.5 C 124 4.5 123.6 4.7 123.2 5.1 C 122.8 5.4 122.7 5.9 122.7 6.6 C 122.7 6.6 122.7 6.6 122.7 6.6 C 122.7 7.2 122.8 7.7 123.2 8.1 C 123.6 8.5 124 8.7 124.5 8.7 Z M 129.8 9.8 L 129.8 3.3 L 131.3 3.3 L 131.3 9.8 L 129.8 9.8 Z " stroke="none" fill="#4f4f4e"/>  </g></svg>