<?xml version="1.0" standalone="no"?><!DOCTYPE svg PUBLIC "-//W3C//DTD SVG 1.1//EN" "http://www.w3.org/Graphics/SVG/1.1/DTD/svg11.dtd"><svg xmlns="http://www.w3.org/2000/svg" version="1.1" width="357px" height="166.6px" viewBox="0 -9 357 166.6" style="top:-9px">  <desc>ta nabilir zerafet</desc>  <defs/>  <g id="Polygon356370">    <path d="M 13.1 25.7 C 11.8 26.4 10.4 26.8 8.8 26.8 C 6.8 26.8 5.3 26.3 4.3 25.4 C 3.3 24.4 2.8 22.9 2.8 20.9 C 2.81 20.86 2.8 13.6 2.8 13.6 L 0.7 13.6 L 0.7 8.5 L 2.8 8.5 L 2.8 4 L 9 4 L 9 8.5 L 13.2 8.5 L 13.2 13.6 L 9 13.6 C 9 13.6 9.04 19.63 9 19.6 C 9 20.8 9.6 21.4 10.8 21.4 C 11.5 21.4 12.3 21.2 13.1 20.8 C 13.13 20.82 13.1 25.7 13.1 25.7 C 13.1 25.7 13.13 25.71 13.1 25.7 Z M 26.3 24.5 C 24.8 26 23.1 26.8 21 26.8 C 19.3 26.8 17.8 26.3 16.7 25.3 C 15.6 24.3 15 23 15 21.3 C 15 21.3 15 21.2 15 21.2 C 15 19.4 15.7 18 16.9 17 C 18.2 16.1 19.9 15.6 22 15.6 C 23.7 15.6 25.1 15.8 26.3 16.3 C 26.3 16.3 26.3 16 26.3 16 C 26.3 14 25.1 13.1 22.8 13.1 C 21.2 13.1 19.5 13.4 17.8 14.1 C 17.8 14.1 16.5 9.7 16.5 9.7 C 18.8 8.7 21.2 8.3 23.8 8.3 C 26.8 8.3 29.1 9 30.6 10.5 C 31.8 11.7 32.5 13.6 32.5 16.1 C 32.47 16.14 32.5 26.4 32.5 26.4 L 26.3 26.4 L 26.3 24.5 C 26.3 24.5 26.3 24.52 26.3 24.5 Z M 23.3 22.9 C 24.2 22.9 24.9 22.6 25.5 22.1 C 26.1 21.5 26.4 20.8 26.4 19.9 C 26.4 19.9 26.4 19.1 26.4 19.1 C 25.6 18.8 24.8 18.6 23.9 18.6 C 23 18.6 22.3 18.8 21.8 19.2 C 21.3 19.6 21.1 20.2 21.1 20.9 C 21.1 20.9 21.1 20.9 21.1 20.9 C 21.1 21.5 21.3 22 21.7 22.3 C 22.1 22.7 22.6 22.9 23.3 22.9 Z M 42.3 32.1 L 37.4 30 C 37.4 30 39.9 26.53 39.9 26.5 C 37.9 26.2 36.1 25.4 34.4 24.1 C 34.4 24.1 36.7 20.4 36.7 20.4 C 38.8 21.7 40.8 22.4 42.8 22.4 C 43.9 22.4 44.4 22.1 44.4 21.4 C 44.4 21.4 44.4 21.4 44.4 21.4 C 44.4 21 44.2 20.8 43.8 20.6 C 43.4 20.4 42.6 20.1 41.5 19.8 C 39.4 19.3 37.9 18.6 36.8 17.8 C 35.7 17 35.2 15.8 35.2 14.2 C 35.2 14.2 35.2 14.1 35.2 14.1 C 35.2 12.2 35.8 10.8 37.2 9.8 C 38.5 8.7 40.2 8.2 42.3 8.2 C 45.1 8.2 47.5 8.9 49.7 10.3 C 49.7 10.3 47.6 14.2 47.6 14.2 C 45.6 13.1 43.8 12.5 42.3 12.5 C 41.3 12.5 40.8 12.8 40.8 13.4 C 40.8 13.4 40.8 13.5 40.8 13.5 C 40.8 13.8 41 14.1 41.4 14.3 C 41.9 14.5 42.6 14.8 43.7 15.1 C 45.8 15.6 47.4 16.3 48.4 17.1 C 49.5 18 50.1 19.2 50.1 20.8 C 50.1 20.8 50.1 20.8 50.1 20.8 C 50.1 22.5 49.5 23.9 48.5 24.9 C 47.4 25.9 46 26.5 44.2 26.7 C 44.19 26.7 42.3 32.1 42.3 32.1 Z M 52.8 26.4 L 52.8 8.5 L 59 8.5 L 59 26.4 L 52.8 26.4 Z M 62.6 26.4 L 62.6 8.5 L 68.8 8.5 C 68.8 8.5 68.84 11.05 68.8 11.1 C 70.3 9.1 72.1 8.2 74.2 8.2 C 76.1 8.2 77.6 8.7 78.7 9.9 C 79.7 11.1 80.3 12.7 80.3 14.7 C 80.26 14.72 80.3 26.4 80.3 26.4 L 74 26.4 C 74 26.4 74.02 16.73 74 16.7 C 74 15.8 73.8 15 73.3 14.5 C 72.9 14 72.3 13.7 71.5 13.7 C 70.7 13.7 70 14 69.6 14.5 C 69.1 15 68.8 15.8 68.8 16.7 C 68.84 16.73 68.8 26.4 68.8 26.4 L 62.6 26.4 Z M 93.9 24.5 C 92.4 26 90.7 26.8 88.6 26.8 C 86.8 26.8 85.4 26.3 84.3 25.3 C 83.2 24.3 82.6 23 82.6 21.3 C 82.6 21.3 82.6 21.2 82.6 21.2 C 82.6 19.4 83.3 18 84.5 17 C 85.8 16.1 87.5 15.6 89.6 15.6 C 91.3 15.6 92.7 15.8 93.9 16.3 C 93.9 16.3 93.9 16 93.9 16 C 93.9 14 92.7 13.1 90.4 13.1 C 88.7 13.1 87.1 13.4 85.4 14.1 C 85.4 14.1 84.1 9.7 84.1 9.7 C 86.4 8.7 88.8 8.3 91.3 8.3 C 94.4 8.3 96.7 9 98.1 10.5 C 99.4 11.7 100.1 13.6 100.1 16.1 C 100.06 16.14 100.1 26.4 100.1 26.4 L 93.9 26.4 L 93.9 24.5 C 93.9 24.5 93.89 24.52 93.9 24.5 Z M 90.8 22.9 C 91.8 22.9 92.5 22.6 93.1 22.1 C 93.7 21.5 94 20.8 94 19.9 C 94 19.9 94 19.1 94 19.1 C 93.2 18.8 92.4 18.6 91.5 18.6 C 90.6 18.6 89.9 18.8 89.4 19.2 C 88.9 19.6 88.6 20.2 88.6 20.9 C 88.6 20.9 88.6 20.9 88.6 20.9 C 88.6 21.5 88.8 22 89.2 22.3 C 89.7 22.7 90.2 22.9 90.8 22.9 Z M 115 26.8 C 112.8 26.8 111 25.9 109.5 24.2 C 109.53 24.22 109.5 26.4 109.5 26.4 L 103.3 26.4 L 103.3 2.3 L 109.5 2.3 C 109.5 2.3 109.53 10.92 109.5 10.9 C 111 9.1 112.8 8.2 114.9 8.2 C 117.1 8.2 119 9 120.5 10.7 C 122.1 12.4 122.9 14.6 122.9 17.4 C 122.9 17.4 122.9 17.5 122.9 17.5 C 122.9 20.3 122.1 22.5 120.6 24.2 C 119 25.9 117.2 26.8 115 26.8 Z M 113.1 21.5 C 114.1 21.5 114.9 21.2 115.6 20.4 C 116.4 19.7 116.7 18.7 116.7 17.5 C 116.7 17.5 116.7 17.4 116.7 17.4 C 116.7 16.3 116.4 15.3 115.6 14.5 C 114.9 13.7 114.1 13.4 113.1 13.4 C 112 13.4 111.2 13.7 110.5 14.5 C 109.7 15.3 109.4 16.3 109.4 17.4 C 109.4 17.4 109.4 17.5 109.4 17.5 C 109.4 18.7 109.7 19.6 110.5 20.4 C 111.2 21.2 112 21.5 113.1 21.5 Z M 125.6 6.9 L 125.6 2.3 L 132.1 2.3 L 132.1 6.9 L 125.6 6.9 Z M 125.7 26.4 L 125.7 8.5 L 132 8.5 L 132 26.4 L 125.7 26.4 Z M 135.7 26.4 L 135.7 2.3 L 141.9 2.3 L 141.9 26.4 L 135.7 26.4 Z M 145.5 6.9 L 145.5 2.3 L 152 2.3 L 152 6.9 L 145.5 6.9 Z M 145.6 26.4 L 145.6 8.5 L 151.8 8.5 L 151.8 26.4 L 145.6 26.4 Z M 155.4 26.4 L 155.4 8.5 L 161.6 8.5 C 161.6 8.5 161.63 12.14 161.6 12.1 C 162.8 9.4 164.7 8.1 167.3 8.2 C 167.28 8.25 167.3 14.8 167.3 14.8 C 167.3 14.8 166.75 14.85 166.7 14.8 C 163.3 14.8 161.6 16.8 161.6 20.8 C 161.63 20.82 161.6 26.4 161.6 26.4 L 155.4 26.4 Z M 178.8 26.4 L 178.8 22.3 L 187 13.5 L 179.1 13.5 L 179.1 8.5 L 195.3 8.5 L 195.3 12.6 L 187 21.4 L 195.3 21.4 L 195.3 26.4 L 178.8 26.4 Z M 214.1 23.2 C 212.2 25.6 209.6 26.8 206.3 26.8 C 203.5 26.8 201.2 26 199.5 24.3 C 197.7 22.5 196.8 20.3 196.8 17.6 C 196.8 17.6 196.8 17.5 196.8 17.5 C 196.8 14.9 197.6 12.7 199.3 10.9 C 201 9.1 203.2 8.2 205.8 8.2 C 208.7 8.2 210.9 9.1 212.5 10.9 C 214 12.8 214.8 15.1 214.8 17.9 C 214.8 18.5 214.8 18.9 214.7 19.2 C 214.7 19.2 202.8 19.2 202.8 19.2 C 203.3 21.2 204.6 22.1 206.6 22.1 C 208.1 22.1 209.4 21.5 210.6 20.3 C 210.61 20.33 214.1 23.2 214.1 23.2 C 214.1 23.2 214.07 23.2 214.1 23.2 Z M 202.7 16 C 202.7 16 208.9 16 208.9 16 C 208.8 15 208.5 14.2 207.9 13.6 C 207.4 13.1 206.6 12.8 205.8 12.8 C 205 12.8 204.3 13.1 203.8 13.6 C 203.2 14.2 202.9 15 202.7 16 Z M 217.5 26.4 L 217.5 8.5 L 223.7 8.5 C 223.7 8.5 223.74 12.14 223.7 12.1 C 224.9 9.4 226.8 8.1 229.4 8.2 C 229.38 8.25 229.4 14.8 229.4 14.8 C 229.4 14.8 228.85 14.85 228.9 14.8 C 225.4 14.8 223.7 16.8 223.7 20.8 C 223.74 20.82 223.7 26.4 223.7 26.4 L 217.5 26.4 Z M 241.2 24.5 C 239.7 26 238 26.8 235.9 26.8 C 234.1 26.8 232.7 26.3 231.6 25.3 C 230.5 24.3 229.9 23 229.9 21.3 C 229.9 21.3 229.9 21.2 229.9 21.2 C 229.9 19.4 230.5 18 231.8 17 C 233 16.1 234.8 15.6 236.9 15.6 C 238.6 15.6 240 15.8 241.2 16.3 C 241.2 16.3 241.2 16 241.2 16 C 241.2 14 240 13.1 237.6 13.1 C 236 13.1 234.4 13.4 232.7 14.1 C 232.7 14.1 231.4 9.7 231.4 9.7 C 233.6 8.7 236 8.3 238.6 8.3 C 241.7 8.3 244 9 245.4 10.5 C 246.7 11.7 247.3 13.6 247.3 16.1 C 247.33 16.14 247.3 26.4 247.3 26.4 L 241.2 26.4 L 241.2 24.5 C 241.2 24.5 241.16 24.52 241.2 24.5 Z M 238.1 22.9 C 239.1 22.9 239.8 22.6 240.4 22.1 C 241 21.5 241.3 20.8 241.3 19.9 C 241.3 19.9 241.3 19.1 241.3 19.1 C 240.5 18.8 239.7 18.6 238.8 18.6 C 237.9 18.6 237.2 18.8 236.7 19.2 C 236.2 19.6 235.9 20.2 235.9 20.9 C 235.9 20.9 235.9 20.9 235.9 20.9 C 235.9 21.5 236.1 22 236.5 22.3 C 236.9 22.7 237.5 22.9 238.1 22.9 Z M 251.7 26.4 L 251.7 13.6 L 249.6 13.6 L 249.6 8.6 L 251.7 8.6 C 251.7 8.6 251.66 8.25 251.7 8.2 C 251.7 6.2 252.2 4.6 253.2 3.6 C 254.2 2.6 255.8 2.1 257.9 2.1 C 259.5 2.1 260.9 2.2 261.9 2.6 C 261.9 2.6 261.9 7 261.9 7 C 261.1 6.8 260.3 6.6 259.6 6.6 C 258.4 6.6 257.8 7.2 257.8 8.3 C 257.8 8.32 257.8 8.7 257.8 8.7 L 261.9 8.7 L 261.9 13.6 L 257.9 13.6 L 257.9 26.4 L 251.7 26.4 Z M 280.1 23.2 C 278.3 25.6 275.7 26.8 272.4 26.8 C 269.6 26.8 267.3 26 265.5 24.3 C 263.7 22.5 262.8 20.3 262.8 17.6 C 262.8 17.6 262.8 17.5 262.8 17.5 C 262.8 14.9 263.7 12.7 265.4 10.9 C 267.1 9.1 269.2 8.2 271.9 8.2 C 274.8 8.2 277 9.1 278.5 10.9 C 280.1 12.8 280.8 15.1 280.8 17.9 C 280.8 18.5 280.8 18.9 280.8 19.2 C 280.8 19.2 268.9 19.2 268.9 19.2 C 269.3 21.2 270.6 22.1 272.7 22.1 C 274.1 22.1 275.5 21.5 276.7 20.3 C 276.67 20.33 280.1 23.2 280.1 23.2 C 280.1 23.2 280.14 23.2 280.1 23.2 Z M 268.8 16 C 268.8 16 275 16 275 16 C 274.9 15 274.5 14.2 274 13.6 C 273.4 13.1 272.7 12.8 271.9 12.8 C 271 12.8 270.4 13.1 269.8 13.6 C 269.3 14.2 268.9 15 268.8 16 Z M 295 25.7 C 293.7 26.4 292.2 26.8 290.6 26.8 C 288.7 26.8 287.2 26.3 286.2 25.4 C 285.2 24.4 284.7 22.9 284.7 20.9 C 284.66 20.86 284.7 13.6 284.7 13.6 L 282.5 13.6 L 282.5 8.5 L 284.7 8.5 L 284.7 4 L 290.9 4 L 290.9 8.5 L 295.1 8.5 L 295.1 13.6 L 290.9 13.6 C 290.9 13.6 290.89 19.63 290.9 19.6 C 290.9 20.8 291.5 21.4 292.6 21.4 C 293.4 21.4 294.2 21.2 295 20.8 C 294.99 20.82 295 25.7 295 25.7 C 295 25.7 294.99 25.71 295 25.7 Z " stroke="none" fill="#fff"/>  </g></svg>