<?xml version="1.0" standalone="no"?><!DOCTYPE svg PUBLIC "-//W3C//DTD SVG 1.1//EN" "http://www.w3.org/Graphics/SVG/1.1/DTD/svg11.dtd"><svg xmlns="http://www.w3.org/2000/svg" version="1.1" width="49px" height="22.4px" viewBox="0 -3 49 22.4" style="top:-3px">  <desc>29555 Taupe</desc>  <defs/>  <g id="Polygon431934">    <path d="M 16 14 L 16 9.6 L 14.4 9.6 L 14.4 9.1 L 18.2 9.1 L 18.2 9.6 L 16.6 9.6 L 16.6 14 L 16 14 Z M 20.7 13.5 C 20.4 13.9 19.9 14.1 19.4 14.1 C 19 14.1 18.7 14 18.4 13.8 C 18.1 13.6 18 13.3 18 12.9 C 18 12.9 18 12.9 18 12.9 C 18 12.6 18.2 12.3 18.4 12.1 C 18.7 11.9 19.1 11.8 19.6 11.8 C 19.9 11.8 20.3 11.8 20.7 11.9 C 20.7 11.9 20.7 11.8 20.7 11.8 C 20.7 11.5 20.6 11.2 20.4 11.1 C 20.2 10.9 19.9 10.8 19.6 10.8 C 19.2 10.8 18.9 10.9 18.5 11.1 C 18.5 11.1 18.3 10.6 18.3 10.6 C 18.8 10.4 19.2 10.3 19.7 10.3 C 20.2 10.3 20.6 10.5 20.8 10.7 C 21.1 11 21.2 11.3 21.2 11.8 C 21.19 11.79 21.2 14 21.2 14 L 20.7 14 L 20.7 13.5 C 20.7 13.5 20.67 13.45 20.7 13.5 Z M 19.5 13.6 C 19.8 13.6 20.1 13.6 20.3 13.4 C 20.6 13.2 20.7 13 20.7 12.7 C 20.7 12.7 20.7 12.3 20.7 12.3 C 20.3 12.2 20 12.2 19.6 12.2 C 19.3 12.2 19 12.2 18.8 12.4 C 18.7 12.5 18.6 12.7 18.6 12.9 C 18.6 12.9 18.6 12.9 18.6 12.9 C 18.6 13.1 18.6 13.3 18.8 13.5 C 19 13.6 19.2 13.6 19.5 13.6 Z M 24.9 13.4 C 24.6 13.8 24.2 14.1 23.7 14.1 C 23.2 14.1 22.9 13.9 22.7 13.7 C 22.4 13.4 22.3 13.1 22.3 12.6 C 22.28 12.63 22.3 10.4 22.3 10.4 L 22.8 10.4 C 22.8 10.4 22.82 12.49 22.8 12.5 C 22.8 12.8 22.9 13.1 23.1 13.3 C 23.3 13.5 23.5 13.6 23.8 13.6 C 24.1 13.6 24.4 13.5 24.6 13.3 C 24.8 13.1 24.9 12.8 24.9 12.5 C 24.91 12.45 24.9 10.4 24.9 10.4 L 25.4 10.4 L 25.4 14 L 24.9 14 L 24.9 13.4 C 24.9 13.4 24.91 13.37 24.9 13.4 Z M 26.7 15.1 L 26.7 10.4 L 27.2 10.4 C 27.2 10.4 27.19 11.11 27.2 11.1 C 27.6 10.6 28 10.3 28.6 10.3 C 29 10.3 29.4 10.5 29.8 10.8 C 30.1 11.2 30.3 11.6 30.3 12.2 C 30.3 12.2 30.3 12.2 30.3 12.2 C 30.3 12.8 30.1 13.2 29.8 13.6 C 29.4 13.9 29 14.1 28.6 14.1 C 28 14.1 27.5 13.8 27.2 13.3 C 27.19 13.31 27.2 15.1 27.2 15.1 L 26.7 15.1 Z M 28.5 13.6 C 28.8 13.6 29.1 13.5 29.4 13.2 C 29.6 13 29.8 12.6 29.8 12.2 C 29.8 12.2 29.8 12.2 29.8 12.2 C 29.8 11.8 29.6 11.4 29.4 11.2 C 29.1 10.9 28.8 10.8 28.5 10.8 C 28.1 10.8 27.8 10.9 27.6 11.2 C 27.3 11.5 27.2 11.8 27.2 12.2 C 27.2 12.2 27.2 12.2 27.2 12.2 C 27.2 12.6 27.3 12.9 27.6 13.2 C 27.8 13.5 28.1 13.6 28.5 13.6 Z M 34.4 13.4 C 34 13.9 33.5 14.1 32.9 14.1 C 32.4 14.1 31.9 13.9 31.6 13.6 C 31.2 13.2 31.1 12.8 31.1 12.2 C 31.1 12.2 31.1 12.2 31.1 12.2 C 31.1 11.7 31.2 11.2 31.6 10.8 C 31.9 10.5 32.3 10.3 32.8 10.3 C 33.3 10.3 33.7 10.5 34 10.8 C 34.3 11.2 34.5 11.7 34.5 12.2 C 34.5 12.3 34.5 12.3 34.5 12.4 C 34.5 12.4 31.6 12.4 31.6 12.4 C 31.7 12.8 31.8 13.1 32 13.3 C 32.3 13.5 32.6 13.6 32.9 13.6 C 33.3 13.6 33.7 13.4 34 13.1 C 34.04 13.1 34.4 13.4 34.4 13.4 C 34.4 13.4 34.37 13.4 34.4 13.4 Z M 31.6 12 C 31.6 12 34 12 34 12 C 33.9 11.6 33.8 11.3 33.6 11.1 C 33.4 10.9 33.1 10.8 32.8 10.8 C 32.5 10.8 32.2 10.9 32 11.1 C 31.8 11.3 31.7 11.6 31.6 12 Z " stroke="none" fill="#000"/>  </g>  <g id="Polygon431933">    <path d="M 13.7 5.6 L 13.7 4.7 C 13.7 4.7 15.33 3.41 15.3 3.4 C 15.6 3.1 15.9 2.9 16 2.8 C 16.1 2.6 16.2 2.4 16.2 2.2 C 16.2 2 16.1 1.9 16 1.8 C 15.9 1.7 15.7 1.6 15.5 1.6 C 15.3 1.6 15.2 1.6 15 1.7 C 14.9 1.8 14.7 2 14.5 2.3 C 14.5 2.3 13.8 1.6 13.8 1.6 C 14 1.3 14.3 1 14.6 0.9 C 14.8 0.7 15.2 0.6 15.6 0.6 C 16.1 0.6 16.5 0.8 16.8 1 C 17.1 1.3 17.3 1.7 17.3 2.1 C 17.3 2.1 17.3 2.2 17.3 2.2 C 17.3 2.5 17.2 2.9 17 3.1 C 16.8 3.4 16.5 3.7 16 4.1 C 15.99 4.05 15.2 4.7 15.2 4.7 L 17.3 4.7 L 17.3 5.6 L 13.7 5.6 Z M 18.8 4.3 C 19.1 4.6 19.5 4.7 19.9 4.7 C 20.1 4.7 20.3 4.6 20.4 4.5 C 20.6 4.4 20.7 4.2 20.7 4.1 C 20.8 3.9 20.8 3.8 20.9 3.6 C 20.6 3.8 20.3 3.9 19.9 3.9 C 19.3 3.9 18.9 3.8 18.6 3.5 C 18.3 3.2 18.1 2.8 18.1 2.3 C 18.1 2.3 18.1 2.3 18.1 2.3 C 18.1 1.8 18.3 1.4 18.6 1.1 C 19 0.8 19.4 0.6 20 0.6 C 20.3 0.6 20.6 0.7 20.8 0.7 C 21 0.8 21.2 1 21.4 1.1 C 21.8 1.5 22 2.2 22 3 C 22 3 22 3 22 3 C 22 3.8 21.8 4.5 21.4 5 C 21 5.4 20.5 5.7 19.8 5.7 C 19.2 5.7 18.7 5.5 18.2 5.1 C 18.22 5.1 18.8 4.3 18.8 4.3 C 18.8 4.3 18.79 4.28 18.8 4.3 Z M 20 3 C 20.3 3 20.5 3 20.6 2.8 C 20.8 2.7 20.9 2.5 20.9 2.3 C 20.9 2.3 20.9 2.3 20.9 2.3 C 20.9 2.1 20.8 1.9 20.6 1.7 C 20.5 1.6 20.3 1.5 20 1.5 C 19.7 1.5 19.5 1.6 19.4 1.7 C 19.3 1.9 19.2 2.1 19.2 2.3 C 19.2 2.3 19.2 2.3 19.2 2.3 C 19.2 2.5 19.3 2.7 19.4 2.8 C 19.6 3 19.8 3 20 3 Z M 24.4 5.7 C 23.7 5.7 23.1 5.4 22.6 4.9 C 22.6 4.9 23.3 4.2 23.3 4.2 C 23.7 4.5 24 4.7 24.4 4.7 C 24.7 4.7 24.9 4.6 25 4.5 C 25.2 4.4 25.3 4.2 25.3 4 C 25.3 4 25.3 4 25.3 4 C 25.3 3.8 25.2 3.6 25 3.5 C 24.9 3.4 24.6 3.3 24.4 3.3 C 24.1 3.3 23.8 3.4 23.6 3.5 C 23.57 3.53 22.9 3.1 22.9 3.1 L 23.1 0.7 L 26.1 0.7 L 26.1 1.6 L 24 1.6 C 24 1.6 23.95 2.49 24 2.5 C 24.2 2.4 24.4 2.4 24.6 2.4 C 25.1 2.4 25.5 2.5 25.8 2.8 C 26.2 3.1 26.3 3.5 26.3 4 C 26.3 4 26.3 4 26.3 4 C 26.3 4.5 26.1 4.9 25.8 5.2 C 25.5 5.5 25 5.7 24.4 5.7 Z M 28.9 5.7 C 28.1 5.7 27.5 5.4 27 4.9 C 27 4.9 27.7 4.2 27.7 4.2 C 28.1 4.5 28.5 4.7 28.8 4.7 C 29.1 4.7 29.3 4.6 29.4 4.5 C 29.6 4.4 29.7 4.2 29.7 4 C 29.7 4 29.7 4 29.7 4 C 29.7 3.8 29.6 3.6 29.4 3.5 C 29.3 3.4 29.1 3.3 28.8 3.3 C 28.5 3.3 28.2 3.4 28 3.5 C 27.98 3.53 27.4 3.1 27.4 3.1 L 27.5 0.7 L 30.5 0.7 L 30.5 1.6 L 28.4 1.6 C 28.4 1.6 28.36 2.49 28.4 2.5 C 28.6 2.4 28.8 2.4 29 2.4 C 29.5 2.4 29.9 2.5 30.2 2.8 C 30.6 3.1 30.7 3.5 30.7 4 C 30.7 4 30.7 4 30.7 4 C 30.7 4.5 30.6 4.9 30.2 5.2 C 29.9 5.5 29.4 5.7 28.9 5.7 Z M 33.3 5.7 C 32.6 5.7 31.9 5.4 31.4 4.9 C 31.4 4.9 32.1 4.2 32.1 4.2 C 32.5 4.5 32.9 4.7 33.3 4.7 C 33.5 4.7 33.7 4.6 33.9 4.5 C 34 4.4 34.1 4.2 34.1 4 C 34.1 4 34.1 4 34.1 4 C 34.1 3.8 34 3.6 33.8 3.5 C 33.7 3.4 33.5 3.3 33.2 3.3 C 32.9 3.3 32.7 3.4 32.4 3.5 C 32.39 3.53 31.8 3.1 31.8 3.1 L 31.9 0.7 L 34.9 0.7 L 34.9 1.6 L 32.8 1.6 C 32.8 1.6 32.77 2.49 32.8 2.5 C 33 2.4 33.2 2.4 33.4 2.4 C 33.9 2.4 34.3 2.5 34.7 2.8 C 35 3.1 35.1 3.5 35.1 4 C 35.1 4 35.1 4 35.1 4 C 35.1 4.5 35 4.9 34.6 5.2 C 34.3 5.5 33.8 5.7 33.3 5.7 Z " stroke="none" fill="#000"/>  </g></svg>