<?xml version="1.0" standalone="no"?><!DOCTYPE svg PUBLIC "-//W3C//DTD SVG 1.1//EN" "http://www.w3.org/Graphics/SVG/1.1/DTD/svg11.dtd"><svg xmlns="http://www.w3.org/2000/svg" version="1.1" width="64px" height="42.4px" viewBox="0 -2 64 42.4" style="top:-2px">  <desc>r n Kodu: ZD 28222 Renk: Black</desc>  <defs/>  <g id="Polygon405870">    <path d="M 0.7 32.6 L 0.7 27.7 C 0.7 27.7 2.78 27.7 2.8 27.7 C 3.3 27.7 3.8 27.8 4.1 28.1 C 4.3 28.3 4.4 28.6 4.4 28.9 C 4.4 28.9 4.4 28.9 4.4 28.9 C 4.4 29.5 4.1 29.8 3.6 30.1 C 4.3 30.3 4.6 30.7 4.6 31.2 C 4.6 31.2 4.6 31.3 4.6 31.3 C 4.6 31.7 4.5 32 4.2 32.2 C 3.8 32.5 3.4 32.6 2.9 32.6 C 2.87 32.6 0.7 32.6 0.7 32.6 Z M 3.8 29 C 3.8 29 3.8 29 3.8 29 C 3.8 28.7 3.7 28.6 3.5 28.4 C 3.3 28.3 3.1 28.2 2.7 28.2 C 2.73 28.2 1.2 28.2 1.2 28.2 L 1.2 29.9 C 1.2 29.9 2.69 29.88 2.7 29.9 C 3 29.9 3.3 29.8 3.5 29.7 C 3.7 29.5 3.8 29.3 3.8 29 Z M 4.1 31.2 C 4.1 31.2 4.1 31.2 4.1 31.2 C 4.1 30.9 4 30.7 3.8 30.6 C 3.5 30.4 3.2 30.4 2.8 30.4 C 2.79 30.37 1.2 30.4 1.2 30.4 L 1.2 32.1 C 1.2 32.1 2.88 32.1 2.9 32.1 C 3.3 32.1 3.6 32 3.8 31.9 C 4 31.7 4.1 31.5 4.1 31.2 Z M 5.7 32.6 L 5.7 27.5 L 6.2 27.5 L 6.2 32.6 L 5.7 32.6 Z M 9.9 32.1 C 9.6 32.5 9.1 32.7 8.6 32.7 C 8.2 32.7 7.9 32.6 7.6 32.4 C 7.4 32.2 7.2 31.9 7.2 31.5 C 7.2 31.5 7.2 31.5 7.2 31.5 C 7.2 31.2 7.4 30.9 7.6 30.7 C 7.9 30.5 8.3 30.4 8.8 30.4 C 9.1 30.4 9.5 30.4 9.9 30.5 C 9.9 30.5 9.9 30.4 9.9 30.4 C 9.9 30.1 9.8 29.8 9.6 29.7 C 9.4 29.5 9.2 29.4 8.8 29.4 C 8.4 29.4 8.1 29.5 7.7 29.7 C 7.7 29.7 7.5 29.2 7.5 29.2 C 8 29 8.4 28.9 8.9 28.9 C 9.4 28.9 9.8 29.1 10 29.3 C 10.3 29.6 10.4 29.9 10.4 30.4 C 10.4 30.39 10.4 32.6 10.4 32.6 L 9.9 32.6 L 9.9 32.1 C 9.9 32.1 9.88 32.05 9.9 32.1 Z M 8.7 32.2 C 9 32.2 9.3 32.2 9.5 32 C 9.8 31.8 9.9 31.6 9.9 31.3 C 9.9 31.3 9.9 30.9 9.9 30.9 C 9.5 30.8 9.2 30.8 8.8 30.8 C 8.5 30.8 8.2 30.8 8 31 C 7.9 31.1 7.8 31.3 7.8 31.5 C 7.8 31.5 7.8 31.5 7.8 31.5 C 7.8 31.7 7.9 31.9 8 32.1 C 8.2 32.2 8.4 32.2 8.7 32.2 Z M 14.7 32 C 14.2 32.5 13.8 32.7 13.2 32.7 C 12.7 32.7 12.2 32.5 11.9 32.1 C 11.5 31.8 11.3 31.3 11.3 30.8 C 11.3 30.8 11.3 30.8 11.3 30.8 C 11.3 30.3 11.5 29.8 11.9 29.5 C 12.2 29.1 12.7 28.9 13.2 28.9 C 13.7 28.9 14.2 29.1 14.6 29.5 C 14.6 29.5 14.3 29.9 14.3 29.9 C 13.9 29.6 13.6 29.4 13.2 29.4 C 12.8 29.4 12.5 29.5 12.2 29.8 C 12 30.1 11.9 30.4 11.9 30.8 C 11.9 30.8 11.9 30.8 11.9 30.8 C 11.9 31.2 12 31.5 12.3 31.8 C 12.5 32.1 12.8 32.2 13.2 32.2 C 13.6 32.2 14 32 14.3 31.7 C 14.31 31.66 14.7 32 14.7 32 C 14.7 32 14.66 31.98 14.7 32 Z M 15.5 32.6 L 15.5 27.5 L 16.1 27.5 L 16.1 31 L 18 29 L 18.7 29 L 17.2 30.5 L 18.8 32.6 L 18.1 32.6 L 16.8 30.9 L 16.1 31.7 L 16.1 32.6 L 15.5 32.6 Z " stroke="none" fill="#000"/>  </g>  <g id="Polygon405869">    <path d="M 0.7 23.6 L 0.7 18.7 C 0.7 18.7 2.8 18.7 2.8 18.7 C 3.4 18.7 3.9 18.9 4.2 19.2 C 4.4 19.4 4.6 19.8 4.6 20.2 C 4.6 20.2 4.6 20.2 4.6 20.2 C 4.6 20.6 4.4 20.9 4.2 21.1 C 4 21.4 3.6 21.5 3.2 21.6 C 3.24 21.6 4.7 23.6 4.7 23.6 L 4.1 23.6 L 2.6 21.7 L 1.2 21.7 L 1.2 23.6 L 0.7 23.6 Z M 1.2 21.2 C 1.2 21.2 2.75 21.2 2.8 21.2 C 3.1 21.2 3.4 21.1 3.7 20.9 C 3.9 20.7 4 20.5 4 20.2 C 4 20.2 4 20.2 4 20.2 C 4 19.9 3.9 19.6 3.7 19.5 C 3.5 19.3 3.2 19.2 2.8 19.2 C 2.76 19.21 1.2 19.2 1.2 19.2 L 1.2 21.2 Z M 8.7 23 C 8.3 23.5 7.8 23.7 7.2 23.7 C 6.7 23.7 6.2 23.5 5.9 23.2 C 5.5 22.8 5.4 22.4 5.4 21.8 C 5.4 21.8 5.4 21.8 5.4 21.8 C 5.4 21.3 5.5 20.8 5.9 20.4 C 6.2 20.1 6.6 19.9 7.1 19.9 C 7.6 19.9 8 20.1 8.3 20.4 C 8.6 20.8 8.8 21.3 8.8 21.8 C 8.8 21.9 8.8 21.9 8.8 22 C 8.8 22 5.9 22 5.9 22 C 6 22.4 6.1 22.7 6.3 22.9 C 6.6 23.1 6.9 23.2 7.2 23.2 C 7.6 23.2 8 23 8.3 22.7 C 8.33 22.7 8.7 23 8.7 23 C 8.7 23 8.67 23 8.7 23 Z M 5.9 21.6 C 5.9 21.6 8.2 21.6 8.2 21.6 C 8.2 21.2 8.1 20.9 7.9 20.7 C 7.7 20.5 7.4 20.4 7.1 20.4 C 6.8 20.4 6.5 20.5 6.3 20.7 C 6.1 20.9 6 21.2 5.9 21.6 Z M 9.7 23.6 L 9.7 20 L 10.3 20 C 10.3 20 10.28 20.61 10.3 20.6 C 10.6 20.1 11 19.9 11.5 19.9 C 11.9 19.9 12.3 20 12.5 20.3 C 12.8 20.6 12.9 20.9 12.9 21.4 C 12.9 21.35 12.9 23.6 12.9 23.6 L 12.4 23.6 C 12.4 23.6 12.36 21.49 12.4 21.5 C 12.4 21.1 12.3 20.9 12.1 20.7 C 11.9 20.5 11.7 20.4 11.4 20.4 C 11 20.4 10.8 20.5 10.6 20.7 C 10.4 20.9 10.3 21.2 10.3 21.5 C 10.28 21.53 10.3 23.6 10.3 23.6 L 9.7 23.6 Z M 14 23.6 L 14 18.5 L 14.6 18.5 L 14.6 22 L 16.5 20 L 17.2 20 L 15.7 21.5 L 17.3 23.6 L 16.6 23.6 L 15.3 21.9 L 14.6 22.7 L 14.6 23.6 L 14 23.6 Z M 18 20.7 L 18 20 L 18.6 20 L 18.6 20.7 L 18 20.7 Z M 18 23.6 L 18 22.9 L 18.6 22.9 L 18.6 23.6 L 18 23.6 Z " stroke="none" fill="#000"/>  </g>  <g id="Polygon405868">    <path d="M 0.4 14.6 L 0.4 13.8 L 3.1 10.6 L 0.5 10.6 L 0.5 9.7 L 4.5 9.7 L 4.5 10.5 L 1.8 13.7 L 4.5 13.7 L 4.5 14.6 L 0.4 14.6 Z M 5.5 14.6 L 5.5 9.7 C 5.5 9.7 7.45 9.7 7.5 9.7 C 8.2 9.7 8.8 9.9 9.3 10.4 C 9.8 10.9 10.1 11.4 10.1 12.1 C 10.1 12.1 10.1 12.1 10.1 12.1 C 10.1 12.8 9.8 13.4 9.3 13.9 C 8.8 14.4 8.2 14.6 7.5 14.6 C 7.45 14.6 5.5 14.6 5.5 14.6 Z M 7.5 10.7 C 7.45 10.67 6.6 10.7 6.6 10.7 L 6.6 13.6 C 6.6 13.6 7.45 13.63 7.5 13.6 C 7.9 13.6 8.2 13.5 8.5 13.2 C 8.8 13 8.9 12.6 8.9 12.2 C 8.9 12.2 8.9 12.1 8.9 12.1 C 8.9 11.7 8.8 11.4 8.5 11.1 C 8.2 10.8 7.9 10.7 7.5 10.7 Z M 12.9 14.6 L 12.9 13.7 C 12.9 13.7 14.5 12.41 14.5 12.4 C 14.8 12.1 15 11.9 15.2 11.8 C 15.3 11.6 15.4 11.4 15.4 11.2 C 15.4 11 15.3 10.9 15.2 10.8 C 15.1 10.7 14.9 10.6 14.7 10.6 C 14.5 10.6 14.3 10.6 14.2 10.7 C 14.1 10.8 13.9 11 13.7 11.3 C 13.7 11.3 12.9 10.6 12.9 10.6 C 13.2 10.3 13.5 10 13.7 9.9 C 14 9.7 14.3 9.6 14.8 9.6 C 15.3 9.6 15.7 9.8 16 10 C 16.3 10.3 16.4 10.7 16.4 11.1 C 16.4 11.1 16.4 11.2 16.4 11.2 C 16.4 11.5 16.4 11.9 16.2 12.1 C 16 12.4 15.6 12.7 15.2 13.1 C 15.16 13.05 14.4 13.7 14.4 13.7 L 16.5 13.7 L 16.5 14.6 L 12.9 14.6 Z M 19.1 14.7 C 18.5 14.7 18.1 14.5 17.7 14.3 C 17.4 14 17.2 13.7 17.2 13.3 C 17.2 13.3 17.2 13.2 17.2 13.2 C 17.2 13 17.3 12.7 17.4 12.5 C 17.5 12.3 17.7 12.2 18 12.1 C 17.6 11.8 17.4 11.5 17.4 11 C 17.4 11 17.4 11 17.4 11 C 17.4 10.6 17.5 10.3 17.9 10 C 18.2 9.8 18.6 9.6 19.1 9.6 C 19.6 9.6 20 9.8 20.3 10 C 20.7 10.3 20.8 10.6 20.8 11 C 20.8 11 20.8 11 20.8 11 C 20.8 11.5 20.6 11.8 20.2 12.1 C 20.5 12.2 20.7 12.4 20.8 12.5 C 20.9 12.7 21 12.9 21 13.2 C 21 13.2 21 13.2 21 13.2 C 21 13.7 20.8 14 20.5 14.3 C 20.1 14.5 19.7 14.7 19.1 14.7 Z M 18.4 11.1 C 18.4 11.3 18.5 11.4 18.6 11.5 C 18.7 11.6 18.9 11.7 19.1 11.7 C 19.3 11.7 19.5 11.6 19.6 11.5 C 19.7 11.4 19.8 11.3 19.8 11.1 C 19.8 11.1 19.8 11.1 19.8 11.1 C 19.8 10.9 19.7 10.8 19.6 10.7 C 19.5 10.6 19.3 10.5 19.1 10.5 C 18.9 10.5 18.7 10.6 18.6 10.7 C 18.5 10.8 18.4 10.9 18.4 11.1 C 18.4 11.09 18.4 11.1 18.4 11.1 C 18.4 11.1 18.4 11.1 18.4 11.1 Z M 19.1 13.8 C 19.4 13.8 19.6 13.7 19.7 13.6 C 19.9 13.5 19.9 13.3 19.9 13.2 C 19.9 13.2 19.9 13.2 19.9 13.2 C 19.9 13 19.9 12.8 19.7 12.7 C 19.6 12.6 19.3 12.6 19.1 12.6 C 18.8 12.6 18.6 12.6 18.5 12.7 C 18.3 12.8 18.2 13 18.2 13.2 C 18.2 13.2 18.2 13.2 18.2 13.2 C 18.2 13.3 18.3 13.5 18.5 13.6 C 18.6 13.7 18.8 13.8 19.1 13.8 Z M 21.6 14.6 L 21.6 13.7 C 21.6 13.7 23.27 12.41 23.3 12.4 C 23.6 12.1 23.8 11.9 23.9 11.8 C 24.1 11.6 24.1 11.4 24.1 11.2 C 24.1 11 24.1 10.9 23.9 10.8 C 23.8 10.7 23.7 10.6 23.5 10.6 C 23.3 10.6 23.1 10.6 23 10.7 C 22.8 10.8 22.7 11 22.5 11.3 C 22.5 11.3 21.7 10.6 21.7 10.6 C 22 10.3 22.2 10 22.5 9.9 C 22.8 9.7 23.1 9.6 23.5 9.6 C 24 9.6 24.4 9.8 24.8 10 C 25.1 10.3 25.2 10.7 25.2 11.1 C 25.2 11.1 25.2 11.2 25.2 11.2 C 25.2 11.5 25.1 11.9 24.9 12.1 C 24.8 12.4 24.4 12.7 23.9 13.1 C 23.93 13.05 23.1 13.7 23.1 13.7 L 25.3 13.7 L 25.3 14.6 L 21.6 14.6 Z M 26 14.6 L 26 13.7 C 26 13.7 27.64 12.41 27.6 12.4 C 28 12.1 28.2 11.9 28.3 11.8 C 28.4 11.6 28.5 11.4 28.5 11.2 C 28.5 11 28.4 10.9 28.3 10.8 C 28.2 10.7 28 10.6 27.8 10.6 C 27.6 10.6 27.5 10.6 27.3 10.7 C 27.2 10.8 27 11 26.8 11.3 C 26.8 11.3 26.1 10.6 26.1 10.6 C 26.3 10.3 26.6 10 26.9 9.9 C 27.1 9.7 27.5 9.6 27.9 9.6 C 28.4 9.6 28.8 9.8 29.1 10 C 29.4 10.3 29.6 10.7 29.6 11.1 C 29.6 11.1 29.6 11.2 29.6 11.2 C 29.6 11.5 29.5 11.9 29.3 12.1 C 29.1 12.4 28.8 12.7 28.3 13.1 C 28.29 13.05 27.5 13.7 27.5 13.7 L 29.6 13.7 L 29.6 14.6 L 26 14.6 Z M 30.4 14.6 L 30.4 13.7 C 30.4 13.7 32 12.41 32 12.4 C 32.3 12.1 32.5 11.9 32.7 11.8 C 32.8 11.6 32.8 11.4 32.8 11.2 C 32.8 11 32.8 10.9 32.7 10.8 C 32.5 10.7 32.4 10.6 32.2 10.6 C 32 10.6 31.8 10.6 31.7 10.7 C 31.5 10.8 31.4 11 31.2 11.3 C 31.2 11.3 30.4 10.6 30.4 10.6 C 30.7 10.3 31 10 31.2 9.9 C 31.5 9.7 31.8 9.6 32.3 9.6 C 32.8 9.6 33.2 9.8 33.5 10 C 33.8 10.3 33.9 10.7 33.9 11.1 C 33.9 11.1 33.9 11.2 33.9 11.2 C 33.9 11.5 33.8 11.9 33.7 12.1 C 33.5 12.4 33.1 12.7 32.7 13.1 C 32.65 13.05 31.9 13.7 31.9 13.7 L 34 13.7 L 34 14.6 L 30.4 14.6 Z " stroke="none" fill="#000"/>  </g>  <g id="Polygon405867">    <path d="M 3 0.3 L 3 -0.4 L 3.6 -0.4 L 3.6 0.3 L 3 0.3 Z M 1.7 0.3 L 1.7 -0.4 L 2.3 -0.4 L 2.3 0.3 L 1.7 0.3 Z M 2.7 5.7 C 2 5.7 1.5 5.5 1.2 5.1 C 0.8 4.7 0.6 4.2 0.6 3.5 C 0.62 3.55 0.6 0.7 0.6 0.7 L 1.2 0.7 C 1.2 0.7 1.17 3.51 1.2 3.5 C 1.2 4 1.3 4.4 1.6 4.7 C 1.8 5 2.2 5.2 2.7 5.2 C 3.1 5.2 3.5 5 3.8 4.8 C 4 4.5 4.1 4.1 4.1 3.5 C 4.14 3.55 4.1 0.7 4.1 0.7 L 4.7 0.7 C 4.7 0.7 4.7 3.51 4.7 3.5 C 4.7 4.2 4.5 4.7 4.1 5.1 C 3.8 5.5 3.3 5.7 2.7 5.7 Z M 5.9 5.6 L 5.9 2 L 6.5 2 C 6.5 2 6.45 2.93 6.5 2.9 C 6.6 2.6 6.8 2.4 7 2.2 C 7.3 2 7.6 1.9 7.9 1.9 C 7.93 1.92 7.9 2.5 7.9 2.5 C 7.9 2.5 7.89 2.5 7.9 2.5 C 7.5 2.5 7.1 2.6 6.9 2.9 C 6.6 3.2 6.5 3.6 6.5 4.2 C 6.45 4.16 6.5 5.6 6.5 5.6 L 5.9 5.6 Z M 10.6 1.4 L 10.6 0.8 L 11.2 0.8 L 11.2 1.4 L 10.6 1.4 Z M 9.3 1.4 L 9.3 0.8 L 10 0.8 L 10 1.4 L 9.3 1.4 Z M 11.3 5 C 11 5.4 10.6 5.7 10.1 5.7 C 9.7 5.7 9.3 5.5 9.1 5.3 C 8.8 5 8.7 4.7 8.7 4.2 C 8.69 4.23 8.7 2 8.7 2 L 9.2 2 C 9.2 2 9.23 4.09 9.2 4.1 C 9.2 4.4 9.3 4.7 9.5 4.9 C 9.7 5.1 9.9 5.2 10.2 5.2 C 10.5 5.2 10.8 5.1 11 4.9 C 11.2 4.7 11.3 4.4 11.3 4.1 C 11.32 4.05 11.3 2 11.3 2 L 11.9 2 L 11.9 5.6 L 11.3 5.6 L 11.3 5 C 11.3 5 11.32 4.97 11.3 5 Z M 13.1 5.6 L 13.1 2 L 13.6 2 C 13.6 2 13.6 2.61 13.6 2.6 C 13.9 2.1 14.3 1.9 14.8 1.9 C 15.3 1.9 15.6 2 15.9 2.3 C 16.1 2.6 16.2 2.9 16.2 3.4 C 16.23 3.35 16.2 5.6 16.2 5.6 L 15.7 5.6 C 15.7 5.6 15.69 3.49 15.7 3.5 C 15.7 3.1 15.6 2.9 15.4 2.7 C 15.2 2.5 15 2.4 14.7 2.4 C 14.4 2.4 14.1 2.5 13.9 2.7 C 13.7 2.9 13.6 3.2 13.6 3.5 C 13.6 3.53 13.6 5.6 13.6 5.6 L 13.1 5.6 Z M 19.6 5.6 L 19.6 0.7 L 20.1 0.7 L 20.1 3.6 L 22.9 0.7 L 23.7 0.7 L 21.5 2.8 L 23.7 5.6 L 23 5.6 L 21.2 3.2 L 20.1 4.3 L 20.1 5.6 L 19.6 5.6 Z M 25.9 5.7 C 25.4 5.7 25 5.5 24.6 5.1 C 24.3 4.8 24.1 4.3 24.1 3.8 C 24.1 3.8 24.1 3.8 24.1 3.8 C 24.1 3.3 24.3 2.8 24.6 2.5 C 25 2.1 25.4 1.9 26 1.9 C 26.5 1.9 26.9 2.1 27.3 2.5 C 27.7 2.8 27.8 3.3 27.8 3.8 C 27.8 3.8 27.8 3.8 27.8 3.8 C 27.8 4.3 27.7 4.8 27.3 5.1 C 26.9 5.5 26.5 5.7 25.9 5.7 Z M 26 5.2 C 26.3 5.2 26.7 5.1 26.9 4.8 C 27.2 4.5 27.3 4.2 27.3 3.8 C 27.3 3.8 27.3 3.8 27.3 3.8 C 27.3 3.4 27.2 3.1 26.9 2.8 C 26.6 2.5 26.3 2.4 25.9 2.4 C 25.6 2.4 25.2 2.5 25 2.8 C 24.8 3.1 24.6 3.4 24.6 3.8 C 24.6 3.8 24.6 3.8 24.6 3.8 C 24.6 4.2 24.8 4.5 25 4.8 C 25.3 5.1 25.6 5.2 26 5.2 Z M 31.7 4.9 C 31.4 5.4 30.9 5.7 30.3 5.7 C 29.9 5.7 29.5 5.5 29.1 5.2 C 28.8 4.8 28.6 4.4 28.6 3.8 C 28.6 3.8 28.6 3.8 28.6 3.8 C 28.6 3.2 28.8 2.8 29.1 2.4 C 29.5 2.1 29.9 1.9 30.3 1.9 C 30.9 1.9 31.4 2.2 31.7 2.7 C 31.72 2.67 31.7 0.5 31.7 0.5 L 32.3 0.5 L 32.3 5.6 L 31.7 5.6 L 31.7 4.9 C 31.7 4.9 31.72 4.87 31.7 4.9 Z M 30.4 5.2 C 30.8 5.2 31.1 5.1 31.4 4.8 C 31.6 4.5 31.7 4.2 31.7 3.8 C 31.7 3.8 31.7 3.8 31.7 3.8 C 31.7 3.4 31.6 3 31.4 2.8 C 31.1 2.5 30.8 2.4 30.4 2.4 C 30.1 2.4 29.8 2.5 29.5 2.8 C 29.3 3 29.2 3.4 29.2 3.8 C 29.2 3.8 29.2 3.8 29.2 3.8 C 29.2 4.2 29.3 4.6 29.5 4.8 C 29.8 5.1 30.1 5.2 30.4 5.2 Z M 36 5 C 35.7 5.4 35.3 5.7 34.8 5.7 C 34.4 5.7 34 5.5 33.8 5.3 C 33.5 5 33.4 4.7 33.4 4.2 C 33.41 4.23 33.4 2 33.4 2 L 33.9 2 C 33.9 2 33.95 4.09 33.9 4.1 C 33.9 4.4 34 4.7 34.2 4.9 C 34.4 5.1 34.6 5.2 35 5.2 C 35.3 5.2 35.5 5.1 35.7 4.9 C 35.9 4.7 36 4.4 36 4.1 C 36.04 4.05 36 2 36 2 L 36.6 2 L 36.6 5.6 L 36 5.6 L 36 5 C 36 5 36.04 4.97 36 5 Z M 37.7 2.7 L 37.7 2 L 38.4 2 L 38.4 2.7 L 37.7 2.7 Z M 37.7 5.6 L 37.7 4.9 L 38.4 4.9 L 38.4 5.6 L 37.7 5.6 Z " stroke="none" fill="#000"/>  </g></svg>