<?xml version="1.0" standalone="no"?><!DOCTYPE svg PUBLIC "-//W3C//DTD SVG 1.1//EN" "http://www.w3.org/Graphics/SVG/1.1/DTD/svg11.dtd"><svg xmlns="http://www.w3.org/2000/svg" version="1.1" width="159.4px" height="78.4px" viewBox="0 -3 159.4 78.4" style="top:-3px">  <desc>Cam &amp; Du Silece i – Rim (B y k) r n Kodu: 14895 Renk: Black Malzeme: Silikon / Metal l ler: L 52 cm, W 30 cm Tasa...</desc>  <defs/>  <g id="Polygon414882">    <path d="M 2 59.6 L 2 55.2 L 0.3 55.2 L 0.3 54.7 L 4.2 54.7 L 4.2 55.2 L 2.5 55.2 L 2.5 59.6 L 2 59.6 Z M 6.6 59.1 C 6.3 59.5 5.9 59.7 5.3 59.7 C 4.9 59.7 4.6 59.6 4.4 59.4 C 4.1 59.2 4 58.9 4 58.5 C 4 58.5 4 58.5 4 58.5 C 4 58.2 4.1 57.9 4.4 57.7 C 4.7 57.5 5 57.4 5.5 57.4 C 5.9 57.4 6.2 57.4 6.6 57.5 C 6.6 57.5 6.6 57.4 6.6 57.4 C 6.6 57.1 6.5 56.8 6.3 56.7 C 6.1 56.5 5.9 56.4 5.5 56.4 C 5.2 56.4 4.8 56.5 4.4 56.7 C 4.4 56.7 4.3 56.2 4.3 56.2 C 4.7 56 5.1 55.9 5.6 55.9 C 6.1 55.9 6.5 56.1 6.8 56.3 C 7 56.6 7.1 56.9 7.1 57.4 C 7.13 57.39 7.1 59.6 7.1 59.6 L 6.6 59.6 L 6.6 59.1 C 6.6 59.1 6.62 59.05 6.6 59.1 Z M 5.4 59.2 C 5.8 59.2 6 59.2 6.3 59 C 6.5 58.8 6.6 58.6 6.6 58.3 C 6.6 58.3 6.6 57.9 6.6 57.9 C 6.3 57.8 5.9 57.8 5.6 57.8 C 5.2 57.8 5 57.8 4.8 58 C 4.6 58.1 4.5 58.3 4.5 58.5 C 4.5 58.5 4.5 58.5 4.5 58.5 C 4.5 58.7 4.6 58.9 4.8 59.1 C 4.9 59.2 5.2 59.2 5.4 59.2 Z M 9.5 59.7 C 8.9 59.7 8.4 59.5 8 59.1 C 8 59.1 8.3 58.8 8.3 58.8 C 8.7 59.1 9.1 59.2 9.5 59.2 C 9.7 59.2 9.9 59.2 10 59.1 C 10.2 59 10.3 58.8 10.3 58.6 C 10.3 58.6 10.3 58.6 10.3 58.6 C 10.3 58.5 10.2 58.3 10 58.2 C 9.9 58.2 9.6 58.1 9.4 58 C 9.2 58 9.1 57.9 9.1 57.9 C 9 57.9 8.9 57.8 8.8 57.8 C 8.7 57.8 8.6 57.7 8.5 57.7 C 8.5 57.6 8.4 57.6 8.3 57.5 C 8.3 57.4 8.2 57.4 8.2 57.3 C 8.2 57.2 8.2 57.1 8.2 57 C 8.2 57 8.2 57 8.2 57 C 8.2 56.6 8.3 56.4 8.5 56.2 C 8.7 56 9 55.9 9.4 55.9 C 9.9 55.9 10.3 56.1 10.7 56.3 C 10.7 56.3 10.4 56.7 10.4 56.7 C 10.1 56.5 9.7 56.4 9.4 56.4 C 9.2 56.4 9 56.4 8.9 56.5 C 8.7 56.6 8.7 56.7 8.7 56.9 C 8.7 56.9 8.7 56.9 8.7 56.9 C 8.7 57 8.7 57 8.7 57.1 C 8.8 57.1 8.8 57.2 8.9 57.2 C 8.9 57.3 9 57.3 9.1 57.4 C 9.2 57.4 9.3 57.4 9.3 57.4 C 9.4 57.5 9.5 57.5 9.6 57.5 C 9.7 57.6 9.9 57.6 9.9 57.6 C 10 57.7 10.1 57.7 10.3 57.8 C 10.4 57.8 10.5 57.9 10.5 58 C 10.6 58 10.6 58.1 10.7 58.2 C 10.7 58.3 10.8 58.4 10.8 58.6 C 10.8 58.6 10.8 58.6 10.8 58.6 C 10.8 58.9 10.6 59.2 10.4 59.4 C 10.2 59.6 9.9 59.7 9.5 59.7 Z M 14.2 59.1 C 13.8 59.5 13.4 59.7 12.8 59.7 C 12.5 59.7 12.2 59.6 11.9 59.4 C 11.6 59.2 11.5 58.9 11.5 58.5 C 11.5 58.5 11.5 58.5 11.5 58.5 C 11.5 58.2 11.6 57.9 11.9 57.7 C 12.2 57.5 12.6 57.4 13 57.4 C 13.4 57.4 13.8 57.4 14.2 57.5 C 14.2 57.5 14.2 57.4 14.2 57.4 C 14.2 57.1 14.1 56.8 13.9 56.7 C 13.7 56.5 13.4 56.4 13.1 56.4 C 12.7 56.4 12.3 56.5 12 56.7 C 12 56.7 11.8 56.2 11.8 56.2 C 12.2 56 12.7 55.9 13.1 55.9 C 13.6 55.9 14 56.1 14.3 56.3 C 14.5 56.6 14.7 56.9 14.7 57.4 C 14.67 57.39 14.7 59.6 14.7 59.6 L 14.2 59.6 L 14.2 59.1 C 14.2 59.1 14.15 59.05 14.2 59.1 Z M 12.9 59.2 C 13.3 59.2 13.6 59.2 13.8 59 C 14 58.8 14.2 58.6 14.2 58.3 C 14.2 58.3 14.2 57.9 14.2 57.9 C 13.8 57.8 13.4 57.8 13.1 57.8 C 12.8 57.8 12.5 57.8 12.3 58 C 12.1 58.1 12 58.3 12 58.5 C 12 58.5 12 58.5 12 58.5 C 12 58.7 12.1 58.9 12.3 59.1 C 12.5 59.2 12.7 59.2 12.9 59.2 Z M 15.8 59.6 L 15.8 56 L 16.4 56 C 16.4 56 16.36 56.93 16.4 56.9 C 16.5 56.6 16.7 56.4 17 56.2 C 17.2 56 17.5 55.9 17.8 55.9 C 17.84 55.92 17.8 56.5 17.8 56.5 C 17.8 56.5 17.79 56.5 17.8 56.5 C 17.4 56.5 17 56.6 16.8 56.9 C 16.5 57.2 16.4 57.6 16.4 58.2 C 16.36 58.16 16.4 59.6 16.4 59.6 L 15.8 59.6 Z M 18.7 59.6 L 18.7 56 L 19.2 56 L 19.2 59.6 L 18.7 59.6 Z M 20.5 59.6 L 20.5 56 L 21 56 C 21 56 21.03 56.59 21 56.6 C 21.2 56.4 21.3 56.2 21.5 56.1 C 21.7 56 21.9 55.9 22.2 55.9 C 22.7 55.9 23.1 56.1 23.4 56.6 C 23.7 56.1 24.1 55.9 24.6 55.9 C 25.1 55.9 25.4 56 25.6 56.3 C 25.9 56.6 26 56.9 26 57.4 C 25.98 57.36 26 59.6 26 59.6 L 25.4 59.6 C 25.4 59.6 25.44 57.49 25.4 57.5 C 25.4 57.1 25.4 56.9 25.2 56.7 C 25 56.5 24.8 56.4 24.5 56.4 C 24.2 56.4 24 56.5 23.8 56.7 C 23.6 56.9 23.5 57.2 23.5 57.5 C 23.51 57.51 23.5 59.6 23.5 59.6 L 23 59.6 C 23 59.6 22.97 57.47 23 57.5 C 23 57.1 22.9 56.9 22.7 56.7 C 22.6 56.5 22.3 56.4 22 56.4 C 21.8 56.4 21.5 56.5 21.3 56.7 C 21.1 56.9 21 57.2 21 57.5 C 21.03 57.53 21 59.6 21 59.6 L 20.5 59.6 Z M 27.1 56.7 L 27.1 56 L 27.7 56 L 27.7 56.7 L 27.1 56.7 Z M 27.1 59.6 L 27.1 58.9 L 27.7 58.9 L 27.7 59.6 L 27.1 59.6 Z M 32.8 59.6 L 30.7 54.7 L 31.3 54.7 L 33 58.9 L 34.8 54.7 L 35.4 54.7 L 33.3 59.6 L 32.8 59.6 Z M 36.4 59.6 L 36.4 54.7 L 39.9 54.7 L 39.9 55.2 L 36.9 55.2 L 36.9 56.9 L 39.6 56.9 L 39.6 57.4 L 36.9 57.4 L 36.9 59.1 L 39.9 59.1 L 39.9 59.6 L 36.4 59.6 Z M 40.7 59.6 L 40.7 59.2 C 40.7 59.2 42.46 57.6 42.5 57.6 C 42.8 57.3 43.1 57 43.3 56.8 C 43.4 56.5 43.5 56.3 43.5 56.1 C 43.5 55.8 43.4 55.6 43.2 55.4 C 43 55.2 42.8 55.1 42.5 55.1 C 42.2 55.1 42 55.2 41.8 55.3 C 41.6 55.5 41.4 55.7 41.2 56 C 41.2 56 40.8 55.7 40.8 55.7 C 41 55.3 41.3 55 41.5 54.9 C 41.8 54.7 42.1 54.6 42.5 54.6 C 43 54.6 43.3 54.8 43.6 55 C 43.9 55.3 44.1 55.6 44.1 56 C 44.1 56 44.1 56 44.1 56 C 44.1 56.4 44 56.7 43.8 56.9 C 43.6 57.2 43.3 57.5 42.8 57.9 C 42.82 57.93 41.5 59.1 41.5 59.1 L 44.1 59.1 L 44.1 59.6 L 40.7 59.6 Z " stroke="none" fill="#000"/>  </g>  <g id="Polygon414881">    <path d="M 3.3 45.2 L 3.3 44.6 L 4 44.6 L 4 45.2 L 3.3 45.2 Z M 2 45.2 L 2 44.6 L 2.6 44.6 L 2.6 45.2 L 2 45.2 Z M 5.5 48.1 C 5.5 48.8 5.2 49.4 4.8 49.9 C 4.3 50.4 3.7 50.7 3 50.7 C 2.2 50.7 1.6 50.4 1.2 49.9 C 0.7 49.5 0.5 48.9 0.5 48.2 C 0.5 48.2 0.5 48.1 0.5 48.1 C 0.5 47.5 0.7 46.9 1.2 46.4 C 1.7 45.9 2.3 45.6 3 45.6 C 3.7 45.6 4.3 45.9 4.8 46.4 C 5.2 46.8 5.5 47.4 5.5 48.1 C 5.47 48.14 5.5 48.1 5.5 48.1 C 5.5 48.1 5.47 48.15 5.5 48.1 Z M 1.1 48.1 C 1.1 48.7 1.2 49.2 1.6 49.6 C 2 50 2.4 50.2 3 50.2 C 3.5 50.2 4 50 4.4 49.6 C 4.7 49.2 4.9 48.7 4.9 48.2 C 4.9 48.2 4.9 48.1 4.9 48.1 C 4.9 47.6 4.7 47.1 4.4 46.7 C 4 46.3 3.5 46.1 3 46.1 C 2.4 46.1 2 46.3 1.6 46.7 C 1.2 47.1 1.1 47.6 1.1 48.1 C 1.05 48.14 1.1 48.1 1.1 48.1 C 1.1 48.1 1.05 48.15 1.1 48.1 Z M 6.6 50.6 L 6.6 45.5 L 7.1 45.5 L 7.1 50.6 L 6.6 50.6 Z M 9.7 51.7 L 9.1 51.4 C 9.1 51.4 9.69 50.65 9.7 50.6 C 9.2 50.6 8.9 50.4 8.6 50 C 8.3 49.7 8.2 49.3 8.2 48.8 C 8.2 48.8 8.2 48.8 8.2 48.8 C 8.2 48.3 8.3 47.8 8.7 47.5 C 9.1 47.1 9.5 46.9 10 46.9 C 10.6 46.9 11.1 47.1 11.5 47.5 C 11.5 47.5 11.1 47.9 11.1 47.9 C 10.8 47.6 10.4 47.4 10 47.4 C 9.6 47.4 9.3 47.5 9.1 47.8 C 8.8 48.1 8.7 48.4 8.7 48.8 C 8.7 48.8 8.7 48.8 8.7 48.8 C 8.7 49.2 8.8 49.5 9.1 49.8 C 9.4 50.1 9.7 50.2 10.1 50.2 C 10.5 50.2 10.8 50 11.2 49.7 C 11.2 49.7 11.5 50 11.5 50 C 11.1 50.4 10.7 50.7 10.1 50.7 C 10.13 50.68 9.7 51.7 9.7 51.7 Z M 14.2 46.4 L 14.2 45.8 L 14.8 45.8 L 14.8 46.4 L 14.2 46.4 Z M 13 46.4 L 13 45.8 L 13.6 45.8 L 13.6 46.4 L 13 46.4 Z M 14.9 50 C 14.6 50.4 14.2 50.7 13.7 50.7 C 13.3 50.7 12.9 50.5 12.7 50.3 C 12.4 50 12.3 49.7 12.3 49.2 C 12.31 49.23 12.3 47 12.3 47 L 12.8 47 C 12.8 47 12.84 49.09 12.8 49.1 C 12.8 49.4 12.9 49.7 13.1 49.9 C 13.3 50.1 13.5 50.2 13.8 50.2 C 14.2 50.2 14.4 50.1 14.6 49.9 C 14.8 49.7 14.9 49.4 14.9 49.1 C 14.93 49.05 14.9 47 14.9 47 L 15.5 47 L 15.5 50.6 L 14.9 50.6 L 14.9 50 C 14.9 50 14.93 49.97 14.9 50 Z M 16.7 50.6 L 16.7 45.5 L 17.3 45.5 L 17.3 50.6 L 16.7 50.6 Z M 21.6 50 C 21.2 50.5 20.7 50.7 20.1 50.7 C 19.6 50.7 19.2 50.5 18.8 50.2 C 18.5 49.8 18.3 49.4 18.3 48.8 C 18.3 48.8 18.3 48.8 18.3 48.8 C 18.3 48.3 18.5 47.8 18.8 47.4 C 19.1 47.1 19.5 46.9 20 46.9 C 20.5 46.9 21 47.1 21.3 47.4 C 21.6 47.8 21.7 48.3 21.7 48.8 C 21.7 48.9 21.7 48.9 21.7 49 C 21.7 49 18.8 49 18.8 49 C 18.9 49.4 19 49.7 19.3 49.9 C 19.5 50.1 19.8 50.2 20.1 50.2 C 20.5 50.2 20.9 50 21.3 49.7 C 21.25 49.7 21.6 50 21.6 50 C 21.6 50 21.59 50 21.6 50 Z M 18.8 48.6 C 18.8 48.6 21.2 48.6 21.2 48.6 C 21.1 48.2 21 47.9 20.8 47.7 C 20.6 47.5 20.4 47.4 20 47.4 C 19.7 47.4 19.4 47.5 19.2 47.7 C 19 47.9 18.9 48.2 18.8 48.6 Z M 22.7 50.6 L 22.7 47 L 23.2 47 C 23.2 47 23.2 47.93 23.2 47.9 C 23.3 47.6 23.5 47.4 23.8 47.2 C 24 47 24.3 46.9 24.7 46.9 C 24.67 46.92 24.7 47.5 24.7 47.5 C 24.7 47.5 24.63 47.5 24.6 47.5 C 24.2 47.5 23.9 47.6 23.6 47.9 C 23.3 48.2 23.2 48.6 23.2 49.2 C 23.2 49.16 23.2 50.6 23.2 50.6 L 22.7 50.6 Z M 25.5 47.7 L 25.5 47 L 26.1 47 L 26.1 47.7 L 25.5 47.7 Z M 25.5 50.6 L 25.5 49.9 L 26.1 49.9 L 26.1 50.6 L 25.5 50.6 Z M 29.5 50.6 L 29.5 45.7 L 30 45.7 L 30 50.1 L 32.8 50.1 L 32.8 50.6 L 29.5 50.6 Z M 37.3 50.7 C 36.6 50.7 36.1 50.4 35.5 49.9 C 35.5 49.9 35.9 49.5 35.9 49.5 C 36.4 50 36.8 50.2 37.3 50.2 C 37.6 50.2 37.9 50.1 38.2 49.9 C 38.4 49.7 38.5 49.4 38.5 49.1 C 38.5 49.1 38.5 49.1 38.5 49.1 C 38.5 48.8 38.4 48.5 38.1 48.3 C 37.9 48.1 37.6 48.1 37.3 48.1 C 36.9 48.1 36.6 48.1 36.2 48.3 C 36.24 48.33 35.9 48.1 35.9 48.1 L 36 45.7 L 38.8 45.7 L 38.8 46.2 L 36.5 46.2 C 36.5 46.2 36.39 47.78 36.4 47.8 C 36.7 47.6 37 47.6 37.4 47.6 C 37.8 47.6 38.2 47.7 38.6 48 C 38.9 48.2 39 48.6 39 49.1 C 39 49.1 39 49.1 39 49.1 C 39 49.5 38.9 49.9 38.6 50.2 C 38.2 50.5 37.8 50.7 37.3 50.7 Z M 39.7 50.6 L 39.7 50.2 C 39.7 50.2 41.5 48.6 41.5 48.6 C 41.9 48.3 42.2 48 42.3 47.8 C 42.4 47.5 42.5 47.3 42.5 47.1 C 42.5 46.8 42.4 46.6 42.2 46.4 C 42 46.2 41.8 46.1 41.5 46.1 C 41.3 46.1 41 46.2 40.8 46.3 C 40.6 46.5 40.4 46.7 40.2 47 C 40.2 47 39.8 46.7 39.8 46.7 C 40.1 46.3 40.3 46 40.6 45.9 C 40.8 45.7 41.2 45.6 41.6 45.6 C 42 45.6 42.4 45.8 42.7 46 C 43 46.3 43.1 46.6 43.1 47 C 43.1 47 43.1 47 43.1 47 C 43.1 47.4 43 47.7 42.8 47.9 C 42.6 48.2 42.3 48.5 41.9 48.9 C 41.86 48.93 40.6 50.1 40.6 50.1 L 43.1 50.1 L 43.1 50.6 L 39.7 50.6 Z M 49.4 50 C 49 50.5 48.5 50.7 47.9 50.7 C 47.4 50.7 46.9 50.5 46.6 50.1 C 46.2 49.8 46.1 49.3 46.1 48.8 C 46.1 48.8 46.1 48.8 46.1 48.8 C 46.1 48.3 46.2 47.8 46.6 47.5 C 46.9 47.1 47.4 46.9 47.9 46.9 C 48.5 46.9 49 47.1 49.4 47.5 C 49.4 47.5 49 47.9 49 47.9 C 48.7 47.6 48.3 47.4 47.9 47.4 C 47.5 47.4 47.2 47.5 47 47.8 C 46.7 48.1 46.6 48.4 46.6 48.8 C 46.6 48.8 46.6 48.8 46.6 48.8 C 46.6 49.2 46.7 49.5 47 49.8 C 47.2 50.1 47.6 50.2 47.9 50.2 C 48.3 50.2 48.7 50 49 49.7 C 49.05 49.66 49.4 50 49.4 50 C 49.4 50 49.39 49.98 49.4 50 Z M 50.3 50.6 L 50.3 47 L 50.8 47 C 50.8 47 50.82 47.59 50.8 47.6 C 51 47.4 51.1 47.2 51.3 47.1 C 51.5 47 51.7 46.9 52 46.9 C 52.5 46.9 52.9 47.1 53.2 47.6 C 53.5 47.1 53.9 46.9 54.4 46.9 C 54.8 46.9 55.2 47 55.4 47.3 C 55.6 47.6 55.8 47.9 55.8 48.4 C 55.77 48.36 55.8 50.6 55.8 50.6 L 55.2 50.6 C 55.2 50.6 55.23 48.49 55.2 48.5 C 55.2 48.1 55.1 47.9 55 47.7 C 54.8 47.5 54.6 47.4 54.3 47.4 C 54 47.4 53.8 47.5 53.6 47.7 C 53.4 47.9 53.3 48.2 53.3 48.5 C 53.29 48.51 53.3 50.6 53.3 50.6 L 52.8 50.6 C 52.8 50.6 52.76 48.47 52.8 48.5 C 52.8 48.1 52.7 47.9 52.5 47.7 C 52.3 47.5 52.1 47.4 51.8 47.4 C 51.5 47.4 51.3 47.5 51.1 47.7 C 50.9 47.9 50.8 48.2 50.8 48.5 C 50.82 48.53 50.8 50.6 50.8 50.6 L 50.3 50.6 Z M 56.7 51.5 C 56.7 51.5 56.6 51.2 56.6 51.2 C 57 51.1 57.1 50.9 57.1 50.6 C 57.11 50.6 56.9 50.6 56.9 50.6 L 56.9 49.9 L 57.5 49.9 C 57.5 49.9 57.5 50.49 57.5 50.5 C 57.5 50.8 57.4 51 57.3 51.1 C 57.2 51.3 57 51.4 56.7 51.5 Z M 62.2 50.6 L 60.4 45.7 L 61 45.7 L 62.4 49.8 L 63.8 45.7 L 64.2 45.7 L 65.6 49.8 L 67 45.7 L 67.6 45.7 L 65.8 50.6 L 65.4 50.6 L 64 46.7 L 62.7 50.6 L 62.2 50.6 Z M 72.2 50.7 C 71.4 50.7 70.8 50.4 70.3 49.8 C 70.3 49.8 70.7 49.5 70.7 49.5 C 71.1 49.9 71.6 50.2 72.2 50.2 C 72.5 50.2 72.7 50.1 72.9 49.9 C 73.1 49.7 73.2 49.5 73.2 49.2 C 73.2 49.2 73.2 49.2 73.2 49.2 C 73.2 48.9 73.1 48.7 72.9 48.5 C 72.6 48.4 72.3 48.3 71.9 48.3 C 71.86 48.27 71.5 48.3 71.5 48.3 L 71.4 47.9 L 73 46.2 L 70.6 46.2 L 70.6 45.7 L 73.7 45.7 L 73.7 46.1 C 73.7 46.1 72.18 47.81 72.2 47.8 C 72.6 47.9 73 48 73.3 48.2 C 73.6 48.4 73.8 48.8 73.8 49.2 C 73.8 49.2 73.8 49.2 73.8 49.2 C 73.8 49.6 73.6 50 73.3 50.3 C 73 50.5 72.6 50.7 72.2 50.7 Z M 78.8 48.1 C 78.8 48.9 78.6 49.5 78.3 49.9 C 77.9 50.4 77.4 50.7 76.8 50.7 C 76.2 50.7 75.7 50.4 75.3 50 C 74.9 49.5 74.7 48.9 74.7 48.2 C 74.7 48.2 74.7 48.1 74.7 48.1 C 74.7 47.4 74.9 46.8 75.3 46.4 C 75.7 45.9 76.2 45.6 76.8 45.6 C 77.4 45.6 77.9 45.9 78.3 46.3 C 78.7 46.8 78.8 47.4 78.8 48.1 C 78.84 48.14 78.8 48.1 78.8 48.1 C 78.8 48.1 78.84 48.15 78.8 48.1 Z M 75.3 48.1 C 75.3 48.7 75.4 49.2 75.7 49.6 C 76 50 76.3 50.2 76.8 50.2 C 77.2 50.2 77.6 50 77.9 49.6 C 78.1 49.2 78.3 48.7 78.3 48.2 C 78.3 48.2 78.3 48.1 78.3 48.1 C 78.3 47.6 78.1 47.1 77.8 46.7 C 77.6 46.3 77.2 46.1 76.8 46.1 C 76.3 46.1 76 46.3 75.7 46.7 C 75.4 47.1 75.3 47.6 75.3 48.1 C 75.28 48.14 75.3 48.1 75.3 48.1 C 75.3 48.1 75.28 48.15 75.3 48.1 Z M 85.1 50 C 84.7 50.5 84.2 50.7 83.6 50.7 C 83.1 50.7 82.6 50.5 82.3 50.1 C 81.9 49.8 81.8 49.3 81.8 48.8 C 81.8 48.8 81.8 48.8 81.8 48.8 C 81.8 48.3 81.9 47.8 82.3 47.5 C 82.6 47.1 83.1 46.9 83.6 46.9 C 84.2 46.9 84.6 47.1 85.1 47.5 C 85.1 47.5 84.7 47.9 84.7 47.9 C 84.4 47.6 84 47.4 83.6 47.4 C 83.2 47.4 82.9 47.5 82.7 47.8 C 82.4 48.1 82.3 48.4 82.3 48.8 C 82.3 48.8 82.3 48.8 82.3 48.8 C 82.3 49.2 82.4 49.5 82.7 49.8 C 82.9 50.1 83.3 50.2 83.6 50.2 C 84 50.2 84.4 50 84.7 49.7 C 84.74 49.66 85.1 50 85.1 50 C 85.1 50 85.08 49.98 85.1 50 Z M 86 50.6 L 86 47 L 86.5 47 C 86.5 47 86.51 47.59 86.5 47.6 C 86.7 47.4 86.8 47.2 87 47.1 C 87.2 47 87.4 46.9 87.7 46.9 C 88.2 46.9 88.6 47.1 88.8 47.6 C 89.2 47.1 89.6 46.9 90.1 46.9 C 90.5 46.9 90.9 47 91.1 47.3 C 91.3 47.6 91.5 47.9 91.5 48.4 C 91.46 48.36 91.5 50.6 91.5 50.6 L 90.9 50.6 C 90.9 50.6 90.92 48.49 90.9 48.5 C 90.9 48.1 90.8 47.9 90.7 47.7 C 90.5 47.5 90.3 47.4 90 47.4 C 89.7 47.4 89.5 47.5 89.3 47.7 C 89.1 47.9 89 48.2 89 48.5 C 88.98 48.51 89 50.6 89 50.6 L 88.5 50.6 C 88.5 50.6 88.45 48.47 88.5 48.5 C 88.5 48.1 88.4 47.9 88.2 47.7 C 88 47.5 87.8 47.4 87.5 47.4 C 87.2 47.4 87 47.5 86.8 47.7 C 86.6 47.9 86.5 48.2 86.5 48.5 C 86.51 48.53 86.5 50.6 86.5 50.6 L 86 50.6 Z " stroke="none" fill="#000"/>  </g>  <g id="Polygon414880">    <path d="M 0.7 41.6 L 0.7 36.7 L 1.3 36.7 L 3 39.4 L 4.8 36.7 L 5.4 36.7 L 5.4 41.6 L 4.8 41.6 L 4.8 37.6 L 3 40.3 L 3 40.3 L 1.2 37.6 L 1.2 41.6 L 0.7 41.6 Z M 9.1 41.1 C 8.7 41.5 8.3 41.7 7.8 41.7 C 7.4 41.7 7.1 41.6 6.8 41.4 C 6.5 41.2 6.4 40.9 6.4 40.5 C 6.4 40.5 6.4 40.5 6.4 40.5 C 6.4 40.2 6.5 39.9 6.8 39.7 C 7.1 39.5 7.5 39.4 8 39.4 C 8.3 39.4 8.7 39.4 9.1 39.5 C 9.1 39.5 9.1 39.4 9.1 39.4 C 9.1 39.1 9 38.8 8.8 38.7 C 8.6 38.5 8.3 38.4 8 38.4 C 7.6 38.4 7.3 38.5 6.9 38.7 C 6.9 38.7 6.7 38.2 6.7 38.2 C 7.2 38 7.6 37.9 8 37.9 C 8.6 37.9 8.9 38.1 9.2 38.3 C 9.5 38.6 9.6 38.9 9.6 39.4 C 9.58 39.39 9.6 41.6 9.6 41.6 L 9.1 41.6 L 9.1 41.1 C 9.1 41.1 9.06 41.05 9.1 41.1 Z M 7.9 41.2 C 8.2 41.2 8.5 41.2 8.7 41 C 9 40.8 9.1 40.6 9.1 40.3 C 9.1 40.3 9.1 39.9 9.1 39.9 C 8.7 39.8 8.4 39.8 8 39.8 C 7.7 39.8 7.4 39.8 7.2 40 C 7 40.1 7 40.3 7 40.5 C 7 40.5 7 40.5 7 40.5 C 7 40.7 7 40.9 7.2 41.1 C 7.4 41.2 7.6 41.2 7.9 41.2 Z M 10.8 41.6 L 10.8 36.5 L 11.3 36.5 L 11.3 41.6 L 10.8 41.6 Z M 12.4 41.6 L 12.4 41.3 L 14.8 38.4 L 12.4 38.4 L 12.4 38 L 15.5 38 L 15.5 38.3 L 13.1 41.1 L 15.5 41.1 L 15.5 41.6 L 12.4 41.6 Z M 19.4 41 C 19 41.5 18.5 41.7 17.9 41.7 C 17.4 41.7 17 41.5 16.7 41.2 C 16.3 40.8 16.1 40.4 16.1 39.8 C 16.1 39.8 16.1 39.8 16.1 39.8 C 16.1 39.3 16.3 38.8 16.6 38.4 C 17 38.1 17.4 37.9 17.9 37.9 C 18.4 37.9 18.8 38.1 19.1 38.4 C 19.4 38.8 19.6 39.3 19.6 39.8 C 19.6 39.9 19.6 39.9 19.6 40 C 19.6 40 16.7 40 16.7 40 C 16.7 40.4 16.9 40.7 17.1 40.9 C 17.3 41.1 17.6 41.2 18 41.2 C 18.4 41.2 18.8 41 19.1 40.7 C 19.1 40.7 19.4 41 19.4 41 C 19.4 41 19.43 41 19.4 41 Z M 16.7 39.6 C 16.7 39.6 19 39.6 19 39.6 C 19 39.2 18.9 38.9 18.7 38.7 C 18.5 38.5 18.2 38.4 17.9 38.4 C 17.5 38.4 17.3 38.5 17.1 38.7 C 16.8 38.9 16.7 39.2 16.7 39.6 Z M 20.5 41.6 L 20.5 38 L 21 38 C 21 38 21.04 38.59 21 38.6 C 21.2 38.4 21.3 38.2 21.5 38.1 C 21.7 38 21.9 37.9 22.2 37.9 C 22.8 37.9 23.1 38.1 23.4 38.6 C 23.7 38.1 24.1 37.9 24.6 37.9 C 25.1 37.9 25.4 38 25.6 38.3 C 25.9 38.6 26 38.9 26 39.4 C 25.99 39.36 26 41.6 26 41.6 L 25.5 41.6 C 25.5 41.6 25.45 39.49 25.5 39.5 C 25.5 39.1 25.4 38.9 25.2 38.7 C 25 38.5 24.8 38.4 24.5 38.4 C 24.2 38.4 24 38.5 23.8 38.7 C 23.6 38.9 23.5 39.2 23.5 39.5 C 23.51 39.51 23.5 41.6 23.5 41.6 L 23 41.6 C 23 41.6 22.98 39.47 23 39.5 C 23 39.1 22.9 38.9 22.7 38.7 C 22.6 38.5 22.3 38.4 22 38.4 C 21.8 38.4 21.5 38.5 21.3 38.7 C 21.1 38.9 21 39.2 21 39.5 C 21.04 39.53 21 41.6 21 41.6 L 20.5 41.6 Z M 30.2 41 C 29.8 41.5 29.3 41.7 28.7 41.7 C 28.2 41.7 27.8 41.5 27.4 41.2 C 27.1 40.8 26.9 40.4 26.9 39.8 C 26.9 39.8 26.9 39.8 26.9 39.8 C 26.9 39.3 27.1 38.8 27.4 38.4 C 27.7 38.1 28.2 37.9 28.7 37.9 C 29.2 37.9 29.6 38.1 29.9 38.4 C 30.2 38.8 30.3 39.3 30.3 39.8 C 30.3 39.9 30.3 39.9 30.3 40 C 30.3 40 27.5 40 27.5 40 C 27.5 40.4 27.6 40.7 27.9 40.9 C 28.1 41.1 28.4 41.2 28.7 41.2 C 29.2 41.2 29.5 41 29.9 40.7 C 29.88 40.7 30.2 41 30.2 41 C 30.2 41 30.21 41 30.2 41 Z M 27.5 39.6 C 27.5 39.6 29.8 39.6 29.8 39.6 C 29.8 39.2 29.7 38.9 29.5 38.7 C 29.3 38.5 29 38.4 28.6 38.4 C 28.3 38.4 28.1 38.5 27.8 38.7 C 27.6 38.9 27.5 39.2 27.5 39.6 Z M 31.2 38.7 L 31.2 38 L 31.9 38 L 31.9 38.7 L 31.2 38.7 Z M 31.2 41.6 L 31.2 40.9 L 31.9 40.9 L 31.9 41.6 L 31.2 41.6 Z M 36.9 41.7 C 36.2 41.7 35.5 41.4 34.9 40.9 C 34.9 40.9 35.3 40.5 35.3 40.5 C 35.5 40.7 35.8 40.9 36.1 41 C 36.3 41.1 36.6 41.2 37 41.2 C 37.3 41.2 37.5 41.1 37.7 40.9 C 37.9 40.8 38 40.6 38 40.3 C 38 40.3 38 40.3 38 40.3 C 38 40.1 38 39.9 37.8 39.8 C 37.6 39.6 37.3 39.5 36.8 39.4 C 36.2 39.3 35.8 39.1 35.5 38.9 C 35.3 38.7 35.1 38.4 35.1 38 C 35.1 38 35.1 38 35.1 38 C 35.1 37.6 35.3 37.3 35.6 37 C 35.9 36.8 36.3 36.6 36.7 36.6 C 37.1 36.6 37.4 36.7 37.7 36.8 C 37.9 36.9 38.2 37 38.5 37.2 C 38.5 37.2 38.1 37.7 38.1 37.7 C 37.7 37.3 37.2 37.1 36.7 37.1 C 36.4 37.1 36.2 37.2 36 37.4 C 35.8 37.5 35.7 37.7 35.7 37.9 C 35.7 37.9 35.7 37.9 35.7 37.9 C 35.7 38.2 35.8 38.4 36 38.5 C 36.1 38.7 36.5 38.8 37 38.9 C 37.6 39 38 39.2 38.2 39.4 C 38.5 39.6 38.6 39.9 38.6 40.3 C 38.6 40.3 38.6 40.3 38.6 40.3 C 38.6 40.7 38.4 41 38.1 41.3 C 37.8 41.5 37.4 41.7 36.9 41.7 Z M 39.7 37.2 L 39.7 36.6 L 40.3 36.6 L 40.3 37.2 L 39.7 37.2 Z M 39.7 41.6 L 39.7 38 L 40.2 38 L 40.2 41.6 L 39.7 41.6 Z M 41.5 41.6 L 41.5 36.5 L 42.1 36.5 L 42.1 41.6 L 41.5 41.6 Z M 43.3 37.2 L 43.3 36.6 L 44 36.6 L 44 37.2 L 43.3 37.2 Z M 43.4 41.6 L 43.4 38 L 43.9 38 L 43.9 41.6 L 43.4 41.6 Z M 45.2 41.6 L 45.2 36.5 L 45.7 36.5 L 45.7 40 L 47.7 38 L 48.3 38 L 46.8 39.5 L 48.4 41.6 L 47.7 41.6 L 46.4 39.9 L 45.7 40.7 L 45.7 41.6 L 45.2 41.6 Z M 50.6 41.7 C 50.1 41.7 49.6 41.5 49.3 41.1 C 48.9 40.8 48.7 40.3 48.7 39.8 C 48.7 39.8 48.7 39.8 48.7 39.8 C 48.7 39.3 48.9 38.8 49.3 38.5 C 49.6 38.1 50.1 37.9 50.6 37.9 C 51.2 37.9 51.6 38.1 52 38.5 C 52.3 38.8 52.5 39.3 52.5 39.8 C 52.5 39.8 52.5 39.8 52.5 39.8 C 52.5 40.3 52.3 40.8 52 41.1 C 51.6 41.5 51.2 41.7 50.6 41.7 Z M 50.6 41.2 C 51 41.2 51.3 41.1 51.6 40.8 C 51.8 40.5 52 40.2 52 39.8 C 52 39.8 52 39.8 52 39.8 C 52 39.4 51.8 39.1 51.6 38.8 C 51.3 38.5 51 38.4 50.6 38.4 C 50.2 38.4 49.9 38.5 49.7 38.8 C 49.4 39.1 49.3 39.4 49.3 39.8 C 49.3 39.8 49.3 39.8 49.3 39.8 C 49.3 40.2 49.4 40.5 49.7 40.8 C 49.9 41.1 50.3 41.2 50.6 41.2 Z M 53.5 41.6 L 53.5 38 L 54 38 C 54 38 54.03 38.61 54 38.6 C 54.3 38.1 54.7 37.9 55.3 37.9 C 55.7 37.9 56 38 56.3 38.3 C 56.5 38.6 56.7 38.9 56.7 39.4 C 56.66 39.35 56.7 41.6 56.7 41.6 L 56.1 41.6 C 56.1 41.6 56.12 39.49 56.1 39.5 C 56.1 39.1 56 38.9 55.9 38.7 C 55.7 38.5 55.4 38.4 55.1 38.4 C 54.8 38.4 54.5 38.5 54.3 38.7 C 54.1 38.9 54 39.2 54 39.5 C 54.03 39.53 54 41.6 54 41.6 L 53.5 41.6 Z M 59.2 42.5 L 62.4 36 L 62.9 36 L 59.7 42.5 L 59.2 42.5 Z M 65.7 41.6 L 65.7 36.7 L 66.2 36.7 L 68 39.4 L 69.8 36.7 L 70.3 36.7 L 70.3 41.6 L 69.8 41.6 L 69.8 37.6 L 68 40.3 L 68 40.3 L 66.2 37.6 L 66.2 41.6 L 65.7 41.6 Z M 74.7 41 C 74.3 41.5 73.8 41.7 73.2 41.7 C 72.7 41.7 72.3 41.5 71.9 41.2 C 71.6 40.8 71.4 40.4 71.4 39.8 C 71.4 39.8 71.4 39.8 71.4 39.8 C 71.4 39.3 71.6 38.8 71.9 38.4 C 72.2 38.1 72.6 37.9 73.1 37.9 C 73.7 37.9 74.1 38.1 74.4 38.4 C 74.7 38.8 74.8 39.3 74.8 39.8 C 74.8 39.9 74.8 39.9 74.8 40 C 74.8 40 72 40 72 40 C 72 40.4 72.1 40.7 72.4 40.9 C 72.6 41.1 72.9 41.2 73.2 41.2 C 73.7 41.2 74 41 74.4 40.7 C 74.37 40.7 74.7 41 74.7 41 C 74.7 41 74.71 41 74.7 41 Z M 72 39.6 C 72 39.6 74.3 39.6 74.3 39.6 C 74.3 39.2 74.1 38.9 74 38.7 C 73.8 38.5 73.5 38.4 73.1 38.4 C 72.8 38.4 72.6 38.5 72.3 38.7 C 72.1 38.9 72 39.2 72 39.6 Z M 77.6 41.5 C 77.5 41.6 77.2 41.7 77 41.7 C 76.7 41.7 76.4 41.6 76.2 41.4 C 76.1 41.2 76 41 76 40.6 C 75.97 40.64 76 38.5 76 38.5 L 75.5 38.5 L 75.5 38 L 76 38 L 76 36.9 L 76.5 36.9 L 76.5 38 L 77.7 38 L 77.7 38.5 L 76.5 38.5 C 76.5 38.5 76.51 40.57 76.5 40.6 C 76.5 41 76.7 41.2 77.1 41.2 C 77.3 41.2 77.5 41.1 77.6 41 C 77.64 41.05 77.6 41.5 77.6 41.5 C 77.6 41.5 77.64 41.51 77.6 41.5 Z M 81 41.1 C 80.7 41.5 80.2 41.7 79.7 41.7 C 79.3 41.7 79 41.6 78.7 41.4 C 78.5 41.2 78.3 40.9 78.3 40.5 C 78.3 40.5 78.3 40.5 78.3 40.5 C 78.3 40.2 78.5 39.9 78.8 39.7 C 79 39.5 79.4 39.4 79.9 39.4 C 80.3 39.4 80.6 39.4 81 39.5 C 81 39.5 81 39.4 81 39.4 C 81 39.1 80.9 38.8 80.7 38.7 C 80.5 38.5 80.3 38.4 79.9 38.4 C 79.6 38.4 79.2 38.5 78.8 38.7 C 78.8 38.7 78.7 38.2 78.7 38.2 C 79.1 38 79.5 37.9 80 37.9 C 80.5 37.9 80.9 38.1 81.1 38.3 C 81.4 38.6 81.5 38.9 81.5 39.4 C 81.51 39.39 81.5 41.6 81.5 41.6 L 81 41.6 L 81 41.1 C 81 41.1 81 41.05 81 41.1 Z M 79.8 41.2 C 80.1 41.2 80.4 41.2 80.7 41 C 80.9 40.8 81 40.6 81 40.3 C 81 40.3 81 39.9 81 39.9 C 80.6 39.8 80.3 39.8 79.9 39.8 C 79.6 39.8 79.3 39.8 79.2 40 C 79 40.1 78.9 40.3 78.9 40.5 C 78.9 40.5 78.9 40.5 78.9 40.5 C 78.9 40.7 79 40.9 79.1 41.1 C 79.3 41.2 79.5 41.2 79.8 41.2 Z M 82.7 41.6 L 82.7 36.5 L 83.2 36.5 L 83.2 41.6 L 82.7 41.6 Z " stroke="none" fill="#000"/>  </g>  <g id="Polygon414879">    <path d="M 0.7 23.6 L 0.7 18.7 C 0.7 18.7 2.8 18.7 2.8 18.7 C 3.4 18.7 3.9 18.9 4.2 19.2 C 4.4 19.4 4.6 19.8 4.6 20.2 C 4.6 20.2 4.6 20.2 4.6 20.2 C 4.6 20.6 4.4 20.9 4.2 21.1 C 4 21.4 3.6 21.5 3.2 21.6 C 3.24 21.6 4.7 23.6 4.7 23.6 L 4.1 23.6 L 2.6 21.7 L 1.2 21.7 L 1.2 23.6 L 0.7 23.6 Z M 1.2 21.2 C 1.2 21.2 2.75 21.2 2.8 21.2 C 3.1 21.2 3.4 21.1 3.7 20.9 C 3.9 20.7 4 20.5 4 20.2 C 4 20.2 4 20.2 4 20.2 C 4 19.9 3.9 19.6 3.7 19.5 C 3.5 19.3 3.2 19.2 2.8 19.2 C 2.76 19.21 1.2 19.2 1.2 19.2 L 1.2 21.2 Z M 8.7 23 C 8.3 23.5 7.8 23.7 7.2 23.7 C 6.7 23.7 6.2 23.5 5.9 23.2 C 5.5 22.8 5.4 22.4 5.4 21.8 C 5.4 21.8 5.4 21.8 5.4 21.8 C 5.4 21.3 5.5 20.8 5.9 20.4 C 6.2 20.1 6.6 19.9 7.1 19.9 C 7.6 19.9 8 20.1 8.3 20.4 C 8.6 20.8 8.8 21.3 8.8 21.8 C 8.8 21.9 8.8 21.9 8.8 22 C 8.8 22 5.9 22 5.9 22 C 6 22.4 6.1 22.7 6.3 22.9 C 6.6 23.1 6.9 23.2 7.2 23.2 C 7.6 23.2 8 23 8.3 22.7 C 8.33 22.7 8.7 23 8.7 23 C 8.7 23 8.67 23 8.7 23 Z M 5.9 21.6 C 5.9 21.6 8.2 21.6 8.2 21.6 C 8.2 21.2 8.1 20.9 7.9 20.7 C 7.7 20.5 7.4 20.4 7.1 20.4 C 6.8 20.4 6.5 20.5 6.3 20.7 C 6.1 20.9 6 21.2 5.9 21.6 Z M 9.7 23.6 L 9.7 20 L 10.3 20 C 10.3 20 10.28 20.61 10.3 20.6 C 10.6 20.1 11 19.9 11.5 19.9 C 11.9 19.9 12.3 20 12.5 20.3 C 12.8 20.6 12.9 20.9 12.9 21.4 C 12.9 21.35 12.9 23.6 12.9 23.6 L 12.4 23.6 C 12.4 23.6 12.36 21.49 12.4 21.5 C 12.4 21.1 12.3 20.9 12.1 20.7 C 11.9 20.5 11.7 20.4 11.4 20.4 C 11 20.4 10.8 20.5 10.6 20.7 C 10.4 20.9 10.3 21.2 10.3 21.5 C 10.28 21.53 10.3 23.6 10.3 23.6 L 9.7 23.6 Z M 14 23.6 L 14 18.5 L 14.6 18.5 L 14.6 22 L 16.5 20 L 17.2 20 L 15.7 21.5 L 17.3 23.6 L 16.6 23.6 L 15.3 21.9 L 14.6 22.7 L 14.6 23.6 L 14 23.6 Z M 18 20.7 L 18 20 L 18.6 20 L 18.6 20.7 L 18 20.7 Z M 18 23.6 L 18 22.9 L 18.6 22.9 L 18.6 23.6 L 18 23.6 Z M 22 23.6 L 22 18.7 C 22 18.7 24.09 18.7 24.1 18.7 C 24.6 18.7 25.1 18.8 25.4 19.1 C 25.6 19.3 25.7 19.6 25.7 19.9 C 25.7 19.9 25.7 19.9 25.7 19.9 C 25.7 20.5 25.4 20.8 24.9 21.1 C 25.6 21.3 26 21.7 26 22.2 C 26 22.2 26 22.3 26 22.3 C 26 22.7 25.8 23 25.5 23.2 C 25.2 23.5 24.7 23.6 24.2 23.6 C 24.18 23.6 22 23.6 22 23.6 Z M 25.1 20 C 25.1 20 25.1 20 25.1 20 C 25.1 19.7 25 19.6 24.8 19.4 C 24.7 19.3 24.4 19.2 24 19.2 C 24.04 19.2 22.5 19.2 22.5 19.2 L 22.5 20.9 C 22.5 20.9 24 20.88 24 20.9 C 24.3 20.9 24.6 20.8 24.8 20.7 C 25 20.5 25.1 20.3 25.1 20 Z M 25.4 22.2 C 25.4 22.2 25.4 22.2 25.4 22.2 C 25.4 21.9 25.3 21.7 25.1 21.6 C 24.8 21.4 24.5 21.4 24.1 21.4 C 24.09 21.37 22.5 21.4 22.5 21.4 L 22.5 23.1 C 22.5 23.1 24.19 23.1 24.2 23.1 C 24.6 23.1 24.9 23 25.1 22.9 C 25.3 22.7 25.4 22.5 25.4 22.2 Z M 27 23.6 L 27 18.5 L 27.6 18.5 L 27.6 23.6 L 27 23.6 Z M 31.2 23.1 C 30.9 23.5 30.4 23.7 29.9 23.7 C 29.5 23.7 29.2 23.6 28.9 23.4 C 28.7 23.2 28.5 22.9 28.5 22.5 C 28.5 22.5 28.5 22.5 28.5 22.5 C 28.5 22.2 28.7 21.9 29 21.7 C 29.2 21.5 29.6 21.4 30.1 21.4 C 30.4 21.4 30.8 21.4 31.2 21.5 C 31.2 21.5 31.2 21.4 31.2 21.4 C 31.2 21.1 31.1 20.8 30.9 20.7 C 30.7 20.5 30.5 20.4 30.1 20.4 C 29.7 20.4 29.4 20.5 29 20.7 C 29 20.7 28.9 20.2 28.9 20.2 C 29.3 20 29.7 19.9 30.2 19.9 C 30.7 19.9 31.1 20.1 31.3 20.3 C 31.6 20.6 31.7 20.9 31.7 21.4 C 31.71 21.39 31.7 23.6 31.7 23.6 L 31.2 23.6 L 31.2 23.1 C 31.2 23.1 31.19 23.05 31.2 23.1 Z M 30 23.2 C 30.3 23.2 30.6 23.2 30.8 23 C 31.1 22.8 31.2 22.6 31.2 22.3 C 31.2 22.3 31.2 21.9 31.2 21.9 C 30.8 21.8 30.5 21.8 30.1 21.8 C 29.8 21.8 29.5 21.8 29.4 22 C 29.2 22.1 29.1 22.3 29.1 22.5 C 29.1 22.5 29.1 22.5 29.1 22.5 C 29.1 22.7 29.2 22.9 29.3 23.1 C 29.5 23.2 29.7 23.2 30 23.2 Z M 36 23 C 35.6 23.5 35.1 23.7 34.5 23.7 C 34 23.7 33.5 23.5 33.2 23.1 C 32.8 22.8 32.6 22.3 32.6 21.8 C 32.6 21.8 32.6 21.8 32.6 21.8 C 32.6 21.3 32.8 20.8 33.2 20.5 C 33.5 20.1 34 19.9 34.5 19.9 C 35 19.9 35.5 20.1 35.9 20.5 C 35.9 20.5 35.6 20.9 35.6 20.9 C 35.2 20.6 34.9 20.4 34.5 20.4 C 34.1 20.4 33.8 20.5 33.6 20.8 C 33.3 21.1 33.2 21.4 33.2 21.8 C 33.2 21.8 33.2 21.8 33.2 21.8 C 33.2 22.2 33.3 22.5 33.6 22.8 C 33.8 23.1 34.1 23.2 34.5 23.2 C 34.9 23.2 35.3 23 35.6 22.7 C 35.62 22.66 36 23 36 23 C 36 23 35.97 22.98 36 23 Z M 36.9 23.6 L 36.9 18.5 L 37.4 18.5 L 37.4 22 L 39.3 20 L 40 20 L 38.5 21.5 L 40.1 23.6 L 39.4 23.6 L 38.1 21.9 L 37.4 22.7 L 37.4 23.6 L 36.9 23.6 Z " stroke="none" fill="#000"/>  </g>  <g id="Polygon414878">    <path d="M 3 9.3 L 3 8.6 L 3.6 8.6 L 3.6 9.3 L 3 9.3 Z M 1.7 9.3 L 1.7 8.6 L 2.3 8.6 L 2.3 9.3 L 1.7 9.3 Z M 2.7 14.7 C 2 14.7 1.5 14.5 1.2 14.1 C 0.8 13.7 0.6 13.2 0.6 12.5 C 0.62 12.55 0.6 9.7 0.6 9.7 L 1.2 9.7 C 1.2 9.7 1.17 12.51 1.2 12.5 C 1.2 13 1.3 13.4 1.6 13.7 C 1.8 14 2.2 14.2 2.7 14.2 C 3.1 14.2 3.5 14 3.8 13.8 C 4 13.5 4.1 13.1 4.1 12.5 C 4.14 12.55 4.1 9.7 4.1 9.7 L 4.7 9.7 C 4.7 9.7 4.7 12.51 4.7 12.5 C 4.7 13.2 4.5 13.7 4.1 14.1 C 3.8 14.5 3.3 14.7 2.7 14.7 Z M 5.9 14.6 L 5.9 11 L 6.5 11 C 6.5 11 6.45 11.93 6.5 11.9 C 6.6 11.6 6.8 11.4 7 11.2 C 7.3 11 7.6 10.9 7.9 10.9 C 7.93 10.92 7.9 11.5 7.9 11.5 C 7.9 11.5 7.89 11.5 7.9 11.5 C 7.5 11.5 7.1 11.6 6.9 11.9 C 6.6 12.2 6.5 12.6 6.5 13.2 C 6.45 13.16 6.5 14.6 6.5 14.6 L 5.9 14.6 Z M 10.6 10.4 L 10.6 9.8 L 11.2 9.8 L 11.2 10.4 L 10.6 10.4 Z M 9.3 10.4 L 9.3 9.8 L 10 9.8 L 10 10.4 L 9.3 10.4 Z M 11.3 14 C 11 14.4 10.6 14.7 10.1 14.7 C 9.7 14.7 9.3 14.5 9.1 14.3 C 8.8 14 8.7 13.7 8.7 13.2 C 8.69 13.23 8.7 11 8.7 11 L 9.2 11 C 9.2 11 9.23 13.09 9.2 13.1 C 9.2 13.4 9.3 13.7 9.5 13.9 C 9.7 14.1 9.9 14.2 10.2 14.2 C 10.5 14.2 10.8 14.1 11 13.9 C 11.2 13.7 11.3 13.4 11.3 13.1 C 11.32 13.05 11.3 11 11.3 11 L 11.9 11 L 11.9 14.6 L 11.3 14.6 L 11.3 14 C 11.3 14 11.32 13.97 11.3 14 Z M 13.1 14.6 L 13.1 11 L 13.6 11 C 13.6 11 13.6 11.61 13.6 11.6 C 13.9 11.1 14.3 10.9 14.8 10.9 C 15.3 10.9 15.6 11 15.9 11.3 C 16.1 11.6 16.2 11.9 16.2 12.4 C 16.23 12.35 16.2 14.6 16.2 14.6 L 15.7 14.6 C 15.7 14.6 15.69 12.49 15.7 12.5 C 15.7 12.1 15.6 11.9 15.4 11.7 C 15.2 11.5 15 11.4 14.7 11.4 C 14.4 11.4 14.1 11.5 13.9 11.7 C 13.7 11.9 13.6 12.2 13.6 12.5 C 13.6 12.53 13.6 14.6 13.6 14.6 L 13.1 14.6 Z M 19.6 14.6 L 19.6 9.7 L 20.1 9.7 L 20.1 12.6 L 22.9 9.7 L 23.7 9.7 L 21.5 11.8 L 23.7 14.6 L 23 14.6 L 21.2 12.2 L 20.1 13.3 L 20.1 14.6 L 19.6 14.6 Z M 25.9 14.7 C 25.4 14.7 25 14.5 24.6 14.1 C 24.3 13.8 24.1 13.3 24.1 12.8 C 24.1 12.8 24.1 12.8 24.1 12.8 C 24.1 12.3 24.3 11.8 24.6 11.5 C 25 11.1 25.4 10.9 26 10.9 C 26.5 10.9 26.9 11.1 27.3 11.5 C 27.7 11.8 27.8 12.3 27.8 12.8 C 27.8 12.8 27.8 12.8 27.8 12.8 C 27.8 13.3 27.7 13.8 27.3 14.1 C 26.9 14.5 26.5 14.7 25.9 14.7 Z M 26 14.2 C 26.3 14.2 26.7 14.1 26.9 13.8 C 27.2 13.5 27.3 13.2 27.3 12.8 C 27.3 12.8 27.3 12.8 27.3 12.8 C 27.3 12.4 27.2 12.1 26.9 11.8 C 26.6 11.5 26.3 11.4 25.9 11.4 C 25.6 11.4 25.2 11.5 25 11.8 C 24.8 12.1 24.6 12.4 24.6 12.8 C 24.6 12.8 24.6 12.8 24.6 12.8 C 24.6 13.2 24.8 13.5 25 13.8 C 25.3 14.1 25.6 14.2 26 14.2 Z M 31.7 13.9 C 31.4 14.4 30.9 14.7 30.3 14.7 C 29.9 14.7 29.5 14.5 29.1 14.2 C 28.8 13.8 28.6 13.4 28.6 12.8 C 28.6 12.8 28.6 12.8 28.6 12.8 C 28.6 12.2 28.8 11.8 29.1 11.4 C 29.5 11.1 29.9 10.9 30.3 10.9 C 30.9 10.9 31.4 11.2 31.7 11.7 C 31.72 11.67 31.7 9.5 31.7 9.5 L 32.3 9.5 L 32.3 14.6 L 31.7 14.6 L 31.7 13.9 C 31.7 13.9 31.72 13.87 31.7 13.9 Z M 30.4 14.2 C 30.8 14.2 31.1 14.1 31.4 13.8 C 31.6 13.5 31.7 13.2 31.7 12.8 C 31.7 12.8 31.7 12.8 31.7 12.8 C 31.7 12.4 31.6 12 31.4 11.8 C 31.1 11.5 30.8 11.4 30.4 11.4 C 30.1 11.4 29.8 11.5 29.5 11.8 C 29.3 12 29.2 12.4 29.2 12.8 C 29.2 12.8 29.2 12.8 29.2 12.8 C 29.2 13.2 29.3 13.6 29.5 13.8 C 29.8 14.1 30.1 14.2 30.4 14.2 Z M 36 14 C 35.7 14.4 35.3 14.7 34.8 14.7 C 34.4 14.7 34 14.5 33.8 14.3 C 33.5 14 33.4 13.7 33.4 13.2 C 33.41 13.23 33.4 11 33.4 11 L 33.9 11 C 33.9 11 33.95 13.09 33.9 13.1 C 33.9 13.4 34 13.7 34.2 13.9 C 34.4 14.1 34.6 14.2 35 14.2 C 35.3 14.2 35.5 14.1 35.7 13.9 C 35.9 13.7 36 13.4 36 13.1 C 36.04 13.05 36 11 36 11 L 36.6 11 L 36.6 14.6 L 36 14.6 L 36 14 C 36 14 36.04 13.97 36 14 Z M 37.7 11.7 L 37.7 11 L 38.4 11 L 38.4 11.7 L 37.7 11.7 Z M 37.7 14.6 L 37.7 13.9 L 38.4 13.9 L 38.4 14.6 L 37.7 14.6 Z M 42.3 14.6 L 42.3 10.8 L 41.4 11 L 41.2 10.1 L 42.6 9.7 L 43.4 9.7 L 43.4 14.6 L 42.3 14.6 Z M 46.8 14.6 L 46.8 13.5 L 44.4 13.5 L 44.2 12.8 L 46.9 9.7 L 47.8 9.7 L 47.8 12.7 L 48.5 12.7 L 48.5 13.5 L 47.8 13.5 L 47.8 14.6 L 46.8 14.6 Z M 45.5 12.7 L 46.8 12.7 L 46.8 11.1 L 45.5 12.7 Z M 51 14.7 C 50.5 14.7 50 14.5 49.7 14.3 C 49.3 14 49.1 13.7 49.1 13.3 C 49.1 13.3 49.1 13.2 49.1 13.2 C 49.1 13 49.2 12.7 49.3 12.5 C 49.5 12.3 49.7 12.2 49.9 12.1 C 49.5 11.8 49.3 11.5 49.3 11 C 49.3 11 49.3 11 49.3 11 C 49.3 10.6 49.5 10.3 49.8 10 C 50.1 9.8 50.5 9.6 51 9.6 C 51.5 9.6 52 9.8 52.3 10 C 52.6 10.3 52.8 10.6 52.8 11 C 52.8 11 52.8 11 52.8 11 C 52.8 11.5 52.6 11.8 52.1 12.1 C 52.4 12.2 52.6 12.4 52.7 12.5 C 52.9 12.7 52.9 12.9 52.9 13.2 C 52.9 13.2 52.9 13.2 52.9 13.2 C 52.9 13.7 52.8 14 52.4 14.3 C 52 14.5 51.6 14.7 51 14.7 Z M 50.3 11.1 C 50.3 11.3 50.4 11.4 50.5 11.5 C 50.7 11.6 50.8 11.7 51 11.7 C 51.2 11.7 51.4 11.6 51.5 11.5 C 51.7 11.4 51.7 11.3 51.7 11.1 C 51.7 11.1 51.7 11.1 51.7 11.1 C 51.7 10.9 51.7 10.8 51.5 10.7 C 51.4 10.6 51.3 10.5 51 10.5 C 50.8 10.5 50.7 10.6 50.5 10.7 C 50.4 10.8 50.3 10.9 50.3 11.1 C 50.34 11.09 50.3 11.1 50.3 11.1 C 50.3 11.1 50.34 11.1 50.3 11.1 Z M 51 13.8 C 51.3 13.8 51.5 13.7 51.7 13.6 C 51.8 13.5 51.9 13.3 51.9 13.2 C 51.9 13.2 51.9 13.2 51.9 13.2 C 51.9 13 51.8 12.8 51.6 12.7 C 51.5 12.6 51.3 12.6 51 12.6 C 50.8 12.6 50.6 12.6 50.4 12.7 C 50.3 12.8 50.2 13 50.2 13.2 C 50.2 13.2 50.2 13.2 50.2 13.2 C 50.2 13.3 50.3 13.5 50.4 13.6 C 50.6 13.7 50.8 13.8 51 13.8 Z M 54.3 13.3 C 54.6 13.6 55 13.7 55.3 13.7 C 55.6 13.7 55.8 13.6 55.9 13.5 C 56.1 13.4 56.2 13.2 56.2 13.1 C 56.3 12.9 56.3 12.8 56.3 12.6 C 56.1 12.8 55.7 12.9 55.3 12.9 C 54.8 12.9 54.4 12.8 54.1 12.5 C 53.8 12.2 53.6 11.8 53.6 11.3 C 53.6 11.3 53.6 11.3 53.6 11.3 C 53.6 10.8 53.8 10.4 54.1 10.1 C 54.5 9.8 54.9 9.6 55.5 9.6 C 55.8 9.6 56.1 9.7 56.3 9.7 C 56.5 9.8 56.7 10 56.9 10.1 C 57.3 10.5 57.5 11.2 57.5 12 C 57.5 12 57.5 12 57.5 12 C 57.5 12.8 57.3 13.5 56.9 14 C 56.5 14.4 56 14.7 55.3 14.7 C 54.7 14.7 54.2 14.5 53.7 14.1 C 53.71 14.1 54.3 13.3 54.3 13.3 C 54.3 13.3 54.28 13.28 54.3 13.3 Z M 55.5 12 C 55.8 12 56 12 56.1 11.8 C 56.3 11.7 56.4 11.5 56.4 11.3 C 56.4 11.3 56.4 11.3 56.4 11.3 C 56.4 11.1 56.3 10.9 56.1 10.7 C 56 10.6 55.8 10.5 55.5 10.5 C 55.2 10.5 55 10.6 54.9 10.7 C 54.7 10.9 54.7 11.1 54.7 11.3 C 54.7 11.3 54.7 11.3 54.7 11.3 C 54.7 11.5 54.7 11.7 54.9 11.8 C 55 12 55.3 12 55.5 12 Z M 59.9 14.7 C 59.2 14.7 58.6 14.4 58.1 13.9 C 58.1 13.9 58.8 13.2 58.8 13.2 C 59.1 13.5 59.5 13.7 59.9 13.7 C 60.2 13.7 60.4 13.6 60.5 13.5 C 60.7 13.4 60.7 13.2 60.7 13 C 60.7 13 60.7 13 60.7 13 C 60.7 12.8 60.7 12.6 60.5 12.5 C 60.3 12.4 60.1 12.3 59.9 12.3 C 59.6 12.3 59.3 12.4 59.1 12.5 C 59.06 12.53 58.4 12.1 58.4 12.1 L 58.6 9.7 L 61.6 9.7 L 61.6 10.6 L 59.5 10.6 C 59.5 10.6 59.44 11.49 59.4 11.5 C 59.7 11.4 59.9 11.4 60.1 11.4 C 60.6 11.4 61 11.5 61.3 11.8 C 61.6 12.1 61.8 12.5 61.8 13 C 61.8 13 61.8 13 61.8 13 C 61.8 13.5 61.6 13.9 61.3 14.2 C 61 14.5 60.5 14.7 59.9 14.7 Z " stroke="none" fill="#000"/>  </g>  <g id="Polygon414877">    <path d="M 2.9 5.7 C 2.2 5.7 1.6 5.4 1.1 5 C 0.6 4.5 0.4 3.9 0.4 3.2 C 0.4 3.2 0.4 3.1 0.4 3.1 C 0.4 2.4 0.6 1.8 1.1 1.4 C 1.6 0.9 2.2 0.6 2.9 0.6 C 3.7 0.6 4.4 0.9 4.9 1.4 C 4.9 1.4 4.2 2.2 4.2 2.2 C 3.8 1.8 3.3 1.6 2.9 1.6 C 2.5 1.6 2.2 1.8 1.9 2.1 C 1.6 2.4 1.5 2.7 1.5 3.1 C 1.5 3.1 1.5 3.1 1.5 3.1 C 1.5 3.6 1.6 3.9 1.9 4.2 C 2.2 4.5 2.5 4.7 2.9 4.7 C 3.2 4.7 3.4 4.6 3.6 4.5 C 3.8 4.5 4 4.3 4.2 4.1 C 4.2 4.1 4.9 4.8 4.9 4.8 C 4.6 5.1 4.3 5.3 4 5.5 C 3.7 5.6 3.3 5.7 2.9 5.7 Z M 7.8 5.2 C 7.6 5.5 7.2 5.7 6.7 5.7 C 6.3 5.7 6 5.6 5.8 5.4 C 5.5 5.2 5.4 4.9 5.4 4.5 C 5.4 4.5 5.4 4.5 5.4 4.5 C 5.4 4.1 5.6 3.8 5.8 3.6 C 6.1 3.4 6.5 3.3 6.9 3.3 C 7.2 3.3 7.5 3.4 7.8 3.5 C 7.8 3.5 7.8 3.4 7.8 3.4 C 7.8 2.9 7.6 2.7 7 2.7 C 6.7 2.7 6.4 2.8 6 2.9 C 6 2.9 5.7 2.1 5.7 2.1 C 6.2 1.9 6.7 1.8 7.2 1.8 C 7.8 1.8 8.2 1.9 8.5 2.2 C 8.7 2.5 8.9 2.9 8.9 3.4 C 8.87 3.42 8.9 5.6 8.9 5.6 L 7.8 5.6 L 7.8 5.2 C 7.8 5.2 7.84 5.19 7.8 5.2 Z M 7 4.9 C 7.3 4.9 7.5 4.9 7.6 4.8 C 7.8 4.6 7.9 4.5 7.9 4.3 C 7.9 4.3 7.9 4.1 7.9 4.1 C 7.7 4 7.4 3.9 7.2 3.9 C 7 3.9 6.8 4 6.6 4.1 C 6.5 4.2 6.4 4.3 6.4 4.5 C 6.4 4.5 6.4 4.5 6.4 4.5 C 6.4 4.6 6.5 4.7 6.6 4.8 C 6.7 4.9 6.9 4.9 7 4.9 Z M 9.8 5.6 L 9.8 1.8 L 10.8 1.8 C 10.8 1.8 10.85 2.38 10.8 2.4 C 11.2 2 11.5 1.8 12 1.8 C 12.5 1.8 12.8 2 13 2.4 C 13.3 2 13.8 1.8 14.2 1.8 C 14.6 1.8 15 1.9 15.2 2.1 C 15.4 2.4 15.5 2.7 15.5 3.2 C 15.51 3.16 15.5 5.6 15.5 5.6 L 14.4 5.6 C 14.4 5.6 14.45 3.51 14.4 3.5 C 14.4 3 14.2 2.7 13.8 2.7 C 13.6 2.7 13.5 2.8 13.4 2.9 C 13.2 3.1 13.2 3.3 13.2 3.5 C 13.18 3.51 13.2 5.6 13.2 5.6 L 12.1 5.6 C 12.1 5.6 12.12 3.51 12.1 3.5 C 12.1 3 11.9 2.7 11.5 2.7 C 11.3 2.7 11.1 2.8 11 2.9 C 10.9 3.1 10.8 3.3 10.8 3.5 C 10.85 3.51 10.8 5.6 10.8 5.6 L 9.8 5.6 Z M 21.9 5.7 C 21.9 5.7 21.38 5.12 21.4 5.1 C 20.9 5.5 20.5 5.7 19.9 5.7 C 19.5 5.7 19.1 5.5 18.8 5.3 C 18.5 5 18.3 4.7 18.3 4.3 C 18.3 4.3 18.3 4.2 18.3 4.2 C 18.3 3.6 18.6 3.2 19.2 2.9 C 19 2.6 18.9 2.3 18.9 1.9 C 18.9 1.9 18.9 1.9 18.9 1.9 C 18.9 1.6 19 1.3 19.3 1 C 19.6 0.7 19.9 0.6 20.4 0.6 C 20.8 0.6 21.1 0.7 21.4 1 C 21.6 1.2 21.8 1.5 21.8 1.8 C 21.8 1.8 21.8 1.9 21.8 1.9 C 21.8 2.4 21.4 2.9 20.7 3.1 C 20.7 3.1 21.4 3.8 21.4 3.8 C 21.5 3.6 21.7 3.3 21.9 3 C 21.9 3 22.7 3.4 22.7 3.4 C 22.4 3.8 22.2 4.2 22 4.4 C 22.01 4.42 22.7 5.1 22.7 5.1 L 21.9 5.7 Z M 19.9 2 C 19.9 2.2 20 2.4 20.2 2.6 C 20.4 2.5 20.6 2.4 20.7 2.3 C 20.8 2.2 20.8 2.1 20.8 1.9 C 20.8 1.9 20.8 1.9 20.8 1.9 C 20.8 1.8 20.8 1.7 20.7 1.6 C 20.6 1.5 20.5 1.5 20.4 1.5 C 20.2 1.5 20.1 1.5 20 1.6 C 19.9 1.7 19.9 1.8 19.9 2 C 19.89 1.95 19.9 2 19.9 2 C 19.9 2 19.89 1.97 19.9 2 Z M 20.1 4.8 C 20.3 4.8 20.5 4.7 20.8 4.5 C 20.8 4.5 19.8 3.6 19.8 3.6 C 19.5 3.7 19.4 3.9 19.4 4.2 C 19.4 4.2 19.4 4.2 19.4 4.2 C 19.4 4.4 19.4 4.5 19.6 4.6 C 19.7 4.7 19.9 4.8 20.1 4.8 Z M 25.6 5.6 L 25.6 0.7 C 25.6 0.7 27.53 0.7 27.5 0.7 C 28.3 0.7 28.9 0.9 29.4 1.4 C 29.9 1.9 30.1 2.4 30.1 3.1 C 30.1 3.1 30.1 3.1 30.1 3.1 C 30.1 3.8 29.9 4.4 29.4 4.9 C 28.9 5.4 28.3 5.6 27.5 5.6 C 27.53 5.6 25.6 5.6 25.6 5.6 Z M 27.5 1.7 C 27.53 1.67 26.7 1.7 26.7 1.7 L 26.7 4.6 C 26.7 4.6 27.53 4.63 27.5 4.6 C 28 4.6 28.3 4.5 28.6 4.2 C 28.9 4 29 3.6 29 3.2 C 29 3.2 29 3.1 29 3.1 C 29 2.7 28.9 2.4 28.6 2.1 C 28.3 1.8 28 1.7 27.5 1.7 Z M 33.3 5.1 C 33 5.5 32.6 5.7 32.2 5.7 C 31.8 5.7 31.5 5.5 31.3 5.3 C 31.1 5.1 31 4.7 31 4.3 C 30.95 4.28 31 1.8 31 1.8 L 32 1.8 C 32 1.8 32.02 3.94 32 3.9 C 32 4.4 32.2 4.7 32.7 4.7 C 32.9 4.7 33 4.6 33.2 4.5 C 33.3 4.4 33.3 4.2 33.3 3.9 C 33.33 3.94 33.3 1.8 33.3 1.8 L 34.4 1.8 L 34.4 5.6 L 33.3 5.6 L 33.3 5.1 C 33.3 5.1 33.33 5.07 33.3 5.1 Z M 36.5 6.8 L 35.6 6.4 C 35.6 6.4 36.19 5.62 36.2 5.6 C 35.8 5.5 35.4 5.4 35 5.1 C 35 5.1 35.5 4.4 35.5 4.4 C 35.9 4.7 36.3 4.9 36.7 4.9 C 37 4.9 37.1 4.8 37.1 4.6 C 37.1 4.6 37.1 4.6 37.1 4.6 C 37.1 4.5 37.1 4.5 37.1 4.5 C 37.1 4.4 37.1 4.4 37.1 4.4 C 37 4.4 37 4.4 37 4.3 C 36.9 4.3 36.9 4.3 36.8 4.3 C 36.8 4.3 36.7 4.2 36.7 4.2 C 36.7 4.2 36.6 4.2 36.5 4.2 C 36.5 4.2 36.4 4.1 36.4 4.1 C 36.2 4.1 36.1 4 36 4 C 35.8 3.9 35.7 3.9 35.6 3.8 C 35.5 3.7 35.4 3.6 35.3 3.5 C 35.3 3.3 35.2 3.2 35.2 3 C 35.2 3 35.2 3 35.2 3 C 35.2 2.6 35.4 2.3 35.6 2.1 C 35.9 1.9 36.2 1.8 36.6 1.8 C 37.1 1.8 37.6 1.9 38 2.2 C 38 2.2 37.6 3 37.6 3 C 37.2 2.7 36.9 2.6 36.6 2.6 C 36.5 2.6 36.4 2.6 36.3 2.7 C 36.2 2.7 36.2 2.8 36.2 2.9 C 36.2 2.9 36.2 2.9 36.2 2.9 C 36.2 3 36.3 3 36.4 3.1 C 36.5 3.2 36.7 3.3 37 3.3 C 37.1 3.4 37.3 3.4 37.4 3.5 C 37.5 3.5 37.6 3.6 37.7 3.7 C 37.8 3.8 37.9 3.9 38 4 C 38.1 4.1 38.1 4.3 38.1 4.4 C 38.1 4.4 38.1 4.5 38.1 4.5 C 38.1 4.8 38 5.1 37.8 5.3 C 37.6 5.5 37.3 5.6 37 5.6 C 36.99 5.65 36.5 6.8 36.5 6.8 Z M 42.8 5.7 C 42 5.7 41.3 5.4 40.7 4.9 C 40.7 4.9 41.4 4.1 41.4 4.1 C 41.9 4.5 42.3 4.7 42.8 4.7 C 43.1 4.7 43.2 4.7 43.4 4.6 C 43.5 4.5 43.5 4.4 43.5 4.3 C 43.5 4.3 43.5 4.2 43.5 4.2 C 43.5 4.1 43.5 4 43.3 3.9 C 43.2 3.8 42.9 3.7 42.6 3.6 C 42.3 3.5 42.1 3.5 41.9 3.4 C 41.7 3.3 41.5 3.3 41.4 3.1 C 41.2 3 41.1 2.9 41 2.7 C 41 2.6 40.9 2.4 40.9 2.1 C 40.9 2.1 40.9 2.1 40.9 2.1 C 40.9 1.7 41.1 1.3 41.4 1 C 41.7 0.8 42.1 0.6 42.6 0.6 C 43.3 0.6 43.9 0.8 44.5 1.3 C 44.5 1.3 43.9 2.1 43.9 2.1 C 43.4 1.7 43 1.6 42.6 1.6 C 42.4 1.6 42.3 1.6 42.2 1.7 C 42.1 1.8 42 1.9 42 2 C 42 2 42 2 42 2 C 42 2.2 42.1 2.3 42.2 2.4 C 42.3 2.5 42.6 2.6 43.1 2.7 C 43.6 2.8 44 3 44.2 3.2 C 44.5 3.4 44.6 3.7 44.6 4.1 C 44.6 4.1 44.6 4.2 44.6 4.2 C 44.6 4.6 44.4 5 44.1 5.3 C 43.8 5.5 43.4 5.7 42.8 5.7 Z M 45.5 1.4 L 45.5 0.5 L 46.6 0.5 L 46.6 1.4 L 45.5 1.4 Z M 45.5 5.6 L 45.5 1.8 L 46.5 1.8 L 46.5 5.6 L 45.5 5.6 Z M 47.6 5.6 L 47.6 0.5 L 48.7 0.5 L 48.7 5.6 L 47.6 5.6 Z M 53 5 C 52.6 5.5 52.1 5.7 51.4 5.7 C 50.9 5.7 50.4 5.5 50 5.1 C 49.7 4.8 49.5 4.3 49.5 3.7 C 49.5 3.7 49.5 3.7 49.5 3.7 C 49.5 3.2 49.7 2.7 50 2.3 C 50.4 2 50.8 1.8 51.3 1.8 C 51.9 1.8 52.4 2 52.7 2.4 C 53 2.8 53.2 3.2 53.2 3.8 C 53.2 3.9 53.2 4 53.2 4.1 C 53.2 4.1 50.5 4.1 50.5 4.1 C 50.6 4.3 50.7 4.5 50.9 4.6 C 51 4.8 51.2 4.8 51.5 4.8 C 51.8 4.8 52.1 4.7 52.4 4.4 C 52.37 4.44 53 5 53 5 C 53 5 52.98 4.98 53 5 Z M 50.5 3.4 C 50.5 3.4 52.1 3.4 52.1 3.4 C 52.1 3.2 52 3 51.9 2.8 C 51.7 2.7 51.6 2.6 51.3 2.6 C 51.1 2.6 50.9 2.7 50.8 2.8 C 50.7 3 50.6 3.2 50.5 3.4 Z M 55.7 5.7 C 55.2 5.7 54.7 5.5 54.3 5.1 C 54 4.7 53.8 4.3 53.8 3.7 C 53.8 3.7 53.8 3.7 53.8 3.7 C 53.8 3.2 54 2.7 54.3 2.3 C 54.7 2 55.2 1.8 55.7 1.8 C 56.4 1.8 56.9 2 57.2 2.4 C 57.2 2.4 56.6 3.1 56.6 3.1 C 56.5 3 56.3 2.9 56.2 2.8 C 56.1 2.7 55.9 2.7 55.7 2.7 C 55.5 2.7 55.3 2.8 55.1 3 C 54.9 3.2 54.8 3.4 54.8 3.7 C 54.8 3.7 54.8 3.7 54.8 3.7 C 54.8 4 54.9 4.3 55.1 4.5 C 55.3 4.7 55.5 4.8 55.8 4.8 C 56.1 4.8 56.4 4.6 56.6 4.4 C 56.6 4.4 57.3 5 57.3 5 C 57.1 5.2 56.8 5.4 56.6 5.5 C 56.4 5.6 56.1 5.7 55.7 5.7 Z M 61.2 5 C 60.8 5.5 60.3 5.7 59.6 5.7 C 59.1 5.7 58.6 5.5 58.2 5.1 C 57.8 4.8 57.7 4.3 57.7 3.7 C 57.7 3.7 57.7 3.7 57.7 3.7 C 57.7 3.2 57.8 2.7 58.2 2.3 C 58.5 2 59 1.8 59.5 1.8 C 60.1 1.8 60.6 2 60.9 2.4 C 61.2 2.8 61.3 3.2 61.3 3.8 C 61.3 3.9 61.3 4 61.3 4.1 C 61.3 4.1 58.7 4.1 58.7 4.1 C 58.8 4.3 58.9 4.5 59 4.6 C 59.2 4.8 59.4 4.8 59.6 4.8 C 60 4.8 60.3 4.7 60.5 4.4 C 60.55 4.44 61.2 5 61.2 5 C 61.2 5 61.16 4.98 61.2 5 Z M 58.7 3.4 C 58.7 3.4 60.3 3.4 60.3 3.4 C 60.3 3.2 60.2 3 60.1 2.8 C 59.9 2.7 59.7 2.6 59.5 2.6 C 59.3 2.6 59.1 2.7 59 2.8 C 58.8 3 58.8 3.2 58.7 3.4 Z M 65.4 6.2 C 65.1 6.6 64.6 6.7 63.8 6.7 C 63.2 6.7 62.7 6.6 62.2 6.3 C 62.2 6.3 62.5 5.5 62.5 5.5 C 62.9 5.8 63.4 5.9 63.8 5.9 C 64.5 5.9 64.9 5.5 64.9 4.9 C 64.9 4.9 64.9 4.7 64.9 4.7 C 64.7 4.9 64.5 5 64.3 5.1 C 64.1 5.2 63.9 5.3 63.6 5.3 C 63.2 5.3 62.8 5.1 62.5 4.8 C 62.1 4.5 62 4.1 62 3.5 C 62 3.5 62 3.5 62 3.5 C 62 3 62.1 2.6 62.5 2.3 C 62.8 1.9 63.2 1.8 63.6 1.8 C 64.1 1.8 64.5 2 64.8 2.3 C 64.85 2.34 64.8 1.8 64.8 1.8 L 65.9 1.8 C 65.9 1.8 65.91 4.75 65.9 4.8 C 65.9 5.4 65.8 5.9 65.4 6.2 C 65.4 6.2 65.4 6.2 65.4 6.2 Z M 63 3.5 C 63 3.8 63.1 4 63.3 4.2 C 63.5 4.3 63.7 4.4 63.9 4.4 C 64.2 4.4 64.4 4.3 64.6 4.2 C 64.8 4 64.9 3.8 64.9 3.5 C 64.9 3.5 64.9 3.5 64.9 3.5 C 64.9 3.3 64.8 3.1 64.6 2.9 C 64.4 2.7 64.2 2.7 63.9 2.7 C 63.7 2.7 63.5 2.7 63.3 2.9 C 63.1 3.1 63 3.3 63 3.5 C 63.03 3.53 63 3.5 63 3.5 C 63 3.5 63.03 3.54 63 3.5 Z M 65.4 0.3 C 65.4 0.7 65.2 1 65 1.2 C 64.8 1.4 64.5 1.4 64.1 1.4 C 63.7 1.4 63.4 1.4 63.2 1.2 C 62.9 1 62.8 0.7 62.8 0.3 C 62.8 0.3 63.5 0.3 63.5 0.3 C 63.6 0.6 63.8 0.8 64.1 0.8 C 64.4 0.8 64.6 0.6 64.7 0.3 C 64.68 0.34 65.4 0.3 65.4 0.3 C 65.4 0.3 65.39 0.34 65.4 0.3 Z M 66.9 1.4 L 66.9 0.5 L 68 0.5 L 68 1.4 L 66.9 1.4 Z M 66.9 5.6 L 66.9 1.8 L 68 1.8 L 68 5.6 L 66.9 5.6 Z M 71 3.9 L 71 2.9 L 73.9 2.9 L 73.9 3.9 L 71 3.9 Z M 77 5.6 L 77 0.7 C 77 0.7 79.22 0.7 79.2 0.7 C 79.8 0.7 80.3 0.9 80.7 1.2 C 80.9 1.5 81.1 1.9 81.1 2.3 C 81.1 2.3 81.1 2.3 81.1 2.3 C 81.1 3.1 80.7 3.6 80 3.8 C 80.02 3.85 81.2 5.6 81.2 5.6 L 80 5.6 L 78.9 4 L 78.1 4 L 78.1 5.6 L 77 5.6 Z M 78.1 3.1 C 78.1 3.1 79.15 3.08 79.2 3.1 C 79.4 3.1 79.6 3 79.8 2.9 C 79.9 2.8 80 2.6 80 2.4 C 80 2.4 80 2.4 80 2.4 C 80 2.1 79.9 2 79.8 1.9 C 79.6 1.7 79.4 1.7 79.1 1.7 C 79.13 1.67 78.1 1.7 78.1 1.7 L 78.1 3.1 Z M 82 1.4 L 82 0.5 L 83.1 0.5 L 83.1 1.4 L 82 1.4 Z M 82 5.6 L 82 1.8 L 83 1.8 L 83 5.6 L 82 5.6 Z M 84 5.6 L 84 1.8 L 85.1 1.8 C 85.1 1.8 85.11 2.38 85.1 2.4 C 85.4 2 85.8 1.8 86.2 1.8 C 86.7 1.8 87.1 2 87.3 2.4 C 87.6 2 88 1.8 88.5 1.8 C 88.9 1.8 89.2 1.9 89.4 2.1 C 89.7 2.4 89.8 2.7 89.8 3.2 C 89.77 3.16 89.8 5.6 89.8 5.6 L 88.7 5.6 C 88.7 5.6 88.71 3.51 88.7 3.5 C 88.7 3 88.5 2.7 88.1 2.7 C 87.9 2.7 87.7 2.8 87.6 2.9 C 87.5 3.1 87.4 3.3 87.4 3.5 C 87.44 3.51 87.4 5.6 87.4 5.6 L 86.4 5.6 C 86.4 5.6 86.38 3.51 86.4 3.5 C 86.4 3 86.2 2.7 85.8 2.7 C 85.6 2.7 85.4 2.8 85.3 2.9 C 85.2 3.1 85.1 3.3 85.1 3.5 C 85.11 3.51 85.1 5.6 85.1 5.6 L 84 5.6 Z M 95.1 5.9 C 95.1 5.9 94.7 6.6 94.7 6.6 C 94 6.2 93.5 5.8 93.2 5.3 C 92.9 4.8 92.7 4.3 92.7 3.6 C 92.7 3.6 92.7 3.6 92.7 3.6 C 92.7 2.9 92.9 2.3 93.2 1.9 C 93.5 1.4 94 0.9 94.7 0.6 C 94.7 0.6 95.1 1.3 95.1 1.3 C 94.7 1.6 94.3 2 94.1 2.3 C 93.9 2.7 93.8 3.1 93.8 3.6 C 93.8 3.6 93.8 3.6 93.8 3.6 C 93.8 4.1 93.9 4.5 94.1 4.9 C 94.3 5.2 94.7 5.6 95.1 5.9 Z M 96 5.6 L 96 0.7 C 96 0.7 98.3 0.7 98.3 0.7 C 98.9 0.7 99.3 0.8 99.6 1.1 C 99.8 1.4 99.9 1.6 99.9 2 C 99.9 2 99.9 2 99.9 2 C 99.9 2.5 99.7 2.8 99.3 3 C 99.6 3.2 99.8 3.3 100 3.5 C 100.1 3.7 100.2 3.9 100.2 4.2 C 100.2 4.2 100.2 4.3 100.2 4.3 C 100.2 4.7 100 5 99.7 5.3 C 99.4 5.5 98.9 5.6 98.4 5.6 C 98.36 5.6 96 5.6 96 5.6 Z M 98.1 2.7 C 98.6 2.7 98.8 2.5 98.8 2.2 C 98.8 2.2 98.8 2.1 98.8 2.1 C 98.8 1.8 98.6 1.6 98.1 1.6 C 98.14 1.64 97.1 1.6 97.1 1.6 L 97.1 2.7 L 98.1 2.7 C 98.1 2.7 98.07 2.68 98.1 2.7 Z M 98.4 4.7 C 98.9 4.7 99.1 4.5 99.1 4.1 C 99.1 4.1 99.1 4.1 99.1 4.1 C 99.1 3.8 98.9 3.6 98.3 3.6 C 98.32 3.58 97.1 3.6 97.1 3.6 L 97.1 4.7 L 98.4 4.7 C 98.4 4.7 98.36 4.65 98.4 4.7 Z M 103.3 5.1 C 103 5.5 102.6 5.7 102.2 5.7 C 101.8 5.7 101.5 5.5 101.3 5.3 C 101 5.1 100.9 4.7 100.9 4.3 C 100.94 4.28 100.9 1.8 100.9 1.8 L 102 1.8 C 102 1.8 102 3.94 102 3.9 C 102 4.4 102.2 4.7 102.6 4.7 C 102.9 4.7 103 4.6 103.1 4.5 C 103.3 4.4 103.3 4.2 103.3 3.9 C 103.31 3.94 103.3 1.8 103.3 1.8 L 104.4 1.8 L 104.4 5.6 L 103.3 5.6 L 103.3 5.1 C 103.3 5.1 103.31 5.07 103.3 5.1 Z M 102.9 1.4 L 102.9 0.5 L 103.9 0.5 L 103.9 1.4 L 102.9 1.4 Z M 101.4 1.4 L 101.4 0.5 L 102.4 0.5 L 102.4 1.4 L 101.4 1.4 Z M 107 4.4 L 107.8 1.8 L 108.9 1.8 C 108.9 1.8 107.46 5.69 107.5 5.7 C 107.3 6.1 107.2 6.3 107 6.5 C 106.8 6.7 106.5 6.7 106.2 6.7 C 105.9 6.7 105.6 6.7 105.3 6.5 C 105.3 6.5 105.6 5.7 105.6 5.7 C 105.8 5.8 106 5.9 106.1 5.9 C 106.2 5.9 106.3 5.8 106.3 5.8 C 106.4 5.8 106.4 5.7 106.5 5.6 C 106.46 5.61 105 1.8 105 1.8 L 106.1 1.8 L 107 4.4 Z M 111.9 5.1 C 111.6 5.5 111.2 5.7 110.8 5.7 C 110.4 5.7 110.1 5.5 109.8 5.3 C 109.6 5.1 109.5 4.7 109.5 4.3 C 109.5 4.28 109.5 1.8 109.5 1.8 L 110.6 1.8 C 110.6 1.8 110.56 3.94 110.6 3.9 C 110.6 4.4 110.8 4.7 111.2 4.7 C 111.4 4.7 111.6 4.6 111.7 4.5 C 111.8 4.4 111.9 4.2 111.9 3.9 C 111.87 3.94 111.9 1.8 111.9 1.8 L 112.9 1.8 L 112.9 5.6 L 111.9 5.6 L 111.9 5.1 C 111.9 5.1 111.87 5.07 111.9 5.1 Z M 111.4 1.4 L 111.4 0.5 L 112.5 0.5 L 112.5 1.4 L 111.4 1.4 Z M 110 1.4 L 110 0.5 L 111 0.5 L 111 1.4 L 110 1.4 Z M 113.9 5.6 L 113.9 0.5 L 115 0.5 L 115 3.2 L 116.2 1.8 L 117.5 1.8 L 116 3.3 L 117.5 5.6 L 116.3 5.6 L 115.3 4.1 L 115 4.5 L 115 5.6 L 113.9 5.6 Z M 118.3 6.6 C 118.3 6.6 117.9 5.9 117.9 5.9 C 118.3 5.6 118.7 5.2 118.9 4.9 C 119.1 4.5 119.2 4.1 119.2 3.6 C 119.2 3.6 119.2 3.6 119.2 3.6 C 119.2 3.1 119.1 2.7 118.9 2.3 C 118.7 2 118.3 1.6 117.9 1.3 C 117.9 1.3 118.3 0.6 118.3 0.6 C 119 0.9 119.5 1.4 119.8 1.9 C 120.1 2.3 120.3 2.9 120.3 3.6 C 120.3 3.6 120.3 3.6 120.3 3.6 C 120.3 4.3 120.1 4.8 119.8 5.3 C 119.5 5.8 119 6.2 118.3 6.6 Z " stroke="none" fill="#000"/>  </g></svg>