<?xml version="1.0" standalone="no"?><!DOCTYPE svg PUBLIC "-//W3C//DTD SVG 1.1//EN" "http://www.w3.org/Graphics/SVG/1.1/DTD/svg11.dtd"><svg xmlns="http://www.w3.org/2000/svg" version="1.1" width="49px" height="22.4px" viewBox="0 -3 49 22.4" style="top:-3px">  <desc>28254 Sand</desc>  <defs/>  <g id="Polygon432139">    <path d="M 18.1 14.1 C 17.3 14.1 16.7 13.8 16.1 13.3 C 16.1 13.3 16.4 12.9 16.4 12.9 C 16.7 13.1 16.9 13.3 17.2 13.4 C 17.5 13.5 17.8 13.6 18.1 13.6 C 18.4 13.6 18.7 13.5 18.9 13.3 C 19.1 13.2 19.2 13 19.2 12.7 C 19.2 12.7 19.2 12.7 19.2 12.7 C 19.2 12.5 19.1 12.3 18.9 12.2 C 18.7 12 18.4 11.9 17.9 11.8 C 17.3 11.7 16.9 11.5 16.7 11.3 C 16.4 11.1 16.3 10.8 16.3 10.4 C 16.3 10.4 16.3 10.4 16.3 10.4 C 16.3 10 16.4 9.7 16.7 9.4 C 17 9.2 17.4 9 17.9 9 C 18.2 9 18.5 9.1 18.8 9.2 C 19.1 9.3 19.3 9.4 19.6 9.6 C 19.6 9.6 19.3 10.1 19.3 10.1 C 18.8 9.7 18.4 9.5 17.9 9.5 C 17.5 9.5 17.3 9.6 17.1 9.8 C 16.9 9.9 16.8 10.1 16.8 10.3 C 16.8 10.3 16.8 10.3 16.8 10.3 C 16.8 10.6 16.9 10.8 17.1 10.9 C 17.3 11.1 17.6 11.2 18.2 11.3 C 18.7 11.4 19.1 11.6 19.4 11.8 C 19.6 12 19.7 12.3 19.7 12.7 C 19.7 12.7 19.7 12.7 19.7 12.7 C 19.7 13.1 19.6 13.4 19.3 13.7 C 19 13.9 18.6 14.1 18.1 14.1 Z M 23.2 13.5 C 22.9 13.9 22.4 14.1 21.9 14.1 C 21.5 14.1 21.2 14 20.9 13.8 C 20.6 13.6 20.5 13.3 20.5 12.9 C 20.5 12.9 20.5 12.9 20.5 12.9 C 20.5 12.6 20.7 12.3 20.9 12.1 C 21.2 11.9 21.6 11.8 22.1 11.8 C 22.4 11.8 22.8 11.8 23.2 11.9 C 23.2 11.9 23.2 11.8 23.2 11.8 C 23.2 11.5 23.1 11.2 22.9 11.1 C 22.7 10.9 22.4 10.8 22.1 10.8 C 21.7 10.8 21.4 10.9 21 11.1 C 21 11.1 20.8 10.6 20.8 10.6 C 21.3 10.4 21.7 10.3 22.1 10.3 C 22.7 10.3 23.1 10.5 23.3 10.7 C 23.6 11 23.7 11.3 23.7 11.8 C 23.69 11.79 23.7 14 23.7 14 L 23.2 14 L 23.2 13.5 C 23.2 13.5 23.17 13.45 23.2 13.5 Z M 22 13.6 C 22.3 13.6 22.6 13.6 22.8 13.4 C 23.1 13.2 23.2 13 23.2 12.7 C 23.2 12.7 23.2 12.3 23.2 12.3 C 22.8 12.2 22.5 12.2 22.1 12.2 C 21.8 12.2 21.5 12.2 21.3 12.4 C 21.1 12.5 21.1 12.7 21.1 12.9 C 21.1 12.9 21.1 12.9 21.1 12.9 C 21.1 13.1 21.1 13.3 21.3 13.5 C 21.5 13.6 21.7 13.6 22 13.6 Z M 24.8 14 L 24.8 10.4 L 25.4 10.4 C 25.4 10.4 25.38 11.01 25.4 11 C 25.7 10.5 26.1 10.3 26.6 10.3 C 27 10.3 27.4 10.4 27.6 10.7 C 27.9 11 28 11.3 28 11.8 C 28 11.75 28 14 28 14 L 27.5 14 C 27.5 14 27.46 11.89 27.5 11.9 C 27.5 11.5 27.4 11.3 27.2 11.1 C 27 10.9 26.8 10.8 26.5 10.8 C 26.1 10.8 25.9 10.9 25.7 11.1 C 25.5 11.3 25.4 11.6 25.4 11.9 C 25.38 11.93 25.4 14 25.4 14 L 24.8 14 Z M 32.1 13.3 C 31.7 13.8 31.2 14.1 30.7 14.1 C 30.2 14.1 29.8 13.9 29.5 13.6 C 29.1 13.2 28.9 12.8 28.9 12.2 C 28.9 12.2 28.9 12.2 28.9 12.2 C 28.9 11.6 29.1 11.2 29.5 10.8 C 29.8 10.5 30.2 10.3 30.7 10.3 C 31.2 10.3 31.7 10.6 32.1 11.1 C 32.05 11.07 32.1 8.9 32.1 8.9 L 32.6 8.9 L 32.6 14 L 32.1 14 L 32.1 13.3 C 32.1 13.3 32.05 13.27 32.1 13.3 Z M 30.8 13.6 C 31.1 13.6 31.4 13.5 31.7 13.2 C 31.9 12.9 32.1 12.6 32.1 12.2 C 32.1 12.2 32.1 12.2 32.1 12.2 C 32.1 11.8 31.9 11.4 31.7 11.2 C 31.4 10.9 31.1 10.8 30.8 10.8 C 30.4 10.8 30.1 10.9 29.9 11.2 C 29.6 11.4 29.5 11.8 29.5 12.2 C 29.5 12.2 29.5 12.2 29.5 12.2 C 29.5 12.6 29.6 13 29.9 13.2 C 30.1 13.5 30.4 13.6 30.8 13.6 Z " stroke="none" fill="#000"/>  </g>  <g id="Polygon432138">    <path d="M 13.6 5.6 L 13.6 4.7 C 13.6 4.7 15.24 3.41 15.2 3.4 C 15.6 3.1 15.8 2.9 15.9 2.8 C 16 2.6 16.1 2.4 16.1 2.2 C 16.1 2 16 1.9 15.9 1.8 C 15.8 1.7 15.6 1.6 15.4 1.6 C 15.2 1.6 15.1 1.6 14.9 1.7 C 14.8 1.8 14.6 2 14.4 2.3 C 14.4 2.3 13.7 1.6 13.7 1.6 C 13.9 1.3 14.2 1 14.5 0.9 C 14.7 0.7 15.1 0.6 15.5 0.6 C 16 0.6 16.4 0.8 16.7 1 C 17 1.3 17.2 1.7 17.2 2.1 C 17.2 2.1 17.2 2.2 17.2 2.2 C 17.2 2.5 17.1 2.9 16.9 3.1 C 16.7 3.4 16.4 3.7 15.9 4.1 C 15.9 4.05 15.1 4.7 15.1 4.7 L 17.2 4.7 L 17.2 5.6 L 13.6 5.6 Z M 19.8 5.7 C 19.3 5.7 18.8 5.5 18.5 5.3 C 18.1 5 17.9 4.7 17.9 4.3 C 17.9 4.3 17.9 4.2 17.9 4.2 C 17.9 4 18 3.7 18.1 3.5 C 18.3 3.3 18.5 3.2 18.7 3.1 C 18.3 2.8 18.1 2.5 18.1 2 C 18.1 2 18.1 2 18.1 2 C 18.1 1.6 18.3 1.3 18.6 1 C 18.9 0.8 19.3 0.6 19.8 0.6 C 20.3 0.6 20.8 0.8 21.1 1 C 21.4 1.3 21.6 1.6 21.6 2 C 21.6 2 21.6 2 21.6 2 C 21.6 2.5 21.3 2.8 20.9 3.1 C 21.2 3.2 21.4 3.4 21.5 3.5 C 21.7 3.7 21.7 3.9 21.7 4.2 C 21.7 4.2 21.7 4.2 21.7 4.2 C 21.7 4.7 21.5 5 21.2 5.3 C 20.8 5.5 20.4 5.7 19.8 5.7 Z M 19.1 2.1 C 19.1 2.3 19.2 2.4 19.3 2.5 C 19.5 2.6 19.6 2.7 19.8 2.7 C 20 2.7 20.2 2.6 20.3 2.5 C 20.5 2.4 20.5 2.3 20.5 2.1 C 20.5 2.1 20.5 2.1 20.5 2.1 C 20.5 1.9 20.5 1.8 20.3 1.7 C 20.2 1.6 20 1.5 19.8 1.5 C 19.6 1.5 19.4 1.6 19.3 1.7 C 19.2 1.8 19.1 1.9 19.1 2.1 C 19.13 2.09 19.1 2.1 19.1 2.1 C 19.1 2.1 19.13 2.1 19.1 2.1 Z M 19.8 4.8 C 20.1 4.8 20.3 4.7 20.5 4.6 C 20.6 4.5 20.7 4.3 20.7 4.2 C 20.7 4.2 20.7 4.2 20.7 4.2 C 20.7 4 20.6 3.8 20.4 3.7 C 20.3 3.6 20.1 3.6 19.8 3.6 C 19.6 3.6 19.4 3.6 19.2 3.7 C 19.1 3.8 19 4 19 4.2 C 19 4.2 19 4.2 19 4.2 C 19 4.3 19.1 4.5 19.2 4.6 C 19.4 4.7 19.6 4.8 19.8 4.8 Z M 22.4 5.6 L 22.4 4.7 C 22.4 4.7 24.01 3.41 24 3.4 C 24.3 3.1 24.6 2.9 24.7 2.8 C 24.8 2.6 24.9 2.4 24.9 2.2 C 24.9 2 24.8 1.9 24.7 1.8 C 24.6 1.7 24.4 1.6 24.2 1.6 C 24 1.6 23.9 1.6 23.7 1.7 C 23.6 1.8 23.4 2 23.2 2.3 C 23.2 2.3 22.4 1.6 22.4 1.6 C 22.7 1.3 23 1 23.2 0.9 C 23.5 0.7 23.9 0.6 24.3 0.6 C 24.8 0.6 25.2 0.8 25.5 1 C 25.8 1.3 26 1.7 26 2.1 C 26 2.1 26 2.2 26 2.2 C 26 2.5 25.9 2.9 25.7 3.1 C 25.5 3.4 25.2 3.7 24.7 4.1 C 24.67 4.05 23.9 4.7 23.9 4.7 L 26 4.7 L 26 5.6 L 22.4 5.6 Z M 28.5 5.7 C 27.8 5.7 27.2 5.4 26.7 4.9 C 26.7 4.9 27.4 4.2 27.4 4.2 C 27.7 4.5 28.1 4.7 28.5 4.7 C 28.8 4.7 29 4.6 29.1 4.5 C 29.3 4.4 29.3 4.2 29.3 4 C 29.3 4 29.3 4 29.3 4 C 29.3 3.8 29.3 3.6 29.1 3.5 C 28.9 3.4 28.7 3.3 28.5 3.3 C 28.2 3.3 27.9 3.4 27.7 3.5 C 27.65 3.53 27 3.1 27 3.1 L 27.2 0.7 L 30.2 0.7 L 30.2 1.6 L 28.1 1.6 C 28.1 1.6 28.04 2.49 28 2.5 C 28.3 2.4 28.5 2.4 28.7 2.4 C 29.2 2.4 29.6 2.5 29.9 2.8 C 30.2 3.1 30.4 3.5 30.4 4 C 30.4 4 30.4 4 30.4 4 C 30.4 4.5 30.2 4.9 29.9 5.2 C 29.5 5.5 29.1 5.7 28.5 5.7 Z M 33.6 5.6 L 33.6 4.5 L 31.2 4.5 L 31 3.8 L 33.7 0.7 L 34.6 0.7 L 34.6 3.7 L 35.3 3.7 L 35.3 4.5 L 34.6 4.5 L 34.6 5.6 L 33.6 5.6 Z M 32.3 3.7 L 33.6 3.7 L 33.6 2.1 L 32.3 3.7 Z " stroke="none" fill="#000"/>  </g></svg>