<?xml version="1.0" standalone="no"?><!DOCTYPE svg PUBLIC "-//W3C//DTD SVG 1.1//EN" "http://www.w3.org/Graphics/SVG/1.1/DTD/svg11.dtd"><svg xmlns="http://www.w3.org/2000/svg" version="1.1" width="46px" height="47.4px" viewBox="0 -2 46 47.4" style="top:-2px">  <desc>r n Kodu: ZD 31553 Renk: Indigo Blue</desc>  <defs/>  <g id="Polygon401227">    <path d="M 0.7 32.6 L 0.7 27.7 L 1.3 27.7 L 1.3 32.6 L 0.7 32.6 Z M 2.6 32.6 L 2.6 29 L 3.2 29 C 3.2 29 3.18 29.61 3.2 29.6 C 3.5 29.1 3.9 28.9 4.4 28.9 C 4.8 28.9 5.2 29 5.4 29.3 C 5.7 29.6 5.8 29.9 5.8 30.4 C 5.8 30.35 5.8 32.6 5.8 32.6 L 5.3 32.6 C 5.3 32.6 5.26 30.49 5.3 30.5 C 5.3 30.1 5.2 29.9 5 29.7 C 4.8 29.5 4.6 29.4 4.3 29.4 C 4 29.4 3.7 29.5 3.5 29.7 C 3.3 29.9 3.2 30.2 3.2 30.5 C 3.18 30.53 3.2 32.6 3.2 32.6 L 2.6 32.6 Z M 9.9 31.9 C 9.5 32.4 9 32.7 8.5 32.7 C 8 32.7 7.6 32.5 7.3 32.2 C 6.9 31.8 6.7 31.4 6.7 30.8 C 6.7 30.8 6.7 30.8 6.7 30.8 C 6.7 30.2 6.9 29.8 7.3 29.4 C 7.6 29.1 8 28.9 8.5 28.9 C 9 28.9 9.5 29.2 9.9 29.7 C 9.86 29.67 9.9 27.5 9.9 27.5 L 10.4 27.5 L 10.4 32.6 L 9.9 32.6 L 9.9 31.9 C 9.9 31.9 9.86 31.87 9.9 31.9 Z M 8.6 32.2 C 8.9 32.2 9.2 32.1 9.5 31.8 C 9.7 31.5 9.9 31.2 9.9 30.8 C 9.9 30.8 9.9 30.8 9.9 30.8 C 9.9 30.4 9.7 30 9.5 29.8 C 9.2 29.5 8.9 29.4 8.6 29.4 C 8.2 29.4 7.9 29.5 7.7 29.8 C 7.4 30 7.3 30.4 7.3 30.8 C 7.3 30.8 7.3 30.8 7.3 30.8 C 7.3 31.2 7.4 31.6 7.7 31.8 C 7.9 32.1 8.2 32.2 8.6 32.2 Z M 11.6 28.2 L 11.6 27.6 L 12.2 27.6 L 12.2 28.2 L 11.6 28.2 Z M 11.6 32.6 L 11.6 29 L 12.2 29 L 12.2 32.6 L 11.6 32.6 Z M 16.4 33.3 C 16.1 33.6 15.6 33.7 15 33.7 C 14.4 33.7 13.9 33.6 13.4 33.2 C 13.4 33.2 13.6 32.8 13.6 32.8 C 14.1 33.1 14.5 33.3 15 33.3 C 15.4 33.3 15.8 33.2 16 32.9 C 16.2 32.7 16.4 32.4 16.4 32 C 16.4 32 16.4 31.6 16.4 31.6 C 16 32.1 15.5 32.3 14.9 32.3 C 14.5 32.3 14.1 32.2 13.7 31.8 C 13.4 31.5 13.2 31.1 13.2 30.6 C 13.2 30.6 13.2 30.6 13.2 30.6 C 13.2 30.1 13.4 29.7 13.7 29.4 C 14.1 29.1 14.5 28.9 14.9 28.9 C 15.5 28.9 16 29.1 16.3 29.6 C 16.34 29.63 16.3 29 16.3 29 L 16.9 29 C 16.9 29 16.88 31.97 16.9 32 C 16.9 32.5 16.7 32.9 16.4 33.3 C 16.4 33.3 16.4 33.3 16.4 33.3 Z M 15 31.8 C 15.4 31.8 15.7 31.7 16 31.5 C 16.2 31.3 16.4 31 16.4 30.6 C 16.4 30.6 16.4 30.6 16.4 30.6 C 16.4 30.2 16.2 30 16 29.7 C 15.7 29.5 15.4 29.4 15 29.4 C 14.7 29.4 14.4 29.5 14.1 29.7 C 13.9 29.9 13.8 30.2 13.8 30.6 C 13.8 30.6 13.8 30.6 13.8 30.6 C 13.8 31 13.9 31.3 14.2 31.5 C 14.4 31.7 14.7 31.8 15 31.8 Z M 19.7 32.7 C 19.2 32.7 18.8 32.5 18.4 32.1 C 18 31.8 17.9 31.3 17.9 30.8 C 17.9 30.8 17.9 30.8 17.9 30.8 C 17.9 30.3 18 29.8 18.4 29.5 C 18.8 29.1 19.2 28.9 19.8 28.9 C 20.3 28.9 20.7 29.1 21.1 29.5 C 21.5 29.8 21.6 30.3 21.6 30.8 C 21.6 30.8 21.6 30.8 21.6 30.8 C 21.6 31.3 21.5 31.8 21.1 32.1 C 20.7 32.5 20.3 32.7 19.7 32.7 Z M 19.8 32.2 C 20.1 32.2 20.5 32.1 20.7 31.8 C 21 31.5 21.1 31.2 21.1 30.8 C 21.1 30.8 21.1 30.8 21.1 30.8 C 21.1 30.4 21 30.1 20.7 29.8 C 20.4 29.5 20.1 29.4 19.7 29.4 C 19.4 29.4 19 29.5 18.8 29.8 C 18.5 30.1 18.4 30.4 18.4 30.8 C 18.4 30.8 18.4 30.8 18.4 30.8 C 18.4 31.2 18.5 31.5 18.8 31.8 C 19.1 32.1 19.4 32.2 19.8 32.2 Z M 24.8 32.6 L 24.8 27.7 C 24.8 27.7 26.89 27.7 26.9 27.7 C 27.4 27.7 27.9 27.8 28.2 28.1 C 28.4 28.3 28.5 28.6 28.5 28.9 C 28.5 28.9 28.5 28.9 28.5 28.9 C 28.5 29.5 28.2 29.8 27.7 30.1 C 28.4 30.3 28.8 30.7 28.8 31.2 C 28.8 31.2 28.8 31.3 28.8 31.3 C 28.8 31.7 28.6 32 28.3 32.2 C 28 32.5 27.5 32.6 27 32.6 C 26.98 32.6 24.8 32.6 24.8 32.6 Z M 27.9 29 C 27.9 29 27.9 29 27.9 29 C 27.9 28.7 27.8 28.6 27.6 28.4 C 27.4 28.3 27.2 28.2 26.8 28.2 C 26.84 28.2 25.3 28.2 25.3 28.2 L 25.3 29.9 C 25.3 29.9 26.8 29.88 26.8 29.9 C 27.1 29.9 27.4 29.8 27.6 29.7 C 27.8 29.5 27.9 29.3 27.9 29 Z M 28.2 31.2 C 28.2 31.2 28.2 31.2 28.2 31.2 C 28.2 30.9 28.1 30.7 27.9 30.6 C 27.6 30.4 27.3 30.4 26.9 30.4 C 26.89 30.37 25.3 30.4 25.3 30.4 L 25.3 32.1 C 25.3 32.1 26.99 32.1 27 32.1 C 27.4 32.1 27.7 32 27.9 31.9 C 28.1 31.7 28.2 31.5 28.2 31.2 Z M 29.8 32.6 L 29.8 27.5 L 30.4 27.5 L 30.4 32.6 L 29.8 32.6 Z M 34.2 32 C 33.9 32.4 33.5 32.7 32.9 32.7 C 32.5 32.7 32.2 32.5 31.9 32.3 C 31.7 32 31.5 31.7 31.5 31.2 C 31.55 31.23 31.5 29 31.5 29 L 32.1 29 C 32.1 29 32.09 31.09 32.1 31.1 C 32.1 31.4 32.2 31.7 32.3 31.9 C 32.5 32.1 32.8 32.2 33.1 32.2 C 33.4 32.2 33.7 32.1 33.9 31.9 C 34.1 31.7 34.2 31.4 34.2 31.1 C 34.17 31.05 34.2 29 34.2 29 L 34.7 29 L 34.7 32.6 L 34.2 32.6 L 34.2 32 C 34.2 32 34.17 31.97 34.2 32 Z M 39 32 C 38.6 32.5 38.1 32.7 37.5 32.7 C 37 32.7 36.6 32.5 36.2 32.2 C 35.9 31.8 35.7 31.4 35.7 30.8 C 35.7 30.8 35.7 30.8 35.7 30.8 C 35.7 30.3 35.9 29.8 36.2 29.4 C 36.5 29.1 36.9 28.9 37.4 28.9 C 37.9 28.9 38.4 29.1 38.7 29.4 C 39 29.8 39.1 30.3 39.1 30.8 C 39.1 30.9 39.1 30.9 39.1 31 C 39.1 31 36.2 31 36.2 31 C 36.3 31.4 36.4 31.7 36.7 31.9 C 36.9 32.1 37.2 32.2 37.5 32.2 C 37.9 32.2 38.3 32 38.7 31.7 C 38.65 31.7 39 32 39 32 C 39 32 38.99 32 39 32 Z M 36.2 30.6 C 36.2 30.6 38.6 30.6 38.6 30.6 C 38.5 30.2 38.4 29.9 38.2 29.7 C 38 29.5 37.8 29.4 37.4 29.4 C 37.1 29.4 36.8 29.5 36.6 29.7 C 36.4 29.9 36.3 30.2 36.2 30.6 Z " stroke="none" fill="#000"/>  </g>  <g id="Polygon401226">    <path d="M 0.7 23.6 L 0.7 18.7 C 0.7 18.7 2.8 18.7 2.8 18.7 C 3.4 18.7 3.9 18.9 4.2 19.2 C 4.4 19.4 4.6 19.8 4.6 20.2 C 4.6 20.2 4.6 20.2 4.6 20.2 C 4.6 20.6 4.4 20.9 4.2 21.1 C 4 21.4 3.6 21.5 3.2 21.6 C 3.24 21.6 4.7 23.6 4.7 23.6 L 4.1 23.6 L 2.6 21.7 L 1.2 21.7 L 1.2 23.6 L 0.7 23.6 Z M 1.2 21.2 C 1.2 21.2 2.75 21.2 2.8 21.2 C 3.1 21.2 3.4 21.1 3.7 20.9 C 3.9 20.7 4 20.5 4 20.2 C 4 20.2 4 20.2 4 20.2 C 4 19.9 3.9 19.6 3.7 19.5 C 3.5 19.3 3.2 19.2 2.8 19.2 C 2.76 19.21 1.2 19.2 1.2 19.2 L 1.2 21.2 Z M 8.7 23 C 8.3 23.5 7.8 23.7 7.2 23.7 C 6.7 23.7 6.2 23.5 5.9 23.2 C 5.5 22.8 5.4 22.4 5.4 21.8 C 5.4 21.8 5.4 21.8 5.4 21.8 C 5.4 21.3 5.5 20.8 5.9 20.4 C 6.2 20.1 6.6 19.9 7.1 19.9 C 7.6 19.9 8 20.1 8.3 20.4 C 8.6 20.8 8.8 21.3 8.8 21.8 C 8.8 21.9 8.8 21.9 8.8 22 C 8.8 22 5.9 22 5.9 22 C 6 22.4 6.1 22.7 6.3 22.9 C 6.6 23.1 6.9 23.2 7.2 23.2 C 7.6 23.2 8 23 8.3 22.7 C 8.33 22.7 8.7 23 8.7 23 C 8.7 23 8.67 23 8.7 23 Z M 5.9 21.6 C 5.9 21.6 8.2 21.6 8.2 21.6 C 8.2 21.2 8.1 20.9 7.9 20.7 C 7.7 20.5 7.4 20.4 7.1 20.4 C 6.8 20.4 6.5 20.5 6.3 20.7 C 6.1 20.9 6 21.2 5.9 21.6 Z M 9.7 23.6 L 9.7 20 L 10.3 20 C 10.3 20 10.28 20.61 10.3 20.6 C 10.6 20.1 11 19.9 11.5 19.9 C 11.9 19.9 12.3 20 12.5 20.3 C 12.8 20.6 12.9 20.9 12.9 21.4 C 12.9 21.35 12.9 23.6 12.9 23.6 L 12.4 23.6 C 12.4 23.6 12.36 21.49 12.4 21.5 C 12.4 21.1 12.3 20.9 12.1 20.7 C 11.9 20.5 11.7 20.4 11.4 20.4 C 11 20.4 10.8 20.5 10.6 20.7 C 10.4 20.9 10.3 21.2 10.3 21.5 C 10.28 21.53 10.3 23.6 10.3 23.6 L 9.7 23.6 Z M 14 23.6 L 14 18.5 L 14.6 18.5 L 14.6 22 L 16.5 20 L 17.2 20 L 15.7 21.5 L 17.3 23.6 L 16.6 23.6 L 15.3 21.9 L 14.6 22.7 L 14.6 23.6 L 14 23.6 Z M 18 20.7 L 18 20 L 18.6 20 L 18.6 20.7 L 18 20.7 Z M 18 23.6 L 18 22.9 L 18.6 22.9 L 18.6 23.6 L 18 23.6 Z " stroke="none" fill="#000"/>  </g>  <g id="Polygon401225">    <path d="M 0.4 14.6 L 0.4 13.8 L 3.1 10.6 L 0.5 10.6 L 0.5 9.7 L 4.5 9.7 L 4.5 10.5 L 1.8 13.7 L 4.5 13.7 L 4.5 14.6 L 0.4 14.6 Z M 5.5 14.6 L 5.5 9.7 C 5.5 9.7 7.45 9.7 7.5 9.7 C 8.2 9.7 8.8 9.9 9.3 10.4 C 9.8 10.9 10.1 11.4 10.1 12.1 C 10.1 12.1 10.1 12.1 10.1 12.1 C 10.1 12.8 9.8 13.4 9.3 13.9 C 8.8 14.4 8.2 14.6 7.5 14.6 C 7.45 14.6 5.5 14.6 5.5 14.6 Z M 7.5 10.7 C 7.45 10.67 6.6 10.7 6.6 10.7 L 6.6 13.6 C 6.6 13.6 7.45 13.63 7.5 13.6 C 7.9 13.6 8.2 13.5 8.5 13.2 C 8.8 13 8.9 12.6 8.9 12.2 C 8.9 12.2 8.9 12.1 8.9 12.1 C 8.9 11.7 8.8 11.4 8.5 11.1 C 8.2 10.8 7.9 10.7 7.5 10.7 Z M 14.7 14.7 C 13.9 14.7 13.3 14.4 12.8 13.8 C 12.8 13.8 13.5 13.1 13.5 13.1 C 13.9 13.5 14.3 13.7 14.7 13.7 C 14.9 13.7 15.1 13.7 15.2 13.6 C 15.4 13.4 15.4 13.3 15.4 13.1 C 15.4 13.1 15.4 13.1 15.4 13.1 C 15.4 12.9 15.3 12.8 15.2 12.6 C 15 12.5 14.8 12.5 14.5 12.5 C 14.45 12.49 14 12.5 14 12.5 L 13.8 11.8 L 15 10.6 L 13.1 10.6 L 13.1 9.7 L 16.4 9.7 L 16.4 10.5 C 16.4 10.5 15.15 11.69 15.2 11.7 C 16 11.8 16.5 12.3 16.5 13.1 C 16.5 13.1 16.5 13.1 16.5 13.1 C 16.5 13.6 16.3 13.9 16 14.2 C 15.7 14.5 15.2 14.7 14.7 14.7 Z M 18.1 14.6 L 18.1 10.8 L 17.3 11 L 17 10.1 L 18.5 9.7 L 19.2 9.7 L 19.2 14.6 L 18.1 14.6 Z M 22 14.7 C 21.3 14.7 20.6 14.4 20.1 13.9 C 20.1 13.9 20.8 13.2 20.8 13.2 C 21.2 13.5 21.6 13.7 22 13.7 C 22.2 13.7 22.4 13.6 22.6 13.5 C 22.7 13.4 22.8 13.2 22.8 13 C 22.8 13 22.8 13 22.8 13 C 22.8 12.8 22.7 12.6 22.5 12.5 C 22.4 12.4 22.2 12.3 21.9 12.3 C 21.6 12.3 21.3 12.4 21.1 12.5 C 21.08 12.53 20.5 12.1 20.5 12.1 L 20.6 9.7 L 23.6 9.7 L 23.6 10.6 L 21.5 10.6 C 21.5 10.6 21.47 11.49 21.5 11.5 C 21.7 11.4 21.9 11.4 22.1 11.4 C 22.6 11.4 23 11.5 23.4 11.8 C 23.7 12.1 23.8 12.5 23.8 13 C 23.8 13 23.8 13 23.8 13 C 23.8 13.5 23.7 13.9 23.3 14.2 C 23 14.5 22.5 14.7 22 14.7 Z M 26.4 14.7 C 25.7 14.7 25.1 14.4 24.5 13.9 C 24.5 13.9 25.2 13.2 25.2 13.2 C 25.6 13.5 26 13.7 26.4 13.7 C 26.6 13.7 26.8 13.6 27 13.5 C 27.1 13.4 27.2 13.2 27.2 13 C 27.2 13 27.2 13 27.2 13 C 27.2 12.8 27.1 12.6 26.9 12.5 C 26.8 12.4 26.6 12.3 26.3 12.3 C 26 12.3 25.8 12.4 25.5 12.5 C 25.49 12.53 24.9 12.1 24.9 12.1 L 25 9.7 L 28 9.7 L 28 10.6 L 25.9 10.6 C 25.9 10.6 25.88 11.49 25.9 11.5 C 26.1 11.4 26.3 11.4 26.5 11.4 C 27 11.4 27.4 11.5 27.8 11.8 C 28.1 12.1 28.2 12.5 28.2 13 C 28.2 13 28.2 13 28.2 13 C 28.2 13.5 28.1 13.9 27.7 14.2 C 27.4 14.5 26.9 14.7 26.4 14.7 Z M 30.8 14.7 C 30 14.7 29.4 14.4 28.9 13.8 C 28.9 13.8 29.6 13.1 29.6 13.1 C 30 13.5 30.4 13.7 30.8 13.7 C 31 13.7 31.2 13.7 31.3 13.6 C 31.4 13.4 31.5 13.3 31.5 13.1 C 31.5 13.1 31.5 13.1 31.5 13.1 C 31.5 12.9 31.4 12.8 31.2 12.6 C 31.1 12.5 30.8 12.5 30.5 12.5 C 30.54 12.49 30.1 12.5 30.1 12.5 L 29.9 11.8 L 31.1 10.6 L 29.2 10.6 L 29.2 9.7 L 32.5 9.7 L 32.5 10.5 C 32.5 10.5 31.24 11.69 31.2 11.7 C 32.1 11.8 32.6 12.3 32.6 13.1 C 32.6 13.1 32.6 13.1 32.6 13.1 C 32.6 13.6 32.4 13.9 32.1 14.2 C 31.8 14.5 31.3 14.7 30.8 14.7 Z " stroke="none" fill="#000"/>  </g>  <g id="Polygon401224">    <path d="M 3 0.3 L 3 -0.4 L 3.6 -0.4 L 3.6 0.3 L 3 0.3 Z M 1.7 0.3 L 1.7 -0.4 L 2.3 -0.4 L 2.3 0.3 L 1.7 0.3 Z M 2.7 5.7 C 2 5.7 1.5 5.5 1.2 5.1 C 0.8 4.7 0.6 4.2 0.6 3.5 C 0.62 3.55 0.6 0.7 0.6 0.7 L 1.2 0.7 C 1.2 0.7 1.17 3.51 1.2 3.5 C 1.2 4 1.3 4.4 1.6 4.7 C 1.8 5 2.2 5.2 2.7 5.2 C 3.1 5.2 3.5 5 3.8 4.8 C 4 4.5 4.1 4.1 4.1 3.5 C 4.14 3.55 4.1 0.7 4.1 0.7 L 4.7 0.7 C 4.7 0.7 4.7 3.51 4.7 3.5 C 4.7 4.2 4.5 4.7 4.1 5.1 C 3.8 5.5 3.3 5.7 2.7 5.7 Z M 5.9 5.6 L 5.9 2 L 6.5 2 C 6.5 2 6.45 2.93 6.5 2.9 C 6.6 2.6 6.8 2.4 7 2.2 C 7.3 2 7.6 1.9 7.9 1.9 C 7.93 1.92 7.9 2.5 7.9 2.5 C 7.9 2.5 7.89 2.5 7.9 2.5 C 7.5 2.5 7.1 2.6 6.9 2.9 C 6.6 3.2 6.5 3.6 6.5 4.2 C 6.45 4.16 6.5 5.6 6.5 5.6 L 5.9 5.6 Z M 10.6 1.4 L 10.6 0.8 L 11.2 0.8 L 11.2 1.4 L 10.6 1.4 Z M 9.3 1.4 L 9.3 0.8 L 10 0.8 L 10 1.4 L 9.3 1.4 Z M 11.3 5 C 11 5.4 10.6 5.7 10.1 5.7 C 9.7 5.7 9.3 5.5 9.1 5.3 C 8.8 5 8.7 4.7 8.7 4.2 C 8.69 4.23 8.7 2 8.7 2 L 9.2 2 C 9.2 2 9.23 4.09 9.2 4.1 C 9.2 4.4 9.3 4.7 9.5 4.9 C 9.7 5.1 9.9 5.2 10.2 5.2 C 10.5 5.2 10.8 5.1 11 4.9 C 11.2 4.7 11.3 4.4 11.3 4.1 C 11.32 4.05 11.3 2 11.3 2 L 11.9 2 L 11.9 5.6 L 11.3 5.6 L 11.3 5 C 11.3 5 11.32 4.97 11.3 5 Z M 13.1 5.6 L 13.1 2 L 13.6 2 C 13.6 2 13.6 2.61 13.6 2.6 C 13.9 2.1 14.3 1.9 14.8 1.9 C 15.3 1.9 15.6 2 15.9 2.3 C 16.1 2.6 16.2 2.9 16.2 3.4 C 16.23 3.35 16.2 5.6 16.2 5.6 L 15.7 5.6 C 15.7 5.6 15.69 3.49 15.7 3.5 C 15.7 3.1 15.6 2.9 15.4 2.7 C 15.2 2.5 15 2.4 14.7 2.4 C 14.4 2.4 14.1 2.5 13.9 2.7 C 13.7 2.9 13.6 3.2 13.6 3.5 C 13.6 3.53 13.6 5.6 13.6 5.6 L 13.1 5.6 Z M 19.6 5.6 L 19.6 0.7 L 20.1 0.7 L 20.1 3.6 L 22.9 0.7 L 23.7 0.7 L 21.5 2.8 L 23.7 5.6 L 23 5.6 L 21.2 3.2 L 20.1 4.3 L 20.1 5.6 L 19.6 5.6 Z M 25.9 5.7 C 25.4 5.7 25 5.5 24.6 5.1 C 24.3 4.8 24.1 4.3 24.1 3.8 C 24.1 3.8 24.1 3.8 24.1 3.8 C 24.1 3.3 24.3 2.8 24.6 2.5 C 25 2.1 25.4 1.9 26 1.9 C 26.5 1.9 26.9 2.1 27.3 2.5 C 27.7 2.8 27.8 3.3 27.8 3.8 C 27.8 3.8 27.8 3.8 27.8 3.8 C 27.8 4.3 27.7 4.8 27.3 5.1 C 26.9 5.5 26.5 5.7 25.9 5.7 Z M 26 5.2 C 26.3 5.2 26.7 5.1 26.9 4.8 C 27.2 4.5 27.3 4.2 27.3 3.8 C 27.3 3.8 27.3 3.8 27.3 3.8 C 27.3 3.4 27.2 3.1 26.9 2.8 C 26.6 2.5 26.3 2.4 25.9 2.4 C 25.6 2.4 25.2 2.5 25 2.8 C 24.8 3.1 24.6 3.4 24.6 3.8 C 24.6 3.8 24.6 3.8 24.6 3.8 C 24.6 4.2 24.8 4.5 25 4.8 C 25.3 5.1 25.6 5.2 26 5.2 Z M 31.7 4.9 C 31.4 5.4 30.9 5.7 30.3 5.7 C 29.9 5.7 29.5 5.5 29.1 5.2 C 28.8 4.8 28.6 4.4 28.6 3.8 C 28.6 3.8 28.6 3.8 28.6 3.8 C 28.6 3.2 28.8 2.8 29.1 2.4 C 29.5 2.1 29.9 1.9 30.3 1.9 C 30.9 1.9 31.4 2.2 31.7 2.7 C 31.72 2.67 31.7 0.5 31.7 0.5 L 32.3 0.5 L 32.3 5.6 L 31.7 5.6 L 31.7 4.9 C 31.7 4.9 31.72 4.87 31.7 4.9 Z M 30.4 5.2 C 30.8 5.2 31.1 5.1 31.4 4.8 C 31.6 4.5 31.7 4.2 31.7 3.8 C 31.7 3.8 31.7 3.8 31.7 3.8 C 31.7 3.4 31.6 3 31.4 2.8 C 31.1 2.5 30.8 2.4 30.4 2.4 C 30.1 2.4 29.8 2.5 29.5 2.8 C 29.3 3 29.2 3.4 29.2 3.8 C 29.2 3.8 29.2 3.8 29.2 3.8 C 29.2 4.2 29.3 4.6 29.5 4.8 C 29.8 5.1 30.1 5.2 30.4 5.2 Z M 36 5 C 35.7 5.4 35.3 5.7 34.8 5.7 C 34.4 5.7 34 5.5 33.8 5.3 C 33.5 5 33.4 4.7 33.4 4.2 C 33.41 4.23 33.4 2 33.4 2 L 33.9 2 C 33.9 2 33.95 4.09 33.9 4.1 C 33.9 4.4 34 4.7 34.2 4.9 C 34.4 5.1 34.6 5.2 35 5.2 C 35.3 5.2 35.5 5.1 35.7 4.9 C 35.9 4.7 36 4.4 36 4.1 C 36.04 4.05 36 2 36 2 L 36.6 2 L 36.6 5.6 L 36 5.6 L 36 5 C 36 5 36.04 4.97 36 5 Z M 37.7 2.7 L 37.7 2 L 38.4 2 L 38.4 2.7 L 37.7 2.7 Z M 37.7 5.6 L 37.7 4.9 L 38.4 4.9 L 38.4 5.6 L 37.7 5.6 Z " stroke="none" fill="#000"/>  </g></svg>