<?xml version="1.0" standalone="no"?><!DOCTYPE svg PUBLIC "-//W3C//DTD SVG 1.1//EN" "http://www.w3.org/Graphics/SVG/1.1/DTD/svg11.dtd"><svg xmlns="http://www.w3.org/2000/svg" version="1.1" width="190px" height="85.7px" viewBox="0 -3 190 85.7" style="top:-3px">  <desc>Etkileyici sadelik FSC™ sertifikal kay n a ac ndan retilmi , sa lam bir kar t rma ka . Temiz izgiler; g nl k k...</desc>  <defs/>  <g id="Polygon369211">    <path d="M 4.5 57.8 C 4.1 58.2 3.5 58.4 2.7 58.4 C 2 58.4 1.3 58.2 0.7 57.8 C 0.7 57.8 1 57.3 1 57.3 C 1.5 57.6 2.1 57.8 2.7 57.8 C 3.2 57.8 3.6 57.7 3.9 57.4 C 4.2 57.2 4.4 56.8 4.4 56.2 C 4.4 56.2 4.4 55.7 4.4 55.7 C 3.9 56.3 3.3 56.7 2.6 56.7 C 2 56.7 1.5 56.5 1.1 56.1 C 0.7 55.7 0.5 55.2 0.5 54.6 C 0.5 54.6 0.5 54.5 0.5 54.5 C 0.5 53.9 0.7 53.4 1.1 53 C 1.5 52.6 2 52.4 2.6 52.4 C 3.3 52.4 3.9 52.7 4.4 53.3 C 4.36 53.32 4.4 52.5 4.4 52.5 L 5 52.5 C 5 52.5 5.03 56.22 5 56.2 C 5 56.9 4.8 57.4 4.5 57.8 C 4.5 57.8 4.5 57.8 4.5 57.8 Z M 2.7 56.1 C 3.2 56.1 3.6 55.9 3.9 55.6 C 4.2 55.3 4.4 55 4.4 54.5 C 4.4 54.5 4.4 54.5 4.4 54.5 C 4.4 54.1 4.2 53.7 3.9 53.4 C 3.6 53.1 3.2 53 2.7 53 C 2.3 53 1.9 53.1 1.6 53.4 C 1.3 53.7 1.2 54.1 1.2 54.5 C 1.2 54.5 1.2 54.5 1.2 54.5 C 1.2 55 1.3 55.3 1.6 55.6 C 1.9 55.9 2.3 56.1 2.7 56.1 Z M 8.8 51.8 L 8.8 51 L 9.6 51 L 9.6 51.8 L 8.8 51.8 Z M 7.3 51.8 L 7.3 51 L 8 51 L 8 51.8 L 7.3 51.8 Z M 9.7 56.2 C 9.3 56.8 8.8 57.1 8.2 57.1 C 7.6 57.1 7.2 56.9 6.9 56.6 C 6.6 56.3 6.5 55.8 6.5 55.3 C 6.45 55.3 6.5 52.5 6.5 52.5 L 7.1 52.5 C 7.1 52.5 7.12 55.13 7.1 55.1 C 7.1 55.6 7.2 55.9 7.4 56.1 C 7.7 56.4 8 56.5 8.4 56.5 C 8.8 56.5 9.1 56.4 9.3 56.1 C 9.6 55.8 9.7 55.5 9.7 55.1 C 9.71 55.08 9.7 52.5 9.7 52.5 L 10.4 52.5 L 10.4 57 L 9.7 57 L 9.7 56.2 C 9.7 56.2 9.71 56.22 9.7 56.2 Z M 11.9 57 L 11.9 52.5 L 12.5 52.5 C 12.5 52.5 12.55 53.29 12.5 53.3 C 12.9 52.7 13.4 52.4 14.1 52.4 C 14.6 52.4 15 52.6 15.3 52.9 C 15.7 53.2 15.8 53.7 15.8 54.2 C 15.81 54.21 15.8 57 15.8 57 L 15.1 57 C 15.1 57 15.14 54.38 15.1 54.4 C 15.1 54 15 53.6 14.8 53.4 C 14.6 53.1 14.3 53 13.9 53 C 13.5 53 13.2 53.2 12.9 53.4 C 12.7 53.7 12.5 54 12.5 54.4 C 12.55 54.43 12.5 57 12.5 57 L 11.9 57 Z M 17.3 57 L 17.3 50.7 L 18 50.7 L 18 57 L 17.3 57 Z M 21.8 51.8 L 21.8 51 L 22.6 51 L 22.6 51.8 L 21.8 51.8 Z M 20.3 51.8 L 20.3 51 L 21 51 L 21 51.8 L 20.3 51.8 Z M 22.7 56.2 C 22.3 56.8 21.8 57.1 21.2 57.1 C 20.6 57.1 20.2 56.9 19.9 56.6 C 19.6 56.3 19.5 55.8 19.5 55.3 C 19.45 55.3 19.5 52.5 19.5 52.5 L 20.1 52.5 C 20.1 52.5 20.12 55.13 20.1 55.1 C 20.1 55.6 20.2 55.9 20.4 56.1 C 20.7 56.4 21 56.5 21.4 56.5 C 21.8 56.5 22.1 56.4 22.3 56.1 C 22.6 55.8 22.7 55.5 22.7 55.1 C 22.71 55.08 22.7 52.5 22.7 52.5 L 23.4 52.5 L 23.4 57 L 22.7 57 L 22.7 56.2 C 22.7 56.2 22.71 56.22 22.7 56.2 Z M 24.9 57 L 24.9 50.7 L 25.5 50.7 L 25.5 55 L 28 52.5 L 28.8 52.5 L 26.9 54.4 L 28.9 57 L 28.1 57 L 26.5 54.9 L 25.5 55.8 L 25.5 57 L 24.9 57 Z M 32.4 57 L 32.4 50.7 L 33.1 50.7 L 33.1 55 L 35.5 52.5 L 36.4 52.5 L 34.5 54.4 L 36.4 57 L 35.6 57 L 34 54.9 L 33.1 55.8 L 33.1 57 L 32.4 57 Z M 40.5 56.2 C 40.1 56.8 39.6 57.1 38.9 57.1 C 38.4 57.1 38 56.9 37.7 56.6 C 37.4 56.3 37.2 55.8 37.2 55.3 C 37.22 55.3 37.2 52.5 37.2 52.5 L 37.9 52.5 C 37.9 52.5 37.89 55.13 37.9 55.1 C 37.9 55.6 38 55.9 38.2 56.1 C 38.4 56.4 38.7 56.5 39.1 56.5 C 39.5 56.5 39.8 56.4 40.1 56.1 C 40.4 55.8 40.5 55.5 40.5 55.1 C 40.49 55.08 40.5 52.5 40.5 52.5 L 41.1 52.5 L 41.1 57 L 40.5 57 L 40.5 56.2 C 40.5 56.2 40.49 56.22 40.5 56.2 Z M 42.7 57 L 42.7 50.7 L 43.4 50.7 L 43.4 57 L 42.7 57 Z M 45 57 L 45 50.7 L 45.7 50.7 L 45.7 57 L 45 57 Z M 50.2 56.3 C 49.8 56.8 49.3 57.1 48.6 57.1 C 48.1 57.1 47.7 57 47.4 56.7 C 47.1 56.5 46.9 56.1 46.9 55.7 C 46.9 55.7 46.9 55.7 46.9 55.7 C 46.9 55.2 47.1 54.9 47.4 54.6 C 47.8 54.4 48.2 54.2 48.8 54.2 C 49.3 54.2 49.7 54.3 50.2 54.4 C 50.2 54.4 50.2 54.3 50.2 54.3 C 50.2 53.9 50.1 53.6 49.8 53.4 C 49.6 53.1 49.3 53 48.9 53 C 48.4 53 47.9 53.1 47.5 53.4 C 47.5 53.4 47.3 52.8 47.3 52.8 C 47.8 52.6 48.4 52.4 48.9 52.4 C 49.6 52.4 50 52.6 50.4 52.9 C 50.7 53.3 50.8 53.7 50.8 54.3 C 50.83 54.26 50.8 57 50.8 57 L 50.2 57 L 50.2 56.3 C 50.2 56.3 50.19 56.33 50.2 56.3 Z M 48.7 56.6 C 49.1 56.6 49.5 56.5 49.8 56.2 C 50.1 56 50.2 55.7 50.2 55.4 C 50.2 55.4 50.2 54.9 50.2 54.9 C 49.7 54.8 49.3 54.7 48.9 54.7 C 48.5 54.7 48.1 54.8 47.9 55 C 47.7 55.1 47.6 55.4 47.6 55.7 C 47.6 55.7 47.6 55.7 47.6 55.7 C 47.6 55.9 47.7 56.2 47.9 56.3 C 48.1 56.5 48.4 56.6 48.7 56.6 Z M 52.3 57 L 52.3 52.5 L 52.9 52.5 C 52.9 52.5 52.93 53.29 52.9 53.3 C 53.3 52.7 53.8 52.4 54.5 52.4 C 55 52.4 55.4 52.6 55.7 52.9 C 56 53.2 56.2 53.7 56.2 54.2 C 56.19 54.21 56.2 57 56.2 57 L 55.5 57 C 55.5 57 55.52 54.38 55.5 54.4 C 55.5 54 55.4 53.6 55.2 53.4 C 55 53.1 54.7 53 54.3 53 C 53.9 53 53.6 53.2 53.3 53.4 C 53.1 53.7 52.9 54 52.9 54.4 C 52.93 54.43 52.9 57 52.9 57 L 52.3 57 Z M 57.7 57 L 57.7 52.5 L 58.3 52.5 L 58.3 57 L 57.7 57 Z M 59.9 57 L 59.9 52.5 L 60.6 52.5 C 60.6 52.5 60.57 53.26 60.6 53.3 C 60.8 53 61 52.8 61.2 52.6 C 61.4 52.5 61.7 52.4 62 52.4 C 62.7 52.4 63.2 52.7 63.5 53.3 C 63.9 52.7 64.4 52.4 65 52.4 C 65.6 52.4 66 52.6 66.3 52.9 C 66.6 53.2 66.7 53.7 66.7 54.2 C 66.72 54.22 66.7 57 66.7 57 L 66 57 C 66 57 66.05 54.38 66 54.4 C 66 53.9 65.9 53.6 65.7 53.4 C 65.5 53.1 65.2 53 64.9 53 C 64.5 53 64.2 53.1 64 53.4 C 63.8 53.6 63.6 54 63.6 54.4 C 63.64 54.41 63.6 57 63.6 57 L 63 57 C 63 57 62.98 54.36 63 54.4 C 63 53.9 62.9 53.6 62.7 53.4 C 62.5 53.1 62.2 53 61.8 53 C 61.5 53 61.2 53.2 60.9 53.4 C 60.7 53.7 60.6 54 60.6 54.4 C 60.57 54.44 60.6 57 60.6 57 L 59.9 57 Z M 71.8 56.1 C 71.3 56.8 70.7 57.1 70 57.1 C 69.5 57.1 69 56.9 68.5 56.5 C 68.1 56 67.9 55.5 67.9 54.8 C 67.9 54.8 67.9 54.8 67.9 54.8 C 67.9 54.1 68.1 53.5 68.5 53.1 C 69 52.6 69.5 52.4 70 52.4 C 70.7 52.4 71.3 52.7 71.8 53.4 C 71.75 53.37 71.8 50.7 71.8 50.7 L 72.4 50.7 L 72.4 57 L 71.8 57 L 71.8 56.1 C 71.8 56.1 71.75 56.1 71.8 56.1 Z M 70.2 56.5 C 70.6 56.5 71 56.3 71.3 56 C 71.6 55.7 71.8 55.3 71.8 54.8 C 71.8 54.8 71.8 54.7 71.8 54.7 C 71.8 54.2 71.6 53.8 71.3 53.5 C 71 53.2 70.6 53 70.2 53 C 69.7 53 69.3 53.2 69 53.5 C 68.7 53.8 68.6 54.2 68.6 54.7 C 68.6 54.7 68.6 54.8 68.6 54.8 C 68.6 55.3 68.7 55.7 69 56 C 69.3 56.3 69.7 56.5 70.2 56.5 Z M 76.9 56.3 C 76.5 56.8 75.9 57.1 75.3 57.1 C 74.8 57.1 74.4 57 74.1 56.7 C 73.7 56.5 73.6 56.1 73.6 55.7 C 73.6 55.7 73.6 55.7 73.6 55.7 C 73.6 55.2 73.8 54.9 74.1 54.6 C 74.5 54.4 74.9 54.2 75.5 54.2 C 76 54.2 76.4 54.3 76.9 54.4 C 76.9 54.4 76.9 54.3 76.9 54.3 C 76.9 53.9 76.8 53.6 76.5 53.4 C 76.3 53.1 76 53 75.5 53 C 75.1 53 74.6 53.1 74.2 53.4 C 74.2 53.4 74 52.8 74 52.8 C 74.5 52.6 75.1 52.4 75.6 52.4 C 76.3 52.4 76.7 52.6 77.1 52.9 C 77.4 53.3 77.5 53.7 77.5 54.3 C 77.53 54.26 77.5 57 77.5 57 L 76.9 57 L 76.9 56.3 C 76.9 56.3 76.88 56.33 76.9 56.3 Z M 75.4 56.6 C 75.8 56.6 76.2 56.5 76.5 56.2 C 76.7 56 76.9 55.7 76.9 55.4 C 76.9 55.4 76.9 54.9 76.9 54.9 C 76.4 54.8 76 54.7 75.6 54.7 C 75.2 54.7 74.8 54.8 74.6 55 C 74.4 55.1 74.3 55.4 74.3 55.7 C 74.3 55.7 74.3 55.7 74.3 55.7 C 74.3 55.9 74.4 56.2 74.6 56.3 C 74.8 56.5 75.1 56.6 75.4 56.6 Z M 83.1 58.4 L 82.5 58.1 C 82.5 58.1 83.17 57.06 83.2 57.1 C 82.6 57 82.2 56.7 81.8 56.3 C 81.5 55.8 81.3 55.3 81.3 54.8 C 81.3 54.8 81.3 54.8 81.3 54.8 C 81.3 54.1 81.5 53.6 81.9 53.1 C 82.4 52.6 82.9 52.4 83.6 52.4 C 84.3 52.4 84.9 52.7 85.4 53.2 C 85.4 53.2 84.9 53.7 84.9 53.7 C 84.5 53.2 84.1 53 83.6 53 C 83.1 53 82.7 53.2 82.4 53.5 C 82.1 53.8 82 54.3 82 54.7 C 82 54.7 82 54.8 82 54.8 C 82 55.2 82.1 55.7 82.4 56 C 82.8 56.3 83.2 56.5 83.6 56.5 C 84.1 56.5 84.6 56.3 85 55.8 C 85 55.8 85.4 56.2 85.4 56.2 C 84.9 56.8 84.4 57.1 83.7 57.1 C 83.72 57.1 83.1 58.4 83.1 58.4 Z M 88.4 57.1 C 87.8 57.1 87.2 56.9 86.8 56.4 C 86.3 56 86.1 55.4 86.1 54.8 C 86.1 54.8 86.1 54.8 86.1 54.8 C 86.1 54.1 86.3 53.6 86.8 53.1 C 87.2 52.6 87.8 52.4 88.5 52.4 C 89.1 52.4 89.7 52.6 90.1 53.1 C 90.6 53.6 90.8 54.1 90.8 54.7 C 90.8 54.7 90.8 54.8 90.8 54.8 C 90.8 55.4 90.6 56 90.1 56.4 C 89.7 56.9 89.1 57.1 88.4 57.1 Z M 88.5 56.5 C 88.9 56.5 89.3 56.3 89.6 56 C 90 55.7 90.1 55.3 90.1 54.8 C 90.1 54.8 90.1 54.8 90.1 54.8 C 90.1 54.3 90 53.9 89.6 53.5 C 89.3 53.2 88.9 53 88.4 53 C 88 53 87.6 53.2 87.3 53.5 C 87 53.9 86.8 54.3 86.8 54.7 C 86.8 54.7 86.8 54.8 86.8 54.8 C 86.8 55.2 87 55.7 87.3 56 C 87.6 56.3 88 56.5 88.5 56.5 Z M 92 57 L 92 50.7 L 92.7 50.7 L 92.7 55 L 95.1 52.5 L 95.9 52.5 L 94.1 54.4 L 96 57 L 95.2 57 L 93.6 54.9 L 92.7 55.8 L 92.7 57 L 92 57 Z M 102.5 56.3 C 102.1 56.8 101.6 57.1 100.9 57.1 C 100.5 57.1 100.1 57 99.7 56.7 C 99.4 56.5 99.2 56.1 99.2 55.7 C 99.2 55.7 99.2 55.7 99.2 55.7 C 99.2 55.2 99.4 54.9 99.8 54.6 C 100.1 54.4 100.6 54.2 101.2 54.2 C 101.6 54.2 102.1 54.3 102.5 54.4 C 102.5 54.4 102.5 54.3 102.5 54.3 C 102.5 53.9 102.4 53.6 102.2 53.4 C 102 53.1 101.6 53 101.2 53 C 100.7 53 100.3 53.1 99.8 53.4 C 99.8 53.4 99.6 52.8 99.6 52.8 C 100.2 52.6 100.7 52.4 101.3 52.4 C 101.9 52.4 102.4 52.6 102.7 52.9 C 103 53.3 103.2 53.7 103.2 54.3 C 103.18 54.26 103.2 57 103.2 57 L 102.5 57 L 102.5 56.3 C 102.5 56.3 102.54 56.33 102.5 56.3 Z M 101 56.6 C 101.5 56.6 101.8 56.5 102.1 56.2 C 102.4 56 102.5 55.7 102.5 55.4 C 102.5 55.4 102.5 54.9 102.5 54.9 C 102.1 54.8 101.7 54.7 101.2 54.7 C 100.8 54.7 100.5 54.8 100.3 55 C 100 55.1 99.9 55.4 99.9 55.7 C 99.9 55.7 99.9 55.7 99.9 55.7 C 99.9 55.9 100 56.2 100.2 56.3 C 100.5 56.5 100.7 56.6 101 56.6 Z M 104.6 57 L 104.6 52.5 L 105.3 52.5 C 105.3 52.5 105.27 53.26 105.3 53.3 C 105.5 53 105.7 52.8 105.9 52.6 C 106.1 52.5 106.4 52.4 106.7 52.4 C 107.4 52.4 107.9 52.7 108.2 53.3 C 108.6 52.7 109.1 52.4 109.8 52.4 C 110.3 52.4 110.7 52.6 111 52.9 C 111.3 53.2 111.4 53.7 111.4 54.2 C 111.42 54.22 111.4 57 111.4 57 L 110.8 57 C 110.8 57 110.75 54.38 110.8 54.4 C 110.8 53.9 110.6 53.6 110.4 53.4 C 110.2 53.1 110 53 109.6 53 C 109.2 53 108.9 53.1 108.7 53.4 C 108.5 53.6 108.3 54 108.3 54.4 C 108.34 54.41 108.3 57 108.3 57 L 107.7 57 C 107.7 57 107.68 54.36 107.7 54.4 C 107.7 53.9 107.6 53.6 107.4 53.4 C 107.2 53.1 106.9 53 106.5 53 C 106.2 53 105.9 53.2 105.6 53.4 C 105.4 53.7 105.3 54 105.3 54.4 C 105.27 54.44 105.3 57 105.3 57 L 104.6 57 Z M 115.8 56.3 C 115.4 56.8 114.9 57.1 114.2 57.1 C 113.7 57.1 113.3 57 113 56.7 C 112.7 56.5 112.5 56.1 112.5 55.7 C 112.5 55.7 112.5 55.7 112.5 55.7 C 112.5 55.2 112.7 54.9 113 54.6 C 113.4 54.4 113.9 54.2 114.4 54.2 C 114.9 54.2 115.3 54.3 115.8 54.4 C 115.8 54.4 115.8 54.3 115.8 54.3 C 115.8 53.9 115.7 53.6 115.5 53.4 C 115.2 53.1 114.9 53 114.5 53 C 114 53 113.6 53.1 113.1 53.4 C 113.1 53.4 112.9 52.8 112.9 52.8 C 113.4 52.6 114 52.4 114.5 52.4 C 115.2 52.4 115.7 52.6 116 52.9 C 116.3 53.3 116.5 53.7 116.5 54.3 C 116.46 54.26 116.5 57 116.5 57 L 115.8 57 L 115.8 56.3 C 115.8 56.3 115.81 56.33 115.8 56.3 Z M 114.3 56.6 C 114.7 56.6 115.1 56.5 115.4 56.2 C 115.7 56 115.8 55.7 115.8 55.4 C 115.8 55.4 115.8 54.9 115.8 54.9 C 115.4 54.8 114.9 54.7 114.5 54.7 C 114.1 54.7 113.8 54.8 113.5 55 C 113.3 55.1 113.2 55.4 113.2 55.7 C 113.2 55.7 113.2 55.7 113.2 55.7 C 113.2 55.9 113.3 56.2 113.5 56.3 C 113.7 56.5 114 56.6 114.3 56.6 Z M 119.5 58.4 L 118.8 58.1 C 118.8 58.1 119.49 57.06 119.5 57.1 C 118.9 57 118.5 56.7 118.1 56.3 C 117.8 55.8 117.6 55.3 117.6 54.8 C 117.6 54.8 117.6 54.8 117.6 54.8 C 117.6 54.1 117.8 53.6 118.3 53.1 C 118.7 52.6 119.3 52.4 119.9 52.4 C 120.6 52.4 121.2 52.7 121.7 53.2 C 121.7 53.2 121.3 53.7 121.3 53.7 C 120.8 53.2 120.4 53 119.9 53 C 119.4 53 119.1 53.2 118.8 53.5 C 118.4 53.8 118.3 54.3 118.3 54.7 C 118.3 54.7 118.3 54.8 118.3 54.8 C 118.3 55.2 118.4 55.7 118.8 56 C 119.1 56.3 119.5 56.5 119.9 56.5 C 120.4 56.5 120.9 56.3 121.3 55.8 C 121.3 55.8 121.7 56.2 121.7 56.2 C 121.3 56.8 120.7 57.1 120 57.1 C 120.04 57.1 119.5 58.4 119.5 58.4 Z M 122.9 57 L 122.9 50.7 L 123.6 50.7 L 123.6 57 L 122.9 57 Z M 125.2 57 L 125.2 52.5 L 125.9 52.5 L 125.9 57 L 125.2 57 Z M 127.3 57 L 127.3 56.1 L 128.1 56.1 L 128.1 57 L 127.3 57 Z " stroke="none" fill="#fff"/>  </g>  <g id="Polygon369210">    <path d="M 2.2 44.5 C 1.5 44.5 0.9 44.3 0.4 43.9 C 0.4 43.9 0.7 43.4 0.7 43.4 C 1.2 43.8 1.7 44 2.3 44 C 2.5 44 2.8 43.9 2.9 43.8 C 3.1 43.6 3.2 43.5 3.2 43.3 C 3.2 43.3 3.2 43.2 3.2 43.2 C 3.2 43 3.1 42.9 2.9 42.8 C 2.7 42.7 2.4 42.5 2.1 42.4 C 1.9 42.4 1.8 42.4 1.7 42.3 C 1.6 42.3 1.5 42.3 1.4 42.2 C 1.2 42.2 1.1 42.1 1.1 42 C 1 42 0.9 41.9 0.8 41.8 C 0.7 41.7 0.7 41.6 0.6 41.5 C 0.6 41.4 0.6 41.3 0.6 41.2 C 0.6 41.2 0.6 41.2 0.6 41.2 C 0.6 40.8 0.7 40.5 1 40.2 C 1.3 40 1.7 39.9 2.1 39.9 C 2.7 39.9 3.2 40 3.7 40.4 C 3.7 40.4 3.4 40.9 3.4 40.9 C 3 40.6 2.5 40.4 2.1 40.4 C 1.8 40.4 1.6 40.5 1.5 40.6 C 1.3 40.7 1.2 40.9 1.2 41.1 C 1.2 41.1 1.2 41.1 1.2 41.1 C 1.2 41.2 1.3 41.3 1.3 41.3 C 1.4 41.4 1.4 41.5 1.5 41.5 C 1.5 41.6 1.6 41.6 1.7 41.7 C 1.9 41.7 2 41.7 2 41.8 C 2.1 41.8 2.2 41.8 2.4 41.9 C 2.6 41.9 2.7 42 2.8 42 C 2.9 42.1 3.1 42.1 3.2 42.2 C 3.3 42.3 3.5 42.3 3.5 42.4 C 3.6 42.5 3.7 42.6 3.7 42.7 C 3.8 42.9 3.8 43 3.8 43.2 C 3.8 43.2 3.8 43.2 3.8 43.2 C 3.8 43.6 3.7 43.9 3.4 44.2 C 3.1 44.4 2.7 44.5 2.2 44.5 Z M 8 43.8 C 7.6 44.3 7.1 44.5 6.4 44.5 C 6 44.5 5.6 44.4 5.2 44.2 C 4.9 43.9 4.7 43.6 4.7 43.1 C 4.7 43.1 4.7 43.1 4.7 43.1 C 4.7 42.7 4.9 42.3 5.3 42.1 C 5.6 41.8 6.1 41.7 6.7 41.7 C 7.1 41.7 7.6 41.7 8 41.9 C 8 41.9 8 41.7 8 41.7 C 8 41.3 7.9 41 7.7 40.8 C 7.5 40.6 7.1 40.5 6.7 40.5 C 6.3 40.5 5.8 40.6 5.3 40.8 C 5.3 40.8 5.1 40.3 5.1 40.3 C 5.7 40 6.2 39.9 6.8 39.9 C 7.4 39.9 7.9 40.1 8.2 40.4 C 8.5 40.7 8.7 41.1 8.7 41.7 C 8.69 41.7 8.7 44.4 8.7 44.4 L 8 44.4 L 8 43.8 C 8 43.8 8.04 43.77 8 43.8 Z M 6.5 44 C 7 44 7.3 43.9 7.6 43.7 C 7.9 43.4 8.1 43.1 8.1 42.8 C 8.1 42.8 8.1 42.4 8.1 42.4 C 7.6 42.2 7.2 42.2 6.7 42.2 C 6.3 42.2 6 42.2 5.8 42.4 C 5.5 42.6 5.4 42.8 5.4 43.1 C 5.4 43.1 5.4 43.1 5.4 43.1 C 5.4 43.4 5.5 43.6 5.7 43.8 C 6 43.9 6.2 44 6.5 44 Z M 13.8 45.3 C 13.4 45.7 12.8 45.9 12.1 45.9 C 11.3 45.9 10.7 45.6 10.1 45.2 C 10.1 45.2 10.4 44.7 10.4 44.7 C 10.9 45.1 11.5 45.3 12.1 45.3 C 12.6 45.3 13 45.1 13.3 44.9 C 13.6 44.6 13.7 44.2 13.7 43.7 C 13.7 43.7 13.7 43.1 13.7 43.1 C 13.3 43.8 12.7 44.1 12 44.1 C 11.4 44.1 10.9 43.9 10.5 43.5 C 10.1 43.1 9.9 42.6 9.9 42 C 9.9 42 9.9 42 9.9 42 C 9.9 41.3 10.1 40.8 10.5 40.4 C 10.9 40 11.4 39.9 12 39.9 C 12.7 39.9 13.3 40.2 13.7 40.8 C 13.72 40.76 13.7 39.9 13.7 39.9 L 14.4 39.9 C 14.4 39.9 14.39 43.66 14.4 43.7 C 14.4 44.3 14.2 44.9 13.8 45.3 C 13.8 45.3 13.8 45.3 13.8 45.3 Z M 12.1 43.5 C 12.5 43.5 12.9 43.4 13.3 43.1 C 13.6 42.8 13.7 42.4 13.7 42 C 13.7 42 13.7 42 13.7 42 C 13.7 41.5 13.6 41.2 13.3 40.9 C 12.9 40.6 12.5 40.4 12.1 40.4 C 11.7 40.4 11.3 40.6 11 40.9 C 10.7 41.1 10.5 41.5 10.5 42 C 10.5 42 10.5 42 10.5 42 C 10.5 42.4 10.7 42.8 11 43.1 C 11.3 43.4 11.7 43.5 12.1 43.5 Z M 13.6 38.2 C 13.5 38.5 13.4 38.8 13.2 39 C 12.9 39.2 12.6 39.3 12.3 39.3 C 11.9 39.3 11.6 39.2 11.4 39 C 11.1 38.8 11 38.5 11 38.2 C 11 38.2 11.5 38.2 11.5 38.2 C 11.6 38.6 11.9 38.7 12.3 38.7 C 12.7 38.7 13 38.6 13.1 38.2 C 13.08 38.2 13.6 38.2 13.6 38.2 C 13.6 38.2 13.56 38.2 13.6 38.2 Z M 15.9 44.4 L 15.9 38.1 L 16.6 38.1 L 16.6 44.4 L 15.9 44.4 Z M 21.1 43.8 C 20.7 44.3 20.2 44.5 19.5 44.5 C 19.1 44.5 18.7 44.4 18.3 44.2 C 18 43.9 17.8 43.6 17.8 43.1 C 17.8 43.1 17.8 43.1 17.8 43.1 C 17.8 42.7 18 42.3 18.4 42.1 C 18.7 41.8 19.2 41.7 19.8 41.7 C 20.2 41.7 20.7 41.7 21.1 41.9 C 21.1 41.9 21.1 41.7 21.1 41.7 C 21.1 41.3 21 41 20.8 40.8 C 20.6 40.6 20.2 40.5 19.8 40.5 C 19.3 40.5 18.9 40.6 18.4 40.8 C 18.4 40.8 18.2 40.3 18.2 40.3 C 18.8 40 19.3 39.9 19.9 39.9 C 20.5 39.9 21 40.1 21.3 40.4 C 21.6 40.7 21.8 41.1 21.8 41.7 C 21.78 41.7 21.8 44.4 21.8 44.4 L 21.1 44.4 L 21.1 43.8 C 21.1 43.8 21.14 43.77 21.1 43.8 Z M 19.6 44 C 20.1 44 20.4 43.9 20.7 43.7 C 21 43.4 21.1 43.1 21.1 42.8 C 21.1 42.8 21.1 42.4 21.1 42.4 C 20.7 42.2 20.3 42.2 19.8 42.2 C 19.4 42.2 19.1 42.2 18.9 42.4 C 18.6 42.6 18.5 42.8 18.5 43.1 C 18.5 43.1 18.5 43.1 18.5 43.1 C 18.5 43.4 18.6 43.6 18.8 43.8 C 19.1 43.9 19.3 44 19.6 44 Z M 23.2 44.4 L 23.2 39.9 L 23.9 39.9 C 23.9 39.9 23.88 40.7 23.9 40.7 C 24.1 40.4 24.3 40.2 24.5 40.1 C 24.7 39.9 25 39.9 25.3 39.9 C 26 39.9 26.5 40.2 26.8 40.7 C 27.2 40.2 27.7 39.9 28.4 39.9 C 28.9 39.9 29.3 40 29.6 40.3 C 29.9 40.7 30 41.1 30 41.7 C 30.03 41.66 30 44.4 30 44.4 L 29.4 44.4 C 29.4 44.4 29.36 41.82 29.4 41.8 C 29.4 41.4 29.3 41 29 40.8 C 28.8 40.6 28.6 40.5 28.2 40.5 C 27.8 40.5 27.5 40.6 27.3 40.8 C 27.1 41.1 26.9 41.4 26.9 41.9 C 26.95 41.85 26.9 44.4 26.9 44.4 L 26.3 44.4 C 26.3 44.4 26.29 41.8 26.3 41.8 C 26.3 41.4 26.2 41 26 40.8 C 25.8 40.6 25.5 40.5 25.1 40.5 C 24.8 40.5 24.5 40.6 24.2 40.9 C 24 41.1 23.9 41.5 23.9 41.9 C 23.88 41.88 23.9 44.4 23.9 44.4 L 23.2 44.4 Z M 36.5 44.5 C 35.7 44.5 35.2 44.2 34.7 43.6 C 34.73 43.58 34.7 44.4 34.7 44.4 L 34.1 44.4 L 34.1 38.1 L 34.7 38.1 C 34.7 38.1 34.73 40.85 34.7 40.9 C 35.2 40.2 35.8 39.9 36.5 39.9 C 37 39.9 37.5 40.1 38 40.5 C 38.4 40.9 38.6 41.5 38.6 42.2 C 38.6 42.2 38.6 42.2 38.6 42.2 C 38.6 42.9 38.4 43.5 38 43.9 C 37.5 44.3 37 44.5 36.5 44.5 Z M 36.3 43.9 C 36.8 43.9 37.2 43.8 37.5 43.5 C 37.8 43.2 37.9 42.7 37.9 42.2 C 37.9 42.2 37.9 42.2 37.9 42.2 C 37.9 41.7 37.8 41.2 37.5 40.9 C 37.2 40.6 36.8 40.5 36.3 40.5 C 35.9 40.5 35.5 40.6 35.2 40.9 C 34.9 41.3 34.7 41.7 34.7 42.2 C 34.7 42.2 34.7 42.2 34.7 42.2 C 34.7 42.7 34.9 43.1 35.2 43.4 C 35.5 43.8 35.9 43.9 36.3 43.9 Z M 39.9 39 L 39.9 38.2 L 40.6 38.2 L 40.6 39 L 39.9 39 Z M 39.9 44.4 L 39.9 39.9 L 40.6 39.9 L 40.6 44.4 L 39.9 44.4 Z M 42.1 44.4 L 42.1 39.9 L 42.8 39.9 C 42.8 39.9 42.79 41.12 42.8 41.1 C 43 40.7 43.2 40.4 43.5 40.2 C 43.8 40 44.2 39.9 44.6 39.9 C 44.62 39.87 44.6 40.6 44.6 40.6 C 44.6 40.6 44.57 40.59 44.6 40.6 C 44.1 40.6 43.6 40.8 43.3 41.1 C 43 41.5 42.8 42 42.8 42.7 C 42.79 42.65 42.8 44.4 42.8 44.4 L 42.1 44.4 Z M 48.3 44.4 L 48.3 38.1 L 48.9 38.1 L 48.9 42.5 L 51.3 39.9 L 52.2 39.9 L 50.3 41.9 L 52.2 44.4 L 51.4 44.4 L 49.8 42.3 L 48.9 43.3 L 48.9 44.4 L 48.3 44.4 Z M 56.1 43.8 C 55.7 44.3 55.1 44.5 54.5 44.5 C 54 44.5 53.6 44.4 53.3 44.2 C 52.9 43.9 52.8 43.6 52.8 43.1 C 52.8 43.1 52.8 43.1 52.8 43.1 C 52.8 42.7 52.9 42.3 53.3 42.1 C 53.6 41.8 54.1 41.7 54.7 41.7 C 55.2 41.7 55.6 41.7 56.1 41.9 C 56.1 41.9 56.1 41.7 56.1 41.7 C 56.1 41.3 56 41 55.7 40.8 C 55.5 40.6 55.2 40.5 54.7 40.5 C 54.3 40.5 53.8 40.6 53.4 40.8 C 53.4 40.8 53.2 40.3 53.2 40.3 C 53.7 40 54.2 39.9 54.8 39.9 C 55.4 39.9 55.9 40.1 56.3 40.4 C 56.6 40.7 56.7 41.1 56.7 41.7 C 56.72 41.7 56.7 44.4 56.7 44.4 L 56.1 44.4 L 56.1 43.8 C 56.1 43.8 56.08 43.77 56.1 43.8 Z M 54.6 44 C 55 44 55.4 43.9 55.7 43.7 C 55.9 43.4 56.1 43.1 56.1 42.8 C 56.1 42.8 56.1 42.4 56.1 42.4 C 55.6 42.2 55.2 42.2 54.8 42.2 C 54.3 42.2 54 42.2 53.8 42.4 C 53.6 42.6 53.5 42.8 53.5 43.1 C 53.5 43.1 53.5 43.1 53.5 43.1 C 53.5 43.4 53.6 43.6 53.8 43.8 C 54 43.9 54.3 44 54.6 44 Z M 58.1 44.4 L 58.1 39.9 L 58.8 39.9 C 58.8 39.9 58.82 41.12 58.8 41.1 C 59 40.7 59.2 40.4 59.6 40.2 C 59.9 40 60.2 39.9 60.7 39.9 C 60.65 39.87 60.7 40.6 60.7 40.6 C 60.7 40.6 60.6 40.59 60.6 40.6 C 60.1 40.6 59.7 40.8 59.3 41.1 C 59 41.5 58.8 42 58.8 42.7 C 58.82 42.65 58.8 44.4 58.8 44.4 L 58.1 44.4 Z M 61.7 44.4 L 61.7 39.9 L 62.4 39.9 L 62.4 44.4 L 61.7 44.4 Z M 65 45.8 L 64.4 45.5 C 64.4 45.5 65.06 44.5 65.1 44.5 C 64.5 44.4 64 44.2 63.6 43.9 C 63.6 43.9 63.9 43.4 63.9 43.4 C 64.4 43.8 64.9 44 65.5 44 C 65.8 44 66 43.9 66.1 43.8 C 66.3 43.6 66.4 43.5 66.4 43.3 C 66.4 43.3 66.4 43.2 66.4 43.2 C 66.4 43 66.3 42.9 66.1 42.8 C 65.9 42.7 65.6 42.5 65.3 42.4 C 65.1 42.4 65 42.4 64.9 42.3 C 64.9 42.3 64.7 42.3 64.6 42.2 C 64.5 42.2 64.3 42.1 64.3 42 C 64.2 42 64.1 41.9 64 41.8 C 64 41.7 63.9 41.6 63.9 41.5 C 63.8 41.4 63.8 41.3 63.8 41.2 C 63.8 41.2 63.8 41.2 63.8 41.2 C 63.8 40.8 63.9 40.5 64.2 40.2 C 64.5 40 64.9 39.9 65.3 39.9 C 65.9 39.9 66.4 40 66.9 40.4 C 66.9 40.4 66.6 40.9 66.6 40.9 C 66.2 40.6 65.8 40.4 65.3 40.4 C 65 40.4 64.8 40.5 64.7 40.6 C 64.5 40.7 64.4 40.9 64.4 41.1 C 64.4 41.1 64.4 41.1 64.4 41.1 C 64.4 41.2 64.5 41.3 64.5 41.3 C 64.6 41.4 64.6 41.5 64.7 41.5 C 64.7 41.6 64.8 41.6 64.9 41.7 C 65.1 41.7 65.2 41.7 65.2 41.8 C 65.3 41.8 65.4 41.8 65.6 41.9 C 65.8 41.9 65.9 42 66 42 C 66.1 42.1 66.3 42.1 66.4 42.2 C 66.5 42.3 66.7 42.3 66.7 42.4 C 66.8 42.5 66.9 42.6 67 42.7 C 67 42.9 67 43 67 43.2 C 67 43.2 67 43.2 67 43.2 C 67 43.6 66.9 43.9 66.6 44.1 C 66.4 44.4 66 44.5 65.6 44.5 C 65.62 44.52 65 45.8 65 45.8 Z M 70.5 44.3 C 70.3 44.5 70 44.5 69.7 44.5 C 69.3 44.5 69 44.4 68.8 44.2 C 68.5 44 68.4 43.7 68.4 43.3 C 68.43 43.25 68.4 40.5 68.4 40.5 L 67.8 40.5 L 67.8 39.9 L 68.4 39.9 L 68.4 38.6 L 69.1 38.6 L 69.1 39.9 L 70.5 39.9 L 70.5 40.5 L 69.1 40.5 C 69.1 40.5 69.1 43.17 69.1 43.2 C 69.1 43.7 69.4 43.9 69.9 43.9 C 70.1 43.9 70.3 43.9 70.5 43.8 C 70.51 43.76 70.5 44.3 70.5 44.3 C 70.5 44.3 70.51 44.33 70.5 44.3 Z M 71.8 44.4 L 71.8 39.9 L 72.4 39.9 L 72.4 44.4 L 71.8 44.4 Z M 74 44.4 L 74 39.9 L 74.7 39.9 C 74.7 39.9 74.67 41.12 74.7 41.1 C 74.8 40.7 75.1 40.4 75.4 40.2 C 75.7 40 76.1 39.9 76.5 39.9 C 76.5 39.87 76.5 40.6 76.5 40.6 C 76.5 40.6 76.45 40.59 76.4 40.6 C 75.9 40.6 75.5 40.8 75.2 41.1 C 74.8 41.5 74.7 42 74.7 42.7 C 74.67 42.65 74.7 44.4 74.7 44.4 L 74 44.4 Z M 77.5 44.4 L 77.5 39.9 L 78.2 39.9 C 78.2 39.9 78.19 40.7 78.2 40.7 C 78.4 40.4 78.6 40.2 78.8 40.1 C 79 39.9 79.3 39.9 79.6 39.9 C 80.3 39.9 80.8 40.2 81.1 40.7 C 81.5 40.2 82 39.9 82.7 39.9 C 83.2 39.9 83.6 40 83.9 40.3 C 84.2 40.7 84.3 41.1 84.3 41.7 C 84.34 41.66 84.3 44.4 84.3 44.4 L 83.7 44.4 C 83.7 44.4 83.67 41.82 83.7 41.8 C 83.7 41.4 83.6 41 83.4 40.8 C 83.2 40.6 82.9 40.5 82.5 40.5 C 82.2 40.5 81.9 40.6 81.6 40.8 C 81.4 41.1 81.3 41.4 81.3 41.9 C 81.26 41.85 81.3 44.4 81.3 44.4 L 80.6 44.4 C 80.6 44.4 80.6 41.8 80.6 41.8 C 80.6 41.4 80.5 41 80.3 40.8 C 80.1 40.6 79.8 40.5 79.4 40.5 C 79.1 40.5 78.8 40.6 78.5 40.9 C 78.3 41.1 78.2 41.5 78.2 41.9 C 78.19 41.88 78.2 44.4 78.2 44.4 L 77.5 44.4 Z M 88.7 43.8 C 88.3 44.3 87.8 44.5 87.1 44.5 C 86.6 44.5 86.3 44.4 85.9 44.2 C 85.6 43.9 85.4 43.6 85.4 43.1 C 85.4 43.1 85.4 43.1 85.4 43.1 C 85.4 42.7 85.6 42.3 85.9 42.1 C 86.3 41.8 86.8 41.7 87.3 41.7 C 87.8 41.7 88.3 41.7 88.7 41.9 C 88.7 41.9 88.7 41.7 88.7 41.7 C 88.7 41.3 88.6 41 88.4 40.8 C 88.1 40.6 87.8 40.5 87.4 40.5 C 86.9 40.5 86.5 40.6 86 40.8 C 86 40.8 85.8 40.3 85.8 40.3 C 86.4 40 86.9 39.9 87.5 39.9 C 88.1 39.9 88.6 40.1 88.9 40.4 C 89.2 40.7 89.4 41.1 89.4 41.7 C 89.37 41.7 89.4 44.4 89.4 44.4 L 88.7 44.4 L 88.7 43.8 C 88.7 43.8 88.73 43.77 88.7 43.8 Z M 87.2 44 C 87.7 44 88 43.9 88.3 43.7 C 88.6 43.4 88.7 43.1 88.7 42.8 C 88.7 42.8 88.7 42.4 88.7 42.4 C 88.3 42.2 87.8 42.2 87.4 42.2 C 87 42.2 86.7 42.2 86.4 42.4 C 86.2 42.6 86.1 42.8 86.1 43.1 C 86.1 43.1 86.1 43.1 86.1 43.1 C 86.1 43.4 86.2 43.6 86.4 43.8 C 86.7 43.9 86.9 44 87.2 44 Z M 93.4 44.4 L 93.4 38.1 L 94.1 38.1 L 94.1 42.5 L 96.5 39.9 L 97.3 39.9 L 95.4 41.9 L 97.4 44.4 L 96.6 44.4 L 95 42.3 L 94.1 43.3 L 94.1 44.4 L 93.4 44.4 Z M 101.2 43.8 C 100.8 44.3 100.3 44.5 99.6 44.5 C 99.2 44.5 98.8 44.4 98.4 44.2 C 98.1 43.9 97.9 43.6 97.9 43.1 C 97.9 43.1 97.9 43.1 97.9 43.1 C 97.9 42.7 98.1 42.3 98.5 42.1 C 98.8 41.8 99.3 41.7 99.8 41.7 C 100.3 41.7 100.8 41.7 101.2 41.9 C 101.2 41.9 101.2 41.7 101.2 41.7 C 101.2 41.3 101.1 41 100.9 40.8 C 100.7 40.6 100.3 40.5 99.9 40.5 C 99.4 40.5 99 40.6 98.5 40.8 C 98.5 40.8 98.3 40.3 98.3 40.3 C 98.9 40 99.4 39.9 100 39.9 C 100.6 39.9 101.1 40.1 101.4 40.4 C 101.7 40.7 101.9 41.1 101.9 41.7 C 101.87 41.7 101.9 44.4 101.9 44.4 L 101.2 44.4 L 101.2 43.8 C 101.2 43.8 101.23 43.77 101.2 43.8 Z M 99.7 44 C 100.2 44 100.5 43.9 100.8 43.7 C 101.1 43.4 101.2 43.1 101.2 42.8 C 101.2 42.8 101.2 42.4 101.2 42.4 C 100.8 42.2 100.3 42.2 99.9 42.2 C 99.5 42.2 99.2 42.2 98.9 42.4 C 98.7 42.6 98.6 42.8 98.6 43.1 C 98.6 43.1 98.6 43.1 98.6 43.1 C 98.6 43.4 98.7 43.6 98.9 43.8 C 99.2 43.9 99.4 44 99.7 44 Z M 104.4 45.8 L 103.7 45.5 C 103.7 45.5 104.41 44.5 104.4 44.5 C 103.8 44.4 103.3 44.2 102.9 43.9 C 102.9 43.9 103.3 43.4 103.3 43.4 C 103.8 43.8 104.3 44 104.8 44 C 105.1 44 105.3 43.9 105.5 43.8 C 105.7 43.6 105.8 43.5 105.8 43.3 C 105.8 43.3 105.8 43.2 105.8 43.2 C 105.8 43 105.7 42.9 105.5 42.8 C 105.3 42.7 105 42.5 104.6 42.4 C 104.5 42.4 104.3 42.4 104.3 42.3 C 104.2 42.3 104.1 42.3 103.9 42.2 C 103.8 42.2 103.7 42.1 103.6 42 C 103.5 42 103.5 41.9 103.4 41.8 C 103.3 41.7 103.2 41.6 103.2 41.5 C 103.2 41.4 103.1 41.3 103.1 41.2 C 103.1 41.2 103.1 41.2 103.1 41.2 C 103.1 40.8 103.3 40.5 103.6 40.2 C 103.9 40 104.2 39.9 104.7 39.9 C 105.3 39.9 105.8 40 106.3 40.4 C 106.3 40.4 106 40.9 106 40.9 C 105.5 40.6 105.1 40.4 104.7 40.4 C 104.4 40.4 104.2 40.5 104 40.6 C 103.9 40.7 103.8 40.9 103.8 41.1 C 103.8 41.1 103.8 41.1 103.8 41.1 C 103.8 41.2 103.8 41.3 103.9 41.3 C 103.9 41.4 104 41.5 104 41.5 C 104.1 41.6 104.2 41.6 104.3 41.7 C 104.4 41.7 104.5 41.7 104.6 41.8 C 104.7 41.8 104.8 41.8 104.9 41.9 C 105.1 41.9 105.3 42 105.4 42 C 105.5 42.1 105.6 42.1 105.7 42.2 C 105.9 42.3 106 42.3 106.1 42.4 C 106.2 42.5 106.2 42.6 106.3 42.7 C 106.4 42.9 106.4 43 106.4 43.2 C 106.4 43.2 106.4 43.2 106.4 43.2 C 106.4 43.6 106.3 43.9 106 44.1 C 105.7 44.4 105.4 44.5 105 44.5 C 104.96 44.52 104.4 45.8 104.4 45.8 Z M 107.7 44.4 L 107.7 39.9 L 108.4 39.9 L 108.4 44.4 L 107.7 44.4 Z M 113.6 45.3 C 113.2 45.7 112.7 45.9 111.9 45.9 C 111.1 45.9 110.5 45.6 109.9 45.2 C 109.9 45.2 110.2 44.7 110.2 44.7 C 110.7 45.1 111.3 45.3 111.9 45.3 C 112.4 45.3 112.8 45.1 113.1 44.9 C 113.4 44.6 113.5 44.2 113.5 43.7 C 113.5 43.7 113.5 43.1 113.5 43.1 C 113.1 43.8 112.5 44.1 111.8 44.1 C 111.2 44.1 110.7 43.9 110.3 43.5 C 109.9 43.1 109.7 42.6 109.7 42 C 109.7 42 109.7 42 109.7 42 C 109.7 41.3 109.9 40.8 110.3 40.4 C 110.7 40 111.2 39.9 111.8 39.9 C 112.5 39.9 113.1 40.2 113.5 40.8 C 113.53 40.76 113.5 39.9 113.5 39.9 L 114.2 39.9 C 114.2 39.9 114.2 43.66 114.2 43.7 C 114.2 44.3 114 44.9 113.6 45.3 C 113.6 45.3 113.6 45.3 113.6 45.3 Z M 111.9 43.5 C 112.3 43.5 112.7 43.4 113.1 43.1 C 113.4 42.8 113.6 42.4 113.6 42 C 113.6 42 113.6 42 113.6 42 C 113.6 41.5 113.4 41.2 113.1 40.9 C 112.7 40.6 112.3 40.4 111.9 40.4 C 111.5 40.4 111.1 40.6 110.8 40.9 C 110.5 41.1 110.3 41.5 110.3 42 C 110.3 42 110.3 42 110.3 42 C 110.3 42.4 110.5 42.8 110.8 43.1 C 111.1 43.4 111.5 43.5 111.9 43.5 Z M 113.4 38.2 C 113.3 38.5 113.2 38.8 113 39 C 112.8 39.2 112.5 39.3 112.1 39.3 C 111.7 39.3 111.4 39.2 111.2 39 C 111 38.8 110.8 38.5 110.8 38.2 C 110.8 38.2 111.3 38.2 111.3 38.2 C 111.4 38.6 111.7 38.7 112.1 38.7 C 112.5 38.7 112.8 38.6 112.9 38.2 C 112.88 38.2 113.4 38.2 113.4 38.2 C 113.4 38.2 113.37 38.2 113.4 38.2 Z M 115.8 44.4 L 115.8 39.9 L 116.4 39.9 L 116.4 44.4 L 115.8 44.4 Z M 117.9 44.4 L 117.9 43.5 L 118.7 43.5 L 118.7 44.4 L 117.9 44.4 Z M 124.4 44.4 L 124.4 39 L 122.4 39 L 122.4 38.4 L 127.1 38.4 L 127.1 39 L 125.1 39 L 125.1 44.4 L 124.4 44.4 Z M 131 43.7 C 130.5 44.3 129.9 44.5 129.2 44.5 C 128.6 44.5 128 44.3 127.6 43.9 C 127.2 43.5 126.9 42.9 126.9 42.2 C 126.9 42.2 126.9 42.2 126.9 42.2 C 126.9 41.5 127.1 41 127.5 40.5 C 128 40.1 128.5 39.9 129.1 39.9 C 129.7 39.9 130.2 40.1 130.6 40.5 C 131 41 131.2 41.5 131.2 42.2 C 131.2 42.3 131.2 42.4 131.2 42.4 C 131.2 42.4 127.6 42.4 127.6 42.4 C 127.7 42.9 127.8 43.3 128.1 43.6 C 128.4 43.8 128.8 44 129.2 44 C 129.7 44 130.2 43.8 130.6 43.3 C 130.61 43.33 131 43.7 131 43.7 C 131 43.7 131.03 43.7 131 43.7 Z M 127.6 41.9 C 127.6 41.9 130.5 41.9 130.5 41.9 C 130.5 41.5 130.3 41.1 130.1 40.9 C 129.8 40.6 129.5 40.4 129.1 40.4 C 128.7 40.4 128.4 40.6 128.1 40.9 C 127.8 41.1 127.7 41.5 127.6 41.9 Z M 132.4 44.4 L 132.4 39.9 L 133 39.9 C 133 39.9 133.03 40.7 133 40.7 C 133.2 40.4 133.4 40.2 133.6 40.1 C 133.9 39.9 134.1 39.9 134.5 39.9 C 135.2 39.9 135.6 40.2 135.9 40.7 C 136.3 40.2 136.9 39.9 137.5 39.9 C 138 39.9 138.4 40 138.7 40.3 C 139 40.7 139.2 41.1 139.2 41.7 C 139.18 41.66 139.2 44.4 139.2 44.4 L 138.5 44.4 C 138.5 44.4 138.51 41.82 138.5 41.8 C 138.5 41.4 138.4 41 138.2 40.8 C 138 40.6 137.7 40.5 137.3 40.5 C 137 40.5 136.7 40.6 136.5 40.8 C 136.2 41.1 136.1 41.4 136.1 41.9 C 136.1 41.85 136.1 44.4 136.1 44.4 L 135.4 44.4 C 135.4 44.4 135.44 41.8 135.4 41.8 C 135.4 41.4 135.3 41 135.1 40.8 C 134.9 40.6 134.6 40.5 134.3 40.5 C 133.9 40.5 133.6 40.6 133.4 40.9 C 133.1 41.1 133 41.5 133 41.9 C 133.03 41.88 133 44.4 133 44.4 L 132.4 44.4 Z M 140.6 39 L 140.6 38.2 L 141.4 38.2 L 141.4 39 L 140.6 39 Z M 140.7 44.4 L 140.7 39.9 L 141.3 39.9 L 141.3 44.4 L 140.7 44.4 Z M 142.6 44.4 L 142.6 44 L 145.6 40.5 L 142.7 40.5 L 142.7 39.9 L 146.5 39.9 L 146.5 40.4 L 143.5 43.9 L 146.5 43.9 L 146.5 44.4 L 142.6 44.4 Z M 151.9 45.8 L 151.3 45.5 C 151.3 45.5 151.94 44.5 151.9 44.5 C 151.4 44.4 150.9 44.1 150.6 43.7 C 150.2 43.3 150.1 42.8 150.1 42.2 C 150.1 42.2 150.1 42.2 150.1 42.2 C 150.1 41.6 150.3 41 150.7 40.5 C 151.2 40.1 151.7 39.9 152.4 39.9 C 153.1 39.9 153.7 40.1 154.2 40.7 C 154.2 40.7 153.7 41.1 153.7 41.1 C 153.3 40.7 152.8 40.4 152.4 40.4 C 151.9 40.4 151.5 40.6 151.2 40.9 C 150.9 41.3 150.7 41.7 150.7 42.2 C 150.7 42.2 150.7 42.2 150.7 42.2 C 150.7 42.7 150.9 43.1 151.2 43.4 C 151.5 43.8 151.9 43.9 152.4 43.9 C 152.9 43.9 153.4 43.7 153.8 43.3 C 153.8 43.3 154.2 43.7 154.2 43.7 C 153.7 44.2 153.2 44.5 152.5 44.5 C 152.49 44.54 151.9 45.8 151.9 45.8 Z M 155.3 39 L 155.3 38.2 L 156.1 38.2 L 156.1 39 L 155.3 39 Z M 155.4 44.4 L 155.4 39.9 L 156 39.9 L 156 44.4 L 155.4 44.4 Z M 157.3 44.4 L 157.3 44 L 160.3 40.5 L 157.4 40.5 L 157.4 39.9 L 161.2 39.9 L 161.2 40.4 L 158.2 43.9 L 161.2 43.9 L 161.2 44.4 L 157.3 44.4 Z M 166 45.3 C 165.6 45.7 165 45.9 164.3 45.9 C 163.5 45.9 162.8 45.6 162.2 45.2 C 162.2 45.2 162.5 44.7 162.5 44.7 C 163.1 45.1 163.7 45.3 164.3 45.3 C 164.8 45.3 165.2 45.1 165.5 44.9 C 165.8 44.6 165.9 44.2 165.9 43.7 C 165.9 43.7 165.9 43.1 165.9 43.1 C 165.4 43.8 164.8 44.1 164.1 44.1 C 163.6 44.1 163.1 43.9 162.7 43.5 C 162.2 43.1 162 42.6 162 42 C 162 42 162 42 162 42 C 162 41.3 162.2 40.8 162.7 40.4 C 163.1 40 163.6 39.9 164.1 39.9 C 164.8 39.9 165.4 40.2 165.9 40.8 C 165.9 40.76 165.9 39.9 165.9 39.9 L 166.6 39.9 C 166.6 39.9 166.57 43.66 166.6 43.7 C 166.6 44.3 166.4 44.9 166 45.3 C 166 45.3 166 45.3 166 45.3 Z M 164.3 43.5 C 164.7 43.5 165.1 43.4 165.4 43.1 C 165.8 42.8 165.9 42.4 165.9 42 C 165.9 42 165.9 42 165.9 42 C 165.9 41.5 165.8 41.2 165.4 40.9 C 165.1 40.6 164.7 40.4 164.3 40.4 C 163.8 40.4 163.5 40.6 163.2 40.9 C 162.9 41.1 162.7 41.5 162.7 42 C 162.7 42 162.7 42 162.7 42 C 162.7 42.4 162.9 42.8 163.2 43.1 C 163.5 43.4 163.8 43.5 164.3 43.5 Z M 168.1 39 L 168.1 38.2 L 168.8 38.2 L 168.8 39 L 168.1 39 Z M 168.1 44.4 L 168.1 39.9 L 168.8 39.9 L 168.8 44.4 L 168.1 44.4 Z M 170.4 44.4 L 170.4 38.1 L 171.1 38.1 L 171.1 44.4 L 170.4 44.4 Z M 176.5 43.7 C 176 44.3 175.3 44.5 174.6 44.5 C 174 44.5 173.4 44.3 173 43.9 C 172.6 43.5 172.4 42.9 172.4 42.2 C 172.4 42.2 172.4 42.2 172.4 42.2 C 172.4 41.5 172.6 41 173 40.5 C 173.4 40.1 173.9 39.9 174.5 39.9 C 175.2 39.9 175.7 40.1 176 40.5 C 176.4 41 176.6 41.5 176.6 42.2 C 176.6 42.3 176.6 42.4 176.6 42.4 C 176.6 42.4 173 42.4 173 42.4 C 173.1 42.9 173.3 43.3 173.6 43.6 C 173.9 43.8 174.2 44 174.6 44 C 175.2 44 175.6 43.8 176 43.3 C 176.04 43.33 176.5 43.7 176.5 43.7 C 176.5 43.7 176.45 43.7 176.5 43.7 Z M 173 41.9 C 173 41.9 175.9 41.9 175.9 41.9 C 175.9 41.5 175.8 41.1 175.5 40.9 C 175.3 40.6 174.9 40.4 174.5 40.4 C 174.1 40.4 173.8 40.6 173.5 40.9 C 173.2 41.1 173.1 41.5 173 41.9 Z M 177.8 44.4 L 177.8 39.9 L 178.5 39.9 C 178.5 39.9 178.45 41.12 178.5 41.1 C 178.6 40.7 178.9 40.4 179.2 40.2 C 179.5 40 179.9 39.9 180.3 39.9 C 180.29 39.87 180.3 40.6 180.3 40.6 C 180.3 40.6 180.24 40.59 180.2 40.6 C 179.7 40.6 179.3 40.8 179 41.1 C 178.6 41.5 178.5 42 178.5 42.7 C 178.45 42.65 178.5 44.4 178.5 44.4 L 177.8 44.4 Z M 181.3 40.9 L 181.3 39.9 L 182.1 39.9 L 182.1 40.9 L 181.3 40.9 Z M 181.1 45.5 C 181.1 45.5 181 45.2 181 45.2 C 181.4 45 181.6 44.8 181.6 44.4 C 181.58 44.44 181.3 44.4 181.3 44.4 L 181.3 43.5 L 182.1 43.5 C 182.1 43.5 182.07 44.31 182.1 44.3 C 182.1 44.7 182 44.9 181.8 45.1 C 181.7 45.3 181.4 45.4 181.1 45.5 Z " stroke="none" fill="#fff"/>  </g>  <g id="Polygon369209">    <path d="M 0.9 31.9 L 0.9 25.8 L 5.2 25.8 L 5.2 26.4 L 1.5 26.4 L 1.5 28.6 L 4.8 28.6 L 4.8 29.2 L 1.5 29.2 L 1.5 31.9 L 0.9 31.9 Z M 8.7 32 C 7.7 32 6.9 31.6 6.2 31 C 6.2 31 6.6 30.5 6.6 30.5 C 6.9 30.8 7.2 31 7.6 31.1 C 7.9 31.3 8.3 31.4 8.7 31.4 C 9.1 31.4 9.4 31.3 9.7 31.1 C 9.9 30.9 10 30.6 10 30.3 C 10 30.3 10 30.3 10 30.3 C 10 30 9.9 29.8 9.7 29.6 C 9.5 29.4 9.1 29.3 8.5 29.1 C 7.7 29 7.2 28.8 6.9 28.5 C 6.6 28.3 6.4 27.9 6.4 27.4 C 6.4 27.4 6.4 27.4 6.4 27.4 C 6.4 26.9 6.6 26.5 7 26.2 C 7.4 25.9 7.8 25.7 8.4 25.7 C 8.8 25.7 9.2 25.8 9.6 25.9 C 9.9 26 10.2 26.2 10.5 26.5 C 10.5 26.5 10.1 27 10.1 27 C 9.6 26.5 9 26.3 8.4 26.3 C 8 26.3 7.7 26.4 7.4 26.6 C 7.2 26.8 7.1 27 7.1 27.3 C 7.1 27.3 7.1 27.3 7.1 27.3 C 7.1 27.6 7.2 27.9 7.4 28 C 7.7 28.2 8.1 28.4 8.7 28.5 C 9.4 28.7 9.9 28.9 10.3 29.1 C 10.6 29.4 10.7 29.8 10.7 30.2 C 10.7 30.2 10.7 30.2 10.7 30.2 C 10.7 30.8 10.5 31.2 10.1 31.5 C 9.8 31.8 9.3 32 8.7 32 Z M 14.9 32 C 14 32 13.3 31.7 12.7 31.1 C 12.2 30.5 11.9 29.7 11.9 28.9 C 11.9 28.9 11.9 28.8 11.9 28.8 C 11.9 28 12.2 27.2 12.7 26.6 C 13.3 26 14.1 25.7 14.9 25.7 C 15.5 25.7 15.9 25.8 16.3 25.9 C 16.6 26.1 17 26.3 17.3 26.7 C 17.3 26.7 16.8 27.2 16.8 27.2 C 16.6 26.9 16.3 26.7 16 26.5 C 15.7 26.4 15.3 26.3 14.9 26.3 C 14.3 26.3 13.7 26.6 13.2 27 C 12.8 27.5 12.6 28.1 12.6 28.8 C 12.6 28.8 12.6 28.8 12.6 28.8 C 12.6 29.5 12.8 30.1 13.2 30.6 C 13.7 31.1 14.3 31.4 14.9 31.4 C 15.3 31.4 15.7 31.3 16 31.1 C 16.3 31 16.6 30.8 16.9 30.5 C 16.9 30.5 17.3 30.9 17.3 30.9 C 17 31.3 16.6 31.5 16.3 31.7 C 15.9 31.9 15.4 32 14.9 32 Z M 20.6 28.5 L 20.6 25.8 L 21.1 25.8 L 22 27.3 L 23 25.8 L 23.4 25.8 L 23.4 28.5 L 23 28.5 L 23 26.4 L 22 27.9 L 22 27.9 L 21 26.4 L 21 28.5 L 20.6 28.5 Z M 18.8 28.5 L 18.8 26.2 L 17.9 26.2 L 17.9 25.8 L 20.1 25.8 L 20.1 26.2 L 19.2 26.2 L 19.2 28.5 L 18.8 28.5 Z M 28.6 32 C 27.9 32 27.3 31.8 26.7 31.3 C 26.7 31.3 27 30.8 27 30.8 C 27.5 31.2 28.1 31.4 28.6 31.4 C 28.9 31.4 29.1 31.3 29.3 31.2 C 29.4 31.1 29.5 30.9 29.5 30.7 C 29.5 30.7 29.5 30.7 29.5 30.7 C 29.5 30.5 29.4 30.3 29.2 30.2 C 29.1 30.1 28.8 30 28.4 29.9 C 28.2 29.8 28.1 29.8 28.1 29.8 C 28 29.7 27.9 29.7 27.7 29.6 C 27.6 29.6 27.5 29.5 27.4 29.5 C 27.3 29.4 27.2 29.4 27.2 29.3 C 27.1 29.2 27 29.1 27 29 C 26.9 28.9 26.9 28.7 26.9 28.6 C 26.9 28.6 26.9 28.6 26.9 28.6 C 26.9 28.2 27.1 27.9 27.4 27.7 C 27.6 27.4 28 27.3 28.5 27.3 C 29 27.3 29.6 27.5 30.1 27.8 C 30.1 27.8 29.8 28.3 29.8 28.3 C 29.3 28 28.9 27.9 28.4 27.9 C 28.2 27.9 28 27.9 27.8 28.1 C 27.6 28.2 27.6 28.3 27.6 28.5 C 27.6 28.5 27.6 28.5 27.6 28.5 C 27.6 28.6 27.6 28.7 27.6 28.8 C 27.7 28.8 27.7 28.9 27.8 28.9 C 27.8 29 27.9 29 28.1 29.1 C 28.2 29.1 28.3 29.2 28.4 29.2 C 28.4 29.2 28.6 29.3 28.7 29.3 C 28.9 29.4 29 29.4 29.1 29.5 C 29.3 29.5 29.4 29.6 29.5 29.6 C 29.7 29.7 29.8 29.8 29.9 29.9 C 29.9 29.9 30 30.1 30.1 30.2 C 30.1 30.3 30.2 30.4 30.2 30.6 C 30.2 30.6 30.2 30.6 30.2 30.6 C 30.2 31 30 31.4 29.7 31.6 C 29.4 31.9 29 32 28.6 32 Z M 35.2 31.1 C 34.7 31.7 34.1 32 33.4 32 C 32.7 32 32.2 31.8 31.8 31.3 C 31.3 30.9 31.1 30.3 31.1 29.6 C 31.1 29.6 31.1 29.6 31.1 29.6 C 31.1 29 31.3 28.4 31.7 28 C 32.2 27.5 32.7 27.3 33.3 27.3 C 33.9 27.3 34.4 27.5 34.8 28 C 35.2 28.4 35.4 29 35.4 29.7 C 35.4 29.8 35.4 29.8 35.4 29.9 C 35.4 29.9 31.8 29.9 31.8 29.9 C 31.9 30.4 32 30.7 32.3 31 C 32.6 31.3 33 31.4 33.4 31.4 C 33.9 31.4 34.4 31.2 34.8 30.8 C 34.81 30.77 35.2 31.1 35.2 31.1 C 35.2 31.1 35.22 31.14 35.2 31.1 Z M 31.8 29.4 C 31.8 29.4 34.7 29.4 34.7 29.4 C 34.7 29 34.5 28.6 34.3 28.3 C 34 28 33.7 27.9 33.3 27.9 C 32.9 27.9 32.6 28 32.3 28.3 C 32 28.6 31.9 28.9 31.8 29.4 Z M 36.6 31.9 L 36.6 27.4 L 37.2 27.4 C 37.2 27.4 37.22 28.56 37.2 28.6 C 37.4 28.2 37.6 27.9 38 27.6 C 38.3 27.4 38.6 27.3 39.1 27.3 C 39.06 27.31 39.1 28 39.1 28 C 39.1 28 39.01 28.03 39 28 C 38.5 28 38.1 28.2 37.7 28.6 C 37.4 28.9 37.2 29.4 37.2 30.1 C 37.22 30.09 37.2 31.9 37.2 31.9 L 36.6 31.9 Z M 42.4 31.8 C 42.2 31.9 41.9 32 41.6 32 C 41.2 32 40.9 31.9 40.7 31.7 C 40.4 31.4 40.3 31.1 40.3 30.7 C 40.31 30.69 40.3 28 40.3 28 L 39.7 28 L 39.7 27.4 L 40.3 27.4 L 40.3 26 L 41 26 L 41 27.4 L 42.4 27.4 L 42.4 28 L 41 28 C 41 28 40.98 30.61 41 30.6 C 41 31.1 41.2 31.4 41.7 31.4 C 42 31.4 42.2 31.3 42.4 31.2 C 42.39 31.2 42.4 31.8 42.4 31.8 C 42.4 31.8 42.39 31.77 42.4 31.8 Z M 43.6 26.4 L 43.6 25.7 L 44.4 25.7 L 44.4 26.4 L 43.6 26.4 Z M 43.7 31.9 L 43.7 27.4 L 44.3 27.4 L 44.3 31.9 L 43.7 31.9 Z M 46.1 31.9 L 46.1 28 L 45.5 28 L 45.5 27.4 L 46.1 27.4 C 46.1 27.4 46.13 27.01 46.1 27 C 46.1 26.5 46.3 26.1 46.5 25.8 C 46.8 25.6 47.1 25.5 47.5 25.5 C 47.8 25.5 48 25.5 48.2 25.6 C 48.2 25.6 48.2 26.2 48.2 26.2 C 48 26.1 47.7 26.1 47.6 26.1 C 47.1 26.1 46.8 26.4 46.8 27 C 46.79 27.04 46.8 27.4 46.8 27.4 L 48.2 27.4 L 48.2 28 L 46.8 28 L 46.8 31.9 L 46.1 31.9 Z M 49.1 31.9 L 49.1 27.4 L 49.8 27.4 L 49.8 31.9 L 49.1 31.9 Z M 49.1 26.4 L 49.1 25.7 L 49.9 25.7 L 49.9 26.4 L 49.1 26.4 Z M 51.4 31.9 L 51.4 25.5 L 52 25.5 L 52 29.9 L 54.5 27.4 L 55.3 27.4 L 53.4 29.3 L 55.4 31.9 L 54.6 31.9 L 52.9 29.8 L 52 30.7 L 52 31.9 L 51.4 31.9 Z M 59.2 31.2 C 58.8 31.7 58.3 32 57.6 32 C 57.1 32 56.7 31.9 56.4 31.6 C 56.1 31.4 55.9 31 55.9 30.6 C 55.9 30.6 55.9 30.6 55.9 30.6 C 55.9 30.1 56.1 29.7 56.4 29.5 C 56.8 29.2 57.2 29.1 57.8 29.1 C 58.3 29.1 58.7 29.2 59.2 29.3 C 59.2 29.3 59.2 29.1 59.2 29.1 C 59.2 28.7 59.1 28.4 58.8 28.2 C 58.6 28 58.3 27.9 57.9 27.9 C 57.4 27.9 56.9 28 56.5 28.2 C 56.5 28.2 56.3 27.7 56.3 27.7 C 56.8 27.5 57.4 27.3 57.9 27.3 C 58.6 27.3 59 27.5 59.4 27.8 C 59.7 28.1 59.8 28.6 59.8 29.1 C 59.83 29.14 59.8 31.9 59.8 31.9 L 59.2 31.9 L 59.2 31.2 C 59.2 31.2 59.19 31.21 59.2 31.2 Z M 57.7 31.4 C 58.1 31.4 58.5 31.3 58.8 31.1 C 59.1 30.9 59.2 30.6 59.2 30.2 C 59.2 30.2 59.2 29.8 59.2 29.8 C 58.7 29.7 58.3 29.6 57.9 29.6 C 57.5 29.6 57.1 29.7 56.9 29.9 C 56.7 30 56.6 30.3 56.6 30.5 C 56.6 30.5 56.6 30.6 56.6 30.6 C 56.6 30.8 56.7 31 56.9 31.2 C 57.1 31.4 57.4 31.4 57.7 31.4 Z M 61.3 31.9 L 61.3 25.5 L 62 25.5 L 62 31.9 L 61.3 31.9 Z M 63.6 31.9 L 63.6 27.4 L 64.3 27.4 L 64.3 31.9 L 63.6 31.9 Z M 68.4 31.9 L 68.4 25.5 L 69.1 25.5 L 69.1 29.9 L 71.5 27.4 L 72.4 27.4 L 70.5 29.3 L 72.4 31.9 L 71.6 31.9 L 70 29.8 L 69.1 30.7 L 69.1 31.9 L 68.4 31.9 Z M 76.3 31.2 C 75.9 31.7 75.3 32 74.6 32 C 74.2 32 73.8 31.9 73.5 31.6 C 73.1 31.4 73 31 73 30.6 C 73 30.6 73 30.6 73 30.6 C 73 30.1 73.1 29.7 73.5 29.5 C 73.8 29.2 74.3 29.1 74.9 29.1 C 75.3 29.1 75.8 29.2 76.3 29.3 C 76.3 29.3 76.3 29.1 76.3 29.1 C 76.3 28.7 76.2 28.4 75.9 28.2 C 75.7 28 75.4 27.9 74.9 27.9 C 74.5 27.9 74 28 73.6 28.2 C 73.6 28.2 73.4 27.7 73.4 27.7 C 73.9 27.5 74.4 27.3 75 27.3 C 75.6 27.3 76.1 27.5 76.4 27.8 C 76.8 28.1 76.9 28.6 76.9 29.1 C 76.91 29.14 76.9 31.9 76.9 31.9 L 76.3 31.9 L 76.3 31.2 C 76.3 31.2 76.27 31.21 76.3 31.2 Z M 74.8 31.4 C 75.2 31.4 75.6 31.3 75.8 31.1 C 76.1 30.9 76.3 30.6 76.3 30.2 C 76.3 30.2 76.3 29.8 76.3 29.8 C 75.8 29.7 75.4 29.6 75 29.6 C 74.5 29.6 74.2 29.7 74 29.9 C 73.8 30 73.6 30.3 73.6 30.5 C 73.6 30.5 73.6 30.6 73.6 30.6 C 73.6 30.8 73.8 31 74 31.2 C 74.2 31.4 74.5 31.4 74.8 31.4 Z M 80.1 31.1 L 81.5 27.4 L 82.2 27.4 C 82.2 27.4 80.35 32.03 80.4 32 C 80.2 32.5 80 32.8 79.7 33 C 79.5 33.2 79.2 33.3 78.9 33.3 C 78.5 33.3 78.2 33.2 77.9 33.1 C 77.9 33.1 78.1 32.5 78.1 32.5 C 78.3 32.7 78.6 32.7 78.8 32.7 C 79 32.7 79.2 32.6 79.3 32.5 C 79.5 32.4 79.6 32.2 79.8 31.9 C 79.75 31.87 77.7 27.4 77.7 27.4 L 78.4 27.4 L 80.1 31.1 Z M 83.4 31.9 L 83.4 27.4 L 84 27.4 L 84 31.9 L 83.4 31.9 Z M 85.6 31.9 L 85.6 27.4 L 86.3 27.4 C 86.3 27.4 86.26 28.17 86.3 28.2 C 86.6 27.6 87.1 27.3 87.8 27.3 C 88.3 27.3 88.8 27.5 89.1 27.8 C 89.4 28.1 89.5 28.6 89.5 29.1 C 89.52 29.09 89.5 31.9 89.5 31.9 L 88.8 31.9 C 88.8 31.9 88.85 29.26 88.8 29.3 C 88.8 28.8 88.7 28.5 88.5 28.3 C 88.3 28 88 27.9 87.6 27.9 C 87.2 27.9 86.9 28 86.6 28.3 C 86.4 28.6 86.3 28.9 86.3 29.3 C 86.26 29.31 86.3 31.9 86.3 31.9 L 85.6 31.9 Z M 96.5 31.2 C 96.1 31.7 95.6 32 94.9 32 C 94.4 32 94 31.9 93.7 31.6 C 93.4 31.4 93.2 31 93.2 30.6 C 93.2 30.6 93.2 30.6 93.2 30.6 C 93.2 30.1 93.4 29.7 93.7 29.5 C 94.1 29.2 94.6 29.1 95.1 29.1 C 95.6 29.1 96.1 29.2 96.5 29.3 C 96.5 29.3 96.5 29.1 96.5 29.1 C 96.5 28.7 96.4 28.4 96.2 28.2 C 95.9 28 95.6 27.9 95.2 27.9 C 94.7 27.9 94.3 28 93.8 28.2 C 93.8 28.2 93.6 27.7 93.6 27.7 C 94.1 27.5 94.7 27.3 95.2 27.3 C 95.9 27.3 96.4 27.5 96.7 27.8 C 97 28.1 97.2 28.6 97.2 29.1 C 97.16 29.14 97.2 31.9 97.2 31.9 L 96.5 31.9 L 96.5 31.2 C 96.5 31.2 96.52 31.21 96.5 31.2 Z M 95 31.4 C 95.4 31.4 95.8 31.3 96.1 31.1 C 96.4 30.9 96.5 30.6 96.5 30.2 C 96.5 30.2 96.5 29.8 96.5 29.8 C 96.1 29.7 95.6 29.6 95.2 29.6 C 94.8 29.6 94.5 29.7 94.2 29.9 C 94 30 93.9 30.3 93.9 30.5 C 93.9 30.5 93.9 30.6 93.9 30.6 C 93.9 30.8 94 31 94.2 31.2 C 94.4 31.4 94.7 31.4 95 31.4 Z M 102.3 32.7 C 101.9 33.1 101.3 33.3 100.6 33.3 C 99.8 33.3 99.1 33.1 98.5 32.7 C 98.5 32.7 98.8 32.1 98.8 32.1 C 99.4 32.5 100 32.7 100.6 32.7 C 101.1 32.7 101.5 32.6 101.8 32.3 C 102.1 32 102.2 31.6 102.2 31.1 C 102.2 31.1 102.2 30.6 102.2 30.6 C 101.7 31.2 101.1 31.5 100.4 31.5 C 99.9 31.5 99.4 31.3 99 30.9 C 98.5 30.6 98.3 30.1 98.3 29.4 C 98.3 29.4 98.3 29.4 98.3 29.4 C 98.3 28.8 98.5 28.3 99 27.9 C 99.4 27.5 99.9 27.3 100.4 27.3 C 101.1 27.3 101.7 27.6 102.2 28.2 C 102.2 28.2 102.2 27.4 102.2 27.4 L 102.9 27.4 C 102.9 27.4 102.87 31.1 102.9 31.1 C 102.9 31.8 102.7 32.3 102.3 32.7 C 102.3 32.7 102.3 32.7 102.3 32.7 Z M 100.6 30.9 C 101 30.9 101.4 30.8 101.7 30.5 C 102.1 30.2 102.2 29.9 102.2 29.4 C 102.2 29.4 102.2 29.4 102.2 29.4 C 102.2 29 102.1 28.6 101.7 28.3 C 101.4 28 101 27.9 100.6 27.9 C 100.1 27.9 99.8 28 99.5 28.3 C 99.2 28.6 99 28.9 99 29.4 C 99 29.4 99 29.4 99 29.4 C 99 29.9 99.2 30.2 99.5 30.5 C 99.8 30.8 100.1 30.9 100.6 30.9 Z M 102 25.6 C 102 26 101.9 26.2 101.7 26.4 C 101.4 26.6 101.1 26.7 100.8 26.7 C 100.4 26.7 100.1 26.6 99.9 26.4 C 99.6 26.2 99.5 26 99.5 25.6 C 99.5 25.6 100 25.6 100 25.6 C 100.1 26 100.3 26.2 100.8 26.2 C 101.2 26.2 101.4 26 101.6 25.6 C 101.55 25.64 102 25.6 102 25.6 C 102 25.6 102.04 25.64 102 25.6 Z M 107.3 31.2 C 106.9 31.7 106.4 32 105.7 32 C 105.2 32 104.9 31.9 104.5 31.6 C 104.2 31.4 104 31 104 30.6 C 104 30.6 104 30.6 104 30.6 C 104 30.1 104.2 29.7 104.5 29.5 C 104.9 29.2 105.4 29.1 105.9 29.1 C 106.4 29.1 106.9 29.2 107.3 29.3 C 107.3 29.3 107.3 29.1 107.3 29.1 C 107.3 28.7 107.2 28.4 107 28.2 C 106.7 28 106.4 27.9 106 27.9 C 105.5 27.9 105.1 28 104.6 28.2 C 104.6 28.2 104.4 27.7 104.4 27.7 C 104.9 27.5 105.5 27.3 106.1 27.3 C 106.7 27.3 107.2 27.5 107.5 27.8 C 107.8 28.1 108 28.6 108 29.1 C 107.97 29.14 108 31.9 108 31.9 L 107.3 31.9 L 107.3 31.2 C 107.3 31.2 107.33 31.21 107.3 31.2 Z M 105.8 31.4 C 106.3 31.4 106.6 31.3 106.9 31.1 C 107.2 30.9 107.3 30.6 107.3 30.2 C 107.3 30.2 107.3 29.8 107.3 29.8 C 106.9 29.7 106.4 29.6 106 29.6 C 105.6 29.6 105.3 29.7 105 29.9 C 104.8 30 104.7 30.3 104.7 30.5 C 104.7 30.5 104.7 30.6 104.7 30.6 C 104.7 30.8 104.8 31 105 31.2 C 105.3 31.4 105.5 31.4 105.8 31.4 Z M 113.3 31.1 C 112.7 31.7 112.1 32 111.4 32 C 110.8 32 110.2 31.8 109.8 31.3 C 109.3 30.8 109.1 30.3 109.1 29.7 C 109.1 29.7 109.1 29.6 109.1 29.6 C 109.1 29 109.3 28.4 109.8 28 C 110.2 27.5 110.8 27.3 111.4 27.3 C 112.1 27.3 112.7 27.6 113.2 28.1 C 113.2 28.1 112.8 28.6 112.8 28.6 C 112.3 28.1 111.9 27.9 111.4 27.9 C 111 27.9 110.6 28.1 110.3 28.4 C 110 28.7 109.8 29.1 109.8 29.6 C 109.8 29.6 109.8 29.6 109.8 29.6 C 109.8 30.1 110 30.5 110.3 30.9 C 110.6 31.2 111 31.4 111.5 31.4 C 112 31.4 112.4 31.2 112.8 30.7 C 112.83 30.72 113.3 31.1 113.3 31.1 C 113.3 31.1 113.26 31.12 113.3 31.1 Z M 114.4 31.9 L 114.4 27.4 L 115.1 27.4 L 115.1 31.9 L 114.4 31.9 Z M 116.6 31.9 L 116.6 27.4 L 117.3 27.4 C 117.3 27.4 117.32 28.17 117.3 28.2 C 117.7 27.6 118.2 27.3 118.9 27.3 C 119.4 27.3 119.8 27.5 120.1 27.8 C 120.4 28.1 120.6 28.6 120.6 29.1 C 120.58 29.09 120.6 31.9 120.6 31.9 L 119.9 31.9 C 119.9 31.9 119.91 29.26 119.9 29.3 C 119.9 28.8 119.8 28.5 119.6 28.3 C 119.4 28 119.1 27.9 118.7 27.9 C 118.3 27.9 118 28 117.7 28.3 C 117.4 28.6 117.3 28.9 117.3 29.3 C 117.32 29.31 117.3 31.9 117.3 31.9 L 116.6 31.9 Z M 125.6 31 C 125.1 31.6 124.6 32 123.9 32 C 123.3 32 122.8 31.8 122.4 31.3 C 122 30.9 121.7 30.4 121.7 29.6 C 121.7 29.6 121.7 29.6 121.7 29.6 C 121.7 28.9 122 28.4 122.4 27.9 C 122.8 27.5 123.3 27.3 123.9 27.3 C 124.6 27.3 125.2 27.6 125.6 28.2 C 125.61 28.25 125.6 25.5 125.6 25.5 L 126.3 25.5 L 126.3 31.9 L 125.6 31.9 L 125.6 31 C 125.6 31 125.61 30.98 125.6 31 Z M 124 31.4 C 124.4 31.4 124.8 31.2 125.2 30.9 C 125.5 30.6 125.6 30.1 125.6 29.6 C 125.6 29.6 125.6 29.6 125.6 29.6 C 125.6 29.1 125.5 28.7 125.2 28.4 C 124.8 28.1 124.4 27.9 124 27.9 C 123.6 27.9 123.2 28 122.9 28.4 C 122.6 28.7 122.4 29.1 122.4 29.6 C 122.4 29.6 122.4 29.6 122.4 29.6 C 122.4 30.2 122.6 30.6 122.9 30.9 C 123.2 31.2 123.6 31.4 124 31.4 Z M 130.7 31.2 C 130.3 31.7 129.8 32 129.1 32 C 128.7 32 128.3 31.9 127.9 31.6 C 127.6 31.4 127.4 31 127.4 30.6 C 127.4 30.6 127.4 30.6 127.4 30.6 C 127.4 30.1 127.6 29.7 128 29.5 C 128.3 29.2 128.8 29.1 129.4 29.1 C 129.8 29.1 130.3 29.2 130.7 29.3 C 130.7 29.3 130.7 29.1 130.7 29.1 C 130.7 28.7 130.6 28.4 130.4 28.2 C 130.2 28 129.8 27.9 129.4 27.9 C 129 27.9 128.5 28 128 28.2 C 128 28.2 127.8 27.7 127.8 27.7 C 128.4 27.5 128.9 27.3 129.5 27.3 C 130.1 27.3 130.6 27.5 130.9 27.8 C 131.2 28.1 131.4 28.6 131.4 29.1 C 131.39 29.14 131.4 31.9 131.4 31.9 L 130.7 31.9 L 130.7 31.2 C 130.7 31.2 130.74 31.21 130.7 31.2 Z M 129.2 31.4 C 129.7 31.4 130 31.3 130.3 31.1 C 130.6 30.9 130.8 30.6 130.8 30.2 C 130.8 30.2 130.8 29.8 130.8 29.8 C 130.3 29.7 129.9 29.6 129.4 29.6 C 129 29.6 128.7 29.7 128.5 29.9 C 128.2 30 128.1 30.3 128.1 30.5 C 128.1 30.5 128.1 30.6 128.1 30.6 C 128.1 30.8 128.2 31 128.4 31.2 C 128.7 31.4 128.9 31.4 129.2 31.4 Z M 132.8 31.9 L 132.8 27.4 L 133.5 27.4 C 133.5 27.4 133.48 28.17 133.5 28.2 C 133.8 27.6 134.4 27.3 135 27.3 C 135.6 27.3 136 27.5 136.3 27.8 C 136.6 28.1 136.7 28.6 136.7 29.1 C 136.74 29.09 136.7 31.9 136.7 31.9 L 136.1 31.9 C 136.1 31.9 136.07 29.26 136.1 29.3 C 136.1 28.8 136 28.5 135.7 28.3 C 135.5 28 135.2 27.9 134.8 27.9 C 134.4 27.9 134.1 28 133.9 28.3 C 133.6 28.6 133.5 28.9 133.5 29.3 C 133.48 29.31 133.5 31.9 133.5 31.9 L 132.8 31.9 Z M 143 26.7 L 143 25.9 L 143.8 25.9 L 143.8 26.7 L 143 26.7 Z M 141.5 26.7 L 141.5 25.9 L 142.3 25.9 L 142.3 26.7 L 141.5 26.7 Z M 144 31.1 C 143.6 31.7 143.1 32 142.4 32 C 141.9 32 141.5 31.8 141.2 31.5 C 140.9 31.2 140.7 30.7 140.7 30.2 C 140.71 30.18 140.7 27.4 140.7 27.4 L 141.4 27.4 C 141.4 27.4 141.38 30.01 141.4 30 C 141.4 30.4 141.5 30.8 141.7 31 C 141.9 31.3 142.2 31.4 142.6 31.4 C 143 31.4 143.3 31.2 143.6 31 C 143.8 30.7 144 30.4 144 30 C 143.97 29.96 144 27.4 144 27.4 L 144.6 27.4 L 144.6 31.9 L 144 31.9 L 144 31.1 C 144 31.1 143.97 31.1 144 31.1 Z M 146.1 31.9 L 146.1 27.4 L 146.8 27.4 C 146.8 27.4 146.8 28.56 146.8 28.6 C 147 28.2 147.2 27.9 147.5 27.6 C 147.9 27.4 148.2 27.3 148.6 27.3 C 148.64 27.31 148.6 28 148.6 28 C 148.6 28 148.59 28.03 148.6 28 C 148.1 28 147.6 28.2 147.3 28.6 C 147 28.9 146.8 29.4 146.8 30.1 C 146.8 30.09 146.8 31.9 146.8 31.9 L 146.1 31.9 Z M 153.3 31.1 C 152.8 31.7 152.2 32 151.4 32 C 150.8 32 150.3 31.8 149.8 31.3 C 149.4 30.9 149.2 30.3 149.2 29.6 C 149.2 29.6 149.2 29.6 149.2 29.6 C 149.2 29 149.4 28.4 149.8 28 C 150.2 27.5 150.7 27.3 151.3 27.3 C 152 27.3 152.5 27.5 152.9 28 C 153.3 28.4 153.4 29 153.4 29.7 C 153.4 29.8 153.4 29.8 153.4 29.9 C 153.4 29.9 149.9 29.9 149.9 29.9 C 149.9 30.4 150.1 30.7 150.4 31 C 150.7 31.3 151 31.4 151.4 31.4 C 152 31.4 152.5 31.2 152.9 30.8 C 152.86 30.77 153.3 31.1 153.3 31.1 C 153.3 31.1 153.28 31.14 153.3 31.1 Z M 149.9 29.4 C 149.9 29.4 152.8 29.4 152.8 29.4 C 152.7 29 152.6 28.6 152.3 28.3 C 152.1 28 151.8 27.9 151.3 27.9 C 150.9 27.9 150.6 28 150.3 28.3 C 150.1 28.6 149.9 28.9 149.9 29.4 Z M 156.9 31.8 C 156.7 31.9 156.4 32 156.1 32 C 155.7 32 155.4 31.9 155.2 31.7 C 155 31.4 154.8 31.1 154.8 30.7 C 154.85 30.69 154.8 28 154.8 28 L 154.2 28 L 154.2 27.4 L 154.8 27.4 L 154.8 26 L 155.5 26 L 155.5 27.4 L 156.9 27.4 L 156.9 28 L 155.5 28 C 155.5 28 155.52 30.61 155.5 30.6 C 155.5 31.1 155.8 31.4 156.3 31.4 C 156.5 31.4 156.7 31.3 156.9 31.2 C 156.93 31.2 156.9 31.8 156.9 31.8 C 156.9 31.8 156.93 31.77 156.9 31.8 Z M 158.1 26.4 L 158.1 25.7 L 158.9 25.7 L 158.9 26.4 L 158.1 26.4 Z M 158.2 31.9 L 158.2 27.4 L 158.9 27.4 L 158.9 31.9 L 158.2 31.9 Z M 160.5 31.9 L 160.5 25.5 L 161.1 25.5 L 161.1 31.9 L 160.5 31.9 Z M 162.7 31.9 L 162.7 27.4 L 163.4 27.4 C 163.4 27.4 163.37 28.14 163.4 28.1 C 163.5 27.9 163.7 27.7 164 27.5 C 164.2 27.4 164.5 27.3 164.8 27.3 C 165.5 27.3 166 27.6 166.3 28.2 C 166.7 27.6 167.2 27.3 167.8 27.3 C 168.4 27.3 168.8 27.5 169.1 27.8 C 169.4 28.1 169.5 28.5 169.5 29.1 C 169.52 29.1 169.5 31.9 169.5 31.9 L 168.8 31.9 C 168.8 31.9 168.85 29.26 168.8 29.3 C 168.8 28.8 168.7 28.5 168.5 28.3 C 168.3 28 168 27.9 167.7 27.9 C 167.3 27.9 167 28 166.8 28.3 C 166.6 28.5 166.4 28.9 166.4 29.3 C 166.44 29.29 166.4 31.9 166.4 31.9 L 165.8 31.9 C 165.8 31.9 165.78 29.24 165.8 29.2 C 165.8 28.8 165.7 28.5 165.5 28.3 C 165.3 28 165 27.9 164.6 27.9 C 164.3 27.9 164 28 163.7 28.3 C 163.5 28.6 163.4 28.9 163.4 29.3 C 163.37 29.32 163.4 31.9 163.4 31.9 L 162.7 31.9 Z M 171 26.4 L 171 25.7 L 171.7 25.7 L 171.7 26.4 L 171 26.4 Z M 171 31.9 L 171 27.4 L 171.7 27.4 L 171.7 31.9 L 171 31.9 Z M 174.3 33.2 L 173.7 32.9 C 173.7 32.9 174.33 31.94 174.3 31.9 C 173.8 31.9 173.3 31.7 172.9 31.3 C 172.9 31.3 173.2 30.8 173.2 30.8 C 173.7 31.2 174.2 31.4 174.8 31.4 C 175 31.4 175.3 31.3 175.4 31.2 C 175.6 31.1 175.7 30.9 175.7 30.7 C 175.7 30.7 175.7 30.7 175.7 30.7 C 175.7 30.5 175.6 30.3 175.4 30.2 C 175.2 30.1 174.9 30 174.6 29.9 C 174.4 29.8 174.3 29.8 174.2 29.8 C 174.1 29.7 174 29.7 173.9 29.6 C 173.7 29.6 173.6 29.5 173.5 29.5 C 173.5 29.4 173.4 29.4 173.3 29.3 C 173.2 29.2 173.2 29.1 173.1 29 C 173.1 28.9 173.1 28.7 173.1 28.6 C 173.1 28.6 173.1 28.6 173.1 28.6 C 173.1 28.2 173.2 27.9 173.5 27.7 C 173.8 27.4 174.2 27.3 174.6 27.3 C 175.2 27.3 175.7 27.5 176.2 27.8 C 176.2 27.8 175.9 28.3 175.9 28.3 C 175.5 28 175 27.9 174.6 27.9 C 174.3 27.9 174.1 27.9 174 28.1 C 173.8 28.2 173.7 28.3 173.7 28.5 C 173.7 28.5 173.7 28.5 173.7 28.5 C 173.7 28.6 173.7 28.7 173.8 28.8 C 173.8 28.8 173.9 28.9 173.9 28.9 C 174 29 174.1 29 174.2 29.1 C 174.3 29.1 174.4 29.2 174.5 29.2 C 174.6 29.2 174.7 29.3 174.9 29.3 C 175 29.4 175.2 29.4 175.3 29.5 C 175.4 29.5 175.5 29.6 175.7 29.6 C 175.8 29.7 175.9 29.8 176 29.9 C 176.1 29.9 176.2 30.1 176.2 30.2 C 176.3 30.3 176.3 30.4 176.3 30.6 C 176.3 30.6 176.3 30.6 176.3 30.6 C 176.3 31 176.2 31.3 175.9 31.6 C 175.7 31.8 175.3 31.9 174.9 32 C 174.89 31.96 174.3 33.2 174.3 33.2 Z M 177.3 32.9 C 177.3 32.9 177.2 32.6 177.2 32.6 C 177.6 32.5 177.8 32.2 177.8 31.9 C 177.79 31.88 177.5 31.9 177.5 31.9 L 177.5 31 L 178.3 31 C 178.3 31 178.28 31.75 178.3 31.8 C 178.3 32.1 178.2 32.4 178.1 32.6 C 177.9 32.7 177.7 32.9 177.3 32.9 Z " stroke="none" fill="#fff"/>  </g>  <g id="Polygon369208">    <path d="M 0.8 7.7 L 0.8 1 L 5.9 1 L 5.9 2.3 L 2.3 2.3 L 2.3 3.7 L 5.5 3.7 L 5.5 5 L 2.3 5 L 2.3 6.4 L 6 6.4 L 6 7.7 L 0.8 7.7 Z M 10 7.5 C 9.7 7.7 9.3 7.8 8.9 7.8 C 8.4 7.8 8 7.7 7.8 7.5 C 7.5 7.2 7.4 6.8 7.4 6.3 C 7.37 6.26 7.4 3.8 7.4 3.8 L 6.8 3.8 L 6.8 2.6 L 7.4 2.6 L 7.4 1.2 L 8.8 1.2 L 8.8 2.6 L 10.1 2.6 L 10.1 3.8 L 8.8 3.8 C 8.8 3.8 8.84 6.02 8.8 6 C 8.8 6.4 9 6.5 9.3 6.5 C 9.6 6.5 9.8 6.5 10 6.3 C 10.04 6.34 10 7.5 10 7.5 C 10 7.5 10.04 7.52 10 7.5 Z M 11.1 7.7 L 11.1 0.7 L 12.6 0.7 L 12.6 4.4 L 14.3 2.6 L 16.1 2.6 L 14.1 4.6 L 16.2 7.7 L 14.5 7.7 L 13.1 5.6 L 12.6 6.2 L 12.6 7.7 L 11.1 7.7 Z M 16.9 2 L 16.9 0.7 L 18.4 0.7 L 18.4 2 L 16.9 2 Z M 16.9 7.7 L 16.9 2.6 L 18.4 2.6 L 18.4 7.7 L 16.9 7.7 Z M 19.8 7.7 L 19.8 0.7 L 21.3 0.7 L 21.3 7.7 L 19.8 7.7 Z M 27.3 6.9 C 26.7 7.5 26 7.8 25.1 7.8 C 24.4 7.8 23.7 7.6 23.2 7.1 C 22.7 6.6 22.4 6 22.4 5.2 C 22.4 5.2 22.4 5.1 22.4 5.1 C 22.4 4.4 22.7 3.8 23.2 3.2 C 23.7 2.7 24.3 2.5 25 2.5 C 25.8 2.5 26.4 2.7 26.9 3.3 C 27.3 3.8 27.5 4.5 27.5 5.3 C 27.5 5.3 27.5 5.5 27.5 5.7 C 27.5 5.7 23.9 5.7 23.9 5.7 C 24 6 24.1 6.2 24.3 6.4 C 24.6 6.6 24.8 6.7 25.2 6.7 C 25.6 6.7 26 6.5 26.4 6.1 C 26.42 6.14 27.3 6.9 27.3 6.9 C 27.3 6.9 27.26 6.88 27.3 6.9 Z M 23.9 4.7 C 23.9 4.7 26.1 4.7 26.1 4.7 C 26.1 4.4 25.9 4.1 25.7 3.9 C 25.6 3.7 25.3 3.6 25 3.6 C 24.7 3.6 24.5 3.7 24.3 3.9 C 24.1 4.1 23.9 4.4 23.9 4.7 Z M 30.6 6.1 L 31.8 2.6 L 33.3 2.6 C 33.3 2.6 31.31 7.85 31.3 7.9 C 31.1 8.4 30.9 8.8 30.6 9 C 30.4 9.2 30 9.3 29.6 9.3 C 29.1 9.3 28.7 9.2 28.3 8.9 C 28.3 8.9 28.8 7.9 28.8 7.9 C 29 8 29.2 8.1 29.4 8.1 C 29.6 8.1 29.7 8.1 29.7 8 C 29.8 8 29.9 7.9 29.9 7.7 C 29.94 7.75 27.9 2.6 27.9 2.6 L 29.5 2.6 L 30.6 6.1 Z M 34.2 2 L 34.2 0.7 L 35.7 0.7 L 35.7 2 L 34.2 2 Z M 34.2 7.7 L 34.2 2.6 L 35.7 2.6 L 35.7 7.7 L 34.2 7.7 Z M 39.5 7.8 C 38.8 7.8 38.1 7.6 37.6 7.1 C 37.1 6.5 36.8 5.9 36.8 5.2 C 36.8 5.2 36.8 5.1 36.8 5.1 C 36.8 4.4 37.1 3.8 37.6 3.2 C 38.1 2.7 38.8 2.5 39.6 2.5 C 40.4 2.5 41.1 2.7 41.6 3.3 C 41.6 3.3 40.7 4.3 40.7 4.3 C 40.5 4.1 40.4 4 40.2 3.9 C 40 3.8 39.8 3.7 39.5 3.7 C 39.2 3.7 38.9 3.9 38.6 4.1 C 38.4 4.4 38.3 4.7 38.3 5.1 C 38.3 5.1 38.3 5.1 38.3 5.1 C 38.3 5.6 38.4 5.9 38.7 6.2 C 38.9 6.4 39.2 6.6 39.6 6.6 C 40 6.6 40.4 6.4 40.8 6 C 40.8 6 41.7 6.9 41.7 6.9 C 41.4 7.2 41.1 7.4 40.7 7.6 C 40.4 7.8 40 7.8 39.5 7.8 Z M 42.6 2 L 42.6 0.7 L 44.2 0.7 L 44.2 2 L 42.6 2 Z M 42.7 7.7 L 42.7 2.6 L 44.1 2.6 L 44.1 7.7 L 42.7 7.7 Z M 50.2 7.8 C 49.4 7.8 48.7 7.6 48 7 C 48 7 48.6 6.1 48.6 6.1 C 49.2 6.5 49.8 6.7 50.3 6.7 C 50.7 6.7 50.9 6.6 50.9 6.3 C 50.9 6.3 50.9 6.3 50.9 6.3 C 50.9 6.2 50.9 6.2 50.9 6.2 C 50.9 6.1 50.8 6.1 50.8 6.1 C 50.7 6 50.7 6 50.7 6 C 50.6 6 50.6 5.9 50.5 5.9 C 50.4 5.9 50.3 5.9 50.3 5.8 C 50.2 5.8 50.2 5.8 50.1 5.8 C 50 5.7 49.9 5.7 49.8 5.7 C 49.6 5.6 49.4 5.6 49.3 5.5 C 49.1 5.4 48.9 5.3 48.8 5.2 C 48.6 5.1 48.5 5 48.4 4.8 C 48.3 4.6 48.3 4.4 48.3 4.1 C 48.3 4.1 48.3 4.1 48.3 4.1 C 48.3 3.6 48.5 3.2 48.8 2.9 C 49.2 2.6 49.6 2.5 50.2 2.5 C 50.9 2.5 51.5 2.7 52.1 3.1 C 52.1 3.1 51.5 4.1 51.5 4.1 C 51 3.8 50.5 3.6 50.1 3.6 C 50 3.6 49.8 3.6 49.7 3.7 C 49.6 3.8 49.6 3.9 49.6 4 C 49.6 4 49.6 4 49.6 4 C 49.6 4.1 49.7 4.2 49.9 4.3 C 50 4.4 50.3 4.5 50.7 4.6 C 50.9 4.7 51.1 4.7 51.2 4.8 C 51.4 4.9 51.5 5 51.7 5.1 C 51.9 5.2 52 5.4 52.1 5.5 C 52.2 5.7 52.2 5.9 52.2 6.1 C 52.2 6.1 52.2 6.2 52.2 6.2 C 52.2 6.7 52 7.1 51.7 7.4 C 51.3 7.7 50.8 7.8 50.2 7.8 Z M 56.3 7.2 C 55.9 7.6 55.4 7.8 54.7 7.8 C 54.2 7.8 53.8 7.7 53.5 7.4 C 53.1 7.1 53 6.7 53 6.2 C 53 6.2 53 6.2 53 6.2 C 53 5.7 53.2 5.3 53.5 5 C 53.9 4.7 54.4 4.6 55.1 4.6 C 55.5 4.6 55.9 4.6 56.3 4.8 C 56.3 4.8 56.3 4.7 56.3 4.7 C 56.3 4.1 55.9 3.7 55.2 3.7 C 54.7 3.7 54.3 3.8 53.8 4 C 53.8 4 53.4 2.9 53.4 2.9 C 54.1 2.6 54.7 2.5 55.4 2.5 C 56.2 2.5 56.8 2.7 57.2 3.1 C 57.5 3.4 57.7 4 57.7 4.7 C 57.73 4.72 57.7 7.7 57.7 7.7 L 56.3 7.7 L 56.3 7.2 C 56.3 7.2 56.31 7.17 56.3 7.2 Z M 55.2 6.8 C 55.5 6.8 55.8 6.7 56 6.6 C 56.2 6.4 56.3 6.2 56.3 5.9 C 56.3 5.9 56.3 5.6 56.3 5.6 C 56 5.5 55.7 5.4 55.4 5.4 C 55.1 5.4 54.8 5.5 54.7 5.6 C 54.5 5.8 54.4 5.9 54.4 6.2 C 54.4 6.2 54.4 6.2 54.4 6.2 C 54.4 6.4 54.5 6.5 54.6 6.6 C 54.8 6.8 54.9 6.8 55.2 6.8 Z M 62.7 7 C 62.3 7.5 61.8 7.8 61.1 7.8 C 60.5 7.8 59.9 7.6 59.5 7.1 C 59 6.6 58.8 6 58.8 5.1 C 58.8 5.1 58.8 5.1 58.8 5.1 C 58.8 4.3 59 3.7 59.5 3.2 C 59.9 2.7 60.5 2.5 61.1 2.5 C 61.8 2.5 62.3 2.7 62.7 3.2 C 62.73 3.23 62.7 0.7 62.7 0.7 L 64.2 0.7 L 64.2 7.7 L 62.7 7.7 L 62.7 7 C 62.7 7 62.73 6.99 62.7 7 Z M 60.2 5.1 C 60.2 5.6 60.4 5.9 60.6 6.2 C 60.8 6.4 61.1 6.6 61.5 6.6 C 61.8 6.6 62.1 6.4 62.4 6.2 C 62.6 5.9 62.8 5.6 62.8 5.1 C 62.8 5.1 62.8 5.1 62.8 5.1 C 62.8 4.7 62.6 4.4 62.4 4.1 C 62.1 3.8 61.8 3.7 61.5 3.7 C 61.1 3.7 60.8 3.8 60.6 4.1 C 60.4 4.4 60.2 4.7 60.2 5.1 C 60.23 5.13 60.2 5.1 60.2 5.1 C 60.2 5.1 60.23 5.15 60.2 5.1 Z M 70.1 6.9 C 69.6 7.5 68.9 7.8 68 7.8 C 67.2 7.8 66.5 7.6 66 7.1 C 65.5 6.6 65.3 6 65.3 5.2 C 65.3 5.2 65.3 5.1 65.3 5.1 C 65.3 4.4 65.5 3.8 66 3.2 C 66.5 2.7 67.1 2.5 67.8 2.5 C 68.6 2.5 69.3 2.7 69.7 3.3 C 70.1 3.8 70.3 4.5 70.3 5.3 C 70.3 5.3 70.3 5.5 70.3 5.7 C 70.3 5.7 66.7 5.7 66.7 5.7 C 66.8 6 66.9 6.2 67.2 6.4 C 67.4 6.6 67.7 6.7 68 6.7 C 68.4 6.7 68.9 6.5 69.2 6.1 C 69.24 6.14 70.1 6.9 70.1 6.9 C 70.1 6.9 70.08 6.88 70.1 6.9 Z M 66.7 4.7 C 66.7 4.7 68.9 4.7 68.9 4.7 C 68.9 4.4 68.8 4.1 68.6 3.9 C 68.4 3.7 68.1 3.6 67.8 3.6 C 67.5 3.6 67.3 3.7 67.1 3.9 C 66.9 4.1 66.8 4.4 66.7 4.7 Z M 71.5 7.7 L 71.5 0.7 L 73 0.7 L 73 7.7 L 71.5 7.7 Z M 74.4 2 L 74.4 0.7 L 75.9 0.7 L 75.9 2 L 74.4 2 Z M 74.4 7.7 L 74.4 2.6 L 75.9 2.6 L 75.9 7.7 L 74.4 7.7 Z M 77.3 7.7 L 77.3 0.7 L 78.7 0.7 L 78.7 4.4 L 80.5 2.6 L 82.2 2.6 L 80.2 4.6 L 82.3 7.7 L 80.6 7.7 L 79.3 5.6 L 78.7 6.2 L 78.7 7.7 L 77.3 7.7 Z " stroke="none" fill="#fff"/>  </g></svg>