<?xml version="1.0" standalone="no"?><!DOCTYPE svg PUBLIC "-//W3C//DTD SVG 1.1//EN" "http://www.w3.org/Graphics/SVG/1.1/DTD/svg11.dtd"><svg xmlns="http://www.w3.org/2000/svg" version="1.1" width="93px" height="80.4px" viewBox="0 -3 93 80.4" style="top:-3px">  <desc>Sepet – INU r n Kodu: ZD 10552 Renk: Taupe Toz boyal elik D 40,6 cm, H 41,1 cm Tasar m: Neu Studio</desc>  <defs/>  <g id="Polygon357229">    <path d="M 2 59.6 L 2 55.2 L 0.3 55.2 L 0.3 54.7 L 4.2 54.7 L 4.2 55.2 L 2.5 55.2 L 2.5 59.6 L 2 59.6 Z M 6.6 59.1 C 6.3 59.5 5.9 59.7 5.3 59.7 C 4.9 59.7 4.6 59.6 4.4 59.4 C 4.1 59.2 4 58.9 4 58.5 C 4 58.5 4 58.5 4 58.5 C 4 58.2 4.1 57.9 4.4 57.7 C 4.7 57.5 5 57.4 5.5 57.4 C 5.9 57.4 6.2 57.4 6.6 57.5 C 6.6 57.5 6.6 57.4 6.6 57.4 C 6.6 57.1 6.5 56.8 6.3 56.7 C 6.1 56.5 5.9 56.4 5.5 56.4 C 5.2 56.4 4.8 56.5 4.4 56.7 C 4.4 56.7 4.3 56.2 4.3 56.2 C 4.7 56 5.1 55.9 5.6 55.9 C 6.1 55.9 6.5 56.1 6.8 56.3 C 7 56.6 7.1 56.9 7.1 57.4 C 7.13 57.39 7.1 59.6 7.1 59.6 L 6.6 59.6 L 6.6 59.1 C 6.6 59.1 6.62 59.05 6.6 59.1 Z M 5.4 59.2 C 5.8 59.2 6 59.2 6.3 59 C 6.5 58.8 6.6 58.6 6.6 58.3 C 6.6 58.3 6.6 57.9 6.6 57.9 C 6.3 57.8 5.9 57.8 5.6 57.8 C 5.2 57.8 5 57.8 4.8 58 C 4.6 58.1 4.5 58.3 4.5 58.5 C 4.5 58.5 4.5 58.5 4.5 58.5 C 4.5 58.7 4.6 58.9 4.8 59.1 C 4.9 59.2 5.2 59.2 5.4 59.2 Z M 9.5 59.7 C 8.9 59.7 8.4 59.5 8 59.1 C 8 59.1 8.3 58.8 8.3 58.8 C 8.7 59.1 9.1 59.2 9.5 59.2 C 9.7 59.2 9.9 59.2 10 59.1 C 10.2 59 10.3 58.8 10.3 58.6 C 10.3 58.6 10.3 58.6 10.3 58.6 C 10.3 58.5 10.2 58.3 10 58.2 C 9.9 58.2 9.6 58.1 9.4 58 C 9.2 58 9.1 57.9 9.1 57.9 C 9 57.9 8.9 57.8 8.8 57.8 C 8.7 57.8 8.6 57.7 8.5 57.7 C 8.5 57.6 8.4 57.6 8.3 57.5 C 8.3 57.4 8.2 57.4 8.2 57.3 C 8.2 57.2 8.2 57.1 8.2 57 C 8.2 57 8.2 57 8.2 57 C 8.2 56.6 8.3 56.4 8.5 56.2 C 8.7 56 9 55.9 9.4 55.9 C 9.9 55.9 10.3 56.1 10.7 56.3 C 10.7 56.3 10.4 56.7 10.4 56.7 C 10.1 56.5 9.7 56.4 9.4 56.4 C 9.2 56.4 9 56.4 8.9 56.5 C 8.7 56.6 8.7 56.7 8.7 56.9 C 8.7 56.9 8.7 56.9 8.7 56.9 C 8.7 57 8.7 57 8.7 57.1 C 8.8 57.1 8.8 57.2 8.9 57.2 C 8.9 57.3 9 57.3 9.1 57.4 C 9.2 57.4 9.3 57.4 9.3 57.4 C 9.4 57.5 9.5 57.5 9.6 57.5 C 9.7 57.6 9.9 57.6 9.9 57.6 C 10 57.7 10.1 57.7 10.3 57.8 C 10.4 57.8 10.5 57.9 10.5 58 C 10.6 58 10.6 58.1 10.7 58.2 C 10.7 58.3 10.8 58.4 10.8 58.6 C 10.8 58.6 10.8 58.6 10.8 58.6 C 10.8 58.9 10.6 59.2 10.4 59.4 C 10.2 59.6 9.9 59.7 9.5 59.7 Z M 14.2 59.1 C 13.8 59.5 13.4 59.7 12.8 59.7 C 12.5 59.7 12.2 59.6 11.9 59.4 C 11.6 59.2 11.5 58.9 11.5 58.5 C 11.5 58.5 11.5 58.5 11.5 58.5 C 11.5 58.2 11.6 57.9 11.9 57.7 C 12.2 57.5 12.6 57.4 13 57.4 C 13.4 57.4 13.8 57.4 14.2 57.5 C 14.2 57.5 14.2 57.4 14.2 57.4 C 14.2 57.1 14.1 56.8 13.9 56.7 C 13.7 56.5 13.4 56.4 13.1 56.4 C 12.7 56.4 12.3 56.5 12 56.7 C 12 56.7 11.8 56.2 11.8 56.2 C 12.2 56 12.7 55.9 13.1 55.9 C 13.6 55.9 14 56.1 14.3 56.3 C 14.5 56.6 14.7 56.9 14.7 57.4 C 14.67 57.39 14.7 59.6 14.7 59.6 L 14.2 59.6 L 14.2 59.1 C 14.2 59.1 14.15 59.05 14.2 59.1 Z M 12.9 59.2 C 13.3 59.2 13.6 59.2 13.8 59 C 14 58.8 14.2 58.6 14.2 58.3 C 14.2 58.3 14.2 57.9 14.2 57.9 C 13.8 57.8 13.4 57.8 13.1 57.8 C 12.8 57.8 12.5 57.8 12.3 58 C 12.1 58.1 12 58.3 12 58.5 C 12 58.5 12 58.5 12 58.5 C 12 58.7 12.1 58.9 12.3 59.1 C 12.5 59.2 12.7 59.2 12.9 59.2 Z M 15.8 59.6 L 15.8 56 L 16.4 56 C 16.4 56 16.36 56.93 16.4 56.9 C 16.5 56.6 16.7 56.4 17 56.2 C 17.2 56 17.5 55.9 17.8 55.9 C 17.84 55.92 17.8 56.5 17.8 56.5 C 17.8 56.5 17.79 56.5 17.8 56.5 C 17.4 56.5 17 56.6 16.8 56.9 C 16.5 57.2 16.4 57.6 16.4 58.2 C 16.36 58.16 16.4 59.6 16.4 59.6 L 15.8 59.6 Z M 18.7 59.6 L 18.7 56 L 19.2 56 L 19.2 59.6 L 18.7 59.6 Z M 20.5 59.6 L 20.5 56 L 21 56 C 21 56 21.03 56.59 21 56.6 C 21.2 56.4 21.3 56.2 21.5 56.1 C 21.7 56 21.9 55.9 22.2 55.9 C 22.7 55.9 23.1 56.1 23.4 56.6 C 23.7 56.1 24.1 55.9 24.6 55.9 C 25.1 55.9 25.4 56 25.6 56.3 C 25.9 56.6 26 56.9 26 57.4 C 25.98 57.36 26 59.6 26 59.6 L 25.4 59.6 C 25.4 59.6 25.44 57.49 25.4 57.5 C 25.4 57.1 25.4 56.9 25.2 56.7 C 25 56.5 24.8 56.4 24.5 56.4 C 24.2 56.4 24 56.5 23.8 56.7 C 23.6 56.9 23.5 57.2 23.5 57.5 C 23.51 57.51 23.5 59.6 23.5 59.6 L 23 59.6 C 23 59.6 22.97 57.47 23 57.5 C 23 57.1 22.9 56.9 22.7 56.7 C 22.6 56.5 22.3 56.4 22 56.4 C 21.8 56.4 21.5 56.5 21.3 56.7 C 21.1 56.9 21 57.2 21 57.5 C 21.03 57.53 21 59.6 21 59.6 L 20.5 59.6 Z M 27.1 56.7 L 27.1 56 L 27.7 56 L 27.7 56.7 L 27.1 56.7 Z M 27.1 59.6 L 27.1 58.9 L 27.7 58.9 L 27.7 59.6 L 27.1 59.6 Z M 31.1 59.6 L 31.1 54.7 L 31.6 54.7 L 34.7 58.6 L 34.7 54.7 L 35.2 54.7 L 35.2 59.6 L 34.8 59.6 L 31.6 55.6 L 31.6 59.6 L 31.1 59.6 Z M 39.6 59 C 39.2 59.5 38.7 59.7 38.1 59.7 C 37.6 59.7 37.2 59.5 36.8 59.2 C 36.5 58.8 36.3 58.4 36.3 57.8 C 36.3 57.8 36.3 57.8 36.3 57.8 C 36.3 57.3 36.5 56.8 36.8 56.4 C 37.1 56.1 37.6 55.9 38.1 55.9 C 38.6 55.9 39 56.1 39.3 56.4 C 39.6 56.8 39.7 57.3 39.7 57.8 C 39.7 57.9 39.7 57.9 39.7 58 C 39.7 58 36.9 58 36.9 58 C 36.9 58.4 37 58.7 37.3 58.9 C 37.5 59.1 37.8 59.2 38.1 59.2 C 38.6 59.2 38.9 59 39.3 58.7 C 39.28 58.7 39.6 59 39.6 59 C 39.6 59 39.61 59 39.6 59 Z M 36.9 57.6 C 36.9 57.6 39.2 57.6 39.2 57.6 C 39.2 57.2 39.1 56.9 38.9 56.7 C 38.7 56.5 38.4 56.4 38 56.4 C 37.7 56.4 37.5 56.5 37.2 56.7 C 37 56.9 36.9 57.2 36.9 57.6 Z M 43.3 59 C 43 59.4 42.5 59.7 42 59.7 C 41.6 59.7 41.2 59.5 41 59.3 C 40.8 59 40.6 58.7 40.6 58.2 C 40.63 58.23 40.6 56 40.6 56 L 41.2 56 C 41.2 56 41.17 58.09 41.2 58.1 C 41.2 58.4 41.3 58.7 41.4 58.9 C 41.6 59.1 41.9 59.2 42.2 59.2 C 42.5 59.2 42.7 59.1 42.9 58.9 C 43.1 58.7 43.3 58.4 43.3 58.1 C 43.25 58.05 43.3 56 43.3 56 L 43.8 56 L 43.8 59.6 L 43.3 59.6 L 43.3 59 C 43.3 59 43.25 58.97 43.3 59 Z M 48.9 59.7 C 48.1 59.7 47.4 59.4 46.9 58.9 C 46.9 58.9 47.2 58.5 47.2 58.5 C 47.5 58.7 47.7 58.9 48 59 C 48.3 59.1 48.6 59.2 48.9 59.2 C 49.2 59.2 49.5 59.1 49.7 58.9 C 49.9 58.8 50 58.6 50 58.3 C 50 58.3 50 58.3 50 58.3 C 50 58.1 49.9 57.9 49.7 57.8 C 49.5 57.6 49.2 57.5 48.7 57.4 C 48.1 57.3 47.7 57.1 47.4 56.9 C 47.2 56.7 47.1 56.4 47.1 56 C 47.1 56 47.1 56 47.1 56 C 47.1 55.6 47.2 55.3 47.5 55 C 47.8 54.8 48.2 54.6 48.7 54.6 C 49 54.6 49.3 54.7 49.6 54.8 C 49.9 54.9 50.1 55 50.4 55.2 C 50.4 55.2 50.1 55.7 50.1 55.7 C 49.6 55.3 49.2 55.1 48.7 55.1 C 48.3 55.1 48.1 55.2 47.9 55.4 C 47.7 55.5 47.6 55.7 47.6 55.9 C 47.6 55.9 47.6 55.9 47.6 55.9 C 47.6 56.2 47.7 56.4 47.9 56.5 C 48.1 56.7 48.4 56.8 48.9 56.9 C 49.5 57 49.9 57.2 50.2 57.4 C 50.4 57.6 50.5 57.9 50.5 58.3 C 50.5 58.3 50.5 58.3 50.5 58.3 C 50.5 58.7 50.4 59 50.1 59.3 C 49.8 59.5 49.4 59.7 48.9 59.7 Z M 53.4 59.5 C 53.2 59.6 53 59.7 52.8 59.7 C 52.4 59.7 52.2 59.6 52 59.4 C 51.8 59.2 51.7 59 51.7 58.6 C 51.73 58.64 51.7 56.5 51.7 56.5 L 51.2 56.5 L 51.2 56 L 51.7 56 L 51.7 54.9 L 52.3 54.9 L 52.3 56 L 53.4 56 L 53.4 56.5 L 52.3 56.5 C 52.3 56.5 52.27 58.57 52.3 58.6 C 52.3 59 52.5 59.2 52.9 59.2 C 53.1 59.2 53.2 59.1 53.4 59 C 53.4 59.05 53.4 59.5 53.4 59.5 C 53.4 59.5 53.4 59.51 53.4 59.5 Z M 56.9 59 C 56.6 59.4 56.2 59.7 55.7 59.7 C 55.3 59.7 54.9 59.5 54.7 59.3 C 54.4 59 54.3 58.7 54.3 58.2 C 54.31 58.23 54.3 56 54.3 56 L 54.9 56 C 54.9 56 54.85 58.09 54.9 58.1 C 54.9 58.4 54.9 58.7 55.1 58.9 C 55.3 59.1 55.5 59.2 55.9 59.2 C 56.2 59.2 56.4 59.1 56.6 58.9 C 56.8 58.7 56.9 58.4 56.9 58.1 C 56.94 58.05 56.9 56 56.9 56 L 57.5 56 L 57.5 59.6 L 56.9 59.6 L 56.9 59 C 56.9 59 56.94 58.97 56.9 59 Z M 61.6 58.9 C 61.2 59.4 60.8 59.7 60.2 59.7 C 59.7 59.7 59.3 59.5 59 59.2 C 58.6 58.8 58.5 58.4 58.5 57.8 C 58.5 57.8 58.5 57.8 58.5 57.8 C 58.5 57.2 58.6 56.8 59 56.4 C 59.3 56.1 59.7 55.9 60.2 55.9 C 60.8 55.9 61.2 56.2 61.6 56.7 C 61.59 56.67 61.6 54.5 61.6 54.5 L 62.1 54.5 L 62.1 59.6 L 61.6 59.6 L 61.6 58.9 C 61.6 58.9 61.59 58.87 61.6 58.9 Z M 60.3 59.2 C 60.6 59.2 61 59.1 61.2 58.8 C 61.5 58.5 61.6 58.2 61.6 57.8 C 61.6 57.8 61.6 57.8 61.6 57.8 C 61.6 57.4 61.5 57 61.2 56.8 C 61 56.5 60.6 56.4 60.3 56.4 C 59.9 56.4 59.6 56.5 59.4 56.8 C 59.1 57 59 57.4 59 57.8 C 59 57.8 59 57.8 59 57.8 C 59 58.2 59.1 58.6 59.4 58.8 C 59.6 59.1 59.9 59.2 60.3 59.2 Z M 63.3 55.2 L 63.3 54.6 L 64 54.6 L 64 55.2 L 63.3 55.2 Z M 63.4 59.6 L 63.4 56 L 63.9 56 L 63.9 59.6 L 63.4 59.6 Z M 66.8 59.7 C 66.3 59.7 65.8 59.5 65.5 59.1 C 65.1 58.8 64.9 58.3 64.9 57.8 C 64.9 57.8 64.9 57.8 64.9 57.8 C 64.9 57.3 65.1 56.8 65.5 56.5 C 65.8 56.1 66.3 55.9 66.8 55.9 C 67.4 55.9 67.8 56.1 68.2 56.5 C 68.5 56.8 68.7 57.3 68.7 57.8 C 68.7 57.8 68.7 57.8 68.7 57.8 C 68.7 58.3 68.5 58.8 68.2 59.1 C 67.8 59.5 67.4 59.7 66.8 59.7 Z M 66.8 59.2 C 67.2 59.2 67.5 59.1 67.8 58.8 C 68 58.5 68.2 58.2 68.2 57.8 C 68.2 57.8 68.2 57.8 68.2 57.8 C 68.2 57.4 68 57.1 67.8 56.8 C 67.5 56.5 67.2 56.4 66.8 56.4 C 66.4 56.4 66.1 56.5 65.9 56.8 C 65.6 57.1 65.5 57.4 65.5 57.8 C 65.5 57.8 65.5 57.8 65.5 57.8 C 65.5 58.2 65.6 58.5 65.9 58.8 C 66.1 59.1 66.5 59.2 66.8 59.2 Z " stroke="none" fill="#000"/>  </g>  <g id="Polygon357228">    <path d="M 0.7 50.6 L 0.7 45.7 C 0.7 45.7 2.39 45.7 2.4 45.7 C 3.2 45.7 3.8 45.9 4.3 46.4 C 4.8 46.9 5 47.4 5 48.1 C 5 48.1 5 48.1 5 48.1 C 5 48.8 4.8 49.4 4.3 49.9 C 3.8 50.4 3.2 50.6 2.4 50.6 C 2.39 50.6 0.7 50.6 0.7 50.6 Z M 2.4 46.2 C 2.39 46.21 1.2 46.2 1.2 46.2 L 1.2 50.1 C 1.2 50.1 2.39 50.09 2.4 50.1 C 3 50.1 3.5 49.9 3.9 49.5 C 4.2 49.2 4.4 48.7 4.4 48.2 C 4.4 48.2 4.4 48.1 4.4 48.1 C 4.4 47.6 4.2 47.1 3.9 46.8 C 3.5 46.4 3 46.2 2.4 46.2 Z M 10.6 50.6 L 10.6 49.4 L 8 49.4 L 7.9 49 L 10.6 45.7 L 11.1 45.7 L 11.1 49 L 11.9 49 L 11.9 49.4 L 11.1 49.4 L 11.1 50.6 L 10.6 50.6 Z M 8.5 49 L 10.6 49 L 10.6 46.4 L 8.5 49 Z M 16.8 48.1 C 16.8 48.9 16.7 49.5 16.3 49.9 C 15.9 50.4 15.4 50.7 14.8 50.7 C 14.2 50.7 13.7 50.4 13.3 50 C 12.9 49.5 12.7 48.9 12.7 48.2 C 12.7 48.2 12.7 48.1 12.7 48.1 C 12.7 47.4 12.9 46.8 13.3 46.4 C 13.7 45.9 14.2 45.6 14.8 45.6 C 15.4 45.6 15.9 45.9 16.3 46.3 C 16.7 46.8 16.8 47.4 16.8 48.1 C 16.84 48.14 16.8 48.1 16.8 48.1 C 16.8 48.1 16.84 48.15 16.8 48.1 Z M 13.3 48.1 C 13.3 48.7 13.4 49.2 13.7 49.6 C 14 50 14.3 50.2 14.8 50.2 C 15.2 50.2 15.6 50 15.9 49.6 C 16.1 49.2 16.3 48.7 16.3 48.2 C 16.3 48.2 16.3 48.1 16.3 48.1 C 16.3 47.6 16.1 47.1 15.9 46.7 C 15.6 46.3 15.2 46.1 14.8 46.1 C 14.3 46.1 14 46.3 13.7 46.7 C 13.4 47.1 13.3 47.6 13.3 48.1 C 13.28 48.14 13.3 48.1 13.3 48.1 C 13.3 48.1 13.28 48.15 13.3 48.1 Z M 17.5 51.5 C 17.5 51.5 17.5 51.2 17.5 51.2 C 17.8 51.1 18 50.9 17.9 50.6 C 17.93 50.6 17.7 50.6 17.7 50.6 L 17.7 49.9 L 18.3 49.9 C 18.3 49.9 18.32 50.49 18.3 50.5 C 18.3 50.8 18.3 51 18.1 51.1 C 18 51.3 17.8 51.4 17.5 51.5 Z M 21.2 50.7 C 20.7 50.7 20.2 50.5 19.9 50.2 C 19.7 50 19.5 49.7 19.4 49.4 C 19.3 49.1 19.3 48.8 19.3 48.3 C 19.3 48.3 19.3 48.3 19.3 48.3 C 19.3 47.5 19.5 46.9 19.8 46.4 C 20.2 45.9 20.7 45.6 21.3 45.6 C 21.8 45.6 22.3 45.8 22.8 46.2 C 22.8 46.2 22.4 46.6 22.4 46.6 C 22.1 46.3 21.7 46.1 21.3 46.1 C 20.8 46.1 20.5 46.3 20.2 46.7 C 20 47.1 19.8 47.6 19.8 48.2 C 19.8 48.2 19.8 48.3 19.8 48.3 C 20.2 47.8 20.7 47.5 21.2 47.5 C 21.7 47.5 22.1 47.7 22.4 48 C 22.8 48.2 22.9 48.6 22.9 49 C 22.9 49 22.9 49.1 22.9 49.1 C 22.9 49.5 22.8 49.9 22.4 50.2 C 22.1 50.5 21.7 50.7 21.2 50.7 Z M 21.2 50.2 C 21.5 50.2 21.8 50.1 22 49.9 C 22.3 49.7 22.4 49.4 22.4 49.1 C 22.4 49.1 22.4 49.1 22.4 49.1 C 22.4 48.8 22.3 48.5 22 48.3 C 21.8 48.1 21.5 48 21.2 48 C 20.8 48 20.5 48.1 20.3 48.3 C 20.1 48.6 19.9 48.8 19.9 49.1 C 19.9 49.1 19.9 49.1 19.9 49.1 C 19.9 49.4 20.1 49.7 20.3 49.9 C 20.5 50.1 20.8 50.2 21.2 50.2 Z M 29.2 50 C 28.8 50.5 28.3 50.7 27.7 50.7 C 27.2 50.7 26.7 50.5 26.4 50.1 C 26 49.8 25.9 49.3 25.9 48.8 C 25.9 48.8 25.9 48.8 25.9 48.8 C 25.9 48.3 26 47.8 26.4 47.5 C 26.7 47.1 27.2 46.9 27.7 46.9 C 28.3 46.9 28.8 47.1 29.2 47.5 C 29.2 47.5 28.8 47.9 28.8 47.9 C 28.5 47.6 28.1 47.4 27.7 47.4 C 27.3 47.4 27 47.5 26.8 47.8 C 26.5 48.1 26.4 48.4 26.4 48.8 C 26.4 48.8 26.4 48.8 26.4 48.8 C 26.4 49.2 26.5 49.5 26.8 49.8 C 27 50.1 27.4 50.2 27.7 50.2 C 28.1 50.2 28.5 50 28.8 49.7 C 28.85 49.66 29.2 50 29.2 50 C 29.2 50 29.19 49.98 29.2 50 Z M 30.1 50.6 L 30.1 47 L 30.6 47 C 30.6 47 30.62 47.59 30.6 47.6 C 30.8 47.4 30.9 47.2 31.1 47.1 C 31.3 47 31.5 46.9 31.8 46.9 C 32.3 46.9 32.7 47.1 32.9 47.6 C 33.3 47.1 33.7 46.9 34.2 46.9 C 34.6 46.9 35 47 35.2 47.3 C 35.4 47.6 35.6 47.9 35.6 48.4 C 35.57 48.36 35.6 50.6 35.6 50.6 L 35 50.6 C 35 50.6 35.03 48.49 35 48.5 C 35 48.1 34.9 47.9 34.8 47.7 C 34.6 47.5 34.4 47.4 34.1 47.4 C 33.8 47.4 33.6 47.5 33.4 47.7 C 33.2 47.9 33.1 48.2 33.1 48.5 C 33.09 48.51 33.1 50.6 33.1 50.6 L 32.6 50.6 C 32.6 50.6 32.56 48.47 32.6 48.5 C 32.6 48.1 32.5 47.9 32.3 47.7 C 32.1 47.5 31.9 47.4 31.6 47.4 C 31.3 47.4 31.1 47.5 30.9 47.7 C 30.7 47.9 30.6 48.2 30.6 48.5 C 30.62 48.53 30.6 50.6 30.6 50.6 L 30.1 50.6 Z M 36.5 51.5 C 36.5 51.5 36.4 51.2 36.4 51.2 C 36.8 51.1 36.9 50.9 36.9 50.6 C 36.9 50.6 36.7 50.6 36.7 50.6 L 36.7 49.9 L 37.3 49.9 C 37.3 49.9 37.3 50.49 37.3 50.5 C 37.3 50.8 37.2 51 37.1 51.1 C 37 51.3 36.8 51.4 36.5 51.5 Z M 40.6 50.6 L 40.6 45.7 L 41.2 45.7 L 41.2 47.9 L 44 47.9 L 44 45.7 L 44.6 45.7 L 44.6 50.6 L 44 50.6 L 44 48.4 L 41.2 48.4 L 41.2 50.6 L 40.6 50.6 Z M 50.4 50.6 L 50.4 49.4 L 47.8 49.4 L 47.6 49 L 50.4 45.7 L 50.9 45.7 L 50.9 49 L 51.7 49 L 51.7 49.4 L 50.9 49.4 L 50.9 50.6 L 50.4 50.6 Z M 48.3 49 L 50.4 49 L 50.4 46.4 L 48.3 49 Z M 53.2 50.6 L 53.2 46.2 L 52.2 46.5 L 52.1 46.1 L 53.3 45.7 L 53.7 45.7 L 53.7 50.6 L 53.2 50.6 Z M 54.8 51.5 C 54.8 51.5 54.7 51.2 54.7 51.2 C 55.1 51.1 55.2 50.9 55.2 50.6 C 55.2 50.6 54.9 50.6 54.9 50.6 L 54.9 49.9 L 55.6 49.9 C 55.6 49.9 55.59 50.49 55.6 50.5 C 55.6 50.8 55.5 51 55.4 51.1 C 55.3 51.3 55.1 51.4 54.8 51.5 Z M 57 50.6 L 57 46.2 L 56.1 46.5 L 56 46.1 L 57.2 45.7 L 57.6 45.7 L 57.6 50.6 L 57 50.6 Z M 64.1 50 C 63.7 50.5 63.2 50.7 62.6 50.7 C 62.1 50.7 61.6 50.5 61.3 50.1 C 60.9 49.8 60.8 49.3 60.8 48.8 C 60.8 48.8 60.8 48.8 60.8 48.8 C 60.8 48.3 60.9 47.8 61.3 47.5 C 61.6 47.1 62.1 46.9 62.6 46.9 C 63.2 46.9 63.7 47.1 64.1 47.5 C 64.1 47.5 63.7 47.9 63.7 47.9 C 63.4 47.6 63 47.4 62.6 47.4 C 62.2 47.4 61.9 47.5 61.7 47.8 C 61.4 48.1 61.3 48.4 61.3 48.8 C 61.3 48.8 61.3 48.8 61.3 48.8 C 61.3 49.2 61.4 49.5 61.7 49.8 C 61.9 50.1 62.3 50.2 62.6 50.2 C 63 50.2 63.4 50 63.7 49.7 C 63.75 49.66 64.1 50 64.1 50 C 64.1 50 64.09 49.98 64.1 50 Z M 65 50.6 L 65 47 L 65.5 47 C 65.5 47 65.52 47.59 65.5 47.6 C 65.7 47.4 65.8 47.2 66 47.1 C 66.2 47 66.4 46.9 66.7 46.9 C 67.2 46.9 67.6 47.1 67.9 47.6 C 68.2 47.1 68.6 46.9 69.1 46.9 C 69.5 46.9 69.9 47 70.1 47.3 C 70.3 47.6 70.5 47.9 70.5 48.4 C 70.47 48.36 70.5 50.6 70.5 50.6 L 69.9 50.6 C 69.9 50.6 69.93 48.49 69.9 48.5 C 69.9 48.1 69.8 47.9 69.7 47.7 C 69.5 47.5 69.3 47.4 69 47.4 C 68.7 47.4 68.5 47.5 68.3 47.7 C 68.1 47.9 68 48.2 68 48.5 C 67.99 48.51 68 50.6 68 50.6 L 67.5 50.6 C 67.5 50.6 67.46 48.47 67.5 48.5 C 67.5 48.1 67.4 47.9 67.2 47.7 C 67 47.5 66.8 47.4 66.5 47.4 C 66.2 47.4 66 47.5 65.8 47.7 C 65.6 47.9 65.5 48.2 65.5 48.5 C 65.52 48.53 65.5 50.6 65.5 50.6 L 65 50.6 Z " stroke="none" fill="#000"/>  </g>  <g id="Polygon357227">    <path d="M 2 41.6 L 2 37.2 L 0.3 37.2 L 0.3 36.7 L 4.2 36.7 L 4.2 37.2 L 2.5 37.2 L 2.5 41.6 L 2 41.6 Z M 5.9 41.7 C 5.3 41.7 4.9 41.5 4.5 41.1 C 4.2 40.8 4 40.3 4 39.8 C 4 39.8 4 39.8 4 39.8 C 4 39.3 4.2 38.8 4.5 38.5 C 4.9 38.1 5.4 37.9 5.9 37.9 C 6.4 37.9 6.9 38.1 7.2 38.5 C 7.6 38.8 7.8 39.3 7.8 39.8 C 7.8 39.8 7.8 39.8 7.8 39.8 C 7.8 40.3 7.6 40.8 7.2 41.1 C 6.9 41.5 6.4 41.7 5.9 41.7 Z M 5.9 41.2 C 6.3 41.2 6.6 41.1 6.8 40.8 C 7.1 40.5 7.2 40.2 7.2 39.8 C 7.2 39.8 7.2 39.8 7.2 39.8 C 7.2 39.4 7.1 39.1 6.8 38.8 C 6.6 38.5 6.3 38.4 5.9 38.4 C 5.5 38.4 5.2 38.5 4.9 38.8 C 4.7 39.1 4.6 39.4 4.6 39.8 C 4.6 39.8 4.6 39.8 4.6 39.8 C 4.6 40.2 4.7 40.5 4.9 40.8 C 5.2 41.1 5.5 41.2 5.9 41.2 Z M 8.4 41.6 L 8.4 41.3 L 10.8 38.4 L 8.5 38.4 L 8.5 38 L 11.5 38 L 11.5 38.3 L 9.1 41.1 L 11.5 41.1 L 11.5 41.6 L 8.4 41.6 Z M 16.5 41.7 C 16 41.7 15.5 41.4 15.1 40.9 C 15.14 40.91 15.1 41.6 15.1 41.6 L 14.6 41.6 L 14.6 36.5 L 15.1 36.5 C 15.1 36.5 15.14 38.71 15.1 38.7 C 15.5 38.2 16 37.9 16.5 37.9 C 17 37.9 17.4 38.1 17.7 38.4 C 18.1 38.8 18.3 39.2 18.3 39.8 C 18.3 39.8 18.3 39.8 18.3 39.8 C 18.3 40.4 18.1 40.8 17.7 41.2 C 17.4 41.5 17 41.7 16.5 41.7 Z M 16.4 41.2 C 16.8 41.2 17.1 41.1 17.3 40.8 C 17.6 40.6 17.7 40.2 17.7 39.8 C 17.7 39.8 17.7 39.8 17.7 39.8 C 17.7 39.4 17.6 39 17.3 38.8 C 17.1 38.5 16.8 38.4 16.4 38.4 C 16.1 38.4 15.8 38.5 15.5 38.8 C 15.3 39.1 15.1 39.4 15.1 39.8 C 15.1 39.8 15.1 39.8 15.1 39.8 C 15.1 40.2 15.3 40.5 15.5 40.8 C 15.8 41.1 16.1 41.2 16.4 41.2 Z M 20.9 41.7 C 20.4 41.7 19.9 41.5 19.6 41.1 C 19.2 40.8 19 40.3 19 39.8 C 19 39.8 19 39.8 19 39.8 C 19 39.3 19.2 38.8 19.6 38.5 C 19.9 38.1 20.4 37.9 20.9 37.9 C 21.5 37.9 21.9 38.1 22.3 38.5 C 22.6 38.8 22.8 39.3 22.8 39.8 C 22.8 39.8 22.8 39.8 22.8 39.8 C 22.8 40.3 22.6 40.8 22.3 41.1 C 21.9 41.5 21.4 41.7 20.9 41.7 Z M 20.9 41.2 C 21.3 41.2 21.6 41.1 21.9 40.8 C 22.1 40.5 22.2 40.2 22.2 39.8 C 22.2 39.8 22.2 39.8 22.2 39.8 C 22.2 39.4 22.1 39.1 21.9 38.8 C 21.6 38.5 21.3 38.4 20.9 38.4 C 20.5 38.4 20.2 38.5 20 38.8 C 19.7 39.1 19.6 39.4 19.6 39.8 C 19.6 39.8 19.6 39.8 19.6 39.8 C 19.6 40.2 19.7 40.5 20 40.8 C 20.2 41.1 20.5 41.2 20.9 41.2 Z M 25.1 41 L 26.3 38 L 26.8 38 C 26.8 38 25.33 41.72 25.3 41.7 C 25.2 42.1 25 42.4 24.8 42.5 C 24.6 42.7 24.4 42.7 24.1 42.7 C 23.9 42.7 23.6 42.7 23.4 42.6 C 23.4 42.6 23.5 42.1 23.5 42.1 C 23.7 42.2 23.9 42.3 24.1 42.3 C 24.3 42.3 24.4 42.2 24.5 42.1 C 24.6 42 24.7 41.8 24.8 41.6 C 24.84 41.59 23.2 38 23.2 38 L 23.8 38 L 25.1 41 Z M 29.9 41.1 C 29.6 41.5 29.2 41.7 28.6 41.7 C 28.2 41.7 27.9 41.6 27.7 41.4 C 27.4 41.2 27.3 40.9 27.3 40.5 C 27.3 40.5 27.3 40.5 27.3 40.5 C 27.3 40.2 27.4 39.9 27.7 39.7 C 28 39.5 28.3 39.4 28.8 39.4 C 29.2 39.4 29.5 39.4 29.9 39.5 C 29.9 39.5 29.9 39.4 29.9 39.4 C 29.9 39.1 29.8 38.8 29.6 38.7 C 29.4 38.5 29.2 38.4 28.8 38.4 C 28.5 38.4 28.1 38.5 27.7 38.7 C 27.7 38.7 27.6 38.2 27.6 38.2 C 28 38 28.4 37.9 28.9 37.9 C 29.4 37.9 29.8 38.1 30.1 38.3 C 30.3 38.6 30.4 38.9 30.4 39.4 C 30.43 39.39 30.4 41.6 30.4 41.6 L 29.9 41.6 L 29.9 41.1 C 29.9 41.1 29.91 41.05 29.9 41.1 Z M 28.7 41.2 C 29 41.2 29.3 41.2 29.6 41 C 29.8 40.8 29.9 40.6 29.9 40.3 C 29.9 40.3 29.9 39.9 29.9 39.9 C 29.6 39.8 29.2 39.8 28.9 39.8 C 28.5 39.8 28.3 39.8 28.1 40 C 27.9 40.1 27.8 40.3 27.8 40.5 C 27.8 40.5 27.8 40.5 27.8 40.5 C 27.8 40.7 27.9 40.9 28.1 41.1 C 28.2 41.2 28.5 41.2 28.7 41.2 Z M 31.6 41.6 L 31.6 36.5 L 32.2 36.5 L 32.2 41.6 L 31.6 41.6 Z M 33.5 41.6 L 33.5 38 L 34 38 L 34 41.6 L 33.5 41.6 Z M 38.6 42.7 L 38.1 42.4 C 38.1 42.4 38.65 41.65 38.7 41.6 C 38.2 41.6 37.9 41.4 37.6 41 C 37.3 40.7 37.1 40.3 37.1 39.8 C 37.1 39.8 37.1 39.8 37.1 39.8 C 37.1 39.3 37.3 38.8 37.7 38.5 C 38 38.1 38.5 37.9 39 37.9 C 39.5 37.9 40 38.1 40.4 38.5 C 40.4 38.5 40.1 38.9 40.1 38.9 C 39.7 38.6 39.4 38.4 39 38.4 C 38.6 38.4 38.3 38.5 38.1 38.8 C 37.8 39.1 37.7 39.4 37.7 39.8 C 37.7 39.8 37.7 39.8 37.7 39.8 C 37.7 40.2 37.8 40.5 38.1 40.8 C 38.3 41.1 38.6 41.2 39 41.2 C 39.4 41.2 39.8 41 40.1 40.7 C 40.1 40.7 40.5 41 40.5 41 C 40.1 41.4 39.6 41.7 39.1 41.7 C 39.09 41.68 38.6 42.7 38.6 42.7 Z M 44.3 41 C 43.9 41.5 43.4 41.7 42.8 41.7 C 42.3 41.7 41.9 41.5 41.6 41.2 C 41.2 40.8 41 40.4 41 39.8 C 41 39.8 41 39.8 41 39.8 C 41 39.3 41.2 38.8 41.5 38.4 C 41.8 38.1 42.3 37.9 42.8 37.9 C 43.3 37.9 43.7 38.1 44 38.4 C 44.3 38.8 44.4 39.3 44.4 39.8 C 44.4 39.9 44.4 39.9 44.4 40 C 44.4 40 41.6 40 41.6 40 C 41.6 40.4 41.7 40.7 42 40.9 C 42.2 41.1 42.5 41.2 42.8 41.2 C 43.3 41.2 43.7 41 44 40.7 C 43.99 40.7 44.3 41 44.3 41 C 44.3 41 44.32 41 44.3 41 Z M 41.6 39.6 C 41.6 39.6 43.9 39.6 43.9 39.6 C 43.9 39.2 43.8 38.9 43.6 38.7 C 43.4 38.5 43.1 38.4 42.7 38.4 C 42.4 38.4 42.2 38.5 42 38.7 C 41.7 38.9 41.6 39.2 41.6 39.6 Z M 45.4 41.6 L 45.4 36.5 L 46 36.5 L 46 41.6 L 45.4 41.6 Z M 47.2 37.2 L 47.2 36.6 L 47.9 36.6 L 47.9 37.2 L 47.2 37.2 Z M 47.3 41.6 L 47.3 38 L 47.8 38 L 47.8 41.6 L 47.3 41.6 Z M 49.1 41.6 L 49.1 36.5 L 49.6 36.5 L 49.6 40 L 51.6 38 L 52.2 38 L 50.7 39.5 L 52.3 41.6 L 51.6 41.6 L 50.4 39.9 L 49.6 40.7 L 49.6 41.6 L 49.1 41.6 Z " stroke="none" fill="#000"/>  </g>  <g id="Polygon357226">    <path d="M 0.7 23.6 L 0.7 18.7 C 0.7 18.7 2.8 18.7 2.8 18.7 C 3.4 18.7 3.9 18.9 4.2 19.2 C 4.4 19.4 4.6 19.8 4.6 20.2 C 4.6 20.2 4.6 20.2 4.6 20.2 C 4.6 20.6 4.4 20.9 4.2 21.1 C 4 21.4 3.6 21.5 3.2 21.6 C 3.24 21.6 4.7 23.6 4.7 23.6 L 4.1 23.6 L 2.6 21.7 L 1.2 21.7 L 1.2 23.6 L 0.7 23.6 Z M 1.2 21.2 C 1.2 21.2 2.75 21.2 2.8 21.2 C 3.1 21.2 3.4 21.1 3.7 20.9 C 3.9 20.7 4 20.5 4 20.2 C 4 20.2 4 20.2 4 20.2 C 4 19.9 3.9 19.6 3.7 19.5 C 3.5 19.3 3.2 19.2 2.8 19.2 C 2.76 19.21 1.2 19.2 1.2 19.2 L 1.2 21.2 Z M 8.7 23 C 8.3 23.5 7.8 23.7 7.2 23.7 C 6.7 23.7 6.2 23.5 5.9 23.2 C 5.5 22.8 5.4 22.4 5.4 21.8 C 5.4 21.8 5.4 21.8 5.4 21.8 C 5.4 21.3 5.5 20.8 5.9 20.4 C 6.2 20.1 6.6 19.9 7.1 19.9 C 7.6 19.9 8 20.1 8.3 20.4 C 8.6 20.8 8.8 21.3 8.8 21.8 C 8.8 21.9 8.8 21.9 8.8 22 C 8.8 22 5.9 22 5.9 22 C 6 22.4 6.1 22.7 6.3 22.9 C 6.6 23.1 6.9 23.2 7.2 23.2 C 7.6 23.2 8 23 8.3 22.7 C 8.33 22.7 8.7 23 8.7 23 C 8.7 23 8.67 23 8.7 23 Z M 5.9 21.6 C 5.9 21.6 8.2 21.6 8.2 21.6 C 8.2 21.2 8.1 20.9 7.9 20.7 C 7.7 20.5 7.4 20.4 7.1 20.4 C 6.8 20.4 6.5 20.5 6.3 20.7 C 6.1 20.9 6 21.2 5.9 21.6 Z M 9.7 23.6 L 9.7 20 L 10.3 20 C 10.3 20 10.28 20.61 10.3 20.6 C 10.6 20.1 11 19.9 11.5 19.9 C 11.9 19.9 12.3 20 12.5 20.3 C 12.8 20.6 12.9 20.9 12.9 21.4 C 12.9 21.35 12.9 23.6 12.9 23.6 L 12.4 23.6 C 12.4 23.6 12.36 21.49 12.4 21.5 C 12.4 21.1 12.3 20.9 12.1 20.7 C 11.9 20.5 11.7 20.4 11.4 20.4 C 11 20.4 10.8 20.5 10.6 20.7 C 10.4 20.9 10.3 21.2 10.3 21.5 C 10.28 21.53 10.3 23.6 10.3 23.6 L 9.7 23.6 Z M 14 23.6 L 14 18.5 L 14.6 18.5 L 14.6 22 L 16.5 20 L 17.2 20 L 15.7 21.5 L 17.3 23.6 L 16.6 23.6 L 15.3 21.9 L 14.6 22.7 L 14.6 23.6 L 14 23.6 Z M 18 20.7 L 18 20 L 18.6 20 L 18.6 20.7 L 18 20.7 Z M 18 23.6 L 18 22.9 L 18.6 22.9 L 18.6 23.6 L 18 23.6 Z M 23.3 23.6 L 23.3 19.2 L 21.6 19.2 L 21.6 18.7 L 25.5 18.7 L 25.5 19.2 L 23.8 19.2 L 23.8 23.6 L 23.3 23.6 Z M 27.9 23.1 C 27.6 23.5 27.2 23.7 26.6 23.7 C 26.2 23.7 25.9 23.6 25.7 23.4 C 25.4 23.2 25.3 22.9 25.3 22.5 C 25.3 22.5 25.3 22.5 25.3 22.5 C 25.3 22.2 25.4 21.9 25.7 21.7 C 26 21.5 26.3 21.4 26.8 21.4 C 27.2 21.4 27.5 21.4 27.9 21.5 C 27.9 21.5 27.9 21.4 27.9 21.4 C 27.9 21.1 27.8 20.8 27.6 20.7 C 27.5 20.5 27.2 20.4 26.8 20.4 C 26.5 20.4 26.1 20.5 25.7 20.7 C 25.7 20.7 25.6 20.2 25.6 20.2 C 26 20 26.4 19.9 26.9 19.9 C 27.4 19.9 27.8 20.1 28.1 20.3 C 28.3 20.6 28.4 20.9 28.4 21.4 C 28.44 21.39 28.4 23.6 28.4 23.6 L 27.9 23.6 L 27.9 23.1 C 27.9 23.1 27.92 23.05 27.9 23.1 Z M 26.7 23.2 C 27.1 23.2 27.3 23.2 27.6 23 C 27.8 22.8 27.9 22.6 27.9 22.3 C 27.9 22.3 27.9 21.9 27.9 21.9 C 27.6 21.8 27.2 21.8 26.9 21.8 C 26.5 21.8 26.3 21.8 26.1 22 C 25.9 22.1 25.8 22.3 25.8 22.5 C 25.8 22.5 25.8 22.5 25.8 22.5 C 25.8 22.7 25.9 22.9 26.1 23.1 C 26.3 23.2 26.5 23.2 26.7 23.2 Z M 32.2 23 C 31.9 23.4 31.5 23.7 30.9 23.7 C 30.5 23.7 30.2 23.5 29.9 23.3 C 29.7 23 29.5 22.7 29.5 22.2 C 29.53 22.23 29.5 20 29.5 20 L 30.1 20 C 30.1 20 30.07 22.09 30.1 22.1 C 30.1 22.4 30.2 22.7 30.3 22.9 C 30.5 23.1 30.8 23.2 31.1 23.2 C 31.4 23.2 31.6 23.1 31.8 22.9 C 32.1 22.7 32.2 22.4 32.2 22.1 C 32.16 22.05 32.2 20 32.2 20 L 32.7 20 L 32.7 23.6 L 32.2 23.6 L 32.2 23 C 32.2 23 32.16 22.97 32.2 23 Z M 33.9 24.7 L 33.9 20 L 34.4 20 C 34.4 20 34.44 20.71 34.4 20.7 C 34.8 20.2 35.3 19.9 35.8 19.9 C 36.3 19.9 36.7 20.1 37 20.4 C 37.4 20.8 37.6 21.2 37.6 21.8 C 37.6 21.8 37.6 21.8 37.6 21.8 C 37.6 22.4 37.4 22.8 37 23.2 C 36.7 23.5 36.3 23.7 35.8 23.7 C 35.3 23.7 34.8 23.4 34.4 22.9 C 34.44 22.91 34.4 24.7 34.4 24.7 L 33.9 24.7 Z M 35.7 23.2 C 36.1 23.2 36.4 23.1 36.6 22.8 C 36.9 22.6 37 22.2 37 21.8 C 37 21.8 37 21.8 37 21.8 C 37 21.4 36.9 21 36.6 20.8 C 36.4 20.5 36.1 20.4 35.7 20.4 C 35.4 20.4 35.1 20.5 34.8 20.8 C 34.6 21.1 34.4 21.4 34.4 21.8 C 34.4 21.8 34.4 21.8 34.4 21.8 C 34.4 22.2 34.5 22.5 34.8 22.8 C 35.1 23.1 35.4 23.2 35.7 23.2 Z M 41.6 23 C 41.2 23.5 40.7 23.7 40.1 23.7 C 39.6 23.7 39.2 23.5 38.8 23.2 C 38.5 22.8 38.3 22.4 38.3 21.8 C 38.3 21.8 38.3 21.8 38.3 21.8 C 38.3 21.3 38.5 20.8 38.8 20.4 C 39.1 20.1 39.6 19.9 40.1 19.9 C 40.6 19.9 41 20.1 41.3 20.4 C 41.6 20.8 41.7 21.3 41.7 21.8 C 41.7 21.9 41.7 21.9 41.7 22 C 41.7 22 38.9 22 38.9 22 C 38.9 22.4 39 22.7 39.3 22.9 C 39.5 23.1 39.8 23.2 40.1 23.2 C 40.6 23.2 41 23 41.3 22.7 C 41.29 22.7 41.6 23 41.6 23 C 41.6 23 41.62 23 41.6 23 Z M 38.9 21.6 C 38.9 21.6 41.2 21.6 41.2 21.6 C 41.2 21.2 41.1 20.9 40.9 20.7 C 40.7 20.5 40.4 20.4 40 20.4 C 39.7 20.4 39.5 20.5 39.3 20.7 C 39 20.9 38.9 21.2 38.9 21.6 Z " stroke="none" fill="#000"/>  </g>  <g id="Polygon357225">    <path d="M 3 9.3 L 3 8.6 L 3.6 8.6 L 3.6 9.3 L 3 9.3 Z M 1.7 9.3 L 1.7 8.6 L 2.3 8.6 L 2.3 9.3 L 1.7 9.3 Z M 2.7 14.7 C 2 14.7 1.5 14.5 1.2 14.1 C 0.8 13.7 0.6 13.2 0.6 12.5 C 0.62 12.55 0.6 9.7 0.6 9.7 L 1.2 9.7 C 1.2 9.7 1.17 12.51 1.2 12.5 C 1.2 13 1.3 13.4 1.6 13.7 C 1.8 14 2.2 14.2 2.7 14.2 C 3.1 14.2 3.5 14 3.8 13.8 C 4 13.5 4.1 13.1 4.1 12.5 C 4.14 12.55 4.1 9.7 4.1 9.7 L 4.7 9.7 C 4.7 9.7 4.7 12.51 4.7 12.5 C 4.7 13.2 4.5 13.7 4.1 14.1 C 3.8 14.5 3.3 14.7 2.7 14.7 Z M 5.9 14.6 L 5.9 11 L 6.5 11 C 6.5 11 6.45 11.93 6.5 11.9 C 6.6 11.6 6.8 11.4 7 11.2 C 7.3 11 7.6 10.9 7.9 10.9 C 7.93 10.92 7.9 11.5 7.9 11.5 C 7.9 11.5 7.89 11.5 7.9 11.5 C 7.5 11.5 7.1 11.6 6.9 11.9 C 6.6 12.2 6.5 12.6 6.5 13.2 C 6.45 13.16 6.5 14.6 6.5 14.6 L 5.9 14.6 Z M 10.6 10.4 L 10.6 9.8 L 11.2 9.8 L 11.2 10.4 L 10.6 10.4 Z M 9.3 10.4 L 9.3 9.8 L 10 9.8 L 10 10.4 L 9.3 10.4 Z M 11.3 14 C 11 14.4 10.6 14.7 10.1 14.7 C 9.7 14.7 9.3 14.5 9.1 14.3 C 8.8 14 8.7 13.7 8.7 13.2 C 8.69 13.23 8.7 11 8.7 11 L 9.2 11 C 9.2 11 9.23 13.09 9.2 13.1 C 9.2 13.4 9.3 13.7 9.5 13.9 C 9.7 14.1 9.9 14.2 10.2 14.2 C 10.5 14.2 10.8 14.1 11 13.9 C 11.2 13.7 11.3 13.4 11.3 13.1 C 11.32 13.05 11.3 11 11.3 11 L 11.9 11 L 11.9 14.6 L 11.3 14.6 L 11.3 14 C 11.3 14 11.32 13.97 11.3 14 Z M 13.1 14.6 L 13.1 11 L 13.6 11 C 13.6 11 13.6 11.61 13.6 11.6 C 13.9 11.1 14.3 10.9 14.8 10.9 C 15.3 10.9 15.6 11 15.9 11.3 C 16.1 11.6 16.2 11.9 16.2 12.4 C 16.23 12.35 16.2 14.6 16.2 14.6 L 15.7 14.6 C 15.7 14.6 15.69 12.49 15.7 12.5 C 15.7 12.1 15.6 11.9 15.4 11.7 C 15.2 11.5 15 11.4 14.7 11.4 C 14.4 11.4 14.1 11.5 13.9 11.7 C 13.7 11.9 13.6 12.2 13.6 12.5 C 13.6 12.53 13.6 14.6 13.6 14.6 L 13.1 14.6 Z M 19.6 14.6 L 19.6 9.7 L 20.1 9.7 L 20.1 12.6 L 22.9 9.7 L 23.7 9.7 L 21.5 11.8 L 23.7 14.6 L 23 14.6 L 21.2 12.2 L 20.1 13.3 L 20.1 14.6 L 19.6 14.6 Z M 25.9 14.7 C 25.4 14.7 25 14.5 24.6 14.1 C 24.3 13.8 24.1 13.3 24.1 12.8 C 24.1 12.8 24.1 12.8 24.1 12.8 C 24.1 12.3 24.3 11.8 24.6 11.5 C 25 11.1 25.4 10.9 26 10.9 C 26.5 10.9 26.9 11.1 27.3 11.5 C 27.7 11.8 27.8 12.3 27.8 12.8 C 27.8 12.8 27.8 12.8 27.8 12.8 C 27.8 13.3 27.7 13.8 27.3 14.1 C 26.9 14.5 26.5 14.7 25.9 14.7 Z M 26 14.2 C 26.3 14.2 26.7 14.1 26.9 13.8 C 27.2 13.5 27.3 13.2 27.3 12.8 C 27.3 12.8 27.3 12.8 27.3 12.8 C 27.3 12.4 27.2 12.1 26.9 11.8 C 26.6 11.5 26.3 11.4 25.9 11.4 C 25.6 11.4 25.2 11.5 25 11.8 C 24.8 12.1 24.6 12.4 24.6 12.8 C 24.6 12.8 24.6 12.8 24.6 12.8 C 24.6 13.2 24.8 13.5 25 13.8 C 25.3 14.1 25.6 14.2 26 14.2 Z M 31.7 13.9 C 31.4 14.4 30.9 14.7 30.3 14.7 C 29.9 14.7 29.5 14.5 29.1 14.2 C 28.8 13.8 28.6 13.4 28.6 12.8 C 28.6 12.8 28.6 12.8 28.6 12.8 C 28.6 12.2 28.8 11.8 29.1 11.4 C 29.5 11.1 29.9 10.9 30.3 10.9 C 30.9 10.9 31.4 11.2 31.7 11.7 C 31.72 11.67 31.7 9.5 31.7 9.5 L 32.3 9.5 L 32.3 14.6 L 31.7 14.6 L 31.7 13.9 C 31.7 13.9 31.72 13.87 31.7 13.9 Z M 30.4 14.2 C 30.8 14.2 31.1 14.1 31.4 13.8 C 31.6 13.5 31.7 13.2 31.7 12.8 C 31.7 12.8 31.7 12.8 31.7 12.8 C 31.7 12.4 31.6 12 31.4 11.8 C 31.1 11.5 30.8 11.4 30.4 11.4 C 30.1 11.4 29.8 11.5 29.5 11.8 C 29.3 12 29.2 12.4 29.2 12.8 C 29.2 12.8 29.2 12.8 29.2 12.8 C 29.2 13.2 29.3 13.6 29.5 13.8 C 29.8 14.1 30.1 14.2 30.4 14.2 Z M 36 14 C 35.7 14.4 35.3 14.7 34.8 14.7 C 34.4 14.7 34 14.5 33.8 14.3 C 33.5 14 33.4 13.7 33.4 13.2 C 33.41 13.23 33.4 11 33.4 11 L 33.9 11 C 33.9 11 33.95 13.09 33.9 13.1 C 33.9 13.4 34 13.7 34.2 13.9 C 34.4 14.1 34.6 14.2 35 14.2 C 35.3 14.2 35.5 14.1 35.7 13.9 C 35.9 13.7 36 13.4 36 13.1 C 36.04 13.05 36 11 36 11 L 36.6 11 L 36.6 14.6 L 36 14.6 L 36 14 C 36 14 36.04 13.97 36 14 Z M 37.7 11.7 L 37.7 11 L 38.4 11 L 38.4 11.7 L 37.7 11.7 Z M 37.7 14.6 L 37.7 13.9 L 38.4 13.9 L 38.4 14.6 L 37.7 14.6 Z M 41.5 14.6 L 41.5 13.8 L 44.2 10.6 L 41.6 10.6 L 41.6 9.7 L 45.6 9.7 L 45.6 10.5 L 42.9 13.7 L 45.6 13.7 L 45.6 14.6 L 41.5 14.6 Z M 46.6 14.6 L 46.6 9.7 C 46.6 9.7 48.51 9.7 48.5 9.7 C 49.3 9.7 49.9 9.9 50.4 10.4 C 50.9 10.9 51.1 11.4 51.1 12.1 C 51.1 12.1 51.1 12.1 51.1 12.1 C 51.1 12.8 50.9 13.4 50.4 13.9 C 49.9 14.4 49.3 14.6 48.5 14.6 C 48.51 14.6 46.6 14.6 46.6 14.6 Z M 48.5 10.7 C 48.51 10.67 47.7 10.7 47.7 10.7 L 47.7 13.6 C 47.7 13.6 48.51 13.63 48.5 13.6 C 48.9 13.6 49.3 13.5 49.6 13.2 C 49.8 13 50 12.6 50 12.2 C 50 12.2 50 12.1 50 12.1 C 50 11.7 49.8 11.4 49.6 11.1 C 49.3 10.8 48.9 10.7 48.5 10.7 Z M 54.8 14.6 L 54.8 10.8 L 54 11 L 53.8 10.1 L 55.2 9.7 L 55.9 9.7 L 55.9 14.6 L 54.8 14.6 Z M 59.1 14.7 C 58.4 14.7 57.9 14.4 57.5 14 C 57.1 13.5 56.9 12.9 56.9 12.2 C 56.9 12.2 56.9 12.1 56.9 12.1 C 56.9 11.4 57.1 10.8 57.5 10.3 C 57.9 9.9 58.5 9.6 59.1 9.6 C 59.7 9.6 60.3 9.9 60.7 10.3 C 61.1 10.8 61.3 11.4 61.3 12.1 C 61.3 12.1 61.3 12.1 61.3 12.1 C 61.3 12.9 61.1 13.5 60.7 14 C 60.3 14.4 59.7 14.7 59.1 14.7 Z M 58 12.1 C 58 12.6 58.1 13 58.3 13.3 C 58.5 13.6 58.8 13.7 59.1 13.7 C 59.4 13.7 59.7 13.6 59.9 13.3 C 60.1 13 60.2 12.6 60.2 12.2 C 60.2 12.2 60.2 12.1 60.2 12.1 C 60.2 11.7 60.1 11.3 59.9 11 C 59.7 10.7 59.4 10.6 59.1 10.6 C 58.8 10.6 58.5 10.7 58.3 11 C 58.1 11.3 58 11.7 58 12.1 C 58.02 12.14 58 12.1 58 12.1 C 58 12.1 58.02 12.15 58 12.1 Z M 63.8 14.7 C 63.1 14.7 62.5 14.4 61.9 13.9 C 61.9 13.9 62.6 13.2 62.6 13.2 C 63 13.5 63.4 13.7 63.8 13.7 C 64 13.7 64.2 13.6 64.4 13.5 C 64.5 13.4 64.6 13.2 64.6 13 C 64.6 13 64.6 13 64.6 13 C 64.6 12.8 64.5 12.6 64.4 12.5 C 64.2 12.4 64 12.3 63.7 12.3 C 63.4 12.3 63.2 12.4 62.9 12.5 C 62.9 12.53 62.3 12.1 62.3 12.1 L 62.4 9.7 L 65.4 9.7 L 65.4 10.6 L 63.3 10.6 C 63.3 10.6 63.29 11.49 63.3 11.5 C 63.5 11.4 63.7 11.4 63.9 11.4 C 64.4 11.4 64.9 11.5 65.2 11.8 C 65.5 12.1 65.6 12.5 65.6 13 C 65.6 13 65.6 13 65.6 13 C 65.6 13.5 65.5 13.9 65.1 14.2 C 64.8 14.5 64.3 14.7 63.8 14.7 Z M 68.2 14.7 C 67.5 14.7 66.9 14.4 66.4 13.9 C 66.4 13.9 67 13.2 67 13.2 C 67.4 13.5 67.8 13.7 68.2 13.7 C 68.4 13.7 68.6 13.6 68.8 13.5 C 68.9 13.4 69 13.2 69 13 C 69 13 69 13 69 13 C 69 12.8 68.9 12.6 68.8 12.5 C 68.6 12.4 68.4 12.3 68.1 12.3 C 67.9 12.3 67.6 12.4 67.3 12.5 C 67.31 12.53 66.7 12.1 66.7 12.1 L 66.8 9.7 L 69.8 9.7 L 69.8 10.6 L 67.8 10.6 C 67.8 10.6 67.7 11.49 67.7 11.5 C 67.9 11.4 68.1 11.4 68.3 11.4 C 68.8 11.4 69.3 11.5 69.6 11.8 C 69.9 12.1 70.1 12.5 70.1 13 C 70.1 13 70.1 13 70.1 13 C 70.1 13.5 69.9 13.9 69.5 14.2 C 69.2 14.5 68.8 14.7 68.2 14.7 Z M 70.7 14.6 L 70.7 13.7 C 70.7 13.7 72.37 12.41 72.4 12.4 C 72.7 12.1 72.9 11.9 73 11.8 C 73.2 11.6 73.2 11.4 73.2 11.2 C 73.2 11 73.2 10.9 73 10.8 C 72.9 10.7 72.8 10.6 72.6 10.6 C 72.4 10.6 72.2 10.6 72.1 10.7 C 71.9 10.8 71.8 11 71.6 11.3 C 71.6 11.3 70.8 10.6 70.8 10.6 C 71.1 10.3 71.3 10 71.6 9.9 C 71.9 9.7 72.2 9.6 72.6 9.6 C 73.1 9.6 73.5 9.8 73.9 10 C 74.2 10.3 74.3 10.7 74.3 11.1 C 74.3 11.1 74.3 11.2 74.3 11.2 C 74.3 11.5 74.2 11.9 74 12.1 C 73.9 12.4 73.5 12.7 73 13.1 C 73.03 13.05 72.2 13.7 72.2 13.7 L 74.4 13.7 L 74.4 14.6 L 70.7 14.6 Z " stroke="none" fill="#000"/>  </g>  <g id="Polygon357224">    <path d="M 2.3 5.7 C 1.5 5.7 0.8 5.4 0.3 4.9 C 0.3 4.9 0.9 4.1 0.9 4.1 C 1.4 4.5 1.9 4.7 2.4 4.7 C 2.6 4.7 2.7 4.7 2.9 4.6 C 3 4.5 3.1 4.4 3.1 4.3 C 3.1 4.3 3.1 4.2 3.1 4.2 C 3.1 4.1 3 4 2.9 3.9 C 2.7 3.8 2.5 3.7 2.1 3.6 C 1.8 3.5 1.6 3.5 1.4 3.4 C 1.2 3.3 1.1 3.3 0.9 3.1 C 0.7 3 0.6 2.9 0.6 2.7 C 0.5 2.6 0.4 2.4 0.4 2.1 C 0.4 2.1 0.4 2.1 0.4 2.1 C 0.4 1.7 0.6 1.3 0.9 1 C 1.2 0.8 1.7 0.6 2.2 0.6 C 2.9 0.6 3.5 0.8 4 1.3 C 4 1.3 3.4 2.1 3.4 2.1 C 3 1.7 2.5 1.6 2.1 1.6 C 1.9 1.6 1.8 1.6 1.7 1.7 C 1.6 1.8 1.5 1.9 1.5 2 C 1.5 2 1.5 2 1.5 2 C 1.5 2.2 1.6 2.3 1.7 2.4 C 1.9 2.5 2.1 2.6 2.6 2.7 C 3.1 2.8 3.5 3 3.8 3.2 C 4 3.4 4.1 3.7 4.1 4.1 C 4.1 4.1 4.1 4.2 4.1 4.2 C 4.1 4.6 4 5 3.6 5.3 C 3.3 5.5 2.9 5.7 2.3 5.7 Z M 8.3 5 C 7.9 5.5 7.4 5.7 6.7 5.7 C 6.2 5.7 5.7 5.5 5.3 5.1 C 5 4.8 4.8 4.3 4.8 3.7 C 4.8 3.7 4.8 3.7 4.8 3.7 C 4.8 3.2 4.9 2.7 5.3 2.3 C 5.6 2 6.1 1.8 6.6 1.8 C 7.2 1.8 7.7 2 8 2.4 C 8.3 2.8 8.5 3.2 8.5 3.8 C 8.5 3.9 8.5 4 8.4 4.1 C 8.4 4.1 5.8 4.1 5.8 4.1 C 5.9 4.3 6 4.5 6.1 4.6 C 6.3 4.8 6.5 4.8 6.7 4.8 C 7.1 4.8 7.4 4.7 7.7 4.4 C 7.66 4.44 8.3 5 8.3 5 C 8.3 5 8.27 4.98 8.3 5 Z M 5.8 3.4 C 5.8 3.4 7.4 3.4 7.4 3.4 C 7.4 3.2 7.3 3 7.2 2.8 C 7 2.7 6.8 2.6 6.6 2.6 C 6.4 2.6 6.2 2.7 6.1 2.8 C 5.9 3 5.9 3.2 5.8 3.4 Z M 9.2 6.7 L 9.2 1.8 L 10.3 1.8 C 10.3 1.8 10.31 2.39 10.3 2.4 C 10.6 2 11 1.8 11.5 1.8 C 11.9 1.8 12.3 2 12.7 2.3 C 13 2.6 13.2 3.1 13.2 3.7 C 13.2 3.7 13.2 3.7 13.2 3.7 C 13.2 4.3 13 4.8 12.7 5.1 C 12.4 5.5 12 5.7 11.5 5.7 C 11 5.7 10.6 5.5 10.3 5.1 C 10.31 5.11 10.3 6.7 10.3 6.7 L 9.2 6.7 Z M 10.3 3.7 C 10.3 4 10.4 4.3 10.6 4.5 C 10.7 4.7 11 4.8 11.2 4.8 C 11.5 4.8 11.7 4.7 11.9 4.5 C 12 4.3 12.1 4 12.1 3.7 C 12.1 3.7 12.1 3.7 12.1 3.7 C 12.1 3.4 12 3.2 11.9 3 C 11.7 2.8 11.5 2.7 11.2 2.7 C 11 2.7 10.7 2.8 10.6 3 C 10.4 3.2 10.3 3.4 10.3 3.7 C 10.3 3.72 10.3 3.7 10.3 3.7 C 10.3 3.7 10.3 3.73 10.3 3.7 Z M 17.3 5 C 16.9 5.5 16.4 5.7 15.7 5.7 C 15.2 5.7 14.7 5.5 14.3 5.1 C 14 4.8 13.8 4.3 13.8 3.7 C 13.8 3.7 13.8 3.7 13.8 3.7 C 13.8 3.2 14 2.7 14.3 2.3 C 14.7 2 15.1 1.8 15.6 1.8 C 16.2 1.8 16.7 2 17 2.4 C 17.3 2.8 17.5 3.2 17.5 3.8 C 17.5 3.9 17.5 4 17.5 4.1 C 17.5 4.1 14.8 4.1 14.8 4.1 C 14.9 4.3 15 4.5 15.2 4.6 C 15.3 4.8 15.5 4.8 15.8 4.8 C 16.1 4.8 16.4 4.7 16.7 4.4 C 16.67 4.44 17.3 5 17.3 5 C 17.3 5 17.28 4.98 17.3 5 Z M 14.8 3.4 C 14.8 3.4 16.4 3.4 16.4 3.4 C 16.4 3.2 16.3 3 16.2 2.8 C 16 2.7 15.9 2.6 15.6 2.6 C 15.4 2.6 15.2 2.7 15.1 2.8 C 15 3 14.9 3.2 14.8 3.4 Z M 20.4 5.4 C 20.1 5.6 19.8 5.7 19.5 5.7 C 19.2 5.7 18.9 5.6 18.7 5.4 C 18.5 5.2 18.4 4.9 18.4 4.5 C 18.44 4.54 18.4 2.8 18.4 2.8 L 18 2.8 L 18 1.8 L 18.4 1.8 L 18.4 0.9 L 19.5 0.9 L 19.5 1.8 L 20.4 1.8 L 20.4 2.8 L 19.5 2.8 C 19.5 2.8 19.5 4.36 19.5 4.4 C 19.5 4.6 19.6 4.7 19.8 4.7 C 20 4.7 20.2 4.7 20.4 4.6 C 20.37 4.59 20.4 5.4 20.4 5.4 C 20.4 5.4 20.37 5.45 20.4 5.4 Z M 23.1 3.9 L 23.1 2.9 L 26.1 2.9 L 26.1 3.9 L 23.1 3.9 Z M 29.2 5.6 L 29.2 0.7 L 30.3 0.7 L 30.3 5.6 L 29.2 5.6 Z M 31.5 5.6 L 31.5 0.7 L 32.5 0.7 L 34.8 3.7 L 34.8 0.7 L 35.9 0.7 L 35.9 5.6 L 35 5.6 L 32.6 2.5 L 32.6 5.6 L 31.5 5.6 Z M 41.3 3.5 C 41.3 4.2 41.1 4.7 40.7 5.1 C 40.3 5.5 39.8 5.7 39.1 5.7 C 38.4 5.7 37.9 5.5 37.5 5.1 C 37.2 4.8 37 4.2 37 3.5 C 36.98 3.5 37 0.7 37 0.7 L 38.1 0.7 C 38.1 0.7 38.06 3.47 38.1 3.5 C 38.1 3.9 38.2 4.2 38.3 4.4 C 38.5 4.6 38.8 4.7 39.1 4.7 C 39.5 4.7 39.7 4.6 39.9 4.4 C 40.1 4.2 40.2 3.9 40.2 3.5 C 40.17 3.51 40.2 0.7 40.2 0.7 L 41.3 0.7 L 41.3 3.5 C 41.3 3.5 41.25 3.46 41.3 3.5 Z " stroke="none" fill="#000"/>  </g></svg>