<?xml version="1.0" standalone="no"?><!DOCTYPE svg PUBLIC "-//W3C//DTD SVG 1.1//EN" "http://www.w3.org/Graphics/SVG/1.1/DTD/svg11.dtd"><svg xmlns="http://www.w3.org/2000/svg" version="1.1" width="64px" height="36.4px" viewBox="0 -2 64 36.4" style="top:-2px">  <desc>r n Kodu: ZD 330130 Renk: Black</desc>  <defs/>  <g id="Polygon395314">    <path d="M 0.7 23.6 L 0.7 18.7 C 0.7 18.7 2.8 18.7 2.8 18.7 C 3.4 18.7 3.9 18.9 4.2 19.2 C 4.4 19.4 4.6 19.8 4.6 20.2 C 4.6 20.2 4.6 20.2 4.6 20.2 C 4.6 20.6 4.4 20.9 4.2 21.1 C 4 21.4 3.6 21.5 3.2 21.6 C 3.24 21.6 4.7 23.6 4.7 23.6 L 4.1 23.6 L 2.6 21.7 L 1.2 21.7 L 1.2 23.6 L 0.7 23.6 Z M 1.2 21.2 C 1.2 21.2 2.75 21.2 2.8 21.2 C 3.1 21.2 3.4 21.1 3.7 20.9 C 3.9 20.7 4 20.5 4 20.2 C 4 20.2 4 20.2 4 20.2 C 4 19.9 3.9 19.6 3.7 19.5 C 3.5 19.3 3.2 19.2 2.8 19.2 C 2.76 19.21 1.2 19.2 1.2 19.2 L 1.2 21.2 Z M 8.7 23 C 8.3 23.5 7.8 23.7 7.2 23.7 C 6.7 23.7 6.2 23.5 5.9 23.2 C 5.5 22.8 5.4 22.4 5.4 21.8 C 5.4 21.8 5.4 21.8 5.4 21.8 C 5.4 21.3 5.5 20.8 5.9 20.4 C 6.2 20.1 6.6 19.9 7.1 19.9 C 7.6 19.9 8 20.1 8.3 20.4 C 8.6 20.8 8.8 21.3 8.8 21.8 C 8.8 21.9 8.8 21.9 8.8 22 C 8.8 22 5.9 22 5.9 22 C 6 22.4 6.1 22.7 6.3 22.9 C 6.6 23.1 6.9 23.2 7.2 23.2 C 7.6 23.2 8 23 8.3 22.7 C 8.33 22.7 8.7 23 8.7 23 C 8.7 23 8.67 23 8.7 23 Z M 5.9 21.6 C 5.9 21.6 8.2 21.6 8.2 21.6 C 8.2 21.2 8.1 20.9 7.9 20.7 C 7.7 20.5 7.4 20.4 7.1 20.4 C 6.8 20.4 6.5 20.5 6.3 20.7 C 6.1 20.9 6 21.2 5.9 21.6 Z M 9.7 23.6 L 9.7 20 L 10.3 20 C 10.3 20 10.28 20.61 10.3 20.6 C 10.6 20.1 11 19.9 11.5 19.9 C 11.9 19.9 12.3 20 12.5 20.3 C 12.8 20.6 12.9 20.9 12.9 21.4 C 12.9 21.35 12.9 23.6 12.9 23.6 L 12.4 23.6 C 12.4 23.6 12.36 21.49 12.4 21.5 C 12.4 21.1 12.3 20.9 12.1 20.7 C 11.9 20.5 11.7 20.4 11.4 20.4 C 11 20.4 10.8 20.5 10.6 20.7 C 10.4 20.9 10.3 21.2 10.3 21.5 C 10.28 21.53 10.3 23.6 10.3 23.6 L 9.7 23.6 Z M 14 23.6 L 14 18.5 L 14.6 18.5 L 14.6 22 L 16.5 20 L 17.2 20 L 15.7 21.5 L 17.3 23.6 L 16.6 23.6 L 15.3 21.9 L 14.6 22.7 L 14.6 23.6 L 14 23.6 Z M 18 20.7 L 18 20 L 18.6 20 L 18.6 20.7 L 18 20.7 Z M 18 23.6 L 18 22.9 L 18.6 22.9 L 18.6 23.6 L 18 23.6 Z M 22 23.6 L 22 18.7 C 22 18.7 24.09 18.7 24.1 18.7 C 24.6 18.7 25.1 18.8 25.4 19.1 C 25.6 19.3 25.7 19.6 25.7 19.9 C 25.7 19.9 25.7 19.9 25.7 19.9 C 25.7 20.5 25.4 20.8 24.9 21.1 C 25.6 21.3 26 21.7 26 22.2 C 26 22.2 26 22.3 26 22.3 C 26 22.7 25.8 23 25.5 23.2 C 25.2 23.5 24.7 23.6 24.2 23.6 C 24.18 23.6 22 23.6 22 23.6 Z M 25.1 20 C 25.1 20 25.1 20 25.1 20 C 25.1 19.7 25 19.6 24.8 19.4 C 24.7 19.3 24.4 19.2 24 19.2 C 24.04 19.2 22.5 19.2 22.5 19.2 L 22.5 20.9 C 22.5 20.9 24 20.88 24 20.9 C 24.3 20.9 24.6 20.8 24.8 20.7 C 25 20.5 25.1 20.3 25.1 20 Z M 25.4 22.2 C 25.4 22.2 25.4 22.2 25.4 22.2 C 25.4 21.9 25.3 21.7 25.1 21.6 C 24.8 21.4 24.5 21.4 24.1 21.4 C 24.09 21.37 22.5 21.4 22.5 21.4 L 22.5 23.1 C 22.5 23.1 24.19 23.1 24.2 23.1 C 24.6 23.1 24.9 23 25.1 22.9 C 25.3 22.7 25.4 22.5 25.4 22.2 Z M 27 23.6 L 27 18.5 L 27.6 18.5 L 27.6 23.6 L 27 23.6 Z M 31.2 23.1 C 30.9 23.5 30.4 23.7 29.9 23.7 C 29.5 23.7 29.2 23.6 28.9 23.4 C 28.7 23.2 28.5 22.9 28.5 22.5 C 28.5 22.5 28.5 22.5 28.5 22.5 C 28.5 22.2 28.7 21.9 29 21.7 C 29.2 21.5 29.6 21.4 30.1 21.4 C 30.4 21.4 30.8 21.4 31.2 21.5 C 31.2 21.5 31.2 21.4 31.2 21.4 C 31.2 21.1 31.1 20.8 30.9 20.7 C 30.7 20.5 30.5 20.4 30.1 20.4 C 29.7 20.4 29.4 20.5 29 20.7 C 29 20.7 28.9 20.2 28.9 20.2 C 29.3 20 29.7 19.9 30.2 19.9 C 30.7 19.9 31.1 20.1 31.3 20.3 C 31.6 20.6 31.7 20.9 31.7 21.4 C 31.71 21.39 31.7 23.6 31.7 23.6 L 31.2 23.6 L 31.2 23.1 C 31.2 23.1 31.19 23.05 31.2 23.1 Z M 30 23.2 C 30.3 23.2 30.6 23.2 30.8 23 C 31.1 22.8 31.2 22.6 31.2 22.3 C 31.2 22.3 31.2 21.9 31.2 21.9 C 30.8 21.8 30.5 21.8 30.1 21.8 C 29.8 21.8 29.5 21.8 29.4 22 C 29.2 22.1 29.1 22.3 29.1 22.5 C 29.1 22.5 29.1 22.5 29.1 22.5 C 29.1 22.7 29.2 22.9 29.3 23.1 C 29.5 23.2 29.7 23.2 30 23.2 Z M 36 23 C 35.6 23.5 35.1 23.7 34.5 23.7 C 34 23.7 33.5 23.5 33.2 23.1 C 32.8 22.8 32.6 22.3 32.6 21.8 C 32.6 21.8 32.6 21.8 32.6 21.8 C 32.6 21.3 32.8 20.8 33.2 20.5 C 33.5 20.1 34 19.9 34.5 19.9 C 35 19.9 35.5 20.1 35.9 20.5 C 35.9 20.5 35.6 20.9 35.6 20.9 C 35.2 20.6 34.9 20.4 34.5 20.4 C 34.1 20.4 33.8 20.5 33.6 20.8 C 33.3 21.1 33.2 21.4 33.2 21.8 C 33.2 21.8 33.2 21.8 33.2 21.8 C 33.2 22.2 33.3 22.5 33.6 22.8 C 33.8 23.1 34.1 23.2 34.5 23.2 C 34.9 23.2 35.3 23 35.6 22.7 C 35.62 22.66 36 23 36 23 C 36 23 35.97 22.98 36 23 Z M 36.9 23.6 L 36.9 18.5 L 37.4 18.5 L 37.4 22 L 39.3 20 L 40 20 L 38.5 21.5 L 40.1 23.6 L 39.4 23.6 L 38.1 21.9 L 37.4 22.7 L 37.4 23.6 L 36.9 23.6 Z " stroke="none" fill="#000"/>  </g>  <g id="Polygon395313">    <path d="M 0.4 14.6 L 0.4 13.8 L 3.1 10.6 L 0.5 10.6 L 0.5 9.7 L 4.5 9.7 L 4.5 10.5 L 1.8 13.7 L 4.5 13.7 L 4.5 14.6 L 0.4 14.6 Z M 5.5 14.6 L 5.5 9.7 C 5.5 9.7 7.45 9.7 7.5 9.7 C 8.2 9.7 8.8 9.9 9.3 10.4 C 9.8 10.9 10.1 11.4 10.1 12.1 C 10.1 12.1 10.1 12.1 10.1 12.1 C 10.1 12.8 9.8 13.4 9.3 13.9 C 8.8 14.4 8.2 14.6 7.5 14.6 C 7.45 14.6 5.5 14.6 5.5 14.6 Z M 7.5 10.7 C 7.45 10.67 6.6 10.7 6.6 10.7 L 6.6 13.6 C 6.6 13.6 7.45 13.63 7.5 13.6 C 7.9 13.6 8.2 13.5 8.5 13.2 C 8.8 13 8.9 12.6 8.9 12.2 C 8.9 12.2 8.9 12.1 8.9 12.1 C 8.9 11.7 8.8 11.4 8.5 11.1 C 8.2 10.8 7.9 10.7 7.5 10.7 Z M 14.7 14.7 C 13.9 14.7 13.3 14.4 12.8 13.8 C 12.8 13.8 13.5 13.1 13.5 13.1 C 13.9 13.5 14.3 13.7 14.7 13.7 C 14.9 13.7 15.1 13.7 15.2 13.6 C 15.4 13.4 15.4 13.3 15.4 13.1 C 15.4 13.1 15.4 13.1 15.4 13.1 C 15.4 12.9 15.3 12.8 15.2 12.6 C 15 12.5 14.8 12.5 14.5 12.5 C 14.45 12.49 14 12.5 14 12.5 L 13.8 11.8 L 15 10.6 L 13.1 10.6 L 13.1 9.7 L 16.4 9.7 L 16.4 10.5 C 16.4 10.5 15.15 11.69 15.2 11.7 C 16 11.8 16.5 12.3 16.5 13.1 C 16.5 13.1 16.5 13.1 16.5 13.1 C 16.5 13.6 16.3 13.9 16 14.2 C 15.7 14.5 15.2 14.7 14.7 14.7 Z M 19.1 14.7 C 18.3 14.7 17.6 14.4 17.1 13.8 C 17.1 13.8 17.9 13.1 17.9 13.1 C 18.2 13.5 18.6 13.7 19.1 13.7 C 19.3 13.7 19.4 13.7 19.6 13.6 C 19.7 13.4 19.8 13.3 19.8 13.1 C 19.8 13.1 19.8 13.1 19.8 13.1 C 19.8 12.9 19.7 12.8 19.5 12.6 C 19.3 12.5 19.1 12.5 18.8 12.5 C 18.8 12.49 18.4 12.5 18.4 12.5 L 18.2 11.8 L 19.4 10.6 L 17.4 10.6 L 17.4 9.7 L 20.7 9.7 L 20.7 10.5 C 20.7 10.5 19.5 11.69 19.5 11.7 C 20.4 11.8 20.8 12.3 20.8 13.1 C 20.8 13.1 20.8 13.1 20.8 13.1 C 20.8 13.6 20.7 13.9 20.3 14.2 C 20 14.5 19.6 14.7 19.1 14.7 Z M 23.8 14.7 C 23.1 14.7 22.6 14.4 22.2 14 C 21.8 13.5 21.6 12.9 21.6 12.2 C 21.6 12.2 21.6 12.1 21.6 12.1 C 21.6 11.4 21.8 10.8 22.2 10.3 C 22.6 9.9 23.1 9.6 23.8 9.6 C 24.4 9.6 24.9 9.9 25.4 10.3 C 25.8 10.8 26 11.4 26 12.1 C 26 12.1 26 12.1 26 12.1 C 26 12.9 25.8 13.5 25.3 14 C 24.9 14.4 24.4 14.7 23.8 14.7 Z M 22.7 12.1 C 22.7 12.6 22.8 13 23 13.3 C 23.2 13.6 23.5 13.7 23.8 13.7 C 24.1 13.7 24.4 13.6 24.6 13.3 C 24.8 13 24.8 12.6 24.8 12.2 C 24.8 12.2 24.8 12.1 24.8 12.1 C 24.8 11.7 24.7 11.3 24.5 11 C 24.3 10.7 24.1 10.6 23.8 10.6 C 23.5 10.6 23.2 10.7 23 11 C 22.8 11.3 22.7 11.7 22.7 12.1 C 22.71 12.14 22.7 12.1 22.7 12.1 C 22.7 12.1 22.71 12.15 22.7 12.1 Z M 27.5 14.6 L 27.5 10.8 L 26.7 11 L 26.5 10.1 L 27.9 9.7 L 28.6 9.7 L 28.6 14.6 L 27.5 14.6 Z M 31.4 14.7 C 30.6 14.7 30 14.4 29.5 13.8 C 29.5 13.8 30.3 13.1 30.3 13.1 C 30.6 13.5 31 13.7 31.4 13.7 C 31.7 13.7 31.8 13.7 31.9 13.6 C 32.1 13.4 32.1 13.3 32.1 13.1 C 32.1 13.1 32.1 13.1 32.1 13.1 C 32.1 12.9 32.1 12.8 31.9 12.6 C 31.7 12.5 31.5 12.5 31.2 12.5 C 31.18 12.49 30.7 12.5 30.7 12.5 L 30.6 11.8 L 31.7 10.6 L 29.8 10.6 L 29.8 9.7 L 33.1 9.7 L 33.1 10.5 C 33.1 10.5 31.88 11.69 31.9 11.7 C 32.8 11.8 33.2 12.3 33.2 13.1 C 33.2 13.1 33.2 13.1 33.2 13.1 C 33.2 13.6 33 13.9 32.7 14.2 C 32.4 14.5 32 14.7 31.4 14.7 Z M 36.1 14.7 C 35.5 14.7 35 14.4 34.6 14 C 34.2 13.5 34 12.9 34 12.2 C 34 12.2 34 12.1 34 12.1 C 34 11.4 34.2 10.8 34.6 10.3 C 35 9.9 35.5 9.6 36.2 9.6 C 36.8 9.6 37.3 9.9 37.7 10.3 C 38.1 10.8 38.3 11.4 38.3 12.1 C 38.3 12.1 38.3 12.1 38.3 12.1 C 38.3 12.9 38.1 13.5 37.7 14 C 37.3 14.4 36.8 14.7 36.1 14.7 Z M 35.1 12.1 C 35.1 12.6 35.2 13 35.4 13.3 C 35.6 13.6 35.8 13.7 36.2 13.7 C 36.5 13.7 36.7 13.6 36.9 13.3 C 37.1 13 37.2 12.6 37.2 12.2 C 37.2 12.2 37.2 12.1 37.2 12.1 C 37.2 11.7 37.1 11.3 36.9 11 C 36.7 10.7 36.5 10.6 36.1 10.6 C 35.8 10.6 35.6 10.7 35.4 11 C 35.2 11.3 35.1 11.7 35.1 12.1 C 35.08 12.14 35.1 12.1 35.1 12.1 C 35.1 12.1 35.08 12.15 35.1 12.1 Z " stroke="none" fill="#000"/>  </g>  <g id="Polygon395312">    <path d="M 3 0.3 L 3 -0.4 L 3.6 -0.4 L 3.6 0.3 L 3 0.3 Z M 1.7 0.3 L 1.7 -0.4 L 2.3 -0.4 L 2.3 0.3 L 1.7 0.3 Z M 2.7 5.7 C 2 5.7 1.5 5.5 1.2 5.1 C 0.8 4.7 0.6 4.2 0.6 3.5 C 0.62 3.55 0.6 0.7 0.6 0.7 L 1.2 0.7 C 1.2 0.7 1.17 3.51 1.2 3.5 C 1.2 4 1.3 4.4 1.6 4.7 C 1.8 5 2.2 5.2 2.7 5.2 C 3.1 5.2 3.5 5 3.8 4.8 C 4 4.5 4.1 4.1 4.1 3.5 C 4.14 3.55 4.1 0.7 4.1 0.7 L 4.7 0.7 C 4.7 0.7 4.7 3.51 4.7 3.5 C 4.7 4.2 4.5 4.7 4.1 5.1 C 3.8 5.5 3.3 5.7 2.7 5.7 Z M 5.9 5.6 L 5.9 2 L 6.5 2 C 6.5 2 6.45 2.93 6.5 2.9 C 6.6 2.6 6.8 2.4 7 2.2 C 7.3 2 7.6 1.9 7.9 1.9 C 7.93 1.92 7.9 2.5 7.9 2.5 C 7.9 2.5 7.89 2.5 7.9 2.5 C 7.5 2.5 7.1 2.6 6.9 2.9 C 6.6 3.2 6.5 3.6 6.5 4.2 C 6.45 4.16 6.5 5.6 6.5 5.6 L 5.9 5.6 Z M 10.6 1.4 L 10.6 0.8 L 11.2 0.8 L 11.2 1.4 L 10.6 1.4 Z M 9.3 1.4 L 9.3 0.8 L 10 0.8 L 10 1.4 L 9.3 1.4 Z M 11.3 5 C 11 5.4 10.6 5.7 10.1 5.7 C 9.7 5.7 9.3 5.5 9.1 5.3 C 8.8 5 8.7 4.7 8.7 4.2 C 8.69 4.23 8.7 2 8.7 2 L 9.2 2 C 9.2 2 9.23 4.09 9.2 4.1 C 9.2 4.4 9.3 4.7 9.5 4.9 C 9.7 5.1 9.9 5.2 10.2 5.2 C 10.5 5.2 10.8 5.1 11 4.9 C 11.2 4.7 11.3 4.4 11.3 4.1 C 11.32 4.05 11.3 2 11.3 2 L 11.9 2 L 11.9 5.6 L 11.3 5.6 L 11.3 5 C 11.3 5 11.32 4.97 11.3 5 Z M 13.1 5.6 L 13.1 2 L 13.6 2 C 13.6 2 13.6 2.61 13.6 2.6 C 13.9 2.1 14.3 1.9 14.8 1.9 C 15.3 1.9 15.6 2 15.9 2.3 C 16.1 2.6 16.2 2.9 16.2 3.4 C 16.23 3.35 16.2 5.6 16.2 5.6 L 15.7 5.6 C 15.7 5.6 15.69 3.49 15.7 3.5 C 15.7 3.1 15.6 2.9 15.4 2.7 C 15.2 2.5 15 2.4 14.7 2.4 C 14.4 2.4 14.1 2.5 13.9 2.7 C 13.7 2.9 13.6 3.2 13.6 3.5 C 13.6 3.53 13.6 5.6 13.6 5.6 L 13.1 5.6 Z M 19.6 5.6 L 19.6 0.7 L 20.1 0.7 L 20.1 3.6 L 22.9 0.7 L 23.7 0.7 L 21.5 2.8 L 23.7 5.6 L 23 5.6 L 21.2 3.2 L 20.1 4.3 L 20.1 5.6 L 19.6 5.6 Z M 25.9 5.7 C 25.4 5.7 25 5.5 24.6 5.1 C 24.3 4.8 24.1 4.3 24.1 3.8 C 24.1 3.8 24.1 3.8 24.1 3.8 C 24.1 3.3 24.3 2.8 24.6 2.5 C 25 2.1 25.4 1.9 26 1.9 C 26.5 1.9 26.9 2.1 27.3 2.5 C 27.7 2.8 27.8 3.3 27.8 3.8 C 27.8 3.8 27.8 3.8 27.8 3.8 C 27.8 4.3 27.7 4.8 27.3 5.1 C 26.9 5.5 26.5 5.7 25.9 5.7 Z M 26 5.2 C 26.3 5.2 26.7 5.1 26.9 4.8 C 27.2 4.5 27.3 4.2 27.3 3.8 C 27.3 3.8 27.3 3.8 27.3 3.8 C 27.3 3.4 27.2 3.1 26.9 2.8 C 26.6 2.5 26.3 2.4 25.9 2.4 C 25.6 2.4 25.2 2.5 25 2.8 C 24.8 3.1 24.6 3.4 24.6 3.8 C 24.6 3.8 24.6 3.8 24.6 3.8 C 24.6 4.2 24.8 4.5 25 4.8 C 25.3 5.1 25.6 5.2 26 5.2 Z M 31.7 4.9 C 31.4 5.4 30.9 5.7 30.3 5.7 C 29.9 5.7 29.5 5.5 29.1 5.2 C 28.8 4.8 28.6 4.4 28.6 3.8 C 28.6 3.8 28.6 3.8 28.6 3.8 C 28.6 3.2 28.8 2.8 29.1 2.4 C 29.5 2.1 29.9 1.9 30.3 1.9 C 30.9 1.9 31.4 2.2 31.7 2.7 C 31.72 2.67 31.7 0.5 31.7 0.5 L 32.3 0.5 L 32.3 5.6 L 31.7 5.6 L 31.7 4.9 C 31.7 4.9 31.72 4.87 31.7 4.9 Z M 30.4 5.2 C 30.8 5.2 31.1 5.1 31.4 4.8 C 31.6 4.5 31.7 4.2 31.7 3.8 C 31.7 3.8 31.7 3.8 31.7 3.8 C 31.7 3.4 31.6 3 31.4 2.8 C 31.1 2.5 30.8 2.4 30.4 2.4 C 30.1 2.4 29.8 2.5 29.5 2.8 C 29.3 3 29.2 3.4 29.2 3.8 C 29.2 3.8 29.2 3.8 29.2 3.8 C 29.2 4.2 29.3 4.6 29.5 4.8 C 29.8 5.1 30.1 5.2 30.4 5.2 Z M 36 5 C 35.7 5.4 35.3 5.7 34.8 5.7 C 34.4 5.7 34 5.5 33.8 5.3 C 33.5 5 33.4 4.7 33.4 4.2 C 33.41 4.23 33.4 2 33.4 2 L 33.9 2 C 33.9 2 33.95 4.09 33.9 4.1 C 33.9 4.4 34 4.7 34.2 4.9 C 34.4 5.1 34.6 5.2 35 5.2 C 35.3 5.2 35.5 5.1 35.7 4.9 C 35.9 4.7 36 4.4 36 4.1 C 36.04 4.05 36 2 36 2 L 36.6 2 L 36.6 5.6 L 36 5.6 L 36 5 C 36 5 36.04 4.97 36 5 Z M 37.7 2.7 L 37.7 2 L 38.4 2 L 38.4 2.7 L 37.7 2.7 Z M 37.7 5.6 L 37.7 4.9 L 38.4 4.9 L 38.4 5.6 L 37.7 5.6 Z " stroke="none" fill="#000"/>  </g></svg>