<?xml version="1.0" standalone="no"?><!DOCTYPE svg PUBLIC "-//W3C//DTD SVG 1.1//EN" "http://www.w3.org/Graphics/SVG/1.1/DTD/svg11.dtd"><svg xmlns="http://www.w3.org/2000/svg" version="1.1" width="16.2px" height="12.4px" viewBox="0 -1 16.2 12.4" style="top:-1px">  <desc> </desc>  <defs/>  <g id="Polygon424768">    <path d="M 1.3 7.5 L 1.3 3.1 L 0.3 3.4 L 0.2 3 L 1.4 2.5 L 1.8 2.5 L 1.8 7.5 L 1.3 7.5 Z M 7.1 5 C 7.1 5.7 6.9 6.3 6.5 6.8 C 6.1 7.3 5.6 7.6 5 7.6 C 4.4 7.6 3.9 7.3 3.5 6.8 C 3.1 6.3 2.9 5.7 2.9 5 C 2.9 5 2.9 5 2.9 5 C 2.9 4.3 3.1 3.7 3.5 3.2 C 3.9 2.7 4.4 2.5 5 2.5 C 5.6 2.5 6.1 2.7 6.5 3.2 C 6.9 3.7 7.1 4.3 7.1 5 C 7.08 5.01 7.1 5 7.1 5 C 7.1 5 7.08 5.03 7.1 5 Z M 3.5 5 C 3.5 5.6 3.7 6.1 3.9 6.5 C 4.2 6.9 4.6 7.1 5 7.1 C 5.5 7.1 5.8 6.9 6.1 6.5 C 6.4 6.1 6.5 5.6 6.5 5 C 6.5 5 6.5 5 6.5 5 C 6.5 4.5 6.4 4 6.1 3.6 C 5.8 3.2 5.4 3 5 3 C 4.6 3 4.2 3.2 3.9 3.6 C 3.7 4 3.5 4.5 3.5 5 C 3.51 5.01 3.5 5 3.5 5 C 3.5 5 3.51 5.03 3.5 5 Z M 10.5 7.5 L 10.5 6.3 L 8 6.3 L 7.8 5.9 L 10.6 2.5 L 11.1 2.5 L 11.1 5.9 L 11.8 5.9 L 11.8 6.3 L 11.1 6.3 L 11.1 7.5 L 10.5 7.5 Z M 8.5 5.9 L 10.5 5.9 L 10.5 3.3 L 8.5 5.9 Z " stroke="none" fill="#000"/>  </g></svg>