<?xml version="1.0" standalone="no"?><!DOCTYPE svg PUBLIC "-//W3C//DTD SVG 1.1//EN" "http://www.w3.org/Graphics/SVG/1.1/DTD/svg11.dtd"><svg xmlns="http://www.w3.org/2000/svg" version="1.1" width="389px" height="31.4px" viewBox="0 -3 389 31.4" style="top:-3px">  <desc>ama r Sepeti – Ume Malzeme: PP / l ler: D 40 cm, H 54 cm / Hacim: 60 litre / Adet: 2’li Set | Tasar m: VE2</desc>  <defs/>  <g id="Polygon406233">    <path d="M 0.7 17.6 L 0.7 12.7 L 1.3 12.7 L 3 15.4 L 4.8 12.7 L 5.4 12.7 L 5.4 17.6 L 4.8 17.6 L 4.8 13.6 L 3 16.3 L 3 16.3 L 1.2 13.6 L 1.2 17.6 L 0.7 17.6 Z M 9.1 17.1 C 8.7 17.5 8.3 17.7 7.8 17.7 C 7.4 17.7 7.1 17.6 6.8 17.4 C 6.5 17.2 6.4 16.9 6.4 16.5 C 6.4 16.5 6.4 16.5 6.4 16.5 C 6.4 16.2 6.5 15.9 6.8 15.7 C 7.1 15.5 7.5 15.4 8 15.4 C 8.3 15.4 8.7 15.4 9.1 15.5 C 9.1 15.5 9.1 15.4 9.1 15.4 C 9.1 15.1 9 14.8 8.8 14.7 C 8.6 14.5 8.3 14.4 8 14.4 C 7.6 14.4 7.3 14.5 6.9 14.7 C 6.9 14.7 6.7 14.2 6.7 14.2 C 7.2 14 7.6 13.9 8 13.9 C 8.6 13.9 8.9 14.1 9.2 14.3 C 9.5 14.6 9.6 14.9 9.6 15.4 C 9.58 15.39 9.6 17.6 9.6 17.6 L 9.1 17.6 L 9.1 17.1 C 9.1 17.1 9.06 17.05 9.1 17.1 Z M 7.9 17.2 C 8.2 17.2 8.5 17.2 8.7 17 C 9 16.8 9.1 16.6 9.1 16.3 C 9.1 16.3 9.1 15.9 9.1 15.9 C 8.7 15.8 8.4 15.8 8 15.8 C 7.7 15.8 7.4 15.8 7.2 16 C 7 16.1 7 16.3 7 16.5 C 7 16.5 7 16.5 7 16.5 C 7 16.7 7 16.9 7.2 17.1 C 7.4 17.2 7.6 17.2 7.9 17.2 Z M 10.8 17.6 L 10.8 12.5 L 11.3 12.5 L 11.3 17.6 L 10.8 17.6 Z M 12.4 17.6 L 12.4 17.3 L 14.8 14.4 L 12.4 14.4 L 12.4 14 L 15.5 14 L 15.5 14.3 L 13.1 17.1 L 15.5 17.1 L 15.5 17.6 L 12.4 17.6 Z M 19.4 17 C 19 17.5 18.5 17.7 17.9 17.7 C 17.4 17.7 17 17.5 16.7 17.2 C 16.3 16.8 16.1 16.4 16.1 15.8 C 16.1 15.8 16.1 15.8 16.1 15.8 C 16.1 15.3 16.3 14.8 16.6 14.4 C 17 14.1 17.4 13.9 17.9 13.9 C 18.4 13.9 18.8 14.1 19.1 14.4 C 19.4 14.8 19.6 15.3 19.6 15.8 C 19.6 15.9 19.6 15.9 19.6 16 C 19.6 16 16.7 16 16.7 16 C 16.7 16.4 16.9 16.7 17.1 16.9 C 17.3 17.1 17.6 17.2 18 17.2 C 18.4 17.2 18.8 17 19.1 16.7 C 19.1 16.7 19.4 17 19.4 17 C 19.4 17 19.43 17 19.4 17 Z M 16.7 15.6 C 16.7 15.6 19 15.6 19 15.6 C 19 15.2 18.9 14.9 18.7 14.7 C 18.5 14.5 18.2 14.4 17.9 14.4 C 17.5 14.4 17.3 14.5 17.1 14.7 C 16.8 14.9 16.7 15.2 16.7 15.6 Z M 20.5 17.6 L 20.5 14 L 21 14 C 21 14 21.04 14.59 21 14.6 C 21.2 14.4 21.3 14.2 21.5 14.1 C 21.7 14 21.9 13.9 22.2 13.9 C 22.8 13.9 23.1 14.1 23.4 14.6 C 23.7 14.1 24.1 13.9 24.6 13.9 C 25.1 13.9 25.4 14 25.6 14.3 C 25.9 14.6 26 14.9 26 15.4 C 25.99 15.36 26 17.6 26 17.6 L 25.5 17.6 C 25.5 17.6 25.45 15.49 25.5 15.5 C 25.5 15.1 25.4 14.9 25.2 14.7 C 25 14.5 24.8 14.4 24.5 14.4 C 24.2 14.4 24 14.5 23.8 14.7 C 23.6 14.9 23.5 15.2 23.5 15.5 C 23.51 15.51 23.5 17.6 23.5 17.6 L 23 17.6 C 23 17.6 22.98 15.47 23 15.5 C 23 15.1 22.9 14.9 22.7 14.7 C 22.6 14.5 22.3 14.4 22 14.4 C 21.8 14.4 21.5 14.5 21.3 14.7 C 21.1 14.9 21 15.2 21 15.5 C 21.04 15.53 21 17.6 21 17.6 L 20.5 17.6 Z M 30.2 17 C 29.8 17.5 29.3 17.7 28.7 17.7 C 28.2 17.7 27.8 17.5 27.4 17.2 C 27.1 16.8 26.9 16.4 26.9 15.8 C 26.9 15.8 26.9 15.8 26.9 15.8 C 26.9 15.3 27.1 14.8 27.4 14.4 C 27.7 14.1 28.2 13.9 28.7 13.9 C 29.2 13.9 29.6 14.1 29.9 14.4 C 30.2 14.8 30.3 15.3 30.3 15.8 C 30.3 15.9 30.3 15.9 30.3 16 C 30.3 16 27.5 16 27.5 16 C 27.5 16.4 27.6 16.7 27.9 16.9 C 28.1 17.1 28.4 17.2 28.7 17.2 C 29.2 17.2 29.5 17 29.9 16.7 C 29.88 16.7 30.2 17 30.2 17 C 30.2 17 30.21 17 30.2 17 Z M 27.5 15.6 C 27.5 15.6 29.8 15.6 29.8 15.6 C 29.8 15.2 29.7 14.9 29.5 14.7 C 29.3 14.5 29 14.4 28.6 14.4 C 28.3 14.4 28.1 14.5 27.8 14.7 C 27.6 14.9 27.5 15.2 27.5 15.6 Z M 31.2 14.7 L 31.2 14 L 31.9 14 L 31.9 14.7 L 31.2 14.7 Z M 31.2 17.6 L 31.2 16.9 L 31.9 16.9 L 31.9 17.6 L 31.2 17.6 Z M 35.3 17.6 L 35.3 12.7 C 35.3 12.7 37.09 12.7 37.1 12.7 C 37.6 12.7 38.1 12.8 38.4 13.1 C 38.8 13.4 38.9 13.8 38.9 14.3 C 38.9 14.3 38.9 14.3 38.9 14.3 C 38.9 14.8 38.7 15.2 38.4 15.5 C 38 15.7 37.5 15.9 37 15.9 C 36.99 15.87 35.8 15.9 35.8 15.9 L 35.8 17.6 L 35.3 17.6 Z M 35.8 15.4 C 35.8 15.4 37.02 15.37 37 15.4 C 37.4 15.4 37.7 15.3 38 15.1 C 38.2 14.9 38.4 14.6 38.4 14.3 C 38.4 14.3 38.4 14.3 38.4 14.3 C 38.4 13.9 38.2 13.7 38 13.5 C 37.8 13.3 37.4 13.2 37 13.2 C 37.04 13.21 35.8 13.2 35.8 13.2 L 35.8 15.4 Z M 39.9 17.6 L 39.9 12.7 C 39.9 12.7 41.76 12.7 41.8 12.7 C 42.3 12.7 42.8 12.8 43.1 13.1 C 43.4 13.4 43.6 13.8 43.6 14.3 C 43.6 14.3 43.6 14.3 43.6 14.3 C 43.6 14.8 43.4 15.2 43 15.5 C 42.7 15.7 42.2 15.9 41.7 15.9 C 41.67 15.87 40.5 15.9 40.5 15.9 L 40.5 17.6 L 39.9 17.6 Z M 40.5 15.4 C 40.5 15.4 41.69 15.37 41.7 15.4 C 42.1 15.4 42.4 15.3 42.7 15.1 C 42.9 14.9 43 14.6 43 14.3 C 43 14.3 43 14.3 43 14.3 C 43 13.9 42.9 13.7 42.7 13.5 C 42.4 13.3 42.1 13.2 41.7 13.2 C 41.72 13.21 40.5 13.2 40.5 13.2 L 40.5 15.4 Z M 45.9 18.5 L 49.1 12 L 49.6 12 L 46.4 18.5 L 45.9 18.5 Z M 55 12.2 L 55 11.6 L 55.6 11.6 L 55.6 12.2 L 55 12.2 Z M 53.7 12.2 L 53.7 11.6 L 54.3 11.6 L 54.3 12.2 L 53.7 12.2 Z M 57.1 15.1 C 57.1 15.8 56.9 16.4 56.4 16.9 C 56 17.4 55.4 17.7 54.6 17.7 C 53.9 17.7 53.3 17.4 52.8 16.9 C 52.4 16.5 52.1 15.9 52.1 15.2 C 52.1 15.2 52.1 15.1 52.1 15.1 C 52.1 14.5 52.4 13.9 52.8 13.4 C 53.3 12.9 53.9 12.6 54.6 12.6 C 55.4 12.6 56 12.9 56.4 13.4 C 56.9 13.8 57.1 14.4 57.1 15.1 C 57.14 15.14 57.1 15.1 57.1 15.1 C 57.1 15.1 57.14 15.15 57.1 15.1 Z M 52.7 15.1 C 52.7 15.7 52.9 16.2 53.3 16.6 C 53.6 17 54.1 17.2 54.6 17.2 C 55.2 17.2 55.7 17 56 16.6 C 56.4 16.2 56.6 15.7 56.6 15.2 C 56.6 15.2 56.6 15.1 56.6 15.1 C 56.6 14.6 56.4 14.1 56 13.7 C 55.7 13.3 55.2 13.1 54.6 13.1 C 54.1 13.1 53.6 13.3 53.3 13.7 C 52.9 14.1 52.7 14.6 52.7 15.1 C 52.72 15.14 52.7 15.1 52.7 15.1 C 52.7 15.1 52.72 15.15 52.7 15.1 Z M 58.3 17.6 L 58.3 12.5 L 58.8 12.5 L 58.8 17.6 L 58.3 17.6 Z M 61.3 18.7 L 60.8 18.4 C 60.8 18.4 61.35 17.65 61.4 17.6 C 60.9 17.6 60.6 17.4 60.3 17 C 60 16.7 59.8 16.3 59.8 15.8 C 59.8 15.8 59.8 15.8 59.8 15.8 C 59.8 15.3 60 14.8 60.4 14.5 C 60.7 14.1 61.2 13.9 61.7 13.9 C 62.3 13.9 62.7 14.1 63.1 14.5 C 63.1 14.5 62.8 14.9 62.8 14.9 C 62.4 14.6 62.1 14.4 61.7 14.4 C 61.3 14.4 61 14.5 60.8 14.8 C 60.5 15.1 60.4 15.4 60.4 15.8 C 60.4 15.8 60.4 15.8 60.4 15.8 C 60.4 16.2 60.5 16.5 60.8 16.8 C 61 17.1 61.3 17.2 61.7 17.2 C 62.1 17.2 62.5 17 62.8 16.7 C 62.8 16.7 63.2 17 63.2 17 C 62.8 17.4 62.3 17.7 61.8 17.7 C 61.8 17.68 61.3 18.7 61.3 18.7 Z M 65.8 13.4 L 65.8 12.8 L 66.5 12.8 L 66.5 13.4 L 65.8 13.4 Z M 64.6 13.4 L 64.6 12.8 L 65.2 12.8 L 65.2 13.4 L 64.6 13.4 Z M 66.6 17 C 66.3 17.4 65.9 17.7 65.4 17.7 C 64.9 17.7 64.6 17.5 64.3 17.3 C 64.1 17 64 16.7 64 16.2 C 63.97 16.23 64 14 64 14 L 64.5 14 C 64.5 14 64.51 16.09 64.5 16.1 C 64.5 16.4 64.6 16.7 64.8 16.9 C 64.9 17.1 65.2 17.2 65.5 17.2 C 65.8 17.2 66.1 17.1 66.3 16.9 C 66.5 16.7 66.6 16.4 66.6 16.1 C 66.6 16.05 66.6 14 66.6 14 L 67.1 14 L 67.1 17.6 L 66.6 17.6 L 66.6 17 C 66.6 17 66.6 16.97 66.6 17 Z M 68.4 17.6 L 68.4 12.5 L 68.9 12.5 L 68.9 17.6 L 68.4 17.6 Z M 73.3 17 C 72.9 17.5 72.4 17.7 71.8 17.7 C 71.3 17.7 70.8 17.5 70.5 17.2 C 70.1 16.8 70 16.4 70 15.8 C 70 15.8 70 15.8 70 15.8 C 70 15.3 70.1 14.8 70.5 14.4 C 70.8 14.1 71.2 13.9 71.7 13.9 C 72.2 13.9 72.6 14.1 72.9 14.4 C 73.2 14.8 73.4 15.3 73.4 15.8 C 73.4 15.9 73.4 15.9 73.4 16 C 73.4 16 70.5 16 70.5 16 C 70.5 16.4 70.7 16.7 70.9 16.9 C 71.2 17.1 71.4 17.2 71.8 17.2 C 72.2 17.2 72.6 17 72.9 16.7 C 72.92 16.7 73.3 17 73.3 17 C 73.3 17 73.25 17 73.3 17 Z M 70.5 15.6 C 70.5 15.6 72.8 15.6 72.8 15.6 C 72.8 15.2 72.7 14.9 72.5 14.7 C 72.3 14.5 72 14.4 71.7 14.4 C 71.4 14.4 71.1 14.5 70.9 14.7 C 70.7 14.9 70.5 15.2 70.5 15.6 Z M 74.3 17.6 L 74.3 14 L 74.9 14 C 74.9 14 74.86 14.93 74.9 14.9 C 75 14.6 75.2 14.4 75.5 14.2 C 75.7 14 76 13.9 76.3 13.9 C 76.34 13.92 76.3 14.5 76.3 14.5 C 76.3 14.5 76.3 14.5 76.3 14.5 C 75.9 14.5 75.5 14.6 75.3 14.9 C 75 15.2 74.9 15.6 74.9 16.2 C 74.86 16.16 74.9 17.6 74.9 17.6 L 74.3 17.6 Z M 77.1 14.7 L 77.1 14 L 77.8 14 L 77.8 14.7 L 77.1 14.7 Z M 77.1 17.6 L 77.1 16.9 L 77.8 16.9 L 77.8 17.6 L 77.1 17.6 Z M 81.1 17.6 L 81.1 12.7 C 81.1 12.7 82.83 12.7 82.8 12.7 C 83.6 12.7 84.2 12.9 84.7 13.4 C 85.2 13.9 85.4 14.4 85.4 15.1 C 85.4 15.1 85.4 15.1 85.4 15.1 C 85.4 15.8 85.2 16.4 84.7 16.9 C 84.2 17.4 83.6 17.6 82.8 17.6 C 82.83 17.6 81.1 17.6 81.1 17.6 Z M 82.8 13.2 C 82.83 13.21 81.7 13.2 81.7 13.2 L 81.7 17.1 C 81.7 17.1 82.83 17.09 82.8 17.1 C 83.4 17.1 83.9 16.9 84.3 16.5 C 84.7 16.2 84.9 15.7 84.9 15.2 C 84.9 15.2 84.9 15.1 84.9 15.1 C 84.9 14.6 84.7 14.1 84.3 13.8 C 83.9 13.4 83.4 13.2 82.8 13.2 Z M 91 17.6 L 91 16.4 L 88.5 16.4 L 88.3 16 L 91.1 12.7 L 91.6 12.7 L 91.6 16 L 92.3 16 L 92.3 16.4 L 91.6 16.4 L 91.6 17.6 L 91 17.6 Z M 89 16 L 91 16 L 91 13.4 L 89 16 Z M 97.3 15.1 C 97.3 15.9 97.1 16.5 96.7 16.9 C 96.3 17.4 95.8 17.7 95.2 17.7 C 94.6 17.7 94.1 17.4 93.7 17 C 93.3 16.5 93.1 15.9 93.1 15.2 C 93.1 15.2 93.1 15.1 93.1 15.1 C 93.1 14.4 93.3 13.8 93.7 13.4 C 94.1 12.9 94.6 12.6 95.2 12.6 C 95.8 12.6 96.3 12.9 96.7 13.3 C 97.1 13.8 97.3 14.4 97.3 15.1 C 97.28 15.14 97.3 15.1 97.3 15.1 C 97.3 15.1 97.28 15.15 97.3 15.1 Z M 93.7 15.1 C 93.7 15.7 93.9 16.2 94.1 16.6 C 94.4 17 94.8 17.2 95.2 17.2 C 95.7 17.2 96 17 96.3 16.6 C 96.6 16.2 96.7 15.7 96.7 15.2 C 96.7 15.2 96.7 15.1 96.7 15.1 C 96.7 14.6 96.6 14.1 96.3 13.7 C 96 13.3 95.6 13.1 95.2 13.1 C 94.8 13.1 94.4 13.3 94.1 13.7 C 93.9 14.1 93.7 14.6 93.7 15.1 C 93.71 15.14 93.7 15.1 93.7 15.1 C 93.7 15.1 93.71 15.15 93.7 15.1 Z M 103.5 17 C 103.1 17.5 102.6 17.7 102 17.7 C 101.5 17.7 101.1 17.5 100.7 17.1 C 100.4 16.8 100.2 16.3 100.2 15.8 C 100.2 15.8 100.2 15.8 100.2 15.8 C 100.2 15.3 100.4 14.8 100.7 14.5 C 101.1 14.1 101.5 13.9 102 13.9 C 102.6 13.9 103.1 14.1 103.5 14.5 C 103.5 14.5 103.1 14.9 103.1 14.9 C 102.8 14.6 102.4 14.4 102 14.4 C 101.7 14.4 101.4 14.5 101.1 14.8 C 100.9 15.1 100.7 15.4 100.7 15.8 C 100.7 15.8 100.7 15.8 100.7 15.8 C 100.7 16.2 100.9 16.5 101.1 16.8 C 101.4 17.1 101.7 17.2 102.1 17.2 C 102.5 17.2 102.8 17 103.2 16.7 C 103.18 16.66 103.5 17 103.5 17 C 103.5 17 103.52 16.98 103.5 17 Z M 104.4 17.6 L 104.4 14 L 104.9 14 C 104.9 14 104.95 14.59 104.9 14.6 C 105.1 14.4 105.3 14.2 105.4 14.1 C 105.6 14 105.8 13.9 106.1 13.9 C 106.7 13.9 107.1 14.1 107.3 14.6 C 107.6 14.1 108 13.9 108.6 13.9 C 109 13.9 109.3 14 109.5 14.3 C 109.8 14.6 109.9 14.9 109.9 15.4 C 109.9 15.36 109.9 17.6 109.9 17.6 L 109.4 17.6 C 109.4 17.6 109.36 15.49 109.4 15.5 C 109.4 15.1 109.3 14.9 109.1 14.7 C 108.9 14.5 108.7 14.4 108.4 14.4 C 108.1 14.4 107.9 14.5 107.7 14.7 C 107.5 14.9 107.4 15.2 107.4 15.5 C 107.42 15.51 107.4 17.6 107.4 17.6 L 106.9 17.6 C 106.9 17.6 106.89 15.47 106.9 15.5 C 106.9 15.1 106.8 14.9 106.6 14.7 C 106.5 14.5 106.2 14.4 106 14.4 C 105.7 14.4 105.4 14.5 105.2 14.7 C 105 14.9 104.9 15.2 104.9 15.5 C 104.95 15.53 104.9 17.6 104.9 17.6 L 104.4 17.6 Z M 110.9 18.5 C 110.9 18.5 110.8 18.2 110.8 18.2 C 111.1 18.1 111.3 17.9 111.2 17.6 C 111.24 17.6 111 17.6 111 17.6 L 111 16.9 L 111.6 16.9 C 111.6 16.9 111.63 17.49 111.6 17.5 C 111.6 17.8 111.6 18 111.4 18.1 C 111.3 18.3 111.1 18.4 110.9 18.5 Z M 115 17.6 L 115 12.7 L 115.5 12.7 L 115.5 14.9 L 118.3 14.9 L 118.3 12.7 L 118.9 12.7 L 118.9 17.6 L 118.3 17.6 L 118.3 15.4 L 115.5 15.4 L 115.5 17.6 L 115 17.6 Z M 123.8 17.7 C 123.2 17.7 122.6 17.4 122.1 16.9 C 122.1 16.9 122.4 16.5 122.4 16.5 C 122.9 17 123.3 17.2 123.8 17.2 C 124.2 17.2 124.4 17.1 124.7 16.9 C 124.9 16.7 125 16.4 125 16.1 C 125 16.1 125 16.1 125 16.1 C 125 15.8 124.9 15.5 124.6 15.3 C 124.4 15.1 124.1 15.1 123.8 15.1 C 123.4 15.1 123.1 15.1 122.7 15.3 C 122.74 15.33 122.4 15.1 122.4 15.1 L 122.5 12.7 L 125.3 12.7 L 125.3 13.2 L 123 13.2 C 123 13.2 122.89 14.78 122.9 14.8 C 123.2 14.6 123.5 14.6 123.9 14.6 C 124.3 14.6 124.8 14.7 125.1 15 C 125.4 15.2 125.6 15.6 125.6 16.1 C 125.6 16.1 125.6 16.1 125.6 16.1 C 125.6 16.5 125.4 16.9 125.1 17.2 C 124.7 17.5 124.3 17.7 123.8 17.7 Z M 129 17.6 L 129 16.4 L 126.4 16.4 L 126.3 16 L 129 12.7 L 129.5 12.7 L 129.5 16 L 130.3 16 L 130.3 16.4 L 129.5 16.4 L 129.5 17.6 L 129 17.6 Z M 126.9 16 L 129 16 L 129 13.4 L 126.9 16 Z M 136.5 17 C 136.1 17.5 135.6 17.7 135 17.7 C 134.5 17.7 134 17.5 133.7 17.1 C 133.3 16.8 133.1 16.3 133.1 15.8 C 133.1 15.8 133.1 15.8 133.1 15.8 C 133.1 15.3 133.3 14.8 133.7 14.5 C 134 14.1 134.5 13.9 135 13.9 C 135.6 13.9 136 14.1 136.4 14.5 C 136.4 14.5 136.1 14.9 136.1 14.9 C 135.7 14.6 135.4 14.4 135 14.4 C 134.6 14.4 134.3 14.5 134.1 14.8 C 133.8 15.1 133.7 15.4 133.7 15.8 C 133.7 15.8 133.7 15.8 133.7 15.8 C 133.7 16.2 133.8 16.5 134.1 16.8 C 134.3 17.1 134.6 17.2 135 17.2 C 135.4 17.2 135.8 17 136.1 16.7 C 136.13 16.66 136.5 17 136.5 17 C 136.5 17 136.47 16.98 136.5 17 Z M 137.4 17.6 L 137.4 14 L 137.9 14 C 137.9 14 137.9 14.59 137.9 14.6 C 138 14.4 138.2 14.2 138.4 14.1 C 138.6 14 138.8 13.9 139.1 13.9 C 139.6 13.9 140 14.1 140.2 14.6 C 140.6 14.1 141 13.9 141.5 13.9 C 141.9 13.9 142.3 14 142.5 14.3 C 142.7 14.6 142.8 14.9 142.8 15.4 C 142.85 15.36 142.8 17.6 142.8 17.6 L 142.3 17.6 C 142.3 17.6 142.31 15.49 142.3 15.5 C 142.3 15.1 142.2 14.9 142.1 14.7 C 141.9 14.5 141.7 14.4 141.4 14.4 C 141.1 14.4 140.9 14.5 140.7 14.7 C 140.5 14.9 140.4 15.2 140.4 15.5 C 140.37 15.51 140.4 17.6 140.4 17.6 L 139.8 17.6 C 139.8 17.6 139.84 15.47 139.8 15.5 C 139.8 15.1 139.8 14.9 139.6 14.7 C 139.4 14.5 139.2 14.4 138.9 14.4 C 138.6 14.4 138.4 14.5 138.2 14.7 C 138 14.9 137.9 15.2 137.9 15.5 C 137.9 15.53 137.9 17.6 137.9 17.6 L 137.4 17.6 Z M 145.3 18.5 L 148.6 12 L 149.1 12 L 145.8 18.5 L 145.3 18.5 Z M 151.8 17.6 L 151.8 12.7 L 152.4 12.7 L 152.4 14.9 L 155.2 14.9 L 155.2 12.7 L 155.8 12.7 L 155.8 17.6 L 155.2 17.6 L 155.2 15.4 L 152.4 15.4 L 152.4 17.6 L 151.8 17.6 Z M 159.5 17.1 C 159.1 17.5 158.7 17.7 158.1 17.7 C 157.8 17.7 157.5 17.6 157.2 17.4 C 156.9 17.2 156.8 16.9 156.8 16.5 C 156.8 16.5 156.8 16.5 156.8 16.5 C 156.8 16.2 156.9 15.9 157.2 15.7 C 157.5 15.5 157.9 15.4 158.3 15.4 C 158.7 15.4 159.1 15.4 159.5 15.5 C 159.5 15.5 159.5 15.4 159.5 15.4 C 159.5 15.1 159.4 14.8 159.2 14.7 C 159 14.5 158.7 14.4 158.4 14.4 C 158 14.4 157.6 14.5 157.3 14.7 C 157.3 14.7 157.1 14.2 157.1 14.2 C 157.5 14 158 13.9 158.4 13.9 C 158.9 13.9 159.3 14.1 159.6 14.3 C 159.9 14.6 160 14.9 160 15.4 C 159.98 15.39 160 17.6 160 17.6 L 159.5 17.6 L 159.5 17.1 C 159.5 17.1 159.46 17.05 159.5 17.1 Z M 158.3 17.2 C 158.6 17.2 158.9 17.2 159.1 17 C 159.3 16.8 159.5 16.6 159.5 16.3 C 159.5 16.3 159.5 15.9 159.5 15.9 C 159.1 15.8 158.7 15.8 158.4 15.8 C 158.1 15.8 157.8 15.8 157.6 16 C 157.4 16.1 157.3 16.3 157.3 16.5 C 157.3 16.5 157.3 16.5 157.3 16.5 C 157.3 16.7 157.4 16.9 157.6 17.1 C 157.8 17.2 158 17.2 158.3 17.2 Z M 164.2 17 C 163.8 17.5 163.3 17.7 162.8 17.7 C 162.2 17.7 161.8 17.5 161.4 17.1 C 161.1 16.8 160.9 16.3 160.9 15.8 C 160.9 15.8 160.9 15.8 160.9 15.8 C 160.9 15.3 161.1 14.8 161.4 14.5 C 161.8 14.1 162.2 13.9 162.8 13.9 C 163.3 13.9 163.8 14.1 164.2 14.5 C 164.2 14.5 163.8 14.9 163.8 14.9 C 163.5 14.6 163.1 14.4 162.7 14.4 C 162.4 14.4 162.1 14.5 161.8 14.8 C 161.6 15.1 161.5 15.4 161.5 15.8 C 161.5 15.8 161.5 15.8 161.5 15.8 C 161.5 16.2 161.6 16.5 161.8 16.8 C 162.1 17.1 162.4 17.2 162.8 17.2 C 163.2 17.2 163.6 17 163.9 16.7 C 163.89 16.66 164.2 17 164.2 17 C 164.2 17 164.23 16.98 164.2 17 Z M 165.1 13.2 L 165.1 12.6 L 165.8 12.6 L 165.8 13.2 L 165.1 13.2 Z M 165.2 17.6 L 165.2 14 L 165.7 14 L 165.7 17.6 L 165.2 17.6 Z M 167 17.6 L 167 14 L 167.5 14 C 167.5 14 167.5 14.59 167.5 14.6 C 167.6 14.4 167.8 14.2 168 14.1 C 168.2 14 168.4 13.9 168.7 13.9 C 169.2 13.9 169.6 14.1 169.8 14.6 C 170.2 14.1 170.6 13.9 171.1 13.9 C 171.5 13.9 171.9 14 172.1 14.3 C 172.3 14.6 172.4 14.9 172.4 15.4 C 172.45 15.36 172.4 17.6 172.4 17.6 L 171.9 17.6 C 171.9 17.6 171.91 15.49 171.9 15.5 C 171.9 15.1 171.8 14.9 171.7 14.7 C 171.5 14.5 171.3 14.4 171 14.4 C 170.7 14.4 170.5 14.5 170.3 14.7 C 170.1 14.9 170 15.2 170 15.5 C 169.97 15.51 170 17.6 170 17.6 L 169.4 17.6 C 169.4 17.6 169.44 15.47 169.4 15.5 C 169.4 15.1 169.4 14.9 169.2 14.7 C 169 14.5 168.8 14.4 168.5 14.4 C 168.2 14.4 168 14.5 167.8 14.7 C 167.6 14.9 167.5 15.2 167.5 15.5 C 167.5 15.53 167.5 17.6 167.5 17.6 L 167 17.6 Z M 173.6 14.7 L 173.6 14 L 174.2 14 L 174.2 14.7 L 173.6 14.7 Z M 173.6 17.6 L 173.6 16.9 L 174.2 16.9 L 174.2 17.6 L 173.6 17.6 Z M 179.2 17.7 C 178.7 17.7 178.2 17.5 177.9 17.2 C 177.7 17 177.6 16.7 177.5 16.4 C 177.4 16.1 177.3 15.8 177.3 15.3 C 177.3 15.3 177.3 15.3 177.3 15.3 C 177.3 14.5 177.5 13.9 177.9 13.4 C 178.2 12.9 178.7 12.6 179.3 12.6 C 179.9 12.6 180.3 12.8 180.8 13.2 C 180.8 13.2 180.5 13.6 180.5 13.6 C 180.1 13.3 179.7 13.1 179.3 13.1 C 178.9 13.1 178.5 13.3 178.2 13.7 C 178 14.1 177.9 14.6 177.9 15.2 C 177.9 15.2 177.9 15.3 177.9 15.3 C 178.2 14.8 178.7 14.5 179.3 14.5 C 179.7 14.5 180.1 14.7 180.5 15 C 180.8 15.2 181 15.6 181 16 C 181 16 181 16.1 181 16.1 C 181 16.5 180.8 16.9 180.5 17.2 C 180.1 17.5 179.7 17.7 179.2 17.7 Z M 179.2 17.2 C 179.6 17.2 179.9 17.1 180.1 16.9 C 180.3 16.7 180.4 16.4 180.4 16.1 C 180.4 16.1 180.4 16.1 180.4 16.1 C 180.4 15.8 180.3 15.5 180.1 15.3 C 179.8 15.1 179.5 15 179.2 15 C 178.8 15 178.6 15.1 178.3 15.3 C 178.1 15.6 178 15.8 178 16.1 C 178 16.1 178 16.1 178 16.1 C 178 16.4 178.1 16.7 178.3 16.9 C 178.6 17.1 178.9 17.2 179.2 17.2 Z M 186 15.1 C 186 15.9 185.8 16.5 185.4 16.9 C 185 17.4 184.5 17.7 183.9 17.7 C 183.3 17.7 182.8 17.4 182.4 17 C 182 16.5 181.8 15.9 181.8 15.2 C 181.8 15.2 181.8 15.1 181.8 15.1 C 181.8 14.4 182 13.8 182.4 13.4 C 182.8 12.9 183.3 12.6 183.9 12.6 C 184.5 12.6 185 12.9 185.4 13.3 C 185.8 13.8 186 14.4 186 15.1 C 185.97 15.14 186 15.1 186 15.1 C 186 15.1 185.97 15.15 186 15.1 Z M 182.4 15.1 C 182.4 15.7 182.5 16.2 182.8 16.6 C 183.1 17 183.5 17.2 183.9 17.2 C 184.4 17.2 184.7 17 185 16.6 C 185.3 16.2 185.4 15.7 185.4 15.2 C 185.4 15.2 185.4 15.1 185.4 15.1 C 185.4 14.6 185.3 14.1 185 13.7 C 184.7 13.3 184.3 13.1 183.9 13.1 C 183.5 13.1 183.1 13.3 182.8 13.7 C 182.5 14.1 182.4 14.6 182.4 15.1 C 182.41 15.14 182.4 15.1 182.4 15.1 C 182.4 15.1 182.41 15.15 182.4 15.1 Z M 189.2 17.6 L 189.2 12.5 L 189.7 12.5 L 189.7 17.6 L 189.2 17.6 Z M 191 13.2 L 191 12.6 L 191.6 12.6 L 191.6 13.2 L 191 13.2 Z M 191 17.6 L 191 14 L 191.5 14 L 191.5 17.6 L 191 17.6 Z M 194.7 17.5 C 194.5 17.6 194.2 17.7 194 17.7 C 193.7 17.7 193.4 17.6 193.3 17.4 C 193.1 17.2 193 17 193 16.6 C 192.98 16.64 193 14.5 193 14.5 L 192.5 14.5 L 192.5 14 L 193 14 L 193 12.9 L 193.5 12.9 L 193.5 14 L 194.7 14 L 194.7 14.5 L 193.5 14.5 C 193.5 14.5 193.52 16.57 193.5 16.6 C 193.5 17 193.7 17.2 194.1 17.2 C 194.3 17.2 194.5 17.1 194.7 17 C 194.65 17.05 194.7 17.5 194.7 17.5 C 194.7 17.5 194.65 17.51 194.7 17.5 Z M 195.6 17.6 L 195.6 14 L 196.2 14 C 196.2 14 196.16 14.93 196.2 14.9 C 196.3 14.6 196.5 14.4 196.8 14.2 C 197 14 197.3 13.9 197.6 13.9 C 197.64 13.92 197.6 14.5 197.6 14.5 C 197.6 14.5 197.59 14.5 197.6 14.5 C 197.2 14.5 196.8 14.6 196.6 14.9 C 196.3 15.2 196.2 15.6 196.2 16.2 C 196.16 16.16 196.2 17.6 196.2 17.6 L 195.6 17.6 Z M 201.4 17 C 201 17.5 200.5 17.7 199.9 17.7 C 199.4 17.7 199 17.5 198.6 17.2 C 198.3 16.8 198.1 16.4 198.1 15.8 C 198.1 15.8 198.1 15.8 198.1 15.8 C 198.1 15.3 198.2 14.8 198.6 14.4 C 198.9 14.1 199.3 13.9 199.8 13.9 C 200.3 13.9 200.7 14.1 201 14.4 C 201.3 14.8 201.5 15.3 201.5 15.8 C 201.5 15.9 201.5 15.9 201.5 16 C 201.5 16 198.6 16 198.6 16 C 198.7 16.4 198.8 16.7 199 16.9 C 199.3 17.1 199.6 17.2 199.9 17.2 C 200.3 17.2 200.7 17 201 16.7 C 201.04 16.7 201.4 17 201.4 17 C 201.4 17 201.37 17 201.4 17 Z M 198.6 15.6 C 198.6 15.6 201 15.6 201 15.6 C 200.9 15.2 200.8 14.9 200.6 14.7 C 200.4 14.5 200.1 14.4 199.8 14.4 C 199.5 14.4 199.2 14.5 199 14.7 C 198.8 14.9 198.7 15.2 198.6 15.6 Z M 203.8 18.5 L 207 12 L 207.5 12 L 204.3 18.5 L 203.8 18.5 Z M 209.9 17.6 L 212.1 12.7 L 212.6 12.7 L 214.9 17.6 L 214.3 17.6 L 213.7 16.3 L 211 16.3 L 210.4 17.6 L 209.9 17.6 Z M 211.2 15.8 L 213.5 15.8 L 212.4 13.3 L 211.2 15.8 Z M 218.5 16.9 C 218.1 17.4 217.6 17.7 217.1 17.7 C 216.6 17.7 216.2 17.5 215.9 17.2 C 215.5 16.8 215.3 16.4 215.3 15.8 C 215.3 15.8 215.3 15.8 215.3 15.8 C 215.3 15.2 215.5 14.8 215.9 14.4 C 216.2 14.1 216.6 13.9 217.1 13.9 C 217.6 13.9 218.1 14.2 218.5 14.7 C 218.46 14.67 218.5 12.5 218.5 12.5 L 219 12.5 L 219 17.6 L 218.5 17.6 L 218.5 16.9 C 218.5 16.9 218.46 16.87 218.5 16.9 Z M 217.2 17.2 C 217.5 17.2 217.8 17.1 218.1 16.8 C 218.4 16.5 218.5 16.2 218.5 15.8 C 218.5 15.8 218.5 15.8 218.5 15.8 C 218.5 15.4 218.4 15 218.1 14.8 C 217.8 14.5 217.5 14.4 217.2 14.4 C 216.8 14.4 216.5 14.5 216.3 14.8 C 216 15 215.9 15.4 215.9 15.8 C 215.9 15.8 215.9 15.8 215.9 15.8 C 215.9 16.2 216 16.6 216.3 16.8 C 216.5 17.1 216.8 17.2 217.2 17.2 Z M 223.3 17 C 222.9 17.5 222.4 17.7 221.8 17.7 C 221.3 17.7 220.9 17.5 220.5 17.2 C 220.2 16.8 220 16.4 220 15.8 C 220 15.8 220 15.8 220 15.8 C 220 15.3 220.1 14.8 220.5 14.4 C 220.8 14.1 221.2 13.9 221.7 13.9 C 222.2 13.9 222.6 14.1 222.9 14.4 C 223.3 14.8 223.4 15.3 223.4 15.8 C 223.4 15.9 223.4 15.9 223.4 16 C 223.4 16 220.5 16 220.5 16 C 220.6 16.4 220.7 16.7 220.9 16.9 C 221.2 17.1 221.5 17.2 221.8 17.2 C 222.2 17.2 222.6 17 222.9 16.7 C 222.94 16.7 223.3 17 223.3 17 C 223.3 17 223.28 17 223.3 17 Z M 220.5 15.6 C 220.5 15.6 222.9 15.6 222.9 15.6 C 222.8 15.2 222.7 14.9 222.5 14.7 C 222.3 14.5 222 14.4 221.7 14.4 C 221.4 14.4 221.1 14.5 220.9 14.7 C 220.7 14.9 220.6 15.2 220.5 15.6 Z M 226.2 17.5 C 226 17.6 225.8 17.7 225.6 17.7 C 225.2 17.7 225 17.6 224.8 17.4 C 224.6 17.2 224.5 17 224.5 16.6 C 224.54 16.64 224.5 14.5 224.5 14.5 L 224 14.5 L 224 14 L 224.5 14 L 224.5 12.9 L 225.1 12.9 L 225.1 14 L 226.2 14 L 226.2 14.5 L 225.1 14.5 C 225.1 14.5 225.08 16.57 225.1 16.6 C 225.1 17 225.3 17.2 225.7 17.2 C 225.9 17.2 226 17.1 226.2 17 C 226.21 17.05 226.2 17.5 226.2 17.5 C 226.2 17.5 226.21 17.51 226.2 17.5 Z M 227.1 14.7 L 227.1 14 L 227.8 14 L 227.8 14.7 L 227.1 14.7 Z M 227.1 17.6 L 227.1 16.9 L 227.8 16.9 L 227.8 17.6 L 227.1 17.6 Z M 230.8 17.6 L 230.8 17.2 C 230.8 17.2 232.56 15.6 232.6 15.6 C 232.9 15.3 233.2 15 233.4 14.8 C 233.5 14.5 233.6 14.3 233.6 14.1 C 233.6 13.8 233.5 13.6 233.3 13.4 C 233.1 13.2 232.9 13.1 232.6 13.1 C 232.3 13.1 232.1 13.2 231.9 13.3 C 231.7 13.5 231.5 13.7 231.3 14 C 231.3 14 230.9 13.7 230.9 13.7 C 231.1 13.3 231.4 13 231.6 12.9 C 231.9 12.7 232.2 12.6 232.6 12.6 C 233.1 12.6 233.4 12.8 233.7 13 C 234 13.3 234.2 13.6 234.2 14 C 234.2 14 234.2 14 234.2 14 C 234.2 14.4 234.1 14.7 233.9 14.9 C 233.7 15.2 233.4 15.5 232.9 15.9 C 232.92 15.93 231.6 17.1 231.6 17.1 L 234.2 17.1 L 234.2 17.6 L 230.8 17.6 Z M 235.1 14.3 C 235.1 14.3 235 14 235 14 C 235.3 13.9 235.5 13.7 235.5 13.4 C 235.47 13.43 235.2 13.4 235.2 13.4 L 235.2 12.7 L 235.9 12.7 C 235.9 12.7 235.86 13.33 235.9 13.3 C 235.9 13.6 235.8 13.8 235.7 14 C 235.6 14.1 235.4 14.2 235.1 14.3 Z M 237 17.6 L 237 12.5 L 237.5 12.5 L 237.5 17.6 L 237 17.6 Z M 238.8 13.2 L 238.8 12.6 L 239.4 12.6 L 239.4 13.2 L 238.8 13.2 Z M 238.9 17.6 L 238.9 14 L 239.4 14 L 239.4 17.6 L 238.9 17.6 Z M 244.5 17.7 C 243.8 17.7 243.1 17.4 242.5 16.9 C 242.5 16.9 242.9 16.5 242.9 16.5 C 243.1 16.7 243.4 16.9 243.6 17 C 243.9 17.1 244.2 17.2 244.5 17.2 C 244.9 17.2 245.1 17.1 245.3 16.9 C 245.5 16.8 245.6 16.6 245.6 16.3 C 245.6 16.3 245.6 16.3 245.6 16.3 C 245.6 16.1 245.5 15.9 245.4 15.8 C 245.2 15.6 244.8 15.5 244.4 15.4 C 243.8 15.3 243.4 15.1 243.1 14.9 C 242.8 14.7 242.7 14.4 242.7 14 C 242.7 14 242.7 14 242.7 14 C 242.7 13.6 242.9 13.3 243.2 13 C 243.5 12.8 243.9 12.6 244.3 12.6 C 244.7 12.6 245 12.7 245.2 12.8 C 245.5 12.9 245.8 13 246 13.2 C 246 13.2 245.7 13.7 245.7 13.7 C 245.3 13.3 244.8 13.1 244.3 13.1 C 244 13.1 243.7 13.2 243.5 13.4 C 243.4 13.5 243.3 13.7 243.3 13.9 C 243.3 13.9 243.3 13.9 243.3 13.9 C 243.3 14.2 243.4 14.4 243.5 14.5 C 243.7 14.7 244.1 14.8 244.6 14.9 C 245.1 15 245.6 15.2 245.8 15.4 C 246.1 15.6 246.2 15.9 246.2 16.3 C 246.2 16.3 246.2 16.3 246.2 16.3 C 246.2 16.7 246 17 245.7 17.3 C 245.4 17.5 245 17.7 244.5 17.7 Z M 250.3 17 C 249.9 17.5 249.4 17.7 248.8 17.7 C 248.3 17.7 247.9 17.5 247.5 17.2 C 247.2 16.8 247 16.4 247 15.8 C 247 15.8 247 15.8 247 15.8 C 247 15.3 247.2 14.8 247.5 14.4 C 247.8 14.1 248.2 13.9 248.7 13.9 C 249.3 13.9 249.7 14.1 250 14.4 C 250.3 14.8 250.4 15.3 250.4 15.8 C 250.4 15.9 250.4 15.9 250.4 16 C 250.4 16 247.5 16 247.5 16 C 247.6 16.4 247.7 16.7 248 16.9 C 248.2 17.1 248.5 17.2 248.8 17.2 C 249.2 17.2 249.6 17 250 16.7 C 249.96 16.7 250.3 17 250.3 17 C 250.3 17 250.3 17 250.3 17 Z M 247.5 15.6 C 247.5 15.6 249.9 15.6 249.9 15.6 C 249.8 15.2 249.7 14.9 249.5 14.7 C 249.3 14.5 249.1 14.4 248.7 14.4 C 248.4 14.4 248.1 14.5 247.9 14.7 C 247.7 14.9 247.6 15.2 247.5 15.6 Z M 253.2 17.5 C 253 17.6 252.8 17.7 252.6 17.7 C 252.3 17.7 252 17.6 251.8 17.4 C 251.6 17.2 251.6 17 251.6 16.6 C 251.56 16.64 251.6 14.5 251.6 14.5 L 251.1 14.5 L 251.1 14 L 251.6 14 L 251.6 12.9 L 252.1 12.9 L 252.1 14 L 253.2 14 L 253.2 14.5 L 252.1 14.5 C 252.1 14.5 252.09 16.57 252.1 16.6 C 252.1 17 252.3 17.2 252.7 17.2 C 252.9 17.2 253.1 17.1 253.2 17 C 253.23 17.05 253.2 17.5 253.2 17.5 C 253.2 17.5 253.23 17.51 253.2 17.5 Z M 256.5 18.5 L 256.5 12 L 257 12 L 257 18.5 L 256.5 18.5 Z M 261.9 17.6 L 261.9 13.2 L 260.2 13.2 L 260.2 12.7 L 264.1 12.7 L 264.1 13.2 L 262.4 13.2 L 262.4 17.6 L 261.9 17.6 Z M 266.5 17.1 C 266.2 17.5 265.8 17.7 265.2 17.7 C 264.9 17.7 264.5 17.6 264.3 17.4 C 264 17.2 263.9 16.9 263.9 16.5 C 263.9 16.5 263.9 16.5 263.9 16.5 C 263.9 16.2 264 15.9 264.3 15.7 C 264.6 15.5 264.9 15.4 265.4 15.4 C 265.8 15.4 266.2 15.4 266.5 15.5 C 266.5 15.5 266.5 15.4 266.5 15.4 C 266.5 15.1 266.4 14.8 266.2 14.7 C 266.1 14.5 265.8 14.4 265.5 14.4 C 265.1 14.4 264.7 14.5 264.4 14.7 C 264.4 14.7 264.2 14.2 264.2 14.2 C 264.6 14 265.1 13.9 265.5 13.9 C 266 13.9 266.4 14.1 266.7 14.3 C 266.9 14.6 267 14.9 267 15.4 C 267.05 15.39 267 17.6 267 17.6 L 266.5 17.6 L 266.5 17.1 C 266.5 17.1 266.53 17.05 266.5 17.1 Z M 265.3 17.2 C 265.7 17.2 266 17.2 266.2 17 C 266.4 16.8 266.5 16.6 266.5 16.3 C 266.5 16.3 266.5 15.9 266.5 15.9 C 266.2 15.8 265.8 15.8 265.5 15.8 C 265.1 15.8 264.9 15.8 264.7 16 C 264.5 16.1 264.4 16.3 264.4 16.5 C 264.4 16.5 264.4 16.5 264.4 16.5 C 264.4 16.7 264.5 16.9 264.7 17.1 C 264.9 17.2 265.1 17.2 265.3 17.2 Z M 269.4 17.7 C 268.8 17.7 268.3 17.5 267.9 17.1 C 267.9 17.1 268.2 16.8 268.2 16.8 C 268.6 17.1 269 17.2 269.4 17.2 C 269.6 17.2 269.8 17.2 270 17.1 C 270.1 17 270.2 16.8 270.2 16.6 C 270.2 16.6 270.2 16.6 270.2 16.6 C 270.2 16.5 270.1 16.3 269.9 16.2 C 269.8 16.2 269.6 16.1 269.3 16 C 269.1 16 269 15.9 269 15.9 C 268.9 15.9 268.8 15.8 268.7 15.8 C 268.6 15.8 268.5 15.7 268.4 15.7 C 268.4 15.6 268.3 15.6 268.3 15.5 C 268.2 15.4 268.1 15.4 268.1 15.3 C 268.1 15.2 268.1 15.1 268.1 15 C 268.1 15 268.1 15 268.1 15 C 268.1 14.6 268.2 14.4 268.4 14.2 C 268.6 14 268.9 13.9 269.3 13.9 C 269.8 13.9 270.2 14.1 270.6 14.3 C 270.6 14.3 270.4 14.7 270.4 14.7 C 270 14.5 269.6 14.4 269.3 14.4 C 269.1 14.4 268.9 14.4 268.8 14.5 C 268.7 14.6 268.6 14.7 268.6 14.9 C 268.6 14.9 268.6 14.9 268.6 14.9 C 268.6 15 268.6 15 268.6 15.1 C 268.7 15.1 268.7 15.2 268.8 15.2 C 268.8 15.3 268.9 15.3 269 15.4 C 269.1 15.4 269.2 15.4 269.2 15.4 C 269.3 15.5 269.4 15.5 269.5 15.5 C 269.7 15.6 269.8 15.6 269.9 15.6 C 269.9 15.7 270.1 15.7 270.2 15.8 C 270.3 15.8 270.4 15.9 270.4 16 C 270.5 16 270.6 16.1 270.6 16.2 C 270.7 16.3 270.7 16.4 270.7 16.6 C 270.7 16.6 270.7 16.6 270.7 16.6 C 270.7 16.9 270.6 17.2 270.3 17.4 C 270.1 17.6 269.8 17.7 269.4 17.7 Z M 274.1 17.1 C 273.7 17.5 273.3 17.7 272.8 17.7 C 272.4 17.7 272.1 17.6 271.8 17.4 C 271.5 17.2 271.4 16.9 271.4 16.5 C 271.4 16.5 271.4 16.5 271.4 16.5 C 271.4 16.2 271.5 15.9 271.8 15.7 C 272.1 15.5 272.5 15.4 273 15.4 C 273.3 15.4 273.7 15.4 274.1 15.5 C 274.1 15.5 274.1 15.4 274.1 15.4 C 274.1 15.1 274 14.8 273.8 14.7 C 273.6 14.5 273.3 14.4 273 14.4 C 272.6 14.4 272.3 14.5 271.9 14.7 C 271.9 14.7 271.7 14.2 271.7 14.2 C 272.2 14 272.6 13.9 273 13.9 C 273.6 13.9 273.9 14.1 274.2 14.3 C 274.5 14.6 274.6 14.9 274.6 15.4 C 274.59 15.39 274.6 17.6 274.6 17.6 L 274.1 17.6 L 274.1 17.1 C 274.1 17.1 274.07 17.05 274.1 17.1 Z M 272.9 17.2 C 273.2 17.2 273.5 17.2 273.7 17 C 274 16.8 274.1 16.6 274.1 16.3 C 274.1 16.3 274.1 15.9 274.1 15.9 C 273.7 15.8 273.4 15.8 273 15.8 C 272.7 15.8 272.4 15.8 272.2 16 C 272 16.1 272 16.3 272 16.5 C 272 16.5 272 16.5 272 16.5 C 272 16.7 272 16.9 272.2 17.1 C 272.4 17.2 272.6 17.2 272.9 17.2 Z M 275.7 17.6 L 275.7 14 L 276.3 14 C 276.3 14 276.27 14.93 276.3 14.9 C 276.4 14.6 276.6 14.4 276.9 14.2 C 277.1 14 277.4 13.9 277.7 13.9 C 277.75 13.92 277.7 14.5 277.7 14.5 C 277.7 14.5 277.71 14.5 277.7 14.5 C 277.3 14.5 276.9 14.6 276.7 14.9 C 276.4 15.2 276.3 15.6 276.3 16.2 C 276.27 16.16 276.3 17.6 276.3 17.6 L 275.7 17.6 Z M 278.6 17.6 L 278.6 14 L 279.2 14 L 279.2 17.6 L 278.6 17.6 Z M 280.4 17.6 L 280.4 14 L 280.9 14 C 280.9 14 280.95 14.59 280.9 14.6 C 281.1 14.4 281.3 14.2 281.4 14.1 C 281.6 14 281.8 13.9 282.1 13.9 C 282.7 13.9 283.1 14.1 283.3 14.6 C 283.6 14.1 284 13.9 284.6 13.9 C 285 13.9 285.3 14 285.5 14.3 C 285.8 14.6 285.9 14.9 285.9 15.4 C 285.9 15.36 285.9 17.6 285.9 17.6 L 285.4 17.6 C 285.4 17.6 285.36 15.49 285.4 15.5 C 285.4 15.1 285.3 14.9 285.1 14.7 C 284.9 14.5 284.7 14.4 284.4 14.4 C 284.1 14.4 283.9 14.5 283.7 14.7 C 283.5 14.9 283.4 15.2 283.4 15.5 C 283.42 15.51 283.4 17.6 283.4 17.6 L 282.9 17.6 C 282.9 17.6 282.89 15.47 282.9 15.5 C 282.9 15.1 282.8 14.9 282.6 14.7 C 282.5 14.5 282.2 14.4 282 14.4 C 281.7 14.4 281.4 14.5 281.2 14.7 C 281 14.9 280.9 15.2 280.9 15.5 C 280.95 15.53 280.9 17.6 280.9 17.6 L 280.4 17.6 Z M 287 14.7 L 287 14 L 287.7 14 L 287.7 14.7 L 287 14.7 Z M 287 17.6 L 287 16.9 L 287.7 16.9 L 287.7 17.6 L 287 17.6 Z M 292.7 17.6 L 290.6 12.7 L 291.2 12.7 L 293 16.9 L 294.7 12.7 L 295.3 12.7 L 293.2 17.6 L 292.7 17.6 Z M 296.3 17.6 L 296.3 12.7 L 299.8 12.7 L 299.8 13.2 L 296.8 13.2 L 296.8 14.9 L 299.5 14.9 L 299.5 15.4 L 296.8 15.4 L 296.8 17.1 L 299.8 17.1 L 299.8 17.6 L 296.3 17.6 Z M 300.6 17.6 L 300.6 17.2 C 300.6 17.2 302.37 15.6 302.4 15.6 C 302.8 15.3 303 15 303.2 14.8 C 303.3 14.5 303.4 14.3 303.4 14.1 C 303.4 13.8 303.3 13.6 303.1 13.4 C 302.9 13.2 302.7 13.1 302.4 13.1 C 302.1 13.1 301.9 13.2 301.7 13.3 C 301.5 13.5 301.3 13.7 301.1 14 C 301.1 14 300.7 13.7 300.7 13.7 C 300.9 13.3 301.2 13 301.4 12.9 C 301.7 12.7 302 12.6 302.5 12.6 C 302.9 12.6 303.3 12.8 303.5 13 C 303.8 13.3 304 13.6 304 14 C 304 14 304 14 304 14 C 304 14.4 303.9 14.7 303.7 14.9 C 303.5 15.2 303.2 15.5 302.7 15.9 C 302.73 15.93 301.4 17.1 301.4 17.1 L 304 17.1 L 304 17.6 L 300.6 17.6 Z " stroke="none" fill="#000"/>  </g>  <g id="Polygon406232">    <path d="M 2.6 6.8 L 1.7 6.4 C 1.7 6.4 2.28 5.61 2.3 5.6 C 1.7 5.5 1.3 5.2 0.9 4.7 C 0.5 4.3 0.4 3.8 0.4 3.2 C 0.4 3.2 0.4 3.1 0.4 3.1 C 0.4 2.4 0.6 1.8 1.1 1.4 C 1.6 0.9 2.2 0.6 2.9 0.6 C 3.7 0.6 4.4 0.9 4.9 1.4 C 4.9 1.4 4.2 2.2 4.2 2.2 C 3.8 1.8 3.3 1.6 2.9 1.6 C 2.5 1.6 2.2 1.8 1.9 2.1 C 1.6 2.4 1.5 2.7 1.5 3.1 C 1.5 3.1 1.5 3.1 1.5 3.1 C 1.5 3.6 1.6 3.9 1.9 4.2 C 2.2 4.5 2.5 4.7 2.9 4.7 C 3.2 4.7 3.4 4.6 3.6 4.5 C 3.8 4.5 4 4.3 4.2 4.1 C 4.2 4.1 4.9 4.8 4.9 4.8 C 4.4 5.4 3.8 5.6 3.1 5.7 C 3.07 5.68 2.6 6.8 2.6 6.8 Z M 7.8 5.2 C 7.6 5.5 7.2 5.7 6.7 5.7 C 6.3 5.7 6 5.6 5.8 5.4 C 5.5 5.2 5.4 4.9 5.4 4.5 C 5.4 4.5 5.4 4.5 5.4 4.5 C 5.4 4.1 5.6 3.8 5.8 3.6 C 6.1 3.4 6.5 3.3 6.9 3.3 C 7.2 3.3 7.5 3.4 7.8 3.5 C 7.8 3.5 7.8 3.4 7.8 3.4 C 7.8 2.9 7.6 2.7 7 2.7 C 6.7 2.7 6.4 2.8 6 2.9 C 6 2.9 5.7 2.1 5.7 2.1 C 6.2 1.9 6.7 1.8 7.2 1.8 C 7.8 1.8 8.2 1.9 8.5 2.2 C 8.7 2.5 8.9 2.9 8.9 3.4 C 8.87 3.42 8.9 5.6 8.9 5.6 L 7.8 5.6 L 7.8 5.2 C 7.8 5.2 7.84 5.19 7.8 5.2 Z M 7 4.9 C 7.3 4.9 7.5 4.9 7.6 4.8 C 7.8 4.6 7.9 4.5 7.9 4.3 C 7.9 4.3 7.9 4.1 7.9 4.1 C 7.7 4 7.4 3.9 7.2 3.9 C 7 3.9 6.8 4 6.6 4.1 C 6.5 4.2 6.4 4.3 6.4 4.5 C 6.4 4.5 6.4 4.5 6.4 4.5 C 6.4 4.6 6.5 4.7 6.6 4.8 C 6.7 4.9 6.9 4.9 7 4.9 Z M 9.8 5.6 L 9.8 1.8 L 10.8 1.8 C 10.8 1.8 10.85 2.38 10.8 2.4 C 11.2 2 11.5 1.8 12 1.8 C 12.5 1.8 12.8 2 13 2.4 C 13.3 2 13.8 1.8 14.2 1.8 C 14.6 1.8 15 1.9 15.2 2.1 C 15.4 2.4 15.5 2.7 15.5 3.2 C 15.51 3.16 15.5 5.6 15.5 5.6 L 14.4 5.6 C 14.4 5.6 14.45 3.51 14.4 3.5 C 14.4 3 14.2 2.7 13.8 2.7 C 13.6 2.7 13.5 2.8 13.4 2.9 C 13.2 3.1 13.2 3.3 13.2 3.5 C 13.18 3.51 13.2 5.6 13.2 5.6 L 12.1 5.6 C 12.1 5.6 12.12 3.51 12.1 3.5 C 12.1 3 11.9 2.7 11.5 2.7 C 11.3 2.7 11.1 2.8 11 2.9 C 10.9 3.1 10.8 3.3 10.8 3.5 C 10.85 3.51 10.8 5.6 10.8 5.6 L 9.8 5.6 Z M 18.6 5.2 C 18.3 5.5 18 5.7 17.5 5.7 C 17.1 5.7 16.8 5.6 16.6 5.4 C 16.3 5.2 16.2 4.9 16.2 4.5 C 16.2 4.5 16.2 4.5 16.2 4.5 C 16.2 4.1 16.3 3.8 16.6 3.6 C 16.9 3.4 17.3 3.3 17.7 3.3 C 18 3.3 18.3 3.4 18.6 3.5 C 18.6 3.5 18.6 3.4 18.6 3.4 C 18.6 2.9 18.4 2.7 17.8 2.7 C 17.5 2.7 17.1 2.8 16.8 2.9 C 16.8 2.9 16.5 2.1 16.5 2.1 C 17 1.9 17.5 1.8 18 1.8 C 18.6 1.8 19 1.9 19.3 2.2 C 19.5 2.5 19.7 2.9 19.7 3.4 C 19.66 3.42 19.7 5.6 19.7 5.6 L 18.6 5.6 L 18.6 5.2 C 18.6 5.2 18.63 5.19 18.6 5.2 Z M 17.8 4.9 C 18.1 4.9 18.3 4.9 18.4 4.8 C 18.6 4.6 18.7 4.5 18.7 4.3 C 18.7 4.3 18.7 4.1 18.7 4.1 C 18.4 4 18.2 3.9 18 3.9 C 17.7 3.9 17.6 4 17.4 4.1 C 17.3 4.2 17.2 4.3 17.2 4.5 C 17.2 4.5 17.2 4.5 17.2 4.5 C 17.2 4.6 17.3 4.7 17.4 4.8 C 17.5 4.9 17.6 4.9 17.8 4.9 Z M 21.8 6.8 L 20.9 6.4 C 20.9 6.4 21.43 5.62 21.4 5.6 C 21 5.5 20.6 5.4 20.3 5.1 C 20.3 5.1 20.7 4.4 20.7 4.4 C 21.2 4.7 21.5 4.9 21.9 4.9 C 22.2 4.9 22.4 4.8 22.4 4.6 C 22.4 4.6 22.4 4.6 22.4 4.6 C 22.4 4.5 22.4 4.5 22.4 4.5 C 22.3 4.4 22.3 4.4 22.3 4.4 C 22.3 4.4 22.2 4.4 22.2 4.3 C 22.2 4.3 22.1 4.3 22.1 4.3 C 22 4.3 22 4.2 21.9 4.2 C 21.9 4.2 21.8 4.2 21.8 4.2 C 21.7 4.2 21.6 4.1 21.6 4.1 C 21.4 4.1 21.3 4 21.2 4 C 21.1 3.9 21 3.9 20.8 3.8 C 20.7 3.7 20.6 3.6 20.6 3.5 C 20.5 3.3 20.5 3.2 20.5 3 C 20.5 3 20.5 3 20.5 3 C 20.5 2.6 20.6 2.3 20.9 2.1 C 21.1 1.9 21.5 1.8 21.8 1.8 C 22.3 1.8 22.8 1.9 23.2 2.2 C 23.2 2.2 22.8 3 22.8 3 C 22.4 2.7 22.1 2.6 21.8 2.6 C 21.7 2.6 21.6 2.6 21.5 2.7 C 21.5 2.7 21.4 2.8 21.4 2.9 C 21.4 2.9 21.4 2.9 21.4 2.9 C 21.4 3 21.5 3 21.6 3.1 C 21.8 3.2 21.9 3.3 22.2 3.3 C 22.4 3.4 22.5 3.4 22.6 3.5 C 22.7 3.5 22.8 3.6 23 3.7 C 23.1 3.8 23.2 3.9 23.2 4 C 23.3 4.1 23.3 4.3 23.3 4.4 C 23.3 4.4 23.3 4.5 23.3 4.5 C 23.3 4.8 23.2 5.1 23 5.3 C 22.8 5.5 22.6 5.6 22.2 5.6 C 22.22 5.65 21.8 6.8 21.8 6.8 Z M 24.1 5.6 L 24.1 1.8 L 25.2 1.8 L 25.2 5.6 L 24.1 5.6 Z M 26.2 5.6 L 26.2 1.8 L 27.3 1.8 C 27.3 1.8 27.27 2.6 27.3 2.6 C 27.5 2 27.9 1.8 28.5 1.8 C 28.47 1.78 28.5 2.9 28.5 2.9 C 28.5 2.9 28.41 2.89 28.4 2.9 C 28 2.9 27.8 3 27.6 3.2 C 27.4 3.4 27.3 3.8 27.3 4.2 C 27.27 4.21 27.3 5.6 27.3 5.6 L 26.2 5.6 Z M 33.1 5.7 C 32.3 5.7 31.6 5.4 31 4.9 C 31 4.9 31.6 4.1 31.6 4.1 C 32.1 4.5 32.6 4.7 33.1 4.7 C 33.3 4.7 33.5 4.7 33.6 4.6 C 33.8 4.5 33.8 4.4 33.8 4.3 C 33.8 4.3 33.8 4.2 33.8 4.2 C 33.8 4.1 33.8 4 33.6 3.9 C 33.5 3.8 33.2 3.7 32.8 3.6 C 32.6 3.5 32.3 3.5 32.2 3.4 C 32 3.3 31.8 3.3 31.7 3.1 C 31.5 3 31.4 2.9 31.3 2.7 C 31.2 2.6 31.2 2.4 31.2 2.1 C 31.2 2.1 31.2 2.1 31.2 2.1 C 31.2 1.7 31.4 1.3 31.7 1 C 32 0.8 32.4 0.6 32.9 0.6 C 33.6 0.6 34.2 0.8 34.7 1.3 C 34.7 1.3 34.2 2.1 34.2 2.1 C 33.7 1.7 33.3 1.6 32.9 1.6 C 32.7 1.6 32.5 1.6 32.4 1.7 C 32.3 1.8 32.3 1.9 32.3 2 C 32.3 2 32.3 2 32.3 2 C 32.3 2.2 32.3 2.3 32.5 2.4 C 32.6 2.5 32.9 2.6 33.3 2.7 C 33.9 2.8 34.3 3 34.5 3.2 C 34.8 3.4 34.9 3.7 34.9 4.1 C 34.9 4.1 34.9 4.2 34.9 4.2 C 34.9 4.6 34.7 5 34.4 5.3 C 34.1 5.5 33.6 5.7 33.1 5.7 Z M 39 5 C 38.6 5.5 38.1 5.7 37.5 5.7 C 36.9 5.7 36.5 5.5 36.1 5.1 C 35.7 4.8 35.5 4.3 35.5 3.7 C 35.5 3.7 35.5 3.7 35.5 3.7 C 35.5 3.2 35.7 2.7 36.1 2.3 C 36.4 2 36.8 1.8 37.4 1.8 C 38 1.8 38.4 2 38.7 2.4 C 39.1 2.8 39.2 3.2 39.2 3.8 C 39.2 3.9 39.2 4 39.2 4.1 C 39.2 4.1 36.6 4.1 36.6 4.1 C 36.6 4.3 36.7 4.5 36.9 4.6 C 37.1 4.8 37.3 4.8 37.5 4.8 C 37.8 4.8 38.1 4.7 38.4 4.4 C 38.42 4.44 39 5 39 5 C 39 5 39.02 4.98 39 5 Z M 36.6 3.4 C 36.6 3.4 38.2 3.4 38.2 3.4 C 38.1 3.2 38.1 3 37.9 2.8 C 37.8 2.7 37.6 2.6 37.4 2.6 C 37.2 2.6 37 2.7 36.8 2.8 C 36.7 3 36.6 3.2 36.6 3.4 Z M 40 6.7 L 40 1.8 L 41.1 1.8 C 41.1 1.8 41.07 2.39 41.1 2.4 C 41.4 2 41.8 1.8 42.2 1.8 C 42.7 1.8 43.1 2 43.4 2.3 C 43.8 2.6 43.9 3.1 43.9 3.7 C 43.9 3.7 43.9 3.7 43.9 3.7 C 43.9 4.3 43.8 4.8 43.4 5.1 C 43.1 5.5 42.7 5.7 42.2 5.7 C 41.8 5.7 41.4 5.5 41.1 5.1 C 41.07 5.11 41.1 6.7 41.1 6.7 L 40 6.7 Z M 41.1 3.7 C 41.1 4 41.1 4.3 41.3 4.5 C 41.5 4.7 41.7 4.8 42 4.8 C 42.2 4.8 42.4 4.7 42.6 4.5 C 42.8 4.3 42.9 4 42.9 3.7 C 42.9 3.7 42.9 3.7 42.9 3.7 C 42.9 3.4 42.8 3.2 42.6 3 C 42.4 2.8 42.2 2.7 42 2.7 C 41.7 2.7 41.5 2.8 41.3 3 C 41.1 3.2 41.1 3.4 41.1 3.7 C 41.05 3.72 41.1 3.7 41.1 3.7 C 41.1 3.7 41.05 3.73 41.1 3.7 Z M 48 5 C 47.7 5.5 47.2 5.7 46.5 5.7 C 45.9 5.7 45.5 5.5 45.1 5.1 C 44.7 4.8 44.5 4.3 44.5 3.7 C 44.5 3.7 44.5 3.7 44.5 3.7 C 44.5 3.2 44.7 2.7 45.1 2.3 C 45.4 2 45.9 1.8 46.4 1.8 C 47 1.8 47.4 2 47.8 2.4 C 48.1 2.8 48.2 3.2 48.2 3.8 C 48.2 3.9 48.2 4 48.2 4.1 C 48.2 4.1 45.6 4.1 45.6 4.1 C 45.7 4.3 45.8 4.5 45.9 4.6 C 46.1 4.8 46.3 4.8 46.5 4.8 C 46.8 4.8 47.1 4.7 47.4 4.4 C 47.43 4.44 48 5 48 5 C 48 5 48.04 4.98 48 5 Z M 45.6 3.4 C 45.6 3.4 47.2 3.4 47.2 3.4 C 47.2 3.2 47.1 3 46.9 2.8 C 46.8 2.7 46.6 2.6 46.4 2.6 C 46.2 2.6 46 2.7 45.9 2.8 C 45.7 3 45.6 3.2 45.6 3.4 Z M 51.1 5.4 C 50.9 5.6 50.6 5.7 50.3 5.7 C 49.9 5.7 49.7 5.6 49.5 5.4 C 49.3 5.2 49.2 4.9 49.2 4.5 C 49.2 4.54 49.2 2.8 49.2 2.8 L 48.7 2.8 L 48.7 1.8 L 49.2 1.8 L 49.2 0.9 L 50.3 0.9 L 50.3 1.8 L 51.1 1.8 L 51.1 2.8 L 50.3 2.8 C 50.3 2.8 50.26 4.36 50.3 4.4 C 50.3 4.6 50.4 4.7 50.6 4.7 C 50.8 4.7 51 4.7 51.1 4.6 C 51.13 4.59 51.1 5.4 51.1 5.4 C 51.1 5.4 51.13 5.45 51.1 5.4 Z M 51.9 1.4 L 51.9 0.5 L 53.1 0.5 L 53.1 1.4 L 51.9 1.4 Z M 52 5.6 L 52 1.8 L 53 1.8 L 53 5.6 L 52 5.6 Z M 56 3.9 L 56 2.9 L 59 2.9 L 59 3.9 L 56 3.9 Z M 66.2 3.5 C 66.2 4.2 66 4.7 65.7 5.1 C 65.3 5.5 64.8 5.7 64.1 5.7 C 63.4 5.7 62.9 5.5 62.5 5.1 C 62.2 4.8 62 4.2 62 3.5 C 61.97 3.5 62 0.7 62 0.7 L 63 0.7 C 63 0.7 63.05 3.47 63 3.5 C 63 3.9 63.1 4.2 63.3 4.4 C 63.5 4.6 63.8 4.7 64.1 4.7 C 64.4 4.7 64.7 4.6 64.9 4.4 C 65.1 4.2 65.2 3.9 65.2 3.5 C 65.16 3.51 65.2 0.7 65.2 0.7 L 66.2 0.7 L 66.2 3.5 C 66.2 3.5 66.24 3.46 66.2 3.5 Z M 67.2 5.6 L 67.2 1.8 L 68.3 1.8 C 68.3 1.8 68.29 2.38 68.3 2.4 C 68.6 2 69 1.8 69.4 1.8 C 69.9 1.8 70.3 2 70.5 2.4 C 70.8 2 71.2 1.8 71.7 1.8 C 72.1 1.8 72.4 1.9 72.6 2.1 C 72.8 2.4 73 2.7 73 3.2 C 72.95 3.16 73 5.6 73 5.6 L 71.9 5.6 C 71.9 5.6 71.89 3.51 71.9 3.5 C 71.9 3 71.7 2.7 71.3 2.7 C 71.1 2.7 70.9 2.8 70.8 2.9 C 70.7 3.1 70.6 3.3 70.6 3.5 C 70.62 3.51 70.6 5.6 70.6 5.6 L 69.6 5.6 C 69.6 5.6 69.56 3.51 69.6 3.5 C 69.6 3 69.4 2.7 68.9 2.7 C 68.7 2.7 68.6 2.8 68.5 2.9 C 68.3 3.1 68.3 3.3 68.3 3.5 C 68.29 3.51 68.3 5.6 68.3 5.6 L 67.2 5.6 Z M 77.2 5 C 76.8 5.5 76.3 5.7 75.7 5.7 C 75.1 5.7 74.6 5.5 74.2 5.1 C 73.9 4.8 73.7 4.3 73.7 3.7 C 73.7 3.7 73.7 3.7 73.7 3.7 C 73.7 3.2 73.9 2.7 74.2 2.3 C 74.6 2 75 1.8 75.6 1.8 C 76.1 1.8 76.6 2 76.9 2.4 C 77.2 2.8 77.4 3.2 77.4 3.8 C 77.4 3.9 77.4 4 77.4 4.1 C 77.4 4.1 74.8 4.1 74.8 4.1 C 74.8 4.3 74.9 4.5 75.1 4.6 C 75.2 4.8 75.4 4.8 75.7 4.8 C 76 4.8 76.3 4.7 76.6 4.4 C 76.58 4.44 77.2 5 77.2 5 C 77.2 5 77.19 4.98 77.2 5 Z M 74.7 3.4 C 74.7 3.4 76.3 3.4 76.3 3.4 C 76.3 3.2 76.2 3 76.1 2.8 C 75.9 2.7 75.8 2.6 75.6 2.6 C 75.3 2.6 75.2 2.7 75 2.8 C 74.9 3 74.8 3.2 74.7 3.4 Z " stroke="none" fill="#000"/>  </g></svg>