<?xml version="1.0" standalone="no"?><!DOCTYPE svg PUBLIC "-//W3C//DTD SVG 1.1//EN" "http://www.w3.org/Graphics/SVG/1.1/DTD/svg11.dtd"><svg xmlns="http://www.w3.org/2000/svg" version="1.1" width="212px" height="156.4px" viewBox="0 -5 212 156.4" style="top:-5px">  <desc>lk bak ta g r nenden ok daha fazlas . Size zel, her eyi yapar.</desc>  <defs/>  <g id="Polygon366886">    <path d="M 5.7 57.1 C 3.7 57.1 2 56.5 0.6 55.2 C 0.6 55.2 2.2 53.4 2.2 53.4 C 3.3 54.3 4.5 54.8 5.7 54.8 C 6.2 54.8 6.7 54.7 7 54.5 C 7.3 54.3 7.4 54 7.4 53.7 C 7.4 53.7 7.4 53.7 7.4 53.7 C 7.4 53.3 7.3 53 6.9 52.8 C 6.6 52.6 6 52.4 5 52.1 C 4.4 52 3.8 51.8 3.4 51.6 C 2.9 51.5 2.5 51.3 2.2 51 C 1.8 50.7 1.5 50.4 1.3 50 C 1.2 49.6 1.1 49.1 1.1 48.5 C 1.1 48.5 1.1 48.5 1.1 48.5 C 1.1 47.4 1.5 46.5 2.2 45.9 C 3 45.2 4 44.9 5.2 44.9 C 6.9 44.9 8.4 45.4 9.7 46.4 C 9.7 46.4 8.3 48.4 8.3 48.4 C 7.2 47.6 6.1 47.2 5.2 47.2 C 4.7 47.2 4.3 47.3 4.1 47.5 C 3.8 47.7 3.7 47.9 3.7 48.2 C 3.7 48.2 3.7 48.3 3.7 48.3 C 3.7 48.7 3.8 48.9 4.2 49.1 C 4.5 49.3 5.2 49.6 6.2 49.8 C 7.5 50.2 8.5 50.6 9.1 51.1 C 9.7 51.7 10 52.4 10 53.4 C 10 53.4 10 53.4 10 53.4 C 10 54.6 9.6 55.5 8.8 56.1 C 8 56.8 7 57.1 5.7 57.1 Z M 12.1 46.9 L 12.1 44.6 L 14.8 44.6 L 14.8 46.9 L 12.1 46.9 Z M 12.1 57 L 12.1 47.9 L 14.7 47.9 L 14.7 57 L 12.1 57 Z M 16.8 57 L 16.8 55.1 L 21.5 49.9 L 17 49.9 L 17 47.9 L 24.7 47.9 L 24.7 49.7 L 20 54.9 L 24.7 54.9 L 24.7 57 L 16.8 57 Z M 34.5 55.5 C 33.6 56.6 32.3 57.2 30.8 57.2 C 29.4 57.2 28.2 56.7 27.3 55.8 C 26.4 55 26 53.8 26 52.5 C 26 52.5 26 52.4 26 52.4 C 26 51.1 26.4 50 27.3 49.1 C 28.1 48.1 29.2 47.7 30.5 47.7 C 31.9 47.7 33 48.2 33.8 49.1 C 34.5 50.1 34.9 51.2 34.9 52.6 C 34.9 52.7 34.9 53 34.9 53.3 C 34.9 53.3 28.6 53.3 28.6 53.3 C 28.7 53.9 28.9 54.3 29.3 54.6 C 29.7 54.9 30.2 55.1 30.8 55.1 C 31.6 55.1 32.3 54.8 33 54.2 C 32.99 54.15 34.5 55.5 34.5 55.5 C 34.5 55.5 34.47 55.46 34.5 55.5 Z M 28.5 51.7 C 28.5 51.7 32.4 51.7 32.4 51.7 C 32.3 51.1 32.1 50.6 31.8 50.3 C 31.5 49.9 31 49.8 30.5 49.8 C 30 49.8 29.5 49.9 29.2 50.3 C 28.9 50.6 28.6 51.1 28.5 51.7 Z M 46.4 57.2 C 45 57.2 43.8 56.7 42.9 55.8 C 42 54.9 41.5 53.8 41.5 52.5 C 41.5 52.5 41.5 52.4 41.5 52.4 C 41.5 51.1 42 50 42.9 49.1 C 43.9 48.1 45 47.7 46.4 47.7 C 47.8 47.7 49 48.1 49.9 49 C 50.9 49.9 51.3 51.1 51.3 52.4 C 51.3 52.4 51.3 52.4 51.3 52.4 C 51.3 53.7 50.9 54.9 49.9 55.8 C 49 56.7 47.8 57.2 46.4 57.2 Z M 46.4 54.9 C 47.1 54.9 47.7 54.7 48.1 54.2 C 48.6 53.7 48.8 53.2 48.8 52.5 C 48.8 52.5 48.8 52.4 48.8 52.4 C 48.8 51.7 48.6 51.1 48.1 50.6 C 47.7 50.2 47.1 49.9 46.4 49.9 C 45.7 49.9 45.1 50.1 44.7 50.6 C 44.3 51.1 44 51.7 44 52.4 C 44 52.4 44 52.4 44 52.4 C 44 53.1 44.3 53.7 44.7 54.2 C 45.2 54.7 45.7 54.9 46.4 54.9 Z M 46.9 46.9 L 46.9 44.6 L 49.4 44.6 L 49.4 46.9 L 46.9 46.9 Z M 43.4 46.9 L 43.4 44.6 L 45.9 44.6 L 45.9 46.9 L 43.4 46.9 Z M 52.6 57 L 52.6 55.1 L 57.3 49.9 L 52.7 49.9 L 52.7 47.9 L 60.5 47.9 L 60.5 49.7 L 55.8 54.9 L 60.5 54.9 L 60.5 57 L 52.6 57 Z M 70.2 55.5 C 69.3 56.6 68 57.2 66.5 57.2 C 65.1 57.2 64 56.7 63.1 55.8 C 62.2 55 61.7 53.8 61.7 52.5 C 61.7 52.5 61.7 52.4 61.7 52.4 C 61.7 51.1 62.2 50 63 49.1 C 63.8 48.1 64.9 47.7 66.2 47.7 C 67.7 47.7 68.8 48.2 69.5 49.1 C 70.3 50.1 70.7 51.2 70.7 52.6 C 70.7 52.7 70.6 53 70.6 53.3 C 70.6 53.3 64.3 53.3 64.3 53.3 C 64.4 53.9 64.7 54.3 65.1 54.6 C 65.4 54.9 65.9 55.1 66.5 55.1 C 67.3 55.1 68 54.8 68.7 54.2 C 68.72 54.15 70.2 55.5 70.2 55.5 C 70.2 55.5 70.2 55.46 70.2 55.5 Z M 64.3 51.7 C 64.3 51.7 68.1 51.7 68.1 51.7 C 68.1 51.1 67.9 50.6 67.5 50.3 C 67.2 49.9 66.8 49.8 66.2 49.8 C 65.7 49.8 65.3 49.9 64.9 50.3 C 64.6 50.6 64.4 51.1 64.3 51.7 Z M 72.7 57 L 72.7 44.6 L 75.3 44.6 L 75.3 57 L 72.7 57 Z M 77.2 59.7 C 77.2 59.7 77 58.6 77 58.6 C 78.2 58.5 78.7 58 78.6 57 C 78.65 56.95 77.6 57 77.6 57 L 77.6 54.2 L 80.3 54.2 C 80.3 54.2 80.34 56.53 80.3 56.5 C 80.3 57.6 80.1 58.4 79.6 58.9 C 79 59.4 78.2 59.7 77.2 59.7 Z M 87.6 57 L 87.6 44.6 L 90.2 44.6 C 90.2 44.6 90.22 49.14 90.2 49.1 C 91 48.2 91.9 47.7 92.9 47.7 C 93.9 47.7 94.6 48 95.2 48.6 C 95.7 49.2 96 50 96 51.1 C 95.98 51.06 96 57 96 57 L 93.4 57 C 93.4 57 93.4 51.88 93.4 51.9 C 93.4 50.6 92.9 50 91.8 50 C 91.3 50 90.9 50.2 90.6 50.5 C 90.4 50.8 90.2 51.3 90.2 51.9 C 90.22 51.88 90.2 57 90.2 57 L 87.6 57 Z M 106.2 55.5 C 105.3 56.6 104.1 57.2 102.5 57.2 C 101.1 57.2 100 56.7 99.1 55.8 C 98.2 55 97.8 53.8 97.8 52.5 C 97.8 52.5 97.8 52.4 97.8 52.4 C 97.8 51.1 98.2 50 99 49.1 C 99.9 48.1 101 47.7 102.3 47.7 C 103.7 47.7 104.8 48.2 105.6 49.1 C 106.3 50.1 106.7 51.2 106.7 52.6 C 106.7 52.7 106.7 53 106.7 53.3 C 106.7 53.3 100.3 53.3 100.3 53.3 C 100.5 53.9 100.7 54.3 101.1 54.6 C 101.5 54.9 102 55.1 102.6 55.1 C 103.3 55.1 104.1 54.8 104.8 54.2 C 104.77 54.15 106.2 55.5 106.2 55.5 C 106.2 55.5 106.24 55.46 106.2 55.5 Z M 100.3 51.7 C 100.3 51.7 104.2 51.7 104.2 51.7 C 104.1 51.1 103.9 50.6 103.6 50.3 C 103.2 49.9 102.8 49.8 102.3 49.8 C 101.7 49.8 101.3 49.9 101 50.3 C 100.6 50.6 100.4 51.1 100.3 51.7 Z M 108.6 57 L 108.6 47.9 L 111.2 47.9 C 111.2 47.9 111.2 49.69 111.2 49.7 C 111.8 48.3 112.8 47.6 114.1 47.7 C 114.1 47.68 114.1 50.4 114.1 50.4 C 114.1 50.4 113.97 50.38 114 50.4 C 113.1 50.4 112.4 50.6 111.9 51.2 C 111.4 51.7 111.2 52.5 111.2 53.6 C 111.2 53.59 111.2 57 111.2 57 L 108.6 57 Z M 123.7 59.9 L 121.5 59 C 121.5 59 122.86 57 122.9 57 C 121.8 56.8 120.9 56.4 120.1 55.7 C 120.1 55.7 121.2 54 121.2 54 C 122.2 54.8 123.1 55.1 124.1 55.1 C 124.8 55.1 125.1 54.9 125.1 54.5 C 125.1 54.5 125.1 54.4 125.1 54.4 C 125.1 54.3 125.1 54.3 125.1 54.2 C 125.1 54.1 125 54.1 124.9 54 C 124.9 54 124.8 53.9 124.7 53.9 C 124.7 53.8 124.6 53.8 124.4 53.7 C 124.3 53.7 124.2 53.7 124.1 53.6 C 124 53.6 123.9 53.5 123.7 53.5 C 123.5 53.4 123.4 53.4 123.3 53.4 C 122.9 53.3 122.6 53.2 122.3 53 C 122 52.9 121.7 52.7 121.4 52.5 C 121.2 52.3 120.9 52.1 120.8 51.7 C 120.6 51.4 120.6 51.1 120.6 50.6 C 120.6 50.6 120.6 50.6 120.6 50.6 C 120.6 49.7 120.9 49 121.5 48.5 C 122.1 48 122.9 47.7 123.9 47.7 C 125.1 47.7 126.2 48.1 127.3 48.8 C 127.3 48.8 126.3 50.6 126.3 50.6 C 125.3 50 124.5 49.7 123.8 49.7 C 123.5 49.7 123.3 49.8 123.1 49.9 C 123 50 122.9 50.2 122.9 50.3 C 122.9 50.3 122.9 50.4 122.9 50.4 C 122.9 50.6 123 50.8 123.3 50.9 C 123.7 51.1 124.1 51.3 124.7 51.5 C 125.1 51.6 125.4 51.7 125.7 51.8 C 126 51.9 126.3 52.1 126.6 52.3 C 126.9 52.5 127.1 52.8 127.2 53.1 C 127.4 53.4 127.5 53.8 127.5 54.2 C 127.5 54.2 127.5 54.2 127.5 54.2 C 127.5 55 127.2 55.7 126.7 56.2 C 126.3 56.7 125.6 57 124.8 57.1 C 124.79 57.07 123.7 59.9 123.7 59.9 Z M 137.4 55.5 C 136.4 56.6 135.2 57.2 133.6 57.2 C 132.3 57.2 131.1 56.7 130.2 55.8 C 129.3 55 128.9 53.8 128.9 52.5 C 128.9 52.5 128.9 52.4 128.9 52.4 C 128.9 51.1 129.3 50 130.2 49.1 C 131 48.1 132.1 47.7 133.4 47.7 C 134.8 47.7 135.9 48.2 136.7 49.1 C 137.4 50.1 137.8 51.2 137.8 52.6 C 137.8 52.7 137.8 53 137.8 53.3 C 137.8 53.3 131.4 53.3 131.4 53.3 C 131.6 53.9 131.8 54.3 132.2 54.6 C 132.6 54.9 133.1 55.1 133.7 55.1 C 134.5 55.1 135.2 54.8 135.9 54.2 C 135.88 54.15 137.4 55.5 137.4 55.5 C 137.4 55.5 137.35 55.46 137.4 55.5 Z M 131.4 51.7 C 131.4 51.7 135.3 51.7 135.3 51.7 C 135.2 51.1 135 50.6 134.7 50.3 C 134.3 49.9 133.9 49.8 133.4 49.8 C 132.8 49.8 132.4 49.9 132.1 50.3 C 131.7 50.6 131.5 51.1 131.4 51.7 Z M 143.3 54 L 145.3 47.9 L 148 47.9 C 148 47.9 144.46 57.17 144.5 57.2 C 144.1 58.1 143.7 58.8 143.3 59.1 C 142.8 59.5 142.2 59.7 141.5 59.7 C 140.7 59.7 139.9 59.5 139.2 59.1 C 139.2 59.1 140.1 57.2 140.1 57.2 C 140.4 57.5 140.8 57.6 141.2 57.6 C 141.4 57.6 141.6 57.5 141.7 57.5 C 141.8 57.4 141.9 57.2 142.1 57 C 142.05 56.98 138.5 47.9 138.5 47.9 L 141.2 47.9 L 143.3 54 Z M 149.5 46.9 L 149.5 44.6 L 152.3 44.6 L 152.3 46.9 L 149.5 46.9 Z M 149.6 57 L 149.6 47.9 L 152.2 47.9 L 152.2 57 L 149.6 57 Z M 163.7 54 L 165.7 47.9 L 168.4 47.9 C 168.4 47.9 164.86 57.17 164.9 57.2 C 164.5 58.1 164.1 58.8 163.7 59.1 C 163.2 59.5 162.6 59.7 161.9 59.7 C 161.1 59.7 160.3 59.5 159.6 59.1 C 159.6 59.1 160.5 57.2 160.5 57.2 C 160.8 57.5 161.2 57.6 161.6 57.6 C 161.8 57.6 162 57.5 162.1 57.5 C 162.2 57.4 162.3 57.2 162.5 57 C 162.45 56.98 158.9 47.9 158.9 47.9 L 161.6 47.9 L 163.7 54 Z M 174.8 56 C 174.1 56.7 173.2 57.1 172 57.1 C 171.1 57.1 170.4 56.9 169.8 56.4 C 169.2 55.9 168.9 55.2 168.9 54.3 C 168.9 54.3 168.9 54.3 168.9 54.3 C 168.9 53.4 169.3 52.6 169.9 52.1 C 170.6 51.6 171.5 51.4 172.6 51.4 C 173.3 51.4 174.1 51.5 174.8 51.8 C 174.8 51.8 174.8 51.6 174.8 51.6 C 174.8 50.5 174.2 50 172.9 50 C 172 50 171.2 50.1 170.3 50.5 C 170.3 50.5 169.7 48.5 169.7 48.5 C 170.8 48 172 47.8 173.2 47.8 C 174.6 47.8 175.6 48.1 176.3 48.8 C 177 49.4 177.3 50.4 177.3 51.7 C 177.29 51.67 177.3 57 177.3 57 L 174.8 57 L 174.8 56 C 174.8 56 174.79 55.97 174.8 56 Z M 172.8 55.3 C 173.4 55.3 173.9 55.2 174.3 54.9 C 174.7 54.6 174.8 54.2 174.8 53.7 C 174.8 53.7 174.8 53.3 174.8 53.3 C 174.3 53.1 173.8 52.9 173.2 52.9 C 172.6 52.9 172.2 53.1 171.9 53.3 C 171.6 53.5 171.4 53.8 171.4 54.2 C 171.4 54.2 171.4 54.2 171.4 54.2 C 171.4 54.6 171.5 54.8 171.8 55 C 172.1 55.2 172.4 55.3 172.8 55.3 Z M 179.5 59.7 L 179.5 47.9 L 182.1 47.9 C 182.1 47.9 182.09 49.16 182.1 49.2 C 182.8 48.2 183.7 47.7 184.9 47.7 C 186.1 47.7 187 48.1 187.8 48.9 C 188.7 49.8 189.1 50.9 189.1 52.4 C 189.1 52.4 189.1 52.4 189.1 52.4 C 189.1 53.9 188.7 55 187.9 55.9 C 187 56.7 186.1 57.1 184.9 57.1 C 183.8 57.1 182.8 56.7 182.1 55.8 C 182.09 55.76 182.1 59.7 182.1 59.7 L 179.5 59.7 Z M 182.1 52.4 C 182.1 53.2 182.3 53.8 182.7 54.2 C 183.1 54.7 183.6 54.9 184.3 54.9 C 184.9 54.9 185.4 54.7 185.8 54.2 C 186.3 53.8 186.5 53.2 186.5 52.4 C 186.5 52.4 186.5 52.4 186.5 52.4 C 186.5 51.6 186.3 51 185.8 50.6 C 185.4 50.1 184.9 49.9 184.3 49.9 C 183.6 49.9 183.1 50.1 182.7 50.6 C 182.3 51 182.1 51.6 182.1 52.4 C 182.06 52.38 182.1 52.4 182.1 52.4 C 182.1 52.4 182.06 52.42 182.1 52.4 Z M 196.3 56 C 195.6 56.7 194.7 57.1 193.5 57.1 C 192.7 57.1 191.9 56.9 191.3 56.4 C 190.7 55.9 190.4 55.2 190.4 54.3 C 190.4 54.3 190.4 54.3 190.4 54.3 C 190.4 53.4 190.8 52.6 191.4 52.1 C 192.1 51.6 193 51.4 194.1 51.4 C 194.8 51.4 195.6 51.5 196.3 51.8 C 196.3 51.8 196.3 51.6 196.3 51.6 C 196.3 50.5 195.7 50 194.4 50 C 193.5 50 192.7 50.1 191.8 50.5 C 191.8 50.5 191.2 48.5 191.2 48.5 C 192.3 48 193.5 47.8 194.7 47.8 C 196.1 47.8 197.1 48.1 197.8 48.8 C 198.5 49.4 198.8 50.4 198.8 51.7 C 198.79 51.67 198.8 57 198.8 57 L 196.3 57 L 196.3 56 C 196.3 56 196.3 55.97 196.3 56 Z M 194.3 55.3 C 194.9 55.3 195.4 55.2 195.8 54.9 C 196.2 54.6 196.3 54.2 196.3 53.7 C 196.3 53.7 196.3 53.3 196.3 53.3 C 195.8 53.1 195.3 52.9 194.7 52.9 C 194.1 52.9 193.7 53.1 193.4 53.3 C 193.1 53.5 192.9 53.8 192.9 54.2 C 192.9 54.2 192.9 54.2 192.9 54.2 C 192.9 54.6 193 54.8 193.3 55 C 193.6 55.2 193.9 55.3 194.3 55.3 Z M 201 57 L 201 47.9 L 203.6 47.9 C 203.6 47.9 203.59 49.69 203.6 49.7 C 204.2 48.3 205.1 47.6 206.5 47.7 C 206.5 47.68 206.5 50.4 206.5 50.4 C 206.5 50.4 206.36 50.38 206.4 50.4 C 205.5 50.4 204.8 50.6 204.3 51.2 C 203.8 51.7 203.6 52.5 203.6 53.6 C 203.59 53.59 203.6 57 203.6 57 L 201 57 Z M 206.5 57 L 206.5 54.2 L 209.2 54.2 L 209.2 57 L 206.5 57 Z " stroke="none" fill="#fff"/>  </g>  <g id="Polygon366885">    <path d="M 4.8 38.2 L 2.6 37.3 C 2.6 37.3 4.01 35.26 4 35.3 C 3 35 2.2 34.4 1.6 33.6 C 1 32.8 0.7 31.8 0.7 30.8 C 0.7 30.8 0.7 30.7 0.7 30.7 C 0.7 29.4 1.2 28.3 2.1 27.4 C 3 26.5 4.1 26 5.5 26 C 7 26 8.2 26.5 9.1 27.5 C 9.1 27.5 7.5 29.2 7.5 29.2 C 7.2 28.9 6.9 28.6 6.6 28.5 C 6.3 28.3 5.9 28.2 5.5 28.2 C 4.8 28.2 4.3 28.5 3.9 28.9 C 3.5 29.4 3.3 30 3.3 30.7 C 3.3 30.7 3.3 30.7 3.3 30.7 C 3.3 31.5 3.5 32.1 3.9 32.5 C 4.3 33 4.9 33.2 5.6 33.2 C 6.3 33.2 7 32.9 7.7 32.3 C 7.7 32.3 9.2 33.8 9.2 33.8 C 8.7 34.3 8.2 34.7 7.7 35 C 7.2 35.2 6.6 35.4 5.9 35.5 C 5.87 35.45 4.8 38.2 4.8 38.2 Z M 15.1 35.5 C 13.7 35.5 12.5 35 11.6 34.1 C 10.6 33.2 10.1 32.1 10.1 30.8 C 10.1 30.8 10.1 30.7 10.1 30.7 C 10.1 29.4 10.6 28.3 11.6 27.4 C 12.5 26.5 13.7 26 15.1 26 C 16.5 26 17.6 26.4 18.6 27.4 C 19.5 28.3 20 29.4 20 30.7 C 20 30.7 20 30.7 20 30.7 C 20 32.1 19.5 33.2 18.6 34.1 C 17.6 35 16.5 35.5 15.1 35.5 Z M 15.1 33.2 C 15.8 33.2 16.4 33 16.8 32.5 C 17.2 32.1 17.4 31.5 17.4 30.8 C 17.4 30.8 17.4 30.7 17.4 30.7 C 17.4 30 17.2 29.5 16.8 29 C 16.3 28.5 15.8 28.2 15.1 28.2 C 14.3 28.2 13.8 28.5 13.3 28.9 C 12.9 29.4 12.7 30 12.7 30.7 C 12.7 30.7 12.7 30.7 12.7 30.7 C 12.7 31.4 12.9 32 13.4 32.5 C 13.8 33 14.4 33.2 15.1 33.2 Z M 21.9 35.3 L 21.9 22.9 L 24.4 22.9 L 24.4 29.5 L 27.5 26.2 L 30.5 26.2 L 27.1 29.7 L 30.7 35.3 L 27.7 35.3 L 25.4 31.5 L 24.4 32.5 L 24.4 35.3 L 21.9 35.3 Z M 43.6 34 C 42.9 34.9 41.9 35.4 40.7 35.4 C 39.6 35.4 38.6 35 37.8 34.2 C 37 33.3 36.6 32.2 36.6 30.7 C 36.6 30.7 36.6 30.7 36.6 30.7 C 36.6 29.3 37 28.1 37.8 27.3 C 38.6 26.4 39.6 26 40.7 26 C 41.9 26 42.8 26.4 43.6 27.4 C 43.57 27.35 43.6 22.9 43.6 22.9 L 46.1 22.9 L 46.1 35.3 L 43.6 35.3 L 43.6 34 C 43.6 34 43.57 33.96 43.6 34 Z M 39.2 30.7 C 39.2 31.5 39.4 32.1 39.8 32.5 C 40.2 33 40.8 33.2 41.4 33.2 C 42 33.2 42.5 33 43 32.5 C 43.4 32.1 43.6 31.5 43.6 30.7 C 43.6 30.7 43.6 30.7 43.6 30.7 C 43.6 30 43.4 29.4 43 28.9 C 42.5 28.4 42 28.2 41.4 28.2 C 40.8 28.2 40.2 28.4 39.8 28.9 C 39.4 29.3 39.2 30 39.2 30.7 C 39.17 30.7 39.2 30.7 39.2 30.7 C 39.2 30.7 39.17 30.73 39.2 30.7 Z M 53.8 34.3 C 53.1 35 52.2 35.4 51 35.4 C 50.1 35.4 49.4 35.2 48.8 34.7 C 48.2 34.2 47.9 33.5 47.9 32.7 C 47.9 32.7 47.9 32.6 47.9 32.6 C 47.9 31.7 48.2 30.9 48.9 30.5 C 49.6 30 50.5 29.7 51.6 29.7 C 52.3 29.7 53.1 29.8 53.8 30.1 C 53.8 30.1 53.8 29.9 53.8 29.9 C 53.8 28.8 53.1 28.3 51.8 28.3 C 51 28.3 50.2 28.4 49.3 28.8 C 49.3 28.8 48.7 26.8 48.7 26.8 C 49.8 26.3 51 26.1 52.2 26.1 C 53.6 26.1 54.6 26.4 55.3 27.1 C 56 27.7 56.3 28.7 56.3 30 C 56.28 29.99 56.3 35.3 56.3 35.3 L 53.8 35.3 L 53.8 34.3 C 53.8 34.3 53.78 34.28 53.8 34.3 Z M 51.8 33.7 C 52.4 33.7 52.9 33.5 53.3 33.2 C 53.7 32.9 53.8 32.5 53.8 32.1 C 53.8 32.1 53.8 31.6 53.8 31.6 C 53.3 31.4 52.8 31.3 52.2 31.3 C 51.6 31.3 51.2 31.4 50.9 31.6 C 50.6 31.8 50.4 32.1 50.4 32.5 C 50.4 32.5 50.4 32.5 50.4 32.5 C 50.4 32.9 50.5 33.2 50.8 33.4 C 51.1 33.6 51.4 33.7 51.8 33.7 Z M 58.5 35.3 L 58.5 22.9 L 61.1 22.9 C 61.1 22.9 61.08 27.46 61.1 27.5 C 61.8 26.5 62.7 26 63.7 26 C 64.7 26 65.5 26.3 66 26.9 C 66.6 27.5 66.8 28.3 66.8 29.4 C 66.84 29.37 66.8 35.3 66.8 35.3 L 64.3 35.3 C 64.3 35.3 64.26 30.19 64.3 30.2 C 64.3 29 63.7 28.3 62.7 28.3 C 62.2 28.3 61.8 28.5 61.5 28.8 C 61.2 29.1 61.1 29.6 61.1 30.2 C 61.08 30.19 61.1 35.3 61.1 35.3 L 58.5 35.3 Z M 74.4 34.3 C 73.7 35 72.8 35.4 71.7 35.4 C 70.8 35.4 70 35.2 69.4 34.7 C 68.8 34.2 68.5 33.5 68.5 32.7 C 68.5 32.7 68.5 32.6 68.5 32.6 C 68.5 31.7 68.9 30.9 69.5 30.5 C 70.2 30 71.1 29.7 72.2 29.7 C 72.9 29.7 73.7 29.8 74.4 30.1 C 74.4 30.1 74.4 29.9 74.4 29.9 C 74.4 28.8 73.8 28.3 72.5 28.3 C 71.6 28.3 70.8 28.4 70 28.8 C 70 28.8 69.3 26.8 69.3 26.8 C 70.5 26.3 71.6 26.1 72.8 26.1 C 74.2 26.1 75.2 26.4 75.9 27.1 C 76.6 27.7 76.9 28.7 76.9 30 C 76.9 29.99 76.9 35.3 76.9 35.3 L 74.4 35.3 L 74.4 34.3 C 74.4 34.3 74.4 34.28 74.4 34.3 Z M 72.4 33.7 C 73 33.7 73.5 33.5 73.9 33.2 C 74.3 32.9 74.5 32.5 74.5 32.1 C 74.5 32.1 74.5 31.6 74.5 31.6 C 73.9 31.4 73.4 31.3 72.8 31.3 C 72.3 31.3 71.8 31.4 71.5 31.6 C 71.2 31.8 71 32.1 71 32.5 C 71 32.5 71 32.5 71 32.5 C 71 32.9 71.2 33.2 71.4 33.4 C 71.7 33.6 72 33.7 72.4 33.7 Z M 84.7 35.3 L 84.7 28.4 L 83.6 28.4 L 83.6 26.3 L 84.7 26.3 C 84.7 26.3 84.66 25.67 84.7 25.7 C 84.7 24.7 84.9 24 85.4 23.5 C 85.9 23 86.6 22.8 87.5 22.8 C 88.2 22.8 88.8 22.8 89.3 23 C 89.3 23 89.3 25.1 89.3 25.1 C 88.9 25 88.5 24.9 88.1 24.9 C 87.5 24.9 87.2 25.3 87.2 25.9 C 87.2 25.91 87.2 26.3 87.2 26.3 L 89.3 26.3 L 89.3 28.4 L 87.2 28.4 L 87.2 35.3 L 84.7 35.3 Z M 95.8 34.3 C 95.1 35 94.2 35.4 93 35.4 C 92.1 35.4 91.4 35.2 90.8 34.7 C 90.2 34.2 89.9 33.5 89.9 32.7 C 89.9 32.7 89.9 32.6 89.9 32.6 C 89.9 31.7 90.2 30.9 90.9 30.5 C 91.6 30 92.4 29.7 93.6 29.7 C 94.3 29.7 95 29.8 95.8 30.1 C 95.8 30.1 95.8 29.9 95.8 29.9 C 95.8 28.8 95.1 28.3 93.8 28.3 C 93 28.3 92.2 28.4 91.3 28.8 C 91.3 28.8 90.7 26.8 90.7 26.8 C 91.8 26.3 93 26.1 94.2 26.1 C 95.6 26.1 96.6 26.4 97.3 27.1 C 97.9 27.7 98.3 28.7 98.3 30 C 98.27 29.99 98.3 35.3 98.3 35.3 L 95.8 35.3 L 95.8 34.3 C 95.8 34.3 95.77 34.28 95.8 34.3 Z M 93.8 33.7 C 94.4 33.7 94.9 33.5 95.3 33.2 C 95.6 32.9 95.8 32.5 95.8 32.1 C 95.8 32.1 95.8 31.6 95.8 31.6 C 95.3 31.4 94.8 31.3 94.2 31.3 C 93.6 31.3 93.2 31.4 92.9 31.6 C 92.6 31.8 92.4 32.1 92.4 32.5 C 92.4 32.5 92.4 32.5 92.4 32.5 C 92.4 32.9 92.5 33.2 92.8 33.4 C 93 33.6 93.4 33.7 93.8 33.7 Z M 100.2 35.3 L 100.2 33.4 L 104.9 28.3 L 100.3 28.3 L 100.3 26.2 L 108.1 26.2 L 108.1 28 L 103.4 33.2 L 108.1 33.2 L 108.1 35.3 L 100.2 35.3 Z M 110.2 35.3 L 110.2 22.9 L 112.7 22.9 L 112.7 35.3 L 110.2 35.3 Z M 120.5 34.3 C 119.8 35 118.9 35.4 117.8 35.4 C 116.9 35.4 116.1 35.2 115.5 34.7 C 114.9 34.2 114.6 33.5 114.6 32.7 C 114.6 32.7 114.6 32.6 114.6 32.6 C 114.6 31.7 115 30.9 115.6 30.5 C 116.3 30 117.2 29.7 118.3 29.7 C 119 29.7 119.8 29.8 120.5 30.1 C 120.5 30.1 120.5 29.9 120.5 29.9 C 120.5 28.8 119.9 28.3 118.6 28.3 C 117.7 28.3 116.9 28.4 116.1 28.8 C 116.1 28.8 115.4 26.8 115.4 26.8 C 116.6 26.3 117.7 26.1 118.9 26.1 C 120.3 26.1 121.3 26.4 122 27.1 C 122.7 27.7 123 28.7 123 30 C 122.99 29.99 123 35.3 123 35.3 L 120.5 35.3 L 120.5 34.3 C 120.5 34.3 120.5 34.28 120.5 34.3 Z M 118.5 33.7 C 119.1 33.7 119.6 33.5 120 33.2 C 120.4 32.9 120.6 32.5 120.6 32.1 C 120.6 32.1 120.6 31.6 120.6 31.6 C 120 31.4 119.5 31.3 118.9 31.3 C 118.3 31.3 117.9 31.4 117.6 31.6 C 117.3 31.8 117.1 32.1 117.1 32.5 C 117.1 32.5 117.1 32.5 117.1 32.5 C 117.1 32.9 117.3 33.2 117.5 33.4 C 117.8 33.6 118.1 33.7 118.5 33.7 Z M 128.4 35.4 C 127 35.4 125.7 35 124.5 34.1 C 124.5 34.1 125.6 32.4 125.6 32.4 C 126.6 33.1 127.6 33.4 128.5 33.4 C 129.2 33.4 129.6 33.2 129.6 32.8 C 129.6 32.8 129.6 32.7 129.6 32.7 C 129.6 32.7 129.5 32.6 129.5 32.5 C 129.5 32.4 129.4 32.4 129.4 32.3 C 129.3 32.3 129.2 32.2 129.1 32.2 C 129.1 32.1 129 32.1 128.8 32.1 C 128.7 32 128.6 32 128.5 31.9 C 128.4 31.9 128.3 31.9 128.1 31.8 C 127.9 31.8 127.8 31.7 127.7 31.7 C 127.3 31.6 127 31.5 126.7 31.3 C 126.4 31.2 126.1 31.1 125.9 30.9 C 125.6 30.6 125.3 30.4 125.2 30.1 C 125 29.7 125 29.4 125 29 C 125 29 125 28.9 125 28.9 C 125 28 125.3 27.3 125.9 26.8 C 126.5 26.3 127.3 26 128.3 26 C 129.5 26 130.6 26.4 131.7 27.1 C 131.7 27.1 130.7 28.9 130.7 28.9 C 129.7 28.3 128.9 28 128.2 28 C 127.9 28 127.7 28.1 127.5 28.2 C 127.4 28.3 127.3 28.5 127.3 28.6 C 127.3 28.6 127.3 28.7 127.3 28.7 C 127.3 28.9 127.4 29.1 127.8 29.2 C 128.1 29.4 128.5 29.6 129.1 29.8 C 129.5 29.9 129.9 30 130.1 30.1 C 130.4 30.3 130.7 30.4 131 30.6 C 131.3 30.8 131.5 31.1 131.7 31.4 C 131.8 31.7 131.9 32.1 131.9 32.5 C 131.9 32.5 131.9 32.5 131.9 32.5 C 131.9 33.5 131.6 34.2 130.9 34.7 C 130.3 35.2 129.4 35.4 128.4 35.4 Z M 133.9 35.3 L 133.9 26.2 L 136.4 26.2 L 136.4 35.3 L 133.9 35.3 Z M 138.8 35.3 L 138.8 32.5 L 141.5 32.5 L 141.5 35.3 L 138.8 35.3 Z " stroke="none" fill="#fff"/>  </g>  <g id="Polygon366884">    <path d="M 1.5 13.6 L 1.5 1.7 L 4.2 1.7 L 4.2 13.6 L 1.5 13.6 Z M 1.6 0.8 L 1.6 -1.4 L 4.1 -1.4 L 4.1 0.8 L 1.6 0.8 Z M 7 13.6 L 7 1.2 L 9.6 1.2 L 9.6 13.6 L 7 13.6 Z M 12 13.6 L 12 1.2 L 14.6 1.2 L 14.6 7.8 L 17.6 4.5 L 20.7 4.5 L 17.2 8.1 L 20.8 13.6 L 17.8 13.6 L 15.5 9.8 L 14.6 10.8 L 14.6 13.6 L 12 13.6 Z M 32.5 13.7 C 31.4 13.7 30.5 13.3 29.7 12.4 C 29.7 12.39 29.7 13.6 29.7 13.6 L 27.1 13.6 L 27.1 1.2 L 29.7 1.2 C 29.7 1.2 29.7 5.79 29.7 5.8 C 30.4 4.8 31.4 4.3 32.5 4.3 C 33.7 4.3 34.6 4.7 35.5 5.6 C 36.3 6.4 36.7 7.6 36.7 9 C 36.7 9 36.7 9 36.7 9 C 36.7 10.5 36.3 11.6 35.5 12.5 C 34.7 13.3 33.7 13.7 32.5 13.7 Z M 29.7 9 C 29.7 9.8 29.9 10.4 30.3 10.9 C 30.7 11.3 31.3 11.6 31.9 11.6 C 32.5 11.6 33 11.3 33.5 10.9 C 33.9 10.4 34.1 9.8 34.1 9 C 34.1 9 34.1 9 34.1 9 C 34.1 8.3 33.9 7.7 33.5 7.2 C 33 6.7 32.5 6.5 31.9 6.5 C 31.3 6.5 30.7 6.7 30.3 7.2 C 29.9 7.7 29.7 8.3 29.7 9 C 29.67 9.01 29.7 9 29.7 9 C 29.7 9 29.67 9.05 29.7 9 Z M 43.9 12.6 C 43.2 13.4 42.3 13.7 41.2 13.7 C 40.3 13.7 39.5 13.5 38.9 13 C 38.3 12.5 38 11.8 38 11 C 38 11 38 10.9 38 10.9 C 38 10 38.4 9.3 39 8.8 C 39.7 8.3 40.6 8 41.7 8 C 42.4 8 43.2 8.2 43.9 8.4 C 43.9 8.4 43.9 8.2 43.9 8.2 C 43.9 7.1 43.3 6.6 42 6.6 C 41.1 6.6 40.3 6.7 39.5 7.1 C 39.5 7.1 38.8 5.1 38.8 5.1 C 40 4.6 41.1 4.4 42.3 4.4 C 43.7 4.4 44.7 4.7 45.4 5.4 C 46.1 6.1 46.4 7 46.4 8.3 C 46.4 8.3 46.4 13.6 46.4 13.6 L 43.9 13.6 L 43.9 12.6 C 43.9 12.6 43.91 12.59 43.9 12.6 Z M 41.9 12 C 42.5 12 43 11.8 43.4 11.5 C 43.8 11.2 44 10.8 44 10.4 C 44 10.4 44 9.9 44 9.9 C 43.4 9.7 42.9 9.6 42.3 9.6 C 41.8 9.6 41.3 9.7 41 9.9 C 40.7 10.1 40.5 10.4 40.5 10.8 C 40.5 10.8 40.5 10.9 40.5 10.9 C 40.5 11.2 40.7 11.5 40.9 11.7 C 41.2 11.9 41.5 12 41.9 12 Z M 48.6 13.6 L 48.6 1.2 L 51.2 1.2 L 51.2 7.8 L 54.2 4.5 L 57.3 4.5 L 53.9 8.1 L 57.4 13.6 L 54.4 13.6 L 52.1 9.8 L 51.2 10.8 L 51.2 13.6 L 48.6 13.6 Z M 58.8 13.6 L 58.8 4.5 L 61.4 4.5 L 61.4 13.6 L 58.8 13.6 Z M 66.6 16.5 L 64.5 15.6 C 64.5 15.6 65.85 13.63 65.9 13.6 C 64.8 13.4 63.9 13 63.1 12.4 C 63.1 12.4 64.2 10.7 64.2 10.7 C 65.2 11.4 66.1 11.8 67.1 11.8 C 67.8 11.8 68.1 11.5 68.1 11.1 C 68.1 11.1 68.1 11 68.1 11 C 68.1 11 68.1 10.9 68.1 10.8 C 68.1 10.8 68 10.7 67.9 10.6 C 67.9 10.6 67.8 10.6 67.7 10.5 C 67.6 10.5 67.5 10.4 67.4 10.4 C 67.3 10.3 67.2 10.3 67.1 10.3 C 67 10.2 66.8 10.2 66.7 10.1 C 66.5 10.1 66.4 10 66.3 10 C 65.9 9.9 65.6 9.8 65.3 9.7 C 65 9.5 64.7 9.4 64.4 9.2 C 64.1 9 63.9 8.7 63.8 8.4 C 63.6 8.1 63.5 7.7 63.5 7.3 C 63.5 7.3 63.5 7.2 63.5 7.2 C 63.5 6.3 63.9 5.6 64.5 5.1 C 65.1 4.6 65.9 4.3 66.9 4.3 C 68.1 4.3 69.2 4.7 70.3 5.4 C 70.3 5.4 69.3 7.2 69.3 7.2 C 68.3 6.6 67.5 6.3 66.8 6.3 C 66.5 6.3 66.3 6.4 66.1 6.5 C 65.9 6.6 65.9 6.8 65.9 7 C 65.9 7 65.9 7 65.9 7 C 65.9 7.2 66 7.4 66.3 7.6 C 66.6 7.7 67.1 7.9 67.7 8.1 C 68.1 8.2 68.4 8.3 68.7 8.5 C 69 8.6 69.3 8.7 69.6 9 C 69.8 9.2 70.1 9.4 70.2 9.7 C 70.4 10 70.5 10.4 70.5 10.8 C 70.5 10.8 70.5 10.8 70.5 10.8 C 70.5 11.6 70.2 12.3 69.7 12.8 C 69.3 13.3 68.6 13.6 67.8 13.7 C 67.79 13.7 66.6 16.5 66.6 16.5 Z M 77.3 13.2 C 76.7 13.6 76 13.7 75.2 13.7 C 74.4 13.7 73.7 13.5 73.3 13.1 C 72.8 12.7 72.6 12 72.6 11 C 72.57 11 72.6 6.7 72.6 6.7 L 71.5 6.7 L 71.5 4.5 L 72.6 4.5 L 72.6 2.2 L 75.2 2.2 L 75.2 4.5 L 77.3 4.5 L 77.3 6.7 L 75.2 6.7 C 75.2 6.7 75.15 10.57 75.2 10.6 C 75.2 11.2 75.4 11.5 76 11.5 C 76.4 11.5 76.9 11.3 77.3 11.1 C 77.26 11.13 77.3 13.2 77.3 13.2 C 77.3 13.2 77.26 13.2 77.3 13.2 Z M 84.5 12.6 C 83.8 13.4 82.9 13.7 81.8 13.7 C 80.9 13.7 80.1 13.5 79.5 13 C 78.9 12.5 78.6 11.8 78.6 11 C 78.6 11 78.6 10.9 78.6 10.9 C 78.6 10 79 9.3 79.6 8.8 C 80.3 8.3 81.2 8 82.3 8 C 83 8 83.8 8.2 84.5 8.4 C 84.5 8.4 84.5 8.2 84.5 8.2 C 84.5 7.1 83.9 6.6 82.6 6.6 C 81.8 6.6 80.9 6.7 80.1 7.1 C 80.1 7.1 79.4 5.1 79.4 5.1 C 80.6 4.6 81.7 4.4 83 4.4 C 84.3 4.4 85.4 4.7 86 5.4 C 86.7 6.1 87 7 87 8.3 C 87.01 8.3 87 13.6 87 13.6 L 84.5 13.6 L 84.5 12.6 C 84.5 12.6 84.52 12.59 84.5 12.6 Z M 82.6 12 C 83.2 12 83.7 11.8 84 11.5 C 84.4 11.2 84.6 10.8 84.6 10.4 C 84.6 10.4 84.6 9.9 84.6 9.9 C 84.1 9.7 83.5 9.6 82.9 9.6 C 82.4 9.6 81.9 9.7 81.6 9.9 C 81.3 10.1 81.1 10.4 81.1 10.8 C 81.1 10.8 81.1 10.9 81.1 10.9 C 81.1 11.2 81.3 11.5 81.5 11.7 C 81.8 11.9 82.1 12 82.6 12 Z M 102.3 15.1 C 101.5 15.9 100.2 16.3 98.4 16.3 C 96.9 16.3 95.6 16 94.4 15.4 C 94.4 15.4 95.3 13.4 95.3 13.4 C 96.3 14 97.3 14.3 98.3 14.3 C 100.1 14.3 100.9 13.4 100.9 11.8 C 100.9 11.8 100.9 11.4 100.9 11.4 C 100.5 11.9 100.1 12.2 99.6 12.5 C 99.2 12.7 98.6 12.8 98 12.8 C 96.8 12.8 95.9 12.4 95.1 11.7 C 94.3 10.9 93.9 9.9 93.9 8.6 C 93.9 8.6 93.9 8.6 93.9 8.6 C 93.9 7.3 94.3 6.2 95.1 5.5 C 95.9 4.7 96.9 4.3 98 4.3 C 99.1 4.3 100.1 4.8 100.9 5.7 C 100.9 5.67 100.9 4.5 100.9 4.5 L 103.5 4.5 C 103.5 4.5 103.48 11.52 103.5 11.5 C 103.5 13.1 103.1 14.3 102.3 15.1 C 102.3 15.1 102.3 15.1 102.3 15.1 Z M 96.5 8.6 C 96.5 9.2 96.7 9.7 97.1 10.1 C 97.5 10.5 98.1 10.7 98.7 10.7 C 99.4 10.7 99.9 10.5 100.3 10.1 C 100.7 9.7 100.9 9.2 100.9 8.6 C 100.9 8.6 100.9 8.6 100.9 8.6 C 100.9 7.9 100.7 7.4 100.3 7 C 99.9 6.6 99.4 6.4 98.7 6.4 C 98.1 6.4 97.5 6.6 97.1 7 C 96.7 7.4 96.5 7.9 96.5 8.6 C 96.5 8.55 96.5 8.6 96.5 8.6 C 96.5 8.6 96.5 8.59 96.5 8.6 Z M 110.2 13.8 C 108.9 13.8 107.7 13.3 106.8 12.4 C 105.8 11.5 105.3 10.4 105.3 9.1 C 105.3 9.1 105.3 9 105.3 9 C 105.3 7.7 105.8 6.6 106.8 5.7 C 107.7 4.8 108.9 4.3 110.3 4.3 C 111.7 4.3 112.8 4.8 113.8 5.7 C 114.7 6.6 115.2 7.7 115.2 9 C 115.2 9 115.2 9 115.2 9 C 115.2 10.4 114.7 11.5 113.8 12.4 C 112.8 13.3 111.7 13.8 110.2 13.8 Z M 110.3 11.6 C 111 11.6 111.6 11.3 112 10.8 C 112.4 10.4 112.6 9.8 112.6 9.1 C 112.6 9.1 112.6 9 112.6 9 C 112.6 8.4 112.4 7.8 112 7.3 C 111.5 6.8 111 6.5 110.2 6.5 C 109.5 6.5 109 6.8 108.5 7.2 C 108.1 7.7 107.9 8.3 107.9 9 C 107.9 9 107.9 9 107.9 9 C 107.9 9.7 108.1 10.3 108.6 10.8 C 109 11.3 109.6 11.6 110.3 11.6 Z M 110.8 3.5 L 110.8 1.2 L 113.3 1.2 L 113.3 3.5 L 110.8 3.5 Z M 107.3 3.5 L 107.3 1.2 L 109.7 1.2 L 109.7 3.5 L 107.3 3.5 Z M 117.1 13.6 L 117.1 4.5 L 119.6 4.5 C 119.6 4.5 119.63 6.31 119.6 6.3 C 120.2 4.9 121.2 4.3 122.5 4.3 C 122.54 4.31 122.5 7 122.5 7 C 122.5 7 122.4 7.01 122.4 7 C 121.5 7 120.8 7.3 120.4 7.8 C 119.9 8.3 119.6 9.1 119.6 10.2 C 119.63 10.22 119.6 13.6 119.6 13.6 L 117.1 13.6 Z M 129.8 12.3 C 129.1 13.3 128.2 13.7 127.2 13.7 C 126.2 13.7 125.4 13.5 124.9 12.9 C 124.3 12.3 124.1 11.4 124.1 10.4 C 124.08 10.37 124.1 4.5 124.1 4.5 L 126.7 4.5 C 126.7 4.5 126.66 9.56 126.7 9.6 C 126.7 10.8 127.2 11.4 128.2 11.4 C 128.7 11.4 129.1 11.2 129.4 10.9 C 129.7 10.6 129.8 10.2 129.8 9.6 C 129.83 9.56 129.8 4.5 129.8 4.5 L 132.4 4.5 L 132.4 13.6 L 129.8 13.6 L 129.8 12.3 C 129.8 12.3 129.83 12.29 129.8 12.3 Z M 128.8 3.5 L 128.8 1.2 L 131.2 1.2 L 131.2 3.5 L 128.8 3.5 Z M 125.2 3.5 L 125.2 1.2 L 127.7 1.2 L 127.7 3.5 L 125.2 3.5 Z M 134.7 13.6 L 134.7 4.5 L 137.3 4.5 C 137.3 4.5 137.3 5.77 137.3 5.8 C 138.1 4.8 138.9 4.3 140 4.3 C 141 4.3 141.7 4.6 142.2 5.2 C 142.8 5.8 143.1 6.6 143.1 7.7 C 143.06 7.69 143.1 13.6 143.1 13.6 L 140.5 13.6 C 140.5 13.6 140.48 8.5 140.5 8.5 C 140.5 7.3 140 6.7 138.9 6.7 C 138.4 6.7 138 6.8 137.7 7.1 C 137.4 7.4 137.3 7.9 137.3 8.5 C 137.3 8.5 137.3 13.6 137.3 13.6 L 134.7 13.6 Z M 153.3 12.1 C 152.4 13.2 151.2 13.8 149.6 13.8 C 148.2 13.8 147.1 13.3 146.2 12.5 C 145.3 11.6 144.9 10.5 144.9 9.1 C 144.9 9.1 144.9 9 144.9 9 C 144.9 7.7 145.3 6.6 146.1 5.7 C 147 4.8 148.1 4.3 149.4 4.3 C 150.8 4.3 151.9 4.8 152.6 5.7 C 153.4 6.7 153.8 7.9 153.8 9.2 C 153.8 9.4 153.8 9.6 153.7 9.9 C 153.7 9.9 147.4 9.9 147.4 9.9 C 147.5 10.5 147.8 10.9 148.2 11.3 C 148.6 11.6 149.1 11.7 149.6 11.7 C 150.4 11.7 151.2 11.4 151.8 10.8 C 151.85 10.78 153.3 12.1 153.3 12.1 C 153.3 12.1 153.32 12.08 153.3 12.1 Z M 147.4 8.3 C 147.4 8.3 151.3 8.3 151.3 8.3 C 151.2 7.7 151 7.3 150.7 6.9 C 150.3 6.6 149.9 6.4 149.4 6.4 C 148.8 6.4 148.4 6.6 148 6.9 C 147.7 7.2 147.5 7.7 147.4 8.3 Z M 155.7 13.6 L 155.7 4.5 L 158.3 4.5 C 158.3 4.5 158.28 5.77 158.3 5.8 C 159 4.8 159.9 4.3 160.9 4.3 C 161.9 4.3 162.7 4.6 163.2 5.2 C 163.8 5.8 164 6.6 164 7.7 C 164.03 7.69 164 13.6 164 13.6 L 161.5 13.6 C 161.5 13.6 161.45 8.5 161.5 8.5 C 161.5 7.3 160.9 6.7 159.9 6.7 C 159.4 6.7 159 6.8 158.7 7.1 C 158.4 7.4 158.3 7.9 158.3 8.5 C 158.28 8.5 158.3 13.6 158.3 13.6 L 155.7 13.6 Z M 172.8 12.3 C 172.1 13.3 171.2 13.7 170 13.7 C 168.9 13.7 167.9 13.3 167.1 12.5 C 166.3 11.6 165.9 10.5 165.9 9 C 165.9 9 165.9 9 165.9 9 C 165.9 7.6 166.3 6.4 167.1 5.6 C 167.9 4.7 168.9 4.3 170 4.3 C 171.1 4.3 172.1 4.8 172.8 5.7 C 172.84 5.67 172.8 1.2 172.8 1.2 L 175.4 1.2 L 175.4 13.6 L 172.8 13.6 L 172.8 12.3 C 172.8 12.3 172.84 12.27 172.8 12.3 Z M 168.4 9 C 168.4 9.8 168.7 10.4 169.1 10.9 C 169.5 11.3 170 11.6 170.7 11.6 C 171.3 11.6 171.8 11.3 172.2 10.9 C 172.7 10.4 172.9 9.8 172.9 9 C 172.9 9 172.9 9 172.9 9 C 172.9 8.3 172.7 7.7 172.2 7.2 C 171.8 6.7 171.3 6.5 170.7 6.5 C 170 6.5 169.5 6.7 169.1 7.2 C 168.7 7.7 168.4 8.3 168.4 9 C 168.44 9.01 168.4 9 168.4 9 C 168.4 9 168.44 9.05 168.4 9 Z M 185.8 12.1 C 184.8 13.2 183.6 13.8 182 13.8 C 180.7 13.8 179.5 13.3 178.6 12.5 C 177.7 11.6 177.3 10.5 177.3 9.1 C 177.3 9.1 177.3 9 177.3 9 C 177.3 7.7 177.7 6.6 178.6 5.7 C 179.4 4.8 180.5 4.3 181.8 4.3 C 183.2 4.3 184.3 4.8 185.1 5.7 C 185.8 6.7 186.2 7.9 186.2 9.2 C 186.2 9.4 186.2 9.6 186.2 9.9 C 186.2 9.9 179.8 9.9 179.8 9.9 C 180 10.5 180.2 10.9 180.6 11.3 C 181 11.6 181.5 11.7 182.1 11.7 C 182.9 11.7 183.6 11.4 184.3 10.8 C 184.28 10.78 185.8 12.1 185.8 12.1 C 185.8 12.1 185.76 12.08 185.8 12.1 Z M 179.8 8.3 C 179.8 8.3 183.7 8.3 183.7 8.3 C 183.6 7.7 183.4 7.3 183.1 6.9 C 182.7 6.6 182.3 6.4 181.8 6.4 C 181.3 6.4 180.8 6.6 180.5 6.9 C 180.1 7.2 179.9 7.7 179.8 8.3 Z M 188.1 13.6 L 188.1 4.5 L 190.7 4.5 C 190.7 4.5 190.71 5.77 190.7 5.8 C 191.5 4.8 192.4 4.3 193.4 4.3 C 194.4 4.3 195.1 4.6 195.7 5.2 C 196.2 5.8 196.5 6.6 196.5 7.7 C 196.47 7.69 196.5 13.6 196.5 13.6 L 193.9 13.6 C 193.9 13.6 193.89 8.5 193.9 8.5 C 193.9 7.3 193.4 6.7 192.3 6.7 C 191.8 6.7 191.4 6.8 191.1 7.1 C 190.9 7.4 190.7 7.9 190.7 8.5 C 190.71 8.5 190.7 13.6 190.7 13.6 L 188.1 13.6 Z " stroke="none" fill="#fff"/>  </g></svg>