<?xml version="1.0" standalone="no"?><!DOCTYPE svg PUBLIC "-//W3C//DTD SVG 1.1//EN" "http://www.w3.org/Graphics/SVG/1.1/DTD/svg11.dtd"><svg xmlns="http://www.w3.org/2000/svg" version="1.1" width="134px" height="80.4px" viewBox="0 -3 134 80.4" style="top:-3px">  <desc>Banyo Paspas – Tiles r n Kodu: 31569 (Terracotta) Malzeme: 100% Pamuk / 1800 g l ler: 80 × 50 cm Tasar m: VE2</desc>  <defs/>  <g id="Polygon421606">    <path d="M 2 41.6 L 2 37.2 L 0.3 37.2 L 0.3 36.7 L 4.2 36.7 L 4.2 37.2 L 2.5 37.2 L 2.5 41.6 L 2 41.6 Z M 6.6 41.1 C 6.3 41.5 5.9 41.7 5.3 41.7 C 4.9 41.7 4.6 41.6 4.4 41.4 C 4.1 41.2 4 40.9 4 40.5 C 4 40.5 4 40.5 4 40.5 C 4 40.2 4.1 39.9 4.4 39.7 C 4.7 39.5 5 39.4 5.5 39.4 C 5.9 39.4 6.2 39.4 6.6 39.5 C 6.6 39.5 6.6 39.4 6.6 39.4 C 6.6 39.1 6.5 38.8 6.3 38.7 C 6.1 38.5 5.9 38.4 5.5 38.4 C 5.2 38.4 4.8 38.5 4.4 38.7 C 4.4 38.7 4.3 38.2 4.3 38.2 C 4.7 38 5.1 37.9 5.6 37.9 C 6.1 37.9 6.5 38.1 6.8 38.3 C 7 38.6 7.1 38.9 7.1 39.4 C 7.13 39.39 7.1 41.6 7.1 41.6 L 6.6 41.6 L 6.6 41.1 C 6.6 41.1 6.62 41.05 6.6 41.1 Z M 5.4 41.2 C 5.8 41.2 6 41.2 6.3 41 C 6.5 40.8 6.6 40.6 6.6 40.3 C 6.6 40.3 6.6 39.9 6.6 39.9 C 6.3 39.8 5.9 39.8 5.6 39.8 C 5.2 39.8 5 39.8 4.8 40 C 4.6 40.1 4.5 40.3 4.5 40.5 C 4.5 40.5 4.5 40.5 4.5 40.5 C 4.5 40.7 4.6 40.9 4.8 41.1 C 4.9 41.2 5.2 41.2 5.4 41.2 Z M 9.5 41.7 C 8.9 41.7 8.4 41.5 8 41.1 C 8 41.1 8.3 40.8 8.3 40.8 C 8.7 41.1 9.1 41.2 9.5 41.2 C 9.7 41.2 9.9 41.2 10 41.1 C 10.2 41 10.3 40.8 10.3 40.6 C 10.3 40.6 10.3 40.6 10.3 40.6 C 10.3 40.5 10.2 40.3 10 40.2 C 9.9 40.2 9.6 40.1 9.4 40 C 9.2 40 9.1 39.9 9.1 39.9 C 9 39.9 8.9 39.8 8.8 39.8 C 8.7 39.8 8.6 39.7 8.5 39.7 C 8.5 39.6 8.4 39.6 8.3 39.5 C 8.3 39.4 8.2 39.4 8.2 39.3 C 8.2 39.2 8.2 39.1 8.2 39 C 8.2 39 8.2 39 8.2 39 C 8.2 38.6 8.3 38.4 8.5 38.2 C 8.7 38 9 37.9 9.4 37.9 C 9.9 37.9 10.3 38.1 10.7 38.3 C 10.7 38.3 10.4 38.7 10.4 38.7 C 10.1 38.5 9.7 38.4 9.4 38.4 C 9.2 38.4 9 38.4 8.9 38.5 C 8.7 38.6 8.7 38.7 8.7 38.9 C 8.7 38.9 8.7 38.9 8.7 38.9 C 8.7 39 8.7 39 8.7 39.1 C 8.8 39.1 8.8 39.2 8.9 39.2 C 8.9 39.3 9 39.3 9.1 39.4 C 9.2 39.4 9.3 39.4 9.3 39.4 C 9.4 39.5 9.5 39.5 9.6 39.5 C 9.7 39.6 9.9 39.6 9.9 39.6 C 10 39.7 10.1 39.7 10.3 39.8 C 10.4 39.8 10.5 39.9 10.5 40 C 10.6 40 10.6 40.1 10.7 40.2 C 10.7 40.3 10.8 40.4 10.8 40.6 C 10.8 40.6 10.8 40.6 10.8 40.6 C 10.8 40.9 10.6 41.2 10.4 41.4 C 10.2 41.6 9.9 41.7 9.5 41.7 Z M 14.2 41.1 C 13.8 41.5 13.4 41.7 12.8 41.7 C 12.5 41.7 12.2 41.6 11.9 41.4 C 11.6 41.2 11.5 40.9 11.5 40.5 C 11.5 40.5 11.5 40.5 11.5 40.5 C 11.5 40.2 11.6 39.9 11.9 39.7 C 12.2 39.5 12.6 39.4 13 39.4 C 13.4 39.4 13.8 39.4 14.2 39.5 C 14.2 39.5 14.2 39.4 14.2 39.4 C 14.2 39.1 14.1 38.8 13.9 38.7 C 13.7 38.5 13.4 38.4 13.1 38.4 C 12.7 38.4 12.3 38.5 12 38.7 C 12 38.7 11.8 38.2 11.8 38.2 C 12.2 38 12.7 37.9 13.1 37.9 C 13.6 37.9 14 38.1 14.3 38.3 C 14.5 38.6 14.7 38.9 14.7 39.4 C 14.67 39.39 14.7 41.6 14.7 41.6 L 14.2 41.6 L 14.2 41.1 C 14.2 41.1 14.15 41.05 14.2 41.1 Z M 12.9 41.2 C 13.3 41.2 13.6 41.2 13.8 41 C 14 40.8 14.2 40.6 14.2 40.3 C 14.2 40.3 14.2 39.9 14.2 39.9 C 13.8 39.8 13.4 39.8 13.1 39.8 C 12.8 39.8 12.5 39.8 12.3 40 C 12.1 40.1 12 40.3 12 40.5 C 12 40.5 12 40.5 12 40.5 C 12 40.7 12.1 40.9 12.3 41.1 C 12.5 41.2 12.7 41.2 12.9 41.2 Z M 15.8 41.6 L 15.8 38 L 16.4 38 C 16.4 38 16.36 38.93 16.4 38.9 C 16.5 38.6 16.7 38.4 17 38.2 C 17.2 38 17.5 37.9 17.8 37.9 C 17.84 37.92 17.8 38.5 17.8 38.5 C 17.8 38.5 17.79 38.5 17.8 38.5 C 17.4 38.5 17 38.6 16.8 38.9 C 16.5 39.2 16.4 39.6 16.4 40.2 C 16.36 40.16 16.4 41.6 16.4 41.6 L 15.8 41.6 Z M 18.7 41.6 L 18.7 38 L 19.2 38 L 19.2 41.6 L 18.7 41.6 Z M 20.5 41.6 L 20.5 38 L 21 38 C 21 38 21.03 38.59 21 38.6 C 21.2 38.4 21.3 38.2 21.5 38.1 C 21.7 38 21.9 37.9 22.2 37.9 C 22.7 37.9 23.1 38.1 23.4 38.6 C 23.7 38.1 24.1 37.9 24.6 37.9 C 25.1 37.9 25.4 38 25.6 38.3 C 25.9 38.6 26 38.9 26 39.4 C 25.98 39.36 26 41.6 26 41.6 L 25.4 41.6 C 25.4 41.6 25.44 39.49 25.4 39.5 C 25.4 39.1 25.4 38.9 25.2 38.7 C 25 38.5 24.8 38.4 24.5 38.4 C 24.2 38.4 24 38.5 23.8 38.7 C 23.6 38.9 23.5 39.2 23.5 39.5 C 23.51 39.51 23.5 41.6 23.5 41.6 L 23 41.6 C 23 41.6 22.97 39.47 23 39.5 C 23 39.1 22.9 38.9 22.7 38.7 C 22.6 38.5 22.3 38.4 22 38.4 C 21.8 38.4 21.5 38.5 21.3 38.7 C 21.1 38.9 21 39.2 21 39.5 C 21.03 39.53 21 41.6 21 41.6 L 20.5 41.6 Z M 27.1 38.7 L 27.1 38 L 27.7 38 L 27.7 38.7 L 27.1 38.7 Z M 27.1 41.6 L 27.1 40.9 L 27.7 40.9 L 27.7 41.6 L 27.1 41.6 Z M 32.8 41.6 L 30.7 36.7 L 31.3 36.7 L 33 40.9 L 34.8 36.7 L 35.4 36.7 L 33.3 41.6 L 32.8 41.6 Z M 36.4 41.6 L 36.4 36.7 L 39.9 36.7 L 39.9 37.2 L 36.9 37.2 L 36.9 38.9 L 39.6 38.9 L 39.6 39.4 L 36.9 39.4 L 36.9 41.1 L 39.9 41.1 L 39.9 41.6 L 36.4 41.6 Z M 40.7 41.6 L 40.7 41.2 C 40.7 41.2 42.46 39.6 42.5 39.6 C 42.8 39.3 43.1 39 43.3 38.8 C 43.4 38.5 43.5 38.3 43.5 38.1 C 43.5 37.8 43.4 37.6 43.2 37.4 C 43 37.2 42.8 37.1 42.5 37.1 C 42.2 37.1 42 37.2 41.8 37.3 C 41.6 37.5 41.4 37.7 41.2 38 C 41.2 38 40.8 37.7 40.8 37.7 C 41 37.3 41.3 37 41.5 36.9 C 41.8 36.7 42.1 36.6 42.5 36.6 C 43 36.6 43.3 36.8 43.6 37 C 43.9 37.3 44.1 37.6 44.1 38 C 44.1 38 44.1 38 44.1 38 C 44.1 38.4 44 38.7 43.8 38.9 C 43.6 39.2 43.3 39.5 42.8 39.9 C 42.82 39.93 41.5 41.1 41.5 41.1 L 44.1 41.1 L 44.1 41.6 L 40.7 41.6 Z " stroke="none" fill="#000"/>  </g>  <g id="Polygon421605">    <path d="M 3.3 27.2 L 3.3 26.6 L 4 26.6 L 4 27.2 L 3.3 27.2 Z M 2 27.2 L 2 26.6 L 2.6 26.6 L 2.6 27.2 L 2 27.2 Z M 5.5 30.1 C 5.5 30.8 5.2 31.4 4.8 31.9 C 4.3 32.4 3.7 32.7 3 32.7 C 2.2 32.7 1.6 32.4 1.2 31.9 C 0.7 31.5 0.5 30.9 0.5 30.2 C 0.5 30.2 0.5 30.1 0.5 30.1 C 0.5 29.5 0.7 28.9 1.2 28.4 C 1.7 27.9 2.3 27.6 3 27.6 C 3.7 27.6 4.3 27.9 4.8 28.4 C 5.2 28.8 5.5 29.4 5.5 30.1 C 5.47 30.14 5.5 30.1 5.5 30.1 C 5.5 30.1 5.47 30.15 5.5 30.1 Z M 1.1 30.1 C 1.1 30.7 1.2 31.2 1.6 31.6 C 2 32 2.4 32.2 3 32.2 C 3.5 32.2 4 32 4.4 31.6 C 4.7 31.2 4.9 30.7 4.9 30.2 C 4.9 30.2 4.9 30.1 4.9 30.1 C 4.9 29.6 4.7 29.1 4.4 28.7 C 4 28.3 3.5 28.1 3 28.1 C 2.4 28.1 2 28.3 1.6 28.7 C 1.2 29.1 1.1 29.6 1.1 30.1 C 1.05 30.14 1.1 30.1 1.1 30.1 C 1.1 30.1 1.05 30.15 1.1 30.1 Z M 6.6 32.6 L 6.6 27.5 L 7.1 27.5 L 7.1 32.6 L 6.6 32.6 Z M 9.7 33.7 L 9.1 33.4 C 9.1 33.4 9.69 32.65 9.7 32.6 C 9.2 32.6 8.9 32.4 8.6 32 C 8.3 31.7 8.2 31.3 8.2 30.8 C 8.2 30.8 8.2 30.8 8.2 30.8 C 8.2 30.3 8.3 29.8 8.7 29.5 C 9.1 29.1 9.5 28.9 10 28.9 C 10.6 28.9 11.1 29.1 11.5 29.5 C 11.5 29.5 11.1 29.9 11.1 29.9 C 10.8 29.6 10.4 29.4 10 29.4 C 9.6 29.4 9.3 29.5 9.1 29.8 C 8.8 30.1 8.7 30.4 8.7 30.8 C 8.7 30.8 8.7 30.8 8.7 30.8 C 8.7 31.2 8.8 31.5 9.1 31.8 C 9.4 32.1 9.7 32.2 10.1 32.2 C 10.5 32.2 10.8 32 11.2 31.7 C 11.2 31.7 11.5 32 11.5 32 C 11.1 32.4 10.7 32.7 10.1 32.7 C 10.13 32.68 9.7 33.7 9.7 33.7 Z M 14.2 28.4 L 14.2 27.8 L 14.8 27.8 L 14.8 28.4 L 14.2 28.4 Z M 13 28.4 L 13 27.8 L 13.6 27.8 L 13.6 28.4 L 13 28.4 Z M 14.9 32 C 14.6 32.4 14.2 32.7 13.7 32.7 C 13.3 32.7 12.9 32.5 12.7 32.3 C 12.4 32 12.3 31.7 12.3 31.2 C 12.31 31.23 12.3 29 12.3 29 L 12.8 29 C 12.8 29 12.84 31.09 12.8 31.1 C 12.8 31.4 12.9 31.7 13.1 31.9 C 13.3 32.1 13.5 32.2 13.8 32.2 C 14.2 32.2 14.4 32.1 14.6 31.9 C 14.8 31.7 14.9 31.4 14.9 31.1 C 14.93 31.05 14.9 29 14.9 29 L 15.5 29 L 15.5 32.6 L 14.9 32.6 L 14.9 32 C 14.9 32 14.93 31.97 14.9 32 Z M 16.7 32.6 L 16.7 27.5 L 17.3 27.5 L 17.3 32.6 L 16.7 32.6 Z M 21.6 32 C 21.2 32.5 20.7 32.7 20.1 32.7 C 19.6 32.7 19.2 32.5 18.8 32.2 C 18.5 31.8 18.3 31.4 18.3 30.8 C 18.3 30.8 18.3 30.8 18.3 30.8 C 18.3 30.3 18.5 29.8 18.8 29.4 C 19.1 29.1 19.5 28.9 20 28.9 C 20.5 28.9 21 29.1 21.3 29.4 C 21.6 29.8 21.7 30.3 21.7 30.8 C 21.7 30.9 21.7 30.9 21.7 31 C 21.7 31 18.8 31 18.8 31 C 18.9 31.4 19 31.7 19.3 31.9 C 19.5 32.1 19.8 32.2 20.1 32.2 C 20.5 32.2 20.9 32 21.3 31.7 C 21.25 31.7 21.6 32 21.6 32 C 21.6 32 21.59 32 21.6 32 Z M 18.8 30.6 C 18.8 30.6 21.2 30.6 21.2 30.6 C 21.1 30.2 21 29.9 20.8 29.7 C 20.6 29.5 20.4 29.4 20 29.4 C 19.7 29.4 19.4 29.5 19.2 29.7 C 19 29.9 18.9 30.2 18.8 30.6 Z M 22.7 32.6 L 22.7 29 L 23.2 29 C 23.2 29 23.2 29.93 23.2 29.9 C 23.3 29.6 23.5 29.4 23.8 29.2 C 24 29 24.3 28.9 24.7 28.9 C 24.67 28.92 24.7 29.5 24.7 29.5 C 24.7 29.5 24.63 29.5 24.6 29.5 C 24.2 29.5 23.9 29.6 23.6 29.9 C 23.3 30.2 23.2 30.6 23.2 31.2 C 23.2 31.16 23.2 32.6 23.2 32.6 L 22.7 32.6 Z M 25.5 29.7 L 25.5 29 L 26.1 29 L 26.1 29.7 L 25.5 29.7 Z M 25.5 32.6 L 25.5 31.9 L 26.1 31.9 L 26.1 32.6 L 25.5 32.6 Z M 32.8 31.3 C 32.8 31.7 32.6 32 32.3 32.3 C 31.9 32.5 31.5 32.7 31 32.7 C 30.4 32.7 30 32.5 29.7 32.3 C 29.3 32 29.1 31.7 29.1 31.3 C 29.1 31.3 29.1 31.3 29.1 31.3 C 29.1 31 29.2 30.7 29.4 30.5 C 29.6 30.3 29.8 30.2 30.1 30.1 C 29.6 29.8 29.3 29.4 29.3 28.9 C 29.3 28.9 29.3 28.9 29.3 28.9 C 29.3 28.6 29.5 28.2 29.8 28 C 30.1 27.8 30.5 27.6 31 27.6 C 31.4 27.6 31.8 27.8 32.2 28 C 32.5 28.2 32.6 28.6 32.6 28.9 C 32.6 28.9 32.6 28.9 32.6 28.9 C 32.6 29.4 32.4 29.8 31.8 30.1 C 32.1 30.2 32.4 30.3 32.5 30.5 C 32.7 30.7 32.8 31 32.8 31.3 C 32.82 31.26 32.8 31.3 32.8 31.3 C 32.8 31.3 32.82 31.28 32.8 31.3 Z M 29.9 29 C 29.9 29.2 30 29.4 30.2 29.6 C 30.4 29.8 30.7 29.9 31 29.9 C 31.3 29.9 31.6 29.8 31.8 29.6 C 32 29.4 32.1 29.2 32.1 29 C 32.1 29 32.1 29 32.1 29 C 32.1 28.7 32 28.5 31.8 28.4 C 31.6 28.2 31.3 28.1 31 28.1 C 30.7 28.1 30.4 28.2 30.2 28.4 C 30 28.5 29.9 28.7 29.9 29 C 29.85 28.96 29.9 29 29.9 29 C 29.9 29 29.85 28.97 29.9 29 Z M 29.7 31.3 C 29.7 31.5 29.8 31.7 30 31.9 C 30.3 32.1 30.6 32.2 31 32.2 C 31.4 32.2 31.7 32.1 31.9 31.9 C 32.1 31.7 32.3 31.5 32.3 31.3 C 32.3 31.3 32.3 31.3 32.3 31.3 C 32.3 31 32.1 30.8 31.9 30.6 C 31.6 30.4 31.3 30.3 31 30.3 C 30.6 30.3 30.3 30.4 30.1 30.6 C 29.8 30.8 29.7 31 29.7 31.3 C 29.69 31.26 29.7 31.3 29.7 31.3 C 29.7 31.3 29.69 31.27 29.7 31.3 Z M 37.8 30.1 C 37.8 30.9 37.6 31.5 37.2 31.9 C 36.8 32.4 36.3 32.7 35.7 32.7 C 35.1 32.7 34.6 32.4 34.2 32 C 33.8 31.5 33.6 30.9 33.6 30.2 C 33.6 30.2 33.6 30.1 33.6 30.1 C 33.6 29.4 33.8 28.8 34.2 28.4 C 34.6 27.9 35.1 27.6 35.7 27.6 C 36.3 27.6 36.8 27.9 37.2 28.3 C 37.6 28.8 37.8 29.4 37.8 30.1 C 37.75 30.14 37.8 30.1 37.8 30.1 C 37.8 30.1 37.75 30.15 37.8 30.1 Z M 34.2 30.1 C 34.2 30.7 34.3 31.2 34.6 31.6 C 34.9 32 35.2 32.2 35.7 32.2 C 36.1 32.2 36.5 32 36.8 31.6 C 37 31.2 37.2 30.7 37.2 30.2 C 37.2 30.2 37.2 30.1 37.2 30.1 C 37.2 29.6 37 29.1 36.8 28.7 C 36.5 28.3 36.1 28.1 35.7 28.1 C 35.2 28.1 34.9 28.3 34.6 28.7 C 34.3 29.1 34.2 29.6 34.2 30.1 C 34.19 30.14 34.2 30.1 34.2 30.1 C 34.2 30.1 34.19 30.15 34.2 30.1 Z M 43.7 31.7 L 42.5 30.5 L 41.3 31.7 L 40.9 31.4 L 42.1 30.1 L 40.9 28.9 L 41.3 28.6 L 42.5 29.8 L 43.7 28.6 L 44.1 28.9 L 42.8 30.1 L 44.1 31.3 L 43.7 31.7 Z M 48.9 32.7 C 48.2 32.7 47.6 32.4 47.1 31.9 C 47.1 31.9 47.5 31.5 47.5 31.5 C 48 32 48.4 32.2 48.9 32.2 C 49.2 32.2 49.5 32.1 49.7 31.9 C 50 31.7 50.1 31.4 50.1 31.1 C 50.1 31.1 50.1 31.1 50.1 31.1 C 50.1 30.8 50 30.5 49.7 30.3 C 49.5 30.1 49.2 30.1 48.9 30.1 C 48.5 30.1 48.2 30.1 47.8 30.3 C 47.82 30.33 47.5 30.1 47.5 30.1 L 47.6 27.7 L 50.4 27.7 L 50.4 28.2 L 48.1 28.2 C 48.1 28.2 47.97 29.78 48 29.8 C 48.3 29.6 48.6 29.6 48.9 29.6 C 49.4 29.6 49.8 29.7 50.2 30 C 50.5 30.2 50.6 30.6 50.6 31.1 C 50.6 31.1 50.6 31.1 50.6 31.1 C 50.6 31.5 50.5 31.9 50.1 32.2 C 49.8 32.5 49.4 32.7 48.9 32.7 Z M 55.6 30.1 C 55.6 30.9 55.4 31.5 55 31.9 C 54.7 32.4 54.2 32.7 53.5 32.7 C 52.9 32.7 52.4 32.4 52 32 C 51.7 31.5 51.5 30.9 51.5 30.2 C 51.5 30.2 51.5 30.1 51.5 30.1 C 51.5 29.4 51.7 28.8 52.1 28.4 C 52.4 27.9 52.9 27.6 53.6 27.6 C 54.2 27.6 54.7 27.9 55 28.3 C 55.4 28.8 55.6 29.4 55.6 30.1 C 55.61 30.14 55.6 30.1 55.6 30.1 C 55.6 30.1 55.61 30.15 55.6 30.1 Z M 52.1 30.1 C 52.1 30.7 52.2 31.2 52.5 31.6 C 52.7 32 53.1 32.2 53.6 32.2 C 54 32.2 54.4 32 54.6 31.6 C 54.9 31.2 55 30.7 55 30.2 C 55 30.2 55 30.1 55 30.1 C 55 29.6 54.9 29.1 54.6 28.7 C 54.3 28.3 54 28.1 53.5 28.1 C 53.1 28.1 52.7 28.3 52.5 28.7 C 52.2 29.1 52.1 29.6 52.1 30.1 C 52.05 30.14 52.1 30.1 52.1 30.1 C 52.1 30.1 52.05 30.15 52.1 30.1 Z M 61.9 32 C 61.4 32.5 61 32.7 60.4 32.7 C 59.9 32.7 59.4 32.5 59.1 32.1 C 58.7 31.8 58.5 31.3 58.5 30.8 C 58.5 30.8 58.5 30.8 58.5 30.8 C 58.5 30.3 58.7 29.8 59.1 29.5 C 59.4 29.1 59.9 28.9 60.4 28.9 C 60.9 28.9 61.4 29.1 61.8 29.5 C 61.8 29.5 61.5 29.9 61.5 29.9 C 61.1 29.6 60.8 29.4 60.4 29.4 C 60 29.4 59.7 29.5 59.5 29.8 C 59.2 30.1 59.1 30.4 59.1 30.8 C 59.1 30.8 59.1 30.8 59.1 30.8 C 59.1 31.2 59.2 31.5 59.5 31.8 C 59.7 32.1 60 32.2 60.4 32.2 C 60.8 32.2 61.2 32 61.5 31.7 C 61.52 31.66 61.9 32 61.9 32 C 61.9 32 61.86 31.98 61.9 32 Z M 62.7 32.6 L 62.7 29 L 63.3 29 C 63.3 29 63.29 29.59 63.3 29.6 C 63.4 29.4 63.6 29.2 63.8 29.1 C 63.9 29 64.2 28.9 64.5 28.9 C 65 28.9 65.4 29.1 65.6 29.6 C 65.9 29.1 66.4 28.9 66.9 28.9 C 67.3 28.9 67.6 29 67.9 29.3 C 68.1 29.6 68.2 29.9 68.2 30.4 C 68.24 30.36 68.2 32.6 68.2 32.6 L 67.7 32.6 C 67.7 32.6 67.7 30.49 67.7 30.5 C 67.7 30.1 67.6 29.9 67.4 29.7 C 67.3 29.5 67.1 29.4 66.8 29.4 C 66.5 29.4 66.2 29.5 66 29.7 C 65.9 29.9 65.8 30.2 65.8 30.5 C 65.76 30.51 65.8 32.6 65.8 32.6 L 65.2 32.6 C 65.2 32.6 65.23 30.47 65.2 30.5 C 65.2 30.1 65.1 29.9 65 29.7 C 64.8 29.5 64.6 29.4 64.3 29.4 C 64 29.4 63.8 29.5 63.6 29.7 C 63.4 29.9 63.3 30.2 63.3 30.5 C 63.29 30.53 63.3 32.6 63.3 32.6 L 62.7 32.6 Z " stroke="none" fill="#000"/>  </g>  <g id="Polygon421604">    <path d="M 0.7 23.6 L 0.7 18.7 L 1.3 18.7 L 3 21.4 L 4.8 18.7 L 5.4 18.7 L 5.4 23.6 L 4.8 23.6 L 4.8 19.6 L 3 22.3 L 3 22.3 L 1.2 19.6 L 1.2 23.6 L 0.7 23.6 Z M 9.1 23.1 C 8.7 23.5 8.3 23.7 7.8 23.7 C 7.4 23.7 7.1 23.6 6.8 23.4 C 6.5 23.2 6.4 22.9 6.4 22.5 C 6.4 22.5 6.4 22.5 6.4 22.5 C 6.4 22.2 6.5 21.9 6.8 21.7 C 7.1 21.5 7.5 21.4 8 21.4 C 8.3 21.4 8.7 21.4 9.1 21.5 C 9.1 21.5 9.1 21.4 9.1 21.4 C 9.1 21.1 9 20.8 8.8 20.7 C 8.6 20.5 8.3 20.4 8 20.4 C 7.6 20.4 7.3 20.5 6.9 20.7 C 6.9 20.7 6.7 20.2 6.7 20.2 C 7.2 20 7.6 19.9 8 19.9 C 8.6 19.9 8.9 20.1 9.2 20.3 C 9.5 20.6 9.6 20.9 9.6 21.4 C 9.58 21.39 9.6 23.6 9.6 23.6 L 9.1 23.6 L 9.1 23.1 C 9.1 23.1 9.06 23.05 9.1 23.1 Z M 7.9 23.2 C 8.2 23.2 8.5 23.2 8.7 23 C 9 22.8 9.1 22.6 9.1 22.3 C 9.1 22.3 9.1 21.9 9.1 21.9 C 8.7 21.8 8.4 21.8 8 21.8 C 7.7 21.8 7.4 21.8 7.2 22 C 7 22.1 7 22.3 7 22.5 C 7 22.5 7 22.5 7 22.5 C 7 22.7 7 22.9 7.2 23.1 C 7.4 23.2 7.6 23.2 7.9 23.2 Z M 10.8 23.6 L 10.8 18.5 L 11.3 18.5 L 11.3 23.6 L 10.8 23.6 Z M 12.4 23.6 L 12.4 23.3 L 14.8 20.4 L 12.4 20.4 L 12.4 20 L 15.5 20 L 15.5 20.3 L 13.1 23.1 L 15.5 23.1 L 15.5 23.6 L 12.4 23.6 Z M 19.4 23 C 19 23.5 18.5 23.7 17.9 23.7 C 17.4 23.7 17 23.5 16.7 23.2 C 16.3 22.8 16.1 22.4 16.1 21.8 C 16.1 21.8 16.1 21.8 16.1 21.8 C 16.1 21.3 16.3 20.8 16.6 20.4 C 17 20.1 17.4 19.9 17.9 19.9 C 18.4 19.9 18.8 20.1 19.1 20.4 C 19.4 20.8 19.6 21.3 19.6 21.8 C 19.6 21.9 19.6 21.9 19.6 22 C 19.6 22 16.7 22 16.7 22 C 16.7 22.4 16.9 22.7 17.1 22.9 C 17.3 23.1 17.6 23.2 18 23.2 C 18.4 23.2 18.8 23 19.1 22.7 C 19.1 22.7 19.4 23 19.4 23 C 19.4 23 19.43 23 19.4 23 Z M 16.7 21.6 C 16.7 21.6 19 21.6 19 21.6 C 19 21.2 18.9 20.9 18.7 20.7 C 18.5 20.5 18.2 20.4 17.9 20.4 C 17.5 20.4 17.3 20.5 17.1 20.7 C 16.8 20.9 16.7 21.2 16.7 21.6 Z M 20.5 23.6 L 20.5 20 L 21 20 C 21 20 21.04 20.59 21 20.6 C 21.2 20.4 21.3 20.2 21.5 20.1 C 21.7 20 21.9 19.9 22.2 19.9 C 22.8 19.9 23.1 20.1 23.4 20.6 C 23.7 20.1 24.1 19.9 24.6 19.9 C 25.1 19.9 25.4 20 25.6 20.3 C 25.9 20.6 26 20.9 26 21.4 C 25.99 21.36 26 23.6 26 23.6 L 25.5 23.6 C 25.5 23.6 25.45 21.49 25.5 21.5 C 25.5 21.1 25.4 20.9 25.2 20.7 C 25 20.5 24.8 20.4 24.5 20.4 C 24.2 20.4 24 20.5 23.8 20.7 C 23.6 20.9 23.5 21.2 23.5 21.5 C 23.51 21.51 23.5 23.6 23.5 23.6 L 23 23.6 C 23 23.6 22.98 21.47 23 21.5 C 23 21.1 22.9 20.9 22.7 20.7 C 22.6 20.5 22.3 20.4 22 20.4 C 21.8 20.4 21.5 20.5 21.3 20.7 C 21.1 20.9 21 21.2 21 21.5 C 21.04 21.53 21 23.6 21 23.6 L 20.5 23.6 Z M 30.2 23 C 29.8 23.5 29.3 23.7 28.7 23.7 C 28.2 23.7 27.8 23.5 27.4 23.2 C 27.1 22.8 26.9 22.4 26.9 21.8 C 26.9 21.8 26.9 21.8 26.9 21.8 C 26.9 21.3 27.1 20.8 27.4 20.4 C 27.7 20.1 28.2 19.9 28.7 19.9 C 29.2 19.9 29.6 20.1 29.9 20.4 C 30.2 20.8 30.3 21.3 30.3 21.8 C 30.3 21.9 30.3 21.9 30.3 22 C 30.3 22 27.5 22 27.5 22 C 27.5 22.4 27.6 22.7 27.9 22.9 C 28.1 23.1 28.4 23.2 28.7 23.2 C 29.2 23.2 29.5 23 29.9 22.7 C 29.88 22.7 30.2 23 30.2 23 C 30.2 23 30.21 23 30.2 23 Z M 27.5 21.6 C 27.5 21.6 29.8 21.6 29.8 21.6 C 29.8 21.2 29.7 20.9 29.5 20.7 C 29.3 20.5 29 20.4 28.6 20.4 C 28.3 20.4 28.1 20.5 27.8 20.7 C 27.6 20.9 27.5 21.2 27.5 21.6 Z M 31.2 20.7 L 31.2 20 L 31.9 20 L 31.9 20.7 L 31.2 20.7 Z M 31.2 23.6 L 31.2 22.9 L 31.9 22.9 L 31.9 23.6 L 31.2 23.6 Z M 35.8 23.6 L 35.8 19.2 L 34.9 19.5 L 34.8 19.1 L 36 18.7 L 36.4 18.7 L 36.4 23.6 L 35.8 23.6 Z M 41.6 21.1 C 41.6 21.9 41.4 22.5 41.1 22.9 C 40.7 23.4 40.2 23.7 39.6 23.7 C 38.9 23.7 38.4 23.4 38.1 23 C 37.7 22.5 37.5 21.9 37.5 21.2 C 37.5 21.2 37.5 21.1 37.5 21.1 C 37.5 20.4 37.7 19.8 38.1 19.4 C 38.5 18.9 39 18.6 39.6 18.6 C 40.2 18.6 40.7 18.9 41.1 19.3 C 41.4 19.8 41.6 20.4 41.6 21.1 C 41.64 21.14 41.6 21.1 41.6 21.1 C 41.6 21.1 41.64 21.15 41.6 21.1 Z M 38.1 21.1 C 38.1 21.7 38.2 22.2 38.5 22.6 C 38.8 23 39.1 23.2 39.6 23.2 C 40 23.2 40.4 23 40.7 22.6 C 40.9 22.2 41.1 21.7 41.1 21.2 C 41.1 21.2 41.1 21.1 41.1 21.1 C 41.1 20.6 40.9 20.1 40.6 19.7 C 40.4 19.3 40 19.1 39.6 19.1 C 39.1 19.1 38.8 19.3 38.5 19.7 C 38.2 20.1 38.1 20.6 38.1 21.1 C 38.07 21.14 38.1 21.1 38.1 21.1 C 38.1 21.1 38.07 21.15 38.1 21.1 Z M 46.6 21.1 C 46.6 21.9 46.4 22.5 46.1 22.9 C 45.7 23.4 45.2 23.7 44.6 23.7 C 44 23.7 43.5 23.4 43.1 23 C 42.7 22.5 42.5 21.9 42.5 21.2 C 42.5 21.2 42.5 21.1 42.5 21.1 C 42.5 20.4 42.7 19.8 43.1 19.4 C 43.5 18.9 44 18.6 44.6 18.6 C 45.2 18.6 45.7 18.9 46.1 19.3 C 46.5 19.8 46.6 20.4 46.6 21.1 C 46.64 21.14 46.6 21.1 46.6 21.1 C 46.6 21.1 46.64 21.15 46.6 21.1 Z M 43.1 21.1 C 43.1 21.7 43.2 22.2 43.5 22.6 C 43.8 23 44.1 23.2 44.6 23.2 C 45 23.2 45.4 23 45.7 22.6 C 45.9 22.2 46.1 21.7 46.1 21.2 C 46.1 21.2 46.1 21.1 46.1 21.1 C 46.1 20.6 45.9 20.1 45.7 19.7 C 45.4 19.3 45 19.1 44.6 19.1 C 44.1 19.1 43.8 19.3 43.5 19.7 C 43.2 20.1 43.1 20.6 43.1 21.1 C 43.08 21.14 43.1 21.1 43.1 21.1 C 43.1 21.1 43.08 21.15 43.1 21.1 Z M 49.7 19.9 C 49.7 20.2 49.6 20.5 49.3 20.8 C 49.1 21 48.9 21.1 48.5 21.1 C 48.2 21.1 48 21 47.8 20.8 C 47.5 20.5 47.4 20.2 47.4 19.9 C 47.4 19.9 47.4 19.9 47.4 19.9 C 47.4 19.6 47.5 19.3 47.8 19 C 48 18.8 48.2 18.6 48.6 18.6 C 48.9 18.6 49.1 18.8 49.3 19 C 49.6 19.3 49.7 19.5 49.7 19.9 C 49.66 19.88 49.7 19.9 49.7 19.9 C 49.7 19.9 49.66 19.9 49.7 19.9 Z M 48.5 19 C 48.4 19 48.2 19.1 48.1 19.3 C 48 19.4 47.9 19.6 47.9 19.9 C 47.9 19.9 47.9 19.9 47.9 19.9 C 47.9 20.1 48 20.3 48.1 20.5 C 48.2 20.7 48.4 20.8 48.6 20.8 C 48.7 20.8 48.9 20.7 49 20.5 C 49.1 20.3 49.2 20.1 49.2 19.9 C 49.2 19.9 49.2 19.9 49.2 19.9 C 49.2 19.7 49.1 19.5 49 19.3 C 48.9 19.1 48.7 19 48.5 19 Z M 49.8 21 L 51.5 18.7 L 52 18.7 L 50.1 21.3 L 48.4 23.6 L 47.9 23.6 L 49.8 21 Z M 51.4 23.7 C 51.1 23.7 50.8 23.5 50.6 23.3 C 50.4 23 50.3 22.8 50.3 22.4 C 50.3 22.4 50.3 22.4 50.3 22.4 C 50.3 22.1 50.4 21.8 50.6 21.5 C 50.9 21.3 51.1 21.1 51.4 21.1 C 51.8 21.1 52 21.3 52.2 21.5 C 52.4 21.8 52.5 22.1 52.5 22.4 C 52.5 22.4 52.5 22.4 52.5 22.4 C 52.5 22.7 52.4 23 52.2 23.3 C 52 23.5 51.8 23.7 51.4 23.7 Z M 51.4 23.3 C 51.6 23.3 51.8 23.2 51.9 23 C 52 22.9 52.1 22.7 52.1 22.4 C 52.1 22.4 52.1 22.4 52.1 22.4 C 52.1 22.2 52 22 51.9 21.8 C 51.8 21.6 51.6 21.5 51.4 21.5 C 51.2 21.5 51.1 21.6 51 21.8 C 50.9 22 50.8 22.2 50.8 22.4 C 50.8 22.4 50.8 22.4 50.8 22.4 C 50.8 22.6 50.9 22.8 51 23 C 51.1 23.2 51.3 23.3 51.4 23.3 Z M 55.7 23.6 L 55.7 18.7 C 55.7 18.7 57.54 18.7 57.5 18.7 C 58.1 18.7 58.5 18.8 58.9 19.1 C 59.2 19.4 59.4 19.8 59.4 20.3 C 59.4 20.3 59.4 20.3 59.4 20.3 C 59.4 20.8 59.2 21.2 58.8 21.5 C 58.5 21.7 58 21.9 57.4 21.9 C 57.45 21.87 56.3 21.9 56.3 21.9 L 56.3 23.6 L 55.7 23.6 Z M 56.3 21.4 C 56.3 21.4 57.47 21.37 57.5 21.4 C 57.9 21.4 58.2 21.3 58.4 21.1 C 58.7 20.9 58.8 20.6 58.8 20.3 C 58.8 20.3 58.8 20.3 58.8 20.3 C 58.8 19.9 58.7 19.7 58.5 19.5 C 58.2 19.3 57.9 19.2 57.5 19.2 C 57.5 19.21 56.3 19.2 56.3 19.2 L 56.3 21.4 Z M 62.6 23.1 C 62.3 23.5 61.9 23.7 61.3 23.7 C 60.9 23.7 60.6 23.6 60.3 23.4 C 60.1 23.2 59.9 22.9 59.9 22.5 C 59.9 22.5 59.9 22.5 59.9 22.5 C 59.9 22.2 60.1 21.9 60.4 21.7 C 60.7 21.5 61 21.4 61.5 21.4 C 61.9 21.4 62.2 21.4 62.6 21.5 C 62.6 21.5 62.6 21.4 62.6 21.4 C 62.6 21.1 62.5 20.8 62.3 20.7 C 62.1 20.5 61.9 20.4 61.5 20.4 C 61.2 20.4 60.8 20.5 60.4 20.7 C 60.4 20.7 60.3 20.2 60.3 20.2 C 60.7 20 61.1 19.9 61.6 19.9 C 62.1 19.9 62.5 20.1 62.8 20.3 C 63 20.6 63.1 20.9 63.1 21.4 C 63.13 21.39 63.1 23.6 63.1 23.6 L 62.6 23.6 L 62.6 23.1 C 62.6 23.1 62.61 23.05 62.6 23.1 Z M 61.4 23.2 C 61.7 23.2 62 23.2 62.3 23 C 62.5 22.8 62.6 22.6 62.6 22.3 C 62.6 22.3 62.6 21.9 62.6 21.9 C 62.3 21.8 61.9 21.8 61.6 21.8 C 61.2 21.8 61 21.8 60.8 22 C 60.6 22.1 60.5 22.3 60.5 22.5 C 60.5 22.5 60.5 22.5 60.5 22.5 C 60.5 22.7 60.6 22.9 60.8 23.1 C 60.9 23.2 61.2 23.2 61.4 23.2 Z M 64.3 23.6 L 64.3 20 L 64.8 20 C 64.8 20 64.81 20.59 64.8 20.6 C 65 20.4 65.1 20.2 65.3 20.1 C 65.5 20 65.7 19.9 66 19.9 C 66.5 19.9 66.9 20.1 67.1 20.6 C 67.5 20.1 67.9 19.9 68.4 19.9 C 68.8 19.9 69.2 20 69.4 20.3 C 69.6 20.6 69.8 20.9 69.8 21.4 C 69.76 21.36 69.8 23.6 69.8 23.6 L 69.2 23.6 C 69.2 23.6 69.22 21.49 69.2 21.5 C 69.2 21.1 69.1 20.9 69 20.7 C 68.8 20.5 68.6 20.4 68.3 20.4 C 68 20.4 67.8 20.5 67.6 20.7 C 67.4 20.9 67.3 21.2 67.3 21.5 C 67.28 21.51 67.3 23.6 67.3 23.6 L 66.8 23.6 C 66.8 23.6 66.75 21.47 66.8 21.5 C 66.8 21.1 66.7 20.9 66.5 20.7 C 66.3 20.5 66.1 20.4 65.8 20.4 C 65.5 20.4 65.3 20.5 65.1 20.7 C 64.9 20.9 64.8 21.2 64.8 21.5 C 64.81 21.53 64.8 23.6 64.8 23.6 L 64.3 23.6 Z M 73.5 23 C 73.2 23.4 72.8 23.7 72.2 23.7 C 71.8 23.7 71.5 23.5 71.2 23.3 C 71 23 70.9 22.7 70.9 22.2 C 70.85 22.23 70.9 20 70.9 20 L 71.4 20 C 71.4 20 71.39 22.09 71.4 22.1 C 71.4 22.4 71.5 22.7 71.7 22.9 C 71.8 23.1 72.1 23.2 72.4 23.2 C 72.7 23.2 73 23.1 73.2 22.9 C 73.4 22.7 73.5 22.4 73.5 22.1 C 73.48 22.05 73.5 20 73.5 20 L 74 20 L 74 23.6 L 73.5 23.6 L 73.5 23 C 73.5 23 73.48 22.97 73.5 23 Z M 75.2 23.6 L 75.2 18.5 L 75.8 18.5 L 75.8 22 L 77.7 20 L 78.4 20 L 76.9 21.5 L 78.4 23.6 L 77.8 23.6 L 76.5 21.9 L 75.8 22.7 L 75.8 23.6 L 75.2 23.6 Z M 80.6 24.5 L 83.8 18 L 84.3 18 L 81.1 24.5 L 80.6 24.5 Z M 87.6 23.6 L 87.6 19.2 L 86.7 19.5 L 86.6 19.1 L 87.8 18.7 L 88.2 18.7 L 88.2 23.6 L 87.6 23.6 Z M 92.9 22.3 C 92.9 22.7 92.7 23 92.4 23.3 C 92 23.5 91.6 23.7 91.1 23.7 C 90.5 23.7 90.1 23.5 89.8 23.3 C 89.4 23 89.2 22.7 89.2 22.3 C 89.2 22.3 89.2 22.3 89.2 22.3 C 89.2 22 89.3 21.7 89.5 21.5 C 89.7 21.3 89.9 21.2 90.2 21.1 C 89.7 20.8 89.4 20.4 89.4 19.9 C 89.4 19.9 89.4 19.9 89.4 19.9 C 89.4 19.6 89.6 19.2 89.9 19 C 90.2 18.8 90.6 18.6 91.1 18.6 C 91.5 18.6 91.9 18.8 92.2 19 C 92.6 19.2 92.7 19.6 92.7 19.9 C 92.7 19.9 92.7 19.9 92.7 19.9 C 92.7 20.4 92.5 20.8 91.9 21.1 C 92.2 21.2 92.5 21.3 92.6 21.5 C 92.8 21.7 92.9 22 92.9 22.3 C 92.91 22.26 92.9 22.3 92.9 22.3 C 92.9 22.3 92.91 22.28 92.9 22.3 Z M 89.9 20 C 89.9 20.2 90.1 20.4 90.3 20.6 C 90.5 20.8 90.8 20.9 91.1 20.9 C 91.4 20.9 91.7 20.8 91.9 20.6 C 92.1 20.4 92.2 20.2 92.2 20 C 92.2 20 92.2 20 92.2 20 C 92.2 19.7 92.1 19.5 91.9 19.4 C 91.7 19.2 91.4 19.1 91.1 19.1 C 90.7 19.1 90.5 19.2 90.3 19.4 C 90.1 19.5 89.9 19.7 89.9 20 C 89.95 19.96 89.9 20 89.9 20 C 89.9 20 89.95 19.97 89.9 20 Z M 89.8 22.3 C 89.8 22.5 89.9 22.7 90.1 22.9 C 90.4 23.1 90.7 23.2 91.1 23.2 C 91.5 23.2 91.8 23.1 92 22.9 C 92.2 22.7 92.3 22.5 92.3 22.3 C 92.3 22.3 92.3 22.3 92.3 22.3 C 92.3 22 92.2 21.8 92 21.6 C 91.7 21.4 91.4 21.3 91.1 21.3 C 90.7 21.3 90.4 21.4 90.2 21.6 C 89.9 21.8 89.8 22 89.8 22.3 C 89.79 22.26 89.8 22.3 89.8 22.3 C 89.8 22.3 89.79 22.27 89.8 22.3 Z M 97.8 21.1 C 97.8 21.9 97.7 22.5 97.3 22.9 C 96.9 23.4 96.4 23.7 95.8 23.7 C 95.2 23.7 94.7 23.4 94.3 23 C 93.9 22.5 93.7 21.9 93.7 21.2 C 93.7 21.2 93.7 21.1 93.7 21.1 C 93.7 20.4 93.9 19.8 94.3 19.4 C 94.7 18.9 95.2 18.6 95.8 18.6 C 96.4 18.6 96.9 18.9 97.3 19.3 C 97.7 19.8 97.8 20.4 97.8 21.1 C 97.84 21.14 97.8 21.1 97.8 21.1 C 97.8 21.1 97.84 21.15 97.8 21.1 Z M 94.3 21.1 C 94.3 21.7 94.4 22.2 94.7 22.6 C 95 23 95.3 23.2 95.8 23.2 C 96.2 23.2 96.6 23 96.9 22.6 C 97.1 22.2 97.3 21.7 97.3 21.2 C 97.3 21.2 97.3 21.1 97.3 21.1 C 97.3 20.6 97.1 20.1 96.9 19.7 C 96.6 19.3 96.2 19.1 95.8 19.1 C 95.3 19.1 95 19.3 94.7 19.7 C 94.4 20.1 94.3 20.6 94.3 21.1 C 94.28 21.14 94.3 21.1 94.3 21.1 C 94.3 21.1 94.28 21.15 94.3 21.1 Z M 102.8 21.1 C 102.8 21.9 102.7 22.5 102.3 22.9 C 101.9 23.4 101.4 23.7 100.8 23.7 C 100.2 23.7 99.7 23.4 99.3 23 C 98.9 22.5 98.7 21.9 98.7 21.2 C 98.7 21.2 98.7 21.1 98.7 21.1 C 98.7 20.4 98.9 19.8 99.3 19.4 C 99.7 18.9 100.2 18.6 100.8 18.6 C 101.4 18.6 101.9 18.9 102.3 19.3 C 102.7 19.8 102.8 20.4 102.8 21.1 C 102.85 21.14 102.8 21.1 102.8 21.1 C 102.8 21.1 102.85 21.15 102.8 21.1 Z M 99.3 21.1 C 99.3 21.7 99.4 22.2 99.7 22.6 C 100 23 100.3 23.2 100.8 23.2 C 101.2 23.2 101.6 23 101.9 22.6 C 102.1 22.2 102.3 21.7 102.3 21.2 C 102.3 21.2 102.3 21.1 102.3 21.1 C 102.3 20.6 102.1 20.1 101.9 19.7 C 101.6 19.3 101.2 19.1 100.8 19.1 C 100.3 19.1 100 19.3 99.7 19.7 C 99.4 20.1 99.3 20.6 99.3 21.1 C 99.29 21.14 99.3 21.1 99.3 21.1 C 99.3 21.1 99.29 21.15 99.3 21.1 Z M 109 24.3 C 108.6 24.6 108.2 24.7 107.6 24.7 C 107 24.7 106.4 24.6 105.9 24.2 C 105.9 24.2 106.2 23.8 106.2 23.8 C 106.6 24.1 107.1 24.3 107.6 24.3 C 108 24.3 108.3 24.2 108.5 23.9 C 108.8 23.7 108.9 23.4 108.9 23 C 108.9 23 108.9 22.6 108.9 22.6 C 108.5 23.1 108 23.3 107.5 23.3 C 107 23.3 106.6 23.2 106.3 22.8 C 105.9 22.5 105.8 22.1 105.8 21.6 C 105.8 21.6 105.8 21.6 105.8 21.6 C 105.8 21.1 105.9 20.7 106.3 20.4 C 106.6 20.1 107 19.9 107.5 19.9 C 108 19.9 108.5 20.1 108.9 20.6 C 108.89 20.63 108.9 20 108.9 20 L 109.4 20 C 109.4 20 109.43 22.97 109.4 23 C 109.4 23.5 109.3 23.9 109 24.3 C 109 24.3 109 24.3 109 24.3 Z M 107.6 22.8 C 107.9 22.8 108.2 22.7 108.5 22.5 C 108.8 22.3 108.9 22 108.9 21.6 C 108.9 21.6 108.9 21.6 108.9 21.6 C 108.9 21.2 108.8 21 108.5 20.7 C 108.3 20.5 107.9 20.4 107.6 20.4 C 107.2 20.4 106.9 20.5 106.7 20.7 C 106.4 20.9 106.3 21.2 106.3 21.6 C 106.3 21.6 106.3 21.6 106.3 21.6 C 106.3 22 106.5 22.3 106.7 22.5 C 106.9 22.7 107.2 22.8 107.6 22.8 Z " stroke="none" fill="#000"/>  </g>  <g id="Polygon421603">    <path d="M 3 9.3 L 3 8.6 L 3.6 8.6 L 3.6 9.3 L 3 9.3 Z M 1.7 9.3 L 1.7 8.6 L 2.3 8.6 L 2.3 9.3 L 1.7 9.3 Z M 2.7 14.7 C 2 14.7 1.5 14.5 1.2 14.1 C 0.8 13.7 0.6 13.2 0.6 12.5 C 0.62 12.55 0.6 9.7 0.6 9.7 L 1.2 9.7 C 1.2 9.7 1.17 12.51 1.2 12.5 C 1.2 13 1.3 13.4 1.6 13.7 C 1.8 14 2.2 14.2 2.7 14.2 C 3.1 14.2 3.5 14 3.8 13.8 C 4 13.5 4.1 13.1 4.1 12.5 C 4.14 12.55 4.1 9.7 4.1 9.7 L 4.7 9.7 C 4.7 9.7 4.7 12.51 4.7 12.5 C 4.7 13.2 4.5 13.7 4.1 14.1 C 3.8 14.5 3.3 14.7 2.7 14.7 Z M 5.9 14.6 L 5.9 11 L 6.5 11 C 6.5 11 6.45 11.93 6.5 11.9 C 6.6 11.6 6.8 11.4 7 11.2 C 7.3 11 7.6 10.9 7.9 10.9 C 7.93 10.92 7.9 11.5 7.9 11.5 C 7.9 11.5 7.89 11.5 7.9 11.5 C 7.5 11.5 7.1 11.6 6.9 11.9 C 6.6 12.2 6.5 12.6 6.5 13.2 C 6.45 13.16 6.5 14.6 6.5 14.6 L 5.9 14.6 Z M 10.6 10.4 L 10.6 9.8 L 11.2 9.8 L 11.2 10.4 L 10.6 10.4 Z M 9.3 10.4 L 9.3 9.8 L 10 9.8 L 10 10.4 L 9.3 10.4 Z M 11.3 14 C 11 14.4 10.6 14.7 10.1 14.7 C 9.7 14.7 9.3 14.5 9.1 14.3 C 8.8 14 8.7 13.7 8.7 13.2 C 8.69 13.23 8.7 11 8.7 11 L 9.2 11 C 9.2 11 9.23 13.09 9.2 13.1 C 9.2 13.4 9.3 13.7 9.5 13.9 C 9.7 14.1 9.9 14.2 10.2 14.2 C 10.5 14.2 10.8 14.1 11 13.9 C 11.2 13.7 11.3 13.4 11.3 13.1 C 11.32 13.05 11.3 11 11.3 11 L 11.9 11 L 11.9 14.6 L 11.3 14.6 L 11.3 14 C 11.3 14 11.32 13.97 11.3 14 Z M 13.1 14.6 L 13.1 11 L 13.6 11 C 13.6 11 13.6 11.61 13.6 11.6 C 13.9 11.1 14.3 10.9 14.8 10.9 C 15.3 10.9 15.6 11 15.9 11.3 C 16.1 11.6 16.2 11.9 16.2 12.4 C 16.23 12.35 16.2 14.6 16.2 14.6 L 15.7 14.6 C 15.7 14.6 15.69 12.49 15.7 12.5 C 15.7 12.1 15.6 11.9 15.4 11.7 C 15.2 11.5 15 11.4 14.7 11.4 C 14.4 11.4 14.1 11.5 13.9 11.7 C 13.7 11.9 13.6 12.2 13.6 12.5 C 13.6 12.53 13.6 14.6 13.6 14.6 L 13.1 14.6 Z M 19.6 14.6 L 19.6 9.7 L 20.1 9.7 L 20.1 12.6 L 22.9 9.7 L 23.7 9.7 L 21.5 11.8 L 23.7 14.6 L 23 14.6 L 21.2 12.2 L 20.1 13.3 L 20.1 14.6 L 19.6 14.6 Z M 25.9 14.7 C 25.4 14.7 25 14.5 24.6 14.1 C 24.3 13.8 24.1 13.3 24.1 12.8 C 24.1 12.8 24.1 12.8 24.1 12.8 C 24.1 12.3 24.3 11.8 24.6 11.5 C 25 11.1 25.4 10.9 26 10.9 C 26.5 10.9 26.9 11.1 27.3 11.5 C 27.7 11.8 27.8 12.3 27.8 12.8 C 27.8 12.8 27.8 12.8 27.8 12.8 C 27.8 13.3 27.7 13.8 27.3 14.1 C 26.9 14.5 26.5 14.7 25.9 14.7 Z M 26 14.2 C 26.3 14.2 26.7 14.1 26.9 13.8 C 27.2 13.5 27.3 13.2 27.3 12.8 C 27.3 12.8 27.3 12.8 27.3 12.8 C 27.3 12.4 27.2 12.1 26.9 11.8 C 26.6 11.5 26.3 11.4 25.9 11.4 C 25.6 11.4 25.2 11.5 25 11.8 C 24.8 12.1 24.6 12.4 24.6 12.8 C 24.6 12.8 24.6 12.8 24.6 12.8 C 24.6 13.2 24.8 13.5 25 13.8 C 25.3 14.1 25.6 14.2 26 14.2 Z M 31.7 13.9 C 31.4 14.4 30.9 14.7 30.3 14.7 C 29.9 14.7 29.5 14.5 29.1 14.2 C 28.8 13.8 28.6 13.4 28.6 12.8 C 28.6 12.8 28.6 12.8 28.6 12.8 C 28.6 12.2 28.8 11.8 29.1 11.4 C 29.5 11.1 29.9 10.9 30.3 10.9 C 30.9 10.9 31.4 11.2 31.7 11.7 C 31.72 11.67 31.7 9.5 31.7 9.5 L 32.3 9.5 L 32.3 14.6 L 31.7 14.6 L 31.7 13.9 C 31.7 13.9 31.72 13.87 31.7 13.9 Z M 30.4 14.2 C 30.8 14.2 31.1 14.1 31.4 13.8 C 31.6 13.5 31.7 13.2 31.7 12.8 C 31.7 12.8 31.7 12.8 31.7 12.8 C 31.7 12.4 31.6 12 31.4 11.8 C 31.1 11.5 30.8 11.4 30.4 11.4 C 30.1 11.4 29.8 11.5 29.5 11.8 C 29.3 12 29.2 12.4 29.2 12.8 C 29.2 12.8 29.2 12.8 29.2 12.8 C 29.2 13.2 29.3 13.6 29.5 13.8 C 29.8 14.1 30.1 14.2 30.4 14.2 Z M 36 14 C 35.7 14.4 35.3 14.7 34.8 14.7 C 34.4 14.7 34 14.5 33.8 14.3 C 33.5 14 33.4 13.7 33.4 13.2 C 33.41 13.23 33.4 11 33.4 11 L 33.9 11 C 33.9 11 33.95 13.09 33.9 13.1 C 33.9 13.4 34 13.7 34.2 13.9 C 34.4 14.1 34.6 14.2 35 14.2 C 35.3 14.2 35.5 14.1 35.7 13.9 C 35.9 13.7 36 13.4 36 13.1 C 36.04 13.05 36 11 36 11 L 36.6 11 L 36.6 14.6 L 36 14.6 L 36 14 C 36 14 36.04 13.97 36 14 Z M 37.7 11.7 L 37.7 11 L 38.4 11 L 38.4 11.7 L 37.7 11.7 Z M 37.7 14.6 L 37.7 13.9 L 38.4 13.9 L 38.4 14.6 L 37.7 14.6 Z M 43.2 14.7 C 42.4 14.7 41.8 14.4 41.3 13.8 C 41.3 13.8 42.1 13.1 42.1 13.1 C 42.4 13.5 42.8 13.7 43.2 13.7 C 43.5 13.7 43.6 13.7 43.7 13.6 C 43.9 13.4 43.9 13.3 43.9 13.1 C 43.9 13.1 43.9 13.1 43.9 13.1 C 43.9 12.9 43.9 12.8 43.7 12.6 C 43.5 12.5 43.3 12.5 43 12.5 C 42.98 12.49 42.5 12.5 42.5 12.5 L 42.4 11.8 L 43.5 10.6 L 41.6 10.6 L 41.6 9.7 L 44.9 9.7 L 44.9 10.5 C 44.9 10.5 43.68 11.69 43.7 11.7 C 44.6 11.8 45 12.3 45 13.1 C 45 13.1 45 13.1 45 13.1 C 45 13.6 44.8 13.9 44.5 14.2 C 44.2 14.5 43.8 14.7 43.2 14.7 Z M 46.6 14.6 L 46.6 10.8 L 45.8 11 L 45.6 10.1 L 47 9.7 L 47.7 9.7 L 47.7 14.6 L 46.6 14.6 Z M 50.5 14.7 C 49.8 14.7 49.2 14.4 48.7 13.9 C 48.7 13.9 49.3 13.2 49.3 13.2 C 49.7 13.5 50.1 13.7 50.5 13.7 C 50.7 13.7 50.9 13.6 51.1 13.5 C 51.2 13.4 51.3 13.2 51.3 13 C 51.3 13 51.3 13 51.3 13 C 51.3 12.8 51.2 12.6 51.1 12.5 C 50.9 12.4 50.7 12.3 50.4 12.3 C 50.1 12.3 49.9 12.4 49.6 12.5 C 49.61 12.53 49 12.1 49 12.1 L 49.1 9.7 L 52.1 9.7 L 52.1 10.6 L 50 10.6 C 50 10.6 49.99 11.49 50 11.5 C 50.2 11.4 50.4 11.4 50.6 11.4 C 51.1 11.4 51.6 11.5 51.9 11.8 C 52.2 12.1 52.4 12.5 52.4 13 C 52.4 13 52.4 13 52.4 13 C 52.4 13.5 52.2 13.9 51.8 14.2 C 51.5 14.5 51.1 14.7 50.5 14.7 Z M 55.1 14.7 C 54.5 14.7 54.1 14.5 53.7 14.2 C 53.3 13.8 53.1 13.2 53.1 12.3 C 53.1 12.3 53.1 12.3 53.1 12.3 C 53.1 11.5 53.3 10.9 53.7 10.4 C 54.1 9.9 54.6 9.6 55.3 9.6 C 55.9 9.6 56.4 9.8 56.8 10.2 C 56.8 10.2 56.3 11 56.3 11 C 56.1 10.9 55.9 10.8 55.8 10.7 C 55.6 10.6 55.5 10.6 55.3 10.6 C 55.1 10.6 54.9 10.6 54.8 10.7 C 54.7 10.8 54.6 10.9 54.5 11 C 54.4 11.1 54.4 11.3 54.3 11.4 C 54.3 11.5 54.3 11.6 54.3 11.7 C 54.6 11.5 54.9 11.4 55.3 11.4 C 55.8 11.4 56.2 11.6 56.5 11.8 C 56.8 12.1 57 12.5 57 13 C 57 13 57 13 57 13 C 57 13.5 56.8 13.9 56.5 14.2 C 56.1 14.5 55.7 14.7 55.1 14.7 Z M 54.2 13 C 54.2 13.2 54.3 13.4 54.5 13.6 C 54.6 13.7 54.8 13.8 55.1 13.8 C 55.4 13.8 55.6 13.7 55.7 13.6 C 55.9 13.4 55.9 13.3 55.9 13 C 55.9 13 55.9 13 55.9 13 C 55.9 12.8 55.9 12.6 55.7 12.5 C 55.6 12.4 55.3 12.3 55.1 12.3 C 54.8 12.3 54.6 12.4 54.5 12.5 C 54.3 12.6 54.2 12.8 54.2 13 C 54.24 13.02 54.2 13 54.2 13 C 54.2 13 54.24 13.03 54.2 13 Z M 58.4 13.3 C 58.8 13.6 59.1 13.7 59.5 13.7 C 59.7 13.7 59.9 13.6 60 13.5 C 60.2 13.4 60.3 13.2 60.4 13.1 C 60.4 12.9 60.5 12.8 60.5 12.6 C 60.2 12.8 59.9 12.9 59.5 12.9 C 58.9 12.9 58.5 12.8 58.2 12.5 C 57.9 12.2 57.7 11.8 57.7 11.3 C 57.7 11.3 57.7 11.3 57.7 11.3 C 57.7 10.8 57.9 10.4 58.2 10.1 C 58.6 9.8 59 9.6 59.6 9.6 C 59.9 9.6 60.2 9.7 60.4 9.7 C 60.6 9.8 60.8 10 61 10.1 C 61.4 10.5 61.6 11.2 61.6 12 C 61.6 12 61.6 12 61.6 12 C 61.6 12.8 61.4 13.5 61 14 C 60.7 14.4 60.1 14.7 59.4 14.7 C 58.8 14.7 58.3 14.5 57.8 14.1 C 57.83 14.1 58.4 13.3 58.4 13.3 C 58.4 13.3 58.4 13.28 58.4 13.3 Z M 59.6 12 C 59.9 12 60.1 12 60.3 11.8 C 60.4 11.7 60.5 11.5 60.5 11.3 C 60.5 11.3 60.5 11.3 60.5 11.3 C 60.5 11.1 60.4 10.9 60.3 10.7 C 60.1 10.6 59.9 10.5 59.6 10.5 C 59.4 10.5 59.2 10.6 59 10.7 C 58.9 10.9 58.8 11.1 58.8 11.3 C 58.8 11.3 58.8 11.3 58.8 11.3 C 58.8 11.5 58.9 11.7 59 11.8 C 59.2 12 59.4 12 59.6 12 Z M 65.1 12.6 C 65.1 13.7 65.6 14.5 66.7 15.2 C 66.7 15.2 66.5 15.6 66.5 15.6 C 65.2 14.9 64.5 13.9 64.5 12.6 C 64.5 12.6 64.5 12.6 64.5 12.6 C 64.5 11.3 65.2 10.3 66.5 9.6 C 66.5 9.6 66.7 10 66.7 10 C 65.6 10.6 65.1 11.5 65.1 12.6 C 65.09 12.59 65.1 12.6 65.1 12.6 C 65.1 12.6 65.09 12.6 65.1 12.6 Z M 69.1 14.6 L 69.1 10.2 L 67.4 10.2 L 67.4 9.7 L 71.3 9.7 L 71.3 10.2 L 69.6 10.2 L 69.6 14.6 L 69.1 14.6 Z M 74.4 14 C 74 14.5 73.5 14.7 72.9 14.7 C 72.4 14.7 72 14.5 71.6 14.2 C 71.3 13.8 71.1 13.4 71.1 12.8 C 71.1 12.8 71.1 12.8 71.1 12.8 C 71.1 12.3 71.3 11.8 71.6 11.4 C 71.9 11.1 72.3 10.9 72.8 10.9 C 73.4 10.9 73.8 11.1 74.1 11.4 C 74.4 11.8 74.5 12.3 74.5 12.8 C 74.5 12.9 74.5 12.9 74.5 13 C 74.5 13 71.7 13 71.7 13 C 71.7 13.4 71.8 13.7 72.1 13.9 C 72.3 14.1 72.6 14.2 72.9 14.2 C 73.4 14.2 73.7 14 74.1 13.7 C 74.07 13.7 74.4 14 74.4 14 C 74.4 14 74.4 14 74.4 14 Z M 71.7 12.6 C 71.7 12.6 74 12.6 74 12.6 C 74 12.2 73.8 11.9 73.6 11.7 C 73.4 11.5 73.2 11.4 72.8 11.4 C 72.5 11.4 72.2 11.5 72 11.7 C 71.8 11.9 71.7 12.2 71.7 12.6 Z M 75.5 14.6 L 75.5 11 L 76 11 C 76 11 76.01 11.93 76 11.9 C 76.2 11.6 76.4 11.4 76.6 11.2 C 76.9 11 77.2 10.9 77.5 10.9 C 77.49 10.92 77.5 11.5 77.5 11.5 C 77.5 11.5 77.45 11.5 77.4 11.5 C 77 11.5 76.7 11.6 76.4 11.9 C 76.1 12.2 76 12.6 76 13.2 C 76.01 13.16 76 14.6 76 14.6 L 75.5 14.6 Z M 78.3 14.6 L 78.3 11 L 78.8 11 C 78.8 11 78.85 11.93 78.8 11.9 C 79 11.6 79.2 11.4 79.4 11.2 C 79.7 11 80 10.9 80.3 10.9 C 80.32 10.92 80.3 11.5 80.3 11.5 C 80.3 11.5 80.28 11.5 80.3 11.5 C 79.9 11.5 79.5 11.6 79.3 11.9 C 79 12.2 78.8 12.6 78.8 13.2 C 78.85 13.16 78.8 14.6 78.8 14.6 L 78.3 14.6 Z M 83.4 14.1 C 83 14.5 82.6 14.7 82 14.7 C 81.7 14.7 81.4 14.6 81.1 14.4 C 80.8 14.2 80.7 13.9 80.7 13.5 C 80.7 13.5 80.7 13.5 80.7 13.5 C 80.7 13.2 80.8 12.9 81.1 12.7 C 81.4 12.5 81.8 12.4 82.2 12.4 C 82.6 12.4 83 12.4 83.4 12.5 C 83.4 12.5 83.4 12.4 83.4 12.4 C 83.4 12.1 83.3 11.8 83.1 11.7 C 82.9 11.5 82.6 11.4 82.3 11.4 C 81.9 11.4 81.5 11.5 81.2 11.7 C 81.2 11.7 81 11.2 81 11.2 C 81.4 11 81.9 10.9 82.3 10.9 C 82.8 10.9 83.2 11.1 83.5 11.3 C 83.7 11.6 83.9 11.9 83.9 12.4 C 83.87 12.39 83.9 14.6 83.9 14.6 L 83.4 14.6 L 83.4 14.1 C 83.4 14.1 83.36 14.05 83.4 14.1 Z M 82.2 14.2 C 82.5 14.2 82.8 14.2 83 14 C 83.2 13.8 83.4 13.6 83.4 13.3 C 83.4 13.3 83.4 12.9 83.4 12.9 C 83 12.8 82.6 12.8 82.3 12.8 C 82 12.8 81.7 12.8 81.5 13 C 81.3 13.1 81.2 13.3 81.2 13.5 C 81.2 13.5 81.2 13.5 81.2 13.5 C 81.2 13.7 81.3 13.9 81.5 14.1 C 81.7 14.2 81.9 14.2 82.2 14.2 Z M 88.1 14 C 87.7 14.5 87.2 14.7 86.7 14.7 C 86.1 14.7 85.7 14.5 85.3 14.1 C 85 13.8 84.8 13.3 84.8 12.8 C 84.8 12.8 84.8 12.8 84.8 12.8 C 84.8 12.3 85 11.8 85.3 11.5 C 85.7 11.1 86.1 10.9 86.7 10.9 C 87.2 10.9 87.7 11.1 88.1 11.5 C 88.1 11.5 87.7 11.9 87.7 11.9 C 87.4 11.6 87 11.4 86.6 11.4 C 86.3 11.4 86 11.5 85.7 11.8 C 85.5 12.1 85.4 12.4 85.4 12.8 C 85.4 12.8 85.4 12.8 85.4 12.8 C 85.4 13.2 85.5 13.5 85.7 13.8 C 86 14.1 86.3 14.2 86.7 14.2 C 87.1 14.2 87.5 14 87.8 13.7 C 87.79 13.66 88.1 14 88.1 14 C 88.1 14 88.13 13.98 88.1 14 Z M 90.6 14.7 C 90 14.7 89.6 14.5 89.2 14.1 C 88.9 13.8 88.7 13.3 88.7 12.8 C 88.7 12.8 88.7 12.8 88.7 12.8 C 88.7 12.3 88.9 11.8 89.2 11.5 C 89.6 11.1 90 10.9 90.6 10.9 C 91.1 10.9 91.6 11.1 91.9 11.5 C 92.3 11.8 92.5 12.3 92.5 12.8 C 92.5 12.8 92.5 12.8 92.5 12.8 C 92.5 13.3 92.3 13.8 91.9 14.1 C 91.6 14.5 91.1 14.7 90.6 14.7 Z M 90.6 14.2 C 91 14.2 91.3 14.1 91.5 13.8 C 91.8 13.5 91.9 13.2 91.9 12.8 C 91.9 12.8 91.9 12.8 91.9 12.8 C 91.9 12.4 91.8 12.1 91.5 11.8 C 91.3 11.5 90.9 11.4 90.6 11.4 C 90.2 11.4 89.9 11.5 89.6 11.8 C 89.4 12.1 89.2 12.4 89.2 12.8 C 89.2 12.8 89.2 12.8 89.2 12.8 C 89.2 13.2 89.4 13.5 89.6 13.8 C 89.9 14.1 90.2 14.2 90.6 14.2 Z M 95.3 14.5 C 95.1 14.6 94.9 14.7 94.6 14.7 C 94.3 14.7 94.1 14.6 93.9 14.4 C 93.7 14.2 93.6 14 93.6 13.6 C 93.62 13.64 93.6 11.5 93.6 11.5 L 93.1 11.5 L 93.1 11 L 93.6 11 L 93.6 9.9 L 94.2 9.9 L 94.2 11 L 95.3 11 L 95.3 11.5 L 94.2 11.5 C 94.2 11.5 94.16 13.57 94.2 13.6 C 94.2 14 94.4 14.2 94.8 14.2 C 94.9 14.2 95.1 14.1 95.3 14 C 95.3 14.05 95.3 14.5 95.3 14.5 C 95.3 14.5 95.3 14.51 95.3 14.5 Z M 98.1 14.5 C 97.9 14.6 97.7 14.7 97.5 14.7 C 97.2 14.7 96.9 14.6 96.7 14.4 C 96.5 14.2 96.5 14 96.5 13.6 C 96.45 13.64 96.5 11.5 96.5 11.5 L 95.9 11.5 L 95.9 11 L 96.5 11 L 96.5 9.9 L 97 9.9 L 97 11 L 98.1 11 L 98.1 11.5 L 97 11.5 C 97 11.5 96.99 13.57 97 13.6 C 97 14 97.2 14.2 97.6 14.2 C 97.8 14.2 98 14.1 98.1 14 C 98.12 14.05 98.1 14.5 98.1 14.5 C 98.1 14.5 98.12 14.51 98.1 14.5 Z M 101.5 14.1 C 101.2 14.5 100.7 14.7 100.2 14.7 C 99.8 14.7 99.5 14.6 99.2 14.4 C 99 14.2 98.8 13.9 98.8 13.5 C 98.8 13.5 98.8 13.5 98.8 13.5 C 98.8 13.2 99 12.9 99.2 12.7 C 99.5 12.5 99.9 12.4 100.4 12.4 C 100.7 12.4 101.1 12.4 101.5 12.5 C 101.5 12.5 101.5 12.4 101.5 12.4 C 101.5 12.1 101.4 11.8 101.2 11.7 C 101 11.5 100.7 11.4 100.4 11.4 C 100 11.4 99.7 11.5 99.3 11.7 C 99.3 11.7 99.1 11.2 99.1 11.2 C 99.6 11 100 10.9 100.5 10.9 C 101 10.9 101.4 11.1 101.6 11.3 C 101.9 11.6 102 11.9 102 12.4 C 102 12.39 102 14.6 102 14.6 L 101.5 14.6 L 101.5 14.1 C 101.5 14.1 101.48 14.05 101.5 14.1 Z M 100.3 14.2 C 100.6 14.2 100.9 14.2 101.1 14 C 101.4 13.8 101.5 13.6 101.5 13.3 C 101.5 13.3 101.5 12.9 101.5 12.9 C 101.1 12.8 100.8 12.8 100.4 12.8 C 100.1 12.8 99.8 12.8 99.6 13 C 99.5 13.1 99.4 13.3 99.4 13.5 C 99.4 13.5 99.4 13.5 99.4 13.5 C 99.4 13.7 99.5 13.9 99.6 14.1 C 99.8 14.2 100 14.2 100.3 14.2 Z M 105.1 12.6 C 105.1 13.9 104.5 14.9 103.2 15.6 C 103.2 15.6 102.9 15.2 102.9 15.2 C 104 14.5 104.6 13.7 104.6 12.6 C 104.6 12.6 104.6 12.6 104.6 12.6 C 104.6 11.5 104 10.6 102.9 10 C 102.9 10 103.2 9.6 103.2 9.6 C 104.5 10.3 105.1 11.3 105.1 12.6 C 105.1 12.59 105.1 12.6 105.1 12.6 C 105.1 12.6 105.1 12.6 105.1 12.6 Z " stroke="none" fill="#000"/>  </g>  <g id="Polygon421602">    <path d="M 0.6 5.6 L 0.6 0.7 C 0.6 0.7 2.86 0.7 2.9 0.7 C 3.4 0.7 3.9 0.8 4.1 1.1 C 4.4 1.4 4.5 1.6 4.5 2 C 4.5 2 4.5 2 4.5 2 C 4.5 2.5 4.3 2.8 3.8 3 C 4.1 3.2 4.4 3.3 4.5 3.5 C 4.7 3.7 4.8 3.9 4.8 4.2 C 4.8 4.2 4.8 4.3 4.8 4.3 C 4.8 4.7 4.6 5 4.3 5.3 C 3.9 5.5 3.5 5.6 2.9 5.6 C 2.92 5.6 0.6 5.6 0.6 5.6 Z M 2.6 2.7 C 3.2 2.7 3.4 2.5 3.4 2.2 C 3.4 2.2 3.4 2.1 3.4 2.1 C 3.4 1.8 3.2 1.6 2.7 1.6 C 2.7 1.64 1.6 1.6 1.6 1.6 L 1.6 2.7 L 2.6 2.7 C 2.6 2.7 2.63 2.68 2.6 2.7 Z M 2.9 4.7 C 3.4 4.7 3.7 4.5 3.7 4.1 C 3.7 4.1 3.7 4.1 3.7 4.1 C 3.7 3.8 3.4 3.6 2.9 3.6 C 2.88 3.58 1.6 3.6 1.6 3.6 L 1.6 4.7 L 2.9 4.7 C 2.9 4.7 2.92 4.65 2.9 4.7 Z M 7.7 5.2 C 7.4 5.5 7.1 5.7 6.6 5.7 C 6.2 5.7 5.9 5.6 5.7 5.4 C 5.4 5.2 5.3 4.9 5.3 4.5 C 5.3 4.5 5.3 4.5 5.3 4.5 C 5.3 4.1 5.4 3.8 5.7 3.6 C 6 3.4 6.4 3.3 6.8 3.3 C 7.1 3.3 7.4 3.4 7.7 3.5 C 7.7 3.5 7.7 3.4 7.7 3.4 C 7.7 2.9 7.5 2.7 6.9 2.7 C 6.6 2.7 6.2 2.8 5.9 2.9 C 5.9 2.9 5.6 2.1 5.6 2.1 C 6.1 1.9 6.6 1.8 7.1 1.8 C 7.6 1.8 8.1 1.9 8.4 2.2 C 8.6 2.5 8.8 2.9 8.8 3.4 C 8.76 3.42 8.8 5.6 8.8 5.6 L 7.7 5.6 L 7.7 5.2 C 7.7 5.2 7.73 5.19 7.7 5.2 Z M 6.9 4.9 C 7.2 4.9 7.4 4.9 7.5 4.8 C 7.7 4.6 7.7 4.5 7.7 4.3 C 7.7 4.3 7.7 4.1 7.7 4.1 C 7.5 4 7.3 3.9 7.1 3.9 C 6.8 3.9 6.7 4 6.5 4.1 C 6.4 4.2 6.3 4.3 6.3 4.5 C 6.3 4.5 6.3 4.5 6.3 4.5 C 6.3 4.6 6.4 4.7 6.5 4.8 C 6.6 4.9 6.7 4.9 6.9 4.9 Z M 9.7 5.6 L 9.7 1.8 L 10.7 1.8 C 10.7 1.8 10.74 2.38 10.7 2.4 C 11.1 2 11.4 1.8 11.8 1.8 C 12.2 1.8 12.6 1.9 12.8 2.1 C 13 2.4 13.1 2.7 13.1 3.2 C 13.11 3.17 13.1 5.6 13.1 5.6 L 12 5.6 C 12 5.6 12.05 3.51 12 3.5 C 12 3 11.8 2.7 11.4 2.7 C 11.2 2.7 11 2.8 10.9 2.9 C 10.8 3.1 10.7 3.3 10.7 3.5 C 10.74 3.51 10.7 5.6 10.7 5.6 L 9.7 5.6 Z M 15.6 4.4 L 16.4 1.8 L 17.5 1.8 C 17.5 1.8 16.06 5.69 16.1 5.7 C 15.9 6.1 15.8 6.3 15.6 6.5 C 15.4 6.7 15.1 6.7 14.8 6.7 C 14.5 6.7 14.2 6.7 13.9 6.5 C 13.9 6.5 14.2 5.7 14.2 5.7 C 14.4 5.8 14.6 5.9 14.7 5.9 C 14.8 5.9 14.9 5.8 14.9 5.8 C 15 5.8 15 5.7 15.1 5.6 C 15.06 5.61 13.6 1.8 13.6 1.8 L 14.7 1.8 L 15.6 4.4 Z M 19.8 5.7 C 19.2 5.7 18.7 5.5 18.3 5.1 C 17.9 4.8 17.7 4.3 17.7 3.7 C 17.7 3.7 17.7 3.7 17.7 3.7 C 17.7 3.2 17.9 2.7 18.3 2.3 C 18.7 2 19.2 1.8 19.8 1.8 C 20.3 1.8 20.8 2 21.2 2.3 C 21.6 2.7 21.8 3.2 21.8 3.7 C 21.8 3.7 21.8 3.7 21.8 3.7 C 21.8 4.3 21.6 4.7 21.2 5.1 C 20.8 5.5 20.3 5.7 19.8 5.7 Z M 19.8 4.8 C 20.1 4.8 20.3 4.7 20.5 4.5 C 20.7 4.3 20.7 4 20.7 3.7 C 20.7 3.7 20.7 3.7 20.7 3.7 C 20.7 3.4 20.7 3.2 20.5 3 C 20.3 2.8 20.1 2.7 19.8 2.7 C 19.5 2.7 19.2 2.8 19.1 3 C 18.9 3.2 18.8 3.4 18.8 3.7 C 18.8 3.7 18.8 3.7 18.8 3.7 C 18.8 4 18.9 4.3 19.1 4.5 C 19.2 4.7 19.5 4.8 19.8 4.8 Z M 24.8 5.6 L 24.8 0.7 C 24.8 0.7 26.78 0.7 26.8 0.7 C 27.4 0.7 27.8 0.9 28.2 1.2 C 28.5 1.5 28.7 1.9 28.7 2.4 C 28.7 2.4 28.7 2.4 28.7 2.4 C 28.7 3 28.5 3.4 28.1 3.7 C 27.7 4 27.3 4.1 26.7 4.1 C 26.68 4.13 25.9 4.1 25.9 4.1 L 25.9 5.6 L 24.8 5.6 Z M 25.9 3.2 C 25.9 3.2 26.71 3.17 26.7 3.2 C 27 3.2 27.2 3.1 27.3 3 C 27.5 2.8 27.6 2.6 27.6 2.4 C 27.6 2.4 27.6 2.4 27.6 2.4 C 27.6 2.2 27.5 2 27.3 1.9 C 27.2 1.7 27 1.7 26.7 1.7 C 26.69 1.67 25.9 1.7 25.9 1.7 L 25.9 3.2 Z M 31.5 5.2 C 31.2 5.5 30.8 5.7 30.3 5.7 C 30 5.7 29.7 5.6 29.4 5.4 C 29.2 5.2 29 4.9 29 4.5 C 29 4.5 29 4.5 29 4.5 C 29 4.1 29.2 3.8 29.5 3.6 C 29.7 3.4 30.1 3.3 30.6 3.3 C 30.9 3.3 31.2 3.4 31.5 3.5 C 31.5 3.5 31.5 3.4 31.5 3.4 C 31.5 2.9 31.2 2.7 30.7 2.7 C 30.3 2.7 30 2.8 29.6 2.9 C 29.6 2.9 29.4 2.1 29.4 2.1 C 29.8 1.9 30.3 1.8 30.8 1.8 C 31.4 1.8 31.8 1.9 32.1 2.2 C 32.4 2.5 32.5 2.9 32.5 3.4 C 32.5 3.42 32.5 5.6 32.5 5.6 L 31.5 5.6 L 31.5 5.2 C 31.5 5.2 31.47 5.19 31.5 5.2 Z M 30.7 4.9 C 30.9 4.9 31.1 4.9 31.3 4.8 C 31.4 4.6 31.5 4.5 31.5 4.3 C 31.5 4.3 31.5 4.1 31.5 4.1 C 31.3 4 31.1 3.9 30.8 3.9 C 30.6 3.9 30.4 4 30.3 4.1 C 30.1 4.2 30.1 4.3 30.1 4.5 C 30.1 4.5 30.1 4.5 30.1 4.5 C 30.1 4.6 30.1 4.7 30.2 4.8 C 30.3 4.9 30.5 4.9 30.7 4.9 Z M 34.7 5.7 C 34.1 5.7 33.6 5.5 33.1 5.1 C 33.1 5.1 33.6 4.4 33.6 4.4 C 34 4.7 34.4 4.9 34.8 4.9 C 35.1 4.9 35.2 4.8 35.2 4.6 C 35.2 4.6 35.2 4.6 35.2 4.6 C 35.2 4.5 35.2 4.5 35.2 4.5 C 35.2 4.4 35.2 4.4 35.1 4.4 C 35.1 4.4 35.1 4.4 35 4.3 C 35 4.3 35 4.3 34.9 4.3 C 34.9 4.3 34.8 4.2 34.8 4.2 C 34.7 4.2 34.7 4.2 34.6 4.2 C 34.5 4.2 34.5 4.1 34.4 4.1 C 34.3 4.1 34.1 4 34 4 C 33.9 3.9 33.8 3.9 33.7 3.8 C 33.6 3.7 33.5 3.6 33.4 3.5 C 33.3 3.3 33.3 3.2 33.3 3 C 33.3 3 33.3 3 33.3 3 C 33.3 2.6 33.4 2.3 33.7 2.1 C 34 1.9 34.3 1.8 34.7 1.8 C 35.2 1.8 35.6 1.9 36.1 2.2 C 36.1 2.2 35.7 3 35.7 3 C 35.3 2.7 34.9 2.6 34.7 2.6 C 34.5 2.6 34.4 2.6 34.4 2.7 C 34.3 2.7 34.3 2.8 34.3 2.9 C 34.3 2.9 34.3 2.9 34.3 2.9 C 34.3 3 34.3 3 34.5 3.1 C 34.6 3.2 34.8 3.3 35 3.3 C 35.2 3.4 35.3 3.4 35.4 3.5 C 35.6 3.5 35.7 3.6 35.8 3.7 C 35.9 3.8 36 3.9 36.1 4 C 36.1 4.1 36.2 4.3 36.2 4.4 C 36.2 4.4 36.2 4.5 36.2 4.5 C 36.2 4.9 36 5.2 35.8 5.4 C 35.5 5.6 35.2 5.7 34.7 5.7 Z M 36.9 6.7 L 36.9 1.8 L 38 1.8 C 38 1.8 38 2.39 38 2.4 C 38.3 2 38.7 1.8 39.2 1.8 C 39.6 1.8 40 2 40.4 2.3 C 40.7 2.6 40.9 3.1 40.9 3.7 C 40.9 3.7 40.9 3.7 40.9 3.7 C 40.9 4.3 40.7 4.8 40.4 5.1 C 40 5.5 39.6 5.7 39.2 5.7 C 38.7 5.7 38.3 5.5 38 5.1 C 38 5.11 38 6.7 38 6.7 L 36.9 6.7 Z M 38 3.7 C 38 4 38.1 4.3 38.2 4.5 C 38.4 4.7 38.6 4.8 38.9 4.8 C 39.1 4.8 39.4 4.7 39.5 4.5 C 39.7 4.3 39.8 4 39.8 3.7 C 39.8 3.7 39.8 3.7 39.8 3.7 C 39.8 3.4 39.7 3.2 39.5 3 C 39.4 2.8 39.1 2.7 38.9 2.7 C 38.6 2.7 38.4 2.8 38.2 3 C 38.1 3.2 38 3.4 38 3.7 C 37.98 3.72 38 3.7 38 3.7 C 38 3.7 37.98 3.73 38 3.7 Z M 43.9 5.2 C 43.6 5.5 43.2 5.7 42.7 5.7 C 42.4 5.7 42 5.6 41.8 5.4 C 41.6 5.2 41.4 4.9 41.4 4.5 C 41.4 4.5 41.4 4.5 41.4 4.5 C 41.4 4.1 41.6 3.8 41.8 3.6 C 42.1 3.4 42.5 3.3 42.9 3.3 C 43.2 3.3 43.6 3.4 43.9 3.5 C 43.9 3.5 43.9 3.4 43.9 3.4 C 43.9 2.9 43.6 2.7 43.1 2.7 C 42.7 2.7 42.4 2.8 42 2.9 C 42 2.9 41.8 2.1 41.8 2.1 C 42.2 1.9 42.7 1.8 43.2 1.8 C 43.8 1.8 44.2 1.9 44.5 2.2 C 44.7 2.5 44.9 2.9 44.9 3.4 C 44.88 3.42 44.9 5.6 44.9 5.6 L 43.9 5.6 L 43.9 5.2 C 43.9 5.2 43.85 5.19 43.9 5.2 Z M 43 4.9 C 43.3 4.9 43.5 4.9 43.6 4.8 C 43.8 4.6 43.9 4.5 43.9 4.3 C 43.9 4.3 43.9 4.1 43.9 4.1 C 43.7 4 43.4 3.9 43.2 3.9 C 43 3.9 42.8 4 42.7 4.1 C 42.5 4.2 42.5 4.3 42.5 4.5 C 42.5 4.5 42.5 4.5 42.5 4.5 C 42.5 4.6 42.5 4.7 42.6 4.8 C 42.7 4.9 42.9 4.9 43 4.9 Z M 47.1 5.7 C 46.5 5.7 46 5.5 45.5 5.1 C 45.5 5.1 46 4.4 46 4.4 C 46.4 4.7 46.8 4.9 47.1 4.9 C 47.4 4.9 47.6 4.8 47.6 4.6 C 47.6 4.6 47.6 4.6 47.6 4.6 C 47.6 4.5 47.6 4.5 47.6 4.5 C 47.6 4.4 47.5 4.4 47.5 4.4 C 47.5 4.4 47.4 4.4 47.4 4.3 C 47.4 4.3 47.3 4.3 47.3 4.3 C 47.2 4.3 47.2 4.2 47.2 4.2 C 47.1 4.2 47.1 4.2 47 4.2 C 46.9 4.2 46.9 4.1 46.8 4.1 C 46.7 4.1 46.5 4 46.4 4 C 46.3 3.9 46.2 3.9 46.1 3.8 C 45.9 3.7 45.9 3.6 45.8 3.5 C 45.7 3.3 45.7 3.2 45.7 3 C 45.7 3 45.7 3 45.7 3 C 45.7 2.6 45.8 2.3 46.1 2.1 C 46.3 1.9 46.7 1.8 47.1 1.8 C 47.6 1.8 48 1.9 48.5 2.2 C 48.5 2.2 48.1 3 48.1 3 C 47.7 2.7 47.3 2.6 47 2.6 C 46.9 2.6 46.8 2.6 46.8 2.7 C 46.7 2.7 46.7 2.8 46.7 2.9 C 46.7 2.9 46.7 2.9 46.7 2.9 C 46.7 3 46.7 3 46.8 3.1 C 47 3.2 47.2 3.3 47.4 3.3 C 47.6 3.4 47.7 3.4 47.8 3.5 C 47.9 3.5 48.1 3.6 48.2 3.7 C 48.3 3.8 48.4 3.9 48.5 4 C 48.5 4.1 48.6 4.3 48.6 4.4 C 48.6 4.4 48.6 4.5 48.6 4.5 C 48.6 4.9 48.4 5.2 48.2 5.4 C 47.9 5.6 47.5 5.7 47.1 5.7 Z M 49.4 5.6 L 49.4 1.8 L 50.4 1.8 L 50.4 5.6 L 49.4 5.6 Z M 53.4 3.9 L 53.4 2.9 L 56.4 2.9 L 56.4 3.9 L 53.4 3.9 Z M 60.6 5.6 L 60.6 1.7 L 59.1 1.7 L 59.1 0.7 L 63.1 0.7 L 63.1 1.7 L 61.7 1.7 L 61.7 5.6 L 60.6 5.6 Z M 63.8 1.4 L 63.8 0.5 L 64.9 0.5 L 64.9 1.4 L 63.8 1.4 Z M 63.8 5.6 L 63.8 1.8 L 64.9 1.8 L 64.9 5.6 L 63.8 5.6 Z M 66 5.6 L 66 0.5 L 67 0.5 L 67 5.6 L 66 5.6 Z M 71.3 5 C 71 5.5 70.4 5.7 69.8 5.7 C 69.2 5.7 68.8 5.5 68.4 5.1 C 68 4.8 67.8 4.3 67.8 3.7 C 67.8 3.7 67.8 3.7 67.8 3.7 C 67.8 3.2 68 2.7 68.4 2.3 C 68.7 2 69.2 1.8 69.7 1.8 C 70.3 1.8 70.7 2 71 2.4 C 71.4 2.8 71.5 3.2 71.5 3.8 C 71.5 3.9 71.5 4 71.5 4.1 C 71.5 4.1 68.9 4.1 68.9 4.1 C 68.9 4.3 69 4.5 69.2 4.6 C 69.4 4.8 69.6 4.8 69.8 4.8 C 70.1 4.8 70.4 4.7 70.7 4.4 C 70.72 4.44 71.3 5 71.3 5 C 71.3 5 71.33 4.98 71.3 5 Z M 68.9 3.4 C 68.9 3.4 70.5 3.4 70.5 3.4 C 70.4 3.2 70.4 3 70.2 2.8 C 70.1 2.7 69.9 2.6 69.7 2.6 C 69.5 2.6 69.3 2.7 69.2 2.8 C 69 3 68.9 3.2 68.9 3.4 Z M 73.6 5.7 C 73 5.7 72.5 5.5 72 5.1 C 72 5.1 72.5 4.4 72.5 4.4 C 72.9 4.7 73.3 4.9 73.7 4.9 C 74 4.9 74.1 4.8 74.1 4.6 C 74.1 4.6 74.1 4.6 74.1 4.6 C 74.1 4.5 74.1 4.5 74.1 4.5 C 74.1 4.4 74 4.4 74 4.4 C 74 4.4 74 4.4 73.9 4.3 C 73.9 4.3 73.9 4.3 73.8 4.3 C 73.7 4.3 73.7 4.2 73.7 4.2 C 73.6 4.2 73.6 4.2 73.5 4.2 C 73.4 4.2 73.4 4.1 73.3 4.1 C 73.2 4.1 73 4 72.9 4 C 72.8 3.9 72.7 3.9 72.6 3.8 C 72.5 3.7 72.4 3.6 72.3 3.5 C 72.2 3.3 72.2 3.2 72.2 3 C 72.2 3 72.2 3 72.2 3 C 72.2 2.6 72.3 2.3 72.6 2.1 C 72.9 1.9 73.2 1.8 73.6 1.8 C 74.1 1.8 74.5 1.9 75 2.2 C 75 2.2 74.6 3 74.6 3 C 74.2 2.7 73.8 2.6 73.6 2.6 C 73.4 2.6 73.3 2.6 73.3 2.7 C 73.2 2.7 73.2 2.8 73.2 2.9 C 73.2 2.9 73.2 2.9 73.2 2.9 C 73.2 3 73.2 3 73.4 3.1 C 73.5 3.2 73.7 3.3 73.9 3.3 C 74.1 3.4 74.2 3.4 74.3 3.5 C 74.4 3.5 74.6 3.6 74.7 3.7 C 74.8 3.8 74.9 3.9 75 4 C 75 4.1 75.1 4.3 75.1 4.4 C 75.1 4.4 75.1 4.5 75.1 4.5 C 75.1 4.9 74.9 5.2 74.7 5.4 C 74.4 5.6 74.1 5.7 73.6 5.7 Z " stroke="none" fill="#000"/>  </g></svg>