<?xml version="1.0" standalone="no"?><!DOCTYPE svg PUBLIC "-//W3C//DTD SVG 1.1//EN" "http://www.w3.org/Graphics/SVG/1.1/DTD/svg11.dtd"><svg xmlns="http://www.w3.org/2000/svg" version="1.1" width="456px" height="76.4px" viewBox="0 -3 456 76.4" style="top:-3px">  <desc>Pedall p Kovas – Nova Malzeme: ABS / Soft Touch | l ler: D 23 cm, H 29 cm | Hacim: 5 litre | Tasar m: Thomas Du...</desc>  <defs/>  <g id="Polygon395468">    <path d="M 0.7 23.6 L 0.7 18.7 L 1.3 18.7 L 3 21.4 L 4.8 18.7 L 5.4 18.7 L 5.4 23.6 L 4.8 23.6 L 4.8 19.6 L 3 22.3 L 3 22.3 L 1.2 19.6 L 1.2 23.6 L 0.7 23.6 Z M 9.1 23.1 C 8.7 23.5 8.3 23.7 7.8 23.7 C 7.4 23.7 7.1 23.6 6.8 23.4 C 6.5 23.2 6.4 22.9 6.4 22.5 C 6.4 22.5 6.4 22.5 6.4 22.5 C 6.4 22.2 6.5 21.9 6.8 21.7 C 7.1 21.5 7.5 21.4 8 21.4 C 8.3 21.4 8.7 21.4 9.1 21.5 C 9.1 21.5 9.1 21.4 9.1 21.4 C 9.1 21.1 9 20.8 8.8 20.7 C 8.6 20.5 8.3 20.4 8 20.4 C 7.6 20.4 7.3 20.5 6.9 20.7 C 6.9 20.7 6.7 20.2 6.7 20.2 C 7.2 20 7.6 19.9 8 19.9 C 8.6 19.9 8.9 20.1 9.2 20.3 C 9.5 20.6 9.6 20.9 9.6 21.4 C 9.58 21.39 9.6 23.6 9.6 23.6 L 9.1 23.6 L 9.1 23.1 C 9.1 23.1 9.06 23.05 9.1 23.1 Z M 7.9 23.2 C 8.2 23.2 8.5 23.2 8.7 23 C 9 22.8 9.1 22.6 9.1 22.3 C 9.1 22.3 9.1 21.9 9.1 21.9 C 8.7 21.8 8.4 21.8 8 21.8 C 7.7 21.8 7.4 21.8 7.2 22 C 7 22.1 7 22.3 7 22.5 C 7 22.5 7 22.5 7 22.5 C 7 22.7 7 22.9 7.2 23.1 C 7.4 23.2 7.6 23.2 7.9 23.2 Z M 10.8 23.6 L 10.8 18.5 L 11.3 18.5 L 11.3 23.6 L 10.8 23.6 Z M 12.4 23.6 L 12.4 23.3 L 14.8 20.4 L 12.4 20.4 L 12.4 20 L 15.5 20 L 15.5 20.3 L 13.1 23.1 L 15.5 23.1 L 15.5 23.6 L 12.4 23.6 Z M 19.4 23 C 19 23.5 18.5 23.7 17.9 23.7 C 17.4 23.7 17 23.5 16.7 23.2 C 16.3 22.8 16.1 22.4 16.1 21.8 C 16.1 21.8 16.1 21.8 16.1 21.8 C 16.1 21.3 16.3 20.8 16.6 20.4 C 17 20.1 17.4 19.9 17.9 19.9 C 18.4 19.9 18.8 20.1 19.1 20.4 C 19.4 20.8 19.6 21.3 19.6 21.8 C 19.6 21.9 19.6 21.9 19.6 22 C 19.6 22 16.7 22 16.7 22 C 16.7 22.4 16.9 22.7 17.1 22.9 C 17.3 23.1 17.6 23.2 18 23.2 C 18.4 23.2 18.8 23 19.1 22.7 C 19.1 22.7 19.4 23 19.4 23 C 19.4 23 19.43 23 19.4 23 Z M 16.7 21.6 C 16.7 21.6 19 21.6 19 21.6 C 19 21.2 18.9 20.9 18.7 20.7 C 18.5 20.5 18.2 20.4 17.9 20.4 C 17.5 20.4 17.3 20.5 17.1 20.7 C 16.8 20.9 16.7 21.2 16.7 21.6 Z M 20.5 23.6 L 20.5 20 L 21 20 C 21 20 21.04 20.59 21 20.6 C 21.2 20.4 21.3 20.2 21.5 20.1 C 21.7 20 21.9 19.9 22.2 19.9 C 22.8 19.9 23.1 20.1 23.4 20.6 C 23.7 20.1 24.1 19.9 24.6 19.9 C 25.1 19.9 25.4 20 25.6 20.3 C 25.9 20.6 26 20.9 26 21.4 C 25.99 21.36 26 23.6 26 23.6 L 25.5 23.6 C 25.5 23.6 25.45 21.49 25.5 21.5 C 25.5 21.1 25.4 20.9 25.2 20.7 C 25 20.5 24.8 20.4 24.5 20.4 C 24.2 20.4 24 20.5 23.8 20.7 C 23.6 20.9 23.5 21.2 23.5 21.5 C 23.51 21.51 23.5 23.6 23.5 23.6 L 23 23.6 C 23 23.6 22.98 21.47 23 21.5 C 23 21.1 22.9 20.9 22.7 20.7 C 22.6 20.5 22.3 20.4 22 20.4 C 21.8 20.4 21.5 20.5 21.3 20.7 C 21.1 20.9 21 21.2 21 21.5 C 21.04 21.53 21 23.6 21 23.6 L 20.5 23.6 Z M 30.2 23 C 29.8 23.5 29.3 23.7 28.7 23.7 C 28.2 23.7 27.8 23.5 27.4 23.2 C 27.1 22.8 26.9 22.4 26.9 21.8 C 26.9 21.8 26.9 21.8 26.9 21.8 C 26.9 21.3 27.1 20.8 27.4 20.4 C 27.7 20.1 28.2 19.9 28.7 19.9 C 29.2 19.9 29.6 20.1 29.9 20.4 C 30.2 20.8 30.3 21.3 30.3 21.8 C 30.3 21.9 30.3 21.9 30.3 22 C 30.3 22 27.5 22 27.5 22 C 27.5 22.4 27.6 22.7 27.9 22.9 C 28.1 23.1 28.4 23.2 28.7 23.2 C 29.2 23.2 29.5 23 29.9 22.7 C 29.88 22.7 30.2 23 30.2 23 C 30.2 23 30.21 23 30.2 23 Z M 27.5 21.6 C 27.5 21.6 29.8 21.6 29.8 21.6 C 29.8 21.2 29.7 20.9 29.5 20.7 C 29.3 20.5 29 20.4 28.6 20.4 C 28.3 20.4 28.1 20.5 27.8 20.7 C 27.6 20.9 27.5 21.2 27.5 21.6 Z M 31.2 20.7 L 31.2 20 L 31.9 20 L 31.9 20.7 L 31.2 20.7 Z M 31.2 23.6 L 31.2 22.9 L 31.9 22.9 L 31.9 23.6 L 31.2 23.6 Z M 34.8 23.6 L 37.1 18.7 L 37.6 18.7 L 39.8 23.6 L 39.2 23.6 L 38.6 22.3 L 36 22.3 L 35.4 23.6 L 34.8 23.6 Z M 36.2 21.8 L 38.4 21.8 L 37.3 19.3 L 36.2 21.8 Z M 40.8 23.6 L 40.8 18.7 C 40.8 18.7 42.87 18.7 42.9 18.7 C 43.4 18.7 43.8 18.8 44.1 19.1 C 44.4 19.3 44.5 19.6 44.5 19.9 C 44.5 19.9 44.5 19.9 44.5 19.9 C 44.5 20.5 44.2 20.8 43.7 21.1 C 44.4 21.3 44.7 21.7 44.7 22.2 C 44.7 22.2 44.7 22.3 44.7 22.3 C 44.7 22.7 44.6 23 44.3 23.2 C 43.9 23.5 43.5 23.6 43 23.6 C 42.96 23.6 40.8 23.6 40.8 23.6 Z M 43.9 20 C 43.9 20 43.9 20 43.9 20 C 43.9 19.7 43.8 19.6 43.6 19.4 C 43.4 19.3 43.2 19.2 42.8 19.2 C 42.82 19.2 41.3 19.2 41.3 19.2 L 41.3 20.9 C 41.3 20.9 42.78 20.88 42.8 20.9 C 43.1 20.9 43.4 20.8 43.6 20.7 C 43.8 20.5 43.9 20.3 43.9 20 Z M 44.2 22.2 C 44.2 22.2 44.2 22.2 44.2 22.2 C 44.2 21.9 44.1 21.7 43.8 21.6 C 43.6 21.4 43.3 21.4 42.9 21.4 C 42.87 21.37 41.3 21.4 41.3 21.4 L 41.3 23.1 C 41.3 23.1 42.97 23.1 43 23.1 C 43.4 23.1 43.6 23 43.9 22.9 C 44.1 22.7 44.2 22.5 44.2 22.2 Z M 47.5 23.7 C 46.8 23.7 46.1 23.4 45.5 22.9 C 45.5 22.9 45.9 22.5 45.9 22.5 C 46.1 22.7 46.4 22.9 46.6 23 C 46.9 23.1 47.2 23.2 47.5 23.2 C 47.9 23.2 48.1 23.1 48.3 22.9 C 48.5 22.8 48.6 22.6 48.6 22.3 C 48.6 22.3 48.6 22.3 48.6 22.3 C 48.6 22.1 48.5 21.9 48.4 21.8 C 48.2 21.6 47.8 21.5 47.4 21.4 C 46.8 21.3 46.4 21.1 46.1 20.9 C 45.8 20.7 45.7 20.4 45.7 20 C 45.7 20 45.7 20 45.7 20 C 45.7 19.6 45.9 19.3 46.2 19 C 46.5 18.8 46.9 18.6 47.3 18.6 C 47.7 18.6 48 18.7 48.2 18.8 C 48.5 18.9 48.8 19 49 19.2 C 49 19.2 48.7 19.7 48.7 19.7 C 48.3 19.3 47.8 19.1 47.3 19.1 C 47 19.1 46.7 19.2 46.5 19.4 C 46.4 19.5 46.3 19.7 46.3 19.9 C 46.3 19.9 46.3 19.9 46.3 19.9 C 46.3 20.2 46.4 20.4 46.5 20.5 C 46.7 20.7 47.1 20.8 47.6 20.9 C 48.1 21 48.6 21.2 48.8 21.4 C 49.1 21.6 49.2 21.9 49.2 22.3 C 49.2 22.3 49.2 22.3 49.2 22.3 C 49.2 22.7 49 23 48.7 23.3 C 48.4 23.5 48 23.7 47.5 23.7 Z M 51.6 24.5 L 54.8 18 L 55.3 18 L 52.1 24.5 L 51.6 24.5 Z M 59.8 23.7 C 59 23.7 58.3 23.4 57.7 22.9 C 57.7 22.9 58.1 22.5 58.1 22.5 C 58.4 22.7 58.6 22.9 58.9 23 C 59.1 23.1 59.4 23.2 59.8 23.2 C 60.1 23.2 60.4 23.1 60.6 22.9 C 60.8 22.8 60.9 22.6 60.9 22.3 C 60.9 22.3 60.9 22.3 60.9 22.3 C 60.9 22.1 60.8 21.9 60.6 21.8 C 60.4 21.6 60.1 21.5 59.6 21.4 C 59 21.3 58.6 21.1 58.3 20.9 C 58.1 20.7 57.9 20.4 57.9 20 C 57.9 20 57.9 20 57.9 20 C 57.9 19.6 58.1 19.3 58.4 19 C 58.7 18.8 59.1 18.6 59.6 18.6 C 59.9 18.6 60.2 18.7 60.5 18.8 C 60.8 18.9 61 19 61.3 19.2 C 61.3 19.2 61 19.7 61 19.7 C 60.5 19.3 60 19.1 59.5 19.1 C 59.2 19.1 59 19.2 58.8 19.4 C 58.6 19.5 58.5 19.7 58.5 19.9 C 58.5 19.9 58.5 19.9 58.5 19.9 C 58.5 20.2 58.6 20.4 58.8 20.5 C 59 20.7 59.3 20.8 59.8 20.9 C 60.4 21 60.8 21.2 61 21.4 C 61.3 21.6 61.4 21.9 61.4 22.3 C 61.4 22.3 61.4 22.3 61.4 22.3 C 61.4 22.7 61.3 23 61 23.3 C 60.6 23.5 60.2 23.7 59.8 23.7 Z M 64.1 23.7 C 63.6 23.7 63.1 23.5 62.8 23.1 C 62.4 22.8 62.2 22.3 62.2 21.8 C 62.2 21.8 62.2 21.8 62.2 21.8 C 62.2 21.3 62.4 20.8 62.8 20.5 C 63.1 20.1 63.6 19.9 64.1 19.9 C 64.7 19.9 65.1 20.1 65.5 20.5 C 65.8 20.8 66 21.3 66 21.8 C 66 21.8 66 21.8 66 21.8 C 66 22.3 65.8 22.8 65.5 23.1 C 65.1 23.5 64.7 23.7 64.1 23.7 Z M 64.1 23.2 C 64.5 23.2 64.8 23.1 65.1 22.8 C 65.3 22.5 65.5 22.2 65.5 21.8 C 65.5 21.8 65.5 21.8 65.5 21.8 C 65.5 21.4 65.3 21.1 65.1 20.8 C 64.8 20.5 64.5 20.4 64.1 20.4 C 63.7 20.4 63.4 20.5 63.2 20.8 C 62.9 21.1 62.8 21.4 62.8 21.8 C 62.8 21.8 62.8 21.8 62.8 21.8 C 62.8 22.2 62.9 22.5 63.2 22.8 C 63.4 23.1 63.7 23.2 64.1 23.2 Z M 67.2 23.6 L 67.2 20.5 L 66.7 20.5 L 66.7 20 L 67.2 20 C 67.2 20 67.19 19.67 67.2 19.7 C 67.2 19.3 67.3 19 67.5 18.7 C 67.7 18.6 67.9 18.5 68.3 18.5 C 68.5 18.5 68.7 18.5 68.9 18.6 C 68.9 18.6 68.9 19 68.9 19 C 68.7 19 68.5 18.9 68.3 18.9 C 67.9 18.9 67.7 19.2 67.7 19.7 C 67.72 19.7 67.7 20 67.7 20 L 68.9 20 L 68.9 20.5 L 67.7 20.5 L 67.7 23.6 L 67.2 23.6 Z M 71.4 23.5 C 71.2 23.6 71 23.7 70.8 23.7 C 70.4 23.7 70.2 23.6 70 23.4 C 69.8 23.2 69.7 23 69.7 22.6 C 69.74 22.64 69.7 20.5 69.7 20.5 L 69.2 20.5 L 69.2 20 L 69.7 20 L 69.7 18.9 L 70.3 18.9 L 70.3 20 L 71.4 20 L 71.4 20.5 L 70.3 20.5 C 70.3 20.5 70.28 22.57 70.3 22.6 C 70.3 23 70.5 23.2 70.9 23.2 C 71.1 23.2 71.2 23.1 71.4 23 C 71.41 23.05 71.4 23.5 71.4 23.5 C 71.4 23.5 71.41 23.51 71.4 23.5 Z M 75.8 23.6 L 75.8 19.2 L 74.2 19.2 L 74.2 18.7 L 78 18.7 L 78 19.2 L 76.4 19.2 L 76.4 23.6 L 75.8 23.6 Z M 79.8 23.7 C 79.2 23.7 78.8 23.5 78.4 23.1 C 78.1 22.8 77.9 22.3 77.9 21.8 C 77.9 21.8 77.9 21.8 77.9 21.8 C 77.9 21.3 78.1 20.8 78.4 20.5 C 78.8 20.1 79.2 19.9 79.8 19.9 C 80.3 19.9 80.8 20.1 81.1 20.5 C 81.5 20.8 81.7 21.3 81.7 21.8 C 81.7 21.8 81.7 21.8 81.7 21.8 C 81.7 22.3 81.5 22.8 81.1 23.1 C 80.7 23.5 80.3 23.7 79.8 23.7 Z M 79.8 23.2 C 80.2 23.2 80.5 23.1 80.7 22.8 C 81 22.5 81.1 22.2 81.1 21.8 C 81.1 21.8 81.1 21.8 81.1 21.8 C 81.1 21.4 81 21.1 80.7 20.8 C 80.5 20.5 80.1 20.4 79.8 20.4 C 79.4 20.4 79.1 20.5 78.8 20.8 C 78.6 21.1 78.4 21.4 78.4 21.8 C 78.4 21.8 78.4 21.8 78.4 21.8 C 78.4 22.2 78.6 22.5 78.8 22.8 C 79.1 23.1 79.4 23.2 79.8 23.2 Z M 85.2 23 C 84.9 23.4 84.5 23.7 84 23.7 C 83.5 23.7 83.2 23.5 82.9 23.3 C 82.7 23 82.6 22.7 82.6 22.2 C 82.57 22.23 82.6 20 82.6 20 L 83.1 20 C 83.1 20 83.11 22.09 83.1 22.1 C 83.1 22.4 83.2 22.7 83.4 22.9 C 83.5 23.1 83.8 23.2 84.1 23.2 C 84.4 23.2 84.7 23.1 84.9 22.9 C 85.1 22.7 85.2 22.4 85.2 22.1 C 85.2 22.05 85.2 20 85.2 20 L 85.7 20 L 85.7 23.6 L 85.2 23.6 L 85.2 23 C 85.2 23 85.2 22.97 85.2 23 Z M 90 23 C 89.6 23.5 89.1 23.7 88.6 23.7 C 88 23.7 87.6 23.5 87.2 23.1 C 86.9 22.8 86.7 22.3 86.7 21.8 C 86.7 21.8 86.7 21.8 86.7 21.8 C 86.7 21.3 86.9 20.8 87.2 20.5 C 87.6 20.1 88 19.9 88.6 19.9 C 89.1 19.9 89.6 20.1 90 20.5 C 90 20.5 89.7 20.9 89.7 20.9 C 89.3 20.6 89 20.4 88.6 20.4 C 88.2 20.4 87.9 20.5 87.6 20.8 C 87.4 21.1 87.3 21.4 87.3 21.8 C 87.3 21.8 87.3 21.8 87.3 21.8 C 87.3 22.2 87.4 22.5 87.6 22.8 C 87.9 23.1 88.2 23.2 88.6 23.2 C 89 23.2 89.4 23 89.7 22.7 C 89.7 22.66 90 23 90 23 C 90 23 90.05 22.98 90 23 Z M 90.9 23.6 L 90.9 18.5 L 91.5 18.5 C 91.5 18.5 91.48 20.61 91.5 20.6 C 91.8 20.1 92.2 19.9 92.7 19.9 C 93.1 19.9 93.5 20 93.7 20.3 C 94 20.6 94.1 20.9 94.1 21.4 C 94.1 21.35 94.1 23.6 94.1 23.6 L 93.6 23.6 C 93.6 23.6 93.56 21.49 93.6 21.5 C 93.6 21.1 93.5 20.9 93.3 20.7 C 93.1 20.5 92.9 20.4 92.6 20.4 C 92.2 20.4 92 20.5 91.8 20.7 C 91.6 20.9 91.5 21.2 91.5 21.5 C 91.48 21.53 91.5 23.6 91.5 23.6 L 90.9 23.6 Z M 97.6 24.5 L 97.6 18 L 98 18 L 98 24.5 L 97.6 24.5 Z M 104.3 18.2 L 104.3 17.6 L 104.9 17.6 L 104.9 18.2 L 104.3 18.2 Z M 103 18.2 L 103 17.6 L 103.6 17.6 L 103.6 18.2 L 103 18.2 Z M 106.4 21.1 C 106.4 21.8 106.2 22.4 105.7 22.9 C 105.3 23.4 104.7 23.7 103.9 23.7 C 103.2 23.7 102.6 23.4 102.1 22.9 C 101.7 22.5 101.4 21.9 101.4 21.2 C 101.4 21.2 101.4 21.1 101.4 21.1 C 101.4 20.5 101.7 19.9 102.1 19.4 C 102.6 18.9 103.2 18.6 103.9 18.6 C 104.7 18.6 105.3 18.9 105.7 19.4 C 106.2 19.8 106.4 20.4 106.4 21.1 C 106.44 21.14 106.4 21.1 106.4 21.1 C 106.4 21.1 106.44 21.15 106.4 21.1 Z M 102 21.1 C 102 21.7 102.2 22.2 102.6 22.6 C 102.9 23 103.4 23.2 103.9 23.2 C 104.5 23.2 105 23 105.3 22.6 C 105.7 22.2 105.9 21.7 105.9 21.2 C 105.9 21.2 105.9 21.1 105.9 21.1 C 105.9 20.6 105.7 20.1 105.3 19.7 C 105 19.3 104.5 19.1 103.9 19.1 C 103.4 19.1 102.9 19.3 102.6 19.7 C 102.2 20.1 102 20.6 102 21.1 C 102.02 21.14 102 21.1 102 21.1 C 102 21.1 102.02 21.15 102 21.1 Z M 107.6 23.6 L 107.6 18.5 L 108.1 18.5 L 108.1 23.6 L 107.6 23.6 Z M 110.6 24.7 L 110.1 24.4 C 110.1 24.4 110.65 23.65 110.7 23.6 C 110.2 23.6 109.9 23.4 109.6 23 C 109.3 22.7 109.1 22.3 109.1 21.8 C 109.1 21.8 109.1 21.8 109.1 21.8 C 109.1 21.3 109.3 20.8 109.7 20.5 C 110 20.1 110.5 19.9 111 19.9 C 111.6 19.9 112 20.1 112.4 20.5 C 112.4 20.5 112.1 20.9 112.1 20.9 C 111.7 20.6 111.4 20.4 111 20.4 C 110.6 20.4 110.3 20.5 110.1 20.8 C 109.8 21.1 109.7 21.4 109.7 21.8 C 109.7 21.8 109.7 21.8 109.7 21.8 C 109.7 22.2 109.8 22.5 110.1 22.8 C 110.3 23.1 110.6 23.2 111 23.2 C 111.4 23.2 111.8 23 112.1 22.7 C 112.1 22.7 112.5 23 112.5 23 C 112.1 23.4 111.6 23.7 111.1 23.7 C 111.1 23.68 110.6 24.7 110.6 24.7 Z M 115.1 19.4 L 115.1 18.8 L 115.8 18.8 L 115.8 19.4 L 115.1 19.4 Z M 113.9 19.4 L 113.9 18.8 L 114.5 18.8 L 114.5 19.4 L 113.9 19.4 Z M 115.9 23 C 115.6 23.4 115.2 23.7 114.7 23.7 C 114.2 23.7 113.9 23.5 113.6 23.3 C 113.4 23 113.3 22.7 113.3 22.2 C 113.27 22.23 113.3 20 113.3 20 L 113.8 20 C 113.8 20 113.81 22.09 113.8 22.1 C 113.8 22.4 113.9 22.7 114.1 22.9 C 114.2 23.1 114.5 23.2 114.8 23.2 C 115.1 23.2 115.4 23.1 115.6 22.9 C 115.8 22.7 115.9 22.4 115.9 22.1 C 115.9 22.05 115.9 20 115.9 20 L 116.4 20 L 116.4 23.6 L 115.9 23.6 L 115.9 23 C 115.9 23 115.9 22.97 115.9 23 Z M 117.7 23.6 L 117.7 18.5 L 118.2 18.5 L 118.2 23.6 L 117.7 23.6 Z M 122.6 23 C 122.2 23.5 121.7 23.7 121.1 23.7 C 120.6 23.7 120.1 23.5 119.8 23.2 C 119.4 22.8 119.3 22.4 119.3 21.8 C 119.3 21.8 119.3 21.8 119.3 21.8 C 119.3 21.3 119.4 20.8 119.8 20.4 C 120.1 20.1 120.5 19.9 121 19.9 C 121.5 19.9 121.9 20.1 122.2 20.4 C 122.5 20.8 122.7 21.3 122.7 21.8 C 122.7 21.9 122.7 21.9 122.7 22 C 122.7 22 119.8 22 119.8 22 C 119.8 22.4 120 22.7 120.2 22.9 C 120.5 23.1 120.7 23.2 121.1 23.2 C 121.5 23.2 121.9 23 122.2 22.7 C 122.22 22.7 122.6 23 122.6 23 C 122.6 23 122.55 23 122.6 23 Z M 119.8 21.6 C 119.8 21.6 122.1 21.6 122.1 21.6 C 122.1 21.2 122 20.9 121.8 20.7 C 121.6 20.5 121.3 20.4 121 20.4 C 120.7 20.4 120.4 20.5 120.2 20.7 C 120 20.9 119.8 21.2 119.8 21.6 Z M 123.6 23.6 L 123.6 20 L 124.2 20 C 124.2 20 124.16 20.93 124.2 20.9 C 124.3 20.6 124.5 20.4 124.8 20.2 C 125 20 125.3 19.9 125.6 19.9 C 125.64 19.92 125.6 20.5 125.6 20.5 C 125.6 20.5 125.6 20.5 125.6 20.5 C 125.2 20.5 124.8 20.6 124.6 20.9 C 124.3 21.2 124.2 21.6 124.2 22.2 C 124.16 22.16 124.2 23.6 124.2 23.6 L 123.6 23.6 Z M 126.4 20.7 L 126.4 20 L 127.1 20 L 127.1 20.7 L 126.4 20.7 Z M 126.4 23.6 L 126.4 22.9 L 127.1 22.9 L 127.1 23.6 L 126.4 23.6 Z M 130.4 23.6 L 130.4 18.7 C 130.4 18.7 132.13 18.7 132.1 18.7 C 132.9 18.7 133.5 18.9 134 19.4 C 134.5 19.9 134.7 20.4 134.7 21.1 C 134.7 21.1 134.7 21.1 134.7 21.1 C 134.7 21.8 134.5 22.4 134 22.9 C 133.5 23.4 132.9 23.6 132.1 23.6 C 132.13 23.6 130.4 23.6 130.4 23.6 Z M 132.1 19.2 C 132.13 19.21 131 19.2 131 19.2 L 131 23.1 C 131 23.1 132.13 23.09 132.1 23.1 C 132.7 23.1 133.2 22.9 133.6 22.5 C 134 22.2 134.2 21.7 134.2 21.2 C 134.2 21.2 134.2 21.1 134.2 21.1 C 134.2 20.6 134 20.1 133.6 19.8 C 133.2 19.4 132.7 19.2 132.1 19.2 Z M 137.6 23.6 L 137.6 23.2 C 137.6 23.2 139.42 21.6 139.4 21.6 C 139.8 21.3 140.1 21 140.2 20.8 C 140.4 20.5 140.4 20.3 140.4 20.1 C 140.4 19.8 140.4 19.6 140.2 19.4 C 140 19.2 139.7 19.1 139.5 19.1 C 139.2 19.1 139 19.2 138.8 19.3 C 138.6 19.5 138.3 19.7 138.1 20 C 138.1 20 137.7 19.7 137.7 19.7 C 138 19.3 138.2 19 138.5 18.9 C 138.8 18.7 139.1 18.6 139.5 18.6 C 139.9 18.6 140.3 18.8 140.6 19 C 140.9 19.3 141 19.6 141 20 C 141 20 141 20 141 20 C 141 20.4 140.9 20.7 140.7 20.9 C 140.6 21.2 140.2 21.5 139.8 21.9 C 139.78 21.93 138.5 23.1 138.5 23.1 L 141.1 23.1 L 141.1 23.6 L 137.6 23.6 Z M 143.7 23.7 C 142.9 23.7 142.3 23.4 141.9 22.8 C 141.9 22.8 142.3 22.5 142.3 22.5 C 142.6 22.9 143.1 23.2 143.7 23.2 C 144 23.2 144.2 23.1 144.5 22.9 C 144.7 22.7 144.8 22.5 144.8 22.2 C 144.8 22.2 144.8 22.2 144.8 22.2 C 144.8 21.9 144.6 21.7 144.4 21.5 C 144.1 21.4 143.8 21.3 143.4 21.3 C 143.39 21.27 143.1 21.3 143.1 21.3 L 143 20.9 L 144.5 19.2 L 142.1 19.2 L 142.1 18.7 L 145.2 18.7 L 145.2 19.1 C 145.2 19.1 143.7 20.81 143.7 20.8 C 144.2 20.9 144.6 21 144.9 21.2 C 145.2 21.4 145.3 21.8 145.3 22.2 C 145.3 22.2 145.3 22.2 145.3 22.2 C 145.3 22.6 145.2 23 144.8 23.3 C 144.5 23.5 144.1 23.7 143.7 23.7 Z M 151.6 23 C 151.2 23.5 150.7 23.7 150.1 23.7 C 149.6 23.7 149.2 23.5 148.8 23.1 C 148.4 22.8 148.3 22.3 148.3 21.8 C 148.3 21.8 148.3 21.8 148.3 21.8 C 148.3 21.3 148.4 20.8 148.8 20.5 C 149.2 20.1 149.6 19.9 150.1 19.9 C 150.7 19.9 151.2 20.1 151.6 20.5 C 151.6 20.5 151.2 20.9 151.2 20.9 C 150.9 20.6 150.5 20.4 150.1 20.4 C 149.8 20.4 149.4 20.5 149.2 20.8 C 148.9 21.1 148.8 21.4 148.8 21.8 C 148.8 21.8 148.8 21.8 148.8 21.8 C 148.8 22.2 149 22.5 149.2 22.8 C 149.5 23.1 149.8 23.2 150.2 23.2 C 150.6 23.2 150.9 23 151.3 22.7 C 151.26 22.66 151.6 23 151.6 23 C 151.6 23 151.6 22.98 151.6 23 Z M 152.5 23.6 L 152.5 20 L 153 20 C 153 20 153.03 20.59 153 20.6 C 153.2 20.4 153.3 20.2 153.5 20.1 C 153.7 20 153.9 19.9 154.2 19.9 C 154.7 19.9 155.1 20.1 155.4 20.6 C 155.7 20.1 156.1 19.9 156.6 19.9 C 157.1 19.9 157.4 20 157.6 20.3 C 157.9 20.6 158 20.9 158 21.4 C 157.98 21.36 158 23.6 158 23.6 L 157.4 23.6 C 157.4 23.6 157.44 21.49 157.4 21.5 C 157.4 21.1 157.4 20.9 157.2 20.7 C 157 20.5 156.8 20.4 156.5 20.4 C 156.2 20.4 156 20.5 155.8 20.7 C 155.6 20.9 155.5 21.2 155.5 21.5 C 155.5 21.51 155.5 23.6 155.5 23.6 L 155 23.6 C 155 23.6 154.97 21.47 155 21.5 C 155 21.1 154.9 20.9 154.7 20.7 C 154.6 20.5 154.3 20.4 154 20.4 C 153.8 20.4 153.5 20.5 153.3 20.7 C 153.1 20.9 153 21.2 153 21.5 C 153.03 21.53 153 23.6 153 23.6 L 152.5 23.6 Z M 158.9 24.5 C 158.9 24.5 158.8 24.2 158.8 24.2 C 159.2 24.1 159.3 23.9 159.3 23.6 C 159.32 23.6 159.1 23.6 159.1 23.6 L 159.1 22.9 L 159.7 22.9 C 159.7 22.9 159.71 23.49 159.7 23.5 C 159.7 23.8 159.6 24 159.5 24.1 C 159.4 24.3 159.2 24.4 158.9 24.5 Z M 163 23.6 L 163 18.7 L 163.6 18.7 L 163.6 20.9 L 166.4 20.9 L 166.4 18.7 L 167 18.7 L 167 23.6 L 166.4 23.6 L 166.4 21.4 L 163.6 21.4 L 163.6 23.6 L 163 23.6 Z M 170.1 23.6 L 170.1 23.2 C 170.1 23.2 171.88 21.6 171.9 21.6 C 172.3 21.3 172.5 21 172.7 20.8 C 172.8 20.5 172.9 20.3 172.9 20.1 C 172.9 19.8 172.8 19.6 172.6 19.4 C 172.4 19.2 172.2 19.1 171.9 19.1 C 171.6 19.1 171.4 19.2 171.2 19.3 C 171 19.5 170.8 19.7 170.6 20 C 170.6 20 170.2 19.7 170.2 19.7 C 170.4 19.3 170.7 19 170.9 18.9 C 171.2 18.7 171.5 18.6 172 18.6 C 172.4 18.6 172.8 18.8 173 19 C 173.3 19.3 173.5 19.6 173.5 20 C 173.5 20 173.5 20 173.5 20 C 173.5 20.4 173.4 20.7 173.2 20.9 C 173 21.2 172.7 21.5 172.2 21.9 C 172.23 21.93 170.9 23.1 170.9 23.1 L 173.5 23.1 L 173.5 23.6 L 170.1 23.6 Z M 174.8 22.7 C 175.2 23 175.6 23.2 176 23.2 C 176.5 23.2 176.8 23 177.1 22.6 C 177.4 22.2 177.5 21.7 177.5 21.1 C 177.5 21.1 177.5 21 177.5 21 C 177.2 21.6 176.7 21.8 176.1 21.8 C 175.6 21.8 175.2 21.7 174.9 21.4 C 174.6 21.1 174.4 20.7 174.4 20.3 C 174.4 20.3 174.4 20.3 174.4 20.3 C 174.4 19.8 174.6 19.4 174.9 19.1 C 175.2 18.8 175.6 18.6 176.2 18.6 C 176.7 18.6 177.1 18.8 177.4 19.1 C 177.9 19.5 178.1 20.2 178.1 21 C 178.1 21 178.1 21 178.1 21 C 178.1 21.8 177.9 22.4 177.5 22.9 C 177.1 23.4 176.6 23.7 176 23.7 C 175.5 23.7 175 23.5 174.5 23.1 C 174.51 23.08 174.8 22.7 174.8 22.7 C 174.8 22.7 174.83 22.65 174.8 22.7 Z M 176.2 21.3 C 176.5 21.3 176.8 21.2 177 21 C 177.3 20.8 177.4 20.5 177.4 20.2 C 177.4 20.2 177.4 20.2 177.4 20.2 C 177.4 19.9 177.3 19.6 177 19.4 C 176.8 19.2 176.5 19.1 176.1 19.1 C 175.8 19.1 175.5 19.2 175.3 19.4 C 175.1 19.7 175 19.9 175 20.3 C 175 20.3 175 20.3 175 20.3 C 175 20.6 175.1 20.8 175.3 21 C 175.5 21.2 175.8 21.3 176.2 21.3 Z M 184.3 23 C 183.9 23.5 183.4 23.7 182.8 23.7 C 182.3 23.7 181.8 23.5 181.5 23.1 C 181.1 22.8 181 22.3 181 21.8 C 181 21.8 181 21.8 181 21.8 C 181 21.3 181.1 20.8 181.5 20.5 C 181.8 20.1 182.3 19.9 182.8 19.9 C 183.4 19.9 183.9 20.1 184.3 20.5 C 184.3 20.5 183.9 20.9 183.9 20.9 C 183.6 20.6 183.2 20.4 182.8 20.4 C 182.4 20.4 182.1 20.5 181.9 20.8 C 181.6 21.1 181.5 21.4 181.5 21.8 C 181.5 21.8 181.5 21.8 181.5 21.8 C 181.5 22.2 181.6 22.5 181.9 22.8 C 182.2 23.1 182.5 23.2 182.8 23.2 C 183.2 23.2 183.6 23 184 22.7 C 183.95 22.66 184.3 23 184.3 23 C 184.3 23 184.29 22.98 184.3 23 Z M 185.2 23.6 L 185.2 20 L 185.7 20 C 185.7 20 185.72 20.59 185.7 20.6 C 185.9 20.4 186 20.2 186.2 20.1 C 186.4 20 186.6 19.9 186.9 19.9 C 187.4 19.9 187.8 20.1 188.1 20.6 C 188.4 20.1 188.8 19.9 189.3 19.9 C 189.7 19.9 190.1 20 190.3 20.3 C 190.6 20.6 190.7 20.9 190.7 21.4 C 190.67 21.36 190.7 23.6 190.7 23.6 L 190.1 23.6 C 190.1 23.6 190.13 21.49 190.1 21.5 C 190.1 21.1 190 20.9 189.9 20.7 C 189.7 20.5 189.5 20.4 189.2 20.4 C 188.9 20.4 188.7 20.5 188.5 20.7 C 188.3 20.9 188.2 21.2 188.2 21.5 C 188.19 21.51 188.2 23.6 188.2 23.6 L 187.7 23.6 C 187.7 23.6 187.66 21.47 187.7 21.5 C 187.7 21.1 187.6 20.9 187.4 20.7 C 187.2 20.5 187 20.4 186.7 20.4 C 186.4 20.4 186.2 20.5 186 20.7 C 185.8 20.9 185.7 21.2 185.7 21.5 C 185.72 21.53 185.7 23.6 185.7 23.6 L 185.2 23.6 Z M 194.1 24.5 L 194.1 18 L 194.6 18 L 194.6 24.5 L 194.1 24.5 Z M 198.2 23.6 L 198.2 18.7 L 198.8 18.7 L 198.8 20.9 L 201.6 20.9 L 201.6 18.7 L 202.2 18.7 L 202.2 23.6 L 201.6 23.6 L 201.6 21.4 L 198.8 21.4 L 198.8 23.6 L 198.2 23.6 Z M 205.8 23.1 C 205.5 23.5 205.1 23.7 204.5 23.7 C 204.2 23.7 203.9 23.6 203.6 23.4 C 203.3 23.2 203.2 22.9 203.2 22.5 C 203.2 22.5 203.2 22.5 203.2 22.5 C 203.2 22.2 203.3 21.9 203.6 21.7 C 203.9 21.5 204.3 21.4 204.7 21.4 C 205.1 21.4 205.5 21.4 205.8 21.5 C 205.8 21.5 205.8 21.4 205.8 21.4 C 205.8 21.1 205.8 20.8 205.6 20.7 C 205.4 20.5 205.1 20.4 204.8 20.4 C 204.4 20.4 204 20.5 203.7 20.7 C 203.7 20.7 203.5 20.2 203.5 20.2 C 203.9 20 204.4 19.9 204.8 19.9 C 205.3 19.9 205.7 20.1 206 20.3 C 206.2 20.6 206.4 20.9 206.4 21.4 C 206.36 21.39 206.4 23.6 206.4 23.6 L 205.8 23.6 L 205.8 23.1 C 205.8 23.1 205.85 23.05 205.8 23.1 Z M 204.6 23.2 C 205 23.2 205.3 23.2 205.5 23 C 205.7 22.8 205.9 22.6 205.9 22.3 C 205.9 22.3 205.9 21.9 205.9 21.9 C 205.5 21.8 205.1 21.8 204.8 21.8 C 204.5 21.8 204.2 21.8 204 22 C 203.8 22.1 203.7 22.3 203.7 22.5 C 203.7 22.5 203.7 22.5 203.7 22.5 C 203.7 22.7 203.8 22.9 204 23.1 C 204.2 23.2 204.4 23.2 204.6 23.2 Z M 210.6 23 C 210.2 23.5 209.7 23.7 209.1 23.7 C 208.6 23.7 208.2 23.5 207.8 23.1 C 207.5 22.8 207.3 22.3 207.3 21.8 C 207.3 21.8 207.3 21.8 207.3 21.8 C 207.3 21.3 207.5 20.8 207.8 20.5 C 208.2 20.1 208.6 19.9 209.1 19.9 C 209.7 19.9 210.2 20.1 210.6 20.5 C 210.6 20.5 210.2 20.9 210.2 20.9 C 209.9 20.6 209.5 20.4 209.1 20.4 C 208.8 20.4 208.5 20.5 208.2 20.8 C 208 21.1 207.8 21.4 207.8 21.8 C 207.8 21.8 207.8 21.8 207.8 21.8 C 207.8 22.2 208 22.5 208.2 22.8 C 208.5 23.1 208.8 23.2 209.2 23.2 C 209.6 23.2 209.9 23 210.3 22.7 C 210.28 22.66 210.6 23 210.6 23 C 210.6 23 210.62 22.98 210.6 23 Z M 211.5 19.2 L 211.5 18.6 L 212.1 18.6 L 212.1 19.2 L 211.5 19.2 Z M 211.6 23.6 L 211.6 20 L 212.1 20 L 212.1 23.6 L 211.6 23.6 Z M 213.4 23.6 L 213.4 20 L 213.9 20 C 213.9 20 213.89 20.59 213.9 20.6 C 214 20.4 214.2 20.2 214.4 20.1 C 214.5 20 214.8 19.9 215.1 19.9 C 215.6 19.9 216 20.1 216.2 20.6 C 216.5 20.1 217 19.9 217.5 19.9 C 217.9 19.9 218.2 20 218.5 20.3 C 218.7 20.6 218.8 20.9 218.8 21.4 C 218.84 21.36 218.8 23.6 218.8 23.6 L 218.3 23.6 C 218.3 23.6 218.3 21.49 218.3 21.5 C 218.3 21.1 218.2 20.9 218.1 20.7 C 217.9 20.5 217.7 20.4 217.4 20.4 C 217.1 20.4 216.8 20.5 216.7 20.7 C 216.5 20.9 216.4 21.2 216.4 21.5 C 216.36 21.51 216.4 23.6 216.4 23.6 L 215.8 23.6 C 215.8 23.6 215.83 21.47 215.8 21.5 C 215.8 21.1 215.7 20.9 215.6 20.7 C 215.4 20.5 215.2 20.4 214.9 20.4 C 214.6 20.4 214.4 20.5 214.2 20.7 C 214 20.9 213.9 21.2 213.9 21.5 C 213.89 21.53 213.9 23.6 213.9 23.6 L 213.4 23.6 Z M 220 20.7 L 220 20 L 220.6 20 L 220.6 20.7 L 220 20.7 Z M 220 23.6 L 220 22.9 L 220.6 22.9 L 220.6 23.6 L 220 23.6 Z M 225.4 23.7 C 224.7 23.7 224.2 23.4 223.6 22.9 C 223.6 22.9 224 22.5 224 22.5 C 224.5 23 224.9 23.2 225.4 23.2 C 225.7 23.2 226 23.1 226.2 22.9 C 226.5 22.7 226.6 22.4 226.6 22.1 C 226.6 22.1 226.6 22.1 226.6 22.1 C 226.6 21.8 226.5 21.5 226.2 21.3 C 226 21.1 225.7 21.1 225.4 21.1 C 225 21.1 224.7 21.1 224.3 21.3 C 224.33 21.33 224 21.1 224 21.1 L 224.1 18.7 L 226.9 18.7 L 226.9 19.2 L 224.6 19.2 C 224.6 19.2 224.47 20.78 224.5 20.8 C 224.8 20.6 225.1 20.6 225.4 20.6 C 225.9 20.6 226.3 20.7 226.7 21 C 227 21.2 227.1 21.6 227.1 22.1 C 227.1 22.1 227.1 22.1 227.1 22.1 C 227.1 22.5 227 22.9 226.6 23.2 C 226.3 23.5 225.9 23.7 225.4 23.7 Z M 230.3 23.6 L 230.3 18.5 L 230.8 18.5 L 230.8 23.6 L 230.3 23.6 Z M 232.1 19.2 L 232.1 18.6 L 232.7 18.6 L 232.7 19.2 L 232.1 19.2 Z M 232.1 23.6 L 232.1 20 L 232.7 20 L 232.7 23.6 L 232.1 23.6 Z M 235.8 23.5 C 235.6 23.6 235.4 23.7 235.1 23.7 C 234.8 23.7 234.6 23.6 234.4 23.4 C 234.2 23.2 234.1 23 234.1 22.6 C 234.12 22.64 234.1 20.5 234.1 20.5 L 233.6 20.5 L 233.6 20 L 234.1 20 L 234.1 18.9 L 234.7 18.9 L 234.7 20 L 235.8 20 L 235.8 20.5 L 234.7 20.5 C 234.7 20.5 234.66 22.57 234.7 22.6 C 234.7 23 234.9 23.2 235.3 23.2 C 235.4 23.2 235.6 23.1 235.8 23 C 235.79 23.05 235.8 23.5 235.8 23.5 C 235.8 23.5 235.79 23.51 235.8 23.5 Z M 236.8 23.6 L 236.8 20 L 237.3 20 C 237.3 20 237.3 20.93 237.3 20.9 C 237.4 20.6 237.6 20.4 237.9 20.2 C 238.1 20 238.4 19.9 238.8 19.9 C 238.77 19.92 238.8 20.5 238.8 20.5 C 238.8 20.5 238.73 20.5 238.7 20.5 C 238.3 20.5 238 20.6 237.7 20.9 C 237.4 21.2 237.3 21.6 237.3 22.2 C 237.3 22.16 237.3 23.6 237.3 23.6 L 236.8 23.6 Z M 242.5 23 C 242.1 23.5 241.6 23.7 241 23.7 C 240.5 23.7 240.1 23.5 239.7 23.2 C 239.4 22.8 239.2 22.4 239.2 21.8 C 239.2 21.8 239.2 21.8 239.2 21.8 C 239.2 21.3 239.4 20.8 239.7 20.4 C 240 20.1 240.5 19.9 241 19.9 C 241.5 19.9 241.9 20.1 242.2 20.4 C 242.5 20.8 242.6 21.3 242.6 21.8 C 242.6 21.9 242.6 21.9 242.6 22 C 242.6 22 239.8 22 239.8 22 C 239.8 22.4 239.9 22.7 240.2 22.9 C 240.4 23.1 240.7 23.2 241 23.2 C 241.5 23.2 241.8 23 242.2 22.7 C 242.18 22.7 242.5 23 242.5 23 C 242.5 23 242.51 23 242.5 23 Z M 239.8 21.6 C 239.8 21.6 242.1 21.6 242.1 21.6 C 242.1 21.2 242 20.9 241.8 20.7 C 241.6 20.5 241.3 20.4 240.9 20.4 C 240.6 20.4 240.4 20.5 240.1 20.7 C 239.9 20.9 239.8 21.2 239.8 21.6 Z M 245.9 24.5 L 245.9 18 L 246.4 18 L 246.4 24.5 L 245.9 24.5 Z M 251.3 23.6 L 251.3 19.2 L 249.6 19.2 L 249.6 18.7 L 253.5 18.7 L 253.5 19.2 L 251.8 19.2 L 251.8 23.6 L 251.3 23.6 Z M 255.9 23.1 C 255.6 23.5 255.2 23.7 254.6 23.7 C 254.2 23.7 253.9 23.6 253.7 23.4 C 253.4 23.2 253.3 22.9 253.3 22.5 C 253.3 22.5 253.3 22.5 253.3 22.5 C 253.3 22.2 253.4 21.9 253.7 21.7 C 254 21.5 254.3 21.4 254.8 21.4 C 255.2 21.4 255.5 21.4 255.9 21.5 C 255.9 21.5 255.9 21.4 255.9 21.4 C 255.9 21.1 255.8 20.8 255.6 20.7 C 255.4 20.5 255.2 20.4 254.8 20.4 C 254.5 20.4 254.1 20.5 253.7 20.7 C 253.7 20.7 253.6 20.2 253.6 20.2 C 254 20 254.4 19.9 254.9 19.9 C 255.4 19.9 255.8 20.1 256.1 20.3 C 256.3 20.6 256.4 20.9 256.4 21.4 C 256.43 21.39 256.4 23.6 256.4 23.6 L 255.9 23.6 L 255.9 23.1 C 255.9 23.1 255.92 23.05 255.9 23.1 Z M 254.7 23.2 C 255.1 23.2 255.3 23.2 255.6 23 C 255.8 22.8 255.9 22.6 255.9 22.3 C 255.9 22.3 255.9 21.9 255.9 21.9 C 255.6 21.8 255.2 21.8 254.9 21.8 C 254.5 21.8 254.3 21.8 254.1 22 C 253.9 22.1 253.8 22.3 253.8 22.5 C 253.8 22.5 253.8 22.5 253.8 22.5 C 253.8 22.7 253.9 22.9 254.1 23.1 C 254.2 23.2 254.5 23.2 254.7 23.2 Z M 258.8 23.7 C 258.2 23.7 257.7 23.5 257.3 23.1 C 257.3 23.1 257.6 22.8 257.6 22.8 C 258 23.1 258.4 23.2 258.8 23.2 C 259 23.2 259.2 23.2 259.4 23.1 C 259.5 23 259.6 22.8 259.6 22.6 C 259.6 22.6 259.6 22.6 259.6 22.6 C 259.6 22.5 259.5 22.3 259.3 22.2 C 259.2 22.2 258.9 22.1 258.7 22 C 258.5 22 258.4 21.9 258.4 21.9 C 258.3 21.9 258.2 21.8 258.1 21.8 C 258 21.8 257.9 21.7 257.8 21.7 C 257.8 21.6 257.7 21.6 257.6 21.5 C 257.6 21.4 257.5 21.4 257.5 21.3 C 257.5 21.2 257.5 21.1 257.5 21 C 257.5 21 257.5 21 257.5 21 C 257.5 20.6 257.6 20.4 257.8 20.2 C 258 20 258.3 19.9 258.7 19.9 C 259.2 19.9 259.6 20.1 260 20.3 C 260 20.3 259.7 20.7 259.7 20.7 C 259.4 20.5 259 20.4 258.7 20.4 C 258.5 20.4 258.3 20.4 258.2 20.5 C 258 20.6 258 20.7 258 20.9 C 258 20.9 258 20.9 258 20.9 C 258 21 258 21 258 21.1 C 258.1 21.1 258.1 21.2 258.2 21.2 C 258.2 21.3 258.3 21.3 258.4 21.4 C 258.5 21.4 258.6 21.4 258.6 21.4 C 258.7 21.5 258.8 21.5 258.9 21.5 C 259 21.6 259.2 21.6 259.2 21.6 C 259.3 21.7 259.4 21.7 259.6 21.8 C 259.7 21.8 259.8 21.9 259.8 22 C 259.9 22 260 22.1 260 22.2 C 260 22.3 260.1 22.4 260.1 22.6 C 260.1 22.6 260.1 22.6 260.1 22.6 C 260.1 22.9 259.9 23.2 259.7 23.4 C 259.5 23.6 259.2 23.7 258.8 23.7 Z M 263.5 23.1 C 263.1 23.5 262.7 23.7 262.1 23.7 C 261.8 23.7 261.5 23.6 261.2 23.4 C 260.9 23.2 260.8 22.9 260.8 22.5 C 260.8 22.5 260.8 22.5 260.8 22.5 C 260.8 22.2 260.9 21.9 261.2 21.7 C 261.5 21.5 261.9 21.4 262.3 21.4 C 262.7 21.4 263.1 21.4 263.5 21.5 C 263.5 21.5 263.5 21.4 263.5 21.4 C 263.5 21.1 263.4 20.8 263.2 20.7 C 263 20.5 262.7 20.4 262.4 20.4 C 262 20.4 261.6 20.5 261.3 20.7 C 261.3 20.7 261.1 20.2 261.1 20.2 C 261.5 20 262 19.9 262.4 19.9 C 262.9 19.9 263.3 20.1 263.6 20.3 C 263.8 20.6 264 20.9 264 21.4 C 263.97 21.39 264 23.6 264 23.6 L 263.5 23.6 L 263.5 23.1 C 263.5 23.1 263.46 23.05 263.5 23.1 Z M 262.3 23.2 C 262.6 23.2 262.9 23.2 263.1 23 C 263.3 22.8 263.5 22.6 263.5 22.3 C 263.5 22.3 263.5 21.9 263.5 21.9 C 263.1 21.8 262.7 21.8 262.4 21.8 C 262.1 21.8 261.8 21.8 261.6 22 C 261.4 22.1 261.3 22.3 261.3 22.5 C 261.3 22.5 261.3 22.5 261.3 22.5 C 261.3 22.7 261.4 22.9 261.6 23.1 C 261.8 23.2 262 23.2 262.3 23.2 Z M 265.1 23.6 L 265.1 20 L 265.7 20 C 265.7 20 265.66 20.93 265.7 20.9 C 265.8 20.6 266 20.4 266.3 20.2 C 266.5 20 266.8 19.9 267.1 19.9 C 267.14 19.92 267.1 20.5 267.1 20.5 C 267.1 20.5 267.1 20.5 267.1 20.5 C 266.7 20.5 266.3 20.6 266.1 20.9 C 265.8 21.2 265.7 21.6 265.7 22.2 C 265.66 22.16 265.7 23.6 265.7 23.6 L 265.1 23.6 Z M 268 23.6 L 268 20 L 268.5 20 L 268.5 23.6 L 268 23.6 Z M 269.8 23.6 L 269.8 20 L 270.3 20 C 270.3 20 270.34 20.59 270.3 20.6 C 270.5 20.4 270.6 20.2 270.8 20.1 C 271 20 271.2 19.9 271.5 19.9 C 272.1 19.9 272.4 20.1 272.7 20.6 C 273 20.1 273.4 19.9 273.9 19.9 C 274.4 19.9 274.7 20 274.9 20.3 C 275.2 20.6 275.3 20.9 275.3 21.4 C 275.29 21.36 275.3 23.6 275.3 23.6 L 274.7 23.6 C 274.7 23.6 274.75 21.49 274.7 21.5 C 274.7 21.1 274.7 20.9 274.5 20.7 C 274.3 20.5 274.1 20.4 273.8 20.4 C 273.5 20.4 273.3 20.5 273.1 20.7 C 272.9 20.9 272.8 21.2 272.8 21.5 C 272.81 21.51 272.8 23.6 272.8 23.6 L 272.3 23.6 C 272.3 23.6 272.28 21.47 272.3 21.5 C 272.3 21.1 272.2 20.9 272 20.7 C 271.9 20.5 271.6 20.4 271.3 20.4 C 271.1 20.4 270.8 20.5 270.6 20.7 C 270.4 20.9 270.3 21.2 270.3 21.5 C 270.34 21.53 270.3 23.6 270.3 23.6 L 269.8 23.6 Z M 276.4 20.7 L 276.4 20 L 277 20 L 277 20.7 L 276.4 20.7 Z M 276.4 23.6 L 276.4 22.9 L 277 22.9 L 277 23.6 L 276.4 23.6 Z M 281.7 23.6 L 281.7 19.2 L 280 19.2 L 280 18.7 L 283.9 18.7 L 283.9 19.2 L 282.2 19.2 L 282.2 23.6 L 281.7 23.6 Z M 284.7 23.6 L 284.7 18.5 L 285.3 18.5 C 285.3 18.5 285.25 20.61 285.3 20.6 C 285.5 20.1 286 19.9 286.5 19.9 C 286.9 19.9 287.3 20 287.5 20.3 C 287.8 20.6 287.9 20.9 287.9 21.4 C 287.88 21.35 287.9 23.6 287.9 23.6 L 287.3 23.6 C 287.3 23.6 287.34 21.49 287.3 21.5 C 287.3 21.1 287.3 20.9 287.1 20.7 C 286.9 20.5 286.7 20.4 286.3 20.4 C 286 20.4 285.8 20.5 285.6 20.7 C 285.4 20.9 285.3 21.2 285.3 21.5 C 285.25 21.53 285.3 23.6 285.3 23.6 L 284.7 23.6 Z M 290.7 23.7 C 290.1 23.7 289.7 23.5 289.3 23.1 C 289 22.8 288.8 22.3 288.8 21.8 C 288.8 21.8 288.8 21.8 288.8 21.8 C 288.8 21.3 289 20.8 289.3 20.5 C 289.7 20.1 290.2 19.9 290.7 19.9 C 291.2 19.9 291.7 20.1 292 20.5 C 292.4 20.8 292.6 21.3 292.6 21.8 C 292.6 21.8 292.6 21.8 292.6 21.8 C 292.6 22.3 292.4 22.8 292 23.1 C 291.7 23.5 291.2 23.7 290.7 23.7 Z M 290.7 23.2 C 291.1 23.2 291.4 23.1 291.6 22.8 C 291.9 22.5 292 22.2 292 21.8 C 292 21.8 292 21.8 292 21.8 C 292 21.4 291.9 21.1 291.6 20.8 C 291.4 20.5 291.1 20.4 290.7 20.4 C 290.3 20.4 290 20.5 289.7 20.8 C 289.5 21.1 289.4 21.4 289.4 21.8 C 289.4 21.8 289.4 21.8 289.4 21.8 C 289.4 22.2 289.5 22.5 289.7 22.8 C 290 23.1 290.3 23.2 290.7 23.2 Z M 293.5 23.6 L 293.5 20 L 294.1 20 C 294.1 20 294.09 20.59 294.1 20.6 C 294.2 20.4 294.4 20.2 294.6 20.1 C 294.7 20 295 19.9 295.3 19.9 C 295.8 19.9 296.2 20.1 296.4 20.6 C 296.7 20.1 297.2 19.9 297.7 19.9 C 298.1 19.9 298.4 20 298.7 20.3 C 298.9 20.6 299 20.9 299 21.4 C 299.04 21.36 299 23.6 299 23.6 L 298.5 23.6 C 298.5 23.6 298.5 21.49 298.5 21.5 C 298.5 21.1 298.4 20.9 298.2 20.7 C 298.1 20.5 297.9 20.4 297.6 20.4 C 297.3 20.4 297 20.5 296.8 20.7 C 296.7 20.9 296.6 21.2 296.6 21.5 C 296.56 21.51 296.6 23.6 296.6 23.6 L 296 23.6 C 296 23.6 296.03 21.47 296 21.5 C 296 21.1 295.9 20.9 295.8 20.7 C 295.6 20.5 295.4 20.4 295.1 20.4 C 294.8 20.4 294.6 20.5 294.4 20.7 C 294.2 20.9 294.1 21.2 294.1 21.5 C 294.09 21.53 294.1 23.6 294.1 23.6 L 293.5 23.6 Z M 302.6 23.1 C 302.3 23.5 301.8 23.7 301.3 23.7 C 300.9 23.7 300.6 23.6 300.3 23.4 C 300 23.2 299.9 22.9 299.9 22.5 C 299.9 22.5 299.9 22.5 299.9 22.5 C 299.9 22.2 300.1 21.9 300.3 21.7 C 300.6 21.5 301 21.4 301.5 21.4 C 301.8 21.4 302.2 21.4 302.6 21.5 C 302.6 21.5 302.6 21.4 302.6 21.4 C 302.6 21.1 302.5 20.8 302.3 20.7 C 302.1 20.5 301.8 20.4 301.5 20.4 C 301.1 20.4 300.8 20.5 300.4 20.7 C 300.4 20.7 300.2 20.2 300.2 20.2 C 300.7 20 301.1 19.9 301.5 19.9 C 302.1 19.9 302.5 20.1 302.7 20.3 C 303 20.6 303.1 20.9 303.1 21.4 C 303.09 21.39 303.1 23.6 303.1 23.6 L 302.6 23.6 L 302.6 23.1 C 302.6 23.1 302.57 23.05 302.6 23.1 Z M 301.4 23.2 C 301.7 23.2 302 23.2 302.2 23 C 302.5 22.8 302.6 22.6 302.6 22.3 C 302.6 22.3 302.6 21.9 302.6 21.9 C 302.2 21.8 301.9 21.8 301.5 21.8 C 301.2 21.8 300.9 21.8 300.7 22 C 300.5 22.1 300.5 22.3 300.5 22.5 C 300.5 22.5 300.5 22.5 300.5 22.5 C 300.5 22.7 300.5 22.9 300.7 23.1 C 300.9 23.2 301.1 23.2 301.4 23.2 Z M 305.4 23.7 C 304.9 23.7 304.4 23.5 303.9 23.1 C 303.9 23.1 304.2 22.8 304.2 22.8 C 304.6 23.1 305 23.2 305.5 23.2 C 305.7 23.2 305.9 23.2 306 23.1 C 306.1 23 306.2 22.8 306.2 22.6 C 306.2 22.6 306.2 22.6 306.2 22.6 C 306.2 22.5 306.1 22.3 306 22.2 C 305.8 22.2 305.6 22.1 305.3 22 C 305.2 22 305.1 21.9 305 21.9 C 305 21.9 304.9 21.8 304.8 21.8 C 304.6 21.8 304.6 21.7 304.5 21.7 C 304.4 21.6 304.4 21.6 304.3 21.5 C 304.2 21.4 304.2 21.4 304.2 21.3 C 304.1 21.2 304.1 21.1 304.1 21 C 304.1 21 304.1 21 304.1 21 C 304.1 20.6 304.2 20.4 304.5 20.2 C 304.7 20 305 19.9 305.3 19.9 C 305.8 19.9 306.2 20.1 306.6 20.3 C 306.6 20.3 306.4 20.7 306.4 20.7 C 306 20.5 305.7 20.4 305.3 20.4 C 305.1 20.4 304.9 20.4 304.8 20.5 C 304.7 20.6 304.6 20.7 304.6 20.9 C 304.6 20.9 304.6 20.9 304.6 20.9 C 304.6 21 304.6 21 304.7 21.1 C 304.7 21.1 304.8 21.2 304.8 21.2 C 304.9 21.3 304.9 21.3 305 21.4 C 305.1 21.4 305.2 21.4 305.3 21.4 C 305.3 21.5 305.4 21.5 305.6 21.5 C 305.7 21.6 305.8 21.6 305.9 21.6 C 306 21.7 306.1 21.7 306.2 21.8 C 306.3 21.8 306.4 21.9 306.5 22 C 306.5 22 306.6 22.1 306.7 22.2 C 306.7 22.3 306.7 22.4 306.7 22.6 C 306.7 22.6 306.7 22.6 306.7 22.6 C 306.7 22.9 306.6 23.2 306.4 23.4 C 306.1 23.6 305.8 23.7 305.4 23.7 Z M 309.9 23.6 L 309.9 18.7 C 309.9 18.7 311.61 18.7 311.6 18.7 C 312.4 18.7 313 18.9 313.5 19.4 C 314 19.9 314.2 20.4 314.2 21.1 C 314.2 21.1 314.2 21.1 314.2 21.1 C 314.2 21.8 314 22.4 313.5 22.9 C 313 23.4 312.4 23.6 311.6 23.6 C 311.61 23.6 309.9 23.6 309.9 23.6 Z M 311.6 19.2 C 311.61 19.21 310.5 19.2 310.5 19.2 L 310.5 23.1 C 310.5 23.1 311.61 23.09 311.6 23.1 C 312.2 23.1 312.7 22.9 313.1 22.5 C 313.5 22.2 313.6 21.7 313.6 21.2 C 313.6 21.2 313.6 21.1 313.6 21.1 C 313.6 20.6 313.5 20.1 313.1 19.8 C 312.7 19.4 312.2 19.2 311.6 19.2 Z M 317.9 23 C 317.6 23.4 317.2 23.7 316.6 23.7 C 316.2 23.7 315.9 23.5 315.6 23.3 C 315.4 23 315.2 22.7 315.2 22.2 C 315.24 22.23 315.2 20 315.2 20 L 315.8 20 C 315.8 20 315.78 22.09 315.8 22.1 C 315.8 22.4 315.9 22.7 316 22.9 C 316.2 23.1 316.5 23.2 316.8 23.2 C 317.1 23.2 317.4 23.1 317.6 22.9 C 317.8 22.7 317.9 22.4 317.9 22.1 C 317.87 22.05 317.9 20 317.9 20 L 318.4 20 L 318.4 23.6 L 317.9 23.6 L 317.9 23 C 317.9 23 317.87 22.97 317.9 23 Z M 322.5 22.9 C 322.1 23.4 321.7 23.7 321.1 23.7 C 320.7 23.7 320.3 23.5 319.9 23.2 C 319.6 22.8 319.4 22.4 319.4 21.8 C 319.4 21.8 319.4 21.8 319.4 21.8 C 319.4 21.2 319.6 20.8 319.9 20.4 C 320.3 20.1 320.7 19.9 321.1 19.9 C 321.7 19.9 322.2 20.2 322.5 20.7 C 322.51 20.67 322.5 18.5 322.5 18.5 L 323.1 18.5 L 323.1 23.6 L 322.5 23.6 L 322.5 22.9 C 322.5 22.9 322.51 22.87 322.5 22.9 Z M 321.2 23.2 C 321.6 23.2 321.9 23.1 322.1 22.8 C 322.4 22.5 322.5 22.2 322.5 21.8 C 322.5 21.8 322.5 21.8 322.5 21.8 C 322.5 21.4 322.4 21 322.1 20.8 C 321.9 20.5 321.6 20.4 321.2 20.4 C 320.9 20.4 320.6 20.5 320.3 20.8 C 320.1 21 320 21.4 320 21.8 C 320 21.8 320 21.8 320 21.8 C 320 22.2 320.1 22.6 320.3 22.8 C 320.6 23.1 320.9 23.2 321.2 23.2 Z M 324 23.6 L 324 23.3 L 326.4 20.4 L 324.1 20.4 L 324.1 20 L 327.2 20 L 327.2 20.3 L 324.8 23.1 L 327.2 23.1 L 327.2 23.6 L 324 23.6 Z M 328.2 19.2 L 328.2 18.6 L 328.8 18.6 L 328.8 19.2 L 328.2 19.2 Z M 328.2 23.6 L 328.2 20 L 328.7 20 L 328.7 23.6 L 328.2 23.6 Z M 330 23.6 L 330 20 L 330.5 20 C 330.5 20 330.53 20.61 330.5 20.6 C 330.8 20.1 331.2 19.9 331.8 19.9 C 332.2 19.9 332.5 20 332.8 20.3 C 333 20.6 333.2 20.9 333.2 21.4 C 333.15 21.35 333.2 23.6 333.2 23.6 L 332.6 23.6 C 332.6 23.6 332.61 21.49 332.6 21.5 C 332.6 21.1 332.5 20.9 332.4 20.7 C 332.2 20.5 331.9 20.4 331.6 20.4 C 331.3 20.4 331 20.5 330.8 20.7 C 330.6 20.9 330.5 21.2 330.5 21.5 C 330.53 21.53 330.5 23.6 330.5 23.6 L 330 23.6 Z M 335.5 23.7 C 334.9 23.7 334.4 23.5 334 23.1 C 334 23.1 334.3 22.8 334.3 22.8 C 334.7 23.1 335.1 23.2 335.5 23.2 C 335.8 23.2 335.9 23.2 336.1 23.1 C 336.2 23 336.3 22.8 336.3 22.6 C 336.3 22.6 336.3 22.6 336.3 22.6 C 336.3 22.5 336.2 22.3 336 22.2 C 335.9 22.2 335.7 22.1 335.4 22 C 335.2 22 335.1 21.9 335.1 21.9 C 335 21.9 334.9 21.8 334.8 21.8 C 334.7 21.8 334.6 21.7 334.6 21.7 C 334.5 21.6 334.4 21.6 334.4 21.5 C 334.3 21.4 334.3 21.4 334.2 21.3 C 334.2 21.2 334.2 21.1 334.2 21 C 334.2 21 334.2 21 334.2 21 C 334.2 20.6 334.3 20.4 334.5 20.2 C 334.8 20 335 19.9 335.4 19.9 C 335.9 19.9 336.3 20.1 336.7 20.3 C 336.7 20.3 336.5 20.7 336.5 20.7 C 336.1 20.5 335.7 20.4 335.4 20.4 C 335.2 20.4 335 20.4 334.9 20.5 C 334.8 20.6 334.7 20.7 334.7 20.9 C 334.7 20.9 334.7 20.9 334.7 20.9 C 334.7 21 334.7 21 334.7 21.1 C 334.8 21.1 334.8 21.2 334.9 21.2 C 334.9 21.3 335 21.3 335.1 21.4 C 335.2 21.4 335.3 21.4 335.3 21.4 C 335.4 21.5 335.5 21.5 335.6 21.5 C 335.8 21.6 335.9 21.6 336 21.6 C 336.1 21.7 336.2 21.7 336.3 21.8 C 336.4 21.8 336.5 21.9 336.5 22 C 336.6 22 336.7 22.1 336.7 22.2 C 336.8 22.3 336.8 22.4 336.8 22.6 C 336.8 22.6 336.8 22.6 336.8 22.6 C 336.8 22.9 336.7 23.2 336.4 23.4 C 336.2 23.6 335.9 23.7 335.5 23.7 Z M 337.8 23.6 L 337.8 18.5 L 338.3 18.5 L 338.3 22 L 340.3 20 L 341 20 L 339.4 21.5 L 341 23.6 L 340.4 23.6 L 339.1 21.9 L 338.3 22.7 L 338.3 23.6 L 337.8 23.6 Z M 341.8 19.2 L 341.8 18.6 L 342.4 18.6 L 342.4 19.2 L 341.8 19.2 Z M 341.8 23.6 L 341.8 20 L 342.4 20 L 342.4 23.6 L 341.8 23.6 Z " stroke="none" fill="#000"/>  </g>  <g id="Polygon395467">    <path d="M 0.6 5.6 L 0.6 0.7 C 0.6 0.7 2.59 0.7 2.6 0.7 C 3.2 0.7 3.6 0.9 4 1.2 C 4.3 1.5 4.5 1.9 4.5 2.4 C 4.5 2.4 4.5 2.4 4.5 2.4 C 4.5 3 4.3 3.4 3.9 3.7 C 3.5 4 3.1 4.1 2.5 4.1 C 2.49 4.13 1.7 4.1 1.7 4.1 L 1.7 5.6 L 0.6 5.6 Z M 1.7 3.2 C 1.7 3.2 2.52 3.17 2.5 3.2 C 2.8 3.2 3 3.1 3.1 3 C 3.3 2.8 3.4 2.6 3.4 2.4 C 3.4 2.4 3.4 2.4 3.4 2.4 C 3.4 2.2 3.3 2 3.1 1.9 C 3 1.7 2.8 1.7 2.5 1.7 C 2.5 1.67 1.7 1.7 1.7 1.7 L 1.7 3.2 Z M 8.4 5 C 8.1 5.5 7.5 5.7 6.9 5.7 C 6.3 5.7 5.9 5.5 5.5 5.1 C 5.1 4.8 4.9 4.3 4.9 3.7 C 4.9 3.7 4.9 3.7 4.9 3.7 C 4.9 3.2 5.1 2.7 5.5 2.3 C 5.8 2 6.3 1.8 6.8 1.8 C 7.4 1.8 7.8 2 8.1 2.4 C 8.5 2.8 8.6 3.2 8.6 3.8 C 8.6 3.9 8.6 4 8.6 4.1 C 8.6 4.1 6 4.1 6 4.1 C 6 4.3 6.1 4.5 6.3 4.6 C 6.5 4.8 6.7 4.8 6.9 4.8 C 7.2 4.8 7.5 4.7 7.8 4.4 C 7.82 4.44 8.4 5 8.4 5 C 8.4 5 8.43 4.98 8.4 5 Z M 6 3.4 C 6 3.4 7.6 3.4 7.6 3.4 C 7.5 3.2 7.5 3 7.3 2.8 C 7.2 2.7 7 2.6 6.8 2.6 C 6.6 2.6 6.4 2.7 6.3 2.8 C 6.1 3 6 3.2 6 3.4 Z M 12.1 5.1 C 11.8 5.5 11.4 5.7 10.9 5.7 C 10.5 5.7 10.1 5.5 9.7 5.1 C 9.4 4.8 9.2 4.3 9.2 3.7 C 9.2 3.7 9.2 3.7 9.2 3.7 C 9.2 3.1 9.4 2.6 9.7 2.3 C 10.1 2 10.5 1.8 10.9 1.8 C 11.4 1.8 11.8 2 12.1 2.3 C 12.12 2.34 12.1 0.5 12.1 0.5 L 13.2 0.5 L 13.2 5.6 L 12.1 5.6 L 12.1 5.1 C 12.1 5.1 12.12 5.06 12.1 5.1 Z M 10.3 3.7 C 10.3 4 10.4 4.3 10.6 4.5 C 10.7 4.7 11 4.8 11.2 4.8 C 11.5 4.8 11.7 4.7 11.9 4.5 C 12 4.3 12.1 4 12.1 3.7 C 12.1 3.7 12.1 3.7 12.1 3.7 C 12.1 3.4 12 3.2 11.9 3 C 11.7 2.8 11.5 2.7 11.2 2.7 C 11 2.7 10.7 2.8 10.6 3 C 10.4 3.2 10.3 3.4 10.3 3.7 C 10.3 3.72 10.3 3.7 10.3 3.7 C 10.3 3.7 10.3 3.73 10.3 3.7 Z M 16.3 5.2 C 16 5.5 15.7 5.7 15.2 5.7 C 14.8 5.7 14.5 5.6 14.3 5.4 C 14 5.2 13.9 4.9 13.9 4.5 C 13.9 4.5 13.9 4.5 13.9 4.5 C 13.9 4.1 14 3.8 14.3 3.6 C 14.6 3.4 15 3.3 15.4 3.3 C 15.7 3.3 16 3.4 16.3 3.5 C 16.3 3.5 16.3 3.4 16.3 3.4 C 16.3 2.9 16.1 2.7 15.5 2.7 C 15.2 2.7 14.8 2.8 14.5 2.9 C 14.5 2.9 14.2 2.1 14.2 2.1 C 14.7 1.9 15.2 1.8 15.7 1.8 C 16.3 1.8 16.7 1.9 17 2.2 C 17.2 2.5 17.4 2.9 17.4 3.4 C 17.36 3.42 17.4 5.6 17.4 5.6 L 16.3 5.6 L 16.3 5.2 C 16.3 5.2 16.33 5.19 16.3 5.2 Z M 15.5 4.9 C 15.8 4.9 16 4.9 16.1 4.8 C 16.3 4.6 16.4 4.5 16.4 4.3 C 16.4 4.3 16.4 4.1 16.4 4.1 C 16.1 4 15.9 3.9 15.7 3.9 C 15.4 3.9 15.3 4 15.1 4.1 C 15 4.2 14.9 4.3 14.9 4.5 C 14.9 4.5 14.9 4.5 14.9 4.5 C 14.9 4.6 15 4.7 15.1 4.8 C 15.2 4.9 15.3 4.9 15.5 4.9 Z M 18.3 5.6 L 18.3 0.5 L 19.4 0.5 L 19.4 5.6 L 18.3 5.6 Z M 20.4 5.6 L 20.4 0.5 L 21.5 0.5 L 21.5 5.6 L 20.4 5.6 Z M 22.6 5.6 L 22.6 1.8 L 23.6 1.8 L 23.6 5.6 L 22.6 5.6 Z M 28.9 6.8 L 28 6.4 C 28 6.4 28.52 5.61 28.5 5.6 C 28 5.5 27.5 5.2 27.1 4.7 C 26.8 4.3 26.6 3.8 26.6 3.2 C 26.6 3.2 26.6 3.1 26.6 3.1 C 26.6 2.4 26.9 1.8 27.3 1.4 C 27.8 0.9 28.4 0.6 29.2 0.6 C 30 0.6 30.6 0.9 31.1 1.4 C 31.1 1.4 30.4 2.2 30.4 2.2 C 30 1.8 29.6 1.6 29.2 1.6 C 28.8 1.6 28.4 1.8 28.1 2.1 C 27.9 2.4 27.7 2.7 27.7 3.1 C 27.7 3.1 27.7 3.1 27.7 3.1 C 27.7 3.6 27.9 3.9 28.1 4.2 C 28.4 4.5 28.8 4.7 29.2 4.7 C 29.4 4.7 29.7 4.6 29.8 4.5 C 30 4.5 30.2 4.3 30.4 4.1 C 30.4 4.1 31.1 4.8 31.1 4.8 C 30.6 5.4 30 5.6 29.3 5.7 C 29.31 5.68 28.9 6.8 28.9 6.8 Z M 33.7 5.7 C 33.1 5.7 32.6 5.5 32.2 5.1 C 31.8 4.8 31.6 4.3 31.6 3.7 C 31.6 3.7 31.6 3.7 31.6 3.7 C 31.6 3.2 31.8 2.7 32.2 2.3 C 32.6 2 33.1 1.8 33.7 1.8 C 34.2 1.8 34.7 2 35.1 2.3 C 35.5 2.7 35.7 3.2 35.7 3.7 C 35.7 3.7 35.7 3.7 35.7 3.7 C 35.7 4.3 35.5 4.7 35.1 5.1 C 34.7 5.5 34.2 5.7 33.7 5.7 Z M 33.7 4.8 C 34 4.8 34.2 4.7 34.4 4.5 C 34.6 4.3 34.6 4 34.6 3.7 C 34.6 3.7 34.6 3.7 34.6 3.7 C 34.6 3.4 34.6 3.2 34.4 3 C 34.2 2.8 33.9 2.7 33.7 2.7 C 33.4 2.7 33.1 2.8 32.9 3 C 32.8 3.2 32.7 3.4 32.7 3.7 C 32.7 3.7 32.7 3.7 32.7 3.7 C 32.7 4 32.8 4.3 33 4.5 C 33.1 4.7 33.4 4.8 33.7 4.8 Z M 33.9 1.4 L 33.9 0.5 L 34.9 0.5 L 34.9 1.4 L 33.9 1.4 Z M 32.4 1.4 L 32.4 0.5 L 33.4 0.5 L 33.4 1.4 L 32.4 1.4 Z M 36.5 6.7 L 36.5 1.8 L 37.5 1.8 C 37.5 1.8 37.53 2.39 37.5 2.4 C 37.8 2 38.2 1.8 38.7 1.8 C 39.2 1.8 39.6 2 39.9 2.3 C 40.2 2.6 40.4 3.1 40.4 3.7 C 40.4 3.7 40.4 3.7 40.4 3.7 C 40.4 4.3 40.2 4.8 39.9 5.1 C 39.6 5.5 39.2 5.7 38.7 5.7 C 38.2 5.7 37.8 5.5 37.5 5.1 C 37.53 5.11 37.5 6.7 37.5 6.7 L 36.5 6.7 Z M 37.5 3.7 C 37.5 4 37.6 4.3 37.8 4.5 C 37.9 4.7 38.2 4.8 38.4 4.8 C 38.7 4.8 38.9 4.7 39.1 4.5 C 39.3 4.3 39.3 4 39.3 3.7 C 39.3 3.7 39.3 3.7 39.3 3.7 C 39.3 3.4 39.3 3.2 39.1 3 C 38.9 2.8 38.7 2.7 38.4 2.7 C 38.2 2.7 37.9 2.8 37.8 3 C 37.6 3.2 37.5 3.4 37.5 3.7 C 37.51 3.72 37.5 3.7 37.5 3.7 C 37.5 3.7 37.51 3.73 37.5 3.7 Z M 43.4 5.6 L 43.4 0.7 L 44.5 0.7 L 44.5 2.8 L 46.5 0.7 L 47.8 0.7 L 45.8 2.8 L 47.9 5.6 L 46.6 5.6 L 45 3.5 L 44.5 4.1 L 44.5 5.6 L 43.4 5.6 Z M 50 5.7 C 49.5 5.7 49 5.5 48.6 5.1 C 48.2 4.8 48 4.3 48 3.7 C 48 3.7 48 3.7 48 3.7 C 48 3.2 48.2 2.7 48.6 2.3 C 49 2 49.5 1.8 50 1.8 C 50.6 1.8 51.1 2 51.5 2.3 C 51.9 2.7 52.1 3.2 52.1 3.7 C 52.1 3.7 52.1 3.7 52.1 3.7 C 52.1 4.3 51.9 4.7 51.5 5.1 C 51.1 5.5 50.6 5.7 50 5.7 Z M 50 4.8 C 50.3 4.8 50.6 4.7 50.7 4.5 C 50.9 4.3 51 4 51 3.7 C 51 3.7 51 3.7 51 3.7 C 51 3.4 50.9 3.2 50.7 3 C 50.6 2.8 50.3 2.7 50 2.7 C 49.7 2.7 49.5 2.8 49.3 3 C 49.1 3.2 49.1 3.4 49.1 3.7 C 49.1 3.7 49.1 3.7 49.1 3.7 C 49.1 4 49.1 4.3 49.3 4.5 C 49.5 4.7 49.8 4.8 50 4.8 Z M 53.8 5.6 L 52.3 1.8 L 53.4 1.8 L 54.3 4.4 L 55.1 1.8 L 56.2 1.8 L 54.7 5.6 L 53.8 5.6 Z M 58.8 5.2 C 58.6 5.5 58.2 5.7 57.7 5.7 C 57.3 5.7 57 5.6 56.8 5.4 C 56.5 5.2 56.4 4.9 56.4 4.5 C 56.4 4.5 56.4 4.5 56.4 4.5 C 56.4 4.1 56.6 3.8 56.8 3.6 C 57.1 3.4 57.5 3.3 57.9 3.3 C 58.2 3.3 58.5 3.4 58.9 3.5 C 58.9 3.5 58.9 3.4 58.9 3.4 C 58.9 2.9 58.6 2.7 58.1 2.7 C 57.7 2.7 57.4 2.8 57 2.9 C 57 2.9 56.7 2.1 56.7 2.1 C 57.2 1.9 57.7 1.8 58.2 1.8 C 58.8 1.8 59.2 1.9 59.5 2.2 C 59.7 2.5 59.9 2.9 59.9 3.4 C 59.88 3.42 59.9 5.6 59.9 5.6 L 58.8 5.6 L 58.8 5.2 C 58.8 5.2 58.85 5.19 58.8 5.2 Z M 58 4.9 C 58.3 4.9 58.5 4.9 58.6 4.8 C 58.8 4.6 58.9 4.5 58.9 4.3 C 58.9 4.3 58.9 4.1 58.9 4.1 C 58.7 4 58.4 3.9 58.2 3.9 C 58 3.9 57.8 4 57.7 4.1 C 57.5 4.2 57.5 4.3 57.5 4.5 C 57.5 4.5 57.5 4.5 57.5 4.5 C 57.5 4.6 57.5 4.7 57.6 4.8 C 57.7 4.9 57.9 4.9 58 4.9 Z M 62.1 5.7 C 61.5 5.7 61 5.5 60.5 5.1 C 60.5 5.1 61 4.4 61 4.4 C 61.4 4.7 61.8 4.9 62.1 4.9 C 62.4 4.9 62.6 4.8 62.6 4.6 C 62.6 4.6 62.6 4.6 62.6 4.6 C 62.6 4.5 62.6 4.5 62.6 4.5 C 62.6 4.4 62.5 4.4 62.5 4.4 C 62.5 4.4 62.4 4.4 62.4 4.3 C 62.4 4.3 62.3 4.3 62.3 4.3 C 62.2 4.3 62.2 4.2 62.1 4.2 C 62.1 4.2 62.1 4.2 62 4.2 C 61.9 4.2 61.9 4.1 61.8 4.1 C 61.7 4.1 61.5 4 61.4 4 C 61.3 3.9 61.2 3.9 61.1 3.8 C 60.9 3.7 60.8 3.6 60.8 3.5 C 60.7 3.3 60.7 3.2 60.7 3 C 60.7 3 60.7 3 60.7 3 C 60.7 2.6 60.8 2.3 61.1 2.1 C 61.3 1.9 61.7 1.8 62.1 1.8 C 62.6 1.8 63 1.9 63.5 2.2 C 63.5 2.2 63.1 3 63.1 3 C 62.7 2.7 62.3 2.6 62 2.6 C 61.9 2.6 61.8 2.6 61.7 2.7 C 61.7 2.7 61.6 2.8 61.6 2.9 C 61.6 2.9 61.6 2.9 61.6 2.9 C 61.6 3 61.7 3 61.8 3.1 C 62 3.2 62.2 3.3 62.4 3.3 C 62.6 3.4 62.7 3.4 62.8 3.5 C 62.9 3.5 63 3.6 63.2 3.7 C 63.3 3.8 63.4 3.9 63.4 4 C 63.5 4.1 63.5 4.3 63.5 4.4 C 63.5 4.4 63.5 4.5 63.5 4.5 C 63.5 4.9 63.4 5.2 63.1 5.4 C 62.9 5.6 62.5 5.7 62.1 5.7 Z M 64.4 5.6 L 64.4 1.8 L 65.4 1.8 L 65.4 5.6 L 64.4 5.6 Z M 68.4 3.9 L 68.4 2.9 L 71.4 2.9 L 71.4 3.9 L 68.4 3.9 Z M 74.4 5.6 L 74.4 0.7 L 75.4 0.7 L 77.7 3.7 L 77.7 0.7 L 78.8 0.7 L 78.8 5.6 L 77.9 5.6 L 75.5 2.5 L 75.5 5.6 L 74.4 5.6 Z M 81.7 5.7 C 81.1 5.7 80.6 5.5 80.2 5.1 C 79.9 4.8 79.7 4.3 79.7 3.7 C 79.7 3.7 79.7 3.7 79.7 3.7 C 79.7 3.2 79.9 2.7 80.3 2.3 C 80.6 2 81.1 1.8 81.7 1.8 C 82.3 1.8 82.8 2 83.1 2.3 C 83.5 2.7 83.7 3.2 83.7 3.7 C 83.7 3.7 83.7 3.7 83.7 3.7 C 83.7 4.3 83.5 4.7 83.1 5.1 C 82.8 5.5 82.3 5.7 81.7 5.7 Z M 81.7 4.8 C 82 4.8 82.2 4.7 82.4 4.5 C 82.6 4.3 82.7 4 82.7 3.7 C 82.7 3.7 82.7 3.7 82.7 3.7 C 82.7 3.4 82.6 3.2 82.4 3 C 82.2 2.8 82 2.7 81.7 2.7 C 81.4 2.7 81.2 2.8 81 3 C 80.8 3.2 80.7 3.4 80.7 3.7 C 80.7 3.7 80.7 3.7 80.7 3.7 C 80.7 4 80.8 4.3 81 4.5 C 81.2 4.7 81.4 4.8 81.7 4.8 Z M 85.4 5.6 L 83.9 1.8 L 85.1 1.8 L 85.9 4.4 L 86.8 1.8 L 87.9 1.8 L 86.4 5.6 L 85.4 5.6 Z M 90.5 5.2 C 90.2 5.5 89.8 5.7 89.4 5.7 C 89 5.7 88.7 5.6 88.5 5.4 C 88.2 5.2 88.1 4.9 88.1 4.5 C 88.1 4.5 88.1 4.5 88.1 4.5 C 88.1 4.1 88.2 3.8 88.5 3.6 C 88.8 3.4 89.1 3.3 89.6 3.3 C 89.9 3.3 90.2 3.4 90.5 3.5 C 90.5 3.5 90.5 3.4 90.5 3.4 C 90.5 2.9 90.2 2.7 89.7 2.7 C 89.4 2.7 89 2.8 88.7 2.9 C 88.7 2.9 88.4 2.1 88.4 2.1 C 88.9 1.9 89.4 1.8 89.9 1.8 C 90.4 1.8 90.9 1.9 91.1 2.2 C 91.4 2.5 91.5 2.9 91.5 3.4 C 91.54 3.42 91.5 5.6 91.5 5.6 L 90.5 5.6 L 90.5 5.2 C 90.5 5.2 90.51 5.19 90.5 5.2 Z M 89.7 4.9 C 89.9 4.9 90.2 4.9 90.3 4.8 C 90.5 4.6 90.5 4.5 90.5 4.3 C 90.5 4.3 90.5 4.1 90.5 4.1 C 90.3 4 90.1 3.9 89.9 3.9 C 89.6 3.9 89.4 4 89.3 4.1 C 89.2 4.2 89.1 4.3 89.1 4.5 C 89.1 4.5 89.1 4.5 89.1 4.5 C 89.1 4.6 89.2 4.7 89.3 4.8 C 89.4 4.9 89.5 4.9 89.7 4.9 Z " stroke="none" fill="#000"/>  </g></svg>