<?xml version="1.0" standalone="no"?><!DOCTYPE svg PUBLIC "-//W3C//DTD SVG 1.1//EN" "http://www.w3.org/Graphics/SVG/1.1/DTD/svg11.dtd"><svg xmlns="http://www.w3.org/2000/svg" version="1.1" width="150px" height="83.4px" viewBox="0 -3 150 83.4" style="top:-3px">  <desc>K rm z arap Barda r n Kodu: ZD 24439 A zla flenmi kur unsuz kristal cam D 8,65 cm, H 22 cm, 40 cl 6’l Set Ta...</desc>  <defs/>  <g id="Polygon363610">    <path d="M 2 71.2 L 2 66.8 L 0.3 66.8 L 0.3 66.3 L 4.2 66.3 L 4.2 66.8 L 2.5 66.8 L 2.5 71.2 L 2 71.2 Z M 6.6 70.7 C 6.3 71.1 5.9 71.3 5.3 71.3 C 4.9 71.3 4.6 71.2 4.4 71 C 4.1 70.8 4 70.5 4 70.1 C 4 70.1 4 70.1 4 70.1 C 4 69.8 4.1 69.5 4.4 69.3 C 4.7 69.1 5 69 5.5 69 C 5.9 69 6.2 69 6.6 69.1 C 6.6 69.1 6.6 69 6.6 69 C 6.6 68.7 6.5 68.4 6.3 68.3 C 6.1 68.1 5.9 68 5.5 68 C 5.2 68 4.8 68.1 4.4 68.3 C 4.4 68.3 4.3 67.8 4.3 67.8 C 4.7 67.6 5.1 67.5 5.6 67.5 C 6.1 67.5 6.5 67.7 6.8 67.9 C 7 68.2 7.1 68.5 7.1 69 C 7.13 68.99 7.1 71.2 7.1 71.2 L 6.6 71.2 L 6.6 70.7 C 6.6 70.7 6.62 70.65 6.6 70.7 Z M 5.4 70.8 C 5.8 70.8 6 70.8 6.3 70.6 C 6.5 70.4 6.6 70.2 6.6 69.9 C 6.6 69.9 6.6 69.5 6.6 69.5 C 6.3 69.4 5.9 69.4 5.6 69.4 C 5.2 69.4 5 69.4 4.8 69.6 C 4.6 69.7 4.5 69.9 4.5 70.1 C 4.5 70.1 4.5 70.1 4.5 70.1 C 4.5 70.3 4.6 70.5 4.8 70.7 C 4.9 70.8 5.2 70.8 5.4 70.8 Z M 9.5 71.3 C 8.9 71.3 8.4 71.1 8 70.7 C 8 70.7 8.3 70.4 8.3 70.4 C 8.7 70.7 9.1 70.8 9.5 70.8 C 9.7 70.8 9.9 70.8 10 70.7 C 10.2 70.6 10.3 70.4 10.3 70.2 C 10.3 70.2 10.3 70.2 10.3 70.2 C 10.3 70.1 10.2 69.9 10 69.8 C 9.9 69.8 9.6 69.7 9.4 69.6 C 9.2 69.6 9.1 69.5 9.1 69.5 C 9 69.5 8.9 69.4 8.8 69.4 C 8.7 69.4 8.6 69.3 8.5 69.3 C 8.5 69.2 8.4 69.2 8.3 69.1 C 8.3 69 8.2 69 8.2 68.9 C 8.2 68.8 8.2 68.7 8.2 68.6 C 8.2 68.6 8.2 68.6 8.2 68.6 C 8.2 68.2 8.3 68 8.5 67.8 C 8.7 67.6 9 67.5 9.4 67.5 C 9.9 67.5 10.3 67.7 10.7 67.9 C 10.7 67.9 10.4 68.3 10.4 68.3 C 10.1 68.1 9.7 68 9.4 68 C 9.2 68 9 68 8.9 68.1 C 8.7 68.2 8.7 68.3 8.7 68.5 C 8.7 68.5 8.7 68.5 8.7 68.5 C 8.7 68.6 8.7 68.6 8.7 68.7 C 8.8 68.7 8.8 68.8 8.9 68.8 C 8.9 68.9 9 68.9 9.1 69 C 9.2 69 9.3 69 9.3 69 C 9.4 69.1 9.5 69.1 9.6 69.1 C 9.7 69.2 9.9 69.2 9.9 69.2 C 10 69.3 10.1 69.3 10.3 69.4 C 10.4 69.4 10.5 69.5 10.5 69.6 C 10.6 69.6 10.6 69.7 10.7 69.8 C 10.7 69.9 10.8 70 10.8 70.2 C 10.8 70.2 10.8 70.2 10.8 70.2 C 10.8 70.5 10.6 70.8 10.4 71 C 10.2 71.2 9.9 71.3 9.5 71.3 Z M 14.2 70.7 C 13.8 71.1 13.4 71.3 12.8 71.3 C 12.5 71.3 12.2 71.2 11.9 71 C 11.6 70.8 11.5 70.5 11.5 70.1 C 11.5 70.1 11.5 70.1 11.5 70.1 C 11.5 69.8 11.6 69.5 11.9 69.3 C 12.2 69.1 12.6 69 13 69 C 13.4 69 13.8 69 14.2 69.1 C 14.2 69.1 14.2 69 14.2 69 C 14.2 68.7 14.1 68.4 13.9 68.3 C 13.7 68.1 13.4 68 13.1 68 C 12.7 68 12.3 68.1 12 68.3 C 12 68.3 11.8 67.8 11.8 67.8 C 12.2 67.6 12.7 67.5 13.1 67.5 C 13.6 67.5 14 67.7 14.3 67.9 C 14.5 68.2 14.7 68.5 14.7 69 C 14.67 68.99 14.7 71.2 14.7 71.2 L 14.2 71.2 L 14.2 70.7 C 14.2 70.7 14.15 70.65 14.2 70.7 Z M 12.9 70.8 C 13.3 70.8 13.6 70.8 13.8 70.6 C 14 70.4 14.2 70.2 14.2 69.9 C 14.2 69.9 14.2 69.5 14.2 69.5 C 13.8 69.4 13.4 69.4 13.1 69.4 C 12.8 69.4 12.5 69.4 12.3 69.6 C 12.1 69.7 12 69.9 12 70.1 C 12 70.1 12 70.1 12 70.1 C 12 70.3 12.1 70.5 12.3 70.7 C 12.5 70.8 12.7 70.8 12.9 70.8 Z M 15.8 71.2 L 15.8 67.6 L 16.4 67.6 C 16.4 67.6 16.36 68.53 16.4 68.5 C 16.5 68.2 16.7 68 17 67.8 C 17.2 67.6 17.5 67.5 17.8 67.5 C 17.84 67.52 17.8 68.1 17.8 68.1 C 17.8 68.1 17.79 68.1 17.8 68.1 C 17.4 68.1 17 68.2 16.8 68.5 C 16.5 68.8 16.4 69.2 16.4 69.8 C 16.36 69.76 16.4 71.2 16.4 71.2 L 15.8 71.2 Z M 18.7 71.2 L 18.7 67.6 L 19.2 67.6 L 19.2 71.2 L 18.7 71.2 Z M 20.5 71.2 L 20.5 67.6 L 21 67.6 C 21 67.6 21.03 68.19 21 68.2 C 21.2 68 21.3 67.8 21.5 67.7 C 21.7 67.6 21.9 67.5 22.2 67.5 C 22.8 67.5 23.1 67.7 23.4 68.2 C 23.7 67.7 24.1 67.5 24.6 67.5 C 25.1 67.5 25.4 67.6 25.6 67.9 C 25.9 68.2 26 68.5 26 69 C 25.98 68.96 26 71.2 26 71.2 L 25.4 71.2 C 25.4 71.2 25.45 69.09 25.4 69.1 C 25.4 68.7 25.4 68.5 25.2 68.3 C 25 68.1 24.8 68 24.5 68 C 24.2 68 24 68.1 23.8 68.3 C 23.6 68.5 23.5 68.8 23.5 69.1 C 23.51 69.11 23.5 71.2 23.5 71.2 L 23 71.2 C 23 71.2 22.97 69.07 23 69.1 C 23 68.7 22.9 68.5 22.7 68.3 C 22.6 68.1 22.3 68 22 68 C 21.8 68 21.5 68.1 21.3 68.3 C 21.1 68.5 21 68.8 21 69.1 C 21.03 69.13 21 71.2 21 71.2 L 20.5 71.2 Z M 27.1 68.3 L 27.1 67.6 L 27.7 67.6 L 27.7 68.3 L 27.1 68.3 Z M 27.1 71.2 L 27.1 70.5 L 27.7 70.5 L 27.7 71.2 L 27.1 71.2 Z M 31.1 71.2 L 31.1 66.3 L 31.7 66.3 L 33.4 69 L 35.2 66.3 L 35.8 66.3 L 35.8 71.2 L 35.2 71.2 L 35.2 67.2 L 33.5 69.9 L 33.4 69.9 L 31.6 67.2 L 31.6 71.2 L 31.1 71.2 Z M 39.5 70.7 C 39.2 71.1 38.7 71.3 38.2 71.3 C 37.8 71.3 37.5 71.2 37.2 71 C 36.9 70.8 36.8 70.5 36.8 70.1 C 36.8 70.1 36.8 70.1 36.8 70.1 C 36.8 69.8 37 69.5 37.2 69.3 C 37.5 69.1 37.9 69 38.4 69 C 38.7 69 39.1 69 39.5 69.1 C 39.5 69.1 39.5 69 39.5 69 C 39.5 68.7 39.4 68.4 39.2 68.3 C 39 68.1 38.7 68 38.4 68 C 38 68 37.7 68.1 37.3 68.3 C 37.3 68.3 37.1 67.8 37.1 67.8 C 37.6 67.6 38 67.5 38.5 67.5 C 39 67.5 39.4 67.7 39.6 67.9 C 39.9 68.2 40 68.5 40 69 C 39.99 68.99 40 71.2 40 71.2 L 39.5 71.2 L 39.5 70.7 C 39.5 70.7 39.47 70.65 39.5 70.7 Z M 38.3 70.8 C 38.6 70.8 38.9 70.8 39.1 70.6 C 39.4 70.4 39.5 70.2 39.5 69.9 C 39.5 69.9 39.5 69.5 39.5 69.5 C 39.1 69.4 38.8 69.4 38.4 69.4 C 38.1 69.4 37.8 69.4 37.6 69.6 C 37.5 69.7 37.4 69.9 37.4 70.1 C 37.4 70.1 37.4 70.1 37.4 70.1 C 37.4 70.3 37.4 70.5 37.6 70.7 C 37.8 70.8 38 70.8 38.3 70.8 Z M 42.2 71.2 L 40.6 67.6 L 41.2 67.6 L 42.5 70.6 L 43.7 67.6 L 44.3 67.6 L 42.7 71.2 L 42.2 71.2 Z M 45.1 71.2 L 45.1 67.6 L 45.6 67.6 C 45.6 67.6 45.65 68.53 45.6 68.5 C 45.8 68.2 46 68 46.2 67.8 C 46.5 67.6 46.8 67.5 47.1 67.5 C 47.12 67.52 47.1 68.1 47.1 68.1 C 47.1 68.1 47.08 68.1 47.1 68.1 C 46.7 68.1 46.3 68.2 46.1 68.5 C 45.8 68.8 45.6 69.2 45.6 69.8 C 45.65 69.76 45.6 71.2 45.6 71.2 L 45.1 71.2 Z M 49.4 71.3 C 48.9 71.3 48.5 71.1 48.1 70.7 C 47.7 70.4 47.6 69.9 47.6 69.4 C 47.6 69.4 47.6 69.4 47.6 69.4 C 47.6 68.9 47.7 68.4 48.1 68.1 C 48.5 67.7 48.9 67.5 49.5 67.5 C 50 67.5 50.4 67.7 50.8 68.1 C 51.2 68.4 51.3 68.9 51.3 69.4 C 51.3 69.4 51.3 69.4 51.3 69.4 C 51.3 69.9 51.2 70.4 50.8 70.7 C 50.4 71.1 50 71.3 49.4 71.3 Z M 49.5 70.8 C 49.8 70.8 50.2 70.7 50.4 70.4 C 50.7 70.1 50.8 69.8 50.8 69.4 C 50.8 69.4 50.8 69.4 50.8 69.4 C 50.8 69 50.7 68.7 50.4 68.4 C 50.1 68.1 49.8 68 49.4 68 C 49.1 68 48.7 68.1 48.5 68.4 C 48.2 68.7 48.1 69 48.1 69.4 C 48.1 69.4 48.1 69.4 48.1 69.4 C 48.1 69.8 48.2 70.1 48.5 70.4 C 48.8 70.7 49.1 70.8 49.5 70.8 Z M 52.4 71.2 L 52.4 66.1 L 52.9 66.1 L 52.9 71.2 L 52.4 71.2 Z M 53.4 72.1 L 56.7 65.6 L 57.1 65.6 L 53.9 72.1 L 53.4 72.1 Z M 57.8 71.2 L 57.8 66.3 L 58.4 66.3 L 58.4 70.7 L 61.1 70.7 L 61.1 71.2 L 57.8 71.2 Z M 65 70.6 C 64.6 71.1 64.2 71.3 63.6 71.3 C 63 71.3 62.6 71.1 62.3 70.8 C 61.9 70.4 61.7 70 61.7 69.4 C 61.7 69.4 61.7 69.4 61.7 69.4 C 61.7 68.9 61.9 68.4 62.2 68 C 62.6 67.7 63 67.5 63.5 67.5 C 64 67.5 64.4 67.7 64.7 68 C 65 68.4 65.2 68.9 65.2 69.4 C 65.2 69.5 65.2 69.5 65.2 69.6 C 65.2 69.6 62.3 69.6 62.3 69.6 C 62.3 70 62.5 70.3 62.7 70.5 C 62.9 70.7 63.2 70.8 63.6 70.8 C 64 70.8 64.4 70.6 64.7 70.3 C 64.71 70.3 65 70.6 65 70.6 C 65 70.6 65.04 70.6 65 70.6 Z M 62.3 69.2 C 62.3 69.2 64.6 69.2 64.6 69.2 C 64.6 68.8 64.5 68.5 64.3 68.3 C 64.1 68.1 63.8 68 63.5 68 C 63.2 68 62.9 68.1 62.7 68.3 C 62.5 68.5 62.3 68.8 62.3 69.2 Z M 66.3 71.2 L 66.3 68.1 L 65.8 68.1 L 65.8 67.6 L 66.3 67.6 C 66.3 67.6 66.32 67.27 66.3 67.3 C 66.3 66.9 66.4 66.6 66.6 66.3 C 66.8 66.2 67.1 66.1 67.4 66.1 C 67.6 66.1 67.8 66.1 68 66.2 C 68 66.2 68 66.6 68 66.6 C 67.8 66.6 67.6 66.5 67.5 66.5 C 67.1 66.5 66.8 66.8 66.8 67.3 C 66.85 67.3 66.8 67.6 66.8 67.6 L 68 67.6 L 68 68.1 L 66.9 68.1 L 66.9 71.2 L 66.3 71.2 Z M 71.7 70.6 C 71.3 71.1 70.8 71.3 70.2 71.3 C 69.7 71.3 69.3 71.1 68.9 70.8 C 68.6 70.4 68.4 70 68.4 69.4 C 68.4 69.4 68.4 69.4 68.4 69.4 C 68.4 68.9 68.6 68.4 68.9 68 C 69.2 67.7 69.6 67.5 70.1 67.5 C 70.6 67.5 71.1 67.7 71.4 68 C 71.7 68.4 71.8 68.9 71.8 69.4 C 71.8 69.5 71.8 69.5 71.8 69.6 C 71.8 69.6 68.9 69.6 68.9 69.6 C 69 70 69.1 70.3 69.4 70.5 C 69.6 70.7 69.9 70.8 70.2 70.8 C 70.6 70.8 71 70.6 71.4 70.3 C 71.35 70.3 71.7 70.6 71.7 70.6 C 71.7 70.6 71.69 70.6 71.7 70.6 Z M 68.9 69.2 C 68.9 69.2 71.3 69.2 71.3 69.2 C 71.2 68.8 71.1 68.5 70.9 68.3 C 70.7 68.1 70.5 68 70.1 68 C 69.8 68 69.5 68.1 69.3 68.3 C 69.1 68.5 69 68.8 68.9 69.2 Z M 69.9 67 L 69.1 66.3 L 69.7 66 L 70.3 67 L 69.9 67 Z M 73.8 71.2 L 72.2 67.6 L 72.8 67.6 L 74 70.6 L 75.3 67.6 L 75.8 67.6 L 74.3 71.2 L 73.8 71.2 Z M 76.7 71.2 L 76.7 67.6 L 77.2 67.6 C 77.2 67.6 77.23 68.53 77.2 68.5 C 77.4 68.2 77.6 68 77.8 67.8 C 78.1 67.6 78.4 67.5 78.7 67.5 C 78.71 67.52 78.7 68.1 78.7 68.1 C 78.7 68.1 78.67 68.1 78.7 68.1 C 78.3 68.1 77.9 68.2 77.6 68.5 C 77.4 68.8 77.2 69.2 77.2 69.8 C 77.23 69.76 77.2 71.2 77.2 71.2 L 76.7 71.2 Z M 82.4 70.6 C 82 71.1 81.6 71.3 81 71.3 C 80.5 71.3 80 71.1 79.7 70.8 C 79.3 70.4 79.1 70 79.1 69.4 C 79.1 69.4 79.1 69.4 79.1 69.4 C 79.1 68.9 79.3 68.4 79.6 68 C 80 67.7 80.4 67.5 80.9 67.5 C 81.4 67.5 81.8 67.7 82.1 68 C 82.4 68.4 82.6 68.9 82.6 69.4 C 82.6 69.5 82.6 69.5 82.6 69.6 C 82.6 69.6 79.7 69.6 79.7 69.6 C 79.7 70 79.9 70.3 80.1 70.5 C 80.4 70.7 80.6 70.8 81 70.8 C 81.4 70.8 81.8 70.6 82.1 70.3 C 82.11 70.3 82.4 70.6 82.4 70.6 C 82.4 70.6 82.45 70.6 82.4 70.6 Z M 79.7 69.2 C 79.7 69.2 82 69.2 82 69.2 C 82 68.8 81.9 68.5 81.7 68.3 C 81.5 68.1 81.2 68 80.9 68 C 80.6 68 80.3 68.1 80.1 68.3 C 79.9 68.5 79.7 68.8 79.7 69.2 Z " stroke="none" fill="#4f4f4e"/>  </g>  <g id="Polygon363609">    <path d="M 2.3 60.3 C 1.8 60.3 1.4 60.1 1 59.8 C 0.8 59.6 0.7 59.3 0.6 59 C 0.5 58.7 0.4 58.4 0.4 57.9 C 0.4 57.9 0.4 57.9 0.4 57.9 C 0.4 57.1 0.6 56.5 1 56 C 1.3 55.5 1.8 55.2 2.5 55.2 C 3 55.2 3.5 55.4 3.9 55.8 C 3.9 55.8 3.6 56.2 3.6 56.2 C 3.2 55.9 2.8 55.7 2.4 55.7 C 2 55.7 1.6 55.9 1.4 56.3 C 1.1 56.7 1 57.2 1 57.8 C 1 57.8 1 57.9 1 57.9 C 1.3 57.4 1.8 57.1 2.4 57.1 C 2.9 57.1 3.3 57.3 3.6 57.6 C 3.9 57.8 4.1 58.2 4.1 58.6 C 4.1 58.6 4.1 58.7 4.1 58.7 C 4.1 59.1 3.9 59.5 3.6 59.8 C 3.2 60.1 2.8 60.3 2.3 60.3 Z M 2.3 59.8 C 2.7 59.8 3 59.7 3.2 59.5 C 3.4 59.3 3.5 59 3.5 58.7 C 3.5 58.7 3.5 58.7 3.5 58.7 C 3.5 58.4 3.4 58.1 3.2 57.9 C 3 57.7 2.7 57.6 2.3 57.6 C 2 57.6 1.7 57.7 1.4 57.9 C 1.2 58.2 1.1 58.4 1.1 58.7 C 1.1 58.7 1.1 58.7 1.1 58.7 C 1.1 59 1.2 59.3 1.4 59.5 C 1.7 59.7 2 59.8 2.3 59.8 Z M 5 56.9 C 5 56.9 4.9 56.6 4.9 56.6 C 5.2 56.5 5.4 56.3 5.4 56 C 5.36 56.03 5.1 56 5.1 56 L 5.1 55.3 L 5.7 55.3 C 5.7 55.3 5.75 55.93 5.7 55.9 C 5.7 56.2 5.7 56.4 5.6 56.6 C 5.4 56.7 5.2 56.8 5 56.9 Z M 6.9 60.2 L 6.9 55.1 L 7.4 55.1 L 7.4 60.2 L 6.9 60.2 Z M 8.7 60.2 L 8.7 56.6 L 9.3 56.6 L 9.3 60.2 L 8.7 60.2 Z M 14.4 60.3 C 13.6 60.3 13 60 12.4 59.5 C 12.4 59.5 12.7 59.1 12.7 59.1 C 13 59.3 13.3 59.5 13.5 59.6 C 13.8 59.7 14.1 59.8 14.4 59.8 C 14.7 59.8 15 59.7 15.2 59.5 C 15.4 59.4 15.5 59.2 15.5 58.9 C 15.5 58.9 15.5 58.9 15.5 58.9 C 15.5 58.7 15.4 58.5 15.2 58.4 C 15.1 58.2 14.7 58.1 14.2 58 C 13.7 57.9 13.2 57.7 13 57.5 C 12.7 57.3 12.6 57 12.6 56.6 C 12.6 56.6 12.6 56.6 12.6 56.6 C 12.6 56.2 12.7 55.9 13.1 55.6 C 13.4 55.4 13.7 55.2 14.2 55.2 C 14.6 55.2 14.9 55.3 15.1 55.4 C 15.4 55.5 15.7 55.6 15.9 55.8 C 15.9 55.8 15.6 56.3 15.6 56.3 C 15.2 55.9 14.7 55.7 14.2 55.7 C 13.9 55.7 13.6 55.8 13.4 56 C 13.2 56.1 13.1 56.3 13.1 56.5 C 13.1 56.5 13.1 56.5 13.1 56.5 C 13.1 56.8 13.2 57 13.4 57.1 C 13.6 57.3 14 57.4 14.5 57.5 C 15 57.6 15.4 57.8 15.7 58 C 15.9 58.2 16.1 58.5 16.1 58.9 C 16.1 58.9 16.1 58.9 16.1 58.9 C 16.1 59.3 15.9 59.6 15.6 59.9 C 15.3 60.1 14.9 60.3 14.4 60.3 Z M 20.2 59.6 C 19.8 60.1 19.3 60.3 18.7 60.3 C 18.2 60.3 17.8 60.1 17.4 59.8 C 17.1 59.4 16.9 59 16.9 58.4 C 16.9 58.4 16.9 58.4 16.9 58.4 C 16.9 57.9 17 57.4 17.4 57 C 17.7 56.7 18.1 56.5 18.6 56.5 C 19.1 56.5 19.5 56.7 19.9 57 C 20.2 57.4 20.3 57.9 20.3 58.4 C 20.3 58.5 20.3 58.5 20.3 58.6 C 20.3 58.6 17.4 58.6 17.4 58.6 C 17.5 59 17.6 59.3 17.8 59.5 C 18.1 59.7 18.4 59.8 18.7 59.8 C 19.1 59.8 19.5 59.6 19.8 59.3 C 19.85 59.3 20.2 59.6 20.2 59.6 C 20.2 59.6 20.18 59.6 20.2 59.6 Z M 17.4 58.2 C 17.4 58.2 19.8 58.2 19.8 58.2 C 19.7 57.8 19.6 57.5 19.4 57.3 C 19.2 57.1 19 57 18.6 57 C 18.3 57 18 57.1 17.8 57.3 C 17.6 57.5 17.5 57.8 17.4 58.2 Z M 23.1 60.1 C 22.9 60.2 22.7 60.3 22.5 60.3 C 22.2 60.3 21.9 60.2 21.7 60 C 21.5 59.8 21.4 59.6 21.4 59.2 C 21.44 59.24 21.4 57.1 21.4 57.1 L 20.9 57.1 L 20.9 56.6 L 21.4 56.6 L 21.4 55.5 L 22 55.5 L 22 56.6 L 23.1 56.6 L 23.1 57.1 L 22 57.1 C 22 57.1 21.98 59.17 22 59.2 C 22 59.6 22.2 59.8 22.6 59.8 C 22.8 59.8 22.9 59.7 23.1 59.6 C 23.11 59.65 23.1 60.1 23.1 60.1 C 23.1 60.1 23.11 60.11 23.1 60.1 Z " stroke="none" fill="#4f4f4e"/>  </g>  <g id="Polygon363608">    <path d="M 0.7 49.2 L 0.7 44.3 C 0.7 44.3 2.39 44.3 2.4 44.3 C 3.2 44.3 3.8 44.5 4.3 45 C 4.8 45.5 5 46 5 46.7 C 5 46.7 5 46.7 5 46.7 C 5 47.4 4.8 48 4.3 48.5 C 3.8 49 3.2 49.2 2.4 49.2 C 2.39 49.2 0.7 49.2 0.7 49.2 Z M 2.4 44.8 C 2.39 44.81 1.2 44.8 1.2 44.8 L 1.2 48.7 C 1.2 48.7 2.39 48.69 2.4 48.7 C 3 48.7 3.5 48.5 3.9 48.1 C 4.2 47.8 4.4 47.3 4.4 46.8 C 4.4 46.8 4.4 46.7 4.4 46.7 C 4.4 46.2 4.2 45.7 3.9 45.4 C 3.5 45 3 44.8 2.4 44.8 Z M 11.6 47.9 C 11.6 48.3 11.4 48.6 11.1 48.9 C 10.7 49.1 10.3 49.3 9.8 49.3 C 9.3 49.3 8.8 49.1 8.5 48.9 C 8.1 48.6 7.9 48.3 7.9 47.9 C 7.9 47.9 7.9 47.9 7.9 47.9 C 7.9 47.6 8 47.3 8.2 47.1 C 8.4 46.9 8.6 46.8 8.9 46.7 C 8.4 46.4 8.1 46 8.1 45.5 C 8.1 45.5 8.1 45.5 8.1 45.5 C 8.1 45.2 8.3 44.8 8.6 44.6 C 8.9 44.4 9.3 44.2 9.8 44.2 C 10.2 44.2 10.6 44.4 11 44.6 C 11.3 44.8 11.5 45.2 11.5 45.5 C 11.5 45.5 11.5 45.5 11.5 45.5 C 11.5 46 11.2 46.4 10.6 46.7 C 10.9 46.8 11.2 46.9 11.3 47.1 C 11.5 47.3 11.6 47.6 11.6 47.9 C 11.62 47.86 11.6 47.9 11.6 47.9 C 11.6 47.9 11.62 47.88 11.6 47.9 Z M 8.7 45.6 C 8.7 45.8 8.8 46 9 46.2 C 9.2 46.4 9.5 46.5 9.8 46.5 C 10.1 46.5 10.4 46.4 10.6 46.2 C 10.8 46 10.9 45.8 10.9 45.6 C 10.9 45.6 10.9 45.6 10.9 45.6 C 10.9 45.3 10.8 45.1 10.6 45 C 10.4 44.8 10.1 44.7 9.8 44.7 C 9.5 44.7 9.2 44.8 9 45 C 8.8 45.1 8.7 45.3 8.7 45.6 C 8.66 45.56 8.7 45.6 8.7 45.6 C 8.7 45.6 8.66 45.57 8.7 45.6 Z M 8.5 47.9 C 8.5 48.1 8.6 48.3 8.8 48.5 C 9.1 48.7 9.4 48.8 9.8 48.8 C 10.2 48.8 10.5 48.7 10.7 48.5 C 10.9 48.3 11.1 48.1 11.1 47.9 C 11.1 47.9 11.1 47.9 11.1 47.9 C 11.1 47.6 10.9 47.4 10.7 47.2 C 10.4 47 10.1 46.9 9.8 46.9 C 9.4 46.9 9.1 47 8.9 47.2 C 8.6 47.4 8.5 47.6 8.5 47.9 C 8.5 47.86 8.5 47.9 8.5 47.9 C 8.5 47.9 8.5 47.87 8.5 47.9 Z M 12.4 50.1 C 12.4 50.1 12.3 49.8 12.3 49.8 C 12.6 49.7 12.8 49.5 12.8 49.2 C 12.78 49.2 12.5 49.2 12.5 49.2 L 12.5 48.5 L 13.2 48.5 C 13.2 48.5 13.17 49.09 13.2 49.1 C 13.2 49.4 13.1 49.6 13 49.7 C 12.9 49.9 12.7 50 12.4 50.1 Z M 16 49.3 C 15.5 49.3 15.1 49.1 14.7 48.8 C 14.5 48.6 14.4 48.3 14.3 48 C 14.2 47.7 14.1 47.4 14.1 46.9 C 14.1 46.9 14.1 46.9 14.1 46.9 C 14.1 46.1 14.3 45.5 14.7 45 C 15 44.5 15.5 44.2 16.2 44.2 C 16.7 44.2 17.2 44.4 17.6 44.8 C 17.6 44.8 17.3 45.2 17.3 45.2 C 16.9 44.9 16.5 44.7 16.1 44.7 C 15.7 44.7 15.3 44.9 15.1 45.3 C 14.8 45.7 14.7 46.2 14.7 46.8 C 14.7 46.8 14.7 46.9 14.7 46.9 C 15 46.4 15.5 46.1 16.1 46.1 C 16.6 46.1 17 46.3 17.3 46.6 C 17.6 46.8 17.8 47.2 17.8 47.6 C 17.8 47.6 17.8 47.7 17.8 47.7 C 17.8 48.1 17.6 48.5 17.3 48.8 C 16.9 49.1 16.5 49.3 16 49.3 Z M 16 48.8 C 16.4 48.8 16.7 48.7 16.9 48.5 C 17.1 48.3 17.2 48 17.2 47.7 C 17.2 47.7 17.2 47.7 17.2 47.7 C 17.2 47.4 17.1 47.1 16.9 46.9 C 16.7 46.7 16.4 46.6 16 46.6 C 15.7 46.6 15.4 46.7 15.1 46.9 C 14.9 47.2 14.8 47.4 14.8 47.7 C 14.8 47.7 14.8 47.7 14.8 47.7 C 14.8 48 14.9 48.3 15.1 48.5 C 15.4 48.7 15.7 48.8 16 48.8 Z M 20.3 49.3 C 19.7 49.3 19.1 49 18.6 48.5 C 18.6 48.5 19 48.1 19 48.1 C 19.4 48.6 19.9 48.8 20.4 48.8 C 20.7 48.8 21 48.7 21.2 48.5 C 21.4 48.3 21.5 48 21.5 47.7 C 21.5 47.7 21.5 47.7 21.5 47.7 C 21.5 47.4 21.4 47.1 21.2 46.9 C 21 46.7 20.7 46.7 20.3 46.7 C 20 46.7 19.6 46.7 19.3 46.9 C 19.29 46.93 18.9 46.7 18.9 46.7 L 19.1 44.3 L 21.9 44.3 L 21.9 44.8 L 19.5 44.8 C 19.5 44.8 19.44 46.38 19.4 46.4 C 19.8 46.2 20.1 46.2 20.4 46.2 C 20.9 46.2 21.3 46.3 21.6 46.6 C 21.9 46.8 22.1 47.2 22.1 47.7 C 22.1 47.7 22.1 47.7 22.1 47.7 C 22.1 48.1 21.9 48.5 21.6 48.8 C 21.3 49.1 20.9 49.3 20.3 49.3 Z M 28.3 48.6 C 27.9 49.1 27.4 49.3 26.8 49.3 C 26.3 49.3 25.9 49.1 25.5 48.7 C 25.2 48.4 25 47.9 25 47.4 C 25 47.4 25 47.4 25 47.4 C 25 46.9 25.2 46.4 25.5 46.1 C 25.9 45.7 26.3 45.5 26.8 45.5 C 27.4 45.5 27.9 45.7 28.3 46.1 C 28.3 46.1 27.9 46.5 27.9 46.5 C 27.6 46.2 27.2 46 26.8 46 C 26.5 46 26.2 46.1 25.9 46.4 C 25.7 46.7 25.5 47 25.5 47.4 C 25.5 47.4 25.5 47.4 25.5 47.4 C 25.5 47.8 25.7 48.1 25.9 48.4 C 26.2 48.7 26.5 48.8 26.9 48.8 C 27.3 48.8 27.6 48.6 28 48.3 C 27.98 48.26 28.3 48.6 28.3 48.6 C 28.3 48.6 28.32 48.58 28.3 48.6 Z M 29.2 49.2 L 29.2 45.6 L 29.8 45.6 C 29.8 45.6 29.75 46.19 29.8 46.2 C 29.9 46 30.1 45.8 30.2 45.7 C 30.4 45.6 30.6 45.5 30.9 45.5 C 31.5 45.5 31.9 45.7 32.1 46.2 C 32.4 45.7 32.8 45.5 33.4 45.5 C 33.8 45.5 34.1 45.6 34.3 45.9 C 34.6 46.2 34.7 46.5 34.7 47 C 34.7 46.96 34.7 49.2 34.7 49.2 L 34.2 49.2 C 34.2 49.2 34.16 47.09 34.2 47.1 C 34.2 46.7 34.1 46.5 33.9 46.3 C 33.7 46.1 33.5 46 33.2 46 C 32.9 46 32.7 46.1 32.5 46.3 C 32.3 46.5 32.2 46.8 32.2 47.1 C 32.22 47.11 32.2 49.2 32.2 49.2 L 31.7 49.2 C 31.7 49.2 31.69 47.07 31.7 47.1 C 31.7 46.7 31.6 46.5 31.4 46.3 C 31.3 46.1 31 46 30.8 46 C 30.5 46 30.2 46.1 30 46.3 C 29.8 46.5 29.8 46.8 29.8 47.1 C 29.75 47.13 29.8 49.2 29.8 49.2 L 29.2 49.2 Z M 35.7 50.1 C 35.7 50.1 35.6 49.8 35.6 49.8 C 35.9 49.7 36.1 49.5 36 49.2 C 36.04 49.2 35.8 49.2 35.8 49.2 L 35.8 48.5 L 36.4 48.5 C 36.4 48.5 36.43 49.09 36.4 49.1 C 36.4 49.4 36.4 49.6 36.2 49.7 C 36.1 49.9 35.9 50 35.7 50.1 Z M 39.8 49.2 L 39.8 44.3 L 40.3 44.3 L 40.3 46.5 L 43.1 46.5 L 43.1 44.3 L 43.7 44.3 L 43.7 49.2 L 43.1 49.2 L 43.1 47 L 40.3 47 L 40.3 49.2 L 39.8 49.2 Z M 46.8 49.2 L 46.8 48.8 C 46.8 48.8 48.59 47.2 48.6 47.2 C 49 46.9 49.2 46.6 49.4 46.4 C 49.5 46.1 49.6 45.9 49.6 45.7 C 49.6 45.4 49.5 45.2 49.3 45 C 49.1 44.8 48.9 44.7 48.6 44.7 C 48.4 44.7 48.1 44.8 47.9 44.9 C 47.7 45.1 47.5 45.3 47.3 45.6 C 47.3 45.6 46.9 45.3 46.9 45.3 C 47.2 44.9 47.4 44.6 47.7 44.5 C 47.9 44.3 48.3 44.2 48.7 44.2 C 49.1 44.2 49.5 44.4 49.8 44.6 C 50 44.9 50.2 45.2 50.2 45.6 C 50.2 45.6 50.2 45.6 50.2 45.6 C 50.2 46 50.1 46.3 49.9 46.5 C 49.7 46.8 49.4 47.1 49 47.5 C 48.95 47.53 47.6 48.7 47.6 48.7 L 50.2 48.7 L 50.2 49.2 L 46.8 49.2 Z M 51 49.2 L 51 48.8 C 51 48.8 52.79 47.2 52.8 47.2 C 53.2 46.9 53.4 46.6 53.6 46.4 C 53.7 46.1 53.8 45.9 53.8 45.7 C 53.8 45.4 53.7 45.2 53.5 45 C 53.3 44.8 53.1 44.7 52.8 44.7 C 52.6 44.7 52.3 44.8 52.1 44.9 C 51.9 45.1 51.7 45.3 51.5 45.6 C 51.5 45.6 51.1 45.3 51.1 45.3 C 51.3 44.9 51.6 44.6 51.9 44.5 C 52.1 44.3 52.5 44.2 52.9 44.2 C 53.3 44.2 53.7 44.4 54 44.6 C 54.2 44.9 54.4 45.2 54.4 45.6 C 54.4 45.6 54.4 45.6 54.4 45.6 C 54.4 46 54.3 46.3 54.1 46.5 C 53.9 46.8 53.6 47.1 53.1 47.5 C 53.14 47.53 51.8 48.7 51.8 48.7 L 54.4 48.7 L 54.4 49.2 L 51 49.2 Z M 60.7 48.6 C 60.3 49.1 59.8 49.3 59.2 49.3 C 58.7 49.3 58.2 49.1 57.9 48.7 C 57.5 48.4 57.3 47.9 57.3 47.4 C 57.3 47.4 57.3 47.4 57.3 47.4 C 57.3 46.9 57.5 46.4 57.9 46.1 C 58.2 45.7 58.7 45.5 59.2 45.5 C 59.8 45.5 60.2 45.7 60.6 46.1 C 60.6 46.1 60.3 46.5 60.3 46.5 C 59.9 46.2 59.6 46 59.2 46 C 58.8 46 58.5 46.1 58.3 46.4 C 58 46.7 57.9 47 57.9 47.4 C 57.9 47.4 57.9 47.4 57.9 47.4 C 57.9 47.8 58 48.1 58.3 48.4 C 58.5 48.7 58.8 48.8 59.2 48.8 C 59.6 48.8 60 48.6 60.3 48.3 C 60.33 48.26 60.7 48.6 60.7 48.6 C 60.7 48.6 60.68 48.58 60.7 48.6 Z M 61.6 49.2 L 61.6 45.6 L 62.1 45.6 C 62.1 45.6 62.1 46.19 62.1 46.2 C 62.2 46 62.4 45.8 62.6 45.7 C 62.8 45.6 63 45.5 63.3 45.5 C 63.8 45.5 64.2 45.7 64.4 46.2 C 64.8 45.7 65.2 45.5 65.7 45.5 C 66.1 45.5 66.5 45.6 66.7 45.9 C 66.9 46.2 67.1 46.5 67.1 47 C 67.05 46.96 67.1 49.2 67.1 49.2 L 66.5 49.2 C 66.5 49.2 66.51 47.09 66.5 47.1 C 66.5 46.7 66.4 46.5 66.3 46.3 C 66.1 46.1 65.9 46 65.6 46 C 65.3 46 65.1 46.1 64.9 46.3 C 64.7 46.5 64.6 46.8 64.6 47.1 C 64.58 47.11 64.6 49.2 64.6 49.2 L 64 49.2 C 64 49.2 64.04 47.07 64 47.1 C 64 46.7 64 46.5 63.8 46.3 C 63.6 46.1 63.4 46 63.1 46 C 62.8 46 62.6 46.1 62.4 46.3 C 62.2 46.5 62.1 46.8 62.1 47.1 C 62.1 47.13 62.1 49.2 62.1 49.2 L 61.6 49.2 Z M 68 50.1 C 68 50.1 67.9 49.8 67.9 49.8 C 68.3 49.7 68.4 49.5 68.4 49.2 C 68.39 49.2 68.1 49.2 68.1 49.2 L 68.1 48.5 L 68.8 48.5 C 68.8 48.5 68.78 49.09 68.8 49.1 C 68.8 49.4 68.7 49.6 68.6 49.7 C 68.5 49.9 68.3 50 68 50.1 Z M 74.4 49.2 L 74.4 48 L 71.9 48 L 71.7 47.6 L 74.5 44.3 L 75 44.3 L 75 47.6 L 75.7 47.6 L 75.7 48 L 75 48 L 75 49.2 L 74.4 49.2 Z M 72.4 47.6 L 74.4 47.6 L 74.4 45 L 72.4 47.6 Z M 80.7 46.7 C 80.7 47.5 80.5 48.1 80.1 48.5 C 79.7 49 79.2 49.3 78.6 49.3 C 78 49.3 77.5 49 77.1 48.6 C 76.7 48.1 76.5 47.5 76.5 46.8 C 76.5 46.8 76.5 46.7 76.5 46.7 C 76.5 46 76.7 45.4 77.1 45 C 77.5 44.5 78 44.2 78.6 44.2 C 79.2 44.2 79.7 44.5 80.1 44.9 C 80.5 45.4 80.7 46 80.7 46.7 C 80.68 46.74 80.7 46.7 80.7 46.7 C 80.7 46.7 80.68 46.75 80.7 46.7 Z M 77.1 46.7 C 77.1 47.3 77.3 47.8 77.5 48.2 C 77.8 48.6 78.2 48.8 78.6 48.8 C 79.1 48.8 79.4 48.6 79.7 48.2 C 80 47.8 80.1 47.3 80.1 46.8 C 80.1 46.8 80.1 46.7 80.1 46.7 C 80.1 46.2 80 45.7 79.7 45.3 C 79.4 44.9 79.1 44.7 78.6 44.7 C 78.2 44.7 77.8 44.9 77.5 45.3 C 77.3 45.7 77.1 46.2 77.1 46.7 C 77.12 46.74 77.1 46.7 77.1 46.7 C 77.1 46.7 77.12 46.75 77.1 46.7 Z M 86.9 48.6 C 86.5 49.1 86 49.3 85.4 49.3 C 84.9 49.3 84.5 49.1 84.1 48.7 C 83.8 48.4 83.6 47.9 83.6 47.4 C 83.6 47.4 83.6 47.4 83.6 47.4 C 83.6 46.9 83.8 46.4 84.1 46.1 C 84.5 45.7 84.9 45.5 85.4 45.5 C 86 45.5 86.5 45.7 86.9 46.1 C 86.9 46.1 86.5 46.5 86.5 46.5 C 86.2 46.2 85.8 46 85.4 46 C 85.1 46 84.8 46.1 84.5 46.4 C 84.3 46.7 84.1 47 84.1 47.4 C 84.1 47.4 84.1 47.4 84.1 47.4 C 84.1 47.8 84.3 48.1 84.5 48.4 C 84.8 48.7 85.1 48.8 85.5 48.8 C 85.9 48.8 86.2 48.6 86.6 48.3 C 86.58 48.26 86.9 48.6 86.9 48.6 C 86.9 48.6 86.93 48.58 86.9 48.6 Z M 87.9 49.2 L 87.9 44.1 L 88.4 44.1 L 88.4 49.2 L 87.9 49.2 Z " stroke="none" fill="#4f4f4e"/>  </g>  <g id="Polygon363607">    <path d="M 0.3 38.2 L 2.5 33.3 L 3 33.3 L 5.3 38.2 L 4.7 38.2 L 4.1 36.9 L 1.4 36.9 L 0.8 38.2 L 0.3 38.2 Z M 1.6 36.4 L 3.9 36.4 L 2.8 33.9 L 1.6 36.4 Z M 8.9 38.9 C 8.6 39.2 8.2 39.3 7.6 39.3 C 6.9 39.3 6.4 39.2 5.9 38.8 C 5.9 38.8 6.2 38.4 6.2 38.4 C 6.6 38.7 7.1 38.9 7.6 38.9 C 8 38.9 8.3 38.8 8.5 38.5 C 8.8 38.3 8.9 38 8.9 37.6 C 8.9 37.6 8.9 37.2 8.9 37.2 C 8.5 37.7 8 37.9 7.4 37.9 C 7 37.9 6.6 37.8 6.3 37.4 C 5.9 37.1 5.7 36.7 5.7 36.2 C 5.7 36.2 5.7 36.2 5.7 36.2 C 5.7 35.7 5.9 35.3 6.3 35 C 6.6 34.7 7 34.5 7.4 34.5 C 8 34.5 8.5 34.7 8.9 35.2 C 8.86 35.23 8.9 34.6 8.9 34.6 L 9.4 34.6 C 9.4 34.6 9.4 37.57 9.4 37.6 C 9.4 38.1 9.2 38.5 8.9 38.9 C 8.9 38.9 8.9 38.9 8.9 38.9 Z M 7.6 37.4 C 7.9 37.4 8.2 37.3 8.5 37.1 C 8.8 36.9 8.9 36.6 8.9 36.2 C 8.9 36.2 8.9 36.2 8.9 36.2 C 8.9 35.8 8.8 35.6 8.5 35.3 C 8.2 35.1 7.9 35 7.6 35 C 7.2 35 6.9 35.1 6.7 35.3 C 6.4 35.5 6.3 35.8 6.3 36.2 C 6.3 36.2 6.3 36.2 6.3 36.2 C 6.3 36.6 6.4 36.9 6.7 37.1 C 6.9 37.3 7.2 37.4 7.6 37.4 Z M 8.7 33.2 C 8.7 33.4 8.6 33.7 8.4 33.8 C 8.2 34 8 34 7.7 34 C 7.4 34 7.2 34 7 33.8 C 6.8 33.7 6.7 33.4 6.7 33.2 C 6.7 33.2 7.1 33.2 7.1 33.2 C 7.1 33.5 7.4 33.6 7.7 33.6 C 8 33.6 8.3 33.5 8.3 33.2 C 8.34 33.17 8.7 33.2 8.7 33.2 C 8.7 33.2 8.74 33.17 8.7 33.2 Z M 10.7 38.2 L 10.7 34.6 L 11.2 34.6 L 11.2 38.2 L 10.7 38.2 Z M 12.2 38.2 L 12.2 37.9 L 14.6 35 L 12.3 35 L 12.3 34.6 L 15.4 34.6 L 15.4 34.9 L 13 37.7 L 15.4 37.7 L 15.4 38.2 L 12.2 38.2 Z M 16.4 38.2 L 16.4 33.1 L 16.9 33.1 L 16.9 38.2 L 16.4 38.2 Z M 20.6 37.7 C 20.2 38.1 19.8 38.3 19.3 38.3 C 18.9 38.3 18.6 38.2 18.3 38 C 18 37.8 17.9 37.5 17.9 37.1 C 17.9 37.1 17.9 37.1 17.9 37.1 C 17.9 36.8 18 36.5 18.3 36.3 C 18.6 36.1 19 36 19.5 36 C 19.8 36 20.2 36 20.6 36.1 C 20.6 36.1 20.6 36 20.6 36 C 20.6 35.7 20.5 35.4 20.3 35.3 C 20.1 35.1 19.8 35 19.5 35 C 19.1 35 18.8 35.1 18.4 35.3 C 18.4 35.3 18.2 34.8 18.2 34.8 C 18.7 34.6 19.1 34.5 19.5 34.5 C 20.1 34.5 20.4 34.7 20.7 34.9 C 21 35.2 21.1 35.5 21.1 36 C 21.08 35.99 21.1 38.2 21.1 38.2 L 20.6 38.2 L 20.6 37.7 C 20.6 37.7 20.57 37.65 20.6 37.7 Z M 19.4 37.8 C 19.7 37.8 20 37.8 20.2 37.6 C 20.5 37.4 20.6 37.2 20.6 36.9 C 20.6 36.9 20.6 36.5 20.6 36.5 C 20.2 36.4 19.9 36.4 19.5 36.4 C 19.2 36.4 18.9 36.4 18.7 36.6 C 18.5 36.7 18.5 36.9 18.5 37.1 C 18.5 37.1 18.5 37.1 18.5 37.1 C 18.5 37.3 18.5 37.5 18.7 37.7 C 18.9 37.8 19.1 37.8 19.4 37.8 Z M 26.2 34 L 26.2 33.4 L 26.8 33.4 L 26.8 34 L 26.2 34 Z M 24.9 34 L 24.9 33.4 L 25.6 33.4 L 25.6 34 L 24.9 34 Z M 26.9 37.6 C 26.6 38 26.2 38.3 25.7 38.3 C 25.2 38.3 24.9 38.1 24.6 37.9 C 24.4 37.6 24.3 37.3 24.3 36.8 C 24.28 36.83 24.3 34.6 24.3 34.6 L 24.8 34.6 C 24.8 34.6 24.82 36.69 24.8 36.7 C 24.8 37 24.9 37.3 25.1 37.5 C 25.3 37.7 25.5 37.8 25.8 37.8 C 26.1 37.8 26.4 37.7 26.6 37.5 C 26.8 37.3 26.9 37 26.9 36.7 C 26.9 36.65 26.9 34.6 26.9 34.6 L 27.4 34.6 L 27.4 38.2 L 26.9 38.2 L 26.9 37.6 C 26.9 37.6 26.9 37.57 26.9 37.6 Z M 28.8 38.2 L 28.8 35.1 L 28.4 35.1 L 28.4 34.6 L 28.8 34.6 C 28.8 34.6 28.85 34.27 28.8 34.3 C 28.8 33.9 29 33.6 29.2 33.3 C 29.3 33.2 29.6 33.1 29.9 33.1 C 30.2 33.1 30.4 33.1 30.5 33.2 C 30.5 33.2 30.5 33.6 30.5 33.6 C 30.3 33.6 30.1 33.5 30 33.5 C 29.6 33.5 29.4 33.8 29.4 34.3 C 29.38 34.3 29.4 34.6 29.4 34.6 L 30.5 34.6 L 30.5 35.1 L 29.4 35.1 L 29.4 38.2 L 28.8 38.2 Z M 31.3 38.2 L 31.3 33.1 L 31.8 33.1 L 31.8 38.2 L 31.3 38.2 Z M 36.1 37.6 C 35.7 38.1 35.2 38.3 34.6 38.3 C 34.1 38.3 33.7 38.1 33.4 37.8 C 33 37.4 32.8 37 32.8 36.4 C 32.8 36.4 32.8 36.4 32.8 36.4 C 32.8 35.9 33 35.4 33.3 35 C 33.7 34.7 34.1 34.5 34.6 34.5 C 35.1 34.5 35.5 34.7 35.8 35 C 36.1 35.4 36.3 35.9 36.3 36.4 C 36.3 36.5 36.3 36.5 36.3 36.6 C 36.3 36.6 33.4 36.6 33.4 36.6 C 33.4 37 33.6 37.3 33.8 37.5 C 34 37.7 34.3 37.8 34.7 37.8 C 35.1 37.8 35.5 37.6 35.8 37.3 C 35.8 37.3 36.1 37.6 36.1 37.6 C 36.1 37.6 36.13 37.6 36.1 37.6 Z M 33.4 36.2 C 33.4 36.2 35.7 36.2 35.7 36.2 C 35.7 35.8 35.6 35.5 35.4 35.3 C 35.2 35.1 34.9 35 34.6 35 C 34.2 35 34 35.1 33.8 35.3 C 33.5 35.5 33.4 35.8 33.4 36.2 Z M 37.2 38.2 L 37.2 34.6 L 37.7 34.6 C 37.7 34.6 37.74 35.21 37.7 35.2 C 38 34.7 38.5 34.5 39 34.5 C 39.4 34.5 39.8 34.6 40 34.9 C 40.2 35.2 40.4 35.5 40.4 36 C 40.37 35.95 40.4 38.2 40.4 38.2 L 39.8 38.2 C 39.8 38.2 39.83 36.09 39.8 36.1 C 39.8 35.7 39.7 35.5 39.6 35.3 C 39.4 35.1 39.1 35 38.8 35 C 38.5 35 38.3 35.1 38.1 35.3 C 37.8 35.5 37.7 35.8 37.7 36.1 C 37.74 36.13 37.7 38.2 37.7 38.2 L 37.2 38.2 Z M 41.5 38.2 L 41.5 34.6 L 42.1 34.6 C 42.1 34.6 42.06 35.19 42.1 35.2 C 42.2 35 42.4 34.8 42.5 34.7 C 42.7 34.6 42.9 34.5 43.2 34.5 C 43.8 34.5 44.2 34.7 44.4 35.2 C 44.7 34.7 45.1 34.5 45.7 34.5 C 46.1 34.5 46.4 34.6 46.6 34.9 C 46.9 35.2 47 35.5 47 36 C 47.01 35.96 47 38.2 47 38.2 L 46.5 38.2 C 46.5 38.2 46.47 36.09 46.5 36.1 C 46.5 35.7 46.4 35.5 46.2 35.3 C 46.1 35.1 45.8 35 45.5 35 C 45.2 35 45 35.1 44.8 35.3 C 44.6 35.5 44.5 35.8 44.5 36.1 C 44.53 36.11 44.5 38.2 44.5 38.2 L 44 38.2 C 44 38.2 44 36.07 44 36.1 C 44 35.7 43.9 35.5 43.7 35.3 C 43.6 35.1 43.4 35 43.1 35 C 42.8 35 42.5 35.1 42.3 35.3 C 42.2 35.5 42.1 35.8 42.1 36.1 C 42.06 36.13 42.1 38.2 42.1 38.2 L 41.5 38.2 Z M 48.2 33.8 L 48.2 33.2 L 48.8 33.2 L 48.8 33.8 L 48.2 33.8 Z M 48.2 38.2 L 48.2 34.6 L 48.7 34.6 L 48.7 38.2 L 48.2 38.2 Z M 50.9 39.3 L 50.3 39 C 50.3 39 50.88 38.25 50.9 38.2 C 50.4 38.2 50 38 49.7 37.7 C 49.7 37.7 50 37.4 50 37.4 C 50.4 37.7 50.8 37.8 51.2 37.8 C 51.4 37.8 51.6 37.8 51.8 37.7 C 51.9 37.6 52 37.4 52 37.2 C 52 37.2 52 37.2 52 37.2 C 52 37.1 51.9 36.9 51.7 36.8 C 51.6 36.8 51.4 36.7 51.1 36.6 C 50.9 36.6 50.8 36.5 50.8 36.5 C 50.7 36.5 50.6 36.4 50.5 36.4 C 50.4 36.4 50.3 36.3 50.2 36.3 C 50.2 36.2 50.1 36.2 50.1 36.1 C 50 36 49.9 36 49.9 35.9 C 49.9 35.8 49.9 35.7 49.9 35.6 C 49.9 35.6 49.9 35.6 49.9 35.6 C 49.9 35.2 50 35 50.2 34.8 C 50.4 34.6 50.7 34.5 51.1 34.5 C 51.6 34.5 52 34.7 52.4 34.9 C 52.4 34.9 52.2 35.3 52.2 35.3 C 51.8 35.1 51.4 35 51.1 35 C 50.9 35 50.7 35 50.6 35.1 C 50.5 35.2 50.4 35.3 50.4 35.5 C 50.4 35.5 50.4 35.5 50.4 35.5 C 50.4 35.6 50.4 35.6 50.4 35.7 C 50.5 35.7 50.5 35.8 50.6 35.8 C 50.6 35.9 50.7 35.9 50.8 36 C 50.9 36 51 36 51 36 C 51.1 36.1 51.2 36.1 51.3 36.1 C 51.5 36.2 51.6 36.2 51.7 36.2 C 51.7 36.3 51.9 36.3 52 36.4 C 52.1 36.4 52.2 36.5 52.2 36.6 C 52.3 36.6 52.4 36.7 52.4 36.8 C 52.5 36.9 52.5 37 52.5 37.2 C 52.5 37.2 52.5 37.2 52.5 37.2 C 52.5 37.5 52.4 37.7 52.2 37.9 C 51.9 38.1 51.7 38.2 51.3 38.3 C 51.33 38.26 50.9 39.3 50.9 39.3 Z M 55.6 38.2 L 55.6 33.1 L 56.1 33.1 L 56.1 36.6 L 58.1 34.6 L 58.7 34.6 L 57.2 36.1 L 58.8 38.2 L 58.1 38.2 L 56.9 36.5 L 56.1 37.3 L 56.1 38.2 L 55.6 38.2 Z M 62.1 37.6 C 61.8 38 61.4 38.3 60.8 38.3 C 60.4 38.3 60.1 38.1 59.8 37.9 C 59.6 37.6 59.4 37.3 59.4 36.8 C 59.44 36.83 59.4 34.6 59.4 34.6 L 60 34.6 C 60 34.6 59.98 36.69 60 36.7 C 60 37 60.1 37.3 60.2 37.5 C 60.4 37.7 60.7 37.8 61 37.8 C 61.3 37.8 61.5 37.7 61.8 37.5 C 62 37.3 62.1 37 62.1 36.7 C 62.06 36.65 62.1 34.6 62.1 34.6 L 62.6 34.6 L 62.6 38.2 L 62.1 38.2 L 62.1 37.6 C 62.1 37.6 62.06 37.57 62.1 37.6 Z M 63.8 38.2 L 63.8 34.6 L 64.3 34.6 C 64.3 34.6 64.34 35.53 64.3 35.5 C 64.5 35.2 64.7 35 64.9 34.8 C 65.2 34.6 65.5 34.5 65.8 34.5 C 65.82 34.52 65.8 35.1 65.8 35.1 C 65.8 35.1 65.78 35.1 65.8 35.1 C 65.4 35.1 65 35.2 64.8 35.5 C 64.5 35.8 64.3 36.2 64.3 36.8 C 64.34 36.76 64.3 38.2 64.3 38.2 L 63.8 38.2 Z M 67.5 39.3 L 67 39 C 67 39 67.53 38.25 67.5 38.2 C 67.1 38.2 66.7 38 66.3 37.7 C 66.3 37.7 66.6 37.4 66.6 37.4 C 67 37.7 67.4 37.8 67.9 37.8 C 68.1 37.8 68.3 37.8 68.4 37.7 C 68.5 37.6 68.6 37.4 68.6 37.2 C 68.6 37.2 68.6 37.2 68.6 37.2 C 68.6 37.1 68.5 36.9 68.4 36.8 C 68.2 36.8 68 36.7 67.7 36.6 C 67.6 36.6 67.5 36.5 67.4 36.5 C 67.4 36.5 67.3 36.4 67.2 36.4 C 67 36.4 67 36.3 66.9 36.3 C 66.8 36.2 66.8 36.2 66.7 36.1 C 66.6 36 66.6 36 66.6 35.9 C 66.5 35.8 66.5 35.7 66.5 35.6 C 66.5 35.6 66.5 35.6 66.5 35.6 C 66.5 35.2 66.6 35 66.9 34.8 C 67.1 34.6 67.4 34.5 67.7 34.5 C 68.2 34.5 68.6 34.7 69 34.9 C 69 34.9 68.8 35.3 68.8 35.3 C 68.4 35.1 68.1 35 67.7 35 C 67.5 35 67.4 35 67.2 35.1 C 67.1 35.2 67 35.3 67 35.5 C 67 35.5 67 35.5 67 35.5 C 67 35.6 67.1 35.6 67.1 35.7 C 67.1 35.7 67.2 35.8 67.2 35.8 C 67.3 35.9 67.3 35.9 67.4 36 C 67.5 36 67.6 36 67.7 36 C 67.7 36.1 67.8 36.1 68 36.1 C 68.1 36.2 68.2 36.2 68.3 36.2 C 68.4 36.3 68.5 36.3 68.6 36.4 C 68.7 36.4 68.8 36.5 68.9 36.6 C 69 36.6 69 36.7 69.1 36.8 C 69.1 36.9 69.1 37 69.1 37.2 C 69.1 37.2 69.1 37.2 69.1 37.2 C 69.1 37.5 69 37.7 68.8 37.9 C 68.6 38.1 68.3 38.2 68 38.3 C 67.98 38.26 67.5 39.3 67.5 39.3 Z M 72.7 37.6 C 72.4 38 72 38.3 71.5 38.3 C 71 38.3 70.7 38.1 70.4 37.9 C 70.2 37.6 70.1 37.3 70.1 36.8 C 70.07 36.83 70.1 34.6 70.1 34.6 L 70.6 34.6 C 70.6 34.6 70.61 36.69 70.6 36.7 C 70.6 37 70.7 37.3 70.9 37.5 C 71 37.7 71.3 37.8 71.6 37.8 C 71.9 37.8 72.2 37.7 72.4 37.5 C 72.6 37.3 72.7 37 72.7 36.7 C 72.69 36.65 72.7 34.6 72.7 34.6 L 73.2 34.6 L 73.2 38.2 L 72.7 38.2 L 72.7 37.6 C 72.7 37.6 72.69 37.57 72.7 37.6 Z M 74.4 38.2 L 74.4 34.6 L 75 34.6 C 75 34.6 74.98 35.21 75 35.2 C 75.3 34.7 75.7 34.5 76.2 34.5 C 76.6 34.5 77 34.6 77.2 34.9 C 77.5 35.2 77.6 35.5 77.6 36 C 77.6 35.95 77.6 38.2 77.6 38.2 L 77.1 38.2 C 77.1 38.2 77.06 36.09 77.1 36.1 C 77.1 35.7 77 35.5 76.8 35.3 C 76.6 35.1 76.4 35 76.1 35 C 75.7 35 75.5 35.1 75.3 35.3 C 75.1 35.5 75 35.8 75 36.1 C 74.98 36.13 75 38.2 75 38.2 L 74.4 38.2 Z M 79.9 38.3 C 79.4 38.3 78.9 38.1 78.4 37.7 C 78.4 37.7 78.7 37.4 78.7 37.4 C 79.1 37.7 79.5 37.8 80 37.8 C 80.2 37.8 80.4 37.8 80.5 37.7 C 80.7 37.6 80.7 37.4 80.7 37.2 C 80.7 37.2 80.7 37.2 80.7 37.2 C 80.7 37.1 80.6 36.9 80.5 36.8 C 80.3 36.8 80.1 36.7 79.8 36.6 C 79.7 36.6 79.6 36.5 79.5 36.5 C 79.5 36.5 79.4 36.4 79.3 36.4 C 79.2 36.4 79.1 36.3 79 36.3 C 78.9 36.2 78.9 36.2 78.8 36.1 C 78.7 36 78.7 36 78.7 35.9 C 78.6 35.8 78.6 35.7 78.6 35.6 C 78.6 35.6 78.6 35.6 78.6 35.6 C 78.6 35.2 78.7 35 79 34.8 C 79.2 34.6 79.5 34.5 79.9 34.5 C 80.3 34.5 80.8 34.7 81.2 34.9 C 81.2 34.9 80.9 35.3 80.9 35.3 C 80.6 35.1 80.2 35 79.8 35 C 79.6 35 79.5 35 79.3 35.1 C 79.2 35.2 79.1 35.3 79.1 35.5 C 79.1 35.5 79.1 35.5 79.1 35.5 C 79.1 35.6 79.2 35.6 79.2 35.7 C 79.2 35.7 79.3 35.8 79.3 35.8 C 79.4 35.9 79.4 35.9 79.5 36 C 79.6 36 79.7 36 79.8 36 C 79.8 36.1 79.9 36.1 80.1 36.1 C 80.2 36.2 80.3 36.2 80.4 36.2 C 80.5 36.3 80.6 36.3 80.7 36.4 C 80.8 36.4 80.9 36.5 81 36.6 C 81.1 36.6 81.1 36.7 81.2 36.8 C 81.2 36.9 81.2 37 81.2 37.2 C 81.2 37.2 81.2 37.2 81.2 37.2 C 81.2 37.5 81.1 37.8 80.9 38 C 80.6 38.2 80.3 38.3 79.9 38.3 Z M 84.8 37.6 C 84.5 38 84.1 38.3 83.6 38.3 C 83.1 38.3 82.8 38.1 82.6 37.9 C 82.3 37.6 82.2 37.3 82.2 36.8 C 82.18 36.83 82.2 34.6 82.2 34.6 L 82.7 34.6 C 82.7 34.6 82.72 36.69 82.7 36.7 C 82.7 37 82.8 37.3 83 37.5 C 83.2 37.7 83.4 37.8 83.7 37.8 C 84 37.8 84.3 37.7 84.5 37.5 C 84.7 37.3 84.8 37 84.8 36.7 C 84.81 36.65 84.8 34.6 84.8 34.6 L 85.3 34.6 L 85.3 38.2 L 84.8 38.2 L 84.8 37.6 C 84.8 37.6 84.81 37.57 84.8 37.6 Z M 86.3 38.2 L 86.3 37.9 L 88.7 35 L 86.4 35 L 86.4 34.6 L 89.5 34.6 L 89.5 34.9 L 87.1 37.7 L 89.5 37.7 L 89.5 38.2 L 86.3 38.2 Z M 92.5 38.2 L 92.5 33.1 L 93.1 33.1 L 93.1 36.6 L 95 34.6 L 95.7 34.6 L 94.2 36.1 L 95.8 38.2 L 95.1 38.2 L 93.8 36.5 L 93.1 37.3 L 93.1 38.2 L 92.5 38.2 Z M 96.5 38.2 L 96.5 34.6 L 97.1 34.6 C 97.1 34.6 97.06 35.53 97.1 35.5 C 97.2 35.2 97.4 35 97.7 34.8 C 97.9 34.6 98.2 34.5 98.5 34.5 C 98.54 34.52 98.5 35.1 98.5 35.1 C 98.5 35.1 98.5 35.1 98.5 35.1 C 98.1 35.1 97.7 35.2 97.5 35.5 C 97.2 35.8 97.1 36.2 97.1 36.8 C 97.06 36.76 97.1 38.2 97.1 38.2 L 96.5 38.2 Z M 99.4 33.8 L 99.4 33.2 L 100 33.2 L 100 33.8 L 99.4 33.8 Z M 99.4 38.2 L 99.4 34.6 L 99.9 34.6 L 99.9 38.2 L 99.4 38.2 Z M 102.4 38.3 C 101.8 38.3 101.3 38.1 100.9 37.7 C 100.9 37.7 101.2 37.4 101.2 37.4 C 101.6 37.7 102 37.8 102.4 37.8 C 102.6 37.8 102.8 37.8 103 37.7 C 103.1 37.6 103.2 37.4 103.2 37.2 C 103.2 37.2 103.2 37.2 103.2 37.2 C 103.2 37.1 103.1 36.9 102.9 36.8 C 102.8 36.8 102.6 36.7 102.3 36.6 C 102.1 36.6 102 36.5 102 36.5 C 101.9 36.5 101.8 36.4 101.7 36.4 C 101.6 36.4 101.5 36.3 101.5 36.3 C 101.4 36.2 101.3 36.2 101.3 36.1 C 101.2 36 101.1 36 101.1 35.9 C 101.1 35.8 101.1 35.7 101.1 35.6 C 101.1 35.6 101.1 35.6 101.1 35.6 C 101.1 35.2 101.2 35 101.4 34.8 C 101.7 34.6 101.9 34.5 102.3 34.5 C 102.8 34.5 103.2 34.7 103.6 34.9 C 103.6 34.9 103.4 35.3 103.4 35.3 C 103 35.1 102.6 35 102.3 35 C 102.1 35 101.9 35 101.8 35.1 C 101.7 35.2 101.6 35.3 101.6 35.5 C 101.6 35.5 101.6 35.5 101.6 35.5 C 101.6 35.6 101.6 35.6 101.6 35.7 C 101.7 35.7 101.7 35.8 101.8 35.8 C 101.8 35.9 101.9 35.9 102 36 C 102.1 36 102.2 36 102.2 36 C 102.3 36.1 102.4 36.1 102.5 36.1 C 102.7 36.2 102.8 36.2 102.9 36.2 C 103 36.3 103.1 36.3 103.2 36.4 C 103.3 36.4 103.4 36.5 103.4 36.6 C 103.5 36.6 103.6 36.7 103.6 36.8 C 103.7 36.9 103.7 37 103.7 37.2 C 103.7 37.2 103.7 37.2 103.7 37.2 C 103.7 37.5 103.6 37.8 103.3 38 C 103.1 38.2 102.8 38.3 102.4 38.3 Z M 106.5 38.1 C 106.3 38.2 106.1 38.3 105.8 38.3 C 105.5 38.3 105.3 38.2 105.1 38 C 104.9 37.8 104.8 37.6 104.8 37.2 C 104.8 37.24 104.8 35.1 104.8 35.1 L 104.3 35.1 L 104.3 34.6 L 104.8 34.6 L 104.8 33.5 L 105.3 33.5 L 105.3 34.6 L 106.5 34.6 L 106.5 35.1 L 105.3 35.1 C 105.3 35.1 105.34 37.17 105.3 37.2 C 105.3 37.6 105.5 37.8 106 37.8 C 106.1 37.8 106.3 37.7 106.5 37.6 C 106.48 37.65 106.5 38.1 106.5 38.1 C 106.5 38.1 106.48 38.11 106.5 38.1 Z M 109.8 37.7 C 109.5 38.1 109.1 38.3 108.5 38.3 C 108.2 38.3 107.8 38.2 107.6 38 C 107.3 37.8 107.2 37.5 107.2 37.1 C 107.2 37.1 107.2 37.1 107.2 37.1 C 107.2 36.8 107.3 36.5 107.6 36.3 C 107.9 36.1 108.3 36 108.7 36 C 109.1 36 109.5 36 109.8 36.1 C 109.8 36.1 109.8 36 109.8 36 C 109.8 35.7 109.7 35.4 109.6 35.3 C 109.4 35.1 109.1 35 108.8 35 C 108.4 35 108 35.1 107.7 35.3 C 107.7 35.3 107.5 34.8 107.5 34.8 C 107.9 34.6 108.4 34.5 108.8 34.5 C 109.3 34.5 109.7 34.7 110 34.9 C 110.2 35.2 110.3 35.5 110.3 36 C 110.35 35.99 110.3 38.2 110.3 38.2 L 109.8 38.2 L 109.8 37.7 C 109.8 37.7 109.83 37.65 109.8 37.7 Z M 108.6 37.8 C 109 37.8 109.3 37.8 109.5 37.6 C 109.7 37.4 109.8 37.2 109.8 36.9 C 109.8 36.9 109.8 36.5 109.8 36.5 C 109.5 36.4 109.1 36.4 108.8 36.4 C 108.4 36.4 108.2 36.4 108 36.6 C 107.8 36.7 107.7 36.9 107.7 37.1 C 107.7 37.1 107.7 37.1 107.7 37.1 C 107.7 37.3 107.8 37.5 108 37.7 C 108.2 37.8 108.4 37.8 108.6 37.8 Z M 111.5 38.2 L 111.5 33.1 L 112.1 33.1 L 112.1 38.2 L 111.5 38.2 Z M 118.5 37.6 C 118.1 38.1 117.6 38.3 117.1 38.3 C 116.5 38.3 116.1 38.1 115.7 37.7 C 115.4 37.4 115.2 36.9 115.2 36.4 C 115.2 36.4 115.2 36.4 115.2 36.4 C 115.2 35.9 115.4 35.4 115.7 35.1 C 116.1 34.7 116.5 34.5 117.1 34.5 C 117.6 34.5 118.1 34.7 118.5 35.1 C 118.5 35.1 118.2 35.5 118.2 35.5 C 117.8 35.2 117.4 35 117.1 35 C 116.7 35 116.4 35.1 116.1 35.4 C 115.9 35.7 115.8 36 115.8 36.4 C 115.8 36.4 115.8 36.4 115.8 36.4 C 115.8 36.8 115.9 37.1 116.1 37.4 C 116.4 37.7 116.7 37.8 117.1 37.8 C 117.5 37.8 117.9 37.6 118.2 37.3 C 118.2 37.26 118.5 37.6 118.5 37.6 C 118.5 37.6 118.55 37.58 118.5 37.6 Z M 121.8 37.7 C 121.5 38.1 121.1 38.3 120.5 38.3 C 120.1 38.3 119.8 38.2 119.6 38 C 119.3 37.8 119.2 37.5 119.2 37.1 C 119.2 37.1 119.2 37.1 119.2 37.1 C 119.2 36.8 119.3 36.5 119.6 36.3 C 119.9 36.1 120.2 36 120.7 36 C 121.1 36 121.4 36 121.8 36.1 C 121.8 36.1 121.8 36 121.8 36 C 121.8 35.7 121.7 35.4 121.5 35.3 C 121.4 35.1 121.1 35 120.7 35 C 120.4 35 120 35.1 119.6 35.3 C 119.6 35.3 119.5 34.8 119.5 34.8 C 119.9 34.6 120.3 34.5 120.8 34.5 C 121.3 34.5 121.7 34.7 122 34.9 C 122.2 35.2 122.3 35.5 122.3 36 C 122.34 35.99 122.3 38.2 122.3 38.2 L 121.8 38.2 L 121.8 37.7 C 121.8 37.7 121.82 37.65 121.8 37.7 Z M 120.6 37.8 C 121 37.8 121.2 37.8 121.5 37.6 C 121.7 37.4 121.8 37.2 121.8 36.9 C 121.8 36.9 121.8 36.5 121.8 36.5 C 121.5 36.4 121.1 36.4 120.8 36.4 C 120.4 36.4 120.2 36.4 120 36.6 C 119.8 36.7 119.7 36.9 119.7 37.1 C 119.7 37.1 119.7 37.1 119.7 37.1 C 119.7 37.3 119.8 37.5 120 37.7 C 120.2 37.8 120.4 37.8 120.6 37.8 Z M 123.5 38.2 L 123.5 34.6 L 124 34.6 C 124 34.6 124.03 35.19 124 35.2 C 124.2 35 124.3 34.8 124.5 34.7 C 124.7 34.6 124.9 34.5 125.2 34.5 C 125.7 34.5 126.1 34.7 126.4 35.2 C 126.7 34.7 127.1 34.5 127.6 34.5 C 128.1 34.5 128.4 34.6 128.6 34.9 C 128.9 35.2 129 35.5 129 36 C 128.98 35.96 129 38.2 129 38.2 L 128.4 38.2 C 128.4 38.2 128.44 36.09 128.4 36.1 C 128.4 35.7 128.4 35.5 128.2 35.3 C 128 35.1 127.8 35 127.5 35 C 127.2 35 127 35.1 126.8 35.3 C 126.6 35.5 126.5 35.8 126.5 36.1 C 126.5 36.11 126.5 38.2 126.5 38.2 L 126 38.2 C 126 38.2 125.97 36.07 126 36.1 C 126 35.7 125.9 35.5 125.7 35.3 C 125.6 35.1 125.3 35 125 35 C 124.7 35 124.5 35.1 124.3 35.3 C 124.1 35.5 124 35.8 124 36.1 C 124.03 36.13 124 38.2 124 38.2 L 123.5 38.2 Z " stroke="none" fill="#4f4f4e"/>  </g>  <g id="Polygon363606">    <path d="M 53.9 18.2 L 53.9 17.3 C 53.9 17.3 55.56 16.01 55.6 16 C 55.9 15.7 56.1 15.5 56.2 15.4 C 56.3 15.2 56.4 15 56.4 14.8 C 56.4 14.6 56.3 14.5 56.2 14.4 C 56.1 14.3 55.9 14.2 55.7 14.2 C 55.6 14.2 55.4 14.2 55.3 14.3 C 55.1 14.4 54.9 14.6 54.7 14.9 C 54.7 14.9 54 14.2 54 14.2 C 54.3 13.9 54.5 13.6 54.8 13.5 C 55.1 13.3 55.4 13.2 55.8 13.2 C 56.3 13.2 56.7 13.4 57 13.6 C 57.3 13.9 57.5 14.3 57.5 14.7 C 57.5 14.7 57.5 14.8 57.5 14.8 C 57.5 15.1 57.4 15.5 57.2 15.7 C 57 16 56.7 16.3 56.2 16.7 C 56.22 16.65 55.4 17.3 55.4 17.3 L 57.6 17.3 L 57.6 18.2 L 53.9 18.2 Z M 60.6 18.2 L 60.6 17.1 L 58.2 17.1 L 58.1 16.4 L 60.7 13.3 L 61.7 13.3 L 61.7 16.3 L 62.3 16.3 L 62.3 17.1 L 61.7 17.1 L 61.7 18.2 L 60.6 18.2 Z M 59.3 16.3 L 60.6 16.3 L 60.6 14.7 L 59.3 16.3 Z M 65.5 18.2 L 65.5 17.1 L 63.1 17.1 L 62.9 16.4 L 65.6 13.3 L 66.5 13.3 L 66.5 16.3 L 67.1 16.3 L 67.1 17.1 L 66.5 17.1 L 66.5 18.2 L 65.5 18.2 Z M 64.1 16.3 L 65.5 16.3 L 65.5 14.7 L 64.1 16.3 Z M 69.7 18.3 C 68.9 18.3 68.2 18 67.8 17.4 C 67.8 17.4 68.5 16.7 68.5 16.7 C 68.8 17.1 69.2 17.3 69.7 17.3 C 69.9 17.3 70.1 17.3 70.2 17.2 C 70.3 17 70.4 16.9 70.4 16.7 C 70.4 16.7 70.4 16.7 70.4 16.7 C 70.4 16.5 70.3 16.4 70.1 16.2 C 70 16.1 69.7 16.1 69.4 16.1 C 69.41 16.09 69 16.1 69 16.1 L 68.8 15.4 L 70 14.2 L 68 14.2 L 68 13.3 L 71.4 13.3 L 71.4 14.1 C 71.4 14.1 70.11 15.29 70.1 15.3 C 71 15.4 71.4 15.9 71.4 16.7 C 71.4 16.7 71.4 16.7 71.4 16.7 C 71.4 17.2 71.3 17.5 70.9 17.8 C 70.6 18.1 70.2 18.3 69.7 18.3 Z M 72.9 16.9 C 73.2 17.2 73.6 17.3 73.9 17.3 C 74.2 17.3 74.4 17.2 74.5 17.1 C 74.7 17 74.8 16.8 74.8 16.7 C 74.9 16.5 74.9 16.4 74.9 16.2 C 74.7 16.4 74.3 16.5 73.9 16.5 C 73.4 16.5 73 16.4 72.7 16.1 C 72.3 15.8 72.2 15.4 72.2 14.9 C 72.2 14.9 72.2 14.9 72.2 14.9 C 72.2 14.4 72.4 14 72.7 13.7 C 73.1 13.4 73.5 13.2 74.1 13.2 C 74.4 13.2 74.7 13.3 74.9 13.3 C 75.1 13.4 75.3 13.6 75.5 13.7 C 75.9 14.1 76.1 14.8 76.1 15.6 C 76.1 15.6 76.1 15.6 76.1 15.6 C 76.1 16.4 75.9 17.1 75.5 17.6 C 75.1 18 74.6 18.3 73.9 18.3 C 73.3 18.3 72.8 18.1 72.3 17.7 C 72.3 17.7 72.9 16.9 72.9 16.9 C 72.9 16.9 72.87 16.88 72.9 16.9 Z M 74.1 15.6 C 74.4 15.6 74.6 15.6 74.7 15.4 C 74.9 15.3 75 15.1 75 14.9 C 75 14.9 75 14.9 75 14.9 C 75 14.7 74.9 14.5 74.7 14.3 C 74.6 14.2 74.4 14.1 74.1 14.1 C 73.8 14.1 73.6 14.2 73.5 14.3 C 73.3 14.5 73.3 14.7 73.3 14.9 C 73.3 14.9 73.3 14.9 73.3 14.9 C 73.3 15.1 73.3 15.3 73.5 15.4 C 73.6 15.6 73.9 15.6 74.1 15.6 Z " stroke="none" fill="#4f4f4e"/>  </g>  <g id="Polygon363605">    <path d="M 41.5 18.2 L 41.5 17.4 L 44.2 14.2 L 41.6 14.2 L 41.6 13.3 L 45.6 13.3 L 45.6 14.1 L 42.9 17.3 L 45.6 17.3 L 45.6 18.2 L 41.5 18.2 Z M 46.6 18.2 L 46.6 13.3 C 46.6 13.3 48.51 13.3 48.5 13.3 C 49.3 13.3 49.9 13.5 50.4 14 C 50.9 14.5 51.1 15 51.1 15.7 C 51.1 15.7 51.1 15.7 51.1 15.7 C 51.1 16.4 50.9 17 50.4 17.5 C 49.9 18 49.3 18.2 48.5 18.2 C 48.51 18.2 46.6 18.2 46.6 18.2 Z M 48.5 14.3 C 48.51 14.27 47.7 14.3 47.7 14.3 L 47.7 17.2 C 47.7 17.2 48.51 17.23 48.5 17.2 C 48.9 17.2 49.3 17.1 49.6 16.8 C 49.9 16.6 50 16.2 50 15.8 C 50 15.8 50 15.7 50 15.7 C 50 15.3 49.9 15 49.6 14.7 C 49.3 14.4 48.9 14.3 48.5 14.3 Z " stroke="none" fill="#000"/>  </g>  <g id="Polygon363604">    <path d="M 3 12.9 L 3 12.2 L 3.6 12.2 L 3.6 12.9 L 3 12.9 Z M 1.7 12.9 L 1.7 12.2 L 2.3 12.2 L 2.3 12.9 L 1.7 12.9 Z M 2.7 18.3 C 2 18.3 1.5 18.1 1.2 17.7 C 0.8 17.3 0.6 16.8 0.6 16.1 C 0.62 16.15 0.6 13.3 0.6 13.3 L 1.2 13.3 C 1.2 13.3 1.17 16.11 1.2 16.1 C 1.2 16.6 1.3 17 1.6 17.3 C 1.8 17.6 2.2 17.8 2.7 17.8 C 3.1 17.8 3.5 17.6 3.8 17.4 C 4 17.1 4.1 16.7 4.1 16.1 C 4.14 16.15 4.1 13.3 4.1 13.3 L 4.7 13.3 C 4.7 13.3 4.7 16.11 4.7 16.1 C 4.7 16.8 4.5 17.3 4.1 17.7 C 3.8 18.1 3.3 18.3 2.7 18.3 Z M 5.9 18.2 L 5.9 14.6 L 6.5 14.6 C 6.5 14.6 6.45 15.53 6.5 15.5 C 6.6 15.2 6.8 15 7 14.8 C 7.3 14.6 7.6 14.5 7.9 14.5 C 7.93 14.52 7.9 15.1 7.9 15.1 C 7.9 15.1 7.89 15.1 7.9 15.1 C 7.5 15.1 7.1 15.2 6.9 15.5 C 6.6 15.8 6.5 16.2 6.5 16.8 C 6.45 16.76 6.5 18.2 6.5 18.2 L 5.9 18.2 Z M 10.6 14 L 10.6 13.4 L 11.2 13.4 L 11.2 14 L 10.6 14 Z M 9.3 14 L 9.3 13.4 L 10 13.4 L 10 14 L 9.3 14 Z M 11.3 17.6 C 11 18 10.6 18.3 10.1 18.3 C 9.7 18.3 9.3 18.1 9.1 17.9 C 8.8 17.6 8.7 17.3 8.7 16.8 C 8.69 16.83 8.7 14.6 8.7 14.6 L 9.2 14.6 C 9.2 14.6 9.23 16.69 9.2 16.7 C 9.2 17 9.3 17.3 9.5 17.5 C 9.7 17.7 9.9 17.8 10.2 17.8 C 10.5 17.8 10.8 17.7 11 17.5 C 11.2 17.3 11.3 17 11.3 16.7 C 11.32 16.65 11.3 14.6 11.3 14.6 L 11.9 14.6 L 11.9 18.2 L 11.3 18.2 L 11.3 17.6 C 11.3 17.6 11.32 17.57 11.3 17.6 Z M 13.1 18.2 L 13.1 14.6 L 13.6 14.6 C 13.6 14.6 13.6 15.21 13.6 15.2 C 13.9 14.7 14.3 14.5 14.8 14.5 C 15.3 14.5 15.6 14.6 15.9 14.9 C 16.1 15.2 16.2 15.5 16.2 16 C 16.23 15.95 16.2 18.2 16.2 18.2 L 15.7 18.2 C 15.7 18.2 15.69 16.09 15.7 16.1 C 15.7 15.7 15.6 15.5 15.4 15.3 C 15.2 15.1 15 15 14.7 15 C 14.4 15 14.1 15.1 13.9 15.3 C 13.7 15.5 13.6 15.8 13.6 16.1 C 13.6 16.13 13.6 18.2 13.6 18.2 L 13.1 18.2 Z M 19.6 18.2 L 19.6 13.3 L 20.1 13.3 L 20.1 16.2 L 22.9 13.3 L 23.7 13.3 L 21.5 15.4 L 23.7 18.2 L 23 18.2 L 21.2 15.8 L 20.1 16.9 L 20.1 18.2 L 19.6 18.2 Z M 25.9 18.3 C 25.4 18.3 25 18.1 24.6 17.7 C 24.3 17.4 24.1 16.9 24.1 16.4 C 24.1 16.4 24.1 16.4 24.1 16.4 C 24.1 15.9 24.3 15.4 24.6 15.1 C 25 14.7 25.4 14.5 26 14.5 C 26.5 14.5 26.9 14.7 27.3 15.1 C 27.7 15.4 27.8 15.9 27.8 16.4 C 27.8 16.4 27.8 16.4 27.8 16.4 C 27.8 16.9 27.7 17.4 27.3 17.7 C 26.9 18.1 26.5 18.3 25.9 18.3 Z M 26 17.8 C 26.3 17.8 26.7 17.7 26.9 17.4 C 27.2 17.1 27.3 16.8 27.3 16.4 C 27.3 16.4 27.3 16.4 27.3 16.4 C 27.3 16 27.2 15.7 26.9 15.4 C 26.6 15.1 26.3 15 25.9 15 C 25.6 15 25.3 15.1 25 15.4 C 24.8 15.7 24.6 16 24.6 16.4 C 24.6 16.4 24.6 16.4 24.6 16.4 C 24.6 16.8 24.8 17.1 25 17.4 C 25.3 17.7 25.6 17.8 26 17.8 Z M 31.7 17.5 C 31.4 18 30.9 18.3 30.3 18.3 C 29.9 18.3 29.5 18.1 29.1 17.8 C 28.8 17.4 28.6 17 28.6 16.4 C 28.6 16.4 28.6 16.4 28.6 16.4 C 28.6 15.8 28.8 15.4 29.1 15 C 29.5 14.7 29.9 14.5 30.3 14.5 C 30.9 14.5 31.4 14.8 31.7 15.3 C 31.72 15.27 31.7 13.1 31.7 13.1 L 32.3 13.1 L 32.3 18.2 L 31.7 18.2 L 31.7 17.5 C 31.7 17.5 31.72 17.47 31.7 17.5 Z M 30.4 17.8 C 30.8 17.8 31.1 17.7 31.4 17.4 C 31.6 17.1 31.7 16.8 31.7 16.4 C 31.7 16.4 31.7 16.4 31.7 16.4 C 31.7 16 31.6 15.6 31.4 15.4 C 31.1 15.1 30.8 15 30.4 15 C 30.1 15 29.8 15.1 29.5 15.4 C 29.3 15.6 29.2 16 29.2 16.4 C 29.2 16.4 29.2 16.4 29.2 16.4 C 29.2 16.8 29.3 17.2 29.5 17.4 C 29.8 17.7 30.1 17.8 30.4 17.8 Z M 36 17.6 C 35.7 18 35.3 18.3 34.8 18.3 C 34.4 18.3 34 18.1 33.8 17.9 C 33.5 17.6 33.4 17.3 33.4 16.8 C 33.41 16.83 33.4 14.6 33.4 14.6 L 34 14.6 C 34 14.6 33.95 16.69 34 16.7 C 34 17 34 17.3 34.2 17.5 C 34.4 17.7 34.6 17.8 35 17.8 C 35.3 17.8 35.5 17.7 35.7 17.5 C 35.9 17.3 36 17 36 16.7 C 36.04 16.65 36 14.6 36 14.6 L 36.6 14.6 L 36.6 18.2 L 36 18.2 L 36 17.6 C 36 17.6 36.04 17.57 36 17.6 Z M 37.7 15.3 L 37.7 14.6 L 38.4 14.6 L 38.4 15.3 L 37.7 15.3 Z M 37.7 18.2 L 37.7 17.5 L 38.4 17.5 L 38.4 18.2 L 37.7 18.2 Z " stroke="none" fill="#4f4f4e"/>  </g>  <g id="Polygon363603">    <path d="M 0.8 7.2 L 0.8 0.9 L 2.1 0.9 L 2.1 3.7 L 4.7 0.9 L 6.4 0.9 L 3.8 3.6 L 6.5 7.2 L 4.8 7.2 L 2.9 4.5 L 2.1 5.3 L 2.1 7.2 L 0.8 7.2 Z M 7.2 7.2 L 7.2 2.4 L 8.6 2.4 L 8.6 7.2 L 7.2 7.2 Z M 9.9 7.2 L 9.9 2.4 L 11.3 2.4 C 11.3 2.4 11.27 3.35 11.3 3.3 C 11.6 2.6 12.1 2.3 12.8 2.3 C 12.81 2.29 12.8 3.7 12.8 3.7 C 12.8 3.7 12.73 3.72 12.7 3.7 C 12.3 3.7 11.9 3.9 11.7 4.1 C 11.4 4.4 11.3 4.8 11.3 5.4 C 11.27 5.42 11.3 7.2 11.3 7.2 L 9.9 7.2 Z M 13.7 7.2 L 13.7 2.4 L 15 2.4 C 15 2.4 15.03 3.06 15 3.1 C 15.4 2.5 15.9 2.3 16.5 2.3 C 17.1 2.3 17.6 2.5 17.8 3.1 C 18.2 2.5 18.8 2.3 19.4 2.3 C 19.9 2.3 20.3 2.4 20.6 2.7 C 20.9 3 21 3.5 21 4.1 C 21.02 4.06 21 7.2 21 7.2 L 19.7 7.2 C 19.7 7.2 19.66 4.51 19.7 4.5 C 19.7 3.9 19.4 3.5 18.9 3.5 C 18.6 3.5 18.4 3.6 18.2 3.8 C 18.1 3.9 18 4.2 18 4.5 C 18.03 4.51 18 7.2 18 7.2 L 16.7 7.2 C 16.7 7.2 16.66 4.51 16.7 4.5 C 16.7 3.9 16.4 3.5 15.9 3.5 C 15.6 3.5 15.4 3.6 15.3 3.8 C 15.1 3.9 15 4.2 15 4.5 C 15.03 4.51 15 7.2 15 7.2 L 13.7 7.2 Z M 22.3 7.2 L 22.3 2.4 L 23.6 2.4 L 23.6 7.2 L 22.3 7.2 Z M 24.8 7.2 L 24.8 6.2 L 27.3 3.5 L 24.8 3.5 L 24.8 2.4 L 29 2.4 L 29 3.3 L 26.5 6.1 L 29 6.1 L 29 7.2 L 24.8 7.2 Z M 30.1 7.2 L 30.1 2.4 L 31.4 2.4 L 31.4 7.2 L 30.1 7.2 Z M 37.6 8.8 L 36.5 8.3 C 36.5 8.3 37.2 7.24 37.2 7.2 C 36.4 7.1 35.7 6.8 35.1 6.3 C 35.1 6.3 35.9 5.3 35.9 5.3 C 36.6 5.8 37.2 6.1 37.8 6.1 C 38.1 6.1 38.3 6 38.5 5.9 C 38.7 5.8 38.7 5.7 38.7 5.5 C 38.7 5.5 38.7 5.5 38.7 5.5 C 38.7 5.3 38.7 5.1 38.5 5 C 38.3 4.9 38 4.8 37.5 4.7 C 37.1 4.6 36.8 4.5 36.6 4.4 C 36.4 4.3 36.2 4.2 36 4 C 35.8 3.9 35.6 3.7 35.5 3.5 C 35.4 3.3 35.4 3 35.4 2.7 C 35.4 2.7 35.4 2.7 35.4 2.7 C 35.4 2.1 35.6 1.7 36 1.3 C 36.4 1 36.9 0.8 37.6 0.8 C 38.5 0.8 39.3 1.1 39.9 1.6 C 39.9 1.6 39.2 2.7 39.2 2.7 C 38.6 2.2 38.1 2 37.6 2 C 37.3 2 37.1 2.1 37 2.2 C 36.8 2.3 36.8 2.4 36.8 2.6 C 36.8 2.6 36.8 2.6 36.8 2.6 C 36.8 2.8 36.8 3 37 3.1 C 37.2 3.2 37.6 3.3 38.1 3.4 C 38.8 3.6 39.3 3.8 39.6 4.1 C 40 4.4 40.1 4.8 40.1 5.3 C 40.1 5.3 40.1 5.3 40.1 5.3 C 40.1 5.9 39.9 6.3 39.6 6.7 C 39.3 7 38.8 7.2 38.2 7.3 C 38.24 7.26 37.6 8.8 37.6 8.8 Z M 44 6.7 C 43.6 7.1 43.1 7.3 42.5 7.3 C 42.1 7.3 41.7 7.2 41.4 6.9 C 41 6.6 40.9 6.3 40.9 5.8 C 40.9 5.8 40.9 5.8 40.9 5.8 C 40.9 5.3 41.1 4.9 41.4 4.6 C 41.8 4.4 42.2 4.3 42.8 4.3 C 43.2 4.3 43.6 4.3 44 4.5 C 44 4.5 44 4.4 44 4.4 C 44 3.8 43.7 3.5 43 3.5 C 42.5 3.5 42.1 3.6 41.6 3.8 C 41.6 3.8 41.3 2.7 41.3 2.7 C 41.9 2.5 42.5 2.3 43.2 2.3 C 43.9 2.3 44.4 2.5 44.8 2.9 C 45.1 3.2 45.3 3.7 45.3 4.4 C 45.32 4.4 45.3 7.2 45.3 7.2 L 44 7.2 L 44 6.7 C 44 6.7 44 6.68 44 6.7 Z M 43 6.3 C 43.3 6.3 43.5 6.3 43.7 6.1 C 43.9 6 44 5.8 44 5.5 C 44 5.5 44 5.3 44 5.3 C 43.8 5.1 43.5 5.1 43.2 5.1 C 42.9 5.1 42.6 5.1 42.5 5.2 C 42.3 5.4 42.2 5.5 42.2 5.7 C 42.2 5.7 42.2 5.8 42.2 5.8 C 42.2 5.9 42.3 6.1 42.4 6.2 C 42.6 6.3 42.7 6.3 43 6.3 Z M 46.5 7.2 L 46.5 2.4 L 47.9 2.4 C 47.9 2.4 47.87 3.35 47.9 3.3 C 48.2 2.6 48.7 2.3 49.4 2.3 C 49.41 2.29 49.4 3.7 49.4 3.7 C 49.4 3.7 49.34 3.72 49.3 3.7 C 48.9 3.7 48.5 3.9 48.3 4.1 C 48 4.4 47.9 4.8 47.9 5.4 C 47.87 5.42 47.9 7.2 47.9 7.2 L 46.5 7.2 Z M 52.9 6.7 C 52.5 7.1 52 7.3 51.4 7.3 C 50.9 7.3 50.5 7.2 50.2 6.9 C 49.9 6.6 49.8 6.3 49.8 5.8 C 49.8 5.8 49.8 5.8 49.8 5.8 C 49.8 5.3 49.9 4.9 50.3 4.6 C 50.6 4.4 51.1 4.3 51.7 4.3 C 52.1 4.3 52.5 4.3 52.9 4.5 C 52.9 4.5 52.9 4.4 52.9 4.4 C 52.9 3.8 52.5 3.5 51.8 3.5 C 51.4 3.5 51 3.6 50.5 3.8 C 50.5 3.8 50.2 2.7 50.2 2.7 C 50.8 2.5 51.4 2.3 52 2.3 C 52.8 2.3 53.3 2.5 53.7 2.9 C 54 3.2 54.2 3.7 54.2 4.4 C 54.19 4.4 54.2 7.2 54.2 7.2 L 52.9 7.2 L 52.9 6.7 C 52.9 6.7 52.87 6.68 52.9 6.7 Z M 51.8 6.3 C 52.1 6.3 52.4 6.3 52.6 6.1 C 52.8 6 52.9 5.8 52.9 5.5 C 52.9 5.5 52.9 5.3 52.9 5.3 C 52.6 5.1 52.3 5.1 52 5.1 C 51.7 5.1 51.5 5.1 51.3 5.2 C 51.2 5.4 51.1 5.5 51.1 5.7 C 51.1 5.7 51.1 5.8 51.1 5.8 C 51.1 5.9 51.1 6.1 51.3 6.2 C 51.4 6.3 51.6 6.3 51.8 6.3 Z M 55.4 8.6 L 55.4 2.4 L 56.7 2.4 C 56.7 2.4 56.74 3.07 56.7 3.1 C 57.1 2.5 57.6 2.3 58.2 2.3 C 58.8 2.3 59.4 2.5 59.8 3 C 60.2 3.4 60.4 4 60.4 4.8 C 60.4 4.8 60.4 4.8 60.4 4.8 C 60.4 5.6 60.2 6.2 59.8 6.6 C 59.4 7.1 58.8 7.3 58.2 7.3 C 57.6 7.3 57.1 7 56.7 6.6 C 56.74 6.57 56.7 8.6 56.7 8.6 L 55.4 8.6 Z M 56.7 4.8 C 56.7 5.2 56.8 5.5 57.1 5.8 C 57.3 6 57.6 6.1 57.9 6.1 C 58.2 6.1 58.5 6 58.7 5.8 C 59 5.5 59.1 5.2 59.1 4.8 C 59.1 4.8 59.1 4.8 59.1 4.8 C 59.1 4.4 59 4.1 58.7 3.8 C 58.5 3.6 58.2 3.4 57.9 3.4 C 57.6 3.4 57.3 3.6 57.1 3.8 C 56.8 4.1 56.7 4.4 56.7 4.8 C 56.72 4.78 56.7 4.8 56.7 4.8 C 56.7 4.8 56.72 4.8 56.7 4.8 Z M 64.3 7.2 L 64.3 0.9 C 64.3 0.9 67.21 0.9 67.2 0.9 C 67.9 0.9 68.5 1.1 68.9 1.5 C 69.1 1.7 69.3 2.1 69.3 2.5 C 69.3 2.5 69.3 2.5 69.3 2.5 C 69.3 3.2 69 3.6 68.5 3.9 C 68.9 4.1 69.1 4.3 69.3 4.5 C 69.5 4.7 69.6 5.1 69.6 5.5 C 69.6 5.5 69.6 5.5 69.6 5.5 C 69.6 6 69.4 6.5 69 6.8 C 68.6 7.1 68 7.2 67.3 7.2 C 67.28 7.2 64.3 7.2 64.3 7.2 Z M 66.9 3.4 C 67.6 3.4 67.9 3.2 67.9 2.8 C 67.9 2.8 67.9 2.8 67.9 2.8 C 67.9 2.3 67.6 2.1 67 2.1 C 67 2.11 65.6 2.1 65.6 2.1 L 65.6 3.4 L 66.9 3.4 C 66.9 3.4 66.92 3.45 66.9 3.4 Z M 67.3 6 C 67.9 6 68.3 5.8 68.3 5.3 C 68.3 5.3 68.3 5.3 68.3 5.3 C 68.3 4.8 67.9 4.6 67.2 4.6 C 67.24 4.6 65.6 4.6 65.6 4.6 L 65.6 6 L 67.3 6 C 67.3 6 67.28 5.98 67.3 6 Z M 73.5 6.7 C 73.1 7.1 72.6 7.3 72 7.3 C 71.5 7.3 71.1 7.2 70.8 6.9 C 70.5 6.6 70.4 6.3 70.4 5.8 C 70.4 5.8 70.4 5.8 70.4 5.8 C 70.4 5.3 70.5 4.9 70.9 4.6 C 71.2 4.4 71.7 4.3 72.3 4.3 C 72.7 4.3 73.1 4.3 73.5 4.5 C 73.5 4.5 73.5 4.4 73.5 4.4 C 73.5 3.8 73.1 3.5 72.4 3.5 C 72 3.5 71.6 3.6 71.1 3.8 C 71.1 3.8 70.8 2.7 70.8 2.7 C 71.4 2.5 72 2.3 72.6 2.3 C 73.4 2.3 73.9 2.5 74.3 2.9 C 74.6 3.2 74.8 3.7 74.8 4.4 C 74.79 4.4 74.8 7.2 74.8 7.2 L 73.5 7.2 L 73.5 6.7 C 73.5 6.7 73.47 6.68 73.5 6.7 Z M 72.4 6.3 C 72.7 6.3 73 6.3 73.2 6.1 C 73.4 6 73.5 5.8 73.5 5.5 C 73.5 5.5 73.5 5.3 73.5 5.3 C 73.2 5.1 72.9 5.1 72.6 5.1 C 72.3 5.1 72.1 5.1 71.9 5.2 C 71.8 5.4 71.7 5.5 71.7 5.7 C 71.7 5.7 71.7 5.8 71.7 5.8 C 71.7 5.9 71.7 6.1 71.9 6.2 C 72 6.3 72.2 6.3 72.4 6.3 Z M 76 7.2 L 76 2.4 L 77.3 2.4 C 77.3 2.4 77.34 3.35 77.3 3.3 C 77.6 2.6 78.2 2.3 78.9 2.3 C 78.88 2.29 78.9 3.7 78.9 3.7 C 78.9 3.7 78.8 3.72 78.8 3.7 C 78.3 3.7 78 3.9 77.7 4.1 C 77.5 4.4 77.3 4.8 77.3 5.4 C 77.34 5.42 77.3 7.2 77.3 7.2 L 76 7.2 Z M 83.1 6.5 C 82.7 7 82.2 7.3 81.6 7.3 C 81 7.3 80.5 7.1 80.1 6.6 C 79.6 6.2 79.4 5.6 79.4 4.8 C 79.4 4.8 79.4 4.8 79.4 4.8 C 79.4 4 79.6 3.4 80.1 3 C 80.5 2.5 81 2.3 81.6 2.3 C 82.2 2.3 82.7 2.5 83.1 3 C 83.12 3.01 83.1 0.6 83.1 0.6 L 84.5 0.6 L 84.5 7.2 L 83.1 7.2 L 83.1 6.5 C 83.1 6.5 83.12 6.51 83.1 6.5 Z M 80.8 4.8 C 80.8 5.2 80.9 5.5 81.1 5.8 C 81.4 6 81.6 6.1 82 6.1 C 82.3 6.1 82.6 6 82.8 5.8 C 83 5.5 83.1 5.2 83.1 4.8 C 83.1 4.8 83.1 4.8 83.1 4.8 C 83.1 4.4 83 4.1 82.8 3.8 C 82.6 3.6 82.3 3.4 82 3.4 C 81.6 3.4 81.4 3.6 81.1 3.8 C 80.9 4.1 80.8 4.4 80.8 4.8 C 80.79 4.78 80.8 4.8 80.8 4.8 C 80.8 4.8 80.79 4.8 80.8 4.8 Z M 88.5 6.7 C 88.2 7.1 87.7 7.3 87.1 7.3 C 86.6 7.3 86.2 7.2 85.9 6.9 C 85.6 6.6 85.4 6.3 85.4 5.8 C 85.4 5.8 85.4 5.8 85.4 5.8 C 85.4 5.3 85.6 4.9 86 4.6 C 86.3 4.4 86.8 4.3 87.4 4.3 C 87.8 4.3 88.2 4.3 88.6 4.5 C 88.6 4.5 88.6 4.4 88.6 4.4 C 88.6 3.8 88.2 3.5 87.5 3.5 C 87.1 3.5 86.6 3.6 86.2 3.8 C 86.2 3.8 85.8 2.7 85.8 2.7 C 86.4 2.5 87.1 2.3 87.7 2.3 C 88.4 2.3 89 2.5 89.3 2.9 C 89.7 3.2 89.9 3.7 89.9 4.4 C 89.86 4.4 89.9 7.2 89.9 7.2 L 88.5 7.2 L 88.5 6.7 C 88.5 6.7 88.54 6.68 88.5 6.7 Z M 87.5 6.3 C 87.8 6.3 88.1 6.3 88.3 6.1 C 88.5 6 88.6 5.8 88.6 5.5 C 88.6 5.5 88.6 5.3 88.6 5.3 C 88.3 5.1 88 5.1 87.7 5.1 C 87.4 5.1 87.2 5.1 87 5.2 C 86.8 5.4 86.8 5.5 86.8 5.7 C 86.8 5.7 86.8 5.8 86.8 5.8 C 86.8 5.9 86.8 6.1 87 6.2 C 87.1 6.3 87.3 6.3 87.5 6.3 Z M 95.3 8 C 94.9 8.4 94.2 8.7 93.2 8.7 C 92.4 8.7 91.7 8.5 91.1 8.2 C 91.1 8.2 91.5 7.1 91.5 7.1 C 92.1 7.4 92.6 7.6 93.2 7.6 C 94.1 7.6 94.5 7.1 94.5 6.3 C 94.5 6.3 94.5 6 94.5 6 C 94.3 6.3 94.1 6.5 93.9 6.6 C 93.6 6.7 93.3 6.8 93 6.8 C 92.4 6.8 91.9 6.6 91.5 6.2 C 91 5.8 90.8 5.2 90.8 4.6 C 90.8 4.6 90.8 4.5 90.8 4.5 C 90.8 3.8 91 3.3 91.5 2.9 C 91.9 2.5 92.4 2.3 93 2.3 C 93.6 2.3 94.1 2.5 94.5 3 C 94.53 3.01 94.5 2.4 94.5 2.4 L 95.9 2.4 C 95.9 2.4 95.89 6.11 95.9 6.1 C 95.9 7 95.7 7.6 95.3 8 C 95.3 8 95.3 8 95.3 8 Z M 92.2 4.6 C 92.2 4.9 92.3 5.2 92.5 5.4 C 92.7 5.6 93 5.7 93.4 5.7 C 93.7 5.7 94 5.6 94.2 5.4 C 94.4 5.1 94.5 4.9 94.5 4.6 C 94.5 4.6 94.5 4.5 94.5 4.5 C 94.5 4.2 94.4 3.9 94.2 3.7 C 94 3.5 93.7 3.4 93.4 3.4 C 93 3.4 92.8 3.5 92.5 3.7 C 92.3 3.9 92.2 4.2 92.2 4.5 C 92.2 4.54 92.2 4.6 92.2 4.6 C 92.2 4.6 92.2 4.55 92.2 4.6 Z M 95.2 0.4 C 95.2 0.9 95 1.2 94.7 1.5 C 94.4 1.7 94 1.9 93.5 1.9 C 93.1 1.9 92.7 1.7 92.4 1.5 C 92.1 1.2 91.9 0.9 91.8 0.4 C 91.8 0.4 92.8 0.4 92.8 0.4 C 92.9 0.8 93.1 1 93.5 1 C 93.9 1 94.2 0.8 94.3 0.4 C 94.31 0.43 95.2 0.4 95.2 0.4 C 95.2 0.4 95.23 0.43 95.2 0.4 Z M 97.2 7.2 L 97.2 2.4 L 98.5 2.4 L 98.5 7.2 L 97.2 7.2 Z " stroke="none" fill="#4f4f4e"/>  </g></svg>