<?xml version="1.0" standalone="no"?><!DOCTYPE svg PUBLIC "-//W3C//DTD SVG 1.1//EN" "http://www.w3.org/Graphics/SVG/1.1/DTD/svg11.dtd"><svg xmlns="http://www.w3.org/2000/svg" version="1.1" width="93px" height="93.4px" viewBox="0 -3 93 93.4" style="top:-3px">  <desc>Sabun Kab – Singles r n Kodu: ZD 33560 Renk: Indigo ABS / Silikon D 7 cm, H 15 cm Tasar m: VE2</desc>  <defs/>  <g id="Polygon380141">    <path d="M 2 59.6 L 2 55.2 L 0.3 55.2 L 0.3 54.7 L 4.2 54.7 L 4.2 55.2 L 2.5 55.2 L 2.5 59.6 L 2 59.6 Z M 6.6 59.1 C 6.3 59.5 5.9 59.7 5.3 59.7 C 4.9 59.7 4.6 59.6 4.4 59.4 C 4.1 59.2 4 58.9 4 58.5 C 4 58.5 4 58.5 4 58.5 C 4 58.2 4.1 57.9 4.4 57.7 C 4.7 57.5 5 57.4 5.5 57.4 C 5.9 57.4 6.2 57.4 6.6 57.5 C 6.6 57.5 6.6 57.4 6.6 57.4 C 6.6 57.1 6.5 56.8 6.3 56.7 C 6.1 56.5 5.9 56.4 5.5 56.4 C 5.2 56.4 4.8 56.5 4.4 56.7 C 4.4 56.7 4.3 56.2 4.3 56.2 C 4.7 56 5.1 55.9 5.6 55.9 C 6.1 55.9 6.5 56.1 6.8 56.3 C 7 56.6 7.1 56.9 7.1 57.4 C 7.13 57.39 7.1 59.6 7.1 59.6 L 6.6 59.6 L 6.6 59.1 C 6.6 59.1 6.62 59.05 6.6 59.1 Z M 5.4 59.2 C 5.8 59.2 6 59.2 6.3 59 C 6.5 58.8 6.6 58.6 6.6 58.3 C 6.6 58.3 6.6 57.9 6.6 57.9 C 6.3 57.8 5.9 57.8 5.6 57.8 C 5.2 57.8 5 57.8 4.8 58 C 4.6 58.1 4.5 58.3 4.5 58.5 C 4.5 58.5 4.5 58.5 4.5 58.5 C 4.5 58.7 4.6 58.9 4.8 59.1 C 4.9 59.2 5.2 59.2 5.4 59.2 Z M 9.5 59.7 C 8.9 59.7 8.4 59.5 8 59.1 C 8 59.1 8.3 58.8 8.3 58.8 C 8.7 59.1 9.1 59.2 9.5 59.2 C 9.7 59.2 9.9 59.2 10 59.1 C 10.2 59 10.3 58.8 10.3 58.6 C 10.3 58.6 10.3 58.6 10.3 58.6 C 10.3 58.5 10.2 58.3 10 58.2 C 9.9 58.2 9.6 58.1 9.4 58 C 9.2 58 9.1 57.9 9.1 57.9 C 9 57.9 8.9 57.8 8.8 57.8 C 8.7 57.8 8.6 57.7 8.5 57.7 C 8.5 57.6 8.4 57.6 8.3 57.5 C 8.3 57.4 8.2 57.4 8.2 57.3 C 8.2 57.2 8.2 57.1 8.2 57 C 8.2 57 8.2 57 8.2 57 C 8.2 56.6 8.3 56.4 8.5 56.2 C 8.7 56 9 55.9 9.4 55.9 C 9.9 55.9 10.3 56.1 10.7 56.3 C 10.7 56.3 10.4 56.7 10.4 56.7 C 10.1 56.5 9.7 56.4 9.4 56.4 C 9.2 56.4 9 56.4 8.9 56.5 C 8.7 56.6 8.7 56.7 8.7 56.9 C 8.7 56.9 8.7 56.9 8.7 56.9 C 8.7 57 8.7 57 8.7 57.1 C 8.8 57.1 8.8 57.2 8.9 57.2 C 8.9 57.3 9 57.3 9.1 57.4 C 9.2 57.4 9.3 57.4 9.3 57.4 C 9.4 57.5 9.5 57.5 9.6 57.5 C 9.7 57.6 9.9 57.6 9.9 57.6 C 10 57.7 10.1 57.7 10.3 57.8 C 10.4 57.8 10.5 57.9 10.5 58 C 10.6 58 10.6 58.1 10.7 58.2 C 10.7 58.3 10.8 58.4 10.8 58.6 C 10.8 58.6 10.8 58.6 10.8 58.6 C 10.8 58.9 10.6 59.2 10.4 59.4 C 10.2 59.6 9.9 59.7 9.5 59.7 Z M 14.2 59.1 C 13.8 59.5 13.4 59.7 12.8 59.7 C 12.5 59.7 12.2 59.6 11.9 59.4 C 11.6 59.2 11.5 58.9 11.5 58.5 C 11.5 58.5 11.5 58.5 11.5 58.5 C 11.5 58.2 11.6 57.9 11.9 57.7 C 12.2 57.5 12.6 57.4 13 57.4 C 13.4 57.4 13.8 57.4 14.2 57.5 C 14.2 57.5 14.2 57.4 14.2 57.4 C 14.2 57.1 14.1 56.8 13.9 56.7 C 13.7 56.5 13.4 56.4 13.1 56.4 C 12.7 56.4 12.3 56.5 12 56.7 C 12 56.7 11.8 56.2 11.8 56.2 C 12.2 56 12.7 55.9 13.1 55.9 C 13.6 55.9 14 56.1 14.3 56.3 C 14.5 56.6 14.7 56.9 14.7 57.4 C 14.67 57.39 14.7 59.6 14.7 59.6 L 14.2 59.6 L 14.2 59.1 C 14.2 59.1 14.15 59.05 14.2 59.1 Z M 12.9 59.2 C 13.3 59.2 13.6 59.2 13.8 59 C 14 58.8 14.2 58.6 14.2 58.3 C 14.2 58.3 14.2 57.9 14.2 57.9 C 13.8 57.8 13.4 57.8 13.1 57.8 C 12.8 57.8 12.5 57.8 12.3 58 C 12.1 58.1 12 58.3 12 58.5 C 12 58.5 12 58.5 12 58.5 C 12 58.7 12.1 58.9 12.3 59.1 C 12.5 59.2 12.7 59.2 12.9 59.2 Z M 15.8 59.6 L 15.8 56 L 16.4 56 C 16.4 56 16.36 56.93 16.4 56.9 C 16.5 56.6 16.7 56.4 17 56.2 C 17.2 56 17.5 55.9 17.8 55.9 C 17.84 55.92 17.8 56.5 17.8 56.5 C 17.8 56.5 17.79 56.5 17.8 56.5 C 17.4 56.5 17 56.6 16.8 56.9 C 16.5 57.2 16.4 57.6 16.4 58.2 C 16.36 58.16 16.4 59.6 16.4 59.6 L 15.8 59.6 Z M 18.7 59.6 L 18.7 56 L 19.2 56 L 19.2 59.6 L 18.7 59.6 Z M 20.5 59.6 L 20.5 56 L 21 56 C 21 56 21.03 56.59 21 56.6 C 21.2 56.4 21.3 56.2 21.5 56.1 C 21.7 56 21.9 55.9 22.2 55.9 C 22.7 55.9 23.1 56.1 23.4 56.6 C 23.7 56.1 24.1 55.9 24.6 55.9 C 25.1 55.9 25.4 56 25.6 56.3 C 25.9 56.6 26 56.9 26 57.4 C 25.98 57.36 26 59.6 26 59.6 L 25.4 59.6 C 25.4 59.6 25.44 57.49 25.4 57.5 C 25.4 57.1 25.4 56.9 25.2 56.7 C 25 56.5 24.8 56.4 24.5 56.4 C 24.2 56.4 24 56.5 23.8 56.7 C 23.6 56.9 23.5 57.2 23.5 57.5 C 23.51 57.51 23.5 59.6 23.5 59.6 L 23 59.6 C 23 59.6 22.97 57.47 23 57.5 C 23 57.1 22.9 56.9 22.7 56.7 C 22.6 56.5 22.3 56.4 22 56.4 C 21.8 56.4 21.5 56.5 21.3 56.7 C 21.1 56.9 21 57.2 21 57.5 C 21.03 57.53 21 59.6 21 59.6 L 20.5 59.6 Z M 27.1 56.7 L 27.1 56 L 27.7 56 L 27.7 56.7 L 27.1 56.7 Z M 27.1 59.6 L 27.1 58.9 L 27.7 58.9 L 27.7 59.6 L 27.1 59.6 Z M 32.8 59.6 L 30.7 54.7 L 31.3 54.7 L 33 58.9 L 34.8 54.7 L 35.4 54.7 L 33.3 59.6 L 32.8 59.6 Z M 36.4 59.6 L 36.4 54.7 L 39.9 54.7 L 39.9 55.2 L 36.9 55.2 L 36.9 56.9 L 39.6 56.9 L 39.6 57.4 L 36.9 57.4 L 36.9 59.1 L 39.9 59.1 L 39.9 59.6 L 36.4 59.6 Z M 40.7 59.6 L 40.7 59.2 C 40.7 59.2 42.46 57.6 42.5 57.6 C 42.8 57.3 43.1 57 43.3 56.8 C 43.4 56.5 43.5 56.3 43.5 56.1 C 43.5 55.8 43.4 55.6 43.2 55.4 C 43 55.2 42.8 55.1 42.5 55.1 C 42.2 55.1 42 55.2 41.8 55.3 C 41.6 55.5 41.4 55.7 41.2 56 C 41.2 56 40.8 55.7 40.8 55.7 C 41 55.3 41.3 55 41.5 54.9 C 41.8 54.7 42.1 54.6 42.5 54.6 C 43 54.6 43.3 54.8 43.6 55 C 43.9 55.3 44.1 55.6 44.1 56 C 44.1 56 44.1 56 44.1 56 C 44.1 56.4 44 56.7 43.8 56.9 C 43.6 57.2 43.3 57.5 42.8 57.9 C 42.82 57.93 41.5 59.1 41.5 59.1 L 44.1 59.1 L 44.1 59.6 L 40.7 59.6 Z " stroke="none" fill="#000"/>  </g>  <g id="Polygon380140">    <path d="M 0.7 50.6 L 0.7 45.7 C 0.7 45.7 2.39 45.7 2.4 45.7 C 3.2 45.7 3.8 45.9 4.3 46.4 C 4.8 46.9 5 47.4 5 48.1 C 5 48.1 5 48.1 5 48.1 C 5 48.8 4.8 49.4 4.3 49.9 C 3.8 50.4 3.2 50.6 2.4 50.6 C 2.39 50.6 0.7 50.6 0.7 50.6 Z M 2.4 46.2 C 2.39 46.21 1.2 46.2 1.2 46.2 L 1.2 50.1 C 1.2 50.1 2.39 50.09 2.4 50.1 C 3 50.1 3.5 49.9 3.9 49.5 C 4.2 49.2 4.4 48.7 4.4 48.2 C 4.4 48.2 4.4 48.1 4.4 48.1 C 4.4 47.6 4.2 47.1 3.9 46.8 C 3.5 46.4 3 46.2 2.4 46.2 Z M 8.5 50.6 L 10.7 46.2 L 8 46.2 L 8 45.7 L 11.4 45.7 L 11.4 46.1 L 9.1 50.6 L 8.5 50.6 Z M 17.6 50 C 17.1 50.5 16.7 50.7 16.1 50.7 C 15.6 50.7 15.1 50.5 14.8 50.1 C 14.4 49.8 14.2 49.3 14.2 48.8 C 14.2 48.8 14.2 48.8 14.2 48.8 C 14.2 48.3 14.4 47.8 14.8 47.5 C 15.1 47.1 15.6 46.9 16.1 46.9 C 16.6 46.9 17.1 47.1 17.5 47.5 C 17.5 47.5 17.2 47.9 17.2 47.9 C 16.8 47.6 16.5 47.4 16.1 47.4 C 15.7 47.4 15.4 47.5 15.1 47.8 C 14.9 48.1 14.8 48.4 14.8 48.8 C 14.8 48.8 14.8 48.8 14.8 48.8 C 14.8 49.2 14.9 49.5 15.2 49.8 C 15.4 50.1 15.7 50.2 16.1 50.2 C 16.5 50.2 16.9 50 17.2 49.7 C 17.21 49.66 17.6 50 17.6 50 C 17.6 50 17.56 49.98 17.6 50 Z M 18.4 50.6 L 18.4 47 L 19 47 C 19 47 18.98 47.59 19 47.6 C 19.1 47.4 19.3 47.2 19.5 47.1 C 19.6 47 19.9 46.9 20.2 46.9 C 20.7 46.9 21.1 47.1 21.3 47.6 C 21.6 47.1 22.1 46.9 22.6 46.9 C 23 46.9 23.3 47 23.6 47.3 C 23.8 47.6 23.9 47.9 23.9 48.4 C 23.93 48.36 23.9 50.6 23.9 50.6 L 23.4 50.6 C 23.4 50.6 23.39 48.49 23.4 48.5 C 23.4 48.1 23.3 47.9 23.1 47.7 C 23 47.5 22.7 47.4 22.5 47.4 C 22.2 47.4 21.9 47.5 21.7 47.7 C 21.6 47.9 21.5 48.2 21.5 48.5 C 21.45 48.51 21.5 50.6 21.5 50.6 L 20.9 50.6 C 20.9 50.6 20.92 48.47 20.9 48.5 C 20.9 48.1 20.8 47.9 20.7 47.7 C 20.5 47.5 20.3 47.4 20 47.4 C 19.7 47.4 19.5 47.5 19.3 47.7 C 19.1 47.9 19 48.2 19 48.5 C 18.98 48.53 19 50.6 19 50.6 L 18.4 50.6 Z M 24.9 51.5 C 24.9 51.5 24.8 51.2 24.8 51.2 C 25.1 51.1 25.3 50.9 25.3 50.6 C 25.27 50.6 25 50.6 25 50.6 L 25 49.9 L 25.7 49.9 C 25.7 49.9 25.66 50.49 25.7 50.5 C 25.7 50.8 25.6 51 25.5 51.1 C 25.4 51.3 25.2 51.4 24.9 51.5 Z M 29 50.6 L 29 45.7 L 29.5 45.7 L 29.5 47.9 L 32.4 47.9 L 32.4 45.7 L 32.9 45.7 L 32.9 50.6 L 32.4 50.6 L 32.4 48.4 L 29.5 48.4 L 29.5 50.6 L 29 50.6 Z M 37 50.6 L 37 46.2 L 36 46.5 L 35.9 46.1 L 37.1 45.7 L 37.5 45.7 L 37.5 50.6 L 37 50.6 Z M 40.3 50.7 C 39.7 50.7 39.1 50.4 38.6 49.9 C 38.6 49.9 39 49.5 39 49.5 C 39.4 50 39.9 50.2 40.3 50.2 C 40.7 50.2 41 50.1 41.2 49.9 C 41.4 49.7 41.5 49.4 41.5 49.1 C 41.5 49.1 41.5 49.1 41.5 49.1 C 41.5 48.8 41.4 48.5 41.2 48.3 C 41 48.1 40.7 48.1 40.3 48.1 C 40 48.1 39.6 48.1 39.3 48.3 C 39.28 48.33 38.9 48.1 38.9 48.1 L 39.1 45.7 L 41.9 45.7 L 41.9 46.2 L 39.5 46.2 C 39.5 46.2 39.43 47.78 39.4 47.8 C 39.7 47.6 40.1 47.6 40.4 47.6 C 40.9 47.6 41.3 47.7 41.6 48 C 41.9 48.2 42.1 48.6 42.1 49.1 C 42.1 49.1 42.1 49.1 42.1 49.1 C 42.1 49.5 41.9 49.9 41.6 50.2 C 41.3 50.5 40.9 50.7 40.3 50.7 Z M 48.3 50 C 47.9 50.5 47.4 50.7 46.8 50.7 C 46.3 50.7 45.9 50.5 45.5 50.1 C 45.2 49.8 45 49.3 45 48.8 C 45 48.8 45 48.8 45 48.8 C 45 48.3 45.2 47.8 45.5 47.5 C 45.9 47.1 46.3 46.9 46.8 46.9 C 47.4 46.9 47.9 47.1 48.3 47.5 C 48.3 47.5 47.9 47.9 47.9 47.9 C 47.6 47.6 47.2 47.4 46.8 47.4 C 46.5 47.4 46.2 47.5 45.9 47.8 C 45.7 48.1 45.5 48.4 45.5 48.8 C 45.5 48.8 45.5 48.8 45.5 48.8 C 45.5 49.2 45.7 49.5 45.9 49.8 C 46.2 50.1 46.5 50.2 46.9 50.2 C 47.3 50.2 47.6 50 48 49.7 C 47.97 49.66 48.3 50 48.3 50 C 48.3 50 48.31 49.98 48.3 50 Z M 49.2 50.6 L 49.2 47 L 49.7 47 C 49.7 47 49.74 47.59 49.7 47.6 C 49.9 47.4 50 47.2 50.2 47.1 C 50.4 47 50.6 46.9 50.9 46.9 C 51.5 46.9 51.8 47.1 52.1 47.6 C 52.4 47.1 52.8 46.9 53.3 46.9 C 53.8 46.9 54.1 47 54.3 47.3 C 54.6 47.6 54.7 47.9 54.7 48.4 C 54.69 48.36 54.7 50.6 54.7 50.6 L 54.2 50.6 C 54.2 50.6 54.15 48.49 54.2 48.5 C 54.2 48.1 54.1 47.9 53.9 47.7 C 53.7 47.5 53.5 47.4 53.2 47.4 C 52.9 47.4 52.7 47.5 52.5 47.7 C 52.3 47.9 52.2 48.2 52.2 48.5 C 52.21 48.51 52.2 50.6 52.2 50.6 L 51.7 50.6 C 51.7 50.6 51.68 48.47 51.7 48.5 C 51.7 48.1 51.6 47.9 51.4 47.7 C 51.3 47.5 51 47.4 50.7 47.4 C 50.5 47.4 50.2 47.5 50 47.7 C 49.8 47.9 49.7 48.2 49.7 48.5 C 49.74 48.53 49.7 50.6 49.7 50.6 L 49.2 50.6 Z " stroke="none" fill="#000"/>  </g>  <g id="Polygon380139">    <path d="M 0.3 41.6 L 2.5 36.7 L 3 36.7 L 5.3 41.6 L 4.7 41.6 L 4.1 40.3 L 1.4 40.3 L 0.8 41.6 L 0.3 41.6 Z M 1.6 39.8 L 3.9 39.8 L 2.8 37.3 L 1.6 39.8 Z M 6.2 41.6 L 6.2 36.7 C 6.2 36.7 8.31 36.7 8.3 36.7 C 8.9 36.7 9.3 36.8 9.6 37.1 C 9.8 37.3 9.9 37.6 9.9 37.9 C 9.9 37.9 9.9 37.9 9.9 37.9 C 9.9 38.5 9.6 38.8 9.1 39.1 C 9.8 39.3 10.2 39.7 10.2 40.2 C 10.2 40.2 10.2 40.3 10.2 40.3 C 10.2 40.7 10 41 9.7 41.2 C 9.4 41.5 8.9 41.6 8.4 41.6 C 8.4 41.6 6.2 41.6 6.2 41.6 Z M 9.3 38 C 9.3 38 9.3 38 9.3 38 C 9.3 37.7 9.3 37.6 9.1 37.4 C 8.9 37.3 8.6 37.2 8.3 37.2 C 8.26 37.2 6.8 37.2 6.8 37.2 L 6.8 38.9 C 6.8 38.9 8.22 38.88 8.2 38.9 C 8.6 38.9 8.8 38.8 9 38.7 C 9.2 38.5 9.3 38.3 9.3 38 Z M 9.6 40.2 C 9.6 40.2 9.6 40.2 9.6 40.2 C 9.6 39.9 9.5 39.7 9.3 39.6 C 9.1 39.4 8.7 39.4 8.3 39.4 C 8.32 39.37 6.8 39.4 6.8 39.4 L 6.8 41.1 C 6.8 41.1 8.41 41.1 8.4 41.1 C 8.8 41.1 9.1 41 9.3 40.9 C 9.5 40.7 9.6 40.5 9.6 40.2 Z M 13 41.7 C 12.2 41.7 11.5 41.4 11 40.9 C 11 40.9 11.3 40.5 11.3 40.5 C 11.6 40.7 11.8 40.9 12.1 41 C 12.3 41.1 12.6 41.2 13 41.2 C 13.3 41.2 13.6 41.1 13.8 40.9 C 14 40.8 14.1 40.6 14.1 40.3 C 14.1 40.3 14.1 40.3 14.1 40.3 C 14.1 40.1 14 39.9 13.8 39.8 C 13.6 39.6 13.3 39.5 12.8 39.4 C 12.2 39.3 11.8 39.1 11.5 38.9 C 11.3 38.7 11.2 38.4 11.2 38 C 11.2 38 11.2 38 11.2 38 C 11.2 37.6 11.3 37.3 11.6 37 C 11.9 36.8 12.3 36.6 12.8 36.6 C 13.1 36.6 13.4 36.7 13.7 36.8 C 14 36.9 14.2 37 14.5 37.2 C 14.5 37.2 14.2 37.7 14.2 37.7 C 13.7 37.3 13.3 37.1 12.7 37.1 C 12.4 37.1 12.2 37.2 12 37.4 C 11.8 37.5 11.7 37.7 11.7 37.9 C 11.7 37.9 11.7 37.9 11.7 37.9 C 11.7 38.2 11.8 38.4 12 38.5 C 12.2 38.7 12.5 38.8 13 38.9 C 13.6 39 14 39.2 14.2 39.4 C 14.5 39.6 14.6 39.9 14.6 40.3 C 14.6 40.3 14.6 40.3 14.6 40.3 C 14.6 40.7 14.5 41 14.2 41.3 C 13.8 41.5 13.4 41.7 13 41.7 Z M 17 42.5 L 20.3 36 L 20.8 36 L 17.5 42.5 L 17 42.5 Z M 25.2 41.7 C 24.4 41.7 23.8 41.4 23.2 40.9 C 23.2 40.9 23.5 40.5 23.5 40.5 C 23.8 40.7 24.1 40.9 24.3 41 C 24.6 41.1 24.9 41.2 25.2 41.2 C 25.5 41.2 25.8 41.1 26 40.9 C 26.2 40.8 26.3 40.6 26.3 40.3 C 26.3 40.3 26.3 40.3 26.3 40.3 C 26.3 40.1 26.2 39.9 26 39.8 C 25.9 39.6 25.5 39.5 25 39.4 C 24.5 39.3 24 39.1 23.8 38.9 C 23.5 38.7 23.4 38.4 23.4 38 C 23.4 38 23.4 38 23.4 38 C 23.4 37.6 23.5 37.3 23.8 37 C 24.2 36.8 24.5 36.6 25 36.6 C 25.3 36.6 25.7 36.7 25.9 36.8 C 26.2 36.9 26.5 37 26.7 37.2 C 26.7 37.2 26.4 37.7 26.4 37.7 C 26 37.3 25.5 37.1 25 37.1 C 24.7 37.1 24.4 37.2 24.2 37.4 C 24 37.5 23.9 37.7 23.9 37.9 C 23.9 37.9 23.9 37.9 23.9 37.9 C 23.9 38.2 24 38.4 24.2 38.5 C 24.4 38.7 24.8 38.8 25.3 38.9 C 25.8 39 26.2 39.2 26.5 39.4 C 26.7 39.6 26.9 39.9 26.9 40.3 C 26.9 40.3 26.9 40.3 26.9 40.3 C 26.9 40.7 26.7 41 26.4 41.3 C 26.1 41.5 25.7 41.7 25.2 41.7 Z M 27.9 37.2 L 27.9 36.6 L 28.5 36.6 L 28.5 37.2 L 27.9 37.2 Z M 28 41.6 L 28 38 L 28.5 38 L 28.5 41.6 L 28 41.6 Z M 29.8 41.6 L 29.8 36.5 L 30.3 36.5 L 30.3 41.6 L 29.8 41.6 Z M 31.6 37.2 L 31.6 36.6 L 32.2 36.6 L 32.2 37.2 L 31.6 37.2 Z M 31.6 41.6 L 31.6 38 L 32.2 38 L 32.2 41.6 L 31.6 41.6 Z M 33.4 41.6 L 33.4 36.5 L 34 36.5 L 34 40 L 35.9 38 L 36.6 38 L 35.1 39.5 L 36.6 41.6 L 36 41.6 L 34.7 39.9 L 34 40.7 L 34 41.6 L 33.4 41.6 Z M 38.9 41.7 C 38.3 41.7 37.9 41.5 37.5 41.1 C 37.2 40.8 37 40.3 37 39.8 C 37 39.8 37 39.8 37 39.8 C 37 39.3 37.2 38.8 37.5 38.5 C 37.9 38.1 38.4 37.9 38.9 37.9 C 39.4 37.9 39.9 38.1 40.2 38.5 C 40.6 38.8 40.8 39.3 40.8 39.8 C 40.8 39.8 40.8 39.8 40.8 39.8 C 40.8 40.3 40.6 40.8 40.2 41.1 C 39.9 41.5 39.4 41.7 38.9 41.7 Z M 38.9 41.2 C 39.3 41.2 39.6 41.1 39.9 40.8 C 40.1 40.5 40.2 40.2 40.2 39.8 C 40.2 39.8 40.2 39.8 40.2 39.8 C 40.2 39.4 40.1 39.1 39.8 38.8 C 39.6 38.5 39.3 38.4 38.9 38.4 C 38.5 38.4 38.2 38.5 37.9 38.8 C 37.7 39.1 37.6 39.4 37.6 39.8 C 37.6 39.8 37.6 39.8 37.6 39.8 C 37.6 40.2 37.7 40.5 37.9 40.8 C 38.2 41.1 38.5 41.2 38.9 41.2 Z M 41.8 41.6 L 41.8 38 L 42.3 38 C 42.3 38 42.29 38.61 42.3 38.6 C 42.6 38.1 43 37.9 43.5 37.9 C 44 37.9 44.3 38 44.5 38.3 C 44.8 38.6 44.9 38.9 44.9 39.4 C 44.92 39.35 44.9 41.6 44.9 41.6 L 44.4 41.6 C 44.4 41.6 44.38 39.49 44.4 39.5 C 44.4 39.1 44.3 38.9 44.1 38.7 C 43.9 38.5 43.7 38.4 43.4 38.4 C 43.1 38.4 42.8 38.5 42.6 38.7 C 42.4 38.9 42.3 39.2 42.3 39.5 C 42.29 39.53 42.3 41.6 42.3 41.6 L 41.8 41.6 Z " stroke="none" fill="#000"/>  </g>  <g id="Polygon380138">    <path d="M 0.7 23.6 L 0.7 18.7 C 0.7 18.7 2.8 18.7 2.8 18.7 C 3.4 18.7 3.9 18.9 4.2 19.2 C 4.4 19.4 4.6 19.8 4.6 20.2 C 4.6 20.2 4.6 20.2 4.6 20.2 C 4.6 20.6 4.4 20.9 4.2 21.1 C 4 21.4 3.6 21.5 3.2 21.6 C 3.24 21.6 4.7 23.6 4.7 23.6 L 4.1 23.6 L 2.6 21.7 L 1.2 21.7 L 1.2 23.6 L 0.7 23.6 Z M 1.2 21.2 C 1.2 21.2 2.75 21.2 2.8 21.2 C 3.1 21.2 3.4 21.1 3.7 20.9 C 3.9 20.7 4 20.5 4 20.2 C 4 20.2 4 20.2 4 20.2 C 4 19.9 3.9 19.6 3.7 19.5 C 3.5 19.3 3.2 19.2 2.8 19.2 C 2.76 19.21 1.2 19.2 1.2 19.2 L 1.2 21.2 Z M 8.7 23 C 8.3 23.5 7.8 23.7 7.2 23.7 C 6.7 23.7 6.2 23.5 5.9 23.2 C 5.5 22.8 5.4 22.4 5.4 21.8 C 5.4 21.8 5.4 21.8 5.4 21.8 C 5.4 21.3 5.5 20.8 5.9 20.4 C 6.2 20.1 6.6 19.9 7.1 19.9 C 7.6 19.9 8 20.1 8.3 20.4 C 8.6 20.8 8.8 21.3 8.8 21.8 C 8.8 21.9 8.8 21.9 8.8 22 C 8.8 22 5.9 22 5.9 22 C 6 22.4 6.1 22.7 6.3 22.9 C 6.6 23.1 6.9 23.2 7.2 23.2 C 7.6 23.2 8 23 8.3 22.7 C 8.33 22.7 8.7 23 8.7 23 C 8.7 23 8.67 23 8.7 23 Z M 5.9 21.6 C 5.9 21.6 8.2 21.6 8.2 21.6 C 8.2 21.2 8.1 20.9 7.9 20.7 C 7.7 20.5 7.4 20.4 7.1 20.4 C 6.8 20.4 6.5 20.5 6.3 20.7 C 6.1 20.9 6 21.2 5.9 21.6 Z M 9.7 23.6 L 9.7 20 L 10.3 20 C 10.3 20 10.28 20.61 10.3 20.6 C 10.6 20.1 11 19.9 11.5 19.9 C 11.9 19.9 12.3 20 12.5 20.3 C 12.8 20.6 12.9 20.9 12.9 21.4 C 12.9 21.35 12.9 23.6 12.9 23.6 L 12.4 23.6 C 12.4 23.6 12.36 21.49 12.4 21.5 C 12.4 21.1 12.3 20.9 12.1 20.7 C 11.9 20.5 11.7 20.4 11.4 20.4 C 11 20.4 10.8 20.5 10.6 20.7 C 10.4 20.9 10.3 21.2 10.3 21.5 C 10.28 21.53 10.3 23.6 10.3 23.6 L 9.7 23.6 Z M 14 23.6 L 14 18.5 L 14.6 18.5 L 14.6 22 L 16.5 20 L 17.2 20 L 15.7 21.5 L 17.3 23.6 L 16.6 23.6 L 15.3 21.9 L 14.6 22.7 L 14.6 23.6 L 14 23.6 Z M 18 20.7 L 18 20 L 18.6 20 L 18.6 20.7 L 18 20.7 Z M 18 23.6 L 18 22.9 L 18.6 22.9 L 18.6 23.6 L 18 23.6 Z M 22 23.6 L 22 18.7 L 22.6 18.7 L 22.6 23.6 L 22 23.6 Z M 23.9 23.6 L 23.9 20 L 24.5 20 C 24.5 20 24.49 20.61 24.5 20.6 C 24.8 20.1 25.2 19.9 25.7 19.9 C 26.2 19.9 26.5 20 26.7 20.3 C 27 20.6 27.1 20.9 27.1 21.4 C 27.11 21.35 27.1 23.6 27.1 23.6 L 26.6 23.6 C 26.6 23.6 26.57 21.49 26.6 21.5 C 26.6 21.1 26.5 20.9 26.3 20.7 C 26.1 20.5 25.9 20.4 25.6 20.4 C 25.3 20.4 25 20.5 24.8 20.7 C 24.6 20.9 24.5 21.2 24.5 21.5 C 24.49 21.53 24.5 23.6 24.5 23.6 L 23.9 23.6 Z M 31.2 22.9 C 30.8 23.4 30.3 23.7 29.8 23.7 C 29.3 23.7 28.9 23.5 28.6 23.2 C 28.2 22.8 28 22.4 28 21.8 C 28 21.8 28 21.8 28 21.8 C 28 21.2 28.2 20.8 28.6 20.4 C 28.9 20.1 29.3 19.9 29.8 19.9 C 30.4 19.9 30.8 20.2 31.2 20.7 C 31.16 20.67 31.2 18.5 31.2 18.5 L 31.7 18.5 L 31.7 23.6 L 31.2 23.6 L 31.2 22.9 C 31.2 22.9 31.16 22.87 31.2 22.9 Z M 29.9 23.2 C 30.2 23.2 30.5 23.1 30.8 22.8 C 31.1 22.5 31.2 22.2 31.2 21.8 C 31.2 21.8 31.2 21.8 31.2 21.8 C 31.2 21.4 31.1 21 30.8 20.8 C 30.5 20.5 30.2 20.4 29.9 20.4 C 29.5 20.4 29.2 20.5 29 20.8 C 28.7 21 28.6 21.4 28.6 21.8 C 28.6 21.8 28.6 21.8 28.6 21.8 C 28.6 22.2 28.7 22.6 29 22.8 C 29.2 23.1 29.5 23.2 29.9 23.2 Z M 32.9 19.2 L 32.9 18.6 L 33.5 18.6 L 33.5 19.2 L 32.9 19.2 Z M 33 23.6 L 33 20 L 33.5 20 L 33.5 23.6 L 33 23.6 Z M 37.7 24.3 C 37.4 24.6 36.9 24.7 36.4 24.7 C 35.7 24.7 35.2 24.6 34.7 24.2 C 34.7 24.2 35 23.8 35 23.8 C 35.4 24.1 35.8 24.3 36.3 24.3 C 36.8 24.3 37.1 24.2 37.3 23.9 C 37.5 23.7 37.7 23.4 37.7 23 C 37.7 23 37.7 22.6 37.7 22.6 C 37.3 23.1 36.8 23.3 36.2 23.3 C 35.8 23.3 35.4 23.2 35 22.8 C 34.7 22.5 34.5 22.1 34.5 21.6 C 34.5 21.6 34.5 21.6 34.5 21.6 C 34.5 21.1 34.7 20.7 35 20.4 C 35.4 20.1 35.8 19.9 36.2 19.9 C 36.8 19.9 37.3 20.1 37.7 20.6 C 37.65 20.63 37.7 20 37.7 20 L 38.2 20 C 38.2 20 38.19 22.97 38.2 23 C 38.2 23.5 38 23.9 37.7 24.3 C 37.7 24.3 37.7 24.3 37.7 24.3 Z M 36.3 22.8 C 36.7 22.8 37 22.7 37.3 22.5 C 37.5 22.3 37.7 22 37.7 21.6 C 37.7 21.6 37.7 21.6 37.7 21.6 C 37.7 21.2 37.5 21 37.3 20.7 C 37 20.5 36.7 20.4 36.3 20.4 C 36 20.4 35.7 20.5 35.5 20.7 C 35.2 20.9 35.1 21.2 35.1 21.6 C 35.1 21.6 35.1 21.6 35.1 21.6 C 35.1 22 35.2 22.3 35.5 22.5 C 35.7 22.7 36 22.8 36.3 22.8 Z M 41 23.7 C 40.5 23.7 40.1 23.5 39.7 23.1 C 39.3 22.8 39.2 22.3 39.2 21.8 C 39.2 21.8 39.2 21.8 39.2 21.8 C 39.2 21.3 39.4 20.8 39.7 20.5 C 40.1 20.1 40.5 19.9 41.1 19.9 C 41.6 19.9 42 20.1 42.4 20.5 C 42.8 20.8 42.9 21.3 42.9 21.8 C 42.9 21.8 42.9 21.8 42.9 21.8 C 42.9 22.3 42.8 22.8 42.4 23.1 C 42 23.5 41.6 23.7 41 23.7 Z M 41.1 23.2 C 41.4 23.2 41.8 23.1 42 22.8 C 42.3 22.5 42.4 22.2 42.4 21.8 C 42.4 21.8 42.4 21.8 42.4 21.8 C 42.4 21.4 42.3 21.1 42 20.8 C 41.7 20.5 41.4 20.4 41 20.4 C 40.7 20.4 40.3 20.5 40.1 20.8 C 39.8 21.1 39.7 21.4 39.7 21.8 C 39.7 21.8 39.7 21.8 39.7 21.8 C 39.7 22.2 39.9 22.5 40.1 22.8 C 40.4 23.1 40.7 23.2 41.1 23.2 Z " stroke="none" fill="#000"/>  </g>  <g id="Polygon380137">    <path d="M 3 9.3 L 3 8.6 L 3.6 8.6 L 3.6 9.3 L 3 9.3 Z M 1.7 9.3 L 1.7 8.6 L 2.3 8.6 L 2.3 9.3 L 1.7 9.3 Z M 2.7 14.7 C 2 14.7 1.5 14.5 1.2 14.1 C 0.8 13.7 0.6 13.2 0.6 12.5 C 0.62 12.55 0.6 9.7 0.6 9.7 L 1.2 9.7 C 1.2 9.7 1.17 12.51 1.2 12.5 C 1.2 13 1.3 13.4 1.6 13.7 C 1.8 14 2.2 14.2 2.7 14.2 C 3.1 14.2 3.5 14 3.8 13.8 C 4 13.5 4.1 13.1 4.1 12.5 C 4.14 12.55 4.1 9.7 4.1 9.7 L 4.7 9.7 C 4.7 9.7 4.7 12.51 4.7 12.5 C 4.7 13.2 4.5 13.7 4.1 14.1 C 3.8 14.5 3.3 14.7 2.7 14.7 Z M 5.9 14.6 L 5.9 11 L 6.5 11 C 6.5 11 6.45 11.93 6.5 11.9 C 6.6 11.6 6.8 11.4 7 11.2 C 7.3 11 7.6 10.9 7.9 10.9 C 7.93 10.92 7.9 11.5 7.9 11.5 C 7.9 11.5 7.89 11.5 7.9 11.5 C 7.5 11.5 7.1 11.6 6.9 11.9 C 6.6 12.2 6.5 12.6 6.5 13.2 C 6.45 13.16 6.5 14.6 6.5 14.6 L 5.9 14.6 Z M 10.6 10.4 L 10.6 9.8 L 11.2 9.8 L 11.2 10.4 L 10.6 10.4 Z M 9.3 10.4 L 9.3 9.8 L 10 9.8 L 10 10.4 L 9.3 10.4 Z M 11.3 14 C 11 14.4 10.6 14.7 10.1 14.7 C 9.7 14.7 9.3 14.5 9.1 14.3 C 8.8 14 8.7 13.7 8.7 13.2 C 8.69 13.23 8.7 11 8.7 11 L 9.2 11 C 9.2 11 9.23 13.09 9.2 13.1 C 9.2 13.4 9.3 13.7 9.5 13.9 C 9.7 14.1 9.9 14.2 10.2 14.2 C 10.5 14.2 10.8 14.1 11 13.9 C 11.2 13.7 11.3 13.4 11.3 13.1 C 11.32 13.05 11.3 11 11.3 11 L 11.9 11 L 11.9 14.6 L 11.3 14.6 L 11.3 14 C 11.3 14 11.32 13.97 11.3 14 Z M 13.1 14.6 L 13.1 11 L 13.6 11 C 13.6 11 13.6 11.61 13.6 11.6 C 13.9 11.1 14.3 10.9 14.8 10.9 C 15.3 10.9 15.6 11 15.9 11.3 C 16.1 11.6 16.2 11.9 16.2 12.4 C 16.23 12.35 16.2 14.6 16.2 14.6 L 15.7 14.6 C 15.7 14.6 15.69 12.49 15.7 12.5 C 15.7 12.1 15.6 11.9 15.4 11.7 C 15.2 11.5 15 11.4 14.7 11.4 C 14.4 11.4 14.1 11.5 13.9 11.7 C 13.7 11.9 13.6 12.2 13.6 12.5 C 13.6 12.53 13.6 14.6 13.6 14.6 L 13.1 14.6 Z M 19.6 14.6 L 19.6 9.7 L 20.1 9.7 L 20.1 12.6 L 22.9 9.7 L 23.7 9.7 L 21.5 11.8 L 23.7 14.6 L 23 14.6 L 21.2 12.2 L 20.1 13.3 L 20.1 14.6 L 19.6 14.6 Z M 25.9 14.7 C 25.4 14.7 25 14.5 24.6 14.1 C 24.3 13.8 24.1 13.3 24.1 12.8 C 24.1 12.8 24.1 12.8 24.1 12.8 C 24.1 12.3 24.3 11.8 24.6 11.5 C 25 11.1 25.4 10.9 26 10.9 C 26.5 10.9 26.9 11.1 27.3 11.5 C 27.7 11.8 27.8 12.3 27.8 12.8 C 27.8 12.8 27.8 12.8 27.8 12.8 C 27.8 13.3 27.7 13.8 27.3 14.1 C 26.9 14.5 26.5 14.7 25.9 14.7 Z M 26 14.2 C 26.3 14.2 26.7 14.1 26.9 13.8 C 27.2 13.5 27.3 13.2 27.3 12.8 C 27.3 12.8 27.3 12.8 27.3 12.8 C 27.3 12.4 27.2 12.1 26.9 11.8 C 26.6 11.5 26.3 11.4 25.9 11.4 C 25.6 11.4 25.2 11.5 25 11.8 C 24.8 12.1 24.6 12.4 24.6 12.8 C 24.6 12.8 24.6 12.8 24.6 12.8 C 24.6 13.2 24.8 13.5 25 13.8 C 25.3 14.1 25.6 14.2 26 14.2 Z M 31.7 13.9 C 31.4 14.4 30.9 14.7 30.3 14.7 C 29.9 14.7 29.5 14.5 29.1 14.2 C 28.8 13.8 28.6 13.4 28.6 12.8 C 28.6 12.8 28.6 12.8 28.6 12.8 C 28.6 12.2 28.8 11.8 29.1 11.4 C 29.5 11.1 29.9 10.9 30.3 10.9 C 30.9 10.9 31.4 11.2 31.7 11.7 C 31.72 11.67 31.7 9.5 31.7 9.5 L 32.3 9.5 L 32.3 14.6 L 31.7 14.6 L 31.7 13.9 C 31.7 13.9 31.72 13.87 31.7 13.9 Z M 30.4 14.2 C 30.8 14.2 31.1 14.1 31.4 13.8 C 31.6 13.5 31.7 13.2 31.7 12.8 C 31.7 12.8 31.7 12.8 31.7 12.8 C 31.7 12.4 31.6 12 31.4 11.8 C 31.1 11.5 30.8 11.4 30.4 11.4 C 30.1 11.4 29.8 11.5 29.5 11.8 C 29.3 12 29.2 12.4 29.2 12.8 C 29.2 12.8 29.2 12.8 29.2 12.8 C 29.2 13.2 29.3 13.6 29.5 13.8 C 29.8 14.1 30.1 14.2 30.4 14.2 Z M 36 14 C 35.7 14.4 35.3 14.7 34.8 14.7 C 34.4 14.7 34 14.5 33.8 14.3 C 33.5 14 33.4 13.7 33.4 13.2 C 33.41 13.23 33.4 11 33.4 11 L 33.9 11 C 33.9 11 33.95 13.09 33.9 13.1 C 33.9 13.4 34 13.7 34.2 13.9 C 34.4 14.1 34.6 14.2 35 14.2 C 35.3 14.2 35.5 14.1 35.7 13.9 C 35.9 13.7 36 13.4 36 13.1 C 36.04 13.05 36 11 36 11 L 36.6 11 L 36.6 14.6 L 36 14.6 L 36 14 C 36 14 36.04 13.97 36 14 Z M 37.7 11.7 L 37.7 11 L 38.4 11 L 38.4 11.7 L 37.7 11.7 Z M 37.7 14.6 L 37.7 13.9 L 38.4 13.9 L 38.4 14.6 L 37.7 14.6 Z M 41.5 14.6 L 41.5 13.8 L 44.2 10.6 L 41.6 10.6 L 41.6 9.7 L 45.6 9.7 L 45.6 10.5 L 42.9 13.7 L 45.6 13.7 L 45.6 14.6 L 41.5 14.6 Z M 46.6 14.6 L 46.6 9.7 C 46.6 9.7 48.51 9.7 48.5 9.7 C 49.3 9.7 49.9 9.9 50.4 10.4 C 50.9 10.9 51.1 11.4 51.1 12.1 C 51.1 12.1 51.1 12.1 51.1 12.1 C 51.1 12.8 50.9 13.4 50.4 13.9 C 49.9 14.4 49.3 14.6 48.5 14.6 C 48.51 14.6 46.6 14.6 46.6 14.6 Z M 48.5 10.7 C 48.51 10.67 47.7 10.7 47.7 10.7 L 47.7 13.6 C 47.7 13.6 48.51 13.63 48.5 13.6 C 48.9 13.6 49.3 13.5 49.6 13.2 C 49.8 13 50 12.6 50 12.2 C 50 12.2 50 12.1 50 12.1 C 50 11.7 49.8 11.4 49.6 11.1 C 49.3 10.8 48.9 10.7 48.5 10.7 Z M 55.8 14.7 C 55 14.7 54.3 14.4 53.9 13.8 C 53.9 13.8 54.6 13.1 54.6 13.1 C 54.9 13.5 55.3 13.7 55.8 13.7 C 56 13.7 56.2 13.7 56.3 13.6 C 56.4 13.4 56.5 13.3 56.5 13.1 C 56.5 13.1 56.5 13.1 56.5 13.1 C 56.5 12.9 56.4 12.8 56.2 12.6 C 56 12.5 55.8 12.5 55.5 12.5 C 55.51 12.49 55.1 12.5 55.1 12.5 L 54.9 11.8 L 56.1 10.6 L 54.1 10.6 L 54.1 9.7 L 57.4 9.7 L 57.4 10.5 C 57.4 10.5 56.21 11.69 56.2 11.7 C 57.1 11.8 57.5 12.3 57.5 13.1 C 57.5 13.1 57.5 13.1 57.5 13.1 C 57.5 13.6 57.4 13.9 57 14.2 C 56.7 14.5 56.3 14.7 55.8 14.7 Z M 60.1 14.7 C 59.3 14.7 58.7 14.4 58.2 13.8 C 58.2 13.8 58.9 13.1 58.9 13.1 C 59.3 13.5 59.7 13.7 60.1 13.7 C 60.3 13.7 60.5 13.7 60.6 13.6 C 60.8 13.4 60.8 13.3 60.8 13.1 C 60.8 13.1 60.8 13.1 60.8 13.1 C 60.8 12.9 60.7 12.8 60.6 12.6 C 60.4 12.5 60.2 12.5 59.9 12.5 C 59.86 12.49 59.4 12.5 59.4 12.5 L 59.2 11.8 L 60.4 10.6 L 58.5 10.6 L 58.5 9.7 L 61.8 9.7 L 61.8 10.5 C 61.8 10.5 60.56 11.69 60.6 11.7 C 61.4 11.8 61.9 12.3 61.9 13.1 C 61.9 13.1 61.9 13.1 61.9 13.1 C 61.9 13.6 61.7 13.9 61.4 14.2 C 61.1 14.5 60.6 14.7 60.1 14.7 Z M 64.4 14.7 C 63.7 14.7 63.1 14.4 62.5 13.9 C 62.5 13.9 63.2 13.2 63.2 13.2 C 63.6 13.5 64 13.7 64.4 13.7 C 64.6 13.7 64.8 13.6 65 13.5 C 65.1 13.4 65.2 13.2 65.2 13 C 65.2 13 65.2 13 65.2 13 C 65.2 12.8 65.1 12.6 64.9 12.5 C 64.8 12.4 64.6 12.3 64.3 12.3 C 64 12.3 63.8 12.4 63.5 12.5 C 63.5 12.53 62.9 12.1 62.9 12.1 L 63 9.7 L 66 9.7 L 66 10.6 L 63.9 10.6 C 63.9 10.6 63.88 11.49 63.9 11.5 C 64.1 11.4 64.3 11.4 64.5 11.4 C 65 11.4 65.4 11.5 65.8 11.8 C 66.1 12.1 66.2 12.5 66.2 13 C 66.2 13 66.2 13 66.2 13 C 66.2 13.5 66.1 13.9 65.7 14.2 C 65.4 14.5 64.9 14.7 64.4 14.7 Z M 69 14.7 C 68.4 14.7 68 14.5 67.6 14.2 C 67.2 13.8 67 13.2 67 12.3 C 67 12.3 67 12.3 67 12.3 C 67 11.5 67.2 10.9 67.6 10.4 C 67.9 9.9 68.5 9.6 69.2 9.6 C 69.7 9.6 70.3 9.8 70.7 10.2 C 70.7 10.2 70.1 11 70.1 11 C 70 10.9 69.8 10.8 69.7 10.7 C 69.5 10.6 69.3 10.6 69.1 10.6 C 69 10.6 68.8 10.6 68.7 10.7 C 68.6 10.8 68.5 10.9 68.4 11 C 68.3 11.1 68.3 11.3 68.2 11.4 C 68.2 11.5 68.2 11.6 68.2 11.7 C 68.5 11.5 68.8 11.4 69.2 11.4 C 69.7 11.4 70.1 11.6 70.4 11.8 C 70.7 12.1 70.9 12.5 70.9 13 C 70.9 13 70.9 13 70.9 13 C 70.9 13.5 70.7 13.9 70.4 14.2 C 70 14.5 69.6 14.7 69 14.7 Z M 68.1 13 C 68.1 13.2 68.2 13.4 68.4 13.6 C 68.5 13.7 68.7 13.8 69 13.8 C 69.2 13.8 69.5 13.7 69.6 13.6 C 69.7 13.4 69.8 13.3 69.8 13 C 69.8 13 69.8 13 69.8 13 C 69.8 12.8 69.7 12.6 69.6 12.5 C 69.4 12.4 69.2 12.3 69 12.3 C 68.7 12.3 68.5 12.4 68.4 12.5 C 68.2 12.6 68.1 12.8 68.1 13 C 68.13 13.02 68.1 13 68.1 13 C 68.1 13 68.13 13.03 68.1 13 Z M 73.8 14.7 C 73.2 14.7 72.7 14.4 72.3 14 C 71.9 13.5 71.7 12.9 71.7 12.2 C 71.7 12.2 71.7 12.1 71.7 12.1 C 71.7 11.4 71.9 10.8 72.3 10.3 C 72.7 9.9 73.2 9.6 73.8 9.6 C 74.5 9.6 75 9.9 75.4 10.3 C 75.8 10.8 76 11.4 76 12.1 C 76 12.1 76 12.1 76 12.1 C 76 12.9 75.8 13.5 75.4 14 C 75 14.4 74.5 14.7 73.8 14.7 Z M 72.8 12.1 C 72.8 12.6 72.9 13 73.1 13.3 C 73.3 13.6 73.5 13.7 73.8 13.7 C 74.2 13.7 74.4 13.6 74.6 13.3 C 74.8 13 74.9 12.6 74.9 12.2 C 74.9 12.2 74.9 12.1 74.9 12.1 C 74.9 11.7 74.8 11.3 74.6 11 C 74.4 10.7 74.2 10.6 73.8 10.6 C 73.5 10.6 73.3 10.7 73.1 11 C 72.9 11.3 72.8 11.7 72.8 12.1 C 72.77 12.14 72.8 12.1 72.8 12.1 C 72.8 12.1 72.77 12.15 72.8 12.1 Z " stroke="none" fill="#000"/>  </g>  <g id="Polygon380136">    <path d="M 2.3 5.7 C 1.5 5.7 0.8 5.4 0.3 4.9 C 0.3 4.9 0.9 4.1 0.9 4.1 C 1.4 4.5 1.9 4.7 2.4 4.7 C 2.6 4.7 2.7 4.7 2.9 4.6 C 3 4.5 3.1 4.4 3.1 4.3 C 3.1 4.3 3.1 4.2 3.1 4.2 C 3.1 4.1 3 4 2.9 3.9 C 2.7 3.8 2.5 3.7 2.1 3.6 C 1.8 3.5 1.6 3.5 1.4 3.4 C 1.2 3.3 1.1 3.3 0.9 3.1 C 0.7 3 0.6 2.9 0.6 2.7 C 0.5 2.6 0.4 2.4 0.4 2.1 C 0.4 2.1 0.4 2.1 0.4 2.1 C 0.4 1.7 0.6 1.3 0.9 1 C 1.2 0.8 1.7 0.6 2.2 0.6 C 2.9 0.6 3.5 0.8 4 1.3 C 4 1.3 3.4 2.1 3.4 2.1 C 3 1.7 2.5 1.6 2.1 1.6 C 1.9 1.6 1.8 1.6 1.7 1.7 C 1.6 1.8 1.5 1.9 1.5 2 C 1.5 2 1.5 2 1.5 2 C 1.5 2.2 1.6 2.3 1.7 2.4 C 1.9 2.5 2.1 2.6 2.6 2.7 C 3.1 2.8 3.5 3 3.8 3.2 C 4 3.4 4.1 3.7 4.1 4.1 C 4.1 4.1 4.1 4.2 4.1 4.2 C 4.1 4.6 4 5 3.6 5.3 C 3.3 5.5 2.9 5.7 2.3 5.7 Z M 7.2 5.2 C 6.9 5.5 6.5 5.7 6 5.7 C 5.7 5.7 5.3 5.6 5.1 5.4 C 4.9 5.2 4.7 4.9 4.7 4.5 C 4.7 4.5 4.7 4.5 4.7 4.5 C 4.7 4.1 4.9 3.8 5.1 3.6 C 5.4 3.4 5.8 3.3 6.2 3.3 C 6.5 3.3 6.9 3.4 7.2 3.5 C 7.2 3.5 7.2 3.4 7.2 3.4 C 7.2 2.9 6.9 2.7 6.4 2.7 C 6 2.7 5.7 2.8 5.3 2.9 C 5.3 2.9 5.1 2.1 5.1 2.1 C 5.5 1.9 6 1.8 6.5 1.8 C 7.1 1.8 7.5 1.9 7.8 2.2 C 8 2.5 8.2 2.9 8.2 3.4 C 8.18 3.42 8.2 5.6 8.2 5.6 L 7.2 5.6 L 7.2 5.2 C 7.2 5.2 7.15 5.19 7.2 5.2 Z M 6.3 4.9 C 6.6 4.9 6.8 4.9 6.9 4.8 C 7.1 4.6 7.2 4.5 7.2 4.3 C 7.2 4.3 7.2 4.1 7.2 4.1 C 7 4 6.7 3.9 6.5 3.9 C 6.3 3.9 6.1 4 6 4.1 C 5.8 4.2 5.8 4.3 5.8 4.5 C 5.8 4.5 5.8 4.5 5.8 4.5 C 5.8 4.6 5.8 4.7 5.9 4.8 C 6 4.9 6.2 4.9 6.3 4.9 Z M 11.3 5.7 C 10.9 5.7 10.5 5.5 10.2 5.1 C 10.16 5.11 10.2 5.6 10.2 5.6 L 9.1 5.6 L 9.1 0.5 L 10.2 0.5 C 10.2 0.5 10.16 2.39 10.2 2.4 C 10.5 2 10.8 1.8 11.3 1.8 C 11.8 1.8 12.2 2 12.5 2.3 C 12.9 2.6 13 3.1 13 3.7 C 13 3.7 13 3.7 13 3.7 C 13 4.3 12.9 4.8 12.5 5.1 C 12.2 5.5 11.8 5.7 11.3 5.7 Z M 10.1 3.7 C 10.1 4 10.2 4.3 10.4 4.5 C 10.6 4.7 10.8 4.8 11.1 4.8 C 11.3 4.8 11.5 4.7 11.7 4.5 C 11.9 4.3 12 4 12 3.7 C 12 3.7 12 3.7 12 3.7 C 12 3.4 11.9 3.2 11.7 3 C 11.5 2.8 11.3 2.7 11.1 2.7 C 10.8 2.7 10.6 2.8 10.4 3 C 10.2 3.2 10.1 3.4 10.1 3.7 C 10.15 3.72 10.1 3.7 10.1 3.7 C 10.1 3.7 10.15 3.73 10.1 3.7 Z M 16.2 5.1 C 15.9 5.5 15.5 5.7 15.1 5.7 C 14.7 5.7 14.4 5.5 14.1 5.3 C 13.9 5.1 13.8 4.7 13.8 4.3 C 13.8 4.28 13.8 1.8 13.8 1.8 L 14.9 1.8 C 14.9 1.8 14.86 3.94 14.9 3.9 C 14.9 4.4 15.1 4.7 15.5 4.7 C 15.7 4.7 15.9 4.6 16 4.5 C 16.1 4.4 16.2 4.2 16.2 3.9 C 16.17 3.94 16.2 1.8 16.2 1.8 L 17.2 1.8 L 17.2 5.6 L 16.2 5.6 L 16.2 5.1 C 16.2 5.1 16.17 5.07 16.2 5.1 Z M 18.2 5.6 L 18.2 1.8 L 19.2 1.8 C 19.2 1.8 19.25 2.38 19.2 2.4 C 19.6 2 19.9 1.8 20.3 1.8 C 20.8 1.8 21.1 1.9 21.3 2.1 C 21.5 2.4 21.6 2.7 21.6 3.2 C 21.62 3.17 21.6 5.6 21.6 5.6 L 20.6 5.6 C 20.6 5.6 20.56 3.51 20.6 3.5 C 20.6 3 20.3 2.7 19.9 2.7 C 19.7 2.7 19.5 2.8 19.4 2.9 C 19.3 3.1 19.2 3.3 19.2 3.5 C 19.25 3.51 19.2 5.6 19.2 5.6 L 18.2 5.6 Z M 24.8 5.6 L 24.8 0.7 L 25.8 0.7 L 25.8 2.8 L 27.8 0.7 L 29.1 0.7 L 27.1 2.8 L 29.2 5.6 L 27.9 5.6 L 26.4 3.5 L 25.8 4.1 L 25.8 5.6 L 24.8 5.6 Z M 31.9 5.2 C 31.6 5.5 31.2 5.7 30.8 5.7 C 30.4 5.7 30.1 5.6 29.8 5.4 C 29.6 5.2 29.5 4.9 29.5 4.5 C 29.5 4.5 29.5 4.5 29.5 4.5 C 29.5 4.1 29.6 3.8 29.9 3.6 C 30.1 3.4 30.5 3.3 31 3.3 C 31.3 3.3 31.6 3.4 31.9 3.5 C 31.9 3.5 31.9 3.4 31.9 3.4 C 31.9 2.9 31.6 2.7 31.1 2.7 C 30.7 2.7 30.4 2.8 30.1 2.9 C 30.1 2.9 29.8 2.1 29.8 2.1 C 30.3 1.9 30.7 1.8 31.2 1.8 C 31.8 1.8 32.2 1.9 32.5 2.2 C 32.8 2.5 32.9 2.9 32.9 3.4 C 32.91 3.42 32.9 5.6 32.9 5.6 L 31.9 5.6 L 31.9 5.2 C 31.9 5.2 31.88 5.19 31.9 5.2 Z M 31.1 4.9 C 31.3 4.9 31.5 4.9 31.7 4.8 C 31.8 4.6 31.9 4.5 31.9 4.3 C 31.9 4.3 31.9 4.1 31.9 4.1 C 31.7 4 31.5 3.9 31.2 3.9 C 31 3.9 30.8 4 30.7 4.1 C 30.6 4.2 30.5 4.3 30.5 4.5 C 30.5 4.5 30.5 4.5 30.5 4.5 C 30.5 4.6 30.5 4.7 30.7 4.8 C 30.8 4.9 30.9 4.9 31.1 4.9 Z M 36.1 5.7 C 35.6 5.7 35.2 5.5 34.9 5.1 C 34.89 5.11 34.9 5.6 34.9 5.6 L 33.8 5.6 L 33.8 0.5 L 34.9 0.5 C 34.9 0.5 34.89 2.39 34.9 2.4 C 35.2 2 35.6 1.8 36.1 1.8 C 36.5 1.8 36.9 2 37.3 2.3 C 37.6 2.6 37.8 3.1 37.8 3.7 C 37.8 3.7 37.8 3.7 37.8 3.7 C 37.8 4.3 37.6 4.8 37.3 5.1 C 36.9 5.5 36.5 5.7 36.1 5.7 Z M 34.9 3.7 C 34.9 4 35 4.3 35.1 4.5 C 35.3 4.7 35.5 4.8 35.8 4.8 C 36 4.8 36.3 4.7 36.4 4.5 C 36.6 4.3 36.7 4 36.7 3.7 C 36.7 3.7 36.7 3.7 36.7 3.7 C 36.7 3.4 36.6 3.2 36.4 3 C 36.3 2.8 36 2.7 35.8 2.7 C 35.5 2.7 35.3 2.8 35.1 3 C 35 3.2 34.9 3.4 34.9 3.7 C 34.88 3.72 34.9 3.7 34.9 3.7 C 34.9 3.7 34.88 3.73 34.9 3.7 Z M 38.6 5.6 L 38.6 1.8 L 39.7 1.8 L 39.7 5.6 L 38.6 5.6 Z M 42.6 3.9 L 42.6 2.9 L 45.6 2.9 L 45.6 3.9 L 42.6 3.9 Z M 50.4 5.7 C 49.6 5.7 48.9 5.4 48.3 4.9 C 48.3 4.9 49 4.1 49 4.1 C 49.5 4.5 50 4.7 50.4 4.7 C 50.7 4.7 50.8 4.7 51 4.6 C 51.1 4.5 51.1 4.4 51.1 4.3 C 51.1 4.3 51.1 4.2 51.1 4.2 C 51.1 4.1 51.1 4 51 3.9 C 50.8 3.8 50.6 3.7 50.2 3.6 C 49.9 3.5 49.7 3.5 49.5 3.4 C 49.3 3.3 49.1 3.3 49 3.1 C 48.8 3 48.7 2.9 48.6 2.7 C 48.6 2.6 48.5 2.4 48.5 2.1 C 48.5 2.1 48.5 2.1 48.5 2.1 C 48.5 1.7 48.7 1.3 49 1 C 49.3 0.8 49.7 0.6 50.3 0.6 C 50.9 0.6 51.5 0.8 52.1 1.3 C 52.1 1.3 51.5 2.1 51.5 2.1 C 51 1.7 50.6 1.6 50.2 1.6 C 50 1.6 49.9 1.6 49.8 1.7 C 49.7 1.8 49.6 1.9 49.6 2 C 49.6 2 49.6 2 49.6 2 C 49.6 2.2 49.7 2.3 49.8 2.4 C 49.9 2.5 50.2 2.6 50.7 2.7 C 51.2 2.8 51.6 3 51.8 3.2 C 52.1 3.4 52.2 3.7 52.2 4.1 C 52.2 4.1 52.2 4.2 52.2 4.2 C 52.2 4.6 52.1 5 51.7 5.3 C 51.4 5.5 51 5.7 50.4 5.7 Z M 53.1 1.4 L 53.1 0.5 L 54.2 0.5 L 54.2 1.4 L 53.1 1.4 Z M 53.1 5.6 L 53.1 1.8 L 54.2 1.8 L 54.2 5.6 L 53.1 5.6 Z M 55.2 5.6 L 55.2 1.8 L 56.2 1.8 C 56.2 1.8 56.22 2.38 56.2 2.4 C 56.5 2 56.9 1.8 57.3 1.8 C 57.7 1.8 58 1.9 58.3 2.1 C 58.5 2.4 58.6 2.7 58.6 3.2 C 58.6 3.17 58.6 5.6 58.6 5.6 L 57.5 5.6 C 57.5 5.6 57.53 3.51 57.5 3.5 C 57.5 3 57.3 2.7 56.9 2.7 C 56.7 2.7 56.5 2.8 56.4 2.9 C 56.3 3.1 56.2 3.3 56.2 3.5 C 56.22 3.51 56.2 5.6 56.2 5.6 L 55.2 5.6 Z M 62.8 6.2 C 62.5 6.6 61.9 6.7 61.2 6.7 C 60.6 6.7 60 6.6 59.5 6.3 C 59.5 6.3 59.9 5.5 59.9 5.5 C 60.3 5.8 60.7 5.9 61.2 5.9 C 61.9 5.9 62.2 5.5 62.2 4.9 C 62.2 4.9 62.2 4.7 62.2 4.7 C 62.1 4.9 61.9 5 61.7 5.1 C 61.5 5.2 61.3 5.3 61 5.3 C 60.6 5.3 60.2 5.1 59.8 4.8 C 59.5 4.5 59.4 4.1 59.4 3.5 C 59.4 3.5 59.4 3.5 59.4 3.5 C 59.4 3 59.5 2.6 59.8 2.3 C 60.2 1.9 60.6 1.8 61 1.8 C 61.5 1.8 61.9 2 62.2 2.3 C 62.23 2.34 62.2 1.8 62.2 1.8 L 63.3 1.8 C 63.3 1.8 63.29 4.75 63.3 4.8 C 63.3 5.4 63.1 5.9 62.8 6.2 C 62.8 6.2 62.8 6.2 62.8 6.2 Z M 60.4 3.5 C 60.4 3.8 60.5 4 60.7 4.2 C 60.8 4.3 61.1 4.4 61.3 4.4 C 61.6 4.4 61.8 4.3 62 4.2 C 62.2 4 62.2 3.8 62.2 3.5 C 62.2 3.5 62.2 3.5 62.2 3.5 C 62.2 3.3 62.2 3.1 62 2.9 C 61.8 2.7 61.6 2.7 61.3 2.7 C 61.1 2.7 60.8 2.7 60.7 2.9 C 60.5 3.1 60.4 3.3 60.4 3.5 C 60.42 3.53 60.4 3.5 60.4 3.5 C 60.4 3.5 60.42 3.54 60.4 3.5 Z M 64.3 5.6 L 64.3 0.5 L 65.4 0.5 L 65.4 5.6 L 64.3 5.6 Z M 69.7 5 C 69.3 5.5 68.8 5.7 68.1 5.7 C 67.6 5.7 67.1 5.5 66.7 5.1 C 66.4 4.8 66.2 4.3 66.2 3.7 C 66.2 3.7 66.2 3.7 66.2 3.7 C 66.2 3.2 66.4 2.7 66.7 2.3 C 67.1 2 67.5 1.8 68 1.8 C 68.6 1.8 69.1 2 69.4 2.4 C 69.7 2.8 69.9 3.2 69.9 3.8 C 69.9 3.9 69.9 4 69.8 4.1 C 69.8 4.1 67.2 4.1 67.2 4.1 C 67.3 4.3 67.4 4.5 67.5 4.6 C 67.7 4.8 67.9 4.8 68.2 4.8 C 68.5 4.8 68.8 4.7 69.1 4.4 C 69.06 4.44 69.7 5 69.7 5 C 69.7 5 69.67 4.98 69.7 5 Z M 67.2 3.4 C 67.2 3.4 68.8 3.4 68.8 3.4 C 68.8 3.2 68.7 3 68.6 2.8 C 68.4 2.7 68.3 2.6 68 2.6 C 67.8 2.6 67.6 2.7 67.5 2.8 C 67.4 3 67.3 3.2 67.2 3.4 Z M 72 5.7 C 71.4 5.7 70.8 5.5 70.4 5.1 C 70.4 5.1 70.8 4.4 70.8 4.4 C 71.2 4.7 71.6 4.9 72 4.9 C 72.3 4.9 72.4 4.8 72.4 4.6 C 72.4 4.6 72.4 4.6 72.4 4.6 C 72.4 4.5 72.4 4.5 72.4 4.5 C 72.4 4.4 72.4 4.4 72.4 4.4 C 72.3 4.4 72.3 4.4 72.3 4.3 C 72.2 4.3 72.2 4.3 72.1 4.3 C 72.1 4.3 72 4.2 72 4.2 C 72 4.2 71.9 4.2 71.8 4.2 C 71.8 4.2 71.7 4.1 71.7 4.1 C 71.5 4.1 71.4 4 71.3 4 C 71.1 3.9 71 3.9 70.9 3.8 C 70.8 3.7 70.7 3.6 70.6 3.5 C 70.6 3.3 70.5 3.2 70.5 3 C 70.5 3 70.5 3 70.5 3 C 70.5 2.6 70.7 2.3 70.9 2.1 C 71.2 1.9 71.5 1.8 71.9 1.8 C 72.4 1.8 72.9 1.9 73.3 2.2 C 73.3 2.2 72.9 3 72.9 3 C 72.5 2.7 72.2 2.6 71.9 2.6 C 71.8 2.6 71.7 2.6 71.6 2.7 C 71.5 2.7 71.5 2.8 71.5 2.9 C 71.5 2.9 71.5 2.9 71.5 2.9 C 71.5 3 71.6 3 71.7 3.1 C 71.8 3.2 72 3.3 72.3 3.3 C 72.4 3.4 72.6 3.4 72.7 3.5 C 72.8 3.5 72.9 3.6 73 3.7 C 73.1 3.8 73.2 3.9 73.3 4 C 73.4 4.1 73.4 4.3 73.4 4.4 C 73.4 4.4 73.4 4.5 73.4 4.5 C 73.4 4.9 73.3 5.2 73 5.4 C 72.7 5.6 72.4 5.7 72 5.7 Z " stroke="none" fill="#000"/>  </g></svg>