<?xml version="1.0" standalone="no"?><!DOCTYPE svg PUBLIC "-//W3C//DTD SVG 1.1//EN" "http://www.w3.org/Graphics/SVG/1.1/DTD/svg11.dtd"><svg xmlns="http://www.w3.org/2000/svg" version="1.1" width="136.3px" height="92.4px" viewBox="0 -3 136.3 92.4" style="top:-3px">  <desc>Bula k Seti – Singles r n Kodu: ZD 332056 Renk: Black Seramik / Silikon / ABS L 15 cm, W 8,2 cm, H 22 cm Tasar m: VE2</desc>  <defs/>  <g id="Polygon378115">    <path d="M 2 56.6 L 2 52.2 L 0.3 52.2 L 0.3 51.7 L 4.2 51.7 L 4.2 52.2 L 2.5 52.2 L 2.5 56.6 L 2 56.6 Z M 6.6 56.1 C 6.3 56.5 5.9 56.7 5.3 56.7 C 4.9 56.7 4.6 56.6 4.4 56.4 C 4.1 56.2 4 55.9 4 55.5 C 4 55.5 4 55.5 4 55.5 C 4 55.2 4.1 54.9 4.4 54.7 C 4.7 54.5 5 54.4 5.5 54.4 C 5.9 54.4 6.2 54.4 6.6 54.5 C 6.6 54.5 6.6 54.4 6.6 54.4 C 6.6 54.1 6.5 53.8 6.3 53.7 C 6.1 53.5 5.9 53.4 5.5 53.4 C 5.2 53.4 4.8 53.5 4.4 53.7 C 4.4 53.7 4.3 53.2 4.3 53.2 C 4.7 53 5.1 52.9 5.6 52.9 C 6.1 52.9 6.5 53.1 6.8 53.3 C 7 53.6 7.1 53.9 7.1 54.4 C 7.13 54.39 7.1 56.6 7.1 56.6 L 6.6 56.6 L 6.6 56.1 C 6.6 56.1 6.62 56.05 6.6 56.1 Z M 5.4 56.2 C 5.8 56.2 6 56.2 6.3 56 C 6.5 55.8 6.6 55.6 6.6 55.3 C 6.6 55.3 6.6 54.9 6.6 54.9 C 6.3 54.8 5.9 54.8 5.6 54.8 C 5.2 54.8 5 54.8 4.8 55 C 4.6 55.1 4.5 55.3 4.5 55.5 C 4.5 55.5 4.5 55.5 4.5 55.5 C 4.5 55.7 4.6 55.9 4.8 56.1 C 4.9 56.2 5.2 56.2 5.4 56.2 Z M 9.5 56.7 C 8.9 56.7 8.4 56.5 8 56.1 C 8 56.1 8.3 55.8 8.3 55.8 C 8.7 56.1 9.1 56.2 9.5 56.2 C 9.7 56.2 9.9 56.2 10 56.1 C 10.2 56 10.3 55.8 10.3 55.6 C 10.3 55.6 10.3 55.6 10.3 55.6 C 10.3 55.5 10.2 55.3 10 55.2 C 9.9 55.2 9.6 55.1 9.4 55 C 9.2 55 9.1 54.9 9.1 54.9 C 9 54.9 8.9 54.8 8.8 54.8 C 8.7 54.8 8.6 54.7 8.5 54.7 C 8.5 54.6 8.4 54.6 8.3 54.5 C 8.3 54.4 8.2 54.4 8.2 54.3 C 8.2 54.2 8.2 54.1 8.2 54 C 8.2 54 8.2 54 8.2 54 C 8.2 53.6 8.3 53.4 8.5 53.2 C 8.7 53 9 52.9 9.4 52.9 C 9.9 52.9 10.3 53.1 10.7 53.3 C 10.7 53.3 10.4 53.7 10.4 53.7 C 10.1 53.5 9.7 53.4 9.4 53.4 C 9.2 53.4 9 53.4 8.9 53.5 C 8.7 53.6 8.7 53.7 8.7 53.9 C 8.7 53.9 8.7 53.9 8.7 53.9 C 8.7 54 8.7 54 8.7 54.1 C 8.8 54.1 8.8 54.2 8.9 54.2 C 8.9 54.3 9 54.3 9.1 54.4 C 9.2 54.4 9.3 54.4 9.3 54.4 C 9.4 54.5 9.5 54.5 9.6 54.5 C 9.7 54.6 9.9 54.6 9.9 54.6 C 10 54.7 10.1 54.7 10.3 54.8 C 10.4 54.8 10.5 54.9 10.5 55 C 10.6 55 10.6 55.1 10.7 55.2 C 10.7 55.3 10.8 55.4 10.8 55.6 C 10.8 55.6 10.8 55.6 10.8 55.6 C 10.8 55.9 10.6 56.2 10.4 56.4 C 10.2 56.6 9.9 56.7 9.5 56.7 Z M 14.2 56.1 C 13.8 56.5 13.4 56.7 12.8 56.7 C 12.5 56.7 12.2 56.6 11.9 56.4 C 11.6 56.2 11.5 55.9 11.5 55.5 C 11.5 55.5 11.5 55.5 11.5 55.5 C 11.5 55.2 11.6 54.9 11.9 54.7 C 12.2 54.5 12.6 54.4 13 54.4 C 13.4 54.4 13.8 54.4 14.2 54.5 C 14.2 54.5 14.2 54.4 14.2 54.4 C 14.2 54.1 14.1 53.8 13.9 53.7 C 13.7 53.5 13.4 53.4 13.1 53.4 C 12.7 53.4 12.3 53.5 12 53.7 C 12 53.7 11.8 53.2 11.8 53.2 C 12.2 53 12.7 52.9 13.1 52.9 C 13.6 52.9 14 53.1 14.3 53.3 C 14.5 53.6 14.7 53.9 14.7 54.4 C 14.67 54.39 14.7 56.6 14.7 56.6 L 14.2 56.6 L 14.2 56.1 C 14.2 56.1 14.15 56.05 14.2 56.1 Z M 12.9 56.2 C 13.3 56.2 13.6 56.2 13.8 56 C 14 55.8 14.2 55.6 14.2 55.3 C 14.2 55.3 14.2 54.9 14.2 54.9 C 13.8 54.8 13.4 54.8 13.1 54.8 C 12.8 54.8 12.5 54.8 12.3 55 C 12.1 55.1 12 55.3 12 55.5 C 12 55.5 12 55.5 12 55.5 C 12 55.7 12.1 55.9 12.3 56.1 C 12.5 56.2 12.7 56.2 12.9 56.2 Z M 15.8 56.6 L 15.8 53 L 16.4 53 C 16.4 53 16.36 53.93 16.4 53.9 C 16.5 53.6 16.7 53.4 17 53.2 C 17.2 53 17.5 52.9 17.8 52.9 C 17.84 52.92 17.8 53.5 17.8 53.5 C 17.8 53.5 17.79 53.5 17.8 53.5 C 17.4 53.5 17 53.6 16.8 53.9 C 16.5 54.2 16.4 54.6 16.4 55.2 C 16.36 55.16 16.4 56.6 16.4 56.6 L 15.8 56.6 Z M 18.7 56.6 L 18.7 53 L 19.2 53 L 19.2 56.6 L 18.7 56.6 Z M 20.5 56.6 L 20.5 53 L 21 53 C 21 53 21.03 53.59 21 53.6 C 21.2 53.4 21.3 53.2 21.5 53.1 C 21.7 53 21.9 52.9 22.2 52.9 C 22.7 52.9 23.1 53.1 23.4 53.6 C 23.7 53.1 24.1 52.9 24.6 52.9 C 25.1 52.9 25.4 53 25.6 53.3 C 25.9 53.6 26 53.9 26 54.4 C 25.98 54.36 26 56.6 26 56.6 L 25.4 56.6 C 25.4 56.6 25.44 54.49 25.4 54.5 C 25.4 54.1 25.4 53.9 25.2 53.7 C 25 53.5 24.8 53.4 24.5 53.4 C 24.2 53.4 24 53.5 23.8 53.7 C 23.6 53.9 23.5 54.2 23.5 54.5 C 23.51 54.51 23.5 56.6 23.5 56.6 L 23 56.6 C 23 56.6 22.97 54.47 23 54.5 C 23 54.1 22.9 53.9 22.7 53.7 C 22.6 53.5 22.3 53.4 22 53.4 C 21.8 53.4 21.5 53.5 21.3 53.7 C 21.1 53.9 21 54.2 21 54.5 C 21.03 54.53 21 56.6 21 56.6 L 20.5 56.6 Z M 27.1 53.7 L 27.1 53 L 27.7 53 L 27.7 53.7 L 27.1 53.7 Z M 27.1 56.6 L 27.1 55.9 L 27.7 55.9 L 27.7 56.6 L 27.1 56.6 Z M 32.8 56.6 L 30.7 51.7 L 31.3 51.7 L 33 55.9 L 34.8 51.7 L 35.4 51.7 L 33.3 56.6 L 32.8 56.6 Z M 36.4 56.6 L 36.4 51.7 L 39.9 51.7 L 39.9 52.2 L 36.9 52.2 L 36.9 53.9 L 39.6 53.9 L 39.6 54.4 L 36.9 54.4 L 36.9 56.1 L 39.9 56.1 L 39.9 56.6 L 36.4 56.6 Z M 40.7 56.6 L 40.7 56.2 C 40.7 56.2 42.46 54.6 42.5 54.6 C 42.8 54.3 43.1 54 43.3 53.8 C 43.4 53.5 43.5 53.3 43.5 53.1 C 43.5 52.8 43.4 52.6 43.2 52.4 C 43 52.2 42.8 52.1 42.5 52.1 C 42.2 52.1 42 52.2 41.8 52.3 C 41.6 52.5 41.4 52.7 41.2 53 C 41.2 53 40.8 52.7 40.8 52.7 C 41 52.3 41.3 52 41.5 51.9 C 41.8 51.7 42.1 51.6 42.5 51.6 C 43 51.6 43.3 51.8 43.6 52 C 43.9 52.3 44.1 52.6 44.1 53 C 44.1 53 44.1 53 44.1 53 C 44.1 53.4 44 53.7 43.8 53.9 C 43.6 54.2 43.3 54.5 42.8 54.9 C 42.82 54.93 41.5 56.1 41.5 56.1 L 44.1 56.1 L 44.1 56.6 L 40.7 56.6 Z " stroke="none" fill="#000"/>  </g>  <g id="Polygon378114">    <path d="M 0.7 48.2 L 0.7 43.3 L 1.2 43.3 L 1.2 47.7 L 4 47.7 L 4 48.2 L 0.7 48.2 Z M 7.7 48.2 L 7.7 43.8 L 6.7 44.1 L 6.6 43.7 L 7.8 43.3 L 8.2 43.3 L 8.2 48.2 L 7.7 48.2 Z M 11 48.3 C 10.4 48.3 9.8 48 9.3 47.5 C 9.3 47.5 9.6 47.1 9.6 47.1 C 10.1 47.6 10.6 47.8 11 47.8 C 11.4 47.8 11.7 47.7 11.9 47.5 C 12.1 47.3 12.2 47 12.2 46.7 C 12.2 46.7 12.2 46.7 12.2 46.7 C 12.2 46.4 12.1 46.1 11.9 45.9 C 11.7 45.7 11.4 45.7 11 45.7 C 10.6 45.7 10.3 45.7 10 45.9 C 9.97 45.93 9.6 45.7 9.6 45.7 L 9.7 43.3 L 12.6 43.3 L 12.6 43.8 L 10.2 43.8 C 10.2 43.8 10.12 45.38 10.1 45.4 C 10.4 45.2 10.8 45.2 11.1 45.2 C 11.6 45.2 12 45.3 12.3 45.6 C 12.6 45.8 12.8 46.2 12.8 46.7 C 12.8 46.7 12.8 46.7 12.8 46.7 C 12.8 47.1 12.6 47.5 12.3 47.8 C 12 48.1 11.5 48.3 11 48.3 Z M 19 47.6 C 18.6 48.1 18.1 48.3 17.5 48.3 C 17 48.3 16.6 48.1 16.2 47.7 C 15.8 47.4 15.7 46.9 15.7 46.4 C 15.7 46.4 15.7 46.4 15.7 46.4 C 15.7 45.9 15.8 45.4 16.2 45.1 C 16.6 44.7 17 44.5 17.5 44.5 C 18.1 44.5 18.6 44.7 19 45.1 C 19 45.1 18.6 45.5 18.6 45.5 C 18.3 45.2 17.9 45 17.5 45 C 17.2 45 16.8 45.1 16.6 45.4 C 16.3 45.7 16.2 46 16.2 46.4 C 16.2 46.4 16.2 46.4 16.2 46.4 C 16.2 46.8 16.4 47.1 16.6 47.4 C 16.9 47.7 17.2 47.8 17.6 47.8 C 18 47.8 18.3 47.6 18.7 47.3 C 18.66 47.26 19 47.6 19 47.6 C 19 47.6 19 47.58 19 47.6 Z M 19.9 48.2 L 19.9 44.6 L 20.4 44.6 C 20.4 44.6 20.43 45.19 20.4 45.2 C 20.6 45 20.7 44.8 20.9 44.7 C 21.1 44.6 21.3 44.5 21.6 44.5 C 22.1 44.5 22.5 44.7 22.8 45.2 C 23.1 44.7 23.5 44.5 24 44.5 C 24.5 44.5 24.8 44.6 25 44.9 C 25.3 45.2 25.4 45.5 25.4 46 C 25.38 45.96 25.4 48.2 25.4 48.2 L 24.8 48.2 C 24.8 48.2 24.84 46.09 24.8 46.1 C 24.8 45.7 24.8 45.5 24.6 45.3 C 24.4 45.1 24.2 45 23.9 45 C 23.6 45 23.4 45.1 23.2 45.3 C 23 45.5 22.9 45.8 22.9 46.1 C 22.9 46.11 22.9 48.2 22.9 48.2 L 22.4 48.2 C 22.4 48.2 22.37 46.07 22.4 46.1 C 22.4 45.7 22.3 45.5 22.1 45.3 C 22 45.1 21.7 45 21.4 45 C 21.2 45 20.9 45.1 20.7 45.3 C 20.5 45.5 20.4 45.8 20.4 46.1 C 20.43 46.13 20.4 48.2 20.4 48.2 L 19.9 48.2 Z M 26.3 49.1 C 26.3 49.1 26.2 48.8 26.2 48.8 C 26.6 48.7 26.7 48.5 26.7 48.2 C 26.72 48.2 26.5 48.2 26.5 48.2 L 26.5 47.5 L 27.1 47.5 C 27.1 47.5 27.11 48.09 27.1 48.1 C 27.1 48.4 27 48.6 26.9 48.7 C 26.8 48.9 26.6 49 26.3 49.1 Z M 31.8 48.2 L 30.1 43.3 L 30.7 43.3 L 32.1 47.4 L 33.4 43.3 L 33.9 43.3 L 35.2 47.4 L 36.6 43.3 L 37.2 43.3 L 35.4 48.2 L 35 48.2 L 33.6 44.3 L 32.3 48.2 L 31.8 48.2 Z M 43.6 46.9 C 43.6 47.3 43.5 47.6 43.1 47.9 C 42.8 48.1 42.3 48.3 41.8 48.3 C 41.3 48.3 40.8 48.1 40.5 47.9 C 40.1 47.6 40 47.3 40 46.9 C 40 46.9 40 46.9 40 46.9 C 40 46.6 40 46.3 40.2 46.1 C 40.4 45.9 40.7 45.8 41 45.7 C 40.4 45.4 40.1 45 40.1 44.5 C 40.1 44.5 40.1 44.5 40.1 44.5 C 40.1 44.2 40.3 43.8 40.6 43.6 C 40.9 43.4 41.3 43.2 41.8 43.2 C 42.3 43.2 42.6 43.4 43 43.6 C 43.3 43.8 43.5 44.2 43.5 44.5 C 43.5 44.5 43.5 44.5 43.5 44.5 C 43.5 45 43.2 45.4 42.6 45.7 C 42.9 45.8 43.2 45.9 43.4 46.1 C 43.5 46.3 43.6 46.6 43.6 46.9 C 43.64 46.86 43.6 46.9 43.6 46.9 C 43.6 46.9 43.64 46.88 43.6 46.9 Z M 40.7 44.6 C 40.7 44.8 40.8 45 41 45.2 C 41.2 45.4 41.5 45.5 41.8 45.5 C 42.1 45.5 42.4 45.4 42.6 45.2 C 42.8 45 42.9 44.8 42.9 44.6 C 42.9 44.6 42.9 44.6 42.9 44.6 C 42.9 44.3 42.8 44.1 42.6 44 C 42.4 43.8 42.1 43.7 41.8 43.7 C 41.5 43.7 41.2 43.8 41 44 C 40.8 44.1 40.7 44.3 40.7 44.6 C 40.68 44.56 40.7 44.6 40.7 44.6 C 40.7 44.6 40.68 44.57 40.7 44.6 Z M 40.5 46.9 C 40.5 47.1 40.6 47.3 40.9 47.5 C 41.1 47.7 41.4 47.8 41.8 47.8 C 42.2 47.8 42.5 47.7 42.7 47.5 C 43 47.3 43.1 47.1 43.1 46.9 C 43.1 46.9 43.1 46.9 43.1 46.9 C 43.1 46.6 43 46.4 42.7 46.2 C 42.5 46 42.2 45.9 41.8 45.9 C 41.4 45.9 41.1 46 40.9 46.2 C 40.6 46.4 40.5 46.6 40.5 46.9 C 40.52 46.86 40.5 46.9 40.5 46.9 C 40.5 46.9 40.52 46.87 40.5 46.9 Z M 44.4 49.1 C 44.4 49.1 44.3 48.8 44.3 48.8 C 44.7 48.7 44.8 48.5 44.8 48.2 C 44.79 48.2 44.5 48.2 44.5 48.2 L 44.5 47.5 L 45.2 47.5 C 45.2 47.5 45.18 48.09 45.2 48.1 C 45.2 48.4 45.1 48.6 45 48.7 C 44.9 48.9 44.7 49 44.4 49.1 Z M 46.1 48.2 L 46.1 47.8 C 46.1 47.8 47.83 46.2 47.8 46.2 C 48.2 45.9 48.5 45.6 48.6 45.4 C 48.8 45.1 48.9 44.9 48.9 44.7 C 48.9 44.4 48.8 44.2 48.6 44 C 48.4 43.8 48.1 43.7 47.9 43.7 C 47.6 43.7 47.4 43.8 47.2 43.9 C 47 44.1 46.8 44.3 46.5 44.6 C 46.5 44.6 46.1 44.3 46.1 44.3 C 46.4 43.9 46.6 43.6 46.9 43.5 C 47.2 43.3 47.5 43.2 47.9 43.2 C 48.3 43.2 48.7 43.4 49 43.6 C 49.3 43.9 49.4 44.2 49.4 44.6 C 49.4 44.6 49.4 44.6 49.4 44.6 C 49.4 45 49.3 45.3 49.2 45.5 C 49 45.8 48.6 46.1 48.2 46.5 C 48.19 46.53 46.9 47.7 46.9 47.7 L 49.5 47.7 L 49.5 48.2 L 46.1 48.2 Z M 55.7 47.6 C 55.3 48.1 54.8 48.3 54.2 48.3 C 53.7 48.3 53.3 48.1 52.9 47.7 C 52.6 47.4 52.4 46.9 52.4 46.4 C 52.4 46.4 52.4 46.4 52.4 46.4 C 52.4 45.9 52.6 45.4 52.9 45.1 C 53.3 44.7 53.7 44.5 54.2 44.5 C 54.8 44.5 55.3 44.7 55.7 45.1 C 55.7 45.1 55.3 45.5 55.3 45.5 C 55 45.2 54.6 45 54.2 45 C 53.9 45 53.6 45.1 53.3 45.4 C 53.1 45.7 52.9 46 52.9 46.4 C 52.9 46.4 52.9 46.4 52.9 46.4 C 52.9 46.8 53.1 47.1 53.3 47.4 C 53.6 47.7 53.9 47.8 54.3 47.8 C 54.7 47.8 55 47.6 55.4 47.3 C 55.38 47.26 55.7 47.6 55.7 47.6 C 55.7 47.6 55.72 47.58 55.7 47.6 Z M 56.6 48.2 L 56.6 44.6 L 57.1 44.6 C 57.1 44.6 57.15 45.19 57.1 45.2 C 57.3 45 57.5 44.8 57.6 44.7 C 57.8 44.6 58 44.5 58.3 44.5 C 58.9 44.5 59.2 44.7 59.5 45.2 C 59.8 44.7 60.2 44.5 60.8 44.5 C 61.2 44.5 61.5 44.6 61.7 44.9 C 62 45.2 62.1 45.5 62.1 46 C 62.1 45.96 62.1 48.2 62.1 48.2 L 61.6 48.2 C 61.6 48.2 61.56 46.09 61.6 46.1 C 61.6 45.7 61.5 45.5 61.3 45.3 C 61.1 45.1 60.9 45 60.6 45 C 60.3 45 60.1 45.1 59.9 45.3 C 59.7 45.5 59.6 45.8 59.6 46.1 C 59.62 46.11 59.6 48.2 59.6 48.2 L 59.1 48.2 C 59.1 48.2 59.09 46.07 59.1 46.1 C 59.1 45.7 59 45.5 58.8 45.3 C 58.7 45.1 58.4 45 58.2 45 C 57.9 45 57.6 45.1 57.4 45.3 C 57.2 45.5 57.1 45.8 57.1 46.1 C 57.15 46.13 57.1 48.2 57.1 48.2 L 56.6 48.2 Z M 63 49.1 C 63 49.1 63 48.8 63 48.8 C 63.3 48.7 63.5 48.5 63.4 48.2 C 63.43 48.2 63.2 48.2 63.2 48.2 L 63.2 47.5 L 63.8 47.5 C 63.8 47.5 63.83 48.09 63.8 48.1 C 63.8 48.4 63.8 48.6 63.6 48.7 C 63.5 48.9 63.3 49 63 49.1 Z M 67.2 48.2 L 67.2 43.3 L 67.7 43.3 L 67.7 45.5 L 70.5 45.5 L 70.5 43.3 L 71.1 43.3 L 71.1 48.2 L 70.5 48.2 L 70.5 46 L 67.7 46 L 67.7 48.2 L 67.2 48.2 Z M 74.2 48.2 L 74.2 47.8 C 74.2 47.8 75.99 46.2 76 46.2 C 76.4 45.9 76.6 45.6 76.8 45.4 C 76.9 45.1 77 44.9 77 44.7 C 77 44.4 76.9 44.2 76.7 44 C 76.5 43.8 76.3 43.7 76 43.7 C 75.8 43.7 75.5 43.8 75.3 43.9 C 75.1 44.1 74.9 44.3 74.7 44.6 C 74.7 44.6 74.3 44.3 74.3 44.3 C 74.6 43.9 74.8 43.6 75.1 43.5 C 75.3 43.3 75.7 43.2 76.1 43.2 C 76.5 43.2 76.9 43.4 77.2 43.6 C 77.4 43.9 77.6 44.2 77.6 44.6 C 77.6 44.6 77.6 44.6 77.6 44.6 C 77.6 45 77.5 45.3 77.3 45.5 C 77.1 45.8 76.8 46.1 76.3 46.5 C 76.35 46.53 75 47.7 75 47.7 L 77.6 47.7 L 77.6 48.2 L 74.2 48.2 Z M 78.4 48.2 L 78.4 47.8 C 78.4 47.8 80.18 46.2 80.2 46.2 C 80.6 45.9 80.8 45.6 81 45.4 C 81.1 45.1 81.2 44.9 81.2 44.7 C 81.2 44.4 81.1 44.2 80.9 44 C 80.7 43.8 80.5 43.7 80.2 43.7 C 79.9 43.7 79.7 43.8 79.5 43.9 C 79.3 44.1 79.1 44.3 78.9 44.6 C 78.9 44.6 78.5 44.3 78.5 44.3 C 78.7 43.9 79 43.6 79.3 43.5 C 79.5 43.3 79.9 43.2 80.3 43.2 C 80.7 43.2 81.1 43.4 81.3 43.6 C 81.6 43.9 81.8 44.2 81.8 44.6 C 81.8 44.6 81.8 44.6 81.8 44.6 C 81.8 45 81.7 45.3 81.5 45.5 C 81.3 45.8 81 46.1 80.5 46.5 C 80.54 46.53 79.2 47.7 79.2 47.7 L 81.8 47.7 L 81.8 48.2 L 78.4 48.2 Z M 88.1 47.6 C 87.7 48.1 87.2 48.3 86.6 48.3 C 86.1 48.3 85.6 48.1 85.3 47.7 C 84.9 47.4 84.7 46.9 84.7 46.4 C 84.7 46.4 84.7 46.4 84.7 46.4 C 84.7 45.9 84.9 45.4 85.3 45.1 C 85.6 44.7 86.1 44.5 86.6 44.5 C 87.2 44.5 87.6 44.7 88 45.1 C 88 45.1 87.7 45.5 87.7 45.5 C 87.3 45.2 87 45 86.6 45 C 86.2 45 85.9 45.1 85.7 45.4 C 85.4 45.7 85.3 46 85.3 46.4 C 85.3 46.4 85.3 46.4 85.3 46.4 C 85.3 46.8 85.4 47.1 85.7 47.4 C 85.9 47.7 86.2 47.8 86.6 47.8 C 87 47.8 87.4 47.6 87.7 47.3 C 87.73 47.26 88.1 47.6 88.1 47.6 C 88.1 47.6 88.07 47.58 88.1 47.6 Z M 89 48.2 L 89 44.6 L 89.5 44.6 C 89.5 44.6 89.5 45.19 89.5 45.2 C 89.6 45 89.8 44.8 90 44.7 C 90.2 44.6 90.4 44.5 90.7 44.5 C 91.2 44.5 91.6 44.7 91.8 45.2 C 92.2 44.7 92.6 44.5 93.1 44.5 C 93.5 44.5 93.9 44.6 94.1 44.9 C 94.3 45.2 94.4 45.5 94.4 46 C 94.45 45.96 94.4 48.2 94.4 48.2 L 93.9 48.2 C 93.9 48.2 93.91 46.09 93.9 46.1 C 93.9 45.7 93.8 45.5 93.7 45.3 C 93.5 45.1 93.3 45 93 45 C 92.7 45 92.5 45.1 92.3 45.3 C 92.1 45.5 92 45.8 92 46.1 C 91.97 46.11 92 48.2 92 48.2 L 91.4 48.2 C 91.4 48.2 91.44 46.07 91.4 46.1 C 91.4 45.7 91.4 45.5 91.2 45.3 C 91 45.1 90.8 45 90.5 45 C 90.2 45 90 45.1 89.8 45.3 C 89.6 45.5 89.5 45.8 89.5 46.1 C 89.5 46.13 89.5 48.2 89.5 48.2 L 89 48.2 Z " stroke="none" fill="#000"/>  </g>  <g id="Polygon378113">    <path d="M 2.4 39.9 C 1.6 39.9 0.9 39.6 0.4 39.1 C 0.4 39.1 0.7 38.7 0.7 38.7 C 1 38.9 1.2 39.1 1.5 39.2 C 1.8 39.3 2.1 39.4 2.4 39.4 C 2.7 39.4 3 39.3 3.2 39.1 C 3.4 39 3.5 38.8 3.5 38.5 C 3.5 38.5 3.5 38.5 3.5 38.5 C 3.5 38.3 3.4 38.1 3.2 38 C 3 37.8 2.7 37.7 2.2 37.6 C 1.6 37.5 1.2 37.3 1 37.1 C 0.7 36.9 0.6 36.6 0.6 36.2 C 0.6 36.2 0.6 36.2 0.6 36.2 C 0.6 35.8 0.7 35.5 1 35.2 C 1.3 35 1.7 34.8 2.2 34.8 C 2.5 34.8 2.8 34.9 3.1 35 C 3.4 35.1 3.6 35.2 3.9 35.4 C 3.9 35.4 3.6 35.9 3.6 35.9 C 3.1 35.5 2.7 35.3 2.2 35.3 C 1.8 35.3 1.6 35.4 1.4 35.6 C 1.2 35.7 1.1 35.9 1.1 36.1 C 1.1 36.1 1.1 36.1 1.1 36.1 C 1.1 36.4 1.2 36.6 1.4 36.7 C 1.6 36.9 1.9 37 2.5 37.1 C 3 37.2 3.4 37.4 3.7 37.6 C 3.9 37.8 4 38.1 4 38.5 C 4 38.5 4 38.5 4 38.5 C 4 38.9 3.9 39.2 3.6 39.5 C 3.3 39.7 2.9 39.9 2.4 39.9 Z M 8.2 39.2 C 7.8 39.7 7.3 39.9 6.7 39.9 C 6.2 39.9 5.7 39.7 5.4 39.4 C 5 39 4.9 38.6 4.9 38 C 4.9 38 4.9 38 4.9 38 C 4.9 37.5 5 37 5.4 36.6 C 5.7 36.3 6.1 36.1 6.6 36.1 C 7.1 36.1 7.5 36.3 7.8 36.6 C 8.1 37 8.3 37.5 8.3 38 C 8.3 38.1 8.3 38.1 8.3 38.2 C 8.3 38.2 5.4 38.2 5.4 38.2 C 5.4 38.6 5.6 38.9 5.8 39.1 C 6.1 39.3 6.3 39.4 6.7 39.4 C 7.1 39.4 7.5 39.2 7.8 38.9 C 7.82 38.9 8.2 39.2 8.2 39.2 C 8.2 39.2 8.15 39.2 8.2 39.2 Z M 5.4 37.8 C 5.4 37.8 7.7 37.8 7.7 37.8 C 7.7 37.4 7.6 37.1 7.4 36.9 C 7.2 36.7 6.9 36.6 6.6 36.6 C 6.3 36.6 6 36.7 5.8 36.9 C 5.6 37.1 5.4 37.4 5.4 37.8 Z M 9.2 39.8 L 9.2 36.2 L 9.8 36.2 C 9.8 36.2 9.76 37.13 9.8 37.1 C 9.9 36.8 10.1 36.6 10.4 36.4 C 10.6 36.2 10.9 36.1 11.2 36.1 C 11.24 36.12 11.2 36.7 11.2 36.7 C 11.2 36.7 11.2 36.7 11.2 36.7 C 10.8 36.7 10.4 36.8 10.2 37.1 C 9.9 37.4 9.8 37.8 9.8 38.4 C 9.76 38.36 9.8 39.8 9.8 39.8 L 9.2 39.8 Z M 14.3 39.3 C 14 39.7 13.5 39.9 13 39.9 C 12.6 39.9 12.3 39.8 12 39.6 C 11.7 39.4 11.6 39.1 11.6 38.7 C 11.6 38.7 11.6 38.7 11.6 38.7 C 11.6 38.4 11.8 38.1 12 37.9 C 12.3 37.7 12.7 37.6 13.2 37.6 C 13.5 37.6 13.9 37.6 14.3 37.7 C 14.3 37.7 14.3 37.6 14.3 37.6 C 14.3 37.3 14.2 37 14 36.9 C 13.8 36.7 13.5 36.6 13.2 36.6 C 12.8 36.6 12.5 36.7 12.1 36.9 C 12.1 36.9 11.9 36.4 11.9 36.4 C 12.4 36.2 12.8 36.1 13.3 36.1 C 13.8 36.1 14.2 36.3 14.4 36.5 C 14.7 36.8 14.8 37.1 14.8 37.6 C 14.79 37.59 14.8 39.8 14.8 39.8 L 14.3 39.8 L 14.3 39.3 C 14.3 39.3 14.27 39.25 14.3 39.3 Z M 13.1 39.4 C 13.4 39.4 13.7 39.4 13.9 39.2 C 14.2 39 14.3 38.8 14.3 38.5 C 14.3 38.5 14.3 38.1 14.3 38.1 C 13.9 38 13.6 38 13.2 38 C 12.9 38 12.6 38 12.4 38.2 C 12.3 38.3 12.2 38.5 12.2 38.7 C 12.2 38.7 12.2 38.7 12.2 38.7 C 12.2 38.9 12.2 39.1 12.4 39.3 C 12.6 39.4 12.8 39.4 13.1 39.4 Z M 15.9 39.8 L 15.9 36.2 L 16.5 36.2 C 16.5 36.2 16.48 36.79 16.5 36.8 C 16.6 36.6 16.8 36.4 17 36.3 C 17.1 36.2 17.4 36.1 17.6 36.1 C 18.2 36.1 18.6 36.3 18.8 36.8 C 19.1 36.3 19.6 36.1 20.1 36.1 C 20.5 36.1 20.8 36.2 21.1 36.5 C 21.3 36.8 21.4 37.1 21.4 37.6 C 21.43 37.56 21.4 39.8 21.4 39.8 L 20.9 39.8 C 20.9 39.8 20.89 37.69 20.9 37.7 C 20.9 37.3 20.8 37.1 20.6 36.9 C 20.5 36.7 20.2 36.6 19.9 36.6 C 19.7 36.6 19.4 36.7 19.2 36.9 C 19 37.1 18.9 37.4 18.9 37.7 C 18.95 37.71 18.9 39.8 18.9 39.8 L 18.4 39.8 C 18.4 39.8 18.42 37.67 18.4 37.7 C 18.4 37.3 18.3 37.1 18.2 36.9 C 18 36.7 17.8 36.6 17.5 36.6 C 17.2 36.6 17 36.7 16.8 36.9 C 16.6 37.1 16.5 37.4 16.5 37.7 C 16.48 37.73 16.5 39.8 16.5 39.8 L 15.9 39.8 Z M 22.6 35.4 L 22.6 34.8 L 23.2 34.8 L 23.2 35.4 L 22.6 35.4 Z M 22.6 39.8 L 22.6 36.2 L 23.2 36.2 L 23.2 39.8 L 22.6 39.8 Z M 24.4 39.8 L 24.4 34.7 L 25 34.7 L 25 38.2 L 26.9 36.2 L 27.6 36.2 L 26.1 37.7 L 27.6 39.8 L 27 39.8 L 25.7 38.1 L 25 38.9 L 25 39.8 L 24.4 39.8 Z M 29.7 40.7 L 33 34.2 L 33.5 34.2 L 30.2 40.7 L 29.7 40.7 Z M 37.9 39.9 C 37.2 39.9 36.5 39.6 35.9 39.1 C 35.9 39.1 36.3 38.7 36.3 38.7 C 36.5 38.9 36.8 39.1 37.1 39.2 C 37.3 39.3 37.6 39.4 37.9 39.4 C 38.3 39.4 38.5 39.3 38.7 39.1 C 38.9 39 39 38.8 39 38.5 C 39 38.5 39 38.5 39 38.5 C 39 38.3 38.9 38.1 38.8 38 C 38.6 37.8 38.3 37.7 37.8 37.6 C 37.2 37.5 36.8 37.3 36.5 37.1 C 36.2 36.9 36.1 36.6 36.1 36.2 C 36.1 36.2 36.1 36.2 36.1 36.2 C 36.1 35.8 36.3 35.5 36.6 35.2 C 36.9 35 37.3 34.8 37.7 34.8 C 38.1 34.8 38.4 34.9 38.7 35 C 38.9 35.1 39.2 35.2 39.5 35.4 C 39.5 35.4 39.1 35.9 39.1 35.9 C 38.7 35.5 38.2 35.3 37.7 35.3 C 37.4 35.3 37.1 35.4 37 35.6 C 36.8 35.7 36.7 35.9 36.7 36.1 C 36.7 36.1 36.7 36.1 36.7 36.1 C 36.7 36.4 36.8 36.6 36.9 36.7 C 37.1 36.9 37.5 37 38 37.1 C 38.6 37.2 39 37.4 39.2 37.6 C 39.5 37.8 39.6 38.1 39.6 38.5 C 39.6 38.5 39.6 38.5 39.6 38.5 C 39.6 38.9 39.4 39.2 39.1 39.5 C 38.8 39.7 38.4 39.9 37.9 39.9 Z M 40.6 35.4 L 40.6 34.8 L 41.3 34.8 L 41.3 35.4 L 40.6 35.4 Z M 40.7 39.8 L 40.7 36.2 L 41.2 36.2 L 41.2 39.8 L 40.7 39.8 Z M 42.5 39.8 L 42.5 34.7 L 43.1 34.7 L 43.1 39.8 L 42.5 39.8 Z M 44.3 35.4 L 44.3 34.8 L 44.9 34.8 L 44.9 35.4 L 44.3 35.4 Z M 44.4 39.8 L 44.4 36.2 L 44.9 36.2 L 44.9 39.8 L 44.4 39.8 Z M 46.2 39.8 L 46.2 34.7 L 46.7 34.7 L 46.7 38.2 L 48.6 36.2 L 49.3 36.2 L 47.8 37.7 L 49.4 39.8 L 48.7 39.8 L 47.4 38.1 L 46.7 38.9 L 46.7 39.8 L 46.2 39.8 Z M 51.6 39.9 C 51.1 39.9 50.6 39.7 50.3 39.3 C 49.9 39 49.7 38.5 49.7 38 C 49.7 38 49.7 38 49.7 38 C 49.7 37.5 49.9 37 50.3 36.7 C 50.6 36.3 51.1 36.1 51.6 36.1 C 52.2 36.1 52.6 36.3 53 36.7 C 53.3 37 53.5 37.5 53.5 38 C 53.5 38 53.5 38 53.5 38 C 53.5 38.5 53.3 39 53 39.3 C 52.6 39.7 52.2 39.9 51.6 39.9 Z M 51.6 39.4 C 52 39.4 52.3 39.3 52.6 39 C 52.8 38.7 53 38.4 53 38 C 53 38 53 38 53 38 C 53 37.6 52.8 37.3 52.6 37 C 52.3 36.7 52 36.6 51.6 36.6 C 51.2 36.6 50.9 36.7 50.7 37 C 50.4 37.3 50.3 37.6 50.3 38 C 50.3 38 50.3 38 50.3 38 C 50.3 38.4 50.4 38.7 50.7 39 C 50.9 39.3 51.3 39.4 51.6 39.4 Z M 54.5 39.8 L 54.5 36.2 L 55 36.2 C 55 36.2 55.03 36.81 55 36.8 C 55.3 36.3 55.7 36.1 56.3 36.1 C 56.7 36.1 57 36.2 57.3 36.5 C 57.5 36.8 57.7 37.1 57.7 37.6 C 57.65 37.55 57.7 39.8 57.7 39.8 L 57.1 39.8 C 57.1 39.8 57.11 37.69 57.1 37.7 C 57.1 37.3 57 37.1 56.8 36.9 C 56.7 36.7 56.4 36.6 56.1 36.6 C 55.8 36.6 55.5 36.7 55.3 36.9 C 55.1 37.1 55 37.4 55 37.7 C 55.03 37.73 55 39.8 55 39.8 L 54.5 39.8 Z M 60.2 40.7 L 63.4 34.2 L 63.9 34.2 L 60.6 40.7 L 60.2 40.7 Z M 66.2 39.8 L 68.5 34.9 L 69 34.9 L 71.2 39.8 L 70.6 39.8 L 70 38.5 L 67.4 38.5 L 66.8 39.8 L 66.2 39.8 Z M 67.6 38 L 69.8 38 L 68.7 35.5 L 67.6 38 Z M 72.2 39.8 L 72.2 34.9 C 72.2 34.9 74.26 34.9 74.3 34.9 C 74.8 34.9 75.2 35 75.5 35.3 C 75.8 35.5 75.9 35.8 75.9 36.1 C 75.9 36.1 75.9 36.1 75.9 36.1 C 75.9 36.7 75.6 37 75.1 37.3 C 75.8 37.5 76.1 37.9 76.1 38.4 C 76.1 38.4 76.1 38.5 76.1 38.5 C 76.1 38.9 76 39.2 75.6 39.4 C 75.3 39.7 74.9 39.8 74.4 39.8 C 74.35 39.8 72.2 39.8 72.2 39.8 Z M 75.3 36.2 C 75.3 36.2 75.3 36.2 75.3 36.2 C 75.3 35.9 75.2 35.8 75 35.6 C 74.8 35.5 74.6 35.4 74.2 35.4 C 74.21 35.4 72.7 35.4 72.7 35.4 L 72.7 37.1 C 72.7 37.1 74.17 37.08 74.2 37.1 C 74.5 37.1 74.8 37 75 36.9 C 75.2 36.7 75.3 36.5 75.3 36.2 Z M 75.6 38.4 C 75.6 38.4 75.6 38.4 75.6 38.4 C 75.6 38.1 75.5 37.9 75.2 37.8 C 75 37.6 74.7 37.6 74.3 37.6 C 74.27 37.57 72.7 37.6 72.7 37.6 L 72.7 39.3 C 72.7 39.3 74.37 39.3 74.4 39.3 C 74.7 39.3 75 39.2 75.3 39.1 C 75.5 38.9 75.6 38.7 75.6 38.4 Z M 78.9 39.9 C 78.2 39.9 77.5 39.6 76.9 39.1 C 76.9 39.1 77.3 38.7 77.3 38.7 C 77.5 38.9 77.8 39.1 78 39.2 C 78.3 39.3 78.6 39.4 78.9 39.4 C 79.3 39.4 79.5 39.3 79.7 39.1 C 79.9 39 80 38.8 80 38.5 C 80 38.5 80 38.5 80 38.5 C 80 38.3 79.9 38.1 79.8 38 C 79.6 37.8 79.2 37.7 78.7 37.6 C 78.2 37.5 77.8 37.3 77.5 37.1 C 77.2 36.9 77.1 36.6 77.1 36.2 C 77.1 36.2 77.1 36.2 77.1 36.2 C 77.1 35.8 77.3 35.5 77.6 35.2 C 77.9 35 78.3 34.8 78.7 34.8 C 79.1 34.8 79.4 34.9 79.6 35 C 79.9 35.1 80.2 35.2 80.4 35.4 C 80.4 35.4 80.1 35.9 80.1 35.9 C 79.7 35.5 79.2 35.3 78.7 35.3 C 78.4 35.3 78.1 35.4 77.9 35.6 C 77.8 35.7 77.7 35.9 77.7 36.1 C 77.7 36.1 77.7 36.1 77.7 36.1 C 77.7 36.4 77.7 36.6 77.9 36.7 C 78.1 36.9 78.5 37 79 37.1 C 79.5 37.2 79.9 37.4 80.2 37.6 C 80.5 37.8 80.6 38.1 80.6 38.5 C 80.6 38.5 80.6 38.5 80.6 38.5 C 80.6 38.9 80.4 39.2 80.1 39.5 C 79.8 39.7 79.4 39.9 78.9 39.9 Z " stroke="none" fill="#000"/>  </g>  <g id="Polygon378112">    <path d="M 0.7 23 L 0.7 18.1 C 0.7 18.1 2.8 18.1 2.8 18.1 C 3.4 18.1 3.9 18.3 4.2 18.6 C 4.4 18.8 4.6 19.2 4.6 19.6 C 4.6 19.6 4.6 19.6 4.6 19.6 C 4.6 20 4.4 20.3 4.2 20.5 C 4 20.8 3.6 20.9 3.2 21 C 3.24 21 4.7 23 4.7 23 L 4.1 23 L 2.6 21.1 L 1.2 21.1 L 1.2 23 L 0.7 23 Z M 1.2 20.6 C 1.2 20.6 2.75 20.6 2.8 20.6 C 3.1 20.6 3.4 20.5 3.7 20.3 C 3.9 20.1 4 19.9 4 19.6 C 4 19.6 4 19.6 4 19.6 C 4 19.3 3.9 19 3.7 18.9 C 3.5 18.7 3.2 18.6 2.8 18.6 C 2.76 18.61 1.2 18.6 1.2 18.6 L 1.2 20.6 Z M 8.7 22.4 C 8.3 22.9 7.8 23.1 7.2 23.1 C 6.7 23.1 6.2 22.9 5.9 22.6 C 5.5 22.2 5.4 21.8 5.4 21.2 C 5.4 21.2 5.4 21.2 5.4 21.2 C 5.4 20.7 5.5 20.2 5.9 19.8 C 6.2 19.5 6.6 19.3 7.1 19.3 C 7.6 19.3 8 19.5 8.3 19.8 C 8.6 20.2 8.8 20.7 8.8 21.2 C 8.8 21.3 8.8 21.3 8.8 21.4 C 8.8 21.4 5.9 21.4 5.9 21.4 C 6 21.8 6.1 22.1 6.3 22.3 C 6.6 22.5 6.9 22.6 7.2 22.6 C 7.6 22.6 8 22.4 8.3 22.1 C 8.33 22.1 8.7 22.4 8.7 22.4 C 8.7 22.4 8.67 22.4 8.7 22.4 Z M 5.9 21 C 5.9 21 8.2 21 8.2 21 C 8.2 20.6 8.1 20.3 7.9 20.1 C 7.7 19.9 7.4 19.8 7.1 19.8 C 6.8 19.8 6.5 19.9 6.3 20.1 C 6.1 20.3 6 20.6 5.9 21 Z M 9.7 23 L 9.7 19.4 L 10.3 19.4 C 10.3 19.4 10.28 20.01 10.3 20 C 10.6 19.5 11 19.3 11.5 19.3 C 11.9 19.3 12.3 19.4 12.5 19.7 C 12.8 20 12.9 20.3 12.9 20.8 C 12.9 20.75 12.9 23 12.9 23 L 12.4 23 C 12.4 23 12.36 20.89 12.4 20.9 C 12.4 20.5 12.3 20.3 12.1 20.1 C 11.9 19.9 11.7 19.8 11.4 19.8 C 11 19.8 10.8 19.9 10.6 20.1 C 10.4 20.3 10.3 20.6 10.3 20.9 C 10.28 20.93 10.3 23 10.3 23 L 9.7 23 Z M 14 23 L 14 17.9 L 14.6 17.9 L 14.6 21.4 L 16.5 19.4 L 17.2 19.4 L 15.7 20.9 L 17.3 23 L 16.6 23 L 15.3 21.3 L 14.6 22.1 L 14.6 23 L 14 23 Z M 18 20.1 L 18 19.4 L 18.6 19.4 L 18.6 20.1 L 18 20.1 Z M 18 23 L 18 22.3 L 18.6 22.3 L 18.6 23 L 18 23 Z M 22 23 L 22 18.1 C 22 18.1 24.09 18.1 24.1 18.1 C 24.6 18.1 25.1 18.2 25.4 18.5 C 25.6 18.7 25.7 19 25.7 19.3 C 25.7 19.3 25.7 19.3 25.7 19.3 C 25.7 19.9 25.4 20.2 24.9 20.5 C 25.6 20.7 26 21.1 26 21.6 C 26 21.6 26 21.7 26 21.7 C 26 22.1 25.8 22.4 25.5 22.6 C 25.2 22.9 24.7 23 24.2 23 C 24.18 23 22 23 22 23 Z M 25.1 19.4 C 25.1 19.4 25.1 19.4 25.1 19.4 C 25.1 19.1 25 19 24.8 18.8 C 24.7 18.7 24.4 18.6 24 18.6 C 24.04 18.6 22.5 18.6 22.5 18.6 L 22.5 20.3 C 22.5 20.3 24 20.28 24 20.3 C 24.3 20.3 24.6 20.2 24.8 20.1 C 25 19.9 25.1 19.7 25.1 19.4 Z M 25.4 21.6 C 25.4 21.6 25.4 21.6 25.4 21.6 C 25.4 21.3 25.3 21.1 25.1 21 C 24.8 20.8 24.5 20.8 24.1 20.8 C 24.09 20.77 22.5 20.8 22.5 20.8 L 22.5 22.5 C 22.5 22.5 24.19 22.5 24.2 22.5 C 24.6 22.5 24.9 22.4 25.1 22.3 C 25.3 22.1 25.4 21.9 25.4 21.6 Z M 27 23 L 27 17.9 L 27.6 17.9 L 27.6 23 L 27 23 Z M 31.2 22.5 C 30.9 22.9 30.4 23.1 29.9 23.1 C 29.5 23.1 29.2 23 28.9 22.8 C 28.7 22.6 28.5 22.3 28.5 21.9 C 28.5 21.9 28.5 21.9 28.5 21.9 C 28.5 21.6 28.7 21.3 29 21.1 C 29.2 20.9 29.6 20.8 30.1 20.8 C 30.4 20.8 30.8 20.8 31.2 20.9 C 31.2 20.9 31.2 20.8 31.2 20.8 C 31.2 20.5 31.1 20.2 30.9 20.1 C 30.7 19.9 30.5 19.8 30.1 19.8 C 29.7 19.8 29.4 19.9 29 20.1 C 29 20.1 28.9 19.6 28.9 19.6 C 29.3 19.4 29.7 19.3 30.2 19.3 C 30.7 19.3 31.1 19.5 31.3 19.7 C 31.6 20 31.7 20.3 31.7 20.8 C 31.71 20.79 31.7 23 31.7 23 L 31.2 23 L 31.2 22.5 C 31.2 22.5 31.19 22.45 31.2 22.5 Z M 30 22.6 C 30.3 22.6 30.6 22.6 30.8 22.4 C 31.1 22.2 31.2 22 31.2 21.7 C 31.2 21.7 31.2 21.3 31.2 21.3 C 30.8 21.2 30.5 21.2 30.1 21.2 C 29.8 21.2 29.5 21.2 29.4 21.4 C 29.2 21.5 29.1 21.7 29.1 21.9 C 29.1 21.9 29.1 21.9 29.1 21.9 C 29.1 22.1 29.2 22.3 29.3 22.5 C 29.5 22.6 29.7 22.6 30 22.6 Z M 36 22.4 C 35.6 22.9 35.1 23.1 34.5 23.1 C 34 23.1 33.5 22.9 33.2 22.5 C 32.8 22.2 32.6 21.7 32.6 21.2 C 32.6 21.2 32.6 21.2 32.6 21.2 C 32.6 20.7 32.8 20.2 33.2 19.9 C 33.5 19.5 34 19.3 34.5 19.3 C 35 19.3 35.5 19.5 35.9 19.9 C 35.9 19.9 35.6 20.3 35.6 20.3 C 35.2 20 34.9 19.8 34.5 19.8 C 34.1 19.8 33.8 19.9 33.6 20.2 C 33.3 20.5 33.2 20.8 33.2 21.2 C 33.2 21.2 33.2 21.2 33.2 21.2 C 33.2 21.6 33.3 21.9 33.6 22.2 C 33.8 22.5 34.1 22.6 34.5 22.6 C 34.9 22.6 35.3 22.4 35.6 22.1 C 35.62 22.06 36 22.4 36 22.4 C 36 22.4 35.97 22.38 36 22.4 Z M 36.9 23 L 36.9 17.9 L 37.4 17.9 L 37.4 21.4 L 39.3 19.4 L 40 19.4 L 38.5 20.9 L 40.1 23 L 39.4 23 L 38.1 21.3 L 37.4 22.1 L 37.4 23 L 36.9 23 Z " stroke="none" fill="#000"/>  </g>  <g id="Polygon378111">    <path d="M 3 9.3 L 3 8.6 L 3.6 8.6 L 3.6 9.3 L 3 9.3 Z M 1.7 9.3 L 1.7 8.6 L 2.3 8.6 L 2.3 9.3 L 1.7 9.3 Z M 2.7 14.7 C 2 14.7 1.5 14.5 1.2 14.1 C 0.8 13.7 0.6 13.2 0.6 12.5 C 0.62 12.55 0.6 9.7 0.6 9.7 L 1.2 9.7 C 1.2 9.7 1.17 12.51 1.2 12.5 C 1.2 13 1.3 13.4 1.6 13.7 C 1.8 14 2.2 14.2 2.7 14.2 C 3.1 14.2 3.5 14 3.8 13.8 C 4 13.5 4.1 13.1 4.1 12.5 C 4.14 12.55 4.1 9.7 4.1 9.7 L 4.7 9.7 C 4.7 9.7 4.7 12.51 4.7 12.5 C 4.7 13.2 4.5 13.7 4.1 14.1 C 3.8 14.5 3.3 14.7 2.7 14.7 Z M 5.9 14.6 L 5.9 11 L 6.5 11 C 6.5 11 6.45 11.93 6.5 11.9 C 6.6 11.6 6.8 11.4 7 11.2 C 7.3 11 7.6 10.9 7.9 10.9 C 7.93 10.92 7.9 11.5 7.9 11.5 C 7.9 11.5 7.89 11.5 7.9 11.5 C 7.5 11.5 7.1 11.6 6.9 11.9 C 6.6 12.2 6.5 12.6 6.5 13.2 C 6.45 13.16 6.5 14.6 6.5 14.6 L 5.9 14.6 Z M 10.6 10.4 L 10.6 9.8 L 11.2 9.8 L 11.2 10.4 L 10.6 10.4 Z M 9.3 10.4 L 9.3 9.8 L 10 9.8 L 10 10.4 L 9.3 10.4 Z M 11.3 14 C 11 14.4 10.6 14.7 10.1 14.7 C 9.7 14.7 9.3 14.5 9.1 14.3 C 8.8 14 8.7 13.7 8.7 13.2 C 8.69 13.23 8.7 11 8.7 11 L 9.2 11 C 9.2 11 9.23 13.09 9.2 13.1 C 9.2 13.4 9.3 13.7 9.5 13.9 C 9.7 14.1 9.9 14.2 10.2 14.2 C 10.5 14.2 10.8 14.1 11 13.9 C 11.2 13.7 11.3 13.4 11.3 13.1 C 11.32 13.05 11.3 11 11.3 11 L 11.9 11 L 11.9 14.6 L 11.3 14.6 L 11.3 14 C 11.3 14 11.32 13.97 11.3 14 Z M 13.1 14.6 L 13.1 11 L 13.6 11 C 13.6 11 13.6 11.61 13.6 11.6 C 13.9 11.1 14.3 10.9 14.8 10.9 C 15.3 10.9 15.6 11 15.9 11.3 C 16.1 11.6 16.2 11.9 16.2 12.4 C 16.23 12.35 16.2 14.6 16.2 14.6 L 15.7 14.6 C 15.7 14.6 15.69 12.49 15.7 12.5 C 15.7 12.1 15.6 11.9 15.4 11.7 C 15.2 11.5 15 11.4 14.7 11.4 C 14.4 11.4 14.1 11.5 13.9 11.7 C 13.7 11.9 13.6 12.2 13.6 12.5 C 13.6 12.53 13.6 14.6 13.6 14.6 L 13.1 14.6 Z M 19.6 14.6 L 19.6 9.7 L 20.1 9.7 L 20.1 12.6 L 22.9 9.7 L 23.7 9.7 L 21.5 11.8 L 23.7 14.6 L 23 14.6 L 21.2 12.2 L 20.1 13.3 L 20.1 14.6 L 19.6 14.6 Z M 25.9 14.7 C 25.4 14.7 25 14.5 24.6 14.1 C 24.3 13.8 24.1 13.3 24.1 12.8 C 24.1 12.8 24.1 12.8 24.1 12.8 C 24.1 12.3 24.3 11.8 24.6 11.5 C 25 11.1 25.4 10.9 26 10.9 C 26.5 10.9 26.9 11.1 27.3 11.5 C 27.7 11.8 27.8 12.3 27.8 12.8 C 27.8 12.8 27.8 12.8 27.8 12.8 C 27.8 13.3 27.7 13.8 27.3 14.1 C 26.9 14.5 26.5 14.7 25.9 14.7 Z M 26 14.2 C 26.3 14.2 26.7 14.1 26.9 13.8 C 27.2 13.5 27.3 13.2 27.3 12.8 C 27.3 12.8 27.3 12.8 27.3 12.8 C 27.3 12.4 27.2 12.1 26.9 11.8 C 26.6 11.5 26.3 11.4 25.9 11.4 C 25.6 11.4 25.2 11.5 25 11.8 C 24.8 12.1 24.6 12.4 24.6 12.8 C 24.6 12.8 24.6 12.8 24.6 12.8 C 24.6 13.2 24.8 13.5 25 13.8 C 25.3 14.1 25.6 14.2 26 14.2 Z M 31.7 13.9 C 31.4 14.4 30.9 14.7 30.3 14.7 C 29.9 14.7 29.5 14.5 29.1 14.2 C 28.8 13.8 28.6 13.4 28.6 12.8 C 28.6 12.8 28.6 12.8 28.6 12.8 C 28.6 12.2 28.8 11.8 29.1 11.4 C 29.5 11.1 29.9 10.9 30.3 10.9 C 30.9 10.9 31.4 11.2 31.7 11.7 C 31.72 11.67 31.7 9.5 31.7 9.5 L 32.3 9.5 L 32.3 14.6 L 31.7 14.6 L 31.7 13.9 C 31.7 13.9 31.72 13.87 31.7 13.9 Z M 30.4 14.2 C 30.8 14.2 31.1 14.1 31.4 13.8 C 31.6 13.5 31.7 13.2 31.7 12.8 C 31.7 12.8 31.7 12.8 31.7 12.8 C 31.7 12.4 31.6 12 31.4 11.8 C 31.1 11.5 30.8 11.4 30.4 11.4 C 30.1 11.4 29.8 11.5 29.5 11.8 C 29.3 12 29.2 12.4 29.2 12.8 C 29.2 12.8 29.2 12.8 29.2 12.8 C 29.2 13.2 29.3 13.6 29.5 13.8 C 29.8 14.1 30.1 14.2 30.4 14.2 Z M 36 14 C 35.7 14.4 35.3 14.7 34.8 14.7 C 34.4 14.7 34 14.5 33.8 14.3 C 33.5 14 33.4 13.7 33.4 13.2 C 33.41 13.23 33.4 11 33.4 11 L 33.9 11 C 33.9 11 33.95 13.09 33.9 13.1 C 33.9 13.4 34 13.7 34.2 13.9 C 34.4 14.1 34.6 14.2 35 14.2 C 35.3 14.2 35.5 14.1 35.7 13.9 C 35.9 13.7 36 13.4 36 13.1 C 36.04 13.05 36 11 36 11 L 36.6 11 L 36.6 14.6 L 36 14.6 L 36 14 C 36 14 36.04 13.97 36 14 Z M 37.7 11.7 L 37.7 11 L 38.4 11 L 38.4 11.7 L 37.7 11.7 Z M 37.7 14.6 L 37.7 13.9 L 38.4 13.9 L 38.4 14.6 L 37.7 14.6 Z M 41.5 14.6 L 41.5 13.8 L 44.2 10.6 L 41.6 10.6 L 41.6 9.7 L 45.6 9.7 L 45.6 10.5 L 42.9 13.7 L 45.6 13.7 L 45.6 14.6 L 41.5 14.6 Z M 46.6 14.6 L 46.6 9.7 C 46.6 9.7 48.51 9.7 48.5 9.7 C 49.3 9.7 49.9 9.9 50.4 10.4 C 50.9 10.9 51.1 11.4 51.1 12.1 C 51.1 12.1 51.1 12.1 51.1 12.1 C 51.1 12.8 50.9 13.4 50.4 13.9 C 49.9 14.4 49.3 14.6 48.5 14.6 C 48.51 14.6 46.6 14.6 46.6 14.6 Z M 48.5 10.7 C 48.51 10.67 47.7 10.7 47.7 10.7 L 47.7 13.6 C 47.7 13.6 48.51 13.63 48.5 13.6 C 48.9 13.6 49.3 13.5 49.6 13.2 C 49.8 13 50 12.6 50 12.2 C 50 12.2 50 12.1 50 12.1 C 50 11.7 49.8 11.4 49.6 11.1 C 49.3 10.8 48.9 10.7 48.5 10.7 Z M 55.8 14.7 C 55 14.7 54.3 14.4 53.9 13.8 C 53.9 13.8 54.6 13.1 54.6 13.1 C 54.9 13.5 55.3 13.7 55.8 13.7 C 56 13.7 56.2 13.7 56.3 13.6 C 56.4 13.4 56.5 13.3 56.5 13.1 C 56.5 13.1 56.5 13.1 56.5 13.1 C 56.5 12.9 56.4 12.8 56.2 12.6 C 56 12.5 55.8 12.5 55.5 12.5 C 55.51 12.49 55.1 12.5 55.1 12.5 L 54.9 11.8 L 56.1 10.6 L 54.1 10.6 L 54.1 9.7 L 57.4 9.7 L 57.4 10.5 C 57.4 10.5 56.21 11.69 56.2 11.7 C 57.1 11.8 57.5 12.3 57.5 13.1 C 57.5 13.1 57.5 13.1 57.5 13.1 C 57.5 13.6 57.4 13.9 57 14.2 C 56.7 14.5 56.3 14.7 55.8 14.7 Z M 60.1 14.7 C 59.3 14.7 58.7 14.4 58.2 13.8 C 58.2 13.8 58.9 13.1 58.9 13.1 C 59.3 13.5 59.7 13.7 60.1 13.7 C 60.3 13.7 60.5 13.7 60.6 13.6 C 60.8 13.4 60.8 13.3 60.8 13.1 C 60.8 13.1 60.8 13.1 60.8 13.1 C 60.8 12.9 60.7 12.8 60.6 12.6 C 60.4 12.5 60.2 12.5 59.9 12.5 C 59.86 12.49 59.4 12.5 59.4 12.5 L 59.2 11.8 L 60.4 10.6 L 58.5 10.6 L 58.5 9.7 L 61.8 9.7 L 61.8 10.5 C 61.8 10.5 60.56 11.69 60.6 11.7 C 61.4 11.8 61.9 12.3 61.9 13.1 C 61.9 13.1 61.9 13.1 61.9 13.1 C 61.9 13.6 61.7 13.9 61.4 14.2 C 61.1 14.5 60.6 14.7 60.1 14.7 Z M 62.6 14.6 L 62.6 13.7 C 62.6 13.7 64.25 12.41 64.3 12.4 C 64.6 12.1 64.8 11.9 64.9 11.8 C 65 11.6 65.1 11.4 65.1 11.2 C 65.1 11 65 10.9 64.9 10.8 C 64.8 10.7 64.6 10.6 64.4 10.6 C 64.3 10.6 64.1 10.6 63.9 10.7 C 63.8 10.8 63.6 11 63.4 11.3 C 63.4 11.3 62.7 10.6 62.7 10.6 C 62.9 10.3 63.2 10 63.5 9.9 C 63.8 9.7 64.1 9.6 64.5 9.6 C 65 9.6 65.4 9.8 65.7 10 C 66 10.3 66.2 10.7 66.2 11.1 C 66.2 11.1 66.2 11.2 66.2 11.2 C 66.2 11.5 66.1 11.9 65.9 12.1 C 65.7 12.4 65.4 12.7 64.9 13.1 C 64.91 13.05 64.1 13.7 64.1 13.7 L 66.2 13.7 L 66.2 14.6 L 62.6 14.6 Z M 69.2 14.7 C 68.5 14.7 68 14.4 67.6 14 C 67.2 13.5 67 12.9 67 12.2 C 67 12.2 67 12.1 67 12.1 C 67 11.4 67.2 10.8 67.6 10.3 C 68 9.9 68.6 9.6 69.2 9.6 C 69.8 9.6 70.4 9.9 70.8 10.3 C 71.2 10.8 71.4 11.4 71.4 12.1 C 71.4 12.1 71.4 12.1 71.4 12.1 C 71.4 12.9 71.2 13.5 70.8 14 C 70.4 14.4 69.8 14.7 69.2 14.7 Z M 68.1 12.1 C 68.1 12.6 68.2 13 68.4 13.3 C 68.6 13.6 68.9 13.7 69.2 13.7 C 69.5 13.7 69.8 13.6 70 13.3 C 70.2 13 70.3 12.6 70.3 12.2 C 70.3 12.2 70.3 12.1 70.3 12.1 C 70.3 11.7 70.2 11.3 70 11 C 69.8 10.7 69.5 10.6 69.2 10.6 C 68.9 10.6 68.6 10.7 68.4 11 C 68.2 11.3 68.1 11.7 68.1 12.1 C 68.12 12.14 68.1 12.1 68.1 12.1 C 68.1 12.1 68.12 12.15 68.1 12.1 Z M 73.9 14.7 C 73.2 14.7 72.6 14.4 72.1 13.9 C 72.1 13.9 72.7 13.2 72.7 13.2 C 73.1 13.5 73.5 13.7 73.9 13.7 C 74.1 13.7 74.3 13.6 74.5 13.5 C 74.6 13.4 74.7 13.2 74.7 13 C 74.7 13 74.7 13 74.7 13 C 74.7 12.8 74.6 12.6 74.5 12.5 C 74.3 12.4 74.1 12.3 73.8 12.3 C 73.5 12.3 73.3 12.4 73 12.5 C 73 12.53 72.4 12.1 72.4 12.1 L 72.5 9.7 L 75.5 9.7 L 75.5 10.6 L 73.4 10.6 C 73.4 10.6 73.39 11.49 73.4 11.5 C 73.6 11.4 73.8 11.4 74 11.4 C 74.5 11.4 75 11.5 75.3 11.8 C 75.6 12.1 75.7 12.5 75.7 13 C 75.7 13 75.7 13 75.7 13 C 75.7 13.5 75.6 13.9 75.2 14.2 C 74.9 14.5 74.4 14.7 73.9 14.7 Z M 78.5 14.7 C 77.9 14.7 77.5 14.5 77.1 14.2 C 76.7 13.8 76.5 13.2 76.5 12.3 C 76.5 12.3 76.5 12.3 76.5 12.3 C 76.5 11.5 76.7 10.9 77.1 10.4 C 77.4 9.9 78 9.6 78.7 9.6 C 79.3 9.6 79.8 9.8 80.2 10.2 C 80.2 10.2 79.7 11 79.7 11 C 79.5 10.9 79.3 10.8 79.2 10.7 C 79 10.6 78.8 10.6 78.7 10.6 C 78.5 10.6 78.3 10.6 78.2 10.7 C 78.1 10.8 78 10.9 77.9 11 C 77.8 11.1 77.8 11.3 77.7 11.4 C 77.7 11.5 77.7 11.6 77.7 11.7 C 78 11.5 78.3 11.4 78.7 11.4 C 79.2 11.4 79.6 11.6 79.9 11.8 C 80.2 12.1 80.4 12.5 80.4 13 C 80.4 13 80.4 13 80.4 13 C 80.4 13.5 80.2 13.9 79.9 14.2 C 79.5 14.5 79.1 14.7 78.5 14.7 Z M 77.6 13 C 77.6 13.2 77.7 13.4 77.9 13.6 C 78 13.7 78.2 13.8 78.5 13.8 C 78.8 13.8 79 13.7 79.1 13.6 C 79.3 13.4 79.3 13.3 79.3 13 C 79.3 13 79.3 13 79.3 13 C 79.3 12.8 79.3 12.6 79.1 12.5 C 78.9 12.4 78.7 12.3 78.5 12.3 C 78.2 12.3 78 12.4 77.9 12.5 C 77.7 12.6 77.6 12.8 77.6 13 C 77.64 13.02 77.6 13 77.6 13 C 77.6 13 77.64 13.03 77.6 13 Z " stroke="none" fill="#000"/>  </g>  <g id="Polygon378110">    <path d="M 0.6 5.6 L 0.6 0.7 C 0.6 0.7 2.86 0.7 2.9 0.7 C 3.4 0.7 3.9 0.8 4.1 1.1 C 4.4 1.4 4.5 1.6 4.5 2 C 4.5 2 4.5 2 4.5 2 C 4.5 2.5 4.3 2.8 3.8 3 C 4.1 3.2 4.4 3.3 4.5 3.5 C 4.7 3.7 4.8 3.9 4.8 4.2 C 4.8 4.2 4.8 4.3 4.8 4.3 C 4.8 4.7 4.6 5 4.3 5.3 C 3.9 5.5 3.5 5.6 2.9 5.6 C 2.92 5.6 0.6 5.6 0.6 5.6 Z M 2.6 2.7 C 3.2 2.7 3.4 2.5 3.4 2.2 C 3.4 2.2 3.4 2.1 3.4 2.1 C 3.4 1.8 3.2 1.6 2.7 1.6 C 2.7 1.64 1.6 1.6 1.6 1.6 L 1.6 2.7 L 2.6 2.7 C 2.6 2.7 2.63 2.68 2.6 2.7 Z M 2.9 4.7 C 3.4 4.7 3.7 4.5 3.7 4.1 C 3.7 4.1 3.7 4.1 3.7 4.1 C 3.7 3.8 3.4 3.6 2.9 3.6 C 2.88 3.58 1.6 3.6 1.6 3.6 L 1.6 4.7 L 2.9 4.7 C 2.9 4.7 2.92 4.65 2.9 4.7 Z M 7.9 5.1 C 7.6 5.5 7.2 5.7 6.8 5.7 C 6.4 5.7 6.1 5.5 5.8 5.3 C 5.6 5.1 5.5 4.7 5.5 4.3 C 5.5 4.28 5.5 1.8 5.5 1.8 L 6.6 1.8 C 6.6 1.8 6.57 3.94 6.6 3.9 C 6.6 4.4 6.8 4.7 7.2 4.7 C 7.4 4.7 7.6 4.6 7.7 4.5 C 7.8 4.4 7.9 4.2 7.9 3.9 C 7.87 3.94 7.9 1.8 7.9 1.8 L 8.9 1.8 L 8.9 5.6 L 7.9 5.6 L 7.9 5.1 C 7.9 5.1 7.87 5.07 7.9 5.1 Z M 9.9 5.6 L 9.9 0.5 L 11 0.5 L 11 5.6 L 9.9 5.6 Z M 14.2 5.2 C 13.9 5.5 13.5 5.7 13.1 5.7 C 12.7 5.7 12.4 5.6 12.1 5.4 C 11.9 5.2 11.8 4.9 11.8 4.5 C 11.8 4.5 11.8 4.5 11.8 4.5 C 11.8 4.1 11.9 3.8 12.2 3.6 C 12.5 3.4 12.8 3.3 13.3 3.3 C 13.6 3.3 13.9 3.4 14.2 3.5 C 14.2 3.5 14.2 3.4 14.2 3.4 C 14.2 2.9 13.9 2.7 13.4 2.7 C 13.1 2.7 12.7 2.8 12.4 2.9 C 12.4 2.9 12.1 2.1 12.1 2.1 C 12.6 1.9 13.1 1.8 13.6 1.8 C 14.1 1.8 14.5 1.9 14.8 2.2 C 15.1 2.5 15.2 2.9 15.2 3.4 C 15.23 3.42 15.2 5.6 15.2 5.6 L 14.2 5.6 L 14.2 5.2 C 14.2 5.2 14.2 5.19 14.2 5.2 Z M 13.4 4.9 C 13.6 4.9 13.8 4.9 14 4.8 C 14.1 4.6 14.2 4.5 14.2 4.3 C 14.2 4.3 14.2 4.1 14.2 4.1 C 14 4 13.8 3.9 13.5 3.9 C 13.3 3.9 13.1 4 13 4.1 C 12.9 4.2 12.8 4.3 12.8 4.5 C 12.8 4.5 12.8 4.5 12.8 4.5 C 12.8 4.6 12.9 4.7 13 4.8 C 13.1 4.9 13.2 4.9 13.4 4.9 Z M 17.3 6.8 L 16.4 6.4 C 16.4 6.4 17 5.62 17 5.6 C 16.6 5.5 16.2 5.4 15.9 5.1 C 15.9 5.1 16.3 4.4 16.3 4.4 C 16.7 4.7 17.1 4.9 17.5 4.9 C 17.8 4.9 17.9 4.8 17.9 4.6 C 17.9 4.6 17.9 4.6 17.9 4.6 C 17.9 4.5 17.9 4.5 17.9 4.5 C 17.9 4.4 17.9 4.4 17.9 4.4 C 17.8 4.4 17.8 4.4 17.8 4.3 C 17.7 4.3 17.7 4.3 17.6 4.3 C 17.6 4.3 17.5 4.2 17.5 4.2 C 17.5 4.2 17.4 4.2 17.3 4.2 C 17.3 4.2 17.2 4.1 17.2 4.1 C 17 4.1 16.9 4 16.8 4 C 16.6 3.9 16.5 3.9 16.4 3.8 C 16.3 3.7 16.2 3.6 16.1 3.5 C 16.1 3.3 16 3.2 16 3 C 16 3 16 3 16 3 C 16 2.6 16.2 2.3 16.4 2.1 C 16.7 1.9 17 1.8 17.4 1.8 C 17.9 1.8 18.4 1.9 18.8 2.2 C 18.8 2.2 18.4 3 18.4 3 C 18 2.7 17.7 2.6 17.4 2.6 C 17.3 2.6 17.2 2.6 17.1 2.7 C 17 2.7 17 2.8 17 2.9 C 17 2.9 17 2.9 17 2.9 C 17 3 17.1 3 17.2 3.1 C 17.3 3.2 17.5 3.3 17.8 3.3 C 17.9 3.4 18.1 3.4 18.2 3.5 C 18.3 3.5 18.4 3.6 18.5 3.7 C 18.6 3.8 18.7 3.9 18.8 4 C 18.9 4.1 18.9 4.3 18.9 4.4 C 18.9 4.4 18.9 4.5 18.9 4.5 C 18.9 4.8 18.8 5.1 18.6 5.3 C 18.4 5.5 18.1 5.6 17.8 5.6 C 17.79 5.65 17.3 6.8 17.3 6.8 Z M 19.7 5.6 L 19.7 1.8 L 20.8 1.8 L 20.8 5.6 L 19.7 5.6 Z M 21.8 5.6 L 21.8 0.5 L 22.8 0.5 L 22.8 3.2 L 24.1 1.8 L 25.4 1.8 L 23.9 3.3 L 25.4 5.6 L 24.2 5.6 L 23.2 4.1 L 22.8 4.5 L 22.8 5.6 L 21.8 5.6 Z M 29.9 5.7 C 29.1 5.7 28.4 5.4 27.8 4.9 C 27.8 4.9 28.4 4.1 28.4 4.1 C 28.9 4.5 29.4 4.7 29.9 4.7 C 30.1 4.7 30.3 4.7 30.4 4.6 C 30.5 4.5 30.6 4.4 30.6 4.3 C 30.6 4.3 30.6 4.2 30.6 4.2 C 30.6 4.1 30.5 4 30.4 3.9 C 30.3 3.8 30 3.7 29.6 3.6 C 29.3 3.5 29.1 3.5 28.9 3.4 C 28.8 3.3 28.6 3.3 28.4 3.1 C 28.3 3 28.2 2.9 28.1 2.7 C 28 2.6 28 2.4 28 2.1 C 28 2.1 28 2.1 28 2.1 C 28 1.7 28.2 1.3 28.5 1 C 28.8 0.8 29.2 0.6 29.7 0.6 C 30.4 0.6 31 0.8 31.5 1.3 C 31.5 1.3 31 2.1 31 2.1 C 30.5 1.7 30.1 1.6 29.7 1.6 C 29.5 1.6 29.3 1.6 29.2 1.7 C 29.1 1.8 29.1 1.9 29.1 2 C 29.1 2 29.1 2 29.1 2 C 29.1 2.2 29.1 2.3 29.3 2.4 C 29.4 2.5 29.7 2.6 30.1 2.7 C 30.7 2.8 31 3 31.3 3.2 C 31.5 3.4 31.7 3.7 31.7 4.1 C 31.7 4.1 31.7 4.2 31.7 4.2 C 31.7 4.6 31.5 5 31.2 5.3 C 30.9 5.5 30.4 5.7 29.9 5.7 Z M 35.8 5 C 35.4 5.5 34.9 5.7 34.3 5.7 C 33.7 5.7 33.2 5.5 32.9 5.1 C 32.5 4.8 32.3 4.3 32.3 3.7 C 32.3 3.7 32.3 3.7 32.3 3.7 C 32.3 3.2 32.5 2.7 32.8 2.3 C 33.2 2 33.6 1.8 34.2 1.8 C 34.8 1.8 35.2 2 35.5 2.4 C 35.8 2.8 36 3.2 36 3.8 C 36 3.9 36 4 36 4.1 C 36 4.1 33.4 4.1 33.4 4.1 C 33.4 4.3 33.5 4.5 33.7 4.6 C 33.8 4.8 34 4.8 34.3 4.8 C 34.6 4.8 34.9 4.7 35.2 4.4 C 35.2 4.44 35.8 5 35.8 5 C 35.8 5 35.81 4.98 35.8 5 Z M 33.4 3.4 C 33.4 3.4 35 3.4 35 3.4 C 34.9 3.2 34.8 3 34.7 2.8 C 34.6 2.7 34.4 2.6 34.2 2.6 C 34 2.6 33.8 2.7 33.6 2.8 C 33.5 3 33.4 3.2 33.4 3.4 Z M 38.9 5.4 C 38.7 5.6 38.4 5.7 38.1 5.7 C 37.7 5.7 37.4 5.6 37.2 5.4 C 37.1 5.2 37 4.9 37 4.5 C 36.97 4.54 37 2.8 37 2.8 L 36.5 2.8 L 36.5 1.8 L 37 1.8 L 37 0.9 L 38 0.9 L 38 1.8 L 38.9 1.8 L 38.9 2.8 L 38 2.8 C 38 2.8 38.03 4.36 38 4.4 C 38 4.6 38.1 4.7 38.4 4.7 C 38.6 4.7 38.7 4.7 38.9 4.6 C 38.9 4.59 38.9 5.4 38.9 5.4 C 38.9 5.4 38.9 5.45 38.9 5.4 Z M 39.7 1.4 L 39.7 0.5 L 40.8 0.5 L 40.8 1.4 L 39.7 1.4 Z M 39.7 5.6 L 39.7 1.8 L 40.8 1.8 L 40.8 5.6 L 39.7 5.6 Z M 43.8 3.9 L 43.8 2.9 L 46.8 2.9 L 46.8 3.9 L 43.8 3.9 Z M 51.6 5.7 C 50.8 5.7 50.1 5.4 49.5 4.9 C 49.5 4.9 50.1 4.1 50.1 4.1 C 50.6 4.5 51.1 4.7 51.6 4.7 C 51.8 4.7 52 4.7 52.1 4.6 C 52.2 4.5 52.3 4.4 52.3 4.3 C 52.3 4.3 52.3 4.2 52.3 4.2 C 52.3 4.1 52.2 4 52.1 3.9 C 52 3.8 51.7 3.7 51.3 3.6 C 51 3.5 50.8 3.5 50.6 3.4 C 50.4 3.3 50.3 3.3 50.1 3.1 C 50 3 49.9 2.9 49.8 2.7 C 49.7 2.6 49.7 2.4 49.7 2.1 C 49.7 2.1 49.7 2.1 49.7 2.1 C 49.7 1.7 49.8 1.3 50.2 1 C 50.5 0.8 50.9 0.6 51.4 0.6 C 52.1 0.6 52.7 0.8 53.2 1.3 C 53.2 1.3 52.7 2.1 52.7 2.1 C 52.2 1.7 51.8 1.6 51.4 1.6 C 51.2 1.6 51 1.6 50.9 1.7 C 50.8 1.8 50.7 1.9 50.7 2 C 50.7 2 50.7 2 50.7 2 C 50.7 2.2 50.8 2.3 50.9 2.4 C 51.1 2.5 51.4 2.6 51.8 2.7 C 52.3 2.8 52.7 3 53 3.2 C 53.2 3.4 53.4 3.7 53.4 4.1 C 53.4 4.1 53.4 4.2 53.4 4.2 C 53.4 4.6 53.2 5 52.9 5.3 C 52.5 5.5 52.1 5.7 51.6 5.7 Z M 54.2 1.4 L 54.2 0.5 L 55.3 0.5 L 55.3 1.4 L 54.2 1.4 Z M 54.2 5.6 L 54.2 1.8 L 55.3 1.8 L 55.3 5.6 L 54.2 5.6 Z M 56.3 5.6 L 56.3 1.8 L 57.4 1.8 C 57.4 1.8 57.36 2.38 57.4 2.4 C 57.7 2 58 1.8 58.5 1.8 C 58.9 1.8 59.2 1.9 59.4 2.1 C 59.6 2.4 59.7 2.7 59.7 3.2 C 59.74 3.17 59.7 5.6 59.7 5.6 L 58.7 5.6 C 58.7 5.6 58.67 3.51 58.7 3.5 C 58.7 3 58.5 2.7 58 2.7 C 57.8 2.7 57.7 2.8 57.5 2.9 C 57.4 3.1 57.4 3.3 57.4 3.5 C 57.36 3.51 57.4 5.6 57.4 5.6 L 56.3 5.6 Z M 64 6.2 C 63.6 6.6 63.1 6.7 62.3 6.7 C 61.7 6.7 61.2 6.6 60.7 6.3 C 60.7 6.3 61 5.5 61 5.5 C 61.5 5.8 61.9 5.9 62.3 5.9 C 63 5.9 63.4 5.5 63.4 4.9 C 63.4 4.9 63.4 4.7 63.4 4.7 C 63.2 4.9 63 5 62.8 5.1 C 62.7 5.2 62.4 5.3 62.2 5.3 C 61.7 5.3 61.3 5.1 61 4.8 C 60.7 4.5 60.5 4.1 60.5 3.5 C 60.5 3.5 60.5 3.5 60.5 3.5 C 60.5 3 60.7 2.6 61 2.3 C 61.3 1.9 61.7 1.8 62.2 1.8 C 62.6 1.8 63 2 63.4 2.3 C 63.37 2.34 63.4 1.8 63.4 1.8 L 64.4 1.8 C 64.4 1.8 64.43 4.75 64.4 4.8 C 64.4 5.4 64.3 5.9 64 6.2 C 64 6.2 64 6.2 64 6.2 Z M 61.6 3.5 C 61.6 3.8 61.6 4 61.8 4.2 C 62 4.3 62.2 4.4 62.5 4.4 C 62.7 4.4 63 4.3 63.1 4.2 C 63.3 4 63.4 3.8 63.4 3.5 C 63.4 3.5 63.4 3.5 63.4 3.5 C 63.4 3.3 63.3 3.1 63.1 2.9 C 63 2.7 62.7 2.7 62.5 2.7 C 62.2 2.7 62 2.7 61.8 2.9 C 61.6 3.1 61.6 3.3 61.6 3.5 C 61.56 3.53 61.6 3.5 61.6 3.5 C 61.6 3.5 61.56 3.54 61.6 3.5 Z M 65.4 5.6 L 65.4 0.5 L 66.5 0.5 L 66.5 5.6 L 65.4 5.6 Z M 70.8 5 C 70.4 5.5 69.9 5.7 69.3 5.7 C 68.7 5.7 68.2 5.5 67.9 5.1 C 67.5 4.8 67.3 4.3 67.3 3.7 C 67.3 3.7 67.3 3.7 67.3 3.7 C 67.3 3.2 67.5 2.7 67.8 2.3 C 68.2 2 68.6 1.8 69.2 1.8 C 69.8 1.8 70.2 2 70.5 2.4 C 70.8 2.8 71 3.2 71 3.8 C 71 3.9 71 4 71 4.1 C 71 4.1 68.4 4.1 68.4 4.1 C 68.4 4.3 68.5 4.5 68.7 4.6 C 68.8 4.8 69 4.8 69.3 4.8 C 69.6 4.8 69.9 4.7 70.2 4.4 C 70.2 4.44 70.8 5 70.8 5 C 70.8 5 70.81 4.98 70.8 5 Z M 68.4 3.4 C 68.4 3.4 70 3.4 70 3.4 C 69.9 3.2 69.8 3 69.7 2.8 C 69.6 2.7 69.4 2.6 69.2 2.6 C 69 2.6 68.8 2.7 68.6 2.8 C 68.5 3 68.4 3.2 68.4 3.4 Z M 73.1 5.7 C 72.5 5.7 72 5.5 71.5 5.1 C 71.5 5.1 72 4.4 72 4.4 C 72.4 4.7 72.8 4.9 73.1 4.9 C 73.4 4.9 73.6 4.8 73.6 4.6 C 73.6 4.6 73.6 4.6 73.6 4.6 C 73.6 4.5 73.6 4.5 73.6 4.5 C 73.6 4.4 73.5 4.4 73.5 4.4 C 73.5 4.4 73.4 4.4 73.4 4.3 C 73.4 4.3 73.3 4.3 73.3 4.3 C 73.2 4.3 73.2 4.2 73.1 4.2 C 73.1 4.2 73 4.2 73 4.2 C 72.9 4.2 72.8 4.1 72.8 4.1 C 72.7 4.1 72.5 4 72.4 4 C 72.3 3.9 72.2 3.9 72.1 3.8 C 71.9 3.7 71.8 3.6 71.8 3.5 C 71.7 3.3 71.7 3.2 71.7 3 C 71.7 3 71.7 3 71.7 3 C 71.7 2.6 71.8 2.3 72.1 2.1 C 72.3 1.9 72.7 1.8 73.1 1.8 C 73.6 1.8 74 1.9 74.5 2.2 C 74.5 2.2 74.1 3 74.1 3 C 73.7 2.7 73.3 2.6 73 2.6 C 72.9 2.6 72.8 2.6 72.7 2.7 C 72.7 2.7 72.6 2.8 72.6 2.9 C 72.6 2.9 72.6 2.9 72.6 2.9 C 72.6 3 72.7 3 72.8 3.1 C 73 3.2 73.2 3.3 73.4 3.3 C 73.6 3.4 73.7 3.4 73.8 3.5 C 73.9 3.5 74 3.6 74.2 3.7 C 74.3 3.8 74.4 3.9 74.4 4 C 74.5 4.1 74.5 4.3 74.5 4.4 C 74.5 4.4 74.5 4.5 74.5 4.5 C 74.5 4.9 74.4 5.2 74.1 5.4 C 73.9 5.6 73.5 5.7 73.1 5.7 Z " stroke="none" fill="#000"/>  </g></svg>