<?xml version="1.0" standalone="no"?><!DOCTYPE svg PUBLIC "-//W3C//DTD SVG 1.1//EN" "http://www.w3.org/Graphics/SVG/1.1/DTD/svg11.dtd"><svg xmlns="http://www.w3.org/2000/svg" version="1.1" width="16.2px" height="12.4px" viewBox="0 -1 16.2 12.4" style="top:-1px">  <desc> </desc>  <defs/>  <g id="Polygon366991">    <path d="M 11.5 7.6 C 10.8 7.6 10.2 7.3 9.7 6.7 C 9.7 6.7 10.1 6.3 10.1 6.3 C 10.5 6.8 11 7.1 11.5 7.1 C 11.8 7.1 12.1 7 12.3 6.8 C 12.5 6.6 12.6 6.4 12.6 6.1 C 12.6 6.1 12.6 6.1 12.6 6.1 C 12.6 5.8 12.5 5.6 12.2 5.4 C 12 5.2 11.7 5.1 11.2 5.1 C 11.24 5.15 10.9 5.1 10.9 5.1 L 10.8 4.8 L 12.4 3.1 L 10 3.1 L 10 2.6 L 13.1 2.6 L 13.1 3 C 13.1 3 11.56 4.69 11.6 4.7 C 12 4.7 12.4 4.9 12.7 5.1 C 13 5.3 13.2 5.6 13.2 6.1 C 13.2 6.1 13.2 6.1 13.2 6.1 C 13.2 6.5 13 6.9 12.7 7.1 C 12.4 7.4 12 7.6 11.5 7.6 Z M 14.9 7.5 L 14.9 3.1 L 14 3.4 L 13.8 3 L 15 2.5 L 15.5 2.5 L 15.5 7.5 L 14.9 7.5 Z " stroke="none" fill="#000"/>  </g></svg>