<?xml version="1.0" standalone="no"?><!DOCTYPE svg PUBLIC "-//W3C//DTD SVG 1.1//EN" "http://www.w3.org/Graphics/SVG/1.1/DTD/svg11.dtd"><svg xmlns="http://www.w3.org/2000/svg" version="1.1" width="69.5px" height="20.5px" viewBox="0 -1 69.5 20.5" style="top:-1px">  <desc>₺7.434,98</desc>  <defs/>  <g id="Polygon361417">    <path d="M 2.3 4.8 L 2.3 11.9 L 1.4 11.9 L 1.4 4.8 L 2.3 4.8 Z M 4.2 8.2 L 5.1 8.2 C 5.1 8.2 5.13 8.58 5.1 8.6 C 5.1 9.1 5.1 9.6 4.9 10 C 4.8 10.4 4.6 10.8 4.4 11.1 C 4.1 11.4 3.8 11.6 3.4 11.8 C 3.1 11.9 2.7 12 2.3 12 C 2.1 12 2 12 1.8 12 C 1.7 12 1.5 11.9 1.4 11.9 C 1.4 11.9 2.3 11.2 2.3 11.2 C 2.6 11.2 2.9 11.2 3.1 11 C 3.3 10.9 3.5 10.8 3.7 10.5 C 3.9 10.3 4 10 4.1 9.7 C 4.2 9.4 4.2 9 4.2 8.6 C 4.2 8.58 4.2 8.2 4.2 8.2 Z M 3.5 5.5 L 3.5 6.4 L 0.2 7.9 L 0.2 7 L 3.5 5.5 Z M 3.5 7.1 L 3.5 8 L 0.2 9.5 L 0.2 8.6 L 3.5 7.1 Z M 10.8 4.8 L 10.8 5.3 L 7.8 11.9 L 6.9 11.9 L 9.8 5.5 L 5.9 5.5 L 5.9 4.8 L 10.8 4.8 Z M 11.9 11.4 C 11.9 11.3 11.9 11.2 12 11 C 12.1 10.9 12.3 10.9 12.5 10.9 C 12.6 10.9 12.8 10.9 12.9 11 C 13 11.2 13 11.3 13 11.4 C 13 11.6 13 11.7 12.9 11.8 C 12.8 11.9 12.6 12 12.5 12 C 12.3 12 12.1 11.9 12 11.8 C 11.9 11.7 11.9 11.6 11.9 11.4 Z M 19.2 9.5 L 19.2 10.3 L 14.1 10.3 L 14.1 9.7 L 17.3 4.8 L 18 4.8 L 17.2 6.2 L 15.1 9.5 L 19.2 9.5 Z M 18.2 4.8 L 18.2 11.9 L 17.3 11.9 L 17.3 4.8 L 18.2 4.8 Z M 21.4 7.9 C 21.4 7.9 22 7.92 22 7.9 C 22.3 7.9 22.6 7.9 22.8 7.8 C 23 7.7 23.1 7.5 23.2 7.3 C 23.3 7.1 23.4 6.9 23.4 6.7 C 23.4 6.4 23.4 6.2 23.3 6 C 23.2 5.8 23 5.7 22.9 5.6 C 22.7 5.5 22.4 5.5 22.2 5.5 C 21.9 5.5 21.7 5.5 21.5 5.6 C 21.3 5.7 21.1 5.8 21 6 C 20.9 6.2 20.9 6.4 20.9 6.7 C 20.9 6.7 20 6.7 20 6.7 C 20 6.3 20.1 6 20.2 5.7 C 20.4 5.4 20.7 5.1 21 5 C 21.3 4.8 21.7 4.7 22.2 4.7 C 22.6 4.7 23 4.8 23.3 4.9 C 23.6 5.1 23.9 5.3 24 5.6 C 24.2 5.9 24.3 6.3 24.3 6.7 C 24.3 6.9 24.3 7.1 24.2 7.3 C 24.1 7.5 24 7.7 23.8 7.9 C 23.6 8 23.4 8.2 23.1 8.3 C 22.8 8.4 22.5 8.5 22.1 8.5 C 22.12 8.46 21.4 8.5 21.4 8.5 L 21.4 7.9 Z M 21.4 8.7 L 21.4 8.1 C 21.4 8.1 22.12 8.12 22.1 8.1 C 22.6 8.1 23 8.2 23.2 8.3 C 23.5 8.4 23.8 8.5 23.9 8.7 C 24.1 8.9 24.2 9.1 24.3 9.3 C 24.4 9.5 24.4 9.7 24.4 9.9 C 24.4 10.3 24.4 10.6 24.2 10.8 C 24.1 11.1 24 11.3 23.8 11.5 C 23.6 11.7 23.3 11.8 23.1 11.9 C 22.8 12 22.5 12 22.2 12 C 21.9 12 21.6 12 21.3 11.9 C 21 11.8 20.8 11.7 20.6 11.5 C 20.4 11.3 20.2 11.1 20.1 10.9 C 20 10.6 19.9 10.4 19.9 10 C 19.9 10 20.8 10 20.8 10 C 20.8 10.3 20.9 10.5 21 10.7 C 21.1 10.9 21.2 11 21.4 11.1 C 21.6 11.2 21.9 11.3 22.2 11.3 C 22.4 11.3 22.7 11.2 22.9 11.1 C 23.1 11 23.2 10.9 23.3 10.7 C 23.5 10.5 23.5 10.2 23.5 10 C 23.5 9.7 23.4 9.4 23.3 9.2 C 23.2 9 23 8.9 22.8 8.8 C 22.6 8.7 22.3 8.7 22 8.7 C 22 8.66 21.4 8.7 21.4 8.7 Z M 30.5 9.5 L 30.5 10.3 L 25.3 10.3 L 25.3 9.7 L 28.5 4.8 L 29.2 4.8 L 28.5 6.2 L 26.3 9.5 L 30.5 9.5 Z M 29.5 4.8 L 29.5 11.9 L 28.6 11.9 L 28.6 4.8 L 29.5 4.8 Z M 32.2 10.8 C 32.2 10.8 32.19 11.57 32.2 11.6 C 32.2 11.9 32.1 12.2 32 12.5 C 31.8 12.8 31.6 13.1 31.3 13.3 C 31.3 13.3 30.8 13 30.8 13 C 30.9 12.8 31 12.7 31.1 12.5 C 31.2 12.4 31.2 12.2 31.3 12.1 C 31.3 11.9 31.3 11.8 31.3 11.6 C 31.31 11.58 31.3 10.8 31.3 10.8 L 32.2 10.8 Z M 34.1 11.2 C 34.1 11.2 34.23 11.16 34.2 11.2 C 34.8 11.2 35.2 11.1 35.5 10.9 C 35.8 10.8 36.1 10.6 36.3 10.3 C 36.4 10.1 36.6 9.8 36.6 9.5 C 36.7 9.2 36.7 8.9 36.7 8.6 C 36.7 8.6 36.7 7.5 36.7 7.5 C 36.7 7.1 36.7 6.9 36.6 6.6 C 36.5 6.4 36.4 6.1 36.3 6 C 36.2 5.8 36 5.7 35.9 5.6 C 35.7 5.5 35.5 5.5 35.3 5.5 C 35.1 5.5 35 5.5 34.8 5.6 C 34.6 5.7 34.5 5.8 34.4 5.9 C 34.3 6.1 34.2 6.3 34.1 6.5 C 34.1 6.7 34 6.9 34 7.1 C 34 7.3 34.1 7.5 34.1 7.7 C 34.2 7.9 34.2 8.1 34.3 8.3 C 34.5 8.4 34.6 8.6 34.7 8.6 C 34.9 8.7 35.1 8.8 35.3 8.8 C 35.5 8.8 35.7 8.7 35.9 8.7 C 36.1 8.6 36.2 8.5 36.4 8.3 C 36.5 8.2 36.6 8 36.7 7.9 C 36.8 7.7 36.8 7.5 36.8 7.3 C 36.8 7.3 37.3 7.3 37.3 7.3 C 37.3 7.6 37.2 7.9 37.1 8.1 C 37 8.4 36.9 8.6 36.7 8.8 C 36.5 9 36.3 9.2 36 9.3 C 35.7 9.5 35.5 9.5 35.2 9.5 C 34.8 9.5 34.5 9.5 34.3 9.3 C 34 9.2 33.8 9 33.6 8.8 C 33.5 8.6 33.3 8.3 33.3 8 C 33.2 7.7 33.1 7.5 33.1 7.2 C 33.1 6.8 33.2 6.5 33.3 6.2 C 33.4 5.9 33.5 5.7 33.7 5.4 C 33.9 5.2 34.1 5 34.4 4.9 C 34.7 4.8 35 4.7 35.3 4.7 C 35.8 4.7 36.1 4.8 36.4 5 C 36.7 5.1 36.9 5.3 37.1 5.6 C 37.3 5.9 37.4 6.2 37.5 6.5 C 37.6 6.9 37.6 7.2 37.6 7.6 C 37.6 7.6 37.6 7.9 37.6 7.9 C 37.6 8.3 37.6 8.7 37.5 9 C 37.5 9.4 37.4 9.8 37.3 10.1 C 37.1 10.5 36.9 10.8 36.7 11 C 36.4 11.3 36.1 11.5 35.7 11.7 C 35.3 11.8 34.8 11.9 34.2 11.9 C 34.23 11.93 34.1 11.9 34.1 11.9 L 34.1 11.2 Z M 43.3 10 C 43.3 10.4 43.2 10.8 43 11.1 C 42.8 11.4 42.6 11.6 42.2 11.8 C 41.9 11.9 41.5 12 41.1 12 C 40.7 12 40.3 11.9 39.9 11.8 C 39.6 11.6 39.3 11.4 39.1 11.1 C 38.9 10.8 38.8 10.4 38.8 10 C 38.8 9.7 38.9 9.4 39 9.2 C 39.1 9 39.3 8.8 39.5 8.6 C 39.7 8.4 39.9 8.3 40.2 8.2 C 40.4 8.1 40.7 8 41.1 8 C 41.5 8 41.9 8.1 42.2 8.3 C 42.6 8.5 42.9 8.7 43 9 C 43.2 9.3 43.3 9.6 43.3 10 Z M 42.4 10 C 42.4 9.7 42.4 9.5 42.3 9.3 C 42.2 9.1 42 8.9 41.8 8.8 C 41.6 8.7 41.3 8.6 41.1 8.6 C 40.8 8.6 40.6 8.7 40.4 8.8 C 40.2 8.9 40 9.1 39.9 9.3 C 39.8 9.5 39.7 9.7 39.7 10 C 39.7 10.2 39.8 10.5 39.9 10.7 C 40 10.9 40.2 11 40.4 11.1 C 40.6 11.2 40.8 11.3 41.1 11.3 C 41.4 11.3 41.6 11.2 41.8 11.1 C 42 11 42.2 10.9 42.3 10.7 C 42.4 10.5 42.4 10.2 42.4 10 Z M 43.2 6.7 C 43.2 7 43.1 7.3 42.9 7.6 C 42.7 7.9 42.5 8.1 42.2 8.2 C 41.8 8.4 41.5 8.5 41.1 8.5 C 40.7 8.5 40.3 8.4 40 8.2 C 39.7 8.1 39.4 7.9 39.3 7.6 C 39.1 7.3 39 7 39 6.7 C 39 6.2 39.1 5.9 39.3 5.6 C 39.4 5.3 39.7 5.1 40 4.9 C 40.3 4.8 40.7 4.7 41.1 4.7 C 41.5 4.7 41.8 4.8 42.2 4.9 C 42.5 5.1 42.7 5.3 42.9 5.6 C 43.1 5.9 43.2 6.2 43.2 6.7 Z M 42.3 6.7 C 42.3 6.4 42.2 6.2 42.1 6 C 42 5.9 41.9 5.7 41.7 5.6 C 41.5 5.5 41.3 5.5 41.1 5.5 C 40.8 5.5 40.6 5.5 40.5 5.6 C 40.3 5.7 40.1 5.8 40 6 C 39.9 6.2 39.9 6.4 39.9 6.7 C 39.9 6.9 39.9 7.1 40 7.3 C 40.1 7.5 40.3 7.6 40.5 7.7 C 40.6 7.8 40.8 7.9 41.1 7.9 C 41.3 7.9 41.5 7.8 41.7 7.7 C 41.9 7.6 42 7.5 42.1 7.3 C 42.2 7.1 42.3 6.9 42.3 6.7 Z " stroke="none" fill="#000"/>  </g></svg>