<?xml version="1.0" standalone="no"?><!DOCTYPE svg PUBLIC "-//W3C//DTD SVG 1.1//EN" "http://www.w3.org/Graphics/SVG/1.1/DTD/svg11.dtd"><svg xmlns="http://www.w3.org/2000/svg" version="1.1" width="16.2px" height="12.4px" viewBox="0 -1 16.2 12.4" style="top:-1px">  <desc> </desc>  <defs/>  <g id="Polygon399032">    <path d="M 4 6.2 C 4 6.6 3.9 6.9 3.5 7.2 C 3.2 7.4 2.7 7.5 2.2 7.5 C 1.7 7.5 1.2 7.4 0.9 7.2 C 0.5 6.9 0.4 6.6 0.4 6.2 C 0.4 6.2 0.4 6.1 0.4 6.1 C 0.4 5.9 0.5 5.6 0.6 5.4 C 0.8 5.2 1.1 5.1 1.4 4.9 C 0.8 4.7 0.5 4.3 0.5 3.8 C 0.5 3.8 0.5 3.8 0.5 3.8 C 0.5 3.4 0.7 3.1 1 2.9 C 1.4 2.6 1.7 2.5 2.2 2.5 C 2.7 2.5 3.1 2.6 3.4 2.9 C 3.7 3.1 3.9 3.4 3.9 3.8 C 3.9 3.8 3.9 3.8 3.9 3.8 C 3.9 4.3 3.6 4.7 3 4.9 C 3.3 5.1 3.6 5.2 3.8 5.4 C 4 5.6 4 5.9 4 6.1 C 4.05 6.14 4 6.2 4 6.2 C 4 6.2 4.05 6.15 4 6.2 Z M 1.1 3.9 C 1.1 4.1 1.2 4.3 1.4 4.5 C 1.6 4.7 1.9 4.7 2.2 4.7 C 2.5 4.7 2.8 4.7 3 4.5 C 3.2 4.3 3.3 4.1 3.3 3.9 C 3.3 3.9 3.3 3.8 3.3 3.8 C 3.3 3.6 3.2 3.4 3 3.2 C 2.8 3.1 2.5 3 2.2 3 C 1.9 3 1.6 3.1 1.4 3.2 C 1.2 3.4 1.1 3.6 1.1 3.8 C 1.09 3.84 1.1 3.9 1.1 3.9 C 1.1 3.9 1.09 3.85 1.1 3.9 Z M 0.9 6.1 C 0.9 6.4 1 6.6 1.3 6.8 C 1.5 7 1.8 7.1 2.2 7.1 C 2.6 7.1 2.9 7 3.1 6.8 C 3.4 6.6 3.5 6.4 3.5 6.1 C 3.5 6.1 3.5 6.1 3.5 6.1 C 3.5 5.9 3.4 5.6 3.1 5.5 C 2.9 5.3 2.6 5.2 2.2 5.2 C 1.8 5.2 1.5 5.3 1.3 5.5 C 1 5.6 0.9 5.9 0.9 6.1 C 0.92 6.13 0.9 6.1 0.9 6.1 C 0.9 6.1 0.92 6.15 0.9 6.1 Z M 6.7 7.6 C 6.2 7.6 5.8 7.4 5.5 7.1 C 5.2 6.9 5.1 6.6 5 6.3 C 4.9 6 4.8 5.6 4.8 5.2 C 4.8 5.2 4.8 5.2 4.8 5.2 C 4.8 4.4 5 3.7 5.4 3.2 C 5.8 2.7 6.2 2.5 6.9 2.5 C 7.4 2.5 7.9 2.7 8.3 3.1 C 8.3 3.1 8 3.5 8 3.5 C 7.6 3.2 7.2 3 6.8 3 C 6.4 3 6 3.2 5.8 3.6 C 5.5 4 5.4 4.5 5.4 5.1 C 5.4 5.1 5.4 5.2 5.4 5.2 C 5.8 4.7 6.2 4.4 6.8 4.4 C 7.3 4.4 7.7 4.6 8 4.8 C 8.3 5.1 8.5 5.5 8.5 5.9 C 8.5 5.9 8.5 5.9 8.5 5.9 C 8.5 6.4 8.3 6.8 8 7.1 C 7.7 7.4 7.2 7.6 6.7 7.6 Z M 6.7 7.1 C 7.1 7.1 7.4 7 7.6 6.7 C 7.8 6.5 7.9 6.3 7.9 6 C 7.9 6 7.9 5.9 7.9 5.9 C 7.9 5.6 7.8 5.4 7.6 5.2 C 7.4 5 7.1 4.9 6.7 4.9 C 6.4 4.9 6.1 5 5.9 5.2 C 5.6 5.4 5.5 5.7 5.5 6 C 5.5 6 5.5 6 5.5 6 C 5.5 6.3 5.6 6.5 5.9 6.8 C 6.1 7 6.4 7.1 6.7 7.1 Z " stroke="none" fill="#000"/>  </g></svg>