<?xml version="1.0" standalone="no"?><!DOCTYPE svg PUBLIC "-//W3C//DTD SVG 1.1//EN" "http://www.w3.org/Graphics/SVG/1.1/DTD/svg11.dtd"><svg xmlns="http://www.w3.org/2000/svg" version="1.1" width="490.4px" height="121px" viewBox="0 -14 490.4 121" style="top:-14px">  <desc>Ak na b rak</desc>  <defs/>  <g id="Polygon361915">    <path d="M 0.4 44 L 16.7 5.2 L 27 5.2 L 43.4 44 L 32 44 L 29.2 37.1 L 14.3 37.1 L 11.6 44 L 0.4 44 Z M 17.4 28.8 L 26.1 28.8 L 21.8 17.9 L 17.4 28.8 Z M 46.5 44 L 46.5 3.8 L 57 3.8 L 57 24.2 L 65.1 14.2 L 76.9 14.2 L 66.5 26.1 L 77.2 44 L 65.6 44 L 59.7 33.8 L 57 37 L 57 44 L 46.5 44 Z M 80 44 L 80 14.2 L 90.4 14.2 L 90.4 44 L 80 44 Z M 107.3 53.5 L 99.1 50 C 99.1 50 103.29 44.22 103.3 44.2 C 100 43.6 96.9 42.3 94 40.2 C 94 40.2 98 33.9 98 33.9 C 101.4 36.2 104.8 37.3 108.1 37.3 C 109.9 37.3 110.8 36.8 110.8 35.7 C 110.8 35.7 110.8 35.6 110.8 35.6 C 110.8 35.1 110.5 34.6 109.8 34.3 C 109.1 34 107.9 33.6 106 33.1 C 102.5 32.2 99.9 31.1 98.1 29.7 C 96.3 28.3 95.4 26.3 95.4 23.6 C 95.4 23.6 95.4 23.5 95.4 23.5 C 95.4 20.4 96.5 18 98.8 16.3 C 101 14.5 103.8 13.6 107.4 13.6 C 111.9 13.6 116 14.8 119.6 17.1 C 119.6 17.1 116 23.7 116 23.7 C 112.8 21.8 109.9 20.9 107.2 20.9 C 105.6 20.9 104.8 21.4 104.8 22.4 C 104.8 22.4 104.8 22.5 104.8 22.5 C 104.8 23 105.2 23.4 105.9 23.8 C 106.6 24.1 107.8 24.6 109.7 25.1 C 113.1 26.1 115.7 27.2 117.5 28.6 C 119.3 29.9 120.2 32 120.2 34.6 C 120.2 34.6 120.2 34.7 120.2 34.7 C 120.2 37.6 119.4 39.8 117.6 41.5 C 115.9 43.2 113.5 44.2 110.4 44.5 C 110.44 44.49 107.3 53.5 107.3 53.5 Z M 124.8 44 L 124.8 14.2 L 135.2 14.2 L 135.2 44 L 124.8 44 Z M 141.1 44 L 141.1 14.2 L 151.5 14.2 C 151.5 14.2 151.52 18.42 151.5 18.4 C 154 15.2 157 13.6 160.4 13.6 C 163.6 13.6 166.1 14.6 167.9 16.5 C 169.7 18.4 170.6 21.1 170.6 24.5 C 170.55 24.53 170.6 44 170.6 44 L 160.2 44 C 160.2 44 160.16 27.88 160.2 27.9 C 160.2 26.3 159.8 25 159 24.1 C 158.3 23.3 157.2 22.8 155.9 22.8 C 154.6 22.8 153.5 23.3 152.7 24.1 C 151.9 25 151.5 26.3 151.5 27.9 C 151.52 27.88 151.5 44 151.5 44 L 141.1 44 Z M 193.3 40.9 C 190.8 43.4 187.9 44.7 184.5 44.7 C 181.5 44.7 179.1 43.8 177.3 42.2 C 175.4 40.6 174.5 38.3 174.5 35.5 C 174.5 35.5 174.5 35.4 174.5 35.4 C 174.5 32.3 175.6 30 177.6 28.4 C 179.7 26.8 182.6 26 186.2 26 C 189 26 191.3 26.4 193.3 27.2 C 193.3 27.2 193.3 26.7 193.3 26.7 C 193.3 23.4 191.3 21.8 187.4 21.8 C 184.7 21.8 182 22.3 179.1 23.4 C 179.1 23.4 177 16.1 177 16.1 C 180.7 14.6 184.7 13.8 189 13.8 C 194.2 13.8 197.9 15 200.4 17.4 C 202.5 19.5 203.6 22.7 203.6 26.9 C 203.55 26.89 203.6 44 203.6 44 L 193.3 44 L 193.3 40.9 C 193.3 40.9 193.27 40.86 193.3 40.9 Z M 188.2 38.1 C 189.7 38.1 191 37.7 192 36.8 C 192.9 35.9 193.4 34.7 193.4 33.2 C 193.4 33.2 193.4 31.8 193.4 31.8 C 192.1 31.3 190.8 31.1 189.3 31.1 C 187.8 31.1 186.6 31.4 185.8 32.1 C 184.9 32.7 184.5 33.6 184.5 34.8 C 184.5 34.8 184.5 34.9 184.5 34.9 C 184.5 35.9 184.9 36.6 185.5 37.2 C 186.2 37.8 187.1 38.1 188.2 38.1 Z M 244.9 44.7 C 241.4 44.7 238.3 43.2 235.8 40.4 C 235.84 40.37 235.8 44 235.8 44 L 225.4 44 L 225.4 3.8 L 235.8 3.8 C 235.8 3.8 235.84 18.2 235.8 18.2 C 238.4 15.1 241.4 13.6 244.9 13.6 C 248.5 13.6 251.6 15 254.2 17.8 C 256.8 20.6 258.1 24.4 258.1 29 C 258.1 29 258.1 29.1 258.1 29.1 C 258.1 33.8 256.8 37.6 254.2 40.4 C 251.7 43.2 248.6 44.7 244.9 44.7 Z M 241.7 35.9 C 243.4 35.9 244.8 35.3 246 34 C 247.2 32.8 247.8 31.1 247.8 29.1 C 247.8 29.1 247.8 29 247.8 29 C 247.8 27.1 247.2 25.5 246 24.2 C 244.8 22.9 243.4 22.3 241.7 22.3 C 240 22.3 238.6 22.9 237.4 24.2 C 236.2 25.5 235.6 27.1 235.6 29 C 235.6 29 235.6 29.1 235.6 29.1 C 235.6 31.1 236.2 32.7 237.4 34 C 238.6 35.3 240 35.9 241.7 35.9 Z M 262.8 44 L 262.8 14.2 L 273.2 14.2 L 273.2 44 L 262.8 44 Z M 279.1 44 L 279.1 14.2 L 289.6 14.2 C 289.6 14.2 289.57 20.24 289.6 20.2 C 291.5 15.7 294.6 13.6 299 13.7 C 298.98 13.75 299 24.7 299 24.7 C 299 24.7 298.1 24.75 298.1 24.7 C 292.4 24.7 289.6 28.1 289.6 34.7 C 289.57 34.7 289.6 44 289.6 44 L 279.1 44 Z M 318.6 40.9 C 316.2 43.4 313.3 44.7 309.8 44.7 C 306.9 44.7 304.5 43.8 302.6 42.2 C 300.8 40.6 299.9 38.3 299.9 35.5 C 299.9 35.5 299.9 35.4 299.9 35.4 C 299.9 32.3 300.9 30 303 28.4 C 305.1 26.8 307.9 26 311.5 26 C 314.3 26 316.7 26.4 318.7 27.2 C 318.7 27.2 318.7 26.7 318.7 26.7 C 318.7 23.4 316.7 21.8 312.7 21.8 C 310 21.8 307.3 22.3 304.5 23.4 C 304.5 23.4 302.3 16.1 302.3 16.1 C 306.1 14.6 310.1 13.8 314.4 13.8 C 319.5 13.8 323.3 15 325.7 17.4 C 327.8 19.5 328.9 22.7 328.9 26.9 C 328.9 26.89 328.9 44 328.9 44 L 318.6 44 L 318.6 40.9 C 318.6 40.9 318.61 40.86 318.6 40.9 Z M 313.6 38.1 C 315.1 38.1 316.3 37.7 317.3 36.8 C 318.3 35.9 318.8 34.7 318.8 33.2 C 318.8 33.2 318.8 31.8 318.8 31.8 C 317.5 31.3 316.1 31.1 314.7 31.1 C 313.1 31.1 311.9 31.4 311.1 32.1 C 310.3 32.7 309.9 33.6 309.9 34.8 C 309.9 34.8 309.9 34.9 309.9 34.9 C 309.9 35.9 310.2 36.6 310.9 37.2 C 311.6 37.8 312.5 38.1 313.6 38.1 Z M 334.2 44 L 334.2 3.8 L 344.7 3.8 L 344.7 24.2 L 352.8 14.2 L 364.6 14.2 L 354.3 26.1 L 364.9 44 L 353.3 44 L 347.4 33.8 L 344.7 37 L 344.7 44 L 334.2 44 Z " stroke="none" fill="#fff"/>  </g></svg>