<?xml version="1.0" standalone="no"?><!DOCTYPE svg PUBLIC "-//W3C//DTD SVG 1.1//EN" "http://www.w3.org/Graphics/SVG/1.1/DTD/svg11.dtd"><svg xmlns="http://www.w3.org/2000/svg" version="1.1" width="61.2px" height="34.4px" viewBox="0 -3 61.2 34.4" style="top:-3px">  <desc>TOWEL 50 X 70 cm SPA HAVLUSU</desc>  <defs/>  <g id="Polygon431781">    <path d="M 7.4 23.1 C 6.6 23.1 5.9 22.8 5.4 22.3 C 5.4 22.3 6 21.5 6 21.5 C 6.5 21.9 7 22.1 7.5 22.1 C 7.7 22.1 7.9 22.1 8 22 C 8.1 21.9 8.2 21.8 8.2 21.7 C 8.2 21.7 8.2 21.6 8.2 21.6 C 8.2 21.5 8.1 21.4 8 21.3 C 7.8 21.2 7.6 21.1 7.2 21 C 6.9 20.9 6.7 20.9 6.5 20.8 C 6.3 20.7 6.2 20.7 6 20.5 C 5.8 20.4 5.7 20.3 5.7 20.1 C 5.6 20 5.6 19.8 5.6 19.5 C 5.6 19.5 5.6 19.5 5.6 19.5 C 5.6 19.1 5.7 18.7 6 18.4 C 6.3 18.2 6.8 18 7.3 18 C 8 18 8.6 18.2 9.1 18.7 C 9.1 18.7 8.5 19.5 8.5 19.5 C 8.1 19.1 7.6 19 7.3 19 C 7 19 6.9 19 6.8 19.1 C 6.7 19.2 6.6 19.3 6.6 19.4 C 6.6 19.4 6.6 19.4 6.6 19.4 C 6.6 19.6 6.7 19.7 6.8 19.8 C 7 19.9 7.2 20 7.7 20.1 C 8.2 20.2 8.6 20.4 8.9 20.6 C 9.1 20.8 9.2 21.1 9.2 21.5 C 9.2 21.5 9.2 21.6 9.2 21.6 C 9.2 22 9.1 22.4 8.7 22.7 C 8.4 22.9 8 23.1 7.4 23.1 Z M 10.2 23 L 10.2 18.1 C 10.2 18.1 12.17 18.1 12.2 18.1 C 12.8 18.1 13.2 18.3 13.5 18.6 C 13.9 18.9 14 19.3 14 19.8 C 14 19.8 14 19.8 14 19.8 C 14 20.4 13.9 20.8 13.5 21.1 C 13.1 21.4 12.6 21.5 12.1 21.5 C 12.07 21.53 11.2 21.5 11.2 21.5 L 11.2 23 L 10.2 23 Z M 11.2 20.6 C 11.2 20.6 12.1 20.57 12.1 20.6 C 12.4 20.6 12.6 20.5 12.7 20.4 C 12.9 20.2 13 20 13 19.8 C 13 19.8 13 19.8 13 19.8 C 13 19.6 12.9 19.4 12.7 19.3 C 12.6 19.1 12.4 19.1 12.1 19.1 C 12.08 19.07 11.2 19.1 11.2 19.1 L 11.2 20.6 Z M 13.9 23 L 16 18.1 L 17 18.1 L 19.1 23 L 18 23 L 17.6 21.9 L 15.5 21.9 L 15 23 L 13.9 23 Z M 15.9 20.9 L 17.2 20.9 L 16.5 19.4 L 15.9 20.9 Z M 22 23 L 22 18.1 L 23.1 18.1 L 23.1 20 L 25.1 20 L 25.1 18.1 L 26.1 18.1 L 26.1 23 L 25.1 23 L 25.1 21 L 23.1 21 L 23.1 23 L 22 23 Z M 26.9 23 L 29 18.1 L 30 18.1 L 32.1 23 L 31 23 L 30.5 21.9 L 28.4 21.9 L 28 23 L 26.9 23 Z M 28.8 20.9 L 30.1 20.9 L 29.5 19.4 L 28.8 20.9 Z M 33.7 23 L 31.7 18.1 L 32.9 18.1 L 34.2 21.6 L 35.5 18.1 L 36.6 18.1 L 34.6 23 L 33.7 23 Z M 37.4 23 L 37.4 18.1 L 38.5 18.1 L 38.5 22 L 40.9 22 L 40.9 23 L 37.4 23 Z M 45.8 20.9 C 45.8 21.6 45.6 22.1 45.2 22.5 C 44.8 22.9 44.3 23.1 43.6 23.1 C 43 23.1 42.4 22.9 42.1 22.5 C 41.7 22.2 41.5 21.6 41.5 20.9 C 41.5 20.9 41.5 18.1 41.5 18.1 L 42.6 18.1 C 42.6 18.1 42.58 20.87 42.6 20.9 C 42.6 21.3 42.7 21.6 42.9 21.8 C 43 22 43.3 22.1 43.6 22.1 C 44 22.1 44.2 22 44.4 21.8 C 44.6 21.6 44.7 21.3 44.7 20.9 C 44.69 20.91 44.7 18.1 44.7 18.1 L 45.8 18.1 L 45.8 20.9 C 45.8 20.9 45.77 20.86 45.8 20.9 Z M 48.6 23.1 C 47.8 23.1 47.1 22.8 46.5 22.3 C 46.5 22.3 47.2 21.5 47.2 21.5 C 47.7 21.9 48.1 22.1 48.6 22.1 C 48.9 22.1 49 22.1 49.2 22 C 49.3 21.9 49.3 21.8 49.3 21.7 C 49.3 21.7 49.3 21.6 49.3 21.6 C 49.3 21.5 49.3 21.4 49.1 21.3 C 49 21.2 48.8 21.1 48.4 21 C 48.1 20.9 47.9 20.9 47.7 20.8 C 47.5 20.7 47.3 20.7 47.2 20.5 C 47 20.4 46.9 20.3 46.8 20.1 C 46.8 20 46.7 19.8 46.7 19.5 C 46.7 19.5 46.7 19.5 46.7 19.5 C 46.7 19.1 46.9 18.7 47.2 18.4 C 47.5 18.2 47.9 18 48.4 18 C 49.1 18 49.7 18.2 50.3 18.7 C 50.3 18.7 49.7 19.5 49.7 19.5 C 49.2 19.1 48.8 19 48.4 19 C 48.2 19 48.1 19 48 19.1 C 47.9 19.2 47.8 19.3 47.8 19.4 C 47.8 19.4 47.8 19.4 47.8 19.4 C 47.8 19.6 47.9 19.7 48 19.8 C 48.1 19.9 48.4 20 48.9 20.1 C 49.4 20.2 49.8 20.4 50 20.6 C 50.3 20.8 50.4 21.1 50.4 21.5 C 50.4 21.5 50.4 21.6 50.4 21.6 C 50.4 22 50.2 22.4 49.9 22.7 C 49.6 22.9 49.2 23.1 48.6 23.1 Z M 55.5 20.9 C 55.5 21.6 55.4 22.1 55 22.5 C 54.6 22.9 54.1 23.1 53.4 23.1 C 52.7 23.1 52.2 22.9 51.8 22.5 C 51.5 22.2 51.3 21.6 51.3 20.9 C 51.27 20.9 51.3 18.1 51.3 18.1 L 52.4 18.1 C 52.4 18.1 52.35 20.87 52.4 20.9 C 52.4 21.3 52.4 21.6 52.6 21.8 C 52.8 22 53.1 22.1 53.4 22.1 C 53.7 22.1 54 22 54.2 21.8 C 54.4 21.6 54.5 21.3 54.5 20.9 C 54.47 20.91 54.5 18.1 54.5 18.1 L 55.5 18.1 L 55.5 20.9 C 55.5 20.9 55.54 20.86 55.5 20.9 Z " stroke="none" fill="#000"/>  </g>  <g id="Polygon431780">    <path d="M 12.5 14.1 C 11.9 14.1 11.3 13.8 10.8 13.3 C 10.8 13.3 11.1 12.9 11.1 12.9 C 11.6 13.4 12.1 13.6 12.5 13.6 C 12.9 13.6 13.2 13.5 13.4 13.3 C 13.6 13.1 13.7 12.8 13.7 12.5 C 13.7 12.5 13.7 12.5 13.7 12.5 C 13.7 12.2 13.6 11.9 13.4 11.7 C 13.2 11.5 12.9 11.5 12.5 11.5 C 12.2 11.5 11.8 11.5 11.5 11.7 C 11.48 11.73 11.1 11.5 11.1 11.5 L 11.2 9.1 L 14.1 9.1 L 14.1 9.6 L 11.7 9.6 C 11.7 9.6 11.62 11.18 11.6 11.2 C 11.9 11 12.3 11 12.6 11 C 13.1 11 13.5 11.1 13.8 11.4 C 14.1 11.6 14.3 12 14.3 12.5 C 14.3 12.5 14.3 12.5 14.3 12.5 C 14.3 12.9 14.1 13.3 13.8 13.6 C 13.5 13.9 13.1 14.1 12.5 14.1 Z M 19.3 11.5 C 19.3 12.3 19.1 12.9 18.7 13.3 C 18.3 13.8 17.8 14.1 17.2 14.1 C 16.6 14.1 16.1 13.8 15.7 13.4 C 15.3 12.9 15.1 12.3 15.1 11.6 C 15.1 11.6 15.1 11.5 15.1 11.5 C 15.1 10.8 15.3 10.2 15.7 9.8 C 16.1 9.3 16.6 9 17.2 9 C 17.8 9 18.3 9.3 18.7 9.7 C 19.1 10.2 19.3 10.8 19.3 11.5 C 19.27 11.54 19.3 11.5 19.3 11.5 C 19.3 11.5 19.27 11.55 19.3 11.5 Z M 15.7 11.5 C 15.7 12.1 15.8 12.6 16.1 13 C 16.4 13.4 16.8 13.6 17.2 13.6 C 17.7 13.6 18 13.4 18.3 13 C 18.6 12.6 18.7 12.1 18.7 11.6 C 18.7 11.6 18.7 11.5 18.7 11.5 C 18.7 11 18.6 10.5 18.3 10.1 C 18 9.7 17.6 9.5 17.2 9.5 C 16.8 9.5 16.4 9.7 16.1 10.1 C 15.8 10.5 15.7 11 15.7 11.5 C 15.7 11.54 15.7 11.5 15.7 11.5 C 15.7 11.5 15.7 11.55 15.7 11.5 Z M 25.8 9.1 L 26.5 9.1 L 24.7 11.5 L 26.6 14 L 25.9 14 L 24.3 11.9 L 22.8 14 L 22.1 14 L 24 11.5 L 22.2 9.1 L 22.8 9.1 L 24.3 11.1 L 25.8 9.1 Z M 29.9 14 L 32.1 9.6 L 29.5 9.6 L 29.5 9.1 L 32.8 9.1 L 32.8 9.5 L 30.6 14 L 29.9 14 Z M 37.6 11.5 C 37.6 12.3 37.4 12.9 37 13.3 C 36.6 13.8 36.1 14.1 35.5 14.1 C 34.9 14.1 34.4 13.8 34 13.4 C 33.6 12.9 33.4 12.3 33.4 11.6 C 33.4 11.6 33.4 11.5 33.4 11.5 C 33.4 10.8 33.6 10.2 34 9.8 C 34.4 9.3 34.9 9 35.5 9 C 36.1 9 36.6 9.3 37 9.7 C 37.4 10.2 37.6 10.8 37.6 11.5 C 37.58 11.54 37.6 11.5 37.6 11.5 C 37.6 11.5 37.58 11.55 37.6 11.5 Z M 34 11.5 C 34 12.1 34.2 12.6 34.4 13 C 34.7 13.4 35.1 13.6 35.5 13.6 C 36 13.6 36.3 13.4 36.6 13 C 36.9 12.6 37 12.1 37 11.6 C 37 11.6 37 11.5 37 11.5 C 37 11 36.9 10.5 36.6 10.1 C 36.3 9.7 35.9 9.5 35.5 9.5 C 35.1 9.5 34.7 9.7 34.4 10.1 C 34.2 10.5 34 11 34 11.5 C 34.02 11.54 34 11.5 34 11.5 C 34 11.5 34.02 11.55 34 11.5 Z M 43.8 13.4 C 43.4 13.9 42.9 14.1 42.3 14.1 C 41.8 14.1 41.4 13.9 41 13.5 C 40.7 13.2 40.5 12.7 40.5 12.2 C 40.5 12.2 40.5 12.2 40.5 12.2 C 40.5 11.7 40.7 11.2 41 10.9 C 41.4 10.5 41.8 10.3 42.3 10.3 C 42.9 10.3 43.4 10.5 43.8 10.9 C 43.8 10.9 43.4 11.3 43.4 11.3 C 43.1 11 42.7 10.8 42.3 10.8 C 42 10.8 41.7 10.9 41.4 11.2 C 41.2 11.5 41 11.8 41 12.2 C 41 12.2 41 12.2 41 12.2 C 41 12.6 41.2 12.9 41.4 13.2 C 41.7 13.5 42 13.6 42.4 13.6 C 42.8 13.6 43.1 13.4 43.5 13.1 C 43.48 13.06 43.8 13.4 43.8 13.4 C 43.8 13.4 43.82 13.38 43.8 13.4 Z M 44.7 14 L 44.7 10.4 L 45.3 10.4 C 45.3 10.4 45.25 10.99 45.3 11 C 45.4 10.8 45.6 10.6 45.7 10.5 C 45.9 10.4 46.1 10.3 46.4 10.3 C 47 10.3 47.4 10.5 47.6 11 C 47.9 10.5 48.3 10.3 48.9 10.3 C 49.3 10.3 49.6 10.4 49.8 10.7 C 50.1 11 50.2 11.3 50.2 11.8 C 50.2 11.76 50.2 14 50.2 14 L 49.7 14 C 49.7 14 49.66 11.89 49.7 11.9 C 49.7 11.5 49.6 11.3 49.4 11.1 C 49.2 10.9 49 10.8 48.7 10.8 C 48.4 10.8 48.2 10.9 48 11.1 C 47.8 11.3 47.7 11.6 47.7 11.9 C 47.72 11.91 47.7 14 47.7 14 L 47.2 14 C 47.2 14 47.19 11.87 47.2 11.9 C 47.2 11.5 47.1 11.3 46.9 11.1 C 46.8 10.9 46.5 10.8 46.3 10.8 C 46 10.8 45.7 10.9 45.5 11.1 C 45.3 11.3 45.3 11.6 45.3 11.9 C 45.25 11.93 45.3 14 45.3 14 L 44.7 14 Z " stroke="none" fill="#000"/>  </g>  <g id="Polygon431779">    <path d="M 18.9 5.6 L 18.9 1.7 L 17.4 1.7 L 17.4 0.7 L 21.4 0.7 L 21.4 1.7 L 19.9 1.7 L 19.9 5.6 L 18.9 5.6 Z M 27 3.1 C 27 3.9 26.8 4.5 26.3 4.9 C 25.8 5.4 25.2 5.7 24.4 5.7 C 23.7 5.7 23.1 5.4 22.6 5 C 22.1 4.5 21.8 3.9 21.8 3.2 C 21.8 3.2 21.8 3.1 21.8 3.1 C 21.8 2.4 22.1 1.8 22.6 1.4 C 23.1 0.9 23.7 0.6 24.5 0.6 C 25.2 0.6 25.8 0.9 26.3 1.3 C 26.8 1.8 27 2.4 27 3.1 C 27.05 3.14 27 3.1 27 3.1 C 27 3.1 27.05 3.15 27 3.1 Z M 23 3.1 C 23 3.6 23.1 3.9 23.4 4.2 C 23.7 4.5 24 4.7 24.5 4.7 C 24.9 4.7 25.2 4.5 25.5 4.2 C 25.8 4 25.9 3.6 25.9 3.2 C 25.9 3.2 25.9 3.1 25.9 3.1 C 25.9 2.7 25.8 2.4 25.5 2.1 C 25.2 1.8 24.9 1.6 24.4 1.6 C 24 1.6 23.7 1.8 23.4 2.1 C 23.1 2.3 23 2.7 23 3.1 C 22.97 3.14 23 3.1 23 3.1 C 23 3.1 22.97 3.15 23 3.1 Z M 29 5.6 L 27.3 0.7 L 28.5 0.7 L 29.5 4 L 30.6 0.7 L 31.5 0.7 L 32.6 4 L 33.7 0.7 L 34.8 0.7 L 33.1 5.6 L 32.2 5.6 L 31.1 2.4 L 30 5.6 L 29 5.6 Z M 35.6 5.6 L 35.6 0.7 L 39.3 0.7 L 39.3 1.7 L 36.7 1.7 L 36.7 2.7 L 39 2.7 L 39 3.6 L 36.7 3.6 L 36.7 4.6 L 39.3 4.6 L 39.3 5.6 L 35.6 5.6 Z M 40.3 5.6 L 40.3 0.7 L 41.3 0.7 L 41.3 4.6 L 43.8 4.6 L 43.8 5.6 L 40.3 5.6 Z " stroke="none" fill="#000"/>  </g></svg>