<?xml version="1.0" standalone="no"?><!DOCTYPE svg PUBLIC "-//W3C//DTD SVG 1.1//EN" "http://www.w3.org/Graphics/SVG/1.1/DTD/svg11.dtd"><svg xmlns="http://www.w3.org/2000/svg" version="1.1" width="67px" height="34.4px" viewBox="0 -3 67 34.4" style="top:-3px">  <desc>BATH TOWEL 70 x 140 cm BANYO HAVLUSU</desc>  <defs/>  <g id="Polygon432293">    <path d="M 2.2 23 L 2.2 18.1 C 2.2 18.1 4.45 18.1 4.5 18.1 C 5 18.1 5.4 18.2 5.7 18.5 C 6 18.8 6.1 19 6.1 19.4 C 6.1 19.4 6.1 19.4 6.1 19.4 C 6.1 19.9 5.9 20.2 5.4 20.4 C 5.7 20.6 6 20.7 6.1 20.9 C 6.3 21.1 6.3 21.3 6.3 21.6 C 6.3 21.6 6.3 21.7 6.3 21.7 C 6.3 22.1 6.2 22.4 5.9 22.7 C 5.5 22.9 5.1 23 4.5 23 C 4.51 23 2.2 23 2.2 23 Z M 4.2 20.1 C 4.7 20.1 5 19.9 5 19.6 C 5 19.6 5 19.5 5 19.5 C 5 19.2 4.8 19 4.3 19 C 4.29 19.04 3.2 19 3.2 19 L 3.2 20.1 L 4.2 20.1 C 4.2 20.1 4.22 20.08 4.2 20.1 Z M 4.5 22.1 C 5 22.1 5.3 21.9 5.3 21.5 C 5.3 21.5 5.3 21.5 5.3 21.5 C 5.3 21.2 5 21 4.5 21 C 4.47 20.98 3.2 21 3.2 21 L 3.2 22.1 L 4.5 22.1 C 4.5 22.1 4.51 22.05 4.5 22.1 Z M 6.8 23 L 8.9 18.1 L 9.9 18.1 L 12 23 L 10.9 23 L 10.4 21.9 L 8.4 21.9 L 7.9 23 L 6.8 23 Z M 8.7 20.9 L 10 20.9 L 9.4 19.4 L 8.7 20.9 Z M 12.8 23 L 12.8 18.1 L 13.8 18.1 L 16.1 21.1 L 16.1 18.1 L 17.1 18.1 L 17.1 23 L 16.2 23 L 13.8 19.9 L 13.8 23 L 12.8 23 Z M 19.7 23 L 19.7 21.1 L 17.8 18.1 L 19 18.1 L 20.2 20.1 L 21.4 18.1 L 22.6 18.1 L 20.7 21 L 20.7 23 L 19.7 23 Z M 27.9 20.5 C 27.9 21.3 27.6 21.9 27.1 22.3 C 26.6 22.8 26 23.1 25.3 23.1 C 24.5 23.1 23.9 22.8 23.4 22.4 C 22.9 21.9 22.7 21.3 22.7 20.6 C 22.7 20.6 22.7 20.5 22.7 20.5 C 22.7 19.8 22.9 19.2 23.4 18.8 C 23.9 18.3 24.5 18 25.3 18 C 26 18 26.6 18.3 27.1 18.7 C 27.6 19.2 27.9 19.8 27.9 20.5 C 27.87 20.54 27.9 20.5 27.9 20.5 C 27.9 20.5 27.87 20.55 27.9 20.5 Z M 23.8 20.5 C 23.8 21 23.9 21.3 24.2 21.6 C 24.5 21.9 24.8 22.1 25.3 22.1 C 25.7 22.1 26.1 21.9 26.3 21.6 C 26.6 21.4 26.7 21 26.7 20.6 C 26.7 20.6 26.7 20.5 26.7 20.5 C 26.7 20.1 26.6 19.8 26.3 19.5 C 26 19.2 25.7 19 25.3 19 C 24.8 19 24.5 19.2 24.2 19.5 C 23.9 19.7 23.8 20.1 23.8 20.5 C 23.79 20.54 23.8 20.5 23.8 20.5 C 23.8 20.5 23.79 20.55 23.8 20.5 Z M 30.9 23 L 30.9 18.1 L 32 18.1 L 32 20 L 34 20 L 34 18.1 L 35.1 18.1 L 35.1 23 L 34 23 L 34 21 L 32 21 L 32 23 L 30.9 23 Z M 35.8 23 L 37.9 18.1 L 38.9 18.1 L 41 23 L 39.9 23 L 39.5 21.9 L 37.4 21.9 L 36.9 23 L 35.8 23 Z M 37.8 20.9 L 39.1 20.9 L 38.4 19.4 L 37.8 20.9 Z M 42.6 23 L 40.7 18.1 L 41.9 18.1 L 43.1 21.6 L 44.4 18.1 L 45.6 18.1 L 43.6 23 L 42.6 23 Z M 46.3 23 L 46.3 18.1 L 47.4 18.1 L 47.4 22 L 49.9 22 L 49.9 23 L 46.3 23 Z M 54.7 20.9 C 54.7 21.6 54.5 22.1 54.1 22.5 C 53.8 22.9 53.2 23.1 52.6 23.1 C 51.9 23.1 51.4 22.9 51 22.5 C 50.6 22.2 50.4 21.6 50.4 20.9 C 50.45 20.9 50.4 18.1 50.4 18.1 L 51.5 18.1 C 51.5 18.1 51.53 20.87 51.5 20.9 C 51.5 21.3 51.6 21.6 51.8 21.8 C 52 22 52.2 22.1 52.6 22.1 C 52.9 22.1 53.2 22 53.4 21.8 C 53.5 21.6 53.6 21.3 53.6 20.9 C 53.64 20.91 53.6 18.1 53.6 18.1 L 54.7 18.1 L 54.7 20.9 C 54.7 20.9 54.72 20.86 54.7 20.9 Z M 57.6 23.1 C 56.8 23.1 56.1 22.8 55.5 22.3 C 55.5 22.3 56.1 21.5 56.1 21.5 C 56.6 21.9 57.1 22.1 57.6 22.1 C 57.8 22.1 58 22.1 58.1 22 C 58.2 21.9 58.3 21.8 58.3 21.7 C 58.3 21.7 58.3 21.6 58.3 21.6 C 58.3 21.5 58.2 21.4 58.1 21.3 C 58 21.2 57.7 21.1 57.3 21 C 57 20.9 56.8 20.9 56.6 20.8 C 56.4 20.7 56.3 20.7 56.1 20.5 C 56 20.4 55.9 20.3 55.8 20.1 C 55.7 20 55.7 19.8 55.7 19.5 C 55.7 19.5 55.7 19.5 55.7 19.5 C 55.7 19.1 55.8 18.7 56.2 18.4 C 56.5 18.2 56.9 18 57.4 18 C 58.1 18 58.7 18.2 59.2 18.7 C 59.2 18.7 58.7 19.5 58.7 19.5 C 58.2 19.1 57.8 19 57.4 19 C 57.2 19 57 19 56.9 19.1 C 56.8 19.2 56.7 19.3 56.7 19.4 C 56.7 19.4 56.7 19.4 56.7 19.4 C 56.7 19.6 56.8 19.7 56.9 19.8 C 57.1 19.9 57.4 20 57.8 20.1 C 58.3 20.2 58.7 20.4 59 20.6 C 59.2 20.8 59.4 21.1 59.4 21.5 C 59.4 21.5 59.4 21.6 59.4 21.6 C 59.4 22 59.2 22.4 58.9 22.7 C 58.5 22.9 58.1 23.1 57.6 23.1 Z M 64.5 20.9 C 64.5 21.6 64.3 22.1 63.9 22.5 C 63.5 22.9 63 23.1 62.3 23.1 C 61.7 23.1 61.1 22.9 60.8 22.5 C 60.4 22.2 60.2 21.6 60.2 20.9 C 60.22 20.9 60.2 18.1 60.2 18.1 L 61.3 18.1 C 61.3 18.1 61.3 20.87 61.3 20.9 C 61.3 21.3 61.4 21.6 61.6 21.8 C 61.8 22 62 22.1 62.4 22.1 C 62.7 22.1 63 22 63.1 21.8 C 63.3 21.6 63.4 21.3 63.4 20.9 C 63.41 20.91 63.4 18.1 63.4 18.1 L 64.5 18.1 L 64.5 20.9 C 64.5 20.9 64.49 20.86 64.5 20.9 Z " stroke="none" fill="#000"/>  </g>  <g id="Polygon432292">    <path d="M 13.2 14 L 15.4 9.6 L 12.7 9.6 L 12.7 9.1 L 16 9.1 L 16 9.5 L 13.8 14 L 13.2 14 Z M 20.8 11.5 C 20.8 12.3 20.6 12.9 20.2 13.3 C 19.8 13.8 19.3 14.1 18.7 14.1 C 18.1 14.1 17.6 13.8 17.2 13.4 C 16.9 12.9 16.7 12.3 16.7 11.6 C 16.7 11.6 16.7 11.5 16.7 11.5 C 16.7 10.8 16.9 10.2 17.2 9.8 C 17.6 9.3 18.1 9 18.7 9 C 19.4 9 19.9 9.3 20.2 9.7 C 20.6 10.2 20.8 10.8 20.8 11.5 C 20.8 11.54 20.8 11.5 20.8 11.5 C 20.8 11.5 20.8 11.55 20.8 11.5 Z M 17.2 11.5 C 17.2 12.1 17.4 12.6 17.7 13 C 17.9 13.4 18.3 13.6 18.7 13.6 C 19.2 13.6 19.5 13.4 19.8 13 C 20.1 12.6 20.2 12.1 20.2 11.6 C 20.2 11.6 20.2 11.5 20.2 11.5 C 20.2 11 20.1 10.5 19.8 10.1 C 19.5 9.7 19.2 9.5 18.7 9.5 C 18.3 9.5 17.9 9.7 17.7 10.1 C 17.4 10.5 17.2 11 17.2 11.5 C 17.24 11.54 17.2 11.5 17.2 11.5 C 17.2 11.5 17.24 11.55 17.2 11.5 Z M 24.3 10.4 L 25.3 11.8 L 26.4 10.4 L 27 10.4 L 25.7 12.2 L 27.1 14 L 26.5 14 L 25.3 12.5 L 24.2 14 L 23.6 14 L 25 12.2 L 23.7 10.4 L 24.3 10.4 Z M 30.7 14 L 30.7 9.6 L 29.8 9.9 L 29.6 9.5 L 30.8 9.1 L 31.3 9.1 L 31.3 14 L 30.7 14 Z M 35 14 L 35 12.8 L 32.4 12.8 L 32.3 12.4 L 35 9.1 L 35.5 9.1 L 35.5 12.4 L 36.3 12.4 L 36.3 12.8 L 35.5 12.8 L 35.5 14 L 35 14 Z M 32.9 12.4 L 35 12.4 L 35 9.8 L 32.9 12.4 Z M 41.2 11.5 C 41.2 12.3 41 12.9 40.7 13.3 C 40.3 13.8 39.8 14.1 39.2 14.1 C 38.5 14.1 38 13.8 37.7 13.4 C 37.3 12.9 37.1 12.3 37.1 11.6 C 37.1 11.6 37.1 11.5 37.1 11.5 C 37.1 10.8 37.3 10.2 37.7 9.8 C 38.1 9.3 38.6 9 39.2 9 C 39.8 9 40.3 9.3 40.7 9.7 C 41 10.2 41.2 10.8 41.2 11.5 C 41.23 11.54 41.2 11.5 41.2 11.5 C 41.2 11.5 41.23 11.55 41.2 11.5 Z M 37.7 11.5 C 37.7 12.1 37.8 12.6 38.1 13 C 38.4 13.4 38.7 13.6 39.2 13.6 C 39.6 13.6 40 13.4 40.2 13 C 40.5 12.6 40.7 12.1 40.7 11.6 C 40.7 11.6 40.7 11.5 40.7 11.5 C 40.7 11 40.5 10.5 40.2 10.1 C 40 9.7 39.6 9.5 39.2 9.5 C 38.7 9.5 38.4 9.7 38.1 10.1 C 37.8 10.5 37.7 11 37.7 11.5 C 37.66 11.54 37.7 11.5 37.7 11.5 C 37.7 11.5 37.66 11.55 37.7 11.5 Z M 47.5 13.4 C 47.1 13.9 46.6 14.1 46 14.1 C 45.5 14.1 45 13.9 44.7 13.5 C 44.3 13.2 44.1 12.7 44.1 12.2 C 44.1 12.2 44.1 12.2 44.1 12.2 C 44.1 11.7 44.3 11.2 44.7 10.9 C 45 10.5 45.5 10.3 46 10.3 C 46.6 10.3 47 10.5 47.4 10.9 C 47.4 10.9 47.1 11.3 47.1 11.3 C 46.7 11 46.4 10.8 46 10.8 C 45.6 10.8 45.3 10.9 45.1 11.2 C 44.8 11.5 44.7 11.8 44.7 12.2 C 44.7 12.2 44.7 12.2 44.7 12.2 C 44.7 12.6 44.8 12.9 45.1 13.2 C 45.3 13.5 45.6 13.6 46 13.6 C 46.4 13.6 46.8 13.4 47.1 13.1 C 47.13 13.06 47.5 13.4 47.5 13.4 C 47.5 13.4 47.47 13.38 47.5 13.4 Z M 48.4 14 L 48.4 10.4 L 48.9 10.4 C 48.9 10.4 48.9 10.99 48.9 11 C 49 10.8 49.2 10.6 49.4 10.5 C 49.6 10.4 49.8 10.3 50.1 10.3 C 50.6 10.3 51 10.5 51.2 11 C 51.6 10.5 52 10.3 52.5 10.3 C 52.9 10.3 53.3 10.4 53.5 10.7 C 53.7 11 53.8 11.3 53.8 11.8 C 53.85 11.76 53.8 14 53.8 14 L 53.3 14 C 53.3 14 53.31 11.89 53.3 11.9 C 53.3 11.5 53.2 11.3 53.1 11.1 C 52.9 10.9 52.7 10.8 52.4 10.8 C 52.1 10.8 51.9 10.9 51.7 11.1 C 51.5 11.3 51.4 11.6 51.4 11.9 C 51.37 11.91 51.4 14 51.4 14 L 50.8 14 C 50.8 14 50.84 11.87 50.8 11.9 C 50.8 11.5 50.8 11.3 50.6 11.1 C 50.4 10.9 50.2 10.8 49.9 10.8 C 49.6 10.8 49.4 10.9 49.2 11.1 C 49 11.3 48.9 11.6 48.9 11.9 C 48.9 11.93 48.9 14 48.9 14 L 48.4 14 Z " stroke="none" fill="#000"/>  </g>  <g id="Polygon432291">    <path d="M 9.5 5.6 L 9.5 0.7 C 9.5 0.7 11.77 0.7 11.8 0.7 C 12.3 0.7 12.8 0.8 13 1.1 C 13.3 1.4 13.4 1.6 13.4 2 C 13.4 2 13.4 2 13.4 2 C 13.4 2.5 13.2 2.8 12.7 3 C 13 3.2 13.3 3.3 13.4 3.5 C 13.6 3.7 13.7 3.9 13.7 4.2 C 13.7 4.2 13.7 4.3 13.7 4.3 C 13.7 4.7 13.5 5 13.2 5.3 C 12.8 5.5 12.4 5.6 11.8 5.6 C 11.82 5.6 9.5 5.6 9.5 5.6 Z M 11.5 2.7 C 12.1 2.7 12.3 2.5 12.3 2.2 C 12.3 2.2 12.3 2.1 12.3 2.1 C 12.3 1.8 12.1 1.6 11.6 1.6 C 11.61 1.64 10.5 1.6 10.5 1.6 L 10.5 2.7 L 11.5 2.7 C 11.5 2.7 11.54 2.68 11.5 2.7 Z M 11.8 4.7 C 12.3 4.7 12.6 4.5 12.6 4.1 C 12.6 4.1 12.6 4.1 12.6 4.1 C 12.6 3.8 12.3 3.6 11.8 3.6 C 11.79 3.58 10.5 3.6 10.5 3.6 L 10.5 4.7 L 11.8 4.7 C 11.8 4.7 11.82 4.65 11.8 4.7 Z M 14.1 5.6 L 16.2 0.7 L 17.2 0.7 L 19.3 5.6 L 18.2 5.6 L 17.7 4.5 L 15.7 4.5 L 15.2 5.6 L 14.1 5.6 Z M 16.1 3.5 L 17.4 3.5 L 16.7 2 L 16.1 3.5 Z M 20.6 5.6 L 20.6 1.7 L 19.1 1.7 L 19.1 0.7 L 23.2 0.7 L 23.2 1.7 L 21.7 1.7 L 21.7 5.6 L 20.6 5.6 Z M 24 5.6 L 24 0.7 L 25.1 0.7 L 25.1 2.6 L 27 2.6 L 27 0.7 L 28.1 0.7 L 28.1 5.6 L 27 5.6 L 27 3.6 L 25.1 3.6 L 25.1 5.6 L 24 5.6 Z M 32.5 5.6 L 32.5 1.7 L 31.1 1.7 L 31.1 0.7 L 35.1 0.7 L 35.1 1.7 L 33.6 1.7 L 33.6 5.6 L 32.5 5.6 Z M 40.7 3.1 C 40.7 3.9 40.5 4.5 40 4.9 C 39.5 5.4 38.9 5.7 38.1 5.7 C 37.4 5.7 36.7 5.4 36.2 5 C 35.8 4.5 35.5 3.9 35.5 3.2 C 35.5 3.2 35.5 3.1 35.5 3.1 C 35.5 2.4 35.8 1.8 36.3 1.4 C 36.8 0.9 37.4 0.6 38.1 0.6 C 38.9 0.6 39.5 0.9 40 1.3 C 40.5 1.8 40.7 2.4 40.7 3.1 C 40.72 3.14 40.7 3.1 40.7 3.1 C 40.7 3.1 40.72 3.15 40.7 3.1 Z M 36.6 3.1 C 36.6 3.6 36.8 3.9 37.1 4.2 C 37.3 4.5 37.7 4.7 38.1 4.7 C 38.6 4.7 38.9 4.5 39.2 4.2 C 39.5 4 39.6 3.6 39.6 3.2 C 39.6 3.2 39.6 3.1 39.6 3.1 C 39.6 2.7 39.5 2.4 39.2 2.1 C 38.9 1.8 38.5 1.6 38.1 1.6 C 37.7 1.6 37.3 1.8 37.1 2.1 C 36.8 2.3 36.6 2.7 36.6 3.1 C 36.64 3.14 36.6 3.1 36.6 3.1 C 36.6 3.1 36.64 3.15 36.6 3.1 Z M 42.7 5.6 L 41 0.7 L 42.2 0.7 L 43.2 4 L 44.3 0.7 L 45.2 0.7 L 46.3 4 L 47.3 0.7 L 48.5 0.7 L 46.8 5.6 L 45.8 5.6 L 44.7 2.4 L 43.6 5.6 L 42.7 5.6 Z M 49.3 5.6 L 49.3 0.7 L 52.9 0.7 L 52.9 1.7 L 50.3 1.7 L 50.3 2.7 L 52.6 2.7 L 52.6 3.6 L 50.3 3.6 L 50.3 4.6 L 53 4.6 L 53 5.6 L 49.3 5.6 Z M 53.9 5.6 L 53.9 0.7 L 55 0.7 L 55 4.6 L 57.5 4.6 L 57.5 5.6 L 53.9 5.6 Z " stroke="none" fill="#000"/>  </g></svg>