<?xml version="1.0" standalone="no"?><!DOCTYPE svg PUBLIC "-//W3C//DTD SVG 1.1//EN" "http://www.w3.org/Graphics/SVG/1.1/DTD/svg11.dtd"><svg xmlns="http://www.w3.org/2000/svg" version="1.1" width="16.2px" height="12.4px" viewBox="0 -1 16.2 12.4" style="top:-1px">  <desc> </desc>  <defs/>  <g id="Polygon368506">    <path d="M 10 7.6 C 9.3 7.6 8.7 7.3 8.2 6.7 C 8.2 6.7 8.6 6.3 8.6 6.3 C 9 6.8 9.5 7.1 10 7.1 C 10.3 7.1 10.6 7 10.8 6.8 C 11 6.6 11.1 6.4 11.1 6.1 C 11.1 6.1 11.1 6.1 11.1 6.1 C 11.1 5.8 11 5.6 10.7 5.4 C 10.5 5.2 10.2 5.1 9.7 5.1 C 9.75 5.15 9.4 5.1 9.4 5.1 L 9.3 4.8 L 10.9 3.1 L 8.5 3.1 L 8.5 2.6 L 11.6 2.6 L 11.6 3 C 11.6 3 10.06 4.69 10.1 4.7 C 10.5 4.7 10.9 4.9 11.2 5.1 C 11.5 5.3 11.7 5.6 11.7 6.1 C 11.7 6.1 11.7 6.1 11.7 6.1 C 11.7 6.5 11.5 6.9 11.2 7.1 C 10.9 7.4 10.5 7.6 10 7.6 Z M 12.9 7.5 L 15.2 3.1 L 12.5 3.1 L 12.5 2.6 L 15.8 2.6 L 15.8 3 L 13.6 7.5 L 12.9 7.5 Z " stroke="none" fill="#000"/>  </g></svg>