<?xml version="1.0" standalone="no"?><!DOCTYPE svg PUBLIC "-//W3C//DTD SVG 1.1//EN" "http://www.w3.org/Graphics/SVG/1.1/DTD/svg11.dtd"><svg xmlns="http://www.w3.org/2000/svg" version="1.1" width="69.5px" height="20.5px" viewBox="0 -1 69.5 20.5" style="top:-1px">  <desc>₺2.123,50</desc>  <defs/>  <g id="Polygon426980">    <path d="M 2.3 4.8 L 2.3 11.9 L 1.4 11.9 L 1.4 4.8 L 2.3 4.8 Z M 4.2 8.2 L 5.1 8.2 C 5.1 8.2 5.13 8.58 5.1 8.6 C 5.1 9.1 5.1 9.6 4.9 10 C 4.8 10.4 4.6 10.8 4.4 11.1 C 4.1 11.4 3.8 11.6 3.4 11.8 C 3.1 11.9 2.7 12 2.3 12 C 2.1 12 2 12 1.8 12 C 1.7 12 1.5 11.9 1.4 11.9 C 1.4 11.9 2.3 11.2 2.3 11.2 C 2.6 11.2 2.9 11.2 3.1 11 C 3.3 10.9 3.5 10.8 3.7 10.5 C 3.9 10.3 4 10 4.1 9.7 C 4.2 9.4 4.2 9 4.2 8.6 C 4.2 8.58 4.2 8.2 4.2 8.2 Z M 3.5 5.5 L 3.5 6.4 L 0.2 7.9 L 0.2 7 L 3.5 5.5 Z M 3.5 7.1 L 3.5 8 L 0.2 9.5 L 0.2 8.6 L 3.5 7.1 Z M 10.8 11.2 L 10.8 11.9 L 6.2 11.9 L 6.2 11.3 C 6.2 11.3 8.49 8.67 8.5 8.7 C 8.8 8.4 9 8.1 9.2 7.9 C 9.3 7.6 9.4 7.4 9.5 7.3 C 9.6 7.1 9.6 6.9 9.6 6.7 C 9.6 6.5 9.5 6.3 9.4 6.1 C 9.3 5.9 9.2 5.7 9 5.6 C 8.8 5.5 8.6 5.5 8.3 5.5 C 8 5.5 7.8 5.5 7.6 5.6 C 7.3 5.8 7.2 5.9 7.1 6.1 C 7 6.4 6.9 6.6 6.9 6.9 C 6.9 6.9 6 6.9 6 6.9 C 6 6.5 6.1 6.1 6.3 5.8 C 6.5 5.5 6.7 5.2 7.1 5 C 7.4 4.8 7.8 4.7 8.3 4.7 C 8.8 4.7 9.2 4.8 9.5 4.9 C 9.8 5.1 10.1 5.3 10.2 5.6 C 10.4 5.9 10.5 6.2 10.5 6.6 C 10.5 6.8 10.5 7 10.4 7.2 C 10.3 7.5 10.2 7.7 10.1 7.9 C 10 8.1 9.8 8.3 9.7 8.5 C 9.5 8.7 9.3 8.9 9.2 9.1 C 9.16 9.11 7.3 11.2 7.3 11.2 L 10.8 11.2 Z M 11.9 11.4 C 11.9 11.3 11.9 11.2 12 11 C 12.1 10.9 12.3 10.9 12.5 10.9 C 12.6 10.9 12.8 10.9 12.9 11 C 13 11.2 13 11.3 13 11.4 C 13 11.6 13 11.7 12.9 11.8 C 12.8 11.9 12.6 12 12.5 12 C 12.3 12 12.1 11.9 12 11.8 C 11.9 11.7 11.9 11.6 11.9 11.4 Z M 17.4 4.8 L 17.4 11.9 L 16.5 11.9 L 16.5 5.9 L 14.7 6.6 L 14.7 5.7 L 17.2 4.8 L 17.4 4.8 Z M 24.7 11.2 L 24.7 11.9 L 20 11.9 L 20 11.3 C 20 11.3 22.37 8.67 22.4 8.7 C 22.7 8.4 22.9 8.1 23 7.9 C 23.2 7.6 23.3 7.4 23.4 7.3 C 23.4 7.1 23.5 6.9 23.5 6.7 C 23.5 6.5 23.4 6.3 23.3 6.1 C 23.2 5.9 23.1 5.7 22.9 5.6 C 22.7 5.5 22.5 5.5 22.2 5.5 C 21.9 5.5 21.6 5.5 21.4 5.6 C 21.2 5.8 21.1 5.9 21 6.1 C 20.9 6.4 20.8 6.6 20.8 6.9 C 20.8 6.9 19.9 6.9 19.9 6.9 C 19.9 6.5 20 6.1 20.2 5.8 C 20.3 5.5 20.6 5.2 20.9 5 C 21.3 4.8 21.7 4.7 22.2 4.7 C 22.7 4.7 23.1 4.8 23.4 4.9 C 23.7 5.1 23.9 5.3 24.1 5.6 C 24.3 5.9 24.4 6.2 24.4 6.6 C 24.4 6.8 24.3 7 24.3 7.2 C 24.2 7.5 24.1 7.7 24 7.9 C 23.9 8.1 23.7 8.3 23.5 8.5 C 23.4 8.7 23.2 8.9 23 9.1 C 23.03 9.11 21.1 11.2 21.1 11.2 L 24.7 11.2 Z M 27 7.9 C 27 7.9 27.62 7.92 27.6 7.9 C 27.9 7.9 28.2 7.9 28.4 7.8 C 28.6 7.7 28.8 7.5 28.9 7.3 C 29 7.1 29 6.9 29 6.7 C 29 6.4 29 6.2 28.9 6 C 28.8 5.8 28.7 5.7 28.5 5.6 C 28.3 5.5 28.1 5.5 27.8 5.5 C 27.5 5.5 27.3 5.5 27.1 5.6 C 26.9 5.7 26.8 5.8 26.7 6 C 26.5 6.2 26.5 6.4 26.5 6.7 C 26.5 6.7 25.6 6.7 25.6 6.7 C 25.6 6.3 25.7 6 25.9 5.7 C 26 5.4 26.3 5.1 26.6 5 C 27 4.8 27.3 4.7 27.8 4.7 C 28.2 4.7 28.6 4.8 28.9 4.9 C 29.2 5.1 29.5 5.3 29.7 5.6 C 29.8 5.9 29.9 6.3 29.9 6.7 C 29.9 6.9 29.9 7.1 29.8 7.3 C 29.7 7.5 29.6 7.7 29.4 7.9 C 29.2 8 29 8.2 28.7 8.3 C 28.5 8.4 28.1 8.5 27.7 8.5 C 27.74 8.46 27 8.5 27 8.5 L 27 7.9 Z M 27 8.7 L 27 8.1 C 27 8.1 27.74 8.12 27.7 8.1 C 28.2 8.1 28.6 8.2 28.9 8.3 C 29.2 8.4 29.4 8.5 29.6 8.7 C 29.7 8.9 29.9 9.1 29.9 9.3 C 30 9.5 30 9.7 30 9.9 C 30 10.3 30 10.6 29.9 10.8 C 29.8 11.1 29.6 11.3 29.4 11.5 C 29.2 11.7 29 11.8 28.7 11.9 C 28.4 12 28.1 12 27.8 12 C 27.5 12 27.2 12 26.9 11.9 C 26.6 11.8 26.4 11.7 26.2 11.5 C 26 11.3 25.8 11.1 25.7 10.9 C 25.6 10.6 25.5 10.4 25.5 10 C 25.5 10 26.4 10 26.4 10 C 26.4 10.3 26.5 10.5 26.6 10.7 C 26.7 10.9 26.9 11 27.1 11.1 C 27.3 11.2 27.5 11.3 27.8 11.3 C 28.1 11.3 28.3 11.2 28.5 11.1 C 28.7 11 28.9 10.9 29 10.7 C 29.1 10.5 29.1 10.2 29.1 10 C 29.1 9.7 29.1 9.4 28.9 9.2 C 28.8 9 28.6 8.9 28.4 8.8 C 28.2 8.7 27.9 8.7 27.6 8.7 C 27.62 8.66 27 8.7 27 8.7 Z M 32.2 10.8 C 32.2 10.8 32.19 11.57 32.2 11.6 C 32.2 11.9 32.1 12.2 32 12.5 C 31.8 12.8 31.6 13.1 31.3 13.3 C 31.3 13.3 30.8 13 30.8 13 C 30.9 12.8 31 12.7 31.1 12.5 C 31.2 12.4 31.2 12.2 31.3 12.1 C 31.3 11.9 31.3 11.8 31.3 11.6 C 31.31 11.58 31.3 10.8 31.3 10.8 L 32.2 10.8 Z M 34.4 8.5 C 34.38 8.53 33.7 8.3 33.7 8.3 L 34 4.8 L 37.7 4.8 L 37.7 5.6 L 34.8 5.6 C 34.8 5.6 34.57 7.57 34.6 7.6 C 34.7 7.5 34.9 7.4 35.1 7.4 C 35.3 7.3 35.5 7.3 35.8 7.3 C 36.1 7.3 36.4 7.3 36.6 7.4 C 36.9 7.5 37.1 7.7 37.3 7.9 C 37.5 8.1 37.6 8.4 37.7 8.7 C 37.8 9 37.9 9.3 37.9 9.6 C 37.9 10 37.8 10.3 37.7 10.6 C 37.6 10.9 37.5 11.1 37.3 11.3 C 37.1 11.6 36.9 11.7 36.6 11.8 C 36.3 12 36 12 35.6 12 C 35.3 12 35.1 12 34.8 11.9 C 34.6 11.8 34.3 11.7 34.1 11.5 C 33.9 11.4 33.8 11.2 33.6 10.9 C 33.5 10.7 33.4 10.4 33.4 10 C 33.4 10 34.3 10 34.3 10 C 34.3 10.3 34.4 10.5 34.5 10.7 C 34.6 10.9 34.8 11 35 11.1 C 35.1 11.2 35.4 11.3 35.6 11.3 C 35.8 11.3 36 11.2 36.2 11.2 C 36.4 11.1 36.5 11 36.6 10.8 C 36.7 10.7 36.8 10.5 36.9 10.3 C 36.9 10.1 37 9.9 37 9.7 C 37 9.4 36.9 9.2 36.9 9 C 36.8 8.8 36.7 8.7 36.6 8.5 C 36.5 8.4 36.3 8.3 36.2 8.2 C 36 8.1 35.8 8.1 35.5 8.1 C 35.2 8.1 35 8.1 34.9 8.2 C 34.7 8.3 34.5 8.4 34.4 8.5 Z M 43.3 7.8 C 43.3 7.8 43.3 8.9 43.3 8.9 C 43.3 9.5 43.3 10 43.2 10.4 C 43.1 10.8 42.9 11.1 42.7 11.3 C 42.5 11.6 42.3 11.7 42 11.8 C 41.7 12 41.4 12 41.1 12 C 40.8 12 40.6 12 40.3 11.9 C 40.1 11.8 39.9 11.7 39.7 11.6 C 39.5 11.4 39.4 11.2 39.2 11 C 39.1 10.7 39 10.4 38.9 10.1 C 38.9 9.8 38.8 9.3 38.8 8.9 C 38.8 8.9 38.8 7.8 38.8 7.8 C 38.8 7.2 38.9 6.7 39 6.3 C 39.1 5.9 39.2 5.6 39.4 5.4 C 39.6 5.1 39.9 5 40.1 4.9 C 40.4 4.8 40.7 4.7 41.1 4.7 C 41.4 4.7 41.6 4.7 41.8 4.8 C 42.1 4.9 42.3 5 42.5 5.1 C 42.6 5.3 42.8 5.5 42.9 5.7 C 43.1 5.9 43.2 6.2 43.2 6.6 C 43.3 6.9 43.3 7.3 43.3 7.8 Z M 42.4 9 C 42.4 9 42.4 7.6 42.4 7.6 C 42.4 7.3 42.4 7 42.4 6.8 C 42.3 6.6 42.3 6.4 42.2 6.2 C 42.1 6 42 5.9 41.9 5.8 C 41.8 5.7 41.7 5.6 41.6 5.5 C 41.4 5.5 41.3 5.4 41.1 5.4 C 40.9 5.4 40.7 5.5 40.5 5.6 C 40.3 5.6 40.2 5.8 40.1 5.9 C 40 6.1 39.9 6.3 39.8 6.6 C 39.8 6.9 39.7 7.2 39.7 7.6 C 39.7 7.6 39.7 9 39.7 9 C 39.7 9.3 39.8 9.6 39.8 9.9 C 39.8 10.1 39.9 10.3 40 10.5 C 40 10.7 40.1 10.8 40.2 10.9 C 40.3 11.1 40.5 11.1 40.6 11.2 C 40.8 11.2 40.9 11.3 41.1 11.3 C 41.3 11.3 41.5 11.2 41.7 11.1 C 41.8 11.1 42 10.9 42.1 10.7 C 42.2 10.6 42.3 10.3 42.3 10 C 42.4 9.8 42.4 9.4 42.4 9 Z " stroke="none" fill="#000"/>  </g></svg>