<?xml version="1.0" standalone="no"?><!DOCTYPE svg PUBLIC "-//W3C//DTD SVG 1.1//EN" "http://www.w3.org/Graphics/SVG/1.1/DTD/svg11.dtd"><svg xmlns="http://www.w3.org/2000/svg" version="1.1" width="173px" height="57.6px" viewBox="0 -3 173 57.6" style="top:-3px">  <desc>Manyetik elik D zenleyici r n Kodu: YM 10096 / YM 10097 l ler: 21 cm</desc>  <defs/>  <g id="Polygon359483">    <path d="M 3.8 35.2 L 3.8 34.5 L 4.5 34.5 L 4.5 35.2 L 3.8 35.2 Z M 2.3 35.2 L 2.3 34.5 L 3 34.5 L 3 35.2 L 2.3 35.2 Z M 6.3 38.6 C 6.3 39.4 6 40.1 5.4 40.6 C 4.9 41.2 4.2 41.5 3.4 41.5 C 2.6 41.5 1.9 41.2 1.3 40.7 C 0.8 40.1 0.5 39.4 0.5 38.6 C 0.5 38.6 0.5 38.6 0.5 38.6 C 0.5 37.8 0.8 37.1 1.4 36.6 C 1.9 36 2.6 35.7 3.4 35.7 C 4.2 35.7 4.9 36 5.5 36.5 C 6 37.1 6.3 37.8 6.3 38.6 C 6.26 38.58 6.3 38.6 6.3 38.6 C 6.3 38.6 6.26 38.6 6.3 38.6 Z M 1.2 38.6 C 1.2 39.2 1.4 39.8 1.8 40.2 C 2.2 40.7 2.8 40.9 3.4 40.9 C 4 40.9 4.6 40.7 5 40.2 C 5.4 39.8 5.6 39.3 5.6 38.6 C 5.6 38.6 5.6 38.6 5.6 38.6 C 5.6 38 5.4 37.4 5 37 C 4.6 36.5 4 36.3 3.4 36.3 C 2.8 36.3 2.2 36.5 1.8 37 C 1.4 37.4 1.2 37.9 1.2 38.6 C 1.2 38.58 1.2 38.6 1.2 38.6 C 1.2 38.6 1.2 38.6 1.2 38.6 Z M 7.5 41.4 L 7.5 35.6 L 8.2 35.6 L 8.2 41.4 L 7.5 41.4 Z M 11 42.6 L 10.4 42.4 C 10.4 42.4 11.07 41.46 11.1 41.5 C 10.6 41.4 10.2 41.1 9.8 40.7 C 9.5 40.3 9.3 39.9 9.3 39.4 C 9.3 39.4 9.3 39.3 9.3 39.3 C 9.3 38.7 9.5 38.2 9.9 37.8 C 10.3 37.4 10.9 37.2 11.5 37.2 C 12.1 37.2 12.6 37.4 13.1 37.9 C 13.1 37.9 12.7 38.3 12.7 38.3 C 12.3 37.9 11.9 37.7 11.4 37.7 C 11 37.7 10.7 37.9 10.4 38.2 C 10.1 38.5 10 38.9 10 39.3 C 10 39.3 10 39.3 10 39.3 C 10 39.8 10.1 40.2 10.4 40.5 C 10.7 40.8 11.1 40.9 11.5 40.9 C 11.9 40.9 12.4 40.7 12.8 40.3 C 12.8 40.3 13.1 40.7 13.1 40.7 C 12.7 41.2 12.2 41.5 11.6 41.5 C 11.58 41.49 11 42.6 11 42.6 Z M 16.2 36.6 L 16.2 35.9 L 16.9 35.9 L 16.9 36.6 L 16.2 36.6 Z M 14.8 36.6 L 14.8 35.9 L 15.5 35.9 L 15.5 36.6 L 14.8 36.6 Z M 17.1 40.7 C 16.7 41.2 16.3 41.5 15.6 41.5 C 15.2 41.5 14.8 41.3 14.5 41 C 14.2 40.7 14.1 40.3 14.1 39.8 C 14.06 39.83 14.1 37.3 14.1 37.3 L 14.7 37.3 C 14.7 37.3 14.68 39.68 14.7 39.7 C 14.7 40.1 14.8 40.4 15 40.6 C 15.2 40.8 15.5 40.9 15.8 40.9 C 16.2 40.9 16.5 40.8 16.7 40.6 C 16.9 40.3 17.1 40 17.1 39.6 C 17.06 39.63 17.1 37.3 17.1 37.3 L 17.7 37.3 L 17.7 41.4 L 17.1 41.4 L 17.1 40.7 C 17.1 40.7 17.06 40.68 17.1 40.7 Z M 19.1 41.4 L 19.1 35.6 L 19.7 35.6 L 19.7 41.4 L 19.1 41.4 Z M 24.7 40.7 C 24.2 41.2 23.7 41.5 23 41.5 C 22.4 41.5 21.9 41.3 21.5 40.9 C 21.1 40.5 20.9 40 20.9 39.3 C 20.9 39.3 20.9 39.3 20.9 39.3 C 20.9 38.7 21.1 38.2 21.5 37.8 C 21.8 37.4 22.3 37.2 22.9 37.2 C 23.5 37.2 23.9 37.4 24.3 37.8 C 24.6 38.2 24.8 38.7 24.8 39.4 C 24.8 39.4 24.8 39.5 24.8 39.6 C 24.8 39.6 21.5 39.6 21.5 39.6 C 21.6 40 21.7 40.3 22 40.6 C 22.3 40.8 22.6 41 23 41 C 23.5 41 23.9 40.8 24.3 40.4 C 24.29 40.38 24.7 40.7 24.7 40.7 C 24.7 40.7 24.67 40.72 24.7 40.7 Z M 21.5 39.1 C 21.5 39.1 24.2 39.1 24.2 39.1 C 24.2 38.7 24 38.4 23.8 38.1 C 23.6 37.8 23.3 37.7 22.9 37.7 C 22.5 37.7 22.2 37.8 22 38.1 C 21.7 38.4 21.6 38.7 21.5 39.1 Z M 25.9 41.4 L 25.9 37.3 L 26.5 37.3 C 26.5 37.3 26.51 38.34 26.5 38.3 C 26.7 38 26.9 37.7 27.2 37.5 C 27.5 37.3 27.8 37.2 28.2 37.2 C 28.2 37.19 28.2 37.9 28.2 37.9 C 28.2 37.9 28.15 37.86 28.2 37.9 C 27.7 37.9 27.3 38 27 38.4 C 26.7 38.7 26.5 39.1 26.5 39.8 C 26.51 39.75 26.5 41.4 26.5 41.4 L 25.9 41.4 Z M 29.1 38.1 L 29.1 37.3 L 29.8 37.3 L 29.8 38.1 L 29.1 38.1 Z M 29.1 41.4 L 29.1 40.6 L 29.8 40.6 L 29.8 41.4 L 29.1 41.4 Z M 33.3 41.4 L 33.3 40.9 C 33.3 40.9 35.3 39.12 35.3 39.1 C 35.7 38.7 36 38.4 36.2 38.2 C 36.4 37.9 36.5 37.6 36.5 37.4 C 36.5 37 36.4 36.8 36.1 36.6 C 35.9 36.4 35.7 36.3 35.3 36.3 C 35 36.3 34.8 36.4 34.5 36.5 C 34.3 36.7 34.1 36.9 33.8 37.2 C 33.8 37.2 33.4 36.9 33.4 36.9 C 33.7 36.5 33.9 36.2 34.2 36 C 34.5 35.8 34.9 35.7 35.4 35.7 C 35.9 35.7 36.3 35.9 36.6 36.2 C 37 36.5 37.1 36.8 37.1 37.3 C 37.1 37.3 37.1 37.3 37.1 37.3 C 37.1 37.7 37 38.1 36.8 38.4 C 36.6 38.7 36.2 39 35.7 39.5 C 35.7 39.5 34.2 40.8 34.2 40.8 L 37.2 40.8 L 37.2 41.4 L 33.3 41.4 Z M 39.1 41.4 L 39.1 36.4 L 38 36.7 L 37.9 36.2 L 39.3 35.8 L 39.7 35.8 L 39.7 41.4 L 39.1 41.4 Z M 47.2 40.7 C 46.7 41.2 46.1 41.5 45.5 41.5 C 44.9 41.5 44.4 41.3 44 40.9 C 43.6 40.4 43.4 39.9 43.4 39.4 C 43.4 39.4 43.4 39.3 43.4 39.3 C 43.4 38.7 43.6 38.2 44 37.8 C 44.4 37.4 44.9 37.2 45.5 37.2 C 46.1 37.2 46.7 37.4 47.1 37.9 C 47.1 37.9 46.7 38.3 46.7 38.3 C 46.3 37.9 45.9 37.7 45.5 37.7 C 45.1 37.7 44.7 37.9 44.4 38.2 C 44.1 38.5 44 38.9 44 39.3 C 44 39.3 44 39.3 44 39.3 C 44 39.8 44.1 40.2 44.4 40.5 C 44.7 40.8 45.1 40.9 45.5 40.9 C 46 40.9 46.4 40.7 46.8 40.3 C 46.78 40.33 47.2 40.7 47.2 40.7 C 47.2 40.7 47.18 40.7 47.2 40.7 Z M 48.2 41.4 L 48.2 37.3 L 48.8 37.3 C 48.8 37.3 48.81 37.96 48.8 38 C 49 37.7 49.2 37.5 49.4 37.4 C 49.6 37.2 49.8 37.2 50.1 37.2 C 50.8 37.2 51.2 37.5 51.5 38 C 51.8 37.5 52.3 37.2 52.9 37.2 C 53.4 37.2 53.8 37.3 54.1 37.6 C 54.3 37.9 54.5 38.3 54.5 38.8 C 54.46 38.84 54.5 41.4 54.5 41.4 L 53.8 41.4 C 53.8 41.4 53.85 38.98 53.8 39 C 53.8 38.6 53.8 38.3 53.6 38.1 C 53.4 37.8 53.1 37.7 52.8 37.7 C 52.5 37.7 52.2 37.9 52 38.1 C 51.7 38.3 51.6 38.6 51.6 39 C 51.63 39.02 51.6 41.4 51.6 41.4 L 51 41.4 C 51 41.4 51.02 38.97 51 39 C 51 38.6 50.9 38.3 50.7 38.1 C 50.5 37.8 50.3 37.7 50 37.7 C 49.6 37.7 49.4 37.9 49.1 38.1 C 48.9 38.3 48.8 38.7 48.8 39 C 48.81 39.04 48.8 41.4 48.8 41.4 L 48.2 41.4 Z " stroke="none" fill="#000"/>  </g>  <g id="Polygon359482">    <path d="M 3.4 21.3 L 3.4 20.6 L 4.2 20.6 L 4.2 21.3 L 3.4 21.3 Z M 1.9 21.3 L 1.9 20.6 L 2.7 20.6 L 2.7 21.3 L 1.9 21.3 Z M 3 27.5 C 2.3 27.5 1.8 27.3 1.3 26.9 C 0.9 26.4 0.7 25.8 0.7 25.1 C 0.7 25.06 0.7 21.8 0.7 21.8 L 1.3 21.8 C 1.3 21.8 1.34 25.02 1.3 25 C 1.3 25.6 1.5 26.1 1.8 26.4 C 2.1 26.7 2.5 26.9 3 26.9 C 3.6 26.9 4 26.7 4.3 26.4 C 4.6 26.1 4.7 25.7 4.7 25.1 C 4.74 25.06 4.7 21.8 4.7 21.8 L 5.4 21.8 C 5.4 21.8 5.37 25.01 5.4 25 C 5.4 25.8 5.2 26.4 4.7 26.8 C 4.3 27.3 3.8 27.5 3 27.5 Z M 6.8 27.4 L 6.8 23.3 L 7.4 23.3 C 7.4 23.3 7.38 24.34 7.4 24.3 C 7.5 24 7.8 23.7 8.1 23.5 C 8.3 23.3 8.7 23.2 9.1 23.2 C 9.06 23.19 9.1 23.9 9.1 23.9 C 9.1 23.9 9.02 23.86 9 23.9 C 8.5 23.9 8.1 24 7.8 24.4 C 7.5 24.7 7.4 25.1 7.4 25.8 C 7.38 25.75 7.4 27.4 7.4 27.4 L 6.8 27.4 Z M 12.1 22.6 L 12.1 21.9 L 12.8 21.9 L 12.8 22.6 L 12.1 22.6 Z M 10.7 22.6 L 10.7 21.9 L 11.4 21.9 L 11.4 22.6 L 10.7 22.6 Z M 12.9 26.7 C 12.6 27.2 12.1 27.5 11.5 27.5 C 11 27.5 10.6 27.3 10.4 27 C 10.1 26.7 9.9 26.3 9.9 25.8 C 9.94 25.83 9.9 23.3 9.9 23.3 L 10.6 23.3 C 10.6 23.3 10.55 25.68 10.6 25.7 C 10.6 26.1 10.7 26.4 10.9 26.6 C 11.1 26.8 11.3 26.9 11.7 26.9 C 12.1 26.9 12.3 26.8 12.6 26.6 C 12.8 26.3 12.9 26 12.9 25.6 C 12.94 25.63 12.9 23.3 12.9 23.3 L 13.5 23.3 L 13.5 27.4 L 12.9 27.4 L 12.9 26.7 C 12.9 26.7 12.94 26.68 12.9 26.7 Z M 14.9 27.4 L 14.9 23.3 L 15.5 23.3 C 15.5 23.3 15.54 23.98 15.5 24 C 15.9 23.4 16.4 23.2 17 23.2 C 17.5 23.2 17.8 23.3 18.1 23.6 C 18.4 23.9 18.5 24.3 18.5 24.8 C 18.54 24.83 18.5 27.4 18.5 27.4 L 17.9 27.4 C 17.9 27.4 17.93 24.98 17.9 25 C 17.9 24.6 17.8 24.3 17.6 24.1 C 17.4 23.8 17.1 23.7 16.8 23.7 C 16.4 23.7 16.1 23.9 15.9 24.1 C 15.7 24.3 15.5 24.6 15.5 25 C 15.54 25.03 15.5 27.4 15.5 27.4 L 14.9 27.4 Z M 22.4 27.4 L 22.4 21.8 L 23 21.8 L 23 25.1 L 26.2 21.8 L 27 21.8 L 24.6 24.2 L 27.1 27.4 L 26.3 27.4 L 24.2 24.7 L 23 25.9 L 23 27.4 L 22.4 27.4 Z M 29.7 27.5 C 29 27.5 28.5 27.3 28.1 26.9 C 27.7 26.4 27.5 25.9 27.5 25.4 C 27.5 25.4 27.5 25.3 27.5 25.3 C 27.5 24.7 27.7 24.2 28.1 23.8 C 28.5 23.4 29.1 23.2 29.7 23.2 C 30.3 23.2 30.8 23.4 31.2 23.8 C 31.6 24.2 31.8 24.7 31.8 25.3 C 31.8 25.3 31.8 25.3 31.8 25.3 C 31.8 25.9 31.6 26.4 31.2 26.9 C 30.8 27.3 30.3 27.5 29.7 27.5 Z M 29.7 26.9 C 30.1 26.9 30.5 26.8 30.8 26.5 C 31 26.2 31.2 25.8 31.2 25.4 C 31.2 25.4 31.2 25.3 31.2 25.3 C 31.2 24.9 31 24.5 30.7 24.2 C 30.5 23.9 30.1 23.7 29.7 23.7 C 29.2 23.7 28.9 23.9 28.6 24.2 C 28.3 24.5 28.1 24.9 28.1 25.3 C 28.1 25.3 28.1 25.3 28.1 25.3 C 28.1 25.8 28.3 26.2 28.6 26.5 C 28.9 26.8 29.2 26.9 29.7 26.9 Z M 36.3 26.6 C 35.8 27.2 35.3 27.5 34.7 27.5 C 34.1 27.5 33.7 27.3 33.3 26.9 C 32.9 26.5 32.7 26 32.7 25.3 C 32.7 25.3 32.7 25.3 32.7 25.3 C 32.7 24.7 32.9 24.2 33.3 23.8 C 33.7 23.4 34.1 23.2 34.7 23.2 C 35.3 23.2 35.9 23.5 36.3 24.1 C 36.26 24.06 36.3 21.6 36.3 21.6 L 36.9 21.6 L 36.9 27.4 L 36.3 27.4 L 36.3 26.6 C 36.3 26.6 36.26 26.57 36.3 26.6 Z M 34.8 26.9 C 35.2 26.9 35.5 26.8 35.8 26.5 C 36.1 26.2 36.3 25.8 36.3 25.3 C 36.3 25.3 36.3 25.3 36.3 25.3 C 36.3 24.9 36.1 24.5 35.8 24.2 C 35.5 23.9 35.2 23.7 34.8 23.7 C 34.4 23.7 34 23.9 33.7 24.2 C 33.5 24.4 33.3 24.8 33.3 25.3 C 33.3 25.3 33.3 25.3 33.3 25.3 C 33.3 25.8 33.5 26.2 33.7 26.5 C 34 26.8 34.4 26.9 34.8 26.9 Z M 41.2 26.7 C 40.8 27.2 40.4 27.5 39.8 27.5 C 39.3 27.5 38.9 27.3 38.6 27 C 38.3 26.7 38.2 26.3 38.2 25.8 C 38.18 25.83 38.2 23.3 38.2 23.3 L 38.8 23.3 C 38.8 23.3 38.8 25.68 38.8 25.7 C 38.8 26.1 38.9 26.4 39.1 26.6 C 39.3 26.8 39.6 26.9 39.9 26.9 C 40.3 26.9 40.6 26.8 40.8 26.6 C 41.1 26.3 41.2 26 41.2 25.6 C 41.18 25.63 41.2 23.3 41.2 23.3 L 41.8 23.3 L 41.8 27.4 L 41.2 27.4 L 41.2 26.7 C 41.2 26.7 41.18 26.68 41.2 26.7 Z M 43.1 24.1 L 43.1 23.3 L 43.9 23.3 L 43.9 24.1 L 43.1 24.1 Z M 43.1 27.4 L 43.1 26.6 L 43.9 26.6 L 43.9 27.4 L 43.1 27.4 Z M 49.2 27.4 L 49.2 25.2 L 47 21.8 L 48.5 21.8 L 49.8 24 L 51.2 21.8 L 52.6 21.8 L 50.4 25.2 L 50.4 27.4 L 49.2 27.4 Z M 53.3 27.4 L 53.3 21.8 L 54.6 21.8 L 56.1 24.2 L 57.6 21.8 L 58.9 21.8 L 58.9 27.4 L 57.7 27.4 L 57.7 23.7 L 56.1 26.1 L 56.1 26.1 L 54.5 23.8 L 54.5 27.4 L 53.3 27.4 Z M 63.4 27.4 L 63.4 23 L 62.4 23.2 L 62.2 22.2 L 63.8 21.8 L 64.6 21.8 L 64.6 27.4 L 63.4 27.4 Z M 68.3 27.5 C 67.5 27.5 66.9 27.2 66.5 26.7 C 66 26.1 65.8 25.4 65.8 24.6 C 65.8 24.6 65.8 24.6 65.8 24.6 C 65.8 23.8 66 23.1 66.5 22.5 C 67 22 67.6 21.7 68.3 21.7 C 69 21.7 69.6 22 70.1 22.5 C 70.5 23.1 70.8 23.8 70.8 24.6 C 70.8 24.6 70.8 24.6 70.8 24.6 C 70.8 25.4 70.5 26.1 70.1 26.7 C 69.6 27.2 69 27.5 68.3 27.5 Z M 67.1 24.6 C 67.1 25.1 67.2 25.5 67.4 25.9 C 67.6 26.2 67.9 26.4 68.3 26.4 C 68.7 26.4 69 26.2 69.2 25.9 C 69.4 25.6 69.5 25.1 69.5 24.6 C 69.5 24.6 69.5 24.6 69.5 24.6 C 69.5 24.1 69.4 23.7 69.2 23.3 C 68.9 23 68.6 22.8 68.3 22.8 C 67.9 22.8 67.6 23 67.4 23.3 C 67.2 23.6 67.1 24.1 67.1 24.6 C 67.06 24.58 67.1 24.6 67.1 24.6 C 67.1 24.6 67.06 24.6 67.1 24.6 Z M 74.1 27.5 C 73.4 27.5 72.8 27.2 72.3 26.7 C 71.9 26.1 71.6 25.4 71.6 24.6 C 71.6 24.6 71.6 24.6 71.6 24.6 C 71.6 23.8 71.9 23.1 72.3 22.5 C 72.8 22 73.4 21.7 74.1 21.7 C 74.9 21.7 75.5 22 75.9 22.5 C 76.4 23.1 76.6 23.8 76.6 24.6 C 76.6 24.6 76.6 24.6 76.6 24.6 C 76.6 25.4 76.4 26.1 75.9 26.7 C 75.5 27.2 74.9 27.5 74.1 27.5 Z M 72.9 24.6 C 72.9 25.1 73 25.5 73.2 25.9 C 73.5 26.2 73.8 26.4 74.1 26.4 C 74.5 26.4 74.8 26.2 75 25.9 C 75.2 25.6 75.4 25.1 75.4 24.6 C 75.4 24.6 75.4 24.6 75.4 24.6 C 75.4 24.1 75.2 23.7 75 23.3 C 74.8 23 74.5 22.8 74.1 22.8 C 73.8 22.8 73.5 23 73.2 23.3 C 73 23.6 72.9 24.1 72.9 24.6 C 72.9 24.58 72.9 24.6 72.9 24.6 C 72.9 24.6 72.9 24.6 72.9 24.6 Z M 78.3 25.9 C 78.7 26.2 79.1 26.4 79.5 26.4 C 79.8 26.4 80 26.3 80.2 26.1 C 80.3 26 80.4 25.8 80.5 25.7 C 80.6 25.5 80.6 25.3 80.6 25.1 C 80.3 25.4 80 25.5 79.5 25.5 C 78.9 25.5 78.4 25.3 78 25 C 77.7 24.7 77.5 24.2 77.5 23.7 C 77.5 23.7 77.5 23.7 77.5 23.7 C 77.5 23.1 77.7 22.6 78.1 22.3 C 78.5 21.9 79 21.7 79.6 21.7 C 80 21.7 80.3 21.8 80.6 21.8 C 80.8 21.9 81 22.1 81.2 22.3 C 81.7 22.8 81.9 23.5 81.9 24.4 C 81.9 24.4 81.9 24.4 81.9 24.4 C 81.9 25.4 81.7 26.1 81.3 26.7 C 80.8 27.2 80.2 27.5 79.5 27.5 C 78.8 27.5 78.2 27.3 77.6 26.8 C 77.62 26.83 78.3 25.9 78.3 25.9 C 78.3 25.9 78.27 25.9 78.3 25.9 Z M 79.7 24.5 C 80 24.5 80.2 24.4 80.4 24.2 C 80.6 24.1 80.7 23.9 80.7 23.6 C 80.7 23.6 80.7 23.6 80.7 23.6 C 80.7 23.4 80.6 23.2 80.4 23 C 80.2 22.8 80 22.8 79.7 22.8 C 79.4 22.8 79.1 22.8 79 23 C 78.8 23.1 78.7 23.4 78.7 23.6 C 78.7 23.6 78.7 23.6 78.7 23.6 C 78.7 23.9 78.8 24.1 79 24.2 C 79.2 24.4 79.4 24.5 79.7 24.5 Z M 85.1 27.5 C 84.4 27.5 83.8 27.3 83.4 26.9 C 83 26.5 82.8 25.7 82.8 24.8 C 82.8 24.8 82.8 24.8 82.8 24.8 C 82.8 23.9 83 23.1 83.4 22.6 C 83.8 22 84.4 21.7 85.2 21.7 C 85.9 21.7 86.5 21.9 87 22.3 C 87 22.3 86.3 23.3 86.3 23.3 C 86.1 23.1 86 23 85.8 22.9 C 85.6 22.9 85.4 22.8 85.2 22.8 C 85 22.8 84.8 22.9 84.7 23 C 84.5 23 84.4 23.2 84.3 23.3 C 84.2 23.4 84.2 23.6 84.1 23.7 C 84.1 23.8 84.1 24 84.1 24.1 C 84.4 23.9 84.8 23.8 85.2 23.8 C 85.8 23.8 86.3 23.9 86.6 24.2 C 87 24.5 87.2 25 87.2 25.5 C 87.2 25.5 87.2 25.6 87.2 25.6 C 87.2 26.1 87 26.6 86.6 27 C 86.2 27.3 85.7 27.5 85.1 27.5 Z M 84 25.6 C 84 25.9 84.1 26.1 84.3 26.2 C 84.5 26.4 84.7 26.4 85 26.4 C 85.3 26.4 85.5 26.4 85.7 26.2 C 85.9 26.1 86 25.9 86 25.6 C 86 25.6 86 25.6 86 25.6 C 86 25.4 85.9 25.2 85.7 25 C 85.5 24.9 85.3 24.8 85 24.8 C 84.7 24.8 84.5 24.9 84.3 25 C 84.1 25.2 84 25.3 84 25.6 C 84.03 25.59 84 25.6 84 25.6 C 84 25.6 84.03 25.61 84 25.6 Z M 89.8 28.4 L 93.4 21 L 94.4 21 L 90.8 28.4 L 89.8 28.4 Z M 98.9 27.4 L 98.9 25.2 L 96.8 21.8 L 98.2 21.8 L 99.6 24 L 100.9 21.8 L 102.3 21.8 L 100.2 25.2 L 100.2 27.4 L 98.9 27.4 Z M 103.1 27.4 L 103.1 21.8 L 104.4 21.8 L 105.9 24.2 L 107.4 21.8 L 108.7 21.8 L 108.7 27.4 L 107.5 27.4 L 107.5 23.7 L 105.9 26.1 L 105.8 26.1 L 104.3 23.8 L 104.3 27.4 L 103.1 27.4 Z M 113.2 27.4 L 113.2 23 L 112.2 23.2 L 111.9 22.2 L 113.6 21.8 L 114.4 21.8 L 114.4 27.4 L 113.2 27.4 Z M 118 27.5 C 117.3 27.5 116.7 27.2 116.2 26.7 C 115.8 26.1 115.6 25.4 115.6 24.6 C 115.6 24.6 115.6 24.6 115.6 24.6 C 115.6 23.8 115.8 23.1 116.3 22.5 C 116.7 22 117.3 21.7 118.1 21.7 C 118.8 21.7 119.4 22 119.8 22.5 C 120.3 23.1 120.5 23.8 120.5 24.6 C 120.5 24.6 120.5 24.6 120.5 24.6 C 120.5 25.4 120.3 26.1 119.8 26.7 C 119.4 27.2 118.8 27.5 118 27.5 Z M 116.8 24.6 C 116.8 25.1 116.9 25.5 117.2 25.9 C 117.4 26.2 117.7 26.4 118.1 26.4 C 118.4 26.4 118.7 26.2 118.9 25.9 C 119.2 25.6 119.3 25.1 119.3 24.6 C 119.3 24.6 119.3 24.6 119.3 24.6 C 119.3 24.1 119.2 23.7 118.9 23.3 C 118.7 23 118.4 22.8 118 22.8 C 117.7 22.8 117.4 23 117.2 23.3 C 116.9 23.6 116.8 24.1 116.8 24.6 C 116.82 24.58 116.8 24.6 116.8 24.6 C 116.8 24.6 116.82 24.6 116.8 24.6 Z M 123.9 27.5 C 123.1 27.5 122.5 27.2 122.1 26.7 C 121.6 26.1 121.4 25.4 121.4 24.6 C 121.4 24.6 121.4 24.6 121.4 24.6 C 121.4 23.8 121.6 23.1 122.1 22.5 C 122.6 22 123.2 21.7 123.9 21.7 C 124.6 21.7 125.2 22 125.7 22.5 C 126.1 23.1 126.4 23.8 126.4 24.6 C 126.4 24.6 126.4 24.6 126.4 24.6 C 126.4 25.4 126.1 26.1 125.7 26.7 C 125.2 27.2 124.6 27.5 123.9 27.5 Z M 122.7 24.6 C 122.7 25.1 122.8 25.5 123 25.9 C 123.2 26.2 123.5 26.4 123.9 26.4 C 124.3 26.4 124.6 26.2 124.8 25.9 C 125 25.6 125.1 25.1 125.1 24.6 C 125.1 24.6 125.1 24.6 125.1 24.6 C 125.1 24.1 125 23.7 124.8 23.3 C 124.5 23 124.2 22.8 123.9 22.8 C 123.5 22.8 123.2 23 123 23.3 C 122.8 23.6 122.7 24.1 122.7 24.6 C 122.66 24.58 122.7 24.6 122.7 24.6 C 122.7 24.6 122.66 24.6 122.7 24.6 Z M 128 25.9 C 128.4 26.2 128.8 26.4 129.3 26.4 C 129.5 26.4 129.7 26.3 129.9 26.1 C 130.1 26 130.2 25.8 130.3 25.7 C 130.3 25.5 130.4 25.3 130.4 25.1 C 130.1 25.4 129.7 25.5 129.3 25.5 C 128.6 25.5 128.2 25.3 127.8 25 C 127.4 24.7 127.3 24.2 127.3 23.7 C 127.3 23.7 127.3 23.7 127.3 23.7 C 127.3 23.1 127.5 22.6 127.9 22.3 C 128.2 21.9 128.8 21.7 129.4 21.7 C 129.8 21.7 130.1 21.8 130.3 21.8 C 130.6 21.9 130.8 22.1 131 22.3 C 131.4 22.8 131.7 23.5 131.7 24.4 C 131.7 24.4 131.7 24.4 131.7 24.4 C 131.7 25.4 131.5 26.1 131 26.7 C 130.6 27.2 130 27.5 129.2 27.5 C 128.5 27.5 127.9 27.3 127.4 26.8 C 127.38 26.83 128 25.9 128 25.9 C 128 25.9 128.03 25.9 128 25.9 Z M 129.5 24.5 C 129.8 24.5 130 24.4 130.2 24.2 C 130.3 24.1 130.4 23.9 130.4 23.6 C 130.4 23.6 130.4 23.6 130.4 23.6 C 130.4 23.4 130.3 23.2 130.2 23 C 130 22.8 129.7 22.8 129.4 22.8 C 129.1 22.8 128.9 22.8 128.7 23 C 128.6 23.1 128.5 23.4 128.5 23.6 C 128.5 23.6 128.5 23.6 128.5 23.6 C 128.5 23.9 128.6 24.1 128.7 24.2 C 128.9 24.4 129.2 24.5 129.5 24.5 Z M 132.7 27.4 L 135.2 22.9 L 132.6 22.9 L 132.6 21.8 L 136.6 21.8 L 136.6 22.7 L 134.1 27.4 L 132.7 27.4 Z " stroke="none" fill="#000"/>  </g>  <g id="Polygon359481">    <path d="M 0.7 13.4 L 0.7 7.8 L 2 7.8 L 3.5 10.2 L 4.9 7.8 L 6.3 7.8 L 6.3 13.4 L 5 13.4 L 5 9.7 L 3.5 12.1 L 3.4 12.1 L 1.9 9.8 L 1.9 13.4 L 0.7 13.4 Z M 10 12.9 C 9.7 13.3 9.2 13.5 8.7 13.5 C 8.3 13.5 7.9 13.4 7.7 13.1 C 7.4 12.9 7.2 12.6 7.2 12.2 C 7.2 12.2 7.2 12.2 7.2 12.2 C 7.2 11.7 7.4 11.4 7.7 11.1 C 8 10.9 8.4 10.8 9 10.8 C 9.3 10.8 9.7 10.8 10 11 C 10 11 10 10.9 10 10.9 C 10 10.4 9.7 10.1 9.1 10.1 C 8.7 10.1 8.3 10.2 7.9 10.3 C 7.9 10.3 7.6 9.4 7.6 9.4 C 8.1 9.2 8.7 9.1 9.3 9.1 C 9.9 9.1 10.4 9.2 10.7 9.5 C 11 9.9 11.2 10.3 11.2 10.9 C 11.18 10.91 11.2 13.4 11.2 13.4 L 10 13.4 L 10 12.9 C 10 12.9 10 12.94 10 12.9 Z M 9.1 12.6 C 9.4 12.6 9.6 12.6 9.8 12.4 C 9.9 12.3 10 12.1 10 11.9 C 10 11.9 10 11.7 10 11.7 C 9.8 11.6 9.5 11.5 9.2 11.5 C 9 11.5 8.8 11.6 8.6 11.7 C 8.5 11.8 8.4 11.9 8.4 12.1 C 8.4 12.1 8.4 12.1 8.4 12.1 C 8.4 12.3 8.5 12.4 8.6 12.5 C 8.7 12.6 8.9 12.6 9.1 12.6 Z M 12.2 13.4 L 12.2 9.1 L 13.4 9.1 C 13.4 9.1 13.44 9.72 13.4 9.7 C 13.8 9.3 14.2 9 14.7 9 C 15.2 9 15.5 9.2 15.8 9.5 C 16 9.7 16.2 10.1 16.2 10.6 C 16.15 10.62 16.2 13.4 16.2 13.4 L 14.9 13.4 C 14.9 13.4 14.94 11.01 14.9 11 C 14.9 10.4 14.7 10.1 14.2 10.1 C 14 10.1 13.8 10.2 13.6 10.4 C 13.5 10.5 13.4 10.7 13.4 11 C 13.44 11.01 13.4 13.4 13.4 13.4 L 12.2 13.4 Z M 19 12 L 19.9 9.1 L 21.2 9.1 C 21.2 9.1 19.52 13.5 19.5 13.5 C 19.4 13.9 19.2 14.3 19 14.4 C 18.8 14.6 18.5 14.7 18.1 14.7 C 17.7 14.7 17.4 14.6 17 14.4 C 17 14.4 17.4 13.5 17.4 13.5 C 17.6 13.6 17.8 13.7 18 13.7 C 18.1 13.7 18.2 13.7 18.2 13.6 C 18.3 13.6 18.3 13.5 18.4 13.4 C 18.38 13.42 16.7 9.1 16.7 9.1 L 18 9.1 L 19 12 Z M 25.4 12.7 C 25 13.2 24.4 13.5 23.7 13.5 C 23 13.5 22.5 13.3 22.1 12.9 C 21.7 12.5 21.4 11.9 21.4 11.3 C 21.4 11.3 21.4 11.3 21.4 11.3 C 21.4 10.6 21.6 10.1 22 9.7 C 22.4 9.2 22.9 9 23.6 9 C 24.2 9 24.8 9.3 25.1 9.7 C 25.5 10.2 25.6 10.7 25.6 11.4 C 25.6 11.4 25.6 11.5 25.6 11.7 C 25.6 11.7 22.6 11.7 22.6 11.7 C 22.7 12 22.8 12.2 23 12.3 C 23.2 12.4 23.4 12.5 23.7 12.5 C 24.1 12.5 24.4 12.4 24.7 12.1 C 24.74 12.08 25.4 12.7 25.4 12.7 C 25.4 12.7 25.43 12.7 25.4 12.7 Z M 22.6 10.9 C 22.6 10.9 24.5 10.9 24.5 10.9 C 24.4 10.6 24.3 10.4 24.2 10.3 C 24 10.1 23.8 10 23.6 10 C 23.3 10 23.1 10.1 22.9 10.3 C 22.8 10.4 22.7 10.6 22.6 10.9 Z M 29 13.2 C 28.7 13.4 28.4 13.5 28 13.5 C 27.6 13.5 27.3 13.4 27.1 13.2 C 26.9 13 26.8 12.7 26.8 12.2 C 26.75 12.18 26.8 10.2 26.8 10.2 L 26.2 10.2 L 26.2 9.1 L 26.8 9.1 L 26.8 8 L 28 8 L 28 9.1 L 29 9.1 L 29 10.2 L 28 10.2 C 28 10.2 27.97 11.98 28 12 C 28 12.3 28.1 12.4 28.4 12.4 C 28.6 12.4 28.8 12.3 29 12.2 C 28.96 12.25 29 13.2 29 13.2 C 29 13.2 28.96 13.22 29 13.2 Z M 29.9 8.6 L 29.9 7.6 L 31.2 7.6 L 31.2 8.6 L 29.9 8.6 Z M 29.9 13.4 L 29.9 9.1 L 31.1 9.1 L 31.1 13.4 L 29.9 13.4 Z M 32.3 13.4 L 32.3 7.6 L 33.5 7.6 L 33.5 10.7 L 34.9 9.1 L 36.4 9.1 L 34.8 10.8 L 36.4 13.4 L 35 13.4 L 33.9 11.6 L 33.5 12.1 L 33.5 13.4 L 32.3 13.4 Z M 41.9 14.8 L 40.8 14.4 C 40.8 14.4 41.49 13.42 41.5 13.4 C 40.8 13.3 40.3 12.9 39.9 12.4 C 39.5 11.9 39.3 11.3 39.3 10.6 C 39.3 10.6 39.3 10.6 39.3 10.6 C 39.3 9.8 39.6 9.1 40.1 8.5 C 40.7 8 41.4 7.7 42.2 7.7 C 43.1 7.7 43.9 8 44.4 8.6 C 44.4 8.6 43.6 9.5 43.6 9.5 C 43.2 9.1 42.7 8.8 42.2 8.8 C 41.8 8.8 41.4 9 41.1 9.3 C 40.7 9.7 40.6 10.1 40.6 10.6 C 40.6 10.6 40.6 10.6 40.6 10.6 C 40.6 11.1 40.7 11.5 41.1 11.8 C 41.4 12.2 41.7 12.4 42.2 12.4 C 42.5 12.4 42.8 12.3 43 12.2 C 43.2 12.1 43.4 11.9 43.7 11.7 C 43.7 11.7 44.5 12.5 44.5 12.5 C 43.9 13.1 43.2 13.5 42.4 13.5 C 42.38 13.49 41.9 14.8 41.9 14.8 Z M 49 12.7 C 48.6 13.2 48 13.5 47.3 13.5 C 46.6 13.5 46.1 13.3 45.7 12.9 C 45.2 12.5 45 11.9 45 11.3 C 45 11.3 45 11.3 45 11.3 C 45 10.6 45.2 10.1 45.6 9.7 C 46 9.2 46.5 9 47.2 9 C 47.8 9 48.4 9.3 48.7 9.7 C 49.1 10.2 49.2 10.7 49.2 11.4 C 49.2 11.4 49.2 11.5 49.2 11.7 C 49.2 11.7 46.2 11.7 46.2 11.7 C 46.3 12 46.4 12.2 46.6 12.3 C 46.8 12.4 47 12.5 47.3 12.5 C 47.7 12.5 48 12.4 48.3 12.1 C 48.34 12.08 49 12.7 49 12.7 C 49 12.7 49.03 12.7 49 12.7 Z M 46.2 10.9 C 46.2 10.9 48.1 10.9 48.1 10.9 C 48 10.6 47.9 10.4 47.8 10.3 C 47.6 10.1 47.4 10 47.2 10 C 46.9 10 46.7 10.1 46.5 10.3 C 46.4 10.4 46.3 10.6 46.2 10.9 Z M 50.2 13.4 L 50.2 7.6 L 51.4 7.6 L 51.4 13.4 L 50.2 13.4 Z M 52.6 8.6 L 52.6 7.6 L 53.9 7.6 L 53.9 8.6 L 52.6 8.6 Z M 52.6 13.4 L 52.6 9.1 L 53.8 9.1 L 53.8 13.4 L 52.6 13.4 Z M 55 13.4 L 55 7.6 L 56.2 7.6 L 56.2 10.7 L 57.6 9.1 L 59.1 9.1 L 57.4 10.8 L 59.1 13.4 L 57.7 13.4 L 56.6 11.6 L 56.2 12.1 L 56.2 13.4 L 55 13.4 Z M 62.2 13.4 L 62.2 7.8 C 62.2 7.8 64.43 7.8 64.4 7.8 C 65.3 7.8 66 8.1 66.6 8.6 C 67.1 9.1 67.4 9.8 67.4 10.6 C 67.4 10.6 67.4 10.6 67.4 10.6 C 67.4 11.4 67.1 12.1 66.6 12.6 C 66 13.1 65.3 13.4 64.4 13.4 C 64.43 13.4 62.2 13.4 62.2 13.4 Z M 64.4 8.9 C 64.43 8.91 63.5 8.9 63.5 8.9 L 63.5 12.3 C 63.5 12.3 64.43 12.29 64.4 12.3 C 64.9 12.3 65.3 12.1 65.7 11.8 C 66 11.5 66.1 11.1 66.1 10.6 C 66.1 10.6 66.1 10.6 66.1 10.6 C 66.1 10.1 66 9.7 65.7 9.4 C 65.3 9.1 64.9 8.9 64.4 8.9 Z M 71.1 12.8 C 70.7 13.3 70.3 13.5 69.8 13.5 C 69.3 13.5 69 13.3 68.7 13.1 C 68.5 12.8 68.3 12.4 68.3 11.9 C 68.34 11.89 68.3 9.1 68.3 9.1 L 69.6 9.1 C 69.6 9.1 69.56 11.5 69.6 11.5 C 69.6 12.1 69.8 12.4 70.3 12.4 C 70.5 12.4 70.7 12.3 70.9 12.2 C 71 12 71.1 11.8 71.1 11.5 C 71.05 11.5 71.1 9.1 71.1 9.1 L 72.3 9.1 L 72.3 13.4 L 71.1 13.4 L 71.1 12.8 C 71.1 12.8 71.05 12.79 71.1 12.8 Z M 70.6 8.6 L 70.6 7.6 L 71.7 7.6 L 71.7 8.6 L 70.6 8.6 Z M 68.9 8.6 L 68.9 7.6 L 70.1 7.6 L 70.1 8.6 L 68.9 8.6 Z M 73.2 13.4 L 73.2 12.5 L 75.4 10.1 L 73.3 10.1 L 73.3 9.1 L 76.9 9.1 L 76.9 10 L 74.7 12.4 L 76.9 12.4 L 76.9 13.4 L 73.2 13.4 Z M 81.5 12.7 C 81.1 13.2 80.5 13.5 79.8 13.5 C 79.1 13.5 78.6 13.3 78.2 12.9 C 77.7 12.5 77.5 11.9 77.5 11.3 C 77.5 11.3 77.5 11.3 77.5 11.3 C 77.5 10.6 77.7 10.1 78.1 9.7 C 78.5 9.2 79 9 79.7 9 C 80.3 9 80.8 9.3 81.2 9.7 C 81.6 10.2 81.7 10.7 81.7 11.4 C 81.7 11.4 81.7 11.5 81.7 11.7 C 81.7 11.7 78.7 11.7 78.7 11.7 C 78.8 12 78.9 12.2 79.1 12.3 C 79.3 12.4 79.5 12.5 79.8 12.5 C 80.2 12.5 80.5 12.4 80.8 12.1 C 80.83 12.08 81.5 12.7 81.5 12.7 C 81.5 12.7 81.53 12.7 81.5 12.7 Z M 78.7 10.9 C 78.7 10.9 80.6 10.9 80.6 10.9 C 80.5 10.6 80.4 10.4 80.3 10.3 C 80.1 10.1 79.9 10 79.7 10 C 79.4 10 79.2 10.1 79 10.3 C 78.9 10.4 78.8 10.6 78.7 10.9 Z M 82.6 13.4 L 82.6 9.1 L 83.9 9.1 C 83.9 9.1 83.86 9.72 83.9 9.7 C 84.2 9.3 84.6 9 85.1 9 C 85.6 9 85.9 9.2 86.2 9.5 C 86.4 9.7 86.6 10.1 86.6 10.6 C 86.57 10.62 86.6 13.4 86.6 13.4 L 85.4 13.4 C 85.4 13.4 85.36 11.01 85.4 11 C 85.4 10.4 85.1 10.1 84.6 10.1 C 84.4 10.1 84.2 10.2 84.1 10.4 C 83.9 10.5 83.9 10.7 83.9 11 C 83.86 11.01 83.9 13.4 83.9 13.4 L 82.6 13.4 Z M 87.7 13.4 L 87.7 7.6 L 88.9 7.6 L 88.9 13.4 L 87.7 13.4 Z M 93.8 12.7 C 93.4 13.2 92.8 13.5 92.1 13.5 C 91.4 13.5 90.9 13.3 90.5 12.9 C 90 12.5 89.8 11.9 89.8 11.3 C 89.8 11.3 89.8 11.3 89.8 11.3 C 89.8 10.6 90 10.1 90.4 9.7 C 90.8 9.2 91.3 9 92 9 C 92.6 9 93.2 9.3 93.5 9.7 C 93.9 10.2 94 10.7 94 11.4 C 94 11.4 94 11.5 94 11.7 C 94 11.7 91 11.7 91 11.7 C 91.1 12 91.2 12.2 91.4 12.3 C 91.6 12.4 91.8 12.5 92.1 12.5 C 92.5 12.5 92.8 12.4 93.1 12.1 C 93.13 12.08 93.8 12.7 93.8 12.7 C 93.8 12.7 93.83 12.7 93.8 12.7 Z M 91 10.9 C 91 10.9 92.9 10.9 92.9 10.9 C 92.8 10.6 92.7 10.4 92.6 10.3 C 92.4 10.1 92.2 10 92 10 C 91.7 10 91.5 10.1 91.3 10.3 C 91.2 10.4 91.1 10.6 91 10.9 Z M 96.6 12 L 97.6 9.1 L 98.8 9.1 C 98.8 9.1 97.18 13.5 97.2 13.5 C 97 13.9 96.8 14.3 96.6 14.4 C 96.4 14.6 96.1 14.7 95.8 14.7 C 95.4 14.7 95 14.6 94.7 14.4 C 94.7 14.4 95.1 13.5 95.1 13.5 C 95.3 13.6 95.5 13.7 95.6 13.7 C 95.7 13.7 95.8 13.7 95.9 13.6 C 95.9 13.6 96 13.5 96 13.4 C 96.05 13.42 94.4 9.1 94.4 9.1 L 95.7 9.1 L 96.6 12 Z M 99.6 8.6 L 99.6 7.6 L 100.9 7.6 L 100.9 8.6 L 99.6 8.6 Z M 99.6 13.4 L 99.6 9.1 L 100.8 9.1 L 100.8 13.4 L 99.6 13.4 Z M 104 13.5 C 103.4 13.5 102.8 13.3 102.4 12.8 C 102 12.4 101.8 11.9 101.8 11.3 C 101.8 11.3 101.8 11.3 101.8 11.3 C 101.8 10.6 102 10.1 102.4 9.7 C 102.8 9.2 103.4 9 104 9 C 104.7 9 105.3 9.3 105.7 9.8 C 105.7 9.8 105 10.6 105 10.6 C 104.8 10.4 104.7 10.3 104.5 10.2 C 104.4 10.1 104.2 10.1 104 10.1 C 103.7 10.1 103.5 10.2 103.3 10.4 C 103.1 10.6 103 10.9 103 11.2 C 103 11.2 103 11.3 103 11.3 C 103 11.6 103.1 11.9 103.3 12.1 C 103.5 12.3 103.7 12.4 104 12.4 C 104.4 12.4 104.7 12.3 105 12 C 105 12 105.7 12.7 105.7 12.7 C 105.5 13 105.3 13.2 105 13.3 C 104.7 13.4 104.4 13.5 104 13.5 Z M 106.6 8.6 L 106.6 7.6 L 107.8 7.6 L 107.8 8.6 L 106.6 8.6 Z M 106.6 13.4 L 106.6 9.1 L 107.8 9.1 L 107.8 13.4 L 106.6 13.4 Z " stroke="none" fill="#000"/>  </g></svg>