<?xml version="1.0" standalone="no"?><!DOCTYPE svg PUBLIC "-//W3C//DTD SVG 1.1//EN" "http://www.w3.org/Graphics/SVG/1.1/DTD/svg11.dtd"><svg xmlns="http://www.w3.org/2000/svg" version="1.1" width="173px" height="62.6px" viewBox="0 -3 173 62.6" style="top:-3px">  <desc>Yar Kapal Depolama Arabas r n Kodu: YM 4306 / YM 4307 l ler: 68 cm</desc>  <defs/>  <g id="Polygon358403">    <path d="M 3.8 35.2 L 3.8 34.5 L 4.5 34.5 L 4.5 35.2 L 3.8 35.2 Z M 2.3 35.2 L 2.3 34.5 L 3 34.5 L 3 35.2 L 2.3 35.2 Z M 6.3 38.6 C 6.3 39.4 6 40.1 5.4 40.6 C 4.9 41.2 4.2 41.5 3.4 41.5 C 2.6 41.5 1.9 41.2 1.3 40.7 C 0.8 40.1 0.5 39.4 0.5 38.6 C 0.5 38.6 0.5 38.6 0.5 38.6 C 0.5 37.8 0.8 37.1 1.4 36.6 C 1.9 36 2.6 35.7 3.4 35.7 C 4.2 35.7 4.9 36 5.5 36.5 C 6 37.1 6.3 37.8 6.3 38.6 C 6.26 38.58 6.3 38.6 6.3 38.6 C 6.3 38.6 6.26 38.6 6.3 38.6 Z M 1.2 38.6 C 1.2 39.2 1.4 39.8 1.8 40.2 C 2.2 40.7 2.8 40.9 3.4 40.9 C 4 40.9 4.6 40.7 5 40.2 C 5.4 39.8 5.6 39.3 5.6 38.6 C 5.6 38.6 5.6 38.6 5.6 38.6 C 5.6 38 5.4 37.4 5 37 C 4.6 36.5 4 36.3 3.4 36.3 C 2.8 36.3 2.2 36.5 1.8 37 C 1.4 37.4 1.2 37.9 1.2 38.6 C 1.2 38.58 1.2 38.6 1.2 38.6 C 1.2 38.6 1.2 38.6 1.2 38.6 Z M 7.5 41.4 L 7.5 35.6 L 8.2 35.6 L 8.2 41.4 L 7.5 41.4 Z M 11 42.6 L 10.4 42.4 C 10.4 42.4 11.07 41.46 11.1 41.5 C 10.6 41.4 10.2 41.1 9.8 40.7 C 9.5 40.3 9.3 39.9 9.3 39.4 C 9.3 39.4 9.3 39.3 9.3 39.3 C 9.3 38.7 9.5 38.2 9.9 37.8 C 10.3 37.4 10.9 37.2 11.5 37.2 C 12.1 37.2 12.6 37.4 13.1 37.9 C 13.1 37.9 12.7 38.3 12.7 38.3 C 12.3 37.9 11.9 37.7 11.4 37.7 C 11 37.7 10.7 37.9 10.4 38.2 C 10.1 38.5 10 38.9 10 39.3 C 10 39.3 10 39.3 10 39.3 C 10 39.8 10.1 40.2 10.4 40.5 C 10.7 40.8 11.1 40.9 11.5 40.9 C 11.9 40.9 12.4 40.7 12.8 40.3 C 12.8 40.3 13.1 40.7 13.1 40.7 C 12.7 41.2 12.2 41.5 11.6 41.5 C 11.58 41.49 11 42.6 11 42.6 Z M 16.2 36.6 L 16.2 35.9 L 16.9 35.9 L 16.9 36.6 L 16.2 36.6 Z M 14.8 36.6 L 14.8 35.9 L 15.5 35.9 L 15.5 36.6 L 14.8 36.6 Z M 17.1 40.7 C 16.7 41.2 16.3 41.5 15.6 41.5 C 15.2 41.5 14.8 41.3 14.5 41 C 14.2 40.7 14.1 40.3 14.1 39.8 C 14.06 39.83 14.1 37.3 14.1 37.3 L 14.7 37.3 C 14.7 37.3 14.68 39.68 14.7 39.7 C 14.7 40.1 14.8 40.4 15 40.6 C 15.2 40.8 15.5 40.9 15.8 40.9 C 16.2 40.9 16.5 40.8 16.7 40.6 C 16.9 40.3 17.1 40 17.1 39.6 C 17.06 39.63 17.1 37.3 17.1 37.3 L 17.7 37.3 L 17.7 41.4 L 17.1 41.4 L 17.1 40.7 C 17.1 40.7 17.06 40.68 17.1 40.7 Z M 19.1 41.4 L 19.1 35.6 L 19.7 35.6 L 19.7 41.4 L 19.1 41.4 Z M 24.7 40.7 C 24.2 41.2 23.7 41.5 23 41.5 C 22.4 41.5 21.9 41.3 21.5 40.9 C 21.1 40.5 20.9 40 20.9 39.3 C 20.9 39.3 20.9 39.3 20.9 39.3 C 20.9 38.7 21.1 38.2 21.5 37.8 C 21.8 37.4 22.3 37.2 22.9 37.2 C 23.5 37.2 23.9 37.4 24.3 37.8 C 24.6 38.2 24.8 38.7 24.8 39.4 C 24.8 39.4 24.8 39.5 24.8 39.6 C 24.8 39.6 21.5 39.6 21.5 39.6 C 21.6 40 21.7 40.3 22 40.6 C 22.3 40.8 22.6 41 23 41 C 23.5 41 23.9 40.8 24.3 40.4 C 24.29 40.38 24.7 40.7 24.7 40.7 C 24.7 40.7 24.67 40.72 24.7 40.7 Z M 21.5 39.1 C 21.5 39.1 24.2 39.1 24.2 39.1 C 24.2 38.7 24 38.4 23.8 38.1 C 23.6 37.8 23.3 37.7 22.9 37.7 C 22.5 37.7 22.2 37.8 22 38.1 C 21.7 38.4 21.6 38.7 21.5 39.1 Z M 25.9 41.4 L 25.9 37.3 L 26.5 37.3 C 26.5 37.3 26.51 38.34 26.5 38.3 C 26.7 38 26.9 37.7 27.2 37.5 C 27.5 37.3 27.8 37.2 28.2 37.2 C 28.2 37.19 28.2 37.9 28.2 37.9 C 28.2 37.9 28.15 37.86 28.2 37.9 C 27.7 37.9 27.3 38 27 38.4 C 26.7 38.7 26.5 39.1 26.5 39.8 C 26.51 39.75 26.5 41.4 26.5 41.4 L 25.9 41.4 Z M 29.1 38.1 L 29.1 37.3 L 29.8 37.3 L 29.8 38.1 L 29.1 38.1 Z M 29.1 41.4 L 29.1 40.6 L 29.8 40.6 L 29.8 41.4 L 29.1 41.4 Z M 35.5 41.5 C 34.9 41.5 34.5 41.3 34.1 40.9 C 33.8 40.7 33.7 40.4 33.5 40.1 C 33.4 39.7 33.4 39.3 33.4 38.8 C 33.4 38.8 33.4 38.7 33.4 38.7 C 33.4 37.9 33.6 37.1 34 36.6 C 34.4 36 35 35.7 35.7 35.7 C 36.3 35.7 36.8 35.9 37.4 36.3 C 37.4 36.3 37 36.8 37 36.8 C 36.5 36.5 36.1 36.3 35.7 36.3 C 35.1 36.3 34.7 36.5 34.5 37 C 34.2 37.4 34 38 34 38.7 C 34 38.7 34 38.8 34 38.8 C 34.4 38.2 34.9 37.9 35.6 37.9 C 36.2 37.9 36.6 38.1 37 38.4 C 37.4 38.7 37.6 39.1 37.6 39.6 C 37.6 39.6 37.6 39.6 37.6 39.6 C 37.6 40.2 37.4 40.6 37 41 C 36.6 41.3 36.1 41.5 35.5 41.5 Z M 35.6 40.9 C 36 40.9 36.3 40.8 36.5 40.6 C 36.8 40.3 36.9 40 36.9 39.7 C 36.9 39.7 36.9 39.6 36.9 39.6 C 36.9 39.3 36.8 39 36.5 38.8 C 36.3 38.6 35.9 38.4 35.5 38.4 C 35.1 38.4 34.8 38.6 34.5 38.8 C 34.3 39.1 34.1 39.3 34.1 39.7 C 34.1 39.7 34.1 39.7 34.1 39.7 C 34.1 40 34.3 40.3 34.5 40.6 C 34.8 40.8 35.1 40.9 35.6 40.9 Z M 42.7 39.9 C 42.7 40.4 42.5 40.7 42.1 41 C 41.7 41.3 41.2 41.5 40.6 41.5 C 40 41.5 39.5 41.3 39.1 41 C 38.7 40.7 38.5 40.4 38.5 39.9 C 38.5 39.9 38.5 39.9 38.5 39.9 C 38.5 39.6 38.6 39.3 38.8 39.1 C 39 38.8 39.3 38.6 39.6 38.5 C 39 38.2 38.7 37.8 38.7 37.2 C 38.7 37.2 38.7 37.2 38.7 37.2 C 38.7 36.8 38.9 36.4 39.2 36.1 C 39.6 35.9 40.1 35.7 40.6 35.7 C 41.1 35.7 41.5 35.9 41.9 36.1 C 42.3 36.4 42.5 36.8 42.5 37.2 C 42.5 37.2 42.5 37.2 42.5 37.2 C 42.5 37.8 42.2 38.2 41.5 38.5 C 41.9 38.6 42.2 38.8 42.4 39 C 42.6 39.3 42.7 39.6 42.7 39.9 C 42.68 39.87 42.7 39.9 42.7 39.9 C 42.7 39.9 42.68 39.89 42.7 39.9 Z M 39.3 37.3 C 39.3 37.6 39.4 37.8 39.7 38 C 39.9 38.2 40.2 38.3 40.6 38.3 C 40.9 38.3 41.2 38.2 41.5 38 C 41.7 37.8 41.9 37.6 41.9 37.3 C 41.9 37.3 41.9 37.2 41.9 37.2 C 41.9 37 41.7 36.7 41.5 36.5 C 41.2 36.4 40.9 36.3 40.6 36.3 C 40.2 36.3 39.9 36.4 39.7 36.5 C 39.4 36.7 39.3 37 39.3 37.2 C 39.3 37.24 39.3 37.3 39.3 37.3 C 39.3 37.3 39.3 37.26 39.3 37.3 Z M 39.1 39.9 C 39.1 40.2 39.2 40.4 39.5 40.6 C 39.8 40.8 40.1 40.9 40.6 40.9 C 41 40.9 41.4 40.8 41.6 40.6 C 41.9 40.4 42 40.2 42 39.9 C 42 39.9 42 39.9 42 39.9 C 42 39.6 41.9 39.3 41.6 39.1 C 41.3 38.9 41 38.8 40.6 38.8 C 40.2 38.8 39.8 38.9 39.5 39.1 C 39.3 39.3 39.1 39.6 39.1 39.9 C 39.11 39.86 39.1 39.9 39.1 39.9 C 39.1 39.9 39.11 39.88 39.1 39.9 Z M 49.7 40.7 C 49.3 41.2 48.7 41.5 48 41.5 C 47.4 41.5 46.9 41.3 46.5 40.9 C 46.1 40.4 45.9 39.9 45.9 39.4 C 45.9 39.4 45.9 39.3 45.9 39.3 C 45.9 38.7 46.1 38.2 46.5 37.8 C 46.9 37.4 47.4 37.2 48 37.2 C 48.7 37.2 49.2 37.4 49.7 37.9 C 49.7 37.9 49.3 38.3 49.3 38.3 C 48.9 37.9 48.5 37.7 48 37.7 C 47.6 37.7 47.3 37.9 47 38.2 C 46.7 38.5 46.6 38.9 46.6 39.3 C 46.6 39.3 46.6 39.3 46.6 39.3 C 46.6 39.8 46.7 40.2 47 40.5 C 47.3 40.8 47.6 40.9 48.1 40.9 C 48.5 40.9 49 40.7 49.3 40.3 C 49.34 40.33 49.7 40.7 49.7 40.7 C 49.7 40.7 49.74 40.7 49.7 40.7 Z M 50.8 41.4 L 50.8 37.3 L 51.4 37.3 C 51.4 37.3 51.37 37.96 51.4 38 C 51.5 37.7 51.7 37.5 51.9 37.4 C 52.1 37.2 52.4 37.2 52.7 37.2 C 53.3 37.2 53.8 37.5 54 38 C 54.4 37.5 54.9 37.2 55.5 37.2 C 56 37.2 56.3 37.3 56.6 37.6 C 56.9 37.9 57 38.3 57 38.8 C 57.02 38.84 57 41.4 57 41.4 L 56.4 41.4 C 56.4 41.4 56.41 38.98 56.4 39 C 56.4 38.6 56.3 38.3 56.1 38.1 C 55.9 37.8 55.7 37.7 55.3 37.7 C 55 37.7 54.7 37.9 54.5 38.1 C 54.3 38.3 54.2 38.6 54.2 39 C 54.19 39.02 54.2 41.4 54.2 41.4 L 53.6 41.4 C 53.6 41.4 53.58 38.97 53.6 39 C 53.6 38.6 53.5 38.3 53.3 38.1 C 53.1 37.8 52.8 37.7 52.5 37.7 C 52.2 37.7 51.9 37.9 51.7 38.1 C 51.5 38.3 51.4 38.7 51.4 39 C 51.37 39.04 51.4 41.4 51.4 41.4 L 50.8 41.4 Z " stroke="none" fill="#000"/>  </g>  <g id="Polygon358402">    <path d="M 3.4 21.3 L 3.4 20.6 L 4.2 20.6 L 4.2 21.3 L 3.4 21.3 Z M 1.9 21.3 L 1.9 20.6 L 2.7 20.6 L 2.7 21.3 L 1.9 21.3 Z M 3 27.5 C 2.3 27.5 1.8 27.3 1.3 26.9 C 0.9 26.4 0.7 25.8 0.7 25.1 C 0.7 25.06 0.7 21.8 0.7 21.8 L 1.3 21.8 C 1.3 21.8 1.34 25.02 1.3 25 C 1.3 25.6 1.5 26.1 1.8 26.4 C 2.1 26.7 2.5 26.9 3 26.9 C 3.6 26.9 4 26.7 4.3 26.4 C 4.6 26.1 4.7 25.7 4.7 25.1 C 4.74 25.06 4.7 21.8 4.7 21.8 L 5.4 21.8 C 5.4 21.8 5.37 25.01 5.4 25 C 5.4 25.8 5.2 26.4 4.7 26.8 C 4.3 27.3 3.8 27.5 3 27.5 Z M 6.8 27.4 L 6.8 23.3 L 7.4 23.3 C 7.4 23.3 7.38 24.34 7.4 24.3 C 7.5 24 7.8 23.7 8.1 23.5 C 8.3 23.3 8.7 23.2 9.1 23.2 C 9.06 23.19 9.1 23.9 9.1 23.9 C 9.1 23.9 9.02 23.86 9 23.9 C 8.5 23.9 8.1 24 7.8 24.4 C 7.5 24.7 7.4 25.1 7.4 25.8 C 7.38 25.75 7.4 27.4 7.4 27.4 L 6.8 27.4 Z M 12.1 22.6 L 12.1 21.9 L 12.8 21.9 L 12.8 22.6 L 12.1 22.6 Z M 10.7 22.6 L 10.7 21.9 L 11.4 21.9 L 11.4 22.6 L 10.7 22.6 Z M 12.9 26.7 C 12.6 27.2 12.1 27.5 11.5 27.5 C 11 27.5 10.6 27.3 10.4 27 C 10.1 26.7 9.9 26.3 9.9 25.8 C 9.94 25.83 9.9 23.3 9.9 23.3 L 10.6 23.3 C 10.6 23.3 10.55 25.68 10.6 25.7 C 10.6 26.1 10.7 26.4 10.9 26.6 C 11.1 26.8 11.3 26.9 11.7 26.9 C 12.1 26.9 12.3 26.8 12.6 26.6 C 12.8 26.3 12.9 26 12.9 25.6 C 12.94 25.63 12.9 23.3 12.9 23.3 L 13.5 23.3 L 13.5 27.4 L 12.9 27.4 L 12.9 26.7 C 12.9 26.7 12.94 26.68 12.9 26.7 Z M 14.9 27.4 L 14.9 23.3 L 15.5 23.3 C 15.5 23.3 15.54 23.98 15.5 24 C 15.9 23.4 16.4 23.2 17 23.2 C 17.5 23.2 17.8 23.3 18.1 23.6 C 18.4 23.9 18.5 24.3 18.5 24.8 C 18.54 24.83 18.5 27.4 18.5 27.4 L 17.9 27.4 C 17.9 27.4 17.93 24.98 17.9 25 C 17.9 24.6 17.8 24.3 17.6 24.1 C 17.4 23.8 17.1 23.7 16.8 23.7 C 16.4 23.7 16.1 23.9 15.9 24.1 C 15.7 24.3 15.5 24.6 15.5 25 C 15.54 25.03 15.5 27.4 15.5 27.4 L 14.9 27.4 Z M 22.4 27.4 L 22.4 21.8 L 23 21.8 L 23 25.1 L 26.2 21.8 L 27 21.8 L 24.6 24.2 L 27.1 27.4 L 26.3 27.4 L 24.2 24.7 L 23 25.9 L 23 27.4 L 22.4 27.4 Z M 29.7 27.5 C 29 27.5 28.5 27.3 28.1 26.9 C 27.7 26.4 27.5 25.9 27.5 25.4 C 27.5 25.4 27.5 25.3 27.5 25.3 C 27.5 24.7 27.7 24.2 28.1 23.8 C 28.5 23.4 29.1 23.2 29.7 23.2 C 30.3 23.2 30.8 23.4 31.2 23.8 C 31.6 24.2 31.8 24.7 31.8 25.3 C 31.8 25.3 31.8 25.3 31.8 25.3 C 31.8 25.9 31.6 26.4 31.2 26.9 C 30.8 27.3 30.3 27.5 29.7 27.5 Z M 29.7 26.9 C 30.1 26.9 30.5 26.8 30.8 26.5 C 31 26.2 31.2 25.8 31.2 25.4 C 31.2 25.4 31.2 25.3 31.2 25.3 C 31.2 24.9 31 24.5 30.7 24.2 C 30.5 23.9 30.1 23.7 29.7 23.7 C 29.2 23.7 28.9 23.9 28.6 24.2 C 28.3 24.5 28.1 24.9 28.1 25.3 C 28.1 25.3 28.1 25.3 28.1 25.3 C 28.1 25.8 28.3 26.2 28.6 26.5 C 28.9 26.8 29.2 26.9 29.7 26.9 Z M 36.3 26.6 C 35.8 27.2 35.3 27.5 34.7 27.5 C 34.1 27.5 33.7 27.3 33.3 26.9 C 32.9 26.5 32.7 26 32.7 25.3 C 32.7 25.3 32.7 25.3 32.7 25.3 C 32.7 24.7 32.9 24.2 33.3 23.8 C 33.7 23.4 34.1 23.2 34.7 23.2 C 35.3 23.2 35.9 23.5 36.3 24.1 C 36.26 24.06 36.3 21.6 36.3 21.6 L 36.9 21.6 L 36.9 27.4 L 36.3 27.4 L 36.3 26.6 C 36.3 26.6 36.26 26.57 36.3 26.6 Z M 34.8 26.9 C 35.2 26.9 35.5 26.8 35.8 26.5 C 36.1 26.2 36.3 25.8 36.3 25.3 C 36.3 25.3 36.3 25.3 36.3 25.3 C 36.3 24.9 36.1 24.5 35.8 24.2 C 35.5 23.9 35.2 23.7 34.8 23.7 C 34.4 23.7 34 23.9 33.7 24.2 C 33.5 24.4 33.3 24.8 33.3 25.3 C 33.3 25.3 33.3 25.3 33.3 25.3 C 33.3 25.8 33.5 26.2 33.7 26.5 C 34 26.8 34.4 26.9 34.8 26.9 Z M 41.2 26.7 C 40.8 27.2 40.4 27.5 39.8 27.5 C 39.3 27.5 38.9 27.3 38.6 27 C 38.3 26.7 38.2 26.3 38.2 25.8 C 38.18 25.83 38.2 23.3 38.2 23.3 L 38.8 23.3 C 38.8 23.3 38.8 25.68 38.8 25.7 C 38.8 26.1 38.9 26.4 39.1 26.6 C 39.3 26.8 39.6 26.9 39.9 26.9 C 40.3 26.9 40.6 26.8 40.8 26.6 C 41.1 26.3 41.2 26 41.2 25.6 C 41.18 25.63 41.2 23.3 41.2 23.3 L 41.8 23.3 L 41.8 27.4 L 41.2 27.4 L 41.2 26.7 C 41.2 26.7 41.18 26.68 41.2 26.7 Z M 43.1 24.1 L 43.1 23.3 L 43.9 23.3 L 43.9 24.1 L 43.1 24.1 Z M 43.1 27.4 L 43.1 26.6 L 43.9 26.6 L 43.9 27.4 L 43.1 27.4 Z M 49.2 27.4 L 49.2 25.2 L 47 21.8 L 48.5 21.8 L 49.8 24 L 51.2 21.8 L 52.6 21.8 L 50.4 25.2 L 50.4 27.4 L 49.2 27.4 Z M 53.3 27.4 L 53.3 21.8 L 54.6 21.8 L 56.1 24.2 L 57.6 21.8 L 58.9 21.8 L 58.9 27.4 L 57.7 27.4 L 57.7 23.7 L 56.1 26.1 L 56.1 26.1 L 54.5 23.8 L 54.5 27.4 L 53.3 27.4 Z M 65.2 27.4 L 65.2 26.2 L 62.4 26.2 L 62.2 25.3 L 65.3 21.8 L 66.4 21.8 L 66.4 25.2 L 67.1 25.2 L 67.1 26.2 L 66.4 26.2 L 66.4 27.4 L 65.2 27.4 Z M 63.7 25.2 L 65.2 25.2 L 65.2 23.4 L 63.7 25.2 Z M 70 27.5 C 69.1 27.5 68.3 27.2 67.8 26.5 C 67.8 26.5 68.7 25.7 68.7 25.7 C 69 26.2 69.5 26.4 70 26.4 C 70.2 26.4 70.4 26.3 70.6 26.2 C 70.7 26.1 70.8 25.9 70.8 25.7 C 70.8 25.7 70.8 25.7 70.8 25.7 C 70.8 25.5 70.7 25.3 70.5 25.2 C 70.3 25 70 25 69.7 25 C 69.7 24.98 69.2 25 69.2 25 L 69 24.2 L 70.3 22.9 L 68.1 22.9 L 68.1 21.8 L 71.9 21.8 L 71.9 22.7 C 71.9 22.7 70.5 24.08 70.5 24.1 C 71.5 24.3 72 24.8 72 25.6 C 72 25.6 72 25.7 72 25.7 C 72 26.2 71.8 26.6 71.5 27 C 71.1 27.3 70.6 27.5 70 27.5 Z M 75.4 27.5 C 74.6 27.5 74 27.2 73.6 26.7 C 73.1 26.1 72.9 25.4 72.9 24.6 C 72.9 24.6 72.9 24.6 72.9 24.6 C 72.9 23.8 73.1 23.1 73.6 22.5 C 74.1 22 74.7 21.7 75.4 21.7 C 76.1 21.7 76.7 22 77.2 22.5 C 77.6 23.1 77.9 23.8 77.9 24.6 C 77.9 24.6 77.9 24.6 77.9 24.6 C 77.9 25.4 77.6 26.1 77.2 26.7 C 76.7 27.2 76.1 27.5 75.4 27.5 Z M 74.2 24.6 C 74.2 25.1 74.3 25.5 74.5 25.9 C 74.7 26.2 75 26.4 75.4 26.4 C 75.8 26.4 76.1 26.2 76.3 25.9 C 76.5 25.6 76.6 25.1 76.6 24.6 C 76.6 24.6 76.6 24.6 76.6 24.6 C 76.6 24.1 76.5 23.7 76.3 23.3 C 76 23 75.7 22.8 75.4 22.8 C 75 22.8 74.7 23 74.5 23.3 C 74.3 23.6 74.2 24.1 74.2 24.6 C 74.17 24.58 74.2 24.6 74.2 24.6 C 74.2 24.6 74.17 24.6 74.2 24.6 Z M 81 27.5 C 80.3 27.5 79.8 27.3 79.4 26.9 C 79 26.5 78.7 25.7 78.7 24.8 C 78.7 24.8 78.7 24.8 78.7 24.8 C 78.7 23.9 79 23.1 79.4 22.6 C 79.8 22 80.4 21.7 81.2 21.7 C 81.8 21.7 82.4 21.9 83 22.3 C 83 22.3 82.3 23.3 82.3 23.3 C 82.1 23.1 81.9 23 81.8 22.9 C 81.6 22.9 81.4 22.8 81.2 22.8 C 81 22.8 80.8 22.9 80.6 23 C 80.5 23 80.4 23.2 80.3 23.3 C 80.2 23.4 80.1 23.6 80.1 23.7 C 80.1 23.8 80 24 80 24.1 C 80.4 23.9 80.8 23.8 81.2 23.8 C 81.8 23.8 82.2 23.9 82.6 24.2 C 83 24.5 83.2 25 83.2 25.5 C 83.2 25.5 83.2 25.6 83.2 25.6 C 83.2 26.1 83 26.6 82.6 27 C 82.1 27.3 81.6 27.5 81 27.5 Z M 80 25.6 C 80 25.9 80.1 26.1 80.3 26.2 C 80.4 26.4 80.7 26.4 81 26.4 C 81.3 26.4 81.5 26.4 81.7 26.2 C 81.8 26.1 81.9 25.9 81.9 25.6 C 81.9 25.6 81.9 25.6 81.9 25.6 C 81.9 25.4 81.8 25.2 81.7 25 C 81.5 24.9 81.3 24.8 81 24.8 C 80.7 24.8 80.4 24.9 80.3 25 C 80.1 25.2 80 25.3 80 25.6 C 80 25.59 80 25.6 80 25.6 C 80 25.6 80 25.61 80 25.6 Z M 85.8 28.4 L 89.3 21 L 90.4 21 L 86.8 28.4 L 85.8 28.4 Z M 94.9 27.4 L 94.9 25.2 L 92.7 21.8 L 94.2 21.8 L 95.5 24 L 96.9 21.8 L 98.3 21.8 L 96.1 25.2 L 96.1 27.4 L 94.9 27.4 Z M 99 27.4 L 99 21.8 L 100.4 21.8 L 101.8 24.2 L 103.3 21.8 L 104.6 21.8 L 104.6 27.4 L 103.4 27.4 L 103.4 23.7 L 101.8 26.1 L 101.8 26.1 L 100.3 23.8 L 100.3 27.4 L 99 27.4 Z M 110.9 27.4 L 110.9 26.2 L 108.2 26.2 L 108 25.3 L 111 21.8 L 112.1 21.8 L 112.1 25.2 L 112.8 25.2 L 112.8 26.2 L 112.1 26.2 L 112.1 27.4 L 110.9 27.4 Z M 109.4 25.2 L 110.9 25.2 L 110.9 23.4 L 109.4 25.2 Z M 115.7 27.5 C 114.8 27.5 114.1 27.2 113.5 26.5 C 113.5 26.5 114.4 25.7 114.4 25.7 C 114.8 26.2 115.2 26.4 115.7 26.4 C 116 26.4 116.2 26.3 116.3 26.2 C 116.5 26.1 116.5 25.9 116.5 25.7 C 116.5 25.7 116.5 25.7 116.5 25.7 C 116.5 25.5 116.4 25.3 116.2 25.2 C 116 25 115.8 25 115.4 25 C 115.43 24.98 114.9 25 114.9 25 L 114.7 24.2 L 116.1 22.9 L 113.9 22.9 L 113.9 21.8 L 117.6 21.8 L 117.6 22.7 C 117.6 22.7 116.23 24.08 116.2 24.1 C 117.2 24.3 117.7 24.8 117.7 25.6 C 117.7 25.6 117.7 25.7 117.7 25.7 C 117.7 26.2 117.6 26.6 117.2 27 C 116.8 27.3 116.3 27.5 115.7 27.5 Z M 121.1 27.5 C 120.4 27.5 119.8 27.2 119.3 26.7 C 118.9 26.1 118.6 25.4 118.6 24.6 C 118.6 24.6 118.6 24.6 118.6 24.6 C 118.6 23.8 118.9 23.1 119.3 22.5 C 119.8 22 120.4 21.7 121.1 21.7 C 121.9 21.7 122.5 22 122.9 22.5 C 123.4 23.1 123.6 23.8 123.6 24.6 C 123.6 24.6 123.6 24.6 123.6 24.6 C 123.6 25.4 123.4 26.1 122.9 26.7 C 122.4 27.2 121.8 27.5 121.1 27.5 Z M 119.9 24.6 C 119.9 25.1 120 25.5 120.2 25.9 C 120.5 26.2 120.8 26.4 121.1 26.4 C 121.5 26.4 121.8 26.2 122 25.9 C 122.2 25.6 122.3 25.1 122.3 24.6 C 122.3 24.6 122.3 24.6 122.3 24.6 C 122.3 24.1 122.2 23.7 122 23.3 C 121.8 23 121.5 22.8 121.1 22.8 C 120.7 22.8 120.5 23 120.2 23.3 C 120 23.6 119.9 24.1 119.9 24.6 C 119.89 24.58 119.9 24.6 119.9 24.6 C 119.9 24.6 119.89 24.6 119.9 24.6 Z M 124.5 27.4 L 127 22.9 L 124.4 22.9 L 124.4 21.8 L 128.4 21.8 L 128.4 22.7 L 125.9 27.4 L 124.5 27.4 Z " stroke="none" fill="#000"/>  </g>  <g id="Polygon358401">    <path d="M 2.2 13.4 L 2.2 11.2 L 0.1 7.8 L 1.5 7.8 L 2.9 10 L 4.2 7.8 L 5.6 7.8 L 3.5 11.2 L 3.5 13.4 L 2.2 13.4 Z M 8 12.9 C 7.7 13.3 7.2 13.5 6.7 13.5 C 6.3 13.5 5.9 13.4 5.6 13.1 C 5.4 12.9 5.2 12.6 5.2 12.2 C 5.2 12.2 5.2 12.2 5.2 12.2 C 5.2 11.7 5.4 11.4 5.7 11.1 C 6 10.9 6.4 10.8 6.9 10.8 C 7.3 10.8 7.6 10.8 8 11 C 8 11 8 10.9 8 10.9 C 8 10.4 7.7 10.1 7.1 10.1 C 6.7 10.1 6.3 10.2 5.9 10.3 C 5.9 10.3 5.6 9.4 5.6 9.4 C 6.1 9.2 6.7 9.1 7.2 9.1 C 7.9 9.1 8.4 9.2 8.7 9.5 C 9 9.9 9.2 10.3 9.2 10.9 C 9.16 10.91 9.2 13.4 9.2 13.4 L 8 13.4 L 8 12.9 C 8 12.9 7.98 12.94 8 12.9 Z M 7.1 12.6 C 7.3 12.6 7.6 12.6 7.7 12.4 C 7.9 12.3 8 12.1 8 11.9 C 8 11.9 8 11.7 8 11.7 C 7.8 11.6 7.5 11.5 7.2 11.5 C 7 11.5 6.8 11.6 6.6 11.7 C 6.5 11.8 6.4 11.9 6.4 12.1 C 6.4 12.1 6.4 12.1 6.4 12.1 C 6.4 12.3 6.5 12.4 6.6 12.5 C 6.7 12.6 6.9 12.6 7.1 12.6 Z M 10.2 13.4 L 10.2 9.1 L 11.4 9.1 C 11.4 9.1 11.42 9.98 11.4 10 C 11.7 9.3 12.2 9 12.8 9 C 12.79 9.03 12.8 10.3 12.8 10.3 C 12.8 10.3 12.73 10.3 12.7 10.3 C 12.3 10.3 12 10.4 11.8 10.7 C 11.5 10.9 11.4 11.3 11.4 11.8 C 11.42 11.82 11.4 13.4 11.4 13.4 L 10.2 13.4 Z M 13.6 13.4 L 13.6 9.1 L 14.8 9.1 L 14.8 13.4 L 13.6 13.4 Z M 18.5 13.4 L 18.5 7.8 L 19.7 7.8 L 19.7 10.2 L 22 7.8 L 23.5 7.8 L 21.2 10.2 L 23.6 13.4 L 22.1 13.4 L 20.4 11 L 19.7 11.7 L 19.7 13.4 L 18.5 13.4 Z M 26.6 12.9 C 26.3 13.3 25.9 13.5 25.3 13.5 C 24.9 13.5 24.6 13.4 24.3 13.1 C 24 12.9 23.9 12.6 23.9 12.2 C 23.9 12.2 23.9 12.2 23.9 12.2 C 23.9 11.7 24 11.4 24.3 11.1 C 24.7 10.9 25.1 10.8 25.6 10.8 C 25.9 10.8 26.3 10.8 26.6 11 C 26.6 11 26.6 10.9 26.6 10.9 C 26.6 10.4 26.3 10.1 25.7 10.1 C 25.3 10.1 24.9 10.2 24.5 10.3 C 24.5 10.3 24.2 9.4 24.2 9.4 C 24.8 9.2 25.3 9.1 25.9 9.1 C 26.5 9.1 27 9.2 27.4 9.5 C 27.7 9.9 27.8 10.3 27.8 10.9 C 27.82 10.91 27.8 13.4 27.8 13.4 L 26.6 13.4 L 26.6 12.9 C 26.6 12.9 26.64 12.94 26.6 12.9 Z M 25.7 12.6 C 26 12.6 26.2 12.6 26.4 12.4 C 26.6 12.3 26.7 12.1 26.7 11.9 C 26.7 11.9 26.7 11.7 26.7 11.7 C 26.4 11.6 26.2 11.5 25.9 11.5 C 25.6 11.5 25.4 11.6 25.3 11.7 C 25.1 11.8 25 11.9 25 12.1 C 25 12.1 25 12.1 25 12.1 C 25 12.3 25.1 12.4 25.2 12.5 C 25.4 12.6 25.5 12.6 25.7 12.6 Z M 28.9 14.7 L 28.9 9.1 L 30.1 9.1 C 30.1 9.1 30.08 9.73 30.1 9.7 C 30.4 9.3 30.9 9 31.4 9 C 31.9 9 32.4 9.2 32.8 9.6 C 33.2 10 33.4 10.6 33.4 11.2 C 33.4 11.2 33.4 11.3 33.4 11.3 C 33.4 11.9 33.2 12.5 32.8 12.9 C 32.4 13.3 32 13.5 31.4 13.5 C 30.9 13.5 30.4 13.3 30.1 12.8 C 30.08 12.84 30.1 14.7 30.1 14.7 L 28.9 14.7 Z M 30.1 11.3 C 30.1 11.6 30.2 11.9 30.4 12.1 C 30.6 12.3 30.8 12.4 31.1 12.4 C 31.4 12.4 31.6 12.3 31.8 12.1 C 32.1 11.9 32.2 11.6 32.2 11.3 C 32.2 11.3 32.2 11.2 32.2 11.2 C 32.2 10.9 32.1 10.6 31.8 10.4 C 31.6 10.2 31.4 10.1 31.1 10.1 C 30.8 10.1 30.6 10.2 30.4 10.4 C 30.2 10.6 30.1 10.9 30.1 11.2 C 30.06 11.25 30.1 11.3 30.1 11.3 C 30.1 11.3 30.06 11.26 30.1 11.3 Z M 36.8 12.9 C 36.5 13.3 36 13.5 35.5 13.5 C 35.1 13.5 34.7 13.4 34.4 13.1 C 34.1 12.9 34 12.6 34 12.2 C 34 12.2 34 12.2 34 12.2 C 34 11.7 34.2 11.4 34.5 11.1 C 34.8 10.9 35.2 10.8 35.7 10.8 C 36.1 10.8 36.4 10.8 36.8 11 C 36.8 11 36.8 10.9 36.8 10.9 C 36.8 10.4 36.5 10.1 35.9 10.1 C 35.5 10.1 35.1 10.2 34.7 10.3 C 34.7 10.3 34.4 9.4 34.4 9.4 C 34.9 9.2 35.5 9.1 36 9.1 C 36.7 9.1 37.2 9.2 37.5 9.5 C 37.8 9.9 38 10.3 38 10.9 C 37.95 10.91 38 13.4 38 13.4 L 36.8 13.4 L 36.8 12.9 C 36.8 12.9 36.78 12.94 36.8 12.9 Z M 35.8 12.6 C 36.1 12.6 36.4 12.6 36.5 12.4 C 36.7 12.3 36.8 12.1 36.8 11.9 C 36.8 11.9 36.8 11.7 36.8 11.7 C 36.6 11.6 36.3 11.5 36 11.5 C 35.8 11.5 35.6 11.6 35.4 11.7 C 35.3 11.8 35.2 11.9 35.2 12.1 C 35.2 12.1 35.2 12.1 35.2 12.1 C 35.2 12.3 35.2 12.4 35.4 12.5 C 35.5 12.6 35.7 12.6 35.8 12.6 Z M 39.1 13.4 L 39.1 7.6 L 40.3 7.6 L 40.3 13.4 L 39.1 13.4 Z M 41.5 13.4 L 41.5 9.1 L 42.7 9.1 L 42.7 13.4 L 41.5 13.4 Z M 46.4 13.4 L 46.4 7.8 C 46.4 7.8 48.54 7.8 48.5 7.8 C 49.4 7.8 50.1 8.1 50.7 8.6 C 51.2 9.1 51.5 9.8 51.5 10.6 C 51.5 10.6 51.5 10.6 51.5 10.6 C 51.5 11.4 51.2 12.1 50.7 12.6 C 50.1 13.1 49.4 13.4 48.5 13.4 C 48.54 13.4 46.4 13.4 46.4 13.4 Z M 48.5 8.9 C 48.54 8.91 47.6 8.9 47.6 8.9 L 47.6 12.3 C 47.6 12.3 48.54 12.29 48.5 12.3 C 49 12.3 49.5 12.1 49.8 11.8 C 50.1 11.5 50.2 11.1 50.2 10.6 C 50.2 10.6 50.2 10.6 50.2 10.6 C 50.2 10.1 50.1 9.7 49.8 9.4 C 49.5 9.1 49 8.9 48.5 8.9 Z M 56.3 12.7 C 55.8 13.2 55.3 13.5 54.5 13.5 C 53.9 13.5 53.3 13.3 52.9 12.9 C 52.5 12.5 52.3 11.9 52.3 11.3 C 52.3 11.3 52.3 11.3 52.3 11.3 C 52.3 10.6 52.5 10.1 52.9 9.7 C 53.3 9.2 53.8 9 54.4 9 C 55.1 9 55.6 9.3 56 9.7 C 56.3 10.2 56.5 10.7 56.5 11.4 C 56.5 11.4 56.5 11.5 56.5 11.7 C 56.5 11.7 53.5 11.7 53.5 11.7 C 53.5 12 53.7 12.2 53.8 12.3 C 54 12.4 54.3 12.5 54.5 12.5 C 54.9 12.5 55.2 12.4 55.6 12.1 C 55.58 12.08 56.3 12.7 56.3 12.7 C 56.3 12.7 56.27 12.7 56.3 12.7 Z M 53.5 10.9 C 53.5 10.9 55.3 10.9 55.3 10.9 C 55.3 10.6 55.2 10.4 55 10.3 C 54.9 10.1 54.6 10 54.4 10 C 54.1 10 53.9 10.1 53.8 10.3 C 53.6 10.4 53.5 10.6 53.5 10.9 Z M 57.4 14.7 L 57.4 9.1 L 58.6 9.1 C 58.6 9.1 58.61 9.73 58.6 9.7 C 58.9 9.3 59.4 9 59.9 9 C 60.5 9 60.9 9.2 61.3 9.6 C 61.7 10 61.9 10.6 61.9 11.2 C 61.9 11.2 61.9 11.3 61.9 11.3 C 61.9 11.9 61.7 12.5 61.3 12.9 C 60.9 13.3 60.5 13.5 59.9 13.5 C 59.4 13.5 59 13.3 58.6 12.8 C 58.61 12.84 58.6 14.7 58.6 14.7 L 57.4 14.7 Z M 58.6 11.3 C 58.6 11.6 58.7 11.9 58.9 12.1 C 59.1 12.3 59.3 12.4 59.6 12.4 C 59.9 12.4 60.2 12.3 60.4 12.1 C 60.6 11.9 60.7 11.6 60.7 11.3 C 60.7 11.3 60.7 11.2 60.7 11.2 C 60.7 10.9 60.6 10.6 60.4 10.4 C 60.2 10.2 59.9 10.1 59.6 10.1 C 59.3 10.1 59.1 10.2 58.9 10.4 C 58.7 10.6 58.6 10.9 58.6 11.2 C 58.59 11.25 58.6 11.3 58.6 11.3 C 58.6 11.3 58.59 11.26 58.6 11.3 Z M 64.9 13.5 C 64.2 13.5 63.7 13.3 63.2 12.9 C 62.8 12.4 62.6 11.9 62.6 11.3 C 62.6 11.3 62.6 11.3 62.6 11.3 C 62.6 10.6 62.8 10.1 63.3 9.7 C 63.7 9.2 64.2 9 64.9 9 C 65.6 9 66.1 9.2 66.6 9.7 C 67 10.1 67.2 10.6 67.2 11.2 C 67.2 11.2 67.2 11.3 67.2 11.3 C 67.2 11.9 67 12.4 66.6 12.8 C 66.1 13.3 65.6 13.5 64.9 13.5 Z M 64.9 12.4 C 65.2 12.4 65.5 12.3 65.7 12.1 C 65.9 11.9 66 11.6 66 11.3 C 66 11.3 66 11.3 66 11.3 C 66 10.9 65.9 10.7 65.7 10.4 C 65.5 10.2 65.2 10.1 64.9 10.1 C 64.6 10.1 64.3 10.2 64.1 10.4 C 63.9 10.6 63.8 10.9 63.8 11.2 C 63.8 11.2 63.8 11.3 63.8 11.3 C 63.8 11.6 63.9 11.9 64.1 12.1 C 64.3 12.3 64.6 12.4 64.9 12.4 Z M 68.2 13.4 L 68.2 7.6 L 69.4 7.6 L 69.4 13.4 L 68.2 13.4 Z M 73 12.9 C 72.7 13.3 72.3 13.5 71.7 13.5 C 71.3 13.5 71 13.4 70.7 13.1 C 70.4 12.9 70.3 12.6 70.3 12.2 C 70.3 12.2 70.3 12.2 70.3 12.2 C 70.3 11.7 70.4 11.4 70.7 11.1 C 71 10.9 71.5 10.8 72 10.8 C 72.3 10.8 72.7 10.8 73 11 C 73 11 73 10.9 73 10.9 C 73 10.4 72.7 10.1 72.1 10.1 C 71.7 10.1 71.3 10.2 70.9 10.3 C 70.9 10.3 70.6 9.4 70.6 9.4 C 71.2 9.2 71.7 9.1 72.3 9.1 C 72.9 9.1 73.4 9.2 73.7 9.5 C 74.1 9.9 74.2 10.3 74.2 10.9 C 74.21 10.91 74.2 13.4 74.2 13.4 L 73 13.4 L 73 12.9 C 73 12.9 73.03 12.94 73 12.9 Z M 72.1 12.6 C 72.4 12.6 72.6 12.6 72.8 12.4 C 73 12.3 73.1 12.1 73.1 11.9 C 73.1 11.9 73.1 11.7 73.1 11.7 C 72.8 11.6 72.6 11.5 72.3 11.5 C 72 11.5 71.8 11.6 71.7 11.7 C 71.5 11.8 71.4 11.9 71.4 12.1 C 71.4 12.1 71.4 12.1 71.4 12.1 C 71.4 12.3 71.5 12.4 71.6 12.5 C 71.7 12.6 71.9 12.6 72.1 12.6 Z M 75.3 13.4 L 75.3 9.1 L 76.5 9.1 C 76.5 9.1 76.47 9.72 76.5 9.7 C 76.8 9.3 77.2 9 77.7 9 C 78.3 9 78.7 9.3 78.9 9.7 C 79.3 9.3 79.8 9 80.4 9 C 80.8 9 81.2 9.2 81.4 9.4 C 81.7 9.7 81.8 10.1 81.8 10.6 C 81.8 10.61 81.8 13.4 81.8 13.4 L 80.6 13.4 C 80.6 13.4 80.58 11.01 80.6 11 C 80.6 10.4 80.3 10.1 79.9 10.1 C 79.6 10.1 79.5 10.2 79.3 10.4 C 79.2 10.5 79.1 10.7 79.1 11 C 79.13 11.01 79.1 13.4 79.1 13.4 L 77.9 13.4 C 77.9 13.4 77.92 11.01 77.9 11 C 77.9 10.4 77.7 10.1 77.2 10.1 C 77 10.1 76.8 10.2 76.7 10.4 C 76.5 10.5 76.5 10.7 76.5 11 C 76.47 11.01 76.5 13.4 76.5 13.4 L 75.3 13.4 Z M 85.4 12.9 C 85 13.3 84.6 13.5 84.1 13.5 C 83.6 13.5 83.3 13.4 83 13.1 C 82.7 12.9 82.6 12.6 82.6 12.2 C 82.6 12.2 82.6 12.2 82.6 12.2 C 82.6 11.7 82.8 11.4 83.1 11.1 C 83.4 10.9 83.8 10.8 84.3 10.8 C 84.7 10.8 85 10.8 85.4 11 C 85.4 11 85.4 10.9 85.4 10.9 C 85.4 10.4 85.1 10.1 84.5 10.1 C 84.1 10.1 83.7 10.2 83.3 10.3 C 83.3 10.3 83 9.4 83 9.4 C 83.5 9.2 84.1 9.1 84.6 9.1 C 85.3 9.1 85.8 9.2 86.1 9.5 C 86.4 9.9 86.5 10.3 86.5 10.9 C 86.54 10.91 86.5 13.4 86.5 13.4 L 85.4 13.4 L 85.4 12.9 C 85.4 12.9 85.37 12.94 85.4 12.9 Z M 84.4 12.6 C 84.7 12.6 85 12.6 85.1 12.4 C 85.3 12.3 85.4 12.1 85.4 11.9 C 85.4 11.9 85.4 11.7 85.4 11.7 C 85.2 11.6 84.9 11.5 84.6 11.5 C 84.4 11.5 84.1 11.6 84 11.7 C 83.8 11.8 83.8 11.9 83.8 12.1 C 83.8 12.1 83.8 12.1 83.8 12.1 C 83.8 12.3 83.8 12.4 84 12.5 C 84.1 12.6 84.2 12.6 84.4 12.6 Z M 89.6 13.4 L 92 7.8 L 93.2 7.8 L 95.6 13.4 L 94.3 13.4 L 93.8 12.1 L 91.4 12.1 L 90.9 13.4 L 89.6 13.4 Z M 91.8 11.1 L 93.3 11.1 L 92.6 9.2 L 91.8 11.1 Z M 96.3 13.4 L 96.3 9.1 L 97.5 9.1 C 97.5 9.1 97.53 9.98 97.5 10 C 97.8 9.3 98.3 9 98.9 9 C 98.89 9.03 98.9 10.3 98.9 10.3 C 98.9 10.3 98.83 10.3 98.8 10.3 C 98.4 10.3 98.1 10.4 97.9 10.7 C 97.6 10.9 97.5 11.3 97.5 11.8 C 97.53 11.82 97.5 13.4 97.5 13.4 L 96.3 13.4 Z M 102 12.9 C 101.6 13.3 101.2 13.5 100.7 13.5 C 100.2 13.5 99.9 13.4 99.6 13.1 C 99.3 12.9 99.2 12.6 99.2 12.2 C 99.2 12.2 99.2 12.2 99.2 12.2 C 99.2 11.7 99.4 11.4 99.7 11.1 C 100 10.9 100.4 10.8 100.9 10.8 C 101.3 10.8 101.6 10.8 102 11 C 102 11 102 10.9 102 10.9 C 102 10.4 101.7 10.1 101.1 10.1 C 100.7 10.1 100.3 10.2 99.9 10.3 C 99.9 10.3 99.6 9.4 99.6 9.4 C 100.1 9.2 100.7 9.1 101.2 9.1 C 101.9 9.1 102.4 9.2 102.7 9.5 C 103 9.9 103.1 10.3 103.1 10.9 C 103.14 10.91 103.1 13.4 103.1 13.4 L 102 13.4 L 102 12.9 C 102 12.9 101.97 12.94 102 12.9 Z M 101 12.6 C 101.3 12.6 101.6 12.6 101.7 12.4 C 101.9 12.3 102 12.1 102 11.9 C 102 11.9 102 11.7 102 11.7 C 101.8 11.6 101.5 11.5 101.2 11.5 C 101 11.5 100.7 11.6 100.6 11.7 C 100.4 11.8 100.4 11.9 100.4 12.1 C 100.4 12.1 100.4 12.1 100.4 12.1 C 100.4 12.3 100.4 12.4 100.6 12.5 C 100.7 12.6 100.8 12.6 101 12.6 Z M 106.7 13.5 C 106.2 13.5 105.8 13.3 105.4 12.8 C 105.41 12.84 105.4 13.4 105.4 13.4 L 104.2 13.4 L 104.2 7.6 L 105.4 7.6 C 105.4 7.6 105.41 9.73 105.4 9.7 C 105.7 9.3 106.2 9 106.7 9 C 107.3 9 107.7 9.2 108.1 9.6 C 108.5 10 108.7 10.6 108.7 11.2 C 108.7 11.2 108.7 11.3 108.7 11.3 C 108.7 11.9 108.5 12.5 108.1 12.9 C 107.7 13.3 107.3 13.5 106.7 13.5 Z M 105.4 11.3 C 105.4 11.6 105.5 11.9 105.7 12.1 C 105.9 12.3 106.1 12.4 106.4 12.4 C 106.7 12.4 107 12.3 107.2 12.1 C 107.4 11.9 107.5 11.6 107.5 11.3 C 107.5 11.3 107.5 11.2 107.5 11.2 C 107.5 10.9 107.4 10.6 107.2 10.4 C 107 10.2 106.7 10.1 106.4 10.1 C 106.1 10.1 105.9 10.2 105.7 10.4 C 105.5 10.6 105.4 10.9 105.4 11.2 C 105.39 11.25 105.4 11.3 105.4 11.3 C 105.4 11.3 105.39 11.26 105.4 11.3 Z M 112.1 12.9 C 111.8 13.3 111.3 13.5 110.8 13.5 C 110.4 13.5 110 13.4 109.8 13.1 C 109.5 12.9 109.3 12.6 109.3 12.2 C 109.3 12.2 109.3 12.2 109.3 12.2 C 109.3 11.7 109.5 11.4 109.8 11.1 C 110.1 10.9 110.5 10.8 111.1 10.8 C 111.4 10.8 111.8 10.8 112.1 11 C 112.1 11 112.1 10.9 112.1 10.9 C 112.1 10.4 111.8 10.1 111.2 10.1 C 110.8 10.1 110.4 10.2 110 10.3 C 110 10.3 109.7 9.4 109.7 9.4 C 110.2 9.2 110.8 9.1 111.4 9.1 C 112 9.1 112.5 9.2 112.8 9.5 C 113.1 9.9 113.3 10.3 113.3 10.9 C 113.28 10.91 113.3 13.4 113.3 13.4 L 112.1 13.4 L 112.1 12.9 C 112.1 12.9 112.1 12.94 112.1 12.9 Z M 111.2 12.6 C 111.5 12.6 111.7 12.6 111.9 12.4 C 112 12.3 112.1 12.1 112.1 11.9 C 112.1 11.9 112.1 11.7 112.1 11.7 C 111.9 11.6 111.6 11.5 111.4 11.5 C 111.1 11.5 110.9 11.6 110.7 11.7 C 110.6 11.8 110.5 11.9 110.5 12.1 C 110.5 12.1 110.5 12.1 110.5 12.1 C 110.5 12.3 110.6 12.4 110.7 12.5 C 110.8 12.6 111 12.6 111.2 12.6 Z M 115.8 13.5 C 115.2 13.5 114.5 13.3 114 12.8 C 114 12.8 114.5 12 114.5 12 C 115 12.4 115.4 12.5 115.9 12.5 C 116.2 12.5 116.4 12.4 116.4 12.2 C 116.4 12.2 116.4 12.2 116.4 12.2 C 116.4 12.2 116.4 12.1 116.4 12.1 C 116.3 12.1 116.3 12 116.3 12 C 116.2 12 116.2 12 116.2 12 C 116.1 11.9 116.1 11.9 116 11.9 C 116 11.9 115.9 11.8 115.9 11.8 C 115.8 11.8 115.8 11.8 115.7 11.8 C 115.6 11.7 115.5 11.7 115.5 11.7 C 115.3 11.7 115.2 11.6 115 11.6 C 114.9 11.5 114.8 11.4 114.6 11.3 C 114.5 11.2 114.4 11.1 114.3 10.9 C 114.2 10.8 114.2 10.6 114.2 10.4 C 114.2 10.4 114.2 10.4 114.2 10.4 C 114.2 10 114.4 9.7 114.7 9.4 C 115 9.2 115.3 9 115.8 9 C 116.3 9 116.9 9.2 117.4 9.5 C 117.4 9.5 116.9 10.4 116.9 10.4 C 116.5 10.1 116.1 10 115.8 10 C 115.6 10 115.5 10 115.4 10.1 C 115.3 10.1 115.3 10.2 115.3 10.3 C 115.3 10.3 115.3 10.3 115.3 10.3 C 115.3 10.4 115.4 10.5 115.5 10.6 C 115.7 10.6 115.9 10.7 116.2 10.8 C 116.4 10.9 116.5 10.9 116.6 11 C 116.8 11 116.9 11.1 117 11.2 C 117.2 11.3 117.3 11.4 117.4 11.6 C 117.4 11.7 117.5 11.9 117.5 12.1 C 117.5 12.1 117.5 12.1 117.5 12.1 C 117.5 12.6 117.3 12.9 117 13.1 C 116.7 13.4 116.3 13.5 115.8 13.5 Z M 118.4 13.4 L 118.4 9.1 L 119.6 9.1 L 119.6 13.4 L 118.4 13.4 Z " stroke="none" fill="#000"/>  </g></svg>