<?xml version="1.0" standalone="no"?><!DOCTYPE svg PUBLIC "-//W3C//DTD SVG 1.1//EN" "http://www.w3.org/Graphics/SVG/1.1/DTD/svg11.dtd"><svg xmlns="http://www.w3.org/2000/svg" version="1.1" width="173px" height="74.6px" viewBox="0 -3 173 74.6" style="top:-3px">  <desc>Oval emsiyelik r n Kodu: YM 6980 l ler: 28 cm Renk: Siyah</desc>  <defs/>  <g id="Polygon357369">    <path d="M 0.8 55.4 L 0.8 49.8 C 0.8 49.8 3.2 49.8 3.2 49.8 C 3.9 49.8 4.4 50 4.8 50.4 C 5.1 50.6 5.2 51 5.2 51.5 C 5.2 51.5 5.2 51.5 5.2 51.5 C 5.2 51.9 5.1 52.3 4.8 52.6 C 4.5 52.9 4.2 53 3.7 53.1 C 3.7 53.11 5.4 55.4 5.4 55.4 L 4.6 55.4 L 3 53.2 L 1.4 53.2 L 1.4 55.4 L 0.8 55.4 Z M 1.4 52.7 C 1.4 52.7 3.14 52.66 3.1 52.7 C 3.6 52.7 3.9 52.6 4.2 52.3 C 4.5 52.1 4.6 51.9 4.6 51.5 C 4.6 51.5 4.6 51.5 4.6 51.5 C 4.6 51.1 4.5 50.9 4.2 50.7 C 4 50.5 3.6 50.4 3.2 50.4 C 3.15 50.38 1.4 50.4 1.4 50.4 L 1.4 52.7 Z M 9.9 54.7 C 9.5 55.2 8.9 55.5 8.2 55.5 C 7.6 55.5 7.1 55.3 6.7 54.9 C 6.3 54.5 6.1 54 6.1 53.3 C 6.1 53.3 6.1 53.3 6.1 53.3 C 6.1 52.7 6.3 52.2 6.7 51.8 C 7.1 51.4 7.5 51.2 8.1 51.2 C 8.7 51.2 9.2 51.4 9.5 51.8 C 9.9 52.2 10 52.7 10 53.4 C 10 53.4 10 53.5 10 53.6 C 10 53.6 6.8 53.6 6.8 53.6 C 6.8 54 7 54.3 7.2 54.6 C 7.5 54.8 7.8 55 8.2 55 C 8.7 55 9.1 54.8 9.5 54.4 C 9.52 54.38 9.9 54.7 9.9 54.7 C 9.9 54.7 9.9 54.72 9.9 54.7 Z M 6.8 53.1 C 6.8 53.1 9.4 53.1 9.4 53.1 C 9.4 52.7 9.3 52.4 9 52.1 C 8.8 51.8 8.5 51.7 8.1 51.7 C 7.7 51.7 7.4 51.8 7.2 52.1 C 6.9 52.4 6.8 52.7 6.8 53.1 Z M 11.1 55.4 L 11.1 51.3 L 11.7 51.3 C 11.7 51.3 11.74 51.98 11.7 52 C 12.1 51.4 12.6 51.2 13.2 51.2 C 13.7 51.2 14 51.3 14.3 51.6 C 14.6 51.9 14.7 52.3 14.7 52.8 C 14.74 52.83 14.7 55.4 14.7 55.4 L 14.1 55.4 C 14.1 55.4 14.13 52.98 14.1 53 C 14.1 52.6 14 52.3 13.8 52.1 C 13.6 51.8 13.3 51.7 13 51.7 C 12.6 51.7 12.3 51.9 12.1 52.1 C 11.9 52.3 11.7 52.6 11.7 53 C 11.74 53.03 11.7 55.4 11.7 55.4 L 11.1 55.4 Z M 16.1 55.4 L 16.1 49.6 L 16.7 49.6 L 16.7 53.6 L 18.9 51.3 L 19.7 51.3 L 17.9 53 L 19.7 55.4 L 19 55.4 L 17.5 53.5 L 16.7 54.3 L 16.7 55.4 L 16.1 55.4 Z M 20.6 52.1 L 20.6 51.3 L 21.3 51.3 L 21.3 52.1 L 20.6 52.1 Z M 20.6 55.4 L 20.6 54.6 L 21.3 54.6 L 21.3 55.4 L 20.6 55.4 Z M 27.1 55.5 C 26.2 55.5 25.4 55.2 24.8 54.6 C 24.8 54.6 25.2 54.1 25.2 54.1 C 25.5 54.4 25.8 54.6 26.1 54.7 C 26.4 54.8 26.7 54.9 27.1 54.9 C 27.5 54.9 27.8 54.8 28 54.6 C 28.2 54.5 28.3 54.2 28.3 54 C 28.3 54 28.3 53.9 28.3 53.9 C 28.3 53.7 28.2 53.5 28 53.3 C 27.8 53.1 27.4 53 26.9 52.9 C 26.2 52.7 25.7 52.5 25.4 52.3 C 25.1 52.1 25 51.7 25 51.3 C 25 51.3 25 51.2 25 51.2 C 25 50.8 25.2 50.4 25.5 50.2 C 25.9 49.9 26.3 49.7 26.8 49.7 C 27.2 49.7 27.6 49.8 27.9 49.9 C 28.2 50 28.5 50.2 28.8 50.4 C 28.8 50.4 28.4 50.9 28.4 50.9 C 27.9 50.5 27.4 50.3 26.8 50.3 C 26.5 50.3 26.2 50.4 26 50.5 C 25.7 50.7 25.6 50.9 25.6 51.2 C 25.6 51.2 25.6 51.2 25.6 51.2 C 25.6 51.5 25.7 51.7 25.9 51.9 C 26.2 52 26.6 52.2 27.2 52.3 C 27.8 52.4 28.2 52.6 28.5 52.9 C 28.8 53.1 29 53.5 29 53.9 C 29 53.9 29 53.9 29 53.9 C 29 54.4 28.8 54.8 28.4 55 C 28.1 55.3 27.6 55.5 27.1 55.5 Z M 30.2 50.4 L 30.2 49.7 L 30.9 49.7 L 30.9 50.4 L 30.2 50.4 Z M 30.2 55.4 L 30.2 51.3 L 30.8 51.3 L 30.8 55.4 L 30.2 55.4 Z M 34 54.7 L 35.4 51.3 L 36 51.3 C 36 51.3 34.28 55.54 34.3 55.5 C 34.1 56 33.9 56.3 33.7 56.4 C 33.5 56.6 33.2 56.7 32.9 56.7 C 32.6 56.7 32.3 56.6 32 56.5 C 32 56.5 32.2 56 32.2 56 C 32.4 56.1 32.6 56.2 32.9 56.2 C 33.1 56.2 33.2 56.1 33.4 56 C 33.5 55.9 33.6 55.7 33.7 55.4 C 33.73 55.38 31.8 51.3 31.8 51.3 L 32.5 51.3 L 34 54.7 Z M 39.5 54.8 C 39.2 55.3 38.7 55.5 38 55.5 C 37.6 55.5 37.2 55.4 36.9 55.1 C 36.6 54.9 36.5 54.6 36.5 54.2 C 36.5 54.2 36.5 54.2 36.5 54.2 C 36.5 53.8 36.6 53.4 37 53.2 C 37.3 53 37.7 52.8 38.2 52.8 C 38.7 52.8 39.1 52.9 39.5 53 C 39.5 53 39.5 52.9 39.5 52.9 C 39.5 52.5 39.4 52.2 39.2 52 C 39 51.8 38.7 51.8 38.3 51.8 C 37.9 51.8 37.5 51.9 37 52.1 C 37 52.1 36.8 51.6 36.8 51.6 C 37.3 51.3 37.8 51.2 38.4 51.2 C 38.9 51.2 39.4 51.4 39.7 51.7 C 40 51.9 40.1 52.3 40.1 52.9 C 40.11 52.87 40.1 55.4 40.1 55.4 L 39.5 55.4 L 39.5 54.8 C 39.5 54.8 39.52 54.78 39.5 54.8 Z M 38.1 55 C 38.5 55 38.9 54.9 39.1 54.7 C 39.4 54.5 39.5 54.2 39.5 53.9 C 39.5 53.9 39.5 53.5 39.5 53.5 C 39.1 53.4 38.7 53.3 38.3 53.3 C 37.9 53.3 37.6 53.4 37.4 53.5 C 37.2 53.7 37.1 53.9 37.1 54.2 C 37.1 54.2 37.1 54.2 37.1 54.2 C 37.1 54.4 37.2 54.6 37.4 54.8 C 37.6 54.9 37.9 55 38.1 55 Z M 41.4 55.4 L 41.4 49.6 L 42 49.6 C 42 49.6 42.04 51.98 42 52 C 42.4 51.4 42.8 51.2 43.5 51.2 C 43.9 51.2 44.3 51.3 44.6 51.6 C 44.9 51.9 45 52.3 45 52.8 C 45.04 52.83 45 55.4 45 55.4 L 44.4 55.4 C 44.4 55.4 44.42 52.98 44.4 53 C 44.4 52.6 44.3 52.3 44.1 52.1 C 43.9 51.8 43.6 51.7 43.3 51.7 C 42.9 51.7 42.6 51.9 42.4 52.1 C 42.2 52.3 42 52.6 42 53 C 42.04 53.03 42 55.4 42 55.4 L 41.4 55.4 Z " stroke="none" fill="#000"/>  </g>  <g id="Polygon357368">    <path d="M 3.8 35.2 L 3.8 34.5 L 4.5 34.5 L 4.5 35.2 L 3.8 35.2 Z M 2.3 35.2 L 2.3 34.5 L 3 34.5 L 3 35.2 L 2.3 35.2 Z M 6.3 38.6 C 6.3 39.4 6 40.1 5.4 40.6 C 4.9 41.2 4.2 41.5 3.4 41.5 C 2.6 41.5 1.9 41.2 1.3 40.7 C 0.8 40.1 0.5 39.4 0.5 38.6 C 0.5 38.6 0.5 38.6 0.5 38.6 C 0.5 37.8 0.8 37.1 1.4 36.6 C 1.9 36 2.6 35.7 3.4 35.7 C 4.2 35.7 4.9 36 5.5 36.5 C 6 37.1 6.3 37.8 6.3 38.6 C 6.26 38.58 6.3 38.6 6.3 38.6 C 6.3 38.6 6.26 38.6 6.3 38.6 Z M 1.2 38.6 C 1.2 39.2 1.4 39.8 1.8 40.2 C 2.2 40.7 2.8 40.9 3.4 40.9 C 4 40.9 4.6 40.7 5 40.2 C 5.4 39.8 5.6 39.3 5.6 38.6 C 5.6 38.6 5.6 38.6 5.6 38.6 C 5.6 38 5.4 37.4 5 37 C 4.6 36.5 4 36.3 3.4 36.3 C 2.8 36.3 2.2 36.5 1.8 37 C 1.4 37.4 1.2 37.9 1.2 38.6 C 1.2 38.58 1.2 38.6 1.2 38.6 C 1.2 38.6 1.2 38.6 1.2 38.6 Z M 7.5 41.4 L 7.5 35.6 L 8.2 35.6 L 8.2 41.4 L 7.5 41.4 Z M 11 42.6 L 10.4 42.4 C 10.4 42.4 11.07 41.46 11.1 41.5 C 10.6 41.4 10.2 41.1 9.8 40.7 C 9.5 40.3 9.3 39.9 9.3 39.4 C 9.3 39.4 9.3 39.3 9.3 39.3 C 9.3 38.7 9.5 38.2 9.9 37.8 C 10.3 37.4 10.9 37.2 11.5 37.2 C 12.1 37.2 12.6 37.4 13.1 37.9 C 13.1 37.9 12.7 38.3 12.7 38.3 C 12.3 37.9 11.9 37.7 11.4 37.7 C 11 37.7 10.7 37.9 10.4 38.2 C 10.1 38.5 10 38.9 10 39.3 C 10 39.3 10 39.3 10 39.3 C 10 39.8 10.1 40.2 10.4 40.5 C 10.7 40.8 11.1 40.9 11.5 40.9 C 11.9 40.9 12.4 40.7 12.8 40.3 C 12.8 40.3 13.1 40.7 13.1 40.7 C 12.7 41.2 12.2 41.5 11.6 41.5 C 11.58 41.49 11 42.6 11 42.6 Z M 16.2 36.6 L 16.2 35.9 L 16.9 35.9 L 16.9 36.6 L 16.2 36.6 Z M 14.8 36.6 L 14.8 35.9 L 15.5 35.9 L 15.5 36.6 L 14.8 36.6 Z M 17.1 40.7 C 16.7 41.2 16.3 41.5 15.6 41.5 C 15.2 41.5 14.8 41.3 14.5 41 C 14.2 40.7 14.1 40.3 14.1 39.8 C 14.06 39.83 14.1 37.3 14.1 37.3 L 14.7 37.3 C 14.7 37.3 14.68 39.68 14.7 39.7 C 14.7 40.1 14.8 40.4 15 40.6 C 15.2 40.8 15.5 40.9 15.8 40.9 C 16.2 40.9 16.5 40.8 16.7 40.6 C 16.9 40.3 17.1 40 17.1 39.6 C 17.06 39.63 17.1 37.3 17.1 37.3 L 17.7 37.3 L 17.7 41.4 L 17.1 41.4 L 17.1 40.7 C 17.1 40.7 17.06 40.68 17.1 40.7 Z M 19.1 41.4 L 19.1 35.6 L 19.7 35.6 L 19.7 41.4 L 19.1 41.4 Z M 24.7 40.7 C 24.2 41.2 23.7 41.5 23 41.5 C 22.4 41.5 21.9 41.3 21.5 40.9 C 21.1 40.5 20.9 40 20.9 39.3 C 20.9 39.3 20.9 39.3 20.9 39.3 C 20.9 38.7 21.1 38.2 21.5 37.8 C 21.8 37.4 22.3 37.2 22.9 37.2 C 23.5 37.2 23.9 37.4 24.3 37.8 C 24.6 38.2 24.8 38.7 24.8 39.4 C 24.8 39.4 24.8 39.5 24.8 39.6 C 24.8 39.6 21.5 39.6 21.5 39.6 C 21.6 40 21.7 40.3 22 40.6 C 22.3 40.8 22.6 41 23 41 C 23.5 41 23.9 40.8 24.3 40.4 C 24.29 40.38 24.7 40.7 24.7 40.7 C 24.7 40.7 24.67 40.72 24.7 40.7 Z M 21.5 39.1 C 21.5 39.1 24.2 39.1 24.2 39.1 C 24.2 38.7 24 38.4 23.8 38.1 C 23.6 37.8 23.3 37.7 22.9 37.7 C 22.5 37.7 22.2 37.8 22 38.1 C 21.7 38.4 21.6 38.7 21.5 39.1 Z M 25.9 41.4 L 25.9 37.3 L 26.5 37.3 C 26.5 37.3 26.51 38.34 26.5 38.3 C 26.7 38 26.9 37.7 27.2 37.5 C 27.5 37.3 27.8 37.2 28.2 37.2 C 28.2 37.19 28.2 37.9 28.2 37.9 C 28.2 37.9 28.15 37.86 28.2 37.9 C 27.7 37.9 27.3 38 27 38.4 C 26.7 38.7 26.5 39.1 26.5 39.8 C 26.51 39.75 26.5 41.4 26.5 41.4 L 25.9 41.4 Z M 29.1 38.1 L 29.1 37.3 L 29.8 37.3 L 29.8 38.1 L 29.1 38.1 Z M 29.1 41.4 L 29.1 40.6 L 29.8 40.6 L 29.8 41.4 L 29.1 41.4 Z M 33.3 41.4 L 33.3 40.9 C 33.3 40.9 35.3 39.12 35.3 39.1 C 35.7 38.7 36 38.4 36.2 38.2 C 36.4 37.9 36.5 37.6 36.5 37.4 C 36.5 37 36.4 36.8 36.1 36.6 C 35.9 36.4 35.7 36.3 35.3 36.3 C 35 36.3 34.8 36.4 34.5 36.5 C 34.3 36.7 34.1 36.9 33.8 37.2 C 33.8 37.2 33.4 36.9 33.4 36.9 C 33.7 36.5 33.9 36.2 34.2 36 C 34.5 35.8 34.9 35.7 35.4 35.7 C 35.9 35.7 36.3 35.9 36.6 36.2 C 37 36.5 37.1 36.8 37.1 37.3 C 37.1 37.3 37.1 37.3 37.1 37.3 C 37.1 37.7 37 38.1 36.8 38.4 C 36.6 38.7 36.2 39 35.7 39.5 C 35.7 39.5 34.2 40.8 34.2 40.8 L 37.2 40.8 L 37.2 41.4 L 33.3 41.4 Z M 42.3 39.9 C 42.3 40.4 42.1 40.7 41.7 41 C 41.3 41.3 40.8 41.5 40.2 41.5 C 39.6 41.5 39.1 41.3 38.7 41 C 38.3 40.7 38.1 40.4 38.1 39.9 C 38.1 39.9 38.1 39.9 38.1 39.9 C 38.1 39.6 38.2 39.3 38.4 39.1 C 38.6 38.8 38.9 38.6 39.2 38.5 C 38.6 38.2 38.3 37.8 38.3 37.2 C 38.3 37.2 38.3 37.2 38.3 37.2 C 38.3 36.8 38.5 36.4 38.8 36.1 C 39.2 35.9 39.7 35.7 40.2 35.7 C 40.7 35.7 41.2 35.9 41.5 36.1 C 41.9 36.4 42.1 36.8 42.1 37.2 C 42.1 37.2 42.1 37.2 42.1 37.2 C 42.1 37.8 41.8 38.2 41.1 38.5 C 41.5 38.6 41.8 38.8 42 39 C 42.2 39.3 42.3 39.6 42.3 39.9 C 42.3 39.87 42.3 39.9 42.3 39.9 C 42.3 39.9 42.3 39.89 42.3 39.9 Z M 38.9 37.3 C 38.9 37.6 39 37.8 39.3 38 C 39.5 38.2 39.8 38.3 40.2 38.3 C 40.6 38.3 40.9 38.2 41.1 38 C 41.3 37.8 41.5 37.6 41.5 37.3 C 41.5 37.3 41.5 37.2 41.5 37.2 C 41.5 37 41.4 36.7 41.1 36.5 C 40.9 36.4 40.6 36.3 40.2 36.3 C 39.8 36.3 39.5 36.4 39.3 36.5 C 39 36.7 38.9 37 38.9 37.2 C 38.91 37.24 38.9 37.3 38.9 37.3 C 38.9 37.3 38.91 37.26 38.9 37.3 Z M 38.7 39.9 C 38.7 40.2 38.9 40.4 39.1 40.6 C 39.4 40.8 39.7 40.9 40.2 40.9 C 40.6 40.9 41 40.8 41.3 40.6 C 41.5 40.4 41.7 40.2 41.7 39.9 C 41.7 39.9 41.7 39.9 41.7 39.9 C 41.7 39.6 41.5 39.3 41.2 39.1 C 40.9 38.9 40.6 38.8 40.2 38.8 C 39.8 38.8 39.4 38.9 39.2 39.1 C 38.9 39.3 38.7 39.6 38.7 39.9 C 38.73 39.86 38.7 39.9 38.7 39.9 C 38.7 39.9 38.73 39.88 38.7 39.9 Z M 49.4 40.7 C 48.9 41.2 48.3 41.5 47.7 41.5 C 47.1 41.5 46.6 41.3 46.2 40.9 C 45.7 40.4 45.5 39.9 45.5 39.4 C 45.5 39.4 45.5 39.3 45.5 39.3 C 45.5 38.7 45.7 38.2 46.2 37.8 C 46.6 37.4 47.1 37.2 47.7 37.2 C 48.3 37.2 48.9 37.4 49.3 37.9 C 49.3 37.9 48.9 38.3 48.9 38.3 C 48.5 37.9 48.1 37.7 47.7 37.7 C 47.2 37.7 46.9 37.9 46.6 38.2 C 46.3 38.5 46.2 38.9 46.2 39.3 C 46.2 39.3 46.2 39.3 46.2 39.3 C 46.2 39.8 46.3 40.2 46.6 40.5 C 46.9 40.8 47.3 40.9 47.7 40.9 C 48.2 40.9 48.6 40.7 49 40.3 C 48.96 40.33 49.4 40.7 49.4 40.7 C 49.4 40.7 49.35 40.7 49.4 40.7 Z M 50.4 41.4 L 50.4 37.3 L 51 37.3 C 51 37.3 50.98 37.96 51 38 C 51.1 37.7 51.3 37.5 51.5 37.4 C 51.7 37.2 52 37.2 52.3 37.2 C 52.9 37.2 53.4 37.5 53.6 38 C 54 37.5 54.5 37.2 55.1 37.2 C 55.6 37.2 56 37.3 56.2 37.6 C 56.5 37.9 56.6 38.3 56.6 38.8 C 56.64 38.84 56.6 41.4 56.6 41.4 L 56 41.4 C 56 41.4 56.02 38.98 56 39 C 56 38.6 55.9 38.3 55.7 38.1 C 55.5 37.8 55.3 37.7 55 37.7 C 54.6 37.7 54.4 37.9 54.1 38.1 C 53.9 38.3 53.8 38.6 53.8 39 C 53.81 39.02 53.8 41.4 53.8 41.4 L 53.2 41.4 C 53.2 41.4 53.2 38.97 53.2 39 C 53.2 38.6 53.1 38.3 52.9 38.1 C 52.7 37.8 52.5 37.7 52.1 37.7 C 51.8 37.7 51.5 37.9 51.3 38.1 C 51.1 38.3 51 38.7 51 39 C 50.98 39.04 51 41.4 51 41.4 L 50.4 41.4 Z " stroke="none" fill="#000"/>  </g>  <g id="Polygon357367">    <path d="M 3.4 21.3 L 3.4 20.6 L 4.2 20.6 L 4.2 21.3 L 3.4 21.3 Z M 1.9 21.3 L 1.9 20.6 L 2.7 20.6 L 2.7 21.3 L 1.9 21.3 Z M 3 27.5 C 2.3 27.5 1.8 27.3 1.3 26.9 C 0.9 26.4 0.7 25.8 0.7 25.1 C 0.7 25.06 0.7 21.8 0.7 21.8 L 1.3 21.8 C 1.3 21.8 1.34 25.02 1.3 25 C 1.3 25.6 1.5 26.1 1.8 26.4 C 2.1 26.7 2.5 26.9 3 26.9 C 3.6 26.9 4 26.7 4.3 26.4 C 4.6 26.1 4.7 25.7 4.7 25.1 C 4.74 25.06 4.7 21.8 4.7 21.8 L 5.4 21.8 C 5.4 21.8 5.37 25.01 5.4 25 C 5.4 25.8 5.2 26.4 4.7 26.8 C 4.3 27.3 3.8 27.5 3 27.5 Z M 6.8 27.4 L 6.8 23.3 L 7.4 23.3 C 7.4 23.3 7.38 24.34 7.4 24.3 C 7.5 24 7.8 23.7 8.1 23.5 C 8.3 23.3 8.7 23.2 9.1 23.2 C 9.06 23.19 9.1 23.9 9.1 23.9 C 9.1 23.9 9.02 23.86 9 23.9 C 8.5 23.9 8.1 24 7.8 24.4 C 7.5 24.7 7.4 25.1 7.4 25.8 C 7.38 25.75 7.4 27.4 7.4 27.4 L 6.8 27.4 Z M 12.1 22.6 L 12.1 21.9 L 12.8 21.9 L 12.8 22.6 L 12.1 22.6 Z M 10.7 22.6 L 10.7 21.9 L 11.4 21.9 L 11.4 22.6 L 10.7 22.6 Z M 12.9 26.7 C 12.6 27.2 12.1 27.5 11.5 27.5 C 11 27.5 10.6 27.3 10.4 27 C 10.1 26.7 9.9 26.3 9.9 25.8 C 9.94 25.83 9.9 23.3 9.9 23.3 L 10.6 23.3 C 10.6 23.3 10.55 25.68 10.6 25.7 C 10.6 26.1 10.7 26.4 10.9 26.6 C 11.1 26.8 11.3 26.9 11.7 26.9 C 12.1 26.9 12.3 26.8 12.6 26.6 C 12.8 26.3 12.9 26 12.9 25.6 C 12.94 25.63 12.9 23.3 12.9 23.3 L 13.5 23.3 L 13.5 27.4 L 12.9 27.4 L 12.9 26.7 C 12.9 26.7 12.94 26.68 12.9 26.7 Z M 14.9 27.4 L 14.9 23.3 L 15.5 23.3 C 15.5 23.3 15.54 23.98 15.5 24 C 15.9 23.4 16.4 23.2 17 23.2 C 17.5 23.2 17.8 23.3 18.1 23.6 C 18.4 23.9 18.5 24.3 18.5 24.8 C 18.54 24.83 18.5 27.4 18.5 27.4 L 17.9 27.4 C 17.9 27.4 17.93 24.98 17.9 25 C 17.9 24.6 17.8 24.3 17.6 24.1 C 17.4 23.8 17.1 23.7 16.8 23.7 C 16.4 23.7 16.1 23.9 15.9 24.1 C 15.7 24.3 15.5 24.6 15.5 25 C 15.54 25.03 15.5 27.4 15.5 27.4 L 14.9 27.4 Z M 22.4 27.4 L 22.4 21.8 L 23 21.8 L 23 25.1 L 26.2 21.8 L 27 21.8 L 24.6 24.2 L 27.1 27.4 L 26.3 27.4 L 24.2 24.7 L 23 25.9 L 23 27.4 L 22.4 27.4 Z M 29.7 27.5 C 29 27.5 28.5 27.3 28.1 26.9 C 27.7 26.4 27.5 25.9 27.5 25.4 C 27.5 25.4 27.5 25.3 27.5 25.3 C 27.5 24.7 27.7 24.2 28.1 23.8 C 28.5 23.4 29.1 23.2 29.7 23.2 C 30.3 23.2 30.8 23.4 31.2 23.8 C 31.6 24.2 31.8 24.7 31.8 25.3 C 31.8 25.3 31.8 25.3 31.8 25.3 C 31.8 25.9 31.6 26.4 31.2 26.9 C 30.8 27.3 30.3 27.5 29.7 27.5 Z M 29.7 26.9 C 30.1 26.9 30.5 26.8 30.8 26.5 C 31 26.2 31.2 25.8 31.2 25.4 C 31.2 25.4 31.2 25.3 31.2 25.3 C 31.2 24.9 31 24.5 30.7 24.2 C 30.5 23.9 30.1 23.7 29.7 23.7 C 29.2 23.7 28.9 23.9 28.6 24.2 C 28.3 24.5 28.1 24.9 28.1 25.3 C 28.1 25.3 28.1 25.3 28.1 25.3 C 28.1 25.8 28.3 26.2 28.6 26.5 C 28.9 26.8 29.2 26.9 29.7 26.9 Z M 36.3 26.6 C 35.8 27.2 35.3 27.5 34.7 27.5 C 34.1 27.5 33.7 27.3 33.3 26.9 C 32.9 26.5 32.7 26 32.7 25.3 C 32.7 25.3 32.7 25.3 32.7 25.3 C 32.7 24.7 32.9 24.2 33.3 23.8 C 33.7 23.4 34.1 23.2 34.7 23.2 C 35.3 23.2 35.9 23.5 36.3 24.1 C 36.26 24.06 36.3 21.6 36.3 21.6 L 36.9 21.6 L 36.9 27.4 L 36.3 27.4 L 36.3 26.6 C 36.3 26.6 36.26 26.57 36.3 26.6 Z M 34.8 26.9 C 35.2 26.9 35.5 26.8 35.8 26.5 C 36.1 26.2 36.3 25.8 36.3 25.3 C 36.3 25.3 36.3 25.3 36.3 25.3 C 36.3 24.9 36.1 24.5 35.8 24.2 C 35.5 23.9 35.2 23.7 34.8 23.7 C 34.4 23.7 34 23.9 33.7 24.2 C 33.5 24.4 33.3 24.8 33.3 25.3 C 33.3 25.3 33.3 25.3 33.3 25.3 C 33.3 25.8 33.5 26.2 33.7 26.5 C 34 26.8 34.4 26.9 34.8 26.9 Z M 41.2 26.7 C 40.8 27.2 40.4 27.5 39.8 27.5 C 39.3 27.5 38.9 27.3 38.6 27 C 38.3 26.7 38.2 26.3 38.2 25.8 C 38.18 25.83 38.2 23.3 38.2 23.3 L 38.8 23.3 C 38.8 23.3 38.8 25.68 38.8 25.7 C 38.8 26.1 38.9 26.4 39.1 26.6 C 39.3 26.8 39.6 26.9 39.9 26.9 C 40.3 26.9 40.6 26.8 40.8 26.6 C 41.1 26.3 41.2 26 41.2 25.6 C 41.18 25.63 41.2 23.3 41.2 23.3 L 41.8 23.3 L 41.8 27.4 L 41.2 27.4 L 41.2 26.7 C 41.2 26.7 41.18 26.68 41.2 26.7 Z M 43.1 24.1 L 43.1 23.3 L 43.9 23.3 L 43.9 24.1 L 43.1 24.1 Z M 43.1 27.4 L 43.1 26.6 L 43.9 26.6 L 43.9 27.4 L 43.1 27.4 Z M 49.2 27.4 L 49.2 25.2 L 47 21.8 L 48.5 21.8 L 49.8 24 L 51.2 21.8 L 52.6 21.8 L 50.4 25.2 L 50.4 27.4 L 49.2 27.4 Z M 53.3 27.4 L 53.3 21.8 L 54.6 21.8 L 56.1 24.2 L 57.6 21.8 L 58.9 21.8 L 58.9 27.4 L 57.7 27.4 L 57.7 23.7 L 56.1 26.1 L 56.1 26.1 L 54.5 23.8 L 54.5 27.4 L 53.3 27.4 Z M 64.7 27.5 C 64 27.5 63.5 27.3 63.1 26.9 C 62.6 26.5 62.4 25.7 62.4 24.8 C 62.4 24.8 62.4 24.8 62.4 24.8 C 62.4 23.9 62.6 23.1 63 22.6 C 63.5 22 64.1 21.7 64.9 21.7 C 65.5 21.7 66.1 21.9 66.6 22.3 C 66.6 22.3 66 23.3 66 23.3 C 65.8 23.1 65.6 23 65.4 22.9 C 65.3 22.9 65.1 22.8 64.8 22.8 C 64.6 22.8 64.5 22.9 64.3 23 C 64.2 23 64.1 23.2 64 23.3 C 63.9 23.4 63.8 23.6 63.8 23.7 C 63.7 23.8 63.7 24 63.7 24.1 C 64.1 23.9 64.5 23.8 64.9 23.8 C 65.4 23.8 65.9 23.9 66.3 24.2 C 66.7 24.5 66.8 25 66.8 25.5 C 66.8 25.5 66.8 25.6 66.8 25.6 C 66.8 26.1 66.6 26.6 66.2 27 C 65.8 27.3 65.3 27.5 64.7 27.5 Z M 63.7 25.6 C 63.7 25.9 63.8 26.1 63.9 26.2 C 64.1 26.4 64.4 26.4 64.7 26.4 C 65 26.4 65.2 26.4 65.4 26.2 C 65.5 26.1 65.6 25.9 65.6 25.6 C 65.6 25.6 65.6 25.6 65.6 25.6 C 65.6 25.4 65.5 25.2 65.4 25 C 65.2 24.9 64.9 24.8 64.6 24.8 C 64.3 24.8 64.1 24.9 63.9 25 C 63.8 25.2 63.7 25.3 63.7 25.6 C 63.68 25.59 63.7 25.6 63.7 25.6 C 63.7 25.6 63.68 25.61 63.7 25.6 Z M 68.4 25.9 C 68.8 26.2 69.2 26.4 69.7 26.4 C 69.9 26.4 70.1 26.3 70.3 26.1 C 70.5 26 70.6 25.8 70.7 25.7 C 70.7 25.5 70.8 25.3 70.8 25.1 C 70.5 25.4 70.1 25.5 69.7 25.5 C 69 25.5 68.6 25.3 68.2 25 C 67.8 24.7 67.7 24.2 67.7 23.7 C 67.7 23.7 67.7 23.7 67.7 23.7 C 67.7 23.1 67.9 22.6 68.3 22.3 C 68.6 21.9 69.2 21.7 69.8 21.7 C 70.2 21.7 70.5 21.8 70.7 21.8 C 71 21.9 71.2 22.1 71.4 22.3 C 71.8 22.8 72.1 23.5 72.1 24.4 C 72.1 24.4 72.1 24.4 72.1 24.4 C 72.1 25.4 71.9 26.1 71.4 26.7 C 71 27.2 70.4 27.5 69.6 27.5 C 68.9 27.5 68.3 27.3 67.8 26.8 C 67.78 26.83 68.4 25.9 68.4 25.9 C 68.4 25.9 68.43 25.9 68.4 25.9 Z M 69.9 24.5 C 70.2 24.5 70.4 24.4 70.6 24.2 C 70.7 24.1 70.8 23.9 70.8 23.6 C 70.8 23.6 70.8 23.6 70.8 23.6 C 70.8 23.4 70.7 23.2 70.6 23 C 70.4 22.8 70.1 22.8 69.8 22.8 C 69.5 22.8 69.3 22.8 69.1 23 C 69 23.1 68.9 23.4 68.9 23.6 C 68.9 23.6 68.9 23.6 68.9 23.6 C 68.9 23.9 69 24.1 69.1 24.2 C 69.3 24.4 69.6 24.5 69.9 24.5 Z M 75 27.5 C 74.4 27.5 73.9 27.3 73.5 27 C 73.1 26.7 72.9 26.3 72.9 25.9 C 72.9 25.9 72.9 25.8 72.9 25.8 C 72.9 25.5 72.9 25.2 73.1 25 C 73.2 24.8 73.5 24.6 73.8 24.5 C 73.3 24.2 73.1 23.8 73.1 23.3 C 73.1 23.3 73.1 23.3 73.1 23.3 C 73.1 22.8 73.2 22.5 73.6 22.2 C 74 21.9 74.4 21.7 75 21.7 C 75.6 21.7 76.1 21.9 76.4 22.2 C 76.8 22.5 77 22.8 77 23.3 C 77 23.3 77 23.3 77 23.3 C 77 23.8 76.8 24.2 76.3 24.5 C 76.6 24.7 76.8 24.8 77 25 C 77.1 25.2 77.2 25.5 77.2 25.8 C 77.2 25.8 77.2 25.8 77.2 25.8 C 77.2 26.3 77 26.7 76.6 27 C 76.2 27.3 75.7 27.5 75 27.5 Z M 74.2 23.4 C 74.2 23.6 74.3 23.8 74.4 23.9 C 74.6 24 74.8 24.1 75 24.1 C 75.3 24.1 75.5 24 75.6 23.9 C 75.7 23.8 75.8 23.6 75.8 23.4 C 75.8 23.4 75.8 23.4 75.8 23.4 C 75.8 23.2 75.8 23.1 75.6 22.9 C 75.5 22.8 75.3 22.7 75 22.7 C 74.8 22.7 74.6 22.8 74.4 22.9 C 74.3 23 74.2 23.2 74.2 23.4 C 74.22 23.38 74.2 23.4 74.2 23.4 C 74.2 23.4 74.22 23.4 74.2 23.4 Z M 75 26.5 C 75.3 26.5 75.6 26.4 75.7 26.3 C 75.9 26.1 76 26 76 25.8 C 76 25.8 76 25.8 76 25.8 C 76 25.5 75.9 25.4 75.7 25.2 C 75.5 25.1 75.3 25.1 75 25.1 C 74.7 25.1 74.5 25.1 74.3 25.2 C 74.1 25.4 74.1 25.5 74.1 25.8 C 74.1 25.8 74.1 25.8 74.1 25.8 C 74.1 26 74.1 26.1 74.3 26.3 C 74.5 26.4 74.7 26.5 75 26.5 Z M 80.5 27.5 C 79.7 27.5 79.1 27.2 78.7 26.7 C 78.2 26.1 78 25.4 78 24.6 C 78 24.6 78 24.6 78 24.6 C 78 23.8 78.2 23.1 78.7 22.5 C 79.1 22 79.7 21.7 80.5 21.7 C 81.2 21.7 81.8 22 82.3 22.5 C 82.7 23.1 83 23.8 83 24.6 C 83 24.6 83 24.6 83 24.6 C 83 25.4 82.7 26.1 82.3 26.7 C 81.8 27.2 81.2 27.5 80.5 27.5 Z M 79.2 24.6 C 79.2 25.1 79.4 25.5 79.6 25.9 C 79.8 26.2 80.1 26.4 80.5 26.4 C 80.8 26.4 81.1 26.2 81.4 25.9 C 81.6 25.6 81.7 25.1 81.7 24.6 C 81.7 24.6 81.7 24.6 81.7 24.6 C 81.7 24.1 81.6 23.7 81.3 23.3 C 81.1 23 80.8 22.8 80.5 22.8 C 80.1 22.8 79.8 23 79.6 23.3 C 79.4 23.6 79.2 24.1 79.2 24.6 C 79.24 24.58 79.2 24.6 79.2 24.6 C 79.2 24.6 79.24 24.6 79.2 24.6 Z " stroke="none" fill="#000"/>  </g>  <g id="Polygon357366">    <path d="M 6.4 10.6 C 6.4 11.4 6.1 12.1 5.5 12.7 C 5 13.2 4.2 13.5 3.4 13.5 C 2.5 13.5 1.8 13.2 1.3 12.7 C 0.7 12.1 0.4 11.4 0.4 10.6 C 0.4 10.6 0.4 10.6 0.4 10.6 C 0.4 9.8 0.7 9.1 1.3 8.5 C 1.8 8 2.6 7.7 3.4 7.7 C 4.3 7.7 5 8 5.5 8.5 C 6.1 9.1 6.4 9.8 6.4 10.6 C 6.38 10.58 6.4 10.6 6.4 10.6 C 6.4 10.6 6.38 10.6 6.4 10.6 Z M 1.7 10.6 C 1.7 11.1 1.9 11.5 2.2 11.8 C 2.5 12.2 2.9 12.4 3.4 12.4 C 3.9 12.4 4.3 12.2 4.6 11.9 C 4.9 11.5 5.1 11.1 5.1 10.6 C 5.1 10.6 5.1 10.6 5.1 10.6 C 5.1 10.1 4.9 9.7 4.6 9.4 C 4.3 9 3.9 8.8 3.4 8.8 C 2.9 8.8 2.5 9 2.2 9.3 C 1.9 9.7 1.7 10.1 1.7 10.6 C 1.71 10.58 1.7 10.6 1.7 10.6 C 1.7 10.6 1.71 10.6 1.7 10.6 Z M 8.6 13.4 L 7 9.1 L 8.2 9.1 L 9.2 12 L 10.2 9.1 L 11.4 9.1 L 9.8 13.4 L 8.6 13.4 Z M 14.5 12.9 C 14.1 13.3 13.7 13.5 13.2 13.5 C 12.7 13.5 12.4 13.4 12.1 13.1 C 11.8 12.9 11.7 12.6 11.7 12.2 C 11.7 12.2 11.7 12.2 11.7 12.2 C 11.7 11.7 11.8 11.4 12.2 11.1 C 12.5 10.9 12.9 10.8 13.4 10.8 C 13.8 10.8 14.1 10.8 14.5 11 C 14.5 11 14.5 10.9 14.5 10.9 C 14.5 10.4 14.2 10.1 13.5 10.1 C 13.2 10.1 12.8 10.2 12.4 10.3 C 12.4 10.3 12.1 9.4 12.1 9.4 C 12.6 9.2 13.1 9.1 13.7 9.1 C 14.4 9.1 14.8 9.2 15.2 9.5 C 15.5 9.9 15.6 10.3 15.6 10.9 C 15.63 10.91 15.6 13.4 15.6 13.4 L 14.5 13.4 L 14.5 12.9 C 14.5 12.9 14.46 12.94 14.5 12.9 Z M 13.5 12.6 C 13.8 12.6 14 12.6 14.2 12.4 C 14.4 12.3 14.5 12.1 14.5 11.9 C 14.5 11.9 14.5 11.7 14.5 11.7 C 14.2 11.6 14 11.5 13.7 11.5 C 13.4 11.5 13.2 11.6 13.1 11.7 C 12.9 11.8 12.9 11.9 12.9 12.1 C 12.9 12.1 12.9 12.1 12.9 12.1 C 12.9 12.3 12.9 12.4 13 12.5 C 13.2 12.6 13.3 12.6 13.5 12.6 Z M 16.7 13.4 L 16.7 7.6 L 18 7.6 L 18 13.4 L 16.7 13.4 Z M 23.5 14.8 L 22.5 14.4 C 22.5 14.4 23.08 13.44 23.1 13.4 C 22.4 13.3 21.8 13.1 21.2 12.6 C 21.2 12.6 22 11.7 22 11.7 C 22.5 12.2 23.1 12.4 23.6 12.4 C 23.9 12.4 24.1 12.3 24.2 12.3 C 24.4 12.2 24.4 12 24.4 11.9 C 24.4 11.9 24.4 11.8 24.4 11.8 C 24.4 11.7 24.4 11.6 24.2 11.5 C 24.1 11.4 23.8 11.2 23.3 11.1 C 23 11.1 22.7 11 22.5 10.9 C 22.3 10.8 22.2 10.7 22 10.6 C 21.8 10.5 21.7 10.3 21.6 10.1 C 21.5 9.9 21.5 9.7 21.5 9.4 C 21.5 9.4 21.5 9.4 21.5 9.4 C 21.5 8.9 21.6 8.5 22 8.2 C 22.4 7.9 22.8 7.7 23.4 7.7 C 24.2 7.7 24.9 8 25.5 8.4 C 25.5 8.4 24.9 9.4 24.9 9.4 C 24.3 9 23.8 8.8 23.4 8.8 C 23.2 8.8 23 8.9 22.9 8.9 C 22.7 9 22.7 9.2 22.7 9.3 C 22.7 9.3 22.7 9.3 22.7 9.3 C 22.7 9.5 22.8 9.6 22.9 9.7 C 23.1 9.8 23.4 9.9 23.9 10 C 24.5 10.2 25 10.4 25.2 10.7 C 25.5 10.9 25.7 11.3 25.7 11.7 C 25.7 11.7 25.7 11.7 25.7 11.7 C 25.7 12.2 25.5 12.6 25.2 12.9 C 24.9 13.2 24.5 13.4 24 13.5 C 24.01 13.46 23.5 14.8 23.5 14.8 Z M 30.4 12.7 C 30 13.2 29.4 13.5 28.6 13.5 C 28 13.5 27.5 13.3 27 12.9 C 26.6 12.5 26.4 11.9 26.4 11.3 C 26.4 11.3 26.4 11.3 26.4 11.3 C 26.4 10.6 26.6 10.1 27 9.7 C 27.4 9.2 27.9 9 28.5 9 C 29.2 9 29.7 9.3 30.1 9.7 C 30.4 10.2 30.6 10.7 30.6 11.4 C 30.6 11.4 30.6 11.5 30.6 11.7 C 30.6 11.7 27.6 11.7 27.6 11.7 C 27.7 12 27.8 12.2 28 12.3 C 28.2 12.4 28.4 12.5 28.7 12.5 C 29 12.5 29.4 12.4 29.7 12.1 C 29.7 12.08 30.4 12.7 30.4 12.7 C 30.4 12.7 30.4 12.7 30.4 12.7 Z M 27.6 10.9 C 27.6 10.9 29.4 10.9 29.4 10.9 C 29.4 10.6 29.3 10.4 29.1 10.3 C 29 10.1 28.8 10 28.5 10 C 28.3 10 28.1 10.1 27.9 10.3 C 27.8 10.4 27.6 10.6 27.6 10.9 Z M 31.5 13.4 L 31.5 9.1 L 32.7 9.1 C 32.7 9.1 32.74 9.72 32.7 9.7 C 33.1 9.3 33.5 9 34 9 C 34.6 9 35 9.3 35.2 9.7 C 35.6 9.3 36.1 9 36.6 9 C 37.1 9 37.4 9.2 37.7 9.4 C 37.9 9.7 38.1 10.1 38.1 10.6 C 38.06 10.61 38.1 13.4 38.1 13.4 L 36.8 13.4 C 36.8 13.4 36.85 11.01 36.8 11 C 36.8 10.4 36.6 10.1 36.1 10.1 C 35.9 10.1 35.7 10.2 35.6 10.4 C 35.5 10.5 35.4 10.7 35.4 11 C 35.4 11.01 35.4 13.4 35.4 13.4 L 34.2 13.4 C 34.2 13.4 34.18 11.01 34.2 11 C 34.2 10.4 33.9 10.1 33.5 10.1 C 33.2 10.1 33.1 10.2 32.9 10.4 C 32.8 10.5 32.7 10.7 32.7 11 C 32.74 11.01 32.7 13.4 32.7 13.4 L 31.5 13.4 Z M 40.6 13.5 C 40 13.5 39.3 13.3 38.8 12.8 C 38.8 12.8 39.3 12 39.3 12 C 39.8 12.4 40.2 12.5 40.7 12.5 C 41 12.5 41.2 12.4 41.2 12.2 C 41.2 12.2 41.2 12.2 41.2 12.2 C 41.2 12.2 41.2 12.1 41.1 12.1 C 41.1 12.1 41.1 12 41.1 12 C 41 12 41 12 41 12 C 40.9 11.9 40.9 11.9 40.8 11.9 C 40.8 11.9 40.7 11.8 40.7 11.8 C 40.6 11.8 40.6 11.8 40.5 11.8 C 40.4 11.7 40.3 11.7 40.3 11.7 C 40.1 11.7 40 11.6 39.8 11.6 C 39.7 11.5 39.6 11.4 39.4 11.3 C 39.3 11.2 39.2 11.1 39.1 10.9 C 39 10.8 39 10.6 39 10.4 C 39 10.4 39 10.4 39 10.4 C 39 10 39.1 9.7 39.4 9.4 C 39.7 9.2 40.1 9 40.6 9 C 41.1 9 41.7 9.2 42.2 9.5 C 42.2 9.5 41.7 10.4 41.7 10.4 C 41.3 10.1 40.9 10 40.5 10 C 40.4 10 40.3 10 40.2 10.1 C 40.1 10.1 40.1 10.2 40.1 10.3 C 40.1 10.3 40.1 10.3 40.1 10.3 C 40.1 10.4 40.2 10.5 40.3 10.6 C 40.5 10.6 40.7 10.7 41 10.8 C 41.1 10.9 41.3 10.9 41.4 11 C 41.6 11 41.7 11.1 41.8 11.2 C 42 11.3 42.1 11.4 42.2 11.6 C 42.2 11.7 42.3 11.9 42.3 12.1 C 42.3 12.1 42.3 12.1 42.3 12.1 C 42.3 12.6 42.1 12.9 41.8 13.1 C 41.5 13.4 41.1 13.5 40.6 13.5 Z M 43.2 8.6 L 43.2 7.6 L 44.4 7.6 L 44.4 8.6 L 43.2 8.6 Z M 43.2 13.4 L 43.2 9.1 L 44.4 9.1 L 44.4 13.4 L 43.2 13.4 Z M 47.4 12 L 48.4 9.1 L 49.6 9.1 C 49.6 9.1 47.98 13.5 48 13.5 C 47.8 13.9 47.6 14.3 47.4 14.4 C 47.2 14.6 46.9 14.7 46.6 14.7 C 46.2 14.7 45.8 14.6 45.5 14.4 C 45.5 14.4 45.9 13.5 45.9 13.5 C 46.1 13.6 46.3 13.7 46.4 13.7 C 46.5 13.7 46.6 13.7 46.7 13.6 C 46.7 13.6 46.8 13.5 46.8 13.4 C 46.85 13.42 45.2 9.1 45.2 9.1 L 46.5 9.1 L 47.4 12 Z M 53.9 12.7 C 53.5 13.2 52.9 13.5 52.1 13.5 C 51.5 13.5 51 13.3 50.5 12.9 C 50.1 12.5 49.9 11.9 49.9 11.3 C 49.9 11.3 49.9 11.3 49.9 11.3 C 49.9 10.6 50.1 10.1 50.5 9.7 C 50.9 9.2 51.4 9 52 9 C 52.7 9 53.2 9.3 53.6 9.7 C 53.9 10.2 54.1 10.7 54.1 11.4 C 54.1 11.4 54.1 11.5 54.1 11.7 C 54.1 11.7 51.1 11.7 51.1 11.7 C 51.2 12 51.3 12.2 51.5 12.3 C 51.7 12.4 51.9 12.5 52.2 12.5 C 52.5 12.5 52.9 12.4 53.2 12.1 C 53.2 12.08 53.9 12.7 53.9 12.7 C 53.9 12.7 53.9 12.7 53.9 12.7 Z M 51.1 10.9 C 51.1 10.9 52.9 10.9 52.9 10.9 C 52.9 10.6 52.8 10.4 52.6 10.3 C 52.5 10.1 52.3 10 52 10 C 51.8 10 51.6 10.1 51.4 10.3 C 51.2 10.4 51.1 10.6 51.1 10.9 Z M 55.1 13.4 L 55.1 7.6 L 56.3 7.6 L 56.3 13.4 L 55.1 13.4 Z M 57.5 8.6 L 57.5 7.6 L 58.7 7.6 L 58.7 8.6 L 57.5 8.6 Z M 57.5 13.4 L 57.5 9.1 L 58.7 9.1 L 58.7 13.4 L 57.5 13.4 Z M 59.8 13.4 L 59.8 7.6 L 61.1 7.6 L 61.1 10.7 L 62.5 9.1 L 63.9 9.1 L 62.3 10.8 L 64 13.4 L 62.6 13.4 L 61.5 11.6 L 61.1 12.1 L 61.1 13.4 L 59.8 13.4 Z " stroke="none" fill="#000"/>  </g></svg>