<?xml version="1.0" standalone="no"?><!DOCTYPE svg PUBLIC "-//W3C//DTD SVG 1.1//EN" "http://www.w3.org/Graphics/SVG/1.1/DTD/svg11.dtd"><svg xmlns="http://www.w3.org/2000/svg" version="1.1" width="141.3px" height="79.4px" viewBox="0 -3 141.3 79.4" style="top:-3px">  <desc>Ume S v Sabunluk 250 ml r n Kodu: ZD 36622 Renk: Mat Pirin Malzeme: SS304 Pirin kaplama l ler: 12,80 Tasar m: Ume</desc>  <defs/>  <g id="Polygon46354">    <path d="M 2 59.6 L 2 55.2 L 0.3 55.2 L 0.3 54.7 L 4.2 54.7 L 4.2 55.2 L 2.5 55.2 L 2.5 59.6 L 2 59.6 Z M 7.5 59.1 C 7.2 59.5 6.7 59.7 6.2 59.7 C 5.8 59.7 5.5 59.6 5.2 59.4 C 5 59.2 4.8 58.9 4.8 58.5 C 4.8 58.5 4.8 58.5 4.8 58.5 C 4.8 58.2 5 57.9 5.2 57.7 C 5.5 57.5 5.9 57.4 6.4 57.4 C 6.7 57.4 7.1 57.4 7.5 57.5 C 7.5 57.5 7.5 57.4 7.5 57.4 C 7.5 57.1 7.4 56.8 7.2 56.7 C 7 56.5 6.7 56.4 6.4 56.4 C 6 56.4 5.7 56.5 5.3 56.7 C 5.3 56.7 5.1 56.2 5.1 56.2 C 5.6 56 6 55.9 6.5 55.9 C 7 55.9 7.4 56.1 7.6 56.3 C 7.9 56.6 8 56.9 8 57.4 C 7.99 57.39 8 59.6 8 59.6 L 7.5 59.6 L 7.5 59.1 C 7.5 59.1 7.48 59.05 7.5 59.1 Z M 6.3 59.2 C 6.6 59.2 6.9 59.2 7.1 59 C 7.4 58.8 7.5 58.6 7.5 58.3 C 7.5 58.3 7.5 57.9 7.5 57.9 C 7.1 57.8 6.8 57.8 6.4 57.8 C 6.1 57.8 5.8 57.8 5.6 58 C 5.5 58.1 5.4 58.3 5.4 58.5 C 5.4 58.5 5.4 58.5 5.4 58.5 C 5.4 58.7 5.5 58.9 5.6 59.1 C 5.8 59.2 6 59.2 6.3 59.2 Z M 10.3 59.7 C 9.8 59.7 9.3 59.5 8.8 59.1 C 8.8 59.1 9.1 58.8 9.1 58.8 C 9.5 59.1 9.9 59.2 10.4 59.2 C 10.6 59.2 10.8 59.2 10.9 59.1 C 11 59 11.1 58.8 11.1 58.6 C 11.1 58.6 11.1 58.6 11.1 58.6 C 11.1 58.5 11 58.3 10.9 58.2 C 10.7 58.2 10.5 58.1 10.2 58 C 10.1 58 10 57.9 9.9 57.9 C 9.9 57.9 9.8 57.8 9.7 57.8 C 9.5 57.8 9.5 57.7 9.4 57.7 C 9.3 57.6 9.3 57.6 9.2 57.5 C 9.1 57.4 9.1 57.4 9.1 57.3 C 9 57.2 9 57.1 9 57 C 9 57 9 57 9 57 C 9 56.6 9.1 56.4 9.4 56.2 C 9.6 56 9.9 55.9 10.2 55.9 C 10.7 55.9 11.1 56.1 11.5 56.3 C 11.5 56.3 11.3 56.7 11.3 56.7 C 10.9 56.5 10.6 56.4 10.2 56.4 C 10 56.4 9.9 56.4 9.7 56.5 C 9.6 56.6 9.5 56.7 9.5 56.9 C 9.5 56.9 9.5 56.9 9.5 56.9 C 9.5 57 9.6 57 9.6 57.1 C 9.6 57.1 9.7 57.2 9.7 57.2 C 9.8 57.3 9.8 57.3 9.9 57.4 C 10 57.4 10.1 57.4 10.2 57.4 C 10.2 57.5 10.3 57.5 10.5 57.5 C 10.6 57.6 10.7 57.6 10.8 57.6 C 10.9 57.7 11 57.7 11.1 57.8 C 11.2 57.8 11.3 57.9 11.4 58 C 11.5 58 11.5 58.1 11.6 58.2 C 11.6 58.3 11.6 58.4 11.6 58.6 C 11.6 58.6 11.6 58.6 11.6 58.6 C 11.6 58.9 11.5 59.2 11.3 59.4 C 11 59.6 10.7 59.7 10.3 59.7 Z M 15 59.1 C 14.7 59.5 14.3 59.7 13.7 59.7 C 13.3 59.7 13 59.6 12.8 59.4 C 12.5 59.2 12.4 58.9 12.4 58.5 C 12.4 58.5 12.4 58.5 12.4 58.5 C 12.4 58.2 12.5 57.9 12.8 57.7 C 13.1 57.5 13.4 57.4 13.9 57.4 C 14.3 57.4 14.6 57.4 15 57.5 C 15 57.5 15 57.4 15 57.4 C 15 57.1 14.9 56.8 14.7 56.7 C 14.5 56.5 14.3 56.4 13.9 56.4 C 13.6 56.4 13.2 56.5 12.8 56.7 C 12.8 56.7 12.7 56.2 12.7 56.2 C 13.1 56 13.5 55.9 14 55.9 C 14.5 55.9 14.9 56.1 15.2 56.3 C 15.4 56.6 15.5 56.9 15.5 57.4 C 15.53 57.39 15.5 59.6 15.5 59.6 L 15 59.6 L 15 59.1 C 15 59.1 15.01 59.05 15 59.1 Z M 13.8 59.2 C 14.2 59.2 14.4 59.2 14.7 59 C 14.9 58.8 15 58.6 15 58.3 C 15 58.3 15 57.9 15 57.9 C 14.7 57.8 14.3 57.8 14 57.8 C 13.6 57.8 13.4 57.8 13.2 58 C 13 58.1 12.9 58.3 12.9 58.5 C 12.9 58.5 12.9 58.5 12.9 58.5 C 12.9 58.7 13 58.9 13.2 59.1 C 13.3 59.2 13.6 59.2 13.8 59.2 Z M 16.7 59.6 L 16.7 56 L 17.2 56 C 17.2 56 17.22 56.93 17.2 56.9 C 17.4 56.6 17.6 56.4 17.8 56.2 C 18.1 56 18.4 55.9 18.7 55.9 C 18.7 55.92 18.7 56.5 18.7 56.5 C 18.7 56.5 18.65 56.5 18.7 56.5 C 18.2 56.5 17.9 56.6 17.6 56.9 C 17.4 57.2 17.2 57.6 17.2 58.2 C 17.22 58.16 17.2 59.6 17.2 59.6 L 16.7 59.6 Z M 19.6 59.6 L 19.6 56 L 20.1 56 L 20.1 59.6 L 19.6 59.6 Z M 21.4 59.6 L 21.4 56 L 21.9 56 C 21.9 56 21.9 56.59 21.9 56.6 C 22 56.4 22.2 56.2 22.4 56.1 C 22.6 56 22.8 55.9 23.1 55.9 C 23.6 55.9 24 56.1 24.2 56.6 C 24.5 56.1 25 55.9 25.5 55.9 C 25.9 55.9 26.2 56 26.5 56.3 C 26.7 56.6 26.8 56.9 26.8 57.4 C 26.84 57.36 26.8 59.6 26.8 59.6 L 26.3 59.6 C 26.3 59.6 26.31 57.49 26.3 57.5 C 26.3 57.1 26.2 56.9 26.1 56.7 C 25.9 56.5 25.7 56.4 25.4 56.4 C 25.1 56.4 24.9 56.5 24.7 56.7 C 24.5 56.9 24.4 57.2 24.4 57.5 C 24.37 57.51 24.4 59.6 24.4 59.6 L 23.8 59.6 C 23.8 59.6 23.83 57.47 23.8 57.5 C 23.8 57.1 23.8 56.9 23.6 56.7 C 23.4 56.5 23.2 56.4 22.9 56.4 C 22.6 56.4 22.4 56.5 22.2 56.7 C 22 56.9 21.9 57.2 21.9 57.5 C 21.9 57.53 21.9 59.6 21.9 59.6 L 21.4 59.6 Z M 28 56.7 L 28 56 L 28.6 56 L 28.6 56.7 L 28 56.7 Z M 28 59.6 L 28 58.9 L 28.6 58.9 L 28.6 59.6 L 28 59.6 Z M 33.9 59.7 C 33.3 59.7 32.8 59.5 32.4 59.1 C 32.1 58.7 31.9 58.2 31.9 57.5 C 31.88 57.55 31.9 54.7 31.9 54.7 L 32.4 54.7 C 32.4 54.7 32.44 57.51 32.4 57.5 C 32.4 58 32.6 58.4 32.8 58.7 C 33.1 59 33.5 59.2 33.9 59.2 C 34.4 59.2 34.8 59 35 58.8 C 35.3 58.5 35.4 58.1 35.4 57.5 C 35.41 57.55 35.4 54.7 35.4 54.7 L 36 54.7 C 36 54.7 35.97 57.51 36 57.5 C 36 58.2 35.8 58.7 35.4 59.1 C 35 59.5 34.6 59.7 33.9 59.7 Z M 37.2 59.6 L 37.2 56 L 37.7 56 C 37.7 56 37.72 56.59 37.7 56.6 C 37.9 56.4 38 56.2 38.2 56.1 C 38.4 56 38.6 55.9 38.9 55.9 C 39.4 55.9 39.8 56.1 40.1 56.6 C 40.4 56.1 40.8 55.9 41.3 55.9 C 41.7 55.9 42.1 56 42.3 56.3 C 42.6 56.6 42.7 56.9 42.7 57.4 C 42.67 57.36 42.7 59.6 42.7 59.6 L 42.1 59.6 C 42.1 59.6 42.13 57.49 42.1 57.5 C 42.1 57.1 42 56.9 41.9 56.7 C 41.7 56.5 41.5 56.4 41.2 56.4 C 40.9 56.4 40.7 56.5 40.5 56.7 C 40.3 56.9 40.2 57.2 40.2 57.5 C 40.19 57.51 40.2 59.6 40.2 59.6 L 39.7 59.6 C 39.7 59.6 39.66 57.47 39.7 57.5 C 39.7 57.1 39.6 56.9 39.4 56.7 C 39.2 56.5 39 56.4 38.7 56.4 C 38.4 56.4 38.2 56.5 38 56.7 C 37.8 56.9 37.7 57.2 37.7 57.5 C 37.72 57.53 37.7 59.6 37.7 59.6 L 37.2 59.6 Z M 46.9 59 C 46.5 59.5 46 59.7 45.4 59.7 C 44.9 59.7 44.5 59.5 44.1 59.2 C 43.8 58.8 43.6 58.4 43.6 57.8 C 43.6 57.8 43.6 57.8 43.6 57.8 C 43.6 57.3 43.8 56.8 44.1 56.4 C 44.4 56.1 44.8 55.9 45.3 55.9 C 45.8 55.9 46.3 56.1 46.6 56.4 C 46.9 56.8 47 57.3 47 57.8 C 47 57.9 47 57.9 47 58 C 47 58 44.1 58 44.1 58 C 44.2 58.4 44.3 58.7 44.6 58.9 C 44.8 59.1 45.1 59.2 45.4 59.2 C 45.8 59.2 46.2 59 46.6 58.7 C 46.56 58.7 46.9 59 46.9 59 C 46.9 59 46.89 59 46.9 59 Z M 44.1 57.6 C 44.1 57.6 46.5 57.6 46.5 57.6 C 46.4 57.2 46.3 56.9 46.1 56.7 C 45.9 56.5 45.7 56.4 45.3 56.4 C 45 56.4 44.7 56.5 44.5 56.7 C 44.3 56.9 44.2 57.2 44.1 57.6 Z " stroke="none" fill="#000"/>  </g>  <g id="Polygon46353">    <path d="M 3.3 45.2 L 3.3 44.6 L 4 44.6 L 4 45.2 L 3.3 45.2 Z M 2 45.2 L 2 44.6 L 2.6 44.6 L 2.6 45.2 L 2 45.2 Z M 5.5 48.1 C 5.5 48.8 5.2 49.4 4.8 49.9 C 4.3 50.4 3.7 50.7 3 50.7 C 2.2 50.7 1.6 50.4 1.2 49.9 C 0.7 49.5 0.5 48.9 0.5 48.2 C 0.5 48.2 0.5 48.1 0.5 48.1 C 0.5 47.5 0.7 46.9 1.2 46.4 C 1.7 45.9 2.3 45.6 3 45.6 C 3.7 45.6 4.3 45.9 4.8 46.4 C 5.2 46.8 5.5 47.4 5.5 48.1 C 5.47 48.14 5.5 48.1 5.5 48.1 C 5.5 48.1 5.47 48.15 5.5 48.1 Z M 1.1 48.1 C 1.1 48.7 1.2 49.2 1.6 49.6 C 2 50 2.4 50.2 3 50.2 C 3.5 50.2 4 50 4.4 49.6 C 4.7 49.2 4.9 48.7 4.9 48.2 C 4.9 48.2 4.9 48.1 4.9 48.1 C 4.9 47.6 4.7 47.1 4.4 46.7 C 4 46.3 3.5 46.1 3 46.1 C 2.4 46.1 2 46.3 1.6 46.7 C 1.2 47.1 1.1 47.6 1.1 48.1 C 1.05 48.14 1.1 48.1 1.1 48.1 C 1.1 48.1 1.05 48.15 1.1 48.1 Z M 6.6 50.6 L 6.6 45.5 L 7.1 45.5 L 7.1 50.6 L 6.6 50.6 Z M 9.7 51.7 L 9.1 51.4 C 9.1 51.4 9.69 50.65 9.7 50.6 C 9.2 50.6 8.9 50.4 8.6 50 C 8.3 49.7 8.2 49.3 8.2 48.8 C 8.2 48.8 8.2 48.8 8.2 48.8 C 8.2 48.3 8.3 47.8 8.7 47.5 C 9.1 47.1 9.5 46.9 10 46.9 C 10.6 46.9 11.1 47.1 11.5 47.5 C 11.5 47.5 11.1 47.9 11.1 47.9 C 10.8 47.6 10.4 47.4 10 47.4 C 9.6 47.4 9.3 47.5 9.1 47.8 C 8.8 48.1 8.7 48.4 8.7 48.8 C 8.7 48.8 8.7 48.8 8.7 48.8 C 8.7 49.2 8.8 49.5 9.1 49.8 C 9.4 50.1 9.7 50.2 10.1 50.2 C 10.5 50.2 10.8 50 11.2 49.7 C 11.2 49.7 11.5 50 11.5 50 C 11.1 50.4 10.7 50.7 10.1 50.7 C 10.13 50.68 9.7 51.7 9.7 51.7 Z M 14.2 46.4 L 14.2 45.8 L 14.8 45.8 L 14.8 46.4 L 14.2 46.4 Z M 13 46.4 L 13 45.8 L 13.6 45.8 L 13.6 46.4 L 13 46.4 Z M 15 50 C 14.7 50.4 14.3 50.7 13.7 50.7 C 13.3 50.7 13 50.5 12.7 50.3 C 12.5 50 12.3 49.7 12.3 49.2 C 12.33 49.23 12.3 47 12.3 47 L 12.9 47 C 12.9 47 12.87 49.09 12.9 49.1 C 12.9 49.4 13 49.7 13.1 49.9 C 13.3 50.1 13.6 50.2 13.9 50.2 C 14.2 50.2 14.4 50.1 14.7 49.9 C 14.9 49.7 15 49.4 15 49.1 C 14.96 49.05 15 47 15 47 L 15.5 47 L 15.5 50.6 L 15 50.6 L 15 50 C 15 50 14.96 49.97 15 50 Z M 16.8 50.6 L 16.8 45.5 L 17.3 45.5 L 17.3 50.6 L 16.8 50.6 Z M 21.6 50 C 21.2 50.5 20.7 50.7 20.1 50.7 C 19.6 50.7 19.2 50.5 18.8 50.2 C 18.5 49.8 18.3 49.4 18.3 48.8 C 18.3 48.8 18.3 48.8 18.3 48.8 C 18.3 48.3 18.5 47.8 18.8 47.4 C 19.1 47.1 19.6 46.9 20.1 46.9 C 20.6 46.9 21 47.1 21.3 47.4 C 21.6 47.8 21.7 48.3 21.7 48.8 C 21.7 48.9 21.7 48.9 21.7 49 C 21.7 49 18.9 49 18.9 49 C 18.9 49.4 19 49.7 19.3 49.9 C 19.5 50.1 19.8 50.2 20.1 50.2 C 20.6 50.2 20.9 50 21.3 49.7 C 21.28 49.7 21.6 50 21.6 50 C 21.6 50 21.62 50 21.6 50 Z M 18.9 48.6 C 18.9 48.6 21.2 48.6 21.2 48.6 C 21.2 48.2 21.1 47.9 20.9 47.7 C 20.7 47.5 20.4 47.4 20 47.4 C 19.7 47.4 19.5 47.5 19.2 47.7 C 19 47.9 18.9 48.2 18.9 48.6 Z M 22.7 50.6 L 22.7 47 L 23.2 47 C 23.2 47 23.23 47.93 23.2 47.9 C 23.4 47.6 23.6 47.4 23.8 47.2 C 24.1 47 24.4 46.9 24.7 46.9 C 24.7 46.92 24.7 47.5 24.7 47.5 C 24.7 47.5 24.66 47.5 24.7 47.5 C 24.2 47.5 23.9 47.6 23.6 47.9 C 23.4 48.2 23.2 48.6 23.2 49.2 C 23.23 49.16 23.2 50.6 23.2 50.6 L 22.7 50.6 Z M 25.5 47.7 L 25.5 47 L 26.1 47 L 26.1 47.7 L 25.5 47.7 Z M 25.5 50.6 L 25.5 49.9 L 26.1 49.9 L 26.1 50.6 L 25.5 50.6 Z M 30.1 50.6 L 30.1 46.2 L 29.1 46.5 L 29 46.1 L 30.2 45.7 L 30.6 45.7 L 30.6 50.6 L 30.1 50.6 Z M 31.6 50.6 L 31.6 50.2 C 31.6 50.2 33.42 48.6 33.4 48.6 C 33.8 48.3 34.1 48 34.2 47.8 C 34.4 47.5 34.4 47.3 34.4 47.1 C 34.4 46.8 34.3 46.6 34.2 46.4 C 34 46.2 33.7 46.1 33.5 46.1 C 33.2 46.1 32.9 46.2 32.7 46.3 C 32.5 46.5 32.3 46.7 32.1 47 C 32.1 47 31.7 46.7 31.7 46.7 C 32 46.3 32.2 46 32.5 45.9 C 32.7 45.7 33.1 45.6 33.5 45.6 C 33.9 45.6 34.3 45.8 34.6 46 C 34.9 46.3 35 46.6 35 47 C 35 47 35 47 35 47 C 35 47.4 34.9 47.7 34.7 47.9 C 34.6 48.2 34.2 48.5 33.8 48.9 C 33.77 48.93 32.5 50.1 32.5 50.1 L 35.1 50.1 L 35.1 50.6 L 31.6 50.6 Z M 35.9 51.5 C 35.9 51.5 35.8 51.2 35.8 51.2 C 36.2 51.1 36.3 50.9 36.3 50.6 C 36.29 50.6 36 50.6 36 50.6 L 36 49.9 L 36.7 49.9 C 36.7 49.9 36.68 50.49 36.7 50.5 C 36.7 50.8 36.6 51 36.5 51.1 C 36.4 51.3 36.2 51.4 35.9 51.5 Z M 41.3 49.3 C 41.3 49.7 41.1 50 40.7 50.3 C 40.4 50.5 39.9 50.7 39.4 50.7 C 38.9 50.7 38.5 50.5 38.1 50.3 C 37.8 50 37.6 49.7 37.6 49.3 C 37.6 49.3 37.6 49.3 37.6 49.3 C 37.6 49 37.7 48.7 37.8 48.5 C 38 48.3 38.3 48.2 38.6 48.1 C 38 47.8 37.7 47.4 37.7 46.9 C 37.7 46.9 37.7 46.9 37.7 46.9 C 37.7 46.6 37.9 46.2 38.2 46 C 38.6 45.8 39 45.6 39.4 45.6 C 39.9 45.6 40.3 45.8 40.6 46 C 40.9 46.2 41.1 46.6 41.1 46.9 C 41.1 46.9 41.1 46.9 41.1 46.9 C 41.1 47.4 40.8 47.8 40.2 48.1 C 40.6 48.2 40.8 48.3 41 48.5 C 41.2 48.7 41.3 49 41.3 49.3 C 41.26 49.26 41.3 49.3 41.3 49.3 C 41.3 49.3 41.26 49.28 41.3 49.3 Z M 38.3 47 C 38.3 47.2 38.4 47.4 38.6 47.6 C 38.8 47.8 39.1 47.9 39.4 47.9 C 39.7 47.9 40 47.8 40.2 47.6 C 40.4 47.4 40.5 47.2 40.5 47 C 40.5 47 40.5 47 40.5 47 C 40.5 46.7 40.4 46.5 40.2 46.4 C 40 46.2 39.7 46.1 39.4 46.1 C 39.1 46.1 38.8 46.2 38.6 46.4 C 38.4 46.5 38.3 46.7 38.3 47 C 38.3 46.96 38.3 47 38.3 47 C 38.3 47 38.3 46.97 38.3 47 Z M 38.1 49.3 C 38.1 49.5 38.3 49.7 38.5 49.9 C 38.7 50.1 39 50.2 39.4 50.2 C 39.8 50.2 40.1 50.1 40.4 49.9 C 40.6 49.7 40.7 49.5 40.7 49.3 C 40.7 49.3 40.7 49.3 40.7 49.3 C 40.7 49 40.6 48.8 40.3 48.6 C 40.1 48.4 39.8 48.3 39.4 48.3 C 39.1 48.3 38.8 48.4 38.5 48.6 C 38.3 48.8 38.1 49 38.1 49.3 C 38.14 49.26 38.1 49.3 38.1 49.3 C 38.1 49.3 38.14 49.27 38.1 49.3 Z M 46.2 48.1 C 46.2 48.9 46 49.5 45.6 49.9 C 45.2 50.4 44.7 50.7 44.1 50.7 C 43.5 50.7 43 50.4 42.6 50 C 42.2 49.5 42.1 48.9 42.1 48.2 C 42.1 48.2 42.1 48.1 42.1 48.1 C 42.1 47.4 42.2 46.8 42.6 46.4 C 43 45.9 43.5 45.6 44.1 45.6 C 44.8 45.6 45.2 45.9 45.6 46.3 C 46 46.8 46.2 47.4 46.2 48.1 C 46.19 48.14 46.2 48.1 46.2 48.1 C 46.2 48.1 46.19 48.15 46.2 48.1 Z M 42.6 48.1 C 42.6 48.7 42.8 49.2 43 49.6 C 43.3 50 43.7 50.2 44.1 50.2 C 44.6 50.2 44.9 50 45.2 49.6 C 45.5 49.2 45.6 48.7 45.6 48.2 C 45.6 48.2 45.6 48.1 45.6 48.1 C 45.6 47.6 45.5 47.1 45.2 46.7 C 44.9 46.3 44.6 46.1 44.1 46.1 C 43.7 46.1 43.3 46.3 43 46.7 C 42.8 47.1 42.6 47.6 42.6 48.1 C 42.63 48.14 42.6 48.1 42.6 48.1 C 42.6 48.1 42.63 48.15 42.6 48.1 Z " stroke="none" fill="#000"/>  </g>  <g id="Polygon46352">    <path d="M 0.7 41.6 L 0.7 36.7 L 1.3 36.7 L 3 39.4 L 4.8 36.7 L 5.4 36.7 L 5.4 41.6 L 4.8 41.6 L 4.8 37.6 L 3 40.3 L 3 40.3 L 1.2 37.6 L 1.2 41.6 L 0.7 41.6 Z M 9.1 41.1 C 8.7 41.5 8.3 41.7 7.8 41.7 C 7.4 41.7 7.1 41.6 6.8 41.4 C 6.5 41.2 6.4 40.9 6.4 40.5 C 6.4 40.5 6.4 40.5 6.4 40.5 C 6.4 40.2 6.5 39.9 6.8 39.7 C 7.1 39.5 7.5 39.4 8 39.4 C 8.3 39.4 8.7 39.4 9.1 39.5 C 9.1 39.5 9.1 39.4 9.1 39.4 C 9.1 39.1 9 38.8 8.8 38.7 C 8.6 38.5 8.3 38.4 8 38.4 C 7.6 38.4 7.3 38.5 6.9 38.7 C 6.9 38.7 6.7 38.2 6.7 38.2 C 7.2 38 7.6 37.9 8 37.9 C 8.6 37.9 8.9 38.1 9.2 38.3 C 9.5 38.6 9.6 38.9 9.6 39.4 C 9.58 39.39 9.6 41.6 9.6 41.6 L 9.1 41.6 L 9.1 41.1 C 9.1 41.1 9.06 41.05 9.1 41.1 Z M 7.9 41.2 C 8.2 41.2 8.5 41.2 8.7 41 C 9 40.8 9.1 40.6 9.1 40.3 C 9.1 40.3 9.1 39.9 9.1 39.9 C 8.7 39.8 8.4 39.8 8 39.8 C 7.7 39.8 7.4 39.8 7.2 40 C 7 40.1 7 40.3 7 40.5 C 7 40.5 7 40.5 7 40.5 C 7 40.7 7 40.9 7.2 41.1 C 7.4 41.2 7.6 41.2 7.9 41.2 Z M 10.8 41.6 L 10.8 36.5 L 11.3 36.5 L 11.3 41.6 L 10.8 41.6 Z M 12.4 41.6 L 12.4 41.3 L 14.8 38.4 L 12.4 38.4 L 12.4 38 L 15.5 38 L 15.5 38.3 L 13.1 41.1 L 15.5 41.1 L 15.5 41.6 L 12.4 41.6 Z M 19.5 41 C 19.1 41.5 18.6 41.7 18 41.7 C 17.5 41.7 17.1 41.5 16.8 41.2 C 16.4 40.8 16.2 40.4 16.2 39.8 C 16.2 39.8 16.2 39.8 16.2 39.8 C 16.2 39.3 16.4 38.8 16.7 38.4 C 17.1 38.1 17.5 37.9 18 37.9 C 18.5 37.9 18.9 38.1 19.2 38.4 C 19.5 38.8 19.7 39.3 19.7 39.8 C 19.7 39.9 19.7 39.9 19.7 40 C 19.7 40 16.8 40 16.8 40 C 16.8 40.4 17 40.7 17.2 40.9 C 17.4 41.1 17.7 41.2 18.1 41.2 C 18.5 41.2 18.9 41 19.2 40.7 C 19.2 40.7 19.5 41 19.5 41 C 19.5 41 19.54 41 19.5 41 Z M 16.8 39.6 C 16.8 39.6 19.1 39.6 19.1 39.6 C 19.1 39.2 19 38.9 18.8 38.7 C 18.6 38.5 18.3 38.4 18 38.4 C 17.6 38.4 17.4 38.5 17.2 38.7 C 17 38.9 16.8 39.2 16.8 39.6 Z M 20.6 41.6 L 20.6 38 L 21.1 38 C 21.1 38 21.15 38.59 21.1 38.6 C 21.3 38.4 21.5 38.2 21.6 38.1 C 21.8 38 22 37.9 22.3 37.9 C 22.9 37.9 23.2 38.1 23.5 38.6 C 23.8 38.1 24.2 37.9 24.8 37.9 C 25.2 37.9 25.5 38 25.7 38.3 C 26 38.6 26.1 38.9 26.1 39.4 C 26.1 39.36 26.1 41.6 26.1 41.6 L 25.6 41.6 C 25.6 41.6 25.56 39.49 25.6 39.5 C 25.6 39.1 25.5 38.9 25.3 38.7 C 25.1 38.5 24.9 38.4 24.6 38.4 C 24.3 38.4 24.1 38.5 23.9 38.7 C 23.7 38.9 23.6 39.2 23.6 39.5 C 23.62 39.51 23.6 41.6 23.6 41.6 L 23.1 41.6 C 23.1 41.6 23.09 39.47 23.1 39.5 C 23.1 39.1 23 38.9 22.8 38.7 C 22.7 38.5 22.4 38.4 22.2 38.4 C 21.9 38.4 21.6 38.5 21.4 38.7 C 21.2 38.9 21.1 39.2 21.1 39.5 C 21.15 39.53 21.1 41.6 21.1 41.6 L 20.6 41.6 Z M 30.3 41 C 29.9 41.5 29.4 41.7 28.8 41.7 C 28.3 41.7 27.9 41.5 27.5 41.2 C 27.2 40.8 27 40.4 27 39.8 C 27 39.8 27 39.8 27 39.8 C 27 39.3 27.2 38.8 27.5 38.4 C 27.8 38.1 28.3 37.9 28.8 37.9 C 29.3 37.9 29.7 38.1 30 38.4 C 30.3 38.8 30.4 39.3 30.4 39.8 C 30.4 39.9 30.4 39.9 30.4 40 C 30.4 40 27.6 40 27.6 40 C 27.6 40.4 27.7 40.7 28 40.9 C 28.2 41.1 28.5 41.2 28.8 41.2 C 29.3 41.2 29.6 41 30 40.7 C 29.98 40.7 30.3 41 30.3 41 C 30.3 41 30.32 41 30.3 41 Z M 27.6 39.6 C 27.6 39.6 29.9 39.6 29.9 39.6 C 29.9 39.2 29.8 38.9 29.6 38.7 C 29.4 38.5 29.1 38.4 28.7 38.4 C 28.4 38.4 28.2 38.5 27.9 38.7 C 27.7 38.9 27.6 39.2 27.6 39.6 Z M 31.4 38.7 L 31.4 38 L 32 38 L 32 38.7 L 31.4 38.7 Z M 31.4 41.6 L 31.4 40.9 L 32 40.9 L 32 41.6 L 31.4 41.6 Z M 37 41.7 C 36.3 41.7 35.6 41.4 35 40.9 C 35 40.9 35.4 40.5 35.4 40.5 C 35.6 40.7 35.9 40.9 36.2 41 C 36.4 41.1 36.7 41.2 37.1 41.2 C 37.4 41.2 37.6 41.1 37.8 40.9 C 38 40.8 38.1 40.6 38.1 40.3 C 38.1 40.3 38.1 40.3 38.1 40.3 C 38.1 40.1 38.1 39.9 37.9 39.8 C 37.7 39.6 37.4 39.5 36.9 39.4 C 36.3 39.3 35.9 39.1 35.6 38.9 C 35.4 38.7 35.2 38.4 35.2 38 C 35.2 38 35.2 38 35.2 38 C 35.2 37.6 35.4 37.3 35.7 37 C 36 36.8 36.4 36.6 36.8 36.6 C 37.2 36.6 37.5 36.7 37.8 36.8 C 38 36.9 38.3 37 38.6 37.2 C 38.6 37.2 38.2 37.7 38.2 37.7 C 37.8 37.3 37.3 37.1 36.8 37.1 C 36.5 37.1 36.3 37.2 36.1 37.4 C 35.9 37.5 35.8 37.7 35.8 37.9 C 35.8 37.9 35.8 37.9 35.8 37.9 C 35.8 38.2 35.9 38.4 36.1 38.5 C 36.2 38.7 36.6 38.8 37.1 38.9 C 37.7 39 38.1 39.2 38.3 39.4 C 38.6 39.6 38.7 39.9 38.7 40.3 C 38.7 40.3 38.7 40.3 38.7 40.3 C 38.7 40.7 38.6 41 38.2 41.3 C 37.9 41.5 37.5 41.7 37 41.7 Z M 41.5 41.7 C 40.8 41.7 40.1 41.4 39.5 40.9 C 39.5 40.9 39.9 40.5 39.9 40.5 C 40.1 40.7 40.4 40.9 40.6 41 C 40.9 41.1 41.2 41.2 41.5 41.2 C 41.9 41.2 42.1 41.1 42.3 40.9 C 42.5 40.8 42.6 40.6 42.6 40.3 C 42.6 40.3 42.6 40.3 42.6 40.3 C 42.6 40.1 42.5 39.9 42.4 39.8 C 42.2 39.6 41.9 39.5 41.4 39.4 C 40.8 39.3 40.4 39.1 40.1 38.9 C 39.8 38.7 39.7 38.4 39.7 38 C 39.7 38 39.7 38 39.7 38 C 39.7 37.6 39.9 37.3 40.2 37 C 40.5 36.8 40.9 36.6 41.3 36.6 C 41.7 36.6 42 36.7 42.2 36.8 C 42.5 36.9 42.8 37 43 37.2 C 43 37.2 42.7 37.7 42.7 37.7 C 42.3 37.3 41.8 37.1 41.3 37.1 C 41 37.1 40.7 37.2 40.5 37.4 C 40.4 37.5 40.3 37.7 40.3 37.9 C 40.3 37.9 40.3 37.9 40.3 37.9 C 40.3 38.2 40.4 38.4 40.5 38.5 C 40.7 38.7 41.1 38.8 41.6 38.9 C 42.1 39 42.6 39.2 42.8 39.4 C 43.1 39.6 43.2 39.9 43.2 40.3 C 43.2 40.3 43.2 40.3 43.2 40.3 C 43.2 40.7 43 41 42.7 41.3 C 42.4 41.5 42 41.7 41.5 41.7 Z M 45.8 41.7 C 45 41.7 44.4 41.4 44 40.8 C 44 40.8 44.4 40.5 44.4 40.5 C 44.8 40.9 45.2 41.2 45.8 41.2 C 46.1 41.2 46.4 41.1 46.6 40.9 C 46.8 40.7 46.9 40.5 46.9 40.2 C 46.9 40.2 46.9 40.2 46.9 40.2 C 46.9 39.9 46.8 39.7 46.5 39.5 C 46.2 39.4 45.9 39.3 45.5 39.3 C 45.51 39.27 45.2 39.3 45.2 39.3 L 45.1 38.9 L 46.6 37.2 L 44.2 37.2 L 44.2 36.7 L 47.4 36.7 L 47.4 37.1 C 47.4 37.1 45.82 38.81 45.8 38.8 C 46.3 38.9 46.7 39 47 39.2 C 47.3 39.4 47.4 39.8 47.4 40.2 C 47.4 40.2 47.4 40.2 47.4 40.2 C 47.4 40.6 47.3 41 47 41.3 C 46.7 41.5 46.3 41.7 45.8 41.7 Z M 52.5 39.1 C 52.5 39.9 52.3 40.5 51.9 40.9 C 51.5 41.4 51 41.7 50.4 41.7 C 49.8 41.7 49.3 41.4 48.9 41 C 48.5 40.5 48.3 39.9 48.3 39.2 C 48.3 39.2 48.3 39.1 48.3 39.1 C 48.3 38.4 48.5 37.8 48.9 37.4 C 49.3 36.9 49.8 36.6 50.4 36.6 C 51 36.6 51.5 36.9 51.9 37.3 C 52.3 37.8 52.5 38.4 52.5 39.1 C 52.49 39.14 52.5 39.1 52.5 39.1 C 52.5 39.1 52.49 39.15 52.5 39.1 Z M 48.9 39.1 C 48.9 39.7 49.1 40.2 49.3 40.6 C 49.6 41 50 41.2 50.4 41.2 C 50.9 41.2 51.2 41 51.5 40.6 C 51.8 40.2 51.9 39.7 51.9 39.2 C 51.9 39.2 51.9 39.1 51.9 39.1 C 51.9 38.6 51.8 38.1 51.5 37.7 C 51.2 37.3 50.9 37.1 50.4 37.1 C 50 37.1 49.6 37.3 49.3 37.7 C 49.1 38.1 48.9 38.6 48.9 39.1 C 48.92 39.14 48.9 39.1 48.9 39.1 C 48.9 39.1 48.92 39.15 48.9 39.1 Z M 55.9 41.6 L 55.9 40.4 L 53.4 40.4 L 53.2 40 L 56 36.7 L 56.5 36.7 L 56.5 40 L 57.2 40 L 57.2 40.4 L 56.5 40.4 L 56.5 41.6 L 55.9 41.6 Z M 53.9 40 L 55.9 40 L 55.9 37.4 L 53.9 40 Z M 60.4 41.6 L 60.4 36.7 C 60.4 36.7 62.24 36.7 62.2 36.7 C 62.8 36.7 63.2 36.8 63.6 37.1 C 63.9 37.4 64.1 37.8 64.1 38.3 C 64.1 38.3 64.1 38.3 64.1 38.3 C 64.1 38.8 63.9 39.2 63.5 39.5 C 63.2 39.7 62.7 39.9 62.2 39.9 C 62.15 39.87 61 39.9 61 39.9 L 61 41.6 L 60.4 41.6 Z M 61 39.4 C 61 39.4 62.17 39.37 62.2 39.4 C 62.6 39.4 62.9 39.3 63.1 39.1 C 63.4 38.9 63.5 38.6 63.5 38.3 C 63.5 38.3 63.5 38.3 63.5 38.3 C 63.5 37.9 63.4 37.7 63.2 37.5 C 62.9 37.3 62.6 37.2 62.2 37.2 C 62.2 37.21 61 37.2 61 37.2 L 61 39.4 Z M 65 37.2 L 65 36.6 L 65.6 36.6 L 65.6 37.2 L 65 37.2 Z M 65 41.6 L 65 38 L 65.6 38 L 65.6 41.6 L 65 41.6 Z M 66.8 41.6 L 66.8 38 L 67.4 38 C 67.4 38 67.37 38.93 67.4 38.9 C 67.5 38.6 67.7 38.4 68 38.2 C 68.2 38 68.5 37.9 68.9 37.9 C 68.85 37.92 68.9 38.5 68.9 38.5 C 68.9 38.5 68.81 38.5 68.8 38.5 C 68.4 38.5 68.1 38.6 67.8 38.9 C 67.5 39.2 67.4 39.6 67.4 40.2 C 67.37 40.16 67.4 41.6 67.4 41.6 L 66.8 41.6 Z M 69.7 37.2 L 69.7 36.6 L 70.3 36.6 L 70.3 37.2 L 69.7 37.2 Z M 69.7 41.6 L 69.7 38 L 70.3 38 L 70.3 41.6 L 69.7 41.6 Z M 71.5 41.6 L 71.5 38 L 72.1 38 C 72.1 38 72.05 38.61 72.1 38.6 C 72.3 38.1 72.8 37.9 73.3 37.9 C 73.7 37.9 74.1 38 74.3 38.3 C 74.6 38.6 74.7 38.9 74.7 39.4 C 74.68 39.35 74.7 41.6 74.7 41.6 L 74.1 41.6 C 74.1 41.6 74.14 39.49 74.1 39.5 C 74.1 39.1 74 38.9 73.9 38.7 C 73.7 38.5 73.5 38.4 73.1 38.4 C 72.8 38.4 72.6 38.5 72.4 38.7 C 72.2 38.9 72.1 39.2 72.1 39.5 C 72.05 39.53 72.1 41.6 72.1 41.6 L 71.5 41.6 Z M 77.1 42.7 L 76.6 42.4 C 76.6 42.4 77.12 41.65 77.1 41.6 C 76.7 41.6 76.3 41.4 76 41 C 75.7 40.7 75.6 40.3 75.6 39.8 C 75.6 39.8 75.6 39.8 75.6 39.8 C 75.6 39.3 75.8 38.8 76.1 38.5 C 76.5 38.1 76.9 37.9 77.5 37.9 C 78 37.9 78.5 38.1 78.9 38.5 C 78.9 38.5 78.5 38.9 78.5 38.9 C 78.2 38.6 77.8 38.4 77.4 38.4 C 77.1 38.4 76.8 38.5 76.5 38.8 C 76.3 39.1 76.2 39.4 76.2 39.8 C 76.2 39.8 76.2 39.8 76.2 39.8 C 76.2 40.2 76.3 40.5 76.5 40.8 C 76.8 41.1 77.1 41.2 77.5 41.2 C 77.9 41.2 78.3 41 78.6 40.7 C 78.6 40.7 78.9 41 78.9 41 C 78.5 41.4 78.1 41.7 77.6 41.7 C 77.56 41.68 77.1 42.7 77.1 42.7 Z M 81.9 41.6 L 81.9 36.5 L 82.5 36.5 L 82.5 40 L 84.4 38 L 85.1 38 L 83.6 39.5 L 85.1 41.6 L 84.5 41.6 L 83.2 39.9 L 82.5 40.7 L 82.5 41.6 L 81.9 41.6 Z M 88.3 41.1 C 88 41.5 87.5 41.7 87 41.7 C 86.6 41.7 86.3 41.6 86 41.4 C 85.8 41.2 85.6 40.9 85.6 40.5 C 85.6 40.5 85.6 40.5 85.6 40.5 C 85.6 40.2 85.8 39.9 86.1 39.7 C 86.3 39.5 86.7 39.4 87.2 39.4 C 87.5 39.4 87.9 39.4 88.3 39.5 C 88.3 39.5 88.3 39.4 88.3 39.4 C 88.3 39.1 88.2 38.8 88 38.7 C 87.8 38.5 87.6 38.4 87.2 38.4 C 86.8 38.4 86.5 38.5 86.1 38.7 C 86.1 38.7 86 38.2 86 38.2 C 86.4 38 86.8 37.9 87.3 37.9 C 87.8 37.9 88.2 38.1 88.4 38.3 C 88.7 38.6 88.8 38.9 88.8 39.4 C 88.81 39.39 88.8 41.6 88.8 41.6 L 88.3 41.6 L 88.3 41.1 C 88.3 41.1 88.29 41.05 88.3 41.1 Z M 87.1 41.2 C 87.4 41.2 87.7 41.2 87.9 41 C 88.2 40.8 88.3 40.6 88.3 40.3 C 88.3 40.3 88.3 39.9 88.3 39.9 C 87.9 39.8 87.6 39.8 87.2 39.8 C 86.9 39.8 86.6 39.8 86.5 40 C 86.3 40.1 86.2 40.3 86.2 40.5 C 86.2 40.5 86.2 40.5 86.2 40.5 C 86.2 40.7 86.3 40.9 86.4 41.1 C 86.6 41.2 86.8 41.2 87.1 41.2 Z M 90 42.7 L 90 38 L 90.5 38 C 90.5 38 90.49 38.71 90.5 38.7 C 90.9 38.2 91.3 37.9 91.9 37.9 C 92.3 37.9 92.7 38.1 93.1 38.4 C 93.4 38.8 93.6 39.2 93.6 39.8 C 93.6 39.8 93.6 39.8 93.6 39.8 C 93.6 40.4 93.4 40.8 93.1 41.2 C 92.7 41.5 92.3 41.7 91.9 41.7 C 91.3 41.7 90.8 41.4 90.5 40.9 C 90.49 40.91 90.5 42.7 90.5 42.7 L 90 42.7 Z M 91.8 41.2 C 92.1 41.2 92.5 41.1 92.7 40.8 C 92.9 40.6 93.1 40.2 93.1 39.8 C 93.1 39.8 93.1 39.8 93.1 39.8 C 93.1 39.4 92.9 39 92.7 38.8 C 92.4 38.5 92.1 38.4 91.8 38.4 C 91.4 38.4 91.1 38.5 90.9 38.8 C 90.6 39.1 90.5 39.4 90.5 39.8 C 90.5 39.8 90.5 39.8 90.5 39.8 C 90.5 40.2 90.6 40.5 90.9 40.8 C 91.1 41.1 91.4 41.2 91.8 41.2 Z M 94.7 41.6 L 94.7 36.5 L 95.2 36.5 L 95.2 41.6 L 94.7 41.6 Z M 98.8 41.1 C 98.5 41.5 98.1 41.7 97.5 41.7 C 97.2 41.7 96.8 41.6 96.6 41.4 C 96.3 41.2 96.2 40.9 96.2 40.5 C 96.2 40.5 96.2 40.5 96.2 40.5 C 96.2 40.2 96.3 39.9 96.6 39.7 C 96.9 39.5 97.3 39.4 97.7 39.4 C 98.1 39.4 98.5 39.4 98.8 39.5 C 98.8 39.5 98.8 39.4 98.8 39.4 C 98.8 39.1 98.7 38.8 98.6 38.7 C 98.4 38.5 98.1 38.4 97.8 38.4 C 97.4 38.4 97 38.5 96.7 38.7 C 96.7 38.7 96.5 38.2 96.5 38.2 C 96.9 38 97.4 37.9 97.8 37.9 C 98.3 37.9 98.7 38.1 99 38.3 C 99.2 38.6 99.3 38.9 99.3 39.4 C 99.35 39.39 99.3 41.6 99.3 41.6 L 98.8 41.6 L 98.8 41.1 C 98.8 41.1 98.83 41.05 98.8 41.1 Z M 97.6 41.2 C 98 41.2 98.3 41.2 98.5 41 C 98.7 40.8 98.8 40.6 98.8 40.3 C 98.8 40.3 98.8 39.9 98.8 39.9 C 98.5 39.8 98.1 39.8 97.8 39.8 C 97.4 39.8 97.2 39.8 97 40 C 96.8 40.1 96.7 40.3 96.7 40.5 C 96.7 40.5 96.7 40.5 96.7 40.5 C 96.7 40.7 96.8 40.9 97 41.1 C 97.2 41.2 97.4 41.2 97.6 41.2 Z M 100.5 41.6 L 100.5 38 L 101 38 C 101 38 101.04 38.59 101 38.6 C 101.2 38.4 101.3 38.2 101.5 38.1 C 101.7 38 101.9 37.9 102.2 37.9 C 102.8 37.9 103.1 38.1 103.4 38.6 C 103.7 38.1 104.1 37.9 104.6 37.9 C 105.1 37.9 105.4 38 105.6 38.3 C 105.9 38.6 106 38.9 106 39.4 C 105.99 39.36 106 41.6 106 41.6 L 105.4 41.6 C 105.4 41.6 105.45 39.49 105.4 39.5 C 105.4 39.1 105.4 38.9 105.2 38.7 C 105 38.5 104.8 38.4 104.5 38.4 C 104.2 38.4 104 38.5 103.8 38.7 C 103.6 38.9 103.5 39.2 103.5 39.5 C 103.51 39.51 103.5 41.6 103.5 41.6 L 103 41.6 C 103 41.6 102.98 39.47 103 39.5 C 103 39.1 102.9 38.9 102.7 38.7 C 102.6 38.5 102.3 38.4 102 38.4 C 101.8 38.4 101.5 38.5 101.3 38.7 C 101.1 38.9 101 39.2 101 39.5 C 101.04 39.53 101 41.6 101 41.6 L 100.5 41.6 Z M 109.5 41.1 C 109.2 41.5 108.8 41.7 108.2 41.7 C 107.8 41.7 107.5 41.6 107.3 41.4 C 107 41.2 106.9 40.9 106.9 40.5 C 106.9 40.5 106.9 40.5 106.9 40.5 C 106.9 40.2 107 39.9 107.3 39.7 C 107.6 39.5 107.9 39.4 108.4 39.4 C 108.8 39.4 109.1 39.4 109.5 39.5 C 109.5 39.5 109.5 39.4 109.5 39.4 C 109.5 39.1 109.4 38.8 109.2 38.7 C 109.1 38.5 108.8 38.4 108.4 38.4 C 108.1 38.4 107.7 38.5 107.3 38.7 C 107.3 38.7 107.2 38.2 107.2 38.2 C 107.6 38 108 37.9 108.5 37.9 C 109 37.9 109.4 38.1 109.7 38.3 C 109.9 38.6 110 38.9 110 39.4 C 110.04 39.39 110 41.6 110 41.6 L 109.5 41.6 L 109.5 41.1 C 109.5 41.1 109.52 41.05 109.5 41.1 Z M 108.3 41.2 C 108.7 41.2 108.9 41.2 109.2 41 C 109.4 40.8 109.5 40.6 109.5 40.3 C 109.5 40.3 109.5 39.9 109.5 39.9 C 109.2 39.8 108.8 39.8 108.5 39.8 C 108.1 39.8 107.9 39.8 107.7 40 C 107.5 40.1 107.4 40.3 107.4 40.5 C 107.4 40.5 107.4 40.5 107.4 40.5 C 107.4 40.7 107.5 40.9 107.7 41.1 C 107.8 41.2 108.1 41.2 108.3 41.2 Z " stroke="none" fill="#000"/>  </g>  <g id="Polygon46351">    <path d="M 0.7 23.6 L 0.7 18.7 C 0.7 18.7 2.8 18.7 2.8 18.7 C 3.4 18.7 3.9 18.9 4.2 19.2 C 4.4 19.4 4.6 19.8 4.6 20.2 C 4.6 20.2 4.6 20.2 4.6 20.2 C 4.6 20.6 4.4 20.9 4.2 21.1 C 4 21.4 3.6 21.5 3.2 21.6 C 3.24 21.6 4.7 23.6 4.7 23.6 L 4.1 23.6 L 2.6 21.7 L 1.2 21.7 L 1.2 23.6 L 0.7 23.6 Z M 1.2 21.2 C 1.2 21.2 2.75 21.2 2.8 21.2 C 3.1 21.2 3.4 21.1 3.7 20.9 C 3.9 20.7 4 20.5 4 20.2 C 4 20.2 4 20.2 4 20.2 C 4 19.9 3.9 19.6 3.7 19.5 C 3.5 19.3 3.2 19.2 2.8 19.2 C 2.76 19.21 1.2 19.2 1.2 19.2 L 1.2 21.2 Z M 8.7 23 C 8.3 23.5 7.8 23.7 7.2 23.7 C 6.7 23.7 6.3 23.5 6 23.2 C 5.6 22.8 5.4 22.4 5.4 21.8 C 5.4 21.8 5.4 21.8 5.4 21.8 C 5.4 21.3 5.6 20.8 5.9 20.4 C 6.3 20.1 6.7 19.9 7.2 19.9 C 7.7 19.9 8.1 20.1 8.4 20.4 C 8.7 20.8 8.9 21.3 8.9 21.8 C 8.9 21.9 8.9 21.9 8.9 22 C 8.9 22 6 22 6 22 C 6 22.4 6.2 22.7 6.4 22.9 C 6.6 23.1 6.9 23.2 7.3 23.2 C 7.7 23.2 8.1 23 8.4 22.7 C 8.4 22.7 8.7 23 8.7 23 C 8.7 23 8.74 23 8.7 23 Z M 6 21.6 C 6 21.6 8.3 21.6 8.3 21.6 C 8.3 21.2 8.2 20.9 8 20.7 C 7.8 20.5 7.5 20.4 7.2 20.4 C 6.8 20.4 6.6 20.5 6.4 20.7 C 6.1 20.9 6 21.2 6 21.6 Z M 9.8 23.6 L 9.8 20 L 10.3 20 C 10.3 20 10.35 20.61 10.3 20.6 C 10.6 20.1 11.1 19.9 11.6 19.9 C 12 19.9 12.4 20 12.6 20.3 C 12.8 20.6 13 20.9 13 21.4 C 12.97 21.35 13 23.6 13 23.6 L 12.4 23.6 C 12.4 23.6 12.43 21.49 12.4 21.5 C 12.4 21.1 12.3 20.9 12.2 20.7 C 12 20.5 11.7 20.4 11.4 20.4 C 11.1 20.4 10.9 20.5 10.7 20.7 C 10.4 20.9 10.3 21.2 10.3 21.5 C 10.35 21.53 10.3 23.6 10.3 23.6 L 9.8 23.6 Z M 14.1 23.6 L 14.1 18.5 L 14.7 18.5 L 14.7 22 L 16.6 20 L 17.3 20 L 15.8 21.5 L 17.3 23.6 L 16.7 23.6 L 15.4 21.9 L 14.7 22.7 L 14.7 23.6 L 14.1 23.6 Z M 18.1 20.7 L 18.1 20 L 18.7 20 L 18.7 20.7 L 18.1 20.7 Z M 18.1 23.6 L 18.1 22.9 L 18.7 22.9 L 18.7 23.6 L 18.1 23.6 Z M 22.1 23.6 L 22.1 18.7 L 22.6 18.7 L 24.4 21.4 L 26.2 18.7 L 26.8 18.7 L 26.8 23.6 L 26.2 23.6 L 26.2 19.6 L 24.4 22.3 L 24.4 22.3 L 22.6 19.6 L 22.6 23.6 L 22.1 23.6 Z M 30.4 23.1 C 30.1 23.5 29.7 23.7 29.1 23.7 C 28.8 23.7 28.5 23.6 28.2 23.4 C 27.9 23.2 27.8 22.9 27.8 22.5 C 27.8 22.5 27.8 22.5 27.8 22.5 C 27.8 22.2 27.9 21.9 28.2 21.7 C 28.5 21.5 28.9 21.4 29.3 21.4 C 29.7 21.4 30.1 21.4 30.4 21.5 C 30.4 21.5 30.4 21.4 30.4 21.4 C 30.4 21.1 30.3 20.8 30.2 20.7 C 30 20.5 29.7 20.4 29.4 20.4 C 29 20.4 28.6 20.5 28.3 20.7 C 28.3 20.7 28.1 20.2 28.1 20.2 C 28.5 20 29 19.9 29.4 19.9 C 29.9 19.9 30.3 20.1 30.6 20.3 C 30.8 20.6 31 20.9 31 21.4 C 30.96 21.39 31 23.6 31 23.6 L 30.4 23.6 L 30.4 23.1 C 30.4 23.1 30.44 23.05 30.4 23.1 Z M 29.2 23.2 C 29.6 23.2 29.9 23.2 30.1 23 C 30.3 22.8 30.4 22.6 30.4 22.3 C 30.4 22.3 30.4 21.9 30.4 21.9 C 30.1 21.8 29.7 21.8 29.4 21.8 C 29 21.8 28.8 21.8 28.6 22 C 28.4 22.1 28.3 22.3 28.3 22.5 C 28.3 22.5 28.3 22.5 28.3 22.5 C 28.3 22.7 28.4 22.9 28.6 23.1 C 28.8 23.2 29 23.2 29.2 23.2 Z M 34 23.5 C 33.8 23.6 33.6 23.7 33.3 23.7 C 33 23.7 32.8 23.6 32.6 23.4 C 32.4 23.2 32.3 23 32.3 22.6 C 32.3 22.64 32.3 20.5 32.3 20.5 L 31.8 20.5 L 31.8 20 L 32.3 20 L 32.3 18.9 L 32.8 18.9 L 32.8 20 L 34 20 L 34 20.5 L 32.8 20.5 C 32.8 20.5 32.84 22.57 32.8 22.6 C 32.8 23 33 23.2 33.4 23.2 C 33.6 23.2 33.8 23.1 34 23 C 33.97 23.05 34 23.5 34 23.5 C 34 23.5 33.97 23.51 34 23.5 Z M 37.1 23.6 L 37.1 18.7 C 37.1 18.7 38.96 18.7 39 18.7 C 39.5 18.7 40 18.8 40.3 19.1 C 40.6 19.4 40.8 19.8 40.8 20.3 C 40.8 20.3 40.8 20.3 40.8 20.3 C 40.8 20.8 40.6 21.2 40.2 21.5 C 39.9 21.7 39.4 21.9 38.9 21.9 C 38.87 21.87 37.7 21.9 37.7 21.9 L 37.7 23.6 L 37.1 23.6 Z M 37.7 21.4 C 37.7 21.4 38.89 21.37 38.9 21.4 C 39.3 21.4 39.6 21.3 39.9 21.1 C 40.1 20.9 40.2 20.6 40.2 20.3 C 40.2 20.3 40.2 20.3 40.2 20.3 C 40.2 19.9 40.1 19.7 39.9 19.5 C 39.6 19.3 39.3 19.2 38.9 19.2 C 38.92 19.21 37.7 19.2 37.7 19.2 L 37.7 21.4 Z M 41.7 19.2 L 41.7 18.6 L 42.3 18.6 L 42.3 19.2 L 41.7 19.2 Z M 41.8 23.6 L 41.8 20 L 42.3 20 L 42.3 23.6 L 41.8 23.6 Z M 43.6 23.6 L 43.6 20 L 44.1 20 C 44.1 20 44.09 20.93 44.1 20.9 C 44.2 20.6 44.4 20.4 44.7 20.2 C 44.9 20 45.2 19.9 45.6 19.9 C 45.57 19.92 45.6 20.5 45.6 20.5 C 45.6 20.5 45.53 20.5 45.5 20.5 C 45.1 20.5 44.8 20.6 44.5 20.9 C 44.2 21.2 44.1 21.6 44.1 22.2 C 44.09 22.16 44.1 23.6 44.1 23.6 L 43.6 23.6 Z M 46.4 19.2 L 46.4 18.6 L 47 18.6 L 47 19.2 L 46.4 19.2 Z M 46.4 23.6 L 46.4 20 L 47 20 L 47 23.6 L 46.4 23.6 Z M 48.2 23.6 L 48.2 20 L 48.8 20 C 48.8 20 48.77 20.61 48.8 20.6 C 49.1 20.1 49.5 19.9 50 19.9 C 50.4 19.9 50.8 20 51 20.3 C 51.3 20.6 51.4 20.9 51.4 21.4 C 51.39 21.35 51.4 23.6 51.4 23.6 L 50.9 23.6 C 50.9 23.6 50.85 21.49 50.9 21.5 C 50.9 21.1 50.8 20.9 50.6 20.7 C 50.4 20.5 50.2 20.4 49.9 20.4 C 49.5 20.4 49.3 20.5 49.1 20.7 C 48.9 20.9 48.8 21.2 48.8 21.5 C 48.77 21.53 48.8 23.6 48.8 23.6 L 48.2 23.6 Z M 53.8 24.7 L 53.3 24.4 C 53.3 24.4 53.84 23.65 53.8 23.6 C 53.4 23.6 53 23.4 52.7 23 C 52.5 22.7 52.3 22.3 52.3 21.8 C 52.3 21.8 52.3 21.8 52.3 21.8 C 52.3 21.3 52.5 20.8 52.8 20.5 C 53.2 20.1 53.6 19.9 54.2 19.9 C 54.7 19.9 55.2 20.1 55.6 20.5 C 55.6 20.5 55.3 20.9 55.3 20.9 C 54.9 20.6 54.6 20.4 54.2 20.4 C 53.8 20.4 53.5 20.5 53.2 20.8 C 53 21.1 52.9 21.4 52.9 21.8 C 52.9 21.8 52.9 21.8 52.9 21.8 C 52.9 22.2 53 22.5 53.3 22.8 C 53.5 23.1 53.8 23.2 54.2 23.2 C 54.6 23.2 55 23 55.3 22.7 C 55.3 22.7 55.6 23 55.6 23 C 55.3 23.4 54.8 23.7 54.3 23.7 C 54.28 23.68 53.8 24.7 53.8 24.7 Z " stroke="none" fill="#000"/>  </g>  <g id="Polygon46350">    <path d="M 3 9.3 L 3 8.6 L 3.6 8.6 L 3.6 9.3 L 3 9.3 Z M 1.7 9.3 L 1.7 8.6 L 2.3 8.6 L 2.3 9.3 L 1.7 9.3 Z M 2.7 14.7 C 2 14.7 1.5 14.5 1.2 14.1 C 0.8 13.7 0.6 13.2 0.6 12.5 C 0.62 12.55 0.6 9.7 0.6 9.7 L 1.2 9.7 C 1.2 9.7 1.17 12.51 1.2 12.5 C 1.2 13 1.3 13.4 1.6 13.7 C 1.8 14 2.2 14.2 2.7 14.2 C 3.1 14.2 3.5 14 3.8 13.8 C 4 13.5 4.1 13.1 4.1 12.5 C 4.14 12.55 4.1 9.7 4.1 9.7 L 4.7 9.7 C 4.7 9.7 4.7 12.51 4.7 12.5 C 4.7 13.2 4.5 13.7 4.1 14.1 C 3.8 14.5 3.3 14.7 2.7 14.7 Z M 5.9 14.6 L 5.9 11 L 6.5 11 C 6.5 11 6.45 11.93 6.5 11.9 C 6.6 11.6 6.8 11.4 7 11.2 C 7.3 11 7.6 10.9 7.9 10.9 C 7.93 10.92 7.9 11.5 7.9 11.5 C 7.9 11.5 7.89 11.5 7.9 11.5 C 7.5 11.5 7.1 11.6 6.9 11.9 C 6.6 12.2 6.5 12.6 6.5 13.2 C 6.45 13.16 6.5 14.6 6.5 14.6 L 5.9 14.6 Z M 10.6 10.4 L 10.6 9.8 L 11.2 9.8 L 11.2 10.4 L 10.6 10.4 Z M 9.3 10.4 L 9.3 9.8 L 10 9.8 L 10 10.4 L 9.3 10.4 Z M 11.3 14 C 11 14.4 10.6 14.7 10.1 14.7 C 9.7 14.7 9.3 14.5 9.1 14.3 C 8.8 14 8.7 13.7 8.7 13.2 C 8.69 13.23 8.7 11 8.7 11 L 9.2 11 C 9.2 11 9.23 13.09 9.2 13.1 C 9.2 13.4 9.3 13.7 9.5 13.9 C 9.7 14.1 9.9 14.2 10.2 14.2 C 10.5 14.2 10.8 14.1 11 13.9 C 11.2 13.7 11.3 13.4 11.3 13.1 C 11.32 13.05 11.3 11 11.3 11 L 11.9 11 L 11.9 14.6 L 11.3 14.6 L 11.3 14 C 11.3 14 11.32 13.97 11.3 14 Z M 13.1 14.6 L 13.1 11 L 13.6 11 C 13.6 11 13.6 11.61 13.6 11.6 C 13.9 11.1 14.3 10.9 14.8 10.9 C 15.3 10.9 15.6 11 15.9 11.3 C 16.1 11.6 16.2 11.9 16.2 12.4 C 16.23 12.35 16.2 14.6 16.2 14.6 L 15.7 14.6 C 15.7 14.6 15.69 12.49 15.7 12.5 C 15.7 12.1 15.6 11.9 15.4 11.7 C 15.2 11.5 15 11.4 14.7 11.4 C 14.4 11.4 14.1 11.5 13.9 11.7 C 13.7 11.9 13.6 12.2 13.6 12.5 C 13.6 12.53 13.6 14.6 13.6 14.6 L 13.1 14.6 Z M 19.6 14.6 L 19.6 9.7 L 20.1 9.7 L 20.1 12.6 L 22.9 9.7 L 23.7 9.7 L 21.5 11.8 L 23.7 14.6 L 23 14.6 L 21.2 12.2 L 20.1 13.3 L 20.1 14.6 L 19.6 14.6 Z M 26.2 14.7 C 25.6 14.7 25.2 14.5 24.8 14.1 C 24.5 13.8 24.3 13.3 24.3 12.8 C 24.3 12.8 24.3 12.8 24.3 12.8 C 24.3 12.3 24.5 11.8 24.8 11.5 C 25.2 11.1 25.6 10.9 26.2 10.9 C 26.7 10.9 27.2 11.1 27.5 11.5 C 27.9 11.8 28.1 12.3 28.1 12.8 C 28.1 12.8 28.1 12.8 28.1 12.8 C 28.1 13.3 27.9 13.8 27.5 14.1 C 27.2 14.5 26.7 14.7 26.2 14.7 Z M 26.2 14.2 C 26.6 14.2 26.9 14.1 27.1 13.8 C 27.4 13.5 27.5 13.2 27.5 12.8 C 27.5 12.8 27.5 12.8 27.5 12.8 C 27.5 12.4 27.4 12.1 27.1 11.8 C 26.9 11.5 26.5 11.4 26.2 11.4 C 25.8 11.4 25.5 11.5 25.2 11.8 C 25 12.1 24.8 12.4 24.8 12.8 C 24.8 12.8 24.8 12.8 24.8 12.8 C 24.8 13.2 25 13.5 25.2 13.8 C 25.5 14.1 25.8 14.2 26.2 14.2 Z M 31.9 13.9 C 31.6 14.4 31.1 14.7 30.5 14.7 C 30.1 14.7 29.7 14.5 29.3 14.2 C 29 13.8 28.8 13.4 28.8 12.8 C 28.8 12.8 28.8 12.8 28.8 12.8 C 28.8 12.2 29 11.8 29.3 11.4 C 29.7 11.1 30.1 10.9 30.5 10.9 C 31.1 10.9 31.6 11.2 31.9 11.7 C 31.93 11.67 31.9 9.5 31.9 9.5 L 32.5 9.5 L 32.5 14.6 L 31.9 14.6 L 31.9 13.9 C 31.9 13.9 31.93 13.87 31.9 13.9 Z M 30.6 14.2 C 31 14.2 31.3 14.1 31.6 13.8 C 31.8 13.5 32 13.2 32 12.8 C 32 12.8 32 12.8 32 12.8 C 32 12.4 31.8 12 31.6 11.8 C 31.3 11.5 31 11.4 30.6 11.4 C 30.3 11.4 30 11.5 29.7 11.8 C 29.5 12 29.4 12.4 29.4 12.8 C 29.4 12.8 29.4 12.8 29.4 12.8 C 29.4 13.2 29.5 13.6 29.7 13.8 C 30 14.1 30.3 14.2 30.6 14.2 Z M 36.2 14 C 36 14.4 35.5 14.7 35 14.7 C 34.6 14.7 34.2 14.5 34 14.3 C 33.7 14 33.6 13.7 33.6 13.2 C 33.62 13.23 33.6 11 33.6 11 L 34.2 11 C 34.2 11 34.16 13.09 34.2 13.1 C 34.2 13.4 34.2 13.7 34.4 13.9 C 34.6 14.1 34.8 14.2 35.2 14.2 C 35.5 14.2 35.7 14.1 35.9 13.9 C 36.1 13.7 36.2 13.4 36.2 13.1 C 36.25 13.05 36.2 11 36.2 11 L 36.8 11 L 36.8 14.6 L 36.2 14.6 L 36.2 14 C 36.2 14 36.25 13.97 36.2 14 Z M 38 11.7 L 38 11 L 38.6 11 L 38.6 11.7 L 38 11.7 Z M 38 14.6 L 38 13.9 L 38.6 13.9 L 38.6 14.6 L 38 14.6 Z M 41.7 14.6 L 41.7 13.8 L 44.4 10.6 L 41.8 10.6 L 41.8 9.7 L 45.8 9.7 L 45.8 10.5 L 43.1 13.7 L 45.8 13.7 L 45.8 14.6 L 41.7 14.6 Z M 46.8 14.6 L 46.8 9.7 C 46.8 9.7 48.72 9.7 48.7 9.7 C 49.5 9.7 50.1 9.9 50.6 10.4 C 51.1 10.9 51.3 11.4 51.3 12.1 C 51.3 12.1 51.3 12.1 51.3 12.1 C 51.3 12.8 51.1 13.4 50.6 13.9 C 50.1 14.4 49.5 14.6 48.7 14.6 C 48.72 14.6 46.8 14.6 46.8 14.6 Z M 48.7 10.7 C 48.72 10.67 47.9 10.7 47.9 10.7 L 47.9 13.6 C 47.9 13.6 48.72 13.63 48.7 13.6 C 49.2 13.6 49.5 13.5 49.8 13.2 C 50.1 13 50.2 12.6 50.2 12.2 C 50.2 12.2 50.2 12.1 50.2 12.1 C 50.2 11.7 50.1 11.4 49.8 11.1 C 49.5 10.8 49.2 10.7 48.7 10.7 Z M 56 14.7 C 55.2 14.7 54.5 14.4 54.1 13.8 C 54.1 13.8 54.8 13.1 54.8 13.1 C 55.1 13.5 55.5 13.7 56 13.7 C 56.2 13.7 56.4 13.7 56.5 13.6 C 56.6 13.4 56.7 13.3 56.7 13.1 C 56.7 13.1 56.7 13.1 56.7 13.1 C 56.7 12.9 56.6 12.8 56.4 12.6 C 56.3 12.5 56 12.5 55.7 12.5 C 55.72 12.49 55.3 12.5 55.3 12.5 L 55.1 11.8 L 56.3 10.6 L 54.3 10.6 L 54.3 9.7 L 57.7 9.7 L 57.7 10.5 C 57.7 10.5 56.42 11.69 56.4 11.7 C 57.3 11.8 57.7 12.3 57.7 13.1 C 57.7 13.1 57.7 13.1 57.7 13.1 C 57.7 13.6 57.6 13.9 57.3 14.2 C 56.9 14.5 56.5 14.7 56 14.7 Z M 60.5 14.7 C 59.9 14.7 59.5 14.5 59.1 14.2 C 58.7 13.8 58.5 13.2 58.5 12.3 C 58.5 12.3 58.5 12.3 58.5 12.3 C 58.5 11.5 58.7 10.9 59.1 10.4 C 59.4 9.9 60 9.6 60.7 9.6 C 61.2 9.6 61.7 9.8 62.2 10.2 C 62.2 10.2 61.6 11 61.6 11 C 61.5 10.9 61.3 10.8 61.2 10.7 C 61 10.6 60.8 10.6 60.6 10.6 C 60.5 10.6 60.3 10.6 60.2 10.7 C 60 10.8 59.9 10.9 59.9 11 C 59.8 11.1 59.7 11.3 59.7 11.4 C 59.7 11.5 59.7 11.6 59.6 11.7 C 60 11.5 60.3 11.4 60.7 11.4 C 61.2 11.4 61.6 11.6 61.9 11.8 C 62.2 12.1 62.4 12.5 62.4 13 C 62.4 13 62.4 13 62.4 13 C 62.4 13.5 62.2 13.9 61.9 14.2 C 61.5 14.5 61.1 14.7 60.5 14.7 Z M 59.6 13 C 59.6 13.2 59.7 13.4 59.8 13.6 C 60 13.7 60.2 13.8 60.5 13.8 C 60.7 13.8 60.9 13.7 61.1 13.6 C 61.2 13.4 61.3 13.3 61.3 13 C 61.3 13 61.3 13 61.3 13 C 61.3 12.8 61.2 12.6 61.1 12.5 C 60.9 12.4 60.7 12.3 60.5 12.3 C 60.2 12.3 60 12.4 59.8 12.5 C 59.7 12.6 59.6 12.8 59.6 13 C 59.62 13.02 59.6 13 59.6 13 C 59.6 13 59.62 13.03 59.6 13 Z M 65.1 14.7 C 64.6 14.7 64.1 14.5 63.7 14.2 C 63.3 13.8 63.2 13.2 63.2 12.3 C 63.2 12.3 63.2 12.3 63.2 12.3 C 63.2 11.5 63.3 10.9 63.7 10.4 C 64.1 9.9 64.6 9.6 65.3 9.6 C 65.9 9.6 66.4 9.8 66.8 10.2 C 66.8 10.2 66.3 11 66.3 11 C 66.1 10.9 65.9 10.8 65.8 10.7 C 65.6 10.6 65.5 10.6 65.3 10.6 C 65.1 10.6 64.9 10.6 64.8 10.7 C 64.7 10.8 64.6 10.9 64.5 11 C 64.4 11.1 64.4 11.3 64.3 11.4 C 64.3 11.5 64.3 11.6 64.3 11.7 C 64.6 11.5 64.9 11.4 65.3 11.4 C 65.8 11.4 66.2 11.6 66.5 11.8 C 66.9 12.1 67 12.5 67 13 C 67 13 67 13 67 13 C 67 13.5 66.8 13.9 66.5 14.2 C 66.1 14.5 65.7 14.7 65.1 14.7 Z M 64.3 13 C 64.3 13.2 64.3 13.4 64.5 13.6 C 64.6 13.7 64.8 13.8 65.1 13.8 C 65.4 13.8 65.6 13.7 65.7 13.6 C 65.9 13.4 65.9 13.3 65.9 13 C 65.9 13 65.9 13 65.9 13 C 65.9 12.8 65.9 12.6 65.7 12.5 C 65.6 12.4 65.4 12.3 65.1 12.3 C 64.8 12.3 64.6 12.4 64.5 12.5 C 64.3 12.6 64.3 12.8 64.3 13 C 64.25 13.02 64.3 13 64.3 13 C 64.3 13 64.25 13.03 64.3 13 Z M 67.8 14.6 L 67.8 13.7 C 67.8 13.7 69.38 12.41 69.4 12.4 C 69.7 12.1 69.9 11.9 70 11.8 C 70.2 11.6 70.2 11.4 70.2 11.2 C 70.2 11 70.2 10.9 70.1 10.8 C 69.9 10.7 69.8 10.6 69.6 10.6 C 69.4 10.6 69.2 10.6 69.1 10.7 C 68.9 10.8 68.8 11 68.6 11.3 C 68.6 11.3 67.8 10.6 67.8 10.6 C 68.1 10.3 68.3 10 68.6 9.9 C 68.9 9.7 69.2 9.6 69.6 9.6 C 70.1 9.6 70.6 9.8 70.9 10 C 71.2 10.3 71.3 10.7 71.3 11.1 C 71.3 11.1 71.3 11.2 71.3 11.2 C 71.3 11.5 71.2 11.9 71 12.1 C 70.9 12.4 70.5 12.7 70 13.1 C 70.04 13.05 69.2 13.7 69.2 13.7 L 71.4 13.7 L 71.4 14.6 L 67.8 14.6 Z M 72.1 14.6 L 72.1 13.7 C 72.1 13.7 73.74 12.41 73.7 12.4 C 74.1 12.1 74.3 11.9 74.4 11.8 C 74.5 11.6 74.6 11.4 74.6 11.2 C 74.6 11 74.5 10.9 74.4 10.8 C 74.3 10.7 74.1 10.6 73.9 10.6 C 73.8 10.6 73.6 10.6 73.4 10.7 C 73.3 10.8 73.1 11 72.9 11.3 C 72.9 11.3 72.2 10.6 72.2 10.6 C 72.4 10.3 72.7 10 73 9.9 C 73.2 9.7 73.6 9.6 74 9.6 C 74.5 9.6 74.9 9.8 75.2 10 C 75.5 10.3 75.7 10.7 75.7 11.1 C 75.7 11.1 75.7 11.2 75.7 11.2 C 75.7 11.5 75.6 11.9 75.4 12.1 C 75.2 12.4 74.9 12.7 74.4 13.1 C 74.4 13.05 73.6 13.7 73.6 13.7 L 75.7 13.7 L 75.7 14.6 L 72.1 14.6 Z " stroke="none" fill="#000"/>  </g>  <g id="Polygon46349">    <path d="M 4.8 3.5 C 4.8 4.2 4.6 4.7 4.2 5.1 C 3.8 5.5 3.3 5.7 2.6 5.7 C 2 5.7 1.4 5.5 1.1 5.1 C 0.7 4.8 0.5 4.2 0.5 3.5 C 0.51 3.5 0.5 0.7 0.5 0.7 L 1.6 0.7 C 1.6 0.7 1.59 3.47 1.6 3.5 C 1.6 3.9 1.7 4.2 1.9 4.4 C 2 4.6 2.3 4.7 2.6 4.7 C 3 4.7 3.2 4.6 3.4 4.4 C 3.6 4.2 3.7 3.9 3.7 3.5 C 3.7 3.51 3.7 0.7 3.7 0.7 L 4.8 0.7 L 4.8 3.5 C 4.8 3.5 4.78 3.46 4.8 3.5 Z M 5.8 5.6 L 5.8 1.8 L 6.8 1.8 C 6.8 1.8 6.83 2.38 6.8 2.4 C 7.1 2 7.5 1.8 7.9 1.8 C 8.4 1.8 8.8 2 9 2.4 C 9.3 2 9.7 1.8 10.2 1.8 C 10.6 1.8 10.9 1.9 11.2 2.1 C 11.4 2.4 11.5 2.7 11.5 3.2 C 11.49 3.16 11.5 5.6 11.5 5.6 L 10.4 5.6 C 10.4 5.6 10.43 3.51 10.4 3.5 C 10.4 3 10.2 2.7 9.8 2.7 C 9.6 2.7 9.4 2.8 9.3 2.9 C 9.2 3.1 9.2 3.3 9.2 3.5 C 9.16 3.51 9.2 5.6 9.2 5.6 L 8.1 5.6 C 8.1 5.6 8.1 3.51 8.1 3.5 C 8.1 3 7.9 2.7 7.5 2.7 C 7.3 2.7 7.1 2.8 7 2.9 C 6.9 3.1 6.8 3.3 6.8 3.5 C 6.83 3.51 6.8 5.6 6.8 5.6 L 5.8 5.6 Z M 15.7 5 C 15.4 5.5 14.8 5.7 14.2 5.7 C 13.6 5.7 13.2 5.5 12.8 5.1 C 12.4 4.8 12.2 4.3 12.2 3.7 C 12.2 3.7 12.2 3.7 12.2 3.7 C 12.2 3.2 12.4 2.7 12.8 2.3 C 13.1 2 13.6 1.8 14.1 1.8 C 14.7 1.8 15.1 2 15.4 2.4 C 15.8 2.8 15.9 3.2 15.9 3.8 C 15.9 3.9 15.9 4 15.9 4.1 C 15.9 4.1 13.3 4.1 13.3 4.1 C 13.3 4.3 13.4 4.5 13.6 4.6 C 13.8 4.8 14 4.8 14.2 4.8 C 14.5 4.8 14.8 4.7 15.1 4.4 C 15.12 4.44 15.7 5 15.7 5 C 15.7 5 15.73 4.98 15.7 5 Z M 13.3 3.4 C 13.3 3.4 14.9 3.4 14.9 3.4 C 14.8 3.2 14.8 3 14.6 2.8 C 14.5 2.7 14.3 2.6 14.1 2.6 C 13.9 2.6 13.7 2.7 13.6 2.8 C 13.4 3 13.3 3.2 13.3 3.4 Z M 20.7 5.7 C 19.9 5.7 19.2 5.4 18.6 4.9 C 18.6 4.9 19.2 4.1 19.2 4.1 C 19.7 4.5 20.2 4.7 20.7 4.7 C 20.9 4.7 21.1 4.7 21.2 4.6 C 21.3 4.5 21.4 4.4 21.4 4.3 C 21.4 4.3 21.4 4.2 21.4 4.2 C 21.4 4.1 21.3 4 21.2 3.9 C 21.1 3.8 20.8 3.7 20.4 3.6 C 20.1 3.5 19.9 3.5 19.7 3.4 C 19.5 3.3 19.4 3.3 19.2 3.1 C 19.1 3 19 2.9 18.9 2.7 C 18.8 2.6 18.8 2.4 18.8 2.1 C 18.8 2.1 18.8 2.1 18.8 2.1 C 18.8 1.7 18.9 1.3 19.3 1 C 19.6 0.8 20 0.6 20.5 0.6 C 21.2 0.6 21.8 0.8 22.3 1.3 C 22.3 1.3 21.8 2.1 21.8 2.1 C 21.3 1.7 20.9 1.6 20.5 1.6 C 20.3 1.6 20.1 1.6 20 1.7 C 19.9 1.8 19.9 1.9 19.9 2 C 19.9 2 19.9 2 19.9 2 C 19.9 2.2 19.9 2.3 20.1 2.4 C 20.2 2.5 20.5 2.6 20.9 2.7 C 21.4 2.8 21.8 3 22.1 3.2 C 22.3 3.4 22.5 3.7 22.5 4.1 C 22.5 4.1 22.5 4.2 22.5 4.2 C 22.5 4.6 22.3 5 22 5.3 C 21.6 5.5 21.2 5.7 20.7 5.7 Z M 23.3 5.6 L 23.3 1.8 L 24.4 1.8 L 24.4 5.6 L 23.3 5.6 Z M 26.5 5.6 L 25.1 1.8 L 26.2 1.8 L 27 4.4 L 27.9 1.8 L 29 1.8 L 27.5 5.6 L 26.5 5.6 Z M 29.7 5.6 L 29.7 1.8 L 30.7 1.8 L 30.7 5.6 L 29.7 5.6 Z M 35.7 5.7 C 34.9 5.7 34.2 5.4 33.6 4.9 C 33.6 4.9 34.2 4.1 34.2 4.1 C 34.7 4.5 35.2 4.7 35.7 4.7 C 35.9 4.7 36.1 4.7 36.2 4.6 C 36.3 4.5 36.4 4.4 36.4 4.3 C 36.4 4.3 36.4 4.2 36.4 4.2 C 36.4 4.1 36.3 4 36.2 3.9 C 36.1 3.8 35.8 3.7 35.4 3.6 C 35.1 3.5 34.9 3.5 34.7 3.4 C 34.6 3.3 34.4 3.3 34.2 3.1 C 34.1 3 34 2.9 33.9 2.7 C 33.8 2.6 33.8 2.4 33.8 2.1 C 33.8 2.1 33.8 2.1 33.8 2.1 C 33.8 1.7 33.9 1.3 34.3 1 C 34.6 0.8 35 0.6 35.5 0.6 C 36.2 0.6 36.8 0.8 37.3 1.3 C 37.3 1.3 36.8 2.1 36.8 2.1 C 36.3 1.7 35.9 1.6 35.5 1.6 C 35.3 1.6 35.1 1.6 35 1.7 C 34.9 1.8 34.9 1.9 34.9 2 C 34.9 2 34.9 2 34.9 2 C 34.9 2.2 34.9 2.3 35.1 2.4 C 35.2 2.5 35.5 2.6 35.9 2.7 C 36.4 2.8 36.8 3 37.1 3.2 C 37.3 3.4 37.5 3.7 37.5 4.1 C 37.5 4.1 37.5 4.2 37.5 4.2 C 37.5 4.6 37.3 5 37 5.3 C 36.6 5.5 36.2 5.7 35.7 5.7 Z M 40.5 5.2 C 40.2 5.5 39.8 5.7 39.4 5.7 C 39 5.7 38.7 5.6 38.4 5.4 C 38.2 5.2 38.1 4.9 38.1 4.5 C 38.1 4.5 38.1 4.5 38.1 4.5 C 38.1 4.1 38.2 3.8 38.5 3.6 C 38.8 3.4 39.1 3.3 39.6 3.3 C 39.9 3.3 40.2 3.4 40.5 3.5 C 40.5 3.5 40.5 3.4 40.5 3.4 C 40.5 2.9 40.2 2.7 39.7 2.7 C 39.4 2.7 39 2.8 38.7 2.9 C 38.7 2.9 38.4 2.1 38.4 2.1 C 38.9 1.9 39.4 1.8 39.9 1.8 C 40.4 1.8 40.8 1.9 41.1 2.2 C 41.4 2.5 41.5 2.9 41.5 3.4 C 41.52 3.42 41.5 5.6 41.5 5.6 L 40.5 5.6 L 40.5 5.2 C 40.5 5.2 40.49 5.19 40.5 5.2 Z M 39.7 4.9 C 39.9 4.9 40.1 4.9 40.3 4.8 C 40.4 4.6 40.5 4.5 40.5 4.3 C 40.5 4.3 40.5 4.1 40.5 4.1 C 40.3 4 40.1 3.9 39.8 3.9 C 39.6 3.9 39.4 4 39.3 4.1 C 39.2 4.2 39.1 4.3 39.1 4.5 C 39.1 4.5 39.1 4.5 39.1 4.5 C 39.1 4.6 39.2 4.7 39.3 4.8 C 39.4 4.9 39.5 4.9 39.7 4.9 Z M 44.7 5.7 C 44.2 5.7 43.8 5.5 43.5 5.1 C 43.5 5.11 43.5 5.6 43.5 5.6 L 42.4 5.6 L 42.4 0.5 L 43.5 0.5 C 43.5 0.5 43.5 2.39 43.5 2.4 C 43.8 2 44.2 1.8 44.7 1.8 C 45.1 1.8 45.5 2 45.9 2.3 C 46.2 2.6 46.4 3.1 46.4 3.7 C 46.4 3.7 46.4 3.7 46.4 3.7 C 46.4 4.3 46.2 4.8 45.9 5.1 C 45.5 5.5 45.1 5.7 44.7 5.7 Z M 43.5 3.7 C 43.5 4 43.6 4.3 43.8 4.5 C 43.9 4.7 44.1 4.8 44.4 4.8 C 44.7 4.8 44.9 4.7 45.1 4.5 C 45.2 4.3 45.3 4 45.3 3.7 C 45.3 3.7 45.3 3.7 45.3 3.7 C 45.3 3.4 45.2 3.2 45.1 3 C 44.9 2.8 44.7 2.7 44.4 2.7 C 44.1 2.7 43.9 2.8 43.8 3 C 43.6 3.2 43.5 3.4 43.5 3.7 C 43.49 3.72 43.5 3.7 43.5 3.7 C 43.5 3.7 43.49 3.73 43.5 3.7 Z M 49.5 5.1 C 49.2 5.5 48.8 5.7 48.4 5.7 C 48 5.7 47.7 5.5 47.5 5.3 C 47.2 5.1 47.1 4.7 47.1 4.3 C 47.14 4.28 47.1 1.8 47.1 1.8 L 48.2 1.8 C 48.2 1.8 48.2 3.94 48.2 3.9 C 48.2 4.4 48.4 4.7 48.8 4.7 C 49.1 4.7 49.2 4.6 49.3 4.5 C 49.5 4.4 49.5 4.2 49.5 3.9 C 49.51 3.94 49.5 1.8 49.5 1.8 L 50.6 1.8 L 50.6 5.6 L 49.5 5.6 L 49.5 5.1 C 49.5 5.1 49.51 5.07 49.5 5.1 Z M 51.5 5.6 L 51.5 1.8 L 52.6 1.8 C 52.6 1.8 52.59 2.38 52.6 2.4 C 52.9 2 53.3 1.8 53.7 1.8 C 54.1 1.8 54.4 1.9 54.6 2.1 C 54.9 2.4 55 2.7 55 3.2 C 54.96 3.17 55 5.6 55 5.6 L 53.9 5.6 C 53.9 5.6 53.9 3.51 53.9 3.5 C 53.9 3 53.7 2.7 53.3 2.7 C 53 2.7 52.9 2.8 52.8 2.9 C 52.6 3.1 52.6 3.3 52.6 3.5 C 52.59 3.51 52.6 5.6 52.6 5.6 L 51.5 5.6 Z M 55.9 5.6 L 55.9 0.5 L 57 0.5 L 57 5.6 L 55.9 5.6 Z M 60.3 5.1 C 60 5.5 59.7 5.7 59.2 5.7 C 58.8 5.7 58.5 5.5 58.3 5.3 C 58.1 5.1 58 4.7 58 4.3 C 57.97 4.28 58 1.8 58 1.8 L 59 1.8 C 59 1.8 59.04 3.94 59 3.9 C 59 4.4 59.3 4.7 59.7 4.7 C 59.9 4.7 60.1 4.6 60.2 4.5 C 60.3 4.4 60.3 4.2 60.3 3.9 C 60.35 3.94 60.3 1.8 60.3 1.8 L 61.4 1.8 L 61.4 5.6 L 60.3 5.6 L 60.3 5.1 C 60.3 5.1 60.35 5.07 60.3 5.1 Z M 62.4 5.6 L 62.4 0.5 L 63.4 0.5 L 63.4 3.2 L 64.7 1.8 L 65.9 1.8 L 64.5 3.3 L 66 5.6 L 64.8 5.6 L 63.8 4.1 L 63.4 4.5 L 63.4 5.6 L 62.4 5.6 Z M 68.5 5.6 L 68.5 4.7 C 68.5 4.7 70.1 3.41 70.1 3.4 C 70.4 3.1 70.6 2.9 70.8 2.8 C 70.9 2.6 71 2.4 71 2.2 C 71 2 70.9 1.9 70.8 1.8 C 70.7 1.7 70.5 1.6 70.3 1.6 C 70.1 1.6 69.9 1.6 69.8 1.7 C 69.7 1.8 69.5 2 69.3 2.3 C 69.3 2.3 68.5 1.6 68.5 1.6 C 68.8 1.3 69.1 1 69.3 0.9 C 69.6 0.7 69.9 0.6 70.4 0.6 C 70.9 0.6 71.3 0.8 71.6 1 C 71.9 1.3 72 1.7 72 2.1 C 72 2.1 72 2.2 72 2.2 C 72 2.5 72 2.9 71.8 3.1 C 71.6 3.4 71.2 3.7 70.8 4.1 C 70.76 4.05 70 4.7 70 4.7 L 72.1 4.7 L 72.1 5.6 L 68.5 5.6 Z M 74.6 5.7 C 73.9 5.7 73.3 5.4 72.8 4.9 C 72.8 4.9 73.4 4.2 73.4 4.2 C 73.8 4.5 74.2 4.7 74.6 4.7 C 74.9 4.7 75.1 4.6 75.2 4.5 C 75.4 4.4 75.4 4.2 75.4 4 C 75.4 4 75.4 4 75.4 4 C 75.4 3.8 75.4 3.6 75.2 3.5 C 75 3.4 74.8 3.3 74.6 3.3 C 74.3 3.3 74 3.4 73.7 3.5 C 73.74 3.53 73.1 3.1 73.1 3.1 L 73.3 0.7 L 76.3 0.7 L 76.3 1.6 L 74.2 1.6 C 74.2 1.6 74.13 2.49 74.1 2.5 C 74.4 2.4 74.6 2.4 74.8 2.4 C 75.3 2.4 75.7 2.5 76 2.8 C 76.3 3.1 76.5 3.5 76.5 4 C 76.5 4 76.5 4 76.5 4 C 76.5 4.5 76.3 4.9 76 5.2 C 75.6 5.5 75.2 5.7 74.6 5.7 Z M 79.4 5.7 C 78.8 5.7 78.3 5.4 77.9 5 C 77.5 4.5 77.3 3.9 77.3 3.2 C 77.3 3.2 77.3 3.1 77.3 3.1 C 77.3 2.4 77.5 1.8 77.9 1.3 C 78.3 0.9 78.8 0.6 79.5 0.6 C 80.1 0.6 80.6 0.9 81 1.3 C 81.4 1.8 81.6 2.4 81.6 3.1 C 81.6 3.1 81.6 3.1 81.6 3.1 C 81.6 3.9 81.4 4.5 81 5 C 80.6 5.4 80.1 5.7 79.4 5.7 Z M 78.4 3.1 C 78.4 3.6 78.5 4 78.7 4.3 C 78.9 4.6 79.1 4.7 79.5 4.7 C 79.8 4.7 80 4.6 80.2 4.3 C 80.4 4 80.5 3.6 80.5 3.2 C 80.5 3.2 80.5 3.1 80.5 3.1 C 80.5 2.7 80.4 2.3 80.2 2 C 80 1.7 79.8 1.6 79.4 1.6 C 79.1 1.6 78.9 1.7 78.7 2 C 78.5 2.3 78.4 2.7 78.4 3.1 C 78.38 3.14 78.4 3.1 78.4 3.1 C 78.4 3.1 78.38 3.15 78.4 3.1 Z M 84.6 5.6 L 84.6 1.8 L 85.7 1.8 C 85.7 1.8 85.65 2.38 85.7 2.4 C 86 2 86.3 1.8 86.8 1.8 C 87.3 1.8 87.6 2 87.8 2.4 C 88.1 2 88.6 1.8 89 1.8 C 89.4 1.8 89.8 1.9 90 2.1 C 90.2 2.4 90.3 2.7 90.3 3.2 C 90.31 3.16 90.3 5.6 90.3 5.6 L 89.2 5.6 C 89.2 5.6 89.25 3.51 89.2 3.5 C 89.2 3 89 2.7 88.6 2.7 C 88.4 2.7 88.3 2.8 88.2 2.9 C 88 3.1 88 3.3 88 3.5 C 87.98 3.51 88 5.6 88 5.6 L 86.9 5.6 C 86.9 5.6 86.92 3.51 86.9 3.5 C 86.9 3 86.7 2.7 86.3 2.7 C 86.1 2.7 85.9 2.8 85.8 2.9 C 85.7 3.1 85.7 3.3 85.7 3.5 C 85.65 3.51 85.7 5.6 85.7 5.6 L 84.6 5.6 Z M 91.3 5.6 L 91.3 0.5 L 92.3 0.5 L 92.3 5.6 L 91.3 5.6 Z " stroke="none" fill="#000"/>  </g></svg>