<?xml version="1.0" standalone="no"?><!DOCTYPE svg PUBLIC "-//W3C//DTD SVG 1.1//EN" "http://www.w3.org/Graphics/SVG/1.1/DTD/svg11.dtd"><svg xmlns="http://www.w3.org/2000/svg" version="1.1" width="69.5px" height="21px" viewBox="0 -1 69.5 21" style="top:-1px">  <desc>14.117,30</desc>  <defs/>  <g id="Polygon47284">    <path d="M 4.3 4.1 L 4.3 12.7 L 3.2 12.7 L 3.2 5.4 L 1 6.2 L 1 5.3 L 4.1 4.1 L 4.3 4.1 Z M 13.2 9.8 L 13.2 10.7 L 7.1 10.7 L 7.1 10 L 10.9 4.1 L 11.8 4.1 L 10.8 5.8 L 8.3 9.8 L 13.2 9.8 Z M 12 4.1 L 12 12.7 L 10.9 12.7 L 10.9 4.1 L 12 4.1 Z M 14.3 12.1 C 14.3 11.9 14.4 11.8 14.5 11.6 C 14.6 11.5 14.8 11.4 15 11.4 C 15.2 11.4 15.4 11.5 15.5 11.6 C 15.6 11.8 15.7 11.9 15.7 12.1 C 15.7 12.3 15.6 12.4 15.5 12.5 C 15.4 12.7 15.2 12.7 15 12.7 C 14.8 12.7 14.6 12.7 14.5 12.5 C 14.4 12.4 14.3 12.3 14.3 12.1 Z M 20.9 4.1 L 20.9 12.7 L 19.8 12.7 L 19.8 5.4 L 17.7 6.2 L 17.7 5.3 L 20.8 4.1 L 20.9 4.1 Z M 27.7 4.1 L 27.7 12.7 L 26.6 12.7 L 26.6 5.4 L 24.4 6.2 L 24.4 5.3 L 27.5 4.1 L 27.7 4.1 Z M 36.4 4.1 L 36.4 4.7 L 32.8 12.7 L 31.7 12.7 L 35.2 5 L 30.6 5 L 30.6 4.1 L 36.4 4.1 Z M 38.7 11.4 C 38.7 11.4 38.7 12.25 38.7 12.2 C 38.7 12.6 38.6 13 38.4 13.4 C 38.2 13.8 38 14.1 37.7 14.4 C 37.7 14.4 37.1 13.9 37.1 13.9 C 37.2 13.8 37.3 13.6 37.4 13.4 C 37.5 13.2 37.5 13.1 37.6 12.9 C 37.6 12.7 37.6 12.5 37.6 12.3 C 37.63 12.27 37.6 11.4 37.6 11.4 L 38.7 11.4 Z M 41.5 7.9 C 41.5 7.9 42.31 7.87 42.3 7.9 C 42.7 7.9 43 7.8 43.3 7.7 C 43.5 7.5 43.7 7.4 43.8 7.2 C 43.9 6.9 44 6.7 44 6.4 C 44 6.1 43.9 5.8 43.8 5.6 C 43.7 5.4 43.6 5.2 43.3 5.1 C 43.1 5 42.8 4.9 42.5 4.9 C 42.2 4.9 41.9 5 41.7 5.1 C 41.5 5.2 41.3 5.4 41.2 5.6 C 41 5.8 41 6.1 41 6.4 C 41 6.4 39.9 6.4 39.9 6.4 C 39.9 5.9 40 5.5 40.2 5.2 C 40.4 4.8 40.7 4.5 41.1 4.3 C 41.5 4.1 42 4 42.5 4 C 43 4 43.5 4.1 43.9 4.3 C 44.2 4.5 44.5 4.7 44.8 5.1 C 45 5.5 45.1 5.9 45.1 6.4 C 45.1 6.6 45 6.9 44.9 7.1 C 44.8 7.4 44.7 7.6 44.5 7.8 C 44.3 8 44 8.2 43.7 8.3 C 43.3 8.5 42.9 8.5 42.5 8.5 C 42.46 8.52 41.5 8.5 41.5 8.5 L 41.5 7.9 Z M 41.5 8.8 L 41.5 8.1 C 41.5 8.1 42.46 8.11 42.5 8.1 C 43 8.1 43.5 8.2 43.8 8.3 C 44.2 8.4 44.4 8.6 44.7 8.8 C 44.9 9 45 9.3 45.1 9.5 C 45.2 9.8 45.2 10 45.2 10.3 C 45.2 10.7 45.1 11 45 11.3 C 44.9 11.7 44.7 11.9 44.4 12.1 C 44.2 12.3 43.9 12.5 43.6 12.6 C 43.3 12.7 42.9 12.8 42.5 12.8 C 42.1 12.8 41.8 12.7 41.5 12.6 C 41.1 12.5 40.8 12.4 40.6 12.2 C 40.3 12 40.2 11.7 40 11.4 C 39.9 11.1 39.8 10.8 39.8 10.4 C 39.8 10.4 40.9 10.4 40.9 10.4 C 40.9 10.7 41 11 41.1 11.2 C 41.2 11.4 41.4 11.6 41.6 11.7 C 41.9 11.8 42.2 11.9 42.5 11.9 C 42.8 11.9 43.1 11.8 43.4 11.7 C 43.6 11.6 43.8 11.4 43.9 11.2 C 44.1 11 44.1 10.7 44.1 10.3 C 44.1 10 44 9.7 43.9 9.4 C 43.7 9.2 43.5 9 43.3 8.9 C 43 8.8 42.7 8.8 42.3 8.8 C 42.31 8.76 41.5 8.8 41.5 8.8 Z M 52.1 7.7 C 52.1 7.7 52.1 9 52.1 9 C 52.1 9.7 52 10.3 51.9 10.8 C 51.7 11.3 51.6 11.7 51.3 12 C 51.1 12.2 50.8 12.5 50.5 12.6 C 50.2 12.7 49.8 12.8 49.4 12.8 C 49 12.8 48.7 12.7 48.5 12.7 C 48.2 12.6 47.9 12.4 47.7 12.3 C 47.5 12.1 47.3 11.8 47.1 11.6 C 47 11.3 46.9 10.9 46.8 10.5 C 46.7 10.1 46.7 9.6 46.7 9 C 46.7 9 46.7 7.7 46.7 7.7 C 46.7 7 46.7 6.4 46.9 6 C 47 5.5 47.2 5.1 47.4 4.8 C 47.6 4.5 47.9 4.3 48.2 4.2 C 48.6 4.1 48.9 4 49.4 4 C 49.7 4 50 4.1 50.3 4.1 C 50.5 4.2 50.8 4.3 51 4.5 C 51.2 4.7 51.4 4.9 51.6 5.2 C 51.7 5.5 51.8 5.8 51.9 6.3 C 52 6.7 52.1 7.2 52.1 7.7 Z M 51 9.2 C 51 9.2 51 7.5 51 7.5 C 51 7.2 50.9 6.8 50.9 6.5 C 50.9 6.2 50.8 6 50.7 5.8 C 50.6 5.6 50.5 5.4 50.4 5.3 C 50.2 5.1 50.1 5.1 49.9 5 C 49.8 4.9 49.6 4.9 49.4 4.9 C 49.1 4.9 48.9 4.9 48.7 5 C 48.5 5.1 48.3 5.3 48.2 5.5 C 48 5.7 47.9 6 47.9 6.3 C 47.8 6.6 47.8 7.1 47.8 7.5 C 47.8 7.5 47.8 9.2 47.8 9.2 C 47.8 9.6 47.8 9.9 47.8 10.2 C 47.9 10.5 47.9 10.8 48 11 C 48.1 11.2 48.2 11.4 48.4 11.5 C 48.5 11.6 48.6 11.7 48.8 11.8 C 49 11.9 49.2 11.9 49.4 11.9 C 49.6 11.9 49.9 11.8 50.1 11.7 C 50.3 11.6 50.4 11.5 50.6 11.3 C 50.7 11 50.8 10.8 50.9 10.4 C 50.9 10.1 51 9.7 51 9.2 Z " stroke="none" fill="#000"/>  </g></svg>