<?xml version="1.0" standalone="no"?><!DOCTYPE svg PUBLIC "-//W3C//DTD SVG 1.1//EN" "http://www.w3.org/Graphics/SVG/1.1/DTD/svg11.dtd"><svg xmlns="http://www.w3.org/2000/svg" version="1.1" width="158px" height="228.4px" viewBox="0 -3 158 228.4" style="top:-3px"><desc>BUDDY – Yap kanl Cam Silece i Renk / r n Kodu Beyaz: 1021303 660 A klama Delme/vida gerektirmeyen yap kanl cam ...</desc><defs/><g id="Polygon417600"><path d="m1.3 135.6v-4.4l-1 .3l-.1-.4l1.2-.4h.4v4.9h-.5zm5.8-2.5c0 .8-.2 1.4-.6 1.8c-.4.5-.9.8-1.5.8c-.6 0-1.1-.3-1.5-.7c-.4-.5-.6-1.1-.6-1.8v-.1c0-.7.2-1.3.6-1.7c.4-.5.9-.8 1.5-.8c.6 0 1.1.3 1.5.7c.4.5.6 1.1.6 1.8c-.02.04 0 0 0 0c0 0-.02.05 0 0zm-3.6 0c0 .6.2 1.1.4 1.5c.3.4.7.6 1.1.6c.5 0 .8-.2 1.1-.6c.3-.4.4-.9.4-1.4v-.1c0-.5-.1-1-.4-1.4c-.3-.4-.7-.6-1.1-.6c-.4 0-.8.2-1.1.6c-.2.4-.4.9-.4 1.4c.01.04 0 0 0 0c0 0 .01.05 0 0zm5.5.3h-.4V131l-.6.3l-.1-.3l.8-.3h.3v2.7zm-.5 2.2l1.7-2.5l1.6-2.4h.4l-1.8 2.5l-1.6 2.4h-.3zm4.1-.6v.6h-.4v-.6h-1.3l-.1-.3l1.4-1.9h.4v1.9h.4v.3h-.4zm-.4-.3v-1.4l-1 1.4h1zm6.6 0l-1.2-1.2l-1.2 1.2l-.4-.3l1.2-1.3l-1.2-1.2l.4-.3l1.2 1.2l1.2-1.2l.4.3l-1.3 1.2l1.3 1.2l-.4.4zm4 .9l2.2-4.4h-2.7v-.5h3.4v.4l-2.3 4.5h-.6zm9.2-.7c0 .2-.1.4-.3.5c-.2.2-.4.3-.7.3c-.3 0-.5-.1-.7-.2c-.2-.2-.3-.4-.3-.6c0-.3.2-.6.5-.7c-.3-.1-.4-.4-.4-.6c0-.2.1-.4.2-.6c.2-.1.4-.2.7-.2c.3 0 .5.1.7.2c.1.2.2.4.2.6c0 .3-.1.5-.4.6c.3.1.5.4.5.7zm-1-1.8c-.2 0-.3.1-.4.2c-.1 0-.2.2-.2.3c0 .1.1.2.2.3c.1.1.2.2.4.2c.2 0 .3-.1.4-.2c.1-.1.2-.2.2-.3c0-.1-.1-.3-.2-.3c-.1-.1-.2-.2-.4-.2zm.5 1.4c-.1-.1-.3-.1-.5-.1c-.2 0-.3 0-.5.1c-.1.1-.1.2-.1.4c0 .1 0 .2.1.3c.1.1.3.2.5.2c.2 0 .4-.1.5-.2c.1-.1.2-.2.2-.3c0-.2-.1-.3-.2-.4zm-4.2 1.1l1.8-2.5l1.6-2.4h.3l-1.7 2.5l-1.6 2.4h-.4zm0-2.1c-.4 0-.7-.2-1-.5l.3-.3c.2.3.5.4.8.4c.1 0 .2 0 .4-.1c.1-.1.1-.2.1-.4c0-.1 0-.2-.2-.3c-.1-.1-.3-.2-.5-.2c.02.05-.2 0-.2 0l-.1-.2l.9-.9h-1.3v-.3h1.8v.3s-.91.85-.9.9c.3 0 .5 0 .6.2c.2.1.3.3.3.5c0 .3-.1.5-.3.6c-.2.2-.4.3-.7.3zm10.5 1.2l-1.2-1.2l-1.2 1.2l-.4-.3l1.3-1.3l-1.3-1.2l.4-.3l1.2 1.2l1.2-1.2l.4.3l-1.2 1.2l1.2 1.2l-.4.4zm4.4.9v-4.4l-1 .3l-.1-.4l1.2-.4h.4v4.9h-.5zm7.2-.7c0 .2-.1.4-.3.5c-.2.2-.4.3-.7.3c-.3 0-.6-.1-.7-.2c-.2-.2-.3-.4-.3-.6c0-.3.2-.6.5-.7c-.3-.1-.4-.4-.4-.6c0-.2 0-.4.2-.6c.2-.1.4-.2.7-.2c.2 0 .5.1.6.2c.2.2.3.4.3.6c0 .3-.1.5-.4.6c.3.1.5.4.5.7zm-1-1.8c-.2 0-.3.1-.4.2c-.1 0-.2.2-.2.3c0 .1.1.2.2.3c.1.1.2.2.4.2c.2 0 .3-.1.4-.2c.1-.1.2-.2.2-.3c0-.1-.1-.3-.2-.3c-.1-.1-.2-.2-.4-.2zm.5 1.4c-.2-.1-.3-.1-.5-.1c-.2 0-.4 0-.5.1c-.1.1-.2.2-.2.4c0 .1.1.2.2.3c.1.1.3.2.5.2c.2 0 .3-.1.5-.2c.1-.1.1-.2.1-.3c0-.2 0-.3-.1-.4zm-4.2 1.1l1.7-2.5l1.6-2.4h.4l-1.7 2.5l-1.6 2.4h-.4zm0-2.1c-.3 0-.7-.2-1-.5l.3-.2c.2.2.5.3.7.3c.2 0 .4 0 .5-.1c.1-.1.2-.2.2-.4c0-.2-.1-.3-.2-.4c-.1-.1-.3-.1-.5-.1c-.2 0-.4 0-.6.1l-.2-.1l.1-1.4h1.6v.3h-1.3s-.06.85-.1.8c.2 0 .4-.1.6-.1c.3 0 .5.1.7.3c.2.1.2.3.2.6c0 .2-.1.5-.2.6c-.2.2-.5.3-.8.3zm7.7-2.3v-.6h.6v.6h-.6zm.1 4.4V132h.5v3.6h-.5zm1.8 0V132h.5v.6c.3-.5.7-.7 1.2-.7c.5 0 .8.1 1 .4c.3.3.4.6.4 1.1c.02-.05 0 2.2 0 2.2h-.5s-.02-2.11 0-2.1c0-.4-.1-.6-.3-.8c-.2-.2-.4-.3-.7-.3c-.3 0-.6.1-.8.3c-.2.2-.3.5-.3.8v2.1h-.5zm5.5 1.1l-.5-.3l.6-.8c-.5 0-.8-.2-1.1-.6c-.3-.3-.5-.7-.5-1.2c0-.5.2-1 .6-1.3c.3-.4.8-.6 1.3-.6c.6 0 1 .2 1.4.6l-.3.4c-.4-.3-.7-.5-1.1-.5c-.4 0-.7.1-.9.4c-.3.3-.4.6-.4 1c0 .4.1.7.4 1c.2.3.5.4.9.4c.4 0 .8-.2 1.1-.5l.4.3c-.4.4-.9.7-1.4.7l-.5 1zm5.3-3.1c0 1.1.5 1.9 1.6 2.6l-.2.4c-1.3-.7-2-1.7-2-3c0-1.3.7-2.3 2-3l.2.4c-1.1.6-1.6 1.5-1.6 2.6c-.02-.01 0 0 0 0c0 0-.02 0 0 0zm2.3 2v-.4l1.8-1.6c.4-.3.7-.6.8-.8c.2-.3.2-.5.2-.7c0-.3-.1-.5-.3-.7c-.1-.2-.4-.3-.7-.3c-.2 0-.5.1-.7.2c-.2.2-.4.4-.6.7l-.4-.3c.3-.4.5-.7.8-.8c.2-.2.6-.3 1-.3c.4 0 .8.2 1.1.4c.3.3.4.6.4 1c0 .4-.1.7-.3.9c-.1.3-.5.6-.9 1l-1.3 1.2h2.6v.5h-3.5zm6 .1c-.6 0-1.2-.3-1.7-.8l.3-.4c.5.5 1 .7 1.4.7c.4 0 .7-.1.9-.3c.2-.2.3-.5.3-.8c0-.3-.1-.6-.3-.8c-.3-.2-.6-.2-.9-.2c-.4 0-.7 0-1 .2c-.04.03-.4-.2-.4-.2l.1-2.4h2.8v.5h-2.3l-.1 1.6c.3-.2.6-.2 1-.2c.5 0 .9.1 1.2.4c.3.2.5.6.5 1.1c0 .4-.2.8-.5 1.1c-.3.3-.8.5-1.3.5zm2.6.8l-.1-.3c.3-.1.5-.3.5-.6h-.3v-.7h.7s-.04.59 0 .6c0 .3-.1.5-.2.6c-.1.2-.3.3-.6.4zm2.1-.9l2.2-4.4h-2.7v-.5h3.4v.4l-2.3 4.5h-.6zm8.7-.9l-1.2-1.2l-1.2 1.2l-.4-.3l1.3-1.3l-1.3-1.2l.4-.3l1.2 1.2l1.2-1.2l.4.3l-1.2 1.2l1.2 1.2l-.4.4zm4.4.9v-4.4l-1 .3l-.1-.4l1.2-.4h.4v4.9h-.5zm5.3-1.3c0 .4-.2.7-.6 1c-.3.2-.8.4-1.3.4c-.5 0-1-.2-1.3-.4c-.4-.3-.5-.6-.5-1c0-.3.1-.6.2-.8c.2-.2.5-.3.8-.4c-.6-.3-.9-.7-.9-1.2c0-.3.2-.7.5-.9c.4-.2.8-.4 1.2-.4c.5 0 .9.2 1.2.4c.3.2.5.6.5.9c0 .5-.3.9-.9 1.2c.4.1.6.2.8.4c.2.2.3.5.3.8c-.05-.04 0 0 0 0c0 0-.05-.02 0 0zm-3-2.3c0 .2.1.4.3.6c.2.2.5.3.8.3c.3 0 .6-.1.8-.3c.2-.2.3-.4.3-.6c0-.3-.1-.5-.3-.6c-.2-.2-.5-.3-.8-.3c-.3 0-.6.1-.8.3c-.2.1-.3.3-.3.6c-.01-.04 0 0 0 0c0 0-.01-.03 0 0zm-.2 2.3c0 .2.1.4.4.6c.2.2.5.3.9.3c.4 0 .7-.1.9-.3c.3-.2.4-.4.4-.6c0-.3-.1-.5-.4-.7c-.2-.2-.5-.3-.9-.3c-.3 0-.7.1-.9.3c-.2.2-.4.4-.4.7c.03-.04 0 0 0 0c0 0 .03-.03 0 0zm3.9 2.2l-.1-.3c.4-.1.5-.3.5-.6h-.2v-.7h.6v.6c0 .3-.1.5-.2.6c-.1.2-.3.3-.6.4zm2.1-.9l2.3-4.4h-2.7v-.5h3.3v.4l-2.2 4.5h-.7zm8.8-.9l-1.3-1.2l-1.2 1.2l-.3-.3l1.2-1.3l-1.2-1.2l.3-.3l1.3 1.2l1.2-1.2l.3.3l-1.2 1.2l1.2 1.2l-.3.4zm6.1.9v-1.2h-2.6l-.2-.4l2.8-3.3h.5v3.3h.8v.4h-.8v1.2h-.5zm-2.1-1.6h2.1v-2.6l-2.1 2.6zm4.1 2.5v-.3c.3-.1.5-.3.4-.6h-.2v-.7h.6s.02.59 0 .6c0 .3 0 .5-.2.6c-.1.2-.3.3-.6.4zm2.3-.9v-4.4l-1 .3l-.1-.4l1.2-.4h.4v4.9h-.5zm7-.6c-.4.5-.9.7-1.5.7c-.5 0-.9-.2-1.3-.6c-.3-.3-.5-.8-.5-1.3c0-.5.2-1 .5-1.3c.4-.4.8-.6 1.3-.6c.6 0 1.1.2 1.5.6l-.4.4c-.3-.3-.7-.5-1.1-.5c-.3 0-.6.1-.9.4c-.2.3-.4.6-.4 1c0 .4.2.7.4 1c.3.3.6.4 1 .4c.4 0 .7-.2 1.1-.5l.3.3s.02-.02 0 0zm.9.6V132h.5s.04.59 0 .6c.2-.2.3-.4.5-.5c.2-.1.4-.2.7-.2c.6 0 .9.2 1.2.7c.3-.5.7-.7 1.2-.7c.5 0 .8.1 1 .4c.3.3.4.6.4 1.1c-.01-.04 0 2.2 0 2.2h-.5s-.05-2.11 0-2.1c0-.4-.1-.6-.3-.8c-.2-.2-.4-.3-.7-.3c-.3 0-.5.1-.7.3c-.2.2-.3.5-.3.8v2.1h-.5s-.02-2.13 0-2.1c0-.4-.1-.6-.3-.8c-.1-.2-.4-.3-.6-.3c-.3 0-.6.1-.8.3c-.2.2-.3.5-.3.8c.04.03 0 2.1 0 2.1h-.5zm8.6-2c0 1.3-.6 2.3-1.9 3l-.3-.4c1.1-.7 1.7-1.5 1.7-2.6c0-1.1-.6-2-1.7-2.6l.3-.4c1.3.7 1.9 1.7 1.9 3c0-.01 0 0 0 0z" stroke="none" fill="#000"/></g><g id="Polygon417599"><path d="m3.3 120.2v-.6h.7v.6h-.7zm-1.3 0v-.6h.6v.6h-.6zm3.5 2.9c0 .7-.3 1.3-.7 1.8c-.5.5-1.1.8-1.8.8c-.8 0-1.4-.3-1.8-.8c-.5-.4-.7-1-.7-1.7v-.1c0-.6.2-1.2.7-1.7c.5-.5 1.1-.8 1.8-.8c.7 0 1.3.3 1.8.8c.4.4.7 1 .7 1.7c-.03.04 0 0 0 0c0 0-.03.05 0 0zm-4.4 0c0 .6.1 1.1.5 1.5c.4.4.8.6 1.4.6c.5 0 1-.2 1.4-.6c.3-.4.5-.9.5-1.4v-.1c0-.5-.2-1-.5-1.4c-.4-.4-.9-.6-1.4-.6c-.6 0-1 .2-1.4.6c-.4.4-.5.9-.5 1.4c-.05.04 0 0 0 0c0 0-.05.05 0 0zm5.5 2.5v-5.1h.5v5.1h-.5zm3.1 1.1l-.6-.3s.59-.75.6-.8c-.5 0-.8-.2-1.1-.6c-.3-.3-.4-.7-.4-1.2c0-.5.1-1 .5-1.3c.4-.4.8-.6 1.3-.6c.6 0 1.1.2 1.5.6l-.4.4c-.3-.3-.7-.5-1.1-.5c-.4 0-.7.1-.9.4c-.3.3-.4.6-.4 1c0 .4.1.7.4 1c.3.3.6.4 1 .4c.4 0 .7-.2 1.1-.5l.3.3c-.4.4-.8.7-1.4.7c.03-.02-.4 1-.4 1zm4.5-5.3v-.6h.6v.6h-.6zm-1.2 0v-.6h.6v.6h-.6zm1.9 3.6c-.3.4-.7.7-1.2.7c-.4 0-.8-.2-1-.4c-.3-.3-.4-.6-.4-1.1c.01.03 0-2.2 0-2.2h.5s.04 2.09 0 2.1c0 .3.1.6.3.8c.2.2.4.3.7.3c.4 0 .6-.1.8-.3c.2-.2.3-.5.3-.8c.03-.05 0-2.1 0-2.1h.6v3.6h-.6v-.6s.03-.03 0 0zm1.8.6v-5.1h.6v5.1h-.6zm4.9-.6c-.4.5-.9.7-1.5.7c-.5 0-.9-.2-1.3-.5c-.3-.4-.5-.8-.5-1.4c0-.5.2-1 .5-1.4c.3-.3.7-.5 1.2-.5c.5 0 1 .2 1.3.5c.3.4.4.9.4 1.4v.2h-2.9c.1.4.2.7.5.9c.2.2.5.3.8.3c.4 0 .8-.2 1.2-.5c-.05 0 .3.3.3.3c0 0-.01 0 0 0zm-2.8-1.4h2.4c-.1-.4-.2-.7-.4-.9c-.2-.2-.4-.3-.8-.3c-.3 0-.6.1-.8.3c-.2.2-.3.5-.4.9zm3.9 2V122h.5v.9c.1-.3.3-.5.6-.7c.2-.2.5-.3.9-.3c-.03.02 0 .6 0 .6h-.1c-.4 0-.7.1-1 .4c-.3.3-.4.7-.4 1.3v1.4h-.5z" stroke="none" fill="#000"/></g><g id="Polygon417598"><path d="m2 105.6v-4.4H.3v-.5h3.9v.5H2.5v4.4h-.5zm4.6-.5c-.3.4-.7.6-1.3.6c-.4 0-.7-.1-.9-.3c-.3-.2-.4-.5-.4-.9c0-.3.1-.6.4-.8c.3-.2.6-.3 1.1-.3c.4 0 .7 0 1.1.1v-.1c0-.3-.1-.6-.3-.7c-.2-.2-.4-.3-.8-.3c-.3 0-.7.1-1.1.3l-.1-.5c.4-.2.8-.3 1.3-.3c.5 0 .9.2 1.2.4c.2.3.3.6.3 1.1c.03-.01 0 2.2 0 2.2h-.5v-.5s.02-.05 0 0zm-1.2.1c.4 0 .6 0 .9-.2c.2-.2.3-.4.3-.7v-.4c-.3-.1-.7-.1-1-.1c-.4 0-.6 0-.8.2c-.2.1-.3.3-.3.5c0 .2.1.4.3.6c.1.1.4.1.6.1zm4.1.5c-.6 0-1.1-.2-1.5-.6l.3-.3c.4.3.8.4 1.2.4c.2 0 .4 0 .5-.1c.2-.1.3-.3.3-.5c0-.1-.1-.3-.3-.4c-.1 0-.4-.1-.6-.2c-.2 0-.3-.1-.3-.1c-.1 0-.2-.1-.3-.1c-.1 0-.2-.1-.3-.1c0-.1-.1-.1-.2-.2c0-.1-.1-.1-.1-.2v-.3c0-.4.1-.6.3-.8c.2-.2.5-.3.9-.3c.5 0 .9.2 1.3.4l-.3.4c-.3-.2-.7-.3-1-.3c-.2 0-.4 0-.5.1c-.2.1-.2.2-.2.4v.2c.1 0 .1.1.2.1c0 .1.1.1.2.2h.2c.1.1.2.1.3.1c.1.1.3.1.3.1c.1.1.2.1.4.2c.1 0 .2.1.2.2c.1 0 .1.1.2.2c0 .1.1.2.1.4c0 .3-.2.6-.4.8c-.2.2-.5.3-.9.3zm4.7-.6c-.4.4-.8.6-1.4.6c-.3 0-.6-.1-.9-.3c-.3-.2-.4-.5-.4-.9c0-.3.1-.6.4-.8c.3-.2.7-.3 1.1-.3c.4 0 .8 0 1.2.1v-.1c0-.3-.1-.6-.3-.7c-.2-.2-.5-.3-.8-.3c-.4 0-.8.1-1.1.3l-.2-.5c.4-.2.9-.3 1.3-.3c.5 0 .9.2 1.2.4c.2.3.4.6.4 1.1c-.03-.01 0 2.2 0 2.2h-.5v-.5s-.05-.05 0 0zm-1.3.1c.4 0 .7 0 .9-.2c.2-.2.4-.4.4-.7v-.4c-.4-.1-.8-.1-1.1-.1c-.3 0-.6 0-.8.2c-.2.1-.3.3-.3.5c0 .2.1.4.3.6c.2.1.4.1.6.1zm2.9.4V102h.6s-.04.93 0 .9c.1-.3.3-.5.6-.7c.2-.2.5-.3.8-.3c.04.02 0 .6 0 .6c0 0-.01 0 0 0c-.4 0-.8.1-1 .4c-.3.3-.4.7-.4 1.3c-.04-.04 0 1.4 0 1.4h-.6zm2.9 0V102h.5v3.6h-.5zm1.8 0V102h.5s.03.59 0 .6c.2-.2.3-.4.5-.5c.2-.1.4-.2.7-.2c.5 0 .9.2 1.2.7c.3-.5.7-.7 1.2-.7c.5 0 .8.1 1 .4c.3.3.4.6.4 1.1c-.02-.04 0 2.2 0 2.2h-.6s.04-2.11 0-2.1c0-.4 0-.6-.2-.8c-.2-.2-.4-.3-.7-.3c-.3 0-.5.1-.7.3c-.2.2-.3.5-.3.8v2.1h-.5s-.03-2.13 0-2.1c0-.4-.1-.6-.3-.8c-.1-.2-.4-.3-.7-.3c-.2 0-.5.1-.7.3c-.2.2-.3.5-.3.8c.03.03 0 2.1 0 2.1h-.5zm6.6-2.9v-.7h.6v.7h-.6zm0 2.9v-.7h.6v.7h-.6zm5.7.1c-.8 0-1.4-.3-2-.8l.3-.4c.3.2.5.4.8.5c.3.1.6.2.9.2c.3 0 .6-.1.8-.3c.2-.1.3-.3.3-.6c0-.2-.1-.4-.3-.5c-.1-.2-.5-.3-1-.4c-.6-.1-1-.3-1.2-.5c-.3-.2-.4-.5-.4-.9c0-.4.1-.7.4-1c.3-.2.7-.4 1.2-.4c.3 0 .6.1.9.2c.3.1.5.2.8.4l-.3.5c-.4-.4-.9-.6-1.4-.6c-.3 0-.6.1-.8.3c-.2.1-.3.3-.3.5c0 .3.1.5.3.6c.2.2.5.3 1.1.4c.5.1.9.3 1.2.5c.2.2.4.5.4.9c0 .4-.2.7-.5 1c-.3.2-.7.4-1.2.4zm5.3-.7c-.3.4-.7.7-1.3.7c-.4 0-.7-.2-1-.4c-.2-.3-.4-.6-.4-1.1c.03.03 0-2.2 0-2.2h.6s-.03 2.09 0 2.1c0 .3.1.6.2.8c.2.2.5.3.8.3c.3 0 .5-.1.8-.3c.2-.2.3-.5.3-.8c-.04-.05 0-2.1 0-2.1h.5v3.6h-.5v-.6s-.04-.03 0 0zm1.7.6V102h.5s.04.61 0 .6c.3-.5.7-.7 1.3-.7c.4 0 .7.1 1 .4c.2.3.4.6.4 1.1c-.03-.05 0 2.2 0 2.2h-.6s.03-2.11 0-2.1c0-.4-.1-.6-.2-.8c-.2-.2-.5-.3-.8-.3c-.3 0-.5.1-.8.3c-.2.2-.3.5-.3.8c.04.03 0 2.1 0 2.1h-.5zm7.3.7c-.3.3-.8.4-1.4.4c-.6 0-1.1-.1-1.6-.5l.2-.4c.4.3.9.5 1.4.5c.4 0 .7-.1 1-.4c.2-.2.3-.5.3-.9v-.4c-.4.5-.8.7-1.4.7c-.4 0-.8-.1-1.2-.5c-.3-.3-.5-.7-.5-1.2c0-.5.2-.9.5-1.2c.3-.3.7-.5 1.2-.5c.6 0 1 .2 1.4.7c.02.03 0-.6 0-.6h.6s-.04 2.97 0 3c0 .5-.2.9-.5 1.3zm-1.4-1.5c.4 0 .7-.1.9-.3c.3-.2.4-.5.4-.9c0-.4-.1-.6-.4-.9c-.2-.2-.5-.3-.9-.3c-.3 0-.6.1-.9.3c-.2.2-.3.5-.3.9c0 .4.1.7.3.9c.3.2.6.3.9.3zm6.1.8l-1.2-3.6h.5l1 2.9l1-2.9h.4l1 2.9l.9-2.9h.6l-1.3 3.6h-.5l-.9-2.8l-1 2.8h-.5zm6.6.1c-.6 0-1-.2-1.4-.6c-.3-.3-.5-.8-.5-1.3c0-.5.2-1 .5-1.3c.4-.4.8-.6 1.4-.6c.5 0 1 .2 1.3.6c.4.3.6.8.6 1.3c0 .5-.2 1-.6 1.3c-.3.4-.8.6-1.3.6zm0-.5c.4 0 .7-.1.9-.4c.3-.3.4-.6.4-1c0-.4-.1-.7-.4-1c-.2-.3-.6-.4-.9-.4c-.4 0-.7.1-1 .4c-.2.3-.4.6-.4 1c0 .4.2.7.4 1c.3.3.6.4 1 .4zm4.5.5c-.5 0-1-.2-1.4-.6c-.3-.3-.5-.8-.5-1.3c0-.5.2-1 .6-1.3c.3-.4.8-.6 1.3-.6c.5 0 1 .2 1.3.6c.4.3.6.8.6 1.3c0 .5-.2 1-.6 1.3c-.3.4-.8.6-1.3.6zm0-.5c.4 0 .7-.1 1-.4c.2-.3.3-.6.3-1c0-.4-.1-.7-.4-1c-.2-.3-.5-.4-.9-.4c-.4 0-.7.1-1 .4c-.2.3-.3.6-.3 1c0 .4.1.7.3 1c.3.3.6.4 1 .4zm2.9.4v-5.1h.5v3.5l1.9-2h.7l-1.5 1.5l1.6 2.1h-.7l-1.3-1.7l-.7.8v.9h-.5zm6.1 0v-4.9h1.9c.5 0 1 .1 1.3.4c.3.3.5.7.5 1.2c0 .5-.2.9-.6 1.2c-.3.2-.8.4-1.3.4c-.03-.03-1.2 0-1.2 0v1.7h-.6zm.6-2.2s1.2-.03 1.2 0c.4 0 .7-.1 1-.3c.2-.2.3-.5.3-.8c0-.4-.1-.6-.3-.8c-.3-.2-.6-.3-1-.3h-1.2v2.2zm6.3 1.7c-.3.4-.7.6-1.3.6c-.3 0-.7-.1-.9-.3c-.3-.2-.4-.5-.4-.9c0-.3.1-.6.4-.8c.3-.2.7-.3 1.1-.3c.4 0 .8 0 1.1.1v-.1c0-.3-.1-.6-.2-.7c-.2-.2-.5-.3-.8-.3c-.4 0-.8.1-1.1.3l-.2-.5c.4-.2.9-.3 1.3-.3c.5 0 .9.2 1.2.4c.2.3.4.6.4 1.1c-.05-.01 0 2.2 0 2.2h-.6v-.5s.03-.05 0 0zm-1.2.1c.4 0 .7 0 .9-.2c.2-.2.3-.4.3-.7v-.4c-.3-.1-.7-.1-1-.1c-.4 0-.6 0-.8.2c-.2.1-.3.3-.3.5c0 .2.1.4.3.6c.2.1.4.1.6.1zm2.9.4V102h.5s.04.93 0 .9c.2-.3.4-.5.6-.7c.3-.2.6-.3.9-.3c.02.02 0 .6 0 .6c0 0-.03 0 0 0c-.4 0-.8.1-1.1.4c-.2.3-.4.7-.4 1.3c.04-.04 0 1.4 0 1.4h-.5zm2.8 0v-5.1h.6v3.5l1.9-2h.7l-1.5 1.5l1.5 2.1h-.6l-1.3-1.7l-.7.8v.9h-.6zm9.7.1s-.73-.79-.7-.8c-.5.5-1 .8-1.6.8c-.5 0-.8-.2-1.1-.4c-.3-.3-.5-.6-.5-1c0-.6.4-1.1 1.2-1.4c-.2-.2-.3-.4-.4-.6c0-.1-.1-.3-.1-.5c0-.3.1-.6.4-.8c.2-.3.5-.4.9-.4c.4 0 .6.1.9.3c.2.3.3.5.3.8c0 .6-.4 1-1.1 1.3l1.1 1.2c.2-.4.4-.7.6-1.1l.4.2c-.2.5-.5.9-.7 1.2l.9.9l-.5.3zm-2.2-3c.7-.2 1-.5 1-.9v-.1c0-.1-.1-.3-.2-.4c-.1-.2-.3-.2-.5-.2c-.2 0-.4 0-.5.2c-.2.1-.2.3-.2.5c0 .1 0 .3.1.4c0 .1.2.3.3.5zm-.1 2.5c.4 0 .8-.2 1.2-.6l-1.3-1.4c-.6.2-.9.6-.9 1.1c0 .2.1.5.3.6c.2.2.4.3.7.3zm5.4.4l2.2-4.9h.5l2.2 4.9h-.6l-.5-1.3h-2.7l-.6 1.3h-.5zm1.3-1.8h2.3l-1.2-2.5l-1.1 2.5zm4.6 1.8v-5.1h.5v5.1h-.5zm4.1-.5c-.3.4-.7.6-1.3.6c-.3 0-.6-.1-.9-.3c-.3-.2-.4-.5-.4-.9c0-.3.1-.6.4-.8c.3-.2.7-.3 1.1-.3c.4 0 .8 0 1.1.1v-.1c0-.3 0-.6-.2-.7c-.2-.2-.5-.3-.8-.3c-.4 0-.8.1-1.1.3l-.2-.5c.4-.2.9-.3 1.3-.3c.5 0 .9.2 1.2.4c.2.3.4.6.4 1.1c-.04-.01 0 2.2 0 2.2h-.6v-.5s.05-.05 0 0zm-1.2.1c.4 0 .7 0 .9-.2c.2-.2.4-.4.4-.7v-.4c-.4-.1-.8-.1-1.1-.1c-.3 0-.6 0-.8.2c-.2.1-.3.3-.3.5c0 .2.1.4.3.6c.2.1.4.1.6.1zm2.9.4V102h.6s-.05.61 0 .6c.2-.5.7-.7 1.2-.7c.4 0 .8.1 1 .4c.3.3.4.6.4 1.1c-.02-.05 0 2.2 0 2.2h-.6s.04-2.11 0-2.1c0-.4 0-.6-.2-.8c-.2-.2-.4-.3-.8-.3c-.3 0-.5.1-.7.3c-.2.2-.3.5-.3.8c-.05.03 0 2.1 0 2.1h-.6zm7.9 0l-1.8-4.9h.6l1.4 4.1l1.4-4.1h.4l1.4 4.1l1.4-4.1h.6l-1.8 4.9h-.5l-1.3-3.9l-1.4 3.9h-.4zm6.2-4.4v-.6h.6v.6h-.6zm0 4.4V102h.6v3.6h-.6zm3 .1c-.5 0-1-.2-1.5-.6l.3-.3c.4.3.8.4 1.2.4c.3 0 .4 0 .6-.1c.1-.1.2-.3.2-.5c0-.1-.1-.3-.2-.4c-.2 0-.4-.1-.7-.2c-.2 0-.2-.1-.3-.1c-.1 0-.2-.1-.3-.1c-.1 0-.2-.1-.2-.1c-.1-.1-.2-.1-.2-.2l-.2-.2v-.3c0-.4.1-.6.3-.8c.3-.2.6-.3.9-.3c.5 0 .9.2 1.3.4l-.2.4c-.4-.2-.7-.3-1.1-.3c-.2 0-.4 0-.5.1c-.1.1-.2.2-.2.4c0 .1 0 .1.1.2s0 .1.1.1c0 .1.1.1.2.2h.2c.1.1.2.1.3.1c.2.1.3.1.4.1c.1.1.2.1.3.2c.1 0 .2.1.3.2c0 0 .1.1.1.2c.1.1.1.2.1.4c0 .3-.1.6-.4.8c-.2.2-.5.3-.9.3zm2.3-.1V102h.5s.03.61 0 .6c.3-.5.7-.7 1.3-.7c.4 0 .7.1 1 .4c.2.3.4.6.4 1.1c-.04-.05 0 2.2 0 2.2h-.6s.02-2.11 0-2.1c0-.4-.1-.6-.2-.8c-.2-.2-.5-.3-.8-.3c-.3 0-.6.1-.8.3c-.2.2-.3.5-.3.8c.03.03 0 2.1 0 2.1h-.5zm4.3-4.4v-.6h.6v.6h-.6zm.1 4.4V102h.5v3.6h-.5zm4.8-.6c-.4.5-.9.7-1.5.7c-.5 0-.9-.2-1.3-.5c-.3-.4-.5-.8-.5-1.4c0-.5.2-1 .5-1.4c.3-.3.8-.5 1.3-.5c.5 0 .9.2 1.2.5c.3.4.4.9.4 1.4v.2h-2.8c0 .4.1.7.4.9c.2.2.5.3.8.3c.5 0 .9-.2 1.2-.5l.3.3s.02 0 0 0zm-2.7-1.4h2.3c0-.4-.1-.7-.3-.9c-.2-.2-.5-.3-.9-.3c-.3 0-.5.1-.7.3c-.3.2-.4.5-.4.9zm4.6 2L137 102h.6l.9 2.9l1-2.9h.5l.9 2.9l1-2.9h.5l-1.2 3.6h-.5l-1-2.8l-.9 2.8h-.5zm6.1.1c-.5 0-1-.2-1.5-.6l.3-.3c.4.3.8.4 1.3.4c.2 0 .4 0 .5-.1c.1-.1.2-.3.2-.5c0-.1-.1-.3-.2-.4c-.2 0-.4-.1-.7-.2c-.1 0-.2-.1-.3-.1c0 0-.1-.1-.2-.1c-.2 0-.2-.1-.3-.1l-.2-.2c-.1-.1-.1-.1-.1-.2c-.1-.1-.1-.2-.1-.3c0-.4.1-.6.4-.8c.2-.2.5-.3.8-.3c.5 0 .9.2 1.3.4l-.2.4c-.4-.2-.7-.3-1.1-.3c-.2 0-.3 0-.5.1c-.1.1-.2.2-.2.4c0 .1 0 .1.1.2l.1.1l.2.2h.3c0 .1.1.1.3.1c.1.1.2.1.3.1c.1.1.2.1.3.2c.1 0 .2.1.3.2c.1 0 .1.1.2.2v.4c0 .3-.1.6-.3.8c-.3.2-.6.3-1 .3zm2.3-.1v-5.1h.6v3.5l1.9-2h.7l-1.5 1.5l1.5 2.1h-.6l-1.3-1.7l-.7.8v.9h-.6zm4-4.4v-.6h.6v.6h-.6zm.1 4.4V102h.5v3.6h-.5z" stroke="none" fill="#000"/></g><g id="Polygon417597"><path d="m.6 86.7V82h.5s.04.71 0 .7c.4-.5.9-.8 1.4-.8c.5 0 .9.2 1.2.5c.4.4.6.8.6 1.4c0 .6-.2 1-.6 1.4c-.3.3-.7.5-1.2.5c-.5 0-1-.3-1.4-.8c.04.01 0 1.8 0 1.8h-.5zm1.8-1.5c.4 0 .7-.1.9-.4c.3-.2.4-.6.4-1c0-.4-.1-.8-.4-1c-.2-.3-.5-.4-.9-.4c-.3 0-.6.1-.9.4c-.2.3-.4.6-.4 1c0 .4.2.7.4 1c.3.3.6.4.9.4zm2.8.4V82h.6s-.01.93 0 .9c.1-.3.3-.5.6-.7c.2-.2.5-.3.9-.3c-.03.02 0 .6 0 .6h-.1c-.4 0-.7.1-1 .4c-.3.3-.4.7-.4 1.3v1.4h-.6zm5.1-.5c-.3.4-.8.6-1.3.6c-.4 0-.7-.1-1-.3c-.2-.2-.4-.5-.4-.9c0-.3.2-.6.5-.8c.2-.2.6-.3 1.1-.3c.4 0 .7 0 1.1.1v-.1c0-.3-.1-.6-.3-.7c-.2-.2-.4-.3-.8-.3c-.3 0-.7.1-1.1.3l-.1-.5c.4-.2.8-.3 1.3-.3c.5 0 .9.2 1.1.4c.3.3.4.6.4 1.1c.01-.01 0 2.2 0 2.2h-.5v-.5s0-.05 0 0zm-1.2.1c.3 0 .6 0 .9-.2c.2-.2.3-.4.3-.7v-.4c-.4-.1-.7-.1-1.1-.1c-.3 0-.6 0-.7.2c-.2.1-.3.3-.3.5c0 .2.1.4.2.6c.2.1.4.1.7.1zm4.7.3c-.2.1-.4.2-.7.2c-.3 0-.5-.1-.7-.3c-.2-.2-.3-.4-.3-.8c.02.04 0-2.1 0-2.1h-.5v-.5h.5v-1.1h.6v1.1h1.1v.5h-1.1s-.04 2.07 0 2.1c0 .4.2.6.6.6c.1 0 .3-.1.5-.2v.5s-.01.01 0 0zm1-4.3v-.6h.6v.6h-.6zm0 4.4V82h.5v3.6h-.5zm1.8 0v-5.1h.5v3.5l2-2h.7l-1.6 1.5l1.6 2.1h-.6l-1.3-1.7l-.8.8v.9h-.5zm6.1 0v-5.1h.5v3.5l2-2h.6l-1.5 1.5l1.6 2.1h-.7L24 83.9l-.8.8v.9h-.5zm6.5-.6c-.3.4-.7.7-1.3.7c-.4 0-.7-.2-1-.4c-.2-.3-.4-.6-.4-1.1c.04.03 0-2.2 0-2.2h.6s-.02 2.09 0 2.1c0 .3.1.6.2.8c.2.2.5.3.8.3c.3 0 .5-.1.8-.3c.2-.2.3-.5.3-.8c-.04-.05 0-2.1 0-2.1h.5v3.6h-.5v-.6s-.04-.03 0 0zm1.8.6v-5.1h.5v5.1h-.5zm1.8 0v-5.1h.5v5.1h-.5zm4.2-.5c-.3.4-.8.6-1.3.6c-.4 0-.7-.1-1-.3c-.3-.2-.4-.5-.4-.9c0-.3.2-.6.4-.8c.3-.2.7-.3 1.2-.3c.3 0 .7 0 1.1.1v-.1c0-.3-.1-.6-.3-.7c-.2-.2-.5-.3-.8-.3c-.4 0-.7.1-1.1.3l-.2-.5c.5-.2.9-.3 1.4-.3c.5 0 .9.2 1.1.4c.3.3.4.6.4 1.1c-.01-.01 0 2.2 0 2.2h-.5v-.5s-.03-.05 0 0zm-1.2.1c.3 0 .6 0 .8-.2c.3-.2.4-.4.4-.7v-.4c-.4-.1-.7-.1-1.1-.1c-.3 0-.6 0-.8.2c-.1.1-.2.3-.2.5c0 .2 0 .4.2.6c.2.1.4.1.7.1zm2.8.4V82h.6s-.02.61 0 .6c.3-.5.7-.7 1.2-.7c.4 0 .8.1 1 .4c.3.3.4.6.4 1.1v2.2h-.5s-.04-2.11 0-2.1c0-.4-.1-.6-.3-.8c-.2-.2-.4-.3-.7-.3c-.3 0-.6.1-.8.3c-.2.2-.3.5-.3.8c-.02.03 0 2.1 0 2.1h-.6zm4.4 0V82h.5v3.6h-.5zm1.8 0V82h.5s.03.59 0 .6c.2-.2.3-.4.5-.5c.2-.1.4-.2.7-.2c.5 0 .9.2 1.2.7c.3-.5.7-.7 1.2-.7c.5 0 .8.1 1 .4c.3.3.4.6.4 1.1c-.02-.04 0 2.2 0 2.2h-.6s.04-2.11 0-2.1c0-.4 0-.6-.2-.8c-.2-.2-.4-.3-.7-.3c-.3 0-.5.1-.7.3c-.2.2-.3.5-.3.8v2.1h-.5s-.03-2.13 0-2.1c0-.4-.1-.6-.3-.8c-.1-.2-.4-.3-.7-.3c-.3 0-.5.1-.7.3c-.2.2-.3.5-.3.8c.03.03 0 2.1 0 2.1h-.5zm6.6 0v-.7h.6v.7h-.6z" stroke="none" fill="#000"/></g><g id="Polygon417596"><path d="m1.8 75.7c-.6 0-1.1-.2-1.5-.6l.3-.3c.4.3.8.4 1.2.4c.3 0 .4 0 .6-.1c.1-.1.2-.3.2-.5c0-.1-.1-.3-.3-.4c-.1 0-.3-.1-.6-.2c-.2 0-.3-.1-.3-.1c-.1 0-.2-.1-.3-.1c-.1 0-.2-.1-.2-.1c-.1-.1-.2-.1-.2-.2l-.2-.2v-.3c0-.4.1-.6.3-.8c.3-.2.5-.3.9-.3c.5 0 .9.2 1.3.4l-.2.4c-.4-.2-.8-.3-1.1-.3c-.2 0-.4 0-.5.1c-.1.1-.2.2-.2.4c0 .1 0 .1.1.2s0 .1.1.1c0 .1.1.1.2.2h.2c.1.1.2.1.3.1c.2.1.3.1.4.1c.1.1.2.1.3.2c.1 0 .2.1.2.2c.1 0 .2.1.2.2c.1.1.1.2.1.4c0 .3-.1.6-.4.8c-.2.2-.5.3-.9.3zm2.3-4.5v-.6h.6v.6h-.6zm0 4.4V72h.6v3.6h-.6zm1.9 0v-5.1h.5v5.1h-.5zm4.8-.6c-.4.5-.9.7-1.4.7c-.6 0-1-.2-1.3-.5c-.4-.4-.6-.8-.6-1.4c0-.5.2-1 .5-1.4c.4-.3.8-.5 1.3-.5c.5 0 .9.2 1.2.5c.3.4.5.9.5 1.4v.2H8.1c0 .4.2.7.4.9c.2.2.5.3.9.3c.4 0 .8-.2 1.1-.5l.3.3s.04 0 0 0zm-2.7-1.4h2.3c0-.4-.1-.7-.3-.9c-.2-.2-.5-.3-.8-.3c-.3 0-.6.1-.8.3c-.2.2-.4.5-.4.9zM15 75c-.4.5-.9.7-1.5.7c-.5 0-.9-.2-1.3-.6c-.3-.3-.5-.8-.5-1.3c0-.5.2-1 .5-1.3c.4-.4.8-.6 1.3-.6c.6 0 1.1.2 1.5.6l-.4.4c-.3-.3-.7-.5-1.1-.5c-.3 0-.6.1-.9.4c-.2.3-.4.6-.4 1c0 .4.2.7.4 1c.3.3.6.4 1 .4c.4 0 .7-.2 1.1-.5c-.02-.04.3.3.3.3c0 0 .02-.02 0 0zm3.9 0c-.4.5-.9.7-1.5.7c-.5 0-.9-.2-1.3-.5c-.3-.4-.5-.8-.5-1.4c0-.5.1-1 .5-1.4c.3-.3.7-.5 1.2-.5c.5 0 .9.2 1.2.5c.4.4.5.9.5 1.4v.2h-2.9c.1.4.2.7.4.9c.3.2.6.3.9.3c.4 0 .8-.2 1.1-.5c.04 0 .4.3.4.3c0 0-.02 0 0 0zm-2.8-1.4h2.4c-.1-.4-.2-.7-.4-.9c-.2-.2-.5-.3-.8-.3c-.3 0-.6.1-.8.3c-.2.2-.3.5-.4.9zm6.8 2.7c-.3.3-.8.4-1.3.4c-.7 0-1.2-.1-1.7-.5l.3-.4c.4.3.8.5 1.3.5c.5 0 .8-.1 1-.4c.2-.2.4-.5.4-.9v-.4c-.4.5-.9.7-1.5.7c-.4 0-.8-.1-1.1-.5c-.4-.3-.6-.7-.6-1.2c0-.5.2-.9.5-1.2c.4-.3.8-.5 1.2-.5c.6 0 1.1.2 1.5.7c-.05.03 0-.6 0-.6h.5v3c0 .5-.2.9-.5 1.3zm-1.4-1.5c.4 0 .7-.1 1-.3c.2-.2.4-.5.4-.9c0-.4-.2-.6-.4-.9c-.3-.2-.6-.3-1-.3c-.3 0-.6.1-.8.3c-.3.2-.4.5-.4.9c0 .4.1.7.4.9c.2.2.5.3.8.3zm1.2-4.2c0 .2-.1.5-.3.6c-.2.2-.4.2-.7.2c-.3 0-.5 0-.7-.2c-.2-.1-.3-.4-.3-.6h.3c.1.3.4.4.7.4c.3 0 .5-.1.6-.4c.04-.03.4 0 .4 0c0 0 .03-.03 0 0zm1.9.6v-.6h.6v.6h-.6zm0 4.4V72h.6v3.6h-.6zm1.8 0v-.7h.6v.7h-.6zm3.9 0v-4.9h1.7c.8 0 1.4.2 1.9.7c.5.5.7 1 .7 1.7c0 .7-.2 1.3-.7 1.8c-.5.5-1.1.7-1.9.7h-1.7zm1.7-4.4c.04.01-1.1 0-1.1 0v3.9s1.14-.01 1.1 0c.6 0 1.1-.2 1.5-.6c.4-.3.6-.8.6-1.3v-.1c0-.5-.2-1-.6-1.3c-.4-.4-.9-.6-1.5-.6zm6.3 3.8c-.3.4-.7.7-1.2.7c-.5 0-.8-.2-1.1-.4c-.2-.3-.3-.6-.3-1.1c-.04.03 0-2.2 0-2.2h.5v2.1c0 .3.1.6.3.8c.1.2.4.3.7.3c.3 0 .6-.1.8-.3c.2-.2.3-.5.3-.8V72h.5v3.6h-.5v-.6s-.01-.03 0 0zm2.6 1.7l-.5-.3s.52-.75.5-.8c-.4 0-.8-.2-1.2-.5l.3-.3c.4.3.8.4 1.3.4c.2 0 .4 0 .5-.1c.1-.1.2-.3.2-.5c0-.1-.1-.3-.2-.4c-.2 0-.4-.1-.7-.2c-.1 0-.2-.1-.3-.1c0 0-.1-.1-.2-.1c-.2 0-.3-.1-.3-.1l-.2-.2c-.1-.1-.1-.1-.1-.2c-.1-.1-.1-.2-.1-.3c0-.4.1-.6.4-.8c.2-.2.5-.3.8-.3c.5 0 .9.2 1.3.4l-.2.4c-.4-.2-.7-.3-1.1-.3c-.2 0-.4 0-.5.1c-.1.1-.2.2-.2.4c0 .1 0 .1.1.2l.1.1l.2.2h.3c0 .1.1.1.3.1c.1.1.2.1.3.1c.1.1.2.1.3.2c.1 0 .2.1.3.2c0 0 .1.1.1.2c.1.1.1.2.1.4c0 .3-.1.5-.3.7c-.2.2-.5.3-.8.4c-.03-.04-.5 1-.5 1zm7.8-1.7c-.4.5-.9.7-1.5.7c-.5 0-.9-.2-1.3-.6c-.3-.3-.5-.8-.5-1.3c0-.5.2-1 .5-1.3c.4-.4.8-.6 1.3-.6c.6 0 1.1.2 1.5.6l-.4.4c-.3-.3-.7-.5-1.1-.5c-.3 0-.6.1-.9.4c-.2.3-.4.6-.4 1c0 .4.2.7.4 1c.3.3.6.4 1 .4c.4 0 .7-.2 1.1-.5c-.02-.04.3.3.3.3c0 0 .03-.02 0 0zm3.3.1c-.3.4-.8.6-1.3.6c-.4 0-.7-.1-1-.3c-.2-.2-.4-.5-.4-.9c0-.3.2-.6.5-.8c.2-.2.6-.3 1.1-.3c.4 0 .7 0 1.1.1v-.1c0-.3-.1-.6-.3-.7c-.2-.2-.4-.3-.8-.3c-.3 0-.7.1-1.1.3l-.1-.5c.4-.2.8-.3 1.3-.3c.5 0 .9.2 1.1.4c.3.3.4.6.4 1.1c.02-.01 0 2.2 0 2.2h-.5v-.5s0-.05 0 0zm-1.2.1c.3 0 .6 0 .9-.2c.2-.2.3-.4.3-.7v-.4c-.4-.1-.7-.1-1.1-.1c-.3 0-.6 0-.7.2c-.2.1-.3.3-.3.5c0 .2.1.4.3.6c.1.1.3.1.6.1zm2.9.4V72h.5v.6c.2-.2.3-.4.5-.5c.2-.1.4-.2.7-.2c.5 0 .9.2 1.1.7c.4-.5.8-.7 1.3-.7c.4 0 .8.1 1 .4c.2.3.4.6.4 1.1c-.04-.04 0 2.2 0 2.2h-.6s.02-2.11 0-2.1c0-.4-.1-.6-.2-.8c-.2-.2-.4-.3-.7-.3c-.3 0-.5.1-.7.3c-.2.2-.3.5-.3.8c-.02.01 0 2.1 0 2.1h-.6s.05-2.13 0-2.1c0-.4 0-.6-.2-.8c-.2-.2-.4-.3-.7-.3c-.3 0-.5.1-.7.3c-.2.2-.3.5-.3.8v2.1h-.5zm6.7 0v-5.1h.5v5.1h-.5zm4.1-.5c-.3.4-.7.6-1.3.6c-.3 0-.7-.1-.9-.3c-.3-.2-.4-.5-.4-.9c0-.3.1-.6.4-.8c.3-.2.7-.3 1.1-.3c.4 0 .8 0 1.1.1v-.1c0-.3-.1-.6-.2-.7c-.2-.2-.5-.3-.8-.3c-.4 0-.8.1-1.1.3l-.2-.5c.4-.2.9-.3 1.3-.3c.5 0 .9.2 1.2.4c.2.3.3.6.3 1.1c.05-.01 0 2.2 0 2.2h-.5v-.5s.03-.05 0 0zm-1.2.1c.4 0 .7 0 .9-.2c.2-.2.3-.4.3-.7v-.4c-.3-.1-.7-.1-1-.1c-.4 0-.6 0-.8.2c-.2.1-.3.3-.3.5c0 .2.1.4.3.6c.2.1.4.1.6.1zm2.9.4V72h.5s.04.93 0 .9c.2-.3.4-.5.6-.7c.3-.2.6-.3.9-.3v.6s-.03 0 0 0c-.4 0-.8.1-1.1.4c-.2.3-.4.7-.4 1.3c.04-.04 0 1.4 0 1.4h-.5zm2.9 0V72h.5v3.6h-.5zm5.1 0L72.6 72h.6l1.2 3l1.3-3h.5l-1.5 3.6h-.5zm5.7-.6c-.4.5-.8.7-1.4.7c-.5 0-1-.2-1.3-.5c-.4-.4-.6-.8-.6-1.4c0-.5.2-1 .5-1.4c.4-.3.8-.5 1.3-.5c.5 0 .9.2 1.2.5c.3.4.5.9.5 1.4v.2h-2.9c0 .4.2.7.4.9c.3.2.5.3.9.3c.4 0 .8-.2 1.1-.5l.3.3s.05 0 0 0zm-2.7-1.4h2.3c0-.4-.1-.7-.3-.9c-.2-.2-.5-.3-.8-.3c-.3 0-.6.1-.8.3c-.2.2-.4.5-.4.9zm6.1 2v-3.1h-.5v-.5h.5s.02-.33 0-.3c0-.4.1-.7.3-1c.2-.1.5-.2.8-.2c.2 0 .4 0 .6.1v.4c-.2 0-.4-.1-.5-.1c-.4 0-.6.3-.6.8c-.05 0 0 .3 0 .3h1.1v.5h-1.1v3.1h-.6zm4.7-.5c-.4.4-.8.6-1.3.6c-.4 0-.7-.1-1-.3c-.3-.2-.4-.5-.4-.9c0-.3.1-.6.4-.8c.3-.2.7-.3 1.2-.3c.3 0 .7 0 1.1.1v-.1c0-.3-.1-.6-.3-.7c-.2-.2-.5-.3-.8-.3c-.4 0-.7.1-1.1.3l-.2-.5c.5-.2.9-.3 1.3-.3c.6 0 .9.2 1.2.4c.3.3.4.6.4 1.1c-.01-.01 0 2.2 0 2.2h-.5v-.5s-.03-.05 0 0zm-1.2.1c.3 0 .6 0 .8-.2c.3-.2.4-.4.4-.7v-.4c-.4-.1-.7-.1-1.1-.1c-.3 0-.6 0-.8.2c-.2.1-.2.3-.2.5c0 .2 0 .4.2.6c.2.1.4.1.7.1zM91 75l1.2-3h.6s-1.54 3.72-1.5 3.7c-.2.4-.4.7-.6.8c-.1.2-.4.2-.6.2c-.3 0-.6 0-.8-.1l.2-.5c.1.1.3.2.5.2c.2 0 .3-.1.4-.2c.2-.1.3-.3.4-.5c-.03-.01-1.7-3.6-1.7-3.6h.6l1.3 3zm4.8.1c-.3.4-.7.6-1.3.6c-.3 0-.6-.1-.9-.3c-.3-.2-.4-.5-.4-.9c0-.3.1-.6.4-.8c.3-.2.7-.3 1.1-.3c.4 0 .8 0 1.1.1v-.1c0-.3-.1-.6-.2-.7c-.2-.2-.5-.3-.8-.3c-.4 0-.8.1-1.1.3l-.2-.5c.4-.2.9-.3 1.3-.3c.5 0 .9.2 1.2.4c.2.3.4.6.4 1.1c-.04-.01 0 2.2 0 2.2h-.6v-.5s.04-.05 0 0zm-1.2.1c.4 0 .7 0 .9-.2c.2-.2.3-.4.3-.7v-.4c-.3-.1-.7-.1-1-.1c-.4 0-.6 0-.8.2c-.2.1-.3.3-.3.5c0 .2.1.4.3.6c.2.1.4.1.6.1zm2.9.4V72h.5s.05.61 0 .6c.3-.5.8-.7 1.3-.7c.4 0 .8.1 1 .4c.2.3.4.6.4 1.1c-.03-.05 0 2.2 0 2.2h-.6s.03-2.11 0-2.1c0-.4-.1-.6-.2-.8c-.2-.2-.5-.3-.8-.3c-.3 0-.5.1-.7.3c-.3.2-.4.5-.4.8c.05.03 0 2.1 0 2.1h-.5zm5.5.1c-.5 0-1-.2-1.5-.6l.3-.3c.4.3.8.4 1.2.4c.3 0 .5 0 .6-.1c.1-.1.2-.3.2-.5c0-.1-.1-.3-.2-.4c-.2 0-.4-.1-.7-.2c-.1 0-.2-.1-.3-.1c-.1 0-.1-.1-.3-.1c-.1 0-.2-.1-.2-.1l-.2-.2l-.2-.2v-.3c0-.4.1-.6.3-.8c.3-.2.6-.3.9-.3c.5 0 .9.2 1.3.4l-.2.4c-.4-.2-.7-.3-1.1-.3c-.2 0-.4 0-.5.1c-.1.1-.2.2-.2.4c0 .1 0 .1.1.2s0 .1.1.1c0 .1.1.1.2.2h.3c0 .1.1.1.2.1c.2.1.3.1.4.1c.1.1.2.1.3.2c.1 0 .2.1.3.2c0 0 .1.1.1.2c.1.1.1.2.1.4c0 .3-.1.6-.4.8c-.2.2-.5.3-.9.3zm6-.7l1.1-3h.6s-1.53 3.72-1.5 3.7c-.2.4-.3.7-.5.8c-.2.2-.5.2-.7.2c-.3 0-.6 0-.8-.1l.2-.5c.2.1.3.2.5.2c.2 0 .4-.1.5-.2c.1-.1.2-.3.3-.5L107 72h.6l1.4 3zm4.4-3.6v-.6h.6v.6h-.6zm-1.3 0v-.6h.7v.6h-.7zm2 3.6c-.3.4-.7.7-1.2.7c-.5 0-.8-.2-1-.4c-.3-.3-.4-.6-.4-1.1c-.01.03 0-2.2 0-2.2h.5s.03 2.09 0 2.1c0 .3.1.6.3.8c.2.2.4.3.7.3c.3 0 .6-.1.8-.3c.2-.2.3-.5.3-.8V72h.5v3.6h-.5v-.6s.01-.03 0 0zm1.5.6v-.3l2.4-2.9h-2.3v-.4h3.1v.3l-2.4 2.8h2.4v.5h-3.2zm7.1-.6c-.4.5-.9.7-1.5.7c-.5 0-.9-.2-1.3-.5c-.3-.4-.5-.8-.5-1.4c0-.5.2-1 .5-1.4c.3-.3.8-.5 1.3-.5c.5 0 .9.2 1.2.5c.3.4.4.9.4 1.4v.2H120c0 .4.1.7.4.9c.2.2.5.3.8.3c.5 0 .8-.2 1.2-.5c-.02 0 .3.3.3.3c0 0 .02 0 0 0zm-2.7-1.4h2.3c0-.4-.1-.7-.3-.9c-.2-.2-.5-.3-.9-.3c-.3 0-.5.1-.8.3c-.2.2-.3.5-.3.9zm5.2 1.4l1.1-3h.6s-1.52 3.72-1.5 3.7c-.2.4-.3.7-.5.8c-.2.2-.5.2-.7.2c-.3 0-.5 0-.8-.1l.2-.5c.2.1.3.2.6.2c.1 0 .3-.1.4-.2c.1-.1.2-.3.3-.5l-1.7-3.6h.6l1.4 3zm2.6.6v-5.1h.5v5.1h-.5zm4.9-.6c-.4.5-.9.7-1.5.7c-.5 0-1-.2-1.3-.5c-.4-.4-.5-.8-.5-1.4c0-.5.1-1 .5-1.4c.3-.3.7-.5 1.2-.5c.5 0 .9.2 1.2.5c.3.4.5.9.5 1.4v.2h-2.9c0 .4.2.7.4.9c.3.2.6.3.9.3c.4 0 .8-.2 1.1-.5c.03 0 .4.3.4.3c0 0-.04 0 0 0zm-2.8-1.4h2.3c0-.4-.1-.7-.3-.9c-.2-.2-.5-.3-.8-.3c-.3 0-.6.1-.8.3c-.2.2-.4.5-.4.9zm3.8 2V72h.6s-.03.93 0 .9c.1-.3.3-.5.6-.7c.2-.2.5-.3.8-.3c.05.02 0 .6 0 .6c0 0 .01 0 0 0c-.4 0-.8.1-1 .4c-.3.3-.4.7-.4 1.3c-.03-.04 0 1.4 0 1.4h-.6zm5-4.4v-.6h.6v.6h-.6zm0 4.4V72h.6v3.6h-.6zm3.1 1.1l-.5-.3s.5-.75.5-.8c-.4 0-.8-.2-1.1-.6c-.3-.3-.4-.7-.4-1.2c0-.5.2-1 .5-1.3c.4-.4.8-.6 1.3-.6c.6 0 1.1.2 1.5.6l-.4.4c-.3-.3-.7-.5-1.1-.5c-.3 0-.6.1-.9.4c-.2.3-.4.6-.4 1c0 .4.2.7.4 1c.3.3.6.4 1 .4c.4 0 .7-.2 1.1-.5l.3.3c-.4.4-.8.7-1.4.7c.04-.02-.4 1-.4 1zm2.7-5.5v-.6h.6v.6h-.6zm.1 4.4V72h.5v3.6h-.5zm1.7 0V72h.6v.6c.3-.5.7-.7 1.2-.7c.5 0 .8.1 1 .4c.3.3.4.6.4 1.1c.01-.05 0 2.2 0 2.2h-.5s-.03-2.11 0-2.1c0-.4-.1-.6-.3-.8c-.2-.2-.4-.3-.7-.3c-.3 0-.6.1-.8.3c-.2.2-.3.5-.3.8v2.1h-.6z" stroke="none" fill="#000"/></g><g id="Polygon417595"><path d="m.7 65.6v-4.9h1.7c.8 0 1.4.2 1.9.7c.5.5.7 1 .7 1.7c0 .7-.2 1.3-.7 1.8c-.5.5-1.1.7-1.9.7H.7zm1.7-4.4H1.2v3.9h1.2c.6 0 1.1-.2 1.5-.6c.3-.3.5-.8.5-1.3v-.1c0-.5-.2-1-.5-1.3c-.4-.4-.9-.6-1.5-.6zM9.1 65c-.3.5-.8.7-1.4.7c-.5 0-1-.2-1.3-.5c-.4-.4-.5-.8-.5-1.4c0-.5.1-1 .4-1.4c.4-.3.8-.5 1.3-.5c.5 0 .9.2 1.2.5c.3.4.5.9.5 1.4v.2H6.4c0 .4.2.7.4.9c.3.2.5.3.9.3c.4 0 .8-.2 1.1-.5l.3.3s.05 0 0 0zm-2.7-1.4h2.3c0-.4-.1-.7-.3-.9c-.2-.2-.5-.3-.8-.3c-.3 0-.6.1-.8.3c-.2.2-.4.5-.4.9zm3.9 2v-5.1h.5v5.1h-.5zm1.8 0V62h.5v.6c.1-.2.3-.4.5-.5c.2-.1.4-.2.7-.2c.5 0 .9.2 1.1.7c.4-.5.8-.7 1.3-.7c.4 0 .8.1 1 .4c.2.3.3.6.3 1.1c.05-.04 0 2.2 0 2.2h-.5v-2.1c0-.4-.1-.6-.2-.8c-.2-.2-.4-.3-.7-.3c-.3 0-.5.1-.7.3c-.2.2-.3.5-.3.8c-.03.01 0 2.1 0 2.1h-.6s.04-2.13 0-2.1c0-.4 0-.6-.2-.8c-.2-.2-.4-.3-.7-.3c-.3 0-.5.1-.7.3c-.2.2-.3.5-.3.8v2.1h-.5zm9.7-.6c-.4.5-.9.7-1.5.7c-.5 0-1-.2-1.3-.5c-.4-.4-.5-.8-.5-1.4c0-.5.1-1 .5-1.4c.3-.3.7-.5 1.2-.5c.5 0 .9.2 1.2.5c.3.4.5.9.5 1.4v.2H19c.1.4.2.7.4.9c.3.2.6.3.9.3c.4 0 .8-.2 1.1-.5c.03 0 .4.3.4.3c0 0-.03 0 0 0zM19 63.6h2.3c0-.4-.1-.7-.3-.9c-.2-.2-.5-.3-.8-.3c-.3 0-.6.1-.8.3c-.2.2-.3.5-.4.9zm3.1 2.9l3.2-6.5h.5l-3.2 6.5h-.5zm5.2-.9L25.7 62h.6l1.2 3l1.2-3h.6l-1.6 3.6h-.4zm2.9-4.4v-.6h.6v.6h-.6zm0 4.4V62h.5v3.6h-.5zm4.7-.7c-.4.5-.8.8-1.4.8c-.4 0-.9-.2-1.2-.5c-.3-.4-.5-.8-.5-1.4c0-.6.2-1 .5-1.4c.3-.3.8-.5 1.2-.5c.6 0 1.1.3 1.4.8v-2.2h.5v5.1h-.5v-.7s0-.03 0 0zm-1.3.3c.4 0 .7-.1.9-.4c.3-.3.4-.6.4-1c0-.4-.1-.8-.4-1c-.2-.3-.5-.4-.9-.4c-.4 0-.7.1-.9.4c-.2.2-.4.6-.4 1c0 .4.2.8.4 1c.3.3.6.4.9.4zm5.4-.1c-.3.4-.7.6-1.3.6c-.3 0-.7-.1-.9-.3c-.3-.2-.4-.5-.4-.9c0-.3.1-.6.4-.8c.3-.2.7-.3 1.1-.3c.4 0 .8 0 1.1.1v-.1c0-.3-.1-.6-.2-.7c-.2-.2-.5-.3-.8-.3c-.4 0-.8.1-1.1.3l-.2-.5c.4-.2.9-.3 1.3-.3c.5 0 .9.2 1.2.4c.2.3.3.6.3 1.1c.05-.01 0 2.2 0 2.2h-.5v-.5s.03-.05 0 0zm-1.2.1c.4 0 .7 0 .9-.2c.2-.2.3-.4.3-.7v-.4c-.3-.1-.7-.1-1-.1c-.4 0-.6 0-.8.2c-.2.1-.3.3-.3.5c0 .2.1.4.3.6c.2.1.4.1.6.1zm8 1.1c-.3.3-.8.4-1.4.4c-.6 0-1.2-.1-1.6-.5l.2-.4c.4.3.9.5 1.4.5c.4 0 .7-.1 1-.4c.2-.2.3-.5.3-.9v-.4c-.4.5-.8.7-1.4.7c-.5 0-.9-.1-1.2-.5c-.3-.3-.5-.7-.5-1.2c0-.5.2-.9.5-1.2c.3-.3.7-.5 1.2-.5c.6 0 1 .2 1.4.7v-.6h.5s.04 2.97 0 3c0 .5-.1.9-.4 1.3zm-1.4-1.5c.3 0 .7-.1.9-.3c.3-.2.4-.5.4-.9c0-.4-.1-.6-.4-.9c-.2-.2-.5-.3-.9-.3c-.4 0-.7.1-.9.3c-.2.2-.4.5-.4.9c0 .4.2.7.4.9c.3.2.5.3.9.3zm6.1.2c-.4.5-.9.7-1.5.7c-.5 0-.9-.2-1.3-.5c-.3-.4-.5-.8-.5-1.4c0-.5.2-1 .5-1.4c.3-.3.8-.5 1.3-.5c.5 0 .9.2 1.2.5c.3.4.4.9.4 1.4v.2h-2.8c0 .4.1.7.4.9c.2.2.5.3.8.3c.5 0 .9-.2 1.2-.5c-.02 0 .3.3.3.3c0 0 .02 0 0 0zm-2.7-1.4h2.3c0-.4-.1-.7-.3-.9c-.2-.2-.5-.3-.9-.3c-.3 0-.5.1-.8.3c-.2.2-.3.5-.3.9zm3.8 2V62h.5s.03.93 0 .9c.2-.3.4-.5.6-.7c.3-.2.6-.3.9-.3v.6s-.04 0 0 0c-.5 0-.8.1-1.1.4c-.2.3-.4.7-.4 1.3c.03-.04 0 1.4 0 1.4h-.5zm5.7-.6c-.4.5-.9.7-1.4.7c-.6 0-1-.2-1.3-.5c-.4-.4-.6-.8-.6-1.4c0-.5.2-1 .5-1.4c.4-.3.8-.5 1.3-.5c.5 0 .9.2 1.2.5c.3.4.5.9.5 1.4v.2h-2.9c0 .4.2.7.4.9c.2.2.5.3.9.3c.4 0 .8-.2 1.1-.5l.3.3s.04 0 0 0zm-2.7-1.4h2.3c0-.4-.1-.7-.3-.9c-.2-.2-.5-.3-.8-.3c-.3 0-.6.1-.8.3c-.2.2-.4.5-.4.9zm3.8 2v-5.1h.6v3.5l1.9-2h.7l-1.5 1.5l1.5 2.1h-.6l-1.3-1.7l-.7.8v.9h-.6zm5.8-.1c-.2.1-.4.2-.7.2c-.3 0-.5-.1-.7-.3c-.2-.2-.3-.4-.3-.8c.02.04 0-2.1 0-2.1h-.5v-.5h.5v-1.1h.6v1.1h1.1v.5h-1.1s-.04 2.07 0 2.1c0 .4.2.6.6.6c.1 0 .3-.1.5-.2v.5s-.01.01 0 0zm1-4.3v-.6h.6v.6h-.6zm0 4.4V62h.5v3.6h-.5zm1.8 0V62h.5s.04.93 0 .9c.2-.3.4-.5.6-.7c.3-.2.6-.3.9-.3v.6s-.03 0 0 0c-.4 0-.8.1-1.1.4c-.2.3-.4.7-.4 1.3c.04-.04 0 1.4 0 1.4h-.5zm2.8 0V62h.6s-.03.59 0 .6c.1-.2.3-.4.5-.5c.1-.1.4-.2.6-.2c.6 0 1 .2 1.2.7c.3-.5.7-.7 1.3-.7c.4 0 .7.1 1 .4c.2.3.3.6.3 1.1c.02-.04 0 2.2 0 2.2h-.5s-.02-2.11 0-2.1c0-.4-.1-.6-.3-.8c-.1-.2-.4-.3-.7-.3c-.2 0-.5.1-.7.3c-.2.2-.3.5-.3.8c.04.01 0 2.1 0 2.1h-.5v-2.1c0-.4-.1-.6-.2-.8c-.2-.2-.4-.3-.7-.3c-.3 0-.6.1-.7.3c-.2.2-.3.5-.3.8c-.03.03 0 2.1 0 2.1h-.6zm9.7-.6c-.4.5-.9.7-1.5.7c-.5 0-.9-.2-1.2-.5c-.4-.4-.6-.8-.6-1.4c0-.5.2-1 .5-1.4c.4-.3.8-.5 1.3-.5c.5 0 .9.2 1.2.5c.3.4.5.9.5 1.4v.2h-2.9c0 .4.2.7.4.9c.2.2.5.3.9.3c.4 0 .8-.2 1.1-.5l.3.3s.04 0 0 0zm-2.7-1.4h2.3c0-.4-.1-.7-.3-.9c-.2-.2-.5-.3-.8-.3c-.3 0-.6.1-.8.3c-.2.2-.4.5-.4.9zM82 65l1.1-3h.6l-1.5 3.7c-.1.4-.3.7-.5.8c-.2.2-.4.2-.7.2c-.3 0-.5 0-.8-.1l.2-.5c.2.1.4.2.6.2c.1 0 .3-.1.4-.2c.1-.1.2-.3.3-.5c.02-.01-1.6-3.6-1.6-3.6h.6l1.3 3zm5.4 0c-.4.5-.9.7-1.5.7c-.5 0-.9-.2-1.2-.5c-.4-.4-.6-.8-.6-1.4c0-.5.2-1 .5-1.4c.4-.3.8-.5 1.3-.5c.5 0 .9.2 1.2.5c.3.4.5.9.5 1.4v.2h-2.9c0 .4.2.7.4.9c.2.2.5.3.9.3c.4 0 .8-.2 1.1-.5l.3.3s.04 0 0 0zm-2.7-1.4h2.3c0-.4-.1-.7-.3-.9c-.2-.2-.5-.3-.8-.3c-.4 0-.6.1-.8.3c-.3.2-.4.5-.4.9zm3.8 2V62h.5s.05.61 0 .6c.3-.5.8-.7 1.3-.7c.4 0 .8.1 1 .4c.2.3.4.6.4 1.1c-.03-.05 0 2.2 0 2.2h-.6s.03-2.11 0-2.1c0-.4-.1-.6-.2-.8c-.2-.2-.5-.3-.8-.3c-.3 0-.5.1-.7.3c-.3.2-.4.5-.4.8c.05.03 0 2.1 0 2.1h-.5zm8-.6l1.1-3h.6s-1.52 3.72-1.5 3.7c-.2.4-.3.7-.5.8c-.2.2-.4.2-.7.2c-.3 0-.5 0-.8-.1l.2-.5c.2.1.4.2.6.2c.1 0 .3-.1.4-.2c.1-.1.2-.3.3-.5L94.6 62h.5l1.4 3zm4.8.1c-.3.4-.8.6-1.3.6c-.4 0-.7-.1-1-.3c-.3-.2-.4-.5-.4-.9c0-.3.1-.6.4-.8c.3-.2.7-.3 1.2-.3c.3 0 .7 0 1.1.1v-.1c0-.3-.1-.6-.3-.7c-.2-.2-.5-.3-.8-.3c-.4 0-.7.1-1.1.3l-.2-.5c.5-.2.9-.3 1.3-.3c.6 0 .9.2 1.2.4c.3.3.4.6.4 1.1c-.01-.01 0 2.2 0 2.2h-.5v-.5s-.03-.05 0 0zm-1.2.1c.3 0 .6 0 .8-.2c.3-.2.4-.4.4-.7v-.4c-.4-.1-.7-.1-1.1-.1c-.3 0-.6 0-.8.2c-.2.1-.2.3-.2.5c0 .2 0 .4.2.6c.2.1.4.1.7.1zm2.8 1.5V62h.6s-.03.71 0 .7c.4-.5.8-.8 1.4-.8c.4 0 .8.2 1.2.5c.3.4.5.8.5 1.4c0 .6-.2 1-.5 1.4c-.4.3-.8.5-1.2.5c-.6 0-1.1-.3-1.4-.8c-.03.01 0 1.8 0 1.8h-.6zm1.9-1.5c.3 0 .6-.1.9-.4c.2-.2.3-.6.3-1c0-.4-.1-.8-.3-1c-.3-.3-.6-.4-.9-.4c-.4 0-.7.1-1 .4c-.2.3-.3.6-.3 1c0 .4.1.7.3 1c.3.3.6.4 1 .4zm2.8.4V62h.6v3.6h-.6zm2.7 1.1l-.5-.3s.51-.75.5-.8c-.4 0-.8-.2-1.2-.5l.3-.3c.4.3.8.4 1.2.4c.3 0 .5 0 .6-.1c.1-.1.2-.3.2-.5c0-.1-.1-.3-.2-.4c-.2 0-.4-.1-.7-.2c-.1 0-.2-.1-.3-.1c-.1 0-.1-.1-.3-.1c-.1 0-.2-.1-.2-.1l-.2-.2l-.2-.2v-.3c0-.4.1-.6.3-.8c.3-.2.6-.3.9-.3c.5 0 .9.2 1.3.4l-.2.4c-.4-.2-.7-.3-1.1-.3c-.2 0-.4 0-.5.1c-.1.1-.2.2-.2.4c0 .1 0 .1.1.2s0 .1.1.1c0 .1.1.1.2.2h.3c0 .1.1.1.2.1c.2.1.3.1.4.1c.1.1.2.1.3.2c.1 0 .2.1.3.2c0 0 .1.1.1.2c.1.1.1.2.1.4c0 .3-.1.5-.3.7c-.2.2-.5.3-.8.4c-.04-.04-.5 1-.5 1zm2.6-1.1v-5.1h.5v3.5l2-2h.7l-1.5 1.5l1.5 2.1h-.6l-1.3-1.7l-.8.8v.9h-.5zm6.3-.5c-.3.4-.7.6-1.3.6c-.4 0-.7-.1-.9-.3c-.3-.2-.5-.5-.5-.9c0-.3.2-.6.5-.8c.3-.2.6-.3 1.1-.3c.4 0 .7 0 1.1.1v-.1c0-.3-.1-.6-.3-.7c-.2-.2-.4-.3-.8-.3c-.3 0-.7.1-1.1.3l-.1-.5c.4-.2.8-.3 1.3-.3c.5 0 .9.2 1.2.4c.2.3.3.6.3 1.1c.03-.01 0 2.2 0 2.2h-.5v-.5s.01-.05 0 0zm-1.2.1c.3 0 .6 0 .9-.2c.2-.2.3-.4.3-.7v-.4c-.3-.1-.7-.1-1-.1c-.4 0-.6 0-.8.2c-.2.1-.3.3-.3.5c0 .2.1.4.3.6c.1.1.4.1.6.1zm2.9.4V62h.5v.6c.3-.5.7-.7 1.3-.7c.4 0 .7.1 1 .4c.2.3.3.6.3 1.1c.04-.05 0 2.2 0 2.2h-.5v-2.1c0-.4-.1-.6-.3-.8c-.1-.2-.4-.3-.7-.3c-.3 0-.6.1-.8.3c-.2.2-.3.5-.3.8v2.1h-.5zm4.3 0v-5.1h.6v5.1h-.6zm1.9 0V62h.5v3.6h-.5zm7-.6c-.4.5-.9.7-1.5.7c-.5 0-1-.2-1.3-.6c-.4-.3-.6-.8-.6-1.3c0-.5.2-1 .6-1.3c.3-.4.8-.6 1.3-.6c.6 0 1 .2 1.4.6l-.3.4c-.4-.3-.7-.5-1.1-.5c-.4 0-.7.1-.9.4c-.3.3-.4.6-.4 1c0 .4.1.7.4 1c.2.3.5.4.9.4c.4 0 .8-.2 1.1-.5c.03-.04.4.3.4.3c0 0-.02-.02 0 0zm3.3.1c-.4.4-.8.6-1.4.6c-.3 0-.6-.1-.9-.3c-.3-.2-.4-.5-.4-.9c0-.3.1-.6.4-.8c.3-.2.7-.3 1.1-.3c.4 0 .8 0 1.2.1v-.1c0-.3-.1-.6-.3-.7c-.2-.2-.5-.3-.8-.3c-.4 0-.8.1-1.1.3l-.2-.5c.4-.2.9-.3 1.3-.3c.5 0 .9.2 1.2.4c.2.3.4.6.4 1.1c-.03-.01 0 2.2 0 2.2h-.5v-.5s-.05-.05 0 0zm-1.3.1c.4 0 .7 0 .9-.2c.2-.2.4-.4.4-.7v-.4c-.4-.1-.8-.1-1.1-.1c-.3 0-.6 0-.8.2c-.2.1-.3.3-.3.5c0 .2.1.4.3.6c.2.1.4.1.6.1zm2.9.4V62h.6s-.04.59 0 .6c.1-.2.3-.4.4-.5c.2-.1.4-.2.7-.2c.6 0 1 .2 1.2.7c.3-.5.7-.7 1.3-.7c.4 0 .7.1.9.4c.3.3.4.6.4 1.1c.01-.04 0 2.2 0 2.2h-.5s-.03-2.11 0-2.1c0-.4-.1-.6-.3-.8c-.1-.2-.4-.3-.7-.3c-.3 0-.5.1-.7.3c-.2.2-.3.5-.3.8c.03.01 0 2.1 0 2.1h-.5v-2.1c0-.4-.1-.6-.3-.8c-.1-.2-.3-.3-.6-.3c-.3 0-.6.1-.8.3c-.1.2-.2.5-.2.8c-.04.03 0 2.1 0 2.1h-.6z" stroke="none" fill="#000"/></g><g id="Polygon417594"><path d="m.3 55.6l2.2-4.9h.5l2.3 4.9h-.6l-.6-1.3H1.4l-.6 1.3h-.5zm1.3-1.8h2.3l-1.1-2.5l-1.2 2.5zm5.6 2.9l-.5-.3l.6-.8c-.5 0-.8-.2-1.1-.6c-.3-.3-.5-.7-.5-1.2c0-.5.2-1 .6-1.3c.3-.4.8-.6 1.3-.6c.5 0 1 .2 1.4.6l-.3.4c-.4-.3-.7-.5-1.1-.5c-.4 0-.7.1-.9.4c-.3.3-.4.6-.4 1c0 .4.1.7.4 1c.2.3.5.4.9.4c.4 0 .8-.2 1.1-.5l.4.3c-.4.4-.9.7-1.4.7c-.01-.02-.5 1-.5 1zm2.8-1.1V52h.5v3.6h-.5zm1.8 0v-5.1h.5v3.5l2-2h.7l-1.6 1.5l1.6 2.1h-.6l-1.3-1.7l-.8.8v.9h-.5zm4 0v-5.1h.6v5.1h-.6zm4.2-.5c-.3.4-.7.6-1.3.6c-.4 0-.7-.1-1-.3c-.2-.2-.4-.5-.4-.9c0-.3.2-.6.5-.8c.3-.2.6-.3 1.1-.3c.4 0 .7 0 1.1.1v-.1c0-.3-.1-.6-.3-.7c-.2-.2-.4-.3-.8-.3c-.3 0-.7.1-1.1.3l-.1-.5c.4-.2.8-.3 1.3-.3c.5 0 .9.2 1.2.4c.2.3.3.6.3 1.1c.02-.01 0 2.2 0 2.2h-.5v-.5s.01-.05 0 0zm-1.2.1c.3 0 .6 0 .9-.2c.2-.2.3-.4.3-.7v-.4c-.4-.1-.7-.1-1.1-.1c-.3 0-.5 0-.7.2c-.2.1-.3.3-.3.5c0 .2.1.4.3.6c.1.1.3.1.6.1zm2.9.4V52h.5v.6c.2-.2.3-.4.5-.5c.2-.1.4-.2.7-.2c.5 0 .9.2 1.1.7c.4-.5.8-.7 1.3-.7c.4 0 .8.1 1 .4c.2.3.4.6.4 1.1c-.04-.04 0 2.2 0 2.2h-.6s.02-2.11 0-2.1c0-.4-.1-.6-.2-.8c-.2-.2-.4-.3-.7-.3c-.3 0-.5.1-.7.3c-.2.2-.3.5-.3.8c-.02.01 0 2.1 0 2.1h-.6s.05-2.13 0-2.1c0-.4 0-.6-.2-.8c-.2-.2-.4-.3-.7-.3c-.3 0-.5.1-.7.3c-.2.2-.3.5-.3.8v2.1h-.5zm9-.5c-.3.4-.8.6-1.3.6c-.4 0-.7-.1-1-.3c-.2-.2-.4-.5-.4-.9c0-.3.2-.6.5-.8c.2-.2.6-.3 1.1-.3c.4 0 .7 0 1.1.1v-.1c0-.3-.1-.6-.3-.7c-.2-.2-.4-.3-.8-.3c-.3 0-.7.1-1.1.3l-.1-.5c.4-.2.8-.3 1.3-.3c.5 0 .9.2 1.1.4c.3.3.4.6.4 1.1c.01-.01 0 2.2 0 2.2h-.5v-.5s-.01-.05 0 0zm-1.2.1c.3 0 .6 0 .9-.2c.2-.2.3-.4.3-.7v-.4c-.4-.1-.7-.1-1.1-.1c-.3 0-.6 0-.7.2c-.2.1-.3.3-.3.5c0 .2.1.4.2.6c.2.1.4.1.7.1z" stroke="none" fill="#000"/></g><g id="Polygon417593"><path d="m.7 35.6v-4.9h2.1c.5 0 1 .1 1.3.4c.2.2.3.5.3.8c0 .6-.3.9-.8 1.2c.7.2 1 .6 1 1.1v.1c0 .4-.1.7-.4.9c-.4.3-.8.4-1.3.4H.7zM3.8 32c0-.3-.1-.4-.3-.6c-.2-.1-.4-.2-.8-.2H1.2v1.7s1.49-.02 1.5 0c.3 0 .6-.1.8-.2c.2-.2.3-.4.3-.7zm.3 2.2c0-.3-.1-.5-.3-.6c-.3-.2-.6-.2-1-.2c-.01-.03-1.6 0-1.6 0v1.7h1.7c.4 0 .7-.1.9-.2c.2-.2.3-.4.3-.7zm4.6.8c-.4.5-.9.7-1.5.7c-.5 0-.9-.2-1.2-.5c-.4-.4-.6-.8-.6-1.4c0-.5.2-1 .5-1.4c.4-.3.8-.5 1.3-.5c.5 0 .9.2 1.2.5c.3.4.5.9.5 1.4c0 .1 0 .1-.1.2H6c0 .4.2.7.4.9c.2.2.5.3.9.3c.4 0 .8-.2 1.1-.5l.3.3s.03 0 0 0zM6 33.6h2.3c0-.4-.1-.7-.3-.9c-.2-.2-.5-.3-.8-.3c-.4 0-.6.1-.8.3c-.3.2-.4.5-.4.9zm5.2 1.4l1.1-3h.6l-1.5 3.7c-.2.4-.3.7-.5.8c-.2.2-.4.2-.7.2c-.3 0-.5 0-.8-.1l.2-.5c.2.1.4.2.6.2c.1 0 .3-.1.4-.2c.1-.1.2-.3.3-.5c.01-.01-1.6-3.6-1.6-3.6h.6l1.3 3zm4.8.1c-.3.4-.8.6-1.3.6c-.4 0-.7-.1-1-.3c-.3-.2-.4-.5-.4-.9c0-.3.2-.6.4-.8c.3-.2.7-.3 1.2-.3c.3 0 .7 0 1.1.1v-.1c0-.3-.1-.6-.3-.7c-.2-.2-.5-.3-.8-.3c-.4 0-.7.1-1.1.3l-.2-.5c.5-.2.9-.3 1.4-.3c.5 0 .9.2 1.1.4c.3.3.4.6.4 1.1c-.01-.01 0 2.2 0 2.2h-.5v-.5s-.03-.05 0 0zm-1.2.1c.3 0 .6 0 .8-.2c.3-.2.4-.4.4-.7v-.4c-.4-.1-.7-.1-1.1-.1c-.3 0-.6 0-.8.2c-.1.1-.2.3-.2.5c0 .2 0 .4.2.6c.2.1.4.1.7.1zm2.6.4v-.3l2.4-2.9h-2.3v-.4h3.1v.3l-2.4 2.8h2.4v.5h-3.2zm4.1-2.9v-.7h.6v.7h-.6zm0 2.9v-.7h.6v.7h-.6zm4.6 0v-3.8l-.9.2l-.2-.9l1.4-.4h.7v4.9h-1zm4.2.1c-.6 0-1.2-.3-1.6-.7c-.4-.5-.6-1.1-.6-1.8v-.1c0-.7.2-1.3.6-1.8c.5-.4 1-.7 1.6-.7c.7 0 1.2.3 1.6.7c.4.5.6 1.1.6 1.8c0 .8-.2 1.4-.6 1.9c-.4.4-.9.7-1.6.7zm-1.1-2.6c0 .5.1.9.3 1.2c.2.3.5.4.8.4c.3 0 .6-.1.8-.4c.2-.3.3-.7.3-1.1v-.1c0-.4-.1-.8-.3-1.1c-.2-.3-.5-.4-.8-.4c-.3 0-.6.1-.8.4c-.2.3-.3.7-.3 1.1c.05.04 0 0 0 0c0 0 .05.05 0 0zm3.9 2.5v-.9l1.7-1.3l.6-.6c.2-.2.2-.4.2-.6c0-.2 0-.3-.2-.4c-.1-.1-.2-.2-.4-.2c-.2 0-.4 0-.5.1c-.2.1-.3.3-.5.6l-.8-.7c.3-.3.5-.6.8-.7c.3-.2.6-.3 1-.3c.5 0 .9.2 1.3.4c.3.3.4.7.4 1.1v.1c0 .3-.1.7-.3.9c-.1.3-.5.6-1 1c.03-.05-.8.6-.8.6h2.2v.9h-3.7zm5.3 0v-3.8l-.8.2l-.3-.9l1.4-.4h.8v4.9h-1.1zm3.9.1c-.8 0-1.4-.3-1.9-.9l.7-.7c.4.4.8.6 1.2.6c.2 0 .4 0 .5-.1c.1-.2.2-.3.2-.5c0-.2-.1-.3-.3-.5c-.1-.1-.4-.1-.7-.1h-.4l-.2-.7l1.2-1.2h-1.9v-.9h3.3v.8s-1.26 1.19-1.3 1.2c.9.1 1.4.6 1.4 1.4c0 .5-.2.8-.5 1.1c-.3.3-.8.5-1.3.5zm4.7 0c-.6 0-1.2-.3-1.6-.7c-.4-.5-.6-1.1-.6-1.8v-.1c0-.7.2-1.3.7-1.8c.4-.4.9-.7 1.5-.7c.7 0 1.2.3 1.6.7c.4.5.6 1.1.6 1.8c0 .8-.2 1.4-.6 1.9c-.4.4-.9.7-1.6.7zm-1.1-2.6c0 .5.1.9.3 1.2c.2.3.5.4.8.4c.3 0 .6-.1.8-.4c.2-.3.3-.7.3-1.1v-.1c0-.4-.1-.8-.3-1.1c-.2-.3-.5-.4-.8-.4c-.3 0-.6.1-.8.4c-.2.3-.3.7-.3 1.1c.05.04 0 0 0 0c0 0 .05.05 0 0zm5.8 2.6c-.8 0-1.5-.3-1.9-.9l.7-.7c.4.4.7.6 1.2.6c.2 0 .4 0 .5-.1c.1-.2.2-.3.2-.5c0-.2-.1-.3-.3-.5c-.1-.1-.4-.1-.7-.1h-.4l-.2-.7l1.2-1.2h-1.9v-.9h3.3v.8s-1.27 1.19-1.3 1.2c.9.1 1.3.6 1.3 1.4c0 .5-.1.8-.4 1.1c-.4.3-.8.5-1.3.5zm2.5-1.8v-1h2.2v1h-2.2zm4.9 1.8c-.6 0-1.1-.2-1.4-.5c-.4-.4-.6-1-.6-1.9c0-.8.2-1.4.5-1.9c.4-.5.9-.8 1.6-.8c.6 0 1.1.2 1.6.6l-.6.8c-.2-.1-.3-.2-.5-.3c-.1-.1-.3-.1-.5-.1c-.2 0-.3 0-.5.1l-.3.3c0 .1-.1.3-.1.4c-.1.1-.1.2-.1.3c.3-.2.7-.3 1-.3c.5 0 .9.2 1.3.4c.3.3.4.7.4 1.2c0 .5-.1.9-.5 1.2c-.3.3-.8.5-1.3.5zm-.9-1.7c0 .2.1.4.2.6c.2.1.4.2.6.2c.3 0 .5-.1.7-.2c.1-.2.2-.3.2-.6c0-.2-.1-.4-.3-.5c-.1-.1-.3-.2-.6-.2c-.2 0-.4.1-.6.2c-.1.1-.2.3-.2.5c-.02.02 0 0 0 0c0 0-.02.03 0 0zm5.5 1.7c-.6 0-1.1-.2-1.4-.5c-.4-.4-.6-1-.6-1.9c0-.8.2-1.4.6-1.9c.3-.5.9-.8 1.6-.8c.5 0 1 .2 1.5.6l-.6.8c-.1-.1-.3-.2-.4-.3c-.2-.1-.4-.1-.6-.1c-.1 0-.3 0-.4.1c-.2.1-.3.2-.3.3c-.1.1-.2.3-.2.4c0 .1 0 .2-.1.3c.4-.2.7-.3 1.1-.3c.5 0 .9.2 1.2.4c.3.3.5.7.5 1.2c0 .5-.2.9-.5 1.2c-.4.3-.9.5-1.4.5zm-.9-1.7c0 .2.1.4.2.6c.2.1.4.2.7.2c.2 0 .4-.1.6-.2c.1-.2.2-.3.2-.6c0-.2-.1-.4-.2-.5c-.2-.1-.4-.2-.6-.2c-.3 0-.5.1-.7.2c-.1.1-.2.3-.2.5c.02.02 0 0 0 0c0 0 .02.03 0 0zm5.7 1.7c-.6 0-1.2-.3-1.5-.7c-.4-.5-.6-1.1-.6-1.8v-.1c0-.7.2-1.3.6-1.8c.4-.4.9-.7 1.5-.7c.7 0 1.2.3 1.6.7c.4.5.6 1.1.6 1.8c0 .8-.2 1.4-.6 1.9c-.4.4-.9.7-1.6.7zm-1-2.6c0 .5.1.9.3 1.2c.2.3.4.4.7.4c.4 0 .6-.1.8-.4c.2-.3.3-.7.3-1.1v-.1c0-.4-.1-.8-.3-1.1c-.2-.3-.5-.4-.8-.4c-.3 0-.6.1-.7.4c-.2.3-.3.7-.3 1.1c-.04.04 0 0 0 0c0 0-.04.05 0 0z" stroke="none" fill="#000"/></g><g id="Polygon417592"><path d="m.7 25.6v-4.9h2.1c.6 0 1.1.2 1.4.5c.2.2.4.6.4 1c0 .4-.2.7-.4.9c-.2.3-.6.4-1 .5c.04 0 1.5 2 1.5 2h-.6l-1.5-1.9H1.2v1.9h-.5zm.5-2.4h1.6c.3 0 .6-.1.9-.3c.2-.2.3-.4.3-.7c0-.3-.1-.6-.3-.7c-.2-.2-.5-.3-.9-.3H1.2v2zM8.7 25c-.4.5-.9.7-1.5.7c-.5 0-1-.2-1.3-.5c-.4-.4-.5-.8-.5-1.4c0-.5.1-1 .5-1.4c.3-.3.7-.5 1.2-.5c.5 0 .9.2 1.2.5c.3.4.5.9.5 1.4v.2H5.9c.1.4.2.7.4.9c.3.2.6.3.9.3c.4 0 .8-.2 1.1-.5c.03 0 .4.3.4.3c0 0-.03 0 0 0zm-2.8-1.4h2.3c0-.4-.1-.7-.3-.9c-.2-.2-.5-.3-.8-.3c-.3 0-.6.1-.8.3c-.2.2-.3.5-.4.9zm3.8 2V22h.6s-.02.61 0 .6c.3-.5.7-.7 1.2-.7c.4 0 .8.1 1 .4c.3.3.4.6.4 1.1v2.2h-.5s-.04-2.11 0-2.1c0-.4-.1-.6-.3-.8c-.2-.2-.4-.3-.7-.3c-.4 0-.6.1-.8.3c-.2.2-.3.5-.3.8c-.02.03 0 2.1 0 2.1h-.6zm4.3 0v-5.1h.6v3.5l1.9-2h.7l-1.5 1.5l1.6 2.1h-.7l-1.3-1.7l-.7.8v.9h-.6zm5.4.9l3.2-6.5h.5l-3.2 6.5h-.5zm8.8-6.2v-.7h.6v.7h-.6zm-1.3 0v-.7h.6v.7h-.6zm.9 5.4c-.6 0-1.1-.2-1.4-.6c-.4-.4-.6-.9-.6-1.6v-2.8h.6s-.05 2.81 0 2.8c0 .5.1.9.3 1.2c.3.3.7.5 1.2.5c.4 0 .8-.2 1-.4c.3-.3.4-.7.4-1.3c.03.05 0-2.8 0-2.8h.6s-.02 2.81 0 2.8c0 .7-.2 1.2-.6 1.6c-.3.4-.8.6-1.5.6zm3.3-.1V22h.5s.04.93 0 .9c.2-.3.4-.5.6-.7c.3-.2.6-.3.9-.3c.02.02 0 .6 0 .6c0 0-.03 0 0 0c-.4 0-.8.1-1.1.4c-.2.3-.4.7-.4 1.3c.04-.04 0 1.4 0 1.4h-.5zm4.7-4.2v-.6h.6v.6h-.6zm-1.3 0v-.6h.7v.6h-.7zm2 3.6c-.3.4-.7.7-1.2.7c-.5 0-.8-.2-1-.4c-.3-.3-.4-.6-.4-1.1c-.02.03 0-2.2 0-2.2h.5s.02 2.09 0 2.1c0 .3.1.6.3.8c.2.2.4.3.7.3c.3 0 .6-.1.8-.3c.2-.2.3-.5.3-.8V22h.5v3.6h-.5v-.6s0-.03 0 0zm1.7.6V22h.6v.6c.3-.5.7-.7 1.2-.7c.5 0 .8.1 1 .4c.3.3.4.6.4 1.1c.01-.05 0 2.2 0 2.2h-.5s-.03-2.11 0-2.1c0-.4-.1-.6-.3-.8c-.2-.2-.4-.3-.7-.3c-.3 0-.6.1-.8.3c-.2.2-.3.5-.3.8v2.1h-.6zm6.6 0v-4.9h.5v2.9l2.8-2.9h.7l-2.1 2.1l2.2 2.8h-.7l-1.9-2.4l-1 1.1v1.3h-.5zm6.3.1c-.5 0-.9-.2-1.3-.6c-.4-.3-.5-.8-.5-1.3c0-.5.1-1 .5-1.3c.4-.4.8-.6 1.3-.6c.6 0 1 .2 1.4.6c.4.3.5.8.5 1.3c0 .5-.1 1-.5 1.3c-.4.4-.8.6-1.4.6zm0-.5c.4 0 .7-.1 1-.4c.3-.3.4-.6.4-1c0-.4-.2-.7-.4-1c-.3-.3-.6-.4-1-.4c-.3 0-.7.1-.9.4c-.3.3-.4.6-.4 1c0 .4.1.7.4 1c.3.3.6.4.9.4zm5.8-.3c-.4.5-.8.8-1.4.8c-.4 0-.8-.2-1.2-.5c-.3-.4-.5-.8-.5-1.4c0-.6.2-1 .5-1.4c.4-.3.8-.5 1.2-.5c.6 0 1.1.3 1.4.8c.01-.03 0-2.2 0-2.2h.5v5.1h-.5v-.7s.01-.03 0 0zm-1.3.3c.4 0 .7-.1.9-.4c.3-.3.4-.6.4-1c0-.4-.1-.8-.4-1c-.2-.3-.5-.4-.9-.4c-.3 0-.6.1-.9.4c-.2.2-.4.6-.4 1c0 .4.2.8.4 1c.3.3.6.4.9.4zm5.6-.2c-.3.4-.7.7-1.2.7c-.4 0-.8-.2-1-.4c-.3-.3-.4-.6-.4-1.1V22h.5s.04 2.09 0 2.1c0 .3.1.6.3.8c.2.2.4.3.7.3c.3 0 .6-.1.8-.3c.2-.2.3-.5.3-.8c.02-.05 0-2.1 0-2.1h.6v3.6h-.6v-.6s.02-.03 0 0z" stroke="none" fill="#000"/></g><g id="Polygon417591"><path d="m.6 5.6V.7h2.3c.5 0 1 .1 1.2.4c.3.3.4.5.4.9c0 .5-.2.8-.7 1c.3.2.6.3.7.5c.2.2.3.4.3.7v.1c0 .4-.2.7-.5 1c-.4.2-.8.3-1.4.3H.6zm2-2.9c.6 0 .8-.2.8-.5v-.1c0-.3-.2-.5-.7-.5c0 .04-1.1 0-1.1 0v1.1h1s.03-.02 0 0zm.3 2c.5 0 .8-.2.8-.6c0-.3-.3-.5-.8-.5c-.02-.02-1.3 0-1.3 0v1.1h1.3s.02-.05 0 0zm6.9-1.2c0 .7-.2 1.2-.5 1.6c-.4.4-.9.6-1.6.6c-.7 0-1.2-.2-1.6-.6c-.3-.3-.5-.9-.5-1.6c-.04 0 0-2.8 0-2.8h1s.04 2.77 0 2.8c0 .4.1.7.3.9c.2.2.5.3.8.3c.3 0 .6-.1.8-.3c.2-.2.3-.5.3-.9c-.04.01 0-2.8 0-2.8h1v2.8s.03-.04 0 0zm1.1 2.1V.7h1.9c.8 0 1.4.2 1.9.7c.5.5.7 1 .7 1.7c0 .7-.2 1.3-.7 1.8c-.5.5-1.1.7-1.9.7h-1.9zm1.9-3.9c.04-.03-.8 0-.8 0v2.9s.84.03.8 0c.5 0 .8-.1 1.1-.4c.3-.2.4-.6.4-1v-.1c0-.4-.1-.7-.4-1c-.3-.3-.6-.4-1.1-.4zm3.6 3.9V.7h1.9c.8 0 1.4.2 1.9.7c.5.5.7 1 .7 1.7c0 .7-.2 1.3-.7 1.8c-.5.5-1.1.7-1.9.7h-1.9zm1.9-3.9c.02-.03-.8 0-.8 0v2.9s.82.03.8 0c.5 0 .8-.1 1.1-.4c.3-.2.4-.6.4-1v-.1c0-.4-.1-.7-.4-1c-.3-.3-.6-.4-1.1-.4zm4.5 3.9V3.7l-1.9-3h1.3l1.2 2l1.1-2h1.3l-1.9 2.9v2h-1.1zm5.5-1.7v-1h3v1h-3zm7.4 1.7V3.7l-1.9-3h1.3l1.2 2l1.1-2h1.3l-1.9 2.9v2h-1.1zm5-.4c-.3.3-.6.5-1.1.5c-.4 0-.7-.1-.9-.3c-.3-.2-.4-.5-.4-.9c0-.4.1-.7.4-.9c.3-.2.7-.3 1.1-.3c.3 0 .6.1.9.2v-.1c0-.5-.2-.7-.8-.7c-.3 0-.7.1-1 .2l-.3-.8c.5-.2 1-.3 1.5-.3c.6 0 1 .1 1.3.4c.2.3.4.7.4 1.2c-.04.02 0 2.2 0 2.2h-1.1v-.4s.03-.01 0 0zm-.8-.3c.3 0 .5 0 .6-.1c.2-.2.3-.3.3-.5v-.2c-.3-.1-.5-.2-.7-.2c-.3 0-.4.1-.6.2c-.1.1-.2.2-.2.4c0 .1.1.2.2.3c.1.1.2.1.4.1zm2.8 1.8V1.8h1s.04.59 0 .6c.3-.4.7-.6 1.2-.6c.5 0 .9.2 1.2.5c.4.3.5.8.5 1.4c0 .6-.1 1.1-.5 1.4c-.3.4-.7.6-1.2.6c-.5 0-.8-.2-1.2-.6c.04.01 0 1.6 0 1.6h-1zm1-3c0 .3.1.6.3.8c.2.2.4.3.6.3c.3 0 .5-.1.7-.3c.2-.2.3-.5.3-.8c0-.3-.1-.5-.3-.7c-.2-.2-.4-.3-.7-.3c-.2 0-.4.1-.6.3c-.2.2-.3.4-.3.7c.03.02 0 0 0 0c0 0 .03.03 0 0zm3.8 1.9V1.8h1v3.8h-1zm3.2 1.2l-.9-.4s.56-.78.6-.8c-.5-.1-.8-.2-1.2-.5l.5-.7c.4.3.8.5 1.2.5c.3 0 .4-.1.4-.3v-.1c0-.1 0-.1-.1-.1l-.1-.1h-.1l-.1-.1h-.2c-.1 0-.1-.1-.2-.1c-.1 0-.3-.1-.4-.1c-.1-.1-.2-.1-.3-.2l-.3-.3c-.1-.2-.1-.3-.1-.5c0-.4.1-.7.4-.9c.3-.2.6-.3 1-.3c.5 0 .9.1 1.4.4l-.4.8c-.4-.3-.8-.4-1-.4c-.2 0-.3 0-.3.1c-.1 0-.1.1-.1.2c0 .1 0 .1.2.2c.1.1.3.2.5.2c.2.1.3.1.4.2c.2 0 .3.1.4.2l.3.3c0 .1.1.3.1.4v.1c0 .3-.1.6-.3.8c-.2.2-.5.3-.8.3c-.04.05-.5 1.2-.5 1.2zM53 5.6V.5h1.1v2.7l1.2-1.4h1.3l-1.4 1.5l1.5 2.3h-1.3l-.9-1.5l-.4.4v1.1H53zm6.3-.4c-.3.3-.7.5-1.1.5c-.4 0-.7-.1-1-.3c-.2-.2-.3-.5-.3-.9c0-.4.1-.7.4-.9c.3-.2.6-.3 1.1-.3c.3 0 .6.1.9.2v-.1c0-.5-.3-.7-.8-.7c-.3 0-.7.1-1 .2l-.3-.8c.5-.2 1-.3 1.5-.3c.5 0 .9.1 1.2.4c.3.3.4.7.4 1.2c.03.02 0 2.2 0 2.2h-1v-.4s0-.01 0 0zm-.8-.3c.2 0 .4 0 .6-.1c.1-.2.2-.3.2-.5v-.2c-.2-.1-.4-.2-.7-.2c-.2 0-.4.1-.5.2c-.1.1-.2.2-.2.4c0 .1.1.2.2.3c.1.1.2.1.4.1zm2.7.7V1.8h1.1v.6c.3-.4.7-.6 1.1-.6c.4 0 .7.1 1 .3c.2.3.3.6.3 1.1v2.4h-1.1s.02-2.09 0-2.1c0-.5-.2-.8-.6-.8c-.2 0-.4.1-.5.2c-.1.2-.2.4-.2.6v2.1h-1.1zm4.5 0V.5h1v5.1h-1zm2.1 0V1.8h1v3.8h-1zm6.5.1c-.7 0-1.3-.3-1.7-.7c-.5-.5-.8-1.1-.8-1.8v-.1c0-.7.3-1.3.8-1.7c.4-.5 1-.8 1.8-.8c.8 0 1.4.3 1.9.8l-.7.8c-.4-.4-.8-.6-1.2-.6c-.4 0-.8.2-1 .5c-.3.3-.4.6-.4 1c0 .5.1.8.4 1.1c.2.3.6.5 1 .5c.2 0 .5-.1.7-.2c.2 0 .4-.2.6-.4l.7.7c-.3.3-.6.5-.9.7c-.3.1-.7.2-1.2.2zm5-.5c-.3.3-.7.5-1.1.5c-.4 0-.7-.1-1-.3c-.2-.2-.3-.5-.3-.9c0-.4.1-.7.4-.9c.3-.2.6-.3 1.1-.3c.3 0 .6.1.9.2v-.1c0-.5-.3-.7-.8-.7c-.3 0-.7.1-1 .2l-.3-.8c.5-.2 1-.3 1.5-.3c.5 0 .9.1 1.2.4c.3.3.4.7.4 1.2c.03.02 0 2.2 0 2.2h-1v-.4s0-.01 0 0zm-.8-.3c.2 0 .4 0 .6-.1c.1-.2.2-.3.2-.5v-.2c-.2-.1-.4-.2-.7-.2c-.2 0-.4.1-.5.2c-.1.1-.2.2-.2.4c0 .1.1.2.2.3c.1.1.2.1.4.1zm2.7.7V1.8h1.1v.6c.3-.4.7-.6 1.1-.6c.5 0 .9.2 1.1.6c.3-.4.7-.6 1.2-.6c.4 0 .7.1.9.3c.3.3.4.6.4 1.1c-.03-.04 0 2.4 0 2.4h-1.1V3.5c0-.5-.2-.8-.6-.8c-.2 0-.4.1-.5.2c-.1.2-.2.4-.2.6c.04.01 0 2.1 0 2.1h-1s-.02-2.09 0-2.1c0-.5-.2-.8-.6-.8c-.2 0-.4.1-.5.2c-.1.2-.2.4-.2.6v2.1h-1.1zm10.7.1c-.9 0-1.5-.3-2.1-.8l.6-.8c.5.4 1 .6 1.5.6c.2 0 .4 0 .5-.1c.1-.1.2-.2.2-.3v-.1c0-.1-.1-.2-.2-.3c-.1-.1-.4-.2-.8-.3c-.3-.1-.5-.1-.7-.2c-.2-.1-.3-.1-.5-.3c-.1-.1-.2-.2-.3-.4c-.1-.1-.1-.3-.1-.6c0-.4.1-.8.4-1.1c.4-.2.8-.4 1.3-.4c.7 0 1.3.2 1.8.7l-.6.8c-.4-.4-.9-.5-1.2-.5c-.2 0-.4 0-.5.1c-.1.1-.2.2-.2.3c0 .2.1.3.2.4c.2.1.5.2.9.3c.5.1.9.3 1.2.5c.2.2.4.5.4.9v.1c0 .4-.2.8-.5 1.1c-.4.2-.8.4-1.3.4zm2.6-4.3v-.9h1.1v.9h-1.1zm0 4.2V1.8h1.1v3.8h-1.1zm2.1 0V.5h1.1v5.1h-1.1zM102 5c-.4.5-.9.7-1.5.7c-.6 0-1.1-.2-1.4-.6c-.4-.3-.6-.8-.6-1.4c0-.5.2-1 .5-1.4c.4-.3.8-.5 1.4-.5c.6 0 1 .2 1.3.6c.3.4.5.8.5 1.4v.3h-2.6c0 .2.1.4.3.5c.2.2.4.2.6.2c.3 0 .6-.1.9-.4c.01.04.6.6.6.6c0 0 .02-.02 0 0zm-2.4-1.6h1.6c-.1-.2-.1-.4-.3-.6c-.1-.1-.3-.2-.5-.2c-.2 0-.4.1-.6.2c-.1.2-.2.4-.2.6zm5.2 2.3c-.6 0-1.1-.2-1.4-.6c-.4-.4-.6-.8-.6-1.4c0-.5.2-1 .6-1.4c.3-.3.8-.5 1.4-.5c.6 0 1.1.2 1.5.6l-.7.7c-.1-.1-.2-.2-.4-.3c-.1-.1-.2-.1-.4-.1c-.3 0-.5.1-.7.3c-.1.2-.2.4-.2.7c0 .3.1.6.2.8c.2.2.4.3.7.3c.3 0 .6-.2.9-.4l.6.6c-.2.2-.4.4-.7.5c-.2.1-.5.2-.8.2zm5.4-.7c-.4.5-.9.7-1.5.7c-.6 0-1.1-.2-1.4-.6c-.4-.3-.6-.8-.6-1.4c0-.5.2-1 .5-1.4c.4-.3.8-.5 1.4-.5c.6 0 1 .2 1.3.6c.3.4.5.8.5 1.4v.3h-2.6c0 .2.1.4.3.5c.1.2.3.2.6.2c.3 0 .6-.1.9-.4c-.01.04.6.6.6.6c0 0 0-.02 0 0zm-2.5-1.6h1.7l-.3-.6c-.1-.1-.3-.2-.5-.2c-.3 0-.4.1-.6.2l-.3.6zm6.8 2.8c-.4.4-.9.5-1.6.5c-.7 0-1.2-.1-1.7-.4l.4-.8c.4.3.8.4 1.2.4c.7 0 1.1-.4 1.1-1v-.2c-.2.2-.3.3-.5.4c-.2.1-.5.2-.7.2c-.5 0-.9-.2-1.2-.5c-.3-.3-.5-.7-.5-1.3c0-.5.2-.9.5-1.2c.3-.4.7-.5 1.2-.5c.4 0 .8.2 1.2.5v-.5h1.1s-.05 2.95 0 3c0 .6-.2 1.1-.5 1.4zm-2.4-2.7c0 .3.1.5.2.7c.2.1.4.2.7.2c.3 0 .5-.1.6-.2c.2-.2.3-.4.3-.7c0-.2-.1-.4-.3-.6c-.1-.2-.3-.2-.6-.2c-.3 0-.5 0-.7.2c-.1.2-.2.4-.2.6c-.02.03 0 0 0 0c0 0-.02.04 0 0zm2.3-3.2c0 .4-.1.7-.4.9c-.2.2-.5.2-.9.2c-.4 0-.7 0-.9-.2c-.2-.2-.4-.5-.4-.9h.7c.1.3.3.5.6.5c.3 0 .5-.2.6-.5c.02.04.7 0 .7 0c0 0 .03.04 0 0zm1.5 1.1v-.9h1.1v.9h-1.1zm.1 4.2V1.8h1v3.8h-1z" stroke="none" fill="#000"/></g></svg>