<?xml version="1.0" standalone="no"?><!DOCTYPE svg PUBLIC "-//W3C//DTD SVG 1.1//EN" "http://www.w3.org/Graphics/SVG/1.1/DTD/svg11.dtd"><svg xmlns="http://www.w3.org/2000/svg" version="1.1" width="52.5px" height="26.4px" viewBox="0 -3 52.5 26.4" style="top:-3px"><desc>084200 125</desc><defs/><g id="Polygon422731"><path d="m2.5 5.7c-.6 0-1.1-.3-1.5-.7C.6 4.5.4 3.9.4 3.2v-.1c0-.7.2-1.3.6-1.8c.4-.4.9-.7 1.6-.7c.6 0 1.1.3 1.5.7c.4.5.6 1.1.6 1.8c0 .8-.2 1.4-.6 1.9c-.4.4-.9.7-1.6.7zm-1-2.6c0 .5.1.9.3 1.2c.2.3.4.4.8.4c.3 0 .5-.1.7-.4c.2-.3.3-.7.3-1.1v-.1c0-.4-.1-.8-.3-1.1c-.2-.3-.4-.4-.8-.4c-.3 0-.5.1-.7.4c-.2.3-.3.7-.3 1.1c-.02.04 0 0 0 0c0 0-.02.05 0 0zm5.8 2.6c-.5 0-1-.2-1.3-.4c-.4-.3-.6-.6-.6-1v-.1c0-.2.1-.5.2-.7c.1-.2.3-.3.6-.4c-.4-.3-.6-.6-.6-1.1c0-.4.2-.7.5-1c.3-.2.7-.4 1.2-.4c.5 0 .9.2 1.3.4c.3.3.4.6.4 1c0 .5-.2.8-.6 1.1c.3.1.5.3.6.4c.1.2.2.4.2.7c0 .5-.2.8-.5 1.1c-.4.2-.8.4-1.4.4zm-.7-3.6c0 .2.1.3.2.4c.1.1.3.2.5.2c.2 0 .4-.1.5-.2c.2-.1.2-.2.2-.4c0-.2 0-.3-.2-.4c-.1-.1-.3-.2-.5-.2c-.2 0-.4.1-.5.2c-.1.1-.2.2-.2.4c.01-.01 0 0 0 0c0 0 .01 0 0 0zm.7 2.7c.3 0 .5-.1.6-.2c.2-.1.3-.3.3-.4c0-.2-.1-.4-.3-.5c-.1-.1-.3-.1-.6-.1c-.2 0-.4 0-.6.1c-.2.1-.2.3-.2.5c0 .1 0 .3.2.4c.2.1.4.2.6.2zm5 .8V4.5H9.9l-.2-.7L12.4.7h.9v3h.7v.8h-.7v1.1h-1zM11 3.7h1.3V2.1L11 3.7zm3.7 1.9v-.9s1.62-1.29 1.6-1.3c.3-.3.6-.5.7-.6c.1-.2.2-.4.2-.6c0-.2-.1-.3-.2-.4c-.1-.1-.3-.2-.5-.2c-.2 0-.3 0-.5.1c-.1.1-.3.3-.5.6l-.8-.7c.3-.3.6-.6.8-.7c.3-.2.7-.3 1.1-.3c.5 0 .9.2 1.2.4c.3.3.5.7.5 1.1v.1c0 .3-.1.7-.3.9c-.2.3-.5.6-1 1c-.03-.05-.8.6-.8.6h2.1v.9h-3.6zm6.6.1c-.7 0-1.2-.3-1.6-.7c-.4-.5-.6-1.1-.6-1.8v-.1c0-.7.2-1.3.6-1.8c.4-.4.9-.7 1.6-.7c.6 0 1.1.3 1.5.7c.4.5.6 1.1.6 1.8c0 .8-.2 1.4-.6 1.9c-.4.4-.9.7-1.5.7zm-1.1-2.6c0 .5.1.9.3 1.2c.2.3.4.4.8.4c.3 0 .5-.1.7-.4c.2-.3.3-.7.3-1.1v-.1c0-.4-.1-.8-.3-1.1c-.2-.3-.4-.4-.7-.4c-.4 0-.6.1-.8.4c-.2.3-.3.7-.3 1.1c-.01.04 0 0 0 0c0 0-.01.05 0 0zm6.2 2.6c-.7 0-1.2-.3-1.6-.7c-.4-.5-.6-1.1-.6-1.8v-.1c0-.7.2-1.3.6-1.8c.4-.4.9-.7 1.6-.7c.6 0 1.1.3 1.5.7c.4.5.6 1.1.6 1.8c0 .8-.2 1.4-.6 1.9c-.4.4-.9.7-1.5.7zm-1.1-2.6c0 .5.1.9.3 1.2c.2.3.5.4.8.4c.3 0 .6-.1.7-.4c.2-.3.3-.7.3-1.1v-.1c0-.4-.1-.8-.3-1.1c-.2-.3-.4-.4-.7-.4c-.4 0-.6.1-.8.4c-.2.3-.3.7-.3 1.1c0 .04 0 0 0 0c0 0 0 .05 0 0zm4 .8v-1h2.1v1h-2.1zm3.5 1.7V1.8L32 2l-.3-.9l1.4-.4h.8v4.9h-1.1zm2.1 0v-.9l1.6-1.3c.3-.3.5-.5.7-.6c.1-.2.1-.4.1-.6c0-.2 0-.3-.1-.4c-.2-.1-.3-.2-.5-.2c-.2 0-.4 0-.5.1c-.2.1-.3.3-.5.6l-.8-.7c.3-.3.6-.6.8-.7c.3-.2.6-.3 1.1-.3c.5 0 .9.2 1.2.4c.3.3.4.7.4 1.1v.1c0 .3 0 .7-.2.9c-.2.3-.6.6-1 1c-.04-.05-.8.6-.8.6h2.1v.9h-3.6zm6.1.1c-.7 0-1.3-.3-1.8-.8l.6-.7c.4.3.8.5 1.2.5c.3 0 .5-.1.6-.2c.2-.1.2-.3.2-.5c0-.2-.1-.4-.2-.5c-.2-.1-.4-.2-.6-.2c-.3 0-.6.1-.9.2l-.6-.4l.2-2.4h3v.9h-2.1s-.08.89-.1.9c.2-.1.5-.1.7-.1c.5 0 .9.1 1.2.4c.3.3.5.7.5 1.2c0 .5-.2.9-.5 1.2c-.4.3-.8.5-1.4.5z" stroke="none" fill="#000"/></g></svg>