<?xml version="1.0" standalone="no"?><!DOCTYPE svg PUBLIC "-//W3C//DTD SVG 1.1//EN" "http://www.w3.org/Graphics/SVG/1.1/DTD/svg11.dtd"><svg xmlns="http://www.w3.org/2000/svg" version="1.1" width="253px" height="189.4px" viewBox="0 -3 253 189.4" style="top:-3px"><desc>UDRY OVER THE SINK – Bula kl k + Kurutma Mat (Lavabo st ) Renk / r n Kodu K m r Grisi: 1016883 149 Kal pl bula ...</desc><defs/><g id="Polygon409192"><path d="m.6 155.6V152h.5s.04.93 0 .9c.2-.3.4-.5.6-.7c.3-.2.6-.3.9-.3c.02.02 0 .6 0 .6c0 0-.02 0 0 0c-.4 0-.8.1-1.1.4c-.2.3-.4.7-.4 1.3c.04-.04 0 1.4 0 1.4h-.5zm5-.5c-.3.4-.7.6-1.3.6c-.3 0-.6-.1-.9-.3c-.3-.2-.4-.5-.4-.9c0-.3.1-.6.4-.8c.3-.2.7-.3 1.1-.3c.4 0 .8 0 1.1.1v-.1c0-.3 0-.6-.2-.7c-.2-.2-.5-.3-.8-.3c-.4 0-.8.1-1.1.3l-.2-.5c.4-.2.9-.3 1.3-.3c.5 0 .9.2 1.2.4c.2.3.4.6.4 1.1c-.03-.01 0 2.2 0 2.2h-.6v-.5s.05-.05 0 0zm-1.2.1c.4 0 .7 0 .9-.2c.2-.2.4-.4.4-.7v-.4c-.4-.1-.8-.1-1.1-.1c-.3 0-.6 0-.8.2c-.2.1-.3.3-.3.5c0 .2.1.4.3.6c.2.1.4.1.6.1zm3.1.4v-3.1h-.5v-.5h.5s.02-.33 0-.3c0-.4.1-.7.3-1c.2-.1.5-.2.8-.2c.2 0 .4 0 .6.1v.4c-.2 0-.4-.1-.5-.1c-.4 0-.7.3-.7.8c.05 0 0 .3 0 .3h1.2v.5H8.1v3.1h-.6zm4.2-.1c-.1.1-.4.2-.6.2c-.3 0-.6-.1-.8-.3c-.1-.2-.2-.4-.2-.8c-.03.04 0-2.1 0-2.1h-.5v-.5h.5v-1.1h.5v1.1h1.2v.5h-1.2v2.1c0 .4.2.6.6.6c.2 0 .4-.1.5-.2c.05.05 0 .5 0 .5c0 0 .05.01 0 0zm3.4-.4c-.3.4-.8.6-1.3.6c-.4 0-.7-.1-1-.3c-.2-.2-.4-.5-.4-.9c0-.3.2-.6.5-.8c.2-.2.6-.3 1.1-.3c.4 0 .7 0 1.1.1v-.1c0-.3-.1-.6-.3-.7c-.2-.2-.4-.3-.8-.3c-.3 0-.7.1-1.1.3l-.1-.5c.4-.2.8-.3 1.3-.3c.5 0 .9.2 1.1.4c.3.3.4.6.4 1.1c.02-.01 0 2.2 0 2.2h-.5v-.5s0-.05 0 0zm-1.2.1c.3 0 .6 0 .9-.2c.2-.2.3-.4.3-.7v-.4c-.4-.1-.7-.1-1.1-.1c-.3 0-.6 0-.7.2c-.2.1-.3.3-.3.5c0 .2.1.4.3.6c.1.1.3.1.6.1zm6.5-.2l1.2-3h.5s-1.47 3.72-1.5 3.7c-.1.4-.3.7-.5.8c-.2.2-.4.2-.7.2c-.2 0-.5 0-.7-.1l.1-.5c.2.1.4.2.6.2c.2 0 .3-.1.4-.2c.1-.1.2-.3.3-.5c.05-.01-1.6-3.6-1.6-3.6h.6l1.3 3zm2.7.6V152h.5v3.6h-.5zm1.7 0v-5.1h.6v3.5l1.9-2h.7l-1.5 1.5l1.6 2.1h-.7l-1.3-1.7l-.7.8v.9h-.6zm6.3-.5c-.3.4-.7.6-1.3.6c-.3 0-.6-.1-.9-.3c-.3-.2-.4-.5-.4-.9c0-.3.1-.6.4-.8c.3-.2.7-.3 1.1-.3c.4 0 .8 0 1.1.1v-.1c0-.3-.1-.6-.2-.7c-.2-.2-.5-.3-.8-.3c-.4 0-.8.1-1.1.3l-.2-.5c.4-.2.9-.3 1.3-.3c.5 0 .9.2 1.2.4c.2.3.4.6.4 1.1c-.04-.01 0 2.2 0 2.2h-.6v-.5s.04-.05 0 0zm-1.2.1c.4 0 .7 0 .9-.2c.2-.2.3-.4.3-.7v-.4c-.3-.1-.7-.1-1-.1c-.4 0-.6 0-.8.2c-.2.1-.3.3-.3.5c0 .2.1.4.3.6c.2.1.4.1.6.1zm2.9.4V152h.5s.05.61 0 .6c.3-.5.8-.7 1.3-.7c.4 0 .8.1 1 .4c.2.3.4.6.4 1.1c-.03-.05 0 2.2 0 2.2h-.6s.03-2.11 0-2.1c0-.4-.1-.6-.2-.8c-.2-.2-.5-.3-.8-.3c-.3 0-.5.1-.7.3c-.2.2-.4.5-.4.8c.05.03 0 2.1 0 2.1h-.5zm6.7-.5c-.3.4-.7.6-1.3.6c-.4 0-.7-.1-1-.3c-.2-.2-.4-.5-.4-.9c0-.3.2-.6.5-.8c.3-.2.6-.3 1.1-.3c.4 0 .7 0 1.1.1v-.1c0-.3-.1-.6-.3-.7c-.2-.2-.4-.3-.8-.3c-.3 0-.7.1-1.1.3l-.1-.5c.4-.2.8-.3 1.3-.3c.5 0 .9.2 1.2.4c.2.3.3.6.3 1.1c.03-.01 0 2.2 0 2.2h-.5v-.5s.01-.05 0 0zm-1.2.1c.3 0 .6 0 .9-.2c.2-.2.3-.4.3-.7v-.4c-.3-.1-.7-.1-1-.1c-.4 0-.6 0-.8.2c-.2.1-.3.3-.3.5c0 .2.1.4.3.6c.1.1.4.1.6.1zm4.8.5c-.6 0-1-.3-1.4-.8v.7h-.5v-5.1h.5s.01 2.21 0 2.2c.4-.5.9-.8 1.4-.8c.5 0 .9.2 1.2.5c.4.4.5.8.5 1.4c0 .6-.1 1-.5 1.4c-.3.3-.7.5-1.2.5zm-.1-.5c.4 0 .7-.1.9-.4c.3-.2.4-.6.4-1c0-.4-.1-.8-.4-1c-.2-.3-.5-.4-.9-.4c-.3 0-.6.1-.9.4c-.3.3-.4.6-.4 1c0 .4.1.7.4 1c.2.3.6.4.9.4zm2.8-4v-.6h.7v.6h-.7zm.1 4.4V152h.5v3.6h-.5zm1.8 0v-5.1h.6v5.1h-.6zm1.8-4.4v-.6h.6v.6h-.6zm.1 4.4V152h.5v3.6h-.5zm1.7 0V152h.6s-.02.93 0 .9c.1-.3.3-.5.6-.7c.2-.2.5-.3.9-.3c-.04.02 0 .6 0 .6h-.1c-.4 0-.7.1-1 .4c-.3.3-.4.7-.4 1.3c-.02-.04 0 1.4 0 1.4h-.6zm2.2 0v-.7h.6v.7h-.6z" stroke="none" fill="#000"/></g><g id="Polygon409191"><path d="m.7 145.6v-4.9h2.1c.5 0 1 .1 1.3.4c.2.2.3.5.3.8c0 .6-.3.9-.8 1.2c.7.2 1 .6 1 1.1v.1c0 .4-.1.7-.4.9c-.4.3-.8.4-1.3.4H.7zm3.1-3.6c0-.3-.1-.4-.3-.6c-.2-.1-.4-.2-.8-.2H1.2v1.7s1.49-.02 1.5 0c.3 0 .6-.1.8-.2c.2-.2.3-.4.3-.7zm.3 2.2c0-.3-.1-.5-.3-.6c-.3-.2-.6-.2-1-.2c-.01-.03-1.6 0-1.6 0v1.7h1.7c.4 0 .7-.1.9-.2c.2-.2.3-.4.3-.7zm3.9.9c-.3.4-.7.6-1.3.6c-.3 0-.6-.1-.9-.3c-.3-.2-.4-.5-.4-.9c0-.3.1-.6.4-.8c.3-.2.7-.3 1.1-.3c.4 0 .8 0 1.1.1v-.1c0-.3-.1-.6-.2-.7c-.2-.2-.5-.3-.8-.3c-.4 0-.8.1-1.1.3l-.2-.5c.4-.2.9-.3 1.3-.3c.5 0 .9.2 1.2.4c.2.3.4.6.4 1.1c-.04-.01 0 2.2 0 2.2h-.6v-.5s.04-.05 0 0zm-1.2.1c.4 0 .7 0 .9-.2c.2-.2.3-.4.3-.7v-.4c-.3-.1-.7-.1-1-.1c-.4 0-.6 0-.8.2c-.2.1-.3.3-.3.5c0 .2.1.4.3.6c.2.1.4.1.6.1zm2.9.4v-5.1h.5v3.5l2-2h.7l-1.5 1.5l1.5 2.1h-.6l-1.3-1.7l-.8.8v.9h-.5zm4 0V142h.6v3.6h-.6zm1.8 0V142h.6s-.03.59 0 .6c.1-.2.3-.4.5-.5c.1-.1.4-.2.6-.2c.6 0 1 .2 1.2.7c.3-.5.7-.7 1.3-.7c.4 0 .7.1 1 .4c.2.3.3.6.3 1.1c.02-.04 0 2.2 0 2.2h-.5s-.02-2.11 0-2.1c0-.4-.1-.6-.3-.8c-.1-.2-.4-.3-.7-.3c-.2 0-.5.1-.7.3c-.2.2-.3.5-.3.8c.04.01 0 2.1 0 2.1h-.5v-2.1c0-.4-.1-.6-.2-.8c-.2-.2-.4-.3-.7-.3c-.3 0-.6.1-.7.3c-.2.2-.3.5-.3.8c-.03.03 0 2.1 0 2.1h-.6zm6.6-2.9v-.7h.7v.7h-.7zm0 2.9v-.7h.7v.7h-.7zm4 0v-4.9h.6l1.8 2.7l1.8-2.7h.5v4.9h-.5v-4l-1.8 2.7l-1.8-2.7v4h-.6zm8.4-.5c-.3.4-.7.6-1.3.6c-.4 0-.7-.1-.9-.3c-.3-.2-.5-.5-.5-.9c0-.3.2-.6.5-.8c.3-.2.6-.3 1.1-.3c.4 0 .7 0 1.1.1v-.1c0-.3-.1-.6-.3-.7c-.2-.2-.4-.3-.8-.3c-.3 0-.7.1-1.1.3l-.1-.5c.4-.2.8-.3 1.3-.3c.5 0 .9.2 1.2.4c.2.3.3.6.3 1.1c.03-.01 0 2.2 0 2.2h-.5v-.5s.01-.05 0 0zm-1.2.1c.3 0 .6 0 .9-.2c.2-.2.3-.4.3-.7v-.4c-.3-.1-.7-.1-1-.1c-.4 0-.6 0-.8.2c-.2.1-.3.3-.3.5c0 .2.1.4.3.6c.1.1.4.1.6.1zm4.7.3c-.2.1-.4.2-.6.2c-.4 0-.6-.1-.8-.3c-.2-.2-.3-.4-.3-.8c.03.04 0-2.1 0-2.1h-.5v-.5h.5v-1.1h.6v1.1h1.1v.5h-1.1s-.03 2.07 0 2.1c0 .4.2.6.6.6c.2 0 .3-.1.5-.2v.5s0 .01 0 0zm4.6.2c-.7 0-1.3-.3-1.8-.9l.4-.3c.4.4.9.7 1.5.7c.3 0 .5-.1.7-.3c.2-.2.3-.4.3-.7c0-.3-.1-.5-.4-.7c-.2-.1-.5-.2-1-.2c.05-.03-.3 0-.3 0l-.1-.4l1.6-1.7h-2.4v-.5h3.1v.4s-1.54 1.71-1.5 1.7c.4.1.8.2 1.1.4c.3.2.5.6.5 1c0 .4-.2.8-.5 1.1c-.3.2-.7.4-1.2.4zm6.7-2.6c0 .8-.2 1.4-.5 1.8c-.4.5-.9.8-1.5.8c-.7 0-1.2-.3-1.5-.7c-.4-.5-.6-1.1-.6-1.8v-.1c0-.7.2-1.3.6-1.7c.4-.5.9-.8 1.5-.8c.6 0 1.1.3 1.5.7c.3.5.5 1.1.5 1.8c.03.04 0 0 0 0c0 0 .03.05 0 0zm-3.5 0c0 .6.1 1.1.4 1.5c.3.4.6.6 1.1.6c.4 0 .8-.2 1-.6c.3-.4.5-.9.5-1.4v-.1c0-.5-.2-1-.5-1.4c-.2-.4-.6-.6-1-.6c-.5 0-.8.2-1.1.6c-.3.4-.4.9-.4 1.4c-.03.04 0 0 0 0c0 0-.03.05 0 0zm8.8-1.4c0 .3-.1.6-.4.8c-.2.2-.4.3-.7.3c-.3 0-.6-.1-.8-.3c-.2-.2-.3-.5-.3-.8c0-.3.1-.5.3-.7c.2-.2.5-.3.8-.3c.3 0 .5.1.7.3c.3.2.4.4.4.7c-.04.02 0 0 0 0c0 0-.04.04 0 0zm-1.8 0c0 .2 0 .4.2.5c.1.2.3.2.5.2c.2 0 .3 0 .5-.2c.1-.1.2-.3.2-.5c0-.2-.1-.3-.2-.5c-.2-.1-.3-.2-.5-.2c-.2 0-.4.1-.5.2c-.2.2-.2.3-.2.5c-.03.02 0 0 0 0c0 0-.03.04 0 0zm5.2 4c-.7 0-1.3-.3-1.8-.7c-.4-.5-.7-1.1-.7-1.8v-.1c0-.7.3-1.3.8-1.7c.4-.5 1-.8 1.7-.8c.4 0 .8.1 1.1.2c.3.1.6.3.8.6l-.3.4c-.3-.2-.5-.4-.8-.5c-.2-.1-.5-.2-.8-.2c-.5 0-1 .2-1.3.6c-.4.4-.6.9-.6 1.4c0 .6.2 1.1.6 1.5c.3.4.8.6 1.3.6c.3 0 .6-.1.9-.2c.2-.1.4-.3.7-.5l.4.3c-.3.3-.6.5-.9.7c-.3.1-.7.2-1.1.2zm2.7-3.4l-.1-.3c.4-.1.5-.3.5-.6c-.01.03-.3 0-.3 0v-.7h.7s-.02.63 0 .6c0 .3-.1.5-.2.7c-.1.1-.3.2-.6.3zm4.5 2.6c-.3.5-.8.8-1.4.8c-.4 0-.8-.2-1.2-.5c-.3-.4-.5-.8-.5-1.4c0-.6.2-1 .5-1.4c.4-.3.8-.5 1.2-.5c.6 0 1.1.3 1.4.8c.03-.03 0-2.2 0-2.2h.6v5.1h-.6v-.7s.03-.03 0 0zm-1.3.3c.4 0 .7-.1 1-.4c.2-.3.3-.6.3-1c0-.4-.1-.8-.3-1c-.3-.3-.6-.4-1-.4c-.3 0-.6.1-.9.4c-.2.2-.3.6-.3 1c0 .4.1.8.3 1c.3.3.6.4.9.4zm6.1-.2c-.4.5-.9.7-1.4.7c-.6 0-1-.2-1.3-.5c-.4-.4-.6-.8-.6-1.4c0-.5.2-1 .5-1.4c.4-.3.8-.5 1.3-.5c.5 0 .9.2 1.2.5c.3.4.5.9.5 1.4v.2h-2.9c0 .4.2.7.4.9c.2.2.5.3.9.3c.4 0 .8-.2 1.1-.5l.3.3s.04 0 0 0zm-2.7-1.4h2.3c0-.4-.1-.7-.3-.9c-.2-.2-.5-.3-.8-.3c-.3 0-.6.1-.8.3c-.2.2-.4.5-.4.9zm5.9 2V142h.6s-.05.59 0 .6c.1-.2.3-.4.4-.5c.2-.1.4-.2.7-.2c.6 0 1 .2 1.2.7c.3-.5.7-.7 1.3-.7c.4 0 .7.1.9.4c.3.3.4.6.4 1.1v2.2h-.5s-.04-2.11 0-2.1c0-.4-.1-.6-.3-.8c-.2-.2-.4-.3-.7-.3c-.3 0-.5.1-.7.3c-.2.2-.3.5-.3.8c.02.01 0 2.1 0 2.1h-.5v-2.1c0-.4-.1-.6-.3-.8c-.1-.2-.4-.3-.6-.3c-.3 0-.6.1-.8.3c-.2.2-.2.5-.2.8c-.05.03 0 2.1 0 2.1h-.6zm9-.5c-.3.4-.7.6-1.3.6c-.3 0-.7-.1-.9-.3c-.3-.2-.4-.5-.4-.9c0-.3.1-.6.4-.8c.3-.2.7-.3 1.1-.3c.4 0 .8 0 1.1.1v-.1c0-.3-.1-.6-.2-.7c-.2-.2-.5-.3-.8-.3c-.4 0-.8.1-1.1.3l-.2-.5c.4-.2.9-.3 1.3-.3c.5 0 .9.2 1.2.4c.2.3.4.6.4 1.1c-.05-.01 0 2.2 0 2.2h-.6v-.5s.03-.05 0 0zm-1.2.1c.4 0 .7 0 .9-.2c.2-.2.3-.4.3-.7v-.4c-.3-.1-.7-.1-1-.1c-.4 0-.6 0-.8.2c-.2.1-.3.3-.3.5c0 .2.1.4.3.6c.2.1.4.1.6.1zm2.9.4v-5.1h.5v3.5l2-2h.7l-1.6 1.5l1.6 2.1h-.6l-1.3-1.7l-.8.8v.9h-.5zm4-4.4v-.6h.6v.6h-.6zm0 4.4V142h.6v3.6h-.6zm1.8 0V142h.6s-.04.61 0 .6c.3-.5.7-.7 1.2-.7c.4 0 .8.1 1 .4c.3.3.4.6.4 1.1c-.01-.05 0 2.2 0 2.2h-.6s.05-2.11 0-2.1c0-.4 0-.6-.2-.8c-.2-.2-.4-.3-.8-.3c-.3 0-.5.1-.7.3c-.2.2-.3.5-.3.8c-.04.03 0 2.1 0 2.1h-.6zm7.4-.6c-.4.5-.9.7-1.5.7c-.5 0-.9-.2-1.3-.5c-.3-.4-.5-.8-.5-1.4c0-.5.2-1 .5-1.4c.3-.3.7-.5 1.2-.5c.6 0 1 .2 1.3.5c.3.4.4.9.4 1.4v.2h-2.8c0 .4.1.7.4.9c.2.2.5.3.8.3c.5 0 .8-.2 1.2-.5c-.03 0 .3.3.3.3c0 0 .01 0 0 0zm-2.7-1.4h2.3c0-.4-.2-.7-.3-.9c-.2-.2-.5-.3-.9-.3c-.3 0-.5.1-.8.3c-.2.2-.3.5-.3.9zm6.7 1.3c-.4.5-.8.8-1.4.8c-.5 0-.9-.2-1.2-.5c-.4-.4-.5-.8-.5-1.4c0-.6.1-1 .5-1.4c.3-.3.7-.5 1.2-.5c.6 0 1 .3 1.4.8c-.01-.03 0-2.2 0-2.2h.5v5.1h-.5v-.7s-.01-.03 0 0zm-1.3.3c.3 0 .7-.1.9-.4c.3-.3.4-.6.4-1c0-.4-.1-.8-.4-1c-.2-.3-.6-.4-.9-.4c-.4 0-.7.1-.9.4c-.3.2-.4.6-.4 1c0 .4.1.8.4 1c.2.3.5.4.9.4zm6.1-.2c-.4.5-.9.7-1.5.7c-.5 0-.9-.2-1.3-.5c-.3-.4-.5-.8-.5-1.4c0-.5.2-1 .5-1.4c.3-.3.7-.5 1.2-.5c.6 0 1 .2 1.3.5c.3.4.4.9.4 1.4v.2h-2.8c0 .4.1.7.4.9c.2.2.5.3.8.3c.5 0 .8-.2 1.2-.5c-.03 0 .3.3.3.3zm-2.7-1.4h2.3c0-.4-.2-.7-.4-.9c-.2-.2-.4-.3-.8-.3c-.3 0-.6.1-.8.3c-.2.2-.3.5-.3.9zm7.4 1.4l1.2-3h.6s-1.56 3.72-1.6 3.7c-.1.4-.3.7-.5.8c-.2.2-.4.2-.7.2c-.2 0-.5 0-.7-.1l.1-.5c.2.1.4.2.6.2c.2 0 .3-.1.4-.2c.1-.1.2-.3.4-.5c-.05-.01-1.7-3.6-1.7-3.6h.6l1.3 3zm2.7.6V142h.5v3.6h-.5zm1.8 0v-5.1h.5v3.5l1.9-2h.7l-1.5 1.5l1.6 2.1h-.7l-1.3-1.7l-.7.8v.9h-.5zm6.3-.5c-.4.4-.8.6-1.4.6c-.3 0-.6-.1-.9-.3c-.3-.2-.4-.5-.4-.9c0-.3.1-.6.4-.8c.3-.2.7-.3 1.1-.3c.4 0 .8 0 1.2.1v-.1c0-.3-.1-.6-.3-.7c-.2-.2-.5-.3-.8-.3c-.4 0-.8.1-1.1.3l-.2-.5c.4-.2.9-.3 1.3-.3c.5 0 .9.2 1.2.4c.2.3.4.6.4 1.1c-.03-.01 0 2.2 0 2.2h-.5v-.5s-.05-.05 0 0zm-1.3.1c.4 0 .7 0 .9-.2c.2-.2.4-.4.4-.7v-.4c-.4-.1-.8-.1-1.1-.1c-.3 0-.6 0-.8.2c-.2.1-.3.3-.3.5c0 .2.1.4.3.6c.2.1.4.1.6.1zm2.9.4V142h.6s-.04.61 0 .6c.2-.5.7-.7 1.2-.7c.4 0 .8.1 1 .4c.3.3.4.6.4 1.1c-.02-.05 0 2.2 0 2.2h-.6s.04-2.11 0-2.1c0-.4 0-.6-.2-.8c-.2-.2-.4-.3-.8-.3c-.3 0-.5.1-.7.3c-.2.2-.3.5-.3.8c-.04.03 0 2.1 0 2.1h-.6zm6.7-.5c-.3.4-.7.6-1.3.6c-.4 0-.7-.1-.9-.3c-.3-.2-.4-.5-.4-.9c0-.3.1-.6.4-.8c.3-.2.6-.3 1.1-.3c.4 0 .7 0 1.1.1v-.1c0-.3-.1-.6-.3-.7c-.2-.2-.4-.3-.8-.3c-.3 0-.7.1-1.1.3l-.1-.5c.4-.2.8-.3 1.3-.3c.5 0 .9.2 1.2.4c.2.3.3.6.3 1.1c.03-.01 0 2.2 0 2.2h-.5v-.5s.02-.05 0 0zm-1.2.1c.4 0 .6 0 .9-.2c.2-.2.3-.4.3-.7v-.4c-.3-.1-.7-.1-1-.1c-.4 0-.6 0-.8.2c-.2.1-.3.3-.3.5c0 .2.1.4.3.6c.1.1.4.1.6.1zm4.8.5c-.6 0-1-.3-1.4-.8c.02.01 0 .7 0 .7h-.5v-5.1h.5s.02 2.21 0 2.2c.4-.5.9-.8 1.4-.8c.5 0 .9.2 1.2.5c.4.4.5.8.5 1.4c0 .6-.1 1-.5 1.4c-.3.3-.7.5-1.2.5zm-.1-.5c.4 0 .7-.1.9-.4c.3-.2.4-.6.4-1c0-.4-.1-.8-.4-1c-.2-.3-.5-.4-.9-.4c-.3 0-.6.1-.9.4c-.3.3-.4.6-.4 1c0 .4.1.7.4 1c.3.3.6.4.9.4zm2.8-4v-.6h.7v.6h-.7zm.1 4.4V142h.5v3.6h-.5zm1.8 0v-5.1h.6v5.1h-.6zm1.8-4.4v-.6h.6v.6h-.6zm.1 4.4V142h.5v3.6h-.5zm1.8 0V142h.5s-.01.93 0 .9c.1-.3.3-.5.6-.7c.2-.2.5-.3.9-.3c-.03.02 0 .6 0 .6h-.1c-.4 0-.7.1-1 .4c-.3.3-.4.7-.4 1.3v1.4h-.5zm2.8-2.9v-.7h.6v.7h-.6zm-.2 3.8l-.1-.3c.4-.1.5-.3.5-.6h-.2v-.7h.6v.6c0 .3-.1.5-.2.6c-.1.2-.3.3-.6.4zm4.1-.9V142h.5s.01.93 0 .9c.2-.3.3-.5.6-.7c.3-.2.6-.3.9-.3v.6h-.1c-.4 0-.7.1-1 .4c-.3.3-.4.7-.4 1.3v1.4h-.5zm5-.5c-.3.4-.7.6-1.3.6c-.4 0-.7-.1-.9-.3c-.3-.2-.4-.5-.4-.9c0-.3.1-.6.4-.8c.3-.2.6-.3 1.1-.3c.4 0 .7 0 1.1.1v-.1c0-.3-.1-.6-.3-.7c-.1-.2-.4-.3-.8-.3c-.3 0-.7.1-1.1.3l-.1-.5c.4-.2.8-.3 1.3-.3c.5 0 .9.2 1.2.4c.2.3.3.6.3 1.1c.04-.01 0 2.2 0 2.2h-.5v-.5s.02-.05 0 0zm-1.2.1c.4 0 .6 0 .9-.2c.2-.2.3-.4.3-.7v-.4c-.3-.1-.7-.1-1-.1c-.4 0-.6 0-.8.2c-.2.1-.3.3-.3.5c0 .2.1.4.3.6c.1.1.4.1.6.1zm3.1.4v-3.1h-.5v-.5h.5v-.3c0-.4.1-.7.3-1c.2-.1.4-.2.8-.2c.2 0 .4 0 .6.1v.4c-.2 0-.4-.1-.6-.1c-.4 0-.6.3-.6.8c.02 0 0 .3 0 .3h1.2v.5h-1.2v3.1h-.5zm6.4.1c-.6 0-1.1-.3-1.4-.8v.7h-.5v-5.1h.5s-.01 2.21 0 2.2c.4-.5.8-.8 1.4-.8c.4 0 .8.2 1.2.5c.3.4.5.8.5 1.4c0 .6-.2 1-.5 1.4c-.4.3-.8.5-1.2.5zm-.1-.5c.3 0 .6-.1.9-.4c.2-.2.4-.6.4-1c0-.4-.2-.8-.4-1c-.3-.3-.6-.4-.9-.4c-.4 0-.7.1-.9.4c-.3.3-.4.6-.4 1c0 .4.1.7.4 1c.2.3.5.4.9.4zm5.4-.2c-.3.4-.7.7-1.3.7c-.4 0-.7-.2-1-.4c-.2-.3-.4-.6-.4-1.1c.05.03 0-2.2 0-2.2h.6s-.02 2.09 0 2.1c0 .3.1.6.2.8c.2.2.5.3.8.3c.3 0 .6-.1.8-.3c.2-.2.3-.5.3-.8c-.03-.05 0-2.1 0-2.1h.5v3.6h-.5v-.6s-.03-.03 0 0zm1.8.6v-5.1h.5v5.1h-.5zm4.1-.5c-.3.4-.7.6-1.3.6c-.3 0-.6-.1-.9-.3c-.3-.2-.4-.5-.4-.9c0-.3.1-.6.4-.8c.3-.2.7-.3 1.1-.3c.4 0 .8 0 1.1.1v-.1c0-.3-.1-.6-.2-.7c-.2-.2-.5-.3-.8-.3c-.4 0-.8.1-1.1.3l-.2-.5c.4-.2.9-.3 1.3-.3c.5 0 .9.2 1.2.4c.2.3.4.6.4 1.1c-.04-.01 0 2.2 0 2.2h-.6v-.5s.04-.05 0 0zm-1.2.1c.4 0 .7 0 .9-.2c.2-.2.3-.4.3-.7v-.4c-.3-.1-.7-.1-1-.1c-.4 0-.6 0-.8.2c-.2.1-.3.3-.3.5c0 .2.1.4.3.6c.2.1.4.1.6.1zm3.8 1.5l-.5-.3s.5-.75.5-.8c-.5 0-.9-.2-1.2-.5l.3-.3c.4.3.8.4 1.2.4c.3 0 .4 0 .6-.1c.1-.1.2-.3.2-.5c0-.1-.1-.3-.2-.4c-.2 0-.4-.1-.7-.2c-.2 0-.2-.1-.3-.1c-.1 0-.2-.1-.3-.1c-.1 0-.2-.1-.2-.1c-.1-.1-.2-.1-.2-.2l-.2-.2v-.3c0-.4.1-.6.3-.8c.3-.2.6-.3.9-.3c.5 0 .9.2 1.3.4l-.2.4c-.4-.2-.7-.3-1.1-.3c-.2 0-.4 0-.5.1c-.1.1-.2.2-.2.4c0 .1 0 .1.1.2s0 .1.1.1c0 .1.1.1.2.2h.2c.1.1.2.1.3.1c.2.1.3.1.4.1c.1.1.2.1.3.2c.1 0 .2.1.3.2c0 0 .1.1.1.2c.1.1.1.2.1.4c0 .3-.1.5-.3.7c-.2.2-.5.3-.9.4c.04-.04-.4 1-.4 1zm2.6-1.1V142h.6v3.6h-.6zm1.8 0v-5.1h.6v3.5l1.9-2h.7l-1.5 1.5l1.5 2.1h-.6l-1.3-1.7l-.7.8v.9h-.6zm6.1 0V142h.6s-.04.59 0 .6c.1-.2.3-.4.4-.5c.2-.1.4-.2.7-.2c.6 0 1 .2 1.2.7c.3-.5.7-.7 1.3-.7c.4 0 .7.1.9.4c.3.3.4.6.4 1.1v2.2h-.5s-.03-2.11 0-2.1c0-.4-.1-.6-.3-.8c-.1-.2-.4-.3-.7-.3c-.3 0-.5.1-.7.3c-.2.2-.3.5-.3.8c.03.01 0 2.1 0 2.1h-.5v-2.1c0-.4-.1-.6-.3-.8c-.1-.2-.3-.3-.6-.3c-.3 0-.6.1-.8.3c-.1.2-.2.5-.2.8c-.04.03 0 2.1 0 2.1h-.6zm9-.5c-.3.4-.7.6-1.3.6c-.3 0-.6-.1-.9-.3c-.3-.2-.4-.5-.4-.9c0-.3.1-.6.4-.8c.3-.2.7-.3 1.1-.3c.4 0 .8 0 1.1.1v-.1c0-.3-.1-.6-.2-.7c-.2-.2-.5-.3-.8-.3c-.4 0-.8.1-1.1.3l-.2-.5c.4-.2.9-.3 1.3-.3c.5 0 .9.2 1.2.4c.2.3.4.6.4 1.1c-.04-.01 0 2.2 0 2.2h-.6v-.5s.04-.05 0 0zm-1.2.1c.4 0 .7 0 .9-.2c.2-.2.3-.4.3-.7v-.4c-.3-.1-.7-.1-1-.1c-.4 0-.6 0-.8.2c-.2.1-.3.3-.3.5c0 .2.1.4.3.6c.2.1.4.1.6.1zm2.9.4v-5.1h.5v3.5l2-2h.7l-1.5 1.5l1.5 2.1h-.6l-1.3-1.7l-.8.8v.9h-.5zm4-4.4v-.6h.6v.6h-.6zm0 4.4V142h.6v3.6h-.6zm1.8 0V142h.6s-.03.61 0 .6c.3-.5.7-.7 1.2-.7c.4 0 .8.1 1 .4c.3.3.4.6.4 1.1c-.01-.05 0 2.2 0 2.2h-.5s-.05-2.11 0-2.1c0-.4-.1-.6-.3-.8c-.2-.2-.4-.3-.7-.3c-.4 0-.6.1-.8.3c-.2.2-.3.5-.3.8c-.03.03 0 2.1 0 2.1h-.6zm7.4-.6c-.4.5-.9.7-1.5.7c-.5 0-.9-.2-1.3-.5c-.3-.4-.5-.8-.5-1.4c0-.5.2-1 .5-1.4c.3-.3.8-.5 1.3-.5c.5 0 .9.2 1.2.5c.3.4.4.9.4 1.4v.2h-2.8c0 .4.1.7.4.9c.2.2.5.3.8.3c.5 0 .8-.2 1.2-.5c-.02 0 .3.3.3.3c0 0 .01 0 0 0zm-2.7-1.4h2.3c0-.4-.1-.7-.3-.9c-.2-.2-.5-.3-.9-.3c-.3 0-.5.1-.8.3c-.2.2-.3.5-.3.9zm5 2.1c-.6 0-1.1-.2-1.5-.6l.3-.3c.4.3.8.4 1.2.4c.2 0 .4 0 .6-.1c.1-.1.2-.3.2-.5c0-.1-.1-.3-.3-.4c-.1 0-.3-.1-.6-.2c-.2 0-.3-.1-.3-.1c-.1 0-.2-.1-.3-.1c-.1 0-.2-.1-.3-.1c0-.1-.1-.1-.1-.2c-.1-.1-.2-.1-.2-.2v-.3c0-.4.1-.6.3-.8c.2-.2.5-.3.9-.3c.5 0 .9.2 1.3.4l-.3.4c-.3-.2-.7-.3-1-.3c-.2 0-.4 0-.5.1c-.2.1-.2.2-.2.4v.2c.1 0 .1.1.2.1c0 .1.1.1.2.2h.2c.1.1.2.1.3.1c.1.1.3.1.3.1c.1.1.2.1.4.2c.1 0 .2.1.2.2c.1 0 .2.1.2.2c0 .1.1.2.1.4c0 .3-.2.6-.4.8c-.2.2-.5.3-.9.3zm2.3-4.5v-.6h.6v.6h-.6zm0 4.4V142h.6v3.6h-.6zm1.8 0V142h.6s-.05.61 0 .6c.2-.5.7-.7 1.2-.7c.4 0 .8.1 1 .4c.3.3.4.6.4 1.1c-.02-.05 0 2.2 0 2.2h-.6s.04-2.11 0-2.1c0-.4-.1-.6-.2-.8c-.2-.2-.4-.3-.8-.3c-.3 0-.5.1-.7.3c-.2.2-.3.5-.3.8c-.05.03 0 2.1 0 2.1h-.6zm7.2-.7c-.3.5-.8.8-1.4.8c-.4 0-.8-.2-1.2-.5c-.3-.4-.5-.8-.5-1.4c0-.6.2-1 .5-1.4c.4-.3.8-.5 1.2-.5c.6 0 1.1.3 1.4.8c.03-.03 0-2.2 0-2.2h.6v5.1h-.6v-.7s.03-.03 0 0zm-1.3.3c.4 0 .7-.1 1-.4c.2-.3.4-.6.4-1c0-.4-.2-.8-.4-1c-.3-.3-.6-.4-1-.4c-.3 0-.6.1-.9.4c-.2.2-.3.6-.3 1c0 .4.1.8.3 1c.3.3.6.4.9.4zm6.1-.2c-.4.5-.8.7-1.4.7c-.5 0-1-.2-1.3-.5c-.4-.4-.6-.8-.6-1.4c0-.5.2-1 .5-1.4c.4-.3.8-.5 1.3-.5c.5 0 .9.2 1.2.5c.3.4.5.9.5 1.4v.2h-2.9c0 .4.2.7.4.9c.3.2.5.3.9.3c.4 0 .8-.2 1.1-.5l.3.3s.05 0 0 0zm-2.7-1.4h2.3c0-.4-.1-.7-.3-.9c-.2-.2-.5-.3-.8-.3c-.3 0-.6.1-.8.3c-.2.2-.4.5-.4.9zm7.7-2.2v-.6h.7v.6h-.7zm-1.2 0v-.6h.6v.6h-.6zm2 3.6c-.3.4-.7.7-1.3.7c-.4 0-.7-.2-1-.4c-.2-.3-.3-.6-.3-1.1c-.04.03 0-2.2 0-2.2h.5v2.1c0 .3.1.6.3.8c.1.2.4.3.7.3c.3 0 .6-.1.8-.3c.2-.2.3-.5.3-.8c-.02-.05 0-2.1 0-2.1h.5v3.6h-.5v-.6s-.02-.03 0 0zm2.9.7c-.5 0-1-.2-1.5-.6l.3-.3c.4.3.8.4 1.3.4c.2 0 .4 0 .5-.1c.1-.1.2-.3.2-.5c0-.1-.1-.3-.2-.4c-.2 0-.4-.1-.7-.2c-.1 0-.2-.1-.3-.1c0 0-.1-.1-.3-.1c-.1 0-.2-.1-.2-.1l-.2-.2l-.2-.2v-.3c0-.4.1-.6.3-.8c.3-.2.6-.3.9-.3c.5 0 .9.2 1.3.4l-.2.4c-.4-.2-.7-.3-1.1-.3c-.2 0-.4 0-.5.1c-.1.1-.2.2-.2.4c0 .1 0 .1.1.2l.1.1c0 .1.1.1.2.2h.3c0 .1.1.1.3.1c.1.1.2.1.3.1c.1.1.2.1.3.2c.1 0 .2.1.3.2c0 0 .1.1.1.2c.1.1.1.2.1.4c0 .3-.1.6-.4.8c-.2.2-.5.3-.9.3zm4.1-.2c-.2.1-.4.2-.6.2c-.4 0-.6-.1-.8-.3c-.2-.2-.3-.4-.3-.8c.03.04 0-2.1 0-2.1h-.5v-.5h.5v-1.1h.6v1.1h1.1v.5h-1.1s-.03 2.07 0 2.1c0 .4.2.6.6.6c.2 0 .3-.1.5-.2v.5s.01.01 0 0z" stroke="none" fill="#000"/></g><g id="Polygon409190"><path d="m3.3 120.2v-.6h.7v.6h-.7zm-1.3 0v-.6h.6v.6h-.6zm3.5 2.9c0 .7-.3 1.3-.7 1.8c-.5.5-1.1.8-1.8.8c-.8 0-1.4-.3-1.8-.8c-.5-.4-.7-1-.7-1.7v-.1c0-.6.2-1.2.7-1.7c.5-.5 1.1-.8 1.8-.8c.7 0 1.3.3 1.8.8c.4.4.7 1 .7 1.7c-.03.04 0 0 0 0c0 0-.03.05 0 0zm-4.4 0c0 .6.1 1.1.5 1.5c.4.4.8.6 1.4.6c.5 0 1-.2 1.4-.6c.3-.4.5-.9.5-1.4v-.1c0-.5-.2-1-.5-1.4c-.4-.4-.9-.6-1.4-.6c-.6 0-1 .2-1.4.6c-.4.4-.5.9-.5 1.4c-.05.04 0 0 0 0c0 0-.05.05 0 0zm5.5 2.5v-5.1h.5v5.1h-.5zm3.1 1.1l-.6-.3s.59-.75.6-.8c-.5 0-.8-.2-1.1-.6c-.3-.3-.4-.7-.4-1.2c0-.5.1-1 .5-1.3c.4-.4.8-.6 1.3-.6c.6 0 1.1.2 1.5.6l-.4.4c-.3-.3-.7-.5-1.1-.5c-.4 0-.7.1-.9.4c-.3.3-.4.6-.4 1c0 .4.1.7.4 1c.3.3.6.4 1 .4c.4 0 .7-.2 1.1-.5l.3.3c-.4.4-.8.7-1.4.7c.03-.02-.4 1-.4 1zm4.5-5.3v-.6h.6v.6h-.6zm-1.2 0v-.6h.6v.6h-.6zm1.9 3.6c-.3.4-.7.7-1.2.7c-.4 0-.8-.2-1-.4c-.3-.3-.4-.6-.4-1.1c.01.03 0-2.2 0-2.2h.5s.04 2.09 0 2.1c0 .3.1.6.3.8c.2.2.4.3.7.3c.4 0 .6-.1.8-.3c.2-.2.3-.5.3-.8c.03-.05 0-2.1 0-2.1h.6v3.6h-.6v-.6s.03-.03 0 0zm1.8.6v-5.1h.6v5.1h-.6zm4.9-.6c-.4.5-.9.7-1.5.7c-.5 0-.9-.2-1.3-.5c-.3-.4-.5-.8-.5-1.4c0-.5.2-1 .5-1.4c.3-.3.7-.5 1.2-.5c.5 0 1 .2 1.3.5c.3.4.4.9.4 1.4v.2h-2.9c.1.4.2.7.5.9c.2.2.5.3.8.3c.4 0 .8-.2 1.2-.5c-.05 0 .3.3.3.3c0 0-.01 0 0 0zm-2.8-1.4h2.4c-.1-.4-.2-.7-.4-.9c-.2-.2-.4-.3-.8-.3c-.3 0-.6.1-.8.3c-.2.2-.3.5-.4.9zm3.9 2V122h.5v.9c.1-.3.3-.5.6-.7c.2-.2.5-.3.9-.3c-.03.02 0 .6 0 .6h-.1c-.4 0-.7.1-1 .4c-.3.3-.4.7-.4 1.3v1.4h-.5zm5.3-2c0 1.1.6 1.9 1.6 2.6l-.2.4c-1.3-.7-1.9-1.7-1.9-3c0-1.3.6-2.3 1.9-3l.2.4c-1 .6-1.6 1.5-1.6 2.6c.01-.01 0 0 0 0c0 0 .01 0 0 0zm2.6 2V122h.6s-.03.59 0 .6c.1-.2.3-.4.5-.5c.1-.1.4-.2.6-.2c.6 0 1 .2 1.2.7c.3-.5.7-.7 1.3-.7c.4 0 .7.1 1 .4c.2.3.3.6.3 1.1c.02-.04 0 2.2 0 2.2h-.5s-.02-2.11 0-2.1c0-.4-.1-.6-.3-.8c-.1-.2-.4-.3-.7-.3c-.2 0-.5.1-.7.3c-.2.2-.3.5-.3.8c.04.01 0 2.1 0 2.1h-.5v-2.1c0-.4-.1-.6-.2-.8c-.2-.2-.4-.3-.7-.3c-.3 0-.6.1-.7.3c-.2.2-.3.5-.3.8c-.03.03 0 2.1 0 2.1h-.6zm9.1-.5c-.4.4-.8.6-1.4.6c-.3 0-.6-.1-.9-.3c-.3-.2-.4-.5-.4-.9c0-.3.1-.6.4-.8c.3-.2.7-.3 1.1-.3c.4 0 .8 0 1.2.1v-.1c0-.3-.1-.6-.3-.7c-.2-.2-.5-.3-.8-.3c-.4 0-.8.1-1.1.3l-.2-.5c.4-.2.9-.3 1.3-.3c.5 0 .9.2 1.2.4c.2.3.4.6.4 1.1c-.03-.01 0 2.2 0 2.2h-.5v-.5s-.05-.05 0 0zm-1.2.1c.3 0 .6 0 .8-.2c.2-.2.4-.4.4-.7v-.4c-.4-.1-.8-.1-1.1-.1c-.3 0-.6 0-.8.2c-.2.1-.3.3-.3.5c0 .2.1.4.3.6c.2.1.4.1.7.1zm4.6.3c-.1.1-.4.2-.6.2c-.3 0-.6-.1-.7-.3c-.2-.2-.3-.4-.3-.8c-.03.04 0-2.1 0-2.1h-.5v-.5h.5v-1.1h.5v1.1h1.2v.5H42v2.1c0 .4.2.6.6.6c.2 0 .4-.1.5-.2c.05.05 0 .5 0 .5c0 0 .05.01 0 0zm3-1.9c0 1.3-.7 2.3-2 3l-.2-.4c1.1-.7 1.6-1.5 1.6-2.6c0-1.1-.5-2-1.6-2.6l.2-.4c1.3.7 2 1.7 2 3c-.03-.01 0 0 0 0c0 0-.03 0 0 0zm1-.9v-.7h.7v.7h-.7zm0 2.9v-.7h.7v.7h-.7zm4.6 0v-4.4l-.9.3l-.2-.4l1.2-.4h.4v4.9h-.5zm3.4.1c-.8 0-1.4-.3-1.8-.9l.4-.3c.4.4.9.7 1.4.7c.3 0 .6-.1.8-.3c.2-.2.3-.4.3-.7c0-.3-.1-.5-.4-.7c-.2-.1-.6-.2-1-.2c.02-.03-.3 0-.3 0l-.1-.4l1.5-1.7h-2.4v-.5h3.2v.4s-1.57 1.71-1.6 1.7c.5.1.9.2 1.2.4c.3.2.4.6.4 1c0 .4-.1.8-.4 1.1c-.3.2-.7.4-1.2.4zm7.6-1l-1.2-1.2l-1.2 1.2l-.4-.3l1.3-1.3l-1.3-1.2l.4-.3l1.2 1.2l1.2-1.2l.4.3l-1.2 1.2l1.2 1.2l-.4.4zm3.4.9v-.4l1.8-1.6c.4-.3.7-.6.8-.8c.2-.3.2-.5.2-.7c0-.3-.1-.5-.3-.7c-.1-.2-.4-.3-.7-.3c-.2 0-.5.1-.7.2c-.2.2-.4.4-.6.7l-.4-.3c.3-.4.5-.7.8-.8c.2-.2.6-.3 1-.3c.4 0 .8.2 1.1.4c.3.3.4.6.4 1c0 .4-.1.7-.3.9c-.1.3-.5.6-.9 1l-1.3 1.2h2.6v.5h-3.5zm8.5-2.5c0 .8-.2 1.4-.6 1.8c-.4.5-.9.8-1.5.8c-.6 0-1.1-.3-1.5-.7c-.4-.5-.6-1.1-.6-1.8v-.1c0-.7.2-1.3.6-1.7c.4-.5.9-.8 1.5-.8c.6 0 1.1.3 1.5.7c.4.5.6 1.1.6 1.8c-.04.04 0 0 0 0c0 0-.04.05 0 0zm-3.6 0c0 .6.1 1.1.4 1.5c.3.4.7.6 1.1.6c.5 0 .8-.2 1.1-.6c.3-.4.4-.9.4-1.4v-.1c0-.5-.1-1-.4-1.4c-.3-.4-.7-.6-1.1-.6c-.5 0-.8.2-1.1.6c-.3.4-.4.9-.4 1.4c0 .04 0 0 0 0c0 0 0 .05 0 0zm6.7-1.9v-.6h.6v.6h-.6zm0 4.4V122h.6v3.6h-.6zm1.8 0V122h.6s-.02.61 0 .6c.3-.5.7-.7 1.2-.7c.4 0 .8.1 1 .4c.3.3.4.6.4 1.1v2.2h-.5s-.04-2.11 0-2.1c0-.4-.1-.6-.3-.8c-.2-.2-.4-.3-.7-.3c-.3 0-.6.1-.8.3c-.2.2-.3.5-.3.8c-.02.03 0 2.1 0 2.1h-.6zm5.6 1.1l-.5-.3s.55-.75.5-.8c-.4 0-.8-.2-1-.6c-.3-.3-.5-.7-.5-1.2c0-.5.2-1 .6-1.3c.3-.4.8-.6 1.3-.6c.5 0 1 .2 1.4.6l-.3.4c-.4-.3-.7-.5-1.1-.5c-.4 0-.7.1-.9.4c-.3.3-.4.6-.4 1c0 .4.1.7.4 1c.2.3.5.4.9.4c.4 0 .8-.2 1.1-.5l.4.3c-.4.4-.9.7-1.4.7c-.01-.02-.5 1-.5 1zm5.3-3.1c0 1.1.5 1.9 1.6 2.6l-.2.4c-1.3-.7-2-1.7-2-3c0-1.3.7-2.3 2-3l.2.4c-1.1.6-1.6 1.5-1.6 2.6c-.03-.01 0 0 0 0c0 0-.03 0 0 0zm4.2 2.1c-.8 0-1.4-.3-1.9-.9l.4-.3c.4.4.9.7 1.5.7c.3 0 .5-.1.7-.3c.2-.2.3-.4.3-.7c0-.3-.1-.5-.3-.7c-.3-.1-.6-.2-1-.2c-.03-.03-.3 0-.3 0l-.2-.4l1.6-1.7H93v-.5h3.1v.4l-1.5 1.7c.5.1.8.2 1.1.4c.3.2.5.6.5 1c0 .4-.2.8-.5 1.1c-.3.2-.7.4-1.1.4zm4.3 0c-.8 0-1.4-.3-1.9-.9l.4-.3c.4.4.9.7 1.5.7c.3 0 .5-.1.7-.3c.2-.2.3-.4.3-.7c0-.3-.1-.5-.3-.7c-.3-.1-.6-.2-1-.2c-.04-.03-.4 0-.4 0l-.1-.4l1.6-1.7h-2.4v-.5h3.1v.4s-1.53 1.71-1.5 1.7c.4.1.8.2 1.1.4c.3.2.5.6.5 1c0 .4-.2.8-.5 1.1c-.3.2-.7.4-1.1.4zm7.6-1l-1.2-1.2l-1.3 1.2l-.3-.3l1.2-1.3l-1.2-1.2l.3-.3l1.3 1.2l1.2-1.2l.3.3l-1.2 1.2l1.2 1.2l-.3.4zm5.2 1c-.7 0-1.3-.3-1.8-.8l.4-.4c.4.5.9.7 1.4.7c.3 0 .6-.1.8-.3c.2-.2.4-.5.4-.8c0-.3-.2-.6-.4-.8c-.2-.2-.5-.2-.9-.2c-.3 0-.7 0-1 .2c.01.03-.4-.2-.4-.2l.2-2.4h2.8v.5h-2.3s-.15 1.58-.1 1.6c.3-.2.6-.2.9-.2c.5 0 .9.1 1.2.4c.4.2.5.6.5 1.1c0 .4-.1.8-.5 1.1c-.3.3-.7.5-1.2.5zm6.7-2.6c0 .8-.2 1.4-.6 1.8c-.4.5-.9.8-1.5.8c-.6 0-1.1-.3-1.5-.7c-.4-.5-.5-1.1-.5-1.8v-.1c0-.7.2-1.3.5-1.7c.4-.5.9-.8 1.5-.8c.7 0 1.2.3 1.5.7c.4.5.6 1.1.6 1.8c0 .04 0 0 0 0c0 0 0 .05 0 0zm-3.6 0c0 .6.2 1.1.4 1.5c.3.4.7.6 1.1.6c.5 0 .8-.2 1.1-.6c.3-.4.4-.9.4-1.4v-.1c0-.5-.1-1-.4-1.4c-.3-.4-.6-.6-1.1-.6c-.4 0-.8.2-1.1.6c-.2.4-.4.9-.4 1.4c.03.04 0 0 0 0c0 0 .03.05 0 0zm4.3 3.4l-.1-.3c.4-.1.5-.3.5-.6h-.3v-.7h.7s-.03.59 0 .6c0 .3-.1.5-.2.6c-.1.2-.3.3-.6.4zm5.4-2.2c0 .4-.2.7-.6 1c-.3.2-.8.4-1.3.4c-.5 0-1-.2-1.3-.4c-.4-.3-.5-.6-.5-1c0-.3.1-.6.2-.8c.2-.2.5-.3.8-.4c-.6-.3-.9-.7-.9-1.2c0-.3.2-.7.5-.9c.4-.2.8-.4 1.2-.4c.5 0 .9.2 1.2.4c.3.2.5.6.5.9c0 .5-.3.9-.9 1.2c.4.1.6.2.8.4c.2.2.3.5.3.8c-.05-.04 0 0 0 0c0 0-.05-.02 0 0zm-3-2.3c0 .2.1.4.3.6c.2.2.5.3.8.3c.3 0 .6-.1.8-.3c.2-.2.3-.4.3-.6c0-.3-.1-.5-.3-.6c-.2-.2-.5-.3-.8-.3c-.3 0-.6.1-.8.3c-.2.1-.3.3-.3.6c-.01-.04 0 0 0 0c0 0-.01-.03 0 0zm-.2 2.3c0 .2.1.4.4.6c.2.2.5.3.9.3c.4 0 .7-.1.9-.3c.3-.2.4-.4.4-.6c0-.3-.1-.5-.4-.7c-.2-.2-.5-.3-.9-.3c-.3 0-.7.1-.9.3c-.2.2-.4.4-.4.7c.03-.04 0 0 0 0c0 0 .03-.03 0 0zm9.3.7c-.4.5-.9.7-1.5.7c-.5 0-.9-.2-1.3-.6c-.3-.3-.5-.8-.5-1.3c0-.5.2-1 .5-1.3c.4-.4.8-.6 1.3-.6c.6 0 1.1.2 1.5.6l-.4.4c-.3-.3-.7-.5-1.1-.5c-.3 0-.6.1-.9.4c-.2.3-.4.6-.4 1c0 .4.2.7.4 1c.3.3.6.4 1 .4c.4 0 .7-.2 1.1-.5c-.02-.04.3.3.3.3c0 0 .03-.02 0 0zm.9.6V122h.6s-.05.59 0 .6c.1-.2.3-.4.4-.5c.2-.1.4-.2.7-.2c.6 0 1 .2 1.2.7c.3-.5.7-.7 1.3-.7c.4 0 .7.1.9.4c.3.3.4.6.4 1.1v2.2h-.5s-.04-2.11 0-2.1c0-.4-.1-.6-.3-.8c-.2-.2-.4-.3-.7-.3c-.3 0-.5.1-.7.3c-.2.2-.3.5-.3.8c.02.01 0 2.1 0 2.1h-.5v-2.1c0-.4-.1-.6-.3-.8c-.1-.2-.3-.3-.6-.3c-.3 0-.6.1-.8.3c-.2.2-.2.5-.2.8c-.05.03 0 2.1 0 2.1h-.6zm8.6-2c0 1.3-.6 2.3-1.9 3l-.3-.4c1.1-.7 1.7-1.5 1.7-2.6c0-1.1-.6-2-1.7-2.6l.3-.4c1.3.7 1.9 1.7 1.9 3c.01-.01 0 0 0 0c0 0 .01 0 0 0z" stroke="none" fill="#000"/></g><g id="Polygon409189"><path d="m3.3 110.2v-.6h.7v.6h-.7zm-1.3 0v-.6h.6v.6h-.6zm3.5 2.9c0 .7-.3 1.3-.7 1.8c-.5.5-1.1.8-1.8.8c-.8 0-1.4-.3-1.8-.8c-.5-.4-.7-1-.7-1.7v-.1c0-.6.2-1.2.7-1.7c.5-.5 1.1-.8 1.8-.8c.7 0 1.3.3 1.8.8c.4.4.7 1 .7 1.7c-.03.04 0 0 0 0c0 0-.03.05 0 0zm-4.4 0c0 .6.1 1.1.5 1.5c.4.4.8.6 1.4.6c.5 0 1-.2 1.4-.6c.3-.4.5-.9.5-1.4v-.1c0-.5-.2-1-.5-1.4c-.4-.4-.9-.6-1.4-.6c-.6 0-1 .2-1.4.6c-.4.4-.5.9-.5 1.4c-.05.04 0 0 0 0c0 0-.05.05 0 0zm5.5 2.5v-5.1h.5v5.1h-.5zm3.1 1.1l-.6-.3s.59-.75.6-.8c-.5 0-.8-.2-1.1-.6c-.3-.3-.4-.7-.4-1.2c0-.5.1-1 .5-1.3c.4-.4.8-.6 1.3-.6c.6 0 1.1.2 1.5.6l-.4.4c-.3-.3-.7-.5-1.1-.5c-.4 0-.7.1-.9.4c-.3.3-.4.6-.4 1c0 .4.1.7.4 1c.3.3.6.4 1 .4c.4 0 .7-.2 1.1-.5l.3.3c-.4.4-.8.7-1.4.7c.03-.02-.4 1-.4 1zm4.5-5.3v-.6h.6v.6h-.6zm-1.2 0v-.6h.6v.6h-.6zm1.9 3.6c-.3.4-.7.7-1.2.7c-.4 0-.8-.2-1-.4c-.3-.3-.4-.6-.4-1.1c.01.03 0-2.2 0-2.2h.5s.04 2.09 0 2.1c0 .3.1.6.3.8c.2.2.4.3.7.3c.4 0 .6-.1.8-.3c.2-.2.3-.5.3-.8c.03-.05 0-2.1 0-2.1h.6v3.6h-.6v-.6s.03-.03 0 0zm1.8.6v-5.1h.6v5.1h-.6zm4.9-.6c-.4.5-.9.7-1.5.7c-.5 0-.9-.2-1.3-.5c-.3-.4-.5-.8-.5-1.4c0-.5.2-1 .5-1.4c.3-.3.7-.5 1.2-.5c.5 0 1 .2 1.3.5c.3.4.4.9.4 1.4v.2h-2.9c.1.4.2.7.5.9c.2.2.5.3.8.3c.4 0 .8-.2 1.2-.5c-.05 0 .3.3.3.3c0 0-.01 0 0 0zm-2.8-1.4h2.4c-.1-.4-.2-.7-.4-.9c-.2-.2-.4-.3-.8-.3c-.3 0-.6.1-.8.3c-.2.2-.3.5-.4.9zm3.9 2V112h.5v.9c.1-.3.3-.5.6-.7c.2-.2.5-.3.9-.3c-.03.02 0 .6 0 .6h-.1c-.4 0-.7.1-1 .4c-.3.3-.4.7-.4 1.3v1.4h-.5zm5.3-2c0 1.1.6 1.9 1.6 2.6l-.2.4c-1.3-.7-1.9-1.7-1.9-3c0-1.3.6-2.3 1.9-3l.2.4c-1 .6-1.6 1.5-1.6 2.6c.01-.01 0 0 0 0c0 0 .01 0 0 0zm2.6 2V112h.6s-.03.93 0 .9c.1-.3.3-.5.6-.7c.2-.2.5-.3.8-.3c.05.02 0 .6 0 .6c0 0 .01 0 0 0c-.4 0-.8.1-1 .4c-.3.3-.4.7-.4 1.3c-.03-.04 0 1.4 0 1.4h-.6zm5.1-.5c-.3.4-.8.6-1.3.6c-.4 0-.7-.1-1-.3c-.2-.2-.4-.5-.4-.9c0-.3.2-.6.4-.8c.3-.2.7-.3 1.2-.3c.3 0 .7 0 1.1.1v-.1c0-.3-.1-.6-.3-.7c-.2-.2-.5-.3-.8-.3c-.4 0-.7.1-1.1.3l-.2-.5c.5-.2.9-.3 1.4-.3c.5 0 .9.2 1.1.4c.3.3.4.6.4 1.1v2.2h-.5v-.5s-.02-.05 0 0zm-1.2.1c.3 0 .6 0 .8-.2c.3-.2.4-.4.4-.7v-.4c-.4-.1-.7-.1-1.1-.1c-.3 0-.6 0-.8.2c-.1.1-.2.3-.2.5c0 .2.1.4.2.6c.2.1.4.1.7.1zm3 .4v-3.1h-.4v-.5h.4s.05-.33 0-.3c0-.4.2-.7.4-1c.1-.1.4-.2.7-.2c.3 0 .5 0 .6.1v.4c-.2 0-.4-.1-.5-.1c-.4 0-.6.3-.6.8c-.02 0 0 .3 0 .3h1.1v.5h-1.1v3.1h-.6zm4.6-2c0 1.3-.7 2.3-2 3l-.2-.4c1.1-.7 1.6-1.5 1.6-2.6c0-1.1-.5-2-1.6-2.6l.2-.4c1.3.7 2 1.7 2 3c-.02-.01 0 0 0 0c0 0-.02 0 0 0zm1-.9v-.7h.7v.7h-.7zm0 2.9v-.7h.7v.7h-.7zm3.7 0v-.4s1.75-1.6 1.8-1.6c.3-.3.6-.6.7-.8c.2-.3.3-.5.3-.7c0-.3-.1-.5-.3-.7c-.2-.2-.4-.3-.7-.3c-.3 0-.5.1-.7.2c-.2.2-.4.4-.6.7l-.4-.3c.2-.4.5-.7.7-.8c.3-.2.6-.3 1-.3c.5 0 .8.2 1.1.4c.3.3.4.6.4 1c0 .4 0 .7-.2.9c-.2.3-.5.6-1 1c.01.03-1.3 1.2-1.3 1.2h2.6v.5h-3.4zm8.4-2.5c0 .8-.2 1.4-.6 1.8c-.4.5-.9.8-1.5.8c-.6 0-1.1-.3-1.5-.7c-.3-.5-.5-1.1-.5-1.8v-.1c0-.7.2-1.3.5-1.7c.4-.5.9-.8 1.5-.8c.7 0 1.2.3 1.5.7c.4.5.6 1.1.6 1.8c0 .04 0 0 0 0c0 0 0 .05 0 0zm-3.6 0c0 .6.2 1.1.5 1.5c.2.4.6.6 1 .6c.5 0 .9-.2 1.1-.6c.3-.4.4-.9.4-1.4v-.1c0-.5-.1-1-.4-1.4c-.3-.4-.6-.6-1.1-.6c-.4 0-.8.2-1 .6c-.3.4-.5.9-.5 1.4c.04.04 0 0 0 0c0 0 .04.05 0 0zm9.5 1.6l-1.2-1.2l-1.2 1.2l-.3-.3l1.2-1.3l-1.2-1.2l.3-.3l1.2 1.2l1.3-1.2l.3.3l-1.2 1.2l1.2 1.2l-.4.4zm3.4.9v-.4s1.82-1.6 1.8-1.6c.4-.3.7-.6.8-.8c.2-.3.2-.5.2-.7c0-.3 0-.5-.2-.7c-.2-.2-.5-.3-.7-.3c-.3 0-.5.1-.7.2c-.2.2-.5.4-.7.7l-.4-.3c.3-.4.5-.7.8-.8c.3-.2.6-.3 1-.3c.4 0 .8.2 1.1.4c.3.3.4.6.4 1c0 .4-.1.7-.3.9c-.1.3-.5.6-.9 1l-1.3 1.2h2.6v.5h-3.5zm4.2 0v-.4s1.82-1.6 1.8-1.6c.4-.3.7-.6.8-.8c.2-.3.2-.5.2-.7c0-.3-.1-.5-.2-.7c-.2-.2-.5-.3-.7-.3c-.3 0-.6.1-.8.2c-.2.2-.4.4-.6.7l-.4-.3c.3-.4.5-.7.8-.8c.2-.2.6-.3 1-.3c.4 0 .8.2 1.1.4c.3.3.4.6.4 1c0 .4-.1.7-.3.9c-.1.3-.5.6-.9 1l-1.3 1.2h2.6v.5h-3.5zm9.4-.9l-1.2-1.2l-1.2 1.2l-.4-.3l1.2-1.3l-1.2-1.2l.4-.3l1.2 1.2l1.2-1.2l.4.3l-1.3 1.2l1.3 1.2l-.4.4zm5.4 1c-.5 0-1-.2-1.3-.5c-.2-.2-.4-.5-.5-.8c-.1-.3-.1-.6-.1-1.1c0-.8.2-1.4.5-1.9c.4-.5.9-.8 1.5-.8c.6 0 1 .2 1.5.6l-.3.4c-.4-.3-.8-.5-1.2-.5c-.4 0-.8.2-1.1.6c-.2.4-.3.9-.3 1.5v.1c.3-.5.8-.8 1.4-.8c.4 0 .8.2 1.2.5c.3.2.5.6.5 1v.1c0 .4-.2.8-.5 1.1c-.4.3-.8.5-1.3.5zm0-.5c.4 0 .6-.1.9-.3c.2-.2.3-.5.3-.8c0-.3-.1-.6-.3-.8c-.3-.2-.6-.3-.9-.3c-.4 0-.7.1-.9.3c-.2.3-.3.5-.3.8c0 .3.1.6.3.8c.3.2.5.3.9.3zm7.8-.2v.6h-.3v-.6h-1.4v-.3l1.3-1.9h.4v1.9h.4v.3h-.4zm-.3-.3v-1.4l-1.1 1.4h1.1zm-3.9.9l1.8-2.5l1.6-2.4h.3l-1.7 2.5l-1.6 2.4h-.4zm0-2.1c-.4 0-.8-.2-1-.5l.2-.3c.2.3.5.4.8.4c.1 0 .3 0 .4-.1c.1-.1.2-.2.2-.4c0-.1-.1-.2-.2-.3c-.2-.1-.3-.2-.6-.2c.05.05-.2 0-.2 0l-.1-.2l.9-.9h-1.3v-.3h1.8v.3s-.88.85-.9.9c.3 0 .5 0 .7.2c.1.1.2.3.2.5c0 .3-.1.5-.2.6c-.2.2-.5.3-.7.3zm7.6-2.3v-.6h.6v.6h-.6zm.1 4.4V112h.5v3.6h-.5zm1.7 0V112h.6s-.02.61 0 .6c.3-.5.7-.7 1.2-.7c.4 0 .8.1 1 .4c.3.3.4.6.4 1.1c.01-.05 0 2.2 0 2.2h-.5s-.03-2.11 0-2.1c0-.4-.1-.6-.3-.8c-.2-.2-.4-.3-.7-.3c-.3 0-.6.1-.8.3c-.2.2-.3.5-.3.8c-.02.03 0 2.1 0 2.1h-.6zm5.6 1.1l-.5-.3s.55-.75.5-.8c-.4 0-.8-.2-1-.6c-.3-.3-.5-.7-.5-1.2c0-.5.2-1 .6-1.3c.3-.4.8-.6 1.3-.6c.5 0 1 .2 1.4.6l-.3.4c-.4-.3-.7-.5-1.1-.5c-.4 0-.7.1-.9.4c-.3.3-.4.6-.4 1c0 .4.1.7.4 1c.2.3.5.4.9.4c.4 0 .8-.2 1.1-.5l.4.3c-.4.4-.9.7-1.4.7c-.01-.02-.5 1-.5 1zm5.3-3.1c0 1.1.5 1.9 1.6 2.6l-.2.4c-1.3-.7-2-1.7-2-3c0-1.3.7-2.3 2-3l.2.4c-1.1.6-1.6 1.5-1.6 2.6c-.03-.01 0 0 0 0c0 0-.03 0 0 0zm4.1 2.1c-.6 0-1.2-.3-1.7-.8l.3-.4c.5.5.9.7 1.4.7c.4 0 .6-.1.9-.3c.2-.2.3-.5.3-.8c0-.3-.1-.6-.3-.8c-.3-.2-.6-.2-.9-.2c-.4 0-.7 0-1 .2c-.05.03-.4-.2-.4-.2l.1-2.4h2.8v.5h-2.3l-.1 1.6c.3-.2.6-.2 1-.2c.5 0 .9.1 1.2.4c.3.2.5.6.5 1.1c0 .4-.2.8-.5 1.1c-.4.3-.8.5-1.3.5zm3.4-.1v-4.4l-.9.3l-.1-.4l1.2-.4h.4v4.9h-.6zm6.8-.9l-1.2-1.2l-1.3 1.2l-.3-.3l1.2-1.3l-1.2-1.2l.4-.3l1.2 1.2l1.2-1.2l.3.3l-1.2 1.2l1.2 1.2l-.3.4zm5.2 1c-.7 0-1.3-.3-1.8-.8l.4-.4c.4.5.9.7 1.4.7c.3 0 .6-.1.8-.3c.3-.2.4-.5.4-.8c0-.3-.2-.6-.4-.8c-.2-.2-.5-.2-.9-.2c-.3 0-.7 0-1 .2c.02.03-.4-.2-.4-.2l.2-2.4h2.8v.5h-2.3s-.14 1.58-.1 1.6c.3-.2.6-.2.9-.2c.5 0 .9.1 1.2.4c.4.2.5.6.5 1.1c0 .4-.1.8-.5 1.1c-.3.3-.7.5-1.2.5zm2.9-.1l2.2-4.4h-2.7v-.5h3.3v.4l-2.2 4.5h-.6zm8.7-.9l-1.2-1.2l-1.2 1.2l-.4-.3l1.2-1.3l-1.2-1.2l.4-.3l1.2 1.2l1.2-1.2l.4.3l-1.3 1.2l1.3 1.2l-.4.4zm4.3.9v-4.4l-.9.3l-.1-.4l1.2-.4h.4v4.9h-.6zm2.2 0l2.2-4.4h-2.6v-.5h3.3v.4l-2.2 4.5h-.7zm9.1-.6c-.5.5-.9.7-1.5.7c-.5 0-1-.2-1.3-.6c-.4-.3-.6-.8-.6-1.3c0-.5.2-1 .6-1.3c.3-.4.8-.6 1.3-.6c.5 0 1 .2 1.4.6l-.3.4c-.4-.3-.7-.5-1.1-.5c-.4 0-.7.1-.9.4c-.3.3-.4.6-.4 1c0 .4.1.7.4 1c.2.3.5.4.9.4c.4 0 .8-.2 1.1-.5c.02-.04.4.3.4.3c0 0-.04-.02 0 0zm.8.6V112h.6v.6c.1-.2.3-.4.5-.5c.1-.1.4-.2.7-.2c.5 0 .9.2 1.1.7c.3-.5.8-.7 1.3-.7c.4 0 .7.1 1 .4c.2.3.3.6.3 1.1c.04-.04 0 2.2 0 2.2h-.5v-2.1c0-.4-.1-.6-.2-.8c-.2-.2-.4-.3-.7-.3c-.3 0-.6.1-.7.3c-.2.2-.3.5-.3.8c-.04.01 0 2.1 0 2.1h-.6s.03-2.13 0-2.1c0-.4-.1-.6-.2-.8c-.2-.2-.4-.3-.7-.3c-.3 0-.5.1-.7.3c-.2.2-.3.5-.3.8v2.1h-.6zm8.6-2c0 1.3-.6 2.3-1.9 3l-.2-.4c1.1-.7 1.6-1.5 1.6-2.6c0-1.1-.5-2-1.6-2.6l.2-.4c1.3.7 1.9 1.7 1.9 3c.05-.01 0 0 0 0c0 0 .05 0 0 0z" stroke="none" fill="#000"/></g><g id="Polygon409188"><path d="m2 105.6v-4.4H.3v-.5h3.9v.5H2.5v4.4h-.5zm4.6-.5c-.3.4-.7.6-1.3.6c-.4 0-.7-.1-.9-.3c-.3-.2-.4-.5-.4-.9c0-.3.1-.6.4-.8c.3-.2.6-.3 1.1-.3c.4 0 .7 0 1.1.1v-.1c0-.3-.1-.6-.3-.7c-.2-.2-.4-.3-.8-.3c-.3 0-.7.1-1.1.3l-.1-.5c.4-.2.8-.3 1.3-.3c.5 0 .9.2 1.2.4c.2.3.3.6.3 1.1c.03-.01 0 2.2 0 2.2h-.5v-.5s.02-.05 0 0zm-1.2.1c.4 0 .6 0 .9-.2c.2-.2.3-.4.3-.7v-.4c-.3-.1-.7-.1-1-.1c-.4 0-.6 0-.8.2c-.2.1-.3.3-.3.5c0 .2.1.4.3.6c.1.1.4.1.6.1zm4.1.5c-.6 0-1.1-.2-1.5-.6l.3-.3c.4.3.8.4 1.2.4c.2 0 .4 0 .5-.1c.2-.1.3-.3.3-.5c0-.1-.1-.3-.3-.4c-.1 0-.4-.1-.6-.2c-.2 0-.3-.1-.3-.1c-.1 0-.2-.1-.3-.1c-.1 0-.2-.1-.3-.1c0-.1-.1-.1-.2-.2c0-.1-.1-.1-.1-.2v-.3c0-.4.1-.6.3-.8c.2-.2.5-.3.9-.3c.5 0 .9.2 1.3.4l-.3.4c-.3-.2-.7-.3-1-.3c-.2 0-.4 0-.5.1c-.2.1-.2.2-.2.4v.2c.1 0 .1.1.2.1c0 .1.1.1.2.2h.2c.1.1.2.1.3.1c.1.1.3.1.3.1c.1.1.2.1.4.2c.1 0 .2.1.2.2c.1 0 .1.1.2.2c0 .1.1.2.1.4c0 .3-.2.6-.4.8c-.2.2-.5.3-.9.3zm4.7-.6c-.4.4-.8.6-1.4.6c-.3 0-.6-.1-.9-.3c-.3-.2-.4-.5-.4-.9c0-.3.1-.6.4-.8c.3-.2.7-.3 1.1-.3c.4 0 .8 0 1.2.1v-.1c0-.3-.1-.6-.3-.7c-.2-.2-.5-.3-.8-.3c-.4 0-.8.1-1.1.3l-.2-.5c.4-.2.9-.3 1.3-.3c.5 0 .9.2 1.2.4c.2.3.4.6.4 1.1c-.03-.01 0 2.2 0 2.2h-.5v-.5s-.05-.05 0 0zm-1.3.1c.4 0 .7 0 .9-.2c.2-.2.4-.4.4-.7v-.4c-.4-.1-.8-.1-1.1-.1c-.3 0-.6 0-.8.2c-.2.1-.3.3-.3.5c0 .2.1.4.3.6c.2.1.4.1.6.1zm2.9.4V102h.6s-.04.93 0 .9c.1-.3.3-.5.6-.7c.2-.2.5-.3.8-.3c.04.02 0 .6 0 .6c0 0-.01 0 0 0c-.4 0-.8.1-1 .4c-.3.3-.4.7-.4 1.3c-.04-.04 0 1.4 0 1.4h-.6zm2.9 0V102h.5v3.6h-.5zm1.8 0V102h.5s.03.59 0 .6c.2-.2.3-.4.5-.5c.2-.1.4-.2.7-.2c.5 0 .9.2 1.2.7c.3-.5.7-.7 1.2-.7c.5 0 .8.1 1 .4c.3.3.4.6.4 1.1c-.02-.04 0 2.2 0 2.2h-.6s.04-2.11 0-2.1c0-.4 0-.6-.2-.8c-.2-.2-.4-.3-.7-.3c-.3 0-.5.1-.7.3c-.2.2-.3.5-.3.8v2.1h-.5s-.03-2.13 0-2.1c0-.4-.1-.6-.3-.8c-.1-.2-.4-.3-.7-.3c-.2 0-.5.1-.7.3c-.2.2-.3.5-.3.8c.03.03 0 2.1 0 2.1h-.5zm6.6-2.9v-.7h.6v.7h-.6zm0 2.9v-.7h.6v.7h-.6zm4 0v-4.9h1.7c.8 0 1.4.2 1.9.7c.5.5.7 1 .7 1.7c0 .7-.2 1.3-.7 1.8c-.5.5-1.1.7-1.9.7h-1.7zm1.7-4.4c0 .01-1.1 0-1.1 0v3.9s1.1-.01 1.1 0c.6 0 1.1-.2 1.5-.6c.3-.3.5-.8.5-1.3v-.1c0-.5-.2-1-.5-1.3c-.4-.4-.9-.6-1.5-.6zm6.1 3.9c-.3.4-.8.6-1.3.6c-.4 0-.7-.1-1-.3c-.3-.2-.4-.5-.4-.9c0-.3.2-.6.4-.8c.3-.2.7-.3 1.2-.3c.3 0 .7 0 1.1.1v-.1c0-.3-.1-.6-.3-.7c-.2-.2-.5-.3-.8-.3c-.4 0-.7.1-1.1.3l-.2-.5c.5-.2.9-.3 1.3-.3c.6 0 1 .2 1.2.4c.3.3.4.6.4 1.1c-.01-.01 0 2.2 0 2.2h-.5v-.5s-.03-.05 0 0zm-1.2.1c.3 0 .6 0 .8-.2c.3-.2.4-.4.4-.7v-.4c-.4-.1-.7-.1-1.1-.1c-.3 0-.6 0-.8.2c-.2.1-.2.3-.2.5c0 .2 0 .4.2.6c.2.1.4.1.7.1zm3.9.4L40 102h.6l1.3 3l1.2-3h.6l-1.6 3.6h-.5zm2.9-4.4v-.6h.6v.6h-.6zm.1 4.4V102h.5v3.6h-.5zm4.7-.7c-.4.5-.9.8-1.4.8c-.5 0-.9-.2-1.2-.5c-.4-.4-.6-.8-.6-1.4c0-.6.2-1 .6-1.4c.3-.3.7-.5 1.2-.5c.5 0 1 .3 1.4.8c-.05-.03 0-2.2 0-2.2h.5v5.1h-.5v-.7s-.05-.03 0 0zm-1.3.3c.3 0 .6-.1.9-.4c.2-.3.4-.6.4-1c0-.4-.2-.8-.4-1c-.3-.3-.6-.4-.9-.4c-.4 0-.7.1-.9.4c-.3.2-.4.6-.4 1c0 .4.1.8.4 1c.2.3.5.4.9.4zm9.4-.3c-.5.5-1.2.8-1.9.8c-.8 0-1.4-.3-1.8-.7c-.5-.5-.7-1.1-.7-1.8v-.1c0-.6.2-1.2.7-1.7c.4-.5 1-.8 1.7-.8c.4 0 .8.1 1 .2c.3.1.6.2.9.5l-.4.4c-.4-.4-.9-.6-1.5-.6c-.5 0-1 .2-1.3.6c-.4.4-.6.9-.6 1.4c0 .6.2 1.1.6 1.5c.3.4.8.6 1.4.6c.5 0 1-.2 1.4-.5v-1.2h-1.5v-.5h2v1.9s.03.03 0 0zm1.2.7V102h.5s.02.93 0 .9c.2-.3.4-.5.6-.7c.3-.2.6-.3.9-.3v.6s-.04 0 0 0c-.5 0-.8.1-1.1.4c-.2.3-.4.7-.4 1.3c.02-.04 0 1.4 0 1.4h-.5zm5.7-.6c-.4.5-.9.7-1.5.7c-.5 0-.9-.2-1.2-.5c-.4-.4-.6-.8-.6-1.4c0-.5.2-1 .5-1.4c.4-.3.8-.5 1.3-.5c.5 0 .9.2 1.2.5c.3.4.5.9.5 1.4v.2h-2.9c0 .4.2.7.4.9c.2.2.5.3.9.3c.4 0 .8-.2 1.1-.5l.3.3s.04 0 0 0zm-2.7-1.4h2.3c0-.4-.1-.7-.3-.9c-.2-.2-.5-.3-.8-.3c-.4 0-.6.1-.8.3c-.3.2-.4.5-.4.9zm6.9 1.4c-.4.5-.9.7-1.5.7c-.5 0-.9-.2-1.3-.5c-.3-.4-.5-.8-.5-1.4c0-.5.1-1 .5-1.4c.3-.3.7-.5 1.2-.5c.5 0 .9.2 1.3.5c.3.4.4.9.4 1.4v.2h-2.9c.1.4.2.7.4.9c.3.2.6.3.9.3c.4 0 .8-.2 1.1-.5c.04 0 .4.3.4.3c0 0-.02 0 0 0zm-2.8-1.4h2.4c-.1-.4-.2-.7-.4-.9c-.2-.2-.4-.3-.8-.3c-.3 0-.6.1-.8.3c-.2.2-.3.5-.4.9zm3.9 2V102h.5v.6c.3-.5.7-.7 1.2-.7c.5 0 .8.1 1 .4c.3.3.4.6.4 1.1c.02-.05 0 2.2 0 2.2h-.5s-.02-2.11 0-2.1c0-.4-.1-.6-.3-.8c-.2-.2-.4-.3-.7-.3c-.3 0-.6.1-.8.3c-.2.2-.3.5-.3.8v2.1h-.5zm10 .1l-.8-.8c-.5.5-1 .8-1.6.8c-.4 0-.8-.2-1.1-.4c-.3-.3-.4-.6-.4-1c0-.6.4-1.1 1.2-1.4c-.2-.2-.3-.4-.4-.6c-.1-.1-.1-.3-.1-.5c0-.3.1-.6.3-.8c.3-.3.6-.4 1-.4c.3 0 .6.1.8.3c.2.3.4.5.4.8c0 .6-.4 1-1.2 1.3l1.1 1.2c.2-.4.4-.7.6-1.1l.5.2c-.3.5-.5.9-.7 1.2c-.04 0 .8.9.8.9l-.4.3zm-2.2-3c.6-.2.9-.5.9-.9v-.1c0-.1 0-.3-.2-.4c-.1-.2-.3-.2-.5-.2c-.2 0-.4 0-.5.2c-.1.1-.2.3-.2.5c0 .1 0 .3.1.4c.1.1.2.3.4.5zm-.1 2.5c.4 0 .8-.2 1.2-.6l-1.3-1.4c-.7.2-1 .6-1 1.1c0 .2.1.5.3.6c.2.2.5.3.8.3zm5.7.4v-4.9h.5l3.1 3.9v-3.9h.6v4.9h-.5l-3.1-4v4h-.6zm7.9-.5c-.4.4-.8.6-1.4.6c-.3 0-.6-.1-.9-.3c-.3-.2-.4-.5-.4-.9c0-.3.1-.6.4-.8c.3-.2.7-.3 1.1-.3c.4 0 .8 0 1.2.1v-.1c0-.3-.1-.6-.3-.7c-.2-.2-.5-.3-.8-.3c-.4 0-.8.1-1.1.3l-.2-.5c.4-.2.9-.3 1.3-.3c.5 0 .9.2 1.2.4c.2.3.4.6.4 1.1c-.03-.01 0 2.2 0 2.2h-.5v-.5s-.05-.05 0 0zm-1.3.1c.4 0 .7 0 .9-.2c.2-.2.4-.4.4-.7v-.4c-.4-.1-.8-.1-1.1-.1c-.3 0-.6 0-.8.2c-.2.1-.3.3-.3.5c0 .2.1.4.3.6c.2.1.4.1.6.1zm4.7.3c-.1.1-.4.2-.6.2c-.3 0-.6-.1-.8-.3c-.1-.2-.2-.4-.2-.8c-.03.04 0-2.1 0-2.1h-.5v-.5h.5v-1.1h.5v1.1h1.2v.5h-1.2v2.1c0 .4.2.6.6.6c.2 0 .4-.1.5-.2c.05.05 0 .5 0 .5c0 0 .05.01 0 0zm4-.5c-.4.5-.9.7-1.5.7c-.5 0-.9-.2-1.3-.5c-.3-.4-.5-.8-.5-1.4c0-.5.1-1 .5-1.4c.3-.3.7-.5 1.2-.5c.5 0 .9.2 1.3.5c.3.4.4.9.4 1.4v.2h-2.9c.1.4.2.7.4.9c.3.2.6.3.9.3c.4 0 .8-.2 1.1-.5c.04 0 .4.3.4.3c0 0-.02 0 0 0zm-2.8-1.4h2.4c-.1-.4-.2-.7-.4-.9c-.2-.2-.5-.3-.8-.3c-.3 0-.6.1-.8.3c-.2.2-.3.5-.4.9zm5.6 2l2.3-4.9h.5l2.2 4.9h-.6l-.6-1.3h-2.6l-.6 1.3h-.6zm1.4-1.8h2.2l-1.1-2.5l-1.1 2.5zm5.7 1.9c-.6 0-1.1-.2-1.5-.6l.3-.3c.4.3.8.4 1.2.4c.2 0 .4 0 .5-.1c.2-.1.3-.3.3-.5c0-.1-.1-.3-.3-.4c-.1 0-.4-.1-.6-.2c-.2 0-.3-.1-.3-.1c-.1 0-.2-.1-.3-.1c-.1 0-.2-.1-.3-.1c0-.1-.1-.1-.2-.2c0-.1-.1-.1-.1-.2v-.3c0-.4.1-.6.3-.8c.2-.2.5-.3.9-.3c.5 0 .9.2 1.3.4l-.3.4c-.3-.2-.7-.3-1-.3c-.2 0-.4 0-.5.1c-.2.1-.2.2-.2.4v.2c.1 0 .1.1.2.1c0 .1.1.1.2.2h.2c.1.1.2.1.3.1c.1.1.3.1.3.1c.1.1.2.1.4.2c.1 0 .2.1.2.2c.1 0 .1.1.2.2c0 .1.1.2.1.4c0 .3-.2.6-.4.8c-.2.2-.5.3-.9.3zm2.3-4.5v-.6h.6v.6h-.6zm0 4.4V102h.6v3.6h-.6zm3 .1c-.6 0-1.1-.2-1.5-.6l.3-.3c.4.3.8.4 1.2.4c.3 0 .4 0 .6-.1c.1-.1.2-.3.2-.5c0-.1-.1-.3-.3-.4c-.1 0-.3-.1-.6-.2c-.2 0-.2-.1-.3-.1c-.1 0-.2-.1-.3-.1c-.1 0-.2-.1-.2-.1c-.1-.1-.2-.1-.2-.2l-.2-.2v-.3c0-.4.1-.6.3-.8c.3-.2.6-.3.9-.3c.5 0 .9.2 1.3.4l-.2.4c-.4-.2-.7-.3-1.1-.3c-.2 0-.4 0-.5.1c-.1.1-.2.2-.2.4c0 .1 0 .1.1.2s0 .1.1.1c0 .1.1.1.2.2h.2c.1.1.2.1.3.1c.2.1.3.1.4.1c.1.1.2.1.3.2c.1 0 .2.1.3.2c0 0 .1.1.1.2c.1.1.1.2.1.4c0 .3-.1.6-.4.8c-.2.2-.5.3-.9.3z" stroke="none" fill="#000"/></g><g id="Polygon409187"><path d="m.7 85.6v-4.9h.5v4.4h2.8v.5H.7zm6.6-.5c-.3.4-.8.6-1.3.6c-.4 0-.7-.1-1-.3c-.2-.2-.4-.5-.4-.9c0-.3.2-.6.5-.8c.2-.2.6-.3 1.1-.3c.3 0 .7 0 1.1.1v-.1c0-.3-.1-.6-.3-.7c-.2-.2-.4-.3-.8-.3c-.3 0-.7.1-1.1.3l-.1-.5c.4-.2.8-.3 1.3-.3c.5 0 .9.2 1.1.4c.3.3.4.6.4 1.1c.01-.01 0 2.2 0 2.2h-.5v-.5s-.01-.05 0 0zm-1.2.1c.3 0 .6 0 .9-.2c.2-.2.3-.4.3-.7v-.4c-.4-.1-.7-.1-1.1-.1c-.3 0-.6 0-.7.2c-.2.1-.3.3-.3.5c0 .2.1.4.2.6c.2.1.4.1.7.1zm4.1.5c-.6 0-1.1-.2-1.5-.6l.2-.3c.4.3.9.4 1.3.4c.2 0 .4 0 .5-.1c.2-.1.2-.3.2-.5c0-.1 0-.3-.2-.4c-.2 0-.4-.1-.7-.2c-.1 0-.2-.1-.3-.1c0 0-.1-.1-.2-.1c-.1 0-.2-.1-.3-.1c0-.1-.1-.1-.2-.2c0-.1-.1-.1-.1-.2c-.1-.1-.1-.2-.1-.3c0-.4.1-.6.4-.8c.2-.2.5-.3.9-.3c.4 0 .9.2 1.3.4l-.3.4c-.3-.2-.7-.3-1-.3c-.3 0-.4 0-.6.1c-.1.1-.1.2-.1.4v.2l.1.1c.1.1.2.1.3.2h.2c.1.1.2.1.3.1c.1.1.2.1.3.1c.1.1.2.1.3.2c.1 0 .2.1.3.2c.1 0 .1.1.2.2v.4c0 .3-.1.6-.3.8c-.3.2-.6.3-.9.3zm4-.2c-.1.1-.4.2-.6.2c-.3 0-.6-.1-.8-.3c-.1-.2-.2-.4-.2-.8c-.04.04 0-2.1 0-2.1h-.5v-.5h.5v-1.1h.5v1.1h1.2v.5h-1.2v2.1c0 .4.2.6.6.6c.2 0 .4-.1.5-.2c.04.05 0 .5 0 .5c0 0 .04.01 0 0zm1-4.3v-.6h.6v.6h-.6zm.1 4.4V82h.5v3.6h-.5zm1.7 0v-5.1h.6v3.5l1.9-2h.7l-1.5 1.5l1.6 2.1h-.7l-1.3-1.7l-.7.8v.9h-.6zm4.1 0v-5.1h.5v5.1h-.5zm1.8-4.4v-.6h.6v.6h-.6zm0 4.4V82h.6v3.6h-.6zm5.8.1c-.5 0-1-.3-1.4-.8c.05.01 0 .7 0 .7h-.5v-5.1h.5s.05 2.21 0 2.2c.4-.5.9-.8 1.4-.8c.5 0 .9.2 1.2.5c.4.4.6.8.6 1.4c0 .6-.2 1-.6 1.4c-.3.3-.7.5-1.2.5zm-.1-.5c.4 0 .7-.1.9-.4c.3-.2.4-.6.4-1c0-.4-.1-.8-.4-1c-.2-.3-.5-.4-.9-.4c-.3 0-.6.1-.9.4c-.2.3-.4.6-.4 1c0 .4.2.7.4 1c.3.3.6.4.9.4zm5.2-.1c-.3.4-.7.6-1.3.6c-.3 0-.6-.1-.9-.3c-.3-.2-.4-.5-.4-.9c0-.3.1-.6.4-.8c.3-.2.7-.3 1.1-.3c.4 0 .8 0 1.1.1v-.1c0-.3 0-.6-.2-.7c-.2-.2-.5-.3-.8-.3c-.4 0-.8.1-1.1.3l-.2-.5c.4-.2.9-.3 1.3-.3c.5 0 .9.2 1.2.4c.2.3.4.6.4 1.1c-.04-.01 0 2.2 0 2.2h-.6v-.5s.04-.05 0 0zm-1.2.1c.4 0 .7 0 .9-.2c.2-.2.4-.4.4-.7v-.4c-.4-.1-.8-.1-1.1-.1c-.3 0-.6 0-.8.2c-.2.1-.3.3-.3.5c0 .2.1.4.3.6c.2.1.4.1.6.1zm2.9.4V82h.5s.05.61 0 .6c.3-.5.8-.7 1.3-.7c.4 0 .8.1 1 .4c.3.3.4.6.4 1.1c-.03-.05 0 2.2 0 2.2h-.6s.04-2.11 0-2.1c0-.4-.1-.6-.2-.8c-.2-.2-.4-.3-.8-.3c-.3 0-.5.1-.7.3c-.2.2-.4.5-.4.8c.05.03 0 2.1 0 2.1h-.5zm7.2-.7c-.3.5-.8.8-1.4.8c-.4 0-.8-.2-1.2-.5c-.3-.4-.5-.8-.5-1.4c0-.6.2-1 .5-1.4c.4-.3.8-.5 1.2-.5c.6 0 1.1.3 1.4.8c.03-.03 0-2.2 0-2.2h.6v5.1h-.6v-.7s.03-.03 0 0zm-1.3.3c.4 0 .7-.1 1-.4c.2-.3.3-.6.3-1c0-.4-.1-.8-.3-1c-.3-.3-.6-.4-1-.4c-.3 0-.6.1-.9.4c-.2.2-.3.6-.3 1c0 .4.1.8.3 1c.3.3.6.4.9.4zm3.1.4V82h.6v3.6h-.6zm3.4-.6l1.1-3h.6s-1.53 3.72-1.5 3.7c-.2.4-.3.7-.5.8c-.2.2-.5.2-.7.2c-.3 0-.5 0-.8-.1l.2-.5c.2.1.3.2.5.2c.2 0 .4-.1.5-.2c.1-.1.2-.3.3-.5L45.9 82h.6l1.4 3zm2.6.6v-5.1h.5v5.1h-.5zm4.2-.5c-.3.4-.8.6-1.3.6c-.4 0-.7-.1-1-.3c-.3-.2-.4-.5-.4-.9c0-.3.2-.6.4-.8c.3-.2.7-.3 1.2-.3c.3 0 .7 0 1.1.1v-.1c0-.3-.1-.6-.3-.7c-.2-.2-.5-.3-.8-.3c-.4 0-.7.1-1.1.3l-.2-.5c.5-.2.9-.3 1.4-.3c.5 0 .9.2 1.1.4c.3.3.4.6.4 1.1c-.01-.01 0 2.2 0 2.2h-.5v-.5s-.02-.05 0 0zm-1.2.1c.3 0 .6 0 .8-.2c.3-.2.4-.4.4-.7v-.4c-.4-.1-.7-.1-1.1-.1c-.3 0-.6 0-.8.2c-.1.1-.2.3-.2.5c0 .2.1.4.2.6c.2.1.4.1.7.1zm4.9.4v-5.1h.6v3.5l1.9-2h.7l-1.5 1.5l1.6 2.1h-.7l-1.3-1.7l-.7.8v.9h-.6zm6.3-.5c-.3.4-.7.6-1.3.6c-.3 0-.6-.1-.9-.3c-.3-.2-.4-.5-.4-.9c0-.3.1-.6.4-.8c.3-.2.7-.3 1.1-.3c.4 0 .8 0 1.1.1v-.1c0-.3-.1-.6-.2-.7c-.2-.2-.5-.3-.8-.3c-.4 0-.8.1-1.1.3l-.2-.5c.4-.2.9-.3 1.3-.3c.5 0 .9.2 1.2.4c.2.3.4.6.4 1.1c-.04-.01 0 2.2 0 2.2h-.6v-.5s.04-.05 0 0zm-1.2.1c.4 0 .7 0 .9-.2c.2-.2.3-.4.3-.7v-.4c-.3-.1-.7-.1-1-.1c-.4 0-.6 0-.8.2c-.2.1-.3.3-.3.5c0 .2.1.4.3.6c.2.1.4.1.6.1zm4.7.3c-.2.1-.4.2-.6.2c-.3 0-.6-.1-.8-.3c-.1-.2-.2-.4-.2-.8c-.04.04 0-2.1 0-2.1h-.5v-.5h.5v-1.1h.5v1.1h1.1v.5h-1.1v2.1c0 .4.2.6.6.6c.2 0 .4-.1.5-.2c.03.05 0 .5 0 .5c0 0 .03.01 0 0zm1 .1v-5.1h.6v5.1h-.6zm4.2-.5c-.3.4-.7.6-1.3.6c-.3 0-.7-.1-.9-.3c-.3-.2-.4-.5-.4-.9c0-.3.1-.6.4-.8c.3-.2.6-.3 1.1-.3c.4 0 .8 0 1.1.1v-.1c0-.3-.1-.6-.3-.7c-.1-.2-.4-.3-.7-.3c-.4 0-.8.1-1.1.3l-.2-.5c.4-.2.9-.3 1.3-.3c.5 0 .9.2 1.2.4c.2.3.3.6.3 1.1c.05-.01 0 2.2 0 2.2h-.5v-.5s.03-.05 0 0zm-1.2.1c.4 0 .7 0 .9-.2c.2-.2.3-.4.3-.7v-.4c-.3-.1-.7-.1-1-.1c-.4 0-.6 0-.8.2c-.2.1-.3.3-.3.5c0 .2.1.4.3.6c.2.1.4.1.6.1zm2.9.4V82h.5s.03.61 0 .6c.3-.5.7-.7 1.3-.7c.4 0 .7.1 1 .4c.2.3.4.6.4 1.1c-.04-.05 0 2.2 0 2.2h-.6s.02-2.11 0-2.1c0-.4-.1-.6-.2-.8c-.2-.2-.5-.3-.8-.3c-.3 0-.6.1-.8.3c-.2.2-.3.5-.3.8c.03.03 0 2.1 0 2.1h-.5zm4.4 0V82h.5v3.6h-.5zm1.7 0V82h.6s-.01.93 0 .9c.1-.3.3-.5.6-.7c.2-.2.5-.3.9-.3c-.04.02 0 .6 0 .6h-.1c-.4 0-.7.1-1 .4c-.3.3-.4.7-.4 1.3v1.4h-.6zm6.2 0L85.8 82h.6l1.2 3l1.3-3h.5l-1.5 3.6h-.5zm5.8-.6c-.4.5-.9.7-1.5.7c-.5 0-1-.2-1.3-.5c-.4-.4-.5-.8-.5-1.4c0-.5.1-1 .5-1.4c.3-.3.7-.5 1.2-.5c.5 0 .9.2 1.2.5c.3.4.5.9.5 1.4v.2h-2.9c0 .4.2.7.4.9c.3.2.5.3.9.3c.4 0 .8-.2 1.1-.5c.02 0 .4.3.4.3c0 0-.05 0 0 0zm-2.8-1.4h2.3c0-.4-.1-.7-.3-.9c-.2-.2-.5-.3-.8-.3c-.3 0-.6.1-.8.3c-.2.2-.4.5-.4.9zm7.1 2.1c-.5 0-1-.2-1.5-.6l.3-.3c.4.3.8.4 1.2.4c.3 0 .5 0 .6-.1c.1-.1.2-.3.2-.5c0-.1-.1-.3-.2-.4c-.2 0-.4-.1-.7-.2c-.1 0-.2-.1-.3-.1c-.1 0-.1-.1-.3-.1c-.1 0-.2-.1-.2-.1l-.2-.2l-.2-.2v-.3c0-.4.1-.6.3-.8c.3-.2.6-.3.9-.3c.5 0 .9.2 1.3.4l-.2.4c-.4-.2-.7-.3-1.1-.3c-.2 0-.4 0-.5.1c-.1.1-.2.2-.2.4c0 .1 0 .1.1.2l.1.1c0 .1.1.1.2.2h.3c0 .1.1.1.2.1c.2.1.3.1.4.1c.1.1.2.1.3.2c.1 0 .2.1.3.2c0 0 .1.1.1.2c.1.1.1.2.1.4c0 .3-.1.6-.4.8c-.2.2-.5.3-.9.3zm4.7-.6c-.3.4-.8.6-1.3.6c-.4 0-.7-.1-1-.3c-.2-.2-.4-.5-.4-.9c0-.3.2-.6.5-.8c.2-.2.6-.3 1.1-.3c.4 0 .7 0 1.1.1v-.1c0-.3-.1-.6-.3-.7c-.2-.2-.4-.3-.8-.3c-.3 0-.7.1-1.1.3l-.1-.5c.4-.2.8-.3 1.3-.3c.5 0 .9.2 1.1.4c.3.3.4.6.4 1.1c.02-.01 0 2.2 0 2.2h-.5v-.5s0-.05 0 0zm-1.2.1c.3 0 .6 0 .9-.2c.2-.2.3-.4.3-.7v-.4c-.4-.1-.7-.1-1.1-.1c-.3 0-.6 0-.7.2c-.2.1-.3.3-.3.5c0 .2.1.4.2.6c.2.1.4.1.7.1zm4.8.5c-.6 0-1-.3-1.4-.8v.7h-.5v-5.1h.5v2.2c.4-.5.8-.8 1.4-.8c.5 0 .9.2 1.2.5c.3.4.5.8.5 1.4c0 .6-.2 1-.5 1.4c-.3.3-.7.5-1.2.5zm-.1-.5c.4 0 .7-.1.9-.4c.2-.2.4-.6.4-1c0-.4-.2-.8-.4-1c-.2-.3-.5-.4-.9-.4c-.4 0-.7.1-.9.4c-.3.3-.4.6-.4 1c0 .4.1.7.4 1c.2.3.5.4.9.4zm2.8-4v-.6h.6v.6h-.6zm.1 4.4V82h.5v3.6h-.5zm3.6-.1c-.2.1-.4.2-.6.2c-.3 0-.6-.1-.8-.3c-.2-.2-.3-.4-.3-.8c.04.04 0-2.1 0-2.1h-.5v-.5h.5v-1.1h.6v1.1h1.1v.5h-1.1s-.02 2.07 0 2.1c0 .4.2.6.6.6c.2 0 .3-.1.5-.2v.5s.01.01 0 0zm1 .1v-5.1h.6v5.1h-.6zm4.9-.6c-.4.5-.9.7-1.5.7c-.5 0-.9-.2-1.3-.5c-.3-.4-.5-.8-.5-1.4c0-.5.2-1 .5-1.4c.3-.3.7-.5 1.2-.5c.6 0 1 .2 1.3.5c.3.4.4.9.4 1.4v.2h-2.9c.1.4.2.7.5.9c.2.2.5.3.8.3c.4 0 .8-.2 1.2-.5c-.04 0 .3.3.3.3c0 0-.01 0 0 0zm-2.8-1.4h2.4c-.1-.4-.2-.7-.4-.9c-.2-.2-.4-.3-.8-.3c-.3 0-.6.1-.8.3c-.2.2-.3.5-.4.9zm3.9 2V82h.5v.6c.3-.5.7-.7 1.2-.7c.5 0 .8.1 1.1.4c.2.3.3.6.3 1.1c.03-.05 0 2.2 0 2.2h-.5v-2.1c0-.4-.1-.6-.3-.8c-.1-.2-.4-.3-.7-.3c-.3 0-.6.1-.8.3c-.2.2-.3.5-.3.8v2.1h-.5zm4.3-4.4v-.6h.6v.6h-.6zm0 4.4V82h.6v3.6h-.6zm1.8 0V82h.6s-.04.93 0 .9c.1-.3.3-.5.6-.7c.2-.2.5-.3.8-.3c.03.02 0 .6 0 .6c0 0-.01 0 0 0c-.4 0-.8.1-1 .4c-.3.3-.4.7-.4 1.3c-.04-.04 0 1.4 0 1.4h-.6zm4.8-1.8v-.6h2.8v.6h-2.8zm5.9 1.8v-5.1h.6v3.5l1.9-2h.7l-1.5 1.5l1.6 2.1h-.7l-1.3-1.7l-.7.8v.9h-.6zm5.5.1c-.5 0-1-.2-1.3-.6c-.4-.3-.6-.8-.6-1.3c0-.5.2-1 .6-1.3c.3-.4.8-.6 1.3-.6c.6 0 1 .2 1.4.6c.3.3.5.8.5 1.3c0 .5-.2 1-.5 1.3c-.4.4-.8.6-1.4.6zm0-.5c.4 0 .7-.1 1-.4c.2-.3.4-.6.4-1c0-.4-.2-.7-.4-1c-.3-.3-.6-.4-1-.4c-.4 0-.7.1-.9.4c-.3.3-.4.6-.4 1c0 .4.1.7.4 1c.2.3.5.4.9.4zm2.9.4v-5.1h.6v5.1h-.6zm4.2-.5c-.3.4-.7.6-1.3.6c-.4 0-.7-.1-1-.3c-.2-.2-.4-.5-.4-.9c0-.3.2-.6.5-.8c.3-.2.6-.3 1.1-.3c.4 0 .7 0 1.1.1v-.1c0-.3-.1-.6-.3-.7c-.2-.2-.4-.3-.8-.3c-.3 0-.7.1-1.1.3l-.1-.5c.4-.2.8-.3 1.3-.3c.5 0 .9.2 1.2.4c.2.3.3.6.3 1.1c.02-.01 0 2.2 0 2.2h-.5v-.5s.01-.05 0 0zm-1.2.1c.3 0 .6 0 .9-.2c.2-.2.3-.4.3-.7v-.4c-.4-.1-.7-.1-1.1-.1c-.3 0-.5 0-.7.2c-.2.1-.3.3-.3.5c0 .2.1.4.3.6c.1.1.4.1.6.1zm4.3-.2l1.1-3h.6l-1.5 3.7c-.2.4-.3.7-.5.8c-.2.2-.4.2-.7.2c-.3 0-.5 0-.8-.1l.2-.5c.2.1.4.2.6.2c.1 0 .3-.1.4-.2c.1-.1.2-.3.3-.5c.01-.01-1.6-3.6-1.6-3.6h.6l1.3 3zm5.9.7c-.6 0-1.1-.2-1.5-.6l.2-.3c.4.3.9.4 1.3.4c.2 0 .4 0 .5-.1c.2-.1.2-.3.2-.5c0-.1 0-.3-.2-.4c-.1 0-.4-.1-.7-.2c-.1 0-.2-.1-.2-.1c-.1 0-.2-.1-.3-.1c-.1 0-.2-.1-.3-.1c0-.1-.1-.1-.2-.2c0-.1-.1-.1-.1-.2c0-.1-.1-.2-.1-.3c0-.4.2-.6.4-.8c.2-.2.5-.3.9-.3c.4 0 .9.2 1.3.4l-.3.4c-.3-.2-.7-.3-1-.3c-.2 0-.4 0-.5.1c-.2.1-.2.2-.2.4v.2c.1 0 .1.1.1.1c.1.1.2.1.3.2h.2c.1.1.2.1.3.1c.1.1.2.1.3.1c.1.1.2.1.3.2c.2 0 .2.1.3.2c.1 0 .1.1.2.2c0 .1.1.2.1.4c0 .3-.2.6-.4.8c-.3.2-.6.3-.9.3zm4.6-.6c-.3.4-.7.6-1.3.6c-.3 0-.6-.1-.9-.3c-.3-.2-.4-.5-.4-.9c0-.3.1-.6.4-.8c.3-.2.7-.3 1.1-.3c.4 0 .8 0 1.1.1v-.1c0-.3-.1-.6-.2-.7c-.2-.2-.5-.3-.8-.3c-.4 0-.8.1-1.1.3l-.2-.5c.4-.2.9-.3 1.3-.3c.5 0 .9.2 1.2.4c.2.3.4.6.4 1.1c-.04-.01 0 2.2 0 2.2h-.6v-.5s.04-.05 0 0zm-1.2.1c.4 0 .7 0 .9-.2c.2-.2.3-.4.3-.7v-.4c-.3-.1-.7-.1-1-.1c-.4 0-.6 0-.8.2c-.2.1-.3.3-.3.5c0 .2.1.4.3.6c.2.1.4.1.6.1zm2.9.4v-5.1h.5v3.5l2-2h.7l-1.5 1.5l1.5 2.1h-.6l-1.3-1.7l-.8.8v.9h-.5zm4 0v-5.1h.6v5.1h-.6zm4.2-.5c-.3.4-.7.6-1.3.6c-.4 0-.7-.1-.9-.3c-.3-.2-.4-.5-.4-.9c0-.3.1-.6.4-.8c.3-.2.6-.3 1.1-.3c.4 0 .7 0 1.1.1v-.1c0-.3-.1-.6-.3-.7c-.1-.2-.4-.3-.8-.3c-.3 0-.7.1-1.1.3l-.1-.5c.4-.2.8-.3 1.3-.3c.5 0 .9.2 1.2.4c.2.3.3.6.3 1.1c.04-.01 0 2.2 0 2.2h-.5v-.5s.02-.05 0 0zm-1.2.1c.4 0 .6 0 .9-.2c.2-.2.3-.4.3-.7v-.4c-.3-.1-.7-.1-1-.1c-.4 0-.6 0-.8.2c-.2.1-.3.3-.3.5c0 .2.1.4.3.6c.1.1.4.1.6.1zm2.9.4V82h.5s.02.59 0 .6c.2-.2.3-.4.5-.5c.2-.1.4-.2.7-.2c.5 0 .9.2 1.2.7c.3-.5.7-.7 1.2-.7c.4 0 .8.1 1 .4c.3.3.4.6.4 1.1c-.03-.04 0 2.2 0 2.2h-.6s.03-2.11 0-2.1c0-.4 0-.6-.2-.8c-.2-.2-.4-.3-.7-.3c-.3 0-.5.1-.7.3c-.2.2-.3.5-.3.8v2.1h-.5s-.04-2.13 0-2.1c0-.4-.1-.6-.3-.8c-.2-.2-.4-.3-.7-.3c-.3 0-.5.1-.7.3c-.2.2-.3.5-.3.8c.02.03 0 2.1 0 2.1h-.5zm9-.5c-.3.4-.7.6-1.3.6c-.4 0-.7-.1-.9-.3c-.3-.2-.5-.5-.5-.9c0-.3.2-.6.5-.8c.3-.2.6-.3 1.1-.3c.4 0 .7 0 1.1.1v-.1c0-.3-.1-.6-.3-.7c-.2-.2-.4-.3-.8-.3c-.3 0-.7.1-1.1.3l-.1-.5c.4-.2.8-.3 1.3-.3c.5 0 .9.2 1.2.4c.2.3.3.6.3 1.1c.03-.01 0 2.2 0 2.2h-.5v-.5s.01-.05 0 0zm-1.2.1c.3 0 .6 0 .9-.2c.2-.2.3-.4.3-.7v-.4c-.3-.1-.7-.1-1-.1c-.4 0-.6 0-.8.2c-.2.1-.3.3-.3.5c0 .2.1.4.3.6c.1.1.4.1.6.1zm2.8.4v-.7h.6v.7h-.6z" stroke="none" fill="#000"/></g><g id="Polygon409186"><path d="m.7 75.6v-4.9h2.1c.6 0 1.1.2 1.4.5c.2.2.4.6.4 1c0 .4-.2.7-.4.9c-.2.3-.6.4-1 .5c.04 0 1.5 2 1.5 2h-.6l-1.5-1.9H1.2v1.9h-.5zm.5-2.4h1.6c.3 0 .6-.1.9-.3c.2-.2.3-.4.3-.7c0-.3-.1-.6-.3-.7c-.2-.2-.5-.3-.9-.3H1.2v2zM8 75.1c-.3.4-.7.6-1.3.6c-.3 0-.6-.1-.9-.3c-.3-.2-.4-.5-.4-.9c0-.3.1-.6.4-.8c.3-.2.7-.3 1.1-.3c.4 0 .8 0 1.1.1v-.1c0-.3 0-.6-.2-.7c-.2-.2-.5-.3-.8-.3c-.4 0-.8.1-1.1.3l-.2-.5c.4-.2.9-.3 1.3-.3c.5 0 .9.2 1.2.4c.2.3.4.6.4 1.1c-.03-.01 0 2.2 0 2.2h-.6v-.5s.05-.05 0 0zm-1.2.1c.4 0 .7 0 .9-.2c.2-.2.4-.4.4-.7v-.4c-.4-.1-.8-.1-1.1-.1c-.3 0-.6 0-.8.2c-.2.1-.3.3-.3.5c0 .2.1.4.3.6c.2.1.4.1.6.1zm3.1.4v-3.1h-.5v-.5h.5s.02-.33 0-.3c0-.4.1-.7.3-1c.2-.1.5-.2.8-.2c.2 0 .4 0 .6.1v.4c-.2 0-.4-.1-.5-.1c-.4 0-.6.3-.6.8c-.05 0 0 .3 0 .3h1.1v.5h-1.1v3.1h-.6zm1.9.9l-.1-.3c.3-.1.5-.3.5-.6h-.3v-.7h.7s-.05.59 0 .6c0 .3-.1.5-.2.6c-.2.2-.4.3-.6.4zm4-.9v-5.1h.6v5.1h-.6zm4.2-.5c-.3.4-.7.6-1.3.6c-.4 0-.7-.1-.9-.3c-.3-.2-.4-.5-.4-.9c0-.3.1-.6.4-.8c.3-.2.6-.3 1.1-.3c.4 0 .7 0 1.1.1v-.1c0-.3-.1-.6-.3-.7c-.2-.2-.4-.3-.8-.3c-.3 0-.7.1-1.1.3l-.1-.5c.4-.2.8-.3 1.3-.3c.5 0 .9.2 1.2.4c.2.3.3.6.3 1.1c.03-.01 0 2.2 0 2.2h-.5v-.5s.01-.05 0 0zm-1.2.1c.3 0 .6 0 .9-.2c.2-.2.3-.4.3-.7v-.4c-.3-.1-.7-.1-1-.1c-.4 0-.6 0-.8.2c-.2.1-.3.3-.3.5c0 .2.1.4.3.6c.1.1.4.1.6.1zm3.9.4L21.2 72h.6l1.2 3l1.2-3h.6l-1.6 3.6h-.5zm5.2-.5c-.4.4-.8.6-1.3.6c-.4 0-.7-.1-1-.3c-.3-.2-.4-.5-.4-.9c0-.3.1-.6.4-.8c.3-.2.7-.3 1.1-.3c.4 0 .8 0 1.2.1v-.1c0-.3-.1-.6-.3-.7c-.2-.2-.5-.3-.8-.3c-.4 0-.7.1-1.1.3l-.2-.5c.4-.2.9-.3 1.3-.3c.6 0 .9.2 1.2.4c.3.3.4.6.4 1.1c-.02-.01 0 2.2 0 2.2h-.5v-.5s-.04-.05 0 0zm-1.2.1c.3 0 .6 0 .8-.2c.2-.2.4-.4.4-.7v-.4c-.4-.1-.8-.1-1.1-.1c-.3 0-.6 0-.8.2c-.2.1-.3.3-.3.5c0 .2.1.4.3.6c.2.1.4.1.7.1zm4.8.5c-.6 0-1.1-.3-1.4-.8c-.04.01 0 .7 0 .7h-.6v-5.1h.6s-.04 2.21 0 2.2c.3-.5.8-.8 1.4-.8c.4 0 .8.2 1.2.5c.3.4.5.8.5 1.4c0 .6-.2 1-.5 1.4c-.4.3-.8.5-1.2.5zm-.1-.5c.3 0 .6-.1.9-.4c.2-.2.3-.6.3-1c0-.4-.1-.8-.3-1c-.3-.3-.6-.4-.9-.4c-.4 0-.7.1-1 .4c-.2.3-.4.6-.4 1c0 .4.2.7.4 1c.3.3.6.4 1 .4zm4.4.5c-.5 0-1-.2-1.3-.6c-.4-.3-.6-.8-.6-1.3c0-.5.2-1 .6-1.3c.3-.4.8-.6 1.3-.6c.6 0 1 .2 1.4.6c.3.3.5.8.5 1.3c0 .5-.2 1-.5 1.3c-.4.4-.8.6-1.4.6zm0-.5c.4 0 .7-.1 1-.4c.2-.3.4-.6.4-1c0-.4-.2-.7-.4-1c-.3-.3-.6-.4-1-.4c-.4 0-.7.1-.9.4c-.3.3-.4.6-.4 1c0 .4.1.7.4 1c.2.3.6.4.9.4zm6.8-3.8v-.6h.6v.6h-.6zm-1.2 0v-.6h.6v.6h-.6zm2 3.6c-.3.4-.7.7-1.3.7c-.4 0-.7-.2-1-.4c-.2-.3-.4-.6-.4-1.1c.04.03 0-2.2 0-2.2h.6s-.02 2.09 0 2.1c0 .3.1.6.2.8c.2.2.5.3.8.3c.3 0 .6-.1.8-.3c.2-.2.3-.5.3-.8c-.04-.05 0-2.1 0-2.1h.5v3.6h-.5v-.6s-.04-.03 0 0zm1.5.6v-.3l2.4-2.9H45v-.4h3v.3l-2.4 2.8h2.4v.5h-3.1zM52 75c-.4.5-.9.7-1.5.7c-.5 0-1-.2-1.3-.5c-.4-.4-.5-.8-.5-1.4c0-.5.1-1 .5-1.4c.3-.3.7-.5 1.2-.5c.5 0 .9.2 1.2.5c.3.4.5.9.5 1.4v.2h-2.9c.1.4.2.7.4.9c.3.2.6.3.9.3c.4 0 .8-.2 1.1-.5c.03 0 .4.3.4.3c0 0-.03 0 0 0zm-2.8-1.4h2.3c0-.4-.1-.7-.3-.9c-.2-.2-.5-.3-.8-.3c-.3 0-.6.1-.8.3c-.2.2-.3.5-.4.9zm3.8 2V72h.6s-.02.93 0 .9c.1-.3.3-.5.6-.7c.2-.2.5-.3.9-.3c-.05.02 0 .6 0 .6h-.1c-.4 0-.7.1-1 .4c-.3.3-.4.7-.4 1.3c-.02-.04 0 1.4 0 1.4h-.6zm2.9-4.4v-.6h.6v.6h-.6zm0 4.4V72h.6v3.6h-.6zm1.8 0V72h.6s-.05.61 0 .6c.2-.5.7-.7 1.2-.7c.4 0 .8.1 1 .4c.3.3.4.6.4 1.1c-.02-.05 0 2.2 0 2.2h-.6s.04-2.11 0-2.1c0-.4 0-.6-.2-.8c-.2-.2-.4-.3-.8-.3c-.3 0-.5.1-.7.3c-.2.2-.3.5-.3.8c-.05.03 0 2.1 0 2.1h-.6zm7.2-.7c-.3.5-.8.8-1.4.8c-.4 0-.8-.2-1.2-.5c-.3-.4-.5-.8-.5-1.4c0-.6.2-1 .5-1.4c.4-.3.8-.5 1.2-.5c.6 0 1.1.3 1.4.8c.03-.03 0-2.2 0-2.2h.6v5.1h-.6v-.7s.03-.03 0 0zm-1.3.3c.4 0 .7-.1 1-.4c.2-.3.4-.6.4-1c0-.4-.2-.8-.4-1c-.3-.3-.6-.4-1-.4c-.3 0-.6.1-.9.4c-.2.2-.3.6-.3 1c0 .4.1.8.3 1c.3.3.6.4.9.4zm6.1-.2c-.3.5-.8.7-1.4.7c-.5 0-1-.2-1.3-.5c-.4-.4-.5-.8-.5-1.4c0-.5.1-1 .4-1.4c.4-.3.8-.5 1.3-.5c.5 0 .9.2 1.2.5c.3.4.5.9.5 1.4v.2H67c0 .4.2.7.4.9c.3.2.5.3.9.3c.4 0 .8-.2 1.1-.5l.3.3s.05 0 0 0zM67 73.6h2.3c0-.4-.1-.7-.3-.9c-.2-.2-.5-.3-.8-.3c-.3 0-.6.1-.8.3c-.2.2-.4.5-.4.9zm7.5 1.4l1.1-3h.6s-1.52 3.72-1.5 3.7c-.2.4-.3.7-.5.8c-.2.2-.4.2-.7.2c-.3 0-.5 0-.8-.1l.2-.5c.2.1.4.2.6.2c.1 0 .3-.1.4-.2c.1-.1.2-.3.3-.5L72.6 72h.5l1.4 3zm4.8.1c-.4.4-.8.6-1.3.6c-.4 0-.7-.1-1-.3c-.3-.2-.4-.5-.4-.9c0-.3.1-.6.4-.8c.3-.2.7-.3 1.2-.3c.3 0 .7 0 1.1.1v-.1c0-.3-.1-.6-.3-.7c-.2-.2-.5-.3-.8-.3c-.4 0-.7.1-1.1.3l-.2-.5c.5-.2.9-.3 1.3-.3c.6 0 .9.2 1.2.4c.3.3.4.6.4 1.1c-.02-.01 0 2.2 0 2.2h-.5v-.5s-.03-.05 0 0zm-1.2.1c.3 0 .6 0 .8-.2c.3-.2.4-.4.4-.7v-.4c-.4-.1-.7-.1-1.1-.1c-.3 0-.6 0-.8.2c-.2.1-.2.3-.2.5c0 .2 0 .4.2.6c.2.1.4.1.7.1zm7.8-.3c-.3.5-.8.8-1.3.8c-.5 0-.9-.2-1.3-.5c-.3-.4-.5-.8-.5-1.4c0-.6.2-1 .5-1.4c.4-.3.8-.5 1.3-.5c.5 0 1 .3 1.3.8c.04-.03 0-2.2 0-2.2h.6v5.1h-.6v-.7s.04-.03 0 0zm-1.3.3c.4 0 .7-.1 1-.4c.2-.3.4-.6.4-1c0-.4-.2-.8-.4-1c-.3-.3-.6-.4-1-.4c-.3 0-.6.1-.9.4c-.2.2-.3.6-.3 1c0 .4.1.8.3 1c.3.3.6.4.9.4zm5.5-.1c-.3.4-.8.6-1.3.6c-.4 0-.7-.1-1-.3c-.3-.2-.4-.5-.4-.9c0-.3.1-.6.4-.8c.3-.2.7-.3 1.2-.3c.3 0 .7 0 1.1.1v-.1c0-.3-.1-.6-.3-.7c-.2-.2-.5-.3-.8-.3c-.4 0-.7.1-1.1.3l-.2-.5c.5-.2.9-.3 1.3-.3c.6 0 .9.2 1.2.4c.3.3.4.6.4 1.1c-.01-.01 0 2.2 0 2.2h-.5v-.5s-.03-.05 0 0zm-1.2.1c.3 0 .6 0 .8-.2c.3-.2.4-.4.4-.7v-.4c-.4-.1-.7-.1-1.1-.1c-.3 0-.6 0-.8.2c-.2.1-.2.3-.2.5c0 .2 0 .4.2.6c.2.1.4.1.7.1zm4.9.4V72h.6s-.03.59 0 .6c.1-.2.3-.4.5-.5c.1-.1.4-.2.6-.2c.6 0 1 .2 1.2.7c.3-.5.8-.7 1.3-.7c.4 0 .7.1 1 .4c.2.3.3.6.3 1.1c.02-.04 0 2.2 0 2.2h-.5s-.02-2.11 0-2.1c0-.4-.1-.6-.3-.8c-.1-.2-.4-.3-.7-.3c-.2 0-.5.1-.7.3c-.2.2-.3.5-.3.8c.04.01 0 2.1 0 2.1h-.5v-2.1c0-.4-.1-.6-.2-.8c-.2-.2-.4-.3-.7-.3c-.3 0-.5.1-.7.3c-.2.2-.3.5-.3.8c-.03.03 0 2.1 0 2.1h-.6zm9.1-.5c-.4.4-.8.6-1.4.6c-.3 0-.6-.1-.9-.3c-.3-.2-.4-.5-.4-.9c0-.3.1-.6.4-.8c.3-.2.7-.3 1.1-.3c.4 0 .8 0 1.2.1v-.1c0-.3-.1-.6-.3-.7c-.2-.2-.5-.3-.8-.3c-.4 0-.8.1-1.1.3l-.2-.5c.4-.2.9-.3 1.3-.3c.5 0 .9.2 1.2.4c.3.3.4.6.4 1.1c-.03-.01 0 2.2 0 2.2h-.5v-.5s-.04-.05 0 0zm-1.2.1c.3 0 .6 0 .8-.2c.2-.2.4-.4.4-.7v-.4c-.4-.1-.8-.1-1.1-.1c-.3 0-.6 0-.8.2c-.2.1-.3.3-.3.5c0 .2.1.4.3.6c.2.1.4.1.7.1zm4.6.3c-.1.1-.4.2-.6.2c-.3 0-.6-.1-.7-.3c-.2-.2-.3-.4-.3-.8c-.02.04 0-2.1 0-2.1h-.5v-.5h.5v-1.1h.5v1.1h1.2v.5h-1.2s.02 2.07 0 2.1c0 .4.2.6.6.6c.2 0 .4-.1.5-.2c.05.05 0 .5 0 .5c0 0 .05.01 0 0zm1.1.1V72h.5v3.6h-.5zm1.8 0V72h.5v.6c.3-.5.7-.7 1.2-.7c.5 0 .8.1 1 .4c.3.3.4.6.4 1.1c.02-.05 0 2.2 0 2.2h-.5s-.02-2.11 0-2.1c0-.4-.1-.6-.3-.8c-.2-.2-.4-.3-.7-.3c-.3 0-.6.1-.8.3c-.2.2-.3.5-.3.8v2.1h-.5zm8.2-4.2v-.6h.6v.6h-.6zm-1.2 0v-.6h.6v.6h-.6zm1.9 3.6c-.3.4-.7.7-1.2.7c-.4 0-.8-.2-1-.4c-.3-.3-.4-.6-.4-1.1c.01.03 0-2.2 0-2.2h.6s-.05 2.09 0 2.1c0 .3 0 .6.2.8c.2.2.4.3.8.3c.3 0 .5-.1.7-.3c.2-.2.3-.5.3-.8c.04-.05 0-2.1 0-2.1h.6v3.6h-.6v-.6s.04-.03 0 0zm1.6.6v-.3l2.4-2.9h-2.3v-.4h3v.3l-2.4 2.8h2.4v.5h-3.1zm7-.6c-.4.5-.9.7-1.5.7c-.5 0-.9-.2-1.2-.5c-.4-.4-.6-.8-.6-1.4c0-.5.2-1 .5-1.4c.4-.3.8-.5 1.3-.5c.5 0 .9.2 1.2.5c.3.4.5.9.5 1.4v.2H124c0 .4.2.7.4.9c.2.2.5.3.9.3c.4 0 .8-.2 1.1-.5l.3.3s.04 0 0 0zm-2.7-1.4h2.3c0-.4-.1-.7-.3-.9c-.2-.2-.5-.3-.8-.3c-.3 0-.6.1-.8.3c-.2.2-.4.5-.4.9zm3.8 2V72h.6s-.05.93 0 .9c.1-.3.3-.5.5-.7c.3-.2.6-.3.9-.3c.03.02 0 .6 0 .6c0 0-.01 0 0 0c-.4 0-.8.1-1 .4c-.3.3-.4.7-.4 1.3c-.05-.04 0 1.4 0 1.4h-.6zm2.9-4.4v-.6h.6v.6h-.6zm0 4.4V72h.5v3.6h-.5zm1.8 0V72h.5s.03.61 0 .6c.3-.5.7-.7 1.3-.7c.4 0 .7.1 1 .4c.2.3.4.6.4 1.1c-.05-.05 0 2.2 0 2.2h-.6v-2.1c0-.4-.1-.6-.3-.8c-.1-.2-.4-.3-.7-.3c-.3 0-.6.1-.8.3c-.2.2-.3.5-.3.8c.03.03 0 2.1 0 2.1h-.5zm7.2-.7c-.4.5-.8.8-1.4.8c-.4 0-.8-.2-1.2-.5c-.3-.4-.5-.8-.5-1.4c0-.6.2-1 .5-1.4c.4-.3.8-.5 1.2-.5c.6 0 1.1.3 1.4.8v-2.2h.5v5.1h-.5v-.7s0-.03 0 0zm-1.3.3c.4 0 .7-.1.9-.4c.3-.3.4-.6.4-1c0-.4-.1-.8-.4-1c-.2-.3-.5-.4-.9-.4c-.3 0-.7.1-.9.4c-.2.2-.4.6-.4 1c0 .4.2.8.4 1c.3.3.6.4.9.4zm6.1-.2c-.4.5-.9.7-1.5.7c-.5 0-.9-.2-1.3-.5c-.3-.4-.5-.8-.5-1.4c0-.5.2-1 .5-1.4c.3-.3.8-.5 1.3-.5c.5 0 .9.2 1.2.5c.3.4.4.9.4 1.4v.2h-2.8c0 .4.1.7.4.9c.2.2.5.3.8.3c.5 0 .9-.2 1.2-.5c-.02 0 .3.3.3.3c0 0 .02 0 0 0zm-2.7-1.4h2.3c0-.4-.1-.7-.3-.9c-.2-.2-.5-.3-.9-.3c-.3 0-.5.1-.7.3c-.3.2-.4.5-.4.9zm5.9 2v-5.1h.5v3.5l2-2h.7l-1.6 1.5l1.6 2.1h-.6l-1.3-1.7l-.8.8v.9h-.5zm6.5-.6c-.3.4-.7.7-1.3.7c-.4 0-.7-.2-1-.4c-.2-.3-.4-.6-.4-1.1c.05.03 0-2.2 0-2.2h.6v2.1c0 .3.1.6.2.8c.2.2.5.3.8.3c.3 0 .6-.1.8-.3c.2-.2.3-.5.3-.8c-.03-.05 0-2.1 0-2.1h.5v3.6h-.5v-.6s-.03-.03 0 0zm1.8.6v-5.1h.5v5.1h-.5zm1.8 0v-5.1h.5v5.1h-.5zm4.2-.5c-.3.4-.8.6-1.3.6c-.4 0-.7-.1-1-.3c-.2-.2-.4-.5-.4-.9c0-.3.2-.6.4-.8c.3-.2.7-.3 1.2-.3c.3 0 .7 0 1.1.1v-.1c0-.3-.1-.6-.3-.7c-.2-.2-.4-.3-.8-.3c-.4 0-.7.1-1.1.3l-.2-.5c.5-.2.9-.3 1.4-.3c.5 0 .9.2 1.1.4c.3.3.4.6.4 1.1v2.2h-.5v-.5s-.02-.05 0 0zm-1.2.1c.3 0 .6 0 .8-.2c.3-.2.4-.4.4-.7v-.4c-.4-.1-.7-.1-1.1-.1c-.3 0-.6 0-.8.2c-.1.1-.2.3-.2.5c0 .2.1.4.2.6c.2.1.4.1.7.1zm2.9.4V72h.5v.6c.3-.5.7-.7 1.2-.7c.5 0 .8.1 1 .4c.3.3.4.6.4 1.1c.01-.05 0 2.2 0 2.2h-.5s-.02-2.11 0-2.1c0-.4-.1-.6-.3-.8c-.2-.2-.4-.3-.7-.3c-.3 0-.6.1-.8.3c-.2.2-.3.5-.3.8v2.1h-.5zm4.3 0V72h.6v3.6h-.6zm1.9 0v-5.1h.5v5.1h-.5zm4.1-.5c-.3.4-.7.6-1.3.6c-.3 0-.7-.1-.9-.3c-.3-.2-.4-.5-.4-.9c0-.3.1-.6.4-.8c.3-.2.7-.3 1.1-.3c.4 0 .8 0 1.1.1v-.1c0-.3-.1-.6-.2-.7c-.2-.2-.5-.3-.8-.3c-.4 0-.8.1-1.1.3l-.2-.5c.4-.2.9-.3 1.3-.3c.5 0 .9.2 1.2.4c.2.3.3.6.3 1.1c.05-.01 0 2.2 0 2.2h-.5v-.5s.03-.05 0 0zm-1.2.1c.4 0 .7 0 .9-.2c.2-.2.3-.4.3-.7v-.4c-.3-.1-.7-.1-1-.1c-.4 0-.6 0-.8.2c-.2.1-.3.3-.3.5c0 .2.1.4.3.6c.2.1.4.1.6.1zm4.8.5c-.6 0-1-.3-1.4-.8c.04.01 0 .7 0 .7h-.5v-5.1h.5s.04 2.21 0 2.2c.4-.5.9-.8 1.4-.8c.5 0 .9.2 1.2.5c.4.4.6.8.6 1.4c0 .6-.2 1-.6 1.4c-.3.3-.7.5-1.2.5zm-.1-.5c.4 0 .7-.1.9-.4c.3-.2.4-.6.4-1c0-.4-.1-.8-.4-1c-.2-.3-.5-.4-.9-.4c-.3 0-.6.1-.9.4c-.3.3-.4.6-.4 1c0 .4.1.7.4 1c.3.3.6.4.9.4zm2.9-4v-.6h.6v.6h-.6zm0 4.4V72h.5v3.6h-.5zm1.8 0v-5.1h.6v5.1h-.6zm1.8-4.4v-.6h.7v.6h-.7zm.1 4.4V72h.5v3.6h-.5zm1.8 0V72h.5s.01.93 0 .9c.1-.3.3-.5.6-.7c.3-.2.6-.3.9-.3c-.02.02 0 .6 0 .6h-.1c-.4 0-.7.1-1 .4c-.3.3-.4.7-.4 1.3v1.4h-.5zm2.1 0v-.7h.6v.7h-.6z" stroke="none" fill="#000"/></g><g id="Polygon409185"><path d="m.6 65.6V62h.5s.04.59 0 .6c.2-.2.3-.4.5-.5c.2-.1.4-.2.7-.2c.6 0 .9.2 1.2.7c.3-.5.7-.7 1.2-.7c.5 0 .8.1 1 .4c.3.3.4.6.4 1.1c-.01-.04 0 2.2 0 2.2h-.5s-.05-2.11 0-2.1c0-.4-.1-.6-.3-.8c-.2-.2-.4-.3-.7-.3c-.3 0-.5.1-.7.3c-.2.2-.3.5-.3.8v2.1h-.5s-.02-2.13 0-2.1c0-.4-.1-.6-.3-.8c-.1-.2-.4-.3-.7-.3c-.2 0-.5.1-.7.3c-.2.2-.3.5-.3.8c.04.03 0 2.1 0 2.1h-.5zm9-.5c-.3.4-.7.6-1.3.6c-.3 0-.7-.1-.9-.3c-.3-.2-.4-.5-.4-.9c0-.3.1-.6.4-.8c.3-.2.6-.3 1.1-.3c.4 0 .8 0 1.1.1v-.1c0-.3-.1-.6-.3-.7c-.1-.2-.4-.3-.8-.3c-.3 0-.7.1-1.1.3l-.1-.5c.4-.2.9-.3 1.3-.3c.5 0 .9.2 1.2.4c.2.3.3.6.3 1.1c.04-.01 0 2.2 0 2.2h-.5v-.5s.02-.05 0 0zm-1.2.1c.4 0 .6 0 .9-.2c.2-.2.3-.4.3-.7v-.4c-.3-.1-.7-.1-1-.1c-.4 0-.6 0-.8.2c-.2.1-.3.3-.3.5c0 .2.1.4.3.6c.2.1.4.1.6.1zm4.7.3c-.2.1-.4.2-.6.2c-.3 0-.6-.1-.8-.3c-.2-.2-.3-.4-.3-.8c.05.04 0-2.1 0-2.1h-.5v-.5h.5v-1.1h.6v1.1h1.1v.5H12s-.02 2.07 0 2.1c0 .4.2.6.6.6c.2 0 .3-.1.5-.2c.02.05 0 .5 0 .5c0 0 .02.01 0 0zm.9.1v-.7h.7v.7h-.7z" stroke="none" fill="#000"/></g><g id="Polygon409184"><path d="m.7 55.6v-4.9h.5v2.9l2.9-2.9h.7l-2.1 2.1l2.2 2.8h-.7l-1.9-2.4l-1.1 1.1v1.3h-.5zm7.3-.5c-.4.4-.8.6-1.4.6c-.3 0-.6-.1-.9-.3c-.3-.2-.4-.5-.4-.9c0-.3.1-.6.4-.8c.3-.2.7-.3 1.1-.3c.4 0 .8 0 1.2.1v-.1c0-.3-.1-.6-.3-.7c-.2-.2-.5-.3-.8-.3c-.4 0-.8.1-1.1.3l-.2-.5c.4-.2.9-.3 1.3-.3c.5 0 .9.2 1.2.4c.2.3.4.6.4 1.1c-.03-.01 0 2.2 0 2.2h-.5v-.5s-.05-.05 0 0zm-1.3.1c.4 0 .7 0 .9-.2c.2-.2.4-.4.4-.7v-.4c-.4-.1-.8-.1-1.1-.1c-.3 0-.6 0-.8.2c-.2.1-.3.3-.3.5c0 .2.1.4.3.6c.2.1.4.1.6.1zm3 .4v-5.1h.5v5.1h-.5zm1.8 0V52h.5v3.6h-.5zm1.8 1.1V52h.5s.04.71 0 .7c.4-.5.9-.8 1.4-.8c.5 0 .9.2 1.2.5c.4.4.6.8.6 1.4c0 .6-.2 1-.6 1.4c-.3.3-.7.5-1.2.5c-.5 0-1-.3-1.4-.8c.04.01 0 1.8 0 1.8h-.5zm1.8-1.5c.4 0 .7-.1.9-.4c.3-.2.4-.6.4-1c0-.4-.1-.8-.4-1c-.2-.3-.5-.4-.9-.4c-.3 0-.6.1-.9.4c-.3.3-.4.6-.4 1c0 .4.1.7.4 1c.3.3.6.4.9.4zm2.9.4v-5.1h.5v5.1h-.5zm1.8 0V52h.6v3.6h-.6zm5.9.1c-.6 0-1.1-.3-1.4-.8c-.03.01 0 .7 0 .7h-.6v-5.1h.6s-.03 2.21 0 2.2c.3-.5.8-.8 1.4-.8c.4 0 .8.2 1.2.5c.3.4.5.8.5 1.4c0 .6-.2 1-.5 1.4c-.4.3-.8.5-1.2.5zm-.1-.5c.3 0 .6-.1.9-.4c.2-.2.3-.6.3-1c0-.4-.1-.8-.3-1c-.3-.3-.6-.4-.9-.4c-.4 0-.7.1-1 .4c-.2.3-.4.6-.4 1c0 .4.2.7.4 1c.3.3.6.4 1 .4zm5.3-.2c-.2.4-.7.7-1.2.7c-.4 0-.8-.2-1-.4c-.3-.3-.4-.6-.4-1.1c.02.03 0-2.2 0-2.2h.6s-.04 2.09 0 2.1c0 .3 0 .6.2.8c.2.2.4.3.8.3c.3 0 .5-.1.7-.3c.2-.2.3-.5.3-.8c.05-.05 0-2.1 0-2.1h.6v3.6h-.6v-.6s.05-.03 0 0zm1.8.6v-5.1h.6v5.1h-.6zm4.2-.5c-.3.4-.7.6-1.3.6c-.4 0-.7-.1-.9-.3c-.3-.2-.4-.5-.4-.9c0-.3.1-.6.4-.8c.3-.2.6-.3 1.1-.3c.4 0 .7 0 1.1.1v-.1c0-.3-.1-.6-.3-.7c-.1-.2-.4-.3-.8-.3c-.3 0-.7.1-1.1.3l-.1-.5c.4-.2.8-.3 1.3-.3c.5 0 .9.2 1.2.4c.2.3.3.6.3 1.1c.04-.01 0 2.2 0 2.2h-.5v-.5s.02-.05 0 0zm-1.2.1c.4 0 .6 0 .9-.2c.2-.2.3-.4.3-.7v-.4c-.3-.1-.7-.1-1-.1c-.4 0-.6 0-.8.2c-.2.1-.3.3-.3.5c0 .2.1.4.3.6c.1.1.4.1.6.1zm3.8 1.5l-.6-.3l.6-.8c-.5 0-.9-.2-1.2-.5l.3-.3c.4.3.8.4 1.2.4c.2 0 .4 0 .6-.1c.1-.1.2-.3.2-.5c0-.1-.1-.3-.3-.4c-.1 0-.4-.1-.6-.2c-.2 0-.3-.1-.3-.1c-.1 0-.2-.1-.3-.1c-.1 0-.2-.1-.3-.1c0-.1-.1-.1-.2-.2c0-.1-.1-.1-.1-.2v-.3c0-.4.1-.6.3-.8c.2-.2.5-.3.9-.3c.5 0 .9.2 1.3.4l-.3.4c-.3-.2-.7-.3-1-.3c-.2 0-.4 0-.5.1c-.2.1-.2.2-.2.4v.2c.1 0 .1.1.2.1c0 .1.1.1.2.2h.2c.1.1.2.1.3.1c.1.1.3.1.3.1c.1.1.2.1.4.2c.1 0 .2.1.2.2c.1 0 .2.1.2.2c0 .1.1.2.1.4c0 .3-.1.5-.4.7c-.2.2-.4.3-.8.4l-.4 1zm2.6-1.1V52h.6v3.6h-.6zm1.8 0v-5.1h.5v3.5l2-2h.7l-1.5 1.5l1.5 2.1h-.6l-1.3-1.7l-.8.8v.9h-.5zm4 0v-5.1h.6v5.1h-.6zm1.9 0V52h.5v3.6h-.5zm1.8 0v-5.1h.5v3.5l2-2h.6l-1.5 1.5l1.6 2.1h-.7l-1.3-1.7l-.7.8v.9h-.5zm3.8.9l-.1-.3c.3-.1.5-.3.4-.6h-.2v-.7h.6s.04.59 0 .6c0 .3 0 .5-.1.6c-.2.2-.4.3-.6.4zm4-.9v-5.1h.5v2.1c.3-.5.7-.7 1.3-.7c.4 0 .7.1 1 .4c.2.3.3.6.3 1.1c.04-.05 0 2.2 0 2.2h-.5v-2.1c0-.4-.1-.6-.3-.8c-.1-.2-.4-.3-.7-.3c-.3 0-.6.1-.8.3c-.2.2-.3.5-.3.8v2.1h-.5zm6.7-.5c-.3.4-.8.6-1.3.6c-.4 0-.7-.1-1-.3c-.3-.2-.4-.5-.4-.9c0-.3.2-.6.4-.8c.3-.2.7-.3 1.2-.3c.3 0 .7 0 1.1.1v-.1c0-.3-.1-.6-.3-.7c-.2-.2-.5-.3-.8-.3c-.4 0-.7.1-1.1.3l-.2-.5c.5-.2.9-.3 1.3-.3c.6 0 1 .2 1.2.4c.3.3.4.6.4 1.1c-.01-.01 0 2.2 0 2.2h-.5v-.5s-.03-.05 0 0zm-1.2.1c.3 0 .6 0 .8-.2c.3-.2.4-.4.4-.7v-.4c-.4-.1-.7-.1-1.1-.1c-.3 0-.6 0-.8.2c-.2.1-.2.3-.2.5c0 .2 0 .4.2.6c.2.1.4.1.7.1zm2.8.4V52h.6s-.02.93 0 .9c.1-.3.3-.5.6-.7c.2-.2.5-.3.9-.3c-.05.02 0 .6 0 .6h-.1c-.4 0-.7.1-1 .4c-.3.3-.4.7-.4 1.3c-.02-.04 0 1.4 0 1.4h-.6zm5.8-.6c-.4.5-.9.7-1.5.7c-.5 0-.9-.2-1.3-.5c-.3-.4-.5-.8-.5-1.4c0-.5.2-1 .5-1.4c.3-.3.7-.5 1.2-.5c.5 0 1 .2 1.3.5c.3.4.4.9.4 1.4v.2h-2.9c.1.4.2.7.5.9c.2.2.5.3.8.3c.4 0 .8-.2 1.2-.5c-.04 0 .3.3.3.3c0 0-.01 0 0 0zm-2.8-1.4h2.4c-.1-.4-.2-.7-.4-.9c-.2-.2-.4-.3-.8-.3c-.3 0-.6.1-.8.3c-.2.2-.3.5-.4.9zm3.9 2v-5.1h.5v3.5l2-2h.6l-1.5 1.5l1.6 2.1h-.7l-1.3-1.7l-.7.8v.9h-.5zm6.8-.6c-.4.5-.9.7-1.4.7c-.6 0-1-.2-1.3-.5c-.4-.4-.6-.8-.6-1.4c0-.5.2-1 .5-1.4c.4-.3.8-.5 1.3-.5c.5 0 .9.2 1.2.5c.3.4.5.9.5 1.4v.2h-2.9c0 .4.2.7.4.9c.2.2.5.3.9.3c.4 0 .8-.2 1.1-.5l.3.3s.04 0 0 0zm-2.7-1.4h2.3c0-.4-.1-.7-.3-.9c-.2-.2-.5-.3-.8-.3c-.3 0-.6.1-.8.3c-.2.2-.4.5-.4.9zm5.7 1.9c-.2.1-.4.2-.7.2c-.3 0-.5-.1-.7-.3c-.2-.2-.3-.4-.3-.8v-2.1h-.5v-.5h.5v-1.1h.5v1.1h1.2v.5h-1.2s.04 2.07 0 2.1c0 .4.2.6.7.6c.1 0 .3-.1.5-.2c-.02.05 0 .5 0 .5c0 0-.02.01 0 0zm1 .1v-5.1h.5v5.1h-.5zm1.8-4.4v-.6h.6v.6h-.6zm0 4.4V52h.6v3.6h-.6zm5.2 1.1l-.5-.3s.52-.75.5-.8c-.4 0-.8-.2-1.1-.6c-.3-.3-.4-.7-.4-1.2c0-.5.2-1 .5-1.3c.4-.4.8-.6 1.4-.6c.5 0 1 .2 1.4.6l-.4.4c-.3-.3-.7-.5-1.1-.5c-.3 0-.6.1-.9.4c-.2.3-.3.6-.3 1c0 .4.1.7.3 1c.3.3.6.4 1 .4c.4 0 .8-.2 1.1-.5l.3.3c-.4.4-.8.7-1.3.7c-.04-.02-.5 1-.5 1zm5.1-1.6c-.3.4-.7.6-1.3.6c-.4 0-.7-.1-.9-.3c-.3-.2-.5-.5-.5-.9c0-.3.2-.6.5-.8c.3-.2.6-.3 1.1-.3c.4 0 .7 0 1.1.1v-.1c0-.3-.1-.6-.3-.7c-.2-.2-.4-.3-.8-.3c-.3 0-.7.1-1.1.3l-.1-.5c.4-.2.8-.3 1.3-.3c.5 0 .9.2 1.2.4c.2.3.3.6.3 1.1c.03-.01 0 2.2 0 2.2h-.5v-.5s.01-.05 0 0zm-1.2.1c.3 0 .6 0 .9-.2c.2-.2.3-.4.3-.7v-.4c-.3-.1-.7-.1-1-.1c-.4 0-.6 0-.8.2c-.2.1-.3.3-.3.5c0 .2.1.4.3.6c.1.1.4.1.6.1zm4.7.3c-.2.1-.4.2-.7.2c-.3 0-.5-.1-.7-.3c-.2-.2-.3-.4-.3-.8c.03.04 0-2.1 0-2.1h-.5v-.5h.5v-1.1h.6v1.1h1.1v.5h-1.1s-.03 2.07 0 2.1c0 .4.2.6.6.6c.2 0 .3-.1.5-.2v.5s0 .01 0 0zm3.4-.4c-.4.4-.8.6-1.4.6c-.3 0-.6-.1-.9-.3c-.3-.2-.4-.5-.4-.9c0-.3.1-.6.4-.8c.3-.2.7-.3 1.1-.3c.4 0 .8 0 1.2.1v-.1c0-.3-.1-.6-.3-.7c-.2-.2-.5-.3-.8-.3c-.4 0-.8.1-1.1.3l-.2-.5c.4-.2.9-.3 1.3-.3c.5 0 .9.2 1.2.4c.2.3.4.6.4 1.1c-.03-.01 0 2.2 0 2.2h-.5v-.5s-.05-.05 0 0zm-1.3.1c.4 0 .7 0 .9-.2c.2-.2.4-.4.4-.7v-.4c-.4-.1-.8-.1-1.1-.1c-.3 0-.6 0-.8.2c-.2.1-.3.3-.3.5c0 .2.1.4.3.6c.2.1.4.1.6.1zm3 .4v-5.1h.5v5.1h-.5zm1.6-1.8v-.6h2.8v.6h-2.8zm5.8 1.9c-.6 0-1.1-.3-1.4-.8v.7h-.5v-5.1h.5v2.2c.4-.5.8-.8 1.4-.8c.4 0 .8.2 1.2.5c.3.4.5.8.5 1.4c0 .6-.2 1-.5 1.4c-.4.3-.8.5-1.2.5zm-.1-.5c.3 0 .7-.1.9-.4c.2-.2.4-.6.4-1c0-.4-.2-.8-.4-1c-.3-.3-.6-.4-.9-.4c-.4 0-.7.1-.9.4c-.3.3-.4.6-.4 1c0 .4.1.7.4 1c.2.3.5.4.9.4zm2.9.4V52h.5v3.6h-.5zm3 1.1l-.5-.3s.54-.75.5-.8c-.4 0-.8-.2-1-.6c-.3-.3-.5-.7-.5-1.2c0-.5.2-1 .6-1.3c.3-.4.7-.6 1.3-.6c.5 0 1 .2 1.4.6l-.3.4c-.4-.3-.7-.5-1.1-.5c-.4 0-.7.1-1 .4c-.2.3-.3.6-.3 1c0 .4.1.7.4 1c.2.3.5.4.9.4c.4 0 .8-.2 1.1-.5l.4.3c-.4.4-.9.7-1.4.7c-.02-.02-.5 1-.5 1zm5.1-1.6c-.3.4-.7.6-1.3.6c-.3 0-.7-.1-.9-.3c-.3-.2-.4-.5-.4-.9c0-.3.1-.6.4-.8c.3-.2.6-.3 1.1-.3c.4 0 .8 0 1.1.1v-.1c0-.3-.1-.6-.3-.7c-.1-.2-.4-.3-.7-.3c-.4 0-.8.1-1.1.3l-.2-.5c.4-.2.9-.3 1.3-.3c.5 0 .9.2 1.2.4c.2.3.3.6.3 1.1c.05-.01 0 2.2 0 2.2h-.5v-.5s.03-.05 0 0zm-1.2.1c.4 0 .7 0 .9-.2c.2-.2.3-.4.3-.7v-.4c-.3-.1-.7-.1-1-.1c-.4 0-.6 0-.8.2c-.2.1-.3.3-.3.5c0 .2.1.4.3.6c.2.1.4.1.6.1zm2.9.4v-5.1h.5v3.5l2-2h.7l-1.6 1.5l1.6 2.1h-.6l-1.3-1.7l-.8.8v.9h-.5zm6.1 0v-5.1h.5s.02 2.11 0 2.1c.3-.5.7-.7 1.3-.7c.4 0 .7.1 1 .4c.2.3.3.6.3 1.1c.04-.05 0 2.2 0 2.2h-.5v-2.1c0-.4-.1-.6-.3-.8c-.1-.2-.4-.3-.7-.3c-.3 0-.6.1-.8.3c-.2.2-.3.5-.3.8c.02.03 0 2.1 0 2.1h-.5zm6.7-.5c-.3.4-.8.6-1.3.6c-.4 0-.7-.1-1-.3c-.2-.2-.4-.5-.4-.9c0-.3.2-.6.4-.8c.3-.2.7-.3 1.2-.3c.3 0 .7 0 1.1.1v-.1c0-.3-.1-.6-.3-.7c-.2-.2-.5-.3-.8-.3c-.4 0-.7.1-1.1.3l-.2-.5c.5-.2.9-.3 1.4-.3c.5 0 .9.2 1.1.4c.3.3.4.6.4 1.1v2.2h-.5v-.5s-.02-.05 0 0zm-1.2.1c.3 0 .6 0 .8-.2c.3-.2.4-.4.4-.7v-.4c-.4-.1-.7-.1-1.1-.1c-.3 0-.6 0-.8.2c-.1.1-.2.3-.2.5c0 .2.1.4.2.6c.2.1.4.1.7.1zm2.6.4v-.3l2.4-2.9h-2.3v-.4h3.1v.3l-2.4 2.8h2.4v.5h-3.2zm4.1 0V52h.6s-.03.61 0 .6c.3-.5.7-.7 1.2-.7c.4 0 .8.1 1 .4c.3.3.4.6.4 1.1v2.2h-.5s-.04-2.11 0-2.1c0-.4-.1-.6-.3-.8c-.2-.2-.4-.3-.7-.3c-.4 0-.6.1-.8.3c-.2.2-.3.5-.3.8c-.03.03 0 2.1 0 2.1h-.6zm7.4-.6c-.4.5-.9.7-1.5.7c-.5 0-.9-.2-1.3-.5c-.3-.4-.5-.8-.5-1.4c0-.5.2-1 .5-1.4c.3-.3.8-.5 1.3-.5c.5 0 .9.2 1.2.5c.3.4.4.9.4 1.4v.2h-2.8c0 .4.1.7.4.9c.2.2.5.3.8.3c.5 0 .9-.2 1.2-.5c-.02 0 .3.3.3.3c0 0 .02 0 0 0zm-2.7-1.4h2.3c0-.4-.1-.7-.3-.9c-.2-.2-.5-.3-.9-.3c-.3 0-.5.1-.7.3c-.3.2-.4.5-.4.9zm5 2.1c-.6 0-1.1-.2-1.5-.6l.3-.3c.4.3.8.4 1.2.4c.2 0 .4 0 .6-.1c.1-.1.2-.3.2-.5c0-.1-.1-.3-.3-.4c-.1 0-.3-.1-.6-.2c-.2 0-.3-.1-.3-.1c-.1 0-.2-.1-.3-.1c-.1 0-.2-.1-.3-.1c0-.1-.1-.1-.1-.2c-.1-.1-.2-.1-.2-.2v-.3c0-.4.1-.6.3-.8c.2-.2.5-.3.9-.3c.5 0 .9.2 1.3.4l-.2.4c-.4-.2-.8-.3-1.1-.3c-.2 0-.4 0-.5.1c-.2.1-.2.2-.2.4v.2c.1 0 .1.1.2.1c0 .1.1.1.2.2h.2c.1.1.2.1.3.1c.1.1.3.1.4.1c0 .1.1.1.3.2c.1 0 .2.1.2.2c.1 0 .2.1.2.2c.1.1.1.2.1.4c0 .3-.1.6-.4.8c-.2.2-.5.3-.9.3zm2.3-4.5v-.6h.6v.6h-.6zm0 4.4V52h.6v3.6h-.6zm5.1 0L160 52h.6l1.2 3l1.2-3h.6l-1.6 3.6h-.5zm5.8-.6c-.4.5-.9.7-1.5.7c-.5 0-.9-.2-1.3-.5c-.3-.4-.5-.8-.5-1.4c0-.5.2-1 .5-1.4c.3-.3.7-.5 1.2-.5c.5 0 1 .2 1.3.5c.3.4.4.9.4 1.4v.2h-2.9c.1.4.2.7.5.9c.2.2.5.3.8.3c.4 0 .8-.2 1.2-.5c-.05 0 .3.3.3.3c0 0-.01 0 0 0zm-2.8-1.4h2.4c-.1-.4-.2-.7-.4-.9c-.2-.2-.4-.3-.8-.3c-.3 0-.6.1-.8.3c-.2.2-.3.5-.4.9zm6 2v-5.1h.5v2.1c.3-.5.7-.7 1.2-.7c.5 0 .8.1 1.1.4c.2.3.3.6.3 1.1c.02-.05 0 2.2 0 2.2h-.5v-2.1c0-.4-.1-.6-.3-.8c-.2-.2-.4-.3-.7-.3c-.3 0-.6.1-.8.3c-.2.2-.3.5-.3.8v2.1h-.5zm4.3 0V52h.6v3.6h-.6zm1.6 0v-.3l2.4-2.9h-2.3v-.4h3v.3l-2.4 2.8h2.4v.5h-3.1zm4.2 0v-5.1h.5v5.1h-.5zm1.8 0V52h.5v3.6h-.5zm3.9 0v-5.1h.5v3.5l2-2h.7l-1.6 1.5l1.6 2.1h-.6l-1.3-1.7l-.8.8v.9h-.5zm6.5-.6c-.3.4-.7.7-1.3.7c-.4 0-.7-.2-1-.4c-.2-.3-.4-.6-.4-1.1c.04.03 0-2.2 0-2.2h.6s-.02 2.09 0 2.1c0 .3.1.6.2.8c.2.2.5.3.8.3c.3 0 .6-.1.8-.3c.2-.2.3-.5.3-.8c-.03-.05 0-2.1 0-2.1h.5v3.6h-.5v-.6s-.03-.03 0 0zm1.7.6V52h.6s-.05.93 0 .9c.1-.3.3-.5.5-.7c.3-.2.6-.3.9-.3c.03.02 0 .6 0 .6c0 0-.01 0 0 0c-.4 0-.8.1-1 .4c-.3.3-.4.7-.4 1.3c-.05-.04 0 1.4 0 1.4h-.6zm5.4-.6c-.3.4-.7.7-1.2.7c-.5 0-.8-.2-1-.4c-.3-.3-.4-.6-.4-1.1c-.01.03 0-2.2 0-2.2h.5s.03 2.09 0 2.1c0 .3.1.6.3.8c.2.2.4.3.7.3c.3 0 .6-.1.8-.3c.2-.2.3-.5.3-.8c.02-.05 0-2.1 0-2.1h.5v3.6h-.5v-.6s.02-.03 0 0zm3.3 0l1.2-3h.5s-1.48 3.72-1.5 3.7c-.1.4-.3.7-.5.8c-.2.2-.4.2-.7.2c-.2 0-.5 0-.8-.1l.2-.5c.2.1.4.2.6.2c.2 0 .3-.1.4-.2c.1-.1.2-.3.3-.5c.04-.01-1.6-3.6-1.6-3.6h.6l1.3 3zm4.8.1c-.3.4-.7.6-1.3.6c-.4 0-.7-.1-.9-.3c-.3-.2-.5-.5-.5-.9c0-.3.2-.6.5-.8c.3-.2.6-.3 1.1-.3c.4 0 .7 0 1.1.1v-.1c0-.3-.1-.6-.3-.7c-.2-.2-.4-.3-.8-.3c-.3 0-.7.1-1.1.3l-.1-.5c.4-.2.8-.3 1.3-.3c.5 0 .9.2 1.2.4c.2.3.3.6.3 1.1c.03-.01 0 2.2 0 2.2h-.5v-.5s.01-.05 0 0zm-1.2.1c.3 0 .6 0 .9-.2c.2-.2.3-.4.3-.7v-.4c-.3-.1-.7-.1-1-.1c-.4 0-.6 0-.8.2c-.2.1-.3.3-.3.5c0 .2.1.4.3.6c.1.1.4.1.6.1zm2.9.4V52h.5v.6c.3-.5.7-.7 1.3-.7c.4 0 .7.1 1 .4c.2.3.3.6.3 1.1c.04-.05 0 2.2 0 2.2h-.5v-2.1c0-.4-.1-.6-.3-.8c-.1-.2-.4-.3-.7-.3c-.3 0-.6.1-.8.3c-.2.2-.3.5-.3.8v2.1h-.5zm6.4 0v-5.1h.5v3.5l2-2h.7l-1.6 1.5l1.6 2.1h-.6l-1.3-1.7l-.8.8v.9h-.5zm6.5-.6c-.3.4-.7.7-1.3.7c-.4 0-.7-.2-1-.4c-.2-.3-.4-.6-.4-1.1c.04.03 0-2.2 0-2.2h.6s-.02 2.09 0 2.1c0 .3.1.6.2.8c.2.2.5.3.8.3c.3 0 .6-.1.8-.3c.2-.2.3-.5.3-.8c-.03-.05 0-2.1 0-2.1h.5v3.6h-.5v-.6s-.03-.03 0 0zm1.7.6V52h.5s.05.59 0 .6l.5-.5c.2-.1.4-.2.7-.2c.6 0 1 .2 1.2.7c.3-.5.7-.7 1.3-.7c.4 0 .7.1.9.4c.3.3.4.6.4 1.1v2.2h-.5s-.04-2.11 0-2.1c0-.4-.1-.6-.3-.8c-.2-.2-.4-.3-.7-.3c-.3 0-.5.1-.7.3c-.2.2-.3.5-.3.8c.02.01 0 2.1 0 2.1h-.5v-2.1c0-.4-.1-.6-.3-.8c-.1-.2-.4-.3-.6-.3c-.3 0-.6.1-.8.3c-.2.2-.3.5-.3.8c.05.03 0 2.1 0 2.1h-.5zm9-.5c-.3.4-.7.6-1.3.6c-.3 0-.7-.1-.9-.3c-.3-.2-.4-.5-.4-.9c0-.3.1-.6.4-.8c.3-.2.7-.3 1.1-.3c.4 0 .8 0 1.1.1v-.1c0-.3-.1-.6-.2-.7c-.2-.2-.5-.3-.8-.3c-.4 0-.8.1-1.1.3l-.2-.5c.4-.2.9-.3 1.3-.3c.5 0 .9.2 1.2.4c.2.3.4.6.4 1.1c-.05-.01 0 2.2 0 2.2h-.6v-.5s.03-.05 0 0zm-1.2.1c.4 0 .7 0 .9-.2c.2-.2.3-.4.3-.7v-.4c-.3-.1-.7-.1-1-.1c-.4 0-.6 0-.8.2c-.2.1-.3.3-.3.5c0 .2.1.4.3.6c.2.1.4.1.6.1zm3.8 1.5l-.6-.3s.59-.75.6-.8c-.5 0-.9-.2-1.2-.5l.3-.3c.4.3.8.4 1.2.4c.2 0 .4 0 .6-.1c.1-.1.2-.3.2-.5c0-.1-.1-.3-.3-.4c-.1 0-.3-.1-.6-.2c-.2 0-.3-.1-.3-.1c-.1 0-.2-.1-.3-.1c-.1 0-.2-.1-.2-.1c-.1-.1-.2-.1-.2-.2c-.1-.1-.2-.1-.2-.2v-.3c0-.4.1-.6.3-.8c.3-.2.5-.3.9-.3c.5 0 .9.2 1.3.4l-.2.4c-.4-.2-.8-.3-1.1-.3c-.2 0-.4 0-.5.1c-.1.1-.2.2-.2.4v.2c.1 0 .1.1.2.1c0 .1.1.1.2.2h.2c.1.1.2.1.3.1c.2.1.3.1.4.1c.1.1.2.1.3.2c.1 0 .2.1.2.2c.1 0 .2.1.2.2c.1.1.1.2.1.4c0 .3-.1.5-.3.7c-.2.2-.5.3-.9.4c.04-.04-.4 1-.4 1z" stroke="none" fill="#000"/></g><g id="Polygon409183"><path d="m.7 35.6v-4.9h.5v2.9l2.9-2.9h.7l-2.1 2.1l2.2 2.8h-.7l-1.9-2.4l-1.1 1.1v1.3h-.5zm6.7-4.2v-.6h.6v.6h-.6zm-1.2 0v-.6h.6v.6h-.6zm.9 4.3c-.6 0-1-.2-1.4-.6c-.3-.3-.5-.8-.5-1.3c0-.5.2-1 .5-1.3c.4-.4.8-.6 1.4-.6c.5 0 1 .2 1.3.6c.4.3.6.8.6 1.3c0 .5-.2 1-.6 1.3c-.3.4-.8.6-1.3.6zm0-.5c.4 0 .7-.1.9-.4c.3-.3.4-.6.4-1c0-.4-.1-.7-.4-1c-.2-.3-.5-.4-.9-.4c-.4 0-.7.1-1 .4c-.2.3-.3.6-.3 1c0 .4.1.7.3 1c.3.3.6.4 1 .4zm2.8.4V32h.6v.6c.1-.2.3-.4.5-.5c.1-.1.4-.2.7-.2c.5 0 .9.2 1.1.7c.3-.5.8-.7 1.3-.7c.4 0 .7.1 1 .4c.2.3.3.6.3 1.1c.03-.04 0 2.2 0 2.2h-.5v-2.1c0-.4-.1-.6-.3-.8c-.1-.2-.3-.3-.6-.3c-.3 0-.6.1-.8.3c-.1.2-.2.5-.2.8c-.04.01 0 2.1 0 2.1h-.6s.02-2.13 0-2.1c0-.4-.1-.6-.2-.8c-.2-.2-.4-.3-.7-.3c-.3 0-.5.1-.7.3c-.2.2-.3.5-.3.8v2.1h-.6zm8.5-4.2v-.6h.6v.6h-.6zm-1.2 0v-.6h.6v.6h-.6zm2 3.6c-.3.4-.8.7-1.3.7c-.4 0-.8-.2-1-.4c-.2-.3-.4-.6-.4-1.1c.03.03 0-2.2 0-2.2h.6s-.03 2.09 0 2.1c0 .3.1.6.2.8c.2.2.4.3.8.3c.3 0 .5-.1.7-.3c.2-.2.4-.5.4-.8c-.05-.05 0-2.1 0-2.1h.5v3.6h-.5v-.6s-.05-.03 0 0zm1.7.6V32h.5s.03.93 0 .9c.2-.3.4-.5.6-.7c.3-.2.6-.3.9-.3v.6s-.03 0 0 0c-.4 0-.8.1-1.1.4c-.2.3-.4.7-.4 1.3c.03-.04 0 1.4 0 1.4h-.5zm9.3-.7c-.6.5-1.2.8-2 .8c-.8 0-1.4-.3-1.8-.7c-.5-.5-.7-1.1-.7-1.8v-.1c0-.6.2-1.2.7-1.7c.5-.5 1-.8 1.8-.8c.4 0 .7.1 1 .2c.3.1.5.2.8.5l-.4.4c-.4-.4-.9-.6-1.5-.6c-.5 0-.9.2-1.3.6c-.3.4-.5.9-.5 1.4c0 .6.2 1.1.5 1.5c.4.4.8.6 1.4.6c.6 0 1-.2 1.4-.5c.03 0 0-1.2 0-1.2h-1.5v-.5h2.1v1.9s-.04.03 0 0zm1.1.7V32h.6s-.04.93 0 .9c.1-.3.3-.5.6-.7c.2-.2.5-.3.8-.3c.03.02 0 .6 0 .6c0 0-.01 0 0 0c-.4 0-.8.1-1 .4c-.3.3-.4.7-.4 1.3c-.04-.04 0 1.4 0 1.4h-.6zm2.9-4.4v-.6h.6v.6h-.6zm0 4.4V32h.5v3.6h-.5zm3 .1c-.6 0-1.1-.2-1.5-.6l.3-.3c.4.3.8.4 1.2.4c.2 0 .4 0 .6-.1c.1-.1.2-.3.2-.5c0-.1-.1-.3-.3-.4c-.1 0-.3-.1-.6-.2c-.2 0-.3-.1-.3-.1c-.1 0-.2-.1-.3-.1c-.1 0-.2-.1-.3-.1c0-.1-.1-.1-.1-.2c-.1-.1-.2-.1-.2-.2v-.3c0-.4.1-.6.3-.8c.2-.2.5-.3.9-.3c.5 0 .9.2 1.3.4l-.2.4c-.4-.2-.8-.3-1.1-.3c-.2 0-.4 0-.5.1c-.2.1-.2.2-.2.4v.2c.1 0 .1.1.2.1c0 .1.1.1.2.2h.2c.1.1.2.1.3.1c.2.1.3.1.4.1c0 .1.1.1.3.2c.1 0 .2.1.2.2c.1 0 .2.1.2.2c.1.1.1.2.1.4c0 .3-.1.6-.4.8c-.2.2-.5.3-.9.3zm2.3-4.5v-.6h.6v.6h-.6zm0 4.4V32h.6v3.6h-.6zm1.8-2.9v-.7h.6v.7h-.6zm0 2.9v-.7h.6v.7h-.6zm4.5 0v-3.8l-.8.2l-.2-.9l1.4-.4h.7v4.9h-1.1zm4.3.1c-.7 0-1.2-.3-1.6-.7c-.4-.5-.6-1.1-.6-1.8v-.1c0-.7.2-1.3.6-1.8c.4-.4 1-.7 1.6-.7c.7 0 1.2.3 1.6.7c.4.5.6 1.1.6 1.8c0 .8-.2 1.4-.6 1.9c-.4.4-1 .7-1.6.7zM49 33.1c0 .5.1.9.3 1.2c.2.3.5.4.8.4c.3 0 .6-.1.8-.4c.2-.3.3-.7.3-1.1v-.1c0-.4-.1-.8-.3-1.1c-.2-.3-.5-.4-.8-.4c-.3 0-.6.1-.8.4c-.2.3-.3.7-.3 1.1c.03.04 0 0 0 0c0 0 .03.05 0 0zm4.9 2.5v-3.8l-.9.2l-.2-.9l1.4-.4h.7v4.9h-1zm4.1.1c-.6 0-1.1-.2-1.5-.5c-.3-.4-.5-1-.5-1.9c0-.8.1-1.4.5-1.9c.4-.5.9-.8 1.6-.8c.6 0 1.1.2 1.5.6l-.5.8c-.2-.1-.4-.2-.5-.3c-.2-.1-.3-.1-.5-.1c-.2 0-.4 0-.5.1l-.3.3c-.1.1-.1.3-.1.4c-.1.1-.1.2-.1.3c.3-.2.6-.3 1-.3c.5 0 .9.2 1.2.4c.4.3.5.7.5 1.2c0 .5-.2.9-.5 1.2c-.4.3-.8.5-1.3.5zm-.9-1.7c0 .2 0 .4.2.6c.1.1.3.2.6.2c.3 0 .5-.1.6-.2c.2-.2.3-.3.3-.6c0-.2-.1-.4-.3-.5c-.1-.1-.3-.2-.6-.2c-.3 0-.5.1-.6.2c-.2.1-.2.3-.2.5c-.04.02 0 0 0 0c0 0-.04.03 0 0zm5.3 1.7c-.5 0-1-.2-1.3-.4c-.4-.3-.6-.6-.6-1v-.1c0-.2.1-.5.2-.7c.1-.2.3-.3.6-.4c-.4-.3-.6-.6-.6-1.1c0-.4.2-.7.5-1c.3-.2.7-.4 1.2-.4c.5 0 .9.2 1.3.4c.3.3.4.6.4 1c0 .5-.2.8-.6 1.1c.3.1.5.3.6.4c.1.2.2.4.2.7c0 .5-.2.8-.5 1.1c-.4.2-.8.4-1.4.4zm-.7-3.6c0 .2.1.3.2.4c.1.1.3.2.5.2c.2 0 .4-.1.5-.2c.2-.1.2-.2.2-.4c0-.2 0-.3-.2-.4c-.1-.1-.3-.2-.5-.2c-.2 0-.4.1-.5.2c-.1.1-.2.2-.2.4c.02-.01 0 0 0 0c0 0 .02 0 0 0zm.7 2.7c.3 0 .5-.1.6-.2c.2-.1.3-.3.3-.4c0-.2-.1-.4-.3-.5c-.1-.1-.3-.1-.6-.1c-.2 0-.4 0-.6.1c-.2.1-.2.3-.2.5c0 .1 0 .3.2.4c.2.1.4.2.6.2zm4.4.9c-.5 0-1-.2-1.3-.4c-.4-.3-.6-.6-.6-1v-.1c0-.2.1-.5.2-.7c.2-.2.4-.3.6-.4c-.4-.3-.6-.6-.6-1.1c0-.4.2-.7.5-1c.3-.2.7-.4 1.2-.4c.5 0 1 .2 1.3.4c.3.3.5.6.5 1c0 .5-.3.8-.7 1.1c.3.1.5.3.6.4c.2.2.2.4.2.7c0 .5-.2.8-.5 1.1c-.4.2-.8.4-1.4.4zm-.7-3.6c0 .2.1.3.2.4c.1.1.3.2.5.2c.2 0 .4-.1.5-.2c.2-.1.2-.2.2-.4c0-.2 0-.3-.2-.4c-.1-.1-.3-.2-.5-.2c-.2 0-.4.1-.5.2c-.1.1-.2.2-.2.4c.03-.01 0 0 0 0c0 0 .03 0 0 0zm.7 2.7c.3 0 .5-.1.6-.2c.2-.1.3-.3.3-.4c0-.2-.1-.4-.3-.5c-.1-.1-.3-.1-.6-.1c-.2 0-.4 0-.6.1c-.1.1-.2.3-.2.5c0 .1.1.3.2.4c.2.1.4.2.6.2zm4.4.9c-.8 0-1.4-.3-1.9-.9l.7-.7c.4.4.8.6 1.2.6c.2 0 .4 0 .5-.1c.2-.2.2-.3.2-.5c0-.2-.1-.3-.2-.5c-.2-.1-.4-.1-.7-.1h-.5l-.2-.7l1.2-1.2h-1.9v-.9h3.3v.8s-1.24 1.19-1.2 1.2c.8.1 1.3.6 1.3 1.4c0 .5-.2.8-.5 1.1c-.3.3-.8.5-1.3.5zm2.5-1.8v-1h2.2v1h-2.2zm3.6 1.7v-3.8l-.9.2l-.2-.9l1.4-.4h.7v4.9h-1zm4.5 0v-1.1h-2.4l-.2-.7l2.7-3.1h.9v3h.7v.8h-.7v1.1h-1zm-1.3-1.9h1.3v-1.6l-1.3 1.6zm4.3.6c.4.3.7.4 1.1.4c.2 0 .4-.1.5-.2c.2-.1.3-.3.4-.4c0-.2.1-.3.1-.5c-.3.2-.6.3-1 .3c-.6 0-1-.1-1.3-.4c-.3-.3-.5-.7-.5-1.2c0-.5.2-.9.5-1.2c.4-.3.8-.5 1.4-.5c.3 0 .6.1.8.1c.2.1.4.3.6.4c.4.4.6 1.1.6 1.9c0 .8-.2 1.5-.6 2c-.3.4-.9.7-1.6.7c-.6 0-1.1-.2-1.6-.6c.04 0 .6-.8.6-.8c0 0 0-.02 0 0zM86 33c.3 0 .5 0 .7-.2c.1-.1.2-.3.2-.5c0-.2-.1-.4-.2-.6c-.2-.1-.4-.2-.7-.2c-.2 0-.4.1-.6.2c-.1.2-.2.4-.2.6c0 .2.1.4.2.5c.2.2.4.2.6.2z" stroke="none" fill="#000"/></g><g id="Polygon409182"><path d="m.7 25.6v-4.9h2.1c.6 0 1.1.2 1.4.5c.2.2.4.6.4 1c0 .4-.2.7-.4.9c-.2.3-.6.4-1 .5c.04 0 1.5 2 1.5 2h-.6l-1.5-1.9H1.2v1.9h-.5zm.5-2.4h1.6c.3 0 .6-.1.9-.3c.2-.2.3-.4.3-.7c0-.3-.1-.6-.3-.7c-.2-.2-.5-.3-.9-.3H1.2v2zM8.7 25c-.4.5-.9.7-1.5.7c-.5 0-1-.2-1.3-.5c-.4-.4-.5-.8-.5-1.4c0-.5.1-1 .5-1.4c.3-.3.7-.5 1.2-.5c.5 0 .9.2 1.2.5c.3.4.5.9.5 1.4v.2H5.9c.1.4.2.7.4.9c.3.2.6.3.9.3c.4 0 .8-.2 1.1-.5c.03 0 .4.3.4.3c0 0-.03 0 0 0zm-2.8-1.4h2.3c0-.4-.1-.7-.3-.9c-.2-.2-.5-.3-.8-.3c-.3 0-.6.1-.8.3c-.2.2-.3.5-.4.9zm3.8 2V22h.6s-.02.61 0 .6c.3-.5.7-.7 1.2-.7c.4 0 .8.1 1 .4c.3.3.4.6.4 1.1v2.2h-.5s-.04-2.11 0-2.1c0-.4-.1-.6-.3-.8c-.2-.2-.4-.3-.7-.3c-.4 0-.6.1-.8.3c-.2.2-.3.5-.3.8c-.02.03 0 2.1 0 2.1h-.6zm4.3 0v-5.1h.6v3.5l1.9-2h.7l-1.5 1.5l1.6 2.1h-.7l-1.3-1.7l-.7.8v.9h-.6zm5.4.9l3.2-6.5h.5l-3.2 6.5h-.5zm8.8-6.2v-.7h.6v.7h-.6zm-1.3 0v-.7h.6v.7h-.6zm.9 5.4c-.6 0-1.1-.2-1.4-.6c-.4-.4-.6-.9-.6-1.6v-2.8h.6s-.05 2.81 0 2.8c0 .5.1.9.3 1.2c.3.3.7.5 1.2.5c.4 0 .8-.2 1-.4c.3-.3.4-.7.4-1.3c.03.05 0-2.8 0-2.8h.6s-.02 2.81 0 2.8c0 .7-.2 1.2-.6 1.6c-.3.4-.8.6-1.5.6zm3.3-.1V22h.5s.04.93 0 .9c.2-.3.4-.5.6-.7c.3-.2.6-.3.9-.3c.02.02 0 .6 0 .6c0 0-.03 0 0 0c-.4 0-.8.1-1.1.4c-.2.3-.4.7-.4 1.3c.04-.04 0 1.4 0 1.4h-.5zm4.7-4.2v-.6h.6v.6h-.6zm-1.3 0v-.6h.7v.6h-.7zm2 3.6c-.3.4-.7.7-1.2.7c-.5 0-.8-.2-1-.4c-.3-.3-.4-.6-.4-1.1c-.02.03 0-2.2 0-2.2h.5s.02 2.09 0 2.1c0 .3.1.6.3.8c.2.2.4.3.7.3c.3 0 .6-.1.8-.3c.2-.2.3-.5.3-.8V22h.5v3.6h-.5v-.6s0-.03 0 0zm1.7.6V22h.6v.6c.3-.5.7-.7 1.2-.7c.5 0 .8.1 1 .4c.3.3.4.6.4 1.1c.01-.05 0 2.2 0 2.2h-.5s-.03-2.11 0-2.1c0-.4-.1-.6-.3-.8c-.2-.2-.4-.3-.7-.3c-.3 0-.6.1-.8.3c-.2.2-.3.5-.3.8v2.1h-.6zm6.6 0v-4.9h.5v2.9l2.8-2.9h.7l-2.1 2.1l2.2 2.8h-.7l-1.9-2.4l-1 1.1v1.3h-.5zm6.3.1c-.5 0-.9-.2-1.3-.6c-.4-.3-.5-.8-.5-1.3c0-.5.1-1 .5-1.3c.4-.4.8-.6 1.3-.6c.6 0 1 .2 1.4.6c.4.3.5.8.5 1.3c0 .5-.1 1-.5 1.3c-.4.4-.8.6-1.4.6zm0-.5c.4 0 .7-.1 1-.4c.3-.3.4-.6.4-1c0-.4-.2-.7-.4-1c-.3-.3-.6-.4-1-.4c-.3 0-.7.1-.9.4c-.3.3-.4.6-.4 1c0 .4.1.7.4 1c.3.3.6.4.9.4zm5.8-.3c-.4.5-.8.8-1.4.8c-.4 0-.8-.2-1.2-.5c-.3-.4-.5-.8-.5-1.4c0-.6.2-1 .5-1.4c.4-.3.8-.5 1.2-.5c.6 0 1.1.3 1.4.8c.01-.03 0-2.2 0-2.2h.5v5.1h-.5v-.7s.01-.03 0 0zm-1.3.3c.4 0 .7-.1.9-.4c.3-.3.4-.6.4-1c0-.4-.1-.8-.4-1c-.2-.3-.5-.4-.9-.4c-.3 0-.6.1-.9.4c-.2.2-.4.6-.4 1c0 .4.2.8.4 1c.3.3.6.4.9.4zm5.6-.2c-.3.4-.7.7-1.2.7c-.4 0-.8-.2-1-.4c-.3-.3-.4-.6-.4-1.1V22h.5s.04 2.09 0 2.1c0 .3.1.6.3.8c.2.2.4.3.7.3c.3 0 .6-.1.8-.3c.2-.2.3-.5.3-.8c.02-.05 0-2.1 0-2.1h.6v3.6h-.6v-.6s.02-.03 0 0z" stroke="none" fill="#000"/></g><g id="Polygon409181"><path d="m4.8 3.5c0 .7-.2 1.2-.6 1.6c-.4.4-.9.6-1.6.6c-.6 0-1.2-.2-1.5-.6c-.4-.3-.6-.9-.6-1.6V.7h1.1v2.8c0 .4.1.7.3.9c.1.2.4.3.7.3c.4 0 .6-.1.8-.3c.2-.2.3-.5.3-.9V.7h1.1v2.8s-.02-.04 0 0zm1.1 2.1V.7h1.9c.8 0 1.4.2 1.9.7c.5.5.7 1 .7 1.7c0 .7-.2 1.3-.7 1.8c-.5.5-1.1.7-1.9.7H5.9zm1.9-3.9c-.01-.03-.8 0-.8 0v2.9s.79.03.8 0c.4 0 .8-.1 1.1-.4c.2-.2.4-.6.4-1v-.1c0-.4-.2-.7-.4-1c-.3-.3-.7-.4-1.1-.4zm3.6 3.9V.7h2.2c.6 0 1.1.2 1.4.5c.3.3.4.7.4 1.1c0 .8-.3 1.3-1 1.5c-.01.05 1.2 1.8 1.2 1.8h-1.3l-1-1.6h-.9v1.6h-1zm1-2.5s1.12-.02 1.1 0c.3 0 .5-.1.6-.2c.2-.1.2-.3.2-.5c0-.3 0-.4-.2-.5c-.1-.2-.3-.2-.6-.2c0-.03-1.1 0-1.1 0v1.4zm5.2 2.5V3.7l-1.9-3h1.3l1.2 2l1.2-2h1.2l-1.9 2.9v2h-1.1zm10.7-2.5c0 .8-.2 1.4-.7 1.8c-.5.5-1.1.8-1.9.8c-.7 0-1.3-.3-1.8-.7c-.5-.5-.8-1.1-.8-1.8v-.1c0-.7.3-1.3.8-1.7c.5-.5 1.1-.8 1.8-.8c.8 0 1.4.3 1.9.7c.5.5.7 1.1.7 1.8c.04.04 0 0 0 0c0 0 .04.05 0 0zm-4 0c0 .5.1.8.4 1.1c.3.3.6.5 1 .5c.5 0 .8-.2 1.1-.5c.3-.2.4-.6.4-1v-.1c0-.4-.1-.7-.4-1c-.3-.3-.6-.5-1.1-.5c-.4 0-.7.2-1 .5c-.3.2-.4.6-.4 1c-.04.04 0 0 0 0c0 0-.04.05 0 0zm6.2 2.5L28.6.7h1.2L31 4.2L32.3.7h1.2l-2 4.9h-1zm3.7 0V.7h3.7v1h-2.6v1h2.3v.9h-2.3v1h2.7v1h-3.8zm4.7 0V.7h2.3c.6 0 1.1.2 1.4.5c.3.3.4.7.4 1.1c0 .8-.3 1.3-1 1.5c-.04.05 1.2 1.8 1.2 1.8h-1.3l-1-1.6h-.9v1.6h-1.1zM40 3.1s1.1-.02 1.1 0c.3 0 .5-.1.6-.2c.2-.1.2-.3.2-.5c0-.3-.1-.4-.2-.5c-.1-.2-.4-.2-.6-.2c-.02-.03-1.1 0-1.1 0v1.4zm7.2 2.5V1.7h-1.5v-1h4.1v1h-1.5v3.9h-1.1zm3.4 0V.7h1.1v1.9h2V.7h1.1v4.9h-1.1v-2h-2v2h-1.1zm5.3 0V.7h3.7v1H57v1h2.3v.9H57v1h2.7v1h-3.8zm8.6.1c-.8 0-1.5-.3-2.1-.8l.6-.8c.5.4 1 .6 1.5.6c.2 0 .4 0 .5-.1c.1-.1.2-.2.2-.3v-.1c0-.1-.1-.2-.2-.3c-.1-.1-.4-.2-.8-.3c-.3-.1-.5-.1-.7-.2c-.1-.1-.3-.1-.5-.3c-.1-.1-.2-.2-.3-.4c-.1-.1-.1-.3-.1-.6c0-.4.2-.8.5-1.1c.3-.2.7-.4 1.2-.4c.7 0 1.3.2 1.8.7l-.5.8c-.5-.4-.9-.5-1.3-.5c-.2 0-.4 0-.5.1c-.1.1-.1.2-.1.3c0 .2 0 .3.2.4c.1.1.4.2.8.3c.6.1.9.3 1.2.5c.2.2.4.5.4.9v.1c0 .4-.2.8-.5 1.1c-.3.2-.8.4-1.3.4zm2.8-.1V.7h1v4.9h-1zm2.3 0V.7h1l2.3 3v-3h1v4.9h-.9l-2.4-3.1v3.1h-1zm5.5 0V.7h1.1v2.1L78.1.7h1.4l-2 2.1l2.1 2.8h-1.3l-1.6-2.1l-.5.6v1.5h-1.1zm7-1.7v-1h3v1h-3zm6 1.7V.7h2.3c.5 0 1 .1 1.3.4c.2.3.3.5.3.9c0 .5-.2.8-.7 1c.4.2.6.3.7.5c.2.2.3.4.3.7v.1c0 .4-.2.7-.5 1c-.4.2-.8.3-1.4.3h-2.3zm2-2.9c.6 0 .8-.2.8-.5v-.1c0-.3-.2-.5-.7-.5c.02.04-1 0-1 0v1.1h.9s.05-.02 0 0zm.3 2c.5 0 .8-.2.8-.6c0-.3-.3-.5-.8-.5c0-.02-1.2 0-1.2 0v1.1h1.2s.03-.05 0 0zm5 .4c-.3.4-.7.6-1.1.6c-.4 0-.7-.2-1-.4c-.2-.2-.3-.6-.3-1c.02-.02 0-2.5 0-2.5h1.1s-.02 2.14 0 2.1c0 .5.2.8.6.8c.2 0 .4-.1.5-.2c.1-.1.2-.3.2-.6V1.8h1.1v3.8h-1.1v-.5s-.01-.03 0 0zm2.1.5V.5h1v5.1h-1zm4.2-.4c-.3.3-.6.5-1.1.5c-.4 0-.7-.1-.9-.3c-.3-.2-.4-.5-.4-.9c0-.4.1-.7.4-.9c.3-.2.6-.3 1.1-.3c.3 0 .6.1.9.2v-.1c0-.5-.2-.7-.8-.7c-.3 0-.7.1-1 .2l-.3-.8c.5-.2 1-.3 1.5-.3c.5 0 1 .1 1.2.4c.3.3.4.7.4 1.2c.04.02 0 2.2 0 2.2h-1v-.4s.02-.01 0 0zm-.8-.3c.3 0 .5 0 .6-.1c.2-.2.2-.3.2-.5v-.2c-.2-.1-.4-.2-.6-.2c-.3 0-.5.1-.6.2c-.1.1-.2.2-.2.4c0 .1.1.2.2.3c.1.1.2.1.4.1zm3.9 1.9l-.9-.4s.61-.78.6-.8c-.4-.1-.8-.2-1.1-.5l.4-.7c.4.3.8.5 1.2.5c.3 0 .5-.1.5-.3c0-.1-.1-.1-.1-.1v-.1c-.1 0-.1 0-.1-.1h-.1c-.1 0-.1-.1-.2-.1h-.2l-.1-.1c-.2 0-.3-.1-.4-.1c-.1-.1-.3-.1-.4-.2c-.1-.1-.2-.2-.2-.3c-.1-.2-.1-.3-.1-.5c0-.4.1-.7.3-.9c.3-.2.6-.3 1-.3c.5 0 1 .1 1.4.4l-.4.8c-.4-.3-.7-.4-1-.4c-.1 0-.2 0-.3.1c-.1 0-.1.1-.1.2c0 .1.1.1.2.2c.1.1.3.2.6.2c.1.1.3.1.4.2c.1 0 .2.1.3.2c.2.1.2.2.3.3c.1.1.1.3.1.4v.1c0 .3-.1.6-.3.8c-.2.2-.5.3-.8.3c.01.05-.5 1.2-.5 1.2zm2.4-1.2V1.8h1.1v3.8h-1.1zm2.1 0V.5h1.1v2.7l1.2-1.4h1.3l-1.5 1.5l1.5 2.3h-1.2l-1-1.5l-.3.4v1.1h-1.1zm4.2 0V.5h1v5.1h-1zm2.1 0V1.8h1.1v3.8h-1.1zm2.1 0V.5h1v2.7l1.3-1.4h1.2l-1.4 1.5l1.5 2.3h-1.2l-1-1.5l-.4.4v1.1h-1zm7.5-.7V3.6h-1.3v-.9h1.3V1.4h1v1.3h1.2v.9h-1.2v1.3h-1zm5.4.7V.7h1.1v2.1l1.9-2.1h1.4l-2 2.1l2.1 2.8h-1.3l-1.6-2.1l-.5.6v1.5h-1.1zm7.2-.5c-.3.4-.7.6-1.1.6c-.4 0-.7-.2-.9-.4c-.3-.2-.4-.6-.4-1c.03-.02 0-2.5 0-2.5h1.1v2.1c0 .5.2.8.6.8c.2 0 .4-.1.5-.2c.1-.1.2-.3.2-.6V1.8h1.1v3.8h-1.1v-.5s0-.03 0 0zm2 .5V1.8h1.1s-.02.8 0 .8c.2-.6.6-.8 1.2-.8c-.02-.02 0 1.1 0 1.1h-.1c-.3 0-.6.1-.8.3c-.2.2-.3.6-.3 1c-.02.01 0 1.4 0 1.4h-1.1zm5.3-.5c-.3.4-.7.6-1.1.6c-.4 0-.7-.2-1-.4c-.2-.2-.3-.6-.3-1c.01-.02 0-2.5 0-2.5h1.1s-.02 2.14 0 2.1c0 .5.2.8.6.8c.2 0 .4-.1.5-.2c.1-.1.2-.3.2-.6V1.8h1.1v3.8h-1.1v-.5s-.01-.03 0 0zm4.1.3c-.2.2-.5.3-.8.3c-.4 0-.6-.1-.8-.3c-.2-.2-.3-.5-.3-.9c-.02.04 0-1.7 0-1.7h-.5v-1h.5v-.9h1v.9h.9v1h-.9s.04 1.56 0 1.6c0 .2.2.3.4.3c.2 0 .4 0 .5-.1v.8s.01.05 0 0zm.8.2V1.8h1.1s-.03.58 0 .6c.3-.4.7-.6 1.1-.6c.5 0 .8.2 1 .6c.4-.4.8-.6 1.3-.6c.4 0 .7.1.9.3c.2.3.3.6.3 1.1c.03-.04 0 2.4 0 2.4h-1s-.03-2.09 0-2.1c0-.5-.2-.8-.7-.8c-.2 0-.3.1-.4.2c-.1.2-.2.4-.2.6v2.1h-1.1s.04-2.09 0-2.1c0-.5-.2-.8-.6-.8c-.2 0-.3.1-.5.2c-.1.2-.1.4-.1.6c-.03.01 0 2.1 0 2.1H150zm8.9-.4c-.3.3-.7.5-1.2.5c-.3 0-.7-.1-.9-.3c-.2-.2-.4-.5-.4-.9c0-.4.2-.7.4-.9c.3-.2.7-.3 1.1-.3c.3 0 .7.1 1 .2v-.1c0-.5-.3-.7-.8-.7c-.4 0-.7.1-1.1.2l-.2-.8c.4-.2.9-.3 1.4-.3c.6 0 1 .1 1.3.4c.2.3.4.7.4 1.2c-.01.02 0 2.2 0 2.2h-1v-.4s-.04-.01 0 0zm-.9-.3c.3 0 .5 0 .6-.1c.2-.2.3-.3.3-.5v-.2c-.2-.1-.5-.2-.7-.2c-.2 0-.4.1-.5.2c-.2.1-.2.2-.2.4c0 .1 0 .2.1.3c.1.1.3.1.4.1zm5 .7V.7h1.2l1.3 2.1l1.3-2.1h1.1v4.9h-1.1V2.4l-1.3 2.1h-.1l-1.3-2.1v3.2H163zm8.2-.4c-.3.3-.7.5-1.2.5c-.3 0-.6-.1-.9-.3c-.2-.2-.3-.5-.3-.9c0-.4.1-.7.4-.9c.2-.2.6-.3 1.1-.3c.3 0 .6.1.9.2v-.1c0-.5-.3-.7-.8-.7c-.4 0-.7.1-1.1.2l-.2-.8c.4-.2.9-.3 1.4-.3c.6 0 1 .1 1.3.4c.3.3.4.7.4 1.2v2.2h-1v-.4s-.02-.01 0 0zm-.8-.3c.2 0 .4 0 .6-.1c.1-.2.2-.3.2-.5v-.2c-.2-.1-.4-.2-.7-.2c-.2 0-.4.1-.5.2c-.2.1-.2.2-.2.4c0 .1 0 .2.1.3c.2.1.3.1.5.1zm4.8.5c-.2.2-.5.3-.8.3c-.4 0-.7-.1-.9-.3c-.1-.2-.2-.5-.2-.9c-.04.04 0-1.7 0-1.7h-.5v-1h.5v-.9h1v.9h.9v1h-.9s.03 1.56 0 1.6c0 .2.1.3.4.3c.2 0 .3 0 .5-.1v.8s-.01.05 0 0zm.8.2V1.8h1.1v3.8H176zm6.6.3l-.5.7c-.7-.4-1.2-.8-1.5-1.3c-.3-.5-.5-1-.5-1.7c0-.7.2-1.3.5-1.7c.3-.5.8-1 1.5-1.3l.5.7c-.5.3-.9.7-1.1 1c-.2.4-.3.8-.3 1.3c0 .5.1.9.3 1.3c.2.3.6.7 1.1 1zm.8-.3V.7h1.1v3.9h2.5v1h-3.6zm6.5-.4c-.3.3-.7.5-1.2.5c-.4 0-.7-.1-.9-.3c-.2-.2-.4-.5-.4-.9c0-.4.2-.7.4-.9c.3-.2.7-.3 1.1-.3c.3 0 .7.1 1 .2v-.1c0-.5-.3-.7-.8-.7c-.4 0-.7.1-1.1.2l-.2-.8c.4-.2.9-.3 1.4-.3c.6 0 1 .1 1.3.4c.2.3.4.7.4 1.2c-.02.02 0 2.2 0 2.2h-1v-.4s-.05-.01 0 0zm-.9-.3c.3 0 .5 0 .6-.1c.2-.2.3-.3.3-.5v-.2c-.2-.1-.5-.2-.7-.2c-.2 0-.4.1-.5.2c-.2.1-.2.2-.2.4c0 .1 0 .2.1.3c.1.1.3.1.4.1zm3.8.7l-1.5-3.8h1.1l.9 2.6l.8-2.6h1.1l-1.4 3.8h-1zm5.1-.4c-.3.3-.7.5-1.2.5c-.3 0-.6-.1-.9-.3c-.2-.2-.3-.5-.3-.9c0-.4.1-.7.4-.9c.2-.2.6-.3 1.1-.3c.3 0 .6.1.9.2v-.1c0-.5-.3-.7-.8-.7c-.4 0-.7.1-1.1.2l-.2-.8c.5-.2.9-.3 1.4-.3c.6 0 1 .1 1.3.4c.3.3.4.7.4 1.2c.01.02 0 2.2 0 2.2h-1v-.4s-.02-.01 0 0zm-.8-.3c.2 0 .4 0 .6-.1c.1-.2.2-.3.2-.5v-.2c-.2-.1-.4-.2-.7-.2c-.2 0-.4.1-.5.2c-.1.1-.2.2-.2.4c0 .1 0 .2.1.3c.2.1.3.1.5.1zm5 .8c-.5 0-.9-.2-1.2-.6v.5h-1.1V.5h1.1v1.9c.3-.4.7-.6 1.2-.6c.4 0 .8.2 1.2.5c.3.3.5.8.5 1.4c0 .6-.2 1.1-.5 1.4c-.4.4-.8.6-1.2.6zm-1.2-2c0 .3.1.6.2.8c.2.2.4.3.7.3c.2 0 .5-.1.6-.3c.2-.2.3-.5.3-.8c0-.3-.1-.5-.3-.7c-.1-.2-.4-.3-.6-.3c-.3 0-.5.1-.7.3c-.1.2-.2.4-.2.7c-.02.02 0 0 0 0c0 0-.02.03 0 0zm5.5 2c-.6 0-1.1-.2-1.4-.6c-.4-.3-.6-.8-.6-1.4c0-.5.2-1 .6-1.4c.3-.3.8-.5 1.4-.5c.6 0 1.1.2 1.4.5c.4.4.6.9.6 1.4c0 .6-.2 1-.6 1.4c-.3.4-.8.6-1.4.6zm0-.9c.3 0 .5-.1.7-.3c.2-.2.3-.5.3-.8c0-.3-.1-.5-.3-.7c-.2-.2-.4-.3-.7-.3c-.3 0-.5.1-.7.3c-.2.2-.3.4-.3.7c0 .3.1.6.3.8c.2.2.4.3.7.3zm9.2-1.3c0 .7-.2 1.2-.6 1.6c-.3.4-.9.6-1.5.6c-.7 0-1.2-.2-1.6-.6c-.4-.3-.6-.9-.6-1.6c.03 0 0-2.8 0-2.8h1.1v2.8c0 .4.1.7.3.9c.2.2.4.3.8.3c.3 0 .6-.1.7-.3c.2-.2.3-.5.3-.9c.03.01 0-2.8 0-2.8h1.1v2.8s0-.04 0 0zM213.7.3v-.9h1v.9h-1zm-1.5 0v-.9h1v.9h-1zm5.7 5.4c-.6 0-1.1-.2-1.6-.6l.5-.7c.4.3.8.5 1.1.5c.3 0 .5-.1.5-.3v-.1c0-.1-.1-.1-.1-.1c0 0-.1 0-.1-.1h-.1c-.1 0-.1-.1-.2-.1h-.1c-.1 0-.2-.1-.2-.1c-.1 0-.3-.1-.4-.1c-.1-.1-.2-.1-.3-.2c-.2-.1-.3-.2-.3-.3c-.1-.2-.1-.3-.1-.5c0-.4.1-.7.4-.9c.2-.2.6-.3 1-.3c.5 0 .9.1 1.4.4l-.4.8c-.4-.3-.8-.4-1.1-.4c-.1 0-.2 0-.3.1c0 0-.1.1-.1.2c0 .1.1.1.2.2c.2.1.4.2.6.2c.2.1.3.1.4.2c.1 0 .2.1.4.2c.1.1.2.2.2.3c.1.1.1.3.1.4v.1c0 .4-.1.7-.4.9c-.2.2-.6.3-1 .3zm4.2-.3c-.2.2-.5.3-.8.3c-.3 0-.6-.1-.8-.3c-.2-.2-.3-.5-.3-.9c.01.04 0-1.7 0-1.7h-.4v-1h.4v-.9h1.1v.9h.9v1h-.9s-.03 1.56 0 1.6c0 .2.1.3.3.3c.2 0 .4 0 .5-.1c.04-.01 0 .8 0 .8c0 0 .04.05 0 0zm3.2-.3c-.3.4-.7.6-1.1.6c-.4 0-.7-.2-1-.4c-.2-.2-.3-.6-.3-1c.01-.02 0-2.5 0-2.5h1.1s-.02 2.14 0 2.1c0 .5.2.8.6.8c.2 0 .4-.1.5-.2c.1-.1.2-.3.2-.6V1.8h1v3.8h-1v-.5s-.01-.03 0 0zm-.5-3.7v-.9h1.1v.9h-1.1zm-1.4 0v-.9h1v.9h-1zm4.2 5.2l-.5-.7c.5-.3.8-.7 1.1-1c.2-.4.3-.8.3-1.3c0-.5-.1-.9-.3-1.3c-.3-.3-.6-.7-1.1-1l.5-.7c.6.3 1.1.8 1.4 1.3c.4.4.5 1 .5 1.7c0 .7-.1 1.2-.5 1.7c-.3.5-.8.9-1.4 1.3z" stroke="none" fill="#000"/></g></svg>