<?xml version="1.0" standalone="no"?><!DOCTYPE svg PUBLIC "-//W3C//DTD SVG 1.1//EN" "http://www.w3.org/Graphics/SVG/1.1/DTD/svg11.dtd"><svg xmlns="http://www.w3.org/2000/svg" version="1.1" width="150px" height="16.4px" viewBox="0 -3 150 16.4" style="top:-3px"><desc>1018114 048</desc><defs/><g id="Polygon394700"><path d="m1.2 5.6V1.8L.4 2l-.2-.9L1.6.7h.7v4.9H1.2zm4.3.1c-.6 0-1.2-.3-1.6-.7c-.4-.5-.6-1.1-.6-1.8v-.1c0-.7.2-1.3.6-1.8c.4-.4 1-.7 1.6-.7c.7 0 1.2.3 1.6.7c.4.5.6 1.1.6 1.8c0 .8-.2 1.4-.6 1.9c-.4.4-1 .7-1.6.7zM4.4 3.1c0 .5.1.9.3 1.2c.2.3.5.4.8.4c.3 0 .6-.1.8-.4c.2-.3.3-.7.3-1.1v-.1c0-.4-.1-.8-.3-1.1c-.2-.3-.5-.4-.8-.4c-.3 0-.6.1-.8.4c-.2.3-.3.7-.3 1.1c.04.04 0 0 0 0c0 0 .04.05 0 0zm4.9 2.5V1.8l-.9.2l-.2-.9L9.6.7h.7v4.9h-1zm3.9.1c-.6 0-1-.2-1.4-.4c-.3-.3-.5-.6-.5-1v-.1c0-.2.1-.5.2-.7c.1-.2.3-.3.6-.4c-.4-.3-.6-.6-.6-1.1c0-.4.1-.7.4-1c.4-.2.8-.4 1.3-.4c.5 0 .9.2 1.2.4c.4.3.5.6.5 1c0 .5-.2.8-.6 1.1c.3.1.5.3.6.4c.1.2.2.4.2.7c0 .5-.2.8-.6 1.1c-.3.2-.8.4-1.3.4zm-.7-3.6c0 .2.1.3.2.4c.1.1.3.2.5.2c.2 0 .4-.1.5-.2c.1-.1.2-.2.2-.4c0-.2-.1-.3-.2-.4c-.1-.1-.3-.2-.5-.2c-.2 0-.4.1-.5.2c-.1.1-.2.2-.2.4c-.01-.01 0 0 0 0c0 0-.01 0 0 0zm.7 2.7c.2 0 .5-.1.6-.2c.2-.1.2-.3.2-.4c0-.2 0-.4-.2-.5c-.2-.1-.4-.1-.6-.1c-.3 0-.5 0-.6.1c-.2.1-.3.3-.3.5c0 .1.1.3.3.4c.1.1.3.2.6.2zm3.4.8V1.8l-.8.2l-.2-.9L17 .7h.7v4.9h-1.1zm3 0V1.8l-.9.2l-.2-.9l1.4-.4h.8v4.9h-1.1zm4.5 0V4.5h-2.4l-.2-.7L24.2.7h.9v3h.7v.8h-.7v1.1h-1zm-1.3-1.9h1.3V2.1l-1.3 1.6zm3.7.2v-1h2.1v1h-2.1zm5 1.8c-.6 0-1.1-.3-1.5-.7c-.4-.5-.6-1.1-.6-1.8v-.1c0-.7.2-1.3.6-1.8c.4-.4.9-.7 1.5-.7c.7 0 1.2.3 1.6.7c.4.5.6 1.1.6 1.8c0 .8-.2 1.4-.6 1.9c-.4.4-.9.7-1.6.7zm-1-2.6c0 .5.1.9.3 1.2c.2.3.4.4.7.4c.4 0 .6-.1.8-.4c.2-.3.3-.7.3-1.1v-.1c0-.4-.1-.8-.3-1.1c-.2-.3-.5-.4-.8-.4c-.3 0-.5.1-.7.4c-.2.3-.3.7-.3 1.1c-.04.04 0 0 0 0c0 0-.04.05 0 0zm6.4 2.5V4.5h-2.4l-.2-.7L37 .7h.9v3h.7v.8h-.7v1.1h-1zm-1.3-1.9h1.3V2.1l-1.3 1.6zm5.5 2c-.5 0-1-.2-1.3-.4c-.4-.3-.6-.6-.6-1v-.1c0-.2.1-.5.2-.7c.1-.2.3-.3.6-.4c-.4-.3-.6-.6-.6-1.1c0-.4.2-.7.5-1c.3-.2.7-.4 1.2-.4c.5 0 .9.2 1.3.4c.3.3.4.6.4 1c0 .5-.2.8-.6 1.1c.3.1.5.3.6.4c.1.2.2.4.2.7c0 .5-.2.8-.5 1.1c-.4.2-.8.4-1.4.4zm-.7-3.6c0 .2.1.3.2.4c.1.1.3.2.5.2c.2 0 .4-.1.5-.2c.2-.1.2-.2.2-.4c0-.2 0-.3-.2-.4c-.1-.1-.3-.2-.5-.2c-.2 0-.4.1-.5.2c-.1.1-.2.2-.2.4c.02-.01 0 0 0 0c0 0 .02 0 0 0zm.7 2.7c.3 0 .5-.1.6-.2c.2-.1.3-.3.3-.4c0-.2-.1-.4-.3-.5c-.1-.1-.3-.1-.6-.1c-.2 0-.4 0-.6.1c-.2.1-.2.3-.2.5c0 .1 0 .3.2.4c.2.1.4.2.6.2z" stroke="none" fill="#000"/></g></svg>