<?xml version="1.0" standalone="no"?><!DOCTYPE svg PUBLIC "-//W3C//DTD SVG 1.1//EN" "http://www.w3.org/Graphics/SVG/1.1/DTD/svg11.dtd"><svg xmlns="http://www.w3.org/2000/svg" version="1.1" width="165.3px" height="119.4px" viewBox="0 -3 165.3 119.4" style="top:-3px"><desc>BUDDY – Kap Stoperi (2’li Set) r n Kodu: 1013767 149 Renk / Antrasit Kal p kap stoperi, 2’li set. Tasar m: Sung wo...</desc><defs/><g id="Polygon386118"><path d="m.7 95.6v-4.9h.5v2.2h2.9v-2.2h.5v4.9h-.5v-2.2H1.2v2.2h-.5zM9 95c-.4.5-.9.7-1.5.7c-.5 0-.9-.2-1.3-.5c-.3-.4-.5-.8-.5-1.4c0-.5.2-1 .5-1.4c.3-.3.7-.5 1.2-.5c.6 0 1 .2 1.3.5c.3.4.4.9.4 1.4v.2H6.2c.1.4.2.7.5.9c.2.2.5.3.8.3c.4 0 .8-.2 1.2-.5c-.04 0 .3.3.3.3c0 0-.01 0 0 0zm-2.8-1.4h2.4c-.1-.4-.2-.7-.4-.9c-.2-.2-.4-.3-.8-.3c-.3 0-.6.1-.8.3c-.2.2-.3.5-.4.9zm3.9 2V92h.5v.9c.1-.3.3-.5.6-.7c.3-.2.6-.3.9-.3c-.02.02 0 .6 0 .6h-.1c-.4 0-.7.1-1 .4c-.3.3-.4.7-.4 1.3v1.4h-.5zm6.8.1c-.5 0-1-.3-1.4-.8c.04.01 0 .7 0 .7h-.5v-5.1h.5s.04 2.21 0 2.2c.4-.5.9-.8 1.4-.8c.5 0 .9.2 1.2.5c.4.4.6.8.6 1.4c0 .6-.2 1-.6 1.4c-.3.3-.7.5-1.2.5zm-.1-.5c.4 0 .7-.1.9-.4c.3-.2.4-.6.4-1c0-.4-.1-.8-.4-1c-.2-.3-.5-.4-.9-.4c-.3 0-.6.1-.9.4c-.2.3-.4.6-.4 1c0 .4.1.7.4 1c.3.3.6.4.9.4zm2.9-4v-.6h.6v.6h-.6zm0 4.4V92h.5v3.6h-.5zm1.8 0V92h.5s.03.93 0 .9c.2-.3.4-.5.6-.7c.3-.2.6-.3.9-.3v.6s-.04 0 0 0c-.5 0-.8.1-1.1.4c-.2.3-.4.7-.4 1.3c.03-.04 0 1.4 0 1.4h-.5zm2.8-4.4v-.6h.7v.6h-.7zm.1 4.4V92h.5v3.6h-.5zm1.7-2.9v-.7h.7v.7h-.7zm0 2.9v-.7h.7v.7h-.7zm5.5.1c-.7 0-1.3-.3-1.8-.8l.4-.4c.4.5.9.7 1.4.7c.3 0 .6-.1.8-.3c.2-.2.4-.5.4-.8c0-.3-.2-.6-.4-.8c-.2-.2-.5-.2-.9-.2c-.3 0-.7 0-1 .2c.01.03-.4-.2-.4-.2l.2-2.4h2.8v.5h-2.3s-.15 1.58-.1 1.6c.3-.2.6-.2.9-.2c.5 0 .9.1 1.2.4c.4.2.5.6.5 1.1c0 .4-.1.8-.5 1.1c-.3.3-.7.5-1.2.5zm5.6-.1v-.3l1-.9l.4-.4c.1-.1.1-.2.1-.4c0-.1 0-.2-.1-.3c-.1-.1-.2-.2-.4-.2c-.3 0-.5.2-.7.5l-.3-.2c.2-.2.3-.3.5-.4c.1-.1.3-.2.5-.2c.3 0 .5.1.7.2c.1.2.2.4.2.6c0 .2 0 .3-.1.5l-.5.5c-.03-.01-.8.7-.8.7h1.4v.3h-1.9zm-2.6 0l1.7-2.5l1.6-2.4h.4l-1.7 2.5l-1.6 2.4h-.4zm.6-2.2h-.4V91l-.6.3l-.1-.3l.8-.3h.3v2.7zm6.1-1.1v-.3c.3-.1.5-.3.4-.6c.03.03-.2 0-.2 0v-.7h.6v.6c0 .3 0 .5-.2.7c-.1.1-.3.2-.6.3zm-1.4 0v-.3c.3-.1.5-.3.4-.6c.03.03-.2 0-.2 0v-.7h.6s.02.63 0 .6c0 .3 0 .5-.2.7c-.1.1-.3.2-.6.3zm8.2 2.4l-1.2-1.2l-1.2 1.2l-.4-.3l1.3-1.3l-1.3-1.2l.4-.3l1.2 1.2l1.2-1.2l.4.3l-1.3 1.2l1.3 1.2l-.4.4zm6.1.9v-1.2h-2.6l-.1-.4l2.8-3.3h.4v3.3h.8v.4h-.8v1.2h-.5zm-2-1.6h2v-2.6l-2 2.6zm5.2-.6h-.4V91l-.6.3l-.1-.3l.8-.3h.3v2.7zm-.6 2.2l1.8-2.5l1.6-2.4h.3l-1.7 2.5l-1.6 2.4h-.4zM61 95v.6h-.4v-.6h-1.3l-.1-.3l1.4-1.9h.4v1.9h.3v.3h-.3zm-.4-.3v-1.4l-1 1.4h1zm2.9-2.4l-.1-.3c.4-.1.5-.3.5-.6c-.01.03-.3 0-.3 0v-.7h.7s-.03.63 0 .6c0 .3-.1.5-.2.7c-.1.1-.3.2-.6.3zm-1.4 0L62 92c.4-.1.5-.3.5-.6c-.01.03-.3 0-.3 0v-.7h.7s-.02.63 0 .6c0 .3-.1.5-.2.7c-.1.1-.3.2-.6.3zm8.2 2.4l-1.2-1.2l-1.3 1.2l-.3-.3l1.2-1.3l-1.2-1.2l.4-.3l1.2 1.2l1.2-1.2l.3.3l-1.2 1.2l1.2 1.2l-.3.4zm3.4.9v-.4s1.77-1.6 1.8-1.6l.8-.8c.1-.3.2-.5.2-.7c0-.3-.1-.5-.3-.7c-.2-.2-.4-.3-.7-.3c-.3 0-.5.1-.7.2c-.2.2-.4.4-.6.7l-.4-.3c.2-.4.5-.7.7-.8c.3-.2.6-.3 1-.3c.5 0 .8.2 1.1.4c.3.3.5.6.5 1c0 .4-.1.7-.3.9c-.2.3-.5.6-1 1c.02.03-1.3 1.2-1.3 1.2h2.6v.5h-3.4zm5.3-2.2h-.4V91l-.6.3v-.3l.7-.3h.3v2.7zm-.5 2.2l1.7-2.5l1.6-2.4h.4l-1.7 2.5l-1.6 2.4h-.4zm4.1-.6v.6h-.3v-.6H81l-.1-.3l1.3-1.9h.4v1.9h.4v.3h-.4zm-.3-.3v-1.4l-1.1 1.4h1.1zm2.9-2.4l-.1-.3c.3-.1.5-.3.4-.6c.05.03-.2 0-.2 0v-.7h.6s.03.63 0 .6c0 .3 0 .5-.2.7c-.1.1-.3.2-.5.3zm-1.4 0l-.1-.3c.3-.1.5-.3.4-.6c.05.03-.2 0-.2 0v-.7h.6s.04.63 0 .6c0 .3 0 .5-.1.7l-.6.3zm5.8 1.3c0 1.1.5 1.9 1.6 2.6l-.3.4c-1.2-.7-1.9-1.7-1.9-3c0-1.3.7-2.3 1.9-3l.3.4c-1.1.6-1.6 1.5-1.6 2.6c-.04-.01 0 0 0 0c0 0-.04 0 0 0zm3.2 2v-4.4l-.9.3l-.1-.4l1.2-.4h.4v4.9h-.6zm4.3 0v-1.2h-2.6l-.1-.4l2.8-3.3h.4v3.3h.8v.4h-.8v1.2h-.5zM95 94h2.1v-2.6L95 94zm9.3.7l-1.2-1.2l-1.3 1.2l-.3-.3l1.2-1.3l-1.2-1.2l.4-.3l1.2 1.2l1.2-1.2l.3.3l-1.2 1.2l1.2 1.2l-.3.4zm4.3.9v-4.4l-.9.3l-.2-.4l1.2-.4h.4v4.9h-.5zm5.8-2.5c0 .8-.2 1.4-.5 1.8c-.4.5-.9.8-1.5.8c-.7 0-1.2-.3-1.5-.7c-.4-.5-.6-1.1-.6-1.8v-.1c0-.7.2-1.3.6-1.7c.4-.5.9-.8 1.5-.8c.6 0 1.1.3 1.5.7c.3.5.5 1.1.5 1.8c.03.04 0 0 0 0c0 0 .03.05 0 0zm-3.5 0c0 .6.1 1.1.4 1.5c.3.4.6.6 1.1.6c.4 0 .8-.2 1-.6c.3-.4.5-.9.5-1.4v-.1c0-.5-.2-1-.5-1.4c-.2-.4-.6-.6-1-.6c-.5 0-.8.2-1.1.6c-.3.4-.4.9-.4 1.4c-.04.04 0 0 0 0c0 0-.04.05 0 0zm4.2 3.4l-.1-.3c.4-.1.5-.3.5-.6h-.2v-.7h.6v.6c0 .3-.1.5-.2.6c-.1.2-.3.3-.6.4zm3.5-.8c-.7 0-1.3-.3-1.8-.8l.4-.4c.4.5.9.7 1.4.7c.3 0 .6-.1.8-.3c.2-.2.3-.5.3-.8c0-.3-.1-.6-.3-.8c-.2-.2-.5-.2-.9-.2c-.3 0-.7 0-1 .2c0 .03-.4-.2-.4-.2l.2-2.4h2.8v.5h-2.3s-.15 1.58-.2 1.6c.4-.2.7-.2 1-.2c.5 0 .9.1 1.2.4c.3.2.5.6.5 1.1c0 .4-.2.8-.5 1.1c-.3.3-.7.5-1.2.5zm7.6-1l-1.2-1.2l-1.2 1.2l-.4-.3l1.3-1.3l-1.3-1.2l.4-.3l1.2 1.2l1.2-1.2l.4.3l-1.3 1.2l1.3 1.2l-.4.4zm5.2 1c-.6 0-1.2-.3-1.7-.8l.3-.4c.5.5 1 .7 1.4.7c.4 0 .7-.1.9-.3c.2-.2.3-.5.3-.8c0-.3-.1-.6-.3-.8c-.3-.2-.6-.2-.9-.2c-.4 0-.7 0-1 .2c-.04.03-.4-.2-.4-.2l.1-2.4h2.8v.5h-2.3l-.1 1.6c.3-.2.6-.2 1-.2c.5 0 .9.1 1.2.4c.3.2.5.6.5 1.1c0 .4-.2.8-.5 1.1c-.3.3-.8.5-1.3.5zm2.6.8l-.1-.3c.3-.1.5-.3.5-.6h-.3v-.7h.7s-.04.59 0 .6c0 .3-.1.5-.2.6c-.1.2-.3.3-.6.4zm5.3-2.2c0 .4-.1.7-.5 1c-.3.2-.8.4-1.3.4c-.5 0-1-.2-1.3-.4c-.4-.3-.5-.6-.5-1c0-.3 0-.6.2-.8c.2-.2.5-.3.8-.4c-.6-.3-.9-.7-.9-1.2c0-.3.2-.7.5-.9c.3-.2.7-.4 1.2-.4c.5 0 .8.2 1.2.4c.3.2.5.6.5.9c0 .5-.3.9-.9 1.2c.3.1.6.2.8.4c.1.2.2.5.2.8c.04-.04 0 0 0 0c0 0 .04-.02 0 0zm-2.9-2.3c0 .2.1.4.3.6c.2.2.5.3.8.3c.3 0 .6-.1.8-.3c.2-.2.3-.4.3-.6c0-.3-.1-.5-.3-.6c-.2-.2-.5-.3-.8-.3c-.3 0-.6.1-.8.3c-.2.1-.3.3-.3.6c-.02-.04 0 0 0 0c0 0-.02-.03 0 0zm-.2 2.3c0 .2.1.4.4.6c.2.2.5.3.9.3c.4 0 .7-.1.9-.3c.3-.2.4-.4.4-.6c0-.3-.1-.5-.4-.7c-.2-.2-.5-.3-.9-.3c-.4 0-.7.1-.9.3c-.3.2-.4.4-.4.7c.02-.04 0 0 0 0c0 0 .02-.03 0 0zm9.3.7c-.4.5-.9.7-1.5.7c-.5 0-.9-.2-1.3-.6c-.3-.3-.5-.8-.5-1.3c0-.5.2-1 .5-1.3c.4-.4.8-.6 1.3-.6c.6 0 1.1.2 1.5.6l-.4.4c-.3-.3-.7-.5-1.1-.5c-.3 0-.6.1-.9.4c-.2.3-.4.6-.4 1c0 .4.2.7.4 1c.3.3.6.4 1 .4c.4 0 .7-.2 1.1-.5l.3.3s.01-.02 0 0zm.9.6V92h.5s.04.59 0 .6c.2-.2.3-.4.5-.5c.2-.1.4-.2.7-.2c.6 0 .9.2 1.2.7c.3-.5.7-.7 1.2-.7c.5 0 .8.1 1 .4c.3.3.4.6.4 1.1c-.01-.04 0 2.2 0 2.2h-.5s-.05-2.11 0-2.1c0-.4-.1-.6-.3-.8c-.2-.2-.4-.3-.7-.3c-.3 0-.5.1-.7.3c-.2.2-.3.5-.3.8v2.1h-.5s-.02-2.13 0-2.1c0-.4-.1-.6-.3-.8c-.1-.2-.4-.3-.7-.3c-.2 0-.5.1-.7.3c-.2.2-.3.5-.3.8c.04.03 0 2.1 0 2.1h-.5zm8.6-2c0 1.3-.6 2.3-1.9 3l-.3-.4c1.1-.7 1.7-1.5 1.7-2.6c0-1.1-.6-2-1.7-2.6l.3-.4c1.3.7 1.9 1.7 1.9 3c0-.01 0 0 0 0z" stroke="none" fill="#000"/></g><g id="Polygon386117"><path d="m3.3 80.2v-.6h.7v.6h-.7zm-1.3 0v-.6h.6v.6h-.6zm3.5 2.9c0 .7-.3 1.3-.7 1.8c-.5.5-1.1.8-1.8.8c-.8 0-1.4-.3-1.8-.8c-.5-.4-.7-1-.7-1.7v-.1c0-.6.2-1.2.7-1.7c.5-.5 1.1-.8 1.8-.8c.7 0 1.3.3 1.8.8c.4.4.7 1 .7 1.7c-.03.04 0 0 0 0c0 0-.03.05 0 0zm-4.4 0c0 .6.1 1.1.5 1.5c.4.4.8.6 1.4.6c.5 0 1-.2 1.4-.6c.3-.4.5-.9.5-1.4v-.1c0-.5-.2-1-.5-1.4c-.4-.4-.9-.6-1.4-.6c-.6 0-1 .2-1.4.6c-.4.4-.5.9-.5 1.4c-.05.04 0 0 0 0c0 0-.05.05 0 0zm5.5 2.5v-5.1h.5v5.1h-.5zm3.1 1.1l-.6-.3s.59-.75.6-.8c-.5 0-.8-.2-1.1-.6c-.3-.3-.4-.7-.4-1.2c0-.5.1-1 .5-1.3c.4-.4.8-.6 1.3-.6c.6 0 1.1.2 1.5.6l-.4.4c-.3-.3-.7-.5-1.1-.5c-.4 0-.7.1-.9.4c-.3.3-.4.6-.4 1c0 .4.1.7.4 1c.3.3.6.4 1 .4c.4 0 .7-.2 1.1-.5l.3.3c-.4.4-.8.7-1.4.7c.03-.02-.4 1-.4 1zm4.5-5.3v-.6h.6v.6h-.6zm-1.2 0v-.6h.6v.6h-.6zm1.9 3.6c-.3.4-.7.7-1.2.7c-.4 0-.8-.2-1-.4c-.3-.3-.4-.6-.4-1.1c.01.03 0-2.2 0-2.2h.5s.04 2.09 0 2.1c0 .3.1.6.3.8c.2.2.4.3.7.3c.4 0 .6-.1.8-.3c.2-.2.3-.5.3-.8c.03-.05 0-2.1 0-2.1h.6v3.6h-.6v-.6s.03-.03 0 0zm1.8.6v-5.1h.6v5.1h-.6zm4.9-.6c-.4.5-.9.7-1.5.7c-.5 0-.9-.2-1.3-.5c-.3-.4-.5-.8-.5-1.4c0-.5.2-1 .5-1.4c.3-.3.7-.5 1.2-.5c.5 0 1 .2 1.3.5c.3.4.4.9.4 1.4v.2h-2.9c.1.4.2.7.5.9c.2.2.5.3.8.3c.4 0 .8-.2 1.2-.5c-.05 0 .3.3.3.3c0 0-.01 0 0 0zm-2.8-1.4h2.4c-.1-.4-.2-.7-.4-.9c-.2-.2-.4-.3-.8-.3c-.3 0-.6.1-.8.3c-.2.2-.3.5-.4.9zm3.9 2V82h.5v.9c.1-.3.3-.5.6-.7c.2-.2.5-.3.9-.3c-.03.02 0 .6 0 .6h-.1c-.4 0-.7.1-1 .4c-.3.3-.4.7-.4 1.3v1.4h-.5z" stroke="none" fill="#000"/></g><g id="Polygon386116"><path d="m2 65.6v-4.4H.3v-.5h3.9v.5H2.5v4.4h-.5zm4.6-.5c-.3.4-.7.6-1.3.6c-.4 0-.7-.1-.9-.3c-.3-.2-.4-.5-.4-.9c0-.3.1-.6.4-.8c.3-.2.6-.3 1.1-.3c.4 0 .7 0 1.1.1v-.1c0-.3-.1-.6-.3-.7c-.2-.2-.4-.3-.8-.3c-.3 0-.7.1-1.1.3l-.1-.5c.4-.2.8-.3 1.3-.3c.5 0 .9.2 1.2.4c.2.3.3.6.3 1.1c.03-.01 0 2.2 0 2.2h-.5v-.5s.02-.05 0 0zm-1.2.1c.4 0 .6 0 .9-.2c.2-.2.3-.4.3-.7v-.4c-.3-.1-.7-.1-1-.1c-.4 0-.6 0-.8.2c-.2.1-.3.3-.3.5c0 .2.1.4.3.6c.1.1.4.1.6.1zm4.1.5c-.6 0-1.1-.2-1.5-.6l.3-.3c.4.3.8.4 1.2.4c.2 0 .4 0 .5-.1c.2-.1.3-.3.3-.5c0-.1-.1-.3-.3-.4c-.1 0-.4-.1-.6-.2c-.2 0-.3-.1-.3-.1c-.1 0-.2-.1-.3-.1c-.1 0-.2-.1-.3-.1c0-.1-.1-.1-.2-.2c0-.1-.1-.1-.1-.2v-.3c0-.4.1-.6.3-.8c.2-.2.5-.3.9-.3c.5 0 .9.2 1.3.4l-.3.4c-.3-.2-.7-.3-1-.3c-.2 0-.4 0-.5.1c-.2.1-.2.2-.2.4v.2c.1 0 .1.1.2.1c0 .1.1.1.2.2h.2c.1.1.2.1.3.1c.1.1.3.1.3.1c.1.1.2.1.4.2c.1 0 .2.1.2.2c.1 0 .1.1.2.2c0 .1.1.2.1.4c0 .3-.2.6-.4.8c-.2.2-.5.3-.9.3zm4.7-.6c-.4.4-.8.6-1.4.6c-.3 0-.6-.1-.9-.3c-.3-.2-.4-.5-.4-.9c0-.3.1-.6.4-.8c.3-.2.7-.3 1.1-.3c.4 0 .8 0 1.2.1v-.1c0-.3-.1-.6-.3-.7c-.2-.2-.5-.3-.8-.3c-.4 0-.8.1-1.1.3l-.2-.5c.4-.2.9-.3 1.3-.3c.5 0 .9.2 1.2.4c.2.3.4.6.4 1.1c-.03-.01 0 2.2 0 2.2h-.5v-.5s-.05-.05 0 0zm-1.3.1c.4 0 .7 0 .9-.2c.2-.2.4-.4.4-.7v-.4c-.4-.1-.8-.1-1.1-.1c-.3 0-.6 0-.8.2c-.2.1-.3.3-.3.5c0 .2.1.4.3.6c.2.1.4.1.6.1zm2.9.4V62h.6s-.04.93 0 .9c.1-.3.3-.5.6-.7c.2-.2.5-.3.8-.3c.04.02 0 .6 0 .6c0 0-.01 0 0 0c-.4 0-.8.1-1 .4c-.3.3-.4.7-.4 1.3c-.04-.04 0 1.4 0 1.4h-.6zm2.9 0V62h.5v3.6h-.5zm1.8 0V62h.5s.03.59 0 .6c.2-.2.3-.4.5-.5c.2-.1.4-.2.7-.2c.5 0 .9.2 1.2.7c.3-.5.7-.7 1.2-.7c.5 0 .8.1 1 .4c.3.3.4.6.4 1.1c-.02-.04 0 2.2 0 2.2h-.6s.04-2.11 0-2.1c0-.4 0-.6-.2-.8c-.2-.2-.4-.3-.7-.3c-.3 0-.5.1-.7.3c-.2.2-.3.5-.3.8v2.1h-.5s-.03-2.13 0-2.1c0-.4-.1-.6-.3-.8c-.1-.2-.4-.3-.7-.3c-.2 0-.5.1-.7.3c-.2.2-.3.5-.3.8c.03.03 0 2.1 0 2.1h-.5zm6.6-2.9v-.7h.6v.7h-.6zm0 2.9v-.7h.6v.7h-.6zm5.7.1c-.8 0-1.4-.3-2-.8l.3-.4c.3.2.5.4.8.5c.3.1.6.2.9.2c.3 0 .6-.1.8-.3c.2-.1.3-.3.3-.6c0-.2-.1-.4-.3-.5c-.1-.2-.5-.3-1-.4c-.6-.1-1-.3-1.2-.5c-.3-.2-.4-.5-.4-.9c0-.4.1-.7.4-1c.3-.2.7-.4 1.2-.4c.3 0 .6.1.9.2c.3.1.5.2.8.4l-.3.5c-.4-.4-.9-.6-1.4-.6c-.3 0-.6.1-.8.3c-.2.1-.3.3-.3.5c0 .3.1.5.3.6c.2.2.5.3 1.1.4c.5.1.9.3 1.2.5c.2.2.4.5.4.9c0 .4-.2.7-.5 1c-.3.2-.7.4-1.2.4zm5.3-.7c-.3.4-.7.7-1.3.7c-.4 0-.7-.2-1-.4c-.2-.3-.4-.6-.4-1.1c.03.03 0-2.2 0-2.2h.6s-.03 2.09 0 2.1c0 .3.1.6.2.8c.2.2.5.3.8.3c.3 0 .5-.1.8-.3c.2-.2.3-.5.3-.8c-.04-.05 0-2.1 0-2.1h.5v3.6h-.5v-.6s-.04-.03 0 0zm1.7.6V62h.5s.04.61 0 .6c.3-.5.7-.7 1.3-.7c.4 0 .7.1 1 .4c.2.3.4.6.4 1.1c-.03-.05 0 2.2 0 2.2h-.6s.03-2.11 0-2.1c0-.4-.1-.6-.2-.8c-.2-.2-.5-.3-.8-.3c-.3 0-.5.1-.8.3c-.2.2-.3.5-.3.8c.04.03 0 2.1 0 2.1h-.5zm7.3.7c-.3.3-.8.4-1.4.4c-.6 0-1.1-.1-1.6-.5l.2-.4c.4.3.9.5 1.4.5c.4 0 .7-.1 1-.4c.2-.2.3-.5.3-.9v-.4c-.4.5-.8.7-1.4.7c-.4 0-.8-.1-1.2-.5c-.3-.3-.5-.7-.5-1.2c0-.5.2-.9.5-1.2c.3-.3.7-.5 1.2-.5c.6 0 1 .2 1.4.7c.02.03 0-.6 0-.6h.6s-.04 2.97 0 3c0 .5-.2.9-.5 1.3zm-1.4-1.5c.4 0 .7-.1.9-.3c.3-.2.4-.5.4-.9c0-.4-.1-.6-.4-.9c-.2-.2-.5-.3-.9-.3c-.3 0-.6.1-.9.3c-.2.2-.3.5-.3.9c0 .4.1.7.3.9c.3.2.6.3.9.3zm6.1.8L50.6 62h.5l1 2.9l1-2.9h.4l1 2.9l.9-2.9h.6l-1.3 3.6h-.5l-.9-2.8l-1 2.8h-.5zm6.6.1c-.6 0-1-.2-1.4-.6c-.3-.3-.5-.8-.5-1.3c0-.5.2-1 .5-1.3c.4-.4.8-.6 1.4-.6c.5 0 1 .2 1.3.6c.4.3.6.8.6 1.3c0 .5-.2 1-.6 1.3c-.3.4-.8.6-1.3.6zm0-.5c.4 0 .7-.1.9-.4c.3-.3.4-.6.4-1c0-.4-.1-.7-.4-1c-.2-.3-.6-.4-.9-.4c-.4 0-.7.1-1 .4c-.2.3-.4.6-.4 1c0 .4.2.7.4 1c.3.3.6.4 1 .4zm4.5.5c-.5 0-1-.2-1.4-.6c-.3-.3-.5-.8-.5-1.3c0-.5.2-1 .6-1.3c.3-.4.8-.6 1.3-.6c.5 0 1 .2 1.3.6c.4.3.6.8.6 1.3c0 .5-.2 1-.6 1.3c-.3.4-.8.6-1.3.6zm0-.5c.4 0 .7-.1 1-.4c.2-.3.3-.6.3-1c0-.4-.1-.7-.4-1c-.2-.3-.5-.4-.9-.4c-.4 0-.7.1-1 .4c-.2.3-.3.6-.3 1c0 .4.1.7.3 1c.3.3.6.4 1 .4zm2.9.4v-5.1h.5v3.5l1.9-2h.7l-1.5 1.5l1.6 2.1h-.7L67 63.9l-.7.8v.9h-.5zm6.1 0v-4.9h1.9c.5 0 1 .1 1.3.4c.3.3.5.7.5 1.2c0 .5-.2.9-.6 1.2c-.3.2-.8.4-1.3.4c-.03-.03-1.2 0-1.2 0v1.7h-.6zm.6-2.2s1.2-.03 1.2 0c.4 0 .7-.1 1-.3c.2-.2.3-.5.3-.8c0-.4-.1-.6-.3-.8c-.3-.2-.6-.3-1-.3h-1.2v2.2zm6.3 1.7c-.3.4-.7.6-1.3.6c-.3 0-.7-.1-.9-.3c-.3-.2-.4-.5-.4-.9c0-.3.1-.6.4-.8c.3-.2.7-.3 1.1-.3c.4 0 .8 0 1.1.1v-.1c0-.3-.1-.6-.2-.7c-.2-.2-.5-.3-.8-.3c-.4 0-.8.1-1.1.3l-.2-.5c.4-.2.9-.3 1.3-.3c.5 0 .9.2 1.2.4c.2.3.4.6.4 1.1c-.05-.01 0 2.2 0 2.2h-.6v-.5s.03-.05 0 0zm-1.2.1c.4 0 .7 0 .9-.2c.2-.2.3-.4.3-.7v-.4c-.3-.1-.7-.1-1-.1c-.4 0-.6 0-.8.2c-.2.1-.3.3-.3.5c0 .2.1.4.3.6c.2.1.4.1.6.1zm2.9.4V62h.5s.04.93 0 .9c.2-.3.4-.5.6-.7c.3-.2.6-.3.9-.3c.02.02 0 .6 0 .6c0 0-.03 0 0 0c-.4 0-.8.1-1.1.4c-.2.3-.4.7-.4 1.3c.04-.04 0 1.4 0 1.4h-.5zm2.8 0v-5.1h.6v3.5l1.9-2h.7L85 63.5l1.5 2.1h-.6l-1.3-1.7l-.7.8v.9h-.6zm9.7.1s-.73-.79-.7-.8c-.5.5-1 .8-1.6.8c-.5 0-.8-.2-1.1-.4c-.3-.3-.5-.6-.5-1c0-.6.4-1.1 1.2-1.4c-.2-.2-.3-.4-.4-.6c0-.1-.1-.3-.1-.5c0-.3.1-.6.4-.8c.2-.3.5-.4.9-.4c.4 0 .6.1.9.3c.2.3.3.5.3.8c0 .6-.4 1-1.1 1.3l1.1 1.2c.2-.4.4-.7.6-1.1l.4.2c-.2.5-.5.9-.7 1.2l.9.9l-.5.3zm-2.2-3c.7-.2 1-.5 1-.9v-.1c0-.1-.1-.3-.2-.4c-.1-.2-.3-.2-.5-.2c-.2 0-.4 0-.5.2c-.2.1-.2.3-.2.5c0 .1 0 .3.1.4c0 .1.2.3.3.5zm-.1 2.5c.4 0 .8-.2 1.2-.6l-1.3-1.4c-.6.2-.9.6-.9 1.1c0 .2.1.5.3.6c.2.2.4.3.7.3zm5.4.4l2.2-4.9h.5l2.2 4.9h-.6l-.5-1.3h-2.7l-.6 1.3h-.5zm1.3-1.8h2.3l-1.2-2.5l-1.1 2.5zm4.6 1.8v-5.1h.5v5.1h-.5zm4.1-.5c-.3.4-.7.6-1.3.6c-.3 0-.6-.1-.9-.3c-.3-.2-.4-.5-.4-.9c0-.3.1-.6.4-.8c.3-.2.7-.3 1.1-.3c.4 0 .8 0 1.1.1v-.1c0-.3 0-.6-.2-.7c-.2-.2-.5-.3-.8-.3c-.4 0-.8.1-1.1.3l-.2-.5c.4-.2.9-.3 1.3-.3c.5 0 .9.2 1.2.4c.2.3.4.6.4 1.1c-.04-.01 0 2.2 0 2.2h-.6v-.5s.05-.05 0 0zm-1.2.1c.4 0 .7 0 .9-.2c.2-.2.4-.4.4-.7v-.4c-.4-.1-.8-.1-1.1-.1c-.3 0-.6 0-.8.2c-.2.1-.3.3-.3.5c0 .2.1.4.3.6c.2.1.4.1.6.1zm2.9.4V62h.6s-.05.61 0 .6c.2-.5.7-.7 1.2-.7c.4 0 .8.1 1 .4c.3.3.4.6.4 1.1c-.02-.05 0 2.2 0 2.2h-.6s.04-2.11 0-2.1c0-.4 0-.6-.2-.8c-.2-.2-.4-.3-.8-.3c-.3 0-.5.1-.7.3c-.2.2-.3.5-.3.8c-.05.03 0 2.1 0 2.1h-.6zm7.9 0l-1.8-4.9h.6l1.4 4.1l1.4-4.1h.4l1.4 4.1l1.4-4.1h.6l-1.8 4.9h-.5l-1.3-3.9l-1.4 3.9h-.4zm6.2-4.4v-.6h.6v.6h-.6zm0 4.4V62h.6v3.6h-.6zm3 .1c-.5 0-1-.2-1.5-.6l.3-.3c.4.3.8.4 1.2.4c.3 0 .4 0 .6-.1c.1-.1.2-.3.2-.5c0-.1-.1-.3-.2-.4c-.2 0-.4-.1-.7-.2c-.2 0-.2-.1-.3-.1c-.1 0-.2-.1-.3-.1c-.1 0-.2-.1-.2-.1c-.1-.1-.2-.1-.2-.2l-.2-.2v-.3c0-.4.1-.6.3-.8c.3-.2.6-.3.9-.3c.5 0 .9.2 1.3.4l-.2.4c-.4-.2-.7-.3-1.1-.3c-.2 0-.4 0-.5.1c-.1.1-.2.2-.2.4c0 .1 0 .1.1.2s0 .1.1.1c0 .1.1.1.2.2h.2c.1.1.2.1.3.1c.2.1.3.1.4.1c.1.1.2.1.3.2c.1 0 .2.1.3.2c0 0 .1.1.1.2c.1.1.1.2.1.4c0 .3-.1.6-.4.8c-.2.2-.5.3-.9.3zm2.3-.1V62h.5s.03.61 0 .6c.3-.5.7-.7 1.3-.7c.4 0 .7.1 1 .4c.2.3.4.6.4 1.1c-.04-.05 0 2.2 0 2.2h-.6s.02-2.11 0-2.1c0-.4-.1-.6-.2-.8c-.2-.2-.5-.3-.8-.3c-.3 0-.6.1-.8.3c-.2.2-.3.5-.3.8c.03.03 0 2.1 0 2.1h-.5zm4.3-4.4v-.6h.6v.6h-.6zm.1 4.4V62h.5v3.6h-.5zm4.8-.6c-.4.5-.9.7-1.5.7c-.5 0-.9-.2-1.3-.5c-.3-.4-.5-.8-.5-1.4c0-.5.2-1 .5-1.4c.3-.3.8-.5 1.3-.5c.5 0 .9.2 1.2.5c.3.4.4.9.4 1.4v.2h-2.8c0 .4.1.7.4.9c.2.2.5.3.8.3c.5 0 .9-.2 1.2-.5l.3.3s.02 0 0 0zm-2.7-1.4h2.3c0-.4-.1-.7-.3-.9c-.2-.2-.5-.3-.9-.3c-.3 0-.5.1-.7.3c-.3.2-.4.5-.4.9zm4.6 2L137 62h.6l.9 2.9l1-2.9h.5l.9 2.9l1-2.9h.5l-1.2 3.6h-.5l-1-2.8l-.9 2.8h-.5zm6.1.1c-.5 0-1-.2-1.5-.6l.3-.3c.4.3.8.4 1.3.4c.2 0 .4 0 .5-.1c.1-.1.2-.3.2-.5c0-.1-.1-.3-.2-.4c-.2 0-.4-.1-.7-.2c-.1 0-.2-.1-.3-.1c0 0-.1-.1-.2-.1c-.2 0-.2-.1-.3-.1l-.2-.2c-.1-.1-.1-.1-.1-.2c-.1-.1-.1-.2-.1-.3c0-.4.1-.6.4-.8c.2-.2.5-.3.8-.3c.5 0 .9.2 1.3.4l-.2.4c-.4-.2-.7-.3-1.1-.3c-.2 0-.3 0-.5.1c-.1.1-.2.2-.2.4c0 .1 0 .1.1.2l.1.1l.2.2h.3c0 .1.1.1.3.1c.1.1.2.1.3.1c.1.1.2.1.3.2c.1 0 .2.1.3.2c.1 0 .1.1.2.2v.4c0 .3-.1.6-.3.8c-.3.2-.6.3-1 .3zm2.3-.1v-5.1h.6v3.5l1.9-2h.7l-1.5 1.5l1.5 2.1h-.6l-1.3-1.7l-.7.8v.9h-.6zm4-4.4v-.6h.6v.6h-.6zm.1 4.4V62h.5v3.6h-.5z" stroke="none" fill="#000"/></g><g id="Polygon386115"><path d="m.7 55.6v-4.9h.5v2.9l2.9-2.9h.7l-2.1 2.1l2.2 2.8h-.7l-1.9-2.4l-1.1 1.1v1.3h-.5zm7.3-.5c-.4.4-.8.6-1.4.6c-.3 0-.6-.1-.9-.3c-.3-.2-.4-.5-.4-.9c0-.3.1-.6.4-.8c.3-.2.7-.3 1.1-.3c.4 0 .8 0 1.2.1v-.1c0-.3-.1-.6-.3-.7c-.2-.2-.5-.3-.8-.3c-.4 0-.8.1-1.1.3l-.2-.5c.4-.2.9-.3 1.3-.3c.5 0 .9.2 1.2.4c.2.3.4.6.4 1.1c-.03-.01 0 2.2 0 2.2h-.5v-.5s-.05-.05 0 0zm-1.3.1c.4 0 .7 0 .9-.2c.2-.2.4-.4.4-.7v-.4c-.4-.1-.8-.1-1.1-.1c-.3 0-.6 0-.8.2c-.2.1-.3.3-.3.5c0 .2.1.4.3.6c.2.1.4.1.6.1zm3 .4v-5.1h.5v5.1h-.5zm1.8 0V52h.5v3.6h-.5zm1.8 1.1V52h.5s.04.71 0 .7c.4-.5.9-.8 1.4-.8c.5 0 .9.2 1.2.5c.4.4.6.8.6 1.4c0 .6-.2 1-.6 1.4c-.3.3-.7.5-1.2.5c-.5 0-1-.3-1.4-.8c.04.01 0 1.8 0 1.8h-.5zm1.8-1.5c.4 0 .7-.1.9-.4c.3-.2.4-.6.4-1c0-.4-.1-.8-.4-1c-.2-.3-.5-.4-.9-.4c-.3 0-.6.1-.9.4c-.3.3-.4.6-.4 1c0 .4.1.7.4 1c.3.3.6.4.9.4zm4.9.4v-5.1h.6v3.5l1.9-2h.7l-1.5 1.5l1.6 2.1h-.7l-1.3-1.7l-.7.8v.9h-.6zm6.3-.5c-.3.4-.7.6-1.3.6c-.3 0-.6-.1-.9-.3c-.3-.2-.4-.5-.4-.9c0-.3.1-.6.4-.8c.3-.2.7-.3 1.1-.3c.4 0 .8 0 1.1.1v-.1c0-.3 0-.6-.2-.7c-.2-.2-.5-.3-.8-.3c-.4 0-.8.1-1.1.3l-.2-.5c.4-.2.9-.3 1.3-.3c.5 0 .9.2 1.2.4c.2.3.4.6.4 1.1c-.03-.01 0 2.2 0 2.2h-.6v-.5s.05-.05 0 0zm-1.2.1c.4 0 .7 0 .9-.2c.2-.2.4-.4.4-.7v-.4c-.4-.1-.8-.1-1.1-.1c-.3 0-.6 0-.8.2c-.2.1-.3.3-.3.5c0 .2.1.4.3.6c.2.1.4.1.6.1zm2.9 1.5V52h.6s-.05.71 0 .7c.3-.5.8-.8 1.3-.8c.5 0 .9.2 1.2.5c.4.4.6.8.6 1.4c0 .6-.2 1-.6 1.4c-.3.3-.7.5-1.2.5c-.5 0-1-.3-1.3-.8c-.05.01 0 1.8 0 1.8h-.6zm1.8-1.5c.4 0 .7-.1 1-.4c.2-.2.3-.6.3-1c0-.4-.1-.8-.4-1c-.2-.3-.5-.4-.9-.4c-.3 0-.6.1-.9.4c-.2.3-.4.6-.4 1c0 .4.2.7.4 1c.3.3.6.4.9.4zm2.9.4V52h.5v3.6h-.5zm5.1.1c-.6 0-1.1-.2-1.5-.6l.3-.3c.4.3.8.4 1.2.4c.3 0 .4 0 .6-.1c.1-.1.2-.3.2-.5c0-.1-.1-.3-.3-.4c-.1 0-.3-.1-.6-.2c-.2 0-.3-.1-.3-.1c-.1 0-.2-.1-.3-.1c-.1 0-.2-.1-.2-.1c-.1-.1-.2-.1-.2-.2l-.2-.2v-.3c0-.4.1-.6.3-.8c.3-.2.5-.3.9-.3c.5 0 .9.2 1.3.4l-.2.4c-.4-.2-.8-.3-1.1-.3c-.2 0-.4 0-.5.1c-.1.1-.2.2-.2.4c0 .1 0 .1.1.2s0 .1.1.1c0 .1.1.1.2.2h.2c.1.1.2.1.3.1c.2.1.3.1.4.1c.1.1.2.1.3.2c.1 0 .2.1.2.2c.1 0 .2.1.2.2c.1.1.1.2.1.4c0 .3-.1.6-.4.8c-.2.2-.5.3-.9.3zm4.1-.2c-.2.1-.4.2-.7.2c-.3 0-.5-.1-.7-.3c-.2-.2-.3-.4-.3-.8v-2.1h-.5v-.5h.5v-1.1h.5v1.1h1.2v.5h-1.2s.05 2.07 0 2.1c0 .4.2.6.7.6c.1 0 .3-.1.5-.2c-.02.05 0 .5 0 .5c0 0-.02.01 0 0zm2.5.2c-.5 0-1-.2-1.3-.6c-.4-.3-.6-.8-.6-1.3c0-.5.2-1 .6-1.3c.3-.4.8-.6 1.3-.6c.5 0 1 .2 1.4.6c.3.3.5.8.5 1.3c0 .5-.2 1-.6 1.3c-.3.4-.8.6-1.3.6zm0-.5c.4 0 .7-.1 1-.4c.2-.3.3-.6.3-1c0-.4-.1-.7-.4-1c-.2-.3-.5-.4-.9-.4c-.4 0-.7.1-1 .4c-.2.3-.3.6-.3 1c0 .4.1.7.4 1c.2.3.5.4.9.4zm2.9 1.5V52h.5v.7c.4-.5.8-.8 1.4-.8c.5 0 .9.2 1.2.5c.3.4.5.8.5 1.4c0 .6-.2 1-.5 1.4c-.3.3-.7.5-1.2.5c-.6 0-1-.3-1.4-.8v1.8h-.5zm1.8-1.5c.4 0 .7-.1.9-.4c.2-.2.4-.6.4-1c0-.4-.2-.8-.4-1c-.2-.3-.6-.4-.9-.4c-.4 0-.7.1-.9.4c-.3.3-.4.6-.4 1c0 .4.1.7.4 1c.2.3.5.4.9.4zM55 55c-.4.5-.9.7-1.5.7c-.5 0-.9-.2-1.3-.5c-.3-.4-.5-.8-.5-1.4c0-.5.2-1 .5-1.4c.3-.3.7-.5 1.2-.5c.5 0 1 .2 1.3.5c.3.4.4.9.4 1.4v.2h-2.9c.1.4.2.7.4.9c.3.2.6.3.9.3c.4 0 .8-.2 1.1-.5c.05 0 .4.3.4.3c0 0-.02 0 0 0zm-2.8-1.4h2.4c-.1-.4-.2-.7-.4-.9c-.2-.2-.4-.3-.8-.3c-.3 0-.6.1-.8.3c-.2.2-.3.5-.4.9zm3.9 2V52h.5s-.01.93 0 .9c.1-.3.3-.5.6-.7c.2-.2.5-.3.9-.3c-.03.02 0 .6 0 .6h-.1c-.4 0-.7.1-1 .4c-.3.3-.4.7-.4 1.3v1.4h-.5zm2.8-4.4v-.6h.6v.6h-.6zm0 4.4V52h.6v3.6h-.6zm1.6.9v-.3c.3-.1.4-.3.4-.6h-.2v-.7h.6v.6c0 .3-.1.5-.2.6c-.1.2-.3.3-.6.4zm3.8-.9v-.4s1.76-1.6 1.8-1.6l.8-.8c.1-.3.2-.5.2-.7c0-.3-.1-.5-.3-.7c-.2-.2-.4-.3-.7-.3c-.3 0-.5.1-.7.2c-.2.2-.4.4-.6.7l-.4-.3c.2-.4.5-.7.7-.8c.3-.2.6-.3 1-.3c.5 0 .8.2 1.1.4c.3.3.5.6.5 1c0 .4-.1.7-.3.9c-.2.3-.5.6-1 1c.01.03-1.3 1.2-1.3 1.2h2.6v.5h-3.4zm4.3-3.3l-.1-.3c.3-.1.5-.3.5-.6c-.04.03-.3 0-.3 0v-.7h.7s-.05.63 0 .6c0 .3-.1.5-.2.7l-.6.3zm1.9 3.3v-5.1h.5v5.1h-.5zm1.8-4.4v-.6h.6v.6h-.6zm0 4.4V52h.6v3.6h-.6zm5.1.1c-.5 0-1-.2-1.5-.6l.3-.3c.4.3.8.4 1.3.4c.2 0 .4 0 .5-.1c.1-.1.2-.3.2-.5c0-.1-.1-.3-.2-.4c-.2 0-.4-.1-.7-.2c-.1 0-.2-.1-.3-.1c0 0-.1-.1-.2-.1c-.2 0-.3-.1-.3-.1l-.2-.2c-.1-.1-.1-.1-.1-.2c-.1-.1-.1-.2-.1-.3c0-.4.1-.6.4-.8c.2-.2.5-.3.8-.3c.5 0 .9.2 1.3.4l-.2.4c-.4-.2-.7-.3-1.1-.3c-.2 0-.4 0-.5.1c-.1.1-.2.2-.2.4c0 .1 0 .1.1.2l.1.1l.2.2h.3c0 .1.1.1.3.1c.1.1.2.1.3.1c.1.1.2.1.3.2c.1 0 .2.1.3.2l.2.2v.4c0 .3-.1.6-.3.8c-.3.2-.6.3-1 .3zm5.4-.7c-.4.5-.9.7-1.5.7c-.5 0-.9-.2-1.3-.5c-.3-.4-.5-.8-.5-1.4c0-.5.2-1 .5-1.4c.3-.3.7-.5 1.2-.5c.6 0 1 .2 1.3.5c.3.4.4.9.4 1.4v.2H80c.1.4.2.7.5.9c.2.2.5.3.8.3c.4 0 .8-.2 1.2-.5c-.04 0 .3.3.3.3c0 0-.01 0 0 0zM80 53.6h2.4c-.1-.4-.2-.7-.4-.9c-.2-.2-.4-.3-.8-.3c-.3 0-.6.1-.8.3c-.2.2-.3.5-.4.9zm5.7 1.9c-.2.1-.4.2-.6.2c-.3 0-.6-.1-.8-.3c-.2-.2-.2-.4-.2-.8c-.05.04 0-2.1 0-2.1h-.5v-.5h.5v-1.1h.5v1.1h1.1v.5h-1.1v2.1c0 .4.2.6.6.6c.2 0 .4-.1.5-.2c.03.05 0 .5 0 .5c0 0 .03.01 0 0zm.9.1v-.7h.7v.7h-.7z" stroke="none" fill="#000"/></g><g id="Polygon386114"><path d="m.7 35.6v-4.9h2.1c.6 0 1.1.2 1.4.5c.2.2.4.6.4 1c0 .4-.2.7-.4.9c-.2.3-.6.4-1 .5c.04 0 1.5 2 1.5 2h-.6l-1.5-1.9H1.2v1.9h-.5zm.5-2.4h1.6c.3 0 .6-.1.9-.3c.2-.2.3-.4.3-.7c0-.3-.1-.6-.3-.7c-.2-.2-.5-.3-.9-.3H1.2v2zM8.7 35c-.4.5-.9.7-1.5.7c-.5 0-1-.2-1.3-.5c-.4-.4-.5-.8-.5-1.4c0-.5.1-1 .5-1.4c.3-.3.7-.5 1.2-.5c.5 0 .9.2 1.2.5c.3.4.5.9.5 1.4v.2H5.9c.1.4.2.7.4.9c.3.2.6.3.9.3c.4 0 .8-.2 1.1-.5c.03 0 .4.3.4.3c0 0-.03 0 0 0zm-2.8-1.4h2.3c0-.4-.1-.7-.3-.9c-.2-.2-.5-.3-.8-.3c-.3 0-.6.1-.8.3c-.2.2-.3.5-.4.9zm3.8 2V32h.6s-.02.61 0 .6c.3-.5.7-.7 1.2-.7c.4 0 .8.1 1 .4c.3.3.4.6.4 1.1v2.2h-.5s-.04-2.11 0-2.1c0-.4-.1-.6-.3-.8c-.2-.2-.4-.3-.7-.3c-.4 0-.6.1-.8.3c-.2.2-.3.5-.3.8c-.02.03 0 2.1 0 2.1h-.6zm4.3 0v-5.1h.6v3.5l1.9-2h.7l-1.5 1.5l1.6 2.1h-.7l-1.3-1.7l-.7.8v.9h-.6zm5.4.9l3.2-6.5h.5l-3.2 6.5h-.5zm6.1-.9l2.2-4.9h.5l2.2 4.9h-.6l-.5-1.3h-2.7l-.6 1.3h-.5zm1.3-1.8h2.3l-1.2-2.5l-1.1 2.5zm4.5 1.8V32h.6s-.04.61 0 .6c.3-.5.7-.7 1.2-.7c.4 0 .8.1 1 .4c.3.3.4.6.4 1.1c-.02-.05 0 2.2 0 2.2h-.6s.04-2.11 0-2.1c0-.4 0-.6-.2-.8c-.2-.2-.4-.3-.8-.3c-.3 0-.5.1-.7.3c-.2.2-.3.5-.3.8c-.04.03 0 2.1 0 2.1h-.6zm6.2-.1c-.2.1-.4.2-.7.2c-.3 0-.5-.1-.7-.3c-.2-.2-.3-.4-.3-.8c.02.04 0-2.1 0-2.1h-.5v-.5h.5v-1.1h.6v1.1h1.1v.5h-1.1s-.04 2.07 0 2.1c0 .4.2.6.6.6c.1 0 .3-.1.5-.2v.5s-.01.01 0 0zm1 .1V32h.5v.9c.1-.3.3-.5.6-.7c.2-.2.5-.3.9-.3c-.03.02 0 .6 0 .6h-.1c-.4 0-.7.1-1 .4c-.3.3-.4.7-.4 1.3v1.4h-.5zm5-.5c-.3.4-.7.6-1.3.6c-.4 0-.7-.1-1-.3c-.2-.2-.4-.5-.4-.9c0-.3.2-.6.5-.8c.3-.2.6-.3 1.1-.3c.4 0 .7 0 1.1.1v-.1c0-.3-.1-.6-.3-.7c-.2-.2-.4-.3-.8-.3c-.3 0-.7.1-1.1.3l-.1-.5c.4-.2.8-.3 1.3-.3c.5 0 .9.2 1.2.4c.2.3.3.6.3 1.1c.02-.01 0 2.2 0 2.2h-.5v-.5s0-.05 0 0zm-1.2.1c.3 0 .6 0 .9-.2c.2-.2.3-.4.3-.7v-.4c-.4-.1-.7-.1-1.1-.1c-.3 0-.5 0-.7.2c-.2.1-.3.3-.3.5c0 .2.1.4.3.6c.1.1.3.1.6.1zm4.1.5c-.6 0-1.1-.2-1.5-.6l.2-.3c.4.3.9.4 1.3.4c.2 0 .4 0 .5-.1c.2-.1.2-.3.2-.5c0-.1 0-.3-.2-.4c-.1 0-.4-.1-.7-.2c-.1 0-.2-.1-.2-.1c-.1 0-.2-.1-.3-.1c-.1 0-.2-.1-.3-.1c0-.1-.1-.1-.2-.2c0-.1-.1-.1-.1-.2c0-.1-.1-.2-.1-.3c0-.4.2-.6.4-.8c.2-.2.5-.3.9-.3c.4 0 .9.2 1.3.4l-.3.4c-.3-.2-.7-.3-1-.3c-.2 0-.4 0-.5.1c-.2.1-.2.2-.2.4v.2c.1 0 .1.1.1.1c.1.1.2.1.3.2h.2c.1.1.2.1.3.1c.1.1.2.1.3.1c.1.1.2.1.3.2c.2 0 .2.1.3.2c.1 0 .1.1.2.2c0 .1.1.2.1.4c0 .3-.2.6-.4.8c-.3.2-.6.3-.9.3zm2.3-4.5v-.6h.6v.6h-.6zm0 4.4V32h.5v3.6h-.5zm3.7-.1c-.2.1-.4.2-.7.2c-.3 0-.6-.1-.7-.3c-.2-.2-.3-.4-.3-.8v-2.1h-.5v-.5h.5v-1.1h.5v1.1h1.2v.5h-1.2s.03 2.07 0 2.1c0 .4.2.6.6.6c.2 0 .4-.1.6-.2c-.04.05 0 .5 0 .5c0 0-.04.01 0 0z" stroke="none" fill="#000"/></g><g id="Polygon386113"><path d="m3 20.3v-.7h.6v.7h-.6zm-1.3 0v-.7h.6v.7h-.6zm1 5.4c-.7 0-1.2-.2-1.5-.6c-.4-.4-.6-.9-.6-1.6c.02.05 0-2.8 0-2.8h.6s-.03 2.81 0 2.8c0 .5.1.9.4 1.2c.2.3.6.5 1.1.5c.4 0 .8-.2 1.1-.4c.2-.3.3-.7.3-1.3c.04.05 0-2.8 0-2.8h.6v2.8c0 .7-.2 1.2-.6 1.6c-.3.4-.8.6-1.4.6zm3.2-.1V22h.6s-.05.93 0 .9c.1-.3.3-.5.5-.7c.3-.2.6-.3.9-.3c.03.02 0 .6 0 .6c0 0-.01 0 0 0c-.4 0-.8.1-1 .4c-.3.3-.4.7-.4 1.3c-.05-.04 0 1.4 0 1.4h-.6zm4.7-4.2v-.6h.6v.6h-.6zm-1.3 0v-.6h.7v.6h-.7zm2 3.6c-.3.4-.7.7-1.2.7c-.4 0-.8-.2-1-.4c-.3-.3-.4-.6-.4-1.1c-.01.03 0-2.2 0-2.2h.5s.03 2.09 0 2.1c0 .3.1.6.3.8c.2.2.4.3.7.3c.3 0 .6-.1.8-.3c.2-.2.3-.5.3-.8c.02-.05 0-2.1 0-2.1h.6v3.6h-.6v-.6s.02-.03 0 0zm1.8.6V22h.5v.6c.3-.5.7-.7 1.2-.7c.5 0 .8.1 1.1.4c.2.3.3.6.3 1.1c.03-.05 0 2.2 0 2.2h-.5v-2.1c0-.4-.1-.6-.3-.8c-.2-.2-.4-.3-.7-.3c-.3 0-.6.1-.8.3c-.2.2-.3.5-.3.8v2.1h-.5zm6.5 0v-4.9h.5v2.9l2.8-2.9h.8l-2.2 2.1l2.2 2.8h-.7l-1.8-2.4l-1.1 1.1v1.3h-.5zm6.3.1c-.5 0-.9-.2-1.3-.6c-.3-.3-.5-.8-.5-1.3c0-.5.2-1 .5-1.3c.4-.4.8-.6 1.4-.6c.5 0 .9.2 1.3.6c.4.3.5.8.5 1.3c0 .5-.1 1-.5 1.3c-.4.4-.8.6-1.4.6zm.1-.5c.3 0 .7-.1.9-.4c.3-.3.4-.6.4-1c0-.4-.1-.7-.4-1c-.3-.3-.6-.4-1-.4c-.3 0-.7.1-.9.4c-.2.3-.4.6-.4 1c0 .4.2.7.4 1c.3.3.6.4 1 .4zm5.7-.3c-.3.5-.8.8-1.4.8c-.4 0-.8-.2-1.2-.5c-.3-.4-.5-.8-.5-1.4c0-.6.2-1 .5-1.4c.4-.3.8-.5 1.2-.5c.6 0 1.1.3 1.4.8c.02-.03 0-2.2 0-2.2h.6v5.1h-.6v-.7s.02-.03 0 0zm-1.3.3c.4 0 .7-.1 1-.4c.2-.3.3-.6.3-1c0-.4-.1-.8-.3-1c-.3-.3-.6-.4-1-.4c-.3 0-.6.1-.9.4c-.2.2-.3.6-.3 1c0 .4.1.8.3 1c.3.3.6.4.9.4zM36 25c-.3.4-.7.7-1.2.7c-.4 0-.8-.2-1-.4c-.3-.3-.4-.6-.4-1.1c.01.03 0-2.2 0-2.2h.5s.05 2.09 0 2.1c0 .3.1.6.3.8c.2.2.4.3.8.3c.3 0 .5-.1.7-.3c.2-.2.3-.5.3-.8c.04-.05 0-2.1 0-2.1h.6v3.6h-.6v-.6s.04-.03 0 0zm1.7-2.3v-.7h.7v.7h-.7zm0 2.9v-.7h.7v.7h-.7zm4.6 0v-4.4l-.9.3l-.1-.4l1.1-.4h.5v4.9h-.6zm3.8.1c-.6 0-1.2-.3-1.6-.7c-.4-.5-.6-1.1-.6-1.8v-.1c0-.7.2-1.3.6-1.8c.5-.4 1-.7 1.6-.7c.7 0 1.2.3 1.6.7c.4.5.6 1.1.6 1.8c0 .8-.2 1.4-.6 1.9c-.4.4-.9.7-1.6.7zM45 23.1c0 .5.1.9.3 1.2c.2.3.5.4.8.4c.3 0 .6-.1.8-.4c.2-.3.3-.7.3-1.1v-.1c0-.4-.1-.8-.3-1.1c-.2-.3-.5-.4-.8-.4c-.3 0-.6.1-.8.4c-.2.3-.3.7-.3 1.1c.04.04 0 0 0 0c0 0 .04.05 0 0zm4.9 2.5v-3.8l-.9.2l-.2-.9l1.4-.4h.7v4.9h-1zm3.9.1c-.8 0-1.5-.3-1.9-.9l.7-.7c.3.4.7.6 1.2.6c.2 0 .4 0 .5-.1c.1-.2.2-.3.2-.5c0-.2-.1-.3-.3-.5c-.1-.1-.4-.1-.7-.1h-.4l-.2-.7l1.2-1.2h-2v-.9h3.4v.8l-1.3 1.2c.9.1 1.3.6 1.3 1.4c0 .5-.1.8-.4 1.1c-.4.3-.8.5-1.3.5zm2.6-.1l2.2-4h-2.3v-.9h3.5v.8l-2.2 4.1h-1.2zm6 .1c-.6 0-1.1-.2-1.5-.5c-.3-.4-.5-1-.5-1.9c0-.8.1-1.4.5-1.9c.4-.5.9-.8 1.6-.8c.6 0 1.1.2 1.5.6l-.5.8c-.2-.1-.4-.2-.5-.3c-.1-.1-.3-.1-.5-.1c-.2 0-.3 0-.5.1l-.3.3c-.1.1-.1.3-.1.4c-.1.1-.1.2-.1.3c.3-.2.6-.3 1-.3c.5 0 .9.2 1.2.4c.4.3.5.7.5 1.2c0 .5-.1.9-.5 1.2c-.4.3-.8.5-1.3.5zm-.9-1.7c0 .2 0 .4.2.6c.2.1.4.2.6.2c.3 0 .5-.1.6-.2c.2-.2.3-.3.3-.6c0-.2-.1-.4-.3-.5c-.1-.1-.3-.2-.6-.2c-.3 0-.5.1-.6.2c-.2.1-.2.3-.2.5c-.03.02 0 0 0 0c0 0-.03.03 0 0zm3.6 1.6l2.2-4H65v-.9h3.5v.8l-2.2 4.1h-1.2zm3.9-1.7v-1h2.1v1H69zm3.5 1.7v-3.8l-.8.2l-.2-.9l1.4-.4h.7v4.9h-1.1zm4.5 0v-1.1h-2.4l-.1-.7l2.6-3.1h1v3h.6v.8h-.6v1.1H77zm-1.3-1.9h1.3v-1.6l-1.3 1.6zm4.4.6c.3.3.7.4 1 .4c.3 0 .5-.1.6-.2c.2-.1.3-.3.3-.4c.1-.2.1-.3.1-.5c-.2.2-.6.3-1 .3c-.5 0-.9-.1-1.2-.4c-.4-.3-.5-.7-.5-1.2c0-.5.2-.9.5-1.2c.4-.3.8-.5 1.4-.5c.3 0 .5.1.8.1c.2.1.4.3.6.4c.4.4.6 1.1.6 1.9c0 .8-.2 1.5-.6 2c-.4.4-.9.7-1.6.7c-.6 0-1.1-.2-1.6-.6l.6-.8s-.03-.02 0 0zm1.2-1.3c.3 0 .5 0 .6-.2c.2-.1.3-.3.3-.5c0-.2-.1-.4-.3-.6c-.1-.1-.3-.2-.6-.2c-.3 0-.5.1-.6.2c-.2.2-.2.4-.2.6c0 .2 0 .4.2.5c.1.2.3.2.6.2z" stroke="none" fill="#000"/></g><g id="Polygon386112"><path d="m.6 5.6V.7h2.3c.5 0 1 .1 1.2.4c.3.3.4.5.4.9c0 .5-.2.8-.7 1c.3.2.6.3.7.5c.2.2.3.4.3.7v.1c0 .4-.2.7-.5 1c-.4.2-.8.3-1.4.3H.6zm2-2.9c.6 0 .8-.2.8-.5v-.1c0-.3-.2-.5-.7-.5c0 .04-1.1 0-1.1 0v1.1h1s.03-.02 0 0zm.3 2c.5 0 .8-.2.8-.6c0-.3-.3-.5-.8-.5c-.02-.02-1.3 0-1.3 0v1.1h1.3s.02-.05 0 0zm6.9-1.2c0 .7-.2 1.2-.5 1.6c-.4.4-.9.6-1.6.6c-.7 0-1.2-.2-1.6-.6c-.3-.3-.5-.9-.5-1.6c-.04 0 0-2.8 0-2.8h1s.04 2.77 0 2.8c0 .4.1.7.3.9c.2.2.5.3.8.3c.3 0 .6-.1.8-.3c.2-.2.3-.5.3-.9c-.04.01 0-2.8 0-2.8h1v2.8s.03-.04 0 0zm1.1 2.1V.7h1.9c.8 0 1.4.2 1.9.7c.5.5.7 1 .7 1.7c0 .7-.2 1.3-.7 1.8c-.5.5-1.1.7-1.9.7h-1.9zm1.9-3.9c.04-.03-.8 0-.8 0v2.9s.84.03.8 0c.5 0 .8-.1 1.1-.4c.3-.2.4-.6.4-1v-.1c0-.4-.1-.7-.4-1c-.3-.3-.6-.4-1.1-.4zm3.6 3.9V.7h1.9c.8 0 1.4.2 1.9.7c.5.5.7 1 .7 1.7c0 .7-.2 1.3-.7 1.8c-.5.5-1.1.7-1.9.7h-1.9zm1.9-3.9c.02-.03-.8 0-.8 0v2.9s.82.03.8 0c.5 0 .8-.1 1.1-.4c.3-.2.4-.6.4-1v-.1c0-.4-.1-.7-.4-1c-.3-.3-.6-.4-1.1-.4zm4.5 3.9V3.7l-1.9-3h1.3l1.2 2l1.1-2h1.3l-1.9 2.9v2h-1.1zm5.5-1.7v-1h3v1h-3zm6 1.7V.7h1.1v2.1l2-2.1h1.3l-2 2.1l2.1 2.8h-1.3L36 3.5l-.6.6v1.5h-1.1zm7.2-.4c-.3.3-.7.5-1.2.5c-.3 0-.6-.1-.9-.3c-.2-.2-.4-.5-.4-.9c0-.4.2-.7.4-.9c.3-.2.7-.3 1.2-.3c.3 0 .6.1.9.2v-.1c0-.5-.3-.7-.8-.7c-.4 0-.7.1-1.1.2l-.2-.8c.4-.2.9-.3 1.4-.3c.6 0 1 .1 1.3.4c.3.3.4.7.4 1.2c-.01.02 0 2.2 0 2.2h-1v-.4s-.04-.01 0 0zm-.9-.3c.3 0 .5 0 .7-.1c.1-.2.2-.3.2-.5v-.2c-.2-.1-.5-.2-.7-.2c-.2 0-.4.1-.5.2c-.2.1-.2.2-.2.4c0 .1 0 .2.1.3c.1.1.3.1.4.1zm2.8 1.8V1.8h1.1s-.03.59 0 .6c.3-.4.7-.6 1.1-.6c.5 0 .9.2 1.2.5c.4.3.5.8.5 1.4c0 .6-.1 1.1-.5 1.4c-.3.4-.7.6-1.2.6c-.4 0-.8-.2-1.1-.6c-.03.01 0 1.6 0 1.6h-1.1zm1.1-3c0 .3 0 .6.2.8c.2.2.4.3.7.3c.2 0 .4-.1.6-.3c.2-.2.3-.5.3-.8c0-.3-.1-.5-.3-.7c-.2-.2-.4-.3-.6-.3c-.3 0-.5.1-.7.3c-.2.2-.2.4-.2.7c-.04.02 0 0 0 0c0 0-.04.03 0 0zm3.7 1.9V1.8h1v3.8h-1zm6 .1c-.8 0-1.5-.3-2.1-.8l.7-.8c.4.4.9.6 1.4.6c.2 0 .4 0 .5-.1c.2-.1.2-.2.2-.3v-.1c0-.1 0-.2-.2-.3c-.1-.1-.4-.2-.8-.3c-.2-.1-.5-.1-.6-.2c-.2-.1-.4-.1-.5-.3c-.2-.1-.3-.2-.4-.4c0-.1-.1-.3-.1-.6c0-.4.2-.8.5-1.1c.3-.2.7-.4 1.2-.4c.7 0 1.3.2 1.9.7l-.6.8c-.5-.4-.9-.5-1.3-.5c-.2 0-.3 0-.5.1c-.1.1-.1.2-.1.3c0 .2.1.3.2.4c.1.1.4.2.8.3c.6.1 1 .3 1.2.5c.3.2.4.5.4.9v.1c0 .4-.2.8-.5 1.1c-.3.2-.8.4-1.3.4zm4.7-.3c-.2.2-.5.3-.8.3c-.4 0-.7-.1-.9-.3c-.1-.2-.2-.5-.2-.9c-.03.04 0-1.7 0-1.7h-.5v-1h.5v-.9h1v.9h.9v1h-.9s.03 1.56 0 1.6c0 .2.1.3.4.3c.2 0 .3 0 .5-.1v.8s0 .05 0 0zm2.5.3c-.5 0-1-.2-1.4-.6c-.4-.3-.6-.8-.6-1.4c0-.5.2-1 .6-1.4c.4-.3.9-.5 1.4-.5c.6 0 1.1.2 1.5.5c.4.4.6.9.6 1.4c0 .6-.2 1-.6 1.4c-.4.4-.9.6-1.5.6zm0-.9c.3 0 .6-.1.8-.3c.1-.2.2-.5.2-.8c0-.3-.1-.5-.3-.7c-.1-.2-.4-.3-.7-.3c-.3 0-.5.1-.7.3c-.2.2-.2.4-.2.7c0 .3.1.6.2.8c.2.2.5.3.7.3zm2.8 1.9V1.8h1.1v.6c.3-.4.7-.6 1.2-.6c.4 0 .8.2 1.2.5c.3.3.5.8.5 1.4c0 .6-.2 1.1-.5 1.4c-.4.4-.8.6-1.2.6c-.5 0-.9-.2-1.2-.6v1.6h-1.1zm1.1-3c0 .3.1.6.3.8c.1.2.3.3.6.3c.3 0 .5-.1.6-.3c.2-.2.3-.5.3-.8c0-.3-.1-.5-.3-.7c-.1-.2-.3-.3-.6-.3c-.3 0-.5.1-.6.3c-.2.2-.3.4-.3.7c-.01.02 0 0 0 0c0 0-.01.03 0 0zm7 1.3c-.4.5-.9.7-1.6.7c-.5 0-1-.2-1.4-.6c-.3-.3-.5-.8-.5-1.4c0-.5.2-1 .5-1.4c.4-.3.8-.5 1.3-.5c.6 0 1.1.2 1.4.6c.3.4.5.8.5 1.4c0 .1 0 .2-.1.3h-2.6c.1.2.2.4.4.5c.1.2.3.2.6.2c.3 0 .6-.1.9-.4c-.03.04.6.6.6.6c0 0-.03-.02 0 0zm-2.5-1.6h1.6c0-.2-.1-.4-.2-.6c-.2-.1-.3-.2-.6-.2c-.2 0-.4.1-.5.2l-.3.6zm3.5 2.2V1.8h1s.02.8 0 .8c.3-.6.7-.8 1.2-.8c.02-.02 0 1.1 0 1.1c0 0-.04-.01 0 0c-.4 0-.7.1-.9.3c-.2.2-.3.6-.3 1c.02.01 0 1.4 0 1.4h-1zm2.9-4.2v-.9h1.1v.9h-1.1zm0 4.2V1.8h1.1v3.8h-1.1zm6.5.3l-.4.7c-.7-.4-1.2-.8-1.5-1.3c-.3-.5-.5-1-.5-1.7c0-.7.2-1.3.5-1.7c.3-.5.8-1 1.5-1.3l.4.7c-.4.3-.8.7-1 1c-.2.4-.3.8-.3 1.3c0 .5.1.9.3 1.3c.2.3.6.7 1 1zm.7-.3v-.9s1.61-1.29 1.6-1.3c.3-.3.6-.5.7-.6c.1-.2.2-.4.2-.6c0-.2-.1-.3-.2-.4c-.1-.1-.3-.2-.5-.2c-.2 0-.4 0-.5.1c-.1.1-.3.3-.5.6l-.8-.7c.3-.3.6-.6.8-.7c.3-.2.7-.3 1.1-.3c.5 0 .9.2 1.2.4c.3.3.5.7.5 1.1v.1c0 .3-.1.7-.3.9c-.2.3-.5.6-1 1c-.04-.05-.8.6-.8.6h2.1v.9h-3.6zM87.7 3l-.1-.5c.5 0 .7-.3.7-.7c0 .02-.4 0-.4 0V.7h1.1v.9c0 .5-.1.8-.3 1c-.2.2-.6.3-1 .4zm2.2 2.6V.5h1.1v5.1h-1.1zM92 1.4v-.9h1.1v.9H92zm0 4.2V1.8h1.1v3.8H92zm6.1.1c-.9 0-1.5-.3-2.1-.8l.6-.8c.5.4 1 .6 1.5.6c.2 0 .4 0 .5-.1c.1-.1.2-.2.2-.3v-.1c0-.1-.1-.2-.2-.3c-.1-.1-.4-.2-.8-.3c-.3-.1-.5-.1-.7-.2c-.2-.1-.3-.1-.5-.3c-.1-.1-.2-.2-.3-.4c-.1-.1-.1-.3-.1-.6c0-.4.1-.8.4-1.1c.4-.2.8-.4 1.3-.4c.7 0 1.3.2 1.8.7l-.6.8c-.4-.4-.8-.5-1.2-.5c-.2 0-.4 0-.5.1c-.1.1-.2.2-.2.3c0 .2.1.3.2.4c.2.1.5.2.9.3c.5.1.9.3 1.2.5c.2.2.4.5.4.9v.1c0 .4-.2.8-.5 1.1c-.4.2-.8.4-1.3.4zM104 5c-.4.5-.9.7-1.5.7c-.6 0-1.1-.2-1.4-.6c-.4-.3-.6-.8-.6-1.4c0-.5.2-1 .5-1.4c.4-.3.8-.5 1.4-.5c.5 0 1 .2 1.3.6c.3.4.5.8.5 1.4v.3h-2.6c0 .2.1.4.3.5c.1.2.3.2.6.2c.3 0 .6-.1.9-.4c-.02.04.6.6.6.6c0 0-.01-.02 0 0zm-2.5-1.6h1.6c0-.2-.1-.4-.2-.6c-.1-.1-.3-.2-.5-.2c-.3 0-.4.1-.6.2l-.3.6zm5.6 2c-.3.2-.5.3-.9.3c-.3 0-.6-.1-.8-.3c-.2-.2-.3-.5-.3-.9c.05.04 0-1.7 0-1.7h-.4v-1h.4v-.9h1.1v.9h.9v1h-.9v1.6c0 .2.1.3.4.3c.1 0 .3 0 .5-.1c-.02-.01 0 .8 0 .8c0 0-.02.05 0 0zm1.1 1.2l-.5-.7c.5-.3.8-.7 1-1c.2-.4.3-.8.3-1.3c0-.5-.1-.9-.3-1.3c-.2-.3-.5-.7-1-1l.5-.7c.6.3 1.1.8 1.4 1.3c.3.4.5 1 .5 1.7c0 .7-.2 1.2-.5 1.7c-.3.5-.8.9-1.4 1.3z" stroke="none" fill="#000"/></g></svg>