<?xml version="1.0" standalone="no"?><!DOCTYPE svg PUBLIC "-//W3C//DTD SVG 1.1//EN" "http://www.w3.org/Graphics/SVG/1.1/DTD/svg11.dtd"><svg xmlns="http://www.w3.org/2000/svg" version="1.1" width="150px" height="16.4px" viewBox="0 -3 150 16.4" style="top:-3px"><desc>1015592 1106</desc><defs/><g id="Polygon379880"><path d="m3.3 5.6V1.8l-.8.2l-.2-.9L3.7.7h.7v4.9H3.3zm4.3.1C7 5.7 6.4 5.4 6 5c-.4-.5-.6-1.1-.6-1.8v-.1c0-.7.2-1.3.6-1.8C6.4.9 7 .6 7.6.6c.7 0 1.2.3 1.6.7c.4.5.6 1.1.6 1.8c0 .8-.2 1.4-.6 1.9c-.4.4-1 .7-1.6.7zM6.5 3.1c0 .5.1.9.3 1.2c.2.3.5.4.8.4c.3 0 .6-.1.8-.4c.2-.3.3-.7.3-1.1v-.1c0-.4-.1-.8-.3-1.1c-.2-.3-.5-.4-.8-.4c-.3 0-.6.1-.8.4c-.2.3-.3.7-.3 1.1c.04.04 0 0 0 0c0 0 .04.05 0 0zm4.9 2.5V1.8l-.9.2l-.2-.9l1.4-.4h.7v4.9h-1zm3.8.1c-.7 0-1.3-.3-1.8-.8l.6-.7c.4.3.8.5 1.2.5c.3 0 .5-.1.6-.2c.2-.1.2-.3.2-.5c0-.2-.1-.4-.2-.5c-.2-.1-.4-.2-.6-.2c-.3 0-.6.1-.9.2l-.6-.4l.2-2.4h3v.9h-2.1s-.08.89-.1.9c.2-.1.5-.1.7-.1c.5 0 .9.1 1.2.4c.3.3.5.7.5 1.2c0 .5-.2.9-.5 1.2c-.4.3-.8.5-1.4.5zm4.4 0c-.7 0-1.3-.3-1.8-.8l.6-.7c.4.3.8.5 1.2.5c.3 0 .5-.1.6-.2c.2-.1.2-.3.2-.5c0-.2 0-.4-.2-.5c-.2-.1-.4-.2-.6-.2c-.3 0-.6.1-.9.2l-.6-.4l.2-2.4h3v.9h-2.1s-.07.89-.1.9c.3-.1.5-.1.7-.1c.5 0 .9.1 1.2.4c.3.3.5.7.5 1.2c0 .5-.2.9-.5 1.2c-.4.3-.8.5-1.4.5zm3.3-1.4c.4.3.7.4 1.1.4c.2 0 .4-.1.6-.2c.1-.1.2-.3.3-.4c.1-.2.1-.3.1-.5c-.3.2-.6.3-1 .3c-.5 0-1-.1-1.3-.4c-.3-.3-.4-.7-.4-1.2c0-.5.1-.9.5-1.2c.3-.3.8-.5 1.3-.5c.4 0 .6.1.8.1c.3.1.5.3.6.4c.4.4.6 1.1.6 1.9c0 .8-.2 1.5-.5 2c-.4.4-.9.7-1.6.7c-.6 0-1.2-.2-1.6-.6c-.03 0 .5-.8.5-.8c0 0 .04-.02 0 0zM24.2 3c.2 0 .5 0 .6-.2c.2-.1.2-.3.2-.5c0-.2-.1-.4-.2-.6c-.2-.1-.4-.2-.6-.2c-.3 0-.5.1-.6.2c-.2.2-.3.4-.3.6c0 .2.1.4.3.5c.1.2.3.2.6.2zm2.6 2.6v-.9s1.61-1.29 1.6-1.3c.3-.3.5-.5.7-.6c.1-.2.2-.4.2-.6c0-.2-.1-.3-.2-.4c-.1-.1-.3-.2-.5-.2c-.2 0-.4 0-.5.1c-.1.1-.3.3-.5.6l-.8-.7c.3-.3.6-.6.8-.7c.3-.2.6-.3 1.1-.3c.5 0 .9.2 1.2.4c.3.3.5.7.5 1.1v.1c0 .3-.1.7-.3.9c-.2.3-.6.6-1 1c-.04-.05-.8.6-.8.6h2.1v.9h-3.6zm4.3-1.7v-1h2.2v1h-2.2zm3.6 1.7V1.8l-.9.2l-.2-.9L35 .7h.7v4.9h-1zm2.9 0V1.8l-.8.2l-.2-.9L38 .7h.7v4.9h-1.1zm4.3.1c-.7 0-1.2-.3-1.6-.7c-.4-.5-.6-1.1-.6-1.8v-.1c0-.7.2-1.3.6-1.8c.4-.4 1-.7 1.6-.7c.6 0 1.2.3 1.6.7c.4.5.6 1.1.6 1.8c0 .8-.2 1.4-.6 1.9c-.4.4-1 .7-1.6.7zm-1.1-2.6c0 .5.1.9.3 1.2c.2.3.5.4.8.4c.3 0 .6-.1.8-.4c.2-.3.3-.7.3-1.1v-.1c0-.4-.1-.8-.3-1.1c-.2-.3-.5-.4-.8-.4c-.3 0-.6.1-.8.4c-.2.3-.3.7-.3 1.1c.03.04 0 0 0 0c0 0 .03.05 0 0zm6 2.6c-.6 0-1-.2-1.4-.5c-.4-.4-.6-1-.6-1.9c0-.8.2-1.4.6-1.9c.3-.5.9-.8 1.6-.8c.6 0 1.1.2 1.5.6l-.6.8c-.1-.1-.3-.2-.4-.3c-.2-.1-.4-.1-.6-.1c-.1 0-.3 0-.4.1l-.3.3c-.1.1-.1.3-.2.4v.3c.3-.2.6-.3 1-.3c.5 0 .9.2 1.2.4c.3.3.5.7.5 1.2c0 .5-.2.9-.5 1.2c-.4.3-.8.5-1.4.5zM45.9 4c0 .2.1.4.3.6c.1.1.3.2.6.2c.2 0 .5-.1.6-.2c.2-.2.2-.3.2-.6c0-.2 0-.4-.2-.5c-.2-.1-.4-.2-.6-.2c-.3 0-.5.1-.6.2c-.2.1-.3.3-.3.5c.03.02 0 0 0 0c0 0 .03.03 0 0z" stroke="none" fill="#000"/></g></svg>