<?xml version="1.0" standalone="no"?><!DOCTYPE svg PUBLIC "-//W3C//DTD SVG 1.1//EN" "http://www.w3.org/Graphics/SVG/1.1/DTD/svg11.dtd"><svg xmlns="http://www.w3.org/2000/svg" version="1.1" width="256.1px" height="394.4px" viewBox="0 -3 256.1 394.4" style="top:-3px"><desc>DROPLET – Banyo Koleksiyonu ( effaf) Kal planm akrilik malzemeden banyo aksesuarlar . Tasar m: Michelle Ivankovic S...</desc><defs/><g id="Polygon418855"><path d="m3.3 330.2v-.6h.7v.6h-.7zm-1.3 0v-.6h.6v.6h-.6zm3.5 2.9c0 .7-.3 1.3-.7 1.8c-.5.5-1.1.8-1.8.8c-.8 0-1.4-.3-1.8-.8c-.5-.4-.7-1-.7-1.7v-.1c0-.6.2-1.2.7-1.7c.5-.5 1.1-.8 1.8-.8c.7 0 1.3.3 1.8.8c.4.4.7 1 .7 1.7c-.03.04 0 0 0 0c0 0-.03.05 0 0zm-4.4 0c0 .6.1 1.1.5 1.5c.4.4.8.6 1.4.6c.5 0 1-.2 1.4-.6c.3-.4.5-.9.5-1.4v-.1c0-.5-.2-1-.5-1.4c-.4-.4-.9-.6-1.4-.6c-.6 0-1 .2-1.4.6c-.4.4-.5.9-.5 1.4c-.05.04 0 0 0 0c0 0-.05.05 0 0zm5.5 2.5v-5.1h.5v5.1h-.5zm3.1 1.1l-.6-.3s.59-.75.6-.8c-.5 0-.8-.2-1.1-.6c-.3-.3-.4-.7-.4-1.2c0-.5.1-1 .5-1.3c.4-.4.8-.6 1.3-.6c.6 0 1.1.2 1.5.6l-.4.4c-.3-.3-.7-.5-1.1-.5c-.4 0-.7.1-.9.4c-.3.3-.4.6-.4 1c0 .4.1.7.4 1c.3.3.6.4 1 .4c.4 0 .7-.2 1.1-.5l.3.3c-.4.4-.8.7-1.4.7c.03-.02-.4 1-.4 1zm4.5-5.3v-.6h.6v.6h-.6zm-1.2 0v-.6h.6v.6h-.6zm1.9 3.6c-.3.4-.7.7-1.2.7c-.4 0-.8-.2-1-.4c-.3-.3-.4-.6-.4-1.1c.01.03 0-2.2 0-2.2h.5s.04 2.09 0 2.1c0 .3.1.6.3.8c.2.2.4.3.7.3c.4 0 .6-.1.8-.3c.2-.2.3-.5.3-.8c.03-.05 0-2.1 0-2.1h.6v3.6h-.6v-.6s.03-.03 0 0zm1.8.6v-5.1h.6v5.1h-.6zm4.9-.6c-.4.5-.9.7-1.5.7c-.5 0-.9-.2-1.3-.5c-.3-.4-.5-.8-.5-1.4c0-.5.2-1 .5-1.4c.3-.3.7-.5 1.2-.5c.5 0 1 .2 1.3.5c.3.4.4.9.4 1.4v.2h-2.9c.1.4.2.7.5.9c.2.2.5.3.8.3c.4 0 .8-.2 1.2-.5c-.05 0 .3.3.3.3c0 0-.01 0 0 0zm-2.8-1.4h2.4c-.1-.4-.2-.7-.4-.9c-.2-.2-.4-.3-.8-.3c-.3 0-.6.1-.8.3c-.2.2-.3.5-.4.9zm3.9 2V332h.5v.9c.1-.3.3-.5.6-.7c.2-.2.5-.3.9-.3c-.03.02 0 .6 0 .6h-.1c-.4 0-.7.1-1 .4c-.3.3-.4.7-.4 1.3v1.4h-.5zm2.8-2.9v-.7h.6v.7h-.6zm0 2.9v-.7h.6v.7h-.6zm4.1-.9c.4.3.8.5 1.2.5c.5 0 .9-.2 1.1-.6c.3-.4.4-.9.4-1.5v-.1c-.3.6-.8.8-1.4.8c-.5 0-.9-.1-1.2-.4c-.3-.3-.5-.7-.5-1.1c0-.5.2-.9.5-1.2c.3-.3.8-.5 1.3-.5c.5 0 .9.2 1.3.5c.4.4.6 1.1.6 1.9c0 .8-.2 1.4-.6 1.9c-.4.5-.9.8-1.5.8c-.5 0-1-.2-1.5-.6l.3-.4s.04-.05 0 0zm1.4-1.4c.3 0 .6-.1.9-.3c.2-.2.3-.5.3-.8c0-.3-.1-.6-.4-.8c-.2-.2-.5-.3-.8-.3c-.4 0-.7.1-.9.3c-.2.3-.3.5-.3.9c0 .3.1.5.3.7c.2.2.5.3.9.3zm7.9 1.7v.6h-.3v-.6h-1.4v-.3l1.3-1.9h.4v1.9h.4v.3h-.4zm-.3-.3v-1.4l-1.1 1.4h1.1zm-3.9.9l1.8-2.5l1.6-2.4h.3l-1.7 2.5l-1.6 2.4h-.4zm0-2.1c-.4 0-.8-.2-1-.5l.2-.3c.2.3.5.4.8.4c.1 0 .3 0 .4-.1c.1-.1.2-.2.2-.4c0-.1-.1-.2-.2-.3c-.2-.1-.3-.2-.6-.2c.04.05-.2 0-.2 0l-.1-.2l.9-.9h-1.3v-.3h1.8v.3s-.88.85-.9.9c.3 0 .5 0 .7.2c.1.1.2.3.2.5c0 .3-.1.5-.2.6c-.2.2-.5.3-.7.3zm6.7-1.2v-.3c.3-.1.5-.3.4-.6c.02.03-.2 0-.2 0v-.7h.6v.6c0 .3-.1.5-.2.7c-.1.1-.3.2-.6.3zm-1.4 0v-.3c.3-.1.5-.3.4-.6c.02.03-.2 0-.2 0v-.7h.6s.02.63 0 .6c0 .3 0 .5-.2.7c-.1.1-.3.2-.6.3zm8.2 2.4l-1.2-1.2l-1.2 1.2l-.4-.3l1.3-1.3l-1.3-1.2l.4-.3l1.2 1.2l1.2-1.2l.4.3l-1.3 1.2l1.3 1.2l-.4.4zm5.4 1c-.5 0-.9-.2-1.3-.5c-.2-.2-.3-.5-.4-.8c-.1-.3-.2-.6-.2-1.1c0-.8.2-1.4.6-1.9c.3-.5.8-.8 1.5-.8c.5 0 1 .2 1.4.6l-.3.4c-.4-.3-.8-.5-1.2-.5c-.4 0-.8.2-1 .6c-.3.4-.4.9-.4 1.5v.1c.3-.5.8-.8 1.4-.8c.5 0 .9.2 1.2.5c.3.2.5.6.5 1v.1c0 .4-.2.8-.5 1.1c-.4.3-.8.5-1.3.5zm0-.5c.4 0 .7-.1.9-.3c.2-.2.3-.5.3-.8c0-.3-.1-.6-.3-.8c-.3-.2-.5-.3-.9-.3c-.3 0-.6.1-.9.3c-.2.3-.3.5-.3.8c0 .3.1.6.3.8c.3.2.6.3.9.3zm7.8-.2v.6h-.3v-.6h-1.3l-.1-.3l1.3-1.9h.4v1.9h.4v.3h-.4zm-.3-.3v-1.4l-1.1 1.4h1.1zm-3.8.9l1.7-2.5l1.6-2.4h.4l-1.8 2.5l-1.6 2.4h-.3zm-.1-2.1c-.4 0-.7-.2-1-.5l.2-.3c.2.3.5.4.8.4c.2 0 .3 0 .4-.1c.1-.1.2-.2.2-.4c0-.1-.1-.2-.2-.3c-.2-.1-.3-.2-.5-.2c-.04.05-.3 0-.3 0v-.2l.8-.9h-1.3v-.3h1.8v.3l-.9.9c.3 0 .5 0 .7.2c.2.1.2.3.2.5c0 .3 0 .5-.2.6c-.2.2-.4.3-.7.3zm6.8-1.2l-.1-.3c.3-.1.5-.3.4-.6c.04.03-.2 0-.2 0v-.7h.6s.03.63 0 .6c0 .3 0 .5-.2.7c-.1.1-.3.2-.5.3zm-1.4 0l-.1-.3c.3-.1.5-.3.4-.6c.04.03-.2 0-.2 0v-.7h.6s.04.63 0 .6c0 .3 0 .5-.2.7c-.1.1-.3.2-.5.3zm8.1 2.4l-1.2-1.2l-1.2 1.2l-.4-.3l1.3-1.3l-1.3-1.2l.4-.3l1.2 1.2l1.2-1.2l.4.3l-1.2 1.2l1.2 1.2l-.4.4zm9.1.2c0 .2-.1.4-.3.5c-.2.2-.4.3-.7.3c-.3 0-.6-.1-.7-.2c-.2-.2-.3-.4-.3-.6c0-.3.1-.6.5-.7c-.3-.1-.4-.4-.4-.6c0-.2 0-.4.2-.6c.2-.1.4-.2.7-.2c.2 0 .5.1.6.2c.2.2.3.4.3.6c0 .3-.1.5-.4.6c.3.1.5.4.5.7zm-1-1.8c-.2 0-.3.1-.4.2c-.1 0-.2.2-.2.3c0 .1.1.2.2.3c.1.1.2.2.4.2c.1 0 .3-.1.4-.2c.1-.1.2-.2.2-.3c0-.1-.1-.3-.2-.3c-.1-.1-.2-.2-.4-.2zm.5 1.4c-.2-.1-.3-.1-.5-.1c-.2 0-.4 0-.5.1c-.1.1-.2.2-.2.4c0 .1.1.2.2.3c.1.1.3.2.5.2c.2 0 .3-.1.5-.2c.1-.1.1-.2.1-.3c0-.2 0-.3-.1-.4zm-4.4-1.1h-.4l1.2-2.4h-1.4v-.3h1.9v.3l-1.3 2.4zm0 2.2l1.7-2.5l1.6-2.4h.4l-1.7 2.5l-1.6 2.4h-.4zm7-3.3v-.3c.3-.1.5-.3.4-.6c.03.03-.2 0-.2 0v-.7h.6s.02.63 0 .6c0 .3 0 .5-.2.7c-.1.1-.3.2-.6.3zm-1.4 0v-.3c.3-.1.5-.3.4-.6c.03.03-.2 0-.2 0v-.7h.6s.02.63 0 .6c0 .3 0 .5-.2.7c-.1.1-.3.2-.6.3zm5.8 1.3c0 1.1.6 1.9 1.7 2.6l-.3.4c-1.3-.7-1.9-1.7-1.9-3c0-1.3.6-2.3 1.9-3l.3.4c-1.1.6-1.7 1.5-1.7 2.6c.04-.01 0 0 0 0c0 0 .04 0 0 0zm2.4 2v-.4s1.77-1.6 1.8-1.6c.4-.3.6-.6.8-.8c.1-.3.2-.5.2-.7c0-.3-.1-.5-.3-.7c-.2-.2-.4-.3-.7-.3c-.3 0-.5.1-.7.2c-.2.2-.4.4-.6.7l-.4-.3c.2-.4.5-.7.7-.8c.3-.2.6-.3 1.1-.3c.4 0 .8.2 1 .4c.3.3.5.6.5 1c0 .4-.1.7-.3.9c-.2.3-.5.6-1 1c.03.03-1.3 1.2-1.3 1.2h2.6v.5h-3.4zm6.7 0v-1.2h-2.6l-.1-.4l2.7-3.3h.5v3.3h.8v.4h-.8v1.2h-.5zm-2.1-1.6h2.1v-2.6l-2.1 2.6zm4.2 2.5l-.1-.3c.3-.1.5-.3.5-.6h-.3v-.7h.7s-.05.59 0 .6c0 .3-.1.5-.2.6c-.2.2-.4.3-.6.4zm5.3-2.2c0 .4-.1.7-.5 1c-.3.2-.8.4-1.3.4c-.5 0-1-.2-1.3-.4c-.4-.3-.6-.6-.6-1c0-.3.1-.6.3-.8c.2-.2.4-.3.8-.4c-.6-.3-.9-.7-.9-1.2c0-.3.2-.7.5-.9c.3-.2.7-.4 1.2-.4c.4 0 .8.2 1.2.4c.3.2.5.6.5.9c0 .5-.3.9-.9 1.2c.3.1.6.2.8.4c.1.2.2.5.2.8c.03-.04 0 0 0 0c0 0 .03-.02 0 0zm-2.9-2.3c0 .2.1.4.3.6c.2.2.5.3.8.3c.3 0 .6-.1.8-.3c.2-.2.3-.4.3-.6c0-.3-.1-.5-.3-.6c-.2-.2-.5-.3-.8-.3c-.3 0-.6.1-.8.3c-.2.1-.3.3-.3.6c-.03-.04 0 0 0 0c0 0-.03-.03 0 0zm-.2 2.3c0 .2.1.4.4.6c.2.2.5.3.9.3c.4 0 .7-.1.9-.3c.3-.2.4-.4.4-.6c0-.3-.2-.5-.4-.7c-.2-.2-.6-.3-.9-.3c-.4 0-.7.1-.9.3c-.3.2-.4.4-.4.7c.01-.04 0 0 0 0c0 0 .01-.03 0 0zm9 .4l-1.2-1.2l-1.2 1.2l-.4-.3l1.2-1.3l-1.2-1.2l.4-.3l1.2 1.2l1.2-1.2l.4.3l-1.3 1.2l1.3 1.2l-.4.4zm4.3.9v-4.4l-.9.3l-.1-.4l1.2-.4h.4v4.9h-.6zm3.4.1c-.7 0-1.2-.3-1.8-.8l.4-.4c.5.5.9.7 1.4.7c.3 0 .6-.1.9-.3c.2-.2.3-.5.3-.8c0-.3-.1-.6-.4-.8c-.2-.2-.5-.2-.8-.2c-.4 0-.7 0-1.1.2l-.3-.2l.1-2.4h2.8v.5h-2.3s-.12 1.58-.1 1.6c.3-.2.6-.2 1-.2c.4 0 .8.1 1.2.4c.3.2.4.6.4 1.1c0 .4-.1.8-.4 1.1c-.4.3-.8.5-1.3.5zm2.6.8l-.1-.3c.3-.1.5-.3.4-.6h-.2v-.7h.6s.04.59 0 .6c0 .3 0 .5-.1.6c-.2.2-.4.3-.6.4zm1.6-.9v-.4l1.8-1.6c.4-.3.6-.6.8-.8c.1-.3.2-.5.2-.7c0-.3-.1-.5-.3-.7c-.2-.2-.4-.3-.7-.3c-.2 0-.5.1-.7.2c-.2.2-.4.4-.6.7l-.4-.3c.2-.4.5-.7.8-.8c.2-.2.6-.3 1-.3c.4 0 .8.2 1.1.4c.2.3.4.6.4 1c0 .4-.1.7-.3.9c-.2.3-.5.6-1 1c.04.03-1.3 1.2-1.3 1.2h2.6v.5h-3.4zm9.4-.9l-1.3-1.2l-1.2 1.2l-.3-.3l1.2-1.3l-1.2-1.2l.3-.3l1.3 1.2l1.2-1.2l.3.3l-1.2 1.2l1.2 1.2l-.3.4zm3.4.9v-.4s1.75-1.6 1.8-1.6l.8-.8c.1-.3.2-.5.2-.7c0-.3-.1-.5-.3-.7c-.2-.2-.4-.3-.7-.3c-.3 0-.5.1-.7.2c-.2.2-.4.4-.6.7l-.4-.3c.2-.4.5-.7.7-.8c.3-.2.6-.3 1-.3c.5 0 .8.2 1.1.4c.3.3.5.6.5 1c0 .4-.1.7-.3.9c-.2.3-.5.6-1 1c.01.03-1.3 1.2-1.3 1.2h2.6v.5h-3.4zm4.2.9v-.3c.3-.1.5-.3.4-.6h-.2v-.7h.6s.02.59 0 .6c0 .3 0 .5-.2.6c-.1.2-.3.3-.6.4zm2.3-.9v-4.4l-1 .3l-.1-.4l1.2-.4h.4v4.9h-.5zm7-.6c-.4.5-.9.7-1.5.7c-.5 0-.9-.2-1.3-.6c-.3-.3-.5-.8-.5-1.3c0-.5.2-1 .5-1.3c.4-.4.8-.6 1.3-.6c.6 0 1.1.2 1.5.6l-.4.4c-.3-.3-.7-.5-1.1-.5c-.3 0-.6.1-.9.4c-.2.3-.4.6-.4 1c0 .4.2.7.4 1c.3.3.6.4 1 .4c.4 0 .7-.2 1.1-.5l.3.3s.01-.02 0 0zm.9.6V332h.5s.04.59 0 .6c.2-.2.3-.4.5-.5c.2-.1.4-.2.7-.2c.6 0 .9.2 1.2.7c.3-.5.7-.7 1.2-.7c.5 0 .8.1 1 .4c.3.3.4.6.4 1.1c-.01-.04 0 2.2 0 2.2h-.5s-.05-2.11 0-2.1c0-.4-.1-.6-.3-.8c-.2-.2-.4-.3-.7-.3c-.3 0-.5.1-.7.3c-.2.2-.3.5-.3.8v2.1h-.5s-.02-2.13 0-2.1c0-.4-.1-.6-.3-.8c-.1-.2-.4-.3-.7-.3c-.2 0-.5.1-.7.3c-.2.2-.3.5-.3.8c.04.03 0 2.1 0 2.1h-.5zm8.6-2c0 1.3-.6 2.3-1.9 3l-.3-.4c1.1-.7 1.7-1.5 1.7-2.6c0-1.1-.6-2-1.7-2.6l.3-.4c1.3.7 1.9 1.7 1.9 3c0-.01 0 0 0 0z" stroke="none" fill="#000"/></g><g id="Polygon418854"><path d="m3 320.3v-.7h.6v.7h-.6zm-1.3 0v-.7h.6v.7h-.6zm1 5.4c-.7 0-1.2-.2-1.5-.6c-.4-.4-.6-.9-.6-1.6c.02.05 0-2.8 0-2.8h.6s-.03 2.81 0 2.8c0 .5.1.9.4 1.2c.2.3.6.5 1.1.5c.4 0 .8-.2 1.1-.4c.2-.3.3-.7.3-1.3c.04.05 0-2.8 0-2.8h.6v2.8c0 .7-.2 1.2-.6 1.6c-.3.4-.8.6-1.4.6zm3.2-.1V322h.6s-.05.93 0 .9c.1-.3.3-.5.5-.7c.3-.2.6-.3.9-.3c.03.02 0 .6 0 .6c0 0-.01 0 0 0c-.4 0-.8.1-1 .4c-.3.3-.4.7-.4 1.3c-.05-.04 0 1.4 0 1.4h-.6zm4.7-4.2v-.6h.6v.6h-.6zm-1.3 0v-.6h.7v.6h-.7zm2 3.6c-.3.4-.7.7-1.2.7c-.4 0-.8-.2-1-.4c-.3-.3-.4-.6-.4-1.1c-.01.03 0-2.2 0-2.2h.5s.03 2.09 0 2.1c0 .3.1.6.3.8c.2.2.4.3.7.3c.3 0 .6-.1.8-.3c.2-.2.3-.5.3-.8c.02-.05 0-2.1 0-2.1h.6v3.6h-.6v-.6s.02-.03 0 0zm1.8.6V322h.5v.6c.3-.5.7-.7 1.2-.7c.5 0 .8.1 1.1.4c.2.3.3.6.3 1.1c.03-.05 0 2.2 0 2.2h-.5v-2.1c0-.4-.1-.6-.3-.8c-.2-.2-.4-.3-.7-.3c-.3 0-.6.1-.8.3c-.2.2-.3.5-.3.8v2.1h-.5zm6.5 0v-4.9h.5v2.9l2.8-2.9h.8l-2.2 2.1l2.2 2.8h-.7l-1.8-2.4l-1.1 1.1v1.3h-.5zm6.3.1c-.5 0-.9-.2-1.3-.6c-.3-.3-.5-.8-.5-1.3c0-.5.2-1 .5-1.3c.4-.4.8-.6 1.4-.6c.5 0 .9.2 1.3.6c.4.3.5.8.5 1.3c0 .5-.1 1-.5 1.3c-.4.4-.8.6-1.4.6zm.1-.5c.3 0 .7-.1.9-.4c.3-.3.4-.6.4-1c0-.4-.1-.7-.4-1c-.3-.3-.6-.4-1-.4c-.3 0-.7.1-.9.4c-.2.3-.4.6-.4 1c0 .4.2.7.4 1c.3.3.6.4 1 .4zm5.7-.3c-.3.5-.8.8-1.4.8c-.4 0-.8-.2-1.2-.5c-.3-.4-.5-.8-.5-1.4c0-.6.2-1 .5-1.4c.4-.3.8-.5 1.2-.5c.6 0 1.1.3 1.4.8c.02-.03 0-2.2 0-2.2h.6v5.1h-.6v-.7s.02-.03 0 0zm-1.3.3c.4 0 .7-.1 1-.4c.2-.3.3-.6.3-1c0-.4-.1-.8-.3-1c-.3-.3-.6-.4-1-.4c-.3 0-.6.1-.9.4c-.2.2-.3.6-.3 1c0 .4.1.8.3 1c.3.3.6.4.9.4zm5.6-.2c-.3.4-.7.7-1.2.7c-.4 0-.8-.2-1-.4c-.3-.3-.4-.6-.4-1.1c.01.03 0-2.2 0-2.2h.5s.05 2.09 0 2.1c0 .3.1.6.3.8c.2.2.4.3.8.3c.3 0 .5-.1.7-.3c.2-.2.3-.5.3-.8c.04-.05 0-2.1 0-2.1h.6v3.6h-.6v-.6s.04-.03 0 0zm1.7-2.3v-.7h.7v.7h-.7zm0 2.9v-.7h.7v.7h-.7zm4.6 0v-3.8l-.9.2l-.2-.9l1.4-.4h.8v4.9h-1.1zm4.3.1c-.7 0-1.2-.3-1.6-.7c-.4-.5-.6-1.1-.6-1.8v-.1c0-.7.2-1.3.6-1.8c.4-.4.9-.7 1.6-.7c.6 0 1.1.3 1.5.7c.4.5.6 1.1.6 1.8c0 .8-.2 1.4-.6 1.9c-.4.4-.9.7-1.5.7zm-1.1-2.6c0 .5.1.9.3 1.2c.2.3.4.4.8.4c.3 0 .6-.1.7-.4c.2-.3.3-.7.3-1.1v-.1c0-.4-.1-.8-.3-1.1c-.2-.3-.4-.4-.7-.4c-.4 0-.6.1-.8.4c-.2.3-.3.7-.3 1.1c-.01.04 0 0 0 0c0 0-.01.05 0 0zm6.2 2.6c-.7 0-1.2-.3-1.6-.7c-.4-.5-.6-1.1-.6-1.8v-.1c0-.7.2-1.3.6-1.8c.4-.4.9-.7 1.6-.7c.6 0 1.1.3 1.5.7c.4.5.7 1.1.7 1.8c0 .8-.3 1.4-.7 1.9c-.4.4-.9.7-1.5.7zm-1.1-2.6c0 .5.1.9.3 1.2c.2.3.5.4.8.4c.3 0 .6-.1.8-.4c.1-.3.2-.7.2-1.1v-.1c0-.4-.1-.8-.3-1.1c-.2-.3-.4-.4-.7-.4c-.4 0-.6.1-.8.4c-.2.3-.3.7-.3 1.1c0 .04 0 0 0 0c0 0 0 .05 0 0zm5.8 2.6c-.7 0-1.4-.3-1.9-.8l.7-.7c.4.3.8.5 1.1.5c.3 0 .5-.1.7-.2c.1-.1.2-.3.2-.5c0-.2-.1-.4-.3-.5c-.1-.1-.3-.2-.6-.2c-.3 0-.6.1-.8.2c-.02.03-.6-.4-.6-.4l.1-2.4h3v.9h-2.1s-.03.89 0 .9c.2-.1.4-.1.6-.1c.5 0 .9.1 1.2.4c.4.3.5.7.5 1.2c0 .5-.1.9-.5 1.2c-.3.3-.8.5-1.3.5zm2.6-.1l2.2-4h-2.3v-.9h3.5v.8l-2.2 4.1H59zm5.9.1c-.6 0-1-.2-1.4-.4c-.3-.3-.5-.6-.5-1v-.1c0-.2.1-.5.2-.7c.1-.2.3-.3.6-.4c-.4-.3-.6-.6-.6-1.1c0-.4.1-.7.5-1c.3-.2.7-.4 1.2-.4c.5 0 .9.2 1.2.4c.4.3.5.6.5 1c0 .5-.2.8-.6 1.1c.3.1.5.3.6.4c.1.2.2.4.2.7c0 .5-.2.8-.5 1.1c-.4.2-.8.4-1.4.4zm-.7-3.6c0 .2.1.3.2.4c.1.1.3.2.5.2c.2 0 .4-.1.5-.2c.1-.1.2-.2.2-.4c0-.2-.1-.3-.2-.4c-.1-.1-.3-.2-.5-.2c-.2 0-.4.1-.5.2c-.1.1-.2.2-.2.4c0-.01 0 0 0 0zm.7 2.7c.3 0 .5-.1.6-.2c.2-.1.2-.3.2-.4c0-.2 0-.4-.2-.5c-.1-.1-.4-.1-.6-.1c-.3 0-.5 0-.6.1c-.2.1-.3.3-.3.5c0 .1.1.3.3.4c.1.1.3.2.6.2zm4.6.9c-.6 0-1.1-.2-1.4-.5c-.4-.4-.6-1-.6-1.9c0-.8.2-1.4.5-1.9c.4-.5.9-.8 1.6-.8c.6 0 1.1.2 1.6.6l-.6.8c-.2-.1-.3-.2-.5-.3c-.1-.1-.3-.1-.5-.1c-.2 0-.3 0-.5.1l-.3.3c0 .1-.1.3-.1.4c-.1.1-.1.2-.1.3c.3-.2.7-.3 1-.3c.5 0 .9.2 1.3.4c.3.3.4.7.4 1.2c0 .5-.1.9-.5 1.2c-.3.3-.8.5-1.3.5zm-.9-1.7c0 .2.1.4.2.6c.2.1.4.2.6.2c.3 0 .5-.1.6-.2c.2-.2.3-.3.3-.6c0-.2-.1-.4-.3-.5c-.1-.1-.3-.2-.6-.2c-.2 0-.4.1-.6.2c-.1.1-.2.3-.2.5c-.02.02 0 0 0 0c0 0-.02.03 0 0zm3.5-.1v-1h2.1v1h-2.1zm3.5 1.7v-3.8l-.8.2l-.3-.9l1.5-.4h.7v4.9h-1.1zm4.1.1c-.6 0-1.1-.2-1.4-.5c-.4-.4-.6-1-.6-1.9c0-.8.2-1.4.6-1.9c.3-.5.9-.8 1.6-.8c.5 0 1 .2 1.5.6l-.6.8c-.1-.1-.3-.2-.5-.3c-.1-.1-.3-.1-.5-.1c-.1 0-.3 0-.4.1c-.2.1-.3.2-.3.3c-.1.1-.2.3-.2.4c0 .1-.1.2-.1.3c.4-.2.7-.3 1.1-.3c.5 0 .9.2 1.2.4c.3.3.5.7.5 1.2c0 .5-.2.9-.6 1.2c-.3.3-.8.5-1.3.5zm-.9-1.7c0 .2.1.4.2.6c.2.1.4.2.7.2c.2 0 .4-.1.6-.2c.1-.2.2-.3.2-.6c0-.2-.1-.4-.2-.5c-.2-.1-.4-.2-.6-.2c-.3 0-.5.1-.7.2c-.1.1-.2.3-.2.5c.01.02 0 0 0 0c0 0 .01.03 0 0zm5.3 1.7c-.7 0-1.3-.3-1.8-.8l.6-.7c.4.3.8.5 1.2.5c.2 0 .4-.1.6-.2c.1-.1.2-.3.2-.5c0-.2-.1-.4-.2-.5c-.2-.1-.4-.2-.7-.2c-.2 0-.5.1-.8.2c.02.03-.6-.4-.6-.4l.1-2.4h3v.9h-2l-.1.9c.2-.1.4-.1.7-.1c.5 0 .9.1 1.2.4c.3.3.5.7.5 1.2c0 .5-.2.9-.5 1.2c-.4.3-.8.5-1.4.5z" stroke="none" fill="#000"/></g><g id="Polygon418853"><path d="m.6 315.6v-4.9h2.3c.5 0 1 .1 1.2.4c.3.3.4.5.4.9c0 .5-.2.8-.7 1c.3.2.6.3.7.5c.2.2.3.4.3.7v.1c0 .4-.2.7-.5 1c-.4.2-.8.3-1.4.3H.6zm2-2.9c.6 0 .8-.2.8-.5v-.1c0-.3-.2-.5-.7-.5c0 .04-1.1 0-1.1 0v1.1h1s.03-.02 0 0zm.3 2c.5 0 .8-.2.8-.6c0-.3-.3-.5-.8-.5c-.02-.02-1.3 0-1.3 0v1.1h1.3s.02-.05 0 0zm4.8.5c-.3.3-.6.5-1.1.5c-.4 0-.7-.1-.9-.3c-.3-.2-.4-.5-.4-.9c0-.4.1-.7.4-.9c.3-.2.7-.3 1.1-.3c.3 0 .6.1.9.2v-.1c0-.5-.2-.7-.8-.7c-.3 0-.7.1-1 .2l-.3-.8c.5-.2 1-.3 1.5-.3c.5 0 1 .1 1.3.4c.2.3.4.7.4 1.2c-.04.02 0 2.2 0 2.2H7.7v-.4s.03-.01 0 0zm-.8-.3c.3 0 .5 0 .6-.1c.2-.2.2-.3.2-.5v-.2c-.2-.1-.4-.2-.6-.2c-.3 0-.4.1-.6.2c-.1.1-.2.2-.2.4c0 .1.1.2.2.3c.1.1.2.1.4.1zm2.8.7v-3.8h1s.04.58 0 .6c.4-.4.7-.6 1.1-.6c.4 0 .8.1 1 .3c.2.3.3.6.3 1.1v2.4H12s.05-2.09 0-2.1c0-.5-.2-.8-.6-.8c-.2 0-.4.1-.5.2c-.1.2-.2.4-.2.6c.04.01 0 2.1 0 2.1h-1zm5.9-1.2l.8-2.6h1.1s-1.44 3.89-1.4 3.9c-.2.4-.3.6-.5.8c-.2.2-.5.2-.8.2c-.3 0-.6 0-.9-.2l.3-.8c.2.1.4.2.5.2c.1 0 .2-.1.2-.1c.1 0 .1-.1.2-.2c-.04.01-1.5-3.8-1.5-3.8h1.1l.9 2.6zm4.2 1.3c-.6 0-1.1-.2-1.5-.6c-.4-.3-.6-.8-.6-1.4c0-.5.2-1 .6-1.4c.4-.3.9-.5 1.5-.5c.5 0 1 .2 1.4.5c.4.4.6.9.6 1.4c0 .6-.2 1-.6 1.4c-.4.4-.9.6-1.4.6zm0-.9c.3 0 .5-.1.7-.3c.2-.2.2-.5.2-.8c0-.3 0-.5-.2-.7c-.2-.2-.4-.3-.7-.3c-.3 0-.6.1-.7.3c-.2.2-.3.4-.3.7c0 .3.1.6.3.8c.1.2.4.3.7.3zm6.1.8v-3.9h-1.5v-1h4.1v1H27v3.9h-1.1zm5.9-.6c-.4.5-.9.7-1.6.7c-.5 0-1-.2-1.4-.6c-.3-.3-.5-.8-.5-1.4c0-.5.2-1 .5-1.4c.4-.3.8-.5 1.3-.5c.6 0 1.1.2 1.4.6c.3.4.5.8.5 1.4v.3h-2.7c.1.2.2.4.4.5c.1.2.3.2.6.2c.3 0 .6-.1.9-.4c-.03.04.6.6.6.6c0 0-.02-.02 0 0zm-2.5-1.6h1.6c0-.2-.1-.4-.2-.6c-.2-.1-.3-.2-.6-.2c-.2 0-.4.1-.5.2l-.3.6zm3.5 3.3v-4.9h1s.02.59 0 .6c.3-.4.7-.6 1.2-.6c.5 0 .9.2 1.2.5c.3.3.5.8.5 1.4c0 .6-.2 1.1-.5 1.4c-.3.4-.7.6-1.2.6c-.5 0-.9-.2-1.2-.6c.02.01 0 1.6 0 1.6h-1zm1-3c0 .3.1.6.3.8c.1.2.4.3.6.3c.3 0 .5-.1.7-.3c.1-.2.2-.5.2-.8c0-.3-.1-.5-.2-.7c-.2-.2-.4-.3-.7-.3c-.2 0-.5.1-.6.3c-.2.2-.3.4-.3.7c.01.02 0 0 0 0c0 0 .01.03 0 0zm5 2c-.6 0-1.1-.2-1.6-.6l.4-.7c.5.3.9.5 1.2.5c.3 0 .5-.1.5-.3v-.1l-.1-.1s-.1 0-.1-.1h-.1c-.1 0-.1-.1-.2-.1h-.1c-.1 0-.2-.1-.2-.1c-.2 0-.3-.1-.4-.1c-.1-.1-.2-.1-.4-.2c-.1-.1-.2-.2-.2-.3c-.1-.2-.1-.3-.1-.5c0-.4.1-.7.4-.9c.2-.2.6-.3 1-.3c.4 0 .9.1 1.4.4l-.5.8c-.4-.3-.7-.4-1-.4c-.1 0-.2 0-.3.1c0 0-.1.1-.1.2c0 .1.1.1.2.2c.2.1.3.2.6.2c.2.1.3.1.4.2c.1 0 .2.1.4.2c.1.1.2.2.2.3c.1.1.1.3.1.4v.1c0 .4-.1.7-.4.9c-.2.2-.6.3-1 .3zm2.2-4.3v-.9h1.1v.9H41zm0 4.2v-3.8h1.1v3.8H41zm3.4.1c-.6 0-1.1-.2-1.6-.6l.5-.7c.4.3.8.5 1.2.5c.3 0 .4-.1.4-.3v-.1c0-.1 0-.1-.1-.1l-.1-.1h-.1c-.1 0-.1-.1-.1-.1h-.2c-.1 0-.1-.1-.2-.1c-.1 0-.3-.1-.4-.1c-.1-.1-.2-.1-.3-.2l-.3-.3c-.1-.2-.1-.3-.1-.5c0-.4.1-.7.4-.9c.3-.2.6-.3 1-.3c.5 0 .9.1 1.4.4l-.4.8c-.4-.3-.8-.4-1-.4c-.2 0-.3 0-.3.1c-.1 0-.1.1-.1.2c0 .1 0 .1.2.2c.1.1.3.2.5.2c.2.1.3.1.4.2c.1 0 .3.1.4.2l.3.3c0 .1.1.3.1.4v.1c0 .4-.2.7-.4.9c-.3.2-.6.3-1.1.3zm2.2-4.3v-.9h1.2v.9h-1.2zm.1 4.2v-3.8h1v3.8h-1z" stroke="none" fill="#000"/></g><g id="Polygon418852"><path d="m3.3 240.2v-.6h.7v.6h-.7zm-1.3 0v-.6h.6v.6h-.6zm3.5 2.9c0 .7-.3 1.3-.7 1.8c-.5.5-1.1.8-1.8.8c-.8 0-1.4-.3-1.8-.8c-.5-.4-.7-1-.7-1.7v-.1c0-.6.2-1.2.7-1.7c.5-.5 1.1-.8 1.8-.8c.7 0 1.3.3 1.8.8c.4.4.7 1 .7 1.7c-.03.04 0 0 0 0c0 0-.03.05 0 0zm-4.4 0c0 .6.1 1.1.5 1.5c.4.4.8.6 1.4.6c.5 0 1-.2 1.4-.6c.3-.4.5-.9.5-1.4v-.1c0-.5-.2-1-.5-1.4c-.4-.4-.9-.6-1.4-.6c-.6 0-1 .2-1.4.6c-.4.4-.5.9-.5 1.4c-.05.04 0 0 0 0c0 0-.05.05 0 0zm5.5 2.5v-5.1h.5v5.1h-.5zm3.1 1.1l-.6-.3s.59-.75.6-.8c-.5 0-.8-.2-1.1-.6c-.3-.3-.4-.7-.4-1.2c0-.5.1-1 .5-1.3c.4-.4.8-.6 1.3-.6c.6 0 1.1.2 1.5.6l-.4.4c-.3-.3-.7-.5-1.1-.5c-.4 0-.7.1-.9.4c-.3.3-.4.6-.4 1c0 .4.1.7.4 1c.3.3.6.4 1 .4c.4 0 .7-.2 1.1-.5l.3.3c-.4.4-.8.7-1.4.7c.03-.02-.4 1-.4 1zm4.5-5.3v-.6h.6v.6h-.6zm-1.2 0v-.6h.6v.6h-.6zm1.9 3.6c-.3.4-.7.7-1.2.7c-.4 0-.8-.2-1-.4c-.3-.3-.4-.6-.4-1.1c.01.03 0-2.2 0-2.2h.5s.04 2.09 0 2.1c0 .3.1.6.3.8c.2.2.4.3.7.3c.4 0 .6-.1.8-.3c.2-.2.3-.5.3-.8c.03-.05 0-2.1 0-2.1h.6v3.6h-.6v-.6s.03-.03 0 0zm1.8.6v-5.1h.6v5.1h-.6zm4.9-.6c-.4.5-.9.7-1.5.7c-.5 0-.9-.2-1.3-.5c-.3-.4-.5-.8-.5-1.4c0-.5.2-1 .5-1.4c.3-.3.7-.5 1.2-.5c.5 0 1 .2 1.3.5c.3.4.4.9.4 1.4v.2h-2.9c.1.4.2.7.5.9c.2.2.5.3.8.3c.4 0 .8-.2 1.2-.5c-.05 0 .3.3.3.3c0 0-.01 0 0 0zm-2.8-1.4h2.4c-.1-.4-.2-.7-.4-.9c-.2-.2-.4-.3-.8-.3c-.3 0-.6.1-.8.3c-.2.2-.3.5-.4.9zm3.9 2V242h.5v.9c.1-.3.3-.5.6-.7c.2-.2.5-.3.9-.3c-.03.02 0 .6 0 .6h-.1c-.4 0-.7.1-1 .4c-.3.3-.4.7-.4 1.3v1.4h-.5zm2.8-2.9v-.7h.6v.7h-.6zm0 2.9v-.7h.6v.7h-.6zm5.4.1c-.7 0-1.2-.3-1.8-.8l.4-.4c.5.5.9.7 1.4.7c.3 0 .6-.1.8-.3c.3-.2.4-.5.4-.8c0-.3-.1-.6-.4-.8c-.2-.2-.5-.2-.8-.2c-.4 0-.7 0-1.1.2l-.3-.2l.1-2.4h2.8v.5h-2.3s-.12 1.58-.1 1.6c.3-.2.6-.2.9-.2c.5 0 .9.1 1.3.4c.3.2.4.6.4 1.1c0 .4-.1.8-.4 1.1c-.4.3-.8.5-1.3.5zm5.6-.1v-.3s1.02-.89 1-.9c.2-.2.4-.3.4-.4c.1-.1.2-.2.2-.4c0-.1-.1-.2-.2-.3c-.1-.1-.2-.2-.4-.2c-.2 0-.5.2-.7.5l-.3-.2c.2-.2.3-.3.5-.4c.1-.1.3-.2.6-.2c.2 0 .4.1.6.2c.2.2.2.4.2.6c0 .2 0 .3-.1.5l-.5.5l-.8.7h1.5v.3h-2zm-2.6 0l1.8-2.5l1.6-2.4h.3l-1.7 2.5l-1.6 2.4h-.4zm.6-2.2h-.3V241l-.6.3l-.1-.3l.7-.3h.3v2.7zm6.2-1.1l-.1-.3c.3-.1.5-.3.5-.6c-.05.03-.3 0-.3 0v-.7h.6s.04.63 0 .6c0 .3 0 .5-.1.7l-.6.3zm-1.4 0l-.1-.3c.3-.1.5-.3.5-.6c-.05.03-.3 0-.3 0v-.7h.6s.05.63 0 .6c0 .3 0 .5-.1.7l-.6.3zm8.1 2.4l-1.2-1.2l-1.2 1.2l-.3-.3l1.2-1.3l-1.2-1.2l.3-.3l1.2 1.2l1.3-1.2l.3.3l-1.2 1.2l1.2 1.2l-.4.4zm6.1.9v-1.2H51l-.2-.4l2.8-3.3h.5v3.3h.7v.4h-.7v1.2h-.6zm-2-1.6h2v-2.6l-2 2.6zm5.6-1.7l-.1-.3c.3-.1.5-.3.4-.6c.04.03-.2 0-.2 0v-.7h.6s.03.63 0 .6c0 .3 0 .5-.2.7c-.1.1-.3.2-.5.3zm-1.4 0l-.1-.3c.3-.1.5-.3.4-.6c.04.03-.2 0-.2 0v-.7h.6s.03.63 0 .6c0 .3 0 .5-.2.7c-.1.1-.3.2-.5.3zm8.1 2.4l-1.2-1.2l-1.2 1.2l-.4-.3l1.3-1.3l-1.3-1.2l.4-.3l1.2 1.2l1.2-1.2l.4.3l-1.2 1.2l1.2 1.2l-.4.4zm8.7.3v.6h-.3v-.6h-1.4v-.3l1.3-1.9h.4v1.9h.4v.3h-.4zm-.3-.3v-1.4l-1.1 1.4h1.1zm-3.9.9l1.8-2.5l1.6-2.4h.4l-1.8 2.5l-1.6 2.4h-.4zm0-2.1c-.4 0-.8-.2-1-.5l.2-.3c.2.3.5.4.8.4c.1 0 .3 0 .4-.1c.1-.1.2-.2.2-.4c0-.1-.1-.2-.2-.3c-.2-.1-.3-.2-.5-.2c-.05.05-.3 0-.3 0v-.2l.8-.9h-1.3v-.3h1.8v.3s-.87.85-.9.9c.3 0 .5 0 .7.2c.1.1.2.3.2.5c0 .3-.1.5-.2.6c-.2.2-.4.3-.7.3zm6.7-1.2v-.3c.3-.1.5-.3.4-.6c.03.03-.2 0-.2 0v-.7h.6s.02.63 0 .6c0 .3 0 .5-.2.7c-.1.1-.3.2-.6.3zm-1.4 0v-.3c.3-.1.5-.3.4-.6c.03.03-.2 0-.2 0v-.7h.6s.02.63 0 .6c0 .3 0 .5-.2.7c-.1.1-.3.2-.6.3zm5.8 1.3c0 1.1.6 1.9 1.7 2.6l-.3.4c-1.3-.7-1.9-1.7-1.9-3c0-1.3.6-2.3 1.9-3l.3.4c-1.1.6-1.7 1.5-1.7 2.6c.04-.01 0 0 0 0c0 0 .04 0 0 0zm3.3 2v-4.4l-.9.3l-.1-.4l1.2-.4h.4v4.9h-.6zm4.3 0v-1.2h-2.6l-.1-.4l2.7-3.3h.5v3.3h.8v.4h-.8v1.2h-.5zm-2.1-1.6h2.1v-2.6l-2.1 2.6zm4.2 2.5l-.1-.3c.3-.1.5-.3.5-.6h-.3v-.7h.6s.04.59 0 .6c0 .3 0 .5-.1.6c-.2.2-.4.3-.6.4zm5.7-3.4c0 .8-.2 1.4-.6 1.8c-.4.5-.8.8-1.5.8c-.6 0-1.1-.3-1.5-.7c-.3-.5-.5-1.1-.5-1.8v-.1c0-.7.2-1.3.5-1.7c.4-.5.9-.8 1.5-.8c.7 0 1.2.3 1.5.7c.4.5.6 1.1.6 1.8c.01.04 0 0 0 0c0 0 .01.05 0 0zm-3.6 0c0 .6.2 1.1.5 1.5c.2.4.6.6 1 .6c.5 0 .9-.2 1.1-.6c.3-.4.4-.9.4-1.4v-.1c0-.5-.1-1-.4-1.4c-.3-.4-.6-.6-1.1-.6c-.4 0-.8.2-1 .6c-.3.4-.5.9-.5 1.4c.04.04 0 0 0 0c0 0 .04.05 0 0zm9.5 1.6l-1.2-1.2l-1.2 1.2l-.3-.3l1.2-1.3l-1.2-1.2l.3-.3l1.2 1.2l1.3-1.2l.3.3l-1.2 1.2l1.2 1.2l-.4.4zm4.4.9v-4.4l-1 .3l-.1-.4l1.2-.4h.4v4.9h-.5zm5.8-2.5c0 .8-.2 1.4-.6 1.8c-.4.5-.9.8-1.5.8c-.6 0-1.1-.3-1.5-.7c-.4-.5-.5-1.1-.5-1.8v-.1c0-.7.1-1.3.5-1.7c.4-.5.9-.8 1.5-.8c.7 0 1.1.3 1.5.7c.4.5.6 1.1.6 1.8c-.01.04 0 0 0 0c0 0-.01.05 0 0zm-3.6 0c0 .6.2 1.1.4 1.5c.3.4.7.6 1.1.6c.5 0 .8-.2 1.1-.6c.3-.4.4-.9.4-1.4v-.1c0-.5-.1-1-.4-1.4c-.3-.4-.6-.6-1.1-.6c-.4 0-.8.2-1.1.6c-.2.4-.4.9-.4 1.4c.03.04 0 0 0 0c0 0 .03.05 0 0zm4.3 3.4l-.1-.3c.3-.1.5-.3.5-.6h-.3v-.7h.7s-.03.59 0 .6c0 .3-.1.5-.2.6c-.1.2-.3.3-.6.4zm1.6-.9v-.4s1.82-1.6 1.8-1.6c.4-.3.7-.6.8-.8c.2-.3.2-.5.2-.7c0-.3-.1-.5-.2-.7c-.2-.2-.5-.3-.7-.3c-.3 0-.6.1-.8.2c-.2.2-.4.4-.6.7l-.4-.3c.3-.4.5-.7.8-.8c.2-.2.6-.3 1-.3c.4 0 .8.2 1.1.4c.3.3.4.6.4 1c0 .4-.1.7-.3.9c-.1.3-.5.6-.9 1l-1.3 1.2h2.6v.5h-3.5zm9.4-.9l-1.2-1.2l-1.2 1.2l-.4-.3l1.2-1.3l-1.2-1.2l.4-.3l1.2 1.2l1.2-1.2l.4.3l-1.3 1.2l1.3 1.2l-.4.4zm4.3.9v-4.4l-.9.3l-.1-.4l1.2-.4h.4v4.9h-.6zm1.7.9l-.1-.3c.3-.1.5-.3.5-.6h-.3v-.7h.7s-.04.59 0 .6c0 .3-.1.5-.2.6c-.2.2-.3.3-.6.4zm2.2-1.8c.4.3.8.5 1.2.5c.4 0 .8-.2 1-.6c.3-.4.4-.9.4-1.5v-.1c-.3.6-.8.8-1.4.8c-.5 0-.9-.1-1.2-.4c-.3-.3-.5-.7-.5-1.1c0-.5.2-.9.5-1.2c.4-.3.8-.5 1.3-.5c.5 0 .9.2 1.3.5c.4.4.6 1.1.6 1.9c0 .8-.2 1.4-.6 1.9c-.4.5-.8.8-1.4.8c-.6 0-1.1-.2-1.6-.6c.04-.02.4-.4.4-.4c0 0-.03-.05 0 0zm1.3-1.4c.4 0 .7-.1.9-.3c.2-.2.3-.5.3-.8c0-.3-.1-.6-.3-.8c-.3-.2-.6-.3-.9-.3c-.4 0-.7.1-.9.3c-.2.3-.3.5-.3.9c0 .3.1.5.3.7c.3.2.5.3.9.3zm8.1 1.7c-.4.5-.9.7-1.4.7c-.6 0-1-.2-1.4-.6c-.3-.3-.5-.8-.5-1.3c0-.5.2-1 .5-1.3c.4-.4.8-.6 1.4-.6c.5 0 1 .2 1.4.6l-.4.4c-.3-.3-.7-.5-1.1-.5c-.3 0-.6.1-.9.4c-.2.3-.4.6-.4 1c0 .4.2.7.4 1c.3.3.6.4 1 .4c.4 0 .7-.2 1.1-.5c-.01-.04.3.3.3.3c0 0 .03-.02 0 0zm.9.6V242h.6s-.04.59 0 .6c.1-.2.3-.4.4-.5c.2-.1.4-.2.7-.2c.6 0 1 .2 1.2.7c.3-.5.7-.7 1.3-.7c.4 0 .7.1.9.4c.3.3.4.6.4 1.1c.01-.04 0 2.2 0 2.2h-.5s-.03-2.11 0-2.1c0-.4-.1-.6-.3-.8c-.1-.2-.4-.3-.7-.3c-.3 0-.5.1-.7.3c-.2.2-.3.5-.3.8c.03.01 0 2.1 0 2.1h-.5v-2.1c0-.4-.1-.6-.3-.8c-.1-.2-.3-.3-.6-.3c-.3 0-.6.1-.8.3c-.1.2-.2.5-.2.8c-.04.03 0 2.1 0 2.1h-.6zm8.6-2c0 1.3-.6 2.3-1.9 3l-.3-.4c1.1-.7 1.7-1.5 1.7-2.6c0-1.1-.6-2-1.7-2.6l.3-.4c1.3.7 1.9 1.7 1.9 3c.01-.01 0 0 0 0c0 0 .01 0 0 0z" stroke="none" fill="#000"/></g><g id="Polygon418851"><path d="m3 230.3v-.7h.6v.7h-.6zm-1.3 0v-.7h.6v.7h-.6zm1 5.4c-.7 0-1.2-.2-1.5-.6c-.4-.4-.6-.9-.6-1.6c.02.05 0-2.8 0-2.8h.6s-.03 2.81 0 2.8c0 .5.1.9.4 1.2c.2.3.6.5 1.1.5c.4 0 .8-.2 1.1-.4c.2-.3.3-.7.3-1.3c.04.05 0-2.8 0-2.8h.6v2.8c0 .7-.2 1.2-.6 1.6c-.3.4-.8.6-1.4.6zm3.2-.1V232h.6s-.05.93 0 .9c.1-.3.3-.5.5-.7c.3-.2.6-.3.9-.3c.03.02 0 .6 0 .6c0 0-.01 0 0 0c-.4 0-.8.1-1 .4c-.3.3-.4.7-.4 1.3c-.05-.04 0 1.4 0 1.4h-.6zm4.7-4.2v-.6h.6v.6h-.6zm-1.3 0v-.6h.7v.6h-.7zm2 3.6c-.3.4-.7.7-1.2.7c-.4 0-.8-.2-1-.4c-.3-.3-.4-.6-.4-1.1c-.01.03 0-2.2 0-2.2h.5s.03 2.09 0 2.1c0 .3.1.6.3.8c.2.2.4.3.7.3c.3 0 .6-.1.8-.3c.2-.2.3-.5.3-.8c.02-.05 0-2.1 0-2.1h.6v3.6h-.6v-.6s.02-.03 0 0zm1.8.6V232h.5v.6c.3-.5.7-.7 1.2-.7c.5 0 .8.1 1.1.4c.2.3.3.6.3 1.1c.03-.05 0 2.2 0 2.2h-.5v-2.1c0-.4-.1-.6-.3-.8c-.2-.2-.4-.3-.7-.3c-.3 0-.6.1-.8.3c-.2.2-.3.5-.3.8v2.1h-.5zm6.5 0v-4.9h.5v2.9l2.8-2.9h.8l-2.2 2.1l2.2 2.8h-.7l-1.8-2.4l-1.1 1.1v1.3h-.5zm6.3.1c-.5 0-.9-.2-1.3-.6c-.3-.3-.5-.8-.5-1.3c0-.5.2-1 .5-1.3c.4-.4.8-.6 1.4-.6c.5 0 .9.2 1.3.6c.4.3.5.8.5 1.3c0 .5-.1 1-.5 1.3c-.4.4-.8.6-1.4.6zm.1-.5c.3 0 .7-.1.9-.4c.3-.3.4-.6.4-1c0-.4-.1-.7-.4-1c-.3-.3-.6-.4-1-.4c-.3 0-.7.1-.9.4c-.2.3-.4.6-.4 1c0 .4.2.7.4 1c.3.3.6.4 1 .4zm5.7-.3c-.3.5-.8.8-1.4.8c-.4 0-.8-.2-1.2-.5c-.3-.4-.5-.8-.5-1.4c0-.6.2-1 .5-1.4c.4-.3.8-.5 1.2-.5c.6 0 1.1.3 1.4.8c.02-.03 0-2.2 0-2.2h.6v5.1h-.6v-.7s.02-.03 0 0zm-1.3.3c.4 0 .7-.1 1-.4c.2-.3.3-.6.3-1c0-.4-.1-.8-.3-1c-.3-.3-.6-.4-1-.4c-.3 0-.6.1-.9.4c-.2.2-.3.6-.3 1c0 .4.1.8.3 1c.3.3.6.4.9.4zm5.6-.2c-.3.4-.7.7-1.2.7c-.4 0-.8-.2-1-.4c-.3-.3-.4-.6-.4-1.1c.01.03 0-2.2 0-2.2h.5s.05 2.09 0 2.1c0 .3.1.6.3.8c.2.2.4.3.8.3c.3 0 .5-.1.7-.3c.2-.2.3-.5.3-.8c.04-.05 0-2.1 0-2.1h.6v3.6h-.6v-.6s.04-.03 0 0zm1.7-2.3v-.7h.7v.7h-.7zm0 2.9v-.7h.7v.7h-.7zm5.9.1c-.6 0-1.2-.3-1.6-.7c-.4-.5-.6-1.1-.6-1.8v-.1c0-.7.2-1.3.6-1.8c.4-.4 1-.7 1.6-.7c.7 0 1.2.3 1.6.7c.4.5.6 1.1.6 1.8c0 .8-.2 1.4-.6 1.9c-.4.4-1 .7-1.6.7zm-1.1-2.6c0 .5.1.9.3 1.2c.2.3.5.4.8.4c.3 0 .6-.1.8-.4c.2-.3.3-.7.3-1.1v-.1c0-.4-.1-.8-.3-1.1c-.2-.3-.5-.4-.8-.4c-.3 0-.6.1-.8.4c-.2.3-.3.7-.3 1.1c.04.04 0 0 0 0c0 0 .04.05 0 0zm3.9 2.5v-.9s1.67-1.29 1.7-1.3l.6-.6c.2-.2.2-.4.2-.6c0-.2 0-.3-.2-.4c-.1-.1-.2-.2-.4-.2c-.2 0-.4 0-.5.1c-.2.1-.4.3-.5.6l-.8-.7c.3-.3.5-.6.8-.7c.3-.2.6-.3 1-.3c.5 0 .9.2 1.2.4c.4.3.5.7.5 1.1v.1c0 .3-.1.7-.3.9c-.2.3-.5.6-1 1c.03-.05-.8.6-.8.6h2.2v.9h-3.7zm6.6.1c-.6 0-1.2-.3-1.6-.7c-.4-.5-.6-1.1-.6-1.8v-.1c0-.7.2-1.3.6-1.8c.4-.4 1-.7 1.6-.7c.7 0 1.2.3 1.6.7c.4.5.6 1.1.6 1.8c0 .8-.2 1.4-.6 1.9c-.4.4-1 .7-1.6.7zm-1.1-2.6c0 .5.1.9.3 1.2c.2.3.5.4.8.4c.3 0 .6-.1.8-.4c.2-.3.3-.7.3-1.1v-.1c0-.4-.1-.8-.3-1.1c-.2-.3-.5-.4-.8-.4c-.3 0-.6.1-.8.4c-.2.3-.3.7-.3 1.1c.04.04 0 0 0 0c0 0 .04.05 0 0zm4.9 2.5v-3.8l-.9.2l-.2-.9l1.4-.4h.7v4.9h-1zm4.1.1c-.6 0-1.1-.2-1.5-.5c-.3-.4-.5-1-.5-1.9c0-.8.1-1.4.5-1.9c.4-.5.9-.8 1.6-.8c.6 0 1.1.2 1.5.6l-.5.8c-.2-.1-.4-.2-.5-.3c-.2-.1-.3-.1-.5-.1c-.2 0-.3 0-.5.1l-.3.3c-.1.1-.1.3-.1.4c-.1.1-.1.2-.1.3c.3-.2.6-.3 1-.3c.5 0 .9.2 1.2.4c.4.3.5.7.5 1.2c0 .5-.2.9-.5 1.2c-.4.3-.8.5-1.3.5zM60 234c0 .2 0 .4.2.6c.1.1.4.2.6.2c.3 0 .5-.1.6-.2c.2-.2.3-.3.3-.6c0-.2-.1-.4-.3-.5c-.1-.1-.3-.2-.6-.2c-.3 0-.5.1-.6.2c-.2.1-.2.3-.2.5c-.04.02 0 0 0 0c0 0-.04.03 0 0zm3.5 1.6v-.9l1.6-1.3c.3-.3.5-.5.7-.6c.1-.2.1-.4.1-.6c0-.2 0-.3-.1-.4c-.2-.1-.3-.2-.5-.2c-.2 0-.4 0-.5.1c-.2.1-.3.3-.5.6l-.8-.7c.3-.3.6-.6.8-.7c.3-.2.6-.3 1.1-.3c.5 0 .9.2 1.2.4c.3.3.4.7.4 1.1v.1c0 .3-.1.7-.2.9c-.2.3-.6.6-1 1c-.05-.05-.8.6-.8.6h2.1v.9h-3.6zm4.3-1.7v-1h2.2v1h-2.2zm3.6 1.7v-3.8l-.9.2l-.2-.9l1.4-.4h.7v4.9h-1zm4.1.1c-.6 0-1.1-.2-1.5-.5c-.3-.4-.5-1-.5-1.9c0-.8.1-1.4.5-1.9c.4-.5.9-.8 1.6-.8c.6 0 1.1.2 1.5.6l-.5.8c-.2-.1-.4-.2-.5-.3c-.2-.1-.3-.1-.5-.1c-.2 0-.4 0-.5.1l-.3.3c-.1.1-.1.3-.1.4c-.1.1-.1.2-.1.3c.3-.2.6-.3 1-.3c.5 0 .9.2 1.2.4c.4.3.5.7.5 1.2c0 .5-.2.9-.5 1.2c-.4.3-.8.5-1.3.5zm-.9-1.7c0 .2 0 .4.2.6c.1.1.3.2.6.2c.3 0 .5-.1.6-.2c.2-.2.3-.3.3-.6c0-.2-.1-.4-.3-.5c-.1-.1-.3-.2-.6-.2c-.3 0-.5.1-.6.2c-.2.1-.2.3-.2.5c-.04.02 0 0 0 0c0 0-.04.03 0 0zm5.2 1.7c-.7 0-1.3-.3-1.8-.8l.7-.7c.4.3.7.5 1.1.5c.3 0 .5-.1.6-.2c.2-.1.3-.3.3-.5c0-.2-.1-.4-.3-.5c-.1-.1-.4-.2-.6-.2c-.3 0-.6.1-.8.2c-.03.03-.7-.4-.7-.4l.2-2.4h3v.9h-2.1s-.05.89 0 .9c.2-.1.4-.1.6-.1c.5 0 .9.1 1.2.4c.4.3.5.7.5 1.2c0 .5-.2.9-.5 1.2c-.3.3-.8.5-1.4.5z" stroke="none" fill="#000"/></g><g id="Polygon418850"><path d="m.6 225.6v-4.9h1.1v2.1l1.9-2.1h1.4l-2 2.1l2 2.8H3.8l-1.6-2.1l-.5.6v1.5H.6zm7.1-.4c-.3.3-.6.5-1.1.5c-.4 0-.7-.1-.9-.3c-.3-.2-.4-.5-.4-.9c0-.4.1-.7.4-.9c.3-.2.6-.3 1.1-.3c.3 0 .6.1.9.2v-.1c0-.5-.2-.7-.8-.7c-.3 0-.7.1-1 .2l-.3-.8c.5-.2 1-.3 1.5-.3c.5 0 1 .1 1.2.4c.3.3.4.7.4 1.2c.04.02 0 2.2 0 2.2h-1v-.4s.01-.01 0 0zm-.8-.3c.3 0 .5 0 .6-.1c.2-.2.2-.3.2-.5v-.2c-.2-.1-.4-.2-.6-.2c-.3 0-.5.1-.6.2c-.1.1-.2.2-.2.4c0 .1.1.2.2.3c.1.1.2.1.4.1zm4.8.5c-.2.2-.5.3-.8.3c-.4 0-.6-.1-.8-.3c-.2-.2-.3-.5-.3-.9v-1.7h-.4v-1h.4v-.9h1.1v.9h.8v1h-.8s-.04 1.56 0 1.6c0 .2.1.3.3.3c.2 0 .4 0 .5-.1c.03-.01 0 .8 0 .8c0 0 .03.05 0 0zm.9.2v-3.8h1v3.8h-1zm6 .1c-.8 0-1.5-.3-2.1-.8l.7-.8c.4.4.9.6 1.4.6c.2 0 .4 0 .5-.1c.2-.1.2-.2.2-.3v-.1c0-.1 0-.2-.2-.3c-.1-.1-.4-.2-.8-.3c-.2-.1-.5-.1-.6-.2c-.2-.1-.4-.1-.5-.3c-.2-.1-.3-.2-.4-.4c0-.1-.1-.3-.1-.6c0-.4.2-.8.5-1.1c.3-.2.7-.4 1.2-.4c.7 0 1.3.2 1.9.7l-.6.8c-.5-.4-.9-.5-1.3-.5c-.2 0-.3 0-.5.1c-.1.1-.1.2-.1.3c0 .2.1.3.2.4c.1.1.4.2.8.3c.6.1 1 .3 1.2.5c.3.2.4.5.4.9v.1c0 .4-.2.8-.5 1.1c-.3.2-.8.4-1.3.4zm4.8-.5c-.3.3-.6.5-1.1.5c-.4 0-.7-.1-.9-.3c-.3-.2-.4-.5-.4-.9c0-.4.1-.7.4-.9c.3-.2.6-.3 1.1-.3c.3 0 .6.1.9.2v-.1c0-.5-.2-.7-.8-.7c-.3 0-.7.1-1 .2l-.3-.8c.5-.2 1-.3 1.5-.3c.5 0 1 .1 1.2.4c.3.3.5.7.5 1.2c-.05.02 0 2.2 0 2.2h-1.1v-.4s.02-.01 0 0zm-.8-.3c.3 0 .5 0 .6-.1c.2-.2.2-.3.2-.5v-.2c-.2-.1-.4-.2-.6-.2c-.3 0-.4.1-.6.2c-.1.1-.2.2-.2.4c0 .1.1.2.2.3c.1.1.2.1.4.1zm5 .8c-.5 0-.9-.2-1.2-.6c.03.01 0 .5 0 .5h-1v-5.1h1s.03 1.89 0 1.9c.3-.4.7-.6 1.2-.6c.5 0 .9.2 1.2.5c.3.3.5.8.5 1.4c0 .6-.2 1.1-.5 1.4c-.3.4-.7.6-1.2.6zm-1.2-2c0 .3.1.6.3.8c.2.2.4.3.6.3c.3 0 .5-.1.7-.3c.2-.2.2-.5.2-.8c0-.3 0-.5-.2-.7c-.2-.2-.4-.3-.7-.3c-.2 0-.4.1-.6.3c-.2.2-.3.4-.3.7c.02.02 0 0 0 0c0 0 .02.03 0 0zm6 1.4c-.3.4-.6.6-1.1.6c-.4 0-.7-.2-.9-.4c-.2-.2-.3-.6-.3-1c-.04-.02 0-2.5 0-2.5h1s.03 2.14 0 2.1c0 .5.2.8.7.8c.2 0 .3-.1.5-.2c.1-.1.1-.3.1-.6c.04.04 0-2.1 0-2.1h1.1v3.8h-1.1v-.5s.04-.03 0 0zm2.1.5v-3.8h1s.02.58 0 .6c.3-.4.7-.6 1.1-.6c.4 0 .7.1 1 .3c.2.3.3.6.3 1.1v2.4h-1.1s.03-2.09 0-2.1c0-.5-.2-.8-.6-.8c-.2 0-.4.1-.5.2c-.1.2-.2.4-.2.6c.02.01 0 2.1 0 2.1h-1zm4.4 0v-5.1h1v5.1h-1zm4.4-.5c-.3.4-.7.6-1.1.6c-.4 0-.7-.2-1-.4c-.2-.2-.3-.6-.3-1v-2.5h1.1s-.04 2.14 0 2.1c0 .5.2.8.6.8c.2 0 .4-.1.5-.2c.1-.1.2-.3.2-.6c-.03.04 0-2.1 0-2.1h1v3.8h-1v-.5s-.03-.03 0 0zm2 .5v-5.1h1.1v2.7l1.2-1.4h1.3l-1.5 1.5l1.5 2.3h-1.2l-1-1.5l-.3.4v1.1h-1.1z" stroke="none" fill="#000"/></g><g id="Polygon418849"><path d="m3.3 160.2v-.6h.7v.6h-.7zm-1.3 0v-.6h.6v.6h-.6zm3.5 2.9c0 .7-.3 1.3-.7 1.8c-.5.5-1.1.8-1.8.8c-.8 0-1.4-.3-1.8-.8c-.5-.4-.7-1-.7-1.7v-.1c0-.6.2-1.2.7-1.7c.5-.5 1.1-.8 1.8-.8c.7 0 1.3.3 1.8.8c.4.4.7 1 .7 1.7c-.03.04 0 0 0 0c0 0-.03.05 0 0zm-4.4 0c0 .6.1 1.1.5 1.5c.4.4.8.6 1.4.6c.5 0 1-.2 1.4-.6c.3-.4.5-.9.5-1.4v-.1c0-.5-.2-1-.5-1.4c-.4-.4-.9-.6-1.4-.6c-.6 0-1 .2-1.4.6c-.4.4-.5.9-.5 1.4c-.05.04 0 0 0 0c0 0-.05.05 0 0zm5.5 2.5v-5.1h.5v5.1h-.5zm3.1 1.1l-.6-.3s.59-.75.6-.8c-.5 0-.8-.2-1.1-.6c-.3-.3-.4-.7-.4-1.2c0-.5.1-1 .5-1.3c.4-.4.8-.6 1.3-.6c.6 0 1.1.2 1.5.6l-.4.4c-.3-.3-.7-.5-1.1-.5c-.4 0-.7.1-.9.4c-.3.3-.4.6-.4 1c0 .4.1.7.4 1c.3.3.6.4 1 .4c.4 0 .7-.2 1.1-.5l.3.3c-.4.4-.8.7-1.4.7c.03-.02-.4 1-.4 1zm4.5-5.3v-.6h.6v.6h-.6zm-1.2 0v-.6h.6v.6h-.6zm1.9 3.6c-.3.4-.7.7-1.2.7c-.4 0-.8-.2-1-.4c-.3-.3-.4-.6-.4-1.1c.01.03 0-2.2 0-2.2h.5s.04 2.09 0 2.1c0 .3.1.6.3.8c.2.2.4.3.7.3c.4 0 .6-.1.8-.3c.2-.2.3-.5.3-.8c.03-.05 0-2.1 0-2.1h.6v3.6h-.6v-.6s.03-.03 0 0zm1.8.6v-5.1h.6v5.1h-.6zm4.9-.6c-.4.5-.9.7-1.5.7c-.5 0-.9-.2-1.3-.5c-.3-.4-.5-.8-.5-1.4c0-.5.2-1 .5-1.4c.3-.3.7-.5 1.2-.5c.5 0 1 .2 1.3.5c.3.4.4.9.4 1.4v.2h-2.9c.1.4.2.7.5.9c.2.2.5.3.8.3c.4 0 .8-.2 1.2-.5c-.05 0 .3.3.3.3c0 0-.01 0 0 0zm-2.8-1.4h2.4c-.1-.4-.2-.7-.4-.9c-.2-.2-.4-.3-.8-.3c-.3 0-.6.1-.8.3c-.2.2-.3.5-.4.9zm3.9 2V162h.5v.9c.1-.3.3-.5.6-.7c.2-.2.5-.3.9-.3c-.03.02 0 .6 0 .6h-.1c-.4 0-.7.1-1 .4c-.3.3-.4.7-.4 1.3v1.4h-.5zm2.8-2.9v-.7h.6v.7h-.6zm0 2.9v-.7h.6v.7h-.6zm8.2-4.9h.6s-.69.73-.7.7c.4.5.6 1.1.6 1.7c0 .7-.2 1.3-.7 1.8c-.4.5-1 .8-1.8.8c-.6 0-1.1-.2-1.5-.5c0-.03-.4.4-.4.4h-.6s.68-.72.7-.7c-.4-.5-.7-1.1-.7-1.7v-.1c0-.6.3-1.2.8-1.7c.4-.5 1-.8 1.8-.8c.5 0 1 .2 1.5.5l.4-.4zm-3.9 2.4c0 .6.2 1 .5 1.4l2.6-3c-.3-.2-.7-.4-1.2-.4c-.5 0-1 .2-1.3.6c-.4.4-.6.9-.6 1.4zm.7 1.7c.4.2.8.4 1.3.4c.5 0 1-.2 1.3-.6c.4-.4.6-.9.6-1.4c0-.5-.2-1-.5-1.4c.03.03-2.7 3-2.7 3c0 0 .05-.03 0 0zm8.5.9c-.8 0-1.4-.3-1.8-.9l.4-.3c.4.4.8.7 1.4.7c.3 0 .6-.1.8-.3c.2-.2.3-.4.3-.7c0-.3-.2-.5-.4-.7c-.3-.1-.6-.2-1-.2c0-.03-.3 0-.3 0l-.1-.4l1.5-1.7h-2.4v-.5h3.2v.4s-1.58 1.71-1.6 1.7c.5.1.9.2 1.2.4c.3.2.4.6.4 1c0 .4-.1.8-.4 1.1c-.4.2-.7.4-1.2.4zm5.6-.1v-.3l1-.9l.4-.4c.1-.1.1-.2.1-.4c0-.1 0-.2-.1-.3c-.1-.1-.3-.2-.4-.2c-.3 0-.5.2-.7.5l-.3-.2c.1-.2.3-.3.4-.4c.2-.1.4-.2.6-.2c.3 0 .5.1.6.2c.2.2.3.4.3.6c0 .2-.1.3-.2.5c0 .1-.2.3-.4.5c-.04-.01-.8.7-.8.7h1.4v.3h-1.9zm-2.6 0l1.7-2.5l1.6-2.4h.4l-1.7 2.5l-1.6 2.4h-.4zm.6-2.2h-.4V161l-.6.3l-.1-.3l.8-.3h.3v2.7zm6.1-1.1l-.1-.3c.4-.1.5-.3.5-.6c.01.03-.2 0-.2 0v-.7h.6v.6c0 .3-.1.5-.2.7c-.1.1-.3.2-.6.3zm-1.4 0l-.1-.3c.4-.1.5-.3.5-.6c.01.03-.2 0-.2 0v-.7h.6v.6c0 .3-.1.5-.2.7c-.1.1-.3.2-.6.3zm8.2 2.4l-1.2-1.2l-1.2 1.2l-.4-.3l1.2-1.3l-1.2-1.2l.4-.3l1.2 1.2l1.2-1.2l.4.3l-1.3 1.2l1.3 1.2l-.4.4zm5.3 1c-.8 0-1.4-.3-1.9-.9l.4-.3c.4.4.9.7 1.5.7c.3 0 .5-.1.7-.3c.2-.2.3-.4.3-.7c0-.3-.1-.5-.3-.7c-.3-.1-.6-.2-1-.2c-.04-.03-.4 0-.4 0l-.1-.4l1.6-1.7h-2.4v-.5h3.1v.4s-1.53 1.71-1.5 1.7c.4.1.8.2 1.1.4c.3.2.5.6.5 1c0 .4-.2.8-.5 1.1c-.3.2-.7.4-1.1.4zm7.7-.7v.6h-.4v-.6h-1.3l-.1-.3l1.4-1.9h.4v1.9h.3v.3h-.3zm-.4-.3v-1.4l-1 1.4h1zm-3.8.9l1.7-2.5l1.6-2.4h.4l-1.7 2.5l-1.6 2.4h-.4zm-.1-2.1c-.4 0-.7-.2-1-.5l.3-.3c.2.3.5.4.8.4c.1 0 .2 0 .4-.1c.1-.1.1-.2.1-.4c0-.1 0-.2-.2-.3c-.1-.1-.3-.2-.5-.2c.01.05-.2 0-.2 0l-.1-.2l.9-.9h-1.3v-.3h1.8v.3s-.91.85-.9.9c.3 0 .5 0 .6.2c.2.1.3.3.3.5c0 .3-.1.5-.3.6c-.2.2-.4.3-.7.3zm6.8-1.2l-.1-.3c.4-.1.5-.3.5-.6c-.01.03-.3 0-.3 0v-.7h.7s-.02.63 0 .6c0 .3-.1.5-.2.7c-.1.1-.3.2-.6.3zm-1.4 0l-.1-.3c.4-.1.5-.3.5-.6c-.01.03-.3 0-.3 0v-.7h.7s-.02.63 0 .6c0 .3-.1.5-.2.7c-.1.1-.3.2-.6.3zm5.8 1.3c0 1.1.5 1.9 1.6 2.6l-.2.4c-1.3-.7-1.9-1.7-1.9-3c0-1.3.6-2.3 1.9-3l.2.4c-1.1.6-1.6 1.5-1.6 2.6c0-.01 0 0 0 0zm6.8-2.9h.5s-.65.73-.7.7c.5.5.7 1.1.7 1.7c0 .7-.3 1.3-.7 1.8c-.5.5-1.1.8-1.8.8c-.6 0-1.1-.2-1.6-.5l-.4.4h-.6l.7-.7c-.4-.5-.6-1.1-.6-1.7v-.1c0-.6.2-1.2.7-1.7c.5-.5 1.1-.8 1.8-.8c.6 0 1.1.2 1.5.5c.02.03.5-.4.5-.4zm-3.9 2.4c0 .6.1 1 .4 1.4l2.7-3c-.4-.2-.8-.4-1.2-.4c-.6 0-1 .2-1.4.6c-.4.4-.5.9-.5 1.4zm.7 1.7c.3.2.7.4 1.2.4c.5 0 1-.2 1.4-.6c.3-.4.5-.9.5-1.4c0-.5-.1-1-.4-1.4l-2.7 3s-.01-.03 0 0zm10.3-.5c0 .4-.2.7-.5 1c-.4.2-.8.4-1.3.4c-.6 0-1-.2-1.4-.4c-.3-.3-.5-.6-.5-1c0-.3.1-.6.3-.8c.2-.2.4-.3.7-.4c-.5-.3-.8-.7-.8-1.2c0-.3.2-.7.5-.9c.3-.2.7-.4 1.2-.4c.4 0 .8.2 1.1.4c.4.2.5.6.5.9c0 .5-.2.9-.8 1.2c.3.1.5.2.7.4c.2.2.3.5.3.8c0-.04 0 0 0 0c0 0 0-.02 0 0zm-3-2.3c0 .2.2.4.4.6c.2.2.4.3.8.3c.3 0 .5-.1.8-.3c.2-.2.3-.4.3-.6c0-.3-.1-.5-.3-.6c-.2-.2-.5-.3-.8-.3c-.4 0-.6.1-.8.3c-.3.1-.4.3-.4.6c.04-.04 0 0 0 0c0 0 .04-.03 0 0zm-.1 2.3c0 .2.1.4.3.6c.3.2.6.3 1 .3c.4 0 .7-.1.9-.3c.2-.2.3-.4.3-.6c0-.3-.1-.5-.3-.7c-.3-.2-.6-.3-.9-.3c-.4 0-.7.1-.9.3c-.3.2-.4.4-.4.7c-.02-.04 0 0 0 0c0 0-.02-.03 0 0zm3.9 2.2l-.1-.3c.3-.1.5-.3.5-.6h-.3v-.7h.7s-.05.59 0 .6c0 .3-.1.5-.2.6c-.2.2-.4.3-.6.4zm2.2-1.8c.4.3.8.5 1.2.5c.4 0 .8-.2 1-.6c.3-.4.4-.9.4-1.5v-.1c-.3.6-.8.8-1.4.8c-.5 0-.9-.1-1.2-.4c-.3-.3-.5-.7-.5-1.1c0-.5.2-.9.5-1.2c.4-.3.8-.5 1.3-.5c.5 0 .9.2 1.3.5c.4.4.6 1.1.6 1.9c0 .8-.2 1.4-.6 1.9c-.4.5-.8.8-1.5.8c-.5 0-1-.2-1.5-.6c.04-.02.4-.4.4-.4c0 0-.04-.05 0 0zm1.3-1.4c.4 0 .7-.1.9-.3c.2-.2.3-.5.3-.8c0-.3-.1-.6-.3-.8c-.3-.2-.6-.3-.9-.3c-.4 0-.7.1-.9.3c-.2.3-.3.5-.3.9c0 .3.1.5.3.7c.3.2.5.3.9.3zm7.8 1.4l-1.2-1.2l-1.2 1.2l-.4-.3l1.3-1.3l-1.3-1.2l.4-.3l1.2 1.2l1.2-1.2l.4.3l-1.3 1.2l1.3 1.2l-.4.4zm4 0c.4.3.8.5 1.2.5c.4 0 .8-.2 1-.6c.3-.4.4-.9.4-1.5v-.1c-.3.6-.8.8-1.4.8c-.5 0-.9-.1-1.2-.4c-.3-.3-.5-.7-.5-1.1c0-.5.2-.9.5-1.2c.4-.3.8-.5 1.3-.5c.5 0 .9.2 1.3.5c.4.4.6 1.1.6 1.9c0 .8-.2 1.4-.6 1.9c-.4.5-.8.8-1.4.8c-.6 0-1.1-.2-1.6-.6c.04-.02.4-.4.4-.4c0 0-.04-.05 0 0zm1.3-1.4c.4 0 .7-.1.9-.3c.2-.2.3-.5.3-.8c0-.3-.1-.6-.3-.8c-.3-.2-.6-.3-.9-.3c-.4 0-.7.1-.9.3c-.2.3-.3.5-.3.9c0 .3.1.5.3.7c.3.2.5.3.9.3zm2.7 3.2l-.1-.3c.3-.1.5-.3.4-.6h-.2v-.7h.6s.03.59 0 .6c0 .3 0 .5-.2.6c-.1.2-.3.3-.5.4zm3.4-.8c-.7 0-1.2-.3-1.8-.8l.4-.4c.5.5.9.7 1.4.7c.3 0 .6-.1.8-.3c.3-.2.4-.5.4-.8c0-.3-.1-.6-.4-.8c-.2-.2-.5-.2-.8-.2c-.4 0-.7 0-1.1.2l-.3-.2l.1-2.4h2.8v.5H112s-.13 1.58-.1 1.6c.3-.2.6-.2.9-.2c.5 0 .9.1 1.3.4c.3.2.4.6.4 1.1c0 .4-.1.8-.5 1.1c-.3.3-.7.5-1.2.5zm8-.7c-.5.5-.9.7-1.5.7c-.5 0-1-.2-1.3-.6c-.4-.3-.6-.8-.6-1.3c0-.5.2-1 .6-1.3c.3-.4.8-.6 1.3-.6c.5 0 1 .2 1.4.6l-.3.4c-.4-.3-.7-.5-1.1-.5c-.4 0-.7.1-1 .4c-.2.3-.3.6-.3 1c0 .4.1.7.4 1c.2.3.5.4.9.4c.4 0 .8-.2 1.1-.5c.01-.04.4.3.4.3c0 0-.04-.02 0 0zm.8.6V162h.6s-.02.59 0 .6c.1-.2.3-.4.5-.5c.1-.1.4-.2.7-.2c.5 0 .9.2 1.1.7c.3-.5.8-.7 1.3-.7c.4 0 .7.1 1 .4c.2.3.3.6.3 1.1c.03-.04 0 2.2 0 2.2h-.5v-2.1c0-.4-.1-.6-.3-.8c-.1-.2-.4-.3-.6-.3c-.3 0-.6.1-.8.3c-.1.2-.2.5-.2.8c-.05.01 0 2.1 0 2.1h-.6s.02-2.13 0-2.1c0-.4-.1-.6-.2-.8c-.2-.2-.4-.3-.7-.3c-.3 0-.5.1-.7.3c-.2.2-.3.5-.3.8c-.02.03 0 2.1 0 2.1h-.6zm8.6-2c0 1.3-.6 2.3-1.9 3l-.2-.4c1.1-.7 1.6-1.5 1.6-2.6c0-1.1-.5-2-1.6-2.6l.2-.4c1.3.7 1.9 1.7 1.9 3c.04-.01 0 0 0 0c0 0 .04 0 0 0z" stroke="none" fill="#000"/></g><g id="Polygon418848"><path d="m3 150.3v-.7h.6v.7h-.6zm-1.3 0v-.7h.6v.7h-.6zm1 5.4c-.7 0-1.2-.2-1.5-.6c-.4-.4-.6-.9-.6-1.6c.02.05 0-2.8 0-2.8h.6s-.03 2.81 0 2.8c0 .5.1.9.4 1.2c.2.3.6.5 1.1.5c.4 0 .8-.2 1.1-.4c.2-.3.3-.7.3-1.3c.04.05 0-2.8 0-2.8h.6v2.8c0 .7-.2 1.2-.6 1.6c-.3.4-.8.6-1.4.6zm3.2-.1V152h.6s-.05.93 0 .9c.1-.3.3-.5.5-.7c.3-.2.6-.3.9-.3c.03.02 0 .6 0 .6c0 0-.01 0 0 0c-.4 0-.8.1-1 .4c-.3.3-.4.7-.4 1.3c-.05-.04 0 1.4 0 1.4h-.6zm4.7-4.2v-.6h.6v.6h-.6zm-1.3 0v-.6h.7v.6h-.7zm2 3.6c-.3.4-.7.7-1.2.7c-.4 0-.8-.2-1-.4c-.3-.3-.4-.6-.4-1.1c-.01.03 0-2.2 0-2.2h.5s.03 2.09 0 2.1c0 .3.1.6.3.8c.2.2.4.3.7.3c.3 0 .6-.1.8-.3c.2-.2.3-.5.3-.8c.02-.05 0-2.1 0-2.1h.6v3.6h-.6v-.6s.02-.03 0 0zm1.8.6V152h.5v.6c.3-.5.7-.7 1.2-.7c.5 0 .8.1 1.1.4c.2.3.3.6.3 1.1c.03-.05 0 2.2 0 2.2h-.5v-2.1c0-.4-.1-.6-.3-.8c-.2-.2-.4-.3-.7-.3c-.3 0-.6.1-.8.3c-.2.2-.3.5-.3.8v2.1h-.5zm6.5 0v-4.9h.5v2.9l2.8-2.9h.8l-2.2 2.1l2.2 2.8h-.7l-1.8-2.4l-1.1 1.1v1.3h-.5zm6.3.1c-.5 0-.9-.2-1.3-.6c-.3-.3-.5-.8-.5-1.3c0-.5.2-1 .5-1.3c.4-.4.8-.6 1.4-.6c.5 0 .9.2 1.3.6c.4.3.5.8.5 1.3c0 .5-.1 1-.5 1.3c-.4.4-.8.6-1.4.6zm.1-.5c.3 0 .7-.1.9-.4c.3-.3.4-.6.4-1c0-.4-.1-.7-.4-1c-.3-.3-.6-.4-1-.4c-.3 0-.7.1-.9.4c-.2.3-.4.6-.4 1c0 .4.2.7.4 1c.3.3.6.4 1 .4zm5.7-.3c-.3.5-.8.8-1.4.8c-.4 0-.8-.2-1.2-.5c-.3-.4-.5-.8-.5-1.4c0-.6.2-1 .5-1.4c.4-.3.8-.5 1.2-.5c.6 0 1.1.3 1.4.8c.02-.03 0-2.2 0-2.2h.6v5.1h-.6v-.7s.02-.03 0 0zm-1.3.3c.4 0 .7-.1 1-.4c.2-.3.3-.6.3-1c0-.4-.1-.8-.3-1c-.3-.3-.6-.4-1-.4c-.3 0-.6.1-.9.4c-.2.2-.3.6-.3 1c0 .4.1.8.3 1c.3.3.6.4.9.4zm5.6-.2c-.3.4-.7.7-1.2.7c-.4 0-.8-.2-1-.4c-.3-.3-.4-.6-.4-1.1c.01.03 0-2.2 0-2.2h.5s.05 2.09 0 2.1c0 .3.1.6.3.8c.2.2.4.3.8.3c.3 0 .5-.1.7-.3c.2-.2.3-.5.3-.8c.04-.05 0-2.1 0-2.1h.6v3.6h-.6v-.6s.04-.03 0 0zm1.7-2.3v-.7h.7v.7h-.7zm0 2.9v-.7h.7v.7h-.7zm5.9.1c-.6 0-1.2-.3-1.6-.7c-.4-.5-.6-1.1-.6-1.8v-.1c0-.7.2-1.3.6-1.8c.4-.4 1-.7 1.6-.7c.7 0 1.2.3 1.6.7c.4.5.6 1.1.6 1.8c0 .8-.2 1.4-.6 1.9c-.4.4-1 .7-1.6.7zm-1.1-2.6c0 .5.1.9.3 1.2c.2.3.5.4.8.4c.3 0 .6-.1.8-.4c.2-.3.3-.7.3-1.1v-.1c0-.4-.1-.8-.3-1.1c-.2-.3-.5-.4-.8-.4c-.3 0-.6.1-.8.4c-.2.3-.3.7-.3 1.1c.04.04 0 0 0 0c0 0 .04.05 0 0zm3.9 2.5v-.9s1.67-1.29 1.7-1.3l.6-.6c.2-.2.2-.4.2-.6c0-.2 0-.3-.2-.4c-.1-.1-.2-.2-.4-.2c-.2 0-.4 0-.5.1c-.2.1-.4.3-.5.6l-.8-.7c.3-.3.5-.6.8-.7c.3-.2.6-.3 1-.3c.5 0 .9.2 1.2.4c.4.3.5.7.5 1.1v.1c0 .3-.1.7-.3.9c-.2.3-.5.6-1 1c.03-.05-.8.6-.8.6h2.2v.9h-3.7zm6.6.1c-.6 0-1.2-.3-1.6-.7c-.4-.5-.6-1.1-.6-1.8v-.1c0-.7.2-1.3.6-1.8c.4-.4 1-.7 1.6-.7c.7 0 1.2.3 1.6.7c.4.5.6 1.1.6 1.8c0 .8-.2 1.4-.6 1.9c-.4.4-1 .7-1.6.7zm-1.1-2.6c0 .5.1.9.3 1.2c.2.3.5.4.8.4c.3 0 .6-.1.8-.4c.2-.3.3-.7.3-1.1v-.1c0-.4-.1-.8-.3-1.1c-.2-.3-.5-.4-.8-.4c-.3 0-.6.1-.8.4c-.2.3-.3.7-.3 1.1c.04.04 0 0 0 0c0 0 .04.05 0 0zm4.9 2.5v-3.8l-.9.2l-.2-.9l1.4-.4h.7v4.9h-1zm4.1.1c-.6 0-1.1-.2-1.5-.5c-.3-.4-.5-1-.5-1.9c0-.8.1-1.4.5-1.9c.4-.5.9-.8 1.6-.8c.6 0 1.1.2 1.5.6l-.5.8c-.2-.1-.4-.2-.5-.3c-.2-.1-.3-.1-.5-.1c-.2 0-.3 0-.5.1l-.3.3c-.1.1-.1.3-.1.4c-.1.1-.1.2-.1.3c.3-.2.6-.3 1-.3c.5 0 .9.2 1.2.4c.4.3.5.7.5 1.2c0 .5-.2.9-.5 1.2c-.4.3-.8.5-1.3.5zM60 154c0 .2 0 .4.2.6c.1.1.4.2.6.2c.3 0 .5-.1.6-.2c.2-.2.3-.3.3-.6c0-.2-.1-.4-.3-.5c-.1-.1-.3-.2-.6-.2c-.3 0-.5.1-.6.2c-.2.1-.2.3-.2.5c-.04.02 0 0 0 0c0 0-.04.03 0 0zm4.3 1.6v-3.8l-.9.2l-.2-.9l1.4-.4h.8v4.9h-1.1zm2.1-1.7v-1h2.1v1h-2.1zm3.5 1.7v-3.8l-.9.2l-.2-.9l1.4-.4h.8v4.9h-1.1zm4.1.1c-.6 0-1.1-.2-1.4-.5c-.4-.4-.6-1-.6-1.9c0-.8.2-1.4.5-1.9c.4-.5.9-.8 1.6-.8c.6 0 1.1.2 1.6.6l-.6.8c-.2-.1-.3-.2-.5-.3c-.1-.1-.3-.1-.5-.1c-.2 0-.3 0-.5.1l-.3.3c0 .1-.1.3-.1.4c-.1.1-.1.2-.1.3c.3-.2.7-.3 1-.3c.5 0 .9.2 1.3.4c.3.3.4.7.4 1.2c0 .5-.1.9-.5 1.2c-.3.3-.8.5-1.3.5zm-.9-1.7c0 .2.1.4.2.6c.2.1.4.2.6.2c.3 0 .5-.1.6-.2c.2-.2.3-.3.3-.6c0-.2-.1-.4-.3-.5c-.1-.1-.3-.2-.6-.2c-.2 0-.4.1-.6.2c-.1.1-.2.3-.2.5c-.02.02 0 0 0 0c0 0-.02.03 0 0zm5.3 1.7c-.7 0-1.3-.3-1.9-.8l.7-.7c.4.3.8.5 1.2.5c.2 0 .4-.1.6-.2c.1-.1.2-.3.2-.5c0-.2-.1-.4-.3-.5c-.1-.1-.3-.2-.6-.2c-.3 0-.5.1-.8.2c-.01.03-.6-.4-.6-.4l.1-2.4h3v.9h-2.1s-.03.89 0 .9c.2-.1.4-.1.6-.1c.5 0 .9.1 1.3.4c.3.3.4.7.4 1.2c0 .5-.1.9-.5 1.2c-.3.3-.8.5-1.3.5z" stroke="none" fill="#000"/></g><g id="Polygon418847"><path d="m.6 145.6v-4.9h2.3c.5 0 1 .1 1.2.4c.3.3.4.5.4.9c0 .5-.2.8-.7 1c.3.2.6.3.7.5c.2.2.3.4.3.7v.1c0 .4-.2.7-.5 1c-.4.2-.8.3-1.4.3H.6zm2-2.9c.6 0 .8-.2.8-.5v-.1c0-.3-.2-.5-.7-.5c0 .04-1.1 0-1.1 0v1.1h1s.03-.02 0 0zm.3 2c.5 0 .8-.2.8-.6c0-.3-.3-.5-.8-.5c-.02-.02-1.3 0-1.3 0v1.1h1.3s.02-.05 0 0zm4.8.5c-.3.3-.6.5-1.1.5c-.4 0-.7-.1-.9-.3c-.3-.2-.4-.5-.4-.9c0-.4.1-.7.4-.9c.3-.2.7-.3 1.1-.3c.3 0 .6.1.9.2v-.1c0-.5-.2-.7-.8-.7c-.3 0-.7.1-1 .2l-.3-.8c.5-.2 1-.3 1.5-.3c.5 0 1 .1 1.3.4c.2.3.4.7.4 1.2c-.04.02 0 2.2 0 2.2H7.7v-.4s.03-.01 0 0zm-.8-.3c.3 0 .5 0 .6-.1c.2-.2.2-.3.2-.5v-.2c-.2-.1-.4-.2-.6-.2c-.3 0-.4.1-.6.2c-.1.1-.2.2-.2.4c0 .1.1.2.2.3c.1.1.2.1.4.1zm2.8.7v-3.8h1s.04.8 0 .8c.3-.6.7-.8 1.2-.8c.03-.02 0 1.1 0 1.1c0 0-.02-.01 0 0c-.4 0-.7.1-.9.3c-.2.2-.3.6-.3 1c.04.01 0 1.4 0 1.4h-1zm5.5-.5c-.3.4-.6.6-1.1.6c-.5 0-.9-.2-1.2-.6c-.4-.3-.5-.8-.5-1.4c0-.6.1-1.1.5-1.4c.3-.3.7-.5 1.2-.5c.4 0 .8.2 1.1.5c.04.04 0-1.8 0-1.8h1.1v5.1h-1.1v-.5s.04-.04 0 0zm-1.8-1.4c0 .3.1.6.3.8c.2.2.4.3.6.3c.3 0 .5-.1.7-.3c.2-.2.3-.5.3-.8c0-.3-.1-.5-.3-.7c-.2-.2-.4-.3-.7-.3c-.2 0-.4.1-.6.3c-.2.2-.3.4-.3.7c.03.02 0 0 0 0c0 0 .03.03 0 0zm6.1 1.5c-.3.3-.7.5-1.2.5c-.3 0-.7-.1-.9-.3c-.2-.2-.4-.5-.4-.9c0-.4.2-.7.4-.9c.3-.2.7-.3 1.1-.3c.3 0 .7.1 1 .2v-.1c0-.5-.3-.7-.8-.7c-.4 0-.7.1-1.1.2l-.2-.8c.4-.2.9-.3 1.4-.3c.6 0 1 .1 1.3.4c.2.3.4.7.4 1.2c-.02.02 0 2.2 0 2.2h-1v-.4s-.05-.01 0 0zm-.9-.3c.3 0 .5 0 .6-.1c.2-.2.3-.3.3-.5v-.2c-.2-.1-.5-.2-.7-.2c-.2 0-.4.1-.5.2c-.2.1-.2.2-.2.4c0 .1 0 .2.1.3c.1.1.3.1.4.1zm2.8.7v-5.1h1.1v2.7l1.2-1.4h1.3l-1.4 1.5l1.4 2.3h-1.2l-1-1.5l-.3.4v1.1h-1.1zm5.6.9l3.1-6.5h.9l-3.1 6.5h-.9zm6.6-.9v-4.9h1.9c.7 0 1.4.2 1.8.7c.5.5.8 1 .8 1.7c0 .7-.3 1.3-.8 1.8c-.4.5-1.1.7-1.8.7h-1.9zm1.9-3.9c-.02-.03-.9 0-.9 0v2.9s.88.03.9 0c.4 0 .8-.1 1-.4c.3-.2.5-.6.5-1v-.1c0-.4-.2-.7-.5-1c-.2-.3-.6-.4-1-.4zm3.4-.3v-.9h1.2v.9h-1.2zm.1 4.2v-3.8h1v3.8h-1zm3.2 1.2l-.9-.4l.6-.8c-.4-.1-.8-.2-1.2-.5l.5-.7c.4.3.8.5 1.2.5c.3 0 .4-.1.4-.3v-.1c0-.1 0-.1-.1-.1v-.1h-.2l-.1-.1h-.2l-.1-.1c-.2 0-.3-.1-.4-.1c-.2-.1-.3-.1-.4-.2l-.3-.3c0-.2-.1-.3-.1-.5c0-.4.2-.7.4-.9c.3-.2.6-.3 1-.3c.5 0 1 .1 1.4.4l-.4.8c-.4-.3-.7-.4-1-.4c-.1 0-.2 0-.3.1c-.1 0-.1.1-.1.2c0 .1.1.1.2.2c.1.1.3.2.6.2c.1.1.3.1.4.2c.1 0 .2.1.3.2l.3.3c.1.1.1.3.1.4v.1c0 .3-.1.6-.3.8c-.2.2-.5.3-.8.3c-.01.05-.5 1.2-.5 1.2zm4.6-1.2v-4.9h3.7v1h-2.7v1h2.4v1h-2.4v1.9h-1zm4.5 0v-3.8h1.1v3.8h-1.1zm2.1 0v-3.8h1s.02.8 0 .8c.3-.6.7-.8 1.2-.8c.02-.02 0 1.1 0 1.1c0 0-.03-.01 0 0c-.4 0-.7.1-.9.3c-.2.2-.3.6-.3 1c.02.01 0 1.4 0 1.4h-1zm4.3 1.2l-.9-.4s.56-.8.6-.8c-.4-.1-.8-.4-1-.7c-.3-.3-.4-.7-.4-1.2c0-.5.2-1 .6-1.4c.3-.3.8-.5 1.4-.5c.6 0 1.1.2 1.5.6l-.7.7c-.1-.1-.3-.2-.4-.3c-.1-.1-.3-.1-.4-.1c-.3 0-.5.1-.7.3c-.2.2-.3.4-.3.7c0 .3.1.6.3.8c.2.2.4.3.7.3c.3 0 .6-.2.9-.4l.6.6c-.2.2-.4.4-.6.5c-.2.1-.5.2-.8.2c.03-.02-.4 1.1-.4 1.1zm4.7-1.6c-.3.3-.7.5-1.2.5c-.3 0-.6-.1-.9-.3c-.2-.2-.3-.5-.3-.9c0-.4.1-.7.4-.9c.2-.2.6-.3 1.1-.3c.3 0 .6.1.9.2v-.1c0-.5-.3-.7-.8-.7c-.4 0-.7.1-1.1.2l-.2-.8c.4-.2.9-.3 1.4-.3c.6 0 1 .1 1.3.4c.3.3.4.7.4 1.2c.01.02 0 2.2 0 2.2h-1v-.4s-.02-.01 0 0zm-.8-.3c.2 0 .4 0 .6-.1c.1-.2.2-.3.2-.5v-.2c-.2-.1-.4-.2-.7-.2c-.2 0-.4.1-.5.2c-.2.1-.2.2-.2.4c0 .1 0 .2.1.3c.2.1.3.1.5.1zm2.8.7v-5.1h1v5.1h-1zm2.1 0v-3.8h1v3.8h-1zm2 0v-5.1h1.1v2.7l1.3-1.4h1.2l-1.4 1.5l1.5 2.3H71l-1-1.5l-.4.4v1.1h-1.1z" stroke="none" fill="#000"/></g><g id="Polygon418846"><path d="m.7 85.6v-4.9h.5v2.2h2.9v-2.2h.5v4.9h-.5v-2.2H1.2v2.2h-.5zm7.6-.5c-.3.4-.7.6-1.3.6c-.4 0-.7-.1-.9-.3c-.3-.2-.5-.5-.5-.9c0-.3.2-.6.5-.8c.3-.2.6-.3 1.1-.3c.4 0 .7 0 1.1.1v-.1c0-.3-.1-.6-.3-.7c-.2-.2-.4-.3-.8-.3c-.3 0-.7.1-1.1.3l-.1-.5c.4-.2.8-.3 1.3-.3c.5 0 .9.2 1.2.4c.2.3.3.6.3 1.1c.03-.01 0 2.2 0 2.2h-.5v-.5s.01-.05 0 0zm-1.2.1c.3 0 .6 0 .9-.2c.2-.2.3-.4.3-.7v-.4c-.3-.1-.7-.1-1-.1c-.4 0-.6 0-.8.2c-.2.1-.3.3-.3.5c0 .2.1.4.3.6c.1.1.4.1.6.1zm6-.2c-.4.5-.9.7-1.5.7c-.5 0-1-.2-1.3-.6c-.4-.3-.5-.8-.5-1.3c0-.5.1-1 .5-1.3c.3-.4.8-.6 1.3-.6c.6 0 1 .2 1.5.6l-.4.4c-.3-.3-.7-.5-1.1-.5c-.4 0-.7.1-.9.4c-.3.3-.4.6-.4 1c0 .4.1.7.4 1c.2.3.6.4.9.4c.4 0 .8-.2 1.1-.5c.04-.04.4.3.4.3c0 0-.02-.02 0 0zm.9-3.8v-.6h.6v.6h-.6zm0 4.4V82h.6v3.6h-.6zm1.8 0V82h.6s-.05.59 0 .6c.1-.2.3-.4.4-.5c.2-.1.4-.2.7-.2c.6 0 1 .2 1.2.7c.3-.5.7-.7 1.3-.7c.4 0 .7.1.9.4c.3.3.4.6.4 1.1v2.2h-.5s-.04-2.11 0-2.1c0-.4-.1-.6-.3-.8c-.2-.2-.4-.3-.7-.3c-.3 0-.5.1-.7.3c-.2.2-.3.5-.3.8c.02.01 0 2.1 0 2.1h-.5v-2.1c0-.4-.1-.6-.3-.8c-.1-.2-.4-.3-.6-.3c-.3 0-.6.1-.8.3c-.2.2-.2.5-.2.8c-.05.03 0 2.1 0 2.1h-.6zm6.6-2.9v-.7h.7v.7h-.7zm0 2.9v-.7h.7v.7h-.7zm4.2-.9c.4.3.8.5 1.2.5c.5 0 .8-.2 1.1-.6c.2-.4.4-.9.4-1.5v-.1c-.4.6-.8.8-1.4.8c-.5 0-.9-.1-1.3-.4c-.3-.3-.4-.7-.4-1.1c0-.5.1-.9.5-1.2c.3-.3.7-.5 1.2-.5c.6 0 1 .2 1.3.5c.4.4.6 1.1.6 1.9c0 .8-.2 1.4-.5 1.9c-.4.5-.9.8-1.5.8c-.5 0-1-.2-1.5-.6c-.02-.02.3-.4.3-.4c0 0 0-.05 0 0zm1.3-1.4c.4 0 .7-.1.9-.3c.2-.2.4-.5.4-.8c0-.3-.2-.6-.4-.8c-.2-.2-.5-.3-.9-.3c-.3 0-.6.1-.8.3c-.3.3-.4.5-.4.9c0 .3.1.5.4.7c.2.2.5.3.8.3zm2.8 2.3v-.7h.7v.7h-.7zm3.3.1c-.6 0-1.2-.3-1.7-.8l.3-.4c.5.5.9.7 1.4.7c.4 0 .6-.1.9-.3c.2-.2.3-.5.3-.8c0-.3-.1-.6-.3-.8c-.3-.2-.6-.2-.9-.2c-.4 0-.7 0-1 .2c-.04.03-.4-.2-.4-.2l.1-2.4h2.8v.5h-2.3l-.1 1.6c.3-.2.6-.2 1-.2c.5 0 .9.1 1.2.4c.3.2.5.6.5 1.1c0 .4-.2.8-.5 1.1c-.3.3-.8.5-1.3.5zm6.5 0c-.5 0-1-.2-1.3-.6c-.4-.3-.5-.8-.5-1.3c0-.5.1-1 .5-1.3c.4-.4.8-.6 1.3-.6c.6 0 1 .2 1.4.6c.3.3.5.8.5 1.3c0 .5-.2 1-.5 1.3c-.4.4-.8.6-1.4.6zm0-.5c.4 0 .7-.1 1-.4c.2-.3.4-.6.4-1c0-.4-.2-.7-.4-1c-.3-.3-.6-.4-1-.4c-.4 0-.7.1-.9.4c-.3.3-.4.6-.4 1c0 .4.1.7.4 1c.2.3.6.4.9.4zm2.5.4v-.3l2.5-2.9h-2.4v-.4h3.1v.3l-2.4 2.8h2.4v.5H43zm6.7-2c0 1.1.5 1.9 1.6 2.6l-.2.4c-1.3-.7-2-1.7-2-3c0-1.3.7-2.3 2-3l.2.4c-1.1.6-1.6 1.5-1.6 2.6c-.03-.01 0 0 0 0c0 0-.03 0 0 0zm2.3 2v-.4l1.8-1.6c.4-.3.6-.6.8-.8c.1-.3.2-.5.2-.7c0-.3-.1-.5-.3-.7c-.2-.2-.4-.3-.7-.3c-.2 0-.5.1-.7.2c-.2.2-.4.4-.6.7l-.4-.3c.3-.4.5-.7.8-.8c.2-.2.6-.3 1-.3c.4 0 .8.2 1.1.4c.3.3.4.6.4 1c0 .4-.1.7-.3.9c-.2.3-.5.6-.9 1l-1.4 1.2h2.6v.5H52zm7.9-1.3c0 .4-.1.7-.5 1c-.3.2-.8.4-1.3.4c-.5 0-1-.2-1.3-.4c-.4-.3-.6-.6-.6-1c0-.3.1-.6.3-.8c.2-.2.4-.3.8-.4c-.6-.3-.9-.7-.9-1.2c0-.3.2-.7.5-.9c.3-.2.7-.4 1.2-.4c.4 0 .8.2 1.2.4c.3.2.5.6.5.9c0 .5-.3.9-.9 1.2c.3.1.6.2.8.4c.1.2.2.5.2.8c.03-.04 0 0 0 0c0 0 .03-.02 0 0zM57 82c0 .2.1.4.3.6c.2.2.5.3.8.3c.3 0 .6-.1.8-.3c.2-.2.3-.4.3-.6c0-.3-.1-.5-.3-.6c-.2-.2-.5-.3-.8-.3c-.3 0-.6.1-.8.3c-.2.1-.3.3-.3.6c-.03-.04 0 0 0 0c0 0-.03-.03 0 0zm-.2 2.3c0 .2.1.4.4.6c.2.2.5.3.9.3c.4 0 .7-.1.9-.3c.3-.2.4-.4.4-.6c0-.3-.2-.5-.4-.7c-.3-.2-.6-.3-.9-.3c-.4 0-.7.1-.9.3c-.3.2-.4.4-.4.7c0-.04 0 0 0 0c0 0 0-.03 0 0zm8.1-1.2c0 .8-.2 1.4-.6 1.8c-.4.5-.9.8-1.5.8c-.6 0-1.1-.3-1.5-.7c-.4-.5-.6-1.1-.6-1.8v-.1c0-.7.2-1.3.6-1.7c.4-.5.9-.8 1.5-.8c.6 0 1.1.3 1.5.7c.4.5.6 1.1.6 1.8c-.04.04 0 0 0 0c0 0-.04.05 0 0zm-3.6 0c0 .6.1 1.1.4 1.5c.3.4.7.6 1.1.6c.5 0 .8-.2 1.1-.6c.3-.4.4-.9.4-1.4v-.1c0-.5-.2-1-.4-1.4c-.3-.4-.7-.6-1.1-.6c-.5 0-.8.2-1.1.6c-.3.4-.4.9-.4 1.4c0 .04 0 0 0 0c0 0 0 .05 0 0zm6.7 2.5V82h.5s.04.59 0 .6c.2-.2.3-.4.5-.5c.2-.1.4-.2.7-.2c.6 0 .9.2 1.2.7c.3-.5.7-.7 1.2-.7c.5 0 .8.1 1 .4c.3.3.4.6.4 1.1c-.01-.04 0 2.2 0 2.2h-.6s.05-2.11 0-2.1c0-.4 0-.6-.2-.8c-.2-.2-.4-.3-.7-.3c-.3 0-.5.1-.7.3c-.2.2-.3.5-.3.8v2.1h-.5s-.02-2.13 0-2.1c0-.4-.1-.6-.3-.8c-.1-.2-.4-.3-.7-.3c-.2 0-.5.1-.7.3c-.2.2-.3.5-.3.8c.04.03 0 2.1 0 2.1h-.5zm6.7 0v-5.1h.5v5.1h-.5zm3.7-2c0 1.3-.6 2.3-1.9 3l-.2-.4c1-.7 1.6-1.5 1.6-2.6c0-1.1-.6-2-1.6-2.6l.2-.4c1.3.7 1.9 1.7 1.9 3c.03-.01 0 0 0 0c0 0 .03 0 0 0z" stroke="none" fill="#000"/></g><g id="Polygon418845"><path d="m3.3 70.2v-.6h.7v.6h-.7zm-1.3 0v-.6h.6v.6h-.6zm3.5 2.9c0 .7-.3 1.3-.7 1.8c-.5.5-1.1.8-1.8.8c-.8 0-1.4-.3-1.8-.8c-.5-.4-.7-1-.7-1.7v-.1c0-.6.2-1.2.7-1.7c.5-.5 1.1-.8 1.8-.8c.7 0 1.3.3 1.8.8c.4.4.7 1 .7 1.7c-.03.04 0 0 0 0c0 0-.03.05 0 0zm-4.4 0c0 .6.1 1.1.5 1.5c.4.4.8.6 1.4.6c.5 0 1-.2 1.4-.6c.3-.4.5-.9.5-1.4v-.1c0-.5-.2-1-.5-1.4c-.4-.4-.9-.6-1.4-.6c-.6 0-1 .2-1.4.6c-.4.4-.5.9-.5 1.4c-.05.04 0 0 0 0c0 0-.05.05 0 0zm5.5 2.5v-5.1h.5v5.1h-.5zm3.1 1.1l-.6-.3s.59-.75.6-.8c-.5 0-.8-.2-1.1-.6c-.3-.3-.4-.7-.4-1.2c0-.5.1-1 .5-1.3c.4-.4.8-.6 1.3-.6c.6 0 1.1.2 1.5.6l-.4.4c-.3-.3-.7-.5-1.1-.5c-.4 0-.7.1-.9.4c-.3.3-.4.6-.4 1c0 .4.1.7.4 1c.3.3.6.4 1 .4c.4 0 .7-.2 1.1-.5l.3.3c-.4.4-.8.7-1.4.7c.03-.02-.4 1-.4 1zm4.5-5.3v-.6h.6v.6h-.6zm-1.2 0v-.6h.6v.6h-.6zm1.9 3.6c-.3.4-.7.7-1.2.7c-.4 0-.8-.2-1-.4c-.3-.3-.4-.6-.4-1.1c.01.03 0-2.2 0-2.2h.5s.04 2.09 0 2.1c0 .3.1.6.3.8c.2.2.4.3.7.3c.4 0 .6-.1.8-.3c.2-.2.3-.5.3-.8c.03-.05 0-2.1 0-2.1h.6v3.6h-.6v-.6s.03-.03 0 0zm1.8.6v-5.1h.6v5.1h-.6zm4.9-.6c-.4.5-.9.7-1.5.7c-.5 0-.9-.2-1.3-.5c-.3-.4-.5-.8-.5-1.4c0-.5.2-1 .5-1.4c.3-.3.7-.5 1.2-.5c.5 0 1 .2 1.3.5c.3.4.4.9.4 1.4v.2h-2.9c.1.4.2.7.5.9c.2.2.5.3.8.3c.4 0 .8-.2 1.2-.5c-.05 0 .3.3.3.3c0 0-.01 0 0 0zm-2.8-1.4h2.4c-.1-.4-.2-.7-.4-.9c-.2-.2-.4-.3-.8-.3c-.3 0-.6.1-.8.3c-.2.2-.3.5-.4.9zm3.9 2V72h.5v.9c.1-.3.3-.5.6-.7c.2-.2.5-.3.9-.3c-.03.02 0 .6 0 .6h-.1c-.4 0-.7.1-1 .4c-.3.3-.4.7-.4 1.3v1.4h-.5zm2.8-2.9v-.7h.6v.7h-.6zm0 2.9v-.7h.6v.7h-.6zm8.2-4.9h.6s-.69.73-.7.7c.4.5.6 1.1.6 1.7c0 .7-.2 1.3-.7 1.8c-.4.5-1 .8-1.8.8c-.6 0-1.1-.2-1.5-.5c0-.03-.4.4-.4.4h-.6s.68-.72.7-.7c-.4-.5-.7-1.1-.7-1.7v-.1c0-.6.3-1.2.8-1.7c.4-.5 1-.8 1.8-.8c.5 0 1 .2 1.5.5l.4-.4zm-3.9 2.4c0 .6.2 1 .5 1.4l2.6-3c-.3-.2-.7-.4-1.2-.4c-.5 0-1 .2-1.3.6c-.4.4-.6.9-.6 1.4zm.7 1.7c.4.2.8.4 1.3.4c.5 0 1-.2 1.3-.6c.4-.4.6-.9.6-1.4c0-.5-.2-1-.5-1.4c.03.03-2.7 3-2.7 3c0 0 .05-.03 0 0zm8.5.9c-.8 0-1.4-.3-1.8-.9l.4-.3c.4.4.8.7 1.4.7c.3 0 .6-.1.8-.3c.2-.2.3-.4.3-.7c0-.3-.2-.5-.4-.7c-.3-.1-.6-.2-1-.2c0-.03-.3 0-.3 0l-.1-.4l1.5-1.7h-2.4v-.5h3.2v.4s-1.58 1.71-1.6 1.7c.5.1.9.2 1.2.4c.3.2.4.6.4 1c0 .4-.1.8-.4 1.1c-.4.2-.7.4-1.2.4zm3.6-2.3h-.4V71l-.6.3l-.1-.3l.8-.3h.3v2.7zm-.5 2.2l1.7-2.5l1.6-2.4h.4L44 73.2l-1.6 2.4h-.3zm4.1-.6v.6h-.4v-.6h-1.3l-.1-.3l1.4-1.9h.4v1.9h.4v.3h-.4zm-.4-.3v-1.4l-1 1.4h1zm2.9-2.4l-.1-.3c.4-.1.5-.3.5-.6c.01.03-.2 0-.2 0v-.7h.6v.6c0 .3-.1.5-.2.7c-.1.1-.3.2-.6.3zm-1.4 0l-.1-.3c.4-.1.5-.3.5-.6c.01.03-.2 0-.2 0v-.7h.6v.6c0 .3-.1.5-.2.7c-.1.1-.3.2-.6.3zm8.2 2.4l-1.2-1.2l-1.2 1.2l-.4-.3l1.2-1.3l-1.2-1.2l.4-.3l1.2 1.2l1.2-1.2l.4.3l-1.3 1.2l1.3 1.2l-.4.4zm7.1-.4c0 .4-.2.7-.5 1c-.4.2-.8.4-1.3.4c-.5 0-1-.2-1.3-.4c-.4-.3-.6-.6-.6-1c0-.3.1-.6.3-.8c.2-.2.4-.3.7-.4c-.5-.3-.8-.7-.8-1.2c0-.3.2-.7.5-.9c.3-.2.7-.4 1.2-.4c.4 0 .8.2 1.2.4c.3.2.5.6.5.9c0 .5-.3.9-.9 1.2c.3.1.6.2.7.4c.2.2.3.5.3.8c.02-.04 0 0 0 0c0 0 .02-.02 0 0zM59.7 72c0 .2.1.4.3.6c.2.2.5.3.8.3c.3 0 .6-.1.8-.3c.2-.2.3-.4.3-.6c0-.3-.1-.5-.3-.6c-.2-.2-.5-.3-.8-.3c-.3 0-.6.1-.8.3c-.2.1-.3.3-.3.6c-.04-.04 0 0 0 0c0 0-.04-.03 0 0zm-.2 2.3c0 .2.1.4.3.6c.3.2.6.3 1 .3c.4 0 .7-.1.9-.3c.2-.2.4-.4.4-.6c0-.3-.2-.5-.4-.7c-.3-.2-.6-.3-.9-.3c-.4 0-.7.1-.9.3c-.3.2-.4.4-.4.7c0-.04 0 0 0 0c0 0 0-.03 0 0zm5.3-2l-.1-.3c.4-.1.5-.3.5-.6c.01.03-.2 0-.2 0v-.7h.6v.6c0 .3-.1.5-.2.7c-.1.1-.3.2-.6.3zm-1.4 0l-.1-.3c.4-.1.5-.3.5-.6c.01.03-.2 0-.2 0v-.7h.6v.6c0 .3-.1.5-.2.7c-.1.1-.3.2-.6.3zm5.8 1.3c0 1.1.6 1.9 1.6 2.6l-.2.4c-1.3-.7-1.9-1.7-1.9-3c0-1.3.6-2.3 1.9-3l.2.4c-1 .6-1.6 1.5-1.6 2.6c.02-.01 0 0 0 0c0 0 .02 0 0 0zm6.8-2.9h.6l-.7.7c.4.5.6 1.1.6 1.7c0 .7-.2 1.3-.7 1.8c-.5.5-1.1.8-1.8.8c-.6 0-1.1-.2-1.5-.5c-.04-.03-.5.4-.5.4h-.6l.7-.7c-.4-.5-.6-1.1-.6-1.7v-.1c0-.6.2-1.2.7-1.7c.5-.5 1.1-.8 1.8-.8c.6 0 1.1.2 1.5.5c.04.03.5-.4.5-.4zm-3.9 2.4c0 .6.1 1 .4 1.4l2.7-3c-.4-.2-.8-.4-1.2-.4c-.6 0-1 .2-1.4.6c-.3.4-.5.9-.5 1.4zm.7 1.7c.3.2.7.4 1.2.4c.6 0 1-.2 1.4-.6c.4-.4.5-.9.5-1.4c0-.5-.1-1-.4-1.4c-.01.03-2.7 3-2.7 3c0 0 .01-.03 0 0zm10.3-.5c0 .4-.2.7-.5 1c-.4.2-.8.4-1.3.4c-.5 0-1-.2-1.3-.4c-.4-.3-.6-.6-.6-1c0-.3.1-.6.3-.8c.2-.2.4-.3.7-.4c-.5-.3-.8-.7-.8-1.2c0-.3.2-.7.5-.9c.3-.2.7-.4 1.2-.4c.4 0 .8.2 1.2.4c.3.2.5.6.5.9c0 .5-.3.9-.9 1.2c.3.1.6.2.8.4c.1.2.2.5.2.8c.02-.04 0 0 0 0c0 0 .02-.02 0 0zM80.2 72c0 .2.1.4.3.6c.2.2.5.3.8.3c.3 0 .6-.1.8-.3c.2-.2.3-.4.3-.6c0-.3-.1-.5-.3-.6c-.2-.2-.5-.3-.8-.3c-.3 0-.6.1-.8.3c-.2.1-.3.3-.3.6c-.04-.04 0 0 0 0c0 0-.04-.03 0 0zm-.2 2.3c0 .2.1.4.3.6c.3.2.6.3 1 .3c.4 0 .7-.1.9-.3c.2-.2.4-.4.4-.6c0-.3-.2-.5-.4-.7c-.3-.2-.6-.3-.9-.3c-.4 0-.7.1-.9.3c-.3.2-.4.4-.4.7c0-.04 0 0 0 0c0 0 0-.03 0 0zm3.9 2.2l-.1-.3c.4-.1.5-.3.5-.6h-.3v-.7h.7s-.03.59 0 .6c0 .3-.1.5-.2.6c-.1.2-.3.3-.6.4zm3.5-.8c-.8 0-1.4-.3-1.8-.9l.4-.3c.3.4.8.7 1.4.7c.3 0 .5-.1.7-.3c.3-.2.4-.4.4-.7c0-.3-.2-.5-.4-.7c-.3-.1-.6-.2-1-.2c-.01-.03-.3 0-.3 0l-.1-.4l1.5-1.7h-2.4v-.5h3.1v.4l-1.5 1.7c.5.1.9.2 1.2.4c.3.2.4.6.4 1c0 .4-.1.8-.5 1.1c-.3.2-.7.4-1.1.4zm7.6-1l-1.2-1.2l-1.2 1.2l-.4-.3l1.2-1.3l-1.2-1.2l.4-.3l1.2 1.2l1.2-1.2l.4.3l-1.3 1.2l1.3 1.2l-.4.4zm3.4.9v-.4s1.78-1.6 1.8-1.6c.4-.3.6-.6.8-.8c.1-.3.2-.5.2-.7c0-.3-.1-.5-.3-.7c-.2-.2-.4-.3-.7-.3c-.3 0-.5.1-.7.2c-.2.2-.4.4-.6.7l-.4-.3c.2-.4.5-.7.8-.8c.2-.2.5-.3 1-.3c.4 0 .8.2 1 .4c.3.3.5.6.5 1c0 .4-.1.7-.3.9c-.2.3-.5.6-1 1c.04.03-1.3 1.2-1.3 1.2h2.6v.5h-3.4zm8.4-2.5c0 .8-.2 1.4-.5 1.8c-.4.5-.9.8-1.5.8c-.7 0-1.2-.3-1.5-.7c-.4-.5-.6-1.1-.6-1.8v-.1c0-.7.2-1.3.6-1.7c.4-.5.9-.8 1.5-.8c.6 0 1.1.3 1.5.7c.3.5.5 1.1.5 1.8c.03.04 0 0 0 0c0 0 .03.05 0 0zm-3.5 0c0 .6.1 1.1.4 1.5c.3.4.6.6 1.1.6c.4 0 .8-.2 1.1-.6c.2-.4.4-.9.4-1.4v-.1c0-.5-.2-1-.5-1.4c-.2-.4-.6-.6-1-.6c-.5 0-.8.2-1.1.6c-.3.4-.4.9-.4 1.4c-.03.04 0 0 0 0c0 0-.03.05 0 0zm4.2 3.4l-.1-.3c.4-.1.5-.3.5-.6h-.2v-.7h.6v.6c0 .3-.1.5-.2.6c-.1.2-.3.3-.6.4zm3.5-.8c-.8 0-1.4-.3-1.8-.9l.4-.3c.4.4.9.7 1.4.7c.3 0 .6-.1.8-.3c.2-.2.3-.4.3-.7c0-.3-.1-.5-.4-.7c-.2-.1-.6-.2-1-.2c.02-.03-.3 0-.3 0l-.1-.4l1.5-1.7h-2.3v-.5h3.1v.4s-1.56 1.71-1.6 1.7c.5.1.9.2 1.2.4c.3.2.5.6.5 1c0 .4-.2.8-.5 1.1c-.3.2-.7.4-1.2.4zm7.9-.7c-.4.5-.9.7-1.4.7c-.6 0-1-.2-1.4-.6c-.3-.3-.5-.8-.5-1.3c0-.5.2-1 .5-1.3c.4-.4.8-.6 1.4-.6c.5 0 1 .2 1.4.6l-.3.4c-.4-.3-.8-.5-1.1-.5c-.4 0-.7.1-1 .4c-.2.3-.3.6-.3 1c0 .4.1.7.3 1c.3.3.6.4 1 .4c.4 0 .8-.2 1.1-.5c0-.04.3.3.3.3c0 0 .04-.02 0 0zm.9.6V72h.6s-.03.59 0 .6c.1-.2.3-.4.5-.5c.1-.1.4-.2.6-.2c.6 0 1 .2 1.2.7c.3-.5.7-.7 1.3-.7c.4 0 .7.1 1 .4c.2.3.3.6.3 1.1c.02-.04 0 2.2 0 2.2h-.5s-.02-2.11 0-2.1c0-.4-.1-.6-.3-.8c-.1-.2-.4-.3-.7-.3c-.2 0-.5.1-.7.3c-.2.2-.3.5-.3.8c.04.01 0 2.1 0 2.1h-.5v-2.1c0-.4-.1-.6-.2-.8c-.2-.2-.4-.3-.7-.3c-.3 0-.6.1-.7.3c-.2.2-.3.5-.3.8c-.03.03 0 2.1 0 2.1h-.6zm8.6-2c0 1.3-.6 2.3-1.9 3l-.2-.4c1-.7 1.6-1.5 1.6-2.6c0-1.1-.6-2-1.6-2.6l.2-.4c1.3.7 1.9 1.7 1.9 3c.03-.01 0 0 0 0c0 0 .03 0 0 0z" stroke="none" fill="#000"/></g><g id="Polygon418844"><path d="m3 60.3v-.7h.6v.7h-.6zm-1.3 0v-.7h.6v.7h-.6zm1 5.4c-.7 0-1.2-.2-1.5-.6c-.4-.4-.6-.9-.6-1.6c.02.05 0-2.8 0-2.8h.6s-.03 2.81 0 2.8c0 .5.1.9.4 1.2c.2.3.6.5 1.1.5c.4 0 .8-.2 1.1-.4c.2-.3.3-.7.3-1.3c.04.05 0-2.8 0-2.8h.6v2.8c0 .7-.2 1.2-.6 1.6c-.3.4-.8.6-1.4.6zm3.2-.1V62h.6s-.05.93 0 .9c.1-.3.3-.5.5-.7c.3-.2.6-.3.9-.3c.03.02 0 .6 0 .6c0 0-.01 0 0 0c-.4 0-.8.1-1 .4c-.3.3-.4.7-.4 1.3c-.05-.04 0 1.4 0 1.4h-.6zm4.7-4.2v-.6h.6v.6h-.6zm-1.3 0v-.6h.7v.6h-.7zm2 3.6c-.3.4-.7.7-1.2.7c-.4 0-.8-.2-1-.4c-.3-.3-.4-.6-.4-1.1c-.01.03 0-2.2 0-2.2h.5s.03 2.09 0 2.1c0 .3.1.6.3.8c.2.2.4.3.7.3c.3 0 .6-.1.8-.3c.2-.2.3-.5.3-.8c.02-.05 0-2.1 0-2.1h.6v3.6h-.6v-.6s.02-.03 0 0zm1.8.6V62h.5v.6c.3-.5.7-.7 1.2-.7c.5 0 .8.1 1.1.4c.2.3.3.6.3 1.1c.03-.05 0 2.2 0 2.2h-.5v-2.1c0-.4-.1-.6-.3-.8c-.2-.2-.4-.3-.7-.3c-.3 0-.6.1-.8.3c-.2.2-.3.5-.3.8v2.1h-.5zm6.5 0v-4.9h.5v2.9l2.8-2.9h.8l-2.2 2.1l2.2 2.8h-.7l-1.8-2.4l-1.1 1.1v1.3h-.5zm6.3.1c-.5 0-.9-.2-1.3-.6c-.3-.3-.5-.8-.5-1.3c0-.5.2-1 .5-1.3c.4-.4.8-.6 1.4-.6c.5 0 .9.2 1.3.6c.4.3.5.8.5 1.3c0 .5-.1 1-.5 1.3c-.4.4-.8.6-1.4.6zm.1-.5c.3 0 .7-.1.9-.4c.3-.3.4-.6.4-1c0-.4-.1-.7-.4-1c-.3-.3-.6-.4-1-.4c-.3 0-.7.1-.9.4c-.2.3-.4.6-.4 1c0 .4.2.7.4 1c.3.3.6.4 1 .4zm5.7-.3c-.3.5-.8.8-1.4.8c-.4 0-.8-.2-1.2-.5c-.3-.4-.5-.8-.5-1.4c0-.6.2-1 .5-1.4c.4-.3.8-.5 1.2-.5c.6 0 1.1.3 1.4.8c.02-.03 0-2.2 0-2.2h.6v5.1h-.6v-.7s.02-.03 0 0zm-1.3.3c.4 0 .7-.1 1-.4c.2-.3.3-.6.3-1c0-.4-.1-.8-.3-1c-.3-.3-.6-.4-1-.4c-.3 0-.6.1-.9.4c-.2.2-.3.6-.3 1c0 .4.1.8.3 1c.3.3.6.4.9.4zM36 65c-.3.4-.7.7-1.2.7c-.4 0-.8-.2-1-.4c-.3-.3-.4-.6-.4-1.1c.01.03 0-2.2 0-2.2h.5s.05 2.09 0 2.1c0 .3.1.6.3.8c.2.2.4.3.8.3c.3 0 .5-.1.7-.3c.2-.2.3-.5.3-.8c.04-.05 0-2.1 0-2.1h.6v3.6h-.6v-.6s.04-.03 0 0zm1.7-2.3v-.7h.7v.7h-.7zm0 2.9v-.7h.7v.7h-.7zm5.9.1c-.6 0-1.2-.3-1.6-.7c-.4-.5-.6-1.1-.6-1.8v-.1c0-.7.2-1.3.6-1.8c.4-.4 1-.7 1.6-.7c.7 0 1.2.3 1.6.7c.4.5.6 1.1.6 1.8c0 .8-.2 1.4-.6 1.9c-.4.4-1 .7-1.6.7zm-1.1-2.6c0 .5.1.9.3 1.2c.2.3.5.4.8.4c.3 0 .6-.1.8-.4c.2-.3.3-.7.3-1.1v-.1c0-.4-.1-.8-.3-1.1c-.2-.3-.5-.4-.8-.4c-.3 0-.6.1-.8.4c-.2.3-.3.7-.3 1.1c.04.04 0 0 0 0c0 0 .04.05 0 0zm3.9 2.5v-.9s1.67-1.29 1.7-1.3l.6-.6c.2-.2.2-.4.2-.6c0-.2 0-.3-.2-.4c-.1-.1-.2-.2-.4-.2c-.2 0-.4 0-.5.1c-.2.1-.4.3-.5.6l-.8-.7c.3-.3.5-.6.8-.7c.3-.2.6-.3 1-.3c.5 0 .9.2 1.2.4c.4.3.5.7.5 1.1v.1c0 .3-.1.7-.3.9c-.2.3-.5.6-1 1c.03-.05-.8.6-.8.6h2.2v.9h-3.7zm6.6.1c-.6 0-1.2-.3-1.6-.7c-.4-.5-.6-1.1-.6-1.8v-.1c0-.7.2-1.3.6-1.8c.4-.4 1-.7 1.6-.7c.7 0 1.2.3 1.6.7c.4.5.6 1.1.6 1.8c0 .8-.2 1.4-.6 1.9c-.4.4-1 .7-1.6.7zm-1.1-2.6c0 .5.1.9.3 1.2c.2.3.5.4.8.4c.3 0 .6-.1.8-.4c.2-.3.3-.7.3-1.1v-.1c0-.4-.1-.8-.3-1.1c-.2-.3-.5-.4-.8-.4c-.3 0-.6.1-.8.4c-.2.3-.3.7-.3 1.1c.04.04 0 0 0 0c0 0 .04.05 0 0zm4.9 2.5v-3.8l-.9.2l-.2-.9l1.4-.4h.7v4.9h-1zm4.1.1c-.6 0-1.1-.2-1.5-.5c-.3-.4-.5-1-.5-1.9c0-.8.1-1.4.5-1.9c.4-.5.9-.8 1.6-.8c.6 0 1.1.2 1.5.6l-.5.8c-.2-.1-.4-.2-.5-.3c-.2-.1-.3-.1-.5-.1c-.2 0-.3 0-.5.1l-.3.3c-.1.1-.1.3-.1.4c-.1.1-.1.2-.1.3c.3-.2.6-.3 1-.3c.5 0 .9.2 1.2.4c.4.3.5.7.5 1.2c0 .5-.2.9-.5 1.2c-.4.3-.8.5-1.3.5zM60 64c0 .2 0 .4.2.6c.1.1.4.2.6.2c.3 0 .5-.1.6-.2c.2-.2.3-.3.3-.6c0-.2-.1-.4-.3-.5c-.1-.1-.3-.2-.6-.2c-.3 0-.5.1-.6.2c-.2.1-.2.3-.2.5c-.04.02 0 0 0 0c0 0-.04.03 0 0zm5.2 1.7c-.8 0-1.4-.3-1.9-.9l.8-.7c.3.4.7.6 1.1.6c.2 0 .4 0 .5-.1c.2-.2.2-.3.2-.5c0-.2-.1-.3-.2-.5c-.2-.1-.4-.1-.7-.1h-.5l-.1-.7l1.1-1.2h-1.9v-.9h3.3v.8s-1.23 1.19-1.2 1.2c.9.1 1.3.6 1.3 1.4c0 .5-.2.8-.5 1.1c-.3.3-.7.5-1.3.5zm2.5-1.8v-1h2.2v1h-2.2zm3.6 1.7v-3.8l-.9.2l-.2-.9l1.4-.4h.8v4.9h-1.1zm4.1.1c-.6 0-1.1-.2-1.4-.5c-.4-.4-.6-1-.6-1.9c0-.8.2-1.4.5-1.9c.4-.5.9-.8 1.6-.8c.6 0 1.1.2 1.6.6l-.6.8c-.2-.1-.3-.2-.5-.3c-.1-.1-.3-.1-.5-.1c-.2 0-.3 0-.5.1l-.3.3c0 .1-.1.3-.1.4c-.1.1-.1.2-.1.3c.3-.2.7-.3 1-.3c.5 0 .9.2 1.3.4c.3.3.4.7.4 1.2c0 .5-.1.9-.5 1.2c-.3.3-.8.5-1.3.5zm-.9-1.7c0 .2 0 .4.2.6c.2.1.4.2.6.2c.3 0 .5-.1.6-.2c.2-.2.3-.3.3-.6c0-.2-.1-.4-.3-.5c-.1-.1-.3-.2-.6-.2c-.2 0-.5.1-.6.2c-.2.1-.2.3-.2.5c-.03.02 0 0 0 0c0 0-.03.03 0 0zm5.3 1.7c-.7 0-1.4-.3-1.9-.8l.7-.7c.4.3.8.5 1.2.5c.2 0 .4-.1.6-.2c.1-.1.2-.3.2-.5c0-.2-.1-.4-.3-.5c-.1-.1-.3-.2-.6-.2c-.3 0-.6.1-.8.2c-.02.03-.6-.4-.6-.4l.1-2.4h3v.9h-2.1s-.03.89 0 .9c.2-.1.4-.1.6-.1c.5 0 .9.1 1.3.4c.3.3.4.7.4 1.2c0 .5-.1.9-.5 1.2c-.3.3-.8.5-1.3.5z" stroke="none" fill="#000"/></g><g id="Polygon418843"><path d="m2.3 55.7c-.8 0-1.5-.3-2-.8l.6-.8c.5.4 1 .6 1.5.6c.2 0 .3 0 .5-.1c.1-.1.2-.2.2-.3v-.1c0-.1-.1-.2-.2-.3c-.2-.1-.4-.2-.8-.3c-.3-.1-.5-.1-.7-.2c-.2-.1-.3-.1-.5-.3c-.2-.1-.3-.2-.3-.4c-.1-.1-.2-.3-.2-.6c0-.4.2-.8.5-1.1c.3-.2.8-.4 1.3-.4c.7 0 1.3.2 1.8.7l-.6.8c-.4-.4-.9-.5-1.3-.5c-.2 0-.3 0-.4.1c-.1.1-.2.2-.2.3c0 .2.1.3.2.4c.2.1.4.2.9.3c.5.1.9.3 1.2.5c.2.2.3.5.3.9v.1c0 .4-.1.8-.5 1.1c-.3.2-.7.4-1.3.4zm2.7-.1v-3.8h1.1v3.8H5zm3.2 0l-1.5-3.8h1.2l.8 2.6l.8-2.6h1.2l-1.5 3.8h-1zm3.1 0v-3.8h1.1v3.8h-1.1zm6 .1c-.8 0-1.5-.3-2-.8l.6-.8c.5.4 1 .6 1.5.6c.2 0 .4 0 .5-.1c.1-.1.2-.2.2-.3v-.1c0-.1-.1-.2-.2-.3c-.2-.1-.4-.2-.8-.3c-.3-.1-.5-.1-.7-.2c-.2-.1-.3-.1-.5-.3c-.2-.1-.3-.2-.3-.4c-.1-.1-.1-.3-.1-.6c0-.4.1-.8.4-1.1c.3-.2.8-.4 1.3-.4c.7 0 1.3.2 1.8.7l-.6.8c-.4-.4-.9-.5-1.2-.5c-.2 0-.4 0-.5.1c-.1.1-.2.2-.2.3c0 .2.1.3.2.4c.2.1.4.2.9.3c.5.1.9.3 1.2.5c.2.2.3.5.3.9v.1c0 .4-.1.8-.5 1.1c-.3.2-.7.4-1.3.4zm4.9-.5c-.3.3-.7.5-1.2.5c-.3 0-.6-.1-.9-.3c-.2-.2-.4-.5-.4-.9c0-.4.2-.7.4-.9c.3-.2.7-.3 1.2-.3c.3 0 .6.1.9.2v-.1c0-.5-.3-.7-.8-.7c-.4 0-.7.1-1.1.2l-.2-.8c.4-.2.9-.3 1.4-.3c.6 0 1 .1 1.3.4c.3.3.4.7.4 1.2c-.01.02 0 2.2 0 2.2h-1v-.4s-.04-.01 0 0zm-.9-.3c.3 0 .5 0 .7-.1c.1-.2.2-.3.2-.5v-.2c-.2-.1-.5-.2-.7-.2c-.2 0-.4.1-.5.2c-.2.1-.2.2-.2.4c0 .1 0 .2.1.3c.1.1.3.1.4.1zm5 .8c-.4 0-.8-.2-1.1-.6c-.03.01 0 .5 0 .5h-1.1v-5.1h1.1s-.03 1.89 0 1.9c.3-.4.7-.6 1.1-.6c.5 0 .9.2 1.2.5c.4.3.5.8.5 1.4c0 .6-.1 1.1-.5 1.4c-.3.4-.7.6-1.2.6zm-1.1-2c0 .3 0 .6.2.8c.2.2.4.3.7.3c.2 0 .4-.1.6-.3c.2-.2.3-.5.3-.8c0-.3-.1-.5-.3-.7c-.2-.2-.4-.3-.6-.3c-.3 0-.5.1-.7.3c-.2.2-.2.4-.2.7c-.04.02 0 0 0 0c0 0-.04.03 0 0zm6 1.4c-.3.4-.7.6-1.1.6c-.4 0-.7-.2-1-.4c-.2-.2-.3-.6-.3-1v-2.5h1.1s-.03 2.14 0 2.1c0 .5.2.8.6.8c.2 0 .4-.1.5-.2c.1-.1.2-.3.2-.6c-.02.04 0-2.1 0-2.1h1v3.8h-1v-.5s-.02-.03 0 0zm2 .5v-3.8h1.1s-.04.58 0 .6c.3-.4.6-.6 1.1-.6c.4 0 .7.1.9.3c.2.3.3.6.3 1.1c.03-.03 0 2.4 0 2.4h-1s-.03-2.09 0-2.1c0-.5-.2-.8-.7-.8c-.2 0-.4.1-.5.2c-.1.2-.1.4-.1.6c-.04.01 0 2.1 0 2.1h-1.1zm4.4 0v-5.1h1.1v5.1h-1.1zm4.4-.5c-.3.4-.7.6-1.1.6c-.4 0-.7-.2-.9-.4c-.2-.2-.4-.6-.4-1c.04-.02 0-2.5 0-2.5h1.1v2.1c0 .5.2.8.6.8c.3 0 .4-.1.5-.2c.2-.1.2-.3.2-.6v-2.1h1.1v3.8H42v-.5s.01-.03 0 0zm2 .5v-5.1h1.1v2.7l1.2-1.4h1.3l-1.4 1.5l1.5 2.3h-1.3l-.9-1.5l-.4.4v1.1H44z" stroke="none" fill="#000"/></g><g id="Polygon418842"><path d="m2 35.6v-4.4H.3v-.5h3.9v.5H2.5v4.4h-.5zm4.6-.5c-.3.4-.7.6-1.3.6c-.4 0-.7-.1-.9-.3c-.3-.2-.4-.5-.4-.9c0-.3.1-.6.4-.8c.3-.2.6-.3 1.1-.3c.4 0 .7 0 1.1.1v-.1c0-.3-.1-.6-.3-.7c-.2-.2-.4-.3-.8-.3c-.3 0-.7.1-1.1.3l-.1-.5c.4-.2.8-.3 1.3-.3c.5 0 .9.2 1.2.4c.2.3.3.6.3 1.1c.03-.01 0 2.2 0 2.2h-.5v-.5s.02-.05 0 0zm-1.2.1c.4 0 .6 0 .9-.2c.2-.2.3-.4.3-.7v-.4c-.3-.1-.7-.1-1-.1c-.4 0-.6 0-.8.2c-.2.1-.3.3-.3.5c0 .2.1.4.3.6c.1.1.4.1.6.1zm4.1.5c-.6 0-1.1-.2-1.5-.6l.3-.3c.4.3.8.4 1.2.4c.2 0 .4 0 .5-.1c.2-.1.3-.3.3-.5c0-.1-.1-.3-.3-.4c-.1 0-.4-.1-.6-.2c-.2 0-.3-.1-.3-.1c-.1 0-.2-.1-.3-.1c-.1 0-.2-.1-.3-.1c0-.1-.1-.1-.2-.2c0-.1-.1-.1-.1-.2v-.3c0-.4.1-.6.3-.8c.2-.2.5-.3.9-.3c.5 0 .9.2 1.3.4l-.3.4c-.3-.2-.7-.3-1-.3c-.2 0-.4 0-.5.1c-.2.1-.2.2-.2.4v.2c.1 0 .1.1.2.1c0 .1.1.1.2.2h.2c.1.1.2.1.3.1c.1.1.3.1.3.1c.1.1.2.1.4.2c.1 0 .2.1.2.2c.1 0 .1.1.2.2c0 .1.1.2.1.4c0 .3-.2.6-.4.8c-.2.2-.5.3-.9.3zm4.7-.6c-.4.4-.8.6-1.4.6c-.3 0-.6-.1-.9-.3c-.3-.2-.4-.5-.4-.9c0-.3.1-.6.4-.8c.3-.2.7-.3 1.1-.3c.4 0 .8 0 1.2.1v-.1c0-.3-.1-.6-.3-.7c-.2-.2-.5-.3-.8-.3c-.4 0-.8.1-1.1.3l-.2-.5c.4-.2.9-.3 1.3-.3c.5 0 .9.2 1.2.4c.2.3.4.6.4 1.1c-.03-.01 0 2.2 0 2.2h-.5v-.5s-.05-.05 0 0zm-1.3.1c.4 0 .7 0 .9-.2c.2-.2.4-.4.4-.7v-.4c-.4-.1-.8-.1-1.1-.1c-.3 0-.6 0-.8.2c-.2.1-.3.3-.3.5c0 .2.1.4.3.6c.2.1.4.1.6.1zm2.9.4V32h.6s-.04.93 0 .9c.1-.3.3-.5.6-.7c.2-.2.5-.3.8-.3c.04.02 0 .6 0 .6c0 0-.01 0 0 0c-.4 0-.8.1-1 .4c-.3.3-.4.7-.4 1.3c-.04-.04 0 1.4 0 1.4h-.6zm2.9 0V32h.5v3.6h-.5zm1.8 0V32h.5s.03.59 0 .6c.2-.2.3-.4.5-.5c.2-.1.4-.2.7-.2c.5 0 .9.2 1.2.7c.3-.5.7-.7 1.2-.7c.5 0 .8.1 1 .4c.3.3.4.6.4 1.1c-.02-.04 0 2.2 0 2.2h-.6s.04-2.11 0-2.1c0-.4 0-.6-.2-.8c-.2-.2-.4-.3-.7-.3c-.3 0-.5.1-.7.3c-.2.2-.3.5-.3.8v2.1h-.5s-.03-2.13 0-2.1c0-.4-.1-.6-.3-.8c-.1-.2-.4-.3-.7-.3c-.2 0-.5.1-.7.3c-.2.2-.3.5-.3.8c.03.03 0 2.1 0 2.1h-.5zm6.6-2.9v-.7h.6v.7h-.6zm0 2.9v-.7h.6v.7h-.6zm4 0v-4.9h.6l1.7 2.7l1.8-2.7h.6v4.9h-.6v-4l-1.7 2.7h-.1l-1.8-2.7v4h-.5zm6-4.4v-.6h.6v.6h-.6zm0 4.4V32h.6v3.6h-.6zM42 35c-.4.5-.9.7-1.4.7c-.6 0-1-.2-1.4-.6c-.3-.3-.5-.8-.5-1.3c0-.5.2-1 .5-1.3c.4-.4.8-.6 1.4-.6c.5 0 1 .2 1.4.6l-.4.4c-.3-.3-.7-.5-1-.5c-.4 0-.7.1-1 .4c-.2.3-.3.6-.3 1c0 .4.1.7.3 1c.3.3.6.4 1 .4c.4 0 .8-.2 1.1-.5c-.01-.04.3.3.3.3c0 0 .03-.02 0 0zm.9.6v-5.1h.6s-.04 2.11 0 2.1c.3-.5.7-.7 1.2-.7c.4 0 .8.1 1 .4c.3.3.4.6.4 1.1c-.01-.05 0 2.2 0 2.2h-.6s.05-2.11 0-2.1c0-.4 0-.6-.2-.8c-.2-.2-.4-.3-.8-.3c-.3 0-.5.1-.7.3c-.2.2-.3.5-.3.8c-.04.03 0 2.1 0 2.1h-.6zm7.4-.6c-.4.5-.9.7-1.5.7c-.5 0-.9-.2-1.3-.5c-.3-.4-.5-.8-.5-1.4c0-.5.2-1 .5-1.4c.3-.3.7-.5 1.2-.5c.6 0 1 .2 1.3.5c.3.4.4.9.4 1.4v.2h-2.8c0 .4.1.7.4.9c.2.2.5.3.8.3c.5 0 .8-.2 1.2-.5c-.03 0 .3.3.3.3c0 0 .01 0 0 0zm-2.7-1.4h2.3c0-.4-.2-.7-.4-.9c-.1-.2-.4-.3-.8-.3c-.3 0-.5.1-.8.3c-.2.2-.3.5-.3.9zm3.8 2v-5.1h.6v5.1h-.6zm1.9 0v-5.1h.5v5.1h-.5zm4.8-.6c-.4.5-.9.7-1.5.7c-.5 0-.9-.2-1.2-.5c-.4-.4-.6-.8-.6-1.4c0-.5.2-1 .5-1.4c.4-.3.8-.5 1.3-.5c.5 0 .9.2 1.2.5c.3.4.5.9.5 1.4v.2h-2.9c0 .4.2.7.4.9c.2.2.5.3.9.3c.4 0 .8-.2 1.1-.5l.3.3s.03 0 0 0zm-2.7-1.4h2.3c0-.4-.1-.7-.3-.9c-.2-.2-.5-.3-.8-.3c-.4 0-.6.1-.8.3c-.3.2-.4.5-.4.9zm6 2v-4.9h.6v4.9h-.6zm3.2 0L63 32h.6l1.2 3l1.2-3h.6L65 35.6h-.4zm5.1-.5c-.4.4-.8.6-1.3.6c-.4 0-.7-.1-1-.3c-.3-.2-.4-.5-.4-.9c0-.3.1-.6.4-.8c.3-.2.7-.3 1.1-.3c.4 0 .8 0 1.2.1v-.1c0-.3-.1-.6-.3-.7c-.2-.2-.5-.3-.8-.3c-.4 0-.7.1-1.1.3l-.2-.5c.4-.2.9-.3 1.3-.3c.6 0 .9.2 1.2.4c.3.3.4.6.4 1.1c-.02-.01 0 2.2 0 2.2h-.5v-.5s-.04-.05 0 0zm-1.2.1c.3 0 .6 0 .8-.2c.3-.2.4-.4.4-.7v-.4c-.4-.1-.7-.1-1.1-.1c-.3 0-.6 0-.8.2c-.2.1-.3.3-.3.5c0 .2.1.4.3.6c.2.1.4.1.7.1zm2.8.4V32h.6s-.03.61 0 .6c.3-.5.7-.7 1.2-.7c.4 0 .8.1 1 .4c.3.3.4.6.4 1.1c-.01-.05 0 2.2 0 2.2h-.5s-.05-2.11 0-2.1c0-.4-.1-.6-.3-.8c-.2-.2-.4-.3-.7-.3c-.4 0-.6.1-.8.3c-.2.2-.3.5-.3.8c-.03.03 0 2.1 0 2.1h-.6zm4.3 0v-5.1h.6v3.5l1.9-2h.7l-1.5 1.5l1.6 2.1h-.7l-1.3-1.7l-.7.8v.9h-.6zm5.5.1c-.5 0-1-.2-1.3-.6c-.4-.3-.6-.8-.6-1.3c0-.5.2-1 .6-1.3c.3-.4.8-.6 1.3-.6c.6 0 1 .2 1.4.6c.3.3.5.8.5 1.3c0 .5-.2 1-.5 1.3c-.4.4-.9.6-1.4.6zm0-.5c.4 0 .7-.1 1-.4c.2-.3.3-.6.3-1c0-.4-.1-.7-.3-1c-.3-.3-.6-.4-1-.4c-.4 0-.7.1-.9.4c-.3.3-.4.6-.4 1c0 .4.1.7.4 1c.2.3.5.4.9.4zm3.9.4L83.4 32h.6l1.2 3l1.2-3h.6l-1.6 3.6h-.4zm2.9-4.4v-.6h.6v.6h-.6zm0 4.4V32h.6v3.6h-.6zm4.9-.6c-.4.5-.9.7-1.5.7c-.5 0-.9-.2-1.3-.6c-.3-.3-.5-.8-.5-1.3c0-.5.2-1 .5-1.3c.4-.4.8-.6 1.3-.6c.6 0 1.1.2 1.5.6l-.4.4c-.3-.3-.7-.5-1.1-.5c-.3 0-.6.1-.9.4c-.2.3-.4.6-.4 1c0 .4.2.7.4 1c.3.3.6.4 1 .4c.4 0 .7-.2 1.1-.5c-.02-.04.3.3.3.3c0 0 .02-.02 0 0z" stroke="none" fill="#000"/></g><g id="Polygon418841"><path d="m.7 25.6v-4.9h.5v2.9l2.9-2.9h.7l-2.1 2.1l2.2 2.8h-.7l-1.9-2.4l-1.1 1.1v1.3h-.5zm7.3-.5c-.4.4-.8.6-1.4.6c-.3 0-.6-.1-.9-.3c-.3-.2-.4-.5-.4-.9c0-.3.1-.6.4-.8c.3-.2.7-.3 1.1-.3c.4 0 .8 0 1.2.1v-.1c0-.3-.1-.6-.3-.7c-.2-.2-.5-.3-.8-.3c-.4 0-.8.1-1.1.3l-.2-.5c.4-.2.9-.3 1.3-.3c.5 0 .9.2 1.2.4c.2.3.4.6.4 1.1c-.03-.01 0 2.2 0 2.2h-.5v-.5s-.05-.05 0 0zm-1.3.1c.4 0 .7 0 .9-.2c.2-.2.4-.4.4-.7v-.4c-.4-.1-.8-.1-1.1-.1c-.3 0-.6 0-.8.2c-.2.1-.3.3-.3.5c0 .2.1.4.3.6c.2.1.4.1.6.1zm3 .4v-5.1h.5v5.1h-.5zm1.8 0V22h.5v3.6h-.5zm1.8 1.1V22h.5s.04.71 0 .7c.4-.5.9-.8 1.4-.8c.5 0 .9.2 1.2.5c.4.4.6.8.6 1.4c0 .6-.2 1-.6 1.4c-.3.3-.7.5-1.2.5c-.5 0-1-.3-1.4-.8c.04.01 0 1.8 0 1.8h-.5zm1.8-1.5c.4 0 .7-.1.9-.4c.3-.2.4-.6.4-1c0-.4-.1-.8-.4-1c-.2-.3-.5-.4-.9-.4c-.3 0-.6.1-.9.4c-.3.3-.4.6-.4 1c0 .4.1.7.4 1c.3.3.6.4.9.4zm2.9.4v-5.1h.5v5.1h-.5zm4.2-.5c-.3.4-.8.6-1.3.6c-.4 0-.7-.1-1-.3c-.3-.2-.4-.5-.4-.9c0-.3.2-.6.4-.8c.3-.2.7-.3 1.2-.3c.3 0 .7 0 1.1.1v-.1c0-.3-.1-.6-.3-.7c-.2-.2-.5-.3-.8-.3c-.4 0-.7.1-1.1.3l-.2-.5c.5-.2.9-.3 1.4-.3c.5 0 .9.2 1.1.4c.3.3.4.6.4 1.1c-.01-.01 0 2.2 0 2.2h-.5v-.5s-.02-.05 0 0zm-1.2.1c.3 0 .6 0 .8-.2c.3-.2.4-.4.4-.7v-.4c-.4-.1-.7-.1-1.1-.1c-.3 0-.6 0-.8.2c-.1.1-.2.3-.2.5c0 .2.1.4.2.6c.2.1.4.1.7.1zm2.8.4V22h.6s-.02.61 0 .6c.3-.5.7-.7 1.2-.7c.4 0 .8.1 1 .4c.3.3.4.6.4 1.1c.01-.05 0 2.2 0 2.2h-.5s-.03-2.11 0-2.1c0-.4-.1-.6-.3-.8c-.2-.2-.4-.3-.7-.3c-.3 0-.6.1-.8.3c-.2.2-.3.5-.3.8c-.02.03 0 2.1 0 2.1h-.6zm4.4 0V22h.5v.6c.1-.2.3-.4.5-.5c.2-.1.4-.2.7-.2c.5 0 .9.2 1.1.7c.3-.5.8-.7 1.3-.7c.4 0 .7.1 1 .4c.2.3.3.6.3 1.1c.04-.04 0 2.2 0 2.2h-.5v-2.1c0-.4-.1-.6-.2-.8c-.2-.2-.4-.3-.7-.3c-.3 0-.6.1-.7.3c-.2.2-.3.5-.3.8c-.04.01 0 2.1 0 2.1h-.6s.03-2.13 0-2.1c0-.4-.1-.6-.2-.8c-.2-.2-.4-.3-.7-.3c-.3 0-.5.1-.7.3c-.2.2-.3.5-.3.8v2.1h-.5zm6.6 0V22h.6v3.6h-.6zm2.7 1.1l-.5-.3s.52-.75.5-.8c-.4 0-.8-.2-1.2-.5l.3-.3c.4.3.8.4 1.3.4c.2 0 .4 0 .5-.1c.1-.1.2-.3.2-.5c0-.1-.1-.3-.2-.4c-.2 0-.4-.1-.7-.2c-.1 0-.2-.1-.3-.1c0 0-.1-.1-.3-.1c-.1 0-.2-.1-.2-.1l-.2-.2l-.2-.2v-.3c0-.4.1-.6.4-.8c.2-.2.5-.3.8-.3c.5 0 .9.2 1.3.4l-.2.4c-.4-.2-.7-.3-1.1-.3c-.2 0-.4 0-.5.1c-.1.1-.2.2-.2.4c0 .1 0 .1.1.2l.1.1l.2.2h.3c0 .1.1.1.3.1c.1.1.2.1.3.1c.1.1.2.1.3.2c.1 0 .2.1.3.2c0 0 .1.1.1.2c.1.1.1.2.1.4c0 .3-.1.5-.3.7c-.2.2-.5.3-.8.4c-.03-.04-.5 1-.5 1zm7.1-1.6c-.3.4-.8.6-1.3.6c-.4 0-.7-.1-1-.3c-.2-.2-.4-.5-.4-.9c0-.3.2-.6.5-.8c.2-.2.6-.3 1.1-.3c.4 0 .7 0 1.1.1v-.1c0-.3-.1-.6-.3-.7c-.2-.2-.4-.3-.8-.3c-.3 0-.7.1-1.1.3l-.1-.5c.4-.2.8-.3 1.3-.3c.5 0 .9.2 1.2.4c.2.3.3.6.3 1.1c.02-.01 0 2.2 0 2.2h-.5v-.5s0-.05 0 0zm-1.2.1c.3 0 .6 0 .9-.2c.2-.2.3-.4.3-.7v-.4c-.4-.1-.7-.1-1.1-.1c-.3 0-.6 0-.7.2c-.2.1-.3.3-.3.5c0 .2.1.4.3.6c.1.1.3.1.6.1zm2.9.4v-5.1h.5v3.5l2-2h.6l-1.5 1.5l1.6 2.1h-.7l-1.3-1.7l-.7.8v.9h-.5zm4 0V22h.5s-.01.93 0 .9c.1-.3.3-.5.6-.7c.2-.2.5-.3.9-.3c-.03.02 0 .6 0 .6h-.1c-.4 0-.7.1-1 .4c-.3.3-.4.7-.4 1.3v1.4h-.5zm2.8-4.4v-.6h.6v.6h-.6zm0 4.4V22h.6v3.6h-.6zm1.9 0v-5.1h.5v5.1h-.5zm1.8-4.4v-.6h.6v.6h-.6zm0 4.4V22h.6v3.6h-.6zm1.8 0v-5.1h.5v3.5l2-2h.7l-1.5 1.5l1.5 2.1h-.6l-1.3-1.7l-.8.8v.9h-.5zm6.1 0V22h.5s.03.59 0 .6c.2-.2.3-.4.5-.5c.2-.1.4-.2.7-.2c.5 0 .9.2 1.2.7c.3-.5.7-.7 1.2-.7c.5 0 .8.1 1 .4c.3.3.4.6.4 1.1c-.02-.04 0 2.2 0 2.2h-.6s.04-2.11 0-2.1c0-.4 0-.6-.2-.8c-.2-.2-.4-.3-.7-.3c-.3 0-.5.1-.7.3c-.2.2-.3.5-.3.8v2.1h-.5s-.03-2.13 0-2.1c0-.4-.1-.6-.3-.8c-.1-.2-.4-.3-.7-.3c-.2 0-.5.1-.7.3c-.2.2-.3.5-.3.8c.03.03 0 2.1 0 2.1h-.5zm9-.5c-.3.4-.7.6-1.3.6c-.4 0-.7-.1-.9-.3c-.3-.2-.4-.5-.4-.9c0-.3.1-.6.4-.8c.3-.2.6-.3 1.1-.3c.4 0 .7 0 1.1.1v-.1c0-.3-.1-.6-.3-.7c-.2-.2-.4-.3-.8-.3c-.3 0-.7.1-1.1.3l-.1-.5c.4-.2.8-.3 1.3-.3c.5 0 .9.2 1.2.4c.2.3.3.6.3 1.1c.03-.01 0 2.2 0 2.2h-.5v-.5s.02-.05 0 0zm-1.2.1c.4 0 .6 0 .9-.2c.2-.2.3-.4.3-.7v-.4c-.3-.1-.7-.1-1-.1c-.4 0-.6 0-.8.2c-.2.1-.3.3-.3.5c0 .2.1.4.3.6c.1.1.4.1.6.1zm2.9.4v-5.1h.6v5.1h-.6zm1.6 0v-.3l2.4-2.9h-2.3v-.4h3v.3l-2.4 2.8h2.4v.5H77zm7.1-.6c-.4.5-.9.7-1.5.7c-.5 0-.9-.2-1.3-.5c-.3-.4-.5-.8-.5-1.4c0-.5.1-1 .5-1.4c.3-.3.7-.5 1.2-.5c.5 0 .9.2 1.3.5c.3.4.4.9.4 1.4v.2h-2.9c.1.4.2.7.4.9c.3.2.6.3.9.3c.4 0 .8-.2 1.1-.5c.05 0 .4.3.4.3c0 0-.02 0 0 0zm-2.8-1.4h2.4c-.1-.4-.2-.7-.4-.9c-.2-.2-.4-.3-.8-.3c-.3 0-.6.1-.8.3c-.2.2-.3.5-.4.9zm3.9 2V22h.5v.6c.1-.2.3-.4.5-.5c.2-.1.4-.2.7-.2c.5 0 .9.2 1.1.7c.3-.5.8-.7 1.3-.7c.4 0 .7.1 1 .4c.2.3.3.6.3 1.1c.04-.04 0 2.2 0 2.2h-.5v-2.1c0-.4-.1-.6-.2-.8c-.2-.2-.4-.3-.7-.3c-.3 0-.6.1-.7.3c-.2.2-.3.5-.3.8c-.04.01 0 2.1 0 2.1h-.6s.03-2.13 0-2.1c0-.4-.1-.6-.2-.8c-.2-.2-.4-.3-.7-.3c-.3 0-.5.1-.7.3c-.2.2-.3.5-.3.8v2.1h-.5zm9.7-.6c-.4.5-.9.7-1.5.7c-.5 0-1-.2-1.3-.5c-.4-.4-.5-.8-.5-1.4c0-.5.1-1 .5-1.4c.3-.3.7-.5 1.2-.5c.5 0 .9.2 1.2.5c.3.4.5.9.5 1.4v.2h-2.9c0 .4.2.7.4.9c.3.2.6.3.9.3c.4 0 .8-.2 1.1-.5c.03 0 .4.3.4.3c0 0-.04 0 0 0zm-2.8-1.4h2.3c0-.4-.1-.7-.3-.9c-.2-.2-.5-.3-.8-.3c-.3 0-.6.1-.8.3c-.2.2-.4.5-.4.9zm6.7 1.3c-.3.5-.8.8-1.3.8c-.5 0-.9-.2-1.3-.5c-.3-.4-.5-.8-.5-1.4c0-.6.2-1 .5-1.4c.4-.3.8-.5 1.3-.5c.5 0 1 .3 1.3.8c.04-.03 0-2.2 0-2.2h.6v5.1h-.6v-.7s.04-.03 0 0zm-1.2.3c.3 0 .6-.1.9-.4c.2-.3.4-.6.4-1c0-.4-.2-.8-.4-1c-.3-.3-.6-.4-.9-.4c-.4 0-.7.1-1 .4c-.2.2-.3.6-.3 1c0 .4.1.8.3 1c.3.3.6.4 1 .4zm6.1-.2c-.4.5-.9.7-1.5.7c-.5 0-1-.2-1.3-.5c-.4-.4-.5-.8-.5-1.4c0-.5.1-1 .5-1.4c.3-.3.7-.5 1.2-.5c.5 0 .9.2 1.2.5c.3.4.5.9.5 1.4v.2h-2.9c0 .4.2.7.4.9c.3.2.5.3.9.3c.4 0 .8-.2 1.1-.5c.02 0 .4.3.4.3c0 0-.05 0 0 0zm-2.8-1.4h2.3c0-.4-.1-.7-.3-.9c-.2-.2-.5-.3-.8-.3c-.3 0-.6.1-.8.3c-.2.2-.4.5-.4.9zm3.8 2V22h.6s-.04.61 0 .6c.3-.5.7-.7 1.2-.7c.4 0 .8.1 1 .4c.3.3.4.6.4 1.1c-.01-.05 0 2.2 0 2.2h-.5s-.05-2.11 0-2.1c0-.4-.1-.6-.3-.8c-.2-.2-.4-.3-.8-.3c-.3 0-.5.1-.7.3c-.2.2-.3.5-.3.8c-.04.03 0 2.1 0 2.1h-.6zm8.4.1c-.6 0-1.1-.3-1.4-.8c-.02.01 0 .7 0 .7h-.6v-5.1h.6s-.02 2.21 0 2.2c.4-.5.8-.8 1.4-.8c.4 0 .8.2 1.2.5c.3.4.5.8.5 1.4c0 .6-.2 1-.5 1.4c-.4.3-.8.5-1.2.5zm-.1-.5c.3 0 .6-.1.9-.4c.2-.2.3-.6.3-1c0-.4-.1-.8-.3-1c-.3-.3-.6-.4-.9-.4c-.4 0-.7.1-.9.4c-.3.3-.4.6-.4 1c0 .4.1.7.3 1c.3.3.6.4 1 .4zm5.2-.1c-.3.4-.8.6-1.3.6c-.4 0-.7-.1-1-.3c-.3-.2-.4-.5-.4-.9c0-.3.2-.6.4-.8c.3-.2.7-.3 1.2-.3c.3 0 .7 0 1.1.1v-.1c0-.3-.1-.6-.3-.7c-.2-.2-.5-.3-.8-.3c-.4 0-.7.1-1.1.3l-.2-.5c.5-.2.9-.3 1.3-.3c.6 0 1 .2 1.2.4c.3.3.4.6.4 1.1c-.01-.01 0 2.2 0 2.2h-.5v-.5s-.03-.05 0 0zm-1.2.1c.3 0 .6 0 .8-.2c.3-.2.4-.4.4-.7v-.4c-.4-.1-.7-.1-1.1-.1c-.3 0-.6 0-.8.2c-.1.1-.2.3-.2.5c0 .2 0 .4.2.6c.2.1.4.1.7.1zm2.8.4V22h.6s-.02.61 0 .6c.3-.5.7-.7 1.2-.7c.4 0 .8.1 1 .4c.3.3.4.6.4 1.1v2.2h-.5s-.04-2.11 0-2.1c0-.4-.1-.6-.3-.8c-.2-.2-.4-.3-.7-.3c-.4 0-.6.1-.8.3c-.2.2-.3.5-.3.8c-.02.03 0 2.1 0 2.1h-.6zm5.8-.6l1.2-3h.5s-1.49 3.72-1.5 3.7c-.1.4-.3.7-.5.8c-.2.2-.4.2-.7.2c-.3 0-.5 0-.8-.1l.2-.5c.2.1.4.2.6.2c.2 0 .3-.1.4-.2c.1-.1.2-.3.3-.5c.03-.01-1.6-3.6-1.6-3.6h.6l1.3 3zm4 .7c-.5 0-1-.2-1.3-.6c-.4-.3-.6-.8-.6-1.3c0-.5.2-1 .6-1.3c.3-.4.8-.6 1.3-.6c.6 0 1 .2 1.4.6c.3.3.5.8.5 1.3c0 .5-.2 1-.5 1.3c-.4.4-.8.6-1.4.6zm0-.5c.4 0 .7-.1 1-.4c.2-.3.4-.6.4-1c0-.4-.2-.7-.4-1c-.3-.3-.6-.4-1-.4c-.4 0-.7.1-.9.4c-.3.3-.4.6-.4 1c0 .4.1.7.4 1c.2.3.6.4.9.4zm7.4-.1c-.3.4-.8.6-1.3.6c-.4 0-.7-.1-1-.3c-.2-.2-.4-.5-.4-.9c0-.3.2-.6.4-.8c.3-.2.7-.3 1.2-.3c.3 0 .7 0 1.1.1v-.1c0-.3-.1-.6-.3-.7c-.2-.2-.5-.3-.8-.3c-.4 0-.7.1-1.1.3l-.2-.5c.5-.2.9-.3 1.4-.3c.5 0 .9.2 1.1.4c.3.3.4.6.4 1.1v2.2h-.5v-.5s-.02-.05 0 0zm-1.2.1c.3 0 .6 0 .8-.2c.3-.2.4-.4.4-.7v-.4c-.4-.1-.7-.1-1.1-.1c-.3 0-.6 0-.8.2c-.1.1-.2.3-.2.5c0 .2.1.4.2.6c.2.1.4.1.7.1zm2.8.4v-5.1h.6v3.5l1.9-2h.7l-1.5 1.5l1.6 2.1h-.7l-1.3-1.7l-.7.8v.9h-.6zm5.2.1c-.6 0-1.1-.2-1.5-.6l.3-.3c.4.3.8.4 1.2.4c.2 0 .4 0 .5-.1c.2-.1.3-.3.3-.5c0-.1-.1-.3-.3-.4c-.1 0-.4-.1-.6-.2c-.2 0-.3-.1-.3-.1c-.1 0-.2-.1-.3-.1c-.1 0-.2-.1-.3-.1c0-.1-.1-.1-.2-.2c0-.1-.1-.1-.1-.2v-.3c0-.4.1-.6.3-.8c.2-.2.5-.3.9-.3c.5 0 .9.2 1.3.4l-.3.4c-.3-.2-.7-.3-1-.3c-.2 0-.4 0-.5.1c-.2.1-.2.2-.2.4v.2c.1 0 .1.1.2.1c0 .1.1.1.2.2h.2c.1.1.2.1.3.1c.1.1.3.1.3.1c.1.1.2.1.4.2c.1 0 .2.1.2.2c.1 0 .1.1.2.2c0 .1.1.2.1.4c0 .3-.2.6-.4.8c-.2.2-.5.3-.9.3zm5.3-.7c-.4.5-.9.7-1.5.7c-.5 0-.9-.2-1.2-.5c-.4-.4-.6-.8-.6-1.4c0-.5.2-1 .5-1.4c.4-.3.8-.5 1.3-.5c.5 0 .9.2 1.2.5c.3.4.5.9.5 1.4v.2h-2.9c0 .4.2.7.4.9c.2.2.5.3.9.3c.4 0 .8-.2 1.1-.5l.3.3s.04 0 0 0zm-2.7-1.4h2.3c0-.4-.1-.7-.3-.9c-.2-.2-.5-.3-.8-.3c-.3 0-.6.1-.8.3c-.2.2-.4.5-.4.9zm5 2.1c-.5 0-1-.2-1.5-.6l.3-.3c.4.3.8.4 1.2.4c.3 0 .4 0 .6-.1c.1-.1.2-.3.2-.5c0-.1-.1-.3-.2-.4c-.2 0-.4-.1-.7-.2c-.1 0-.2-.1-.3-.1c-.1 0-.2-.1-.3-.1c-.1 0-.2-.1-.2-.1c-.1-.1-.2-.1-.2-.2l-.2-.2v-.3c0-.4.1-.6.3-.8c.3-.2.6-.3.9-.3c.5 0 .9.2 1.3.4l-.2.4c-.4-.2-.7-.3-1.1-.3c-.2 0-.4 0-.5.1c-.1.1-.2.2-.2.4c0 .1 0 .1.1.2s0 .1.1.1c0 .1.1.1.2.2h.2c.1.1.2.1.3.1c.2.1.3.1.4.1c.1.1.2.1.3.2c.1 0 .2.1.3.2c0 0 .1.1.1.2c.1.1.1.2.1.4c0 .3-.1.6-.4.8c-.2.2-.5.3-.9.3zm4.9-.7c-.3.4-.7.7-1.3.7c-.4 0-.7-.2-1-.4c-.2-.3-.4-.6-.4-1.1c.04.03 0-2.2 0-2.2h.6s-.02 2.09 0 2.1c0 .3.1.6.2.8c.2.2.5.3.8.3c.3 0 .6-.1.8-.3c.2-.2.3-.5.3-.8c-.03-.05 0-2.1 0-2.1h.5v3.6h-.5v-.6s-.03-.03 0 0zm4.1.1c-.3.4-.8.6-1.3.6c-.4 0-.7-.1-1-.3c-.2-.2-.4-.5-.4-.9c0-.3.2-.6.5-.8c.2-.2.6-.3 1.1-.3c.4 0 .7 0 1.1.1v-.1c0-.3-.1-.6-.3-.7c-.2-.2-.4-.3-.8-.3c-.3 0-.7.1-1.1.3l-.1-.5c.4-.2.8-.3 1.3-.3c.5 0 .9.2 1.1.4c.3.3.4.6.4 1.1c.01-.01 0 2.2 0 2.2h-.5v-.5s0-.05 0 0zm-1.2.1c.3 0 .6 0 .9-.2c.2-.2.3-.4.3-.7v-.4c-.4-.1-.7-.1-1.1-.1c-.3 0-.6 0-.7.2c-.2.1-.3.3-.3.5c0 .2.1.4.2.6c.2.1.4.1.7.1zm2.9.4V22h.5v.9c.1-.3.3-.5.6-.7c.3-.2.5-.3.9-.3c-.02.02 0 .6 0 .6h-.1c-.4 0-.7.1-1 .4c-.3.3-.4.7-.4 1.3v1.4h-.5zm2.8 0v-5.1h.6v5.1h-.6zm4.2-.5c-.3.4-.7.6-1.3.6c-.3 0-.7-.1-.9-.3c-.3-.2-.4-.5-.4-.9c0-.3.1-.6.4-.8c.3-.2.6-.3 1.1-.3c.4 0 .8 0 1.1.1v-.1c0-.3-.1-.6-.3-.7c-.1-.2-.4-.3-.8-.3c-.3 0-.7.1-1.1.3l-.1-.5c.4-.2.8-.3 1.3-.3c.5 0 .9.2 1.2.4c.2.3.3.6.3 1.1c.04-.01 0 2.2 0 2.2h-.5v-.5s.02-.05 0 0zm-1.2.1c.4 0 .6 0 .9-.2c.2-.2.3-.4.3-.7v-.4c-.3-.1-.7-.1-1-.1c-.4 0-.6 0-.8.2c-.2.1-.3.3-.3.5c0 .2.1.4.3.6c.2.1.4.1.6.1zm2.9.4V22h.5s.03.93 0 .9c.2-.3.4-.5.6-.7c.3-.2.6-.3.9-.3v.6s-.04 0 0 0c-.5 0-.8.1-1.1.4c-.2.3-.4.7-.4 1.3c.03-.04 0 1.4 0 1.4h-.5zm2.9 0V22h.5v3.6h-.5zm1.7 0v-.7h.6v.7h-.6z" stroke="none" fill="#000"/></g><g id="Polygon418840"><path d="m.6 5.6V.7h1.9c.8 0 1.4.2 1.9.7c.5.5.7 1 .7 1.7c0 .7-.2 1.3-.7 1.8c-.5.5-1.1.7-1.9.7H.6zm1.9-3.9c0-.03-.8 0-.8 0v2.9s.8.03.8 0c.4 0 .8-.1 1.1-.4c.2-.2.4-.6.4-1v-.1c0-.4-.2-.7-.4-1c-.3-.3-.7-.4-1.1-.4zm3.6 3.9V.7h2.2c.6 0 1.1.2 1.4.5c.3.3.4.7.4 1.1c0 .8-.3 1.3-1 1.5c0 .05 1.2 1.8 1.2 1.8H9L8 4h-.9v1.6h-1zm1-2.5s1.13-.02 1.1 0c.3 0 .5-.1.6-.2c.2-.1.3-.3.3-.5c0-.3-.1-.4-.3-.5c-.1-.2-.3-.2-.6-.2c.01-.03-1.1 0-1.1 0v1.4zm9 0c0 .8-.2 1.4-.7 1.8c-.5.5-1.2.8-1.9.8c-.7 0-1.4-.3-1.9-.7c-.4-.5-.7-1.1-.7-1.8v-.1c0-.7.3-1.3.8-1.7c.4-.5 1.1-.8 1.8-.8c.8 0 1.4.3 1.9.7c.5.5.7 1.1.7 1.8c.01.04 0 0 0 0c0 0 .01.05 0 0zm-4.1 0c0 .5.2.8.5 1.1c.2.3.6.5 1 .5c.4 0 .8-.2 1.1-.5c.2-.2.4-.6.4-1v-.1c0-.4-.2-.7-.4-1c-.3-.3-.7-.5-1.1-.5c-.4 0-.8.2-1.1.5c-.2.2-.4.6-.4 1c.03.04 0 0 0 0c0 0 .03.05 0 0zm5.1 2.5V.7h2c.6 0 1 .2 1.3.5c.4.3.6.7.6 1.2c0 .6-.2 1-.6 1.3c-.4.3-.9.4-1.4.4c-.03.03-.8 0-.8 0v1.5h-1.1zm1.1-2.4s.8-.03.8 0c.3 0 .5-.1.6-.2c.2-.2.3-.4.3-.6c0-.2-.1-.4-.3-.5c-.1-.2-.3-.2-.6-.2c-.02-.03-.8 0-.8 0v1.5zm3.5 2.4V.7h1.1v3.9h2.5v1h-3.6zm4.4 0V.7h3.7v1h-2.6v1h2.3v.9h-2.3v1h2.6v1h-3.7zm5.8 0V1.7h-1.5v-1h4.1v1H33v3.9h-1.1zm5.3-1.7v-1h3v1h-3zm6 1.7V.7h2.3c.5 0 1 .1 1.3.4c.2.3.3.5.3.9c0 .5-.2.8-.6 1c.3.2.5.3.6.5c.2.2.3.4.3.7v.1c0 .4-.2.7-.5 1c-.3.2-.8.3-1.4.3h-2.3zm2-2.9c.6 0 .8-.2.8-.5v-.1c0-.3-.2-.5-.7-.5c.02.04-1 0-1 0v1.1h.9s.05-.02 0 0zm.3 2c.5 0 .8-.2.8-.6c0-.3-.3-.5-.8-.5c0-.02-1.2 0-1.2 0v1.1h1.2s.03-.05 0 0zm4.8.5c-.2.3-.6.5-1.1.5c-.4 0-.7-.1-.9-.3c-.3-.2-.4-.5-.4-.9c0-.4.2-.7.4-.9c.3-.2.7-.3 1.1-.3c.3 0 .6.1 1 .2v-.1c0-.5-.3-.7-.9-.7c-.3 0-.6.1-1 .2l-.3-.8c.5-.2 1-.3 1.5-.3c.6 0 1 .1 1.3.4c.2.3.4.7.4 1.2c-.03.02 0 2.2 0 2.2h-1.1v-.4s.04-.01 0 0zm-.8-.3c.3 0 .5 0 .6-.1c.2-.2.3-.3.3-.5v-.2c-.2-.1-.5-.2-.7-.2c-.2 0-.4.1-.6.2c-.1.1-.1.2-.1.4c0 .1 0 .2.1.3c.1.1.3.1.4.1zm2.8.7V1.8h1.1s-.05.58 0 .6c.3-.4.6-.6 1.1-.6c.4 0 .7.1.9.3c.2.3.3.6.3 1.1c.03-.03 0 2.4 0 2.4h-1s-.04-2.09 0-2.1c0-.5-.3-.8-.7-.8c-.2 0-.4.1-.5.2c-.1.2-.1.4-.1.6c-.05.01 0 2.1 0 2.1h-1.1zm5.9-1.2l.8-2.6h1.1s-1.43 3.89-1.4 3.9c-.2.4-.3.6-.5.8c-.2.2-.4.2-.8.2c-.3 0-.6 0-.9-.2l.4-.8c.1.1.3.2.4.2c.1 0 .2-.1.2-.1c.1 0 .1-.1.2-.2c-.02.01-1.5-3.8-1.5-3.8h1.1l.9 2.6zm4.2 1.3c-.6 0-1.1-.2-1.5-.6c-.4-.3-.5-.8-.5-1.4c0-.5.1-1 .5-1.4c.4-.3.9-.5 1.5-.5c.6 0 1 .2 1.4.5c.4.4.6.9.6 1.4c0 .6-.2 1-.6 1.4c-.4.4-.8.6-1.4.6zm0-.9c.3 0 .5-.1.7-.3c.2-.2.3-.5.3-.8c0-.3-.1-.5-.3-.7c-.2-.2-.4-.3-.7-.3c-.3 0-.6.1-.7.3c-.2.2-.3.4-.3.7c0 .3.1.6.3.8c.2.2.4.3.7.3zm5 .8V.7h1.1v2.1L70.4.7h1.4l-2 2.1l2.1 2.8h-1.3L69 3.5l-.5.6v1.5h-1.1zm6.6.1c-.5 0-1-.2-1.4-.6c-.4-.3-.6-.8-.6-1.4c0-.5.2-1 .6-1.4c.4-.3.9-.5 1.4-.5c.6 0 1.1.2 1.5.5c.4.4.6.9.6 1.4c0 .6-.2 1-.6 1.4c-.4.4-.9.6-1.5.6zm0-.9c.3 0 .6-.1.7-.3c.2-.2.3-.5.3-.8c0-.3-.1-.5-.3-.7c-.1-.2-.4-.3-.7-.3c-.3 0-.5.1-.7.3c-.2.2-.2.4-.2.7c0 .3 0 .6.2.8c.2.2.4.3.7.3zm2.9.8V.5h1v5.1h-1zm5.4-.6c-.4.5-.9.7-1.6.7c-.5 0-1-.2-1.4-.6c-.4-.3-.5-.8-.5-1.4c0-.5.1-1 .5-1.4c.3-.3.8-.5 1.3-.5c.6 0 1.1.2 1.4.6c.3.4.4.8.4 1.4v.3h-2.6c.1.2.2.4.3.5c.2.2.4.2.6.2c.4 0 .7-.1.9-.4l.7.6s-.04-.02 0 0zm-2.5-1.6h1.6c0-.2-.1-.4-.2-.6c-.2-.1-.4-.2-.6-.2c-.2 0-.4.1-.5.2c-.2.2-.3.4-.3.6zm3.4 2.2V.5h1.1v2.7l1.2-1.4h1.3l-1.4 1.5l1.5 2.3h-1.3l-.9-1.5l-.4.4v1.1h-1.1zm5.5.1c-.6 0-1.1-.2-1.6-.6l.4-.7c.5.3.8.5 1.2.5c.3 0 .5-.1.5-.3v-.1l-.1-.1s-.1 0-.1-.1h-.1c-.1 0-.1-.1-.2-.1h-.1c-.1 0-.2-.1-.2-.1c-.2 0-.3-.1-.4-.1c-.1-.1-.2-.1-.4-.2c-.1-.1-.2-.2-.2-.3c-.1-.2-.1-.3-.1-.5c0-.4.1-.7.4-.9c.2-.2.6-.3.9-.3c.5 0 1 .1 1.4.4l-.4.8c-.4-.3-.7-.4-1-.4c-.1 0-.2 0-.3.1c0 0-.1.1-.1.2c0 .1.1.1.2.2c.2.1.3.2.6.2c.2.1.3.1.4.2c.1 0 .2.1.4.2c.1.1.2.2.2.3c.1.1.1.3.1.4v.1c0 .4-.1.7-.4.9c-.2.2-.6.3-1 .3zm2.2-4.3v-.9h1.1v.9h-1.1zm0 4.2V1.8h1.1v3.8h-1.1zm3.8-1.2l.8-2.6h1.1s-1.46 3.89-1.5 3.9c-.1.4-.3.6-.5.8c-.1.2-.4.2-.7.2c-.3 0-.6 0-.9-.2l.3-.8c.2.1.3.2.5.2c.1 0 .1-.1.2-.1c0 0 .1-.1.1-.2c.04.01-1.4-3.8-1.4-3.8h1.1l.9 2.6zm4.1 1.3c-.5 0-1-.2-1.4-.6c-.4-.3-.6-.8-.6-1.4c0-.5.2-1 .6-1.4c.4-.3.9-.5 1.5-.5c.5 0 1 .2 1.4.5c.4.4.6.9.6 1.4c0 .6-.2 1-.6 1.4c-.4.4-.9.6-1.5.6zm.1-.9c.2 0 .5-.1.7-.3c.1-.2.2-.5.2-.8c0-.3-.1-.5-.3-.7c-.1-.2-.4-.3-.7-.3c-.3 0-.5.1-.7.3c-.1.2-.2.4-.2.7c0 .3.1.6.2.8c.2.2.5.3.8.3zm2.7.8V1.8h1.1v.6c.3-.4.7-.6 1.1-.6c.4 0 .7.1 1 .3c.2.3.3.6.3 1.1c-.02-.03 0 2.4 0 2.4H104s.02-2.09 0-2.1c0-.5-.2-.8-.6-.8c-.2 0-.4.1-.5.2c-.1.2-.2.4-.2.6v2.1h-1.1zm6.8-.5c-.4.4-.7.6-1.1.6c-.5 0-.8-.2-1-.4c-.2-.2-.3-.6-.3-1c-.02-.02 0-2.5 0-2.5h1s.04 2.14 0 2.1c0 .5.3.8.7.8c.2 0 .4-.1.5-.2c.1-.1.2-.3.2-.6c-.05.04 0-2.1 0-2.1h1v3.8h-1v-.5s-.05-.03 0 0zm6.4.8l-.5.7c-.6-.4-1.1-.8-1.4-1.3c-.3-.5-.5-1-.5-1.7c0-.7.2-1.3.5-1.7c.3-.5.8-1 1.4-1.3l.5.7c-.5.3-.8.7-1 1c-.2.4-.3.8-.3 1.3c0 .5.1.9.3 1.3c.2.3.5.7 1 1zm2.5.9l-.9-.4l.6-.8c-.6-.1-1.2-.3-1.6-.7l.6-.8c.5.4 1 .6 1.5.6c.2 0 .4 0 .5-.1c.1-.1.2-.2.2-.3v-.1c0-.1-.1-.2-.2-.3c-.2-.1-.4-.2-.8-.3c-.3-.1-.5-.1-.7-.2c-.2-.1-.3-.1-.5-.3c-.2-.1-.3-.2-.3-.4c-.1-.1-.1-.3-.1-.6c0-.4.1-.8.4-1.1c.3-.2.8-.4 1.3-.4c.7 0 1.3.2 1.8.7l-.6.8c-.4-.4-.9-.5-1.2-.5c-.3 0-.4 0-.5.1c-.1.1-.2.2-.2.3c0 .2.1.3.2.4c.2.1.4.2.9.3c.5.1.9.3 1.2.5c.2.2.3.5.3.9v.1c0 .4-.1.7-.4 1c-.2.2-.6.4-1 .4l-.5 1.2zm6.1-1.8c-.4.5-.9.7-1.6.7c-.5 0-1-.2-1.4-.6c-.3-.3-.5-.8-.5-1.4c0-.5.2-1 .5-1.4c.4-.3.8-.5 1.3-.5c.6 0 1.1.2 1.4.6c.3.4.5.8.5 1.4c0 .1 0 .2-.1.3h-2.6c.1.2.2.4.4.5c.1.2.3.2.6.2c.3 0 .6-.1.9-.4c-.04.04.6.6.6.6c0 0-.03-.02 0 0zm-2.5-1.6h1.6c0-.2-.1-.4-.2-.6c-.2-.1-.3-.2-.6-.2c-.2 0-.4.1-.5.2l-.3.6zm6.3 2.2V2.8h-.4v-.9h.4v-.3c0-.4.1-.7.3-.9c.2-.2.5-.3.9-.3c.3 0 .5.1.7.1v.9c-.1 0-.3-.1-.5-.1c-.2 0-.3.2-.3.4c-.04.04 0 .2 0 .2h.8v.9h-.8v2.8h-1.1zm-2.7 0V2.8h-.4v-.9h.4s.04-.26 0-.3c0-.4.1-.7.3-.9c.2-.2.5-.3.9-.3c.3 0 .5.1.8.1v.9c-.2 0-.4-.1-.5-.1c-.3 0-.4.2-.4.4v.2h.8v.9h-.8v2.8h-1.1zm7.3-.4c-.3.3-.7.5-1.1.5c-.4 0-.7-.1-1-.3c-.2-.2-.3-.5-.3-.9c0-.4.1-.7.4-.9c.3-.2.6-.3 1.1-.3c.3 0 .6.1.9.2v-.1c0-.5-.3-.7-.8-.7c-.3 0-.7.1-1 .2l-.3-.8c.5-.2 1-.3 1.5-.3c.5 0 .9.1 1.2.4c.3.3.4.7.4 1.2c.02.02 0 2.2 0 2.2h-1v-.4s-.01-.01 0 0zm-.8-.3c.2 0 .4 0 .6-.1c.1-.2.2-.3.2-.5v-.2c-.2-.1-.4-.2-.7-.2c-.2 0-.4.1-.5.2c-.1.1-.2.2-.2.4c0 .1.1.2.2.3c.1.1.2.1.4.1zm2.9.7V2.8h-.4v-.9h.4s.02-.26 0-.3c0-.4.1-.7.3-.9c.2-.2.5-.3.9-.3c.3 0 .5.1.7.1v.9c-.1 0-.3-.1-.4-.1c-.3 0-.4.2-.4.4c-.03.04 0 .2 0 .2h.8v.9h-.8v2.8h-1.1zm3 1l-.5-.7c.5-.3.9-.7 1.1-1c.2-.4.3-.8.3-1.3c0-.5-.1-.9-.3-1.3c-.2-.3-.6-.7-1.1-1l.5-.7c.7.3 1.2.8 1.5 1.3c.3.4.4 1 .4 1.7c0 .7-.1 1.2-.4 1.7c-.3.5-.8.9-1.5 1.3z" stroke="none" fill="#000"/></g></svg>