<?xml version="1.0" standalone="no"?><!DOCTYPE svg PUBLIC "-//W3C//DTD SVG 1.1//EN" "http://www.w3.org/Graphics/SVG/1.1/DTD/svg11.dtd"><svg xmlns="http://www.w3.org/2000/svg" version="1.1" width="52.5px" height="21.4px" viewBox="0 -3 52.5 21.4" style="top:-3px"><desc>1013760 048</desc><defs/><g id="Polygon371581"><path d="m1.2 5.6V1.8L.4 2l-.2-.9L1.6.7h.7v4.9H1.2zm4.3.1c-.6 0-1.2-.3-1.6-.7c-.4-.5-.6-1.1-.6-1.8v-.1c0-.7.2-1.3.6-1.8c.4-.4 1-.7 1.6-.7c.7 0 1.2.3 1.6.7c.4.5.6 1.1.6 1.8c0 .8-.2 1.4-.6 1.9c-.4.4-1 .7-1.6.7zM4.4 3.1c0 .5.1.9.3 1.2c.2.3.5.4.8.4c.3 0 .6-.1.8-.4c.2-.3.3-.7.3-1.1v-.1c0-.4-.1-.8-.3-1.1c-.2-.3-.5-.4-.8-.4c-.3 0-.6.1-.8.4c-.2.3-.3.7-.3 1.1c.04.04 0 0 0 0c0 0 .04.05 0 0zm4.9 2.5V1.8l-.9.2l-.2-.9L9.6.7h.7v4.9h-1zm3.9.1c-.8 0-1.5-.3-2-.9l.8-.7c.3.4.7.6 1.2.6c.2 0 .4 0 .5-.1c.1-.2.2-.3.2-.5c0-.2-.1-.3-.3-.5c-.2-.1-.4-.1-.7-.1h-.4l-.2-.7l1.2-1.2h-2v-.9h3.3v.8l-1.2 1.2c.9.1 1.3.6 1.3 1.4c0 .5-.1.8-.5 1.1c-.3.3-.7.5-1.2.5zm2.6-.1l2.2-4h-2.3v-.9h3.5v.8L17 5.6h-1.2zm6 .1c-.6 0-1.1-.2-1.5-.5c-.3-.4-.5-1-.5-1.9c0-.8.1-1.4.5-1.9c.4-.5.9-.8 1.6-.8c.6 0 1.1.2 1.5.6l-.5.8c-.2-.1-.4-.2-.5-.3c-.2-.1-.3-.1-.5-.1c-.2 0-.3 0-.5.1l-.3.3c-.1.1-.1.3-.1.4c-.1.1-.1.2-.1.3c.3-.2.6-.3 1-.3c.5 0 .9.2 1.2.4c.4.3.5.7.5 1.2c0 .5-.2.9-.5 1.2c-.4.3-.8.5-1.3.5zM20.9 4c0 .2 0 .4.2.6c.1.1.4.2.6.2c.3 0 .5-.1.6-.2c.2-.2.3-.3.3-.6c0-.2-.1-.4-.3-.5c-.1-.1-.3-.2-.6-.2c-.3 0-.5.1-.6.2c-.2.1-.2.3-.2.5c-.04.02 0 0 0 0c0 0-.04.03 0 0zm5.7 1.7c-.7 0-1.2-.3-1.6-.7c-.4-.5-.6-1.1-.6-1.8v-.1c0-.7.2-1.3.6-1.8c.4-.4.9-.7 1.6-.7c.6 0 1.1.3 1.5.7c.4.5.6 1.1.6 1.8c0 .8-.2 1.4-.6 1.9c-.4.4-.9.7-1.5.7zm-1.1-2.6c0 .5.1.9.3 1.2c.2.3.5.4.8.4c.3 0 .6-.1.8-.4c.1-.3.2-.7.2-1.1v-.1c0-.4-.1-.8-.3-1.1c-.2-.3-.4-.4-.7-.4c-.4 0-.6.1-.8.4c-.2.3-.3.7-.3 1.1c0 .04 0 0 0 0c0 0 0 .05 0 0zm4 .8v-1h2.1v1h-2.1zm5 1.8c-.6 0-1.1-.3-1.5-.7c-.4-.5-.6-1.1-.6-1.8v-.1c0-.7.2-1.3.6-1.8c.4-.4.9-.7 1.5-.7c.7 0 1.2.3 1.6.7c.4.5.6 1.1.6 1.8c0 .8-.2 1.4-.6 1.9c-.4.4-.9.7-1.6.7zm-1-2.6c0 .5.1.9.3 1.2c.2.3.4.4.7.4c.4 0 .6-.1.8-.4c.2-.3.3-.7.3-1.1v-.1c0-.4-.1-.8-.3-1.1c-.2-.3-.5-.4-.8-.4c-.3 0-.5.1-.7.4c-.2.3-.3.7-.3 1.1c-.03.04 0 0 0 0c0 0-.03.05 0 0zm6.4 2.5V4.5h-2.4l-.2-.7L40 .7h.9v3h.7v.8h-.7v1.1h-1zm-1.3-1.9h1.3V2.1l-1.3 1.6zm5.5 2c-.5 0-1-.2-1.3-.4c-.4-.3-.6-.6-.6-1v-.1c0-.2.1-.5.2-.7c.2-.2.4-.3.6-.4c-.4-.3-.6-.6-.6-1.1c0-.4.2-.7.5-1c.3-.2.7-.4 1.2-.4c.5 0 .9.2 1.3.4c.3.3.4.6.4 1c0 .5-.2.8-.6 1.1c.3.1.5.3.6.4c.1.2.2.4.2.7c0 .5-.2.8-.5 1.1c-.4.2-.8.4-1.4.4zm-.7-3.6c0 .2.1.3.2.4c.1.1.3.2.5.2c.2 0 .4-.1.5-.2c.2-.1.2-.2.2-.4c0-.2 0-.3-.2-.4c-.1-.1-.3-.2-.5-.2c-.2 0-.4.1-.5.2c-.1.1-.2.2-.2.4c.02-.01 0 0 0 0c0 0 .02 0 0 0zm.7 2.7c.3 0 .5-.1.6-.2c.2-.1.3-.3.3-.4c0-.2-.1-.4-.3-.5c-.1-.1-.3-.1-.6-.1c-.2 0-.4 0-.6.1c-.1.1-.2.3-.2.5c0 .1.1.3.2.4c.2.1.4.2.6.2z" stroke="none" fill="#000"/></g></svg>