<?xml version="1.0" standalone="no"?><!DOCTYPE svg PUBLIC "-//W3C//DTD SVG 1.1//EN" "http://www.w3.org/Graphics/SVG/1.1/DTD/svg11.dtd"><svg xmlns="http://www.w3.org/2000/svg" version="1.1" width="116.4px" height="100.4px" viewBox="0 -3 116.4 100.4" style="top:-3px"><desc>Kapakl Saklama Sepeti r n Kodu: G956 l ler: 35,5 × 15,5 × 16,5 cm</desc><defs/><g id="Polygon374132"><path d="m3.3 33.2v-.6h.7v.6h-.7zm-1.3 0v-.6h.6v.6h-.6zm3.5 2.9c0 .7-.3 1.3-.7 1.8c-.5.5-1.1.8-1.8.8c-.8 0-1.4-.3-1.8-.8c-.5-.4-.7-1-.7-1.7v-.1c0-.6.2-1.2.7-1.7c.5-.5 1.1-.8 1.8-.8c.7 0 1.3.3 1.8.8c.4.4.7 1 .7 1.7c-.03.04 0 0 0 0c0 0-.03.05 0 0zm-4.4 0c0 .6.1 1.1.5 1.5c.4.4.8.6 1.4.6c.5 0 1-.2 1.4-.6c.3-.4.5-.9.5-1.4v-.1c0-.5-.2-1-.5-1.4c-.4-.4-.9-.6-1.4-.6c-.6 0-1 .2-1.4.6c-.4.4-.5.9-.5 1.4c-.05.04 0 0 0 0c0 0-.05.05 0 0zm5.5 2.5v-5.1h.5v5.1h-.5zm3.1 1.1l-.6-.3s.59-.75.6-.8c-.5 0-.8-.2-1.1-.6c-.3-.3-.4-.7-.4-1.2c0-.5.1-1 .5-1.3c.4-.4.8-.6 1.3-.6c.6 0 1.1.2 1.5.6l-.4.4c-.3-.3-.7-.5-1.1-.5c-.4 0-.7.1-.9.4c-.3.3-.4.6-.4 1c0 .4.1.7.4 1c.3.3.6.4 1 .4c.4 0 .7-.2 1.1-.5l.3.3c-.4.4-.8.7-1.4.7c.03-.02-.4 1-.4 1zm4.5-5.3v-.6h.6v.6h-.6zm-1.2 0v-.6h.6v.6h-.6zm1.9 3.6c-.3.4-.7.7-1.2.7c-.4 0-.8-.2-1-.4c-.3-.3-.4-.6-.4-1.1c.01.03 0-2.2 0-2.2h.5s.04 2.09 0 2.1c0 .3.1.6.3.8c.2.2.4.3.7.3c.4 0 .6-.1.8-.3c.2-.2.3-.5.3-.8c.03-.05 0-2.1 0-2.1h.6v3.6h-.6v-.6s.03-.03 0 0zm1.8.6v-5.1h.6v5.1h-.6zm4.9-.6c-.4.5-.9.7-1.5.7c-.5 0-.9-.2-1.3-.5c-.3-.4-.5-.8-.5-1.4c0-.5.2-1 .5-1.4c.3-.3.7-.5 1.2-.5c.5 0 1 .2 1.3.5c.3.4.4.9.4 1.4v.2h-2.9c.1.4.2.7.5.9c.2.2.5.3.8.3c.4 0 .8-.2 1.2-.5c-.05 0 .3.3.3.3c0 0-.01 0 0 0zm-2.8-1.4h2.4c-.1-.4-.2-.7-.4-.9c-.2-.2-.4-.3-.8-.3c-.3 0-.6.1-.8.3c-.2.2-.3.5-.4.9zm3.9 2V35h.5v.9c.1-.3.3-.5.6-.7c.2-.2.5-.3.9-.3c-.03.02 0 .6 0 .6h-.1c-.4 0-.7.1-1 .4c-.3.3-.4.7-.4 1.3v1.4h-.5zm2.8-2.9v-.7h.6v.7h-.6zm0 2.9v-.7h.6v.7h-.6zm5.4.1c-.7 0-1.3-.3-1.8-.9l.4-.3c.4.4.9.7 1.5.7c.3 0 .5-.1.7-.3c.2-.2.3-.4.3-.7c0-.3-.1-.5-.4-.7c-.2-.1-.5-.2-.9-.2c-.05-.03-.4 0-.4 0l-.1-.4l1.6-1.7h-2.4v-.5h3.1v.4s-1.53 1.71-1.5 1.7c.4.1.8.2 1.1.4c.3.2.5.6.5 1c0 .4-.2.8-.5 1.1c-.3.2-.7.4-1.2.4zm4.2 0c-.6 0-1.2-.3-1.7-.8l.4-.4c.4.5.9.7 1.4.7c.3 0 .6-.1.8-.3c.2-.2.3-.5.3-.8c0-.3-.1-.6-.3-.8c-.2-.2-.5-.2-.9-.2c-.3 0-.7 0-1 .2c-.01.03-.4-.2-.4-.2l.2-2.4h2.8v.5h-2.4s-.06 1.58-.1 1.6c.3-.2.7-.2 1-.2c.5 0 .9.1 1.2.4c.3.2.5.6.5 1.1c0 .4-.2.8-.5 1.1c-.3.3-.7.5-1.3.5zm2.6.8l-.1-.3c.4-.1.5-.3.5-.6h-.3v-.7h.7v.6c0 .3-.1.5-.2.6c-.1.2-.3.3-.6.4zm3.4-.8c-.6 0-1.2-.3-1.7-.8l.4-.4c.4.5.9.7 1.4.7c.3 0 .6-.1.8-.3c.2-.2.3-.5.3-.8c0-.3-.1-.6-.3-.8c-.2-.2-.5-.2-.9-.2c-.3 0-.7 0-1 .2c-.01.03-.4-.2-.4-.2l.2-2.4h2.8v.5h-2.4s-.06 1.58-.1 1.6c.3-.2.7-.2 1-.2c.5 0 .9.1 1.2.4c.3.2.5.6.5 1.1c0 .4-.2.8-.5 1.1c-.3.3-.7.5-1.3.5zm7.7-1l-1.2-1.2l-1.2 1.2l-.4-.3l1.3-1.3l-1.3-1.2l.4-.3l1.2 1.2l1.2-1.2l.4.3l-1.3 1.2l1.3 1.2l-.4.4zm4.3.9v-4.4l-.9.3l-.1-.4l1.2-.4h.4v4.9h-.6zm3.4.1c-.6 0-1.2-.3-1.7-.8l.3-.4c.5.5.9.7 1.4.7c.4 0 .6-.1.9-.3c.2-.2.3-.5.3-.8c0-.3-.1-.6-.3-.8c-.3-.2-.6-.2-.9-.2c-.4 0-.7 0-1 .2c-.05.03-.4-.2-.4-.2l.1-2.4h2.8v.5h-2.3l-.1 1.6c.3-.2.6-.2 1-.2c.5 0 .9.1 1.2.4c.3.2.5.6.5 1.1c0 .4-.2.8-.5 1.1c-.4.3-.8.5-1.3.5zm2.6.8l-.1-.3c.3-.1.5-.3.5-.6h-.3v-.7h.7s-.04.59 0 .6c0 .3-.1.5-.2.6c-.2.2-.4.3-.6.4zm3.4-.8c-.6 0-1.2-.3-1.7-.8l.3-.4c.5.5.9.7 1.4.7c.4 0 .6-.1.9-.3c.2-.2.3-.5.3-.8c0-.3-.1-.6-.3-.8c-.3-.2-.6-.2-.9-.2c-.4 0-.7 0-1 .2c-.05.03-.4-.2-.4-.2l.1-2.4h2.8v.5h-2.3l-.1 1.6c.3-.2.6-.2 1-.2c.5 0 .9.1 1.2.4c.3.2.5.6.5 1.1c0 .4-.2.8-.5 1.1c-.4.3-.8.5-1.3.5zm7.7-1L69 36.5l-1.3 1.2l-.3-.3l1.2-1.3l-1.2-1.2l.4-.3l1.2 1.2l1.2-1.2l.3.3l-1.2 1.2l1.2 1.2l-.3.4zm4.3.9v-4.4l-.9.3l-.2-.4l1.2-.4h.4v4.9h-.5zm3.6.1c-.5 0-1-.2-1.3-.5c-.2-.2-.4-.5-.5-.8c-.1-.3-.1-.6-.1-1.1c0-.8.2-1.4.5-1.9c.4-.5.9-.8 1.5-.8c.5 0 1 .2 1.5.6l-.4.4c-.3-.3-.7-.5-1.1-.5c-.5 0-.8.2-1.1.6c-.2.4-.4.9-.4 1.5v.1c.4-.5.9-.8 1.4-.8c.5 0 .9.2 1.2.5c.4.2.5.6.5 1v.1c0 .4-.1.8-.5 1.1c-.3.3-.7.5-1.2.5zm0-.5c.3 0 .6-.1.8-.3c.3-.2.4-.5.4-.8c0-.3-.1-.6-.4-.8c-.2-.2-.5-.3-.8-.3c-.4 0-.7.1-.9.3c-.2.3-.3.5-.3.8c0 .3.1.6.3.8c.2.2.5.3.9.3zm2.6 1.3l-.1-.3c.3-.1.5-.3.5-.6h-.3v-.7h.7s-.04.59 0 .6c0 .3-.1.5-.2.6c-.1.2-.3.3-.6.4zm3.4-.8c-.6 0-1.2-.3-1.7-.8l.3-.4c.5.5 1 .7 1.4.7c.4 0 .7-.1.9-.3c.2-.2.3-.5.3-.8c0-.3-.1-.6-.3-.8c-.3-.2-.6-.2-.9-.2c-.4 0-.7 0-1 .2c-.04.03-.4-.2-.4-.2l.1-2.4h2.9v.5h-2.4l-.1 1.6c.3-.2.6-.2 1-.2c.5 0 .9.1 1.2.4c.3.2.5.6.5 1.1c0 .4-.2.8-.5 1.1c-.3.3-.8.5-1.3.5zm8-.7c-.4.5-.9.7-1.5.7c-.5 0-1-.2-1.3-.6c-.4-.3-.5-.8-.5-1.3c0-.5.1-1 .5-1.3c.3-.4.8-.6 1.3-.6c.6 0 1.1.2 1.5.6l-.4.4c-.3-.3-.7-.5-1.1-.5c-.4 0-.7.1-.9.4c-.3.3-.4.6-.4 1c0 .4.1.7.4 1c.2.3.6.4.9.4c.4 0 .8-.2 1.1-.5c.05-.04.4.3.4.3c0 0-.01-.02 0 0zm.9.6V35h.5s.02.59 0 .6c.2-.2.3-.4.5-.5c.2-.1.4-.2.7-.2c.5 0 .9.2 1.1.7c.4-.5.8-.7 1.3-.7c.4 0 .8.1 1 .4c.2.3.4.6.4 1.1c-.03-.04 0 2.2 0 2.2h-.6s.03-2.11 0-2.1c0-.4-.1-.6-.2-.8c-.2-.2-.4-.3-.7-.3c-.3 0-.5.1-.7.3c-.2.2-.3.5-.3.8v2.1h-.5s-.04-2.13 0-2.1c0-.4-.1-.6-.3-.8c-.2-.2-.4-.3-.7-.3c-.3 0-.5.1-.7.3c-.2.2-.3.5-.3.8c.02.03 0 2.1 0 2.1h-.5z" stroke="none" fill="#000"/></g><g id="Polygon374131"><path d="m3 22.3v-.7h.6v.7h-.6zm-1.3 0v-.7h.6v.7h-.6zm1 5.4c-.7 0-1.2-.2-1.5-.6c-.4-.4-.6-.9-.6-1.6c.02.05 0-2.8 0-2.8h.6s-.03 2.81 0 2.8c0 .5.1.9.4 1.2c.2.3.6.5 1.1.5c.4 0 .8-.2 1.1-.4c.2-.3.3-.7.3-1.3c.04.05 0-2.8 0-2.8h.6v2.8c0 .7-.2 1.2-.6 1.6c-.3.4-.8.6-1.4.6zm3.2-.1V24h.6s-.05.93 0 .9c.1-.3.3-.5.5-.7c.3-.2.6-.3.9-.3c.03.02 0 .6 0 .6c0 0-.01 0 0 0c-.4 0-.8.1-1 .4c-.3.3-.4.7-.4 1.3c-.05-.04 0 1.4 0 1.4h-.6zm4.7-4.2v-.6h.6v.6h-.6zm-1.3 0v-.6h.7v.6h-.7zm2 3.6c-.3.4-.7.7-1.2.7c-.4 0-.8-.2-1-.4c-.3-.3-.4-.6-.4-1.1c-.01.03 0-2.2 0-2.2h.5s.03 2.09 0 2.1c0 .3.1.6.3.8c.2.2.4.3.7.3c.3 0 .6-.1.8-.3c.2-.2.3-.5.3-.8c.02-.05 0-2.1 0-2.1h.6v3.6h-.6v-.6s.02-.03 0 0zm1.8.6V24h.5v.6c.3-.5.7-.7 1.2-.7c.5 0 .8.1 1.1.4c.2.3.3.6.3 1.1c.03-.05 0 2.2 0 2.2h-.5v-2.1c0-.4-.1-.6-.3-.8c-.2-.2-.4-.3-.7-.3c-.3 0-.6.1-.8.3c-.2.2-.3.5-.3.8v2.1h-.5zm6.5 0v-4.9h.5v2.9l2.8-2.9h.8l-2.2 2.1l2.2 2.8h-.7l-1.8-2.4l-1.1 1.1v1.3h-.5zm6.3.1c-.5 0-.9-.2-1.3-.6c-.3-.3-.5-.8-.5-1.3c0-.5.2-1 .5-1.3c.4-.4.8-.6 1.4-.6c.5 0 .9.2 1.3.6c.4.3.5.8.5 1.3c0 .5-.1 1-.5 1.3c-.4.4-.8.6-1.4.6zm.1-.5c.3 0 .7-.1.9-.4c.3-.3.4-.6.4-1c0-.4-.1-.7-.4-1c-.3-.3-.6-.4-1-.4c-.3 0-.7.1-.9.4c-.2.3-.4.6-.4 1c0 .4.2.7.4 1c.3.3.6.4 1 .4zm5.7-.3c-.3.5-.8.8-1.4.8c-.4 0-.8-.2-1.2-.5c-.3-.4-.5-.8-.5-1.4c0-.6.2-1 .5-1.4c.4-.3.8-.5 1.2-.5c.6 0 1.1.3 1.4.8c.02-.03 0-2.2 0-2.2h.6v5.1h-.6v-.7s.02-.03 0 0zm-1.3.3c.4 0 .7-.1 1-.4c.2-.3.3-.6.3-1c0-.4-.1-.8-.3-1c-.3-.3-.6-.4-1-.4c-.3 0-.6.1-.9.4c-.2.2-.3.6-.3 1c0 .4.1.8.3 1c.3.3.6.4.9.4zM36 27c-.3.4-.7.7-1.2.7c-.4 0-.8-.2-1-.4c-.3-.3-.4-.6-.4-1.1c.01.03 0-2.2 0-2.2h.5s.05 2.09 0 2.1c0 .3.1.6.3.8c.2.2.4.3.8.3c.3 0 .5-.1.7-.3c.2-.2.3-.5.3-.8c.04-.05 0-2.1 0-2.1h.6v3.6h-.6v-.6s.04-.03 0 0zm1.7-2.3v-.7h.7v.7h-.7zm0 2.9v-.7h.7v.7h-.7zm8.4-.7c-.6.5-1.3.8-2.1.8c-.8 0-1.4-.3-1.9-.7c-.4-.5-.7-1.1-.7-1.8v-.1c0-.7.3-1.3.8-1.7c.5-.5 1.1-.8 1.8-.8c.4 0 .8.1 1.1.2c.3.1.6.3.8.5l-.7.8c-.2-.2-.4-.3-.6-.4c-.1 0-.4-.1-.6-.1c-.4 0-.8.2-1 .5c-.3.3-.4.6-.4 1c0 .5.1.9.4 1.2c.2.3.6.4 1 .4c.4 0 .8-.1 1.1-.3c-.05.01 0-.7 0-.7H44v-.9h2.1v2.1s-.01.01 0 0zm1.5-.6c.4.3.7.4 1.1.4c.2 0 .4-.1.6-.2c.1-.1.2-.3.3-.4c0-.2.1-.3.1-.5c-.3.2-.6.3-1 .3c-.6 0-1-.1-1.3-.4c-.3-.3-.5-.7-.5-1.2c0-.5.2-.9.6-1.2c.3-.3.8-.5 1.3-.5c.3 0 .6.1.8.1c.2.1.4.3.6.4c.4.4.6 1.1.6 1.9c0 .8-.2 1.5-.6 2c-.3.4-.9.7-1.5.7c-.6 0-1.2-.2-1.7-.6c.05 0 .6-.8.6-.8c0 0 .01-.02 0 0zm1.3-1.3c.2 0 .4 0 .6-.2c.1-.1.2-.3.2-.5c0-.2-.1-.4-.2-.6c-.2-.1-.4-.2-.7-.2c-.2 0-.4.1-.6.2c-.1.2-.2.4-.2.6c0 .2.1.4.2.5c.2.2.4.2.7.2zm4.4 2.7c-.7 0-1.3-.3-1.9-.8l.7-.7c.4.3.8.5 1.2.5c.2 0 .4-.1.6-.2c.1-.1.2-.3.2-.5c0-.2-.1-.4-.3-.5c-.1-.1-.3-.2-.6-.2c-.3 0-.5.1-.8.2c-.01.03-.6-.4-.6-.4l.1-2.4h3v.9h-2.1s-.02.89 0 .9c.2-.1.4-.1.6-.1c.5 0 .9.1 1.3.4c.3.3.4.7.4 1.2c0 .5-.1.9-.5 1.2c-.3.3-.8.5-1.3.5zm4.6 0c-.6 0-1-.2-1.4-.5c-.4-.4-.6-1-.6-1.9c0-.8.2-1.4.6-1.9c.3-.5.9-.8 1.6-.8c.5 0 1.1.2 1.5.6l-.6.8c-.1-.1-.3-.2-.4-.3c-.2-.1-.4-.1-.6-.1c-.1 0-.3 0-.4.1l-.3.3c-.1.1-.1.3-.2.4v.3c.3-.2.6-.3 1-.3c.5 0 .9.2 1.2.4c.3.3.5.7.5 1.2c0 .5-.2.9-.5 1.2c-.4.3-.8.5-1.4.5zM57 26c0 .2.1.4.3.6c.1.1.3.2.6.2c.2 0 .4-.1.6-.2c.1-.2.2-.3.2-.6c0-.2-.1-.4-.2-.5c-.2-.1-.4-.2-.6-.2c-.3 0-.5.1-.6.2c-.2.1-.3.3-.3.5c.03.02 0 0 0 0c0 0 .03.03 0 0z" stroke="none" fill="#000"/></g><g id="Polygon374130"><path d="m.6 5.6V.7h1.1v2.1L3.6.7h1.4L3 2.8l2 2.8H3.8L2.2 3.5l-.5.6v1.5H.6zm7.1-.4c-.3.3-.6.5-1.1.5c-.4 0-.7-.1-.9-.3c-.3-.2-.4-.5-.4-.9c0-.4.1-.7.4-.9c.3-.2.6-.3 1.1-.3c.3 0 .6.1.9.2v-.1c0-.5-.2-.7-.8-.7c-.3 0-.7.1-1 .2l-.3-.8c.5-.2 1-.3 1.5-.3c.5 0 1 .1 1.2.4c.3.3.4.7.4 1.2c.04.02 0 2.2 0 2.2h-1v-.4s.01-.01 0 0zm-.8-.3c.3 0 .5 0 .6-.1c.2-.2.2-.3.2-.5v-.2c-.2-.1-.4-.2-.6-.2c-.3 0-.5.1-.6.2c-.1.1-.2.2-.2.4c0 .1.1.2.2.3c.1.1.2.1.4.1zm2.8 1.8V1.8h1s.02.59 0 .6c.3-.4.7-.6 1.2-.6c.5 0 .9.2 1.2.5c.3.3.5.8.5 1.4c0 .6-.2 1.1-.5 1.4c-.3.4-.7.6-1.2.6c-.5 0-.9-.2-1.2-.6c.02.01 0 1.6 0 1.6h-1zm1-3c0 .3.1.6.3.8c.1.2.4.3.6.3c.3 0 .5-.1.7-.3c.1-.2.2-.5.2-.8c0-.3-.1-.5-.2-.7c-.2-.2-.4-.3-.7-.3c-.2 0-.5.1-.6.3c-.2.2-.3.4-.3.7c.01.02 0 0 0 0c0 0 .01.03 0 0zm5.9 1.5c-.3.3-.7.5-1.2.5c-.3 0-.6-.1-.9-.3c-.2-.2-.3-.5-.3-.9c0-.4.1-.7.4-.9c.2-.2.6-.3 1.1-.3c.3 0 .6.1.9.2v-.1c0-.5-.3-.7-.8-.7c-.4 0-.7.1-1.1.2l-.2-.8c.5-.2.9-.3 1.4-.3c.6 0 1 .1 1.3.4c.3.3.4.7.4 1.2c.01.02 0 2.2 0 2.2h-1v-.4s-.02-.01 0 0zm-.8-.3c.2 0 .4 0 .6-.1c.1-.2.2-.3.2-.5v-.2c-.2-.1-.4-.2-.7-.2c-.2 0-.4.1-.5.2c-.1.1-.2.2-.2.4c0 .1 0 .2.2.3c.1.1.2.1.4.1zm2.7.7V.5h1.1v2.7l1.2-1.4h1.3l-1.4 1.5l1.5 2.3h-1.3L20 4.1l-.4.4v1.1h-1.1zm4.2 0V.5h1.1v5.1h-1.1zm2.1 0V1.8h1.1v3.8h-1.1zm6.1.1c-.9 0-1.5-.3-2.1-.8l.6-.8c.5.4 1 .6 1.5.6c.2 0 .4 0 .5-.1c.1-.1.2-.2.2-.3v-.1c0-.1-.1-.2-.2-.3c-.1-.1-.4-.2-.8-.3c-.3-.1-.5-.1-.7-.2c-.2-.1-.3-.1-.5-.3c-.1-.1-.2-.2-.3-.4c-.1-.1-.1-.3-.1-.6c0-.4.1-.8.4-1.1c.4-.2.8-.4 1.3-.4c.7 0 1.3.2 1.8.7l-.6.8c-.4-.4-.8-.5-1.2-.5c-.2 0-.4 0-.5.1c-.1.1-.2.2-.2.3c0 .2.1.3.2.4c.2.1.5.2.9.3c.5.1.9.3 1.2.5c.2.2.4.5.4.9v.1c0 .4-.2.8-.5 1.1c-.4.2-.8.4-1.3.4zm4.8-.5c-.3.3-.7.5-1.2.5c-.3 0-.6-.1-.9-.3c-.2-.2-.3-.5-.3-.9c0-.4.1-.7.4-.9c.2-.2.6-.3 1.1-.3c.3 0 .6.1.9.2v-.1c0-.5-.3-.7-.8-.7c-.4 0-.7.1-1.1.2l-.2-.8c.4-.2.9-.3 1.4-.3c.6 0 1 .1 1.3.4c.3.3.4.7.4 1.2c.01.02 0 2.2 0 2.2h-1v-.4s-.02-.01 0 0zm-.8-.3c.2 0 .4 0 .6-.1c.1-.2.2-.3.2-.5v-.2c-.2-.1-.4-.2-.7-.2c-.2 0-.4.1-.5.2c-.1.1-.2.2-.2.4c0 .1 0 .2.1.3c.2.1.3.1.5.1zm2.7.7V.5h1.1v2.7l1.2-1.4h1.3l-1.4 1.5l1.5 2.3H40l-.9-1.5l-.4.4v1.1h-1.1zm4.2 0V.5h1.1v5.1h-1.1zm4.3-.4c-.3.3-.7.5-1.2.5c-.3 0-.6-.1-.9-.3c-.2-.2-.3-.5-.3-.9c0-.4.1-.7.4-.9c.2-.2.6-.3 1.1-.3c.3 0 .6.1.9.2v-.1c0-.5-.3-.7-.8-.7c-.4 0-.7.1-1.1.2l-.2-.8c.5-.2.9-.3 1.4-.3c.6 0 1 .1 1.3.4c.3.3.4.7.4 1.2c.01.02 0 2.2 0 2.2h-1v-.4s-.02-.01 0 0zm-.8-.3c.2 0 .4 0 .6-.1c.1-.2.2-.3.2-.5v-.2c-.2-.1-.4-.2-.7-.2c-.2 0-.4.1-.5.2c-.1.1-.2.2-.2.4c0 .1 0 .2.1.3c.2.1.3.1.5.1zm2.7.7V1.8h1.1v.6c.3-.4.7-.6 1.1-.6c.5 0 .9.2 1.1.6c.3-.4.7-.6 1.2-.6c.4 0 .7.1.9.3c.2.3.4.6.4 1.1c-.05-.04 0 2.4 0 2.4h-1.1V3.5c0-.5-.2-.8-.6-.8c-.2 0-.4.1-.5.2c-.1.2-.2.4-.2.6c.02.01 0 2.1 0 2.1h-1s-.04-2.09 0-2.1c0-.5-.3-.8-.7-.8c-.2 0-.3.1-.4.2c-.2.2-.2.4-.2.6v2.1H48zm8.9-.4c-.3.3-.7.5-1.2.5c-.3 0-.6-.1-.9-.3c-.2-.2-.3-.5-.3-.9c0-.4.1-.7.4-.9c.2-.2.6-.3 1.1-.3c.3 0 .6.1.9.2v-.1c0-.5-.3-.7-.8-.7c-.4 0-.7.1-1.1.2l-.2-.8c.4-.2.9-.3 1.4-.3c.6 0 1 .1 1.3.4c.3.3.4.7.4 1.2v2.2h-1v-.4s-.03-.01 0 0zm-.8-.3c.2 0 .4 0 .6-.1c.1-.2.2-.3.2-.5v-.2c-.2-.1-.4-.2-.7-.2c-.2 0-.4.1-.5.2c-.2.1-.2.2-.2.4c0 .1 0 .2.1.3c.1.1.3.1.5.1zm6.7.8c-.8 0-1.5-.3-2.1-.8l.6-.8c.5.4 1 .6 1.5.6c.2 0 .4 0 .5-.1c.1-.1.2-.2.2-.3v-.1c0-.1-.1-.2-.2-.3c-.1-.1-.4-.2-.8-.3c-.3-.1-.5-.1-.7-.2c-.1-.1-.3-.1-.5-.3c-.1-.1-.2-.2-.3-.4c-.1-.1-.1-.3-.1-.6c0-.4.2-.8.5-1.1c.3-.2.7-.4 1.2-.4c.7 0 1.3.2 1.8.7l-.5.8c-.5-.4-.9-.5-1.3-.5c-.2 0-.4 0-.5.1c-.1.1-.1.2-.1.3c0 .2 0 .3.2.4c.1.1.4.2.8.3c.6.1.9.3 1.2.5c.2.2.4.5.4.9v.1c0 .4-.2.8-.5 1.1c-.3.2-.8.4-1.3.4zm5.9-.7c-.4.5-.9.7-1.5.7c-.6 0-1.1-.2-1.4-.6c-.4-.3-.6-.8-.6-1.4c0-.5.2-1 .5-1.4c.4-.3.8-.5 1.4-.5c.6 0 1 .2 1.3.6c.3.4.5.8.5 1.4v.3h-2.6c0 .2.1.4.3.5c.1.2.3.2.6.2c.3 0 .6-.1.9-.4c0 .04.6.6.6.6c0 0 .01-.02 0 0zm-2.4-1.6h1.6l-.3-.6c-.1-.1-.3-.2-.5-.2c-.2 0-.4.1-.6.2c-.1.2-.2.4-.2.6zm3.4 3.3V1.8h1.1s-.04.59 0 .6c.2-.4.6-.6 1.1-.6c.5 0 .9.2 1.2.5c.4.3.5.8.5 1.4c0 .6-.1 1.1-.5 1.4c-.3.4-.7.6-1.2.6c-.4 0-.8-.2-1.1-.6c-.04.01 0 1.6 0 1.6h-1.1zm1-3c0 .3.1.6.3.8c.2.2.4.3.7.3c.2 0 .4-.1.6-.3c.2-.2.3-.5.3-.8c0-.3-.1-.5-.3-.7c-.2-.2-.4-.3-.6-.3c-.3 0-.5.1-.7.3c-.2.2-.3.4-.3.7c.04.02 0 0 0 0c0 0 .04.03 0 0zm7 1.3c-.4.5-.9.7-1.5.7c-.6 0-1-.2-1.4-.6c-.4-.3-.6-.8-.6-1.4c0-.5.2-1 .6-1.4c.3-.3.8-.5 1.3-.5c.6 0 1 .2 1.3.6c.4.4.5.8.5 1.4v.3h-2.6c0 .2.1.4.3.5c.2.2.4.2.6.2c.3 0 .6-.1.9-.4c.02.04.6.6.6.6c0 0 .03-.02 0 0zm-2.4-1.6h1.6c-.1-.2-.1-.4-.3-.6c-.1-.1-.3-.2-.5-.2c-.2 0-.4.1-.5.2c-.2.2-.3.4-.3.6zm5.5 2c-.2.2-.5.3-.8.3c-.4 0-.6-.1-.8-.3c-.2-.2-.3-.5-.3-.9c-.02.04 0-1.7 0-1.7h-.5v-1h.5v-.9h1v.9h.9v1h-.9s.05 1.56 0 1.6c0 .2.2.3.4.3c.2 0 .4 0 .5-.1v.8s.01.05 0 0zm.8-4v-.9h1.2v.9h-1.2zm.1 4.2V1.8h1v3.8h-1z" stroke="none" fill="#000"/></g></svg>