<?xml version="1.0" standalone="no"?><!DOCTYPE svg PUBLIC "-//W3C//DTD SVG 1.1//EN" "http://www.w3.org/Graphics/SVG/1.1/DTD/svg11.dtd"><svg xmlns="http://www.w3.org/2000/svg" version="1.1" width="272.2px" height="122.3px" viewBox="0 -5 272.2 122.3" style="top:-5px"><desc>TEPS S YAH / TAUPE</desc><defs/><g id="Polygon370327"><path d="m3.1 41.6c-1 0-1.9-.3-2.6-1l.4-.5c.4.3.7.5 1 .6c.4.2.8.3 1.2.3c.4 0 .8-.2 1-.4c.3-.2.4-.4.4-.7c0-.4-.1-.6-.3-.8c-.3-.1-.7-.3-1.3-.4c-.8-.2-1.3-.4-1.7-.7c-.3-.3-.5-.7-.5-1.2c0-.5.2-.9.6-1.2c.4-.4.9-.5 1.5-.5c.5 0 .9 0 1.2.2c.4.1.7.3 1 .6l-.4.5c-.5-.4-1.1-.7-1.8-.7c-.4 0-.7.1-1 .3c-.2.2-.4.4-.4.7v.1c0 .3.2.5.4.7c.2.2.7.4 1.4.5c.7.2 1.2.4 1.5.7c.4.2.5.6.5 1.1c0 .5-.2 1-.6 1.3c-.4.3-.9.5-1.5.5zm3.6-.1v-6.3h.8v6.3h-.8zm0-6.9v-.8h.9v.8h-.9zm4.6 6.9V39l-2.6-3.8h.8l2.2 3.1l2.1-3.1h.8L12 39v2.5h-.7zm3 0l2.8-6.4h.7l2.9 6.4h-.8l-.7-1.7h-3.5l-.7 1.7h-.7zm1.7-2.3h2.9L17.5 36l-1.5 3.2zm5.9 2.3v-6.3h.8v2.8h3.6v-2.8h.7v6.3h-.7v-2.8h-3.6v2.8h-.8zm8.1 1.2l4.2-8.4h.6l-4.2 8.4h-.6zm9.6-1.2v-5.7h-2.2v-.6h5v.6h-2.1v5.7h-.7zm2.8 0l2.9-6.4h.7l2.8 6.4h-.7l-.8-1.7h-3.4l-.8 1.7h-.7zm1.8-2.3h2.8L45.6 36l-1.4 3.2zm8.2 2.4c-.8 0-1.4-.2-1.9-.7c-.5-.5-.7-1.2-.7-2c-.04-.05 0-3.7 0-3.7h.7s-.02 3.61 0 3.6c0 .7.1 1.2.5 1.6c.3.4.8.5 1.4.5c.6 0 1.1-.1 1.4-.5c.4-.3.5-.9.5-1.5c.02-.05 0-3.7 0-3.7h.7s.03 3.6 0 3.6c0 .9-.2 1.6-.7 2.1c-.4.5-1.1.7-1.9.7zm4.3-.1v-6.3s2.39-.03 2.4 0c.7 0 1.3.2 1.7.5c.4.4.7.9.7 1.5c0 .7-.3 1.2-.7 1.5c-.5.4-1.1.6-1.8.6c-.02-.03-1.6 0-1.6 0v2.2h-.7zm.7-2.9s1.6.02 1.6 0c.5 0 .9-.1 1.3-.4c.3-.2.4-.6.4-1c0-.4-.1-.8-.4-1c-.3-.2-.7-.4-1.3-.4c.04.03-1.6 0-1.6 0v2.8zm5.4 2.9v-6.3h4.5v.6h-3.8v2.2h3.4v.6h-3.4v2.3h3.9v.6h-4.6z" stroke="none" fill="#000"/></g><g id="Polygon370326"><path d="m4.9 16V4.8H.7V2h11.6v2.8H8V16H4.9zm9.7 0v-14h10.6v2.7h-7.5v2.9h6.6v2.7h-6.6v3h7.6v2.7H14.6zM28 16v-14h5.8c1.6 0 2.9.4 3.9 1.3c.9.9 1.4 2.1 1.4 3.5v.1c0 1.6-.5 2.8-1.6 3.6c-1 .9-2.4 1.3-4 1.3h-2.4v4.2H28zm3.1-6.9s2.46-.04 2.5 0c.7 0 1.3-.2 1.7-.6c.5-.4.7-.9.7-1.6c0-.7-.2-1.2-.7-1.6c-.4-.3-1-.5-1.8-.5c0-.02-2.4 0-2.4 0v4.3zm15.3 7.1c-2.3 0-4.3-.7-6-2.2l1.9-2.2c1.4 1.1 2.8 1.7 4.1 1.7c.7 0 1.2-.1 1.5-.4c.4-.2.6-.5.6-.9v-.1c0-.4-.2-.7-.6-1c-.4-.2-1.1-.5-2.3-.8c-.7-.2-1.4-.4-1.9-.5c-.5-.2-1-.5-1.4-.8c-.5-.3-.8-.7-1-1.2c-.2-.5-.3-1.1-.3-1.7v-.1c0-1.2.5-2.3 1.4-3c.9-.8 2.1-1.2 3.5-1.2c2 0 3.7.6 5.2 1.8l-1.6 2.3c-1.3-.9-2.6-1.4-3.6-1.4c-.6 0-1.1.1-1.4.4c-.3.2-.4.5-.4.8v.1c0 .4.2.8.5 1c.4.2 1.2.5 2.5.8c1.5.4 2.6.9 3.3 1.6c.8.6 1.1 1.5 1.1 2.6v.1c0 1.3-.4 2.4-1.4 3.2c-.9.7-2.2 1.1-3.7 1.1zm7.9-.2v-14h3.1v14h-3.1zM54.4.9v-2.5h3v2.5h-3z" stroke="none" fill="#000"/></g></svg>