<?xml version="1.0" standalone="no"?><!DOCTYPE svg PUBLIC "-//W3C//DTD SVG 1.1//EN" "http://www.w3.org/Graphics/SVG/1.1/DTD/svg11.dtd"><svg xmlns="http://www.w3.org/2000/svg" version="1.1" width="170.4px" height="88.4px" viewBox="0 -3 170.4 88.4" style="top:-3px"><desc>Olympia Deri Tepsi Siyah (13 × 30 × 4 cm) r n Kodu: ZAAER SPR TR OL13300 9035 0034 Renk: Siyah Malzeme: Suni deri ka...</desc><defs/><g id="Polygon373191"><path d="m3.3 70.2v-.6h.7v.6h-.7zm-1.3 0v-.6h.6v.6h-.6zm3.5 2.9c0 .7-.3 1.3-.7 1.8c-.5.5-1.1.8-1.8.8c-.8 0-1.4-.3-1.8-.8c-.5-.4-.7-1-.7-1.7v-.1c0-.6.2-1.2.7-1.7c.5-.5 1.1-.8 1.8-.8c.7 0 1.3.3 1.8.8c.4.4.7 1 .7 1.7c-.03.04 0 0 0 0c0 0-.03.05 0 0zm-4.4 0c0 .6.1 1.1.5 1.5c.4.4.8.6 1.4.6c.5 0 1-.2 1.4-.6c.3-.4.5-.9.5-1.4v-.1c0-.5-.2-1-.5-1.4c-.4-.4-.9-.6-1.4-.6c-.6 0-1 .2-1.4.6c-.4.4-.5.9-.5 1.4c-.05.04 0 0 0 0c0 0-.05.05 0 0zm5.5 2.5v-5.1h.5v5.1h-.5zm3.1 1.1l-.6-.3s.59-.75.6-.8c-.5 0-.8-.2-1.1-.6c-.3-.3-.4-.7-.4-1.2c0-.5.1-1 .5-1.3c.4-.4.8-.6 1.3-.6c.6 0 1.1.2 1.5.6l-.4.4c-.3-.3-.7-.5-1.1-.5c-.4 0-.7.1-.9.4c-.3.3-.4.6-.4 1c0 .4.1.7.4 1c.3.3.6.4 1 .4c.4 0 .7-.2 1.1-.5l.3.3c-.4.4-.8.7-1.4.7c.03-.02-.4 1-.4 1zm4.5-5.3v-.6h.6v.6h-.6zm-1.2 0v-.6h.6v.6h-.6zm1.9 3.6c-.3.4-.7.7-1.2.7c-.4 0-.8-.2-1-.4c-.3-.3-.4-.6-.4-1.1c.01.03 0-2.2 0-2.2h.5s.04 2.09 0 2.1c0 .3.1.6.3.8c.2.2.4.3.7.3c.4 0 .6-.1.8-.3c.2-.2.3-.5.3-.8c.03-.05 0-2.1 0-2.1h.6v3.6h-.6v-.6s.03-.03 0 0zm1.8.6v-5.1h.6v5.1h-.6zm4.9-.6c-.4.5-.9.7-1.5.7c-.5 0-.9-.2-1.3-.5c-.3-.4-.5-.8-.5-1.4c0-.5.2-1 .5-1.4c.3-.3.7-.5 1.2-.5c.5 0 1 .2 1.3.5c.3.4.4.9.4 1.4v.2h-2.9c.1.4.2.7.5.9c.2.2.5.3.8.3c.4 0 .8-.2 1.2-.5c-.05 0 .3.3.3.3c0 0-.01 0 0 0zm-2.8-1.4h2.4c-.1-.4-.2-.7-.4-.9c-.2-.2-.4-.3-.8-.3c-.3 0-.6.1-.8.3c-.2.2-.3.5-.4.9zm3.9 2V72h.5v.9c.1-.3.3-.5.6-.7c.2-.2.5-.3.9-.3c-.03.02 0 .6 0 .6h-.1c-.4 0-.7.1-1 .4c-.3.3-.4.7-.4 1.3v1.4h-.5zm2.8-2.9v-.7h.6v.7h-.6zm0 2.9v-.7h.6v.7h-.6zm4.5 0v-4.4l-.9.3l-.1-.4l1.2-.4h.4v4.9h-.6zm3.5.1c-.8 0-1.4-.3-1.9-.9l.4-.3c.4.4.9.7 1.5.7c.3 0 .5-.1.7-.3c.2-.2.3-.4.3-.7c0-.3-.1-.5-.3-.7c-.3-.1-.6-.2-1-.2c-.04-.03-.4 0-.4 0l-.1-.4l1.6-1.7h-2.4v-.5h3.1v.4s-1.53 1.71-1.5 1.7c.4.1.8.2 1.1.4c.3.2.5.6.5 1c0 .4-.2.8-.5 1.1c-.3.2-.7.4-1.1.4zm7.6-1l-1.2-1.2l-1.3 1.2l-.3-.3l1.2-1.3l-1.2-1.2l.3-.3l1.3 1.2l1.2-1.2l.3.3l-1.2 1.2l1.2 1.2l-.3.4zm5.2 1c-.8 0-1.4-.3-1.8-.9l.4-.3c.4.4.9.7 1.4.7c.3 0 .6-.1.8-.3c.2-.2.3-.4.3-.7c0-.3-.1-.5-.4-.7c-.2-.1-.6-.2-1-.2c.02-.03-.3 0-.3 0l-.1-.4l1.5-1.7h-2.3v-.5h3.1v.4s-1.56 1.71-1.6 1.7c.5.1.9.2 1.2.4c.3.2.5.6.5 1c0 .4-.2.8-.5 1.1c-.3.2-.7.4-1.2.4zm6.7-2.6c0 .8-.2 1.4-.6 1.8c-.4.5-.9.8-1.5.8c-.6 0-1.1-.3-1.5-.7c-.3-.5-.5-1.1-.5-1.8v-.1c0-.7.2-1.3.5-1.7c.4-.5.9-.8 1.5-.8c.7 0 1.2.3 1.5.7c.4.5.6 1.1.6 1.8c0 .04 0 0 0 0c0 0 0 .05 0 0zm-3.6 0c0 .6.2 1.1.5 1.5c.2.4.6.6 1 .6c.5 0 .9-.2 1.1-.6c.3-.4.4-.9.4-1.4v-.1c0-.5-.1-1-.4-1.4c-.3-.4-.6-.6-1.1-.6c-.4 0-.8.2-1 .6c-.3.4-.5.9-.5 1.4c.04.04 0 0 0 0c0 0 .04.05 0 0zm9.5 1.6l-1.2-1.2l-1.2 1.2l-.3-.3l1.2-1.3l-1.2-1.2l.3-.3l1.2 1.2l1.3-1.2l.3.3l-1.2 1.2l1.2 1.2l-.4.4zm6.1.9v-1.2h-2.5l-.2-.4l2.8-3.3h.5v3.3h.7v.4h-.7v1.2h-.6zM63 74h2v-2.6L63 74zm9.5 1c-.4.5-.9.7-1.5.7c-.5 0-.9-.2-1.3-.6c-.3-.3-.5-.8-.5-1.3c0-.5.2-1 .5-1.3c.4-.4.8-.6 1.3-.6c.6 0 1.1.2 1.5.6l-.4.4c-.3-.3-.7-.5-1.1-.5c-.3 0-.6.1-.9.4c-.2.3-.4.6-.4 1c0 .4.2.7.4 1c.3.3.6.4 1 .4c.4 0 .7-.2 1.1-.5c-.02-.04.3.3.3.3c0 0 .02-.02 0 0zm.9.6V72h.5s.05.59 0 .6l.5-.5c.2-.1.4-.2.7-.2c.6 0 .9.2 1.2.7c.3-.5.7-.7 1.3-.7c.4 0 .7.1.9.4c.3.3.4.6.4 1.1v2.2h-.5s-.04-2.11 0-2.1c0-.4-.1-.6-.3-.8c-.2-.2-.4-.3-.7-.3c-.3 0-.5.1-.7.3c-.2.2-.3.5-.3.8c.02.01 0 2.1 0 2.1h-.5v-2.1c0-.4-.1-.6-.3-.8c-.1-.2-.4-.3-.6-.3c-.3 0-.6.1-.8.3c-.2.2-.3.5-.3.8c.05.03 0 2.1 0 2.1h-.5z" stroke="none" fill="#000"/></g><g id="Polygon373190"><path d="m.7 65.6v-4.9h.6L3 63.4l1.8-2.7h.6v4.9h-.6v-4L3 64.3l-1.8-2.7v4h-.5zm8.4-.5c-.4.4-.8.6-1.3.6c-.4 0-.7-.1-1-.3c-.3-.2-.4-.5-.4-.9c0-.3.1-.6.4-.8c.3-.2.7-.3 1.2-.3c.3 0 .7 0 1.1.1v-.1c0-.3-.1-.6-.3-.7c-.2-.2-.5-.3-.8-.3c-.4 0-.7.1-1.1.3l-.2-.5c.5-.2.9-.3 1.3-.3c.6 0 .9.2 1.2.4c.3.3.4.6.4 1.1c-.02-.01 0 2.2 0 2.2h-.5v-.5s-.04-.05 0 0zm-1.2.1c.3 0 .6 0 .8-.2c.3-.2.4-.4.4-.7v-.4c-.4-.1-.7-.1-1.1-.1c-.3 0-.6 0-.8.2c-.2.1-.2.3-.2.5c0 .2 0 .4.2.6c.2.1.4.1.7.1zm2.9.4v-5.1h.5v5.1h-.5zm1.6 0v-.3l2.4-2.9h-2.4v-.4h3.1v.3l-2.4 2.8h2.4v.5h-3.1zm7-.6c-.4.5-.9.7-1.5.7c-.5 0-.9-.2-1.2-.5c-.4-.4-.6-.8-.6-1.4c0-.5.2-1 .5-1.4c.4-.3.8-.5 1.3-.5c.5 0 .9.2 1.2.5c.3.4.5.9.5 1.4v.2h-2.9c0 .4.2.7.4.9c.2.2.5.3.9.3c.4 0 .8-.2 1.1-.5l.3.3s.03 0 0 0zm-2.7-1.4h2.3c0-.4-.1-.7-.3-.9c-.2-.2-.5-.3-.8-.3c-.4 0-.6.1-.8.3c-.3.2-.4.5-.4.9zm3.8 2V62h.5s.04.59 0 .6c.2-.2.3-.4.5-.5c.2-.1.4-.2.7-.2c.6 0 .9.2 1.2.7c.3-.5.7-.7 1.2-.7c.5 0 .8.1 1 .4c.3.3.4.6.4 1.1c-.01-.04 0 2.2 0 2.2h-.5s-.05-2.11 0-2.1c0-.4-.1-.6-.3-.8c-.2-.2-.4-.3-.7-.3c-.3 0-.5.1-.7.3c-.2.2-.3.5-.3.8v2.1h-.5s-.02-2.13 0-2.1c0-.4-.1-.6-.3-.8c-.1-.2-.4-.3-.7-.3c-.2 0-.5.1-.7.3c-.2.2-.3.5-.3.8c.04.03 0 2.1 0 2.1h-.5zm9.7-.6c-.4.5-.9.7-1.5.7c-.5 0-.9-.2-1.3-.5c-.3-.4-.5-.8-.5-1.4c0-.5.2-1 .5-1.4c.3-.3.8-.5 1.3-.5c.5 0 .9.2 1.2.5c.3.4.4.9.4 1.4v.2h-2.8c0 .4.1.7.4.9c.2.2.5.3.8.3c.5 0 .8-.2 1.2-.5c-.02 0 .3.3.3.3c0 0 .01 0 0 0zm-2.7-1.4h2.3c0-.4-.1-.7-.3-.9c-.2-.2-.5-.3-.9-.3c-.3 0-.5.1-.8.3c-.2.2-.3.5-.3.9zm3.7-.9v-.7h.7v.7h-.7zm0 2.9v-.7h.7v.7h-.7zm5.7.1c-.7 0-1.4-.3-2-.8l.4-.4c.2.2.5.4.8.5c.2.1.5.2.9.2c.3 0 .5-.1.7-.3c.2-.1.3-.3.3-.6c0-.2 0-.4-.2-.5c-.2-.2-.5-.3-1-.4c-.6-.1-1-.3-1.3-.5c-.2-.2-.4-.5-.4-.9c0-.4.2-.7.5-1c.3-.2.7-.4 1.1-.4c.4 0 .7.1 1 .2c.2.1.5.2.8.4l-.4.5c-.4-.4-.9-.6-1.4-.6c-.3 0-.5.1-.7.3c-.2.1-.3.3-.3.5c0 .3.1.5.3.6c.1.2.5.3 1 .4c.6.1 1 .3 1.2.5c.3.2.4.5.4.9c0 .4-.2.7-.5 1c-.3.2-.7.4-1.2.4zm5.3-.7c-.3.4-.7.7-1.2.7c-.5 0-.8-.2-1-.4c-.3-.3-.4-.6-.4-1.1c-.02.03 0-2.2 0-2.2h.5s.02 2.09 0 2.1c0 .3.1.6.3.8c.2.2.4.3.7.3c.3 0 .6-.1.8-.3c.2-.2.3-.5.3-.8V62h.5v3.6h-.5v-.6s.01-.03 0 0zm1.8.6V62h.5v.6c.3-.5.7-.7 1.2-.7c.5 0 .8.1 1 .4c.3.3.4.6.4 1.1c.02-.05 0 2.2 0 2.2h-.5s-.02-2.11 0-2.1c0-.4-.1-.6-.3-.8c-.2-.2-.4-.3-.7-.3c-.3 0-.6.1-.8.3c-.2.2-.3.5-.3.8v2.1h-.5zm4.3-4.4v-.6h.6v.6h-.6zm0 4.4V62h.6v3.6h-.6zm6.8-.7c-.4.5-.8.8-1.4.8c-.4 0-.8-.2-1.2-.5c-.3-.4-.5-.8-.5-1.4c0-.6.2-1 .5-1.4c.4-.3.8-.5 1.2-.5c.6 0 1.1.3 1.4.8c.01-.03 0-2.2 0-2.2h.5v5.1h-.5v-.7s.01-.03 0 0zm-1.3.3c.4 0 .7-.1.9-.4c.3-.3.4-.6.4-1c0-.4-.1-.8-.4-1c-.2-.3-.5-.4-.9-.4c-.3 0-.6.1-.9.4c-.2.2-.4.6-.4 1c0 .4.2.8.4 1c.3.3.6.4.9.4zm6.1-.2c-.4.5-.9.7-1.5.7c-.5 0-.9-.2-1.2-.5c-.4-.4-.6-.8-.6-1.4c0-.5.2-1 .5-1.4c.4-.3.8-.5 1.3-.5c.5 0 .9.2 1.2.5c.3.4.5.9.5 1.4c0 .1-.1.1-.1.2h-2.8c0 .4.2.7.4.9c.2.2.5.3.8.3c.5 0 .9-.2 1.2-.5l.3.3s.03 0 0 0zm-2.7-1.4h2.3c0-.4-.1-.7-.3-.9c-.2-.2-.5-.3-.8-.3c-.4 0-.6.1-.8.3c-.3.2-.4.5-.4.9zm3.8 2V62h.5s.04.93 0 .9c.2-.3.4-.5.6-.7c.3-.2.6-.3.9-.3v.6s-.03 0 0 0c-.4 0-.8.1-1.1.4c-.2.3-.4.7-.4 1.3c.04-.04 0 1.4 0 1.4h-.5zm2.8-4.4v-.6h.7v.6h-.7zm.1 4.4V62h.5v3.6h-.5zm3.9 0v-5.1h.5v3.5l2-2h.6l-1.5 1.5l1.6 2.1h-.7L69 63.9l-.7.8v.9h-.5zm6.3-.5c-.3.4-.8.6-1.3.6c-.4 0-.7-.1-1-.3c-.3-.2-.4-.5-.4-.9c0-.3.2-.6.4-.8c.3-.2.7-.3 1.2-.3c.3 0 .7 0 1.1.1v-.1c0-.3-.1-.6-.3-.7c-.2-.2-.5-.3-.8-.3c-.4 0-.7.1-1.1.3l-.2-.5c.5-.2.9-.3 1.4-.3c.5 0 .9.2 1.1.4c.3.3.4.6.4 1.1c-.01-.01 0 2.2 0 2.2h-.5v-.5s-.03-.05 0 0zm-1.2.1c.3 0 .6 0 .8-.2c.3-.2.4-.4.4-.7v-.4c-.4-.1-.7-.1-1.1-.1c-.3 0-.6 0-.8.2c-.1.1-.2.3-.2.5c0 .2 0 .4.2.6c.2.1.4.1.7.1zm2.8 1.5V62h.6s-.02.71 0 .7c.4-.5.8-.8 1.4-.8c.4 0 .8.2 1.2.5c.3.4.5.8.5 1.4c0 .6-.2 1-.5 1.4c-.4.3-.8.5-1.2.5c-.6 0-1.1-.3-1.4-.8c-.02.01 0 1.8 0 1.8h-.6zm1.9-1.5c.3 0 .6-.1.9-.4c.2-.2.3-.6.3-1c0-.4-.1-.8-.3-1c-.3-.3-.6-.4-.9-.4c-.4 0-.7.1-.9.4c-.3.3-.4.6-.4 1c0 .4.1.7.3 1c.3.3.6.4 1 .4zm2.8.4v-5.1h.6v5.1h-.6zm1.9 0V62h.5v3.6h-.5zm6.9.7c-.4.3-.8.4-1.4.4c-.6 0-1.2-.1-1.7-.5l.3-.4c.4.3.9.5 1.4.5c.4 0 .7-.1.9-.4c.3-.2.4-.5.4-.9v-.4c-.4.5-.9.7-1.4.7c-.5 0-.9-.1-1.2-.5c-.4-.3-.5-.7-.5-1.2c0-.5.1-.9.5-1.2c.3-.3.7-.5 1.2-.5c.5 0 1 .2 1.4.7c-.03.03 0-.6 0-.6h.5v3c0 .5-.1.9-.4 1.3zm-1.4-1.5c.3 0 .6-.1.9-.3c.3-.2.4-.5.4-.9c0-.4-.1-.6-.4-.9c-.3-.2-.6-.3-.9-.3c-.4 0-.7.1-.9.3c-.3.2-.4.5-.4.9c0 .4.1.7.4.9c.2.2.5.3.9.3zm5-3.4v-.6h.6v.6h-.6zm-1.2 0v-.6h.6v.6h-.6zm.9 4.3c-.6 0-1-.2-1.4-.6c-.3-.3-.5-.8-.5-1.3c0-.5.2-1 .5-1.3c.4-.4.8-.6 1.4-.6c.5 0 1 .2 1.3.6c.4.3.6.8.6 1.3c0 .5-.2 1-.6 1.3c-.3.4-.8.6-1.3.6zm0-.5c.4 0 .7-.1.9-.4c.3-.3.4-.6.4-1c0-.4-.1-.7-.4-1c-.2-.3-.6-.4-.9-.4c-.4 0-.7.1-1 .4c-.2.3-.4.6-.4 1c0 .4.2.7.4 1c.3.3.6.4 1 .4zm3.8.4L94.8 62h.6l1.2 3l1.2-3h.6l-1.6 3.6h-.5zm5.7-.7c-.4.5-.9.8-1.4.8c-.5 0-.9-.2-1.2-.5c-.4-.4-.5-.8-.5-1.4c0-.6.1-1 .5-1.4c.3-.3.7-.5 1.2-.5c.6 0 1 .3 1.4.8c-.03-.03 0-2.2 0-2.2h.5v5.1h-.5v-.7s-.03-.03 0 0zm-1.3.3c.3 0 .6-.1.9-.4c.3-.3.4-.6.4-1c0-.4-.1-.8-.4-1c-.3-.3-.6-.4-.9-.4c-.4 0-.7.1-.9.4c-.3.2-.4.6-.4 1c0 .4.1.8.4 1c.2.3.5.4.9.4zm6.1-.2c-.4.5-.9.7-1.5.7c-.5 0-.9-.2-1.3-.5c-.3-.4-.5-.8-.5-1.4c0-.5.2-1 .5-1.4c.3-.3.7-.5 1.2-.5c.5 0 1 .2 1.3.5c.3.4.4.9.4 1.4v.2H104c.1.4.2.7.4.9c.3.2.6.3.9.3c.4 0 .8-.2 1.1-.5c.05 0 .4.3.4.3c0 0-.02 0 0 0zm-2.8-1.4h2.4c-.1-.4-.2-.7-.4-.9c-.2-.2-.4-.3-.8-.3c-.3 0-.6.1-.8.3c-.2.2-.3.5-.4.9zm3.6 2.9l-.1-.3c.3-.1.5-.3.5-.6h-.3v-.7h.7s-.03.59 0 .6c0 .3-.1.5-.2.6c-.1.2-.3.3-.6.4zm4-.9V62h.5s.04.59 0 .6c.2-.2.3-.4.5-.5c.2-.1.4-.2.7-.2c.6 0 .9.2 1.2.7c.3-.5.7-.7 1.2-.7c.5 0 .8.1 1 .4c.3.3.4.6.4 1.1c-.01-.04 0 2.2 0 2.2h-.6s.05-2.11 0-2.1c0-.4 0-.6-.2-.8c-.2-.2-.4-.3-.7-.3c-.3 0-.5.1-.7.3c-.2.2-.3.5-.3.8v2.1h-.5s-.02-2.13 0-2.1c0-.4-.1-.6-.3-.8c-.1-.2-.4-.3-.7-.3c-.2 0-.5.1-.7.3c-.2.2-.3.5-.3.8c.04.03 0 2.1 0 2.1h-.5zm9.7-.6c-.4.5-.9.7-1.5.7c-.5 0-.9-.2-1.3-.5c-.3-.4-.5-.8-.5-1.4c0-.5.2-1 .5-1.4c.3-.3.7-.5 1.2-.5c.6 0 1 .2 1.3.5c.3.4.4.9.4 1.4v.2h-2.8c0 .4.1.7.4.9c.2.2.5.3.8.3c.5 0 .8-.2 1.2-.5c-.03 0 .3.3.3.3c0 0 .01 0 0 0zm-2.7-1.4h2.3c0-.4-.2-.7-.4-.9c-.1-.2-.4-.3-.8-.3c-.3 0-.5.1-.8.3c-.2.2-.3.5-.3.9zm5.6 1.9c-.1.1-.4.2-.6.2c-.3 0-.6-.1-.8-.3c-.1-.2-.2-.4-.2-.8c-.03.04 0-2.1 0-2.1h-.5v-.5h.5v-1.1h.5v1.1h1.2v.5h-1.2v2.1c0 .4.2.6.6.6c.2 0 .4-.1.5-.2c.04.05 0 .5 0 .5c0 0 .04.01 0 0zm3.4-.4c-.3.4-.8.6-1.3.6c-.4 0-.7-.1-1-.3c-.2-.2-.4-.5-.4-.9c0-.3.2-.6.5-.8c.2-.2.6-.3 1.1-.3c.3 0 .7 0 1.1.1v-.1c0-.3-.1-.6-.3-.7c-.2-.2-.4-.3-.8-.3c-.3 0-.7.1-1.1.3l-.1-.5c.4-.2.8-.3 1.3-.3c.5 0 .9.2 1.1.4c.3.3.4.6.4 1.1c.01-.01 0 2.2 0 2.2h-.5v-.5s-.01-.05 0 0zm-1.2.1c.3 0 .6 0 .9-.2c.2-.2.3-.4.3-.7v-.4c-.4-.1-.7-.1-1.1-.1c-.3 0-.6 0-.7.2c-.2.1-.3.3-.3.5c0 .2.1.4.2.6c.2.1.4.1.7.1zm2.9.4v-5.1h.5v5.1h-.5zm6.8-.7c-.4.5-.8.8-1.4.8c-.4 0-.8-.2-1.2-.5c-.3-.4-.5-.8-.5-1.4c0-.6.2-1 .5-1.4c.4-.3.8-.5 1.2-.5c.6 0 1.1.3 1.4.8c.01-.03 0-2.2 0-2.2h.5v5.1h-.5v-.7s.01-.03 0 0zm-1.3.3c.4 0 .7-.1.9-.4c.3-.3.4-.6.4-1c0-.4-.1-.8-.4-1c-.2-.3-.5-.4-.9-.4c-.3 0-.6.1-.9.4c-.2.2-.4.6-.4 1c0 .4.2.8.4 1c.3.3.6.4.9.4zm6.1-.2c-.4.5-.9.7-1.5.7c-.5 0-.9-.2-1.3-.5c-.3-.4-.5-.8-.5-1.4c0-.5.2-1 .5-1.4c.3-.3.8-.5 1.3-.5c.5 0 .9.2 1.2.5c.3.4.4.9.4 1.4v.2h-2.8c0 .4.1.7.4.9c.2.2.5.3.8.3c.5 0 .9-.2 1.2-.5l.3.3s.02 0 0 0zm-2.7-1.4h2.3c0-.4-.1-.7-.3-.9c-.2-.2-.5-.3-.9-.3c-.3 0-.5.1-.7.3c-.3.2-.4.5-.4.9zm5.7 1.9c-.2.1-.4.2-.7.2c-.3 0-.6-.1-.7-.3c-.2-.2-.3-.4-.3-.8c-.02.04 0-2.1 0-2.1h-.5v-.5h.5v-1.1h.5v1.1h1.2v.5h-1.2s.02 2.07 0 2.1c0 .4.2.6.6.6c.2 0 .4-.1.6-.2c-.05.05 0 .5 0 .5c0 0-.05.01 0 0zm3.3-.4c-.3.4-.7.6-1.3.6c-.4 0-.7-.1-.9-.3c-.3-.2-.5-.5-.5-.9c0-.3.2-.6.5-.8c.3-.2.6-.3 1.1-.3c.4 0 .7 0 1.1.1v-.1c0-.3-.1-.6-.3-.7c-.2-.2-.4-.3-.8-.3c-.3 0-.7.1-1.1.3l-.1-.5c.4-.2.8-.3 1.3-.3c.5 0 .9.2 1.2.4c.2.3.3.6.3 1.1c.03-.01 0 2.2 0 2.2h-.5v-.5s.01-.05 0 0zm-1.2.1c.3 0 .6 0 .9-.2c.2-.2.3-.4.3-.7v-.4c-.3-.1-.7-.1-1-.1c-.4 0-.6 0-.8.2c-.2.1-.3.3-.3.5c0 .2.1.4.3.6c.1.1.4.1.6.1zm4.3-.2l1.1-3h.6l-1.5 3.7c-.2.4-.3.7-.5.8c-.2.2-.4.2-.7.2c-.3 0-.5 0-.8-.1l.2-.5c.2.1.4.2.6.2c.1 0 .3-.1.4-.2c.1-.1.2-.3.3-.5c.01-.01-1.6-3.6-1.6-3.6h.6l1.3 3zm2.6.6v-5.1h.6v5.1h-.6zm1.9 0V62h.5v3.6h-.5z" stroke="none" fill="#000"/></g><g id="Polygon373189"><path d="m.7 55.6v-4.9h2.1c.6 0 1.1.2 1.4.5c.2.2.4.6.4 1c0 .4-.2.7-.4.9c-.2.3-.6.4-1 .5c.04 0 1.5 2 1.5 2h-.6l-1.5-1.9H1.2v1.9h-.5zm.5-2.4h1.6c.3 0 .6-.1.9-.3c.2-.2.3-.4.3-.7c0-.3-.1-.6-.3-.7c-.2-.2-.5-.3-.9-.3H1.2v2zM8.7 55c-.4.5-.9.7-1.5.7c-.5 0-1-.2-1.3-.5c-.4-.4-.5-.8-.5-1.4c0-.5.1-1 .5-1.4c.3-.3.7-.5 1.2-.5c.5 0 .9.2 1.2.5c.3.4.5.9.5 1.4v.2H5.9c.1.4.2.7.4.9c.3.2.6.3.9.3c.4 0 .8-.2 1.1-.5c.03 0 .4.3.4.3c0 0-.03 0 0 0zm-2.8-1.4h2.3c0-.4-.1-.7-.3-.9c-.2-.2-.5-.3-.8-.3c-.3 0-.6.1-.8.3c-.2.2-.3.5-.4.9zm3.8 2V52h.6s-.02.61 0 .6c.3-.5.7-.7 1.2-.7c.4 0 .8.1 1 .4c.3.3.4.6.4 1.1v2.2h-.5s-.04-2.11 0-2.1c0-.4-.1-.6-.3-.8c-.2-.2-.4-.3-.7-.3c-.4 0-.6.1-.8.3c-.2.2-.3.5-.3.8c-.02.03 0 2.1 0 2.1h-.6zm4.3 0v-5.1h.6v3.5l1.9-2h.7l-1.5 1.5l1.6 2.1h-.7l-1.3-1.7l-.7.8v.9h-.6zm4-2.9v-.7h.6v.7h-.6zm0 2.9v-.7h.6v.7h-.6zm5.7.1c-.8 0-1.4-.3-2-.8l.3-.4c.3.2.5.4.8.5c.3.1.6.2.9.2c.3 0 .6-.1.8-.3c.2-.1.3-.3.3-.6c0-.2-.1-.4-.3-.5c-.1-.2-.5-.3-1-.4c-.6-.1-1-.3-1.2-.5c-.3-.2-.4-.5-.4-.9c0-.4.1-.7.4-1c.3-.2.7-.4 1.2-.4c.3 0 .6.1.9.2c.3.1.5.2.8.4l-.3.5c-.4-.4-.9-.6-1.4-.6c-.3 0-.6.1-.8.3c-.2.1-.3.3-.3.5c0 .3.1.5.3.6c.2.2.5.3 1.1.4c.5.1.9.3 1.2.5c.2.2.4.5.4.9c0 .4-.2.7-.5 1c-.3.2-.7.4-1.2.4zm2.7-4.5v-.6h.6v.6h-.6zm0 4.4V52h.6v3.6h-.6zm3.4-.6l1.1-3h.6L30 55.7c-.2.4-.3.7-.5.8c-.2.2-.4.2-.7.2c-.3 0-.5 0-.8-.1l.2-.5c.2.1.4.2.6.2c.1 0 .3-.1.4-.2c.1-.1.2-.3.3-.5c.01-.01-1.6-3.6-1.6-3.6h.6l1.3 3zm4.8.1c-.3.4-.8.6-1.3.6c-.4 0-.7-.1-1-.3c-.2-.2-.4-.5-.4-.9c0-.3.2-.6.4-.8c.3-.2.7-.3 1.2-.3c.3 0 .7 0 1.1.1v-.1c0-.3-.1-.6-.3-.7c-.2-.2-.5-.3-.8-.3c-.4 0-.7.1-1.1.3l-.2-.5c.5-.2.9-.3 1.4-.3c.5 0 .9.2 1.1.4c.3.3.4.6.4 1.1v2.2h-.5v-.5s-.02-.05 0 0zm-1.2.1c.3 0 .6 0 .8-.2c.3-.2.4-.4.4-.7v-.4c-.4-.1-.7-.1-1.1-.1c-.3 0-.6 0-.8.2c-.1.1-.2.3-.2.5c0 .2.1.4.2.6c.2.1.4.1.7.1zm2.8.4v-5.1h.6s-.02 2.11 0 2.1c.3-.5.7-.7 1.2-.7c.5 0 .8.1 1 .4c.3.3.4.6.4 1.1c.01-.05 0 2.2 0 2.2h-.5s-.03-2.11 0-2.1c0-.4-.1-.6-.3-.8c-.2-.2-.4-.3-.7-.3c-.3 0-.6.1-.8.3c-.2.2-.3.5-.3.8c-.02.03 0 2.1 0 2.1h-.6z" stroke="none" fill="#000"/></g><g id="Polygon373188"><path d="m.4 45.6v-.8l2.7-3.2H.5v-.9h4v.8l-2.7 3.2h2.7v.9H.4zm4.7 0l2.1-4.9h1l2.1 4.9H9.2l-.5-1.1h-2l-.5 1.1H5.1zm2-2.1h1.3L7.7 42l-.6 1.5zm3.4 2.1l2.1-4.9h1l2.1 4.9h-1.1l-.5-1.1h-2l-.5 1.1h-1.1zm1.9-2.1h1.3l-.6-1.5l-.7 1.5zm4.1 2.1v-4.9h3.7v1h-2.7v1h2.3v.9h-2.3v1h2.7v1h-3.7zm4.7 0v-4.9h2.2c.6 0 1.1.2 1.4.5c.3.3.4.7.4 1.1c0 .8-.3 1.3-1 1.5c-.01.05 1.2 1.8 1.2 1.8h-1.3l-1-1.6h-.9v1.6h-1zm1-2.5s1.12-.02 1.1 0c.3 0 .5-.1.6-.2c.2-.1.2-.3.2-.5c0-.3 0-.4-.2-.5c-.1-.2-.3-.2-.6-.2c0-.03-1.1 0-1.1 0v1.4zm3.8.8v-1h2.1v1H26zm4.8 1.8c-.8 0-1.5-.3-2.1-.8l.7-.8c.5.4.9.6 1.4.6c.3 0 .4 0 .6-.1c.1-.1.1-.2.1-.3v-.1c0-.1 0-.2-.2-.3c-.1-.1-.3-.2-.7-.3c-.3-.1-.5-.1-.7-.2c-.2-.1-.4-.1-.5-.3c-.2-.1-.3-.2-.4-.4c0-.1-.1-.3-.1-.6c0-.4.2-.8.5-1.1c.3-.2.7-.4 1.2-.4c.7 0 1.3.2 1.9.7l-.6.8c-.5-.4-.9-.5-1.3-.5c-.2 0-.3 0-.4.1c-.1.1-.2.2-.2.3c0 .2.1.3.2.4c.1.1.4.2.9.3c.5.1.9.3 1.1.5c.3.2.4.5.4.9v.1c0 .4-.2.8-.5 1.1c-.3.2-.7.4-1.3.4zm2.8-.1v-4.9h2c.5 0 1 .2 1.3.5c.4.3.5.7.5 1.2c0 .6-.2 1-.5 1.3c-.4.3-.9.4-1.5.4c.05.03-.8 0-.8 0v1.5h-1zm1-2.4s.88-.03.9 0c.2 0 .5-.1.6-.2c.2-.2.2-.4.2-.6c0-.2 0-.4-.2-.5c-.1-.2-.4-.2-.6-.2c-.04-.03-.9 0-.9 0v1.5zm3.6 2.4v-4.9h2.3c.6 0 1.1.2 1.4.5c.3.3.4.7.4 1.1c0 .8-.3 1.3-1 1.5c-.04.05 1.2 1.8 1.2 1.8h-1.3l-1-1.6h-.9v1.6h-1.1zm1.1-2.5s1.1-.02 1.1 0c.3 0 .5-.1.6-.2c.2-.1.2-.3.2-.5c0-.3-.1-.4-.2-.5c-.1-.2-.4-.2-.6-.2c-.02-.03-1.1 0-1.1 0v1.4zm3.7.8v-1h2.2v1H43zm3.7 1.7v-3.9h-1.5v-1h4v1h-1.5v3.9h-1zm3.3 0v-4.9h2.3c.6 0 1.1.2 1.4.5c.3.3.4.7.4 1.1c0 .8-.3 1.3-1 1.5c-.01.05 1.2 1.8 1.2 1.8H53L52 44h-.9v1.6H50zm1.1-2.5s1.12-.02 1.1 0c.3 0 .5-.1.6-.2c.2-.1.2-.3.2-.5c0-.3 0-.4-.2-.5c-.1-.2-.3-.2-.6-.2c0-.03-1.1 0-1.1 0v1.4zm3.8.8v-1h2.1v1h-2.1zm8.1-.8c0 .8-.3 1.4-.8 1.8c-.5.5-1.1.8-1.9.8c-.7 0-1.3-.3-1.8-.7c-.5-.5-.8-1.1-.8-1.8v-.1c0-.7.3-1.3.8-1.7c.5-.5 1.1-.8 1.9-.8c.7 0 1.3.3 1.8.7c.5.5.8 1.1.8 1.8c-.04.04 0 0 0 0c0 0-.04.05 0 0zm-4.1 0c0 .5.1.8.4 1.1c.3.3.6.5 1.1.5c.4 0 .7-.2 1-.5c.3-.2.4-.6.4-1v-.1c0-.4-.1-.7-.4-1c-.3-.3-.6-.5-1.1-.5c-.4 0-.7.2-1 .5c-.3.2-.4.6-.4 1c-.02.04 0 0 0 0c0 0-.02.05 0 0zm5 2.5v-4.9h1.1v3.9h2.4v1h-3.5zm5 0v-3.8l-.8.2l-.3-.9l1.4-.4h.8v4.9h-1.1zm3.9.1c-.8 0-1.4-.3-1.9-.9l.7-.7c.4.4.8.6 1.2.6c.2 0 .4 0 .5-.1c.1-.2.2-.3.2-.5c0-.2-.1-.3-.3-.5c-.1-.1-.4-.1-.7-.1h-.4l-.2-.7l1.2-1.2h-1.9v-.9h3.3v.8s-1.26 1.19-1.3 1.2c.9.1 1.4.6 1.4 1.4c0 .5-.2.8-.5 1.1c-.3.3-.8.5-1.3.5zm4.3 0c-.8 0-1.4-.3-1.9-.9l.8-.7c.3.4.7.6 1.2.6c.2 0 .3 0 .5-.1c.1-.2.1-.3.1-.5c0-.2 0-.3-.2-.5c-.2-.1-.4-.1-.7-.1h-.5l-.1-.7l1.1-1.2h-1.9v-.9h3.3v.8s-1.21 1.19-1.2 1.2c.9.1 1.3.6 1.3 1.4c0 .5-.2.8-.5 1.1c-.3.3-.7.5-1.3.5zm4.8 0c-.7 0-1.2-.3-1.6-.7c-.4-.5-.6-1.1-.6-1.8v-.1c0-.7.2-1.3.6-1.8c.4-.4.9-.7 1.6-.7c.6 0 1.1.3 1.5.7c.4.5.6 1.1.6 1.8c0 .8-.2 1.4-.6 1.9c-.4.4-.9.7-1.5.7zm-1.1-2.6c0 .5.1.9.3 1.2c.2.3.4.4.8.4c.3 0 .6-.1.7-.4c.2-.3.3-.7.3-1.1v-.1c0-.4-.1-.8-.3-1.1c-.2-.3-.4-.4-.7-.4c-.4 0-.6.1-.8.4c-.2.3-.3.7-.3 1.1c-.01.04 0 0 0 0c0 0-.01.05 0 0zm6.2 2.6c-.7 0-1.2-.3-1.6-.7c-.4-.5-.6-1.1-.6-1.8v-.1c0-.7.2-1.3.6-1.8c.4-.4.9-.7 1.6-.7c.6 0 1.1.3 1.5.7c.4.5.7 1.1.7 1.8c0 .8-.3 1.4-.7 1.9c-.4.4-.9.7-1.5.7zm-1.1-2.6c0 .5.1.9.3 1.2c.2.3.5.4.8.4c.3 0 .6-.1.8-.4c.1-.3.2-.7.2-1.1v-.1c0-.4-.1-.8-.3-1.1c-.2-.3-.4-.4-.7-.4c-.4 0-.6.1-.8.4c-.2.3-.3.7-.3 1.1c0 .04 0 0 0 0c0 0 0 .05 0 0zm4 .8v-1h2.1v1h-2.1zm3.6.4c.3.3.7.4 1 .4c.3 0 .4-.1.6-.2c.2-.1.3-.3.3-.4c.1-.2.1-.3.1-.5c-.2.2-.6.3-1 .3c-.5 0-.9-.1-1.3-.4c-.3-.3-.4-.7-.4-1.2c0-.5.2-.9.5-1.2c.3-.3.8-.5 1.3-.5c.4 0 .6.1.9.1c.2.1.4.3.6.4c.3.4.5 1.1.5 1.9c0 .8-.1 1.5-.5 2c-.4.4-.9.7-1.6.7c-.6 0-1.1-.2-1.6-.6l.6-.8s-.04-.02 0 0zm1.2-1.3c.3 0 .5 0 .6-.2c.2-.1.2-.3.2-.5c0-.2 0-.4-.2-.6c-.1-.1-.4-.2-.6-.2c-.3 0-.5.1-.6.2c-.2.2-.3.4-.3.6c0 .2.1.4.3.5c.1.2.3.2.6.2zm4.9 2.7c-.7 0-1.2-.3-1.6-.7c-.4-.5-.6-1.1-.6-1.8v-.1c0-.7.2-1.3.6-1.8c.4-.4.9-.7 1.6-.7c.6 0 1.1.3 1.5.7c.4.5.7 1.1.7 1.8c0 .8-.3 1.4-.7 1.9c-.4.4-.9.7-1.5.7zm-1.1-2.6c0 .5.1.9.3 1.2c.2.3.5.4.8.4c.3 0 .6-.1.8-.4c.1-.3.2-.7.2-1.1v-.1c0-.4-.1-.8-.3-1.1c-.2-.3-.4-.4-.7-.4c-.4 0-.6.1-.8.4c-.2.3-.3.7-.3 1.1c0 .04 0 0 0 0c0 0 0 .05 0 0zm5.7 2.6c-.8 0-1.4-.3-1.9-.9l.8-.7c.3.4.7.6 1.1.6c.3 0 .4 0 .6-.1c.1-.2.1-.3.1-.5c0-.2 0-.3-.2-.5c-.2-.1-.4-.1-.7-.1h-.5l-.1-.7l1.1-1.2h-1.9v-.9h3.3v.8s-1.22 1.19-1.2 1.2c.9.1 1.3.6 1.3 1.4c0 .5-.2.8-.5 1.1c-.3.3-.7.5-1.3.5zm4.3 0c-.7 0-1.3-.3-1.8-.8l.6-.7c.4.3.8.5 1.2.5c.2 0 .4-.1.6-.2c.1-.1.2-.3.2-.5c0-.2-.1-.4-.2-.5c-.2-.1-.4-.2-.7-.2c-.2 0-.5.1-.8.2c.02.03-.6-.4-.6-.4l.1-2.4h3.1v.9h-2.1l-.1.9c.2-.1.4-.1.7-.1c.5 0 .9.1 1.2.4c.3.3.5.7.5 1.2c0 .5-.2.9-.5 1.2c-.4.3-.8.5-1.4.5zm2.6-1.8v-1h2.2v1h-2.2zm5.1 1.8c-.7 0-1.2-.3-1.6-.7c-.4-.5-.6-1.1-.6-1.8v-.1c0-.7.2-1.3.6-1.8c.4-.4 1-.7 1.6-.7c.6 0 1.2.3 1.6.7c.4.5.6 1.1.6 1.8c0 .8-.2 1.4-.6 1.9c-.4.4-1 .7-1.6.7zm-1.1-2.6c0 .5.1.9.3 1.2c.2.3.5.4.8.4c.3 0 .6-.1.8-.4c.2-.3.3-.7.3-1.1v-.1c0-.4-.1-.8-.3-1.1c-.2-.3-.5-.4-.8-.4c-.3 0-.6.1-.8.4c-.2.3-.3.7-.3 1.1c.02.04 0 0 0 0c0 0 .02.05 0 0zm6.2 2.6c-.7 0-1.2-.3-1.6-.7c-.4-.5-.6-1.1-.6-1.8v-.1c0-.7.2-1.3.6-1.8c.4-.4 1-.7 1.6-.7c.6 0 1.2.3 1.6.7c.4.5.6 1.1.6 1.8c0 .8-.2 1.4-.6 1.9c-.4.4-1 .7-1.6.7zm-1.1-2.6c0 .5.1.9.3 1.2c.2.3.5.4.8.4c.3 0 .6-.1.8-.4c.2-.3.3-.7.3-1.1v-.1c0-.4-.1-.8-.3-1.1c-.2-.3-.5-.4-.8-.4c-.3 0-.6.1-.8.4c-.2.3-.3.7-.3 1.1c.03.04 0 0 0 0c0 0 .03.05 0 0zm5.8 2.6c-.8 0-1.5-.3-1.9-.9l.7-.7c.3.4.7.6 1.2.6c.2 0 .4 0 .5-.1c.1-.2.2-.3.2-.5c0-.2-.1-.3-.3-.5c-.1-.1-.4-.1-.7-.1h-.4l-.2-.7l1.2-1.2h-2v-.9h3.4v.8l-1.3 1.2c.9.1 1.3.6 1.3 1.4c0 .5-.1.8-.5 1.1c-.3.3-.7.5-1.2.5zm4.9-.1v-1.1h-2.4l-.1-.7l2.6-3.1h.9v3h.7v.8h-.7v1.1h-1zm-1.3-1.9h1.3v-1.6l-1.3 1.6z" stroke="none" fill="#000"/></g><g id="Polygon373187"><path d="m3 30.3v-.7h.6v.7h-.6zm-1.3 0v-.7h.6v.7h-.6zm1 5.4c-.7 0-1.2-.2-1.5-.6c-.4-.4-.6-.9-.6-1.6c.02.05 0-2.8 0-2.8h.6s-.03 2.81 0 2.8c0 .5.1.9.4 1.2c.2.3.6.5 1.1.5c.4 0 .8-.2 1.1-.4c.2-.3.3-.7.3-1.3c.04.05 0-2.8 0-2.8h.6v2.8c0 .7-.2 1.2-.6 1.6c-.3.4-.8.6-1.4.6zm3.2-.1V32h.6s-.05.93 0 .9c.1-.3.3-.5.5-.7c.3-.2.6-.3.9-.3c.03.02 0 .6 0 .6c0 0-.01 0 0 0c-.4 0-.8.1-1 .4c-.3.3-.4.7-.4 1.3c-.05-.04 0 1.4 0 1.4h-.6zm4.7-4.2v-.6h.6v.6h-.6zm-1.3 0v-.6h.7v.6h-.7zm2 3.6c-.3.4-.7.7-1.2.7c-.4 0-.8-.2-1-.4c-.3-.3-.4-.6-.4-1.1c-.01.03 0-2.2 0-2.2h.5s.03 2.09 0 2.1c0 .3.1.6.3.8c.2.2.4.3.7.3c.3 0 .6-.1.8-.3c.2-.2.3-.5.3-.8c.02-.05 0-2.1 0-2.1h.6v3.6h-.6v-.6s.02-.03 0 0zm1.8.6V32h.5v.6c.3-.5.7-.7 1.2-.7c.5 0 .8.1 1.1.4c.2.3.3.6.3 1.1c.03-.05 0 2.2 0 2.2h-.5v-2.1c0-.4-.1-.6-.3-.8c-.2-.2-.4-.3-.7-.3c-.3 0-.6.1-.8.3c-.2.2-.3.5-.3.8v2.1h-.5zm6.5 0v-4.9h.5v2.9l2.8-2.9h.8l-2.2 2.1l2.2 2.8h-.7l-1.8-2.4l-1.1 1.1v1.3h-.5zm6.3.1c-.5 0-.9-.2-1.3-.6c-.3-.3-.5-.8-.5-1.3c0-.5.2-1 .5-1.3c.4-.4.8-.6 1.4-.6c.5 0 .9.2 1.3.6c.4.3.5.8.5 1.3c0 .5-.1 1-.5 1.3c-.4.4-.8.6-1.4.6zm.1-.5c.3 0 .7-.1.9-.4c.3-.3.4-.6.4-1c0-.4-.1-.7-.4-1c-.3-.3-.6-.4-1-.4c-.3 0-.7.1-.9.4c-.2.3-.4.6-.4 1c0 .4.2.7.4 1c.3.3.6.4 1 .4zm5.7-.3c-.3.5-.8.8-1.4.8c-.4 0-.8-.2-1.2-.5c-.3-.4-.5-.8-.5-1.4c0-.6.2-1 .5-1.4c.4-.3.8-.5 1.2-.5c.6 0 1.1.3 1.4.8c.02-.03 0-2.2 0-2.2h.6v5.1h-.6v-.7s.02-.03 0 0zm-1.3.3c.4 0 .7-.1 1-.4c.2-.3.3-.6.3-1c0-.4-.1-.8-.3-1c-.3-.3-.6-.4-1-.4c-.3 0-.6.1-.9.4c-.2.2-.3.6-.3 1c0 .4.1.8.3 1c.3.3.6.4.9.4zM36 35c-.3.4-.7.7-1.2.7c-.4 0-.8-.2-1-.4c-.3-.3-.4-.6-.4-1.1c.01.03 0-2.2 0-2.2h.5s.05 2.09 0 2.1c0 .3.1.6.3.8c.2.2.4.3.8.3c.3 0 .5-.1.7-.3c.2-.2.3-.5.3-.8c.04-.05 0-2.1 0-2.1h.6v3.6h-.6v-.6s.04-.03 0 0zm1.7-2.3v-.7h.7v.7h-.7zm0 2.9v-.7h.7v.7h-.7z" stroke="none" fill="#000"/></g><g id="Polygon373186"><path d="m2.3 15.7c-.8 0-1.5-.3-2-.8l.6-.8c.5.4 1 .6 1.5.6c.2 0 .3 0 .5-.1c.1-.1.2-.2.2-.3v-.1c0-.1-.1-.2-.2-.3c-.2-.1-.4-.2-.8-.3c-.3-.1-.5-.1-.7-.2c-.2-.1-.3-.1-.5-.3c-.2-.1-.3-.2-.3-.4c-.1-.1-.2-.3-.2-.6c0-.4.2-.8.5-1.1c.3-.2.8-.4 1.3-.4c.7 0 1.3.2 1.8.7l-.6.8c-.4-.4-.9-.5-1.3-.5c-.2 0-.3 0-.4.1c-.1.1-.2.2-.2.3c0 .2.1.3.2.4c.2.1.4.2.9.3c.5.1.9.3 1.2.5c.2.2.3.5.3.9v.1c0 .4-.1.8-.5 1.1c-.3.2-.7.4-1.3.4zM5 11.4v-.9h1.1v.9H5zm0 4.2v-3.8h1.1v3.8H5zm3.7-1.2l.8-2.6h1.1l-1.4 3.9c-.1.4-.3.6-.5.8c-.2.2-.4.2-.7.2c-.4 0-.7 0-1-.2l.4-.8c.1.1.3.2.4.2c.1 0 .2-.1.3-.1c0 0 .1-.1.1-.2l-1.5-3.8h1.2l.8 2.6zm4.6.8c-.3.3-.7.5-1.1.5c-.4 0-.7-.1-1-.3c-.2-.2-.3-.5-.3-.9c0-.4.1-.7.4-.9c.3-.2.6-.3 1.1-.3c.3 0 .6.1.9.2v-.1c0-.5-.3-.7-.8-.7c-.3 0-.7.1-1 .2l-.3-.8c.5-.2.9-.3 1.4-.3c.6 0 1 .1 1.3.4c.3.3.4.7.4 1.2c.02.02 0 2.2 0 2.2h-1v-.4s-.01-.01 0 0zm-.8-.3c.2 0 .4 0 .6-.1c.1-.2.2-.3.2-.5v-.2c-.2-.1-.4-.2-.7-.2c-.2 0-.4.1-.5.2c-.1.1-.2.2-.2.4c0 .1.1.2.2.3c.1.1.2.1.4.1zm2.7.7v-5.1h1.1v1.9c.3-.4.7-.6 1.1-.6c.4 0 .7.1.9.3c.3.3.4.6.4 1.1c-.02-.03 0 2.4 0 2.4h-1.1v-2.1c0-.5-.2-.8-.6-.8c-.2 0-.4.1-.5.2c-.1.2-.2.4-.2.6v2.1h-1.1zm8.8.3l-.4.7c-.7-.4-1.2-.8-1.5-1.3c-.3-.5-.5-1-.5-1.7c0-.7.2-1.3.5-1.7c.3-.5.8-1 1.5-1.3l.4.7c-.4.3-.8.7-1 1c-.2.4-.3.8-.3 1.3c0 .5.1.9.3 1.3c.2.3.6.7 1 1zm1.6-.3v-3.8l-.9.2l-.2-.9l1.4-.4h.7v4.9h-1zm3.9.1c-.8 0-1.5-.3-1.9-.9l.7-.7c.3.4.7.6 1.2.6c.2 0 .4 0 .5-.1c.1-.2.2-.3.2-.5c0-.2-.1-.3-.3-.5c-.1-.1-.4-.1-.7-.1h-.4l-.2-.7l1.2-1.2h-2v-.9h3.4v.8l-1.3 1.2c.9.1 1.3.6 1.3 1.4c0 .5-.1.8-.4 1.1c-.4.3-.8.5-1.3.5zm7.6-.8L36 13.8l-1.1 1.1l-.7-.7l1.1-1.1l-1.1-1l.7-.7l1.1 1.1l1.1-1.1l.6.6l-1.1 1.1l1.1 1.1l-.6.7zm5.4.8c-.8 0-1.4-.3-1.9-.9l.7-.7c.4.4.8.6 1.2.6c.2 0 .4 0 .5-.1c.1-.2.2-.3.2-.5c0-.2-.1-.3-.2-.5c-.2-.1-.5-.1-.8-.1h-.4l-.2-.7l1.2-1.2h-1.9v-.9h3.3v.8s-1.26 1.19-1.3 1.2c.9.1 1.4.6 1.4 1.4c0 .5-.2.8-.5 1.1c-.3.3-.8.5-1.3.5zm4.7 0c-.6 0-1.2-.3-1.6-.7c-.4-.5-.6-1.1-.6-1.8v-.1c0-.7.2-1.3.7-1.8c.4-.4.9-.7 1.5-.7c.7 0 1.2.3 1.6.7c.4.5.6 1.1.6 1.8c0 .8-.2 1.4-.6 1.9c-.4.4-.9.7-1.6.7zm-1-2.6c0 .5 0 .9.2 1.2c.2.3.5.4.8.4c.4 0 .6-.1.8-.4c.2-.3.3-.7.3-1.1v-.1c0-.4-.1-.8-.3-1.1c-.2-.3-.5-.4-.8-.4c-.3 0-.6.1-.8.4c-.2.3-.2.7-.2 1.1c-.05.04 0 0 0 0c0 0-.05.05 0 0zm9 1.8l-1.1-1.1l-1.1 1.1l-.6-.7l1.1-1.1l-1.1-1l.6-.7l1.1 1.1l1.1-1.1l.7.6l-1.2 1.1l1.2 1.1l-.7.7zm6 .7v-1.1h-2.4l-.1-.7l2.7-3.1h.9v3h.6v.8h-.6v1.1h-1.1zm-1.3-1.9h1.3v-1.6l-1.3 1.6zm7.7 2c-.5 0-1-.2-1.4-.6c-.3-.4-.5-.8-.5-1.4c0-.5.2-1 .5-1.4c.4-.3.9-.5 1.4-.5c.7 0 1.2.2 1.5.6l-.6.7c-.1-.1-.3-.2-.4-.3c-.1-.1-.3-.1-.5-.1c-.2 0-.4.1-.6.3c-.2.2-.3.4-.3.7c0 .3.1.6.3.8c.2.2.4.3.7.3c.3 0 .6-.2.8-.4l.7.6c-.2.2-.5.4-.7.5c-.2.1-.5.2-.9.2zm2.3-.1v-3.8h1s.02.58 0 .6c.3-.4.7-.6 1.1-.6c.5 0 .9.2 1.1.6c.3-.4.7-.6 1.2-.6c.4 0 .7.1.9.3c.3.3.4.6.4 1.1c-.02-.04 0 2.4 0 2.4h-1.1v-2.1c0-.5-.2-.8-.6-.8c-.2 0-.4.1-.5.2c-.1.2-.2.4-.2.6c.05.01 0 2.1 0 2.1h-1s-.02-2.09 0-2.1c0-.5-.2-.8-.6-.8c-.2 0-.4.1-.5.2c-.1.2-.2.4-.2.6c.02.01 0 2.1 0 2.1h-1zm6.9 1l-.5-.7c.5-.3.8-.7 1.1-1c.2-.4.3-.8.3-1.3c0-.5-.1-.9-.3-1.3c-.3-.3-.6-.7-1.1-1l.5-.7c.6.3 1.1.8 1.4 1.3c.4.4.5 1 .5 1.7c0 .7-.1 1.2-.5 1.7c-.3.5-.8.9-1.4 1.3z" stroke="none" fill="#000"/></g><g id="Polygon373185"><path d="m5.6 3.1c0 .8-.3 1.4-.8 1.8c-.5.5-1.1.8-1.8.8c-.8 0-1.4-.3-1.9-.7C.6 4.5.4 3.9.4 3.2v-.1c0-.7.2-1.3.7-1.7C1.6.9 2.2.6 3 .6c.7 0 1.3.3 1.8.7c.5.5.8 1.1.8 1.8c-.02.04 0 0 0 0c0 0-.02.05 0 0zm-4.1 0c0 .5.1.8.4 1.1c.3.3.7.5 1.1.5c.4 0 .8-.2 1-.5c.3-.2.5-.6.5-1v-.1c0-.4-.2-.7-.5-1c-.2-.3-.6-.5-1-.5c-.5 0-.8.2-1.1.5c-.3.2-.4.6-.4 1c0 .04 0 0 0 0c0 0 0 .05 0 0zm5 2.5V.5h1v5.1h-1zm3.7-1.2l.8-2.6h1.1s-1.43 3.89-1.4 3.9c-.2.4-.3.6-.5.8c-.2.2-.5.2-.8.2c-.3 0-.6 0-.9-.2l.3-.8c.2.1.4.2.5.2c.1 0 .2-.1.2-.1c.1 0 .1-.1.2-.2c-.03.01-1.5-3.8-1.5-3.8h1.1l.9 2.6zm2.5 1.2V1.8h1.1v.6c.3-.4.7-.6 1.1-.6c.5 0 .9.2 1.1.6c.3-.4.7-.6 1.2-.6c.4 0 .7.1.9.3c.3.3.4.6.4 1.1c-.03-.04 0 2.4 0 2.4h-1.1V3.5c0-.5-.2-.8-.6-.8c-.2 0-.4.1-.5.2c-.1.2-.2.4-.2.6c.03.01 0 2.1 0 2.1h-1s-.03-2.09 0-2.1c0-.5-.2-.8-.7-.8c-.2 0-.3.1-.4.2c-.1.2-.2.4-.2.6v2.1h-1.1zm6.7 1.1V1.8h1.1s-.05.59 0 .6c.2-.4.6-.6 1.1-.6c.5 0 .9.2 1.2.5c.4.3.5.8.5 1.4c0 .6-.1 1.1-.5 1.4c-.3.4-.7.6-1.2.6c-.4 0-.8-.2-1.1-.6c-.05.01 0 1.6 0 1.6h-1.1zm1-3c0 .3.1.6.3.8c.2.2.4.3.6.3c.3 0 .5-.1.7-.3c.2-.2.3-.5.3-.8c0-.3-.1-.5-.3-.7c-.2-.2-.4-.3-.7-.3c-.2 0-.4.1-.6.3c-.2.2-.3.4-.3.7c.04.02 0 0 0 0c0 0 .04.03 0 0zm3.7-2.3v-.9h1.2v.9h-1.2zm.1 4.2V1.8h1v3.8h-1zm4.2-.4c-.3.3-.6.5-1.1.5c-.4 0-.7-.1-.9-.3c-.3-.2-.4-.5-.4-.9c0-.4.1-.7.4-.9c.3-.2.7-.3 1.1-.3c.3 0 .6.1.9.2v-.1c0-.5-.2-.7-.8-.7c-.3 0-.7.1-1 .2l-.3-.8c.5-.2 1-.3 1.5-.3c.5 0 1 .1 1.2.4c.3.3.5.7.5 1.2c-.04.02 0 2.2 0 2.2h-1.1v-.4s.03-.01 0 0zm-.8-.3c.3 0 .5 0 .6-.1c.2-.2.2-.3.2-.5v-.2c-.2-.1-.4-.2-.6-.2c-.3 0-.4.1-.6.2c-.1.1-.2.2-.2.4c0 .1.1.2.2.3c.1.1.2.1.4.1zm5 .7V.7h1.9c.8 0 1.4.2 1.9.7c.5.5.7 1 .7 1.7c0 .7-.2 1.3-.7 1.8c-.5.5-1.1.7-1.9.7h-1.9zm1.9-3.9c0-.03-.8 0-.8 0v2.9s.8.03.8 0c.4 0 .8-.1 1.1-.4c.2-.2.4-.6.4-1v-.1c0-.4-.2-.7-.4-1c-.3-.3-.7-.4-1.1-.4zM41.3 5c-.4.5-.9.7-1.6.7c-.5 0-1-.2-1.4-.6c-.4-.3-.5-.8-.5-1.4c0-.5.1-1 .5-1.4c.3-.3.8-.5 1.3-.5c.6 0 1.1.2 1.4.6c.3.4.4.8.4 1.4v.3h-2.6c.1.2.2.4.3.5c.2.2.4.2.6.2c.4 0 .7-.1.9-.4l.7.6s-.04-.02 0 0zm-2.5-1.6h1.6c0-.2-.1-.4-.2-.6c-.2-.1-.4-.2-.6-.2c-.2 0-.4.1-.5.2c-.2.2-.3.4-.3.6zm3.4 2.2V1.8h1.1v.8c.2-.6.6-.8 1.2-.8v1.1h-.1c-.3 0-.6.1-.8.3c-.2.2-.3.6-.3 1v1.4h-1.1zm3-4.2v-.9h1.1v.9h-1.1zm0 4.2V1.8h1.1v3.8h-1.1zm5.4 0V1.7h-1.5v-1h4.1v1h-1.5v3.9h-1.1zm5.9-.6c-.4.5-.9.7-1.5.7c-.6 0-1.1-.2-1.5-.6c-.3-.3-.5-.8-.5-1.4c0-.5.2-1 .5-1.4c.4-.3.8-.5 1.4-.5c.5 0 1 .2 1.3.6c.3.4.5.8.5 1.4v.3h-2.6c0 .2.1.4.3.5c.1.2.3.2.6.2c.3 0 .6-.1.9-.4c-.02.04.6.6.6.6c0 0-.01-.02 0 0zM54 3.4h1.6c0-.2-.1-.4-.2-.6c-.2-.1-.3-.2-.5-.2c-.3 0-.4.1-.6.2l-.3.6zm3.5 3.3V1.8h1s.03.59 0 .6c.3-.4.7-.6 1.2-.6c.5 0 .9.2 1.2.5c.3.3.5.8.5 1.4c0 .6-.2 1.1-.5 1.4c-.3.4-.7.6-1.2.6c-.5 0-.9-.2-1.2-.6c.03.01 0 1.6 0 1.6h-1zm1-3c0 .3.1.6.3.8c.2.2.4.3.6.3c.3 0 .5-.1.7-.3c.2-.2.2-.5.2-.8c0-.3 0-.5-.2-.7c-.2-.2-.4-.3-.7-.3c-.2 0-.4.1-.6.3c-.2.2-.3.4-.3.7c.02.02 0 0 0 0c0 0 .02.03 0 0zm5 2c-.6 0-1.1-.2-1.6-.6l.5-.7c.4.3.8.5 1.1.5c.3 0 .5-.1.5-.3v-.1c0-.1-.1-.1-.1-.1c0 0-.1 0-.1-.1h-.1c-.1 0-.1-.1-.2-.1h-.1c-.1 0-.1-.1-.2-.1c-.1 0-.3-.1-.4-.1c-.1-.1-.2-.1-.3-.2c-.2-.1-.3-.2-.3-.3c-.1-.2-.1-.3-.1-.5c0-.4.1-.7.4-.9c.2-.2.6-.3 1-.3c.5 0 .9.1 1.4.4l-.4.8c-.4-.3-.8-.4-1.1-.4c-.1 0-.2 0-.3.1c0 0-.1.1-.1.2c0 .1.1.1.2.2c.2.1.4.2.6.2c.2.1.3.1.4.2c.1 0 .2.1.4.2c.1.1.2.2.2.3c.1.1.1.3.1.4v.1c0 .4-.1.7-.4.9c-.2.2-.6.3-1 .3zm2.2-4.3v-.9h1.1v.9h-1.1zm.1 4.2V1.8h1v3.8h-1z" stroke="none" fill="#000"/></g></svg>