<?xml version="1.0" standalone="no"?><!DOCTYPE svg PUBLIC "-//W3C//DTD SVG 1.1//EN" "http://www.w3.org/Graphics/SVG/1.1/DTD/svg11.dtd"><svg xmlns="http://www.w3.org/2000/svg" version="1.1" width="272.2px" height="92.3px" viewBox="0 -9 272.2 92.3" style="top:-9px"><desc>SPECIAL SKIN S YAH / TAUPE</desc><defs/><g id="Polygon367472"><path d="m3.1 35.3c-1 0-1.9-.3-2.6-1l.4-.5c.4.3.7.5 1 .7c.4.1.8.2 1.2.2c.4 0 .8-.1 1-.3c.3-.2.4-.5.4-.8c0-.3-.1-.6-.3-.7c-.3-.2-.7-.4-1.3-.5c-.8-.2-1.3-.4-1.7-.7c-.3-.2-.5-.6-.5-1.1v-.1c0-.5.2-.9.6-1.2c.4-.3.9-.5 1.5-.5c.5 0 .9.1 1.2.2c.4.1.7.3 1 .6l-.4.5c-.5-.4-1.1-.6-1.8-.6c-.4 0-.7.1-1 .2c-.2.2-.4.5-.4.8c0 .3.2.6.4.7c.2.2.7.4 1.4.5c.7.2 1.2.4 1.5.7c.4.3.5.6.5 1.1c0 .6-.2 1-.6 1.3c-.4.4-.9.5-1.5.5zm3.6-.1v-6.3h.8v6.3h-.8zm0-6.9v-.8h.9v.8h-.9zm4.6 6.9v-2.5l-2.6-3.8h.8l2.2 3.2l2.1-3.2h.8L12 32.7v2.5h-.7zm3 0l2.8-6.3h.7l2.9 6.3h-.8l-.7-1.6h-3.5l-.7 1.6h-.7zm1.7-2.3h2.9l-1.4-3.2l-1.5 3.2zm5.9 2.3v-6.3h.8v2.8h3.6v-2.8h.7v6.3h-.7v-2.8h-3.6v2.8h-.8zm8.1 1.2l4.2-8.4h.6l-4.2 8.4h-.6zm9.6-1.2v-5.6h-2.2v-.7h5v.7h-2.1v5.6h-.7zm2.8 0l2.9-6.3h.7l2.8 6.3h-.7l-.8-1.6h-3.4l-.8 1.6h-.7zm1.8-2.3h2.8l-1.4-3.2l-1.4 3.2zm8.2 2.4c-.8 0-1.4-.2-1.9-.7c-.5-.5-.7-1.1-.7-2c-.04-.02 0-3.7 0-3.7h.7s-.02 3.64 0 3.6c0 .7.1 1.2.5 1.6c.3.4.8.6 1.4.6c.6 0 1.1-.2 1.4-.6c.4-.3.5-.8.5-1.5c.02-.02 0-3.7 0-3.7h.7s.03 3.63 0 3.6c0 .9-.2 1.6-.7 2.1c-.4.5-1.1.7-1.9.7zm4.3-.1v-6.3h2.4c.7 0 1.3.2 1.7.5c.4.4.7.9.7 1.5c0 .7-.3 1.2-.7 1.6c-.5.3-1.1.5-1.8.5h-1.6v2.2h-.7zm.7-2.9s1.6.05 1.6 0c.5 0 .9-.1 1.3-.3c.3-.3.4-.6.4-1v-.1c0-.4-.1-.7-.4-1c-.3-.2-.7-.3-1.3-.3c.04-.04-1.6 0-1.6 0v2.7zm5.4 2.9v-6.3h4.5v.7h-3.8v2.1h3.4v.7h-3.4v2.2h3.9v.6h-4.6z" stroke="none" fill="#000"/></g><g id="Polygon367471"><path d="m6.1 15.4c-1.9 0-3.6-.7-5.1-2l.9-1.1c.6.6 1.3 1.1 2 1.4c.7.3 1.4.4 2.3.4c.8 0 1.5-.2 2.1-.6c.5-.4.7-.9.7-1.5v-.1c0-.6-.2-1.1-.7-1.4c-.4-.4-1.3-.7-2.6-1c-1.5-.3-2.6-.7-3.2-1.3c-.7-.5-1-1.3-1-2.3v-.1c0-1 .4-1.8 1.2-2.5c.7-.6 1.7-.9 2.9-.9c.9 0 1.7.1 2.4.3c.7.3 1.4.7 2.1 1.2L9.3 5c-1.2-.9-2.4-1.4-3.7-1.4c-.8 0-1.5.2-2 .6c-.5.4-.7.9-.7 1.5c0 .7.2 1.2.7 1.5c.5.4 1.4.7 2.7 1c1.5.3 2.5.8 3.2 1.3c.7.6 1 1.3 1 2.3c0 1.1-.4 2-1.2 2.6c-.8.7-1.9 1-3.2 1zm7.3-.2V2.5s4.76.04 4.8 0c1.4 0 2.5.4 3.4 1.1c.9.7 1.3 1.7 1.3 3c0 1.3-.5 2.3-1.4 3.1c-1 .7-2.2 1.1-3.6 1.1c.02-.05-3.1 0-3.1 0v4.4h-1.4zm1.4-5.8s3.18.05 3.2 0c1 0 1.9-.2 2.5-.7c.6-.5 1-1.2 1-2v-.1c0-.9-.3-1.5-1-2c-.6-.5-1.4-.7-2.5-.7c.05-.04-3.2 0-3.2 0v5.5zm10.7 5.8V2.5h9.2v1.3H27v4.4h6.9v1.3H27v4.4h7.8v1.3h-9.3zm18 .3c-1.8 0-3.4-.7-4.6-1.9c-1.2-1.3-1.8-2.8-1.8-4.7c0-1.8.6-3.4 1.8-4.7c1.3-1.2 2.8-1.9 4.6-1.9c1.1 0 2 .2 2.8.5c.8.4 1.5.9 2.2 1.5l-1 1.1c-.6-.6-1.2-1-1.8-1.3c-.7-.3-1.4-.5-2.2-.5c-1.4 0-2.6.5-3.5 1.5c-.9 1.1-1.4 2.3-1.4 3.7v.1c0 1.5.5 2.7 1.4 3.7c.9 1 2.1 1.5 3.5 1.5c.8 0 1.6-.1 2.2-.4c.6-.3 1.3-.8 1.9-1.4l1 .9c-.8.7-1.5 1.3-2.3 1.7c-.8.4-1.7.6-2.8.6zm7.8-.3V2.5h1.4v12.7h-1.4zm4 0l5.8-12.8h1.4l5.7 12.8h-1.5l-1.5-3.3h-6.9l-1.5 3.3h-1.5zm3.6-4.6h5.7l-2.8-6.5l-2.9 6.5zm11.8 4.6V2.5h1.5v11.4h7.1v1.3h-8.6zm20.3.2c-2.2 0-4.1-.7-5.7-2.1l1.8-2.1c1.3 1.1 2.6 1.6 3.9 1.6c.6 0 1.1-.1 1.5-.3c.3-.2.5-.5.5-.9v-.1c0-.3-.2-.7-.6-.9c-.3-.2-1.1-.5-2.1-.8c-.8-.1-1.4-.3-1.9-.5c-.5-.2-.9-.4-1.3-.7c-.4-.4-.8-.7-1-1.2c-.1-.4-.2-1-.2-1.6v-.1c0-1.2.4-2.1 1.2-2.9c.9-.7 2-1.1 3.4-1.1c1.9 0 3.5.6 5 1.7l-1.6 2.2c-1.2-.9-2.4-1.3-3.4-1.3c-.6 0-1 .1-1.3.3c-.3.2-.4.5-.4.9c0 .4.1.8.5 1c.4.2 1.1.4 2.3.8c1.5.3 2.6.8 3.2 1.4c.7.6 1.1 1.4 1.1 2.6c0 1.3-.5 2.3-1.4 3c-.9.8-2.1 1.1-3.5 1.1zm7.4-.2V1.9h3v5.8l5.3-5.8h3.6l-5.4 5.7l5.7 7.6H107l-4.1-5.6l-1.5 1.6v4h-3zm14.1 0V1.9h2.9v13.3h-2.9zm6.2 0V1.9h2.7l6.3 8.2V1.9h2.9v13.3h-2.5l-6.5-8.4v8.4h-2.9z" stroke="none" fill="#000"/></g></svg>