<?xml version="1.0" standalone="no"?><!DOCTYPE svg PUBLIC "-//W3C//DTD SVG 1.1//EN" "http://www.w3.org/Graphics/SVG/1.1/DTD/svg11.dtd"><svg xmlns="http://www.w3.org/2000/svg" version="1.1" width="202.1px" height="26.2px" viewBox="0 -3 202.1 26.2" style="top:-3px">  <desc>Buna bir g z at n!</desc>  <defs/>  <g id="Polygon40324">    <path d="M 0.9 8.8 L 0.9 1.1 C 0.9 1.1 4.5 1.1 4.5 1.1 C 5.4 1.1 6.1 1.3 6.5 1.8 C 6.9 2.1 7 2.6 7 3.1 C 7 3.1 7 3.1 7 3.1 C 7 3.9 6.7 4.4 6 4.8 C 6.5 5 6.9 5.2 7.1 5.5 C 7.3 5.8 7.5 6.2 7.5 6.7 C 7.5 6.7 7.5 6.7 7.5 6.7 C 7.5 7.4 7.2 7.9 6.7 8.3 C 6.2 8.6 5.5 8.8 4.6 8.8 C 4.59 8.8 0.9 8.8 0.9 8.8 Z M 4.1 4.2 C 4.9 4.2 5.4 3.9 5.4 3.4 C 5.4 3.4 5.4 3.4 5.4 3.4 C 5.4 2.8 5 2.6 4.2 2.6 C 4.25 2.58 2.6 2.6 2.6 2.6 L 2.6 4.2 L 4.1 4.2 C 4.1 4.2 4.14 4.21 4.1 4.2 Z M 4.6 7.3 C 5.4 7.3 5.8 7 5.8 6.5 C 5.8 6.5 5.8 6.5 5.8 6.5 C 5.8 5.9 5.4 5.6 4.5 5.6 C 4.53 5.62 2.6 5.6 2.6 5.6 L 2.6 7.3 L 4.6 7.3 C 4.6 7.3 4.59 7.31 4.6 7.3 Z M 12.4 8 C 11.9 8.6 11.3 8.9 10.6 8.9 C 10 8.9 9.5 8.7 9.2 8.3 C 8.8 7.9 8.6 7.4 8.6 6.7 C 8.65 6.72 8.6 2.9 8.6 2.9 L 10.3 2.9 C 10.3 2.9 10.32 6.19 10.3 6.2 C 10.3 7 10.7 7.4 11.3 7.4 C 11.7 7.4 11.9 7.3 12.1 7.1 C 12.3 6.9 12.4 6.6 12.4 6.2 C 12.37 6.19 12.4 2.9 12.4 2.9 L 14 2.9 L 14 8.8 L 12.4 8.8 L 12.4 8 C 12.4 8 12.37 7.96 12.4 8 Z M 15.5 8.8 L 15.5 2.9 L 17.2 2.9 C 17.2 2.9 17.21 3.74 17.2 3.7 C 17.7 3.1 18.3 2.8 18.9 2.8 C 19.6 2.8 20.1 3 20.4 3.4 C 20.8 3.8 20.9 4.3 20.9 5 C 20.94 4.98 20.9 8.8 20.9 8.8 L 19.3 8.8 C 19.3 8.8 19.27 5.51 19.3 5.5 C 19.3 4.7 18.9 4.3 18.3 4.3 C 17.9 4.3 17.7 4.4 17.5 4.6 C 17.3 4.8 17.2 5.1 17.2 5.5 C 17.21 5.51 17.2 8.8 17.2 8.8 L 15.5 8.8 Z M 25.8 8.2 C 25.4 8.7 24.8 8.9 24.1 8.9 C 23.5 8.9 23 8.8 22.6 8.4 C 22.2 8.1 22 7.7 22 7.1 C 22 7.1 22 7.1 22 7.1 C 22 6.5 22.3 6 22.7 5.7 C 23.1 5.4 23.7 5.2 24.4 5.2 C 24.9 5.2 25.4 5.3 25.9 5.4 C 25.9 5.4 25.9 5.3 25.9 5.3 C 25.9 4.6 25.4 4.3 24.6 4.3 C 24.1 4.3 23.5 4.4 23 4.6 C 23 4.6 22.5 3.3 22.5 3.3 C 23.3 3 24.1 2.8 24.8 2.8 C 25.7 2.8 26.4 3.1 26.8 3.5 C 27.3 3.9 27.5 4.6 27.5 5.4 C 27.47 5.38 27.5 8.8 27.5 8.8 L 25.8 8.8 L 25.8 8.2 C 25.8 8.2 25.85 8.16 25.8 8.2 Z M 24.6 7.8 C 25 7.8 25.3 7.7 25.5 7.5 C 25.8 7.3 25.9 7 25.9 6.7 C 25.9 6.7 25.9 6.4 25.9 6.4 C 25.6 6.3 25.2 6.2 24.8 6.2 C 24.5 6.2 24.2 6.3 24 6.4 C 23.8 6.6 23.7 6.8 23.7 7 C 23.7 7 23.7 7 23.7 7 C 23.7 7.3 23.7 7.4 23.9 7.6 C 24.1 7.7 24.3 7.8 24.6 7.8 Z M 35.7 8.9 C 35 8.9 34.4 8.6 33.9 8 C 33.88 8.03 33.9 8.8 33.9 8.8 L 32.2 8.8 L 32.2 0.8 L 33.9 0.8 C 33.9 0.8 33.88 3.75 33.9 3.8 C 34.3 3.1 35 2.8 35.7 2.8 C 36.4 2.8 37.1 3.1 37.6 3.6 C 38.1 4.2 38.4 4.9 38.4 5.8 C 38.4 5.8 38.4 5.9 38.4 5.9 C 38.4 6.8 38.1 7.5 37.6 8.1 C 37.1 8.6 36.5 8.9 35.7 8.9 Z M 33.9 5.9 C 33.9 6.3 34 6.7 34.3 7 C 34.5 7.3 34.9 7.5 35.3 7.5 C 35.7 7.5 36 7.3 36.3 7 C 36.6 6.7 36.7 6.3 36.7 5.9 C 36.7 5.9 36.7 5.8 36.7 5.8 C 36.7 5.4 36.6 5 36.3 4.7 C 36 4.4 35.7 4.2 35.3 4.2 C 34.9 4.2 34.5 4.4 34.3 4.7 C 34 5 33.9 5.4 33.9 5.8 C 33.86 5.84 33.9 5.9 33.9 5.9 C 33.9 5.9 33.86 5.86 33.9 5.9 Z M 39.7 2.3 L 39.7 0.8 L 41.4 0.8 L 41.4 2.3 L 39.7 2.3 Z M 39.7 8.8 L 39.7 2.9 L 41.4 2.9 L 41.4 8.8 L 39.7 8.8 Z M 43 8.8 L 43 2.9 L 44.6 2.9 C 44.6 2.9 44.63 4.09 44.6 4.1 C 45 3.2 45.6 2.8 46.5 2.8 C 46.51 2.79 46.5 4.5 46.5 4.5 C 46.5 4.5 46.42 4.54 46.4 4.5 C 45.8 4.5 45.4 4.7 45.1 5.1 C 44.8 5.4 44.6 5.9 44.6 6.6 C 44.63 6.62 44.6 8.8 44.6 8.8 L 43 8.8 Z M 56 9.8 C 55.5 10.3 54.7 10.6 53.5 10.6 C 52.5 10.6 51.7 10.4 50.9 10 C 50.9 10 51.5 8.7 51.5 8.7 C 52.1 9.1 52.8 9.3 53.4 9.3 C 54.6 9.3 55.1 8.7 55.1 7.6 C 55.1 7.6 55.1 7.4 55.1 7.4 C 54.9 7.7 54.6 7.9 54.3 8.1 C 54 8.2 53.6 8.3 53.2 8.3 C 52.5 8.3 51.9 8.1 51.4 7.6 C 50.8 7.1 50.6 6.4 50.6 5.6 C 50.6 5.6 50.6 5.5 50.6 5.5 C 50.6 4.7 50.8 4 51.4 3.5 C 51.9 3 52.5 2.8 53.2 2.8 C 53.9 2.8 54.6 3.1 55.1 3.7 C 55.11 3.67 55.1 2.9 55.1 2.9 L 56.8 2.9 C 56.8 2.9 56.78 7.47 56.8 7.5 C 56.8 8.5 56.5 9.3 56 9.8 C 56 9.8 56 9.8 56 9.8 Z M 52.3 5.6 C 52.3 6 52.4 6.3 52.7 6.6 C 52.9 6.8 53.3 6.9 53.7 6.9 C 54.1 6.9 54.5 6.8 54.7 6.5 C 55 6.3 55.1 6 55.1 5.6 C 55.1 5.6 55.1 5.5 55.1 5.5 C 55.1 5.1 55 4.8 54.7 4.6 C 54.5 4.3 54.1 4.2 53.7 4.2 C 53.3 4.2 52.9 4.3 52.7 4.6 C 52.4 4.8 52.3 5.1 52.3 5.5 C 52.26 5.54 52.3 5.6 52.3 5.6 C 52.3 5.6 52.26 5.57 52.3 5.6 Z M 61.2 8.9 C 60.3 8.9 59.5 8.6 58.9 8.1 C 58.3 7.5 58 6.7 58 5.9 C 58 5.9 58 5.9 58 5.9 C 58 5 58.3 4.3 58.9 3.7 C 59.5 3.1 60.3 2.8 61.2 2.8 C 62.1 2.8 62.8 3.1 63.5 3.7 C 64.1 4.3 64.4 5 64.4 5.8 C 64.4 5.8 64.4 5.9 64.4 5.9 C 64.4 6.7 64.1 7.4 63.5 8 C 62.8 8.6 62.1 8.9 61.2 8.9 Z M 61.2 7.5 C 61.7 7.5 62 7.3 62.3 7 C 62.6 6.7 62.7 6.3 62.7 5.9 C 62.7 5.9 62.7 5.9 62.7 5.9 C 62.7 5.4 62.6 5 62.3 4.7 C 62 4.4 61.6 4.2 61.2 4.2 C 60.7 4.2 60.3 4.4 60.1 4.7 C 59.8 5 59.6 5.4 59.6 5.8 C 59.6 5.8 59.6 5.9 59.6 5.9 C 59.6 6.3 59.8 6.7 60.1 7 C 60.4 7.3 60.7 7.5 61.2 7.5 Z M 61.5 2.3 L 61.5 0.8 L 63.1 0.8 L 63.1 2.3 L 61.5 2.3 Z M 59.2 2.3 L 59.2 0.8 L 60.8 0.8 L 60.8 2.3 L 59.2 2.3 Z M 65.4 8.8 L 65.4 7.6 L 68.4 4.3 L 65.5 4.3 L 65.5 2.9 L 70.5 2.9 L 70.5 4.1 L 67.5 7.4 L 70.5 7.4 L 70.5 8.8 L 65.4 8.8 Z M 78.5 8.2 C 78.1 8.7 77.5 8.9 76.7 8.9 C 76.2 8.9 75.7 8.8 75.3 8.4 C 74.9 8.1 74.7 7.7 74.7 7.1 C 74.7 7.1 74.7 7.1 74.7 7.1 C 74.7 6.5 74.9 6 75.4 5.7 C 75.8 5.4 76.4 5.2 77.1 5.2 C 77.6 5.2 78.1 5.3 78.5 5.4 C 78.5 5.4 78.5 5.3 78.5 5.3 C 78.5 4.6 78.1 4.3 77.3 4.3 C 76.7 4.3 76.2 4.4 75.6 4.6 C 75.6 4.6 75.2 3.3 75.2 3.3 C 76 3 76.7 2.8 77.5 2.8 C 78.4 2.8 79.1 3.1 79.5 3.5 C 79.9 3.9 80.1 4.6 80.1 5.4 C 80.14 5.38 80.1 8.8 80.1 8.8 L 78.5 8.8 L 78.5 8.2 C 78.5 8.2 78.53 8.16 78.5 8.2 Z M 77.3 7.8 C 77.6 7.8 78 7.7 78.2 7.5 C 78.4 7.3 78.6 7 78.6 6.7 C 78.6 6.7 78.6 6.4 78.6 6.4 C 78.2 6.3 77.9 6.2 77.5 6.2 C 77.1 6.2 76.9 6.3 76.6 6.4 C 76.4 6.6 76.3 6.8 76.3 7 C 76.3 7 76.3 7 76.3 7 C 76.3 7.3 76.4 7.4 76.6 7.6 C 76.8 7.7 77 7.8 77.3 7.8 Z M 84.9 8.6 C 84.5 8.8 84.1 8.9 83.6 8.9 C 83 8.9 82.6 8.8 82.3 8.5 C 82 8.2 81.9 7.8 81.9 7.1 C 81.86 7.13 81.9 4.3 81.9 4.3 L 81.2 4.3 L 81.2 2.9 L 81.9 2.9 L 81.9 1.4 L 83.5 1.4 L 83.5 2.9 L 84.9 2.9 L 84.9 4.3 L 83.5 4.3 C 83.5 4.3 83.53 6.85 83.5 6.9 C 83.5 7.2 83.7 7.4 84.1 7.4 C 84.4 7.4 84.6 7.4 84.9 7.2 C 84.9 7.22 84.9 8.6 84.9 8.6 C 84.9 8.6 84.9 8.56 84.9 8.6 Z M 86.2 8.8 L 86.2 2.9 L 87.9 2.9 L 87.9 8.8 L 86.2 8.8 Z M 89.5 8.8 L 89.5 2.9 L 91.1 2.9 C 91.1 2.9 91.14 3.74 91.1 3.7 C 91.6 3.1 92.2 2.8 92.9 2.8 C 93.5 2.8 94 3 94.4 3.4 C 94.7 3.8 94.9 4.3 94.9 5 C 94.87 4.98 94.9 8.8 94.9 8.8 L 93.2 8.8 C 93.2 8.8 93.2 5.51 93.2 5.5 C 93.2 4.7 92.9 4.3 92.2 4.3 C 91.9 4.3 91.6 4.4 91.4 4.6 C 91.2 4.8 91.1 5.1 91.1 5.5 C 91.14 5.51 91.1 8.8 91.1 8.8 L 89.5 8.8 Z M 96.9 6.2 L 96.4 1.3 L 96.4 1.1 L 98.3 1.1 L 98.3 1.3 L 97.8 6.2 L 96.9 6.2 Z M 96.5 8.8 L 96.5 7 L 98.2 7 L 98.2 8.8 L 96.5 8.8 Z " stroke="none" fill="#000"/>  </g></svg>