<?xml version="1.0" standalone="no"?><!DOCTYPE svg PUBLIC "-//W3C//DTD SVG 1.1//EN" "http://www.w3.org/Graphics/SVG/1.1/DTD/svg11.dtd"><svg xmlns="http://www.w3.org/2000/svg" version="1.1" width="141.3px" height="79.4px" viewBox="0 -3 141.3 79.4" style="top:-3px">  <desc>Ume Tuvalet F r as r n Kodu: ZD 34791 Renk: elik Malzeme: SS304 l ler: 43 cm ap: 10 cm Tasar m: Ume</desc>  <defs/>  <g id="Polygon45525">    <path d="M 2 59.6 L 2 55.2 L 0.3 55.2 L 0.3 54.7 L 4.2 54.7 L 4.2 55.2 L 2.5 55.2 L 2.5 59.6 L 2 59.6 Z M 7.5 59.1 C 7.2 59.5 6.7 59.7 6.2 59.7 C 5.8 59.7 5.5 59.6 5.2 59.4 C 5 59.2 4.8 58.9 4.8 58.5 C 4.8 58.5 4.8 58.5 4.8 58.5 C 4.8 58.2 5 57.9 5.2 57.7 C 5.5 57.5 5.9 57.4 6.4 57.4 C 6.7 57.4 7.1 57.4 7.5 57.5 C 7.5 57.5 7.5 57.4 7.5 57.4 C 7.5 57.1 7.4 56.8 7.2 56.7 C 7 56.5 6.7 56.4 6.4 56.4 C 6 56.4 5.7 56.5 5.3 56.7 C 5.3 56.7 5.1 56.2 5.1 56.2 C 5.6 56 6 55.9 6.5 55.9 C 7 55.9 7.4 56.1 7.6 56.3 C 7.9 56.6 8 56.9 8 57.4 C 7.99 57.39 8 59.6 8 59.6 L 7.5 59.6 L 7.5 59.1 C 7.5 59.1 7.48 59.05 7.5 59.1 Z M 6.3 59.2 C 6.6 59.2 6.9 59.2 7.1 59 C 7.4 58.8 7.5 58.6 7.5 58.3 C 7.5 58.3 7.5 57.9 7.5 57.9 C 7.1 57.8 6.8 57.8 6.4 57.8 C 6.1 57.8 5.8 57.8 5.6 58 C 5.5 58.1 5.4 58.3 5.4 58.5 C 5.4 58.5 5.4 58.5 5.4 58.5 C 5.4 58.7 5.5 58.9 5.6 59.1 C 5.8 59.2 6 59.2 6.3 59.2 Z M 10.3 59.7 C 9.8 59.7 9.3 59.5 8.8 59.1 C 8.8 59.1 9.1 58.8 9.1 58.8 C 9.5 59.1 9.9 59.2 10.4 59.2 C 10.6 59.2 10.8 59.2 10.9 59.1 C 11 59 11.1 58.8 11.1 58.6 C 11.1 58.6 11.1 58.6 11.1 58.6 C 11.1 58.5 11 58.3 10.9 58.2 C 10.7 58.2 10.5 58.1 10.2 58 C 10.1 58 10 57.9 9.9 57.9 C 9.9 57.9 9.8 57.8 9.7 57.8 C 9.5 57.8 9.5 57.7 9.4 57.7 C 9.3 57.6 9.3 57.6 9.2 57.5 C 9.1 57.4 9.1 57.4 9.1 57.3 C 9 57.2 9 57.1 9 57 C 9 57 9 57 9 57 C 9 56.6 9.1 56.4 9.4 56.2 C 9.6 56 9.9 55.9 10.2 55.9 C 10.7 55.9 11.1 56.1 11.5 56.3 C 11.5 56.3 11.3 56.7 11.3 56.7 C 10.9 56.5 10.6 56.4 10.2 56.4 C 10 56.4 9.9 56.4 9.7 56.5 C 9.6 56.6 9.5 56.7 9.5 56.9 C 9.5 56.9 9.5 56.9 9.5 56.9 C 9.5 57 9.6 57 9.6 57.1 C 9.6 57.1 9.7 57.2 9.7 57.2 C 9.8 57.3 9.8 57.3 9.9 57.4 C 10 57.4 10.1 57.4 10.2 57.4 C 10.2 57.5 10.3 57.5 10.5 57.5 C 10.6 57.6 10.7 57.6 10.8 57.6 C 10.9 57.7 11 57.7 11.1 57.8 C 11.2 57.8 11.3 57.9 11.4 58 C 11.5 58 11.5 58.1 11.6 58.2 C 11.6 58.3 11.6 58.4 11.6 58.6 C 11.6 58.6 11.6 58.6 11.6 58.6 C 11.6 58.9 11.5 59.2 11.3 59.4 C 11 59.6 10.7 59.7 10.3 59.7 Z M 15 59.1 C 14.7 59.5 14.3 59.7 13.7 59.7 C 13.3 59.7 13 59.6 12.8 59.4 C 12.5 59.2 12.4 58.9 12.4 58.5 C 12.4 58.5 12.4 58.5 12.4 58.5 C 12.4 58.2 12.5 57.9 12.8 57.7 C 13.1 57.5 13.4 57.4 13.9 57.4 C 14.3 57.4 14.6 57.4 15 57.5 C 15 57.5 15 57.4 15 57.4 C 15 57.1 14.9 56.8 14.7 56.7 C 14.5 56.5 14.3 56.4 13.9 56.4 C 13.6 56.4 13.2 56.5 12.8 56.7 C 12.8 56.7 12.7 56.2 12.7 56.2 C 13.1 56 13.5 55.9 14 55.9 C 14.5 55.9 14.9 56.1 15.2 56.3 C 15.4 56.6 15.5 56.9 15.5 57.4 C 15.53 57.39 15.5 59.6 15.5 59.6 L 15 59.6 L 15 59.1 C 15 59.1 15.01 59.05 15 59.1 Z M 13.8 59.2 C 14.2 59.2 14.4 59.2 14.7 59 C 14.9 58.8 15 58.6 15 58.3 C 15 58.3 15 57.9 15 57.9 C 14.7 57.8 14.3 57.8 14 57.8 C 13.6 57.8 13.4 57.8 13.2 58 C 13 58.1 12.9 58.3 12.9 58.5 C 12.9 58.5 12.9 58.5 12.9 58.5 C 12.9 58.7 13 58.9 13.2 59.1 C 13.3 59.2 13.6 59.2 13.8 59.2 Z M 16.7 59.6 L 16.7 56 L 17.2 56 C 17.2 56 17.22 56.93 17.2 56.9 C 17.4 56.6 17.6 56.4 17.8 56.2 C 18.1 56 18.4 55.9 18.7 55.9 C 18.7 55.92 18.7 56.5 18.7 56.5 C 18.7 56.5 18.65 56.5 18.7 56.5 C 18.2 56.5 17.9 56.6 17.6 56.9 C 17.4 57.2 17.2 57.6 17.2 58.2 C 17.22 58.16 17.2 59.6 17.2 59.6 L 16.7 59.6 Z M 19.6 59.6 L 19.6 56 L 20.1 56 L 20.1 59.6 L 19.6 59.6 Z M 21.4 59.6 L 21.4 56 L 21.9 56 C 21.9 56 21.9 56.59 21.9 56.6 C 22 56.4 22.2 56.2 22.4 56.1 C 22.6 56 22.8 55.9 23.1 55.9 C 23.6 55.9 24 56.1 24.2 56.6 C 24.5 56.1 25 55.9 25.5 55.9 C 25.9 55.9 26.2 56 26.5 56.3 C 26.7 56.6 26.8 56.9 26.8 57.4 C 26.84 57.36 26.8 59.6 26.8 59.6 L 26.3 59.6 C 26.3 59.6 26.31 57.49 26.3 57.5 C 26.3 57.1 26.2 56.9 26.1 56.7 C 25.9 56.5 25.7 56.4 25.4 56.4 C 25.1 56.4 24.9 56.5 24.7 56.7 C 24.5 56.9 24.4 57.2 24.4 57.5 C 24.37 57.51 24.4 59.6 24.4 59.6 L 23.8 59.6 C 23.8 59.6 23.83 57.47 23.8 57.5 C 23.8 57.1 23.8 56.9 23.6 56.7 C 23.4 56.5 23.2 56.4 22.9 56.4 C 22.6 56.4 22.4 56.5 22.2 56.7 C 22 56.9 21.9 57.2 21.9 57.5 C 21.9 57.53 21.9 59.6 21.9 59.6 L 21.4 59.6 Z M 28 56.7 L 28 56 L 28.6 56 L 28.6 56.7 L 28 56.7 Z M 28 59.6 L 28 58.9 L 28.6 58.9 L 28.6 59.6 L 28 59.6 Z M 33.9 59.7 C 33.3 59.7 32.8 59.5 32.4 59.1 C 32.1 58.7 31.9 58.2 31.9 57.5 C 31.88 57.55 31.9 54.7 31.9 54.7 L 32.4 54.7 C 32.4 54.7 32.44 57.51 32.4 57.5 C 32.4 58 32.6 58.4 32.8 58.7 C 33.1 59 33.5 59.2 33.9 59.2 C 34.4 59.2 34.8 59 35 58.8 C 35.3 58.5 35.4 58.1 35.4 57.5 C 35.41 57.55 35.4 54.7 35.4 54.7 L 36 54.7 C 36 54.7 35.97 57.51 36 57.5 C 36 58.2 35.8 58.7 35.4 59.1 C 35 59.5 34.6 59.7 33.9 59.7 Z M 37.2 59.6 L 37.2 56 L 37.7 56 C 37.7 56 37.72 56.59 37.7 56.6 C 37.9 56.4 38 56.2 38.2 56.1 C 38.4 56 38.6 55.9 38.9 55.9 C 39.4 55.9 39.8 56.1 40.1 56.6 C 40.4 56.1 40.8 55.9 41.3 55.9 C 41.7 55.9 42.1 56 42.3 56.3 C 42.6 56.6 42.7 56.9 42.7 57.4 C 42.67 57.36 42.7 59.6 42.7 59.6 L 42.1 59.6 C 42.1 59.6 42.13 57.49 42.1 57.5 C 42.1 57.1 42 56.9 41.9 56.7 C 41.7 56.5 41.5 56.4 41.2 56.4 C 40.9 56.4 40.7 56.5 40.5 56.7 C 40.3 56.9 40.2 57.2 40.2 57.5 C 40.19 57.51 40.2 59.6 40.2 59.6 L 39.7 59.6 C 39.7 59.6 39.66 57.47 39.7 57.5 C 39.7 57.1 39.6 56.9 39.4 56.7 C 39.2 56.5 39 56.4 38.7 56.4 C 38.4 56.4 38.2 56.5 38 56.7 C 37.8 56.9 37.7 57.2 37.7 57.5 C 37.72 57.53 37.7 59.6 37.7 59.6 L 37.2 59.6 Z M 46.9 59 C 46.5 59.5 46 59.7 45.4 59.7 C 44.9 59.7 44.5 59.5 44.1 59.2 C 43.8 58.8 43.6 58.4 43.6 57.8 C 43.6 57.8 43.6 57.8 43.6 57.8 C 43.6 57.3 43.8 56.8 44.1 56.4 C 44.4 56.1 44.8 55.9 45.3 55.9 C 45.8 55.9 46.3 56.1 46.6 56.4 C 46.9 56.8 47 57.3 47 57.8 C 47 57.9 47 57.9 47 58 C 47 58 44.1 58 44.1 58 C 44.2 58.4 44.3 58.7 44.6 58.9 C 44.8 59.1 45.1 59.2 45.4 59.2 C 45.8 59.2 46.2 59 46.6 58.7 C 46.56 58.7 46.9 59 46.9 59 C 46.9 59 46.89 59 46.9 59 Z M 44.1 57.6 C 44.1 57.6 46.5 57.6 46.5 57.6 C 46.4 57.2 46.3 56.9 46.1 56.7 C 45.9 56.5 45.7 56.4 45.3 56.4 C 45 56.4 44.7 56.5 44.5 56.7 C 44.3 56.9 44.2 57.2 44.1 57.6 Z " stroke="none" fill="#000"/>  </g>  <g id="Polygon45524">    <path d="M 3.3 45.2 L 3.3 44.6 L 4 44.6 L 4 45.2 L 3.3 45.2 Z M 2 45.2 L 2 44.6 L 2.6 44.6 L 2.6 45.2 L 2 45.2 Z M 5.5 48.1 C 5.5 48.8 5.2 49.4 4.8 49.9 C 4.3 50.4 3.7 50.7 3 50.7 C 2.2 50.7 1.6 50.4 1.2 49.9 C 0.7 49.5 0.5 48.9 0.5 48.2 C 0.5 48.2 0.5 48.1 0.5 48.1 C 0.5 47.5 0.7 46.9 1.2 46.4 C 1.7 45.9 2.3 45.6 3 45.6 C 3.7 45.6 4.3 45.9 4.8 46.4 C 5.2 46.8 5.5 47.4 5.5 48.1 C 5.47 48.14 5.5 48.1 5.5 48.1 C 5.5 48.1 5.47 48.15 5.5 48.1 Z M 1.1 48.1 C 1.1 48.7 1.2 49.2 1.6 49.6 C 2 50 2.4 50.2 3 50.2 C 3.5 50.2 4 50 4.4 49.6 C 4.7 49.2 4.9 48.7 4.9 48.2 C 4.9 48.2 4.9 48.1 4.9 48.1 C 4.9 47.6 4.7 47.1 4.4 46.7 C 4 46.3 3.5 46.1 3 46.1 C 2.4 46.1 2 46.3 1.6 46.7 C 1.2 47.1 1.1 47.6 1.1 48.1 C 1.05 48.14 1.1 48.1 1.1 48.1 C 1.1 48.1 1.05 48.15 1.1 48.1 Z M 6.6 50.6 L 6.6 45.5 L 7.1 45.5 L 7.1 50.6 L 6.6 50.6 Z M 9.7 51.7 L 9.1 51.4 C 9.1 51.4 9.69 50.65 9.7 50.6 C 9.2 50.6 8.9 50.4 8.6 50 C 8.3 49.7 8.2 49.3 8.2 48.8 C 8.2 48.8 8.2 48.8 8.2 48.8 C 8.2 48.3 8.3 47.8 8.7 47.5 C 9.1 47.1 9.5 46.9 10 46.9 C 10.6 46.9 11.1 47.1 11.5 47.5 C 11.5 47.5 11.1 47.9 11.1 47.9 C 10.8 47.6 10.4 47.4 10 47.4 C 9.6 47.4 9.3 47.5 9.1 47.8 C 8.8 48.1 8.7 48.4 8.7 48.8 C 8.7 48.8 8.7 48.8 8.7 48.8 C 8.7 49.2 8.8 49.5 9.1 49.8 C 9.4 50.1 9.7 50.2 10.1 50.2 C 10.5 50.2 10.8 50 11.2 49.7 C 11.2 49.7 11.5 50 11.5 50 C 11.1 50.4 10.7 50.7 10.1 50.7 C 10.13 50.68 9.7 51.7 9.7 51.7 Z M 14.2 46.4 L 14.2 45.8 L 14.8 45.8 L 14.8 46.4 L 14.2 46.4 Z M 13 46.4 L 13 45.8 L 13.6 45.8 L 13.6 46.4 L 13 46.4 Z M 15 50 C 14.7 50.4 14.3 50.7 13.7 50.7 C 13.3 50.7 13 50.5 12.7 50.3 C 12.5 50 12.3 49.7 12.3 49.2 C 12.33 49.23 12.3 47 12.3 47 L 12.9 47 C 12.9 47 12.87 49.09 12.9 49.1 C 12.9 49.4 13 49.7 13.1 49.9 C 13.3 50.1 13.6 50.2 13.9 50.2 C 14.2 50.2 14.4 50.1 14.7 49.9 C 14.9 49.7 15 49.4 15 49.1 C 14.96 49.05 15 47 15 47 L 15.5 47 L 15.5 50.6 L 15 50.6 L 15 50 C 15 50 14.96 49.97 15 50 Z M 16.8 50.6 L 16.8 45.5 L 17.3 45.5 L 17.3 50.6 L 16.8 50.6 Z M 21.6 50 C 21.2 50.5 20.7 50.7 20.1 50.7 C 19.6 50.7 19.2 50.5 18.8 50.2 C 18.5 49.8 18.3 49.4 18.3 48.8 C 18.3 48.8 18.3 48.8 18.3 48.8 C 18.3 48.3 18.5 47.8 18.8 47.4 C 19.1 47.1 19.6 46.9 20.1 46.9 C 20.6 46.9 21 47.1 21.3 47.4 C 21.6 47.8 21.7 48.3 21.7 48.8 C 21.7 48.9 21.7 48.9 21.7 49 C 21.7 49 18.9 49 18.9 49 C 18.9 49.4 19 49.7 19.3 49.9 C 19.5 50.1 19.8 50.2 20.1 50.2 C 20.6 50.2 20.9 50 21.3 49.7 C 21.28 49.7 21.6 50 21.6 50 C 21.6 50 21.62 50 21.6 50 Z M 18.9 48.6 C 18.9 48.6 21.2 48.6 21.2 48.6 C 21.2 48.2 21.1 47.9 20.9 47.7 C 20.7 47.5 20.4 47.4 20 47.4 C 19.7 47.4 19.5 47.5 19.2 47.7 C 19 47.9 18.9 48.2 18.9 48.6 Z M 22.7 50.6 L 22.7 47 L 23.2 47 C 23.2 47 23.23 47.93 23.2 47.9 C 23.4 47.6 23.6 47.4 23.8 47.2 C 24.1 47 24.4 46.9 24.7 46.9 C 24.7 46.92 24.7 47.5 24.7 47.5 C 24.7 47.5 24.66 47.5 24.7 47.5 C 24.2 47.5 23.9 47.6 23.6 47.9 C 23.4 48.2 23.2 48.6 23.2 49.2 C 23.23 49.16 23.2 50.6 23.2 50.6 L 22.7 50.6 Z M 25.5 47.7 L 25.5 47 L 26.1 47 L 26.1 47.7 L 25.5 47.7 Z M 25.5 50.6 L 25.5 49.9 L 26.1 49.9 L 26.1 50.6 L 25.5 50.6 Z M 31.8 50.6 L 31.8 49.4 L 29.2 49.4 L 29.1 49 L 31.9 45.7 L 32.4 45.7 L 32.4 49 L 33.1 49 L 33.1 49.4 L 32.4 49.4 L 32.4 50.6 L 31.8 50.6 Z M 29.8 49 L 31.8 49 L 31.8 46.4 L 29.8 49 Z M 35.7 50.7 C 34.9 50.7 34.3 50.4 33.8 49.8 C 33.8 49.8 34.2 49.5 34.2 49.5 C 34.6 49.9 35.1 50.2 35.7 50.2 C 36 50.2 36.2 50.1 36.4 49.9 C 36.6 49.7 36.7 49.5 36.7 49.2 C 36.7 49.2 36.7 49.2 36.7 49.2 C 36.7 48.9 36.6 48.7 36.4 48.5 C 36.1 48.4 35.8 48.3 35.4 48.3 C 35.38 48.27 35.1 48.3 35.1 48.3 L 35 47.9 L 36.5 46.2 L 34.1 46.2 L 34.1 45.7 L 37.2 45.7 L 37.2 46.1 C 37.2 46.1 35.69 47.81 35.7 47.8 C 36.2 47.9 36.6 48 36.9 48.2 C 37.2 48.4 37.3 48.8 37.3 49.2 C 37.3 49.2 37.3 49.2 37.3 49.2 C 37.3 49.6 37.2 50 36.8 50.3 C 36.5 50.5 36.1 50.7 35.7 50.7 Z M 43.6 50 C 43.2 50.5 42.7 50.7 42.1 50.7 C 41.6 50.7 41.1 50.5 40.8 50.1 C 40.4 49.8 40.3 49.3 40.3 48.8 C 40.3 48.8 40.3 48.8 40.3 48.8 C 40.3 48.3 40.4 47.8 40.8 47.5 C 41.1 47.1 41.6 46.9 42.1 46.9 C 42.7 46.9 43.2 47.1 43.6 47.5 C 43.6 47.5 43.2 47.9 43.2 47.9 C 42.9 47.6 42.5 47.4 42.1 47.4 C 41.7 47.4 41.4 47.5 41.2 47.8 C 40.9 48.1 40.8 48.4 40.8 48.8 C 40.8 48.8 40.8 48.8 40.8 48.8 C 40.8 49.2 40.9 49.5 41.2 49.8 C 41.5 50.1 41.8 50.2 42.1 50.2 C 42.5 50.2 42.9 50 43.3 49.7 C 43.25 49.66 43.6 50 43.6 50 C 43.6 50 43.6 49.98 43.6 50 Z M 44.5 50.6 L 44.5 47 L 45 47 C 45 47 45.02 47.59 45 47.6 C 45.2 47.4 45.3 47.2 45.5 47.1 C 45.7 47 45.9 46.9 46.2 46.9 C 46.7 46.9 47.1 47.1 47.4 47.6 C 47.7 47.1 48.1 46.9 48.6 46.9 C 49 46.9 49.4 47 49.6 47.3 C 49.9 47.6 50 47.9 50 48.4 C 49.97 48.36 50 50.6 50 50.6 L 49.4 50.6 C 49.4 50.6 49.43 48.49 49.4 48.5 C 49.4 48.1 49.4 47.9 49.2 47.7 C 49 47.5 48.8 47.4 48.5 47.4 C 48.2 47.4 48 47.5 47.8 47.7 C 47.6 47.9 47.5 48.2 47.5 48.5 C 47.49 48.51 47.5 50.6 47.5 50.6 L 47 50.6 C 47 50.6 46.96 48.47 47 48.5 C 47 48.1 46.9 47.9 46.7 47.7 C 46.5 47.5 46.3 47.4 46 47.4 C 45.7 47.4 45.5 47.5 45.3 47.7 C 45.1 47.9 45 48.2 45 48.5 C 45.02 48.53 45 50.6 45 50.6 L 44.5 50.6 Z M 53.1 48.8 L 53.1 48.2 L 55 48.2 L 55 48.8 L 53.1 48.8 Z M 60.2 51.7 L 59.6 51.4 C 59.6 51.4 60.17 50.66 60.2 50.7 C 59.6 50.6 59 50.3 58.6 49.8 C 58.2 49.4 58.1 48.8 58.1 48.2 C 58.1 48.2 58.1 48.1 58.1 48.1 C 58.1 47.4 58.3 46.8 58.8 46.4 C 59.2 45.9 59.8 45.6 60.5 45.6 C 60.9 45.6 61.3 45.7 61.6 45.8 C 61.9 45.9 62.2 46.1 62.4 46.4 C 62.4 46.4 62.1 46.8 62.1 46.8 C 61.8 46.6 61.6 46.4 61.4 46.3 C 61.1 46.2 60.8 46.1 60.5 46.1 C 60 46.1 59.5 46.3 59.2 46.7 C 58.8 47.1 58.6 47.6 58.6 48.1 C 58.6 48.1 58.6 48.1 58.6 48.1 C 58.6 48.7 58.8 49.2 59.2 49.6 C 59.5 50 60 50.2 60.5 50.2 C 60.8 50.2 61.1 50.1 61.4 50 C 61.6 49.9 61.9 49.7 62.1 49.5 C 62.1 49.5 62.5 49.8 62.5 49.8 C 61.9 50.4 61.3 50.7 60.6 50.7 C 60.62 50.68 60.2 51.7 60.2 51.7 Z M 65.8 50.1 C 65.4 50.5 65 50.7 64.4 50.7 C 64.1 50.7 63.8 50.6 63.5 50.4 C 63.2 50.2 63.1 49.9 63.1 49.5 C 63.1 49.5 63.1 49.5 63.1 49.5 C 63.1 49.2 63.2 48.9 63.5 48.7 C 63.8 48.5 64.2 48.4 64.6 48.4 C 65 48.4 65.4 48.4 65.8 48.5 C 65.8 48.5 65.8 48.4 65.8 48.4 C 65.8 48.1 65.7 47.8 65.5 47.7 C 65.3 47.5 65 47.4 64.7 47.4 C 64.3 47.4 63.9 47.5 63.6 47.7 C 63.6 47.7 63.4 47.2 63.4 47.2 C 63.8 47 64.3 46.9 64.7 46.9 C 65.2 46.9 65.6 47.1 65.9 47.3 C 66.2 47.6 66.3 47.9 66.3 48.4 C 66.28 48.39 66.3 50.6 66.3 50.6 L 65.8 50.6 L 65.8 50.1 C 65.8 50.1 65.76 50.05 65.8 50.1 Z M 64.6 50.2 C 64.9 50.2 65.2 50.2 65.4 50 C 65.6 49.8 65.8 49.6 65.8 49.3 C 65.8 49.3 65.8 48.9 65.8 48.9 C 65.4 48.8 65 48.8 64.7 48.8 C 64.4 48.8 64.1 48.8 63.9 49 C 63.7 49.1 63.6 49.3 63.6 49.5 C 63.6 49.5 63.6 49.5 63.6 49.5 C 63.6 49.7 63.7 49.9 63.9 50.1 C 64.1 50.2 64.3 50.2 64.6 50.2 Z M 67.4 51.7 L 67.4 47 L 68 47 C 68 47 67.96 47.71 68 47.7 C 68.3 47.2 68.8 46.9 69.3 46.9 C 69.8 46.9 70.2 47.1 70.6 47.4 C 70.9 47.8 71.1 48.2 71.1 48.8 C 71.1 48.8 71.1 48.8 71.1 48.8 C 71.1 49.4 70.9 49.8 70.6 50.2 C 70.2 50.5 69.8 50.7 69.3 50.7 C 68.8 50.7 68.3 50.4 68 49.9 C 67.96 49.91 68 51.7 68 51.7 L 67.4 51.7 Z M 69.2 50.2 C 69.6 50.2 69.9 50.1 70.2 49.8 C 70.4 49.6 70.5 49.2 70.5 48.8 C 70.5 48.8 70.5 48.8 70.5 48.8 C 70.5 48.4 70.4 48 70.2 47.8 C 69.9 47.5 69.6 47.4 69.2 47.4 C 68.9 47.4 68.6 47.5 68.3 47.8 C 68.1 48.1 67.9 48.4 67.9 48.8 C 67.9 48.8 67.9 48.8 67.9 48.8 C 67.9 49.2 68.1 49.5 68.3 49.8 C 68.6 50.1 68.9 50.2 69.2 50.2 Z M 72 47.7 L 72 47 L 72.7 47 L 72.7 47.7 L 72 47.7 Z M 72 50.6 L 72 49.9 L 72.7 49.9 L 72.7 50.6 L 72 50.6 Z M 76.6 50.6 L 76.6 46.2 L 75.7 46.5 L 75.5 46.1 L 76.7 45.7 L 77.1 45.7 L 77.1 50.6 L 76.6 50.6 Z M 82.4 48.1 C 82.4 48.9 82.2 49.5 81.8 49.9 C 81.5 50.4 81 50.7 80.4 50.7 C 79.7 50.7 79.2 50.4 78.9 50 C 78.5 49.5 78.3 48.9 78.3 48.2 C 78.3 48.2 78.3 48.1 78.3 48.1 C 78.3 47.4 78.5 46.8 78.9 46.4 C 79.2 45.9 79.7 45.6 80.4 45.6 C 81 45.6 81.5 45.9 81.9 46.3 C 82.2 46.8 82.4 47.4 82.4 48.1 C 82.42 48.14 82.4 48.1 82.4 48.1 C 82.4 48.1 82.42 48.15 82.4 48.1 Z M 78.9 48.1 C 78.9 48.7 79 49.2 79.3 49.6 C 79.6 50 79.9 50.2 80.4 50.2 C 80.8 50.2 81.2 50 81.4 49.6 C 81.7 49.2 81.8 48.7 81.8 48.2 C 81.8 48.2 81.8 48.1 81.8 48.1 C 81.8 47.6 81.7 47.1 81.4 46.7 C 81.2 46.3 80.8 46.1 80.4 46.1 C 79.9 46.1 79.5 46.3 79.3 46.7 C 79 47.1 78.9 47.6 78.9 48.1 C 78.86 48.14 78.9 48.1 78.9 48.1 C 78.9 48.1 78.86 48.15 78.9 48.1 Z M 88.7 50 C 88.3 50.5 87.8 50.7 87.2 50.7 C 86.7 50.7 86.2 50.5 85.9 50.1 C 85.5 49.8 85.3 49.3 85.3 48.8 C 85.3 48.8 85.3 48.8 85.3 48.8 C 85.3 48.3 85.5 47.8 85.9 47.5 C 86.2 47.1 86.7 46.9 87.2 46.9 C 87.8 46.9 88.2 47.1 88.6 47.5 C 88.6 47.5 88.3 47.9 88.3 47.9 C 87.9 47.6 87.6 47.4 87.2 47.4 C 86.8 47.4 86.5 47.5 86.3 47.8 C 86 48.1 85.9 48.4 85.9 48.8 C 85.9 48.8 85.9 48.8 85.9 48.8 C 85.9 49.2 86 49.5 86.3 49.8 C 86.5 50.1 86.8 50.2 87.2 50.2 C 87.6 50.2 88 50 88.3 49.7 C 88.32 49.66 88.7 50 88.7 50 C 88.7 50 88.67 49.98 88.7 50 Z M 89.6 50.6 L 89.6 47 L 90.1 47 C 90.1 47 90.1 47.59 90.1 47.6 C 90.2 47.4 90.4 47.2 90.6 47.1 C 90.8 47 91 46.9 91.3 46.9 C 91.8 46.9 92.2 47.1 92.4 47.6 C 92.7 47.1 93.2 46.9 93.7 46.9 C 94.1 46.9 94.4 47 94.7 47.3 C 94.9 47.6 95 47.9 95 48.4 C 95.04 48.36 95 50.6 95 50.6 L 94.5 50.6 C 94.5 50.6 94.51 48.49 94.5 48.5 C 94.5 48.1 94.4 47.9 94.3 47.7 C 94.1 47.5 93.9 47.4 93.6 47.4 C 93.3 47.4 93.1 47.5 92.9 47.7 C 92.7 47.9 92.6 48.2 92.6 48.5 C 92.57 48.51 92.6 50.6 92.6 50.6 L 92 50.6 C 92 50.6 92.03 48.47 92 48.5 C 92 48.1 92 47.9 91.8 47.7 C 91.6 47.5 91.4 47.4 91.1 47.4 C 90.8 47.4 90.6 47.5 90.4 47.7 C 90.2 47.9 90.1 48.2 90.1 48.5 C 90.1 48.53 90.1 50.6 90.1 50.6 L 89.6 50.6 Z " stroke="none" fill="#000"/>  </g>  <g id="Polygon45523">    <path d="M 0.7 41.6 L 0.7 36.7 L 1.3 36.7 L 3 39.4 L 4.8 36.7 L 5.4 36.7 L 5.4 41.6 L 4.8 41.6 L 4.8 37.6 L 3 40.3 L 3 40.3 L 1.2 37.6 L 1.2 41.6 L 0.7 41.6 Z M 9.1 41.1 C 8.7 41.5 8.3 41.7 7.8 41.7 C 7.4 41.7 7.1 41.6 6.8 41.4 C 6.5 41.2 6.4 40.9 6.4 40.5 C 6.4 40.5 6.4 40.5 6.4 40.5 C 6.4 40.2 6.5 39.9 6.8 39.7 C 7.1 39.5 7.5 39.4 8 39.4 C 8.3 39.4 8.7 39.4 9.1 39.5 C 9.1 39.5 9.1 39.4 9.1 39.4 C 9.1 39.1 9 38.8 8.8 38.7 C 8.6 38.5 8.3 38.4 8 38.4 C 7.6 38.4 7.3 38.5 6.9 38.7 C 6.9 38.7 6.7 38.2 6.7 38.2 C 7.2 38 7.6 37.9 8 37.9 C 8.6 37.9 8.9 38.1 9.2 38.3 C 9.5 38.6 9.6 38.9 9.6 39.4 C 9.58 39.39 9.6 41.6 9.6 41.6 L 9.1 41.6 L 9.1 41.1 C 9.1 41.1 9.06 41.05 9.1 41.1 Z M 7.9 41.2 C 8.2 41.2 8.5 41.2 8.7 41 C 9 40.8 9.1 40.6 9.1 40.3 C 9.1 40.3 9.1 39.9 9.1 39.9 C 8.7 39.8 8.4 39.8 8 39.8 C 7.7 39.8 7.4 39.8 7.2 40 C 7 40.1 7 40.3 7 40.5 C 7 40.5 7 40.5 7 40.5 C 7 40.7 7 40.9 7.2 41.1 C 7.4 41.2 7.6 41.2 7.9 41.2 Z M 10.8 41.6 L 10.8 36.5 L 11.3 36.5 L 11.3 41.6 L 10.8 41.6 Z M 12.4 41.6 L 12.4 41.3 L 14.8 38.4 L 12.4 38.4 L 12.4 38 L 15.5 38 L 15.5 38.3 L 13.1 41.1 L 15.5 41.1 L 15.5 41.6 L 12.4 41.6 Z M 19.5 41 C 19.1 41.5 18.6 41.7 18 41.7 C 17.5 41.7 17.1 41.5 16.8 41.2 C 16.4 40.8 16.2 40.4 16.2 39.8 C 16.2 39.8 16.2 39.8 16.2 39.8 C 16.2 39.3 16.4 38.8 16.7 38.4 C 17.1 38.1 17.5 37.9 18 37.9 C 18.5 37.9 18.9 38.1 19.2 38.4 C 19.5 38.8 19.7 39.3 19.7 39.8 C 19.7 39.9 19.7 39.9 19.7 40 C 19.7 40 16.8 40 16.8 40 C 16.8 40.4 17 40.7 17.2 40.9 C 17.4 41.1 17.7 41.2 18.1 41.2 C 18.5 41.2 18.9 41 19.2 40.7 C 19.2 40.7 19.5 41 19.5 41 C 19.5 41 19.54 41 19.5 41 Z M 16.8 39.6 C 16.8 39.6 19.1 39.6 19.1 39.6 C 19.1 39.2 19 38.9 18.8 38.7 C 18.6 38.5 18.3 38.4 18 38.4 C 17.6 38.4 17.4 38.5 17.2 38.7 C 17 38.9 16.8 39.2 16.8 39.6 Z M 20.6 41.6 L 20.6 38 L 21.1 38 C 21.1 38 21.15 38.59 21.1 38.6 C 21.3 38.4 21.5 38.2 21.6 38.1 C 21.8 38 22 37.9 22.3 37.9 C 22.9 37.9 23.2 38.1 23.5 38.6 C 23.8 38.1 24.2 37.9 24.8 37.9 C 25.2 37.9 25.5 38 25.7 38.3 C 26 38.6 26.1 38.9 26.1 39.4 C 26.1 39.36 26.1 41.6 26.1 41.6 L 25.6 41.6 C 25.6 41.6 25.56 39.49 25.6 39.5 C 25.6 39.1 25.5 38.9 25.3 38.7 C 25.1 38.5 24.9 38.4 24.6 38.4 C 24.3 38.4 24.1 38.5 23.9 38.7 C 23.7 38.9 23.6 39.2 23.6 39.5 C 23.62 39.51 23.6 41.6 23.6 41.6 L 23.1 41.6 C 23.1 41.6 23.09 39.47 23.1 39.5 C 23.1 39.1 23 38.9 22.8 38.7 C 22.7 38.5 22.4 38.4 22.2 38.4 C 21.9 38.4 21.6 38.5 21.4 38.7 C 21.2 38.9 21.1 39.2 21.1 39.5 C 21.15 39.53 21.1 41.6 21.1 41.6 L 20.6 41.6 Z M 30.3 41 C 29.9 41.5 29.4 41.7 28.8 41.7 C 28.3 41.7 27.9 41.5 27.5 41.2 C 27.2 40.8 27 40.4 27 39.8 C 27 39.8 27 39.8 27 39.8 C 27 39.3 27.2 38.8 27.5 38.4 C 27.8 38.1 28.3 37.9 28.8 37.9 C 29.3 37.9 29.7 38.1 30 38.4 C 30.3 38.8 30.4 39.3 30.4 39.8 C 30.4 39.9 30.4 39.9 30.4 40 C 30.4 40 27.6 40 27.6 40 C 27.6 40.4 27.7 40.7 28 40.9 C 28.2 41.1 28.5 41.2 28.8 41.2 C 29.3 41.2 29.6 41 30 40.7 C 29.98 40.7 30.3 41 30.3 41 C 30.3 41 30.32 41 30.3 41 Z M 27.6 39.6 C 27.6 39.6 29.9 39.6 29.9 39.6 C 29.9 39.2 29.8 38.9 29.6 38.7 C 29.4 38.5 29.1 38.4 28.7 38.4 C 28.4 38.4 28.2 38.5 27.9 38.7 C 27.7 38.9 27.6 39.2 27.6 39.6 Z M 31.4 38.7 L 31.4 38 L 32 38 L 32 38.7 L 31.4 38.7 Z M 31.4 41.6 L 31.4 40.9 L 32 40.9 L 32 41.6 L 31.4 41.6 Z M 37 41.7 C 36.3 41.7 35.6 41.4 35 40.9 C 35 40.9 35.4 40.5 35.4 40.5 C 35.6 40.7 35.9 40.9 36.2 41 C 36.4 41.1 36.7 41.2 37.1 41.2 C 37.4 41.2 37.6 41.1 37.8 40.9 C 38 40.8 38.1 40.6 38.1 40.3 C 38.1 40.3 38.1 40.3 38.1 40.3 C 38.1 40.1 38.1 39.9 37.9 39.8 C 37.7 39.6 37.4 39.5 36.9 39.4 C 36.3 39.3 35.9 39.1 35.6 38.9 C 35.4 38.7 35.2 38.4 35.2 38 C 35.2 38 35.2 38 35.2 38 C 35.2 37.6 35.4 37.3 35.7 37 C 36 36.8 36.4 36.6 36.8 36.6 C 37.2 36.6 37.5 36.7 37.8 36.8 C 38 36.9 38.3 37 38.6 37.2 C 38.6 37.2 38.2 37.7 38.2 37.7 C 37.8 37.3 37.3 37.1 36.8 37.1 C 36.5 37.1 36.3 37.2 36.1 37.4 C 35.9 37.5 35.8 37.7 35.8 37.9 C 35.8 37.9 35.8 37.9 35.8 37.9 C 35.8 38.2 35.9 38.4 36.1 38.5 C 36.2 38.7 36.6 38.8 37.1 38.9 C 37.7 39 38.1 39.2 38.3 39.4 C 38.6 39.6 38.7 39.9 38.7 40.3 C 38.7 40.3 38.7 40.3 38.7 40.3 C 38.7 40.7 38.6 41 38.2 41.3 C 37.9 41.5 37.5 41.7 37 41.7 Z M 41.5 41.7 C 40.8 41.7 40.1 41.4 39.5 40.9 C 39.5 40.9 39.9 40.5 39.9 40.5 C 40.1 40.7 40.4 40.9 40.6 41 C 40.9 41.1 41.2 41.2 41.5 41.2 C 41.9 41.2 42.1 41.1 42.3 40.9 C 42.5 40.8 42.6 40.6 42.6 40.3 C 42.6 40.3 42.6 40.3 42.6 40.3 C 42.6 40.1 42.5 39.9 42.4 39.8 C 42.2 39.6 41.9 39.5 41.4 39.4 C 40.8 39.3 40.4 39.1 40.1 38.9 C 39.8 38.7 39.7 38.4 39.7 38 C 39.7 38 39.7 38 39.7 38 C 39.7 37.6 39.9 37.3 40.2 37 C 40.5 36.8 40.9 36.6 41.3 36.6 C 41.7 36.6 42 36.7 42.2 36.8 C 42.5 36.9 42.8 37 43 37.2 C 43 37.2 42.7 37.7 42.7 37.7 C 42.3 37.3 41.8 37.1 41.3 37.1 C 41 37.1 40.7 37.2 40.5 37.4 C 40.4 37.5 40.3 37.7 40.3 37.9 C 40.3 37.9 40.3 37.9 40.3 37.9 C 40.3 38.2 40.4 38.4 40.5 38.5 C 40.7 38.7 41.1 38.8 41.6 38.9 C 42.1 39 42.6 39.2 42.8 39.4 C 43.1 39.6 43.2 39.9 43.2 40.3 C 43.2 40.3 43.2 40.3 43.2 40.3 C 43.2 40.7 43 41 42.7 41.3 C 42.4 41.5 42 41.7 41.5 41.7 Z M 45.8 41.7 C 45 41.7 44.4 41.4 44 40.8 C 44 40.8 44.4 40.5 44.4 40.5 C 44.8 40.9 45.2 41.2 45.8 41.2 C 46.1 41.2 46.4 41.1 46.6 40.9 C 46.8 40.7 46.9 40.5 46.9 40.2 C 46.9 40.2 46.9 40.2 46.9 40.2 C 46.9 39.9 46.8 39.7 46.5 39.5 C 46.2 39.4 45.9 39.3 45.5 39.3 C 45.51 39.27 45.2 39.3 45.2 39.3 L 45.1 38.9 L 46.6 37.2 L 44.2 37.2 L 44.2 36.7 L 47.4 36.7 L 47.4 37.1 C 47.4 37.1 45.82 38.81 45.8 38.8 C 46.3 38.9 46.7 39 47 39.2 C 47.3 39.4 47.4 39.8 47.4 40.2 C 47.4 40.2 47.4 40.2 47.4 40.2 C 47.4 40.6 47.3 41 47 41.3 C 46.7 41.5 46.3 41.7 45.8 41.7 Z M 52.5 39.1 C 52.5 39.9 52.3 40.5 51.9 40.9 C 51.5 41.4 51 41.7 50.4 41.7 C 49.8 41.7 49.3 41.4 48.9 41 C 48.5 40.5 48.3 39.9 48.3 39.2 C 48.3 39.2 48.3 39.1 48.3 39.1 C 48.3 38.4 48.5 37.8 48.9 37.4 C 49.3 36.9 49.8 36.6 50.4 36.6 C 51 36.6 51.5 36.9 51.9 37.3 C 52.3 37.8 52.5 38.4 52.5 39.1 C 52.49 39.14 52.5 39.1 52.5 39.1 C 52.5 39.1 52.49 39.15 52.5 39.1 Z M 48.9 39.1 C 48.9 39.7 49.1 40.2 49.3 40.6 C 49.6 41 50 41.2 50.4 41.2 C 50.9 41.2 51.2 41 51.5 40.6 C 51.8 40.2 51.9 39.7 51.9 39.2 C 51.9 39.2 51.9 39.1 51.9 39.1 C 51.9 38.6 51.8 38.1 51.5 37.7 C 51.2 37.3 50.9 37.1 50.4 37.1 C 50 37.1 49.6 37.3 49.3 37.7 C 49.1 38.1 48.9 38.6 48.9 39.1 C 48.92 39.14 48.9 39.1 48.9 39.1 C 48.9 39.1 48.92 39.15 48.9 39.1 Z M 55.9 41.6 L 55.9 40.4 L 53.4 40.4 L 53.2 40 L 56 36.7 L 56.5 36.7 L 56.5 40 L 57.2 40 L 57.2 40.4 L 56.5 40.4 L 56.5 41.6 L 55.9 41.6 Z M 53.9 40 L 55.9 40 L 55.9 37.4 L 53.9 40 Z " stroke="none" fill="#000"/>  </g>  <g id="Polygon45522">    <path d="M 0.7 23.6 L 0.7 18.7 C 0.7 18.7 2.8 18.7 2.8 18.7 C 3.4 18.7 3.9 18.9 4.2 19.2 C 4.4 19.4 4.6 19.8 4.6 20.2 C 4.6 20.2 4.6 20.2 4.6 20.2 C 4.6 20.6 4.4 20.9 4.2 21.1 C 4 21.4 3.6 21.5 3.2 21.6 C 3.24 21.6 4.7 23.6 4.7 23.6 L 4.1 23.6 L 2.6 21.7 L 1.2 21.7 L 1.2 23.6 L 0.7 23.6 Z M 1.2 21.2 C 1.2 21.2 2.75 21.2 2.8 21.2 C 3.1 21.2 3.4 21.1 3.7 20.9 C 3.9 20.7 4 20.5 4 20.2 C 4 20.2 4 20.2 4 20.2 C 4 19.9 3.9 19.6 3.7 19.5 C 3.5 19.3 3.2 19.2 2.8 19.2 C 2.76 19.21 1.2 19.2 1.2 19.2 L 1.2 21.2 Z M 8.7 23 C 8.3 23.5 7.8 23.7 7.2 23.7 C 6.7 23.7 6.3 23.5 6 23.2 C 5.6 22.8 5.4 22.4 5.4 21.8 C 5.4 21.8 5.4 21.8 5.4 21.8 C 5.4 21.3 5.6 20.8 5.9 20.4 C 6.3 20.1 6.7 19.9 7.2 19.9 C 7.7 19.9 8.1 20.1 8.4 20.4 C 8.7 20.8 8.9 21.3 8.9 21.8 C 8.9 21.9 8.9 21.9 8.9 22 C 8.9 22 6 22 6 22 C 6 22.4 6.2 22.7 6.4 22.9 C 6.6 23.1 6.9 23.2 7.3 23.2 C 7.7 23.2 8.1 23 8.4 22.7 C 8.4 22.7 8.7 23 8.7 23 C 8.7 23 8.74 23 8.7 23 Z M 6 21.6 C 6 21.6 8.3 21.6 8.3 21.6 C 8.3 21.2 8.2 20.9 8 20.7 C 7.8 20.5 7.5 20.4 7.2 20.4 C 6.8 20.4 6.6 20.5 6.4 20.7 C 6.1 20.9 6 21.2 6 21.6 Z M 9.8 23.6 L 9.8 20 L 10.3 20 C 10.3 20 10.35 20.61 10.3 20.6 C 10.6 20.1 11.1 19.9 11.6 19.9 C 12 19.9 12.4 20 12.6 20.3 C 12.8 20.6 13 20.9 13 21.4 C 12.97 21.35 13 23.6 13 23.6 L 12.4 23.6 C 12.4 23.6 12.43 21.49 12.4 21.5 C 12.4 21.1 12.3 20.9 12.2 20.7 C 12 20.5 11.7 20.4 11.4 20.4 C 11.1 20.4 10.9 20.5 10.7 20.7 C 10.4 20.9 10.3 21.2 10.3 21.5 C 10.35 21.53 10.3 23.6 10.3 23.6 L 9.8 23.6 Z M 14.1 23.6 L 14.1 18.5 L 14.7 18.5 L 14.7 22 L 16.6 20 L 17.3 20 L 15.8 21.5 L 17.3 23.6 L 16.7 23.6 L 15.4 21.9 L 14.7 22.7 L 14.7 23.6 L 14.1 23.6 Z M 18.1 20.7 L 18.1 20 L 18.7 20 L 18.7 20.7 L 18.1 20.7 Z M 18.1 23.6 L 18.1 22.9 L 18.7 22.9 L 18.7 23.6 L 18.1 23.6 Z M 24 24.7 L 23.4 24.4 C 23.4 24.4 23.97 23.66 24 23.7 C 23.4 23.6 22.8 23.3 22.4 22.8 C 22.1 22.4 21.9 21.8 21.9 21.2 C 21.9 21.2 21.9 21.1 21.9 21.1 C 21.9 20.4 22.1 19.8 22.6 19.4 C 23 18.9 23.6 18.6 24.3 18.6 C 24.8 18.6 25.1 18.7 25.4 18.8 C 25.7 18.9 26 19.1 26.2 19.4 C 26.2 19.4 25.9 19.8 25.9 19.8 C 25.6 19.6 25.4 19.4 25.2 19.3 C 24.9 19.2 24.6 19.1 24.3 19.1 C 23.8 19.1 23.3 19.3 23 19.7 C 22.6 20.1 22.4 20.6 22.4 21.1 C 22.4 21.1 22.4 21.1 22.4 21.1 C 22.4 21.7 22.6 22.2 23 22.6 C 23.3 23 23.8 23.2 24.3 23.2 C 24.6 23.2 24.9 23.1 25.2 23 C 25.4 22.9 25.7 22.7 25.9 22.5 C 25.9 22.5 26.3 22.8 26.3 22.8 C 25.7 23.4 25.1 23.7 24.4 23.7 C 24.42 23.68 24 24.7 24 24.7 Z M 30.2 23 C 29.8 23.5 29.4 23.7 28.8 23.7 C 28.3 23.7 27.8 23.5 27.5 23.2 C 27.1 22.8 26.9 22.4 26.9 21.8 C 26.9 21.8 26.9 21.8 26.9 21.8 C 26.9 21.3 27.1 20.8 27.4 20.4 C 27.8 20.1 28.2 19.9 28.7 19.9 C 29.2 19.9 29.6 20.1 29.9 20.4 C 30.2 20.8 30.4 21.3 30.4 21.8 C 30.4 21.9 30.4 21.9 30.4 22 C 30.4 22 27.5 22 27.5 22 C 27.5 22.4 27.7 22.7 27.9 22.9 C 28.2 23.1 28.4 23.2 28.8 23.2 C 29.2 23.2 29.6 23 29.9 22.7 C 29.91 22.7 30.2 23 30.2 23 C 30.2 23 30.25 23 30.2 23 Z M 27.5 21.6 C 27.5 21.6 29.8 21.6 29.8 21.6 C 29.8 21.2 29.7 20.9 29.5 20.7 C 29.3 20.5 29 20.4 28.7 20.4 C 28.4 20.4 28.1 20.5 27.9 20.7 C 27.7 20.9 27.5 21.2 27.5 21.6 Z M 31.4 23.6 L 31.4 18.5 L 31.9 18.5 L 31.9 23.6 L 31.4 23.6 Z M 33.2 19.2 L 33.2 18.6 L 33.8 18.6 L 33.8 19.2 L 33.2 19.2 Z M 33.2 23.6 L 33.2 20 L 33.7 20 L 33.7 23.6 L 33.2 23.6 Z M 35 23.6 L 35 18.5 L 35.5 18.5 L 35.5 22 L 37.5 20 L 38.2 20 L 36.6 21.5 L 38.2 23.6 L 37.6 23.6 L 36.3 21.9 L 35.5 22.7 L 35.5 23.6 L 35 23.6 Z " stroke="none" fill="#000"/>  </g>  <g id="Polygon45521">    <path d="M 3 9.3 L 3 8.6 L 3.6 8.6 L 3.6 9.3 L 3 9.3 Z M 1.7 9.3 L 1.7 8.6 L 2.3 8.6 L 2.3 9.3 L 1.7 9.3 Z M 2.7 14.7 C 2 14.7 1.5 14.5 1.2 14.1 C 0.8 13.7 0.6 13.2 0.6 12.5 C 0.62 12.55 0.6 9.7 0.6 9.7 L 1.2 9.7 C 1.2 9.7 1.17 12.51 1.2 12.5 C 1.2 13 1.3 13.4 1.6 13.7 C 1.8 14 2.2 14.2 2.7 14.2 C 3.1 14.2 3.5 14 3.8 13.8 C 4 13.5 4.1 13.1 4.1 12.5 C 4.14 12.55 4.1 9.7 4.1 9.7 L 4.7 9.7 C 4.7 9.7 4.7 12.51 4.7 12.5 C 4.7 13.2 4.5 13.7 4.1 14.1 C 3.8 14.5 3.3 14.7 2.7 14.7 Z M 5.9 14.6 L 5.9 11 L 6.5 11 C 6.5 11 6.45 11.93 6.5 11.9 C 6.6 11.6 6.8 11.4 7 11.2 C 7.3 11 7.6 10.9 7.9 10.9 C 7.93 10.92 7.9 11.5 7.9 11.5 C 7.9 11.5 7.89 11.5 7.9 11.5 C 7.5 11.5 7.1 11.6 6.9 11.9 C 6.6 12.2 6.5 12.6 6.5 13.2 C 6.45 13.16 6.5 14.6 6.5 14.6 L 5.9 14.6 Z M 10.6 10.4 L 10.6 9.8 L 11.2 9.8 L 11.2 10.4 L 10.6 10.4 Z M 9.3 10.4 L 9.3 9.8 L 10 9.8 L 10 10.4 L 9.3 10.4 Z M 11.3 14 C 11 14.4 10.6 14.7 10.1 14.7 C 9.7 14.7 9.3 14.5 9.1 14.3 C 8.8 14 8.7 13.7 8.7 13.2 C 8.69 13.23 8.7 11 8.7 11 L 9.2 11 C 9.2 11 9.23 13.09 9.2 13.1 C 9.2 13.4 9.3 13.7 9.5 13.9 C 9.7 14.1 9.9 14.2 10.2 14.2 C 10.5 14.2 10.8 14.1 11 13.9 C 11.2 13.7 11.3 13.4 11.3 13.1 C 11.32 13.05 11.3 11 11.3 11 L 11.9 11 L 11.9 14.6 L 11.3 14.6 L 11.3 14 C 11.3 14 11.32 13.97 11.3 14 Z M 13.1 14.6 L 13.1 11 L 13.6 11 C 13.6 11 13.6 11.61 13.6 11.6 C 13.9 11.1 14.3 10.9 14.8 10.9 C 15.3 10.9 15.6 11 15.9 11.3 C 16.1 11.6 16.2 11.9 16.2 12.4 C 16.23 12.35 16.2 14.6 16.2 14.6 L 15.7 14.6 C 15.7 14.6 15.69 12.49 15.7 12.5 C 15.7 12.1 15.6 11.9 15.4 11.7 C 15.2 11.5 15 11.4 14.7 11.4 C 14.4 11.4 14.1 11.5 13.9 11.7 C 13.7 11.9 13.6 12.2 13.6 12.5 C 13.6 12.53 13.6 14.6 13.6 14.6 L 13.1 14.6 Z M 19.6 14.6 L 19.6 9.7 L 20.1 9.7 L 20.1 12.6 L 22.9 9.7 L 23.7 9.7 L 21.5 11.8 L 23.7 14.6 L 23 14.6 L 21.2 12.2 L 20.1 13.3 L 20.1 14.6 L 19.6 14.6 Z M 26.2 14.7 C 25.6 14.7 25.2 14.5 24.8 14.1 C 24.5 13.8 24.3 13.3 24.3 12.8 C 24.3 12.8 24.3 12.8 24.3 12.8 C 24.3 12.3 24.5 11.8 24.8 11.5 C 25.2 11.1 25.6 10.9 26.2 10.9 C 26.7 10.9 27.2 11.1 27.5 11.5 C 27.9 11.8 28.1 12.3 28.1 12.8 C 28.1 12.8 28.1 12.8 28.1 12.8 C 28.1 13.3 27.9 13.8 27.5 14.1 C 27.2 14.5 26.7 14.7 26.2 14.7 Z M 26.2 14.2 C 26.6 14.2 26.9 14.1 27.1 13.8 C 27.4 13.5 27.5 13.2 27.5 12.8 C 27.5 12.8 27.5 12.8 27.5 12.8 C 27.5 12.4 27.4 12.1 27.1 11.8 C 26.9 11.5 26.5 11.4 26.2 11.4 C 25.8 11.4 25.5 11.5 25.2 11.8 C 25 12.1 24.8 12.4 24.8 12.8 C 24.8 12.8 24.8 12.8 24.8 12.8 C 24.8 13.2 25 13.5 25.2 13.8 C 25.5 14.1 25.8 14.2 26.2 14.2 Z M 31.9 13.9 C 31.6 14.4 31.1 14.7 30.5 14.7 C 30.1 14.7 29.7 14.5 29.3 14.2 C 29 13.8 28.8 13.4 28.8 12.8 C 28.8 12.8 28.8 12.8 28.8 12.8 C 28.8 12.2 29 11.8 29.3 11.4 C 29.7 11.1 30.1 10.9 30.5 10.9 C 31.1 10.9 31.6 11.2 31.9 11.7 C 31.93 11.67 31.9 9.5 31.9 9.5 L 32.5 9.5 L 32.5 14.6 L 31.9 14.6 L 31.9 13.9 C 31.9 13.9 31.93 13.87 31.9 13.9 Z M 30.6 14.2 C 31 14.2 31.3 14.1 31.6 13.8 C 31.8 13.5 32 13.2 32 12.8 C 32 12.8 32 12.8 32 12.8 C 32 12.4 31.8 12 31.6 11.8 C 31.3 11.5 31 11.4 30.6 11.4 C 30.3 11.4 30 11.5 29.7 11.8 C 29.5 12 29.4 12.4 29.4 12.8 C 29.4 12.8 29.4 12.8 29.4 12.8 C 29.4 13.2 29.5 13.6 29.7 13.8 C 30 14.1 30.3 14.2 30.6 14.2 Z M 36.2 14 C 36 14.4 35.5 14.7 35 14.7 C 34.6 14.7 34.2 14.5 34 14.3 C 33.7 14 33.6 13.7 33.6 13.2 C 33.62 13.23 33.6 11 33.6 11 L 34.2 11 C 34.2 11 34.16 13.09 34.2 13.1 C 34.2 13.4 34.2 13.7 34.4 13.9 C 34.6 14.1 34.8 14.2 35.2 14.2 C 35.5 14.2 35.7 14.1 35.9 13.9 C 36.1 13.7 36.2 13.4 36.2 13.1 C 36.25 13.05 36.2 11 36.2 11 L 36.8 11 L 36.8 14.6 L 36.2 14.6 L 36.2 14 C 36.2 14 36.25 13.97 36.2 14 Z M 38 11.7 L 38 11 L 38.6 11 L 38.6 11.7 L 38 11.7 Z M 38 14.6 L 38 13.9 L 38.6 13.9 L 38.6 14.6 L 38 14.6 Z M 41.7 14.6 L 41.7 13.8 L 44.4 10.6 L 41.8 10.6 L 41.8 9.7 L 45.8 9.7 L 45.8 10.5 L 43.1 13.7 L 45.8 13.7 L 45.8 14.6 L 41.7 14.6 Z M 46.8 14.6 L 46.8 9.7 C 46.8 9.7 48.72 9.7 48.7 9.7 C 49.5 9.7 50.1 9.9 50.6 10.4 C 51.1 10.9 51.3 11.4 51.3 12.1 C 51.3 12.1 51.3 12.1 51.3 12.1 C 51.3 12.8 51.1 13.4 50.6 13.9 C 50.1 14.4 49.5 14.6 48.7 14.6 C 48.72 14.6 46.8 14.6 46.8 14.6 Z M 48.7 10.7 C 48.72 10.67 47.9 10.7 47.9 10.7 L 47.9 13.6 C 47.9 13.6 48.72 13.63 48.7 13.6 C 49.2 13.6 49.5 13.5 49.8 13.2 C 50.1 13 50.2 12.6 50.2 12.2 C 50.2 12.2 50.2 12.1 50.2 12.1 C 50.2 11.7 50.1 11.4 49.8 11.1 C 49.5 10.8 49.2 10.7 48.7 10.7 Z M 56 14.7 C 55.2 14.7 54.5 14.4 54.1 13.8 C 54.1 13.8 54.8 13.1 54.8 13.1 C 55.1 13.5 55.5 13.7 56 13.7 C 56.2 13.7 56.4 13.7 56.5 13.6 C 56.6 13.4 56.7 13.3 56.7 13.1 C 56.7 13.1 56.7 13.1 56.7 13.1 C 56.7 12.9 56.6 12.8 56.4 12.6 C 56.3 12.5 56 12.5 55.7 12.5 C 55.72 12.49 55.3 12.5 55.3 12.5 L 55.1 11.8 L 56.3 10.6 L 54.3 10.6 L 54.3 9.7 L 57.7 9.7 L 57.7 10.5 C 57.7 10.5 56.42 11.69 56.4 11.7 C 57.3 11.8 57.7 12.3 57.7 13.1 C 57.7 13.1 57.7 13.1 57.7 13.1 C 57.7 13.6 57.6 13.9 57.3 14.2 C 56.9 14.5 56.5 14.7 56 14.7 Z M 60.9 14.6 L 60.9 13.5 L 58.5 13.5 L 58.4 12.8 L 61 9.7 L 62 9.7 L 62 12.7 L 62.6 12.7 L 62.6 13.5 L 62 13.5 L 62 14.6 L 60.9 14.6 Z M 59.6 12.7 L 60.9 12.7 L 60.9 11.1 L 59.6 12.7 Z M 63.6 14.6 L 65.7 10.6 L 63.4 10.6 L 63.4 9.7 L 67 9.7 L 67 10.5 L 64.8 14.6 L 63.6 14.6 Z M 68.4 13.3 C 68.7 13.6 69.1 13.7 69.4 13.7 C 69.7 13.7 69.9 13.6 70 13.5 C 70.2 13.4 70.3 13.2 70.3 13.1 C 70.4 12.9 70.4 12.8 70.4 12.6 C 70.2 12.8 69.8 12.9 69.4 12.9 C 68.9 12.9 68.5 12.8 68.2 12.5 C 67.8 12.2 67.7 11.8 67.7 11.3 C 67.7 11.3 67.7 11.3 67.7 11.3 C 67.7 10.8 67.9 10.4 68.2 10.1 C 68.6 9.8 69 9.6 69.6 9.6 C 69.9 9.6 70.1 9.7 70.4 9.7 C 70.6 9.8 70.8 10 71 10.1 C 71.4 10.5 71.6 11.2 71.6 12 C 71.6 12 71.6 12 71.6 12 C 71.6 12.8 71.4 13.5 71 14 C 70.6 14.4 70.1 14.7 69.4 14.7 C 68.8 14.7 68.3 14.5 67.8 14.1 C 67.8 14.1 68.4 13.3 68.4 13.3 C 68.4 13.3 68.37 13.28 68.4 13.3 Z M 69.6 12 C 69.9 12 70.1 12 70.2 11.8 C 70.4 11.7 70.5 11.5 70.5 11.3 C 70.5 11.3 70.5 11.3 70.5 11.3 C 70.5 11.1 70.4 10.9 70.2 10.7 C 70.1 10.6 69.9 10.5 69.6 10.5 C 69.3 10.5 69.1 10.6 69 10.7 C 68.8 10.9 68.8 11.1 68.8 11.3 C 68.8 11.3 68.8 11.3 68.8 11.3 C 68.8 11.5 68.8 11.7 69 11.8 C 69.1 12 69.3 12 69.6 12 Z M 73.2 14.6 L 73.2 10.8 L 72.3 11 L 72.1 10.1 L 73.5 9.7 L 74.2 9.7 L 74.2 14.6 L 73.2 14.6 Z " stroke="none" fill="#000"/>  </g>  <g id="Polygon45520">    <path d="M 4.8 3.5 C 4.8 4.2 4.6 4.7 4.2 5.1 C 3.8 5.5 3.3 5.7 2.6 5.7 C 2 5.7 1.4 5.5 1.1 5.1 C 0.7 4.8 0.5 4.2 0.5 3.5 C 0.51 3.5 0.5 0.7 0.5 0.7 L 1.6 0.7 C 1.6 0.7 1.59 3.47 1.6 3.5 C 1.6 3.9 1.7 4.2 1.9 4.4 C 2 4.6 2.3 4.7 2.6 4.7 C 3 4.7 3.2 4.6 3.4 4.4 C 3.6 4.2 3.7 3.9 3.7 3.5 C 3.7 3.51 3.7 0.7 3.7 0.7 L 4.8 0.7 L 4.8 3.5 C 4.8 3.5 4.78 3.46 4.8 3.5 Z M 5.8 5.6 L 5.8 1.8 L 6.8 1.8 C 6.8 1.8 6.83 2.38 6.8 2.4 C 7.1 2 7.5 1.8 7.9 1.8 C 8.4 1.8 8.8 2 9 2.4 C 9.3 2 9.7 1.8 10.2 1.8 C 10.6 1.8 10.9 1.9 11.2 2.1 C 11.4 2.4 11.5 2.7 11.5 3.2 C 11.49 3.16 11.5 5.6 11.5 5.6 L 10.4 5.6 C 10.4 5.6 10.43 3.51 10.4 3.5 C 10.4 3 10.2 2.7 9.8 2.7 C 9.6 2.7 9.4 2.8 9.3 2.9 C 9.2 3.1 9.2 3.3 9.2 3.5 C 9.16 3.51 9.2 5.6 9.2 5.6 L 8.1 5.6 C 8.1 5.6 8.1 3.51 8.1 3.5 C 8.1 3 7.9 2.7 7.5 2.7 C 7.3 2.7 7.1 2.8 7 2.9 C 6.9 3.1 6.8 3.3 6.8 3.5 C 6.83 3.51 6.8 5.6 6.8 5.6 L 5.8 5.6 Z M 15.7 5 C 15.4 5.5 14.8 5.7 14.2 5.7 C 13.6 5.7 13.2 5.5 12.8 5.1 C 12.4 4.8 12.2 4.3 12.2 3.7 C 12.2 3.7 12.2 3.7 12.2 3.7 C 12.2 3.2 12.4 2.7 12.8 2.3 C 13.1 2 13.6 1.8 14.1 1.8 C 14.7 1.8 15.1 2 15.4 2.4 C 15.8 2.8 15.9 3.2 15.9 3.8 C 15.9 3.9 15.9 4 15.9 4.1 C 15.9 4.1 13.3 4.1 13.3 4.1 C 13.3 4.3 13.4 4.5 13.6 4.6 C 13.8 4.8 14 4.8 14.2 4.8 C 14.5 4.8 14.8 4.7 15.1 4.4 C 15.12 4.44 15.7 5 15.7 5 C 15.7 5 15.73 4.98 15.7 5 Z M 13.3 3.4 C 13.3 3.4 14.9 3.4 14.9 3.4 C 14.8 3.2 14.8 3 14.6 2.8 C 14.5 2.7 14.3 2.6 14.1 2.6 C 13.9 2.6 13.7 2.7 13.6 2.8 C 13.4 3 13.3 3.2 13.3 3.4 Z M 20.1 5.6 L 20.1 1.7 L 18.6 1.7 L 18.6 0.7 L 22.6 0.7 L 22.6 1.7 L 21.1 1.7 L 21.1 5.6 L 20.1 5.6 Z M 25.7 5.1 C 25.4 5.5 25 5.7 24.6 5.7 C 24.2 5.7 23.9 5.5 23.6 5.3 C 23.4 5.1 23.3 4.7 23.3 4.3 C 23.32 4.28 23.3 1.8 23.3 1.8 L 24.4 1.8 C 24.4 1.8 24.38 3.94 24.4 3.9 C 24.4 4.4 24.6 4.7 25 4.7 C 25.2 4.7 25.4 4.6 25.5 4.5 C 25.6 4.4 25.7 4.2 25.7 3.9 C 25.69 3.94 25.7 1.8 25.7 1.8 L 26.8 1.8 L 26.8 5.6 L 25.7 5.6 L 25.7 5.1 C 25.7 5.1 25.69 5.07 25.7 5.1 Z M 28.8 5.6 L 27.4 1.8 L 28.5 1.8 L 29.3 4.4 L 30.2 1.8 L 31.3 1.8 L 29.8 5.6 L 28.8 5.6 Z M 34.1 5.2 C 33.8 5.5 33.4 5.7 33 5.7 C 32.6 5.7 32.3 5.6 32 5.4 C 31.8 5.2 31.7 4.9 31.7 4.5 C 31.7 4.5 31.7 4.5 31.7 4.5 C 31.7 4.1 31.8 3.8 32.1 3.6 C 32.4 3.4 32.7 3.3 33.2 3.3 C 33.5 3.3 33.8 3.4 34.1 3.5 C 34.1 3.5 34.1 3.4 34.1 3.4 C 34.1 2.9 33.8 2.7 33.3 2.7 C 33 2.7 32.6 2.8 32.3 2.9 C 32.3 2.9 32 2.1 32 2.1 C 32.5 1.9 33 1.8 33.5 1.8 C 34 1.8 34.4 1.9 34.7 2.2 C 35 2.5 35.1 2.9 35.1 3.4 C 35.13 3.42 35.1 5.6 35.1 5.6 L 34.1 5.6 L 34.1 5.2 C 34.1 5.2 34.1 5.19 34.1 5.2 Z M 33.3 4.9 C 33.5 4.9 33.7 4.9 33.9 4.8 C 34 4.6 34.1 4.5 34.1 4.3 C 34.1 4.3 34.1 4.1 34.1 4.1 C 33.9 4 33.7 3.9 33.4 3.9 C 33.2 3.9 33 4 32.9 4.1 C 32.8 4.2 32.7 4.3 32.7 4.5 C 32.7 4.5 32.7 4.5 32.7 4.5 C 32.7 4.6 32.8 4.7 32.9 4.8 C 33 4.9 33.1 4.9 33.3 4.9 Z M 36.1 5.6 L 36.1 0.5 L 37.2 0.5 L 37.2 5.6 L 36.1 5.6 Z M 41.5 5 C 41.1 5.5 40.6 5.7 39.9 5.7 C 39.4 5.7 38.9 5.5 38.5 5.1 C 38.2 4.8 38 4.3 38 3.7 C 38 3.7 38 3.7 38 3.7 C 38 3.2 38.2 2.7 38.5 2.3 C 38.9 2 39.3 1.8 39.8 1.8 C 40.4 1.8 40.9 2 41.2 2.4 C 41.5 2.8 41.7 3.2 41.7 3.8 C 41.7 3.9 41.7 4 41.6 4.1 C 41.6 4.1 39 4.1 39 4.1 C 39.1 4.3 39.2 4.5 39.4 4.6 C 39.5 4.8 39.7 4.8 40 4.8 C 40.3 4.8 40.6 4.7 40.9 4.4 C 40.87 4.44 41.5 5 41.5 5 C 41.5 5 41.47 4.98 41.5 5 Z M 39 3.4 C 39 3.4 40.6 3.4 40.6 3.4 C 40.6 3.2 40.5 3 40.4 2.8 C 40.2 2.7 40.1 2.6 39.8 2.6 C 39.6 2.6 39.4 2.7 39.3 2.8 C 39.2 3 39.1 3.2 39 3.4 Z M 44.6 5.4 C 44.3 5.6 44 5.7 43.7 5.7 C 43.4 5.7 43.1 5.6 42.9 5.4 C 42.7 5.2 42.6 4.9 42.6 4.5 C 42.63 4.54 42.6 2.8 42.6 2.8 L 42.2 2.8 L 42.2 1.8 L 42.6 1.8 L 42.6 0.9 L 43.7 0.9 L 43.7 1.8 L 44.6 1.8 L 44.6 2.8 L 43.7 2.8 C 43.7 2.8 43.69 4.36 43.7 4.4 C 43.7 4.6 43.8 4.7 44 4.7 C 44.2 4.7 44.4 4.7 44.6 4.6 C 44.56 4.59 44.6 5.4 44.6 5.4 C 44.6 5.4 44.56 5.45 44.6 5.4 Z M 47.6 5.6 L 47.6 0.7 L 51.3 0.7 L 51.3 1.7 L 48.6 1.7 L 48.6 2.7 L 51 2.7 L 51 3.7 L 48.6 3.7 L 48.6 5.6 L 47.6 5.6 Z M 52.1 5.6 L 52.1 1.8 L 53.2 1.8 L 53.2 5.6 L 52.1 5.6 Z M 54.2 5.6 L 54.2 1.8 L 55.2 1.8 C 55.2 1.8 55.23 2.6 55.2 2.6 C 55.5 2 55.9 1.8 56.4 1.8 C 56.43 1.78 56.4 2.9 56.4 2.9 C 56.4 2.9 56.37 2.89 56.4 2.9 C 56 2.9 55.7 3 55.5 3.2 C 55.3 3.4 55.2 3.8 55.2 4.2 C 55.23 4.21 55.2 5.6 55.2 5.6 L 54.2 5.6 Z M 58.6 6.8 L 57.7 6.4 C 57.7 6.4 58.27 5.6 58.3 5.6 C 57.9 5.5 57.5 5.2 57.3 4.9 C 57 4.6 56.9 4.2 56.9 3.7 C 56.9 3.7 56.9 3.7 56.9 3.7 C 56.9 3.2 57.1 2.7 57.5 2.3 C 57.8 2 58.3 1.8 58.9 1.8 C 59.5 1.8 60 2 60.4 2.4 C 60.4 2.4 59.7 3.1 59.7 3.1 C 59.6 3 59.5 2.9 59.3 2.8 C 59.2 2.7 59 2.7 58.9 2.7 C 58.6 2.7 58.4 2.8 58.2 3 C 58 3.2 58 3.4 58 3.7 C 58 3.7 58 3.7 58 3.7 C 58 4 58 4.3 58.2 4.5 C 58.4 4.7 58.6 4.8 58.9 4.8 C 59.2 4.8 59.5 4.6 59.8 4.4 C 59.8 4.4 60.4 5 60.4 5 C 60.2 5.2 60 5.4 59.8 5.5 C 59.6 5.6 59.3 5.7 59 5.7 C 59.04 5.68 58.6 6.8 58.6 6.8 Z M 63.3 5.2 C 63 5.5 62.6 5.7 62.2 5.7 C 61.8 5.7 61.5 5.6 61.2 5.4 C 61 5.2 60.9 4.9 60.9 4.5 C 60.9 4.5 60.9 4.5 60.9 4.5 C 60.9 4.1 61 3.8 61.3 3.6 C 61.5 3.4 61.9 3.3 62.4 3.3 C 62.7 3.3 63 3.4 63.3 3.5 C 63.3 3.5 63.3 3.4 63.3 3.4 C 63.3 2.9 63 2.7 62.5 2.7 C 62.1 2.7 61.8 2.8 61.5 2.9 C 61.5 2.9 61.2 2.1 61.2 2.1 C 61.7 1.9 62.1 1.8 62.6 1.8 C 63.2 1.8 63.6 1.9 63.9 2.2 C 64.2 2.5 64.3 2.9 64.3 3.4 C 64.32 3.42 64.3 5.6 64.3 5.6 L 63.3 5.6 L 63.3 5.2 C 63.3 5.2 63.29 5.19 63.3 5.2 Z M 62.5 4.9 C 62.7 4.9 62.9 4.9 63.1 4.8 C 63.2 4.6 63.3 4.5 63.3 4.3 C 63.3 4.3 63.3 4.1 63.3 4.1 C 63.1 4 62.9 3.9 62.6 3.9 C 62.4 3.9 62.2 4 62.1 4.1 C 62 4.2 61.9 4.3 61.9 4.5 C 61.9 4.5 61.9 4.5 61.9 4.5 C 61.9 4.6 61.9 4.7 62.1 4.8 C 62.2 4.9 62.3 4.9 62.5 4.9 Z M 66.5 5.7 C 66 5.7 65.4 5.5 64.9 5.1 C 64.9 5.1 65.4 4.4 65.4 4.4 C 65.8 4.7 66.2 4.9 66.6 4.9 C 66.9 4.9 67 4.8 67 4.6 C 67 4.6 67 4.6 67 4.6 C 67 4.5 67 4.5 67 4.5 C 67 4.4 67 4.4 66.9 4.4 C 66.9 4.4 66.9 4.4 66.8 4.3 C 66.8 4.3 66.8 4.3 66.7 4.3 C 66.7 4.3 66.6 4.2 66.6 4.2 C 66.5 4.2 66.5 4.2 66.4 4.2 C 66.3 4.2 66.3 4.1 66.2 4.1 C 66.1 4.1 66 4 65.8 4 C 65.7 3.9 65.6 3.9 65.5 3.8 C 65.4 3.7 65.3 3.6 65.2 3.5 C 65.2 3.3 65.1 3.2 65.1 3 C 65.1 3 65.1 3 65.1 3 C 65.1 2.6 65.3 2.3 65.5 2.1 C 65.8 1.9 66.1 1.8 66.5 1.8 C 67 1.8 67.5 1.9 67.9 2.2 C 67.9 2.2 67.5 3 67.5 3 C 67.1 2.7 66.8 2.6 66.5 2.6 C 66.4 2.6 66.3 2.6 66.2 2.7 C 66.1 2.7 66.1 2.8 66.1 2.9 C 66.1 2.9 66.1 2.9 66.1 2.9 C 66.1 3 66.2 3 66.3 3.1 C 66.4 3.2 66.6 3.3 66.8 3.3 C 67 3.4 67.1 3.4 67.3 3.5 C 67.4 3.5 67.5 3.6 67.6 3.7 C 67.7 3.8 67.8 3.9 67.9 4 C 68 4.1 68 4.3 68 4.4 C 68 4.4 68 4.5 68 4.5 C 68 4.9 67.9 5.2 67.6 5.4 C 67.3 5.6 67 5.7 66.5 5.7 Z M 68.8 5.6 L 68.8 1.8 L 69.9 1.8 L 69.9 5.6 L 68.8 5.6 Z " stroke="none" fill="#000"/>  </g></svg>