<?xml version="1.0" standalone="no"?><!DOCTYPE svg PUBLIC "-//W3C//DTD SVG 1.1//EN" "http://www.w3.org/Graphics/SVG/1.1/DTD/svg11.dtd"><svg xmlns="http://www.w3.org/2000/svg" version="1.1" width="49px" height="17.4px" viewBox="0 -3 49 17.4" style="top:-3px">  <desc>29544</desc>  <defs/>  <g id="Polygon86289">    <path d="M 13.3 5.6 L 13.3 4.7 C 13.3 4.7 14.9 3.41 14.9 3.4 C 15.2 3.1 15.4 2.9 15.6 2.8 C 15.7 2.6 15.7 2.4 15.7 2.2 C 15.7 2 15.7 1.9 15.6 1.8 C 15.4 1.7 15.3 1.6 15.1 1.6 C 14.9 1.6 14.7 1.6 14.6 1.7 C 14.4 1.8 14.3 2 14.1 2.3 C 14.1 2.3 13.3 1.6 13.3 1.6 C 13.6 1.3 13.9 1 14.1 0.9 C 14.4 0.7 14.7 0.6 15.2 0.6 C 15.7 0.6 16.1 0.8 16.4 1 C 16.7 1.3 16.8 1.7 16.8 2.1 C 16.8 2.1 16.8 2.2 16.8 2.2 C 16.8 2.5 16.8 2.9 16.6 3.1 C 16.4 3.4 16 3.7 15.6 4.1 C 15.56 4.05 14.8 4.7 14.8 4.7 L 16.9 4.7 L 16.9 5.6 L 13.3 5.6 Z M 18.4 4.3 C 18.7 4.6 19.1 4.7 19.4 4.7 C 19.7 4.7 19.8 4.6 20 4.5 C 20.2 4.4 20.3 4.2 20.3 4.1 C 20.4 3.9 20.4 3.8 20.4 3.6 C 20.2 3.8 19.8 3.9 19.4 3.9 C 18.9 3.9 18.5 3.8 18.1 3.5 C 17.8 3.2 17.7 2.8 17.7 2.3 C 17.7 2.3 17.7 2.3 17.7 2.3 C 17.7 1.8 17.9 1.4 18.2 1.1 C 18.5 0.8 19 0.6 19.5 0.6 C 19.9 0.6 20.1 0.7 20.4 0.7 C 20.6 0.8 20.8 1 21 1.1 C 21.3 1.5 21.5 2.2 21.5 3 C 21.5 3 21.5 3 21.5 3 C 21.5 3.8 21.4 4.5 21 5 C 20.6 5.4 20.1 5.7 19.4 5.7 C 18.8 5.7 18.3 5.5 17.8 5.1 C 17.79 5.1 18.4 4.3 18.4 4.3 C 18.4 4.3 18.36 4.28 18.4 4.3 Z M 19.6 3 C 19.9 3 20.1 3 20.2 2.8 C 20.4 2.7 20.4 2.5 20.4 2.3 C 20.4 2.3 20.4 2.3 20.4 2.3 C 20.4 2.1 20.4 1.9 20.2 1.7 C 20.1 1.6 19.8 1.5 19.6 1.5 C 19.3 1.5 19.1 1.6 19 1.7 C 18.8 1.9 18.7 2.1 18.7 2.3 C 18.7 2.3 18.7 2.3 18.7 2.3 C 18.7 2.5 18.8 2.7 19 2.8 C 19.1 3 19.3 3 19.6 3 Z M 24.1 5.7 C 23.3 5.7 22.7 5.4 22.2 4.9 C 22.2 4.9 22.9 4.2 22.9 4.2 C 23.3 4.5 23.7 4.7 24 4.7 C 24.3 4.7 24.5 4.6 24.6 4.5 C 24.8 4.4 24.9 4.2 24.9 4 C 24.9 4 24.9 4 24.9 4 C 24.9 3.8 24.8 3.6 24.6 3.5 C 24.5 3.4 24.3 3.3 24 3.3 C 23.7 3.3 23.4 3.4 23.2 3.5 C 23.17 3.53 22.5 3.1 22.5 3.1 L 22.7 0.7 L 25.7 0.7 L 25.7 1.6 L 23.6 1.6 C 23.6 1.6 23.56 2.49 23.6 2.5 C 23.8 2.4 24 2.4 24.2 2.4 C 24.7 2.4 25.1 2.5 25.4 2.8 C 25.8 3.1 25.9 3.5 25.9 4 C 25.9 4 25.9 4 25.9 4 C 25.9 4.5 25.7 4.9 25.4 5.2 C 25.1 5.5 24.6 5.7 24.1 5.7 Z M 29.1 5.6 L 29.1 4.5 L 26.7 4.5 L 26.5 3.8 L 29.2 0.7 L 30.1 0.7 L 30.1 3.7 L 30.8 3.7 L 30.8 4.5 L 30.1 4.5 L 30.1 5.6 L 29.1 5.6 Z M 27.8 3.7 L 29.1 3.7 L 29.1 2.1 L 27.8 3.7 Z M 33.9 5.6 L 33.9 4.5 L 31.5 4.5 L 31.4 3.8 L 34.1 0.7 L 35 0.7 L 35 3.7 L 35.6 3.7 L 35.6 4.5 L 35 4.5 L 35 5.6 L 33.9 5.6 Z M 32.6 3.7 L 33.9 3.7 L 33.9 2.1 L 32.6 3.7 Z " stroke="none" fill="#000"/>  </g></svg>