<?xml version="1.0" standalone="no"?><!DOCTYPE svg PUBLIC "-//W3C//DTD SVG 1.1//EN" "http://www.w3.org/Graphics/SVG/1.1/DTD/svg11.dtd"><svg xmlns="http://www.w3.org/2000/svg" version="1.1" width="144px" height="93.4px" viewBox="0 -3 144 93.4" style="top:-3px">  <desc>Klozet F r as – Rim r n Kodu: 14644 Renk: Black Malzeme: Al minyum / ABS l ler: ap 10 cm, Y kseklik 38,2 cm Tasa...</desc>  <defs/>  <g id="Polygon72988">    <path d="M 2 59.6 L 2 55.2 L 0.3 55.2 L 0.3 54.7 L 4.2 54.7 L 4.2 55.2 L 2.5 55.2 L 2.5 59.6 L 2 59.6 Z M 7.5 59.1 C 7.2 59.5 6.7 59.7 6.2 59.7 C 5.8 59.7 5.5 59.6 5.2 59.4 C 5 59.2 4.8 58.9 4.8 58.5 C 4.8 58.5 4.8 58.5 4.8 58.5 C 4.8 58.2 5 57.9 5.2 57.7 C 5.5 57.5 5.9 57.4 6.4 57.4 C 6.7 57.4 7.1 57.4 7.5 57.5 C 7.5 57.5 7.5 57.4 7.5 57.4 C 7.5 57.1 7.4 56.8 7.2 56.7 C 7 56.5 6.7 56.4 6.4 56.4 C 6 56.4 5.7 56.5 5.3 56.7 C 5.3 56.7 5.1 56.2 5.1 56.2 C 5.6 56 6 55.9 6.5 55.9 C 7 55.9 7.4 56.1 7.6 56.3 C 7.9 56.6 8 56.9 8 57.4 C 7.99 57.39 8 59.6 8 59.6 L 7.5 59.6 L 7.5 59.1 C 7.5 59.1 7.48 59.05 7.5 59.1 Z M 6.3 59.2 C 6.6 59.2 6.9 59.2 7.1 59 C 7.4 58.8 7.5 58.6 7.5 58.3 C 7.5 58.3 7.5 57.9 7.5 57.9 C 7.1 57.8 6.8 57.8 6.4 57.8 C 6.1 57.8 5.8 57.8 5.6 58 C 5.5 58.1 5.4 58.3 5.4 58.5 C 5.4 58.5 5.4 58.5 5.4 58.5 C 5.4 58.7 5.5 58.9 5.6 59.1 C 5.8 59.2 6 59.2 6.3 59.2 Z M 10.3 59.7 C 9.8 59.7 9.3 59.5 8.8 59.1 C 8.8 59.1 9.1 58.8 9.1 58.8 C 9.5 59.1 9.9 59.2 10.4 59.2 C 10.6 59.2 10.8 59.2 10.9 59.1 C 11 59 11.1 58.8 11.1 58.6 C 11.1 58.6 11.1 58.6 11.1 58.6 C 11.1 58.5 11 58.3 10.9 58.2 C 10.7 58.2 10.5 58.1 10.2 58 C 10.1 58 10 57.9 9.9 57.9 C 9.9 57.9 9.8 57.8 9.7 57.8 C 9.5 57.8 9.5 57.7 9.4 57.7 C 9.3 57.6 9.3 57.6 9.2 57.5 C 9.1 57.4 9.1 57.4 9.1 57.3 C 9 57.2 9 57.1 9 57 C 9 57 9 57 9 57 C 9 56.6 9.1 56.4 9.4 56.2 C 9.6 56 9.9 55.9 10.2 55.9 C 10.7 55.9 11.1 56.1 11.5 56.3 C 11.5 56.3 11.3 56.7 11.3 56.7 C 10.9 56.5 10.6 56.4 10.2 56.4 C 10 56.4 9.9 56.4 9.7 56.5 C 9.6 56.6 9.5 56.7 9.5 56.9 C 9.5 56.9 9.5 56.9 9.5 56.9 C 9.5 57 9.6 57 9.6 57.1 C 9.6 57.1 9.7 57.2 9.7 57.2 C 9.8 57.3 9.8 57.3 9.9 57.4 C 10 57.4 10.1 57.4 10.2 57.4 C 10.2 57.5 10.3 57.5 10.5 57.5 C 10.6 57.6 10.7 57.6 10.8 57.6 C 10.9 57.7 11 57.7 11.1 57.8 C 11.2 57.8 11.3 57.9 11.4 58 C 11.5 58 11.5 58.1 11.6 58.2 C 11.6 58.3 11.6 58.4 11.6 58.6 C 11.6 58.6 11.6 58.6 11.6 58.6 C 11.6 58.9 11.5 59.2 11.3 59.4 C 11 59.6 10.7 59.7 10.3 59.7 Z M 15 59.1 C 14.7 59.5 14.3 59.7 13.7 59.7 C 13.3 59.7 13 59.6 12.8 59.4 C 12.5 59.2 12.4 58.9 12.4 58.5 C 12.4 58.5 12.4 58.5 12.4 58.5 C 12.4 58.2 12.5 57.9 12.8 57.7 C 13.1 57.5 13.4 57.4 13.9 57.4 C 14.3 57.4 14.6 57.4 15 57.5 C 15 57.5 15 57.4 15 57.4 C 15 57.1 14.9 56.8 14.7 56.7 C 14.5 56.5 14.3 56.4 13.9 56.4 C 13.6 56.4 13.2 56.5 12.8 56.7 C 12.8 56.7 12.7 56.2 12.7 56.2 C 13.1 56 13.5 55.9 14 55.9 C 14.5 55.9 14.9 56.1 15.2 56.3 C 15.4 56.6 15.5 56.9 15.5 57.4 C 15.53 57.39 15.5 59.6 15.5 59.6 L 15 59.6 L 15 59.1 C 15 59.1 15.01 59.05 15 59.1 Z M 13.8 59.2 C 14.2 59.2 14.4 59.2 14.7 59 C 14.9 58.8 15 58.6 15 58.3 C 15 58.3 15 57.9 15 57.9 C 14.7 57.8 14.3 57.8 14 57.8 C 13.6 57.8 13.4 57.8 13.2 58 C 13 58.1 12.9 58.3 12.9 58.5 C 12.9 58.5 12.9 58.5 12.9 58.5 C 12.9 58.7 13 58.9 13.2 59.1 C 13.3 59.2 13.6 59.2 13.8 59.2 Z M 16.7 59.6 L 16.7 56 L 17.2 56 C 17.2 56 17.22 56.93 17.2 56.9 C 17.4 56.6 17.6 56.4 17.8 56.2 C 18.1 56 18.4 55.9 18.7 55.9 C 18.7 55.92 18.7 56.5 18.7 56.5 C 18.7 56.5 18.65 56.5 18.7 56.5 C 18.2 56.5 17.9 56.6 17.6 56.9 C 17.4 57.2 17.2 57.6 17.2 58.2 C 17.22 58.16 17.2 59.6 17.2 59.6 L 16.7 59.6 Z M 19.6 59.6 L 19.6 56 L 20.1 56 L 20.1 59.6 L 19.6 59.6 Z M 21.4 59.6 L 21.4 56 L 21.9 56 C 21.9 56 21.9 56.59 21.9 56.6 C 22 56.4 22.2 56.2 22.4 56.1 C 22.6 56 22.8 55.9 23.1 55.9 C 23.6 55.9 24 56.1 24.2 56.6 C 24.5 56.1 25 55.9 25.5 55.9 C 25.9 55.9 26.2 56 26.5 56.3 C 26.7 56.6 26.8 56.9 26.8 57.4 C 26.84 57.36 26.8 59.6 26.8 59.6 L 26.3 59.6 C 26.3 59.6 26.31 57.49 26.3 57.5 C 26.3 57.1 26.2 56.9 26.1 56.7 C 25.9 56.5 25.7 56.4 25.4 56.4 C 25.1 56.4 24.9 56.5 24.7 56.7 C 24.5 56.9 24.4 57.2 24.4 57.5 C 24.37 57.51 24.4 59.6 24.4 59.6 L 23.8 59.6 C 23.8 59.6 23.83 57.47 23.8 57.5 C 23.8 57.1 23.8 56.9 23.6 56.7 C 23.4 56.5 23.2 56.4 22.9 56.4 C 22.6 56.4 22.4 56.5 22.2 56.7 C 22 56.9 21.9 57.2 21.9 57.5 C 21.9 57.53 21.9 59.6 21.9 59.6 L 21.4 59.6 Z M 28 56.7 L 28 56 L 28.6 56 L 28.6 56.7 L 28 56.7 Z M 28 59.6 L 28 58.9 L 28.6 58.9 L 28.6 59.6 L 28 59.6 Z M 33.6 59.6 L 31.5 54.7 L 32.2 54.7 L 33.9 58.9 L 35.7 54.7 L 36.2 54.7 L 34.1 59.6 L 33.6 59.6 Z M 37.2 59.6 L 37.2 54.7 L 40.8 54.7 L 40.8 55.2 L 37.8 55.2 L 37.8 56.9 L 40.4 56.9 L 40.4 57.4 L 37.8 57.4 L 37.8 59.1 L 40.8 59.1 L 40.8 59.6 L 37.2 59.6 Z M 41.5 59.6 L 41.5 59.2 C 41.5 59.2 43.32 57.6 43.3 57.6 C 43.7 57.3 44 57 44.1 56.8 C 44.3 56.5 44.3 56.3 44.3 56.1 C 44.3 55.8 44.2 55.6 44.1 55.4 C 43.9 55.2 43.6 55.1 43.4 55.1 C 43.1 55.1 42.9 55.2 42.7 55.3 C 42.4 55.5 42.2 55.7 42 56 C 42 56 41.6 55.7 41.6 55.7 C 41.9 55.3 42.1 55 42.4 54.9 C 42.7 54.7 43 54.6 43.4 54.6 C 43.8 54.6 44.2 54.8 44.5 55 C 44.8 55.3 44.9 55.6 44.9 56 C 44.9 56 44.9 56 44.9 56 C 44.9 56.4 44.8 56.7 44.6 56.9 C 44.5 57.2 44.1 57.5 43.7 57.9 C 43.68 57.93 42.4 59.1 42.4 59.1 L 45 59.1 L 45 59.6 L 41.5 59.6 Z " stroke="none" fill="#000"/>  </g>  <g id="Polygon72987">    <path d="M 3.3 45.2 L 3.3 44.6 L 4 44.6 L 4 45.2 L 3.3 45.2 Z M 2 45.2 L 2 44.6 L 2.6 44.6 L 2.6 45.2 L 2 45.2 Z M 5.5 48.1 C 5.5 48.8 5.2 49.4 4.8 49.9 C 4.3 50.4 3.7 50.7 3 50.7 C 2.2 50.7 1.6 50.4 1.2 49.9 C 0.7 49.5 0.5 48.9 0.5 48.2 C 0.5 48.2 0.5 48.1 0.5 48.1 C 0.5 47.5 0.7 46.9 1.2 46.4 C 1.7 45.9 2.3 45.6 3 45.6 C 3.7 45.6 4.3 45.9 4.8 46.4 C 5.2 46.8 5.5 47.4 5.5 48.1 C 5.47 48.14 5.5 48.1 5.5 48.1 C 5.5 48.1 5.47 48.15 5.5 48.1 Z M 1.1 48.1 C 1.1 48.7 1.2 49.2 1.6 49.6 C 2 50 2.4 50.2 3 50.2 C 3.5 50.2 4 50 4.4 49.6 C 4.7 49.2 4.9 48.7 4.9 48.2 C 4.9 48.2 4.9 48.1 4.9 48.1 C 4.9 47.6 4.7 47.1 4.4 46.7 C 4 46.3 3.5 46.1 3 46.1 C 2.4 46.1 2 46.3 1.6 46.7 C 1.2 47.1 1.1 47.6 1.1 48.1 C 1.05 48.14 1.1 48.1 1.1 48.1 C 1.1 48.1 1.05 48.15 1.1 48.1 Z M 6.6 50.6 L 6.6 45.5 L 7.1 45.5 L 7.1 50.6 L 6.6 50.6 Z M 9.7 51.7 L 9.1 51.4 C 9.1 51.4 9.69 50.65 9.7 50.6 C 9.2 50.6 8.9 50.4 8.6 50 C 8.3 49.7 8.2 49.3 8.2 48.8 C 8.2 48.8 8.2 48.8 8.2 48.8 C 8.2 48.3 8.3 47.8 8.7 47.5 C 9.1 47.1 9.5 46.9 10 46.9 C 10.6 46.9 11.1 47.1 11.5 47.5 C 11.5 47.5 11.1 47.9 11.1 47.9 C 10.8 47.6 10.4 47.4 10 47.4 C 9.6 47.4 9.3 47.5 9.1 47.8 C 8.8 48.1 8.7 48.4 8.7 48.8 C 8.7 48.8 8.7 48.8 8.7 48.8 C 8.7 49.2 8.8 49.5 9.1 49.8 C 9.4 50.1 9.7 50.2 10.1 50.2 C 10.5 50.2 10.8 50 11.2 49.7 C 11.2 49.7 11.5 50 11.5 50 C 11.1 50.4 10.7 50.7 10.1 50.7 C 10.13 50.68 9.7 51.7 9.7 51.7 Z M 14.2 46.4 L 14.2 45.8 L 14.8 45.8 L 14.8 46.4 L 14.2 46.4 Z M 13 46.4 L 13 45.8 L 13.6 45.8 L 13.6 46.4 L 13 46.4 Z M 15 50 C 14.7 50.4 14.3 50.7 13.7 50.7 C 13.3 50.7 13 50.5 12.7 50.3 C 12.5 50 12.3 49.7 12.3 49.2 C 12.33 49.23 12.3 47 12.3 47 L 12.9 47 C 12.9 47 12.87 49.09 12.9 49.1 C 12.9 49.4 13 49.7 13.1 49.9 C 13.3 50.1 13.6 50.2 13.9 50.2 C 14.2 50.2 14.4 50.1 14.7 49.9 C 14.9 49.7 15 49.4 15 49.1 C 14.96 49.05 15 47 15 47 L 15.5 47 L 15.5 50.6 L 15 50.6 L 15 50 C 15 50 14.96 49.97 15 50 Z M 16.8 50.6 L 16.8 45.5 L 17.3 45.5 L 17.3 50.6 L 16.8 50.6 Z M 21.6 50 C 21.2 50.5 20.7 50.7 20.1 50.7 C 19.6 50.7 19.2 50.5 18.8 50.2 C 18.5 49.8 18.3 49.4 18.3 48.8 C 18.3 48.8 18.3 48.8 18.3 48.8 C 18.3 48.3 18.5 47.8 18.8 47.4 C 19.1 47.1 19.6 46.9 20.1 46.9 C 20.6 46.9 21 47.1 21.3 47.4 C 21.6 47.8 21.7 48.3 21.7 48.8 C 21.7 48.9 21.7 48.9 21.7 49 C 21.7 49 18.9 49 18.9 49 C 18.9 49.4 19 49.7 19.3 49.9 C 19.5 50.1 19.8 50.2 20.1 50.2 C 20.6 50.2 20.9 50 21.3 49.7 C 21.28 49.7 21.6 50 21.6 50 C 21.6 50 21.62 50 21.6 50 Z M 18.9 48.6 C 18.9 48.6 21.2 48.6 21.2 48.6 C 21.2 48.2 21.1 47.9 20.9 47.7 C 20.7 47.5 20.4 47.4 20 47.4 C 19.7 47.4 19.5 47.5 19.2 47.7 C 19 47.9 18.9 48.2 18.9 48.6 Z M 22.7 50.6 L 22.7 47 L 23.2 47 C 23.2 47 23.23 47.93 23.2 47.9 C 23.4 47.6 23.6 47.4 23.8 47.2 C 24.1 47 24.4 46.9 24.7 46.9 C 24.7 46.92 24.7 47.5 24.7 47.5 C 24.7 47.5 24.66 47.5 24.7 47.5 C 24.2 47.5 23.9 47.6 23.6 47.9 C 23.4 48.2 23.2 48.6 23.2 49.2 C 23.23 49.16 23.2 50.6 23.2 50.6 L 22.7 50.6 Z M 25.5 47.7 L 25.5 47 L 26.1 47 L 26.1 47.7 L 25.5 47.7 Z M 25.5 50.6 L 25.5 49.9 L 26.1 49.9 L 26.1 50.6 L 25.5 50.6 Z M 31.4 51.7 L 30.9 51.4 C 30.9 51.4 31.39 50.66 31.4 50.7 C 30.8 50.6 30.3 50.3 29.9 49.8 C 29.5 49.4 29.3 48.8 29.3 48.2 C 29.3 48.2 29.3 48.1 29.3 48.1 C 29.3 47.4 29.5 46.8 30 46.4 C 30.5 45.9 31 45.6 31.8 45.6 C 32.2 45.6 32.5 45.7 32.8 45.8 C 33.1 45.9 33.4 46.1 33.7 46.4 C 33.7 46.4 33.3 46.8 33.3 46.8 C 33.1 46.6 32.8 46.4 32.6 46.3 C 32.3 46.2 32.1 46.1 31.7 46.1 C 31.2 46.1 30.8 46.3 30.4 46.7 C 30 47.1 29.8 47.6 29.8 48.1 C 29.8 48.1 29.8 48.1 29.8 48.1 C 29.8 48.7 30 49.2 30.4 49.6 C 30.8 50 31.2 50.2 31.7 50.2 C 32.1 50.2 32.3 50.1 32.6 50 C 32.8 49.9 33.1 49.7 33.3 49.5 C 33.3 49.5 33.7 49.8 33.7 49.8 C 33.2 50.4 32.5 50.7 31.8 50.7 C 31.84 50.68 31.4 51.7 31.4 51.7 Z M 37 50.1 C 36.7 50.5 36.2 50.7 35.7 50.7 C 35.3 50.7 35 50.6 34.7 50.4 C 34.5 50.2 34.3 49.9 34.3 49.5 C 34.3 49.5 34.3 49.5 34.3 49.5 C 34.3 49.2 34.5 48.9 34.7 48.7 C 35 48.5 35.4 48.4 35.9 48.4 C 36.2 48.4 36.6 48.4 37 48.5 C 37 48.5 37 48.4 37 48.4 C 37 48.1 36.9 47.8 36.7 47.7 C 36.5 47.5 36.2 47.4 35.9 47.4 C 35.5 47.4 35.2 47.5 34.8 47.7 C 34.8 47.7 34.6 47.2 34.6 47.2 C 35.1 47 35.5 46.9 36 46.9 C 36.5 46.9 36.9 47.1 37.1 47.3 C 37.4 47.6 37.5 47.9 37.5 48.4 C 37.5 48.39 37.5 50.6 37.5 50.6 L 37 50.6 L 37 50.1 C 37 50.1 36.98 50.05 37 50.1 Z M 35.8 50.2 C 36.1 50.2 36.4 50.2 36.6 50 C 36.9 49.8 37 49.6 37 49.3 C 37 49.3 37 48.9 37 48.9 C 36.6 48.8 36.3 48.8 35.9 48.8 C 35.6 48.8 35.3 48.8 35.1 49 C 35 49.1 34.9 49.3 34.9 49.5 C 34.9 49.5 34.9 49.5 34.9 49.5 C 34.9 49.7 35 49.9 35.1 50.1 C 35.3 50.2 35.5 50.2 35.8 50.2 Z M 38.6 51.7 L 38.6 47 L 39.2 47 C 39.2 47 39.19 47.71 39.2 47.7 C 39.6 47.2 40 46.9 40.6 46.9 C 41 46.9 41.4 47.1 41.8 47.4 C 42.1 47.8 42.3 48.2 42.3 48.8 C 42.3 48.8 42.3 48.8 42.3 48.8 C 42.3 49.4 42.1 49.8 41.8 50.2 C 41.4 50.5 41 50.7 40.6 50.7 C 40 50.7 39.5 50.4 39.2 49.9 C 39.19 49.91 39.2 51.7 39.2 51.7 L 38.6 51.7 Z M 40.5 50.2 C 40.8 50.2 41.1 50.1 41.4 49.8 C 41.6 49.6 41.7 49.2 41.7 48.8 C 41.7 48.8 41.7 48.8 41.7 48.8 C 41.7 48.4 41.6 48 41.4 47.8 C 41.1 47.5 40.8 47.4 40.5 47.4 C 40.1 47.4 39.8 47.5 39.6 47.8 C 39.3 48.1 39.2 48.4 39.2 48.8 C 39.2 48.8 39.2 48.8 39.2 48.8 C 39.2 49.2 39.3 49.5 39.6 49.8 C 39.8 50.1 40.1 50.2 40.5 50.2 Z M 46 50.6 L 46 46.2 L 45.1 46.5 L 45 46.1 L 46.2 45.7 L 46.6 45.7 L 46.6 50.6 L 46 50.6 Z M 51.9 48.1 C 51.9 48.9 51.7 49.5 51.3 49.9 C 50.9 50.4 50.4 50.7 49.8 50.7 C 49.2 50.7 48.7 50.4 48.3 50 C 47.9 49.5 47.7 48.9 47.7 48.2 C 47.7 48.2 47.7 48.1 47.7 48.1 C 47.7 47.4 47.9 46.8 48.3 46.4 C 48.7 45.9 49.2 45.6 49.8 45.6 C 50.4 45.6 50.9 45.9 51.3 46.3 C 51.7 46.8 51.9 47.4 51.9 48.1 C 51.87 48.14 51.9 48.1 51.9 48.1 C 51.9 48.1 51.87 48.15 51.9 48.1 Z M 48.3 48.1 C 48.3 48.7 48.4 49.2 48.7 49.6 C 49 50 49.4 50.2 49.8 50.2 C 50.3 50.2 50.6 50 50.9 49.6 C 51.2 49.2 51.3 48.7 51.3 48.2 C 51.3 48.2 51.3 48.1 51.3 48.1 C 51.3 47.6 51.2 47.1 50.9 46.7 C 50.6 46.3 50.2 46.1 49.8 46.1 C 49.4 46.1 49 46.3 48.7 46.7 C 48.4 47.1 48.3 47.6 48.3 48.1 C 48.31 48.14 48.3 48.1 48.3 48.1 C 48.3 48.1 48.31 48.15 48.3 48.1 Z M 58.1 50 C 57.7 50.5 57.2 50.7 56.6 50.7 C 56.1 50.7 55.7 50.5 55.3 50.1 C 55 49.8 54.8 49.3 54.8 48.8 C 54.8 48.8 54.8 48.8 54.8 48.8 C 54.8 48.3 55 47.8 55.3 47.5 C 55.7 47.1 56.1 46.9 56.6 46.9 C 57.2 46.9 57.7 47.1 58.1 47.5 C 58.1 47.5 57.7 47.9 57.7 47.9 C 57.4 47.6 57 47.4 56.6 47.4 C 56.3 47.4 56 47.5 55.7 47.8 C 55.5 48.1 55.3 48.4 55.3 48.8 C 55.3 48.8 55.3 48.8 55.3 48.8 C 55.3 49.2 55.5 49.5 55.7 49.8 C 56 50.1 56.3 50.2 56.7 50.2 C 57.1 50.2 57.4 50 57.8 49.7 C 57.77 49.66 58.1 50 58.1 50 C 58.1 50 58.11 49.98 58.1 50 Z M 59 50.6 L 59 47 L 59.5 47 C 59.5 47 59.54 47.59 59.5 47.6 C 59.7 47.4 59.8 47.2 60 47.1 C 60.2 47 60.4 46.9 60.7 46.9 C 61.3 46.9 61.6 47.1 61.9 47.6 C 62.2 47.1 62.6 46.9 63.1 46.9 C 63.6 46.9 63.9 47 64.1 47.3 C 64.4 47.6 64.5 47.9 64.5 48.4 C 64.49 48.36 64.5 50.6 64.5 50.6 L 64 50.6 C 64 50.6 63.95 48.49 64 48.5 C 64 48.1 63.9 47.9 63.7 47.7 C 63.5 47.5 63.3 47.4 63 47.4 C 62.7 47.4 62.5 47.5 62.3 47.7 C 62.1 47.9 62 48.2 62 48.5 C 62.01 48.51 62 50.6 62 50.6 L 61.5 50.6 C 61.5 50.6 61.48 48.47 61.5 48.5 C 61.5 48.1 61.4 47.9 61.2 47.7 C 61.1 47.5 60.8 47.4 60.5 47.4 C 60.3 47.4 60 47.5 59.8 47.7 C 59.6 47.9 59.5 48.2 59.5 48.5 C 59.54 48.53 59.5 50.6 59.5 50.6 L 59 50.6 Z M 65.4 51.5 C 65.4 51.5 65.4 51.2 65.4 51.2 C 65.7 51.1 65.9 50.9 65.8 50.6 C 65.83 50.6 65.6 50.6 65.6 50.6 L 65.6 49.9 L 66.2 49.9 C 66.2 49.9 66.22 50.49 66.2 50.5 C 66.2 50.8 66.2 51 66 51.1 C 65.9 51.3 65.7 51.4 65.4 51.5 Z M 71.1 50.6 L 71.1 48.7 L 69 45.7 L 69.7 45.7 L 71.4 48.1 L 73 45.7 L 73.7 45.7 L 71.6 48.7 L 71.6 50.6 L 71.1 50.6 Z M 76.3 46.4 L 76.3 45.8 L 76.9 45.8 L 76.9 46.4 L 76.3 46.4 Z M 75.1 46.4 L 75.1 45.8 L 75.7 45.8 L 75.7 46.4 L 75.1 46.4 Z M 77 50 C 76.7 50.4 76.3 50.7 75.8 50.7 C 75.4 50.7 75 50.5 74.8 50.3 C 74.5 50 74.4 49.7 74.4 49.2 C 74.41 49.23 74.4 47 74.4 47 L 74.9 47 C 74.9 47 74.95 49.09 74.9 49.1 C 74.9 49.4 75 49.7 75.2 49.9 C 75.4 50.1 75.6 50.2 75.9 50.2 C 76.3 50.2 76.5 50.1 76.7 49.9 C 76.9 49.7 77 49.4 77 49.1 C 77.03 49.05 77 47 77 47 L 77.6 47 L 77.6 50.6 L 77 50.6 L 77 50 C 77 50 77.03 49.97 77 50 Z M 78.8 50.6 L 78.8 45.5 L 79.3 45.5 L 79.3 49 L 81.3 47 L 81.9 47 L 80.4 48.5 L 82 50.6 L 81.3 50.6 L 80.1 48.9 L 79.3 49.7 L 79.3 50.6 L 78.8 50.6 Z M 84 50.7 C 83.4 50.7 82.9 50.5 82.5 50.1 C 82.5 50.1 82.7 49.8 82.7 49.8 C 83.1 50.1 83.6 50.2 84 50.2 C 84.2 50.2 84.4 50.2 84.5 50.1 C 84.7 50 84.7 49.8 84.7 49.6 C 84.7 49.6 84.7 49.6 84.7 49.6 C 84.7 49.5 84.7 49.3 84.5 49.2 C 84.3 49.2 84.1 49.1 83.8 49 C 83.7 49 83.6 48.9 83.5 48.9 C 83.5 48.9 83.4 48.8 83.3 48.8 C 83.2 48.8 83.1 48.7 83 48.7 C 83 48.6 82.9 48.6 82.8 48.5 C 82.8 48.4 82.7 48.4 82.7 48.3 C 82.6 48.2 82.6 48.1 82.6 48 C 82.6 48 82.6 48 82.6 48 C 82.6 47.6 82.7 47.4 83 47.2 C 83.2 47 83.5 46.9 83.9 46.9 C 84.3 46.9 84.8 47.1 85.2 47.3 C 85.2 47.3 84.9 47.7 84.9 47.7 C 84.6 47.5 84.2 47.4 83.9 47.4 C 83.6 47.4 83.5 47.4 83.3 47.5 C 83.2 47.6 83.2 47.7 83.2 47.9 C 83.2 47.9 83.2 47.9 83.2 47.9 C 83.2 48 83.2 48 83.2 48.1 C 83.2 48.1 83.3 48.2 83.3 48.2 C 83.4 48.3 83.5 48.3 83.6 48.4 C 83.7 48.4 83.7 48.4 83.8 48.4 C 83.9 48.5 84 48.5 84.1 48.5 C 84.2 48.6 84.3 48.6 84.4 48.6 C 84.5 48.7 84.6 48.7 84.7 48.8 C 84.8 48.8 84.9 48.9 85 49 C 85.1 49 85.1 49.1 85.2 49.2 C 85.2 49.3 85.2 49.4 85.2 49.6 C 85.2 49.6 85.2 49.6 85.2 49.6 C 85.2 49.9 85.1 50.2 84.9 50.4 C 84.6 50.6 84.3 50.7 84 50.7 Z M 89.3 50 C 88.9 50.5 88.4 50.7 87.8 50.7 C 87.3 50.7 86.9 50.5 86.5 50.2 C 86.2 49.8 86 49.4 86 48.8 C 86 48.8 86 48.8 86 48.8 C 86 48.3 86.2 47.8 86.5 47.4 C 86.8 47.1 87.3 46.9 87.8 46.9 C 88.3 46.9 88.7 47.1 89 47.4 C 89.3 47.8 89.4 48.3 89.4 48.8 C 89.4 48.9 89.4 48.9 89.4 49 C 89.4 49 86.6 49 86.6 49 C 86.6 49.4 86.7 49.7 87 49.9 C 87.2 50.1 87.5 50.2 87.8 50.2 C 88.3 50.2 88.7 50 89 49.7 C 88.98 49.7 89.3 50 89.3 50 C 89.3 50 89.32 50 89.3 50 Z M 86.6 48.6 C 86.6 48.6 88.9 48.6 88.9 48.6 C 88.9 48.2 88.8 47.9 88.6 47.7 C 88.4 47.5 88.1 47.4 87.7 47.4 C 87.4 47.4 87.2 47.5 86.9 47.7 C 86.7 47.9 86.6 48.2 86.6 48.6 Z M 90.4 50.6 L 90.4 45.5 L 90.9 45.5 L 90.9 49 L 92.9 47 L 93.6 47 L 92 48.5 L 93.6 50.6 L 93 50.6 L 91.7 48.9 L 90.9 49.7 L 90.9 50.6 L 90.4 50.6 Z M 94.4 50.6 L 94.4 45.5 L 95 45.5 L 95 50.6 L 94.4 50.6 Z M 96.2 46.2 L 96.2 45.6 L 96.8 45.6 L 96.8 46.2 L 96.2 46.2 Z M 96.3 50.6 L 96.3 47 L 96.8 47 L 96.8 50.6 L 96.3 50.6 Z M 98.1 50.6 L 98.1 45.5 L 98.6 45.5 L 98.6 49 L 100.5 47 L 101.2 47 L 99.7 48.5 L 101.3 50.6 L 100.6 50.6 L 99.3 48.9 L 98.6 49.7 L 98.6 50.6 L 98.1 50.6 Z M 105.7 50.7 C 104.9 50.7 104.3 50.4 103.9 49.8 C 103.9 49.8 104.3 49.5 104.3 49.5 C 104.7 49.9 105.2 50.2 105.7 50.2 C 106 50.2 106.3 50.1 106.5 49.9 C 106.7 49.7 106.8 49.5 106.8 49.2 C 106.8 49.2 106.8 49.2 106.8 49.2 C 106.8 48.9 106.7 48.7 106.4 48.5 C 106.2 48.4 105.8 48.3 105.4 48.3 C 105.42 48.27 105.1 48.3 105.1 48.3 L 105 47.9 L 106.5 46.2 L 104.1 46.2 L 104.1 45.7 L 107.3 45.7 L 107.3 46.1 C 107.3 46.1 105.73 47.81 105.7 47.8 C 106.2 47.9 106.6 48 106.9 48.2 C 107.2 48.4 107.4 48.8 107.4 49.2 C 107.4 49.2 107.4 49.2 107.4 49.2 C 107.4 49.6 107.2 50 106.9 50.3 C 106.6 50.5 106.2 50.7 105.7 50.7 Z M 111.9 49.3 C 111.9 49.7 111.7 50 111.3 50.3 C 111 50.5 110.6 50.7 110 50.7 C 109.5 50.7 109.1 50.5 108.7 50.3 C 108.4 50 108.2 49.7 108.2 49.3 C 108.2 49.3 108.2 49.3 108.2 49.3 C 108.2 49 108.3 48.7 108.5 48.5 C 108.6 48.3 108.9 48.2 109.2 48.1 C 108.6 47.8 108.4 47.4 108.4 46.9 C 108.4 46.9 108.4 46.9 108.4 46.9 C 108.4 46.6 108.5 46.2 108.9 46 C 109.2 45.8 109.6 45.6 110 45.6 C 110.5 45.6 110.9 45.8 111.2 46 C 111.5 46.2 111.7 46.6 111.7 46.9 C 111.7 46.9 111.7 46.9 111.7 46.9 C 111.7 47.4 111.4 47.8 110.9 48.1 C 111.2 48.2 111.4 48.3 111.6 48.5 C 111.8 48.7 111.9 49 111.9 49.3 C 111.87 49.26 111.9 49.3 111.9 49.3 C 111.9 49.3 111.87 49.28 111.9 49.3 Z M 108.9 47 C 108.9 47.2 109 47.4 109.2 47.6 C 109.4 47.8 109.7 47.9 110 47.9 C 110.3 47.9 110.6 47.8 110.8 47.6 C 111 47.4 111.2 47.2 111.2 47 C 111.2 47 111.2 47 111.2 47 C 111.2 46.7 111 46.5 110.8 46.4 C 110.6 46.2 110.4 46.1 110 46.1 C 109.7 46.1 109.4 46.2 109.2 46.4 C 109 46.5 108.9 46.7 108.9 47 C 108.91 46.96 108.9 47 108.9 47 C 108.9 47 108.91 46.97 108.9 47 Z M 108.8 49.3 C 108.8 49.5 108.9 49.7 109.1 49.9 C 109.3 50.1 109.6 50.2 110 50.2 C 110.4 50.2 110.7 50.1 111 49.9 C 111.2 49.7 111.3 49.5 111.3 49.3 C 111.3 49.3 111.3 49.3 111.3 49.3 C 111.3 49 111.2 48.8 110.9 48.6 C 110.7 48.4 110.4 48.3 110 48.3 C 109.7 48.3 109.4 48.4 109.1 48.6 C 108.9 48.8 108.8 49 108.8 49.3 C 108.75 49.26 108.8 49.3 108.8 49.3 C 108.8 49.3 108.75 49.27 108.8 49.3 Z M 112.6 51.5 C 112.6 51.5 112.6 51.2 112.6 51.2 C 112.9 51.1 113.1 50.9 113 50.6 C 113.03 50.6 112.8 50.6 112.8 50.6 L 112.8 49.9 L 113.4 49.9 C 113.4 49.9 113.42 50.49 113.4 50.5 C 113.4 50.8 113.4 51 113.2 51.1 C 113.1 51.3 112.9 51.4 112.6 51.5 Z M 114.3 50.6 L 114.3 50.2 C 114.3 50.2 116.06 48.6 116.1 48.6 C 116.4 48.3 116.7 48 116.9 47.8 C 117 47.5 117.1 47.3 117.1 47.1 C 117.1 46.8 117 46.6 116.8 46.4 C 116.6 46.2 116.4 46.1 116.1 46.1 C 115.8 46.1 115.6 46.2 115.4 46.3 C 115.2 46.5 115 46.7 114.8 47 C 114.8 47 114.4 46.7 114.4 46.7 C 114.6 46.3 114.9 46 115.1 45.9 C 115.4 45.7 115.7 45.6 116.1 45.6 C 116.6 45.6 116.9 45.8 117.2 46 C 117.5 46.3 117.7 46.6 117.7 47 C 117.7 47 117.7 47 117.7 47 C 117.7 47.4 117.6 47.7 117.4 47.9 C 117.2 48.2 116.9 48.5 116.4 48.9 C 116.42 48.93 115.1 50.1 115.1 50.1 L 117.7 50.1 L 117.7 50.6 L 114.3 50.6 Z M 124 50 C 123.5 50.5 123.1 50.7 122.5 50.7 C 121.9 50.7 121.5 50.5 121.2 50.1 C 120.8 49.8 120.6 49.3 120.6 48.8 C 120.6 48.8 120.6 48.8 120.6 48.8 C 120.6 48.3 120.8 47.8 121.2 47.5 C 121.5 47.1 121.9 46.9 122.5 46.9 C 123 46.9 123.5 47.1 123.9 47.5 C 123.9 47.5 123.6 47.9 123.6 47.9 C 123.2 47.6 122.9 47.4 122.5 47.4 C 122.1 47.4 121.8 47.5 121.5 47.8 C 121.3 48.1 121.2 48.4 121.2 48.8 C 121.2 48.8 121.2 48.8 121.2 48.8 C 121.2 49.2 121.3 49.5 121.6 49.8 C 121.8 50.1 122.1 50.2 122.5 50.2 C 122.9 50.2 123.3 50 123.6 49.7 C 123.61 49.66 124 50 124 50 C 124 50 123.95 49.98 124 50 Z M 124.8 50.6 L 124.8 47 L 125.4 47 C 125.4 47 125.38 47.59 125.4 47.6 C 125.5 47.4 125.7 47.2 125.9 47.1 C 126 47 126.3 46.9 126.6 46.9 C 127.1 46.9 127.5 47.1 127.7 47.6 C 128 47.1 128.5 46.9 129 46.9 C 129.4 46.9 129.7 47 130 47.3 C 130.2 47.6 130.3 47.9 130.3 48.4 C 130.33 48.36 130.3 50.6 130.3 50.6 L 129.8 50.6 C 129.8 50.6 129.79 48.49 129.8 48.5 C 129.8 48.1 129.7 47.9 129.5 47.7 C 129.4 47.5 129.1 47.4 128.9 47.4 C 128.6 47.4 128.3 47.5 128.1 47.7 C 127.9 47.9 127.9 48.2 127.9 48.5 C 127.85 48.51 127.9 50.6 127.9 50.6 L 127.3 50.6 C 127.3 50.6 127.32 48.47 127.3 48.5 C 127.3 48.1 127.2 47.9 127.1 47.7 C 126.9 47.5 126.7 47.4 126.4 47.4 C 126.1 47.4 125.9 47.5 125.7 47.7 C 125.5 47.9 125.4 48.2 125.4 48.5 C 125.38 48.53 125.4 50.6 125.4 50.6 L 124.8 50.6 Z " stroke="none" fill="#000"/>  </g>  <g id="Polygon72986">    <path d="M 0.7 41.6 L 0.7 36.7 L 1.3 36.7 L 3 39.4 L 4.8 36.7 L 5.4 36.7 L 5.4 41.6 L 4.8 41.6 L 4.8 37.6 L 3 40.3 L 3 40.3 L 1.2 37.6 L 1.2 41.6 L 0.7 41.6 Z M 9.1 41.1 C 8.7 41.5 8.3 41.7 7.8 41.7 C 7.4 41.7 7.1 41.6 6.8 41.4 C 6.5 41.2 6.4 40.9 6.4 40.5 C 6.4 40.5 6.4 40.5 6.4 40.5 C 6.4 40.2 6.5 39.9 6.8 39.7 C 7.1 39.5 7.5 39.4 8 39.4 C 8.3 39.4 8.7 39.4 9.1 39.5 C 9.1 39.5 9.1 39.4 9.1 39.4 C 9.1 39.1 9 38.8 8.8 38.7 C 8.6 38.5 8.3 38.4 8 38.4 C 7.6 38.4 7.3 38.5 6.9 38.7 C 6.9 38.7 6.7 38.2 6.7 38.2 C 7.2 38 7.6 37.9 8 37.9 C 8.6 37.9 8.9 38.1 9.2 38.3 C 9.5 38.6 9.6 38.9 9.6 39.4 C 9.58 39.39 9.6 41.6 9.6 41.6 L 9.1 41.6 L 9.1 41.1 C 9.1 41.1 9.06 41.05 9.1 41.1 Z M 7.9 41.2 C 8.2 41.2 8.5 41.2 8.7 41 C 9 40.8 9.1 40.6 9.1 40.3 C 9.1 40.3 9.1 39.9 9.1 39.9 C 8.7 39.8 8.4 39.8 8 39.8 C 7.7 39.8 7.4 39.8 7.2 40 C 7 40.1 7 40.3 7 40.5 C 7 40.5 7 40.5 7 40.5 C 7 40.7 7 40.9 7.2 41.1 C 7.4 41.2 7.6 41.2 7.9 41.2 Z M 10.8 41.6 L 10.8 36.5 L 11.3 36.5 L 11.3 41.6 L 10.8 41.6 Z M 12.4 41.6 L 12.4 41.3 L 14.8 38.4 L 12.4 38.4 L 12.4 38 L 15.5 38 L 15.5 38.3 L 13.1 41.1 L 15.5 41.1 L 15.5 41.6 L 12.4 41.6 Z M 19.5 41 C 19.1 41.5 18.6 41.7 18 41.7 C 17.5 41.7 17.1 41.5 16.8 41.2 C 16.4 40.8 16.2 40.4 16.2 39.8 C 16.2 39.8 16.2 39.8 16.2 39.8 C 16.2 39.3 16.4 38.8 16.7 38.4 C 17.1 38.1 17.5 37.9 18 37.9 C 18.5 37.9 18.9 38.1 19.2 38.4 C 19.5 38.8 19.7 39.3 19.7 39.8 C 19.7 39.9 19.7 39.9 19.7 40 C 19.7 40 16.8 40 16.8 40 C 16.8 40.4 17 40.7 17.2 40.9 C 17.4 41.1 17.7 41.2 18.1 41.2 C 18.5 41.2 18.9 41 19.2 40.7 C 19.2 40.7 19.5 41 19.5 41 C 19.5 41 19.54 41 19.5 41 Z M 16.8 39.6 C 16.8 39.6 19.1 39.6 19.1 39.6 C 19.1 39.2 19 38.9 18.8 38.7 C 18.6 38.5 18.3 38.4 18 38.4 C 17.6 38.4 17.4 38.5 17.2 38.7 C 17 38.9 16.8 39.2 16.8 39.6 Z M 20.6 41.6 L 20.6 38 L 21.1 38 C 21.1 38 21.15 38.59 21.1 38.6 C 21.3 38.4 21.5 38.2 21.6 38.1 C 21.8 38 22 37.9 22.3 37.9 C 22.9 37.9 23.2 38.1 23.5 38.6 C 23.8 38.1 24.2 37.9 24.8 37.9 C 25.2 37.9 25.5 38 25.7 38.3 C 26 38.6 26.1 38.9 26.1 39.4 C 26.1 39.36 26.1 41.6 26.1 41.6 L 25.6 41.6 C 25.6 41.6 25.56 39.49 25.6 39.5 C 25.6 39.1 25.5 38.9 25.3 38.7 C 25.1 38.5 24.9 38.4 24.6 38.4 C 24.3 38.4 24.1 38.5 23.9 38.7 C 23.7 38.9 23.6 39.2 23.6 39.5 C 23.62 39.51 23.6 41.6 23.6 41.6 L 23.1 41.6 C 23.1 41.6 23.09 39.47 23.1 39.5 C 23.1 39.1 23 38.9 22.8 38.7 C 22.7 38.5 22.4 38.4 22.2 38.4 C 21.9 38.4 21.6 38.5 21.4 38.7 C 21.2 38.9 21.1 39.2 21.1 39.5 C 21.15 39.53 21.1 41.6 21.1 41.6 L 20.6 41.6 Z M 30.3 41 C 29.9 41.5 29.4 41.7 28.8 41.7 C 28.3 41.7 27.9 41.5 27.5 41.2 C 27.2 40.8 27 40.4 27 39.8 C 27 39.8 27 39.8 27 39.8 C 27 39.3 27.2 38.8 27.5 38.4 C 27.8 38.1 28.3 37.9 28.8 37.9 C 29.3 37.9 29.7 38.1 30 38.4 C 30.3 38.8 30.4 39.3 30.4 39.8 C 30.4 39.9 30.4 39.9 30.4 40 C 30.4 40 27.6 40 27.6 40 C 27.6 40.4 27.7 40.7 28 40.9 C 28.2 41.1 28.5 41.2 28.8 41.2 C 29.3 41.2 29.6 41 30 40.7 C 29.98 40.7 30.3 41 30.3 41 C 30.3 41 30.32 41 30.3 41 Z M 27.6 39.6 C 27.6 39.6 29.9 39.6 29.9 39.6 C 29.9 39.2 29.8 38.9 29.6 38.7 C 29.4 38.5 29.1 38.4 28.7 38.4 C 28.4 38.4 28.2 38.5 27.9 38.7 C 27.7 38.9 27.6 39.2 27.6 39.6 Z M 31.4 38.7 L 31.4 38 L 32 38 L 32 38.7 L 31.4 38.7 Z M 31.4 41.6 L 31.4 40.9 L 32 40.9 L 32 41.6 L 31.4 41.6 Z M 34.9 41.6 L 37.2 36.7 L 37.7 36.7 L 39.9 41.6 L 39.3 41.6 L 38.8 40.3 L 36.1 40.3 L 35.5 41.6 L 34.9 41.6 Z M 36.3 39.8 L 38.5 39.8 L 37.4 37.3 L 36.3 39.8 Z M 40.8 41.6 L 40.8 36.5 L 41.4 36.5 L 41.4 41.6 L 40.8 41.6 Z M 44.5 37.4 L 44.5 36.8 L 45.1 36.8 L 45.1 37.4 L 44.5 37.4 Z M 43.2 37.4 L 43.2 36.8 L 43.9 36.8 L 43.9 37.4 L 43.2 37.4 Z M 45.2 41 C 44.9 41.4 44.5 41.7 44 41.7 C 43.5 41.7 43.2 41.5 43 41.3 C 42.7 41 42.6 40.7 42.6 40.2 C 42.58 40.23 42.6 38 42.6 38 L 43.1 38 C 43.1 38 43.12 40.09 43.1 40.1 C 43.1 40.4 43.2 40.7 43.4 40.9 C 43.6 41.1 43.8 41.2 44.1 41.2 C 44.4 41.2 44.7 41.1 44.9 40.9 C 45.1 40.7 45.2 40.4 45.2 40.1 C 45.21 40.05 45.2 38 45.2 38 L 45.7 38 L 45.7 41.6 L 45.2 41.6 L 45.2 41 C 45.2 41 45.21 40.97 45.2 41 Z M 46.9 41.6 L 46.9 38 L 47.5 38 C 47.5 38 47.49 38.59 47.5 38.6 C 47.6 38.4 47.8 38.2 48 38.1 C 48.1 38 48.4 37.9 48.7 37.9 C 49.2 37.9 49.6 38.1 49.8 38.6 C 50.1 38.1 50.6 37.9 51.1 37.9 C 51.5 37.9 51.8 38 52.1 38.3 C 52.3 38.6 52.4 38.9 52.4 39.4 C 52.44 39.36 52.4 41.6 52.4 41.6 L 51.9 41.6 C 51.9 41.6 51.9 39.49 51.9 39.5 C 51.9 39.1 51.8 38.9 51.6 38.7 C 51.5 38.5 51.3 38.4 51 38.4 C 50.7 38.4 50.4 38.5 50.2 38.7 C 50.1 38.9 50 39.2 50 39.5 C 49.96 39.51 50 41.6 50 41.6 L 49.4 41.6 C 49.4 41.6 49.43 39.47 49.4 39.5 C 49.4 39.1 49.3 38.9 49.2 38.7 C 49 38.5 48.8 38.4 48.5 38.4 C 48.2 38.4 48 38.5 47.8 38.7 C 47.6 38.9 47.5 39.2 47.5 39.5 C 47.49 39.53 47.5 41.6 47.5 41.6 L 46.9 41.6 Z M 53.6 37.2 L 53.6 36.6 L 54.2 36.6 L 54.2 37.2 L 53.6 37.2 Z M 53.6 41.6 L 53.6 38 L 54.2 38 L 54.2 41.6 L 53.6 41.6 Z M 55.4 41.6 L 55.4 38 L 56 38 C 56 38 55.96 38.61 56 38.6 C 56.3 38.1 56.7 37.9 57.2 37.9 C 57.6 37.9 58 38 58.2 38.3 C 58.5 38.6 58.6 38.9 58.6 39.4 C 58.59 39.35 58.6 41.6 58.6 41.6 L 58.1 41.6 C 58.1 41.6 58.05 39.49 58.1 39.5 C 58.1 39.1 58 38.9 57.8 38.7 C 57.6 38.5 57.4 38.4 57 38.4 C 56.7 38.4 56.5 38.5 56.3 38.7 C 56.1 38.9 56 39.2 56 39.5 C 55.96 39.53 56 41.6 56 41.6 L 55.4 41.6 Z M 61.3 41 L 62.4 38 L 63 38 C 63 38 61.5 41.72 61.5 41.7 C 61.4 42.1 61.2 42.4 61 42.5 C 60.8 42.7 60.6 42.7 60.3 42.7 C 60 42.7 59.8 42.7 59.5 42.6 C 59.5 42.6 59.7 42.1 59.7 42.1 C 59.9 42.2 60.1 42.3 60.3 42.3 C 60.4 42.3 60.6 42.2 60.7 42.1 C 60.8 42 60.9 41.8 61 41.6 C 61.02 41.59 59.4 38 59.4 38 L 60 38 L 61.3 41 Z M 66.4 41 C 66.1 41.4 65.7 41.7 65.2 41.7 C 64.8 41.7 64.4 41.5 64.2 41.3 C 63.9 41 63.8 40.7 63.8 40.2 C 63.82 40.23 63.8 38 63.8 38 L 64.4 38 C 64.4 38 64.36 40.09 64.4 40.1 C 64.4 40.4 64.4 40.7 64.6 40.9 C 64.8 41.1 65 41.2 65.4 41.2 C 65.7 41.2 65.9 41.1 66.1 40.9 C 66.3 40.7 66.4 40.4 66.4 40.1 C 66.44 40.05 66.4 38 66.4 38 L 67 38 L 67 41.6 L 66.4 41.6 L 66.4 41 C 66.4 41 66.44 40.97 66.4 41 Z M 68.2 41.6 L 68.2 38 L 68.7 38 C 68.7 38 68.73 38.59 68.7 38.6 C 68.9 38.4 69 38.2 69.2 38.1 C 69.4 38 69.6 37.9 69.9 37.9 C 70.4 37.9 70.8 38.1 71.1 38.6 C 71.4 38.1 71.8 37.9 72.3 37.9 C 72.8 37.9 73.1 38 73.3 38.3 C 73.6 38.6 73.7 38.9 73.7 39.4 C 73.67 39.36 73.7 41.6 73.7 41.6 L 73.1 41.6 C 73.1 41.6 73.14 39.49 73.1 39.5 C 73.1 39.1 73.1 38.9 72.9 38.7 C 72.7 38.5 72.5 38.4 72.2 38.4 C 71.9 38.4 71.7 38.5 71.5 38.7 C 71.3 38.9 71.2 39.2 71.2 39.5 C 71.2 39.51 71.2 41.6 71.2 41.6 L 70.7 41.6 C 70.7 41.6 70.66 39.47 70.7 39.5 C 70.7 39.1 70.6 38.9 70.4 38.7 C 70.3 38.5 70 38.4 69.7 38.4 C 69.4 38.4 69.2 38.5 69 38.7 C 68.8 38.9 68.7 39.2 68.7 39.5 C 68.73 39.53 68.7 41.6 68.7 41.6 L 68.2 41.6 Z M 76.2 42.5 L 79.4 36 L 79.9 36 L 76.7 42.5 L 76.2 42.5 Z M 82.2 41.6 L 84.5 36.7 L 85 36.7 L 87.2 41.6 L 86.6 41.6 L 86.1 40.3 L 83.4 40.3 L 82.8 41.6 L 82.2 41.6 Z M 83.6 39.8 L 85.8 39.8 L 84.7 37.3 L 83.6 39.8 Z M 88.2 41.6 L 88.2 36.7 C 88.2 36.7 90.28 36.7 90.3 36.7 C 90.8 36.7 91.3 36.8 91.6 37.1 C 91.8 37.3 91.9 37.6 91.9 37.9 C 91.9 37.9 91.9 37.9 91.9 37.9 C 91.9 38.5 91.6 38.8 91.1 39.1 C 91.8 39.3 92.2 39.7 92.2 40.2 C 92.2 40.2 92.2 40.3 92.2 40.3 C 92.2 40.7 92 41 91.7 41.2 C 91.3 41.5 90.9 41.6 90.4 41.6 C 90.38 41.6 88.2 41.6 88.2 41.6 Z M 91.3 38 C 91.3 38 91.3 38 91.3 38 C 91.3 37.7 91.2 37.6 91 37.4 C 90.8 37.3 90.6 37.2 90.2 37.2 C 90.24 37.2 88.7 37.2 88.7 37.2 L 88.7 38.9 C 88.7 38.9 90.19 38.88 90.2 38.9 C 90.5 38.9 90.8 38.8 91 38.7 C 91.2 38.5 91.3 38.3 91.3 38 Z M 91.6 40.2 C 91.6 40.2 91.6 40.2 91.6 40.2 C 91.6 39.9 91.5 39.7 91.3 39.6 C 91 39.4 90.7 39.4 90.3 39.4 C 90.29 39.37 88.7 39.4 88.7 39.4 L 88.7 41.1 C 88.7 41.1 90.39 41.1 90.4 41.1 C 90.8 41.1 91.1 41 91.3 40.9 C 91.5 40.7 91.6 40.5 91.6 40.2 Z M 94.9 41.7 C 94.2 41.7 93.5 41.4 92.9 40.9 C 92.9 40.9 93.3 40.5 93.3 40.5 C 93.5 40.7 93.8 40.9 94.1 41 C 94.3 41.1 94.6 41.2 95 41.2 C 95.3 41.2 95.5 41.1 95.7 40.9 C 95.9 40.8 96 40.6 96 40.3 C 96 40.3 96 40.3 96 40.3 C 96 40.1 96 39.9 95.8 39.8 C 95.6 39.6 95.3 39.5 94.8 39.4 C 94.2 39.3 93.8 39.1 93.5 38.9 C 93.3 38.7 93.1 38.4 93.1 38 C 93.1 38 93.1 38 93.1 38 C 93.1 37.6 93.3 37.3 93.6 37 C 93.9 36.8 94.3 36.6 94.7 36.6 C 95.1 36.6 95.4 36.7 95.7 36.8 C 95.9 36.9 96.2 37 96.5 37.2 C 96.5 37.2 96.1 37.7 96.1 37.7 C 95.7 37.3 95.2 37.1 94.7 37.1 C 94.4 37.1 94.2 37.2 94 37.4 C 93.8 37.5 93.7 37.7 93.7 37.9 C 93.7 37.9 93.7 37.9 93.7 37.9 C 93.7 38.2 93.8 38.4 94 38.5 C 94.1 38.7 94.5 38.8 95 38.9 C 95.6 39 96 39.2 96.2 39.4 C 96.5 39.6 96.6 39.9 96.6 40.3 C 96.6 40.3 96.6 40.3 96.6 40.3 C 96.6 40.7 96.4 41 96.1 41.3 C 95.8 41.5 95.4 41.7 94.9 41.7 Z " stroke="none" fill="#000"/>  </g>  <g id="Polygon72985">    <path d="M 0.7 23.6 L 0.7 18.7 C 0.7 18.7 2.8 18.7 2.8 18.7 C 3.4 18.7 3.9 18.9 4.2 19.2 C 4.4 19.4 4.6 19.8 4.6 20.2 C 4.6 20.2 4.6 20.2 4.6 20.2 C 4.6 20.6 4.4 20.9 4.2 21.1 C 4 21.4 3.6 21.5 3.2 21.6 C 3.24 21.6 4.7 23.6 4.7 23.6 L 4.1 23.6 L 2.6 21.7 L 1.2 21.7 L 1.2 23.6 L 0.7 23.6 Z M 1.2 21.2 C 1.2 21.2 2.75 21.2 2.8 21.2 C 3.1 21.2 3.4 21.1 3.7 20.9 C 3.9 20.7 4 20.5 4 20.2 C 4 20.2 4 20.2 4 20.2 C 4 19.9 3.9 19.6 3.7 19.5 C 3.5 19.3 3.2 19.2 2.8 19.2 C 2.76 19.21 1.2 19.2 1.2 19.2 L 1.2 21.2 Z M 8.7 23 C 8.3 23.5 7.8 23.7 7.2 23.7 C 6.7 23.7 6.3 23.5 6 23.2 C 5.6 22.8 5.4 22.4 5.4 21.8 C 5.4 21.8 5.4 21.8 5.4 21.8 C 5.4 21.3 5.6 20.8 5.9 20.4 C 6.3 20.1 6.7 19.9 7.2 19.9 C 7.7 19.9 8.1 20.1 8.4 20.4 C 8.7 20.8 8.9 21.3 8.9 21.8 C 8.9 21.9 8.9 21.9 8.9 22 C 8.9 22 6 22 6 22 C 6 22.4 6.2 22.7 6.4 22.9 C 6.6 23.1 6.9 23.2 7.3 23.2 C 7.7 23.2 8.1 23 8.4 22.7 C 8.4 22.7 8.7 23 8.7 23 C 8.7 23 8.74 23 8.7 23 Z M 6 21.6 C 6 21.6 8.3 21.6 8.3 21.6 C 8.3 21.2 8.2 20.9 8 20.7 C 7.8 20.5 7.5 20.4 7.2 20.4 C 6.8 20.4 6.6 20.5 6.4 20.7 C 6.1 20.9 6 21.2 6 21.6 Z M 9.8 23.6 L 9.8 20 L 10.3 20 C 10.3 20 10.35 20.61 10.3 20.6 C 10.6 20.1 11.1 19.9 11.6 19.9 C 12 19.9 12.4 20 12.6 20.3 C 12.8 20.6 13 20.9 13 21.4 C 12.97 21.35 13 23.6 13 23.6 L 12.4 23.6 C 12.4 23.6 12.43 21.49 12.4 21.5 C 12.4 21.1 12.3 20.9 12.2 20.7 C 12 20.5 11.7 20.4 11.4 20.4 C 11.1 20.4 10.9 20.5 10.7 20.7 C 10.4 20.9 10.3 21.2 10.3 21.5 C 10.35 21.53 10.3 23.6 10.3 23.6 L 9.8 23.6 Z M 14.1 23.6 L 14.1 18.5 L 14.7 18.5 L 14.7 22 L 16.6 20 L 17.3 20 L 15.8 21.5 L 17.3 23.6 L 16.7 23.6 L 15.4 21.9 L 14.7 22.7 L 14.7 23.6 L 14.1 23.6 Z M 18.1 20.7 L 18.1 20 L 18.7 20 L 18.7 20.7 L 18.1 20.7 Z M 18.1 23.6 L 18.1 22.9 L 18.7 22.9 L 18.7 23.6 L 18.1 23.6 Z M 22.1 23.6 L 22.1 18.7 C 22.1 18.7 24.16 18.7 24.2 18.7 C 24.7 18.7 25.1 18.8 25.4 19.1 C 25.6 19.3 25.8 19.6 25.8 19.9 C 25.8 19.9 25.8 19.9 25.8 19.9 C 25.8 20.5 25.5 20.8 25 21.1 C 25.7 21.3 26 21.7 26 22.2 C 26 22.2 26 22.3 26 22.3 C 26 22.7 25.9 23 25.5 23.2 C 25.2 23.5 24.8 23.6 24.2 23.6 C 24.25 23.6 22.1 23.6 22.1 23.6 Z M 25.2 20 C 25.2 20 25.2 20 25.2 20 C 25.2 19.7 25.1 19.6 24.9 19.4 C 24.7 19.3 24.5 19.2 24.1 19.2 C 24.11 19.2 22.6 19.2 22.6 19.2 L 22.6 20.9 C 22.6 20.9 24.07 20.88 24.1 20.9 C 24.4 20.9 24.7 20.8 24.9 20.7 C 25.1 20.5 25.2 20.3 25.2 20 Z M 25.5 22.2 C 25.5 22.2 25.5 22.2 25.5 22.2 C 25.5 21.9 25.4 21.7 25.1 21.6 C 24.9 21.4 24.6 21.4 24.2 21.4 C 24.16 21.37 22.6 21.4 22.6 21.4 L 22.6 23.1 C 22.6 23.1 24.26 23.1 24.3 23.1 C 24.6 23.1 24.9 23 25.1 22.9 C 25.4 22.7 25.5 22.5 25.5 22.2 Z M 27.1 23.6 L 27.1 18.5 L 27.6 18.5 L 27.6 23.6 L 27.1 23.6 Z M 31.3 23.1 C 30.9 23.5 30.5 23.7 30 23.7 C 29.6 23.7 29.3 23.6 29 23.4 C 28.7 23.2 28.6 22.9 28.6 22.5 C 28.6 22.5 28.6 22.5 28.6 22.5 C 28.6 22.2 28.7 21.9 29 21.7 C 29.3 21.5 29.7 21.4 30.1 21.4 C 30.5 21.4 30.9 21.4 31.3 21.5 C 31.3 21.5 31.3 21.4 31.3 21.4 C 31.3 21.1 31.2 20.8 31 20.7 C 30.8 20.5 30.5 20.4 30.2 20.4 C 29.8 20.4 29.5 20.5 29.1 20.7 C 29.1 20.7 28.9 20.2 28.9 20.2 C 29.3 20 29.8 19.9 30.2 19.9 C 30.8 19.9 31.1 20.1 31.4 20.3 C 31.7 20.6 31.8 20.9 31.8 21.4 C 31.78 21.39 31.8 23.6 31.8 23.6 L 31.3 23.6 L 31.3 23.1 C 31.3 23.1 31.26 23.05 31.3 23.1 Z M 30.1 23.2 C 30.4 23.2 30.7 23.2 30.9 23 C 31.2 22.8 31.3 22.6 31.3 22.3 C 31.3 22.3 31.3 21.9 31.3 21.9 C 30.9 21.8 30.5 21.8 30.2 21.8 C 29.9 21.8 29.6 21.8 29.4 22 C 29.2 22.1 29.1 22.3 29.1 22.5 C 29.1 22.5 29.1 22.5 29.1 22.5 C 29.1 22.7 29.2 22.9 29.4 23.1 C 29.6 23.2 29.8 23.2 30.1 23.2 Z M 36 23 C 35.6 23.5 35.1 23.7 34.6 23.7 C 34 23.7 33.6 23.5 33.2 23.1 C 32.9 22.8 32.7 22.3 32.7 21.8 C 32.7 21.8 32.7 21.8 32.7 21.8 C 32.7 21.3 32.9 20.8 33.2 20.5 C 33.6 20.1 34 19.9 34.6 19.9 C 35.1 19.9 35.6 20.1 36 20.5 C 36 20.5 35.7 20.9 35.7 20.9 C 35.3 20.6 34.9 20.4 34.6 20.4 C 34.2 20.4 33.9 20.5 33.6 20.8 C 33.4 21.1 33.3 21.4 33.3 21.8 C 33.3 21.8 33.3 21.8 33.3 21.8 C 33.3 22.2 33.4 22.5 33.6 22.8 C 33.9 23.1 34.2 23.2 34.6 23.2 C 35 23.2 35.4 23 35.7 22.7 C 35.69 22.66 36 23 36 23 C 36 23 36.04 22.98 36 23 Z M 36.9 23.6 L 36.9 18.5 L 37.5 18.5 L 37.5 22 L 39.4 20 L 40.1 20 L 38.6 21.5 L 40.1 23.6 L 39.5 23.6 L 38.2 21.9 L 37.5 22.7 L 37.5 23.6 L 36.9 23.6 Z " stroke="none" fill="#000"/>  </g>  <g id="Polygon72984">    <path d="M 3 9.3 L 3 8.6 L 3.6 8.6 L 3.6 9.3 L 3 9.3 Z M 1.7 9.3 L 1.7 8.6 L 2.3 8.6 L 2.3 9.3 L 1.7 9.3 Z M 2.7 14.7 C 2 14.7 1.5 14.5 1.2 14.1 C 0.8 13.7 0.6 13.2 0.6 12.5 C 0.62 12.55 0.6 9.7 0.6 9.7 L 1.2 9.7 C 1.2 9.7 1.17 12.51 1.2 12.5 C 1.2 13 1.3 13.4 1.6 13.7 C 1.8 14 2.2 14.2 2.7 14.2 C 3.1 14.2 3.5 14 3.8 13.8 C 4 13.5 4.1 13.1 4.1 12.5 C 4.14 12.55 4.1 9.7 4.1 9.7 L 4.7 9.7 C 4.7 9.7 4.7 12.51 4.7 12.5 C 4.7 13.2 4.5 13.7 4.1 14.1 C 3.8 14.5 3.3 14.7 2.7 14.7 Z M 5.9 14.6 L 5.9 11 L 6.5 11 C 6.5 11 6.45 11.93 6.5 11.9 C 6.6 11.6 6.8 11.4 7 11.2 C 7.3 11 7.6 10.9 7.9 10.9 C 7.93 10.92 7.9 11.5 7.9 11.5 C 7.9 11.5 7.89 11.5 7.9 11.5 C 7.5 11.5 7.1 11.6 6.9 11.9 C 6.6 12.2 6.5 12.6 6.5 13.2 C 6.45 13.16 6.5 14.6 6.5 14.6 L 5.9 14.6 Z M 10.6 10.4 L 10.6 9.8 L 11.2 9.8 L 11.2 10.4 L 10.6 10.4 Z M 9.3 10.4 L 9.3 9.8 L 10 9.8 L 10 10.4 L 9.3 10.4 Z M 11.3 14 C 11 14.4 10.6 14.7 10.1 14.7 C 9.7 14.7 9.3 14.5 9.1 14.3 C 8.8 14 8.7 13.7 8.7 13.2 C 8.69 13.23 8.7 11 8.7 11 L 9.2 11 C 9.2 11 9.23 13.09 9.2 13.1 C 9.2 13.4 9.3 13.7 9.5 13.9 C 9.7 14.1 9.9 14.2 10.2 14.2 C 10.5 14.2 10.8 14.1 11 13.9 C 11.2 13.7 11.3 13.4 11.3 13.1 C 11.32 13.05 11.3 11 11.3 11 L 11.9 11 L 11.9 14.6 L 11.3 14.6 L 11.3 14 C 11.3 14 11.32 13.97 11.3 14 Z M 13.1 14.6 L 13.1 11 L 13.6 11 C 13.6 11 13.6 11.61 13.6 11.6 C 13.9 11.1 14.3 10.9 14.8 10.9 C 15.3 10.9 15.6 11 15.9 11.3 C 16.1 11.6 16.2 11.9 16.2 12.4 C 16.23 12.35 16.2 14.6 16.2 14.6 L 15.7 14.6 C 15.7 14.6 15.69 12.49 15.7 12.5 C 15.7 12.1 15.6 11.9 15.4 11.7 C 15.2 11.5 15 11.4 14.7 11.4 C 14.4 11.4 14.1 11.5 13.9 11.7 C 13.7 11.9 13.6 12.2 13.6 12.5 C 13.6 12.53 13.6 14.6 13.6 14.6 L 13.1 14.6 Z M 19.6 14.6 L 19.6 9.7 L 20.1 9.7 L 20.1 12.6 L 22.9 9.7 L 23.7 9.7 L 21.5 11.8 L 23.7 14.6 L 23 14.6 L 21.2 12.2 L 20.1 13.3 L 20.1 14.6 L 19.6 14.6 Z M 26.2 14.7 C 25.6 14.7 25.2 14.5 24.8 14.1 C 24.5 13.8 24.3 13.3 24.3 12.8 C 24.3 12.8 24.3 12.8 24.3 12.8 C 24.3 12.3 24.5 11.8 24.8 11.5 C 25.2 11.1 25.6 10.9 26.2 10.9 C 26.7 10.9 27.2 11.1 27.5 11.5 C 27.9 11.8 28.1 12.3 28.1 12.8 C 28.1 12.8 28.1 12.8 28.1 12.8 C 28.1 13.3 27.9 13.8 27.5 14.1 C 27.2 14.5 26.7 14.7 26.2 14.7 Z M 26.2 14.2 C 26.6 14.2 26.9 14.1 27.1 13.8 C 27.4 13.5 27.5 13.2 27.5 12.8 C 27.5 12.8 27.5 12.8 27.5 12.8 C 27.5 12.4 27.4 12.1 27.1 11.8 C 26.9 11.5 26.5 11.4 26.2 11.4 C 25.8 11.4 25.5 11.5 25.2 11.8 C 25 12.1 24.8 12.4 24.8 12.8 C 24.8 12.8 24.8 12.8 24.8 12.8 C 24.8 13.2 25 13.5 25.2 13.8 C 25.5 14.1 25.8 14.2 26.2 14.2 Z M 31.9 13.9 C 31.6 14.4 31.1 14.7 30.5 14.7 C 30.1 14.7 29.7 14.5 29.3 14.2 C 29 13.8 28.8 13.4 28.8 12.8 C 28.8 12.8 28.8 12.8 28.8 12.8 C 28.8 12.2 29 11.8 29.3 11.4 C 29.7 11.1 30.1 10.9 30.5 10.9 C 31.1 10.9 31.6 11.2 31.9 11.7 C 31.93 11.67 31.9 9.5 31.9 9.5 L 32.5 9.5 L 32.5 14.6 L 31.9 14.6 L 31.9 13.9 C 31.9 13.9 31.93 13.87 31.9 13.9 Z M 30.6 14.2 C 31 14.2 31.3 14.1 31.6 13.8 C 31.8 13.5 32 13.2 32 12.8 C 32 12.8 32 12.8 32 12.8 C 32 12.4 31.8 12 31.6 11.8 C 31.3 11.5 31 11.4 30.6 11.4 C 30.3 11.4 30 11.5 29.7 11.8 C 29.5 12 29.4 12.4 29.4 12.8 C 29.4 12.8 29.4 12.8 29.4 12.8 C 29.4 13.2 29.5 13.6 29.7 13.8 C 30 14.1 30.3 14.2 30.6 14.2 Z M 36.2 14 C 36 14.4 35.5 14.7 35 14.7 C 34.6 14.7 34.2 14.5 34 14.3 C 33.7 14 33.6 13.7 33.6 13.2 C 33.62 13.23 33.6 11 33.6 11 L 34.2 11 C 34.2 11 34.16 13.09 34.2 13.1 C 34.2 13.4 34.2 13.7 34.4 13.9 C 34.6 14.1 34.8 14.2 35.2 14.2 C 35.5 14.2 35.7 14.1 35.9 13.9 C 36.1 13.7 36.2 13.4 36.2 13.1 C 36.25 13.05 36.2 11 36.2 11 L 36.8 11 L 36.8 14.6 L 36.2 14.6 L 36.2 14 C 36.2 14 36.25 13.97 36.2 14 Z M 38 11.7 L 38 11 L 38.6 11 L 38.6 11.7 L 38 11.7 Z M 38 14.6 L 38 13.9 L 38.6 13.9 L 38.6 14.6 L 38 14.6 Z M 42.5 14.6 L 42.5 10.8 L 41.7 11 L 41.4 10.1 L 42.8 9.7 L 43.6 9.7 L 43.6 14.6 L 42.5 14.6 Z M 47 14.6 L 47 13.5 L 44.6 13.5 L 44.4 12.8 L 47.1 9.7 L 48 9.7 L 48 12.7 L 48.7 12.7 L 48.7 13.5 L 48 13.5 L 48 14.6 L 47 14.6 Z M 45.7 12.7 L 47 12.7 L 47 11.1 L 45.7 12.7 Z M 51.4 14.7 C 50.8 14.7 50.4 14.5 50 14.2 C 49.6 13.8 49.4 13.2 49.4 12.3 C 49.4 12.3 49.4 12.3 49.4 12.3 C 49.4 11.5 49.6 10.9 50 10.4 C 50.3 9.9 50.9 9.6 51.6 9.6 C 52.1 9.6 52.6 9.8 53.1 10.2 C 53.1 10.2 52.5 11 52.5 11 C 52.4 10.9 52.2 10.8 52.1 10.7 C 51.9 10.6 51.7 10.6 51.5 10.6 C 51.4 10.6 51.2 10.6 51.1 10.7 C 50.9 10.8 50.8 10.9 50.8 11 C 50.7 11.1 50.6 11.3 50.6 11.4 C 50.6 11.5 50.6 11.6 50.5 11.7 C 50.9 11.5 51.2 11.4 51.6 11.4 C 52.1 11.4 52.5 11.6 52.8 11.8 C 53.1 12.1 53.3 12.5 53.3 13 C 53.3 13 53.3 13 53.3 13 C 53.3 13.5 53.1 13.9 52.8 14.2 C 52.4 14.5 52 14.7 51.4 14.7 Z M 50.5 13 C 50.5 13.2 50.6 13.4 50.7 13.6 C 50.9 13.7 51.1 13.8 51.4 13.8 C 51.6 13.8 51.8 13.7 52 13.6 C 52.1 13.4 52.2 13.3 52.2 13 C 52.2 13 52.2 13 52.2 13 C 52.2 12.8 52.1 12.6 52 12.5 C 51.8 12.4 51.6 12.3 51.4 12.3 C 51.1 12.3 50.9 12.4 50.7 12.5 C 50.6 12.6 50.5 12.8 50.5 13 C 50.52 13.02 50.5 13 50.5 13 C 50.5 13 50.52 13.03 50.5 13 Z M 56.5 14.6 L 56.5 13.5 L 54.1 13.5 L 53.9 12.8 L 56.6 9.7 L 57.5 9.7 L 57.5 12.7 L 58.1 12.7 L 58.1 13.5 L 57.5 13.5 L 57.5 14.6 L 56.5 14.6 Z M 55.2 12.7 L 56.5 12.7 L 56.5 11.1 L 55.2 12.7 Z M 61.3 14.6 L 61.3 13.5 L 58.9 13.5 L 58.7 12.8 L 61.4 9.7 L 62.3 9.7 L 62.3 12.7 L 63 12.7 L 63 13.5 L 62.3 13.5 L 62.3 14.6 L 61.3 14.6 Z M 60 12.7 L 61.3 12.7 L 61.3 11.1 L 60 12.7 Z " stroke="none" fill="#000"/>  </g>  <g id="Polygon72983">    <path d="M 0.6 5.6 L 0.6 0.7 L 1.7 0.7 L 1.7 2.8 L 3.6 0.7 L 5 0.7 L 3 2.8 L 5 5.6 L 3.8 5.6 L 2.2 3.5 L 1.7 4.1 L 1.7 5.6 L 0.6 5.6 Z M 5.6 5.6 L 5.6 0.5 L 6.7 0.5 L 6.7 5.6 L 5.6 5.6 Z M 9.5 5.7 C 9 5.7 8.5 5.5 8.1 5.1 C 7.7 4.8 7.5 4.3 7.5 3.7 C 7.5 3.7 7.5 3.7 7.5 3.7 C 7.5 3.2 7.7 2.7 8.1 2.3 C 8.5 2 9 1.8 9.6 1.8 C 10.1 1.8 10.6 2 11 2.3 C 11.4 2.7 11.6 3.2 11.6 3.7 C 11.6 3.7 11.6 3.7 11.6 3.7 C 11.6 4.3 11.4 4.7 11 5.1 C 10.6 5.5 10.1 5.7 9.5 5.7 Z M 9.6 4.8 C 9.8 4.8 10.1 4.7 10.3 4.5 C 10.4 4.3 10.5 4 10.5 3.7 C 10.5 3.7 10.5 3.7 10.5 3.7 C 10.5 3.4 10.4 3.2 10.3 3 C 10.1 2.8 9.8 2.7 9.5 2.7 C 9.2 2.7 9 2.8 8.8 3 C 8.7 3.2 8.6 3.4 8.6 3.7 C 8.6 3.7 8.6 3.7 8.6 3.7 C 8.6 4 8.7 4.3 8.8 4.5 C 9 4.7 9.3 4.8 9.6 4.8 Z M 12.2 5.6 L 12.2 4.9 L 14.2 2.7 L 12.3 2.7 L 12.3 1.8 L 15.5 1.8 L 15.5 2.6 L 13.5 4.7 L 15.5 4.7 L 15.5 5.6 L 12.2 5.6 Z M 19.6 5 C 19.2 5.5 18.7 5.7 18.1 5.7 C 17.5 5.7 17 5.5 16.7 5.1 C 16.3 4.8 16.1 4.3 16.1 3.7 C 16.1 3.7 16.1 3.7 16.1 3.7 C 16.1 3.2 16.3 2.7 16.6 2.3 C 17 2 17.4 1.8 18 1.8 C 18.6 1.8 19 2 19.3 2.4 C 19.6 2.8 19.8 3.2 19.8 3.8 C 19.8 3.9 19.8 4 19.8 4.1 C 19.8 4.1 17.2 4.1 17.2 4.1 C 17.2 4.3 17.3 4.5 17.5 4.6 C 17.6 4.8 17.8 4.8 18.1 4.8 C 18.4 4.8 18.7 4.7 19 4.4 C 18.99 4.44 19.6 5 19.6 5 C 19.6 5 19.6 4.98 19.6 5 Z M 17.1 3.4 C 17.1 3.4 18.8 3.4 18.8 3.4 C 18.7 3.2 18.6 3 18.5 2.8 C 18.4 2.7 18.2 2.6 18 2.6 C 17.7 2.6 17.6 2.7 17.4 2.8 C 17.3 3 17.2 3.2 17.1 3.4 Z M 22.7 5.4 C 22.4 5.6 22.2 5.7 21.8 5.7 C 21.5 5.7 21.2 5.6 21 5.4 C 20.8 5.2 20.8 4.9 20.8 4.5 C 20.75 4.54 20.8 2.8 20.8 2.8 L 20.3 2.8 L 20.3 1.8 L 20.8 1.8 L 20.8 0.9 L 21.8 0.9 L 21.8 1.8 L 22.7 1.8 L 22.7 2.8 L 21.8 2.8 C 21.8 2.8 21.82 4.36 21.8 4.4 C 21.8 4.6 21.9 4.7 22.2 4.7 C 22.4 4.7 22.5 4.7 22.7 4.6 C 22.69 4.59 22.7 5.4 22.7 5.4 C 22.7 5.4 22.69 5.45 22.7 5.4 Z M 25.7 5.6 L 25.7 0.7 L 29.4 0.7 L 29.4 1.7 L 26.8 1.7 L 26.8 2.7 L 29.1 2.7 L 29.1 3.7 L 26.8 3.7 L 26.8 5.6 L 25.7 5.6 Z M 30.2 5.6 L 30.2 1.8 L 31.3 1.8 L 31.3 5.6 L 30.2 5.6 Z M 32.3 5.6 L 32.3 1.8 L 33.4 1.8 C 33.4 1.8 33.35 2.6 33.4 2.6 C 33.6 2 34 1.8 34.6 1.8 C 34.55 1.78 34.6 2.9 34.6 2.9 C 34.6 2.9 34.5 2.89 34.5 2.9 C 34.1 2.9 33.9 3 33.7 3.2 C 33.5 3.4 33.4 3.8 33.4 4.2 C 33.35 4.21 33.4 5.6 33.4 5.6 L 32.3 5.6 Z M 36.7 6.8 L 35.8 6.4 C 35.8 6.4 36.39 5.6 36.4 5.6 C 36 5.5 35.7 5.2 35.4 4.9 C 35.2 4.6 35 4.2 35 3.7 C 35 3.7 35 3.7 35 3.7 C 35 3.2 35.2 2.7 35.6 2.3 C 36 2 36.4 1.8 37 1.8 C 37.6 1.8 38.1 2 38.5 2.4 C 38.5 2.4 37.8 3.1 37.8 3.1 C 37.7 3 37.6 2.9 37.5 2.8 C 37.3 2.7 37.2 2.7 37 2.7 C 36.7 2.7 36.5 2.8 36.3 3 C 36.2 3.2 36.1 3.4 36.1 3.7 C 36.1 3.7 36.1 3.7 36.1 3.7 C 36.1 4 36.2 4.3 36.3 4.5 C 36.5 4.7 36.8 4.8 37 4.8 C 37.3 4.8 37.6 4.6 37.9 4.4 C 37.9 4.4 38.5 5 38.5 5 C 38.3 5.2 38.1 5.4 37.9 5.5 C 37.7 5.6 37.5 5.7 37.2 5.7 C 37.16 5.68 36.7 6.8 36.7 6.8 Z M 41.4 5.2 C 41.1 5.5 40.7 5.7 40.3 5.7 C 39.9 5.7 39.6 5.6 39.4 5.4 C 39.1 5.2 39 4.9 39 4.5 C 39 4.5 39 4.5 39 4.5 C 39 4.1 39.1 3.8 39.4 3.6 C 39.7 3.4 40 3.3 40.5 3.3 C 40.8 3.3 41.1 3.4 41.4 3.5 C 41.4 3.5 41.4 3.4 41.4 3.4 C 41.4 2.9 41.1 2.7 40.6 2.7 C 40.3 2.7 39.9 2.8 39.6 2.9 C 39.6 2.9 39.3 2.1 39.3 2.1 C 39.8 1.9 40.3 1.8 40.8 1.8 C 41.3 1.8 41.8 1.9 42 2.2 C 42.3 2.5 42.4 2.9 42.4 3.4 C 42.44 3.42 42.4 5.6 42.4 5.6 L 41.4 5.6 L 41.4 5.2 C 41.4 5.2 41.41 5.19 41.4 5.2 Z M 40.6 4.9 C 40.9 4.9 41.1 4.9 41.2 4.8 C 41.4 4.6 41.4 4.5 41.4 4.3 C 41.4 4.3 41.4 4.1 41.4 4.1 C 41.2 4 41 3.9 40.8 3.9 C 40.5 3.9 40.3 4 40.2 4.1 C 40.1 4.2 40 4.3 40 4.5 C 40 4.5 40 4.5 40 4.5 C 40 4.6 40.1 4.7 40.2 4.8 C 40.3 4.9 40.4 4.9 40.6 4.9 Z M 44.7 5.7 C 44.1 5.7 43.5 5.5 43.1 5.1 C 43.1 5.1 43.5 4.4 43.5 4.4 C 43.9 4.7 44.3 4.9 44.7 4.9 C 45 4.9 45.1 4.8 45.1 4.6 C 45.1 4.6 45.1 4.6 45.1 4.6 C 45.1 4.5 45.1 4.5 45.1 4.5 C 45.1 4.4 45.1 4.4 45.1 4.4 C 45 4.4 45 4.4 45 4.3 C 44.9 4.3 44.9 4.3 44.8 4.3 C 44.8 4.3 44.7 4.2 44.7 4.2 C 44.7 4.2 44.6 4.2 44.5 4.2 C 44.5 4.2 44.4 4.1 44.4 4.1 C 44.2 4.1 44.1 4 44 4 C 43.9 3.9 43.7 3.9 43.6 3.8 C 43.5 3.7 43.4 3.6 43.3 3.5 C 43.3 3.3 43.3 3.2 43.3 3 C 43.3 3 43.3 3 43.3 3 C 43.3 2.6 43.4 2.3 43.6 2.1 C 43.9 1.9 44.2 1.8 44.6 1.8 C 45.1 1.8 45.6 1.9 46 2.2 C 46 2.2 45.6 3 45.6 3 C 45.2 2.7 44.9 2.6 44.6 2.6 C 44.5 2.6 44.4 2.6 44.3 2.7 C 44.2 2.7 44.2 2.8 44.2 2.9 C 44.2 2.9 44.2 2.9 44.2 2.9 C 44.2 3 44.3 3 44.4 3.1 C 44.5 3.2 44.7 3.3 45 3.3 C 45.1 3.4 45.3 3.4 45.4 3.5 C 45.5 3.5 45.6 3.6 45.7 3.7 C 45.9 3.8 45.9 3.9 46 4 C 46.1 4.1 46.1 4.3 46.1 4.4 C 46.1 4.4 46.1 4.5 46.1 4.5 C 46.1 4.9 46 5.2 45.7 5.4 C 45.4 5.6 45.1 5.7 44.7 5.7 Z M 46.9 5.6 L 46.9 1.8 L 48 1.8 L 48 5.6 L 46.9 5.6 Z M 51 3.9 L 51 2.9 L 54 2.9 L 54 3.9 L 51 3.9 Z M 57 5.6 L 57 0.7 C 57 0.7 59.23 0.7 59.2 0.7 C 59.9 0.7 60.3 0.9 60.7 1.2 C 60.9 1.5 61.1 1.9 61.1 2.3 C 61.1 2.3 61.1 2.3 61.1 2.3 C 61.1 3.1 60.7 3.6 60 3.8 C 60.03 3.85 61.2 5.6 61.2 5.6 L 60 5.6 L 58.9 4 L 58.1 4 L 58.1 5.6 L 57 5.6 Z M 58.1 3.1 C 58.1 3.1 59.16 3.08 59.2 3.1 C 59.4 3.1 59.6 3 59.8 2.9 C 59.9 2.8 60 2.6 60 2.4 C 60 2.4 60 2.4 60 2.4 C 60 2.1 59.9 2 59.8 1.9 C 59.6 1.7 59.4 1.7 59.1 1.7 C 59.14 1.67 58.1 1.7 58.1 1.7 L 58.1 3.1 Z M 62 1.4 L 62 0.5 L 63.1 0.5 L 63.1 1.4 L 62 1.4 Z M 62 5.6 L 62 1.8 L 63.1 1.8 L 63.1 5.6 L 62 5.6 Z M 64.1 5.6 L 64.1 1.8 L 65.1 1.8 C 65.1 1.8 65.12 2.38 65.1 2.4 C 65.4 2 65.8 1.8 66.2 1.8 C 66.7 1.8 67.1 2 67.3 2.4 C 67.6 2 68 1.8 68.5 1.8 C 68.9 1.8 69.2 1.9 69.4 2.1 C 69.7 2.4 69.8 2.7 69.8 3.2 C 69.78 3.16 69.8 5.6 69.8 5.6 L 68.7 5.6 C 68.7 5.6 68.72 3.51 68.7 3.5 C 68.7 3 68.5 2.7 68.1 2.7 C 67.9 2.7 67.7 2.8 67.6 2.9 C 67.5 3.1 67.5 3.3 67.5 3.5 C 67.45 3.51 67.5 5.6 67.5 5.6 L 66.4 5.6 C 66.4 5.6 66.39 3.51 66.4 3.5 C 66.4 3 66.2 2.7 65.8 2.7 C 65.6 2.7 65.4 2.8 65.3 2.9 C 65.2 3.1 65.1 3.3 65.1 3.5 C 65.12 3.51 65.1 5.6 65.1 5.6 L 64.1 5.6 Z " stroke="none" fill="#000"/>  </g></svg>