<?xml version="1.0" standalone="no"?><!DOCTYPE svg PUBLIC "-//W3C//DTD SVG 1.1//EN" "http://www.w3.org/Graphics/SVG/1.1/DTD/svg11.dtd"><svg xmlns="http://www.w3.org/2000/svg" version="1.1" width="43px" height="47.4px" viewBox="0 -2 43 47.4" style="top:-2px">  <desc>r n Kodu: ZD 26530 Renk: Olive Green</desc>  <defs/>  <g id="Polygon63598">    <path d="M 5.5 30.1 C 5.5 30.8 5.2 31.4 4.8 31.9 C 4.3 32.4 3.7 32.7 3 32.7 C 2.2 32.7 1.6 32.4 1.2 31.9 C 0.7 31.5 0.5 30.9 0.5 30.2 C 0.5 30.2 0.5 30.1 0.5 30.1 C 0.5 29.5 0.7 28.9 1.2 28.4 C 1.7 27.9 2.3 27.6 3 27.6 C 3.7 27.6 4.3 27.9 4.8 28.4 C 5.2 28.8 5.5 29.4 5.5 30.1 C 5.47 30.14 5.5 30.1 5.5 30.1 C 5.5 30.1 5.47 30.15 5.5 30.1 Z M 1.1 30.1 C 1.1 30.7 1.2 31.2 1.6 31.6 C 2 32 2.4 32.2 3 32.2 C 3.5 32.2 4 32 4.4 31.6 C 4.7 31.2 4.9 30.7 4.9 30.2 C 4.9 30.2 4.9 30.1 4.9 30.1 C 4.9 29.6 4.7 29.1 4.4 28.7 C 4 28.3 3.5 28.1 3 28.1 C 2.4 28.1 2 28.3 1.6 28.7 C 1.2 29.1 1.1 29.6 1.1 30.1 C 1.05 30.14 1.1 30.1 1.1 30.1 C 1.1 30.1 1.05 30.15 1.1 30.1 Z M 6.6 32.6 L 6.6 27.5 L 7.1 27.5 L 7.1 32.6 L 6.6 32.6 Z M 8.4 28.2 L 8.4 27.6 L 9 27.6 L 9 28.2 L 8.4 28.2 Z M 8.4 32.6 L 8.4 29 L 9 29 L 9 32.6 L 8.4 32.6 Z M 11.4 32.6 L 9.9 29 L 10.5 29 L 11.7 32 L 12.9 29 L 13.5 29 L 11.9 32.6 L 11.4 32.6 Z M 17.4 32 C 17 32.5 16.5 32.7 15.9 32.7 C 15.4 32.7 15 32.5 14.6 32.2 C 14.3 31.8 14.1 31.4 14.1 30.8 C 14.1 30.8 14.1 30.8 14.1 30.8 C 14.1 30.3 14.3 29.8 14.6 29.4 C 14.9 29.1 15.4 28.9 15.9 28.9 C 16.4 28.9 16.8 29.1 17.1 29.4 C 17.4 29.8 17.5 30.3 17.5 30.8 C 17.5 30.9 17.5 30.9 17.5 31 C 17.5 31 14.7 31 14.7 31 C 14.7 31.4 14.8 31.7 15.1 31.9 C 15.3 32.1 15.6 32.2 15.9 32.2 C 16.4 32.2 16.7 32 17.1 31.7 C 17.08 31.7 17.4 32 17.4 32 C 17.4 32 17.42 32 17.4 32 Z M 14.7 30.6 C 14.7 30.6 17 30.6 17 30.6 C 17 30.2 16.9 29.9 16.7 29.7 C 16.5 29.5 16.2 29.4 15.8 29.4 C 15.5 29.4 15.3 29.5 15 29.7 C 14.8 29.9 14.7 30.2 14.7 30.6 Z M 24.9 31.9 C 24.4 32.4 23.7 32.7 23 32.7 C 22.2 32.7 21.6 32.4 21.1 32 C 20.7 31.5 20.5 30.9 20.5 30.2 C 20.5 30.2 20.5 30.1 20.5 30.1 C 20.5 29.5 20.7 28.9 21.2 28.4 C 21.6 27.9 22.2 27.6 22.9 27.6 C 23.3 27.6 23.6 27.7 23.9 27.8 C 24.2 27.9 24.5 28 24.7 28.3 C 24.7 28.3 24.4 28.7 24.4 28.7 C 24 28.3 23.5 28.1 22.9 28.1 C 22.4 28.1 21.9 28.3 21.6 28.7 C 21.2 29.1 21 29.6 21 30.1 C 21 30.1 21 30.1 21 30.1 C 21 30.7 21.2 31.2 21.6 31.6 C 21.9 32 22.4 32.2 23 32.2 C 23.5 32.2 24 32 24.4 31.7 C 24.39 31.7 24.4 30.5 24.4 30.5 L 22.9 30.5 L 22.9 30 L 24.9 30 L 24.9 31.9 C 24.9 31.9 24.92 31.93 24.9 31.9 Z M 26.1 32.6 L 26.1 29 L 26.6 29 C 26.6 29 26.61 29.93 26.6 29.9 C 26.8 29.6 27 29.4 27.2 29.2 C 27.5 29 27.8 28.9 28.1 28.9 C 28.09 28.92 28.1 29.5 28.1 29.5 C 28.1 29.5 28.05 29.5 28 29.5 C 27.6 29.5 27.3 29.6 27 29.9 C 26.7 30.2 26.6 30.6 26.6 31.2 C 26.61 31.16 26.6 32.6 26.6 32.6 L 26.1 32.6 Z M 32 32 C 31.6 32.5 31.1 32.7 30.5 32.7 C 30 32.7 29.6 32.5 29.2 32.2 C 28.9 31.8 28.7 31.4 28.7 30.8 C 28.7 30.8 28.7 30.8 28.7 30.8 C 28.7 30.3 28.9 29.8 29.2 29.4 C 29.5 29.1 29.9 28.9 30.4 28.9 C 30.9 28.9 31.4 29.1 31.7 29.4 C 32 29.8 32.1 30.3 32.1 30.8 C 32.1 30.9 32.1 30.9 32.1 31 C 32.1 31 29.2 31 29.2 31 C 29.3 31.4 29.4 31.7 29.6 31.9 C 29.9 32.1 30.2 32.2 30.5 32.2 C 30.9 32.2 31.3 32 31.6 31.7 C 31.65 31.7 32 32 32 32 C 32 32 31.98 32 32 32 Z M 29.2 30.6 C 29.2 30.6 31.6 30.6 31.6 30.6 C 31.5 30.2 31.4 29.9 31.2 29.7 C 31 29.5 30.8 29.4 30.4 29.4 C 30.1 29.4 29.8 29.5 29.6 29.7 C 29.4 29.9 29.3 30.2 29.2 30.6 Z M 36.1 32 C 35.7 32.5 35.2 32.7 34.6 32.7 C 34.1 32.7 33.7 32.5 33.4 32.2 C 33 31.8 32.8 31.4 32.8 30.8 C 32.8 30.8 32.8 30.8 32.8 30.8 C 32.8 30.3 33 29.8 33.3 29.4 C 33.7 29.1 34.1 28.9 34.6 28.9 C 35.1 28.9 35.5 29.1 35.8 29.4 C 36.1 29.8 36.3 30.3 36.3 30.8 C 36.3 30.9 36.3 30.9 36.2 31 C 36.2 31 33.4 31 33.4 31 C 33.4 31.4 33.6 31.7 33.8 31.9 C 34 32.1 34.3 32.2 34.6 32.2 C 35.1 32.2 35.5 32 35.8 31.7 C 35.79 31.7 36.1 32 36.1 32 C 36.1 32 36.13 32 36.1 32 Z M 33.4 30.6 C 33.4 30.6 35.7 30.6 35.7 30.6 C 35.7 30.2 35.6 29.9 35.4 29.7 C 35.2 29.5 34.9 29.4 34.6 29.4 C 34.2 29.4 34 29.5 33.8 29.7 C 33.5 29.9 33.4 30.2 33.4 30.6 Z M 37.2 32.6 L 37.2 29 L 37.7 29 C 37.7 29 37.74 29.61 37.7 29.6 C 38 29.1 38.4 28.9 39 28.9 C 39.4 28.9 39.7 29 40 29.3 C 40.2 29.6 40.4 29.9 40.4 30.4 C 40.36 30.35 40.4 32.6 40.4 32.6 L 39.8 32.6 C 39.8 32.6 39.82 30.49 39.8 30.5 C 39.8 30.1 39.7 29.9 39.6 29.7 C 39.4 29.5 39.1 29.4 38.8 29.4 C 38.5 29.4 38.2 29.5 38 29.7 C 37.8 29.9 37.7 30.2 37.7 30.5 C 37.74 30.53 37.7 32.6 37.7 32.6 L 37.2 32.6 Z " stroke="none" fill="#000"/>  </g>  <g id="Polygon63597">    <path d="M 0.7 23.6 L 0.7 18.7 C 0.7 18.7 2.8 18.7 2.8 18.7 C 3.4 18.7 3.9 18.9 4.2 19.2 C 4.4 19.4 4.6 19.8 4.6 20.2 C 4.6 20.2 4.6 20.2 4.6 20.2 C 4.6 20.6 4.4 20.9 4.2 21.1 C 4 21.4 3.6 21.5 3.2 21.6 C 3.24 21.6 4.7 23.6 4.7 23.6 L 4.1 23.6 L 2.6 21.7 L 1.2 21.7 L 1.2 23.6 L 0.7 23.6 Z M 1.2 21.2 C 1.2 21.2 2.75 21.2 2.8 21.2 C 3.1 21.2 3.4 21.1 3.7 20.9 C 3.9 20.7 4 20.5 4 20.2 C 4 20.2 4 20.2 4 20.2 C 4 19.9 3.9 19.6 3.7 19.5 C 3.5 19.3 3.2 19.2 2.8 19.2 C 2.76 19.21 1.2 19.2 1.2 19.2 L 1.2 21.2 Z M 8.7 23 C 8.3 23.5 7.8 23.7 7.2 23.7 C 6.7 23.7 6.3 23.5 6 23.2 C 5.6 22.8 5.4 22.4 5.4 21.8 C 5.4 21.8 5.4 21.8 5.4 21.8 C 5.4 21.3 5.6 20.8 5.9 20.4 C 6.3 20.1 6.7 19.9 7.2 19.9 C 7.7 19.9 8.1 20.1 8.4 20.4 C 8.7 20.8 8.9 21.3 8.9 21.8 C 8.9 21.9 8.9 21.9 8.9 22 C 8.9 22 6 22 6 22 C 6 22.4 6.2 22.7 6.4 22.9 C 6.6 23.1 6.9 23.2 7.3 23.2 C 7.7 23.2 8.1 23 8.4 22.7 C 8.4 22.7 8.7 23 8.7 23 C 8.7 23 8.74 23 8.7 23 Z M 6 21.6 C 6 21.6 8.3 21.6 8.3 21.6 C 8.3 21.2 8.2 20.9 8 20.7 C 7.8 20.5 7.5 20.4 7.2 20.4 C 6.8 20.4 6.6 20.5 6.4 20.7 C 6.1 20.9 6 21.2 6 21.6 Z M 9.8 23.6 L 9.8 20 L 10.3 20 C 10.3 20 10.35 20.61 10.3 20.6 C 10.6 20.1 11.1 19.9 11.6 19.9 C 12 19.9 12.4 20 12.6 20.3 C 12.8 20.6 13 20.9 13 21.4 C 12.97 21.35 13 23.6 13 23.6 L 12.4 23.6 C 12.4 23.6 12.43 21.49 12.4 21.5 C 12.4 21.1 12.3 20.9 12.2 20.7 C 12 20.5 11.7 20.4 11.4 20.4 C 11.1 20.4 10.9 20.5 10.7 20.7 C 10.4 20.9 10.3 21.2 10.3 21.5 C 10.35 21.53 10.3 23.6 10.3 23.6 L 9.8 23.6 Z M 14.1 23.6 L 14.1 18.5 L 14.7 18.5 L 14.7 22 L 16.6 20 L 17.3 20 L 15.8 21.5 L 17.3 23.6 L 16.7 23.6 L 15.4 21.9 L 14.7 22.7 L 14.7 23.6 L 14.1 23.6 Z M 18.1 20.7 L 18.1 20 L 18.7 20 L 18.7 20.7 L 18.1 20.7 Z M 18.1 23.6 L 18.1 22.9 L 18.7 22.9 L 18.7 23.6 L 18.1 23.6 Z " stroke="none" fill="#000"/>  </g>  <g id="Polygon63596">    <path d="M 0.4 14.6 L 0.4 13.8 L 3.1 10.6 L 0.5 10.6 L 0.5 9.7 L 4.5 9.7 L 4.5 10.5 L 1.8 13.7 L 4.5 13.7 L 4.5 14.6 L 0.4 14.6 Z M 5.5 14.6 L 5.5 9.7 C 5.5 9.7 7.45 9.7 7.5 9.7 C 8.2 9.7 8.8 9.9 9.3 10.4 C 9.8 10.9 10.1 11.4 10.1 12.1 C 10.1 12.1 10.1 12.1 10.1 12.1 C 10.1 12.8 9.8 13.4 9.3 13.9 C 8.8 14.4 8.2 14.6 7.5 14.6 C 7.45 14.6 5.5 14.6 5.5 14.6 Z M 7.5 10.7 C 7.45 10.67 6.6 10.7 6.6 10.7 L 6.6 13.6 C 6.6 13.6 7.45 13.63 7.5 13.6 C 7.9 13.6 8.2 13.5 8.5 13.2 C 8.8 13 8.9 12.6 8.9 12.2 C 8.9 12.2 8.9 12.1 8.9 12.1 C 8.9 11.7 8.8 11.4 8.5 11.1 C 8.2 10.8 7.9 10.7 7.5 10.7 Z M 12.9 14.6 L 12.9 13.7 C 12.9 13.7 14.5 12.41 14.5 12.4 C 14.8 12.1 15 11.9 15.2 11.8 C 15.3 11.6 15.4 11.4 15.4 11.2 C 15.4 11 15.3 10.9 15.2 10.8 C 15.1 10.7 14.9 10.6 14.7 10.6 C 14.5 10.6 14.3 10.6 14.2 10.7 C 14.1 10.8 13.9 11 13.7 11.3 C 13.7 11.3 12.9 10.6 12.9 10.6 C 13.2 10.3 13.5 10 13.7 9.9 C 14 9.7 14.3 9.6 14.8 9.6 C 15.3 9.6 15.7 9.8 16 10 C 16.3 10.3 16.4 10.7 16.4 11.1 C 16.4 11.1 16.4 11.2 16.4 11.2 C 16.4 11.5 16.4 11.9 16.2 12.1 C 16 12.4 15.6 12.7 15.2 13.1 C 15.16 13.05 14.4 13.7 14.4 13.7 L 16.5 13.7 L 16.5 14.6 L 12.9 14.6 Z M 19.3 14.7 C 18.7 14.7 18.2 14.5 17.8 14.2 C 17.5 13.8 17.3 13.2 17.3 12.3 C 17.3 12.3 17.3 12.3 17.3 12.3 C 17.3 11.5 17.5 10.9 17.8 10.4 C 18.2 9.9 18.7 9.6 19.4 9.6 C 20 9.6 20.5 9.8 21 10.2 C 21 10.2 20.4 11 20.4 11 C 20.2 10.9 20.1 10.8 19.9 10.7 C 19.8 10.6 19.6 10.6 19.4 10.6 C 19.2 10.6 19.1 10.6 18.9 10.7 C 18.8 10.8 18.7 10.9 18.6 11 C 18.6 11.1 18.5 11.3 18.5 11.4 C 18.4 11.5 18.4 11.6 18.4 11.7 C 18.7 11.5 19 11.4 19.4 11.4 C 19.9 11.4 20.3 11.6 20.6 11.8 C 21 12.1 21.1 12.5 21.1 13 C 21.1 13 21.1 13 21.1 13 C 21.1 13.5 21 13.9 20.6 14.2 C 20.2 14.5 19.8 14.7 19.3 14.7 Z M 18.4 13 C 18.4 13.2 18.4 13.4 18.6 13.6 C 18.8 13.7 19 13.8 19.2 13.8 C 19.5 13.8 19.7 13.7 19.8 13.6 C 20 13.4 20.1 13.3 20.1 13 C 20.1 13 20.1 13 20.1 13 C 20.1 12.8 20 12.6 19.8 12.5 C 19.7 12.4 19.5 12.3 19.2 12.3 C 18.9 12.3 18.7 12.4 18.6 12.5 C 18.4 12.6 18.4 12.8 18.4 13 C 18.37 13.02 18.4 13 18.4 13 C 18.4 13 18.37 13.03 18.4 13 Z M 23.7 14.7 C 23 14.7 22.3 14.4 21.8 13.9 C 21.8 13.9 22.5 13.2 22.5 13.2 C 22.9 13.5 23.3 13.7 23.6 13.7 C 23.9 13.7 24.1 13.6 24.2 13.5 C 24.4 13.4 24.5 13.2 24.5 13 C 24.5 13 24.5 13 24.5 13 C 24.5 12.8 24.4 12.6 24.2 12.5 C 24.1 12.4 23.9 12.3 23.6 12.3 C 23.3 12.3 23 12.4 22.8 12.5 C 22.78 12.53 22.2 12.1 22.2 12.1 L 22.3 9.7 L 25.3 9.7 L 25.3 10.6 L 23.2 10.6 C 23.2 10.6 23.16 11.49 23.2 11.5 C 23.4 11.4 23.6 11.4 23.8 11.4 C 24.3 11.4 24.7 11.5 25 11.8 C 25.4 12.1 25.5 12.5 25.5 13 C 25.5 13 25.5 13 25.5 13 C 25.5 13.5 25.4 13.9 25 14.2 C 24.7 14.5 24.2 14.7 23.7 14.7 Z M 28.1 14.7 C 27.3 14.7 26.7 14.4 26.2 13.8 C 26.2 13.8 26.9 13.1 26.9 13.1 C 27.3 13.5 27.7 13.7 28.1 13.7 C 28.3 13.7 28.5 13.7 28.6 13.6 C 28.8 13.4 28.8 13.3 28.8 13.1 C 28.8 13.1 28.8 13.1 28.8 13.1 C 28.8 12.9 28.7 12.8 28.6 12.6 C 28.4 12.5 28.2 12.5 27.9 12.5 C 27.86 12.49 27.4 12.5 27.4 12.5 L 27.2 11.8 L 28.4 10.6 L 26.5 10.6 L 26.5 9.7 L 29.8 9.7 L 29.8 10.5 C 29.8 10.5 28.56 11.69 28.6 11.7 C 29.4 11.8 29.9 12.3 29.9 13.1 C 29.9 13.1 29.9 13.1 29.9 13.1 C 29.9 13.6 29.7 13.9 29.4 14.2 C 29.1 14.5 28.6 14.7 28.1 14.7 Z M 32.8 14.7 C 32.2 14.7 31.7 14.4 31.3 14 C 30.9 13.5 30.7 12.9 30.7 12.2 C 30.7 12.2 30.7 12.1 30.7 12.1 C 30.7 11.4 30.9 10.8 31.3 10.3 C 31.7 9.9 32.2 9.6 32.8 9.6 C 33.5 9.6 34 9.9 34.4 10.3 C 34.8 10.8 35 11.4 35 12.1 C 35 12.1 35 12.1 35 12.1 C 35 12.9 34.8 13.5 34.4 14 C 34 14.4 33.5 14.7 32.8 14.7 Z M 31.8 12.1 C 31.8 12.6 31.9 13 32.1 13.3 C 32.3 13.6 32.5 13.7 32.8 13.7 C 33.2 13.7 33.4 13.6 33.6 13.3 C 33.8 13 33.9 12.6 33.9 12.2 C 33.9 12.2 33.9 12.1 33.9 12.1 C 33.9 11.7 33.8 11.3 33.6 11 C 33.4 10.7 33.1 10.6 32.8 10.6 C 32.5 10.6 32.3 10.7 32.1 11 C 31.9 11.3 31.8 11.7 31.8 12.1 C 31.77 12.14 31.8 12.1 31.8 12.1 C 31.8 12.1 31.77 12.15 31.8 12.1 Z " stroke="none" fill="#000"/>  </g>  <g id="Polygon63595">    <path d="M 3 0.3 L 3 -0.4 L 3.6 -0.4 L 3.6 0.3 L 3 0.3 Z M 1.7 0.3 L 1.7 -0.4 L 2.3 -0.4 L 2.3 0.3 L 1.7 0.3 Z M 2.7 5.7 C 2 5.7 1.5 5.5 1.2 5.1 C 0.8 4.7 0.6 4.2 0.6 3.5 C 0.62 3.55 0.6 0.7 0.6 0.7 L 1.2 0.7 C 1.2 0.7 1.17 3.51 1.2 3.5 C 1.2 4 1.3 4.4 1.6 4.7 C 1.8 5 2.2 5.2 2.7 5.2 C 3.1 5.2 3.5 5 3.8 4.8 C 4 4.5 4.1 4.1 4.1 3.5 C 4.14 3.55 4.1 0.7 4.1 0.7 L 4.7 0.7 C 4.7 0.7 4.7 3.51 4.7 3.5 C 4.7 4.2 4.5 4.7 4.1 5.1 C 3.8 5.5 3.3 5.7 2.7 5.7 Z M 5.9 5.6 L 5.9 2 L 6.5 2 C 6.5 2 6.45 2.93 6.5 2.9 C 6.6 2.6 6.8 2.4 7 2.2 C 7.3 2 7.6 1.9 7.9 1.9 C 7.93 1.92 7.9 2.5 7.9 2.5 C 7.9 2.5 7.89 2.5 7.9 2.5 C 7.5 2.5 7.1 2.6 6.9 2.9 C 6.6 3.2 6.5 3.6 6.5 4.2 C 6.45 4.16 6.5 5.6 6.5 5.6 L 5.9 5.6 Z M 10.6 1.4 L 10.6 0.8 L 11.2 0.8 L 11.2 1.4 L 10.6 1.4 Z M 9.3 1.4 L 9.3 0.8 L 10 0.8 L 10 1.4 L 9.3 1.4 Z M 11.3 5 C 11 5.4 10.6 5.7 10.1 5.7 C 9.7 5.7 9.3 5.5 9.1 5.3 C 8.8 5 8.7 4.7 8.7 4.2 C 8.69 4.23 8.7 2 8.7 2 L 9.2 2 C 9.2 2 9.23 4.09 9.2 4.1 C 9.2 4.4 9.3 4.7 9.5 4.9 C 9.7 5.1 9.9 5.2 10.2 5.2 C 10.5 5.2 10.8 5.1 11 4.9 C 11.2 4.7 11.3 4.4 11.3 4.1 C 11.32 4.05 11.3 2 11.3 2 L 11.9 2 L 11.9 5.6 L 11.3 5.6 L 11.3 5 C 11.3 5 11.32 4.97 11.3 5 Z M 13.1 5.6 L 13.1 2 L 13.6 2 C 13.6 2 13.6 2.61 13.6 2.6 C 13.9 2.1 14.3 1.9 14.8 1.9 C 15.3 1.9 15.6 2 15.9 2.3 C 16.1 2.6 16.2 2.9 16.2 3.4 C 16.23 3.35 16.2 5.6 16.2 5.6 L 15.7 5.6 C 15.7 5.6 15.69 3.49 15.7 3.5 C 15.7 3.1 15.6 2.9 15.4 2.7 C 15.2 2.5 15 2.4 14.7 2.4 C 14.4 2.4 14.1 2.5 13.9 2.7 C 13.7 2.9 13.6 3.2 13.6 3.5 C 13.6 3.53 13.6 5.6 13.6 5.6 L 13.1 5.6 Z M 19.6 5.6 L 19.6 0.7 L 20.1 0.7 L 20.1 3.6 L 22.9 0.7 L 23.7 0.7 L 21.5 2.8 L 23.7 5.6 L 23 5.6 L 21.2 3.2 L 20.1 4.3 L 20.1 5.6 L 19.6 5.6 Z M 26.2 5.7 C 25.6 5.7 25.2 5.5 24.8 5.1 C 24.5 4.8 24.3 4.3 24.3 3.8 C 24.3 3.8 24.3 3.8 24.3 3.8 C 24.3 3.3 24.5 2.8 24.8 2.5 C 25.2 2.1 25.6 1.9 26.2 1.9 C 26.7 1.9 27.2 2.1 27.5 2.5 C 27.9 2.8 28.1 3.3 28.1 3.8 C 28.1 3.8 28.1 3.8 28.1 3.8 C 28.1 4.3 27.9 4.8 27.5 5.1 C 27.2 5.5 26.7 5.7 26.2 5.7 Z M 26.2 5.2 C 26.6 5.2 26.9 5.1 27.1 4.8 C 27.4 4.5 27.5 4.2 27.5 3.8 C 27.5 3.8 27.5 3.8 27.5 3.8 C 27.5 3.4 27.4 3.1 27.1 2.8 C 26.9 2.5 26.5 2.4 26.2 2.4 C 25.8 2.4 25.5 2.5 25.2 2.8 C 25 3.1 24.8 3.4 24.8 3.8 C 24.8 3.8 24.8 3.8 24.8 3.8 C 24.8 4.2 25 4.5 25.2 4.8 C 25.5 5.1 25.8 5.2 26.2 5.2 Z M 31.9 4.9 C 31.6 5.4 31.1 5.7 30.5 5.7 C 30.1 5.7 29.7 5.5 29.3 5.2 C 29 4.8 28.8 4.4 28.8 3.8 C 28.8 3.8 28.8 3.8 28.8 3.8 C 28.8 3.2 29 2.8 29.3 2.4 C 29.7 2.1 30.1 1.9 30.5 1.9 C 31.1 1.9 31.6 2.2 31.9 2.7 C 31.93 2.67 31.9 0.5 31.9 0.5 L 32.5 0.5 L 32.5 5.6 L 31.9 5.6 L 31.9 4.9 C 31.9 4.9 31.93 4.87 31.9 4.9 Z M 30.6 5.2 C 31 5.2 31.3 5.1 31.6 4.8 C 31.8 4.5 32 4.2 32 3.8 C 32 3.8 32 3.8 32 3.8 C 32 3.4 31.8 3 31.6 2.8 C 31.3 2.5 31 2.4 30.6 2.4 C 30.3 2.4 30 2.5 29.7 2.8 C 29.5 3 29.4 3.4 29.4 3.8 C 29.4 3.8 29.4 3.8 29.4 3.8 C 29.4 4.2 29.5 4.6 29.7 4.8 C 30 5.1 30.3 5.2 30.6 5.2 Z M 36.2 5 C 36 5.4 35.5 5.7 35 5.7 C 34.6 5.7 34.2 5.5 34 5.3 C 33.7 5 33.6 4.7 33.6 4.2 C 33.62 4.23 33.6 2 33.6 2 L 34.2 2 C 34.2 2 34.16 4.09 34.2 4.1 C 34.2 4.4 34.2 4.7 34.4 4.9 C 34.6 5.1 34.8 5.2 35.2 5.2 C 35.5 5.2 35.7 5.1 35.9 4.9 C 36.1 4.7 36.2 4.4 36.2 4.1 C 36.25 4.05 36.2 2 36.2 2 L 36.8 2 L 36.8 5.6 L 36.2 5.6 L 36.2 5 C 36.2 5 36.25 4.97 36.2 5 Z M 38 2.7 L 38 2 L 38.6 2 L 38.6 2.7 L 38 2.7 Z M 38 5.6 L 38 4.9 L 38.6 4.9 L 38.6 5.6 L 38 5.6 Z " stroke="none" fill="#000"/>  </g></svg>