<?xml version="1.0" standalone="no"?><!DOCTYPE svg PUBLIC "-//W3C//DTD SVG 1.1//EN" "http://www.w3.org/Graphics/SVG/1.1/DTD/svg11.dtd"><svg xmlns="http://www.w3.org/2000/svg" version="1.1" width="16.2px" height="12.4px" viewBox="0 -1 16.2 12.4" style="top:-1px">  <desc> </desc>  <defs/>  <g id="Polygon80069">    <path d="M 8.3 6.5 C 8.7 6.9 9.1 7.1 9.5 7.1 C 10 7.1 10.3 6.9 10.6 6.5 C 10.9 6.1 11 5.6 11 5 C 11 5 11 4.9 11 4.9 C 10.7 5.4 10.2 5.7 9.6 5.7 C 9.1 5.7 8.7 5.5 8.4 5.3 C 8.1 5 7.9 4.6 7.9 4.2 C 7.9 4.2 7.9 4.2 7.9 4.2 C 7.9 3.7 8.1 3.3 8.4 3 C 8.7 2.7 9.1 2.5 9.7 2.5 C 10.2 2.5 10.6 2.7 10.9 3 C 11.4 3.4 11.6 4 11.6 4.9 C 11.6 4.9 11.6 4.9 11.6 4.9 C 11.6 5.7 11.4 6.3 11 6.8 C 10.6 7.3 10.1 7.6 9.5 7.6 C 9 7.6 8.5 7.4 8 7 C 8.01 6.96 8.3 6.5 8.3 6.5 C 8.3 6.5 8.33 6.53 8.3 6.5 Z M 9.7 5.2 C 10 5.2 10.3 5.1 10.6 4.9 C 10.8 4.7 10.9 4.4 10.9 4.1 C 10.9 4.1 10.9 4.1 10.9 4.1 C 10.9 3.8 10.8 3.5 10.5 3.3 C 10.3 3.1 10 3 9.6 3 C 9.3 3 9 3.1 8.8 3.3 C 8.6 3.5 8.5 3.8 8.5 4.1 C 8.5 4.1 8.5 4.1 8.5 4.1 C 8.5 4.5 8.6 4.7 8.8 4.9 C 9 5.1 9.3 5.2 9.7 5.2 Z M 12.9 7.5 L 15.2 3.1 L 12.5 3.1 L 12.5 2.6 L 15.8 2.6 L 15.8 3 L 13.6 7.5 L 12.9 7.5 Z " stroke="none" fill="#000"/>  </g></svg>