<?xml version="1.0" standalone="no"?><!DOCTYPE svg PUBLIC "-//W3C//DTD SVG 1.1//EN" "http://www.w3.org/Graphics/SVG/1.1/DTD/svg11.dtd"><svg xmlns="http://www.w3.org/2000/svg" version="1.1" width="69.5px" height="21px" viewBox="0 -1 69.5 21" style="top:-1px">  <desc>₺1.060,85</desc>  <defs/>  <g id="Polygon76975">    <path d="M 2.7 4.1 L 2.7 12.7 L 1.6 12.7 L 1.6 4.1 L 2.7 4.1 Z M 5 8.1 L 6.2 8.1 C 6.2 8.1 6.16 8.66 6.2 8.7 C 6.2 9.3 6.1 9.9 5.9 10.4 C 5.8 10.9 5.5 11.3 5.2 11.7 C 4.9 12 4.6 12.3 4.1 12.5 C 3.7 12.7 3.2 12.8 2.7 12.8 C 2.5 12.8 2.4 12.8 2.2 12.7 C 2 12.7 1.8 12.7 1.6 12.7 C 1.6 12.7 2.7 11.8 2.7 11.8 C 3.1 11.8 3.4 11.7 3.7 11.6 C 4 11.5 4.2 11.3 4.4 11 C 4.6 10.7 4.8 10.4 4.9 10 C 5 9.6 5 9.2 5 8.7 C 5.04 8.66 5 8.1 5 8.1 Z M 4.2 5 L 4.2 6 L 0.2 7.8 L 0.2 6.8 L 4.2 5 Z M 4.2 6.9 L 4.2 7.9 L 0.2 9.8 L 0.2 8.7 L 4.2 6.9 Z M 11 4.1 L 11 12.7 L 9.9 12.7 L 9.9 5.4 L 7.7 6.2 L 7.7 5.3 L 10.8 4.1 L 11 4.1 Z M 14.3 12.1 C 14.3 11.9 14.3 11.8 14.4 11.6 C 14.6 11.5 14.7 11.4 14.9 11.4 C 15.2 11.4 15.3 11.5 15.4 11.6 C 15.6 11.8 15.6 11.9 15.6 12.1 C 15.6 12.3 15.6 12.4 15.4 12.5 C 15.3 12.7 15.2 12.7 14.9 12.7 C 14.7 12.7 14.6 12.7 14.4 12.5 C 14.3 12.4 14.3 12.3 14.3 12.1 Z M 22.7 7.7 C 22.7 7.7 22.7 9 22.7 9 C 22.7 9.7 22.6 10.3 22.5 10.8 C 22.3 11.3 22.2 11.7 21.9 12 C 21.7 12.2 21.4 12.5 21.1 12.6 C 20.7 12.7 20.4 12.8 20 12.8 C 19.6 12.8 19.3 12.7 19.1 12.7 C 18.8 12.6 18.5 12.4 18.3 12.3 C 18.1 12.1 17.9 11.8 17.7 11.6 C 17.6 11.3 17.5 10.9 17.4 10.5 C 17.3 10.1 17.3 9.6 17.3 9 C 17.3 9 17.3 7.7 17.3 7.7 C 17.3 7 17.3 6.4 17.5 6 C 17.6 5.5 17.8 5.1 18 4.8 C 18.2 4.5 18.5 4.3 18.8 4.2 C 19.2 4.1 19.5 4 20 4 C 20.3 4 20.6 4.1 20.9 4.1 C 21.1 4.2 21.4 4.3 21.6 4.5 C 21.8 4.7 22 4.9 22.2 5.2 C 22.3 5.5 22.4 5.8 22.5 6.3 C 22.6 6.7 22.7 7.2 22.7 7.7 Z M 21.6 9.2 C 21.6 9.2 21.6 7.5 21.6 7.5 C 21.6 7.2 21.5 6.8 21.5 6.5 C 21.5 6.2 21.4 6 21.3 5.8 C 21.2 5.6 21.1 5.4 21 5.3 C 20.8 5.1 20.7 5.1 20.5 5 C 20.4 4.9 20.2 4.9 20 4.9 C 19.7 4.9 19.5 4.9 19.3 5 C 19.1 5.1 18.9 5.3 18.8 5.5 C 18.6 5.7 18.5 6 18.5 6.3 C 18.4 6.6 18.4 7.1 18.4 7.5 C 18.4 7.5 18.4 9.2 18.4 9.2 C 18.4 9.6 18.4 9.9 18.4 10.2 C 18.5 10.5 18.5 10.8 18.6 11 C 18.7 11.2 18.8 11.4 18.9 11.5 C 19.1 11.6 19.2 11.7 19.4 11.8 C 19.6 11.9 19.8 11.9 20 11.9 C 20.2 11.9 20.5 11.8 20.7 11.7 C 20.9 11.6 21 11.5 21.2 11.3 C 21.3 11 21.4 10.8 21.5 10.4 C 21.5 10.1 21.6 9.7 21.6 9.2 Z M 28.2 4.1 C 28.2 4.12 28.3 4.1 28.3 4.1 L 28.3 5 C 28.3 5 28.2 5.04 28.2 5 C 27.6 5 27.1 5.1 26.8 5.3 C 26.4 5.5 26.1 5.8 25.8 6.1 C 25.6 6.4 25.5 6.7 25.4 7.1 C 25.3 7.5 25.2 7.9 25.2 8.3 C 25.2 8.3 25.2 9.5 25.2 9.5 C 25.2 9.9 25.2 10.3 25.3 10.5 C 25.4 10.8 25.5 11.1 25.7 11.3 C 25.9 11.5 26 11.6 26.2 11.7 C 26.4 11.8 26.6 11.9 26.9 11.9 C 27.1 11.9 27.3 11.8 27.5 11.7 C 27.7 11.6 27.9 11.5 28 11.3 C 28.2 11.2 28.3 11 28.3 10.7 C 28.4 10.5 28.4 10.2 28.4 9.9 C 28.4 9.7 28.4 9.4 28.3 9.2 C 28.3 9 28.2 8.8 28 8.6 C 27.9 8.4 27.8 8.2 27.6 8.1 C 27.4 8 27.1 8 26.9 8 C 26.6 8 26.3 8 26 8.2 C 25.8 8.3 25.6 8.5 25.4 8.8 C 25.2 9 25.1 9.3 25.1 9.5 C 25.1 9.5 24.5 9.5 24.5 9.5 C 24.6 9.1 24.7 8.7 24.8 8.4 C 25 8.1 25.2 7.8 25.4 7.6 C 25.6 7.4 25.9 7.3 26.2 7.2 C 26.4 7.1 26.7 7.1 27.1 7.1 C 27.5 7.1 27.8 7.1 28.2 7.3 C 28.5 7.5 28.7 7.7 28.9 8 C 29.1 8.2 29.3 8.5 29.4 8.9 C 29.5 9.2 29.5 9.5 29.5 9.9 C 29.5 10.3 29.4 10.7 29.3 11 C 29.2 11.4 29 11.7 28.8 11.9 C 28.6 12.2 28.3 12.4 28 12.6 C 27.7 12.7 27.3 12.8 26.9 12.8 C 26.4 12.8 26 12.7 25.6 12.5 C 25.3 12.3 25 12.1 24.8 11.7 C 24.6 11.4 24.4 11.1 24.3 10.7 C 24.2 10.3 24.1 9.9 24.1 9.5 C 24.1 9.5 24.1 9 24.1 9 C 24.1 8.4 24.2 7.8 24.3 7.2 C 24.4 6.6 24.6 6.1 24.9 5.7 C 25.2 5.2 25.6 4.8 26.2 4.5 C 26.7 4.3 27.4 4.1 28.2 4.1 Z M 36.1 7.7 C 36.1 7.7 36.1 9 36.1 9 C 36.1 9.7 36.1 10.3 36 10.8 C 35.8 11.3 35.6 11.7 35.4 12 C 35.2 12.2 34.9 12.5 34.6 12.6 C 34.2 12.7 33.9 12.8 33.5 12.8 C 33.1 12.8 32.8 12.7 32.5 12.7 C 32.3 12.6 32 12.4 31.8 12.3 C 31.6 12.1 31.4 11.8 31.2 11.6 C 31.1 11.3 31 10.9 30.9 10.5 C 30.8 10.1 30.8 9.6 30.8 9 C 30.8 9 30.8 7.7 30.8 7.7 C 30.8 7 30.8 6.4 30.9 6 C 31.1 5.5 31.2 5.1 31.5 4.8 C 31.7 4.5 32 4.3 32.3 4.2 C 32.7 4.1 33 4 33.4 4 C 33.8 4 34.1 4.1 34.4 4.1 C 34.6 4.2 34.9 4.3 35.1 4.5 C 35.3 4.7 35.5 4.9 35.7 5.2 C 35.8 5.5 35.9 5.8 36 6.3 C 36.1 6.7 36.1 7.2 36.1 7.7 Z M 35.1 9.2 C 35.1 9.2 35.1 7.5 35.1 7.5 C 35.1 7.2 35 6.8 35 6.5 C 34.9 6.2 34.9 6 34.8 5.8 C 34.7 5.6 34.6 5.4 34.5 5.3 C 34.3 5.1 34.2 5.1 34 5 C 33.8 4.9 33.7 4.9 33.4 4.9 C 33.2 4.9 33 4.9 32.8 5 C 32.6 5.1 32.4 5.3 32.3 5.5 C 32.1 5.7 32 6 31.9 6.3 C 31.9 6.6 31.8 7.1 31.8 7.5 C 31.8 7.5 31.8 9.2 31.8 9.2 C 31.8 9.6 31.9 9.9 31.9 10.2 C 32 10.5 32 10.8 32.1 11 C 32.2 11.2 32.3 11.4 32.4 11.5 C 32.6 11.6 32.7 11.7 32.9 11.8 C 33.1 11.9 33.2 11.9 33.5 11.9 C 33.7 11.9 33.9 11.8 34.1 11.7 C 34.3 11.6 34.5 11.5 34.6 11.3 C 34.8 11 34.9 10.8 35 10.4 C 35 10.1 35.1 9.7 35.1 9.2 Z M 38.6 11.4 C 38.6 11.4 38.63 12.25 38.6 12.2 C 38.6 12.6 38.5 13 38.4 13.4 C 38.2 13.8 37.9 14.1 37.6 14.4 C 37.6 14.4 37 13.9 37 13.9 C 37.1 13.8 37.2 13.6 37.3 13.4 C 37.4 13.2 37.5 13.1 37.5 12.9 C 37.5 12.7 37.6 12.5 37.6 12.3 C 37.57 12.27 37.6 11.4 37.6 11.4 L 38.6 11.4 Z M 45.3 10.4 C 45.3 10.9 45.1 11.3 44.9 11.7 C 44.7 12 44.3 12.3 43.9 12.5 C 43.5 12.7 43.1 12.8 42.6 12.8 C 42 12.8 41.6 12.7 41.2 12.5 C 40.8 12.3 40.4 12 40.2 11.7 C 40 11.3 39.8 10.9 39.8 10.4 C 39.8 10 39.9 9.7 40 9.4 C 40.2 9.1 40.4 8.9 40.6 8.7 C 40.8 8.5 41.1 8.3 41.5 8.2 C 41.8 8.1 42.1 8 42.5 8 C 43.1 8 43.5 8.1 43.9 8.3 C 44.4 8.5 44.7 8.8 44.9 9.1 C 45.2 9.5 45.3 9.9 45.3 10.4 Z M 44.2 10.3 C 44.2 10 44.1 9.7 44 9.5 C 43.8 9.2 43.6 9.1 43.4 8.9 C 43.2 8.8 42.9 8.7 42.5 8.7 C 42.2 8.7 41.9 8.8 41.7 8.9 C 41.4 9.1 41.3 9.2 41.1 9.5 C 41 9.7 40.9 10 40.9 10.3 C 40.9 10.7 41 10.9 41.1 11.2 C 41.3 11.4 41.4 11.6 41.7 11.7 C 41.9 11.8 42.2 11.9 42.6 11.9 C 42.9 11.9 43.2 11.8 43.4 11.7 C 43.7 11.6 43.9 11.4 44 11.2 C 44.1 10.9 44.2 10.7 44.2 10.3 Z M 45.1 6.4 C 45.1 6.8 45 7.1 44.7 7.5 C 44.5 7.8 44.2 8.1 43.8 8.3 C 43.5 8.5 43 8.5 42.6 8.5 C 42.1 8.5 41.6 8.5 41.3 8.3 C 40.9 8.1 40.6 7.8 40.4 7.5 C 40.1 7.1 40 6.8 40 6.4 C 40 5.9 40.1 5.4 40.4 5.1 C 40.6 4.7 40.9 4.5 41.3 4.3 C 41.6 4.1 42.1 4 42.6 4 C 43 4 43.5 4.1 43.9 4.3 C 44.2 4.5 44.5 4.7 44.7 5.1 C 45 5.4 45.1 5.9 45.1 6.4 Z M 44 6.4 C 44 6.1 43.9 5.8 43.8 5.6 C 43.7 5.4 43.5 5.2 43.3 5.1 C 43.1 5 42.8 4.9 42.6 4.9 C 42.3 4.9 42 5 41.8 5.1 C 41.6 5.2 41.4 5.4 41.3 5.6 C 41.2 5.8 41.1 6.1 41.1 6.4 C 41.1 6.7 41.2 6.9 41.3 7.1 C 41.4 7.4 41.6 7.5 41.8 7.6 C 42 7.8 42.3 7.8 42.6 7.8 C 42.8 7.8 43.1 7.8 43.3 7.6 C 43.5 7.5 43.7 7.4 43.8 7.1 C 43.9 6.9 44 6.7 44 6.4 Z M 48 8.6 C 48.01 8.6 47.1 8.4 47.1 8.4 L 47.6 4.1 L 51.9 4.1 L 51.9 5.1 L 48.5 5.1 C 48.5 5.1 48.23 7.46 48.2 7.5 C 48.4 7.4 48.6 7.3 48.8 7.2 C 49.1 7.1 49.3 7.1 49.7 7.1 C 50 7.1 50.4 7.2 50.7 7.3 C 51 7.4 51.3 7.6 51.5 7.9 C 51.7 8.1 51.9 8.4 52 8.8 C 52.1 9.1 52.2 9.5 52.2 9.9 C 52.2 10.4 52.1 10.7 52 11.1 C 51.9 11.4 51.8 11.7 51.5 12 C 51.3 12.2 51 12.4 50.7 12.6 C 50.3 12.7 50 12.8 49.5 12.8 C 49.2 12.8 48.8 12.7 48.5 12.6 C 48.2 12.5 47.9 12.4 47.7 12.2 C 47.5 12 47.3 11.8 47.1 11.5 C 47 11.2 46.9 10.8 46.8 10.4 C 46.8 10.4 47.9 10.4 47.9 10.4 C 47.9 10.7 48 11 48.1 11.2 C 48.3 11.4 48.5 11.6 48.7 11.7 C 48.9 11.8 49.2 11.9 49.5 11.9 C 49.8 11.9 50 11.8 50.2 11.8 C 50.4 11.7 50.5 11.5 50.7 11.4 C 50.8 11.2 50.9 11 51 10.8 C 51.1 10.5 51.1 10.3 51.1 10 C 51.1 9.7 51.1 9.4 51 9.2 C 50.9 9 50.8 8.8 50.7 8.6 C 50.5 8.4 50.3 8.3 50.1 8.2 C 49.9 8.1 49.7 8.1 49.4 8.1 C 49 8.1 48.8 8.1 48.6 8.2 C 48.4 8.3 48.2 8.4 48 8.6 Z " stroke="none" fill="#000"/>  </g></svg>