<?xml version="1.0" standalone="no"?><!DOCTYPE svg PUBLIC "-//W3C//DTD SVG 1.1//EN" "http://www.w3.org/Graphics/SVG/1.1/DTD/svg11.dtd"><svg xmlns="http://www.w3.org/2000/svg" version="1.1" width="101px" height="92.4px" viewBox="0 -3 101 92.4" style="top:-3px">  <desc>Masa Aynas – Time r n Kodu: ZD 30746 Renk: Concrete Malzeme: Beton / Cam l ler: L 20 cm, W 6 cm, H 26,5 cm Tasar ...</desc>  <defs/>  <g id="Polygon41214">    <path d="M 2 68.6 L 2 64.2 L 0.3 64.2 L 0.3 63.7 L 4.2 63.7 L 4.2 64.2 L 2.5 64.2 L 2.5 68.6 L 2 68.6 Z M 7.5 68.1 C 7.2 68.5 6.7 68.7 6.2 68.7 C 5.8 68.7 5.5 68.6 5.2 68.4 C 5 68.2 4.8 67.9 4.8 67.5 C 4.8 67.5 4.8 67.5 4.8 67.5 C 4.8 67.2 5 66.9 5.2 66.7 C 5.5 66.5 5.9 66.4 6.4 66.4 C 6.7 66.4 7.1 66.4 7.5 66.5 C 7.5 66.5 7.5 66.4 7.5 66.4 C 7.5 66.1 7.4 65.8 7.2 65.7 C 7 65.5 6.7 65.4 6.4 65.4 C 6 65.4 5.7 65.5 5.3 65.7 C 5.3 65.7 5.1 65.2 5.1 65.2 C 5.6 65 6 64.9 6.5 64.9 C 7 64.9 7.4 65.1 7.6 65.3 C 7.9 65.6 8 65.9 8 66.4 C 7.99 66.39 8 68.6 8 68.6 L 7.5 68.6 L 7.5 68.1 C 7.5 68.1 7.48 68.05 7.5 68.1 Z M 6.3 68.2 C 6.6 68.2 6.9 68.2 7.1 68 C 7.4 67.8 7.5 67.6 7.5 67.3 C 7.5 67.3 7.5 66.9 7.5 66.9 C 7.1 66.8 6.8 66.8 6.4 66.8 C 6.1 66.8 5.8 66.8 5.6 67 C 5.5 67.1 5.4 67.3 5.4 67.5 C 5.4 67.5 5.4 67.5 5.4 67.5 C 5.4 67.7 5.5 67.9 5.6 68.1 C 5.8 68.2 6 68.2 6.3 68.2 Z M 10.3 68.7 C 9.8 68.7 9.3 68.5 8.8 68.1 C 8.8 68.1 9.1 67.8 9.1 67.8 C 9.5 68.1 9.9 68.2 10.4 68.2 C 10.6 68.2 10.8 68.2 10.9 68.1 C 11 68 11.1 67.8 11.1 67.6 C 11.1 67.6 11.1 67.6 11.1 67.6 C 11.1 67.5 11 67.3 10.9 67.2 C 10.7 67.2 10.5 67.1 10.2 67 C 10.1 67 10 66.9 9.9 66.9 C 9.9 66.9 9.8 66.8 9.7 66.8 C 9.5 66.8 9.5 66.7 9.4 66.7 C 9.3 66.6 9.3 66.6 9.2 66.5 C 9.1 66.4 9.1 66.4 9.1 66.3 C 9 66.2 9 66.1 9 66 C 9 66 9 66 9 66 C 9 65.6 9.1 65.4 9.4 65.2 C 9.6 65 9.9 64.9 10.2 64.9 C 10.7 64.9 11.1 65.1 11.5 65.3 C 11.5 65.3 11.3 65.7 11.3 65.7 C 10.9 65.5 10.6 65.4 10.2 65.4 C 10 65.4 9.9 65.4 9.7 65.5 C 9.6 65.6 9.5 65.7 9.5 65.9 C 9.5 65.9 9.5 65.9 9.5 65.9 C 9.5 66 9.6 66 9.6 66.1 C 9.6 66.1 9.7 66.2 9.7 66.2 C 9.8 66.3 9.8 66.3 9.9 66.4 C 10 66.4 10.1 66.4 10.2 66.4 C 10.2 66.5 10.3 66.5 10.5 66.5 C 10.6 66.6 10.7 66.6 10.8 66.6 C 10.9 66.7 11 66.7 11.1 66.8 C 11.2 66.8 11.3 66.9 11.4 67 C 11.5 67 11.5 67.1 11.6 67.2 C 11.6 67.3 11.6 67.4 11.6 67.6 C 11.6 67.6 11.6 67.6 11.6 67.6 C 11.6 67.9 11.5 68.2 11.3 68.4 C 11 68.6 10.7 68.7 10.3 68.7 Z M 15 68.1 C 14.7 68.5 14.3 68.7 13.7 68.7 C 13.3 68.7 13 68.6 12.8 68.4 C 12.5 68.2 12.4 67.9 12.4 67.5 C 12.4 67.5 12.4 67.5 12.4 67.5 C 12.4 67.2 12.5 66.9 12.8 66.7 C 13.1 66.5 13.4 66.4 13.9 66.4 C 14.3 66.4 14.6 66.4 15 66.5 C 15 66.5 15 66.4 15 66.4 C 15 66.1 14.9 65.8 14.7 65.7 C 14.5 65.5 14.3 65.4 13.9 65.4 C 13.6 65.4 13.2 65.5 12.8 65.7 C 12.8 65.7 12.7 65.2 12.7 65.2 C 13.1 65 13.5 64.9 14 64.9 C 14.5 64.9 14.9 65.1 15.2 65.3 C 15.4 65.6 15.5 65.9 15.5 66.4 C 15.53 66.39 15.5 68.6 15.5 68.6 L 15 68.6 L 15 68.1 C 15 68.1 15.01 68.05 15 68.1 Z M 13.8 68.2 C 14.2 68.2 14.4 68.2 14.7 68 C 14.9 67.8 15 67.6 15 67.3 C 15 67.3 15 66.9 15 66.9 C 14.7 66.8 14.3 66.8 14 66.8 C 13.6 66.8 13.4 66.8 13.2 67 C 13 67.1 12.9 67.3 12.9 67.5 C 12.9 67.5 12.9 67.5 12.9 67.5 C 12.9 67.7 13 67.9 13.2 68.1 C 13.3 68.2 13.6 68.2 13.8 68.2 Z M 16.7 68.6 L 16.7 65 L 17.2 65 C 17.2 65 17.22 65.93 17.2 65.9 C 17.4 65.6 17.6 65.4 17.8 65.2 C 18.1 65 18.4 64.9 18.7 64.9 C 18.7 64.92 18.7 65.5 18.7 65.5 C 18.7 65.5 18.65 65.5 18.7 65.5 C 18.2 65.5 17.9 65.6 17.6 65.9 C 17.4 66.2 17.2 66.6 17.2 67.2 C 17.22 67.16 17.2 68.6 17.2 68.6 L 16.7 68.6 Z M 19.6 68.6 L 19.6 65 L 20.1 65 L 20.1 68.6 L 19.6 68.6 Z M 21.4 68.6 L 21.4 65 L 21.9 65 C 21.9 65 21.9 65.59 21.9 65.6 C 22 65.4 22.2 65.2 22.4 65.1 C 22.6 65 22.8 64.9 23.1 64.9 C 23.6 64.9 24 65.1 24.2 65.6 C 24.5 65.1 25 64.9 25.5 64.9 C 25.9 64.9 26.2 65 26.5 65.3 C 26.7 65.6 26.8 65.9 26.8 66.4 C 26.84 66.36 26.8 68.6 26.8 68.6 L 26.3 68.6 C 26.3 68.6 26.31 66.49 26.3 66.5 C 26.3 66.1 26.2 65.9 26.1 65.7 C 25.9 65.5 25.7 65.4 25.4 65.4 C 25.1 65.4 24.9 65.5 24.7 65.7 C 24.5 65.9 24.4 66.2 24.4 66.5 C 24.37 66.51 24.4 68.6 24.4 68.6 L 23.8 68.6 C 23.8 68.6 23.83 66.47 23.8 66.5 C 23.8 66.1 23.8 65.9 23.6 65.7 C 23.4 65.5 23.2 65.4 22.9 65.4 C 22.6 65.4 22.4 65.5 22.2 65.7 C 22 65.9 21.9 66.2 21.9 66.5 C 21.9 66.53 21.9 68.6 21.9 68.6 L 21.4 68.6 Z M 28 65.7 L 28 65 L 28.6 65 L 28.6 65.7 L 28 65.7 Z M 28 68.6 L 28 67.9 L 28.6 67.9 L 28.6 68.6 L 28 68.6 Z M 32 68.6 L 32 63.7 L 32.5 63.7 L 34.3 66.4 L 36.1 63.7 L 36.7 63.7 L 36.7 68.6 L 36.1 68.6 L 36.1 64.6 L 34.3 67.3 L 34.3 67.3 L 32.5 64.6 L 32.5 68.6 L 32 68.6 Z M 40.3 68.1 C 40 68.5 39.6 68.7 39 68.7 C 38.7 68.7 38.3 68.6 38.1 68.4 C 37.8 68.2 37.7 67.9 37.7 67.5 C 37.7 67.5 37.7 67.5 37.7 67.5 C 37.7 67.2 37.8 66.9 38.1 66.7 C 38.4 66.5 38.8 66.4 39.2 66.4 C 39.6 66.4 40 66.4 40.3 66.5 C 40.3 66.5 40.3 66.4 40.3 66.4 C 40.3 66.1 40.2 65.8 40.1 65.7 C 39.9 65.5 39.6 65.4 39.3 65.4 C 38.9 65.4 38.5 65.5 38.2 65.7 C 38.2 65.7 38 65.2 38 65.2 C 38.4 65 38.9 64.9 39.3 64.9 C 39.8 64.9 40.2 65.1 40.5 65.3 C 40.7 65.6 40.9 65.9 40.9 66.4 C 40.85 66.39 40.9 68.6 40.9 68.6 L 40.3 68.6 L 40.3 68.1 C 40.3 68.1 40.33 68.05 40.3 68.1 Z M 39.1 68.2 C 39.5 68.2 39.8 68.2 40 68 C 40.2 67.8 40.3 67.6 40.3 67.3 C 40.3 67.3 40.3 66.9 40.3 66.9 C 40 66.8 39.6 66.8 39.3 66.8 C 38.9 66.8 38.7 66.8 38.5 67 C 38.3 67.1 38.2 67.3 38.2 67.5 C 38.2 67.5 38.2 67.5 38.2 67.5 C 38.2 67.7 38.3 67.9 38.5 68.1 C 38.7 68.2 38.9 68.2 39.1 68.2 Z M 43.2 68.6 L 41.6 65 L 42.2 65 L 43.5 68 L 44.7 65 L 45.3 65 L 43.7 68.6 L 43.2 68.6 Z M 46.1 68.6 L 46.1 65 L 46.6 65 C 46.6 65 46.65 65.93 46.6 65.9 C 46.8 65.6 47 65.4 47.2 65.2 C 47.5 65 47.8 64.9 48.1 64.9 C 48.12 64.92 48.1 65.5 48.1 65.5 C 48.1 65.5 48.08 65.5 48.1 65.5 C 47.7 65.5 47.3 65.6 47.1 65.9 C 46.8 66.2 46.6 66.6 46.6 67.2 C 46.65 67.16 46.6 68.6 46.6 68.6 L 46.1 68.6 Z M 50.6 68.7 C 50.1 68.7 49.6 68.5 49.3 68.1 C 48.9 67.8 48.7 67.3 48.7 66.8 C 48.7 66.8 48.7 66.8 48.7 66.8 C 48.7 66.3 48.9 65.8 49.3 65.5 C 49.6 65.1 50.1 64.9 50.6 64.9 C 51.1 64.9 51.6 65.1 52 65.5 C 52.3 65.8 52.5 66.3 52.5 66.8 C 52.5 66.8 52.5 66.8 52.5 66.8 C 52.5 67.3 52.3 67.8 51.9 68.1 C 51.6 68.5 51.1 68.7 50.6 68.7 Z M 50.6 68.2 C 51 68.2 51.3 68.1 51.6 67.8 C 51.8 67.5 51.9 67.2 51.9 66.8 C 51.9 66.8 51.9 66.8 51.9 66.8 C 51.9 66.4 51.8 66.1 51.6 65.8 C 51.3 65.5 51 65.4 50.6 65.4 C 50.2 65.4 49.9 65.5 49.6 65.8 C 49.4 66.1 49.3 66.4 49.3 66.8 C 49.3 66.8 49.3 66.8 49.3 66.8 C 49.3 67.2 49.4 67.5 49.7 67.8 C 49.9 68.1 50.2 68.2 50.6 68.2 Z M 52.7 69.5 L 56 63 L 56.5 63 L 53.2 69.5 L 52.7 69.5 Z M 57.1 68.6 L 57.1 63.7 L 57.7 63.7 L 57.7 68.1 L 60.4 68.1 L 60.4 68.6 L 57.1 68.6 Z M 64.4 68 C 64 68.5 63.5 68.7 62.9 68.7 C 62.4 68.7 62 68.5 61.6 68.2 C 61.3 67.8 61.1 67.4 61.1 66.8 C 61.1 66.8 61.1 66.8 61.1 66.8 C 61.1 66.3 61.3 65.8 61.6 65.4 C 61.9 65.1 62.3 64.9 62.8 64.9 C 63.4 64.9 63.8 65.1 64.1 65.4 C 64.4 65.8 64.5 66.3 64.5 66.8 C 64.5 66.9 64.5 66.9 64.5 67 C 64.5 67 61.6 67 61.6 67 C 61.7 67.4 61.8 67.7 62.1 67.9 C 62.3 68.1 62.6 68.2 62.9 68.2 C 63.4 68.2 63.7 68 64.1 67.7 C 64.06 67.7 64.4 68 64.4 68 C 64.4 68 64.4 68 64.4 68 Z M 61.6 66.6 C 61.6 66.6 64 66.6 64 66.6 C 64 66.2 63.8 65.9 63.6 65.7 C 63.4 65.5 63.2 65.4 62.8 65.4 C 62.5 65.4 62.2 65.5 62 65.7 C 61.8 65.9 61.7 66.2 61.6 66.6 Z M 65.7 68.6 L 65.7 65.5 L 65.2 65.5 L 65.2 65 L 65.7 65 C 65.7 65 65.67 64.67 65.7 64.7 C 65.7 64.3 65.8 64 66 63.7 C 66.2 63.6 66.4 63.5 66.8 63.5 C 67 63.5 67.2 63.5 67.4 63.6 C 67.4 63.6 67.4 64 67.4 64 C 67.1 64 67 63.9 66.8 63.9 C 66.4 63.9 66.2 64.2 66.2 64.7 C 66.21 64.7 66.2 65 66.2 65 L 67.4 65 L 67.4 65.5 L 66.2 65.5 L 66.2 68.6 L 65.7 68.6 Z M 71.1 68 C 70.7 68.5 70.2 68.7 69.6 68.7 C 69.1 68.7 68.7 68.5 68.3 68.2 C 68 67.8 67.8 67.4 67.8 66.8 C 67.8 66.8 67.8 66.8 67.8 66.8 C 67.8 66.3 68 65.8 68.3 65.4 C 68.6 65.1 69.1 64.9 69.6 64.9 C 70.1 64.9 70.5 65.1 70.8 65.4 C 71.1 65.8 71.2 66.3 71.2 66.8 C 71.2 66.9 71.2 66.9 71.2 67 C 71.2 67 68.4 67 68.4 67 C 68.4 67.4 68.5 67.7 68.8 67.9 C 69 68.1 69.3 68.2 69.6 68.2 C 70.1 68.2 70.4 68 70.8 67.7 C 70.78 67.7 71.1 68 71.1 68 C 71.1 68 71.11 68 71.1 68 Z M 68.4 66.6 C 68.4 66.6 70.7 66.6 70.7 66.6 C 70.7 66.2 70.6 65.9 70.4 65.7 C 70.2 65.5 69.9 65.4 69.5 65.4 C 69.2 65.4 69 65.5 68.7 65.7 C 68.5 65.9 68.4 66.2 68.4 66.6 Z M 69.3 64.4 L 68.5 63.7 L 69.1 63.4 L 69.8 64.4 L 69.3 64.4 Z M 73.4 68.6 L 71.8 65 L 72.4 65 L 73.6 68 L 74.9 65 L 75.4 65 L 73.9 68.6 L 73.4 68.6 Z M 76.3 68.6 L 76.3 65 L 76.8 65 C 76.8 65 76.83 65.93 76.8 65.9 C 77 65.6 77.2 65.4 77.4 65.2 C 77.7 65 78 64.9 78.3 64.9 C 78.31 64.92 78.3 65.5 78.3 65.5 C 78.3 65.5 78.27 65.5 78.3 65.5 C 77.9 65.5 77.5 65.6 77.2 65.9 C 77 66.2 76.8 66.6 76.8 67.2 C 76.83 67.16 76.8 68.6 76.8 68.6 L 76.3 68.6 Z M 82.2 68 C 81.8 68.5 81.3 68.7 80.7 68.7 C 80.2 68.7 79.8 68.5 79.4 68.2 C 79.1 67.8 78.9 67.4 78.9 66.8 C 78.9 66.8 78.9 66.8 78.9 66.8 C 78.9 66.3 79.1 65.8 79.4 65.4 C 79.7 65.1 80.1 64.9 80.6 64.9 C 81.2 64.9 81.6 65.1 81.9 65.4 C 82.2 65.8 82.3 66.3 82.3 66.8 C 82.3 66.9 82.3 66.9 82.3 67 C 82.3 67 79.4 67 79.4 67 C 79.5 67.4 79.6 67.7 79.9 67.9 C 80.1 68.1 80.4 68.2 80.7 68.2 C 81.2 68.2 81.5 68 81.9 67.7 C 81.86 67.7 82.2 68 82.2 68 C 82.2 68 82.2 68 82.2 68 Z M 79.4 66.6 C 79.4 66.6 81.8 66.6 81.8 66.6 C 81.8 66.2 81.6 65.9 81.4 65.7 C 81.2 65.5 81 65.4 80.6 65.4 C 80.3 65.4 80 65.5 79.8 65.7 C 79.6 65.9 79.5 66.2 79.4 66.6 Z " stroke="none" fill="#000"/>  </g>  <g id="Polygon41213">    <path d="M 0.7 59.6 L 0.7 54.7 L 1.2 54.7 L 1.2 56.9 L 4.1 56.9 L 4.1 54.7 L 4.6 54.7 L 4.6 59.6 L 4.1 59.6 L 4.1 57.4 L 1.2 57.4 L 1.2 59.6 L 0.7 59.6 Z M 7.8 59.6 L 7.8 59.2 C 7.8 59.2 9.53 57.6 9.5 57.6 C 9.9 57.3 10.2 57 10.3 56.8 C 10.5 56.5 10.6 56.3 10.6 56.1 C 10.6 55.8 10.5 55.6 10.3 55.4 C 10.1 55.2 9.8 55.1 9.6 55.1 C 9.3 55.1 9.1 55.2 8.9 55.3 C 8.7 55.5 8.5 55.7 8.3 56 C 8.3 56 7.8 55.7 7.8 55.7 C 8.1 55.3 8.3 55 8.6 54.9 C 8.9 54.7 9.2 54.6 9.6 54.6 C 10 54.6 10.4 54.8 10.7 55 C 11 55.3 11.1 55.6 11.1 56 C 11.1 56 11.1 56 11.1 56 C 11.1 56.4 11 56.7 10.9 56.9 C 10.7 57.2 10.4 57.5 9.9 57.9 C 9.89 57.93 8.6 59.1 8.6 59.1 L 11.2 59.1 L 11.2 59.6 L 7.8 59.6 Z M 13.9 59.7 C 13.4 59.7 13 59.5 12.7 59.2 C 12.4 59 12.3 58.7 12.2 58.4 C 12.1 58.1 12 57.8 12 57.3 C 12 57.3 12 57.3 12 57.3 C 12 56.5 12.2 55.9 12.6 55.4 C 13 54.9 13.5 54.6 14.1 54.6 C 14.6 54.6 15.1 54.8 15.5 55.2 C 15.5 55.2 15.2 55.6 15.2 55.6 C 14.8 55.3 14.4 55.1 14 55.1 C 13.6 55.1 13.2 55.3 13 55.7 C 12.7 56.1 12.6 56.6 12.6 57.2 C 12.6 57.2 12.6 57.3 12.6 57.3 C 13 56.8 13.4 56.5 14 56.5 C 14.5 56.5 14.9 56.7 15.2 57 C 15.5 57.2 15.7 57.6 15.7 58 C 15.7 58 15.7 58.1 15.7 58.1 C 15.7 58.5 15.5 58.9 15.2 59.2 C 14.9 59.5 14.4 59.7 13.9 59.7 Z M 14 59.2 C 14.3 59.2 14.6 59.1 14.8 58.9 C 15 58.7 15.1 58.4 15.1 58.1 C 15.1 58.1 15.1 58.1 15.1 58.1 C 15.1 57.8 15 57.5 14.8 57.3 C 14.6 57.1 14.3 57 13.9 57 C 13.6 57 13.3 57.1 13.1 57.3 C 12.8 57.6 12.7 57.8 12.7 58.1 C 12.7 58.1 12.7 58.1 12.7 58.1 C 12.7 58.4 12.8 58.7 13.1 58.9 C 13.3 59.1 13.6 59.2 14 59.2 Z M 16.5 60.5 C 16.5 60.5 16.5 60.2 16.5 60.2 C 16.8 60.1 17 59.9 16.9 59.6 C 16.93 59.6 16.7 59.6 16.7 59.6 L 16.7 58.9 L 17.3 58.9 C 17.3 58.9 17.32 59.49 17.3 59.5 C 17.3 59.8 17.3 60 17.1 60.1 C 17 60.3 16.8 60.4 16.5 60.5 Z M 20 59.7 C 19.3 59.7 18.7 59.4 18.2 58.9 C 18.2 58.9 18.6 58.5 18.6 58.5 C 19 59 19.5 59.2 20 59.2 C 20.3 59.2 20.6 59.1 20.8 58.9 C 21.1 58.7 21.2 58.4 21.2 58.1 C 21.2 58.1 21.2 58.1 21.2 58.1 C 21.2 57.8 21.1 57.5 20.8 57.3 C 20.6 57.1 20.3 57.1 19.9 57.1 C 19.6 57.1 19.3 57.1 18.9 57.3 C 18.92 57.33 18.5 57.1 18.5 57.1 L 18.7 54.7 L 21.5 54.7 L 21.5 55.2 L 19.2 55.2 C 19.2 55.2 19.07 56.78 19.1 56.8 C 19.4 56.6 19.7 56.6 20 56.6 C 20.5 56.6 20.9 56.7 21.2 57 C 21.6 57.2 21.7 57.6 21.7 58.1 C 21.7 58.1 21.7 58.1 21.7 58.1 C 21.7 58.5 21.6 58.9 21.2 59.2 C 20.9 59.5 20.5 59.7 20 59.7 Z M 28 59 C 27.5 59.5 27 59.7 26.5 59.7 C 25.9 59.7 25.5 59.5 25.2 59.1 C 24.8 58.8 24.6 58.3 24.6 57.8 C 24.6 57.8 24.6 57.8 24.6 57.8 C 24.6 57.3 24.8 56.8 25.2 56.5 C 25.5 56.1 25.9 55.9 26.5 55.9 C 27 55.9 27.5 56.1 27.9 56.5 C 27.9 56.5 27.6 56.9 27.6 56.9 C 27.2 56.6 26.9 56.4 26.5 56.4 C 26.1 56.4 25.8 56.5 25.5 56.8 C 25.3 57.1 25.2 57.4 25.2 57.8 C 25.2 57.8 25.2 57.8 25.2 57.8 C 25.2 58.2 25.3 58.5 25.6 58.8 C 25.8 59.1 26.1 59.2 26.5 59.2 C 26.9 59.2 27.3 59 27.6 58.7 C 27.61 58.66 28 59 28 59 C 28 59 27.95 58.98 28 59 Z M 28.8 59.6 L 28.8 56 L 29.4 56 C 29.4 56 29.38 56.59 29.4 56.6 C 29.5 56.4 29.7 56.2 29.9 56.1 C 30 56 30.3 55.9 30.5 55.9 C 31.1 55.9 31.5 56.1 31.7 56.6 C 32 56.1 32.5 55.9 33 55.9 C 33.4 55.9 33.7 56 34 56.3 C 34.2 56.6 34.3 56.9 34.3 57.4 C 34.33 57.36 34.3 59.6 34.3 59.6 L 33.8 59.6 C 33.8 59.6 33.79 57.49 33.8 57.5 C 33.8 57.1 33.7 56.9 33.5 56.7 C 33.4 56.5 33.1 56.4 32.9 56.4 C 32.6 56.4 32.3 56.5 32.1 56.7 C 31.9 56.9 31.8 57.2 31.8 57.5 C 31.85 57.51 31.8 59.6 31.8 59.6 L 31.3 59.6 C 31.3 59.6 31.32 57.47 31.3 57.5 C 31.3 57.1 31.2 56.9 31.1 56.7 C 30.9 56.5 30.7 56.4 30.4 56.4 C 30.1 56.4 29.9 56.5 29.7 56.7 C 29.5 56.9 29.4 57.2 29.4 57.5 C 29.38 57.53 29.4 59.6 29.4 59.6 L 28.8 59.6 Z " stroke="none" fill="#000"/>  </g>  <g id="Polygon41212">    <path d="M 3.3 45.2 L 3.3 44.6 L 4 44.6 L 4 45.2 L 3.3 45.2 Z M 2 45.2 L 2 44.6 L 2.6 44.6 L 2.6 45.2 L 2 45.2 Z M 5.5 48.1 C 5.5 48.8 5.2 49.4 4.8 49.9 C 4.3 50.4 3.7 50.7 3 50.7 C 2.2 50.7 1.6 50.4 1.2 49.9 C 0.7 49.5 0.5 48.9 0.5 48.2 C 0.5 48.2 0.5 48.1 0.5 48.1 C 0.5 47.5 0.7 46.9 1.2 46.4 C 1.7 45.9 2.3 45.6 3 45.6 C 3.7 45.6 4.3 45.9 4.8 46.4 C 5.2 46.8 5.5 47.4 5.5 48.1 C 5.47 48.14 5.5 48.1 5.5 48.1 C 5.5 48.1 5.47 48.15 5.5 48.1 Z M 1.1 48.1 C 1.1 48.7 1.2 49.2 1.6 49.6 C 2 50 2.4 50.2 3 50.2 C 3.5 50.2 4 50 4.4 49.6 C 4.7 49.2 4.9 48.7 4.9 48.2 C 4.9 48.2 4.9 48.1 4.9 48.1 C 4.9 47.6 4.7 47.1 4.4 46.7 C 4 46.3 3.5 46.1 3 46.1 C 2.4 46.1 2 46.3 1.6 46.7 C 1.2 47.1 1.1 47.6 1.1 48.1 C 1.05 48.14 1.1 48.1 1.1 48.1 C 1.1 48.1 1.05 48.15 1.1 48.1 Z M 6.6 50.6 L 6.6 45.5 L 7.1 45.5 L 7.1 50.6 L 6.6 50.6 Z M 9.7 51.7 L 9.1 51.4 C 9.1 51.4 9.69 50.65 9.7 50.6 C 9.2 50.6 8.9 50.4 8.6 50 C 8.3 49.7 8.2 49.3 8.2 48.8 C 8.2 48.8 8.2 48.8 8.2 48.8 C 8.2 48.3 8.3 47.8 8.7 47.5 C 9.1 47.1 9.5 46.9 10 46.9 C 10.6 46.9 11.1 47.1 11.5 47.5 C 11.5 47.5 11.1 47.9 11.1 47.9 C 10.8 47.6 10.4 47.4 10 47.4 C 9.6 47.4 9.3 47.5 9.1 47.8 C 8.8 48.1 8.7 48.4 8.7 48.8 C 8.7 48.8 8.7 48.8 8.7 48.8 C 8.7 49.2 8.8 49.5 9.1 49.8 C 9.4 50.1 9.7 50.2 10.1 50.2 C 10.5 50.2 10.8 50 11.2 49.7 C 11.2 49.7 11.5 50 11.5 50 C 11.1 50.4 10.7 50.7 10.1 50.7 C 10.13 50.68 9.7 51.7 9.7 51.7 Z M 14.2 46.4 L 14.2 45.8 L 14.8 45.8 L 14.8 46.4 L 14.2 46.4 Z M 13 46.4 L 13 45.8 L 13.6 45.8 L 13.6 46.4 L 13 46.4 Z M 15 50 C 14.7 50.4 14.3 50.7 13.7 50.7 C 13.3 50.7 13 50.5 12.7 50.3 C 12.5 50 12.3 49.7 12.3 49.2 C 12.33 49.23 12.3 47 12.3 47 L 12.9 47 C 12.9 47 12.87 49.09 12.9 49.1 C 12.9 49.4 13 49.7 13.1 49.9 C 13.3 50.1 13.6 50.2 13.9 50.2 C 14.2 50.2 14.4 50.1 14.7 49.9 C 14.9 49.7 15 49.4 15 49.1 C 14.96 49.05 15 47 15 47 L 15.5 47 L 15.5 50.6 L 15 50.6 L 15 50 C 15 50 14.96 49.97 15 50 Z M 16.8 50.6 L 16.8 45.5 L 17.3 45.5 L 17.3 50.6 L 16.8 50.6 Z M 21.6 50 C 21.2 50.5 20.7 50.7 20.1 50.7 C 19.6 50.7 19.2 50.5 18.8 50.2 C 18.5 49.8 18.3 49.4 18.3 48.8 C 18.3 48.8 18.3 48.8 18.3 48.8 C 18.3 48.3 18.5 47.8 18.8 47.4 C 19.1 47.1 19.6 46.9 20.1 46.9 C 20.6 46.9 21 47.1 21.3 47.4 C 21.6 47.8 21.7 48.3 21.7 48.8 C 21.7 48.9 21.7 48.9 21.7 49 C 21.7 49 18.9 49 18.9 49 C 18.9 49.4 19 49.7 19.3 49.9 C 19.5 50.1 19.8 50.2 20.1 50.2 C 20.6 50.2 20.9 50 21.3 49.7 C 21.28 49.7 21.6 50 21.6 50 C 21.6 50 21.62 50 21.6 50 Z M 18.9 48.6 C 18.9 48.6 21.2 48.6 21.2 48.6 C 21.2 48.2 21.1 47.9 20.9 47.7 C 20.7 47.5 20.4 47.4 20 47.4 C 19.7 47.4 19.5 47.5 19.2 47.7 C 19 47.9 18.9 48.2 18.9 48.6 Z M 22.7 50.6 L 22.7 47 L 23.2 47 C 23.2 47 23.23 47.93 23.2 47.9 C 23.4 47.6 23.6 47.4 23.8 47.2 C 24.1 47 24.4 46.9 24.7 46.9 C 24.7 46.92 24.7 47.5 24.7 47.5 C 24.7 47.5 24.66 47.5 24.7 47.5 C 24.2 47.5 23.9 47.6 23.6 47.9 C 23.4 48.2 23.2 48.6 23.2 49.2 C 23.23 49.16 23.2 50.6 23.2 50.6 L 22.7 50.6 Z M 25.5 47.7 L 25.5 47 L 26.1 47 L 26.1 47.7 L 25.5 47.7 Z M 25.5 50.6 L 25.5 49.9 L 26.1 49.9 L 26.1 50.6 L 25.5 50.6 Z M 29.5 50.6 L 29.5 45.7 L 30 45.7 L 30 50.1 L 32.8 50.1 L 32.8 50.6 L 29.5 50.6 Z M 35.5 50.6 L 35.5 50.2 C 35.5 50.2 37.32 48.6 37.3 48.6 C 37.7 48.3 38 48 38.1 47.8 C 38.3 47.5 38.3 47.3 38.3 47.1 C 38.3 46.8 38.2 46.6 38.1 46.4 C 37.9 46.2 37.6 46.1 37.4 46.1 C 37.1 46.1 36.8 46.2 36.6 46.3 C 36.4 46.5 36.2 46.7 36 47 C 36 47 35.6 46.7 35.6 46.7 C 35.9 46.3 36.1 46 36.4 45.9 C 36.6 45.7 37 45.6 37.4 45.6 C 37.8 45.6 38.2 45.8 38.5 46 C 38.8 46.3 38.9 46.6 38.9 47 C 38.9 47 38.9 47 38.9 47 C 38.9 47.4 38.8 47.7 38.6 47.9 C 38.5 48.2 38.1 48.5 37.7 48.9 C 37.67 48.93 36.4 50.1 36.4 50.1 L 39 50.1 L 39 50.6 L 35.5 50.6 Z M 44 48.1 C 44 48.9 43.8 49.5 43.4 49.9 C 43 50.4 42.5 50.7 41.9 50.7 C 41.3 50.7 40.8 50.4 40.4 50 C 40 49.5 39.8 48.9 39.8 48.2 C 39.8 48.2 39.8 48.1 39.8 48.1 C 39.8 47.4 40 46.8 40.4 46.4 C 40.8 45.9 41.3 45.6 41.9 45.6 C 42.5 45.6 43 45.9 43.4 46.3 C 43.8 46.8 44 47.4 44 48.1 C 43.97 48.14 44 48.1 44 48.1 C 44 48.1 43.97 48.15 44 48.1 Z M 40.4 48.1 C 40.4 48.7 40.5 49.2 40.8 49.6 C 41.1 50 41.5 50.2 41.9 50.2 C 42.4 50.2 42.7 50 43 49.6 C 43.3 49.2 43.4 48.7 43.4 48.2 C 43.4 48.2 43.4 48.1 43.4 48.1 C 43.4 47.6 43.3 47.1 43 46.7 C 42.7 46.3 42.3 46.1 41.9 46.1 C 41.5 46.1 41.1 46.3 40.8 46.7 C 40.5 47.1 40.4 47.6 40.4 48.1 C 40.4 48.14 40.4 48.1 40.4 48.1 C 40.4 48.1 40.4 48.15 40.4 48.1 Z M 50.2 50 C 49.8 50.5 49.3 50.7 48.7 50.7 C 48.2 50.7 47.8 50.5 47.4 50.1 C 47.1 49.8 46.9 49.3 46.9 48.8 C 46.9 48.8 46.9 48.8 46.9 48.8 C 46.9 48.3 47.1 47.8 47.4 47.5 C 47.8 47.1 48.2 46.9 48.7 46.9 C 49.3 46.9 49.8 47.1 50.2 47.5 C 50.2 47.5 49.8 47.9 49.8 47.9 C 49.5 47.6 49.1 47.4 48.7 47.4 C 48.4 47.4 48 47.5 47.8 47.8 C 47.6 48.1 47.4 48.4 47.4 48.8 C 47.4 48.8 47.4 48.8 47.4 48.8 C 47.4 49.2 47.6 49.5 47.8 49.8 C 48.1 50.1 48.4 50.2 48.8 50.2 C 49.2 50.2 49.5 50 49.9 49.7 C 49.87 49.66 50.2 50 50.2 50 C 50.2 50 50.21 49.98 50.2 50 Z M 51.1 50.6 L 51.1 47 L 51.6 47 C 51.6 47 51.64 47.59 51.6 47.6 C 51.8 47.4 51.9 47.2 52.1 47.1 C 52.3 47 52.5 46.9 52.8 46.9 C 53.4 46.9 53.7 47.1 54 47.6 C 54.3 47.1 54.7 46.9 55.2 46.9 C 55.7 46.9 56 47 56.2 47.3 C 56.5 47.6 56.6 47.9 56.6 48.4 C 56.59 48.36 56.6 50.6 56.6 50.6 L 56 50.6 C 56 50.6 56.05 48.49 56 48.5 C 56 48.1 56 47.9 55.8 47.7 C 55.6 47.5 55.4 47.4 55.1 47.4 C 54.8 47.4 54.6 47.5 54.4 47.7 C 54.2 47.9 54.1 48.2 54.1 48.5 C 54.11 48.51 54.1 50.6 54.1 50.6 L 53.6 50.6 C 53.6 50.6 53.58 48.47 53.6 48.5 C 53.6 48.1 53.5 47.9 53.3 47.7 C 53.2 47.5 52.9 47.4 52.6 47.4 C 52.4 47.4 52.1 47.5 51.9 47.7 C 51.7 47.9 51.6 48.2 51.6 48.5 C 51.64 48.53 51.6 50.6 51.6 50.6 L 51.1 50.6 Z M 57.5 51.5 C 57.5 51.5 57.5 51.2 57.5 51.2 C 57.8 51.1 58 50.9 57.9 50.6 C 57.92 50.6 57.7 50.6 57.7 50.6 L 57.7 49.9 L 58.3 49.9 C 58.3 49.9 58.32 50.49 58.3 50.5 C 58.3 50.8 58.3 51 58.1 51.1 C 58 51.3 57.8 51.4 57.5 51.5 Z M 63 50.6 L 61.3 45.7 L 61.9 45.7 L 63.3 49.8 L 64.6 45.7 L 65.1 45.7 L 66.4 49.8 L 67.8 45.7 L 68.4 45.7 L 66.6 50.6 L 66.2 50.6 L 64.8 46.7 L 63.5 50.6 L 63 50.6 Z M 73.1 50.7 C 72.6 50.7 72.2 50.5 71.8 50.2 C 71.6 50 71.5 49.7 71.4 49.4 C 71.3 49.1 71.2 48.8 71.2 48.3 C 71.2 48.3 71.2 48.3 71.2 48.3 C 71.2 47.5 71.4 46.9 71.8 46.4 C 72.1 45.9 72.6 45.6 73.3 45.6 C 73.8 45.6 74.3 45.8 74.7 46.2 C 74.7 46.2 74.4 46.6 74.4 46.6 C 74 46.3 73.6 46.1 73.2 46.1 C 72.8 46.1 72.4 46.3 72.2 46.7 C 71.9 47.1 71.8 47.6 71.8 48.2 C 71.8 48.2 71.8 48.3 71.8 48.3 C 72.1 47.8 72.6 47.5 73.2 47.5 C 73.7 47.5 74.1 47.7 74.4 48 C 74.7 48.2 74.9 48.6 74.9 49 C 74.9 49 74.9 49.1 74.9 49.1 C 74.9 49.5 74.7 49.9 74.4 50.2 C 74 50.5 73.6 50.7 73.1 50.7 Z M 73.1 50.2 C 73.5 50.2 73.8 50.1 74 49.9 C 74.2 49.7 74.3 49.4 74.3 49.1 C 74.3 49.1 74.3 49.1 74.3 49.1 C 74.3 48.8 74.2 48.5 74 48.3 C 73.8 48.1 73.5 48 73.1 48 C 72.8 48 72.5 48.1 72.2 48.3 C 72 48.6 71.9 48.8 71.9 49.1 C 71.9 49.1 71.9 49.1 71.9 49.1 C 71.9 49.4 72 49.7 72.2 49.9 C 72.5 50.1 72.8 50.2 73.1 50.2 Z M 81.1 50 C 80.7 50.5 80.2 50.7 79.7 50.7 C 79.1 50.7 78.7 50.5 78.3 50.1 C 78 49.8 77.8 49.3 77.8 48.8 C 77.8 48.8 77.8 48.8 77.8 48.8 C 77.8 48.3 78 47.8 78.3 47.5 C 78.7 47.1 79.1 46.9 79.7 46.9 C 80.2 46.9 80.7 47.1 81.1 47.5 C 81.1 47.5 80.8 47.9 80.8 47.9 C 80.4 47.6 80 47.4 79.7 47.4 C 79.3 47.4 79 47.5 78.7 47.8 C 78.5 48.1 78.4 48.4 78.4 48.8 C 78.4 48.8 78.4 48.8 78.4 48.8 C 78.4 49.2 78.5 49.5 78.7 49.8 C 79 50.1 79.3 50.2 79.7 50.2 C 80.1 50.2 80.5 50 80.8 49.7 C 80.79 49.66 81.1 50 81.1 50 C 81.1 50 81.14 49.98 81.1 50 Z M 82 50.6 L 82 47 L 82.6 47 C 82.6 47 82.56 47.59 82.6 47.6 C 82.7 47.4 82.9 47.2 83 47.1 C 83.2 47 83.5 46.9 83.7 46.9 C 84.3 46.9 84.7 47.1 84.9 47.6 C 85.2 47.1 85.6 46.9 86.2 46.9 C 86.6 46.9 86.9 47 87.2 47.3 C 87.4 47.6 87.5 47.9 87.5 48.4 C 87.51 48.36 87.5 50.6 87.5 50.6 L 87 50.6 C 87 50.6 86.97 48.49 87 48.5 C 87 48.1 86.9 47.9 86.7 47.7 C 86.6 47.5 86.3 47.4 86 47.4 C 85.8 47.4 85.5 47.5 85.3 47.7 C 85.1 47.9 85 48.2 85 48.5 C 85.03 48.51 85 50.6 85 50.6 L 84.5 50.6 C 84.5 50.6 84.5 48.47 84.5 48.5 C 84.5 48.1 84.4 47.9 84.3 47.7 C 84.1 47.5 83.9 47.4 83.6 47.4 C 83.3 47.4 83 47.5 82.9 47.7 C 82.7 47.9 82.6 48.2 82.6 48.5 C 82.56 48.53 82.6 50.6 82.6 50.6 L 82 50.6 Z M 88.5 51.5 C 88.5 51.5 88.4 51.2 88.4 51.2 C 88.7 51.1 88.9 50.9 88.8 50.6 C 88.85 50.6 88.6 50.6 88.6 50.6 L 88.6 49.9 L 89.2 49.9 C 89.2 49.9 89.24 50.49 89.2 50.5 C 89.2 50.8 89.2 51 89.1 51.1 C 88.9 51.3 88.7 51.4 88.5 51.5 Z " stroke="none" fill="#000"/>  </g>  <g id="Polygon41211">    <path d="M 0.7 41.6 L 0.7 36.7 L 1.3 36.7 L 3 39.4 L 4.8 36.7 L 5.4 36.7 L 5.4 41.6 L 4.8 41.6 L 4.8 37.6 L 3 40.3 L 3 40.3 L 1.2 37.6 L 1.2 41.6 L 0.7 41.6 Z M 9.1 41.1 C 8.7 41.5 8.3 41.7 7.8 41.7 C 7.4 41.7 7.1 41.6 6.8 41.4 C 6.5 41.2 6.4 40.9 6.4 40.5 C 6.4 40.5 6.4 40.5 6.4 40.5 C 6.4 40.2 6.5 39.9 6.8 39.7 C 7.1 39.5 7.5 39.4 8 39.4 C 8.3 39.4 8.7 39.4 9.1 39.5 C 9.1 39.5 9.1 39.4 9.1 39.4 C 9.1 39.1 9 38.8 8.8 38.7 C 8.6 38.5 8.3 38.4 8 38.4 C 7.6 38.4 7.3 38.5 6.9 38.7 C 6.9 38.7 6.7 38.2 6.7 38.2 C 7.2 38 7.6 37.9 8 37.9 C 8.6 37.9 8.9 38.1 9.2 38.3 C 9.5 38.6 9.6 38.9 9.6 39.4 C 9.58 39.39 9.6 41.6 9.6 41.6 L 9.1 41.6 L 9.1 41.1 C 9.1 41.1 9.06 41.05 9.1 41.1 Z M 7.9 41.2 C 8.2 41.2 8.5 41.2 8.7 41 C 9 40.8 9.1 40.6 9.1 40.3 C 9.1 40.3 9.1 39.9 9.1 39.9 C 8.7 39.8 8.4 39.8 8 39.8 C 7.7 39.8 7.4 39.8 7.2 40 C 7 40.1 7 40.3 7 40.5 C 7 40.5 7 40.5 7 40.5 C 7 40.7 7 40.9 7.2 41.1 C 7.4 41.2 7.6 41.2 7.9 41.2 Z M 10.8 41.6 L 10.8 36.5 L 11.3 36.5 L 11.3 41.6 L 10.8 41.6 Z M 12.4 41.6 L 12.4 41.3 L 14.8 38.4 L 12.4 38.4 L 12.4 38 L 15.5 38 L 15.5 38.3 L 13.1 41.1 L 15.5 41.1 L 15.5 41.6 L 12.4 41.6 Z M 19.5 41 C 19.1 41.5 18.6 41.7 18 41.7 C 17.5 41.7 17.1 41.5 16.8 41.2 C 16.4 40.8 16.2 40.4 16.2 39.8 C 16.2 39.8 16.2 39.8 16.2 39.8 C 16.2 39.3 16.4 38.8 16.7 38.4 C 17.1 38.1 17.5 37.9 18 37.9 C 18.5 37.9 18.9 38.1 19.2 38.4 C 19.5 38.8 19.7 39.3 19.7 39.8 C 19.7 39.9 19.7 39.9 19.7 40 C 19.7 40 16.8 40 16.8 40 C 16.8 40.4 17 40.7 17.2 40.9 C 17.4 41.1 17.7 41.2 18.1 41.2 C 18.5 41.2 18.9 41 19.2 40.7 C 19.2 40.7 19.5 41 19.5 41 C 19.5 41 19.54 41 19.5 41 Z M 16.8 39.6 C 16.8 39.6 19.1 39.6 19.1 39.6 C 19.1 39.2 19 38.9 18.8 38.7 C 18.6 38.5 18.3 38.4 18 38.4 C 17.6 38.4 17.4 38.5 17.2 38.7 C 17 38.9 16.8 39.2 16.8 39.6 Z M 20.6 41.6 L 20.6 38 L 21.1 38 C 21.1 38 21.15 38.59 21.1 38.6 C 21.3 38.4 21.5 38.2 21.6 38.1 C 21.8 38 22 37.9 22.3 37.9 C 22.9 37.9 23.2 38.1 23.5 38.6 C 23.8 38.1 24.2 37.9 24.8 37.9 C 25.2 37.9 25.5 38 25.7 38.3 C 26 38.6 26.1 38.9 26.1 39.4 C 26.1 39.36 26.1 41.6 26.1 41.6 L 25.6 41.6 C 25.6 41.6 25.56 39.49 25.6 39.5 C 25.6 39.1 25.5 38.9 25.3 38.7 C 25.1 38.5 24.9 38.4 24.6 38.4 C 24.3 38.4 24.1 38.5 23.9 38.7 C 23.7 38.9 23.6 39.2 23.6 39.5 C 23.62 39.51 23.6 41.6 23.6 41.6 L 23.1 41.6 C 23.1 41.6 23.09 39.47 23.1 39.5 C 23.1 39.1 23 38.9 22.8 38.7 C 22.7 38.5 22.4 38.4 22.2 38.4 C 21.9 38.4 21.6 38.5 21.4 38.7 C 21.2 38.9 21.1 39.2 21.1 39.5 C 21.15 39.53 21.1 41.6 21.1 41.6 L 20.6 41.6 Z M 30.3 41 C 29.9 41.5 29.4 41.7 28.8 41.7 C 28.3 41.7 27.9 41.5 27.5 41.2 C 27.2 40.8 27 40.4 27 39.8 C 27 39.8 27 39.8 27 39.8 C 27 39.3 27.2 38.8 27.5 38.4 C 27.8 38.1 28.3 37.9 28.8 37.9 C 29.3 37.9 29.7 38.1 30 38.4 C 30.3 38.8 30.4 39.3 30.4 39.8 C 30.4 39.9 30.4 39.9 30.4 40 C 30.4 40 27.6 40 27.6 40 C 27.6 40.4 27.7 40.7 28 40.9 C 28.2 41.1 28.5 41.2 28.8 41.2 C 29.3 41.2 29.6 41 30 40.7 C 29.98 40.7 30.3 41 30.3 41 C 30.3 41 30.32 41 30.3 41 Z M 27.6 39.6 C 27.6 39.6 29.9 39.6 29.9 39.6 C 29.9 39.2 29.8 38.9 29.6 38.7 C 29.4 38.5 29.1 38.4 28.7 38.4 C 28.4 38.4 28.2 38.5 27.9 38.7 C 27.7 38.9 27.6 39.2 27.6 39.6 Z M 31.4 38.7 L 31.4 38 L 32 38 L 32 38.7 L 31.4 38.7 Z M 31.4 41.6 L 31.4 40.9 L 32 40.9 L 32 41.6 L 31.4 41.6 Z M 35.4 41.6 L 35.4 36.7 C 35.4 36.7 37.44 36.7 37.4 36.7 C 38 36.7 38.4 36.8 38.7 37.1 C 38.9 37.3 39 37.6 39 37.9 C 39 37.9 39 37.9 39 37.9 C 39 38.5 38.8 38.8 38.3 39.1 C 39 39.3 39.3 39.7 39.3 40.2 C 39.3 40.2 39.3 40.3 39.3 40.3 C 39.3 40.7 39.2 41 38.8 41.2 C 38.5 41.5 38.1 41.6 37.5 41.6 C 37.53 41.6 35.4 41.6 35.4 41.6 Z M 38.5 38 C 38.5 38 38.5 38 38.5 38 C 38.5 37.7 38.4 37.6 38.2 37.4 C 38 37.3 37.7 37.2 37.4 37.2 C 37.39 37.2 35.9 37.2 35.9 37.2 L 35.9 38.9 C 35.9 38.9 37.35 38.88 37.4 38.9 C 37.7 38.9 38 38.8 38.2 38.7 C 38.4 38.5 38.5 38.3 38.5 38 Z M 38.8 40.2 C 38.8 40.2 38.8 40.2 38.8 40.2 C 38.8 39.9 38.6 39.7 38.4 39.6 C 38.2 39.4 37.9 39.4 37.4 39.4 C 37.45 39.37 35.9 39.4 35.9 39.4 L 35.9 41.1 C 35.9 41.1 37.55 41.1 37.5 41.1 C 37.9 41.1 38.2 41 38.4 40.9 C 38.6 40.7 38.8 40.5 38.8 40.2 Z M 43.4 41 C 43 41.5 42.5 41.7 41.9 41.7 C 41.4 41.7 41 41.5 40.6 41.2 C 40.3 40.8 40.1 40.4 40.1 39.8 C 40.1 39.8 40.1 39.8 40.1 39.8 C 40.1 39.3 40.3 38.8 40.6 38.4 C 40.9 38.1 41.3 37.9 41.8 37.9 C 42.3 37.9 42.8 38.1 43.1 38.4 C 43.4 38.8 43.5 39.3 43.5 39.8 C 43.5 39.9 43.5 39.9 43.5 40 C 43.5 40 40.6 40 40.6 40 C 40.7 40.4 40.8 40.7 41.1 40.9 C 41.3 41.1 41.6 41.2 41.9 41.2 C 42.3 41.2 42.7 41 43.1 40.7 C 43.06 40.7 43.4 41 43.4 41 C 43.4 41 43.39 41 43.4 41 Z M 40.6 39.6 C 40.6 39.6 43 39.6 43 39.6 C 42.9 39.2 42.8 38.9 42.6 38.7 C 42.4 38.5 42.2 38.4 41.8 38.4 C 41.5 38.4 41.2 38.5 41 38.7 C 40.8 38.9 40.7 39.2 40.6 39.6 Z M 46.3 41.5 C 46.1 41.6 45.9 41.7 45.7 41.7 C 45.4 41.7 45.1 41.6 44.9 41.4 C 44.7 41.2 44.7 41 44.7 40.6 C 44.65 40.64 44.7 38.5 44.7 38.5 L 44.1 38.5 L 44.1 38 L 44.7 38 L 44.7 36.9 L 45.2 36.9 L 45.2 38 L 46.3 38 L 46.3 38.5 L 45.2 38.5 C 45.2 38.5 45.19 40.57 45.2 40.6 C 45.2 41 45.4 41.2 45.8 41.2 C 46 41.2 46.2 41.1 46.3 41 C 46.33 41.05 46.3 41.5 46.3 41.5 C 46.3 41.5 46.33 41.51 46.3 41.5 Z M 48.9 41.7 C 48.4 41.7 48 41.5 47.6 41.1 C 47.2 40.8 47.1 40.3 47.1 39.8 C 47.1 39.8 47.1 39.8 47.1 39.8 C 47.1 39.3 47.2 38.8 47.6 38.5 C 48 38.1 48.4 37.9 49 37.9 C 49.5 37.9 49.9 38.1 50.3 38.5 C 50.7 38.8 50.8 39.3 50.8 39.8 C 50.8 39.8 50.8 39.8 50.8 39.8 C 50.8 40.3 50.7 40.8 50.3 41.1 C 49.9 41.5 49.5 41.7 48.9 41.7 Z M 49 41.2 C 49.3 41.2 49.7 41.1 49.9 40.8 C 50.2 40.5 50.3 40.2 50.3 39.8 C 50.3 39.8 50.3 39.8 50.3 39.8 C 50.3 39.4 50.2 39.1 49.9 38.8 C 49.6 38.5 49.3 38.4 48.9 38.4 C 48.6 38.4 48.2 38.5 48 38.8 C 47.7 39.1 47.6 39.4 47.6 39.8 C 47.6 39.8 47.6 39.8 47.6 39.8 C 47.6 40.2 47.7 40.5 48 40.8 C 48.3 41.1 48.6 41.2 49 41.2 Z M 51.8 41.6 L 51.8 38 L 52.4 38 C 52.4 38 52.35 38.61 52.4 38.6 C 52.6 38.1 53.1 37.9 53.6 37.9 C 54 37.9 54.4 38 54.6 38.3 C 54.9 38.6 55 38.9 55 39.4 C 54.98 39.35 55 41.6 55 41.6 L 54.4 41.6 C 54.4 41.6 54.44 39.49 54.4 39.5 C 54.4 39.1 54.4 38.9 54.2 38.7 C 54 38.5 53.8 38.4 53.4 38.4 C 53.1 38.4 52.9 38.5 52.7 38.7 C 52.5 38.9 52.4 39.2 52.4 39.5 C 52.35 39.53 52.4 41.6 52.4 41.6 L 51.8 41.6 Z M 57.5 42.5 L 60.7 36 L 61.2 36 L 58 42.5 L 57.5 42.5 Z M 66.2 41.7 C 65.5 41.7 64.9 41.4 64.5 41 C 64 40.5 63.8 39.9 63.8 39.2 C 63.8 39.2 63.8 39.1 63.8 39.1 C 63.8 38.4 64 37.8 64.5 37.4 C 64.9 36.9 65.5 36.6 66.2 36.6 C 66.7 36.6 67 36.7 67.3 36.8 C 67.6 36.9 67.9 37.1 68.1 37.4 C 68.1 37.4 67.8 37.8 67.8 37.8 C 67.5 37.6 67.3 37.4 67.1 37.3 C 66.8 37.2 66.5 37.1 66.2 37.1 C 65.7 37.1 65.2 37.3 64.9 37.7 C 64.5 38.1 64.3 38.6 64.3 39.1 C 64.3 39.1 64.3 39.1 64.3 39.1 C 64.3 39.7 64.5 40.2 64.9 40.6 C 65.2 41 65.7 41.2 66.2 41.2 C 66.5 41.2 66.8 41.1 67.1 41 C 67.3 40.9 67.6 40.7 67.8 40.5 C 67.8 40.5 68.2 40.8 68.2 40.8 C 67.9 41.1 67.6 41.3 67.3 41.5 C 67 41.6 66.6 41.7 66.2 41.7 Z M 71.5 41.1 C 71.1 41.5 70.7 41.7 70.2 41.7 C 69.8 41.7 69.5 41.6 69.2 41.4 C 68.9 41.2 68.8 40.9 68.8 40.5 C 68.8 40.5 68.8 40.5 68.8 40.5 C 68.8 40.2 68.9 39.9 69.2 39.7 C 69.5 39.5 69.9 39.4 70.3 39.4 C 70.7 39.4 71.1 39.4 71.5 39.5 C 71.5 39.5 71.5 39.4 71.5 39.4 C 71.5 39.1 71.4 38.8 71.2 38.7 C 71 38.5 70.7 38.4 70.4 38.4 C 70 38.4 69.7 38.5 69.3 38.7 C 69.3 38.7 69.1 38.2 69.1 38.2 C 69.5 38 70 37.9 70.4 37.9 C 71 37.9 71.3 38.1 71.6 38.3 C 71.9 38.6 72 38.9 72 39.4 C 71.98 39.39 72 41.6 72 41.6 L 71.5 41.6 L 71.5 41.1 C 71.5 41.1 71.46 41.05 71.5 41.1 Z M 70.3 41.2 C 70.6 41.2 70.9 41.2 71.1 41 C 71.4 40.8 71.5 40.6 71.5 40.3 C 71.5 40.3 71.5 39.9 71.5 39.9 C 71.1 39.8 70.8 39.8 70.4 39.8 C 70.1 39.8 69.8 39.8 69.6 40 C 69.4 40.1 69.3 40.3 69.3 40.5 C 69.3 40.5 69.3 40.5 69.3 40.5 C 69.3 40.7 69.4 40.9 69.6 41.1 C 69.8 41.2 70 41.2 70.3 41.2 Z M 73.1 41.6 L 73.1 38 L 73.7 38 C 73.7 38 73.67 38.59 73.7 38.6 C 73.8 38.4 74 38.2 74.2 38.1 C 74.3 38 74.6 37.9 74.8 37.9 C 75.4 37.9 75.8 38.1 76 38.6 C 76.3 38.1 76.7 37.9 77.3 37.9 C 77.7 37.9 78 38 78.3 38.3 C 78.5 38.6 78.6 38.9 78.6 39.4 C 78.62 39.36 78.6 41.6 78.6 41.6 L 78.1 41.6 C 78.1 41.6 78.08 39.49 78.1 39.5 C 78.1 39.1 78 38.9 77.8 38.7 C 77.7 38.5 77.4 38.4 77.1 38.4 C 76.9 38.4 76.6 38.5 76.4 38.7 C 76.2 38.9 76.1 39.2 76.1 39.5 C 76.14 39.51 76.1 41.6 76.1 41.6 L 75.6 41.6 C 75.6 41.6 75.61 39.47 75.6 39.5 C 75.6 39.1 75.5 38.9 75.4 38.7 C 75.2 38.5 75 38.4 74.7 38.4 C 74.4 38.4 74.1 38.5 74 38.7 C 73.8 38.9 73.7 39.2 73.7 39.5 C 73.67 39.53 73.7 41.6 73.7 41.6 L 73.1 41.6 Z " stroke="none" fill="#000"/>  </g>  <g id="Polygon41210">    <path d="M 0.7 23.6 L 0.7 18.7 C 0.7 18.7 2.8 18.7 2.8 18.7 C 3.4 18.7 3.9 18.9 4.2 19.2 C 4.4 19.4 4.6 19.8 4.6 20.2 C 4.6 20.2 4.6 20.2 4.6 20.2 C 4.6 20.6 4.4 20.9 4.2 21.1 C 4 21.4 3.6 21.5 3.2 21.6 C 3.24 21.6 4.7 23.6 4.7 23.6 L 4.1 23.6 L 2.6 21.7 L 1.2 21.7 L 1.2 23.6 L 0.7 23.6 Z M 1.2 21.2 C 1.2 21.2 2.75 21.2 2.8 21.2 C 3.1 21.2 3.4 21.1 3.7 20.9 C 3.9 20.7 4 20.5 4 20.2 C 4 20.2 4 20.2 4 20.2 C 4 19.9 3.9 19.6 3.7 19.5 C 3.5 19.3 3.2 19.2 2.8 19.2 C 2.76 19.21 1.2 19.2 1.2 19.2 L 1.2 21.2 Z M 8.7 23 C 8.3 23.5 7.8 23.7 7.2 23.7 C 6.7 23.7 6.3 23.5 6 23.2 C 5.6 22.8 5.4 22.4 5.4 21.8 C 5.4 21.8 5.4 21.8 5.4 21.8 C 5.4 21.3 5.6 20.8 5.9 20.4 C 6.3 20.1 6.7 19.9 7.2 19.9 C 7.7 19.9 8.1 20.1 8.4 20.4 C 8.7 20.8 8.9 21.3 8.9 21.8 C 8.9 21.9 8.9 21.9 8.9 22 C 8.9 22 6 22 6 22 C 6 22.4 6.2 22.7 6.4 22.9 C 6.6 23.1 6.9 23.2 7.3 23.2 C 7.7 23.2 8.1 23 8.4 22.7 C 8.4 22.7 8.7 23 8.7 23 C 8.7 23 8.74 23 8.7 23 Z M 6 21.6 C 6 21.6 8.3 21.6 8.3 21.6 C 8.3 21.2 8.2 20.9 8 20.7 C 7.8 20.5 7.5 20.4 7.2 20.4 C 6.8 20.4 6.6 20.5 6.4 20.7 C 6.1 20.9 6 21.2 6 21.6 Z M 9.8 23.6 L 9.8 20 L 10.3 20 C 10.3 20 10.35 20.61 10.3 20.6 C 10.6 20.1 11.1 19.9 11.6 19.9 C 12 19.9 12.4 20 12.6 20.3 C 12.8 20.6 13 20.9 13 21.4 C 12.97 21.35 13 23.6 13 23.6 L 12.4 23.6 C 12.4 23.6 12.43 21.49 12.4 21.5 C 12.4 21.1 12.3 20.9 12.2 20.7 C 12 20.5 11.7 20.4 11.4 20.4 C 11.1 20.4 10.9 20.5 10.7 20.7 C 10.4 20.9 10.3 21.2 10.3 21.5 C 10.35 21.53 10.3 23.6 10.3 23.6 L 9.8 23.6 Z M 14.1 23.6 L 14.1 18.5 L 14.7 18.5 L 14.7 22 L 16.6 20 L 17.3 20 L 15.8 21.5 L 17.3 23.6 L 16.7 23.6 L 15.4 21.9 L 14.7 22.7 L 14.7 23.6 L 14.1 23.6 Z M 18.1 20.7 L 18.1 20 L 18.7 20 L 18.7 20.7 L 18.1 20.7 Z M 18.1 23.6 L 18.1 22.9 L 18.7 22.9 L 18.7 23.6 L 18.1 23.6 Z M 24.3 23.7 C 23.6 23.7 23 23.4 22.6 23 C 22.1 22.5 21.9 21.9 21.9 21.2 C 21.9 21.2 21.9 21.1 21.9 21.1 C 21.9 20.4 22.1 19.8 22.6 19.4 C 23 18.9 23.6 18.6 24.3 18.6 C 24.8 18.6 25.1 18.7 25.4 18.8 C 25.7 18.9 26 19.1 26.2 19.4 C 26.2 19.4 25.9 19.8 25.9 19.8 C 25.6 19.6 25.4 19.4 25.2 19.3 C 24.9 19.2 24.6 19.1 24.3 19.1 C 23.8 19.1 23.3 19.3 23 19.7 C 22.6 20.1 22.4 20.6 22.4 21.1 C 22.4 21.1 22.4 21.1 22.4 21.1 C 22.4 21.7 22.6 22.2 23 22.6 C 23.3 23 23.8 23.2 24.3 23.2 C 24.6 23.2 24.9 23.1 25.2 23 C 25.4 22.9 25.7 22.7 25.9 22.5 C 25.9 22.5 26.3 22.8 26.3 22.8 C 26 23.1 25.7 23.3 25.4 23.5 C 25.1 23.6 24.7 23.7 24.3 23.7 Z M 28.8 23.7 C 28.3 23.7 27.8 23.5 27.5 23.1 C 27.1 22.8 26.9 22.3 26.9 21.8 C 26.9 21.8 26.9 21.8 26.9 21.8 C 26.9 21.3 27.1 20.8 27.5 20.5 C 27.8 20.1 28.3 19.9 28.8 19.9 C 29.4 19.9 29.8 20.1 30.2 20.5 C 30.5 20.8 30.7 21.3 30.7 21.8 C 30.7 21.8 30.7 21.8 30.7 21.8 C 30.7 22.3 30.5 22.8 30.2 23.1 C 29.8 23.5 29.4 23.7 28.8 23.7 Z M 28.8 23.2 C 29.2 23.2 29.5 23.1 29.8 22.8 C 30 22.5 30.2 22.2 30.2 21.8 C 30.2 21.8 30.2 21.8 30.2 21.8 C 30.2 21.4 30 21.1 29.8 20.8 C 29.5 20.5 29.2 20.4 28.8 20.4 C 28.4 20.4 28.1 20.5 27.9 20.8 C 27.6 21.1 27.5 21.4 27.5 21.8 C 27.5 21.8 27.5 21.8 27.5 21.8 C 27.5 22.2 27.6 22.5 27.9 22.8 C 28.1 23.1 28.5 23.2 28.8 23.2 Z M 31.7 23.6 L 31.7 20 L 32.2 20 C 32.2 20 32.23 20.61 32.2 20.6 C 32.5 20.1 32.9 19.9 33.5 19.9 C 33.9 19.9 34.2 20 34.5 20.3 C 34.7 20.6 34.9 20.9 34.9 21.4 C 34.86 21.35 34.9 23.6 34.9 23.6 L 34.3 23.6 C 34.3 23.6 34.32 21.49 34.3 21.5 C 34.3 21.1 34.2 20.9 34.1 20.7 C 33.9 20.5 33.6 20.4 33.3 20.4 C 33 20.4 32.7 20.5 32.5 20.7 C 32.3 20.9 32.2 21.2 32.2 21.5 C 32.23 21.53 32.2 23.6 32.2 23.6 L 31.7 23.6 Z M 39.1 23 C 38.7 23.5 38.2 23.7 37.6 23.7 C 37.1 23.7 36.7 23.5 36.3 23.1 C 36 22.8 35.8 22.3 35.8 21.8 C 35.8 21.8 35.8 21.8 35.8 21.8 C 35.8 21.3 36 20.8 36.3 20.5 C 36.7 20.1 37.1 19.9 37.6 19.9 C 38.2 19.9 38.7 20.1 39.1 20.5 C 39.1 20.5 38.7 20.9 38.7 20.9 C 38.4 20.6 38 20.4 37.6 20.4 C 37.3 20.4 37 20.5 36.7 20.8 C 36.5 21.1 36.3 21.4 36.3 21.8 C 36.3 21.8 36.3 21.8 36.3 21.8 C 36.3 22.2 36.5 22.5 36.7 22.8 C 37 23.1 37.3 23.2 37.7 23.2 C 38.1 23.2 38.4 23 38.8 22.7 C 38.77 22.66 39.1 23 39.1 23 C 39.1 23 39.12 22.98 39.1 23 Z M 40 23.6 L 40 20 L 40.5 20 C 40.5 20 40.54 20.93 40.5 20.9 C 40.7 20.6 40.9 20.4 41.1 20.2 C 41.4 20 41.7 19.9 42 19.9 C 42.02 19.92 42 20.5 42 20.5 C 42 20.5 41.98 20.5 42 20.5 C 41.6 20.5 41.2 20.6 40.9 20.9 C 40.7 21.2 40.5 21.6 40.5 22.2 C 40.54 22.16 40.5 23.6 40.5 23.6 L 40 23.6 Z M 45.9 23 C 45.5 23.5 45 23.7 44.4 23.7 C 43.9 23.7 43.5 23.5 43.1 23.2 C 42.8 22.8 42.6 22.4 42.6 21.8 C 42.6 21.8 42.6 21.8 42.6 21.8 C 42.6 21.3 42.8 20.8 43.1 20.4 C 43.4 20.1 43.9 19.9 44.4 19.9 C 44.9 19.9 45.3 20.1 45.6 20.4 C 45.9 20.8 46 21.3 46 21.8 C 46 21.9 46 21.9 46 22 C 46 22 43.2 22 43.2 22 C 43.2 22.4 43.3 22.7 43.6 22.9 C 43.8 23.1 44.1 23.2 44.4 23.2 C 44.9 23.2 45.2 23 45.6 22.7 C 45.58 22.7 45.9 23 45.9 23 C 45.9 23 45.91 23 45.9 23 Z M 43.2 21.6 C 43.2 21.6 45.5 21.6 45.5 21.6 C 45.5 21.2 45.4 20.9 45.2 20.7 C 45 20.5 44.7 20.4 44.3 20.4 C 44 20.4 43.8 20.5 43.5 20.7 C 43.3 20.9 43.2 21.2 43.2 21.6 Z M 48.8 23.5 C 48.7 23.6 48.4 23.7 48.2 23.7 C 47.9 23.7 47.6 23.6 47.4 23.4 C 47.3 23.2 47.2 23 47.2 22.6 C 47.17 22.64 47.2 20.5 47.2 20.5 L 46.7 20.5 L 46.7 20 L 47.2 20 L 47.2 18.9 L 47.7 18.9 L 47.7 20 L 48.9 20 L 48.9 20.5 L 47.7 20.5 C 47.7 20.5 47.71 22.57 47.7 22.6 C 47.7 23 47.9 23.2 48.3 23.2 C 48.5 23.2 48.7 23.1 48.8 23 C 48.85 23.05 48.8 23.5 48.8 23.5 C 48.8 23.5 48.85 23.51 48.8 23.5 Z M 52.9 23 C 52.5 23.5 52 23.7 51.4 23.7 C 50.9 23.7 50.5 23.5 50.1 23.2 C 49.8 22.8 49.6 22.4 49.6 21.8 C 49.6 21.8 49.6 21.8 49.6 21.8 C 49.6 21.3 49.8 20.8 50.1 20.4 C 50.4 20.1 50.8 19.9 51.3 19.9 C 51.8 19.9 52.3 20.1 52.6 20.4 C 52.9 20.8 53 21.3 53 21.8 C 53 21.9 53 21.9 53 22 C 53 22 50.1 22 50.1 22 C 50.2 22.4 50.3 22.7 50.5 22.9 C 50.8 23.1 51.1 23.2 51.4 23.2 C 51.8 23.2 52.2 23 52.5 22.7 C 52.55 22.7 52.9 23 52.9 23 C 52.9 23 52.88 23 52.9 23 Z M 50.1 21.6 C 50.1 21.6 52.5 21.6 52.5 21.6 C 52.4 21.2 52.3 20.9 52.1 20.7 C 51.9 20.5 51.7 20.4 51.3 20.4 C 51 20.4 50.7 20.5 50.5 20.7 C 50.3 20.9 50.2 21.2 50.1 21.6 Z " stroke="none" fill="#000"/>  </g>  <g id="Polygon41209">    <path d="M 3 9.3 L 3 8.6 L 3.6 8.6 L 3.6 9.3 L 3 9.3 Z M 1.7 9.3 L 1.7 8.6 L 2.3 8.6 L 2.3 9.3 L 1.7 9.3 Z M 2.7 14.7 C 2 14.7 1.5 14.5 1.2 14.1 C 0.8 13.7 0.6 13.2 0.6 12.5 C 0.62 12.55 0.6 9.7 0.6 9.7 L 1.2 9.7 C 1.2 9.7 1.17 12.51 1.2 12.5 C 1.2 13 1.3 13.4 1.6 13.7 C 1.8 14 2.2 14.2 2.7 14.2 C 3.1 14.2 3.5 14 3.8 13.8 C 4 13.5 4.1 13.1 4.1 12.5 C 4.14 12.55 4.1 9.7 4.1 9.7 L 4.7 9.7 C 4.7 9.7 4.7 12.51 4.7 12.5 C 4.7 13.2 4.5 13.7 4.1 14.1 C 3.8 14.5 3.3 14.7 2.7 14.7 Z M 5.9 14.6 L 5.9 11 L 6.5 11 C 6.5 11 6.45 11.93 6.5 11.9 C 6.6 11.6 6.8 11.4 7 11.2 C 7.3 11 7.6 10.9 7.9 10.9 C 7.93 10.92 7.9 11.5 7.9 11.5 C 7.9 11.5 7.89 11.5 7.9 11.5 C 7.5 11.5 7.1 11.6 6.9 11.9 C 6.6 12.2 6.5 12.6 6.5 13.2 C 6.45 13.16 6.5 14.6 6.5 14.6 L 5.9 14.6 Z M 10.6 10.4 L 10.6 9.8 L 11.2 9.8 L 11.2 10.4 L 10.6 10.4 Z M 9.3 10.4 L 9.3 9.8 L 10 9.8 L 10 10.4 L 9.3 10.4 Z M 11.3 14 C 11 14.4 10.6 14.7 10.1 14.7 C 9.7 14.7 9.3 14.5 9.1 14.3 C 8.8 14 8.7 13.7 8.7 13.2 C 8.69 13.23 8.7 11 8.7 11 L 9.2 11 C 9.2 11 9.23 13.09 9.2 13.1 C 9.2 13.4 9.3 13.7 9.5 13.9 C 9.7 14.1 9.9 14.2 10.2 14.2 C 10.5 14.2 10.8 14.1 11 13.9 C 11.2 13.7 11.3 13.4 11.3 13.1 C 11.32 13.05 11.3 11 11.3 11 L 11.9 11 L 11.9 14.6 L 11.3 14.6 L 11.3 14 C 11.3 14 11.32 13.97 11.3 14 Z M 13.1 14.6 L 13.1 11 L 13.6 11 C 13.6 11 13.6 11.61 13.6 11.6 C 13.9 11.1 14.3 10.9 14.8 10.9 C 15.3 10.9 15.6 11 15.9 11.3 C 16.1 11.6 16.2 11.9 16.2 12.4 C 16.23 12.35 16.2 14.6 16.2 14.6 L 15.7 14.6 C 15.7 14.6 15.69 12.49 15.7 12.5 C 15.7 12.1 15.6 11.9 15.4 11.7 C 15.2 11.5 15 11.4 14.7 11.4 C 14.4 11.4 14.1 11.5 13.9 11.7 C 13.7 11.9 13.6 12.2 13.6 12.5 C 13.6 12.53 13.6 14.6 13.6 14.6 L 13.1 14.6 Z M 19.6 14.6 L 19.6 9.7 L 20.1 9.7 L 20.1 12.6 L 22.9 9.7 L 23.7 9.7 L 21.5 11.8 L 23.7 14.6 L 23 14.6 L 21.2 12.2 L 20.1 13.3 L 20.1 14.6 L 19.6 14.6 Z M 26.2 14.7 C 25.6 14.7 25.2 14.5 24.8 14.1 C 24.5 13.8 24.3 13.3 24.3 12.8 C 24.3 12.8 24.3 12.8 24.3 12.8 C 24.3 12.3 24.5 11.8 24.8 11.5 C 25.2 11.1 25.6 10.9 26.2 10.9 C 26.7 10.9 27.2 11.1 27.5 11.5 C 27.9 11.8 28.1 12.3 28.1 12.8 C 28.1 12.8 28.1 12.8 28.1 12.8 C 28.1 13.3 27.9 13.8 27.5 14.1 C 27.2 14.5 26.7 14.7 26.2 14.7 Z M 26.2 14.2 C 26.6 14.2 26.9 14.1 27.1 13.8 C 27.4 13.5 27.5 13.2 27.5 12.8 C 27.5 12.8 27.5 12.8 27.5 12.8 C 27.5 12.4 27.4 12.1 27.1 11.8 C 26.9 11.5 26.5 11.4 26.2 11.4 C 25.8 11.4 25.5 11.5 25.2 11.8 C 25 12.1 24.8 12.4 24.8 12.8 C 24.8 12.8 24.8 12.8 24.8 12.8 C 24.8 13.2 25 13.5 25.2 13.8 C 25.5 14.1 25.8 14.2 26.2 14.2 Z M 31.9 13.9 C 31.6 14.4 31.1 14.7 30.5 14.7 C 30.1 14.7 29.7 14.5 29.3 14.2 C 29 13.8 28.8 13.4 28.8 12.8 C 28.8 12.8 28.8 12.8 28.8 12.8 C 28.8 12.2 29 11.8 29.3 11.4 C 29.7 11.1 30.1 10.9 30.5 10.9 C 31.1 10.9 31.6 11.2 31.9 11.7 C 31.93 11.67 31.9 9.5 31.9 9.5 L 32.5 9.5 L 32.5 14.6 L 31.9 14.6 L 31.9 13.9 C 31.9 13.9 31.93 13.87 31.9 13.9 Z M 30.6 14.2 C 31 14.2 31.3 14.1 31.6 13.8 C 31.8 13.5 32 13.2 32 12.8 C 32 12.8 32 12.8 32 12.8 C 32 12.4 31.8 12 31.6 11.8 C 31.3 11.5 31 11.4 30.6 11.4 C 30.3 11.4 30 11.5 29.7 11.8 C 29.5 12 29.4 12.4 29.4 12.8 C 29.4 12.8 29.4 12.8 29.4 12.8 C 29.4 13.2 29.5 13.6 29.7 13.8 C 30 14.1 30.3 14.2 30.6 14.2 Z M 36.2 14 C 36 14.4 35.5 14.7 35 14.7 C 34.6 14.7 34.2 14.5 34 14.3 C 33.7 14 33.6 13.7 33.6 13.2 C 33.62 13.23 33.6 11 33.6 11 L 34.2 11 C 34.2 11 34.16 13.09 34.2 13.1 C 34.2 13.4 34.2 13.7 34.4 13.9 C 34.6 14.1 34.8 14.2 35.2 14.2 C 35.5 14.2 35.7 14.1 35.9 13.9 C 36.1 13.7 36.2 13.4 36.2 13.1 C 36.25 13.05 36.2 11 36.2 11 L 36.8 11 L 36.8 14.6 L 36.2 14.6 L 36.2 14 C 36.2 14 36.25 13.97 36.2 14 Z M 38 11.7 L 38 11 L 38.6 11 L 38.6 11.7 L 38 11.7 Z M 38 14.6 L 38 13.9 L 38.6 13.9 L 38.6 14.6 L 38 14.6 Z M 41.7 14.6 L 41.7 13.8 L 44.4 10.6 L 41.8 10.6 L 41.8 9.7 L 45.8 9.7 L 45.8 10.5 L 43.1 13.7 L 45.8 13.7 L 45.8 14.6 L 41.7 14.6 Z M 46.8 14.6 L 46.8 9.7 C 46.8 9.7 48.72 9.7 48.7 9.7 C 49.5 9.7 50.1 9.9 50.6 10.4 C 51.1 10.9 51.3 11.4 51.3 12.1 C 51.3 12.1 51.3 12.1 51.3 12.1 C 51.3 12.8 51.1 13.4 50.6 13.9 C 50.1 14.4 49.5 14.6 48.7 14.6 C 48.72 14.6 46.8 14.6 46.8 14.6 Z M 48.7 10.7 C 48.72 10.67 47.9 10.7 47.9 10.7 L 47.9 13.6 C 47.9 13.6 48.72 13.63 48.7 13.6 C 49.2 13.6 49.5 13.5 49.8 13.2 C 50.1 13 50.2 12.6 50.2 12.2 C 50.2 12.2 50.2 12.1 50.2 12.1 C 50.2 11.7 50.1 11.4 49.8 11.1 C 49.5 10.8 49.2 10.7 48.7 10.7 Z M 56 14.7 C 55.2 14.7 54.5 14.4 54.1 13.8 C 54.1 13.8 54.8 13.1 54.8 13.1 C 55.1 13.5 55.5 13.7 56 13.7 C 56.2 13.7 56.4 13.7 56.5 13.6 C 56.6 13.4 56.7 13.3 56.7 13.1 C 56.7 13.1 56.7 13.1 56.7 13.1 C 56.7 12.9 56.6 12.8 56.4 12.6 C 56.3 12.5 56 12.5 55.7 12.5 C 55.72 12.49 55.3 12.5 55.3 12.5 L 55.1 11.8 L 56.3 10.6 L 54.3 10.6 L 54.3 9.7 L 57.7 9.7 L 57.7 10.5 C 57.7 10.5 56.42 11.69 56.4 11.7 C 57.3 11.8 57.7 12.3 57.7 13.1 C 57.7 13.1 57.7 13.1 57.7 13.1 C 57.7 13.6 57.6 13.9 57.3 14.2 C 56.9 14.5 56.5 14.7 56 14.7 Z M 60.7 14.7 C 60 14.7 59.5 14.4 59.1 14 C 58.7 13.5 58.5 12.9 58.5 12.2 C 58.5 12.2 58.5 12.1 58.5 12.1 C 58.5 11.4 58.7 10.8 59.1 10.3 C 59.5 9.9 60.1 9.6 60.7 9.6 C 61.3 9.6 61.9 9.9 62.3 10.3 C 62.7 10.8 62.9 11.4 62.9 12.1 C 62.9 12.1 62.9 12.1 62.9 12.1 C 62.9 12.9 62.7 13.5 62.3 14 C 61.9 14.4 61.3 14.7 60.7 14.7 Z M 59.6 12.1 C 59.6 12.6 59.7 13 59.9 13.3 C 60.1 13.6 60.4 13.7 60.7 13.7 C 61 13.7 61.3 13.6 61.5 13.3 C 61.7 13 61.8 12.6 61.8 12.2 C 61.8 12.2 61.8 12.1 61.8 12.1 C 61.8 11.7 61.7 11.3 61.5 11 C 61.3 10.7 61 10.6 60.7 10.6 C 60.4 10.6 60.1 10.7 59.9 11 C 59.7 11.3 59.6 11.7 59.6 12.1 C 59.63 12.14 59.6 12.1 59.6 12.1 C 59.6 12.1 59.63 12.15 59.6 12.1 Z M 63.8 14.6 L 66 10.6 L 63.7 10.6 L 63.7 9.7 L 67.3 9.7 L 67.3 10.5 L 65.1 14.6 L 63.8 14.6 Z M 70.4 14.6 L 70.4 13.5 L 68 13.5 L 67.8 12.8 L 70.5 9.7 L 71.4 9.7 L 71.4 12.7 L 72.1 12.7 L 72.1 13.5 L 71.4 13.5 L 71.4 14.6 L 70.4 14.6 Z M 69.1 12.7 L 70.4 12.7 L 70.4 11.1 L 69.1 12.7 Z M 74.8 14.7 C 74.2 14.7 73.7 14.5 73.4 14.2 C 73 13.8 72.8 13.2 72.8 12.3 C 72.8 12.3 72.8 12.3 72.8 12.3 C 72.8 11.5 73 10.9 73.3 10.4 C 73.7 9.9 74.2 9.6 74.9 9.6 C 75.5 9.6 76 9.8 76.5 10.2 C 76.5 10.2 75.9 11 75.9 11 C 75.7 10.9 75.6 10.8 75.4 10.7 C 75.3 10.6 75.1 10.6 74.9 10.6 C 74.7 10.6 74.6 10.6 74.4 10.7 C 74.3 10.8 74.2 10.9 74.1 11 C 74.1 11.1 74 11.3 74 11.4 C 73.9 11.5 73.9 11.6 73.9 11.7 C 74.2 11.5 74.6 11.4 74.9 11.4 C 75.4 11.4 75.8 11.6 76.2 11.8 C 76.5 12.1 76.6 12.5 76.6 13 C 76.6 13 76.6 13 76.6 13 C 76.6 13.5 76.5 13.9 76.1 14.2 C 75.8 14.5 75.3 14.7 74.8 14.7 Z M 73.9 13 C 73.9 13.2 74 13.4 74.1 13.6 C 74.3 13.7 74.5 13.8 74.7 13.8 C 75 13.8 75.2 13.7 75.4 13.6 C 75.5 13.4 75.6 13.3 75.6 13 C 75.6 13 75.6 13 75.6 13 C 75.6 12.8 75.5 12.6 75.3 12.5 C 75.2 12.4 75 12.3 74.7 12.3 C 74.5 12.3 74.3 12.4 74.1 12.5 C 74 12.6 73.9 12.8 73.9 13 C 73.88 13.02 73.9 13 73.9 13 C 73.9 13 73.88 13.03 73.9 13 Z " stroke="none" fill="#000"/>  </g>  <g id="Polygon41208">    <path d="M 0.6 5.6 L 0.6 0.7 L 1.8 0.7 L 3 2.8 L 4.3 0.7 L 5.5 0.7 L 5.5 5.6 L 4.4 5.6 L 4.4 2.4 L 3 4.5 L 3 4.5 L 1.6 2.4 L 1.6 5.6 L 0.6 5.6 Z M 8.7 5.2 C 8.5 5.5 8.1 5.7 7.6 5.7 C 7.2 5.7 6.9 5.6 6.7 5.4 C 6.5 5.2 6.3 4.9 6.3 4.5 C 6.3 4.5 6.3 4.5 6.3 4.5 C 6.3 4.1 6.5 3.8 6.7 3.6 C 7 3.4 7.4 3.3 7.8 3.3 C 8.1 3.3 8.4 3.4 8.8 3.5 C 8.8 3.5 8.8 3.4 8.8 3.4 C 8.8 2.9 8.5 2.7 8 2.7 C 7.6 2.7 7.3 2.8 6.9 2.9 C 6.9 2.9 6.6 2.1 6.6 2.1 C 7.1 1.9 7.6 1.8 8.1 1.8 C 8.7 1.8 9.1 1.9 9.4 2.2 C 9.6 2.5 9.8 2.9 9.8 3.4 C 9.78 3.42 9.8 5.6 9.8 5.6 L 8.7 5.6 L 8.7 5.2 C 8.7 5.2 8.75 5.19 8.7 5.2 Z M 7.9 4.9 C 8.2 4.9 8.4 4.9 8.5 4.8 C 8.7 4.6 8.8 4.5 8.8 4.3 C 8.8 4.3 8.8 4.1 8.8 4.1 C 8.6 4 8.3 3.9 8.1 3.9 C 7.9 3.9 7.7 4 7.6 4.1 C 7.4 4.2 7.4 4.3 7.4 4.5 C 7.4 4.5 7.4 4.5 7.4 4.5 C 7.4 4.6 7.4 4.7 7.5 4.8 C 7.6 4.9 7.8 4.9 7.9 4.9 Z M 12 5.7 C 11.4 5.7 10.9 5.5 10.4 5.1 C 10.4 5.1 10.9 4.4 10.9 4.4 C 11.3 4.7 11.7 4.9 12 4.9 C 12.3 4.9 12.5 4.8 12.5 4.6 C 12.5 4.6 12.5 4.6 12.5 4.6 C 12.5 4.5 12.5 4.5 12.5 4.5 C 12.5 4.4 12.4 4.4 12.4 4.4 C 12.4 4.4 12.3 4.4 12.3 4.3 C 12.3 4.3 12.2 4.3 12.2 4.3 C 12.1 4.3 12.1 4.2 12 4.2 C 12 4.2 12 4.2 11.9 4.2 C 11.8 4.2 11.8 4.1 11.7 4.1 C 11.6 4.1 11.4 4 11.3 4 C 11.2 3.9 11.1 3.9 11 3.8 C 10.8 3.7 10.7 3.6 10.7 3.5 C 10.6 3.3 10.6 3.2 10.6 3 C 10.6 3 10.6 3 10.6 3 C 10.6 2.6 10.7 2.3 11 2.1 C 11.2 1.9 11.6 1.8 12 1.8 C 12.5 1.8 12.9 1.9 13.4 2.2 C 13.4 2.2 13 3 13 3 C 12.6 2.7 12.2 2.6 11.9 2.6 C 11.8 2.6 11.7 2.6 11.7 2.7 C 11.6 2.7 11.5 2.8 11.5 2.9 C 11.5 2.9 11.5 2.9 11.5 2.9 C 11.5 3 11.6 3 11.7 3.1 C 11.9 3.2 12.1 3.3 12.3 3.3 C 12.5 3.4 12.6 3.4 12.7 3.5 C 12.8 3.5 12.9 3.6 13.1 3.7 C 13.2 3.8 13.3 3.9 13.3 4 C 13.4 4.1 13.4 4.3 13.4 4.4 C 13.4 4.4 13.4 4.5 13.4 4.5 C 13.4 4.9 13.3 5.2 13.1 5.4 C 12.8 5.6 12.4 5.7 12 5.7 Z M 16.4 5.2 C 16.1 5.5 15.7 5.7 15.3 5.7 C 14.9 5.7 14.6 5.6 14.4 5.4 C 14.1 5.2 14 4.9 14 4.5 C 14 4.5 14 4.5 14 4.5 C 14 4.1 14.1 3.8 14.4 3.6 C 14.7 3.4 15 3.3 15.5 3.3 C 15.8 3.3 16.1 3.4 16.4 3.5 C 16.4 3.5 16.4 3.4 16.4 3.4 C 16.4 2.9 16.1 2.7 15.6 2.7 C 15.3 2.7 14.9 2.8 14.6 2.9 C 14.6 2.9 14.3 2.1 14.3 2.1 C 14.8 1.9 15.3 1.8 15.8 1.8 C 16.3 1.8 16.8 1.9 17 2.2 C 17.3 2.5 17.4 2.9 17.4 3.4 C 17.44 3.42 17.4 5.6 17.4 5.6 L 16.4 5.6 L 16.4 5.2 C 16.4 5.2 16.41 5.19 16.4 5.2 Z M 15.6 4.9 C 15.8 4.9 16 4.9 16.2 4.8 C 16.4 4.6 16.4 4.5 16.4 4.3 C 16.4 4.3 16.4 4.1 16.4 4.1 C 16.2 4 16 3.9 15.7 3.9 C 15.5 3.9 15.3 4 15.2 4.1 C 15.1 4.2 15 4.3 15 4.5 C 15 4.5 15 4.5 15 4.5 C 15 4.6 15.1 4.7 15.2 4.8 C 15.3 4.9 15.4 4.9 15.6 4.9 Z M 20.1 5.6 L 22.2 0.7 L 23.2 0.7 L 25.3 5.6 L 24.2 5.6 L 23.8 4.5 L 21.7 4.5 L 21.2 5.6 L 20.1 5.6 Z M 22.1 3.5 L 23.4 3.5 L 22.7 2 L 22.1 3.5 Z M 27.6 4.4 L 28.4 1.8 L 29.6 1.8 C 29.6 1.8 28.11 5.69 28.1 5.7 C 28 6.1 27.8 6.3 27.6 6.5 C 27.4 6.7 27.2 6.7 26.9 6.7 C 26.5 6.7 26.2 6.7 25.9 6.5 C 25.9 6.5 26.3 5.7 26.3 5.7 C 26.5 5.8 26.6 5.9 26.7 5.9 C 26.8 5.9 26.9 5.8 27 5.8 C 27 5.8 27.1 5.7 27.1 5.6 C 27.12 5.61 25.6 1.8 25.6 1.8 L 26.8 1.8 L 27.6 4.4 Z M 30.2 5.6 L 30.2 1.8 L 31.2 1.8 C 31.2 1.8 31.25 2.38 31.2 2.4 C 31.6 2 31.9 1.8 32.3 1.8 C 32.8 1.8 33.1 1.9 33.3 2.1 C 33.5 2.4 33.6 2.7 33.6 3.2 C 33.62 3.17 33.6 5.6 33.6 5.6 L 32.6 5.6 C 32.6 5.6 32.56 3.51 32.6 3.5 C 32.6 3 32.3 2.7 31.9 2.7 C 31.7 2.7 31.5 2.8 31.4 2.9 C 31.3 3.1 31.2 3.3 31.2 3.5 C 31.25 3.51 31.2 5.6 31.2 5.6 L 30.2 5.6 Z M 36.7 5.2 C 36.5 5.5 36.1 5.7 35.6 5.7 C 35.2 5.7 34.9 5.6 34.7 5.4 C 34.4 5.2 34.3 4.9 34.3 4.5 C 34.3 4.5 34.3 4.5 34.3 4.5 C 34.3 4.1 34.5 3.8 34.7 3.6 C 35 3.4 35.4 3.3 35.8 3.3 C 36.1 3.3 36.4 3.4 36.7 3.5 C 36.7 3.5 36.7 3.4 36.7 3.4 C 36.7 2.9 36.5 2.7 35.9 2.7 C 35.6 2.7 35.3 2.8 34.9 2.9 C 34.9 2.9 34.6 2.1 34.6 2.1 C 35.1 1.9 35.6 1.8 36.1 1.8 C 36.7 1.8 37.1 1.9 37.4 2.2 C 37.6 2.5 37.8 2.9 37.8 3.4 C 37.77 3.42 37.8 5.6 37.8 5.6 L 36.7 5.6 L 36.7 5.2 C 36.7 5.2 36.74 5.19 36.7 5.2 Z M 35.9 4.9 C 36.2 4.9 36.4 4.9 36.5 4.8 C 36.7 4.6 36.8 4.5 36.8 4.3 C 36.8 4.3 36.8 4.1 36.8 4.1 C 36.6 4 36.3 3.9 36.1 3.9 C 35.9 3.9 35.7 4 35.5 4.1 C 35.4 4.2 35.3 4.3 35.3 4.5 C 35.3 4.5 35.3 4.5 35.3 4.5 C 35.3 4.6 35.4 4.7 35.5 4.8 C 35.6 4.9 35.8 4.9 35.9 4.9 Z M 40 5.7 C 39.4 5.7 38.9 5.5 38.4 5.1 C 38.4 5.1 38.8 4.4 38.8 4.4 C 39.3 4.7 39.7 4.9 40 4.9 C 40.3 4.9 40.5 4.8 40.5 4.6 C 40.5 4.6 40.5 4.6 40.5 4.6 C 40.5 4.5 40.5 4.5 40.5 4.5 C 40.5 4.4 40.4 4.4 40.4 4.4 C 40.4 4.4 40.3 4.4 40.3 4.3 C 40.3 4.3 40.2 4.3 40.2 4.3 C 40.1 4.3 40.1 4.2 40 4.2 C 40 4.2 39.9 4.2 39.9 4.2 C 39.8 4.2 39.7 4.1 39.7 4.1 C 39.5 4.1 39.4 4 39.3 4 C 39.2 3.9 39.1 3.9 39 3.8 C 38.8 3.7 38.7 3.6 38.7 3.5 C 38.6 3.3 38.6 3.2 38.6 3 C 38.6 3 38.6 3 38.6 3 C 38.6 2.6 38.7 2.3 39 2.1 C 39.2 1.9 39.6 1.8 40 1.8 C 40.5 1.8 40.9 1.9 41.4 2.2 C 41.4 2.2 40.9 3 40.9 3 C 40.6 2.7 40.2 2.6 39.9 2.6 C 39.8 2.6 39.7 2.6 39.6 2.7 C 39.6 2.7 39.5 2.8 39.5 2.9 C 39.5 2.9 39.5 2.9 39.5 2.9 C 39.5 3 39.6 3 39.7 3.1 C 39.9 3.2 40.1 3.3 40.3 3.3 C 40.5 3.4 40.6 3.4 40.7 3.5 C 40.8 3.5 40.9 3.6 41.1 3.7 C 41.2 3.8 41.3 3.9 41.3 4 C 41.4 4.1 41.4 4.3 41.4 4.4 C 41.4 4.4 41.4 4.5 41.4 4.5 C 41.4 4.9 41.3 5.2 41 5.4 C 40.8 5.6 40.4 5.7 40 5.7 Z M 42.3 5.6 L 42.3 1.8 L 43.3 1.8 L 43.3 5.6 L 42.3 5.6 Z M 46.3 3.9 L 46.3 2.9 L 49.3 2.9 L 49.3 3.9 L 46.3 3.9 Z M 53.5 5.6 L 53.5 1.7 L 52 1.7 L 52 0.7 L 56 0.7 L 56 1.7 L 54.5 1.7 L 54.5 5.6 L 53.5 5.6 Z M 56.8 1.4 L 56.8 0.5 L 57.9 0.5 L 57.9 1.4 L 56.8 1.4 Z M 56.8 5.6 L 56.8 1.8 L 57.9 1.8 L 57.9 5.6 L 56.8 5.6 Z M 58.9 5.6 L 58.9 1.8 L 59.9 1.8 C 59.9 1.8 59.93 2.38 59.9 2.4 C 60.2 2 60.6 1.8 61 1.8 C 61.5 1.8 61.9 2 62.1 2.4 C 62.4 2 62.8 1.8 63.3 1.8 C 63.7 1.8 64 1.9 64.3 2.1 C 64.5 2.4 64.6 2.7 64.6 3.2 C 64.59 3.16 64.6 5.6 64.6 5.6 L 63.5 5.6 C 63.5 5.6 63.52 3.51 63.5 3.5 C 63.5 3 63.3 2.7 62.9 2.7 C 62.7 2.7 62.5 2.8 62.4 2.9 C 62.3 3.1 62.3 3.3 62.3 3.5 C 62.26 3.51 62.3 5.6 62.3 5.6 L 61.2 5.6 C 61.2 5.6 61.19 3.51 61.2 3.5 C 61.2 3 61 2.7 60.6 2.7 C 60.4 2.7 60.2 2.8 60.1 2.9 C 60 3.1 59.9 3.3 59.9 3.5 C 59.93 3.51 59.9 5.6 59.9 5.6 L 58.9 5.6 Z M 68.8 5 C 68.4 5.5 67.9 5.7 67.3 5.7 C 66.7 5.7 66.3 5.5 65.9 5.1 C 65.5 4.8 65.3 4.3 65.3 3.7 C 65.3 3.7 65.3 3.7 65.3 3.7 C 65.3 3.2 65.5 2.7 65.9 2.3 C 66.2 2 66.6 1.8 67.2 1.8 C 67.8 1.8 68.2 2 68.5 2.4 C 68.9 2.8 69 3.2 69 3.8 C 69 3.9 69 4 69 4.1 C 69 4.1 66.4 4.1 66.4 4.1 C 66.4 4.3 66.5 4.5 66.7 4.6 C 66.9 4.8 67.1 4.8 67.3 4.8 C 67.6 4.8 67.9 4.7 68.2 4.4 C 68.21 4.44 68.8 5 68.8 5 C 68.8 5 68.82 4.98 68.8 5 Z M 66.4 3.4 C 66.4 3.4 68 3.4 68 3.4 C 67.9 3.2 67.9 3 67.7 2.8 C 67.6 2.7 67.4 2.6 67.2 2.6 C 67 2.6 66.8 2.7 66.6 2.8 C 66.5 3 66.4 3.2 66.4 3.4 Z " stroke="none" fill="#000"/>  </g></svg>