<?xml version="1.0" standalone="no"?><!DOCTYPE svg PUBLIC "-//W3C//DTD SVG 1.1//EN" "http://www.w3.org/Graphics/SVG/1.1/DTD/svg11.dtd"><svg xmlns="http://www.w3.org/2000/svg" version="1.1" width="16.2px" height="12.4px" viewBox="0 -1 16.2 12.4" style="top:-1px">  <desc> </desc>  <defs/>  <g id="Polygon39876">    <path d="M 1 7.5 L 3.2 3.1 L 0.5 3.1 L 0.5 2.6 L 3.8 2.6 L 3.8 3 L 1.6 7.5 L 1 7.5 Z M 8.7 5 C 8.7 5.7 8.6 6.3 8.2 6.8 C 7.8 7.3 7.3 7.6 6.7 7.6 C 6.1 7.6 5.6 7.3 5.2 6.8 C 4.8 6.3 4.6 5.7 4.6 5 C 4.6 5 4.6 5 4.6 5 C 4.6 4.3 4.8 3.7 5.2 3.2 C 5.6 2.7 6.1 2.5 6.7 2.5 C 7.3 2.5 7.8 2.7 8.2 3.2 C 8.6 3.7 8.7 4.3 8.7 5 C 8.74 5.01 8.7 5 8.7 5 C 8.7 5 8.74 5.03 8.7 5 Z M 5.2 5 C 5.2 5.6 5.3 6.1 5.6 6.5 C 5.9 6.9 6.2 7.1 6.7 7.1 C 7.1 7.1 7.5 6.9 7.8 6.5 C 8 6.1 8.2 5.6 8.2 5 C 8.2 5 8.2 5 8.2 5 C 8.2 4.5 8 4 7.8 3.6 C 7.5 3.2 7.1 3 6.7 3 C 6.2 3 5.9 3.2 5.6 3.6 C 5.3 4 5.2 4.5 5.2 5 C 5.18 5.01 5.2 5 5.2 5 C 5.2 5 5.18 5.03 5.2 5 Z " stroke="none" fill="#000"/>  </g></svg>