<?xml version="1.0" standalone="no"?><!DOCTYPE svg PUBLIC "-//W3C//DTD SVG 1.1//EN" "http://www.w3.org/Graphics/SVG/1.1/DTD/svg11.dtd"><svg xmlns="http://www.w3.org/2000/svg" version="1.1" width="389px" height="31.4px" viewBox="0 -3 389 31.4" style="top:-3px">  <desc>ama r Sepeti – Ume Malzeme: PP / l ler: D 40 cm, H 54 cm / Hacim: 60 litre / Adet: 2’li Set | Tasar m: VE2</desc>  <defs/>  <g id="Polygon62346">    <path d="M 0.7 17.6 L 0.7 12.7 L 1.3 12.7 L 3 15.4 L 4.8 12.7 L 5.4 12.7 L 5.4 17.6 L 4.8 17.6 L 4.8 13.6 L 3 16.3 L 3 16.3 L 1.2 13.6 L 1.2 17.6 L 0.7 17.6 Z M 9.1 17.1 C 8.7 17.5 8.3 17.7 7.8 17.7 C 7.4 17.7 7.1 17.6 6.8 17.4 C 6.5 17.2 6.4 16.9 6.4 16.5 C 6.4 16.5 6.4 16.5 6.4 16.5 C 6.4 16.2 6.5 15.9 6.8 15.7 C 7.1 15.5 7.5 15.4 8 15.4 C 8.3 15.4 8.7 15.4 9.1 15.5 C 9.1 15.5 9.1 15.4 9.1 15.4 C 9.1 15.1 9 14.8 8.8 14.7 C 8.6 14.5 8.3 14.4 8 14.4 C 7.6 14.4 7.3 14.5 6.9 14.7 C 6.9 14.7 6.7 14.2 6.7 14.2 C 7.2 14 7.6 13.9 8 13.9 C 8.6 13.9 8.9 14.1 9.2 14.3 C 9.5 14.6 9.6 14.9 9.6 15.4 C 9.58 15.39 9.6 17.6 9.6 17.6 L 9.1 17.6 L 9.1 17.1 C 9.1 17.1 9.06 17.05 9.1 17.1 Z M 7.9 17.2 C 8.2 17.2 8.5 17.2 8.7 17 C 9 16.8 9.1 16.6 9.1 16.3 C 9.1 16.3 9.1 15.9 9.1 15.9 C 8.7 15.8 8.4 15.8 8 15.8 C 7.7 15.8 7.4 15.8 7.2 16 C 7 16.1 7 16.3 7 16.5 C 7 16.5 7 16.5 7 16.5 C 7 16.7 7 16.9 7.2 17.1 C 7.4 17.2 7.6 17.2 7.9 17.2 Z M 10.8 17.6 L 10.8 12.5 L 11.3 12.5 L 11.3 17.6 L 10.8 17.6 Z M 12.4 17.6 L 12.4 17.3 L 14.8 14.4 L 12.4 14.4 L 12.4 14 L 15.5 14 L 15.5 14.3 L 13.1 17.1 L 15.5 17.1 L 15.5 17.6 L 12.4 17.6 Z M 19.5 17 C 19.1 17.5 18.6 17.7 18 17.7 C 17.5 17.7 17.1 17.5 16.8 17.2 C 16.4 16.8 16.2 16.4 16.2 15.8 C 16.2 15.8 16.2 15.8 16.2 15.8 C 16.2 15.3 16.4 14.8 16.7 14.4 C 17.1 14.1 17.5 13.9 18 13.9 C 18.5 13.9 18.9 14.1 19.2 14.4 C 19.5 14.8 19.7 15.3 19.7 15.8 C 19.7 15.9 19.7 15.9 19.7 16 C 19.7 16 16.8 16 16.8 16 C 16.8 16.4 17 16.7 17.2 16.9 C 17.4 17.1 17.7 17.2 18.1 17.2 C 18.5 17.2 18.9 17 19.2 16.7 C 19.2 16.7 19.5 17 19.5 17 C 19.5 17 19.54 17 19.5 17 Z M 16.8 15.6 C 16.8 15.6 19.1 15.6 19.1 15.6 C 19.1 15.2 19 14.9 18.8 14.7 C 18.6 14.5 18.3 14.4 18 14.4 C 17.6 14.4 17.4 14.5 17.2 14.7 C 17 14.9 16.8 15.2 16.8 15.6 Z M 20.6 17.6 L 20.6 14 L 21.1 14 C 21.1 14 21.15 14.59 21.1 14.6 C 21.3 14.4 21.5 14.2 21.6 14.1 C 21.8 14 22 13.9 22.3 13.9 C 22.9 13.9 23.2 14.1 23.5 14.6 C 23.8 14.1 24.2 13.9 24.8 13.9 C 25.2 13.9 25.5 14 25.7 14.3 C 26 14.6 26.1 14.9 26.1 15.4 C 26.1 15.36 26.1 17.6 26.1 17.6 L 25.6 17.6 C 25.6 17.6 25.56 15.49 25.6 15.5 C 25.6 15.1 25.5 14.9 25.3 14.7 C 25.1 14.5 24.9 14.4 24.6 14.4 C 24.3 14.4 24.1 14.5 23.9 14.7 C 23.7 14.9 23.6 15.2 23.6 15.5 C 23.62 15.51 23.6 17.6 23.6 17.6 L 23.1 17.6 C 23.1 17.6 23.09 15.47 23.1 15.5 C 23.1 15.1 23 14.9 22.8 14.7 C 22.7 14.5 22.4 14.4 22.2 14.4 C 21.9 14.4 21.6 14.5 21.4 14.7 C 21.2 14.9 21.1 15.2 21.1 15.5 C 21.15 15.53 21.1 17.6 21.1 17.6 L 20.6 17.6 Z M 30.3 17 C 29.9 17.5 29.4 17.7 28.8 17.7 C 28.3 17.7 27.9 17.5 27.5 17.2 C 27.2 16.8 27 16.4 27 15.8 C 27 15.8 27 15.8 27 15.8 C 27 15.3 27.2 14.8 27.5 14.4 C 27.8 14.1 28.3 13.9 28.8 13.9 C 29.3 13.9 29.7 14.1 30 14.4 C 30.3 14.8 30.4 15.3 30.4 15.8 C 30.4 15.9 30.4 15.9 30.4 16 C 30.4 16 27.6 16 27.6 16 C 27.6 16.4 27.7 16.7 28 16.9 C 28.2 17.1 28.5 17.2 28.8 17.2 C 29.3 17.2 29.6 17 30 16.7 C 29.98 16.7 30.3 17 30.3 17 C 30.3 17 30.32 17 30.3 17 Z M 27.6 15.6 C 27.6 15.6 29.9 15.6 29.9 15.6 C 29.9 15.2 29.8 14.9 29.6 14.7 C 29.4 14.5 29.1 14.4 28.7 14.4 C 28.4 14.4 28.2 14.5 27.9 14.7 C 27.7 14.9 27.6 15.2 27.6 15.6 Z M 31.4 14.7 L 31.4 14 L 32 14 L 32 14.7 L 31.4 14.7 Z M 31.4 17.6 L 31.4 16.9 L 32 16.9 L 32 17.6 L 31.4 17.6 Z M 35.4 17.6 L 35.4 12.7 C 35.4 12.7 37.19 12.7 37.2 12.7 C 37.7 12.7 38.2 12.8 38.5 13.1 C 38.9 13.4 39 13.8 39 14.3 C 39 14.3 39 14.3 39 14.3 C 39 14.8 38.8 15.2 38.5 15.5 C 38.1 15.7 37.7 15.9 37.1 15.9 C 37.1 15.87 35.9 15.9 35.9 15.9 L 35.9 17.6 L 35.4 17.6 Z M 35.9 15.4 C 35.9 15.4 37.12 15.37 37.1 15.4 C 37.5 15.4 37.9 15.3 38.1 15.1 C 38.3 14.9 38.5 14.6 38.5 14.3 C 38.5 14.3 38.5 14.3 38.5 14.3 C 38.5 13.9 38.3 13.7 38.1 13.5 C 37.9 13.3 37.6 13.2 37.1 13.2 C 37.15 13.21 35.9 13.2 35.9 13.2 L 35.9 15.4 Z M 40 17.6 L 40 12.7 C 40 12.7 41.87 12.7 41.9 12.7 C 42.4 12.7 42.9 12.8 43.2 13.1 C 43.5 13.4 43.7 13.8 43.7 14.3 C 43.7 14.3 43.7 14.3 43.7 14.3 C 43.7 14.8 43.5 15.2 43.2 15.5 C 42.8 15.7 42.3 15.9 41.8 15.9 C 41.78 15.87 40.6 15.9 40.6 15.9 L 40.6 17.6 L 40 17.6 Z M 40.6 15.4 C 40.6 15.4 41.8 15.37 41.8 15.4 C 42.2 15.4 42.5 15.3 42.8 15.1 C 43 14.9 43.1 14.6 43.1 14.3 C 43.1 14.3 43.1 14.3 43.1 14.3 C 43.1 13.9 43 13.7 42.8 13.5 C 42.6 13.3 42.2 13.2 41.8 13.2 C 41.82 13.21 40.6 13.2 40.6 13.2 L 40.6 15.4 Z M 46 18.5 L 49.2 12 L 49.7 12 L 46.5 18.5 L 46 18.5 Z M 55.1 12.2 L 55.1 11.6 L 55.7 11.6 L 55.7 12.2 L 55.1 12.2 Z M 53.8 12.2 L 53.8 11.6 L 54.4 11.6 L 54.4 12.2 L 53.8 12.2 Z M 57.2 15.1 C 57.2 15.8 57 16.4 56.5 16.9 C 56.1 17.4 55.5 17.7 54.7 17.7 C 54 17.7 53.4 17.4 52.9 16.9 C 52.5 16.5 52.2 15.9 52.2 15.2 C 52.2 15.2 52.2 15.1 52.2 15.1 C 52.2 14.5 52.5 13.9 53 13.4 C 53.4 12.9 54 12.6 54.8 12.6 C 55.5 12.6 56.1 12.9 56.5 13.4 C 57 13.8 57.2 14.4 57.2 15.1 C 57.25 15.14 57.2 15.1 57.2 15.1 C 57.2 15.1 57.25 15.15 57.2 15.1 Z M 52.8 15.1 C 52.8 15.7 53 16.2 53.4 16.6 C 53.7 17 54.2 17.2 54.8 17.2 C 55.3 17.2 55.8 17 56.1 16.6 C 56.5 16.2 56.7 15.7 56.7 15.2 C 56.7 15.2 56.7 15.1 56.7 15.1 C 56.7 14.6 56.5 14.1 56.1 13.7 C 55.8 13.3 55.3 13.1 54.7 13.1 C 54.2 13.1 53.7 13.3 53.4 13.7 C 53 14.1 52.8 14.6 52.8 15.1 C 52.82 15.14 52.8 15.1 52.8 15.1 C 52.8 15.1 52.82 15.15 52.8 15.1 Z M 58.4 17.6 L 58.4 12.5 L 58.9 12.5 L 58.9 17.6 L 58.4 17.6 Z M 61.4 18.7 L 60.9 18.4 C 60.9 18.4 61.46 17.65 61.5 17.6 C 61 17.6 60.7 17.4 60.4 17 C 60.1 16.7 59.9 16.3 59.9 15.8 C 59.9 15.8 59.9 15.8 59.9 15.8 C 59.9 15.3 60.1 14.8 60.5 14.5 C 60.8 14.1 61.3 13.9 61.8 13.9 C 62.4 13.9 62.8 14.1 63.2 14.5 C 63.2 14.5 62.9 14.9 62.9 14.9 C 62.5 14.6 62.2 14.4 61.8 14.4 C 61.4 14.4 61.1 14.5 60.9 14.8 C 60.6 15.1 60.5 15.4 60.5 15.8 C 60.5 15.8 60.5 15.8 60.5 15.8 C 60.5 16.2 60.6 16.5 60.9 16.8 C 61.1 17.1 61.4 17.2 61.8 17.2 C 62.2 17.2 62.6 17 62.9 16.7 C 62.9 16.7 63.3 17 63.3 17 C 62.9 17.4 62.4 17.7 61.9 17.7 C 61.9 17.68 61.4 18.7 61.4 18.7 Z M 66 13.4 L 66 12.8 L 66.6 12.8 L 66.6 13.4 L 66 13.4 Z M 64.8 13.4 L 64.8 12.8 L 65.4 12.8 L 65.4 13.4 L 64.8 13.4 Z M 66.7 17 C 66.4 17.4 66 17.7 65.5 17.7 C 65.1 17.7 64.7 17.5 64.5 17.3 C 64.2 17 64.1 16.7 64.1 16.2 C 64.11 16.23 64.1 14 64.1 14 L 64.6 14 C 64.6 14 64.64 16.09 64.6 16.1 C 64.6 16.4 64.7 16.7 64.9 16.9 C 65.1 17.1 65.3 17.2 65.6 17.2 C 66 17.2 66.2 17.1 66.4 16.9 C 66.6 16.7 66.7 16.4 66.7 16.1 C 66.73 16.05 66.7 14 66.7 14 L 67.3 14 L 67.3 17.6 L 66.7 17.6 L 66.7 17 C 66.7 17 66.73 16.97 66.7 17 Z M 68.5 17.6 L 68.5 12.5 L 69.1 12.5 L 69.1 17.6 L 68.5 17.6 Z M 73.4 17 C 73 17.5 72.5 17.7 71.9 17.7 C 71.4 17.7 71 17.5 70.6 17.2 C 70.3 16.8 70.1 16.4 70.1 15.8 C 70.1 15.8 70.1 15.8 70.1 15.8 C 70.1 15.3 70.3 14.8 70.6 14.4 C 70.9 14.1 71.3 13.9 71.8 13.9 C 72.3 13.9 72.8 14.1 73.1 14.4 C 73.4 14.8 73.5 15.3 73.5 15.8 C 73.5 15.9 73.5 15.9 73.5 16 C 73.5 16 70.6 16 70.6 16 C 70.7 16.4 70.8 16.7 71.1 16.9 C 71.3 17.1 71.6 17.2 71.9 17.2 C 72.3 17.2 72.7 17 73.1 16.7 C 73.05 16.7 73.4 17 73.4 17 C 73.4 17 73.39 17 73.4 17 Z M 70.6 15.6 C 70.6 15.6 73 15.6 73 15.6 C 72.9 15.2 72.8 14.9 72.6 14.7 C 72.4 14.5 72.2 14.4 71.8 14.4 C 71.5 14.4 71.2 14.5 71 14.7 C 70.8 14.9 70.7 15.2 70.6 15.6 Z M 74.5 17.6 L 74.5 14 L 75 14 C 75 14 75 14.93 75 14.9 C 75.1 14.6 75.3 14.4 75.6 14.2 C 75.8 14 76.1 13.9 76.5 13.9 C 76.47 13.92 76.5 14.5 76.5 14.5 C 76.5 14.5 76.43 14.5 76.4 14.5 C 76 14.5 75.7 14.6 75.4 14.9 C 75.1 15.2 75 15.6 75 16.2 C 75 16.16 75 17.6 75 17.6 L 74.5 17.6 Z M 77.3 14.7 L 77.3 14 L 77.9 14 L 77.9 14.7 L 77.3 14.7 Z M 77.3 17.6 L 77.3 16.9 L 77.9 16.9 L 77.9 17.6 L 77.3 17.6 Z M 81.3 17.6 L 81.3 12.7 C 81.3 12.7 82.96 12.7 83 12.7 C 83.7 12.7 84.3 12.9 84.8 13.4 C 85.3 13.9 85.6 14.4 85.6 15.1 C 85.6 15.1 85.6 15.1 85.6 15.1 C 85.6 15.8 85.3 16.4 84.8 16.9 C 84.3 17.4 83.7 17.6 83 17.6 C 82.96 17.6 81.3 17.6 81.3 17.6 Z M 83 13.2 C 82.96 13.21 81.8 13.2 81.8 13.2 L 81.8 17.1 C 81.8 17.1 82.96 17.09 83 17.1 C 83.6 17.1 84.1 16.9 84.4 16.5 C 84.8 16.2 85 15.7 85 15.2 C 85 15.2 85 15.1 85 15.1 C 85 14.6 84.8 14.1 84.4 13.8 C 84.1 13.4 83.6 13.2 83 13.2 Z M 91.2 17.6 L 91.2 16.4 L 88.6 16.4 L 88.4 16 L 91.2 12.7 L 91.7 12.7 L 91.7 16 L 92.5 16 L 92.5 16.4 L 91.7 16.4 L 91.7 17.6 L 91.2 17.6 Z M 89.1 16 L 91.2 16 L 91.2 13.4 L 89.1 16 Z M 97.4 15.1 C 97.4 15.9 97.2 16.5 96.8 16.9 C 96.5 17.4 96 17.7 95.3 17.7 C 94.7 17.7 94.2 17.4 93.8 17 C 93.5 16.5 93.3 15.9 93.3 15.2 C 93.3 15.2 93.3 15.1 93.3 15.1 C 93.3 14.4 93.5 13.8 93.9 13.4 C 94.2 12.9 94.7 12.6 95.4 12.6 C 96 12.6 96.5 12.9 96.8 13.3 C 97.2 13.8 97.4 14.4 97.4 15.1 C 97.41 15.14 97.4 15.1 97.4 15.1 C 97.4 15.1 97.41 15.15 97.4 15.1 Z M 93.8 15.1 C 93.8 15.7 94 16.2 94.3 16.6 C 94.5 17 94.9 17.2 95.4 17.2 C 95.8 17.2 96.2 17 96.4 16.6 C 96.7 16.2 96.8 15.7 96.8 15.2 C 96.8 15.2 96.8 15.1 96.8 15.1 C 96.8 14.6 96.7 14.1 96.4 13.7 C 96.1 13.3 95.8 13.1 95.3 13.1 C 94.9 13.1 94.5 13.3 94.3 13.7 C 94 14.1 93.8 14.6 93.8 15.1 C 93.85 15.14 93.8 15.1 93.8 15.1 C 93.8 15.1 93.85 15.15 93.8 15.1 Z M 103.7 17 C 103.2 17.5 102.8 17.7 102.2 17.7 C 101.7 17.7 101.2 17.5 100.9 17.1 C 100.5 16.8 100.3 16.3 100.3 15.8 C 100.3 15.8 100.3 15.8 100.3 15.8 C 100.3 15.3 100.5 14.8 100.9 14.5 C 101.2 14.1 101.7 13.9 102.2 13.9 C 102.7 13.9 103.2 14.1 103.6 14.5 C 103.6 14.5 103.3 14.9 103.3 14.9 C 102.9 14.6 102.6 14.4 102.2 14.4 C 101.8 14.4 101.5 14.5 101.2 14.8 C 101 15.1 100.9 15.4 100.9 15.8 C 100.9 15.8 100.9 15.8 100.9 15.8 C 100.9 16.2 101 16.5 101.3 16.8 C 101.5 17.1 101.8 17.2 102.2 17.2 C 102.6 17.2 103 17 103.3 16.7 C 103.31 16.66 103.7 17 103.7 17 C 103.7 17 103.65 16.98 103.7 17 Z M 104.5 17.6 L 104.5 14 L 105.1 14 C 105.1 14 105.08 14.59 105.1 14.6 C 105.2 14.4 105.4 14.2 105.6 14.1 C 105.7 14 106 13.9 106.3 13.9 C 106.8 13.9 107.2 14.1 107.4 14.6 C 107.7 14.1 108.2 13.9 108.7 13.9 C 109.1 13.9 109.4 14 109.7 14.3 C 109.9 14.6 110 14.9 110 15.4 C 110.03 15.36 110 17.6 110 17.6 L 109.5 17.6 C 109.5 17.6 109.49 15.49 109.5 15.5 C 109.5 15.1 109.4 14.9 109.2 14.7 C 109.1 14.5 108.8 14.4 108.6 14.4 C 108.3 14.4 108 14.5 107.8 14.7 C 107.7 14.9 107.6 15.2 107.6 15.5 C 107.55 15.51 107.6 17.6 107.6 17.6 L 107 17.6 C 107 17.6 107.02 15.47 107 15.5 C 107 15.1 106.9 14.9 106.8 14.7 C 106.6 14.5 106.4 14.4 106.1 14.4 C 105.8 14.4 105.6 14.5 105.4 14.7 C 105.2 14.9 105.1 15.2 105.1 15.5 C 105.08 15.53 105.1 17.6 105.1 17.6 L 104.5 17.6 Z M 111 18.5 C 111 18.5 110.9 18.2 110.9 18.2 C 111.2 18.1 111.4 17.9 111.4 17.6 C 111.37 17.6 111.1 17.6 111.1 17.6 L 111.1 16.9 L 111.8 16.9 C 111.8 16.9 111.76 17.49 111.8 17.5 C 111.8 17.8 111.7 18 111.6 18.1 C 111.5 18.3 111.3 18.4 111 18.5 Z M 115.1 17.6 L 115.1 12.7 L 115.6 12.7 L 115.6 14.9 L 118.5 14.9 L 118.5 12.7 L 119 12.7 L 119 17.6 L 118.5 17.6 L 118.5 15.4 L 115.6 15.4 L 115.6 17.6 L 115.1 17.6 Z M 123.9 17.7 C 123.3 17.7 122.7 17.4 122.2 16.9 C 122.2 16.9 122.5 16.5 122.5 16.5 C 123 17 123.5 17.2 123.9 17.2 C 124.3 17.2 124.6 17.1 124.8 16.9 C 125 16.7 125.1 16.4 125.1 16.1 C 125.1 16.1 125.1 16.1 125.1 16.1 C 125.1 15.8 125 15.5 124.8 15.3 C 124.6 15.1 124.3 15.1 123.9 15.1 C 123.6 15.1 123.2 15.1 122.9 15.3 C 122.88 15.33 122.5 15.1 122.5 15.1 L 122.6 12.7 L 125.5 12.7 L 125.5 13.2 L 123.1 13.2 C 123.1 13.2 123.02 14.78 123 14.8 C 123.3 14.6 123.7 14.6 124 14.6 C 124.5 14.6 124.9 14.7 125.2 15 C 125.5 15.2 125.7 15.6 125.7 16.1 C 125.7 16.1 125.7 16.1 125.7 16.1 C 125.7 16.5 125.5 16.9 125.2 17.2 C 124.9 17.5 124.5 17.7 123.9 17.7 Z M 129.1 17.6 L 129.1 16.4 L 126.5 16.4 L 126.4 16 L 129.2 12.7 L 129.7 12.7 L 129.7 16 L 130.4 16 L 130.4 16.4 L 129.7 16.4 L 129.7 17.6 L 129.1 17.6 Z M 127.1 16 L 129.1 16 L 129.1 13.4 L 127.1 16 Z M 136.6 17 C 136.2 17.5 135.7 17.7 135.1 17.7 C 134.6 17.7 134.2 17.5 133.8 17.1 C 133.4 16.8 133.3 16.3 133.3 15.8 C 133.3 15.8 133.3 15.8 133.3 15.8 C 133.3 15.3 133.4 14.8 133.8 14.5 C 134.2 14.1 134.6 13.9 135.1 13.9 C 135.7 13.9 136.2 14.1 136.6 14.5 C 136.6 14.5 136.2 14.9 136.2 14.9 C 135.9 14.6 135.5 14.4 135.1 14.4 C 134.8 14.4 134.4 14.5 134.2 14.8 C 133.9 15.1 133.8 15.4 133.8 15.8 C 133.8 15.8 133.8 15.8 133.8 15.8 C 133.8 16.2 134 16.5 134.2 16.8 C 134.5 17.1 134.8 17.2 135.2 17.2 C 135.6 17.2 135.9 17 136.3 16.7 C 136.26 16.66 136.6 17 136.6 17 C 136.6 17 136.6 16.98 136.6 17 Z M 137.5 17.6 L 137.5 14 L 138 14 C 138 14 138.03 14.59 138 14.6 C 138.2 14.4 138.3 14.2 138.5 14.1 C 138.7 14 138.9 13.9 139.2 13.9 C 139.7 13.9 140.1 14.1 140.4 14.6 C 140.7 14.1 141.1 13.9 141.6 13.9 C 142.1 13.9 142.4 14 142.6 14.3 C 142.9 14.6 143 14.9 143 15.4 C 142.98 15.36 143 17.6 143 17.6 L 142.4 17.6 C 142.4 17.6 142.44 15.49 142.4 15.5 C 142.4 15.1 142.4 14.9 142.2 14.7 C 142 14.5 141.8 14.4 141.5 14.4 C 141.2 14.4 141 14.5 140.8 14.7 C 140.6 14.9 140.5 15.2 140.5 15.5 C 140.5 15.51 140.5 17.6 140.5 17.6 L 140 17.6 C 140 17.6 139.97 15.47 140 15.5 C 140 15.1 139.9 14.9 139.7 14.7 C 139.6 14.5 139.3 14.4 139 14.4 C 138.7 14.4 138.5 14.5 138.3 14.7 C 138.1 14.9 138 15.2 138 15.5 C 138.03 15.53 138 17.6 138 17.6 L 137.5 17.6 Z M 145.5 18.5 L 148.7 12 L 149.2 12 L 146 18.5 L 145.5 18.5 Z M 152 17.6 L 152 12.7 L 152.5 12.7 L 152.5 14.9 L 155.4 14.9 L 155.4 12.7 L 155.9 12.7 L 155.9 17.6 L 155.4 17.6 L 155.4 15.4 L 152.5 15.4 L 152.5 17.6 L 152 17.6 Z M 159.6 17.1 C 159.3 17.5 158.8 17.7 158.3 17.7 C 157.9 17.7 157.6 17.6 157.3 17.4 C 157.1 17.2 156.9 16.9 156.9 16.5 C 156.9 16.5 156.9 16.5 156.9 16.5 C 156.9 16.2 157.1 15.9 157.4 15.7 C 157.6 15.5 158 15.4 158.5 15.4 C 158.8 15.4 159.2 15.4 159.6 15.5 C 159.6 15.5 159.6 15.4 159.6 15.4 C 159.6 15.1 159.5 14.8 159.3 14.7 C 159.1 14.5 158.9 14.4 158.5 14.4 C 158.1 14.4 157.8 14.5 157.4 14.7 C 157.4 14.7 157.3 14.2 157.3 14.2 C 157.7 14 158.1 13.9 158.6 13.9 C 159.1 13.9 159.5 14.1 159.7 14.3 C 160 14.6 160.1 14.9 160.1 15.4 C 160.11 15.39 160.1 17.6 160.1 17.6 L 159.6 17.6 L 159.6 17.1 C 159.6 17.1 159.59 17.05 159.6 17.1 Z M 158.4 17.2 C 158.7 17.2 159 17.2 159.2 17 C 159.5 16.8 159.6 16.6 159.6 16.3 C 159.6 16.3 159.6 15.9 159.6 15.9 C 159.2 15.8 158.9 15.8 158.5 15.8 C 158.2 15.8 157.9 15.8 157.8 16 C 157.6 16.1 157.5 16.3 157.5 16.5 C 157.5 16.5 157.5 16.5 157.5 16.5 C 157.5 16.7 157.6 16.9 157.7 17.1 C 157.9 17.2 158.1 17.2 158.4 17.2 Z M 164.4 17 C 164 17.5 163.5 17.7 162.9 17.7 C 162.4 17.7 161.9 17.5 161.6 17.1 C 161.2 16.8 161 16.3 161 15.8 C 161 15.8 161 15.8 161 15.8 C 161 15.3 161.2 14.8 161.6 14.5 C 161.9 14.1 162.4 13.9 162.9 13.9 C 163.4 13.9 163.9 14.1 164.3 14.5 C 164.3 14.5 164 14.9 164 14.9 C 163.6 14.6 163.3 14.4 162.9 14.4 C 162.5 14.4 162.2 14.5 162 14.8 C 161.7 15.1 161.6 15.4 161.6 15.8 C 161.6 15.8 161.6 15.8 161.6 15.8 C 161.6 16.2 161.7 16.5 162 16.8 C 162.2 17.1 162.5 17.2 162.9 17.2 C 163.3 17.2 163.7 17 164 16.7 C 164.02 16.66 164.4 17 164.4 17 C 164.4 17 164.37 16.98 164.4 17 Z M 165.3 13.2 L 165.3 12.6 L 165.9 12.6 L 165.9 13.2 L 165.3 13.2 Z M 165.3 17.6 L 165.3 14 L 165.8 14 L 165.8 17.6 L 165.3 17.6 Z M 167.1 17.6 L 167.1 14 L 167.6 14 C 167.6 14 167.63 14.59 167.6 14.6 C 167.8 14.4 167.9 14.2 168.1 14.1 C 168.3 14 168.5 13.9 168.8 13.9 C 169.3 13.9 169.7 14.1 170 14.6 C 170.3 14.1 170.7 13.9 171.2 13.9 C 171.7 13.9 172 14 172.2 14.3 C 172.5 14.6 172.6 14.9 172.6 15.4 C 172.58 15.36 172.6 17.6 172.6 17.6 L 172 17.6 C 172 17.6 172.04 15.49 172 15.5 C 172 15.1 172 14.9 171.8 14.7 C 171.6 14.5 171.4 14.4 171.1 14.4 C 170.8 14.4 170.6 14.5 170.4 14.7 C 170.2 14.9 170.1 15.2 170.1 15.5 C 170.1 15.51 170.1 17.6 170.1 17.6 L 169.6 17.6 C 169.6 17.6 169.57 15.47 169.6 15.5 C 169.6 15.1 169.5 14.9 169.3 14.7 C 169.2 14.5 168.9 14.4 168.6 14.4 C 168.4 14.4 168.1 14.5 167.9 14.7 C 167.7 14.9 167.6 15.2 167.6 15.5 C 167.63 15.53 167.6 17.6 167.6 17.6 L 167.1 17.6 Z M 173.7 14.7 L 173.7 14 L 174.3 14 L 174.3 14.7 L 173.7 14.7 Z M 173.7 17.6 L 173.7 16.9 L 174.3 16.9 L 174.3 17.6 L 173.7 17.6 Z M 179.3 17.7 C 178.8 17.7 178.4 17.5 178 17.2 C 177.8 17 177.7 16.7 177.6 16.4 C 177.5 16.1 177.4 15.8 177.4 15.3 C 177.4 15.3 177.4 15.3 177.4 15.3 C 177.4 14.5 177.6 13.9 178 13.4 C 178.3 12.9 178.8 12.6 179.5 12.6 C 180 12.6 180.5 12.8 180.9 13.2 C 180.9 13.2 180.6 13.6 180.6 13.6 C 180.2 13.3 179.8 13.1 179.4 13.1 C 179 13.1 178.6 13.3 178.4 13.7 C 178.1 14.1 178 14.6 178 15.2 C 178 15.2 178 15.3 178 15.3 C 178.4 14.8 178.8 14.5 179.4 14.5 C 179.9 14.5 180.3 14.7 180.6 15 C 180.9 15.2 181.1 15.6 181.1 16 C 181.1 16 181.1 16.1 181.1 16.1 C 181.1 16.5 180.9 16.9 180.6 17.2 C 180.3 17.5 179.8 17.7 179.3 17.7 Z M 179.3 17.2 C 179.7 17.2 180 17.1 180.2 16.9 C 180.4 16.7 180.5 16.4 180.5 16.1 C 180.5 16.1 180.5 16.1 180.5 16.1 C 180.5 15.8 180.4 15.5 180.2 15.3 C 180 15.1 179.7 15 179.3 15 C 179 15 178.7 15.1 178.5 15.3 C 178.2 15.6 178.1 15.8 178.1 16.1 C 178.1 16.1 178.1 16.1 178.1 16.1 C 178.1 16.4 178.2 16.7 178.5 16.9 C 178.7 17.1 179 17.2 179.3 17.2 Z M 186.1 15.1 C 186.1 15.9 185.9 16.5 185.5 16.9 C 185.1 17.4 184.7 17.7 184 17.7 C 183.4 17.7 182.9 17.4 182.5 17 C 182.2 16.5 182 15.9 182 15.2 C 182 15.2 182 15.1 182 15.1 C 182 14.4 182.2 13.8 182.5 13.4 C 182.9 12.9 183.4 12.6 184 12.6 C 184.7 12.6 185.2 12.9 185.5 13.3 C 185.9 13.8 186.1 14.4 186.1 15.1 C 186.11 15.14 186.1 15.1 186.1 15.1 C 186.1 15.1 186.11 15.15 186.1 15.1 Z M 182.5 15.1 C 182.5 15.7 182.7 16.2 183 16.6 C 183.2 17 183.6 17.2 184 17.2 C 184.5 17.2 184.9 17 185.1 16.6 C 185.4 16.2 185.5 15.7 185.5 15.2 C 185.5 15.2 185.5 15.1 185.5 15.1 C 185.5 14.6 185.4 14.1 185.1 13.7 C 184.8 13.3 184.5 13.1 184 13.1 C 183.6 13.1 183.2 13.3 183 13.7 C 182.7 14.1 182.5 14.6 182.5 15.1 C 182.54 15.14 182.5 15.1 182.5 15.1 C 182.5 15.1 182.54 15.15 182.5 15.1 Z M 189.3 17.6 L 189.3 12.5 L 189.8 12.5 L 189.8 17.6 L 189.3 17.6 Z M 191.1 13.2 L 191.1 12.6 L 191.7 12.6 L 191.7 13.2 L 191.1 13.2 Z M 191.1 17.6 L 191.1 14 L 191.7 14 L 191.7 17.6 L 191.1 17.6 Z M 194.8 17.5 C 194.6 17.6 194.4 17.7 194.1 17.7 C 193.8 17.7 193.6 17.6 193.4 17.4 C 193.2 17.2 193.1 17 193.1 16.6 C 193.11 16.64 193.1 14.5 193.1 14.5 L 192.6 14.5 L 192.6 14 L 193.1 14 L 193.1 12.9 L 193.7 12.9 L 193.7 14 L 194.8 14 L 194.8 14.5 L 193.7 14.5 C 193.7 14.5 193.65 16.57 193.7 16.6 C 193.7 17 193.9 17.2 194.3 17.2 C 194.4 17.2 194.6 17.1 194.8 17 C 194.79 17.05 194.8 17.5 194.8 17.5 C 194.8 17.5 194.79 17.51 194.8 17.5 Z M 195.8 17.6 L 195.8 14 L 196.3 14 C 196.3 14 196.29 14.93 196.3 14.9 C 196.4 14.6 196.6 14.4 196.9 14.2 C 197.1 14 197.4 13.9 197.8 13.9 C 197.77 13.92 197.8 14.5 197.8 14.5 C 197.8 14.5 197.73 14.5 197.7 14.5 C 197.3 14.5 197 14.6 196.7 14.9 C 196.4 15.2 196.3 15.6 196.3 16.2 C 196.29 16.16 196.3 17.6 196.3 17.6 L 195.8 17.6 Z M 201.7 17 C 201.3 17.5 200.8 17.7 200.2 17.7 C 199.7 17.7 199.2 17.5 198.9 17.2 C 198.5 16.8 198.4 16.4 198.4 15.8 C 198.4 15.8 198.4 15.8 198.4 15.8 C 198.4 15.3 198.5 14.8 198.9 14.4 C 199.2 14.1 199.6 13.9 200.1 13.9 C 200.6 13.9 201 14.1 201.3 14.4 C 201.6 14.8 201.8 15.3 201.8 15.8 C 201.8 15.9 201.8 15.9 201.8 16 C 201.8 16 198.9 16 198.9 16 C 198.9 16.4 199.1 16.7 199.3 16.9 C 199.6 17.1 199.9 17.2 200.2 17.2 C 200.6 17.2 201 17 201.3 16.7 C 201.32 16.7 201.7 17 201.7 17 C 201.7 17 201.66 17 201.7 17 Z M 198.9 15.6 C 198.9 15.6 201.2 15.6 201.2 15.6 C 201.2 15.2 201.1 14.9 200.9 14.7 C 200.7 14.5 200.4 14.4 200.1 14.4 C 199.8 14.4 199.5 14.5 199.3 14.7 C 199.1 14.9 198.9 15.2 198.9 15.6 Z M 204.1 18.5 L 207.3 12 L 207.8 12 L 204.6 18.5 L 204.1 18.5 Z M 210.2 17.6 L 212.4 12.7 L 212.9 12.7 L 215.1 17.6 L 214.5 17.6 L 214 16.3 L 211.3 16.3 L 210.7 17.6 L 210.2 17.6 Z M 211.5 15.8 L 213.8 15.8 L 212.6 13.3 L 211.5 15.8 Z M 218.9 16.9 C 218.5 17.4 218.1 17.7 217.5 17.7 C 217.1 17.7 216.7 17.5 216.3 17.2 C 216 16.8 215.8 16.4 215.8 15.8 C 215.8 15.8 215.8 15.8 215.8 15.8 C 215.8 15.2 216 14.8 216.3 14.4 C 216.7 14.1 217.1 13.9 217.5 13.9 C 218.1 13.9 218.6 14.2 218.9 14.7 C 218.92 14.67 218.9 12.5 218.9 12.5 L 219.5 12.5 L 219.5 17.6 L 218.9 17.6 L 218.9 16.9 C 218.9 16.9 218.92 16.87 218.9 16.9 Z M 217.6 17.2 C 218 17.2 218.3 17.1 218.6 16.8 C 218.8 16.5 218.9 16.2 218.9 15.8 C 218.9 15.8 218.9 15.8 218.9 15.8 C 218.9 15.4 218.8 15 218.6 14.8 C 218.3 14.5 218 14.4 217.6 14.4 C 217.3 14.4 217 14.5 216.7 14.8 C 216.5 15 216.4 15.4 216.4 15.8 C 216.4 15.8 216.4 15.8 216.4 15.8 C 216.4 16.2 216.5 16.6 216.7 16.8 C 217 17.1 217.3 17.2 217.6 17.2 Z M 223.7 17 C 223.3 17.5 222.8 17.7 222.2 17.7 C 221.7 17.7 221.3 17.5 221 17.2 C 220.6 16.8 220.4 16.4 220.4 15.8 C 220.4 15.8 220.4 15.8 220.4 15.8 C 220.4 15.3 220.6 14.8 220.9 14.4 C 221.3 14.1 221.7 13.9 222.2 13.9 C 222.7 13.9 223.1 14.1 223.4 14.4 C 223.7 14.8 223.9 15.3 223.9 15.8 C 223.9 15.9 223.9 15.9 223.9 16 C 223.9 16 221 16 221 16 C 221 16.4 221.2 16.7 221.4 16.9 C 221.6 17.1 221.9 17.2 222.3 17.2 C 222.7 17.2 223.1 17 223.4 16.7 C 223.4 16.7 223.7 17 223.7 17 C 223.7 17 223.74 17 223.7 17 Z M 221 15.6 C 221 15.6 223.3 15.6 223.3 15.6 C 223.3 15.2 223.2 14.9 223 14.7 C 222.8 14.5 222.5 14.4 222.2 14.4 C 221.9 14.4 221.6 14.5 221.4 14.7 C 221.2 14.9 221 15.2 221 15.6 Z M 226.7 17.5 C 226.5 17.6 226.3 17.7 226 17.7 C 225.7 17.7 225.5 17.6 225.3 17.4 C 225.1 17.2 225 17 225 16.6 C 225 16.64 225 14.5 225 14.5 L 224.5 14.5 L 224.5 14 L 225 14 L 225 12.9 L 225.5 12.9 L 225.5 14 L 226.7 14 L 226.7 14.5 L 225.5 14.5 C 225.5 14.5 225.54 16.57 225.5 16.6 C 225.5 17 225.7 17.2 226.1 17.2 C 226.3 17.2 226.5 17.1 226.7 17 C 226.67 17.05 226.7 17.5 226.7 17.5 C 226.7 17.5 226.67 17.51 226.7 17.5 Z M 227.6 14.7 L 227.6 14 L 228.2 14 L 228.2 14.7 L 227.6 14.7 Z M 227.6 17.6 L 227.6 16.9 L 228.2 16.9 L 228.2 17.6 L 227.6 17.6 Z M 231.2 17.6 L 231.2 17.2 C 231.2 17.2 233.03 15.6 233 15.6 C 233.4 15.3 233.7 15 233.8 14.8 C 234 14.5 234 14.3 234 14.1 C 234 13.8 234 13.6 233.8 13.4 C 233.6 13.2 233.3 13.1 233.1 13.1 C 232.8 13.1 232.6 13.2 232.4 13.3 C 232.2 13.5 232 13.7 231.7 14 C 231.7 14 231.3 13.7 231.3 13.7 C 231.6 13.3 231.8 13 232.1 12.9 C 232.4 12.7 232.7 12.6 233.1 12.6 C 233.5 12.6 233.9 12.8 234.2 13 C 234.5 13.3 234.6 13.6 234.6 14 C 234.6 14 234.6 14 234.6 14 C 234.6 14.4 234.5 14.7 234.3 14.9 C 234.2 15.2 233.8 15.5 233.4 15.9 C 233.38 15.93 232.1 17.1 232.1 17.1 L 234.7 17.1 L 234.7 17.6 L 231.2 17.6 Z M 235.5 14.3 C 235.5 14.3 235.5 14 235.5 14 C 235.8 13.9 236 13.7 235.9 13.4 C 235.93 13.43 235.7 13.4 235.7 13.4 L 235.7 12.7 L 236.3 12.7 C 236.3 12.7 236.32 13.33 236.3 13.3 C 236.3 13.6 236.3 13.8 236.1 14 C 236 14.1 235.8 14.2 235.5 14.3 Z M 237.5 17.6 L 237.5 12.5 L 238 12.5 L 238 17.6 L 237.5 17.6 Z M 239.3 13.2 L 239.3 12.6 L 239.9 12.6 L 239.9 13.2 L 239.3 13.2 Z M 239.3 17.6 L 239.3 14 L 239.9 14 L 239.9 17.6 L 239.3 17.6 Z M 245 17.7 C 244.2 17.7 243.6 17.4 243 16.9 C 243 16.9 243.3 16.5 243.3 16.5 C 243.6 16.7 243.8 16.9 244.1 17 C 244.4 17.1 244.7 17.2 245 17.2 C 245.3 17.2 245.6 17.1 245.8 16.9 C 246 16.8 246.1 16.6 246.1 16.3 C 246.1 16.3 246.1 16.3 246.1 16.3 C 246.1 16.1 246 15.9 245.8 15.8 C 245.6 15.6 245.3 15.5 244.8 15.4 C 244.2 15.3 243.8 15.1 243.6 14.9 C 243.3 14.7 243.2 14.4 243.2 14 C 243.2 14 243.2 14 243.2 14 C 243.2 13.6 243.3 13.3 243.6 13 C 243.9 12.8 244.3 12.6 244.8 12.6 C 245.1 12.6 245.4 12.7 245.7 12.8 C 246 12.9 246.2 13 246.5 13.2 C 246.5 13.2 246.2 13.7 246.2 13.7 C 245.7 13.3 245.3 13.1 244.8 13.1 C 244.4 13.1 244.2 13.2 244 13.4 C 243.8 13.5 243.7 13.7 243.7 13.9 C 243.7 13.9 243.7 13.9 243.7 13.9 C 243.7 14.2 243.8 14.4 244 14.5 C 244.2 14.7 244.5 14.8 245.1 14.9 C 245.6 15 246 15.2 246.3 15.4 C 246.5 15.6 246.6 15.9 246.6 16.3 C 246.6 16.3 246.6 16.3 246.6 16.3 C 246.6 16.7 246.5 17 246.2 17.3 C 245.9 17.5 245.5 17.7 245 17.7 Z M 250.8 17 C 250.4 17.5 249.9 17.7 249.3 17.7 C 248.8 17.7 248.3 17.5 248 17.2 C 247.6 16.8 247.5 16.4 247.5 15.8 C 247.5 15.8 247.5 15.8 247.5 15.8 C 247.5 15.3 247.6 14.8 248 14.4 C 248.3 14.1 248.7 13.9 249.2 13.9 C 249.7 13.9 250.1 14.1 250.4 14.4 C 250.7 14.8 250.9 15.3 250.9 15.8 C 250.9 15.9 250.9 15.9 250.9 16 C 250.9 16 248 16 248 16 C 248 16.4 248.2 16.7 248.4 16.9 C 248.7 17.1 248.9 17.2 249.3 17.2 C 249.7 17.2 250.1 17 250.4 16.7 C 250.42 16.7 250.8 17 250.8 17 C 250.8 17 250.76 17 250.8 17 Z M 248 15.6 C 248 15.6 250.3 15.6 250.3 15.6 C 250.3 15.2 250.2 14.9 250 14.7 C 249.8 14.5 249.5 14.4 249.2 14.4 C 248.9 14.4 248.6 14.5 248.4 14.7 C 248.2 14.9 248 15.2 248 15.6 Z M 253.7 17.5 C 253.5 17.6 253.3 17.7 253 17.7 C 252.7 17.7 252.5 17.6 252.3 17.4 C 252.1 17.2 252 17 252 16.6 C 252.02 16.64 252 14.5 252 14.5 L 251.5 14.5 L 251.5 14 L 252 14 L 252 12.9 L 252.6 12.9 L 252.6 14 L 253.7 14 L 253.7 14.5 L 252.6 14.5 C 252.6 14.5 252.56 16.57 252.6 16.6 C 252.6 17 252.8 17.2 253.2 17.2 C 253.3 17.2 253.5 17.1 253.7 17 C 253.69 17.05 253.7 17.5 253.7 17.5 C 253.7 17.5 253.69 17.51 253.7 17.5 Z M 257 18.5 L 257 12 L 257.4 12 L 257.4 18.5 L 257 18.5 Z M 262.3 17.6 L 262.3 13.2 L 260.7 13.2 L 260.7 12.7 L 264.5 12.7 L 264.5 13.2 L 262.9 13.2 L 262.9 17.6 L 262.3 17.6 Z M 267.9 17.1 C 267.5 17.5 267.1 17.7 266.5 17.7 C 266.2 17.7 265.9 17.6 265.6 17.4 C 265.3 17.2 265.2 16.9 265.2 16.5 C 265.2 16.5 265.2 16.5 265.2 16.5 C 265.2 16.2 265.3 15.9 265.6 15.7 C 265.9 15.5 266.3 15.4 266.7 15.4 C 267.1 15.4 267.5 15.4 267.9 15.5 C 267.9 15.5 267.9 15.4 267.9 15.4 C 267.9 15.1 267.8 14.8 267.6 14.7 C 267.4 14.5 267.1 14.4 266.8 14.4 C 266.4 14.4 266 14.5 265.7 14.7 C 265.7 14.7 265.5 14.2 265.5 14.2 C 265.9 14 266.4 13.9 266.8 13.9 C 267.3 13.9 267.7 14.1 268 14.3 C 268.2 14.6 268.4 14.9 268.4 15.4 C 268.37 15.39 268.4 17.6 268.4 17.6 L 267.9 17.6 L 267.9 17.1 C 267.9 17.1 267.85 17.05 267.9 17.1 Z M 266.6 17.2 C 267 17.2 267.3 17.2 267.5 17 C 267.7 16.8 267.9 16.6 267.9 16.3 C 267.9 16.3 267.9 15.9 267.9 15.9 C 267.5 15.8 267.1 15.8 266.8 15.8 C 266.5 15.8 266.2 15.8 266 16 C 265.8 16.1 265.7 16.3 265.7 16.5 C 265.7 16.5 265.7 16.5 265.7 16.5 C 265.7 16.7 265.8 16.9 266 17.1 C 266.2 17.2 266.4 17.2 266.6 17.2 Z M 270.7 17.7 C 270.2 17.7 269.7 17.5 269.2 17.1 C 269.2 17.1 269.5 16.8 269.5 16.8 C 269.9 17.1 270.3 17.2 270.7 17.2 C 271 17.2 271.1 17.2 271.3 17.1 C 271.4 17 271.5 16.8 271.5 16.6 C 271.5 16.6 271.5 16.6 271.5 16.6 C 271.5 16.5 271.4 16.3 271.3 16.2 C 271.1 16.2 270.9 16.1 270.6 16 C 270.5 16 270.4 15.9 270.3 15.9 C 270.2 15.9 270.2 15.8 270 15.8 C 269.9 15.8 269.8 15.7 269.8 15.7 C 269.7 15.6 269.7 15.6 269.6 15.5 C 269.5 15.4 269.5 15.4 269.4 15.3 C 269.4 15.2 269.4 15.1 269.4 15 C 269.4 15 269.4 15 269.4 15 C 269.4 14.6 269.5 14.4 269.7 14.2 C 270 14 270.3 13.9 270.6 13.9 C 271.1 13.9 271.5 14.1 271.9 14.3 C 271.9 14.3 271.7 14.7 271.7 14.7 C 271.3 14.5 271 14.4 270.6 14.4 C 270.4 14.4 270.2 14.4 270.1 14.5 C 270 14.6 269.9 14.7 269.9 14.9 C 269.9 14.9 269.9 14.9 269.9 14.9 C 269.9 15 269.9 15 270 15.1 C 270 15.1 270 15.2 270.1 15.2 C 270.1 15.3 270.2 15.3 270.3 15.4 C 270.4 15.4 270.5 15.4 270.6 15.4 C 270.6 15.5 270.7 15.5 270.8 15.5 C 271 15.6 271.1 15.6 271.2 15.6 C 271.3 15.7 271.4 15.7 271.5 15.8 C 271.6 15.8 271.7 15.9 271.8 16 C 271.8 16 271.9 16.1 271.9 16.2 C 272 16.3 272 16.4 272 16.6 C 272 16.6 272 16.6 272 16.6 C 272 16.9 271.9 17.2 271.6 17.4 C 271.4 17.6 271.1 17.7 270.7 17.7 Z M 275.4 17.1 C 275.1 17.5 274.6 17.7 274.1 17.7 C 273.7 17.7 273.4 17.6 273.1 17.4 C 272.9 17.2 272.7 16.9 272.7 16.5 C 272.7 16.5 272.7 16.5 272.7 16.5 C 272.7 16.2 272.9 15.9 273.2 15.7 C 273.4 15.5 273.8 15.4 274.3 15.4 C 274.6 15.4 275 15.4 275.4 15.5 C 275.4 15.5 275.4 15.4 275.4 15.4 C 275.4 15.1 275.3 14.8 275.1 14.7 C 274.9 14.5 274.7 14.4 274.3 14.4 C 273.9 14.4 273.6 14.5 273.2 14.7 C 273.2 14.7 273.1 14.2 273.1 14.2 C 273.5 14 273.9 13.9 274.4 13.9 C 274.9 13.9 275.3 14.1 275.5 14.3 C 275.8 14.6 275.9 14.9 275.9 15.4 C 275.91 15.39 275.9 17.6 275.9 17.6 L 275.4 17.6 L 275.4 17.1 C 275.4 17.1 275.39 17.05 275.4 17.1 Z M 274.2 17.2 C 274.5 17.2 274.8 17.2 275 17 C 275.3 16.8 275.4 16.6 275.4 16.3 C 275.4 16.3 275.4 15.9 275.4 15.9 C 275 15.8 274.7 15.8 274.3 15.8 C 274 15.8 273.7 15.8 273.6 16 C 273.4 16.1 273.3 16.3 273.3 16.5 C 273.3 16.5 273.3 16.5 273.3 16.5 C 273.3 16.7 273.4 16.9 273.5 17.1 C 273.7 17.2 273.9 17.2 274.2 17.2 Z M 277.1 17.6 L 277.1 14 L 277.6 14 C 277.6 14 277.59 14.93 277.6 14.9 C 277.7 14.6 277.9 14.4 278.2 14.2 C 278.4 14 278.7 13.9 279.1 13.9 C 279.07 13.92 279.1 14.5 279.1 14.5 C 279.1 14.5 279.03 14.5 279 14.5 C 278.6 14.5 278.3 14.6 278 14.9 C 277.7 15.2 277.6 15.6 277.6 16.2 C 277.59 16.16 277.6 17.6 277.6 17.6 L 277.1 17.6 Z M 279.9 17.6 L 279.9 14 L 280.5 14 L 280.5 17.6 L 279.9 17.6 Z M 281.7 17.6 L 281.7 14 L 282.3 14 C 282.3 14 282.27 14.59 282.3 14.6 C 282.4 14.4 282.6 14.2 282.8 14.1 C 282.9 14 283.2 13.9 283.4 13.9 C 284 13.9 284.4 14.1 284.6 14.6 C 284.9 14.1 285.3 13.9 285.9 13.9 C 286.3 13.9 286.6 14 286.9 14.3 C 287.1 14.6 287.2 14.9 287.2 15.4 C 287.22 15.36 287.2 17.6 287.2 17.6 L 286.7 17.6 C 286.7 17.6 286.68 15.49 286.7 15.5 C 286.7 15.1 286.6 14.9 286.4 14.7 C 286.3 14.5 286 14.4 285.7 14.4 C 285.5 14.4 285.2 14.5 285 14.7 C 284.8 14.9 284.7 15.2 284.7 15.5 C 284.74 15.51 284.7 17.6 284.7 17.6 L 284.2 17.6 C 284.2 17.6 284.21 15.47 284.2 15.5 C 284.2 15.1 284.1 14.9 284 14.7 C 283.8 14.5 283.6 14.4 283.3 14.4 C 283 14.4 282.7 14.5 282.6 14.7 C 282.4 14.9 282.3 15.2 282.3 15.5 C 282.27 15.53 282.3 17.6 282.3 17.6 L 281.7 17.6 Z M 288.3 14.7 L 288.3 14 L 289 14 L 289 14.7 L 288.3 14.7 Z M 288.3 17.6 L 288.3 16.9 L 289 16.9 L 289 17.6 L 288.3 17.6 Z M 294 17.6 L 291.9 12.7 L 292.5 12.7 L 294.3 16.9 L 296 12.7 L 296.6 12.7 L 294.5 17.6 L 294 17.6 Z M 297.6 17.6 L 297.6 12.7 L 301.1 12.7 L 301.1 13.2 L 298.1 13.2 L 298.1 14.9 L 300.8 14.9 L 300.8 15.4 L 298.1 15.4 L 298.1 17.1 L 301.2 17.1 L 301.2 17.6 L 297.6 17.6 Z M 301.9 17.6 L 301.9 17.2 C 301.9 17.2 303.7 15.6 303.7 15.6 C 304.1 15.3 304.3 15 304.5 14.8 C 304.6 14.5 304.7 14.3 304.7 14.1 C 304.7 13.8 304.6 13.6 304.4 13.4 C 304.2 13.2 304 13.1 303.7 13.1 C 303.5 13.1 303.2 13.2 303 13.3 C 302.8 13.5 302.6 13.7 302.4 14 C 302.4 14 302 13.7 302 13.7 C 302.3 13.3 302.5 13 302.8 12.9 C 303 12.7 303.4 12.6 303.8 12.6 C 304.2 12.6 304.6 12.8 304.9 13 C 305.2 13.3 305.3 13.6 305.3 14 C 305.3 14 305.3 14 305.3 14 C 305.3 14.4 305.2 14.7 305 14.9 C 304.8 15.2 304.5 15.5 304.1 15.9 C 304.05 15.93 302.7 17.1 302.7 17.1 L 305.3 17.1 L 305.3 17.6 L 301.9 17.6 Z " stroke="none" fill="#000"/>  </g>  <g id="Polygon62345">    <path d="M 2.6 6.8 L 1.7 6.4 C 1.7 6.4 2.28 5.61 2.3 5.6 C 1.7 5.5 1.3 5.2 0.9 4.7 C 0.5 4.3 0.4 3.8 0.4 3.2 C 0.4 3.2 0.4 3.1 0.4 3.1 C 0.4 2.4 0.6 1.8 1.1 1.4 C 1.6 0.9 2.2 0.6 2.9 0.6 C 3.7 0.6 4.4 0.9 4.9 1.4 C 4.9 1.4 4.2 2.2 4.2 2.2 C 3.8 1.8 3.3 1.6 2.9 1.6 C 2.5 1.6 2.2 1.8 1.9 2.1 C 1.6 2.4 1.5 2.7 1.5 3.1 C 1.5 3.1 1.5 3.1 1.5 3.1 C 1.5 3.6 1.6 3.9 1.9 4.2 C 2.2 4.5 2.5 4.7 2.9 4.7 C 3.2 4.7 3.4 4.6 3.6 4.5 C 3.8 4.5 4 4.3 4.2 4.1 C 4.2 4.1 4.9 4.8 4.9 4.8 C 4.4 5.4 3.8 5.6 3.1 5.7 C 3.07 5.68 2.6 6.8 2.6 6.8 Z M 7.8 5.2 C 7.6 5.5 7.2 5.7 6.7 5.7 C 6.3 5.7 6 5.6 5.8 5.4 C 5.5 5.2 5.4 4.9 5.4 4.5 C 5.4 4.5 5.4 4.5 5.4 4.5 C 5.4 4.1 5.6 3.8 5.8 3.6 C 6.1 3.4 6.5 3.3 6.9 3.3 C 7.2 3.3 7.5 3.4 7.8 3.5 C 7.8 3.5 7.8 3.4 7.8 3.4 C 7.8 2.9 7.6 2.7 7 2.7 C 6.7 2.7 6.4 2.8 6 2.9 C 6 2.9 5.7 2.1 5.7 2.1 C 6.2 1.9 6.7 1.8 7.2 1.8 C 7.8 1.8 8.2 1.9 8.5 2.2 C 8.7 2.5 8.9 2.9 8.9 3.4 C 8.87 3.42 8.9 5.6 8.9 5.6 L 7.8 5.6 L 7.8 5.2 C 7.8 5.2 7.84 5.19 7.8 5.2 Z M 7 4.9 C 7.3 4.9 7.5 4.9 7.6 4.8 C 7.8 4.6 7.9 4.5 7.9 4.3 C 7.9 4.3 7.9 4.1 7.9 4.1 C 7.7 4 7.4 3.9 7.2 3.9 C 7 3.9 6.8 4 6.6 4.1 C 6.5 4.2 6.4 4.3 6.4 4.5 C 6.4 4.5 6.4 4.5 6.4 4.5 C 6.4 4.6 6.5 4.7 6.6 4.8 C 6.7 4.9 6.9 4.9 7 4.9 Z M 9.8 5.6 L 9.8 1.8 L 10.8 1.8 C 10.8 1.8 10.85 2.38 10.8 2.4 C 11.2 2 11.5 1.8 12 1.8 C 12.5 1.8 12.8 2 13 2.4 C 13.3 2 13.8 1.8 14.2 1.8 C 14.6 1.8 15 1.9 15.2 2.1 C 15.4 2.4 15.5 2.7 15.5 3.2 C 15.51 3.16 15.5 5.6 15.5 5.6 L 14.4 5.6 C 14.4 5.6 14.45 3.51 14.4 3.5 C 14.4 3 14.2 2.7 13.8 2.7 C 13.6 2.7 13.5 2.8 13.4 2.9 C 13.2 3.1 13.2 3.3 13.2 3.5 C 13.18 3.51 13.2 5.6 13.2 5.6 L 12.1 5.6 C 12.1 5.6 12.12 3.51 12.1 3.5 C 12.1 3 11.9 2.7 11.5 2.7 C 11.3 2.7 11.1 2.8 11 2.9 C 10.9 3.1 10.8 3.3 10.8 3.5 C 10.85 3.51 10.8 5.6 10.8 5.6 L 9.8 5.6 Z M 18.6 5.2 C 18.3 5.5 18 5.7 17.5 5.7 C 17.1 5.7 16.8 5.6 16.6 5.4 C 16.3 5.2 16.2 4.9 16.2 4.5 C 16.2 4.5 16.2 4.5 16.2 4.5 C 16.2 4.1 16.3 3.8 16.6 3.6 C 16.9 3.4 17.3 3.3 17.7 3.3 C 18 3.3 18.3 3.4 18.6 3.5 C 18.6 3.5 18.6 3.4 18.6 3.4 C 18.6 2.9 18.4 2.7 17.8 2.7 C 17.5 2.7 17.1 2.8 16.8 2.9 C 16.8 2.9 16.5 2.1 16.5 2.1 C 17 1.9 17.5 1.8 18 1.8 C 18.6 1.8 19 1.9 19.3 2.2 C 19.5 2.5 19.7 2.9 19.7 3.4 C 19.66 3.42 19.7 5.6 19.7 5.6 L 18.6 5.6 L 18.6 5.2 C 18.6 5.2 18.63 5.19 18.6 5.2 Z M 17.8 4.9 C 18.1 4.9 18.3 4.9 18.4 4.8 C 18.6 4.6 18.7 4.5 18.7 4.3 C 18.7 4.3 18.7 4.1 18.7 4.1 C 18.4 4 18.2 3.9 18 3.9 C 17.7 3.9 17.6 4 17.4 4.1 C 17.3 4.2 17.2 4.3 17.2 4.5 C 17.2 4.5 17.2 4.5 17.2 4.5 C 17.2 4.6 17.3 4.7 17.4 4.8 C 17.5 4.9 17.6 4.9 17.8 4.9 Z M 21.8 6.8 L 20.9 6.4 C 20.9 6.4 21.43 5.62 21.4 5.6 C 21 5.5 20.6 5.4 20.3 5.1 C 20.3 5.1 20.7 4.4 20.7 4.4 C 21.2 4.7 21.5 4.9 21.9 4.9 C 22.2 4.9 22.4 4.8 22.4 4.6 C 22.4 4.6 22.4 4.6 22.4 4.6 C 22.4 4.5 22.4 4.5 22.4 4.5 C 22.3 4.4 22.3 4.4 22.3 4.4 C 22.3 4.4 22.2 4.4 22.2 4.3 C 22.2 4.3 22.1 4.3 22.1 4.3 C 22 4.3 22 4.2 21.9 4.2 C 21.9 4.2 21.8 4.2 21.8 4.2 C 21.7 4.2 21.6 4.1 21.6 4.1 C 21.4 4.1 21.3 4 21.2 4 C 21.1 3.9 21 3.9 20.8 3.8 C 20.7 3.7 20.6 3.6 20.6 3.5 C 20.5 3.3 20.5 3.2 20.5 3 C 20.5 3 20.5 3 20.5 3 C 20.5 2.6 20.6 2.3 20.9 2.1 C 21.1 1.9 21.5 1.8 21.8 1.8 C 22.3 1.8 22.8 1.9 23.2 2.2 C 23.2 2.2 22.8 3 22.8 3 C 22.4 2.7 22.1 2.6 21.8 2.6 C 21.7 2.6 21.6 2.6 21.5 2.7 C 21.5 2.7 21.4 2.8 21.4 2.9 C 21.4 2.9 21.4 2.9 21.4 2.9 C 21.4 3 21.5 3 21.6 3.1 C 21.8 3.2 21.9 3.3 22.2 3.3 C 22.4 3.4 22.5 3.4 22.6 3.5 C 22.7 3.5 22.8 3.6 23 3.7 C 23.1 3.8 23.2 3.9 23.2 4 C 23.3 4.1 23.3 4.3 23.3 4.4 C 23.3 4.4 23.3 4.5 23.3 4.5 C 23.3 4.8 23.2 5.1 23 5.3 C 22.8 5.5 22.6 5.6 22.2 5.6 C 22.22 5.65 21.8 6.8 21.8 6.8 Z M 24.1 5.6 L 24.1 1.8 L 25.2 1.8 L 25.2 5.6 L 24.1 5.6 Z M 26.2 5.6 L 26.2 1.8 L 27.3 1.8 C 27.3 1.8 27.27 2.6 27.3 2.6 C 27.5 2 27.9 1.8 28.5 1.8 C 28.47 1.78 28.5 2.9 28.5 2.9 C 28.5 2.9 28.41 2.89 28.4 2.9 C 28 2.9 27.8 3 27.6 3.2 C 27.4 3.4 27.3 3.8 27.3 4.2 C 27.27 4.21 27.3 5.6 27.3 5.6 L 26.2 5.6 Z M 33.1 5.7 C 32.3 5.7 31.6 5.4 31 4.9 C 31 4.9 31.6 4.1 31.6 4.1 C 32.1 4.5 32.6 4.7 33.1 4.7 C 33.3 4.7 33.5 4.7 33.6 4.6 C 33.8 4.5 33.8 4.4 33.8 4.3 C 33.8 4.3 33.8 4.2 33.8 4.2 C 33.8 4.1 33.8 4 33.6 3.9 C 33.5 3.8 33.2 3.7 32.8 3.6 C 32.6 3.5 32.3 3.5 32.2 3.4 C 32 3.3 31.8 3.3 31.7 3.1 C 31.5 3 31.4 2.9 31.3 2.7 C 31.2 2.6 31.2 2.4 31.2 2.1 C 31.2 2.1 31.2 2.1 31.2 2.1 C 31.2 1.7 31.4 1.3 31.7 1 C 32 0.8 32.4 0.6 32.9 0.6 C 33.6 0.6 34.2 0.8 34.7 1.3 C 34.7 1.3 34.2 2.1 34.2 2.1 C 33.7 1.7 33.3 1.6 32.9 1.6 C 32.7 1.6 32.5 1.6 32.4 1.7 C 32.3 1.8 32.3 1.9 32.3 2 C 32.3 2 32.3 2 32.3 2 C 32.3 2.2 32.3 2.3 32.5 2.4 C 32.6 2.5 32.9 2.6 33.3 2.7 C 33.9 2.8 34.3 3 34.5 3.2 C 34.8 3.4 34.9 3.7 34.9 4.1 C 34.9 4.1 34.9 4.2 34.9 4.2 C 34.9 4.6 34.7 5 34.4 5.3 C 34.1 5.5 33.6 5.7 33.1 5.7 Z M 39 5 C 38.6 5.5 38.1 5.7 37.5 5.7 C 36.9 5.7 36.5 5.5 36.1 5.1 C 35.7 4.8 35.5 4.3 35.5 3.7 C 35.5 3.7 35.5 3.7 35.5 3.7 C 35.5 3.2 35.7 2.7 36.1 2.3 C 36.4 2 36.8 1.8 37.4 1.8 C 38 1.8 38.4 2 38.7 2.4 C 39.1 2.8 39.2 3.2 39.2 3.8 C 39.2 3.9 39.2 4 39.2 4.1 C 39.2 4.1 36.6 4.1 36.6 4.1 C 36.6 4.3 36.7 4.5 36.9 4.6 C 37.1 4.8 37.3 4.8 37.5 4.8 C 37.8 4.8 38.1 4.7 38.4 4.4 C 38.42 4.44 39 5 39 5 C 39 5 39.02 4.98 39 5 Z M 36.6 3.4 C 36.6 3.4 38.2 3.4 38.2 3.4 C 38.1 3.2 38.1 3 37.9 2.8 C 37.8 2.7 37.6 2.6 37.4 2.6 C 37.2 2.6 37 2.7 36.8 2.8 C 36.7 3 36.6 3.2 36.6 3.4 Z M 40 6.7 L 40 1.8 L 41.1 1.8 C 41.1 1.8 41.07 2.39 41.1 2.4 C 41.4 2 41.8 1.8 42.2 1.8 C 42.7 1.8 43.1 2 43.4 2.3 C 43.8 2.6 43.9 3.1 43.9 3.7 C 43.9 3.7 43.9 3.7 43.9 3.7 C 43.9 4.3 43.8 4.8 43.4 5.1 C 43.1 5.5 42.7 5.7 42.2 5.7 C 41.8 5.7 41.4 5.5 41.1 5.1 C 41.07 5.11 41.1 6.7 41.1 6.7 L 40 6.7 Z M 41.1 3.7 C 41.1 4 41.1 4.3 41.3 4.5 C 41.5 4.7 41.7 4.8 42 4.8 C 42.2 4.8 42.4 4.7 42.6 4.5 C 42.8 4.3 42.9 4 42.9 3.7 C 42.9 3.7 42.9 3.7 42.9 3.7 C 42.9 3.4 42.8 3.2 42.6 3 C 42.4 2.8 42.2 2.7 42 2.7 C 41.7 2.7 41.5 2.8 41.3 3 C 41.1 3.2 41.1 3.4 41.1 3.7 C 41.05 3.72 41.1 3.7 41.1 3.7 C 41.1 3.7 41.05 3.73 41.1 3.7 Z M 48 5 C 47.7 5.5 47.2 5.7 46.5 5.7 C 45.9 5.7 45.5 5.5 45.1 5.1 C 44.7 4.8 44.5 4.3 44.5 3.7 C 44.5 3.7 44.5 3.7 44.5 3.7 C 44.5 3.2 44.7 2.7 45.1 2.3 C 45.4 2 45.9 1.8 46.4 1.8 C 47 1.8 47.4 2 47.8 2.4 C 48.1 2.8 48.2 3.2 48.2 3.8 C 48.2 3.9 48.2 4 48.2 4.1 C 48.2 4.1 45.6 4.1 45.6 4.1 C 45.7 4.3 45.8 4.5 45.9 4.6 C 46.1 4.8 46.3 4.8 46.5 4.8 C 46.8 4.8 47.1 4.7 47.4 4.4 C 47.43 4.44 48 5 48 5 C 48 5 48.04 4.98 48 5 Z M 45.6 3.4 C 45.6 3.4 47.2 3.4 47.2 3.4 C 47.2 3.2 47.1 3 46.9 2.8 C 46.8 2.7 46.6 2.6 46.4 2.6 C 46.2 2.6 46 2.7 45.9 2.8 C 45.7 3 45.6 3.2 45.6 3.4 Z M 51.1 5.4 C 50.9 5.6 50.6 5.7 50.3 5.7 C 49.9 5.7 49.7 5.6 49.5 5.4 C 49.3 5.2 49.2 4.9 49.2 4.5 C 49.2 4.54 49.2 2.8 49.2 2.8 L 48.7 2.8 L 48.7 1.8 L 49.2 1.8 L 49.2 0.9 L 50.3 0.9 L 50.3 1.8 L 51.1 1.8 L 51.1 2.8 L 50.3 2.8 C 50.3 2.8 50.26 4.36 50.3 4.4 C 50.3 4.6 50.4 4.7 50.6 4.7 C 50.8 4.7 51 4.7 51.1 4.6 C 51.13 4.59 51.1 5.4 51.1 5.4 C 51.1 5.4 51.13 5.45 51.1 5.4 Z M 51.9 1.4 L 51.9 0.5 L 53.1 0.5 L 53.1 1.4 L 51.9 1.4 Z M 52 5.6 L 52 1.8 L 53 1.8 L 53 5.6 L 52 5.6 Z M 56 3.9 L 56 2.9 L 59 2.9 L 59 3.9 L 56 3.9 Z M 66.2 3.5 C 66.2 4.2 66 4.7 65.7 5.1 C 65.3 5.5 64.8 5.7 64.1 5.7 C 63.4 5.7 62.9 5.5 62.5 5.1 C 62.2 4.8 62 4.2 62 3.5 C 61.97 3.5 62 0.7 62 0.7 L 63 0.7 C 63 0.7 63.05 3.47 63 3.5 C 63 3.9 63.1 4.2 63.3 4.4 C 63.5 4.6 63.8 4.7 64.1 4.7 C 64.4 4.7 64.7 4.6 64.9 4.4 C 65.1 4.2 65.2 3.9 65.2 3.5 C 65.16 3.51 65.2 0.7 65.2 0.7 L 66.2 0.7 L 66.2 3.5 C 66.2 3.5 66.24 3.46 66.2 3.5 Z M 67.2 5.6 L 67.2 1.8 L 68.3 1.8 C 68.3 1.8 68.29 2.38 68.3 2.4 C 68.6 2 69 1.8 69.4 1.8 C 69.9 1.8 70.3 2 70.5 2.4 C 70.8 2 71.2 1.8 71.7 1.8 C 72.1 1.8 72.4 1.9 72.6 2.1 C 72.8 2.4 73 2.7 73 3.2 C 72.95 3.16 73 5.6 73 5.6 L 71.9 5.6 C 71.9 5.6 71.89 3.51 71.9 3.5 C 71.9 3 71.7 2.7 71.3 2.7 C 71.1 2.7 70.9 2.8 70.8 2.9 C 70.7 3.1 70.6 3.3 70.6 3.5 C 70.62 3.51 70.6 5.6 70.6 5.6 L 69.6 5.6 C 69.6 5.6 69.56 3.51 69.6 3.5 C 69.6 3 69.4 2.7 68.9 2.7 C 68.7 2.7 68.6 2.8 68.5 2.9 C 68.3 3.1 68.3 3.3 68.3 3.5 C 68.29 3.51 68.3 5.6 68.3 5.6 L 67.2 5.6 Z M 77.2 5 C 76.8 5.5 76.3 5.7 75.7 5.7 C 75.1 5.7 74.6 5.5 74.2 5.1 C 73.9 4.8 73.7 4.3 73.7 3.7 C 73.7 3.7 73.7 3.7 73.7 3.7 C 73.7 3.2 73.9 2.7 74.2 2.3 C 74.6 2 75 1.8 75.6 1.8 C 76.1 1.8 76.6 2 76.9 2.4 C 77.2 2.8 77.4 3.2 77.4 3.8 C 77.4 3.9 77.4 4 77.4 4.1 C 77.4 4.1 74.8 4.1 74.8 4.1 C 74.8 4.3 74.9 4.5 75.1 4.6 C 75.2 4.8 75.4 4.8 75.7 4.8 C 76 4.8 76.3 4.7 76.6 4.4 C 76.58 4.44 77.2 5 77.2 5 C 77.2 5 77.19 4.98 77.2 5 Z M 74.7 3.4 C 74.7 3.4 76.3 3.4 76.3 3.4 C 76.3 3.2 76.2 3 76.1 2.8 C 75.9 2.7 75.8 2.6 75.6 2.6 C 75.3 2.6 75.2 2.7 75 2.8 C 74.9 3 74.8 3.2 74.7 3.4 Z " stroke="none" fill="#000"/>  </g></svg>