<?xml version="1.0" standalone="no"?><!DOCTYPE svg PUBLIC "-//W3C//DTD SVG 1.1//EN" "http://www.w3.org/Graphics/SVG/1.1/DTD/svg11.dtd"><svg xmlns="http://www.w3.org/2000/svg" version="1.1" width="141.3px" height="93.4px" viewBox="0 -3 141.3 93.4" style="top:-3px">  <desc>Duvara Monte S v Sabunluk – Rim r n Kodu: 14645 Renk: Black Malzeme: Al minyum / ABS l ler: D 9 cm, H 14,4 cm Hac...</desc>  <defs/>  <g id="Polygon69610">    <path d="M 2 68.6 L 2 64.2 L 0.3 64.2 L 0.3 63.7 L 4.2 63.7 L 4.2 64.2 L 2.5 64.2 L 2.5 68.6 L 2 68.6 Z M 7.5 68.1 C 7.2 68.5 6.7 68.7 6.2 68.7 C 5.8 68.7 5.5 68.6 5.2 68.4 C 5 68.2 4.8 67.9 4.8 67.5 C 4.8 67.5 4.8 67.5 4.8 67.5 C 4.8 67.2 5 66.9 5.2 66.7 C 5.5 66.5 5.9 66.4 6.4 66.4 C 6.7 66.4 7.1 66.4 7.5 66.5 C 7.5 66.5 7.5 66.4 7.5 66.4 C 7.5 66.1 7.4 65.8 7.2 65.7 C 7 65.5 6.7 65.4 6.4 65.4 C 6 65.4 5.7 65.5 5.3 65.7 C 5.3 65.7 5.1 65.2 5.1 65.2 C 5.6 65 6 64.9 6.5 64.9 C 7 64.9 7.4 65.1 7.6 65.3 C 7.9 65.6 8 65.9 8 66.4 C 7.99 66.39 8 68.6 8 68.6 L 7.5 68.6 L 7.5 68.1 C 7.5 68.1 7.48 68.05 7.5 68.1 Z M 6.3 68.2 C 6.6 68.2 6.9 68.2 7.1 68 C 7.4 67.8 7.5 67.6 7.5 67.3 C 7.5 67.3 7.5 66.9 7.5 66.9 C 7.1 66.8 6.8 66.8 6.4 66.8 C 6.1 66.8 5.8 66.8 5.6 67 C 5.5 67.1 5.4 67.3 5.4 67.5 C 5.4 67.5 5.4 67.5 5.4 67.5 C 5.4 67.7 5.5 67.9 5.6 68.1 C 5.8 68.2 6 68.2 6.3 68.2 Z M 10.3 68.7 C 9.8 68.7 9.3 68.5 8.8 68.1 C 8.8 68.1 9.1 67.8 9.1 67.8 C 9.5 68.1 9.9 68.2 10.4 68.2 C 10.6 68.2 10.8 68.2 10.9 68.1 C 11 68 11.1 67.8 11.1 67.6 C 11.1 67.6 11.1 67.6 11.1 67.6 C 11.1 67.5 11 67.3 10.9 67.2 C 10.7 67.2 10.5 67.1 10.2 67 C 10.1 67 10 66.9 9.9 66.9 C 9.9 66.9 9.8 66.8 9.7 66.8 C 9.5 66.8 9.5 66.7 9.4 66.7 C 9.3 66.6 9.3 66.6 9.2 66.5 C 9.1 66.4 9.1 66.4 9.1 66.3 C 9 66.2 9 66.1 9 66 C 9 66 9 66 9 66 C 9 65.6 9.1 65.4 9.4 65.2 C 9.6 65 9.9 64.9 10.2 64.9 C 10.7 64.9 11.1 65.1 11.5 65.3 C 11.5 65.3 11.3 65.7 11.3 65.7 C 10.9 65.5 10.6 65.4 10.2 65.4 C 10 65.4 9.9 65.4 9.7 65.5 C 9.6 65.6 9.5 65.7 9.5 65.9 C 9.5 65.9 9.5 65.9 9.5 65.9 C 9.5 66 9.6 66 9.6 66.1 C 9.6 66.1 9.7 66.2 9.7 66.2 C 9.8 66.3 9.8 66.3 9.9 66.4 C 10 66.4 10.1 66.4 10.2 66.4 C 10.2 66.5 10.3 66.5 10.5 66.5 C 10.6 66.6 10.7 66.6 10.8 66.6 C 10.9 66.7 11 66.7 11.1 66.8 C 11.2 66.8 11.3 66.9 11.4 67 C 11.5 67 11.5 67.1 11.6 67.2 C 11.6 67.3 11.6 67.4 11.6 67.6 C 11.6 67.6 11.6 67.6 11.6 67.6 C 11.6 67.9 11.5 68.2 11.3 68.4 C 11 68.6 10.7 68.7 10.3 68.7 Z M 15 68.1 C 14.7 68.5 14.3 68.7 13.7 68.7 C 13.3 68.7 13 68.6 12.8 68.4 C 12.5 68.2 12.4 67.9 12.4 67.5 C 12.4 67.5 12.4 67.5 12.4 67.5 C 12.4 67.2 12.5 66.9 12.8 66.7 C 13.1 66.5 13.4 66.4 13.9 66.4 C 14.3 66.4 14.6 66.4 15 66.5 C 15 66.5 15 66.4 15 66.4 C 15 66.1 14.9 65.8 14.7 65.7 C 14.5 65.5 14.3 65.4 13.9 65.4 C 13.6 65.4 13.2 65.5 12.8 65.7 C 12.8 65.7 12.7 65.2 12.7 65.2 C 13.1 65 13.5 64.9 14 64.9 C 14.5 64.9 14.9 65.1 15.2 65.3 C 15.4 65.6 15.5 65.9 15.5 66.4 C 15.53 66.39 15.5 68.6 15.5 68.6 L 15 68.6 L 15 68.1 C 15 68.1 15.01 68.05 15 68.1 Z M 13.8 68.2 C 14.2 68.2 14.4 68.2 14.7 68 C 14.9 67.8 15 67.6 15 67.3 C 15 67.3 15 66.9 15 66.9 C 14.7 66.8 14.3 66.8 14 66.8 C 13.6 66.8 13.4 66.8 13.2 67 C 13 67.1 12.9 67.3 12.9 67.5 C 12.9 67.5 12.9 67.5 12.9 67.5 C 12.9 67.7 13 67.9 13.2 68.1 C 13.3 68.2 13.6 68.2 13.8 68.2 Z M 16.7 68.6 L 16.7 65 L 17.2 65 C 17.2 65 17.22 65.93 17.2 65.9 C 17.4 65.6 17.6 65.4 17.8 65.2 C 18.1 65 18.4 64.9 18.7 64.9 C 18.7 64.92 18.7 65.5 18.7 65.5 C 18.7 65.5 18.65 65.5 18.7 65.5 C 18.2 65.5 17.9 65.6 17.6 65.9 C 17.4 66.2 17.2 66.6 17.2 67.2 C 17.22 67.16 17.2 68.6 17.2 68.6 L 16.7 68.6 Z M 19.6 68.6 L 19.6 65 L 20.1 65 L 20.1 68.6 L 19.6 68.6 Z M 21.4 68.6 L 21.4 65 L 21.9 65 C 21.9 65 21.9 65.59 21.9 65.6 C 22 65.4 22.2 65.2 22.4 65.1 C 22.6 65 22.8 64.9 23.1 64.9 C 23.6 64.9 24 65.1 24.2 65.6 C 24.5 65.1 25 64.9 25.5 64.9 C 25.9 64.9 26.2 65 26.5 65.3 C 26.7 65.6 26.8 65.9 26.8 66.4 C 26.84 66.36 26.8 68.6 26.8 68.6 L 26.3 68.6 C 26.3 68.6 26.31 66.49 26.3 66.5 C 26.3 66.1 26.2 65.9 26.1 65.7 C 25.9 65.5 25.7 65.4 25.4 65.4 C 25.1 65.4 24.9 65.5 24.7 65.7 C 24.5 65.9 24.4 66.2 24.4 66.5 C 24.37 66.51 24.4 68.6 24.4 68.6 L 23.8 68.6 C 23.8 68.6 23.83 66.47 23.8 66.5 C 23.8 66.1 23.8 65.9 23.6 65.7 C 23.4 65.5 23.2 65.4 22.9 65.4 C 22.6 65.4 22.4 65.5 22.2 65.7 C 22 65.9 21.9 66.2 21.9 66.5 C 21.9 66.53 21.9 68.6 21.9 68.6 L 21.4 68.6 Z M 28 65.7 L 28 65 L 28.6 65 L 28.6 65.7 L 28 65.7 Z M 28 68.6 L 28 67.9 L 28.6 67.9 L 28.6 68.6 L 28 68.6 Z M 33.6 68.6 L 31.5 63.7 L 32.2 63.7 L 33.9 67.9 L 35.7 63.7 L 36.2 63.7 L 34.1 68.6 L 33.6 68.6 Z M 37.2 68.6 L 37.2 63.7 L 40.8 63.7 L 40.8 64.2 L 37.8 64.2 L 37.8 65.9 L 40.4 65.9 L 40.4 66.4 L 37.8 66.4 L 37.8 68.1 L 40.8 68.1 L 40.8 68.6 L 37.2 68.6 Z M 41.5 68.6 L 41.5 68.2 C 41.5 68.2 43.32 66.6 43.3 66.6 C 43.7 66.3 44 66 44.1 65.8 C 44.3 65.5 44.3 65.3 44.3 65.1 C 44.3 64.8 44.2 64.6 44.1 64.4 C 43.9 64.2 43.6 64.1 43.4 64.1 C 43.1 64.1 42.9 64.2 42.7 64.3 C 42.4 64.5 42.2 64.7 42 65 C 42 65 41.6 64.7 41.6 64.7 C 41.9 64.3 42.1 64 42.4 63.9 C 42.7 63.7 43 63.6 43.4 63.6 C 43.8 63.6 44.2 63.8 44.5 64 C 44.8 64.3 44.9 64.6 44.9 65 C 44.9 65 44.9 65 44.9 65 C 44.9 65.4 44.8 65.7 44.6 65.9 C 44.5 66.2 44.1 66.5 43.7 66.9 C 43.68 66.93 42.4 68.1 42.4 68.1 L 45 68.1 L 45 68.6 L 41.5 68.6 Z " stroke="none" fill="#000"/>  </g>  <g id="Polygon69609">    <path d="M 0.7 59.6 L 0.7 54.7 L 1.2 54.7 L 1.2 56.9 L 4.1 56.9 L 4.1 54.7 L 4.6 54.7 L 4.6 59.6 L 4.1 59.6 L 4.1 57.4 L 1.2 57.4 L 1.2 59.6 L 0.7 59.6 Z M 8.3 59.1 C 8 59.5 7.6 59.7 7 59.7 C 6.6 59.7 6.3 59.6 6.1 59.4 C 5.8 59.2 5.6 58.9 5.6 58.5 C 5.6 58.5 5.6 58.5 5.6 58.5 C 5.6 58.2 5.8 57.9 6.1 57.7 C 6.4 57.5 6.7 57.4 7.2 57.4 C 7.6 57.4 7.9 57.4 8.3 57.5 C 8.3 57.5 8.3 57.4 8.3 57.4 C 8.3 57.1 8.2 56.8 8 56.7 C 7.8 56.5 7.6 56.4 7.2 56.4 C 6.9 56.4 6.5 56.5 6.1 56.7 C 6.1 56.7 6 56.2 6 56.2 C 6.4 56 6.8 55.9 7.3 55.9 C 7.8 55.9 8.2 56.1 8.5 56.3 C 8.7 56.6 8.8 56.9 8.8 57.4 C 8.83 57.39 8.8 59.6 8.8 59.6 L 8.3 59.6 L 8.3 59.1 C 8.3 59.1 8.31 59.05 8.3 59.1 Z M 7.1 59.2 C 7.4 59.2 7.7 59.2 8 59 C 8.2 58.8 8.3 58.6 8.3 58.3 C 8.3 58.3 8.3 57.9 8.3 57.9 C 8 57.8 7.6 57.8 7.3 57.8 C 6.9 57.8 6.7 57.8 6.5 58 C 6.3 58.1 6.2 58.3 6.2 58.5 C 6.2 58.5 6.2 58.5 6.2 58.5 C 6.2 58.7 6.3 58.9 6.5 59.1 C 6.6 59.2 6.9 59.2 7.1 59.2 Z M 13.1 59 C 12.7 59.5 12.2 59.7 11.6 59.7 C 11.1 59.7 10.6 59.5 10.3 59.1 C 9.9 58.8 9.8 58.3 9.8 57.8 C 9.8 57.8 9.8 57.8 9.8 57.8 C 9.8 57.3 9.9 56.8 10.3 56.5 C 10.6 56.1 11.1 55.9 11.6 55.9 C 12.2 55.9 12.6 56.1 13.1 56.5 C 13.1 56.5 12.7 56.9 12.7 56.9 C 12.4 56.6 12 56.4 11.6 56.4 C 11.2 56.4 10.9 56.5 10.7 56.8 C 10.4 57.1 10.3 57.4 10.3 57.8 C 10.3 57.8 10.3 57.8 10.3 57.8 C 10.3 58.2 10.4 58.5 10.7 58.8 C 10.9 59.1 11.3 59.2 11.6 59.2 C 12 59.2 12.4 59 12.7 58.7 C 12.74 58.66 13.1 59 13.1 59 C 13.1 59 13.08 58.98 13.1 59 Z M 14 55.2 L 14 54.6 L 14.6 54.6 L 14.6 55.2 L 14 55.2 Z M 14 59.6 L 14 56 L 14.6 56 L 14.6 59.6 L 14 59.6 Z M 15.8 59.6 L 15.8 56 L 16.4 56 C 16.4 56 16.35 56.59 16.4 56.6 C 16.5 56.4 16.7 56.2 16.8 56.1 C 17 56 17.2 55.9 17.5 55.9 C 18.1 55.9 18.5 56.1 18.7 56.6 C 19 56.1 19.4 55.9 20 55.9 C 20.4 55.9 20.7 56 20.9 56.3 C 21.2 56.6 21.3 56.9 21.3 57.4 C 21.3 57.36 21.3 59.6 21.3 59.6 L 20.8 59.6 C 20.8 59.6 20.76 57.49 20.8 57.5 C 20.8 57.1 20.7 56.9 20.5 56.7 C 20.3 56.5 20.1 56.4 19.8 56.4 C 19.5 56.4 19.3 56.5 19.1 56.7 C 18.9 56.9 18.8 57.2 18.8 57.5 C 18.82 57.51 18.8 59.6 18.8 59.6 L 18.3 59.6 C 18.3 59.6 18.29 57.47 18.3 57.5 C 18.3 57.1 18.2 56.9 18 56.7 C 17.9 56.5 17.6 56.4 17.4 56.4 C 17.1 56.4 16.8 56.5 16.6 56.7 C 16.4 56.9 16.4 57.2 16.4 57.5 C 16.35 57.53 16.4 59.6 16.4 59.6 L 15.8 59.6 Z M 22.4 56.7 L 22.4 56 L 23.1 56 L 23.1 56.7 L 22.4 56.7 Z M 22.4 59.6 L 22.4 58.9 L 23.1 58.9 L 23.1 59.6 L 22.4 59.6 Z M 30.3 57.1 C 30.3 57.9 30.1 58.5 29.7 58.9 C 29.3 59.4 28.8 59.7 28.2 59.7 C 27.6 59.7 27.1 59.4 26.7 59 C 26.3 58.5 26.2 57.9 26.2 57.2 C 26.2 57.2 26.2 57.1 26.2 57.1 C 26.2 56.4 26.4 55.8 26.7 55.4 C 27.1 54.9 27.6 54.6 28.2 54.6 C 28.9 54.6 29.4 54.9 29.7 55.3 C 30.1 55.8 30.3 56.4 30.3 57.1 C 30.3 57.14 30.3 57.1 30.3 57.1 C 30.3 57.1 30.3 57.15 30.3 57.1 Z M 26.7 57.1 C 26.7 57.7 26.9 58.2 27.1 58.6 C 27.4 59 27.8 59.2 28.2 59.2 C 28.7 59.2 29 59 29.3 58.6 C 29.6 58.2 29.7 57.7 29.7 57.2 C 29.7 57.2 29.7 57.1 29.7 57.1 C 29.7 56.6 29.6 56.1 29.3 55.7 C 29 55.3 28.7 55.1 28.2 55.1 C 27.8 55.1 27.4 55.3 27.1 55.7 C 26.9 56.1 26.7 56.6 26.7 57.1 C 26.73 57.14 26.7 57.1 26.7 57.1 C 26.7 57.1 26.73 57.15 26.7 57.1 Z M 31.1 60.5 C 31.1 60.5 31.1 60.2 31.1 60.2 C 31.4 60.1 31.5 59.9 31.5 59.6 C 31.52 59.6 31.3 59.6 31.3 59.6 L 31.3 58.9 L 31.9 58.9 C 31.9 58.9 31.91 59.49 31.9 59.5 C 31.9 59.8 31.9 60 31.7 60.1 C 31.6 60.3 31.4 60.4 31.1 60.5 Z M 32.8 59.6 L 32.8 59.2 C 32.8 59.2 34.56 57.6 34.6 57.6 C 34.9 57.3 35.2 57 35.4 56.8 C 35.5 56.5 35.6 56.3 35.6 56.1 C 35.6 55.8 35.5 55.6 35.3 55.4 C 35.1 55.2 34.9 55.1 34.6 55.1 C 34.3 55.1 34.1 55.2 33.9 55.3 C 33.7 55.5 33.5 55.7 33.3 56 C 33.3 56 32.9 55.7 32.9 55.7 C 33.1 55.3 33.4 55 33.6 54.9 C 33.9 54.7 34.2 54.6 34.6 54.6 C 35.1 54.6 35.4 54.8 35.7 55 C 36 55.3 36.2 55.6 36.2 56 C 36.2 56 36.2 56 36.2 56 C 36.2 56.4 36.1 56.7 35.9 56.9 C 35.7 57.2 35.4 57.5 34.9 57.9 C 34.92 57.93 33.6 59.1 33.6 59.1 L 36.2 59.1 L 36.2 59.6 L 32.8 59.6 Z M 39.4 59.6 L 39.4 54.5 L 39.9 54.5 L 39.9 59.6 L 39.4 59.6 Z M 41.2 55.2 L 41.2 54.6 L 41.8 54.6 L 41.8 55.2 L 41.2 55.2 Z M 41.2 59.6 L 41.2 56 L 41.8 56 L 41.8 59.6 L 41.2 59.6 Z M 44.9 59.5 C 44.7 59.6 44.5 59.7 44.2 59.7 C 43.9 59.7 43.7 59.6 43.5 59.4 C 43.3 59.2 43.2 59 43.2 58.6 C 43.21 58.64 43.2 56.5 43.2 56.5 L 42.7 56.5 L 42.7 56 L 43.2 56 L 43.2 54.9 L 43.7 54.9 L 43.7 56 L 44.9 56 L 44.9 56.5 L 43.7 56.5 C 43.7 56.5 43.75 58.57 43.7 58.6 C 43.7 59 44 59.2 44.4 59.2 C 44.5 59.2 44.7 59.1 44.9 59 C 44.88 59.05 44.9 59.5 44.9 59.5 C 44.9 59.5 44.88 59.51 44.9 59.5 Z M 45.8 59.6 L 45.8 56 L 46.4 56 C 46.4 56 46.39 56.93 46.4 56.9 C 46.5 56.6 46.7 56.4 47 56.2 C 47.2 56 47.5 55.9 47.9 55.9 C 47.87 55.92 47.9 56.5 47.9 56.5 C 47.9 56.5 47.82 56.5 47.8 56.5 C 47.4 56.5 47.1 56.6 46.8 56.9 C 46.5 57.2 46.4 57.6 46.4 58.2 C 46.39 58.16 46.4 59.6 46.4 59.6 L 45.8 59.6 Z M 51.8 59 C 51.4 59.5 50.9 59.7 50.3 59.7 C 49.8 59.7 49.3 59.5 49 59.2 C 48.6 58.8 48.5 58.4 48.5 57.8 C 48.5 57.8 48.5 57.8 48.5 57.8 C 48.5 57.3 48.6 56.8 49 56.4 C 49.3 56.1 49.7 55.9 50.2 55.9 C 50.7 55.9 51.1 56.1 51.4 56.4 C 51.7 56.8 51.9 57.3 51.9 57.8 C 51.9 57.9 51.9 57.9 51.9 58 C 51.9 58 49 58 49 58 C 49 58.4 49.2 58.7 49.4 58.9 C 49.7 59.1 49.9 59.2 50.3 59.2 C 50.7 59.2 51.1 59 51.4 58.7 C 51.42 58.7 51.8 59 51.8 59 C 51.8 59 51.76 59 51.8 59 Z M 49 57.6 C 49 57.6 51.3 57.6 51.3 57.6 C 51.3 57.2 51.2 56.9 51 56.7 C 50.8 56.5 50.5 56.4 50.2 56.4 C 49.9 56.4 49.6 56.5 49.4 56.7 C 49.2 56.9 49 57.2 49 57.6 Z " stroke="none" fill="#000"/>  </g>  <g id="Polygon69608">    <path d="M 3.3 45.2 L 3.3 44.6 L 4 44.6 L 4 45.2 L 3.3 45.2 Z M 2 45.2 L 2 44.6 L 2.6 44.6 L 2.6 45.2 L 2 45.2 Z M 5.5 48.1 C 5.5 48.8 5.2 49.4 4.8 49.9 C 4.3 50.4 3.7 50.7 3 50.7 C 2.2 50.7 1.6 50.4 1.2 49.9 C 0.7 49.5 0.5 48.9 0.5 48.2 C 0.5 48.2 0.5 48.1 0.5 48.1 C 0.5 47.5 0.7 46.9 1.2 46.4 C 1.7 45.9 2.3 45.6 3 45.6 C 3.7 45.6 4.3 45.9 4.8 46.4 C 5.2 46.8 5.5 47.4 5.5 48.1 C 5.47 48.14 5.5 48.1 5.5 48.1 C 5.5 48.1 5.47 48.15 5.5 48.1 Z M 1.1 48.1 C 1.1 48.7 1.2 49.2 1.6 49.6 C 2 50 2.4 50.2 3 50.2 C 3.5 50.2 4 50 4.4 49.6 C 4.7 49.2 4.9 48.7 4.9 48.2 C 4.9 48.2 4.9 48.1 4.9 48.1 C 4.9 47.6 4.7 47.1 4.4 46.7 C 4 46.3 3.5 46.1 3 46.1 C 2.4 46.1 2 46.3 1.6 46.7 C 1.2 47.1 1.1 47.6 1.1 48.1 C 1.05 48.14 1.1 48.1 1.1 48.1 C 1.1 48.1 1.05 48.15 1.1 48.1 Z M 6.6 50.6 L 6.6 45.5 L 7.1 45.5 L 7.1 50.6 L 6.6 50.6 Z M 9.7 51.7 L 9.1 51.4 C 9.1 51.4 9.69 50.65 9.7 50.6 C 9.2 50.6 8.9 50.4 8.6 50 C 8.3 49.7 8.2 49.3 8.2 48.8 C 8.2 48.8 8.2 48.8 8.2 48.8 C 8.2 48.3 8.3 47.8 8.7 47.5 C 9.1 47.1 9.5 46.9 10 46.9 C 10.6 46.9 11.1 47.1 11.5 47.5 C 11.5 47.5 11.1 47.9 11.1 47.9 C 10.8 47.6 10.4 47.4 10 47.4 C 9.6 47.4 9.3 47.5 9.1 47.8 C 8.8 48.1 8.7 48.4 8.7 48.8 C 8.7 48.8 8.7 48.8 8.7 48.8 C 8.7 49.2 8.8 49.5 9.1 49.8 C 9.4 50.1 9.7 50.2 10.1 50.2 C 10.5 50.2 10.8 50 11.2 49.7 C 11.2 49.7 11.5 50 11.5 50 C 11.1 50.4 10.7 50.7 10.1 50.7 C 10.13 50.68 9.7 51.7 9.7 51.7 Z M 14.2 46.4 L 14.2 45.8 L 14.8 45.8 L 14.8 46.4 L 14.2 46.4 Z M 13 46.4 L 13 45.8 L 13.6 45.8 L 13.6 46.4 L 13 46.4 Z M 15 50 C 14.7 50.4 14.3 50.7 13.7 50.7 C 13.3 50.7 13 50.5 12.7 50.3 C 12.5 50 12.3 49.7 12.3 49.2 C 12.33 49.23 12.3 47 12.3 47 L 12.9 47 C 12.9 47 12.87 49.09 12.9 49.1 C 12.9 49.4 13 49.7 13.1 49.9 C 13.3 50.1 13.6 50.2 13.9 50.2 C 14.2 50.2 14.4 50.1 14.7 49.9 C 14.9 49.7 15 49.4 15 49.1 C 14.96 49.05 15 47 15 47 L 15.5 47 L 15.5 50.6 L 15 50.6 L 15 50 C 15 50 14.96 49.97 15 50 Z M 16.8 50.6 L 16.8 45.5 L 17.3 45.5 L 17.3 50.6 L 16.8 50.6 Z M 21.6 50 C 21.2 50.5 20.7 50.7 20.1 50.7 C 19.6 50.7 19.2 50.5 18.8 50.2 C 18.5 49.8 18.3 49.4 18.3 48.8 C 18.3 48.8 18.3 48.8 18.3 48.8 C 18.3 48.3 18.5 47.8 18.8 47.4 C 19.1 47.1 19.6 46.9 20.1 46.9 C 20.6 46.9 21 47.1 21.3 47.4 C 21.6 47.8 21.7 48.3 21.7 48.8 C 21.7 48.9 21.7 48.9 21.7 49 C 21.7 49 18.9 49 18.9 49 C 18.9 49.4 19 49.7 19.3 49.9 C 19.5 50.1 19.8 50.2 20.1 50.2 C 20.6 50.2 20.9 50 21.3 49.7 C 21.28 49.7 21.6 50 21.6 50 C 21.6 50 21.62 50 21.6 50 Z M 18.9 48.6 C 18.9 48.6 21.2 48.6 21.2 48.6 C 21.2 48.2 21.1 47.9 20.9 47.7 C 20.7 47.5 20.4 47.4 20 47.4 C 19.7 47.4 19.5 47.5 19.2 47.7 C 19 47.9 18.9 48.2 18.9 48.6 Z M 22.7 50.6 L 22.7 47 L 23.2 47 C 23.2 47 23.23 47.93 23.2 47.9 C 23.4 47.6 23.6 47.4 23.8 47.2 C 24.1 47 24.4 46.9 24.7 46.9 C 24.7 46.92 24.7 47.5 24.7 47.5 C 24.7 47.5 24.66 47.5 24.7 47.5 C 24.2 47.5 23.9 47.6 23.6 47.9 C 23.4 48.2 23.2 48.6 23.2 49.2 C 23.23 49.16 23.2 50.6 23.2 50.6 L 22.7 50.6 Z M 25.5 47.7 L 25.5 47 L 26.1 47 L 26.1 47.7 L 25.5 47.7 Z M 25.5 50.6 L 25.5 49.9 L 26.1 49.9 L 26.1 50.6 L 25.5 50.6 Z M 29.5 50.6 L 29.5 45.7 C 29.5 45.7 31.19 45.7 31.2 45.7 C 32 45.7 32.6 45.9 33.1 46.4 C 33.6 46.9 33.8 47.4 33.8 48.1 C 33.8 48.1 33.8 48.1 33.8 48.1 C 33.8 48.8 33.6 49.4 33.1 49.9 C 32.6 50.4 32 50.6 31.2 50.6 C 31.19 50.6 29.5 50.6 29.5 50.6 Z M 31.2 46.2 C 31.19 46.21 30 46.2 30 46.2 L 30 50.1 C 30 50.1 31.19 50.09 31.2 50.1 C 31.8 50.1 32.3 49.9 32.7 49.5 C 33 49.2 33.2 48.7 33.2 48.2 C 33.2 48.2 33.2 48.1 33.2 48.1 C 33.2 47.6 33 47.1 32.7 46.8 C 32.3 46.4 31.8 46.2 31.2 46.2 Z M 37.2 49.7 C 37.6 50 38 50.2 38.5 50.2 C 38.9 50.2 39.3 50 39.5 49.6 C 39.8 49.2 39.9 48.7 39.9 48.1 C 39.9 48.1 39.9 48 39.9 48 C 39.6 48.6 39.1 48.8 38.5 48.8 C 38 48.8 37.6 48.7 37.3 48.4 C 37 48.1 36.8 47.7 36.8 47.3 C 36.8 47.3 36.8 47.3 36.8 47.3 C 36.8 46.8 37 46.4 37.3 46.1 C 37.6 45.8 38.1 45.6 38.6 45.6 C 39.1 45.6 39.5 45.8 39.9 46.1 C 40.3 46.5 40.5 47.2 40.5 48 C 40.5 48 40.5 48 40.5 48 C 40.5 48.8 40.3 49.4 39.9 49.9 C 39.5 50.4 39 50.7 38.4 50.7 C 37.9 50.7 37.4 50.5 36.9 50.1 C 36.92 50.08 37.2 49.7 37.2 49.7 C 37.2 49.7 37.25 49.65 37.2 49.7 Z M 38.6 48.3 C 38.9 48.3 39.2 48.2 39.5 48 C 39.7 47.8 39.8 47.5 39.8 47.2 C 39.8 47.2 39.8 47.2 39.8 47.2 C 39.8 46.9 39.7 46.6 39.5 46.4 C 39.2 46.2 38.9 46.1 38.6 46.1 C 38.2 46.1 37.9 46.2 37.7 46.4 C 37.5 46.7 37.4 46.9 37.4 47.3 C 37.4 47.3 37.4 47.3 37.4 47.3 C 37.4 47.6 37.5 47.8 37.7 48 C 37.9 48.2 38.2 48.3 38.6 48.3 Z M 46.7 50 C 46.3 50.5 45.8 50.7 45.2 50.7 C 44.7 50.7 44.3 50.5 43.9 50.1 C 43.6 49.8 43.4 49.3 43.4 48.8 C 43.4 48.8 43.4 48.8 43.4 48.8 C 43.4 48.3 43.6 47.8 43.9 47.5 C 44.3 47.1 44.7 46.9 45.2 46.9 C 45.8 46.9 46.3 47.1 46.7 47.5 C 46.7 47.5 46.3 47.9 46.3 47.9 C 46 47.6 45.6 47.4 45.2 47.4 C 44.9 47.4 44.5 47.5 44.3 47.8 C 44.1 48.1 43.9 48.4 43.9 48.8 C 43.9 48.8 43.9 48.8 43.9 48.8 C 43.9 49.2 44.1 49.5 44.3 49.8 C 44.6 50.1 44.9 50.2 45.3 50.2 C 45.7 50.2 46 50 46.4 49.7 C 46.37 49.66 46.7 50 46.7 50 C 46.7 50 46.71 49.98 46.7 50 Z M 47.6 50.6 L 47.6 47 L 48.1 47 C 48.1 47 48.14 47.59 48.1 47.6 C 48.3 47.4 48.4 47.2 48.6 47.1 C 48.8 47 49 46.9 49.3 46.9 C 49.9 46.9 50.2 47.1 50.5 47.6 C 50.8 47.1 51.2 46.9 51.7 46.9 C 52.2 46.9 52.5 47 52.7 47.3 C 53 47.6 53.1 47.9 53.1 48.4 C 53.09 48.36 53.1 50.6 53.1 50.6 L 52.5 50.6 C 52.5 50.6 52.55 48.49 52.5 48.5 C 52.5 48.1 52.5 47.9 52.3 47.7 C 52.1 47.5 51.9 47.4 51.6 47.4 C 51.3 47.4 51.1 47.5 50.9 47.7 C 50.7 47.9 50.6 48.2 50.6 48.5 C 50.61 48.51 50.6 50.6 50.6 50.6 L 50.1 50.6 C 50.1 50.6 50.08 48.47 50.1 48.5 C 50.1 48.1 50 47.9 49.8 47.7 C 49.7 47.5 49.4 47.4 49.1 47.4 C 48.9 47.4 48.6 47.5 48.4 47.7 C 48.2 47.9 48.1 48.2 48.1 48.5 C 48.14 48.53 48.1 50.6 48.1 50.6 L 47.6 50.6 Z M 54 51.5 C 54 51.5 54 51.2 54 51.2 C 54.3 51.1 54.5 50.9 54.4 50.6 C 54.42 50.6 54.2 50.6 54.2 50.6 L 54.2 49.9 L 54.8 49.9 C 54.8 49.9 54.82 50.49 54.8 50.5 C 54.8 50.8 54.8 51 54.6 51.1 C 54.5 51.3 54.3 51.4 54 51.5 Z M 58.1 50.6 L 58.1 45.7 L 58.7 45.7 L 58.7 47.9 L 61.5 47.9 L 61.5 45.7 L 62.1 45.7 L 62.1 50.6 L 61.5 50.6 L 61.5 48.4 L 58.7 48.4 L 58.7 50.6 L 58.1 50.6 Z M 66.1 50.6 L 66.1 46.2 L 65.2 46.5 L 65.1 46.1 L 66.3 45.7 L 66.7 45.7 L 66.7 50.6 L 66.1 50.6 Z M 70.4 50.6 L 70.4 49.4 L 67.8 49.4 L 67.7 49 L 70.4 45.7 L 70.9 45.7 L 70.9 49 L 71.7 49 L 71.7 49.4 L 70.9 49.4 L 70.9 50.6 L 70.4 50.6 Z M 68.3 49 L 70.4 49 L 70.4 46.4 L 68.3 49 Z M 72.5 51.5 C 72.5 51.5 72.4 51.2 72.4 51.2 C 72.7 51.1 72.9 50.9 72.9 50.6 C 72.86 50.6 72.6 50.6 72.6 50.6 L 72.6 49.9 L 73.3 49.9 C 73.3 49.9 73.25 50.49 73.3 50.5 C 73.3 50.8 73.2 51 73.1 51.1 C 72.9 51.3 72.7 51.4 72.5 51.5 Z M 76.8 50.6 L 76.8 49.4 L 74.2 49.4 L 74.1 49 L 76.9 45.7 L 77.3 45.7 L 77.3 49 L 78.1 49 L 78.1 49.4 L 77.3 49.4 L 77.3 50.6 L 76.8 50.6 Z M 74.8 49 L 76.8 49 L 76.8 46.4 L 74.8 49 Z M 84.3 50 C 83.9 50.5 83.4 50.7 82.8 50.7 C 82.3 50.7 81.8 50.5 81.5 50.1 C 81.1 49.8 81 49.3 81 48.8 C 81 48.8 81 48.8 81 48.8 C 81 48.3 81.1 47.8 81.5 47.5 C 81.8 47.1 82.3 46.9 82.8 46.9 C 83.4 46.9 83.9 47.1 84.3 47.5 C 84.3 47.5 83.9 47.9 83.9 47.9 C 83.6 47.6 83.2 47.4 82.8 47.4 C 82.4 47.4 82.1 47.5 81.9 47.8 C 81.6 48.1 81.5 48.4 81.5 48.8 C 81.5 48.8 81.5 48.8 81.5 48.8 C 81.5 49.2 81.6 49.5 81.9 49.8 C 82.1 50.1 82.5 50.2 82.8 50.2 C 83.2 50.2 83.6 50 83.9 49.7 C 83.95 49.66 84.3 50 84.3 50 C 84.3 50 84.29 49.98 84.3 50 Z M 85.2 50.6 L 85.2 47 L 85.7 47 C 85.7 47 85.72 47.59 85.7 47.6 C 85.9 47.4 86 47.2 86.2 47.1 C 86.4 47 86.6 46.9 86.9 46.9 C 87.4 46.9 87.8 47.1 88.1 47.6 C 88.4 47.1 88.8 46.9 89.3 46.9 C 89.7 46.9 90.1 47 90.3 47.3 C 90.6 47.6 90.7 47.9 90.7 48.4 C 90.67 48.36 90.7 50.6 90.7 50.6 L 90.1 50.6 C 90.1 50.6 90.13 48.49 90.1 48.5 C 90.1 48.1 90 47.9 89.9 47.7 C 89.7 47.5 89.5 47.4 89.2 47.4 C 88.9 47.4 88.7 47.5 88.5 47.7 C 88.3 47.9 88.2 48.2 88.2 48.5 C 88.19 48.51 88.2 50.6 88.2 50.6 L 87.7 50.6 C 87.7 50.6 87.66 48.47 87.7 48.5 C 87.7 48.1 87.6 47.9 87.4 47.7 C 87.2 47.5 87 47.4 86.7 47.4 C 86.4 47.4 86.2 47.5 86 47.7 C 85.8 47.9 85.7 48.2 85.7 48.5 C 85.72 48.53 85.7 50.6 85.7 50.6 L 85.2 50.6 Z " stroke="none" fill="#000"/>  </g>  <g id="Polygon69607">    <path d="M 0.7 41.6 L 0.7 36.7 L 1.3 36.7 L 3 39.4 L 4.8 36.7 L 5.4 36.7 L 5.4 41.6 L 4.8 41.6 L 4.8 37.6 L 3 40.3 L 3 40.3 L 1.2 37.6 L 1.2 41.6 L 0.7 41.6 Z M 9.1 41.1 C 8.7 41.5 8.3 41.7 7.8 41.7 C 7.4 41.7 7.1 41.6 6.8 41.4 C 6.5 41.2 6.4 40.9 6.4 40.5 C 6.4 40.5 6.4 40.5 6.4 40.5 C 6.4 40.2 6.5 39.9 6.8 39.7 C 7.1 39.5 7.5 39.4 8 39.4 C 8.3 39.4 8.7 39.4 9.1 39.5 C 9.1 39.5 9.1 39.4 9.1 39.4 C 9.1 39.1 9 38.8 8.8 38.7 C 8.6 38.5 8.3 38.4 8 38.4 C 7.6 38.4 7.3 38.5 6.9 38.7 C 6.9 38.7 6.7 38.2 6.7 38.2 C 7.2 38 7.6 37.9 8 37.9 C 8.6 37.9 8.9 38.1 9.2 38.3 C 9.5 38.6 9.6 38.9 9.6 39.4 C 9.58 39.39 9.6 41.6 9.6 41.6 L 9.1 41.6 L 9.1 41.1 C 9.1 41.1 9.06 41.05 9.1 41.1 Z M 7.9 41.2 C 8.2 41.2 8.5 41.2 8.7 41 C 9 40.8 9.1 40.6 9.1 40.3 C 9.1 40.3 9.1 39.9 9.1 39.9 C 8.7 39.8 8.4 39.8 8 39.8 C 7.7 39.8 7.4 39.8 7.2 40 C 7 40.1 7 40.3 7 40.5 C 7 40.5 7 40.5 7 40.5 C 7 40.7 7 40.9 7.2 41.1 C 7.4 41.2 7.6 41.2 7.9 41.2 Z M 10.8 41.6 L 10.8 36.5 L 11.3 36.5 L 11.3 41.6 L 10.8 41.6 Z M 12.4 41.6 L 12.4 41.3 L 14.8 38.4 L 12.4 38.4 L 12.4 38 L 15.5 38 L 15.5 38.3 L 13.1 41.1 L 15.5 41.1 L 15.5 41.6 L 12.4 41.6 Z M 19.5 41 C 19.1 41.5 18.6 41.7 18 41.7 C 17.5 41.7 17.1 41.5 16.8 41.2 C 16.4 40.8 16.2 40.4 16.2 39.8 C 16.2 39.8 16.2 39.8 16.2 39.8 C 16.2 39.3 16.4 38.8 16.7 38.4 C 17.1 38.1 17.5 37.9 18 37.9 C 18.5 37.9 18.9 38.1 19.2 38.4 C 19.5 38.8 19.7 39.3 19.7 39.8 C 19.7 39.9 19.7 39.9 19.7 40 C 19.7 40 16.8 40 16.8 40 C 16.8 40.4 17 40.7 17.2 40.9 C 17.4 41.1 17.7 41.2 18.1 41.2 C 18.5 41.2 18.9 41 19.2 40.7 C 19.2 40.7 19.5 41 19.5 41 C 19.5 41 19.54 41 19.5 41 Z M 16.8 39.6 C 16.8 39.6 19.1 39.6 19.1 39.6 C 19.1 39.2 19 38.9 18.8 38.7 C 18.6 38.5 18.3 38.4 18 38.4 C 17.6 38.4 17.4 38.5 17.2 38.7 C 17 38.9 16.8 39.2 16.8 39.6 Z M 20.6 41.6 L 20.6 38 L 21.1 38 C 21.1 38 21.15 38.59 21.1 38.6 C 21.3 38.4 21.5 38.2 21.6 38.1 C 21.8 38 22 37.9 22.3 37.9 C 22.9 37.9 23.2 38.1 23.5 38.6 C 23.8 38.1 24.2 37.9 24.8 37.9 C 25.2 37.9 25.5 38 25.7 38.3 C 26 38.6 26.1 38.9 26.1 39.4 C 26.1 39.36 26.1 41.6 26.1 41.6 L 25.6 41.6 C 25.6 41.6 25.56 39.49 25.6 39.5 C 25.6 39.1 25.5 38.9 25.3 38.7 C 25.1 38.5 24.9 38.4 24.6 38.4 C 24.3 38.4 24.1 38.5 23.9 38.7 C 23.7 38.9 23.6 39.2 23.6 39.5 C 23.62 39.51 23.6 41.6 23.6 41.6 L 23.1 41.6 C 23.1 41.6 23.09 39.47 23.1 39.5 C 23.1 39.1 23 38.9 22.8 38.7 C 22.7 38.5 22.4 38.4 22.2 38.4 C 21.9 38.4 21.6 38.5 21.4 38.7 C 21.2 38.9 21.1 39.2 21.1 39.5 C 21.15 39.53 21.1 41.6 21.1 41.6 L 20.6 41.6 Z M 30.3 41 C 29.9 41.5 29.4 41.7 28.8 41.7 C 28.3 41.7 27.9 41.5 27.5 41.2 C 27.2 40.8 27 40.4 27 39.8 C 27 39.8 27 39.8 27 39.8 C 27 39.3 27.2 38.8 27.5 38.4 C 27.8 38.1 28.3 37.9 28.8 37.9 C 29.3 37.9 29.7 38.1 30 38.4 C 30.3 38.8 30.4 39.3 30.4 39.8 C 30.4 39.9 30.4 39.9 30.4 40 C 30.4 40 27.6 40 27.6 40 C 27.6 40.4 27.7 40.7 28 40.9 C 28.2 41.1 28.5 41.2 28.8 41.2 C 29.3 41.2 29.6 41 30 40.7 C 29.98 40.7 30.3 41 30.3 41 C 30.3 41 30.32 41 30.3 41 Z M 27.6 39.6 C 27.6 39.6 29.9 39.6 29.9 39.6 C 29.9 39.2 29.8 38.9 29.6 38.7 C 29.4 38.5 29.1 38.4 28.7 38.4 C 28.4 38.4 28.2 38.5 27.9 38.7 C 27.7 38.9 27.6 39.2 27.6 39.6 Z M 31.4 38.7 L 31.4 38 L 32 38 L 32 38.7 L 31.4 38.7 Z M 31.4 41.6 L 31.4 40.9 L 32 40.9 L 32 41.6 L 31.4 41.6 Z M 34.9 41.6 L 37.2 36.7 L 37.7 36.7 L 39.9 41.6 L 39.3 41.6 L 38.8 40.3 L 36.1 40.3 L 35.5 41.6 L 34.9 41.6 Z M 36.3 39.8 L 38.5 39.8 L 37.4 37.3 L 36.3 39.8 Z M 40.8 41.6 L 40.8 36.5 L 41.4 36.5 L 41.4 41.6 L 40.8 41.6 Z M 44.5 37.4 L 44.5 36.8 L 45.1 36.8 L 45.1 37.4 L 44.5 37.4 Z M 43.2 37.4 L 43.2 36.8 L 43.9 36.8 L 43.9 37.4 L 43.2 37.4 Z M 45.2 41 C 44.9 41.4 44.5 41.7 44 41.7 C 43.5 41.7 43.2 41.5 43 41.3 C 42.7 41 42.6 40.7 42.6 40.2 C 42.58 40.23 42.6 38 42.6 38 L 43.1 38 C 43.1 38 43.12 40.09 43.1 40.1 C 43.1 40.4 43.2 40.7 43.4 40.9 C 43.6 41.1 43.8 41.2 44.1 41.2 C 44.4 41.2 44.7 41.1 44.9 40.9 C 45.1 40.7 45.2 40.4 45.2 40.1 C 45.21 40.05 45.2 38 45.2 38 L 45.7 38 L 45.7 41.6 L 45.2 41.6 L 45.2 41 C 45.2 41 45.21 40.97 45.2 41 Z M 46.9 41.6 L 46.9 38 L 47.5 38 C 47.5 38 47.49 38.59 47.5 38.6 C 47.6 38.4 47.8 38.2 48 38.1 C 48.1 38 48.4 37.9 48.7 37.9 C 49.2 37.9 49.6 38.1 49.8 38.6 C 50.1 38.1 50.6 37.9 51.1 37.9 C 51.5 37.9 51.8 38 52.1 38.3 C 52.3 38.6 52.4 38.9 52.4 39.4 C 52.44 39.36 52.4 41.6 52.4 41.6 L 51.9 41.6 C 51.9 41.6 51.9 39.49 51.9 39.5 C 51.9 39.1 51.8 38.9 51.6 38.7 C 51.5 38.5 51.3 38.4 51 38.4 C 50.7 38.4 50.4 38.5 50.2 38.7 C 50.1 38.9 50 39.2 50 39.5 C 49.96 39.51 50 41.6 50 41.6 L 49.4 41.6 C 49.4 41.6 49.43 39.47 49.4 39.5 C 49.4 39.1 49.3 38.9 49.2 38.7 C 49 38.5 48.8 38.4 48.5 38.4 C 48.2 38.4 48 38.5 47.8 38.7 C 47.6 38.9 47.5 39.2 47.5 39.5 C 47.49 39.53 47.5 41.6 47.5 41.6 L 46.9 41.6 Z M 53.6 37.2 L 53.6 36.6 L 54.2 36.6 L 54.2 37.2 L 53.6 37.2 Z M 53.6 41.6 L 53.6 38 L 54.2 38 L 54.2 41.6 L 53.6 41.6 Z M 55.4 41.6 L 55.4 38 L 56 38 C 56 38 55.96 38.61 56 38.6 C 56.3 38.1 56.7 37.9 57.2 37.9 C 57.6 37.9 58 38 58.2 38.3 C 58.5 38.6 58.6 38.9 58.6 39.4 C 58.59 39.35 58.6 41.6 58.6 41.6 L 58.1 41.6 C 58.1 41.6 58.05 39.49 58.1 39.5 C 58.1 39.1 58 38.9 57.8 38.7 C 57.6 38.5 57.4 38.4 57 38.4 C 56.7 38.4 56.5 38.5 56.3 38.7 C 56.1 38.9 56 39.2 56 39.5 C 55.96 39.53 56 41.6 56 41.6 L 55.4 41.6 Z M 61.3 41 L 62.4 38 L 63 38 C 63 38 61.5 41.72 61.5 41.7 C 61.4 42.1 61.2 42.4 61 42.5 C 60.8 42.7 60.6 42.7 60.3 42.7 C 60 42.7 59.8 42.7 59.5 42.6 C 59.5 42.6 59.7 42.1 59.7 42.1 C 59.9 42.2 60.1 42.3 60.3 42.3 C 60.4 42.3 60.6 42.2 60.7 42.1 C 60.8 42 60.9 41.8 61 41.6 C 61.02 41.59 59.4 38 59.4 38 L 60 38 L 61.3 41 Z M 66.4 41 C 66.1 41.4 65.7 41.7 65.2 41.7 C 64.8 41.7 64.4 41.5 64.2 41.3 C 63.9 41 63.8 40.7 63.8 40.2 C 63.82 40.23 63.8 38 63.8 38 L 64.4 38 C 64.4 38 64.36 40.09 64.4 40.1 C 64.4 40.4 64.4 40.7 64.6 40.9 C 64.8 41.1 65 41.2 65.4 41.2 C 65.7 41.2 65.9 41.1 66.1 40.9 C 66.3 40.7 66.4 40.4 66.4 40.1 C 66.44 40.05 66.4 38 66.4 38 L 67 38 L 67 41.6 L 66.4 41.6 L 66.4 41 C 66.4 41 66.44 40.97 66.4 41 Z M 68.2 41.6 L 68.2 38 L 68.7 38 C 68.7 38 68.73 38.59 68.7 38.6 C 68.9 38.4 69 38.2 69.2 38.1 C 69.4 38 69.6 37.9 69.9 37.9 C 70.4 37.9 70.8 38.1 71.1 38.6 C 71.4 38.1 71.8 37.9 72.3 37.9 C 72.8 37.9 73.1 38 73.3 38.3 C 73.6 38.6 73.7 38.9 73.7 39.4 C 73.67 39.36 73.7 41.6 73.7 41.6 L 73.1 41.6 C 73.1 41.6 73.14 39.49 73.1 39.5 C 73.1 39.1 73.1 38.9 72.9 38.7 C 72.7 38.5 72.5 38.4 72.2 38.4 C 71.9 38.4 71.7 38.5 71.5 38.7 C 71.3 38.9 71.2 39.2 71.2 39.5 C 71.2 39.51 71.2 41.6 71.2 41.6 L 70.7 41.6 C 70.7 41.6 70.66 39.47 70.7 39.5 C 70.7 39.1 70.6 38.9 70.4 38.7 C 70.3 38.5 70 38.4 69.7 38.4 C 69.4 38.4 69.2 38.5 69 38.7 C 68.8 38.9 68.7 39.2 68.7 39.5 C 68.73 39.53 68.7 41.6 68.7 41.6 L 68.2 41.6 Z M 76.2 42.5 L 79.4 36 L 79.9 36 L 76.7 42.5 L 76.2 42.5 Z M 82.2 41.6 L 84.5 36.7 L 85 36.7 L 87.2 41.6 L 86.6 41.6 L 86.1 40.3 L 83.4 40.3 L 82.8 41.6 L 82.2 41.6 Z M 83.6 39.8 L 85.8 39.8 L 84.7 37.3 L 83.6 39.8 Z M 88.2 41.6 L 88.2 36.7 C 88.2 36.7 90.28 36.7 90.3 36.7 C 90.8 36.7 91.3 36.8 91.6 37.1 C 91.8 37.3 91.9 37.6 91.9 37.9 C 91.9 37.9 91.9 37.9 91.9 37.9 C 91.9 38.5 91.6 38.8 91.1 39.1 C 91.8 39.3 92.2 39.7 92.2 40.2 C 92.2 40.2 92.2 40.3 92.2 40.3 C 92.2 40.7 92 41 91.7 41.2 C 91.3 41.5 90.9 41.6 90.4 41.6 C 90.38 41.6 88.2 41.6 88.2 41.6 Z M 91.3 38 C 91.3 38 91.3 38 91.3 38 C 91.3 37.7 91.2 37.6 91 37.4 C 90.8 37.3 90.6 37.2 90.2 37.2 C 90.24 37.2 88.7 37.2 88.7 37.2 L 88.7 38.9 C 88.7 38.9 90.19 38.88 90.2 38.9 C 90.5 38.9 90.8 38.8 91 38.7 C 91.2 38.5 91.3 38.3 91.3 38 Z M 91.6 40.2 C 91.6 40.2 91.6 40.2 91.6 40.2 C 91.6 39.9 91.5 39.7 91.3 39.6 C 91 39.4 90.7 39.4 90.3 39.4 C 90.29 39.37 88.7 39.4 88.7 39.4 L 88.7 41.1 C 88.7 41.1 90.39 41.1 90.4 41.1 C 90.8 41.1 91.1 41 91.3 40.9 C 91.5 40.7 91.6 40.5 91.6 40.2 Z M 94.9 41.7 C 94.2 41.7 93.5 41.4 92.9 40.9 C 92.9 40.9 93.3 40.5 93.3 40.5 C 93.5 40.7 93.8 40.9 94.1 41 C 94.3 41.1 94.6 41.2 95 41.2 C 95.3 41.2 95.5 41.1 95.7 40.9 C 95.9 40.8 96 40.6 96 40.3 C 96 40.3 96 40.3 96 40.3 C 96 40.1 96 39.9 95.8 39.8 C 95.6 39.6 95.3 39.5 94.8 39.4 C 94.2 39.3 93.8 39.1 93.5 38.9 C 93.3 38.7 93.1 38.4 93.1 38 C 93.1 38 93.1 38 93.1 38 C 93.1 37.6 93.3 37.3 93.6 37 C 93.9 36.8 94.3 36.6 94.7 36.6 C 95.1 36.6 95.4 36.7 95.7 36.8 C 95.9 36.9 96.2 37 96.5 37.2 C 96.5 37.2 96.1 37.7 96.1 37.7 C 95.7 37.3 95.2 37.1 94.7 37.1 C 94.4 37.1 94.2 37.2 94 37.4 C 93.8 37.5 93.7 37.7 93.7 37.9 C 93.7 37.9 93.7 37.9 93.7 37.9 C 93.7 38.2 93.8 38.4 94 38.5 C 94.1 38.7 94.5 38.8 95 38.9 C 95.6 39 96 39.2 96.2 39.4 C 96.5 39.6 96.6 39.9 96.6 40.3 C 96.6 40.3 96.6 40.3 96.6 40.3 C 96.6 40.7 96.4 41 96.1 41.3 C 95.8 41.5 95.4 41.7 94.9 41.7 Z " stroke="none" fill="#000"/>  </g>  <g id="Polygon69606">    <path d="M 0.7 23.6 L 0.7 18.7 C 0.7 18.7 2.8 18.7 2.8 18.7 C 3.4 18.7 3.9 18.9 4.2 19.2 C 4.4 19.4 4.6 19.8 4.6 20.2 C 4.6 20.2 4.6 20.2 4.6 20.2 C 4.6 20.6 4.4 20.9 4.2 21.1 C 4 21.4 3.6 21.5 3.2 21.6 C 3.24 21.6 4.7 23.6 4.7 23.6 L 4.1 23.6 L 2.6 21.7 L 1.2 21.7 L 1.2 23.6 L 0.7 23.6 Z M 1.2 21.2 C 1.2 21.2 2.75 21.2 2.8 21.2 C 3.1 21.2 3.4 21.1 3.7 20.9 C 3.9 20.7 4 20.5 4 20.2 C 4 20.2 4 20.2 4 20.2 C 4 19.9 3.9 19.6 3.7 19.5 C 3.5 19.3 3.2 19.2 2.8 19.2 C 2.76 19.21 1.2 19.2 1.2 19.2 L 1.2 21.2 Z M 8.7 23 C 8.3 23.5 7.8 23.7 7.2 23.7 C 6.7 23.7 6.3 23.5 6 23.2 C 5.6 22.8 5.4 22.4 5.4 21.8 C 5.4 21.8 5.4 21.8 5.4 21.8 C 5.4 21.3 5.6 20.8 5.9 20.4 C 6.3 20.1 6.7 19.9 7.2 19.9 C 7.7 19.9 8.1 20.1 8.4 20.4 C 8.7 20.8 8.9 21.3 8.9 21.8 C 8.9 21.9 8.9 21.9 8.9 22 C 8.9 22 6 22 6 22 C 6 22.4 6.2 22.7 6.4 22.9 C 6.6 23.1 6.9 23.2 7.3 23.2 C 7.7 23.2 8.1 23 8.4 22.7 C 8.4 22.7 8.7 23 8.7 23 C 8.7 23 8.74 23 8.7 23 Z M 6 21.6 C 6 21.6 8.3 21.6 8.3 21.6 C 8.3 21.2 8.2 20.9 8 20.7 C 7.8 20.5 7.5 20.4 7.2 20.4 C 6.8 20.4 6.6 20.5 6.4 20.7 C 6.1 20.9 6 21.2 6 21.6 Z M 9.8 23.6 L 9.8 20 L 10.3 20 C 10.3 20 10.35 20.61 10.3 20.6 C 10.6 20.1 11.1 19.9 11.6 19.9 C 12 19.9 12.4 20 12.6 20.3 C 12.8 20.6 13 20.9 13 21.4 C 12.97 21.35 13 23.6 13 23.6 L 12.4 23.6 C 12.4 23.6 12.43 21.49 12.4 21.5 C 12.4 21.1 12.3 20.9 12.2 20.7 C 12 20.5 11.7 20.4 11.4 20.4 C 11.1 20.4 10.9 20.5 10.7 20.7 C 10.4 20.9 10.3 21.2 10.3 21.5 C 10.35 21.53 10.3 23.6 10.3 23.6 L 9.8 23.6 Z M 14.1 23.6 L 14.1 18.5 L 14.7 18.5 L 14.7 22 L 16.6 20 L 17.3 20 L 15.8 21.5 L 17.3 23.6 L 16.7 23.6 L 15.4 21.9 L 14.7 22.7 L 14.7 23.6 L 14.1 23.6 Z M 18.1 20.7 L 18.1 20 L 18.7 20 L 18.7 20.7 L 18.1 20.7 Z M 18.1 23.6 L 18.1 22.9 L 18.7 22.9 L 18.7 23.6 L 18.1 23.6 Z M 22.1 23.6 L 22.1 18.7 C 22.1 18.7 24.16 18.7 24.2 18.7 C 24.7 18.7 25.1 18.8 25.4 19.1 C 25.6 19.3 25.8 19.6 25.8 19.9 C 25.8 19.9 25.8 19.9 25.8 19.9 C 25.8 20.5 25.5 20.8 25 21.1 C 25.7 21.3 26 21.7 26 22.2 C 26 22.2 26 22.3 26 22.3 C 26 22.7 25.9 23 25.5 23.2 C 25.2 23.5 24.8 23.6 24.2 23.6 C 24.25 23.6 22.1 23.6 22.1 23.6 Z M 25.2 20 C 25.2 20 25.2 20 25.2 20 C 25.2 19.7 25.1 19.6 24.9 19.4 C 24.7 19.3 24.5 19.2 24.1 19.2 C 24.11 19.2 22.6 19.2 22.6 19.2 L 22.6 20.9 C 22.6 20.9 24.07 20.88 24.1 20.9 C 24.4 20.9 24.7 20.8 24.9 20.7 C 25.1 20.5 25.2 20.3 25.2 20 Z M 25.5 22.2 C 25.5 22.2 25.5 22.2 25.5 22.2 C 25.5 21.9 25.4 21.7 25.1 21.6 C 24.9 21.4 24.6 21.4 24.2 21.4 C 24.16 21.37 22.6 21.4 22.6 21.4 L 22.6 23.1 C 22.6 23.1 24.26 23.1 24.3 23.1 C 24.6 23.1 24.9 23 25.1 22.9 C 25.4 22.7 25.5 22.5 25.5 22.2 Z M 27.1 23.6 L 27.1 18.5 L 27.6 18.5 L 27.6 23.6 L 27.1 23.6 Z M 31.3 23.1 C 30.9 23.5 30.5 23.7 30 23.7 C 29.6 23.7 29.3 23.6 29 23.4 C 28.7 23.2 28.6 22.9 28.6 22.5 C 28.6 22.5 28.6 22.5 28.6 22.5 C 28.6 22.2 28.7 21.9 29 21.7 C 29.3 21.5 29.7 21.4 30.1 21.4 C 30.5 21.4 30.9 21.4 31.3 21.5 C 31.3 21.5 31.3 21.4 31.3 21.4 C 31.3 21.1 31.2 20.8 31 20.7 C 30.8 20.5 30.5 20.4 30.2 20.4 C 29.8 20.4 29.5 20.5 29.1 20.7 C 29.1 20.7 28.9 20.2 28.9 20.2 C 29.3 20 29.8 19.9 30.2 19.9 C 30.8 19.9 31.1 20.1 31.4 20.3 C 31.7 20.6 31.8 20.9 31.8 21.4 C 31.78 21.39 31.8 23.6 31.8 23.6 L 31.3 23.6 L 31.3 23.1 C 31.3 23.1 31.26 23.05 31.3 23.1 Z M 30.1 23.2 C 30.4 23.2 30.7 23.2 30.9 23 C 31.2 22.8 31.3 22.6 31.3 22.3 C 31.3 22.3 31.3 21.9 31.3 21.9 C 30.9 21.8 30.5 21.8 30.2 21.8 C 29.9 21.8 29.6 21.8 29.4 22 C 29.2 22.1 29.1 22.3 29.1 22.5 C 29.1 22.5 29.1 22.5 29.1 22.5 C 29.1 22.7 29.2 22.9 29.4 23.1 C 29.6 23.2 29.8 23.2 30.1 23.2 Z M 36 23 C 35.6 23.5 35.1 23.7 34.6 23.7 C 34 23.7 33.6 23.5 33.2 23.1 C 32.9 22.8 32.7 22.3 32.7 21.8 C 32.7 21.8 32.7 21.8 32.7 21.8 C 32.7 21.3 32.9 20.8 33.2 20.5 C 33.6 20.1 34 19.9 34.6 19.9 C 35.1 19.9 35.6 20.1 36 20.5 C 36 20.5 35.7 20.9 35.7 20.9 C 35.3 20.6 34.9 20.4 34.6 20.4 C 34.2 20.4 33.9 20.5 33.6 20.8 C 33.4 21.1 33.3 21.4 33.3 21.8 C 33.3 21.8 33.3 21.8 33.3 21.8 C 33.3 22.2 33.4 22.5 33.6 22.8 C 33.9 23.1 34.2 23.2 34.6 23.2 C 35 23.2 35.4 23 35.7 22.7 C 35.69 22.66 36 23 36 23 C 36 23 36.04 22.98 36 23 Z M 36.9 23.6 L 36.9 18.5 L 37.5 18.5 L 37.5 22 L 39.4 20 L 40.1 20 L 38.6 21.5 L 40.1 23.6 L 39.5 23.6 L 38.2 21.9 L 37.5 22.7 L 37.5 23.6 L 36.9 23.6 Z " stroke="none" fill="#000"/>  </g>  <g id="Polygon69605">    <path d="M 3 9.3 L 3 8.6 L 3.6 8.6 L 3.6 9.3 L 3 9.3 Z M 1.7 9.3 L 1.7 8.6 L 2.3 8.6 L 2.3 9.3 L 1.7 9.3 Z M 2.7 14.7 C 2 14.7 1.5 14.5 1.2 14.1 C 0.8 13.7 0.6 13.2 0.6 12.5 C 0.62 12.55 0.6 9.7 0.6 9.7 L 1.2 9.7 C 1.2 9.7 1.17 12.51 1.2 12.5 C 1.2 13 1.3 13.4 1.6 13.7 C 1.8 14 2.2 14.2 2.7 14.2 C 3.1 14.2 3.5 14 3.8 13.8 C 4 13.5 4.1 13.1 4.1 12.5 C 4.14 12.55 4.1 9.7 4.1 9.7 L 4.7 9.7 C 4.7 9.7 4.7 12.51 4.7 12.5 C 4.7 13.2 4.5 13.7 4.1 14.1 C 3.8 14.5 3.3 14.7 2.7 14.7 Z M 5.9 14.6 L 5.9 11 L 6.5 11 C 6.5 11 6.45 11.93 6.5 11.9 C 6.6 11.6 6.8 11.4 7 11.2 C 7.3 11 7.6 10.9 7.9 10.9 C 7.93 10.92 7.9 11.5 7.9 11.5 C 7.9 11.5 7.89 11.5 7.9 11.5 C 7.5 11.5 7.1 11.6 6.9 11.9 C 6.6 12.2 6.5 12.6 6.5 13.2 C 6.45 13.16 6.5 14.6 6.5 14.6 L 5.9 14.6 Z M 10.6 10.4 L 10.6 9.8 L 11.2 9.8 L 11.2 10.4 L 10.6 10.4 Z M 9.3 10.4 L 9.3 9.8 L 10 9.8 L 10 10.4 L 9.3 10.4 Z M 11.3 14 C 11 14.4 10.6 14.7 10.1 14.7 C 9.7 14.7 9.3 14.5 9.1 14.3 C 8.8 14 8.7 13.7 8.7 13.2 C 8.69 13.23 8.7 11 8.7 11 L 9.2 11 C 9.2 11 9.23 13.09 9.2 13.1 C 9.2 13.4 9.3 13.7 9.5 13.9 C 9.7 14.1 9.9 14.2 10.2 14.2 C 10.5 14.2 10.8 14.1 11 13.9 C 11.2 13.7 11.3 13.4 11.3 13.1 C 11.32 13.05 11.3 11 11.3 11 L 11.9 11 L 11.9 14.6 L 11.3 14.6 L 11.3 14 C 11.3 14 11.32 13.97 11.3 14 Z M 13.1 14.6 L 13.1 11 L 13.6 11 C 13.6 11 13.6 11.61 13.6 11.6 C 13.9 11.1 14.3 10.9 14.8 10.9 C 15.3 10.9 15.6 11 15.9 11.3 C 16.1 11.6 16.2 11.9 16.2 12.4 C 16.23 12.35 16.2 14.6 16.2 14.6 L 15.7 14.6 C 15.7 14.6 15.69 12.49 15.7 12.5 C 15.7 12.1 15.6 11.9 15.4 11.7 C 15.2 11.5 15 11.4 14.7 11.4 C 14.4 11.4 14.1 11.5 13.9 11.7 C 13.7 11.9 13.6 12.2 13.6 12.5 C 13.6 12.53 13.6 14.6 13.6 14.6 L 13.1 14.6 Z M 19.6 14.6 L 19.6 9.7 L 20.1 9.7 L 20.1 12.6 L 22.9 9.7 L 23.7 9.7 L 21.5 11.8 L 23.7 14.6 L 23 14.6 L 21.2 12.2 L 20.1 13.3 L 20.1 14.6 L 19.6 14.6 Z M 26.2 14.7 C 25.6 14.7 25.2 14.5 24.8 14.1 C 24.5 13.8 24.3 13.3 24.3 12.8 C 24.3 12.8 24.3 12.8 24.3 12.8 C 24.3 12.3 24.5 11.8 24.8 11.5 C 25.2 11.1 25.6 10.9 26.2 10.9 C 26.7 10.9 27.2 11.1 27.5 11.5 C 27.9 11.8 28.1 12.3 28.1 12.8 C 28.1 12.8 28.1 12.8 28.1 12.8 C 28.1 13.3 27.9 13.8 27.5 14.1 C 27.2 14.5 26.7 14.7 26.2 14.7 Z M 26.2 14.2 C 26.6 14.2 26.9 14.1 27.1 13.8 C 27.4 13.5 27.5 13.2 27.5 12.8 C 27.5 12.8 27.5 12.8 27.5 12.8 C 27.5 12.4 27.4 12.1 27.1 11.8 C 26.9 11.5 26.5 11.4 26.2 11.4 C 25.8 11.4 25.5 11.5 25.2 11.8 C 25 12.1 24.8 12.4 24.8 12.8 C 24.8 12.8 24.8 12.8 24.8 12.8 C 24.8 13.2 25 13.5 25.2 13.8 C 25.5 14.1 25.8 14.2 26.2 14.2 Z M 31.9 13.9 C 31.6 14.4 31.1 14.7 30.5 14.7 C 30.1 14.7 29.7 14.5 29.3 14.2 C 29 13.8 28.8 13.4 28.8 12.8 C 28.8 12.8 28.8 12.8 28.8 12.8 C 28.8 12.2 29 11.8 29.3 11.4 C 29.7 11.1 30.1 10.9 30.5 10.9 C 31.1 10.9 31.6 11.2 31.9 11.7 C 31.93 11.67 31.9 9.5 31.9 9.5 L 32.5 9.5 L 32.5 14.6 L 31.9 14.6 L 31.9 13.9 C 31.9 13.9 31.93 13.87 31.9 13.9 Z M 30.6 14.2 C 31 14.2 31.3 14.1 31.6 13.8 C 31.8 13.5 32 13.2 32 12.8 C 32 12.8 32 12.8 32 12.8 C 32 12.4 31.8 12 31.6 11.8 C 31.3 11.5 31 11.4 30.6 11.4 C 30.3 11.4 30 11.5 29.7 11.8 C 29.5 12 29.4 12.4 29.4 12.8 C 29.4 12.8 29.4 12.8 29.4 12.8 C 29.4 13.2 29.5 13.6 29.7 13.8 C 30 14.1 30.3 14.2 30.6 14.2 Z M 36.2 14 C 36 14.4 35.5 14.7 35 14.7 C 34.6 14.7 34.2 14.5 34 14.3 C 33.7 14 33.6 13.7 33.6 13.2 C 33.62 13.23 33.6 11 33.6 11 L 34.2 11 C 34.2 11 34.16 13.09 34.2 13.1 C 34.2 13.4 34.2 13.7 34.4 13.9 C 34.6 14.1 34.8 14.2 35.2 14.2 C 35.5 14.2 35.7 14.1 35.9 13.9 C 36.1 13.7 36.2 13.4 36.2 13.1 C 36.25 13.05 36.2 11 36.2 11 L 36.8 11 L 36.8 14.6 L 36.2 14.6 L 36.2 14 C 36.2 14 36.25 13.97 36.2 14 Z M 38 11.7 L 38 11 L 38.6 11 L 38.6 11.7 L 38 11.7 Z M 38 14.6 L 38 13.9 L 38.6 13.9 L 38.6 14.6 L 38 14.6 Z M 42.5 14.6 L 42.5 10.8 L 41.7 11 L 41.4 10.1 L 42.8 9.7 L 43.6 9.7 L 43.6 14.6 L 42.5 14.6 Z M 47 14.6 L 47 13.5 L 44.6 13.5 L 44.4 12.8 L 47.1 9.7 L 48 9.7 L 48 12.7 L 48.7 12.7 L 48.7 13.5 L 48 13.5 L 48 14.6 L 47 14.6 Z M 45.7 12.7 L 47 12.7 L 47 11.1 L 45.7 12.7 Z M 51.4 14.7 C 50.8 14.7 50.4 14.5 50 14.2 C 49.6 13.8 49.4 13.2 49.4 12.3 C 49.4 12.3 49.4 12.3 49.4 12.3 C 49.4 11.5 49.6 10.9 50 10.4 C 50.3 9.9 50.9 9.6 51.6 9.6 C 52.1 9.6 52.6 9.8 53.1 10.2 C 53.1 10.2 52.5 11 52.5 11 C 52.4 10.9 52.2 10.8 52.1 10.7 C 51.9 10.6 51.7 10.6 51.5 10.6 C 51.4 10.6 51.2 10.6 51.1 10.7 C 50.9 10.8 50.8 10.9 50.8 11 C 50.7 11.1 50.6 11.3 50.6 11.4 C 50.6 11.5 50.6 11.6 50.5 11.7 C 50.9 11.5 51.2 11.4 51.6 11.4 C 52.1 11.4 52.5 11.6 52.8 11.8 C 53.1 12.1 53.3 12.5 53.3 13 C 53.3 13 53.3 13 53.3 13 C 53.3 13.5 53.1 13.9 52.8 14.2 C 52.4 14.5 52 14.7 51.4 14.7 Z M 50.5 13 C 50.5 13.2 50.6 13.4 50.7 13.6 C 50.9 13.7 51.1 13.8 51.4 13.8 C 51.6 13.8 51.8 13.7 52 13.6 C 52.1 13.4 52.2 13.3 52.2 13 C 52.2 13 52.2 13 52.2 13 C 52.2 12.8 52.1 12.6 52 12.5 C 51.8 12.4 51.6 12.3 51.4 12.3 C 51.1 12.3 50.9 12.4 50.7 12.5 C 50.6 12.6 50.5 12.8 50.5 13 C 50.52 13.02 50.5 13 50.5 13 C 50.5 13 50.52 13.03 50.5 13 Z M 56.5 14.6 L 56.5 13.5 L 54.1 13.5 L 53.9 12.8 L 56.6 9.7 L 57.5 9.7 L 57.5 12.7 L 58.1 12.7 L 58.1 13.5 L 57.5 13.5 L 57.5 14.6 L 56.5 14.6 Z M 55.2 12.7 L 56.5 12.7 L 56.5 11.1 L 55.2 12.7 Z M 60.6 14.7 C 59.9 14.7 59.3 14.4 58.8 13.9 C 58.8 13.9 59.5 13.2 59.5 13.2 C 59.8 13.5 60.2 13.7 60.6 13.7 C 60.9 13.7 61.1 13.6 61.2 13.5 C 61.4 13.4 61.4 13.2 61.4 13 C 61.4 13 61.4 13 61.4 13 C 61.4 12.8 61.4 12.6 61.2 12.5 C 61 12.4 60.8 12.3 60.6 12.3 C 60.3 12.3 60 12.4 59.8 12.5 C 59.75 12.53 59.1 12.1 59.1 12.1 L 59.3 9.7 L 62.3 9.7 L 62.3 10.6 L 60.2 10.6 C 60.2 10.6 60.14 11.49 60.1 11.5 C 60.4 11.4 60.6 11.4 60.8 11.4 C 61.3 11.4 61.7 11.5 62 11.8 C 62.3 12.1 62.5 12.5 62.5 13 C 62.5 13 62.5 13 62.5 13 C 62.5 13.5 62.3 13.9 62 14.2 C 61.6 14.5 61.2 14.7 60.6 14.7 Z " stroke="none" fill="#000"/>  </g>  <g id="Polygon69604">    <path d="M 0.6 5.6 L 0.6 0.7 C 0.6 0.7 2.5 0.7 2.5 0.7 C 3.3 0.7 3.9 0.9 4.4 1.4 C 4.9 1.9 5.1 2.4 5.1 3.1 C 5.1 3.1 5.1 3.1 5.1 3.1 C 5.1 3.8 4.9 4.4 4.4 4.9 C 3.9 5.4 3.3 5.6 2.5 5.6 C 2.5 5.6 0.6 5.6 0.6 5.6 Z M 2.5 1.7 C 2.5 1.67 1.7 1.7 1.7 1.7 L 1.7 4.6 C 1.7 4.6 2.5 4.63 2.5 4.6 C 2.9 4.6 3.3 4.5 3.6 4.2 C 3.8 4 4 3.6 4 3.2 C 4 3.2 4 3.1 4 3.1 C 4 2.7 3.8 2.4 3.6 2.1 C 3.3 1.8 2.9 1.7 2.5 1.7 Z M 8.3 5.1 C 8 5.5 7.6 5.7 7.2 5.7 C 6.8 5.7 6.5 5.5 6.3 5.3 C 6 5.1 5.9 4.7 5.9 4.3 C 5.92 4.28 5.9 1.8 5.9 1.8 L 7 1.8 C 7 1.8 6.99 3.94 7 3.9 C 7 4.4 7.2 4.7 7.6 4.7 C 7.8 4.7 8 4.6 8.1 4.5 C 8.2 4.4 8.3 4.2 8.3 3.9 C 8.29 3.94 8.3 1.8 8.3 1.8 L 9.4 1.8 L 9.4 5.6 L 8.3 5.6 L 8.3 5.1 C 8.3 5.1 8.29 5.07 8.3 5.1 Z M 11.5 5.6 L 10 1.8 L 11.1 1.8 L 11.9 4.4 L 12.8 1.8 L 13.9 1.8 L 12.4 5.6 L 11.5 5.6 Z M 16.7 5.2 C 16.4 5.5 16 5.7 15.6 5.7 C 15.2 5.7 14.9 5.6 14.7 5.4 C 14.4 5.2 14.3 4.9 14.3 4.5 C 14.3 4.5 14.3 4.5 14.3 4.5 C 14.3 4.1 14.4 3.8 14.7 3.6 C 15 3.4 15.3 3.3 15.8 3.3 C 16.1 3.3 16.4 3.4 16.7 3.5 C 16.7 3.5 16.7 3.4 16.7 3.4 C 16.7 2.9 16.4 2.7 15.9 2.7 C 15.6 2.7 15.2 2.8 14.9 2.9 C 14.9 2.9 14.6 2.1 14.6 2.1 C 15.1 1.9 15.6 1.8 16.1 1.8 C 16.6 1.8 17.1 1.9 17.3 2.2 C 17.6 2.5 17.7 2.9 17.7 3.4 C 17.74 3.42 17.7 5.6 17.7 5.6 L 16.7 5.6 L 16.7 5.2 C 16.7 5.2 16.71 5.19 16.7 5.2 Z M 15.9 4.9 C 16.1 4.9 16.4 4.9 16.5 4.8 C 16.7 4.6 16.7 4.5 16.7 4.3 C 16.7 4.3 16.7 4.1 16.7 4.1 C 16.5 4 16.3 3.9 16.1 3.9 C 15.8 3.9 15.6 4 15.5 4.1 C 15.4 4.2 15.3 4.3 15.3 4.5 C 15.3 4.5 15.3 4.5 15.3 4.5 C 15.3 4.6 15.4 4.7 15.5 4.8 C 15.6 4.9 15.7 4.9 15.9 4.9 Z M 18.7 5.6 L 18.7 1.8 L 19.7 1.8 C 19.7 1.8 19.72 2.6 19.7 2.6 C 20 2 20.4 1.8 20.9 1.8 C 20.92 1.78 20.9 2.9 20.9 2.9 C 20.9 2.9 20.86 2.89 20.9 2.9 C 20.5 2.9 20.2 3 20 3.2 C 19.8 3.4 19.7 3.8 19.7 4.2 C 19.72 4.21 19.7 5.6 19.7 5.6 L 18.7 5.6 Z M 23.8 5.2 C 23.5 5.5 23.1 5.7 22.6 5.7 C 22.3 5.7 22 5.6 21.7 5.4 C 21.5 5.2 21.4 4.9 21.4 4.5 C 21.4 4.5 21.4 4.5 21.4 4.5 C 21.4 4.1 21.5 3.8 21.8 3.6 C 22 3.4 22.4 3.3 22.9 3.3 C 23.2 3.3 23.5 3.4 23.8 3.5 C 23.8 3.5 23.8 3.4 23.8 3.4 C 23.8 2.9 23.5 2.7 23 2.7 C 22.6 2.7 22.3 2.8 21.9 2.9 C 21.9 2.9 21.7 2.1 21.7 2.1 C 22.2 1.9 22.6 1.8 23.1 1.8 C 23.7 1.8 24.1 1.9 24.4 2.2 C 24.7 2.5 24.8 2.9 24.8 3.4 C 24.81 3.42 24.8 5.6 24.8 5.6 L 23.8 5.6 L 23.8 5.2 C 23.8 5.2 23.78 5.19 23.8 5.2 Z M 23 4.9 C 23.2 4.9 23.4 4.9 23.6 4.8 C 23.7 4.6 23.8 4.5 23.8 4.3 C 23.8 4.3 23.8 4.1 23.8 4.1 C 23.6 4 23.4 3.9 23.1 3.9 C 22.9 3.9 22.7 4 22.6 4.1 C 22.5 4.2 22.4 4.3 22.4 4.5 C 22.4 4.5 22.4 4.5 22.4 4.5 C 22.4 4.6 22.4 4.7 22.5 4.8 C 22.7 4.9 22.8 4.9 23 4.9 Z M 27.9 5.6 L 27.9 0.7 L 29.1 0.7 L 30.4 2.8 L 31.7 0.7 L 32.8 0.7 L 32.8 5.6 L 31.8 5.6 L 31.8 2.4 L 30.4 4.5 L 30.4 4.5 L 29 2.4 L 29 5.6 L 27.9 5.6 Z M 35.7 5.7 C 35.2 5.7 34.7 5.5 34.3 5.1 C 33.9 4.8 33.7 4.3 33.7 3.7 C 33.7 3.7 33.7 3.7 33.7 3.7 C 33.7 3.2 33.9 2.7 34.3 2.3 C 34.7 2 35.2 1.8 35.8 1.8 C 36.3 1.8 36.8 2 37.2 2.3 C 37.6 2.7 37.8 3.2 37.8 3.7 C 37.8 3.7 37.8 3.7 37.8 3.7 C 37.8 4.3 37.6 4.7 37.2 5.1 C 36.8 5.5 36.3 5.7 35.7 5.7 Z M 35.8 4.8 C 36 4.8 36.3 4.7 36.5 4.5 C 36.6 4.3 36.7 4 36.7 3.7 C 36.7 3.7 36.7 3.7 36.7 3.7 C 36.7 3.4 36.6 3.2 36.5 3 C 36.3 2.8 36 2.7 35.7 2.7 C 35.4 2.7 35.2 2.8 35 3 C 34.9 3.2 34.8 3.4 34.8 3.7 C 34.8 3.7 34.8 3.7 34.8 3.7 C 34.8 4 34.9 4.3 35 4.5 C 35.2 4.7 35.5 4.8 35.8 4.8 Z M 38.5 5.6 L 38.5 1.8 L 39.6 1.8 C 39.6 1.8 39.61 2.38 39.6 2.4 C 39.9 2 40.3 1.8 40.7 1.8 C 41.1 1.8 41.4 1.9 41.7 2.1 C 41.9 2.4 42 2.7 42 3.2 C 41.99 3.17 42 5.6 42 5.6 L 40.9 5.6 C 40.9 5.6 40.92 3.51 40.9 3.5 C 40.9 3 40.7 2.7 40.3 2.7 C 40.1 2.7 39.9 2.8 39.8 2.9 C 39.7 3.1 39.6 3.3 39.6 3.5 C 39.61 3.51 39.6 5.6 39.6 5.6 L 38.5 5.6 Z M 45 5.4 C 44.8 5.6 44.5 5.7 44.2 5.7 C 43.8 5.7 43.6 5.6 43.4 5.4 C 43.2 5.2 43.1 4.9 43.1 4.5 C 43.08 4.54 43.1 2.8 43.1 2.8 L 42.6 2.8 L 42.6 1.8 L 43.1 1.8 L 43.1 0.9 L 44.1 0.9 L 44.1 1.8 L 45 1.8 L 45 2.8 L 44.1 2.8 C 44.1 2.8 44.15 4.36 44.1 4.4 C 44.1 4.6 44.3 4.7 44.5 4.7 C 44.7 4.7 44.9 4.7 45 4.6 C 45.02 4.59 45 5.4 45 5.4 C 45 5.4 45.02 5.45 45 5.4 Z M 49.1 5 C 48.7 5.5 48.2 5.7 47.6 5.7 C 47 5.7 46.6 5.5 46.2 5.1 C 45.8 4.8 45.6 4.3 45.6 3.7 C 45.6 3.7 45.6 3.7 45.6 3.7 C 45.6 3.2 45.8 2.7 46.2 2.3 C 46.5 2 47 1.8 47.5 1.8 C 48.1 1.8 48.5 2 48.8 2.4 C 49.2 2.8 49.3 3.2 49.3 3.8 C 49.3 3.9 49.3 4 49.3 4.1 C 49.3 4.1 46.7 4.1 46.7 4.1 C 46.7 4.3 46.8 4.5 47 4.6 C 47.2 4.8 47.4 4.8 47.6 4.8 C 47.9 4.8 48.2 4.7 48.5 4.4 C 48.52 4.44 49.1 5 49.1 5 C 49.1 5 49.13 4.98 49.1 5 Z M 46.7 3.4 C 46.7 3.4 48.3 3.4 48.3 3.4 C 48.2 3.2 48.2 3 48 2.8 C 47.9 2.7 47.7 2.6 47.5 2.6 C 47.3 2.6 47.1 2.7 46.9 2.8 C 46.8 3 46.7 3.2 46.7 3.4 Z M 54.1 5.7 C 53.3 5.7 52.6 5.4 52 4.9 C 52 4.9 52.6 4.1 52.6 4.1 C 53.1 4.5 53.6 4.7 54.1 4.7 C 54.3 4.7 54.5 4.7 54.6 4.6 C 54.7 4.5 54.8 4.4 54.8 4.3 C 54.8 4.3 54.8 4.2 54.8 4.2 C 54.8 4.1 54.7 4 54.6 3.9 C 54.5 3.8 54.2 3.7 53.8 3.6 C 53.5 3.5 53.3 3.5 53.1 3.4 C 52.9 3.3 52.8 3.3 52.6 3.1 C 52.5 3 52.4 2.9 52.3 2.7 C 52.2 2.6 52.2 2.4 52.2 2.1 C 52.2 2.1 52.2 2.1 52.2 2.1 C 52.2 1.7 52.3 1.3 52.7 1 C 53 0.8 53.4 0.6 53.9 0.6 C 54.6 0.6 55.2 0.8 55.7 1.3 C 55.7 1.3 55.2 2.1 55.2 2.1 C 54.7 1.7 54.3 1.6 53.9 1.6 C 53.7 1.6 53.5 1.6 53.4 1.7 C 53.3 1.8 53.2 1.9 53.2 2 C 53.2 2 53.2 2 53.2 2 C 53.2 2.2 53.3 2.3 53.4 2.4 C 53.6 2.5 53.9 2.6 54.3 2.7 C 54.8 2.8 55.2 3 55.5 3.2 C 55.7 3.4 55.9 3.7 55.9 4.1 C 55.9 4.1 55.9 4.2 55.9 4.2 C 55.9 4.6 55.7 5 55.4 5.3 C 55 5.5 54.6 5.7 54.1 5.7 Z M 56.7 5.6 L 56.7 1.8 L 57.8 1.8 L 57.8 5.6 L 56.7 5.6 Z M 59.9 5.6 L 58.5 1.8 L 59.6 1.8 L 60.4 4.4 L 61.3 1.8 L 62.4 1.8 L 60.9 5.6 L 59.9 5.6 Z M 63 5.6 L 63 1.8 L 64.1 1.8 L 64.1 5.6 L 63 5.6 Z M 69.1 5.7 C 68.3 5.7 67.6 5.4 67 4.9 C 67 4.9 67.6 4.1 67.6 4.1 C 68.1 4.5 68.6 4.7 69.1 4.7 C 69.3 4.7 69.5 4.7 69.6 4.6 C 69.7 4.5 69.8 4.4 69.8 4.3 C 69.8 4.3 69.8 4.2 69.8 4.2 C 69.8 4.1 69.7 4 69.6 3.9 C 69.5 3.8 69.2 3.7 68.8 3.6 C 68.5 3.5 68.3 3.5 68.1 3.4 C 68 3.3 67.8 3.3 67.6 3.1 C 67.5 3 67.4 2.9 67.3 2.7 C 67.2 2.6 67.2 2.4 67.2 2.1 C 67.2 2.1 67.2 2.1 67.2 2.1 C 67.2 1.7 67.3 1.3 67.7 1 C 68 0.8 68.4 0.6 68.9 0.6 C 69.6 0.6 70.2 0.8 70.7 1.3 C 70.7 1.3 70.2 2.1 70.2 2.1 C 69.7 1.7 69.3 1.6 68.9 1.6 C 68.7 1.6 68.5 1.6 68.4 1.7 C 68.3 1.8 68.3 1.9 68.3 2 C 68.3 2 68.3 2 68.3 2 C 68.3 2.2 68.3 2.3 68.5 2.4 C 68.6 2.5 68.9 2.6 69.3 2.7 C 69.8 2.8 70.2 3 70.5 3.2 C 70.7 3.4 70.9 3.7 70.9 4.1 C 70.9 4.1 70.9 4.2 70.9 4.2 C 70.9 4.6 70.7 5 70.4 5.3 C 70 5.5 69.6 5.7 69.1 5.7 Z M 73.9 5.2 C 73.6 5.5 73.2 5.7 72.8 5.7 C 72.4 5.7 72.1 5.6 71.8 5.4 C 71.6 5.2 71.5 4.9 71.5 4.5 C 71.5 4.5 71.5 4.5 71.5 4.5 C 71.5 4.1 71.6 3.8 71.9 3.6 C 72.2 3.4 72.5 3.3 73 3.3 C 73.3 3.3 73.6 3.4 73.9 3.5 C 73.9 3.5 73.9 3.4 73.9 3.4 C 73.9 2.9 73.6 2.7 73.1 2.7 C 72.8 2.7 72.4 2.8 72.1 2.9 C 72.1 2.9 71.8 2.1 71.8 2.1 C 72.3 1.9 72.7 1.8 73.2 1.8 C 73.8 1.8 74.2 1.9 74.5 2.2 C 74.8 2.5 74.9 2.9 74.9 3.4 C 74.92 3.42 74.9 5.6 74.9 5.6 L 73.9 5.6 L 73.9 5.2 C 73.9 5.2 73.89 5.19 73.9 5.2 Z M 73.1 4.9 C 73.3 4.9 73.5 4.9 73.7 4.8 C 73.8 4.6 73.9 4.5 73.9 4.3 C 73.9 4.3 73.9 4.1 73.9 4.1 C 73.7 4 73.5 3.9 73.2 3.9 C 73 3.9 72.8 4 72.7 4.1 C 72.6 4.2 72.5 4.3 72.5 4.5 C 72.5 4.5 72.5 4.5 72.5 4.5 C 72.5 4.6 72.6 4.7 72.7 4.8 C 72.8 4.9 72.9 4.9 73.1 4.9 Z M 78.1 5.7 C 77.6 5.7 77.2 5.5 76.9 5.1 C 76.9 5.11 76.9 5.6 76.9 5.6 L 75.8 5.6 L 75.8 0.5 L 76.9 0.5 C 76.9 0.5 76.9 2.39 76.9 2.4 C 77.2 2 77.6 1.8 78.1 1.8 C 78.5 1.8 78.9 2 79.3 2.3 C 79.6 2.6 79.8 3.1 79.8 3.7 C 79.8 3.7 79.8 3.7 79.8 3.7 C 79.8 4.3 79.6 4.8 79.3 5.1 C 78.9 5.5 78.5 5.7 78.1 5.7 Z M 76.9 3.7 C 76.9 4 77 4.3 77.1 4.5 C 77.3 4.7 77.5 4.8 77.8 4.8 C 78.1 4.8 78.3 4.7 78.4 4.5 C 78.6 4.3 78.7 4 78.7 3.7 C 78.7 3.7 78.7 3.7 78.7 3.7 C 78.7 3.4 78.6 3.2 78.4 3 C 78.3 2.8 78.1 2.7 77.8 2.7 C 77.5 2.7 77.3 2.8 77.1 3 C 77 3.2 76.9 3.4 76.9 3.7 C 76.89 3.72 76.9 3.7 76.9 3.7 C 76.9 3.7 76.89 3.73 76.9 3.7 Z M 82.9 5.1 C 82.6 5.5 82.2 5.7 81.8 5.7 C 81.4 5.7 81.1 5.5 80.9 5.3 C 80.6 5.1 80.5 4.7 80.5 4.3 C 80.53 4.28 80.5 1.8 80.5 1.8 L 81.6 1.8 C 81.6 1.8 81.6 3.94 81.6 3.9 C 81.6 4.4 81.8 4.7 82.2 4.7 C 82.5 4.7 82.6 4.6 82.7 4.5 C 82.8 4.4 82.9 4.2 82.9 3.9 C 82.91 3.94 82.9 1.8 82.9 1.8 L 84 1.8 L 84 5.6 L 82.9 5.6 L 82.9 5.1 C 82.9 5.1 82.91 5.07 82.9 5.1 Z M 84.9 5.6 L 84.9 1.8 L 86 1.8 C 86 1.8 85.99 2.38 86 2.4 C 86.3 2 86.7 1.8 87.1 1.8 C 87.5 1.8 87.8 1.9 88 2.1 C 88.2 2.4 88.4 2.7 88.4 3.2 C 88.36 3.17 88.4 5.6 88.4 5.6 L 87.3 5.6 C 87.3 5.6 87.3 3.51 87.3 3.5 C 87.3 3 87.1 2.7 86.7 2.7 C 86.4 2.7 86.3 2.8 86.2 2.9 C 86 3.1 86 3.3 86 3.5 C 85.99 3.51 86 5.6 86 5.6 L 84.9 5.6 Z M 89.3 5.6 L 89.3 0.5 L 90.4 0.5 L 90.4 5.6 L 89.3 5.6 Z M 93.7 5.1 C 93.4 5.5 93.1 5.7 92.6 5.7 C 92.2 5.7 91.9 5.5 91.7 5.3 C 91.5 5.1 91.4 4.7 91.4 4.3 C 91.37 4.28 91.4 1.8 91.4 1.8 L 92.4 1.8 C 92.4 1.8 92.43 3.94 92.4 3.9 C 92.4 4.4 92.6 4.7 93.1 4.7 C 93.3 4.7 93.5 4.6 93.6 4.5 C 93.7 4.4 93.7 4.2 93.7 3.9 C 93.74 3.94 93.7 1.8 93.7 1.8 L 94.8 1.8 L 94.8 5.6 L 93.7 5.6 L 93.7 5.1 C 93.7 5.1 93.74 5.07 93.7 5.1 Z M 95.8 5.6 L 95.8 0.5 L 96.8 0.5 L 96.8 3.2 L 98.1 1.8 L 99.3 1.8 L 97.9 3.3 L 99.4 5.6 L 98.2 5.6 L 97.2 4.1 L 96.8 4.5 L 96.8 5.6 L 95.8 5.6 Z M 101.9 3.9 L 101.9 2.9 L 104.9 2.9 L 104.9 3.9 L 101.9 3.9 Z M 107.9 5.6 L 107.9 0.7 C 107.9 0.7 110.15 0.7 110.2 0.7 C 110.8 0.7 111.2 0.9 111.6 1.2 C 111.9 1.5 112 1.9 112 2.3 C 112 2.3 112 2.3 112 2.3 C 112 3.1 111.6 3.6 110.9 3.8 C 110.95 3.85 112.1 5.6 112.1 5.6 L 110.9 5.6 L 109.8 4 L 109 4 L 109 5.6 L 107.9 5.6 Z M 109 3.1 C 109 3.1 110.08 3.08 110.1 3.1 C 110.3 3.1 110.5 3 110.7 2.9 C 110.8 2.8 110.9 2.6 110.9 2.4 C 110.9 2.4 110.9 2.4 110.9 2.4 C 110.9 2.1 110.8 2 110.7 1.9 C 110.5 1.7 110.3 1.7 110.1 1.7 C 110.06 1.67 109 1.7 109 1.7 L 109 3.1 Z M 112.9 1.4 L 112.9 0.5 L 114 0.5 L 114 1.4 L 112.9 1.4 Z M 112.9 5.6 L 112.9 1.8 L 114 1.8 L 114 5.6 L 112.9 5.6 Z M 115 5.6 L 115 1.8 L 116 1.8 C 116 1.8 116.04 2.38 116 2.4 C 116.3 2 116.7 1.8 117.1 1.8 C 117.6 1.8 118 2 118.2 2.4 C 118.5 2 118.9 1.8 119.4 1.8 C 119.8 1.8 120.1 1.9 120.4 2.1 C 120.6 2.4 120.7 2.7 120.7 3.2 C 120.7 3.16 120.7 5.6 120.7 5.6 L 119.6 5.6 C 119.6 5.6 119.64 3.51 119.6 3.5 C 119.6 3 119.4 2.7 119 2.7 C 118.8 2.7 118.7 2.8 118.5 2.9 C 118.4 3.1 118.4 3.3 118.4 3.5 C 118.37 3.51 118.4 5.6 118.4 5.6 L 117.3 5.6 C 117.3 5.6 117.3 3.51 117.3 3.5 C 117.3 3 117.1 2.7 116.7 2.7 C 116.5 2.7 116.3 2.8 116.2 2.9 C 116.1 3.1 116 3.3 116 3.5 C 116.04 3.51 116 5.6 116 5.6 L 115 5.6 Z " stroke="none" fill="#000"/>  </g></svg>