<?xml version="1.0" standalone="no"?><!DOCTYPE svg PUBLIC "-//W3C//DTD SVG 1.1//EN" "http://www.w3.org/Graphics/SVG/1.1/DTD/svg11.dtd"><svg xmlns="http://www.w3.org/2000/svg" version="1.1" width="67px" height="98.4px" viewBox="0 -3 67 98.4" style="top:-3px">  <desc>Sepet – Inu r n Kodu: 28261 Renk: Taupe Malzeme: Toz boyal elik l ler: D 10,5 × H 13,5 cm Tasar m: Neu Studio</desc>  <defs/>  <g id="Polygon81710">    <path d="M 2.4 77.7 C 1.6 77.7 0.9 77.4 0.4 76.9 C 0.4 76.9 0.7 76.5 0.7 76.5 C 1 76.7 1.2 76.9 1.5 77 C 1.8 77.1 2.1 77.2 2.4 77.2 C 2.7 77.2 3 77.1 3.2 76.9 C 3.4 76.8 3.5 76.6 3.5 76.3 C 3.5 76.3 3.5 76.3 3.5 76.3 C 3.5 76.1 3.4 75.9 3.2 75.8 C 3 75.6 2.7 75.5 2.2 75.4 C 1.6 75.3 1.2 75.1 1 74.9 C 0.7 74.7 0.6 74.4 0.6 74 C 0.6 74 0.6 74 0.6 74 C 0.6 73.6 0.7 73.3 1 73 C 1.3 72.8 1.7 72.6 2.2 72.6 C 2.5 72.6 2.8 72.7 3.1 72.8 C 3.4 72.9 3.6 73 3.9 73.2 C 3.9 73.2 3.6 73.7 3.6 73.7 C 3.1 73.3 2.7 73.1 2.2 73.1 C 1.8 73.1 1.6 73.2 1.4 73.4 C 1.2 73.5 1.1 73.7 1.1 73.9 C 1.1 73.9 1.1 73.9 1.1 73.9 C 1.1 74.2 1.2 74.4 1.4 74.5 C 1.6 74.7 1.9 74.8 2.5 74.9 C 3 75 3.4 75.2 3.7 75.4 C 3.9 75.6 4 75.9 4 76.3 C 4 76.3 4 76.3 4 76.3 C 4 76.7 3.9 77 3.6 77.3 C 3.3 77.5 2.9 77.7 2.4 77.7 Z M 6.9 77.5 C 6.8 77.6 6.5 77.7 6.3 77.7 C 6 77.7 5.7 77.6 5.5 77.4 C 5.4 77.2 5.3 77 5.3 76.6 C 5.27 76.64 5.3 74.5 5.3 74.5 L 4.8 74.5 L 4.8 74 L 5.3 74 L 5.3 72.9 L 5.8 72.9 L 5.8 74 L 7 74 L 7 74.5 L 5.8 74.5 C 5.8 74.5 5.81 76.57 5.8 76.6 C 5.8 77 6 77.2 6.4 77.2 C 6.6 77.2 6.8 77.1 6.9 77 C 6.94 77.05 6.9 77.5 6.9 77.5 C 6.9 77.5 6.94 77.51 6.9 77.5 Z M 10.5 77 C 10.2 77.4 9.8 77.7 9.2 77.7 C 8.8 77.7 8.5 77.5 8.2 77.3 C 8 77 7.9 76.7 7.9 76.2 C 7.85 76.23 7.9 74 7.9 74 L 8.4 74 C 8.4 74 8.39 76.09 8.4 76.1 C 8.4 76.4 8.5 76.7 8.7 76.9 C 8.8 77.1 9.1 77.2 9.4 77.2 C 9.7 77.2 10 77.1 10.2 76.9 C 10.4 76.7 10.5 76.4 10.5 76.1 C 10.48 76.05 10.5 74 10.5 74 L 11 74 L 11 77.6 L 10.5 77.6 L 10.5 77 C 10.5 77 10.48 76.97 10.5 77 Z M 15.1 76.9 C 14.8 77.4 14.3 77.7 13.7 77.7 C 13.3 77.7 12.9 77.5 12.5 77.2 C 12.2 76.8 12 76.4 12 75.8 C 12 75.8 12 75.8 12 75.8 C 12 75.2 12.2 74.8 12.5 74.4 C 12.9 74.1 13.3 73.9 13.7 73.9 C 14.3 73.9 14.8 74.2 15.1 74.7 C 15.13 74.67 15.1 72.5 15.1 72.5 L 15.7 72.5 L 15.7 77.6 L 15.1 77.6 L 15.1 76.9 C 15.1 76.9 15.13 76.87 15.1 76.9 Z M 13.8 77.2 C 14.2 77.2 14.5 77.1 14.8 76.8 C 15 76.5 15.1 76.2 15.1 75.8 C 15.1 75.8 15.1 75.8 15.1 75.8 C 15.1 75.4 15 75 14.8 74.8 C 14.5 74.5 14.2 74.4 13.8 74.4 C 13.5 74.4 13.2 74.5 12.9 74.8 C 12.7 75 12.6 75.4 12.6 75.8 C 12.6 75.8 12.6 75.8 12.6 75.8 C 12.6 76.2 12.7 76.6 12.9 76.8 C 13.2 77.1 13.5 77.2 13.8 77.2 Z M 16.9 73.2 L 16.9 72.6 L 17.5 72.6 L 17.5 73.2 L 16.9 73.2 Z M 16.9 77.6 L 16.9 74 L 17.5 74 L 17.5 77.6 L 16.9 77.6 Z M 20.4 77.7 C 19.8 77.7 19.4 77.5 19 77.1 C 18.7 76.8 18.5 76.3 18.5 75.8 C 18.5 75.8 18.5 75.8 18.5 75.8 C 18.5 75.3 18.7 74.8 19 74.5 C 19.4 74.1 19.8 73.9 20.4 73.9 C 20.9 73.9 21.4 74.1 21.7 74.5 C 22.1 74.8 22.3 75.3 22.3 75.8 C 22.3 75.8 22.3 75.8 22.3 75.8 C 22.3 76.3 22.1 76.8 21.7 77.1 C 21.4 77.5 20.9 77.7 20.4 77.7 Z M 20.4 77.2 C 20.8 77.2 21.1 77.1 21.3 76.8 C 21.6 76.5 21.7 76.2 21.7 75.8 C 21.7 75.8 21.7 75.8 21.7 75.8 C 21.7 75.4 21.6 75.1 21.3 74.8 C 21.1 74.5 20.7 74.4 20.4 74.4 C 20 74.4 19.7 74.5 19.4 74.8 C 19.2 75.1 19 75.4 19 75.8 C 19 75.8 19 75.8 19 75.8 C 19 76.2 19.2 76.5 19.4 76.8 C 19.7 77.1 20 77.2 20.4 77.2 Z " stroke="none" fill="#000"/>  </g>  <g id="Polygon81709">    <path d="M 2 68.6 L 2 64.2 L 0.3 64.2 L 0.3 63.7 L 4.2 63.7 L 4.2 64.2 L 2.5 64.2 L 2.5 68.6 L 2 68.6 Z M 7.5 68.1 C 7.2 68.5 6.7 68.7 6.2 68.7 C 5.8 68.7 5.5 68.6 5.2 68.4 C 5 68.2 4.8 67.9 4.8 67.5 C 4.8 67.5 4.8 67.5 4.8 67.5 C 4.8 67.2 5 66.9 5.2 66.7 C 5.5 66.5 5.9 66.4 6.4 66.4 C 6.7 66.4 7.1 66.4 7.5 66.5 C 7.5 66.5 7.5 66.4 7.5 66.4 C 7.5 66.1 7.4 65.8 7.2 65.7 C 7 65.5 6.7 65.4 6.4 65.4 C 6 65.4 5.7 65.5 5.3 65.7 C 5.3 65.7 5.1 65.2 5.1 65.2 C 5.6 65 6 64.9 6.5 64.9 C 7 64.9 7.4 65.1 7.6 65.3 C 7.9 65.6 8 65.9 8 66.4 C 7.99 66.39 8 68.6 8 68.6 L 7.5 68.6 L 7.5 68.1 C 7.5 68.1 7.48 68.05 7.5 68.1 Z M 6.3 68.2 C 6.6 68.2 6.9 68.2 7.1 68 C 7.4 67.8 7.5 67.6 7.5 67.3 C 7.5 67.3 7.5 66.9 7.5 66.9 C 7.1 66.8 6.8 66.8 6.4 66.8 C 6.1 66.8 5.8 66.8 5.6 67 C 5.5 67.1 5.4 67.3 5.4 67.5 C 5.4 67.5 5.4 67.5 5.4 67.5 C 5.4 67.7 5.5 67.9 5.6 68.1 C 5.8 68.2 6 68.2 6.3 68.2 Z M 10.3 68.7 C 9.8 68.7 9.3 68.5 8.8 68.1 C 8.8 68.1 9.1 67.8 9.1 67.8 C 9.5 68.1 9.9 68.2 10.4 68.2 C 10.6 68.2 10.8 68.2 10.9 68.1 C 11 68 11.1 67.8 11.1 67.6 C 11.1 67.6 11.1 67.6 11.1 67.6 C 11.1 67.5 11 67.3 10.9 67.2 C 10.7 67.2 10.5 67.1 10.2 67 C 10.1 67 10 66.9 9.9 66.9 C 9.9 66.9 9.8 66.8 9.7 66.8 C 9.5 66.8 9.5 66.7 9.4 66.7 C 9.3 66.6 9.3 66.6 9.2 66.5 C 9.1 66.4 9.1 66.4 9.1 66.3 C 9 66.2 9 66.1 9 66 C 9 66 9 66 9 66 C 9 65.6 9.1 65.4 9.4 65.2 C 9.6 65 9.9 64.9 10.2 64.9 C 10.7 64.9 11.1 65.1 11.5 65.3 C 11.5 65.3 11.3 65.7 11.3 65.7 C 10.9 65.5 10.6 65.4 10.2 65.4 C 10 65.4 9.9 65.4 9.7 65.5 C 9.6 65.6 9.5 65.7 9.5 65.9 C 9.5 65.9 9.5 65.9 9.5 65.9 C 9.5 66 9.6 66 9.6 66.1 C 9.6 66.1 9.7 66.2 9.7 66.2 C 9.8 66.3 9.8 66.3 9.9 66.4 C 10 66.4 10.1 66.4 10.2 66.4 C 10.2 66.5 10.3 66.5 10.5 66.5 C 10.6 66.6 10.7 66.6 10.8 66.6 C 10.9 66.7 11 66.7 11.1 66.8 C 11.2 66.8 11.3 66.9 11.4 67 C 11.5 67 11.5 67.1 11.6 67.2 C 11.6 67.3 11.6 67.4 11.6 67.6 C 11.6 67.6 11.6 67.6 11.6 67.6 C 11.6 67.9 11.5 68.2 11.3 68.4 C 11 68.6 10.7 68.7 10.3 68.7 Z M 15 68.1 C 14.7 68.5 14.3 68.7 13.7 68.7 C 13.3 68.7 13 68.6 12.8 68.4 C 12.5 68.2 12.4 67.9 12.4 67.5 C 12.4 67.5 12.4 67.5 12.4 67.5 C 12.4 67.2 12.5 66.9 12.8 66.7 C 13.1 66.5 13.4 66.4 13.9 66.4 C 14.3 66.4 14.6 66.4 15 66.5 C 15 66.5 15 66.4 15 66.4 C 15 66.1 14.9 65.8 14.7 65.7 C 14.5 65.5 14.3 65.4 13.9 65.4 C 13.6 65.4 13.2 65.5 12.8 65.7 C 12.8 65.7 12.7 65.2 12.7 65.2 C 13.1 65 13.5 64.9 14 64.9 C 14.5 64.9 14.9 65.1 15.2 65.3 C 15.4 65.6 15.5 65.9 15.5 66.4 C 15.53 66.39 15.5 68.6 15.5 68.6 L 15 68.6 L 15 68.1 C 15 68.1 15.01 68.05 15 68.1 Z M 13.8 68.2 C 14.2 68.2 14.4 68.2 14.7 68 C 14.9 67.8 15 67.6 15 67.3 C 15 67.3 15 66.9 15 66.9 C 14.7 66.8 14.3 66.8 14 66.8 C 13.6 66.8 13.4 66.8 13.2 67 C 13 67.1 12.9 67.3 12.9 67.5 C 12.9 67.5 12.9 67.5 12.9 67.5 C 12.9 67.7 13 67.9 13.2 68.1 C 13.3 68.2 13.6 68.2 13.8 68.2 Z M 16.7 68.6 L 16.7 65 L 17.2 65 C 17.2 65 17.22 65.93 17.2 65.9 C 17.4 65.6 17.6 65.4 17.8 65.2 C 18.1 65 18.4 64.9 18.7 64.9 C 18.7 64.92 18.7 65.5 18.7 65.5 C 18.7 65.5 18.65 65.5 18.7 65.5 C 18.2 65.5 17.9 65.6 17.6 65.9 C 17.4 66.2 17.2 66.6 17.2 67.2 C 17.22 67.16 17.2 68.6 17.2 68.6 L 16.7 68.6 Z M 19.6 68.6 L 19.6 65 L 20.1 65 L 20.1 68.6 L 19.6 68.6 Z M 21.4 68.6 L 21.4 65 L 21.9 65 C 21.9 65 21.9 65.59 21.9 65.6 C 22 65.4 22.2 65.2 22.4 65.1 C 22.6 65 22.8 64.9 23.1 64.9 C 23.6 64.9 24 65.1 24.2 65.6 C 24.5 65.1 25 64.9 25.5 64.9 C 25.9 64.9 26.2 65 26.5 65.3 C 26.7 65.6 26.8 65.9 26.8 66.4 C 26.84 66.36 26.8 68.6 26.8 68.6 L 26.3 68.6 C 26.3 68.6 26.31 66.49 26.3 66.5 C 26.3 66.1 26.2 65.9 26.1 65.7 C 25.9 65.5 25.7 65.4 25.4 65.4 C 25.1 65.4 24.9 65.5 24.7 65.7 C 24.5 65.9 24.4 66.2 24.4 66.5 C 24.37 66.51 24.4 68.6 24.4 68.6 L 23.8 68.6 C 23.8 68.6 23.83 66.47 23.8 66.5 C 23.8 66.1 23.8 65.9 23.6 65.7 C 23.4 65.5 23.2 65.4 22.9 65.4 C 22.6 65.4 22.4 65.5 22.2 65.7 C 22 65.9 21.9 66.2 21.9 66.5 C 21.9 66.53 21.9 68.6 21.9 68.6 L 21.4 68.6 Z M 28 65.7 L 28 65 L 28.6 65 L 28.6 65.7 L 28 65.7 Z M 28 68.6 L 28 67.9 L 28.6 67.9 L 28.6 68.6 L 28 68.6 Z M 32 68.6 L 32 63.7 L 32.5 63.7 L 35.6 67.6 L 35.6 63.7 L 36.1 63.7 L 36.1 68.6 L 35.7 68.6 L 32.5 64.6 L 32.5 68.6 L 32 68.6 Z M 40.5 68 C 40.1 68.5 39.6 68.7 39 68.7 C 38.5 68.7 38.1 68.5 37.7 68.2 C 37.4 67.8 37.2 67.4 37.2 66.8 C 37.2 66.8 37.2 66.8 37.2 66.8 C 37.2 66.3 37.3 65.8 37.7 65.4 C 38 65.1 38.4 64.9 38.9 64.9 C 39.4 64.9 39.8 65.1 40.1 65.4 C 40.4 65.8 40.6 66.3 40.6 66.8 C 40.6 66.9 40.6 66.9 40.6 67 C 40.6 67 37.7 67 37.7 67 C 37.8 67.4 37.9 67.7 38.1 67.9 C 38.4 68.1 38.7 68.2 39 68.2 C 39.4 68.2 39.8 68 40.1 67.7 C 40.14 67.7 40.5 68 40.5 68 C 40.5 68 40.47 68 40.5 68 Z M 37.7 66.6 C 37.7 66.6 40.1 66.6 40.1 66.6 C 40 66.2 39.9 65.9 39.7 65.7 C 39.5 65.5 39.2 65.4 38.9 65.4 C 38.6 65.4 38.3 65.5 38.1 65.7 C 37.9 65.9 37.8 66.2 37.7 66.6 Z M 44.1 68 C 43.8 68.4 43.4 68.7 42.9 68.7 C 42.4 68.7 42.1 68.5 41.9 68.3 C 41.6 68 41.5 67.7 41.5 67.2 C 41.49 67.23 41.5 65 41.5 65 L 42 65 C 42 65 42.03 67.09 42 67.1 C 42 67.4 42.1 67.7 42.3 67.9 C 42.5 68.1 42.7 68.2 43 68.2 C 43.3 68.2 43.6 68.1 43.8 67.9 C 44 67.7 44.1 67.4 44.1 67.1 C 44.11 67.05 44.1 65 44.1 65 L 44.6 65 L 44.6 68.6 L 44.1 68.6 L 44.1 68 C 44.1 68 44.11 67.97 44.1 68 Z " stroke="none" fill="#000"/>  </g>  <g id="Polygon81708">    <path d="M 0.7 59.6 L 0.7 54.7 C 0.7 54.7 2.39 54.7 2.4 54.7 C 3.2 54.7 3.8 54.9 4.3 55.4 C 4.8 55.9 5 56.4 5 57.1 C 5 57.1 5 57.1 5 57.1 C 5 57.8 4.8 58.4 4.3 58.9 C 3.8 59.4 3.2 59.6 2.4 59.6 C 2.39 59.6 0.7 59.6 0.7 59.6 Z M 2.4 55.2 C 2.39 55.21 1.2 55.2 1.2 55.2 L 1.2 59.1 C 1.2 59.1 2.39 59.09 2.4 59.1 C 3 59.1 3.5 58.9 3.9 58.5 C 4.2 58.2 4.4 57.7 4.4 57.2 C 4.4 57.2 4.4 57.1 4.4 57.1 C 4.4 56.6 4.2 56.1 3.9 55.8 C 3.5 55.4 3 55.2 2.4 55.2 Z M 8.8 59.6 L 8.8 55.2 L 7.9 55.5 L 7.8 55.1 L 9 54.7 L 9.4 54.7 L 9.4 59.6 L 8.8 59.6 Z M 14.7 57.1 C 14.7 57.9 14.5 58.5 14.1 58.9 C 13.7 59.4 13.2 59.7 12.6 59.7 C 12 59.7 11.5 59.4 11.1 59 C 10.7 58.5 10.5 57.9 10.5 57.2 C 10.5 57.2 10.5 57.1 10.5 57.1 C 10.5 56.4 10.7 55.8 11.1 55.4 C 11.5 54.9 12 54.6 12.6 54.6 C 13.2 54.6 13.7 54.9 14.1 55.3 C 14.5 55.8 14.7 56.4 14.7 57.1 C 14.65 57.14 14.7 57.1 14.7 57.1 C 14.7 57.1 14.65 57.15 14.7 57.1 Z M 11.1 57.1 C 11.1 57.7 11.2 58.2 11.5 58.6 C 11.8 59 12.1 59.2 12.6 59.2 C 13 59.2 13.4 59 13.7 58.6 C 13.9 58.2 14.1 57.7 14.1 57.2 C 14.1 57.2 14.1 57.1 14.1 57.1 C 14.1 56.6 13.9 56.1 13.7 55.7 C 13.4 55.3 13 55.1 12.6 55.1 C 12.1 55.1 11.8 55.3 11.5 55.7 C 11.2 56.1 11.1 56.6 11.1 57.1 C 11.09 57.14 11.1 57.1 11.1 57.1 C 11.1 57.1 11.09 57.15 11.1 57.1 Z M 15.5 60.5 C 15.5 60.5 15.4 60.2 15.4 60.2 C 15.7 60.1 15.9 59.9 15.9 59.6 C 15.88 59.6 15.6 59.6 15.6 59.6 L 15.6 58.9 L 16.3 58.9 C 16.3 58.9 16.27 59.49 16.3 59.5 C 16.3 59.8 16.2 60 16.1 60.1 C 16 60.3 15.8 60.4 15.5 60.5 Z M 18.9 59.7 C 18.3 59.7 17.7 59.4 17.2 58.9 C 17.2 58.9 17.5 58.5 17.5 58.5 C 18 59 18.5 59.2 18.9 59.2 C 19.3 59.2 19.6 59.1 19.8 58.9 C 20 58.7 20.1 58.4 20.1 58.1 C 20.1 58.1 20.1 58.1 20.1 58.1 C 20.1 57.8 20 57.5 19.8 57.3 C 19.5 57.1 19.2 57.1 18.9 57.1 C 18.5 57.1 18.2 57.1 17.9 57.3 C 17.86 57.33 17.5 57.1 17.5 57.1 L 17.6 54.7 L 20.5 54.7 L 20.5 55.2 L 18.1 55.2 C 18.1 55.2 18.01 56.78 18 56.8 C 18.3 56.6 18.6 56.6 19 56.6 C 19.5 56.6 19.9 56.7 20.2 57 C 20.5 57.2 20.7 57.6 20.7 58.1 C 20.7 58.1 20.7 58.1 20.7 58.1 C 20.7 58.5 20.5 58.9 20.2 59.2 C 19.9 59.5 19.4 59.7 18.9 59.7 Z M 26.6 58.7 L 25.4 57.5 L 24.1 58.7 L 23.8 58.4 L 25 57.1 L 23.8 55.9 L 24.2 55.6 L 25.4 56.8 L 26.6 55.6 L 26.9 55.9 L 25.7 57.1 L 26.9 58.3 L 26.6 58.7 Z M 30.4 59.6 L 30.4 54.7 L 30.9 54.7 L 30.9 56.9 L 33.7 56.9 L 33.7 54.7 L 34.3 54.7 L 34.3 59.6 L 33.7 59.6 L 33.7 57.4 L 30.9 57.4 L 30.9 59.6 L 30.4 59.6 Z M 38.3 59.6 L 38.3 55.2 L 37.4 55.5 L 37.3 55.1 L 38.5 54.7 L 38.9 54.7 L 38.9 59.6 L 38.3 59.6 Z M 41.8 59.7 C 41 59.7 40.4 59.4 39.9 58.8 C 39.9 58.8 40.3 58.5 40.3 58.5 C 40.7 58.9 41.2 59.2 41.8 59.2 C 42.1 59.2 42.3 59.1 42.5 58.9 C 42.7 58.7 42.8 58.5 42.8 58.2 C 42.8 58.2 42.8 58.2 42.8 58.2 C 42.8 57.9 42.7 57.7 42.5 57.5 C 42.2 57.4 41.9 57.3 41.5 57.3 C 41.47 57.27 41.2 57.3 41.2 57.3 L 41 56.9 L 42.6 55.2 L 40.2 55.2 L 40.2 54.7 L 43.3 54.7 L 43.3 55.1 C 43.3 55.1 41.78 56.81 41.8 56.8 C 42.3 56.9 42.6 57 42.9 57.2 C 43.2 57.4 43.4 57.8 43.4 58.2 C 43.4 58.2 43.4 58.2 43.4 58.2 C 43.4 58.6 43.2 59 42.9 59.3 C 42.6 59.5 42.2 59.7 41.8 59.7 Z M 44.3 60.5 C 44.3 60.5 44.2 60.2 44.2 60.2 C 44.5 60.1 44.7 59.9 44.7 59.6 C 44.67 59.6 44.4 59.6 44.4 59.6 L 44.4 58.9 L 45.1 58.9 C 45.1 58.9 45.06 59.49 45.1 59.5 C 45.1 59.8 45 60 44.9 60.1 C 44.7 60.3 44.6 60.4 44.3 60.5 Z M 47.7 59.7 C 47.1 59.7 46.5 59.4 46 58.9 C 46 58.9 46.3 58.5 46.3 58.5 C 46.8 59 47.2 59.2 47.7 59.2 C 48.1 59.2 48.3 59.1 48.6 58.9 C 48.8 58.7 48.9 58.4 48.9 58.1 C 48.9 58.1 48.9 58.1 48.9 58.1 C 48.9 57.8 48.8 57.5 48.6 57.3 C 48.3 57.1 48 57.1 47.7 57.1 C 47.3 57.1 47 57.1 46.7 57.3 C 46.65 57.33 46.3 57.1 46.3 57.1 L 46.4 54.7 L 49.2 54.7 L 49.2 55.2 L 46.9 55.2 C 46.9 55.2 46.8 56.78 46.8 56.8 C 47.1 56.6 47.4 56.6 47.8 56.6 C 48.3 56.6 48.7 56.7 49 57 C 49.3 57.2 49.5 57.6 49.5 58.1 C 49.5 58.1 49.5 58.1 49.5 58.1 C 49.5 58.5 49.3 58.9 49 59.2 C 48.7 59.5 48.2 59.7 47.7 59.7 Z M 55.7 59 C 55.3 59.5 54.8 59.7 54.2 59.7 C 53.7 59.7 53.2 59.5 52.9 59.1 C 52.5 58.8 52.4 58.3 52.4 57.8 C 52.4 57.8 52.4 57.8 52.4 57.8 C 52.4 57.3 52.5 56.8 52.9 56.5 C 53.2 56.1 53.7 55.9 54.2 55.9 C 54.8 55.9 55.3 56.1 55.7 56.5 C 55.7 56.5 55.3 56.9 55.3 56.9 C 55 56.6 54.6 56.4 54.2 56.4 C 53.8 56.4 53.5 56.5 53.3 56.8 C 53 57.1 52.9 57.4 52.9 57.8 C 52.9 57.8 52.9 57.8 52.9 57.8 C 52.9 58.2 53 58.5 53.3 58.8 C 53.5 59.1 53.9 59.2 54.2 59.2 C 54.6 59.2 55 59 55.3 58.7 C 55.34 58.66 55.7 59 55.7 59 C 55.7 59 55.68 58.98 55.7 59 Z M 56.6 59.6 L 56.6 56 L 57.1 56 C 57.1 56 57.11 56.59 57.1 56.6 C 57.3 56.4 57.4 56.2 57.6 56.1 C 57.8 56 58 55.9 58.3 55.9 C 58.8 55.9 59.2 56.1 59.4 56.6 C 59.8 56.1 60.2 55.9 60.7 55.9 C 61.1 55.9 61.5 56 61.7 56.3 C 61.9 56.6 62.1 56.9 62.1 57.4 C 62.06 57.36 62.1 59.6 62.1 59.6 L 61.5 59.6 C 61.5 59.6 61.52 57.49 61.5 57.5 C 61.5 57.1 61.4 56.9 61.3 56.7 C 61.1 56.5 60.9 56.4 60.6 56.4 C 60.3 56.4 60.1 56.5 59.9 56.7 C 59.7 56.9 59.6 57.2 59.6 57.5 C 59.58 57.51 59.6 59.6 59.6 59.6 L 59.1 59.6 C 59.1 59.6 59.05 57.47 59.1 57.5 C 59.1 57.1 59 56.9 58.8 56.7 C 58.6 56.5 58.4 56.4 58.1 56.4 C 57.8 56.4 57.6 56.5 57.4 56.7 C 57.2 56.9 57.1 57.2 57.1 57.5 C 57.11 57.53 57.1 59.6 57.1 59.6 L 56.6 59.6 Z " stroke="none" fill="#000"/>  </g>  <g id="Polygon81707">    <path d="M 3.3 45.2 L 3.3 44.6 L 4 44.6 L 4 45.2 L 3.3 45.2 Z M 2 45.2 L 2 44.6 L 2.6 44.6 L 2.6 45.2 L 2 45.2 Z M 5.5 48.1 C 5.5 48.8 5.2 49.4 4.8 49.9 C 4.3 50.4 3.7 50.7 3 50.7 C 2.2 50.7 1.6 50.4 1.2 49.9 C 0.7 49.5 0.5 48.9 0.5 48.2 C 0.5 48.2 0.5 48.1 0.5 48.1 C 0.5 47.5 0.7 46.9 1.2 46.4 C 1.7 45.9 2.3 45.6 3 45.6 C 3.7 45.6 4.3 45.9 4.8 46.4 C 5.2 46.8 5.5 47.4 5.5 48.1 C 5.47 48.14 5.5 48.1 5.5 48.1 C 5.5 48.1 5.47 48.15 5.5 48.1 Z M 1.1 48.1 C 1.1 48.7 1.2 49.2 1.6 49.6 C 2 50 2.4 50.2 3 50.2 C 3.5 50.2 4 50 4.4 49.6 C 4.7 49.2 4.9 48.7 4.9 48.2 C 4.9 48.2 4.9 48.1 4.9 48.1 C 4.9 47.6 4.7 47.1 4.4 46.7 C 4 46.3 3.5 46.1 3 46.1 C 2.4 46.1 2 46.3 1.6 46.7 C 1.2 47.1 1.1 47.6 1.1 48.1 C 1.05 48.14 1.1 48.1 1.1 48.1 C 1.1 48.1 1.05 48.15 1.1 48.1 Z M 6.6 50.6 L 6.6 45.5 L 7.1 45.5 L 7.1 50.6 L 6.6 50.6 Z M 9.7 51.7 L 9.1 51.4 C 9.1 51.4 9.69 50.65 9.7 50.6 C 9.2 50.6 8.9 50.4 8.6 50 C 8.3 49.7 8.2 49.3 8.2 48.8 C 8.2 48.8 8.2 48.8 8.2 48.8 C 8.2 48.3 8.3 47.8 8.7 47.5 C 9.1 47.1 9.5 46.9 10 46.9 C 10.6 46.9 11.1 47.1 11.5 47.5 C 11.5 47.5 11.1 47.9 11.1 47.9 C 10.8 47.6 10.4 47.4 10 47.4 C 9.6 47.4 9.3 47.5 9.1 47.8 C 8.8 48.1 8.7 48.4 8.7 48.8 C 8.7 48.8 8.7 48.8 8.7 48.8 C 8.7 49.2 8.8 49.5 9.1 49.8 C 9.4 50.1 9.7 50.2 10.1 50.2 C 10.5 50.2 10.8 50 11.2 49.7 C 11.2 49.7 11.5 50 11.5 50 C 11.1 50.4 10.7 50.7 10.1 50.7 C 10.13 50.68 9.7 51.7 9.7 51.7 Z M 14.2 46.4 L 14.2 45.8 L 14.8 45.8 L 14.8 46.4 L 14.2 46.4 Z M 13 46.4 L 13 45.8 L 13.6 45.8 L 13.6 46.4 L 13 46.4 Z M 15 50 C 14.7 50.4 14.3 50.7 13.7 50.7 C 13.3 50.7 13 50.5 12.7 50.3 C 12.5 50 12.3 49.7 12.3 49.2 C 12.33 49.23 12.3 47 12.3 47 L 12.9 47 C 12.9 47 12.87 49.09 12.9 49.1 C 12.9 49.4 13 49.7 13.1 49.9 C 13.3 50.1 13.6 50.2 13.9 50.2 C 14.2 50.2 14.4 50.1 14.7 49.9 C 14.9 49.7 15 49.4 15 49.1 C 14.96 49.05 15 47 15 47 L 15.5 47 L 15.5 50.6 L 15 50.6 L 15 50 C 15 50 14.96 49.97 15 50 Z M 16.8 50.6 L 16.8 45.5 L 17.3 45.5 L 17.3 50.6 L 16.8 50.6 Z M 21.6 50 C 21.2 50.5 20.7 50.7 20.1 50.7 C 19.6 50.7 19.2 50.5 18.8 50.2 C 18.5 49.8 18.3 49.4 18.3 48.8 C 18.3 48.8 18.3 48.8 18.3 48.8 C 18.3 48.3 18.5 47.8 18.8 47.4 C 19.1 47.1 19.6 46.9 20.1 46.9 C 20.6 46.9 21 47.1 21.3 47.4 C 21.6 47.8 21.7 48.3 21.7 48.8 C 21.7 48.9 21.7 48.9 21.7 49 C 21.7 49 18.9 49 18.9 49 C 18.9 49.4 19 49.7 19.3 49.9 C 19.5 50.1 19.8 50.2 20.1 50.2 C 20.6 50.2 20.9 50 21.3 49.7 C 21.28 49.7 21.6 50 21.6 50 C 21.6 50 21.62 50 21.6 50 Z M 18.9 48.6 C 18.9 48.6 21.2 48.6 21.2 48.6 C 21.2 48.2 21.1 47.9 20.9 47.7 C 20.7 47.5 20.4 47.4 20 47.4 C 19.7 47.4 19.5 47.5 19.2 47.7 C 19 47.9 18.9 48.2 18.9 48.6 Z M 22.7 50.6 L 22.7 47 L 23.2 47 C 23.2 47 23.23 47.93 23.2 47.9 C 23.4 47.6 23.6 47.4 23.8 47.2 C 24.1 47 24.4 46.9 24.7 46.9 C 24.7 46.92 24.7 47.5 24.7 47.5 C 24.7 47.5 24.66 47.5 24.7 47.5 C 24.2 47.5 23.9 47.6 23.6 47.9 C 23.4 48.2 23.2 48.6 23.2 49.2 C 23.23 49.16 23.2 50.6 23.2 50.6 L 22.7 50.6 Z M 25.5 47.7 L 25.5 47 L 26.1 47 L 26.1 47.7 L 25.5 47.7 Z M 25.5 50.6 L 25.5 49.9 L 26.1 49.9 L 26.1 50.6 L 25.5 50.6 Z " stroke="none" fill="#000"/>  </g>  <g id="Polygon81706">    <path d="M 2 41.6 L 2 37.2 L 0.3 37.2 L 0.3 36.7 L 4.2 36.7 L 4.2 37.2 L 2.5 37.2 L 2.5 41.6 L 2 41.6 Z M 6.7 41.7 C 6.2 41.7 5.8 41.5 5.4 41.1 C 5 40.8 4.9 40.3 4.9 39.8 C 4.9 39.8 4.9 39.8 4.9 39.8 C 4.9 39.3 5 38.8 5.4 38.5 C 5.8 38.1 6.2 37.9 6.8 37.9 C 7.3 37.9 7.7 38.1 8.1 38.5 C 8.5 38.8 8.6 39.3 8.6 39.8 C 8.6 39.8 8.6 39.8 8.6 39.8 C 8.6 40.3 8.5 40.8 8.1 41.1 C 7.7 41.5 7.3 41.7 6.7 41.7 Z M 6.8 41.2 C 7.1 41.2 7.5 41.1 7.7 40.8 C 8 40.5 8.1 40.2 8.1 39.8 C 8.1 39.8 8.1 39.8 8.1 39.8 C 8.1 39.4 8 39.1 7.7 38.8 C 7.4 38.5 7.1 38.4 6.7 38.4 C 6.4 38.4 6 38.5 5.8 38.8 C 5.5 39.1 5.4 39.4 5.4 39.8 C 5.4 39.8 5.4 39.8 5.4 39.8 C 5.4 40.2 5.5 40.5 5.8 40.8 C 6.1 41.1 6.4 41.2 6.8 41.2 Z M 9.4 41.6 L 9.4 41.3 L 11.8 38.4 L 9.5 38.4 L 9.5 38 L 12.5 38 L 12.5 38.3 L 10.1 41.1 L 12.5 41.1 L 12.5 41.6 L 9.4 41.6 Z M 17.5 41.7 C 17 41.7 16.5 41.4 16.1 40.9 C 16.14 40.91 16.1 41.6 16.1 41.6 L 15.6 41.6 L 15.6 36.5 L 16.1 36.5 C 16.1 36.5 16.14 38.71 16.1 38.7 C 16.5 38.2 17 37.9 17.5 37.9 C 18 37.9 18.4 38.1 18.7 38.4 C 19.1 38.8 19.3 39.2 19.3 39.8 C 19.3 39.8 19.3 39.8 19.3 39.8 C 19.3 40.4 19.1 40.8 18.7 41.2 C 18.4 41.5 18 41.7 17.5 41.7 Z M 17.4 41.2 C 17.8 41.2 18.1 41.1 18.3 40.8 C 18.6 40.6 18.7 40.2 18.7 39.8 C 18.7 39.8 18.7 39.8 18.7 39.8 C 18.7 39.4 18.6 39 18.3 38.8 C 18.1 38.5 17.8 38.4 17.4 38.4 C 17.1 38.4 16.8 38.5 16.5 38.8 C 16.3 39.1 16.1 39.4 16.1 39.8 C 16.1 39.8 16.1 39.8 16.1 39.8 C 16.1 40.2 16.3 40.5 16.5 40.8 C 16.8 41.1 17.1 41.2 17.4 41.2 Z M 21.9 41.7 C 21.4 41.7 20.9 41.5 20.6 41.1 C 20.2 40.8 20 40.3 20 39.8 C 20 39.8 20 39.8 20 39.8 C 20 39.3 20.2 38.8 20.6 38.5 C 20.9 38.1 21.4 37.9 21.9 37.9 C 22.5 37.9 22.9 38.1 23.3 38.5 C 23.6 38.8 23.8 39.3 23.8 39.8 C 23.8 39.8 23.8 39.8 23.8 39.8 C 23.8 40.3 23.6 40.8 23.3 41.1 C 22.9 41.5 22.4 41.7 21.9 41.7 Z M 21.9 41.2 C 22.3 41.2 22.6 41.1 22.9 40.8 C 23.1 40.5 23.2 40.2 23.2 39.8 C 23.2 39.8 23.2 39.8 23.2 39.8 C 23.2 39.4 23.1 39.1 22.9 38.8 C 22.6 38.5 22.3 38.4 21.9 38.4 C 21.5 38.4 21.2 38.5 21 38.8 C 20.7 39.1 20.6 39.4 20.6 39.8 C 20.6 39.8 20.6 39.8 20.6 39.8 C 20.6 40.2 20.7 40.5 21 40.8 C 21.2 41.1 21.5 41.2 21.9 41.2 Z M 26.3 41 L 27.5 38 L 28.1 38 C 28.1 38 26.54 41.72 26.5 41.7 C 26.4 42.1 26.2 42.4 26 42.5 C 25.8 42.7 25.6 42.7 25.3 42.7 C 25.1 42.7 24.8 42.7 24.6 42.6 C 24.6 42.6 24.7 42.1 24.7 42.1 C 24.9 42.2 25.1 42.3 25.3 42.3 C 25.5 42.3 25.6 42.2 25.7 42.1 C 25.8 42 25.9 41.8 26.1 41.6 C 26.05 41.59 24.4 38 24.4 38 L 25 38 L 26.3 41 Z M 31.3 41.1 C 31 41.5 30.5 41.7 30 41.7 C 29.6 41.7 29.3 41.6 29 41.4 C 28.8 41.2 28.6 40.9 28.6 40.5 C 28.6 40.5 28.6 40.5 28.6 40.5 C 28.6 40.2 28.8 39.9 29.1 39.7 C 29.3 39.5 29.7 39.4 30.2 39.4 C 30.6 39.4 30.9 39.4 31.3 39.5 C 31.3 39.5 31.3 39.4 31.3 39.4 C 31.3 39.1 31.2 38.8 31 38.7 C 30.8 38.5 30.6 38.4 30.2 38.4 C 29.9 38.4 29.5 38.5 29.1 38.7 C 29.1 38.7 29 38.2 29 38.2 C 29.4 38 29.8 37.9 30.3 37.9 C 30.8 37.9 31.2 38.1 31.4 38.3 C 31.7 38.6 31.8 38.9 31.8 39.4 C 31.81 39.39 31.8 41.6 31.8 41.6 L 31.3 41.6 L 31.3 41.1 C 31.3 41.1 31.3 41.05 31.3 41.1 Z M 30.1 41.2 C 30.4 41.2 30.7 41.2 31 41 C 31.2 40.8 31.3 40.6 31.3 40.3 C 31.3 40.3 31.3 39.9 31.3 39.9 C 30.9 39.8 30.6 39.8 30.2 39.8 C 29.9 39.8 29.6 39.8 29.5 40 C 29.3 40.1 29.2 40.3 29.2 40.5 C 29.2 40.5 29.2 40.5 29.2 40.5 C 29.2 40.7 29.3 40.9 29.4 41.1 C 29.6 41.2 29.8 41.2 30.1 41.2 Z M 33 41.6 L 33 36.5 L 33.6 36.5 L 33.6 41.6 L 33 41.6 Z M 34.9 41.6 L 34.9 38 L 35.4 38 L 35.4 41.6 L 34.9 41.6 Z M 40 42.7 L 39.5 42.4 C 39.5 42.4 40.04 41.65 40 41.6 C 39.6 41.6 39.2 41.4 39 41 C 38.7 40.7 38.5 40.3 38.5 39.8 C 38.5 39.8 38.5 39.8 38.5 39.8 C 38.5 39.3 38.7 38.8 39.1 38.5 C 39.4 38.1 39.8 37.9 40.4 37.9 C 40.9 37.9 41.4 38.1 41.8 38.5 C 41.8 38.5 41.5 38.9 41.5 38.9 C 41.1 38.6 40.8 38.4 40.4 38.4 C 40 38.4 39.7 38.5 39.4 38.8 C 39.2 39.1 39.1 39.4 39.1 39.8 C 39.1 39.8 39.1 39.8 39.1 39.8 C 39.1 40.2 39.2 40.5 39.5 40.8 C 39.7 41.1 40 41.2 40.4 41.2 C 40.8 41.2 41.2 41 41.5 40.7 C 41.5 40.7 41.9 41 41.9 41 C 41.5 41.4 41 41.7 40.5 41.7 C 40.48 41.68 40 42.7 40 42.7 Z M 45.8 41 C 45.4 41.5 44.9 41.7 44.3 41.7 C 43.8 41.7 43.4 41.5 43 41.2 C 42.7 40.8 42.5 40.4 42.5 39.8 C 42.5 39.8 42.5 39.8 42.5 39.8 C 42.5 39.3 42.7 38.8 43 38.4 C 43.3 38.1 43.8 37.9 44.3 37.9 C 44.8 37.9 45.2 38.1 45.5 38.4 C 45.8 38.8 45.9 39.3 45.9 39.8 C 45.9 39.9 45.9 39.9 45.9 40 C 45.9 40 43.1 40 43.1 40 C 43.1 40.4 43.2 40.7 43.5 40.9 C 43.7 41.1 44 41.2 44.3 41.2 C 44.8 41.2 45.1 41 45.5 40.7 C 45.48 40.7 45.8 41 45.8 41 C 45.8 41 45.81 41 45.8 41 Z M 43.1 39.6 C 43.1 39.6 45.4 39.6 45.4 39.6 C 45.4 39.2 45.3 38.9 45.1 38.7 C 44.9 38.5 44.6 38.4 44.2 38.4 C 43.9 38.4 43.7 38.5 43.4 38.7 C 43.2 38.9 43.1 39.2 43.1 39.6 Z M 46.9 41.6 L 46.9 36.5 L 47.5 36.5 L 47.5 41.6 L 46.9 41.6 Z M 48.7 37.2 L 48.7 36.6 L 49.4 36.6 L 49.4 37.2 L 48.7 37.2 Z M 48.8 41.6 L 48.8 38 L 49.3 38 L 49.3 41.6 L 48.8 41.6 Z M 50.6 41.6 L 50.6 36.5 L 51.1 36.5 L 51.1 40 L 53.1 38 L 53.7 38 L 52.2 39.5 L 53.8 41.6 L 53.1 41.6 L 51.8 39.9 L 51.1 40.7 L 51.1 41.6 L 50.6 41.6 Z " stroke="none" fill="#000"/>  </g>  <g id="Polygon81705">    <path d="M 0.7 32.6 L 0.7 27.7 L 1.3 27.7 L 3 30.4 L 4.8 27.7 L 5.4 27.7 L 5.4 32.6 L 4.8 32.6 L 4.8 28.6 L 3 31.3 L 3 31.3 L 1.2 28.6 L 1.2 32.6 L 0.7 32.6 Z M 9.1 32.1 C 8.7 32.5 8.3 32.7 7.8 32.7 C 7.4 32.7 7.1 32.6 6.8 32.4 C 6.5 32.2 6.4 31.9 6.4 31.5 C 6.4 31.5 6.4 31.5 6.4 31.5 C 6.4 31.2 6.5 30.9 6.8 30.7 C 7.1 30.5 7.5 30.4 8 30.4 C 8.3 30.4 8.7 30.4 9.1 30.5 C 9.1 30.5 9.1 30.4 9.1 30.4 C 9.1 30.1 9 29.8 8.8 29.7 C 8.6 29.5 8.3 29.4 8 29.4 C 7.6 29.4 7.3 29.5 6.9 29.7 C 6.9 29.7 6.7 29.2 6.7 29.2 C 7.2 29 7.6 28.9 8 28.9 C 8.6 28.9 8.9 29.1 9.2 29.3 C 9.5 29.6 9.6 29.9 9.6 30.4 C 9.58 30.39 9.6 32.6 9.6 32.6 L 9.1 32.6 L 9.1 32.1 C 9.1 32.1 9.06 32.05 9.1 32.1 Z M 7.9 32.2 C 8.2 32.2 8.5 32.2 8.7 32 C 9 31.8 9.1 31.6 9.1 31.3 C 9.1 31.3 9.1 30.9 9.1 30.9 C 8.7 30.8 8.4 30.8 8 30.8 C 7.7 30.8 7.4 30.8 7.2 31 C 7 31.1 7 31.3 7 31.5 C 7 31.5 7 31.5 7 31.5 C 7 31.7 7 31.9 7.2 32.1 C 7.4 32.2 7.6 32.2 7.9 32.2 Z M 10.8 32.6 L 10.8 27.5 L 11.3 27.5 L 11.3 32.6 L 10.8 32.6 Z M 12.4 32.6 L 12.4 32.3 L 14.8 29.4 L 12.4 29.4 L 12.4 29 L 15.5 29 L 15.5 29.3 L 13.1 32.1 L 15.5 32.1 L 15.5 32.6 L 12.4 32.6 Z M 19.5 32 C 19.1 32.5 18.6 32.7 18 32.7 C 17.5 32.7 17.1 32.5 16.8 32.2 C 16.4 31.8 16.2 31.4 16.2 30.8 C 16.2 30.8 16.2 30.8 16.2 30.8 C 16.2 30.3 16.4 29.8 16.7 29.4 C 17.1 29.1 17.5 28.9 18 28.9 C 18.5 28.9 18.9 29.1 19.2 29.4 C 19.5 29.8 19.7 30.3 19.7 30.8 C 19.7 30.9 19.7 30.9 19.7 31 C 19.7 31 16.8 31 16.8 31 C 16.8 31.4 17 31.7 17.2 31.9 C 17.4 32.1 17.7 32.2 18.1 32.2 C 18.5 32.2 18.9 32 19.2 31.7 C 19.2 31.7 19.5 32 19.5 32 C 19.5 32 19.54 32 19.5 32 Z M 16.8 30.6 C 16.8 30.6 19.1 30.6 19.1 30.6 C 19.1 30.2 19 29.9 18.8 29.7 C 18.6 29.5 18.3 29.4 18 29.4 C 17.6 29.4 17.4 29.5 17.2 29.7 C 17 29.9 16.8 30.2 16.8 30.6 Z M 20.6 32.6 L 20.6 29 L 21.1 29 C 21.1 29 21.15 29.59 21.1 29.6 C 21.3 29.4 21.5 29.2 21.6 29.1 C 21.8 29 22 28.9 22.3 28.9 C 22.9 28.9 23.2 29.1 23.5 29.6 C 23.8 29.1 24.2 28.9 24.8 28.9 C 25.2 28.9 25.5 29 25.7 29.3 C 26 29.6 26.1 29.9 26.1 30.4 C 26.1 30.36 26.1 32.6 26.1 32.6 L 25.6 32.6 C 25.6 32.6 25.56 30.49 25.6 30.5 C 25.6 30.1 25.5 29.9 25.3 29.7 C 25.1 29.5 24.9 29.4 24.6 29.4 C 24.3 29.4 24.1 29.5 23.9 29.7 C 23.7 29.9 23.6 30.2 23.6 30.5 C 23.62 30.51 23.6 32.6 23.6 32.6 L 23.1 32.6 C 23.1 32.6 23.09 30.47 23.1 30.5 C 23.1 30.1 23 29.9 22.8 29.7 C 22.7 29.5 22.4 29.4 22.2 29.4 C 21.9 29.4 21.6 29.5 21.4 29.7 C 21.2 29.9 21.1 30.2 21.1 30.5 C 21.15 30.53 21.1 32.6 21.1 32.6 L 20.6 32.6 Z M 30.3 32 C 29.9 32.5 29.4 32.7 28.8 32.7 C 28.3 32.7 27.9 32.5 27.5 32.2 C 27.2 31.8 27 31.4 27 30.8 C 27 30.8 27 30.8 27 30.8 C 27 30.3 27.2 29.8 27.5 29.4 C 27.8 29.1 28.3 28.9 28.8 28.9 C 29.3 28.9 29.7 29.1 30 29.4 C 30.3 29.8 30.4 30.3 30.4 30.8 C 30.4 30.9 30.4 30.9 30.4 31 C 30.4 31 27.6 31 27.6 31 C 27.6 31.4 27.7 31.7 28 31.9 C 28.2 32.1 28.5 32.2 28.8 32.2 C 29.3 32.2 29.6 32 30 31.7 C 29.98 31.7 30.3 32 30.3 32 C 30.3 32 30.32 32 30.3 32 Z M 27.6 30.6 C 27.6 30.6 29.9 30.6 29.9 30.6 C 29.9 30.2 29.8 29.9 29.6 29.7 C 29.4 29.5 29.1 29.4 28.7 29.4 C 28.4 29.4 28.2 29.5 27.9 29.7 C 27.7 29.9 27.6 30.2 27.6 30.6 Z M 31.4 29.7 L 31.4 29 L 32 29 L 32 29.7 L 31.4 29.7 Z M 31.4 32.6 L 31.4 31.9 L 32 31.9 L 32 32.6 L 31.4 32.6 Z " stroke="none" fill="#000"/>  </g>  <g id="Polygon81704">    <path d="M 0.7 23.6 L 0.7 18.7 C 0.7 18.7 2.8 18.7 2.8 18.7 C 3.4 18.7 3.9 18.9 4.2 19.2 C 4.4 19.4 4.6 19.8 4.6 20.2 C 4.6 20.2 4.6 20.2 4.6 20.2 C 4.6 20.6 4.4 20.9 4.2 21.1 C 4 21.4 3.6 21.5 3.2 21.6 C 3.24 21.6 4.7 23.6 4.7 23.6 L 4.1 23.6 L 2.6 21.7 L 1.2 21.7 L 1.2 23.6 L 0.7 23.6 Z M 1.2 21.2 C 1.2 21.2 2.75 21.2 2.8 21.2 C 3.1 21.2 3.4 21.1 3.7 20.9 C 3.9 20.7 4 20.5 4 20.2 C 4 20.2 4 20.2 4 20.2 C 4 19.9 3.9 19.6 3.7 19.5 C 3.5 19.3 3.2 19.2 2.8 19.2 C 2.76 19.21 1.2 19.2 1.2 19.2 L 1.2 21.2 Z M 8.7 23 C 8.3 23.5 7.8 23.7 7.2 23.7 C 6.7 23.7 6.3 23.5 6 23.2 C 5.6 22.8 5.4 22.4 5.4 21.8 C 5.4 21.8 5.4 21.8 5.4 21.8 C 5.4 21.3 5.6 20.8 5.9 20.4 C 6.3 20.1 6.7 19.9 7.2 19.9 C 7.7 19.9 8.1 20.1 8.4 20.4 C 8.7 20.8 8.9 21.3 8.9 21.8 C 8.9 21.9 8.9 21.9 8.9 22 C 8.9 22 6 22 6 22 C 6 22.4 6.2 22.7 6.4 22.9 C 6.6 23.1 6.9 23.2 7.3 23.2 C 7.7 23.2 8.1 23 8.4 22.7 C 8.4 22.7 8.7 23 8.7 23 C 8.7 23 8.74 23 8.7 23 Z M 6 21.6 C 6 21.6 8.3 21.6 8.3 21.6 C 8.3 21.2 8.2 20.9 8 20.7 C 7.8 20.5 7.5 20.4 7.2 20.4 C 6.8 20.4 6.6 20.5 6.4 20.7 C 6.1 20.9 6 21.2 6 21.6 Z M 9.8 23.6 L 9.8 20 L 10.3 20 C 10.3 20 10.35 20.61 10.3 20.6 C 10.6 20.1 11.1 19.9 11.6 19.9 C 12 19.9 12.4 20 12.6 20.3 C 12.8 20.6 13 20.9 13 21.4 C 12.97 21.35 13 23.6 13 23.6 L 12.4 23.6 C 12.4 23.6 12.43 21.49 12.4 21.5 C 12.4 21.1 12.3 20.9 12.2 20.7 C 12 20.5 11.7 20.4 11.4 20.4 C 11.1 20.4 10.9 20.5 10.7 20.7 C 10.4 20.9 10.3 21.2 10.3 21.5 C 10.35 21.53 10.3 23.6 10.3 23.6 L 9.8 23.6 Z M 14.1 23.6 L 14.1 18.5 L 14.7 18.5 L 14.7 22 L 16.6 20 L 17.3 20 L 15.8 21.5 L 17.3 23.6 L 16.7 23.6 L 15.4 21.9 L 14.7 22.7 L 14.7 23.6 L 14.1 23.6 Z M 18.1 20.7 L 18.1 20 L 18.7 20 L 18.7 20.7 L 18.1 20.7 Z M 18.1 23.6 L 18.1 22.9 L 18.7 22.9 L 18.7 23.6 L 18.1 23.6 Z M 23.3 23.6 L 23.3 19.2 L 21.7 19.2 L 21.7 18.7 L 25.5 18.7 L 25.5 19.2 L 23.9 19.2 L 23.9 23.6 L 23.3 23.6 Z M 28.9 23.1 C 28.5 23.5 28.1 23.7 27.5 23.7 C 27.2 23.7 26.9 23.6 26.6 23.4 C 26.3 23.2 26.2 22.9 26.2 22.5 C 26.2 22.5 26.2 22.5 26.2 22.5 C 26.2 22.2 26.3 21.9 26.6 21.7 C 26.9 21.5 27.3 21.4 27.7 21.4 C 28.1 21.4 28.5 21.4 28.9 21.5 C 28.9 21.5 28.9 21.4 28.9 21.4 C 28.9 21.1 28.8 20.8 28.6 20.7 C 28.4 20.5 28.1 20.4 27.8 20.4 C 27.4 20.4 27 20.5 26.7 20.7 C 26.7 20.7 26.5 20.2 26.5 20.2 C 26.9 20 27.4 19.9 27.8 19.9 C 28.3 19.9 28.7 20.1 29 20.3 C 29.2 20.6 29.4 20.9 29.4 21.4 C 29.37 21.39 29.4 23.6 29.4 23.6 L 28.9 23.6 L 28.9 23.1 C 28.9 23.1 28.85 23.05 28.9 23.1 Z M 27.6 23.2 C 28 23.2 28.3 23.2 28.5 23 C 28.7 22.8 28.9 22.6 28.9 22.3 C 28.9 22.3 28.9 21.9 28.9 21.9 C 28.5 21.8 28.1 21.8 27.8 21.8 C 27.5 21.8 27.2 21.8 27 22 C 26.8 22.1 26.7 22.3 26.7 22.5 C 26.7 22.5 26.7 22.5 26.7 22.5 C 26.7 22.7 26.8 22.9 27 23.1 C 27.2 23.2 27.4 23.2 27.6 23.2 Z M 33.1 23 C 32.8 23.4 32.4 23.7 31.8 23.7 C 31.4 23.7 31.1 23.5 30.8 23.3 C 30.6 23 30.5 22.7 30.5 22.2 C 30.46 22.23 30.5 20 30.5 20 L 31 20 C 31 20 31 22.09 31 22.1 C 31 22.4 31.1 22.7 31.3 22.9 C 31.4 23.1 31.7 23.2 32 23.2 C 32.3 23.2 32.6 23.1 32.8 22.9 C 33 22.7 33.1 22.4 33.1 22.1 C 33.09 22.05 33.1 20 33.1 20 L 33.6 20 L 33.6 23.6 L 33.1 23.6 L 33.1 23 C 33.1 23 33.09 22.97 33.1 23 Z M 34.8 24.7 L 34.8 20 L 35.4 20 C 35.4 20 35.37 20.71 35.4 20.7 C 35.7 20.2 36.2 19.9 36.8 19.9 C 37.2 19.9 37.6 20.1 38 20.4 C 38.3 20.8 38.5 21.2 38.5 21.8 C 38.5 21.8 38.5 21.8 38.5 21.8 C 38.5 22.4 38.3 22.8 38 23.2 C 37.6 23.5 37.2 23.7 36.8 23.7 C 36.2 23.7 35.7 23.4 35.4 22.9 C 35.37 22.91 35.4 24.7 35.4 24.7 L 34.8 24.7 Z M 36.7 23.2 C 37 23.2 37.3 23.1 37.6 22.8 C 37.8 22.6 37.9 22.2 37.9 21.8 C 37.9 21.8 37.9 21.8 37.9 21.8 C 37.9 21.4 37.8 21 37.6 20.8 C 37.3 20.5 37 20.4 36.7 20.4 C 36.3 20.4 36 20.5 35.7 20.8 C 35.5 21.1 35.3 21.4 35.3 21.8 C 35.3 21.8 35.3 21.8 35.3 21.8 C 35.3 22.2 35.5 22.5 35.7 22.8 C 36 23.1 36.3 23.2 36.7 23.2 Z M 42.6 23 C 42.2 23.5 41.7 23.7 41.1 23.7 C 40.6 23.7 40.1 23.5 39.8 23.2 C 39.4 22.8 39.3 22.4 39.3 21.8 C 39.3 21.8 39.3 21.8 39.3 21.8 C 39.3 21.3 39.4 20.8 39.7 20.4 C 40.1 20.1 40.5 19.9 41 19.9 C 41.5 19.9 41.9 20.1 42.2 20.4 C 42.5 20.8 42.7 21.3 42.7 21.8 C 42.7 21.9 42.7 21.9 42.7 22 C 42.7 22 39.8 22 39.8 22 C 39.8 22.4 40 22.7 40.2 22.9 C 40.5 23.1 40.7 23.2 41.1 23.2 C 41.5 23.2 41.9 23 42.2 22.7 C 42.22 22.7 42.6 23 42.6 23 C 42.6 23 42.55 23 42.6 23 Z M 39.8 21.6 C 39.8 21.6 42.1 21.6 42.1 21.6 C 42.1 21.2 42 20.9 41.8 20.7 C 41.6 20.5 41.3 20.4 41 20.4 C 40.7 20.4 40.4 20.5 40.2 20.7 C 40 20.9 39.8 21.2 39.8 21.6 Z " stroke="none" fill="#000"/>  </g>  <g id="Polygon81703">    <path d="M 3 9.3 L 3 8.6 L 3.6 8.6 L 3.6 9.3 L 3 9.3 Z M 1.7 9.3 L 1.7 8.6 L 2.3 8.6 L 2.3 9.3 L 1.7 9.3 Z M 2.7 14.7 C 2 14.7 1.5 14.5 1.2 14.1 C 0.8 13.7 0.6 13.2 0.6 12.5 C 0.62 12.55 0.6 9.7 0.6 9.7 L 1.2 9.7 C 1.2 9.7 1.17 12.51 1.2 12.5 C 1.2 13 1.3 13.4 1.6 13.7 C 1.8 14 2.2 14.2 2.7 14.2 C 3.1 14.2 3.5 14 3.8 13.8 C 4 13.5 4.1 13.1 4.1 12.5 C 4.14 12.55 4.1 9.7 4.1 9.7 L 4.7 9.7 C 4.7 9.7 4.7 12.51 4.7 12.5 C 4.7 13.2 4.5 13.7 4.1 14.1 C 3.8 14.5 3.3 14.7 2.7 14.7 Z M 5.9 14.6 L 5.9 11 L 6.5 11 C 6.5 11 6.45 11.93 6.5 11.9 C 6.6 11.6 6.8 11.4 7 11.2 C 7.3 11 7.6 10.9 7.9 10.9 C 7.93 10.92 7.9 11.5 7.9 11.5 C 7.9 11.5 7.89 11.5 7.9 11.5 C 7.5 11.5 7.1 11.6 6.9 11.9 C 6.6 12.2 6.5 12.6 6.5 13.2 C 6.45 13.16 6.5 14.6 6.5 14.6 L 5.9 14.6 Z M 10.6 10.4 L 10.6 9.8 L 11.2 9.8 L 11.2 10.4 L 10.6 10.4 Z M 9.3 10.4 L 9.3 9.8 L 10 9.8 L 10 10.4 L 9.3 10.4 Z M 11.3 14 C 11 14.4 10.6 14.7 10.1 14.7 C 9.7 14.7 9.3 14.5 9.1 14.3 C 8.8 14 8.7 13.7 8.7 13.2 C 8.69 13.23 8.7 11 8.7 11 L 9.2 11 C 9.2 11 9.23 13.09 9.2 13.1 C 9.2 13.4 9.3 13.7 9.5 13.9 C 9.7 14.1 9.9 14.2 10.2 14.2 C 10.5 14.2 10.8 14.1 11 13.9 C 11.2 13.7 11.3 13.4 11.3 13.1 C 11.32 13.05 11.3 11 11.3 11 L 11.9 11 L 11.9 14.6 L 11.3 14.6 L 11.3 14 C 11.3 14 11.32 13.97 11.3 14 Z M 13.1 14.6 L 13.1 11 L 13.6 11 C 13.6 11 13.6 11.61 13.6 11.6 C 13.9 11.1 14.3 10.9 14.8 10.9 C 15.3 10.9 15.6 11 15.9 11.3 C 16.1 11.6 16.2 11.9 16.2 12.4 C 16.23 12.35 16.2 14.6 16.2 14.6 L 15.7 14.6 C 15.7 14.6 15.69 12.49 15.7 12.5 C 15.7 12.1 15.6 11.9 15.4 11.7 C 15.2 11.5 15 11.4 14.7 11.4 C 14.4 11.4 14.1 11.5 13.9 11.7 C 13.7 11.9 13.6 12.2 13.6 12.5 C 13.6 12.53 13.6 14.6 13.6 14.6 L 13.1 14.6 Z M 19.6 14.6 L 19.6 9.7 L 20.1 9.7 L 20.1 12.6 L 22.9 9.7 L 23.7 9.7 L 21.5 11.8 L 23.7 14.6 L 23 14.6 L 21.2 12.2 L 20.1 13.3 L 20.1 14.6 L 19.6 14.6 Z M 26.2 14.7 C 25.6 14.7 25.2 14.5 24.8 14.1 C 24.5 13.8 24.3 13.3 24.3 12.8 C 24.3 12.8 24.3 12.8 24.3 12.8 C 24.3 12.3 24.5 11.8 24.8 11.5 C 25.2 11.1 25.6 10.9 26.2 10.9 C 26.7 10.9 27.2 11.1 27.5 11.5 C 27.9 11.8 28.1 12.3 28.1 12.8 C 28.1 12.8 28.1 12.8 28.1 12.8 C 28.1 13.3 27.9 13.8 27.5 14.1 C 27.2 14.5 26.7 14.7 26.2 14.7 Z M 26.2 14.2 C 26.6 14.2 26.9 14.1 27.1 13.8 C 27.4 13.5 27.5 13.2 27.5 12.8 C 27.5 12.8 27.5 12.8 27.5 12.8 C 27.5 12.4 27.4 12.1 27.1 11.8 C 26.9 11.5 26.5 11.4 26.2 11.4 C 25.8 11.4 25.5 11.5 25.2 11.8 C 25 12.1 24.8 12.4 24.8 12.8 C 24.8 12.8 24.8 12.8 24.8 12.8 C 24.8 13.2 25 13.5 25.2 13.8 C 25.5 14.1 25.8 14.2 26.2 14.2 Z M 31.9 13.9 C 31.6 14.4 31.1 14.7 30.5 14.7 C 30.1 14.7 29.7 14.5 29.3 14.2 C 29 13.8 28.8 13.4 28.8 12.8 C 28.8 12.8 28.8 12.8 28.8 12.8 C 28.8 12.2 29 11.8 29.3 11.4 C 29.7 11.1 30.1 10.9 30.5 10.9 C 31.1 10.9 31.6 11.2 31.9 11.7 C 31.93 11.67 31.9 9.5 31.9 9.5 L 32.5 9.5 L 32.5 14.6 L 31.9 14.6 L 31.9 13.9 C 31.9 13.9 31.93 13.87 31.9 13.9 Z M 30.6 14.2 C 31 14.2 31.3 14.1 31.6 13.8 C 31.8 13.5 32 13.2 32 12.8 C 32 12.8 32 12.8 32 12.8 C 32 12.4 31.8 12 31.6 11.8 C 31.3 11.5 31 11.4 30.6 11.4 C 30.3 11.4 30 11.5 29.7 11.8 C 29.5 12 29.4 12.4 29.4 12.8 C 29.4 12.8 29.4 12.8 29.4 12.8 C 29.4 13.2 29.5 13.6 29.7 13.8 C 30 14.1 30.3 14.2 30.6 14.2 Z M 36.2 14 C 36 14.4 35.5 14.7 35 14.7 C 34.6 14.7 34.2 14.5 34 14.3 C 33.7 14 33.6 13.7 33.6 13.2 C 33.62 13.23 33.6 11 33.6 11 L 34.2 11 C 34.2 11 34.16 13.09 34.2 13.1 C 34.2 13.4 34.2 13.7 34.4 13.9 C 34.6 14.1 34.8 14.2 35.2 14.2 C 35.5 14.2 35.7 14.1 35.9 13.9 C 36.1 13.7 36.2 13.4 36.2 13.1 C 36.25 13.05 36.2 11 36.2 11 L 36.8 11 L 36.8 14.6 L 36.2 14.6 L 36.2 14 C 36.2 14 36.25 13.97 36.2 14 Z M 38 11.7 L 38 11 L 38.6 11 L 38.6 11.7 L 38 11.7 Z M 38 14.6 L 38 13.9 L 38.6 13.9 L 38.6 14.6 L 38 14.6 Z M 41.6 14.6 L 41.6 13.7 C 41.6 13.7 43.24 12.41 43.2 12.4 C 43.6 12.1 43.8 11.9 43.9 11.8 C 44 11.6 44.1 11.4 44.1 11.2 C 44.1 11 44 10.9 43.9 10.8 C 43.8 10.7 43.6 10.6 43.4 10.6 C 43.2 10.6 43.1 10.6 42.9 10.7 C 42.8 10.8 42.6 11 42.4 11.3 C 42.4 11.3 41.7 10.6 41.7 10.6 C 41.9 10.3 42.2 10 42.5 9.9 C 42.7 9.7 43.1 9.6 43.5 9.6 C 44 9.6 44.4 9.8 44.7 10 C 45 10.3 45.2 10.7 45.2 11.1 C 45.2 11.1 45.2 11.2 45.2 11.2 C 45.2 11.5 45.1 11.9 44.9 12.1 C 44.7 12.4 44.4 12.7 43.9 13.1 C 43.9 13.05 43.1 13.7 43.1 13.7 L 45.2 13.7 L 45.2 14.6 L 41.6 14.6 Z M 47.8 14.7 C 47.3 14.7 46.8 14.5 46.5 14.3 C 46.1 14 45.9 13.7 45.9 13.3 C 45.9 13.3 45.9 13.2 45.9 13.2 C 45.9 13 46 12.7 46.1 12.5 C 46.3 12.3 46.5 12.2 46.7 12.1 C 46.3 11.8 46.1 11.5 46.1 11 C 46.1 11 46.1 11 46.1 11 C 46.1 10.6 46.3 10.3 46.6 10 C 46.9 9.8 47.3 9.6 47.8 9.6 C 48.3 9.6 48.8 9.8 49.1 10 C 49.4 10.3 49.6 10.6 49.6 11 C 49.6 11 49.6 11 49.6 11 C 49.6 11.5 49.3 11.8 48.9 12.1 C 49.2 12.2 49.4 12.4 49.5 12.5 C 49.7 12.7 49.7 12.9 49.7 13.2 C 49.7 13.2 49.7 13.2 49.7 13.2 C 49.7 13.7 49.5 14 49.2 14.3 C 48.8 14.5 48.4 14.7 47.8 14.7 Z M 47.1 11.1 C 47.1 11.3 47.2 11.4 47.3 11.5 C 47.5 11.6 47.6 11.7 47.8 11.7 C 48 11.7 48.2 11.6 48.3 11.5 C 48.5 11.4 48.5 11.3 48.5 11.1 C 48.5 11.1 48.5 11.1 48.5 11.1 C 48.5 10.9 48.5 10.8 48.3 10.7 C 48.2 10.6 48 10.5 47.8 10.5 C 47.6 10.5 47.4 10.6 47.3 10.7 C 47.2 10.8 47.1 10.9 47.1 11.1 C 47.13 11.09 47.1 11.1 47.1 11.1 C 47.1 11.1 47.13 11.1 47.1 11.1 Z M 47.8 13.8 C 48.1 13.8 48.3 13.7 48.4 13.6 C 48.6 13.5 48.7 13.3 48.7 13.2 C 48.7 13.2 48.7 13.2 48.7 13.2 C 48.7 13 48.6 12.8 48.4 12.7 C 48.3 12.6 48.1 12.6 47.8 12.6 C 47.6 12.6 47.4 12.6 47.2 12.7 C 47.1 12.8 47 13 47 13.2 C 47 13.2 47 13.2 47 13.2 C 47 13.3 47.1 13.5 47.2 13.6 C 47.4 13.7 47.6 13.8 47.8 13.8 Z M 50.4 14.6 L 50.4 13.7 C 50.4 13.7 52.01 12.41 52 12.4 C 52.3 12.1 52.6 11.9 52.7 11.8 C 52.8 11.6 52.9 11.4 52.9 11.2 C 52.9 11 52.8 10.9 52.7 10.8 C 52.6 10.7 52.4 10.6 52.2 10.6 C 52 10.6 51.9 10.6 51.7 10.7 C 51.6 10.8 51.4 11 51.2 11.3 C 51.2 11.3 50.4 10.6 50.4 10.6 C 50.7 10.3 51 10 51.2 9.9 C 51.5 9.7 51.9 9.6 52.3 9.6 C 52.8 9.6 53.2 9.8 53.5 10 C 53.8 10.3 54 10.7 54 11.1 C 54 11.1 54 11.2 54 11.2 C 54 11.5 53.9 11.9 53.7 12.1 C 53.5 12.4 53.2 12.7 52.7 13.1 C 52.67 13.05 51.9 13.7 51.9 13.7 L 54 13.7 L 54 14.6 L 50.4 14.6 Z M 56.8 14.7 C 56.2 14.7 55.7 14.5 55.4 14.2 C 55 13.8 54.8 13.2 54.8 12.3 C 54.8 12.3 54.8 12.3 54.8 12.3 C 54.8 11.5 55 10.9 55.3 10.4 C 55.7 9.9 56.2 9.6 56.9 9.6 C 57.5 9.6 58 9.8 58.5 10.2 C 58.5 10.2 57.9 11 57.9 11 C 57.7 10.9 57.6 10.8 57.4 10.7 C 57.3 10.6 57.1 10.6 56.9 10.6 C 56.7 10.6 56.6 10.6 56.4 10.7 C 56.3 10.8 56.2 10.9 56.1 11 C 56.1 11.1 56 11.3 56 11.4 C 55.9 11.5 55.9 11.6 55.9 11.7 C 56.2 11.5 56.6 11.4 56.9 11.4 C 57.4 11.4 57.8 11.6 58.2 11.8 C 58.5 12.1 58.6 12.5 58.6 13 C 58.6 13 58.6 13 58.6 13 C 58.6 13.5 58.5 13.9 58.1 14.2 C 57.8 14.5 57.3 14.7 56.8 14.7 Z M 55.9 13 C 55.9 13.2 56 13.4 56.1 13.6 C 56.3 13.7 56.5 13.8 56.7 13.8 C 57 13.8 57.2 13.7 57.3 13.6 C 57.5 13.4 57.6 13.3 57.6 13 C 57.6 13 57.6 13 57.6 13 C 57.6 12.8 57.5 12.6 57.3 12.5 C 57.2 12.4 57 12.3 56.7 12.3 C 56.5 12.3 56.2 12.4 56.1 12.5 C 55.9 12.6 55.9 12.8 55.9 13 C 55.87 13.02 55.9 13 55.9 13 C 55.9 13 55.87 13.03 55.9 13 Z M 60.3 14.6 L 60.3 10.8 L 59.4 11 L 59.2 10.1 L 60.6 9.7 L 61.3 9.7 L 61.3 14.6 L 60.3 14.6 Z " stroke="none" fill="#000"/>  </g>  <g id="Polygon81702">    <path d="M 2.3 5.7 C 1.5 5.7 0.8 5.4 0.3 4.9 C 0.3 4.9 0.9 4.1 0.9 4.1 C 1.4 4.5 1.9 4.7 2.4 4.7 C 2.6 4.7 2.7 4.7 2.9 4.6 C 3 4.5 3.1 4.4 3.1 4.3 C 3.1 4.3 3.1 4.2 3.1 4.2 C 3.1 4.1 3 4 2.9 3.9 C 2.7 3.8 2.5 3.7 2.1 3.6 C 1.8 3.5 1.6 3.5 1.4 3.4 C 1.2 3.3 1.1 3.3 0.9 3.1 C 0.7 3 0.6 2.9 0.6 2.7 C 0.5 2.6 0.4 2.4 0.4 2.1 C 0.4 2.1 0.4 2.1 0.4 2.1 C 0.4 1.7 0.6 1.3 0.9 1 C 1.2 0.8 1.7 0.6 2.2 0.6 C 2.9 0.6 3.5 0.8 4 1.3 C 4 1.3 3.4 2.1 3.4 2.1 C 3 1.7 2.5 1.6 2.1 1.6 C 1.9 1.6 1.8 1.6 1.7 1.7 C 1.6 1.8 1.5 1.9 1.5 2 C 1.5 2 1.5 2 1.5 2 C 1.5 2.2 1.6 2.3 1.7 2.4 C 1.9 2.5 2.1 2.6 2.6 2.7 C 3.1 2.8 3.5 3 3.8 3.2 C 4 3.4 4.1 3.7 4.1 4.1 C 4.1 4.1 4.1 4.2 4.1 4.2 C 4.1 4.6 4 5 3.6 5.3 C 3.3 5.5 2.9 5.7 2.3 5.7 Z M 8.3 5 C 7.9 5.5 7.4 5.7 6.7 5.7 C 6.2 5.7 5.7 5.5 5.3 5.1 C 5 4.8 4.8 4.3 4.8 3.7 C 4.8 3.7 4.8 3.7 4.8 3.7 C 4.8 3.2 4.9 2.7 5.3 2.3 C 5.6 2 6.1 1.8 6.6 1.8 C 7.2 1.8 7.7 2 8 2.4 C 8.3 2.8 8.5 3.2 8.5 3.8 C 8.5 3.9 8.5 4 8.4 4.1 C 8.4 4.1 5.8 4.1 5.8 4.1 C 5.9 4.3 6 4.5 6.1 4.6 C 6.3 4.8 6.5 4.8 6.7 4.8 C 7.1 4.8 7.4 4.7 7.7 4.4 C 7.66 4.44 8.3 5 8.3 5 C 8.3 5 8.27 4.98 8.3 5 Z M 5.8 3.4 C 5.8 3.4 7.4 3.4 7.4 3.4 C 7.4 3.2 7.3 3 7.2 2.8 C 7 2.7 6.8 2.6 6.6 2.6 C 6.4 2.6 6.2 2.7 6.1 2.8 C 5.9 3 5.9 3.2 5.8 3.4 Z M 9.2 6.7 L 9.2 1.8 L 10.3 1.8 C 10.3 1.8 10.31 2.39 10.3 2.4 C 10.6 2 11 1.8 11.5 1.8 C 11.9 1.8 12.3 2 12.7 2.3 C 13 2.6 13.2 3.1 13.2 3.7 C 13.2 3.7 13.2 3.7 13.2 3.7 C 13.2 4.3 13 4.8 12.7 5.1 C 12.4 5.5 12 5.7 11.5 5.7 C 11 5.7 10.6 5.5 10.3 5.1 C 10.31 5.11 10.3 6.7 10.3 6.7 L 9.2 6.7 Z M 10.3 3.7 C 10.3 4 10.4 4.3 10.6 4.5 C 10.7 4.7 11 4.8 11.2 4.8 C 11.5 4.8 11.7 4.7 11.9 4.5 C 12 4.3 12.1 4 12.1 3.7 C 12.1 3.7 12.1 3.7 12.1 3.7 C 12.1 3.4 12 3.2 11.9 3 C 11.7 2.8 11.5 2.7 11.2 2.7 C 11 2.7 10.7 2.8 10.6 3 C 10.4 3.2 10.3 3.4 10.3 3.7 C 10.3 3.72 10.3 3.7 10.3 3.7 C 10.3 3.7 10.3 3.73 10.3 3.7 Z M 17.3 5 C 16.9 5.5 16.4 5.7 15.7 5.7 C 15.2 5.7 14.7 5.5 14.3 5.1 C 14 4.8 13.8 4.3 13.8 3.7 C 13.8 3.7 13.8 3.7 13.8 3.7 C 13.8 3.2 14 2.7 14.3 2.3 C 14.7 2 15.1 1.8 15.6 1.8 C 16.2 1.8 16.7 2 17 2.4 C 17.3 2.8 17.5 3.2 17.5 3.8 C 17.5 3.9 17.5 4 17.5 4.1 C 17.5 4.1 14.8 4.1 14.8 4.1 C 14.9 4.3 15 4.5 15.2 4.6 C 15.3 4.8 15.5 4.8 15.8 4.8 C 16.1 4.8 16.4 4.7 16.7 4.4 C 16.67 4.44 17.3 5 17.3 5 C 17.3 5 17.28 4.98 17.3 5 Z M 14.8 3.4 C 14.8 3.4 16.4 3.4 16.4 3.4 C 16.4 3.2 16.3 3 16.2 2.8 C 16 2.7 15.9 2.6 15.6 2.6 C 15.4 2.6 15.2 2.7 15.1 2.8 C 15 3 14.9 3.2 14.8 3.4 Z M 20.4 5.4 C 20.1 5.6 19.8 5.7 19.5 5.7 C 19.2 5.7 18.9 5.6 18.7 5.4 C 18.5 5.2 18.4 4.9 18.4 4.5 C 18.44 4.54 18.4 2.8 18.4 2.8 L 18 2.8 L 18 1.8 L 18.4 1.8 L 18.4 0.9 L 19.5 0.9 L 19.5 1.8 L 20.4 1.8 L 20.4 2.8 L 19.5 2.8 C 19.5 2.8 19.5 4.36 19.5 4.4 C 19.5 4.6 19.6 4.7 19.8 4.7 C 20 4.7 20.2 4.7 20.4 4.6 C 20.37 4.59 20.4 5.4 20.4 5.4 C 20.4 5.4 20.37 5.45 20.4 5.4 Z M 23.1 3.9 L 23.1 2.9 L 26.1 2.9 L 26.1 3.9 L 23.1 3.9 Z M 29.2 5.6 L 29.2 0.7 L 30.3 0.7 L 30.3 5.6 L 29.2 5.6 Z M 31.4 5.6 L 31.4 1.8 L 32.5 1.8 C 32.5 1.8 32.48 2.38 32.5 2.4 C 32.8 2 33.2 1.8 33.6 1.8 C 34 1.8 34.3 1.9 34.5 2.1 C 34.7 2.4 34.9 2.7 34.9 3.2 C 34.85 3.17 34.9 5.6 34.9 5.6 L 33.8 5.6 C 33.8 5.6 33.79 3.51 33.8 3.5 C 33.8 3 33.6 2.7 33.1 2.7 C 32.9 2.7 32.8 2.8 32.7 2.9 C 32.5 3.1 32.5 3.3 32.5 3.5 C 32.48 3.51 32.5 5.6 32.5 5.6 L 31.4 5.6 Z M 38.1 5.1 C 37.8 5.5 37.4 5.7 37 5.7 C 36.6 5.7 36.3 5.5 36.1 5.3 C 35.9 5.1 35.7 4.7 35.7 4.3 C 35.75 4.28 35.7 1.8 35.7 1.8 L 36.8 1.8 C 36.8 1.8 36.81 3.94 36.8 3.9 C 36.8 4.4 37 4.7 37.5 4.7 C 37.7 4.7 37.8 4.6 37.9 4.5 C 38.1 4.4 38.1 4.2 38.1 3.9 C 38.12 3.94 38.1 1.8 38.1 1.8 L 39.2 1.8 L 39.2 5.6 L 38.1 5.6 L 38.1 5.1 C 38.1 5.1 38.12 5.07 38.1 5.1 Z " stroke="none" fill="#000"/>  </g></svg>