<?xml version="1.0" standalone="no"?><!DOCTYPE svg PUBLIC "-//W3C//DTD SVG 1.1//EN" "http://www.w3.org/Graphics/SVG/1.1/DTD/svg11.dtd"><svg xmlns="http://www.w3.org/2000/svg" version="1.1" width="69.5px" height="21px" viewBox="0 -1 69.5 21" style="top:-1px">  <desc>₺4.327,59</desc>  <defs/>  <g id="Polygon71210">    <path d="M 2.7 4.1 L 2.7 12.7 L 1.6 12.7 L 1.6 4.1 L 2.7 4.1 Z M 5 8.1 L 6.2 8.1 C 6.2 8.1 6.16 8.66 6.2 8.7 C 6.2 9.3 6.1 9.9 5.9 10.4 C 5.8 10.9 5.5 11.3 5.2 11.7 C 4.9 12 4.6 12.3 4.1 12.5 C 3.7 12.7 3.2 12.8 2.7 12.8 C 2.5 12.8 2.4 12.8 2.2 12.7 C 2 12.7 1.8 12.7 1.6 12.7 C 1.6 12.7 2.7 11.8 2.7 11.8 C 3.1 11.8 3.4 11.7 3.7 11.6 C 4 11.5 4.2 11.3 4.4 11 C 4.6 10.7 4.8 10.4 4.9 10 C 5 9.6 5 9.2 5 8.7 C 5.04 8.66 5 8.1 5 8.1 Z M 4.2 5 L 4.2 6 L 0.2 7.8 L 0.2 6.8 L 4.2 5 Z M 4.2 6.9 L 4.2 7.9 L 0.2 9.8 L 0.2 8.7 L 4.2 6.9 Z M 13.2 9.8 L 13.2 10.7 L 7 10.7 L 7 10 L 10.8 4.1 L 11.7 4.1 L 10.7 5.8 L 8.2 9.8 L 13.2 9.8 Z M 12 4.1 L 12 12.7 L 10.9 12.7 L 10.9 4.1 L 12 4.1 Z M 14.3 12.1 C 14.3 11.9 14.3 11.8 14.4 11.6 C 14.6 11.5 14.7 11.4 14.9 11.4 C 15.2 11.4 15.3 11.5 15.4 11.6 C 15.6 11.8 15.6 11.9 15.6 12.1 C 15.6 12.3 15.6 12.4 15.4 12.5 C 15.3 12.7 15.2 12.7 14.9 12.7 C 14.7 12.7 14.6 12.7 14.4 12.5 C 14.3 12.4 14.3 12.3 14.3 12.1 Z M 18.9 7.9 C 18.9 7.9 19.65 7.87 19.7 7.9 C 20 7.9 20.3 7.8 20.6 7.7 C 20.8 7.5 21 7.4 21.1 7.2 C 21.3 6.9 21.3 6.7 21.3 6.4 C 21.3 6.1 21.3 5.8 21.2 5.6 C 21.1 5.4 20.9 5.2 20.7 5.1 C 20.5 5 20.2 4.9 19.8 4.9 C 19.5 4.9 19.3 5 19 5.1 C 18.8 5.2 18.6 5.4 18.5 5.6 C 18.4 5.8 18.3 6.1 18.3 6.4 C 18.3 6.4 17.2 6.4 17.2 6.4 C 17.2 5.9 17.3 5.5 17.5 5.2 C 17.8 4.8 18.1 4.5 18.5 4.3 C 18.9 4.1 19.3 4 19.8 4 C 20.4 4 20.8 4.1 21.2 4.3 C 21.6 4.5 21.9 4.7 22.1 5.1 C 22.3 5.5 22.4 5.9 22.4 6.4 C 22.4 6.6 22.4 6.9 22.3 7.1 C 22.2 7.4 22 7.6 21.8 7.8 C 21.6 8 21.3 8.2 21 8.3 C 20.7 8.5 20.3 8.5 19.8 8.5 C 19.8 8.52 18.9 8.5 18.9 8.5 L 18.9 7.9 Z M 18.9 8.8 L 18.9 8.1 C 18.9 8.1 19.8 8.11 19.8 8.1 C 20.3 8.1 20.8 8.2 21.2 8.3 C 21.5 8.4 21.8 8.6 22 8.8 C 22.2 9 22.3 9.3 22.4 9.5 C 22.5 9.8 22.6 10 22.6 10.3 C 22.6 10.7 22.5 11 22.4 11.3 C 22.2 11.7 22 11.9 21.8 12.1 C 21.5 12.3 21.3 12.5 20.9 12.6 C 20.6 12.7 20.2 12.8 19.9 12.8 C 19.5 12.8 19.1 12.7 18.8 12.6 C 18.5 12.5 18.2 12.4 17.9 12.2 C 17.7 12 17.5 11.7 17.4 11.4 C 17.2 11.1 17.1 10.8 17.1 10.4 C 17.1 10.4 18.2 10.4 18.2 10.4 C 18.2 10.7 18.3 11 18.4 11.2 C 18.6 11.4 18.7 11.6 19 11.7 C 19.2 11.8 19.5 11.9 19.9 11.9 C 20.2 11.9 20.5 11.8 20.7 11.7 C 21 11.6 21.1 11.4 21.3 11.2 C 21.4 11 21.5 10.7 21.5 10.3 C 21.5 10 21.4 9.7 21.2 9.4 C 21.1 9.2 20.9 9 20.6 8.9 C 20.3 8.8 20 8.8 19.7 8.8 C 19.65 8.76 18.9 8.8 18.9 8.8 Z M 29.6 11.8 L 29.6 12.7 L 24 12.7 L 24 11.9 C 24 11.9 26.84 8.77 26.8 8.8 C 27.2 8.4 27.5 8.1 27.6 7.8 C 27.8 7.5 28 7.3 28 7.1 C 28.1 6.9 28.2 6.6 28.2 6.4 C 28.2 6.1 28.1 5.9 28 5.7 C 27.9 5.4 27.7 5.2 27.5 5.1 C 27.3 5 27 4.9 26.7 4.9 C 26.3 4.9 26 5 25.7 5.1 C 25.5 5.3 25.3 5.5 25.2 5.7 C 25 6 25 6.3 25 6.6 C 25 6.6 23.9 6.6 23.9 6.6 C 23.9 6.2 24 5.7 24.2 5.3 C 24.4 4.9 24.7 4.6 25.1 4.4 C 25.6 4.1 26.1 4 26.7 4 C 27.2 4 27.7 4.1 28 4.3 C 28.4 4.5 28.7 4.8 28.9 5.1 C 29.1 5.4 29.2 5.8 29.2 6.3 C 29.2 6.5 29.2 6.8 29.1 7.1 C 29 7.3 28.9 7.6 28.8 7.8 C 28.6 8.1 28.5 8.3 28.3 8.6 C 28.1 8.8 27.9 9.1 27.6 9.3 C 27.64 9.3 25.4 11.8 25.4 11.8 L 29.6 11.8 Z M 36.3 4.1 L 36.3 4.7 L 32.8 12.7 L 31.6 12.7 L 35.2 5 L 30.5 5 L 30.5 4.1 L 36.3 4.1 Z M 38.6 11.4 C 38.6 11.4 38.63 12.25 38.6 12.2 C 38.6 12.6 38.5 13 38.4 13.4 C 38.2 13.8 37.9 14.1 37.6 14.4 C 37.6 14.4 37 13.9 37 13.9 C 37.1 13.8 37.2 13.6 37.3 13.4 C 37.4 13.2 37.5 13.1 37.5 12.9 C 37.5 12.7 37.6 12.5 37.6 12.3 C 37.57 12.27 37.6 11.4 37.6 11.4 L 38.6 11.4 Z M 41.3 8.6 C 41.26 8.6 40.4 8.4 40.4 8.4 L 40.8 4.1 L 45.2 4.1 L 45.2 5.1 L 41.7 5.1 C 41.7 5.1 41.48 7.46 41.5 7.5 C 41.6 7.4 41.8 7.3 42.1 7.2 C 42.3 7.1 42.6 7.1 42.9 7.1 C 43.3 7.1 43.7 7.2 44 7.3 C 44.3 7.4 44.5 7.6 44.8 7.9 C 45 8.1 45.2 8.4 45.3 8.8 C 45.4 9.1 45.5 9.5 45.5 9.9 C 45.5 10.4 45.4 10.7 45.3 11.1 C 45.2 11.4 45 11.7 44.8 12 C 44.6 12.2 44.3 12.4 43.9 12.6 C 43.6 12.7 43.2 12.8 42.8 12.8 C 42.4 12.8 42.1 12.7 41.8 12.6 C 41.5 12.5 41.2 12.4 41 12.2 C 40.7 12 40.5 11.8 40.4 11.5 C 40.2 11.2 40.1 10.8 40.1 10.4 C 40.1 10.4 41.1 10.4 41.1 10.4 C 41.2 10.7 41.3 11 41.4 11.2 C 41.5 11.4 41.7 11.6 42 11.7 C 42.2 11.8 42.4 11.9 42.8 11.9 C 43 11.9 43.2 11.8 43.4 11.8 C 43.6 11.7 43.8 11.5 43.9 11.4 C 44.1 11.2 44.2 11 44.3 10.8 C 44.3 10.5 44.4 10.3 44.4 10 C 44.4 9.7 44.3 9.4 44.3 9.2 C 44.2 9 44.1 8.8 43.9 8.6 C 43.8 8.4 43.6 8.3 43.4 8.2 C 43.2 8.1 42.9 8.1 42.7 8.1 C 42.3 8.1 42 8.1 41.8 8.2 C 41.6 8.3 41.5 8.4 41.3 8.6 Z M 47.7 11.8 C 47.7 11.8 47.82 11.76 47.8 11.8 C 48.4 11.8 49 11.7 49.3 11.5 C 49.7 11.3 50 11.1 50.3 10.8 C 50.5 10.5 50.6 10.2 50.7 9.8 C 50.8 9.4 50.8 9 50.8 8.6 C 50.8 8.6 50.8 7.3 50.8 7.3 C 50.8 6.9 50.8 6.6 50.7 6.3 C 50.6 6 50.5 5.7 50.3 5.5 C 50.2 5.3 50 5.2 49.8 5.1 C 49.6 5 49.4 4.9 49.2 4.9 C 48.9 4.9 48.7 5 48.5 5.1 C 48.3 5.2 48.1 5.3 48 5.5 C 47.9 5.7 47.8 5.9 47.7 6.1 C 47.6 6.4 47.6 6.6 47.6 6.9 C 47.6 7.2 47.6 7.4 47.7 7.6 C 47.7 7.9 47.8 8.1 48 8.3 C 48.1 8.5 48.2 8.6 48.4 8.7 C 48.6 8.9 48.9 8.9 49.1 8.9 C 49.4 8.9 49.6 8.9 49.8 8.8 C 50 8.7 50.2 8.5 50.4 8.4 C 50.5 8.2 50.7 8 50.8 7.8 C 50.9 7.6 50.9 7.4 50.9 7.1 C 50.9 7.1 51.5 7.1 51.5 7.1 C 51.5 7.5 51.4 7.8 51.3 8.1 C 51.1 8.4 51 8.7 50.7 9 C 50.5 9.2 50.3 9.4 49.9 9.6 C 49.6 9.7 49.3 9.8 48.9 9.8 C 48.5 9.8 48.2 9.7 47.9 9.6 C 47.5 9.4 47.3 9.2 47.1 8.9 C 46.9 8.6 46.8 8.3 46.7 8 C 46.6 7.7 46.5 7.3 46.5 7 C 46.5 6.6 46.6 6.2 46.7 5.8 C 46.8 5.5 47 5.2 47.2 4.9 C 47.4 4.6 47.7 4.4 48 4.2 C 48.3 4.1 48.7 4 49.2 4 C 49.6 4 50.1 4.1 50.4 4.3 C 50.8 4.5 51 4.8 51.2 5.1 C 51.5 5.4 51.6 5.8 51.7 6.2 C 51.8 6.6 51.9 7 51.9 7.5 C 51.9 7.5 51.9 7.9 51.9 7.9 C 51.9 8.3 51.9 8.8 51.8 9.2 C 51.7 9.7 51.6 10.1 51.5 10.5 C 51.3 10.9 51.1 11.3 50.8 11.6 C 50.5 11.9 50.1 12.2 49.6 12.4 C 49.1 12.6 48.5 12.7 47.8 12.7 C 47.82 12.68 47.7 12.7 47.7 12.7 L 47.7 11.8 Z " stroke="none" fill="#000"/>  </g></svg>