<?xml version="1.0" standalone="no"?><!DOCTYPE svg PUBLIC "-//W3C//DTD SVG 1.1//EN" "http://www.w3.org/Graphics/SVG/1.1/DTD/svg11.dtd"><svg xmlns="http://www.w3.org/2000/svg" version="1.1" width="49px" height="13.4px" viewBox="0 -3 49 13.4" style="top:-3px">  <desc>29546</desc>  <defs/>  <g id="Polygon86232">    <path d="M 13.4 5.6 L 13.4 4.7 C 13.4 4.7 14.99 3.41 15 3.4 C 15.3 3.1 15.5 2.9 15.7 2.8 C 15.8 2.6 15.8 2.4 15.8 2.2 C 15.8 2 15.8 1.9 15.7 1.8 C 15.5 1.7 15.4 1.6 15.2 1.6 C 15 1.6 14.8 1.6 14.7 1.7 C 14.5 1.8 14.4 2 14.2 2.3 C 14.2 2.3 13.4 1.6 13.4 1.6 C 13.7 1.3 14 1 14.2 0.9 C 14.5 0.7 14.8 0.6 15.3 0.6 C 15.8 0.6 16.2 0.8 16.5 1 C 16.8 1.3 16.9 1.7 16.9 2.1 C 16.9 2.1 16.9 2.2 16.9 2.2 C 16.9 2.5 16.8 2.9 16.7 3.1 C 16.5 3.4 16.1 3.7 15.7 4.1 C 15.65 4.05 14.9 4.7 14.9 4.7 L 17 4.7 L 17 5.6 L 13.4 5.6 Z M 18.4 4.3 C 18.8 4.6 19.2 4.7 19.5 4.7 C 19.7 4.7 19.9 4.6 20.1 4.5 C 20.2 4.4 20.4 4.2 20.4 4.1 C 20.5 3.9 20.5 3.8 20.5 3.6 C 20.3 3.8 19.9 3.9 19.5 3.9 C 19 3.9 18.6 3.8 18.2 3.5 C 17.9 3.2 17.8 2.8 17.8 2.3 C 17.8 2.3 17.8 2.3 17.8 2.3 C 17.8 1.8 17.9 1.4 18.3 1.1 C 18.6 0.8 19.1 0.6 19.6 0.6 C 20 0.6 20.2 0.7 20.4 0.7 C 20.7 0.8 20.9 1 21.1 1.1 C 21.4 1.5 21.6 2.2 21.6 3 C 21.6 3 21.6 3 21.6 3 C 21.6 3.8 21.4 4.5 21.1 5 C 20.7 5.4 20.2 5.7 19.5 5.7 C 18.9 5.7 18.4 5.5 17.9 5.1 C 17.88 5.1 18.4 4.3 18.4 4.3 C 18.4 4.3 18.45 4.28 18.4 4.3 Z M 19.7 3 C 20 3 20.2 3 20.3 2.8 C 20.5 2.7 20.5 2.5 20.5 2.3 C 20.5 2.3 20.5 2.3 20.5 2.3 C 20.5 2.1 20.5 1.9 20.3 1.7 C 20.2 1.6 19.9 1.5 19.7 1.5 C 19.4 1.5 19.2 1.6 19.1 1.7 C 18.9 1.9 18.8 2.1 18.8 2.3 C 18.8 2.3 18.8 2.3 18.8 2.3 C 18.8 2.5 18.9 2.7 19.1 2.8 C 19.2 3 19.4 3 19.7 3 Z M 24.1 5.7 C 23.4 5.7 22.8 5.4 22.3 4.9 C 22.3 4.9 23 4.2 23 4.2 C 23.4 4.5 23.7 4.7 24.1 4.7 C 24.4 4.7 24.6 4.6 24.7 4.5 C 24.9 4.4 25 4.2 25 4 C 25 4 25 4 25 4 C 25 3.8 24.9 3.6 24.7 3.5 C 24.6 3.4 24.3 3.3 24.1 3.3 C 23.8 3.3 23.5 3.4 23.3 3.5 C 23.27 3.53 22.6 3.1 22.6 3.1 L 22.8 0.7 L 25.8 0.7 L 25.8 1.6 L 23.7 1.6 C 23.7 1.6 23.65 2.49 23.7 2.5 C 23.9 2.4 24.1 2.4 24.3 2.4 C 24.8 2.4 25.2 2.5 25.5 2.8 C 25.9 3.1 26 3.5 26 4 C 26 4 26 4 26 4 C 26 4.5 25.8 4.9 25.5 5.2 C 25.2 5.5 24.7 5.7 24.1 5.7 Z M 29.2 5.6 L 29.2 4.5 L 26.8 4.5 L 26.6 3.8 L 29.3 0.7 L 30.2 0.7 L 30.2 3.7 L 30.9 3.7 L 30.9 4.5 L 30.2 4.5 L 30.2 5.6 L 29.2 5.6 Z M 27.9 3.7 L 29.2 3.7 L 29.2 2.1 L 27.9 3.7 Z M 33.6 5.7 C 33 5.7 32.6 5.5 32.2 5.2 C 31.8 4.8 31.6 4.2 31.6 3.3 C 31.6 3.3 31.6 3.3 31.6 3.3 C 31.6 2.5 31.8 1.9 32.2 1.4 C 32.5 0.9 33.1 0.6 33.8 0.6 C 34.3 0.6 34.9 0.8 35.3 1.2 C 35.3 1.2 34.7 2 34.7 2 C 34.6 1.9 34.4 1.8 34.3 1.7 C 34.1 1.6 33.9 1.6 33.7 1.6 C 33.6 1.6 33.4 1.6 33.3 1.7 C 33.2 1.8 33.1 1.9 33 2 C 32.9 2.1 32.9 2.3 32.8 2.4 C 32.8 2.5 32.8 2.6 32.8 2.7 C 33.1 2.5 33.4 2.4 33.8 2.4 C 34.3 2.4 34.7 2.6 35 2.8 C 35.3 3.1 35.5 3.5 35.5 4 C 35.5 4 35.5 4 35.5 4 C 35.5 4.5 35.3 4.9 35 5.2 C 34.6 5.5 34.2 5.7 33.6 5.7 Z M 32.7 4 C 32.7 4.2 32.8 4.4 33 4.6 C 33.1 4.7 33.3 4.8 33.6 4.8 C 33.8 4.8 34 4.7 34.2 4.6 C 34.3 4.4 34.4 4.3 34.4 4 C 34.4 4 34.4 4 34.4 4 C 34.4 3.8 34.3 3.6 34.2 3.5 C 34 3.4 33.8 3.3 33.6 3.3 C 33.3 3.3 33.1 3.4 32.9 3.5 C 32.8 3.6 32.7 3.8 32.7 4 C 32.72 4.02 32.7 4 32.7 4 C 32.7 4 32.72 4.03 32.7 4 Z " stroke="none" fill="#000"/>  </g></svg>