<?xml version="1.0" standalone="no"?><!DOCTYPE svg PUBLIC "-//W3C//DTD SVG 1.1//EN" "http://www.w3.org/Graphics/SVG/1.1/DTD/svg11.dtd"><svg xmlns="http://www.w3.org/2000/svg" version="1.1" width="102px" height="58.4px" viewBox="0 -3 102 58.4" style="top:-3px">  <desc>Banyo Havlusu – Inu %100 Pamuk / 600 g 70 × 140 cm</desc>  <defs/>  <g id="Polygon85304">    <path d="M 1 23.6 L 3.2 19.2 L 0.5 19.2 L 0.5 18.7 L 3.8 18.7 L 3.8 19.1 L 1.6 23.6 L 1 23.6 Z M 8.7 21.1 C 8.7 21.9 8.6 22.5 8.2 22.9 C 7.8 23.4 7.3 23.7 6.7 23.7 C 6.1 23.7 5.6 23.4 5.2 23 C 4.8 22.5 4.6 21.9 4.6 21.2 C 4.6 21.2 4.6 21.1 4.6 21.1 C 4.6 20.4 4.8 19.8 5.2 19.4 C 5.6 18.9 6.1 18.6 6.7 18.6 C 7.3 18.6 7.8 18.9 8.2 19.3 C 8.6 19.8 8.7 20.4 8.7 21.1 C 8.74 21.14 8.7 21.1 8.7 21.1 C 8.7 21.1 8.74 21.15 8.7 21.1 Z M 5.2 21.1 C 5.2 21.7 5.3 22.2 5.6 22.6 C 5.9 23 6.2 23.2 6.7 23.2 C 7.1 23.2 7.5 23 7.8 22.6 C 8 22.2 8.2 21.7 8.2 21.2 C 8.2 21.2 8.2 21.1 8.2 21.1 C 8.2 20.6 8 20.1 7.8 19.7 C 7.5 19.3 7.1 19.1 6.7 19.1 C 6.2 19.1 5.9 19.3 5.6 19.7 C 5.3 20.1 5.2 20.6 5.2 21.1 C 5.18 21.14 5.2 21.1 5.2 21.1 C 5.2 21.1 5.18 21.15 5.2 21.1 Z M 14.7 22.7 L 13.5 21.5 L 12.2 22.7 L 11.9 22.4 L 13.1 21.1 L 11.9 19.9 L 12.3 19.6 L 13.5 20.8 L 14.7 19.6 L 15 19.9 L 13.8 21.1 L 15 22.3 L 14.7 22.7 Z M 19 23.6 L 19 19.2 L 18.1 19.5 L 17.9 19.1 L 19.1 18.7 L 19.6 18.7 L 19.6 23.6 L 19 23.6 Z M 23.3 23.6 L 23.3 22.4 L 20.7 22.4 L 20.6 22 L 23.3 18.7 L 23.8 18.7 L 23.8 22 L 24.6 22 L 24.6 22.4 L 23.8 22.4 L 23.8 23.6 L 23.3 23.6 Z M 21.2 22 L 23.3 22 L 23.3 19.4 L 21.2 22 Z M 29.5 21.1 C 29.5 21.9 29.3 22.5 29 22.9 C 28.6 23.4 28.1 23.7 27.5 23.7 C 26.8 23.7 26.3 23.4 26 23 C 25.6 22.5 25.4 21.9 25.4 21.2 C 25.4 21.2 25.4 21.1 25.4 21.1 C 25.4 20.4 25.6 19.8 26 19.4 C 26.4 18.9 26.9 18.6 27.5 18.6 C 28.1 18.6 28.6 18.9 29 19.3 C 29.3 19.8 29.5 20.4 29.5 21.1 C 29.53 21.14 29.5 21.1 29.5 21.1 C 29.5 21.1 29.53 21.15 29.5 21.1 Z M 26 21.1 C 26 21.7 26.1 22.2 26.4 22.6 C 26.7 23 27 23.2 27.5 23.2 C 27.9 23.2 28.3 23 28.5 22.6 C 28.8 22.2 29 21.7 29 21.2 C 29 21.2 29 21.1 29 21.1 C 29 20.6 28.8 20.1 28.5 19.7 C 28.3 19.3 27.9 19.1 27.5 19.1 C 27 19.1 26.7 19.3 26.4 19.7 C 26.1 20.1 26 20.6 26 21.1 C 25.96 21.14 26 21.1 26 21.1 C 26 21.1 25.96 21.15 26 21.1 Z M 35.8 23 C 35.4 23.5 34.9 23.7 34.3 23.7 C 33.8 23.7 33.3 23.5 33 23.1 C 32.6 22.8 32.4 22.3 32.4 21.8 C 32.4 21.8 32.4 21.8 32.4 21.8 C 32.4 21.3 32.6 20.8 33 20.5 C 33.3 20.1 33.8 19.9 34.3 19.9 C 34.9 19.9 35.3 20.1 35.7 20.5 C 35.7 20.5 35.4 20.9 35.4 20.9 C 35 20.6 34.7 20.4 34.3 20.4 C 33.9 20.4 33.6 20.5 33.4 20.8 C 33.1 21.1 33 21.4 33 21.8 C 33 21.8 33 21.8 33 21.8 C 33 22.2 33.1 22.5 33.4 22.8 C 33.6 23.1 33.9 23.2 34.3 23.2 C 34.7 23.2 35.1 23 35.4 22.7 C 35.43 22.66 35.8 23 35.8 23 C 35.8 23 35.77 22.98 35.8 23 Z M 36.7 23.6 L 36.7 20 L 37.2 20 C 37.2 20 37.2 20.59 37.2 20.6 C 37.3 20.4 37.5 20.2 37.7 20.1 C 37.9 20 38.1 19.9 38.4 19.9 C 38.9 19.9 39.3 20.1 39.5 20.6 C 39.9 20.1 40.3 19.9 40.8 19.9 C 41.2 19.9 41.6 20 41.8 20.3 C 42 20.6 42.1 20.9 42.1 21.4 C 42.15 21.36 42.1 23.6 42.1 23.6 L 41.6 23.6 C 41.6 23.6 41.61 21.49 41.6 21.5 C 41.6 21.1 41.5 20.9 41.4 20.7 C 41.2 20.5 41 20.4 40.7 20.4 C 40.4 20.4 40.2 20.5 40 20.7 C 39.8 20.9 39.7 21.2 39.7 21.5 C 39.67 21.51 39.7 23.6 39.7 23.6 L 39.1 23.6 C 39.1 23.6 39.14 21.47 39.1 21.5 C 39.1 21.1 39.1 20.9 38.9 20.7 C 38.7 20.5 38.5 20.4 38.2 20.4 C 37.9 20.4 37.7 20.5 37.5 20.7 C 37.3 20.9 37.2 21.2 37.2 21.5 C 37.2 21.53 37.2 23.6 37.2 23.6 L 36.7 23.6 Z " stroke="none" fill="#000"/>  </g>  <g id="Polygon85303">    <path d="M 2.6 10.9 C 2.6 11.2 2.5 11.5 2.3 11.8 C 2.1 12 1.8 12.1 1.5 12.1 C 1.1 12.1 0.9 12 0.7 11.8 C 0.5 11.5 0.4 11.2 0.4 10.9 C 0.4 10.9 0.4 10.9 0.4 10.9 C 0.4 10.6 0.5 10.3 0.7 10 C 0.9 9.8 1.2 9.6 1.5 9.6 C 1.8 9.6 2.1 9.8 2.3 10 C 2.5 10.3 2.6 10.5 2.6 10.9 C 2.58 10.88 2.6 10.9 2.6 10.9 C 2.6 10.9 2.58 10.9 2.6 10.9 Z M 1.5 10 C 1.3 10 1.1 10.1 1 10.3 C 0.9 10.4 0.8 10.6 0.8 10.9 C 0.8 10.9 0.8 10.9 0.8 10.9 C 0.8 11.1 0.9 11.3 1 11.5 C 1.1 11.7 1.3 11.8 1.5 11.8 C 1.7 11.8 1.8 11.7 1.9 11.5 C 2.1 11.3 2.1 11.1 2.1 10.9 C 2.1 10.9 2.1 10.9 2.1 10.9 C 2.1 10.7 2.1 10.5 1.9 10.3 C 1.8 10.1 1.6 10 1.5 10 Z M 2.8 12 L 4.5 9.7 L 5 9.7 L 3.1 12.3 L 1.4 14.6 L 0.9 14.6 L 2.8 12 Z M 4.4 14.7 C 4 14.7 3.8 14.5 3.6 14.3 C 3.4 14 3.3 13.8 3.3 13.4 C 3.3 13.4 3.3 13.4 3.3 13.4 C 3.3 13.1 3.4 12.8 3.6 12.5 C 3.8 12.3 4 12.1 4.4 12.1 C 4.7 12.1 5 12.3 5.2 12.5 C 5.4 12.8 5.5 13.1 5.5 13.4 C 5.5 13.4 5.5 13.4 5.5 13.4 C 5.5 13.7 5.4 14 5.2 14.3 C 4.9 14.5 4.7 14.7 4.4 14.7 Z M 4.4 14.3 C 4.6 14.3 4.7 14.2 4.8 14 C 4.9 13.9 5 13.7 5 13.4 C 5 13.4 5 13.4 5 13.4 C 5 13.2 4.9 13 4.8 12.8 C 4.7 12.6 4.5 12.5 4.4 12.5 C 4.2 12.5 4 12.6 3.9 12.8 C 3.8 13 3.7 13.2 3.7 13.4 C 3.7 13.4 3.7 13.4 3.7 13.4 C 3.7 13.6 3.8 13.8 3.9 14 C 4 14.2 4.2 14.3 4.4 14.3 Z M 7.1 14.6 L 7.1 10.2 L 6.2 10.5 L 6 10.1 L 7.2 9.7 L 7.6 9.7 L 7.6 14.6 L 7.1 14.6 Z M 12.9 12.1 C 12.9 12.9 12.7 13.5 12.3 13.9 C 12 14.4 11.5 14.7 10.8 14.7 C 10.2 14.7 9.7 14.4 9.3 14 C 9 13.5 8.8 12.9 8.8 12.2 C 8.8 12.2 8.8 12.1 8.8 12.1 C 8.8 11.4 9 10.8 9.4 10.4 C 9.7 9.9 10.2 9.6 10.9 9.6 C 11.5 9.6 12 9.9 12.3 10.3 C 12.7 10.8 12.9 11.4 12.9 12.1 C 12.91 12.14 12.9 12.1 12.9 12.1 C 12.9 12.1 12.91 12.15 12.9 12.1 Z M 9.4 12.1 C 9.4 12.7 9.5 13.2 9.8 13.6 C 10 14 10.4 14.2 10.9 14.2 C 11.3 14.2 11.7 14 11.9 13.6 C 12.2 13.2 12.3 12.7 12.3 12.2 C 12.3 12.2 12.3 12.1 12.3 12.1 C 12.3 11.6 12.2 11.1 11.9 10.7 C 11.6 10.3 11.3 10.1 10.8 10.1 C 10.4 10.1 10 10.3 9.8 10.7 C 9.5 11.1 9.4 11.6 9.4 12.1 C 9.35 12.14 9.4 12.1 9.4 12.1 C 9.4 12.1 9.35 12.15 9.4 12.1 Z M 17.9 12.1 C 17.9 12.9 17.7 13.5 17.3 13.9 C 17 14.4 16.5 14.7 15.8 14.7 C 15.2 14.7 14.7 14.4 14.4 14 C 14 13.5 13.8 12.9 13.8 12.2 C 13.8 12.2 13.8 12.1 13.8 12.1 C 13.8 11.4 14 10.8 14.4 10.4 C 14.7 9.9 15.2 9.6 15.9 9.6 C 16.5 9.6 17 9.9 17.4 10.3 C 17.7 10.8 17.9 11.4 17.9 12.1 C 17.92 12.14 17.9 12.1 17.9 12.1 C 17.9 12.1 17.92 12.15 17.9 12.1 Z M 14.4 12.1 C 14.4 12.7 14.5 13.2 14.8 13.6 C 15.1 14 15.4 14.2 15.9 14.2 C 16.3 14.2 16.7 14 16.9 13.6 C 17.2 13.2 17.3 12.7 17.3 12.2 C 17.3 12.2 17.3 12.1 17.3 12.1 C 17.3 11.6 17.2 11.1 16.9 10.7 C 16.7 10.3 16.3 10.1 15.8 10.1 C 15.4 10.1 15 10.3 14.8 10.7 C 14.5 11.1 14.4 11.6 14.4 12.1 C 14.36 12.14 14.4 12.1 14.4 12.1 C 14.4 12.1 14.36 12.15 14.4 12.1 Z M 21.1 14.6 L 21.1 9.7 C 21.1 9.7 22.98 9.7 23 9.7 C 23.5 9.7 24 9.8 24.3 10.1 C 24.6 10.4 24.8 10.8 24.8 11.3 C 24.8 11.3 24.8 11.3 24.8 11.3 C 24.8 11.8 24.6 12.2 24.3 12.5 C 23.9 12.7 23.4 12.9 22.9 12.9 C 22.89 12.87 21.7 12.9 21.7 12.9 L 21.7 14.6 L 21.1 14.6 Z M 21.7 12.4 C 21.7 12.4 22.91 12.37 22.9 12.4 C 23.3 12.4 23.6 12.3 23.9 12.1 C 24.1 11.9 24.3 11.6 24.3 11.3 C 24.3 11.3 24.3 11.3 24.3 11.3 C 24.3 10.9 24.1 10.7 23.9 10.5 C 23.7 10.3 23.3 10.2 22.9 10.2 C 22.94 10.21 21.7 10.2 21.7 10.2 L 21.7 12.4 Z M 28.1 14.1 C 27.8 14.5 27.4 14.7 26.8 14.7 C 26.4 14.7 26.1 14.6 25.9 14.4 C 25.6 14.2 25.5 13.9 25.5 13.5 C 25.5 13.5 25.5 13.5 25.5 13.5 C 25.5 13.2 25.6 12.9 25.9 12.7 C 26.2 12.5 26.5 12.4 27 12.4 C 27.4 12.4 27.7 12.4 28.1 12.5 C 28.1 12.5 28.1 12.4 28.1 12.4 C 28.1 12.1 28 11.8 27.8 11.7 C 27.7 11.5 27.4 11.4 27 11.4 C 26.7 11.4 26.3 11.5 25.9 11.7 C 25.9 11.7 25.8 11.2 25.8 11.2 C 26.2 11 26.6 10.9 27.1 10.9 C 27.6 10.9 28 11.1 28.3 11.3 C 28.5 11.6 28.6 11.9 28.6 12.4 C 28.64 12.39 28.6 14.6 28.6 14.6 L 28.1 14.6 L 28.1 14.1 C 28.1 14.1 28.12 14.05 28.1 14.1 Z M 26.9 14.2 C 27.3 14.2 27.5 14.2 27.8 14 C 28 13.8 28.1 13.6 28.1 13.3 C 28.1 13.3 28.1 12.9 28.1 12.9 C 27.8 12.8 27.4 12.8 27.1 12.8 C 26.7 12.8 26.5 12.8 26.3 13 C 26.1 13.1 26 13.3 26 13.5 C 26 13.5 26 13.5 26 13.5 C 26 13.7 26.1 13.9 26.3 14.1 C 26.4 14.2 26.7 14.2 26.9 14.2 Z M 29.8 14.6 L 29.8 11 L 30.3 11 C 30.3 11 30.32 11.59 30.3 11.6 C 30.5 11.4 30.6 11.2 30.8 11.1 C 31 11 31.2 10.9 31.5 10.9 C 32 10.9 32.4 11.1 32.7 11.6 C 33 11.1 33.4 10.9 33.9 10.9 C 34.3 10.9 34.7 11 34.9 11.3 C 35.2 11.6 35.3 11.9 35.3 12.4 C 35.27 12.36 35.3 14.6 35.3 14.6 L 34.7 14.6 C 34.7 14.6 34.73 12.49 34.7 12.5 C 34.7 12.1 34.7 11.9 34.5 11.7 C 34.3 11.5 34.1 11.4 33.8 11.4 C 33.5 11.4 33.3 11.5 33.1 11.7 C 32.9 11.9 32.8 12.2 32.8 12.5 C 32.79 12.51 32.8 14.6 32.8 14.6 L 32.3 14.6 C 32.3 14.6 32.26 12.47 32.3 12.5 C 32.3 12.1 32.2 11.9 32 11.7 C 31.8 11.5 31.6 11.4 31.3 11.4 C 31 11.4 30.8 11.5 30.6 11.7 C 30.4 11.9 30.3 12.2 30.3 12.5 C 30.32 12.53 30.3 14.6 30.3 14.6 L 29.8 14.6 Z M 39 14 C 38.7 14.4 38.3 14.7 37.8 14.7 C 37.3 14.7 37 14.5 36.7 14.3 C 36.5 14 36.4 13.7 36.4 13.2 C 36.36 13.23 36.4 11 36.4 11 L 36.9 11 C 36.9 11 36.9 13.09 36.9 13.1 C 36.9 13.4 37 13.7 37.2 13.9 C 37.3 14.1 37.6 14.2 37.9 14.2 C 38.2 14.2 38.5 14.1 38.7 13.9 C 38.9 13.7 39 13.4 39 13.1 C 38.99 13.05 39 11 39 11 L 39.5 11 L 39.5 14.6 L 39 14.6 L 39 14 C 39 14 38.99 13.97 39 14 Z M 40.7 14.6 L 40.7 9.5 L 41.3 9.5 L 41.3 13 L 43.2 11 L 43.9 11 L 42.4 12.5 L 43.9 14.6 L 43.3 14.6 L 42 12.9 L 41.3 13.7 L 41.3 14.6 L 40.7 14.6 Z M 46.1 15.5 L 49.3 9 L 49.8 9 L 46.6 15.5 L 46.1 15.5 Z M 54.2 14.7 C 53.7 14.7 53.2 14.5 52.9 14.2 C 52.7 14 52.5 13.7 52.4 13.4 C 52.3 13.1 52.3 12.8 52.3 12.3 C 52.3 12.3 52.3 12.3 52.3 12.3 C 52.3 11.5 52.5 10.9 52.8 10.4 C 53.2 9.9 53.7 9.6 54.3 9.6 C 54.9 9.6 55.3 9.8 55.8 10.2 C 55.8 10.2 55.5 10.6 55.5 10.6 C 55.1 10.3 54.7 10.1 54.3 10.1 C 53.9 10.1 53.5 10.3 53.2 10.7 C 53 11.1 52.9 11.6 52.9 12.2 C 52.9 12.2 52.9 12.3 52.9 12.3 C 53.2 11.8 53.7 11.5 54.3 11.5 C 54.7 11.5 55.1 11.7 55.5 12 C 55.8 12.2 56 12.6 56 13 C 56 13 56 13.1 56 13.1 C 56 13.5 55.8 13.9 55.5 14.2 C 55.1 14.5 54.7 14.7 54.2 14.7 Z M 54.2 14.2 C 54.6 14.2 54.8 14.1 55.1 13.9 C 55.3 13.7 55.4 13.4 55.4 13.1 C 55.4 13.1 55.4 13.1 55.4 13.1 C 55.4 12.8 55.3 12.5 55.1 12.3 C 54.8 12.1 54.5 12 54.2 12 C 53.8 12 53.5 12.1 53.3 12.3 C 53.1 12.6 53 12.8 53 13.1 C 53 13.1 53 13.1 53 13.1 C 53 13.4 53.1 13.7 53.3 13.9 C 53.6 14.1 53.8 14.2 54.2 14.2 Z M 61 12.1 C 61 12.9 60.8 13.5 60.4 13.9 C 60 14.4 59.5 14.7 58.9 14.7 C 58.3 14.7 57.8 14.4 57.4 14 C 57 13.5 56.8 12.9 56.8 12.2 C 56.8 12.2 56.8 12.1 56.8 12.1 C 56.8 11.4 57 10.8 57.4 10.4 C 57.8 9.9 58.3 9.6 58.9 9.6 C 59.5 9.6 60 9.9 60.4 10.3 C 60.8 10.8 61 11.4 61 12.1 C 60.97 12.14 61 12.1 61 12.1 C 61 12.1 60.97 12.15 61 12.1 Z M 57.4 12.1 C 57.4 12.7 57.5 13.2 57.8 13.6 C 58.1 14 58.5 14.2 58.9 14.2 C 59.4 14.2 59.7 14 60 13.6 C 60.3 13.2 60.4 12.7 60.4 12.2 C 60.4 12.2 60.4 12.1 60.4 12.1 C 60.4 11.6 60.3 11.1 60 10.7 C 59.7 10.3 59.3 10.1 58.9 10.1 C 58.5 10.1 58.1 10.3 57.8 10.7 C 57.5 11.1 57.4 11.6 57.4 12.1 C 57.41 12.14 57.4 12.1 57.4 12.1 C 57.4 12.1 57.41 12.15 57.4 12.1 Z M 66 12.1 C 66 12.9 65.8 13.5 65.4 13.9 C 65 14.4 64.5 14.7 63.9 14.7 C 63.3 14.7 62.8 14.4 62.4 14 C 62 13.5 61.8 12.9 61.8 12.2 C 61.8 12.2 61.8 12.1 61.8 12.1 C 61.8 11.4 62 10.8 62.4 10.4 C 62.8 9.9 63.3 9.6 63.9 9.6 C 64.5 9.6 65 9.9 65.4 10.3 C 65.8 10.8 66 11.4 66 12.1 C 65.97 12.14 66 12.1 66 12.1 C 66 12.1 65.97 12.15 66 12.1 Z M 62.4 12.1 C 62.4 12.7 62.6 13.2 62.8 13.6 C 63.1 14 63.5 14.2 63.9 14.2 C 64.4 14.2 64.7 14 65 13.6 C 65.3 13.2 65.4 12.7 65.4 12.2 C 65.4 12.2 65.4 12.1 65.4 12.1 C 65.4 11.6 65.3 11.1 65 10.7 C 64.7 10.3 64.3 10.1 63.9 10.1 C 63.5 10.1 63.1 10.3 62.8 10.7 C 62.5 11.1 62.4 11.6 62.4 12.1 C 62.41 12.14 62.4 12.1 62.4 12.1 C 62.4 12.1 62.41 12.15 62.4 12.1 Z M 72.1 15.3 C 71.8 15.6 71.3 15.7 70.7 15.7 C 70.1 15.7 69.6 15.6 69.1 15.2 C 69.1 15.2 69.3 14.8 69.3 14.8 C 69.7 15.1 70.2 15.3 70.7 15.3 C 71.1 15.3 71.4 15.2 71.7 14.9 C 71.9 14.7 72 14.4 72 14 C 72 14 72 13.6 72 13.6 C 71.6 14.1 71.2 14.3 70.6 14.3 C 70.1 14.3 69.8 14.2 69.4 13.8 C 69.1 13.5 68.9 13.1 68.9 12.6 C 68.9 12.6 68.9 12.6 68.9 12.6 C 68.9 12.1 69.1 11.7 69.4 11.4 C 69.7 11.1 70.1 10.9 70.6 10.9 C 71.2 10.9 71.6 11.1 72 11.6 C 72.02 11.63 72 11 72 11 L 72.6 11 C 72.6 11 72.55 13.97 72.6 14 C 72.6 14.5 72.4 14.9 72.1 15.3 C 72.1 15.3 72.1 15.3 72.1 15.3 Z M 70.7 13.8 C 71.1 13.8 71.4 13.7 71.6 13.5 C 71.9 13.3 72 13 72 12.6 C 72 12.6 72 12.6 72 12.6 C 72 12.2 71.9 12 71.6 11.7 C 71.4 11.5 71.1 11.4 70.7 11.4 C 70.4 11.4 70.1 11.5 69.8 11.7 C 69.6 11.9 69.5 12.2 69.5 12.6 C 69.5 12.6 69.5 12.6 69.5 12.6 C 69.5 13 69.6 13.3 69.8 13.5 C 70.1 13.7 70.4 13.8 70.7 13.8 Z " stroke="none" fill="#000"/>  </g>  <g id="Polygon85302">    <path d="M 0.6 5.6 L 0.6 0.7 C 0.6 0.7 2.86 0.7 2.9 0.7 C 3.4 0.7 3.9 0.8 4.1 1.1 C 4.4 1.4 4.5 1.6 4.5 2 C 4.5 2 4.5 2 4.5 2 C 4.5 2.5 4.3 2.8 3.8 3 C 4.1 3.2 4.4 3.3 4.5 3.5 C 4.7 3.7 4.8 3.9 4.8 4.2 C 4.8 4.2 4.8 4.3 4.8 4.3 C 4.8 4.7 4.6 5 4.3 5.3 C 3.9 5.5 3.5 5.6 2.9 5.6 C 2.92 5.6 0.6 5.6 0.6 5.6 Z M 2.6 2.7 C 3.2 2.7 3.4 2.5 3.4 2.2 C 3.4 2.2 3.4 2.1 3.4 2.1 C 3.4 1.8 3.2 1.6 2.7 1.6 C 2.7 1.64 1.6 1.6 1.6 1.6 L 1.6 2.7 L 2.6 2.7 C 2.6 2.7 2.63 2.68 2.6 2.7 Z M 2.9 4.7 C 3.4 4.7 3.7 4.5 3.7 4.1 C 3.7 4.1 3.7 4.1 3.7 4.1 C 3.7 3.8 3.4 3.6 2.9 3.6 C 2.88 3.58 1.6 3.6 1.6 3.6 L 1.6 4.7 L 2.9 4.7 C 2.9 4.7 2.92 4.65 2.9 4.7 Z M 7.7 5.2 C 7.4 5.5 7.1 5.7 6.6 5.7 C 6.2 5.7 5.9 5.6 5.7 5.4 C 5.4 5.2 5.3 4.9 5.3 4.5 C 5.3 4.5 5.3 4.5 5.3 4.5 C 5.3 4.1 5.4 3.8 5.7 3.6 C 6 3.4 6.4 3.3 6.8 3.3 C 7.1 3.3 7.4 3.4 7.7 3.5 C 7.7 3.5 7.7 3.4 7.7 3.4 C 7.7 2.9 7.5 2.7 6.9 2.7 C 6.6 2.7 6.2 2.8 5.9 2.9 C 5.9 2.9 5.6 2.1 5.6 2.1 C 6.1 1.9 6.6 1.8 7.1 1.8 C 7.6 1.8 8.1 1.9 8.4 2.2 C 8.6 2.5 8.8 2.9 8.8 3.4 C 8.76 3.42 8.8 5.6 8.8 5.6 L 7.7 5.6 L 7.7 5.2 C 7.7 5.2 7.73 5.19 7.7 5.2 Z M 6.9 4.9 C 7.2 4.9 7.4 4.9 7.5 4.8 C 7.7 4.6 7.7 4.5 7.7 4.3 C 7.7 4.3 7.7 4.1 7.7 4.1 C 7.5 4 7.3 3.9 7.1 3.9 C 6.8 3.9 6.7 4 6.5 4.1 C 6.4 4.2 6.3 4.3 6.3 4.5 C 6.3 4.5 6.3 4.5 6.3 4.5 C 6.3 4.6 6.4 4.7 6.5 4.8 C 6.6 4.9 6.7 4.9 6.9 4.9 Z M 9.7 5.6 L 9.7 1.8 L 10.7 1.8 C 10.7 1.8 10.74 2.38 10.7 2.4 C 11.1 2 11.4 1.8 11.8 1.8 C 12.2 1.8 12.6 1.9 12.8 2.1 C 13 2.4 13.1 2.7 13.1 3.2 C 13.11 3.17 13.1 5.6 13.1 5.6 L 12 5.6 C 12 5.6 12.05 3.51 12 3.5 C 12 3 11.8 2.7 11.4 2.7 C 11.2 2.7 11 2.8 10.9 2.9 C 10.8 3.1 10.7 3.3 10.7 3.5 C 10.74 3.51 10.7 5.6 10.7 5.6 L 9.7 5.6 Z M 15.7 4.4 L 16.5 1.8 L 17.6 1.8 C 17.6 1.8 16.16 5.69 16.2 5.7 C 16 6.1 15.9 6.3 15.7 6.5 C 15.5 6.7 15.2 6.7 14.9 6.7 C 14.6 6.7 14.3 6.7 14 6.5 C 14 6.5 14.3 5.7 14.3 5.7 C 14.5 5.8 14.7 5.9 14.8 5.9 C 14.9 5.9 15 5.8 15 5.8 C 15.1 5.8 15.1 5.7 15.2 5.6 C 15.17 5.61 13.7 1.8 13.7 1.8 L 14.8 1.8 L 15.7 4.4 Z M 20.1 5.7 C 19.5 5.7 19 5.5 18.6 5.1 C 18.2 4.8 18.1 4.3 18.1 3.7 C 18.1 3.7 18.1 3.7 18.1 3.7 C 18.1 3.2 18.2 2.7 18.6 2.3 C 19 2 19.5 1.8 20.1 1.8 C 20.7 1.8 21.1 2 21.5 2.3 C 21.9 2.7 22.1 3.2 22.1 3.7 C 22.1 3.7 22.1 3.7 22.1 3.7 C 22.1 4.3 21.9 4.7 21.5 5.1 C 21.1 5.5 20.7 5.7 20.1 5.7 Z M 20.1 4.8 C 20.4 4.8 20.6 4.7 20.8 4.5 C 21 4.3 21.1 4 21.1 3.7 C 21.1 3.7 21.1 3.7 21.1 3.7 C 21.1 3.4 21 3.2 20.8 3 C 20.6 2.8 20.4 2.7 20.1 2.7 C 19.8 2.7 19.5 2.8 19.4 3 C 19.2 3.2 19.1 3.4 19.1 3.7 C 19.1 3.7 19.1 3.7 19.1 3.7 C 19.1 4 19.2 4.3 19.4 4.5 C 19.6 4.7 19.8 4.8 20.1 4.8 Z M 25.1 5.6 L 25.1 0.7 L 26.2 0.7 L 26.2 2.6 L 28.2 2.6 L 28.2 0.7 L 29.2 0.7 L 29.2 5.6 L 28.2 5.6 L 28.2 3.6 L 26.2 3.6 L 26.2 5.6 L 25.1 5.6 Z M 32.5 5.2 C 32.2 5.5 31.8 5.7 31.4 5.7 C 31 5.7 30.7 5.6 30.4 5.4 C 30.2 5.2 30.1 4.9 30.1 4.5 C 30.1 4.5 30.1 4.5 30.1 4.5 C 30.1 4.1 30.2 3.8 30.5 3.6 C 30.8 3.4 31.1 3.3 31.6 3.3 C 31.9 3.3 32.2 3.4 32.5 3.5 C 32.5 3.5 32.5 3.4 32.5 3.4 C 32.5 2.9 32.2 2.7 31.7 2.7 C 31.4 2.7 31 2.8 30.7 2.9 C 30.7 2.9 30.4 2.1 30.4 2.1 C 30.9 1.9 31.4 1.8 31.9 1.8 C 32.4 1.8 32.8 1.9 33.1 2.2 C 33.4 2.5 33.5 2.9 33.5 3.4 C 33.53 3.42 33.5 5.6 33.5 5.6 L 32.5 5.6 L 32.5 5.2 C 32.5 5.2 32.5 5.19 32.5 5.2 Z M 31.7 4.9 C 31.9 4.9 32.1 4.9 32.3 4.8 C 32.4 4.6 32.5 4.5 32.5 4.3 C 32.5 4.3 32.5 4.1 32.5 4.1 C 32.3 4 32.1 3.9 31.8 3.9 C 31.6 3.9 31.4 4 31.3 4.1 C 31.2 4.2 31.1 4.3 31.1 4.5 C 31.1 4.5 31.1 4.5 31.1 4.5 C 31.1 4.6 31.2 4.7 31.3 4.8 C 31.4 4.9 31.5 4.9 31.7 4.9 Z M 35.6 5.6 L 34.1 1.8 L 35.2 1.8 L 36.1 4.4 L 36.9 1.8 L 38 1.8 L 36.6 5.6 L 35.6 5.6 Z M 38.7 5.6 L 38.7 0.5 L 39.8 0.5 L 39.8 5.6 L 38.7 5.6 Z M 43.1 5.1 C 42.8 5.5 42.4 5.7 42 5.7 C 41.6 5.7 41.3 5.5 41.1 5.3 C 40.8 5.1 40.7 4.7 40.7 4.3 C 40.73 4.28 40.7 1.8 40.7 1.8 L 41.8 1.8 C 41.8 1.8 41.8 3.94 41.8 3.9 C 41.8 4.4 42 4.7 42.4 4.7 C 42.7 4.7 42.8 4.6 42.9 4.5 C 43 4.4 43.1 4.2 43.1 3.9 C 43.11 3.94 43.1 1.8 43.1 1.8 L 44.2 1.8 L 44.2 5.6 L 43.1 5.6 L 43.1 5.1 C 43.1 5.1 43.11 5.07 43.1 5.1 Z M 46.4 5.7 C 45.8 5.7 45.3 5.5 44.8 5.1 C 44.8 5.1 45.3 4.4 45.3 4.4 C 45.7 4.7 46.1 4.9 46.5 4.9 C 46.8 4.9 46.9 4.8 46.9 4.6 C 46.9 4.6 46.9 4.6 46.9 4.6 C 46.9 4.5 46.9 4.5 46.9 4.5 C 46.9 4.4 46.9 4.4 46.8 4.4 C 46.8 4.4 46.8 4.4 46.7 4.3 C 46.7 4.3 46.7 4.3 46.6 4.3 C 46.6 4.3 46.5 4.2 46.5 4.2 C 46.4 4.2 46.4 4.2 46.3 4.2 C 46.2 4.2 46.2 4.1 46.1 4.1 C 46 4.1 45.8 4 45.7 4 C 45.6 3.9 45.5 3.9 45.4 3.8 C 45.3 3.7 45.2 3.6 45.1 3.5 C 45 3.3 45 3.2 45 3 C 45 3 45 3 45 3 C 45 2.6 45.1 2.3 45.4 2.1 C 45.7 1.9 46 1.8 46.4 1.8 C 46.9 1.8 47.3 1.9 47.8 2.2 C 47.8 2.2 47.4 3 47.4 3 C 47 2.7 46.6 2.6 46.4 2.6 C 46.2 2.6 46.1 2.6 46.1 2.7 C 46 2.7 46 2.8 46 2.9 C 46 2.9 46 2.9 46 2.9 C 46 3 46 3 46.2 3.1 C 46.3 3.2 46.5 3.3 46.7 3.3 C 46.9 3.4 47 3.4 47.1 3.5 C 47.3 3.5 47.4 3.6 47.5 3.7 C 47.6 3.8 47.7 3.9 47.8 4 C 47.8 4.1 47.9 4.3 47.9 4.4 C 47.9 4.4 47.9 4.5 47.9 4.5 C 47.9 4.9 47.7 5.2 47.5 5.4 C 47.2 5.6 46.9 5.7 46.4 5.7 Z M 51 5.1 C 50.7 5.5 50.3 5.7 49.9 5.7 C 49.5 5.7 49.2 5.5 48.9 5.3 C 48.7 5.1 48.6 4.7 48.6 4.3 C 48.61 4.28 48.6 1.8 48.6 1.8 L 49.7 1.8 C 49.7 1.8 49.67 3.94 49.7 3.9 C 49.7 4.4 49.9 4.7 50.3 4.7 C 50.5 4.7 50.7 4.6 50.8 4.5 C 50.9 4.4 51 4.2 51 3.9 C 50.98 3.94 51 1.8 51 1.8 L 52 1.8 L 52 5.6 L 51 5.6 L 51 5.1 C 51 5.1 50.98 5.07 51 5.1 Z M 55 3.9 L 55 2.9 L 58 2.9 L 58 3.9 L 55 3.9 Z M 61.1 5.6 L 61.1 0.7 L 62.1 0.7 L 62.1 5.6 L 61.1 5.6 Z M 63.2 5.6 L 63.2 1.8 L 64.3 1.8 C 64.3 1.8 64.31 2.38 64.3 2.4 C 64.6 2 65 1.8 65.4 1.8 C 65.8 1.8 66.1 1.9 66.3 2.1 C 66.6 2.4 66.7 2.7 66.7 3.2 C 66.68 3.17 66.7 5.6 66.7 5.6 L 65.6 5.6 C 65.6 5.6 65.62 3.51 65.6 3.5 C 65.6 3 65.4 2.7 65 2.7 C 64.8 2.7 64.6 2.8 64.5 2.9 C 64.4 3.1 64.3 3.3 64.3 3.5 C 64.31 3.51 64.3 5.6 64.3 5.6 L 63.2 5.6 Z M 69.9 5.1 C 69.6 5.5 69.3 5.7 68.9 5.7 C 68.4 5.7 68.1 5.5 67.9 5.3 C 67.7 5.1 67.6 4.7 67.6 4.3 C 67.58 4.28 67.6 1.8 67.6 1.8 L 68.6 1.8 C 68.6 1.8 68.64 3.94 68.6 3.9 C 68.6 4.4 68.9 4.7 69.3 4.7 C 69.5 4.7 69.7 4.6 69.8 4.5 C 69.9 4.4 69.9 4.2 69.9 3.9 C 69.95 3.94 69.9 1.8 69.9 1.8 L 71 1.8 L 71 5.6 L 69.9 5.6 L 69.9 5.1 C 69.9 5.1 69.95 5.07 69.9 5.1 Z " stroke="none" fill="#000"/>  </g></svg>