<?xml version="1.0" standalone="no"?><!DOCTYPE svg PUBLIC "-//W3C//DTD SVG 1.1//EN" "http://www.w3.org/Graphics/SVG/1.1/DTD/svg11.dtd"><svg xmlns="http://www.w3.org/2000/svg" version="1.1" width="134px" height="80.4px" viewBox="0 -3 134 80.4" style="top:-3px">  <desc>Havlu Ask s – Loop Magnet r n Kodu: ZD 27920 Renk: Siyah Malzeme: Silikon / M knat s l ler: 1,8 × 1 × 9 cm Adet: ...</desc>  <defs/>  <g id="Polygon79622">    <path d="M 2 59.6 L 2 55.2 L 0.3 55.2 L 0.3 54.7 L 4.2 54.7 L 4.2 55.2 L 2.5 55.2 L 2.5 59.6 L 2 59.6 Z M 7.5 59.1 C 7.2 59.5 6.7 59.7 6.2 59.7 C 5.8 59.7 5.5 59.6 5.2 59.4 C 5 59.2 4.8 58.9 4.8 58.5 C 4.8 58.5 4.8 58.5 4.8 58.5 C 4.8 58.2 5 57.9 5.2 57.7 C 5.5 57.5 5.9 57.4 6.4 57.4 C 6.7 57.4 7.1 57.4 7.5 57.5 C 7.5 57.5 7.5 57.4 7.5 57.4 C 7.5 57.1 7.4 56.8 7.2 56.7 C 7 56.5 6.7 56.4 6.4 56.4 C 6 56.4 5.7 56.5 5.3 56.7 C 5.3 56.7 5.1 56.2 5.1 56.2 C 5.6 56 6 55.9 6.5 55.9 C 7 55.9 7.4 56.1 7.6 56.3 C 7.9 56.6 8 56.9 8 57.4 C 7.99 57.39 8 59.6 8 59.6 L 7.5 59.6 L 7.5 59.1 C 7.5 59.1 7.48 59.05 7.5 59.1 Z M 6.3 59.2 C 6.6 59.2 6.9 59.2 7.1 59 C 7.4 58.8 7.5 58.6 7.5 58.3 C 7.5 58.3 7.5 57.9 7.5 57.9 C 7.1 57.8 6.8 57.8 6.4 57.8 C 6.1 57.8 5.8 57.8 5.6 58 C 5.5 58.1 5.4 58.3 5.4 58.5 C 5.4 58.5 5.4 58.5 5.4 58.5 C 5.4 58.7 5.5 58.9 5.6 59.1 C 5.8 59.2 6 59.2 6.3 59.2 Z M 10.3 59.7 C 9.8 59.7 9.3 59.5 8.8 59.1 C 8.8 59.1 9.1 58.8 9.1 58.8 C 9.5 59.1 9.9 59.2 10.4 59.2 C 10.6 59.2 10.8 59.2 10.9 59.1 C 11 59 11.1 58.8 11.1 58.6 C 11.1 58.6 11.1 58.6 11.1 58.6 C 11.1 58.5 11 58.3 10.9 58.2 C 10.7 58.2 10.5 58.1 10.2 58 C 10.1 58 10 57.9 9.9 57.9 C 9.9 57.9 9.8 57.8 9.7 57.8 C 9.5 57.8 9.5 57.7 9.4 57.7 C 9.3 57.6 9.3 57.6 9.2 57.5 C 9.1 57.4 9.1 57.4 9.1 57.3 C 9 57.2 9 57.1 9 57 C 9 57 9 57 9 57 C 9 56.6 9.1 56.4 9.4 56.2 C 9.6 56 9.9 55.9 10.2 55.9 C 10.7 55.9 11.1 56.1 11.5 56.3 C 11.5 56.3 11.3 56.7 11.3 56.7 C 10.9 56.5 10.6 56.4 10.2 56.4 C 10 56.4 9.9 56.4 9.7 56.5 C 9.6 56.6 9.5 56.7 9.5 56.9 C 9.5 56.9 9.5 56.9 9.5 56.9 C 9.5 57 9.6 57 9.6 57.1 C 9.6 57.1 9.7 57.2 9.7 57.2 C 9.8 57.3 9.8 57.3 9.9 57.4 C 10 57.4 10.1 57.4 10.2 57.4 C 10.2 57.5 10.3 57.5 10.5 57.5 C 10.6 57.6 10.7 57.6 10.8 57.6 C 10.9 57.7 11 57.7 11.1 57.8 C 11.2 57.8 11.3 57.9 11.4 58 C 11.5 58 11.5 58.1 11.6 58.2 C 11.6 58.3 11.6 58.4 11.6 58.6 C 11.6 58.6 11.6 58.6 11.6 58.6 C 11.6 58.9 11.5 59.2 11.3 59.4 C 11 59.6 10.7 59.7 10.3 59.7 Z M 15 59.1 C 14.7 59.5 14.3 59.7 13.7 59.7 C 13.3 59.7 13 59.6 12.8 59.4 C 12.5 59.2 12.4 58.9 12.4 58.5 C 12.4 58.5 12.4 58.5 12.4 58.5 C 12.4 58.2 12.5 57.9 12.8 57.7 C 13.1 57.5 13.4 57.4 13.9 57.4 C 14.3 57.4 14.6 57.4 15 57.5 C 15 57.5 15 57.4 15 57.4 C 15 57.1 14.9 56.8 14.7 56.7 C 14.5 56.5 14.3 56.4 13.9 56.4 C 13.6 56.4 13.2 56.5 12.8 56.7 C 12.8 56.7 12.7 56.2 12.7 56.2 C 13.1 56 13.5 55.9 14 55.9 C 14.5 55.9 14.9 56.1 15.2 56.3 C 15.4 56.6 15.5 56.9 15.5 57.4 C 15.53 57.39 15.5 59.6 15.5 59.6 L 15 59.6 L 15 59.1 C 15 59.1 15.01 59.05 15 59.1 Z M 13.8 59.2 C 14.2 59.2 14.4 59.2 14.7 59 C 14.9 58.8 15 58.6 15 58.3 C 15 58.3 15 57.9 15 57.9 C 14.7 57.8 14.3 57.8 14 57.8 C 13.6 57.8 13.4 57.8 13.2 58 C 13 58.1 12.9 58.3 12.9 58.5 C 12.9 58.5 12.9 58.5 12.9 58.5 C 12.9 58.7 13 58.9 13.2 59.1 C 13.3 59.2 13.6 59.2 13.8 59.2 Z M 16.7 59.6 L 16.7 56 L 17.2 56 C 17.2 56 17.22 56.93 17.2 56.9 C 17.4 56.6 17.6 56.4 17.8 56.2 C 18.1 56 18.4 55.9 18.7 55.9 C 18.7 55.92 18.7 56.5 18.7 56.5 C 18.7 56.5 18.65 56.5 18.7 56.5 C 18.2 56.5 17.9 56.6 17.6 56.9 C 17.4 57.2 17.2 57.6 17.2 58.2 C 17.22 58.16 17.2 59.6 17.2 59.6 L 16.7 59.6 Z M 19.6 59.6 L 19.6 56 L 20.1 56 L 20.1 59.6 L 19.6 59.6 Z M 21.4 59.6 L 21.4 56 L 21.9 56 C 21.9 56 21.9 56.59 21.9 56.6 C 22 56.4 22.2 56.2 22.4 56.1 C 22.6 56 22.8 55.9 23.1 55.9 C 23.6 55.9 24 56.1 24.2 56.6 C 24.5 56.1 25 55.9 25.5 55.9 C 25.9 55.9 26.2 56 26.5 56.3 C 26.7 56.6 26.8 56.9 26.8 57.4 C 26.84 57.36 26.8 59.6 26.8 59.6 L 26.3 59.6 C 26.3 59.6 26.31 57.49 26.3 57.5 C 26.3 57.1 26.2 56.9 26.1 56.7 C 25.9 56.5 25.7 56.4 25.4 56.4 C 25.1 56.4 24.9 56.5 24.7 56.7 C 24.5 56.9 24.4 57.2 24.4 57.5 C 24.37 57.51 24.4 59.6 24.4 59.6 L 23.8 59.6 C 23.8 59.6 23.83 57.47 23.8 57.5 C 23.8 57.1 23.8 56.9 23.6 56.7 C 23.4 56.5 23.2 56.4 22.9 56.4 C 22.6 56.4 22.4 56.5 22.2 56.7 C 22 56.9 21.9 57.2 21.9 57.5 C 21.9 57.53 21.9 59.6 21.9 59.6 L 21.4 59.6 Z M 28 56.7 L 28 56 L 28.6 56 L 28.6 56.7 L 28 56.7 Z M 28 59.6 L 28 58.9 L 28.6 58.9 L 28.6 59.6 L 28 59.6 Z M 33.6 59.6 L 31.5 54.7 L 32.2 54.7 L 33.9 58.9 L 35.7 54.7 L 36.2 54.7 L 34.1 59.6 L 33.6 59.6 Z M 37.2 59.6 L 37.2 54.7 L 40.8 54.7 L 40.8 55.2 L 37.8 55.2 L 37.8 56.9 L 40.4 56.9 L 40.4 57.4 L 37.8 57.4 L 37.8 59.1 L 40.8 59.1 L 40.8 59.6 L 37.2 59.6 Z M 41.5 59.6 L 41.5 59.2 C 41.5 59.2 43.32 57.6 43.3 57.6 C 43.7 57.3 44 57 44.1 56.8 C 44.3 56.5 44.3 56.3 44.3 56.1 C 44.3 55.8 44.2 55.6 44.1 55.4 C 43.9 55.2 43.6 55.1 43.4 55.1 C 43.1 55.1 42.9 55.2 42.7 55.3 C 42.4 55.5 42.2 55.7 42 56 C 42 56 41.6 55.7 41.6 55.7 C 41.9 55.3 42.1 55 42.4 54.9 C 42.7 54.7 43 54.6 43.4 54.6 C 43.8 54.6 44.2 54.8 44.5 55 C 44.8 55.3 44.9 55.6 44.9 56 C 44.9 56 44.9 56 44.9 56 C 44.9 56.4 44.8 56.7 44.6 56.9 C 44.5 57.2 44.1 57.5 43.7 57.9 C 43.68 57.93 42.4 59.1 42.4 59.1 L 45 59.1 L 45 59.6 L 41.5 59.6 Z " stroke="none" fill="#000"/>  </g>  <g id="Polygon79621">    <path d="M 0.3 50.6 L 2.5 45.7 L 3 45.7 L 5.3 50.6 L 4.7 50.6 L 4.1 49.3 L 1.4 49.3 L 0.8 50.6 L 0.3 50.6 Z M 1.6 48.8 L 3.9 48.8 L 2.8 46.3 L 1.6 48.8 Z M 9 49.9 C 8.7 50.4 8.2 50.7 7.7 50.7 C 7.2 50.7 6.8 50.5 6.4 50.2 C 6.1 49.8 5.9 49.4 5.9 48.8 C 5.9 48.8 5.9 48.8 5.9 48.8 C 5.9 48.2 6.1 47.8 6.4 47.4 C 6.8 47.1 7.2 46.9 7.7 46.9 C 8.2 46.9 8.7 47.2 9 47.7 C 9.04 47.67 9 45.5 9 45.5 L 9.6 45.5 L 9.6 50.6 L 9 50.6 L 9 49.9 C 9 49.9 9.04 49.87 9 49.9 Z M 7.7 50.2 C 8.1 50.2 8.4 50.1 8.7 49.8 C 8.9 49.5 9.1 49.2 9.1 48.8 C 9.1 48.8 9.1 48.8 9.1 48.8 C 9.1 48.4 8.9 48 8.7 47.8 C 8.4 47.5 8.1 47.4 7.7 47.4 C 7.4 47.4 7.1 47.5 6.8 47.8 C 6.6 48 6.5 48.4 6.5 48.8 C 6.5 48.8 6.5 48.8 6.5 48.8 C 6.5 49.2 6.6 49.6 6.8 49.8 C 7.1 50.1 7.4 50.2 7.7 50.2 Z M 13.9 50 C 13.5 50.5 13 50.7 12.4 50.7 C 11.9 50.7 11.4 50.5 11.1 50.2 C 10.7 49.8 10.6 49.4 10.6 48.8 C 10.6 48.8 10.6 48.8 10.6 48.8 C 10.6 48.3 10.7 47.8 11 47.4 C 11.4 47.1 11.8 46.9 12.3 46.9 C 12.8 46.9 13.2 47.1 13.5 47.4 C 13.8 47.8 14 48.3 14 48.8 C 14 48.9 14 48.9 14 49 C 14 49 11.1 49 11.1 49 C 11.1 49.4 11.3 49.7 11.5 49.9 C 11.8 50.1 12 50.2 12.4 50.2 C 12.8 50.2 13.2 50 13.5 49.7 C 13.52 49.7 13.9 50 13.9 50 C 13.9 50 13.85 50 13.9 50 Z M 11.1 48.6 C 11.1 48.6 13.4 48.6 13.4 48.6 C 13.4 48.2 13.3 47.9 13.1 47.7 C 12.9 47.5 12.6 47.4 12.3 47.4 C 12 47.4 11.7 47.5 11.5 47.7 C 11.3 47.9 11.1 48.2 11.1 48.6 Z M 16.8 50.5 C 16.6 50.6 16.4 50.7 16.1 50.7 C 15.8 50.7 15.6 50.6 15.4 50.4 C 15.2 50.2 15.1 50 15.1 49.6 C 15.11 49.64 15.1 47.5 15.1 47.5 L 14.6 47.5 L 14.6 47 L 15.1 47 L 15.1 45.9 L 15.7 45.9 L 15.7 47 L 16.8 47 L 16.8 47.5 L 15.7 47.5 C 15.7 47.5 15.65 49.57 15.7 49.6 C 15.7 50 15.9 50.2 16.3 50.2 C 16.4 50.2 16.6 50.1 16.8 50 C 16.79 50.05 16.8 50.5 16.8 50.5 C 16.8 50.5 16.79 50.51 16.8 50.5 Z M 17.7 47.7 L 17.7 47 L 18.4 47 L 18.4 47.7 L 17.7 47.7 Z M 17.7 50.6 L 17.7 49.9 L 18.4 49.9 L 18.4 50.6 L 17.7 50.6 Z M 23.4 50.7 C 22.8 50.7 22.4 50.5 22.1 50.2 C 21.9 50 21.7 49.7 21.6 49.4 C 21.5 49.1 21.5 48.8 21.5 48.3 C 21.5 48.3 21.5 48.3 21.5 48.3 C 21.5 47.5 21.6 46.9 22 46.4 C 22.4 45.9 22.9 45.6 23.5 45.6 C 24 45.6 24.5 45.8 24.9 46.2 C 24.9 46.2 24.6 46.6 24.6 46.6 C 24.2 46.3 23.9 46.1 23.5 46.1 C 23 46.1 22.7 46.3 22.4 46.7 C 22.1 47.1 22 47.6 22 48.2 C 22 48.2 22 48.3 22 48.3 C 22.4 47.8 22.8 47.5 23.4 47.5 C 23.9 47.5 24.3 47.7 24.6 48 C 25 48.2 25.1 48.6 25.1 49 C 25.1 49 25.1 49.1 25.1 49.1 C 25.1 49.5 24.9 49.9 24.6 50.2 C 24.3 50.5 23.9 50.7 23.4 50.7 Z M 23.4 50.2 C 23.7 50.2 24 50.1 24.2 49.9 C 24.4 49.7 24.5 49.4 24.5 49.1 C 24.5 49.1 24.5 49.1 24.5 49.1 C 24.5 48.8 24.4 48.5 24.2 48.3 C 24 48.1 23.7 48 23.4 48 C 23 48 22.7 48.1 22.5 48.3 C 22.2 48.6 22.1 48.8 22.1 49.1 C 22.1 49.1 22.1 49.1 22.1 49.1 C 22.1 49.4 22.2 49.7 22.5 49.9 C 22.7 50.1 23 50.2 23.4 50.2 Z M 26 47.3 C 26 47.3 25.9 47 25.9 47 C 26.3 46.9 26.4 46.7 26.4 46.4 C 26.38 46.43 26.1 46.4 26.1 46.4 L 26.1 45.7 L 26.8 45.7 C 26.8 45.7 26.77 46.33 26.8 46.3 C 26.8 46.6 26.7 46.8 26.6 47 C 26.5 47.1 26.3 47.2 26 47.3 Z M 27.9 50.6 L 27.9 45.5 L 28.5 45.5 L 28.5 50.6 L 27.9 50.6 Z M 29.8 50.6 L 29.8 47 L 30.3 47 L 30.3 50.6 L 29.8 50.6 Z M 35.4 50.7 C 34.7 50.7 34 50.4 33.4 49.9 C 33.4 49.9 33.8 49.5 33.8 49.5 C 34 49.7 34.3 49.9 34.6 50 C 34.8 50.1 35.1 50.2 35.4 50.2 C 35.8 50.2 36 50.1 36.2 49.9 C 36.4 49.8 36.5 49.6 36.5 49.3 C 36.5 49.3 36.5 49.3 36.5 49.3 C 36.5 49.1 36.5 48.9 36.3 48.8 C 36.1 48.6 35.8 48.5 35.3 48.4 C 34.7 48.3 34.3 48.1 34 47.9 C 33.7 47.7 33.6 47.4 33.6 47 C 33.6 47 33.6 47 33.6 47 C 33.6 46.6 33.8 46.3 34.1 46 C 34.4 45.8 34.8 45.6 35.2 45.6 C 35.6 45.6 35.9 45.7 36.2 45.8 C 36.4 45.9 36.7 46 37 46.2 C 37 46.2 36.6 46.7 36.6 46.7 C 36.2 46.3 35.7 46.1 35.2 46.1 C 34.9 46.1 34.6 46.2 34.5 46.4 C 34.3 46.5 34.2 46.7 34.2 46.9 C 34.2 46.9 34.2 46.9 34.2 46.9 C 34.2 47.2 34.3 47.4 34.4 47.5 C 34.6 47.7 35 47.8 35.5 47.9 C 36.1 48 36.5 48.2 36.7 48.4 C 37 48.6 37.1 48.9 37.1 49.3 C 37.1 49.3 37.1 49.3 37.1 49.3 C 37.1 49.7 36.9 50 36.6 50.3 C 36.3 50.5 35.9 50.7 35.4 50.7 Z M 41.2 50 C 40.8 50.5 40.3 50.7 39.7 50.7 C 39.2 50.7 38.8 50.5 38.4 50.2 C 38.1 49.8 37.9 49.4 37.9 48.8 C 37.9 48.8 37.9 48.8 37.9 48.8 C 37.9 48.3 38.1 47.8 38.4 47.4 C 38.7 47.1 39.1 46.9 39.6 46.9 C 40.2 46.9 40.6 47.1 40.9 47.4 C 41.2 47.8 41.3 48.3 41.3 48.8 C 41.3 48.9 41.3 48.9 41.3 49 C 41.3 49 38.5 49 38.5 49 C 38.5 49.4 38.6 49.7 38.9 49.9 C 39.1 50.1 39.4 50.2 39.7 50.2 C 40.2 50.2 40.5 50 40.9 49.7 C 40.87 49.7 41.2 50 41.2 50 C 41.2 50 41.21 50 41.2 50 Z M 38.5 48.6 C 38.5 48.6 40.8 48.6 40.8 48.6 C 40.8 48.2 40.6 47.9 40.4 47.7 C 40.3 47.5 40 47.4 39.6 47.4 C 39.3 47.4 39.1 47.5 38.8 47.7 C 38.6 47.9 38.5 48.2 38.5 48.6 Z M 44.1 50.5 C 44 50.6 43.7 50.7 43.5 50.7 C 43.2 50.7 42.9 50.6 42.7 50.4 C 42.6 50.2 42.5 50 42.5 49.6 C 42.47 49.64 42.5 47.5 42.5 47.5 L 42 47.5 L 42 47 L 42.5 47 L 42.5 45.9 L 43 45.9 L 43 47 L 44.2 47 L 44.2 47.5 L 43 47.5 C 43 47.5 43.01 49.57 43 49.6 C 43 50 43.2 50.2 43.6 50.2 C 43.8 50.2 44 50.1 44.1 50 C 44.14 50.05 44.1 50.5 44.1 50.5 C 44.1 50.5 44.14 50.51 44.1 50.5 Z " stroke="none" fill="#000"/>  </g>  <g id="Polygon79620">    <path d="M 3.3 36.2 L 3.3 35.6 L 4 35.6 L 4 36.2 L 3.3 36.2 Z M 2 36.2 L 2 35.6 L 2.6 35.6 L 2.6 36.2 L 2 36.2 Z M 5.5 39.1 C 5.5 39.8 5.2 40.4 4.8 40.9 C 4.3 41.4 3.7 41.7 3 41.7 C 2.2 41.7 1.6 41.4 1.2 40.9 C 0.7 40.5 0.5 39.9 0.5 39.2 C 0.5 39.2 0.5 39.1 0.5 39.1 C 0.5 38.5 0.7 37.9 1.2 37.4 C 1.7 36.9 2.3 36.6 3 36.6 C 3.7 36.6 4.3 36.9 4.8 37.4 C 5.2 37.8 5.5 38.4 5.5 39.1 C 5.47 39.14 5.5 39.1 5.5 39.1 C 5.5 39.1 5.47 39.15 5.5 39.1 Z M 1.1 39.1 C 1.1 39.7 1.2 40.2 1.6 40.6 C 2 41 2.4 41.2 3 41.2 C 3.5 41.2 4 41 4.4 40.6 C 4.7 40.2 4.9 39.7 4.9 39.2 C 4.9 39.2 4.9 39.1 4.9 39.1 C 4.9 38.6 4.7 38.1 4.4 37.7 C 4 37.3 3.5 37.1 3 37.1 C 2.4 37.1 2 37.3 1.6 37.7 C 1.2 38.1 1.1 38.6 1.1 39.1 C 1.05 39.14 1.1 39.1 1.1 39.1 C 1.1 39.1 1.05 39.15 1.1 39.1 Z M 6.6 41.6 L 6.6 36.5 L 7.1 36.5 L 7.1 41.6 L 6.6 41.6 Z M 9.7 42.7 L 9.1 42.4 C 9.1 42.4 9.69 41.65 9.7 41.6 C 9.2 41.6 8.9 41.4 8.6 41 C 8.3 40.7 8.2 40.3 8.2 39.8 C 8.2 39.8 8.2 39.8 8.2 39.8 C 8.2 39.3 8.3 38.8 8.7 38.5 C 9.1 38.1 9.5 37.9 10 37.9 C 10.6 37.9 11.1 38.1 11.5 38.5 C 11.5 38.5 11.1 38.9 11.1 38.9 C 10.8 38.6 10.4 38.4 10 38.4 C 9.6 38.4 9.3 38.5 9.1 38.8 C 8.8 39.1 8.7 39.4 8.7 39.8 C 8.7 39.8 8.7 39.8 8.7 39.8 C 8.7 40.2 8.8 40.5 9.1 40.8 C 9.4 41.1 9.7 41.2 10.1 41.2 C 10.5 41.2 10.8 41 11.2 40.7 C 11.2 40.7 11.5 41 11.5 41 C 11.1 41.4 10.7 41.7 10.1 41.7 C 10.13 41.68 9.7 42.7 9.7 42.7 Z M 14.2 37.4 L 14.2 36.8 L 14.8 36.8 L 14.8 37.4 L 14.2 37.4 Z M 13 37.4 L 13 36.8 L 13.6 36.8 L 13.6 37.4 L 13 37.4 Z M 15 41 C 14.7 41.4 14.3 41.7 13.7 41.7 C 13.3 41.7 13 41.5 12.7 41.3 C 12.5 41 12.3 40.7 12.3 40.2 C 12.33 40.23 12.3 38 12.3 38 L 12.9 38 C 12.9 38 12.87 40.09 12.9 40.1 C 12.9 40.4 13 40.7 13.1 40.9 C 13.3 41.1 13.6 41.2 13.9 41.2 C 14.2 41.2 14.4 41.1 14.7 40.9 C 14.9 40.7 15 40.4 15 40.1 C 14.96 40.05 15 38 15 38 L 15.5 38 L 15.5 41.6 L 15 41.6 L 15 41 C 15 41 14.96 40.97 15 41 Z M 16.8 41.6 L 16.8 36.5 L 17.3 36.5 L 17.3 41.6 L 16.8 41.6 Z M 21.6 41 C 21.2 41.5 20.7 41.7 20.1 41.7 C 19.6 41.7 19.2 41.5 18.8 41.2 C 18.5 40.8 18.3 40.4 18.3 39.8 C 18.3 39.8 18.3 39.8 18.3 39.8 C 18.3 39.3 18.5 38.8 18.8 38.4 C 19.1 38.1 19.6 37.9 20.1 37.9 C 20.6 37.9 21 38.1 21.3 38.4 C 21.6 38.8 21.7 39.3 21.7 39.8 C 21.7 39.9 21.7 39.9 21.7 40 C 21.7 40 18.9 40 18.9 40 C 18.9 40.4 19 40.7 19.3 40.9 C 19.5 41.1 19.8 41.2 20.1 41.2 C 20.6 41.2 20.9 41 21.3 40.7 C 21.28 40.7 21.6 41 21.6 41 C 21.6 41 21.62 41 21.6 41 Z M 18.9 39.6 C 18.9 39.6 21.2 39.6 21.2 39.6 C 21.2 39.2 21.1 38.9 20.9 38.7 C 20.7 38.5 20.4 38.4 20 38.4 C 19.7 38.4 19.5 38.5 19.2 38.7 C 19 38.9 18.9 39.2 18.9 39.6 Z M 22.7 41.6 L 22.7 38 L 23.2 38 C 23.2 38 23.23 38.93 23.2 38.9 C 23.4 38.6 23.6 38.4 23.8 38.2 C 24.1 38 24.4 37.9 24.7 37.9 C 24.7 37.92 24.7 38.5 24.7 38.5 C 24.7 38.5 24.66 38.5 24.7 38.5 C 24.2 38.5 23.9 38.6 23.6 38.9 C 23.4 39.2 23.2 39.6 23.2 40.2 C 23.23 40.16 23.2 41.6 23.2 41.6 L 22.7 41.6 Z M 25.5 38.7 L 25.5 38 L 26.1 38 L 26.1 38.7 L 25.5 38.7 Z M 25.5 41.6 L 25.5 40.9 L 26.1 40.9 L 26.1 41.6 L 25.5 41.6 Z M 30.1 41.6 L 30.1 37.2 L 29.1 37.5 L 29 37.1 L 30.2 36.7 L 30.6 36.7 L 30.6 41.6 L 30.1 41.6 Z M 31.7 42.5 C 31.7 42.5 31.6 42.2 31.6 42.2 C 32 42.1 32.1 41.9 32.1 41.6 C 32.09 41.6 31.8 41.6 31.8 41.6 L 31.8 40.9 L 32.5 40.9 C 32.5 40.9 32.49 41.49 32.5 41.5 C 32.5 41.8 32.4 42 32.3 42.1 C 32.2 42.3 32 42.4 31.7 42.5 Z M 37.1 40.3 C 37.1 40.7 36.9 41 36.5 41.3 C 36.2 41.5 35.8 41.7 35.2 41.7 C 34.7 41.7 34.3 41.5 33.9 41.3 C 33.6 41 33.4 40.7 33.4 40.3 C 33.4 40.3 33.4 40.3 33.4 40.3 C 33.4 40 33.5 39.7 33.7 39.5 C 33.8 39.3 34.1 39.2 34.4 39.1 C 33.8 38.8 33.6 38.4 33.6 37.9 C 33.6 37.9 33.6 37.9 33.6 37.9 C 33.6 37.6 33.7 37.2 34 37 C 34.4 36.8 34.8 36.6 35.2 36.6 C 35.7 36.6 36.1 36.8 36.4 37 C 36.7 37.2 36.9 37.6 36.9 37.9 C 36.9 37.9 36.9 37.9 36.9 37.9 C 36.9 38.4 36.6 38.8 36.1 39.1 C 36.4 39.2 36.6 39.3 36.8 39.5 C 37 39.7 37.1 40 37.1 40.3 C 37.06 40.26 37.1 40.3 37.1 40.3 C 37.1 40.3 37.06 40.28 37.1 40.3 Z M 34.1 38 C 34.1 38.2 34.2 38.4 34.4 38.6 C 34.6 38.8 34.9 38.9 35.2 38.9 C 35.5 38.9 35.8 38.8 36 38.6 C 36.2 38.4 36.3 38.2 36.3 38 C 36.3 38 36.3 38 36.3 38 C 36.3 37.7 36.2 37.5 36 37.4 C 35.8 37.2 35.5 37.1 35.2 37.1 C 34.9 37.1 34.6 37.2 34.4 37.4 C 34.2 37.5 34.1 37.7 34.1 38 C 34.1 37.96 34.1 38 34.1 38 C 34.1 38 34.1 37.97 34.1 38 Z M 33.9 40.3 C 33.9 40.5 34.1 40.7 34.3 40.9 C 34.5 41.1 34.8 41.2 35.2 41.2 C 35.6 41.2 35.9 41.1 36.2 40.9 C 36.4 40.7 36.5 40.5 36.5 40.3 C 36.5 40.3 36.5 40.3 36.5 40.3 C 36.5 40 36.4 39.8 36.1 39.6 C 35.9 39.4 35.6 39.3 35.2 39.3 C 34.9 39.3 34.6 39.4 34.3 39.6 C 34.1 39.8 33.9 40 33.9 40.3 C 33.94 40.26 33.9 40.3 33.9 40.3 C 33.9 40.3 33.94 40.27 33.9 40.3 Z M 42.9 40.7 L 41.7 39.5 L 40.5 40.7 L 40.1 40.4 L 41.4 39.1 L 40.1 37.9 L 40.5 37.6 L 41.7 38.8 L 42.9 37.6 L 43.3 37.9 L 42.1 39.1 L 43.3 40.3 L 42.9 40.7 Z M 47.3 41.6 L 47.3 37.2 L 46.3 37.5 L 46.2 37.1 L 47.4 36.7 L 47.8 36.7 L 47.8 41.6 L 47.3 41.6 Z M 54 40.7 L 52.8 39.5 L 51.6 40.7 L 51.2 40.4 L 52.5 39.1 L 51.2 37.9 L 51.6 37.6 L 52.8 38.8 L 54 37.6 L 54.4 37.9 L 53.1 39.1 L 54.4 40.3 L 54 40.7 Z M 58 40.7 C 58.4 41 58.8 41.2 59.2 41.2 C 59.6 41.2 60 41 60.2 40.6 C 60.5 40.2 60.6 39.7 60.6 39.1 C 60.6 39.1 60.6 39 60.6 39 C 60.3 39.6 59.8 39.8 59.2 39.8 C 58.7 39.8 58.3 39.7 58 39.4 C 57.7 39.1 57.5 38.7 57.5 38.3 C 57.5 38.3 57.5 38.3 57.5 38.3 C 57.5 37.8 57.7 37.4 58 37.1 C 58.4 36.8 58.8 36.6 59.3 36.6 C 59.8 36.6 60.2 36.8 60.6 37.1 C 61 37.5 61.2 38.2 61.2 39 C 61.2 39 61.2 39 61.2 39 C 61.2 39.8 61 40.4 60.6 40.9 C 60.2 41.4 59.8 41.7 59.1 41.7 C 58.6 41.7 58.1 41.5 57.6 41.1 C 57.64 41.08 58 40.7 58 40.7 C 58 40.7 57.96 40.65 58 40.7 Z M 59.3 39.3 C 59.7 39.3 60 39.2 60.2 39 C 60.4 38.8 60.5 38.5 60.5 38.2 C 60.5 38.2 60.5 38.2 60.5 38.2 C 60.5 37.9 60.4 37.6 60.2 37.4 C 59.9 37.2 59.6 37.1 59.3 37.1 C 58.9 37.1 58.6 37.2 58.4 37.4 C 58.2 37.7 58.1 37.9 58.1 38.3 C 58.1 38.3 58.1 38.3 58.1 38.3 C 58.1 38.6 58.2 38.8 58.4 39 C 58.7 39.2 58.9 39.3 59.3 39.3 Z M 67.4 41 C 67 41.5 66.5 41.7 65.9 41.7 C 65.4 41.7 65 41.5 64.6 41.1 C 64.3 40.8 64.1 40.3 64.1 39.8 C 64.1 39.8 64.1 39.8 64.1 39.8 C 64.1 39.3 64.3 38.8 64.6 38.5 C 65 38.1 65.4 37.9 65.9 37.9 C 66.5 37.9 67 38.1 67.4 38.5 C 67.4 38.5 67 38.9 67 38.9 C 66.7 38.6 66.3 38.4 65.9 38.4 C 65.6 38.4 65.3 38.5 65 38.8 C 64.8 39.1 64.6 39.4 64.6 39.8 C 64.6 39.8 64.6 39.8 64.6 39.8 C 64.6 40.2 64.8 40.5 65 40.8 C 65.3 41.1 65.6 41.2 66 41.2 C 66.4 41.2 66.7 41 67.1 40.7 C 67.08 40.66 67.4 41 67.4 41 C 67.4 41 67.42 40.98 67.4 41 Z M 68.3 41.6 L 68.3 38 L 68.9 38 C 68.9 38 68.85 38.59 68.9 38.6 C 69 38.4 69.2 38.2 69.3 38.1 C 69.5 38 69.7 37.9 70 37.9 C 70.6 37.9 71 38.1 71.2 38.6 C 71.5 38.1 71.9 37.9 72.5 37.9 C 72.9 37.9 73.2 38 73.4 38.3 C 73.7 38.6 73.8 38.9 73.8 39.4 C 73.8 39.36 73.8 41.6 73.8 41.6 L 73.3 41.6 C 73.3 41.6 73.26 39.49 73.3 39.5 C 73.3 39.1 73.2 38.9 73 38.7 C 72.8 38.5 72.6 38.4 72.3 38.4 C 72 38.4 71.8 38.5 71.6 38.7 C 71.4 38.9 71.3 39.2 71.3 39.5 C 71.32 39.51 71.3 41.6 71.3 41.6 L 70.8 41.6 C 70.8 41.6 70.79 39.47 70.8 39.5 C 70.8 39.1 70.7 38.9 70.5 38.7 C 70.4 38.5 70.1 38.4 69.9 38.4 C 69.6 38.4 69.3 38.5 69.1 38.7 C 68.9 38.9 68.9 39.2 68.9 39.5 C 68.85 39.53 68.9 41.6 68.9 41.6 L 68.3 41.6 Z " stroke="none" fill="#000"/>  </g>  <g id="Polygon79619">    <path d="M 0.7 32.6 L 0.7 27.7 L 1.3 27.7 L 3 30.4 L 4.8 27.7 L 5.4 27.7 L 5.4 32.6 L 4.8 32.6 L 4.8 28.6 L 3 31.3 L 3 31.3 L 1.2 28.6 L 1.2 32.6 L 0.7 32.6 Z M 9.1 32.1 C 8.7 32.5 8.3 32.7 7.8 32.7 C 7.4 32.7 7.1 32.6 6.8 32.4 C 6.5 32.2 6.4 31.9 6.4 31.5 C 6.4 31.5 6.4 31.5 6.4 31.5 C 6.4 31.2 6.5 30.9 6.8 30.7 C 7.1 30.5 7.5 30.4 8 30.4 C 8.3 30.4 8.7 30.4 9.1 30.5 C 9.1 30.5 9.1 30.4 9.1 30.4 C 9.1 30.1 9 29.8 8.8 29.7 C 8.6 29.5 8.3 29.4 8 29.4 C 7.6 29.4 7.3 29.5 6.9 29.7 C 6.9 29.7 6.7 29.2 6.7 29.2 C 7.2 29 7.6 28.9 8 28.9 C 8.6 28.9 8.9 29.1 9.2 29.3 C 9.5 29.6 9.6 29.9 9.6 30.4 C 9.58 30.39 9.6 32.6 9.6 32.6 L 9.1 32.6 L 9.1 32.1 C 9.1 32.1 9.06 32.05 9.1 32.1 Z M 7.9 32.2 C 8.2 32.2 8.5 32.2 8.7 32 C 9 31.8 9.1 31.6 9.1 31.3 C 9.1 31.3 9.1 30.9 9.1 30.9 C 8.7 30.8 8.4 30.8 8 30.8 C 7.7 30.8 7.4 30.8 7.2 31 C 7 31.1 7 31.3 7 31.5 C 7 31.5 7 31.5 7 31.5 C 7 31.7 7 31.9 7.2 32.1 C 7.4 32.2 7.6 32.2 7.9 32.2 Z M 10.8 32.6 L 10.8 27.5 L 11.3 27.5 L 11.3 32.6 L 10.8 32.6 Z M 12.4 32.6 L 12.4 32.3 L 14.8 29.4 L 12.4 29.4 L 12.4 29 L 15.5 29 L 15.5 29.3 L 13.1 32.1 L 15.5 32.1 L 15.5 32.6 L 12.4 32.6 Z M 19.5 32 C 19.1 32.5 18.6 32.7 18 32.7 C 17.5 32.7 17.1 32.5 16.8 32.2 C 16.4 31.8 16.2 31.4 16.2 30.8 C 16.2 30.8 16.2 30.8 16.2 30.8 C 16.2 30.3 16.4 29.8 16.7 29.4 C 17.1 29.1 17.5 28.9 18 28.9 C 18.5 28.9 18.9 29.1 19.2 29.4 C 19.5 29.8 19.7 30.3 19.7 30.8 C 19.7 30.9 19.7 30.9 19.7 31 C 19.7 31 16.8 31 16.8 31 C 16.8 31.4 17 31.7 17.2 31.9 C 17.4 32.1 17.7 32.2 18.1 32.2 C 18.5 32.2 18.9 32 19.2 31.7 C 19.2 31.7 19.5 32 19.5 32 C 19.5 32 19.54 32 19.5 32 Z M 16.8 30.6 C 16.8 30.6 19.1 30.6 19.1 30.6 C 19.1 30.2 19 29.9 18.8 29.7 C 18.6 29.5 18.3 29.4 18 29.4 C 17.6 29.4 17.4 29.5 17.2 29.7 C 17 29.9 16.8 30.2 16.8 30.6 Z M 20.6 32.6 L 20.6 29 L 21.1 29 C 21.1 29 21.15 29.59 21.1 29.6 C 21.3 29.4 21.5 29.2 21.6 29.1 C 21.8 29 22 28.9 22.3 28.9 C 22.9 28.9 23.2 29.1 23.5 29.6 C 23.8 29.1 24.2 28.9 24.8 28.9 C 25.2 28.9 25.5 29 25.7 29.3 C 26 29.6 26.1 29.9 26.1 30.4 C 26.1 30.36 26.1 32.6 26.1 32.6 L 25.6 32.6 C 25.6 32.6 25.56 30.49 25.6 30.5 C 25.6 30.1 25.5 29.9 25.3 29.7 C 25.1 29.5 24.9 29.4 24.6 29.4 C 24.3 29.4 24.1 29.5 23.9 29.7 C 23.7 29.9 23.6 30.2 23.6 30.5 C 23.62 30.51 23.6 32.6 23.6 32.6 L 23.1 32.6 C 23.1 32.6 23.09 30.47 23.1 30.5 C 23.1 30.1 23 29.9 22.8 29.7 C 22.7 29.5 22.4 29.4 22.2 29.4 C 21.9 29.4 21.6 29.5 21.4 29.7 C 21.2 29.9 21.1 30.2 21.1 30.5 C 21.15 30.53 21.1 32.6 21.1 32.6 L 20.6 32.6 Z M 30.3 32 C 29.9 32.5 29.4 32.7 28.8 32.7 C 28.3 32.7 27.9 32.5 27.5 32.2 C 27.2 31.8 27 31.4 27 30.8 C 27 30.8 27 30.8 27 30.8 C 27 30.3 27.2 29.8 27.5 29.4 C 27.8 29.1 28.3 28.9 28.8 28.9 C 29.3 28.9 29.7 29.1 30 29.4 C 30.3 29.8 30.4 30.3 30.4 30.8 C 30.4 30.9 30.4 30.9 30.4 31 C 30.4 31 27.6 31 27.6 31 C 27.6 31.4 27.7 31.7 28 31.9 C 28.2 32.1 28.5 32.2 28.8 32.2 C 29.3 32.2 29.6 32 30 31.7 C 29.98 31.7 30.3 32 30.3 32 C 30.3 32 30.32 32 30.3 32 Z M 27.6 30.6 C 27.6 30.6 29.9 30.6 29.9 30.6 C 29.9 30.2 29.8 29.9 29.6 29.7 C 29.4 29.5 29.1 29.4 28.7 29.4 C 28.4 29.4 28.2 29.5 27.9 29.7 C 27.7 29.9 27.6 30.2 27.6 30.6 Z M 31.4 29.7 L 31.4 29 L 32 29 L 32 29.7 L 31.4 29.7 Z M 31.4 32.6 L 31.4 31.9 L 32 31.9 L 32 32.6 L 31.4 32.6 Z M 37 32.7 C 36.3 32.7 35.6 32.4 35 31.9 C 35 31.9 35.4 31.5 35.4 31.5 C 35.6 31.7 35.9 31.9 36.2 32 C 36.4 32.1 36.7 32.2 37.1 32.2 C 37.4 32.2 37.6 32.1 37.8 31.9 C 38 31.8 38.1 31.6 38.1 31.3 C 38.1 31.3 38.1 31.3 38.1 31.3 C 38.1 31.1 38.1 30.9 37.9 30.8 C 37.7 30.6 37.4 30.5 36.9 30.4 C 36.3 30.3 35.9 30.1 35.6 29.9 C 35.4 29.7 35.2 29.4 35.2 29 C 35.2 29 35.2 29 35.2 29 C 35.2 28.6 35.4 28.3 35.7 28 C 36 27.8 36.4 27.6 36.8 27.6 C 37.2 27.6 37.5 27.7 37.8 27.8 C 38 27.9 38.3 28 38.6 28.2 C 38.6 28.2 38.2 28.7 38.2 28.7 C 37.8 28.3 37.3 28.1 36.8 28.1 C 36.5 28.1 36.3 28.2 36.1 28.4 C 35.9 28.5 35.8 28.7 35.8 28.9 C 35.8 28.9 35.8 28.9 35.8 28.9 C 35.8 29.2 35.9 29.4 36.1 29.5 C 36.2 29.7 36.6 29.8 37.1 29.9 C 37.7 30 38.1 30.2 38.3 30.4 C 38.6 30.6 38.7 30.9 38.7 31.3 C 38.7 31.3 38.7 31.3 38.7 31.3 C 38.7 31.7 38.6 32 38.2 32.3 C 37.9 32.5 37.5 32.7 37 32.7 Z M 39.8 28.2 L 39.8 27.6 L 40.4 27.6 L 40.4 28.2 L 39.8 28.2 Z M 39.8 32.6 L 39.8 29 L 40.3 29 L 40.3 32.6 L 39.8 32.6 Z M 41.6 32.6 L 41.6 27.5 L 42.2 27.5 L 42.2 32.6 L 41.6 32.6 Z M 43.4 28.2 L 43.4 27.6 L 44.1 27.6 L 44.1 28.2 L 43.4 28.2 Z M 43.5 32.6 L 43.5 29 L 44 29 L 44 32.6 L 43.5 32.6 Z M 45.3 32.6 L 45.3 27.5 L 45.8 27.5 L 45.8 31 L 47.8 29 L 48.4 29 L 46.9 30.5 L 48.5 32.6 L 47.8 32.6 L 46.5 30.9 L 45.8 31.7 L 45.8 32.6 L 45.3 32.6 Z M 50.9 32.7 C 50.4 32.7 49.9 32.5 49.6 32.1 C 49.2 31.8 49 31.3 49 30.8 C 49 30.8 49 30.8 49 30.8 C 49 30.3 49.2 29.8 49.6 29.5 C 49.9 29.1 50.4 28.9 50.9 28.9 C 51.5 28.9 51.9 29.1 52.3 29.5 C 52.6 29.8 52.8 30.3 52.8 30.8 C 52.8 30.8 52.8 30.8 52.8 30.8 C 52.8 31.3 52.6 31.8 52.3 32.1 C 51.9 32.5 51.4 32.7 50.9 32.7 Z M 50.9 32.2 C 51.3 32.2 51.6 32.1 51.9 31.8 C 52.1 31.5 52.2 31.2 52.2 30.8 C 52.2 30.8 52.2 30.8 52.2 30.8 C 52.2 30.4 52.1 30.1 51.9 29.8 C 51.6 29.5 51.3 29.4 50.9 29.4 C 50.5 29.4 50.2 29.5 50 29.8 C 49.7 30.1 49.6 30.4 49.6 30.8 C 49.6 30.8 49.6 30.8 49.6 30.8 C 49.6 31.2 49.7 31.5 50 31.8 C 50.2 32.1 50.5 32.2 50.9 32.2 Z M 53.8 32.6 L 53.8 29 L 54.3 29 C 54.3 29 54.31 29.61 54.3 29.6 C 54.6 29.1 55 28.9 55.6 28.9 C 56 28.9 56.3 29 56.6 29.3 C 56.8 29.6 56.9 29.9 56.9 30.4 C 56.94 30.35 56.9 32.6 56.9 32.6 L 56.4 32.6 C 56.4 32.6 56.4 30.49 56.4 30.5 C 56.4 30.1 56.3 29.9 56.1 29.7 C 56 29.5 55.7 29.4 55.4 29.4 C 55.1 29.4 54.8 29.5 54.6 29.7 C 54.4 29.9 54.3 30.2 54.3 30.5 C 54.31 30.53 54.3 32.6 54.3 32.6 L 53.8 32.6 Z M 59.4 33.5 L 62.7 27 L 63.2 27 L 59.9 33.5 L 59.4 33.5 Z M 65.9 32.6 L 65.9 27.7 L 66.5 27.7 L 68.3 30.4 L 70.1 27.7 L 70.6 27.7 L 70.6 32.6 L 70.1 32.6 L 70.1 28.6 L 68.3 31.3 L 68.3 31.3 L 66.5 28.6 L 66.5 32.6 L 65.9 32.6 Z M 72 32.6 L 72 29 L 72.5 29 L 72.5 32.6 L 72 32.6 Z M 73.8 32.6 L 73.8 27.5 L 74.3 27.5 L 74.3 31 L 76.2 29 L 76.9 29 L 75.4 30.5 L 77 32.6 L 76.3 32.6 L 75 30.9 L 74.3 31.7 L 74.3 32.6 L 73.8 32.6 Z M 77.7 32.6 L 77.7 29 L 78.3 29 C 78.3 29 78.28 29.61 78.3 29.6 C 78.6 29.1 79 28.9 79.5 28.9 C 79.9 28.9 80.3 29 80.5 29.3 C 80.8 29.6 80.9 29.9 80.9 30.4 C 80.9 30.35 80.9 32.6 80.9 32.6 L 80.4 32.6 C 80.4 32.6 80.37 30.49 80.4 30.5 C 80.4 30.1 80.3 29.9 80.1 29.7 C 79.9 29.5 79.7 29.4 79.4 29.4 C 79.1 29.4 78.8 29.5 78.6 29.7 C 78.4 29.9 78.3 30.2 78.3 30.5 C 78.28 30.53 78.3 32.6 78.3 32.6 L 77.7 32.6 Z M 84.4 32.1 C 84.1 32.5 83.7 32.7 83.1 32.7 C 82.8 32.7 82.5 32.6 82.2 32.4 C 81.9 32.2 81.8 31.9 81.8 31.5 C 81.8 31.5 81.8 31.5 81.8 31.5 C 81.8 31.2 81.9 30.9 82.2 30.7 C 82.5 30.5 82.9 30.4 83.3 30.4 C 83.7 30.4 84.1 30.4 84.4 30.5 C 84.4 30.5 84.4 30.4 84.4 30.4 C 84.4 30.1 84.3 29.8 84.2 29.7 C 84 29.5 83.7 29.4 83.4 29.4 C 83 29.4 82.6 29.5 82.3 29.7 C 82.3 29.7 82.1 29.2 82.1 29.2 C 82.5 29 83 28.9 83.4 28.9 C 83.9 28.9 84.3 29.1 84.6 29.3 C 84.8 29.6 85 29.9 85 30.4 C 84.96 30.39 85 32.6 85 32.6 L 84.4 32.6 L 84.4 32.1 C 84.4 32.1 84.44 32.05 84.4 32.1 Z M 83.2 32.2 C 83.6 32.2 83.9 32.2 84.1 32 C 84.3 31.8 84.4 31.6 84.4 31.3 C 84.4 31.3 84.4 30.9 84.4 30.9 C 84.1 30.8 83.7 30.8 83.4 30.8 C 83 30.8 82.8 30.8 82.6 31 C 82.4 31.1 82.3 31.3 82.3 31.5 C 82.3 31.5 82.3 31.5 82.3 31.5 C 82.3 31.7 82.4 31.9 82.6 32.1 C 82.8 32.2 83 32.2 83.2 32.2 Z M 88 32.5 C 87.8 32.6 87.6 32.7 87.3 32.7 C 87 32.7 86.8 32.6 86.6 32.4 C 86.4 32.2 86.3 32 86.3 31.6 C 86.29 31.64 86.3 29.5 86.3 29.5 L 85.8 29.5 L 85.8 29 L 86.3 29 L 86.3 27.9 L 86.8 27.9 L 86.8 29 L 88 29 L 88 29.5 L 86.8 29.5 C 86.8 29.5 86.83 31.57 86.8 31.6 C 86.8 32 87 32.2 87.4 32.2 C 87.6 32.2 87.8 32.1 88 32 C 87.97 32.05 88 32.5 88 32.5 C 88 32.5 87.97 32.51 88 32.5 Z M 89 32.6 L 89 29 L 89.5 29 L 89.5 32.6 L 89 32.6 Z M 92 32.7 C 91.4 32.7 90.9 32.5 90.5 32.1 C 90.5 32.1 90.7 31.8 90.7 31.8 C 91.1 32.1 91.6 32.2 92 32.2 C 92.2 32.2 92.4 32.2 92.5 32.1 C 92.7 32 92.7 31.8 92.7 31.6 C 92.7 31.6 92.7 31.6 92.7 31.6 C 92.7 31.5 92.7 31.3 92.5 31.2 C 92.4 31.2 92.1 31.1 91.8 31 C 91.7 31 91.6 30.9 91.6 30.9 C 91.5 30.9 91.4 30.8 91.3 30.8 C 91.2 30.8 91.1 30.7 91 30.7 C 91 30.6 90.9 30.6 90.8 30.5 C 90.8 30.4 90.7 30.4 90.7 30.3 C 90.7 30.2 90.6 30.1 90.6 30 C 90.6 30 90.6 30 90.6 30 C 90.6 29.6 90.8 29.4 91 29.2 C 91.2 29 91.5 28.9 91.9 28.9 C 92.3 28.9 92.8 29.1 93.2 29.3 C 93.2 29.3 92.9 29.7 92.9 29.7 C 92.6 29.5 92.2 29.4 91.9 29.4 C 91.7 29.4 91.5 29.4 91.4 29.5 C 91.2 29.6 91.2 29.7 91.2 29.9 C 91.2 29.9 91.2 29.9 91.2 29.9 C 91.2 30 91.2 30 91.2 30.1 C 91.3 30.1 91.3 30.2 91.3 30.2 C 91.4 30.3 91.5 30.3 91.6 30.4 C 91.7 30.4 91.7 30.4 91.8 30.4 C 91.9 30.5 92 30.5 92.1 30.5 C 92.2 30.6 92.3 30.6 92.4 30.6 C 92.5 30.7 92.6 30.7 92.7 30.8 C 92.9 30.8 93 30.9 93 31 C 93.1 31 93.1 31.1 93.2 31.2 C 93.2 31.3 93.3 31.4 93.3 31.6 C 93.3 31.6 93.3 31.6 93.3 31.6 C 93.3 31.9 93.1 32.2 92.9 32.4 C 92.7 32.6 92.3 32.7 92 32.7 Z " stroke="none" fill="#000"/>  </g>  <g id="Polygon79618">    <path d="M 0.7 23.6 L 0.7 18.7 C 0.7 18.7 2.8 18.7 2.8 18.7 C 3.4 18.7 3.9 18.9 4.2 19.2 C 4.4 19.4 4.6 19.8 4.6 20.2 C 4.6 20.2 4.6 20.2 4.6 20.2 C 4.6 20.6 4.4 20.9 4.2 21.1 C 4 21.4 3.6 21.5 3.2 21.6 C 3.24 21.6 4.7 23.6 4.7 23.6 L 4.1 23.6 L 2.6 21.7 L 1.2 21.7 L 1.2 23.6 L 0.7 23.6 Z M 1.2 21.2 C 1.2 21.2 2.75 21.2 2.8 21.2 C 3.1 21.2 3.4 21.1 3.7 20.9 C 3.9 20.7 4 20.5 4 20.2 C 4 20.2 4 20.2 4 20.2 C 4 19.9 3.9 19.6 3.7 19.5 C 3.5 19.3 3.2 19.2 2.8 19.2 C 2.76 19.21 1.2 19.2 1.2 19.2 L 1.2 21.2 Z M 8.7 23 C 8.3 23.5 7.8 23.7 7.2 23.7 C 6.7 23.7 6.3 23.5 6 23.2 C 5.6 22.8 5.4 22.4 5.4 21.8 C 5.4 21.8 5.4 21.8 5.4 21.8 C 5.4 21.3 5.6 20.8 5.9 20.4 C 6.3 20.1 6.7 19.9 7.2 19.9 C 7.7 19.9 8.1 20.1 8.4 20.4 C 8.7 20.8 8.9 21.3 8.9 21.8 C 8.9 21.9 8.9 21.9 8.9 22 C 8.9 22 6 22 6 22 C 6 22.4 6.2 22.7 6.4 22.9 C 6.6 23.1 6.9 23.2 7.3 23.2 C 7.7 23.2 8.1 23 8.4 22.7 C 8.4 22.7 8.7 23 8.7 23 C 8.7 23 8.74 23 8.7 23 Z M 6 21.6 C 6 21.6 8.3 21.6 8.3 21.6 C 8.3 21.2 8.2 20.9 8 20.7 C 7.8 20.5 7.5 20.4 7.2 20.4 C 6.8 20.4 6.6 20.5 6.4 20.7 C 6.1 20.9 6 21.2 6 21.6 Z M 9.8 23.6 L 9.8 20 L 10.3 20 C 10.3 20 10.35 20.61 10.3 20.6 C 10.6 20.1 11.1 19.9 11.6 19.9 C 12 19.9 12.4 20 12.6 20.3 C 12.8 20.6 13 20.9 13 21.4 C 12.97 21.35 13 23.6 13 23.6 L 12.4 23.6 C 12.4 23.6 12.43 21.49 12.4 21.5 C 12.4 21.1 12.3 20.9 12.2 20.7 C 12 20.5 11.7 20.4 11.4 20.4 C 11.1 20.4 10.9 20.5 10.7 20.7 C 10.4 20.9 10.3 21.2 10.3 21.5 C 10.35 21.53 10.3 23.6 10.3 23.6 L 9.8 23.6 Z M 14.1 23.6 L 14.1 18.5 L 14.7 18.5 L 14.7 22 L 16.6 20 L 17.3 20 L 15.8 21.5 L 17.3 23.6 L 16.7 23.6 L 15.4 21.9 L 14.7 22.7 L 14.7 23.6 L 14.1 23.6 Z M 18.1 20.7 L 18.1 20 L 18.7 20 L 18.7 20.7 L 18.1 20.7 Z M 18.1 23.6 L 18.1 22.9 L 18.7 22.9 L 18.7 23.6 L 18.1 23.6 Z M 23.8 23.7 C 23 23.7 22.3 23.4 21.7 22.9 C 21.7 22.9 22.1 22.5 22.1 22.5 C 22.4 22.7 22.6 22.9 22.9 23 C 23.1 23.1 23.4 23.2 23.8 23.2 C 24.1 23.2 24.4 23.1 24.6 22.9 C 24.8 22.8 24.9 22.6 24.9 22.3 C 24.9 22.3 24.9 22.3 24.9 22.3 C 24.9 22.1 24.8 21.9 24.6 21.8 C 24.4 21.6 24.1 21.5 23.6 21.4 C 23 21.3 22.6 21.1 22.3 20.9 C 22.1 20.7 21.9 20.4 21.9 20 C 21.9 20 21.9 20 21.9 20 C 21.9 19.6 22.1 19.3 22.4 19 C 22.7 18.8 23.1 18.6 23.6 18.6 C 23.9 18.6 24.2 18.7 24.5 18.8 C 24.8 18.9 25 19 25.3 19.2 C 25.3 19.2 25 19.7 25 19.7 C 24.5 19.3 24 19.1 23.5 19.1 C 23.2 19.1 23 19.2 22.8 19.4 C 22.6 19.5 22.5 19.7 22.5 19.9 C 22.5 19.9 22.5 19.9 22.5 19.9 C 22.5 20.2 22.6 20.4 22.8 20.5 C 23 20.7 23.3 20.8 23.8 20.9 C 24.4 21 24.8 21.2 25 21.4 C 25.3 21.6 25.4 21.9 25.4 22.3 C 25.4 22.3 25.4 22.3 25.4 22.3 C 25.4 22.7 25.3 23 25 23.3 C 24.6 23.5 24.2 23.7 23.8 23.7 Z M 26.5 19.2 L 26.5 18.6 L 27.1 18.6 L 27.1 19.2 L 26.5 19.2 Z M 26.5 23.6 L 26.5 20 L 27 20 L 27 23.6 L 26.5 23.6 Z M 29.8 23 L 31 20 L 31.6 20 C 31.6 20 30.06 23.72 30.1 23.7 C 29.9 24.1 29.7 24.4 29.6 24.5 C 29.4 24.7 29.1 24.7 28.9 24.7 C 28.6 24.7 28.3 24.7 28.1 24.6 C 28.1 24.6 28.3 24.1 28.3 24.1 C 28.4 24.2 28.6 24.3 28.8 24.3 C 29 24.3 29.1 24.2 29.3 24.1 C 29.4 24 29.5 23.8 29.6 23.6 C 29.58 23.59 27.9 20 27.9 20 L 28.5 20 L 29.8 23 Z M 34.8 23.1 C 34.5 23.5 34.1 23.7 33.5 23.7 C 33.2 23.7 32.8 23.6 32.6 23.4 C 32.3 23.2 32.2 22.9 32.2 22.5 C 32.2 22.5 32.2 22.5 32.2 22.5 C 32.2 22.2 32.3 21.9 32.6 21.7 C 32.9 21.5 33.2 21.4 33.7 21.4 C 34.1 21.4 34.5 21.4 34.8 21.5 C 34.8 21.5 34.8 21.4 34.8 21.4 C 34.8 21.1 34.7 20.8 34.5 20.7 C 34.4 20.5 34.1 20.4 33.7 20.4 C 33.4 20.4 33 20.5 32.6 20.7 C 32.6 20.7 32.5 20.2 32.5 20.2 C 32.9 20 33.3 19.9 33.8 19.9 C 34.3 19.9 34.7 20.1 35 20.3 C 35.2 20.6 35.3 20.9 35.3 21.4 C 35.34 21.39 35.3 23.6 35.3 23.6 L 34.8 23.6 L 34.8 23.1 C 34.8 23.1 34.82 23.05 34.8 23.1 Z M 33.6 23.2 C 34 23.2 34.2 23.2 34.5 23 C 34.7 22.8 34.8 22.6 34.8 22.3 C 34.8 22.3 34.8 21.9 34.8 21.9 C 34.5 21.8 34.1 21.8 33.8 21.8 C 33.4 21.8 33.2 21.8 33 22 C 32.8 22.1 32.7 22.3 32.7 22.5 C 32.7 22.5 32.7 22.5 32.7 22.5 C 32.7 22.7 32.8 22.9 33 23.1 C 33.2 23.2 33.4 23.2 33.6 23.2 Z M 36.5 23.6 L 36.5 18.5 L 37 18.5 C 37 18.5 37.03 20.61 37 20.6 C 37.3 20.1 37.7 19.9 38.3 19.9 C 38.7 19.9 39 20 39.3 20.3 C 39.5 20.6 39.7 20.9 39.7 21.4 C 39.65 21.35 39.7 23.6 39.7 23.6 L 39.1 23.6 C 39.1 23.6 39.12 21.49 39.1 21.5 C 39.1 21.1 39 20.9 38.9 20.7 C 38.7 20.5 38.4 20.4 38.1 20.4 C 37.8 20.4 37.5 20.5 37.3 20.7 C 37.1 20.9 37 21.2 37 21.5 C 37.03 21.53 37 23.6 37 23.6 L 36.5 23.6 Z " stroke="none" fill="#000"/>  </g>  <g id="Polygon79617">    <path d="M 3 9.3 L 3 8.6 L 3.6 8.6 L 3.6 9.3 L 3 9.3 Z M 1.7 9.3 L 1.7 8.6 L 2.3 8.6 L 2.3 9.3 L 1.7 9.3 Z M 2.7 14.7 C 2 14.7 1.5 14.5 1.2 14.1 C 0.8 13.7 0.6 13.2 0.6 12.5 C 0.62 12.55 0.6 9.7 0.6 9.7 L 1.2 9.7 C 1.2 9.7 1.17 12.51 1.2 12.5 C 1.2 13 1.3 13.4 1.6 13.7 C 1.8 14 2.2 14.2 2.7 14.2 C 3.1 14.2 3.5 14 3.8 13.8 C 4 13.5 4.1 13.1 4.1 12.5 C 4.14 12.55 4.1 9.7 4.1 9.7 L 4.7 9.7 C 4.7 9.7 4.7 12.51 4.7 12.5 C 4.7 13.2 4.5 13.7 4.1 14.1 C 3.8 14.5 3.3 14.7 2.7 14.7 Z M 5.9 14.6 L 5.9 11 L 6.5 11 C 6.5 11 6.45 11.93 6.5 11.9 C 6.6 11.6 6.8 11.4 7 11.2 C 7.3 11 7.6 10.9 7.9 10.9 C 7.93 10.92 7.9 11.5 7.9 11.5 C 7.9 11.5 7.89 11.5 7.9 11.5 C 7.5 11.5 7.1 11.6 6.9 11.9 C 6.6 12.2 6.5 12.6 6.5 13.2 C 6.45 13.16 6.5 14.6 6.5 14.6 L 5.9 14.6 Z M 10.6 10.4 L 10.6 9.8 L 11.2 9.8 L 11.2 10.4 L 10.6 10.4 Z M 9.3 10.4 L 9.3 9.8 L 10 9.8 L 10 10.4 L 9.3 10.4 Z M 11.3 14 C 11 14.4 10.6 14.7 10.1 14.7 C 9.7 14.7 9.3 14.5 9.1 14.3 C 8.8 14 8.7 13.7 8.7 13.2 C 8.69 13.23 8.7 11 8.7 11 L 9.2 11 C 9.2 11 9.23 13.09 9.2 13.1 C 9.2 13.4 9.3 13.7 9.5 13.9 C 9.7 14.1 9.9 14.2 10.2 14.2 C 10.5 14.2 10.8 14.1 11 13.9 C 11.2 13.7 11.3 13.4 11.3 13.1 C 11.32 13.05 11.3 11 11.3 11 L 11.9 11 L 11.9 14.6 L 11.3 14.6 L 11.3 14 C 11.3 14 11.32 13.97 11.3 14 Z M 13.1 14.6 L 13.1 11 L 13.6 11 C 13.6 11 13.6 11.61 13.6 11.6 C 13.9 11.1 14.3 10.9 14.8 10.9 C 15.3 10.9 15.6 11 15.9 11.3 C 16.1 11.6 16.2 11.9 16.2 12.4 C 16.23 12.35 16.2 14.6 16.2 14.6 L 15.7 14.6 C 15.7 14.6 15.69 12.49 15.7 12.5 C 15.7 12.1 15.6 11.9 15.4 11.7 C 15.2 11.5 15 11.4 14.7 11.4 C 14.4 11.4 14.1 11.5 13.9 11.7 C 13.7 11.9 13.6 12.2 13.6 12.5 C 13.6 12.53 13.6 14.6 13.6 14.6 L 13.1 14.6 Z M 19.6 14.6 L 19.6 9.7 L 20.1 9.7 L 20.1 12.6 L 22.9 9.7 L 23.7 9.7 L 21.5 11.8 L 23.7 14.6 L 23 14.6 L 21.2 12.2 L 20.1 13.3 L 20.1 14.6 L 19.6 14.6 Z M 26.2 14.7 C 25.6 14.7 25.2 14.5 24.8 14.1 C 24.5 13.8 24.3 13.3 24.3 12.8 C 24.3 12.8 24.3 12.8 24.3 12.8 C 24.3 12.3 24.5 11.8 24.8 11.5 C 25.2 11.1 25.6 10.9 26.2 10.9 C 26.7 10.9 27.2 11.1 27.5 11.5 C 27.9 11.8 28.1 12.3 28.1 12.8 C 28.1 12.8 28.1 12.8 28.1 12.8 C 28.1 13.3 27.9 13.8 27.5 14.1 C 27.2 14.5 26.7 14.7 26.2 14.7 Z M 26.2 14.2 C 26.6 14.2 26.9 14.1 27.1 13.8 C 27.4 13.5 27.5 13.2 27.5 12.8 C 27.5 12.8 27.5 12.8 27.5 12.8 C 27.5 12.4 27.4 12.1 27.1 11.8 C 26.9 11.5 26.5 11.4 26.2 11.4 C 25.8 11.4 25.5 11.5 25.2 11.8 C 25 12.1 24.8 12.4 24.8 12.8 C 24.8 12.8 24.8 12.8 24.8 12.8 C 24.8 13.2 25 13.5 25.2 13.8 C 25.5 14.1 25.8 14.2 26.2 14.2 Z M 31.9 13.9 C 31.6 14.4 31.1 14.7 30.5 14.7 C 30.1 14.7 29.7 14.5 29.3 14.2 C 29 13.8 28.8 13.4 28.8 12.8 C 28.8 12.8 28.8 12.8 28.8 12.8 C 28.8 12.2 29 11.8 29.3 11.4 C 29.7 11.1 30.1 10.9 30.5 10.9 C 31.1 10.9 31.6 11.2 31.9 11.7 C 31.93 11.67 31.9 9.5 31.9 9.5 L 32.5 9.5 L 32.5 14.6 L 31.9 14.6 L 31.9 13.9 C 31.9 13.9 31.93 13.87 31.9 13.9 Z M 30.6 14.2 C 31 14.2 31.3 14.1 31.6 13.8 C 31.8 13.5 32 13.2 32 12.8 C 32 12.8 32 12.8 32 12.8 C 32 12.4 31.8 12 31.6 11.8 C 31.3 11.5 31 11.4 30.6 11.4 C 30.3 11.4 30 11.5 29.7 11.8 C 29.5 12 29.4 12.4 29.4 12.8 C 29.4 12.8 29.4 12.8 29.4 12.8 C 29.4 13.2 29.5 13.6 29.7 13.8 C 30 14.1 30.3 14.2 30.6 14.2 Z M 36.2 14 C 36 14.4 35.5 14.7 35 14.7 C 34.6 14.7 34.2 14.5 34 14.3 C 33.7 14 33.6 13.7 33.6 13.2 C 33.62 13.23 33.6 11 33.6 11 L 34.2 11 C 34.2 11 34.16 13.09 34.2 13.1 C 34.2 13.4 34.2 13.7 34.4 13.9 C 34.6 14.1 34.8 14.2 35.2 14.2 C 35.5 14.2 35.7 14.1 35.9 13.9 C 36.1 13.7 36.2 13.4 36.2 13.1 C 36.25 13.05 36.2 11 36.2 11 L 36.8 11 L 36.8 14.6 L 36.2 14.6 L 36.2 14 C 36.2 14 36.25 13.97 36.2 14 Z M 38 11.7 L 38 11 L 38.6 11 L 38.6 11.7 L 38 11.7 Z M 38 14.6 L 38 13.9 L 38.6 13.9 L 38.6 14.6 L 38 14.6 Z M 41.7 14.6 L 41.7 13.8 L 44.4 10.6 L 41.8 10.6 L 41.8 9.7 L 45.8 9.7 L 45.8 10.5 L 43.1 13.7 L 45.8 13.7 L 45.8 14.6 L 41.7 14.6 Z M 46.8 14.6 L 46.8 9.7 C 46.8 9.7 48.72 9.7 48.7 9.7 C 49.5 9.7 50.1 9.9 50.6 10.4 C 51.1 10.9 51.3 11.4 51.3 12.1 C 51.3 12.1 51.3 12.1 51.3 12.1 C 51.3 12.8 51.1 13.4 50.6 13.9 C 50.1 14.4 49.5 14.6 48.7 14.6 C 48.72 14.6 46.8 14.6 46.8 14.6 Z M 48.7 10.7 C 48.72 10.67 47.9 10.7 47.9 10.7 L 47.9 13.6 C 47.9 13.6 48.72 13.63 48.7 13.6 C 49.2 13.6 49.5 13.5 49.8 13.2 C 50.1 13 50.2 12.6 50.2 12.2 C 50.2 12.2 50.2 12.1 50.2 12.1 C 50.2 11.7 50.1 11.4 49.8 11.1 C 49.5 10.8 49.2 10.7 48.7 10.7 Z M 54.1 14.6 L 54.1 13.7 C 54.1 13.7 55.77 12.41 55.8 12.4 C 56.1 12.1 56.3 11.9 56.4 11.8 C 56.6 11.6 56.6 11.4 56.6 11.2 C 56.6 11 56.6 10.9 56.4 10.8 C 56.3 10.7 56.2 10.6 56 10.6 C 55.8 10.6 55.6 10.6 55.5 10.7 C 55.3 10.8 55.1 11 55 11.3 C 55 11.3 54.2 10.6 54.2 10.6 C 54.5 10.3 54.7 10 55 9.9 C 55.3 9.7 55.6 9.6 56 9.6 C 56.5 9.6 56.9 9.8 57.2 10 C 57.6 10.3 57.7 10.7 57.7 11.1 C 57.7 11.1 57.7 11.2 57.7 11.2 C 57.7 11.5 57.6 11.9 57.4 12.1 C 57.2 12.4 56.9 12.7 56.4 13.1 C 56.43 13.05 55.6 13.7 55.6 13.7 L 57.8 13.7 L 57.8 14.6 L 54.1 14.6 Z M 58.7 14.6 L 60.9 10.6 L 58.6 10.6 L 58.6 9.7 L 62.2 9.7 L 62.2 10.5 L 60 14.6 L 58.7 14.6 Z M 63.6 13.3 C 63.9 13.6 64.3 13.7 64.6 13.7 C 64.9 13.7 65.1 13.6 65.2 13.5 C 65.4 13.4 65.5 13.2 65.5 13.1 C 65.6 12.9 65.6 12.8 65.6 12.6 C 65.4 12.8 65 12.9 64.6 12.9 C 64.1 12.9 63.7 12.8 63.4 12.5 C 63 12.2 62.9 11.8 62.9 11.3 C 62.9 11.3 62.9 11.3 62.9 11.3 C 62.9 10.8 63.1 10.4 63.4 10.1 C 63.7 9.8 64.2 9.6 64.7 9.6 C 65.1 9.6 65.3 9.7 65.6 9.7 C 65.8 9.8 66 10 66.2 10.1 C 66.6 10.5 66.7 11.2 66.7 12 C 66.7 12 66.7 12 66.7 12 C 66.7 12.8 66.6 13.5 66.2 14 C 65.8 14.4 65.3 14.7 64.6 14.7 C 64 14.7 63.5 14.5 63 14.1 C 62.99 14.1 63.6 13.3 63.6 13.3 C 63.6 13.3 63.56 13.28 63.6 13.3 Z M 64.8 12 C 65.1 12 65.3 12 65.4 11.8 C 65.6 11.7 65.6 11.5 65.6 11.3 C 65.6 11.3 65.6 11.3 65.6 11.3 C 65.6 11.1 65.6 10.9 65.4 10.7 C 65.3 10.6 65.1 10.5 64.8 10.5 C 64.5 10.5 64.3 10.6 64.2 10.7 C 64 10.9 64 11.1 64 11.3 C 64 11.3 64 11.3 64 11.3 C 64 11.5 64 11.7 64.2 11.8 C 64.3 12 64.5 12 64.8 12 Z M 67.5 14.6 L 67.5 13.7 C 67.5 13.7 69.1 12.41 69.1 12.4 C 69.4 12.1 69.6 11.9 69.8 11.8 C 69.9 11.6 69.9 11.4 69.9 11.2 C 69.9 11 69.9 10.9 69.8 10.8 C 69.6 10.7 69.5 10.6 69.3 10.6 C 69.1 10.6 68.9 10.6 68.8 10.7 C 68.6 10.8 68.5 11 68.3 11.3 C 68.3 11.3 67.5 10.6 67.5 10.6 C 67.8 10.3 68.1 10 68.3 9.9 C 68.6 9.7 68.9 9.6 69.4 9.6 C 69.9 9.6 70.3 9.8 70.6 10 C 70.9 10.3 71 10.7 71 11.1 C 71 11.1 71 11.2 71 11.2 C 71 11.5 70.9 11.9 70.8 12.1 C 70.6 12.4 70.2 12.7 69.8 13.1 C 69.75 13.05 69 13.7 69 13.7 L 71.1 13.7 L 71.1 14.6 L 67.5 14.6 Z M 74 14.7 C 73.4 14.7 72.9 14.4 72.5 14 C 72.1 13.5 71.9 12.9 71.9 12.2 C 71.9 12.2 71.9 12.1 71.9 12.1 C 71.9 11.4 72.1 10.8 72.5 10.3 C 72.9 9.9 73.4 9.6 74 9.6 C 74.7 9.6 75.2 9.9 75.6 10.3 C 76 10.8 76.2 11.4 76.2 12.1 C 76.2 12.1 76.2 12.1 76.2 12.1 C 76.2 12.9 76 13.5 75.6 14 C 75.2 14.4 74.7 14.7 74 14.7 Z M 73 12.1 C 73 12.6 73.1 13 73.3 13.3 C 73.5 13.6 73.7 13.7 74 13.7 C 74.4 13.7 74.6 13.6 74.8 13.3 C 75 13 75.1 12.6 75.1 12.2 C 75.1 12.2 75.1 12.1 75.1 12.1 C 75.1 11.7 75 11.3 74.8 11 C 74.6 10.7 74.3 10.6 74 10.6 C 73.7 10.6 73.5 10.7 73.3 11 C 73.1 11.3 73 11.7 73 12.1 C 72.97 12.14 73 12.1 73 12.1 C 73 12.1 72.97 12.15 73 12.1 Z " stroke="none" fill="#000"/>  </g>  <g id="Polygon79616">    <path d="M 0.6 5.6 L 0.6 0.7 L 1.7 0.7 L 1.7 2.6 L 3.7 2.6 L 3.7 0.7 L 4.7 0.7 L 4.7 5.6 L 3.7 5.6 L 3.7 3.6 L 1.7 3.6 L 1.7 5.6 L 0.6 5.6 Z M 8 5.2 C 7.7 5.5 7.3 5.7 6.9 5.7 C 6.5 5.7 6.2 5.6 5.9 5.4 C 5.7 5.2 5.6 4.9 5.6 4.5 C 5.6 4.5 5.6 4.5 5.6 4.5 C 5.6 4.1 5.7 3.8 6 3.6 C 6.3 3.4 6.6 3.3 7.1 3.3 C 7.4 3.3 7.7 3.4 8 3.5 C 8 3.5 8 3.4 8 3.4 C 8 2.9 7.7 2.7 7.2 2.7 C 6.9 2.7 6.5 2.8 6.2 2.9 C 6.2 2.9 5.9 2.1 5.9 2.1 C 6.4 1.9 6.9 1.8 7.3 1.8 C 7.9 1.8 8.3 1.9 8.6 2.2 C 8.9 2.5 9 2.9 9 3.4 C 9.02 3.42 9 5.6 9 5.6 L 8 5.6 L 8 5.2 C 8 5.2 7.99 5.19 8 5.2 Z M 7.2 4.9 C 7.4 4.9 7.6 4.9 7.8 4.8 C 7.9 4.6 8 4.5 8 4.3 C 8 4.3 8 4.1 8 4.1 C 7.8 4 7.6 3.9 7.3 3.9 C 7.1 3.9 6.9 4 6.8 4.1 C 6.7 4.2 6.6 4.3 6.6 4.5 C 6.6 4.5 6.6 4.5 6.6 4.5 C 6.6 4.6 6.7 4.7 6.8 4.8 C 6.9 4.9 7 4.9 7.2 4.9 Z M 11.1 5.6 L 9.6 1.8 L 10.7 1.8 L 11.6 4.4 L 12.4 1.8 L 13.5 1.8 L 12 5.6 L 11.1 5.6 Z M 14.2 5.6 L 14.2 0.5 L 15.3 0.5 L 15.3 5.6 L 14.2 5.6 Z M 18.6 5.1 C 18.3 5.5 17.9 5.7 17.5 5.7 C 17.1 5.7 16.8 5.5 16.6 5.3 C 16.3 5.1 16.2 4.7 16.2 4.3 C 16.23 4.28 16.2 1.8 16.2 1.8 L 17.3 1.8 C 17.3 1.8 17.29 3.94 17.3 3.9 C 17.3 4.4 17.5 4.7 17.9 4.7 C 18.1 4.7 18.3 4.6 18.4 4.5 C 18.5 4.4 18.6 4.2 18.6 3.9 C 18.6 3.94 18.6 1.8 18.6 1.8 L 19.7 1.8 L 19.7 5.6 L 18.6 5.6 L 18.6 5.1 C 18.6 5.1 18.6 5.07 18.6 5.1 Z M 22.4 5.6 L 24.5 0.7 L 25.5 0.7 L 27.6 5.6 L 26.5 5.6 L 26 4.5 L 24 4.5 L 23.5 5.6 L 22.4 5.6 Z M 24.3 3.5 L 25.6 3.5 L 25 2 L 24.3 3.5 Z M 29.6 5.7 C 29 5.7 28.4 5.5 28 5.1 C 28 5.1 28.4 4.4 28.4 4.4 C 28.8 4.7 29.2 4.9 29.6 4.9 C 29.9 4.9 30 4.8 30 4.6 C 30 4.6 30 4.6 30 4.6 C 30 4.5 30 4.5 30 4.5 C 30 4.4 30 4.4 30 4.4 C 29.9 4.4 29.9 4.4 29.9 4.3 C 29.8 4.3 29.8 4.3 29.7 4.3 C 29.7 4.3 29.6 4.2 29.6 4.2 C 29.6 4.2 29.5 4.2 29.4 4.2 C 29.4 4.2 29.3 4.1 29.3 4.1 C 29.1 4.1 29 4 28.9 4 C 28.7 3.9 28.6 3.9 28.5 3.8 C 28.4 3.7 28.3 3.6 28.2 3.5 C 28.2 3.3 28.1 3.2 28.1 3 C 28.1 3 28.1 3 28.1 3 C 28.1 2.6 28.3 2.3 28.5 2.1 C 28.8 1.9 29.1 1.8 29.5 1.8 C 30 1.8 30.5 1.9 30.9 2.2 C 30.9 2.2 30.5 3 30.5 3 C 30.1 2.7 29.8 2.6 29.5 2.6 C 29.4 2.6 29.3 2.6 29.2 2.7 C 29.1 2.7 29.1 2.8 29.1 2.9 C 29.1 2.9 29.1 2.9 29.1 2.9 C 29.1 3 29.2 3 29.3 3.1 C 29.4 3.2 29.6 3.3 29.9 3.3 C 30 3.4 30.2 3.4 30.3 3.5 C 30.4 3.5 30.5 3.6 30.6 3.7 C 30.7 3.8 30.8 3.9 30.9 4 C 31 4.1 31 4.3 31 4.4 C 31 4.4 31 4.5 31 4.5 C 31 4.9 30.9 5.2 30.6 5.4 C 30.3 5.6 30 5.7 29.6 5.7 Z M 31.8 5.6 L 31.8 0.5 L 32.8 0.5 L 32.8 3.2 L 34.1 1.8 L 35.3 1.8 L 33.9 3.3 L 35.4 5.6 L 34.2 5.6 L 33.2 4.1 L 32.8 4.5 L 32.8 5.6 L 31.8 5.6 Z M 36 5.6 L 36 1.8 L 37 1.8 L 37 5.6 L 36 5.6 Z M 39.3 5.7 C 38.7 5.7 38.2 5.5 37.7 5.1 C 37.7 5.1 38.2 4.4 38.2 4.4 C 38.6 4.7 39 4.9 39.4 4.9 C 39.7 4.9 39.8 4.8 39.8 4.6 C 39.8 4.6 39.8 4.6 39.8 4.6 C 39.8 4.5 39.8 4.5 39.8 4.5 C 39.8 4.4 39.8 4.4 39.7 4.4 C 39.7 4.4 39.7 4.4 39.6 4.3 C 39.6 4.3 39.6 4.3 39.5 4.3 C 39.5 4.3 39.4 4.2 39.4 4.2 C 39.3 4.2 39.3 4.2 39.2 4.2 C 39.1 4.2 39.1 4.1 39 4.1 C 38.9 4.1 38.7 4 38.6 4 C 38.5 3.9 38.4 3.9 38.3 3.8 C 38.2 3.7 38.1 3.6 38 3.5 C 37.9 3.3 37.9 3.2 37.9 3 C 37.9 3 37.9 3 37.9 3 C 37.9 2.6 38 2.3 38.3 2.1 C 38.6 1.9 38.9 1.8 39.3 1.8 C 39.8 1.8 40.2 1.9 40.7 2.2 C 40.7 2.2 40.3 3 40.3 3 C 39.9 2.7 39.5 2.6 39.3 2.6 C 39.1 2.6 39 2.6 39 2.7 C 38.9 2.7 38.9 2.8 38.9 2.9 C 38.9 2.9 38.9 2.9 38.9 2.9 C 38.9 3 38.9 3 39.1 3.1 C 39.2 3.2 39.4 3.3 39.6 3.3 C 39.8 3.4 39.9 3.4 40 3.5 C 40.2 3.5 40.3 3.6 40.4 3.7 C 40.5 3.8 40.6 3.9 40.7 4 C 40.7 4.1 40.8 4.3 40.8 4.4 C 40.8 4.4 40.8 4.5 40.8 4.5 C 40.8 4.9 40.6 5.2 40.4 5.4 C 40.1 5.6 39.8 5.7 39.3 5.7 Z M 41.6 5.6 L 41.6 1.8 L 42.6 1.8 L 42.6 5.6 L 41.6 5.6 Z M 45.6 3.9 L 45.6 2.9 L 48.6 2.9 L 48.6 3.9 L 45.6 3.9 Z M 51.7 5.6 L 51.7 0.7 L 52.7 0.7 L 52.7 4.6 L 55.2 4.6 L 55.2 5.6 L 51.7 5.6 Z M 57.7 5.7 C 57.1 5.7 56.7 5.5 56.3 5.1 C 55.9 4.8 55.7 4.3 55.7 3.7 C 55.7 3.7 55.7 3.7 55.7 3.7 C 55.7 3.2 55.9 2.7 56.3 2.3 C 56.7 2 57.1 1.8 57.7 1.8 C 58.3 1.8 58.8 2 59.2 2.3 C 59.6 2.7 59.8 3.2 59.8 3.7 C 59.8 3.7 59.8 3.7 59.8 3.7 C 59.8 4.3 59.6 4.7 59.2 5.1 C 58.8 5.5 58.3 5.7 57.7 5.7 Z M 57.7 4.8 C 58 4.8 58.3 4.7 58.4 4.5 C 58.6 4.3 58.7 4 58.7 3.7 C 58.7 3.7 58.7 3.7 58.7 3.7 C 58.7 3.4 58.6 3.2 58.4 3 C 58.2 2.8 58 2.7 57.7 2.7 C 57.4 2.7 57.2 2.8 57 3 C 56.8 3.2 56.7 3.4 56.7 3.7 C 56.7 3.7 56.7 3.7 56.7 3.7 C 56.7 4 56.8 4.3 57 4.5 C 57.2 4.7 57.4 4.8 57.7 4.8 Z M 62.4 5.7 C 61.8 5.7 61.3 5.5 60.9 5.1 C 60.5 4.8 60.3 4.3 60.3 3.7 C 60.3 3.7 60.3 3.7 60.3 3.7 C 60.3 3.2 60.5 2.7 60.9 2.3 C 61.3 2 61.8 1.8 62.4 1.8 C 62.9 1.8 63.4 2 63.8 2.3 C 64.2 2.7 64.4 3.2 64.4 3.7 C 64.4 3.7 64.4 3.7 64.4 3.7 C 64.4 4.3 64.2 4.7 63.8 5.1 C 63.4 5.5 62.9 5.7 62.4 5.7 Z M 62.4 4.8 C 62.7 4.8 62.9 4.7 63.1 4.5 C 63.3 4.3 63.3 4 63.3 3.7 C 63.3 3.7 63.3 3.7 63.3 3.7 C 63.3 3.4 63.3 3.2 63.1 3 C 62.9 2.8 62.7 2.7 62.4 2.7 C 62.1 2.7 61.8 2.8 61.7 3 C 61.5 3.2 61.4 3.4 61.4 3.7 C 61.4 3.7 61.4 3.7 61.4 3.7 C 61.4 4 61.5 4.3 61.7 4.5 C 61.8 4.7 62.1 4.8 62.4 4.8 Z M 65.2 6.7 L 65.2 1.8 L 66.2 1.8 C 66.2 1.8 66.23 2.39 66.2 2.4 C 66.5 2 66.9 1.8 67.4 1.8 C 67.9 1.8 68.3 2 68.6 2.3 C 68.9 2.6 69.1 3.1 69.1 3.7 C 69.1 3.7 69.1 3.7 69.1 3.7 C 69.1 4.3 68.9 4.8 68.6 5.1 C 68.3 5.5 67.9 5.7 67.4 5.7 C 66.9 5.7 66.5 5.5 66.2 5.1 C 66.23 5.11 66.2 6.7 66.2 6.7 L 65.2 6.7 Z M 66.2 3.7 C 66.2 4 66.3 4.3 66.5 4.5 C 66.7 4.7 66.9 4.8 67.1 4.8 C 67.4 4.8 67.6 4.7 67.8 4.5 C 68 4.3 68 4 68 3.7 C 68 3.7 68 3.7 68 3.7 C 68 3.4 68 3.2 67.8 3 C 67.6 2.8 67.4 2.7 67.1 2.7 C 66.9 2.7 66.7 2.8 66.5 3 C 66.3 3.2 66.2 3.4 66.2 3.7 C 66.22 3.72 66.2 3.7 66.2 3.7 C 66.2 3.7 66.22 3.73 66.2 3.7 Z M 72.1 5.6 L 72.1 0.7 L 73.3 0.7 L 74.6 2.8 L 75.8 0.7 L 77 0.7 L 77 5.6 L 75.9 5.6 L 75.9 2.4 L 74.6 4.5 L 74.5 4.5 L 73.2 2.4 L 73.2 5.6 L 72.1 5.6 Z M 80.3 5.2 C 80 5.5 79.6 5.7 79.1 5.7 C 78.8 5.7 78.5 5.6 78.2 5.4 C 78 5.2 77.8 4.9 77.8 4.5 C 77.8 4.5 77.8 4.5 77.8 4.5 C 77.8 4.1 78 3.8 78.3 3.6 C 78.5 3.4 78.9 3.3 79.4 3.3 C 79.7 3.3 80 3.4 80.3 3.5 C 80.3 3.5 80.3 3.4 80.3 3.4 C 80.3 2.9 80 2.7 79.5 2.7 C 79.1 2.7 78.8 2.8 78.4 2.9 C 78.4 2.9 78.2 2.1 78.2 2.1 C 78.6 1.9 79.1 1.8 79.6 1.8 C 80.2 1.8 80.6 1.9 80.9 2.2 C 81.2 2.5 81.3 2.9 81.3 3.4 C 81.3 3.42 81.3 5.6 81.3 5.6 L 80.3 5.6 L 80.3 5.2 C 80.3 5.2 80.27 5.19 80.3 5.2 Z M 79.5 4.9 C 79.7 4.9 79.9 4.9 80.1 4.8 C 80.2 4.6 80.3 4.5 80.3 4.3 C 80.3 4.3 80.3 4.1 80.3 4.1 C 80.1 4 79.9 3.9 79.6 3.9 C 79.4 3.9 79.2 4 79.1 4.1 C 78.9 4.2 78.9 4.3 78.9 4.5 C 78.9 4.5 78.9 4.5 78.9 4.5 C 78.9 4.6 78.9 4.7 79 4.8 C 79.1 4.9 79.3 4.9 79.5 4.9 Z M 85.5 6.2 C 85.2 6.6 84.6 6.7 83.9 6.7 C 83.3 6.7 82.7 6.6 82.2 6.3 C 82.2 6.3 82.6 5.5 82.6 5.5 C 83 5.8 83.4 5.9 83.9 5.9 C 84.6 5.9 84.9 5.5 84.9 4.9 C 84.9 4.9 84.9 4.7 84.9 4.7 C 84.8 4.9 84.6 5 84.4 5.1 C 84.2 5.2 84 5.3 83.7 5.3 C 83.2 5.3 82.9 5.1 82.5 4.8 C 82.2 4.5 82 4.1 82 3.5 C 82 3.5 82 3.5 82 3.5 C 82 3 82.2 2.6 82.5 2.3 C 82.9 1.9 83.3 1.8 83.7 1.8 C 84.2 1.8 84.6 2 84.9 2.3 C 84.92 2.34 84.9 1.8 84.9 1.8 L 86 1.8 C 86 1.8 85.99 4.75 86 4.8 C 86 5.4 85.8 5.9 85.5 6.2 C 85.5 6.2 85.5 6.2 85.5 6.2 Z M 83.1 3.5 C 83.1 3.8 83.2 4 83.4 4.2 C 83.5 4.3 83.8 4.4 84 4.4 C 84.3 4.4 84.5 4.3 84.7 4.2 C 84.9 4 84.9 3.8 84.9 3.5 C 84.9 3.5 84.9 3.5 84.9 3.5 C 84.9 3.3 84.9 3.1 84.7 2.9 C 84.5 2.7 84.3 2.7 84 2.7 C 83.8 2.7 83.5 2.7 83.4 2.9 C 83.2 3.1 83.1 3.3 83.1 3.5 C 83.11 3.53 83.1 3.5 83.1 3.5 C 83.1 3.5 83.11 3.54 83.1 3.5 Z M 86.9 5.6 L 86.9 1.8 L 88 1.8 C 88 1.8 88 2.38 88 2.4 C 88.3 2 88.7 1.8 89.1 1.8 C 89.5 1.8 89.8 1.9 90 2.1 C 90.3 2.4 90.4 2.7 90.4 3.2 C 90.38 3.17 90.4 5.6 90.4 5.6 L 89.3 5.6 C 89.3 5.6 89.31 3.51 89.3 3.5 C 89.3 3 89.1 2.7 88.7 2.7 C 88.5 2.7 88.3 2.8 88.2 2.9 C 88.1 3.1 88 3.3 88 3.5 C 88 3.51 88 5.6 88 5.6 L 86.9 5.6 Z M 94.6 5 C 94.2 5.5 93.7 5.7 93.1 5.7 C 92.5 5.7 92 5.5 91.7 5.1 C 91.3 4.8 91.1 4.3 91.1 3.7 C 91.1 3.7 91.1 3.7 91.1 3.7 C 91.1 3.2 91.3 2.7 91.6 2.3 C 92 2 92.4 1.8 93 1.8 C 93.6 1.8 94 2 94.3 2.4 C 94.6 2.8 94.8 3.2 94.8 3.8 C 94.8 3.9 94.8 4 94.8 4.1 C 94.8 4.1 92.2 4.1 92.2 4.1 C 92.2 4.3 92.3 4.5 92.5 4.6 C 92.6 4.8 92.8 4.8 93.1 4.8 C 93.4 4.8 93.7 4.7 94 4.4 C 94 4.44 94.6 5 94.6 5 C 94.6 5 94.61 4.98 94.6 5 Z M 92.2 3.4 C 92.2 3.4 93.8 3.4 93.8 3.4 C 93.7 3.2 93.6 3 93.5 2.8 C 93.4 2.7 93.2 2.6 93 2.6 C 92.8 2.6 92.6 2.7 92.4 2.8 C 92.3 3 92.2 3.2 92.2 3.4 Z M 97.7 5.4 C 97.5 5.6 97.2 5.7 96.9 5.7 C 96.5 5.7 96.2 5.6 96 5.4 C 95.9 5.2 95.8 4.9 95.8 4.5 C 95.77 4.54 95.8 2.8 95.8 2.8 L 95.3 2.8 L 95.3 1.8 L 95.8 1.8 L 95.8 0.9 L 96.8 0.9 L 96.8 1.8 L 97.7 1.8 L 97.7 2.8 L 96.8 2.8 C 96.8 2.8 96.83 4.36 96.8 4.4 C 96.8 4.6 96.9 4.7 97.2 4.7 C 97.4 4.7 97.5 4.7 97.7 4.6 C 97.7 4.59 97.7 5.4 97.7 5.4 C 97.7 5.4 97.7 5.45 97.7 5.4 Z " stroke="none" fill="#000"/>  </g></svg>