<?xml version="1.0" standalone="no"?><!DOCTYPE svg PUBLIC "-//W3C//DTD SVG 1.1//EN" "http://www.w3.org/Graphics/SVG/1.1/DTD/svg11.dtd"><svg xmlns="http://www.w3.org/2000/svg" version="1.1" width="134px" height="66.4px" viewBox="0 -3 134 66.4" style="top:-3px">  <desc>El Havlusu – Classic r n Kodu: 330492 Renk: Siyah Malzeme: 100% Pamuk / 500 g l ler: 30 × 30 cm</desc>  <defs/>  <g id="Polygon77618">    <path d="M 3.3 45.2 L 3.3 44.6 L 4 44.6 L 4 45.2 L 3.3 45.2 Z M 2 45.2 L 2 44.6 L 2.6 44.6 L 2.6 45.2 L 2 45.2 Z M 5.5 48.1 C 5.5 48.8 5.2 49.4 4.8 49.9 C 4.3 50.4 3.7 50.7 3 50.7 C 2.2 50.7 1.6 50.4 1.2 49.9 C 0.7 49.5 0.5 48.9 0.5 48.2 C 0.5 48.2 0.5 48.1 0.5 48.1 C 0.5 47.5 0.7 46.9 1.2 46.4 C 1.7 45.9 2.3 45.6 3 45.6 C 3.7 45.6 4.3 45.9 4.8 46.4 C 5.2 46.8 5.5 47.4 5.5 48.1 C 5.47 48.14 5.5 48.1 5.5 48.1 C 5.5 48.1 5.47 48.15 5.5 48.1 Z M 1.1 48.1 C 1.1 48.7 1.2 49.2 1.6 49.6 C 2 50 2.4 50.2 3 50.2 C 3.5 50.2 4 50 4.4 49.6 C 4.7 49.2 4.9 48.7 4.9 48.2 C 4.9 48.2 4.9 48.1 4.9 48.1 C 4.9 47.6 4.7 47.1 4.4 46.7 C 4 46.3 3.5 46.1 3 46.1 C 2.4 46.1 2 46.3 1.6 46.7 C 1.2 47.1 1.1 47.6 1.1 48.1 C 1.05 48.14 1.1 48.1 1.1 48.1 C 1.1 48.1 1.05 48.15 1.1 48.1 Z M 6.6 50.6 L 6.6 45.5 L 7.1 45.5 L 7.1 50.6 L 6.6 50.6 Z M 9.7 51.7 L 9.1 51.4 C 9.1 51.4 9.69 50.65 9.7 50.6 C 9.2 50.6 8.9 50.4 8.6 50 C 8.3 49.7 8.2 49.3 8.2 48.8 C 8.2 48.8 8.2 48.8 8.2 48.8 C 8.2 48.3 8.3 47.8 8.7 47.5 C 9.1 47.1 9.5 46.9 10 46.9 C 10.6 46.9 11.1 47.1 11.5 47.5 C 11.5 47.5 11.1 47.9 11.1 47.9 C 10.8 47.6 10.4 47.4 10 47.4 C 9.6 47.4 9.3 47.5 9.1 47.8 C 8.8 48.1 8.7 48.4 8.7 48.8 C 8.7 48.8 8.7 48.8 8.7 48.8 C 8.7 49.2 8.8 49.5 9.1 49.8 C 9.4 50.1 9.7 50.2 10.1 50.2 C 10.5 50.2 10.8 50 11.2 49.7 C 11.2 49.7 11.5 50 11.5 50 C 11.1 50.4 10.7 50.7 10.1 50.7 C 10.13 50.68 9.7 51.7 9.7 51.7 Z M 14.2 46.4 L 14.2 45.8 L 14.8 45.8 L 14.8 46.4 L 14.2 46.4 Z M 13 46.4 L 13 45.8 L 13.6 45.8 L 13.6 46.4 L 13 46.4 Z M 15 50 C 14.7 50.4 14.3 50.7 13.7 50.7 C 13.3 50.7 13 50.5 12.7 50.3 C 12.5 50 12.3 49.7 12.3 49.2 C 12.33 49.23 12.3 47 12.3 47 L 12.9 47 C 12.9 47 12.87 49.09 12.9 49.1 C 12.9 49.4 13 49.7 13.1 49.9 C 13.3 50.1 13.6 50.2 13.9 50.2 C 14.2 50.2 14.4 50.1 14.7 49.9 C 14.9 49.7 15 49.4 15 49.1 C 14.96 49.05 15 47 15 47 L 15.5 47 L 15.5 50.6 L 15 50.6 L 15 50 C 15 50 14.96 49.97 15 50 Z M 16.8 50.6 L 16.8 45.5 L 17.3 45.5 L 17.3 50.6 L 16.8 50.6 Z M 21.6 50 C 21.2 50.5 20.7 50.7 20.1 50.7 C 19.6 50.7 19.2 50.5 18.8 50.2 C 18.5 49.8 18.3 49.4 18.3 48.8 C 18.3 48.8 18.3 48.8 18.3 48.8 C 18.3 48.3 18.5 47.8 18.8 47.4 C 19.1 47.1 19.6 46.9 20.1 46.9 C 20.6 46.9 21 47.1 21.3 47.4 C 21.6 47.8 21.7 48.3 21.7 48.8 C 21.7 48.9 21.7 48.9 21.7 49 C 21.7 49 18.9 49 18.9 49 C 18.9 49.4 19 49.7 19.3 49.9 C 19.5 50.1 19.8 50.2 20.1 50.2 C 20.6 50.2 20.9 50 21.3 49.7 C 21.28 49.7 21.6 50 21.6 50 C 21.6 50 21.62 50 21.6 50 Z M 18.9 48.6 C 18.9 48.6 21.2 48.6 21.2 48.6 C 21.2 48.2 21.1 47.9 20.9 47.7 C 20.7 47.5 20.4 47.4 20 47.4 C 19.7 47.4 19.5 47.5 19.2 47.7 C 19 47.9 18.9 48.2 18.9 48.6 Z M 22.7 50.6 L 22.7 47 L 23.2 47 C 23.2 47 23.23 47.93 23.2 47.9 C 23.4 47.6 23.6 47.4 23.8 47.2 C 24.1 47 24.4 46.9 24.7 46.9 C 24.7 46.92 24.7 47.5 24.7 47.5 C 24.7 47.5 24.66 47.5 24.7 47.5 C 24.2 47.5 23.9 47.6 23.6 47.9 C 23.4 48.2 23.2 48.6 23.2 49.2 C 23.23 49.16 23.2 50.6 23.2 50.6 L 22.7 50.6 Z M 25.5 47.7 L 25.5 47 L 26.1 47 L 26.1 47.7 L 25.5 47.7 Z M 25.5 50.6 L 25.5 49.9 L 26.1 49.9 L 26.1 50.6 L 25.5 50.6 Z M 31 50.7 C 30.2 50.7 29.6 50.4 29.1 49.8 C 29.1 49.8 29.5 49.5 29.5 49.5 C 29.9 49.9 30.4 50.2 31 50.2 C 31.3 50.2 31.5 50.1 31.7 49.9 C 31.9 49.7 32.1 49.5 32.1 49.2 C 32.1 49.2 32.1 49.2 32.1 49.2 C 32.1 48.9 31.9 48.7 31.7 48.5 C 31.4 48.4 31.1 48.3 30.7 48.3 C 30.68 48.27 30.4 48.3 30.4 48.3 L 30.3 47.9 L 31.8 46.2 L 29.4 46.2 L 29.4 45.7 L 32.5 45.7 L 32.5 46.1 C 32.5 46.1 31 47.81 31 47.8 C 31.5 47.9 31.9 48 32.2 48.2 C 32.5 48.4 32.6 48.8 32.6 49.2 C 32.6 49.2 32.6 49.2 32.6 49.2 C 32.6 49.6 32.5 50 32.1 50.3 C 31.8 50.5 31.4 50.7 31 50.7 Z M 37.7 48.1 C 37.7 48.9 37.5 49.5 37.1 49.9 C 36.7 50.4 36.2 50.7 35.6 50.7 C 35 50.7 34.5 50.4 34.1 50 C 33.7 49.5 33.5 48.9 33.5 48.2 C 33.5 48.2 33.5 48.1 33.5 48.1 C 33.5 47.4 33.7 46.8 34.1 46.4 C 34.5 45.9 35 45.6 35.6 45.6 C 36.2 45.6 36.7 45.9 37.1 46.3 C 37.5 46.8 37.7 47.4 37.7 48.1 C 37.66 48.14 37.7 48.1 37.7 48.1 C 37.7 48.1 37.66 48.15 37.7 48.1 Z M 34.1 48.1 C 34.1 48.7 34.2 49.2 34.5 49.6 C 34.8 50 35.2 50.2 35.6 50.2 C 36 50.2 36.4 50 36.7 49.6 C 37 49.2 37.1 48.7 37.1 48.2 C 37.1 48.2 37.1 48.1 37.1 48.1 C 37.1 47.6 36.9 47.1 36.7 46.7 C 36.4 46.3 36 46.1 35.6 46.1 C 35.1 46.1 34.8 46.3 34.5 46.7 C 34.2 47.1 34.1 47.6 34.1 48.1 C 34.1 48.14 34.1 48.1 34.1 48.1 C 34.1 48.1 34.1 48.15 34.1 48.1 Z M 43.6 49.7 L 42.4 48.5 L 41.2 49.7 L 40.8 49.4 L 42 48.1 L 40.8 46.9 L 41.2 46.6 L 42.4 47.8 L 43.6 46.6 L 44 46.9 L 42.7 48.1 L 44 49.3 L 43.6 49.7 Z M 48.8 50.7 C 48.1 50.7 47.5 50.4 47 49.8 C 47 49.8 47.4 49.5 47.4 49.5 C 47.8 49.9 48.3 50.2 48.9 50.2 C 49.2 50.2 49.4 50.1 49.6 49.9 C 49.8 49.7 49.9 49.5 49.9 49.2 C 49.9 49.2 49.9 49.2 49.9 49.2 C 49.9 48.9 49.8 48.7 49.5 48.5 C 49.3 48.4 49 48.3 48.6 48.3 C 48.55 48.27 48.2 48.3 48.2 48.3 L 48.1 47.9 L 49.7 46.2 L 47.3 46.2 L 47.3 45.7 L 50.4 45.7 L 50.4 46.1 C 50.4 46.1 48.87 47.81 48.9 47.8 C 49.3 47.9 49.7 48 50 48.2 C 50.3 48.4 50.5 48.8 50.5 49.2 C 50.5 49.2 50.5 49.2 50.5 49.2 C 50.5 49.6 50.3 50 50 50.3 C 49.7 50.5 49.3 50.7 48.8 50.7 Z M 55.5 48.1 C 55.5 48.9 55.3 49.5 55 49.9 C 54.6 50.4 54.1 50.7 53.5 50.7 C 52.8 50.7 52.3 50.4 52 50 C 51.6 49.5 51.4 48.9 51.4 48.2 C 51.4 48.2 51.4 48.1 51.4 48.1 C 51.4 47.4 51.6 46.8 52 46.4 C 52.4 45.9 52.9 45.6 53.5 45.6 C 54.1 45.6 54.6 45.9 55 46.3 C 55.3 46.8 55.5 47.4 55.5 48.1 C 55.53 48.14 55.5 48.1 55.5 48.1 C 55.5 48.1 55.53 48.15 55.5 48.1 Z M 52 48.1 C 52 48.7 52.1 49.2 52.4 49.6 C 52.7 50 53 50.2 53.5 50.2 C 53.9 50.2 54.3 50 54.6 49.6 C 54.8 49.2 55 48.7 55 48.2 C 55 48.2 55 48.1 55 48.1 C 55 47.6 54.8 47.1 54.5 46.7 C 54.3 46.3 53.9 46.1 53.5 46.1 C 53 46.1 52.7 46.3 52.4 46.7 C 52.1 47.1 52 47.6 52 48.1 C 51.97 48.14 52 48.1 52 48.1 C 52 48.1 51.97 48.15 52 48.1 Z M 61.8 50 C 61.4 50.5 60.9 50.7 60.3 50.7 C 59.8 50.7 59.3 50.5 59 50.1 C 58.6 49.8 58.4 49.3 58.4 48.8 C 58.4 48.8 58.4 48.8 58.4 48.8 C 58.4 48.3 58.6 47.8 59 47.5 C 59.3 47.1 59.8 46.9 60.3 46.9 C 60.9 46.9 61.3 47.1 61.7 47.5 C 61.7 47.5 61.4 47.9 61.4 47.9 C 61 47.6 60.7 47.4 60.3 47.4 C 59.9 47.4 59.6 47.5 59.4 47.8 C 59.1 48.1 59 48.4 59 48.8 C 59 48.8 59 48.8 59 48.8 C 59 49.2 59.1 49.5 59.4 49.8 C 59.6 50.1 59.9 50.2 60.3 50.2 C 60.7 50.2 61.1 50 61.4 49.7 C 61.43 49.66 61.8 50 61.8 50 C 61.8 50 61.77 49.98 61.8 50 Z M 62.7 50.6 L 62.7 47 L 63.2 47 C 63.2 47 63.2 47.59 63.2 47.6 C 63.3 47.4 63.5 47.2 63.7 47.1 C 63.9 47 64.1 46.9 64.4 46.9 C 64.9 46.9 65.3 47.1 65.5 47.6 C 65.9 47.1 66.3 46.9 66.8 46.9 C 67.2 46.9 67.6 47 67.8 47.3 C 68 47.6 68.2 47.9 68.2 48.4 C 68.15 48.36 68.2 50.6 68.2 50.6 L 67.6 50.6 C 67.6 50.6 67.61 48.49 67.6 48.5 C 67.6 48.1 67.5 47.9 67.4 47.7 C 67.2 47.5 67 47.4 66.7 47.4 C 66.4 47.4 66.2 47.5 66 47.7 C 65.8 47.9 65.7 48.2 65.7 48.5 C 65.67 48.51 65.7 50.6 65.7 50.6 L 65.1 50.6 C 65.1 50.6 65.14 48.47 65.1 48.5 C 65.1 48.1 65.1 47.9 64.9 47.7 C 64.7 47.5 64.5 47.4 64.2 47.4 C 63.9 47.4 63.7 47.5 63.5 47.7 C 63.3 47.9 63.2 48.2 63.2 48.5 C 63.2 48.53 63.2 50.6 63.2 50.6 L 62.7 50.6 Z " stroke="none" fill="#000"/>  </g>  <g id="Polygon77617">    <path d="M 0.7 41.6 L 0.7 36.7 L 1.3 36.7 L 3 39.4 L 4.8 36.7 L 5.4 36.7 L 5.4 41.6 L 4.8 41.6 L 4.8 37.6 L 3 40.3 L 3 40.3 L 1.2 37.6 L 1.2 41.6 L 0.7 41.6 Z M 9.1 41.1 C 8.7 41.5 8.3 41.7 7.8 41.7 C 7.4 41.7 7.1 41.6 6.8 41.4 C 6.5 41.2 6.4 40.9 6.4 40.5 C 6.4 40.5 6.4 40.5 6.4 40.5 C 6.4 40.2 6.5 39.9 6.8 39.7 C 7.1 39.5 7.5 39.4 8 39.4 C 8.3 39.4 8.7 39.4 9.1 39.5 C 9.1 39.5 9.1 39.4 9.1 39.4 C 9.1 39.1 9 38.8 8.8 38.7 C 8.6 38.5 8.3 38.4 8 38.4 C 7.6 38.4 7.3 38.5 6.9 38.7 C 6.9 38.7 6.7 38.2 6.7 38.2 C 7.2 38 7.6 37.9 8 37.9 C 8.6 37.9 8.9 38.1 9.2 38.3 C 9.5 38.6 9.6 38.9 9.6 39.4 C 9.58 39.39 9.6 41.6 9.6 41.6 L 9.1 41.6 L 9.1 41.1 C 9.1 41.1 9.06 41.05 9.1 41.1 Z M 7.9 41.2 C 8.2 41.2 8.5 41.2 8.7 41 C 9 40.8 9.1 40.6 9.1 40.3 C 9.1 40.3 9.1 39.9 9.1 39.9 C 8.7 39.8 8.4 39.8 8 39.8 C 7.7 39.8 7.4 39.8 7.2 40 C 7 40.1 7 40.3 7 40.5 C 7 40.5 7 40.5 7 40.5 C 7 40.7 7 40.9 7.2 41.1 C 7.4 41.2 7.6 41.2 7.9 41.2 Z M 10.8 41.6 L 10.8 36.5 L 11.3 36.5 L 11.3 41.6 L 10.8 41.6 Z M 12.4 41.6 L 12.4 41.3 L 14.8 38.4 L 12.4 38.4 L 12.4 38 L 15.5 38 L 15.5 38.3 L 13.1 41.1 L 15.5 41.1 L 15.5 41.6 L 12.4 41.6 Z M 19.5 41 C 19.1 41.5 18.6 41.7 18 41.7 C 17.5 41.7 17.1 41.5 16.8 41.2 C 16.4 40.8 16.2 40.4 16.2 39.8 C 16.2 39.8 16.2 39.8 16.2 39.8 C 16.2 39.3 16.4 38.8 16.7 38.4 C 17.1 38.1 17.5 37.9 18 37.9 C 18.5 37.9 18.9 38.1 19.2 38.4 C 19.5 38.8 19.7 39.3 19.7 39.8 C 19.7 39.9 19.7 39.9 19.7 40 C 19.7 40 16.8 40 16.8 40 C 16.8 40.4 17 40.7 17.2 40.9 C 17.4 41.1 17.7 41.2 18.1 41.2 C 18.5 41.2 18.9 41 19.2 40.7 C 19.2 40.7 19.5 41 19.5 41 C 19.5 41 19.54 41 19.5 41 Z M 16.8 39.6 C 16.8 39.6 19.1 39.6 19.1 39.6 C 19.1 39.2 19 38.9 18.8 38.7 C 18.6 38.5 18.3 38.4 18 38.4 C 17.6 38.4 17.4 38.5 17.2 38.7 C 17 38.9 16.8 39.2 16.8 39.6 Z M 20.6 41.6 L 20.6 38 L 21.1 38 C 21.1 38 21.15 38.59 21.1 38.6 C 21.3 38.4 21.5 38.2 21.6 38.1 C 21.8 38 22 37.9 22.3 37.9 C 22.9 37.9 23.2 38.1 23.5 38.6 C 23.8 38.1 24.2 37.9 24.8 37.9 C 25.2 37.9 25.5 38 25.7 38.3 C 26 38.6 26.1 38.9 26.1 39.4 C 26.1 39.36 26.1 41.6 26.1 41.6 L 25.6 41.6 C 25.6 41.6 25.56 39.49 25.6 39.5 C 25.6 39.1 25.5 38.9 25.3 38.7 C 25.1 38.5 24.9 38.4 24.6 38.4 C 24.3 38.4 24.1 38.5 23.9 38.7 C 23.7 38.9 23.6 39.2 23.6 39.5 C 23.62 39.51 23.6 41.6 23.6 41.6 L 23.1 41.6 C 23.1 41.6 23.09 39.47 23.1 39.5 C 23.1 39.1 23 38.9 22.8 38.7 C 22.7 38.5 22.4 38.4 22.2 38.4 C 21.9 38.4 21.6 38.5 21.4 38.7 C 21.2 38.9 21.1 39.2 21.1 39.5 C 21.15 39.53 21.1 41.6 21.1 41.6 L 20.6 41.6 Z M 30.3 41 C 29.9 41.5 29.4 41.7 28.8 41.7 C 28.3 41.7 27.9 41.5 27.5 41.2 C 27.2 40.8 27 40.4 27 39.8 C 27 39.8 27 39.8 27 39.8 C 27 39.3 27.2 38.8 27.5 38.4 C 27.8 38.1 28.3 37.9 28.8 37.9 C 29.3 37.9 29.7 38.1 30 38.4 C 30.3 38.8 30.4 39.3 30.4 39.8 C 30.4 39.9 30.4 39.9 30.4 40 C 30.4 40 27.6 40 27.6 40 C 27.6 40.4 27.7 40.7 28 40.9 C 28.2 41.1 28.5 41.2 28.8 41.2 C 29.3 41.2 29.6 41 30 40.7 C 29.98 40.7 30.3 41 30.3 41 C 30.3 41 30.32 41 30.3 41 Z M 27.6 39.6 C 27.6 39.6 29.9 39.6 29.9 39.6 C 29.9 39.2 29.8 38.9 29.6 38.7 C 29.4 38.5 29.1 38.4 28.7 38.4 C 28.4 38.4 28.2 38.5 27.9 38.7 C 27.7 38.9 27.6 39.2 27.6 39.6 Z M 31.4 38.7 L 31.4 38 L 32 38 L 32 38.7 L 31.4 38.7 Z M 31.4 41.6 L 31.4 40.9 L 32 40.9 L 32 41.6 L 31.4 41.6 Z M 35.9 41.6 L 35.9 37.2 L 35 37.5 L 34.9 37.1 L 36.1 36.7 L 36.5 36.7 L 36.5 41.6 L 35.9 41.6 Z M 41.7 39.1 C 41.7 39.9 41.5 40.5 41.2 40.9 C 40.8 41.4 40.3 41.7 39.7 41.7 C 39.1 41.7 38.6 41.4 38.2 41 C 37.8 40.5 37.6 39.9 37.6 39.2 C 37.6 39.2 37.6 39.1 37.6 39.1 C 37.6 38.4 37.8 37.8 38.2 37.4 C 38.6 36.9 39.1 36.6 39.7 36.6 C 40.3 36.6 40.8 36.9 41.2 37.3 C 41.6 37.8 41.7 38.4 41.7 39.1 C 41.74 39.14 41.7 39.1 41.7 39.1 C 41.7 39.1 41.74 39.15 41.7 39.1 Z M 38.2 39.1 C 38.2 39.7 38.3 40.2 38.6 40.6 C 38.9 41 39.2 41.2 39.7 41.2 C 40.1 41.2 40.5 41 40.8 40.6 C 41 40.2 41.2 39.7 41.2 39.2 C 41.2 39.2 41.2 39.1 41.2 39.1 C 41.2 38.6 41 38.1 40.8 37.7 C 40.5 37.3 40.1 37.1 39.7 37.1 C 39.2 37.1 38.9 37.3 38.6 37.7 C 38.3 38.1 38.2 38.6 38.2 39.1 C 38.18 39.14 38.2 39.1 38.2 39.1 C 38.2 39.1 38.18 39.15 38.2 39.1 Z M 46.7 39.1 C 46.7 39.9 46.6 40.5 46.2 40.9 C 45.8 41.4 45.3 41.7 44.7 41.7 C 44.1 41.7 43.6 41.4 43.2 41 C 42.8 40.5 42.6 39.9 42.6 39.2 C 42.6 39.2 42.6 39.1 42.6 39.1 C 42.6 38.4 42.8 37.8 43.2 37.4 C 43.6 36.9 44.1 36.6 44.7 36.6 C 45.3 36.6 45.8 36.9 46.2 37.3 C 46.6 37.8 46.7 38.4 46.7 39.1 C 46.75 39.14 46.7 39.1 46.7 39.1 C 46.7 39.1 46.75 39.15 46.7 39.1 Z M 43.2 39.1 C 43.2 39.7 43.3 40.2 43.6 40.6 C 43.9 41 44.2 41.2 44.7 41.2 C 45.1 41.2 45.5 41 45.8 40.6 C 46 40.2 46.2 39.7 46.2 39.2 C 46.2 39.2 46.2 39.1 46.2 39.1 C 46.2 38.6 46 38.1 45.8 37.7 C 45.5 37.3 45.1 37.1 44.7 37.1 C 44.2 37.1 43.9 37.3 43.6 37.7 C 43.3 38.1 43.2 38.6 43.2 39.1 C 43.18 39.14 43.2 39.1 43.2 39.1 C 43.2 39.1 43.18 39.15 43.2 39.1 Z M 49.8 37.9 C 49.8 38.2 49.7 38.5 49.4 38.8 C 49.2 39 49 39.1 48.6 39.1 C 48.3 39.1 48.1 39 47.9 38.8 C 47.6 38.5 47.5 38.2 47.5 37.9 C 47.5 37.9 47.5 37.9 47.5 37.9 C 47.5 37.6 47.6 37.3 47.9 37 C 48.1 36.8 48.3 36.6 48.7 36.6 C 49 36.6 49.2 36.8 49.5 37 C 49.7 37.3 49.8 37.5 49.8 37.9 C 49.76 37.88 49.8 37.9 49.8 37.9 C 49.8 37.9 49.76 37.9 49.8 37.9 Z M 48.6 37 C 48.5 37 48.3 37.1 48.2 37.3 C 48.1 37.4 48 37.6 48 37.9 C 48 37.9 48 37.9 48 37.9 C 48 38.1 48.1 38.3 48.2 38.5 C 48.3 38.7 48.5 38.8 48.7 38.8 C 48.9 38.8 49 38.7 49.1 38.5 C 49.2 38.3 49.3 38.1 49.3 37.9 C 49.3 37.9 49.3 37.9 49.3 37.9 C 49.3 37.7 49.2 37.5 49.1 37.3 C 49 37.1 48.8 37 48.6 37 Z M 49.9 39 L 51.6 36.7 L 52.1 36.7 L 50.3 39.3 L 48.6 41.6 L 48 41.6 L 49.9 39 Z M 51.5 41.7 C 51.2 41.7 51 41.5 50.7 41.3 C 50.5 41 50.4 40.8 50.4 40.4 C 50.4 40.4 50.4 40.4 50.4 40.4 C 50.4 40.1 50.5 39.8 50.7 39.5 C 51 39.3 51.2 39.1 51.5 39.1 C 51.9 39.1 52.1 39.3 52.3 39.5 C 52.5 39.8 52.6 40.1 52.6 40.4 C 52.6 40.4 52.6 40.4 52.6 40.4 C 52.6 40.7 52.5 41 52.3 41.3 C 52.1 41.5 51.9 41.7 51.5 41.7 Z M 51.5 41.3 C 51.7 41.3 51.9 41.2 52 41 C 52.1 40.9 52.2 40.7 52.2 40.4 C 52.2 40.4 52.2 40.4 52.2 40.4 C 52.2 40.2 52.1 40 52 39.8 C 51.9 39.6 51.7 39.5 51.5 39.5 C 51.3 39.5 51.2 39.6 51.1 39.8 C 51 40 50.9 40.2 50.9 40.4 C 50.9 40.4 50.9 40.4 50.9 40.4 C 50.9 40.6 51 40.8 51.1 41 C 51.2 41.2 51.4 41.3 51.5 41.3 Z M 55.8 41.6 L 55.8 36.7 C 55.8 36.7 57.64 36.7 57.6 36.7 C 58.2 36.7 58.6 36.8 59 37.1 C 59.3 37.4 59.5 37.8 59.5 38.3 C 59.5 38.3 59.5 38.3 59.5 38.3 C 59.5 38.8 59.3 39.2 58.9 39.5 C 58.6 39.7 58.1 39.9 57.6 39.9 C 57.55 39.87 56.4 39.9 56.4 39.9 L 56.4 41.6 L 55.8 41.6 Z M 56.4 39.4 C 56.4 39.4 57.57 39.37 57.6 39.4 C 58 39.4 58.3 39.3 58.6 39.1 C 58.8 38.9 58.9 38.6 58.9 38.3 C 58.9 38.3 58.9 38.3 58.9 38.3 C 58.9 37.9 58.8 37.7 58.6 37.5 C 58.3 37.3 58 37.2 57.6 37.2 C 57.6 37.21 56.4 37.2 56.4 37.2 L 56.4 39.4 Z M 62.8 41.1 C 62.5 41.5 62 41.7 61.5 41.7 C 61.1 41.7 60.8 41.6 60.5 41.4 C 60.3 41.2 60.1 40.9 60.1 40.5 C 60.1 40.5 60.1 40.5 60.1 40.5 C 60.1 40.2 60.3 39.9 60.5 39.7 C 60.8 39.5 61.2 39.4 61.7 39.4 C 62 39.4 62.4 39.4 62.8 39.5 C 62.8 39.5 62.8 39.4 62.8 39.4 C 62.8 39.1 62.7 38.8 62.5 38.7 C 62.3 38.5 62 38.4 61.7 38.4 C 61.3 38.4 61 38.5 60.6 38.7 C 60.6 38.7 60.4 38.2 60.4 38.2 C 60.9 38 61.3 37.9 61.8 37.9 C 62.3 37.9 62.7 38.1 62.9 38.3 C 63.2 38.6 63.3 38.9 63.3 39.4 C 63.3 39.39 63.3 41.6 63.3 41.6 L 62.8 41.6 L 62.8 41.1 C 62.8 41.1 62.78 41.05 62.8 41.1 Z M 61.6 41.2 C 61.9 41.2 62.2 41.2 62.4 41 C 62.7 40.8 62.8 40.6 62.8 40.3 C 62.8 40.3 62.8 39.9 62.8 39.9 C 62.4 39.8 62.1 39.8 61.7 39.8 C 61.4 39.8 61.1 39.8 60.9 40 C 60.8 40.1 60.7 40.3 60.7 40.5 C 60.7 40.5 60.7 40.5 60.7 40.5 C 60.7 40.7 60.8 40.9 60.9 41.1 C 61.1 41.2 61.3 41.2 61.6 41.2 Z M 64.4 41.6 L 64.4 38 L 65 38 C 65 38 64.99 38.59 65 38.6 C 65.1 38.4 65.3 38.2 65.5 38.1 C 65.6 38 65.9 37.9 66.2 37.9 C 66.7 37.9 67.1 38.1 67.3 38.6 C 67.6 38.1 68.1 37.9 68.6 37.9 C 69 37.9 69.3 38 69.6 38.3 C 69.8 38.6 69.9 38.9 69.9 39.4 C 69.94 39.36 69.9 41.6 69.9 41.6 L 69.4 41.6 C 69.4 41.6 69.4 39.49 69.4 39.5 C 69.4 39.1 69.3 38.9 69.1 38.7 C 69 38.5 68.8 38.4 68.5 38.4 C 68.2 38.4 67.9 38.5 67.7 38.7 C 67.6 38.9 67.5 39.2 67.5 39.5 C 67.46 39.51 67.5 41.6 67.5 41.6 L 66.9 41.6 C 66.9 41.6 66.93 39.47 66.9 39.5 C 66.9 39.1 66.8 38.9 66.7 38.7 C 66.5 38.5 66.3 38.4 66 38.4 C 65.7 38.4 65.5 38.5 65.3 38.7 C 65.1 38.9 65 39.2 65 39.5 C 64.99 39.53 65 41.6 65 41.6 L 64.4 41.6 Z M 73.7 41 C 73.4 41.4 72.9 41.7 72.4 41.7 C 72 41.7 71.6 41.5 71.4 41.3 C 71.2 41 71 40.7 71 40.2 C 71.03 40.23 71 38 71 38 L 71.6 38 C 71.6 38 71.57 40.09 71.6 40.1 C 71.6 40.4 71.7 40.7 71.8 40.9 C 72 41.1 72.3 41.2 72.6 41.2 C 72.9 41.2 73.1 41.1 73.3 40.9 C 73.6 40.7 73.7 40.4 73.7 40.1 C 73.65 40.05 73.7 38 73.7 38 L 74.2 38 L 74.2 41.6 L 73.7 41.6 L 73.7 41 C 73.7 41 73.65 40.97 73.7 41 Z M 75.4 41.6 L 75.4 36.5 L 75.9 36.5 L 75.9 40 L 77.9 38 L 78.6 38 L 77 39.5 L 78.6 41.6 L 78 41.6 L 76.7 39.9 L 75.9 40.7 L 75.9 41.6 L 75.4 41.6 Z M 80.7 42.5 L 84 36 L 84.5 36 L 81.2 42.5 L 80.7 42.5 Z M 88.7 41.7 C 88 41.7 87.4 41.4 86.9 40.9 C 86.9 40.9 87.3 40.5 87.3 40.5 C 87.7 41 88.2 41.2 88.7 41.2 C 89 41.2 89.3 41.1 89.5 40.9 C 89.7 40.7 89.8 40.4 89.8 40.1 C 89.8 40.1 89.8 40.1 89.8 40.1 C 89.8 39.8 89.7 39.5 89.5 39.3 C 89.3 39.1 89 39.1 88.6 39.1 C 88.3 39.1 87.9 39.1 87.6 39.3 C 87.6 39.33 87.2 39.1 87.2 39.1 L 87.4 36.7 L 90.2 36.7 L 90.2 37.2 L 87.8 37.2 C 87.8 37.2 87.74 38.78 87.7 38.8 C 88.1 38.6 88.4 38.6 88.7 38.6 C 89.2 38.6 89.6 38.7 89.9 39 C 90.2 39.2 90.4 39.6 90.4 40.1 C 90.4 40.1 90.4 40.1 90.4 40.1 C 90.4 40.5 90.2 40.9 89.9 41.2 C 89.6 41.5 89.2 41.7 88.7 41.7 Z M 95.4 39.1 C 95.4 39.9 95.2 40.5 94.8 40.9 C 94.4 41.4 93.9 41.7 93.3 41.7 C 92.7 41.7 92.2 41.4 91.8 41 C 91.4 40.5 91.3 39.9 91.3 39.2 C 91.3 39.2 91.3 39.1 91.3 39.1 C 91.3 38.4 91.4 37.8 91.8 37.4 C 92.2 36.9 92.7 36.6 93.3 36.6 C 93.9 36.6 94.4 36.9 94.8 37.3 C 95.2 37.8 95.4 38.4 95.4 39.1 C 95.39 39.14 95.4 39.1 95.4 39.1 C 95.4 39.1 95.39 39.15 95.4 39.1 Z M 91.8 39.1 C 91.8 39.7 92 40.2 92.2 40.6 C 92.5 41 92.9 41.2 93.3 41.2 C 93.8 41.2 94.1 41 94.4 40.6 C 94.7 40.2 94.8 39.7 94.8 39.2 C 94.8 39.2 94.8 39.1 94.8 39.1 C 94.8 38.6 94.7 38.1 94.4 37.7 C 94.1 37.3 93.8 37.1 93.3 37.1 C 92.9 37.1 92.5 37.3 92.2 37.7 C 92 38.1 91.8 38.6 91.8 39.1 C 91.83 39.14 91.8 39.1 91.8 39.1 C 91.8 39.1 91.83 39.15 91.8 39.1 Z M 100.4 39.1 C 100.4 39.9 100.2 40.5 99.8 40.9 C 99.4 41.4 98.9 41.7 98.3 41.7 C 97.7 41.7 97.2 41.4 96.8 41 C 96.4 40.5 96.3 39.9 96.3 39.2 C 96.3 39.2 96.3 39.1 96.3 39.1 C 96.3 38.4 96.4 37.8 96.8 37.4 C 97.2 36.9 97.7 36.6 98.3 36.6 C 99 36.6 99.4 36.9 99.8 37.3 C 100.2 37.8 100.4 38.4 100.4 39.1 C 100.39 39.14 100.4 39.1 100.4 39.1 C 100.4 39.1 100.39 39.15 100.4 39.1 Z M 96.8 39.1 C 96.8 39.7 97 40.2 97.2 40.6 C 97.5 41 97.9 41.2 98.3 41.2 C 98.8 41.2 99.1 41 99.4 40.6 C 99.7 40.2 99.8 39.7 99.8 39.2 C 99.8 39.2 99.8 39.1 99.8 39.1 C 99.8 38.6 99.7 38.1 99.4 37.7 C 99.1 37.3 98.8 37.1 98.3 37.1 C 97.9 37.1 97.5 37.3 97.2 37.7 C 97 38.1 96.8 38.6 96.8 39.1 C 96.83 39.14 96.8 39.1 96.8 39.1 C 96.8 39.1 96.83 39.15 96.8 39.1 Z M 106.5 42.3 C 106.2 42.6 105.7 42.7 105.1 42.7 C 104.5 42.7 104 42.6 103.5 42.2 C 103.5 42.2 103.7 41.8 103.7 41.8 C 104.2 42.1 104.6 42.3 105.1 42.3 C 105.5 42.3 105.9 42.2 106.1 41.9 C 106.3 41.7 106.4 41.4 106.4 41 C 106.4 41 106.4 40.6 106.4 40.6 C 106.1 41.1 105.6 41.3 105 41.3 C 104.6 41.3 104.2 41.2 103.8 40.8 C 103.5 40.5 103.3 40.1 103.3 39.6 C 103.3 39.6 103.3 39.6 103.3 39.6 C 103.3 39.1 103.5 38.7 103.8 38.4 C 104.2 38.1 104.6 37.9 105 37.9 C 105.6 37.9 106.1 38.1 106.4 38.6 C 106.43 38.63 106.4 38 106.4 38 L 107 38 C 107 38 106.97 40.97 107 41 C 107 41.5 106.8 41.9 106.5 42.3 C 106.5 42.3 106.5 42.3 106.5 42.3 Z M 105.1 40.8 C 105.5 40.8 105.8 40.7 106.1 40.5 C 106.3 40.3 106.5 40 106.5 39.6 C 106.5 39.6 106.5 39.6 106.5 39.6 C 106.5 39.2 106.3 39 106.1 38.7 C 105.8 38.5 105.5 38.4 105.1 38.4 C 104.8 38.4 104.5 38.5 104.2 38.7 C 104 38.9 103.9 39.2 103.9 39.6 C 103.9 39.6 103.9 39.6 103.9 39.6 C 103.9 40 104 40.3 104.2 40.5 C 104.5 40.7 104.8 40.8 105.1 40.8 Z " stroke="none" fill="#000"/>  </g>  <g id="Polygon77616">    <path d="M 0.7 23.6 L 0.7 18.7 C 0.7 18.7 2.8 18.7 2.8 18.7 C 3.4 18.7 3.9 18.9 4.2 19.2 C 4.4 19.4 4.6 19.8 4.6 20.2 C 4.6 20.2 4.6 20.2 4.6 20.2 C 4.6 20.6 4.4 20.9 4.2 21.1 C 4 21.4 3.6 21.5 3.2 21.6 C 3.24 21.6 4.7 23.6 4.7 23.6 L 4.1 23.6 L 2.6 21.7 L 1.2 21.7 L 1.2 23.6 L 0.7 23.6 Z M 1.2 21.2 C 1.2 21.2 2.75 21.2 2.8 21.2 C 3.1 21.2 3.4 21.1 3.7 20.9 C 3.9 20.7 4 20.5 4 20.2 C 4 20.2 4 20.2 4 20.2 C 4 19.9 3.9 19.6 3.7 19.5 C 3.5 19.3 3.2 19.2 2.8 19.2 C 2.76 19.21 1.2 19.2 1.2 19.2 L 1.2 21.2 Z M 8.7 23 C 8.3 23.5 7.8 23.7 7.2 23.7 C 6.7 23.7 6.3 23.5 6 23.2 C 5.6 22.8 5.4 22.4 5.4 21.8 C 5.4 21.8 5.4 21.8 5.4 21.8 C 5.4 21.3 5.6 20.8 5.9 20.4 C 6.3 20.1 6.7 19.9 7.2 19.9 C 7.7 19.9 8.1 20.1 8.4 20.4 C 8.7 20.8 8.9 21.3 8.9 21.8 C 8.9 21.9 8.9 21.9 8.9 22 C 8.9 22 6 22 6 22 C 6 22.4 6.2 22.7 6.4 22.9 C 6.6 23.1 6.9 23.2 7.3 23.2 C 7.7 23.2 8.1 23 8.4 22.7 C 8.4 22.7 8.7 23 8.7 23 C 8.7 23 8.74 23 8.7 23 Z M 6 21.6 C 6 21.6 8.3 21.6 8.3 21.6 C 8.3 21.2 8.2 20.9 8 20.7 C 7.8 20.5 7.5 20.4 7.2 20.4 C 6.8 20.4 6.6 20.5 6.4 20.7 C 6.1 20.9 6 21.2 6 21.6 Z M 9.8 23.6 L 9.8 20 L 10.3 20 C 10.3 20 10.35 20.61 10.3 20.6 C 10.6 20.1 11.1 19.9 11.6 19.9 C 12 19.9 12.4 20 12.6 20.3 C 12.8 20.6 13 20.9 13 21.4 C 12.97 21.35 13 23.6 13 23.6 L 12.4 23.6 C 12.4 23.6 12.43 21.49 12.4 21.5 C 12.4 21.1 12.3 20.9 12.2 20.7 C 12 20.5 11.7 20.4 11.4 20.4 C 11.1 20.4 10.9 20.5 10.7 20.7 C 10.4 20.9 10.3 21.2 10.3 21.5 C 10.35 21.53 10.3 23.6 10.3 23.6 L 9.8 23.6 Z M 14.1 23.6 L 14.1 18.5 L 14.7 18.5 L 14.7 22 L 16.6 20 L 17.3 20 L 15.8 21.5 L 17.3 23.6 L 16.7 23.6 L 15.4 21.9 L 14.7 22.7 L 14.7 23.6 L 14.1 23.6 Z M 18.1 20.7 L 18.1 20 L 18.7 20 L 18.7 20.7 L 18.1 20.7 Z M 18.1 23.6 L 18.1 22.9 L 18.7 22.9 L 18.7 23.6 L 18.1 23.6 Z M 23.8 23.7 C 23 23.7 22.3 23.4 21.7 22.9 C 21.7 22.9 22.1 22.5 22.1 22.5 C 22.4 22.7 22.6 22.9 22.9 23 C 23.1 23.1 23.4 23.2 23.8 23.2 C 24.1 23.2 24.4 23.1 24.6 22.9 C 24.8 22.8 24.9 22.6 24.9 22.3 C 24.9 22.3 24.9 22.3 24.9 22.3 C 24.9 22.1 24.8 21.9 24.6 21.8 C 24.4 21.6 24.1 21.5 23.6 21.4 C 23 21.3 22.6 21.1 22.3 20.9 C 22.1 20.7 21.9 20.4 21.9 20 C 21.9 20 21.9 20 21.9 20 C 21.9 19.6 22.1 19.3 22.4 19 C 22.7 18.8 23.1 18.6 23.6 18.6 C 23.9 18.6 24.2 18.7 24.5 18.8 C 24.8 18.9 25 19 25.3 19.2 C 25.3 19.2 25 19.7 25 19.7 C 24.5 19.3 24 19.1 23.5 19.1 C 23.2 19.1 23 19.2 22.8 19.4 C 22.6 19.5 22.5 19.7 22.5 19.9 C 22.5 19.9 22.5 19.9 22.5 19.9 C 22.5 20.2 22.6 20.4 22.8 20.5 C 23 20.7 23.3 20.8 23.8 20.9 C 24.4 21 24.8 21.2 25 21.4 C 25.3 21.6 25.4 21.9 25.4 22.3 C 25.4 22.3 25.4 22.3 25.4 22.3 C 25.4 22.7 25.3 23 25 23.3 C 24.6 23.5 24.2 23.7 23.8 23.7 Z M 26.5 19.2 L 26.5 18.6 L 27.1 18.6 L 27.1 19.2 L 26.5 19.2 Z M 26.5 23.6 L 26.5 20 L 27 20 L 27 23.6 L 26.5 23.6 Z M 29.8 23 L 31 20 L 31.6 20 C 31.6 20 30.06 23.72 30.1 23.7 C 29.9 24.1 29.7 24.4 29.6 24.5 C 29.4 24.7 29.1 24.7 28.9 24.7 C 28.6 24.7 28.3 24.7 28.1 24.6 C 28.1 24.6 28.3 24.1 28.3 24.1 C 28.4 24.2 28.6 24.3 28.8 24.3 C 29 24.3 29.1 24.2 29.3 24.1 C 29.4 24 29.5 23.8 29.6 23.6 C 29.58 23.59 27.9 20 27.9 20 L 28.5 20 L 29.8 23 Z M 34.8 23.1 C 34.5 23.5 34.1 23.7 33.5 23.7 C 33.2 23.7 32.8 23.6 32.6 23.4 C 32.3 23.2 32.2 22.9 32.2 22.5 C 32.2 22.5 32.2 22.5 32.2 22.5 C 32.2 22.2 32.3 21.9 32.6 21.7 C 32.9 21.5 33.2 21.4 33.7 21.4 C 34.1 21.4 34.5 21.4 34.8 21.5 C 34.8 21.5 34.8 21.4 34.8 21.4 C 34.8 21.1 34.7 20.8 34.5 20.7 C 34.4 20.5 34.1 20.4 33.7 20.4 C 33.4 20.4 33 20.5 32.6 20.7 C 32.6 20.7 32.5 20.2 32.5 20.2 C 32.9 20 33.3 19.9 33.8 19.9 C 34.3 19.9 34.7 20.1 35 20.3 C 35.2 20.6 35.3 20.9 35.3 21.4 C 35.34 21.39 35.3 23.6 35.3 23.6 L 34.8 23.6 L 34.8 23.1 C 34.8 23.1 34.82 23.05 34.8 23.1 Z M 33.6 23.2 C 34 23.2 34.2 23.2 34.5 23 C 34.7 22.8 34.8 22.6 34.8 22.3 C 34.8 22.3 34.8 21.9 34.8 21.9 C 34.5 21.8 34.1 21.8 33.8 21.8 C 33.4 21.8 33.2 21.8 33 22 C 32.8 22.1 32.7 22.3 32.7 22.5 C 32.7 22.5 32.7 22.5 32.7 22.5 C 32.7 22.7 32.8 22.9 33 23.1 C 33.2 23.2 33.4 23.2 33.6 23.2 Z M 36.5 23.6 L 36.5 18.5 L 37 18.5 C 37 18.5 37.03 20.61 37 20.6 C 37.3 20.1 37.7 19.9 38.3 19.9 C 38.7 19.9 39 20 39.3 20.3 C 39.5 20.6 39.7 20.9 39.7 21.4 C 39.65 21.35 39.7 23.6 39.7 23.6 L 39.1 23.6 C 39.1 23.6 39.12 21.49 39.1 21.5 C 39.1 21.1 39 20.9 38.9 20.7 C 38.7 20.5 38.4 20.4 38.1 20.4 C 37.8 20.4 37.5 20.5 37.3 20.7 C 37.1 20.9 37 21.2 37 21.5 C 37.03 21.53 37 23.6 37 23.6 L 36.5 23.6 Z " stroke="none" fill="#000"/>  </g>  <g id="Polygon77615">    <path d="M 3 9.3 L 3 8.6 L 3.6 8.6 L 3.6 9.3 L 3 9.3 Z M 1.7 9.3 L 1.7 8.6 L 2.3 8.6 L 2.3 9.3 L 1.7 9.3 Z M 2.7 14.7 C 2 14.7 1.5 14.5 1.2 14.1 C 0.8 13.7 0.6 13.2 0.6 12.5 C 0.62 12.55 0.6 9.7 0.6 9.7 L 1.2 9.7 C 1.2 9.7 1.17 12.51 1.2 12.5 C 1.2 13 1.3 13.4 1.6 13.7 C 1.8 14 2.2 14.2 2.7 14.2 C 3.1 14.2 3.5 14 3.8 13.8 C 4 13.5 4.1 13.1 4.1 12.5 C 4.14 12.55 4.1 9.7 4.1 9.7 L 4.7 9.7 C 4.7 9.7 4.7 12.51 4.7 12.5 C 4.7 13.2 4.5 13.7 4.1 14.1 C 3.8 14.5 3.3 14.7 2.7 14.7 Z M 5.9 14.6 L 5.9 11 L 6.5 11 C 6.5 11 6.45 11.93 6.5 11.9 C 6.6 11.6 6.8 11.4 7 11.2 C 7.3 11 7.6 10.9 7.9 10.9 C 7.93 10.92 7.9 11.5 7.9 11.5 C 7.9 11.5 7.89 11.5 7.9 11.5 C 7.5 11.5 7.1 11.6 6.9 11.9 C 6.6 12.2 6.5 12.6 6.5 13.2 C 6.45 13.16 6.5 14.6 6.5 14.6 L 5.9 14.6 Z M 10.6 10.4 L 10.6 9.8 L 11.2 9.8 L 11.2 10.4 L 10.6 10.4 Z M 9.3 10.4 L 9.3 9.8 L 10 9.8 L 10 10.4 L 9.3 10.4 Z M 11.3 14 C 11 14.4 10.6 14.7 10.1 14.7 C 9.7 14.7 9.3 14.5 9.1 14.3 C 8.8 14 8.7 13.7 8.7 13.2 C 8.69 13.23 8.7 11 8.7 11 L 9.2 11 C 9.2 11 9.23 13.09 9.2 13.1 C 9.2 13.4 9.3 13.7 9.5 13.9 C 9.7 14.1 9.9 14.2 10.2 14.2 C 10.5 14.2 10.8 14.1 11 13.9 C 11.2 13.7 11.3 13.4 11.3 13.1 C 11.32 13.05 11.3 11 11.3 11 L 11.9 11 L 11.9 14.6 L 11.3 14.6 L 11.3 14 C 11.3 14 11.32 13.97 11.3 14 Z M 13.1 14.6 L 13.1 11 L 13.6 11 C 13.6 11 13.6 11.61 13.6 11.6 C 13.9 11.1 14.3 10.9 14.8 10.9 C 15.3 10.9 15.6 11 15.9 11.3 C 16.1 11.6 16.2 11.9 16.2 12.4 C 16.23 12.35 16.2 14.6 16.2 14.6 L 15.7 14.6 C 15.7 14.6 15.69 12.49 15.7 12.5 C 15.7 12.1 15.6 11.9 15.4 11.7 C 15.2 11.5 15 11.4 14.7 11.4 C 14.4 11.4 14.1 11.5 13.9 11.7 C 13.7 11.9 13.6 12.2 13.6 12.5 C 13.6 12.53 13.6 14.6 13.6 14.6 L 13.1 14.6 Z M 19.6 14.6 L 19.6 9.7 L 20.1 9.7 L 20.1 12.6 L 22.9 9.7 L 23.7 9.7 L 21.5 11.8 L 23.7 14.6 L 23 14.6 L 21.2 12.2 L 20.1 13.3 L 20.1 14.6 L 19.6 14.6 Z M 26.2 14.7 C 25.6 14.7 25.2 14.5 24.8 14.1 C 24.5 13.8 24.3 13.3 24.3 12.8 C 24.3 12.8 24.3 12.8 24.3 12.8 C 24.3 12.3 24.5 11.8 24.8 11.5 C 25.2 11.1 25.6 10.9 26.2 10.9 C 26.7 10.9 27.2 11.1 27.5 11.5 C 27.9 11.8 28.1 12.3 28.1 12.8 C 28.1 12.8 28.1 12.8 28.1 12.8 C 28.1 13.3 27.9 13.8 27.5 14.1 C 27.2 14.5 26.7 14.7 26.2 14.7 Z M 26.2 14.2 C 26.6 14.2 26.9 14.1 27.1 13.8 C 27.4 13.5 27.5 13.2 27.5 12.8 C 27.5 12.8 27.5 12.8 27.5 12.8 C 27.5 12.4 27.4 12.1 27.1 11.8 C 26.9 11.5 26.5 11.4 26.2 11.4 C 25.8 11.4 25.5 11.5 25.2 11.8 C 25 12.1 24.8 12.4 24.8 12.8 C 24.8 12.8 24.8 12.8 24.8 12.8 C 24.8 13.2 25 13.5 25.2 13.8 C 25.5 14.1 25.8 14.2 26.2 14.2 Z M 31.9 13.9 C 31.6 14.4 31.1 14.7 30.5 14.7 C 30.1 14.7 29.7 14.5 29.3 14.2 C 29 13.8 28.8 13.4 28.8 12.8 C 28.8 12.8 28.8 12.8 28.8 12.8 C 28.8 12.2 29 11.8 29.3 11.4 C 29.7 11.1 30.1 10.9 30.5 10.9 C 31.1 10.9 31.6 11.2 31.9 11.7 C 31.93 11.67 31.9 9.5 31.9 9.5 L 32.5 9.5 L 32.5 14.6 L 31.9 14.6 L 31.9 13.9 C 31.9 13.9 31.93 13.87 31.9 13.9 Z M 30.6 14.2 C 31 14.2 31.3 14.1 31.6 13.8 C 31.8 13.5 32 13.2 32 12.8 C 32 12.8 32 12.8 32 12.8 C 32 12.4 31.8 12 31.6 11.8 C 31.3 11.5 31 11.4 30.6 11.4 C 30.3 11.4 30 11.5 29.7 11.8 C 29.5 12 29.4 12.4 29.4 12.8 C 29.4 12.8 29.4 12.8 29.4 12.8 C 29.4 13.2 29.5 13.6 29.7 13.8 C 30 14.1 30.3 14.2 30.6 14.2 Z M 36.2 14 C 36 14.4 35.5 14.7 35 14.7 C 34.6 14.7 34.2 14.5 34 14.3 C 33.7 14 33.6 13.7 33.6 13.2 C 33.62 13.23 33.6 11 33.6 11 L 34.2 11 C 34.2 11 34.16 13.09 34.2 13.1 C 34.2 13.4 34.2 13.7 34.4 13.9 C 34.6 14.1 34.8 14.2 35.2 14.2 C 35.5 14.2 35.7 14.1 35.9 13.9 C 36.1 13.7 36.2 13.4 36.2 13.1 C 36.25 13.05 36.2 11 36.2 11 L 36.8 11 L 36.8 14.6 L 36.2 14.6 L 36.2 14 C 36.2 14 36.25 13.97 36.2 14 Z M 38 11.7 L 38 11 L 38.6 11 L 38.6 11.7 L 38 11.7 Z M 38 14.6 L 38 13.9 L 38.6 13.9 L 38.6 14.6 L 38 14.6 Z M 43.4 14.7 C 42.6 14.7 42 14.4 41.5 13.8 C 41.5 13.8 42.3 13.1 42.3 13.1 C 42.6 13.5 43 13.7 43.5 13.7 C 43.7 13.7 43.8 13.7 44 13.6 C 44.1 13.4 44.1 13.3 44.1 13.1 C 44.1 13.1 44.1 13.1 44.1 13.1 C 44.1 12.9 44.1 12.8 43.9 12.6 C 43.7 12.5 43.5 12.5 43.2 12.5 C 43.19 12.49 42.7 12.5 42.7 12.5 L 42.6 11.8 L 43.7 10.6 L 41.8 10.6 L 41.8 9.7 L 45.1 9.7 L 45.1 10.5 C 45.1 10.5 43.89 11.69 43.9 11.7 C 44.8 11.8 45.2 12.3 45.2 13.1 C 45.2 13.1 45.2 13.1 45.2 13.1 C 45.2 13.6 45 13.9 44.7 14.2 C 44.4 14.5 44 14.7 43.4 14.7 Z M 47.8 14.7 C 47 14.7 46.3 14.4 45.9 13.8 C 45.9 13.8 46.6 13.1 46.6 13.1 C 47 13.5 47.4 13.7 47.8 13.7 C 48 13.7 48.2 13.7 48.3 13.6 C 48.4 13.4 48.5 13.3 48.5 13.1 C 48.5 13.1 48.5 13.1 48.5 13.1 C 48.5 12.9 48.4 12.8 48.2 12.6 C 48.1 12.5 47.8 12.5 47.5 12.5 C 47.54 12.49 47.1 12.5 47.1 12.5 L 46.9 11.8 L 48.1 10.6 L 46.2 10.6 L 46.2 9.7 L 49.5 9.7 L 49.5 10.5 C 49.5 10.5 48.24 11.69 48.2 11.7 C 49.1 11.8 49.6 12.3 49.6 13.1 C 49.6 13.1 49.6 13.1 49.6 13.1 C 49.6 13.6 49.4 13.9 49.1 14.2 C 48.8 14.5 48.3 14.7 47.8 14.7 Z M 52.5 14.7 C 51.9 14.7 51.3 14.4 50.9 14 C 50.5 13.5 50.3 12.9 50.3 12.2 C 50.3 12.2 50.3 12.1 50.3 12.1 C 50.3 11.4 50.5 10.8 50.9 10.3 C 51.4 9.9 51.9 9.6 52.5 9.6 C 53.2 9.6 53.7 9.9 54.1 10.3 C 54.5 10.8 54.7 11.4 54.7 12.1 C 54.7 12.1 54.7 12.1 54.7 12.1 C 54.7 12.9 54.5 13.5 54.1 14 C 53.7 14.4 53.2 14.7 52.5 14.7 Z M 51.4 12.1 C 51.4 12.6 51.5 13 51.7 13.3 C 51.9 13.6 52.2 13.7 52.5 13.7 C 52.8 13.7 53.1 13.6 53.3 13.3 C 53.5 13 53.6 12.6 53.6 12.2 C 53.6 12.2 53.6 12.1 53.6 12.1 C 53.6 11.7 53.5 11.3 53.3 11 C 53.1 10.7 52.8 10.6 52.5 10.6 C 52.2 10.6 51.9 10.7 51.7 11 C 51.5 11.3 51.4 11.7 51.4 12.1 C 51.44 12.14 51.4 12.1 51.4 12.1 C 51.4 12.1 51.44 12.15 51.4 12.1 Z M 57.9 14.6 L 57.9 13.5 L 55.5 13.5 L 55.3 12.8 L 58 9.7 L 58.9 9.7 L 58.9 12.7 L 59.5 12.7 L 59.5 13.5 L 58.9 13.5 L 58.9 14.6 L 57.9 14.6 Z M 56.6 12.7 L 57.9 12.7 L 57.9 11.1 L 56.6 12.7 Z M 61 13.3 C 61.3 13.6 61.7 13.7 62 13.7 C 62.3 13.7 62.5 13.6 62.6 13.5 C 62.8 13.4 62.9 13.2 62.9 13.1 C 63 12.9 63 12.8 63 12.6 C 62.8 12.8 62.4 12.9 62 12.9 C 61.5 12.9 61.1 12.8 60.8 12.5 C 60.4 12.2 60.3 11.8 60.3 11.3 C 60.3 11.3 60.3 11.3 60.3 11.3 C 60.3 10.8 60.5 10.4 60.8 10.1 C 61.2 9.8 61.6 9.6 62.2 9.6 C 62.5 9.6 62.7 9.7 63 9.7 C 63.2 9.8 63.4 10 63.6 10.1 C 64 10.5 64.1 11.2 64.1 12 C 64.1 12 64.1 12 64.1 12 C 64.1 12.8 64 13.5 63.6 14 C 63.2 14.4 62.7 14.7 62 14.7 C 61.4 14.7 60.9 14.5 60.4 14.1 C 60.4 14.1 61 13.3 61 13.3 C 61 13.3 60.96 13.28 61 13.3 Z M 62.2 12 C 62.5 12 62.7 12 62.8 11.8 C 63 11.7 63 11.5 63 11.3 C 63 11.3 63 11.3 63 11.3 C 63 11.1 63 10.9 62.8 10.7 C 62.7 10.6 62.5 10.5 62.2 10.5 C 61.9 10.5 61.7 10.6 61.6 10.7 C 61.4 10.9 61.4 11.1 61.4 11.3 C 61.4 11.3 61.4 11.3 61.4 11.3 C 61.4 11.5 61.4 11.7 61.6 11.8 C 61.7 12 61.9 12 62.2 12 Z M 64.9 14.6 L 64.9 13.7 C 64.9 13.7 66.5 12.41 66.5 12.4 C 66.8 12.1 67 11.9 67.2 11.8 C 67.3 11.6 67.3 11.4 67.3 11.2 C 67.3 11 67.3 10.9 67.2 10.8 C 67 10.7 66.9 10.6 66.7 10.6 C 66.5 10.6 66.3 10.6 66.2 10.7 C 66 10.8 65.9 11 65.7 11.3 C 65.7 11.3 64.9 10.6 64.9 10.6 C 65.2 10.3 65.5 10 65.7 9.9 C 66 9.7 66.3 9.6 66.8 9.6 C 67.3 9.6 67.7 9.8 68 10 C 68.3 10.3 68.4 10.7 68.4 11.1 C 68.4 11.1 68.4 11.2 68.4 11.2 C 68.4 11.5 68.4 11.9 68.2 12.1 C 68 12.4 67.6 12.7 67.2 13.1 C 67.16 13.05 66.4 13.7 66.4 13.7 L 68.5 13.7 L 68.5 14.6 L 64.9 14.6 Z " stroke="none" fill="#000"/>  </g>  <g id="Polygon77614">    <path d="M 0.6 5.6 L 0.6 0.7 L 4.3 0.7 L 4.3 1.7 L 1.7 1.7 L 1.7 2.7 L 4 2.7 L 4 3.6 L 1.7 3.6 L 1.7 4.6 L 4.3 4.6 L 4.3 5.6 L 0.6 5.6 Z M 5.2 5.6 L 5.2 0.5 L 6.3 0.5 L 6.3 5.6 L 5.2 5.6 Z M 9.5 5.6 L 9.5 0.7 L 10.6 0.7 L 10.6 2.6 L 12.6 2.6 L 12.6 0.7 L 13.6 0.7 L 13.6 5.6 L 12.6 5.6 L 12.6 3.6 L 10.6 3.6 L 10.6 5.6 L 9.5 5.6 Z M 16.9 5.2 C 16.6 5.5 16.2 5.7 15.8 5.7 C 15.4 5.7 15.1 5.6 14.8 5.4 C 14.6 5.2 14.5 4.9 14.5 4.5 C 14.5 4.5 14.5 4.5 14.5 4.5 C 14.5 4.1 14.6 3.8 14.9 3.6 C 15.2 3.4 15.5 3.3 16 3.3 C 16.3 3.3 16.6 3.4 16.9 3.5 C 16.9 3.5 16.9 3.4 16.9 3.4 C 16.9 2.9 16.6 2.7 16.1 2.7 C 15.8 2.7 15.4 2.8 15.1 2.9 C 15.1 2.9 14.8 2.1 14.8 2.1 C 15.3 1.9 15.8 1.8 16.3 1.8 C 16.8 1.8 17.2 1.9 17.5 2.2 C 17.8 2.5 17.9 2.9 17.9 3.4 C 17.93 3.42 17.9 5.6 17.9 5.6 L 16.9 5.6 L 16.9 5.2 C 16.9 5.2 16.9 5.19 16.9 5.2 Z M 16.1 4.9 C 16.3 4.9 16.5 4.9 16.7 4.8 C 16.8 4.6 16.9 4.5 16.9 4.3 C 16.9 4.3 16.9 4.1 16.9 4.1 C 16.7 4 16.5 3.9 16.2 3.9 C 16 3.9 15.8 4 15.7 4.1 C 15.6 4.2 15.5 4.3 15.5 4.5 C 15.5 4.5 15.5 4.5 15.5 4.5 C 15.5 4.6 15.6 4.7 15.7 4.8 C 15.8 4.9 15.9 4.9 16.1 4.9 Z M 20 5.6 L 18.5 1.8 L 19.6 1.8 L 20.5 4.4 L 21.3 1.8 L 22.4 1.8 L 21 5.6 L 20 5.6 Z M 23.1 5.6 L 23.1 0.5 L 24.2 0.5 L 24.2 5.6 L 23.1 5.6 Z M 27.5 5.1 C 27.2 5.5 26.8 5.7 26.4 5.7 C 26 5.7 25.7 5.5 25.5 5.3 C 25.2 5.1 25.1 4.7 25.1 4.3 C 25.13 4.28 25.1 1.8 25.1 1.8 L 26.2 1.8 C 26.2 1.8 26.19 3.94 26.2 3.9 C 26.2 4.4 26.4 4.7 26.8 4.7 C 27 4.7 27.2 4.6 27.3 4.5 C 27.4 4.4 27.5 4.2 27.5 3.9 C 27.5 3.94 27.5 1.8 27.5 1.8 L 28.6 1.8 L 28.6 5.6 L 27.5 5.6 L 27.5 5.1 C 27.5 5.1 27.5 5.07 27.5 5.1 Z M 30.8 5.7 C 30.2 5.7 29.7 5.5 29.2 5.1 C 29.2 5.1 29.7 4.4 29.7 4.4 C 30.1 4.7 30.5 4.9 30.9 4.9 C 31.2 4.9 31.3 4.8 31.3 4.6 C 31.3 4.6 31.3 4.6 31.3 4.6 C 31.3 4.5 31.3 4.5 31.3 4.5 C 31.3 4.4 31.3 4.4 31.2 4.4 C 31.2 4.4 31.2 4.4 31.1 4.3 C 31.1 4.3 31.1 4.3 31 4.3 C 31 4.3 30.9 4.2 30.9 4.2 C 30.8 4.2 30.8 4.2 30.7 4.2 C 30.6 4.2 30.6 4.1 30.5 4.1 C 30.4 4.1 30.2 4 30.1 4 C 30 3.9 29.9 3.9 29.8 3.8 C 29.7 3.7 29.6 3.6 29.5 3.5 C 29.4 3.3 29.4 3.2 29.4 3 C 29.4 3 29.4 3 29.4 3 C 29.4 2.6 29.5 2.3 29.8 2.1 C 30.1 1.9 30.4 1.8 30.8 1.8 C 31.3 1.8 31.7 1.9 32.2 2.2 C 32.2 2.2 31.8 3 31.8 3 C 31.4 2.7 31 2.6 30.8 2.6 C 30.6 2.6 30.5 2.6 30.5 2.7 C 30.4 2.7 30.4 2.8 30.4 2.9 C 30.4 2.9 30.4 2.9 30.4 2.9 C 30.4 3 30.4 3 30.6 3.1 C 30.7 3.2 30.9 3.3 31.1 3.3 C 31.3 3.4 31.4 3.4 31.5 3.5 C 31.7 3.5 31.8 3.6 31.9 3.7 C 32 3.8 32.1 3.9 32.2 4 C 32.2 4.1 32.3 4.3 32.3 4.4 C 32.3 4.4 32.3 4.5 32.3 4.5 C 32.3 4.9 32.1 5.2 31.9 5.4 C 31.6 5.6 31.3 5.7 30.8 5.7 Z M 35.4 5.1 C 35.1 5.5 34.7 5.7 34.3 5.7 C 33.9 5.7 33.6 5.5 33.3 5.3 C 33.1 5.1 33 4.7 33 4.3 C 33 4.28 33 1.8 33 1.8 L 34.1 1.8 C 34.1 1.8 34.07 3.94 34.1 3.9 C 34.1 4.4 34.3 4.7 34.7 4.7 C 34.9 4.7 35.1 4.6 35.2 4.5 C 35.3 4.4 35.4 4.2 35.4 3.9 C 35.38 3.94 35.4 1.8 35.4 1.8 L 36.4 1.8 L 36.4 5.6 L 35.4 5.6 L 35.4 5.1 C 35.4 5.1 35.38 5.07 35.4 5.1 Z M 39.4 3.9 L 39.4 2.9 L 42.4 2.9 L 42.4 3.9 L 39.4 3.9 Z M 47.7 5.7 C 47 5.7 46.4 5.4 45.9 5 C 45.4 4.5 45.2 3.9 45.2 3.2 C 45.2 3.2 45.2 3.1 45.2 3.1 C 45.2 2.4 45.4 1.8 45.9 1.4 C 46.4 0.9 47 0.6 47.7 0.6 C 48.5 0.6 49.2 0.9 49.7 1.4 C 49.7 1.4 49 2.2 49 2.2 C 48.6 1.8 48.2 1.6 47.7 1.6 C 47.3 1.6 47 1.8 46.7 2.1 C 46.4 2.4 46.3 2.7 46.3 3.1 C 46.3 3.1 46.3 3.1 46.3 3.1 C 46.3 3.6 46.4 3.9 46.7 4.2 C 47 4.5 47.3 4.7 47.7 4.7 C 48 4.7 48.2 4.6 48.4 4.5 C 48.6 4.5 48.8 4.3 49 4.1 C 49 4.1 49.7 4.8 49.7 4.8 C 49.4 5.1 49.1 5.3 48.8 5.5 C 48.5 5.6 48.1 5.7 47.7 5.7 Z M 50.5 5.6 L 50.5 0.5 L 51.6 0.5 L 51.6 5.6 L 50.5 5.6 Z M 54.8 5.2 C 54.5 5.5 54.1 5.7 53.6 5.7 C 53.3 5.7 53 5.6 52.7 5.4 C 52.5 5.2 52.3 4.9 52.3 4.5 C 52.3 4.5 52.3 4.5 52.3 4.5 C 52.3 4.1 52.5 3.8 52.8 3.6 C 53 3.4 53.4 3.3 53.9 3.3 C 54.2 3.3 54.5 3.4 54.8 3.5 C 54.8 3.5 54.8 3.4 54.8 3.4 C 54.8 2.9 54.5 2.7 54 2.7 C 53.6 2.7 53.3 2.8 52.9 2.9 C 52.9 2.9 52.7 2.1 52.7 2.1 C 53.1 1.9 53.6 1.8 54.1 1.8 C 54.7 1.8 55.1 1.9 55.4 2.2 C 55.7 2.5 55.8 2.9 55.8 3.4 C 55.8 3.42 55.8 5.6 55.8 5.6 L 54.8 5.6 L 54.8 5.2 C 54.8 5.2 54.77 5.19 54.8 5.2 Z M 54 4.9 C 54.2 4.9 54.4 4.9 54.6 4.8 C 54.7 4.6 54.8 4.5 54.8 4.3 C 54.8 4.3 54.8 4.1 54.8 4.1 C 54.6 4 54.4 3.9 54.1 3.9 C 53.9 3.9 53.7 4 53.6 4.1 C 53.4 4.2 53.4 4.3 53.4 4.5 C 53.4 4.5 53.4 4.5 53.4 4.5 C 53.4 4.6 53.4 4.7 53.5 4.8 C 53.6 4.9 53.8 4.9 54 4.9 Z M 58 5.7 C 57.4 5.7 56.9 5.5 56.4 5.1 C 56.4 5.1 56.9 4.4 56.9 4.4 C 57.3 4.7 57.7 4.9 58.1 4.9 C 58.4 4.9 58.5 4.8 58.5 4.6 C 58.5 4.6 58.5 4.6 58.5 4.6 C 58.5 4.5 58.5 4.5 58.5 4.5 C 58.5 4.4 58.5 4.4 58.4 4.4 C 58.4 4.4 58.4 4.4 58.3 4.3 C 58.3 4.3 58.3 4.3 58.2 4.3 C 58.1 4.3 58.1 4.2 58.1 4.2 C 58 4.2 58 4.2 57.9 4.2 C 57.8 4.2 57.8 4.1 57.7 4.1 C 57.6 4.1 57.4 4 57.3 4 C 57.2 3.9 57.1 3.9 57 3.8 C 56.9 3.7 56.8 3.6 56.7 3.5 C 56.6 3.3 56.6 3.2 56.6 3 C 56.6 3 56.6 3 56.6 3 C 56.6 2.6 56.7 2.3 57 2.1 C 57.3 1.9 57.6 1.8 58 1.8 C 58.5 1.8 58.9 1.9 59.4 2.2 C 59.4 2.2 59 3 59 3 C 58.6 2.7 58.2 2.6 58 2.6 C 57.8 2.6 57.7 2.6 57.7 2.7 C 57.6 2.7 57.6 2.8 57.6 2.9 C 57.6 2.9 57.6 2.9 57.6 2.9 C 57.6 3 57.6 3 57.8 3.1 C 57.9 3.2 58.1 3.3 58.3 3.3 C 58.5 3.4 58.6 3.4 58.7 3.5 C 58.8 3.5 59 3.6 59.1 3.7 C 59.2 3.8 59.3 3.9 59.4 4 C 59.4 4.1 59.5 4.3 59.5 4.4 C 59.5 4.4 59.5 4.5 59.5 4.5 C 59.5 4.9 59.3 5.2 59.1 5.4 C 58.8 5.6 58.5 5.7 58 5.7 Z M 61.5 5.7 C 61 5.7 60.4 5.5 59.9 5.1 C 59.9 5.1 60.4 4.4 60.4 4.4 C 60.8 4.7 61.2 4.9 61.6 4.9 C 61.9 4.9 62 4.8 62 4.6 C 62 4.6 62 4.6 62 4.6 C 62 4.5 62 4.5 62 4.5 C 62 4.4 62 4.4 61.9 4.4 C 61.9 4.4 61.9 4.4 61.8 4.3 C 61.8 4.3 61.8 4.3 61.7 4.3 C 61.7 4.3 61.6 4.2 61.6 4.2 C 61.5 4.2 61.5 4.2 61.4 4.2 C 61.3 4.2 61.3 4.1 61.2 4.1 C 61.1 4.1 61 4 60.8 4 C 60.7 3.9 60.6 3.9 60.5 3.8 C 60.4 3.7 60.3 3.6 60.2 3.5 C 60.2 3.3 60.1 3.2 60.1 3 C 60.1 3 60.1 3 60.1 3 C 60.1 2.6 60.3 2.3 60.5 2.1 C 60.8 1.9 61.1 1.8 61.5 1.8 C 62 1.8 62.5 1.9 62.9 2.2 C 62.9 2.2 62.5 3 62.5 3 C 62.1 2.7 61.8 2.6 61.5 2.6 C 61.3 2.6 61.3 2.6 61.2 2.7 C 61.1 2.7 61.1 2.8 61.1 2.9 C 61.1 2.9 61.1 2.9 61.1 2.9 C 61.1 3 61.1 3 61.3 3.1 C 61.4 3.2 61.6 3.3 61.8 3.3 C 62 3.4 62.1 3.4 62.3 3.5 C 62.4 3.5 62.5 3.6 62.6 3.7 C 62.7 3.8 62.8 3.9 62.9 4 C 62.9 4.1 63 4.3 63 4.4 C 63 4.4 63 4.5 63 4.5 C 63 4.9 62.8 5.2 62.6 5.4 C 62.3 5.6 62 5.7 61.5 5.7 Z M 63.8 1.4 L 63.8 0.5 L 64.9 0.5 L 64.9 1.4 L 63.8 1.4 Z M 63.8 5.6 L 63.8 1.8 L 64.9 1.8 L 64.9 5.6 L 63.8 5.6 Z M 67.6 5.7 C 67.1 5.7 66.6 5.5 66.2 5.1 C 65.9 4.7 65.7 4.3 65.7 3.7 C 65.7 3.7 65.7 3.7 65.7 3.7 C 65.7 3.2 65.9 2.7 66.2 2.3 C 66.6 2 67.1 1.8 67.6 1.8 C 68.3 1.8 68.8 2 69.1 2.4 C 69.1 2.4 68.5 3.1 68.5 3.1 C 68.4 3 68.2 2.9 68.1 2.8 C 68 2.7 67.8 2.7 67.6 2.7 C 67.4 2.7 67.2 2.8 67 3 C 66.8 3.2 66.7 3.4 66.7 3.7 C 66.7 3.7 66.7 3.7 66.7 3.7 C 66.7 4 66.8 4.3 67 4.5 C 67.2 4.7 67.4 4.8 67.7 4.8 C 68 4.8 68.3 4.6 68.5 4.4 C 68.5 4.4 69.2 5 69.2 5 C 69 5.2 68.7 5.4 68.5 5.5 C 68.3 5.6 68 5.7 67.6 5.7 Z " stroke="none" fill="#000"/>  </g></svg>