<?xml version="1.0" standalone="no"?><!DOCTYPE svg PUBLIC "-//W3C//DTD SVG 1.1//EN" "http://www.w3.org/Graphics/SVG/1.1/DTD/svg11.dtd"><svg xmlns="http://www.w3.org/2000/svg" version="1.1" width="16.2px" height="12.4px" viewBox="0 -1 16.2 12.4" style="top:-1px">  <desc> </desc>  <defs/>  <g id="Polygon69086">    <path d="M 11.6 6.2 C 11.6 6.6 11.4 6.9 11.1 7.2 C 10.7 7.4 10.3 7.5 9.8 7.5 C 9.3 7.5 8.8 7.4 8.5 7.2 C 8.1 6.9 7.9 6.6 7.9 6.2 C 7.9 6.2 7.9 6.1 7.9 6.1 C 7.9 5.9 8 5.6 8.2 5.4 C 8.4 5.2 8.6 5.1 8.9 4.9 C 8.4 4.7 8.1 4.3 8.1 3.8 C 8.1 3.8 8.1 3.8 8.1 3.8 C 8.1 3.4 8.3 3.1 8.6 2.9 C 8.9 2.6 9.3 2.5 9.8 2.5 C 10.2 2.5 10.6 2.6 11 2.9 C 11.3 3.1 11.5 3.4 11.5 3.8 C 11.5 3.8 11.5 3.8 11.5 3.8 C 11.5 4.3 11.2 4.7 10.6 4.9 C 10.9 5.1 11.2 5.2 11.3 5.4 C 11.5 5.6 11.6 5.9 11.6 6.1 C 11.62 6.14 11.6 6.2 11.6 6.2 C 11.6 6.2 11.62 6.15 11.6 6.2 Z M 8.7 3.9 C 8.7 4.1 8.8 4.3 9 4.5 C 9.2 4.7 9.5 4.7 9.8 4.7 C 10.1 4.7 10.4 4.7 10.6 4.5 C 10.8 4.3 10.9 4.1 10.9 3.9 C 10.9 3.9 10.9 3.8 10.9 3.8 C 10.9 3.6 10.8 3.4 10.6 3.2 C 10.4 3.1 10.1 3 9.8 3 C 9.5 3 9.2 3.1 9 3.2 C 8.8 3.4 8.7 3.6 8.7 3.8 C 8.66 3.84 8.7 3.9 8.7 3.9 C 8.7 3.9 8.66 3.85 8.7 3.9 Z M 8.5 6.1 C 8.5 6.4 8.6 6.6 8.8 6.8 C 9.1 7 9.4 7.1 9.8 7.1 C 10.2 7.1 10.5 7 10.7 6.8 C 10.9 6.6 11.1 6.4 11.1 6.1 C 11.1 6.1 11.1 6.1 11.1 6.1 C 11.1 5.9 10.9 5.6 10.7 5.5 C 10.4 5.3 10.1 5.2 9.8 5.2 C 9.4 5.2 9.1 5.3 8.9 5.5 C 8.6 5.6 8.5 5.9 8.5 6.1 C 8.5 6.13 8.5 6.1 8.5 6.1 C 8.5 6.1 8.5 6.15 8.5 6.1 Z M 12.9 7.5 L 15.2 3.1 L 12.5 3.1 L 12.5 2.6 L 15.8 2.6 L 15.8 3 L 13.6 7.5 L 12.9 7.5 Z " stroke="none" fill="#000"/>  </g></svg>