<?xml version="1.0" standalone="no"?><!DOCTYPE svg PUBLIC "-//W3C//DTD SVG 1.1//EN" "http://www.w3.org/Graphics/SVG/1.1/DTD/svg11.dtd"><svg xmlns="http://www.w3.org/2000/svg" version="1.1" width="69.5px" height="21px" viewBox="0 -1 69.5 21" style="top:-1px">  <desc>₺2.921,03</desc>  <defs/>  <g id="Polygon77323">    <path d="M 2.7 4.1 L 2.7 12.7 L 1.6 12.7 L 1.6 4.1 L 2.7 4.1 Z M 5 8.1 L 6.2 8.1 C 6.2 8.1 6.16 8.66 6.2 8.7 C 6.2 9.3 6.1 9.9 5.9 10.4 C 5.8 10.9 5.5 11.3 5.2 11.7 C 4.9 12 4.6 12.3 4.1 12.5 C 3.7 12.7 3.2 12.8 2.7 12.8 C 2.5 12.8 2.4 12.8 2.2 12.7 C 2 12.7 1.8 12.7 1.6 12.7 C 1.6 12.7 2.7 11.8 2.7 11.8 C 3.1 11.8 3.4 11.7 3.7 11.6 C 4 11.5 4.2 11.3 4.4 11 C 4.6 10.7 4.8 10.4 4.9 10 C 5 9.6 5 9.2 5 8.7 C 5.04 8.66 5 8.1 5 8.1 Z M 4.2 5 L 4.2 6 L 0.2 7.8 L 0.2 6.8 L 4.2 5 Z M 4.2 6.9 L 4.2 7.9 L 0.2 9.8 L 0.2 8.7 L 4.2 6.9 Z M 13 11.8 L 13 12.7 L 7.4 12.7 L 7.4 11.9 C 7.4 11.9 10.19 8.77 10.2 8.8 C 10.5 8.4 10.8 8.1 11 7.8 C 11.2 7.5 11.3 7.3 11.4 7.1 C 11.5 6.9 11.5 6.6 11.5 6.4 C 11.5 6.1 11.4 5.9 11.3 5.7 C 11.2 5.4 11 5.2 10.8 5.1 C 10.6 5 10.3 4.9 10 4.9 C 9.6 4.9 9.3 5 9.1 5.1 C 8.8 5.3 8.6 5.5 8.5 5.7 C 8.4 6 8.3 6.3 8.3 6.6 C 8.3 6.6 7.2 6.6 7.2 6.6 C 7.2 6.2 7.3 5.7 7.5 5.3 C 7.8 4.9 8.1 4.6 8.5 4.4 C 8.9 4.1 9.4 4 10 4 C 10.6 4 11 4.1 11.4 4.3 C 11.8 4.5 12.1 4.8 12.3 5.1 C 12.5 5.4 12.6 5.8 12.6 6.3 C 12.6 6.5 12.5 6.8 12.5 7.1 C 12.4 7.3 12.3 7.6 12.1 7.8 C 12 8.1 11.8 8.3 11.6 8.6 C 11.4 8.8 11.2 9.1 11 9.3 C 10.99 9.3 8.7 11.8 8.7 11.8 L 13 11.8 Z M 14.3 12.1 C 14.3 11.9 14.3 11.8 14.4 11.6 C 14.6 11.5 14.7 11.4 14.9 11.4 C 15.2 11.4 15.3 11.5 15.4 11.6 C 15.6 11.8 15.6 11.9 15.6 12.1 C 15.6 12.3 15.6 12.4 15.4 12.5 C 15.3 12.7 15.2 12.7 14.9 12.7 C 14.7 12.7 14.6 12.7 14.4 12.5 C 14.3 12.4 14.3 12.3 14.3 12.1 Z M 18.4 11.8 C 18.4 11.8 18.49 11.76 18.5 11.8 C 19.1 11.8 19.6 11.7 20 11.5 C 20.4 11.3 20.7 11.1 20.9 10.8 C 21.1 10.5 21.3 10.2 21.3 9.8 C 21.4 9.4 21.5 9 21.5 8.6 C 21.5 8.6 21.5 7.3 21.5 7.3 C 21.5 6.9 21.4 6.6 21.3 6.3 C 21.2 6 21.1 5.7 21 5.5 C 20.8 5.3 20.6 5.2 20.4 5.1 C 20.2 5 20 4.9 19.8 4.9 C 19.6 4.9 19.3 5 19.2 5.1 C 19 5.2 18.8 5.3 18.7 5.5 C 18.5 5.7 18.4 5.9 18.3 6.1 C 18.3 6.4 18.2 6.6 18.2 6.9 C 18.2 7.2 18.3 7.4 18.3 7.6 C 18.4 7.9 18.5 8.1 18.6 8.3 C 18.8 8.5 18.9 8.6 19.1 8.7 C 19.3 8.9 19.5 8.9 19.8 8.9 C 20 8.9 20.3 8.9 20.5 8.8 C 20.7 8.7 20.9 8.5 21 8.4 C 21.2 8.2 21.3 8 21.4 7.8 C 21.5 7.6 21.6 7.4 21.6 7.1 C 21.6 7.1 22.1 7.1 22.1 7.1 C 22.1 7.5 22.1 7.8 21.9 8.1 C 21.8 8.4 21.6 8.7 21.4 9 C 21.2 9.2 20.9 9.4 20.6 9.6 C 20.3 9.7 20 9.8 19.6 9.8 C 19.2 9.8 18.8 9.7 18.5 9.6 C 18.2 9.4 18 9.2 17.8 8.9 C 17.6 8.6 17.4 8.3 17.3 8 C 17.2 7.7 17.2 7.3 17.2 7 C 17.2 6.6 17.2 6.2 17.3 5.8 C 17.5 5.5 17.6 5.2 17.8 4.9 C 18.1 4.6 18.3 4.4 18.7 4.2 C 19 4.1 19.4 4 19.8 4 C 20.3 4 20.7 4.1 21.1 4.3 C 21.4 4.5 21.7 4.8 21.9 5.1 C 22.1 5.4 22.3 5.8 22.4 6.2 C 22.5 6.6 22.5 7 22.5 7.5 C 22.5 7.5 22.5 7.9 22.5 7.9 C 22.5 8.3 22.5 8.8 22.5 9.2 C 22.4 9.7 22.3 10.1 22.1 10.5 C 22 10.9 21.7 11.3 21.4 11.6 C 21.1 11.9 20.8 12.2 20.3 12.4 C 19.8 12.6 19.2 12.7 18.5 12.7 C 18.49 12.68 18.4 12.7 18.4 12.7 L 18.4 11.8 Z M 29.6 11.8 L 29.6 12.7 L 24 12.7 L 24 11.9 C 24 11.9 26.84 8.77 26.8 8.8 C 27.2 8.4 27.5 8.1 27.6 7.8 C 27.8 7.5 28 7.3 28 7.1 C 28.1 6.9 28.2 6.6 28.2 6.4 C 28.2 6.1 28.1 5.9 28 5.7 C 27.9 5.4 27.7 5.2 27.5 5.1 C 27.3 5 27 4.9 26.7 4.9 C 26.3 4.9 26 5 25.7 5.1 C 25.5 5.3 25.3 5.5 25.2 5.7 C 25 6 25 6.3 25 6.6 C 25 6.6 23.9 6.6 23.9 6.6 C 23.9 6.2 24 5.7 24.2 5.3 C 24.4 4.9 24.7 4.6 25.1 4.4 C 25.6 4.1 26.1 4 26.7 4 C 27.2 4 27.7 4.1 28 4.3 C 28.4 4.5 28.7 4.8 28.9 5.1 C 29.1 5.4 29.2 5.8 29.2 6.3 C 29.2 6.5 29.2 6.8 29.1 7.1 C 29 7.3 28.9 7.6 28.8 7.8 C 28.6 8.1 28.5 8.3 28.3 8.6 C 28.1 8.8 27.9 9.1 27.6 9.3 C 27.64 9.3 25.4 11.8 25.4 11.8 L 29.6 11.8 Z M 34.3 4.1 L 34.3 12.7 L 33.3 12.7 L 33.3 5.4 L 31.1 6.2 L 31.1 5.3 L 34.2 4.1 L 34.3 4.1 Z M 38.6 11.4 C 38.6 11.4 38.63 12.25 38.6 12.2 C 38.6 12.6 38.5 13 38.4 13.4 C 38.2 13.8 37.9 14.1 37.6 14.4 C 37.6 14.4 37 13.9 37 13.9 C 37.1 13.8 37.2 13.6 37.3 13.4 C 37.4 13.2 37.5 13.1 37.5 12.9 C 37.5 12.7 37.6 12.5 37.6 12.3 C 37.57 12.27 37.6 11.4 37.6 11.4 L 38.6 11.4 Z M 45.2 7.7 C 45.2 7.7 45.2 9 45.2 9 C 45.2 9.7 45.2 10.3 45.1 10.8 C 44.9 11.3 44.8 11.7 44.5 12 C 44.3 12.2 44 12.5 43.7 12.6 C 43.3 12.7 43 12.8 42.6 12.8 C 42.2 12.8 41.9 12.7 41.6 12.7 C 41.4 12.6 41.1 12.4 40.9 12.3 C 40.7 12.1 40.5 11.8 40.3 11.6 C 40.2 11.3 40.1 10.9 40 10.5 C 39.9 10.1 39.9 9.6 39.9 9 C 39.9 9 39.9 7.7 39.9 7.7 C 39.9 7 39.9 6.4 40 6 C 40.2 5.5 40.4 5.1 40.6 4.8 C 40.8 4.5 41.1 4.3 41.4 4.2 C 41.8 4.1 42.1 4 42.5 4 C 42.9 4 43.2 4.1 43.5 4.1 C 43.7 4.2 44 4.3 44.2 4.5 C 44.4 4.7 44.6 4.9 44.8 5.2 C 44.9 5.5 45 5.8 45.1 6.3 C 45.2 6.7 45.2 7.2 45.2 7.7 Z M 44.2 9.2 C 44.2 9.2 44.2 7.5 44.2 7.5 C 44.2 7.2 44.1 6.8 44.1 6.5 C 44 6.2 44 6 43.9 5.8 C 43.8 5.6 43.7 5.4 43.6 5.3 C 43.4 5.1 43.3 5.1 43.1 5 C 42.9 4.9 42.8 4.9 42.5 4.9 C 42.3 4.9 42.1 4.9 41.9 5 C 41.7 5.1 41.5 5.3 41.4 5.5 C 41.2 5.7 41.1 6 41.1 6.3 C 41 6.6 40.9 7.1 40.9 7.5 C 40.9 7.5 40.9 9.2 40.9 9.2 C 40.9 9.6 41 9.9 41 10.2 C 41.1 10.5 41.1 10.8 41.2 11 C 41.3 11.2 41.4 11.4 41.5 11.5 C 41.7 11.6 41.8 11.7 42 11.8 C 42.2 11.9 42.3 11.9 42.6 11.9 C 42.8 11.9 43.1 11.8 43.3 11.7 C 43.5 11.6 43.6 11.5 43.8 11.3 C 43.9 11 44 10.8 44.1 10.4 C 44.1 10.1 44.2 9.7 44.2 9.2 Z M 48.2 7.9 C 48.2 7.9 48.99 7.87 49 7.9 C 49.4 7.9 49.7 7.8 49.9 7.7 C 50.2 7.5 50.4 7.4 50.5 7.2 C 50.6 6.9 50.7 6.7 50.7 6.4 C 50.7 6.1 50.6 5.8 50.5 5.6 C 50.4 5.4 50.2 5.2 50 5.1 C 49.8 5 49.5 4.9 49.2 4.9 C 48.9 4.9 48.6 5 48.4 5.1 C 48.1 5.2 48 5.4 47.8 5.6 C 47.7 5.8 47.6 6.1 47.6 6.4 C 47.6 6.4 46.6 6.4 46.6 6.4 C 46.6 5.9 46.7 5.5 46.9 5.2 C 47.1 4.8 47.4 4.5 47.8 4.3 C 48.2 4.1 48.7 4 49.2 4 C 49.7 4 50.2 4.1 50.5 4.3 C 50.9 4.5 51.2 4.7 51.4 5.1 C 51.7 5.5 51.8 5.9 51.8 6.4 C 51.8 6.6 51.7 6.9 51.6 7.1 C 51.5 7.4 51.4 7.6 51.1 7.8 C 50.9 8 50.7 8.2 50.3 8.3 C 50 8.5 49.6 8.5 49.1 8.5 C 49.14 8.52 48.2 8.5 48.2 8.5 L 48.2 7.9 Z M 48.2 8.8 L 48.2 8.1 C 48.2 8.1 49.14 8.11 49.1 8.1 C 49.7 8.1 50.1 8.2 50.5 8.3 C 50.8 8.4 51.1 8.6 51.3 8.8 C 51.5 9 51.7 9.3 51.8 9.5 C 51.8 9.8 51.9 10 51.9 10.3 C 51.9 10.7 51.8 11 51.7 11.3 C 51.6 11.7 51.4 11.9 51.1 12.1 C 50.9 12.3 50.6 12.5 50.3 12.6 C 49.9 12.7 49.6 12.8 49.2 12.8 C 48.8 12.8 48.5 12.7 48.1 12.6 C 47.8 12.5 47.5 12.4 47.3 12.2 C 47 12 46.8 11.7 46.7 11.4 C 46.6 11.1 46.5 10.8 46.5 10.4 C 46.5 10.4 47.6 10.4 47.6 10.4 C 47.6 10.7 47.6 11 47.8 11.2 C 47.9 11.4 48.1 11.6 48.3 11.7 C 48.6 11.8 48.9 11.9 49.2 11.9 C 49.5 11.9 49.8 11.8 50 11.7 C 50.3 11.6 50.5 11.4 50.6 11.2 C 50.7 11 50.8 10.7 50.8 10.3 C 50.8 10 50.7 9.7 50.6 9.4 C 50.4 9.2 50.2 9 49.9 8.9 C 49.7 8.8 49.4 8.8 49 8.8 C 48.99 8.76 48.2 8.8 48.2 8.8 Z " stroke="none" fill="#000"/>  </g></svg>