<?xml version="1.0" standalone="no"?><!DOCTYPE svg PUBLIC "-//W3C//DTD SVG 1.1//EN" "http://www.w3.org/Graphics/SVG/1.1/DTD/svg11.dtd"><svg xmlns="http://www.w3.org/2000/svg" version="1.1" width="33px" height="10.2px" viewBox="0 -2 33 10.2" style="top:-2px">  <desc>Soft Grey</desc>  <defs/>  <g id="Polygon90755">    <path d="M 4.2 4.9 C 3.6 4.9 3 4.6 2.5 4.2 C 2.5 4.2 2.8 3.8 2.8 3.8 C 3 4 3.3 4.2 3.5 4.3 C 3.7 4.4 4 4.4 4.3 4.4 C 4.5 4.4 4.8 4.4 4.9 4.2 C 5.1 4.1 5.2 3.9 5.2 3.7 C 5.2 3.7 5.2 3.7 5.2 3.7 C 5.2 3.5 5.1 3.3 5 3.2 C 4.8 3.1 4.5 3 4.1 2.9 C 3.6 2.8 3.2 2.7 3 2.5 C 2.8 2.3 2.7 2 2.7 1.7 C 2.7 1.7 2.7 1.7 2.7 1.7 C 2.7 1.4 2.8 1.1 3.1 0.9 C 3.3 0.6 3.7 0.5 4.1 0.5 C 4.4 0.5 4.6 0.6 4.9 0.7 C 5.1 0.7 5.3 0.9 5.5 1.1 C 5.5 1.1 5.3 1.4 5.3 1.4 C 4.9 1.1 4.5 1 4.1 1 C 3.8 1 3.6 1 3.4 1.2 C 3.2 1.3 3.2 1.4 3.2 1.6 C 3.2 1.6 3.2 1.7 3.2 1.7 C 3.2 1.9 3.2 2 3.4 2.2 C 3.6 2.3 3.9 2.4 4.3 2.5 C 4.8 2.6 5.1 2.7 5.3 2.9 C 5.6 3.1 5.7 3.3 5.7 3.7 C 5.7 3.7 5.7 3.7 5.7 3.7 C 5.7 4 5.5 4.3 5.3 4.5 C 5 4.8 4.7 4.9 4.2 4.9 Z M 8 4.9 C 7.5 4.9 7.1 4.7 6.8 4.4 C 6.5 4.1 6.4 3.7 6.4 3.3 C 6.4 3.3 6.4 3.3 6.4 3.3 C 6.4 2.8 6.5 2.4 6.8 2.1 C 7.1 1.8 7.5 1.6 8 1.6 C 8.4 1.6 8.8 1.8 9.1 2.1 C 9.4 2.4 9.6 2.8 9.6 3.2 C 9.6 3.2 9.6 3.3 9.6 3.3 C 9.6 3.7 9.4 4.1 9.1 4.4 C 8.8 4.7 8.4 4.9 8 4.9 Z M 8 4.5 C 8.3 4.5 8.6 4.3 8.8 4.1 C 9 3.9 9.1 3.6 9.1 3.3 C 9.1 3.3 9.1 3.3 9.1 3.3 C 9.1 2.9 9 2.6 8.8 2.4 C 8.6 2.2 8.3 2 8 2 C 7.6 2 7.4 2.2 7.2 2.4 C 6.9 2.6 6.8 2.9 6.8 3.2 C 6.8 3.2 6.8 3.3 6.8 3.3 C 6.8 3.6 6.9 3.9 7.2 4.1 C 7.4 4.3 7.7 4.5 8 4.5 Z M 10.6 4.8 L 10.6 2.1 L 10.2 2.1 L 10.2 1.7 L 10.6 1.7 C 10.6 1.7 10.61 1.43 10.6 1.4 C 10.6 1.1 10.7 0.8 10.9 0.6 C 11 0.5 11.3 0.4 11.5 0.4 C 11.7 0.4 11.9 0.4 12.1 0.5 C 12.1 0.5 12.1 0.9 12.1 0.9 C 11.9 0.8 11.7 0.8 11.6 0.8 C 11.2 0.8 11.1 1 11.1 1.5 C 11.06 1.46 11.1 1.7 11.1 1.7 L 12 1.7 L 12 2.1 L 11.1 2.1 L 11.1 4.8 L 10.6 4.8 Z M 14.2 4.7 C 14.1 4.8 13.9 4.9 13.7 4.9 C 13.4 4.9 13.2 4.8 13 4.6 C 12.9 4.5 12.8 4.3 12.8 4 C 12.8 3.98 12.8 2.1 12.8 2.1 L 12.4 2.1 L 12.4 1.7 L 12.8 1.7 L 12.8 0.8 L 13.3 0.8 L 13.3 1.7 L 14.2 1.7 L 14.2 2.1 L 13.3 2.1 C 13.3 2.1 13.26 3.92 13.3 3.9 C 13.3 4.3 13.4 4.4 13.8 4.4 C 13.9 4.4 14.1 4.4 14.2 4.3 C 14.23 4.33 14.2 4.7 14.2 4.7 C 14.2 4.7 14.23 4.72 14.2 4.7 Z M 20.6 4.2 C 20.1 4.7 19.5 4.9 18.9 4.9 C 18.2 4.9 17.7 4.7 17.3 4.3 C 16.9 3.8 16.7 3.3 16.7 2.7 C 16.7 2.7 16.7 2.7 16.7 2.7 C 16.7 2.1 16.9 1.6 17.3 1.2 C 17.7 0.7 18.2 0.5 18.9 0.5 C 19.2 0.5 19.5 0.6 19.7 0.7 C 20 0.8 20.2 0.9 20.4 1.1 C 20.4 1.1 20.1 1.4 20.1 1.4 C 19.8 1.1 19.3 1 18.8 1 C 18.4 1 18 1.1 17.7 1.5 C 17.4 1.8 17.2 2.2 17.2 2.7 C 17.2 2.7 17.2 2.7 17.2 2.7 C 17.2 3.2 17.4 3.6 17.7 4 C 18 4.3 18.4 4.4 18.9 4.4 C 19.4 4.4 19.8 4.3 20.1 4 C 20.12 4.03 20.1 3 20.1 3 L 18.8 3 L 18.8 2.6 L 20.6 2.6 L 20.6 4.2 C 20.6 4.2 20.57 4.23 20.6 4.2 Z M 21.6 4.8 L 21.6 1.7 L 22 1.7 C 22 1.7 22.02 2.51 22 2.5 C 22.1 2.2 22.3 2 22.5 1.9 C 22.8 1.7 23 1.6 23.3 1.6 C 23.29 1.64 23.3 2.1 23.3 2.1 C 23.3 2.1 23.25 2.14 23.3 2.1 C 22.9 2.1 22.6 2.3 22.4 2.5 C 22.1 2.8 22 3.1 22 3.6 C 22.02 3.56 22 4.8 22 4.8 L 21.6 4.8 Z M 26.6 4.3 C 26.3 4.7 25.9 4.9 25.3 4.9 C 24.9 4.9 24.5 4.7 24.2 4.4 C 23.9 4.1 23.8 3.7 23.8 3.3 C 23.8 3.3 23.8 3.2 23.8 3.2 C 23.8 2.8 23.9 2.4 24.2 2.1 C 24.5 1.8 24.9 1.6 25.3 1.6 C 25.7 1.6 26.1 1.8 26.3 2.1 C 26.6 2.4 26.7 2.8 26.7 3.3 C 26.7 3.3 26.7 3.4 26.7 3.4 C 26.7 3.4 24.3 3.4 24.3 3.4 C 24.3 3.7 24.4 4 24.6 4.2 C 24.8 4.4 25.1 4.5 25.4 4.5 C 25.7 4.5 26.1 4.3 26.3 4 C 26.34 4.03 26.6 4.3 26.6 4.3 C 26.6 4.3 26.63 4.29 26.6 4.3 Z M 24.3 3.1 C 24.3 3.1 26.3 3.1 26.3 3.1 C 26.2 2.8 26.1 2.5 26 2.3 C 25.8 2.1 25.6 2 25.3 2 C 25 2 24.8 2.1 24.6 2.3 C 24.4 2.5 24.3 2.8 24.3 3.1 Z M 28.9 4.3 L 29.9 1.7 L 30.4 1.7 C 30.4 1.7 29.06 4.9 29.1 4.9 C 28.9 5.2 28.8 5.4 28.6 5.6 C 28.5 5.7 28.3 5.8 28 5.8 C 27.8 5.8 27.6 5.7 27.4 5.6 C 27.4 5.6 27.5 5.3 27.5 5.3 C 27.7 5.3 27.8 5.4 28 5.4 C 28.1 5.4 28.3 5.3 28.4 5.2 C 28.5 5.2 28.5 5 28.6 4.8 C 28.64 4.79 27.2 1.7 27.2 1.7 L 27.7 1.7 L 28.9 4.3 Z " stroke="none" fill="#000"/>  </g></svg>