<?xml version="1.0" standalone="no"?><!DOCTYPE svg PUBLIC "-//W3C//DTD SVG 1.1//EN" "http://www.w3.org/Graphics/SVG/1.1/DTD/svg11.dtd"><svg xmlns="http://www.w3.org/2000/svg" version="1.1" width="267.1px" height="33.4px" viewBox="0 -3 267.1 33.4" style="top:-3px">  <desc>Kat Sabunluk – Ume Malzeme: Stoneware / Soft Touch | l ler: D 12 cm, H 3 cm | Tasar m: VE2</desc>  <defs/>  <g id="Polygon54829">    <path d="M 0.7 17.6 L 0.7 12.7 L 1.3 12.7 L 3 15.4 L 4.8 12.7 L 5.4 12.7 L 5.4 17.6 L 4.8 17.6 L 4.8 13.6 L 3 16.3 L 3 16.3 L 1.2 13.6 L 1.2 17.6 L 0.7 17.6 Z M 9.1 17.1 C 8.7 17.5 8.3 17.7 7.8 17.7 C 7.4 17.7 7.1 17.6 6.8 17.4 C 6.5 17.2 6.4 16.9 6.4 16.5 C 6.4 16.5 6.4 16.5 6.4 16.5 C 6.4 16.2 6.5 15.9 6.8 15.7 C 7.1 15.5 7.5 15.4 8 15.4 C 8.3 15.4 8.7 15.4 9.1 15.5 C 9.1 15.5 9.1 15.4 9.1 15.4 C 9.1 15.1 9 14.8 8.8 14.7 C 8.6 14.5 8.3 14.4 8 14.4 C 7.6 14.4 7.3 14.5 6.9 14.7 C 6.9 14.7 6.7 14.2 6.7 14.2 C 7.2 14 7.6 13.9 8 13.9 C 8.6 13.9 8.9 14.1 9.2 14.3 C 9.5 14.6 9.6 14.9 9.6 15.4 C 9.58 15.39 9.6 17.6 9.6 17.6 L 9.1 17.6 L 9.1 17.1 C 9.1 17.1 9.06 17.05 9.1 17.1 Z M 7.9 17.2 C 8.2 17.2 8.5 17.2 8.7 17 C 9 16.8 9.1 16.6 9.1 16.3 C 9.1 16.3 9.1 15.9 9.1 15.9 C 8.7 15.8 8.4 15.8 8 15.8 C 7.7 15.8 7.4 15.8 7.2 16 C 7 16.1 7 16.3 7 16.5 C 7 16.5 7 16.5 7 16.5 C 7 16.7 7 16.9 7.2 17.1 C 7.4 17.2 7.6 17.2 7.9 17.2 Z M 10.8 17.6 L 10.8 12.5 L 11.3 12.5 L 11.3 17.6 L 10.8 17.6 Z M 12.4 17.6 L 12.4 17.3 L 14.8 14.4 L 12.4 14.4 L 12.4 14 L 15.5 14 L 15.5 14.3 L 13.1 17.1 L 15.5 17.1 L 15.5 17.6 L 12.4 17.6 Z M 19.5 17 C 19.1 17.5 18.6 17.7 18 17.7 C 17.5 17.7 17.1 17.5 16.8 17.2 C 16.4 16.8 16.2 16.4 16.2 15.8 C 16.2 15.8 16.2 15.8 16.2 15.8 C 16.2 15.3 16.4 14.8 16.7 14.4 C 17.1 14.1 17.5 13.9 18 13.9 C 18.5 13.9 18.9 14.1 19.2 14.4 C 19.5 14.8 19.7 15.3 19.7 15.8 C 19.7 15.9 19.7 15.9 19.7 16 C 19.7 16 16.8 16 16.8 16 C 16.8 16.4 17 16.7 17.2 16.9 C 17.4 17.1 17.7 17.2 18.1 17.2 C 18.5 17.2 18.9 17 19.2 16.7 C 19.2 16.7 19.5 17 19.5 17 C 19.5 17 19.54 17 19.5 17 Z M 16.8 15.6 C 16.8 15.6 19.1 15.6 19.1 15.6 C 19.1 15.2 19 14.9 18.8 14.7 C 18.6 14.5 18.3 14.4 18 14.4 C 17.6 14.4 17.4 14.5 17.2 14.7 C 17 14.9 16.8 15.2 16.8 15.6 Z M 20.6 17.6 L 20.6 14 L 21.1 14 C 21.1 14 21.15 14.59 21.1 14.6 C 21.3 14.4 21.5 14.2 21.6 14.1 C 21.8 14 22 13.9 22.3 13.9 C 22.9 13.9 23.2 14.1 23.5 14.6 C 23.8 14.1 24.2 13.9 24.8 13.9 C 25.2 13.9 25.5 14 25.7 14.3 C 26 14.6 26.1 14.9 26.1 15.4 C 26.1 15.36 26.1 17.6 26.1 17.6 L 25.6 17.6 C 25.6 17.6 25.56 15.49 25.6 15.5 C 25.6 15.1 25.5 14.9 25.3 14.7 C 25.1 14.5 24.9 14.4 24.6 14.4 C 24.3 14.4 24.1 14.5 23.9 14.7 C 23.7 14.9 23.6 15.2 23.6 15.5 C 23.62 15.51 23.6 17.6 23.6 17.6 L 23.1 17.6 C 23.1 17.6 23.09 15.47 23.1 15.5 C 23.1 15.1 23 14.9 22.8 14.7 C 22.7 14.5 22.4 14.4 22.2 14.4 C 21.9 14.4 21.6 14.5 21.4 14.7 C 21.2 14.9 21.1 15.2 21.1 15.5 C 21.15 15.53 21.1 17.6 21.1 17.6 L 20.6 17.6 Z M 30.3 17 C 29.9 17.5 29.4 17.7 28.8 17.7 C 28.3 17.7 27.9 17.5 27.5 17.2 C 27.2 16.8 27 16.4 27 15.8 C 27 15.8 27 15.8 27 15.8 C 27 15.3 27.2 14.8 27.5 14.4 C 27.8 14.1 28.3 13.9 28.8 13.9 C 29.3 13.9 29.7 14.1 30 14.4 C 30.3 14.8 30.4 15.3 30.4 15.8 C 30.4 15.9 30.4 15.9 30.4 16 C 30.4 16 27.6 16 27.6 16 C 27.6 16.4 27.7 16.7 28 16.9 C 28.2 17.1 28.5 17.2 28.8 17.2 C 29.3 17.2 29.6 17 30 16.7 C 29.98 16.7 30.3 17 30.3 17 C 30.3 17 30.32 17 30.3 17 Z M 27.6 15.6 C 27.6 15.6 29.9 15.6 29.9 15.6 C 29.9 15.2 29.8 14.9 29.6 14.7 C 29.4 14.5 29.1 14.4 28.7 14.4 C 28.4 14.4 28.2 14.5 27.9 14.7 C 27.7 14.9 27.6 15.2 27.6 15.6 Z M 31.4 14.7 L 31.4 14 L 32 14 L 32 14.7 L 31.4 14.7 Z M 31.4 17.6 L 31.4 16.9 L 32 16.9 L 32 17.6 L 31.4 17.6 Z M 37 17.7 C 36.3 17.7 35.6 17.4 35 16.9 C 35 16.9 35.4 16.5 35.4 16.5 C 35.6 16.7 35.9 16.9 36.2 17 C 36.4 17.1 36.7 17.2 37.1 17.2 C 37.4 17.2 37.6 17.1 37.8 16.9 C 38 16.8 38.1 16.6 38.1 16.3 C 38.1 16.3 38.1 16.3 38.1 16.3 C 38.1 16.1 38.1 15.9 37.9 15.8 C 37.7 15.6 37.4 15.5 36.9 15.4 C 36.3 15.3 35.9 15.1 35.6 14.9 C 35.4 14.7 35.2 14.4 35.2 14 C 35.2 14 35.2 14 35.2 14 C 35.2 13.6 35.4 13.3 35.7 13 C 36 12.8 36.4 12.6 36.8 12.6 C 37.2 12.6 37.5 12.7 37.8 12.8 C 38 12.9 38.3 13 38.6 13.2 C 38.6 13.2 38.2 13.7 38.2 13.7 C 37.8 13.3 37.3 13.1 36.8 13.1 C 36.5 13.1 36.3 13.2 36.1 13.4 C 35.9 13.5 35.8 13.7 35.8 13.9 C 35.8 13.9 35.8 13.9 35.8 13.9 C 35.8 14.2 35.9 14.4 36.1 14.5 C 36.2 14.7 36.6 14.8 37.1 14.9 C 37.7 15 38.1 15.2 38.3 15.4 C 38.6 15.6 38.7 15.9 38.7 16.3 C 38.7 16.3 38.7 16.3 38.7 16.3 C 38.7 16.7 38.6 17 38.2 17.3 C 37.9 17.5 37.5 17.7 37 17.7 Z M 41.6 17.5 C 41.4 17.6 41.2 17.7 41 17.7 C 40.6 17.7 40.4 17.6 40.2 17.4 C 40 17.2 39.9 17 39.9 16.6 C 39.93 16.64 39.9 14.5 39.9 14.5 L 39.4 14.5 L 39.4 14 L 39.9 14 L 39.9 12.9 L 40.5 12.9 L 40.5 14 L 41.6 14 L 41.6 14.5 L 40.5 14.5 C 40.5 14.5 40.47 16.57 40.5 16.6 C 40.5 17 40.7 17.2 41.1 17.2 C 41.3 17.2 41.4 17.1 41.6 17 C 41.61 17.05 41.6 17.5 41.6 17.5 C 41.6 17.5 41.61 17.51 41.6 17.5 Z M 44.2 17.7 C 43.7 17.7 43.2 17.5 42.9 17.1 C 42.5 16.8 42.3 16.3 42.3 15.8 C 42.3 15.8 42.3 15.8 42.3 15.8 C 42.3 15.3 42.5 14.8 42.9 14.5 C 43.2 14.1 43.7 13.9 44.2 13.9 C 44.8 13.9 45.2 14.1 45.6 14.5 C 45.9 14.8 46.1 15.3 46.1 15.8 C 46.1 15.8 46.1 15.8 46.1 15.8 C 46.1 16.3 45.9 16.8 45.6 17.1 C 45.2 17.5 44.8 17.7 44.2 17.7 Z M 44.2 17.2 C 44.6 17.2 44.9 17.1 45.2 16.8 C 45.4 16.5 45.6 16.2 45.6 15.8 C 45.6 15.8 45.6 15.8 45.6 15.8 C 45.6 15.4 45.4 15.1 45.2 14.8 C 44.9 14.5 44.6 14.4 44.2 14.4 C 43.8 14.4 43.5 14.5 43.3 14.8 C 43 15.1 42.9 15.4 42.9 15.8 C 42.9 15.8 42.9 15.8 42.9 15.8 C 42.9 16.2 43 16.5 43.3 16.8 C 43.5 17.1 43.9 17.2 44.2 17.2 Z M 47.1 17.6 L 47.1 14 L 47.6 14 C 47.6 14 47.63 14.61 47.6 14.6 C 47.9 14.1 48.3 13.9 48.9 13.9 C 49.3 13.9 49.6 14 49.9 14.3 C 50.1 14.6 50.3 14.9 50.3 15.4 C 50.26 15.35 50.3 17.6 50.3 17.6 L 49.7 17.6 C 49.7 17.6 49.72 15.49 49.7 15.5 C 49.7 15.1 49.6 14.9 49.5 14.7 C 49.3 14.5 49 14.4 48.7 14.4 C 48.4 14.4 48.1 14.5 47.9 14.7 C 47.7 14.9 47.6 15.2 47.6 15.5 C 47.63 15.53 47.6 17.6 47.6 17.6 L 47.1 17.6 Z M 54.5 17 C 54.1 17.5 53.6 17.7 53 17.7 C 52.5 17.7 52.1 17.5 51.7 17.2 C 51.4 16.8 51.2 16.4 51.2 15.8 C 51.2 15.8 51.2 15.8 51.2 15.8 C 51.2 15.3 51.3 14.8 51.7 14.4 C 52 14.1 52.4 13.9 52.9 13.9 C 53.4 13.9 53.8 14.1 54.2 14.4 C 54.5 14.8 54.6 15.3 54.6 15.8 C 54.6 15.9 54.6 15.9 54.6 16 C 54.6 16 51.7 16 51.7 16 C 51.8 16.4 51.9 16.7 52.1 16.9 C 52.4 17.1 52.7 17.2 53 17.2 C 53.4 17.2 53.8 17 54.1 16.7 C 54.14 16.7 54.5 17 54.5 17 C 54.5 17 54.48 17 54.5 17 Z M 51.7 15.6 C 51.7 15.6 54.1 15.6 54.1 15.6 C 54 15.2 53.9 14.9 53.7 14.7 C 53.5 14.5 53.3 14.4 52.9 14.4 C 52.6 14.4 52.3 14.5 52.1 14.7 C 51.9 14.9 51.8 15.2 51.7 15.6 Z M 56.5 17.6 L 55.2 14 L 55.8 14 L 56.8 16.9 L 57.7 14 L 58.2 14 L 59.2 16.9 L 60.1 14 L 60.7 14 L 59.4 17.6 L 58.9 17.6 L 58 14.8 L 57 17.6 L 56.5 17.6 Z M 64 17.1 C 63.6 17.5 63.2 17.7 62.7 17.7 C 62.3 17.7 62 17.6 61.7 17.4 C 61.4 17.2 61.3 16.9 61.3 16.5 C 61.3 16.5 61.3 16.5 61.3 16.5 C 61.3 16.2 61.4 15.9 61.7 15.7 C 62 15.5 62.4 15.4 62.9 15.4 C 63.2 15.4 63.6 15.4 64 15.5 C 64 15.5 64 15.4 64 15.4 C 64 15.1 63.9 14.8 63.7 14.7 C 63.5 14.5 63.2 14.4 62.9 14.4 C 62.5 14.4 62.2 14.5 61.8 14.7 C 61.8 14.7 61.6 14.2 61.6 14.2 C 62.1 14 62.5 13.9 62.9 13.9 C 63.5 13.9 63.8 14.1 64.1 14.3 C 64.4 14.6 64.5 14.9 64.5 15.4 C 64.48 15.39 64.5 17.6 64.5 17.6 L 64 17.6 L 64 17.1 C 64 17.1 63.97 17.05 64 17.1 Z M 62.8 17.2 C 63.1 17.2 63.4 17.2 63.6 17 C 63.9 16.8 64 16.6 64 16.3 C 64 16.3 64 15.9 64 15.9 C 63.6 15.8 63.3 15.8 62.9 15.8 C 62.6 15.8 62.3 15.8 62.1 16 C 61.9 16.1 61.9 16.3 61.9 16.5 C 61.9 16.5 61.9 16.5 61.9 16.5 C 61.9 16.7 61.9 16.9 62.1 17.1 C 62.3 17.2 62.5 17.2 62.8 17.2 Z M 65.6 17.6 L 65.6 14 L 66.2 14 C 66.2 14 66.17 14.93 66.2 14.9 C 66.3 14.6 66.5 14.4 66.8 14.2 C 67 14 67.3 13.9 67.6 13.9 C 67.65 13.92 67.6 14.5 67.6 14.5 C 67.6 14.5 67.61 14.5 67.6 14.5 C 67.2 14.5 66.8 14.6 66.6 14.9 C 66.3 15.2 66.2 15.6 66.2 16.2 C 66.17 16.16 66.2 17.6 66.2 17.6 L 65.6 17.6 Z M 71.5 17 C 71.1 17.5 70.6 17.7 70 17.7 C 69.5 17.7 69.1 17.5 68.8 17.2 C 68.4 16.8 68.2 16.4 68.2 15.8 C 68.2 15.8 68.2 15.8 68.2 15.8 C 68.2 15.3 68.4 14.8 68.7 14.4 C 69.1 14.1 69.5 13.9 70 13.9 C 70.5 13.9 70.9 14.1 71.2 14.4 C 71.5 14.8 71.7 15.3 71.7 15.8 C 71.7 15.9 71.7 15.9 71.7 16 C 71.7 16 68.8 16 68.8 16 C 68.8 16.4 69 16.7 69.2 16.9 C 69.4 17.1 69.7 17.2 70.1 17.2 C 70.5 17.2 70.9 17 71.2 16.7 C 71.2 16.7 71.5 17 71.5 17 C 71.5 17 71.54 17 71.5 17 Z M 68.8 15.6 C 68.8 15.6 71.1 15.6 71.1 15.6 C 71.1 15.2 71 14.9 70.8 14.7 C 70.6 14.5 70.3 14.4 70 14.4 C 69.7 14.4 69.4 14.5 69.2 14.7 C 69 14.9 68.8 15.2 68.8 15.6 Z M 74 18.5 L 77.2 12 L 77.7 12 L 74.5 18.5 L 74 18.5 Z M 82.1 17.7 C 81.4 17.7 80.7 17.4 80.1 16.9 C 80.1 16.9 80.5 16.5 80.5 16.5 C 80.7 16.7 81 16.9 81.3 17 C 81.5 17.1 81.8 17.2 82.2 17.2 C 82.5 17.2 82.7 17.1 82.9 16.9 C 83.1 16.8 83.3 16.6 83.3 16.3 C 83.3 16.3 83.3 16.3 83.3 16.3 C 83.3 16.1 83.2 15.9 83 15.8 C 82.8 15.6 82.5 15.5 82 15.4 C 81.4 15.3 81 15.1 80.7 14.9 C 80.5 14.7 80.3 14.4 80.3 14 C 80.3 14 80.3 14 80.3 14 C 80.3 13.6 80.5 13.3 80.8 13 C 81.1 12.8 81.5 12.6 81.9 12.6 C 82.3 12.6 82.6 12.7 82.9 12.8 C 83.1 12.9 83.4 13 83.7 13.2 C 83.7 13.2 83.3 13.7 83.3 13.7 C 82.9 13.3 82.4 13.1 81.9 13.1 C 81.6 13.1 81.4 13.2 81.2 13.4 C 81 13.5 80.9 13.7 80.9 13.9 C 80.9 13.9 80.9 13.9 80.9 13.9 C 80.9 14.2 81 14.4 81.2 14.5 C 81.3 14.7 81.7 14.8 82.2 14.9 C 82.8 15 83.2 15.2 83.4 15.4 C 83.7 15.6 83.8 15.9 83.8 16.3 C 83.8 16.3 83.8 16.3 83.8 16.3 C 83.8 16.7 83.7 17 83.3 17.3 C 83 17.5 82.6 17.7 82.1 17.7 Z M 86.5 17.7 C 86 17.7 85.5 17.5 85.2 17.1 C 84.8 16.8 84.6 16.3 84.6 15.8 C 84.6 15.8 84.6 15.8 84.6 15.8 C 84.6 15.3 84.8 14.8 85.2 14.5 C 85.5 14.1 86 13.9 86.5 13.9 C 87 13.9 87.5 14.1 87.9 14.5 C 88.2 14.8 88.4 15.3 88.4 15.8 C 88.4 15.8 88.4 15.8 88.4 15.8 C 88.4 16.3 88.2 16.8 87.9 17.1 C 87.5 17.5 87 17.7 86.5 17.7 Z M 86.5 17.2 C 86.9 17.2 87.2 17.1 87.5 16.8 C 87.7 16.5 87.8 16.2 87.8 15.8 C 87.8 15.8 87.8 15.8 87.8 15.8 C 87.8 15.4 87.7 15.1 87.5 14.8 C 87.2 14.5 86.9 14.4 86.5 14.4 C 86.1 14.4 85.8 14.5 85.5 14.8 C 85.3 15.1 85.2 15.4 85.2 15.8 C 85.2 15.8 85.2 15.8 85.2 15.8 C 85.2 16.2 85.3 16.5 85.6 16.8 C 85.8 17.1 86.1 17.2 86.5 17.2 Z M 89.6 17.6 L 89.6 14.5 L 89.1 14.5 L 89.1 14 L 89.6 14 C 89.6 14 89.57 13.67 89.6 13.7 C 89.6 13.3 89.7 13 89.9 12.7 C 90.1 12.6 90.3 12.5 90.7 12.5 C 90.9 12.5 91.1 12.5 91.3 12.6 C 91.3 12.6 91.3 13 91.3 13 C 91 13 90.9 12.9 90.7 12.9 C 90.3 12.9 90.1 13.2 90.1 13.7 C 90.1 13.7 90.1 14 90.1 14 L 91.3 14 L 91.3 14.5 L 90.1 14.5 L 90.1 17.6 L 89.6 17.6 Z M 93.8 17.5 C 93.6 17.6 93.4 17.7 93.1 17.7 C 92.8 17.7 92.6 17.6 92.4 17.4 C 92.2 17.2 92.1 17 92.1 16.6 C 92.13 16.64 92.1 14.5 92.1 14.5 L 91.6 14.5 L 91.6 14 L 92.1 14 L 92.1 12.9 L 92.7 12.9 L 92.7 14 L 93.8 14 L 93.8 14.5 L 92.7 14.5 C 92.7 14.5 92.67 16.57 92.7 16.6 C 92.7 17 92.9 17.2 93.3 17.2 C 93.5 17.2 93.6 17.1 93.8 17 C 93.8 17.05 93.8 17.5 93.8 17.5 C 93.8 17.5 93.8 17.51 93.8 17.5 Z M 98.2 17.6 L 98.2 13.2 L 96.6 13.2 L 96.6 12.7 L 100.4 12.7 L 100.4 13.2 L 98.8 13.2 L 98.8 17.6 L 98.2 17.6 Z M 103 17.7 C 102.5 17.7 102 17.5 101.7 17.1 C 101.3 16.8 101.1 16.3 101.1 15.8 C 101.1 15.8 101.1 15.8 101.1 15.8 C 101.1 15.3 101.3 14.8 101.7 14.5 C 102 14.1 102.5 13.9 103 13.9 C 103.6 13.9 104 14.1 104.4 14.5 C 104.7 14.8 104.9 15.3 104.9 15.8 C 104.9 15.8 104.9 15.8 104.9 15.8 C 104.9 16.3 104.7 16.8 104.4 17.1 C 104 17.5 103.5 17.7 103 17.7 Z M 103 17.2 C 103.4 17.2 103.7 17.1 104 16.8 C 104.2 16.5 104.3 16.2 104.3 15.8 C 104.3 15.8 104.3 15.8 104.3 15.8 C 104.3 15.4 104.2 15.1 104 14.8 C 103.7 14.5 103.4 14.4 103 14.4 C 102.6 14.4 102.3 14.5 102.1 14.8 C 101.8 15.1 101.7 15.4 101.7 15.8 C 101.7 15.8 101.7 15.8 101.7 15.8 C 101.7 16.2 101.8 16.5 102.1 16.8 C 102.3 17.1 102.6 17.2 103 17.2 Z M 108.4 17 C 108.1 17.4 107.7 17.7 107.2 17.7 C 106.8 17.7 106.4 17.5 106.2 17.3 C 105.9 17 105.8 16.7 105.8 16.2 C 105.82 16.23 105.8 14 105.8 14 L 106.4 14 C 106.4 14 106.36 16.09 106.4 16.1 C 106.4 16.4 106.4 16.7 106.6 16.9 C 106.8 17.1 107 17.2 107.4 17.2 C 107.7 17.2 107.9 17.1 108.1 16.9 C 108.3 16.7 108.4 16.4 108.4 16.1 C 108.44 16.05 108.4 14 108.4 14 L 109 14 L 109 17.6 L 108.4 17.6 L 108.4 17 C 108.4 17 108.44 16.97 108.4 17 Z M 113.3 17 C 112.9 17.5 112.4 17.7 111.8 17.7 C 111.3 17.7 110.8 17.5 110.5 17.1 C 110.1 16.8 110 16.3 110 15.8 C 110 15.8 110 15.8 110 15.8 C 110 15.3 110.1 14.8 110.5 14.5 C 110.8 14.1 111.3 13.9 111.8 13.9 C 112.4 13.9 112.9 14.1 113.3 14.5 C 113.3 14.5 112.9 14.9 112.9 14.9 C 112.6 14.6 112.2 14.4 111.8 14.4 C 111.4 14.4 111.1 14.5 110.9 14.8 C 110.6 15.1 110.5 15.4 110.5 15.8 C 110.5 15.8 110.5 15.8 110.5 15.8 C 110.5 16.2 110.6 16.5 110.9 16.8 C 111.2 17.1 111.5 17.2 111.8 17.2 C 112.2 17.2 112.6 17 113 16.7 C 112.95 16.66 113.3 17 113.3 17 C 113.3 17 113.29 16.98 113.3 17 Z M 114.2 17.6 L 114.2 12.5 L 114.7 12.5 C 114.7 12.5 114.72 14.61 114.7 14.6 C 115 14.1 115.4 13.9 116 13.9 C 116.4 13.9 116.7 14 117 14.3 C 117.2 14.6 117.3 14.9 117.3 15.4 C 117.35 15.35 117.3 17.6 117.3 17.6 L 116.8 17.6 C 116.8 17.6 116.81 15.49 116.8 15.5 C 116.8 15.1 116.7 14.9 116.5 14.7 C 116.4 14.5 116.1 14.4 115.8 14.4 C 115.5 14.4 115.2 14.5 115 14.7 C 114.8 14.9 114.7 15.2 114.7 15.5 C 114.72 15.53 114.7 17.6 114.7 17.6 L 114.2 17.6 Z M 120.8 18.5 L 120.8 12 L 121.3 12 L 121.3 18.5 L 120.8 18.5 Z M 127.5 12.2 L 127.5 11.6 L 128.2 11.6 L 128.2 12.2 L 127.5 12.2 Z M 126.2 12.2 L 126.2 11.6 L 126.9 11.6 L 126.9 12.2 L 126.2 12.2 Z M 129.7 15.1 C 129.7 15.8 129.5 16.4 129 16.9 C 128.5 17.4 127.9 17.7 127.2 17.7 C 126.5 17.7 125.9 17.4 125.4 16.9 C 124.9 16.5 124.7 15.9 124.7 15.2 C 124.7 15.2 124.7 15.1 124.7 15.1 C 124.7 14.5 124.9 13.9 125.4 13.4 C 125.9 12.9 126.5 12.6 127.2 12.6 C 127.9 12.6 128.5 12.9 129 13.4 C 129.5 13.8 129.7 14.4 129.7 15.1 C 129.69 15.14 129.7 15.1 129.7 15.1 C 129.7 15.1 129.69 15.15 129.7 15.1 Z M 125.3 15.1 C 125.3 15.7 125.4 16.2 125.8 16.6 C 126.2 17 126.6 17.2 127.2 17.2 C 127.8 17.2 128.2 17 128.6 16.6 C 128.9 16.2 129.1 15.7 129.1 15.2 C 129.1 15.2 129.1 15.1 129.1 15.1 C 129.1 14.6 128.9 14.1 128.6 13.7 C 128.2 13.3 127.7 13.1 127.2 13.1 C 126.6 13.1 126.2 13.3 125.8 13.7 C 125.4 14.1 125.3 14.6 125.3 15.1 C 125.26 15.14 125.3 15.1 125.3 15.1 C 125.3 15.1 125.26 15.15 125.3 15.1 Z M 130.8 17.6 L 130.8 12.5 L 131.4 12.5 L 131.4 17.6 L 130.8 17.6 Z M 133.9 18.7 L 133.4 18.4 C 133.4 18.4 133.9 17.65 133.9 17.6 C 133.5 17.6 133.1 17.4 132.8 17 C 132.5 16.7 132.4 16.3 132.4 15.8 C 132.4 15.8 132.4 15.8 132.4 15.8 C 132.4 15.3 132.6 14.8 132.9 14.5 C 133.3 14.1 133.7 13.9 134.2 13.9 C 134.8 13.9 135.3 14.1 135.7 14.5 C 135.7 14.5 135.3 14.9 135.3 14.9 C 135 14.6 134.6 14.4 134.2 14.4 C 133.9 14.4 133.6 14.5 133.3 14.8 C 133.1 15.1 132.9 15.4 132.9 15.8 C 132.9 15.8 132.9 15.8 132.9 15.8 C 132.9 16.2 133.1 16.5 133.3 16.8 C 133.6 17.1 133.9 17.2 134.3 17.2 C 134.7 17.2 135 17 135.4 16.7 C 135.4 16.7 135.7 17 135.7 17 C 135.3 17.4 134.9 17.7 134.3 17.7 C 134.34 17.68 133.9 18.7 133.9 18.7 Z M 138.4 13.4 L 138.4 12.8 L 139 12.8 L 139 13.4 L 138.4 13.4 Z M 137.2 13.4 L 137.2 12.8 L 137.8 12.8 L 137.8 13.4 L 137.2 13.4 Z M 139.2 17 C 138.9 17.4 138.5 17.7 137.9 17.7 C 137.5 17.7 137.2 17.5 136.9 17.3 C 136.7 17 136.5 16.7 136.5 16.2 C 136.55 16.23 136.5 14 136.5 14 L 137.1 14 C 137.1 14 137.09 16.09 137.1 16.1 C 137.1 16.4 137.2 16.7 137.3 16.9 C 137.5 17.1 137.8 17.2 138.1 17.2 C 138.4 17.2 138.7 17.1 138.9 16.9 C 139.1 16.7 139.2 16.4 139.2 16.1 C 139.17 16.05 139.2 14 139.2 14 L 139.7 14 L 139.7 17.6 L 139.2 17.6 L 139.2 17 C 139.2 17 139.17 16.97 139.2 17 Z M 141 17.6 L 141 12.5 L 141.5 12.5 L 141.5 17.6 L 141 17.6 Z M 145.8 17 C 145.4 17.5 144.9 17.7 144.3 17.7 C 143.8 17.7 143.4 17.5 143.1 17.2 C 142.7 16.8 142.5 16.4 142.5 15.8 C 142.5 15.8 142.5 15.8 142.5 15.8 C 142.5 15.3 142.7 14.8 143 14.4 C 143.4 14.1 143.8 13.9 144.3 13.9 C 144.8 13.9 145.2 14.1 145.5 14.4 C 145.8 14.8 146 15.3 146 15.8 C 146 15.9 146 15.9 145.9 16 C 145.9 16 143.1 16 143.1 16 C 143.1 16.4 143.3 16.7 143.5 16.9 C 143.7 17.1 144 17.2 144.4 17.2 C 144.8 17.2 145.2 17 145.5 16.7 C 145.49 16.7 145.8 17 145.8 17 C 145.8 17 145.83 17 145.8 17 Z M 143.1 15.6 C 143.1 15.6 145.4 15.6 145.4 15.6 C 145.4 15.2 145.3 14.9 145.1 14.7 C 144.9 14.5 144.6 14.4 144.3 14.4 C 143.9 14.4 143.7 14.5 143.5 14.7 C 143.2 14.9 143.1 15.2 143.1 15.6 Z M 146.9 17.6 L 146.9 14 L 147.4 14 C 147.4 14 147.44 14.93 147.4 14.9 C 147.6 14.6 147.8 14.4 148 14.2 C 148.3 14 148.6 13.9 148.9 13.9 C 148.92 13.92 148.9 14.5 148.9 14.5 C 148.9 14.5 148.87 14.5 148.9 14.5 C 148.5 14.5 148.1 14.6 147.8 14.9 C 147.6 15.2 147.4 15.6 147.4 16.2 C 147.44 16.16 147.4 17.6 147.4 17.6 L 146.9 17.6 Z M 149.7 14.7 L 149.7 14 L 150.3 14 L 150.3 14.7 L 149.7 14.7 Z M 149.7 17.6 L 149.7 16.9 L 150.3 16.9 L 150.3 17.6 L 149.7 17.6 Z M 153.7 17.6 L 153.7 12.7 C 153.7 12.7 155.41 12.7 155.4 12.7 C 156.2 12.7 156.8 12.9 157.3 13.4 C 157.8 13.9 158 14.4 158 15.1 C 158 15.1 158 15.1 158 15.1 C 158 15.8 157.8 16.4 157.3 16.9 C 156.8 17.4 156.2 17.6 155.4 17.6 C 155.41 17.6 153.7 17.6 153.7 17.6 Z M 155.4 13.2 C 155.41 13.21 154.3 13.2 154.3 13.2 L 154.3 17.1 C 154.3 17.1 155.41 17.09 155.4 17.1 C 156 17.1 156.5 16.9 156.9 16.5 C 157.2 16.2 157.4 15.7 157.4 15.2 C 157.4 15.2 157.4 15.1 157.4 15.1 C 157.4 14.6 157.2 14.1 156.9 13.8 C 156.5 13.4 156 13.2 155.4 13.2 Z M 161.8 17.6 L 161.8 13.2 L 160.9 13.5 L 160.8 13.1 L 162 12.7 L 162.4 12.7 L 162.4 17.6 L 161.8 17.6 Z M 163.4 17.6 L 163.4 17.2 C 163.4 17.2 165.2 15.6 165.2 15.6 C 165.6 15.3 165.9 15 166 14.8 C 166.2 14.5 166.2 14.3 166.2 14.1 C 166.2 13.8 166.1 13.6 165.9 13.4 C 165.7 13.2 165.5 13.1 165.2 13.1 C 165 13.1 164.7 13.2 164.5 13.3 C 164.3 13.5 164.1 13.7 163.9 14 C 163.9 14 163.5 13.7 163.5 13.7 C 163.8 13.3 164 13 164.3 12.9 C 164.5 12.7 164.9 12.6 165.3 12.6 C 165.7 12.6 166.1 12.8 166.4 13 C 166.7 13.3 166.8 13.6 166.8 14 C 166.8 14 166.8 14 166.8 14 C 166.8 14.4 166.7 14.7 166.5 14.9 C 166.3 15.2 166 15.5 165.6 15.9 C 165.56 15.93 164.3 17.1 164.3 17.1 L 166.8 17.1 L 166.8 17.6 L 163.4 17.6 Z M 173.1 17 C 172.7 17.5 172.2 17.7 171.6 17.7 C 171.1 17.7 170.6 17.5 170.3 17.1 C 169.9 16.8 169.8 16.3 169.8 15.8 C 169.8 15.8 169.8 15.8 169.8 15.8 C 169.8 15.3 169.9 14.8 170.3 14.5 C 170.6 14.1 171.1 13.9 171.6 13.9 C 172.2 13.9 172.7 14.1 173.1 14.5 C 173.1 14.5 172.7 14.9 172.7 14.9 C 172.4 14.6 172 14.4 171.6 14.4 C 171.2 14.4 170.9 14.5 170.7 14.8 C 170.4 15.1 170.3 15.4 170.3 15.8 C 170.3 15.8 170.3 15.8 170.3 15.8 C 170.3 16.2 170.4 16.5 170.7 16.8 C 171 17.1 171.3 17.2 171.6 17.2 C 172 17.2 172.4 17 172.8 16.7 C 172.75 16.66 173.1 17 173.1 17 C 173.1 17 173.09 16.98 173.1 17 Z M 174 17.6 L 174 14 L 174.5 14 C 174.5 14 174.52 14.59 174.5 14.6 C 174.7 14.4 174.8 14.2 175 14.1 C 175.2 14 175.4 13.9 175.7 13.9 C 176.2 13.9 176.6 14.1 176.9 14.6 C 177.2 14.1 177.6 13.9 178.1 13.9 C 178.5 13.9 178.9 14 179.1 14.3 C 179.4 14.6 179.5 14.9 179.5 15.4 C 179.47 15.36 179.5 17.6 179.5 17.6 L 178.9 17.6 C 178.9 17.6 178.93 15.49 178.9 15.5 C 178.9 15.1 178.8 14.9 178.7 14.7 C 178.5 14.5 178.3 14.4 178 14.4 C 177.7 14.4 177.5 14.5 177.3 14.7 C 177.1 14.9 177 15.2 177 15.5 C 176.99 15.51 177 17.6 177 17.6 L 176.5 17.6 C 176.5 17.6 176.46 15.47 176.5 15.5 C 176.5 15.1 176.4 14.9 176.2 14.7 C 176 14.5 175.8 14.4 175.5 14.4 C 175.2 14.4 175 14.5 174.8 14.7 C 174.6 14.9 174.5 15.2 174.5 15.5 C 174.52 15.53 174.5 17.6 174.5 17.6 L 174 17.6 Z M 180.4 18.5 C 180.4 18.5 180.3 18.2 180.3 18.2 C 180.7 18.1 180.8 17.9 180.8 17.6 C 180.81 17.6 180.6 17.6 180.6 17.6 L 180.6 16.9 L 181.2 16.9 C 181.2 16.9 181.2 17.49 181.2 17.5 C 181.2 17.8 181.1 18 181 18.1 C 180.9 18.3 180.7 18.4 180.4 18.5 Z M 184.5 17.6 L 184.5 12.7 L 185.1 12.7 L 185.1 14.9 L 187.9 14.9 L 187.9 12.7 L 188.5 12.7 L 188.5 17.6 L 187.9 17.6 L 187.9 15.4 L 185.1 15.4 L 185.1 17.6 L 184.5 17.6 Z M 193.4 17.7 C 192.7 17.7 192 17.4 191.6 16.8 C 191.6 16.8 192 16.5 192 16.5 C 192.4 16.9 192.9 17.2 193.4 17.2 C 193.7 17.2 194 17.1 194.2 16.9 C 194.4 16.7 194.5 16.5 194.5 16.2 C 194.5 16.2 194.5 16.2 194.5 16.2 C 194.5 15.9 194.4 15.7 194.1 15.5 C 193.9 15.4 193.5 15.3 193.1 15.3 C 193.13 15.27 192.8 15.3 192.8 15.3 L 192.7 14.9 L 194.3 13.2 L 191.9 13.2 L 191.9 12.7 L 195 12.7 L 195 13.1 C 195 13.1 193.45 14.81 193.4 14.8 C 193.9 14.9 194.3 15 194.6 15.2 C 194.9 15.4 195.1 15.8 195.1 16.2 C 195.1 16.2 195.1 16.2 195.1 16.2 C 195.1 16.6 194.9 17 194.6 17.3 C 194.3 17.5 193.9 17.7 193.4 17.7 Z M 201.4 17 C 200.9 17.5 200.4 17.7 199.9 17.7 C 199.3 17.7 198.9 17.5 198.6 17.1 C 198.2 16.8 198 16.3 198 15.8 C 198 15.8 198 15.8 198 15.8 C 198 15.3 198.2 14.8 198.6 14.5 C 198.9 14.1 199.3 13.9 199.9 13.9 C 200.4 13.9 200.9 14.1 201.3 14.5 C 201.3 14.5 201 14.9 201 14.9 C 200.6 14.6 200.3 14.4 199.9 14.4 C 199.5 14.4 199.2 14.5 198.9 14.8 C 198.7 15.1 198.6 15.4 198.6 15.8 C 198.6 15.8 198.6 15.8 198.6 15.8 C 198.6 16.2 198.7 16.5 199 16.8 C 199.2 17.1 199.5 17.2 199.9 17.2 C 200.3 17.2 200.7 17 201 16.7 C 201.01 16.66 201.4 17 201.4 17 C 201.4 17 201.35 16.98 201.4 17 Z M 202.2 17.6 L 202.2 14 L 202.8 14 C 202.8 14 202.78 14.59 202.8 14.6 C 202.9 14.4 203.1 14.2 203.3 14.1 C 203.4 14 203.7 13.9 203.9 13.9 C 204.5 13.9 204.9 14.1 205.1 14.6 C 205.4 14.1 205.9 13.9 206.4 13.9 C 206.8 13.9 207.1 14 207.4 14.3 C 207.6 14.6 207.7 14.9 207.7 15.4 C 207.73 15.36 207.7 17.6 207.7 17.6 L 207.2 17.6 C 207.2 17.6 207.19 15.49 207.2 15.5 C 207.2 15.1 207.1 14.9 206.9 14.7 C 206.8 14.5 206.5 14.4 206.3 14.4 C 206 14.4 205.7 14.5 205.5 14.7 C 205.3 14.9 205.3 15.2 205.3 15.5 C 205.25 15.51 205.3 17.6 205.3 17.6 L 204.7 17.6 C 204.7 17.6 204.72 15.47 204.7 15.5 C 204.7 15.1 204.6 14.9 204.5 14.7 C 204.3 14.5 204.1 14.4 203.8 14.4 C 203.5 14.4 203.3 14.5 203.1 14.7 C 202.9 14.9 202.8 15.2 202.8 15.5 C 202.78 15.53 202.8 17.6 202.8 17.6 L 202.2 17.6 Z M 211.2 18.5 L 211.2 12 L 211.7 12 L 211.7 18.5 L 211.2 18.5 Z M 216.6 17.6 L 216.6 13.2 L 214.9 13.2 L 214.9 12.7 L 218.8 12.7 L 218.8 13.2 L 217.1 13.2 L 217.1 17.6 L 216.6 17.6 Z M 222.1 17.1 C 221.8 17.5 221.3 17.7 220.8 17.7 C 220.4 17.7 220.1 17.6 219.8 17.4 C 219.5 17.2 219.4 16.9 219.4 16.5 C 219.4 16.5 219.4 16.5 219.4 16.5 C 219.4 16.2 219.6 15.9 219.8 15.7 C 220.1 15.5 220.5 15.4 221 15.4 C 221.3 15.4 221.7 15.4 222.1 15.5 C 222.1 15.5 222.1 15.4 222.1 15.4 C 222.1 15.1 222 14.8 221.8 14.7 C 221.6 14.5 221.3 14.4 221 14.4 C 220.6 14.4 220.3 14.5 219.9 14.7 C 219.9 14.7 219.7 14.2 219.7 14.2 C 220.2 14 220.6 13.9 221.1 13.9 C 221.6 13.9 222 14.1 222.2 14.3 C 222.5 14.6 222.6 14.9 222.6 15.4 C 222.59 15.39 222.6 17.6 222.6 17.6 L 222.1 17.6 L 222.1 17.1 C 222.1 17.1 222.07 17.05 222.1 17.1 Z M 220.9 17.2 C 221.2 17.2 221.5 17.2 221.7 17 C 222 16.8 222.1 16.6 222.1 16.3 C 222.1 16.3 222.1 15.9 222.1 15.9 C 221.7 15.8 221.4 15.8 221 15.8 C 220.7 15.8 220.4 15.8 220.2 16 C 220.1 16.1 220 16.3 220 16.5 C 220 16.5 220 16.5 220 16.5 C 220 16.7 220 16.9 220.2 17.1 C 220.4 17.2 220.6 17.2 220.9 17.2 Z M 224.9 17.7 C 224.4 17.7 223.9 17.5 223.4 17.1 C 223.4 17.1 223.7 16.8 223.7 16.8 C 224.1 17.1 224.5 17.2 225 17.2 C 225.2 17.2 225.4 17.2 225.5 17.1 C 225.6 17 225.7 16.8 225.7 16.6 C 225.7 16.6 225.7 16.6 225.7 16.6 C 225.7 16.5 225.6 16.3 225.5 16.2 C 225.3 16.2 225.1 16.1 224.8 16 C 224.7 16 224.6 15.9 224.5 15.9 C 224.5 15.9 224.4 15.8 224.3 15.8 C 224.1 15.8 224.1 15.7 224 15.7 C 223.9 15.6 223.9 15.6 223.8 15.5 C 223.7 15.4 223.7 15.4 223.7 15.3 C 223.6 15.2 223.6 15.1 223.6 15 C 223.6 15 223.6 15 223.6 15 C 223.6 14.6 223.7 14.4 224 14.2 C 224.2 14 224.5 13.9 224.8 13.9 C 225.3 13.9 225.7 14.1 226.1 14.3 C 226.1 14.3 225.9 14.7 225.9 14.7 C 225.5 14.5 225.2 14.4 224.8 14.4 C 224.6 14.4 224.5 14.4 224.3 14.5 C 224.2 14.6 224.1 14.7 224.1 14.9 C 224.1 14.9 224.1 14.9 224.1 14.9 C 224.1 15 224.1 15 224.2 15.1 C 224.2 15.1 224.3 15.2 224.3 15.2 C 224.4 15.3 224.4 15.3 224.5 15.4 C 224.6 15.4 224.7 15.4 224.8 15.4 C 224.8 15.5 224.9 15.5 225.1 15.5 C 225.2 15.6 225.3 15.6 225.4 15.6 C 225.5 15.7 225.6 15.7 225.7 15.8 C 225.8 15.8 225.9 15.9 226 16 C 226 16 226.1 16.1 226.2 16.2 C 226.2 16.3 226.2 16.4 226.2 16.6 C 226.2 16.6 226.2 16.6 226.2 16.6 C 226.2 16.9 226.1 17.2 225.9 17.4 C 225.6 17.6 225.3 17.7 224.9 17.7 Z M 229.6 17.1 C 229.3 17.5 228.9 17.7 228.3 17.7 C 227.9 17.7 227.6 17.6 227.4 17.4 C 227.1 17.2 227 16.9 227 16.5 C 227 16.5 227 16.5 227 16.5 C 227 16.2 227.1 15.9 227.4 15.7 C 227.7 15.5 228 15.4 228.5 15.4 C 228.9 15.4 229.2 15.4 229.6 15.5 C 229.6 15.5 229.6 15.4 229.6 15.4 C 229.6 15.1 229.5 14.8 229.3 14.7 C 229.1 14.5 228.9 14.4 228.5 14.4 C 228.2 14.4 227.8 14.5 227.4 14.7 C 227.4 14.7 227.3 14.2 227.3 14.2 C 227.7 14 228.1 13.9 228.6 13.9 C 229.1 13.9 229.5 14.1 229.8 14.3 C 230 14.6 230.1 14.9 230.1 15.4 C 230.13 15.39 230.1 17.6 230.1 17.6 L 229.6 17.6 L 229.6 17.1 C 229.6 17.1 229.61 17.05 229.6 17.1 Z M 228.4 17.2 C 228.7 17.2 229 17.2 229.3 17 C 229.5 16.8 229.6 16.6 229.6 16.3 C 229.6 16.3 229.6 15.9 229.6 15.9 C 229.3 15.8 228.9 15.8 228.6 15.8 C 228.2 15.8 228 15.8 227.8 16 C 227.6 16.1 227.5 16.3 227.5 16.5 C 227.5 16.5 227.5 16.5 227.5 16.5 C 227.5 16.7 227.6 16.9 227.8 17.1 C 227.9 17.2 228.2 17.2 228.4 17.2 Z M 231.3 17.6 L 231.3 14 L 231.8 14 C 231.8 14 231.82 14.93 231.8 14.9 C 232 14.6 232.2 14.4 232.4 14.2 C 232.7 14 233 13.9 233.3 13.9 C 233.29 13.92 233.3 14.5 233.3 14.5 C 233.3 14.5 233.25 14.5 233.3 14.5 C 232.8 14.5 232.5 14.6 232.2 14.9 C 232 15.2 231.8 15.6 231.8 16.2 C 231.82 16.16 231.8 17.6 231.8 17.6 L 231.3 17.6 Z M 234.2 17.6 L 234.2 14 L 234.7 14 L 234.7 17.6 L 234.2 17.6 Z M 236 17.6 L 236 14 L 236.5 14 C 236.5 14 236.49 14.59 236.5 14.6 C 236.6 14.4 236.8 14.2 237 14.1 C 237.2 14 237.4 13.9 237.7 13.9 C 238.2 13.9 238.6 14.1 238.8 14.6 C 239.1 14.1 239.6 13.9 240.1 13.9 C 240.5 13.9 240.8 14 241.1 14.3 C 241.3 14.6 241.4 14.9 241.4 15.4 C 241.44 15.36 241.4 17.6 241.4 17.6 L 240.9 17.6 C 240.9 17.6 240.9 15.49 240.9 15.5 C 240.9 15.1 240.8 14.9 240.7 14.7 C 240.5 14.5 240.3 14.4 240 14.4 C 239.7 14.4 239.4 14.5 239.3 14.7 C 239.1 14.9 239 15.2 239 15.5 C 238.96 15.51 239 17.6 239 17.6 L 238.4 17.6 C 238.4 17.6 238.43 15.47 238.4 15.5 C 238.4 15.1 238.3 14.9 238.2 14.7 C 238 14.5 237.8 14.4 237.5 14.4 C 237.2 14.4 237 14.5 236.8 14.7 C 236.6 14.9 236.5 15.2 236.5 15.5 C 236.49 15.53 236.5 17.6 236.5 17.6 L 236 17.6 Z M 242.6 14.7 L 242.6 14 L 243.2 14 L 243.2 14.7 L 242.6 14.7 Z M 242.6 17.6 L 242.6 16.9 L 243.2 16.9 L 243.2 17.6 L 242.6 17.6 Z M 248.2 17.6 L 246.1 12.7 L 246.8 12.7 L 248.5 16.9 L 250.2 12.7 L 250.8 12.7 L 248.7 17.6 L 248.2 17.6 Z M 251.8 17.6 L 251.8 12.7 L 255.3 12.7 L 255.3 13.2 L 252.4 13.2 L 252.4 14.9 L 255 14.9 L 255 15.4 L 252.4 15.4 L 252.4 17.1 L 255.4 17.1 L 255.4 17.6 L 251.8 17.6 Z M 256.1 17.6 L 256.1 17.2 C 256.1 17.2 257.92 15.6 257.9 15.6 C 258.3 15.3 258.6 15 258.7 14.8 C 258.9 14.5 258.9 14.3 258.9 14.1 C 258.9 13.8 258.8 13.6 258.7 13.4 C 258.5 13.2 258.2 13.1 258 13.1 C 257.7 13.1 257.4 13.2 257.2 13.3 C 257 13.5 256.8 13.7 256.6 14 C 256.6 14 256.2 13.7 256.2 13.7 C 256.5 13.3 256.7 13 257 12.9 C 257.3 12.7 257.6 12.6 258 12.6 C 258.4 12.6 258.8 12.8 259.1 13 C 259.4 13.3 259.5 13.6 259.5 14 C 259.5 14 259.5 14 259.5 14 C 259.5 14.4 259.4 14.7 259.2 14.9 C 259.1 15.2 258.7 15.5 258.3 15.9 C 258.28 15.93 257 17.1 257 17.1 L 259.6 17.1 L 259.6 17.6 L 256.1 17.6 Z " stroke="none" fill="#000"/>  </g>  <g id="Polygon54828">    <path d="M 0.6 5.6 L 0.6 0.7 L 1.7 0.7 L 1.7 2.8 L 3.6 0.7 L 5 0.7 L 3 2.8 L 5 5.6 L 3.8 5.6 L 2.2 3.5 L 1.7 4.1 L 1.7 5.6 L 0.6 5.6 Z M 7.8 5.2 C 7.5 5.5 7.1 5.7 6.6 5.7 C 6.3 5.7 6 5.6 5.7 5.4 C 5.5 5.2 5.4 4.9 5.4 4.5 C 5.4 4.5 5.4 4.5 5.4 4.5 C 5.4 4.1 5.5 3.8 5.8 3.6 C 6 3.4 6.4 3.3 6.9 3.3 C 7.2 3.3 7.5 3.4 7.8 3.5 C 7.8 3.5 7.8 3.4 7.8 3.4 C 7.8 2.9 7.5 2.7 7 2.7 C 6.6 2.7 6.3 2.8 5.9 2.9 C 5.9 2.9 5.7 2.1 5.7 2.1 C 6.2 1.9 6.6 1.8 7.1 1.8 C 7.7 1.8 8.1 1.9 8.4 2.2 C 8.7 2.5 8.8 2.9 8.8 3.4 C 8.81 3.42 8.8 5.6 8.8 5.6 L 7.8 5.6 L 7.8 5.2 C 7.8 5.2 7.78 5.19 7.8 5.2 Z M 7 4.9 C 7.2 4.9 7.4 4.9 7.6 4.8 C 7.7 4.6 7.8 4.5 7.8 4.3 C 7.8 4.3 7.8 4.1 7.8 4.1 C 7.6 4 7.4 3.9 7.1 3.9 C 6.9 3.9 6.7 4 6.6 4.1 C 6.5 4.2 6.4 4.3 6.4 4.5 C 6.4 4.5 6.4 4.5 6.4 4.5 C 6.4 4.6 6.4 4.7 6.6 4.8 C 6.7 4.9 6.8 4.9 7 4.9 Z M 11.8 5.4 C 11.6 5.6 11.3 5.7 11 5.7 C 10.6 5.7 10.4 5.6 10.2 5.4 C 10 5.2 9.9 4.9 9.9 4.5 C 9.9 4.54 9.9 2.8 9.9 2.8 L 9.5 2.8 L 9.5 1.8 L 9.9 1.8 L 9.9 0.9 L 11 0.9 L 11 1.8 L 11.9 1.8 L 11.9 2.8 L 11 2.8 C 11 2.8 10.97 4.36 11 4.4 C 11 4.6 11.1 4.7 11.3 4.7 C 11.5 4.7 11.7 4.7 11.8 4.6 C 11.84 4.59 11.8 5.4 11.8 5.4 C 11.8 5.4 11.84 5.45 11.8 5.4 Z M 12.7 5.6 L 12.7 1.8 L 13.7 1.8 L 13.7 5.6 L 12.7 5.6 Z M 18.7 5.7 C 17.9 5.7 17.2 5.4 16.6 4.9 C 16.6 4.9 17.3 4.1 17.3 4.1 C 17.8 4.5 18.2 4.7 18.7 4.7 C 18.9 4.7 19.1 4.7 19.2 4.6 C 19.4 4.5 19.4 4.4 19.4 4.3 C 19.4 4.3 19.4 4.2 19.4 4.2 C 19.4 4.1 19.4 4 19.2 3.9 C 19.1 3.8 18.8 3.7 18.4 3.6 C 18.2 3.5 17.9 3.5 17.8 3.4 C 17.6 3.3 17.4 3.3 17.3 3.1 C 17.1 3 17 2.9 16.9 2.7 C 16.9 2.6 16.8 2.4 16.8 2.1 C 16.8 2.1 16.8 2.1 16.8 2.1 C 16.8 1.7 17 1.3 17.3 1 C 17.6 0.8 18 0.6 18.5 0.6 C 19.2 0.6 19.8 0.8 20.4 1.3 C 20.4 1.3 19.8 2.1 19.8 2.1 C 19.3 1.7 18.9 1.6 18.5 1.6 C 18.3 1.6 18.2 1.6 18.1 1.7 C 17.9 1.8 17.9 1.9 17.9 2 C 17.9 2 17.9 2 17.9 2 C 17.9 2.2 18 2.3 18.1 2.4 C 18.2 2.5 18.5 2.6 18.9 2.7 C 19.5 2.8 19.9 3 20.1 3.2 C 20.4 3.4 20.5 3.7 20.5 4.1 C 20.5 4.1 20.5 4.2 20.5 4.2 C 20.5 4.6 20.3 5 20 5.3 C 19.7 5.5 19.2 5.7 18.7 5.7 Z M 23.5 5.2 C 23.2 5.5 22.9 5.7 22.4 5.7 C 22 5.7 21.7 5.6 21.5 5.4 C 21.2 5.2 21.1 4.9 21.1 4.5 C 21.1 4.5 21.1 4.5 21.1 4.5 C 21.1 4.1 21.2 3.8 21.5 3.6 C 21.8 3.4 22.2 3.3 22.6 3.3 C 22.9 3.3 23.2 3.4 23.5 3.5 C 23.5 3.5 23.5 3.4 23.5 3.4 C 23.5 2.9 23.3 2.7 22.7 2.7 C 22.4 2.7 22 2.8 21.7 2.9 C 21.7 2.9 21.4 2.1 21.4 2.1 C 21.9 1.9 22.4 1.8 22.9 1.8 C 23.4 1.8 23.9 1.9 24.1 2.2 C 24.4 2.5 24.6 2.9 24.6 3.4 C 24.56 3.42 24.6 5.6 24.6 5.6 L 23.5 5.6 L 23.5 5.2 C 23.5 5.2 23.53 5.19 23.5 5.2 Z M 22.7 4.9 C 23 4.9 23.2 4.9 23.3 4.8 C 23.5 4.6 23.5 4.5 23.5 4.3 C 23.5 4.3 23.5 4.1 23.5 4.1 C 23.3 4 23.1 3.9 22.9 3.9 C 22.6 3.9 22.5 4 22.3 4.1 C 22.2 4.2 22.1 4.3 22.1 4.5 C 22.1 4.5 22.1 4.5 22.1 4.5 C 22.1 4.6 22.2 4.7 22.3 4.8 C 22.4 4.9 22.5 4.9 22.7 4.9 Z M 27.7 5.7 C 27.2 5.7 26.8 5.5 26.5 5.1 C 26.54 5.11 26.5 5.6 26.5 5.6 L 25.5 5.6 L 25.5 0.5 L 26.5 0.5 C 26.5 0.5 26.54 2.39 26.5 2.4 C 26.8 2 27.2 1.8 27.7 1.8 C 28.2 1.8 28.6 2 28.9 2.3 C 29.2 2.6 29.4 3.1 29.4 3.7 C 29.4 3.7 29.4 3.7 29.4 3.7 C 29.4 4.3 29.2 4.8 28.9 5.1 C 28.6 5.5 28.2 5.7 27.7 5.7 Z M 26.5 3.7 C 26.5 4 26.6 4.3 26.8 4.5 C 27 4.7 27.2 4.8 27.4 4.8 C 27.7 4.8 27.9 4.7 28.1 4.5 C 28.3 4.3 28.3 4 28.3 3.7 C 28.3 3.7 28.3 3.7 28.3 3.7 C 28.3 3.4 28.3 3.2 28.1 3 C 27.9 2.8 27.7 2.7 27.4 2.7 C 27.2 2.7 27 2.8 26.8 3 C 26.6 3.2 26.5 3.4 26.5 3.7 C 26.52 3.72 26.5 3.7 26.5 3.7 C 26.5 3.7 26.52 3.73 26.5 3.7 Z M 32.5 5.1 C 32.2 5.5 31.9 5.7 31.4 5.7 C 31 5.7 30.7 5.5 30.5 5.3 C 30.3 5.1 30.2 4.7 30.2 4.3 C 30.17 4.28 30.2 1.8 30.2 1.8 L 31.2 1.8 C 31.2 1.8 31.23 3.94 31.2 3.9 C 31.2 4.4 31.4 4.7 31.9 4.7 C 32.1 4.7 32.3 4.6 32.4 4.5 C 32.5 4.4 32.5 4.2 32.5 3.9 C 32.54 3.94 32.5 1.8 32.5 1.8 L 33.6 1.8 L 33.6 5.6 L 32.5 5.6 L 32.5 5.1 C 32.5 5.1 32.54 5.07 32.5 5.1 Z M 34.6 5.6 L 34.6 1.8 L 35.6 1.8 C 35.6 1.8 35.62 2.38 35.6 2.4 C 35.9 2 36.3 1.8 36.7 1.8 C 37.1 1.8 37.4 1.9 37.7 2.1 C 37.9 2.4 38 2.7 38 3.2 C 38 3.17 38 5.6 38 5.6 L 36.9 5.6 C 36.9 5.6 36.93 3.51 36.9 3.5 C 36.9 3 36.7 2.7 36.3 2.7 C 36.1 2.7 35.9 2.8 35.8 2.9 C 35.7 3.1 35.6 3.3 35.6 3.5 C 35.62 3.51 35.6 5.6 35.6 5.6 L 34.6 5.6 Z M 39 5.6 L 39 0.5 L 40 0.5 L 40 5.6 L 39 5.6 Z M 43.4 5.1 C 43.1 5.5 42.7 5.7 42.3 5.7 C 41.9 5.7 41.6 5.5 41.3 5.3 C 41.1 5.1 41 4.7 41 4.3 C 41.01 4.28 41 1.8 41 1.8 L 42.1 1.8 C 42.1 1.8 42.07 3.94 42.1 3.9 C 42.1 4.4 42.3 4.7 42.7 4.7 C 42.9 4.7 43.1 4.6 43.2 4.5 C 43.3 4.4 43.4 4.2 43.4 3.9 C 43.38 3.94 43.4 1.8 43.4 1.8 L 44.4 1.8 L 44.4 5.6 L 43.4 5.6 L 43.4 5.1 C 43.4 5.1 43.38 5.07 43.4 5.1 Z M 45.4 5.6 L 45.4 0.5 L 46.5 0.5 L 46.5 3.2 L 47.7 1.8 L 49 1.8 L 47.6 3.3 L 49 5.6 L 47.8 5.6 L 46.8 4.1 L 46.5 4.5 L 46.5 5.6 L 45.4 5.6 Z M 51.5 3.9 L 51.5 2.9 L 54.5 2.9 L 54.5 3.9 L 51.5 3.9 Z M 61.7 3.5 C 61.7 4.2 61.5 4.7 61.2 5.1 C 60.8 5.5 60.3 5.7 59.6 5.7 C 58.9 5.7 58.4 5.5 58 5.1 C 57.7 4.8 57.5 4.2 57.5 3.5 C 57.47 3.5 57.5 0.7 57.5 0.7 L 58.5 0.7 C 58.5 0.7 58.55 3.47 58.5 3.5 C 58.5 3.9 58.6 4.2 58.8 4.4 C 59 4.6 59.3 4.7 59.6 4.7 C 59.9 4.7 60.2 4.6 60.4 4.4 C 60.6 4.2 60.7 3.9 60.7 3.5 C 60.66 3.51 60.7 0.7 60.7 0.7 L 61.7 0.7 L 61.7 3.5 C 61.7 3.5 61.74 3.46 61.7 3.5 Z M 62.7 5.6 L 62.7 1.8 L 63.8 1.8 C 63.8 1.8 63.79 2.38 63.8 2.4 C 64.1 2 64.5 1.8 64.9 1.8 C 65.4 1.8 65.8 2 66 2.4 C 66.3 2 66.7 1.8 67.2 1.8 C 67.6 1.8 67.9 1.9 68.1 2.1 C 68.3 2.4 68.5 2.7 68.5 3.2 C 68.45 3.16 68.5 5.6 68.5 5.6 L 67.4 5.6 C 67.4 5.6 67.39 3.51 67.4 3.5 C 67.4 3 67.2 2.7 66.8 2.7 C 66.6 2.7 66.4 2.8 66.3 2.9 C 66.2 3.1 66.1 3.3 66.1 3.5 C 66.12 3.51 66.1 5.6 66.1 5.6 L 65.1 5.6 C 65.1 5.6 65.06 3.51 65.1 3.5 C 65.1 3 64.8 2.7 64.4 2.7 C 64.2 2.7 64.1 2.8 64 2.9 C 63.8 3.1 63.8 3.3 63.8 3.5 C 63.79 3.51 63.8 5.6 63.8 5.6 L 62.7 5.6 Z M 72.7 5 C 72.3 5.5 71.8 5.7 71.2 5.7 C 70.6 5.7 70.1 5.5 69.7 5.1 C 69.4 4.8 69.2 4.3 69.2 3.7 C 69.2 3.7 69.2 3.7 69.2 3.7 C 69.2 3.2 69.4 2.7 69.7 2.3 C 70.1 2 70.5 1.8 71 1.8 C 71.6 1.8 72.1 2 72.4 2.4 C 72.7 2.8 72.9 3.2 72.9 3.8 C 72.9 3.9 72.9 4 72.9 4.1 C 72.9 4.1 70.3 4.1 70.3 4.1 C 70.3 4.3 70.4 4.5 70.6 4.6 C 70.7 4.8 70.9 4.8 71.2 4.8 C 71.5 4.8 71.8 4.7 72.1 4.4 C 72.08 4.44 72.7 5 72.7 5 C 72.7 5 72.69 4.98 72.7 5 Z M 70.2 3.4 C 70.2 3.4 71.8 3.4 71.8 3.4 C 71.8 3.2 71.7 3 71.6 2.8 C 71.4 2.7 71.3 2.6 71 2.6 C 70.8 2.6 70.6 2.7 70.5 2.8 C 70.4 3 70.3 3.2 70.2 3.4 Z " stroke="none" fill="#000"/>  </g></svg>