<?xml version="1.0" standalone="no"?><!DOCTYPE svg PUBLIC "-//W3C//DTD SVG 1.1//EN" "http://www.w3.org/Graphics/SVG/1.1/DTD/svg11.dtd"><svg xmlns="http://www.w3.org/2000/svg" version="1.1" width="134px" height="80.4px" viewBox="0 -3 134 80.4" style="top:-3px">  <desc>Banyo Silece i – Wiper r n Kodu: ZD 331861 Renk: Soft Grey Malzeme: Silikon / ABS l ler: 21 × 17 × 3,5 cm Adet: 6’...</desc>  <defs/>  <g id="Polygon80011">    <path d="M 0.3 50.6 L 2.5 45.7 L 3 45.7 L 5.3 50.6 L 4.7 50.6 L 4.1 49.3 L 1.4 49.3 L 0.8 50.6 L 0.3 50.6 Z M 1.6 48.8 L 3.9 48.8 L 2.8 46.3 L 1.6 48.8 Z M 9 49.9 C 8.7 50.4 8.2 50.7 7.7 50.7 C 7.2 50.7 6.8 50.5 6.4 50.2 C 6.1 49.8 5.9 49.4 5.9 48.8 C 5.9 48.8 5.9 48.8 5.9 48.8 C 5.9 48.2 6.1 47.8 6.4 47.4 C 6.8 47.1 7.2 46.9 7.7 46.9 C 8.2 46.9 8.7 47.2 9 47.7 C 9.04 47.67 9 45.5 9 45.5 L 9.6 45.5 L 9.6 50.6 L 9 50.6 L 9 49.9 C 9 49.9 9.04 49.87 9 49.9 Z M 7.7 50.2 C 8.1 50.2 8.4 50.1 8.7 49.8 C 8.9 49.5 9.1 49.2 9.1 48.8 C 9.1 48.8 9.1 48.8 9.1 48.8 C 9.1 48.4 8.9 48 8.7 47.8 C 8.4 47.5 8.1 47.4 7.7 47.4 C 7.4 47.4 7.1 47.5 6.8 47.8 C 6.6 48 6.5 48.4 6.5 48.8 C 6.5 48.8 6.5 48.8 6.5 48.8 C 6.5 49.2 6.6 49.6 6.8 49.8 C 7.1 50.1 7.4 50.2 7.7 50.2 Z M 13.9 50 C 13.5 50.5 13 50.7 12.4 50.7 C 11.9 50.7 11.4 50.5 11.1 50.2 C 10.7 49.8 10.6 49.4 10.6 48.8 C 10.6 48.8 10.6 48.8 10.6 48.8 C 10.6 48.3 10.7 47.8 11 47.4 C 11.4 47.1 11.8 46.9 12.3 46.9 C 12.8 46.9 13.2 47.1 13.5 47.4 C 13.8 47.8 14 48.3 14 48.8 C 14 48.9 14 48.9 14 49 C 14 49 11.1 49 11.1 49 C 11.1 49.4 11.3 49.7 11.5 49.9 C 11.8 50.1 12 50.2 12.4 50.2 C 12.8 50.2 13.2 50 13.5 49.7 C 13.52 49.7 13.9 50 13.9 50 C 13.9 50 13.85 50 13.9 50 Z M 11.1 48.6 C 11.1 48.6 13.4 48.6 13.4 48.6 C 13.4 48.2 13.3 47.9 13.1 47.7 C 12.9 47.5 12.6 47.4 12.3 47.4 C 12 47.4 11.7 47.5 11.5 47.7 C 11.3 47.9 11.1 48.2 11.1 48.6 Z M 16.8 50.5 C 16.6 50.6 16.4 50.7 16.1 50.7 C 15.8 50.7 15.6 50.6 15.4 50.4 C 15.2 50.2 15.1 50 15.1 49.6 C 15.11 49.64 15.1 47.5 15.1 47.5 L 14.6 47.5 L 14.6 47 L 15.1 47 L 15.1 45.9 L 15.7 45.9 L 15.7 47 L 16.8 47 L 16.8 47.5 L 15.7 47.5 C 15.7 47.5 15.65 49.57 15.7 49.6 C 15.7 50 15.9 50.2 16.3 50.2 C 16.4 50.2 16.6 50.1 16.8 50 C 16.79 50.05 16.8 50.5 16.8 50.5 C 16.8 50.5 16.79 50.51 16.8 50.5 Z M 17.7 47.7 L 17.7 47 L 18.4 47 L 18.4 47.7 L 17.7 47.7 Z M 17.7 50.6 L 17.7 49.9 L 18.4 49.9 L 18.4 50.6 L 17.7 50.6 Z M 23.4 50.7 C 22.8 50.7 22.4 50.5 22.1 50.2 C 21.9 50 21.7 49.7 21.6 49.4 C 21.5 49.1 21.5 48.8 21.5 48.3 C 21.5 48.3 21.5 48.3 21.5 48.3 C 21.5 47.5 21.6 46.9 22 46.4 C 22.4 45.9 22.9 45.6 23.5 45.6 C 24 45.6 24.5 45.8 24.9 46.2 C 24.9 46.2 24.6 46.6 24.6 46.6 C 24.2 46.3 23.9 46.1 23.5 46.1 C 23 46.1 22.7 46.3 22.4 46.7 C 22.1 47.1 22 47.6 22 48.2 C 22 48.2 22 48.3 22 48.3 C 22.4 47.8 22.8 47.5 23.4 47.5 C 23.9 47.5 24.3 47.7 24.6 48 C 25 48.2 25.1 48.6 25.1 49 C 25.1 49 25.1 49.1 25.1 49.1 C 25.1 49.5 24.9 49.9 24.6 50.2 C 24.3 50.5 23.9 50.7 23.4 50.7 Z M 23.4 50.2 C 23.7 50.2 24 50.1 24.2 49.9 C 24.4 49.7 24.5 49.4 24.5 49.1 C 24.5 49.1 24.5 49.1 24.5 49.1 C 24.5 48.8 24.4 48.5 24.2 48.3 C 24 48.1 23.7 48 23.4 48 C 23 48 22.7 48.1 22.5 48.3 C 22.2 48.6 22.1 48.8 22.1 49.1 C 22.1 49.1 22.1 49.1 22.1 49.1 C 22.1 49.4 22.2 49.7 22.5 49.9 C 22.7 50.1 23 50.2 23.4 50.2 Z M 26 47.3 C 26 47.3 25.9 47 25.9 47 C 26.3 46.9 26.4 46.7 26.4 46.4 C 26.38 46.43 26.1 46.4 26.1 46.4 L 26.1 45.7 L 26.8 45.7 C 26.8 45.7 26.77 46.33 26.8 46.3 C 26.8 46.6 26.7 46.8 26.6 47 C 26.5 47.1 26.3 47.2 26 47.3 Z M 27.9 50.6 L 27.9 45.5 L 28.5 45.5 L 28.5 50.6 L 27.9 50.6 Z M 29.8 50.6 L 29.8 47 L 30.3 47 L 30.3 50.6 L 29.8 50.6 Z M 35.4 50.7 C 34.7 50.7 34 50.4 33.4 49.9 C 33.4 49.9 33.8 49.5 33.8 49.5 C 34 49.7 34.3 49.9 34.6 50 C 34.8 50.1 35.1 50.2 35.4 50.2 C 35.8 50.2 36 50.1 36.2 49.9 C 36.4 49.8 36.5 49.6 36.5 49.3 C 36.5 49.3 36.5 49.3 36.5 49.3 C 36.5 49.1 36.5 48.9 36.3 48.8 C 36.1 48.6 35.8 48.5 35.3 48.4 C 34.7 48.3 34.3 48.1 34 47.9 C 33.7 47.7 33.6 47.4 33.6 47 C 33.6 47 33.6 47 33.6 47 C 33.6 46.6 33.8 46.3 34.1 46 C 34.4 45.8 34.8 45.6 35.2 45.6 C 35.6 45.6 35.9 45.7 36.2 45.8 C 36.4 45.9 36.7 46 37 46.2 C 37 46.2 36.6 46.7 36.6 46.7 C 36.2 46.3 35.7 46.1 35.2 46.1 C 34.9 46.1 34.6 46.2 34.5 46.4 C 34.3 46.5 34.2 46.7 34.2 46.9 C 34.2 46.9 34.2 46.9 34.2 46.9 C 34.2 47.2 34.3 47.4 34.4 47.5 C 34.6 47.7 35 47.8 35.5 47.9 C 36.1 48 36.5 48.2 36.7 48.4 C 37 48.6 37.1 48.9 37.1 49.3 C 37.1 49.3 37.1 49.3 37.1 49.3 C 37.1 49.7 36.9 50 36.6 50.3 C 36.3 50.5 35.9 50.7 35.4 50.7 Z M 41.2 50 C 40.8 50.5 40.3 50.7 39.7 50.7 C 39.2 50.7 38.8 50.5 38.4 50.2 C 38.1 49.8 37.9 49.4 37.9 48.8 C 37.9 48.8 37.9 48.8 37.9 48.8 C 37.9 48.3 38.1 47.8 38.4 47.4 C 38.7 47.1 39.1 46.9 39.6 46.9 C 40.2 46.9 40.6 47.1 40.9 47.4 C 41.2 47.8 41.3 48.3 41.3 48.8 C 41.3 48.9 41.3 48.9 41.3 49 C 41.3 49 38.5 49 38.5 49 C 38.5 49.4 38.6 49.7 38.9 49.9 C 39.1 50.1 39.4 50.2 39.7 50.2 C 40.2 50.2 40.5 50 40.9 49.7 C 40.87 49.7 41.2 50 41.2 50 C 41.2 50 41.21 50 41.2 50 Z M 38.5 48.6 C 38.5 48.6 40.8 48.6 40.8 48.6 C 40.8 48.2 40.6 47.9 40.4 47.7 C 40.3 47.5 40 47.4 39.6 47.4 C 39.3 47.4 39.1 47.5 38.8 47.7 C 38.6 47.9 38.5 48.2 38.5 48.6 Z M 44.1 50.5 C 44 50.6 43.7 50.7 43.5 50.7 C 43.2 50.7 42.9 50.6 42.7 50.4 C 42.6 50.2 42.5 50 42.5 49.6 C 42.47 49.64 42.5 47.5 42.5 47.5 L 42 47.5 L 42 47 L 42.5 47 L 42.5 45.9 L 43 45.9 L 43 47 L 44.2 47 L 44.2 47.5 L 43 47.5 C 43 47.5 43.01 49.57 43 49.6 C 43 50 43.2 50.2 43.6 50.2 C 43.8 50.2 44 50.1 44.1 50 C 44.14 50.05 44.1 50.5 44.1 50.5 C 44.1 50.5 44.14 50.51 44.1 50.5 Z " stroke="none" fill="#000"/>  </g>  <g id="Polygon80010">    <path d="M 3.3 36.2 L 3.3 35.6 L 4 35.6 L 4 36.2 L 3.3 36.2 Z M 2 36.2 L 2 35.6 L 2.6 35.6 L 2.6 36.2 L 2 36.2 Z M 5.5 39.1 C 5.5 39.8 5.2 40.4 4.8 40.9 C 4.3 41.4 3.7 41.7 3 41.7 C 2.2 41.7 1.6 41.4 1.2 40.9 C 0.7 40.5 0.5 39.9 0.5 39.2 C 0.5 39.2 0.5 39.1 0.5 39.1 C 0.5 38.5 0.7 37.9 1.2 37.4 C 1.7 36.9 2.3 36.6 3 36.6 C 3.7 36.6 4.3 36.9 4.8 37.4 C 5.2 37.8 5.5 38.4 5.5 39.1 C 5.47 39.14 5.5 39.1 5.5 39.1 C 5.5 39.1 5.47 39.15 5.5 39.1 Z M 1.1 39.1 C 1.1 39.7 1.2 40.2 1.6 40.6 C 2 41 2.4 41.2 3 41.2 C 3.5 41.2 4 41 4.4 40.6 C 4.7 40.2 4.9 39.7 4.9 39.2 C 4.9 39.2 4.9 39.1 4.9 39.1 C 4.9 38.6 4.7 38.1 4.4 37.7 C 4 37.3 3.5 37.1 3 37.1 C 2.4 37.1 2 37.3 1.6 37.7 C 1.2 38.1 1.1 38.6 1.1 39.1 C 1.05 39.14 1.1 39.1 1.1 39.1 C 1.1 39.1 1.05 39.15 1.1 39.1 Z M 6.6 41.6 L 6.6 36.5 L 7.1 36.5 L 7.1 41.6 L 6.6 41.6 Z M 9.7 42.7 L 9.1 42.4 C 9.1 42.4 9.69 41.65 9.7 41.6 C 9.2 41.6 8.9 41.4 8.6 41 C 8.3 40.7 8.2 40.3 8.2 39.8 C 8.2 39.8 8.2 39.8 8.2 39.8 C 8.2 39.3 8.3 38.8 8.7 38.5 C 9.1 38.1 9.5 37.9 10 37.9 C 10.6 37.9 11.1 38.1 11.5 38.5 C 11.5 38.5 11.1 38.9 11.1 38.9 C 10.8 38.6 10.4 38.4 10 38.4 C 9.6 38.4 9.3 38.5 9.1 38.8 C 8.8 39.1 8.7 39.4 8.7 39.8 C 8.7 39.8 8.7 39.8 8.7 39.8 C 8.7 40.2 8.8 40.5 9.1 40.8 C 9.4 41.1 9.7 41.2 10.1 41.2 C 10.5 41.2 10.8 41 11.2 40.7 C 11.2 40.7 11.5 41 11.5 41 C 11.1 41.4 10.7 41.7 10.1 41.7 C 10.13 41.68 9.7 42.7 9.7 42.7 Z M 14.2 37.4 L 14.2 36.8 L 14.8 36.8 L 14.8 37.4 L 14.2 37.4 Z M 13 37.4 L 13 36.8 L 13.6 36.8 L 13.6 37.4 L 13 37.4 Z M 15 41 C 14.7 41.4 14.3 41.7 13.7 41.7 C 13.3 41.7 13 41.5 12.7 41.3 C 12.5 41 12.3 40.7 12.3 40.2 C 12.33 40.23 12.3 38 12.3 38 L 12.9 38 C 12.9 38 12.87 40.09 12.9 40.1 C 12.9 40.4 13 40.7 13.1 40.9 C 13.3 41.1 13.6 41.2 13.9 41.2 C 14.2 41.2 14.4 41.1 14.7 40.9 C 14.9 40.7 15 40.4 15 40.1 C 14.96 40.05 15 38 15 38 L 15.5 38 L 15.5 41.6 L 15 41.6 L 15 41 C 15 41 14.96 40.97 15 41 Z M 16.8 41.6 L 16.8 36.5 L 17.3 36.5 L 17.3 41.6 L 16.8 41.6 Z M 21.6 41 C 21.2 41.5 20.7 41.7 20.1 41.7 C 19.6 41.7 19.2 41.5 18.8 41.2 C 18.5 40.8 18.3 40.4 18.3 39.8 C 18.3 39.8 18.3 39.8 18.3 39.8 C 18.3 39.3 18.5 38.8 18.8 38.4 C 19.1 38.1 19.6 37.9 20.1 37.9 C 20.6 37.9 21 38.1 21.3 38.4 C 21.6 38.8 21.7 39.3 21.7 39.8 C 21.7 39.9 21.7 39.9 21.7 40 C 21.7 40 18.9 40 18.9 40 C 18.9 40.4 19 40.7 19.3 40.9 C 19.5 41.1 19.8 41.2 20.1 41.2 C 20.6 41.2 20.9 41 21.3 40.7 C 21.28 40.7 21.6 41 21.6 41 C 21.6 41 21.62 41 21.6 41 Z M 18.9 39.6 C 18.9 39.6 21.2 39.6 21.2 39.6 C 21.2 39.2 21.1 38.9 20.9 38.7 C 20.7 38.5 20.4 38.4 20 38.4 C 19.7 38.4 19.5 38.5 19.2 38.7 C 19 38.9 18.9 39.2 18.9 39.6 Z M 22.7 41.6 L 22.7 38 L 23.2 38 C 23.2 38 23.23 38.93 23.2 38.9 C 23.4 38.6 23.6 38.4 23.8 38.2 C 24.1 38 24.4 37.9 24.7 37.9 C 24.7 37.92 24.7 38.5 24.7 38.5 C 24.7 38.5 24.66 38.5 24.7 38.5 C 24.2 38.5 23.9 38.6 23.6 38.9 C 23.4 39.2 23.2 39.6 23.2 40.2 C 23.23 40.16 23.2 41.6 23.2 41.6 L 22.7 41.6 Z M 25.5 38.7 L 25.5 38 L 26.1 38 L 26.1 38.7 L 25.5 38.7 Z M 25.5 41.6 L 25.5 40.9 L 26.1 40.9 L 26.1 41.6 L 25.5 41.6 Z M 29.1 41.6 L 29.1 41.2 C 29.1 41.2 30.91 39.6 30.9 39.6 C 31.3 39.3 31.6 39 31.7 38.8 C 31.9 38.5 31.9 38.3 31.9 38.1 C 31.9 37.8 31.8 37.6 31.6 37.4 C 31.5 37.2 31.2 37.1 30.9 37.1 C 30.7 37.1 30.4 37.2 30.2 37.3 C 30 37.5 29.8 37.7 29.6 38 C 29.6 38 29.2 37.7 29.2 37.7 C 29.5 37.3 29.7 37 30 36.9 C 30.2 36.7 30.6 36.6 31 36.6 C 31.4 36.6 31.8 36.8 32.1 37 C 32.4 37.3 32.5 37.6 32.5 38 C 32.5 38 32.5 38 32.5 38 C 32.5 38.4 32.4 38.7 32.2 38.9 C 32.1 39.2 31.7 39.5 31.3 39.9 C 31.27 39.93 30 41.1 30 41.1 L 32.6 41.1 L 32.6 41.6 L 29.1 41.6 Z M 34.2 41.6 L 34.2 37.2 L 33.3 37.5 L 33.2 37.1 L 34.4 36.7 L 34.8 36.7 L 34.8 41.6 L 34.2 41.6 Z M 41 40.7 L 39.8 39.5 L 38.6 40.7 L 38.2 40.4 L 39.4 39.1 L 38.2 37.9 L 38.6 37.6 L 39.8 38.8 L 41 37.6 L 41.4 37.9 L 40.1 39.1 L 41.4 40.3 L 41 40.7 Z M 45.3 41.6 L 45.3 37.2 L 44.4 37.5 L 44.3 37.1 L 45.5 36.7 L 45.9 36.7 L 45.9 41.6 L 45.3 41.6 Z M 47.5 41.6 L 49.7 37.2 L 47.1 37.2 L 47.1 36.7 L 50.4 36.7 L 50.4 37.1 L 48.2 41.6 L 47.5 41.6 Z M 56.3 40.7 L 55 39.5 L 53.8 40.7 L 53.5 40.4 L 54.7 39.1 L 53.5 37.9 L 53.8 37.6 L 55 38.8 L 56.3 37.6 L 56.6 37.9 L 55.4 39.1 L 56.6 40.3 L 56.3 40.7 Z M 61.5 41.7 C 60.7 41.7 60.1 41.4 59.7 40.8 C 59.7 40.8 60.1 40.5 60.1 40.5 C 60.5 40.9 60.9 41.2 61.5 41.2 C 61.8 41.2 62.1 41.1 62.3 40.9 C 62.5 40.7 62.6 40.5 62.6 40.2 C 62.6 40.2 62.6 40.2 62.6 40.2 C 62.6 39.9 62.5 39.7 62.2 39.5 C 61.9 39.4 61.6 39.3 61.2 39.3 C 61.21 39.27 60.9 39.3 60.9 39.3 L 60.8 38.9 L 62.3 37.2 L 59.9 37.2 L 59.9 36.7 L 63.1 36.7 L 63.1 37.1 C 63.1 37.1 61.52 38.81 61.5 38.8 C 62 38.9 62.4 39 62.7 39.2 C 63 39.4 63.1 39.8 63.1 40.2 C 63.1 40.2 63.1 40.2 63.1 40.2 C 63.1 40.6 63 41 62.7 41.3 C 62.4 41.5 62 41.7 61.5 41.7 Z M 64 42.5 C 64 42.5 63.9 42.2 63.9 42.2 C 64.3 42.1 64.4 41.9 64.4 41.6 C 64.41 41.6 64.2 41.6 64.2 41.6 L 64.2 40.9 L 64.8 40.9 C 64.8 40.9 64.8 41.49 64.8 41.5 C 64.8 41.8 64.7 42 64.6 42.1 C 64.5 42.3 64.3 42.4 64 42.5 Z M 67.5 41.7 C 66.8 41.7 66.2 41.4 65.7 40.9 C 65.7 40.9 66.1 40.5 66.1 40.5 C 66.5 41 67 41.2 67.5 41.2 C 67.8 41.2 68.1 41.1 68.3 40.9 C 68.5 40.7 68.6 40.4 68.6 40.1 C 68.6 40.1 68.6 40.1 68.6 40.1 C 68.6 39.8 68.5 39.5 68.3 39.3 C 68.1 39.1 67.8 39.1 67.4 39.1 C 67.1 39.1 66.7 39.1 66.4 39.3 C 66.39 39.33 66 39.1 66 39.1 L 66.2 36.7 L 69 36.7 L 69 37.2 L 66.6 37.2 C 66.6 37.2 66.54 38.78 66.5 38.8 C 66.9 38.6 67.2 38.6 67.5 38.6 C 68 38.6 68.4 38.7 68.7 39 C 69 39.2 69.2 39.6 69.2 40.1 C 69.2 40.1 69.2 40.1 69.2 40.1 C 69.2 40.5 69 40.9 68.7 41.2 C 68.4 41.5 68 41.7 67.5 41.7 Z M 75.4 41 C 75 41.5 74.5 41.7 73.9 41.7 C 73.4 41.7 73 41.5 72.6 41.1 C 72.3 40.8 72.1 40.3 72.1 39.8 C 72.1 39.8 72.1 39.8 72.1 39.8 C 72.1 39.3 72.3 38.8 72.6 38.5 C 73 38.1 73.4 37.9 73.9 37.9 C 74.5 37.9 75 38.1 75.4 38.5 C 75.4 38.5 75 38.9 75 38.9 C 74.7 38.6 74.3 38.4 73.9 38.4 C 73.6 38.4 73.3 38.5 73 38.8 C 72.8 39.1 72.6 39.4 72.6 39.8 C 72.6 39.8 72.6 39.8 72.6 39.8 C 72.6 40.2 72.8 40.5 73 40.8 C 73.3 41.1 73.6 41.2 74 41.2 C 74.4 41.2 74.7 41 75.1 40.7 C 75.08 40.66 75.4 41 75.4 41 C 75.4 41 75.42 40.98 75.4 41 Z M 76.3 41.6 L 76.3 38 L 76.9 38 C 76.9 38 76.85 38.59 76.9 38.6 C 77 38.4 77.2 38.2 77.3 38.1 C 77.5 38 77.7 37.9 78 37.9 C 78.6 37.9 79 38.1 79.2 38.6 C 79.5 38.1 79.9 37.9 80.5 37.9 C 80.9 37.9 81.2 38 81.4 38.3 C 81.7 38.6 81.8 38.9 81.8 39.4 C 81.8 39.36 81.8 41.6 81.8 41.6 L 81.3 41.6 C 81.3 41.6 81.26 39.49 81.3 39.5 C 81.3 39.1 81.2 38.9 81 38.7 C 80.8 38.5 80.6 38.4 80.3 38.4 C 80 38.4 79.8 38.5 79.6 38.7 C 79.4 38.9 79.3 39.2 79.3 39.5 C 79.32 39.51 79.3 41.6 79.3 41.6 L 78.8 41.6 C 78.8 41.6 78.79 39.47 78.8 39.5 C 78.8 39.1 78.7 38.9 78.5 38.7 C 78.4 38.5 78.1 38.4 77.9 38.4 C 77.6 38.4 77.3 38.5 77.1 38.7 C 76.9 38.9 76.9 39.2 76.9 39.5 C 76.85 39.53 76.9 41.6 76.9 41.6 L 76.3 41.6 Z " stroke="none" fill="#000"/>  </g>  <g id="Polygon80009">    <path d="M 0.7 32.6 L 0.7 27.7 L 1.3 27.7 L 3 30.4 L 4.8 27.7 L 5.4 27.7 L 5.4 32.6 L 4.8 32.6 L 4.8 28.6 L 3 31.3 L 3 31.3 L 1.2 28.6 L 1.2 32.6 L 0.7 32.6 Z M 9.1 32.1 C 8.7 32.5 8.3 32.7 7.8 32.7 C 7.4 32.7 7.1 32.6 6.8 32.4 C 6.5 32.2 6.4 31.9 6.4 31.5 C 6.4 31.5 6.4 31.5 6.4 31.5 C 6.4 31.2 6.5 30.9 6.8 30.7 C 7.1 30.5 7.5 30.4 8 30.4 C 8.3 30.4 8.7 30.4 9.1 30.5 C 9.1 30.5 9.1 30.4 9.1 30.4 C 9.1 30.1 9 29.8 8.8 29.7 C 8.6 29.5 8.3 29.4 8 29.4 C 7.6 29.4 7.3 29.5 6.9 29.7 C 6.9 29.7 6.7 29.2 6.7 29.2 C 7.2 29 7.6 28.9 8 28.9 C 8.6 28.9 8.9 29.1 9.2 29.3 C 9.5 29.6 9.6 29.9 9.6 30.4 C 9.58 30.39 9.6 32.6 9.6 32.6 L 9.1 32.6 L 9.1 32.1 C 9.1 32.1 9.06 32.05 9.1 32.1 Z M 7.9 32.2 C 8.2 32.2 8.5 32.2 8.7 32 C 9 31.8 9.1 31.6 9.1 31.3 C 9.1 31.3 9.1 30.9 9.1 30.9 C 8.7 30.8 8.4 30.8 8 30.8 C 7.7 30.8 7.4 30.8 7.2 31 C 7 31.1 7 31.3 7 31.5 C 7 31.5 7 31.5 7 31.5 C 7 31.7 7 31.9 7.2 32.1 C 7.4 32.2 7.6 32.2 7.9 32.2 Z M 10.8 32.6 L 10.8 27.5 L 11.3 27.5 L 11.3 32.6 L 10.8 32.6 Z M 12.4 32.6 L 12.4 32.3 L 14.8 29.4 L 12.4 29.4 L 12.4 29 L 15.5 29 L 15.5 29.3 L 13.1 32.1 L 15.5 32.1 L 15.5 32.6 L 12.4 32.6 Z M 19.5 32 C 19.1 32.5 18.6 32.7 18 32.7 C 17.5 32.7 17.1 32.5 16.8 32.2 C 16.4 31.8 16.2 31.4 16.2 30.8 C 16.2 30.8 16.2 30.8 16.2 30.8 C 16.2 30.3 16.4 29.8 16.7 29.4 C 17.1 29.1 17.5 28.9 18 28.9 C 18.5 28.9 18.9 29.1 19.2 29.4 C 19.5 29.8 19.7 30.3 19.7 30.8 C 19.7 30.9 19.7 30.9 19.7 31 C 19.7 31 16.8 31 16.8 31 C 16.8 31.4 17 31.7 17.2 31.9 C 17.4 32.1 17.7 32.2 18.1 32.2 C 18.5 32.2 18.9 32 19.2 31.7 C 19.2 31.7 19.5 32 19.5 32 C 19.5 32 19.54 32 19.5 32 Z M 16.8 30.6 C 16.8 30.6 19.1 30.6 19.1 30.6 C 19.1 30.2 19 29.9 18.8 29.7 C 18.6 29.5 18.3 29.4 18 29.4 C 17.6 29.4 17.4 29.5 17.2 29.7 C 17 29.9 16.8 30.2 16.8 30.6 Z M 20.6 32.6 L 20.6 29 L 21.1 29 C 21.1 29 21.15 29.59 21.1 29.6 C 21.3 29.4 21.5 29.2 21.6 29.1 C 21.8 29 22 28.9 22.3 28.9 C 22.9 28.9 23.2 29.1 23.5 29.6 C 23.8 29.1 24.2 28.9 24.8 28.9 C 25.2 28.9 25.5 29 25.7 29.3 C 26 29.6 26.1 29.9 26.1 30.4 C 26.1 30.36 26.1 32.6 26.1 32.6 L 25.6 32.6 C 25.6 32.6 25.56 30.49 25.6 30.5 C 25.6 30.1 25.5 29.9 25.3 29.7 C 25.1 29.5 24.9 29.4 24.6 29.4 C 24.3 29.4 24.1 29.5 23.9 29.7 C 23.7 29.9 23.6 30.2 23.6 30.5 C 23.62 30.51 23.6 32.6 23.6 32.6 L 23.1 32.6 C 23.1 32.6 23.09 30.47 23.1 30.5 C 23.1 30.1 23 29.9 22.8 29.7 C 22.7 29.5 22.4 29.4 22.2 29.4 C 21.9 29.4 21.6 29.5 21.4 29.7 C 21.2 29.9 21.1 30.2 21.1 30.5 C 21.15 30.53 21.1 32.6 21.1 32.6 L 20.6 32.6 Z M 30.3 32 C 29.9 32.5 29.4 32.7 28.8 32.7 C 28.3 32.7 27.9 32.5 27.5 32.2 C 27.2 31.8 27 31.4 27 30.8 C 27 30.8 27 30.8 27 30.8 C 27 30.3 27.2 29.8 27.5 29.4 C 27.8 29.1 28.3 28.9 28.8 28.9 C 29.3 28.9 29.7 29.1 30 29.4 C 30.3 29.8 30.4 30.3 30.4 30.8 C 30.4 30.9 30.4 30.9 30.4 31 C 30.4 31 27.6 31 27.6 31 C 27.6 31.4 27.7 31.7 28 31.9 C 28.2 32.1 28.5 32.2 28.8 32.2 C 29.3 32.2 29.6 32 30 31.7 C 29.98 31.7 30.3 32 30.3 32 C 30.3 32 30.32 32 30.3 32 Z M 27.6 30.6 C 27.6 30.6 29.9 30.6 29.9 30.6 C 29.9 30.2 29.8 29.9 29.6 29.7 C 29.4 29.5 29.1 29.4 28.7 29.4 C 28.4 29.4 28.2 29.5 27.9 29.7 C 27.7 29.9 27.6 30.2 27.6 30.6 Z M 31.4 29.7 L 31.4 29 L 32 29 L 32 29.7 L 31.4 29.7 Z M 31.4 32.6 L 31.4 31.9 L 32 31.9 L 32 32.6 L 31.4 32.6 Z M 37 32.7 C 36.3 32.7 35.6 32.4 35 31.9 C 35 31.9 35.4 31.5 35.4 31.5 C 35.6 31.7 35.9 31.9 36.2 32 C 36.4 32.1 36.7 32.2 37.1 32.2 C 37.4 32.2 37.6 32.1 37.8 31.9 C 38 31.8 38.1 31.6 38.1 31.3 C 38.1 31.3 38.1 31.3 38.1 31.3 C 38.1 31.1 38.1 30.9 37.9 30.8 C 37.7 30.6 37.4 30.5 36.9 30.4 C 36.3 30.3 35.9 30.1 35.6 29.9 C 35.4 29.7 35.2 29.4 35.2 29 C 35.2 29 35.2 29 35.2 29 C 35.2 28.6 35.4 28.3 35.7 28 C 36 27.8 36.4 27.6 36.8 27.6 C 37.2 27.6 37.5 27.7 37.8 27.8 C 38 27.9 38.3 28 38.6 28.2 C 38.6 28.2 38.2 28.7 38.2 28.7 C 37.8 28.3 37.3 28.1 36.8 28.1 C 36.5 28.1 36.3 28.2 36.1 28.4 C 35.9 28.5 35.8 28.7 35.8 28.9 C 35.8 28.9 35.8 28.9 35.8 28.9 C 35.8 29.2 35.9 29.4 36.1 29.5 C 36.2 29.7 36.6 29.8 37.1 29.9 C 37.7 30 38.1 30.2 38.3 30.4 C 38.6 30.6 38.7 30.9 38.7 31.3 C 38.7 31.3 38.7 31.3 38.7 31.3 C 38.7 31.7 38.6 32 38.2 32.3 C 37.9 32.5 37.5 32.7 37 32.7 Z M 39.8 28.2 L 39.8 27.6 L 40.4 27.6 L 40.4 28.2 L 39.8 28.2 Z M 39.8 32.6 L 39.8 29 L 40.3 29 L 40.3 32.6 L 39.8 32.6 Z M 41.6 32.6 L 41.6 27.5 L 42.2 27.5 L 42.2 32.6 L 41.6 32.6 Z M 43.4 28.2 L 43.4 27.6 L 44.1 27.6 L 44.1 28.2 L 43.4 28.2 Z M 43.5 32.6 L 43.5 29 L 44 29 L 44 32.6 L 43.5 32.6 Z M 45.3 32.6 L 45.3 27.5 L 45.8 27.5 L 45.8 31 L 47.8 29 L 48.4 29 L 46.9 30.5 L 48.5 32.6 L 47.8 32.6 L 46.5 30.9 L 45.8 31.7 L 45.8 32.6 L 45.3 32.6 Z M 50.9 32.7 C 50.4 32.7 49.9 32.5 49.6 32.1 C 49.2 31.8 49 31.3 49 30.8 C 49 30.8 49 30.8 49 30.8 C 49 30.3 49.2 29.8 49.6 29.5 C 49.9 29.1 50.4 28.9 50.9 28.9 C 51.5 28.9 51.9 29.1 52.3 29.5 C 52.6 29.8 52.8 30.3 52.8 30.8 C 52.8 30.8 52.8 30.8 52.8 30.8 C 52.8 31.3 52.6 31.8 52.3 32.1 C 51.9 32.5 51.4 32.7 50.9 32.7 Z M 50.9 32.2 C 51.3 32.2 51.6 32.1 51.9 31.8 C 52.1 31.5 52.2 31.2 52.2 30.8 C 52.2 30.8 52.2 30.8 52.2 30.8 C 52.2 30.4 52.1 30.1 51.9 29.8 C 51.6 29.5 51.3 29.4 50.9 29.4 C 50.5 29.4 50.2 29.5 50 29.8 C 49.7 30.1 49.6 30.4 49.6 30.8 C 49.6 30.8 49.6 30.8 49.6 30.8 C 49.6 31.2 49.7 31.5 50 31.8 C 50.2 32.1 50.5 32.2 50.9 32.2 Z M 53.8 32.6 L 53.8 29 L 54.3 29 C 54.3 29 54.31 29.61 54.3 29.6 C 54.6 29.1 55 28.9 55.6 28.9 C 56 28.9 56.3 29 56.6 29.3 C 56.8 29.6 56.9 29.9 56.9 30.4 C 56.94 30.35 56.9 32.6 56.9 32.6 L 56.4 32.6 C 56.4 32.6 56.4 30.49 56.4 30.5 C 56.4 30.1 56.3 29.9 56.1 29.7 C 56 29.5 55.7 29.4 55.4 29.4 C 55.1 29.4 54.8 29.5 54.6 29.7 C 54.4 29.9 54.3 30.2 54.3 30.5 C 54.31 30.53 54.3 32.6 54.3 32.6 L 53.8 32.6 Z M 59.4 33.5 L 62.7 27 L 63.2 27 L 59.9 33.5 L 59.4 33.5 Z M 65.5 32.6 L 67.7 27.7 L 68.3 27.7 L 70.5 32.6 L 69.9 32.6 L 69.3 31.3 L 66.7 31.3 L 66.1 32.6 L 65.5 32.6 Z M 66.9 30.8 L 69.1 30.8 L 68 28.3 L 66.9 30.8 Z M 71.5 32.6 L 71.5 27.7 C 71.5 27.7 73.55 27.7 73.5 27.7 C 74.1 27.7 74.5 27.8 74.8 28.1 C 75 28.3 75.1 28.6 75.1 28.9 C 75.1 28.9 75.1 28.9 75.1 28.9 C 75.1 29.5 74.9 29.8 74.4 30.1 C 75.1 30.3 75.4 30.7 75.4 31.2 C 75.4 31.2 75.4 31.3 75.4 31.3 C 75.4 31.7 75.3 32 74.9 32.2 C 74.6 32.5 74.2 32.6 73.6 32.6 C 73.64 32.6 71.5 32.6 71.5 32.6 Z M 74.6 29 C 74.6 29 74.6 29 74.6 29 C 74.6 28.7 74.5 28.6 74.3 28.4 C 74.1 28.3 73.8 28.2 73.5 28.2 C 73.5 28.2 72 28.2 72 28.2 L 72 29.9 C 72 29.9 73.46 29.88 73.5 29.9 C 73.8 29.9 74.1 29.8 74.3 29.7 C 74.5 29.5 74.6 29.3 74.6 29 Z M 74.9 31.2 C 74.9 31.2 74.9 31.2 74.9 31.2 C 74.9 30.9 74.7 30.7 74.5 30.6 C 74.3 30.4 74 30.4 73.6 30.4 C 73.55 30.37 72 30.4 72 30.4 L 72 32.1 C 72 32.1 73.65 32.1 73.7 32.1 C 74 32.1 74.3 32 74.5 31.9 C 74.8 31.7 74.9 31.5 74.9 31.2 Z M 78.2 32.7 C 77.4 32.7 76.8 32.4 76.2 31.9 C 76.2 31.9 76.5 31.5 76.5 31.5 C 76.8 31.7 77.1 31.9 77.3 32 C 77.6 32.1 77.9 32.2 78.2 32.2 C 78.5 32.2 78.8 32.1 79 31.9 C 79.2 31.8 79.3 31.6 79.3 31.3 C 79.3 31.3 79.3 31.3 79.3 31.3 C 79.3 31.1 79.2 30.9 79 30.8 C 78.9 30.6 78.5 30.5 78 30.4 C 77.5 30.3 77 30.1 76.8 29.9 C 76.5 29.7 76.4 29.4 76.4 29 C 76.4 29 76.4 29 76.4 29 C 76.4 28.6 76.5 28.3 76.8 28 C 77.2 27.8 77.5 27.6 78 27.6 C 78.3 27.6 78.7 27.7 78.9 27.8 C 79.2 27.9 79.5 28 79.7 28.2 C 79.7 28.2 79.4 28.7 79.4 28.7 C 79 28.3 78.5 28.1 78 28.1 C 77.7 28.1 77.4 28.2 77.2 28.4 C 77 28.5 76.9 28.7 76.9 28.9 C 76.9 28.9 76.9 28.9 76.9 28.9 C 76.9 29.2 77 29.4 77.2 29.5 C 77.4 29.7 77.8 29.8 78.3 29.9 C 78.8 30 79.2 30.2 79.5 30.4 C 79.7 30.6 79.9 30.9 79.9 31.3 C 79.9 31.3 79.9 31.3 79.9 31.3 C 79.9 31.7 79.7 32 79.4 32.3 C 79.1 32.5 78.7 32.7 78.2 32.7 Z " stroke="none" fill="#000"/>  </g>  <g id="Polygon80008">    <path d="M 0.7 23.6 L 0.7 18.7 C 0.7 18.7 2.8 18.7 2.8 18.7 C 3.4 18.7 3.9 18.9 4.2 19.2 C 4.4 19.4 4.6 19.8 4.6 20.2 C 4.6 20.2 4.6 20.2 4.6 20.2 C 4.6 20.6 4.4 20.9 4.2 21.1 C 4 21.4 3.6 21.5 3.2 21.6 C 3.24 21.6 4.7 23.6 4.7 23.6 L 4.1 23.6 L 2.6 21.7 L 1.2 21.7 L 1.2 23.6 L 0.7 23.6 Z M 1.2 21.2 C 1.2 21.2 2.75 21.2 2.8 21.2 C 3.1 21.2 3.4 21.1 3.7 20.9 C 3.9 20.7 4 20.5 4 20.2 C 4 20.2 4 20.2 4 20.2 C 4 19.9 3.9 19.6 3.7 19.5 C 3.5 19.3 3.2 19.2 2.8 19.2 C 2.76 19.21 1.2 19.2 1.2 19.2 L 1.2 21.2 Z M 8.7 23 C 8.3 23.5 7.8 23.7 7.2 23.7 C 6.7 23.7 6.3 23.5 6 23.2 C 5.6 22.8 5.4 22.4 5.4 21.8 C 5.4 21.8 5.4 21.8 5.4 21.8 C 5.4 21.3 5.6 20.8 5.9 20.4 C 6.3 20.1 6.7 19.9 7.2 19.9 C 7.7 19.9 8.1 20.1 8.4 20.4 C 8.7 20.8 8.9 21.3 8.9 21.8 C 8.9 21.9 8.9 21.9 8.9 22 C 8.9 22 6 22 6 22 C 6 22.4 6.2 22.7 6.4 22.9 C 6.6 23.1 6.9 23.2 7.3 23.2 C 7.7 23.2 8.1 23 8.4 22.7 C 8.4 22.7 8.7 23 8.7 23 C 8.7 23 8.74 23 8.7 23 Z M 6 21.6 C 6 21.6 8.3 21.6 8.3 21.6 C 8.3 21.2 8.2 20.9 8 20.7 C 7.8 20.5 7.5 20.4 7.2 20.4 C 6.8 20.4 6.6 20.5 6.4 20.7 C 6.1 20.9 6 21.2 6 21.6 Z M 9.8 23.6 L 9.8 20 L 10.3 20 C 10.3 20 10.35 20.61 10.3 20.6 C 10.6 20.1 11.1 19.9 11.6 19.9 C 12 19.9 12.4 20 12.6 20.3 C 12.8 20.6 13 20.9 13 21.4 C 12.97 21.35 13 23.6 13 23.6 L 12.4 23.6 C 12.4 23.6 12.43 21.49 12.4 21.5 C 12.4 21.1 12.3 20.9 12.2 20.7 C 12 20.5 11.7 20.4 11.4 20.4 C 11.1 20.4 10.9 20.5 10.7 20.7 C 10.4 20.9 10.3 21.2 10.3 21.5 C 10.35 21.53 10.3 23.6 10.3 23.6 L 9.8 23.6 Z M 14.1 23.6 L 14.1 18.5 L 14.7 18.5 L 14.7 22 L 16.6 20 L 17.3 20 L 15.8 21.5 L 17.3 23.6 L 16.7 23.6 L 15.4 21.9 L 14.7 22.7 L 14.7 23.6 L 14.1 23.6 Z M 18.1 20.7 L 18.1 20 L 18.7 20 L 18.7 20.7 L 18.1 20.7 Z M 18.1 23.6 L 18.1 22.9 L 18.7 22.9 L 18.7 23.6 L 18.1 23.6 Z M 23.8 23.7 C 23 23.7 22.3 23.4 21.7 22.9 C 21.7 22.9 22.1 22.5 22.1 22.5 C 22.4 22.7 22.6 22.9 22.9 23 C 23.1 23.1 23.4 23.2 23.8 23.2 C 24.1 23.2 24.4 23.1 24.6 22.9 C 24.8 22.8 24.9 22.6 24.9 22.3 C 24.9 22.3 24.9 22.3 24.9 22.3 C 24.9 22.1 24.8 21.9 24.6 21.8 C 24.4 21.6 24.1 21.5 23.6 21.4 C 23 21.3 22.6 21.1 22.3 20.9 C 22.1 20.7 21.9 20.4 21.9 20 C 21.9 20 21.9 20 21.9 20 C 21.9 19.6 22.1 19.3 22.4 19 C 22.7 18.8 23.1 18.6 23.6 18.6 C 23.9 18.6 24.2 18.7 24.5 18.8 C 24.8 18.9 25 19 25.3 19.2 C 25.3 19.2 25 19.7 25 19.7 C 24.5 19.3 24 19.1 23.5 19.1 C 23.2 19.1 23 19.2 22.8 19.4 C 22.6 19.5 22.5 19.7 22.5 19.9 C 22.5 19.9 22.5 19.9 22.5 19.9 C 22.5 20.2 22.6 20.4 22.8 20.5 C 23 20.7 23.3 20.8 23.8 20.9 C 24.4 21 24.8 21.2 25 21.4 C 25.3 21.6 25.4 21.9 25.4 22.3 C 25.4 22.3 25.4 22.3 25.4 22.3 C 25.4 22.7 25.3 23 25 23.3 C 24.6 23.5 24.2 23.7 23.8 23.7 Z M 28.1 23.7 C 27.6 23.7 27.1 23.5 26.8 23.1 C 26.4 22.8 26.2 22.3 26.2 21.8 C 26.2 21.8 26.2 21.8 26.2 21.8 C 26.2 21.3 26.4 20.8 26.8 20.5 C 27.1 20.1 27.6 19.9 28.1 19.9 C 28.7 19.9 29.1 20.1 29.5 20.5 C 29.8 20.8 30 21.3 30 21.8 C 30 21.8 30 21.8 30 21.8 C 30 22.3 29.8 22.8 29.5 23.1 C 29.1 23.5 28.7 23.7 28.1 23.7 Z M 28.1 23.2 C 28.5 23.2 28.8 23.1 29.1 22.8 C 29.3 22.5 29.5 22.2 29.5 21.8 C 29.5 21.8 29.5 21.8 29.5 21.8 C 29.5 21.4 29.3 21.1 29.1 20.8 C 28.8 20.5 28.5 20.4 28.1 20.4 C 27.7 20.4 27.4 20.5 27.2 20.8 C 26.9 21.1 26.8 21.4 26.8 21.8 C 26.8 21.8 26.8 21.8 26.8 21.8 C 26.8 22.2 26.9 22.5 27.2 22.8 C 27.4 23.1 27.7 23.2 28.1 23.2 Z M 31.2 23.6 L 31.2 20.5 L 30.7 20.5 L 30.7 20 L 31.2 20 C 31.2 20 31.18 19.67 31.2 19.7 C 31.2 19.3 31.3 19 31.5 18.7 C 31.7 18.6 31.9 18.5 32.3 18.5 C 32.5 18.5 32.7 18.5 32.9 18.6 C 32.9 18.6 32.9 19 32.9 19 C 32.7 19 32.5 18.9 32.3 18.9 C 31.9 18.9 31.7 19.2 31.7 19.7 C 31.72 19.7 31.7 20 31.7 20 L 32.9 20 L 32.9 20.5 L 31.7 20.5 L 31.7 23.6 L 31.2 23.6 Z M 35.4 23.5 C 35.2 23.6 35 23.7 34.8 23.7 C 34.4 23.7 34.2 23.6 34 23.4 C 33.8 23.2 33.7 23 33.7 22.6 C 33.74 22.64 33.7 20.5 33.7 20.5 L 33.2 20.5 L 33.2 20 L 33.7 20 L 33.7 18.9 L 34.3 18.9 L 34.3 20 L 35.4 20 L 35.4 20.5 L 34.3 20.5 C 34.3 20.5 34.28 22.57 34.3 22.6 C 34.3 23 34.5 23.2 34.9 23.2 C 35.1 23.2 35.2 23.1 35.4 23 C 35.41 23.05 35.4 23.5 35.4 23.5 C 35.4 23.5 35.41 23.51 35.4 23.5 Z M 42.8 22.9 C 42.3 23.4 41.6 23.7 40.8 23.7 C 40.1 23.7 39.5 23.4 39 23 C 38.6 22.5 38.4 21.9 38.4 21.2 C 38.4 21.2 38.4 21.1 38.4 21.1 C 38.4 20.5 38.6 19.9 39 19.4 C 39.5 18.9 40.1 18.6 40.8 18.6 C 41.2 18.6 41.5 18.7 41.8 18.8 C 42.1 18.9 42.4 19 42.6 19.3 C 42.6 19.3 42.3 19.7 42.3 19.7 C 41.9 19.3 41.4 19.1 40.8 19.1 C 40.3 19.1 39.8 19.3 39.5 19.7 C 39.1 20.1 38.9 20.6 38.9 21.1 C 38.9 21.1 38.9 21.1 38.9 21.1 C 38.9 21.7 39.1 22.2 39.5 22.6 C 39.8 23 40.3 23.2 40.9 23.2 C 41.4 23.2 41.9 23 42.3 22.7 C 42.28 22.7 42.3 21.5 42.3 21.5 L 40.8 21.5 L 40.8 21 L 42.8 21 L 42.8 22.9 C 42.8 22.9 42.81 22.93 42.8 22.9 Z M 44 23.6 L 44 20 L 44.5 20 C 44.5 20 44.51 20.93 44.5 20.9 C 44.6 20.6 44.8 20.4 45.1 20.2 C 45.4 20 45.7 19.9 46 19.9 C 45.98 19.92 46 20.5 46 20.5 C 46 20.5 45.94 20.5 45.9 20.5 C 45.5 20.5 45.2 20.6 44.9 20.9 C 44.6 21.2 44.5 21.6 44.5 22.2 C 44.51 22.16 44.5 23.6 44.5 23.6 L 44 23.6 Z M 49.9 23 C 49.5 23.5 49 23.7 48.4 23.7 C 47.9 23.7 47.5 23.5 47.1 23.2 C 46.8 22.8 46.6 22.4 46.6 21.8 C 46.6 21.8 46.6 21.8 46.6 21.8 C 46.6 21.3 46.7 20.8 47.1 20.4 C 47.4 20.1 47.8 19.9 48.3 19.9 C 48.8 19.9 49.2 20.1 49.5 20.4 C 49.8 20.8 50 21.3 50 21.8 C 50 21.9 50 21.9 50 22 C 50 22 47.1 22 47.1 22 C 47.2 22.4 47.3 22.7 47.5 22.9 C 47.8 23.1 48.1 23.2 48.4 23.2 C 48.8 23.2 49.2 23 49.5 22.7 C 49.54 22.7 49.9 23 49.9 23 C 49.9 23 49.87 23 49.9 23 Z M 47.1 21.6 C 47.1 21.6 49.5 21.6 49.5 21.6 C 49.4 21.2 49.3 20.9 49.1 20.7 C 48.9 20.5 48.6 20.4 48.3 20.4 C 48 20.4 47.7 20.5 47.5 20.7 C 47.3 20.9 47.2 21.2 47.1 21.6 Z M 52.5 23 L 53.7 20 L 54.2 20 C 54.2 20 52.71 23.72 52.7 23.7 C 52.6 24.1 52.4 24.4 52.2 24.5 C 52 24.7 51.8 24.7 51.5 24.7 C 51.2 24.7 51 24.7 50.7 24.6 C 50.7 24.6 50.9 24.1 50.9 24.1 C 51.1 24.2 51.3 24.3 51.5 24.3 C 51.7 24.3 51.8 24.2 51.9 24.1 C 52 24 52.1 23.8 52.2 23.6 C 52.23 23.59 50.6 20 50.6 20 L 51.2 20 L 52.5 23 Z " stroke="none" fill="#000"/>  </g>  <g id="Polygon80007">    <path d="M 3 9.3 L 3 8.6 L 3.6 8.6 L 3.6 9.3 L 3 9.3 Z M 1.7 9.3 L 1.7 8.6 L 2.3 8.6 L 2.3 9.3 L 1.7 9.3 Z M 2.7 14.7 C 2 14.7 1.5 14.5 1.2 14.1 C 0.8 13.7 0.6 13.2 0.6 12.5 C 0.62 12.55 0.6 9.7 0.6 9.7 L 1.2 9.7 C 1.2 9.7 1.17 12.51 1.2 12.5 C 1.2 13 1.3 13.4 1.6 13.7 C 1.8 14 2.2 14.2 2.7 14.2 C 3.1 14.2 3.5 14 3.8 13.8 C 4 13.5 4.1 13.1 4.1 12.5 C 4.14 12.55 4.1 9.7 4.1 9.7 L 4.7 9.7 C 4.7 9.7 4.7 12.51 4.7 12.5 C 4.7 13.2 4.5 13.7 4.1 14.1 C 3.8 14.5 3.3 14.7 2.7 14.7 Z M 5.9 14.6 L 5.9 11 L 6.5 11 C 6.5 11 6.45 11.93 6.5 11.9 C 6.6 11.6 6.8 11.4 7 11.2 C 7.3 11 7.6 10.9 7.9 10.9 C 7.93 10.92 7.9 11.5 7.9 11.5 C 7.9 11.5 7.89 11.5 7.9 11.5 C 7.5 11.5 7.1 11.6 6.9 11.9 C 6.6 12.2 6.5 12.6 6.5 13.2 C 6.45 13.16 6.5 14.6 6.5 14.6 L 5.9 14.6 Z M 10.6 10.4 L 10.6 9.8 L 11.2 9.8 L 11.2 10.4 L 10.6 10.4 Z M 9.3 10.4 L 9.3 9.8 L 10 9.8 L 10 10.4 L 9.3 10.4 Z M 11.3 14 C 11 14.4 10.6 14.7 10.1 14.7 C 9.7 14.7 9.3 14.5 9.1 14.3 C 8.8 14 8.7 13.7 8.7 13.2 C 8.69 13.23 8.7 11 8.7 11 L 9.2 11 C 9.2 11 9.23 13.09 9.2 13.1 C 9.2 13.4 9.3 13.7 9.5 13.9 C 9.7 14.1 9.9 14.2 10.2 14.2 C 10.5 14.2 10.8 14.1 11 13.9 C 11.2 13.7 11.3 13.4 11.3 13.1 C 11.32 13.05 11.3 11 11.3 11 L 11.9 11 L 11.9 14.6 L 11.3 14.6 L 11.3 14 C 11.3 14 11.32 13.97 11.3 14 Z M 13.1 14.6 L 13.1 11 L 13.6 11 C 13.6 11 13.6 11.61 13.6 11.6 C 13.9 11.1 14.3 10.9 14.8 10.9 C 15.3 10.9 15.6 11 15.9 11.3 C 16.1 11.6 16.2 11.9 16.2 12.4 C 16.23 12.35 16.2 14.6 16.2 14.6 L 15.7 14.6 C 15.7 14.6 15.69 12.49 15.7 12.5 C 15.7 12.1 15.6 11.9 15.4 11.7 C 15.2 11.5 15 11.4 14.7 11.4 C 14.4 11.4 14.1 11.5 13.9 11.7 C 13.7 11.9 13.6 12.2 13.6 12.5 C 13.6 12.53 13.6 14.6 13.6 14.6 L 13.1 14.6 Z M 19.6 14.6 L 19.6 9.7 L 20.1 9.7 L 20.1 12.6 L 22.9 9.7 L 23.7 9.7 L 21.5 11.8 L 23.7 14.6 L 23 14.6 L 21.2 12.2 L 20.1 13.3 L 20.1 14.6 L 19.6 14.6 Z M 26.2 14.7 C 25.6 14.7 25.2 14.5 24.8 14.1 C 24.5 13.8 24.3 13.3 24.3 12.8 C 24.3 12.8 24.3 12.8 24.3 12.8 C 24.3 12.3 24.5 11.8 24.8 11.5 C 25.2 11.1 25.6 10.9 26.2 10.9 C 26.7 10.9 27.2 11.1 27.5 11.5 C 27.9 11.8 28.1 12.3 28.1 12.8 C 28.1 12.8 28.1 12.8 28.1 12.8 C 28.1 13.3 27.9 13.8 27.5 14.1 C 27.2 14.5 26.7 14.7 26.2 14.7 Z M 26.2 14.2 C 26.6 14.2 26.9 14.1 27.1 13.8 C 27.4 13.5 27.5 13.2 27.5 12.8 C 27.5 12.8 27.5 12.8 27.5 12.8 C 27.5 12.4 27.4 12.1 27.1 11.8 C 26.9 11.5 26.5 11.4 26.2 11.4 C 25.8 11.4 25.5 11.5 25.2 11.8 C 25 12.1 24.8 12.4 24.8 12.8 C 24.8 12.8 24.8 12.8 24.8 12.8 C 24.8 13.2 25 13.5 25.2 13.8 C 25.5 14.1 25.8 14.2 26.2 14.2 Z M 31.9 13.9 C 31.6 14.4 31.1 14.7 30.5 14.7 C 30.1 14.7 29.7 14.5 29.3 14.2 C 29 13.8 28.8 13.4 28.8 12.8 C 28.8 12.8 28.8 12.8 28.8 12.8 C 28.8 12.2 29 11.8 29.3 11.4 C 29.7 11.1 30.1 10.9 30.5 10.9 C 31.1 10.9 31.6 11.2 31.9 11.7 C 31.93 11.67 31.9 9.5 31.9 9.5 L 32.5 9.5 L 32.5 14.6 L 31.9 14.6 L 31.9 13.9 C 31.9 13.9 31.93 13.87 31.9 13.9 Z M 30.6 14.2 C 31 14.2 31.3 14.1 31.6 13.8 C 31.8 13.5 32 13.2 32 12.8 C 32 12.8 32 12.8 32 12.8 C 32 12.4 31.8 12 31.6 11.8 C 31.3 11.5 31 11.4 30.6 11.4 C 30.3 11.4 30 11.5 29.7 11.8 C 29.5 12 29.4 12.4 29.4 12.8 C 29.4 12.8 29.4 12.8 29.4 12.8 C 29.4 13.2 29.5 13.6 29.7 13.8 C 30 14.1 30.3 14.2 30.6 14.2 Z M 36.2 14 C 36 14.4 35.5 14.7 35 14.7 C 34.6 14.7 34.2 14.5 34 14.3 C 33.7 14 33.6 13.7 33.6 13.2 C 33.62 13.23 33.6 11 33.6 11 L 34.2 11 C 34.2 11 34.16 13.09 34.2 13.1 C 34.2 13.4 34.2 13.7 34.4 13.9 C 34.6 14.1 34.8 14.2 35.2 14.2 C 35.5 14.2 35.7 14.1 35.9 13.9 C 36.1 13.7 36.2 13.4 36.2 13.1 C 36.25 13.05 36.2 11 36.2 11 L 36.8 11 L 36.8 14.6 L 36.2 14.6 L 36.2 14 C 36.2 14 36.25 13.97 36.2 14 Z M 38 11.7 L 38 11 L 38.6 11 L 38.6 11.7 L 38 11.7 Z M 38 14.6 L 38 13.9 L 38.6 13.9 L 38.6 14.6 L 38 14.6 Z M 41.7 14.6 L 41.7 13.8 L 44.4 10.6 L 41.8 10.6 L 41.8 9.7 L 45.8 9.7 L 45.8 10.5 L 43.1 13.7 L 45.8 13.7 L 45.8 14.6 L 41.7 14.6 Z M 46.8 14.6 L 46.8 9.7 C 46.8 9.7 48.72 9.7 48.7 9.7 C 49.5 9.7 50.1 9.9 50.6 10.4 C 51.1 10.9 51.3 11.4 51.3 12.1 C 51.3 12.1 51.3 12.1 51.3 12.1 C 51.3 12.8 51.1 13.4 50.6 13.9 C 50.1 14.4 49.5 14.6 48.7 14.6 C 48.72 14.6 46.8 14.6 46.8 14.6 Z M 48.7 10.7 C 48.72 10.67 47.9 10.7 47.9 10.7 L 47.9 13.6 C 47.9 13.6 48.72 13.63 48.7 13.6 C 49.2 13.6 49.5 13.5 49.8 13.2 C 50.1 13 50.2 12.6 50.2 12.2 C 50.2 12.2 50.2 12.1 50.2 12.1 C 50.2 11.7 50.1 11.4 49.8 11.1 C 49.5 10.8 49.2 10.7 48.7 10.7 Z M 56 14.7 C 55.2 14.7 54.5 14.4 54.1 13.8 C 54.1 13.8 54.8 13.1 54.8 13.1 C 55.1 13.5 55.5 13.7 56 13.7 C 56.2 13.7 56.4 13.7 56.5 13.6 C 56.6 13.4 56.7 13.3 56.7 13.1 C 56.7 13.1 56.7 13.1 56.7 13.1 C 56.7 12.9 56.6 12.8 56.4 12.6 C 56.3 12.5 56 12.5 55.7 12.5 C 55.72 12.49 55.3 12.5 55.3 12.5 L 55.1 11.8 L 56.3 10.6 L 54.3 10.6 L 54.3 9.7 L 57.7 9.7 L 57.7 10.5 C 57.7 10.5 56.42 11.69 56.4 11.7 C 57.3 11.8 57.7 12.3 57.7 13.1 C 57.7 13.1 57.7 13.1 57.7 13.1 C 57.7 13.6 57.6 13.9 57.3 14.2 C 56.9 14.5 56.5 14.7 56 14.7 Z M 60.3 14.7 C 59.5 14.7 58.9 14.4 58.4 13.8 C 58.4 13.8 59.1 13.1 59.1 13.1 C 59.5 13.5 59.9 13.7 60.3 13.7 C 60.5 13.7 60.7 13.7 60.8 13.6 C 61 13.4 61 13.3 61 13.1 C 61 13.1 61 13.1 61 13.1 C 61 12.9 60.9 12.8 60.8 12.6 C 60.6 12.5 60.4 12.5 60.1 12.5 C 60.07 12.49 59.6 12.5 59.6 12.5 L 59.5 11.8 L 60.6 10.6 L 58.7 10.6 L 58.7 9.7 L 62 9.7 L 62 10.5 C 62 10.5 60.77 11.69 60.8 11.7 C 61.6 11.8 62.1 12.3 62.1 13.1 C 62.1 13.1 62.1 13.1 62.1 13.1 C 62.1 13.6 61.9 13.9 61.6 14.2 C 61.3 14.5 60.9 14.7 60.3 14.7 Z M 63.7 14.6 L 63.7 10.8 L 62.9 11 L 62.7 10.1 L 64.1 9.7 L 64.8 9.7 L 64.8 14.6 L 63.7 14.6 Z M 67.6 14.7 C 67.1 14.7 66.6 14.5 66.3 14.3 C 65.9 14 65.8 13.7 65.8 13.3 C 65.8 13.3 65.8 13.2 65.8 13.2 C 65.8 13 65.8 12.7 65.9 12.5 C 66.1 12.3 66.3 12.2 66.5 12.1 C 66.1 11.8 65.9 11.5 65.9 11 C 65.9 11 65.9 11 65.9 11 C 65.9 10.6 66.1 10.3 66.4 10 C 66.7 9.8 67.1 9.6 67.6 9.6 C 68.2 9.6 68.6 9.8 68.9 10 C 69.2 10.3 69.4 10.6 69.4 11 C 69.4 11 69.4 11 69.4 11 C 69.4 11.5 69.2 11.8 68.7 12.1 C 69 12.2 69.2 12.4 69.3 12.5 C 69.5 12.7 69.5 12.9 69.5 13.2 C 69.5 13.2 69.5 13.2 69.5 13.2 C 69.5 13.7 69.4 14 69 14.3 C 68.7 14.5 68.2 14.7 67.6 14.7 Z M 66.9 11.1 C 66.9 11.3 67 11.4 67.1 11.5 C 67.3 11.6 67.4 11.7 67.6 11.7 C 67.9 11.7 68 11.6 68.2 11.5 C 68.3 11.4 68.3 11.3 68.3 11.1 C 68.3 11.1 68.3 11.1 68.3 11.1 C 68.3 10.9 68.3 10.8 68.2 10.7 C 68 10.6 67.9 10.5 67.6 10.5 C 67.4 10.5 67.3 10.6 67.1 10.7 C 67 10.8 66.9 10.9 66.9 11.1 C 66.95 11.09 66.9 11.1 66.9 11.1 C 66.9 11.1 66.95 11.1 66.9 11.1 Z M 67.6 13.8 C 67.9 13.8 68.1 13.7 68.3 13.6 C 68.4 13.5 68.5 13.3 68.5 13.2 C 68.5 13.2 68.5 13.2 68.5 13.2 C 68.5 13 68.4 12.8 68.3 12.7 C 68.1 12.6 67.9 12.6 67.6 12.6 C 67.4 12.6 67.2 12.6 67 12.7 C 66.9 12.8 66.8 13 66.8 13.2 C 66.8 13.2 66.8 13.2 66.8 13.2 C 66.8 13.3 66.9 13.5 67 13.6 C 67.2 13.7 67.4 13.8 67.6 13.8 Z M 72.2 14.7 C 71.6 14.7 71.2 14.5 70.8 14.2 C 70.4 13.8 70.2 13.2 70.2 12.3 C 70.2 12.3 70.2 12.3 70.2 12.3 C 70.2 11.5 70.4 10.9 70.8 10.4 C 71.1 9.9 71.7 9.6 72.4 9.6 C 72.9 9.6 73.5 9.8 73.9 10.2 C 73.9 10.2 73.3 11 73.3 11 C 73.2 10.9 73 10.8 72.9 10.7 C 72.7 10.6 72.5 10.6 72.3 10.6 C 72.2 10.6 72 10.6 71.9 10.7 C 71.8 10.8 71.7 10.9 71.6 11 C 71.5 11.1 71.5 11.3 71.4 11.4 C 71.4 11.5 71.4 11.6 71.4 11.7 C 71.7 11.5 72 11.4 72.4 11.4 C 72.9 11.4 73.3 11.6 73.6 11.8 C 73.9 12.1 74.1 12.5 74.1 13 C 74.1 13 74.1 13 74.1 13 C 74.1 13.5 73.9 13.9 73.6 14.2 C 73.2 14.5 72.8 14.7 72.2 14.7 Z M 71.3 13 C 71.3 13.2 71.4 13.4 71.6 13.6 C 71.7 13.7 71.9 13.8 72.2 13.8 C 72.4 13.8 72.6 13.7 72.8 13.6 C 72.9 13.4 73 13.3 73 13 C 73 13 73 13 73 13 C 73 12.8 72.9 12.6 72.8 12.5 C 72.6 12.4 72.4 12.3 72.2 12.3 C 71.9 12.3 71.7 12.4 71.6 12.5 C 71.4 12.6 71.3 12.8 71.3 13 C 71.33 13.02 71.3 13 71.3 13 C 71.3 13 71.33 13.03 71.3 13 Z M 75.7 14.6 L 75.7 10.8 L 74.9 11 L 74.7 10.1 L 76.1 9.7 L 76.8 9.7 L 76.8 14.6 L 75.7 14.6 Z " stroke="none" fill="#000"/>  </g>  <g id="Polygon80006">    <path d="M 0.6 5.6 L 0.6 0.7 C 0.6 0.7 2.86 0.7 2.9 0.7 C 3.4 0.7 3.9 0.8 4.1 1.1 C 4.4 1.4 4.5 1.6 4.5 2 C 4.5 2 4.5 2 4.5 2 C 4.5 2.5 4.3 2.8 3.8 3 C 4.1 3.2 4.4 3.3 4.5 3.5 C 4.7 3.7 4.8 3.9 4.8 4.2 C 4.8 4.2 4.8 4.3 4.8 4.3 C 4.8 4.7 4.6 5 4.3 5.3 C 3.9 5.5 3.5 5.6 2.9 5.6 C 2.92 5.6 0.6 5.6 0.6 5.6 Z M 2.6 2.7 C 3.2 2.7 3.4 2.5 3.4 2.2 C 3.4 2.2 3.4 2.1 3.4 2.1 C 3.4 1.8 3.2 1.6 2.7 1.6 C 2.7 1.64 1.6 1.6 1.6 1.6 L 1.6 2.7 L 2.6 2.7 C 2.6 2.7 2.63 2.68 2.6 2.7 Z M 2.9 4.7 C 3.4 4.7 3.7 4.5 3.7 4.1 C 3.7 4.1 3.7 4.1 3.7 4.1 C 3.7 3.8 3.4 3.6 2.9 3.6 C 2.88 3.58 1.6 3.6 1.6 3.6 L 1.6 4.7 L 2.9 4.7 C 2.9 4.7 2.92 4.65 2.9 4.7 Z M 7.7 5.2 C 7.4 5.5 7.1 5.7 6.6 5.7 C 6.2 5.7 5.9 5.6 5.7 5.4 C 5.4 5.2 5.3 4.9 5.3 4.5 C 5.3 4.5 5.3 4.5 5.3 4.5 C 5.3 4.1 5.4 3.8 5.7 3.6 C 6 3.4 6.4 3.3 6.8 3.3 C 7.1 3.3 7.4 3.4 7.7 3.5 C 7.7 3.5 7.7 3.4 7.7 3.4 C 7.7 2.9 7.5 2.7 6.9 2.7 C 6.6 2.7 6.2 2.8 5.9 2.9 C 5.9 2.9 5.6 2.1 5.6 2.1 C 6.1 1.9 6.6 1.8 7.1 1.8 C 7.6 1.8 8.1 1.9 8.4 2.2 C 8.6 2.5 8.8 2.9 8.8 3.4 C 8.76 3.42 8.8 5.6 8.8 5.6 L 7.7 5.6 L 7.7 5.2 C 7.7 5.2 7.73 5.19 7.7 5.2 Z M 6.9 4.9 C 7.2 4.9 7.4 4.9 7.5 4.8 C 7.7 4.6 7.7 4.5 7.7 4.3 C 7.7 4.3 7.7 4.1 7.7 4.1 C 7.5 4 7.3 3.9 7.1 3.9 C 6.8 3.9 6.7 4 6.5 4.1 C 6.4 4.2 6.3 4.3 6.3 4.5 C 6.3 4.5 6.3 4.5 6.3 4.5 C 6.3 4.6 6.4 4.7 6.5 4.8 C 6.6 4.9 6.7 4.9 6.9 4.9 Z M 9.7 5.6 L 9.7 1.8 L 10.7 1.8 C 10.7 1.8 10.74 2.38 10.7 2.4 C 11.1 2 11.4 1.8 11.8 1.8 C 12.2 1.8 12.6 1.9 12.8 2.1 C 13 2.4 13.1 2.7 13.1 3.2 C 13.11 3.17 13.1 5.6 13.1 5.6 L 12 5.6 C 12 5.6 12.05 3.51 12 3.5 C 12 3 11.8 2.7 11.4 2.7 C 11.2 2.7 11 2.8 10.9 2.9 C 10.8 3.1 10.7 3.3 10.7 3.5 C 10.74 3.51 10.7 5.6 10.7 5.6 L 9.7 5.6 Z M 15.7 4.4 L 16.5 1.8 L 17.6 1.8 C 17.6 1.8 16.16 5.69 16.2 5.7 C 16 6.1 15.9 6.3 15.7 6.5 C 15.5 6.7 15.2 6.7 14.9 6.7 C 14.6 6.7 14.3 6.7 14 6.5 C 14 6.5 14.3 5.7 14.3 5.7 C 14.5 5.8 14.7 5.9 14.8 5.9 C 14.9 5.9 15 5.8 15 5.8 C 15.1 5.8 15.1 5.7 15.2 5.6 C 15.17 5.61 13.7 1.8 13.7 1.8 L 14.8 1.8 L 15.7 4.4 Z M 20.1 5.7 C 19.5 5.7 19 5.5 18.6 5.1 C 18.2 4.8 18.1 4.3 18.1 3.7 C 18.1 3.7 18.1 3.7 18.1 3.7 C 18.1 3.2 18.2 2.7 18.6 2.3 C 19 2 19.5 1.8 20.1 1.8 C 20.7 1.8 21.1 2 21.5 2.3 C 21.9 2.7 22.1 3.2 22.1 3.7 C 22.1 3.7 22.1 3.7 22.1 3.7 C 22.1 4.3 21.9 4.7 21.5 5.1 C 21.1 5.5 20.7 5.7 20.1 5.7 Z M 20.1 4.8 C 20.4 4.8 20.6 4.7 20.8 4.5 C 21 4.3 21.1 4 21.1 3.7 C 21.1 3.7 21.1 3.7 21.1 3.7 C 21.1 3.4 21 3.2 20.8 3 C 20.6 2.8 20.4 2.7 20.1 2.7 C 19.8 2.7 19.5 2.8 19.4 3 C 19.2 3.2 19.1 3.4 19.1 3.7 C 19.1 3.7 19.1 3.7 19.1 3.7 C 19.1 4 19.2 4.3 19.4 4.5 C 19.6 4.7 19.8 4.8 20.1 4.8 Z M 26.8 5.7 C 26 5.7 25.3 5.4 24.8 4.9 C 24.8 4.9 25.4 4.1 25.4 4.1 C 25.9 4.5 26.4 4.7 26.9 4.7 C 27.1 4.7 27.3 4.7 27.4 4.6 C 27.5 4.5 27.6 4.4 27.6 4.3 C 27.6 4.3 27.6 4.2 27.6 4.2 C 27.6 4.1 27.5 4 27.4 3.9 C 27.2 3.8 27 3.7 26.6 3.6 C 26.3 3.5 26.1 3.5 25.9 3.4 C 25.7 3.3 25.6 3.3 25.4 3.1 C 25.2 3 25.1 2.9 25.1 2.7 C 25 2.6 25 2.4 25 2.1 C 25 2.1 25 2.1 25 2.1 C 25 1.7 25.1 1.3 25.4 1 C 25.7 0.8 26.2 0.6 26.7 0.6 C 27.4 0.6 28 0.8 28.5 1.3 C 28.5 1.3 27.9 2.1 27.9 2.1 C 27.5 1.7 27 1.6 26.7 1.6 C 26.5 1.6 26.3 1.6 26.2 1.7 C 26.1 1.8 26 1.9 26 2 C 26 2 26 2 26 2 C 26 2.2 26.1 2.3 26.2 2.4 C 26.4 2.5 26.6 2.6 27.1 2.7 C 27.6 2.8 28 3 28.3 3.2 C 28.5 3.4 28.6 3.7 28.6 4.1 C 28.6 4.1 28.6 4.2 28.6 4.2 C 28.6 4.6 28.5 5 28.1 5.3 C 27.8 5.5 27.4 5.7 26.8 5.7 Z M 29.5 1.4 L 29.5 0.5 L 30.6 0.5 L 30.6 1.4 L 29.5 1.4 Z M 29.5 5.6 L 29.5 1.8 L 30.6 1.8 L 30.6 5.6 L 29.5 5.6 Z M 31.6 5.6 L 31.6 0.5 L 32.7 0.5 L 32.7 5.6 L 31.6 5.6 Z M 37 5 C 36.6 5.5 36.1 5.7 35.5 5.7 C 34.9 5.7 34.4 5.5 34.1 5.1 C 33.7 4.8 33.5 4.3 33.5 3.7 C 33.5 3.7 33.5 3.7 33.5 3.7 C 33.5 3.2 33.7 2.7 34 2.3 C 34.4 2 34.8 1.8 35.4 1.8 C 36 1.8 36.4 2 36.7 2.4 C 37 2.8 37.2 3.2 37.2 3.8 C 37.2 3.9 37.2 4 37.2 4.1 C 37.2 4.1 34.6 4.1 34.6 4.1 C 34.6 4.3 34.7 4.5 34.9 4.6 C 35 4.8 35.2 4.8 35.5 4.8 C 35.8 4.8 36.1 4.7 36.4 4.4 C 36.39 4.44 37 5 37 5 C 37 5 37 4.98 37 5 Z M 34.6 3.4 C 34.6 3.4 36.2 3.4 36.2 3.4 C 36.1 3.2 36 3 35.9 2.8 C 35.8 2.7 35.6 2.6 35.4 2.6 C 35.1 2.6 35 2.7 34.8 2.8 C 34.7 3 34.6 3.2 34.6 3.4 Z M 39.8 5.7 C 39.2 5.7 38.7 5.5 38.4 5.1 C 38 4.7 37.8 4.3 37.8 3.7 C 37.8 3.7 37.8 3.7 37.8 3.7 C 37.8 3.2 38 2.7 38.4 2.3 C 38.7 2 39.2 1.8 39.8 1.8 C 40.4 1.8 40.9 2 41.3 2.4 C 41.3 2.4 40.6 3.1 40.6 3.1 C 40.5 3 40.3 2.9 40.2 2.8 C 40.1 2.7 39.9 2.7 39.8 2.7 C 39.5 2.7 39.3 2.8 39.1 3 C 38.9 3.2 38.8 3.4 38.8 3.7 C 38.8 3.7 38.8 3.7 38.8 3.7 C 38.8 4 38.9 4.3 39.1 4.5 C 39.3 4.7 39.5 4.8 39.8 4.8 C 40.1 4.8 40.4 4.6 40.7 4.4 C 40.7 4.4 41.3 5 41.3 5 C 41.1 5.2 40.9 5.4 40.6 5.5 C 40.4 5.6 40.1 5.7 39.8 5.7 Z M 45.3 5 C 44.9 5.5 44.4 5.7 43.8 5.7 C 43.2 5.7 42.7 5.5 42.3 5.1 C 42 4.8 41.8 4.3 41.8 3.7 C 41.8 3.7 41.8 3.7 41.8 3.7 C 41.8 3.2 42 2.7 42.3 2.3 C 42.7 2 43.1 1.8 43.7 1.8 C 44.2 1.8 44.7 2 45 2.4 C 45.3 2.8 45.5 3.2 45.5 3.8 C 45.5 3.9 45.5 4 45.5 4.1 C 45.5 4.1 42.9 4.1 42.9 4.1 C 42.9 4.3 43 4.5 43.2 4.6 C 43.3 4.8 43.5 4.8 43.8 4.8 C 44.1 4.8 44.4 4.7 44.7 4.4 C 44.68 4.44 45.3 5 45.3 5 C 45.3 5 45.29 4.98 45.3 5 Z M 42.8 3.4 C 42.8 3.4 44.4 3.4 44.4 3.4 C 44.4 3.2 44.3 3 44.2 2.8 C 44 2.7 43.9 2.6 43.7 2.6 C 43.4 2.6 43.3 2.7 43.1 2.8 C 43 3 42.9 3.2 42.8 3.4 Z M 49.6 6.2 C 49.2 6.6 48.7 6.7 47.9 6.7 C 47.3 6.7 46.8 6.6 46.3 6.3 C 46.3 6.3 46.7 5.5 46.7 5.5 C 47.1 5.8 47.5 5.9 47.9 5.9 C 48.6 5.9 49 5.5 49 4.9 C 49 4.9 49 4.7 49 4.7 C 48.8 4.9 48.6 5 48.5 5.1 C 48.3 5.2 48 5.3 47.8 5.3 C 47.3 5.3 46.9 5.1 46.6 4.8 C 46.3 4.5 46.1 4.1 46.1 3.5 C 46.1 3.5 46.1 3.5 46.1 3.5 C 46.1 3 46.3 2.6 46.6 2.3 C 46.9 1.9 47.3 1.8 47.8 1.8 C 48.2 1.8 48.6 2 49 2.3 C 48.98 2.34 49 1.8 49 1.8 L 50 1.8 C 50 1.8 50.04 4.75 50 4.8 C 50 5.4 49.9 5.9 49.6 6.2 C 49.6 6.2 49.6 6.2 49.6 6.2 Z M 47.2 3.5 C 47.2 3.8 47.3 4 47.4 4.2 C 47.6 4.3 47.8 4.4 48.1 4.4 C 48.3 4.4 48.6 4.3 48.7 4.2 C 48.9 4 49 3.8 49 3.5 C 49 3.5 49 3.5 49 3.5 C 49 3.3 48.9 3.1 48.7 2.9 C 48.6 2.7 48.3 2.7 48.1 2.7 C 47.8 2.7 47.6 2.7 47.4 2.9 C 47.3 3.1 47.2 3.3 47.2 3.5 C 47.17 3.53 47.2 3.5 47.2 3.5 C 47.2 3.5 47.17 3.54 47.2 3.5 Z M 49.5 0.3 C 49.5 0.7 49.4 1 49.1 1.2 C 48.9 1.4 48.6 1.4 48.2 1.4 C 47.8 1.4 47.5 1.4 47.3 1.2 C 47.1 1 46.9 0.7 46.9 0.3 C 46.9 0.3 47.6 0.3 47.6 0.3 C 47.7 0.6 47.9 0.8 48.2 0.8 C 48.5 0.8 48.7 0.6 48.8 0.3 C 48.81 0.34 49.5 0.3 49.5 0.3 C 49.5 0.3 49.52 0.34 49.5 0.3 Z M 51 1.4 L 51 0.5 L 52.1 0.5 L 52.1 1.4 L 51 1.4 Z M 51 5.6 L 51 1.8 L 52.1 1.8 L 52.1 5.6 L 51 5.6 Z M 55.1 3.9 L 55.1 2.9 L 58.1 2.9 L 58.1 3.9 L 55.1 3.9 Z M 62.4 5.6 L 60.7 0.7 L 61.9 0.7 L 62.9 4 L 64 0.7 L 64.9 0.7 L 66 4 L 67 0.7 L 68.2 0.7 L 66.5 5.6 L 65.6 5.6 L 64.5 2.4 L 63.3 5.6 L 62.4 5.6 Z M 68.9 1.4 L 68.9 0.5 L 70 0.5 L 70 1.4 L 68.9 1.4 Z M 68.9 5.6 L 68.9 1.8 L 70 1.8 L 70 5.6 L 68.9 5.6 Z M 71 6.7 L 71 1.8 L 72 1.8 C 72 1.8 72.04 2.39 72 2.4 C 72.3 2 72.7 1.8 73.2 1.8 C 73.7 1.8 74.1 2 74.4 2.3 C 74.7 2.6 74.9 3.1 74.9 3.7 C 74.9 3.7 74.9 3.7 74.9 3.7 C 74.9 4.3 74.7 4.8 74.4 5.1 C 74.1 5.5 73.7 5.7 73.2 5.7 C 72.7 5.7 72.3 5.5 72 5.1 C 72.04 5.11 72 6.7 72 6.7 L 71 6.7 Z M 72 3.7 C 72 4 72.1 4.3 72.3 4.5 C 72.5 4.7 72.7 4.8 72.9 4.8 C 73.2 4.8 73.4 4.7 73.6 4.5 C 73.8 4.3 73.8 4 73.8 3.7 C 73.8 3.7 73.8 3.7 73.8 3.7 C 73.8 3.4 73.8 3.2 73.6 3 C 73.4 2.8 73.2 2.7 72.9 2.7 C 72.7 2.7 72.5 2.8 72.3 3 C 72.1 3.2 72 3.4 72 3.7 C 72.02 3.72 72 3.7 72 3.7 C 72 3.7 72.02 3.73 72 3.7 Z M 79 5 C 78.6 5.5 78.1 5.7 77.5 5.7 C 76.9 5.7 76.4 5.5 76.1 5.1 C 75.7 4.8 75.5 4.3 75.5 3.7 C 75.5 3.7 75.5 3.7 75.5 3.7 C 75.5 3.2 75.7 2.7 76 2.3 C 76.4 2 76.8 1.8 77.4 1.8 C 78 1.8 78.4 2 78.7 2.4 C 79 2.8 79.2 3.2 79.2 3.8 C 79.2 3.9 79.2 4 79.2 4.1 C 79.2 4.1 76.6 4.1 76.6 4.1 C 76.6 4.3 76.7 4.5 76.9 4.6 C 77 4.8 77.2 4.8 77.5 4.8 C 77.8 4.8 78.1 4.7 78.4 4.4 C 78.4 4.44 79 5 79 5 C 79 5 79.01 4.98 79 5 Z M 76.6 3.4 C 76.6 3.4 78.2 3.4 78.2 3.4 C 78.1 3.2 78 3 77.9 2.8 C 77.8 2.7 77.6 2.6 77.4 2.6 C 77.2 2.6 77 2.7 76.8 2.8 C 76.7 3 76.6 3.2 76.6 3.4 Z M 80 5.6 L 80 1.8 L 81.1 1.8 C 81.1 1.8 81.05 2.6 81.1 2.6 C 81.3 2 81.7 1.8 82.2 1.8 C 82.25 1.78 82.2 2.9 82.2 2.9 C 82.2 2.9 82.19 2.89 82.2 2.9 C 81.8 2.9 81.5 3 81.3 3.2 C 81.2 3.4 81.1 3.8 81.1 4.2 C 81.05 4.21 81.1 5.6 81.1 5.6 L 80 5.6 Z " stroke="none" fill="#000"/>  </g></svg>