<?xml version="1.0" standalone="no"?><!DOCTYPE svg PUBLIC "-//W3C//DTD SVG 1.1//EN" "http://www.w3.org/Graphics/SVG/1.1/DTD/svg11.dtd"><svg xmlns="http://www.w3.org/2000/svg" version="1.1" width="69.5px" height="21px" viewBox="0 -1 69.5 21" style="top:-1px">  <desc>₺7.869,95</desc>  <defs/>  <g id="Polygon70979">    <path d="M 2.7 4.1 L 2.7 12.7 L 1.6 12.7 L 1.6 4.1 L 2.7 4.1 Z M 5 8.1 L 6.2 8.1 C 6.2 8.1 6.16 8.66 6.2 8.7 C 6.2 9.3 6.1 9.9 5.9 10.4 C 5.8 10.9 5.5 11.3 5.2 11.7 C 4.9 12 4.6 12.3 4.1 12.5 C 3.7 12.7 3.2 12.8 2.7 12.8 C 2.5 12.8 2.4 12.8 2.2 12.7 C 2 12.7 1.8 12.7 1.6 12.7 C 1.6 12.7 2.7 11.8 2.7 11.8 C 3.1 11.8 3.4 11.7 3.7 11.6 C 4 11.5 4.2 11.3 4.4 11 C 4.6 10.7 4.8 10.4 4.9 10 C 5 9.6 5 9.2 5 8.7 C 5.04 8.66 5 8.1 5 8.1 Z M 4.2 5 L 4.2 6 L 0.2 7.8 L 0.2 6.8 L 4.2 5 Z M 4.2 6.9 L 4.2 7.9 L 0.2 9.8 L 0.2 8.7 L 4.2 6.9 Z M 12.9 4.1 L 12.9 4.7 L 9.4 12.7 L 8.2 12.7 L 11.8 5 L 7.1 5 L 7.1 4.1 L 12.9 4.1 Z M 14.3 12.1 C 14.3 11.9 14.3 11.8 14.4 11.6 C 14.6 11.5 14.7 11.4 14.9 11.4 C 15.2 11.4 15.3 11.5 15.4 11.6 C 15.6 11.8 15.6 11.9 15.6 12.1 C 15.6 12.3 15.6 12.4 15.4 12.5 C 15.3 12.7 15.2 12.7 14.9 12.7 C 14.7 12.7 14.6 12.7 14.4 12.5 C 14.3 12.4 14.3 12.3 14.3 12.1 Z M 22.7 10.4 C 22.7 10.9 22.6 11.3 22.3 11.7 C 22.1 12 21.8 12.3 21.3 12.5 C 20.9 12.7 20.5 12.8 20 12.8 C 19.5 12.8 19 12.7 18.6 12.5 C 18.2 12.3 17.8 12 17.6 11.7 C 17.4 11.3 17.3 10.9 17.3 10.4 C 17.3 10 17.3 9.7 17.4 9.4 C 17.6 9.1 17.8 8.9 18 8.7 C 18.2 8.5 18.5 8.3 18.9 8.2 C 19.2 8.1 19.6 8 20 8 C 20.5 8 20.9 8.1 21.4 8.3 C 21.8 8.5 22.1 8.8 22.3 9.1 C 22.6 9.5 22.7 9.9 22.7 10.4 Z M 21.6 10.3 C 21.6 10 21.5 9.7 21.4 9.5 C 21.2 9.2 21.1 9.1 20.8 8.9 C 20.6 8.8 20.3 8.7 20 8.7 C 19.6 8.7 19.3 8.8 19.1 8.9 C 18.9 9.1 18.7 9.2 18.5 9.5 C 18.4 9.7 18.3 10 18.3 10.3 C 18.3 10.7 18.4 10.9 18.5 11.2 C 18.7 11.4 18.8 11.6 19.1 11.7 C 19.3 11.8 19.6 11.9 20 11.9 C 20.3 11.9 20.6 11.8 20.8 11.7 C 21.1 11.6 21.3 11.4 21.4 11.2 C 21.5 10.9 21.6 10.7 21.6 10.3 Z M 22.5 6.4 C 22.5 6.8 22.4 7.1 22.1 7.5 C 21.9 7.8 21.6 8.1 21.3 8.3 C 20.9 8.5 20.4 8.5 20 8.5 C 19.5 8.5 19 8.5 18.7 8.3 C 18.3 8.1 18 7.8 17.8 7.5 C 17.6 7.1 17.4 6.8 17.4 6.4 C 17.4 5.9 17.6 5.4 17.8 5.1 C 18 4.7 18.3 4.5 18.7 4.3 C 19 4.1 19.5 4 20 4 C 20.4 4 20.9 4.1 21.3 4.3 C 21.6 4.5 21.9 4.7 22.2 5.1 C 22.4 5.4 22.5 5.9 22.5 6.4 Z M 21.4 6.4 C 21.4 6.1 21.3 5.8 21.2 5.6 C 21.1 5.4 20.9 5.2 20.7 5.1 C 20.5 5 20.2 4.9 20 4.9 C 19.7 4.9 19.4 5 19.2 5.1 C 19 5.2 18.8 5.4 18.7 5.6 C 18.6 5.8 18.5 6.1 18.5 6.4 C 18.5 6.7 18.6 6.9 18.7 7.1 C 18.8 7.4 19 7.5 19.2 7.6 C 19.4 7.8 19.7 7.8 20 7.8 C 20.2 7.8 20.5 7.8 20.7 7.6 C 20.9 7.5 21.1 7.4 21.2 7.1 C 21.3 6.9 21.4 6.7 21.4 6.4 Z M 28.2 4.1 C 28.2 4.12 28.3 4.1 28.3 4.1 L 28.3 5 C 28.3 5 28.2 5.04 28.2 5 C 27.6 5 27.1 5.1 26.8 5.3 C 26.4 5.5 26.1 5.8 25.8 6.1 C 25.6 6.4 25.5 6.7 25.4 7.1 C 25.3 7.5 25.2 7.9 25.2 8.3 C 25.2 8.3 25.2 9.5 25.2 9.5 C 25.2 9.9 25.2 10.3 25.3 10.5 C 25.4 10.8 25.5 11.1 25.7 11.3 C 25.9 11.5 26 11.6 26.2 11.7 C 26.4 11.8 26.6 11.9 26.9 11.9 C 27.1 11.9 27.3 11.8 27.5 11.7 C 27.7 11.6 27.9 11.5 28 11.3 C 28.2 11.2 28.3 11 28.3 10.7 C 28.4 10.5 28.4 10.2 28.4 9.9 C 28.4 9.7 28.4 9.4 28.3 9.2 C 28.3 9 28.2 8.8 28 8.6 C 27.9 8.4 27.8 8.2 27.6 8.1 C 27.4 8 27.1 8 26.9 8 C 26.6 8 26.3 8 26 8.2 C 25.8 8.3 25.6 8.5 25.4 8.8 C 25.2 9 25.1 9.3 25.1 9.5 C 25.1 9.5 24.5 9.5 24.5 9.5 C 24.6 9.1 24.7 8.7 24.8 8.4 C 25 8.1 25.2 7.8 25.4 7.6 C 25.6 7.4 25.9 7.3 26.2 7.2 C 26.4 7.1 26.7 7.1 27.1 7.1 C 27.5 7.1 27.8 7.1 28.2 7.3 C 28.5 7.5 28.7 7.7 28.9 8 C 29.1 8.2 29.3 8.5 29.4 8.9 C 29.5 9.2 29.5 9.5 29.5 9.9 C 29.5 10.3 29.4 10.7 29.3 11 C 29.2 11.4 29 11.7 28.8 11.9 C 28.6 12.2 28.3 12.4 28 12.6 C 27.7 12.7 27.3 12.8 26.9 12.8 C 26.4 12.8 26 12.7 25.6 12.5 C 25.3 12.3 25 12.1 24.8 11.7 C 24.6 11.4 24.4 11.1 24.3 10.7 C 24.2 10.3 24.1 9.9 24.1 9.5 C 24.1 9.5 24.1 9 24.1 9 C 24.1 8.4 24.2 7.8 24.3 7.2 C 24.4 6.6 24.6 6.1 24.9 5.7 C 25.2 5.2 25.6 4.8 26.2 4.5 C 26.7 4.3 27.4 4.1 28.2 4.1 Z M 31.9 11.8 C 31.9 11.8 31.97 11.76 32 11.8 C 32.6 11.8 33.1 11.7 33.5 11.5 C 33.9 11.3 34.2 11.1 34.4 10.8 C 34.6 10.5 34.8 10.2 34.8 9.8 C 34.9 9.4 35 9 35 8.6 C 35 8.6 35 7.3 35 7.3 C 35 6.9 34.9 6.6 34.8 6.3 C 34.7 6 34.6 5.7 34.5 5.5 C 34.3 5.3 34.1 5.2 33.9 5.1 C 33.7 5 33.5 4.9 33.3 4.9 C 33.1 4.9 32.8 5 32.6 5.1 C 32.4 5.2 32.3 5.3 32.1 5.5 C 32 5.7 31.9 5.9 31.8 6.1 C 31.8 6.4 31.7 6.6 31.7 6.9 C 31.7 7.2 31.8 7.4 31.8 7.6 C 31.9 7.9 32 8.1 32.1 8.3 C 32.2 8.5 32.4 8.6 32.6 8.7 C 32.8 8.9 33 8.9 33.3 8.9 C 33.5 8.9 33.7 8.9 34 8.8 C 34.2 8.7 34.4 8.5 34.5 8.4 C 34.7 8.2 34.8 8 34.9 7.8 C 35 7.6 35.1 7.4 35.1 7.1 C 35.1 7.1 35.6 7.1 35.6 7.1 C 35.6 7.5 35.5 7.8 35.4 8.1 C 35.3 8.4 35.1 8.7 34.9 9 C 34.7 9.2 34.4 9.4 34.1 9.6 C 33.8 9.7 33.5 9.8 33.1 9.8 C 32.7 9.8 32.3 9.7 32 9.6 C 31.7 9.4 31.4 9.2 31.2 8.9 C 31 8.6 30.9 8.3 30.8 8 C 30.7 7.7 30.7 7.3 30.7 7 C 30.7 6.6 30.7 6.2 30.8 5.8 C 30.9 5.5 31.1 5.2 31.3 4.9 C 31.6 4.6 31.8 4.4 32.2 4.2 C 32.5 4.1 32.9 4 33.3 4 C 33.8 4 34.2 4.1 34.6 4.3 C 34.9 4.5 35.2 4.8 35.4 5.1 C 35.6 5.4 35.8 5.8 35.9 6.2 C 36 6.6 36 7 36 7.5 C 36 7.5 36 7.9 36 7.9 C 36 8.3 36 8.8 35.9 9.2 C 35.9 9.7 35.8 10.1 35.6 10.5 C 35.5 10.9 35.2 11.3 34.9 11.6 C 34.6 11.9 34.2 12.2 33.8 12.4 C 33.3 12.6 32.7 12.7 32 12.7 C 31.97 12.68 31.9 12.7 31.9 12.7 L 31.9 11.8 Z M 38.6 11.4 C 38.6 11.4 38.63 12.25 38.6 12.2 C 38.6 12.6 38.5 13 38.4 13.4 C 38.2 13.8 37.9 14.1 37.6 14.4 C 37.6 14.4 37 13.9 37 13.9 C 37.1 13.8 37.2 13.6 37.3 13.4 C 37.4 13.2 37.5 13.1 37.5 12.9 C 37.5 12.7 37.6 12.5 37.6 12.3 C 37.57 12.27 37.6 11.4 37.6 11.4 L 38.6 11.4 Z M 41 11.8 C 41 11.8 41.08 11.76 41.1 11.8 C 41.7 11.8 42.2 11.7 42.6 11.5 C 43 11.3 43.3 11.1 43.5 10.8 C 43.7 10.5 43.9 10.2 43.9 9.8 C 44 9.4 44.1 9 44.1 8.6 C 44.1 8.6 44.1 7.3 44.1 7.3 C 44.1 6.9 44 6.6 43.9 6.3 C 43.8 6 43.7 5.7 43.6 5.5 C 43.4 5.3 43.2 5.2 43 5.1 C 42.8 5 42.6 4.9 42.4 4.9 C 42.2 4.9 41.9 5 41.7 5.1 C 41.5 5.2 41.4 5.3 41.2 5.5 C 41.1 5.7 41 5.9 40.9 6.1 C 40.9 6.4 40.8 6.6 40.8 6.9 C 40.8 7.2 40.9 7.4 40.9 7.6 C 41 7.9 41.1 8.1 41.2 8.3 C 41.3 8.5 41.5 8.6 41.7 8.7 C 41.9 8.9 42.1 8.9 42.4 8.9 C 42.6 8.9 42.9 8.9 43.1 8.8 C 43.3 8.7 43.5 8.5 43.6 8.4 C 43.8 8.2 43.9 8 44 7.8 C 44.1 7.6 44.2 7.4 44.2 7.1 C 44.2 7.1 44.7 7.1 44.7 7.1 C 44.7 7.5 44.7 7.8 44.5 8.1 C 44.4 8.4 44.2 8.7 44 9 C 43.8 9.2 43.5 9.4 43.2 9.6 C 42.9 9.7 42.6 9.8 42.2 9.8 C 41.8 9.8 41.4 9.7 41.1 9.6 C 40.8 9.4 40.5 9.2 40.4 8.9 C 40.2 8.6 40 8.3 39.9 8 C 39.8 7.7 39.8 7.3 39.8 7 C 39.8 6.6 39.8 6.2 39.9 5.8 C 40.1 5.5 40.2 5.2 40.4 4.9 C 40.7 4.6 40.9 4.4 41.3 4.2 C 41.6 4.1 42 4 42.4 4 C 42.9 4 43.3 4.1 43.7 4.3 C 44 4.5 44.3 4.8 44.5 5.1 C 44.7 5.4 44.9 5.8 45 6.2 C 45.1 6.6 45.1 7 45.1 7.5 C 45.1 7.5 45.1 7.9 45.1 7.9 C 45.1 8.3 45.1 8.8 45 9.2 C 45 9.7 44.9 10.1 44.7 10.5 C 44.6 10.9 44.3 11.3 44 11.6 C 43.7 11.9 43.3 12.2 42.9 12.4 C 42.4 12.6 41.8 12.7 41.1 12.7 C 41.08 12.68 41 12.7 41 12.7 L 41 11.8 Z M 48 8.6 C 48.01 8.6 47.1 8.4 47.1 8.4 L 47.6 4.1 L 51.9 4.1 L 51.9 5.1 L 48.5 5.1 C 48.5 5.1 48.23 7.46 48.2 7.5 C 48.4 7.4 48.6 7.3 48.8 7.2 C 49.1 7.1 49.3 7.1 49.7 7.1 C 50 7.1 50.4 7.2 50.7 7.3 C 51 7.4 51.3 7.6 51.5 7.9 C 51.7 8.1 51.9 8.4 52 8.8 C 52.1 9.1 52.2 9.5 52.2 9.9 C 52.2 10.4 52.1 10.7 52 11.1 C 51.9 11.4 51.8 11.7 51.5 12 C 51.3 12.2 51 12.4 50.7 12.6 C 50.3 12.7 50 12.8 49.5 12.8 C 49.2 12.8 48.8 12.7 48.5 12.6 C 48.2 12.5 47.9 12.4 47.7 12.2 C 47.5 12 47.3 11.8 47.1 11.5 C 47 11.2 46.9 10.8 46.8 10.4 C 46.8 10.4 47.9 10.4 47.9 10.4 C 47.9 10.7 48 11 48.1 11.2 C 48.3 11.4 48.5 11.6 48.7 11.7 C 48.9 11.8 49.2 11.9 49.5 11.9 C 49.8 11.9 50 11.8 50.2 11.8 C 50.4 11.7 50.5 11.5 50.7 11.4 C 50.8 11.2 50.9 11 51 10.8 C 51.1 10.5 51.1 10.3 51.1 10 C 51.1 9.7 51.1 9.4 51 9.2 C 50.9 9 50.8 8.8 50.7 8.6 C 50.5 8.4 50.3 8.3 50.1 8.2 C 49.9 8.1 49.7 8.1 49.4 8.1 C 49 8.1 48.8 8.1 48.6 8.2 C 48.4 8.3 48.2 8.4 48 8.6 Z " stroke="none" fill="#000"/>  </g></svg>