<?xml version="1.0" standalone="no"?><!DOCTYPE svg PUBLIC "-//W3C//DTD SVG 1.1//EN" "http://www.w3.org/Graphics/SVG/1.1/DTD/svg11.dtd"><svg xmlns="http://www.w3.org/2000/svg" version="1.1" width="61px" height="19.6px" viewBox="0 -1 61 19.6" style="top:-1px">  <desc>F YAT SORUN</desc>  <defs/>  <g id="Polygon91490">    <path d="M 5.7 10.8 L 5.7 5.9 L 9.3 5.9 L 9.3 6.7 L 6.5 6.7 L 6.5 8 L 9 8 L 9 8.8 L 6.5 8.8 L 6.5 10.8 L 5.7 10.8 Z M 10.3 10.8 L 10.3 5.9 L 11.2 5.9 L 11.2 10.8 L 10.3 10.8 Z M 10.3 5.5 L 10.3 4.7 L 11.2 4.7 L 11.2 5.5 L 10.3 5.5 Z M 14 10.8 L 14 8.9 L 12 5.9 L 13 5.9 L 14.4 8.1 L 15.8 5.9 L 16.8 5.9 L 14.8 8.9 L 14.8 10.8 L 14 10.8 Z M 17.1 10.8 L 19.3 5.9 L 20.1 5.9 L 22.2 10.8 L 21.3 10.8 L 20.8 9.6 L 18.5 9.6 L 18 10.8 L 17.1 10.8 Z M 18.8 8.9 L 20.5 8.9 L 19.7 6.9 L 18.8 8.9 Z M 24.3 10.8 L 24.3 6.7 L 22.7 6.7 L 22.7 5.9 L 26.7 5.9 L 26.7 6.7 L 25.1 6.7 L 25.1 10.8 L 24.3 10.8 Z M 31.4 10.9 C 30.6 10.9 30 10.6 29.4 10.1 C 29.4 10.1 29.9 9.5 29.9 9.5 C 30.4 9.9 30.9 10.1 31.4 10.1 C 31.7 10.1 31.9 10.1 32.1 9.9 C 32.2 9.8 32.3 9.7 32.3 9.5 C 32.3 9.5 32.3 9.5 32.3 9.5 C 32.3 9.3 32.2 9.2 32.1 9 C 31.9 8.9 31.6 8.8 31.2 8.7 C 30.6 8.6 30.2 8.4 30 8.2 C 29.7 8 29.6 7.7 29.6 7.3 C 29.6 7.3 29.6 7.3 29.6 7.3 C 29.6 6.8 29.7 6.5 30 6.2 C 30.4 6 30.8 5.8 31.2 5.8 C 31.9 5.8 32.5 6 33 6.4 C 33 6.4 32.6 7.1 32.6 7.1 C 32.1 6.8 31.7 6.6 31.2 6.6 C 31 6.6 30.8 6.6 30.6 6.8 C 30.5 6.9 30.4 7 30.4 7.2 C 30.4 7.2 30.4 7.2 30.4 7.2 C 30.4 7.4 30.5 7.5 30.7 7.6 C 30.8 7.7 31.1 7.8 31.6 8 C 32.2 8.1 32.6 8.3 32.8 8.5 C 33.1 8.7 33.2 9 33.2 9.4 C 33.2 9.4 33.2 9.4 33.2 9.4 C 33.2 9.9 33 10.2 32.7 10.5 C 32.4 10.7 31.9 10.9 31.4 10.9 Z M 36.5 10.9 C 35.8 10.9 35.2 10.6 34.7 10.2 C 34.2 9.7 34 9.1 34 8.4 C 34 8.4 34 8.4 34 8.4 C 34 7.7 34.2 7.1 34.7 6.6 C 35.2 6.1 35.8 5.8 36.6 5.8 C 37.3 5.8 37.9 6.1 38.4 6.6 C 38.9 7 39.1 7.6 39.1 8.3 C 39.1 8.3 39.1 8.4 39.1 8.4 C 39.1 9.1 38.9 9.7 38.4 10.2 C 37.9 10.6 37.3 10.9 36.5 10.9 Z M 34.9 8.4 C 34.9 8.8 35 9.3 35.4 9.6 C 35.7 9.9 36.1 10.1 36.6 10.1 C 37 10.1 37.4 9.9 37.7 9.6 C 38.1 9.3 38.2 8.9 38.2 8.4 C 38.2 8.4 38.2 8.4 38.2 8.4 C 38.2 7.9 38.1 7.5 37.7 7.1 C 37.4 6.8 37 6.6 36.5 6.6 C 36.1 6.6 35.7 6.8 35.4 7.1 C 35 7.4 34.9 7.9 34.9 8.3 C 34.88 8.34 34.9 8.4 34.9 8.4 C 34.9 8.4 34.88 8.35 34.9 8.4 Z M 40.2 10.8 L 40.2 5.9 C 40.2 5.9 42.35 5.9 42.3 5.9 C 43 5.9 43.4 6.1 43.8 6.4 C 44 6.7 44.2 7 44.2 7.4 C 44.2 7.4 44.2 7.5 44.2 7.5 C 44.2 7.9 44.1 8.2 43.9 8.4 C 43.6 8.7 43.4 8.8 43 9 C 43.01 8.95 44.3 10.8 44.3 10.8 L 43.3 10.8 L 42.1 9.1 L 41 9.1 L 41 10.8 L 40.2 10.8 Z M 41 8.3 C 41 8.3 42.28 8.33 42.3 8.3 C 42.6 8.3 42.8 8.3 43 8.1 C 43.2 8 43.3 7.8 43.3 7.5 C 43.3 7.5 43.3 7.5 43.3 7.5 C 43.3 7.2 43.2 7 43 6.9 C 42.9 6.8 42.6 6.7 42.3 6.7 C 42.28 6.69 41 6.7 41 6.7 L 41 8.3 Z M 47.2 10.9 C 46.6 10.9 46.1 10.7 45.7 10.3 C 45.3 10 45.2 9.4 45.2 8.7 C 45.15 8.73 45.2 5.9 45.2 5.9 L 46 5.9 C 46 5.9 46.02 8.69 46 8.7 C 46 9.1 46.1 9.5 46.3 9.7 C 46.6 10 46.9 10.1 47.3 10.1 C 47.6 10.1 47.9 10 48.2 9.7 C 48.4 9.5 48.5 9.2 48.5 8.7 C 48.49 8.73 48.5 5.9 48.5 5.9 L 49.4 5.9 C 49.4 5.9 49.36 8.68 49.4 8.7 C 49.4 9.4 49.2 9.9 48.8 10.3 C 48.4 10.7 47.9 10.9 47.2 10.9 Z M 50.5 10.8 L 50.5 5.9 L 51.3 5.9 L 54 9.3 L 54 5.9 L 54.8 5.9 L 54.8 10.8 L 54.1 10.8 L 51.4 7.3 L 51.4 10.8 L 50.5 10.8 Z " stroke="none" fill="#fff"/>  </g></svg>