<?xml version="1.0" standalone="no"?><!DOCTYPE svg PUBLIC "-//W3C//DTD SVG 1.1//EN" "http://www.w3.org/Graphics/SVG/1.1/DTD/svg11.dtd"><svg xmlns="http://www.w3.org/2000/svg" version="1.1" width="55px" height="17.6px" viewBox="0 -1 55 17.6" style="top:-1px">  <desc>F YAT SORUN</desc>  <defs/>  <g id="Polygon52036">    <path d="M 5.1 9.7 L 5.1 5.3 L 8.4 5.3 L 8.4 6 L 5.9 6 L 5.9 7.2 L 8.1 7.2 L 8.1 7.9 L 5.9 7.9 L 5.9 9.7 L 5.1 9.7 Z M 9.3 9.7 L 9.3 5.3 L 10.1 5.3 L 10.1 9.7 L 9.3 9.7 Z M 9.3 4.9 L 9.3 4.2 L 10.1 4.2 L 10.1 4.9 L 9.3 4.9 Z M 12.6 9.7 L 12.6 8 L 10.8 5.3 L 11.7 5.3 L 13 7.3 L 14.2 5.3 L 15.1 5.3 L 13.4 8 L 13.4 9.7 L 12.6 9.7 Z M 15.4 9.7 L 17.4 5.3 L 18.1 5.3 L 20 9.7 L 19.2 9.7 L 18.8 8.7 L 16.7 8.7 L 16.2 9.7 L 15.4 9.7 Z M 17 8 L 18.5 8 L 17.7 6.2 L 17 8 Z M 21.9 9.7 L 21.9 6 L 20.5 6 L 20.5 5.3 L 24.1 5.3 L 24.1 6 L 22.6 6 L 22.6 9.7 L 21.9 9.7 Z M 28.3 9.8 C 27.6 9.8 27 9.6 26.5 9.1 C 26.5 9.1 26.9 8.5 26.9 8.5 C 27.4 8.9 27.8 9.1 28.3 9.1 C 28.6 9.1 28.8 9.1 28.9 9 C 29 8.9 29.1 8.7 29.1 8.6 C 29.1 8.6 29.1 8.5 29.1 8.5 C 29.1 8.4 29 8.2 28.9 8.1 C 28.8 8.1 28.5 8 28.1 7.9 C 27.6 7.8 27.2 7.6 27 7.4 C 26.8 7.2 26.6 6.9 26.6 6.5 C 26.6 6.5 26.6 6.5 26.6 6.5 C 26.6 6.2 26.8 5.8 27.1 5.6 C 27.3 5.4 27.7 5.3 28.2 5.3 C 28.8 5.3 29.3 5.4 29.8 5.8 C 29.8 5.8 29.3 6.4 29.3 6.4 C 28.9 6.1 28.5 5.9 28.1 5.9 C 27.9 5.9 27.7 6 27.6 6.1 C 27.5 6.2 27.4 6.3 27.4 6.5 C 27.4 6.5 27.4 6.5 27.4 6.5 C 27.4 6.7 27.5 6.8 27.6 6.9 C 27.8 7 28.1 7.1 28.5 7.2 C 29 7.3 29.3 7.5 29.6 7.6 C 29.8 7.8 29.9 8.1 29.9 8.5 C 29.9 8.5 29.9 8.5 29.9 8.5 C 29.9 8.9 29.7 9.2 29.5 9.4 C 29.2 9.7 28.8 9.8 28.3 9.8 Z M 32.9 9.8 C 32.2 9.8 31.7 9.6 31.3 9.2 C 30.8 8.7 30.6 8.2 30.6 7.5 C 30.6 7.5 30.6 7.5 30.6 7.5 C 30.6 6.9 30.8 6.4 31.3 5.9 C 31.7 5.5 32.3 5.2 32.9 5.2 C 33.6 5.2 34.2 5.5 34.6 5.9 C 35 6.3 35.2 6.9 35.2 7.5 C 35.2 7.5 35.2 7.5 35.2 7.5 C 35.2 8.2 35 8.7 34.6 9.1 C 34.1 9.6 33.6 9.8 32.9 9.8 Z M 31.4 7.5 C 31.4 8 31.6 8.3 31.9 8.6 C 32.1 8.9 32.5 9.1 32.9 9.1 C 33.4 9.1 33.7 8.9 34 8.6 C 34.3 8.3 34.4 8 34.4 7.5 C 34.4 7.5 34.4 7.5 34.4 7.5 C 34.4 7.1 34.3 6.7 34 6.4 C 33.7 6.1 33.4 6 32.9 6 C 32.5 6 32.1 6.1 31.8 6.4 C 31.6 6.7 31.4 7.1 31.4 7.5 C 31.43 7.51 31.4 7.5 31.4 7.5 C 31.4 7.5 31.43 7.53 31.4 7.5 Z M 36.2 9.7 L 36.2 5.3 C 36.2 5.3 38.15 5.31 38.2 5.3 C 38.7 5.3 39.1 5.5 39.4 5.8 C 39.7 6 39.8 6.3 39.8 6.7 C 39.8 6.7 39.8 6.7 39.8 6.7 C 39.8 7.1 39.7 7.4 39.5 7.6 C 39.3 7.8 39.1 8 38.7 8.1 C 38.74 8.06 39.9 9.7 39.9 9.7 L 39 9.7 L 37.9 8.2 L 37 8.2 L 37 9.7 L 36.2 9.7 Z M 37 7.5 C 37 7.5 38.09 7.51 38.1 7.5 C 38.4 7.5 38.6 7.4 38.8 7.3 C 38.9 7.2 39 7 39 6.8 C 39 6.8 39 6.8 39 6.8 C 39 6.5 38.9 6.3 38.8 6.2 C 38.6 6.1 38.4 6 38.1 6 C 38.09 6.02 37 6 37 6 L 37 7.5 Z M 42.6 9.8 C 42 9.8 41.5 9.6 41.2 9.3 C 40.8 9 40.7 8.5 40.7 7.9 C 40.68 7.86 40.7 5.3 40.7 5.3 L 41.5 5.3 C 41.5 5.3 41.46 7.83 41.5 7.8 C 41.5 8.2 41.6 8.6 41.7 8.8 C 41.9 9 42.2 9.1 42.6 9.1 C 42.9 9.1 43.2 9 43.4 8.8 C 43.6 8.6 43.7 8.3 43.7 7.9 C 43.69 7.86 43.7 5.3 43.7 5.3 L 44.5 5.3 C 44.5 5.3 44.46 7.82 44.5 7.8 C 44.5 8.5 44.3 9 44 9.3 C 43.6 9.6 43.2 9.8 42.6 9.8 Z M 45.5 9.7 L 45.5 5.3 L 46.3 5.3 L 48.6 8.4 L 48.6 5.3 L 49.4 5.3 L 49.4 9.7 L 48.7 9.7 L 46.3 6.6 L 46.3 9.7 L 45.5 9.7 Z " stroke="none" fill="#fff"/>  </g></svg>