<?xml version="1.0" standalone="no"?><!DOCTYPE svg PUBLIC "-//W3C//DTD SVG 1.1//EN" "http://www.w3.org/Graphics/SVG/1.1/DTD/svg11.dtd"><svg xmlns="http://www.w3.org/2000/svg" version="1.1" width="16.2px" height="12.4px" viewBox="0 -1 16.2 12.4" style="top:-1px">  <desc> </desc>  <defs/>  <g id="Polygon85245">    <path d="M 7.4 7.5 L 7.4 3.1 L 6.5 3.4 L 6.3 3 L 7.5 2.5 L 7.9 2.5 L 7.9 7.5 L 7.4 7.5 Z M 13.2 5 C 13.2 5.7 13 6.3 12.6 6.8 C 12.3 7.3 11.8 7.6 11.1 7.6 C 10.5 7.6 10 7.3 9.7 6.8 C 9.3 6.3 9.1 5.7 9.1 5 C 9.1 5 9.1 5 9.1 5 C 9.1 4.3 9.3 3.7 9.7 3.2 C 10 2.7 10.5 2.5 11.2 2.5 C 11.8 2.5 12.3 2.7 12.7 3.2 C 13 3.7 13.2 4.3 13.2 5 C 13.22 5.01 13.2 5 13.2 5 C 13.2 5 13.22 5.03 13.2 5 Z M 9.7 5 C 9.7 5.6 9.8 6.1 10.1 6.5 C 10.3 6.9 10.7 7.1 11.2 7.1 C 11.6 7.1 12 6.9 12.2 6.5 C 12.5 6.1 12.6 5.6 12.6 5 C 12.6 5 12.6 5 12.6 5 C 12.6 4.5 12.5 4 12.2 3.6 C 11.9 3.2 11.6 3 11.1 3 C 10.7 3 10.3 3.2 10.1 3.6 C 9.8 4 9.7 4.5 9.7 5 C 9.65 5.01 9.7 5 9.7 5 C 9.7 5 9.65 5.03 9.7 5 Z M 14.9 7.5 L 14.9 3.1 L 14 3.4 L 13.8 3 L 15 2.5 L 15.5 2.5 L 15.5 7.5 L 14.9 7.5 Z " stroke="none" fill="#000"/>  </g></svg>