<?xml version="1.0" standalone="no"?><!DOCTYPE svg PUBLIC "-//W3C//DTD SVG 1.1//EN" "http://www.w3.org/Graphics/SVG/1.1/DTD/svg11.dtd"><svg xmlns="http://www.w3.org/2000/svg" version="1.1" width="67px" height="38.4px" viewBox="0 -3 67 38.4" style="top:-3px">  <desc>BATH MAT 50 x 80 cm BANYO PASPASI</desc>  <defs/>  <g id="Polygon85829">    <path d="M 3.4 23 L 3.4 18.1 C 3.4 18.1 5.71 18.1 5.7 18.1 C 6.3 18.1 6.7 18.2 7 18.5 C 7.2 18.8 7.3 19 7.3 19.4 C 7.3 19.4 7.3 19.4 7.3 19.4 C 7.3 19.9 7.1 20.2 6.7 20.4 C 7 20.6 7.2 20.7 7.4 20.9 C 7.5 21.1 7.6 21.3 7.6 21.6 C 7.6 21.6 7.6 21.7 7.6 21.7 C 7.6 22.1 7.4 22.4 7.1 22.7 C 6.8 22.9 6.3 23 5.8 23 C 5.76 23 3.4 23 3.4 23 Z M 5.5 20.1 C 6 20.1 6.3 19.9 6.3 19.6 C 6.3 19.6 6.3 19.5 6.3 19.5 C 6.3 19.2 6 19 5.5 19 C 5.55 19.04 4.5 19 4.5 19 L 4.5 20.1 L 5.5 20.1 C 5.5 20.1 5.48 20.08 5.5 20.1 Z M 5.8 22.1 C 6.3 22.1 6.5 21.9 6.5 21.5 C 6.5 21.5 6.5 21.5 6.5 21.5 C 6.5 21.2 6.3 21 5.7 21 C 5.73 20.98 4.5 21 4.5 21 L 4.5 22.1 L 5.8 22.1 C 5.8 22.1 5.76 22.05 5.8 22.1 Z M 8.1 23 L 10.2 18.1 L 11.2 18.1 L 13.3 23 L 12.1 23 L 11.7 21.9 L 9.6 21.9 L 9.2 23 L 8.1 23 Z M 10 20.9 L 11.3 20.9 L 10.7 19.4 L 10 20.9 Z M 14 23 L 14 18.1 L 15 18.1 L 17.3 21.1 L 17.3 18.1 L 18.4 18.1 L 18.4 23 L 17.5 23 L 15.1 19.9 L 15.1 23 L 14 23 Z M 20.9 23 L 20.9 21.1 L 19 18.1 L 20.3 18.1 L 21.5 20.1 L 22.7 18.1 L 23.9 18.1 L 22 21 L 22 23 L 20.9 23 Z M 29.6 20.5 C 29.6 21.3 29.3 21.9 28.8 22.3 C 28.3 22.8 27.7 23.1 26.9 23.1 C 26.2 23.1 25.6 22.8 25.1 22.4 C 24.6 21.9 24.3 21.3 24.3 20.6 C 24.3 20.6 24.3 20.5 24.3 20.5 C 24.3 19.8 24.6 19.2 25.1 18.8 C 25.6 18.3 26.2 18 27 18 C 27.7 18 28.3 18.3 28.8 18.7 C 29.3 19.2 29.6 19.8 29.6 20.5 C 29.55 20.54 29.6 20.5 29.6 20.5 C 29.6 20.5 29.55 20.55 29.6 20.5 Z M 25.5 20.5 C 25.5 21 25.6 21.3 25.9 21.6 C 26.2 21.9 26.5 22.1 27 22.1 C 27.4 22.1 27.7 21.9 28 21.6 C 28.3 21.4 28.4 21 28.4 20.6 C 28.4 20.6 28.4 20.5 28.4 20.5 C 28.4 20.1 28.3 19.8 28 19.5 C 27.7 19.2 27.4 19 26.9 19 C 26.5 19 26.2 19.2 25.9 19.5 C 25.6 19.7 25.5 20.1 25.5 20.5 C 25.47 20.54 25.5 20.5 25.5 20.5 C 25.5 20.5 25.47 20.55 25.5 20.5 Z M 32.6 23 L 32.6 18.1 C 32.6 18.1 34.61 18.1 34.6 18.1 C 35.2 18.1 35.6 18.3 36 18.6 C 36.3 18.9 36.5 19.3 36.5 19.8 C 36.5 19.8 36.5 19.8 36.5 19.8 C 36.5 20.4 36.3 20.8 35.9 21.1 C 35.6 21.4 35.1 21.5 34.5 21.5 C 34.51 21.53 33.7 21.5 33.7 21.5 L 33.7 23 L 32.6 23 Z M 33.7 20.6 C 33.7 20.6 34.54 20.57 34.5 20.6 C 34.8 20.6 35 20.5 35.2 20.4 C 35.3 20.2 35.4 20 35.4 19.8 C 35.4 19.8 35.4 19.8 35.4 19.8 C 35.4 19.6 35.3 19.4 35.2 19.3 C 35 19.1 34.8 19.1 34.5 19.1 C 34.52 19.07 33.7 19.1 33.7 19.1 L 33.7 20.6 Z M 36.9 23 L 39 18.1 L 40 18.1 L 42.1 23 L 40.9 23 L 40.5 21.9 L 38.4 21.9 L 38 23 L 36.9 23 Z M 38.8 20.9 L 40.1 20.9 L 39.4 19.4 L 38.8 20.9 Z M 44.6 23.1 C 43.8 23.1 43.1 22.8 42.5 22.3 C 42.5 22.3 43.1 21.5 43.1 21.5 C 43.6 21.9 44.1 22.1 44.6 22.1 C 44.8 22.1 45 22.1 45.1 22 C 45.2 21.9 45.3 21.8 45.3 21.7 C 45.3 21.7 45.3 21.6 45.3 21.6 C 45.3 21.5 45.2 21.4 45.1 21.3 C 45 21.2 44.7 21.1 44.3 21 C 44 20.9 43.8 20.9 43.6 20.8 C 43.4 20.7 43.3 20.7 43.1 20.5 C 43 20.4 42.9 20.3 42.8 20.1 C 42.7 20 42.7 19.8 42.7 19.5 C 42.7 19.5 42.7 19.5 42.7 19.5 C 42.7 19.1 42.8 18.7 43.2 18.4 C 43.5 18.2 43.9 18 44.4 18 C 45.1 18 45.7 18.2 46.2 18.7 C 46.2 18.7 45.7 19.5 45.7 19.5 C 45.2 19.1 44.8 19 44.4 19 C 44.2 19 44 19 43.9 19.1 C 43.8 19.2 43.7 19.3 43.7 19.4 C 43.7 19.4 43.7 19.4 43.7 19.4 C 43.7 19.6 43.8 19.7 43.9 19.8 C 44.1 19.9 44.4 20 44.8 20.1 C 45.3 20.2 45.7 20.4 46 20.6 C 46.2 20.8 46.4 21.1 46.4 21.5 C 46.4 21.5 46.4 21.6 46.4 21.6 C 46.4 22 46.2 22.4 45.9 22.7 C 45.5 22.9 45.1 23.1 44.6 23.1 Z M 47.3 23 L 47.3 18.1 C 47.3 18.1 49.3 18.1 49.3 18.1 C 49.9 18.1 50.3 18.3 50.7 18.6 C 51 18.9 51.2 19.3 51.2 19.8 C 51.2 19.8 51.2 19.8 51.2 19.8 C 51.2 20.4 51 20.8 50.6 21.1 C 50.2 21.4 49.8 21.5 49.2 21.5 C 49.19 21.53 48.4 21.5 48.4 21.5 L 48.4 23 L 47.3 23 Z M 48.4 20.6 C 48.4 20.6 49.23 20.57 49.2 20.6 C 49.5 20.6 49.7 20.5 49.9 20.4 C 50 20.2 50.1 20 50.1 19.8 C 50.1 19.8 50.1 19.8 50.1 19.8 C 50.1 19.6 50 19.4 49.9 19.3 C 49.7 19.1 49.5 19.1 49.2 19.1 C 49.21 19.07 48.4 19.1 48.4 19.1 L 48.4 20.6 Z M 51.6 23 L 53.7 18.1 L 54.6 18.1 L 56.7 23 L 55.6 23 L 55.2 21.9 L 53.1 21.9 L 52.7 23 L 51.6 23 Z M 53.5 20.9 L 54.8 20.9 L 54.1 19.4 L 53.5 20.9 Z M 59.2 23.1 C 58.4 23.1 57.7 22.8 57.2 22.3 C 57.2 22.3 57.8 21.5 57.8 21.5 C 58.3 21.9 58.8 22.1 59.3 22.1 C 59.5 22.1 59.7 22.1 59.8 22 C 59.9 21.9 60 21.8 60 21.7 C 60 21.7 60 21.6 60 21.6 C 60 21.5 59.9 21.4 59.8 21.3 C 59.6 21.2 59.4 21.1 59 21 C 58.7 20.9 58.5 20.9 58.3 20.8 C 58.1 20.7 58 20.7 57.8 20.5 C 57.7 20.4 57.5 20.3 57.5 20.1 C 57.4 20 57.4 19.8 57.4 19.5 C 57.4 19.5 57.4 19.5 57.4 19.5 C 57.4 19.1 57.5 18.7 57.8 18.4 C 58.2 18.2 58.6 18 59.1 18 C 59.8 18 60.4 18.2 60.9 18.7 C 60.9 18.7 60.3 19.5 60.3 19.5 C 59.9 19.1 59.4 19 59.1 19 C 58.9 19 58.7 19 58.6 19.1 C 58.5 19.2 58.4 19.3 58.4 19.4 C 58.4 19.4 58.4 19.4 58.4 19.4 C 58.4 19.6 58.5 19.7 58.6 19.8 C 58.8 19.9 59.1 20 59.5 20.1 C 60 20.2 60.4 20.4 60.7 20.6 C 60.9 20.8 61 21.1 61 21.5 C 61 21.5 61 21.6 61 21.6 C 61 22 60.9 22.4 60.5 22.7 C 60.2 22.9 59.8 23.1 59.2 23.1 Z M 62 23 L 62 18.1 L 63.1 18.1 L 63.1 23 L 62 23 Z " stroke="none" fill="#000"/>  </g>  <g id="Polygon85828">    <path d="M 15.6 14.1 C 14.9 14.1 14.4 13.8 13.8 13.3 C 13.8 13.3 14.2 12.9 14.2 12.9 C 14.7 13.4 15.1 13.6 15.6 13.6 C 15.9 13.6 16.2 13.5 16.4 13.3 C 16.7 13.1 16.8 12.8 16.8 12.5 C 16.8 12.5 16.8 12.5 16.8 12.5 C 16.8 12.2 16.7 11.9 16.4 11.7 C 16.2 11.5 15.9 11.5 15.6 11.5 C 15.2 11.5 14.9 11.5 14.5 11.7 C 14.53 11.73 14.2 11.5 14.2 11.5 L 14.3 9.1 L 17.1 9.1 L 17.1 9.6 L 14.8 9.6 C 14.8 9.6 14.68 11.18 14.7 11.2 C 15 11 15.3 11 15.6 11 C 16.1 11 16.5 11.1 16.9 11.4 C 17.2 11.6 17.3 12 17.3 12.5 C 17.3 12.5 17.3 12.5 17.3 12.5 C 17.3 12.9 17.2 13.3 16.9 13.6 C 16.5 13.9 16.1 14.1 15.6 14.1 Z M 22.3 11.5 C 22.3 12.3 22.1 12.9 21.7 13.3 C 21.4 13.8 20.9 14.1 20.3 14.1 C 19.6 14.1 19.1 13.8 18.8 13.4 C 18.4 12.9 18.2 12.3 18.2 11.6 C 18.2 11.6 18.2 11.5 18.2 11.5 C 18.2 10.8 18.4 10.2 18.8 9.8 C 19.1 9.3 19.6 9 20.3 9 C 20.9 9 21.4 9.3 21.8 9.7 C 22.1 10.2 22.3 10.8 22.3 11.5 C 22.32 11.54 22.3 11.5 22.3 11.5 C 22.3 11.5 22.32 11.55 22.3 11.5 Z M 18.8 11.5 C 18.8 12.1 18.9 12.6 19.2 13 C 19.5 13.4 19.8 13.6 20.3 13.6 C 20.7 13.6 21.1 13.4 21.3 13 C 21.6 12.6 21.7 12.1 21.7 11.6 C 21.7 11.6 21.7 11.5 21.7 11.5 C 21.7 11 21.6 10.5 21.3 10.1 C 21.1 9.7 20.7 9.5 20.3 9.5 C 19.8 9.5 19.4 9.7 19.2 10.1 C 18.9 10.5 18.8 11 18.8 11.5 C 18.76 11.54 18.8 11.5 18.8 11.5 C 18.8 11.5 18.76 11.55 18.8 11.5 Z M 25.8 10.4 L 26.9 11.8 L 27.9 10.4 L 28.5 10.4 L 27.2 12.2 L 28.6 14 L 28 14 L 26.9 12.5 L 25.7 14 L 25.1 14 L 26.5 12.2 L 25.2 10.4 L 25.8 10.4 Z M 35 12.7 C 35 13.1 34.8 13.4 34.5 13.7 C 34.1 13.9 33.7 14.1 33.2 14.1 C 32.7 14.1 32.2 13.9 31.9 13.7 C 31.5 13.4 31.3 13.1 31.3 12.7 C 31.3 12.7 31.3 12.7 31.3 12.7 C 31.3 12.4 31.4 12.1 31.6 11.9 C 31.8 11.7 32 11.6 32.3 11.5 C 31.8 11.2 31.5 10.8 31.5 10.3 C 31.5 10.3 31.5 10.3 31.5 10.3 C 31.5 10 31.7 9.6 32 9.4 C 32.3 9.2 32.7 9 33.2 9 C 33.6 9 34 9.2 34.4 9.4 C 34.7 9.6 34.9 10 34.9 10.3 C 34.9 10.3 34.9 10.3 34.9 10.3 C 34.9 10.8 34.6 11.2 34 11.5 C 34.3 11.6 34.6 11.7 34.7 11.9 C 34.9 12.1 35 12.4 35 12.7 C 35.02 12.66 35 12.7 35 12.7 C 35 12.7 35.02 12.68 35 12.7 Z M 32.1 10.4 C 32.1 10.6 32.2 10.8 32.4 11 C 32.6 11.2 32.9 11.3 33.2 11.3 C 33.5 11.3 33.8 11.2 34 11 C 34.2 10.8 34.3 10.6 34.3 10.4 C 34.3 10.4 34.3 10.4 34.3 10.4 C 34.3 10.1 34.2 9.9 34 9.8 C 33.8 9.6 33.5 9.5 33.2 9.5 C 32.9 9.5 32.6 9.6 32.4 9.8 C 32.2 9.9 32.1 10.1 32.1 10.4 C 32.06 10.36 32.1 10.4 32.1 10.4 C 32.1 10.4 32.06 10.37 32.1 10.4 Z M 31.9 12.7 C 31.9 12.9 32 13.1 32.2 13.3 C 32.5 13.5 32.8 13.6 33.2 13.6 C 33.6 13.6 33.9 13.5 34.1 13.3 C 34.3 13.1 34.5 12.9 34.5 12.7 C 34.5 12.7 34.5 12.7 34.5 12.7 C 34.5 12.4 34.3 12.2 34.1 12 C 33.8 11.8 33.5 11.7 33.2 11.7 C 32.8 11.7 32.5 11.8 32.3 12 C 32 12.2 31.9 12.4 31.9 12.7 C 31.9 12.66 31.9 12.7 31.9 12.7 C 31.9 12.7 31.9 12.67 31.9 12.7 Z M 40 11.5 C 40 12.3 39.8 12.9 39.4 13.3 C 39 13.8 38.5 14.1 37.9 14.1 C 37.3 14.1 36.8 13.8 36.4 13.4 C 36 12.9 35.8 12.3 35.8 11.6 C 35.8 11.6 35.8 11.5 35.8 11.5 C 35.8 10.8 36 10.2 36.4 9.8 C 36.8 9.3 37.3 9 37.9 9 C 38.5 9 39 9.3 39.4 9.7 C 39.8 10.2 40 10.8 40 11.5 C 39.96 11.54 40 11.5 40 11.5 C 40 11.5 39.96 11.55 40 11.5 Z M 36.4 11.5 C 36.4 12.1 36.5 12.6 36.8 13 C 37.1 13.4 37.4 13.6 37.9 13.6 C 38.3 13.6 38.7 13.4 39 13 C 39.2 12.6 39.4 12.1 39.4 11.6 C 39.4 11.6 39.4 11.5 39.4 11.5 C 39.4 11 39.2 10.5 39 10.1 C 38.7 9.7 38.3 9.5 37.9 9.5 C 37.4 9.5 37.1 9.7 36.8 10.1 C 36.5 10.5 36.4 11 36.4 11.5 C 36.39 11.54 36.4 11.5 36.4 11.5 C 36.4 11.5 36.39 11.55 36.4 11.5 Z M 46.2 13.4 C 45.8 13.9 45.3 14.1 44.7 14.1 C 44.2 14.1 43.8 13.9 43.4 13.5 C 43 13.2 42.9 12.7 42.9 12.2 C 42.9 12.2 42.9 12.2 42.9 12.2 C 42.9 11.7 43 11.2 43.4 10.9 C 43.8 10.5 44.2 10.3 44.7 10.3 C 45.3 10.3 45.8 10.5 46.2 10.9 C 46.2 10.9 45.8 11.3 45.8 11.3 C 45.5 11 45.1 10.8 44.7 10.8 C 44.3 10.8 44 10.9 43.8 11.2 C 43.5 11.5 43.4 11.8 43.4 12.2 C 43.4 12.2 43.4 12.2 43.4 12.2 C 43.4 12.6 43.5 12.9 43.8 13.2 C 44.1 13.5 44.4 13.6 44.8 13.6 C 45.2 13.6 45.5 13.4 45.9 13.1 C 45.86 13.06 46.2 13.4 46.2 13.4 C 46.2 13.4 46.2 13.38 46.2 13.4 Z M 47.1 14 L 47.1 10.4 L 47.6 10.4 C 47.6 10.4 47.63 10.99 47.6 11 C 47.8 10.8 47.9 10.6 48.1 10.5 C 48.3 10.4 48.5 10.3 48.8 10.3 C 49.3 10.3 49.7 10.5 50 11 C 50.3 10.5 50.7 10.3 51.2 10.3 C 51.7 10.3 52 10.4 52.2 10.7 C 52.5 11 52.6 11.3 52.6 11.8 C 52.58 11.76 52.6 14 52.6 14 L 52 14 C 52 14 52.04 11.89 52 11.9 C 52 11.5 52 11.3 51.8 11.1 C 51.6 10.9 51.4 10.8 51.1 10.8 C 50.8 10.8 50.6 10.9 50.4 11.1 C 50.2 11.3 50.1 11.6 50.1 11.9 C 50.1 11.91 50.1 14 50.1 14 L 49.6 14 C 49.6 14 49.57 11.87 49.6 11.9 C 49.6 11.5 49.5 11.3 49.3 11.1 C 49.2 10.9 48.9 10.8 48.6 10.8 C 48.3 10.8 48.1 10.9 47.9 11.1 C 47.7 11.3 47.6 11.6 47.6 11.9 C 47.63 11.93 47.6 14 47.6 14 L 47.1 14 Z " stroke="none" fill="#000"/>  </g>  <g id="Polygon85827">    <path d="M 14.5 5.6 L 14.5 0.7 C 14.5 0.7 16.82 0.7 16.8 0.7 C 17.4 0.7 17.8 0.8 18.1 1.1 C 18.3 1.4 18.4 1.6 18.4 2 C 18.4 2 18.4 2 18.4 2 C 18.4 2.5 18.2 2.8 17.8 3 C 18.1 3.2 18.3 3.3 18.5 3.5 C 18.6 3.7 18.7 3.9 18.7 4.2 C 18.7 4.2 18.7 4.3 18.7 4.3 C 18.7 4.7 18.5 5 18.2 5.3 C 17.9 5.5 17.4 5.6 16.9 5.6 C 16.87 5.6 14.5 5.6 14.5 5.6 Z M 16.6 2.7 C 17.1 2.7 17.4 2.5 17.4 2.2 C 17.4 2.2 17.4 2.1 17.4 2.1 C 17.4 1.8 17.1 1.6 16.7 1.6 C 16.66 1.64 15.6 1.6 15.6 1.6 L 15.6 2.7 L 16.6 2.7 C 16.6 2.7 16.59 2.68 16.6 2.7 Z M 16.9 4.7 C 17.4 4.7 17.6 4.5 17.6 4.1 C 17.6 4.1 17.6 4.1 17.6 4.1 C 17.6 3.8 17.4 3.6 16.8 3.6 C 16.84 3.58 15.6 3.6 15.6 3.6 L 15.6 4.7 L 16.9 4.7 C 16.9 4.7 16.87 4.65 16.9 4.7 Z M 19.2 5.6 L 21.3 0.7 L 22.3 0.7 L 24.4 5.6 L 23.2 5.6 L 22.8 4.5 L 20.7 4.5 L 20.3 5.6 L 19.2 5.6 Z M 21.1 3.5 L 22.4 3.5 L 21.8 2 L 21.1 3.5 Z M 26.3 5.6 L 26.3 1.7 L 24.8 1.7 L 24.8 0.7 L 28.8 0.7 L 28.8 1.7 L 27.3 1.7 L 27.3 5.6 L 26.3 5.6 Z M 29.7 5.6 L 29.7 0.7 L 30.7 0.7 L 30.7 2.6 L 32.7 2.6 L 32.7 0.7 L 33.8 0.7 L 33.8 5.6 L 32.7 5.6 L 32.7 3.6 L 30.7 3.6 L 30.7 5.6 L 29.7 5.6 Z M 37.1 5.6 L 37.1 0.7 L 38.2 0.7 L 39.5 2.8 L 40.8 0.7 L 42 0.7 L 42 5.6 L 40.9 5.6 L 40.9 2.4 L 39.5 4.5 L 39.5 4.5 L 38.1 2.4 L 38.1 5.6 L 37.1 5.6 Z M 42.7 5.6 L 44.8 0.7 L 45.8 0.7 L 47.9 5.6 L 46.8 5.6 L 46.4 4.5 L 44.3 4.5 L 43.8 5.6 L 42.7 5.6 Z M 44.7 3.5 L 46 3.5 L 45.3 2 L 44.7 3.5 Z M 49.8 5.6 L 49.8 1.7 L 48.3 1.7 L 48.3 0.7 L 52.4 0.7 L 52.4 1.7 L 50.9 1.7 L 50.9 5.6 L 49.8 5.6 Z " stroke="none" fill="#000"/>  </g></svg>