<?xml version="1.0" standalone="no"?><!DOCTYPE svg PUBLIC "-//W3C//DTD SVG 1.1//EN" "http://www.w3.org/Graphics/SVG/1.1/DTD/svg11.dtd"><svg xmlns="http://www.w3.org/2000/svg" version="1.1" width="136.3px" height="92.4px" viewBox="0 -3 136.3 92.4" style="top:-3px">  <desc>Tencere Altl – Triangles r n Kodu: ZD 32708 Renk: Kar k Renkler Silikon L 16 cm, W 14 cm, H 0,9 cm / 3 par a Ta...</desc>  <defs/>  <g id="Polygon49010">    <path d="M 2 56.6 L 2 52.2 L 0.3 52.2 L 0.3 51.7 L 4.2 51.7 L 4.2 52.2 L 2.5 52.2 L 2.5 56.6 L 2 56.6 Z M 7.5 56.1 C 7.2 56.5 6.7 56.7 6.2 56.7 C 5.8 56.7 5.5 56.6 5.2 56.4 C 5 56.2 4.8 55.9 4.8 55.5 C 4.8 55.5 4.8 55.5 4.8 55.5 C 4.8 55.2 5 54.9 5.2 54.7 C 5.5 54.5 5.9 54.4 6.4 54.4 C 6.7 54.4 7.1 54.4 7.5 54.5 C 7.5 54.5 7.5 54.4 7.5 54.4 C 7.5 54.1 7.4 53.8 7.2 53.7 C 7 53.5 6.7 53.4 6.4 53.4 C 6 53.4 5.7 53.5 5.3 53.7 C 5.3 53.7 5.1 53.2 5.1 53.2 C 5.6 53 6 52.9 6.5 52.9 C 7 52.9 7.4 53.1 7.6 53.3 C 7.9 53.6 8 53.9 8 54.4 C 7.99 54.39 8 56.6 8 56.6 L 7.5 56.6 L 7.5 56.1 C 7.5 56.1 7.48 56.05 7.5 56.1 Z M 6.3 56.2 C 6.6 56.2 6.9 56.2 7.1 56 C 7.4 55.8 7.5 55.6 7.5 55.3 C 7.5 55.3 7.5 54.9 7.5 54.9 C 7.1 54.8 6.8 54.8 6.4 54.8 C 6.1 54.8 5.8 54.8 5.6 55 C 5.5 55.1 5.4 55.3 5.4 55.5 C 5.4 55.5 5.4 55.5 5.4 55.5 C 5.4 55.7 5.5 55.9 5.6 56.1 C 5.8 56.2 6 56.2 6.3 56.2 Z M 10.3 56.7 C 9.8 56.7 9.3 56.5 8.8 56.1 C 8.8 56.1 9.1 55.8 9.1 55.8 C 9.5 56.1 9.9 56.2 10.4 56.2 C 10.6 56.2 10.8 56.2 10.9 56.1 C 11 56 11.1 55.8 11.1 55.6 C 11.1 55.6 11.1 55.6 11.1 55.6 C 11.1 55.5 11 55.3 10.9 55.2 C 10.7 55.2 10.5 55.1 10.2 55 C 10.1 55 10 54.9 9.9 54.9 C 9.9 54.9 9.8 54.8 9.7 54.8 C 9.5 54.8 9.5 54.7 9.4 54.7 C 9.3 54.6 9.3 54.6 9.2 54.5 C 9.1 54.4 9.1 54.4 9.1 54.3 C 9 54.2 9 54.1 9 54 C 9 54 9 54 9 54 C 9 53.6 9.1 53.4 9.4 53.2 C 9.6 53 9.9 52.9 10.2 52.9 C 10.7 52.9 11.1 53.1 11.5 53.3 C 11.5 53.3 11.3 53.7 11.3 53.7 C 10.9 53.5 10.6 53.4 10.2 53.4 C 10 53.4 9.9 53.4 9.7 53.5 C 9.6 53.6 9.5 53.7 9.5 53.9 C 9.5 53.9 9.5 53.9 9.5 53.9 C 9.5 54 9.6 54 9.6 54.1 C 9.6 54.1 9.7 54.2 9.7 54.2 C 9.8 54.3 9.8 54.3 9.9 54.4 C 10 54.4 10.1 54.4 10.2 54.4 C 10.2 54.5 10.3 54.5 10.5 54.5 C 10.6 54.6 10.7 54.6 10.8 54.6 C 10.9 54.7 11 54.7 11.1 54.8 C 11.2 54.8 11.3 54.9 11.4 55 C 11.5 55 11.5 55.1 11.6 55.2 C 11.6 55.3 11.6 55.4 11.6 55.6 C 11.6 55.6 11.6 55.6 11.6 55.6 C 11.6 55.9 11.5 56.2 11.3 56.4 C 11 56.6 10.7 56.7 10.3 56.7 Z M 15 56.1 C 14.7 56.5 14.3 56.7 13.7 56.7 C 13.3 56.7 13 56.6 12.8 56.4 C 12.5 56.2 12.4 55.9 12.4 55.5 C 12.4 55.5 12.4 55.5 12.4 55.5 C 12.4 55.2 12.5 54.9 12.8 54.7 C 13.1 54.5 13.4 54.4 13.9 54.4 C 14.3 54.4 14.6 54.4 15 54.5 C 15 54.5 15 54.4 15 54.4 C 15 54.1 14.9 53.8 14.7 53.7 C 14.5 53.5 14.3 53.4 13.9 53.4 C 13.6 53.4 13.2 53.5 12.8 53.7 C 12.8 53.7 12.7 53.2 12.7 53.2 C 13.1 53 13.5 52.9 14 52.9 C 14.5 52.9 14.9 53.1 15.2 53.3 C 15.4 53.6 15.5 53.9 15.5 54.4 C 15.53 54.39 15.5 56.6 15.5 56.6 L 15 56.6 L 15 56.1 C 15 56.1 15.01 56.05 15 56.1 Z M 13.8 56.2 C 14.2 56.2 14.4 56.2 14.7 56 C 14.9 55.8 15 55.6 15 55.3 C 15 55.3 15 54.9 15 54.9 C 14.7 54.8 14.3 54.8 14 54.8 C 13.6 54.8 13.4 54.8 13.2 55 C 13 55.1 12.9 55.3 12.9 55.5 C 12.9 55.5 12.9 55.5 12.9 55.5 C 12.9 55.7 13 55.9 13.2 56.1 C 13.3 56.2 13.6 56.2 13.8 56.2 Z M 16.7 56.6 L 16.7 53 L 17.2 53 C 17.2 53 17.22 53.93 17.2 53.9 C 17.4 53.6 17.6 53.4 17.8 53.2 C 18.1 53 18.4 52.9 18.7 52.9 C 18.7 52.92 18.7 53.5 18.7 53.5 C 18.7 53.5 18.65 53.5 18.7 53.5 C 18.2 53.5 17.9 53.6 17.6 53.9 C 17.4 54.2 17.2 54.6 17.2 55.2 C 17.22 55.16 17.2 56.6 17.2 56.6 L 16.7 56.6 Z M 19.6 56.6 L 19.6 53 L 20.1 53 L 20.1 56.6 L 19.6 56.6 Z M 21.4 56.6 L 21.4 53 L 21.9 53 C 21.9 53 21.9 53.59 21.9 53.6 C 22 53.4 22.2 53.2 22.4 53.1 C 22.6 53 22.8 52.9 23.1 52.9 C 23.6 52.9 24 53.1 24.2 53.6 C 24.5 53.1 25 52.9 25.5 52.9 C 25.9 52.9 26.2 53 26.5 53.3 C 26.7 53.6 26.8 53.9 26.8 54.4 C 26.84 54.36 26.8 56.6 26.8 56.6 L 26.3 56.6 C 26.3 56.6 26.31 54.49 26.3 54.5 C 26.3 54.1 26.2 53.9 26.1 53.7 C 25.9 53.5 25.7 53.4 25.4 53.4 C 25.1 53.4 24.9 53.5 24.7 53.7 C 24.5 53.9 24.4 54.2 24.4 54.5 C 24.37 54.51 24.4 56.6 24.4 56.6 L 23.8 56.6 C 23.8 56.6 23.83 54.47 23.8 54.5 C 23.8 54.1 23.8 53.9 23.6 53.7 C 23.4 53.5 23.2 53.4 22.9 53.4 C 22.6 53.4 22.4 53.5 22.2 53.7 C 22 53.9 21.9 54.2 21.9 54.5 C 21.9 54.53 21.9 56.6 21.9 56.6 L 21.4 56.6 Z M 28 53.7 L 28 53 L 28.6 53 L 28.6 53.7 L 28 53.7 Z M 28 56.6 L 28 55.9 L 28.6 55.9 L 28.6 56.6 L 28 56.6 Z M 33.6 56.6 L 31.5 51.7 L 32.2 51.7 L 33.9 55.9 L 35.7 51.7 L 36.2 51.7 L 34.1 56.6 L 33.6 56.6 Z M 37.2 56.6 L 37.2 51.7 L 40.8 51.7 L 40.8 52.2 L 37.8 52.2 L 37.8 53.9 L 40.4 53.9 L 40.4 54.4 L 37.8 54.4 L 37.8 56.1 L 40.8 56.1 L 40.8 56.6 L 37.2 56.6 Z M 41.5 56.6 L 41.5 56.2 C 41.5 56.2 43.32 54.6 43.3 54.6 C 43.7 54.3 44 54 44.1 53.8 C 44.3 53.5 44.3 53.3 44.3 53.1 C 44.3 52.8 44.2 52.6 44.1 52.4 C 43.9 52.2 43.6 52.1 43.4 52.1 C 43.1 52.1 42.9 52.2 42.7 52.3 C 42.4 52.5 42.2 52.7 42 53 C 42 53 41.6 52.7 41.6 52.7 C 41.9 52.3 42.1 52 42.4 51.9 C 42.7 51.7 43 51.6 43.4 51.6 C 43.8 51.6 44.2 51.8 44.5 52 C 44.8 52.3 44.9 52.6 44.9 53 C 44.9 53 44.9 53 44.9 53 C 44.9 53.4 44.8 53.7 44.6 53.9 C 44.5 54.2 44.1 54.5 43.7 54.9 C 43.68 54.93 42.4 56.1 42.4 56.1 L 45 56.1 L 45 56.6 L 41.5 56.6 Z " stroke="none" fill="#000"/>  </g>  <g id="Polygon49009">    <path d="M 0.7 48.2 L 0.7 43.3 L 1.2 43.3 L 1.2 47.7 L 4 47.7 L 4 48.2 L 0.7 48.2 Z M 7.7 48.2 L 7.7 43.8 L 6.7 44.1 L 6.6 43.7 L 7.8 43.3 L 8.2 43.3 L 8.2 48.2 L 7.7 48.2 Z M 11.2 48.3 C 10.7 48.3 10.3 48.1 10 47.8 C 9.7 47.6 9.6 47.3 9.5 47 C 9.4 46.7 9.3 46.4 9.3 45.9 C 9.3 45.9 9.3 45.9 9.3 45.9 C 9.3 45.1 9.5 44.5 9.9 44 C 10.3 43.5 10.7 43.2 11.4 43.2 C 11.9 43.2 12.4 43.4 12.8 43.8 C 12.8 43.8 12.5 44.2 12.5 44.2 C 12.1 43.9 11.7 43.7 11.3 43.7 C 10.9 43.7 10.5 43.9 10.3 44.3 C 10 44.7 9.9 45.2 9.9 45.8 C 9.9 45.8 9.9 45.9 9.9 45.9 C 10.3 45.4 10.7 45.1 11.3 45.1 C 11.8 45.1 12.2 45.3 12.5 45.6 C 12.8 45.8 13 46.2 13 46.6 C 13 46.6 13 46.7 13 46.7 C 13 47.1 12.8 47.5 12.5 47.8 C 12.2 48.1 11.7 48.3 11.2 48.3 Z M 11.2 47.8 C 11.6 47.8 11.9 47.7 12.1 47.5 C 12.3 47.3 12.4 47 12.4 46.7 C 12.4 46.7 12.4 46.7 12.4 46.7 C 12.4 46.4 12.3 46.1 12.1 45.9 C 11.9 45.7 11.6 45.6 11.2 45.6 C 10.9 45.6 10.6 45.7 10.4 45.9 C 10.1 46.2 10 46.4 10 46.7 C 10 46.7 10 46.7 10 46.7 C 10 47 10.1 47.3 10.4 47.5 C 10.6 47.7 10.9 47.8 11.2 47.8 Z M 19.2 47.6 C 18.8 48.1 18.3 48.3 17.8 48.3 C 17.2 48.3 16.8 48.1 16.4 47.7 C 16.1 47.4 15.9 46.9 15.9 46.4 C 15.9 46.4 15.9 46.4 15.9 46.4 C 15.9 45.9 16.1 45.4 16.4 45.1 C 16.8 44.7 17.2 44.5 17.8 44.5 C 18.3 44.5 18.8 44.7 19.2 45.1 C 19.2 45.1 18.9 45.5 18.9 45.5 C 18.5 45.2 18.2 45 17.8 45 C 17.4 45 17.1 45.1 16.8 45.4 C 16.6 45.7 16.5 46 16.5 46.4 C 16.5 46.4 16.5 46.4 16.5 46.4 C 16.5 46.8 16.6 47.1 16.9 47.4 C 17.1 47.7 17.4 47.8 17.8 47.8 C 18.2 47.8 18.6 47.6 18.9 47.3 C 18.91 47.26 19.2 47.6 19.2 47.6 C 19.2 47.6 19.25 47.58 19.2 47.6 Z M 20.1 48.2 L 20.1 44.6 L 20.7 44.6 C 20.7 44.6 20.68 45.19 20.7 45.2 C 20.8 45 21 44.8 21.2 44.7 C 21.3 44.6 21.6 44.5 21.8 44.5 C 22.4 44.5 22.8 44.7 23 45.2 C 23.3 44.7 23.8 44.5 24.3 44.5 C 24.7 44.5 25 44.6 25.3 44.9 C 25.5 45.2 25.6 45.5 25.6 46 C 25.63 45.96 25.6 48.2 25.6 48.2 L 25.1 48.2 C 25.1 48.2 25.09 46.09 25.1 46.1 C 25.1 45.7 25 45.5 24.8 45.3 C 24.7 45.1 24.4 45 24.1 45 C 23.9 45 23.6 45.1 23.4 45.3 C 23.2 45.5 23.1 45.8 23.1 46.1 C 23.15 46.11 23.1 48.2 23.1 48.2 L 22.6 48.2 C 22.6 48.2 22.62 46.07 22.6 46.1 C 22.6 45.7 22.5 45.5 22.4 45.3 C 22.2 45.1 22 45 21.7 45 C 21.4 45 21.2 45.1 21 45.3 C 20.8 45.5 20.7 45.8 20.7 46.1 C 20.68 46.13 20.7 48.2 20.7 48.2 L 20.1 48.2 Z M 26.6 49.1 C 26.6 49.1 26.5 48.8 26.5 48.8 C 26.8 48.7 27 48.5 27 48.2 C 26.96 48.2 26.7 48.2 26.7 48.2 L 26.7 47.5 L 27.4 47.5 C 27.4 47.5 27.36 48.09 27.4 48.1 C 27.4 48.4 27.3 48.6 27.2 48.7 C 27 48.9 26.8 49 26.6 49.1 Z M 32.1 48.2 L 30.3 43.3 L 30.9 43.3 L 32.3 47.4 L 33.6 43.3 L 34.1 43.3 L 35.4 47.4 L 36.8 43.3 L 37.4 43.3 L 35.7 48.2 L 35.2 48.2 L 33.9 44.3 L 32.5 48.2 L 32.1 48.2 Z M 41.1 48.2 L 41.1 43.8 L 40.2 44.1 L 40 43.7 L 41.2 43.3 L 41.6 43.3 L 41.6 48.2 L 41.1 48.2 Z M 45.4 48.2 L 45.4 47 L 42.8 47 L 42.6 46.6 L 45.4 43.3 L 45.9 43.3 L 45.9 46.6 L 46.7 46.6 L 46.7 47 L 45.9 47 L 45.9 48.2 L 45.4 48.2 Z M 43.3 46.6 L 45.4 46.6 L 45.4 44 L 43.3 46.6 Z M 52.8 47.6 C 52.4 48.1 51.9 48.3 51.4 48.3 C 50.8 48.3 50.4 48.1 50 47.7 C 49.7 47.4 49.5 46.9 49.5 46.4 C 49.5 46.4 49.5 46.4 49.5 46.4 C 49.5 45.9 49.7 45.4 50 45.1 C 50.4 44.7 50.8 44.5 51.4 44.5 C 51.9 44.5 52.4 44.7 52.8 45.1 C 52.8 45.1 52.5 45.5 52.5 45.5 C 52.1 45.2 51.8 45 51.4 45 C 51 45 50.7 45.1 50.4 45.4 C 50.2 45.7 50.1 46 50.1 46.4 C 50.1 46.4 50.1 46.4 50.1 46.4 C 50.1 46.8 50.2 47.1 50.5 47.4 C 50.7 47.7 51 47.8 51.4 47.8 C 51.8 47.8 52.2 47.6 52.5 47.3 C 52.51 47.26 52.8 47.6 52.8 47.6 C 52.8 47.6 52.85 47.58 52.8 47.6 Z M 53.7 48.2 L 53.7 44.6 L 54.3 44.6 C 54.3 44.6 54.28 45.19 54.3 45.2 C 54.4 45 54.6 44.8 54.8 44.7 C 54.9 44.6 55.2 44.5 55.4 44.5 C 56 44.5 56.4 44.7 56.6 45.2 C 56.9 44.7 57.4 44.5 57.9 44.5 C 58.3 44.5 58.6 44.6 58.9 44.9 C 59.1 45.2 59.2 45.5 59.2 46 C 59.23 45.96 59.2 48.2 59.2 48.2 L 58.7 48.2 C 58.7 48.2 58.69 46.09 58.7 46.1 C 58.7 45.7 58.6 45.5 58.4 45.3 C 58.3 45.1 58 45 57.7 45 C 57.5 45 57.2 45.1 57 45.3 C 56.8 45.5 56.7 45.8 56.7 46.1 C 56.75 46.11 56.7 48.2 56.7 48.2 L 56.2 48.2 C 56.2 48.2 56.22 46.07 56.2 46.1 C 56.2 45.7 56.1 45.5 56 45.3 C 55.8 45.1 55.6 45 55.3 45 C 55 45 54.8 45.1 54.6 45.3 C 54.4 45.5 54.3 45.8 54.3 46.1 C 54.28 46.13 54.3 48.2 54.3 48.2 L 53.7 48.2 Z M 60.2 49.1 C 60.2 49.1 60.1 48.8 60.1 48.8 C 60.4 48.7 60.6 48.5 60.6 48.2 C 60.56 48.2 60.3 48.2 60.3 48.2 L 60.3 47.5 L 61 47.5 C 61 47.5 60.96 48.09 61 48.1 C 61 48.4 60.9 48.6 60.8 48.7 C 60.6 48.9 60.4 49 60.2 49.1 Z M 64.3 48.2 L 64.3 43.3 L 64.8 43.3 L 64.8 45.5 L 67.7 45.5 L 67.7 43.3 L 68.2 43.3 L 68.2 48.2 L 67.7 48.2 L 67.7 46 L 64.8 46 L 64.8 48.2 L 64.3 48.2 Z M 75.6 45.7 C 75.6 46.5 75.4 47.1 75 47.5 C 74.6 48 74.1 48.3 73.5 48.3 C 72.9 48.3 72.4 48 72 47.6 C 71.6 47.1 71.4 46.5 71.4 45.8 C 71.4 45.8 71.4 45.7 71.4 45.7 C 71.4 45 71.6 44.4 72 44 C 72.4 43.5 72.9 43.2 73.5 43.2 C 74.1 43.2 74.6 43.5 75 43.9 C 75.4 44.4 75.6 45 75.6 45.7 C 75.58 45.74 75.6 45.7 75.6 45.7 C 75.6 45.7 75.58 45.75 75.6 45.7 Z M 72 45.7 C 72 46.3 72.2 46.8 72.4 47.2 C 72.7 47.6 73.1 47.8 73.5 47.8 C 74 47.8 74.3 47.6 74.6 47.2 C 74.9 46.8 75 46.3 75 45.8 C 75 45.8 75 45.7 75 45.7 C 75 45.2 74.9 44.7 74.6 44.3 C 74.3 43.9 73.9 43.7 73.5 43.7 C 73.1 43.7 72.7 43.9 72.4 44.3 C 72.2 44.7 72 45.2 72 45.7 C 72.01 45.74 72 45.7 72 45.7 C 72 45.7 72.01 45.75 72 45.7 Z M 76.4 49.1 C 76.4 49.1 76.3 48.8 76.3 48.8 C 76.7 48.7 76.8 48.5 76.8 48.2 C 76.8 48.2 76.6 48.2 76.6 48.2 L 76.6 47.5 L 77.2 47.5 C 77.2 47.5 77.19 48.09 77.2 48.1 C 77.2 48.4 77.1 48.6 77 48.7 C 76.9 48.9 76.7 49 76.4 49.1 Z M 78.6 47.3 C 79 47.6 79.4 47.8 79.8 47.8 C 80.3 47.8 80.6 47.6 80.9 47.2 C 81.1 46.8 81.3 46.3 81.3 45.7 C 81.3 45.7 81.3 45.6 81.3 45.6 C 80.9 46.2 80.5 46.4 79.9 46.4 C 79.4 46.4 79 46.3 78.6 46 C 78.3 45.7 78.2 45.3 78.2 44.9 C 78.2 44.9 78.2 44.9 78.2 44.9 C 78.2 44.4 78.3 44 78.7 43.7 C 79 43.4 79.4 43.2 79.9 43.2 C 80.5 43.2 80.9 43.4 81.2 43.7 C 81.6 44.1 81.8 44.8 81.8 45.6 C 81.8 45.6 81.8 45.6 81.8 45.6 C 81.8 46.4 81.6 47 81.3 47.5 C 80.9 48 80.4 48.3 79.8 48.3 C 79.3 48.3 78.8 48.1 78.3 47.7 C 78.28 47.68 78.6 47.3 78.6 47.3 C 78.6 47.3 78.6 47.25 78.6 47.3 Z M 79.9 45.9 C 80.3 45.9 80.6 45.8 80.8 45.6 C 81 45.4 81.2 45.1 81.2 44.8 C 81.2 44.8 81.2 44.8 81.2 44.8 C 81.2 44.5 81 44.2 80.8 44 C 80.6 43.8 80.3 43.7 79.9 43.7 C 79.6 43.7 79.3 43.8 79.1 44 C 78.8 44.3 78.7 44.5 78.7 44.9 C 78.7 44.9 78.7 44.9 78.7 44.9 C 78.7 45.2 78.8 45.4 79.1 45.6 C 79.3 45.8 79.6 45.9 79.9 45.9 Z M 88.1 47.6 C 87.7 48.1 87.2 48.3 86.6 48.3 C 86.1 48.3 85.6 48.1 85.3 47.7 C 84.9 47.4 84.7 46.9 84.7 46.4 C 84.7 46.4 84.7 46.4 84.7 46.4 C 84.7 45.9 84.9 45.4 85.3 45.1 C 85.6 44.7 86.1 44.5 86.6 44.5 C 87.1 44.5 87.6 44.7 88 45.1 C 88 45.1 87.7 45.5 87.7 45.5 C 87.3 45.2 87 45 86.6 45 C 86.2 45 85.9 45.1 85.7 45.4 C 85.4 45.7 85.3 46 85.3 46.4 C 85.3 46.4 85.3 46.4 85.3 46.4 C 85.3 46.8 85.4 47.1 85.7 47.4 C 85.9 47.7 86.2 47.8 86.6 47.8 C 87 47.8 87.4 47.6 87.7 47.3 C 87.72 47.26 88.1 47.6 88.1 47.6 C 88.1 47.6 88.07 47.58 88.1 47.6 Z M 89 48.2 L 89 44.6 L 89.5 44.6 C 89.5 44.6 89.49 45.19 89.5 45.2 C 89.6 45 89.8 44.8 90 44.7 C 90.2 44.6 90.4 44.5 90.7 44.5 C 91.2 44.5 91.6 44.7 91.8 45.2 C 92.1 44.7 92.6 44.5 93.1 44.5 C 93.5 44.5 93.8 44.6 94.1 44.9 C 94.3 45.2 94.4 45.5 94.4 46 C 94.44 45.96 94.4 48.2 94.4 48.2 L 93.9 48.2 C 93.9 48.2 93.9 46.09 93.9 46.1 C 93.9 45.7 93.8 45.5 93.7 45.3 C 93.5 45.1 93.3 45 93 45 C 92.7 45 92.4 45.1 92.3 45.3 C 92.1 45.5 92 45.8 92 46.1 C 91.96 46.11 92 48.2 92 48.2 L 91.4 48.2 C 91.4 48.2 91.43 46.07 91.4 46.1 C 91.4 45.7 91.3 45.5 91.2 45.3 C 91 45.1 90.8 45 90.5 45 C 90.2 45 90 45.1 89.8 45.3 C 89.6 45.5 89.5 45.8 89.5 46.1 C 89.49 46.13 89.5 48.2 89.5 48.2 L 89 48.2 Z M 96.9 49.1 L 100.2 42.6 L 100.7 42.6 L 97.4 49.1 L 96.9 49.1 Z M 104.9 48.3 C 104.1 48.3 103.5 48 103.1 47.4 C 103.1 47.4 103.5 47.1 103.5 47.1 C 103.9 47.5 104.4 47.8 104.9 47.8 C 105.2 47.8 105.5 47.7 105.7 47.5 C 105.9 47.3 106 47.1 106 46.8 C 106 46.8 106 46.8 106 46.8 C 106 46.5 105.9 46.3 105.6 46.1 C 105.4 46 105 45.9 104.6 45.9 C 104.63 45.87 104.3 45.9 104.3 45.9 L 104.2 45.5 L 105.7 43.8 L 103.4 43.8 L 103.4 43.3 L 106.5 43.3 L 106.5 43.7 C 106.5 43.7 104.94 45.41 104.9 45.4 C 105.4 45.5 105.8 45.6 106.1 45.8 C 106.4 46 106.6 46.4 106.6 46.8 C 106.6 46.8 106.6 46.8 106.6 46.8 C 106.6 47.2 106.4 47.6 106.1 47.9 C 105.8 48.1 105.4 48.3 104.9 48.3 Z M 109.7 49.3 L 109.7 44.6 L 110.3 44.6 C 110.3 44.6 110.28 45.31 110.3 45.3 C 110.7 44.8 111.1 44.5 111.7 44.5 C 112.1 44.5 112.5 44.7 112.9 45 C 113.2 45.4 113.4 45.8 113.4 46.4 C 113.4 46.4 113.4 46.4 113.4 46.4 C 113.4 47 113.2 47.4 112.9 47.8 C 112.5 48.1 112.1 48.3 111.7 48.3 C 111.1 48.3 110.6 48 110.3 47.5 C 110.28 47.51 110.3 49.3 110.3 49.3 L 109.7 49.3 Z M 111.6 47.8 C 111.9 47.8 112.2 47.7 112.5 47.4 C 112.7 47.2 112.8 46.8 112.8 46.4 C 112.8 46.4 112.8 46.4 112.8 46.4 C 112.8 46 112.7 45.6 112.5 45.4 C 112.2 45.1 111.9 45 111.6 45 C 111.2 45 110.9 45.1 110.7 45.4 C 110.4 45.7 110.3 46 110.3 46.4 C 110.3 46.4 110.3 46.4 110.3 46.4 C 110.3 46.8 110.4 47.1 110.6 47.4 C 110.9 47.7 111.2 47.8 111.6 47.8 Z M 116.8 47.7 C 116.5 48.1 116 48.3 115.5 48.3 C 115.1 48.3 114.8 48.2 114.5 48 C 114.2 47.8 114.1 47.5 114.1 47.1 C 114.1 47.1 114.1 47.1 114.1 47.1 C 114.1 46.8 114.3 46.5 114.5 46.3 C 114.8 46.1 115.2 46 115.7 46 C 116 46 116.4 46 116.8 46.1 C 116.8 46.1 116.8 46 116.8 46 C 116.8 45.7 116.7 45.4 116.5 45.3 C 116.3 45.1 116 45 115.7 45 C 115.3 45 115 45.1 114.6 45.3 C 114.6 45.3 114.4 44.8 114.4 44.8 C 114.9 44.6 115.3 44.5 115.8 44.5 C 116.3 44.5 116.7 44.7 116.9 44.9 C 117.2 45.2 117.3 45.5 117.3 46 C 117.29 45.99 117.3 48.2 117.3 48.2 L 116.8 48.2 L 116.8 47.7 C 116.8 47.7 116.77 47.65 116.8 47.7 Z M 115.6 47.8 C 115.9 47.8 116.2 47.8 116.4 47.6 C 116.7 47.4 116.8 47.2 116.8 46.9 C 116.8 46.9 116.8 46.5 116.8 46.5 C 116.4 46.4 116.1 46.4 115.7 46.4 C 115.4 46.4 115.1 46.4 114.9 46.6 C 114.8 46.7 114.7 46.9 114.7 47.1 C 114.7 47.1 114.7 47.1 114.7 47.1 C 114.7 47.3 114.7 47.5 114.9 47.7 C 115.1 47.8 115.3 47.8 115.6 47.8 Z M 118.4 48.2 L 118.4 44.6 L 119 44.6 C 119 44.6 118.98 45.53 119 45.5 C 119.1 45.2 119.3 45 119.6 44.8 C 119.8 44.6 120.1 44.5 120.5 44.5 C 120.45 44.52 120.5 45.1 120.5 45.1 C 120.5 45.1 120.41 45.1 120.4 45.1 C 120 45.1 119.7 45.2 119.4 45.5 C 119.1 45.8 119 46.2 119 46.8 C 118.98 46.76 119 48.2 119 48.2 L 118.4 48.2 Z M 122.5 49.3 L 122 49 C 122 49 122.57 48.25 122.6 48.2 C 122.1 48.2 121.8 48 121.5 47.6 C 121.2 47.3 121 46.9 121 46.4 C 121 46.4 121 46.4 121 46.4 C 121 45.9 121.2 45.4 121.6 45.1 C 121.9 44.7 122.4 44.5 122.9 44.5 C 123.5 44.5 123.9 44.7 124.4 45.1 C 124.4 45.1 124 45.5 124 45.5 C 123.7 45.2 123.3 45 122.9 45 C 122.5 45 122.2 45.1 122 45.4 C 121.7 45.7 121.6 46 121.6 46.4 C 121.6 46.4 121.6 46.4 121.6 46.4 C 121.6 46.8 121.7 47.1 122 47.4 C 122.2 47.7 122.6 47.8 122.9 47.8 C 123.3 47.8 123.7 47.6 124 47.3 C 124 47.3 124.4 47.6 124.4 47.6 C 124 48 123.5 48.3 123 48.3 C 123.01 48.28 122.5 49.3 122.5 49.3 Z M 127.7 47.7 C 127.3 48.1 126.9 48.3 126.3 48.3 C 126 48.3 125.7 48.2 125.4 48 C 125.1 47.8 125 47.5 125 47.1 C 125 47.1 125 47.1 125 47.1 C 125 46.8 125.1 46.5 125.4 46.3 C 125.7 46.1 126.1 46 126.5 46 C 126.9 46 127.3 46 127.7 46.1 C 127.7 46.1 127.7 46 127.7 46 C 127.7 45.7 127.6 45.4 127.4 45.3 C 127.2 45.1 126.9 45 126.6 45 C 126.2 45 125.8 45.1 125.5 45.3 C 125.5 45.3 125.3 44.8 125.3 44.8 C 125.7 44.6 126.2 44.5 126.6 44.5 C 127.1 44.5 127.5 44.7 127.8 44.9 C 128.1 45.2 128.2 45.5 128.2 46 C 128.18 45.99 128.2 48.2 128.2 48.2 L 127.7 48.2 L 127.7 47.7 C 127.7 47.7 127.66 47.65 127.7 47.7 Z M 126.5 47.8 C 126.8 47.8 127.1 47.8 127.3 47.6 C 127.5 47.4 127.7 47.2 127.7 46.9 C 127.7 46.9 127.7 46.5 127.7 46.5 C 127.3 46.4 126.9 46.4 126.6 46.4 C 126.3 46.4 126 46.4 125.8 46.6 C 125.6 46.7 125.5 46.9 125.5 47.1 C 125.5 47.1 125.5 47.1 125.5 47.1 C 125.5 47.3 125.6 47.5 125.8 47.7 C 126 47.8 126.2 47.8 126.5 47.8 Z " stroke="none" fill="#000"/>  </g>  <g id="Polygon49008">    <path d="M 2.4 39.9 C 1.6 39.9 0.9 39.6 0.4 39.1 C 0.4 39.1 0.7 38.7 0.7 38.7 C 1 38.9 1.2 39.1 1.5 39.2 C 1.8 39.3 2.1 39.4 2.4 39.4 C 2.7 39.4 3 39.3 3.2 39.1 C 3.4 39 3.5 38.8 3.5 38.5 C 3.5 38.5 3.5 38.5 3.5 38.5 C 3.5 38.3 3.4 38.1 3.2 38 C 3 37.8 2.7 37.7 2.2 37.6 C 1.6 37.5 1.2 37.3 1 37.1 C 0.7 36.9 0.6 36.6 0.6 36.2 C 0.6 36.2 0.6 36.2 0.6 36.2 C 0.6 35.8 0.7 35.5 1 35.2 C 1.3 35 1.7 34.8 2.2 34.8 C 2.5 34.8 2.8 34.9 3.1 35 C 3.4 35.1 3.6 35.2 3.9 35.4 C 3.9 35.4 3.6 35.9 3.6 35.9 C 3.1 35.5 2.7 35.3 2.2 35.3 C 1.8 35.3 1.6 35.4 1.4 35.6 C 1.2 35.7 1.1 35.9 1.1 36.1 C 1.1 36.1 1.1 36.1 1.1 36.1 C 1.1 36.4 1.2 36.6 1.4 36.7 C 1.6 36.9 1.9 37 2.5 37.1 C 3 37.2 3.4 37.4 3.7 37.6 C 3.9 37.8 4 38.1 4 38.5 C 4 38.5 4 38.5 4 38.5 C 4 38.9 3.9 39.2 3.6 39.5 C 3.3 39.7 2.9 39.9 2.4 39.9 Z M 5.1 35.4 L 5.1 34.8 L 5.7 34.8 L 5.7 35.4 L 5.1 35.4 Z M 5.1 39.8 L 5.1 36.2 L 5.7 36.2 L 5.7 39.8 L 5.1 39.8 Z M 7 39.8 L 7 34.7 L 7.5 34.7 L 7.5 39.8 L 7 39.8 Z M 8.8 35.4 L 8.8 34.8 L 9.4 34.8 L 9.4 35.4 L 8.8 35.4 Z M 8.8 39.8 L 8.8 36.2 L 9.4 36.2 L 9.4 39.8 L 8.8 39.8 Z M 10.6 39.8 L 10.6 34.7 L 11.1 34.7 L 11.1 38.2 L 13.1 36.2 L 13.8 36.2 L 12.2 37.7 L 13.8 39.8 L 13.2 39.8 L 11.9 38.1 L 11.1 38.9 L 11.1 39.8 L 10.6 39.8 Z M 16.2 39.9 C 15.7 39.9 15.3 39.7 14.9 39.3 C 14.5 39 14.4 38.5 14.4 38 C 14.4 38 14.4 38 14.4 38 C 14.4 37.5 14.5 37 14.9 36.7 C 15.3 36.3 15.7 36.1 16.3 36.1 C 16.8 36.1 17.2 36.3 17.6 36.7 C 18 37 18.1 37.5 18.1 38 C 18.1 38 18.1 38 18.1 38 C 18.1 38.5 18 39 17.6 39.3 C 17.2 39.7 16.8 39.9 16.2 39.9 Z M 16.3 39.4 C 16.6 39.4 17 39.3 17.2 39 C 17.5 38.7 17.6 38.4 17.6 38 C 17.6 38 17.6 38 17.6 38 C 17.6 37.6 17.5 37.3 17.2 37 C 16.9 36.7 16.6 36.6 16.2 36.6 C 15.9 36.6 15.5 36.7 15.3 37 C 15 37.3 14.9 37.6 14.9 38 C 14.9 38 14.9 38 14.9 38 C 14.9 38.4 15 38.7 15.3 39 C 15.6 39.3 15.9 39.4 16.3 39.4 Z M 19.1 39.8 L 19.1 36.2 L 19.6 36.2 C 19.6 36.2 19.65 36.81 19.6 36.8 C 19.9 36.3 20.4 36.1 20.9 36.1 C 21.3 36.1 21.7 36.2 21.9 36.5 C 22.1 36.8 22.3 37.1 22.3 37.6 C 22.27 37.55 22.3 39.8 22.3 39.8 L 21.7 39.8 C 21.7 39.8 21.73 37.69 21.7 37.7 C 21.7 37.3 21.6 37.1 21.5 36.9 C 21.3 36.7 21.1 36.6 20.7 36.6 C 20.4 36.6 20.2 36.7 20 36.9 C 19.8 37.1 19.6 37.4 19.6 37.7 C 19.65 37.73 19.6 39.8 19.6 39.8 L 19.1 39.8 Z " stroke="none" fill="#000"/>  </g>  <g id="Polygon49007">    <path d="M 0.7 23 L 0.7 18.1 C 0.7 18.1 2.8 18.1 2.8 18.1 C 3.4 18.1 3.9 18.3 4.2 18.6 C 4.4 18.8 4.6 19.2 4.6 19.6 C 4.6 19.6 4.6 19.6 4.6 19.6 C 4.6 20 4.4 20.3 4.2 20.5 C 4 20.8 3.6 20.9 3.2 21 C 3.24 21 4.7 23 4.7 23 L 4.1 23 L 2.6 21.1 L 1.2 21.1 L 1.2 23 L 0.7 23 Z M 1.2 20.6 C 1.2 20.6 2.75 20.6 2.8 20.6 C 3.1 20.6 3.4 20.5 3.7 20.3 C 3.9 20.1 4 19.9 4 19.6 C 4 19.6 4 19.6 4 19.6 C 4 19.3 3.9 19 3.7 18.9 C 3.5 18.7 3.2 18.6 2.8 18.6 C 2.76 18.61 1.2 18.6 1.2 18.6 L 1.2 20.6 Z M 8.7 22.4 C 8.3 22.9 7.8 23.1 7.2 23.1 C 6.7 23.1 6.3 22.9 6 22.6 C 5.6 22.2 5.4 21.8 5.4 21.2 C 5.4 21.2 5.4 21.2 5.4 21.2 C 5.4 20.7 5.6 20.2 5.9 19.8 C 6.3 19.5 6.7 19.3 7.2 19.3 C 7.7 19.3 8.1 19.5 8.4 19.8 C 8.7 20.2 8.9 20.7 8.9 21.2 C 8.9 21.3 8.9 21.3 8.9 21.4 C 8.9 21.4 6 21.4 6 21.4 C 6 21.8 6.2 22.1 6.4 22.3 C 6.6 22.5 6.9 22.6 7.3 22.6 C 7.7 22.6 8.1 22.4 8.4 22.1 C 8.4 22.1 8.7 22.4 8.7 22.4 C 8.7 22.4 8.74 22.4 8.7 22.4 Z M 6 21 C 6 21 8.3 21 8.3 21 C 8.3 20.6 8.2 20.3 8 20.1 C 7.8 19.9 7.5 19.8 7.2 19.8 C 6.8 19.8 6.6 19.9 6.4 20.1 C 6.1 20.3 6 20.6 6 21 Z M 9.8 23 L 9.8 19.4 L 10.3 19.4 C 10.3 19.4 10.35 20.01 10.3 20 C 10.6 19.5 11.1 19.3 11.6 19.3 C 12 19.3 12.4 19.4 12.6 19.7 C 12.8 20 13 20.3 13 20.8 C 12.97 20.75 13 23 13 23 L 12.4 23 C 12.4 23 12.43 20.89 12.4 20.9 C 12.4 20.5 12.3 20.3 12.2 20.1 C 12 19.9 11.7 19.8 11.4 19.8 C 11.1 19.8 10.9 19.9 10.7 20.1 C 10.4 20.3 10.3 20.6 10.3 20.9 C 10.35 20.93 10.3 23 10.3 23 L 9.8 23 Z M 14.1 23 L 14.1 17.9 L 14.7 17.9 L 14.7 21.4 L 16.6 19.4 L 17.3 19.4 L 15.8 20.9 L 17.3 23 L 16.7 23 L 15.4 21.3 L 14.7 22.1 L 14.7 23 L 14.1 23 Z M 18.1 20.1 L 18.1 19.4 L 18.7 19.4 L 18.7 20.1 L 18.1 20.1 Z M 18.1 23 L 18.1 22.3 L 18.7 22.3 L 18.7 23 L 18.1 23 Z M 22.1 23 L 22.1 18.1 L 22.6 18.1 L 22.6 21 L 25.4 18.1 L 26.2 18.1 L 24.1 20.2 L 26.2 23 L 25.5 23 L 23.7 20.6 L 22.6 21.7 L 22.6 23 L 22.1 23 Z M 29.4 22.5 C 29.1 22.9 28.6 23.1 28.1 23.1 C 27.7 23.1 27.4 23 27.1 22.8 C 26.9 22.6 26.7 22.3 26.7 21.9 C 26.7 21.9 26.7 21.9 26.7 21.9 C 26.7 21.6 26.9 21.3 27.2 21.1 C 27.4 20.9 27.8 20.8 28.3 20.8 C 28.7 20.8 29 20.8 29.4 20.9 C 29.4 20.9 29.4 20.8 29.4 20.8 C 29.4 20.5 29.3 20.2 29.1 20.1 C 28.9 19.9 28.7 19.8 28.3 19.8 C 28 19.8 27.6 19.9 27.2 20.1 C 27.2 20.1 27.1 19.6 27.1 19.6 C 27.5 19.4 27.9 19.3 28.4 19.3 C 28.9 19.3 29.3 19.5 29.5 19.7 C 29.8 20 29.9 20.3 29.9 20.8 C 29.92 20.79 29.9 23 29.9 23 L 29.4 23 L 29.4 22.5 C 29.4 22.5 29.4 22.45 29.4 22.5 Z M 28.2 22.6 C 28.5 22.6 28.8 22.6 29.1 22.4 C 29.3 22.2 29.4 22 29.4 21.7 C 29.4 21.7 29.4 21.3 29.4 21.3 C 29 21.2 28.7 21.2 28.3 21.2 C 28 21.2 27.7 21.2 27.6 21.4 C 27.4 21.5 27.3 21.7 27.3 21.9 C 27.3 21.9 27.3 21.9 27.3 21.9 C 27.3 22.1 27.4 22.3 27.6 22.5 C 27.7 22.6 27.9 22.6 28.2 22.6 Z M 31.1 23 L 31.1 19.4 L 31.6 19.4 C 31.6 19.4 31.6 20.33 31.6 20.3 C 31.7 20 31.9 19.8 32.2 19.6 C 32.5 19.4 32.8 19.3 33.1 19.3 C 33.08 19.32 33.1 19.9 33.1 19.9 C 33.1 19.9 33.04 19.9 33 19.9 C 32.6 19.9 32.3 20 32 20.3 C 31.7 20.6 31.6 21 31.6 21.6 C 31.6 21.56 31.6 23 31.6 23 L 31.1 23 Z M 33.9 23 L 33.9 19.4 L 34.5 19.4 L 34.5 23 L 33.9 23 Z M 36.6 24.1 L 36.1 23.8 C 36.1 23.8 36.63 23.05 36.6 23 C 36.2 23 35.8 22.8 35.4 22.5 C 35.4 22.5 35.7 22.2 35.7 22.2 C 36.1 22.5 36.5 22.6 37 22.6 C 37.2 22.6 37.4 22.6 37.5 22.5 C 37.6 22.4 37.7 22.2 37.7 22 C 37.7 22 37.7 22 37.7 22 C 37.7 21.9 37.6 21.7 37.5 21.6 C 37.3 21.6 37.1 21.5 36.8 21.4 C 36.7 21.4 36.6 21.3 36.5 21.3 C 36.5 21.3 36.4 21.2 36.3 21.2 C 36.1 21.2 36.1 21.1 36 21.1 C 35.9 21 35.9 21 35.8 20.9 C 35.7 20.8 35.7 20.8 35.7 20.7 C 35.6 20.6 35.6 20.5 35.6 20.4 C 35.6 20.4 35.6 20.4 35.6 20.4 C 35.6 20 35.7 19.8 36 19.6 C 36.2 19.4 36.5 19.3 36.8 19.3 C 37.3 19.3 37.7 19.5 38.1 19.7 C 38.1 19.7 37.9 20.1 37.9 20.1 C 37.5 19.9 37.2 19.8 36.8 19.8 C 36.6 19.8 36.5 19.8 36.3 19.9 C 36.2 20 36.1 20.1 36.1 20.3 C 36.1 20.3 36.1 20.3 36.1 20.3 C 36.1 20.4 36.2 20.4 36.2 20.5 C 36.2 20.5 36.3 20.6 36.3 20.6 C 36.4 20.7 36.4 20.7 36.5 20.8 C 36.6 20.8 36.7 20.8 36.8 20.8 C 36.8 20.9 36.9 20.9 37.1 20.9 C 37.2 21 37.3 21 37.4 21 C 37.5 21.1 37.6 21.1 37.7 21.2 C 37.8 21.2 37.9 21.3 38 21.4 C 38.1 21.4 38.1 21.5 38.2 21.6 C 38.2 21.7 38.2 21.8 38.2 22 C 38.2 22 38.2 22 38.2 22 C 38.2 22.3 38.1 22.5 37.9 22.7 C 37.7 22.9 37.4 23 37.1 23.1 C 37.08 23.06 36.6 24.1 36.6 24.1 Z M 39.3 23 L 39.3 19.4 L 39.8 19.4 L 39.8 23 L 39.3 23 Z M 41.1 23 L 41.1 17.9 L 41.6 17.9 L 41.6 21.4 L 43.6 19.4 L 44.2 19.4 L 42.7 20.9 L 44.3 23 L 43.6 23 L 42.3 21.3 L 41.6 22.1 L 41.6 23 L 41.1 23 Z M 47.2 23 L 47.2 18.1 C 47.2 18.1 49.35 18.1 49.3 18.1 C 50 18.1 50.4 18.3 50.7 18.6 C 51 18.8 51.1 19.2 51.1 19.6 C 51.1 19.6 51.1 19.6 51.1 19.6 C 51.1 20 51 20.3 50.8 20.5 C 50.5 20.8 50.2 20.9 49.8 21 C 49.79 21 51.3 23 51.3 23 L 50.6 23 L 49.2 21.1 L 47.8 21.1 L 47.8 23 L 47.2 23 Z M 47.8 20.6 C 47.8 20.6 49.3 20.6 49.3 20.6 C 49.7 20.6 50 20.5 50.2 20.3 C 50.4 20.1 50.6 19.9 50.6 19.6 C 50.6 19.6 50.6 19.6 50.6 19.6 C 50.6 19.3 50.5 19 50.2 18.9 C 50 18.7 49.7 18.6 49.3 18.6 C 49.31 18.61 47.8 18.6 47.8 18.6 L 47.8 20.6 Z M 55.3 22.4 C 54.9 22.9 54.4 23.1 53.8 23.1 C 53.3 23.1 52.9 22.9 52.5 22.6 C 52.2 22.2 52 21.8 52 21.2 C 52 21.2 52 21.2 52 21.2 C 52 20.7 52.2 20.2 52.5 19.8 C 52.8 19.5 53.2 19.3 53.7 19.3 C 54.2 19.3 54.7 19.5 55 19.8 C 55.3 20.2 55.4 20.7 55.4 21.2 C 55.4 21.3 55.4 21.3 55.4 21.4 C 55.4 21.4 52.5 21.4 52.5 21.4 C 52.6 21.8 52.7 22.1 53 22.3 C 53.2 22.5 53.5 22.6 53.8 22.6 C 54.2 22.6 54.6 22.4 54.9 22.1 C 54.95 22.1 55.3 22.4 55.3 22.4 C 55.3 22.4 55.29 22.4 55.3 22.4 Z M 52.5 21 C 52.5 21 54.9 21 54.9 21 C 54.8 20.6 54.7 20.3 54.5 20.1 C 54.3 19.9 54.1 19.8 53.7 19.8 C 53.4 19.8 53.1 19.9 52.9 20.1 C 52.7 20.3 52.6 20.6 52.5 21 Z M 56.4 23 L 56.4 19.4 L 56.9 19.4 C 56.9 19.4 56.9 20.01 56.9 20 C 57.2 19.5 57.6 19.3 58.1 19.3 C 58.6 19.3 58.9 19.4 59.1 19.7 C 59.4 20 59.5 20.3 59.5 20.8 C 59.52 20.75 59.5 23 59.5 23 L 59 23 C 59 23 58.98 20.89 59 20.9 C 59 20.5 58.9 20.3 58.7 20.1 C 58.5 19.9 58.3 19.8 58 19.8 C 57.7 19.8 57.4 19.9 57.2 20.1 C 57 20.3 56.9 20.6 56.9 20.9 C 56.9 20.93 56.9 23 56.9 23 L 56.4 23 Z M 60.7 23 L 60.7 17.9 L 61.2 17.9 L 61.2 21.4 L 63.2 19.4 L 63.8 19.4 L 62.3 20.9 L 63.9 23 L 63.2 23 L 61.9 21.3 L 61.2 22.1 L 61.2 23 L 60.7 23 Z M 64.7 23 L 64.7 17.9 L 65.2 17.9 L 65.2 23 L 64.7 23 Z M 69.6 22.4 C 69.2 22.9 68.7 23.1 68.1 23.1 C 67.6 23.1 67.1 22.9 66.8 22.6 C 66.4 22.2 66.3 21.8 66.3 21.2 C 66.3 21.2 66.3 21.2 66.3 21.2 C 66.3 20.7 66.4 20.2 66.8 19.8 C 67.1 19.5 67.5 19.3 68 19.3 C 68.5 19.3 68.9 19.5 69.2 19.8 C 69.5 20.2 69.7 20.7 69.7 21.2 C 69.7 21.3 69.7 21.3 69.7 21.4 C 69.7 21.4 66.8 21.4 66.8 21.4 C 66.9 21.8 67 22.1 67.2 22.3 C 67.5 22.5 67.8 22.6 68.1 22.6 C 68.5 22.6 68.9 22.4 69.2 22.1 C 69.23 22.1 69.6 22.4 69.6 22.4 C 69.6 22.4 69.56 22.4 69.6 22.4 Z M 66.8 21 C 66.8 21 69.1 21 69.1 21 C 69.1 20.6 69 20.3 68.8 20.1 C 68.6 19.9 68.3 19.8 68 19.8 C 67.7 19.8 67.4 19.9 67.2 20.1 C 67 20.3 66.9 20.6 66.8 21 Z M 70.6 23 L 70.6 19.4 L 71.2 19.4 C 71.2 19.4 71.17 20.33 71.2 20.3 C 71.3 20 71.5 19.8 71.8 19.6 C 72 19.4 72.3 19.3 72.7 19.3 C 72.65 19.32 72.7 19.9 72.7 19.9 C 72.7 19.9 72.61 19.9 72.6 19.9 C 72.2 19.9 71.9 20 71.6 20.3 C 71.3 20.6 71.2 21 71.2 21.6 C 71.17 21.56 71.2 23 71.2 23 L 70.6 23 Z " stroke="none" fill="#000"/>  </g>  <g id="Polygon49006">    <path d="M 3 9.3 L 3 8.6 L 3.6 8.6 L 3.6 9.3 L 3 9.3 Z M 1.7 9.3 L 1.7 8.6 L 2.3 8.6 L 2.3 9.3 L 1.7 9.3 Z M 2.7 14.7 C 2 14.7 1.5 14.5 1.2 14.1 C 0.8 13.7 0.6 13.2 0.6 12.5 C 0.62 12.55 0.6 9.7 0.6 9.7 L 1.2 9.7 C 1.2 9.7 1.17 12.51 1.2 12.5 C 1.2 13 1.3 13.4 1.6 13.7 C 1.8 14 2.2 14.2 2.7 14.2 C 3.1 14.2 3.5 14 3.8 13.8 C 4 13.5 4.1 13.1 4.1 12.5 C 4.14 12.55 4.1 9.7 4.1 9.7 L 4.7 9.7 C 4.7 9.7 4.7 12.51 4.7 12.5 C 4.7 13.2 4.5 13.7 4.1 14.1 C 3.8 14.5 3.3 14.7 2.7 14.7 Z M 5.9 14.6 L 5.9 11 L 6.5 11 C 6.5 11 6.45 11.93 6.5 11.9 C 6.6 11.6 6.8 11.4 7 11.2 C 7.3 11 7.6 10.9 7.9 10.9 C 7.93 10.92 7.9 11.5 7.9 11.5 C 7.9 11.5 7.89 11.5 7.9 11.5 C 7.5 11.5 7.1 11.6 6.9 11.9 C 6.6 12.2 6.5 12.6 6.5 13.2 C 6.45 13.16 6.5 14.6 6.5 14.6 L 5.9 14.6 Z M 10.6 10.4 L 10.6 9.8 L 11.2 9.8 L 11.2 10.4 L 10.6 10.4 Z M 9.3 10.4 L 9.3 9.8 L 10 9.8 L 10 10.4 L 9.3 10.4 Z M 11.3 14 C 11 14.4 10.6 14.7 10.1 14.7 C 9.7 14.7 9.3 14.5 9.1 14.3 C 8.8 14 8.7 13.7 8.7 13.2 C 8.69 13.23 8.7 11 8.7 11 L 9.2 11 C 9.2 11 9.23 13.09 9.2 13.1 C 9.2 13.4 9.3 13.7 9.5 13.9 C 9.7 14.1 9.9 14.2 10.2 14.2 C 10.5 14.2 10.8 14.1 11 13.9 C 11.2 13.7 11.3 13.4 11.3 13.1 C 11.32 13.05 11.3 11 11.3 11 L 11.9 11 L 11.9 14.6 L 11.3 14.6 L 11.3 14 C 11.3 14 11.32 13.97 11.3 14 Z M 13.1 14.6 L 13.1 11 L 13.6 11 C 13.6 11 13.6 11.61 13.6 11.6 C 13.9 11.1 14.3 10.9 14.8 10.9 C 15.3 10.9 15.6 11 15.9 11.3 C 16.1 11.6 16.2 11.9 16.2 12.4 C 16.23 12.35 16.2 14.6 16.2 14.6 L 15.7 14.6 C 15.7 14.6 15.69 12.49 15.7 12.5 C 15.7 12.1 15.6 11.9 15.4 11.7 C 15.2 11.5 15 11.4 14.7 11.4 C 14.4 11.4 14.1 11.5 13.9 11.7 C 13.7 11.9 13.6 12.2 13.6 12.5 C 13.6 12.53 13.6 14.6 13.6 14.6 L 13.1 14.6 Z M 19.6 14.6 L 19.6 9.7 L 20.1 9.7 L 20.1 12.6 L 22.9 9.7 L 23.7 9.7 L 21.5 11.8 L 23.7 14.6 L 23 14.6 L 21.2 12.2 L 20.1 13.3 L 20.1 14.6 L 19.6 14.6 Z M 26.2 14.7 C 25.6 14.7 25.2 14.5 24.8 14.1 C 24.5 13.8 24.3 13.3 24.3 12.8 C 24.3 12.8 24.3 12.8 24.3 12.8 C 24.3 12.3 24.5 11.8 24.8 11.5 C 25.2 11.1 25.6 10.9 26.2 10.9 C 26.7 10.9 27.2 11.1 27.5 11.5 C 27.9 11.8 28.1 12.3 28.1 12.8 C 28.1 12.8 28.1 12.8 28.1 12.8 C 28.1 13.3 27.9 13.8 27.5 14.1 C 27.2 14.5 26.7 14.7 26.2 14.7 Z M 26.2 14.2 C 26.6 14.2 26.9 14.1 27.1 13.8 C 27.4 13.5 27.5 13.2 27.5 12.8 C 27.5 12.8 27.5 12.8 27.5 12.8 C 27.5 12.4 27.4 12.1 27.1 11.8 C 26.9 11.5 26.5 11.4 26.2 11.4 C 25.8 11.4 25.5 11.5 25.2 11.8 C 25 12.1 24.8 12.4 24.8 12.8 C 24.8 12.8 24.8 12.8 24.8 12.8 C 24.8 13.2 25 13.5 25.2 13.8 C 25.5 14.1 25.8 14.2 26.2 14.2 Z M 31.9 13.9 C 31.6 14.4 31.1 14.7 30.5 14.7 C 30.1 14.7 29.7 14.5 29.3 14.2 C 29 13.8 28.8 13.4 28.8 12.8 C 28.8 12.8 28.8 12.8 28.8 12.8 C 28.8 12.2 29 11.8 29.3 11.4 C 29.7 11.1 30.1 10.9 30.5 10.9 C 31.1 10.9 31.6 11.2 31.9 11.7 C 31.93 11.67 31.9 9.5 31.9 9.5 L 32.5 9.5 L 32.5 14.6 L 31.9 14.6 L 31.9 13.9 C 31.9 13.9 31.93 13.87 31.9 13.9 Z M 30.6 14.2 C 31 14.2 31.3 14.1 31.6 13.8 C 31.8 13.5 32 13.2 32 12.8 C 32 12.8 32 12.8 32 12.8 C 32 12.4 31.8 12 31.6 11.8 C 31.3 11.5 31 11.4 30.6 11.4 C 30.3 11.4 30 11.5 29.7 11.8 C 29.5 12 29.4 12.4 29.4 12.8 C 29.4 12.8 29.4 12.8 29.4 12.8 C 29.4 13.2 29.5 13.6 29.7 13.8 C 30 14.1 30.3 14.2 30.6 14.2 Z M 36.2 14 C 36 14.4 35.5 14.7 35 14.7 C 34.6 14.7 34.2 14.5 34 14.3 C 33.7 14 33.6 13.7 33.6 13.2 C 33.62 13.23 33.6 11 33.6 11 L 34.2 11 C 34.2 11 34.16 13.09 34.2 13.1 C 34.2 13.4 34.2 13.7 34.4 13.9 C 34.6 14.1 34.8 14.2 35.2 14.2 C 35.5 14.2 35.7 14.1 35.9 13.9 C 36.1 13.7 36.2 13.4 36.2 13.1 C 36.25 13.05 36.2 11 36.2 11 L 36.8 11 L 36.8 14.6 L 36.2 14.6 L 36.2 14 C 36.2 14 36.25 13.97 36.2 14 Z M 38 11.7 L 38 11 L 38.6 11 L 38.6 11.7 L 38 11.7 Z M 38 14.6 L 38 13.9 L 38.6 13.9 L 38.6 14.6 L 38 14.6 Z M 41.7 14.6 L 41.7 13.8 L 44.4 10.6 L 41.8 10.6 L 41.8 9.7 L 45.8 9.7 L 45.8 10.5 L 43.1 13.7 L 45.8 13.7 L 45.8 14.6 L 41.7 14.6 Z M 46.8 14.6 L 46.8 9.7 C 46.8 9.7 48.72 9.7 48.7 9.7 C 49.5 9.7 50.1 9.9 50.6 10.4 C 51.1 10.9 51.3 11.4 51.3 12.1 C 51.3 12.1 51.3 12.1 51.3 12.1 C 51.3 12.8 51.1 13.4 50.6 13.9 C 50.1 14.4 49.5 14.6 48.7 14.6 C 48.72 14.6 46.8 14.6 46.8 14.6 Z M 48.7 10.7 C 48.72 10.67 47.9 10.7 47.9 10.7 L 47.9 13.6 C 47.9 13.6 48.72 13.63 48.7 13.6 C 49.2 13.6 49.5 13.5 49.8 13.2 C 50.1 13 50.2 12.6 50.2 12.2 C 50.2 12.2 50.2 12.1 50.2 12.1 C 50.2 11.7 50.1 11.4 49.8 11.1 C 49.5 10.8 49.2 10.7 48.7 10.7 Z M 56 14.7 C 55.2 14.7 54.5 14.4 54.1 13.8 C 54.1 13.8 54.8 13.1 54.8 13.1 C 55.1 13.5 55.5 13.7 56 13.7 C 56.2 13.7 56.4 13.7 56.5 13.6 C 56.6 13.4 56.7 13.3 56.7 13.1 C 56.7 13.1 56.7 13.1 56.7 13.1 C 56.7 12.9 56.6 12.8 56.4 12.6 C 56.3 12.5 56 12.5 55.7 12.5 C 55.72 12.49 55.3 12.5 55.3 12.5 L 55.1 11.8 L 56.3 10.6 L 54.3 10.6 L 54.3 9.7 L 57.7 9.7 L 57.7 10.5 C 57.7 10.5 56.42 11.69 56.4 11.7 C 57.3 11.8 57.7 12.3 57.7 13.1 C 57.7 13.1 57.7 13.1 57.7 13.1 C 57.7 13.6 57.6 13.9 57.3 14.2 C 56.9 14.5 56.5 14.7 56 14.7 Z M 58.5 14.6 L 58.5 13.7 C 58.5 13.7 60.12 12.41 60.1 12.4 C 60.4 12.1 60.7 11.9 60.8 11.8 C 60.9 11.6 61 11.4 61 11.2 C 61 11 60.9 10.9 60.8 10.8 C 60.7 10.7 60.5 10.6 60.3 10.6 C 60.1 10.6 60 10.6 59.8 10.7 C 59.7 10.8 59.5 11 59.3 11.3 C 59.3 11.3 58.5 10.6 58.5 10.6 C 58.8 10.3 59.1 10 59.3 9.9 C 59.6 9.7 60 9.6 60.4 9.6 C 60.9 9.6 61.3 9.8 61.6 10 C 61.9 10.3 62.1 10.7 62.1 11.1 C 62.1 11.1 62.1 11.2 62.1 11.2 C 62.1 11.5 62 11.9 61.8 12.1 C 61.6 12.4 61.3 12.7 60.8 13.1 C 60.77 13.05 60 13.7 60 13.7 L 62.1 13.7 L 62.1 14.6 L 58.5 14.6 Z M 63.1 14.6 L 65.3 10.6 L 63 10.6 L 63 9.7 L 66.5 9.7 L 66.5 10.5 L 64.3 14.6 L 63.1 14.6 Z M 69.4 14.7 C 68.7 14.7 68.2 14.4 67.8 14 C 67.4 13.5 67.2 12.9 67.2 12.2 C 67.2 12.2 67.2 12.1 67.2 12.1 C 67.2 11.4 67.4 10.8 67.8 10.3 C 68.2 9.9 68.8 9.6 69.4 9.6 C 70 9.6 70.6 9.9 71 10.3 C 71.4 10.8 71.6 11.4 71.6 12.1 C 71.6 12.1 71.6 12.1 71.6 12.1 C 71.6 12.9 71.4 13.5 71 14 C 70.6 14.4 70 14.7 69.4 14.7 Z M 68.3 12.1 C 68.3 12.6 68.4 13 68.6 13.3 C 68.8 13.6 69.1 13.7 69.4 13.7 C 69.7 13.7 70 13.6 70.2 13.3 C 70.4 13 70.5 12.6 70.5 12.2 C 70.5 12.2 70.5 12.1 70.5 12.1 C 70.5 11.7 70.4 11.3 70.2 11 C 70 10.7 69.7 10.6 69.4 10.6 C 69.1 10.6 68.8 10.7 68.6 11 C 68.4 11.3 68.3 11.7 68.3 12.1 C 68.32 12.14 68.3 12.1 68.3 12.1 C 68.3 12.1 68.32 12.15 68.3 12.1 Z M 74.2 14.7 C 73.6 14.7 73.1 14.5 72.8 14.3 C 72.4 14 72.3 13.7 72.3 13.3 C 72.3 13.3 72.3 13.2 72.3 13.2 C 72.3 13 72.3 12.7 72.5 12.5 C 72.6 12.3 72.8 12.2 73.1 12.1 C 72.6 11.8 72.4 11.5 72.4 11 C 72.4 11 72.4 11 72.4 11 C 72.4 10.6 72.6 10.3 72.9 10 C 73.2 9.8 73.6 9.6 74.2 9.6 C 74.7 9.6 75.1 9.8 75.4 10 C 75.7 10.3 75.9 10.6 75.9 11 C 75.9 11 75.9 11 75.9 11 C 75.9 11.5 75.7 11.8 75.2 12.1 C 75.5 12.2 75.7 12.4 75.8 12.5 C 76 12.7 76 12.9 76 13.2 C 76 13.2 76 13.2 76 13.2 C 76 13.7 75.9 14 75.5 14.3 C 75.2 14.5 74.7 14.7 74.2 14.7 Z M 73.5 11.1 C 73.5 11.3 73.5 11.4 73.6 11.5 C 73.8 11.6 73.9 11.7 74.2 11.7 C 74.4 11.7 74.5 11.6 74.7 11.5 C 74.8 11.4 74.9 11.3 74.9 11.1 C 74.9 11.1 74.9 11.1 74.9 11.1 C 74.9 10.9 74.8 10.8 74.7 10.7 C 74.5 10.6 74.4 10.5 74.2 10.5 C 73.9 10.5 73.8 10.6 73.6 10.7 C 73.5 10.8 73.5 10.9 73.5 11.1 C 73.45 11.09 73.5 11.1 73.5 11.1 C 73.5 11.1 73.45 11.1 73.5 11.1 Z M 74.2 13.8 C 74.4 13.8 74.6 13.7 74.8 13.6 C 74.9 13.5 75 13.3 75 13.2 C 75 13.2 75 13.2 75 13.2 C 75 13 74.9 12.8 74.8 12.7 C 74.6 12.6 74.4 12.6 74.2 12.6 C 73.9 12.6 73.7 12.6 73.5 12.7 C 73.4 12.8 73.3 13 73.3 13.2 C 73.3 13.2 73.3 13.2 73.3 13.2 C 73.3 13.3 73.4 13.5 73.5 13.6 C 73.7 13.7 73.9 13.8 74.2 13.8 Z " stroke="none" fill="#000"/>  </g>  <g id="Polygon49005">    <path d="M 1.7 5.6 L 1.7 1.7 L 0.2 1.7 L 0.2 0.7 L 4.3 0.7 L 4.3 1.7 L 2.8 1.7 L 2.8 5.6 L 1.7 5.6 Z M 8.3 5 C 7.9 5.5 7.4 5.7 6.8 5.7 C 6.2 5.7 5.8 5.5 5.4 5.1 C 5 4.8 4.8 4.3 4.8 3.7 C 4.8 3.7 4.8 3.7 4.8 3.7 C 4.8 3.2 5 2.7 5.4 2.3 C 5.7 2 6.1 1.8 6.7 1.8 C 7.3 1.8 7.7 2 8 2.4 C 8.4 2.8 8.5 3.2 8.5 3.8 C 8.5 3.9 8.5 4 8.5 4.1 C 8.5 4.1 5.9 4.1 5.9 4.1 C 5.9 4.3 6 4.5 6.2 4.6 C 6.4 4.8 6.6 4.8 6.8 4.8 C 7.1 4.8 7.4 4.7 7.7 4.4 C 7.71 4.44 8.3 5 8.3 5 C 8.3 5 8.32 4.98 8.3 5 Z M 5.9 3.4 C 5.9 3.4 7.5 3.4 7.5 3.4 C 7.4 3.2 7.4 3 7.2 2.8 C 7.1 2.7 6.9 2.6 6.7 2.6 C 6.5 2.6 6.3 2.7 6.1 2.8 C 6 3 5.9 3.2 5.9 3.4 Z M 9.3 5.6 L 9.3 1.8 L 10.4 1.8 C 10.4 1.8 10.37 2.38 10.4 2.4 C 10.7 2 11 1.8 11.5 1.8 C 11.9 1.8 12.2 1.9 12.4 2.1 C 12.6 2.4 12.7 2.7 12.7 3.2 C 12.74 3.17 12.7 5.6 12.7 5.6 L 11.7 5.6 C 11.7 5.6 11.68 3.51 11.7 3.5 C 11.7 3 11.5 2.7 11 2.7 C 10.8 2.7 10.7 2.8 10.5 2.9 C 10.4 3.1 10.4 3.3 10.4 3.5 C 10.37 3.51 10.4 5.6 10.4 5.6 L 9.3 5.6 Z M 15.4 5.7 C 14.9 5.7 14.4 5.5 14 5.1 C 13.7 4.7 13.5 4.3 13.5 3.7 C 13.5 3.7 13.5 3.7 13.5 3.7 C 13.5 3.2 13.7 2.7 14 2.3 C 14.4 2 14.9 1.8 15.4 1.8 C 16.1 1.8 16.6 2 16.9 2.4 C 16.9 2.4 16.3 3.1 16.3 3.1 C 16.2 3 16 2.9 15.9 2.8 C 15.8 2.7 15.6 2.7 15.4 2.7 C 15.2 2.7 15 2.8 14.8 3 C 14.6 3.2 14.5 3.4 14.5 3.7 C 14.5 3.7 14.5 3.7 14.5 3.7 C 14.5 4 14.6 4.3 14.8 4.5 C 15 4.7 15.2 4.8 15.5 4.8 C 15.8 4.8 16.1 4.6 16.3 4.4 C 16.3 4.4 17 5 17 5 C 16.8 5.2 16.5 5.4 16.3 5.5 C 16.1 5.6 15.8 5.7 15.4 5.7 Z M 21 5 C 20.6 5.5 20.1 5.7 19.4 5.7 C 18.9 5.7 18.4 5.5 18 5.1 C 17.7 4.8 17.5 4.3 17.5 3.7 C 17.5 3.7 17.5 3.7 17.5 3.7 C 17.5 3.2 17.7 2.7 18 2.3 C 18.4 2 18.8 1.8 19.3 1.8 C 19.9 1.8 20.4 2 20.7 2.4 C 21 2.8 21.2 3.2 21.2 3.8 C 21.2 3.9 21.2 4 21.1 4.1 C 21.1 4.1 18.5 4.1 18.5 4.1 C 18.6 4.3 18.7 4.5 18.9 4.6 C 19 4.8 19.2 4.8 19.5 4.8 C 19.8 4.8 20.1 4.7 20.4 4.4 C 20.36 4.44 21 5 21 5 C 21 5 20.97 4.98 21 5 Z M 18.5 3.4 C 18.5 3.4 20.1 3.4 20.1 3.4 C 20.1 3.2 20 3 19.9 2.8 C 19.7 2.7 19.6 2.6 19.3 2.6 C 19.1 2.6 18.9 2.7 18.8 2.8 C 18.7 3 18.6 3.2 18.5 3.4 Z M 22 5.6 L 22 1.8 L 23 1.8 C 23 1.8 23.02 2.6 23 2.6 C 23.3 2 23.7 1.8 24.2 1.8 C 24.21 1.78 24.2 2.9 24.2 2.9 C 24.2 2.9 24.16 2.89 24.2 2.9 C 23.8 2.9 23.5 3 23.3 3.2 C 23.1 3.4 23 3.8 23 4.2 C 23.02 4.21 23 5.6 23 5.6 L 22 5.6 Z M 28.2 5 C 27.8 5.5 27.3 5.7 26.7 5.7 C 26.1 5.7 25.6 5.5 25.2 5.1 C 24.9 4.8 24.7 4.3 24.7 3.7 C 24.7 3.7 24.7 3.7 24.7 3.7 C 24.7 3.2 24.9 2.7 25.2 2.3 C 25.6 2 26 1.8 26.6 1.8 C 27.1 1.8 27.6 2 27.9 2.4 C 28.2 2.8 28.4 3.2 28.4 3.8 C 28.4 3.9 28.4 4 28.4 4.1 C 28.4 4.1 25.8 4.1 25.8 4.1 C 25.8 4.3 25.9 4.5 26.1 4.6 C 26.2 4.8 26.4 4.8 26.7 4.8 C 27 4.8 27.3 4.7 27.6 4.4 C 27.58 4.44 28.2 5 28.2 5 C 28.2 5 28.19 4.98 28.2 5 Z M 25.7 3.4 C 25.7 3.4 27.3 3.4 27.3 3.4 C 27.3 3.2 27.2 3 27.1 2.8 C 26.9 2.7 26.8 2.6 26.6 2.6 C 26.3 2.6 26.2 2.7 26 2.8 C 25.9 3 25.8 3.2 25.7 3.4 Z M 31 5.6 L 33.1 0.7 L 34.1 0.7 L 36.2 5.6 L 35 5.6 L 34.6 4.5 L 32.5 4.5 L 32.1 5.6 L 31 5.6 Z M 32.9 3.5 L 34.2 3.5 L 33.5 2 L 32.9 3.5 Z M 36.8 5.6 L 36.8 0.5 L 37.9 0.5 L 37.9 5.6 L 36.8 5.6 Z M 41 5.4 C 40.8 5.6 40.5 5.7 40.2 5.7 C 39.8 5.7 39.6 5.6 39.4 5.4 C 39.2 5.2 39.1 4.9 39.1 4.5 C 39.09 4.54 39.1 2.8 39.1 2.8 L 38.6 2.8 L 38.6 1.8 L 39.1 1.8 L 39.1 0.9 L 40.2 0.9 L 40.2 1.8 L 41 1.8 L 41 2.8 L 40.2 2.8 C 40.2 2.8 40.15 4.36 40.2 4.4 C 40.2 4.6 40.3 4.7 40.5 4.7 C 40.7 4.7 40.9 4.7 41 4.6 C 41.02 4.59 41 5.4 41 5.4 C 41 5.4 41.02 5.45 41 5.4 Z M 41.9 5.6 L 41.9 0.5 L 42.9 0.5 L 42.9 5.6 L 41.9 5.6 Z M 44 5.6 L 44 1.8 L 45 1.8 L 45 5.6 L 44 5.6 Z M 49.3 6.2 C 49 6.6 48.5 6.7 47.7 6.7 C 47.1 6.7 46.6 6.6 46.1 6.3 C 46.1 6.3 46.4 5.5 46.4 5.5 C 46.8 5.8 47.3 5.9 47.7 5.9 C 48.4 5.9 48.8 5.5 48.8 4.9 C 48.8 4.9 48.8 4.7 48.8 4.7 C 48.6 4.9 48.4 5 48.2 5.1 C 48 5.2 47.8 5.3 47.5 5.3 C 47.1 5.3 46.7 5.1 46.4 4.8 C 46 4.5 45.9 4.1 45.9 3.5 C 45.9 3.5 45.9 3.5 45.9 3.5 C 45.9 3 46 2.6 46.4 2.3 C 46.7 1.9 47.1 1.8 47.5 1.8 C 48 1.8 48.4 2 48.8 2.3 C 48.75 2.34 48.8 1.8 48.8 1.8 L 49.8 1.8 C 49.8 1.8 49.82 4.75 49.8 4.8 C 49.8 5.4 49.7 5.9 49.3 6.2 C 49.3 6.2 49.3 6.2 49.3 6.2 Z M 46.9 3.5 C 46.9 3.8 47 4 47.2 4.2 C 47.4 4.3 47.6 4.4 47.9 4.4 C 48.1 4.4 48.3 4.3 48.5 4.2 C 48.7 4 48.8 3.8 48.8 3.5 C 48.8 3.5 48.8 3.5 48.8 3.5 C 48.8 3.3 48.7 3.1 48.5 2.9 C 48.3 2.7 48.1 2.7 47.9 2.7 C 47.6 2.7 47.4 2.7 47.2 2.9 C 47 3.1 46.9 3.3 46.9 3.5 C 46.94 3.53 46.9 3.5 46.9 3.5 C 46.9 3.5 46.94 3.54 46.9 3.5 Z M 49.3 0.3 C 49.3 0.7 49.1 1 48.9 1.2 C 48.7 1.4 48.4 1.4 48 1.4 C 47.6 1.4 47.3 1.4 47.1 1.2 C 46.8 1 46.7 0.7 46.7 0.3 C 46.7 0.3 47.4 0.3 47.4 0.3 C 47.5 0.6 47.7 0.8 48 0.8 C 48.3 0.8 48.5 0.6 48.6 0.3 C 48.59 0.34 49.3 0.3 49.3 0.3 C 49.3 0.3 49.3 0.34 49.3 0.3 Z M 50.8 5.6 L 50.8 1.8 L 51.9 1.8 L 51.9 5.6 L 50.8 5.6 Z M 54.9 3.9 L 54.9 2.9 L 57.9 2.9 L 57.9 3.9 L 54.9 3.9 Z M 62 5.6 L 62 1.7 L 60.5 1.7 L 60.5 0.7 L 64.6 0.7 L 64.6 1.7 L 63.1 1.7 L 63.1 5.6 L 62 5.6 Z M 65.3 5.6 L 65.3 1.8 L 66.4 1.8 C 66.4 1.8 66.38 2.6 66.4 2.6 C 66.6 2 67 1.8 67.6 1.8 C 67.58 1.78 67.6 2.9 67.6 2.9 C 67.6 2.9 67.52 2.89 67.5 2.9 C 67.2 2.9 66.9 3 66.7 3.2 C 66.5 3.4 66.4 3.8 66.4 4.2 C 66.38 4.21 66.4 5.6 66.4 5.6 L 65.3 5.6 Z M 68.3 1.4 L 68.3 0.5 L 69.4 0.5 L 69.4 1.4 L 68.3 1.4 Z M 68.3 5.6 L 68.3 1.8 L 69.4 1.8 L 69.4 5.6 L 68.3 5.6 Z M 72.6 5.2 C 72.3 5.5 71.9 5.7 71.4 5.7 C 71.1 5.7 70.7 5.6 70.5 5.4 C 70.3 5.2 70.1 4.9 70.1 4.5 C 70.1 4.5 70.1 4.5 70.1 4.5 C 70.1 4.1 70.3 3.8 70.5 3.6 C 70.8 3.4 71.2 3.3 71.6 3.3 C 71.9 3.3 72.3 3.4 72.6 3.5 C 72.6 3.5 72.6 3.4 72.6 3.4 C 72.6 2.9 72.3 2.7 71.8 2.7 C 71.4 2.7 71.1 2.8 70.7 2.9 C 70.7 2.9 70.5 2.1 70.5 2.1 C 70.9 1.9 71.4 1.8 71.9 1.8 C 72.5 1.8 72.9 1.9 73.2 2.2 C 73.4 2.5 73.6 2.9 73.6 3.4 C 73.58 3.42 73.6 5.6 73.6 5.6 L 72.6 5.6 L 72.6 5.2 C 72.6 5.2 72.55 5.19 72.6 5.2 Z M 71.7 4.9 C 72 4.9 72.2 4.9 72.3 4.8 C 72.5 4.6 72.6 4.5 72.6 4.3 C 72.6 4.3 72.6 4.1 72.6 4.1 C 72.4 4 72.1 3.9 71.9 3.9 C 71.7 3.9 71.5 4 71.4 4.1 C 71.2 4.2 71.2 4.3 71.2 4.5 C 71.2 4.5 71.2 4.5 71.2 4.5 C 71.2 4.6 71.2 4.7 71.3 4.8 C 71.4 4.9 71.6 4.9 71.7 4.9 Z M 74.5 5.6 L 74.5 1.8 L 75.6 1.8 C 75.6 1.8 75.56 2.38 75.6 2.4 C 75.9 2 76.2 1.8 76.7 1.8 C 77.1 1.8 77.4 1.9 77.6 2.1 C 77.8 2.4 77.9 2.7 77.9 3.2 C 77.94 3.17 77.9 5.6 77.9 5.6 L 76.9 5.6 C 76.9 5.6 76.87 3.51 76.9 3.5 C 76.9 3 76.7 2.7 76.2 2.7 C 76 2.7 75.9 2.8 75.7 2.9 C 75.6 3.1 75.6 3.3 75.6 3.5 C 75.56 3.51 75.6 5.6 75.6 5.6 L 74.5 5.6 Z M 82.2 6.2 C 81.8 6.6 81.3 6.7 80.5 6.7 C 79.9 6.7 79.4 6.6 78.9 6.3 C 78.9 6.3 79.2 5.5 79.2 5.5 C 79.7 5.8 80.1 5.9 80.5 5.9 C 81.2 5.9 81.6 5.5 81.6 4.9 C 81.6 4.9 81.6 4.7 81.6 4.7 C 81.4 4.9 81.2 5 81 5.1 C 80.9 5.2 80.6 5.3 80.4 5.3 C 79.9 5.3 79.5 5.1 79.2 4.8 C 78.9 4.5 78.7 4.1 78.7 3.5 C 78.7 3.5 78.7 3.5 78.7 3.5 C 78.7 3 78.9 2.6 79.2 2.3 C 79.5 1.9 79.9 1.8 80.4 1.8 C 80.8 1.8 81.2 2 81.6 2.3 C 81.57 2.34 81.6 1.8 81.6 1.8 L 82.6 1.8 C 82.6 1.8 82.63 4.75 82.6 4.8 C 82.6 5.4 82.5 5.9 82.2 6.2 C 82.2 6.2 82.2 6.2 82.2 6.2 Z M 79.8 3.5 C 79.8 3.8 79.8 4 80 4.2 C 80.2 4.3 80.4 4.4 80.7 4.4 C 80.9 4.4 81.2 4.3 81.3 4.2 C 81.5 4 81.6 3.8 81.6 3.5 C 81.6 3.5 81.6 3.5 81.6 3.5 C 81.6 3.3 81.5 3.1 81.3 2.9 C 81.2 2.7 80.9 2.7 80.7 2.7 C 80.4 2.7 80.2 2.7 80 2.9 C 79.8 3.1 79.8 3.3 79.8 3.5 C 79.76 3.53 79.8 3.5 79.8 3.5 C 79.8 3.5 79.76 3.54 79.8 3.5 Z M 83.6 5.6 L 83.6 0.5 L 84.7 0.5 L 84.7 5.6 L 83.6 5.6 Z M 89 5 C 88.6 5.5 88.1 5.7 87.5 5.7 C 86.9 5.7 86.4 5.5 86.1 5.1 C 85.7 4.8 85.5 4.3 85.5 3.7 C 85.5 3.7 85.5 3.7 85.5 3.7 C 85.5 3.2 85.7 2.7 86 2.3 C 86.4 2 86.8 1.8 87.4 1.8 C 88 1.8 88.4 2 88.7 2.4 C 89 2.8 89.2 3.2 89.2 3.8 C 89.2 3.9 89.2 4 89.2 4.1 C 89.2 4.1 86.6 4.1 86.6 4.1 C 86.6 4.3 86.7 4.5 86.9 4.6 C 87 4.8 87.2 4.8 87.5 4.8 C 87.8 4.8 88.1 4.7 88.4 4.4 C 88.4 4.44 89 5 89 5 C 89 5 89.01 4.98 89 5 Z M 86.6 3.4 C 86.6 3.4 88.2 3.4 88.2 3.4 C 88.1 3.2 88 3 87.9 2.8 C 87.8 2.7 87.6 2.6 87.4 2.6 C 87.2 2.6 87 2.7 86.8 2.8 C 86.7 3 86.6 3.2 86.6 3.4 Z M 91.3 5.7 C 90.7 5.7 90.2 5.5 89.7 5.1 C 89.7 5.1 90.2 4.4 90.2 4.4 C 90.6 4.7 91 4.9 91.3 4.9 C 91.6 4.9 91.8 4.8 91.8 4.6 C 91.8 4.6 91.8 4.6 91.8 4.6 C 91.8 4.5 91.8 4.5 91.8 4.5 C 91.8 4.4 91.7 4.4 91.7 4.4 C 91.7 4.4 91.6 4.4 91.6 4.3 C 91.6 4.3 91.5 4.3 91.5 4.3 C 91.4 4.3 91.4 4.2 91.3 4.2 C 91.3 4.2 91.2 4.2 91.2 4.2 C 91.1 4.2 91 4.1 91 4.1 C 90.9 4.1 90.7 4 90.6 4 C 90.5 3.9 90.4 3.9 90.3 3.8 C 90.1 3.7 90 3.6 90 3.5 C 89.9 3.3 89.9 3.2 89.9 3 C 89.9 3 89.9 3 89.9 3 C 89.9 2.6 90 2.3 90.3 2.1 C 90.5 1.9 90.9 1.8 91.3 1.8 C 91.8 1.8 92.2 1.9 92.7 2.2 C 92.7 2.2 92.3 3 92.3 3 C 91.9 2.7 91.5 2.6 91.2 2.6 C 91.1 2.6 91 2.6 90.9 2.7 C 90.9 2.7 90.8 2.8 90.8 2.9 C 90.8 2.9 90.8 2.9 90.8 2.9 C 90.8 3 90.9 3 91 3.1 C 91.2 3.2 91.4 3.3 91.6 3.3 C 91.8 3.4 91.9 3.4 92 3.5 C 92.1 3.5 92.2 3.6 92.4 3.7 C 92.5 3.8 92.6 3.9 92.6 4 C 92.7 4.1 92.7 4.3 92.7 4.4 C 92.7 4.4 92.7 4.5 92.7 4.5 C 92.7 4.9 92.6 5.2 92.3 5.4 C 92.1 5.6 91.7 5.7 91.3 5.7 Z " stroke="none" fill="#000"/>  </g></svg>