<?xml version="1.0" standalone="no"?><!DOCTYPE svg PUBLIC "-//W3C//DTD SVG 1.1//EN" "http://www.w3.org/Graphics/SVG/1.1/DTD/svg11.dtd"><svg xmlns="http://www.w3.org/2000/svg" version="1.1" width="461px" height="249.2px" viewBox="0 -8 461 249.2" style="top:-8px">  <desc>DIISH: Yerden tasarruf sa layan tasar m</desc>  <defs/>  <g id="Polygon57213">    <path d="M 12.2 112.6 C 7.8 112.6 3.9 111.3 0.5 108.8 C 0.5 108.8 3.8 103.6 3.8 103.6 C 6.7 105.5 9.5 106.4 12.3 106.4 C 13.8 106.4 14.5 106 14.5 105.1 C 14.5 105.1 14.5 105 14.5 105 C 14.5 104.5 14.3 104.1 13.7 103.9 C 13.1 103.6 12.1 103.3 10.5 102.8 C 7.6 102.1 5.4 101.2 3.9 100 C 2.4 98.9 1.7 97.2 1.7 94.9 C 1.7 94.9 1.7 94.8 1.7 94.8 C 1.7 92.3 2.6 90.2 4.4 88.8 C 6.3 87.3 8.7 86.6 11.6 86.6 C 15.4 86.6 18.9 87.6 21.9 89.5 C 21.9 89.5 18.9 95 18.9 95 C 16.2 93.5 13.7 92.7 11.5 92.7 C 10.2 92.7 9.5 93.1 9.5 93.9 C 9.5 93.9 9.5 94 9.5 94 C 9.5 94.4 9.8 94.8 10.4 95.1 C 11 95.4 12 95.8 13.6 96.2 C 16.5 97 18.6 97.9 20.1 99.1 C 21.7 100.2 22.4 101.9 22.4 104.1 C 22.4 104.1 22.4 104.2 22.4 104.2 C 22.4 106.9 21.5 108.9 19.6 110.4 C 17.8 111.8 15.3 112.6 12.2 112.6 Z M 40.5 109.4 C 38.5 111.5 36 112.6 33.1 112.6 C 30.7 112.6 28.7 111.9 27.1 110.5 C 25.6 109.1 24.8 107.3 24.8 104.9 C 24.8 104.9 24.8 104.8 24.8 104.8 C 24.8 102.2 25.7 100.3 27.4 99 C 29.2 97.6 31.5 97 34.5 97 C 36.9 97 38.9 97.3 40.5 97.9 C 40.5 97.9 40.5 97.5 40.5 97.5 C 40.5 94.8 38.9 93.4 35.6 93.4 C 33.3 93.4 31 93.9 28.7 94.8 C 28.7 94.8 26.9 88.7 26.9 88.7 C 30 87.4 33.3 86.7 36.9 86.7 C 41.2 86.7 44.4 87.8 46.4 89.8 C 48.2 91.5 49.1 94.2 49.1 97.7 C 49.08 97.69 49.1 112 49.1 112 L 40.5 112 L 40.5 109.4 C 40.5 109.4 40.48 109.38 40.5 109.4 Z M 36.2 107.1 C 37.5 107.1 38.6 106.7 39.4 106 C 40.2 105.2 40.6 104.2 40.6 103 C 40.6 103 40.6 101.8 40.6 101.8 C 39.5 101.4 38.4 101.2 37.2 101.2 C 35.9 101.2 34.9 101.5 34.2 102 C 33.5 102.6 33.2 103.3 33.2 104.3 C 33.2 104.3 33.2 104.4 33.2 104.4 C 33.2 105.2 33.4 105.9 34 106.3 C 34.6 106.8 35.3 107.1 36.2 107.1 Z M 76.7 116 C 74.5 118.3 70.8 119.5 65.8 119.5 C 61.2 119.5 57.1 118.5 53.4 116.6 C 53.4 116.6 56.2 110.8 56.2 110.8 C 59 112.4 61.9 113.1 64.9 113.1 C 69.2 113.1 71.3 111.1 71.3 107 C 71.3 107 71.3 106.1 71.3 106.1 C 69.1 108.5 66.6 109.8 63.7 109.8 C 60.6 109.8 57.9 108.7 55.8 106.6 C 53.7 104.5 52.6 101.7 52.6 98.2 C 52.6 98.2 52.6 98.2 52.6 98.2 C 52.6 94.7 53.7 91.9 55.8 89.8 C 57.9 87.6 60.4 86.6 63.4 86.6 C 66.4 86.6 69 87.7 71.2 90.1 C 71.21 90.06 71.2 87.1 71.2 87.1 L 79.9 87.1 C 79.9 87.1 79.95 106.02 79.9 106 C 79.9 110.5 78.9 113.8 76.7 116 C 76.7 116 76.7 116 76.7 116 Z M 66.3 103.1 C 67.8 103.1 69 102.6 69.9 101.7 C 70.9 100.8 71.4 99.6 71.4 98.2 C 71.4 98.2 71.4 98.2 71.4 98.2 C 71.4 96.8 70.9 95.6 69.9 94.7 C 69 93.8 67.8 93.3 66.3 93.3 C 64.8 93.3 63.6 93.8 62.6 94.7 C 61.7 95.6 61.2 96.8 61.2 98.2 C 61.2 98.2 61.2 98.3 61.2 98.3 C 61.2 99.7 61.7 100.8 62.6 101.7 C 63.6 102.6 64.8 103.1 66.3 103.1 Z M 76.2 77.2 C 76 79.6 75.1 81.5 73.5 82.9 C 71.9 84.2 69.8 84.9 67.2 84.9 C 64.6 84.9 62.5 84.2 60.9 82.9 C 59.3 81.6 58.3 79.7 58.1 77.2 C 58.1 77.2 63.2 77.2 63.2 77.2 C 63.8 79 65.1 79.9 67.2 79.9 C 69.2 79.9 70.5 79 71.1 77.2 C 71.12 77.22 76.2 77.2 76.2 77.2 C 76.2 77.2 76.22 77.22 76.2 77.2 Z M 84.9 112 L 84.9 78.4 L 93.6 78.4 L 93.6 112 L 84.9 112 Z M 113 109.4 C 111 111.5 108.5 112.6 105.6 112.6 C 103.2 112.6 101.2 111.9 99.6 110.5 C 98.1 109.1 97.3 107.3 97.3 104.9 C 97.3 104.9 97.3 104.8 97.3 104.8 C 97.3 102.2 98.2 100.3 99.9 99 C 101.7 97.6 104 97 107 97 C 109.4 97 111.4 97.3 113 97.9 C 113 97.9 113 97.5 113 97.5 C 113 94.8 111.4 93.4 108.1 93.4 C 105.8 93.4 103.5 93.9 101.2 94.8 C 101.2 94.8 99.4 88.7 99.4 88.7 C 102.5 87.4 105.8 86.7 109.4 86.7 C 113.7 86.7 116.9 87.8 118.9 89.8 C 120.7 91.5 121.6 94.2 121.6 97.7 C 121.58 97.69 121.6 112 121.6 112 L 113 112 L 113 109.4 C 113 109.4 112.98 109.38 113 109.4 Z M 108.7 107.1 C 110 107.1 111.1 106.7 111.9 106 C 112.7 105.2 113.1 104.2 113.1 103 C 113.1 103 113.1 101.8 113.1 101.8 C 112 101.4 110.9 101.2 109.7 101.2 C 108.4 101.2 107.4 101.5 106.7 102 C 106 102.6 105.7 103.3 105.7 104.3 C 105.7 104.3 105.7 104.4 105.7 104.4 C 105.7 105.2 105.9 105.9 106.5 106.3 C 107.1 106.8 107.8 107.1 108.7 107.1 Z M 138.3 102.1 L 143 87.1 L 152 87.1 C 152 87.1 142.88 111.4 142.9 111.4 C 141.7 114.4 140.5 116.5 139.1 117.7 C 137.8 118.9 135.9 119.5 133.4 119.5 C 130.6 119.5 128 118.8 125.4 117.3 C 125.4 117.3 128.1 111.2 128.1 111.2 C 129.6 112.1 130.8 112.6 131.9 112.6 C 132.8 112.6 133.5 112.2 134 111.5 C 134 111.54 124.2 87.1 124.2 87.1 L 133.4 87.1 L 138.3 102.1 Z M 169.3 109.4 C 167.3 111.5 164.8 112.6 162 112.6 C 159.5 112.6 157.5 111.9 156 110.5 C 154.4 109.1 153.6 107.3 153.6 104.9 C 153.6 104.9 153.6 104.8 153.6 104.8 C 153.6 102.2 154.5 100.3 156.3 99 C 158 97.6 160.4 97 163.4 97 C 165.7 97 167.7 97.3 169.4 97.9 C 169.4 97.9 169.4 97.5 169.4 97.5 C 169.4 94.8 167.7 93.4 164.4 93.4 C 162.2 93.4 159.9 93.9 157.5 94.8 C 157.5 94.8 155.7 88.7 155.7 88.7 C 158.8 87.4 162.2 86.7 165.8 86.7 C 170.1 86.7 173.2 87.8 175.3 89.8 C 177 91.5 177.9 94.2 177.9 97.7 C 177.93 97.69 177.9 112 177.9 112 L 169.3 112 L 169.3 109.4 C 169.3 109.4 169.32 109.38 169.3 109.4 Z M 165.1 107.1 C 166.4 107.1 167.4 106.7 168.2 106 C 169.1 105.2 169.5 104.2 169.5 103 C 169.5 103 169.5 101.8 169.5 101.8 C 168.4 101.4 167.2 101.2 166 101.2 C 164.7 101.2 163.7 101.5 163 102 C 162.4 102.6 162 103.3 162 104.3 C 162 104.3 162 104.4 162 104.4 C 162 105.2 162.3 105.9 162.9 106.3 C 163.4 106.8 164.2 107.1 165.1 107.1 Z M 182.4 112 L 182.4 87.1 L 191.1 87.1 C 191.1 87.1 191.13 90.61 191.1 90.6 C 193.2 87.9 195.7 86.6 198.6 86.6 C 201.2 86.6 203.3 87.4 204.8 89 C 206.3 90.6 207 92.9 207 95.7 C 207.04 95.72 207 112 207 112 L 198.4 112 C 198.4 112 198.35 98.52 198.4 98.5 C 198.4 97.2 198 96.1 197.4 95.4 C 196.8 94.7 195.9 94.3 194.8 94.3 C 193.7 94.3 192.8 94.7 192.1 95.4 C 191.5 96.1 191.1 97.2 191.1 98.5 C 191.13 98.52 191.1 112 191.1 112 L 182.4 112 Z M 241.3 111 C 239.5 112 237.5 112.5 235.2 112.5 C 232.5 112.5 230.4 111.9 229 110.6 C 227.6 109.2 226.9 107.2 226.9 104.3 C 226.92 104.27 226.9 94.1 226.9 94.1 L 224 94.1 L 224 87.1 L 226.9 87.1 L 226.9 80.8 L 235.6 80.8 L 235.6 87.1 L 241.4 87.1 L 241.4 94.1 L 235.6 94.1 C 235.6 94.1 235.61 102.57 235.6 102.6 C 235.6 104.2 236.4 105.1 238 105.1 C 239 105.1 240.1 104.8 241.3 104.2 C 241.31 104.23 241.3 111 241.3 111 C 241.3 111 241.31 111.03 241.3 111 Z M 259.7 109.4 C 257.6 111.5 255.2 112.6 252.3 112.6 C 249.9 112.6 247.9 111.9 246.3 110.5 C 244.8 109.1 244 107.3 244 104.9 C 244 104.9 244 104.8 244 104.8 C 244 102.2 244.9 100.3 246.6 99 C 248.4 97.6 250.7 97 253.7 97 C 256.1 97 258.1 97.3 259.7 97.9 C 259.7 97.9 259.7 97.5 259.7 97.5 C 259.7 94.8 258.1 93.4 254.7 93.4 C 252.5 93.4 250.2 93.9 247.8 94.8 C 247.8 94.8 246.1 88.7 246.1 88.7 C 249.2 87.4 252.5 86.7 256.1 86.7 C 260.4 86.7 263.6 87.8 265.6 89.8 C 267.4 91.5 268.3 94.2 268.3 97.7 C 268.27 97.69 268.3 112 268.3 112 L 259.7 112 L 259.7 109.4 C 259.7 109.4 259.67 109.38 259.7 109.4 Z M 255.4 107.1 C 256.7 107.1 257.8 106.7 258.6 106 C 259.4 105.2 259.8 104.2 259.8 103 C 259.8 103 259.8 101.8 259.8 101.8 C 258.7 101.4 257.6 101.2 256.4 101.2 C 255.1 101.2 254.1 101.5 253.4 102 C 252.7 102.6 252.4 103.3 252.4 104.3 C 252.4 104.3 252.4 104.4 252.4 104.4 C 252.4 105.2 252.6 105.9 253.2 106.3 C 253.8 106.8 254.5 107.1 255.4 107.1 Z M 282.6 112.6 C 278.2 112.6 274.3 111.3 270.9 108.8 C 270.9 108.8 274.2 103.6 274.2 103.6 C 277.1 105.5 279.9 106.4 282.7 106.4 C 284.2 106.4 284.9 106 284.9 105.1 C 284.9 105.1 284.9 105 284.9 105 C 284.9 104.5 284.6 104.1 284.1 103.9 C 283.5 103.6 282.4 103.3 280.9 102.8 C 278 102.1 275.8 101.2 274.3 100 C 272.8 98.9 272 97.2 272 94.9 C 272 94.9 272 94.8 272 94.8 C 272 92.3 273 90.2 274.8 88.8 C 276.7 87.3 279.1 86.6 282 86.6 C 285.8 86.6 289.2 87.6 292.3 89.5 C 292.3 89.5 289.3 95 289.3 95 C 286.6 93.5 284.1 92.7 281.9 92.7 C 280.6 92.7 279.9 93.1 279.9 93.9 C 279.9 93.9 279.9 94 279.9 94 C 279.9 94.4 280.2 94.8 280.8 95.1 C 281.4 95.4 282.4 95.8 284 96.2 C 286.8 97 289 97.9 290.5 99.1 C 292 100.2 292.8 101.9 292.8 104.1 C 292.8 104.1 292.8 104.2 292.8 104.2 C 292.8 106.9 291.9 108.9 290 110.4 C 288.2 111.8 285.7 112.6 282.6 112.6 Z M 310.9 109.4 C 308.8 111.5 306.4 112.6 303.5 112.6 C 301.1 112.6 299.1 111.9 297.5 110.5 C 296 109.1 295.2 107.3 295.2 104.9 C 295.2 104.9 295.2 104.8 295.2 104.8 C 295.2 102.2 296.1 100.3 297.8 99 C 299.5 97.6 301.9 97 304.9 97 C 307.3 97 309.3 97.3 310.9 97.9 C 310.9 97.9 310.9 97.5 310.9 97.5 C 310.9 94.8 309.3 93.4 305.9 93.4 C 303.7 93.4 301.4 93.9 299 94.8 C 299 94.8 297.2 88.7 297.2 88.7 C 300.4 87.4 303.7 86.7 307.3 86.7 C 311.6 86.7 314.8 87.8 316.8 89.8 C 318.6 91.5 319.5 94.2 319.5 97.7 C 319.47 97.69 319.5 112 319.5 112 L 310.9 112 L 310.9 109.4 C 310.9 109.4 310.87 109.38 310.9 109.4 Z M 306.6 107.1 C 307.9 107.1 309 106.7 309.8 106 C 310.6 105.2 311 104.2 311 103 C 311 103 311 101.8 311 101.8 C 309.9 101.4 308.8 101.2 307.6 101.2 C 306.3 101.2 305.3 101.5 304.6 102 C 303.9 102.6 303.6 103.3 303.6 104.3 C 303.6 104.3 303.6 104.4 303.6 104.4 C 303.6 105.2 303.8 105.9 304.4 106.3 C 305 106.8 305.7 107.1 306.6 107.1 Z M 323.9 112 L 323.9 87.1 L 332.7 87.1 C 332.7 87.1 332.67 92.13 332.7 92.1 C 334.3 88.4 336.9 86.5 340.5 86.7 C 340.54 86.7 340.5 95.9 340.5 95.9 C 340.5 95.9 339.8 95.9 339.8 95.9 C 335 95.9 332.7 98.7 332.7 104.2 C 332.67 104.23 332.7 112 332.7 112 L 323.9 112 Z M 343.8 112 L 343.8 87.1 L 352.5 87.1 L 352.5 112 L 343.8 112 Z M 357.5 112 L 357.5 87.1 L 366.2 87.1 C 366.2 87.1 366.2 90.52 366.2 90.5 C 368.3 87.9 370.7 86.6 373.6 86.6 C 377 86.6 379.4 87.9 380.8 90.6 C 383.1 87.9 385.9 86.6 389.1 86.6 C 391.8 86.6 393.9 87.4 395.4 88.9 C 396.9 90.5 397.6 92.8 397.6 95.7 C 397.62 95.67 397.6 112 397.6 112 L 388.9 112 C 388.9 112 388.88 98.48 388.9 98.5 C 388.9 97.1 388.6 96.1 388 95.4 C 387.3 94.7 386.5 94.3 385.5 94.3 C 384.4 94.3 383.5 94.7 382.9 95.4 C 382.2 96.1 381.9 97.1 381.9 98.5 C 381.89 98.48 381.9 112 381.9 112 L 373.2 112 C 373.2 112 373.19 98.48 373.2 98.5 C 373.2 97.1 372.9 96.1 372.3 95.4 C 371.7 94.7 370.8 94.3 369.7 94.3 C 368.7 94.3 367.8 94.7 367.2 95.4 C 366.5 96.1 366.2 97.1 366.2 98.5 C 366.2 98.48 366.2 112 366.2 112 L 357.5 112 Z " stroke="none" fill="#fff"/>  </g>  <g id="Polygon57212">    <path d="M 12.2 68 L 12.2 55.9 L -0.1 35.8 L 10.1 35.8 L 16.7 47.5 L 23.4 35.8 L 33.3 35.8 L 21.1 55.8 L 21.1 68 L 12.2 68 Z M 58.7 63.5 C 56.1 66.9 52.5 68.6 48 68.6 C 44.1 68.6 40.8 67.4 38.4 65 C 35.9 62.6 34.6 59.5 34.6 55.7 C 34.6 55.7 34.6 55.6 34.6 55.6 C 34.6 51.9 35.8 48.8 38.2 46.3 C 40.5 43.8 43.5 42.6 47.2 42.6 C 51.3 42.6 54.4 43.9 56.5 46.4 C 58.6 49 59.7 52.3 59.7 56.2 C 59.7 57 59.7 57.6 59.7 58 C 59.7 58 43 58 43 58 C 43.7 60.7 45.5 62.1 48.4 62.1 C 50.4 62.1 52.2 61.2 53.9 59.5 C 53.91 59.54 58.7 63.5 58.7 63.5 C 58.7 63.5 58.74 63.54 58.7 63.5 Z M 42.9 53.5 C 42.9 53.5 51.6 53.5 51.6 53.5 C 51.4 52.1 50.9 51 50.2 50.2 C 49.4 49.4 48.4 49 47.2 49 C 46.1 49 45.1 49.4 44.4 50.2 C 43.6 51 43.1 52.1 42.9 53.5 Z M 63.5 68 L 63.5 43.1 L 72.2 43.1 C 72.2 43.1 72.22 48.13 72.2 48.1 C 73.8 44.4 76.4 42.5 80.1 42.7 C 80.09 42.7 80.1 51.9 80.1 51.9 C 80.1 51.9 79.35 51.9 79.3 51.9 C 74.6 51.9 72.2 54.7 72.2 60.2 C 72.22 60.23 72.2 68 72.2 68 L 63.5 68 Z M 100.8 64.7 C 98.7 67.3 96.2 68.6 93.3 68.6 C 90.2 68.6 87.6 67.4 85.5 65 C 83.3 62.6 82.2 59.5 82.2 55.7 C 82.2 55.7 82.2 55.6 82.2 55.6 C 82.2 51.7 83.3 48.5 85.4 46.1 C 87.6 43.8 90.2 42.6 93.2 42.6 C 96.2 42.6 98.8 43.8 100.8 46.1 C 100.83 46.15 100.8 34.4 100.8 34.4 L 109.6 34.4 L 109.6 68 L 100.8 68 L 100.8 64.7 C 100.8 64.7 100.83 64.69 100.8 64.7 Z M 95.9 61.2 C 97.3 61.2 98.6 60.7 99.5 59.6 C 100.5 58.6 101 57.2 101 55.6 C 101 55.6 101 55.5 101 55.5 C 101 53.9 100.5 52.5 99.5 51.4 C 98.6 50.4 97.3 49.8 95.9 49.8 C 94.5 49.8 93.3 50.4 92.3 51.4 C 91.3 52.5 90.8 53.9 90.8 55.5 C 90.8 55.5 90.8 55.6 90.8 55.6 C 90.8 57.2 91.3 58.6 92.3 59.6 C 93.3 60.7 94.5 61.2 95.9 61.2 Z M 137.4 63.5 C 134.8 66.9 131.2 68.6 126.6 68.6 C 122.7 68.6 119.5 67.4 117 65 C 114.5 62.6 113.3 59.5 113.3 55.7 C 113.3 55.7 113.3 55.6 113.3 55.6 C 113.3 51.9 114.5 48.8 116.8 46.3 C 119.2 43.8 122.2 42.6 125.9 42.6 C 129.9 42.6 133 43.9 135.2 46.4 C 137.3 49 138.4 52.3 138.4 56.2 C 138.4 57 138.4 57.6 138.3 58 C 138.3 58 121.7 58 121.7 58 C 122.3 60.7 124.1 62.1 127.1 62.1 C 129 62.1 130.9 61.2 132.6 59.5 C 132.57 59.54 137.4 63.5 137.4 63.5 C 137.4 63.5 137.4 63.54 137.4 63.5 Z M 121.5 53.5 C 121.5 53.5 130.2 53.5 130.2 53.5 C 130.1 52.1 129.6 51 128.8 50.2 C 128 49.4 127.1 49 125.9 49 C 124.7 49 123.8 49.4 123 50.2 C 122.3 51 121.8 52.1 121.5 53.5 Z M 142.1 68 L 142.1 43.1 L 150.9 43.1 C 150.9 43.1 150.88 46.61 150.9 46.6 C 153 43.9 155.4 42.6 158.3 42.6 C 161 42.6 163.1 43.4 164.6 45 C 166.1 46.6 166.8 48.9 166.8 51.7 C 166.79 51.72 166.8 68 166.8 68 L 158.1 68 C 158.1 68 158.1 54.52 158.1 54.5 C 158.1 53.2 157.8 52.1 157.2 51.4 C 156.5 50.7 155.7 50.3 154.6 50.3 C 153.5 50.3 152.6 50.7 151.9 51.4 C 151.2 52.1 150.9 53.2 150.9 54.5 C 150.88 54.52 150.9 68 150.9 68 L 142.1 68 Z M 201.1 67 C 199.3 68 197.2 68.5 195 68.5 C 192.3 68.5 190.2 67.9 188.8 66.6 C 187.4 65.2 186.7 63.2 186.7 60.3 C 186.66 60.27 186.7 50.1 186.7 50.1 L 183.7 50.1 L 183.7 43.1 L 186.7 43.1 L 186.7 36.8 L 195.4 36.8 L 195.4 43.1 L 201.2 43.1 L 201.2 50.1 L 195.4 50.1 C 195.4 50.1 195.36 58.57 195.4 58.6 C 195.4 60.2 196.2 61.1 197.8 61.1 C 198.8 61.1 199.9 60.8 201.1 60.2 C 201.06 60.23 201.1 67 201.1 67 C 201.1 67 201.06 67.03 201.1 67 Z M 219.4 65.4 C 217.4 67.5 214.9 68.6 212.1 68.6 C 209.6 68.6 207.6 67.9 206.1 66.5 C 204.5 65.1 203.7 63.3 203.7 60.9 C 203.7 60.9 203.7 60.8 203.7 60.8 C 203.7 58.2 204.6 56.3 206.4 55 C 208.1 53.6 210.5 53 213.5 53 C 215.8 53 217.8 53.3 219.5 53.9 C 219.5 53.9 219.5 53.5 219.5 53.5 C 219.5 50.8 217.8 49.4 214.5 49.4 C 212.3 49.4 210 49.9 207.6 50.8 C 207.6 50.8 205.8 44.7 205.8 44.7 C 208.9 43.4 212.3 42.7 215.9 42.7 C 220.2 42.7 223.3 43.8 225.4 45.8 C 227.1 47.5 228 50.2 228 53.7 C 228.02 53.69 228 68 228 68 L 219.4 68 L 219.4 65.4 C 219.4 65.4 219.42 65.38 219.4 65.4 Z M 215.2 63.1 C 216.5 63.1 217.5 62.7 218.3 62 C 219.1 61.2 219.6 60.2 219.6 59 C 219.6 59 219.6 57.8 219.6 57.8 C 218.5 57.4 217.3 57.2 216.1 57.2 C 214.8 57.2 213.8 57.5 213.1 58 C 212.4 58.6 212.1 59.3 212.1 60.3 C 212.1 60.3 212.1 60.4 212.1 60.4 C 212.1 61.2 212.4 61.9 213 62.3 C 213.5 62.8 214.3 63.1 215.2 63.1 Z M 242.4 68.6 C 237.9 68.6 234 67.3 230.6 64.8 C 230.6 64.8 233.9 59.6 233.9 59.6 C 236.8 61.5 239.7 62.4 242.4 62.4 C 243.9 62.4 244.7 62 244.7 61.1 C 244.7 61.1 244.7 61 244.7 61 C 244.7 60.5 244.4 60.1 243.8 59.9 C 243.3 59.6 242.2 59.3 240.6 58.8 C 237.7 58.1 235.5 57.2 234 56 C 232.5 54.9 231.8 53.2 231.8 50.9 C 231.8 50.9 231.8 50.8 231.8 50.8 C 231.8 48.3 232.7 46.2 234.6 44.8 C 236.4 43.3 238.8 42.6 241.8 42.6 C 245.6 42.6 249 43.6 252 45.5 C 252 45.5 249 51 249 51 C 246.3 49.5 243.9 48.7 241.7 48.7 C 240.3 48.7 239.7 49.1 239.7 49.9 C 239.7 49.9 239.7 50 239.7 50 C 239.7 50.4 239.9 50.8 240.5 51.1 C 241.1 51.4 242.2 51.8 243.7 52.2 C 246.6 53 248.8 53.9 250.3 55.1 C 251.8 56.2 252.5 57.9 252.5 60.1 C 252.5 60.1 252.5 60.2 252.5 60.2 C 252.5 62.9 251.6 64.9 249.8 66.4 C 247.9 67.8 245.5 68.6 242.4 68.6 Z M 270.6 65.4 C 268.6 67.5 266.1 68.6 263.3 68.6 C 260.8 68.6 258.8 67.9 257.3 66.5 C 255.7 65.1 254.9 63.3 254.9 60.9 C 254.9 60.9 254.9 60.8 254.9 60.8 C 254.9 58.2 255.8 56.3 257.6 55 C 259.3 53.6 261.7 53 264.7 53 C 267 53 269 53.3 270.7 53.9 C 270.7 53.9 270.7 53.5 270.7 53.5 C 270.7 50.8 269 49.4 265.7 49.4 C 263.5 49.4 261.2 49.9 258.8 50.8 C 258.8 50.8 257 44.7 257 44.7 C 260.1 43.4 263.5 42.7 267.1 42.7 C 271.4 42.7 274.5 43.8 276.5 45.8 C 278.3 47.5 279.2 50.2 279.2 53.7 C 279.22 53.69 279.2 68 279.2 68 L 270.6 68 L 270.6 65.4 C 270.6 65.4 270.61 65.38 270.6 65.4 Z M 266.4 63.1 C 267.7 63.1 268.7 62.7 269.5 62 C 270.3 61.2 270.8 60.2 270.8 59 C 270.8 59 270.8 57.8 270.8 57.8 C 269.7 57.4 268.5 57.2 267.3 57.2 C 266 57.2 265 57.5 264.3 58 C 263.6 58.6 263.3 59.3 263.3 60.3 C 263.3 60.3 263.3 60.4 263.3 60.4 C 263.3 61.2 263.6 61.9 264.2 62.3 C 264.7 62.8 265.5 63.1 266.4 63.1 Z M 283.7 68 L 283.7 43.1 L 292.4 43.1 C 292.4 43.1 292.42 48.13 292.4 48.1 C 294 44.4 296.6 42.5 300.3 42.7 C 300.28 42.7 300.3 51.9 300.3 51.9 C 300.3 51.9 299.55 51.9 299.5 51.9 C 294.8 51.9 292.4 54.7 292.4 60.2 C 292.42 60.23 292.4 68 292.4 68 L 283.7 68 Z M 303.4 68 L 303.4 43.1 L 312.1 43.1 C 312.1 43.1 312.11 48.13 312.1 48.1 C 313.7 44.4 316.3 42.5 320 42.7 C 319.97 42.7 320 51.9 320 51.9 C 320 51.9 319.24 51.9 319.2 51.9 C 314.5 51.9 312.1 54.7 312.1 60.2 C 312.11 60.23 312.1 68 312.1 68 L 303.4 68 Z M 338.8 64.5 C 336.8 67.2 334.3 68.6 331.4 68.6 C 328.7 68.6 326.6 67.7 325.1 66.1 C 323.6 64.5 322.9 62.2 322.9 59.4 C 322.87 59.35 322.9 43.1 322.9 43.1 L 331.6 43.1 C 331.6 43.1 331.61 56.59 331.6 56.6 C 331.6 57.9 331.9 59 332.6 59.7 C 333.2 60.4 334 60.8 335.2 60.8 C 336.3 60.8 337.1 60.4 337.8 59.7 C 338.5 59 338.8 57.9 338.8 56.6 C 338.83 56.59 338.8 43.1 338.8 43.1 L 347.5 43.1 L 347.5 68 L 338.8 68 L 338.8 64.5 C 338.8 64.5 338.83 64.55 338.8 64.5 Z M 353.8 68 L 353.8 50.1 L 350.9 50.1 L 350.9 43.2 L 353.8 43.2 C 353.8 43.2 353.78 42.7 353.8 42.7 C 353.8 39.8 354.5 37.7 355.9 36.3 C 357.3 34.8 359.5 34.1 362.4 34.1 C 364.7 34.1 366.6 34.3 368.1 34.8 C 368.1 34.8 368.1 41 368.1 41 C 367 40.6 365.9 40.4 364.8 40.4 C 363.2 40.4 362.3 41.2 362.3 42.8 C 362.34 42.79 362.3 43.4 362.3 43.4 L 368.1 43.4 L 368.1 50.1 L 362.5 50.1 L 362.5 68 L 353.8 68 Z " stroke="none" fill="#fff"/>  </g>  <g id="Polygon57211">    <path d="M 1.9 24 L 1.9 7.9 C 1.9 7.9 8.21 7.9 8.2 7.9 C 10.7 7.9 12.8 8.7 14.4 10.2 C 16 11.7 16.8 13.6 16.8 15.9 C 16.8 15.9 16.8 15.9 16.8 15.9 C 16.8 18.2 16 20.2 14.4 21.7 C 12.8 23.2 10.7 24 8.2 24 C 8.21 24 1.9 24 1.9 24 Z M 8.2 11.1 C 8.21 11.1 5.5 11.1 5.5 11.1 L 5.5 20.8 C 5.5 20.8 8.21 20.8 8.2 20.8 C 9.7 20.8 10.8 20.4 11.7 19.5 C 12.6 18.6 13.1 17.4 13.1 16 C 13.1 16 13.1 15.9 13.1 15.9 C 13.1 14.5 12.6 13.4 11.7 12.5 C 10.8 11.5 9.7 11.1 8.2 11.1 Z M 20.1 24 L 20.1 7.9 L 23.6 7.9 L 23.6 24 L 20.1 24 Z M 27.8 24 L 27.8 7.9 L 31.3 7.9 L 31.3 24 L 27.8 24 Z M 41.1 24.2 C 38.4 24.2 36.2 23.4 34.3 21.7 C 34.3 21.7 36.4 19.1 36.4 19.1 C 38 20.5 39.6 21.1 41.2 21.1 C 41.9 21.1 42.5 21 42.9 20.7 C 43.3 20.4 43.5 20.1 43.5 19.6 C 43.5 19.6 43.5 19.5 43.5 19.5 C 43.5 19.1 43.3 18.7 42.8 18.4 C 42.4 18.1 41.6 17.8 40.2 17.5 C 39.3 17.3 38.6 17 38 16.8 C 37.4 16.6 36.9 16.3 36.4 15.9 C 35.9 15.6 35.5 15.1 35.3 14.5 C 35 14 34.9 13.3 34.9 12.6 C 34.9 12.6 34.9 12.5 34.9 12.5 C 34.9 11.1 35.4 9.9 36.5 9 C 37.5 8.1 38.9 7.7 40.5 7.7 C 42.8 7.7 44.8 8.4 46.5 9.7 C 46.5 9.7 44.7 12.4 44.7 12.4 C 43.1 11.3 41.7 10.8 40.5 10.8 C 39.8 10.8 39.3 10.9 39 11.2 C 38.6 11.4 38.4 11.8 38.4 12.2 C 38.4 12.2 38.4 12.2 38.4 12.2 C 38.4 12.8 38.7 13.2 39.1 13.4 C 39.5 13.7 40.5 14 41.9 14.4 C 43.7 14.8 44.9 15.4 45.8 16.1 C 46.6 16.8 47 17.9 47 19.2 C 47 19.2 47 19.2 47 19.2 C 47 20.8 46.5 22 45.4 22.9 C 44.3 23.8 42.9 24.2 41.1 24.2 Z M 50.1 24 L 50.1 7.9 L 53.6 7.9 L 53.6 14.3 L 60.2 14.3 L 60.2 7.9 L 63.7 7.9 L 63.7 24 L 60.2 24 L 60.2 17.5 L 53.6 17.5 L 53.6 24 L 50.1 24 Z M 67.2 15.4 L 67.2 11.7 L 70.9 11.7 L 70.9 15.4 L 67.2 15.4 Z M 67.2 24 L 67.2 20.3 L 70.9 20.3 L 70.9 24 L 67.2 24 Z " stroke="none" fill="#fff"/>  </g></svg>