<?xml version="1.0" standalone="no"?><!DOCTYPE svg PUBLIC "-//W3C//DTD SVG 1.1//EN" "http://www.w3.org/Graphics/SVG/1.1/DTD/svg11.dtd"><svg xmlns="http://www.w3.org/2000/svg" version="1.1" width="110.2px" height="67.4px" viewBox="0 -3 110.2 67.4" style="top:-3px">  <desc>Tuz ve Biber Seti – Singles r n Kodu: ZD 10542 Renk: Black ABS / Metal L 6,5 cm, W 3,3 cm, H 8,9 cm Tasar m: VE2</desc>  <defs/>  <g id="Polygon45532">    <path d="M 2 56.6 L 2 52.2 L 0.3 52.2 L 0.3 51.7 L 4.2 51.7 L 4.2 52.2 L 2.5 52.2 L 2.5 56.6 L 2 56.6 Z M 7.5 56.1 C 7.2 56.5 6.7 56.7 6.2 56.7 C 5.8 56.7 5.5 56.6 5.2 56.4 C 5 56.2 4.8 55.9 4.8 55.5 C 4.8 55.5 4.8 55.5 4.8 55.5 C 4.8 55.2 5 54.9 5.2 54.7 C 5.5 54.5 5.9 54.4 6.4 54.4 C 6.7 54.4 7.1 54.4 7.5 54.5 C 7.5 54.5 7.5 54.4 7.5 54.4 C 7.5 54.1 7.4 53.8 7.2 53.7 C 7 53.5 6.7 53.4 6.4 53.4 C 6 53.4 5.7 53.5 5.3 53.7 C 5.3 53.7 5.1 53.2 5.1 53.2 C 5.6 53 6 52.9 6.5 52.9 C 7 52.9 7.4 53.1 7.6 53.3 C 7.9 53.6 8 53.9 8 54.4 C 7.99 54.39 8 56.6 8 56.6 L 7.5 56.6 L 7.5 56.1 C 7.5 56.1 7.48 56.05 7.5 56.1 Z M 6.3 56.2 C 6.6 56.2 6.9 56.2 7.1 56 C 7.4 55.8 7.5 55.6 7.5 55.3 C 7.5 55.3 7.5 54.9 7.5 54.9 C 7.1 54.8 6.8 54.8 6.4 54.8 C 6.1 54.8 5.8 54.8 5.6 55 C 5.5 55.1 5.4 55.3 5.4 55.5 C 5.4 55.5 5.4 55.5 5.4 55.5 C 5.4 55.7 5.5 55.9 5.6 56.1 C 5.8 56.2 6 56.2 6.3 56.2 Z M 10.3 56.7 C 9.8 56.7 9.3 56.5 8.8 56.1 C 8.8 56.1 9.1 55.8 9.1 55.8 C 9.5 56.1 9.9 56.2 10.4 56.2 C 10.6 56.2 10.8 56.2 10.9 56.1 C 11 56 11.1 55.8 11.1 55.6 C 11.1 55.6 11.1 55.6 11.1 55.6 C 11.1 55.5 11 55.3 10.9 55.2 C 10.7 55.2 10.5 55.1 10.2 55 C 10.1 55 10 54.9 9.9 54.9 C 9.9 54.9 9.8 54.8 9.7 54.8 C 9.5 54.8 9.5 54.7 9.4 54.7 C 9.3 54.6 9.3 54.6 9.2 54.5 C 9.1 54.4 9.1 54.4 9.1 54.3 C 9 54.2 9 54.1 9 54 C 9 54 9 54 9 54 C 9 53.6 9.1 53.4 9.4 53.2 C 9.6 53 9.9 52.9 10.2 52.9 C 10.7 52.9 11.1 53.1 11.5 53.3 C 11.5 53.3 11.3 53.7 11.3 53.7 C 10.9 53.5 10.6 53.4 10.2 53.4 C 10 53.4 9.9 53.4 9.7 53.5 C 9.6 53.6 9.5 53.7 9.5 53.9 C 9.5 53.9 9.5 53.9 9.5 53.9 C 9.5 54 9.6 54 9.6 54.1 C 9.6 54.1 9.7 54.2 9.7 54.2 C 9.8 54.3 9.8 54.3 9.9 54.4 C 10 54.4 10.1 54.4 10.2 54.4 C 10.2 54.5 10.3 54.5 10.5 54.5 C 10.6 54.6 10.7 54.6 10.8 54.6 C 10.9 54.7 11 54.7 11.1 54.8 C 11.2 54.8 11.3 54.9 11.4 55 C 11.5 55 11.5 55.1 11.6 55.2 C 11.6 55.3 11.6 55.4 11.6 55.6 C 11.6 55.6 11.6 55.6 11.6 55.6 C 11.6 55.9 11.5 56.2 11.3 56.4 C 11 56.6 10.7 56.7 10.3 56.7 Z M 15 56.1 C 14.7 56.5 14.3 56.7 13.7 56.7 C 13.3 56.7 13 56.6 12.8 56.4 C 12.5 56.2 12.4 55.9 12.4 55.5 C 12.4 55.5 12.4 55.5 12.4 55.5 C 12.4 55.2 12.5 54.9 12.8 54.7 C 13.1 54.5 13.4 54.4 13.9 54.4 C 14.3 54.4 14.6 54.4 15 54.5 C 15 54.5 15 54.4 15 54.4 C 15 54.1 14.9 53.8 14.7 53.7 C 14.5 53.5 14.3 53.4 13.9 53.4 C 13.6 53.4 13.2 53.5 12.8 53.7 C 12.8 53.7 12.7 53.2 12.7 53.2 C 13.1 53 13.5 52.9 14 52.9 C 14.5 52.9 14.9 53.1 15.2 53.3 C 15.4 53.6 15.5 53.9 15.5 54.4 C 15.53 54.39 15.5 56.6 15.5 56.6 L 15 56.6 L 15 56.1 C 15 56.1 15.01 56.05 15 56.1 Z M 13.8 56.2 C 14.2 56.2 14.4 56.2 14.7 56 C 14.9 55.8 15 55.6 15 55.3 C 15 55.3 15 54.9 15 54.9 C 14.7 54.8 14.3 54.8 14 54.8 C 13.6 54.8 13.4 54.8 13.2 55 C 13 55.1 12.9 55.3 12.9 55.5 C 12.9 55.5 12.9 55.5 12.9 55.5 C 12.9 55.7 13 55.9 13.2 56.1 C 13.3 56.2 13.6 56.2 13.8 56.2 Z M 16.7 56.6 L 16.7 53 L 17.2 53 C 17.2 53 17.22 53.93 17.2 53.9 C 17.4 53.6 17.6 53.4 17.8 53.2 C 18.1 53 18.4 52.9 18.7 52.9 C 18.7 52.92 18.7 53.5 18.7 53.5 C 18.7 53.5 18.65 53.5 18.7 53.5 C 18.2 53.5 17.9 53.6 17.6 53.9 C 17.4 54.2 17.2 54.6 17.2 55.2 C 17.22 55.16 17.2 56.6 17.2 56.6 L 16.7 56.6 Z M 19.6 56.6 L 19.6 53 L 20.1 53 L 20.1 56.6 L 19.6 56.6 Z M 21.4 56.6 L 21.4 53 L 21.9 53 C 21.9 53 21.9 53.59 21.9 53.6 C 22 53.4 22.2 53.2 22.4 53.1 C 22.6 53 22.8 52.9 23.1 52.9 C 23.6 52.9 24 53.1 24.2 53.6 C 24.5 53.1 25 52.9 25.5 52.9 C 25.9 52.9 26.2 53 26.5 53.3 C 26.7 53.6 26.8 53.9 26.8 54.4 C 26.84 54.36 26.8 56.6 26.8 56.6 L 26.3 56.6 C 26.3 56.6 26.31 54.49 26.3 54.5 C 26.3 54.1 26.2 53.9 26.1 53.7 C 25.9 53.5 25.7 53.4 25.4 53.4 C 25.1 53.4 24.9 53.5 24.7 53.7 C 24.5 53.9 24.4 54.2 24.4 54.5 C 24.37 54.51 24.4 56.6 24.4 56.6 L 23.8 56.6 C 23.8 56.6 23.83 54.47 23.8 54.5 C 23.8 54.1 23.8 53.9 23.6 53.7 C 23.4 53.5 23.2 53.4 22.9 53.4 C 22.6 53.4 22.4 53.5 22.2 53.7 C 22 53.9 21.9 54.2 21.9 54.5 C 21.9 54.53 21.9 56.6 21.9 56.6 L 21.4 56.6 Z M 28 53.7 L 28 53 L 28.6 53 L 28.6 53.7 L 28 53.7 Z M 28 56.6 L 28 55.9 L 28.6 55.9 L 28.6 56.6 L 28 56.6 Z M 33.6 56.6 L 31.5 51.7 L 32.2 51.7 L 33.9 55.9 L 35.7 51.7 L 36.2 51.7 L 34.1 56.6 L 33.6 56.6 Z M 37.2 56.6 L 37.2 51.7 L 40.8 51.7 L 40.8 52.2 L 37.8 52.2 L 37.8 53.9 L 40.4 53.9 L 40.4 54.4 L 37.8 54.4 L 37.8 56.1 L 40.8 56.1 L 40.8 56.6 L 37.2 56.6 Z M 41.5 56.6 L 41.5 56.2 C 41.5 56.2 43.32 54.6 43.3 54.6 C 43.7 54.3 44 54 44.1 53.8 C 44.3 53.5 44.3 53.3 44.3 53.1 C 44.3 52.8 44.2 52.6 44.1 52.4 C 43.9 52.2 43.6 52.1 43.4 52.1 C 43.1 52.1 42.9 52.2 42.7 52.3 C 42.4 52.5 42.2 52.7 42 53 C 42 53 41.6 52.7 41.6 52.7 C 41.9 52.3 42.1 52 42.4 51.9 C 42.7 51.7 43 51.6 43.4 51.6 C 43.8 51.6 44.2 51.8 44.5 52 C 44.8 52.3 44.9 52.6 44.9 53 C 44.9 53 44.9 53 44.9 53 C 44.9 53.4 44.8 53.7 44.6 53.9 C 44.5 54.2 44.1 54.5 43.7 54.9 C 43.68 54.93 42.4 56.1 42.4 56.1 L 45 56.1 L 45 56.6 L 41.5 56.6 Z " stroke="none" fill="#000"/>  </g>  <g id="Polygon45531">    <path d="M 0.7 48.2 L 0.7 43.3 L 1.2 43.3 L 1.2 47.7 L 4 47.7 L 4 48.2 L 0.7 48.2 Z M 8.7 48.3 C 8.2 48.3 7.8 48.1 7.4 47.8 C 7.2 47.6 7.1 47.3 7 47 C 6.9 46.7 6.8 46.4 6.8 45.9 C 6.8 45.9 6.8 45.9 6.8 45.9 C 6.8 45.1 7 44.5 7.4 44 C 7.7 43.5 8.2 43.2 8.9 43.2 C 9.4 43.2 9.9 43.4 10.3 43.8 C 10.3 43.8 10 44.2 10 44.2 C 9.6 43.9 9.2 43.7 8.8 43.7 C 8.4 43.7 8 43.9 7.8 44.3 C 7.5 44.7 7.4 45.2 7.4 45.8 C 7.4 45.8 7.4 45.9 7.4 45.9 C 7.7 45.4 8.2 45.1 8.8 45.1 C 9.3 45.1 9.7 45.3 10 45.6 C 10.3 45.8 10.5 46.2 10.5 46.6 C 10.5 46.6 10.5 46.7 10.5 46.7 C 10.5 47.1 10.3 47.5 10 47.8 C 9.7 48.1 9.2 48.3 8.7 48.3 Z M 8.7 47.8 C 9.1 47.8 9.4 47.7 9.6 47.5 C 9.8 47.3 9.9 47 9.9 46.7 C 9.9 46.7 9.9 46.7 9.9 46.7 C 9.9 46.4 9.8 46.1 9.6 45.9 C 9.4 45.7 9.1 45.6 8.7 45.6 C 8.4 45.6 8.1 45.7 7.9 45.9 C 7.6 46.2 7.5 46.4 7.5 46.7 C 7.5 46.7 7.5 46.7 7.5 46.7 C 7.5 47 7.6 47.3 7.9 47.5 C 8.1 47.7 8.4 47.8 8.7 47.8 Z M 11.3 49.1 C 11.3 49.1 11.3 48.8 11.3 48.8 C 11.6 48.7 11.8 48.5 11.7 48.2 C 11.72 48.2 11.5 48.2 11.5 48.2 L 11.5 47.5 L 12.1 47.5 C 12.1 47.5 12.12 48.09 12.1 48.1 C 12.1 48.4 12.1 48.6 11.9 48.7 C 11.8 48.9 11.6 49 11.3 49.1 Z M 14.8 48.3 C 14.1 48.3 13.5 48 13 47.5 C 13 47.5 13.4 47.1 13.4 47.1 C 13.8 47.6 14.3 47.8 14.8 47.8 C 15.1 47.8 15.4 47.7 15.6 47.5 C 15.8 47.3 16 47 16 46.7 C 16 46.7 16 46.7 16 46.7 C 16 46.4 15.8 46.1 15.6 45.9 C 15.4 45.7 15.1 45.7 14.7 45.7 C 14.4 45.7 14 45.7 13.7 45.9 C 13.71 45.93 13.3 45.7 13.3 45.7 L 13.5 43.3 L 16.3 43.3 L 16.3 43.8 L 14 43.8 C 14 43.8 13.86 45.38 13.9 45.4 C 14.2 45.2 14.5 45.2 14.8 45.2 C 15.3 45.2 15.7 45.3 16 45.6 C 16.4 45.8 16.5 46.2 16.5 46.7 C 16.5 46.7 16.5 46.7 16.5 46.7 C 16.5 47.1 16.4 47.5 16 47.8 C 15.7 48.1 15.3 48.3 14.8 48.3 Z M 22.7 47.6 C 22.3 48.1 21.8 48.3 21.3 48.3 C 20.7 48.3 20.3 48.1 19.9 47.7 C 19.6 47.4 19.4 46.9 19.4 46.4 C 19.4 46.4 19.4 46.4 19.4 46.4 C 19.4 45.9 19.6 45.4 19.9 45.1 C 20.3 44.7 20.7 44.5 21.3 44.5 C 21.8 44.5 22.3 44.7 22.7 45.1 C 22.7 45.1 22.4 45.5 22.4 45.5 C 22 45.2 21.6 45 21.3 45 C 20.9 45 20.6 45.1 20.3 45.4 C 20.1 45.7 20 46 20 46.4 C 20 46.4 20 46.4 20 46.4 C 20 46.8 20.1 47.1 20.3 47.4 C 20.6 47.7 20.9 47.8 21.3 47.8 C 21.7 47.8 22.1 47.6 22.4 47.3 C 22.4 47.26 22.7 47.6 22.7 47.6 C 22.7 47.6 22.74 47.58 22.7 47.6 Z M 23.6 48.2 L 23.6 44.6 L 24.2 44.6 C 24.2 44.6 24.17 45.19 24.2 45.2 C 24.3 45 24.5 44.8 24.7 44.7 C 24.8 44.6 25.1 44.5 25.3 44.5 C 25.9 44.5 26.3 44.7 26.5 45.2 C 26.8 44.7 27.2 44.5 27.8 44.5 C 28.2 44.5 28.5 44.6 28.8 44.9 C 29 45.2 29.1 45.5 29.1 46 C 29.12 45.96 29.1 48.2 29.1 48.2 L 28.6 48.2 C 28.6 48.2 28.58 46.09 28.6 46.1 C 28.6 45.7 28.5 45.5 28.3 45.3 C 28.2 45.1 27.9 45 27.6 45 C 27.4 45 27.1 45.1 26.9 45.3 C 26.7 45.5 26.6 45.8 26.6 46.1 C 26.64 46.11 26.6 48.2 26.6 48.2 L 26.1 48.2 C 26.1 48.2 26.11 46.07 26.1 46.1 C 26.1 45.7 26 45.5 25.9 45.3 C 25.7 45.1 25.5 45 25.2 45 C 24.9 45 24.6 45.1 24.5 45.3 C 24.3 45.5 24.2 45.8 24.2 46.1 C 24.17 46.13 24.2 48.2 24.2 48.2 L 23.6 48.2 Z M 30.1 49.1 C 30.1 49.1 30 48.8 30 48.8 C 30.3 48.7 30.5 48.5 30.5 48.2 C 30.46 48.2 30.2 48.2 30.2 48.2 L 30.2 47.5 L 30.8 47.5 C 30.8 47.5 30.85 48.09 30.8 48.1 C 30.8 48.4 30.8 48.6 30.7 48.7 C 30.5 48.9 30.3 49 30.1 49.1 Z M 35.5 48.2 L 33.8 43.3 L 34.4 43.3 L 35.8 47.4 L 37.1 43.3 L 37.6 43.3 L 38.9 47.4 L 40.3 43.3 L 40.9 43.3 L 39.2 48.2 L 38.7 48.2 L 37.4 44.3 L 36 48.2 L 35.5 48.2 Z M 45.5 48.3 C 44.7 48.3 44.1 48 43.7 47.4 C 43.7 47.4 44.1 47.1 44.1 47.1 C 44.5 47.5 45 47.8 45.5 47.8 C 45.8 47.8 46.1 47.7 46.3 47.5 C 46.5 47.3 46.6 47.1 46.6 46.8 C 46.6 46.8 46.6 46.8 46.6 46.8 C 46.6 46.5 46.5 46.3 46.2 46.1 C 46 46 45.6 45.9 45.2 45.9 C 45.21 45.87 44.9 45.9 44.9 45.9 L 44.8 45.5 L 46.3 43.8 L 43.9 43.8 L 43.9 43.3 L 47.1 43.3 L 47.1 43.7 C 47.1 43.7 45.53 45.41 45.5 45.4 C 46 45.5 46.4 45.6 46.7 45.8 C 47 46 47.1 46.4 47.1 46.8 C 47.1 46.8 47.1 46.8 47.1 46.8 C 47.1 47.2 47 47.6 46.7 47.9 C 46.4 48.1 46 48.3 45.5 48.3 Z M 48 49.1 C 48 49.1 47.9 48.8 47.9 48.8 C 48.3 48.7 48.4 48.5 48.4 48.2 C 48.41 48.2 48.2 48.2 48.2 48.2 L 48.2 47.5 L 48.8 47.5 C 48.8 47.5 48.8 48.09 48.8 48.1 C 48.8 48.4 48.7 48.6 48.6 48.7 C 48.5 48.9 48.3 49 48 49.1 Z M 51.5 48.3 C 50.7 48.3 50.1 48 49.7 47.4 C 49.7 47.4 50.1 47.1 50.1 47.1 C 50.5 47.5 51 47.8 51.5 47.8 C 51.8 47.8 52.1 47.7 52.3 47.5 C 52.5 47.3 52.6 47.1 52.6 46.8 C 52.6 46.8 52.6 46.8 52.6 46.8 C 52.6 46.5 52.5 46.3 52.2 46.1 C 52 46 51.6 45.9 51.2 45.9 C 51.22 45.87 50.9 45.9 50.9 45.9 L 50.8 45.5 L 52.3 43.8 L 49.9 43.8 L 49.9 43.3 L 53.1 43.3 L 53.1 43.7 C 53.1 43.7 51.53 45.41 51.5 45.4 C 52 45.5 52.4 45.6 52.7 45.8 C 53 46 53.2 46.4 53.2 46.8 C 53.2 46.8 53.2 46.8 53.2 46.8 C 53.2 47.2 53 47.6 52.7 47.9 C 52.4 48.1 52 48.3 51.5 48.3 Z M 59.4 47.6 C 59 48.1 58.5 48.3 58 48.3 C 57.4 48.3 57 48.1 56.6 47.7 C 56.3 47.4 56.1 46.9 56.1 46.4 C 56.1 46.4 56.1 46.4 56.1 46.4 C 56.1 45.9 56.3 45.4 56.6 45.1 C 57 44.7 57.4 44.5 58 44.5 C 58.5 44.5 59 44.7 59.4 45.1 C 59.4 45.1 59.1 45.5 59.1 45.5 C 58.7 45.2 58.3 45 58 45 C 57.6 45 57.3 45.1 57 45.4 C 56.8 45.7 56.7 46 56.7 46.4 C 56.7 46.4 56.7 46.4 56.7 46.4 C 56.7 46.8 56.8 47.1 57 47.4 C 57.3 47.7 57.6 47.8 58 47.8 C 58.4 47.8 58.8 47.6 59.1 47.3 C 59.09 47.26 59.4 47.6 59.4 47.6 C 59.4 47.6 59.44 47.58 59.4 47.6 Z M 60.3 48.2 L 60.3 44.6 L 60.9 44.6 C 60.9 44.6 60.86 45.19 60.9 45.2 C 61 45 61.2 44.8 61.3 44.7 C 61.5 44.6 61.8 44.5 62 44.5 C 62.6 44.5 63 44.7 63.2 45.2 C 63.5 44.7 63.9 44.5 64.5 44.5 C 64.9 44.5 65.2 44.6 65.5 44.9 C 65.7 45.2 65.8 45.5 65.8 46 C 65.81 45.96 65.8 48.2 65.8 48.2 L 65.3 48.2 C 65.3 48.2 65.27 46.09 65.3 46.1 C 65.3 45.7 65.2 45.5 65 45.3 C 64.9 45.1 64.6 45 64.3 45 C 64.1 45 63.8 45.1 63.6 45.3 C 63.4 45.5 63.3 45.8 63.3 46.1 C 63.34 46.11 63.3 48.2 63.3 48.2 L 62.8 48.2 C 62.8 48.2 62.8 46.07 62.8 46.1 C 62.8 45.7 62.7 45.5 62.6 45.3 C 62.4 45.1 62.2 45 61.9 45 C 61.6 45 61.3 45.1 61.2 45.3 C 61 45.5 60.9 45.8 60.9 46.1 C 60.86 46.13 60.9 48.2 60.9 48.2 L 60.3 48.2 Z M 66.8 49.1 C 66.8 49.1 66.7 48.8 66.7 48.8 C 67 48.7 67.2 48.5 67.2 48.2 C 67.15 48.2 66.9 48.2 66.9 48.2 L 66.9 47.5 L 67.5 47.5 C 67.5 47.5 67.54 48.09 67.5 48.1 C 67.5 48.4 67.5 48.6 67.4 48.7 C 67.2 48.9 67 49 66.8 49.1 Z M 70.9 48.2 L 70.9 43.3 L 71.4 43.3 L 71.4 45.5 L 74.2 45.5 L 74.2 43.3 L 74.8 43.3 L 74.8 48.2 L 74.2 48.2 L 74.2 46 L 71.4 46 L 71.4 48.2 L 70.9 48.2 Z M 81.6 46.9 C 81.6 47.3 81.5 47.6 81.1 47.9 C 80.8 48.1 80.3 48.3 79.8 48.3 C 79.3 48.3 78.8 48.1 78.5 47.9 C 78.1 47.6 78 47.3 78 46.9 C 78 46.9 78 46.9 78 46.9 C 78 46.6 78 46.3 78.2 46.1 C 78.4 45.9 78.7 45.8 79 45.7 C 78.4 45.4 78.1 45 78.1 44.5 C 78.1 44.5 78.1 44.5 78.1 44.5 C 78.1 44.2 78.3 43.8 78.6 43.6 C 78.9 43.4 79.3 43.2 79.8 43.2 C 80.3 43.2 80.6 43.4 81 43.6 C 81.3 43.8 81.5 44.2 81.5 44.5 C 81.5 44.5 81.5 44.5 81.5 44.5 C 81.5 45 81.2 45.4 80.6 45.7 C 80.9 45.8 81.2 45.9 81.4 46.1 C 81.5 46.3 81.6 46.6 81.6 46.9 C 81.64 46.86 81.6 46.9 81.6 46.9 C 81.6 46.9 81.64 46.88 81.6 46.9 Z M 78.7 44.6 C 78.7 44.8 78.8 45 79 45.2 C 79.2 45.4 79.5 45.5 79.8 45.5 C 80.1 45.5 80.4 45.4 80.6 45.2 C 80.8 45 80.9 44.8 80.9 44.6 C 80.9 44.6 80.9 44.6 80.9 44.6 C 80.9 44.3 80.8 44.1 80.6 44 C 80.4 43.8 80.1 43.7 79.8 43.7 C 79.5 43.7 79.2 43.8 79 44 C 78.8 44.1 78.7 44.3 78.7 44.6 C 78.68 44.56 78.7 44.6 78.7 44.6 C 78.7 44.6 78.68 44.57 78.7 44.6 Z M 78.5 46.9 C 78.5 47.1 78.6 47.3 78.9 47.5 C 79.1 47.7 79.4 47.8 79.8 47.8 C 80.2 47.8 80.5 47.7 80.7 47.5 C 81 47.3 81.1 47.1 81.1 46.9 C 81.1 46.9 81.1 46.9 81.1 46.9 C 81.1 46.6 81 46.4 80.7 46.2 C 80.5 46 80.2 45.9 79.8 45.9 C 79.4 45.9 79.1 46 78.9 46.2 C 78.6 46.4 78.5 46.6 78.5 46.9 C 78.52 46.86 78.5 46.9 78.5 46.9 C 78.5 46.9 78.52 46.87 78.5 46.9 Z M 82.4 49.1 C 82.4 49.1 82.3 48.8 82.3 48.8 C 82.7 48.7 82.8 48.5 82.8 48.2 C 82.79 48.2 82.5 48.2 82.5 48.2 L 82.5 47.5 L 83.2 47.5 C 83.2 47.5 83.19 48.09 83.2 48.1 C 83.2 48.4 83.1 48.6 83 48.7 C 82.9 48.9 82.7 49 82.4 49.1 Z M 84.6 47.3 C 85 47.6 85.4 47.8 85.8 47.8 C 86.3 47.8 86.6 47.6 86.9 47.2 C 87.1 46.8 87.3 46.3 87.3 45.7 C 87.3 45.7 87.3 45.6 87.3 45.6 C 86.9 46.2 86.5 46.4 85.9 46.4 C 85.4 46.4 85 46.3 84.6 46 C 84.3 45.7 84.2 45.3 84.2 44.9 C 84.2 44.9 84.2 44.9 84.2 44.9 C 84.2 44.4 84.3 44 84.7 43.7 C 85 43.4 85.4 43.2 85.9 43.2 C 86.4 43.2 86.9 43.4 87.2 43.7 C 87.6 44.1 87.8 44.8 87.8 45.6 C 87.8 45.6 87.8 45.6 87.8 45.6 C 87.8 46.4 87.6 47 87.3 47.5 C 86.9 48 86.4 48.3 85.8 48.3 C 85.3 48.3 84.8 48.1 84.3 47.7 C 84.27 47.68 84.6 47.3 84.6 47.3 C 84.6 47.3 84.59 47.25 84.6 47.3 Z M 85.9 45.9 C 86.3 45.9 86.6 45.8 86.8 45.6 C 87 45.4 87.1 45.1 87.1 44.8 C 87.1 44.8 87.1 44.8 87.1 44.8 C 87.1 44.5 87 44.2 86.8 44 C 86.6 43.8 86.3 43.7 85.9 43.7 C 85.5 43.7 85.3 43.8 85 44 C 84.8 44.3 84.7 44.5 84.7 44.9 C 84.7 44.9 84.7 44.9 84.7 44.9 C 84.7 45.2 84.8 45.4 85.1 45.6 C 85.3 45.8 85.6 45.9 85.9 45.9 Z M 94.1 47.6 C 93.6 48.1 93.2 48.3 92.6 48.3 C 92.1 48.3 91.6 48.1 91.3 47.7 C 90.9 47.4 90.7 46.9 90.7 46.4 C 90.7 46.4 90.7 46.4 90.7 46.4 C 90.7 45.9 90.9 45.4 91.3 45.1 C 91.6 44.7 92.1 44.5 92.6 44.5 C 93.1 44.5 93.6 44.7 94 45.1 C 94 45.1 93.7 45.5 93.7 45.5 C 93.3 45.2 93 45 92.6 45 C 92.2 45 91.9 45.1 91.6 45.4 C 91.4 45.7 91.3 46 91.3 46.4 C 91.3 46.4 91.3 46.4 91.3 46.4 C 91.3 46.8 91.4 47.1 91.7 47.4 C 91.9 47.7 92.2 47.8 92.6 47.8 C 93 47.8 93.4 47.6 93.7 47.3 C 93.71 47.26 94.1 47.6 94.1 47.6 C 94.1 47.6 94.06 47.58 94.1 47.6 Z M 94.9 48.2 L 94.9 44.6 L 95.5 44.6 C 95.5 44.6 95.49 45.19 95.5 45.2 C 95.6 45 95.8 44.8 96 44.7 C 96.1 44.6 96.4 44.5 96.7 44.5 C 97.2 44.5 97.6 44.7 97.8 45.2 C 98.1 44.7 98.6 44.5 99.1 44.5 C 99.5 44.5 99.8 44.6 100.1 44.9 C 100.3 45.2 100.4 45.5 100.4 46 C 100.43 45.96 100.4 48.2 100.4 48.2 L 99.9 48.2 C 99.9 48.2 99.9 46.09 99.9 46.1 C 99.9 45.7 99.8 45.5 99.6 45.3 C 99.5 45.1 99.3 45 99 45 C 98.7 45 98.4 45.1 98.2 45.3 C 98.1 45.5 98 45.8 98 46.1 C 97.96 46.11 98 48.2 98 48.2 L 97.4 48.2 C 97.4 48.2 97.42 46.07 97.4 46.1 C 97.4 45.7 97.3 45.5 97.2 45.3 C 97 45.1 96.8 45 96.5 45 C 96.2 45 96 45.1 95.8 45.3 C 95.6 45.5 95.5 45.8 95.5 46.1 C 95.49 46.13 95.5 48.2 95.5 48.2 L 94.9 48.2 Z " stroke="none" fill="#000"/>  </g>  <g id="Polygon45530">    <path d="M 0.3 39.8 L 2.5 34.9 L 3 34.9 L 5.3 39.8 L 4.7 39.8 L 4.1 38.5 L 1.4 38.5 L 0.8 39.8 L 0.3 39.8 Z M 1.6 38 L 3.9 38 L 2.8 35.5 L 1.6 38 Z M 6.2 39.8 L 6.2 34.9 C 6.2 34.9 8.31 34.9 8.3 34.9 C 8.9 34.9 9.3 35 9.6 35.3 C 9.8 35.5 9.9 35.8 9.9 36.1 C 9.9 36.1 9.9 36.1 9.9 36.1 C 9.9 36.7 9.6 37 9.1 37.3 C 9.8 37.5 10.2 37.9 10.2 38.4 C 10.2 38.4 10.2 38.5 10.2 38.5 C 10.2 38.9 10 39.2 9.7 39.4 C 9.4 39.7 8.9 39.8 8.4 39.8 C 8.4 39.8 6.2 39.8 6.2 39.8 Z M 9.3 36.2 C 9.3 36.2 9.3 36.2 9.3 36.2 C 9.3 35.9 9.3 35.8 9.1 35.6 C 8.9 35.5 8.6 35.4 8.3 35.4 C 8.26 35.4 6.8 35.4 6.8 35.4 L 6.8 37.1 C 6.8 37.1 8.22 37.08 8.2 37.1 C 8.6 37.1 8.8 37 9 36.9 C 9.2 36.7 9.3 36.5 9.3 36.2 Z M 9.6 38.4 C 9.6 38.4 9.6 38.4 9.6 38.4 C 9.6 38.1 9.5 37.9 9.3 37.8 C 9.1 37.6 8.7 37.6 8.3 37.6 C 8.32 37.57 6.8 37.6 6.8 37.6 L 6.8 39.3 C 6.8 39.3 8.41 39.3 8.4 39.3 C 8.8 39.3 9.1 39.2 9.3 39.1 C 9.5 38.9 9.6 38.7 9.6 38.4 Z M 13 39.9 C 12.2 39.9 11.5 39.6 11 39.1 C 11 39.1 11.3 38.7 11.3 38.7 C 11.6 38.9 11.8 39.1 12.1 39.2 C 12.3 39.3 12.6 39.4 13 39.4 C 13.3 39.4 13.6 39.3 13.8 39.1 C 14 39 14.1 38.8 14.1 38.5 C 14.1 38.5 14.1 38.5 14.1 38.5 C 14.1 38.3 14 38.1 13.8 38 C 13.6 37.8 13.3 37.7 12.8 37.6 C 12.2 37.5 11.8 37.3 11.5 37.1 C 11.3 36.9 11.2 36.6 11.2 36.2 C 11.2 36.2 11.2 36.2 11.2 36.2 C 11.2 35.8 11.3 35.5 11.6 35.2 C 11.9 35 12.3 34.8 12.8 34.8 C 13.1 34.8 13.4 34.9 13.7 35 C 14 35.1 14.2 35.2 14.5 35.4 C 14.5 35.4 14.2 35.9 14.2 35.9 C 13.7 35.5 13.3 35.3 12.7 35.3 C 12.4 35.3 12.2 35.4 12 35.6 C 11.8 35.7 11.7 35.9 11.7 36.1 C 11.7 36.1 11.7 36.1 11.7 36.1 C 11.7 36.4 11.8 36.6 12 36.7 C 12.2 36.9 12.5 37 13 37.1 C 13.6 37.2 14 37.4 14.2 37.6 C 14.5 37.8 14.6 38.1 14.6 38.5 C 14.6 38.5 14.6 38.5 14.6 38.5 C 14.6 38.9 14.5 39.2 14.2 39.5 C 13.8 39.7 13.4 39.9 13 39.9 Z M 17 40.7 L 20.3 34.2 L 20.8 34.2 L 17.5 40.7 L 17 40.7 Z M 23.5 39.8 L 23.5 34.9 L 24.1 34.9 L 25.9 37.6 L 27.6 34.9 L 28.2 34.9 L 28.2 39.8 L 27.6 39.8 L 27.6 35.8 L 25.9 38.5 L 25.8 38.5 L 24.1 35.8 L 24.1 39.8 L 23.5 39.8 Z M 32.6 39.2 C 32.2 39.7 31.7 39.9 31.1 39.9 C 30.6 39.9 30.1 39.7 29.8 39.4 C 29.4 39 29.3 38.6 29.3 38 C 29.3 38 29.3 38 29.3 38 C 29.3 37.5 29.4 37 29.8 36.6 C 30.1 36.3 30.5 36.1 31 36.1 C 31.5 36.1 31.9 36.3 32.2 36.6 C 32.5 37 32.7 37.5 32.7 38 C 32.7 38.1 32.7 38.1 32.7 38.2 C 32.7 38.2 29.8 38.2 29.8 38.2 C 29.9 38.6 30 38.9 30.2 39.1 C 30.5 39.3 30.8 39.4 31.1 39.4 C 31.5 39.4 31.9 39.2 32.2 38.9 C 32.23 38.9 32.6 39.2 32.6 39.2 C 32.6 39.2 32.57 39.2 32.6 39.2 Z M 29.8 37.8 C 29.8 37.8 32.2 37.8 32.2 37.8 C 32.1 37.4 32 37.1 31.8 36.9 C 31.6 36.7 31.3 36.6 31 36.6 C 30.7 36.6 30.4 36.7 30.2 36.9 C 30 37.1 29.9 37.4 29.8 37.8 Z M 35.5 39.7 C 35.3 39.8 35.1 39.9 34.9 39.9 C 34.5 39.9 34.3 39.8 34.1 39.6 C 33.9 39.4 33.8 39.2 33.8 38.8 C 33.83 38.84 33.8 36.7 33.8 36.7 L 33.3 36.7 L 33.3 36.2 L 33.8 36.2 L 33.8 35.1 L 34.4 35.1 L 34.4 36.2 L 35.5 36.2 L 35.5 36.7 L 34.4 36.7 C 34.4 36.7 34.37 38.77 34.4 38.8 C 34.4 39.2 34.6 39.4 35 39.4 C 35.2 39.4 35.3 39.3 35.5 39.2 C 35.5 39.25 35.5 39.7 35.5 39.7 C 35.5 39.7 35.5 39.71 35.5 39.7 Z M 38.9 39.3 C 38.5 39.7 38.1 39.9 37.5 39.9 C 37.2 39.9 36.9 39.8 36.6 39.6 C 36.3 39.4 36.2 39.1 36.2 38.7 C 36.2 38.7 36.2 38.7 36.2 38.7 C 36.2 38.4 36.3 38.1 36.6 37.9 C 36.9 37.7 37.3 37.6 37.7 37.6 C 38.1 37.6 38.5 37.6 38.9 37.7 C 38.9 37.7 38.9 37.6 38.9 37.6 C 38.9 37.3 38.8 37 38.6 36.9 C 38.4 36.7 38.1 36.6 37.8 36.6 C 37.4 36.6 37 36.7 36.7 36.9 C 36.7 36.9 36.5 36.4 36.5 36.4 C 36.9 36.2 37.4 36.1 37.8 36.1 C 38.3 36.1 38.7 36.3 39 36.5 C 39.3 36.8 39.4 37.1 39.4 37.6 C 39.37 37.59 39.4 39.8 39.4 39.8 L 38.9 39.8 L 38.9 39.3 C 38.9 39.3 38.86 39.25 38.9 39.3 Z M 37.7 39.4 C 38 39.4 38.3 39.4 38.5 39.2 C 38.7 39 38.9 38.8 38.9 38.5 C 38.9 38.5 38.9 38.1 38.9 38.1 C 38.5 38 38.1 38 37.8 38 C 37.5 38 37.2 38 37 38.2 C 36.8 38.3 36.7 38.5 36.7 38.7 C 36.7 38.7 36.7 38.7 36.7 38.7 C 36.7 38.9 36.8 39.1 37 39.3 C 37.2 39.4 37.4 39.4 37.7 39.4 Z M 40.6 39.8 L 40.6 34.7 L 41.1 34.7 L 41.1 39.8 L 40.6 39.8 Z " stroke="none" fill="#000"/>  </g>  <g id="Polygon45529">    <path d="M 0.7 23 L 0.7 18.1 C 0.7 18.1 2.8 18.1 2.8 18.1 C 3.4 18.1 3.9 18.3 4.2 18.6 C 4.4 18.8 4.6 19.2 4.6 19.6 C 4.6 19.6 4.6 19.6 4.6 19.6 C 4.6 20 4.4 20.3 4.2 20.5 C 4 20.8 3.6 20.9 3.2 21 C 3.24 21 4.7 23 4.7 23 L 4.1 23 L 2.6 21.1 L 1.2 21.1 L 1.2 23 L 0.7 23 Z M 1.2 20.6 C 1.2 20.6 2.75 20.6 2.8 20.6 C 3.1 20.6 3.4 20.5 3.7 20.3 C 3.9 20.1 4 19.9 4 19.6 C 4 19.6 4 19.6 4 19.6 C 4 19.3 3.9 19 3.7 18.9 C 3.5 18.7 3.2 18.6 2.8 18.6 C 2.76 18.61 1.2 18.6 1.2 18.6 L 1.2 20.6 Z M 8.7 22.4 C 8.3 22.9 7.8 23.1 7.2 23.1 C 6.7 23.1 6.3 22.9 6 22.6 C 5.6 22.2 5.4 21.8 5.4 21.2 C 5.4 21.2 5.4 21.2 5.4 21.2 C 5.4 20.7 5.6 20.2 5.9 19.8 C 6.3 19.5 6.7 19.3 7.2 19.3 C 7.7 19.3 8.1 19.5 8.4 19.8 C 8.7 20.2 8.9 20.7 8.9 21.2 C 8.9 21.3 8.9 21.3 8.9 21.4 C 8.9 21.4 6 21.4 6 21.4 C 6 21.8 6.2 22.1 6.4 22.3 C 6.6 22.5 6.9 22.6 7.3 22.6 C 7.7 22.6 8.1 22.4 8.4 22.1 C 8.4 22.1 8.7 22.4 8.7 22.4 C 8.7 22.4 8.74 22.4 8.7 22.4 Z M 6 21 C 6 21 8.3 21 8.3 21 C 8.3 20.6 8.2 20.3 8 20.1 C 7.8 19.9 7.5 19.8 7.2 19.8 C 6.8 19.8 6.6 19.9 6.4 20.1 C 6.1 20.3 6 20.6 6 21 Z M 9.8 23 L 9.8 19.4 L 10.3 19.4 C 10.3 19.4 10.35 20.01 10.3 20 C 10.6 19.5 11.1 19.3 11.6 19.3 C 12 19.3 12.4 19.4 12.6 19.7 C 12.8 20 13 20.3 13 20.8 C 12.97 20.75 13 23 13 23 L 12.4 23 C 12.4 23 12.43 20.89 12.4 20.9 C 12.4 20.5 12.3 20.3 12.2 20.1 C 12 19.9 11.7 19.8 11.4 19.8 C 11.1 19.8 10.9 19.9 10.7 20.1 C 10.4 20.3 10.3 20.6 10.3 20.9 C 10.35 20.93 10.3 23 10.3 23 L 9.8 23 Z M 14.1 23 L 14.1 17.9 L 14.7 17.9 L 14.7 21.4 L 16.6 19.4 L 17.3 19.4 L 15.8 20.9 L 17.3 23 L 16.7 23 L 15.4 21.3 L 14.7 22.1 L 14.7 23 L 14.1 23 Z M 18.1 20.1 L 18.1 19.4 L 18.7 19.4 L 18.7 20.1 L 18.1 20.1 Z M 18.1 23 L 18.1 22.3 L 18.7 22.3 L 18.7 23 L 18.1 23 Z M 22.1 23 L 22.1 18.1 C 22.1 18.1 24.16 18.1 24.2 18.1 C 24.7 18.1 25.1 18.2 25.4 18.5 C 25.6 18.7 25.8 19 25.8 19.3 C 25.8 19.3 25.8 19.3 25.8 19.3 C 25.8 19.9 25.5 20.2 25 20.5 C 25.7 20.7 26 21.1 26 21.6 C 26 21.6 26 21.7 26 21.7 C 26 22.1 25.9 22.4 25.5 22.6 C 25.2 22.9 24.8 23 24.2 23 C 24.25 23 22.1 23 22.1 23 Z M 25.2 19.4 C 25.2 19.4 25.2 19.4 25.2 19.4 C 25.2 19.1 25.1 19 24.9 18.8 C 24.7 18.7 24.5 18.6 24.1 18.6 C 24.11 18.6 22.6 18.6 22.6 18.6 L 22.6 20.3 C 22.6 20.3 24.07 20.28 24.1 20.3 C 24.4 20.3 24.7 20.2 24.9 20.1 C 25.1 19.9 25.2 19.7 25.2 19.4 Z M 25.5 21.6 C 25.5 21.6 25.5 21.6 25.5 21.6 C 25.5 21.3 25.4 21.1 25.1 21 C 24.9 20.8 24.6 20.8 24.2 20.8 C 24.16 20.77 22.6 20.8 22.6 20.8 L 22.6 22.5 C 22.6 22.5 24.26 22.5 24.3 22.5 C 24.6 22.5 24.9 22.4 25.1 22.3 C 25.4 22.1 25.5 21.9 25.5 21.6 Z M 27.1 23 L 27.1 17.9 L 27.6 17.9 L 27.6 23 L 27.1 23 Z M 31.3 22.5 C 30.9 22.9 30.5 23.1 30 23.1 C 29.6 23.1 29.3 23 29 22.8 C 28.7 22.6 28.6 22.3 28.6 21.9 C 28.6 21.9 28.6 21.9 28.6 21.9 C 28.6 21.6 28.7 21.3 29 21.1 C 29.3 20.9 29.7 20.8 30.1 20.8 C 30.5 20.8 30.9 20.8 31.3 20.9 C 31.3 20.9 31.3 20.8 31.3 20.8 C 31.3 20.5 31.2 20.2 31 20.1 C 30.8 19.9 30.5 19.8 30.2 19.8 C 29.8 19.8 29.5 19.9 29.1 20.1 C 29.1 20.1 28.9 19.6 28.9 19.6 C 29.3 19.4 29.8 19.3 30.2 19.3 C 30.8 19.3 31.1 19.5 31.4 19.7 C 31.7 20 31.8 20.3 31.8 20.8 C 31.78 20.79 31.8 23 31.8 23 L 31.3 23 L 31.3 22.5 C 31.3 22.5 31.26 22.45 31.3 22.5 Z M 30.1 22.6 C 30.4 22.6 30.7 22.6 30.9 22.4 C 31.2 22.2 31.3 22 31.3 21.7 C 31.3 21.7 31.3 21.3 31.3 21.3 C 30.9 21.2 30.5 21.2 30.2 21.2 C 29.9 21.2 29.6 21.2 29.4 21.4 C 29.2 21.5 29.1 21.7 29.1 21.9 C 29.1 21.9 29.1 21.9 29.1 21.9 C 29.1 22.1 29.2 22.3 29.4 22.5 C 29.6 22.6 29.8 22.6 30.1 22.6 Z M 36 22.4 C 35.6 22.9 35.1 23.1 34.6 23.1 C 34 23.1 33.6 22.9 33.2 22.5 C 32.9 22.2 32.7 21.7 32.7 21.2 C 32.7 21.2 32.7 21.2 32.7 21.2 C 32.7 20.7 32.9 20.2 33.2 19.9 C 33.6 19.5 34 19.3 34.6 19.3 C 35.1 19.3 35.6 19.5 36 19.9 C 36 19.9 35.7 20.3 35.7 20.3 C 35.3 20 34.9 19.8 34.6 19.8 C 34.2 19.8 33.9 19.9 33.6 20.2 C 33.4 20.5 33.3 20.8 33.3 21.2 C 33.3 21.2 33.3 21.2 33.3 21.2 C 33.3 21.6 33.4 21.9 33.6 22.2 C 33.9 22.5 34.2 22.6 34.6 22.6 C 35 22.6 35.4 22.4 35.7 22.1 C 35.69 22.06 36 22.4 36 22.4 C 36 22.4 36.04 22.38 36 22.4 Z M 36.9 23 L 36.9 17.9 L 37.5 17.9 L 37.5 21.4 L 39.4 19.4 L 40.1 19.4 L 38.6 20.9 L 40.1 23 L 39.5 23 L 38.2 21.3 L 37.5 22.1 L 37.5 23 L 36.9 23 Z " stroke="none" fill="#000"/>  </g>  <g id="Polygon45528">    <path d="M 3 9.3 L 3 8.6 L 3.6 8.6 L 3.6 9.3 L 3 9.3 Z M 1.7 9.3 L 1.7 8.6 L 2.3 8.6 L 2.3 9.3 L 1.7 9.3 Z M 2.7 14.7 C 2 14.7 1.5 14.5 1.2 14.1 C 0.8 13.7 0.6 13.2 0.6 12.5 C 0.62 12.55 0.6 9.7 0.6 9.7 L 1.2 9.7 C 1.2 9.7 1.17 12.51 1.2 12.5 C 1.2 13 1.3 13.4 1.6 13.7 C 1.8 14 2.2 14.2 2.7 14.2 C 3.1 14.2 3.5 14 3.8 13.8 C 4 13.5 4.1 13.1 4.1 12.5 C 4.14 12.55 4.1 9.7 4.1 9.7 L 4.7 9.7 C 4.7 9.7 4.7 12.51 4.7 12.5 C 4.7 13.2 4.5 13.7 4.1 14.1 C 3.8 14.5 3.3 14.7 2.7 14.7 Z M 5.9 14.6 L 5.9 11 L 6.5 11 C 6.5 11 6.45 11.93 6.5 11.9 C 6.6 11.6 6.8 11.4 7 11.2 C 7.3 11 7.6 10.9 7.9 10.9 C 7.93 10.92 7.9 11.5 7.9 11.5 C 7.9 11.5 7.89 11.5 7.9 11.5 C 7.5 11.5 7.1 11.6 6.9 11.9 C 6.6 12.2 6.5 12.6 6.5 13.2 C 6.45 13.16 6.5 14.6 6.5 14.6 L 5.9 14.6 Z M 10.6 10.4 L 10.6 9.8 L 11.2 9.8 L 11.2 10.4 L 10.6 10.4 Z M 9.3 10.4 L 9.3 9.8 L 10 9.8 L 10 10.4 L 9.3 10.4 Z M 11.3 14 C 11 14.4 10.6 14.7 10.1 14.7 C 9.7 14.7 9.3 14.5 9.1 14.3 C 8.8 14 8.7 13.7 8.7 13.2 C 8.69 13.23 8.7 11 8.7 11 L 9.2 11 C 9.2 11 9.23 13.09 9.2 13.1 C 9.2 13.4 9.3 13.7 9.5 13.9 C 9.7 14.1 9.9 14.2 10.2 14.2 C 10.5 14.2 10.8 14.1 11 13.9 C 11.2 13.7 11.3 13.4 11.3 13.1 C 11.32 13.05 11.3 11 11.3 11 L 11.9 11 L 11.9 14.6 L 11.3 14.6 L 11.3 14 C 11.3 14 11.32 13.97 11.3 14 Z M 13.1 14.6 L 13.1 11 L 13.6 11 C 13.6 11 13.6 11.61 13.6 11.6 C 13.9 11.1 14.3 10.9 14.8 10.9 C 15.3 10.9 15.6 11 15.9 11.3 C 16.1 11.6 16.2 11.9 16.2 12.4 C 16.23 12.35 16.2 14.6 16.2 14.6 L 15.7 14.6 C 15.7 14.6 15.69 12.49 15.7 12.5 C 15.7 12.1 15.6 11.9 15.4 11.7 C 15.2 11.5 15 11.4 14.7 11.4 C 14.4 11.4 14.1 11.5 13.9 11.7 C 13.7 11.9 13.6 12.2 13.6 12.5 C 13.6 12.53 13.6 14.6 13.6 14.6 L 13.1 14.6 Z M 19.6 14.6 L 19.6 9.7 L 20.1 9.7 L 20.1 12.6 L 22.9 9.7 L 23.7 9.7 L 21.5 11.8 L 23.7 14.6 L 23 14.6 L 21.2 12.2 L 20.1 13.3 L 20.1 14.6 L 19.6 14.6 Z M 26.2 14.7 C 25.6 14.7 25.2 14.5 24.8 14.1 C 24.5 13.8 24.3 13.3 24.3 12.8 C 24.3 12.8 24.3 12.8 24.3 12.8 C 24.3 12.3 24.5 11.8 24.8 11.5 C 25.2 11.1 25.6 10.9 26.2 10.9 C 26.7 10.9 27.2 11.1 27.5 11.5 C 27.9 11.8 28.1 12.3 28.1 12.8 C 28.1 12.8 28.1 12.8 28.1 12.8 C 28.1 13.3 27.9 13.8 27.5 14.1 C 27.2 14.5 26.7 14.7 26.2 14.7 Z M 26.2 14.2 C 26.6 14.2 26.9 14.1 27.1 13.8 C 27.4 13.5 27.5 13.2 27.5 12.8 C 27.5 12.8 27.5 12.8 27.5 12.8 C 27.5 12.4 27.4 12.1 27.1 11.8 C 26.9 11.5 26.5 11.4 26.2 11.4 C 25.8 11.4 25.5 11.5 25.2 11.8 C 25 12.1 24.8 12.4 24.8 12.8 C 24.8 12.8 24.8 12.8 24.8 12.8 C 24.8 13.2 25 13.5 25.2 13.8 C 25.5 14.1 25.8 14.2 26.2 14.2 Z M 31.9 13.9 C 31.6 14.4 31.1 14.7 30.5 14.7 C 30.1 14.7 29.7 14.5 29.3 14.2 C 29 13.8 28.8 13.4 28.8 12.8 C 28.8 12.8 28.8 12.8 28.8 12.8 C 28.8 12.2 29 11.8 29.3 11.4 C 29.7 11.1 30.1 10.9 30.5 10.9 C 31.1 10.9 31.6 11.2 31.9 11.7 C 31.93 11.67 31.9 9.5 31.9 9.5 L 32.5 9.5 L 32.5 14.6 L 31.9 14.6 L 31.9 13.9 C 31.9 13.9 31.93 13.87 31.9 13.9 Z M 30.6 14.2 C 31 14.2 31.3 14.1 31.6 13.8 C 31.8 13.5 32 13.2 32 12.8 C 32 12.8 32 12.8 32 12.8 C 32 12.4 31.8 12 31.6 11.8 C 31.3 11.5 31 11.4 30.6 11.4 C 30.3 11.4 30 11.5 29.7 11.8 C 29.5 12 29.4 12.4 29.4 12.8 C 29.4 12.8 29.4 12.8 29.4 12.8 C 29.4 13.2 29.5 13.6 29.7 13.8 C 30 14.1 30.3 14.2 30.6 14.2 Z M 36.2 14 C 36 14.4 35.5 14.7 35 14.7 C 34.6 14.7 34.2 14.5 34 14.3 C 33.7 14 33.6 13.7 33.6 13.2 C 33.62 13.23 33.6 11 33.6 11 L 34.2 11 C 34.2 11 34.16 13.09 34.2 13.1 C 34.2 13.4 34.2 13.7 34.4 13.9 C 34.6 14.1 34.8 14.2 35.2 14.2 C 35.5 14.2 35.7 14.1 35.9 13.9 C 36.1 13.7 36.2 13.4 36.2 13.1 C 36.25 13.05 36.2 11 36.2 11 L 36.8 11 L 36.8 14.6 L 36.2 14.6 L 36.2 14 C 36.2 14 36.25 13.97 36.2 14 Z M 38 11.7 L 38 11 L 38.6 11 L 38.6 11.7 L 38 11.7 Z M 38 14.6 L 38 13.9 L 38.6 13.9 L 38.6 14.6 L 38 14.6 Z M 41.7 14.6 L 41.7 13.8 L 44.4 10.6 L 41.8 10.6 L 41.8 9.7 L 45.8 9.7 L 45.8 10.5 L 43.1 13.7 L 45.8 13.7 L 45.8 14.6 L 41.7 14.6 Z M 46.8 14.6 L 46.8 9.7 C 46.8 9.7 48.72 9.7 48.7 9.7 C 49.5 9.7 50.1 9.9 50.6 10.4 C 51.1 10.9 51.3 11.4 51.3 12.1 C 51.3 12.1 51.3 12.1 51.3 12.1 C 51.3 12.8 51.1 13.4 50.6 13.9 C 50.1 14.4 49.5 14.6 48.7 14.6 C 48.72 14.6 46.8 14.6 46.8 14.6 Z M 48.7 10.7 C 48.72 10.67 47.9 10.7 47.9 10.7 L 47.9 13.6 C 47.9 13.6 48.72 13.63 48.7 13.6 C 49.2 13.6 49.5 13.5 49.8 13.2 C 50.1 13 50.2 12.6 50.2 12.2 C 50.2 12.2 50.2 12.1 50.2 12.1 C 50.2 11.7 50.1 11.4 49.8 11.1 C 49.5 10.8 49.2 10.7 48.7 10.7 Z M 55 14.6 L 55 10.8 L 54.2 11 L 54 10.1 L 55.4 9.7 L 56.1 9.7 L 56.1 14.6 L 55 14.6 Z M 59.3 14.7 C 58.6 14.7 58.1 14.4 57.7 14 C 57.3 13.5 57.1 12.9 57.1 12.2 C 57.1 12.2 57.1 12.1 57.1 12.1 C 57.1 11.4 57.3 10.8 57.7 10.3 C 58.1 9.9 58.7 9.6 59.3 9.6 C 59.9 9.6 60.5 9.9 60.9 10.3 C 61.3 10.8 61.5 11.4 61.5 12.1 C 61.5 12.1 61.5 12.1 61.5 12.1 C 61.5 12.9 61.3 13.5 60.9 14 C 60.5 14.4 59.9 14.7 59.3 14.7 Z M 58.2 12.1 C 58.2 12.6 58.3 13 58.5 13.3 C 58.7 13.6 59 13.7 59.3 13.7 C 59.6 13.7 59.9 13.6 60.1 13.3 C 60.3 13 60.4 12.6 60.4 12.2 C 60.4 12.2 60.4 12.1 60.4 12.1 C 60.4 11.7 60.3 11.3 60.1 11 C 59.9 10.7 59.6 10.6 59.3 10.6 C 59 10.6 58.7 10.7 58.5 11 C 58.3 11.3 58.2 11.7 58.2 12.1 C 58.23 12.14 58.2 12.1 58.2 12.1 C 58.2 12.1 58.23 12.15 58.2 12.1 Z M 64 14.7 C 63.3 14.7 62.7 14.4 62.2 13.9 C 62.2 13.9 62.8 13.2 62.8 13.2 C 63.2 13.5 63.6 13.7 64 13.7 C 64.2 13.7 64.4 13.6 64.6 13.5 C 64.7 13.4 64.8 13.2 64.8 13 C 64.8 13 64.8 13 64.8 13 C 64.8 12.8 64.7 12.6 64.6 12.5 C 64.4 12.4 64.2 12.3 63.9 12.3 C 63.7 12.3 63.4 12.4 63.1 12.5 C 63.11 12.53 62.5 12.1 62.5 12.1 L 62.6 9.7 L 65.6 9.7 L 65.6 10.6 L 63.6 10.6 C 63.6 10.6 63.5 11.49 63.5 11.5 C 63.7 11.4 63.9 11.4 64.1 11.4 C 64.6 11.4 65.1 11.5 65.4 11.8 C 65.7 12.1 65.9 12.5 65.9 13 C 65.9 13 65.9 13 65.9 13 C 65.9 13.5 65.7 13.9 65.3 14.2 C 65 14.5 64.6 14.7 64 14.7 Z M 69.1 14.6 L 69.1 13.5 L 66.7 13.5 L 66.5 12.8 L 69.2 9.7 L 70.1 9.7 L 70.1 12.7 L 70.7 12.7 L 70.7 13.5 L 70.1 13.5 L 70.1 14.6 L 69.1 14.6 Z M 67.8 12.7 L 69.1 12.7 L 69.1 11.1 L 67.8 12.7 Z M 71.4 14.6 L 71.4 13.7 C 71.4 13.7 73.07 12.41 73.1 12.4 C 73.4 12.1 73.6 11.9 73.7 11.8 C 73.9 11.6 73.9 11.4 73.9 11.2 C 73.9 11 73.9 10.9 73.7 10.8 C 73.6 10.7 73.5 10.6 73.3 10.6 C 73.1 10.6 72.9 10.6 72.8 10.7 C 72.6 10.8 72.4 11 72.3 11.3 C 72.3 11.3 71.5 10.6 71.5 10.6 C 71.8 10.3 72 10 72.3 9.9 C 72.6 9.7 72.9 9.6 73.3 9.6 C 73.8 9.6 74.2 9.8 74.5 10 C 74.9 10.3 75 10.7 75 11.1 C 75 11.1 75 11.2 75 11.2 C 75 11.5 74.9 11.9 74.7 12.1 C 74.5 12.4 74.2 12.7 73.7 13.1 C 73.72 13.05 72.9 13.7 72.9 13.7 L 75.1 13.7 L 75.1 14.6 L 71.4 14.6 Z " stroke="none" fill="#000"/>  </g>  <g id="Polygon45527">    <path d="M 1.7 5.6 L 1.7 1.7 L 0.2 1.7 L 0.2 0.7 L 4.3 0.7 L 4.3 1.7 L 2.8 1.7 L 2.8 5.6 L 1.7 5.6 Z M 7.4 5.1 C 7 5.5 6.7 5.7 6.3 5.7 C 5.9 5.7 5.5 5.5 5.3 5.3 C 5.1 5.1 5 4.7 5 4.3 C 4.98 4.28 5 1.8 5 1.8 L 6 1.8 C 6 1.8 6.05 3.94 6 3.9 C 6 4.4 6.3 4.7 6.7 4.7 C 6.9 4.7 7.1 4.6 7.2 4.5 C 7.3 4.4 7.4 4.2 7.4 3.9 C 7.36 3.94 7.4 1.8 7.4 1.8 L 8.4 1.8 L 8.4 5.6 L 7.4 5.6 L 7.4 5.1 C 7.4 5.1 7.36 5.07 7.4 5.1 Z M 9.2 5.6 L 9.2 4.9 L 11.2 2.7 L 9.3 2.7 L 9.3 1.8 L 12.5 1.8 L 12.5 2.6 L 10.6 4.7 L 12.5 4.7 L 12.5 5.6 L 9.2 5.6 Z M 16.6 5.6 L 15.1 1.8 L 16.2 1.8 L 17 4.4 L 17.9 1.8 L 19 1.8 L 17.5 5.6 L 16.6 5.6 Z M 22.9 5 C 22.5 5.5 22 5.7 21.4 5.7 C 20.8 5.7 20.4 5.5 20 5.1 C 19.6 4.8 19.4 4.3 19.4 3.7 C 19.4 3.7 19.4 3.7 19.4 3.7 C 19.4 3.2 19.6 2.7 20 2.3 C 20.3 2 20.7 1.8 21.3 1.8 C 21.9 1.8 22.3 2 22.6 2.4 C 23 2.8 23.1 3.2 23.1 3.8 C 23.1 3.9 23.1 4 23.1 4.1 C 23.1 4.1 20.5 4.1 20.5 4.1 C 20.5 4.3 20.6 4.5 20.8 4.6 C 21 4.8 21.2 4.8 21.4 4.8 C 21.7 4.8 22 4.7 22.3 4.4 C 22.32 4.44 22.9 5 22.9 5 C 22.9 5 22.92 4.98 22.9 5 Z M 20.5 3.4 C 20.5 3.4 22.1 3.4 22.1 3.4 C 22 3.2 22 3 21.8 2.8 C 21.7 2.7 21.5 2.6 21.3 2.6 C 21.1 2.6 20.9 2.7 20.7 2.8 C 20.6 3 20.5 3.2 20.5 3.4 Z M 26.1 5.6 L 26.1 0.7 C 26.1 0.7 28.39 0.7 28.4 0.7 C 29 0.7 29.4 0.8 29.7 1.1 C 29.9 1.4 30 1.6 30 2 C 30 2 30 2 30 2 C 30 2.5 29.8 2.8 29.4 3 C 29.7 3.2 29.9 3.3 30.1 3.5 C 30.2 3.7 30.3 3.9 30.3 4.2 C 30.3 4.2 30.3 4.3 30.3 4.3 C 30.3 4.7 30.1 5 29.8 5.3 C 29.5 5.5 29 5.6 28.4 5.6 C 28.45 5.6 26.1 5.6 26.1 5.6 Z M 28.2 2.7 C 28.7 2.7 28.9 2.5 28.9 2.2 C 28.9 2.2 28.9 2.1 28.9 2.1 C 28.9 1.8 28.7 1.6 28.2 1.6 C 28.23 1.64 27.2 1.6 27.2 1.6 L 27.2 2.7 L 28.2 2.7 C 28.2 2.7 28.16 2.68 28.2 2.7 Z M 28.4 4.7 C 29 4.7 29.2 4.5 29.2 4.1 C 29.2 4.1 29.2 4.1 29.2 4.1 C 29.2 3.8 28.9 3.6 28.4 3.6 C 28.41 3.58 27.2 3.6 27.2 3.6 L 27.2 4.7 L 28.4 4.7 C 28.4 4.7 28.45 4.65 28.4 4.7 Z M 31.1 1.4 L 31.1 0.5 L 32.2 0.5 L 32.2 1.4 L 31.1 1.4 Z M 31.1 5.6 L 31.1 1.8 L 32.2 1.8 L 32.2 5.6 L 31.1 5.6 Z M 35.4 5.7 C 34.9 5.7 34.5 5.5 34.2 5.1 C 34.24 5.11 34.2 5.6 34.2 5.6 L 33.2 5.6 L 33.2 0.5 L 34.2 0.5 C 34.2 0.5 34.24 2.39 34.2 2.4 C 34.5 2 34.9 1.8 35.4 1.8 C 35.9 1.8 36.3 2 36.6 2.3 C 36.9 2.6 37.1 3.1 37.1 3.7 C 37.1 3.7 37.1 3.7 37.1 3.7 C 37.1 4.3 36.9 4.8 36.6 5.1 C 36.3 5.5 35.9 5.7 35.4 5.7 Z M 34.2 3.7 C 34.2 4 34.3 4.3 34.5 4.5 C 34.7 4.7 34.9 4.8 35.1 4.8 C 35.4 4.8 35.6 4.7 35.8 4.5 C 36 4.3 36 4 36 3.7 C 36 3.7 36 3.7 36 3.7 C 36 3.4 36 3.2 35.8 3 C 35.6 2.8 35.4 2.7 35.1 2.7 C 34.9 2.7 34.7 2.8 34.5 3 C 34.3 3.2 34.2 3.4 34.2 3.7 C 34.22 3.72 34.2 3.7 34.2 3.7 C 34.2 3.7 34.22 3.73 34.2 3.7 Z M 41.2 5 C 40.8 5.5 40.3 5.7 39.7 5.7 C 39.1 5.7 38.6 5.5 38.3 5.1 C 37.9 4.8 37.7 4.3 37.7 3.7 C 37.7 3.7 37.7 3.7 37.7 3.7 C 37.7 3.2 37.9 2.7 38.2 2.3 C 38.6 2 39 1.8 39.6 1.8 C 40.2 1.8 40.6 2 40.9 2.4 C 41.2 2.8 41.4 3.2 41.4 3.8 C 41.4 3.9 41.4 4 41.4 4.1 C 41.4 4.1 38.8 4.1 38.8 4.1 C 38.8 4.3 38.9 4.5 39.1 4.6 C 39.2 4.8 39.4 4.8 39.7 4.8 C 40 4.8 40.3 4.7 40.6 4.4 C 40.6 4.44 41.2 5 41.2 5 C 41.2 5 41.21 4.98 41.2 5 Z M 38.8 3.4 C 38.8 3.4 40.4 3.4 40.4 3.4 C 40.3 3.2 40.2 3 40.1 2.8 C 40 2.7 39.8 2.6 39.6 2.6 C 39.4 2.6 39.2 2.7 39 2.8 C 38.9 3 38.8 3.2 38.8 3.4 Z M 42.2 5.6 L 42.2 1.8 L 43.3 1.8 C 43.3 1.8 43.25 2.6 43.3 2.6 C 43.5 2 43.9 1.8 44.4 1.8 C 44.45 1.78 44.4 2.9 44.4 2.9 C 44.4 2.9 44.39 2.89 44.4 2.9 C 44 2.9 43.7 3 43.5 3.2 C 43.4 3.4 43.3 3.8 43.3 4.2 C 43.25 4.21 43.3 5.6 43.3 5.6 L 42.2 5.6 Z M 49.1 5.7 C 48.3 5.7 47.6 5.4 47 4.9 C 47 4.9 47.6 4.1 47.6 4.1 C 48.1 4.5 48.6 4.7 49.1 4.7 C 49.3 4.7 49.5 4.7 49.6 4.6 C 49.7 4.5 49.8 4.4 49.8 4.3 C 49.8 4.3 49.8 4.2 49.8 4.2 C 49.8 4.1 49.7 4 49.6 3.9 C 49.5 3.8 49.2 3.7 48.8 3.6 C 48.5 3.5 48.3 3.5 48.1 3.4 C 48 3.3 47.8 3.3 47.6 3.1 C 47.5 3 47.4 2.9 47.3 2.7 C 47.2 2.6 47.2 2.4 47.2 2.1 C 47.2 2.1 47.2 2.1 47.2 2.1 C 47.2 1.7 47.3 1.3 47.7 1 C 48 0.8 48.4 0.6 48.9 0.6 C 49.6 0.6 50.2 0.8 50.7 1.3 C 50.7 1.3 50.2 2.1 50.2 2.1 C 49.7 1.7 49.3 1.6 48.9 1.6 C 48.7 1.6 48.5 1.6 48.4 1.7 C 48.3 1.8 48.3 1.9 48.3 2 C 48.3 2 48.3 2 48.3 2 C 48.3 2.2 48.3 2.3 48.5 2.4 C 48.6 2.5 48.9 2.6 49.3 2.7 C 49.8 2.8 50.2 3 50.5 3.2 C 50.7 3.4 50.9 3.7 50.9 4.1 C 50.9 4.1 50.9 4.2 50.9 4.2 C 50.9 4.6 50.7 5 50.4 5.3 C 50 5.5 49.6 5.7 49.1 5.7 Z M 55 5 C 54.6 5.5 54.1 5.7 53.5 5.7 C 52.9 5.7 52.4 5.5 52.1 5.1 C 51.7 4.8 51.5 4.3 51.5 3.7 C 51.5 3.7 51.5 3.7 51.5 3.7 C 51.5 3.2 51.7 2.7 52 2.3 C 52.4 2 52.8 1.8 53.4 1.8 C 54 1.8 54.4 2 54.7 2.4 C 55 2.8 55.2 3.2 55.2 3.8 C 55.2 3.9 55.2 4 55.2 4.1 C 55.2 4.1 52.6 4.1 52.6 4.1 C 52.6 4.3 52.7 4.5 52.9 4.6 C 53 4.8 53.2 4.8 53.5 4.8 C 53.8 4.8 54.1 4.7 54.4 4.4 C 54.4 4.44 55 5 55 5 C 55 5 55.01 4.98 55 5 Z M 52.6 3.4 C 52.6 3.4 54.2 3.4 54.2 3.4 C 54.1 3.2 54 3 53.9 2.8 C 53.8 2.7 53.6 2.6 53.4 2.6 C 53.1 2.6 53 2.7 52.8 2.8 C 52.7 3 52.6 3.2 52.6 3.4 Z M 58.1 5.4 C 57.8 5.6 57.6 5.7 57.3 5.7 C 56.9 5.7 56.6 5.6 56.4 5.4 C 56.3 5.2 56.2 4.9 56.2 4.5 C 56.16 4.54 56.2 2.8 56.2 2.8 L 55.7 2.8 L 55.7 1.8 L 56.2 1.8 L 56.2 0.9 L 57.2 0.9 L 57.2 1.8 L 58.1 1.8 L 58.1 2.8 L 57.2 2.8 C 57.2 2.8 57.22 4.36 57.2 4.4 C 57.2 4.6 57.3 4.7 57.6 4.7 C 57.8 4.7 57.9 4.7 58.1 4.6 C 58.09 4.59 58.1 5.4 58.1 5.4 C 58.1 5.4 58.09 5.45 58.1 5.4 Z M 58.9 1.4 L 58.9 0.5 L 60 0.5 L 60 1.4 L 58.9 1.4 Z M 58.9 5.6 L 58.9 1.8 L 60 1.8 L 60 5.6 L 58.9 5.6 Z M 63 3.9 L 63 2.9 L 66 2.9 L 66 3.9 L 63 3.9 Z M 70.8 5.7 C 69.9 5.7 69.3 5.4 68.7 4.9 C 68.7 4.9 69.3 4.1 69.3 4.1 C 69.8 4.5 70.3 4.7 70.8 4.7 C 71 4.7 71.2 4.7 71.3 4.6 C 71.4 4.5 71.5 4.4 71.5 4.3 C 71.5 4.3 71.5 4.2 71.5 4.2 C 71.5 4.1 71.4 4 71.3 3.9 C 71.2 3.8 70.9 3.7 70.5 3.6 C 70.2 3.5 70 3.5 69.8 3.4 C 69.6 3.3 69.5 3.3 69.3 3.1 C 69.2 3 69.1 2.9 69 2.7 C 68.9 2.6 68.9 2.4 68.9 2.1 C 68.9 2.1 68.9 2.1 68.9 2.1 C 68.9 1.7 69 1.3 69.3 1 C 69.7 0.8 70.1 0.6 70.6 0.6 C 71.3 0.6 71.9 0.8 72.4 1.3 C 72.4 1.3 71.8 2.1 71.8 2.1 C 71.4 1.7 71 1.6 70.6 1.6 C 70.4 1.6 70.2 1.6 70.1 1.7 C 70 1.8 69.9 1.9 69.9 2 C 69.9 2 69.9 2 69.9 2 C 69.9 2.2 70 2.3 70.1 2.4 C 70.3 2.5 70.6 2.6 71 2.7 C 71.5 2.8 71.9 3 72.2 3.2 C 72.4 3.4 72.6 3.7 72.6 4.1 C 72.6 4.1 72.6 4.2 72.6 4.2 C 72.6 4.6 72.4 5 72.1 5.3 C 71.7 5.5 71.3 5.7 70.8 5.7 Z M 73.4 1.4 L 73.4 0.5 L 74.5 0.5 L 74.5 1.4 L 73.4 1.4 Z M 73.4 5.6 L 73.4 1.8 L 74.5 1.8 L 74.5 5.6 L 73.4 5.6 Z M 75.5 5.6 L 75.5 1.8 L 76.6 1.8 C 76.6 1.8 76.56 2.38 76.6 2.4 C 76.9 2 77.2 1.8 77.7 1.8 C 78.1 1.8 78.4 1.9 78.6 2.1 C 78.8 2.4 78.9 2.7 78.9 3.2 C 78.93 3.17 78.9 5.6 78.9 5.6 L 77.9 5.6 C 77.9 5.6 77.87 3.51 77.9 3.5 C 77.9 3 77.7 2.7 77.2 2.7 C 77 2.7 76.8 2.8 76.7 2.9 C 76.6 3.1 76.6 3.3 76.6 3.5 C 76.56 3.51 76.6 5.6 76.6 5.6 L 75.5 5.6 Z M 83.2 6.2 C 82.8 6.6 82.3 6.7 81.5 6.7 C 80.9 6.7 80.4 6.6 79.9 6.3 C 79.9 6.3 80.2 5.5 80.2 5.5 C 80.7 5.8 81.1 5.9 81.5 5.9 C 82.2 5.9 82.6 5.5 82.6 4.9 C 82.6 4.9 82.6 4.7 82.6 4.7 C 82.4 4.9 82.2 5 82 5.1 C 81.9 5.2 81.6 5.3 81.4 5.3 C 80.9 5.3 80.5 5.1 80.2 4.8 C 79.8 4.5 79.7 4.1 79.7 3.5 C 79.7 3.5 79.7 3.5 79.7 3.5 C 79.7 3 79.8 2.6 80.2 2.3 C 80.5 1.9 80.9 1.8 81.4 1.8 C 81.8 1.8 82.2 2 82.6 2.3 C 82.56 2.34 82.6 1.8 82.6 1.8 L 83.6 1.8 C 83.6 1.8 83.63 4.75 83.6 4.8 C 83.6 5.4 83.5 5.9 83.2 6.2 C 83.2 6.2 83.2 6.2 83.2 6.2 Z M 80.8 3.5 C 80.8 3.8 80.8 4 81 4.2 C 81.2 4.3 81.4 4.4 81.7 4.4 C 81.9 4.4 82.1 4.3 82.3 4.2 C 82.5 4 82.6 3.8 82.6 3.5 C 82.6 3.5 82.6 3.5 82.6 3.5 C 82.6 3.3 82.5 3.1 82.3 2.9 C 82.1 2.7 81.9 2.7 81.7 2.7 C 81.4 2.7 81.2 2.7 81 2.9 C 80.8 3.1 80.8 3.3 80.8 3.5 C 80.75 3.53 80.8 3.5 80.8 3.5 C 80.8 3.5 80.75 3.54 80.8 3.5 Z M 84.6 5.6 L 84.6 0.5 L 85.7 0.5 L 85.7 5.6 L 84.6 5.6 Z M 90 5 C 89.6 5.5 89.1 5.7 88.5 5.7 C 87.9 5.7 87.4 5.5 87.1 5.1 C 86.7 4.8 86.5 4.3 86.5 3.7 C 86.5 3.7 86.5 3.7 86.5 3.7 C 86.5 3.2 86.7 2.7 87 2.3 C 87.4 2 87.8 1.8 88.4 1.8 C 89 1.8 89.4 2 89.7 2.4 C 90 2.8 90.2 3.2 90.2 3.8 C 90.2 3.9 90.2 4 90.2 4.1 C 90.2 4.1 87.6 4.1 87.6 4.1 C 87.6 4.3 87.7 4.5 87.9 4.6 C 88 4.8 88.2 4.8 88.5 4.8 C 88.8 4.8 89.1 4.7 89.4 4.4 C 89.4 4.44 90 5 90 5 C 90 5 90 4.98 90 5 Z M 87.6 3.4 C 87.6 3.4 89.2 3.4 89.2 3.4 C 89.1 3.2 89 3 88.9 2.8 C 88.8 2.7 88.6 2.6 88.4 2.6 C 88.1 2.6 88 2.7 87.8 2.8 C 87.7 3 87.6 3.2 87.6 3.4 Z M 92.3 5.7 C 91.7 5.7 91.2 5.5 90.7 5.1 C 90.7 5.1 91.1 4.4 91.1 4.4 C 91.6 4.7 92 4.9 92.3 4.9 C 92.6 4.9 92.8 4.8 92.8 4.6 C 92.8 4.6 92.8 4.6 92.8 4.6 C 92.8 4.5 92.8 4.5 92.8 4.5 C 92.7 4.4 92.7 4.4 92.7 4.4 C 92.7 4.4 92.6 4.4 92.6 4.3 C 92.6 4.3 92.5 4.3 92.5 4.3 C 92.4 4.3 92.4 4.2 92.3 4.2 C 92.3 4.2 92.2 4.2 92.2 4.2 C 92.1 4.2 92 4.1 92 4.1 C 91.8 4.1 91.7 4 91.6 4 C 91.5 3.9 91.4 3.9 91.2 3.8 C 91.1 3.7 91 3.6 91 3.5 C 90.9 3.3 90.9 3.2 90.9 3 C 90.9 3 90.9 3 90.9 3 C 90.9 2.6 91 2.3 91.3 2.1 C 91.5 1.9 91.9 1.8 92.3 1.8 C 92.7 1.8 93.2 1.9 93.7 2.2 C 93.7 2.2 93.2 3 93.2 3 C 92.8 2.7 92.5 2.6 92.2 2.6 C 92.1 2.6 92 2.6 91.9 2.7 C 91.9 2.7 91.8 2.8 91.8 2.9 C 91.8 2.9 91.8 2.9 91.8 2.9 C 91.8 3 91.9 3 92 3.1 C 92.2 3.2 92.3 3.3 92.6 3.3 C 92.8 3.4 92.9 3.4 93 3.5 C 93.1 3.5 93.2 3.6 93.4 3.7 C 93.5 3.8 93.6 3.9 93.6 4 C 93.7 4.1 93.7 4.3 93.7 4.4 C 93.7 4.4 93.7 4.5 93.7 4.5 C 93.7 4.9 93.6 5.2 93.3 5.4 C 93.1 5.6 92.7 5.7 92.3 5.7 Z " stroke="none" fill="#000"/>  </g></svg>