<?xml version="1.0" standalone="no"?><!DOCTYPE svg PUBLIC "-//W3C//DTD SVG 1.1//EN" "http://www.w3.org/Graphics/SVG/1.1/DTD/svg11.dtd"><svg xmlns="http://www.w3.org/2000/svg" version="1.1" width="140px" height="80.4px" viewBox="0 -3 140 80.4" style="top:-3px">  <desc>Mutfak Gere leri Seti – Singles r n Kodu: ZD 32878 Renk: Steel/Beech FSC™ sertifikal kay n Tasar m: VE2</desc>  <defs/>  <g id="Polygon42771">    <path d="M 2 50.6 L 2 46.2 L 0.3 46.2 L 0.3 45.7 L 4.2 45.7 L 4.2 46.2 L 2.5 46.2 L 2.5 50.6 L 2 50.6 Z M 7.5 50.1 C 7.2 50.5 6.7 50.7 6.2 50.7 C 5.8 50.7 5.5 50.6 5.2 50.4 C 5 50.2 4.8 49.9 4.8 49.5 C 4.8 49.5 4.8 49.5 4.8 49.5 C 4.8 49.2 5 48.9 5.2 48.7 C 5.5 48.5 5.9 48.4 6.4 48.4 C 6.7 48.4 7.1 48.4 7.5 48.5 C 7.5 48.5 7.5 48.4 7.5 48.4 C 7.5 48.1 7.4 47.8 7.2 47.7 C 7 47.5 6.7 47.4 6.4 47.4 C 6 47.4 5.7 47.5 5.3 47.7 C 5.3 47.7 5.1 47.2 5.1 47.2 C 5.6 47 6 46.9 6.5 46.9 C 7 46.9 7.4 47.1 7.6 47.3 C 7.9 47.6 8 47.9 8 48.4 C 7.99 48.39 8 50.6 8 50.6 L 7.5 50.6 L 7.5 50.1 C 7.5 50.1 7.48 50.05 7.5 50.1 Z M 6.3 50.2 C 6.6 50.2 6.9 50.2 7.1 50 C 7.4 49.8 7.5 49.6 7.5 49.3 C 7.5 49.3 7.5 48.9 7.5 48.9 C 7.1 48.8 6.8 48.8 6.4 48.8 C 6.1 48.8 5.8 48.8 5.6 49 C 5.5 49.1 5.4 49.3 5.4 49.5 C 5.4 49.5 5.4 49.5 5.4 49.5 C 5.4 49.7 5.5 49.9 5.6 50.1 C 5.8 50.2 6 50.2 6.3 50.2 Z M 10.3 50.7 C 9.8 50.7 9.3 50.5 8.8 50.1 C 8.8 50.1 9.1 49.8 9.1 49.8 C 9.5 50.1 9.9 50.2 10.4 50.2 C 10.6 50.2 10.8 50.2 10.9 50.1 C 11 50 11.1 49.8 11.1 49.6 C 11.1 49.6 11.1 49.6 11.1 49.6 C 11.1 49.5 11 49.3 10.9 49.2 C 10.7 49.2 10.5 49.1 10.2 49 C 10.1 49 10 48.9 9.9 48.9 C 9.9 48.9 9.8 48.8 9.7 48.8 C 9.5 48.8 9.5 48.7 9.4 48.7 C 9.3 48.6 9.3 48.6 9.2 48.5 C 9.1 48.4 9.1 48.4 9.1 48.3 C 9 48.2 9 48.1 9 48 C 9 48 9 48 9 48 C 9 47.6 9.1 47.4 9.4 47.2 C 9.6 47 9.9 46.9 10.2 46.9 C 10.7 46.9 11.1 47.1 11.5 47.3 C 11.5 47.3 11.3 47.7 11.3 47.7 C 10.9 47.5 10.6 47.4 10.2 47.4 C 10 47.4 9.9 47.4 9.7 47.5 C 9.6 47.6 9.5 47.7 9.5 47.9 C 9.5 47.9 9.5 47.9 9.5 47.9 C 9.5 48 9.6 48 9.6 48.1 C 9.6 48.1 9.7 48.2 9.7 48.2 C 9.8 48.3 9.8 48.3 9.9 48.4 C 10 48.4 10.1 48.4 10.2 48.4 C 10.2 48.5 10.3 48.5 10.5 48.5 C 10.6 48.6 10.7 48.6 10.8 48.6 C 10.9 48.7 11 48.7 11.1 48.8 C 11.2 48.8 11.3 48.9 11.4 49 C 11.5 49 11.5 49.1 11.6 49.2 C 11.6 49.3 11.6 49.4 11.6 49.6 C 11.6 49.6 11.6 49.6 11.6 49.6 C 11.6 49.9 11.5 50.2 11.3 50.4 C 11 50.6 10.7 50.7 10.3 50.7 Z M 15 50.1 C 14.7 50.5 14.3 50.7 13.7 50.7 C 13.3 50.7 13 50.6 12.8 50.4 C 12.5 50.2 12.4 49.9 12.4 49.5 C 12.4 49.5 12.4 49.5 12.4 49.5 C 12.4 49.2 12.5 48.9 12.8 48.7 C 13.1 48.5 13.4 48.4 13.9 48.4 C 14.3 48.4 14.6 48.4 15 48.5 C 15 48.5 15 48.4 15 48.4 C 15 48.1 14.9 47.8 14.7 47.7 C 14.5 47.5 14.3 47.4 13.9 47.4 C 13.6 47.4 13.2 47.5 12.8 47.7 C 12.8 47.7 12.7 47.2 12.7 47.2 C 13.1 47 13.5 46.9 14 46.9 C 14.5 46.9 14.9 47.1 15.2 47.3 C 15.4 47.6 15.5 47.9 15.5 48.4 C 15.53 48.39 15.5 50.6 15.5 50.6 L 15 50.6 L 15 50.1 C 15 50.1 15.01 50.05 15 50.1 Z M 13.8 50.2 C 14.2 50.2 14.4 50.2 14.7 50 C 14.9 49.8 15 49.6 15 49.3 C 15 49.3 15 48.9 15 48.9 C 14.7 48.8 14.3 48.8 14 48.8 C 13.6 48.8 13.4 48.8 13.2 49 C 13 49.1 12.9 49.3 12.9 49.5 C 12.9 49.5 12.9 49.5 12.9 49.5 C 12.9 49.7 13 49.9 13.2 50.1 C 13.3 50.2 13.6 50.2 13.8 50.2 Z M 16.7 50.6 L 16.7 47 L 17.2 47 C 17.2 47 17.22 47.93 17.2 47.9 C 17.4 47.6 17.6 47.4 17.8 47.2 C 18.1 47 18.4 46.9 18.7 46.9 C 18.7 46.92 18.7 47.5 18.7 47.5 C 18.7 47.5 18.65 47.5 18.7 47.5 C 18.2 47.5 17.9 47.6 17.6 47.9 C 17.4 48.2 17.2 48.6 17.2 49.2 C 17.22 49.16 17.2 50.6 17.2 50.6 L 16.7 50.6 Z M 19.6 50.6 L 19.6 47 L 20.1 47 L 20.1 50.6 L 19.6 50.6 Z M 21.4 50.6 L 21.4 47 L 21.9 47 C 21.9 47 21.9 47.59 21.9 47.6 C 22 47.4 22.2 47.2 22.4 47.1 C 22.6 47 22.8 46.9 23.1 46.9 C 23.6 46.9 24 47.1 24.2 47.6 C 24.5 47.1 25 46.9 25.5 46.9 C 25.9 46.9 26.2 47 26.5 47.3 C 26.7 47.6 26.8 47.9 26.8 48.4 C 26.84 48.36 26.8 50.6 26.8 50.6 L 26.3 50.6 C 26.3 50.6 26.31 48.49 26.3 48.5 C 26.3 48.1 26.2 47.9 26.1 47.7 C 25.9 47.5 25.7 47.4 25.4 47.4 C 25.1 47.4 24.9 47.5 24.7 47.7 C 24.5 47.9 24.4 48.2 24.4 48.5 C 24.37 48.51 24.4 50.6 24.4 50.6 L 23.8 50.6 C 23.8 50.6 23.83 48.47 23.8 48.5 C 23.8 48.1 23.8 47.9 23.6 47.7 C 23.4 47.5 23.2 47.4 22.9 47.4 C 22.6 47.4 22.4 47.5 22.2 47.7 C 22 47.9 21.9 48.2 21.9 48.5 C 21.9 48.53 21.9 50.6 21.9 50.6 L 21.4 50.6 Z M 28 47.7 L 28 47 L 28.6 47 L 28.6 47.7 L 28 47.7 Z M 28 50.6 L 28 49.9 L 28.6 49.9 L 28.6 50.6 L 28 50.6 Z M 33.6 50.6 L 31.5 45.7 L 32.2 45.7 L 33.9 49.9 L 35.7 45.7 L 36.2 45.7 L 34.1 50.6 L 33.6 50.6 Z M 37.2 50.6 L 37.2 45.7 L 40.8 45.7 L 40.8 46.2 L 37.8 46.2 L 37.8 47.9 L 40.4 47.9 L 40.4 48.4 L 37.8 48.4 L 37.8 50.1 L 40.8 50.1 L 40.8 50.6 L 37.2 50.6 Z M 41.5 50.6 L 41.5 50.2 C 41.5 50.2 43.32 48.6 43.3 48.6 C 43.7 48.3 44 48 44.1 47.8 C 44.3 47.5 44.3 47.3 44.3 47.1 C 44.3 46.8 44.2 46.6 44.1 46.4 C 43.9 46.2 43.6 46.1 43.4 46.1 C 43.1 46.1 42.9 46.2 42.7 46.3 C 42.4 46.5 42.2 46.7 42 47 C 42 47 41.6 46.7 41.6 46.7 C 41.9 46.3 42.1 46 42.4 45.9 C 42.7 45.7 43 45.6 43.4 45.6 C 43.8 45.6 44.2 45.8 44.5 46 C 44.8 46.3 44.9 46.6 44.9 47 C 44.9 47 44.9 47 44.9 47 C 44.9 47.4 44.8 47.7 44.6 47.9 C 44.5 48.2 44.1 48.5 43.7 48.9 C 43.68 48.93 42.4 50.1 42.4 50.1 L 45 50.1 L 45 50.6 L 41.5 50.6 Z " stroke="none" fill="#000"/>  </g>  <g id="Polygon42770">    <path d="M 0.7 41.6 L 0.7 36.7 L 4.2 36.7 L 4.2 37.2 L 1.2 37.2 L 1.2 39 L 3.9 39 L 3.9 39.5 L 1.2 39.5 L 1.2 41.6 L 0.7 41.6 Z M 7 41.7 C 6.2 41.7 5.5 41.4 5 40.9 C 5 40.9 5.3 40.5 5.3 40.5 C 5.6 40.7 5.8 40.9 6.1 41 C 6.4 41.1 6.7 41.2 7 41.2 C 7.3 41.2 7.6 41.1 7.8 40.9 C 8 40.8 8.1 40.6 8.1 40.3 C 8.1 40.3 8.1 40.3 8.1 40.3 C 8.1 40.1 8 39.9 7.8 39.8 C 7.6 39.6 7.3 39.5 6.8 39.4 C 6.2 39.3 5.8 39.1 5.5 38.9 C 5.3 38.7 5.2 38.4 5.2 38 C 5.2 38 5.2 38 5.2 38 C 5.2 37.6 5.3 37.3 5.6 37 C 5.9 36.8 6.3 36.6 6.8 36.6 C 7.1 36.6 7.4 36.7 7.7 36.8 C 8 36.9 8.2 37 8.5 37.2 C 8.5 37.2 8.2 37.7 8.2 37.7 C 7.7 37.3 7.3 37.1 6.8 37.1 C 6.4 37.1 6.2 37.2 6 37.4 C 5.8 37.5 5.7 37.7 5.7 37.9 C 5.7 37.9 5.7 37.9 5.7 37.9 C 5.7 38.2 5.8 38.4 6 38.5 C 6.2 38.7 6.5 38.8 7 38.9 C 7.6 39 8 39.2 8.3 39.4 C 8.5 39.6 8.6 39.9 8.6 40.3 C 8.6 40.3 8.6 40.3 8.6 40.3 C 8.6 40.7 8.5 41 8.2 41.3 C 7.9 41.5 7.5 41.7 7 41.7 Z M 12 41.7 C 11.3 41.7 10.7 41.4 10.3 41 C 9.8 40.5 9.5 39.9 9.5 39.2 C 9.5 39.2 9.5 39.1 9.5 39.1 C 9.5 38.4 9.8 37.8 10.3 37.4 C 10.7 36.9 11.3 36.6 12 36.6 C 12.4 36.6 12.8 36.7 13.1 36.8 C 13.4 36.9 13.7 37.1 13.9 37.4 C 13.9 37.4 13.6 37.8 13.6 37.8 C 13.3 37.6 13.1 37.4 12.8 37.3 C 12.6 37.2 12.3 37.1 12 37.1 C 11.5 37.1 11 37.3 10.7 37.7 C 10.3 38.1 10.1 38.6 10.1 39.1 C 10.1 39.1 10.1 39.1 10.1 39.1 C 10.1 39.7 10.3 40.2 10.7 40.6 C 11 41 11.5 41.2 12 41.2 C 12.3 41.2 12.6 41.1 12.9 41 C 13.1 40.9 13.3 40.7 13.6 40.5 C 13.6 40.5 14 40.8 14 40.8 C 13.7 41.1 13.4 41.3 13.1 41.5 C 12.8 41.6 12.4 41.7 12 41.7 Z M 16.6 38.9 L 16.6 36.7 L 16.9 36.7 L 17.7 37.9 L 18.5 36.7 L 18.8 36.7 L 18.8 38.9 L 18.5 38.9 L 18.5 37.2 L 17.7 38.4 L 17.7 38.4 L 16.9 37.2 L 16.9 38.9 L 16.6 38.9 Z M 15.1 38.9 L 15.1 37 L 14.4 37 L 14.4 36.7 L 16.1 36.7 L 16.1 37 L 15.4 37 L 15.4 38.9 L 15.1 38.9 Z M 23 41.7 C 22.4 41.7 21.9 41.5 21.5 41.1 C 21.5 41.1 21.8 40.8 21.8 40.8 C 22.2 41.1 22.6 41.2 23 41.2 C 23.2 41.2 23.4 41.2 23.6 41.1 C 23.7 41 23.8 40.8 23.8 40.6 C 23.8 40.6 23.8 40.6 23.8 40.6 C 23.8 40.5 23.7 40.3 23.5 40.2 C 23.4 40.2 23.2 40.1 22.9 40 C 22.7 40 22.6 39.9 22.6 39.9 C 22.5 39.9 22.4 39.8 22.3 39.8 C 22.2 39.8 22.1 39.7 22.1 39.7 C 22 39.6 21.9 39.6 21.9 39.5 C 21.8 39.4 21.7 39.4 21.7 39.3 C 21.7 39.2 21.7 39.1 21.7 39 C 21.7 39 21.7 39 21.7 39 C 21.7 38.6 21.8 38.4 22 38.2 C 22.2 38 22.5 37.9 22.9 37.9 C 23.4 37.9 23.8 38.1 24.2 38.3 C 24.2 38.3 24 38.7 24 38.7 C 23.6 38.5 23.2 38.4 22.9 38.4 C 22.7 38.4 22.5 38.4 22.4 38.5 C 22.3 38.6 22.2 38.7 22.2 38.9 C 22.2 38.9 22.2 38.9 22.2 38.9 C 22.2 39 22.2 39 22.2 39.1 C 22.3 39.1 22.3 39.2 22.4 39.2 C 22.4 39.3 22.5 39.3 22.6 39.4 C 22.7 39.4 22.8 39.4 22.8 39.4 C 22.9 39.5 23 39.5 23.1 39.5 C 23.3 39.6 23.4 39.6 23.5 39.6 C 23.6 39.7 23.7 39.7 23.8 39.8 C 23.9 39.8 24 39.9 24 40 C 24.1 40 24.2 40.1 24.2 40.2 C 24.3 40.3 24.3 40.4 24.3 40.6 C 24.3 40.6 24.3 40.6 24.3 40.6 C 24.3 40.9 24.2 41.2 23.9 41.4 C 23.7 41.6 23.4 41.7 23 41.7 Z M 28.4 41 C 28 41.5 27.5 41.7 26.9 41.7 C 26.4 41.7 25.9 41.5 25.6 41.2 C 25.2 40.8 25.1 40.4 25.1 39.8 C 25.1 39.8 25.1 39.8 25.1 39.8 C 25.1 39.3 25.2 38.8 25.6 38.4 C 25.9 38.1 26.3 37.9 26.8 37.9 C 27.3 37.9 27.7 38.1 28 38.4 C 28.3 38.8 28.5 39.3 28.5 39.8 C 28.5 39.9 28.5 39.9 28.5 40 C 28.5 40 25.6 40 25.6 40 C 25.6 40.4 25.8 40.7 26 40.9 C 26.3 41.1 26.5 41.2 26.9 41.2 C 27.3 41.2 27.7 41 28 40.7 C 28.02 40.7 28.4 41 28.4 41 C 28.4 41 28.36 41 28.4 41 Z M 25.6 39.6 C 25.6 39.6 27.9 39.6 27.9 39.6 C 27.9 39.2 27.8 38.9 27.6 38.7 C 27.4 38.5 27.1 38.4 26.8 38.4 C 26.5 38.4 26.2 38.5 26 38.7 C 25.8 38.9 25.6 39.2 25.6 39.6 Z M 29.4 41.6 L 29.4 38 L 30 38 C 30 38 29.97 38.93 30 38.9 C 30.1 38.6 30.3 38.4 30.6 38.2 C 30.8 38 31.1 37.9 31.4 37.9 C 31.44 37.92 31.4 38.5 31.4 38.5 C 31.4 38.5 31.4 38.5 31.4 38.5 C 31 38.5 30.6 38.6 30.4 38.9 C 30.1 39.2 30 39.6 30 40.2 C 29.97 40.16 30 41.6 30 41.6 L 29.4 41.6 Z M 34.1 41.5 C 33.9 41.6 33.7 41.7 33.5 41.7 C 33.2 41.7 32.9 41.6 32.7 41.4 C 32.5 41.2 32.5 41 32.5 40.6 C 32.45 40.64 32.5 38.5 32.5 38.5 L 31.9 38.5 L 31.9 38 L 32.5 38 L 32.5 36.9 L 33 36.9 L 33 38 L 34.1 38 L 34.1 38.5 L 33 38.5 C 33 38.5 32.99 40.57 33 40.6 C 33 41 33.2 41.2 33.6 41.2 C 33.8 41.2 34 41.1 34.1 41 C 34.12 41.05 34.1 41.5 34.1 41.5 C 34.1 41.5 34.12 41.51 34.1 41.5 Z M 35.1 37.2 L 35.1 36.6 L 35.7 36.6 L 35.7 37.2 L 35.1 37.2 Z M 35.1 41.6 L 35.1 38 L 35.7 38 L 35.7 41.6 L 35.1 41.6 Z M 37.1 41.6 L 37.1 38.5 L 36.6 38.5 L 36.6 38 L 37.1 38 C 37.1 38 37.13 37.67 37.1 37.7 C 37.1 37.3 37.2 37 37.4 36.7 C 37.6 36.6 37.9 36.5 38.2 36.5 C 38.5 36.5 38.7 36.5 38.8 36.6 C 38.8 36.6 38.8 37 38.8 37 C 38.6 37 38.4 36.9 38.3 36.9 C 37.9 36.9 37.7 37.2 37.7 37.7 C 37.67 37.7 37.7 38 37.7 38 L 38.8 38 L 38.8 38.5 L 37.7 38.5 L 37.7 41.6 L 37.1 41.6 Z M 39.5 37.2 L 39.5 36.6 L 40.1 36.6 L 40.1 37.2 L 39.5 37.2 Z M 39.5 41.6 L 39.5 38 L 40.1 38 L 40.1 41.6 L 39.5 41.6 Z M 41.3 41.6 L 41.3 36.5 L 41.9 36.5 L 41.9 40 L 43.8 38 L 44.5 38 L 43 39.5 L 44.6 41.6 L 43.9 41.6 L 42.6 39.9 L 41.9 40.7 L 41.9 41.6 L 41.3 41.6 Z M 47.7 41.1 C 47.4 41.5 47 41.7 46.4 41.7 C 46 41.7 45.7 41.6 45.5 41.4 C 45.2 41.2 45.1 40.9 45.1 40.5 C 45.1 40.5 45.1 40.5 45.1 40.5 C 45.1 40.2 45.2 39.9 45.5 39.7 C 45.8 39.5 46.1 39.4 46.6 39.4 C 47 39.4 47.3 39.4 47.7 39.5 C 47.7 39.5 47.7 39.4 47.7 39.4 C 47.7 39.1 47.6 38.8 47.4 38.7 C 47.2 38.5 47 38.4 46.6 38.4 C 46.3 38.4 45.9 38.5 45.5 38.7 C 45.5 38.7 45.4 38.2 45.4 38.2 C 45.8 38 46.2 37.9 46.7 37.9 C 47.2 37.9 47.6 38.1 47.9 38.3 C 48.1 38.6 48.2 38.9 48.2 39.4 C 48.23 39.39 48.2 41.6 48.2 41.6 L 47.7 41.6 L 47.7 41.1 C 47.7 41.1 47.71 41.05 47.7 41.1 Z M 46.5 41.2 C 46.8 41.2 47.1 41.2 47.4 41 C 47.6 40.8 47.7 40.6 47.7 40.3 C 47.7 40.3 47.7 39.9 47.7 39.9 C 47.4 39.8 47 39.8 46.7 39.8 C 46.3 39.8 46.1 39.8 45.9 40 C 45.7 40.1 45.6 40.3 45.6 40.5 C 45.6 40.5 45.6 40.5 45.6 40.5 C 45.6 40.7 45.7 40.9 45.9 41.1 C 46 41.2 46.3 41.2 46.5 41.2 Z M 49.4 41.6 L 49.4 36.5 L 50 36.5 L 50 41.6 L 49.4 41.6 Z M 51.3 41.6 L 51.3 38 L 51.8 38 L 51.8 41.6 L 51.3 41.6 Z M 55.2 41.6 L 55.2 36.5 L 55.7 36.5 L 55.7 40 L 57.7 38 L 58.3 38 L 56.8 39.5 L 58.4 41.6 L 57.7 41.6 L 56.4 39.9 L 55.7 40.7 L 55.7 41.6 L 55.2 41.6 Z M 61.5 41.1 C 61.2 41.5 60.8 41.7 60.2 41.7 C 59.9 41.7 59.5 41.6 59.3 41.4 C 59 41.2 58.9 40.9 58.9 40.5 C 58.9 40.5 58.9 40.5 58.9 40.5 C 58.9 40.2 59 39.9 59.3 39.7 C 59.6 39.5 59.9 39.4 60.4 39.4 C 60.8 39.4 61.2 39.4 61.5 39.5 C 61.5 39.5 61.5 39.4 61.5 39.4 C 61.5 39.1 61.4 38.8 61.2 38.7 C 61.1 38.5 60.8 38.4 60.5 38.4 C 60.1 38.4 59.7 38.5 59.4 38.7 C 59.4 38.7 59.2 38.2 59.2 38.2 C 59.6 38 60.1 37.9 60.5 37.9 C 61 37.9 61.4 38.1 61.7 38.3 C 61.9 38.6 62 38.9 62 39.4 C 62.05 39.39 62 41.6 62 41.6 L 61.5 41.6 L 61.5 41.1 C 61.5 41.1 61.53 41.05 61.5 41.1 Z M 60.3 41.2 C 60.7 41.2 61 41.2 61.2 41 C 61.4 40.8 61.5 40.6 61.5 40.3 C 61.5 40.3 61.5 39.9 61.5 39.9 C 61.2 39.8 60.8 39.8 60.5 39.8 C 60.1 39.8 59.9 39.8 59.7 40 C 59.5 40.1 59.4 40.3 59.4 40.5 C 59.4 40.5 59.4 40.5 59.4 40.5 C 59.4 40.7 59.5 40.9 59.7 41.1 C 59.9 41.2 60.1 41.2 60.3 41.2 Z M 64.7 41 L 65.9 38 L 66.5 38 C 66.5 38 64.96 41.72 65 41.7 C 64.8 42.1 64.6 42.4 64.5 42.5 C 64.3 42.7 64 42.7 63.8 42.7 C 63.5 42.7 63.2 42.7 63 42.6 C 63 42.6 63.2 42.1 63.2 42.1 C 63.3 42.2 63.5 42.3 63.7 42.3 C 63.9 42.3 64 42.2 64.2 42.1 C 64.3 42 64.4 41.8 64.5 41.6 C 64.48 41.59 62.8 38 62.8 38 L 63.4 38 L 64.7 41 Z M 67.4 41.6 L 67.4 38 L 67.9 38 L 67.9 41.6 L 67.4 41.6 Z M 69.2 41.6 L 69.2 38 L 69.7 38 C 69.7 38 69.71 38.61 69.7 38.6 C 70 38.1 70.4 37.9 71 37.9 C 71.4 37.9 71.7 38 72 38.3 C 72.2 38.6 72.3 38.9 72.3 39.4 C 72.34 39.35 72.3 41.6 72.3 41.6 L 71.8 41.6 C 71.8 41.6 71.8 39.49 71.8 39.5 C 71.8 39.1 71.7 38.9 71.5 38.7 C 71.4 38.5 71.1 38.4 70.8 38.4 C 70.5 38.4 70.2 38.5 70 38.7 C 69.8 38.9 69.7 39.2 69.7 39.5 C 69.71 39.53 69.7 41.6 69.7 41.6 L 69.2 41.6 Z " stroke="none" fill="#000"/>  </g>  <g id="Polygon42769">    <path d="M 0.7 23.6 L 0.7 18.7 C 0.7 18.7 2.8 18.7 2.8 18.7 C 3.4 18.7 3.9 18.9 4.2 19.2 C 4.4 19.4 4.6 19.8 4.6 20.2 C 4.6 20.2 4.6 20.2 4.6 20.2 C 4.6 20.6 4.4 20.9 4.2 21.1 C 4 21.4 3.6 21.5 3.2 21.6 C 3.24 21.6 4.7 23.6 4.7 23.6 L 4.1 23.6 L 2.6 21.7 L 1.2 21.7 L 1.2 23.6 L 0.7 23.6 Z M 1.2 21.2 C 1.2 21.2 2.75 21.2 2.8 21.2 C 3.1 21.2 3.4 21.1 3.7 20.9 C 3.9 20.7 4 20.5 4 20.2 C 4 20.2 4 20.2 4 20.2 C 4 19.9 3.9 19.6 3.7 19.5 C 3.5 19.3 3.2 19.2 2.8 19.2 C 2.76 19.21 1.2 19.2 1.2 19.2 L 1.2 21.2 Z M 8.7 23 C 8.3 23.5 7.8 23.7 7.2 23.7 C 6.7 23.7 6.3 23.5 6 23.2 C 5.6 22.8 5.4 22.4 5.4 21.8 C 5.4 21.8 5.4 21.8 5.4 21.8 C 5.4 21.3 5.6 20.8 5.9 20.4 C 6.3 20.1 6.7 19.9 7.2 19.9 C 7.7 19.9 8.1 20.1 8.4 20.4 C 8.7 20.8 8.9 21.3 8.9 21.8 C 8.9 21.9 8.9 21.9 8.9 22 C 8.9 22 6 22 6 22 C 6 22.4 6.2 22.7 6.4 22.9 C 6.6 23.1 6.9 23.2 7.3 23.2 C 7.7 23.2 8.1 23 8.4 22.7 C 8.4 22.7 8.7 23 8.7 23 C 8.7 23 8.74 23 8.7 23 Z M 6 21.6 C 6 21.6 8.3 21.6 8.3 21.6 C 8.3 21.2 8.2 20.9 8 20.7 C 7.8 20.5 7.5 20.4 7.2 20.4 C 6.8 20.4 6.6 20.5 6.4 20.7 C 6.1 20.9 6 21.2 6 21.6 Z M 9.8 23.6 L 9.8 20 L 10.3 20 C 10.3 20 10.35 20.61 10.3 20.6 C 10.6 20.1 11.1 19.9 11.6 19.9 C 12 19.9 12.4 20 12.6 20.3 C 12.8 20.6 13 20.9 13 21.4 C 12.97 21.35 13 23.6 13 23.6 L 12.4 23.6 C 12.4 23.6 12.43 21.49 12.4 21.5 C 12.4 21.1 12.3 20.9 12.2 20.7 C 12 20.5 11.7 20.4 11.4 20.4 C 11.1 20.4 10.9 20.5 10.7 20.7 C 10.4 20.9 10.3 21.2 10.3 21.5 C 10.35 21.53 10.3 23.6 10.3 23.6 L 9.8 23.6 Z M 14.1 23.6 L 14.1 18.5 L 14.7 18.5 L 14.7 22 L 16.6 20 L 17.3 20 L 15.8 21.5 L 17.3 23.6 L 16.7 23.6 L 15.4 21.9 L 14.7 22.7 L 14.7 23.6 L 14.1 23.6 Z M 18.1 20.7 L 18.1 20 L 18.7 20 L 18.7 20.7 L 18.1 20.7 Z M 18.1 23.6 L 18.1 22.9 L 18.7 22.9 L 18.7 23.6 L 18.1 23.6 Z M 23.8 23.7 C 23 23.7 22.3 23.4 21.7 22.9 C 21.7 22.9 22.1 22.5 22.1 22.5 C 22.4 22.7 22.6 22.9 22.9 23 C 23.1 23.1 23.4 23.2 23.8 23.2 C 24.1 23.2 24.4 23.1 24.6 22.9 C 24.8 22.8 24.9 22.6 24.9 22.3 C 24.9 22.3 24.9 22.3 24.9 22.3 C 24.9 22.1 24.8 21.9 24.6 21.8 C 24.4 21.6 24.1 21.5 23.6 21.4 C 23 21.3 22.6 21.1 22.3 20.9 C 22.1 20.7 21.9 20.4 21.9 20 C 21.9 20 21.9 20 21.9 20 C 21.9 19.6 22.1 19.3 22.4 19 C 22.7 18.8 23.1 18.6 23.6 18.6 C 23.9 18.6 24.2 18.7 24.5 18.8 C 24.8 18.9 25 19 25.3 19.2 C 25.3 19.2 25 19.7 25 19.7 C 24.5 19.3 24 19.1 23.5 19.1 C 23.2 19.1 23 19.2 22.8 19.4 C 22.6 19.5 22.5 19.7 22.5 19.9 C 22.5 19.9 22.5 19.9 22.5 19.9 C 22.5 20.2 22.6 20.4 22.8 20.5 C 23 20.7 23.3 20.8 23.8 20.9 C 24.4 21 24.8 21.2 25 21.4 C 25.3 21.6 25.4 21.9 25.4 22.3 C 25.4 22.3 25.4 22.3 25.4 22.3 C 25.4 22.7 25.3 23 25 23.3 C 24.6 23.5 24.2 23.7 23.8 23.7 Z M 28.3 23.5 C 28.1 23.6 27.9 23.7 27.7 23.7 C 27.4 23.7 27.1 23.6 26.9 23.4 C 26.7 23.2 26.6 23 26.6 22.6 C 26.65 22.64 26.6 20.5 26.6 20.5 L 26.1 20.5 L 26.1 20 L 26.6 20 L 26.6 18.9 L 27.2 18.9 L 27.2 20 L 28.3 20 L 28.3 20.5 L 27.2 20.5 C 27.2 20.5 27.19 22.57 27.2 22.6 C 27.2 23 27.4 23.2 27.8 23.2 C 28 23.2 28.1 23.1 28.3 23 C 28.32 23.05 28.3 23.5 28.3 23.5 C 28.3 23.5 28.32 23.51 28.3 23.5 Z M 32.4 23 C 32 23.5 31.5 23.7 30.9 23.7 C 30.4 23.7 29.9 23.5 29.6 23.2 C 29.2 22.8 29.1 22.4 29.1 21.8 C 29.1 21.8 29.1 21.8 29.1 21.8 C 29.1 21.3 29.2 20.8 29.6 20.4 C 29.9 20.1 30.3 19.9 30.8 19.9 C 31.3 19.9 31.7 20.1 32 20.4 C 32.3 20.8 32.5 21.3 32.5 21.8 C 32.5 21.9 32.5 21.9 32.5 22 C 32.5 22 29.6 22 29.6 22 C 29.6 22.4 29.8 22.7 30 22.9 C 30.3 23.1 30.6 23.2 30.9 23.2 C 31.3 23.2 31.7 23 32 22.7 C 32.02 22.7 32.4 23 32.4 23 C 32.4 23 32.36 23 32.4 23 Z M 29.6 21.6 C 29.6 21.6 31.9 21.6 31.9 21.6 C 31.9 21.2 31.8 20.9 31.6 20.7 C 31.4 20.5 31.1 20.4 30.8 20.4 C 30.5 20.4 30.2 20.5 30 20.7 C 29.8 20.9 29.6 21.2 29.6 21.6 Z M 36.5 23 C 36.1 23.5 35.6 23.7 35 23.7 C 34.5 23.7 34.1 23.5 33.7 23.2 C 33.4 22.8 33.2 22.4 33.2 21.8 C 33.2 21.8 33.2 21.8 33.2 21.8 C 33.2 21.3 33.4 20.8 33.7 20.4 C 34 20.1 34.4 19.9 34.9 19.9 C 35.5 19.9 35.9 20.1 36.2 20.4 C 36.5 20.8 36.6 21.3 36.6 21.8 C 36.6 21.9 36.6 21.9 36.6 22 C 36.6 22 33.8 22 33.8 22 C 33.8 22.4 33.9 22.7 34.2 22.9 C 34.4 23.1 34.7 23.2 35 23.2 C 35.5 23.2 35.8 23 36.2 22.7 C 36.17 22.7 36.5 23 36.5 23 C 36.5 23 36.5 23 36.5 23 Z M 33.8 21.6 C 33.8 21.6 36.1 21.6 36.1 21.6 C 36.1 21.2 35.9 20.9 35.7 20.7 C 35.5 20.5 35.3 20.4 34.9 20.4 C 34.6 20.4 34.4 20.5 34.1 20.7 C 33.9 20.9 33.8 21.2 33.8 21.6 Z M 37.6 23.6 L 37.6 18.5 L 38.2 18.5 L 38.2 23.6 L 37.6 23.6 Z M 38.7 24.5 L 41.9 18 L 42.4 18 L 39.2 24.5 L 38.7 24.5 Z M 43.1 23.6 L 43.1 18.7 C 43.1 18.7 45.15 18.7 45.1 18.7 C 45.7 18.7 46.1 18.8 46.4 19.1 C 46.6 19.3 46.7 19.6 46.7 19.9 C 46.7 19.9 46.7 19.9 46.7 19.9 C 46.7 20.5 46.5 20.8 46 21.1 C 46.7 21.3 47 21.7 47 22.2 C 47 22.2 47 22.3 47 22.3 C 47 22.7 46.9 23 46.5 23.2 C 46.2 23.5 45.8 23.6 45.2 23.6 C 45.24 23.6 43.1 23.6 43.1 23.6 Z M 46.2 20 C 46.2 20 46.2 20 46.2 20 C 46.2 19.7 46.1 19.6 45.9 19.4 C 45.7 19.3 45.4 19.2 45.1 19.2 C 45.1 19.2 43.6 19.2 43.6 19.2 L 43.6 20.9 C 43.6 20.9 45.06 20.88 45.1 20.9 C 45.4 20.9 45.7 20.8 45.9 20.7 C 46.1 20.5 46.2 20.3 46.2 20 Z M 46.5 22.2 C 46.5 22.2 46.5 22.2 46.5 22.2 C 46.5 21.9 46.3 21.7 46.1 21.6 C 45.9 21.4 45.6 21.4 45.2 21.4 C 45.16 21.37 43.6 21.4 43.6 21.4 L 43.6 23.1 C 43.6 23.1 45.25 23.1 45.3 23.1 C 45.6 23.1 45.9 23 46.1 22.9 C 46.4 22.7 46.5 22.5 46.5 22.2 Z M 51.1 23 C 50.7 23.5 50.2 23.7 49.6 23.7 C 49.1 23.7 48.7 23.5 48.3 23.2 C 48 22.8 47.8 22.4 47.8 21.8 C 47.8 21.8 47.8 21.8 47.8 21.8 C 47.8 21.3 48 20.8 48.3 20.4 C 48.6 20.1 49 19.9 49.5 19.9 C 50.1 19.9 50.5 20.1 50.8 20.4 C 51.1 20.8 51.2 21.3 51.2 21.8 C 51.2 21.9 51.2 21.9 51.2 22 C 51.2 22 48.3 22 48.3 22 C 48.4 22.4 48.5 22.7 48.8 22.9 C 49 23.1 49.3 23.2 49.6 23.2 C 50.1 23.2 50.4 23 50.8 22.7 C 50.76 22.7 51.1 23 51.1 23 C 51.1 23 51.1 23 51.1 23 Z M 48.3 21.6 C 48.3 21.6 50.7 21.6 50.7 21.6 C 50.7 21.2 50.5 20.9 50.3 20.7 C 50.1 20.5 49.9 20.4 49.5 20.4 C 49.2 20.4 48.9 20.5 48.7 20.7 C 48.5 20.9 48.4 21.2 48.3 21.6 Z M 55.2 23 C 54.8 23.5 54.3 23.7 53.8 23.7 C 53.2 23.7 52.8 23.5 52.5 23.2 C 52.1 22.8 51.9 22.4 51.9 21.8 C 51.9 21.8 51.9 21.8 51.9 21.8 C 51.9 21.3 52.1 20.8 52.4 20.4 C 52.8 20.1 53.2 19.9 53.7 19.9 C 54.2 19.9 54.6 20.1 54.9 20.4 C 55.2 20.8 55.4 21.3 55.4 21.8 C 55.4 21.9 55.4 21.9 55.4 22 C 55.4 22 52.5 22 52.5 22 C 52.5 22.4 52.7 22.7 52.9 22.9 C 53.1 23.1 53.4 23.2 53.8 23.2 C 54.2 23.2 54.6 23 54.9 22.7 C 54.91 22.7 55.2 23 55.2 23 C 55.2 23 55.24 23 55.2 23 Z M 52.5 21.6 C 52.5 21.6 54.8 21.6 54.8 21.6 C 54.8 21.2 54.7 20.9 54.5 20.7 C 54.3 20.5 54 20.4 53.7 20.4 C 53.4 20.4 53.1 20.5 52.9 20.7 C 52.7 20.9 52.5 21.2 52.5 21.6 Z M 59.4 23 C 59 23.5 58.5 23.7 57.9 23.7 C 57.4 23.7 57 23.5 56.6 23.1 C 56.3 22.8 56.1 22.3 56.1 21.8 C 56.1 21.8 56.1 21.8 56.1 21.8 C 56.1 21.3 56.3 20.8 56.6 20.5 C 57 20.1 57.4 19.9 57.9 19.9 C 58.5 19.9 59 20.1 59.4 20.5 C 59.4 20.5 59 20.9 59 20.9 C 58.7 20.6 58.3 20.4 57.9 20.4 C 57.6 20.4 57.3 20.5 57 20.8 C 56.8 21.1 56.6 21.4 56.6 21.8 C 56.6 21.8 56.6 21.8 56.6 21.8 C 56.6 22.2 56.8 22.5 57 22.8 C 57.3 23.1 57.6 23.2 58 23.2 C 58.4 23.2 58.7 23 59.1 22.7 C 59.08 22.66 59.4 23 59.4 23 C 59.4 23 59.42 22.98 59.4 23 Z M 60.3 23.6 L 60.3 18.5 L 60.9 18.5 C 60.9 18.5 60.85 20.61 60.9 20.6 C 61.1 20.1 61.6 19.9 62.1 19.9 C 62.5 19.9 62.9 20 63.1 20.3 C 63.4 20.6 63.5 20.9 63.5 21.4 C 63.48 21.35 63.5 23.6 63.5 23.6 L 62.9 23.6 C 62.9 23.6 62.94 21.49 62.9 21.5 C 62.9 21.1 62.8 20.9 62.7 20.7 C 62.5 20.5 62.3 20.4 61.9 20.4 C 61.6 20.4 61.4 20.5 61.2 20.7 C 61 20.9 60.9 21.2 60.9 21.5 C 60.85 21.53 60.9 23.6 60.9 23.6 L 60.3 23.6 Z " stroke="none" fill="#000"/>  </g>  <g id="Polygon42768">    <path d="M 3 9.3 L 3 8.6 L 3.6 8.6 L 3.6 9.3 L 3 9.3 Z M 1.7 9.3 L 1.7 8.6 L 2.3 8.6 L 2.3 9.3 L 1.7 9.3 Z M 2.7 14.7 C 2 14.7 1.5 14.5 1.2 14.1 C 0.8 13.7 0.6 13.2 0.6 12.5 C 0.62 12.55 0.6 9.7 0.6 9.7 L 1.2 9.7 C 1.2 9.7 1.17 12.51 1.2 12.5 C 1.2 13 1.3 13.4 1.6 13.7 C 1.8 14 2.2 14.2 2.7 14.2 C 3.1 14.2 3.5 14 3.8 13.8 C 4 13.5 4.1 13.1 4.1 12.5 C 4.14 12.55 4.1 9.7 4.1 9.7 L 4.7 9.7 C 4.7 9.7 4.7 12.51 4.7 12.5 C 4.7 13.2 4.5 13.7 4.1 14.1 C 3.8 14.5 3.3 14.7 2.7 14.7 Z M 5.9 14.6 L 5.9 11 L 6.5 11 C 6.5 11 6.45 11.93 6.5 11.9 C 6.6 11.6 6.8 11.4 7 11.2 C 7.3 11 7.6 10.9 7.9 10.9 C 7.93 10.92 7.9 11.5 7.9 11.5 C 7.9 11.5 7.89 11.5 7.9 11.5 C 7.5 11.5 7.1 11.6 6.9 11.9 C 6.6 12.2 6.5 12.6 6.5 13.2 C 6.45 13.16 6.5 14.6 6.5 14.6 L 5.9 14.6 Z M 10.6 10.4 L 10.6 9.8 L 11.2 9.8 L 11.2 10.4 L 10.6 10.4 Z M 9.3 10.4 L 9.3 9.8 L 10 9.8 L 10 10.4 L 9.3 10.4 Z M 11.3 14 C 11 14.4 10.6 14.7 10.1 14.7 C 9.7 14.7 9.3 14.5 9.1 14.3 C 8.8 14 8.7 13.7 8.7 13.2 C 8.69 13.23 8.7 11 8.7 11 L 9.2 11 C 9.2 11 9.23 13.09 9.2 13.1 C 9.2 13.4 9.3 13.7 9.5 13.9 C 9.7 14.1 9.9 14.2 10.2 14.2 C 10.5 14.2 10.8 14.1 11 13.9 C 11.2 13.7 11.3 13.4 11.3 13.1 C 11.32 13.05 11.3 11 11.3 11 L 11.9 11 L 11.9 14.6 L 11.3 14.6 L 11.3 14 C 11.3 14 11.32 13.97 11.3 14 Z M 13.1 14.6 L 13.1 11 L 13.6 11 C 13.6 11 13.6 11.61 13.6 11.6 C 13.9 11.1 14.3 10.9 14.8 10.9 C 15.3 10.9 15.6 11 15.9 11.3 C 16.1 11.6 16.2 11.9 16.2 12.4 C 16.23 12.35 16.2 14.6 16.2 14.6 L 15.7 14.6 C 15.7 14.6 15.69 12.49 15.7 12.5 C 15.7 12.1 15.6 11.9 15.4 11.7 C 15.2 11.5 15 11.4 14.7 11.4 C 14.4 11.4 14.1 11.5 13.9 11.7 C 13.7 11.9 13.6 12.2 13.6 12.5 C 13.6 12.53 13.6 14.6 13.6 14.6 L 13.1 14.6 Z M 19.6 14.6 L 19.6 9.7 L 20.1 9.7 L 20.1 12.6 L 22.9 9.7 L 23.7 9.7 L 21.5 11.8 L 23.7 14.6 L 23 14.6 L 21.2 12.2 L 20.1 13.3 L 20.1 14.6 L 19.6 14.6 Z M 26.2 14.7 C 25.6 14.7 25.2 14.5 24.8 14.1 C 24.5 13.8 24.3 13.3 24.3 12.8 C 24.3 12.8 24.3 12.8 24.3 12.8 C 24.3 12.3 24.5 11.8 24.8 11.5 C 25.2 11.1 25.6 10.9 26.2 10.9 C 26.7 10.9 27.2 11.1 27.5 11.5 C 27.9 11.8 28.1 12.3 28.1 12.8 C 28.1 12.8 28.1 12.8 28.1 12.8 C 28.1 13.3 27.9 13.8 27.5 14.1 C 27.2 14.5 26.7 14.7 26.2 14.7 Z M 26.2 14.2 C 26.6 14.2 26.9 14.1 27.1 13.8 C 27.4 13.5 27.5 13.2 27.5 12.8 C 27.5 12.8 27.5 12.8 27.5 12.8 C 27.5 12.4 27.4 12.1 27.1 11.8 C 26.9 11.5 26.5 11.4 26.2 11.4 C 25.8 11.4 25.5 11.5 25.2 11.8 C 25 12.1 24.8 12.4 24.8 12.8 C 24.8 12.8 24.8 12.8 24.8 12.8 C 24.8 13.2 25 13.5 25.2 13.8 C 25.5 14.1 25.8 14.2 26.2 14.2 Z M 31.9 13.9 C 31.6 14.4 31.1 14.7 30.5 14.7 C 30.1 14.7 29.7 14.5 29.3 14.2 C 29 13.8 28.8 13.4 28.8 12.8 C 28.8 12.8 28.8 12.8 28.8 12.8 C 28.8 12.2 29 11.8 29.3 11.4 C 29.7 11.1 30.1 10.9 30.5 10.9 C 31.1 10.9 31.6 11.2 31.9 11.7 C 31.93 11.67 31.9 9.5 31.9 9.5 L 32.5 9.5 L 32.5 14.6 L 31.9 14.6 L 31.9 13.9 C 31.9 13.9 31.93 13.87 31.9 13.9 Z M 30.6 14.2 C 31 14.2 31.3 14.1 31.6 13.8 C 31.8 13.5 32 13.2 32 12.8 C 32 12.8 32 12.8 32 12.8 C 32 12.4 31.8 12 31.6 11.8 C 31.3 11.5 31 11.4 30.6 11.4 C 30.3 11.4 30 11.5 29.7 11.8 C 29.5 12 29.4 12.4 29.4 12.8 C 29.4 12.8 29.4 12.8 29.4 12.8 C 29.4 13.2 29.5 13.6 29.7 13.8 C 30 14.1 30.3 14.2 30.6 14.2 Z M 36.2 14 C 36 14.4 35.5 14.7 35 14.7 C 34.6 14.7 34.2 14.5 34 14.3 C 33.7 14 33.6 13.7 33.6 13.2 C 33.62 13.23 33.6 11 33.6 11 L 34.2 11 C 34.2 11 34.16 13.09 34.2 13.1 C 34.2 13.4 34.2 13.7 34.4 13.9 C 34.6 14.1 34.8 14.2 35.2 14.2 C 35.5 14.2 35.7 14.1 35.9 13.9 C 36.1 13.7 36.2 13.4 36.2 13.1 C 36.25 13.05 36.2 11 36.2 11 L 36.8 11 L 36.8 14.6 L 36.2 14.6 L 36.2 14 C 36.2 14 36.25 13.97 36.2 14 Z M 38 11.7 L 38 11 L 38.6 11 L 38.6 11.7 L 38 11.7 Z M 38 14.6 L 38 13.9 L 38.6 13.9 L 38.6 14.6 L 38 14.6 Z M 41.7 14.6 L 41.7 13.8 L 44.4 10.6 L 41.8 10.6 L 41.8 9.7 L 45.8 9.7 L 45.8 10.5 L 43.1 13.7 L 45.8 13.7 L 45.8 14.6 L 41.7 14.6 Z M 46.8 14.6 L 46.8 9.7 C 46.8 9.7 48.72 9.7 48.7 9.7 C 49.5 9.7 50.1 9.9 50.6 10.4 C 51.1 10.9 51.3 11.4 51.3 12.1 C 51.3 12.1 51.3 12.1 51.3 12.1 C 51.3 12.8 51.1 13.4 50.6 13.9 C 50.1 14.4 49.5 14.6 48.7 14.6 C 48.72 14.6 46.8 14.6 46.8 14.6 Z M 48.7 10.7 C 48.72 10.67 47.9 10.7 47.9 10.7 L 47.9 13.6 C 47.9 13.6 48.72 13.63 48.7 13.6 C 49.2 13.6 49.5 13.5 49.8 13.2 C 50.1 13 50.2 12.6 50.2 12.2 C 50.2 12.2 50.2 12.1 50.2 12.1 C 50.2 11.7 50.1 11.4 49.8 11.1 C 49.5 10.8 49.2 10.7 48.7 10.7 Z M 56 14.7 C 55.2 14.7 54.5 14.4 54.1 13.8 C 54.1 13.8 54.8 13.1 54.8 13.1 C 55.1 13.5 55.5 13.7 56 13.7 C 56.2 13.7 56.4 13.7 56.5 13.6 C 56.6 13.4 56.7 13.3 56.7 13.1 C 56.7 13.1 56.7 13.1 56.7 13.1 C 56.7 12.9 56.6 12.8 56.4 12.6 C 56.3 12.5 56 12.5 55.7 12.5 C 55.72 12.49 55.3 12.5 55.3 12.5 L 55.1 11.8 L 56.3 10.6 L 54.3 10.6 L 54.3 9.7 L 57.7 9.7 L 57.7 10.5 C 57.7 10.5 56.42 11.69 56.4 11.7 C 57.3 11.8 57.7 12.3 57.7 13.1 C 57.7 13.1 57.7 13.1 57.7 13.1 C 57.7 13.6 57.6 13.9 57.3 14.2 C 56.9 14.5 56.5 14.7 56 14.7 Z M 58.5 14.6 L 58.5 13.7 C 58.5 13.7 60.12 12.41 60.1 12.4 C 60.4 12.1 60.7 11.9 60.8 11.8 C 60.9 11.6 61 11.4 61 11.2 C 61 11 60.9 10.9 60.8 10.8 C 60.7 10.7 60.5 10.6 60.3 10.6 C 60.1 10.6 60 10.6 59.8 10.7 C 59.7 10.8 59.5 11 59.3 11.3 C 59.3 11.3 58.5 10.6 58.5 10.6 C 58.8 10.3 59.1 10 59.3 9.9 C 59.6 9.7 60 9.6 60.4 9.6 C 60.9 9.6 61.3 9.8 61.6 10 C 61.9 10.3 62.1 10.7 62.1 11.1 C 62.1 11.1 62.1 11.2 62.1 11.2 C 62.1 11.5 62 11.9 61.8 12.1 C 61.6 12.4 61.3 12.7 60.8 13.1 C 60.77 13.05 60 13.7 60 13.7 L 62.1 13.7 L 62.1 14.6 L 58.5 14.6 Z M 64.7 14.7 C 64.2 14.7 63.7 14.5 63.3 14.3 C 63 14 62.8 13.7 62.8 13.3 C 62.8 13.3 62.8 13.2 62.8 13.2 C 62.8 13 62.9 12.7 63 12.5 C 63.1 12.3 63.3 12.2 63.6 12.1 C 63.2 11.8 63 11.5 63 11 C 63 11 63 11 63 11 C 63 10.6 63.1 10.3 63.5 10 C 63.8 9.8 64.2 9.6 64.7 9.6 C 65.2 9.6 65.6 9.8 65.9 10 C 66.3 10.3 66.4 10.6 66.4 11 C 66.4 11 66.4 11 66.4 11 C 66.4 11.5 66.2 11.8 65.8 12.1 C 66.1 12.2 66.3 12.4 66.4 12.5 C 66.5 12.7 66.6 12.9 66.6 13.2 C 66.6 13.2 66.6 13.2 66.6 13.2 C 66.6 13.7 66.4 14 66.1 14.3 C 65.7 14.5 65.3 14.7 64.7 14.7 Z M 64 11.1 C 64 11.3 64.1 11.4 64.2 11.5 C 64.3 11.6 64.5 11.7 64.7 11.7 C 64.9 11.7 65.1 11.6 65.2 11.5 C 65.3 11.4 65.4 11.3 65.4 11.1 C 65.4 11.1 65.4 11.1 65.4 11.1 C 65.4 10.9 65.3 10.8 65.2 10.7 C 65.1 10.6 64.9 10.5 64.7 10.5 C 64.5 10.5 64.3 10.6 64.2 10.7 C 64.1 10.8 64 10.9 64 11.1 C 64.01 11.09 64 11.1 64 11.1 C 64 11.1 64.01 11.1 64 11.1 Z M 64.7 13.8 C 65 13.8 65.2 13.7 65.3 13.6 C 65.5 13.5 65.6 13.3 65.6 13.2 C 65.6 13.2 65.6 13.2 65.6 13.2 C 65.6 13 65.5 12.8 65.3 12.7 C 65.2 12.6 65 12.6 64.7 12.6 C 64.5 12.6 64.3 12.6 64.1 12.7 C 63.9 12.8 63.9 13 63.9 13.2 C 63.9 13.2 63.9 13.2 63.9 13.2 C 63.9 13.3 63.9 13.5 64.1 13.6 C 64.2 13.7 64.5 13.8 64.7 13.8 Z M 67.5 14.6 L 69.7 10.6 L 67.4 10.6 L 67.4 9.7 L 70.9 9.7 L 70.9 10.5 L 68.7 14.6 L 67.5 14.6 Z M 73.4 14.7 C 72.9 14.7 72.4 14.5 72.1 14.3 C 71.7 14 71.6 13.7 71.6 13.3 C 71.6 13.3 71.6 13.2 71.6 13.2 C 71.6 13 71.6 12.7 71.8 12.5 C 71.9 12.3 72.1 12.2 72.4 12.1 C 71.9 11.8 71.7 11.5 71.7 11 C 71.7 11 71.7 11 71.7 11 C 71.7 10.6 71.9 10.3 72.2 10 C 72.5 9.8 72.9 9.6 73.4 9.6 C 74 9.6 74.4 9.8 74.7 10 C 75 10.3 75.2 10.6 75.2 11 C 75.2 11 75.2 11 75.2 11 C 75.2 11.5 75 11.8 74.5 12.1 C 74.8 12.2 75 12.4 75.1 12.5 C 75.3 12.7 75.3 12.9 75.3 13.2 C 75.3 13.2 75.3 13.2 75.3 13.2 C 75.3 13.7 75.2 14 74.8 14.3 C 74.5 14.5 74 14.7 73.4 14.7 Z M 72.7 11.1 C 72.7 11.3 72.8 11.4 72.9 11.5 C 73.1 11.6 73.2 11.7 73.4 11.7 C 73.7 11.7 73.8 11.6 74 11.5 C 74.1 11.4 74.1 11.3 74.1 11.1 C 74.1 11.1 74.1 11.1 74.1 11.1 C 74.1 10.9 74.1 10.8 74 10.7 C 73.8 10.6 73.7 10.5 73.4 10.5 C 73.2 10.5 73.1 10.6 72.9 10.7 C 72.8 10.8 72.7 10.9 72.7 11.1 C 72.75 11.09 72.7 11.1 72.7 11.1 C 72.7 11.1 72.75 11.1 72.7 11.1 Z M 73.4 13.8 C 73.7 13.8 73.9 13.7 74.1 13.6 C 74.2 13.5 74.3 13.3 74.3 13.2 C 74.3 13.2 74.3 13.2 74.3 13.2 C 74.3 13 74.2 12.8 74.1 12.7 C 73.9 12.6 73.7 12.6 73.4 12.6 C 73.2 12.6 73 12.6 72.8 12.7 C 72.7 12.8 72.6 13 72.6 13.2 C 72.6 13.2 72.6 13.2 72.6 13.2 C 72.6 13.3 72.7 13.5 72.8 13.6 C 73 13.7 73.2 13.8 73.4 13.8 Z " stroke="none" fill="#000"/>  </g>  <g id="Polygon42767">    <path d="M 0.6 5.6 L 0.6 0.7 L 1.8 0.7 L 3 2.8 L 4.3 0.7 L 5.5 0.7 L 5.5 5.6 L 4.4 5.6 L 4.4 2.4 L 3 4.5 L 3 4.5 L 1.6 2.4 L 1.6 5.6 L 0.6 5.6 Z M 8.9 5.1 C 8.6 5.5 8.2 5.7 7.8 5.7 C 7.4 5.7 7.1 5.5 6.9 5.3 C 6.6 5.1 6.5 4.7 6.5 4.3 C 6.52 4.28 6.5 1.8 6.5 1.8 L 7.6 1.8 C 7.6 1.8 7.59 3.94 7.6 3.9 C 7.6 4.4 7.8 4.7 8.2 4.7 C 8.4 4.7 8.6 4.6 8.7 4.5 C 8.8 4.4 8.9 4.2 8.9 3.9 C 8.9 3.94 8.9 1.8 8.9 1.8 L 10 1.8 L 10 5.6 L 8.9 5.6 L 8.9 5.1 C 8.9 5.1 8.9 5.07 8.9 5.1 Z M 13 5.4 C 12.8 5.6 12.5 5.7 12.2 5.7 C 11.8 5.7 11.6 5.6 11.4 5.4 C 11.2 5.2 11.1 4.9 11.1 4.5 C 11.09 4.54 11.1 2.8 11.1 2.8 L 10.6 2.8 L 10.6 1.8 L 11.1 1.8 L 11.1 0.9 L 12.2 0.9 L 12.2 1.8 L 13 1.8 L 13 2.8 L 12.2 2.8 C 12.2 2.8 12.15 4.36 12.2 4.4 C 12.2 4.6 12.3 4.7 12.5 4.7 C 12.7 4.7 12.9 4.7 13 4.6 C 13.02 4.59 13 5.4 13 5.4 C 13 5.4 13.02 5.45 13 5.4 Z M 14 5.6 L 14 2.8 L 13.6 2.8 L 13.6 1.9 L 14 1.9 C 14 1.9 14 1.64 14 1.6 C 14 1.2 14.1 0.9 14.3 0.7 C 14.5 0.5 14.8 0.4 15.2 0.4 C 15.4 0.4 15.7 0.5 15.9 0.5 C 15.9 0.5 15.9 1.4 15.9 1.4 C 15.7 1.4 15.6 1.3 15.4 1.3 C 15.2 1.3 15 1.5 15 1.7 C 15.05 1.74 15 1.9 15 1.9 L 15.9 1.9 L 15.9 2.8 L 15.1 2.8 L 15.1 5.6 L 14 5.6 Z M 18.7 5.2 C 18.4 5.5 18 5.7 17.6 5.7 C 17.2 5.7 16.9 5.6 16.6 5.4 C 16.4 5.2 16.3 4.9 16.3 4.5 C 16.3 4.5 16.3 4.5 16.3 4.5 C 16.3 4.1 16.4 3.8 16.7 3.6 C 17 3.4 17.3 3.3 17.8 3.3 C 18.1 3.3 18.4 3.4 18.7 3.5 C 18.7 3.5 18.7 3.4 18.7 3.4 C 18.7 2.9 18.4 2.7 17.9 2.7 C 17.6 2.7 17.2 2.8 16.9 2.9 C 16.9 2.9 16.6 2.1 16.6 2.1 C 17.1 1.9 17.5 1.8 18 1.8 C 18.6 1.8 19 1.9 19.3 2.2 C 19.6 2.5 19.7 2.9 19.7 3.4 C 19.72 3.42 19.7 5.6 19.7 5.6 L 18.7 5.6 L 18.7 5.2 C 18.7 5.2 18.69 5.19 18.7 5.2 Z M 17.9 4.9 C 18.1 4.9 18.3 4.9 18.5 4.8 C 18.6 4.6 18.7 4.5 18.7 4.3 C 18.7 4.3 18.7 4.1 18.7 4.1 C 18.5 4 18.3 3.9 18 3.9 C 17.8 3.9 17.6 4 17.5 4.1 C 17.4 4.2 17.3 4.3 17.3 4.5 C 17.3 4.5 17.3 4.5 17.3 4.5 C 17.3 4.6 17.4 4.7 17.5 4.8 C 17.6 4.9 17.7 4.9 17.9 4.9 Z M 20.6 5.6 L 20.6 0.5 L 21.7 0.5 L 21.7 3.2 L 22.9 1.8 L 24.2 1.8 L 22.8 3.3 L 24.3 5.6 L 23 5.6 L 22.1 4.1 L 21.7 4.5 L 21.7 5.6 L 20.6 5.6 Z M 31.4 4.9 C 30.8 5.4 30.1 5.7 29.4 5.7 C 28.6 5.7 28 5.4 27.5 5 C 27 4.5 26.8 3.9 26.8 3.2 C 26.8 3.2 26.8 3.1 26.8 3.1 C 26.8 2.4 27 1.8 27.5 1.4 C 28 0.9 28.6 0.6 29.3 0.6 C 29.8 0.6 30.1 0.7 30.4 0.8 C 30.7 0.9 31 1.1 31.3 1.3 C 31.3 1.3 30.6 2.1 30.6 2.1 C 30.4 1.9 30.2 1.8 30 1.7 C 29.8 1.7 29.6 1.6 29.3 1.6 C 28.9 1.6 28.6 1.8 28.3 2.1 C 28 2.4 27.9 2.7 27.9 3.1 C 27.9 3.1 27.9 3.1 27.9 3.1 C 27.9 3.6 28 4 28.3 4.3 C 28.6 4.6 29 4.7 29.4 4.7 C 29.8 4.7 30.1 4.6 30.4 4.4 C 30.4 4.41 30.4 3.7 30.4 3.7 L 29.3 3.7 L 29.3 2.8 L 31.4 2.8 L 31.4 4.9 C 31.4 4.9 31.44 4.91 31.4 4.9 Z M 35.7 5 C 35.3 5.5 34.8 5.7 34.1 5.7 C 33.6 5.7 33.1 5.5 32.7 5.1 C 32.4 4.8 32.2 4.3 32.2 3.7 C 32.2 3.7 32.2 3.7 32.2 3.7 C 32.2 3.2 32.4 2.7 32.7 2.3 C 33.1 2 33.5 1.8 34 1.8 C 34.6 1.8 35.1 2 35.4 2.4 C 35.7 2.8 35.9 3.2 35.9 3.8 C 35.9 3.9 35.9 4 35.9 4.1 C 35.9 4.1 33.2 4.1 33.2 4.1 C 33.3 4.3 33.4 4.5 33.6 4.6 C 33.7 4.8 33.9 4.8 34.2 4.8 C 34.5 4.8 34.8 4.7 35.1 4.4 C 35.07 4.44 35.7 5 35.7 5 C 35.7 5 35.68 4.98 35.7 5 Z M 33.2 3.4 C 33.2 3.4 34.8 3.4 34.8 3.4 C 34.8 3.2 34.7 3 34.6 2.8 C 34.4 2.7 34.3 2.6 34 2.6 C 33.8 2.6 33.6 2.7 33.5 2.8 C 33.4 3 33.3 3.2 33.2 3.4 Z M 36.7 5.6 L 36.7 1.8 L 37.7 1.8 C 37.7 1.8 37.72 2.6 37.7 2.6 C 38 2 38.4 1.8 38.9 1.8 C 38.92 1.78 38.9 2.9 38.9 2.9 C 38.9 2.9 38.86 2.89 38.9 2.9 C 38.5 2.9 38.2 3 38 3.2 C 37.8 3.4 37.7 3.8 37.7 4.2 C 37.72 4.21 37.7 5.6 37.7 5.6 L 36.7 5.6 Z M 42.9 5 C 42.5 5.5 42 5.7 41.4 5.7 C 40.8 5.7 40.3 5.5 40 5.1 C 39.6 4.8 39.4 4.3 39.4 3.7 C 39.4 3.7 39.4 3.7 39.4 3.7 C 39.4 3.2 39.6 2.7 39.9 2.3 C 40.3 2 40.7 1.8 41.3 1.8 C 41.9 1.8 42.3 2 42.6 2.4 C 42.9 2.8 43.1 3.2 43.1 3.8 C 43.1 3.9 43.1 4 43.1 4.1 C 43.1 4.1 40.5 4.1 40.5 4.1 C 40.5 4.3 40.6 4.5 40.8 4.6 C 40.9 4.8 41.1 4.8 41.4 4.8 C 41.7 4.8 42 4.7 42.3 4.4 C 42.29 4.44 42.9 5 42.9 5 C 42.9 5 42.9 4.98 42.9 5 Z M 40.4 3.4 C 40.4 3.4 42 3.4 42 3.4 C 42 3.2 41.9 3 41.8 2.8 C 41.7 2.7 41.5 2.6 41.3 2.6 C 41 2.6 40.9 2.7 40.7 2.8 C 40.6 3 40.5 3.2 40.4 3.4 Z M 45.4 6.8 L 44.5 6.4 C 44.5 6.4 45.05 5.6 45.1 5.6 C 44.6 5.5 44.3 5.2 44.1 4.9 C 43.8 4.6 43.7 4.2 43.7 3.7 C 43.7 3.7 43.7 3.7 43.7 3.7 C 43.7 3.2 43.9 2.7 44.3 2.3 C 44.6 2 45.1 1.8 45.7 1.8 C 46.3 1.8 46.8 2 47.2 2.4 C 47.2 2.4 46.5 3.1 46.5 3.1 C 46.4 3 46.2 2.9 46.1 2.8 C 46 2.7 45.8 2.7 45.7 2.7 C 45.4 2.7 45.2 2.8 45 3 C 44.8 3.2 44.7 3.4 44.7 3.7 C 44.7 3.7 44.7 3.7 44.7 3.7 C 44.7 4 44.8 4.3 45 4.5 C 45.2 4.7 45.4 4.8 45.7 4.8 C 46 4.8 46.3 4.6 46.6 4.4 C 46.6 4.4 47.2 5 47.2 5 C 47 5.2 46.8 5.4 46.6 5.5 C 46.4 5.6 46.1 5.7 45.8 5.7 C 45.82 5.68 45.4 6.8 45.4 6.8 Z M 47.9 5.6 L 47.9 0.5 L 49 0.5 L 49 5.6 L 47.9 5.6 Z M 53.3 5 C 52.9 5.5 52.4 5.7 51.8 5.7 C 51.2 5.7 50.7 5.5 50.4 5.1 C 50 4.8 49.8 4.3 49.8 3.7 C 49.8 3.7 49.8 3.7 49.8 3.7 C 49.8 3.2 50 2.7 50.3 2.3 C 50.7 2 51.1 1.8 51.7 1.8 C 52.3 1.8 52.7 2 53 2.4 C 53.3 2.8 53.5 3.2 53.5 3.8 C 53.5 3.9 53.5 4 53.5 4.1 C 53.5 4.1 50.9 4.1 50.9 4.1 C 50.9 4.3 51 4.5 51.2 4.6 C 51.3 4.8 51.5 4.8 51.8 4.8 C 52.1 4.8 52.4 4.7 52.7 4.4 C 52.69 4.44 53.3 5 53.3 5 C 53.3 5 53.3 4.98 53.3 5 Z M 50.8 3.4 C 50.8 3.4 52.5 3.4 52.5 3.4 C 52.4 3.2 52.3 3 52.2 2.8 C 52.1 2.7 51.9 2.6 51.7 2.6 C 51.4 2.6 51.3 2.7 51.1 2.8 C 51 3 50.9 3.2 50.8 3.4 Z M 54.3 5.6 L 54.3 1.8 L 55.3 1.8 C 55.3 1.8 55.34 2.6 55.3 2.6 C 55.6 2 56 1.8 56.5 1.8 C 56.54 1.78 56.5 2.9 56.5 2.9 C 56.5 2.9 56.48 2.89 56.5 2.9 C 56.1 2.9 55.8 3 55.6 3.2 C 55.4 3.4 55.3 3.8 55.3 4.2 C 55.34 4.21 55.3 5.6 55.3 5.6 L 54.3 5.6 Z M 57.2 1.4 L 57.2 0.5 L 58.3 0.5 L 58.3 1.4 L 57.2 1.4 Z M 57.3 5.6 L 57.3 1.8 L 58.3 1.8 L 58.3 5.6 L 57.3 5.6 Z M 63.3 5.7 C 62.5 5.7 61.8 5.4 61.2 4.9 C 61.2 4.9 61.8 4.1 61.8 4.1 C 62.3 4.5 62.8 4.7 63.3 4.7 C 63.5 4.7 63.7 4.7 63.8 4.6 C 63.9 4.5 64 4.4 64 4.3 C 64 4.3 64 4.2 64 4.2 C 64 4.1 63.9 4 63.8 3.9 C 63.7 3.8 63.4 3.7 63 3.6 C 62.7 3.5 62.5 3.5 62.3 3.4 C 62.2 3.3 62 3.3 61.8 3.1 C 61.7 3 61.6 2.9 61.5 2.7 C 61.4 2.6 61.4 2.4 61.4 2.1 C 61.4 2.1 61.4 2.1 61.4 2.1 C 61.4 1.7 61.5 1.3 61.9 1 C 62.2 0.8 62.6 0.6 63.1 0.6 C 63.8 0.6 64.4 0.8 64.9 1.3 C 64.9 1.3 64.4 2.1 64.4 2.1 C 63.9 1.7 63.5 1.6 63.1 1.6 C 62.9 1.6 62.7 1.6 62.6 1.7 C 62.5 1.8 62.5 1.9 62.5 2 C 62.5 2 62.5 2 62.5 2 C 62.5 2.2 62.5 2.3 62.7 2.4 C 62.8 2.5 63.1 2.6 63.5 2.7 C 64 2.8 64.4 3 64.7 3.2 C 64.9 3.4 65.1 3.7 65.1 4.1 C 65.1 4.1 65.1 4.2 65.1 4.2 C 65.1 4.6 64.9 5 64.6 5.3 C 64.2 5.5 63.8 5.7 63.3 5.7 Z M 69.2 5 C 68.8 5.5 68.3 5.7 67.7 5.7 C 67.1 5.7 66.6 5.5 66.3 5.1 C 65.9 4.8 65.7 4.3 65.7 3.7 C 65.7 3.7 65.7 3.7 65.7 3.7 C 65.7 3.2 65.9 2.7 66.2 2.3 C 66.6 2 67 1.8 67.6 1.8 C 68.2 1.8 68.6 2 68.9 2.4 C 69.2 2.8 69.4 3.2 69.4 3.8 C 69.4 3.9 69.4 4 69.4 4.1 C 69.4 4.1 66.8 4.1 66.8 4.1 C 66.8 4.3 66.9 4.5 67.1 4.6 C 67.2 4.8 67.4 4.8 67.7 4.8 C 68 4.8 68.3 4.7 68.6 4.4 C 68.6 4.44 69.2 5 69.2 5 C 69.2 5 69.21 4.98 69.2 5 Z M 66.8 3.4 C 66.8 3.4 68.4 3.4 68.4 3.4 C 68.3 3.2 68.2 3 68.1 2.8 C 68 2.7 67.8 2.6 67.6 2.6 C 67.4 2.6 67.2 2.7 67 2.8 C 66.9 3 66.8 3.2 66.8 3.4 Z M 72.3 5.4 C 72.1 5.6 71.8 5.7 71.5 5.7 C 71.1 5.7 70.8 5.6 70.6 5.4 C 70.5 5.2 70.4 4.9 70.4 4.5 C 70.36 4.54 70.4 2.8 70.4 2.8 L 69.9 2.8 L 69.9 1.8 L 70.4 1.8 L 70.4 0.9 L 71.4 0.9 L 71.4 1.8 L 72.3 1.8 L 72.3 2.8 L 71.4 2.8 C 71.4 2.8 71.43 4.36 71.4 4.4 C 71.4 4.6 71.5 4.7 71.8 4.7 C 72 4.7 72.1 4.7 72.3 4.6 C 72.3 4.59 72.3 5.4 72.3 5.4 C 72.3 5.4 72.3 5.45 72.3 5.4 Z M 73.1 1.4 L 73.1 0.5 L 74.2 0.5 L 74.2 1.4 L 73.1 1.4 Z M 73.1 5.6 L 73.1 1.8 L 74.2 1.8 L 74.2 5.6 L 73.1 5.6 Z M 77.2 3.9 L 77.2 2.9 L 80.2 2.9 L 80.2 3.9 L 77.2 3.9 Z M 85 5.7 C 84.2 5.7 83.5 5.4 82.9 4.9 C 82.9 4.9 83.5 4.1 83.5 4.1 C 84 4.5 84.5 4.7 85 4.7 C 85.2 4.7 85.4 4.7 85.5 4.6 C 85.6 4.5 85.7 4.4 85.7 4.3 C 85.7 4.3 85.7 4.2 85.7 4.2 C 85.7 4.1 85.6 4 85.5 3.9 C 85.4 3.8 85.1 3.7 84.7 3.6 C 84.4 3.5 84.2 3.5 84 3.4 C 83.8 3.3 83.7 3.3 83.5 3.1 C 83.4 3 83.3 2.9 83.2 2.7 C 83.1 2.6 83.1 2.4 83.1 2.1 C 83.1 2.1 83.1 2.1 83.1 2.1 C 83.1 1.7 83.2 1.3 83.6 1 C 83.9 0.8 84.3 0.6 84.8 0.6 C 85.5 0.6 86.1 0.8 86.6 1.3 C 86.6 1.3 86 2.1 86 2.1 C 85.6 1.7 85.2 1.6 84.8 1.6 C 84.6 1.6 84.4 1.6 84.3 1.7 C 84.2 1.8 84.1 1.9 84.1 2 C 84.1 2 84.1 2 84.1 2 C 84.1 2.2 84.2 2.3 84.3 2.4 C 84.5 2.5 84.8 2.6 85.2 2.7 C 85.7 2.8 86.1 3 86.4 3.2 C 86.6 3.4 86.8 3.7 86.8 4.1 C 86.8 4.1 86.8 4.2 86.8 4.2 C 86.8 4.6 86.6 5 86.3 5.3 C 85.9 5.5 85.5 5.7 85 5.7 Z M 87.6 1.4 L 87.6 0.5 L 88.7 0.5 L 88.7 1.4 L 87.6 1.4 Z M 87.6 5.6 L 87.6 1.8 L 88.7 1.8 L 88.7 5.6 L 87.6 5.6 Z M 89.7 5.6 L 89.7 1.8 L 90.8 1.8 C 90.8 1.8 90.76 2.38 90.8 2.4 C 91.1 2 91.4 1.8 91.9 1.8 C 92.3 1.8 92.6 1.9 92.8 2.1 C 93 2.4 93.1 2.7 93.1 3.2 C 93.13 3.17 93.1 5.6 93.1 5.6 L 92.1 5.6 C 92.1 5.6 92.07 3.51 92.1 3.5 C 92.1 3 91.9 2.7 91.4 2.7 C 91.2 2.7 91.1 2.8 90.9 2.9 C 90.8 3.1 90.8 3.3 90.8 3.5 C 90.76 3.51 90.8 5.6 90.8 5.6 L 89.7 5.6 Z M 97.4 6.2 C 97 6.6 96.5 6.7 95.7 6.7 C 95.1 6.7 94.6 6.6 94.1 6.3 C 94.1 6.3 94.4 5.5 94.4 5.5 C 94.9 5.8 95.3 5.9 95.7 5.9 C 96.4 5.9 96.8 5.5 96.8 4.9 C 96.8 4.9 96.8 4.7 96.8 4.7 C 96.6 4.9 96.4 5 96.2 5.1 C 96.1 5.2 95.8 5.3 95.6 5.3 C 95.1 5.3 94.7 5.1 94.4 4.8 C 94.1 4.5 93.9 4.1 93.9 3.5 C 93.9 3.5 93.9 3.5 93.9 3.5 C 93.9 3 94.1 2.6 94.4 2.3 C 94.7 1.9 95.1 1.8 95.6 1.8 C 96 1.8 96.4 2 96.8 2.3 C 96.77 2.34 96.8 1.8 96.8 1.8 L 97.8 1.8 C 97.8 1.8 97.83 4.75 97.8 4.8 C 97.8 5.4 97.7 5.9 97.4 6.2 C 97.4 6.2 97.4 6.2 97.4 6.2 Z M 95 3.5 C 95 3.8 95 4 95.2 4.2 C 95.4 4.3 95.6 4.4 95.9 4.4 C 96.1 4.4 96.3 4.3 96.5 4.2 C 96.7 4 96.8 3.8 96.8 3.5 C 96.8 3.5 96.8 3.5 96.8 3.5 C 96.8 3.3 96.7 3.1 96.5 2.9 C 96.3 2.7 96.1 2.7 95.9 2.7 C 95.6 2.7 95.4 2.7 95.2 2.9 C 95 3.1 95 3.3 95 3.5 C 94.95 3.53 95 3.5 95 3.5 C 95 3.5 94.95 3.54 95 3.5 Z M 98.8 5.6 L 98.8 0.5 L 99.9 0.5 L 99.9 5.6 L 98.8 5.6 Z M 104.2 5 C 103.8 5.5 103.3 5.7 102.7 5.7 C 102.1 5.7 101.6 5.5 101.3 5.1 C 100.9 4.8 100.7 4.3 100.7 3.7 C 100.7 3.7 100.7 3.7 100.7 3.7 C 100.7 3.2 100.9 2.7 101.2 2.3 C 101.6 2 102 1.8 102.6 1.8 C 103.2 1.8 103.6 2 103.9 2.4 C 104.2 2.8 104.4 3.2 104.4 3.8 C 104.4 3.9 104.4 4 104.4 4.1 C 104.4 4.1 101.8 4.1 101.8 4.1 C 101.8 4.3 101.9 4.5 102.1 4.6 C 102.2 4.8 102.4 4.8 102.7 4.8 C 103 4.8 103.3 4.7 103.6 4.4 C 103.6 4.44 104.2 5 104.2 5 C 104.2 5 104.21 4.98 104.2 5 Z M 101.8 3.4 C 101.8 3.4 103.4 3.4 103.4 3.4 C 103.3 3.2 103.2 3 103.1 2.8 C 103 2.7 102.8 2.6 102.6 2.6 C 102.3 2.6 102.2 2.7 102 2.8 C 101.9 3 101.8 3.2 101.8 3.4 Z M 106.5 5.7 C 105.9 5.7 105.4 5.5 104.9 5.1 C 104.9 5.1 105.3 4.4 105.3 4.4 C 105.8 4.7 106.2 4.9 106.5 4.9 C 106.8 4.9 107 4.8 107 4.6 C 107 4.6 107 4.6 107 4.6 C 107 4.5 107 4.5 107 4.5 C 107 4.4 106.9 4.4 106.9 4.4 C 106.9 4.4 106.8 4.4 106.8 4.3 C 106.8 4.3 106.7 4.3 106.7 4.3 C 106.6 4.3 106.6 4.2 106.5 4.2 C 106.5 4.2 106.4 4.2 106.4 4.2 C 106.3 4.2 106.2 4.1 106.2 4.1 C 106 4.1 105.9 4 105.8 4 C 105.7 3.9 105.6 3.9 105.4 3.8 C 105.3 3.7 105.2 3.6 105.2 3.5 C 105.1 3.3 105.1 3.2 105.1 3 C 105.1 3 105.1 3 105.1 3 C 105.1 2.6 105.2 2.3 105.5 2.1 C 105.7 1.9 106.1 1.8 106.5 1.8 C 106.9 1.8 107.4 1.9 107.9 2.2 C 107.9 2.2 107.4 3 107.4 3 C 107.1 2.7 106.7 2.6 106.4 2.6 C 106.3 2.6 106.2 2.6 106.1 2.7 C 106.1 2.7 106 2.8 106 2.9 C 106 2.9 106 2.9 106 2.9 C 106 3 106.1 3 106.2 3.1 C 106.4 3.2 106.6 3.3 106.8 3.3 C 107 3.4 107.1 3.4 107.2 3.5 C 107.3 3.5 107.4 3.6 107.6 3.7 C 107.7 3.8 107.8 3.9 107.8 4 C 107.9 4.1 107.9 4.3 107.9 4.4 C 107.9 4.4 107.9 4.5 107.9 4.5 C 107.9 4.9 107.8 5.2 107.5 5.4 C 107.3 5.6 106.9 5.7 106.5 5.7 Z " stroke="none" fill="#000"/>  </g></svg>