<?xml version="1.0" standalone="no"?><!DOCTYPE svg PUBLIC "-//W3C//DTD SVG 1.1//EN" "http://www.w3.org/Graphics/SVG/1.1/DTD/svg11.dtd"><svg xmlns="http://www.w3.org/2000/svg" version="1.1" width="16.2px" height="12.4px" viewBox="0 -1 16.2 12.4" style="top:-1px">  <desc> </desc>  <defs/>  <g id="Polygon52773">    <path d="M 9.7 7.6 C 9.1 7.6 8.5 7.3 8 6.8 C 8 6.8 8.3 6.4 8.3 6.4 C 8.8 6.8 9.2 7.1 9.7 7.1 C 10.1 7.1 10.3 7 10.6 6.7 C 10.8 6.5 10.9 6.3 10.9 6 C 10.9 6 10.9 6 10.9 6 C 10.9 5.7 10.8 5.4 10.6 5.2 C 10.3 5 10 4.9 9.7 4.9 C 9.3 4.9 9 5 8.7 5.2 C 8.65 5.21 8.3 5 8.3 5 L 8.4 2.6 L 11.2 2.6 L 11.2 3.1 L 8.9 3.1 C 8.9 3.1 8.8 4.66 8.8 4.7 C 9.1 4.5 9.4 4.4 9.8 4.4 C 10.3 4.4 10.7 4.6 11 4.8 C 11.3 5.1 11.5 5.5 11.5 5.9 C 11.5 5.9 11.5 6 11.5 6 C 11.5 6.4 11.3 6.8 11 7.1 C 10.6 7.4 10.2 7.6 9.7 7.6 Z M 14 7.6 C 13.3 7.6 12.8 7.3 12.2 6.8 C 12.2 6.8 12.6 6.4 12.6 6.4 C 13.1 6.8 13.5 7.1 14 7.1 C 14.3 7.1 14.6 7 14.9 6.7 C 15.1 6.5 15.2 6.3 15.2 6 C 15.2 6 15.2 6 15.2 6 C 15.2 5.7 15.1 5.4 14.8 5.2 C 14.6 5 14.3 4.9 14 4.9 C 13.6 4.9 13.3 5 12.9 5.2 C 12.94 5.21 12.6 5 12.6 5 L 12.7 2.6 L 15.5 2.6 L 15.5 3.1 L 13.2 3.1 C 13.2 3.1 13.08 4.66 13.1 4.7 C 13.4 4.5 13.7 4.4 14.1 4.4 C 14.5 4.4 14.9 4.6 15.3 4.8 C 15.6 5.1 15.7 5.5 15.7 5.9 C 15.7 5.9 15.7 6 15.7 6 C 15.7 6.4 15.6 6.8 15.3 7.1 C 14.9 7.4 14.5 7.6 14 7.6 Z " stroke="none" fill="#000"/>  </g></svg>