<?xml version="1.0" standalone="no"?><!DOCTYPE svg PUBLIC "-//W3C//DTD SVG 1.1//EN" "http://www.w3.org/Graphics/SVG/1.1/DTD/svg11.dtd"><svg xmlns="http://www.w3.org/2000/svg" version="1.1" width="114.5px" height="82.4px" viewBox="0 -3 114.5 82.4" style="top:-3px">  <desc>Bula k Seti – DIISH r n Kodu: ZD 26670 Renk: Warm Grey Metal / Stoneware / PP L 18 cm, W 11,2 cm, H 17 cm Tasar m: ...</desc>  <defs/>  <g id="Polygon58213">    <path d="M 2 59.6 L 2 55.2 L 0.3 55.2 L 0.3 54.7 L 4.2 54.7 L 4.2 55.2 L 2.5 55.2 L 2.5 59.6 L 2 59.6 Z M 7.5 59.1 C 7.2 59.5 6.7 59.7 6.2 59.7 C 5.8 59.7 5.5 59.6 5.2 59.4 C 5 59.2 4.8 58.9 4.8 58.5 C 4.8 58.5 4.8 58.5 4.8 58.5 C 4.8 58.2 5 57.9 5.2 57.7 C 5.5 57.5 5.9 57.4 6.4 57.4 C 6.7 57.4 7.1 57.4 7.5 57.5 C 7.5 57.5 7.5 57.4 7.5 57.4 C 7.5 57.1 7.4 56.8 7.2 56.7 C 7 56.5 6.7 56.4 6.4 56.4 C 6 56.4 5.7 56.5 5.3 56.7 C 5.3 56.7 5.1 56.2 5.1 56.2 C 5.6 56 6 55.9 6.5 55.9 C 7 55.9 7.4 56.1 7.6 56.3 C 7.9 56.6 8 56.9 8 57.4 C 7.99 57.39 8 59.6 8 59.6 L 7.5 59.6 L 7.5 59.1 C 7.5 59.1 7.48 59.05 7.5 59.1 Z M 6.3 59.2 C 6.6 59.2 6.9 59.2 7.1 59 C 7.4 58.8 7.5 58.6 7.5 58.3 C 7.5 58.3 7.5 57.9 7.5 57.9 C 7.1 57.8 6.8 57.8 6.4 57.8 C 6.1 57.8 5.8 57.8 5.6 58 C 5.5 58.1 5.4 58.3 5.4 58.5 C 5.4 58.5 5.4 58.5 5.4 58.5 C 5.4 58.7 5.5 58.9 5.6 59.1 C 5.8 59.2 6 59.2 6.3 59.2 Z M 10.3 59.7 C 9.8 59.7 9.3 59.5 8.8 59.1 C 8.8 59.1 9.1 58.8 9.1 58.8 C 9.5 59.1 9.9 59.2 10.4 59.2 C 10.6 59.2 10.8 59.2 10.9 59.1 C 11 59 11.1 58.8 11.1 58.6 C 11.1 58.6 11.1 58.6 11.1 58.6 C 11.1 58.5 11 58.3 10.9 58.2 C 10.7 58.2 10.5 58.1 10.2 58 C 10.1 58 10 57.9 9.9 57.9 C 9.9 57.9 9.8 57.8 9.7 57.8 C 9.5 57.8 9.5 57.7 9.4 57.7 C 9.3 57.6 9.3 57.6 9.2 57.5 C 9.1 57.4 9.1 57.4 9.1 57.3 C 9 57.2 9 57.1 9 57 C 9 57 9 57 9 57 C 9 56.6 9.1 56.4 9.4 56.2 C 9.6 56 9.9 55.9 10.2 55.9 C 10.7 55.9 11.1 56.1 11.5 56.3 C 11.5 56.3 11.3 56.7 11.3 56.7 C 10.9 56.5 10.6 56.4 10.2 56.4 C 10 56.4 9.9 56.4 9.7 56.5 C 9.6 56.6 9.5 56.7 9.5 56.9 C 9.5 56.9 9.5 56.9 9.5 56.9 C 9.5 57 9.6 57 9.6 57.1 C 9.6 57.1 9.7 57.2 9.7 57.2 C 9.8 57.3 9.8 57.3 9.9 57.4 C 10 57.4 10.1 57.4 10.2 57.4 C 10.2 57.5 10.3 57.5 10.5 57.5 C 10.6 57.6 10.7 57.6 10.8 57.6 C 10.9 57.7 11 57.7 11.1 57.8 C 11.2 57.8 11.3 57.9 11.4 58 C 11.5 58 11.5 58.1 11.6 58.2 C 11.6 58.3 11.6 58.4 11.6 58.6 C 11.6 58.6 11.6 58.6 11.6 58.6 C 11.6 58.9 11.5 59.2 11.3 59.4 C 11 59.6 10.7 59.7 10.3 59.7 Z M 15 59.1 C 14.7 59.5 14.3 59.7 13.7 59.7 C 13.3 59.7 13 59.6 12.8 59.4 C 12.5 59.2 12.4 58.9 12.4 58.5 C 12.4 58.5 12.4 58.5 12.4 58.5 C 12.4 58.2 12.5 57.9 12.8 57.7 C 13.1 57.5 13.4 57.4 13.9 57.4 C 14.3 57.4 14.6 57.4 15 57.5 C 15 57.5 15 57.4 15 57.4 C 15 57.1 14.9 56.8 14.7 56.7 C 14.5 56.5 14.3 56.4 13.9 56.4 C 13.6 56.4 13.2 56.5 12.8 56.7 C 12.8 56.7 12.7 56.2 12.7 56.2 C 13.1 56 13.5 55.9 14 55.9 C 14.5 55.9 14.9 56.1 15.2 56.3 C 15.4 56.6 15.5 56.9 15.5 57.4 C 15.53 57.39 15.5 59.6 15.5 59.6 L 15 59.6 L 15 59.1 C 15 59.1 15.01 59.05 15 59.1 Z M 13.8 59.2 C 14.2 59.2 14.4 59.2 14.7 59 C 14.9 58.8 15 58.6 15 58.3 C 15 58.3 15 57.9 15 57.9 C 14.7 57.8 14.3 57.8 14 57.8 C 13.6 57.8 13.4 57.8 13.2 58 C 13 58.1 12.9 58.3 12.9 58.5 C 12.9 58.5 12.9 58.5 12.9 58.5 C 12.9 58.7 13 58.9 13.2 59.1 C 13.3 59.2 13.6 59.2 13.8 59.2 Z M 16.7 59.6 L 16.7 56 L 17.2 56 C 17.2 56 17.22 56.93 17.2 56.9 C 17.4 56.6 17.6 56.4 17.8 56.2 C 18.1 56 18.4 55.9 18.7 55.9 C 18.7 55.92 18.7 56.5 18.7 56.5 C 18.7 56.5 18.65 56.5 18.7 56.5 C 18.2 56.5 17.9 56.6 17.6 56.9 C 17.4 57.2 17.2 57.6 17.2 58.2 C 17.22 58.16 17.2 59.6 17.2 59.6 L 16.7 59.6 Z M 19.6 59.6 L 19.6 56 L 20.1 56 L 20.1 59.6 L 19.6 59.6 Z M 21.4 59.6 L 21.4 56 L 21.9 56 C 21.9 56 21.9 56.59 21.9 56.6 C 22 56.4 22.2 56.2 22.4 56.1 C 22.6 56 22.8 55.9 23.1 55.9 C 23.6 55.9 24 56.1 24.2 56.6 C 24.5 56.1 25 55.9 25.5 55.9 C 25.9 55.9 26.2 56 26.5 56.3 C 26.7 56.6 26.8 56.9 26.8 57.4 C 26.84 57.36 26.8 59.6 26.8 59.6 L 26.3 59.6 C 26.3 59.6 26.31 57.49 26.3 57.5 C 26.3 57.1 26.2 56.9 26.1 56.7 C 25.9 56.5 25.7 56.4 25.4 56.4 C 25.1 56.4 24.9 56.5 24.7 56.7 C 24.5 56.9 24.4 57.2 24.4 57.5 C 24.37 57.51 24.4 59.6 24.4 59.6 L 23.8 59.6 C 23.8 59.6 23.83 57.47 23.8 57.5 C 23.8 57.1 23.8 56.9 23.6 56.7 C 23.4 56.5 23.2 56.4 22.9 56.4 C 22.6 56.4 22.4 56.5 22.2 56.7 C 22 56.9 21.9 57.2 21.9 57.5 C 21.9 57.53 21.9 59.6 21.9 59.6 L 21.4 59.6 Z M 28 56.7 L 28 56 L 28.6 56 L 28.6 56.7 L 28 56.7 Z M 28 59.6 L 28 58.9 L 28.6 58.9 L 28.6 59.6 L 28 59.6 Z M 32 59.6 L 32 54.7 L 32.5 54.7 L 34.3 57.4 L 36.1 54.7 L 36.7 54.7 L 36.7 59.6 L 36.1 59.6 L 36.1 55.6 L 34.3 58.3 L 34.3 58.3 L 32.5 55.6 L 32.5 59.6 L 32 59.6 Z M 40.3 59.1 C 40 59.5 39.6 59.7 39 59.7 C 38.7 59.7 38.3 59.6 38.1 59.4 C 37.8 59.2 37.7 58.9 37.7 58.5 C 37.7 58.5 37.7 58.5 37.7 58.5 C 37.7 58.2 37.8 57.9 38.1 57.7 C 38.4 57.5 38.8 57.4 39.2 57.4 C 39.6 57.4 40 57.4 40.3 57.5 C 40.3 57.5 40.3 57.4 40.3 57.4 C 40.3 57.1 40.2 56.8 40.1 56.7 C 39.9 56.5 39.6 56.4 39.3 56.4 C 38.9 56.4 38.5 56.5 38.2 56.7 C 38.2 56.7 38 56.2 38 56.2 C 38.4 56 38.9 55.9 39.3 55.9 C 39.8 55.9 40.2 56.1 40.5 56.3 C 40.7 56.6 40.9 56.9 40.9 57.4 C 40.85 57.39 40.9 59.6 40.9 59.6 L 40.3 59.6 L 40.3 59.1 C 40.3 59.1 40.33 59.05 40.3 59.1 Z M 39.1 59.2 C 39.5 59.2 39.8 59.2 40 59 C 40.2 58.8 40.3 58.6 40.3 58.3 C 40.3 58.3 40.3 57.9 40.3 57.9 C 40 57.8 39.6 57.8 39.3 57.8 C 38.9 57.8 38.7 57.8 38.5 58 C 38.3 58.1 38.2 58.3 38.2 58.5 C 38.2 58.5 38.2 58.5 38.2 58.5 C 38.2 58.7 38.3 58.9 38.5 59.1 C 38.7 59.2 38.9 59.2 39.1 59.2 Z M 43.2 59.6 L 41.6 56 L 42.2 56 L 43.5 59 L 44.7 56 L 45.3 56 L 43.7 59.6 L 43.2 59.6 Z M 46.1 59.6 L 46.1 56 L 46.6 56 C 46.6 56 46.65 56.93 46.6 56.9 C 46.8 56.6 47 56.4 47.2 56.2 C 47.5 56 47.8 55.9 48.1 55.9 C 48.12 55.92 48.1 56.5 48.1 56.5 C 48.1 56.5 48.08 56.5 48.1 56.5 C 47.7 56.5 47.3 56.6 47.1 56.9 C 46.8 57.2 46.6 57.6 46.6 58.2 C 46.65 58.16 46.6 59.6 46.6 59.6 L 46.1 59.6 Z M 50.6 59.7 C 50.1 59.7 49.6 59.5 49.3 59.1 C 48.9 58.8 48.7 58.3 48.7 57.8 C 48.7 57.8 48.7 57.8 48.7 57.8 C 48.7 57.3 48.9 56.8 49.3 56.5 C 49.6 56.1 50.1 55.9 50.6 55.9 C 51.1 55.9 51.6 56.1 52 56.5 C 52.3 56.8 52.5 57.3 52.5 57.8 C 52.5 57.8 52.5 57.8 52.5 57.8 C 52.5 58.3 52.3 58.8 51.9 59.1 C 51.6 59.5 51.1 59.7 50.6 59.7 Z M 50.6 59.2 C 51 59.2 51.3 59.1 51.6 58.8 C 51.8 58.5 51.9 58.2 51.9 57.8 C 51.9 57.8 51.9 57.8 51.9 57.8 C 51.9 57.4 51.8 57.1 51.6 56.8 C 51.3 56.5 51 56.4 50.6 56.4 C 50.2 56.4 49.9 56.5 49.6 56.8 C 49.4 57.1 49.3 57.4 49.3 57.8 C 49.3 57.8 49.3 57.8 49.3 57.8 C 49.3 58.2 49.4 58.5 49.7 58.8 C 49.9 59.1 50.2 59.2 50.6 59.2 Z M 52.7 60.5 L 56 54 L 56.5 54 L 53.2 60.5 L 52.7 60.5 Z M 57.1 59.6 L 57.1 54.7 L 57.7 54.7 L 57.7 59.1 L 60.4 59.1 L 60.4 59.6 L 57.1 59.6 Z M 64.4 59 C 64 59.5 63.5 59.7 62.9 59.7 C 62.4 59.7 62 59.5 61.6 59.2 C 61.3 58.8 61.1 58.4 61.1 57.8 C 61.1 57.8 61.1 57.8 61.1 57.8 C 61.1 57.3 61.3 56.8 61.6 56.4 C 61.9 56.1 62.3 55.9 62.8 55.9 C 63.4 55.9 63.8 56.1 64.1 56.4 C 64.4 56.8 64.5 57.3 64.5 57.8 C 64.5 57.9 64.5 57.9 64.5 58 C 64.5 58 61.6 58 61.6 58 C 61.7 58.4 61.8 58.7 62.1 58.9 C 62.3 59.1 62.6 59.2 62.9 59.2 C 63.4 59.2 63.7 59 64.1 58.7 C 64.06 58.7 64.4 59 64.4 59 C 64.4 59 64.4 59 64.4 59 Z M 61.6 57.6 C 61.6 57.6 64 57.6 64 57.6 C 64 57.2 63.8 56.9 63.6 56.7 C 63.4 56.5 63.2 56.4 62.8 56.4 C 62.5 56.4 62.2 56.5 62 56.7 C 61.8 56.9 61.7 57.2 61.6 57.6 Z M 65.7 59.6 L 65.7 56.5 L 65.2 56.5 L 65.2 56 L 65.7 56 C 65.7 56 65.67 55.67 65.7 55.7 C 65.7 55.3 65.8 55 66 54.7 C 66.2 54.6 66.4 54.5 66.8 54.5 C 67 54.5 67.2 54.5 67.4 54.6 C 67.4 54.6 67.4 55 67.4 55 C 67.1 55 67 54.9 66.8 54.9 C 66.4 54.9 66.2 55.2 66.2 55.7 C 66.21 55.7 66.2 56 66.2 56 L 67.4 56 L 67.4 56.5 L 66.2 56.5 L 66.2 59.6 L 65.7 59.6 Z M 71.1 59 C 70.7 59.5 70.2 59.7 69.6 59.7 C 69.1 59.7 68.7 59.5 68.3 59.2 C 68 58.8 67.8 58.4 67.8 57.8 C 67.8 57.8 67.8 57.8 67.8 57.8 C 67.8 57.3 68 56.8 68.3 56.4 C 68.6 56.1 69.1 55.9 69.6 55.9 C 70.1 55.9 70.5 56.1 70.8 56.4 C 71.1 56.8 71.2 57.3 71.2 57.8 C 71.2 57.9 71.2 57.9 71.2 58 C 71.2 58 68.4 58 68.4 58 C 68.4 58.4 68.5 58.7 68.8 58.9 C 69 59.1 69.3 59.2 69.6 59.2 C 70.1 59.2 70.4 59 70.8 58.7 C 70.78 58.7 71.1 59 71.1 59 C 71.1 59 71.11 59 71.1 59 Z M 68.4 57.6 C 68.4 57.6 70.7 57.6 70.7 57.6 C 70.7 57.2 70.6 56.9 70.4 56.7 C 70.2 56.5 69.9 56.4 69.5 56.4 C 69.2 56.4 69 56.5 68.7 56.7 C 68.5 56.9 68.4 57.2 68.4 57.6 Z M 69.3 55.4 L 68.5 54.7 L 69.1 54.4 L 69.8 55.4 L 69.3 55.4 Z M 73.4 59.6 L 71.8 56 L 72.4 56 L 73.6 59 L 74.9 56 L 75.4 56 L 73.9 59.6 L 73.4 59.6 Z M 76.3 59.6 L 76.3 56 L 76.8 56 C 76.8 56 76.83 56.93 76.8 56.9 C 77 56.6 77.2 56.4 77.4 56.2 C 77.7 56 78 55.9 78.3 55.9 C 78.31 55.92 78.3 56.5 78.3 56.5 C 78.3 56.5 78.27 56.5 78.3 56.5 C 77.9 56.5 77.5 56.6 77.2 56.9 C 77 57.2 76.8 57.6 76.8 58.2 C 76.83 58.16 76.8 59.6 76.8 59.6 L 76.3 59.6 Z M 82.2 59 C 81.8 59.5 81.3 59.7 80.7 59.7 C 80.2 59.7 79.8 59.5 79.4 59.2 C 79.1 58.8 78.9 58.4 78.9 57.8 C 78.9 57.8 78.9 57.8 78.9 57.8 C 78.9 57.3 79.1 56.8 79.4 56.4 C 79.7 56.1 80.1 55.9 80.6 55.9 C 81.2 55.9 81.6 56.1 81.9 56.4 C 82.2 56.8 82.3 57.3 82.3 57.8 C 82.3 57.9 82.3 57.9 82.3 58 C 82.3 58 79.4 58 79.4 58 C 79.5 58.4 79.6 58.7 79.9 58.9 C 80.1 59.1 80.4 59.2 80.7 59.2 C 81.2 59.2 81.5 59 81.9 58.7 C 81.86 58.7 82.2 59 82.2 59 C 82.2 59 82.2 59 82.2 59 Z M 79.4 57.6 C 79.4 57.6 81.8 57.6 81.8 57.6 C 81.8 57.2 81.6 56.9 81.4 56.7 C 81.2 56.5 81 56.4 80.6 56.4 C 80.3 56.4 80 56.5 79.8 56.7 C 79.6 56.9 79.5 57.2 79.4 57.6 Z " stroke="none" fill="#000"/>  </g>  <g id="Polygon58212">    <path d="M 0.7 50.6 L 0.7 45.7 L 1.2 45.7 L 1.2 50.1 L 4 50.1 L 4 50.6 L 0.7 50.6 Z M 7.7 50.6 L 7.7 46.2 L 6.7 46.5 L 6.6 46.1 L 7.8 45.7 L 8.2 45.7 L 8.2 50.6 L 7.7 50.6 Z M 13 49.3 C 13 49.7 12.8 50 12.4 50.3 C 12.1 50.5 11.6 50.7 11.1 50.7 C 10.6 50.7 10.1 50.5 9.8 50.3 C 9.4 50 9.3 49.7 9.3 49.3 C 9.3 49.3 9.3 49.3 9.3 49.3 C 9.3 49 9.4 48.7 9.5 48.5 C 9.7 48.3 10 48.2 10.3 48.1 C 9.7 47.8 9.4 47.4 9.4 46.9 C 9.4 46.9 9.4 46.9 9.4 46.9 C 9.4 46.6 9.6 46.2 9.9 46 C 10.3 45.8 10.7 45.6 11.1 45.6 C 11.6 45.6 12 45.8 12.3 46 C 12.6 46.2 12.8 46.6 12.8 46.9 C 12.8 46.9 12.8 46.9 12.8 46.9 C 12.8 47.4 12.5 47.8 11.9 48.1 C 12.3 48.2 12.5 48.3 12.7 48.5 C 12.9 48.7 13 49 13 49.3 C 12.96 49.26 13 49.3 13 49.3 C 13 49.3 12.96 49.28 13 49.3 Z M 10 47 C 10 47.2 10.1 47.4 10.3 47.6 C 10.5 47.8 10.8 47.9 11.1 47.9 C 11.4 47.9 11.7 47.8 11.9 47.6 C 12.1 47.4 12.2 47.2 12.2 47 C 12.2 47 12.2 47 12.2 47 C 12.2 46.7 12.1 46.5 11.9 46.4 C 11.7 46.2 11.4 46.1 11.1 46.1 C 10.8 46.1 10.5 46.2 10.3 46.4 C 10.1 46.5 10 46.7 10 47 C 10 46.96 10 47 10 47 C 10 47 10 46.97 10 47 Z M 9.8 49.3 C 9.8 49.5 10 49.7 10.2 49.9 C 10.4 50.1 10.7 50.2 11.1 50.2 C 11.5 50.2 11.8 50.1 12.1 49.9 C 12.3 49.7 12.4 49.5 12.4 49.3 C 12.4 49.3 12.4 49.3 12.4 49.3 C 12.4 49 12.3 48.8 12 48.6 C 11.8 48.4 11.5 48.3 11.1 48.3 C 10.8 48.3 10.5 48.4 10.2 48.6 C 10 48.8 9.8 49 9.8 49.3 C 9.83 49.26 9.8 49.3 9.8 49.3 C 9.8 49.3 9.83 49.27 9.8 49.3 Z M 19.1 50 C 18.7 50.5 18.2 50.7 17.7 50.7 C 17.1 50.7 16.7 50.5 16.3 50.1 C 16 49.8 15.8 49.3 15.8 48.8 C 15.8 48.8 15.8 48.8 15.8 48.8 C 15.8 48.3 16 47.8 16.3 47.5 C 16.7 47.1 17.1 46.9 17.7 46.9 C 18.2 46.9 18.7 47.1 19.1 47.5 C 19.1 47.5 18.7 47.9 18.7 47.9 C 18.4 47.6 18 47.4 17.6 47.4 C 17.3 47.4 17 47.5 16.7 47.8 C 16.5 48.1 16.4 48.4 16.4 48.8 C 16.4 48.8 16.4 48.8 16.4 48.8 C 16.4 49.2 16.5 49.5 16.7 49.8 C 17 50.1 17.3 50.2 17.7 50.2 C 18.1 50.2 18.5 50 18.8 49.7 C 18.79 49.66 19.1 50 19.1 50 C 19.1 50 19.13 49.98 19.1 50 Z M 20 50.6 L 20 47 L 20.6 47 C 20.6 47 20.56 47.59 20.6 47.6 C 20.7 47.4 20.9 47.2 21 47.1 C 21.2 47 21.4 46.9 21.7 46.9 C 22.3 46.9 22.7 47.1 22.9 47.6 C 23.2 47.1 23.6 46.9 24.2 46.9 C 24.6 46.9 24.9 47 25.2 47.3 C 25.4 47.6 25.5 47.9 25.5 48.4 C 25.51 48.36 25.5 50.6 25.5 50.6 L 25 50.6 C 25 50.6 24.97 48.49 25 48.5 C 25 48.1 24.9 47.9 24.7 47.7 C 24.6 47.5 24.3 47.4 24 47.4 C 23.8 47.4 23.5 47.5 23.3 47.7 C 23.1 47.9 23 48.2 23 48.5 C 23.03 48.51 23 50.6 23 50.6 L 22.5 50.6 C 22.5 50.6 22.5 48.47 22.5 48.5 C 22.5 48.1 22.4 47.9 22.2 47.7 C 22.1 47.5 21.9 47.4 21.6 47.4 C 21.3 47.4 21 47.5 20.8 47.7 C 20.7 47.9 20.6 48.2 20.6 48.5 C 20.56 48.53 20.6 50.6 20.6 50.6 L 20 50.6 Z M 26.5 51.5 C 26.5 51.5 26.4 51.2 26.4 51.2 C 26.7 51.1 26.9 50.9 26.8 50.6 C 26.84 50.6 26.6 50.6 26.6 50.6 L 26.6 49.9 L 27.2 49.9 C 27.2 49.9 27.24 50.49 27.2 50.5 C 27.2 50.8 27.2 51 27.1 51.1 C 26.9 51.3 26.7 51.4 26.5 51.5 Z M 31.9 50.6 L 30.2 45.7 L 30.8 45.7 L 32.2 49.8 L 33.5 45.7 L 34 45.7 L 35.3 49.8 L 36.7 45.7 L 37.3 45.7 L 35.6 50.6 L 35.1 50.6 L 33.7 46.7 L 32.4 50.6 L 31.9 50.6 Z M 41 50.6 L 41 46.2 L 40 46.5 L 39.9 46.1 L 41.1 45.7 L 41.5 45.7 L 41.5 50.6 L 41 50.6 Z M 43.5 50.6 L 43.5 46.2 L 42.6 46.5 L 42.4 46.1 L 43.6 45.7 L 44 45.7 L 44 50.6 L 43.5 50.6 Z M 45.1 51.5 C 45.1 51.5 45.1 51.2 45.1 51.2 C 45.4 51.1 45.5 50.9 45.5 50.6 C 45.52 50.6 45.3 50.6 45.3 50.6 L 45.3 49.9 L 45.9 49.9 C 45.9 49.9 45.91 50.49 45.9 50.5 C 45.9 50.8 45.9 51 45.7 51.1 C 45.6 51.3 45.4 51.4 45.1 51.5 Z M 46.8 50.6 L 46.8 50.2 C 46.8 50.2 48.56 48.6 48.6 48.6 C 48.9 48.3 49.2 48 49.4 47.8 C 49.5 47.5 49.6 47.3 49.6 47.1 C 49.6 46.8 49.5 46.6 49.3 46.4 C 49.1 46.2 48.9 46.1 48.6 46.1 C 48.3 46.1 48.1 46.2 47.9 46.3 C 47.7 46.5 47.5 46.7 47.3 47 C 47.3 47 46.9 46.7 46.9 46.7 C 47.1 46.3 47.4 46 47.6 45.9 C 47.9 45.7 48.2 45.6 48.6 45.6 C 49.1 45.6 49.4 45.8 49.7 46 C 50 46.3 50.2 46.6 50.2 47 C 50.2 47 50.2 47 50.2 47 C 50.2 47.4 50.1 47.7 49.9 47.9 C 49.7 48.2 49.4 48.5 48.9 48.9 C 48.92 48.93 47.6 50.1 47.6 50.1 L 50.2 50.1 L 50.2 50.6 L 46.8 50.6 Z M 56.4 50 C 56 50.5 55.5 50.7 55 50.7 C 54.4 50.7 54 50.5 53.6 50.1 C 53.3 49.8 53.1 49.3 53.1 48.8 C 53.1 48.8 53.1 48.8 53.1 48.8 C 53.1 48.3 53.3 47.8 53.6 47.5 C 54 47.1 54.4 46.9 55 46.9 C 55.5 46.9 56 47.1 56.4 47.5 C 56.4 47.5 56.1 47.9 56.1 47.9 C 55.7 47.6 55.4 47.4 55 47.4 C 54.6 47.4 54.3 47.5 54 47.8 C 53.8 48.1 53.7 48.4 53.7 48.8 C 53.7 48.8 53.7 48.8 53.7 48.8 C 53.7 49.2 53.8 49.5 54 49.8 C 54.3 50.1 54.6 50.2 55 50.2 C 55.4 50.2 55.8 50 56.1 49.7 C 56.1 49.66 56.4 50 56.4 50 C 56.4 50 56.45 49.98 56.4 50 Z M 57.3 50.6 L 57.3 47 L 57.9 47 C 57.9 47 57.88 47.59 57.9 47.6 C 58 47.4 58.2 47.2 58.4 47.1 C 58.5 47 58.8 46.9 59 46.9 C 59.6 46.9 60 47.1 60.2 47.6 C 60.5 47.1 61 46.9 61.5 46.9 C 61.9 46.9 62.2 47 62.5 47.3 C 62.7 47.6 62.8 47.9 62.8 48.4 C 62.82 48.36 62.8 50.6 62.8 50.6 L 62.3 50.6 C 62.3 50.6 62.29 48.49 62.3 48.5 C 62.3 48.1 62.2 47.9 62 47.7 C 61.9 47.5 61.6 47.4 61.3 47.4 C 61.1 47.4 60.8 47.5 60.6 47.7 C 60.4 47.9 60.3 48.2 60.3 48.5 C 60.35 48.51 60.3 50.6 60.3 50.6 L 59.8 50.6 C 59.8 50.6 59.81 48.47 59.8 48.5 C 59.8 48.1 59.7 47.9 59.6 47.7 C 59.4 47.5 59.2 47.4 58.9 47.4 C 58.6 47.4 58.4 47.5 58.2 47.7 C 58 47.9 57.9 48.2 57.9 48.5 C 57.88 48.53 57.9 50.6 57.9 50.6 L 57.3 50.6 Z M 63.8 51.5 C 63.8 51.5 63.7 51.2 63.7 51.2 C 64 51.1 64.2 50.9 64.2 50.6 C 64.16 50.6 63.9 50.6 63.9 50.6 L 63.9 49.9 L 64.6 49.9 C 64.6 49.9 64.55 50.49 64.6 50.5 C 64.6 50.8 64.5 51 64.4 51.1 C 64.2 51.3 64 51.4 63.8 51.5 Z M 67.9 50.6 L 67.9 45.7 L 68.4 45.7 L 68.4 47.9 L 71.3 47.9 L 71.3 45.7 L 71.8 45.7 L 71.8 50.6 L 71.3 50.6 L 71.3 48.4 L 68.4 48.4 L 68.4 50.6 L 67.9 50.6 Z M 75.9 50.6 L 75.9 46.2 L 74.9 46.5 L 74.8 46.1 L 76 45.7 L 76.4 45.7 L 76.4 50.6 L 75.9 50.6 Z M 78.1 50.6 L 80.3 46.2 L 77.6 46.2 L 77.6 45.7 L 80.9 45.7 L 80.9 46.1 L 78.7 50.6 L 78.1 50.6 Z M 87.1 50 C 86.7 50.5 86.2 50.7 85.6 50.7 C 85.1 50.7 84.6 50.5 84.3 50.1 C 83.9 49.8 83.8 49.3 83.8 48.8 C 83.8 48.8 83.8 48.8 83.8 48.8 C 83.8 48.3 83.9 47.8 84.3 47.5 C 84.6 47.1 85.1 46.9 85.6 46.9 C 86.2 46.9 86.7 47.1 87.1 47.5 C 87.1 47.5 86.7 47.9 86.7 47.9 C 86.4 47.6 86 47.4 85.6 47.4 C 85.2 47.4 84.9 47.5 84.7 47.8 C 84.4 48.1 84.3 48.4 84.3 48.8 C 84.3 48.8 84.3 48.8 84.3 48.8 C 84.3 49.2 84.4 49.5 84.7 49.8 C 84.9 50.1 85.3 50.2 85.6 50.2 C 86 50.2 86.4 50 86.7 49.7 C 86.75 49.66 87.1 50 87.1 50 C 87.1 50 87.09 49.98 87.1 50 Z M 88 50.6 L 88 47 L 88.5 47 C 88.5 47 88.52 47.59 88.5 47.6 C 88.7 47.4 88.8 47.2 89 47.1 C 89.2 47 89.4 46.9 89.7 46.9 C 90.2 46.9 90.6 47.1 90.9 47.6 C 91.2 47.1 91.6 46.9 92.1 46.9 C 92.5 46.9 92.9 47 93.1 47.3 C 93.4 47.6 93.5 47.9 93.5 48.4 C 93.47 48.36 93.5 50.6 93.5 50.6 L 92.9 50.6 C 92.9 50.6 92.93 48.49 92.9 48.5 C 92.9 48.1 92.8 47.9 92.7 47.7 C 92.5 47.5 92.3 47.4 92 47.4 C 91.7 47.4 91.5 47.5 91.3 47.7 C 91.1 47.9 91 48.2 91 48.5 C 90.99 48.51 91 50.6 91 50.6 L 90.5 50.6 C 90.5 50.6 90.46 48.47 90.5 48.5 C 90.5 48.1 90.4 47.9 90.2 47.7 C 90 47.5 89.8 47.4 89.5 47.4 C 89.2 47.4 89 47.5 88.8 47.7 C 88.6 47.9 88.5 48.2 88.5 48.5 C 88.52 48.53 88.5 50.6 88.5 50.6 L 88 50.6 Z " stroke="none" fill="#000"/>  </g>  <g id="Polygon58211">    <path d="M 0.7 41.6 L 0.7 36.7 L 1.3 36.7 L 3 39.4 L 4.8 36.7 L 5.4 36.7 L 5.4 41.6 L 4.8 41.6 L 4.8 37.6 L 3 40.3 L 3 40.3 L 1.2 37.6 L 1.2 41.6 L 0.7 41.6 Z M 9.8 41 C 9.4 41.5 8.9 41.7 8.3 41.7 C 7.8 41.7 7.3 41.5 7 41.2 C 6.6 40.8 6.5 40.4 6.5 39.8 C 6.5 39.8 6.5 39.8 6.5 39.8 C 6.5 39.3 6.6 38.8 6.9 38.4 C 7.3 38.1 7.7 37.9 8.2 37.9 C 8.7 37.9 9.1 38.1 9.4 38.4 C 9.7 38.8 9.9 39.3 9.9 39.8 C 9.9 39.9 9.9 39.9 9.9 40 C 9.9 40 7 40 7 40 C 7 40.4 7.2 40.7 7.4 40.9 C 7.7 41.1 7.9 41.2 8.3 41.2 C 8.7 41.2 9.1 41 9.4 40.7 C 9.41 40.7 9.8 41 9.8 41 C 9.8 41 9.75 41 9.8 41 Z M 7 39.6 C 7 39.6 9.3 39.6 9.3 39.6 C 9.3 39.2 9.2 38.9 9 38.7 C 8.8 38.5 8.5 38.4 8.2 38.4 C 7.9 38.4 7.6 38.5 7.4 38.7 C 7.2 38.9 7 39.2 7 39.6 Z M 12.7 41.5 C 12.5 41.6 12.3 41.7 12 41.7 C 11.7 41.7 11.5 41.6 11.3 41.4 C 11.1 41.2 11 41 11 40.6 C 11.01 40.64 11 38.5 11 38.5 L 10.5 38.5 L 10.5 38 L 11 38 L 11 36.9 L 11.5 36.9 L 11.5 38 L 12.7 38 L 12.7 38.5 L 11.5 38.5 C 11.5 38.5 11.55 40.57 11.5 40.6 C 11.5 41 11.8 41.2 12.2 41.2 C 12.3 41.2 12.5 41.1 12.7 41 C 12.68 41.05 12.7 41.5 12.7 41.5 C 12.7 41.5 12.68 41.51 12.7 41.5 Z M 16 41.1 C 15.7 41.5 15.3 41.7 14.7 41.7 C 14.4 41.7 14 41.6 13.8 41.4 C 13.5 41.2 13.4 40.9 13.4 40.5 C 13.4 40.5 13.4 40.5 13.4 40.5 C 13.4 40.2 13.5 39.9 13.8 39.7 C 14.1 39.5 14.5 39.4 14.9 39.4 C 15.3 39.4 15.7 39.4 16 39.5 C 16 39.5 16 39.4 16 39.4 C 16 39.1 15.9 38.8 15.8 38.7 C 15.6 38.5 15.3 38.4 15 38.4 C 14.6 38.4 14.2 38.5 13.9 38.7 C 13.9 38.7 13.7 38.2 13.7 38.2 C 14.1 38 14.6 37.9 15 37.9 C 15.5 37.9 15.9 38.1 16.2 38.3 C 16.4 38.6 16.6 38.9 16.6 39.4 C 16.55 39.39 16.6 41.6 16.6 41.6 L 16 41.6 L 16 41.1 C 16 41.1 16.04 41.05 16 41.1 Z M 14.8 41.2 C 15.2 41.2 15.5 41.2 15.7 41 C 15.9 40.8 16 40.6 16 40.3 C 16 40.3 16 39.9 16 39.9 C 15.7 39.8 15.3 39.8 15 39.8 C 14.6 39.8 14.4 39.8 14.2 40 C 14 40.1 13.9 40.3 13.9 40.5 C 13.9 40.5 13.9 40.5 13.9 40.5 C 13.9 40.7 14 40.9 14.2 41.1 C 14.4 41.2 14.6 41.2 14.8 41.2 Z M 17.8 41.6 L 17.8 36.5 L 18.3 36.5 L 18.3 41.6 L 17.8 41.6 Z M 20.9 42.5 L 24.1 36 L 24.6 36 L 21.4 42.5 L 20.9 42.5 Z M 29.1 41.7 C 28.3 41.7 27.6 41.4 27.1 40.9 C 27.1 40.9 27.4 40.5 27.4 40.5 C 27.7 40.7 27.9 40.9 28.2 41 C 28.5 41.1 28.8 41.2 29.1 41.2 C 29.4 41.2 29.7 41.1 29.9 40.9 C 30.1 40.8 30.2 40.6 30.2 40.3 C 30.2 40.3 30.2 40.3 30.2 40.3 C 30.2 40.1 30.1 39.9 29.9 39.8 C 29.7 39.6 29.4 39.5 28.9 39.4 C 28.3 39.3 27.9 39.1 27.7 38.9 C 27.4 38.7 27.3 38.4 27.3 38 C 27.3 38 27.3 38 27.3 38 C 27.3 37.6 27.4 37.3 27.7 37 C 28 36.8 28.4 36.6 28.9 36.6 C 29.2 36.6 29.5 36.7 29.8 36.8 C 30.1 36.9 30.3 37 30.6 37.2 C 30.6 37.2 30.3 37.7 30.3 37.7 C 29.8 37.3 29.4 37.1 28.9 37.1 C 28.5 37.1 28.3 37.2 28.1 37.4 C 27.9 37.5 27.8 37.7 27.8 37.9 C 27.8 37.9 27.8 37.9 27.8 37.9 C 27.8 38.2 27.9 38.4 28.1 38.5 C 28.3 38.7 28.6 38.8 29.1 38.9 C 29.7 39 30.1 39.2 30.4 39.4 C 30.6 39.6 30.7 39.9 30.7 40.3 C 30.7 40.3 30.7 40.3 30.7 40.3 C 30.7 40.7 30.6 41 30.3 41.3 C 30 41.5 29.6 41.7 29.1 41.7 Z M 33.6 41.5 C 33.5 41.6 33.2 41.7 33 41.7 C 32.7 41.7 32.4 41.6 32.2 41.4 C 32.1 41.2 32 41 32 40.6 C 31.97 40.64 32 38.5 32 38.5 L 31.5 38.5 L 31.5 38 L 32 38 L 32 36.9 L 32.5 36.9 L 32.5 38 L 33.7 38 L 33.7 38.5 L 32.5 38.5 C 32.5 38.5 32.51 40.57 32.5 40.6 C 32.5 41 32.7 41.2 33.1 41.2 C 33.3 41.2 33.5 41.1 33.6 41 C 33.64 41.05 33.6 41.5 33.6 41.5 C 33.6 41.5 33.64 41.51 33.6 41.5 Z M 36.3 41.7 C 35.7 41.7 35.3 41.5 34.9 41.1 C 34.6 40.8 34.4 40.3 34.4 39.8 C 34.4 39.8 34.4 39.8 34.4 39.8 C 34.4 39.3 34.6 38.8 34.9 38.5 C 35.3 38.1 35.7 37.9 36.3 37.9 C 36.8 37.9 37.3 38.1 37.6 38.5 C 38 38.8 38.2 39.3 38.2 39.8 C 38.2 39.8 38.2 39.8 38.2 39.8 C 38.2 40.3 38 40.8 37.6 41.1 C 37.3 41.5 36.8 41.7 36.3 41.7 Z M 36.3 41.2 C 36.7 41.2 37 41.1 37.2 40.8 C 37.5 40.5 37.6 40.2 37.6 39.8 C 37.6 39.8 37.6 39.8 37.6 39.8 C 37.6 39.4 37.5 39.1 37.2 38.8 C 37 38.5 36.6 38.4 36.3 38.4 C 35.9 38.4 35.6 38.5 35.3 38.8 C 35.1 39.1 34.9 39.4 34.9 39.8 C 34.9 39.8 34.9 39.8 34.9 39.8 C 34.9 40.2 35.1 40.5 35.3 40.8 C 35.6 41.1 35.9 41.2 36.3 41.2 Z M 39.1 41.6 L 39.1 38 L 39.7 38 C 39.7 38 39.67 38.61 39.7 38.6 C 40 38.1 40.4 37.9 40.9 37.9 C 41.3 37.9 41.7 38 41.9 38.3 C 42.2 38.6 42.3 38.9 42.3 39.4 C 42.29 39.35 42.3 41.6 42.3 41.6 L 41.8 41.6 C 41.8 41.6 41.75 39.49 41.8 39.5 C 41.8 39.1 41.7 38.9 41.5 38.7 C 41.3 38.5 41.1 38.4 40.8 38.4 C 40.4 38.4 40.2 38.5 40 38.7 C 39.8 38.9 39.7 39.2 39.7 39.5 C 39.67 39.53 39.7 41.6 39.7 41.6 L 39.1 41.6 Z M 46.5 41 C 46.1 41.5 45.6 41.7 45 41.7 C 44.5 41.7 44.1 41.5 43.7 41.2 C 43.4 40.8 43.2 40.4 43.2 39.8 C 43.2 39.8 43.2 39.8 43.2 39.8 C 43.2 39.3 43.4 38.8 43.7 38.4 C 44 38.1 44.5 37.9 45 37.9 C 45.5 37.9 45.9 38.1 46.2 38.4 C 46.5 38.8 46.6 39.3 46.6 39.8 C 46.6 39.9 46.6 39.9 46.6 40 C 46.6 40 43.8 40 43.8 40 C 43.8 40.4 43.9 40.7 44.2 40.9 C 44.4 41.1 44.7 41.2 45 41.2 C 45.5 41.2 45.8 41 46.2 40.7 C 46.18 40.7 46.5 41 46.5 41 C 46.5 41 46.51 41 46.5 41 Z M 43.8 39.6 C 43.8 39.6 46.1 39.6 46.1 39.6 C 46.1 39.2 46 38.9 45.8 38.7 C 45.6 38.5 45.3 38.4 44.9 38.4 C 44.6 38.4 44.4 38.5 44.1 38.7 C 43.9 38.9 43.8 39.2 43.8 39.6 Z M 48.5 41.6 L 47.3 38 L 47.9 38 L 48.8 40.9 L 49.8 38 L 50.2 38 L 51.2 40.9 L 52.2 38 L 52.7 38 L 51.4 41.6 L 51 41.6 L 50 38.8 L 49 41.6 L 48.5 41.6 Z M 56 41.1 C 55.7 41.5 55.2 41.7 54.7 41.7 C 54.3 41.7 54 41.6 53.7 41.4 C 53.5 41.2 53.3 40.9 53.3 40.5 C 53.3 40.5 53.3 40.5 53.3 40.5 C 53.3 40.2 53.5 39.9 53.8 39.7 C 54 39.5 54.4 39.4 54.9 39.4 C 55.3 39.4 55.6 39.4 56 39.5 C 56 39.5 56 39.4 56 39.4 C 56 39.1 55.9 38.8 55.7 38.7 C 55.5 38.5 55.3 38.4 54.9 38.4 C 54.6 38.4 54.2 38.5 53.8 38.7 C 53.8 38.7 53.7 38.2 53.7 38.2 C 54.1 38 54.5 37.9 55 37.9 C 55.5 37.9 55.9 38.1 56.1 38.3 C 56.4 38.6 56.5 38.9 56.5 39.4 C 56.52 39.39 56.5 41.6 56.5 41.6 L 56 41.6 L 56 41.1 C 56 41.1 56 41.05 56 41.1 Z M 54.8 41.2 C 55.1 41.2 55.4 41.2 55.7 41 C 55.9 40.8 56 40.6 56 40.3 C 56 40.3 56 39.9 56 39.9 C 55.6 39.8 55.3 39.8 54.9 39.8 C 54.6 39.8 54.3 39.8 54.2 40 C 54 40.1 53.9 40.3 53.9 40.5 C 53.9 40.5 53.9 40.5 53.9 40.5 C 53.9 40.7 54 40.9 54.2 41.1 C 54.3 41.2 54.5 41.2 54.8 41.2 Z M 57.7 41.6 L 57.7 38 L 58.2 38 C 58.2 38 58.2 38.93 58.2 38.9 C 58.3 38.6 58.5 38.4 58.8 38.2 C 59.1 38 59.3 37.9 59.7 37.9 C 59.68 37.92 59.7 38.5 59.7 38.5 C 59.7 38.5 59.64 38.5 59.6 38.5 C 59.2 38.5 58.9 38.6 58.6 38.9 C 58.3 39.2 58.2 39.6 58.2 40.2 C 58.2 40.16 58.2 41.6 58.2 41.6 L 57.7 41.6 Z M 63.6 41 C 63.2 41.5 62.7 41.7 62.1 41.7 C 61.6 41.7 61.2 41.5 60.8 41.2 C 60.5 40.8 60.3 40.4 60.3 39.8 C 60.3 39.8 60.3 39.8 60.3 39.8 C 60.3 39.3 60.4 38.8 60.8 38.4 C 61.1 38.1 61.5 37.9 62 37.9 C 62.5 37.9 62.9 38.1 63.2 38.4 C 63.5 38.8 63.7 39.3 63.7 39.8 C 63.7 39.9 63.7 39.9 63.7 40 C 63.7 40 60.8 40 60.8 40 C 60.9 40.4 61 40.7 61.2 40.9 C 61.5 41.1 61.8 41.2 62.1 41.2 C 62.5 41.2 62.9 41 63.2 40.7 C 63.24 40.7 63.6 41 63.6 41 C 63.6 41 63.57 41 63.6 41 Z M 60.8 39.6 C 60.8 39.6 63.2 39.6 63.2 39.6 C 63.1 39.2 63 38.9 62.8 38.7 C 62.6 38.5 62.3 38.4 62 38.4 C 61.7 38.4 61.4 38.5 61.2 38.7 C 61 38.9 60.9 39.2 60.8 39.6 Z M 66 42.5 L 69.2 36 L 69.7 36 L 66.5 42.5 L 66 42.5 Z M 72.5 41.6 L 72.5 36.7 C 72.5 36.7 74.33 36.7 74.3 36.7 C 74.9 36.7 75.3 36.8 75.7 37.1 C 76 37.4 76.2 37.8 76.2 38.3 C 76.2 38.3 76.2 38.3 76.2 38.3 C 76.2 38.8 76 39.2 75.6 39.5 C 75.2 39.7 74.8 39.9 74.2 39.9 C 74.23 39.87 73 39.9 73 39.9 L 73 41.6 L 72.5 41.6 Z M 73 39.4 C 73 39.4 74.26 39.37 74.3 39.4 C 74.7 39.4 75 39.3 75.2 39.1 C 75.5 38.9 75.6 38.6 75.6 38.3 C 75.6 38.3 75.6 38.3 75.6 38.3 C 75.6 37.9 75.5 37.7 75.2 37.5 C 75 37.3 74.7 37.2 74.3 37.2 C 74.28 37.21 73 37.2 73 37.2 L 73 39.4 Z M 77.2 41.6 L 77.2 36.7 C 77.2 36.7 79 36.7 79 36.7 C 79.6 36.7 80 36.8 80.3 37.1 C 80.7 37.4 80.8 37.8 80.8 38.3 C 80.8 38.3 80.8 38.3 80.8 38.3 C 80.8 38.8 80.7 39.2 80.3 39.5 C 79.9 39.7 79.5 39.9 78.9 39.9 C 78.91 39.87 77.7 39.9 77.7 39.9 L 77.7 41.6 L 77.2 41.6 Z M 77.7 39.4 C 77.7 39.4 78.93 39.37 78.9 39.4 C 79.3 39.4 79.7 39.3 79.9 39.1 C 80.2 38.9 80.3 38.6 80.3 38.3 C 80.3 38.3 80.3 38.3 80.3 38.3 C 80.3 37.9 80.2 37.7 79.9 37.5 C 79.7 37.3 79.4 37.2 79 37.2 C 78.96 37.21 77.7 37.2 77.7 37.2 L 77.7 39.4 Z " stroke="none" fill="#000"/>  </g>  <g id="Polygon58210">    <path d="M 0.7 23.6 L 0.7 18.7 C 0.7 18.7 2.8 18.7 2.8 18.7 C 3.4 18.7 3.9 18.9 4.2 19.2 C 4.4 19.4 4.6 19.8 4.6 20.2 C 4.6 20.2 4.6 20.2 4.6 20.2 C 4.6 20.6 4.4 20.9 4.2 21.1 C 4 21.4 3.6 21.5 3.2 21.6 C 3.24 21.6 4.7 23.6 4.7 23.6 L 4.1 23.6 L 2.6 21.7 L 1.2 21.7 L 1.2 23.6 L 0.7 23.6 Z M 1.2 21.2 C 1.2 21.2 2.75 21.2 2.8 21.2 C 3.1 21.2 3.4 21.1 3.7 20.9 C 3.9 20.7 4 20.5 4 20.2 C 4 20.2 4 20.2 4 20.2 C 4 19.9 3.9 19.6 3.7 19.5 C 3.5 19.3 3.2 19.2 2.8 19.2 C 2.76 19.21 1.2 19.2 1.2 19.2 L 1.2 21.2 Z M 8.7 23 C 8.3 23.5 7.8 23.7 7.2 23.7 C 6.7 23.7 6.3 23.5 6 23.2 C 5.6 22.8 5.4 22.4 5.4 21.8 C 5.4 21.8 5.4 21.8 5.4 21.8 C 5.4 21.3 5.6 20.8 5.9 20.4 C 6.3 20.1 6.7 19.9 7.2 19.9 C 7.7 19.9 8.1 20.1 8.4 20.4 C 8.7 20.8 8.9 21.3 8.9 21.8 C 8.9 21.9 8.9 21.9 8.9 22 C 8.9 22 6 22 6 22 C 6 22.4 6.2 22.7 6.4 22.9 C 6.6 23.1 6.9 23.2 7.3 23.2 C 7.7 23.2 8.1 23 8.4 22.7 C 8.4 22.7 8.7 23 8.7 23 C 8.7 23 8.74 23 8.7 23 Z M 6 21.6 C 6 21.6 8.3 21.6 8.3 21.6 C 8.3 21.2 8.2 20.9 8 20.7 C 7.8 20.5 7.5 20.4 7.2 20.4 C 6.8 20.4 6.6 20.5 6.4 20.7 C 6.1 20.9 6 21.2 6 21.6 Z M 9.8 23.6 L 9.8 20 L 10.3 20 C 10.3 20 10.35 20.61 10.3 20.6 C 10.6 20.1 11.1 19.9 11.6 19.9 C 12 19.9 12.4 20 12.6 20.3 C 12.8 20.6 13 20.9 13 21.4 C 12.97 21.35 13 23.6 13 23.6 L 12.4 23.6 C 12.4 23.6 12.43 21.49 12.4 21.5 C 12.4 21.1 12.3 20.9 12.2 20.7 C 12 20.5 11.7 20.4 11.4 20.4 C 11.1 20.4 10.9 20.5 10.7 20.7 C 10.4 20.9 10.3 21.2 10.3 21.5 C 10.35 21.53 10.3 23.6 10.3 23.6 L 9.8 23.6 Z M 14.1 23.6 L 14.1 18.5 L 14.7 18.5 L 14.7 22 L 16.6 20 L 17.3 20 L 15.8 21.5 L 17.3 23.6 L 16.7 23.6 L 15.4 21.9 L 14.7 22.7 L 14.7 23.6 L 14.1 23.6 Z M 18.1 20.7 L 18.1 20 L 18.7 20 L 18.7 20.7 L 18.1 20.7 Z M 18.1 23.6 L 18.1 22.9 L 18.7 22.9 L 18.7 23.6 L 18.1 23.6 Z M 23.4 23.6 L 21.7 18.7 L 22.3 18.7 L 23.7 22.8 L 25 18.7 L 25.5 18.7 L 26.8 22.8 L 28.2 18.7 L 28.8 18.7 L 27.1 23.6 L 26.6 23.6 L 25.3 19.7 L 23.9 23.6 L 23.4 23.6 Z M 32.1 23.1 C 31.8 23.5 31.4 23.7 30.8 23.7 C 30.4 23.7 30.1 23.6 29.9 23.4 C 29.6 23.2 29.5 22.9 29.5 22.5 C 29.5 22.5 29.5 22.5 29.5 22.5 C 29.5 22.2 29.6 21.9 29.9 21.7 C 30.2 21.5 30.5 21.4 31 21.4 C 31.4 21.4 31.7 21.4 32.1 21.5 C 32.1 21.5 32.1 21.4 32.1 21.4 C 32.1 21.1 32 20.8 31.8 20.7 C 31.6 20.5 31.4 20.4 31 20.4 C 30.7 20.4 30.3 20.5 29.9 20.7 C 29.9 20.7 29.8 20.2 29.8 20.2 C 30.2 20 30.6 19.9 31.1 19.9 C 31.6 19.9 32 20.1 32.3 20.3 C 32.5 20.6 32.6 20.9 32.6 21.4 C 32.63 21.39 32.6 23.6 32.6 23.6 L 32.1 23.6 L 32.1 23.1 C 32.1 23.1 32.12 23.05 32.1 23.1 Z M 30.9 23.2 C 31.3 23.2 31.5 23.2 31.8 23 C 32 22.8 32.1 22.6 32.1 22.3 C 32.1 22.3 32.1 21.9 32.1 21.9 C 31.8 21.8 31.4 21.8 31.1 21.8 C 30.7 21.8 30.5 21.8 30.3 22 C 30.1 22.1 30 22.3 30 22.5 C 30 22.5 30 22.5 30 22.5 C 30 22.7 30.1 22.9 30.3 23.1 C 30.4 23.2 30.7 23.2 30.9 23.2 Z M 33.8 23.6 L 33.8 20 L 34.3 20 C 34.3 20 34.32 20.93 34.3 20.9 C 34.5 20.6 34.7 20.4 34.9 20.2 C 35.2 20 35.5 19.9 35.8 19.9 C 35.8 19.92 35.8 20.5 35.8 20.5 C 35.8 20.5 35.76 20.5 35.8 20.5 C 35.3 20.5 35 20.6 34.7 20.9 C 34.5 21.2 34.3 21.6 34.3 22.2 C 34.32 22.16 34.3 23.6 34.3 23.6 L 33.8 23.6 Z M 36.6 23.6 L 36.6 20 L 37.2 20 C 37.2 20 37.16 20.59 37.2 20.6 C 37.3 20.4 37.5 20.2 37.6 20.1 C 37.8 20 38 19.9 38.3 19.9 C 38.9 19.9 39.3 20.1 39.5 20.6 C 39.8 20.1 40.2 19.9 40.8 19.9 C 41.2 19.9 41.5 20 41.7 20.3 C 42 20.6 42.1 20.9 42.1 21.4 C 42.1 21.36 42.1 23.6 42.1 23.6 L 41.6 23.6 C 41.6 23.6 41.57 21.49 41.6 21.5 C 41.6 21.1 41.5 20.9 41.3 20.7 C 41.2 20.5 40.9 20.4 40.6 20.4 C 40.3 20.4 40.1 20.5 39.9 20.7 C 39.7 20.9 39.6 21.2 39.6 21.5 C 39.63 21.51 39.6 23.6 39.6 23.6 L 39.1 23.6 C 39.1 23.6 39.09 21.47 39.1 21.5 C 39.1 21.1 39 20.9 38.8 20.7 C 38.7 20.5 38.5 20.4 38.2 20.4 C 37.9 20.4 37.6 20.5 37.4 20.7 C 37.3 20.9 37.2 21.2 37.2 21.5 C 37.16 21.53 37.2 23.6 37.2 23.6 L 36.6 23.6 Z M 49.7 22.9 C 49.1 23.4 48.5 23.7 47.7 23.7 C 47 23.7 46.4 23.4 45.9 23 C 45.5 22.5 45.2 21.9 45.2 21.2 C 45.2 21.2 45.2 21.1 45.2 21.1 C 45.2 20.5 45.5 19.9 45.9 19.4 C 46.4 18.9 47 18.6 47.7 18.6 C 48.1 18.6 48.4 18.7 48.7 18.8 C 49 18.9 49.2 19 49.5 19.3 C 49.5 19.3 49.2 19.7 49.2 19.7 C 48.7 19.3 48.2 19.1 47.7 19.1 C 47.1 19.1 46.7 19.3 46.3 19.7 C 46 20.1 45.8 20.6 45.8 21.1 C 45.8 21.1 45.8 21.1 45.8 21.1 C 45.8 21.7 46 22.2 46.3 22.6 C 46.7 23 47.2 23.2 47.7 23.2 C 48.3 23.2 48.8 23 49.2 22.7 C 49.15 22.7 49.2 21.5 49.2 21.5 L 47.7 21.5 L 47.7 21 L 49.7 21 L 49.7 22.9 C 49.7 22.9 49.69 22.93 49.7 22.9 Z M 50.8 23.6 L 50.8 20 L 51.4 20 C 51.4 20 51.38 20.93 51.4 20.9 C 51.5 20.6 51.7 20.4 52 20.2 C 52.2 20 52.5 19.9 52.9 19.9 C 52.86 19.92 52.9 20.5 52.9 20.5 C 52.9 20.5 52.81 20.5 52.8 20.5 C 52.4 20.5 52.1 20.6 51.8 20.9 C 51.5 21.2 51.4 21.6 51.4 22.2 C 51.38 22.16 51.4 23.6 51.4 23.6 L 50.8 23.6 Z M 56.7 23 C 56.4 23.5 55.9 23.7 55.3 23.7 C 54.8 23.7 54.3 23.5 54 23.2 C 53.6 22.8 53.5 22.4 53.5 21.8 C 53.5 21.8 53.5 21.8 53.5 21.8 C 53.5 21.3 53.6 20.8 53.9 20.4 C 54.3 20.1 54.7 19.9 55.2 19.9 C 55.7 19.9 56.1 20.1 56.4 20.4 C 56.7 20.8 56.9 21.3 56.9 21.8 C 56.9 21.9 56.9 21.9 56.9 22 C 56.9 22 54 22 54 22 C 54 22.4 54.2 22.7 54.4 22.9 C 54.7 23.1 54.9 23.2 55.3 23.2 C 55.7 23.2 56.1 23 56.4 22.7 C 56.41 22.7 56.7 23 56.7 23 C 56.7 23 56.75 23 56.7 23 Z M 54 21.6 C 54 21.6 56.3 21.6 56.3 21.6 C 56.3 21.2 56.2 20.9 56 20.7 C 55.8 20.5 55.5 20.4 55.2 20.4 C 54.9 20.4 54.6 20.5 54.4 20.7 C 54.2 20.9 54 21.2 54 21.6 Z M 59.4 23 L 60.5 20 L 61.1 20 C 61.1 20 59.58 23.72 59.6 23.7 C 59.4 24.1 59.3 24.4 59.1 24.5 C 58.9 24.7 58.7 24.7 58.4 24.7 C 58.1 24.7 57.9 24.7 57.6 24.6 C 57.6 24.6 57.8 24.1 57.8 24.1 C 58 24.2 58.2 24.3 58.4 24.3 C 58.5 24.3 58.7 24.2 58.8 24.1 C 58.9 24 59 23.8 59.1 23.6 C 59.1 23.59 57.5 20 57.5 20 L 58.1 20 L 59.4 23 Z " stroke="none" fill="#000"/>  </g>  <g id="Polygon58209">    <path d="M 3 9.3 L 3 8.6 L 3.6 8.6 L 3.6 9.3 L 3 9.3 Z M 1.7 9.3 L 1.7 8.6 L 2.3 8.6 L 2.3 9.3 L 1.7 9.3 Z M 2.7 14.7 C 2 14.7 1.5 14.5 1.2 14.1 C 0.8 13.7 0.6 13.2 0.6 12.5 C 0.62 12.55 0.6 9.7 0.6 9.7 L 1.2 9.7 C 1.2 9.7 1.17 12.51 1.2 12.5 C 1.2 13 1.3 13.4 1.6 13.7 C 1.8 14 2.2 14.2 2.7 14.2 C 3.1 14.2 3.5 14 3.8 13.8 C 4 13.5 4.1 13.1 4.1 12.5 C 4.14 12.55 4.1 9.7 4.1 9.7 L 4.7 9.7 C 4.7 9.7 4.7 12.51 4.7 12.5 C 4.7 13.2 4.5 13.7 4.1 14.1 C 3.8 14.5 3.3 14.7 2.7 14.7 Z M 5.9 14.6 L 5.9 11 L 6.5 11 C 6.5 11 6.45 11.93 6.5 11.9 C 6.6 11.6 6.8 11.4 7 11.2 C 7.3 11 7.6 10.9 7.9 10.9 C 7.93 10.92 7.9 11.5 7.9 11.5 C 7.9 11.5 7.89 11.5 7.9 11.5 C 7.5 11.5 7.1 11.6 6.9 11.9 C 6.6 12.2 6.5 12.6 6.5 13.2 C 6.45 13.16 6.5 14.6 6.5 14.6 L 5.9 14.6 Z M 10.6 10.4 L 10.6 9.8 L 11.2 9.8 L 11.2 10.4 L 10.6 10.4 Z M 9.3 10.4 L 9.3 9.8 L 10 9.8 L 10 10.4 L 9.3 10.4 Z M 11.3 14 C 11 14.4 10.6 14.7 10.1 14.7 C 9.7 14.7 9.3 14.5 9.1 14.3 C 8.8 14 8.7 13.7 8.7 13.2 C 8.69 13.23 8.7 11 8.7 11 L 9.2 11 C 9.2 11 9.23 13.09 9.2 13.1 C 9.2 13.4 9.3 13.7 9.5 13.9 C 9.7 14.1 9.9 14.2 10.2 14.2 C 10.5 14.2 10.8 14.1 11 13.9 C 11.2 13.7 11.3 13.4 11.3 13.1 C 11.32 13.05 11.3 11 11.3 11 L 11.9 11 L 11.9 14.6 L 11.3 14.6 L 11.3 14 C 11.3 14 11.32 13.97 11.3 14 Z M 13.1 14.6 L 13.1 11 L 13.6 11 C 13.6 11 13.6 11.61 13.6 11.6 C 13.9 11.1 14.3 10.9 14.8 10.9 C 15.3 10.9 15.6 11 15.9 11.3 C 16.1 11.6 16.2 11.9 16.2 12.4 C 16.23 12.35 16.2 14.6 16.2 14.6 L 15.7 14.6 C 15.7 14.6 15.69 12.49 15.7 12.5 C 15.7 12.1 15.6 11.9 15.4 11.7 C 15.2 11.5 15 11.4 14.7 11.4 C 14.4 11.4 14.1 11.5 13.9 11.7 C 13.7 11.9 13.6 12.2 13.6 12.5 C 13.6 12.53 13.6 14.6 13.6 14.6 L 13.1 14.6 Z M 19.6 14.6 L 19.6 9.7 L 20.1 9.7 L 20.1 12.6 L 22.9 9.7 L 23.7 9.7 L 21.5 11.8 L 23.7 14.6 L 23 14.6 L 21.2 12.2 L 20.1 13.3 L 20.1 14.6 L 19.6 14.6 Z M 26.2 14.7 C 25.6 14.7 25.2 14.5 24.8 14.1 C 24.5 13.8 24.3 13.3 24.3 12.8 C 24.3 12.8 24.3 12.8 24.3 12.8 C 24.3 12.3 24.5 11.8 24.8 11.5 C 25.2 11.1 25.6 10.9 26.2 10.9 C 26.7 10.9 27.2 11.1 27.5 11.5 C 27.9 11.8 28.1 12.3 28.1 12.8 C 28.1 12.8 28.1 12.8 28.1 12.8 C 28.1 13.3 27.9 13.8 27.5 14.1 C 27.2 14.5 26.7 14.7 26.2 14.7 Z M 26.2 14.2 C 26.6 14.2 26.9 14.1 27.1 13.8 C 27.4 13.5 27.5 13.2 27.5 12.8 C 27.5 12.8 27.5 12.8 27.5 12.8 C 27.5 12.4 27.4 12.1 27.1 11.8 C 26.9 11.5 26.5 11.4 26.2 11.4 C 25.8 11.4 25.5 11.5 25.2 11.8 C 25 12.1 24.8 12.4 24.8 12.8 C 24.8 12.8 24.8 12.8 24.8 12.8 C 24.8 13.2 25 13.5 25.2 13.8 C 25.5 14.1 25.8 14.2 26.2 14.2 Z M 31.9 13.9 C 31.6 14.4 31.1 14.7 30.5 14.7 C 30.1 14.7 29.7 14.5 29.3 14.2 C 29 13.8 28.8 13.4 28.8 12.8 C 28.8 12.8 28.8 12.8 28.8 12.8 C 28.8 12.2 29 11.8 29.3 11.4 C 29.7 11.1 30.1 10.9 30.5 10.9 C 31.1 10.9 31.6 11.2 31.9 11.7 C 31.93 11.67 31.9 9.5 31.9 9.5 L 32.5 9.5 L 32.5 14.6 L 31.9 14.6 L 31.9 13.9 C 31.9 13.9 31.93 13.87 31.9 13.9 Z M 30.6 14.2 C 31 14.2 31.3 14.1 31.6 13.8 C 31.8 13.5 32 13.2 32 12.8 C 32 12.8 32 12.8 32 12.8 C 32 12.4 31.8 12 31.6 11.8 C 31.3 11.5 31 11.4 30.6 11.4 C 30.3 11.4 30 11.5 29.7 11.8 C 29.5 12 29.4 12.4 29.4 12.8 C 29.4 12.8 29.4 12.8 29.4 12.8 C 29.4 13.2 29.5 13.6 29.7 13.8 C 30 14.1 30.3 14.2 30.6 14.2 Z M 36.2 14 C 36 14.4 35.5 14.7 35 14.7 C 34.6 14.7 34.2 14.5 34 14.3 C 33.7 14 33.6 13.7 33.6 13.2 C 33.62 13.23 33.6 11 33.6 11 L 34.2 11 C 34.2 11 34.16 13.09 34.2 13.1 C 34.2 13.4 34.2 13.7 34.4 13.9 C 34.6 14.1 34.8 14.2 35.2 14.2 C 35.5 14.2 35.7 14.1 35.9 13.9 C 36.1 13.7 36.2 13.4 36.2 13.1 C 36.25 13.05 36.2 11 36.2 11 L 36.8 11 L 36.8 14.6 L 36.2 14.6 L 36.2 14 C 36.2 14 36.25 13.97 36.2 14 Z M 38 11.7 L 38 11 L 38.6 11 L 38.6 11.7 L 38 11.7 Z M 38 14.6 L 38 13.9 L 38.6 13.9 L 38.6 14.6 L 38 14.6 Z M 41.7 14.6 L 41.7 13.8 L 44.4 10.6 L 41.8 10.6 L 41.8 9.7 L 45.8 9.7 L 45.8 10.5 L 43.1 13.7 L 45.8 13.7 L 45.8 14.6 L 41.7 14.6 Z M 46.8 14.6 L 46.8 9.7 C 46.8 9.7 48.72 9.7 48.7 9.7 C 49.5 9.7 50.1 9.9 50.6 10.4 C 51.1 10.9 51.3 11.4 51.3 12.1 C 51.3 12.1 51.3 12.1 51.3 12.1 C 51.3 12.8 51.1 13.4 50.6 13.9 C 50.1 14.4 49.5 14.6 48.7 14.6 C 48.72 14.6 46.8 14.6 46.8 14.6 Z M 48.7 10.7 C 48.72 10.67 47.9 10.7 47.9 10.7 L 47.9 13.6 C 47.9 13.6 48.72 13.63 48.7 13.6 C 49.2 13.6 49.5 13.5 49.8 13.2 C 50.1 13 50.2 12.6 50.2 12.2 C 50.2 12.2 50.2 12.1 50.2 12.1 C 50.2 11.7 50.1 11.4 49.8 11.1 C 49.5 10.8 49.2 10.7 48.7 10.7 Z M 54.1 14.6 L 54.1 13.7 C 54.1 13.7 55.77 12.41 55.8 12.4 C 56.1 12.1 56.3 11.9 56.4 11.8 C 56.6 11.6 56.6 11.4 56.6 11.2 C 56.6 11 56.6 10.9 56.4 10.8 C 56.3 10.7 56.2 10.6 56 10.6 C 55.8 10.6 55.6 10.6 55.5 10.7 C 55.3 10.8 55.1 11 55 11.3 C 55 11.3 54.2 10.6 54.2 10.6 C 54.5 10.3 54.7 10 55 9.9 C 55.3 9.7 55.6 9.6 56 9.6 C 56.5 9.6 56.9 9.8 57.2 10 C 57.6 10.3 57.7 10.7 57.7 11.1 C 57.7 11.1 57.7 11.2 57.7 11.2 C 57.7 11.5 57.6 11.9 57.4 12.1 C 57.2 12.4 56.9 12.7 56.4 13.1 C 56.43 13.05 55.6 13.7 55.6 13.7 L 57.8 13.7 L 57.8 14.6 L 54.1 14.6 Z M 60.5 14.7 C 59.9 14.7 59.5 14.5 59.1 14.2 C 58.7 13.8 58.5 13.2 58.5 12.3 C 58.5 12.3 58.5 12.3 58.5 12.3 C 58.5 11.5 58.7 10.9 59.1 10.4 C 59.4 9.9 60 9.6 60.7 9.6 C 61.3 9.6 61.8 9.8 62.2 10.2 C 62.2 10.2 61.6 11 61.6 11 C 61.5 10.9 61.3 10.8 61.2 10.7 C 61 10.6 60.8 10.6 60.6 10.6 C 60.5 10.6 60.3 10.6 60.2 10.7 C 60.1 10.8 60 10.9 59.9 11 C 59.8 11.1 59.8 11.3 59.7 11.4 C 59.7 11.5 59.7 11.6 59.7 11.7 C 60 11.5 60.3 11.4 60.7 11.4 C 61.2 11.4 61.6 11.6 61.9 11.8 C 62.2 12.1 62.4 12.5 62.4 13 C 62.4 13 62.4 13 62.4 13 C 62.4 13.5 62.2 13.9 61.9 14.2 C 61.5 14.5 61.1 14.7 60.5 14.7 Z M 59.6 13 C 59.6 13.2 59.7 13.4 59.9 13.6 C 60 13.7 60.2 13.8 60.5 13.8 C 60.7 13.8 61 13.7 61.1 13.6 C 61.3 13.4 61.3 13.3 61.3 13 C 61.3 13 61.3 13 61.3 13 C 61.3 12.8 61.2 12.6 61.1 12.5 C 60.9 12.4 60.7 12.3 60.5 12.3 C 60.2 12.3 60 12.4 59.9 12.5 C 59.7 12.6 59.6 12.8 59.6 13 C 59.63 13.02 59.6 13 59.6 13 C 59.6 13 59.63 13.03 59.6 13 Z M 65.2 14.7 C 64.6 14.7 64.1 14.5 63.7 14.2 C 63.4 13.8 63.2 13.2 63.2 12.3 C 63.2 12.3 63.2 12.3 63.2 12.3 C 63.2 11.5 63.3 10.9 63.7 10.4 C 64.1 9.9 64.6 9.6 65.3 9.6 C 65.9 9.6 66.4 9.8 66.8 10.2 C 66.8 10.2 66.3 11 66.3 11 C 66.1 10.9 65.9 10.8 65.8 10.7 C 65.6 10.6 65.5 10.6 65.3 10.6 C 65.1 10.6 65 10.6 64.8 10.7 C 64.7 10.8 64.6 10.9 64.5 11 C 64.4 11.1 64.4 11.3 64.4 11.4 C 64.3 11.5 64.3 11.6 64.3 11.7 C 64.6 11.5 64.9 11.4 65.3 11.4 C 65.8 11.4 66.2 11.6 66.5 11.8 C 66.9 12.1 67 12.5 67 13 C 67 13 67 13 67 13 C 67 13.5 66.9 13.9 66.5 14.2 C 66.1 14.5 65.7 14.7 65.2 14.7 Z M 64.3 13 C 64.3 13.2 64.3 13.4 64.5 13.6 C 64.7 13.7 64.9 13.8 65.1 13.8 C 65.4 13.8 65.6 13.7 65.7 13.6 C 65.9 13.4 66 13.3 66 13 C 66 13 66 13 66 13 C 66 12.8 65.9 12.6 65.7 12.5 C 65.6 12.4 65.4 12.3 65.1 12.3 C 64.8 12.3 64.6 12.4 64.5 12.5 C 64.3 12.6 64.3 12.8 64.3 13 C 64.27 13.02 64.3 13 64.3 13 C 64.3 13 64.27 13.03 64.3 13 Z M 68 14.6 L 70.2 10.6 L 67.9 10.6 L 67.9 9.7 L 71.4 9.7 L 71.4 10.5 L 69.2 14.6 L 68 14.6 Z M 74.3 14.7 C 73.7 14.7 73.1 14.4 72.7 14 C 72.3 13.5 72.1 12.9 72.1 12.2 C 72.1 12.2 72.1 12.1 72.1 12.1 C 72.1 11.4 72.3 10.8 72.7 10.3 C 73.1 9.9 73.7 9.6 74.3 9.6 C 75 9.6 75.5 9.9 75.9 10.3 C 76.3 10.8 76.5 11.4 76.5 12.1 C 76.5 12.1 76.5 12.1 76.5 12.1 C 76.5 12.9 76.3 13.5 75.9 14 C 75.5 14.4 74.9 14.7 74.3 14.7 Z M 73.2 12.1 C 73.2 12.6 73.3 13 73.5 13.3 C 73.7 13.6 74 13.7 74.3 13.7 C 74.6 13.7 74.9 13.6 75.1 13.3 C 75.3 13 75.4 12.6 75.4 12.2 C 75.4 12.2 75.4 12.1 75.4 12.1 C 75.4 11.7 75.3 11.3 75.1 11 C 74.9 10.7 74.6 10.6 74.3 10.6 C 74 10.6 73.7 10.7 73.5 11 C 73.3 11.3 73.2 11.7 73.2 12.1 C 73.24 12.14 73.2 12.1 73.2 12.1 C 73.2 12.1 73.24 12.15 73.2 12.1 Z " stroke="none" fill="#000"/>  </g>  <g id="Polygon58208">    <path d="M 0.6 5.6 L 0.6 0.7 C 0.6 0.7 2.86 0.7 2.9 0.7 C 3.4 0.7 3.9 0.8 4.1 1.1 C 4.4 1.4 4.5 1.6 4.5 2 C 4.5 2 4.5 2 4.5 2 C 4.5 2.5 4.3 2.8 3.8 3 C 4.1 3.2 4.4 3.3 4.5 3.5 C 4.7 3.7 4.8 3.9 4.8 4.2 C 4.8 4.2 4.8 4.3 4.8 4.3 C 4.8 4.7 4.6 5 4.3 5.3 C 3.9 5.5 3.5 5.6 2.9 5.6 C 2.92 5.6 0.6 5.6 0.6 5.6 Z M 2.6 2.7 C 3.2 2.7 3.4 2.5 3.4 2.2 C 3.4 2.2 3.4 2.1 3.4 2.1 C 3.4 1.8 3.2 1.6 2.7 1.6 C 2.7 1.64 1.6 1.6 1.6 1.6 L 1.6 2.7 L 2.6 2.7 C 2.6 2.7 2.63 2.68 2.6 2.7 Z M 2.9 4.7 C 3.4 4.7 3.7 4.5 3.7 4.1 C 3.7 4.1 3.7 4.1 3.7 4.1 C 3.7 3.8 3.4 3.6 2.9 3.6 C 2.88 3.58 1.6 3.6 1.6 3.6 L 1.6 4.7 L 2.9 4.7 C 2.9 4.7 2.92 4.65 2.9 4.7 Z M 7.9 5.1 C 7.6 5.5 7.2 5.7 6.8 5.7 C 6.4 5.7 6.1 5.5 5.8 5.3 C 5.6 5.1 5.5 4.7 5.5 4.3 C 5.5 4.28 5.5 1.8 5.5 1.8 L 6.6 1.8 C 6.6 1.8 6.57 3.94 6.6 3.9 C 6.6 4.4 6.8 4.7 7.2 4.7 C 7.4 4.7 7.6 4.6 7.7 4.5 C 7.8 4.4 7.9 4.2 7.9 3.9 C 7.87 3.94 7.9 1.8 7.9 1.8 L 8.9 1.8 L 8.9 5.6 L 7.9 5.6 L 7.9 5.1 C 7.9 5.1 7.87 5.07 7.9 5.1 Z M 9.9 5.6 L 9.9 0.5 L 11 0.5 L 11 5.6 L 9.9 5.6 Z M 14.2 5.2 C 13.9 5.5 13.5 5.7 13.1 5.7 C 12.7 5.7 12.4 5.6 12.1 5.4 C 11.9 5.2 11.8 4.9 11.8 4.5 C 11.8 4.5 11.8 4.5 11.8 4.5 C 11.8 4.1 11.9 3.8 12.2 3.6 C 12.5 3.4 12.8 3.3 13.3 3.3 C 13.6 3.3 13.9 3.4 14.2 3.5 C 14.2 3.5 14.2 3.4 14.2 3.4 C 14.2 2.9 13.9 2.7 13.4 2.7 C 13.1 2.7 12.7 2.8 12.4 2.9 C 12.4 2.9 12.1 2.1 12.1 2.1 C 12.6 1.9 13.1 1.8 13.6 1.8 C 14.1 1.8 14.5 1.9 14.8 2.2 C 15.1 2.5 15.2 2.9 15.2 3.4 C 15.23 3.42 15.2 5.6 15.2 5.6 L 14.2 5.6 L 14.2 5.2 C 14.2 5.2 14.2 5.19 14.2 5.2 Z M 13.4 4.9 C 13.6 4.9 13.8 4.9 14 4.8 C 14.1 4.6 14.2 4.5 14.2 4.3 C 14.2 4.3 14.2 4.1 14.2 4.1 C 14 4 13.8 3.9 13.5 3.9 C 13.3 3.9 13.1 4 13 4.1 C 12.9 4.2 12.8 4.3 12.8 4.5 C 12.8 4.5 12.8 4.5 12.8 4.5 C 12.8 4.6 12.9 4.7 13 4.8 C 13.1 4.9 13.2 4.9 13.4 4.9 Z M 17.3 6.8 L 16.4 6.4 C 16.4 6.4 17 5.62 17 5.6 C 16.6 5.5 16.2 5.4 15.9 5.1 C 15.9 5.1 16.3 4.4 16.3 4.4 C 16.7 4.7 17.1 4.9 17.5 4.9 C 17.8 4.9 17.9 4.8 17.9 4.6 C 17.9 4.6 17.9 4.6 17.9 4.6 C 17.9 4.5 17.9 4.5 17.9 4.5 C 17.9 4.4 17.9 4.4 17.9 4.4 C 17.8 4.4 17.8 4.4 17.8 4.3 C 17.7 4.3 17.7 4.3 17.6 4.3 C 17.6 4.3 17.5 4.2 17.5 4.2 C 17.5 4.2 17.4 4.2 17.3 4.2 C 17.3 4.2 17.2 4.1 17.2 4.1 C 17 4.1 16.9 4 16.8 4 C 16.6 3.9 16.5 3.9 16.4 3.8 C 16.3 3.7 16.2 3.6 16.1 3.5 C 16.1 3.3 16 3.2 16 3 C 16 3 16 3 16 3 C 16 2.6 16.2 2.3 16.4 2.1 C 16.7 1.9 17 1.8 17.4 1.8 C 17.9 1.8 18.4 1.9 18.8 2.2 C 18.8 2.2 18.4 3 18.4 3 C 18 2.7 17.7 2.6 17.4 2.6 C 17.3 2.6 17.2 2.6 17.1 2.7 C 17 2.7 17 2.8 17 2.9 C 17 2.9 17 2.9 17 2.9 C 17 3 17.1 3 17.2 3.1 C 17.3 3.2 17.5 3.3 17.8 3.3 C 17.9 3.4 18.1 3.4 18.2 3.5 C 18.3 3.5 18.4 3.6 18.5 3.7 C 18.6 3.8 18.7 3.9 18.8 4 C 18.9 4.1 18.9 4.3 18.9 4.4 C 18.9 4.4 18.9 4.5 18.9 4.5 C 18.9 4.8 18.8 5.1 18.6 5.3 C 18.4 5.5 18.1 5.6 17.8 5.6 C 17.79 5.65 17.3 6.8 17.3 6.8 Z M 19.7 5.6 L 19.7 1.8 L 20.8 1.8 L 20.8 5.6 L 19.7 5.6 Z M 21.8 5.6 L 21.8 0.5 L 22.8 0.5 L 22.8 3.2 L 24.1 1.8 L 25.4 1.8 L 23.9 3.3 L 25.4 5.6 L 24.2 5.6 L 23.2 4.1 L 22.8 4.5 L 22.8 5.6 L 21.8 5.6 Z M 29.9 5.7 C 29.1 5.7 28.4 5.4 27.8 4.9 C 27.8 4.9 28.4 4.1 28.4 4.1 C 28.9 4.5 29.4 4.7 29.9 4.7 C 30.1 4.7 30.3 4.7 30.4 4.6 C 30.5 4.5 30.6 4.4 30.6 4.3 C 30.6 4.3 30.6 4.2 30.6 4.2 C 30.6 4.1 30.5 4 30.4 3.9 C 30.3 3.8 30 3.7 29.6 3.6 C 29.3 3.5 29.1 3.5 28.9 3.4 C 28.8 3.3 28.6 3.3 28.4 3.1 C 28.3 3 28.2 2.9 28.1 2.7 C 28 2.6 28 2.4 28 2.1 C 28 2.1 28 2.1 28 2.1 C 28 1.7 28.2 1.3 28.5 1 C 28.8 0.8 29.2 0.6 29.7 0.6 C 30.4 0.6 31 0.8 31.5 1.3 C 31.5 1.3 31 2.1 31 2.1 C 30.5 1.7 30.1 1.6 29.7 1.6 C 29.5 1.6 29.3 1.6 29.2 1.7 C 29.1 1.8 29.1 1.9 29.1 2 C 29.1 2 29.1 2 29.1 2 C 29.1 2.2 29.1 2.3 29.3 2.4 C 29.4 2.5 29.7 2.6 30.1 2.7 C 30.7 2.8 31 3 31.3 3.2 C 31.5 3.4 31.7 3.7 31.7 4.1 C 31.7 4.1 31.7 4.2 31.7 4.2 C 31.7 4.6 31.5 5 31.2 5.3 C 30.9 5.5 30.4 5.7 29.9 5.7 Z M 35.8 5 C 35.4 5.5 34.9 5.7 34.3 5.7 C 33.7 5.7 33.2 5.5 32.9 5.1 C 32.5 4.8 32.3 4.3 32.3 3.7 C 32.3 3.7 32.3 3.7 32.3 3.7 C 32.3 3.2 32.5 2.7 32.8 2.3 C 33.2 2 33.6 1.8 34.2 1.8 C 34.8 1.8 35.2 2 35.5 2.4 C 35.8 2.8 36 3.2 36 3.8 C 36 3.9 36 4 36 4.1 C 36 4.1 33.4 4.1 33.4 4.1 C 33.4 4.3 33.5 4.5 33.7 4.6 C 33.8 4.8 34 4.8 34.3 4.8 C 34.6 4.8 34.9 4.7 35.2 4.4 C 35.2 4.44 35.8 5 35.8 5 C 35.8 5 35.81 4.98 35.8 5 Z M 33.4 3.4 C 33.4 3.4 35 3.4 35 3.4 C 34.9 3.2 34.8 3 34.7 2.8 C 34.6 2.7 34.4 2.6 34.2 2.6 C 34 2.6 33.8 2.7 33.6 2.8 C 33.5 3 33.4 3.2 33.4 3.4 Z M 38.9 5.4 C 38.7 5.6 38.4 5.7 38.1 5.7 C 37.7 5.7 37.4 5.6 37.2 5.4 C 37.1 5.2 37 4.9 37 4.5 C 36.97 4.54 37 2.8 37 2.8 L 36.5 2.8 L 36.5 1.8 L 37 1.8 L 37 0.9 L 38 0.9 L 38 1.8 L 38.9 1.8 L 38.9 2.8 L 38 2.8 C 38 2.8 38.03 4.36 38 4.4 C 38 4.6 38.1 4.7 38.4 4.7 C 38.6 4.7 38.7 4.7 38.9 4.6 C 38.9 4.59 38.9 5.4 38.9 5.4 C 38.9 5.4 38.9 5.45 38.9 5.4 Z M 39.7 1.4 L 39.7 0.5 L 40.8 0.5 L 40.8 1.4 L 39.7 1.4 Z M 39.7 5.6 L 39.7 1.8 L 40.8 1.8 L 40.8 5.6 L 39.7 5.6 Z M 43.8 3.9 L 43.8 2.9 L 46.8 2.9 L 46.8 3.9 L 43.8 3.9 Z M 49.8 5.6 L 49.8 0.7 C 49.8 0.7 51.73 0.7 51.7 0.7 C 52.5 0.7 53.1 0.9 53.6 1.4 C 54.1 1.9 54.3 2.4 54.3 3.1 C 54.3 3.1 54.3 3.1 54.3 3.1 C 54.3 3.8 54.1 4.4 53.6 4.9 C 53.1 5.4 52.5 5.6 51.7 5.6 C 51.73 5.6 49.8 5.6 49.8 5.6 Z M 51.7 1.7 C 51.73 1.67 50.9 1.7 50.9 1.7 L 50.9 4.6 C 50.9 4.6 51.73 4.63 51.7 4.6 C 52.2 4.6 52.5 4.5 52.8 4.2 C 53.1 4 53.2 3.6 53.2 3.2 C 53.2 3.2 53.2 3.1 53.2 3.1 C 53.2 2.7 53.1 2.4 52.8 2.1 C 52.5 1.8 52.2 1.7 51.7 1.7 Z M 55.3 5.6 L 55.3 0.7 L 56.4 0.7 L 56.4 5.6 L 55.3 5.6 Z M 57.7 5.6 L 57.7 0.7 L 58.8 0.7 L 58.8 5.6 L 57.7 5.6 Z M 61.7 5.7 C 60.9 5.7 60.2 5.4 59.7 4.9 C 59.7 4.9 60.3 4.1 60.3 4.1 C 60.8 4.5 61.3 4.7 61.8 4.7 C 62 4.7 62.2 4.7 62.3 4.6 C 62.4 4.5 62.5 4.4 62.5 4.3 C 62.5 4.3 62.5 4.2 62.5 4.2 C 62.5 4.1 62.4 4 62.3 3.9 C 62.1 3.8 61.9 3.7 61.5 3.6 C 61.2 3.5 61 3.5 60.8 3.4 C 60.6 3.3 60.5 3.3 60.3 3.1 C 60.2 3 60 2.9 60 2.7 C 59.9 2.6 59.9 2.4 59.9 2.1 C 59.9 2.1 59.9 2.1 59.9 2.1 C 59.9 1.7 60 1.3 60.3 1 C 60.6 0.8 61.1 0.6 61.6 0.6 C 62.3 0.6 62.9 0.8 63.4 1.3 C 63.4 1.3 62.8 2.1 62.8 2.1 C 62.4 1.7 61.9 1.6 61.6 1.6 C 61.4 1.6 61.2 1.6 61.1 1.7 C 61 1.8 60.9 1.9 60.9 2 C 60.9 2 60.9 2 60.9 2 C 60.9 2.2 61 2.3 61.1 2.4 C 61.3 2.5 61.5 2.6 62 2.7 C 62.5 2.8 62.9 3 63.2 3.2 C 63.4 3.4 63.5 3.7 63.5 4.1 C 63.5 4.1 63.5 4.2 63.5 4.2 C 63.5 4.6 63.4 5 63 5.3 C 62.7 5.5 62.3 5.7 61.7 5.7 Z M 64.5 5.6 L 64.5 0.7 L 65.6 0.7 L 65.6 2.6 L 67.5 2.6 L 67.5 0.7 L 68.6 0.7 L 68.6 5.6 L 67.5 5.6 L 67.5 3.6 L 65.6 3.6 L 65.6 5.6 L 64.5 5.6 Z " stroke="none" fill="#000"/>  </g></svg>