<?xml version="1.0" standalone="no"?><!DOCTYPE svg PUBLIC "-//W3C//DTD SVG 1.1//EN" "http://www.w3.org/Graphics/SVG/1.1/DTD/svg11.dtd"><svg xmlns="http://www.w3.org/2000/svg" version="1.1" width="190px" height="85.7px" viewBox="0 -3 190 85.7" style="top:-3px">  <desc>Etkileyici sadelik FSC™ sertifikal kay n a ac ndan retilmi , sa lam bir kar t rma ka . Temiz izgiler; g nl k k...</desc>  <defs/>  <g id="Polygon41105">    <path d="M 4.5 57.8 C 4.1 58.2 3.5 58.4 2.7 58.4 C 2 58.4 1.3 58.2 0.7 57.8 C 0.7 57.8 1 57.3 1 57.3 C 1.5 57.6 2.1 57.8 2.7 57.8 C 3.2 57.8 3.6 57.7 3.9 57.4 C 4.2 57.2 4.4 56.8 4.4 56.2 C 4.4 56.2 4.4 55.7 4.4 55.7 C 3.9 56.3 3.3 56.7 2.6 56.7 C 2 56.7 1.5 56.5 1.1 56.1 C 0.7 55.7 0.5 55.2 0.5 54.6 C 0.5 54.6 0.5 54.5 0.5 54.5 C 0.5 53.9 0.7 53.4 1.1 53 C 1.5 52.6 2 52.4 2.6 52.4 C 3.3 52.4 3.9 52.7 4.4 53.3 C 4.36 53.32 4.4 52.5 4.4 52.5 L 5 52.5 C 5 52.5 5.03 56.22 5 56.2 C 5 56.9 4.8 57.4 4.5 57.8 C 4.5 57.8 4.5 57.8 4.5 57.8 Z M 2.7 56.1 C 3.2 56.1 3.6 55.9 3.9 55.6 C 4.2 55.3 4.4 55 4.4 54.5 C 4.4 54.5 4.4 54.5 4.4 54.5 C 4.4 54.1 4.2 53.7 3.9 53.4 C 3.6 53.1 3.2 53 2.7 53 C 2.3 53 1.9 53.1 1.6 53.4 C 1.3 53.7 1.2 54.1 1.2 54.5 C 1.2 54.5 1.2 54.5 1.2 54.5 C 1.2 55 1.3 55.3 1.6 55.6 C 1.9 55.9 2.3 56.1 2.7 56.1 Z M 8.8 51.8 L 8.8 51 L 9.6 51 L 9.6 51.8 L 8.8 51.8 Z M 7.3 51.8 L 7.3 51 L 8 51 L 8 51.8 L 7.3 51.8 Z M 9.7 56.2 C 9.3 56.8 8.8 57.1 8.2 57.1 C 7.6 57.1 7.2 56.9 6.9 56.6 C 6.6 56.3 6.5 55.8 6.5 55.3 C 6.45 55.3 6.5 52.5 6.5 52.5 L 7.1 52.5 C 7.1 52.5 7.12 55.13 7.1 55.1 C 7.1 55.6 7.2 55.9 7.4 56.1 C 7.7 56.4 8 56.5 8.4 56.5 C 8.8 56.5 9.1 56.4 9.3 56.1 C 9.6 55.8 9.7 55.5 9.7 55.1 C 9.71 55.08 9.7 52.5 9.7 52.5 L 10.4 52.5 L 10.4 57 L 9.7 57 L 9.7 56.2 C 9.7 56.2 9.71 56.22 9.7 56.2 Z M 11.9 57 L 11.9 52.5 L 12.5 52.5 C 12.5 52.5 12.55 53.29 12.5 53.3 C 12.9 52.7 13.4 52.4 14.1 52.4 C 14.6 52.4 15 52.6 15.3 52.9 C 15.7 53.2 15.8 53.7 15.8 54.2 C 15.81 54.21 15.8 57 15.8 57 L 15.1 57 C 15.1 57 15.14 54.38 15.1 54.4 C 15.1 54 15 53.6 14.8 53.4 C 14.6 53.1 14.3 53 13.9 53 C 13.5 53 13.2 53.2 12.9 53.4 C 12.7 53.7 12.5 54 12.5 54.4 C 12.55 54.43 12.5 57 12.5 57 L 11.9 57 Z M 17.3 57 L 17.3 50.7 L 18 50.7 L 18 57 L 17.3 57 Z M 21.8 51.8 L 21.8 51 L 22.6 51 L 22.6 51.8 L 21.8 51.8 Z M 20.3 51.8 L 20.3 51 L 21 51 L 21 51.8 L 20.3 51.8 Z M 22.7 56.2 C 22.3 56.8 21.8 57.1 21.2 57.1 C 20.6 57.1 20.2 56.9 19.9 56.6 C 19.6 56.3 19.5 55.8 19.5 55.3 C 19.45 55.3 19.5 52.5 19.5 52.5 L 20.1 52.5 C 20.1 52.5 20.12 55.13 20.1 55.1 C 20.1 55.6 20.2 55.9 20.4 56.1 C 20.7 56.4 21 56.5 21.4 56.5 C 21.8 56.5 22.1 56.4 22.3 56.1 C 22.6 55.8 22.7 55.5 22.7 55.1 C 22.71 55.08 22.7 52.5 22.7 52.5 L 23.4 52.5 L 23.4 57 L 22.7 57 L 22.7 56.2 C 22.7 56.2 22.71 56.22 22.7 56.2 Z M 24.9 57 L 24.9 50.7 L 25.5 50.7 L 25.5 55 L 28 52.5 L 28.8 52.5 L 26.9 54.4 L 28.9 57 L 28.1 57 L 26.5 54.9 L 25.5 55.8 L 25.5 57 L 24.9 57 Z M 32.4 57 L 32.4 50.7 L 33.1 50.7 L 33.1 55 L 35.5 52.5 L 36.4 52.5 L 34.5 54.4 L 36.4 57 L 35.6 57 L 34 54.9 L 33.1 55.8 L 33.1 57 L 32.4 57 Z M 40.6 56.2 C 40.2 56.8 39.7 57.1 39 57.1 C 38.5 57.1 38.1 56.9 37.8 56.6 C 37.5 56.3 37.3 55.8 37.3 55.3 C 37.31 55.3 37.3 52.5 37.3 52.5 L 38 52.5 C 38 52.5 37.98 55.13 38 55.1 C 38 55.6 38.1 55.9 38.3 56.1 C 38.5 56.4 38.8 56.5 39.2 56.5 C 39.6 56.5 39.9 56.4 40.2 56.1 C 40.4 55.8 40.6 55.5 40.6 55.1 C 40.57 55.08 40.6 52.5 40.6 52.5 L 41.2 52.5 L 41.2 57 L 40.6 57 L 40.6 56.2 C 40.6 56.2 40.57 56.22 40.6 56.2 Z M 42.8 57 L 42.8 50.7 L 43.5 50.7 L 43.5 57 L 42.8 57 Z M 45.1 57 L 45.1 50.7 L 45.8 50.7 L 45.8 57 L 45.1 57 Z M 50.3 56.3 C 49.9 56.8 49.3 57.1 48.7 57.1 C 48.2 57.1 47.8 57 47.5 56.7 C 47.1 56.5 47 56.1 47 55.7 C 47 55.7 47 55.7 47 55.7 C 47 55.2 47.1 54.9 47.5 54.6 C 47.8 54.4 48.3 54.2 48.9 54.2 C 49.4 54.2 49.8 54.3 50.3 54.4 C 50.3 54.4 50.3 54.3 50.3 54.3 C 50.3 53.9 50.2 53.6 49.9 53.4 C 49.7 53.1 49.4 53 48.9 53 C 48.5 53 48 53.1 47.6 53.4 C 47.6 53.4 47.4 52.8 47.4 52.8 C 47.9 52.6 48.4 52.4 49 52.4 C 49.6 52.4 50.1 52.6 50.5 52.9 C 50.8 53.3 50.9 53.7 50.9 54.3 C 50.92 54.26 50.9 57 50.9 57 L 50.3 57 L 50.3 56.3 C 50.3 56.3 50.28 56.33 50.3 56.3 Z M 48.8 56.6 C 49.2 56.6 49.6 56.5 49.9 56.2 C 50.1 56 50.3 55.7 50.3 55.4 C 50.3 55.4 50.3 54.9 50.3 54.9 C 49.8 54.8 49.4 54.7 49 54.7 C 48.5 54.7 48.2 54.8 48 55 C 47.8 55.1 47.7 55.4 47.7 55.7 C 47.7 55.7 47.7 55.7 47.7 55.7 C 47.7 55.9 47.8 56.2 48 56.3 C 48.2 56.5 48.5 56.6 48.8 56.6 Z M 52.3 57 L 52.3 52.5 L 53 52.5 C 53 52.5 53.02 53.29 53 53.3 C 53.4 52.7 53.9 52.4 54.6 52.4 C 55.1 52.4 55.5 52.6 55.8 52.9 C 56.1 53.2 56.3 53.7 56.3 54.2 C 56.28 54.21 56.3 57 56.3 57 L 55.6 57 C 55.6 57 55.61 54.38 55.6 54.4 C 55.6 54 55.5 53.6 55.3 53.4 C 55.1 53.1 54.8 53 54.4 53 C 54 53 53.7 53.2 53.4 53.4 C 53.1 53.7 53 54 53 54.4 C 53.02 54.43 53 57 53 57 L 52.3 57 Z M 57.8 57 L 57.8 52.5 L 58.4 52.5 L 58.4 57 L 57.8 57 Z M 60 57 L 60 52.5 L 60.7 52.5 C 60.7 52.5 60.66 53.26 60.7 53.3 C 60.8 53 61 52.8 61.3 52.6 C 61.5 52.5 61.8 52.4 62.1 52.4 C 62.8 52.4 63.3 52.7 63.6 53.3 C 64 52.7 64.5 52.4 65.1 52.4 C 65.7 52.4 66.1 52.6 66.4 52.9 C 66.7 53.2 66.8 53.7 66.8 54.2 C 66.81 54.22 66.8 57 66.8 57 L 66.1 57 C 66.1 57 66.14 54.38 66.1 54.4 C 66.1 53.9 66 53.6 65.8 53.4 C 65.6 53.1 65.3 53 65 53 C 64.6 53 64.3 53.1 64.1 53.4 C 63.8 53.6 63.7 54 63.7 54.4 C 63.73 54.41 63.7 57 63.7 57 L 63.1 57 C 63.1 57 63.07 54.36 63.1 54.4 C 63.1 53.9 63 53.6 62.8 53.4 C 62.6 53.1 62.3 53 61.9 53 C 61.6 53 61.3 53.2 61 53.4 C 60.8 53.7 60.7 54 60.7 54.4 C 60.66 54.44 60.7 57 60.7 57 L 60 57 Z M 71.8 56.1 C 71.4 56.8 70.8 57.1 70.1 57.1 C 69.5 57.1 69 56.9 68.6 56.5 C 68.2 56 68 55.5 68 54.8 C 68 54.8 68 54.8 68 54.8 C 68 54.1 68.2 53.5 68.6 53.1 C 69 52.6 69.5 52.4 70.1 52.4 C 70.8 52.4 71.4 52.7 71.8 53.4 C 71.84 53.37 71.8 50.7 71.8 50.7 L 72.5 50.7 L 72.5 57 L 71.8 57 L 71.8 56.1 C 71.8 56.1 71.84 56.1 71.8 56.1 Z M 70.2 56.5 C 70.7 56.5 71.1 56.3 71.4 56 C 71.7 55.7 71.9 55.3 71.9 54.8 C 71.9 54.8 71.9 54.7 71.9 54.7 C 71.9 54.2 71.7 53.8 71.4 53.5 C 71.1 53.2 70.7 53 70.2 53 C 69.8 53 69.4 53.2 69.1 53.5 C 68.8 53.8 68.7 54.2 68.7 54.7 C 68.7 54.7 68.7 54.8 68.7 54.8 C 68.7 55.3 68.8 55.7 69.1 56 C 69.4 56.3 69.8 56.5 70.2 56.5 Z M 77 56.3 C 76.6 56.8 76 57.1 75.3 57.1 C 74.9 57.1 74.5 57 74.2 56.7 C 73.8 56.5 73.7 56.1 73.7 55.7 C 73.7 55.7 73.7 55.7 73.7 55.7 C 73.7 55.2 73.8 54.9 74.2 54.6 C 74.5 54.4 75 54.2 75.6 54.2 C 76 54.2 76.5 54.3 77 54.4 C 77 54.4 77 54.3 77 54.3 C 77 53.9 76.9 53.6 76.6 53.4 C 76.4 53.1 76.1 53 75.6 53 C 75.2 53 74.7 53.1 74.3 53.4 C 74.3 53.4 74.1 52.8 74.1 52.8 C 74.6 52.6 75.1 52.4 75.7 52.4 C 76.3 52.4 76.8 52.6 77.2 52.9 C 77.5 53.3 77.6 53.7 77.6 54.3 C 77.61 54.26 77.6 57 77.6 57 L 77 57 L 77 56.3 C 77 56.3 76.97 56.33 77 56.3 Z M 75.5 56.6 C 75.9 56.6 76.3 56.5 76.5 56.2 C 76.8 56 77 55.7 77 55.4 C 77 55.4 77 54.9 77 54.9 C 76.5 54.8 76.1 54.7 75.7 54.7 C 75.2 54.7 74.9 54.8 74.7 55 C 74.5 55.1 74.3 55.4 74.3 55.7 C 74.3 55.7 74.3 55.7 74.3 55.7 C 74.3 55.9 74.5 56.2 74.7 56.3 C 74.9 56.5 75.2 56.6 75.5 56.6 Z M 83.2 58.4 L 82.6 58.1 C 82.6 58.1 83.26 57.06 83.3 57.1 C 82.7 57 82.3 56.7 81.9 56.3 C 81.5 55.8 81.4 55.3 81.4 54.8 C 81.4 54.8 81.4 54.8 81.4 54.8 C 81.4 54.1 81.6 53.6 82 53.1 C 82.5 52.6 83 52.4 83.7 52.4 C 84.4 52.4 85 52.7 85.5 53.2 C 85.5 53.2 85 53.7 85 53.7 C 84.6 53.2 84.1 53 83.7 53 C 83.2 53 82.8 53.2 82.5 53.5 C 82.2 53.8 82.1 54.3 82.1 54.7 C 82.1 54.7 82.1 54.8 82.1 54.8 C 82.1 55.2 82.2 55.7 82.5 56 C 82.8 56.3 83.2 56.5 83.7 56.5 C 84.2 56.5 84.7 56.3 85.1 55.8 C 85.1 55.8 85.5 56.2 85.5 56.2 C 85 56.8 84.5 57.1 83.8 57.1 C 83.81 57.1 83.2 58.4 83.2 58.4 Z M 88.7 57.1 C 88 57.1 87.4 56.9 87 56.4 C 86.6 56 86.3 55.4 86.3 54.8 C 86.3 54.8 86.3 54.8 86.3 54.8 C 86.3 54.1 86.6 53.6 87 53.1 C 87.5 52.6 88 52.4 88.7 52.4 C 89.4 52.4 89.9 52.6 90.4 53.1 C 90.8 53.6 91 54.1 91 54.7 C 91 54.7 91 54.8 91 54.8 C 91 55.4 90.8 56 90.3 56.4 C 89.9 56.9 89.3 57.1 88.7 57.1 Z M 88.7 56.5 C 89.2 56.5 89.6 56.3 89.9 56 C 90.2 55.7 90.3 55.3 90.3 54.8 C 90.3 54.8 90.3 54.8 90.3 54.8 C 90.3 54.3 90.2 53.9 89.9 53.5 C 89.5 53.2 89.1 53 88.7 53 C 88.2 53 87.8 53.2 87.5 53.5 C 87.2 53.9 87 54.3 87 54.7 C 87 54.7 87 54.8 87 54.8 C 87 55.2 87.2 55.7 87.5 56 C 87.8 56.3 88.2 56.5 88.7 56.5 Z M 92.2 57 L 92.2 50.7 L 92.9 50.7 L 92.9 55 L 95.3 52.5 L 96.2 52.5 L 94.3 54.4 L 96.2 57 L 95.4 57 L 93.8 54.9 L 92.9 55.8 L 92.9 57 L 92.2 57 Z M 102.8 56.3 C 102.4 56.8 101.8 57.1 101.1 57.1 C 100.7 57.1 100.3 57 99.9 56.7 C 99.6 56.5 99.4 56.1 99.4 55.7 C 99.4 55.7 99.4 55.7 99.4 55.7 C 99.4 55.2 99.6 54.9 100 54.6 C 100.3 54.4 100.8 54.2 101.4 54.2 C 101.8 54.2 102.3 54.3 102.8 54.4 C 102.8 54.4 102.8 54.3 102.8 54.3 C 102.8 53.9 102.6 53.6 102.4 53.4 C 102.2 53.1 101.8 53 101.4 53 C 101 53 100.5 53.1 100 53.4 C 100 53.4 99.8 52.8 99.8 52.8 C 100.4 52.6 100.9 52.4 101.5 52.4 C 102.1 52.4 102.6 52.6 102.9 52.9 C 103.2 53.3 103.4 53.7 103.4 54.3 C 103.4 54.26 103.4 57 103.4 57 L 102.8 57 L 102.8 56.3 C 102.8 56.3 102.75 56.33 102.8 56.3 Z M 101.3 56.6 C 101.7 56.6 102 56.5 102.3 56.2 C 102.6 56 102.8 55.7 102.8 55.4 C 102.8 55.4 102.8 54.9 102.8 54.9 C 102.3 54.8 101.9 54.7 101.4 54.7 C 101 54.7 100.7 54.8 100.5 55 C 100.2 55.1 100.1 55.4 100.1 55.7 C 100.1 55.7 100.1 55.7 100.1 55.7 C 100.1 55.9 100.2 56.2 100.5 56.3 C 100.7 56.5 100.9 56.6 101.3 56.6 Z M 104.8 57 L 104.8 52.5 L 105.5 52.5 C 105.5 52.5 105.49 53.26 105.5 53.3 C 105.7 53 105.9 52.8 106.1 52.6 C 106.3 52.5 106.6 52.4 106.9 52.4 C 107.6 52.4 108.1 52.7 108.4 53.3 C 108.8 52.7 109.3 52.4 110 52.4 C 110.5 52.4 110.9 52.6 111.2 52.9 C 111.5 53.2 111.6 53.7 111.6 54.2 C 111.64 54.22 111.6 57 111.6 57 L 111 57 C 111 57 110.97 54.38 111 54.4 C 111 53.9 110.9 53.6 110.7 53.4 C 110.5 53.1 110.2 53 109.8 53 C 109.5 53 109.2 53.1 108.9 53.4 C 108.7 53.6 108.6 54 108.6 54.4 C 108.56 54.41 108.6 57 108.6 57 L 107.9 57 C 107.9 57 107.9 54.36 107.9 54.4 C 107.9 53.9 107.8 53.6 107.6 53.4 C 107.4 53.1 107.1 53 106.7 53 C 106.4 53 106.1 53.2 105.8 53.4 C 105.6 53.7 105.5 54 105.5 54.4 C 105.49 54.44 105.5 57 105.5 57 L 104.8 57 Z M 116 56.3 C 115.6 56.8 115.1 57.1 114.4 57.1 C 114 57.1 113.6 57 113.2 56.7 C 112.9 56.5 112.7 56.1 112.7 55.7 C 112.7 55.7 112.7 55.7 112.7 55.7 C 112.7 55.2 112.9 54.9 113.3 54.6 C 113.6 54.4 114.1 54.2 114.6 54.2 C 115.1 54.2 115.6 54.3 116 54.4 C 116 54.4 116 54.3 116 54.3 C 116 53.9 115.9 53.6 115.7 53.4 C 115.5 53.1 115.1 53 114.7 53 C 114.2 53 113.8 53.1 113.3 53.4 C 113.3 53.4 113.1 52.8 113.1 52.8 C 113.7 52.6 114.2 52.4 114.8 52.4 C 115.4 52.4 115.9 52.6 116.2 52.9 C 116.5 53.3 116.7 53.7 116.7 54.3 C 116.67 54.26 116.7 57 116.7 57 L 116 57 L 116 56.3 C 116 56.3 116.03 56.33 116 56.3 Z M 114.5 56.6 C 115 56.6 115.3 56.5 115.6 56.2 C 115.9 56 116 55.7 116 55.4 C 116 55.4 116 54.9 116 54.9 C 115.6 54.8 115.1 54.7 114.7 54.7 C 114.3 54.7 114 54.8 113.7 55 C 113.5 55.1 113.4 55.4 113.4 55.7 C 113.4 55.7 113.4 55.7 113.4 55.7 C 113.4 55.9 113.5 56.2 113.7 56.3 C 114 56.5 114.2 56.6 114.5 56.6 Z M 119.7 58.4 L 119 58.1 C 119 58.1 119.71 57.06 119.7 57.1 C 119.2 57 118.7 56.7 118.4 56.3 C 118 55.8 117.8 55.3 117.8 54.8 C 117.8 54.8 117.8 54.8 117.8 54.8 C 117.8 54.1 118 53.6 118.5 53.1 C 118.9 52.6 119.5 52.4 120.1 52.4 C 120.8 52.4 121.4 52.7 121.9 53.2 C 121.9 53.2 121.5 53.7 121.5 53.7 C 121.1 53.2 120.6 53 120.1 53 C 119.7 53 119.3 53.2 119 53.5 C 118.7 53.8 118.5 54.3 118.5 54.7 C 118.5 54.7 118.5 54.8 118.5 54.8 C 118.5 55.2 118.7 55.7 119 56 C 119.3 56.3 119.7 56.5 120.2 56.5 C 120.7 56.5 121.1 56.3 121.5 55.8 C 121.5 55.8 122 56.2 122 56.2 C 121.5 56.8 120.9 57.1 120.3 57.1 C 120.26 57.1 119.7 58.4 119.7 58.4 Z M 123.1 57 L 123.1 50.7 L 123.8 50.7 L 123.8 57 L 123.1 57 Z M 125.4 57 L 125.4 52.5 L 126.1 52.5 L 126.1 57 L 125.4 57 Z M 127.6 57 L 127.6 56.1 L 128.4 56.1 L 128.4 57 L 127.6 57 Z " stroke="none" fill="#fff"/>  </g>  <g id="Polygon41104">    <path d="M 2.2 44.5 C 1.5 44.5 0.9 44.3 0.4 43.9 C 0.4 43.9 0.7 43.4 0.7 43.4 C 1.2 43.8 1.7 44 2.3 44 C 2.5 44 2.8 43.9 2.9 43.8 C 3.1 43.6 3.2 43.5 3.2 43.3 C 3.2 43.3 3.2 43.2 3.2 43.2 C 3.2 43 3.1 42.9 2.9 42.8 C 2.7 42.7 2.4 42.5 2.1 42.4 C 1.9 42.4 1.8 42.4 1.7 42.3 C 1.6 42.3 1.5 42.3 1.4 42.2 C 1.2 42.2 1.1 42.1 1.1 42 C 1 42 0.9 41.9 0.8 41.8 C 0.7 41.7 0.7 41.6 0.6 41.5 C 0.6 41.4 0.6 41.3 0.6 41.2 C 0.6 41.2 0.6 41.2 0.6 41.2 C 0.6 40.8 0.7 40.5 1 40.2 C 1.3 40 1.7 39.9 2.1 39.9 C 2.7 39.9 3.2 40 3.7 40.4 C 3.7 40.4 3.4 40.9 3.4 40.9 C 3 40.6 2.5 40.4 2.1 40.4 C 1.8 40.4 1.6 40.5 1.5 40.6 C 1.3 40.7 1.2 40.9 1.2 41.1 C 1.2 41.1 1.2 41.1 1.2 41.1 C 1.2 41.2 1.3 41.3 1.3 41.3 C 1.4 41.4 1.4 41.5 1.5 41.5 C 1.5 41.6 1.6 41.6 1.7 41.7 C 1.9 41.7 2 41.7 2 41.8 C 2.1 41.8 2.2 41.8 2.4 41.9 C 2.6 41.9 2.7 42 2.8 42 C 2.9 42.1 3.1 42.1 3.2 42.2 C 3.3 42.3 3.5 42.3 3.5 42.4 C 3.6 42.5 3.7 42.6 3.7 42.7 C 3.8 42.9 3.8 43 3.8 43.2 C 3.8 43.2 3.8 43.2 3.8 43.2 C 3.8 43.6 3.7 43.9 3.4 44.2 C 3.1 44.4 2.7 44.5 2.2 44.5 Z M 8 43.8 C 7.6 44.3 7.1 44.5 6.4 44.5 C 6 44.5 5.6 44.4 5.2 44.2 C 4.9 43.9 4.7 43.6 4.7 43.1 C 4.7 43.1 4.7 43.1 4.7 43.1 C 4.7 42.7 4.9 42.3 5.3 42.1 C 5.6 41.8 6.1 41.7 6.7 41.7 C 7.1 41.7 7.6 41.7 8 41.9 C 8 41.9 8 41.7 8 41.7 C 8 41.3 7.9 41 7.7 40.8 C 7.5 40.6 7.1 40.5 6.7 40.5 C 6.3 40.5 5.8 40.6 5.3 40.8 C 5.3 40.8 5.1 40.3 5.1 40.3 C 5.7 40 6.2 39.9 6.8 39.9 C 7.4 39.9 7.9 40.1 8.2 40.4 C 8.5 40.7 8.7 41.1 8.7 41.7 C 8.69 41.7 8.7 44.4 8.7 44.4 L 8 44.4 L 8 43.8 C 8 43.8 8.04 43.77 8 43.8 Z M 6.5 44 C 7 44 7.3 43.9 7.6 43.7 C 7.9 43.4 8.1 43.1 8.1 42.8 C 8.1 42.8 8.1 42.4 8.1 42.4 C 7.6 42.2 7.2 42.2 6.7 42.2 C 6.3 42.2 6 42.2 5.8 42.4 C 5.5 42.6 5.4 42.8 5.4 43.1 C 5.4 43.1 5.4 43.1 5.4 43.1 C 5.4 43.4 5.5 43.6 5.7 43.8 C 6 43.9 6.2 44 6.5 44 Z M 13.8 45.3 C 13.4 45.7 12.8 45.9 12.1 45.9 C 11.3 45.9 10.7 45.6 10.1 45.2 C 10.1 45.2 10.4 44.7 10.4 44.7 C 10.9 45.1 11.5 45.3 12.1 45.3 C 12.6 45.3 13 45.1 13.3 44.9 C 13.6 44.6 13.7 44.2 13.7 43.7 C 13.7 43.7 13.7 43.1 13.7 43.1 C 13.3 43.8 12.7 44.1 12 44.1 C 11.4 44.1 10.9 43.9 10.5 43.5 C 10.1 43.1 9.9 42.6 9.9 42 C 9.9 42 9.9 42 9.9 42 C 9.9 41.3 10.1 40.8 10.5 40.4 C 10.9 40 11.4 39.9 12 39.9 C 12.7 39.9 13.3 40.2 13.7 40.8 C 13.72 40.76 13.7 39.9 13.7 39.9 L 14.4 39.9 C 14.4 39.9 14.39 43.66 14.4 43.7 C 14.4 44.3 14.2 44.9 13.8 45.3 C 13.8 45.3 13.8 45.3 13.8 45.3 Z M 12.1 43.5 C 12.5 43.5 12.9 43.4 13.3 43.1 C 13.6 42.8 13.7 42.4 13.7 42 C 13.7 42 13.7 42 13.7 42 C 13.7 41.5 13.6 41.2 13.3 40.9 C 12.9 40.6 12.5 40.4 12.1 40.4 C 11.7 40.4 11.3 40.6 11 40.9 C 10.7 41.1 10.5 41.5 10.5 42 C 10.5 42 10.5 42 10.5 42 C 10.5 42.4 10.7 42.8 11 43.1 C 11.3 43.4 11.7 43.5 12.1 43.5 Z M 13.6 38.2 C 13.5 38.5 13.4 38.8 13.2 39 C 12.9 39.2 12.6 39.3 12.3 39.3 C 11.9 39.3 11.6 39.2 11.4 39 C 11.1 38.8 11 38.5 11 38.2 C 11 38.2 11.5 38.2 11.5 38.2 C 11.6 38.6 11.9 38.7 12.3 38.7 C 12.7 38.7 13 38.6 13.1 38.2 C 13.08 38.2 13.6 38.2 13.6 38.2 C 13.6 38.2 13.56 38.2 13.6 38.2 Z M 15.9 44.4 L 15.9 38.1 L 16.6 38.1 L 16.6 44.4 L 15.9 44.4 Z M 21.1 43.8 C 20.7 44.3 20.2 44.5 19.5 44.5 C 19.1 44.5 18.7 44.4 18.3 44.2 C 18 43.9 17.8 43.6 17.8 43.1 C 17.8 43.1 17.8 43.1 17.8 43.1 C 17.8 42.7 18 42.3 18.4 42.1 C 18.7 41.8 19.2 41.7 19.8 41.7 C 20.2 41.7 20.7 41.7 21.1 41.9 C 21.1 41.9 21.1 41.7 21.1 41.7 C 21.1 41.3 21 41 20.8 40.8 C 20.6 40.6 20.2 40.5 19.8 40.5 C 19.3 40.5 18.9 40.6 18.4 40.8 C 18.4 40.8 18.2 40.3 18.2 40.3 C 18.8 40 19.3 39.9 19.9 39.9 C 20.5 39.9 21 40.1 21.3 40.4 C 21.6 40.7 21.8 41.1 21.8 41.7 C 21.78 41.7 21.8 44.4 21.8 44.4 L 21.1 44.4 L 21.1 43.8 C 21.1 43.8 21.14 43.77 21.1 43.8 Z M 19.6 44 C 20.1 44 20.4 43.9 20.7 43.7 C 21 43.4 21.1 43.1 21.1 42.8 C 21.1 42.8 21.1 42.4 21.1 42.4 C 20.7 42.2 20.3 42.2 19.8 42.2 C 19.4 42.2 19.1 42.2 18.9 42.4 C 18.6 42.6 18.5 42.8 18.5 43.1 C 18.5 43.1 18.5 43.1 18.5 43.1 C 18.5 43.4 18.6 43.6 18.8 43.8 C 19.1 43.9 19.3 44 19.6 44 Z M 23.2 44.4 L 23.2 39.9 L 23.9 39.9 C 23.9 39.9 23.88 40.7 23.9 40.7 C 24.1 40.4 24.3 40.2 24.5 40.1 C 24.7 39.9 25 39.9 25.3 39.9 C 26 39.9 26.5 40.2 26.8 40.7 C 27.2 40.2 27.7 39.9 28.4 39.9 C 28.9 39.9 29.3 40 29.6 40.3 C 29.9 40.7 30 41.1 30 41.7 C 30.03 41.66 30 44.4 30 44.4 L 29.4 44.4 C 29.4 44.4 29.36 41.82 29.4 41.8 C 29.4 41.4 29.3 41 29 40.8 C 28.8 40.6 28.6 40.5 28.2 40.5 C 27.8 40.5 27.5 40.6 27.3 40.8 C 27.1 41.1 26.9 41.4 26.9 41.9 C 26.95 41.85 26.9 44.4 26.9 44.4 L 26.3 44.4 C 26.3 44.4 26.29 41.8 26.3 41.8 C 26.3 41.4 26.2 41 26 40.8 C 25.8 40.6 25.5 40.5 25.1 40.5 C 24.8 40.5 24.5 40.6 24.2 40.9 C 24 41.1 23.9 41.5 23.9 41.9 C 23.88 41.88 23.9 44.4 23.9 44.4 L 23.2 44.4 Z M 36.5 44.5 C 35.7 44.5 35.2 44.2 34.7 43.6 C 34.73 43.58 34.7 44.4 34.7 44.4 L 34.1 44.4 L 34.1 38.1 L 34.7 38.1 C 34.7 38.1 34.73 40.85 34.7 40.9 C 35.2 40.2 35.8 39.9 36.5 39.9 C 37 39.9 37.5 40.1 38 40.5 C 38.4 40.9 38.6 41.5 38.6 42.2 C 38.6 42.2 38.6 42.2 38.6 42.2 C 38.6 42.9 38.4 43.5 38 43.9 C 37.5 44.3 37 44.5 36.5 44.5 Z M 36.3 43.9 C 36.8 43.9 37.2 43.8 37.5 43.5 C 37.8 43.2 37.9 42.7 37.9 42.2 C 37.9 42.2 37.9 42.2 37.9 42.2 C 37.9 41.7 37.8 41.2 37.5 40.9 C 37.2 40.6 36.8 40.5 36.3 40.5 C 35.9 40.5 35.5 40.6 35.2 40.9 C 34.9 41.3 34.7 41.7 34.7 42.2 C 34.7 42.2 34.7 42.2 34.7 42.2 C 34.7 42.7 34.9 43.1 35.2 43.4 C 35.5 43.8 35.9 43.9 36.3 43.9 Z M 39.9 39 L 39.9 38.2 L 40.6 38.2 L 40.6 39 L 39.9 39 Z M 39.9 44.4 L 39.9 39.9 L 40.6 39.9 L 40.6 44.4 L 39.9 44.4 Z M 42.1 44.4 L 42.1 39.9 L 42.8 39.9 C 42.8 39.9 42.79 41.12 42.8 41.1 C 43 40.7 43.2 40.4 43.5 40.2 C 43.8 40 44.2 39.9 44.6 39.9 C 44.62 39.87 44.6 40.6 44.6 40.6 C 44.6 40.6 44.57 40.59 44.6 40.6 C 44.1 40.6 43.6 40.8 43.3 41.1 C 43 41.5 42.8 42 42.8 42.7 C 42.79 42.65 42.8 44.4 42.8 44.4 L 42.1 44.4 Z M 48.3 44.4 L 48.3 38.1 L 48.9 38.1 L 48.9 42.5 L 51.3 39.9 L 52.2 39.9 L 50.3 41.9 L 52.2 44.4 L 51.4 44.4 L 49.8 42.3 L 48.9 43.3 L 48.9 44.4 L 48.3 44.4 Z M 56.2 43.8 C 55.8 44.3 55.2 44.5 54.5 44.5 C 54.1 44.5 53.7 44.4 53.4 44.2 C 53 43.9 52.9 43.6 52.9 43.1 C 52.9 43.1 52.9 43.1 52.9 43.1 C 52.9 42.7 53 42.3 53.4 42.1 C 53.7 41.8 54.2 41.7 54.8 41.7 C 55.2 41.7 55.7 41.7 56.2 41.9 C 56.2 41.9 56.2 41.7 56.2 41.7 C 56.2 41.3 56 41 55.8 40.8 C 55.6 40.6 55.3 40.5 54.8 40.5 C 54.4 40.5 53.9 40.6 53.5 40.8 C 53.5 40.8 53.3 40.3 53.3 40.3 C 53.8 40 54.3 39.9 54.9 39.9 C 55.5 39.9 56 40.1 56.3 40.4 C 56.7 40.7 56.8 41.1 56.8 41.7 C 56.81 41.7 56.8 44.4 56.8 44.4 L 56.2 44.4 L 56.2 43.8 C 56.2 43.8 56.16 43.77 56.2 43.8 Z M 54.7 44 C 55.1 44 55.4 43.9 55.7 43.7 C 56 43.4 56.2 43.1 56.2 42.8 C 56.2 42.8 56.2 42.4 56.2 42.4 C 55.7 42.2 55.3 42.2 54.9 42.2 C 54.4 42.2 54.1 42.2 53.9 42.4 C 53.7 42.6 53.5 42.8 53.5 43.1 C 53.5 43.1 53.5 43.1 53.5 43.1 C 53.5 43.4 53.6 43.6 53.9 43.8 C 54.1 43.9 54.4 44 54.7 44 Z M 58.2 44.4 L 58.2 39.9 L 58.9 39.9 C 58.9 39.9 58.9 41.12 58.9 41.1 C 59.1 40.7 59.3 40.4 59.6 40.2 C 60 40 60.3 39.9 60.7 39.9 C 60.74 39.87 60.7 40.6 60.7 40.6 C 60.7 40.6 60.68 40.59 60.7 40.6 C 60.2 40.6 59.7 40.8 59.4 41.1 C 59.1 41.5 58.9 42 58.9 42.7 C 58.9 42.65 58.9 44.4 58.9 44.4 L 58.2 44.4 Z M 61.8 44.4 L 61.8 39.9 L 62.5 39.9 L 62.5 44.4 L 61.8 44.4 Z M 65.1 45.8 L 64.5 45.5 C 64.5 45.5 65.15 44.5 65.1 44.5 C 64.6 44.4 64.1 44.2 63.7 43.9 C 63.7 43.9 64 43.4 64 43.4 C 64.5 43.8 65 44 65.6 44 C 65.8 44 66.1 43.9 66.2 43.8 C 66.4 43.6 66.5 43.5 66.5 43.3 C 66.5 43.3 66.5 43.2 66.5 43.2 C 66.5 43 66.4 42.9 66.2 42.8 C 66 42.7 65.7 42.5 65.4 42.4 C 65.2 42.4 65.1 42.4 65 42.3 C 64.9 42.3 64.8 42.3 64.7 42.2 C 64.5 42.2 64.4 42.1 64.4 42 C 64.3 42 64.2 41.9 64.1 41.8 C 64 41.7 64 41.6 63.9 41.5 C 63.9 41.4 63.9 41.3 63.9 41.2 C 63.9 41.2 63.9 41.2 63.9 41.2 C 63.9 40.8 64 40.5 64.3 40.2 C 64.6 40 65 39.9 65.4 39.9 C 66 39.9 66.5 40 67 40.4 C 67 40.4 66.7 40.9 66.7 40.9 C 66.3 40.6 65.8 40.4 65.4 40.4 C 65.1 40.4 64.9 40.5 64.8 40.6 C 64.6 40.7 64.5 40.9 64.5 41.1 C 64.5 41.1 64.5 41.1 64.5 41.1 C 64.5 41.2 64.6 41.3 64.6 41.3 C 64.6 41.4 64.7 41.5 64.8 41.5 C 64.8 41.6 64.9 41.6 65 41.7 C 65.2 41.7 65.3 41.7 65.3 41.8 C 65.4 41.8 65.5 41.8 65.7 41.9 C 65.9 41.9 66 42 66.1 42 C 66.2 42.1 66.3 42.1 66.5 42.2 C 66.6 42.3 66.7 42.3 66.8 42.4 C 66.9 42.5 67 42.6 67 42.7 C 67.1 42.9 67.1 43 67.1 43.2 C 67.1 43.2 67.1 43.2 67.1 43.2 C 67.1 43.6 67 43.9 66.7 44.1 C 66.5 44.4 66.1 44.5 65.7 44.5 C 65.7 44.52 65.1 45.8 65.1 45.8 Z M 70.7 44.3 C 70.5 44.5 70.2 44.5 69.9 44.5 C 69.5 44.5 69.2 44.4 68.9 44.2 C 68.7 44 68.6 43.7 68.6 43.3 C 68.61 43.25 68.6 40.5 68.6 40.5 L 68 40.5 L 68 39.9 L 68.6 39.9 L 68.6 38.6 L 69.3 38.6 L 69.3 39.9 L 70.7 39.9 L 70.7 40.5 L 69.3 40.5 C 69.3 40.5 69.28 43.17 69.3 43.2 C 69.3 43.7 69.5 43.9 70 43.9 C 70.3 43.9 70.5 43.9 70.7 43.8 C 70.68 43.76 70.7 44.3 70.7 44.3 C 70.7 44.3 70.68 44.33 70.7 44.3 Z M 71.9 44.4 L 71.9 39.9 L 72.6 39.9 L 72.6 44.4 L 71.9 44.4 Z M 74.2 44.4 L 74.2 39.9 L 74.8 39.9 C 74.8 39.9 74.84 41.12 74.8 41.1 C 75 40.7 75.3 40.4 75.6 40.2 C 75.9 40 76.3 39.9 76.7 39.9 C 76.68 39.87 76.7 40.6 76.7 40.6 C 76.7 40.6 76.62 40.59 76.6 40.6 C 76.1 40.6 75.7 40.8 75.3 41.1 C 75 41.5 74.8 42 74.8 42.7 C 74.84 42.65 74.8 44.4 74.8 44.4 L 74.2 44.4 Z M 77.7 44.4 L 77.7 39.9 L 78.4 39.9 C 78.4 39.9 78.36 40.7 78.4 40.7 C 78.5 40.4 78.7 40.2 79 40.1 C 79.2 39.9 79.5 39.9 79.8 39.9 C 80.5 39.9 81 40.2 81.3 40.7 C 81.7 40.2 82.2 39.9 82.8 39.9 C 83.4 39.9 83.8 40 84.1 40.3 C 84.4 40.7 84.5 41.1 84.5 41.7 C 84.51 41.66 84.5 44.4 84.5 44.4 L 83.8 44.4 C 83.8 44.4 83.84 41.82 83.8 41.8 C 83.8 41.4 83.7 41 83.5 40.8 C 83.3 40.6 83 40.5 82.7 40.5 C 82.3 40.5 82 40.6 81.8 40.8 C 81.6 41.1 81.4 41.4 81.4 41.9 C 81.43 41.85 81.4 44.4 81.4 44.4 L 80.8 44.4 C 80.8 44.4 80.77 41.8 80.8 41.8 C 80.8 41.4 80.7 41 80.5 40.8 C 80.3 40.6 80 40.5 79.6 40.5 C 79.3 40.5 79 40.6 78.7 40.9 C 78.5 41.1 78.4 41.5 78.4 41.9 C 78.36 41.88 78.4 44.4 78.4 44.4 L 77.7 44.4 Z M 88.9 43.8 C 88.5 44.3 88 44.5 87.3 44.5 C 86.8 44.5 86.4 44.4 86.1 44.2 C 85.8 43.9 85.6 43.6 85.6 43.1 C 85.6 43.1 85.6 43.1 85.6 43.1 C 85.6 42.7 85.8 42.3 86.1 42.1 C 86.5 41.8 86.9 41.7 87.5 41.7 C 88 41.7 88.4 41.7 88.9 41.9 C 88.9 41.9 88.9 41.7 88.9 41.7 C 88.9 41.3 88.8 41 88.6 40.8 C 88.3 40.6 88 40.5 87.6 40.5 C 87.1 40.5 86.7 40.6 86.2 40.8 C 86.2 40.8 86 40.3 86 40.3 C 86.5 40 87.1 39.9 87.6 39.9 C 88.3 39.9 88.8 40.1 89.1 40.4 C 89.4 40.7 89.5 41.1 89.5 41.7 C 89.54 41.7 89.5 44.4 89.5 44.4 L 88.9 44.4 L 88.9 43.8 C 88.9 43.8 88.9 43.77 88.9 43.8 Z M 87.4 44 C 87.8 44 88.2 43.9 88.5 43.7 C 88.8 43.4 88.9 43.1 88.9 42.8 C 88.9 42.8 88.9 42.4 88.9 42.4 C 88.5 42.2 88 42.2 87.6 42.2 C 87.2 42.2 86.8 42.2 86.6 42.4 C 86.4 42.6 86.3 42.8 86.3 43.1 C 86.3 43.1 86.3 43.1 86.3 43.1 C 86.3 43.4 86.4 43.6 86.6 43.8 C 86.8 43.9 87.1 44 87.4 44 Z M 93.6 44.4 L 93.6 38.1 L 94.2 38.1 L 94.2 42.5 L 96.7 39.9 L 97.5 39.9 L 95.6 41.9 L 97.6 44.4 L 96.8 44.4 L 95.2 42.3 L 94.2 43.3 L 94.2 44.4 L 93.6 44.4 Z M 101.5 43.8 C 101.1 44.3 100.6 44.5 99.9 44.5 C 99.4 44.5 99 44.4 98.7 44.2 C 98.4 43.9 98.2 43.6 98.2 43.1 C 98.2 43.1 98.2 43.1 98.2 43.1 C 98.2 42.7 98.4 42.3 98.7 42.1 C 99.1 41.8 99.5 41.7 100.1 41.7 C 100.6 41.7 101 41.7 101.5 41.9 C 101.5 41.9 101.5 41.7 101.5 41.7 C 101.5 41.3 101.4 41 101.1 40.8 C 100.9 40.6 100.6 40.5 100.2 40.5 C 99.7 40.5 99.2 40.6 98.8 40.8 C 98.8 40.8 98.6 40.3 98.6 40.3 C 99.1 40 99.7 39.9 100.2 39.9 C 100.9 39.9 101.3 40.1 101.7 40.4 C 102 40.7 102.1 41.1 102.1 41.7 C 102.14 41.7 102.1 44.4 102.1 44.4 L 101.5 44.4 L 101.5 43.8 C 101.5 43.8 101.49 43.77 101.5 43.8 Z M 100 44 C 100.4 44 100.8 43.9 101.1 43.7 C 101.4 43.4 101.5 43.1 101.5 42.8 C 101.5 42.8 101.5 42.4 101.5 42.4 C 101 42.2 100.6 42.2 100.2 42.2 C 99.8 42.2 99.4 42.2 99.2 42.4 C 99 42.6 98.9 42.8 98.9 43.1 C 98.9 43.1 98.9 43.1 98.9 43.1 C 98.9 43.4 99 43.6 99.2 43.8 C 99.4 43.9 99.7 44 100 44 Z M 104.6 45.8 L 104 45.5 C 104 45.5 104.67 44.5 104.7 44.5 C 104.1 44.4 103.6 44.2 103.2 43.9 C 103.2 43.9 103.5 43.4 103.5 43.4 C 104 43.8 104.5 44 105.1 44 C 105.4 44 105.6 43.9 105.8 43.8 C 105.9 43.6 106 43.5 106 43.3 C 106 43.3 106 43.2 106 43.2 C 106 43 105.9 42.9 105.7 42.8 C 105.5 42.7 105.3 42.5 104.9 42.4 C 104.7 42.4 104.6 42.4 104.5 42.3 C 104.5 42.3 104.3 42.3 104.2 42.2 C 104.1 42.2 104 42.1 103.9 42 C 103.8 42 103.7 41.9 103.6 41.8 C 103.6 41.7 103.5 41.6 103.5 41.5 C 103.4 41.4 103.4 41.3 103.4 41.2 C 103.4 41.2 103.4 41.2 103.4 41.2 C 103.4 40.8 103.5 40.5 103.8 40.2 C 104.1 40 104.5 39.9 104.9 39.9 C 105.5 39.9 106.1 40 106.6 40.4 C 106.6 40.4 106.2 40.9 106.2 40.9 C 105.8 40.6 105.4 40.4 104.9 40.4 C 104.7 40.4 104.4 40.5 104.3 40.6 C 104.1 40.7 104 40.9 104 41.1 C 104 41.1 104 41.1 104 41.1 C 104 41.2 104.1 41.3 104.1 41.3 C 104.2 41.4 104.2 41.5 104.3 41.5 C 104.3 41.6 104.4 41.6 104.5 41.7 C 104.7 41.7 104.8 41.7 104.8 41.8 C 104.9 41.8 105 41.8 105.2 41.9 C 105.4 41.9 105.5 42 105.6 42 C 105.7 42.1 105.9 42.1 106 42.2 C 106.2 42.3 106.3 42.3 106.3 42.4 C 106.4 42.5 106.5 42.6 106.6 42.7 C 106.6 42.9 106.6 43 106.6 43.2 C 106.6 43.2 106.6 43.2 106.6 43.2 C 106.6 43.6 106.5 43.9 106.3 44.1 C 106 44.4 105.6 44.5 105.2 44.5 C 105.22 44.52 104.6 45.8 104.6 45.8 Z M 108 44.4 L 108 39.9 L 108.6 39.9 L 108.6 44.4 L 108 44.4 Z M 113.9 45.3 C 113.5 45.7 112.9 45.9 112.2 45.9 C 111.4 45.9 110.7 45.6 110.1 45.2 C 110.1 45.2 110.4 44.7 110.4 44.7 C 111 45.1 111.5 45.3 112.2 45.3 C 112.7 45.3 113.1 45.1 113.4 44.9 C 113.7 44.6 113.8 44.2 113.8 43.7 C 113.8 43.7 113.8 43.1 113.8 43.1 C 113.3 43.8 112.7 44.1 112 44.1 C 111.5 44.1 111 43.9 110.6 43.5 C 110.1 43.1 109.9 42.6 109.9 42 C 109.9 42 109.9 42 109.9 42 C 109.9 41.3 110.1 40.8 110.5 40.4 C 111 40 111.5 39.9 112 39.9 C 112.7 39.9 113.3 40.2 113.8 40.8 C 113.79 40.76 113.8 39.9 113.8 39.9 L 114.5 39.9 C 114.5 39.9 114.46 43.66 114.5 43.7 C 114.5 44.3 114.3 44.9 113.9 45.3 C 113.9 45.3 113.9 45.3 113.9 45.3 Z M 112.2 43.5 C 112.6 43.5 113 43.4 113.3 43.1 C 113.6 42.8 113.8 42.4 113.8 42 C 113.8 42 113.8 42 113.8 42 C 113.8 41.5 113.6 41.2 113.3 40.9 C 113 40.6 112.6 40.4 112.2 40.4 C 111.7 40.4 111.4 40.6 111.1 40.9 C 110.8 41.1 110.6 41.5 110.6 42 C 110.6 42 110.6 42 110.6 42 C 110.6 42.4 110.8 42.8 111.1 43.1 C 111.4 43.4 111.7 43.5 112.2 43.5 Z M 113.6 38.2 C 113.6 38.5 113.5 38.8 113.2 39 C 113 39.2 112.7 39.3 112.3 39.3 C 112 39.3 111.7 39.2 111.4 39 C 111.2 38.8 111.1 38.5 111.1 38.2 C 111.1 38.2 111.5 38.2 111.5 38.2 C 111.7 38.6 111.9 38.7 112.3 38.7 C 112.8 38.7 113 38.6 113.1 38.2 C 113.14 38.2 113.6 38.2 113.6 38.2 C 113.6 38.2 113.63 38.2 113.6 38.2 Z M 116 44.4 L 116 39.9 L 116.7 39.9 L 116.7 44.4 L 116 44.4 Z M 118.2 44.4 L 118.2 43.5 L 119 43.5 L 119 44.4 L 118.2 44.4 Z M 124.7 44.4 L 124.7 39 L 122.6 39 L 122.6 38.4 L 127.4 38.4 L 127.4 39 L 125.4 39 L 125.4 44.4 L 124.7 44.4 Z M 132.4 43.7 C 131.9 44.3 131.2 44.5 130.5 44.5 C 129.9 44.5 129.4 44.3 128.9 43.9 C 128.5 43.5 128.3 42.9 128.3 42.2 C 128.3 42.2 128.3 42.2 128.3 42.2 C 128.3 41.5 128.5 41 128.9 40.5 C 129.3 40.1 129.8 39.9 130.4 39.9 C 131.1 39.9 131.6 40.1 132 40.5 C 132.3 41 132.5 41.5 132.5 42.2 C 132.5 42.3 132.5 42.4 132.5 42.4 C 132.5 42.4 128.9 42.4 128.9 42.4 C 129 42.9 129.2 43.3 129.5 43.6 C 129.8 43.8 130.1 44 130.5 44 C 131.1 44 131.5 43.8 131.9 43.3 C 131.94 43.33 132.4 43.7 132.4 43.7 C 132.4 43.7 132.36 43.7 132.4 43.7 Z M 128.9 41.9 C 128.9 41.9 131.8 41.9 131.8 41.9 C 131.8 41.5 131.7 41.1 131.4 40.9 C 131.2 40.6 130.8 40.4 130.4 40.4 C 130 40.4 129.7 40.6 129.4 40.9 C 129.1 41.1 129 41.5 128.9 41.9 Z M 133.7 44.4 L 133.7 39.9 L 134.4 39.9 C 134.4 39.9 134.36 40.7 134.4 40.7 C 134.5 40.4 134.7 40.2 135 40.1 C 135.2 39.9 135.5 39.9 135.8 39.9 C 136.5 39.9 137 40.2 137.3 40.7 C 137.7 40.2 138.2 39.9 138.8 39.9 C 139.4 39.9 139.8 40 140.1 40.3 C 140.4 40.7 140.5 41.1 140.5 41.7 C 140.51 41.66 140.5 44.4 140.5 44.4 L 139.8 44.4 C 139.8 44.4 139.84 41.82 139.8 41.8 C 139.8 41.4 139.7 41 139.5 40.8 C 139.3 40.6 139 40.5 138.7 40.5 C 138.3 40.5 138 40.6 137.8 40.8 C 137.5 41.1 137.4 41.4 137.4 41.9 C 137.43 41.85 137.4 44.4 137.4 44.4 L 136.8 44.4 C 136.8 44.4 136.77 41.8 136.8 41.8 C 136.8 41.4 136.7 41 136.5 40.8 C 136.3 40.6 136 40.5 135.6 40.5 C 135.3 40.5 135 40.6 134.7 40.9 C 134.5 41.1 134.4 41.5 134.4 41.9 C 134.36 41.88 134.4 44.4 134.4 44.4 L 133.7 44.4 Z M 142 39 L 142 38.2 L 142.7 38.2 L 142.7 39 L 142 39 Z M 142 44.4 L 142 39.9 L 142.7 39.9 L 142.7 44.4 L 142 44.4 Z M 144 44.4 L 144 44 L 146.9 40.5 L 144.1 40.5 L 144.1 39.9 L 147.9 39.9 L 147.9 40.4 L 144.9 43.9 L 147.9 43.9 L 147.9 44.4 L 144 44.4 Z M 153.2 45.8 L 152.6 45.5 C 152.6 45.5 153.27 44.5 153.3 44.5 C 152.7 44.4 152.3 44.1 151.9 43.7 C 151.6 43.3 151.4 42.8 151.4 42.2 C 151.4 42.2 151.4 42.2 151.4 42.2 C 151.4 41.6 151.6 41 152 40.5 C 152.5 40.1 153 39.9 153.7 39.9 C 154.4 39.9 155 40.1 155.5 40.7 C 155.5 40.7 155 41.1 155 41.1 C 154.6 40.7 154.2 40.4 153.7 40.4 C 153.2 40.4 152.8 40.6 152.5 40.9 C 152.2 41.3 152.1 41.7 152.1 42.2 C 152.1 42.2 152.1 42.2 152.1 42.2 C 152.1 42.7 152.2 43.1 152.5 43.4 C 152.9 43.8 153.3 43.9 153.7 43.9 C 154.2 43.9 154.7 43.7 155.1 43.3 C 155.1 43.3 155.5 43.7 155.5 43.7 C 155 44.2 154.5 44.5 153.8 44.5 C 153.82 44.54 153.2 45.8 153.2 45.8 Z M 156.6 39 L 156.6 38.2 L 157.4 38.2 L 157.4 39 L 156.6 39 Z M 156.7 44.4 L 156.7 39.9 L 157.4 39.9 L 157.4 44.4 L 156.7 44.4 Z M 158.7 44.4 L 158.7 44 L 161.6 40.5 L 158.8 40.5 L 158.8 39.9 L 162.6 39.9 L 162.6 40.4 L 159.6 43.9 L 162.6 43.9 L 162.6 44.4 L 158.7 44.4 Z M 167.5 45.3 C 167.1 45.7 166.5 45.9 165.7 45.9 C 165 45.9 164.3 45.6 163.7 45.2 C 163.7 45.2 164 44.7 164 44.7 C 164.5 45.1 165.1 45.3 165.7 45.3 C 166.2 45.3 166.6 45.1 166.9 44.9 C 167.2 44.6 167.4 44.2 167.4 43.7 C 167.4 43.7 167.4 43.1 167.4 43.1 C 166.9 43.8 166.3 44.1 165.6 44.1 C 165 44.1 164.5 43.9 164.1 43.5 C 163.7 43.1 163.5 42.6 163.5 42 C 163.5 42 163.5 42 163.5 42 C 163.5 41.3 163.7 40.8 164.1 40.4 C 164.5 40 165 39.9 165.6 39.9 C 166.3 39.9 166.9 40.2 167.4 40.8 C 167.36 40.76 167.4 39.9 167.4 39.9 L 168 39.9 C 168 39.9 168.03 43.66 168 43.7 C 168 44.3 167.8 44.9 167.5 45.3 C 167.5 45.3 167.5 45.3 167.5 45.3 Z M 165.7 43.5 C 166.2 43.5 166.6 43.4 166.9 43.1 C 167.2 42.8 167.4 42.4 167.4 42 C 167.4 42 167.4 42 167.4 42 C 167.4 41.5 167.2 41.2 166.9 40.9 C 166.6 40.6 166.2 40.4 165.7 40.4 C 165.3 40.4 164.9 40.6 164.6 40.9 C 164.3 41.1 164.2 41.5 164.2 42 C 164.2 42 164.2 42 164.2 42 C 164.2 42.4 164.3 42.8 164.6 43.1 C 164.9 43.4 165.3 43.5 165.7 43.5 Z M 169.5 39 L 169.5 38.2 L 170.3 38.2 L 170.3 39 L 169.5 39 Z M 169.6 44.4 L 169.6 39.9 L 170.3 39.9 L 170.3 44.4 L 169.6 44.4 Z M 171.9 44.4 L 171.9 38.1 L 172.5 38.1 L 172.5 44.4 L 171.9 44.4 Z M 177.9 43.7 C 177.4 44.3 176.8 44.5 176.1 44.5 C 175.4 44.5 174.9 44.3 174.5 43.9 C 174 43.5 173.8 42.9 173.8 42.2 C 173.8 42.2 173.8 42.2 173.8 42.2 C 173.8 41.5 174 41 174.4 40.5 C 174.8 40.1 175.4 39.9 176 39.9 C 176.6 39.9 177.1 40.1 177.5 40.5 C 177.9 41 178.1 41.5 178.1 42.2 C 178.1 42.3 178.1 42.4 178.1 42.4 C 178.1 42.4 174.5 42.4 174.5 42.4 C 174.5 42.9 174.7 43.3 175 43.6 C 175.3 43.8 175.7 44 176.1 44 C 176.6 44 177.1 43.8 177.5 43.3 C 177.5 43.33 177.9 43.7 177.9 43.7 C 177.9 43.7 177.92 43.7 177.9 43.7 Z M 174.5 41.9 C 174.5 41.9 177.4 41.9 177.4 41.9 C 177.4 41.5 177.2 41.1 177 40.9 C 176.7 40.6 176.4 40.4 176 40.4 C 175.6 40.4 175.2 40.6 175 40.9 C 174.7 41.1 174.5 41.5 174.5 41.9 Z M 179.2 44.4 L 179.2 39.9 L 179.9 39.9 C 179.9 39.9 179.91 41.12 179.9 41.1 C 180.1 40.7 180.3 40.4 180.7 40.2 C 181 40 181.3 39.9 181.7 39.9 C 181.75 39.87 181.7 40.6 181.7 40.6 C 181.7 40.6 181.7 40.59 181.7 40.6 C 181.2 40.6 180.8 40.8 180.4 41.1 C 180.1 41.5 179.9 42 179.9 42.7 C 179.91 42.65 179.9 44.4 179.9 44.4 L 179.2 44.4 Z M 182.7 40.9 L 182.7 39.9 L 183.5 39.9 L 183.5 40.9 L 182.7 40.9 Z M 182.6 45.5 C 182.6 45.5 182.5 45.2 182.5 45.2 C 182.9 45 183.1 44.8 183 44.4 C 183.05 44.44 182.7 44.4 182.7 44.4 L 182.7 43.5 L 183.5 43.5 C 183.5 43.5 183.53 44.31 183.5 44.3 C 183.5 44.7 183.5 44.9 183.3 45.1 C 183.1 45.3 182.9 45.4 182.6 45.5 Z " stroke="none" fill="#fff"/>  </g>  <g id="Polygon41103">    <path d="M 0.9 31.9 L 0.9 25.8 L 5.2 25.8 L 5.2 26.4 L 1.5 26.4 L 1.5 28.6 L 4.8 28.6 L 4.8 29.2 L 1.5 29.2 L 1.5 31.9 L 0.9 31.9 Z M 8.7 32 C 7.7 32 6.9 31.6 6.2 31 C 6.2 31 6.6 30.5 6.6 30.5 C 6.9 30.8 7.2 31 7.6 31.1 C 7.9 31.3 8.3 31.4 8.7 31.4 C 9.1 31.4 9.4 31.3 9.7 31.1 C 9.9 30.9 10 30.6 10 30.3 C 10 30.3 10 30.3 10 30.3 C 10 30 9.9 29.8 9.7 29.6 C 9.5 29.4 9.1 29.3 8.5 29.1 C 7.7 29 7.2 28.8 6.9 28.5 C 6.6 28.3 6.4 27.9 6.4 27.4 C 6.4 27.4 6.4 27.4 6.4 27.4 C 6.4 26.9 6.6 26.5 7 26.2 C 7.4 25.9 7.8 25.7 8.4 25.7 C 8.8 25.7 9.2 25.8 9.6 25.9 C 9.9 26 10.2 26.2 10.5 26.5 C 10.5 26.5 10.1 27 10.1 27 C 9.6 26.5 9 26.3 8.4 26.3 C 8 26.3 7.7 26.4 7.4 26.6 C 7.2 26.8 7.1 27 7.1 27.3 C 7.1 27.3 7.1 27.3 7.1 27.3 C 7.1 27.6 7.2 27.9 7.4 28 C 7.7 28.2 8.1 28.4 8.7 28.5 C 9.4 28.7 9.9 28.9 10.3 29.1 C 10.6 29.4 10.7 29.8 10.7 30.2 C 10.7 30.2 10.7 30.2 10.7 30.2 C 10.7 30.8 10.5 31.2 10.1 31.5 C 9.8 31.8 9.3 32 8.7 32 Z M 14.9 32 C 14 32 13.3 31.7 12.7 31.1 C 12.2 30.5 11.9 29.7 11.9 28.9 C 11.9 28.9 11.9 28.8 11.9 28.8 C 11.9 28 12.2 27.2 12.7 26.6 C 13.3 26 14.1 25.7 14.9 25.7 C 15.5 25.7 15.9 25.8 16.3 25.9 C 16.6 26.1 17 26.3 17.3 26.7 C 17.3 26.7 16.8 27.2 16.8 27.2 C 16.6 26.9 16.3 26.7 16 26.5 C 15.7 26.4 15.3 26.3 14.9 26.3 C 14.3 26.3 13.7 26.6 13.2 27 C 12.8 27.5 12.6 28.1 12.6 28.8 C 12.6 28.8 12.6 28.8 12.6 28.8 C 12.6 29.5 12.8 30.1 13.2 30.6 C 13.7 31.1 14.3 31.4 14.9 31.4 C 15.3 31.4 15.7 31.3 16 31.1 C 16.3 31 16.6 30.8 16.9 30.5 C 16.9 30.5 17.3 30.9 17.3 30.9 C 17 31.3 16.6 31.5 16.3 31.7 C 15.9 31.9 15.4 32 14.9 32 Z M 20.6 28.5 L 20.6 25.8 L 21.1 25.8 L 22 27.3 L 23 25.8 L 23.4 25.8 L 23.4 28.5 L 23 28.5 L 23 26.4 L 22 27.9 L 22 27.9 L 21 26.4 L 21 28.5 L 20.6 28.5 Z M 18.8 28.5 L 18.8 26.2 L 17.9 26.2 L 17.9 25.8 L 20.1 25.8 L 20.1 26.2 L 19.2 26.2 L 19.2 28.5 L 18.8 28.5 Z M 28.6 32 C 27.9 32 27.3 31.8 26.7 31.3 C 26.7 31.3 27 30.8 27 30.8 C 27.5 31.2 28.1 31.4 28.6 31.4 C 28.9 31.4 29.1 31.3 29.3 31.2 C 29.4 31.1 29.5 30.9 29.5 30.7 C 29.5 30.7 29.5 30.7 29.5 30.7 C 29.5 30.5 29.4 30.3 29.2 30.2 C 29.1 30.1 28.8 30 28.4 29.9 C 28.2 29.8 28.1 29.8 28.1 29.8 C 28 29.7 27.9 29.7 27.7 29.6 C 27.6 29.6 27.5 29.5 27.4 29.5 C 27.3 29.4 27.2 29.4 27.2 29.3 C 27.1 29.2 27 29.1 27 29 C 26.9 28.9 26.9 28.7 26.9 28.6 C 26.9 28.6 26.9 28.6 26.9 28.6 C 26.9 28.2 27.1 27.9 27.4 27.7 C 27.6 27.4 28 27.3 28.5 27.3 C 29 27.3 29.6 27.5 30.1 27.8 C 30.1 27.8 29.8 28.3 29.8 28.3 C 29.3 28 28.9 27.9 28.4 27.9 C 28.2 27.9 28 27.9 27.8 28.1 C 27.6 28.2 27.6 28.3 27.6 28.5 C 27.6 28.5 27.6 28.5 27.6 28.5 C 27.6 28.6 27.6 28.7 27.6 28.8 C 27.7 28.8 27.7 28.9 27.8 28.9 C 27.8 29 27.9 29 28.1 29.1 C 28.2 29.1 28.3 29.2 28.4 29.2 C 28.4 29.2 28.6 29.3 28.7 29.3 C 28.9 29.4 29 29.4 29.1 29.5 C 29.3 29.5 29.4 29.6 29.5 29.6 C 29.7 29.7 29.8 29.8 29.9 29.9 C 29.9 29.9 30 30.1 30.1 30.2 C 30.1 30.3 30.2 30.4 30.2 30.6 C 30.2 30.6 30.2 30.6 30.2 30.6 C 30.2 31 30 31.4 29.7 31.6 C 29.4 31.9 29 32 28.6 32 Z M 35.2 31.1 C 34.7 31.7 34.1 32 33.4 32 C 32.7 32 32.2 31.8 31.8 31.3 C 31.3 30.9 31.1 30.3 31.1 29.6 C 31.1 29.6 31.1 29.6 31.1 29.6 C 31.1 29 31.3 28.4 31.7 28 C 32.2 27.5 32.7 27.3 33.3 27.3 C 33.9 27.3 34.4 27.5 34.8 28 C 35.2 28.4 35.4 29 35.4 29.7 C 35.4 29.8 35.4 29.8 35.4 29.9 C 35.4 29.9 31.8 29.9 31.8 29.9 C 31.9 30.4 32 30.7 32.3 31 C 32.6 31.3 33 31.4 33.4 31.4 C 33.9 31.4 34.4 31.2 34.8 30.8 C 34.81 30.77 35.2 31.1 35.2 31.1 C 35.2 31.1 35.22 31.14 35.2 31.1 Z M 31.8 29.4 C 31.8 29.4 34.7 29.4 34.7 29.4 C 34.7 29 34.5 28.6 34.3 28.3 C 34 28 33.7 27.9 33.3 27.9 C 32.9 27.9 32.6 28 32.3 28.3 C 32 28.6 31.9 28.9 31.8 29.4 Z M 36.6 31.9 L 36.6 27.4 L 37.2 27.4 C 37.2 27.4 37.22 28.56 37.2 28.6 C 37.4 28.2 37.6 27.9 38 27.6 C 38.3 27.4 38.6 27.3 39.1 27.3 C 39.06 27.31 39.1 28 39.1 28 C 39.1 28 39.01 28.03 39 28 C 38.5 28 38.1 28.2 37.7 28.6 C 37.4 28.9 37.2 29.4 37.2 30.1 C 37.22 30.09 37.2 31.9 37.2 31.9 L 36.6 31.9 Z M 42.4 31.8 C 42.2 31.9 41.9 32 41.6 32 C 41.2 32 40.9 31.9 40.7 31.7 C 40.4 31.4 40.3 31.1 40.3 30.7 C 40.31 30.69 40.3 28 40.3 28 L 39.7 28 L 39.7 27.4 L 40.3 27.4 L 40.3 26 L 41 26 L 41 27.4 L 42.4 27.4 L 42.4 28 L 41 28 C 41 28 40.98 30.61 41 30.6 C 41 31.1 41.2 31.4 41.7 31.4 C 42 31.4 42.2 31.3 42.4 31.2 C 42.39 31.2 42.4 31.8 42.4 31.8 C 42.4 31.8 42.39 31.77 42.4 31.8 Z M 43.6 26.4 L 43.6 25.7 L 44.4 25.7 L 44.4 26.4 L 43.6 26.4 Z M 43.7 31.9 L 43.7 27.4 L 44.3 27.4 L 44.3 31.9 L 43.7 31.9 Z M 46.1 31.9 L 46.1 28 L 45.5 28 L 45.5 27.4 L 46.1 27.4 C 46.1 27.4 46.13 27.01 46.1 27 C 46.1 26.5 46.3 26.1 46.5 25.8 C 46.8 25.6 47.1 25.5 47.5 25.5 C 47.8 25.5 48 25.5 48.2 25.6 C 48.2 25.6 48.2 26.2 48.2 26.2 C 48 26.1 47.7 26.1 47.6 26.1 C 47.1 26.1 46.8 26.4 46.8 27 C 46.79 27.04 46.8 27.4 46.8 27.4 L 48.2 27.4 L 48.2 28 L 46.8 28 L 46.8 31.9 L 46.1 31.9 Z M 49.1 26.4 L 49.1 25.7 L 49.9 25.7 L 49.9 26.4 L 49.1 26.4 Z M 49.1 31.9 L 49.1 27.4 L 49.8 27.4 L 49.8 31.9 L 49.1 31.9 Z M 51.4 31.9 L 51.4 25.5 L 52 25.5 L 52 29.9 L 54.5 27.4 L 55.3 27.4 L 53.4 29.3 L 55.3 31.9 L 54.5 31.9 L 52.9 29.8 L 52 30.7 L 52 31.9 L 51.4 31.9 Z M 59.3 31.2 C 58.9 31.7 58.3 32 57.6 32 C 57.2 32 56.8 31.9 56.5 31.6 C 56.1 31.4 56 31 56 30.6 C 56 30.6 56 30.6 56 30.6 C 56 30.1 56.1 29.7 56.5 29.5 C 56.8 29.2 57.3 29.1 57.9 29.1 C 58.3 29.1 58.8 29.2 59.3 29.3 C 59.3 29.3 59.3 29.1 59.3 29.1 C 59.3 28.7 59.2 28.4 58.9 28.2 C 58.7 28 58.4 27.9 57.9 27.9 C 57.5 27.9 57 28 56.6 28.2 C 56.6 28.2 56.4 27.7 56.4 27.7 C 56.9 27.5 57.4 27.3 58 27.3 C 58.6 27.3 59.1 27.5 59.4 27.8 C 59.8 28.1 59.9 28.6 59.9 29.1 C 59.91 29.14 59.9 31.9 59.9 31.9 L 59.3 31.9 L 59.3 31.2 C 59.3 31.2 59.27 31.21 59.3 31.2 Z M 57.8 31.4 C 58.2 31.4 58.6 31.3 58.8 31.1 C 59.1 30.9 59.3 30.6 59.3 30.2 C 59.3 30.2 59.3 29.8 59.3 29.8 C 58.8 29.7 58.4 29.6 58 29.6 C 57.5 29.6 57.2 29.7 57 29.9 C 56.8 30 56.6 30.3 56.6 30.5 C 56.6 30.5 56.6 30.6 56.6 30.6 C 56.6 30.8 56.8 31 57 31.2 C 57.2 31.4 57.5 31.4 57.8 31.4 Z M 61.4 31.9 L 61.4 25.5 L 62.1 25.5 L 62.1 31.9 L 61.4 31.9 Z M 63.7 31.9 L 63.7 27.4 L 64.4 27.4 L 64.4 31.9 L 63.7 31.9 Z M 68.5 31.9 L 68.5 25.5 L 69.2 25.5 L 69.2 29.9 L 71.6 27.4 L 72.4 27.4 L 70.6 29.3 L 72.5 31.9 L 71.7 31.9 L 70.1 29.8 L 69.2 30.7 L 69.2 31.9 L 68.5 31.9 Z M 76.4 31.2 C 76 31.7 75.5 32 74.8 32 C 74.4 32 74 31.9 73.6 31.6 C 73.3 31.4 73.1 31 73.1 30.6 C 73.1 30.6 73.1 30.6 73.1 30.6 C 73.1 30.1 73.3 29.7 73.7 29.5 C 74 29.2 74.5 29.1 75 29.1 C 75.5 29.1 76 29.2 76.4 29.3 C 76.4 29.3 76.4 29.1 76.4 29.1 C 76.4 28.7 76.3 28.4 76.1 28.2 C 75.9 28 75.5 27.9 75.1 27.9 C 74.6 27.9 74.2 28 73.7 28.2 C 73.7 28.2 73.5 27.7 73.5 27.7 C 74.1 27.5 74.6 27.3 75.2 27.3 C 75.8 27.3 76.3 27.5 76.6 27.8 C 76.9 28.1 77.1 28.6 77.1 29.1 C 77.08 29.14 77.1 31.9 77.1 31.9 L 76.4 31.9 L 76.4 31.2 C 76.4 31.2 76.43 31.21 76.4 31.2 Z M 74.9 31.4 C 75.4 31.4 75.7 31.3 76 31.1 C 76.3 30.9 76.4 30.6 76.4 30.2 C 76.4 30.2 76.4 29.8 76.4 29.8 C 76 29.7 75.5 29.6 75.1 29.6 C 74.7 29.6 74.4 29.7 74.1 29.9 C 73.9 30 73.8 30.3 73.8 30.5 C 73.8 30.5 73.8 30.6 73.8 30.6 C 73.8 30.8 73.9 31 74.1 31.2 C 74.4 31.4 74.6 31.4 74.9 31.4 Z M 80.4 31.1 L 81.9 27.4 L 82.6 27.4 C 82.6 27.4 80.69 32.03 80.7 32 C 80.5 32.5 80.3 32.8 80.1 33 C 79.8 33.2 79.5 33.3 79.2 33.3 C 78.9 33.3 78.6 33.2 78.2 33.1 C 78.2 33.1 78.5 32.5 78.5 32.5 C 78.7 32.7 78.9 32.7 79.2 32.7 C 79.4 32.7 79.6 32.6 79.7 32.5 C 79.8 32.4 80 32.2 80.1 31.9 C 80.09 31.87 78 27.4 78 27.4 L 78.8 27.4 L 80.4 31.1 Z M 83.7 31.9 L 83.7 27.4 L 84.4 27.4 L 84.4 31.9 L 83.7 31.9 Z M 85.9 31.9 L 85.9 27.4 L 86.6 27.4 C 86.6 27.4 86.6 28.17 86.6 28.2 C 87 27.6 87.5 27.3 88.1 27.3 C 88.7 27.3 89.1 27.5 89.4 27.8 C 89.7 28.1 89.9 28.6 89.9 29.1 C 89.86 29.09 89.9 31.9 89.9 31.9 L 89.2 31.9 C 89.2 31.9 89.19 29.26 89.2 29.3 C 89.2 28.8 89.1 28.5 88.9 28.3 C 88.6 28 88.3 27.9 87.9 27.9 C 87.6 27.9 87.2 28 87 28.3 C 86.7 28.6 86.6 28.9 86.6 29.3 C 86.6 29.31 86.6 31.9 86.6 31.9 L 85.9 31.9 Z M 96.9 31.2 C 96.5 31.7 95.9 32 95.2 32 C 94.8 32 94.4 31.9 94.1 31.6 C 93.7 31.4 93.6 31 93.6 30.6 C 93.6 30.6 93.6 30.6 93.6 30.6 C 93.6 30.1 93.7 29.7 94.1 29.5 C 94.4 29.2 94.9 29.1 95.5 29.1 C 95.9 29.1 96.4 29.2 96.9 29.3 C 96.9 29.3 96.9 29.1 96.9 29.1 C 96.9 28.7 96.7 28.4 96.5 28.2 C 96.3 28 95.9 27.9 95.5 27.9 C 95.1 27.9 94.6 28 94.2 28.2 C 94.2 28.2 94 27.7 94 27.7 C 94.5 27.5 95 27.3 95.6 27.3 C 96.2 27.3 96.7 27.5 97 27.8 C 97.3 28.1 97.5 28.6 97.5 29.1 C 97.5 29.14 97.5 31.9 97.5 31.9 L 96.9 31.9 L 96.9 31.2 C 96.9 31.2 96.86 31.21 96.9 31.2 Z M 95.4 31.4 C 95.8 31.4 96.1 31.3 96.4 31.1 C 96.7 30.9 96.9 30.6 96.9 30.2 C 96.9 30.2 96.9 29.8 96.9 29.8 C 96.4 29.7 96 29.6 95.5 29.6 C 95.1 29.6 94.8 29.7 94.6 29.9 C 94.3 30 94.2 30.3 94.2 30.5 C 94.2 30.5 94.2 30.6 94.2 30.6 C 94.2 30.8 94.3 31 94.6 31.2 C 94.8 31.4 95 31.4 95.4 31.4 Z M 102.6 32.7 C 102.2 33.1 101.7 33.3 100.9 33.3 C 100.2 33.3 99.5 33.1 98.9 32.7 C 98.9 32.7 99.2 32.1 99.2 32.1 C 99.7 32.5 100.3 32.7 100.9 32.7 C 101.4 32.7 101.8 32.6 102.1 32.3 C 102.4 32 102.5 31.6 102.5 31.1 C 102.5 31.1 102.5 30.6 102.5 30.6 C 102.1 31.2 101.5 31.5 100.8 31.5 C 100.2 31.5 99.7 31.3 99.3 30.9 C 98.9 30.6 98.7 30.1 98.7 29.4 C 98.7 29.4 98.7 29.4 98.7 29.4 C 98.7 28.8 98.9 28.3 99.3 27.9 C 99.7 27.5 100.2 27.3 100.8 27.3 C 101.5 27.3 102.1 27.6 102.5 28.2 C 102.54 28.2 102.5 27.4 102.5 27.4 L 103.2 27.4 C 103.2 27.4 103.2 31.1 103.2 31.1 C 103.2 31.8 103 32.3 102.6 32.7 C 102.6 32.7 102.6 32.7 102.6 32.7 Z M 100.9 30.9 C 101.3 30.9 101.7 30.8 102.1 30.5 C 102.4 30.2 102.6 29.9 102.6 29.4 C 102.6 29.4 102.6 29.4 102.6 29.4 C 102.6 29 102.4 28.6 102.1 28.3 C 101.7 28 101.4 27.9 100.9 27.9 C 100.5 27.9 100.1 28 99.8 28.3 C 99.5 28.6 99.4 28.9 99.4 29.4 C 99.4 29.4 99.4 29.4 99.4 29.4 C 99.4 29.9 99.5 30.2 99.8 30.5 C 100.1 30.8 100.5 30.9 100.9 30.9 Z M 102.4 25.6 C 102.3 26 102.2 26.2 102 26.4 C 101.8 26.6 101.5 26.7 101.1 26.7 C 100.7 26.7 100.4 26.6 100.2 26.4 C 100 26.2 99.8 26 99.8 25.6 C 99.8 25.6 100.3 25.6 100.3 25.6 C 100.4 26 100.7 26.2 101.1 26.2 C 101.5 26.2 101.8 26 101.9 25.6 C 101.89 25.64 102.4 25.6 102.4 25.6 C 102.4 25.6 102.38 25.64 102.4 25.6 Z M 107.7 31.2 C 107.3 31.7 106.7 32 106 32 C 105.6 32 105.2 31.9 104.9 31.6 C 104.5 31.4 104.4 31 104.4 30.6 C 104.4 30.6 104.4 30.6 104.4 30.6 C 104.4 30.1 104.5 29.7 104.9 29.5 C 105.2 29.2 105.7 29.1 106.3 29.1 C 106.7 29.1 107.2 29.2 107.7 29.3 C 107.7 29.3 107.7 29.1 107.7 29.1 C 107.7 28.7 107.5 28.4 107.3 28.2 C 107.1 28 106.8 27.9 106.3 27.9 C 105.9 27.9 105.4 28 105 28.2 C 105 28.2 104.8 27.7 104.8 27.7 C 105.3 27.5 105.8 27.3 106.4 27.3 C 107 27.3 107.5 27.5 107.8 27.8 C 108.2 28.1 108.3 28.6 108.3 29.1 C 108.31 29.14 108.3 31.9 108.3 31.9 L 107.7 31.9 L 107.7 31.2 C 107.7 31.2 107.67 31.21 107.7 31.2 Z M 106.2 31.4 C 106.6 31.4 106.9 31.3 107.2 31.1 C 107.5 30.9 107.7 30.6 107.7 30.2 C 107.7 30.2 107.7 29.8 107.7 29.8 C 107.2 29.7 106.8 29.6 106.4 29.6 C 105.9 29.6 105.6 29.7 105.4 29.9 C 105.2 30 105 30.3 105 30.5 C 105 30.5 105 30.6 105 30.6 C 105 30.8 105.1 31 105.4 31.2 C 105.6 31.4 105.9 31.4 106.2 31.4 Z M 113.6 31.1 C 113.1 31.7 112.5 32 111.8 32 C 111.1 32 110.6 31.8 110.1 31.3 C 109.7 30.8 109.5 30.3 109.5 29.7 C 109.5 29.7 109.5 29.6 109.5 29.6 C 109.5 29 109.7 28.4 110.1 28 C 110.6 27.5 111.1 27.3 111.8 27.3 C 112.5 27.3 113.1 27.6 113.6 28.1 C 113.6 28.1 113.1 28.6 113.1 28.6 C 112.7 28.1 112.2 27.9 111.8 27.9 C 111.3 27.9 110.9 28.1 110.6 28.4 C 110.3 28.7 110.1 29.1 110.1 29.6 C 110.1 29.6 110.1 29.6 110.1 29.6 C 110.1 30.1 110.3 30.5 110.6 30.9 C 110.9 31.2 111.3 31.4 111.8 31.4 C 112.3 31.4 112.8 31.2 113.2 30.7 C 113.17 30.72 113.6 31.1 113.6 31.1 C 113.6 31.1 113.6 31.12 113.6 31.1 Z M 114.8 31.9 L 114.8 27.4 L 115.4 27.4 L 115.4 31.9 L 114.8 31.9 Z M 117 31.9 L 117 27.4 L 117.7 27.4 C 117.7 27.4 117.66 28.17 117.7 28.2 C 118 27.6 118.5 27.3 119.2 27.3 C 119.7 27.3 120.1 27.5 120.5 27.8 C 120.8 28.1 120.9 28.6 120.9 29.1 C 120.92 29.09 120.9 31.9 120.9 31.9 L 120.2 31.9 C 120.2 31.9 120.25 29.26 120.2 29.3 C 120.2 28.8 120.1 28.5 119.9 28.3 C 119.7 28 119.4 27.9 119 27.9 C 118.6 27.9 118.3 28 118 28.3 C 117.8 28.6 117.7 28.9 117.7 29.3 C 117.66 29.31 117.7 31.9 117.7 31.9 L 117 31.9 Z M 126 31 C 125.5 31.6 124.9 32 124.2 32 C 123.7 32 123.2 31.8 122.7 31.3 C 122.3 30.9 122.1 30.4 122.1 29.6 C 122.1 29.6 122.1 29.6 122.1 29.6 C 122.1 28.9 122.3 28.4 122.7 27.9 C 123.2 27.5 123.7 27.3 124.2 27.3 C 124.9 27.3 125.5 27.6 126 28.2 C 125.95 28.25 126 25.5 126 25.5 L 126.6 25.5 L 126.6 31.9 L 126 31.9 L 126 31 C 126 31 125.95 30.98 126 31 Z M 124.4 31.4 C 124.8 31.4 125.2 31.2 125.5 30.9 C 125.8 30.6 126 30.1 126 29.6 C 126 29.6 126 29.6 126 29.6 C 126 29.1 125.8 28.7 125.5 28.4 C 125.2 28.1 124.8 27.9 124.4 27.9 C 123.9 27.9 123.5 28 123.2 28.4 C 122.9 28.7 122.8 29.1 122.8 29.6 C 122.8 29.6 122.8 29.6 122.8 29.6 C 122.8 30.2 122.9 30.6 123.2 30.9 C 123.5 31.2 123.9 31.4 124.4 31.4 Z M 131.1 31.2 C 130.7 31.7 130.1 32 129.5 32 C 129 32 128.6 31.9 128.3 31.6 C 127.9 31.4 127.8 31 127.8 30.6 C 127.8 30.6 127.8 30.6 127.8 30.6 C 127.8 30.1 128 29.7 128.3 29.5 C 128.7 29.2 129.1 29.1 129.7 29.1 C 130.2 29.1 130.6 29.2 131.1 29.3 C 131.1 29.3 131.1 29.1 131.1 29.1 C 131.1 28.7 131 28.4 130.7 28.2 C 130.5 28 130.2 27.9 129.7 27.9 C 129.3 27.9 128.8 28 128.4 28.2 C 128.4 28.2 128.2 27.7 128.2 27.7 C 128.7 27.5 129.3 27.3 129.8 27.3 C 130.5 27.3 130.9 27.5 131.3 27.8 C 131.6 28.1 131.7 28.6 131.7 29.1 C 131.73 29.14 131.7 31.9 131.7 31.9 L 131.1 31.9 L 131.1 31.2 C 131.1 31.2 131.08 31.21 131.1 31.2 Z M 129.6 31.4 C 130 31.4 130.4 31.3 130.7 31.1 C 130.9 30.9 131.1 30.6 131.1 30.2 C 131.1 30.2 131.1 29.8 131.1 29.8 C 130.6 29.7 130.2 29.6 129.8 29.6 C 129.4 29.6 129 29.7 128.8 29.9 C 128.6 30 128.5 30.3 128.5 30.5 C 128.5 30.5 128.5 30.6 128.5 30.6 C 128.5 30.8 128.6 31 128.8 31.2 C 129 31.4 129.3 31.4 129.6 31.4 Z M 133.2 31.9 L 133.2 27.4 L 133.8 27.4 C 133.8 27.4 133.82 28.17 133.8 28.2 C 134.2 27.6 134.7 27.3 135.4 27.3 C 135.9 27.3 136.3 27.5 136.6 27.8 C 136.9 28.1 137.1 28.6 137.1 29.1 C 137.08 29.09 137.1 31.9 137.1 31.9 L 136.4 31.9 C 136.4 31.9 136.41 29.26 136.4 29.3 C 136.4 28.8 136.3 28.5 136.1 28.3 C 135.9 28 135.6 27.9 135.2 27.9 C 134.8 27.9 134.5 28 134.2 28.3 C 133.9 28.6 133.8 28.9 133.8 29.3 C 133.82 29.31 133.8 31.9 133.8 31.9 L 133.2 31.9 Z M 143.4 26.7 L 143.4 25.9 L 144.2 25.9 L 144.2 26.7 L 143.4 26.7 Z M 141.9 26.7 L 141.9 25.9 L 142.6 25.9 L 142.6 26.7 L 141.9 26.7 Z M 144.3 31.1 C 143.9 31.7 143.4 32 142.8 32 C 142.2 32 141.8 31.8 141.5 31.5 C 141.2 31.2 141 30.7 141 30.2 C 141.05 30.18 141 27.4 141 27.4 L 141.7 27.4 C 141.7 27.4 141.72 30.01 141.7 30 C 141.7 30.4 141.8 30.8 142 31 C 142.3 31.3 142.6 31.4 143 31.4 C 143.3 31.4 143.7 31.2 143.9 31 C 144.2 30.7 144.3 30.4 144.3 30 C 144.31 29.96 144.3 27.4 144.3 27.4 L 145 27.4 L 145 31.9 L 144.3 31.9 L 144.3 31.1 C 144.3 31.1 144.31 31.1 144.3 31.1 Z M 146.5 31.9 L 146.5 27.4 L 147.1 27.4 C 147.1 27.4 147.14 28.56 147.1 28.6 C 147.3 28.2 147.6 27.9 147.9 27.6 C 148.2 27.4 148.6 27.3 149 27.3 C 148.98 27.31 149 28 149 28 C 149 28 148.93 28.03 148.9 28 C 148.4 28 148 28.2 147.6 28.6 C 147.3 28.9 147.1 29.4 147.1 30.1 C 147.14 30.09 147.1 31.9 147.1 31.9 L 146.5 31.9 Z M 153.8 31.1 C 153.3 31.7 152.7 32 152 32 C 151.3 32 150.8 31.8 150.4 31.3 C 149.9 30.9 149.7 30.3 149.7 29.6 C 149.7 29.6 149.7 29.6 149.7 29.6 C 149.7 29 149.9 28.4 150.3 28 C 150.7 27.5 151.3 27.3 151.9 27.3 C 152.5 27.3 153 27.5 153.4 28 C 153.8 28.4 154 29 154 29.7 C 154 29.8 154 29.8 154 29.9 C 154 29.9 150.4 29.9 150.4 29.9 C 150.4 30.4 150.6 30.7 150.9 31 C 151.2 31.3 151.6 31.4 152 31.4 C 152.5 31.4 153 31.2 153.4 30.8 C 153.39 30.77 153.8 31.1 153.8 31.1 C 153.8 31.1 153.81 31.14 153.8 31.1 Z M 150.4 29.4 C 150.4 29.4 153.3 29.4 153.3 29.4 C 153.3 29 153.1 28.6 152.9 28.3 C 152.6 28 152.3 27.9 151.9 27.9 C 151.5 27.9 151.1 28 150.9 28.3 C 150.6 28.6 150.4 28.9 150.4 29.4 Z M 157.5 31.8 C 157.2 31.9 157 32 156.6 32 C 156.3 32 155.9 31.9 155.7 31.7 C 155.5 31.4 155.4 31.1 155.4 30.7 C 155.38 30.69 155.4 28 155.4 28 L 154.8 28 L 154.8 27.4 L 155.4 27.4 L 155.4 26 L 156 26 L 156 27.4 L 157.5 27.4 L 157.5 28 L 156 28 C 156 28 156.05 30.61 156 30.6 C 156 31.1 156.3 31.4 156.8 31.4 C 157 31.4 157.2 31.3 157.5 31.2 C 157.46 31.2 157.5 31.8 157.5 31.8 C 157.5 31.8 157.46 31.77 157.5 31.8 Z M 158.7 26.4 L 158.7 25.7 L 159.4 25.7 L 159.4 26.4 L 158.7 26.4 Z M 158.7 31.9 L 158.7 27.4 L 159.4 27.4 L 159.4 31.9 L 158.7 31.9 Z M 161 31.9 L 161 25.5 L 161.7 25.5 L 161.7 31.9 L 161 31.9 Z M 163.2 31.9 L 163.2 27.4 L 163.9 27.4 C 163.9 27.4 163.9 28.14 163.9 28.1 C 164.1 27.9 164.3 27.7 164.5 27.5 C 164.7 27.4 165 27.3 165.4 27.3 C 166 27.3 166.5 27.6 166.8 28.2 C 167.2 27.6 167.7 27.3 168.4 27.3 C 168.9 27.3 169.3 27.5 169.6 27.8 C 169.9 28.1 170 28.5 170 29.1 C 170.05 29.1 170 31.9 170 31.9 L 169.4 31.9 C 169.4 31.9 169.38 29.26 169.4 29.3 C 169.4 28.8 169.3 28.5 169.1 28.3 C 168.9 28 168.6 27.9 168.2 27.9 C 167.9 27.9 167.6 28 167.3 28.3 C 167.1 28.5 167 28.9 167 29.3 C 166.97 29.29 167 31.9 167 31.9 L 166.3 31.9 C 166.3 31.9 166.31 29.24 166.3 29.2 C 166.3 28.8 166.2 28.5 166 28.3 C 165.8 28 165.5 27.9 165.2 27.9 C 164.8 27.9 164.5 28 164.3 28.3 C 164 28.6 163.9 28.9 163.9 29.3 C 163.9 29.32 163.9 31.9 163.9 31.9 L 163.2 31.9 Z M 171.5 26.4 L 171.5 25.7 L 172.3 25.7 L 172.3 26.4 L 171.5 26.4 Z M 171.5 31.9 L 171.5 27.4 L 172.2 27.4 L 172.2 31.9 L 171.5 31.9 Z M 174.8 33.2 L 174.2 32.9 C 174.2 32.9 174.86 31.94 174.9 31.9 C 174.3 31.9 173.8 31.7 173.4 31.3 C 173.4 31.3 173.7 30.8 173.7 30.8 C 174.2 31.2 174.7 31.4 175.3 31.4 C 175.6 31.4 175.8 31.3 176 31.2 C 176.1 31.1 176.2 30.9 176.2 30.7 C 176.2 30.7 176.2 30.7 176.2 30.7 C 176.2 30.5 176.1 30.3 175.9 30.2 C 175.7 30.1 175.5 30 175.1 29.9 C 174.9 29.8 174.8 29.8 174.7 29.8 C 174.7 29.7 174.5 29.7 174.4 29.6 C 174.3 29.6 174.1 29.5 174.1 29.5 C 174 29.4 173.9 29.4 173.8 29.3 C 173.8 29.2 173.7 29.1 173.7 29 C 173.6 28.9 173.6 28.7 173.6 28.6 C 173.6 28.6 173.6 28.6 173.6 28.6 C 173.6 28.2 173.7 27.9 174 27.7 C 174.3 27.4 174.7 27.3 175.1 27.3 C 175.7 27.3 176.3 27.5 176.8 27.8 C 176.8 27.8 176.4 28.3 176.4 28.3 C 176 28 175.6 27.9 175.1 27.9 C 174.9 27.9 174.6 27.9 174.5 28.1 C 174.3 28.2 174.2 28.3 174.2 28.5 C 174.2 28.5 174.2 28.5 174.2 28.5 C 174.2 28.6 174.3 28.7 174.3 28.8 C 174.4 28.8 174.4 28.9 174.5 28.9 C 174.5 29 174.6 29 174.7 29.1 C 174.9 29.1 175 29.2 175 29.2 C 175.1 29.2 175.2 29.3 175.4 29.3 C 175.6 29.4 175.7 29.4 175.8 29.5 C 175.9 29.5 176.1 29.6 176.2 29.6 C 176.3 29.7 176.5 29.8 176.5 29.9 C 176.6 29.9 176.7 30.1 176.8 30.2 C 176.8 30.3 176.8 30.4 176.8 30.6 C 176.8 30.6 176.8 30.6 176.8 30.6 C 176.8 31 176.7 31.3 176.5 31.6 C 176.2 31.8 175.8 31.9 175.4 32 C 175.42 31.96 174.8 33.2 174.8 33.2 Z M 177.8 32.9 C 177.8 32.9 177.7 32.6 177.7 32.6 C 178.2 32.5 178.4 32.2 178.3 31.9 C 178.32 31.88 178 31.9 178 31.9 L 178 31 L 178.8 31 C 178.8 31 178.81 31.75 178.8 31.8 C 178.8 32.1 178.7 32.4 178.6 32.6 C 178.4 32.7 178.2 32.9 177.8 32.9 Z " stroke="none" fill="#fff"/>  </g>  <g id="Polygon41102">    <path d="M 0.8 7.7 L 0.8 1 L 5.9 1 L 5.9 2.3 L 2.3 2.3 L 2.3 3.7 L 5.5 3.7 L 5.5 5 L 2.3 5 L 2.3 6.4 L 6 6.4 L 6 7.7 L 0.8 7.7 Z M 10 7.5 C 9.7 7.7 9.3 7.8 8.9 7.8 C 8.4 7.8 8 7.7 7.8 7.5 C 7.5 7.2 7.4 6.8 7.4 6.3 C 7.37 6.26 7.4 3.8 7.4 3.8 L 6.8 3.8 L 6.8 2.6 L 7.4 2.6 L 7.4 1.2 L 8.8 1.2 L 8.8 2.6 L 10.1 2.6 L 10.1 3.8 L 8.8 3.8 C 8.8 3.8 8.84 6.02 8.8 6 C 8.8 6.4 9 6.5 9.3 6.5 C 9.6 6.5 9.8 6.5 10 6.3 C 10.04 6.34 10 7.5 10 7.5 C 10 7.5 10.04 7.52 10 7.5 Z M 11.1 7.7 L 11.1 0.7 L 12.6 0.7 L 12.6 4.4 L 14.3 2.6 L 16.1 2.6 L 14.1 4.6 L 16.2 7.7 L 14.5 7.7 L 13.1 5.6 L 12.6 6.2 L 12.6 7.7 L 11.1 7.7 Z M 16.9 2 L 16.9 0.7 L 18.4 0.7 L 18.4 2 L 16.9 2 Z M 16.9 7.7 L 16.9 2.6 L 18.4 2.6 L 18.4 7.7 L 16.9 7.7 Z M 19.8 7.7 L 19.8 0.7 L 21.3 0.7 L 21.3 7.7 L 19.8 7.7 Z M 27.3 6.9 C 26.7 7.5 26 7.8 25.1 7.8 C 24.4 7.8 23.7 7.6 23.2 7.1 C 22.7 6.6 22.4 6 22.4 5.2 C 22.4 5.2 22.4 5.1 22.4 5.1 C 22.4 4.4 22.7 3.8 23.2 3.2 C 23.7 2.7 24.3 2.5 25 2.5 C 25.8 2.5 26.4 2.7 26.9 3.3 C 27.3 3.8 27.5 4.5 27.5 5.3 C 27.5 5.3 27.5 5.5 27.5 5.7 C 27.5 5.7 23.9 5.7 23.9 5.7 C 24 6 24.1 6.2 24.3 6.4 C 24.6 6.6 24.8 6.7 25.2 6.7 C 25.6 6.7 26 6.5 26.4 6.1 C 26.42 6.14 27.3 6.9 27.3 6.9 C 27.3 6.9 27.26 6.88 27.3 6.9 Z M 23.9 4.7 C 23.9 4.7 26.1 4.7 26.1 4.7 C 26.1 4.4 25.9 4.1 25.7 3.9 C 25.6 3.7 25.3 3.6 25 3.6 C 24.7 3.6 24.5 3.7 24.3 3.9 C 24.1 4.1 23.9 4.4 23.9 4.7 Z M 30.9 6.1 L 32 2.6 L 33.5 2.6 C 33.5 2.6 31.55 7.85 31.6 7.9 C 31.4 8.4 31.1 8.8 30.9 9 C 30.6 9.2 30.3 9.3 29.9 9.3 C 29.4 9.3 29 9.2 28.5 8.9 C 28.5 8.9 29 7.9 29 7.9 C 29.3 8 29.5 8.1 29.7 8.1 C 29.8 8.1 29.9 8.1 30 8 C 30 8 30.1 7.9 30.2 7.7 C 30.18 7.75 28.2 2.6 28.2 2.6 L 29.7 2.6 L 30.9 6.1 Z M 34.4 2 L 34.4 0.7 L 36 0.7 L 36 2 L 34.4 2 Z M 34.5 7.7 L 34.5 2.6 L 36 2.6 L 36 7.7 L 34.5 7.7 Z M 39.8 7.8 C 39 7.8 38.4 7.6 37.9 7.1 C 37.3 6.5 37.1 5.9 37.1 5.2 C 37.1 5.2 37.1 5.1 37.1 5.1 C 37.1 4.4 37.3 3.8 37.9 3.2 C 38.4 2.7 39 2.5 39.8 2.5 C 40.6 2.5 41.3 2.7 41.9 3.3 C 41.9 3.3 41 4.3 41 4.3 C 40.8 4.1 40.6 4 40.4 3.9 C 40.2 3.8 40 3.7 39.8 3.7 C 39.4 3.7 39.1 3.9 38.9 4.1 C 38.6 4.4 38.5 4.7 38.5 5.1 C 38.5 5.1 38.5 5.1 38.5 5.1 C 38.5 5.6 38.7 5.9 38.9 6.2 C 39.1 6.4 39.5 6.6 39.8 6.6 C 40.2 6.6 40.6 6.4 41 6 C 41 6 41.9 6.9 41.9 6.9 C 41.6 7.2 41.3 7.4 41 7.6 C 40.7 7.8 40.3 7.8 39.8 7.8 Z M 42.9 2 L 42.9 0.7 L 44.4 0.7 L 44.4 2 L 42.9 2 Z M 42.9 7.7 L 42.9 2.6 L 44.4 2.6 L 44.4 7.7 L 42.9 7.7 Z M 50.5 7.8 C 49.7 7.8 48.9 7.6 48.3 7 C 48.3 7 48.9 6.1 48.9 6.1 C 49.5 6.5 50 6.7 50.5 6.7 C 50.9 6.7 51.1 6.6 51.1 6.3 C 51.1 6.3 51.1 6.3 51.1 6.3 C 51.1 6.2 51.1 6.2 51.1 6.2 C 51.1 6.1 51.1 6.1 51 6.1 C 51 6 50.9 6 50.9 6 C 50.9 6 50.8 5.9 50.7 5.9 C 50.6 5.9 50.6 5.9 50.5 5.8 C 50.5 5.8 50.4 5.8 50.3 5.8 C 50.2 5.7 50.1 5.7 50.1 5.7 C 49.9 5.6 49.7 5.6 49.5 5.5 C 49.4 5.4 49.2 5.3 49 5.2 C 48.9 5.1 48.7 5 48.7 4.8 C 48.6 4.6 48.5 4.4 48.5 4.1 C 48.5 4.1 48.5 4.1 48.5 4.1 C 48.5 3.6 48.7 3.2 49.1 2.9 C 49.4 2.6 49.9 2.5 50.4 2.5 C 51.1 2.5 51.7 2.7 52.3 3.1 C 52.3 3.1 51.8 4.1 51.8 4.1 C 51.2 3.8 50.8 3.6 50.4 3.6 C 50.2 3.6 50.1 3.6 50 3.7 C 49.9 3.8 49.8 3.9 49.8 4 C 49.8 4 49.8 4 49.8 4 C 49.8 4.1 49.9 4.2 50.1 4.3 C 50.3 4.4 50.5 4.5 50.9 4.6 C 51.1 4.7 51.3 4.7 51.5 4.8 C 51.6 4.9 51.8 5 51.9 5.1 C 52.1 5.2 52.2 5.4 52.3 5.5 C 52.4 5.7 52.5 5.9 52.5 6.1 C 52.5 6.1 52.5 6.2 52.5 6.2 C 52.5 6.7 52.3 7.1 51.9 7.4 C 51.6 7.7 51.1 7.8 50.5 7.8 Z M 56.5 7.2 C 56.2 7.6 55.6 7.8 55 7.8 C 54.5 7.8 54.1 7.7 53.7 7.4 C 53.4 7.1 53.2 6.7 53.2 6.2 C 53.2 6.2 53.2 6.2 53.2 6.2 C 53.2 5.7 53.4 5.3 53.8 5 C 54.1 4.7 54.7 4.6 55.3 4.6 C 55.7 4.6 56.1 4.6 56.6 4.8 C 56.6 4.8 56.6 4.7 56.6 4.7 C 56.6 4.1 56.2 3.7 55.4 3.7 C 55 3.7 54.5 3.8 54 4 C 54 4 53.7 2.9 53.7 2.9 C 54.3 2.6 55 2.5 55.7 2.5 C 56.4 2.5 57 2.7 57.4 3.1 C 57.8 3.4 58 4 58 4.7 C 57.97 4.72 58 7.7 58 7.7 L 56.5 7.7 L 56.5 7.2 C 56.5 7.2 56.55 7.17 56.5 7.2 Z M 55.4 6.8 C 55.8 6.8 56.1 6.7 56.3 6.6 C 56.5 6.4 56.6 6.2 56.6 5.9 C 56.6 5.9 56.6 5.6 56.6 5.6 C 56.3 5.5 56 5.4 55.6 5.4 C 55.3 5.4 55.1 5.5 54.9 5.6 C 54.7 5.8 54.6 5.9 54.6 6.2 C 54.6 6.2 54.6 6.2 54.6 6.2 C 54.6 6.4 54.7 6.5 54.8 6.6 C 55 6.8 55.2 6.8 55.4 6.8 Z M 63 7 C 62.6 7.5 62 7.8 61.4 7.8 C 60.7 7.8 60.2 7.6 59.7 7.1 C 59.2 6.6 59 6 59 5.1 C 59 5.1 59 5.1 59 5.1 C 59 4.3 59.2 3.7 59.7 3.2 C 60.2 2.7 60.7 2.5 61.4 2.5 C 62 2.5 62.5 2.7 63 3.2 C 62.97 3.23 63 0.7 63 0.7 L 64.4 0.7 L 64.4 7.7 L 63 7.7 L 63 7 C 63 7 62.97 6.99 63 7 Z M 60.5 5.1 C 60.5 5.6 60.6 5.9 60.8 6.2 C 61.1 6.4 61.4 6.6 61.7 6.6 C 62.1 6.6 62.4 6.4 62.6 6.2 C 62.9 5.9 63 5.6 63 5.1 C 63 5.1 63 5.1 63 5.1 C 63 4.7 62.9 4.4 62.6 4.1 C 62.4 3.8 62.1 3.7 61.7 3.7 C 61.4 3.7 61.1 3.8 60.8 4.1 C 60.6 4.4 60.5 4.7 60.5 5.1 C 60.47 5.13 60.5 5.1 60.5 5.1 C 60.5 5.1 60.47 5.15 60.5 5.1 Z M 70.3 6.9 C 69.8 7.5 69.1 7.8 68.2 7.8 C 67.4 7.8 66.8 7.6 66.3 7.1 C 65.8 6.6 65.5 6 65.5 5.2 C 65.5 5.2 65.5 5.1 65.5 5.1 C 65.5 4.4 65.7 3.8 66.2 3.2 C 66.7 2.7 67.3 2.5 68.1 2.5 C 68.9 2.5 69.5 2.7 69.9 3.3 C 70.4 3.8 70.6 4.5 70.6 5.3 C 70.6 5.3 70.6 5.5 70.6 5.7 C 70.6 5.7 67 5.7 67 5.7 C 67 6 67.2 6.2 67.4 6.4 C 67.6 6.6 67.9 6.7 68.2 6.7 C 68.7 6.7 69.1 6.5 69.5 6.1 C 69.49 6.14 70.3 6.9 70.3 6.9 C 70.3 6.9 70.33 6.88 70.3 6.9 Z M 66.9 4.7 C 66.9 4.7 69.2 4.7 69.2 4.7 C 69.1 4.4 69 4.1 68.8 3.9 C 68.6 3.7 68.4 3.6 68.1 3.6 C 67.8 3.6 67.5 3.7 67.3 3.9 C 67.1 4.1 67 4.4 66.9 4.7 Z M 71.7 7.7 L 71.7 0.7 L 73.2 0.7 L 73.2 7.7 L 71.7 7.7 Z M 74.6 2 L 74.6 0.7 L 76.2 0.7 L 76.2 2 L 74.6 2 Z M 74.7 7.7 L 74.7 2.6 L 76.1 2.6 L 76.1 7.7 L 74.7 7.7 Z M 77.5 7.7 L 77.5 0.7 L 79 0.7 L 79 4.4 L 80.7 2.6 L 82.5 2.6 L 80.5 4.6 L 82.5 7.7 L 80.8 7.7 L 79.5 5.6 L 79 6.2 L 79 7.7 L 77.5 7.7 Z " stroke="none" fill="#fff"/>  </g></svg>