<?xml version="1.0" standalone="no"?><!DOCTYPE svg PUBLIC "-//W3C//DTD SVG 1.1//EN" "http://www.w3.org/Graphics/SVG/1.1/DTD/svg11.dtd"><svg xmlns="http://www.w3.org/2000/svg" version="1.1" width="107.3px" height="92.4px" viewBox="0 -3 107.3 92.4" style="top:-3px">  <desc>Ka t Havlu Tutucu – Singles r n Kodu: ZD 330464 Renk: Black Toz boyal elik D 14,5 cm, H 32 cm Tasar m: VE2</desc>  <defs/>  <g id="Polygon45596">    <path d="M 2 56.6 L 2 52.2 L 0.3 52.2 L 0.3 51.7 L 4.2 51.7 L 4.2 52.2 L 2.5 52.2 L 2.5 56.6 L 2 56.6 Z M 7.5 56.1 C 7.2 56.5 6.7 56.7 6.2 56.7 C 5.8 56.7 5.5 56.6 5.2 56.4 C 5 56.2 4.8 55.9 4.8 55.5 C 4.8 55.5 4.8 55.5 4.8 55.5 C 4.8 55.2 5 54.9 5.2 54.7 C 5.5 54.5 5.9 54.4 6.4 54.4 C 6.7 54.4 7.1 54.4 7.5 54.5 C 7.5 54.5 7.5 54.4 7.5 54.4 C 7.5 54.1 7.4 53.8 7.2 53.7 C 7 53.5 6.7 53.4 6.4 53.4 C 6 53.4 5.7 53.5 5.3 53.7 C 5.3 53.7 5.1 53.2 5.1 53.2 C 5.6 53 6 52.9 6.5 52.9 C 7 52.9 7.4 53.1 7.6 53.3 C 7.9 53.6 8 53.9 8 54.4 C 7.99 54.39 8 56.6 8 56.6 L 7.5 56.6 L 7.5 56.1 C 7.5 56.1 7.48 56.05 7.5 56.1 Z M 6.3 56.2 C 6.6 56.2 6.9 56.2 7.1 56 C 7.4 55.8 7.5 55.6 7.5 55.3 C 7.5 55.3 7.5 54.9 7.5 54.9 C 7.1 54.8 6.8 54.8 6.4 54.8 C 6.1 54.8 5.8 54.8 5.6 55 C 5.5 55.1 5.4 55.3 5.4 55.5 C 5.4 55.5 5.4 55.5 5.4 55.5 C 5.4 55.7 5.5 55.9 5.6 56.1 C 5.8 56.2 6 56.2 6.3 56.2 Z M 10.3 56.7 C 9.8 56.7 9.3 56.5 8.8 56.1 C 8.8 56.1 9.1 55.8 9.1 55.8 C 9.5 56.1 9.9 56.2 10.4 56.2 C 10.6 56.2 10.8 56.2 10.9 56.1 C 11 56 11.1 55.8 11.1 55.6 C 11.1 55.6 11.1 55.6 11.1 55.6 C 11.1 55.5 11 55.3 10.9 55.2 C 10.7 55.2 10.5 55.1 10.2 55 C 10.1 55 10 54.9 9.9 54.9 C 9.9 54.9 9.8 54.8 9.7 54.8 C 9.5 54.8 9.5 54.7 9.4 54.7 C 9.3 54.6 9.3 54.6 9.2 54.5 C 9.1 54.4 9.1 54.4 9.1 54.3 C 9 54.2 9 54.1 9 54 C 9 54 9 54 9 54 C 9 53.6 9.1 53.4 9.4 53.2 C 9.6 53 9.9 52.9 10.2 52.9 C 10.7 52.9 11.1 53.1 11.5 53.3 C 11.5 53.3 11.3 53.7 11.3 53.7 C 10.9 53.5 10.6 53.4 10.2 53.4 C 10 53.4 9.9 53.4 9.7 53.5 C 9.6 53.6 9.5 53.7 9.5 53.9 C 9.5 53.9 9.5 53.9 9.5 53.9 C 9.5 54 9.6 54 9.6 54.1 C 9.6 54.1 9.7 54.2 9.7 54.2 C 9.8 54.3 9.8 54.3 9.9 54.4 C 10 54.4 10.1 54.4 10.2 54.4 C 10.2 54.5 10.3 54.5 10.5 54.5 C 10.6 54.6 10.7 54.6 10.8 54.6 C 10.9 54.7 11 54.7 11.1 54.8 C 11.2 54.8 11.3 54.9 11.4 55 C 11.5 55 11.5 55.1 11.6 55.2 C 11.6 55.3 11.6 55.4 11.6 55.6 C 11.6 55.6 11.6 55.6 11.6 55.6 C 11.6 55.9 11.5 56.2 11.3 56.4 C 11 56.6 10.7 56.7 10.3 56.7 Z M 15 56.1 C 14.7 56.5 14.3 56.7 13.7 56.7 C 13.3 56.7 13 56.6 12.8 56.4 C 12.5 56.2 12.4 55.9 12.4 55.5 C 12.4 55.5 12.4 55.5 12.4 55.5 C 12.4 55.2 12.5 54.9 12.8 54.7 C 13.1 54.5 13.4 54.4 13.9 54.4 C 14.3 54.4 14.6 54.4 15 54.5 C 15 54.5 15 54.4 15 54.4 C 15 54.1 14.9 53.8 14.7 53.7 C 14.5 53.5 14.3 53.4 13.9 53.4 C 13.6 53.4 13.2 53.5 12.8 53.7 C 12.8 53.7 12.7 53.2 12.7 53.2 C 13.1 53 13.5 52.9 14 52.9 C 14.5 52.9 14.9 53.1 15.2 53.3 C 15.4 53.6 15.5 53.9 15.5 54.4 C 15.53 54.39 15.5 56.6 15.5 56.6 L 15 56.6 L 15 56.1 C 15 56.1 15.01 56.05 15 56.1 Z M 13.8 56.2 C 14.2 56.2 14.4 56.2 14.7 56 C 14.9 55.8 15 55.6 15 55.3 C 15 55.3 15 54.9 15 54.9 C 14.7 54.8 14.3 54.8 14 54.8 C 13.6 54.8 13.4 54.8 13.2 55 C 13 55.1 12.9 55.3 12.9 55.5 C 12.9 55.5 12.9 55.5 12.9 55.5 C 12.9 55.7 13 55.9 13.2 56.1 C 13.3 56.2 13.6 56.2 13.8 56.2 Z M 16.7 56.6 L 16.7 53 L 17.2 53 C 17.2 53 17.22 53.93 17.2 53.9 C 17.4 53.6 17.6 53.4 17.8 53.2 C 18.1 53 18.4 52.9 18.7 52.9 C 18.7 52.92 18.7 53.5 18.7 53.5 C 18.7 53.5 18.65 53.5 18.7 53.5 C 18.2 53.5 17.9 53.6 17.6 53.9 C 17.4 54.2 17.2 54.6 17.2 55.2 C 17.22 55.16 17.2 56.6 17.2 56.6 L 16.7 56.6 Z M 19.6 56.6 L 19.6 53 L 20.1 53 L 20.1 56.6 L 19.6 56.6 Z M 21.4 56.6 L 21.4 53 L 21.9 53 C 21.9 53 21.9 53.59 21.9 53.6 C 22 53.4 22.2 53.2 22.4 53.1 C 22.6 53 22.8 52.9 23.1 52.9 C 23.6 52.9 24 53.1 24.2 53.6 C 24.5 53.1 25 52.9 25.5 52.9 C 25.9 52.9 26.2 53 26.5 53.3 C 26.7 53.6 26.8 53.9 26.8 54.4 C 26.84 54.36 26.8 56.6 26.8 56.6 L 26.3 56.6 C 26.3 56.6 26.31 54.49 26.3 54.5 C 26.3 54.1 26.2 53.9 26.1 53.7 C 25.9 53.5 25.7 53.4 25.4 53.4 C 25.1 53.4 24.9 53.5 24.7 53.7 C 24.5 53.9 24.4 54.2 24.4 54.5 C 24.37 54.51 24.4 56.6 24.4 56.6 L 23.8 56.6 C 23.8 56.6 23.83 54.47 23.8 54.5 C 23.8 54.1 23.8 53.9 23.6 53.7 C 23.4 53.5 23.2 53.4 22.9 53.4 C 22.6 53.4 22.4 53.5 22.2 53.7 C 22 53.9 21.9 54.2 21.9 54.5 C 21.9 54.53 21.9 56.6 21.9 56.6 L 21.4 56.6 Z M 28 53.7 L 28 53 L 28.6 53 L 28.6 53.7 L 28 53.7 Z M 28 56.6 L 28 55.9 L 28.6 55.9 L 28.6 56.6 L 28 56.6 Z M 33.6 56.6 L 31.5 51.7 L 32.2 51.7 L 33.9 55.9 L 35.7 51.7 L 36.2 51.7 L 34.1 56.6 L 33.6 56.6 Z M 37.2 56.6 L 37.2 51.7 L 40.8 51.7 L 40.8 52.2 L 37.8 52.2 L 37.8 53.9 L 40.4 53.9 L 40.4 54.4 L 37.8 54.4 L 37.8 56.1 L 40.8 56.1 L 40.8 56.6 L 37.2 56.6 Z M 41.5 56.6 L 41.5 56.2 C 41.5 56.2 43.32 54.6 43.3 54.6 C 43.7 54.3 44 54 44.1 53.8 C 44.3 53.5 44.3 53.3 44.3 53.1 C 44.3 52.8 44.2 52.6 44.1 52.4 C 43.9 52.2 43.6 52.1 43.4 52.1 C 43.1 52.1 42.9 52.2 42.7 52.3 C 42.4 52.5 42.2 52.7 42 53 C 42 53 41.6 52.7 41.6 52.7 C 41.9 52.3 42.1 52 42.4 51.9 C 42.7 51.7 43 51.6 43.4 51.6 C 43.8 51.6 44.2 51.8 44.5 52 C 44.8 52.3 44.9 52.6 44.9 53 C 44.9 53 44.9 53 44.9 53 C 44.9 53.4 44.8 53.7 44.6 53.9 C 44.5 54.2 44.1 54.5 43.7 54.9 C 43.68 54.93 42.4 56.1 42.4 56.1 L 45 56.1 L 45 56.6 L 41.5 56.6 Z " stroke="none" fill="#000"/>  </g>  <g id="Polygon45595">    <path d="M 0.7 48.2 L 0.7 43.3 C 0.7 43.3 2.39 43.3 2.4 43.3 C 3.2 43.3 3.8 43.5 4.3 44 C 4.8 44.5 5 45 5 45.7 C 5 45.7 5 45.7 5 45.7 C 5 46.4 4.8 47 4.3 47.5 C 3.8 48 3.2 48.2 2.4 48.2 C 2.39 48.2 0.7 48.2 0.7 48.2 Z M 2.4 43.8 C 2.39 43.81 1.2 43.8 1.2 43.8 L 1.2 47.7 C 1.2 47.7 2.39 47.69 2.4 47.7 C 3 47.7 3.5 47.5 3.9 47.1 C 4.2 46.8 4.4 46.3 4.4 45.8 C 4.4 45.8 4.4 45.7 4.4 45.7 C 4.4 45.2 4.2 44.7 3.9 44.4 C 3.5 44 3 43.8 2.4 43.8 Z M 8.8 48.2 L 8.8 43.8 L 7.9 44.1 L 7.8 43.7 L 9 43.3 L 9.4 43.3 L 9.4 48.2 L 8.8 48.2 Z M 13.1 48.2 L 13.1 47 L 10.5 47 L 10.4 46.6 L 13.2 43.3 L 13.6 43.3 L 13.6 46.6 L 14.4 46.6 L 14.4 47 L 13.6 47 L 13.6 48.2 L 13.1 48.2 Z M 11 46.6 L 13.1 46.6 L 13.1 44 L 11 46.6 Z M 15.2 49.1 C 15.2 49.1 15.1 48.8 15.1 48.8 C 15.4 48.7 15.6 48.5 15.6 48.2 C 15.57 48.2 15.3 48.2 15.3 48.2 L 15.3 47.5 L 16 47.5 C 16 47.5 15.96 48.09 16 48.1 C 16 48.4 15.9 48.6 15.8 48.7 C 15.7 48.9 15.5 49 15.2 49.1 Z M 18.6 48.3 C 18 48.3 17.4 48 16.9 47.5 C 16.9 47.5 17.2 47.1 17.2 47.1 C 17.7 47.6 18.1 47.8 18.6 47.8 C 19 47.8 19.2 47.7 19.5 47.5 C 19.7 47.3 19.8 47 19.8 46.7 C 19.8 46.7 19.8 46.7 19.8 46.7 C 19.8 46.4 19.7 46.1 19.5 45.9 C 19.2 45.7 18.9 45.7 18.6 45.7 C 18.2 45.7 17.9 45.7 17.6 45.9 C 17.56 45.93 17.2 45.7 17.2 45.7 L 17.3 43.3 L 20.1 43.3 L 20.1 43.8 L 17.8 43.8 C 17.8 43.8 17.7 45.38 17.7 45.4 C 18 45.2 18.3 45.2 18.7 45.2 C 19.2 45.2 19.6 45.3 19.9 45.6 C 20.2 45.8 20.4 46.2 20.4 46.7 C 20.4 46.7 20.4 46.7 20.4 46.7 C 20.4 47.1 20.2 47.5 19.9 47.8 C 19.6 48.1 19.1 48.3 18.6 48.3 Z M 26.6 47.6 C 26.2 48.1 25.7 48.3 25.1 48.3 C 24.6 48.3 24.1 48.1 23.8 47.7 C 23.4 47.4 23.3 46.9 23.3 46.4 C 23.3 46.4 23.3 46.4 23.3 46.4 C 23.3 45.9 23.4 45.4 23.8 45.1 C 24.1 44.7 24.6 44.5 25.1 44.5 C 25.7 44.5 26.2 44.7 26.6 45.1 C 26.6 45.1 26.2 45.5 26.2 45.5 C 25.9 45.2 25.5 45 25.1 45 C 24.7 45 24.4 45.1 24.2 45.4 C 23.9 45.7 23.8 46 23.8 46.4 C 23.8 46.4 23.8 46.4 23.8 46.4 C 23.8 46.8 23.9 47.1 24.2 47.4 C 24.4 47.7 24.8 47.8 25.1 47.8 C 25.5 47.8 25.9 47.6 26.2 47.3 C 26.24 47.26 26.6 47.6 26.6 47.6 C 26.6 47.6 26.59 47.58 26.6 47.6 Z M 27.5 48.2 L 27.5 44.6 L 28 44.6 C 28 44.6 28.01 45.19 28 45.2 C 28.2 45 28.3 44.8 28.5 44.7 C 28.7 44.6 28.9 44.5 29.2 44.5 C 29.7 44.5 30.1 44.7 30.3 45.2 C 30.7 44.7 31.1 44.5 31.6 44.5 C 32 44.5 32.4 44.6 32.6 44.9 C 32.8 45.2 33 45.5 33 46 C 32.96 45.96 33 48.2 33 48.2 L 32.4 48.2 C 32.4 48.2 32.42 46.09 32.4 46.1 C 32.4 45.7 32.3 45.5 32.2 45.3 C 32 45.1 31.8 45 31.5 45 C 31.2 45 31 45.1 30.8 45.3 C 30.6 45.5 30.5 45.8 30.5 46.1 C 30.48 46.11 30.5 48.2 30.5 48.2 L 30 48.2 C 30 48.2 29.95 46.07 30 46.1 C 30 45.7 29.9 45.5 29.7 45.3 C 29.5 45.1 29.3 45 29 45 C 28.7 45 28.5 45.1 28.3 45.3 C 28.1 45.5 28 45.8 28 46.1 C 28.01 46.13 28 48.2 28 48.2 L 27.5 48.2 Z M 33.9 49.1 C 33.9 49.1 33.8 48.8 33.8 48.8 C 34.2 48.7 34.3 48.5 34.3 48.2 C 34.3 48.2 34 48.2 34 48.2 L 34 47.5 L 34.7 47.5 C 34.7 47.5 34.69 48.09 34.7 48.1 C 34.7 48.4 34.6 48.6 34.5 48.7 C 34.4 48.9 34.2 49 33.9 49.1 Z M 38 48.2 L 38 43.3 L 38.6 43.3 L 38.6 45.5 L 41.4 45.5 L 41.4 43.3 L 42 43.3 L 42 48.2 L 41.4 48.2 L 41.4 46 L 38.6 46 L 38.6 48.2 L 38 48.2 Z M 46.9 48.3 C 46.1 48.3 45.5 48 45.1 47.4 C 45.1 47.4 45.5 47.1 45.5 47.1 C 45.9 47.5 46.4 47.8 46.9 47.8 C 47.2 47.8 47.5 47.7 47.7 47.5 C 47.9 47.3 48 47.1 48 46.8 C 48 46.8 48 46.8 48 46.8 C 48 46.5 47.9 46.3 47.6 46.1 C 47.4 46 47 45.9 46.6 45.9 C 46.63 45.87 46.3 45.9 46.3 45.9 L 46.2 45.5 L 47.7 43.8 L 45.4 43.8 L 45.4 43.3 L 48.5 43.3 L 48.5 43.7 C 48.5 43.7 46.94 45.41 46.9 45.4 C 47.4 45.5 47.8 45.6 48.1 45.8 C 48.4 46 48.6 46.4 48.6 46.8 C 48.6 46.8 48.6 46.8 48.6 46.8 C 48.6 47.2 48.4 47.6 48.1 47.9 C 47.8 48.1 47.4 48.3 46.9 48.3 Z M 49.4 48.2 L 49.4 47.8 C 49.4 47.8 51.15 46.2 51.1 46.2 C 51.5 45.9 51.8 45.6 51.9 45.4 C 52.1 45.1 52.2 44.9 52.2 44.7 C 52.2 44.4 52.1 44.2 51.9 44 C 51.7 43.8 51.5 43.7 51.2 43.7 C 50.9 43.7 50.7 43.8 50.5 43.9 C 50.3 44.1 50.1 44.3 49.9 44.6 C 49.9 44.6 49.5 44.3 49.5 44.3 C 49.7 43.9 50 43.6 50.2 43.5 C 50.5 43.3 50.8 43.2 51.2 43.2 C 51.7 43.2 52 43.4 52.3 43.6 C 52.6 43.9 52.7 44.2 52.7 44.6 C 52.7 44.6 52.7 44.6 52.7 44.6 C 52.7 45 52.7 45.3 52.5 45.5 C 52.3 45.8 52 46.1 51.5 46.5 C 51.51 46.53 50.2 47.7 50.2 47.7 L 52.8 47.7 L 52.8 48.2 L 49.4 48.2 Z M 59 47.6 C 58.6 48.1 58.1 48.3 57.6 48.3 C 57 48.3 56.6 48.1 56.2 47.7 C 55.9 47.4 55.7 46.9 55.7 46.4 C 55.7 46.4 55.7 46.4 55.7 46.4 C 55.7 45.9 55.9 45.4 56.2 45.1 C 56.6 44.7 57 44.5 57.6 44.5 C 58.1 44.5 58.6 44.7 59 45.1 C 59 45.1 58.7 45.5 58.7 45.5 C 58.3 45.2 57.9 45 57.6 45 C 57.2 45 56.9 45.1 56.6 45.4 C 56.4 45.7 56.3 46 56.3 46.4 C 56.3 46.4 56.3 46.4 56.3 46.4 C 56.3 46.8 56.4 47.1 56.6 47.4 C 56.9 47.7 57.2 47.8 57.6 47.8 C 58 47.8 58.4 47.6 58.7 47.3 C 58.69 47.26 59 47.6 59 47.6 C 59 47.6 59.04 47.58 59 47.6 Z M 59.9 48.2 L 59.9 44.6 L 60.5 44.6 C 60.5 44.6 60.47 45.19 60.5 45.2 C 60.6 45 60.8 44.8 60.9 44.7 C 61.1 44.6 61.4 44.5 61.6 44.5 C 62.2 44.5 62.6 44.7 62.8 45.2 C 63.1 44.7 63.5 44.5 64.1 44.5 C 64.5 44.5 64.8 44.6 65.1 44.9 C 65.3 45.2 65.4 45.5 65.4 46 C 65.41 45.96 65.4 48.2 65.4 48.2 L 64.9 48.2 C 64.9 48.2 64.88 46.09 64.9 46.1 C 64.9 45.7 64.8 45.5 64.6 45.3 C 64.5 45.1 64.2 45 63.9 45 C 63.7 45 63.4 45.1 63.2 45.3 C 63 45.5 62.9 45.8 62.9 46.1 C 62.94 46.11 62.9 48.2 62.9 48.2 L 62.4 48.2 C 62.4 48.2 62.4 46.07 62.4 46.1 C 62.4 45.7 62.3 45.5 62.2 45.3 C 62 45.1 61.8 45 61.5 45 C 61.2 45 60.9 45.1 60.8 45.3 C 60.6 45.5 60.5 45.8 60.5 46.1 C 60.47 46.13 60.5 48.2 60.5 48.2 L 59.9 48.2 Z " stroke="none" fill="#000"/>  </g>  <g id="Polygon45594">    <path d="M 2 39.8 L 2 35.4 L 0.3 35.4 L 0.3 34.9 L 4.2 34.9 L 4.2 35.4 L 2.5 35.4 L 2.5 39.8 L 2 39.8 Z M 6.7 39.9 C 6.2 39.9 5.8 39.7 5.4 39.3 C 5 39 4.9 38.5 4.9 38 C 4.9 38 4.9 38 4.9 38 C 4.9 37.5 5 37 5.4 36.7 C 5.8 36.3 6.2 36.1 6.8 36.1 C 7.3 36.1 7.7 36.3 8.1 36.7 C 8.5 37 8.6 37.5 8.6 38 C 8.6 38 8.6 38 8.6 38 C 8.6 38.5 8.5 39 8.1 39.3 C 7.7 39.7 7.3 39.9 6.7 39.9 Z M 6.8 39.4 C 7.1 39.4 7.5 39.3 7.7 39 C 8 38.7 8.1 38.4 8.1 38 C 8.1 38 8.1 38 8.1 38 C 8.1 37.6 8 37.3 7.7 37 C 7.4 36.7 7.1 36.6 6.7 36.6 C 6.4 36.6 6 36.7 5.8 37 C 5.5 37.3 5.4 37.6 5.4 38 C 5.4 38 5.4 38 5.4 38 C 5.4 38.4 5.5 38.7 5.8 39 C 6.1 39.3 6.4 39.4 6.8 39.4 Z M 9.4 39.8 L 9.4 39.5 L 11.8 36.6 L 9.5 36.6 L 9.5 36.2 L 12.5 36.2 L 12.5 36.5 L 10.1 39.3 L 12.5 39.3 L 12.5 39.8 L 9.4 39.8 Z M 17.5 39.9 C 17 39.9 16.5 39.6 16.1 39.1 C 16.14 39.11 16.1 39.8 16.1 39.8 L 15.6 39.8 L 15.6 34.7 L 16.1 34.7 C 16.1 34.7 16.14 36.91 16.1 36.9 C 16.5 36.4 17 36.1 17.5 36.1 C 18 36.1 18.4 36.3 18.7 36.6 C 19.1 37 19.3 37.4 19.3 38 C 19.3 38 19.3 38 19.3 38 C 19.3 38.6 19.1 39 18.7 39.4 C 18.4 39.7 18 39.9 17.5 39.9 Z M 17.4 39.4 C 17.8 39.4 18.1 39.3 18.3 39 C 18.6 38.8 18.7 38.4 18.7 38 C 18.7 38 18.7 38 18.7 38 C 18.7 37.6 18.6 37.2 18.3 37 C 18.1 36.7 17.8 36.6 17.4 36.6 C 17.1 36.6 16.8 36.7 16.5 37 C 16.3 37.3 16.1 37.6 16.1 38 C 16.1 38 16.1 38 16.1 38 C 16.1 38.4 16.3 38.7 16.5 39 C 16.8 39.3 17.1 39.4 17.4 39.4 Z M 21.9 39.9 C 21.4 39.9 20.9 39.7 20.6 39.3 C 20.2 39 20 38.5 20 38 C 20 38 20 38 20 38 C 20 37.5 20.2 37 20.6 36.7 C 20.9 36.3 21.4 36.1 21.9 36.1 C 22.5 36.1 22.9 36.3 23.3 36.7 C 23.6 37 23.8 37.5 23.8 38 C 23.8 38 23.8 38 23.8 38 C 23.8 38.5 23.6 39 23.3 39.3 C 22.9 39.7 22.4 39.9 21.9 39.9 Z M 21.9 39.4 C 22.3 39.4 22.6 39.3 22.9 39 C 23.1 38.7 23.2 38.4 23.2 38 C 23.2 38 23.2 38 23.2 38 C 23.2 37.6 23.1 37.3 22.9 37 C 22.6 36.7 22.3 36.6 21.9 36.6 C 21.5 36.6 21.2 36.7 21 37 C 20.7 37.3 20.6 37.6 20.6 38 C 20.6 38 20.6 38 20.6 38 C 20.6 38.4 20.7 38.7 21 39 C 21.2 39.3 21.5 39.4 21.9 39.4 Z M 26.3 39.2 L 27.5 36.2 L 28.1 36.2 C 28.1 36.2 26.54 39.92 26.5 39.9 C 26.4 40.3 26.2 40.6 26 40.7 C 25.8 40.9 25.6 40.9 25.3 40.9 C 25.1 40.9 24.8 40.9 24.6 40.8 C 24.6 40.8 24.7 40.3 24.7 40.3 C 24.9 40.4 25.1 40.5 25.3 40.5 C 25.5 40.5 25.6 40.4 25.7 40.3 C 25.8 40.2 25.9 40 26.1 39.8 C 26.05 39.79 24.4 36.2 24.4 36.2 L 25 36.2 L 26.3 39.2 Z M 31.3 39.3 C 31 39.7 30.5 39.9 30 39.9 C 29.6 39.9 29.3 39.8 29 39.6 C 28.8 39.4 28.6 39.1 28.6 38.7 C 28.6 38.7 28.6 38.7 28.6 38.7 C 28.6 38.4 28.8 38.1 29.1 37.9 C 29.3 37.7 29.7 37.6 30.2 37.6 C 30.6 37.6 30.9 37.6 31.3 37.7 C 31.3 37.7 31.3 37.6 31.3 37.6 C 31.3 37.3 31.2 37 31 36.9 C 30.8 36.7 30.6 36.6 30.2 36.6 C 29.9 36.6 29.5 36.7 29.1 36.9 C 29.1 36.9 29 36.4 29 36.4 C 29.4 36.2 29.8 36.1 30.3 36.1 C 30.8 36.1 31.2 36.3 31.4 36.5 C 31.7 36.8 31.8 37.1 31.8 37.6 C 31.81 37.59 31.8 39.8 31.8 39.8 L 31.3 39.8 L 31.3 39.3 C 31.3 39.3 31.3 39.25 31.3 39.3 Z M 30.1 39.4 C 30.4 39.4 30.7 39.4 31 39.2 C 31.2 39 31.3 38.8 31.3 38.5 C 31.3 38.5 31.3 38.1 31.3 38.1 C 30.9 38 30.6 38 30.2 38 C 29.9 38 29.6 38 29.5 38.2 C 29.3 38.3 29.2 38.5 29.2 38.7 C 29.2 38.7 29.2 38.7 29.2 38.7 C 29.2 38.9 29.3 39.1 29.4 39.3 C 29.6 39.4 29.8 39.4 30.1 39.4 Z M 33 39.8 L 33 34.7 L 33.6 34.7 L 33.6 39.8 L 33 39.8 Z M 34.9 39.8 L 34.9 36.2 L 35.4 36.2 L 35.4 39.8 L 34.9 39.8 Z M 40 40.9 L 39.5 40.6 C 39.5 40.6 40.04 39.85 40 39.8 C 39.6 39.8 39.2 39.6 39 39.2 C 38.7 38.9 38.5 38.5 38.5 38 C 38.5 38 38.5 38 38.5 38 C 38.5 37.5 38.7 37 39.1 36.7 C 39.4 36.3 39.8 36.1 40.4 36.1 C 40.9 36.1 41.4 36.3 41.8 36.7 C 41.8 36.7 41.5 37.1 41.5 37.1 C 41.1 36.8 40.8 36.6 40.4 36.6 C 40 36.6 39.7 36.7 39.4 37 C 39.2 37.3 39.1 37.6 39.1 38 C 39.1 38 39.1 38 39.1 38 C 39.1 38.4 39.2 38.7 39.5 39 C 39.7 39.3 40 39.4 40.4 39.4 C 40.8 39.4 41.2 39.2 41.5 38.9 C 41.5 38.9 41.9 39.2 41.9 39.2 C 41.5 39.6 41 39.9 40.5 39.9 C 40.48 39.88 40 40.9 40 40.9 Z M 45.8 39.2 C 45.4 39.7 44.9 39.9 44.3 39.9 C 43.8 39.9 43.4 39.7 43 39.4 C 42.7 39 42.5 38.6 42.5 38 C 42.5 38 42.5 38 42.5 38 C 42.5 37.5 42.7 37 43 36.6 C 43.3 36.3 43.8 36.1 44.3 36.1 C 44.8 36.1 45.2 36.3 45.5 36.6 C 45.8 37 45.9 37.5 45.9 38 C 45.9 38.1 45.9 38.1 45.9 38.2 C 45.9 38.2 43.1 38.2 43.1 38.2 C 43.1 38.6 43.2 38.9 43.5 39.1 C 43.7 39.3 44 39.4 44.3 39.4 C 44.8 39.4 45.1 39.2 45.5 38.9 C 45.48 38.9 45.8 39.2 45.8 39.2 C 45.8 39.2 45.81 39.2 45.8 39.2 Z M 43.1 37.8 C 43.1 37.8 45.4 37.8 45.4 37.8 C 45.4 37.4 45.3 37.1 45.1 36.9 C 44.9 36.7 44.6 36.6 44.2 36.6 C 43.9 36.6 43.7 36.7 43.4 36.9 C 43.2 37.1 43.1 37.4 43.1 37.8 Z M 46.9 39.8 L 46.9 34.7 L 47.5 34.7 L 47.5 39.8 L 46.9 39.8 Z M 48.7 35.4 L 48.7 34.8 L 49.4 34.8 L 49.4 35.4 L 48.7 35.4 Z M 48.8 39.8 L 48.8 36.2 L 49.3 36.2 L 49.3 39.8 L 48.8 39.8 Z M 50.6 39.8 L 50.6 34.7 L 51.1 34.7 L 51.1 38.2 L 53.1 36.2 L 53.7 36.2 L 52.2 37.7 L 53.8 39.8 L 53.1 39.8 L 51.8 38.1 L 51.1 38.9 L 51.1 39.8 L 50.6 39.8 Z " stroke="none" fill="#000"/>  </g>  <g id="Polygon45593">    <path d="M 0.7 23 L 0.7 18.1 C 0.7 18.1 2.8 18.1 2.8 18.1 C 3.4 18.1 3.9 18.3 4.2 18.6 C 4.4 18.8 4.6 19.2 4.6 19.6 C 4.6 19.6 4.6 19.6 4.6 19.6 C 4.6 20 4.4 20.3 4.2 20.5 C 4 20.8 3.6 20.9 3.2 21 C 3.24 21 4.7 23 4.7 23 L 4.1 23 L 2.6 21.1 L 1.2 21.1 L 1.2 23 L 0.7 23 Z M 1.2 20.6 C 1.2 20.6 2.75 20.6 2.8 20.6 C 3.1 20.6 3.4 20.5 3.7 20.3 C 3.9 20.1 4 19.9 4 19.6 C 4 19.6 4 19.6 4 19.6 C 4 19.3 3.9 19 3.7 18.9 C 3.5 18.7 3.2 18.6 2.8 18.6 C 2.76 18.61 1.2 18.6 1.2 18.6 L 1.2 20.6 Z M 8.7 22.4 C 8.3 22.9 7.8 23.1 7.2 23.1 C 6.7 23.1 6.3 22.9 6 22.6 C 5.6 22.2 5.4 21.8 5.4 21.2 C 5.4 21.2 5.4 21.2 5.4 21.2 C 5.4 20.7 5.6 20.2 5.9 19.8 C 6.3 19.5 6.7 19.3 7.2 19.3 C 7.7 19.3 8.1 19.5 8.4 19.8 C 8.7 20.2 8.9 20.7 8.9 21.2 C 8.9 21.3 8.9 21.3 8.9 21.4 C 8.9 21.4 6 21.4 6 21.4 C 6 21.8 6.2 22.1 6.4 22.3 C 6.6 22.5 6.9 22.6 7.3 22.6 C 7.7 22.6 8.1 22.4 8.4 22.1 C 8.4 22.1 8.7 22.4 8.7 22.4 C 8.7 22.4 8.74 22.4 8.7 22.4 Z M 6 21 C 6 21 8.3 21 8.3 21 C 8.3 20.6 8.2 20.3 8 20.1 C 7.8 19.9 7.5 19.8 7.2 19.8 C 6.8 19.8 6.6 19.9 6.4 20.1 C 6.1 20.3 6 20.6 6 21 Z M 9.8 23 L 9.8 19.4 L 10.3 19.4 C 10.3 19.4 10.35 20.01 10.3 20 C 10.6 19.5 11.1 19.3 11.6 19.3 C 12 19.3 12.4 19.4 12.6 19.7 C 12.8 20 13 20.3 13 20.8 C 12.97 20.75 13 23 13 23 L 12.4 23 C 12.4 23 12.43 20.89 12.4 20.9 C 12.4 20.5 12.3 20.3 12.2 20.1 C 12 19.9 11.7 19.8 11.4 19.8 C 11.1 19.8 10.9 19.9 10.7 20.1 C 10.4 20.3 10.3 20.6 10.3 20.9 C 10.35 20.93 10.3 23 10.3 23 L 9.8 23 Z M 14.1 23 L 14.1 17.9 L 14.7 17.9 L 14.7 21.4 L 16.6 19.4 L 17.3 19.4 L 15.8 20.9 L 17.3 23 L 16.7 23 L 15.4 21.3 L 14.7 22.1 L 14.7 23 L 14.1 23 Z M 18.1 20.1 L 18.1 19.4 L 18.7 19.4 L 18.7 20.1 L 18.1 20.1 Z M 18.1 23 L 18.1 22.3 L 18.7 22.3 L 18.7 23 L 18.1 23 Z M 22.1 23 L 22.1 18.1 C 22.1 18.1 24.16 18.1 24.2 18.1 C 24.7 18.1 25.1 18.2 25.4 18.5 C 25.6 18.7 25.8 19 25.8 19.3 C 25.8 19.3 25.8 19.3 25.8 19.3 C 25.8 19.9 25.5 20.2 25 20.5 C 25.7 20.7 26 21.1 26 21.6 C 26 21.6 26 21.7 26 21.7 C 26 22.1 25.9 22.4 25.5 22.6 C 25.2 22.9 24.8 23 24.2 23 C 24.25 23 22.1 23 22.1 23 Z M 25.2 19.4 C 25.2 19.4 25.2 19.4 25.2 19.4 C 25.2 19.1 25.1 19 24.9 18.8 C 24.7 18.7 24.5 18.6 24.1 18.6 C 24.11 18.6 22.6 18.6 22.6 18.6 L 22.6 20.3 C 22.6 20.3 24.07 20.28 24.1 20.3 C 24.4 20.3 24.7 20.2 24.9 20.1 C 25.1 19.9 25.2 19.7 25.2 19.4 Z M 25.5 21.6 C 25.5 21.6 25.5 21.6 25.5 21.6 C 25.5 21.3 25.4 21.1 25.1 21 C 24.9 20.8 24.6 20.8 24.2 20.8 C 24.16 20.77 22.6 20.8 22.6 20.8 L 22.6 22.5 C 22.6 22.5 24.26 22.5 24.3 22.5 C 24.6 22.5 24.9 22.4 25.1 22.3 C 25.4 22.1 25.5 21.9 25.5 21.6 Z M 27.1 23 L 27.1 17.9 L 27.6 17.9 L 27.6 23 L 27.1 23 Z M 31.3 22.5 C 30.9 22.9 30.5 23.1 30 23.1 C 29.6 23.1 29.3 23 29 22.8 C 28.7 22.6 28.6 22.3 28.6 21.9 C 28.6 21.9 28.6 21.9 28.6 21.9 C 28.6 21.6 28.7 21.3 29 21.1 C 29.3 20.9 29.7 20.8 30.1 20.8 C 30.5 20.8 30.9 20.8 31.3 20.9 C 31.3 20.9 31.3 20.8 31.3 20.8 C 31.3 20.5 31.2 20.2 31 20.1 C 30.8 19.9 30.5 19.8 30.2 19.8 C 29.8 19.8 29.5 19.9 29.1 20.1 C 29.1 20.1 28.9 19.6 28.9 19.6 C 29.3 19.4 29.8 19.3 30.2 19.3 C 30.8 19.3 31.1 19.5 31.4 19.7 C 31.7 20 31.8 20.3 31.8 20.8 C 31.78 20.79 31.8 23 31.8 23 L 31.3 23 L 31.3 22.5 C 31.3 22.5 31.26 22.45 31.3 22.5 Z M 30.1 22.6 C 30.4 22.6 30.7 22.6 30.9 22.4 C 31.2 22.2 31.3 22 31.3 21.7 C 31.3 21.7 31.3 21.3 31.3 21.3 C 30.9 21.2 30.5 21.2 30.2 21.2 C 29.9 21.2 29.6 21.2 29.4 21.4 C 29.2 21.5 29.1 21.7 29.1 21.9 C 29.1 21.9 29.1 21.9 29.1 21.9 C 29.1 22.1 29.2 22.3 29.4 22.5 C 29.6 22.6 29.8 22.6 30.1 22.6 Z M 36 22.4 C 35.6 22.9 35.1 23.1 34.6 23.1 C 34 23.1 33.6 22.9 33.2 22.5 C 32.9 22.2 32.7 21.7 32.7 21.2 C 32.7 21.2 32.7 21.2 32.7 21.2 C 32.7 20.7 32.9 20.2 33.2 19.9 C 33.6 19.5 34 19.3 34.6 19.3 C 35.1 19.3 35.6 19.5 36 19.9 C 36 19.9 35.7 20.3 35.7 20.3 C 35.3 20 34.9 19.8 34.6 19.8 C 34.2 19.8 33.9 19.9 33.6 20.2 C 33.4 20.5 33.3 20.8 33.3 21.2 C 33.3 21.2 33.3 21.2 33.3 21.2 C 33.3 21.6 33.4 21.9 33.6 22.2 C 33.9 22.5 34.2 22.6 34.6 22.6 C 35 22.6 35.4 22.4 35.7 22.1 C 35.69 22.06 36 22.4 36 22.4 C 36 22.4 36.04 22.38 36 22.4 Z M 36.9 23 L 36.9 17.9 L 37.5 17.9 L 37.5 21.4 L 39.4 19.4 L 40.1 19.4 L 38.6 20.9 L 40.1 23 L 39.5 23 L 38.2 21.3 L 37.5 22.1 L 37.5 23 L 36.9 23 Z " stroke="none" fill="#000"/>  </g>  <g id="Polygon45592">    <path d="M 3 9.3 L 3 8.6 L 3.6 8.6 L 3.6 9.3 L 3 9.3 Z M 1.7 9.3 L 1.7 8.6 L 2.3 8.6 L 2.3 9.3 L 1.7 9.3 Z M 2.7 14.7 C 2 14.7 1.5 14.5 1.2 14.1 C 0.8 13.7 0.6 13.2 0.6 12.5 C 0.62 12.55 0.6 9.7 0.6 9.7 L 1.2 9.7 C 1.2 9.7 1.17 12.51 1.2 12.5 C 1.2 13 1.3 13.4 1.6 13.7 C 1.8 14 2.2 14.2 2.7 14.2 C 3.1 14.2 3.5 14 3.8 13.8 C 4 13.5 4.1 13.1 4.1 12.5 C 4.14 12.55 4.1 9.7 4.1 9.7 L 4.7 9.7 C 4.7 9.7 4.7 12.51 4.7 12.5 C 4.7 13.2 4.5 13.7 4.1 14.1 C 3.8 14.5 3.3 14.7 2.7 14.7 Z M 5.9 14.6 L 5.9 11 L 6.5 11 C 6.5 11 6.45 11.93 6.5 11.9 C 6.6 11.6 6.8 11.4 7 11.2 C 7.3 11 7.6 10.9 7.9 10.9 C 7.93 10.92 7.9 11.5 7.9 11.5 C 7.9 11.5 7.89 11.5 7.9 11.5 C 7.5 11.5 7.1 11.6 6.9 11.9 C 6.6 12.2 6.5 12.6 6.5 13.2 C 6.45 13.16 6.5 14.6 6.5 14.6 L 5.9 14.6 Z M 10.6 10.4 L 10.6 9.8 L 11.2 9.8 L 11.2 10.4 L 10.6 10.4 Z M 9.3 10.4 L 9.3 9.8 L 10 9.8 L 10 10.4 L 9.3 10.4 Z M 11.3 14 C 11 14.4 10.6 14.7 10.1 14.7 C 9.7 14.7 9.3 14.5 9.1 14.3 C 8.8 14 8.7 13.7 8.7 13.2 C 8.69 13.23 8.7 11 8.7 11 L 9.2 11 C 9.2 11 9.23 13.09 9.2 13.1 C 9.2 13.4 9.3 13.7 9.5 13.9 C 9.7 14.1 9.9 14.2 10.2 14.2 C 10.5 14.2 10.8 14.1 11 13.9 C 11.2 13.7 11.3 13.4 11.3 13.1 C 11.32 13.05 11.3 11 11.3 11 L 11.9 11 L 11.9 14.6 L 11.3 14.6 L 11.3 14 C 11.3 14 11.32 13.97 11.3 14 Z M 13.1 14.6 L 13.1 11 L 13.6 11 C 13.6 11 13.6 11.61 13.6 11.6 C 13.9 11.1 14.3 10.9 14.8 10.9 C 15.3 10.9 15.6 11 15.9 11.3 C 16.1 11.6 16.2 11.9 16.2 12.4 C 16.23 12.35 16.2 14.6 16.2 14.6 L 15.7 14.6 C 15.7 14.6 15.69 12.49 15.7 12.5 C 15.7 12.1 15.6 11.9 15.4 11.7 C 15.2 11.5 15 11.4 14.7 11.4 C 14.4 11.4 14.1 11.5 13.9 11.7 C 13.7 11.9 13.6 12.2 13.6 12.5 C 13.6 12.53 13.6 14.6 13.6 14.6 L 13.1 14.6 Z M 19.6 14.6 L 19.6 9.7 L 20.1 9.7 L 20.1 12.6 L 22.9 9.7 L 23.7 9.7 L 21.5 11.8 L 23.7 14.6 L 23 14.6 L 21.2 12.2 L 20.1 13.3 L 20.1 14.6 L 19.6 14.6 Z M 26.2 14.7 C 25.6 14.7 25.2 14.5 24.8 14.1 C 24.5 13.8 24.3 13.3 24.3 12.8 C 24.3 12.8 24.3 12.8 24.3 12.8 C 24.3 12.3 24.5 11.8 24.8 11.5 C 25.2 11.1 25.6 10.9 26.2 10.9 C 26.7 10.9 27.2 11.1 27.5 11.5 C 27.9 11.8 28.1 12.3 28.1 12.8 C 28.1 12.8 28.1 12.8 28.1 12.8 C 28.1 13.3 27.9 13.8 27.5 14.1 C 27.2 14.5 26.7 14.7 26.2 14.7 Z M 26.2 14.2 C 26.6 14.2 26.9 14.1 27.1 13.8 C 27.4 13.5 27.5 13.2 27.5 12.8 C 27.5 12.8 27.5 12.8 27.5 12.8 C 27.5 12.4 27.4 12.1 27.1 11.8 C 26.9 11.5 26.5 11.4 26.2 11.4 C 25.8 11.4 25.5 11.5 25.2 11.8 C 25 12.1 24.8 12.4 24.8 12.8 C 24.8 12.8 24.8 12.8 24.8 12.8 C 24.8 13.2 25 13.5 25.2 13.8 C 25.5 14.1 25.8 14.2 26.2 14.2 Z M 31.9 13.9 C 31.6 14.4 31.1 14.7 30.5 14.7 C 30.1 14.7 29.7 14.5 29.3 14.2 C 29 13.8 28.8 13.4 28.8 12.8 C 28.8 12.8 28.8 12.8 28.8 12.8 C 28.8 12.2 29 11.8 29.3 11.4 C 29.7 11.1 30.1 10.9 30.5 10.9 C 31.1 10.9 31.6 11.2 31.9 11.7 C 31.93 11.67 31.9 9.5 31.9 9.5 L 32.5 9.5 L 32.5 14.6 L 31.9 14.6 L 31.9 13.9 C 31.9 13.9 31.93 13.87 31.9 13.9 Z M 30.6 14.2 C 31 14.2 31.3 14.1 31.6 13.8 C 31.8 13.5 32 13.2 32 12.8 C 32 12.8 32 12.8 32 12.8 C 32 12.4 31.8 12 31.6 11.8 C 31.3 11.5 31 11.4 30.6 11.4 C 30.3 11.4 30 11.5 29.7 11.8 C 29.5 12 29.4 12.4 29.4 12.8 C 29.4 12.8 29.4 12.8 29.4 12.8 C 29.4 13.2 29.5 13.6 29.7 13.8 C 30 14.1 30.3 14.2 30.6 14.2 Z M 36.2 14 C 36 14.4 35.5 14.7 35 14.7 C 34.6 14.7 34.2 14.5 34 14.3 C 33.7 14 33.6 13.7 33.6 13.2 C 33.62 13.23 33.6 11 33.6 11 L 34.2 11 C 34.2 11 34.16 13.09 34.2 13.1 C 34.2 13.4 34.2 13.7 34.4 13.9 C 34.6 14.1 34.8 14.2 35.2 14.2 C 35.5 14.2 35.7 14.1 35.9 13.9 C 36.1 13.7 36.2 13.4 36.2 13.1 C 36.25 13.05 36.2 11 36.2 11 L 36.8 11 L 36.8 14.6 L 36.2 14.6 L 36.2 14 C 36.2 14 36.25 13.97 36.2 14 Z M 38 11.7 L 38 11 L 38.6 11 L 38.6 11.7 L 38 11.7 Z M 38 14.6 L 38 13.9 L 38.6 13.9 L 38.6 14.6 L 38 14.6 Z M 41.7 14.6 L 41.7 13.8 L 44.4 10.6 L 41.8 10.6 L 41.8 9.7 L 45.8 9.7 L 45.8 10.5 L 43.1 13.7 L 45.8 13.7 L 45.8 14.6 L 41.7 14.6 Z M 46.8 14.6 L 46.8 9.7 C 46.8 9.7 48.72 9.7 48.7 9.7 C 49.5 9.7 50.1 9.9 50.6 10.4 C 51.1 10.9 51.3 11.4 51.3 12.1 C 51.3 12.1 51.3 12.1 51.3 12.1 C 51.3 12.8 51.1 13.4 50.6 13.9 C 50.1 14.4 49.5 14.6 48.7 14.6 C 48.72 14.6 46.8 14.6 46.8 14.6 Z M 48.7 10.7 C 48.72 10.67 47.9 10.7 47.9 10.7 L 47.9 13.6 C 47.9 13.6 48.72 13.63 48.7 13.6 C 49.2 13.6 49.5 13.5 49.8 13.2 C 50.1 13 50.2 12.6 50.2 12.2 C 50.2 12.2 50.2 12.1 50.2 12.1 C 50.2 11.7 50.1 11.4 49.8 11.1 C 49.5 10.8 49.2 10.7 48.7 10.7 Z M 56 14.7 C 55.2 14.7 54.5 14.4 54.1 13.8 C 54.1 13.8 54.8 13.1 54.8 13.1 C 55.1 13.5 55.5 13.7 56 13.7 C 56.2 13.7 56.4 13.7 56.5 13.6 C 56.6 13.4 56.7 13.3 56.7 13.1 C 56.7 13.1 56.7 13.1 56.7 13.1 C 56.7 12.9 56.6 12.8 56.4 12.6 C 56.3 12.5 56 12.5 55.7 12.5 C 55.72 12.49 55.3 12.5 55.3 12.5 L 55.1 11.8 L 56.3 10.6 L 54.3 10.6 L 54.3 9.7 L 57.7 9.7 L 57.7 10.5 C 57.7 10.5 56.42 11.69 56.4 11.7 C 57.3 11.8 57.7 12.3 57.7 13.1 C 57.7 13.1 57.7 13.1 57.7 13.1 C 57.7 13.6 57.6 13.9 57.3 14.2 C 56.9 14.5 56.5 14.7 56 14.7 Z M 60.3 14.7 C 59.5 14.7 58.9 14.4 58.4 13.8 C 58.4 13.8 59.1 13.1 59.1 13.1 C 59.5 13.5 59.9 13.7 60.3 13.7 C 60.5 13.7 60.7 13.7 60.8 13.6 C 61 13.4 61 13.3 61 13.1 C 61 13.1 61 13.1 61 13.1 C 61 12.9 60.9 12.8 60.8 12.6 C 60.6 12.5 60.4 12.5 60.1 12.5 C 60.07 12.49 59.6 12.5 59.6 12.5 L 59.5 11.8 L 60.6 10.6 L 58.7 10.6 L 58.7 9.7 L 62 9.7 L 62 10.5 C 62 10.5 60.77 11.69 60.8 11.7 C 61.6 11.8 62.1 12.3 62.1 13.1 C 62.1 13.1 62.1 13.1 62.1 13.1 C 62.1 13.6 61.9 13.9 61.6 14.2 C 61.3 14.5 60.9 14.7 60.3 14.7 Z M 65 14.7 C 64.4 14.7 63.9 14.4 63.5 14 C 63.1 13.5 62.9 12.9 62.9 12.2 C 62.9 12.2 62.9 12.1 62.9 12.1 C 62.9 11.4 63.1 10.8 63.5 10.3 C 63.9 9.9 64.4 9.6 65.1 9.6 C 65.7 9.6 66.2 9.9 66.6 10.3 C 67 10.8 67.2 11.4 67.2 12.1 C 67.2 12.1 67.2 12.1 67.2 12.1 C 67.2 12.9 67 13.5 66.6 14 C 66.2 14.4 65.7 14.7 65 14.7 Z M 64 12.1 C 64 12.6 64.1 13 64.3 13.3 C 64.5 13.6 64.7 13.7 65.1 13.7 C 65.4 13.7 65.6 13.6 65.8 13.3 C 66 13 66.1 12.6 66.1 12.2 C 66.1 12.2 66.1 12.1 66.1 12.1 C 66.1 11.7 66 11.3 65.8 11 C 65.6 10.7 65.4 10.6 65 10.6 C 64.7 10.6 64.5 10.7 64.3 11 C 64.1 11.3 64 11.7 64 12.1 C 63.97 12.14 64 12.1 64 12.1 C 64 12.1 63.97 12.15 64 12.1 Z M 70.4 14.6 L 70.4 13.5 L 68 13.5 L 67.8 12.8 L 70.5 9.7 L 71.4 9.7 L 71.4 12.7 L 72.1 12.7 L 72.1 13.5 L 71.4 13.5 L 71.4 14.6 L 70.4 14.6 Z M 69.1 12.7 L 70.4 12.7 L 70.4 11.1 L 69.1 12.7 Z M 74.8 14.7 C 74.2 14.7 73.7 14.5 73.4 14.2 C 73 13.8 72.8 13.2 72.8 12.3 C 72.8 12.3 72.8 12.3 72.8 12.3 C 72.8 11.5 73 10.9 73.3 10.4 C 73.7 9.9 74.2 9.6 74.9 9.6 C 75.5 9.6 76 9.8 76.5 10.2 C 76.5 10.2 75.9 11 75.9 11 C 75.7 10.9 75.6 10.8 75.4 10.7 C 75.3 10.6 75.1 10.6 74.9 10.6 C 74.7 10.6 74.6 10.6 74.5 10.7 C 74.3 10.8 74.2 10.9 74.2 11 C 74.1 11.1 74 11.3 74 11.4 C 74 11.5 73.9 11.6 73.9 11.7 C 74.2 11.5 74.6 11.4 74.9 11.4 C 75.4 11.4 75.9 11.6 76.2 11.8 C 76.5 12.1 76.7 12.5 76.7 13 C 76.7 13 76.7 13 76.7 13 C 76.7 13.5 76.5 13.9 76.1 14.2 C 75.8 14.5 75.3 14.7 74.8 14.7 Z M 73.9 13 C 73.9 13.2 74 13.4 74.1 13.6 C 74.3 13.7 74.5 13.8 74.8 13.8 C 75 13.8 75.2 13.7 75.4 13.6 C 75.5 13.4 75.6 13.3 75.6 13 C 75.6 13 75.6 13 75.6 13 C 75.6 12.8 75.5 12.6 75.4 12.5 C 75.2 12.4 75 12.3 74.7 12.3 C 74.5 12.3 74.3 12.4 74.1 12.5 C 74 12.6 73.9 12.8 73.9 13 C 73.9 13.02 73.9 13 73.9 13 C 73.9 13 73.9 13.03 73.9 13 Z M 79.8 14.6 L 79.8 13.5 L 77.4 13.5 L 77.3 12.8 L 80 9.7 L 80.9 9.7 L 80.9 12.7 L 81.5 12.7 L 81.5 13.5 L 80.9 13.5 L 80.9 14.6 L 79.8 14.6 Z M 78.5 12.7 L 79.8 12.7 L 79.8 11.1 L 78.5 12.7 Z " stroke="none" fill="#000"/>  </g>  <g id="Polygon45591">    <path d="M 0.6 5.6 L 0.6 0.7 L 1.7 0.7 L 1.7 2.8 L 3.6 0.7 L 5 0.7 L 3 2.8 L 5 5.6 L 3.8 5.6 L 2.2 3.5 L 1.7 4.1 L 1.7 5.6 L 0.6 5.6 Z M 7.8 5.2 C 7.5 5.5 7.1 5.7 6.6 5.7 C 6.3 5.7 6 5.6 5.7 5.4 C 5.5 5.2 5.4 4.9 5.4 4.5 C 5.4 4.5 5.4 4.5 5.4 4.5 C 5.4 4.1 5.5 3.8 5.8 3.6 C 6 3.4 6.4 3.3 6.9 3.3 C 7.2 3.3 7.5 3.4 7.8 3.5 C 7.8 3.5 7.8 3.4 7.8 3.4 C 7.8 2.9 7.5 2.7 7 2.7 C 6.6 2.7 6.3 2.8 5.9 2.9 C 5.9 2.9 5.7 2.1 5.7 2.1 C 6.2 1.9 6.6 1.8 7.1 1.8 C 7.7 1.8 8.1 1.9 8.4 2.2 C 8.7 2.5 8.8 2.9 8.8 3.4 C 8.81 3.42 8.8 5.6 8.8 5.6 L 7.8 5.6 L 7.8 5.2 C 7.8 5.2 7.78 5.19 7.8 5.2 Z M 7 4.9 C 7.2 4.9 7.4 4.9 7.6 4.8 C 7.7 4.6 7.8 4.5 7.8 4.3 C 7.8 4.3 7.8 4.1 7.8 4.1 C 7.6 4 7.4 3.9 7.1 3.9 C 6.9 3.9 6.7 4 6.6 4.1 C 6.5 4.2 6.4 4.3 6.4 4.5 C 6.4 4.5 6.4 4.5 6.4 4.5 C 6.4 4.6 6.4 4.7 6.6 4.8 C 6.7 4.9 6.8 4.9 7 4.9 Z M 13 6.2 C 12.7 6.6 12.2 6.7 11.4 6.7 C 10.8 6.7 10.2 6.6 9.8 6.3 C 9.8 6.3 10.1 5.5 10.1 5.5 C 10.5 5.8 11 5.9 11.4 5.9 C 12.1 5.9 12.5 5.5 12.5 4.9 C 12.5 4.9 12.5 4.7 12.5 4.7 C 12.3 4.9 12.1 5 11.9 5.1 C 11.7 5.2 11.5 5.3 11.2 5.3 C 10.8 5.3 10.4 5.1 10 4.8 C 9.7 4.5 9.6 4.1 9.6 3.5 C 9.6 3.5 9.6 3.5 9.6 3.5 C 9.6 3 9.7 2.6 10.1 2.3 C 10.4 1.9 10.8 1.8 11.2 1.8 C 11.7 1.8 12.1 2 12.4 2.3 C 12.44 2.34 12.4 1.8 12.4 1.8 L 13.5 1.8 C 13.5 1.8 13.5 4.75 13.5 4.8 C 13.5 5.4 13.3 5.9 13 6.2 C 13 6.2 13 6.2 13 6.2 Z M 10.6 3.5 C 10.6 3.8 10.7 4 10.9 4.2 C 11.1 4.3 11.3 4.4 11.5 4.4 C 11.8 4.4 12 4.3 12.2 4.2 C 12.4 4 12.5 3.8 12.5 3.5 C 12.5 3.5 12.5 3.5 12.5 3.5 C 12.5 3.3 12.4 3.1 12.2 2.9 C 12 2.7 11.8 2.7 11.5 2.7 C 11.3 2.7 11.1 2.7 10.9 2.9 C 10.7 3.1 10.6 3.3 10.6 3.5 C 10.63 3.53 10.6 3.5 10.6 3.5 C 10.6 3.5 10.63 3.54 10.6 3.5 Z M 13 0.3 C 13 0.7 12.8 1 12.6 1.2 C 12.4 1.4 12 1.4 11.7 1.4 C 11.3 1.4 11 1.4 10.8 1.2 C 10.5 1 10.4 0.7 10.4 0.3 C 10.4 0.3 11.1 0.3 11.1 0.3 C 11.2 0.6 11.4 0.8 11.7 0.8 C 12 0.8 12.2 0.6 12.3 0.3 C 12.27 0.34 13 0.3 13 0.3 C 13 0.3 12.98 0.34 13 0.3 Z M 14.5 5.6 L 14.5 1.8 L 15.6 1.8 L 15.6 5.6 L 14.5 5.6 Z M 18.7 5.4 C 18.4 5.6 18.2 5.7 17.8 5.7 C 17.5 5.7 17.2 5.6 17 5.4 C 16.8 5.2 16.7 4.9 16.7 4.5 C 16.74 4.54 16.7 2.8 16.7 2.8 L 16.3 2.8 L 16.3 1.8 L 16.7 1.8 L 16.7 0.9 L 17.8 0.9 L 17.8 1.8 L 18.7 1.8 L 18.7 2.8 L 17.8 2.8 C 17.8 2.8 17.81 4.36 17.8 4.4 C 17.8 4.6 17.9 4.7 18.2 4.7 C 18.3 4.7 18.5 4.7 18.7 4.6 C 18.68 4.59 18.7 5.4 18.7 5.4 C 18.7 5.4 18.68 5.45 18.7 5.4 Z M 21.7 5.6 L 21.7 0.7 L 22.8 0.7 L 22.8 2.6 L 24.8 2.6 L 24.8 0.7 L 25.8 0.7 L 25.8 5.6 L 24.8 5.6 L 24.8 3.6 L 22.8 3.6 L 22.8 5.6 L 21.7 5.6 Z M 29.1 5.2 C 28.8 5.5 28.4 5.7 28 5.7 C 27.6 5.7 27.3 5.6 27 5.4 C 26.8 5.2 26.7 4.9 26.7 4.5 C 26.7 4.5 26.7 4.5 26.7 4.5 C 26.7 4.1 26.8 3.8 27.1 3.6 C 27.4 3.4 27.7 3.3 28.2 3.3 C 28.5 3.3 28.8 3.4 29.1 3.5 C 29.1 3.5 29.1 3.4 29.1 3.4 C 29.1 2.9 28.8 2.7 28.3 2.7 C 28 2.7 27.6 2.8 27.3 2.9 C 27.3 2.9 27 2.1 27 2.1 C 27.5 1.9 27.9 1.8 28.4 1.8 C 29 1.8 29.4 1.9 29.7 2.2 C 30 2.5 30.1 2.9 30.1 3.4 C 30.12 3.42 30.1 5.6 30.1 5.6 L 29.1 5.6 L 29.1 5.2 C 29.1 5.2 29.09 5.19 29.1 5.2 Z M 28.3 4.9 C 28.5 4.9 28.7 4.9 28.9 4.8 C 29 4.6 29.1 4.5 29.1 4.3 C 29.1 4.3 29.1 4.1 29.1 4.1 C 28.9 4 28.7 3.9 28.4 3.9 C 28.2 3.9 28 4 27.9 4.1 C 27.8 4.2 27.7 4.3 27.7 4.5 C 27.7 4.5 27.7 4.5 27.7 4.5 C 27.7 4.6 27.8 4.7 27.9 4.8 C 28 4.9 28.1 4.9 28.3 4.9 Z M 32.2 5.6 L 30.7 1.8 L 31.8 1.8 L 32.7 4.4 L 33.5 1.8 L 34.6 1.8 L 33.1 5.6 L 32.2 5.6 Z M 35.3 5.6 L 35.3 0.5 L 36.4 0.5 L 36.4 5.6 L 35.3 5.6 Z M 39.7 5.1 C 39.4 5.5 39 5.7 38.6 5.7 C 38.2 5.7 37.9 5.5 37.7 5.3 C 37.4 5.1 37.3 4.7 37.3 4.3 C 37.32 4.28 37.3 1.8 37.3 1.8 L 38.4 1.8 C 38.4 1.8 38.39 3.94 38.4 3.9 C 38.4 4.4 38.6 4.7 39 4.7 C 39.2 4.7 39.4 4.6 39.5 4.5 C 39.6 4.4 39.7 4.2 39.7 3.9 C 39.7 3.94 39.7 1.8 39.7 1.8 L 40.8 1.8 L 40.8 5.6 L 39.7 5.6 L 39.7 5.1 C 39.7 5.1 39.7 5.07 39.7 5.1 Z M 45.1 5.6 L 45.1 1.7 L 43.6 1.7 L 43.6 0.7 L 47.6 0.7 L 47.6 1.7 L 46.1 1.7 L 46.1 5.6 L 45.1 5.6 Z M 50.7 5.1 C 50.4 5.5 50 5.7 49.6 5.7 C 49.2 5.7 48.9 5.5 48.7 5.3 C 48.4 5.1 48.3 4.7 48.3 4.3 C 48.32 4.28 48.3 1.8 48.3 1.8 L 49.4 1.8 C 49.4 1.8 49.38 3.94 49.4 3.9 C 49.4 4.4 49.6 4.7 50 4.7 C 50.2 4.7 50.4 4.6 50.5 4.5 C 50.6 4.4 50.7 4.2 50.7 3.9 C 50.69 3.94 50.7 1.8 50.7 1.8 L 51.8 1.8 L 51.8 5.6 L 50.7 5.6 L 50.7 5.1 C 50.7 5.1 50.69 5.07 50.7 5.1 Z M 54.8 5.4 C 54.6 5.6 54.3 5.7 54 5.7 C 53.6 5.7 53.4 5.6 53.2 5.4 C 53 5.2 52.9 4.9 52.9 4.5 C 52.88 4.54 52.9 2.8 52.9 2.8 L 52.4 2.8 L 52.4 1.8 L 52.9 1.8 L 52.9 0.9 L 53.9 0.9 L 53.9 1.8 L 54.8 1.8 L 54.8 2.8 L 53.9 2.8 C 53.9 2.8 53.95 4.36 53.9 4.4 C 53.9 4.6 54.1 4.7 54.3 4.7 C 54.5 4.7 54.7 4.7 54.8 4.6 C 54.82 4.59 54.8 5.4 54.8 5.4 C 54.8 5.4 54.82 5.45 54.8 5.4 Z M 58 5.1 C 57.6 5.5 57.3 5.7 56.9 5.7 C 56.5 5.7 56.1 5.5 55.9 5.3 C 55.7 5.1 55.6 4.7 55.6 4.3 C 55.59 4.28 55.6 1.8 55.6 1.8 L 56.7 1.8 C 56.7 1.8 56.65 3.94 56.7 3.9 C 56.7 4.4 56.9 4.7 57.3 4.7 C 57.5 4.7 57.7 4.6 57.8 4.5 C 57.9 4.4 58 4.2 58 3.9 C 57.96 3.94 58 1.8 58 1.8 L 59 1.8 L 59 5.6 L 58 5.6 L 58 5.1 C 58 5.1 57.96 5.07 58 5.1 Z M 61.7 5.7 C 61.2 5.7 60.7 5.5 60.4 5.1 C 60 4.7 59.8 4.3 59.8 3.7 C 59.8 3.7 59.8 3.7 59.8 3.7 C 59.8 3.2 60 2.7 60.4 2.3 C 60.7 2 61.2 1.8 61.8 1.8 C 62.4 1.8 62.9 2 63.3 2.4 C 63.3 2.4 62.6 3.1 62.6 3.1 C 62.5 3 62.3 2.9 62.2 2.8 C 62.1 2.7 61.9 2.7 61.8 2.7 C 61.5 2.7 61.3 2.8 61.1 3 C 60.9 3.2 60.8 3.4 60.8 3.7 C 60.8 3.7 60.8 3.7 60.8 3.7 C 60.8 4 60.9 4.3 61.1 4.5 C 61.3 4.7 61.5 4.8 61.8 4.8 C 62.1 4.8 62.4 4.6 62.7 4.4 C 62.7 4.4 63.3 5 63.3 5 C 63.1 5.2 62.9 5.4 62.6 5.5 C 62.4 5.6 62.1 5.7 61.7 5.7 Z M 66.3 5.1 C 66 5.5 65.6 5.7 65.2 5.7 C 64.8 5.7 64.5 5.5 64.3 5.3 C 64.1 5.1 63.9 4.7 63.9 4.3 C 63.94 4.28 63.9 1.8 63.9 1.8 L 65 1.8 C 65 1.8 65.01 3.94 65 3.9 C 65 4.4 65.2 4.7 65.7 4.7 C 65.9 4.7 66 4.6 66.1 4.5 C 66.3 4.4 66.3 4.2 66.3 3.9 C 66.32 3.94 66.3 1.8 66.3 1.8 L 67.4 1.8 L 67.4 5.6 L 66.3 5.6 L 66.3 5.1 C 66.3 5.1 66.32 5.07 66.3 5.1 Z M 70.3 3.9 L 70.3 2.9 L 73.3 2.9 L 73.3 3.9 L 70.3 3.9 Z M 78.1 5.7 C 77.3 5.7 76.6 5.4 76 4.9 C 76 4.9 76.6 4.1 76.6 4.1 C 77.1 4.5 77.6 4.7 78.1 4.7 C 78.3 4.7 78.5 4.7 78.6 4.6 C 78.7 4.5 78.8 4.4 78.8 4.3 C 78.8 4.3 78.8 4.2 78.8 4.2 C 78.8 4.1 78.7 4 78.6 3.9 C 78.5 3.8 78.2 3.7 77.8 3.6 C 77.5 3.5 77.3 3.5 77.1 3.4 C 77 3.3 76.8 3.3 76.6 3.1 C 76.5 3 76.4 2.9 76.3 2.7 C 76.2 2.6 76.2 2.4 76.2 2.1 C 76.2 2.1 76.2 2.1 76.2 2.1 C 76.2 1.7 76.4 1.3 76.7 1 C 77 0.8 77.4 0.6 77.9 0.6 C 78.6 0.6 79.2 0.8 79.7 1.3 C 79.7 1.3 79.2 2.1 79.2 2.1 C 78.7 1.7 78.3 1.6 77.9 1.6 C 77.7 1.6 77.5 1.6 77.4 1.7 C 77.3 1.8 77.3 1.9 77.3 2 C 77.3 2 77.3 2 77.3 2 C 77.3 2.2 77.3 2.3 77.5 2.4 C 77.6 2.5 77.9 2.6 78.3 2.7 C 78.9 2.8 79.3 3 79.5 3.2 C 79.8 3.4 79.9 3.7 79.9 4.1 C 79.9 4.1 79.9 4.2 79.9 4.2 C 79.9 4.6 79.7 5 79.4 5.3 C 79.1 5.5 78.6 5.7 78.1 5.7 Z M 80.7 1.4 L 80.7 0.5 L 81.8 0.5 L 81.8 1.4 L 80.7 1.4 Z M 80.8 5.6 L 80.8 1.8 L 81.8 1.8 L 81.8 5.6 L 80.8 5.6 Z M 82.8 5.6 L 82.8 1.8 L 83.9 1.8 C 83.9 1.8 83.89 2.38 83.9 2.4 C 84.2 2 84.6 1.8 85 1.8 C 85.4 1.8 85.7 1.9 85.9 2.1 C 86.1 2.4 86.3 2.7 86.3 3.2 C 86.26 3.17 86.3 5.6 86.3 5.6 L 85.2 5.6 C 85.2 5.6 85.2 3.51 85.2 3.5 C 85.2 3 85 2.7 84.6 2.7 C 84.3 2.7 84.2 2.8 84.1 2.9 C 83.9 3.1 83.9 3.3 83.9 3.5 C 83.89 3.51 83.9 5.6 83.9 5.6 L 82.8 5.6 Z M 90.5 6.2 C 90.1 6.6 89.6 6.7 88.9 6.7 C 88.3 6.7 87.7 6.6 87.2 6.3 C 87.2 6.3 87.6 5.5 87.6 5.5 C 88 5.8 88.4 5.9 88.8 5.9 C 89.5 5.9 89.9 5.5 89.9 4.9 C 89.9 4.9 89.9 4.7 89.9 4.7 C 89.7 4.9 89.6 5 89.4 5.1 C 89.2 5.2 89 5.3 88.7 5.3 C 88.2 5.3 87.8 5.1 87.5 4.8 C 87.2 4.5 87 4.1 87 3.5 C 87 3.5 87 3.5 87 3.5 C 87 3 87.2 2.6 87.5 2.3 C 87.8 1.9 88.2 1.8 88.7 1.8 C 89.1 1.8 89.6 2 89.9 2.3 C 89.89 2.34 89.9 1.8 89.9 1.8 L 91 1.8 C 91 1.8 90.96 4.75 91 4.8 C 91 5.4 90.8 5.9 90.5 6.2 C 90.5 6.2 90.5 6.2 90.5 6.2 Z M 88.1 3.5 C 88.1 3.8 88.2 4 88.3 4.2 C 88.5 4.3 88.7 4.4 89 4.4 C 89.3 4.4 89.5 4.3 89.6 4.2 C 89.8 4 89.9 3.8 89.9 3.5 C 89.9 3.5 89.9 3.5 89.9 3.5 C 89.9 3.3 89.8 3.1 89.6 2.9 C 89.5 2.7 89.3 2.7 89 2.7 C 88.7 2.7 88.5 2.7 88.3 2.9 C 88.2 3.1 88.1 3.3 88.1 3.5 C 88.08 3.53 88.1 3.5 88.1 3.5 C 88.1 3.5 88.08 3.54 88.1 3.5 Z M 92 5.6 L 92 0.5 L 93 0.5 L 93 5.6 L 92 5.6 Z M 97.3 5 C 97 5.5 96.4 5.7 95.8 5.7 C 95.2 5.7 94.8 5.5 94.4 5.1 C 94 4.8 93.8 4.3 93.8 3.7 C 93.8 3.7 93.8 3.7 93.8 3.7 C 93.8 3.2 94 2.7 94.4 2.3 C 94.7 2 95.2 1.8 95.7 1.8 C 96.3 1.8 96.7 2 97.1 2.4 C 97.4 2.8 97.5 3.2 97.5 3.8 C 97.5 3.9 97.5 4 97.5 4.1 C 97.5 4.1 94.9 4.1 94.9 4.1 C 94.9 4.3 95.1 4.5 95.2 4.6 C 95.4 4.8 95.6 4.8 95.8 4.8 C 96.1 4.8 96.4 4.7 96.7 4.4 C 96.72 4.44 97.3 5 97.3 5 C 97.3 5 97.33 4.98 97.3 5 Z M 94.9 3.4 C 94.9 3.4 96.5 3.4 96.5 3.4 C 96.5 3.2 96.4 3 96.2 2.8 C 96.1 2.7 95.9 2.6 95.7 2.6 C 95.5 2.6 95.3 2.7 95.2 2.8 C 95 3 94.9 3.2 94.9 3.4 Z M 99.6 5.7 C 99 5.7 98.5 5.5 98 5.1 C 98 5.1 98.5 4.4 98.5 4.4 C 98.9 4.7 99.3 4.9 99.7 4.9 C 100 4.9 100.1 4.8 100.1 4.6 C 100.1 4.6 100.1 4.6 100.1 4.6 C 100.1 4.5 100.1 4.5 100.1 4.5 C 100.1 4.4 100.1 4.4 100 4.4 C 100 4.4 100 4.4 99.9 4.3 C 99.9 4.3 99.9 4.3 99.8 4.3 C 99.7 4.3 99.7 4.2 99.7 4.2 C 99.6 4.2 99.6 4.2 99.5 4.2 C 99.4 4.2 99.4 4.1 99.3 4.1 C 99.2 4.1 99 4 98.9 4 C 98.8 3.9 98.7 3.9 98.6 3.8 C 98.5 3.7 98.4 3.6 98.3 3.5 C 98.2 3.3 98.2 3.2 98.2 3 C 98.2 3 98.2 3 98.2 3 C 98.2 2.6 98.3 2.3 98.6 2.1 C 98.9 1.9 99.2 1.8 99.6 1.8 C 100.1 1.8 100.5 1.9 101 2.2 C 101 2.2 100.6 3 100.6 3 C 100.2 2.7 99.8 2.6 99.6 2.6 C 99.4 2.6 99.3 2.6 99.3 2.7 C 99.2 2.7 99.2 2.8 99.2 2.9 C 99.2 2.9 99.2 2.9 99.2 2.9 C 99.2 3 99.2 3 99.4 3.1 C 99.5 3.2 99.7 3.3 99.9 3.3 C 100.1 3.4 100.2 3.4 100.3 3.5 C 100.4 3.5 100.6 3.6 100.7 3.7 C 100.8 3.8 100.9 3.9 101 4 C 101 4.1 101.1 4.3 101.1 4.4 C 101.1 4.4 101.1 4.5 101.1 4.5 C 101.1 4.9 100.9 5.2 100.7 5.4 C 100.4 5.6 100.1 5.7 99.6 5.7 Z " stroke="none" fill="#000"/>  </g></svg>