<?xml version="1.0" standalone="no"?><!DOCTYPE svg PUBLIC "-//W3C//DTD SVG 1.1//EN" "http://www.w3.org/Graphics/SVG/1.1/DTD/svg11.dtd"><svg xmlns="http://www.w3.org/2000/svg" version="1.1" width="200.3px" height="124.1px" viewBox="0 -4 200.3 124.1" style="top:-4px">  <desc>“E er elimden gelse, senin yerine bula klar y kard m...”</desc>  <defs/>  <g id="Polygon50043">    <path d="M 4.7 47.6 L 6.5 41.9 L 8.9 41.9 C 8.9 41.9 5.74 50.41 5.7 50.4 C 5.4 51.3 5.1 51.9 4.7 52.2 C 4.3 52.6 3.7 52.7 3 52.7 C 2.3 52.7 1.6 52.5 0.9 52.2 C 0.9 52.2 1.7 50.5 1.7 50.5 C 2.1 50.7 2.4 50.8 2.7 50.8 C 2.9 50.8 3.1 50.7 3.2 50.7 C 3.3 50.6 3.4 50.4 3.6 50.2 C 3.55 50.24 0.3 41.9 0.3 41.9 L 2.8 41.9 L 4.7 47.6 Z M 10.4 50.2 L 10.4 41.9 L 12.8 41.9 L 12.8 50.2 L 10.4 50.2 Z M 15 50.2 L 15 38.9 L 17.3 38.9 L 17.3 44.9 L 20.1 41.9 L 22.9 41.9 L 19.7 45.2 L 23 50.2 L 20.3 50.2 L 18.2 46.8 L 17.3 47.7 L 17.3 50.2 L 15 50.2 Z M 29 49.3 C 28.3 50 27.5 50.4 26.5 50.4 C 25.6 50.4 25 50.1 24.4 49.7 C 23.9 49.2 23.6 48.6 23.6 47.8 C 23.6 47.8 23.6 47.8 23.6 47.8 C 23.6 46.9 23.9 46.3 24.5 45.8 C 25.1 45.4 25.9 45.2 26.9 45.2 C 27.6 45.2 28.3 45.3 29 45.5 C 29 45.5 29 45.4 29 45.4 C 29 44.4 28.4 43.9 27.2 43.9 C 26.4 43.9 25.7 44 24.9 44.3 C 24.9 44.3 24.3 42.5 24.3 42.5 C 25.4 42.1 26.4 41.8 27.5 41.8 C 28.8 41.8 29.7 42.2 30.3 42.8 C 30.9 43.4 31.2 44.2 31.2 45.4 C 31.22 45.41 31.2 50.2 31.2 50.2 L 29 50.2 L 29 49.3 C 29 49.3 28.96 49.32 29 49.3 Z M 27.2 48.7 C 27.7 48.7 28.2 48.6 28.5 48.3 C 28.8 48.1 29 47.7 29 47.3 C 29 47.3 29 46.9 29 46.9 C 28.5 46.7 28 46.6 27.5 46.6 C 27 46.6 26.6 46.7 26.3 46.9 C 26 47.1 25.9 47.3 25.9 47.7 C 25.9 47.7 25.9 47.7 25.9 47.7 C 25.9 48 26 48.3 26.2 48.5 C 26.5 48.7 26.8 48.7 27.2 48.7 Z M 33.2 50.2 L 33.2 41.9 L 35.6 41.9 C 35.6 41.9 35.59 43.6 35.6 43.6 C 36.1 42.3 37 41.7 38.2 41.8 C 38.23 41.78 38.2 44.2 38.2 44.2 C 38.2 44.2 38.11 44.24 38.1 44.2 C 37.3 44.2 36.7 44.5 36.2 45 C 35.8 45.4 35.6 46.2 35.6 47.2 C 35.59 47.15 35.6 50.2 35.6 50.2 L 33.2 50.2 Z M 45.7 49 C 45 49.9 44.2 50.4 43.1 50.4 C 42.1 50.4 41.2 50 40.4 49.2 C 39.7 48.4 39.3 47.4 39.3 46.1 C 39.3 46.1 39.3 46.1 39.3 46.1 C 39.3 44.7 39.7 43.7 40.4 42.9 C 41.2 42.2 42.1 41.8 43.1 41.8 C 44.1 41.8 45 42.2 45.7 43 C 45.67 43.02 45.7 38.9 45.7 38.9 L 48 38.9 L 48 50.2 L 45.7 50.2 L 45.7 49 C 45.7 49 45.67 49.02 45.7 49 Z M 41.7 46.1 C 41.7 46.8 41.9 47.3 42.3 47.7 C 42.7 48.2 43.1 48.4 43.7 48.4 C 44.3 48.4 44.7 48.2 45.1 47.7 C 45.5 47.3 45.7 46.8 45.7 46.1 C 45.7 46.1 45.7 46.1 45.7 46.1 C 45.7 45.4 45.5 44.8 45.1 44.4 C 44.7 44 44.3 43.8 43.7 43.8 C 43.1 43.8 42.7 44 42.3 44.4 C 41.9 44.8 41.7 45.4 41.7 46.1 C 41.67 46.06 41.7 46.1 41.7 46.1 C 41.7 46.1 41.67 46.09 41.7 46.1 Z M 50.2 50.2 L 50.2 41.9 L 52.6 41.9 L 52.6 50.2 L 50.2 50.2 Z M 54.8 50.2 L 54.8 41.9 L 57.1 41.9 C 57.1 41.9 57.12 43.11 57.1 43.1 C 57.8 42.2 58.6 41.8 59.6 41.8 C 60.7 41.8 61.5 42.2 61.9 43.1 C 62.6 42.2 63.5 41.8 64.6 41.8 C 65.5 41.8 66.2 42 66.7 42.6 C 67.2 43.1 67.4 43.8 67.4 44.8 C 67.4 44.82 67.4 50.2 67.4 50.2 L 65.1 50.2 C 65.1 50.2 65.06 45.6 65.1 45.6 C 65.1 44.5 64.6 43.9 63.7 43.9 C 63.2 43.9 62.9 44.1 62.6 44.3 C 62.4 44.6 62.3 45.1 62.3 45.6 C 62.26 45.6 62.3 50.2 62.3 50.2 L 59.9 50.2 C 59.9 50.2 59.92 45.6 59.9 45.6 C 59.9 44.5 59.5 43.9 58.5 43.9 C 58.1 43.9 57.8 44.1 57.5 44.3 C 57.2 44.6 57.1 45.1 57.1 45.6 C 57.12 45.6 57.1 50.2 57.1 50.2 L 54.8 50.2 Z M 69.3 50.2 L 69.3 47.7 L 71.8 47.7 L 71.8 50.2 L 69.3 50.2 Z M 73.8 50.2 L 73.8 47.7 L 76.3 47.7 L 76.3 50.2 L 73.8 50.2 Z M 78.2 50.2 L 78.2 47.7 L 80.7 47.7 L 80.7 50.2 L 78.2 50.2 Z M 86.2 44.4 C 86.2 44.4 86 43.4 86 43.4 C 87.1 43.3 87.6 42.8 87.5 41.9 C 87.55 41.88 86.6 41.9 86.6 41.9 L 86.6 39.4 L 89.1 39.4 C 89.1 39.4 89.09 41.49 89.1 41.5 C 89.1 42.5 88.8 43.2 88.4 43.7 C 87.9 44.1 87.2 44.4 86.2 44.4 Z M 82.3 44.4 C 82.3 44.4 82.1 43.4 82.1 43.4 C 83.2 43.3 83.7 42.8 83.6 41.9 C 83.62 41.88 82.7 41.9 82.7 41.9 L 82.7 39.4 L 85.2 39.4 C 85.2 39.4 85.17 41.49 85.2 41.5 C 85.2 42.5 84.9 43.2 84.5 43.7 C 84 44.1 83.3 44.4 82.3 44.4 Z " stroke="none" fill="#000"/>  </g>  <g id="Polygon50042">    <path d="M 4 31.4 C 2.7 31.4 1.5 31 0.4 30.2 C 0.4 30.2 1.4 28.6 1.4 28.6 C 2.3 29.3 3.2 29.6 4 29.6 C 4.7 29.6 5 29.4 5 29 C 5 29 5 29 5 29 C 5 28.9 5 28.8 5 28.8 C 4.9 28.7 4.9 28.7 4.8 28.6 C 4.7 28.6 4.7 28.5 4.6 28.5 C 4.6 28.4 4.5 28.4 4.3 28.4 C 4.2 28.3 4.1 28.3 4 28.3 C 3.9 28.2 3.8 28.2 3.7 28.1 C 3.5 28.1 3.4 28.1 3.3 28 C 2.9 27.9 2.7 27.8 2.4 27.7 C 2.1 27.6 1.9 27.5 1.6 27.3 C 1.4 27.1 1.2 26.8 1 26.5 C 0.9 26.3 0.8 25.9 0.8 25.5 C 0.8 25.5 0.8 25.5 0.8 25.5 C 0.8 24.7 1.1 24.1 1.7 23.6 C 2.3 23.1 3 22.9 3.8 22.9 C 4.9 22.9 6 23.2 6.9 23.8 C 6.9 23.8 6 25.5 6 25.5 C 5.2 24.9 4.4 24.7 3.8 24.7 C 3.5 24.7 3.3 24.7 3.2 24.9 C 3 25 2.9 25.1 2.9 25.3 C 2.9 25.3 2.9 25.3 2.9 25.3 C 2.9 25.5 3.1 25.7 3.4 25.8 C 3.6 25.9 4.1 26.1 4.6 26.3 C 5 26.4 5.3 26.5 5.5 26.6 C 5.8 26.7 6 26.9 6.3 27.1 C 6.5 27.3 6.8 27.5 6.9 27.8 C 7 28.1 7.1 28.4 7.1 28.7 C 7.1 28.7 7.1 28.8 7.1 28.8 C 7.1 29.6 6.8 30.3 6.2 30.8 C 5.7 31.2 4.9 31.4 4 31.4 Z M 16.1 29.9 C 15.3 30.9 14.1 31.5 12.7 31.5 C 11.5 31.5 10.4 31.1 9.6 30.3 C 8.8 29.5 8.4 28.4 8.4 27.2 C 8.4 27.2 8.4 27.2 8.4 27.2 C 8.4 26 8.8 24.9 9.6 24.1 C 10.3 23.3 11.3 22.9 12.5 22.9 C 13.8 22.9 14.8 23.3 15.5 24.1 C 16.2 25 16.5 26.1 16.5 27.3 C 16.5 27.4 16.5 27.7 16.5 28 C 16.5 28 10.7 28 10.7 28 C 10.8 28.5 11.1 28.9 11.4 29.2 C 11.8 29.4 12.2 29.6 12.7 29.6 C 13.5 29.6 14.1 29.3 14.8 28.7 C 14.76 28.73 16.1 29.9 16.1 29.9 C 16.1 29.9 16.1 29.92 16.1 29.9 Z M 10.7 26.5 C 10.7 26.5 14.2 26.5 14.2 26.5 C 14.2 26 14 25.5 13.7 25.2 C 13.4 24.9 13 24.7 12.5 24.7 C 12 24.7 11.6 24.9 11.3 25.2 C 11 25.5 10.8 25.9 10.7 26.5 Z M 18.3 31.3 L 18.3 23 L 20.6 23 C 20.6 23 20.61 24.18 20.6 24.2 C 21.3 23.3 22.1 22.9 23 22.9 C 23.9 22.9 24.6 23.1 25.1 23.7 C 25.6 24.2 25.8 25 25.8 25.9 C 25.84 25.92 25.8 31.3 25.8 31.3 L 23.5 31.3 C 23.5 31.3 23.49 26.66 23.5 26.7 C 23.5 25.5 23 25 22.1 25 C 21.6 25 21.2 25.1 21 25.4 C 20.7 25.7 20.6 26.1 20.6 26.7 C 20.61 26.66 20.6 31.3 20.6 31.3 L 18.3 31.3 Z M 27.9 22.1 L 27.9 20 L 30.4 20 L 30.4 22.1 L 27.9 22.1 Z M 28 31.3 L 28 23 L 30.3 23 L 30.3 31.3 L 28 31.3 Z M 32.5 31.3 L 32.5 23 L 34.9 23 C 34.9 23 34.88 24.18 34.9 24.2 C 35.6 23.3 36.4 22.9 37.3 22.9 C 38.2 22.9 38.9 23.1 39.4 23.7 C 39.9 24.2 40.1 25 40.1 25.9 C 40.11 25.92 40.1 31.3 40.1 31.3 L 37.8 31.3 C 37.8 31.3 37.77 26.66 37.8 26.7 C 37.8 25.5 37.3 25 36.3 25 C 35.9 25 35.5 25.1 35.3 25.4 C 35 25.7 34.9 26.1 34.9 26.7 C 34.88 26.66 34.9 31.3 34.9 31.3 L 32.5 31.3 Z M 50.4 28.6 L 52.2 23 L 54.7 23 C 54.7 23 51.47 31.48 51.5 31.5 C 51.2 32.3 50.8 32.9 50.4 33.3 C 50 33.6 49.4 33.8 48.8 33.8 C 48 33.8 47.3 33.6 46.7 33.2 C 46.7 33.2 47.5 31.5 47.5 31.5 C 47.8 31.7 48.2 31.9 48.5 31.9 C 48.7 31.9 48.8 31.8 49 31.7 C 49.1 31.7 49.2 31.5 49.3 31.3 C 49.28 31.31 46 23 46 23 L 48.5 23 L 50.4 28.6 Z M 63.3 29.9 C 62.5 30.9 61.4 31.5 60 31.5 C 58.7 31.5 57.7 31.1 56.9 30.3 C 56 29.5 55.6 28.4 55.6 27.2 C 55.6 27.2 55.6 27.2 55.6 27.2 C 55.6 26 56 24.9 56.8 24.1 C 57.6 23.3 58.5 22.9 59.7 22.9 C 61 22.9 62 23.3 62.7 24.1 C 63.4 25 63.8 26.1 63.8 27.3 C 63.8 27.4 63.7 27.7 63.7 28 C 63.7 28 58 28 58 28 C 58.1 28.5 58.3 28.9 58.7 29.2 C 59 29.4 59.5 29.6 60 29.6 C 60.7 29.6 61.4 29.3 62 28.7 C 62 28.73 63.3 29.9 63.3 29.9 C 63.3 29.9 63.34 29.92 63.3 29.9 Z M 57.9 26.5 C 57.9 26.5 61.5 26.5 61.5 26.5 C 61.4 26 61.2 25.5 60.9 25.2 C 60.6 24.9 60.2 24.7 59.7 24.7 C 59.2 24.7 58.9 24.9 58.5 25.2 C 58.2 25.5 58 25.9 57.9 26.5 Z M 65.5 31.3 L 65.5 23 L 67.9 23 C 67.9 23 67.85 24.67 67.9 24.7 C 68.4 23.4 69.3 22.8 70.5 22.9 C 70.49 22.85 70.5 25.3 70.5 25.3 C 70.5 25.3 70.37 25.31 70.4 25.3 C 69.6 25.3 68.9 25.5 68.5 26 C 68.1 26.5 67.9 27.2 67.9 28.2 C 67.85 28.22 67.9 31.3 67.9 31.3 L 65.5 31.3 Z M 72 22.1 L 72 20 L 74.5 20 L 74.5 22.1 L 72 22.1 Z M 72.1 31.3 L 72.1 23 L 74.4 23 L 74.4 31.3 L 72.1 31.3 Z M 76.6 31.3 L 76.6 23 L 79 23 C 79 23 78.96 24.18 79 24.2 C 79.7 23.3 80.5 22.9 81.4 22.9 C 82.3 22.9 83 23.1 83.5 23.7 C 84 24.2 84.2 25 84.2 25.9 C 84.2 25.92 84.2 31.3 84.2 31.3 L 81.8 31.3 C 81.8 31.3 81.85 26.66 81.8 26.7 C 81.8 25.5 81.4 25 80.4 25 C 80 25 79.6 25.1 79.3 25.4 C 79.1 25.7 79 26.1 79 26.7 C 78.96 26.66 79 31.3 79 31.3 L 76.6 31.3 Z M 93.5 29.9 C 92.7 30.9 91.6 31.5 90.2 31.5 C 88.9 31.5 87.9 31.1 87.1 30.3 C 86.2 29.5 85.8 28.4 85.8 27.2 C 85.8 27.2 85.8 27.2 85.8 27.2 C 85.8 26 86.2 24.9 87 24.1 C 87.8 23.3 88.7 22.9 89.9 22.9 C 91.2 22.9 92.2 23.3 92.9 24.1 C 93.6 25 93.9 26.1 93.9 27.3 C 93.9 27.4 93.9 27.7 93.9 28 C 93.9 28 88.2 28 88.2 28 C 88.3 28.5 88.5 28.9 88.9 29.2 C 89.2 29.4 89.6 29.6 90.2 29.6 C 90.9 29.6 91.6 29.3 92.2 28.7 C 92.19 28.73 93.5 29.9 93.5 29.9 C 93.5 29.9 93.53 29.92 93.5 29.9 Z M 88.1 26.5 C 88.1 26.5 91.7 26.5 91.7 26.5 C 91.6 26 91.4 25.5 91.1 25.2 C 90.8 24.9 90.4 24.7 89.9 24.7 C 89.4 24.7 89 24.9 88.7 25.2 C 88.4 25.5 88.2 25.9 88.1 26.5 Z M 105.2 31.4 C 104.2 31.4 103.4 31 102.7 30.2 C 102.67 30.2 102.7 31.3 102.7 31.3 L 100.3 31.3 L 100.3 20 L 102.7 20 C 102.7 20 102.67 24.19 102.7 24.2 C 103.3 23.3 104.2 22.9 105.2 22.9 C 106.3 22.9 107.2 23.2 107.9 24 C 108.6 24.8 109 25.8 109 27.1 C 109 27.1 109 27.2 109 27.2 C 109 28.5 108.6 29.5 107.9 30.3 C 107.2 31.1 106.3 31.4 105.2 31.4 Z M 102.6 27.2 C 102.6 27.8 102.8 28.4 103.2 28.8 C 103.6 29.2 104.1 29.4 104.6 29.4 C 105.2 29.4 105.7 29.2 106.1 28.8 C 106.5 28.4 106.7 27.8 106.7 27.2 C 106.7 27.2 106.7 27.1 106.7 27.1 C 106.7 26.5 106.5 25.9 106.1 25.5 C 105.7 25.1 105.2 24.8 104.6 24.8 C 104.1 24.8 103.6 25.1 103.2 25.5 C 102.8 25.9 102.6 26.5 102.6 27.1 C 102.64 27.13 102.6 27.2 102.6 27.2 C 102.6 27.2 102.64 27.16 102.6 27.2 Z M 115.9 30.1 C 115.2 31 114.4 31.4 113.5 31.4 C 112.6 31.4 111.9 31.2 111.4 30.6 C 110.9 30.1 110.7 29.3 110.7 28.4 C 110.68 28.36 110.7 23 110.7 23 L 113 23 C 113 23 113.03 27.62 113 27.6 C 113 28.7 113.5 29.3 114.4 29.3 C 114.9 29.3 115.3 29.2 115.5 28.9 C 115.8 28.6 115.9 28.2 115.9 27.6 C 115.91 27.62 115.9 23 115.9 23 L 118.3 23 L 118.3 31.3 L 115.9 31.3 L 115.9 30.1 C 115.9 30.1 115.91 30.11 115.9 30.1 Z M 120.5 31.3 L 120.5 20 L 122.8 20 L 122.8 31.3 L 120.5 31.3 Z M 129.9 30.4 C 129.2 31.1 128.4 31.4 127.4 31.4 C 126.6 31.4 125.9 31.2 125.3 30.8 C 124.8 30.3 124.5 29.7 124.5 28.9 C 124.5 28.9 124.5 28.9 124.5 28.9 C 124.5 28 124.8 27.4 125.4 26.9 C 126 26.5 126.8 26.2 127.9 26.2 C 128.5 26.2 129.2 26.3 129.9 26.6 C 129.9 26.6 129.9 26.4 129.9 26.4 C 129.9 25.4 129.3 24.9 128.1 24.9 C 127.4 24.9 126.6 25.1 125.8 25.4 C 125.8 25.4 125.2 23.6 125.2 23.6 C 126.3 23.1 127.3 22.9 128.4 22.9 C 129.7 22.9 130.6 23.2 131.2 23.8 C 131.8 24.4 132.1 25.3 132.1 26.5 C 132.13 26.48 132.1 31.3 132.1 31.3 L 129.9 31.3 L 129.9 30.4 C 129.9 30.4 129.87 30.38 129.9 30.4 Z M 128.1 29.8 C 128.6 29.8 129.1 29.7 129.4 29.4 C 129.7 29.1 129.9 28.8 129.9 28.4 C 129.9 28.4 129.9 27.9 129.9 27.9 C 129.4 27.7 128.9 27.6 128.4 27.6 C 127.9 27.6 127.5 27.7 127.2 27.9 C 126.9 28.1 126.8 28.4 126.8 28.8 C 126.8 28.8 126.8 28.8 126.8 28.8 C 126.8 29.1 126.9 29.4 127.1 29.5 C 127.4 29.7 127.7 29.8 128.1 29.8 Z M 136.7 33.9 L 134.8 33.1 C 134.8 33.1 136.02 31.33 136 31.3 C 135.1 31.1 134.2 30.8 133.5 30.2 C 133.5 30.2 134.5 28.6 134.5 28.6 C 135.4 29.3 136.3 29.6 137.1 29.6 C 137.8 29.6 138.1 29.4 138.1 29 C 138.1 29 138.1 29 138.1 29 C 138.1 28.9 138.1 28.8 138.1 28.8 C 138 28.7 138 28.7 137.9 28.6 C 137.9 28.6 137.8 28.5 137.7 28.5 C 137.7 28.4 137.6 28.4 137.4 28.4 C 137.3 28.3 137.2 28.3 137.1 28.3 C 137.1 28.2 136.9 28.2 136.8 28.1 C 136.6 28.1 136.5 28.1 136.4 28 C 136.1 27.9 135.8 27.8 135.5 27.7 C 135.3 27.6 135 27.5 134.7 27.3 C 134.5 27.1 134.3 26.8 134.1 26.5 C 134 26.3 133.9 25.9 133.9 25.5 C 133.9 25.5 133.9 25.5 133.9 25.5 C 133.9 24.7 134.2 24.1 134.8 23.6 C 135.4 23.1 136.1 22.9 137 22.9 C 138 22.9 139.1 23.2 140 23.8 C 140 23.8 139.1 25.5 139.1 25.5 C 138.3 24.9 137.5 24.7 136.9 24.7 C 136.6 24.7 136.4 24.7 136.3 24.9 C 136.1 25 136 25.1 136 25.3 C 136 25.3 136 25.3 136 25.3 C 136 25.5 136.2 25.7 136.5 25.8 C 136.7 25.9 137.2 26.1 137.7 26.3 C 138.1 26.4 138.4 26.5 138.6 26.6 C 138.9 26.7 139.1 26.9 139.4 27.1 C 139.7 27.3 139.9 27.5 140 27.8 C 140.2 28.1 140.2 28.4 140.2 28.7 C 140.2 28.7 140.2 28.8 140.2 28.8 C 140.2 29.5 140 30.1 139.6 30.6 C 139.1 31 138.5 31.3 137.8 31.4 C 137.78 31.39 136.7 33.9 136.7 33.9 Z M 142 31.3 L 142 23 L 144.4 23 L 144.4 31.3 L 142 31.3 Z M 146.6 31.3 L 146.6 20 L 148.9 20 L 148.9 26 L 151.7 23 L 154.5 23 L 151.3 26.3 L 154.6 31.3 L 151.9 31.3 L 149.7 27.9 L 148.9 28.8 L 148.9 31.3 L 146.6 31.3 Z M 155.8 31.3 L 155.8 20 L 158.2 20 L 158.2 31.3 L 155.8 31.3 Z M 165.2 30.4 C 164.6 31.1 163.7 31.4 162.7 31.4 C 161.9 31.4 161.2 31.2 160.7 30.8 C 160.1 30.3 159.9 29.7 159.9 28.9 C 159.9 28.9 159.9 28.9 159.9 28.9 C 159.9 28 160.2 27.4 160.8 26.9 C 161.4 26.5 162.2 26.2 163.2 26.2 C 163.9 26.2 164.5 26.3 165.2 26.6 C 165.2 26.6 165.2 26.4 165.2 26.4 C 165.2 25.4 164.6 24.9 163.5 24.9 C 162.7 24.9 161.9 25.1 161.2 25.4 C 161.2 25.4 160.6 23.6 160.6 23.6 C 161.6 23.1 162.7 22.9 163.8 22.9 C 165 22.9 166 23.2 166.6 23.8 C 167.2 24.4 167.5 25.3 167.5 26.5 C 167.48 26.48 167.5 31.3 167.5 31.3 L 165.2 31.3 L 165.2 30.4 C 165.2 30.4 165.21 30.38 165.2 30.4 Z M 163.4 29.8 C 164 29.8 164.4 29.7 164.8 29.4 C 165.1 29.1 165.3 28.8 165.3 28.4 C 165.3 28.4 165.3 27.9 165.3 27.9 C 164.8 27.7 164.3 27.6 163.8 27.6 C 163.3 27.6 162.9 27.7 162.6 27.9 C 162.3 28.1 162.1 28.4 162.1 28.8 C 162.1 28.8 162.1 28.8 162.1 28.8 C 162.1 29.1 162.3 29.4 162.5 29.5 C 162.7 29.7 163 29.8 163.4 29.8 Z M 169.5 31.3 L 169.5 23 L 171.8 23 C 171.8 23 171.85 24.67 171.8 24.7 C 172.4 23.4 173.3 22.8 174.5 22.9 C 174.49 22.85 174.5 25.3 174.5 25.3 C 174.5 25.3 174.36 25.31 174.4 25.3 C 173.6 25.3 172.9 25.5 172.5 26 C 172.1 26.5 171.8 27.2 171.8 28.2 C 171.85 28.22 171.8 31.3 171.8 31.3 L 169.5 31.3 Z M 176.1 31.3 L 176.1 23 L 178.4 23 L 178.4 31.3 L 176.1 31.3 Z " stroke="none" fill="#000"/>  </g>  <g id="Polygon50041">    <path d="M 4.8 6.4 C 4.8 6.4 4.8 4.35 4.8 4.4 C 4.8 3.4 5 2.6 5.5 2.2 C 6 1.7 6.7 1.5 7.7 1.5 C 7.7 1.5 7.9 2.4 7.9 2.4 C 6.8 2.5 6.3 3.1 6.3 4 C 6.34 3.97 7.3 4 7.3 4 L 7.3 6.4 L 4.8 6.4 Z M 0.9 6.4 C 0.9 6.4 0.88 4.35 0.9 4.4 C 0.9 3.4 1.1 2.6 1.6 2.2 C 2.1 1.7 2.8 1.5 3.7 1.5 C 3.7 1.5 3.9 2.4 3.9 2.4 C 2.8 2.5 2.3 3.1 2.4 4 C 2.42 3.97 3.4 4 3.4 4 L 3.4 6.4 L 0.9 6.4 Z M 9.6 12.3 L 9.6 1.5 L 17.8 1.5 L 17.8 3.7 L 12 3.7 L 12 5.8 L 17.1 5.8 L 17.1 8 L 12 8 L 12 10.2 L 17.9 10.2 L 17.9 12.3 L 9.6 12.3 Z M 27 13.7 C 26.3 14.5 25.1 14.8 23.4 14.8 C 22.1 14.8 20.9 14.6 19.8 14 C 19.8 14 20.6 12.2 20.6 12.2 C 21.5 12.7 22.4 13 23.4 13 C 24.9 13 25.7 12.2 25.7 10.7 C 25.7 10.7 25.7 10.3 25.7 10.3 C 25.4 10.8 25 11.1 24.5 11.3 C 24.1 11.6 23.6 11.7 23 11.7 C 22 11.7 21.1 11.3 20.4 10.6 C 19.7 9.9 19.4 9 19.4 7.8 C 19.4 7.8 19.4 7.8 19.4 7.8 C 19.4 6.6 19.7 5.7 20.4 5 C 21.2 4.3 22 3.9 23 3.9 C 24.1 3.9 24.9 4.3 25.7 5.2 C 25.7 5.16 25.7 4.1 25.7 4.1 L 28 4.1 C 28 4.1 28.04 10.48 28 10.5 C 28 12 27.7 13 27 13.7 C 27 13.7 27 13.7 27 13.7 Z M 21.7 7.8 C 21.7 8.4 21.9 8.8 22.3 9.2 C 22.6 9.5 23.1 9.7 23.7 9.7 C 24.3 9.7 24.8 9.5 25.2 9.2 C 25.5 8.8 25.7 8.4 25.7 7.8 C 25.7 7.8 25.7 7.8 25.7 7.8 C 25.7 7.2 25.5 6.8 25.2 6.4 C 24.8 6 24.3 5.9 23.7 5.9 C 23.1 5.9 22.7 6 22.3 6.4 C 21.9 6.8 21.7 7.2 21.7 7.8 C 21.7 7.78 21.7 7.8 21.7 7.8 C 21.7 7.8 21.7 7.81 21.7 7.8 Z M 26.9 0.7 C 26.8 1.5 26.5 2.1 26 2.5 C 25.5 3 24.8 3.2 24 3.2 C 23.2 3.2 22.5 3 22 2.5 C 21.5 2.1 21.2 1.5 21.1 0.7 C 21.1 0.7 22.7 0.7 22.7 0.7 C 22.9 1.4 23.3 1.7 24 1.7 C 24.7 1.7 25.1 1.4 25.3 0.7 C 25.33 0.74 26.9 0.7 26.9 0.7 C 26.9 0.7 26.9 0.74 26.9 0.7 Z M 37.4 11 C 36.6 12 35.5 12.5 34.1 12.5 C 32.8 12.5 31.8 12.1 31 11.3 C 30.1 10.5 29.7 9.5 29.7 8.3 C 29.7 8.3 29.7 8.2 29.7 8.2 C 29.7 7 30.1 6 30.9 5.2 C 31.7 4.3 32.6 3.9 33.8 3.9 C 35.1 3.9 36.1 4.4 36.8 5.2 C 37.5 6.1 37.9 7.1 37.9 8.4 C 37.9 8.5 37.9 8.7 37.8 9 C 37.8 9 32.1 9 32.1 9 C 32.2 9.6 32.4 10 32.8 10.2 C 33.1 10.5 33.6 10.6 34.1 10.6 C 34.8 10.6 35.5 10.4 36.1 9.8 C 36.1 9.8 37.4 11 37.4 11 C 37.4 11 37.44 10.99 37.4 11 Z M 32 7.6 C 32 7.6 35.6 7.6 35.6 7.6 C 35.5 7 35.3 6.6 35 6.3 C 34.7 6 34.3 5.8 33.8 5.8 C 33.3 5.8 33 6 32.6 6.3 C 32.3 6.6 32.1 7 32 7.6 Z M 39.6 12.3 L 39.6 4.1 L 42 4.1 C 42 4.1 41.95 5.74 42 5.7 C 42.5 4.5 43.4 3.9 44.6 3.9 C 44.59 3.92 44.6 6.4 44.6 6.4 C 44.6 6.4 44.47 6.37 44.5 6.4 C 43.7 6.4 43 6.6 42.6 7.1 C 42.2 7.6 42 8.3 42 9.3 C 41.95 9.29 42 12.3 42 12.3 L 39.6 12.3 Z M 58 11 C 57.2 12 56 12.5 54.6 12.5 C 53.4 12.5 52.3 12.1 51.5 11.3 C 50.7 10.5 50.3 9.5 50.3 8.3 C 50.3 8.3 50.3 8.2 50.3 8.2 C 50.3 7 50.7 6 51.4 5.2 C 52.2 4.3 53.2 3.9 54.4 3.9 C 55.7 3.9 56.7 4.4 57.4 5.2 C 58.1 6.1 58.4 7.1 58.4 8.4 C 58.4 8.5 58.4 8.7 58.4 9 C 58.4 9 52.6 9 52.6 9 C 52.7 9.6 53 10 53.3 10.2 C 53.7 10.5 54.1 10.6 54.6 10.6 C 55.3 10.6 56 10.4 56.6 9.8 C 56.65 9.8 58 11 58 11 C 58 11 57.99 10.99 58 11 Z M 52.6 7.6 C 52.6 7.6 56.1 7.6 56.1 7.6 C 56 7 55.9 6.6 55.6 6.3 C 55.3 6 54.9 5.8 54.4 5.8 C 53.9 5.8 53.5 6 53.2 6.3 C 52.9 6.6 52.7 7 52.6 7.6 Z M 60.3 12.3 L 60.3 1.1 L 62.6 1.1 L 62.6 12.3 L 60.3 12.3 Z M 64.9 3.2 L 64.9 1.1 L 67.3 1.1 L 67.3 3.2 L 64.9 3.2 Z M 64.9 12.3 L 64.9 4.1 L 67.3 4.1 L 67.3 12.3 L 64.9 12.3 Z M 69.5 12.3 L 69.5 4.1 L 71.8 4.1 C 71.8 4.1 71.82 5.25 71.8 5.2 C 72.5 4.4 73.3 3.9 74.3 3.9 C 75.4 3.9 76.1 4.4 76.6 5.2 C 77.3 4.4 78.2 3.9 79.3 3.9 C 80.2 3.9 80.9 4.2 81.4 4.7 C 81.9 5.2 82.1 6 82.1 7 C 82.1 6.96 82.1 12.3 82.1 12.3 L 79.8 12.3 C 79.8 12.3 79.75 7.73 79.8 7.7 C 79.8 6.6 79.3 6.1 78.4 6.1 C 77.9 6.1 77.6 6.2 77.3 6.5 C 77.1 6.8 77 7.2 77 7.7 C 76.96 7.73 77 12.3 77 12.3 L 74.6 12.3 C 74.6 12.3 74.61 7.73 74.6 7.7 C 74.6 6.6 74.2 6.1 73.2 6.1 C 72.8 6.1 72.4 6.2 72.2 6.5 C 71.9 6.8 71.8 7.2 71.8 7.7 C 71.82 7.73 71.8 12.3 71.8 12.3 L 69.5 12.3 Z M 90.1 11.2 C 89.5 12.1 88.6 12.5 87.5 12.5 C 86.5 12.5 85.6 12.1 84.9 11.4 C 84.1 10.6 83.8 9.5 83.8 8.2 C 83.8 8.2 83.8 8.2 83.8 8.2 C 83.8 6.9 84.1 5.8 84.9 5.1 C 85.6 4.3 86.5 3.9 87.5 3.9 C 88.6 3.9 89.4 4.3 90.1 5.2 C 90.11 5.16 90.1 1.1 90.1 1.1 L 92.5 1.1 L 92.5 12.3 L 90.1 12.3 L 90.1 11.2 C 90.1 11.2 90.11 11.16 90.1 11.2 Z M 86.1 8.2 C 86.1 8.9 86.3 9.4 86.7 9.9 C 87.1 10.3 87.6 10.5 88.1 10.5 C 88.7 10.5 89.2 10.3 89.6 9.9 C 89.9 9.4 90.1 8.9 90.1 8.2 C 90.1 8.2 90.1 8.2 90.1 8.2 C 90.1 7.5 89.9 7 89.6 6.6 C 89.2 6.1 88.7 5.9 88.1 5.9 C 87.6 5.9 87.1 6.1 86.7 6.5 C 86.3 7 86.1 7.5 86.1 8.2 C 86.11 8.2 86.1 8.2 86.1 8.2 C 86.1 8.2 86.11 8.23 86.1 8.2 Z M 101.9 11 C 101 12 99.9 12.5 98.5 12.5 C 97.2 12.5 96.2 12.1 95.4 11.3 C 94.6 10.5 94.2 9.5 94.2 8.3 C 94.2 8.3 94.2 8.2 94.2 8.2 C 94.2 7 94.5 6 95.3 5.2 C 96.1 4.3 97.1 3.9 98.2 3.9 C 99.5 3.9 100.5 4.4 101.2 5.2 C 101.9 6.1 102.3 7.1 102.3 8.4 C 102.3 8.5 102.3 8.7 102.2 9 C 102.2 9 96.5 9 96.5 9 C 96.6 9.6 96.8 10 97.2 10.2 C 97.5 10.5 98 10.6 98.5 10.6 C 99.2 10.6 99.9 10.4 100.5 9.8 C 100.51 9.8 101.9 11 101.9 11 C 101.9 11 101.85 10.99 101.9 11 Z M 96.5 7.6 C 96.5 7.6 100 7.6 100 7.6 C 99.9 7 99.7 6.6 99.4 6.3 C 99.1 6 98.7 5.8 98.2 5.8 C 97.8 5.8 97.4 6 97.1 6.3 C 96.7 6.6 96.5 7 96.5 7.6 Z M 104 12.3 L 104 4.1 L 106.4 4.1 C 106.4 4.1 106.36 5.25 106.4 5.2 C 107 4.4 107.9 3.9 108.8 3.9 C 109.7 3.9 110.4 4.2 110.9 4.7 C 111.3 5.3 111.6 6 111.6 7 C 111.59 6.99 111.6 12.3 111.6 12.3 L 109.2 12.3 C 109.2 12.3 109.25 7.73 109.2 7.7 C 109.2 6.6 108.8 6.1 107.8 6.1 C 107.4 6.1 107 6.2 106.7 6.5 C 106.5 6.8 106.4 7.2 106.4 7.7 C 106.36 7.73 106.4 12.3 106.4 12.3 L 104 12.3 Z M 125.5 13.7 C 124.8 14.5 123.6 14.8 122 14.8 C 120.6 14.8 119.4 14.6 118.3 14 C 118.3 14 119.1 12.2 119.1 12.2 C 120 12.7 121 13 121.9 13 C 123.5 13 124.3 12.2 124.3 10.7 C 124.3 10.7 124.3 10.3 124.3 10.3 C 123.9 10.8 123.5 11.1 123.1 11.3 C 122.7 11.6 122.2 11.7 121.6 11.7 C 120.5 11.7 119.7 11.3 119 10.6 C 118.2 9.9 117.9 9 117.9 7.8 C 117.9 7.8 117.9 7.8 117.9 7.8 C 117.9 6.6 118.2 5.7 119 5 C 119.7 4.3 120.6 3.9 121.6 3.9 C 122.6 3.9 123.5 4.3 124.2 5.2 C 124.23 5.16 124.2 4.1 124.2 4.1 L 126.6 4.1 C 126.6 4.1 126.58 10.48 126.6 10.5 C 126.6 12 126.2 13 125.5 13.7 C 125.5 13.7 125.5 13.7 125.5 13.7 Z M 120.2 7.8 C 120.2 8.4 120.4 8.8 120.8 9.2 C 121.2 9.5 121.7 9.7 122.2 9.7 C 122.8 9.7 123.3 9.5 123.7 9.2 C 124.1 8.8 124.3 8.4 124.3 7.8 C 124.3 7.8 124.3 7.8 124.3 7.8 C 124.3 7.2 124.1 6.8 123.7 6.4 C 123.3 6 122.8 5.9 122.2 5.9 C 121.7 5.9 121.2 6 120.8 6.4 C 120.4 6.8 120.2 7.2 120.2 7.8 C 120.24 7.78 120.2 7.8 120.2 7.8 C 120.2 7.8 120.24 7.81 120.2 7.8 Z M 136 11 C 135.1 12 134 12.5 132.6 12.5 C 131.3 12.5 130.3 12.1 129.5 11.3 C 128.7 10.5 128.3 9.5 128.3 8.3 C 128.3 8.3 128.3 8.2 128.3 8.2 C 128.3 7 128.7 6 129.4 5.2 C 130.2 4.3 131.2 3.9 132.4 3.9 C 133.7 3.9 134.7 4.4 135.4 5.2 C 136.1 6.1 136.4 7.1 136.4 8.4 C 136.4 8.5 136.4 8.7 136.4 9 C 136.4 9 130.6 9 130.6 9 C 130.7 9.6 131 10 131.3 10.2 C 131.7 10.5 132.1 10.6 132.6 10.6 C 133.3 10.6 134 10.4 134.6 9.8 C 134.64 9.8 136 11 136 11 C 136 11 135.98 10.99 136 11 Z M 130.6 7.6 C 130.6 7.6 134.1 7.6 134.1 7.6 C 134 7 133.9 6.6 133.5 6.3 C 133.2 6 132.9 5.8 132.4 5.8 C 131.9 5.8 131.5 6 131.2 6.3 C 130.9 6.6 130.7 7 130.6 7.6 Z M 138.2 12.3 L 138.2 1.1 L 140.6 1.1 L 140.6 12.3 L 138.2 12.3 Z M 145.7 12.5 C 144.4 12.5 143.2 12.1 142.2 11.3 C 142.2 11.3 143.2 9.7 143.2 9.7 C 144.1 10.4 144.9 10.7 145.8 10.7 C 146.4 10.7 146.8 10.5 146.8 10.1 C 146.8 10.1 146.8 10 146.8 10 C 146.8 10 146.7 9.9 146.7 9.8 C 146.7 9.8 146.6 9.7 146.6 9.7 C 146.5 9.6 146.4 9.6 146.4 9.6 C 146.3 9.5 146.2 9.5 146.1 9.4 C 146 9.4 145.9 9.4 145.8 9.3 C 145.7 9.3 145.6 9.3 145.4 9.2 C 145.3 9.2 145.1 9.1 145 9.1 C 144.7 9 144.4 8.9 144.2 8.8 C 143.9 8.7 143.6 8.5 143.4 8.3 C 143.1 8.1 142.9 7.9 142.8 7.6 C 142.6 7.3 142.6 7 142.6 6.6 C 142.6 6.6 142.6 6.6 142.6 6.6 C 142.6 5.8 142.9 5.1 143.4 4.7 C 144 4.2 144.7 4 145.6 4 C 146.7 4 147.7 4.3 148.7 4.9 C 148.7 4.9 147.8 6.5 147.8 6.5 C 146.9 6 146.2 5.8 145.5 5.8 C 145.3 5.8 145.1 5.8 144.9 5.9 C 144.8 6 144.7 6.2 144.7 6.3 C 144.7 6.3 144.7 6.4 144.7 6.4 C 144.7 6.6 144.8 6.7 145.1 6.9 C 145.4 7 145.8 7.2 146.4 7.3 C 146.7 7.5 147 7.6 147.3 7.7 C 147.5 7.8 147.8 8 148 8.1 C 148.3 8.3 148.5 8.6 148.7 8.8 C 148.8 9.1 148.9 9.4 148.9 9.8 C 148.9 9.8 148.9 9.8 148.9 9.8 C 148.9 10.7 148.6 11.4 148 11.8 C 147.4 12.3 146.6 12.5 145.7 12.5 Z M 157.8 11 C 157 12 155.9 12.5 154.5 12.5 C 153.2 12.5 152.2 12.1 151.4 11.3 C 150.6 10.5 150.1 9.5 150.1 8.3 C 150.1 8.3 150.1 8.2 150.1 8.2 C 150.1 7 150.5 6 151.3 5.2 C 152.1 4.3 153.1 3.9 154.2 3.9 C 155.5 3.9 156.5 4.4 157.2 5.2 C 157.9 6.1 158.3 7.1 158.3 8.4 C 158.3 8.5 158.3 8.7 158.2 9 C 158.2 9 152.5 9 152.5 9 C 152.6 9.6 152.8 10 153.2 10.2 C 153.5 10.5 154 10.6 154.5 10.6 C 155.2 10.6 155.9 10.4 156.5 9.8 C 156.51 9.8 157.8 11 157.8 11 C 157.8 11 157.85 10.99 157.8 11 Z M 152.4 7.6 C 152.4 7.6 156 7.6 156 7.6 C 155.9 7 155.7 6.6 155.4 6.3 C 155.1 6 154.7 5.8 154.2 5.8 C 153.8 5.8 153.4 6 153 6.3 C 152.7 6.6 152.5 7 152.4 7.6 Z M 159.6 14.8 C 159.6 14.8 159.4 13.9 159.4 13.9 C 160.5 13.8 161 13.3 160.9 12.3 C 160.87 12.35 159.9 12.3 159.9 12.3 L 159.9 9.9 L 162.4 9.9 C 162.4 9.9 162.42 11.96 162.4 12 C 162.4 13 162.2 13.7 161.7 14.1 C 161.2 14.6 160.5 14.8 159.6 14.8 Z " stroke="none" fill="#000"/>  </g></svg>