<?xml version="1.0" standalone="no"?><!DOCTYPE svg PUBLIC "-//W3C//DTD SVG 1.1//EN" "http://www.w3.org/Graphics/SVG/1.1/DTD/svg11.dtd"><svg xmlns="http://www.w3.org/2000/svg" version="1.1" width="69.5px" height="21px" viewBox="0 -1 69.5 21" style="top:-1px">  <desc>₺1.415,04</desc>  <defs/>  <g id="Polygon48390">    <path d="M 2.7 4.1 L 2.7 12.7 L 1.6 12.7 L 1.6 4.1 L 2.7 4.1 Z M 5 8.1 L 6.2 8.1 C 6.2 8.1 6.16 8.66 6.2 8.7 C 6.2 9.3 6.1 9.9 5.9 10.4 C 5.8 10.9 5.5 11.3 5.2 11.7 C 4.9 12 4.6 12.3 4.1 12.5 C 3.7 12.7 3.2 12.8 2.7 12.8 C 2.5 12.8 2.4 12.8 2.2 12.7 C 2 12.7 1.8 12.7 1.6 12.7 C 1.6 12.7 2.7 11.8 2.7 11.8 C 3.1 11.8 3.4 11.7 3.7 11.6 C 4 11.5 4.2 11.3 4.4 11 C 4.6 10.7 4.8 10.4 4.9 10 C 5 9.6 5 9.2 5 8.7 C 5.04 8.66 5 8.1 5 8.1 Z M 4.2 5 L 4.2 6 L 0.2 7.8 L 0.2 6.8 L 4.2 5 Z M 4.2 6.9 L 4.2 7.9 L 0.2 9.8 L 0.2 8.7 L 4.2 6.9 Z M 11 4.1 L 11 12.7 L 9.9 12.7 L 9.9 5.4 L 7.7 6.2 L 7.7 5.3 L 10.8 4.1 L 11 4.1 Z M 14.3 12.1 C 14.3 11.9 14.3 11.8 14.4 11.6 C 14.6 11.5 14.7 11.4 14.9 11.4 C 15.2 11.4 15.3 11.5 15.4 11.6 C 15.6 11.8 15.6 11.9 15.6 12.1 C 15.6 12.3 15.6 12.4 15.4 12.5 C 15.3 12.7 15.2 12.7 14.9 12.7 C 14.7 12.7 14.6 12.7 14.4 12.5 C 14.3 12.4 14.3 12.3 14.3 12.1 Z M 23.1 9.8 L 23.1 10.7 L 16.9 10.7 L 16.9 10 L 20.7 4.1 L 21.6 4.1 L 20.7 5.8 L 18.1 9.8 L 23.1 9.8 Z M 21.9 4.1 L 21.9 12.7 L 20.8 12.7 L 20.8 4.1 L 21.9 4.1 Z M 27.6 4.1 L 27.6 12.7 L 26.5 12.7 L 26.5 5.4 L 24.3 6.2 L 24.3 5.3 L 27.4 4.1 L 27.6 4.1 Z M 32.2 8.6 C 32.16 8.6 31.3 8.4 31.3 8.4 L 31.7 4.1 L 36.1 4.1 L 36.1 5.1 L 32.6 5.1 C 32.6 5.1 32.38 7.46 32.4 7.5 C 32.5 7.4 32.7 7.3 33 7.2 C 33.2 7.1 33.5 7.1 33.8 7.1 C 34.2 7.1 34.6 7.2 34.9 7.3 C 35.2 7.4 35.4 7.6 35.7 7.9 C 35.9 8.1 36.1 8.4 36.2 8.8 C 36.3 9.1 36.3 9.5 36.3 9.9 C 36.3 10.4 36.3 10.7 36.2 11.1 C 36.1 11.4 35.9 11.7 35.7 12 C 35.5 12.2 35.2 12.4 34.8 12.6 C 34.5 12.7 34.1 12.8 33.6 12.8 C 33.3 12.8 33 12.7 32.7 12.6 C 32.4 12.5 32.1 12.4 31.8 12.2 C 31.6 12 31.4 11.8 31.3 11.5 C 31.1 11.2 31 10.8 31 10.4 C 31 10.4 32 10.4 32 10.4 C 32.1 10.7 32.2 11 32.3 11.2 C 32.4 11.4 32.6 11.6 32.8 11.7 C 33.1 11.8 33.3 11.9 33.6 11.9 C 33.9 11.9 34.1 11.8 34.3 11.8 C 34.5 11.7 34.7 11.5 34.8 11.4 C 35 11.2 35.1 11 35.1 10.8 C 35.2 10.5 35.3 10.3 35.3 10 C 35.3 9.7 35.2 9.4 35.1 9.2 C 35.1 9 35 8.8 34.8 8.6 C 34.7 8.4 34.5 8.3 34.3 8.2 C 34.1 8.1 33.8 8.1 33.6 8.1 C 33.2 8.1 32.9 8.1 32.7 8.2 C 32.5 8.3 32.4 8.4 32.2 8.6 Z M 38.6 11.4 C 38.6 11.4 38.63 12.25 38.6 12.2 C 38.6 12.6 38.5 13 38.4 13.4 C 38.2 13.8 37.9 14.1 37.6 14.4 C 37.6 14.4 37 13.9 37 13.9 C 37.1 13.8 37.2 13.6 37.3 13.4 C 37.4 13.2 37.5 13.1 37.5 12.9 C 37.5 12.7 37.6 12.5 37.6 12.3 C 37.57 12.27 37.6 11.4 37.6 11.4 L 38.6 11.4 Z M 45.2 7.7 C 45.2 7.7 45.2 9 45.2 9 C 45.2 9.7 45.2 10.3 45.1 10.8 C 44.9 11.3 44.8 11.7 44.5 12 C 44.3 12.2 44 12.5 43.7 12.6 C 43.3 12.7 43 12.8 42.6 12.8 C 42.2 12.8 41.9 12.7 41.6 12.7 C 41.4 12.6 41.1 12.4 40.9 12.3 C 40.7 12.1 40.5 11.8 40.3 11.6 C 40.2 11.3 40.1 10.9 40 10.5 C 39.9 10.1 39.9 9.6 39.9 9 C 39.9 9 39.9 7.7 39.9 7.7 C 39.9 7 39.9 6.4 40 6 C 40.2 5.5 40.4 5.1 40.6 4.8 C 40.8 4.5 41.1 4.3 41.4 4.2 C 41.8 4.1 42.1 4 42.5 4 C 42.9 4 43.2 4.1 43.5 4.1 C 43.7 4.2 44 4.3 44.2 4.5 C 44.4 4.7 44.6 4.9 44.8 5.2 C 44.9 5.5 45 5.8 45.1 6.3 C 45.2 6.7 45.2 7.2 45.2 7.7 Z M 44.2 9.2 C 44.2 9.2 44.2 7.5 44.2 7.5 C 44.2 7.2 44.1 6.8 44.1 6.5 C 44 6.2 44 6 43.9 5.8 C 43.8 5.6 43.7 5.4 43.6 5.3 C 43.4 5.1 43.3 5.1 43.1 5 C 42.9 4.9 42.8 4.9 42.5 4.9 C 42.3 4.9 42.1 4.9 41.9 5 C 41.7 5.1 41.5 5.3 41.4 5.5 C 41.2 5.7 41.1 6 41.1 6.3 C 41 6.6 40.9 7.1 40.9 7.5 C 40.9 7.5 40.9 9.2 40.9 9.2 C 40.9 9.6 41 9.9 41 10.2 C 41.1 10.5 41.1 10.8 41.2 11 C 41.3 11.2 41.4 11.4 41.5 11.5 C 41.7 11.6 41.8 11.7 42 11.8 C 42.2 11.9 42.3 11.9 42.6 11.9 C 42.8 11.9 43.1 11.8 43.3 11.7 C 43.5 11.6 43.6 11.5 43.8 11.3 C 43.9 11 44 10.8 44.1 10.4 C 44.1 10.1 44.2 9.7 44.2 9.2 Z M 52.4 9.8 L 52.4 10.7 L 46.2 10.7 L 46.2 10 L 50.1 4.1 L 50.9 4.1 L 50 5.8 L 47.5 9.8 L 52.4 9.8 Z M 51.2 4.1 L 51.2 12.7 L 50.1 12.7 L 50.1 4.1 L 51.2 4.1 Z " stroke="none" fill="#000"/>  </g></svg>