<?xml version="1.0" standalone="no"?><!DOCTYPE svg PUBLIC "-//W3C//DTD SVG 1.1//EN" "http://www.w3.org/Graphics/SVG/1.1/DTD/svg11.dtd"><svg xmlns="http://www.w3.org/2000/svg" version="1.1" width="356.2px" height="35.3px" viewBox="0 -5 356.2 35.3" style="top:-5px">  <desc>Tam h z — sa lam kavrama.</desc>  <defs/>  <g id="Polygon40808">    <path d="M 3.9 13.3 L 3.9 4.5 L 0.4 4.5 L 0.4 1.7 L 10.6 1.7 L 10.6 4.5 L 7.1 4.5 L 7.1 13.3 L 3.9 13.3 Z M 17 12.3 C 16.3 13.1 15.4 13.5 14.4 13.5 C 13.5 13.5 12.8 13.2 12.2 12.7 C 11.7 12.3 11.4 11.6 11.4 10.7 C 11.4 10.7 11.4 10.7 11.4 10.7 C 11.4 9.8 11.7 9.1 12.3 8.6 C 13 8.1 13.8 7.9 14.9 7.9 C 15.7 7.9 16.5 8 17.1 8.2 C 17.1 8.2 17.1 8.1 17.1 8.1 C 17.1 7.1 16.5 6.6 15.3 6.6 C 14.5 6.6 13.6 6.7 12.8 7.1 C 12.8 7.1 12.1 4.9 12.1 4.9 C 13.3 4.4 14.5 4.2 15.8 4.2 C 17.3 4.2 18.4 4.5 19.2 5.3 C 19.8 5.9 20.1 6.8 20.1 8.1 C 20.14 8.12 20.1 13.3 20.1 13.3 L 17 13.3 L 17 12.3 C 17 12.3 17.04 12.34 17 12.3 Z M 15.5 11.5 C 16 11.5 16.4 11.4 16.6 11.1 C 16.9 10.8 17.1 10.5 17.1 10 C 17.1 10 17.1 9.6 17.1 9.6 C 16.7 9.5 16.3 9.4 15.8 9.4 C 15.4 9.4 15 9.5 14.8 9.7 C 14.5 9.9 14.4 10.2 14.4 10.5 C 14.4 10.5 14.4 10.5 14.4 10.5 C 14.4 10.8 14.5 11.1 14.7 11.2 C 14.9 11.4 15.2 11.5 15.5 11.5 Z M 21.8 13.3 L 21.8 4.3 L 24.9 4.3 C 24.9 4.3 24.91 5.53 24.9 5.5 C 25.6 4.6 26.5 4.1 27.6 4.1 C 28.8 4.1 29.7 4.6 30.2 5.6 C 31 4.6 32 4.1 33.2 4.1 C 34.1 4.1 34.9 4.4 35.4 5 C 36 5.5 36.2 6.3 36.2 7.4 C 36.25 7.39 36.2 13.3 36.2 13.3 L 33.1 13.3 C 33.1 13.3 33.09 8.4 33.1 8.4 C 33.1 7.9 33 7.5 32.8 7.3 C 32.5 7 32.2 6.9 31.9 6.9 C 31.5 6.9 31.2 7 30.9 7.3 C 30.7 7.5 30.6 7.9 30.6 8.4 C 30.57 8.4 30.6 13.3 30.6 13.3 L 27.4 13.3 C 27.4 13.3 27.43 8.4 27.4 8.4 C 27.4 7.9 27.3 7.5 27.1 7.3 C 26.9 7 26.6 6.9 26.2 6.9 C 25.8 6.9 25.5 7 25.3 7.3 C 25 7.5 24.9 7.9 24.9 8.4 C 24.91 8.4 24.9 13.3 24.9 13.3 L 21.8 13.3 Z M 42.9 13.3 L 42.9 1.2 L 46 1.2 C 46 1.2 46.01 5.53 46 5.5 C 46.8 4.6 47.6 4.1 48.7 4.1 C 49.7 4.1 50.4 4.4 51 5 C 51.5 5.6 51.8 6.4 51.8 7.4 C 51.76 7.41 51.8 13.3 51.8 13.3 L 48.6 13.3 C 48.6 13.3 48.62 8.42 48.6 8.4 C 48.6 7.9 48.5 7.6 48.3 7.3 C 48.1 7 47.7 6.9 47.3 6.9 C 46.9 6.9 46.6 7 46.4 7.3 C 46.1 7.6 46 7.9 46 8.4 C 46.01 8.42 46 13.3 46 13.3 L 42.9 13.3 Z M 53.5 13.3 L 53.5 4.3 L 56.6 4.3 L 56.6 13.3 L 53.5 13.3 Z M 58.1 13.3 L 58.1 11.2 L 62.2 6.8 L 58.2 6.8 L 58.2 4.3 L 66.4 4.3 L 66.4 6.4 L 62.2 10.8 L 66.4 10.8 L 66.4 13.3 L 58.1 13.3 Z M 72.5 9.4 L 72.5 6.7 L 86.1 6.7 L 86.1 9.4 L 72.5 9.4 Z M 96.2 13.5 C 94.6 13.5 93.2 13 91.9 12.1 C 91.9 12.1 93.1 10.2 93.1 10.2 C 94.2 10.9 95.2 11.3 96.2 11.3 C 96.7 11.3 97 11.1 97 10.8 C 97 10.8 97 10.8 97 10.8 C 97 10.6 96.9 10.4 96.7 10.4 C 96.5 10.3 96.1 10.1 95.5 10 C 94.5 9.7 93.7 9.4 93.2 9 C 92.6 8.6 92.4 7.9 92.4 7.1 C 92.4 7.1 92.4 7.1 92.4 7.1 C 92.4 6.2 92.7 5.4 93.4 4.9 C 94 4.4 94.9 4.1 96 4.1 C 97.3 4.1 98.6 4.5 99.7 5.2 C 99.7 5.2 98.6 7.2 98.6 7.2 C 97.6 6.6 96.7 6.3 95.9 6.3 C 95.4 6.3 95.2 6.5 95.2 6.8 C 95.2 6.8 95.2 6.8 95.2 6.8 C 95.2 6.9 95.3 7.1 95.5 7.2 C 95.7 7.3 96.1 7.4 96.7 7.6 C 97.7 7.9 98.5 8.2 99 8.6 C 99.6 9 99.8 9.6 99.8 10.4 C 99.8 10.4 99.8 10.5 99.8 10.5 C 99.8 11.4 99.5 12.2 98.8 12.7 C 98.2 13.2 97.3 13.5 96.2 13.5 Z M 106.4 12.3 C 105.6 13.1 104.8 13.5 103.7 13.5 C 102.8 13.5 102.1 13.2 101.5 12.7 C 101 12.3 100.7 11.6 100.7 10.7 C 100.7 10.7 100.7 10.7 100.7 10.7 C 100.7 9.8 101 9.1 101.7 8.6 C 102.3 8.1 103.1 7.9 104.2 7.9 C 105.1 7.9 105.8 8 106.4 8.2 C 106.4 8.2 106.4 8.1 106.4 8.1 C 106.4 7.1 105.8 6.6 104.6 6.6 C 103.8 6.6 103 6.7 102.1 7.1 C 102.1 7.1 101.5 4.9 101.5 4.9 C 102.6 4.4 103.8 4.2 105.1 4.2 C 106.6 4.2 107.8 4.5 108.5 5.3 C 109.2 5.9 109.5 6.8 109.5 8.1 C 109.47 8.12 109.5 13.3 109.5 13.3 L 106.4 13.3 L 106.4 12.3 C 106.4 12.3 106.37 12.34 106.4 12.3 Z M 104.8 11.5 C 105.3 11.5 105.7 11.4 106 11.1 C 106.3 10.8 106.4 10.5 106.4 10 C 106.4 10 106.4 9.6 106.4 9.6 C 106 9.5 105.6 9.4 105.2 9.4 C 104.7 9.4 104.4 9.5 104.1 9.7 C 103.9 9.9 103.7 10.2 103.7 10.5 C 103.7 10.5 103.7 10.5 103.7 10.5 C 103.7 10.8 103.8 11.1 104 11.2 C 104.2 11.4 104.5 11.5 104.8 11.5 Z M 119.5 14.7 C 118.6 15.6 117.3 16 115.5 16 C 113.9 16 112.4 15.6 111 14.9 C 111 14.9 112 12.9 112 12.9 C 113.1 13.4 114.1 13.7 115.2 13.7 C 116.7 13.7 117.5 13 117.5 11.5 C 117.5 11.5 117.5 11.1 117.5 11.1 C 116.7 12 115.8 12.5 114.8 12.5 C 113.6 12.5 112.7 12.1 111.9 11.3 C 111.1 10.6 110.8 9.6 110.8 8.3 C 110.8 8.3 110.8 8.3 110.8 8.3 C 110.8 7 111.1 6 111.9 5.3 C 112.6 4.5 113.6 4.1 114.6 4.1 C 115.7 4.1 116.7 4.5 117.5 5.4 C 117.46 5.36 117.5 4.3 117.5 4.3 L 120.6 4.3 C 120.6 4.3 120.61 11.12 120.6 11.1 C 120.6 12.8 120.2 13.9 119.5 14.7 C 119.5 14.7 119.5 14.7 119.5 14.7 Z M 115.7 10.1 C 116.2 10.1 116.7 9.9 117 9.6 C 117.4 9.2 117.5 8.8 117.5 8.3 C 117.5 8.3 117.5 8.3 117.5 8.3 C 117.5 7.8 117.4 7.4 117 7 C 116.7 6.7 116.2 6.5 115.7 6.5 C 115.1 6.5 114.7 6.7 114.4 7 C 114 7.4 113.8 7.8 113.8 8.3 C 113.8 8.3 113.8 8.3 113.8 8.3 C 113.8 8.8 114 9.2 114.4 9.6 C 114.7 9.9 115.1 10.1 115.7 10.1 Z M 119.3 0.7 C 119.2 1.6 118.9 2.3 118.3 2.8 C 117.7 3.2 116.9 3.5 116 3.5 C 115.1 3.5 114.3 3.2 113.7 2.8 C 113.1 2.3 112.8 1.6 112.7 0.7 C 112.7 0.7 114.6 0.7 114.6 0.7 C 114.8 1.4 115.3 1.7 116 1.7 C 116.7 1.7 117.2 1.4 117.4 0.7 C 117.43 0.73 119.3 0.7 119.3 0.7 C 119.3 0.7 119.27 0.73 119.3 0.7 Z M 122.4 13.3 L 122.4 1.2 L 125.5 1.2 L 125.5 13.3 L 122.4 13.3 Z M 132.5 12.3 C 131.8 13.1 130.9 13.5 129.9 13.5 C 129 13.5 128.3 13.2 127.7 12.7 C 127.2 12.3 126.9 11.6 126.9 10.7 C 126.9 10.7 126.9 10.7 126.9 10.7 C 126.9 9.8 127.2 9.1 127.8 8.6 C 128.5 8.1 129.3 7.9 130.4 7.9 C 131.2 7.9 132 8 132.6 8.2 C 132.6 8.2 132.6 8.1 132.6 8.1 C 132.6 7.1 132 6.6 130.8 6.6 C 130 6.6 129.1 6.7 128.3 7.1 C 128.3 7.1 127.6 4.9 127.6 4.9 C 128.8 4.4 130 4.2 131.3 4.2 C 132.8 4.2 133.9 4.5 134.7 5.3 C 135.3 5.9 135.6 6.8 135.6 8.1 C 135.64 8.12 135.6 13.3 135.6 13.3 L 132.5 13.3 L 132.5 12.3 C 132.5 12.3 132.54 12.34 132.5 12.3 Z M 131 11.5 C 131.5 11.5 131.9 11.4 132.1 11.1 C 132.4 10.8 132.6 10.5 132.6 10 C 132.6 10 132.6 9.6 132.6 9.6 C 132.2 9.5 131.8 9.4 131.3 9.4 C 130.9 9.4 130.5 9.5 130.3 9.7 C 130 9.9 129.9 10.2 129.9 10.5 C 129.9 10.5 129.9 10.5 129.9 10.5 C 129.9 10.8 130 11.1 130.2 11.2 C 130.4 11.4 130.7 11.5 131 11.5 Z M 137.3 13.3 L 137.3 4.3 L 140.4 4.3 C 140.4 4.3 140.41 5.53 140.4 5.5 C 141.1 4.6 142 4.1 143.1 4.1 C 144.3 4.1 145.2 4.6 145.7 5.6 C 146.5 4.6 147.5 4.1 148.7 4.1 C 149.6 4.1 150.4 4.4 150.9 5 C 151.5 5.5 151.7 6.3 151.7 7.4 C 151.75 7.39 151.7 13.3 151.7 13.3 L 148.6 13.3 C 148.6 13.3 148.59 8.4 148.6 8.4 C 148.6 7.9 148.5 7.5 148.3 7.3 C 148 7 147.7 6.9 147.4 6.9 C 147 6.9 146.7 7 146.4 7.3 C 146.2 7.5 146.1 7.9 146.1 8.4 C 146.07 8.4 146.1 13.3 146.1 13.3 L 142.9 13.3 C 142.9 13.3 142.93 8.4 142.9 8.4 C 142.9 7.9 142.8 7.5 142.6 7.3 C 142.4 7 142.1 6.9 141.7 6.9 C 141.3 6.9 141 7 140.8 7.3 C 140.5 7.5 140.4 7.9 140.4 8.4 C 140.41 8.4 140.4 13.3 140.4 13.3 L 137.3 13.3 Z M 158.4 13.3 L 158.4 1.2 L 161.5 1.2 L 161.5 7.3 L 164 4.3 L 167.5 4.3 L 164.4 7.9 L 167.6 13.3 L 164.1 13.3 L 162.3 10.2 L 161.5 11.2 L 161.5 13.3 L 158.4 13.3 Z M 173.6 12.3 C 172.9 13.1 172 13.5 170.9 13.5 C 170.1 13.5 169.3 13.2 168.8 12.7 C 168.2 12.3 167.9 11.6 167.9 10.7 C 167.9 10.7 167.9 10.7 167.9 10.7 C 167.9 9.8 168.3 9.1 168.9 8.6 C 169.5 8.1 170.4 7.9 171.5 7.9 C 172.3 7.9 173 8 173.6 8.2 C 173.6 8.2 173.6 8.1 173.6 8.1 C 173.6 7.1 173 6.6 171.8 6.6 C 171 6.6 170.2 6.7 169.3 7.1 C 169.3 7.1 168.7 4.9 168.7 4.9 C 169.8 4.4 171 4.2 172.3 4.2 C 173.9 4.2 175 4.5 175.7 5.3 C 176.4 5.9 176.7 6.8 176.7 8.1 C 176.7 8.12 176.7 13.3 176.7 13.3 L 173.6 13.3 L 173.6 12.3 C 173.6 12.3 173.6 12.34 173.6 12.3 Z M 172.1 11.5 C 172.5 11.5 172.9 11.4 173.2 11.1 C 173.5 10.8 173.6 10.5 173.6 10 C 173.6 10 173.6 9.6 173.6 9.6 C 173.3 9.5 172.8 9.4 172.4 9.4 C 171.9 9.4 171.6 9.5 171.3 9.7 C 171.1 9.9 171 10.2 171 10.5 C 171 10.5 171 10.5 171 10.5 C 171 10.8 171.1 11.1 171.3 11.2 C 171.5 11.4 171.7 11.5 172.1 11.5 Z M 181.2 13.3 L 177.6 4.3 L 181 4.3 L 182.7 9.5 L 184.4 4.3 L 187.7 4.3 L 184.1 13.3 L 181.2 13.3 Z M 188.7 13.3 L 188.7 4.3 L 191.8 4.3 C 191.8 4.3 191.85 6.11 191.8 6.1 C 192.4 4.7 193.4 4.1 194.7 4.2 C 194.69 4.15 194.7 7.5 194.7 7.5 C 194.7 7.5 194.42 7.47 194.4 7.5 C 192.7 7.5 191.8 8.5 191.8 10.5 C 191.85 10.48 191.8 13.3 191.8 13.3 L 188.7 13.3 Z M 201 12.3 C 200.3 13.1 199.4 13.5 198.4 13.5 C 197.5 13.5 196.8 13.2 196.2 12.7 C 195.6 12.3 195.4 11.6 195.4 10.7 C 195.4 10.7 195.4 10.7 195.4 10.7 C 195.4 9.8 195.7 9.1 196.3 8.6 C 196.9 8.1 197.8 7.9 198.9 7.9 C 199.7 7.9 200.4 8 201 8.2 C 201 8.2 201 8.1 201 8.1 C 201 7.1 200.4 6.6 199.3 6.6 C 198.4 6.6 197.6 6.7 196.8 7.1 C 196.8 7.1 196.1 4.9 196.1 4.9 C 197.2 4.4 198.5 4.2 199.8 4.2 C 201.3 4.2 202.4 4.5 203.2 5.3 C 203.8 5.9 204.1 6.8 204.1 8.1 C 204.14 8.12 204.1 13.3 204.1 13.3 L 201 13.3 L 201 12.3 C 201 12.3 201.03 12.34 201 12.3 Z M 199.5 11.5 C 200 11.5 200.3 11.4 200.6 11.1 C 200.9 10.8 201.1 10.5 201.1 10 C 201.1 10 201.1 9.6 201.1 9.6 C 200.7 9.5 200.3 9.4 199.8 9.4 C 199.4 9.4 199 9.5 198.8 9.7 C 198.5 9.9 198.4 10.2 198.4 10.5 C 198.4 10.5 198.4 10.5 198.4 10.5 C 198.4 10.8 198.5 11.1 198.7 11.2 C 198.9 11.4 199.2 11.5 199.5 11.5 Z M 205.7 13.3 L 205.7 4.3 L 208.9 4.3 C 208.9 4.3 208.9 5.53 208.9 5.5 C 209.6 4.6 210.5 4.1 211.6 4.1 C 212.8 4.1 213.7 4.6 214.2 5.6 C 215 4.6 216 4.1 217.2 4.1 C 218.1 4.1 218.9 4.4 219.4 5 C 220 5.5 220.2 6.3 220.2 7.4 C 220.24 7.39 220.2 13.3 220.2 13.3 L 217.1 13.3 C 217.1 13.3 217.09 8.4 217.1 8.4 C 217.1 7.9 217 7.5 216.8 7.3 C 216.5 7 216.2 6.9 215.9 6.9 C 215.5 6.9 215.2 7 214.9 7.3 C 214.7 7.5 214.6 7.9 214.6 8.4 C 214.56 8.4 214.6 13.3 214.6 13.3 L 211.4 13.3 C 211.4 13.3 211.43 8.4 211.4 8.4 C 211.4 7.9 211.3 7.5 211.1 7.3 C 210.9 7 210.6 6.9 210.2 6.9 C 209.8 6.9 209.5 7 209.2 7.3 C 209 7.5 208.9 7.9 208.9 8.4 C 208.9 8.4 208.9 13.3 208.9 13.3 L 205.7 13.3 Z M 227.1 12.3 C 226.4 13.1 225.5 13.5 224.4 13.5 C 223.6 13.5 222.8 13.2 222.3 12.7 C 221.7 12.3 221.4 11.6 221.4 10.7 C 221.4 10.7 221.4 10.7 221.4 10.7 C 221.4 9.8 221.8 9.1 222.4 8.6 C 223 8.1 223.9 7.9 225 7.9 C 225.8 7.9 226.5 8 227.1 8.2 C 227.1 8.2 227.1 8.1 227.1 8.1 C 227.1 7.1 226.5 6.6 225.3 6.6 C 224.5 6.6 223.7 6.7 222.8 7.1 C 222.8 7.1 222.2 4.9 222.2 4.9 C 223.3 4.4 224.5 4.2 225.8 4.2 C 227.4 4.2 228.5 4.5 229.2 5.3 C 229.9 5.9 230.2 6.8 230.2 8.1 C 230.2 8.12 230.2 13.3 230.2 13.3 L 227.1 13.3 L 227.1 12.3 C 227.1 12.3 227.1 12.34 227.1 12.3 Z M 225.6 11.5 C 226 11.5 226.4 11.4 226.7 11.1 C 227 10.8 227.1 10.5 227.1 10 C 227.1 10 227.1 9.6 227.1 9.6 C 226.8 9.5 226.3 9.4 225.9 9.4 C 225.4 9.4 225.1 9.5 224.8 9.7 C 224.6 9.9 224.5 10.2 224.5 10.5 C 224.5 10.5 224.5 10.5 224.5 10.5 C 224.5 10.8 224.6 11.1 224.8 11.2 C 225 11.4 225.2 11.5 225.6 11.5 Z M 231.7 13.3 L 231.7 10 L 235 10 L 235 13.3 L 231.7 13.3 Z " stroke="none" fill="#c8c8c7"/>  </g></svg>