<?xml version="1.0" standalone="no"?><!DOCTYPE svg PUBLIC "-//W3C//DTD SVG 1.1//EN" "http://www.w3.org/Graphics/SVG/1.1/DTD/svg11.dtd"><svg xmlns="http://www.w3.org/2000/svg" version="1.1" width="151.1px" height="80.4px" viewBox="0 -3 151.1 80.4" style="top:-3px">  <desc>Ya Spreyi – Singles r n Kodu: ZD 32891 Renk: Soft Taupe Cam / SS304 paslanmaz elik / ABS D 4,7 cm, H 15,7 cm Tasar...</desc>  <defs/>  <g id="Polygon41227">    <path d="M 2 59.6 L 2 55.2 L 0.3 55.2 L 0.3 54.7 L 4.2 54.7 L 4.2 55.2 L 2.5 55.2 L 2.5 59.6 L 2 59.6 Z M 7.5 59.1 C 7.2 59.5 6.7 59.7 6.2 59.7 C 5.8 59.7 5.5 59.6 5.2 59.4 C 5 59.2 4.8 58.9 4.8 58.5 C 4.8 58.5 4.8 58.5 4.8 58.5 C 4.8 58.2 5 57.9 5.2 57.7 C 5.5 57.5 5.9 57.4 6.4 57.4 C 6.7 57.4 7.1 57.4 7.5 57.5 C 7.5 57.5 7.5 57.4 7.5 57.4 C 7.5 57.1 7.4 56.8 7.2 56.7 C 7 56.5 6.7 56.4 6.4 56.4 C 6 56.4 5.7 56.5 5.3 56.7 C 5.3 56.7 5.1 56.2 5.1 56.2 C 5.6 56 6 55.9 6.5 55.9 C 7 55.9 7.4 56.1 7.6 56.3 C 7.9 56.6 8 56.9 8 57.4 C 7.99 57.39 8 59.6 8 59.6 L 7.5 59.6 L 7.5 59.1 C 7.5 59.1 7.48 59.05 7.5 59.1 Z M 6.3 59.2 C 6.6 59.2 6.9 59.2 7.1 59 C 7.4 58.8 7.5 58.6 7.5 58.3 C 7.5 58.3 7.5 57.9 7.5 57.9 C 7.1 57.8 6.8 57.8 6.4 57.8 C 6.1 57.8 5.8 57.8 5.6 58 C 5.5 58.1 5.4 58.3 5.4 58.5 C 5.4 58.5 5.4 58.5 5.4 58.5 C 5.4 58.7 5.5 58.9 5.6 59.1 C 5.8 59.2 6 59.2 6.3 59.2 Z M 10.3 59.7 C 9.8 59.7 9.3 59.5 8.8 59.1 C 8.8 59.1 9.1 58.8 9.1 58.8 C 9.5 59.1 9.9 59.2 10.4 59.2 C 10.6 59.2 10.8 59.2 10.9 59.1 C 11 59 11.1 58.8 11.1 58.6 C 11.1 58.6 11.1 58.6 11.1 58.6 C 11.1 58.5 11 58.3 10.9 58.2 C 10.7 58.2 10.5 58.1 10.2 58 C 10.1 58 10 57.9 9.9 57.9 C 9.9 57.9 9.8 57.8 9.7 57.8 C 9.5 57.8 9.5 57.7 9.4 57.7 C 9.3 57.6 9.3 57.6 9.2 57.5 C 9.1 57.4 9.1 57.4 9.1 57.3 C 9 57.2 9 57.1 9 57 C 9 57 9 57 9 57 C 9 56.6 9.1 56.4 9.4 56.2 C 9.6 56 9.9 55.9 10.2 55.9 C 10.7 55.9 11.1 56.1 11.5 56.3 C 11.5 56.3 11.3 56.7 11.3 56.7 C 10.9 56.5 10.6 56.4 10.2 56.4 C 10 56.4 9.9 56.4 9.7 56.5 C 9.6 56.6 9.5 56.7 9.5 56.9 C 9.5 56.9 9.5 56.9 9.5 56.9 C 9.5 57 9.6 57 9.6 57.1 C 9.6 57.1 9.7 57.2 9.7 57.2 C 9.8 57.3 9.8 57.3 9.9 57.4 C 10 57.4 10.1 57.4 10.2 57.4 C 10.2 57.5 10.3 57.5 10.5 57.5 C 10.6 57.6 10.7 57.6 10.8 57.6 C 10.9 57.7 11 57.7 11.1 57.8 C 11.2 57.8 11.3 57.9 11.4 58 C 11.5 58 11.5 58.1 11.6 58.2 C 11.6 58.3 11.6 58.4 11.6 58.6 C 11.6 58.6 11.6 58.6 11.6 58.6 C 11.6 58.9 11.5 59.2 11.3 59.4 C 11 59.6 10.7 59.7 10.3 59.7 Z M 15 59.1 C 14.7 59.5 14.3 59.7 13.7 59.7 C 13.3 59.7 13 59.6 12.8 59.4 C 12.5 59.2 12.4 58.9 12.4 58.5 C 12.4 58.5 12.4 58.5 12.4 58.5 C 12.4 58.2 12.5 57.9 12.8 57.7 C 13.1 57.5 13.4 57.4 13.9 57.4 C 14.3 57.4 14.6 57.4 15 57.5 C 15 57.5 15 57.4 15 57.4 C 15 57.1 14.9 56.8 14.7 56.7 C 14.5 56.5 14.3 56.4 13.9 56.4 C 13.6 56.4 13.2 56.5 12.8 56.7 C 12.8 56.7 12.7 56.2 12.7 56.2 C 13.1 56 13.5 55.9 14 55.9 C 14.5 55.9 14.9 56.1 15.2 56.3 C 15.4 56.6 15.5 56.9 15.5 57.4 C 15.53 57.39 15.5 59.6 15.5 59.6 L 15 59.6 L 15 59.1 C 15 59.1 15.01 59.05 15 59.1 Z M 13.8 59.2 C 14.2 59.2 14.4 59.2 14.7 59 C 14.9 58.8 15 58.6 15 58.3 C 15 58.3 15 57.9 15 57.9 C 14.7 57.8 14.3 57.8 14 57.8 C 13.6 57.8 13.4 57.8 13.2 58 C 13 58.1 12.9 58.3 12.9 58.5 C 12.9 58.5 12.9 58.5 12.9 58.5 C 12.9 58.7 13 58.9 13.2 59.1 C 13.3 59.2 13.6 59.2 13.8 59.2 Z M 16.7 59.6 L 16.7 56 L 17.2 56 C 17.2 56 17.22 56.93 17.2 56.9 C 17.4 56.6 17.6 56.4 17.8 56.2 C 18.1 56 18.4 55.9 18.7 55.9 C 18.7 55.92 18.7 56.5 18.7 56.5 C 18.7 56.5 18.65 56.5 18.7 56.5 C 18.2 56.5 17.9 56.6 17.6 56.9 C 17.4 57.2 17.2 57.6 17.2 58.2 C 17.22 58.16 17.2 59.6 17.2 59.6 L 16.7 59.6 Z M 19.6 59.6 L 19.6 56 L 20.1 56 L 20.1 59.6 L 19.6 59.6 Z M 21.4 59.6 L 21.4 56 L 21.9 56 C 21.9 56 21.9 56.59 21.9 56.6 C 22 56.4 22.2 56.2 22.4 56.1 C 22.6 56 22.8 55.9 23.1 55.9 C 23.6 55.9 24 56.1 24.2 56.6 C 24.5 56.1 25 55.9 25.5 55.9 C 25.9 55.9 26.2 56 26.5 56.3 C 26.7 56.6 26.8 56.9 26.8 57.4 C 26.84 57.36 26.8 59.6 26.8 59.6 L 26.3 59.6 C 26.3 59.6 26.31 57.49 26.3 57.5 C 26.3 57.1 26.2 56.9 26.1 56.7 C 25.9 56.5 25.7 56.4 25.4 56.4 C 25.1 56.4 24.9 56.5 24.7 56.7 C 24.5 56.9 24.4 57.2 24.4 57.5 C 24.37 57.51 24.4 59.6 24.4 59.6 L 23.8 59.6 C 23.8 59.6 23.83 57.47 23.8 57.5 C 23.8 57.1 23.8 56.9 23.6 56.7 C 23.4 56.5 23.2 56.4 22.9 56.4 C 22.6 56.4 22.4 56.5 22.2 56.7 C 22 56.9 21.9 57.2 21.9 57.5 C 21.9 57.53 21.9 59.6 21.9 59.6 L 21.4 59.6 Z M 28 56.7 L 28 56 L 28.6 56 L 28.6 56.7 L 28 56.7 Z M 28 59.6 L 28 58.9 L 28.6 58.9 L 28.6 59.6 L 28 59.6 Z M 33.6 59.6 L 31.5 54.7 L 32.2 54.7 L 33.9 58.9 L 35.7 54.7 L 36.2 54.7 L 34.1 59.6 L 33.6 59.6 Z M 37.2 59.6 L 37.2 54.7 L 40.8 54.7 L 40.8 55.2 L 37.8 55.2 L 37.8 56.9 L 40.4 56.9 L 40.4 57.4 L 37.8 57.4 L 37.8 59.1 L 40.8 59.1 L 40.8 59.6 L 37.2 59.6 Z M 41.5 59.6 L 41.5 59.2 C 41.5 59.2 43.32 57.6 43.3 57.6 C 43.7 57.3 44 57 44.1 56.8 C 44.3 56.5 44.3 56.3 44.3 56.1 C 44.3 55.8 44.2 55.6 44.1 55.4 C 43.9 55.2 43.6 55.1 43.4 55.1 C 43.1 55.1 42.9 55.2 42.7 55.3 C 42.4 55.5 42.2 55.7 42 56 C 42 56 41.6 55.7 41.6 55.7 C 41.9 55.3 42.1 55 42.4 54.9 C 42.7 54.7 43 54.6 43.4 54.6 C 43.8 54.6 44.2 54.8 44.5 55 C 44.8 55.3 44.9 55.6 44.9 56 C 44.9 56 44.9 56 44.9 56 C 44.9 56.4 44.8 56.7 44.6 56.9 C 44.5 57.2 44.1 57.5 43.7 57.9 C 43.68 57.93 42.4 59.1 42.4 59.1 L 45 59.1 L 45 59.6 L 41.5 59.6 Z " stroke="none" fill="#000"/>  </g>  <g id="Polygon41226">    <path d="M 0.7 50.6 L 0.7 45.7 C 0.7 45.7 2.39 45.7 2.4 45.7 C 3.2 45.7 3.8 45.9 4.3 46.4 C 4.8 46.9 5 47.4 5 48.1 C 5 48.1 5 48.1 5 48.1 C 5 48.8 4.8 49.4 4.3 49.9 C 3.8 50.4 3.2 50.6 2.4 50.6 C 2.39 50.6 0.7 50.6 0.7 50.6 Z M 2.4 46.2 C 2.39 46.21 1.2 46.2 1.2 46.2 L 1.2 50.1 C 1.2 50.1 2.39 50.09 2.4 50.1 C 3 50.1 3.5 49.9 3.9 49.5 C 4.2 49.2 4.4 48.7 4.4 48.2 C 4.4 48.2 4.4 48.1 4.4 48.1 C 4.4 47.6 4.2 47.1 3.9 46.8 C 3.5 46.4 3 46.2 2.4 46.2 Z M 10.6 50.6 L 10.6 49.4 L 8 49.4 L 7.9 49 L 10.6 45.7 L 11.1 45.7 L 11.1 49 L 11.9 49 L 11.9 49.4 L 11.1 49.4 L 11.1 50.6 L 10.6 50.6 Z M 8.5 49 L 10.6 49 L 10.6 46.4 L 8.5 49 Z M 12.7 51.5 C 12.7 51.5 12.6 51.2 12.6 51.2 C 12.9 51.1 13.1 50.9 13.1 50.6 C 13.06 50.6 12.8 50.6 12.8 50.6 L 12.8 49.9 L 13.5 49.9 C 13.5 49.9 13.45 50.49 13.5 50.5 C 13.5 50.8 13.4 51 13.3 51.1 C 13.1 51.3 12.9 51.4 12.7 51.5 Z M 14.9 50.6 L 17.2 46.2 L 14.5 46.2 L 14.5 45.7 L 17.8 45.7 L 17.8 46.1 L 15.6 50.6 L 14.9 50.6 Z M 24 50 C 23.6 50.5 23.1 50.7 22.5 50.7 C 22 50.7 21.5 50.5 21.2 50.1 C 20.8 49.8 20.6 49.3 20.6 48.8 C 20.6 48.8 20.6 48.8 20.6 48.8 C 20.6 48.3 20.8 47.8 21.2 47.5 C 21.5 47.1 22 46.9 22.5 46.9 C 23.1 46.9 23.5 47.1 23.9 47.5 C 23.9 47.5 23.6 47.9 23.6 47.9 C 23.2 47.6 22.9 47.4 22.5 47.4 C 22.1 47.4 21.8 47.5 21.6 47.8 C 21.3 48.1 21.2 48.4 21.2 48.8 C 21.2 48.8 21.2 48.8 21.2 48.8 C 21.2 49.2 21.3 49.5 21.6 49.8 C 21.8 50.1 22.1 50.2 22.5 50.2 C 22.9 50.2 23.3 50 23.6 49.7 C 23.62 49.66 24 50 24 50 C 24 50 23.97 49.98 24 50 Z M 24.9 50.6 L 24.9 47 L 25.4 47 C 25.4 47 25.4 47.59 25.4 47.6 C 25.5 47.4 25.7 47.2 25.9 47.1 C 26.1 47 26.3 46.9 26.6 46.9 C 27.1 46.9 27.5 47.1 27.7 47.6 C 28 47.1 28.5 46.9 29 46.9 C 29.4 46.9 29.7 47 30 47.3 C 30.2 47.6 30.3 47.9 30.3 48.4 C 30.34 48.36 30.3 50.6 30.3 50.6 L 29.8 50.6 C 29.8 50.6 29.81 48.49 29.8 48.5 C 29.8 48.1 29.7 47.9 29.6 47.7 C 29.4 47.5 29.2 47.4 28.9 47.4 C 28.6 47.4 28.4 47.5 28.2 47.7 C 28 47.9 27.9 48.2 27.9 48.5 C 27.87 48.51 27.9 50.6 27.9 50.6 L 27.3 50.6 C 27.3 50.6 27.33 48.47 27.3 48.5 C 27.3 48.1 27.3 47.9 27.1 47.7 C 26.9 47.5 26.7 47.4 26.4 47.4 C 26.1 47.4 25.9 47.5 25.7 47.7 C 25.5 47.9 25.4 48.2 25.4 48.5 C 25.4 48.53 25.4 50.6 25.4 50.6 L 24.9 50.6 Z M 31.3 51.5 C 31.3 51.5 31.2 51.2 31.2 51.2 C 31.6 51.1 31.7 50.9 31.7 50.6 C 31.68 50.6 31.4 50.6 31.4 50.6 L 31.4 49.9 L 32.1 49.9 C 32.1 49.9 32.07 50.49 32.1 50.5 C 32.1 50.8 32 51 31.9 51.1 C 31.8 51.3 31.6 51.4 31.3 51.5 Z M 35.4 50.6 L 35.4 45.7 L 36 45.7 L 36 47.9 L 38.8 47.9 L 38.8 45.7 L 39.3 45.7 L 39.3 50.6 L 38.8 50.6 L 38.8 48.4 L 36 48.4 L 36 50.6 L 35.4 50.6 Z M 43.4 50.6 L 43.4 46.2 L 42.5 46.5 L 42.3 46.1 L 43.5 45.7 L 43.9 45.7 L 43.9 50.6 L 43.4 50.6 Z M 46.8 50.7 C 46.1 50.7 45.5 50.4 45 49.9 C 45 49.9 45.4 49.5 45.4 49.5 C 45.8 50 46.3 50.2 46.8 50.2 C 47.1 50.2 47.4 50.1 47.6 49.9 C 47.8 49.7 47.9 49.4 47.9 49.1 C 47.9 49.1 47.9 49.1 47.9 49.1 C 47.9 48.8 47.8 48.5 47.6 48.3 C 47.4 48.1 47.1 48.1 46.7 48.1 C 46.4 48.1 46 48.1 45.7 48.3 C 45.7 48.33 45.3 48.1 45.3 48.1 L 45.5 45.7 L 48.3 45.7 L 48.3 46.2 L 45.9 46.2 C 45.9 46.2 45.84 47.78 45.8 47.8 C 46.2 47.6 46.5 47.6 46.8 47.6 C 47.3 47.6 47.7 47.7 48 48 C 48.3 48.2 48.5 48.6 48.5 49.1 C 48.5 49.1 48.5 49.1 48.5 49.1 C 48.5 49.5 48.3 49.9 48 50.2 C 47.7 50.5 47.3 50.7 46.8 50.7 Z M 49.3 51.5 C 49.3 51.5 49.2 51.2 49.2 51.2 C 49.6 51.1 49.7 50.9 49.7 50.6 C 49.71 50.6 49.5 50.6 49.5 50.6 L 49.5 49.9 L 50.1 49.9 C 50.1 49.9 50.1 50.49 50.1 50.5 C 50.1 50.8 50 51 49.9 51.1 C 49.8 51.3 49.6 51.4 49.3 51.5 Z M 51.6 50.6 L 53.8 46.2 L 51.1 46.2 L 51.1 45.7 L 54.4 45.7 L 54.4 46.1 L 52.2 50.6 L 51.6 50.6 Z M 60.6 50 C 60.2 50.5 59.7 50.7 59.1 50.7 C 58.6 50.7 58.2 50.5 57.8 50.1 C 57.5 49.8 57.3 49.3 57.3 48.8 C 57.3 48.8 57.3 48.8 57.3 48.8 C 57.3 48.3 57.5 47.8 57.8 47.5 C 58.2 47.1 58.6 46.9 59.1 46.9 C 59.7 46.9 60.2 47.1 60.6 47.5 C 60.6 47.5 60.2 47.9 60.2 47.9 C 59.9 47.6 59.5 47.4 59.1 47.4 C 58.8 47.4 58.5 47.5 58.2 47.8 C 58 48.1 57.8 48.4 57.8 48.8 C 57.8 48.8 57.8 48.8 57.8 48.8 C 57.8 49.2 58 49.5 58.2 49.8 C 58.5 50.1 58.8 50.2 59.2 50.2 C 59.6 50.2 59.9 50 60.3 49.7 C 60.27 49.66 60.6 50 60.6 50 C 60.6 50 60.61 49.98 60.6 50 Z M 61.5 50.6 L 61.5 47 L 62 47 C 62 47 62.04 47.59 62 47.6 C 62.2 47.4 62.3 47.2 62.5 47.1 C 62.7 47 62.9 46.9 63.2 46.9 C 63.8 46.9 64.1 47.1 64.4 47.6 C 64.7 47.1 65.1 46.9 65.6 46.9 C 66.1 46.9 66.4 47 66.6 47.3 C 66.9 47.6 67 47.9 67 48.4 C 66.99 48.36 67 50.6 67 50.6 L 66.5 50.6 C 66.5 50.6 66.45 48.49 66.5 48.5 C 66.5 48.1 66.4 47.9 66.2 47.7 C 66 47.5 65.8 47.4 65.5 47.4 C 65.2 47.4 65 47.5 64.8 47.7 C 64.6 47.9 64.5 48.2 64.5 48.5 C 64.51 48.51 64.5 50.6 64.5 50.6 L 64 50.6 C 64 50.6 63.98 48.47 64 48.5 C 64 48.1 63.9 47.9 63.7 47.7 C 63.6 47.5 63.3 47.4 63 47.4 C 62.8 47.4 62.5 47.5 62.3 47.7 C 62.1 47.9 62 48.2 62 48.5 C 62.04 48.53 62 50.6 62 50.6 L 61.5 50.6 Z " stroke="none" fill="#000"/>  </g>  <g id="Polygon41225">    <path d="M 2.9 41.7 C 2.2 41.7 1.6 41.4 1.2 41 C 0.7 40.5 0.5 39.9 0.5 39.2 C 0.5 39.2 0.5 39.1 0.5 39.1 C 0.5 38.4 0.7 37.8 1.2 37.4 C 1.7 36.9 2.2 36.6 3 36.6 C 3.4 36.6 3.7 36.7 4 36.8 C 4.3 36.9 4.6 37.1 4.9 37.4 C 4.9 37.4 4.5 37.8 4.5 37.8 C 4.3 37.6 4 37.4 3.8 37.3 C 3.5 37.2 3.3 37.1 2.9 37.1 C 2.4 37.1 2 37.3 1.6 37.7 C 1.2 38.1 1.1 38.6 1.1 39.1 C 1.1 39.1 1.1 39.1 1.1 39.1 C 1.1 39.7 1.2 40.2 1.6 40.6 C 2 41 2.4 41.2 2.9 41.2 C 3.3 41.2 3.5 41.1 3.8 41 C 4 40.9 4.3 40.7 4.5 40.5 C 4.5 40.5 4.9 40.8 4.9 40.8 C 4.6 41.1 4.3 41.3 4 41.5 C 3.7 41.6 3.3 41.7 2.9 41.7 Z M 8.2 41.1 C 7.9 41.5 7.4 41.7 6.9 41.7 C 6.5 41.7 6.2 41.6 5.9 41.4 C 5.7 41.2 5.5 40.9 5.5 40.5 C 5.5 40.5 5.5 40.5 5.5 40.5 C 5.5 40.2 5.7 39.9 5.9 39.7 C 6.2 39.5 6.6 39.4 7.1 39.4 C 7.4 39.4 7.8 39.4 8.2 39.5 C 8.2 39.5 8.2 39.4 8.2 39.4 C 8.2 39.1 8.1 38.8 7.9 38.7 C 7.7 38.5 7.5 38.4 7.1 38.4 C 6.7 38.4 6.4 38.5 6 38.7 C 6 38.7 5.8 38.2 5.8 38.2 C 6.3 38 6.7 37.9 7.2 37.9 C 7.7 37.9 8.1 38.1 8.3 38.3 C 8.6 38.6 8.7 38.9 8.7 39.4 C 8.7 39.39 8.7 41.6 8.7 41.6 L 8.2 41.6 L 8.2 41.1 C 8.2 41.1 8.18 41.05 8.2 41.1 Z M 7 41.2 C 7.3 41.2 7.6 41.2 7.8 41 C 8.1 40.8 8.2 40.6 8.2 40.3 C 8.2 40.3 8.2 39.9 8.2 39.9 C 7.8 39.8 7.5 39.8 7.1 39.8 C 6.8 39.8 6.5 39.8 6.3 40 C 6.2 40.1 6.1 40.3 6.1 40.5 C 6.1 40.5 6.1 40.5 6.1 40.5 C 6.1 40.7 6.2 40.9 6.3 41.1 C 6.5 41.2 6.7 41.2 7 41.2 Z M 9.8 41.6 L 9.8 38 L 10.4 38 C 10.4 38 10.39 38.59 10.4 38.6 C 10.5 38.4 10.7 38.2 10.9 38.1 C 11 38 11.3 37.9 11.6 37.9 C 12.1 37.9 12.5 38.1 12.7 38.6 C 13 38.1 13.5 37.9 14 37.9 C 14.4 37.9 14.7 38 15 38.3 C 15.2 38.6 15.3 38.9 15.3 39.4 C 15.34 39.36 15.3 41.6 15.3 41.6 L 14.8 41.6 C 14.8 41.6 14.8 39.49 14.8 39.5 C 14.8 39.1 14.7 38.9 14.5 38.7 C 14.4 38.5 14.2 38.4 13.9 38.4 C 13.6 38.4 13.3 38.5 13.1 38.7 C 13 38.9 12.9 39.2 12.9 39.5 C 12.86 39.51 12.9 41.6 12.9 41.6 L 12.3 41.6 C 12.3 41.6 12.33 39.47 12.3 39.5 C 12.3 39.1 12.2 38.9 12.1 38.7 C 11.9 38.5 11.7 38.4 11.4 38.4 C 11.1 38.4 10.9 38.5 10.7 38.7 C 10.5 38.9 10.4 39.2 10.4 39.5 C 10.39 39.53 10.4 41.6 10.4 41.6 L 9.8 41.6 Z M 17.8 42.5 L 21.1 36 L 21.6 36 L 18.3 42.5 L 17.8 42.5 Z M 26 41.7 C 25.3 41.7 24.6 41.4 24 40.9 C 24 40.9 24.4 40.5 24.4 40.5 C 24.6 40.7 24.9 40.9 25.1 41 C 25.4 41.1 25.7 41.2 26 41.2 C 26.4 41.2 26.6 41.1 26.8 40.9 C 27 40.8 27.1 40.6 27.1 40.3 C 27.1 40.3 27.1 40.3 27.1 40.3 C 27.1 40.1 27 39.9 26.9 39.8 C 26.7 39.6 26.3 39.5 25.9 39.4 C 25.3 39.3 24.9 39.1 24.6 38.9 C 24.3 38.7 24.2 38.4 24.2 38 C 24.2 38 24.2 38 24.2 38 C 24.2 37.6 24.4 37.3 24.7 37 C 25 36.8 25.4 36.6 25.8 36.6 C 26.2 36.6 26.5 36.7 26.7 36.8 C 27 36.9 27.3 37 27.5 37.2 C 27.5 37.2 27.2 37.7 27.2 37.7 C 26.8 37.3 26.3 37.1 25.8 37.1 C 25.5 37.1 25.2 37.2 25 37.4 C 24.9 37.5 24.8 37.7 24.8 37.9 C 24.8 37.9 24.8 37.9 24.8 37.9 C 24.8 38.2 24.9 38.4 25 38.5 C 25.2 38.7 25.6 38.8 26.1 38.9 C 26.6 39 27 39.2 27.3 39.4 C 27.6 39.6 27.7 39.9 27.7 40.3 C 27.7 40.3 27.7 40.3 27.7 40.3 C 27.7 40.7 27.5 41 27.2 41.3 C 26.9 41.5 26.5 41.7 26 41.7 Z M 30.5 41.7 C 29.7 41.7 29.1 41.4 28.5 40.9 C 28.5 40.9 28.8 40.5 28.8 40.5 C 29.1 40.7 29.4 40.9 29.6 41 C 29.9 41.1 30.2 41.2 30.5 41.2 C 30.8 41.2 31.1 41.1 31.3 40.9 C 31.5 40.8 31.6 40.6 31.6 40.3 C 31.6 40.3 31.6 40.3 31.6 40.3 C 31.6 40.1 31.5 39.9 31.3 39.8 C 31.2 39.6 30.8 39.5 30.3 39.4 C 29.8 39.3 29.3 39.1 29.1 38.9 C 28.8 38.7 28.7 38.4 28.7 38 C 28.7 38 28.7 38 28.7 38 C 28.7 37.6 28.8 37.3 29.1 37 C 29.4 36.8 29.8 36.6 30.3 36.6 C 30.6 36.6 31 36.7 31.2 36.8 C 31.5 36.9 31.8 37 32 37.2 C 32 37.2 31.7 37.7 31.7 37.7 C 31.3 37.3 30.8 37.1 30.3 37.1 C 30 37.1 29.7 37.2 29.5 37.4 C 29.3 37.5 29.2 37.7 29.2 37.9 C 29.2 37.9 29.2 37.9 29.2 37.9 C 29.2 38.2 29.3 38.4 29.5 38.5 C 29.7 38.7 30.1 38.8 30.6 38.9 C 31.1 39 31.5 39.2 31.8 39.4 C 32 39.6 32.2 39.9 32.2 40.3 C 32.2 40.3 32.2 40.3 32.2 40.3 C 32.2 40.7 32 41 31.7 41.3 C 31.4 41.5 31 41.7 30.5 41.7 Z M 34.8 41.7 C 34 41.7 33.4 41.4 32.9 40.8 C 32.9 40.8 33.3 40.5 33.3 40.5 C 33.7 40.9 34.2 41.2 34.8 41.2 C 35.1 41.2 35.3 41.1 35.5 40.9 C 35.8 40.7 35.9 40.5 35.9 40.2 C 35.9 40.2 35.9 40.2 35.9 40.2 C 35.9 39.9 35.7 39.7 35.5 39.5 C 35.2 39.4 34.9 39.3 34.5 39.3 C 34.48 39.27 34.2 39.3 34.2 39.3 L 34.1 38.9 L 35.6 37.2 L 33.2 37.2 L 33.2 36.7 L 36.3 36.7 L 36.3 37.1 C 36.3 37.1 34.8 38.81 34.8 38.8 C 35.3 38.9 35.7 39 36 39.2 C 36.3 39.4 36.4 39.8 36.4 40.2 C 36.4 40.2 36.4 40.2 36.4 40.2 C 36.4 40.6 36.3 41 35.9 41.3 C 35.6 41.5 35.2 41.7 34.8 41.7 Z M 41.5 39.1 C 41.5 39.9 41.3 40.5 40.9 40.9 C 40.5 41.4 40 41.7 39.4 41.7 C 38.8 41.7 38.3 41.4 37.9 41 C 37.5 40.5 37.3 39.9 37.3 39.2 C 37.3 39.2 37.3 39.1 37.3 39.1 C 37.3 38.4 37.5 37.8 37.9 37.4 C 38.3 36.9 38.8 36.6 39.4 36.6 C 40 36.6 40.5 36.9 40.9 37.3 C 41.3 37.8 41.5 38.4 41.5 39.1 C 41.46 39.14 41.5 39.1 41.5 39.1 C 41.5 39.1 41.46 39.15 41.5 39.1 Z M 37.9 39.1 C 37.9 39.7 38 40.2 38.3 40.6 C 38.6 41 39 41.2 39.4 41.2 C 39.9 41.2 40.2 41 40.5 40.6 C 40.8 40.2 40.9 39.7 40.9 39.2 C 40.9 39.2 40.9 39.1 40.9 39.1 C 40.9 38.6 40.7 38.1 40.5 37.7 C 40.2 37.3 39.8 37.1 39.4 37.1 C 38.9 37.1 38.6 37.3 38.3 37.7 C 38 38.1 37.9 38.6 37.9 39.1 C 37.9 39.14 37.9 39.1 37.9 39.1 C 37.9 39.1 37.9 39.15 37.9 39.1 Z M 44.9 41.6 L 44.9 40.4 L 42.3 40.4 L 42.2 40 L 45 36.7 L 45.5 36.7 L 45.5 40 L 46.2 40 L 46.2 40.4 L 45.5 40.4 L 45.5 41.6 L 44.9 41.6 Z M 42.9 40 L 44.9 40 L 44.9 37.4 L 42.9 40 Z M 49.3 42.7 L 49.3 38 L 49.8 38 C 49.8 38 49.83 38.71 49.8 38.7 C 50.2 38.2 50.7 37.9 51.2 37.9 C 51.7 37.9 52.1 38.1 52.4 38.4 C 52.8 38.8 52.9 39.2 52.9 39.8 C 52.9 39.8 52.9 39.8 52.9 39.8 C 52.9 40.4 52.8 40.8 52.4 41.2 C 52.1 41.5 51.7 41.7 51.2 41.7 C 50.6 41.7 50.2 41.4 49.8 40.9 C 49.83 40.91 49.8 42.7 49.8 42.7 L 49.3 42.7 Z M 51.1 41.2 C 51.5 41.2 51.8 41.1 52 40.8 C 52.3 40.6 52.4 40.2 52.4 39.8 C 52.4 39.8 52.4 39.8 52.4 39.8 C 52.4 39.4 52.3 39 52 38.8 C 51.8 38.5 51.5 38.4 51.1 38.4 C 50.8 38.4 50.5 38.5 50.2 38.8 C 49.9 39.1 49.8 39.4 49.8 39.8 C 49.8 39.8 49.8 39.8 49.8 39.8 C 49.8 40.2 49.9 40.5 50.2 40.8 C 50.5 41.1 50.8 41.2 51.1 41.2 Z M 56.3 41.1 C 56 41.5 55.6 41.7 55 41.7 C 54.7 41.7 54.3 41.6 54.1 41.4 C 53.8 41.2 53.7 40.9 53.7 40.5 C 53.7 40.5 53.7 40.5 53.7 40.5 C 53.7 40.2 53.8 39.9 54.1 39.7 C 54.4 39.5 54.7 39.4 55.2 39.4 C 55.6 39.4 56 39.4 56.3 39.5 C 56.3 39.5 56.3 39.4 56.3 39.4 C 56.3 39.1 56.2 38.8 56 38.7 C 55.9 38.5 55.6 38.4 55.3 38.4 C 54.9 38.4 54.5 38.5 54.2 38.7 C 54.2 38.7 54 38.2 54 38.2 C 54.4 38 54.9 37.9 55.3 37.9 C 55.8 37.9 56.2 38.1 56.5 38.3 C 56.7 38.6 56.8 38.9 56.8 39.4 C 56.85 39.39 56.8 41.6 56.8 41.6 L 56.3 41.6 L 56.3 41.1 C 56.3 41.1 56.33 41.05 56.3 41.1 Z M 55.1 41.2 C 55.5 41.2 55.8 41.2 56 41 C 56.2 40.8 56.3 40.6 56.3 40.3 C 56.3 40.3 56.3 39.9 56.3 39.9 C 56 39.8 55.6 39.8 55.3 39.8 C 54.9 39.8 54.7 39.8 54.5 40 C 54.3 40.1 54.2 40.3 54.2 40.5 C 54.2 40.5 54.2 40.5 54.2 40.5 C 54.2 40.7 54.3 40.9 54.5 41.1 C 54.7 41.2 54.9 41.2 55.1 41.2 Z M 59.2 41.7 C 58.6 41.7 58.1 41.5 57.7 41.1 C 57.7 41.1 58 40.8 58 40.8 C 58.4 41.1 58.8 41.2 59.2 41.2 C 59.4 41.2 59.6 41.2 59.8 41.1 C 59.9 41 60 40.8 60 40.6 C 60 40.6 60 40.6 60 40.6 C 60 40.5 59.9 40.3 59.7 40.2 C 59.6 40.2 59.4 40.1 59.1 40 C 58.9 40 58.8 39.9 58.8 39.9 C 58.7 39.9 58.6 39.8 58.5 39.8 C 58.4 39.8 58.3 39.7 58.2 39.7 C 58.2 39.6 58.1 39.6 58.1 39.5 C 58 39.4 57.9 39.4 57.9 39.3 C 57.9 39.2 57.9 39.1 57.9 39 C 57.9 39 57.9 39 57.9 39 C 57.9 38.6 58 38.4 58.2 38.2 C 58.4 38 58.7 37.9 59.1 37.9 C 59.6 37.9 60 38.1 60.4 38.3 C 60.4 38.3 60.2 38.7 60.2 38.7 C 59.8 38.5 59.4 38.4 59.1 38.4 C 58.9 38.4 58.7 38.4 58.6 38.5 C 58.5 38.6 58.4 38.7 58.4 38.9 C 58.4 38.9 58.4 38.9 58.4 38.9 C 58.4 39 58.4 39 58.4 39.1 C 58.5 39.1 58.5 39.2 58.6 39.2 C 58.6 39.3 58.7 39.3 58.8 39.4 C 58.9 39.4 59 39.4 59 39.4 C 59.1 39.5 59.2 39.5 59.3 39.5 C 59.5 39.6 59.6 39.6 59.7 39.6 C 59.7 39.7 59.9 39.7 60 39.8 C 60.1 39.8 60.2 39.9 60.2 40 C 60.3 40 60.4 40.1 60.4 40.2 C 60.5 40.3 60.5 40.4 60.5 40.6 C 60.5 40.6 60.5 40.6 60.5 40.6 C 60.5 40.9 60.4 41.2 60.1 41.4 C 59.9 41.6 59.6 41.7 59.2 41.7 Z M 61.5 41.6 L 61.5 36.5 L 62.1 36.5 L 62.1 41.6 L 61.5 41.6 Z M 65.7 41.1 C 65.4 41.5 65 41.7 64.4 41.7 C 64 41.7 63.7 41.6 63.5 41.4 C 63.2 41.2 63 40.9 63 40.5 C 63 40.5 63 40.5 63 40.5 C 63 40.2 63.2 39.9 63.5 39.7 C 63.8 39.5 64.1 39.4 64.6 39.4 C 65 39.4 65.3 39.4 65.7 39.5 C 65.7 39.5 65.7 39.4 65.7 39.4 C 65.7 39.1 65.6 38.8 65.4 38.7 C 65.2 38.5 65 38.4 64.6 38.4 C 64.3 38.4 63.9 38.5 63.5 38.7 C 63.5 38.7 63.4 38.2 63.4 38.2 C 63.8 38 64.2 37.9 64.7 37.9 C 65.2 37.9 65.6 38.1 65.9 38.3 C 66.1 38.6 66.2 38.9 66.2 39.4 C 66.23 39.39 66.2 41.6 66.2 41.6 L 65.7 41.6 L 65.7 41.1 C 65.7 41.1 65.71 41.05 65.7 41.1 Z M 64.5 41.2 C 64.8 41.2 65.1 41.2 65.4 41 C 65.6 40.8 65.7 40.6 65.7 40.3 C 65.7 40.3 65.7 39.9 65.7 39.9 C 65.4 39.8 65 39.8 64.7 39.8 C 64.3 39.8 64.1 39.8 63.9 40 C 63.7 40.1 63.6 40.3 63.6 40.5 C 63.6 40.5 63.6 40.5 63.6 40.5 C 63.6 40.7 63.7 40.9 63.9 41.1 C 64 41.2 64.3 41.2 64.5 41.2 Z M 67.4 41.6 L 67.4 38 L 67.9 38 C 67.9 38 67.91 38.61 67.9 38.6 C 68.2 38.1 68.6 37.9 69.2 37.9 C 69.6 37.9 69.9 38 70.2 38.3 C 70.4 38.6 70.5 38.9 70.5 39.4 C 70.54 39.35 70.5 41.6 70.5 41.6 L 70 41.6 C 70 41.6 70 39.49 70 39.5 C 70 39.1 69.9 38.9 69.7 38.7 C 69.6 38.5 69.3 38.4 69 38.4 C 68.7 38.4 68.4 38.5 68.2 38.7 C 68 38.9 67.9 39.2 67.9 39.5 C 67.91 39.53 67.9 41.6 67.9 41.6 L 67.4 41.6 Z M 71.7 41.6 L 71.7 38 L 72.2 38 C 72.2 38 72.23 38.59 72.2 38.6 C 72.4 38.4 72.5 38.2 72.7 38.1 C 72.9 38 73.1 37.9 73.4 37.9 C 73.9 37.9 74.3 38.1 74.6 38.6 C 74.9 38.1 75.3 37.9 75.8 37.9 C 76.3 37.9 76.6 38 76.8 38.3 C 77.1 38.6 77.2 38.9 77.2 39.4 C 77.17 39.36 77.2 41.6 77.2 41.6 L 76.6 41.6 C 76.6 41.6 76.64 39.49 76.6 39.5 C 76.6 39.1 76.6 38.9 76.4 38.7 C 76.2 38.5 76 38.4 75.7 38.4 C 75.4 38.4 75.2 38.5 75 38.7 C 74.8 38.9 74.7 39.2 74.7 39.5 C 74.7 39.51 74.7 41.6 74.7 41.6 L 74.2 41.6 C 74.2 41.6 74.16 39.47 74.2 39.5 C 74.2 39.1 74.1 38.9 73.9 38.7 C 73.7 38.5 73.5 38.4 73.2 38.4 C 72.9 38.4 72.7 38.5 72.5 38.7 C 72.3 38.9 72.2 39.2 72.2 39.5 C 72.23 39.53 72.2 41.6 72.2 41.6 L 71.7 41.6 Z M 80.7 41.1 C 80.4 41.5 80 41.7 79.4 41.7 C 79 41.7 78.7 41.6 78.5 41.4 C 78.2 41.2 78 40.9 78 40.5 C 78 40.5 78 40.5 78 40.5 C 78 40.2 78.2 39.9 78.5 39.7 C 78.8 39.5 79.1 39.4 79.6 39.4 C 80 39.4 80.3 39.4 80.7 39.5 C 80.7 39.5 80.7 39.4 80.7 39.4 C 80.7 39.1 80.6 38.8 80.4 38.7 C 80.2 38.5 80 38.4 79.6 38.4 C 79.3 38.4 78.9 38.5 78.5 38.7 C 78.5 38.7 78.4 38.2 78.4 38.2 C 78.8 38 79.2 37.9 79.7 37.9 C 80.2 37.9 80.6 38.1 80.9 38.3 C 81.1 38.6 81.2 38.9 81.2 39.4 C 81.23 39.39 81.2 41.6 81.2 41.6 L 80.7 41.6 L 80.7 41.1 C 80.7 41.1 80.71 41.05 80.7 41.1 Z M 79.5 41.2 C 79.8 41.2 80.1 41.2 80.4 41 C 80.6 40.8 80.7 40.6 80.7 40.3 C 80.7 40.3 80.7 39.9 80.7 39.9 C 80.4 39.8 80 39.8 79.7 39.8 C 79.3 39.8 79.1 39.8 78.9 40 C 78.7 40.1 78.6 40.3 78.6 40.5 C 78.6 40.5 78.6 40.5 78.6 40.5 C 78.6 40.7 78.7 40.9 78.9 41.1 C 79 41.2 79.3 41.2 79.5 41.2 Z M 82.2 41.6 L 82.2 41.3 L 84.6 38.4 L 82.2 38.4 L 82.2 38 L 85.3 38 L 85.3 38.3 L 82.9 41.1 L 85.3 41.1 L 85.3 41.6 L 82.2 41.6 Z M 89.6 42.7 L 89.1 42.4 C 89.1 42.4 89.66 41.65 89.7 41.6 C 89.2 41.6 88.9 41.4 88.6 41 C 88.3 40.7 88.1 40.3 88.1 39.8 C 88.1 39.8 88.1 39.8 88.1 39.8 C 88.1 39.3 88.3 38.8 88.7 38.5 C 89 38.1 89.5 37.9 90 37.9 C 90.6 37.9 91 38.1 91.4 38.5 C 91.4 38.5 91.1 38.9 91.1 38.9 C 90.7 38.6 90.4 38.4 90 38.4 C 89.6 38.4 89.3 38.5 89.1 38.8 C 88.8 39.1 88.7 39.4 88.7 39.8 C 88.7 39.8 88.7 39.8 88.7 39.8 C 88.7 40.2 88.8 40.5 89.1 40.8 C 89.3 41.1 89.6 41.2 90 41.2 C 90.4 41.2 90.8 41 91.1 40.7 C 91.1 40.7 91.5 41 91.5 41 C 91.1 41.4 90.6 41.7 90.1 41.7 C 90.1 41.68 89.6 42.7 89.6 42.7 Z M 95.4 41 C 95 41.5 94.5 41.7 93.9 41.7 C 93.4 41.7 93 41.5 92.7 41.2 C 92.3 40.8 92.1 40.4 92.1 39.8 C 92.1 39.8 92.1 39.8 92.1 39.8 C 92.1 39.3 92.3 38.8 92.6 38.4 C 93 38.1 93.4 37.9 93.9 37.9 C 94.4 37.9 94.8 38.1 95.1 38.4 C 95.4 38.8 95.6 39.3 95.6 39.8 C 95.6 39.9 95.6 39.9 95.6 40 C 95.6 40 92.7 40 92.7 40 C 92.7 40.4 92.9 40.7 93.1 40.9 C 93.3 41.1 93.6 41.2 94 41.2 C 94.4 41.2 94.8 41 95.1 40.7 C 95.1 40.7 95.4 41 95.4 41 C 95.4 41 95.44 41 95.4 41 Z M 92.7 39.6 C 92.7 39.6 95 39.6 95 39.6 C 95 39.2 94.9 38.9 94.7 38.7 C 94.5 38.5 94.2 38.4 93.9 38.4 C 93.5 38.4 93.3 38.5 93.1 38.7 C 92.9 38.9 92.7 39.2 92.7 39.6 Z M 96.6 41.6 L 96.6 36.5 L 97.1 36.5 L 97.1 41.6 L 96.6 41.6 Z M 98.4 37.2 L 98.4 36.6 L 99 36.6 L 99 37.2 L 98.4 37.2 Z M 98.4 41.6 L 98.4 38 L 98.9 38 L 98.9 41.6 L 98.4 41.6 Z M 100.2 41.6 L 100.2 36.5 L 100.7 36.5 L 100.7 40 L 102.7 38 L 103.4 38 L 101.8 39.5 L 103.4 41.6 L 102.8 41.6 L 101.5 39.9 L 100.7 40.7 L 100.7 41.6 L 100.2 41.6 Z M 105.5 42.5 L 108.8 36 L 109.3 36 L 106 42.5 L 105.5 42.5 Z M 111.6 41.6 L 113.8 36.7 L 114.4 36.7 L 116.6 41.6 L 116 41.6 L 115.4 40.3 L 112.7 40.3 L 112.2 41.6 L 111.6 41.6 Z M 113 39.8 L 115.2 39.8 L 114.1 37.3 L 113 39.8 Z M 117.5 41.6 L 117.5 36.7 C 117.5 36.7 119.64 36.7 119.6 36.7 C 120.2 36.7 120.6 36.8 120.9 37.1 C 121.1 37.3 121.2 37.6 121.2 37.9 C 121.2 37.9 121.2 37.9 121.2 37.9 C 121.2 38.5 121 38.8 120.5 39.1 C 121.2 39.3 121.5 39.7 121.5 40.2 C 121.5 40.2 121.5 40.3 121.5 40.3 C 121.5 40.7 121.3 41 121 41.2 C 120.7 41.5 120.3 41.6 119.7 41.6 C 119.73 41.6 117.5 41.6 117.5 41.6 Z M 120.7 38 C 120.7 38 120.7 38 120.7 38 C 120.7 37.7 120.6 37.6 120.4 37.4 C 120.2 37.3 119.9 37.2 119.6 37.2 C 119.59 37.2 118.1 37.2 118.1 37.2 L 118.1 38.9 C 118.1 38.9 119.54 38.88 119.5 38.9 C 119.9 38.9 120.2 38.8 120.4 38.7 C 120.6 38.5 120.7 38.3 120.7 38 Z M 120.9 40.2 C 120.9 40.2 120.9 40.2 120.9 40.2 C 120.9 39.9 120.8 39.7 120.6 39.6 C 120.4 39.4 120.1 39.4 119.6 39.4 C 119.64 39.37 118.1 39.4 118.1 39.4 L 118.1 41.1 C 118.1 41.1 119.74 41.1 119.7 41.1 C 120.1 41.1 120.4 41 120.6 40.9 C 120.8 40.7 120.9 40.5 120.9 40.2 Z M 124.3 41.7 C 123.5 41.7 122.9 41.4 122.3 40.9 C 122.3 40.9 122.6 40.5 122.6 40.5 C 122.9 40.7 123.1 40.9 123.4 41 C 123.7 41.1 124 41.2 124.3 41.2 C 124.6 41.2 124.9 41.1 125.1 40.9 C 125.3 40.8 125.4 40.6 125.4 40.3 C 125.4 40.3 125.4 40.3 125.4 40.3 C 125.4 40.1 125.3 39.9 125.1 39.8 C 125 39.6 124.6 39.5 124.1 39.4 C 123.5 39.3 123.1 39.1 122.9 38.9 C 122.6 38.7 122.5 38.4 122.5 38 C 122.5 38 122.5 38 122.5 38 C 122.5 37.6 122.6 37.3 122.9 37 C 123.2 36.8 123.6 36.6 124.1 36.6 C 124.4 36.6 124.7 36.7 125 36.8 C 125.3 36.9 125.5 37 125.8 37.2 C 125.8 37.2 125.5 37.7 125.5 37.7 C 125.1 37.3 124.6 37.1 124.1 37.1 C 123.8 37.1 123.5 37.2 123.3 37.4 C 123.1 37.5 123 37.7 123 37.9 C 123 37.9 123 37.9 123 37.9 C 123 38.2 123.1 38.4 123.3 38.5 C 123.5 38.7 123.8 38.8 124.4 38.9 C 124.9 39 125.3 39.2 125.6 39.4 C 125.8 39.6 126 39.9 126 40.3 C 126 40.3 126 40.3 126 40.3 C 126 40.7 125.8 41 125.5 41.3 C 125.2 41.5 124.8 41.7 124.3 41.7 Z " stroke="none" fill="#000"/>  </g>  <g id="Polygon41224">    <path d="M 0.7 23.6 L 0.7 18.7 C 0.7 18.7 2.8 18.7 2.8 18.7 C 3.4 18.7 3.9 18.9 4.2 19.2 C 4.4 19.4 4.6 19.8 4.6 20.2 C 4.6 20.2 4.6 20.2 4.6 20.2 C 4.6 20.6 4.4 20.9 4.2 21.1 C 4 21.4 3.6 21.5 3.2 21.6 C 3.24 21.6 4.7 23.6 4.7 23.6 L 4.1 23.6 L 2.6 21.7 L 1.2 21.7 L 1.2 23.6 L 0.7 23.6 Z M 1.2 21.2 C 1.2 21.2 2.75 21.2 2.8 21.2 C 3.1 21.2 3.4 21.1 3.7 20.9 C 3.9 20.7 4 20.5 4 20.2 C 4 20.2 4 20.2 4 20.2 C 4 19.9 3.9 19.6 3.7 19.5 C 3.5 19.3 3.2 19.2 2.8 19.2 C 2.76 19.21 1.2 19.2 1.2 19.2 L 1.2 21.2 Z M 8.7 23 C 8.3 23.5 7.8 23.7 7.2 23.7 C 6.7 23.7 6.3 23.5 6 23.2 C 5.6 22.8 5.4 22.4 5.4 21.8 C 5.4 21.8 5.4 21.8 5.4 21.8 C 5.4 21.3 5.6 20.8 5.9 20.4 C 6.3 20.1 6.7 19.9 7.2 19.9 C 7.7 19.9 8.1 20.1 8.4 20.4 C 8.7 20.8 8.9 21.3 8.9 21.8 C 8.9 21.9 8.9 21.9 8.9 22 C 8.9 22 6 22 6 22 C 6 22.4 6.2 22.7 6.4 22.9 C 6.6 23.1 6.9 23.2 7.3 23.2 C 7.7 23.2 8.1 23 8.4 22.7 C 8.4 22.7 8.7 23 8.7 23 C 8.7 23 8.74 23 8.7 23 Z M 6 21.6 C 6 21.6 8.3 21.6 8.3 21.6 C 8.3 21.2 8.2 20.9 8 20.7 C 7.8 20.5 7.5 20.4 7.2 20.4 C 6.8 20.4 6.6 20.5 6.4 20.7 C 6.1 20.9 6 21.2 6 21.6 Z M 9.8 23.6 L 9.8 20 L 10.3 20 C 10.3 20 10.35 20.61 10.3 20.6 C 10.6 20.1 11.1 19.9 11.6 19.9 C 12 19.9 12.4 20 12.6 20.3 C 12.8 20.6 13 20.9 13 21.4 C 12.97 21.35 13 23.6 13 23.6 L 12.4 23.6 C 12.4 23.6 12.43 21.49 12.4 21.5 C 12.4 21.1 12.3 20.9 12.2 20.7 C 12 20.5 11.7 20.4 11.4 20.4 C 11.1 20.4 10.9 20.5 10.7 20.7 C 10.4 20.9 10.3 21.2 10.3 21.5 C 10.35 21.53 10.3 23.6 10.3 23.6 L 9.8 23.6 Z M 14.1 23.6 L 14.1 18.5 L 14.7 18.5 L 14.7 22 L 16.6 20 L 17.3 20 L 15.8 21.5 L 17.3 23.6 L 16.7 23.6 L 15.4 21.9 L 14.7 22.7 L 14.7 23.6 L 14.1 23.6 Z M 18.1 20.7 L 18.1 20 L 18.7 20 L 18.7 20.7 L 18.1 20.7 Z M 18.1 23.6 L 18.1 22.9 L 18.7 22.9 L 18.7 23.6 L 18.1 23.6 Z M 23.8 23.7 C 23 23.7 22.3 23.4 21.7 22.9 C 21.7 22.9 22.1 22.5 22.1 22.5 C 22.4 22.7 22.6 22.9 22.9 23 C 23.1 23.1 23.4 23.2 23.8 23.2 C 24.1 23.2 24.4 23.1 24.6 22.9 C 24.8 22.8 24.9 22.6 24.9 22.3 C 24.9 22.3 24.9 22.3 24.9 22.3 C 24.9 22.1 24.8 21.9 24.6 21.8 C 24.4 21.6 24.1 21.5 23.6 21.4 C 23 21.3 22.6 21.1 22.3 20.9 C 22.1 20.7 21.9 20.4 21.9 20 C 21.9 20 21.9 20 21.9 20 C 21.9 19.6 22.1 19.3 22.4 19 C 22.7 18.8 23.1 18.6 23.6 18.6 C 23.9 18.6 24.2 18.7 24.5 18.8 C 24.8 18.9 25 19 25.3 19.2 C 25.3 19.2 25 19.7 25 19.7 C 24.5 19.3 24 19.1 23.5 19.1 C 23.2 19.1 23 19.2 22.8 19.4 C 22.6 19.5 22.5 19.7 22.5 19.9 C 22.5 19.9 22.5 19.9 22.5 19.9 C 22.5 20.2 22.6 20.4 22.8 20.5 C 23 20.7 23.3 20.8 23.8 20.9 C 24.4 21 24.8 21.2 25 21.4 C 25.3 21.6 25.4 21.9 25.4 22.3 C 25.4 22.3 25.4 22.3 25.4 22.3 C 25.4 22.7 25.3 23 25 23.3 C 24.6 23.5 24.2 23.7 23.8 23.7 Z M 28.1 23.7 C 27.6 23.7 27.1 23.5 26.8 23.1 C 26.4 22.8 26.2 22.3 26.2 21.8 C 26.2 21.8 26.2 21.8 26.2 21.8 C 26.2 21.3 26.4 20.8 26.8 20.5 C 27.1 20.1 27.6 19.9 28.1 19.9 C 28.7 19.9 29.1 20.1 29.5 20.5 C 29.8 20.8 30 21.3 30 21.8 C 30 21.8 30 21.8 30 21.8 C 30 22.3 29.8 22.8 29.5 23.1 C 29.1 23.5 28.7 23.7 28.1 23.7 Z M 28.1 23.2 C 28.5 23.2 28.8 23.1 29.1 22.8 C 29.3 22.5 29.5 22.2 29.5 21.8 C 29.5 21.8 29.5 21.8 29.5 21.8 C 29.5 21.4 29.3 21.1 29.1 20.8 C 28.8 20.5 28.5 20.4 28.1 20.4 C 27.7 20.4 27.4 20.5 27.2 20.8 C 26.9 21.1 26.8 21.4 26.8 21.8 C 26.8 21.8 26.8 21.8 26.8 21.8 C 26.8 22.2 26.9 22.5 27.2 22.8 C 27.4 23.1 27.7 23.2 28.1 23.2 Z M 31.2 23.6 L 31.2 20.5 L 30.7 20.5 L 30.7 20 L 31.2 20 C 31.2 20 31.18 19.67 31.2 19.7 C 31.2 19.3 31.3 19 31.5 18.7 C 31.7 18.6 31.9 18.5 32.3 18.5 C 32.5 18.5 32.7 18.5 32.9 18.6 C 32.9 18.6 32.9 19 32.9 19 C 32.7 19 32.5 18.9 32.3 18.9 C 31.9 18.9 31.7 19.2 31.7 19.7 C 31.72 19.7 31.7 20 31.7 20 L 32.9 20 L 32.9 20.5 L 31.7 20.5 L 31.7 23.6 L 31.2 23.6 Z M 35.4 23.5 C 35.2 23.6 35 23.7 34.8 23.7 C 34.4 23.7 34.2 23.6 34 23.4 C 33.8 23.2 33.7 23 33.7 22.6 C 33.74 22.64 33.7 20.5 33.7 20.5 L 33.2 20.5 L 33.2 20 L 33.7 20 L 33.7 18.9 L 34.3 18.9 L 34.3 20 L 35.4 20 L 35.4 20.5 L 34.3 20.5 C 34.3 20.5 34.28 22.57 34.3 22.6 C 34.3 23 34.5 23.2 34.9 23.2 C 35.1 23.2 35.2 23.1 35.4 23 C 35.41 23.05 35.4 23.5 35.4 23.5 C 35.4 23.5 35.41 23.51 35.4 23.5 Z M 39.8 23.6 L 39.8 19.2 L 38.2 19.2 L 38.2 18.7 L 42 18.7 L 42 19.2 L 40.4 19.2 L 40.4 23.6 L 39.8 23.6 Z M 45.4 23.1 C 45 23.5 44.6 23.7 44 23.7 C 43.7 23.7 43.4 23.6 43.1 23.4 C 42.8 23.2 42.7 22.9 42.7 22.5 C 42.7 22.5 42.7 22.5 42.7 22.5 C 42.7 22.2 42.8 21.9 43.1 21.7 C 43.4 21.5 43.8 21.4 44.2 21.4 C 44.6 21.4 45 21.4 45.4 21.5 C 45.4 21.5 45.4 21.4 45.4 21.4 C 45.4 21.1 45.3 20.8 45.1 20.7 C 44.9 20.5 44.6 20.4 44.3 20.4 C 43.9 20.4 43.5 20.5 43.2 20.7 C 43.2 20.7 43 20.2 43 20.2 C 43.4 20 43.9 19.9 44.3 19.9 C 44.8 19.9 45.2 20.1 45.5 20.3 C 45.7 20.6 45.9 20.9 45.9 21.4 C 45.87 21.39 45.9 23.6 45.9 23.6 L 45.4 23.6 L 45.4 23.1 C 45.4 23.1 45.35 23.05 45.4 23.1 Z M 44.1 23.2 C 44.5 23.2 44.8 23.2 45 23 C 45.2 22.8 45.4 22.6 45.4 22.3 C 45.4 22.3 45.4 21.9 45.4 21.9 C 45 21.8 44.6 21.8 44.3 21.8 C 44 21.8 43.7 21.8 43.5 22 C 43.3 22.1 43.2 22.3 43.2 22.5 C 43.2 22.5 43.2 22.5 43.2 22.5 C 43.2 22.7 43.3 22.9 43.5 23.1 C 43.7 23.2 43.9 23.2 44.1 23.2 Z M 49.6 23 C 49.3 23.4 48.9 23.7 48.3 23.7 C 47.9 23.7 47.6 23.5 47.3 23.3 C 47.1 23 47 22.7 47 22.2 C 46.96 22.23 47 20 47 20 L 47.5 20 C 47.5 20 47.5 22.09 47.5 22.1 C 47.5 22.4 47.6 22.7 47.8 22.9 C 47.9 23.1 48.2 23.2 48.5 23.2 C 48.8 23.2 49.1 23.1 49.3 22.9 C 49.5 22.7 49.6 22.4 49.6 22.1 C 49.59 22.05 49.6 20 49.6 20 L 50.1 20 L 50.1 23.6 L 49.6 23.6 L 49.6 23 C 49.6 23 49.59 22.97 49.6 23 Z M 51.3 24.7 L 51.3 20 L 51.9 20 C 51.9 20 51.87 20.71 51.9 20.7 C 52.2 20.2 52.7 19.9 53.3 19.9 C 53.7 19.9 54.1 20.1 54.5 20.4 C 54.8 20.8 55 21.2 55 21.8 C 55 21.8 55 21.8 55 21.8 C 55 22.4 54.8 22.8 54.5 23.2 C 54.1 23.5 53.7 23.7 53.3 23.7 C 52.7 23.7 52.2 23.4 51.9 22.9 C 51.87 22.91 51.9 24.7 51.9 24.7 L 51.3 24.7 Z M 53.2 23.2 C 53.5 23.2 53.8 23.1 54.1 22.8 C 54.3 22.6 54.4 22.2 54.4 21.8 C 54.4 21.8 54.4 21.8 54.4 21.8 C 54.4 21.4 54.3 21 54.1 20.8 C 53.8 20.5 53.5 20.4 53.2 20.4 C 52.8 20.4 52.5 20.5 52.2 20.8 C 52 21.1 51.8 21.4 51.8 21.8 C 51.8 21.8 51.8 21.8 51.8 21.8 C 51.8 22.2 52 22.5 52.2 22.8 C 52.5 23.1 52.8 23.2 53.2 23.2 Z M 59.1 23 C 58.7 23.5 58.2 23.7 57.6 23.7 C 57.1 23.7 56.6 23.5 56.3 23.2 C 55.9 22.8 55.8 22.4 55.8 21.8 C 55.8 21.8 55.8 21.8 55.8 21.8 C 55.8 21.3 55.9 20.8 56.2 20.4 C 56.6 20.1 57 19.9 57.5 19.9 C 58 19.9 58.4 20.1 58.7 20.4 C 59 20.8 59.2 21.3 59.2 21.8 C 59.2 21.9 59.2 21.9 59.2 22 C 59.2 22 56.3 22 56.3 22 C 56.3 22.4 56.5 22.7 56.7 22.9 C 57 23.1 57.2 23.2 57.6 23.2 C 58 23.2 58.4 23 58.7 22.7 C 58.72 22.7 59.1 23 59.1 23 C 59.1 23 59.05 23 59.1 23 Z M 56.3 21.6 C 56.3 21.6 58.6 21.6 58.6 21.6 C 58.6 21.2 58.5 20.9 58.3 20.7 C 58.1 20.5 57.8 20.4 57.5 20.4 C 57.2 20.4 56.9 20.5 56.7 20.7 C 56.5 20.9 56.3 21.2 56.3 21.6 Z " stroke="none" fill="#000"/>  </g>  <g id="Polygon41223">    <path d="M 3 9.3 L 3 8.6 L 3.6 8.6 L 3.6 9.3 L 3 9.3 Z M 1.7 9.3 L 1.7 8.6 L 2.3 8.6 L 2.3 9.3 L 1.7 9.3 Z M 2.7 14.7 C 2 14.7 1.5 14.5 1.2 14.1 C 0.8 13.7 0.6 13.2 0.6 12.5 C 0.62 12.55 0.6 9.7 0.6 9.7 L 1.2 9.7 C 1.2 9.7 1.17 12.51 1.2 12.5 C 1.2 13 1.3 13.4 1.6 13.7 C 1.8 14 2.2 14.2 2.7 14.2 C 3.1 14.2 3.5 14 3.8 13.8 C 4 13.5 4.1 13.1 4.1 12.5 C 4.14 12.55 4.1 9.7 4.1 9.7 L 4.7 9.7 C 4.7 9.7 4.7 12.51 4.7 12.5 C 4.7 13.2 4.5 13.7 4.1 14.1 C 3.8 14.5 3.3 14.7 2.7 14.7 Z M 5.9 14.6 L 5.9 11 L 6.5 11 C 6.5 11 6.45 11.93 6.5 11.9 C 6.6 11.6 6.8 11.4 7 11.2 C 7.3 11 7.6 10.9 7.9 10.9 C 7.93 10.92 7.9 11.5 7.9 11.5 C 7.9 11.5 7.89 11.5 7.9 11.5 C 7.5 11.5 7.1 11.6 6.9 11.9 C 6.6 12.2 6.5 12.6 6.5 13.2 C 6.45 13.16 6.5 14.6 6.5 14.6 L 5.9 14.6 Z M 10.6 10.4 L 10.6 9.8 L 11.2 9.8 L 11.2 10.4 L 10.6 10.4 Z M 9.3 10.4 L 9.3 9.8 L 10 9.8 L 10 10.4 L 9.3 10.4 Z M 11.3 14 C 11 14.4 10.6 14.7 10.1 14.7 C 9.7 14.7 9.3 14.5 9.1 14.3 C 8.8 14 8.7 13.7 8.7 13.2 C 8.69 13.23 8.7 11 8.7 11 L 9.2 11 C 9.2 11 9.23 13.09 9.2 13.1 C 9.2 13.4 9.3 13.7 9.5 13.9 C 9.7 14.1 9.9 14.2 10.2 14.2 C 10.5 14.2 10.8 14.1 11 13.9 C 11.2 13.7 11.3 13.4 11.3 13.1 C 11.32 13.05 11.3 11 11.3 11 L 11.9 11 L 11.9 14.6 L 11.3 14.6 L 11.3 14 C 11.3 14 11.32 13.97 11.3 14 Z M 13.1 14.6 L 13.1 11 L 13.6 11 C 13.6 11 13.6 11.61 13.6 11.6 C 13.9 11.1 14.3 10.9 14.8 10.9 C 15.3 10.9 15.6 11 15.9 11.3 C 16.1 11.6 16.2 11.9 16.2 12.4 C 16.23 12.35 16.2 14.6 16.2 14.6 L 15.7 14.6 C 15.7 14.6 15.69 12.49 15.7 12.5 C 15.7 12.1 15.6 11.9 15.4 11.7 C 15.2 11.5 15 11.4 14.7 11.4 C 14.4 11.4 14.1 11.5 13.9 11.7 C 13.7 11.9 13.6 12.2 13.6 12.5 C 13.6 12.53 13.6 14.6 13.6 14.6 L 13.1 14.6 Z M 19.6 14.6 L 19.6 9.7 L 20.1 9.7 L 20.1 12.6 L 22.9 9.7 L 23.7 9.7 L 21.5 11.8 L 23.7 14.6 L 23 14.6 L 21.2 12.2 L 20.1 13.3 L 20.1 14.6 L 19.6 14.6 Z M 26.2 14.7 C 25.6 14.7 25.2 14.5 24.8 14.1 C 24.5 13.8 24.3 13.3 24.3 12.8 C 24.3 12.8 24.3 12.8 24.3 12.8 C 24.3 12.3 24.5 11.8 24.8 11.5 C 25.2 11.1 25.6 10.9 26.2 10.9 C 26.7 10.9 27.2 11.1 27.5 11.5 C 27.9 11.8 28.1 12.3 28.1 12.8 C 28.1 12.8 28.1 12.8 28.1 12.8 C 28.1 13.3 27.9 13.8 27.5 14.1 C 27.2 14.5 26.7 14.7 26.2 14.7 Z M 26.2 14.2 C 26.6 14.2 26.9 14.1 27.1 13.8 C 27.4 13.5 27.5 13.2 27.5 12.8 C 27.5 12.8 27.5 12.8 27.5 12.8 C 27.5 12.4 27.4 12.1 27.1 11.8 C 26.9 11.5 26.5 11.4 26.2 11.4 C 25.8 11.4 25.5 11.5 25.2 11.8 C 25 12.1 24.8 12.4 24.8 12.8 C 24.8 12.8 24.8 12.8 24.8 12.8 C 24.8 13.2 25 13.5 25.2 13.8 C 25.5 14.1 25.8 14.2 26.2 14.2 Z M 31.9 13.9 C 31.6 14.4 31.1 14.7 30.5 14.7 C 30.1 14.7 29.7 14.5 29.3 14.2 C 29 13.8 28.8 13.4 28.8 12.8 C 28.8 12.8 28.8 12.8 28.8 12.8 C 28.8 12.2 29 11.8 29.3 11.4 C 29.7 11.1 30.1 10.9 30.5 10.9 C 31.1 10.9 31.6 11.2 31.9 11.7 C 31.93 11.67 31.9 9.5 31.9 9.5 L 32.5 9.5 L 32.5 14.6 L 31.9 14.6 L 31.9 13.9 C 31.9 13.9 31.93 13.87 31.9 13.9 Z M 30.6 14.2 C 31 14.2 31.3 14.1 31.6 13.8 C 31.8 13.5 32 13.2 32 12.8 C 32 12.8 32 12.8 32 12.8 C 32 12.4 31.8 12 31.6 11.8 C 31.3 11.5 31 11.4 30.6 11.4 C 30.3 11.4 30 11.5 29.7 11.8 C 29.5 12 29.4 12.4 29.4 12.8 C 29.4 12.8 29.4 12.8 29.4 12.8 C 29.4 13.2 29.5 13.6 29.7 13.8 C 30 14.1 30.3 14.2 30.6 14.2 Z M 36.2 14 C 36 14.4 35.5 14.7 35 14.7 C 34.6 14.7 34.2 14.5 34 14.3 C 33.7 14 33.6 13.7 33.6 13.2 C 33.62 13.23 33.6 11 33.6 11 L 34.2 11 C 34.2 11 34.16 13.09 34.2 13.1 C 34.2 13.4 34.2 13.7 34.4 13.9 C 34.6 14.1 34.8 14.2 35.2 14.2 C 35.5 14.2 35.7 14.1 35.9 13.9 C 36.1 13.7 36.2 13.4 36.2 13.1 C 36.25 13.05 36.2 11 36.2 11 L 36.8 11 L 36.8 14.6 L 36.2 14.6 L 36.2 14 C 36.2 14 36.25 13.97 36.2 14 Z M 38 11.7 L 38 11 L 38.6 11 L 38.6 11.7 L 38 11.7 Z M 38 14.6 L 38 13.9 L 38.6 13.9 L 38.6 14.6 L 38 14.6 Z M 41.7 14.6 L 41.7 13.8 L 44.4 10.6 L 41.8 10.6 L 41.8 9.7 L 45.8 9.7 L 45.8 10.5 L 43.1 13.7 L 45.8 13.7 L 45.8 14.6 L 41.7 14.6 Z M 46.8 14.6 L 46.8 9.7 C 46.8 9.7 48.72 9.7 48.7 9.7 C 49.5 9.7 50.1 9.9 50.6 10.4 C 51.1 10.9 51.3 11.4 51.3 12.1 C 51.3 12.1 51.3 12.1 51.3 12.1 C 51.3 12.8 51.1 13.4 50.6 13.9 C 50.1 14.4 49.5 14.6 48.7 14.6 C 48.72 14.6 46.8 14.6 46.8 14.6 Z M 48.7 10.7 C 48.72 10.67 47.9 10.7 47.9 10.7 L 47.9 13.6 C 47.9 13.6 48.72 13.63 48.7 13.6 C 49.2 13.6 49.5 13.5 49.8 13.2 C 50.1 13 50.2 12.6 50.2 12.2 C 50.2 12.2 50.2 12.1 50.2 12.1 C 50.2 11.7 50.1 11.4 49.8 11.1 C 49.5 10.8 49.2 10.7 48.7 10.7 Z M 56 14.7 C 55.2 14.7 54.5 14.4 54.1 13.8 C 54.1 13.8 54.8 13.1 54.8 13.1 C 55.1 13.5 55.5 13.7 56 13.7 C 56.2 13.7 56.4 13.7 56.5 13.6 C 56.6 13.4 56.7 13.3 56.7 13.1 C 56.7 13.1 56.7 13.1 56.7 13.1 C 56.7 12.9 56.6 12.8 56.4 12.6 C 56.3 12.5 56 12.5 55.7 12.5 C 55.72 12.49 55.3 12.5 55.3 12.5 L 55.1 11.8 L 56.3 10.6 L 54.3 10.6 L 54.3 9.7 L 57.7 9.7 L 57.7 10.5 C 57.7 10.5 56.42 11.69 56.4 11.7 C 57.3 11.8 57.7 12.3 57.7 13.1 C 57.7 13.1 57.7 13.1 57.7 13.1 C 57.7 13.6 57.6 13.9 57.3 14.2 C 56.9 14.5 56.5 14.7 56 14.7 Z M 58.5 14.6 L 58.5 13.7 C 58.5 13.7 60.12 12.41 60.1 12.4 C 60.4 12.1 60.7 11.9 60.8 11.8 C 60.9 11.6 61 11.4 61 11.2 C 61 11 60.9 10.9 60.8 10.8 C 60.7 10.7 60.5 10.6 60.3 10.6 C 60.1 10.6 60 10.6 59.8 10.7 C 59.7 10.8 59.5 11 59.3 11.3 C 59.3 11.3 58.5 10.6 58.5 10.6 C 58.8 10.3 59.1 10 59.3 9.9 C 59.6 9.7 60 9.6 60.4 9.6 C 60.9 9.6 61.3 9.8 61.6 10 C 61.9 10.3 62.1 10.7 62.1 11.1 C 62.1 11.1 62.1 11.2 62.1 11.2 C 62.1 11.5 62 11.9 61.8 12.1 C 61.6 12.4 61.3 12.7 60.8 13.1 C 60.77 13.05 60 13.7 60 13.7 L 62.1 13.7 L 62.1 14.6 L 58.5 14.6 Z M 64.7 14.7 C 64.2 14.7 63.7 14.5 63.3 14.3 C 63 14 62.8 13.7 62.8 13.3 C 62.8 13.3 62.8 13.2 62.8 13.2 C 62.8 13 62.9 12.7 63 12.5 C 63.1 12.3 63.3 12.2 63.6 12.1 C 63.2 11.8 63 11.5 63 11 C 63 11 63 11 63 11 C 63 10.6 63.1 10.3 63.5 10 C 63.8 9.8 64.2 9.6 64.7 9.6 C 65.2 9.6 65.6 9.8 65.9 10 C 66.3 10.3 66.4 10.6 66.4 11 C 66.4 11 66.4 11 66.4 11 C 66.4 11.5 66.2 11.8 65.8 12.1 C 66.1 12.2 66.3 12.4 66.4 12.5 C 66.5 12.7 66.6 12.9 66.6 13.2 C 66.6 13.2 66.6 13.2 66.6 13.2 C 66.6 13.7 66.4 14 66.1 14.3 C 65.7 14.5 65.3 14.7 64.7 14.7 Z M 64 11.1 C 64 11.3 64.1 11.4 64.2 11.5 C 64.3 11.6 64.5 11.7 64.7 11.7 C 64.9 11.7 65.1 11.6 65.2 11.5 C 65.3 11.4 65.4 11.3 65.4 11.1 C 65.4 11.1 65.4 11.1 65.4 11.1 C 65.4 10.9 65.3 10.8 65.2 10.7 C 65.1 10.6 64.9 10.5 64.7 10.5 C 64.5 10.5 64.3 10.6 64.2 10.7 C 64.1 10.8 64 10.9 64 11.1 C 64.01 11.09 64 11.1 64 11.1 C 64 11.1 64.01 11.1 64 11.1 Z M 64.7 13.8 C 65 13.8 65.2 13.7 65.3 13.6 C 65.5 13.5 65.6 13.3 65.6 13.2 C 65.6 13.2 65.6 13.2 65.6 13.2 C 65.6 13 65.5 12.8 65.3 12.7 C 65.2 12.6 65 12.6 64.7 12.6 C 64.5 12.6 64.3 12.6 64.1 12.7 C 63.9 12.8 63.9 13 63.9 13.2 C 63.9 13.2 63.9 13.2 63.9 13.2 C 63.9 13.3 63.9 13.5 64.1 13.6 C 64.2 13.7 64.5 13.8 64.7 13.8 Z M 68 13.3 C 68.3 13.6 68.7 13.7 69.1 13.7 C 69.3 13.7 69.5 13.6 69.6 13.5 C 69.8 13.4 69.9 13.2 69.9 13.1 C 70 12.9 70 12.8 70 12.6 C 69.8 12.8 69.5 12.9 69.1 12.9 C 68.5 12.9 68.1 12.8 67.8 12.5 C 67.5 12.2 67.3 11.8 67.3 11.3 C 67.3 11.3 67.3 11.3 67.3 11.3 C 67.3 10.8 67.5 10.4 67.8 10.1 C 68.2 9.8 68.6 9.6 69.2 9.6 C 69.5 9.6 69.8 9.7 70 9.7 C 70.2 9.8 70.4 10 70.6 10.1 C 71 10.5 71.2 11.2 71.2 12 C 71.2 12 71.2 12 71.2 12 C 71.2 12.8 71 13.5 70.6 14 C 70.2 14.4 69.7 14.7 69 14.7 C 68.4 14.7 67.9 14.5 67.4 14.1 C 67.42 14.1 68 13.3 68 13.3 C 68 13.3 67.98 13.28 68 13.3 Z M 69.2 12 C 69.5 12 69.7 12 69.8 11.8 C 70 11.7 70.1 11.5 70.1 11.3 C 70.1 11.3 70.1 11.3 70.1 11.3 C 70.1 11.1 70 10.9 69.8 10.7 C 69.7 10.6 69.5 10.5 69.2 10.5 C 68.9 10.5 68.7 10.6 68.6 10.7 C 68.4 10.9 68.4 11.1 68.4 11.3 C 68.4 11.3 68.4 11.3 68.4 11.3 C 68.4 11.5 68.5 11.7 68.6 11.8 C 68.8 12 69 12 69.2 12 Z M 72.8 14.6 L 72.8 10.8 L 71.9 11 L 71.7 10.1 L 73.1 9.7 L 73.9 9.7 L 73.9 14.6 L 72.8 14.6 Z " stroke="none" fill="#000"/>  </g>  <g id="Polygon41222">    <path d="M 2 5.6 L 2 3.7 L 0.1 0.7 L 1.3 0.7 L 2.5 2.7 L 3.7 0.7 L 4.9 0.7 L 3 3.6 L 3 5.6 L 2 5.6 Z M 7.7 5.2 C 7.4 5.5 7 5.7 6.6 5.7 C 6.2 5.7 5.9 5.6 5.6 5.4 C 5.4 5.2 5.3 4.9 5.3 4.5 C 5.3 4.5 5.3 4.5 5.3 4.5 C 5.3 4.1 5.4 3.8 5.7 3.6 C 5.9 3.4 6.3 3.3 6.8 3.3 C 7.1 3.3 7.4 3.4 7.7 3.5 C 7.7 3.5 7.7 3.4 7.7 3.4 C 7.7 2.9 7.4 2.7 6.9 2.7 C 6.5 2.7 6.2 2.8 5.9 2.9 C 5.9 2.9 5.6 2.1 5.6 2.1 C 6.1 1.9 6.5 1.8 7 1.8 C 7.6 1.8 8 1.9 8.3 2.2 C 8.6 2.5 8.7 2.9 8.7 3.4 C 8.71 3.42 8.7 5.6 8.7 5.6 L 7.7 5.6 L 7.7 5.2 C 7.7 5.2 7.69 5.19 7.7 5.2 Z M 6.9 4.9 C 7.1 4.9 7.3 4.9 7.5 4.8 C 7.6 4.6 7.7 4.5 7.7 4.3 C 7.7 4.3 7.7 4.1 7.7 4.1 C 7.5 4 7.3 3.9 7 3.9 C 6.8 3.9 6.6 4 6.5 4.1 C 6.4 4.2 6.3 4.3 6.3 4.5 C 6.3 4.5 6.3 4.5 6.3 4.5 C 6.3 4.6 6.3 4.7 6.5 4.8 C 6.6 4.9 6.7 4.9 6.9 4.9 Z M 12.9 6.2 C 12.6 6.6 12.1 6.7 11.3 6.7 C 10.7 6.7 10.1 6.6 9.7 6.3 C 9.7 6.3 10 5.5 10 5.5 C 10.4 5.8 10.9 5.9 11.3 5.9 C 12 5.9 12.4 5.5 12.4 4.9 C 12.4 4.9 12.4 4.7 12.4 4.7 C 12.2 4.9 12 5 11.8 5.1 C 11.6 5.2 11.4 5.3 11.1 5.3 C 10.7 5.3 10.3 5.1 10 4.8 C 9.6 4.5 9.5 4.1 9.5 3.5 C 9.5 3.5 9.5 3.5 9.5 3.5 C 9.5 3 9.6 2.6 10 2.3 C 10.3 1.9 10.7 1.8 11.1 1.8 C 11.6 1.8 12 2 12.3 2.3 C 12.34 2.34 12.3 1.8 12.3 1.8 L 13.4 1.8 C 13.4 1.8 13.4 4.75 13.4 4.8 C 13.4 5.4 13.2 5.9 12.9 6.2 C 12.9 6.2 12.9 6.2 12.9 6.2 Z M 10.5 3.5 C 10.5 3.8 10.6 4 10.8 4.2 C 11 4.3 11.2 4.4 11.4 4.4 C 11.7 4.4 11.9 4.3 12.1 4.2 C 12.3 4 12.4 3.8 12.4 3.5 C 12.4 3.5 12.4 3.5 12.4 3.5 C 12.4 3.3 12.3 3.1 12.1 2.9 C 11.9 2.7 11.7 2.7 11.4 2.7 C 11.2 2.7 11 2.7 10.8 2.9 C 10.6 3.1 10.5 3.3 10.5 3.5 C 10.53 3.53 10.5 3.5 10.5 3.5 C 10.5 3.5 10.53 3.54 10.5 3.5 Z M 12.9 0.3 C 12.9 0.7 12.7 1 12.5 1.2 C 12.3 1.4 11.9 1.4 11.6 1.4 C 11.2 1.4 10.9 1.4 10.7 1.2 C 10.4 1 10.3 0.7 10.3 0.3 C 10.3 0.3 11 0.3 11 0.3 C 11.1 0.6 11.3 0.8 11.6 0.8 C 11.9 0.8 12.1 0.6 12.2 0.3 C 12.17 0.34 12.9 0.3 12.9 0.3 C 12.9 0.3 12.89 0.34 12.9 0.3 Z M 18.3 5.7 C 17.5 5.7 16.8 5.4 16.2 4.9 C 16.2 4.9 16.9 4.1 16.9 4.1 C 17.4 4.5 17.8 4.7 18.3 4.7 C 18.6 4.7 18.7 4.7 18.9 4.6 C 19 4.5 19 4.4 19 4.3 C 19 4.3 19 4.2 19 4.2 C 19 4.1 19 4 18.8 3.9 C 18.7 3.8 18.4 3.7 18.1 3.6 C 17.8 3.5 17.6 3.5 17.4 3.4 C 17.2 3.3 17 3.3 16.9 3.1 C 16.7 3 16.6 2.9 16.5 2.7 C 16.5 2.6 16.4 2.4 16.4 2.1 C 16.4 2.1 16.4 2.1 16.4 2.1 C 16.4 1.7 16.6 1.3 16.9 1 C 17.2 0.8 17.6 0.6 18.1 0.6 C 18.8 0.6 19.4 0.8 20 1.3 C 20 1.3 19.4 2.1 19.4 2.1 C 18.9 1.7 18.5 1.6 18.1 1.6 C 17.9 1.6 17.8 1.6 17.7 1.7 C 17.6 1.8 17.5 1.9 17.5 2 C 17.5 2 17.5 2 17.5 2 C 17.5 2.2 17.6 2.3 17.7 2.4 C 17.8 2.5 18.1 2.6 18.6 2.7 C 19.1 2.8 19.5 3 19.7 3.2 C 20 3.4 20.1 3.7 20.1 4.1 C 20.1 4.1 20.1 4.2 20.1 4.2 C 20.1 4.6 19.9 5 19.6 5.3 C 19.3 5.5 18.9 5.7 18.3 5.7 Z M 20.9 6.7 L 20.9 1.8 L 22 1.8 C 22 1.8 22 2.39 22 2.4 C 22.3 2 22.7 1.8 23.2 1.8 C 23.6 1.8 24 2 24.4 2.3 C 24.7 2.6 24.9 3.1 24.9 3.7 C 24.9 3.7 24.9 3.7 24.9 3.7 C 24.9 4.3 24.7 4.8 24.4 5.1 C 24 5.5 23.6 5.7 23.2 5.7 C 22.7 5.7 22.3 5.5 22 5.1 C 22 5.11 22 6.7 22 6.7 L 20.9 6.7 Z M 22 3.7 C 22 4 22.1 4.3 22.2 4.5 C 22.4 4.7 22.6 4.8 22.9 4.8 C 23.2 4.8 23.4 4.7 23.5 4.5 C 23.7 4.3 23.8 4 23.8 3.7 C 23.8 3.7 23.8 3.7 23.8 3.7 C 23.8 3.4 23.7 3.2 23.5 3 C 23.4 2.8 23.2 2.7 22.9 2.7 C 22.6 2.7 22.4 2.8 22.2 3 C 22.1 3.2 22 3.4 22 3.7 C 21.99 3.72 22 3.7 22 3.7 C 22 3.7 21.99 3.73 22 3.7 Z M 25.7 5.6 L 25.7 1.8 L 26.7 1.8 C 26.7 1.8 26.73 2.6 26.7 2.6 C 27 2 27.4 1.8 27.9 1.8 C 27.92 1.78 27.9 2.9 27.9 2.9 C 27.9 2.9 27.87 2.89 27.9 2.9 C 27.5 2.9 27.2 3 27 3.2 C 26.8 3.4 26.7 3.8 26.7 4.2 C 26.73 4.21 26.7 5.6 26.7 5.6 L 25.7 5.6 Z M 31.9 5 C 31.5 5.5 31 5.7 30.4 5.7 C 29.8 5.7 29.3 5.5 29 5.1 C 28.6 4.8 28.4 4.3 28.4 3.7 C 28.4 3.7 28.4 3.7 28.4 3.7 C 28.4 3.2 28.6 2.7 28.9 2.3 C 29.3 2 29.7 1.8 30.3 1.8 C 30.9 1.8 31.3 2 31.6 2.4 C 31.9 2.8 32.1 3.2 32.1 3.8 C 32.1 3.9 32.1 4 32.1 4.1 C 32.1 4.1 29.5 4.1 29.5 4.1 C 29.5 4.3 29.6 4.5 29.8 4.6 C 29.9 4.8 30.1 4.8 30.4 4.8 C 30.7 4.8 31 4.7 31.3 4.4 C 31.29 4.44 31.9 5 31.9 5 C 31.9 5 31.9 4.98 31.9 5 Z M 29.4 3.4 C 29.4 3.4 31.1 3.4 31.1 3.4 C 31 3.2 30.9 3 30.8 2.8 C 30.7 2.7 30.5 2.6 30.3 2.6 C 30 2.6 29.9 2.7 29.7 2.8 C 29.6 3 29.5 3.2 29.4 3.4 Z M 34.5 4.4 L 35.3 1.8 L 36.4 1.8 C 36.4 1.8 35.01 5.69 35 5.7 C 34.9 6.1 34.7 6.3 34.5 6.5 C 34.3 6.7 34.1 6.7 33.8 6.7 C 33.4 6.7 33.1 6.7 32.8 6.5 C 32.8 6.5 33.2 5.7 33.2 5.7 C 33.3 5.8 33.5 5.9 33.6 5.9 C 33.7 5.9 33.8 5.8 33.9 5.8 C 33.9 5.8 34 5.7 34 5.6 C 34.01 5.61 32.5 1.8 32.5 1.8 L 33.7 1.8 L 34.5 4.4 Z M 37.1 1.4 L 37.1 0.5 L 38.2 0.5 L 38.2 1.4 L 37.1 1.4 Z M 37.1 5.6 L 37.1 1.8 L 38.2 1.8 L 38.2 5.6 L 37.1 5.6 Z M 41.2 3.9 L 41.2 2.9 L 44.2 2.9 L 44.2 3.9 L 41.2 3.9 Z M 48.9 5.7 C 48.1 5.7 47.4 5.4 46.9 4.9 C 46.9 4.9 47.5 4.1 47.5 4.1 C 48 4.5 48.5 4.7 49 4.7 C 49.2 4.7 49.4 4.7 49.5 4.6 C 49.6 4.5 49.7 4.4 49.7 4.3 C 49.7 4.3 49.7 4.2 49.7 4.2 C 49.7 4.1 49.6 4 49.5 3.9 C 49.3 3.8 49.1 3.7 48.7 3.6 C 48.4 3.5 48.2 3.5 48 3.4 C 47.8 3.3 47.7 3.3 47.5 3.1 C 47.4 3 47.2 2.9 47.2 2.7 C 47.1 2.6 47.1 2.4 47.1 2.1 C 47.1 2.1 47.1 2.1 47.1 2.1 C 47.1 1.7 47.2 1.3 47.5 1 C 47.9 0.8 48.3 0.6 48.8 0.6 C 49.5 0.6 50.1 0.8 50.6 1.3 C 50.6 1.3 50 2.1 50 2.1 C 49.6 1.7 49.1 1.6 48.8 1.6 C 48.6 1.6 48.4 1.6 48.3 1.7 C 48.2 1.8 48.1 1.9 48.1 2 C 48.1 2 48.1 2 48.1 2 C 48.1 2.2 48.2 2.3 48.3 2.4 C 48.5 2.5 48.7 2.6 49.2 2.7 C 49.7 2.8 50.1 3 50.4 3.2 C 50.6 3.4 50.7 3.7 50.7 4.1 C 50.7 4.1 50.7 4.2 50.7 4.2 C 50.7 4.6 50.6 5 50.2 5.3 C 49.9 5.5 49.5 5.7 48.9 5.7 Z M 51.6 1.4 L 51.6 0.5 L 52.7 0.5 L 52.7 1.4 L 51.6 1.4 Z M 51.6 5.6 L 51.6 1.8 L 52.7 1.8 L 52.7 5.6 L 51.6 5.6 Z M 53.7 5.6 L 53.7 1.8 L 54.7 1.8 C 54.7 1.8 54.75 2.38 54.7 2.4 C 55.1 2 55.4 1.8 55.8 1.8 C 56.3 1.8 56.6 1.9 56.8 2.1 C 57 2.4 57.1 2.7 57.1 3.2 C 57.12 3.17 57.1 5.6 57.1 5.6 L 56.1 5.6 C 56.1 5.6 56.06 3.51 56.1 3.5 C 56.1 3 55.8 2.7 55.4 2.7 C 55.2 2.7 55 2.8 54.9 2.9 C 54.8 3.1 54.7 3.3 54.7 3.5 C 54.75 3.51 54.7 5.6 54.7 5.6 L 53.7 5.6 Z M 61.3 6.2 C 61 6.6 60.5 6.7 59.7 6.7 C 59.1 6.7 58.6 6.6 58.1 6.3 C 58.1 6.3 58.4 5.5 58.4 5.5 C 58.8 5.8 59.3 5.9 59.7 5.9 C 60.4 5.9 60.8 5.5 60.8 4.9 C 60.8 4.9 60.8 4.7 60.8 4.7 C 60.6 4.9 60.4 5 60.2 5.1 C 60 5.2 59.8 5.3 59.5 5.3 C 59.1 5.3 58.7 5.1 58.4 4.8 C 58 4.5 57.9 4.1 57.9 3.5 C 57.9 3.5 57.9 3.5 57.9 3.5 C 57.9 3 58 2.6 58.4 2.3 C 58.7 1.9 59.1 1.8 59.5 1.8 C 60 1.8 60.4 2 60.8 2.3 C 60.75 2.34 60.8 1.8 60.8 1.8 L 61.8 1.8 C 61.8 1.8 61.82 4.75 61.8 4.8 C 61.8 5.4 61.7 5.9 61.3 6.2 C 61.3 6.2 61.3 6.2 61.3 6.2 Z M 58.9 3.5 C 58.9 3.8 59 4 59.2 4.2 C 59.4 4.3 59.6 4.4 59.8 4.4 C 60.1 4.4 60.3 4.3 60.5 4.2 C 60.7 4 60.8 3.8 60.8 3.5 C 60.8 3.5 60.8 3.5 60.8 3.5 C 60.8 3.3 60.7 3.1 60.5 2.9 C 60.3 2.7 60.1 2.7 59.8 2.7 C 59.6 2.7 59.4 2.7 59.2 2.9 C 59 3.1 58.9 3.3 58.9 3.5 C 58.94 3.53 58.9 3.5 58.9 3.5 C 58.9 3.5 58.94 3.54 58.9 3.5 Z M 62.8 5.6 L 62.8 0.5 L 63.9 0.5 L 63.9 5.6 L 62.8 5.6 Z M 68.2 5 C 67.8 5.5 67.3 5.7 66.7 5.7 C 66.1 5.7 65.6 5.5 65.3 5.1 C 64.9 4.8 64.7 4.3 64.7 3.7 C 64.7 3.7 64.7 3.7 64.7 3.7 C 64.7 3.2 64.9 2.7 65.2 2.3 C 65.6 2 66 1.8 66.6 1.8 C 67.1 1.8 67.6 2 67.9 2.4 C 68.2 2.8 68.4 3.2 68.4 3.8 C 68.4 3.9 68.4 4 68.4 4.1 C 68.4 4.1 65.8 4.1 65.8 4.1 C 65.8 4.3 65.9 4.5 66.1 4.6 C 66.2 4.8 66.4 4.8 66.7 4.8 C 67 4.8 67.3 4.7 67.6 4.4 C 67.58 4.44 68.2 5 68.2 5 C 68.2 5 68.19 4.98 68.2 5 Z M 65.7 3.4 C 65.7 3.4 67.3 3.4 67.3 3.4 C 67.3 3.2 67.2 3 67.1 2.8 C 67 2.7 66.8 2.6 66.6 2.6 C 66.3 2.6 66.2 2.7 66 2.8 C 65.9 3 65.8 3.2 65.7 3.4 Z M 70.5 5.7 C 69.9 5.7 69.4 5.5 68.9 5.1 C 68.9 5.1 69.3 4.4 69.3 4.4 C 69.7 4.7 70.1 4.9 70.5 4.9 C 70.8 4.9 71 4.8 71 4.6 C 71 4.6 71 4.6 71 4.6 C 71 4.5 71 4.5 70.9 4.5 C 70.9 4.4 70.9 4.4 70.9 4.4 C 70.8 4.4 70.8 4.4 70.8 4.3 C 70.8 4.3 70.7 4.3 70.7 4.3 C 70.6 4.3 70.6 4.2 70.5 4.2 C 70.5 4.2 70.4 4.2 70.4 4.2 C 70.3 4.2 70.2 4.1 70.2 4.1 C 70 4.1 69.9 4 69.8 4 C 69.7 3.9 69.6 3.9 69.4 3.8 C 69.3 3.7 69.2 3.6 69.2 3.5 C 69.1 3.3 69.1 3.2 69.1 3 C 69.1 3 69.1 3 69.1 3 C 69.1 2.6 69.2 2.3 69.5 2.1 C 69.7 1.9 70 1.8 70.4 1.8 C 70.9 1.8 71.4 1.9 71.8 2.2 C 71.8 2.2 71.4 3 71.4 3 C 71 2.7 70.7 2.6 70.4 2.6 C 70.3 2.6 70.2 2.6 70.1 2.7 C 70.1 2.7 70 2.8 70 2.9 C 70 2.9 70 2.9 70 2.9 C 70 3 70.1 3 70.2 3.1 C 70.3 3.2 70.5 3.3 70.8 3.3 C 70.9 3.4 71.1 3.4 71.2 3.5 C 71.3 3.5 71.4 3.6 71.5 3.7 C 71.7 3.8 71.8 3.9 71.8 4 C 71.9 4.1 71.9 4.3 71.9 4.4 C 71.9 4.4 71.9 4.5 71.9 4.5 C 71.9 4.9 71.8 5.2 71.5 5.4 C 71.3 5.6 70.9 5.7 70.5 5.7 Z " stroke="none" fill="#000"/>  </g></svg>