<?xml version="1.0" standalone="no"?><!DOCTYPE svg PUBLIC "-//W3C//DTD SVG 1.1//EN" "http://www.w3.org/Graphics/SVG/1.1/DTD/svg11.dtd"><svg xmlns="http://www.w3.org/2000/svg" version="1.1" width="131px" height="71.4px" viewBox="0 -3 131 71.4" style="top:-3px">  <desc>Stand Bula k Makinesi F r as r n Kodu: ZD 330257 Renk: Siyah PP 22 cm Tasar m: Stand</desc>  <defs/>  <g id="Polygon43856">    <path d="M 2 59.6 L 2 55.2 L 0.3 55.2 L 0.3 54.7 L 4.2 54.7 L 4.2 55.2 L 2.5 55.2 L 2.5 59.6 L 2 59.6 Z M 7.5 59.1 C 7.2 59.5 6.7 59.7 6.2 59.7 C 5.8 59.7 5.5 59.6 5.2 59.4 C 5 59.2 4.8 58.9 4.8 58.5 C 4.8 58.5 4.8 58.5 4.8 58.5 C 4.8 58.2 5 57.9 5.2 57.7 C 5.5 57.5 5.9 57.4 6.4 57.4 C 6.7 57.4 7.1 57.4 7.5 57.5 C 7.5 57.5 7.5 57.4 7.5 57.4 C 7.5 57.1 7.4 56.8 7.2 56.7 C 7 56.5 6.7 56.4 6.4 56.4 C 6 56.4 5.7 56.5 5.3 56.7 C 5.3 56.7 5.1 56.2 5.1 56.2 C 5.6 56 6 55.9 6.5 55.9 C 7 55.9 7.4 56.1 7.6 56.3 C 7.9 56.6 8 56.9 8 57.4 C 7.99 57.39 8 59.6 8 59.6 L 7.5 59.6 L 7.5 59.1 C 7.5 59.1 7.48 59.05 7.5 59.1 Z M 6.3 59.2 C 6.6 59.2 6.9 59.2 7.1 59 C 7.4 58.8 7.5 58.6 7.5 58.3 C 7.5 58.3 7.5 57.9 7.5 57.9 C 7.1 57.8 6.8 57.8 6.4 57.8 C 6.1 57.8 5.8 57.8 5.6 58 C 5.5 58.1 5.4 58.3 5.4 58.5 C 5.4 58.5 5.4 58.5 5.4 58.5 C 5.4 58.7 5.5 58.9 5.6 59.1 C 5.8 59.2 6 59.2 6.3 59.2 Z M 10.3 59.7 C 9.8 59.7 9.3 59.5 8.8 59.1 C 8.8 59.1 9.1 58.8 9.1 58.8 C 9.5 59.1 9.9 59.2 10.4 59.2 C 10.6 59.2 10.8 59.2 10.9 59.1 C 11 59 11.1 58.8 11.1 58.6 C 11.1 58.6 11.1 58.6 11.1 58.6 C 11.1 58.5 11 58.3 10.9 58.2 C 10.7 58.2 10.5 58.1 10.2 58 C 10.1 58 10 57.9 9.9 57.9 C 9.9 57.9 9.8 57.8 9.7 57.8 C 9.5 57.8 9.5 57.7 9.4 57.7 C 9.3 57.6 9.3 57.6 9.2 57.5 C 9.1 57.4 9.1 57.4 9.1 57.3 C 9 57.2 9 57.1 9 57 C 9 57 9 57 9 57 C 9 56.6 9.1 56.4 9.4 56.2 C 9.6 56 9.9 55.9 10.2 55.9 C 10.7 55.9 11.1 56.1 11.5 56.3 C 11.5 56.3 11.3 56.7 11.3 56.7 C 10.9 56.5 10.6 56.4 10.2 56.4 C 10 56.4 9.9 56.4 9.7 56.5 C 9.6 56.6 9.5 56.7 9.5 56.9 C 9.5 56.9 9.5 56.9 9.5 56.9 C 9.5 57 9.6 57 9.6 57.1 C 9.6 57.1 9.7 57.2 9.7 57.2 C 9.8 57.3 9.8 57.3 9.9 57.4 C 10 57.4 10.1 57.4 10.2 57.4 C 10.2 57.5 10.3 57.5 10.5 57.5 C 10.6 57.6 10.7 57.6 10.8 57.6 C 10.9 57.7 11 57.7 11.1 57.8 C 11.2 57.8 11.3 57.9 11.4 58 C 11.5 58 11.5 58.1 11.6 58.2 C 11.6 58.3 11.6 58.4 11.6 58.6 C 11.6 58.6 11.6 58.6 11.6 58.6 C 11.6 58.9 11.5 59.2 11.3 59.4 C 11 59.6 10.7 59.7 10.3 59.7 Z M 15 59.1 C 14.7 59.5 14.3 59.7 13.7 59.7 C 13.3 59.7 13 59.6 12.8 59.4 C 12.5 59.2 12.4 58.9 12.4 58.5 C 12.4 58.5 12.4 58.5 12.4 58.5 C 12.4 58.2 12.5 57.9 12.8 57.7 C 13.1 57.5 13.4 57.4 13.9 57.4 C 14.3 57.4 14.6 57.4 15 57.5 C 15 57.5 15 57.4 15 57.4 C 15 57.1 14.9 56.8 14.7 56.7 C 14.5 56.5 14.3 56.4 13.9 56.4 C 13.6 56.4 13.2 56.5 12.8 56.7 C 12.8 56.7 12.7 56.2 12.7 56.2 C 13.1 56 13.5 55.9 14 55.9 C 14.5 55.9 14.9 56.1 15.2 56.3 C 15.4 56.6 15.5 56.9 15.5 57.4 C 15.53 57.39 15.5 59.6 15.5 59.6 L 15 59.6 L 15 59.1 C 15 59.1 15.01 59.05 15 59.1 Z M 13.8 59.2 C 14.2 59.2 14.4 59.2 14.7 59 C 14.9 58.8 15 58.6 15 58.3 C 15 58.3 15 57.9 15 57.9 C 14.7 57.8 14.3 57.8 14 57.8 C 13.6 57.8 13.4 57.8 13.2 58 C 13 58.1 12.9 58.3 12.9 58.5 C 12.9 58.5 12.9 58.5 12.9 58.5 C 12.9 58.7 13 58.9 13.2 59.1 C 13.3 59.2 13.6 59.2 13.8 59.2 Z M 16.7 59.6 L 16.7 56 L 17.2 56 C 17.2 56 17.22 56.93 17.2 56.9 C 17.4 56.6 17.6 56.4 17.8 56.2 C 18.1 56 18.4 55.9 18.7 55.9 C 18.7 55.92 18.7 56.5 18.7 56.5 C 18.7 56.5 18.65 56.5 18.7 56.5 C 18.2 56.5 17.9 56.6 17.6 56.9 C 17.4 57.2 17.2 57.6 17.2 58.2 C 17.22 58.16 17.2 59.6 17.2 59.6 L 16.7 59.6 Z M 19.6 59.6 L 19.6 56 L 20.1 56 L 20.1 59.6 L 19.6 59.6 Z M 21.4 59.6 L 21.4 56 L 21.9 56 C 21.9 56 21.9 56.59 21.9 56.6 C 22 56.4 22.2 56.2 22.4 56.1 C 22.6 56 22.8 55.9 23.1 55.9 C 23.6 55.9 24 56.1 24.2 56.6 C 24.5 56.1 25 55.9 25.5 55.9 C 25.9 55.9 26.2 56 26.5 56.3 C 26.7 56.6 26.8 56.9 26.8 57.4 C 26.84 57.36 26.8 59.6 26.8 59.6 L 26.3 59.6 C 26.3 59.6 26.31 57.49 26.3 57.5 C 26.3 57.1 26.2 56.9 26.1 56.7 C 25.9 56.5 25.7 56.4 25.4 56.4 C 25.1 56.4 24.9 56.5 24.7 56.7 C 24.5 56.9 24.4 57.2 24.4 57.5 C 24.37 57.51 24.4 59.6 24.4 59.6 L 23.8 59.6 C 23.8 59.6 23.83 57.47 23.8 57.5 C 23.8 57.1 23.8 56.9 23.6 56.7 C 23.4 56.5 23.2 56.4 22.9 56.4 C 22.6 56.4 22.4 56.5 22.2 56.7 C 22 56.9 21.9 57.2 21.9 57.5 C 21.9 57.53 21.9 59.6 21.9 59.6 L 21.4 59.6 Z M 28 56.7 L 28 56 L 28.6 56 L 28.6 56.7 L 28 56.7 Z M 28 59.6 L 28 58.9 L 28.6 58.9 L 28.6 59.6 L 28 59.6 Z M 33.6 59.7 C 32.9 59.7 32.2 59.4 31.6 58.9 C 31.6 58.9 32 58.5 32 58.5 C 32.2 58.7 32.5 58.9 32.8 59 C 33 59.1 33.3 59.2 33.7 59.2 C 34 59.2 34.3 59.1 34.5 58.9 C 34.7 58.8 34.8 58.6 34.8 58.3 C 34.8 58.3 34.8 58.3 34.8 58.3 C 34.8 58.1 34.7 57.9 34.5 57.8 C 34.3 57.6 34 57.5 33.5 57.4 C 32.9 57.3 32.5 57.1 32.2 56.9 C 32 56.7 31.8 56.4 31.8 56 C 31.8 56 31.8 56 31.8 56 C 31.8 55.6 32 55.3 32.3 55 C 32.6 54.8 33 54.6 33.4 54.6 C 33.8 54.6 34.1 54.7 34.4 54.8 C 34.6 54.9 34.9 55 35.2 55.2 C 35.2 55.2 34.8 55.7 34.8 55.7 C 34.4 55.3 33.9 55.1 33.4 55.1 C 33.1 55.1 32.9 55.2 32.7 55.4 C 32.5 55.5 32.4 55.7 32.4 55.9 C 32.4 55.9 32.4 55.9 32.4 55.9 C 32.4 56.2 32.5 56.4 32.7 56.5 C 32.8 56.7 33.2 56.8 33.7 56.9 C 34.3 57 34.7 57.2 34.9 57.4 C 35.2 57.6 35.3 57.9 35.3 58.3 C 35.3 58.3 35.3 58.3 35.3 58.3 C 35.3 58.7 35.2 59 34.8 59.3 C 34.5 59.5 34.1 59.7 33.6 59.7 Z M 38.2 59.5 C 38 59.6 37.8 59.7 37.6 59.7 C 37.2 59.7 37 59.6 36.8 59.4 C 36.6 59.2 36.5 59 36.5 58.6 C 36.54 58.64 36.5 56.5 36.5 56.5 L 36 56.5 L 36 56 L 36.5 56 L 36.5 54.9 L 37.1 54.9 L 37.1 56 L 38.2 56 L 38.2 56.5 L 37.1 56.5 C 37.1 56.5 37.08 58.57 37.1 58.6 C 37.1 59 37.3 59.2 37.7 59.2 C 37.9 59.2 38 59.1 38.2 59 C 38.21 59.05 38.2 59.5 38.2 59.5 C 38.2 59.5 38.21 59.51 38.2 59.5 Z M 41.6 59.1 C 41.2 59.5 40.8 59.7 40.3 59.7 C 39.9 59.7 39.6 59.6 39.3 59.4 C 39 59.2 38.9 58.9 38.9 58.5 C 38.9 58.5 38.9 58.5 38.9 58.5 C 38.9 58.2 39 57.9 39.3 57.7 C 39.6 57.5 40 57.4 40.5 57.4 C 40.8 57.4 41.2 57.4 41.6 57.5 C 41.6 57.5 41.6 57.4 41.6 57.4 C 41.6 57.1 41.5 56.8 41.3 56.7 C 41.1 56.5 40.8 56.4 40.5 56.4 C 40.1 56.4 39.8 56.5 39.4 56.7 C 39.4 56.7 39.2 56.2 39.2 56.2 C 39.7 56 40.1 55.9 40.5 55.9 C 41.1 55.9 41.4 56.1 41.7 56.3 C 42 56.6 42.1 56.9 42.1 57.4 C 42.08 57.39 42.1 59.6 42.1 59.6 L 41.6 59.6 L 41.6 59.1 C 41.6 59.1 41.57 59.05 41.6 59.1 Z M 40.4 59.2 C 40.7 59.2 41 59.2 41.2 59 C 41.5 58.8 41.6 58.6 41.6 58.3 C 41.6 58.3 41.6 57.9 41.6 57.9 C 41.2 57.8 40.9 57.8 40.5 57.8 C 40.2 57.8 39.9 57.8 39.7 58 C 39.5 58.1 39.5 58.3 39.5 58.5 C 39.5 58.5 39.5 58.5 39.5 58.5 C 39.5 58.7 39.5 58.9 39.7 59.1 C 39.9 59.2 40.1 59.2 40.4 59.2 Z M 43.2 59.6 L 43.2 56 L 43.8 56 C 43.8 56 43.77 56.61 43.8 56.6 C 44.1 56.1 44.5 55.9 45 55.9 C 45.4 55.9 45.8 56 46 56.3 C 46.3 56.6 46.4 56.9 46.4 57.4 C 46.4 57.35 46.4 59.6 46.4 59.6 L 45.9 59.6 C 45.9 59.6 45.86 57.49 45.9 57.5 C 45.9 57.1 45.8 56.9 45.6 56.7 C 45.4 56.5 45.2 56.4 44.9 56.4 C 44.5 56.4 44.3 56.5 44.1 56.7 C 43.9 56.9 43.8 57.2 43.8 57.5 C 43.77 57.53 43.8 59.6 43.8 59.6 L 43.2 59.6 Z M 50.4 58.9 C 50.1 59.4 49.6 59.7 49.1 59.7 C 48.6 59.7 48.2 59.5 47.9 59.2 C 47.5 58.8 47.3 58.4 47.3 57.8 C 47.3 57.8 47.3 57.8 47.3 57.8 C 47.3 57.2 47.5 56.8 47.9 56.4 C 48.2 56.1 48.6 55.9 49.1 55.9 C 49.6 55.9 50.1 56.2 50.4 56.7 C 50.45 56.67 50.4 54.5 50.4 54.5 L 51 54.5 L 51 59.6 L 50.4 59.6 L 50.4 58.9 C 50.4 58.9 50.45 58.87 50.4 58.9 Z M 49.2 59.2 C 49.5 59.2 49.8 59.1 50.1 58.8 C 50.3 58.5 50.5 58.2 50.5 57.8 C 50.5 57.8 50.5 57.8 50.5 57.8 C 50.5 57.4 50.3 57 50.1 56.8 C 49.8 56.5 49.5 56.4 49.2 56.4 C 48.8 56.4 48.5 56.5 48.3 56.8 C 48 57 47.9 57.4 47.9 57.8 C 47.9 57.8 47.9 57.8 47.9 57.8 C 47.9 58.2 48 58.6 48.3 58.8 C 48.5 59.1 48.8 59.2 49.2 59.2 Z " stroke="none" fill="#000"/>  </g>  <g id="Polygon43855">    <path d="M 0.3 50.6 L 0.3 50.2 C 0.3 50.2 2.11 48.6 2.1 48.6 C 2.5 48.3 2.8 48 2.9 47.8 C 3.1 47.5 3.1 47.3 3.1 47.1 C 3.1 46.8 3 46.6 2.8 46.4 C 2.7 46.2 2.4 46.1 2.1 46.1 C 1.9 46.1 1.6 46.2 1.4 46.3 C 1.2 46.5 1 46.7 0.8 47 C 0.8 47 0.4 46.7 0.4 46.7 C 0.7 46.3 0.9 46 1.2 45.9 C 1.4 45.7 1.8 45.6 2.2 45.6 C 2.6 45.6 3 45.8 3.3 46 C 3.6 46.3 3.7 46.6 3.7 47 C 3.7 47 3.7 47 3.7 47 C 3.7 47.4 3.6 47.7 3.4 47.9 C 3.3 48.2 2.9 48.5 2.5 48.9 C 2.47 48.93 1.2 50.1 1.2 50.1 L 3.8 50.1 L 3.8 50.6 L 0.3 50.6 Z M 4.5 50.6 L 4.5 50.2 C 4.5 50.2 6.31 48.6 6.3 48.6 C 6.7 48.3 7 48 7.1 47.8 C 7.3 47.5 7.3 47.3 7.3 47.1 C 7.3 46.8 7.2 46.6 7 46.4 C 6.9 46.2 6.6 46.1 6.3 46.1 C 6.1 46.1 5.8 46.2 5.6 46.3 C 5.4 46.5 5.2 46.7 5 47 C 5 47 4.6 46.7 4.6 46.7 C 4.9 46.3 5.1 46 5.4 45.9 C 5.6 45.7 6 45.6 6.4 45.6 C 6.8 45.6 7.2 45.8 7.5 46 C 7.8 46.3 7.9 46.6 7.9 47 C 7.9 47 7.9 47 7.9 47 C 7.9 47.4 7.8 47.7 7.6 47.9 C 7.4 48.2 7.1 48.5 6.7 48.9 C 6.66 48.93 5.4 50.1 5.4 50.1 L 8 50.1 L 8 50.6 L 4.5 50.6 Z M 14.2 50 C 13.8 50.5 13.3 50.7 12.7 50.7 C 12.2 50.7 11.8 50.5 11.4 50.1 C 11 49.8 10.9 49.3 10.9 48.8 C 10.9 48.8 10.9 48.8 10.9 48.8 C 10.9 48.3 11 47.8 11.4 47.5 C 11.8 47.1 12.2 46.9 12.7 46.9 C 13.3 46.9 13.8 47.1 14.2 47.5 C 14.2 47.5 13.8 47.9 13.8 47.9 C 13.5 47.6 13.1 47.4 12.7 47.4 C 12.3 47.4 12 47.5 11.8 47.8 C 11.5 48.1 11.4 48.4 11.4 48.8 C 11.4 48.8 11.4 48.8 11.4 48.8 C 11.4 49.2 11.5 49.5 11.8 49.8 C 12.1 50.1 12.4 50.2 12.7 50.2 C 13.1 50.2 13.5 50 13.9 49.7 C 13.85 49.66 14.2 50 14.2 50 C 14.2 50 14.2 49.98 14.2 50 Z M 15.1 50.6 L 15.1 47 L 15.6 47 C 15.6 47 15.62 47.59 15.6 47.6 C 15.8 47.4 15.9 47.2 16.1 47.1 C 16.3 47 16.5 46.9 16.8 46.9 C 17.3 46.9 17.7 47.1 18 47.6 C 18.3 47.1 18.7 46.9 19.2 46.9 C 19.6 46.9 20 47 20.2 47.3 C 20.5 47.6 20.6 47.9 20.6 48.4 C 20.57 48.36 20.6 50.6 20.6 50.6 L 20 50.6 C 20 50.6 20.03 48.49 20 48.5 C 20 48.1 20 47.9 19.8 47.7 C 19.6 47.5 19.4 47.4 19.1 47.4 C 18.8 47.4 18.6 47.5 18.4 47.7 C 18.2 47.9 18.1 48.2 18.1 48.5 C 18.09 48.51 18.1 50.6 18.1 50.6 L 17.6 50.6 C 17.6 50.6 17.56 48.47 17.6 48.5 C 17.6 48.1 17.5 47.9 17.3 47.7 C 17.1 47.5 16.9 47.4 16.6 47.4 C 16.3 47.4 16.1 47.5 15.9 47.7 C 15.7 47.9 15.6 48.2 15.6 48.5 C 15.62 48.53 15.6 50.6 15.6 50.6 L 15.1 50.6 Z " stroke="none" fill="#000"/>  </g>  <g id="Polygon43854">    <path d="M 0.7 41.6 L 0.7 36.7 C 0.7 36.7 2.53 36.7 2.5 36.7 C 3.1 36.7 3.5 36.8 3.9 37.1 C 4.2 37.4 4.4 37.8 4.4 38.3 C 4.4 38.3 4.4 38.3 4.4 38.3 C 4.4 38.8 4.2 39.2 3.8 39.5 C 3.4 39.7 3 39.9 2.4 39.9 C 2.44 39.87 1.2 39.9 1.2 39.9 L 1.2 41.6 L 0.7 41.6 Z M 1.2 39.4 C 1.2 39.4 2.46 39.37 2.5 39.4 C 2.9 39.4 3.2 39.3 3.4 39.1 C 3.7 38.9 3.8 38.6 3.8 38.3 C 3.8 38.3 3.8 38.3 3.8 38.3 C 3.8 37.9 3.7 37.7 3.4 37.5 C 3.2 37.3 2.9 37.2 2.5 37.2 C 2.49 37.21 1.2 37.2 1.2 37.2 L 1.2 39.4 Z M 5.4 41.6 L 5.4 36.7 C 5.4 36.7 7.2 36.7 7.2 36.7 C 7.8 36.7 8.2 36.8 8.5 37.1 C 8.9 37.4 9 37.8 9 38.3 C 9 38.3 9 38.3 9 38.3 C 9 38.8 8.9 39.2 8.5 39.5 C 8.1 39.7 7.7 39.9 7.1 39.9 C 7.11 39.87 5.9 39.9 5.9 39.9 L 5.9 41.6 L 5.4 41.6 Z M 5.9 39.4 C 5.9 39.4 7.13 39.37 7.1 39.4 C 7.5 39.4 7.9 39.3 8.1 39.1 C 8.4 38.9 8.5 38.6 8.5 38.3 C 8.5 38.3 8.5 38.3 8.5 38.3 C 8.5 37.9 8.4 37.7 8.1 37.5 C 7.9 37.3 7.6 37.2 7.2 37.2 C 7.16 37.21 5.9 37.2 5.9 37.2 L 5.9 39.4 Z " stroke="none" fill="#000"/>  </g>  <g id="Polygon43853">    <path d="M 0.7 23.6 L 0.7 18.7 C 0.7 18.7 2.8 18.7 2.8 18.7 C 3.4 18.7 3.9 18.9 4.2 19.2 C 4.4 19.4 4.6 19.8 4.6 20.2 C 4.6 20.2 4.6 20.2 4.6 20.2 C 4.6 20.6 4.4 20.9 4.2 21.1 C 4 21.4 3.6 21.5 3.2 21.6 C 3.24 21.6 4.7 23.6 4.7 23.6 L 4.1 23.6 L 2.6 21.7 L 1.2 21.7 L 1.2 23.6 L 0.7 23.6 Z M 1.2 21.2 C 1.2 21.2 2.75 21.2 2.8 21.2 C 3.1 21.2 3.4 21.1 3.7 20.9 C 3.9 20.7 4 20.5 4 20.2 C 4 20.2 4 20.2 4 20.2 C 4 19.9 3.9 19.6 3.7 19.5 C 3.5 19.3 3.2 19.2 2.8 19.2 C 2.76 19.21 1.2 19.2 1.2 19.2 L 1.2 21.2 Z M 8.7 23 C 8.3 23.5 7.8 23.7 7.2 23.7 C 6.7 23.7 6.3 23.5 6 23.2 C 5.6 22.8 5.4 22.4 5.4 21.8 C 5.4 21.8 5.4 21.8 5.4 21.8 C 5.4 21.3 5.6 20.8 5.9 20.4 C 6.3 20.1 6.7 19.9 7.2 19.9 C 7.7 19.9 8.1 20.1 8.4 20.4 C 8.7 20.8 8.9 21.3 8.9 21.8 C 8.9 21.9 8.9 21.9 8.9 22 C 8.9 22 6 22 6 22 C 6 22.4 6.2 22.7 6.4 22.9 C 6.6 23.1 6.9 23.2 7.3 23.2 C 7.7 23.2 8.1 23 8.4 22.7 C 8.4 22.7 8.7 23 8.7 23 C 8.7 23 8.74 23 8.7 23 Z M 6 21.6 C 6 21.6 8.3 21.6 8.3 21.6 C 8.3 21.2 8.2 20.9 8 20.7 C 7.8 20.5 7.5 20.4 7.2 20.4 C 6.8 20.4 6.6 20.5 6.4 20.7 C 6.1 20.9 6 21.2 6 21.6 Z M 9.8 23.6 L 9.8 20 L 10.3 20 C 10.3 20 10.35 20.61 10.3 20.6 C 10.6 20.1 11.1 19.9 11.6 19.9 C 12 19.9 12.4 20 12.6 20.3 C 12.8 20.6 13 20.9 13 21.4 C 12.97 21.35 13 23.6 13 23.6 L 12.4 23.6 C 12.4 23.6 12.43 21.49 12.4 21.5 C 12.4 21.1 12.3 20.9 12.2 20.7 C 12 20.5 11.7 20.4 11.4 20.4 C 11.1 20.4 10.9 20.5 10.7 20.7 C 10.4 20.9 10.3 21.2 10.3 21.5 C 10.35 21.53 10.3 23.6 10.3 23.6 L 9.8 23.6 Z M 14.1 23.6 L 14.1 18.5 L 14.7 18.5 L 14.7 22 L 16.6 20 L 17.3 20 L 15.8 21.5 L 17.3 23.6 L 16.7 23.6 L 15.4 21.9 L 14.7 22.7 L 14.7 23.6 L 14.1 23.6 Z M 18.1 20.7 L 18.1 20 L 18.7 20 L 18.7 20.7 L 18.1 20.7 Z M 18.1 23.6 L 18.1 22.9 L 18.7 22.9 L 18.7 23.6 L 18.1 23.6 Z M 23.8 23.7 C 23 23.7 22.3 23.4 21.7 22.9 C 21.7 22.9 22.1 22.5 22.1 22.5 C 22.4 22.7 22.6 22.9 22.9 23 C 23.1 23.1 23.4 23.2 23.8 23.2 C 24.1 23.2 24.4 23.1 24.6 22.9 C 24.8 22.8 24.9 22.6 24.9 22.3 C 24.9 22.3 24.9 22.3 24.9 22.3 C 24.9 22.1 24.8 21.9 24.6 21.8 C 24.4 21.6 24.1 21.5 23.6 21.4 C 23 21.3 22.6 21.1 22.3 20.9 C 22.1 20.7 21.9 20.4 21.9 20 C 21.9 20 21.9 20 21.9 20 C 21.9 19.6 22.1 19.3 22.4 19 C 22.7 18.8 23.1 18.6 23.6 18.6 C 23.9 18.6 24.2 18.7 24.5 18.8 C 24.8 18.9 25 19 25.3 19.2 C 25.3 19.2 25 19.7 25 19.7 C 24.5 19.3 24 19.1 23.5 19.1 C 23.2 19.1 23 19.2 22.8 19.4 C 22.6 19.5 22.5 19.7 22.5 19.9 C 22.5 19.9 22.5 19.9 22.5 19.9 C 22.5 20.2 22.6 20.4 22.8 20.5 C 23 20.7 23.3 20.8 23.8 20.9 C 24.4 21 24.8 21.2 25 21.4 C 25.3 21.6 25.4 21.9 25.4 22.3 C 25.4 22.3 25.4 22.3 25.4 22.3 C 25.4 22.7 25.3 23 25 23.3 C 24.6 23.5 24.2 23.7 23.8 23.7 Z M 26.5 19.2 L 26.5 18.6 L 27.1 18.6 L 27.1 19.2 L 26.5 19.2 Z M 26.5 23.6 L 26.5 20 L 27 20 L 27 23.6 L 26.5 23.6 Z M 29.8 23 L 31 20 L 31.6 20 C 31.6 20 30.06 23.72 30.1 23.7 C 29.9 24.1 29.7 24.4 29.6 24.5 C 29.4 24.7 29.1 24.7 28.9 24.7 C 28.6 24.7 28.3 24.7 28.1 24.6 C 28.1 24.6 28.3 24.1 28.3 24.1 C 28.4 24.2 28.6 24.3 28.8 24.3 C 29 24.3 29.1 24.2 29.3 24.1 C 29.4 24 29.5 23.8 29.6 23.6 C 29.58 23.59 27.9 20 27.9 20 L 28.5 20 L 29.8 23 Z M 34.8 23.1 C 34.5 23.5 34.1 23.7 33.5 23.7 C 33.2 23.7 32.8 23.6 32.6 23.4 C 32.3 23.2 32.2 22.9 32.2 22.5 C 32.2 22.5 32.2 22.5 32.2 22.5 C 32.2 22.2 32.3 21.9 32.6 21.7 C 32.9 21.5 33.2 21.4 33.7 21.4 C 34.1 21.4 34.5 21.4 34.8 21.5 C 34.8 21.5 34.8 21.4 34.8 21.4 C 34.8 21.1 34.7 20.8 34.5 20.7 C 34.4 20.5 34.1 20.4 33.7 20.4 C 33.4 20.4 33 20.5 32.6 20.7 C 32.6 20.7 32.5 20.2 32.5 20.2 C 32.9 20 33.3 19.9 33.8 19.9 C 34.3 19.9 34.7 20.1 35 20.3 C 35.2 20.6 35.3 20.9 35.3 21.4 C 35.34 21.39 35.3 23.6 35.3 23.6 L 34.8 23.6 L 34.8 23.1 C 34.8 23.1 34.82 23.05 34.8 23.1 Z M 33.6 23.2 C 34 23.2 34.2 23.2 34.5 23 C 34.7 22.8 34.8 22.6 34.8 22.3 C 34.8 22.3 34.8 21.9 34.8 21.9 C 34.5 21.8 34.1 21.8 33.8 21.8 C 33.4 21.8 33.2 21.8 33 22 C 32.8 22.1 32.7 22.3 32.7 22.5 C 32.7 22.5 32.7 22.5 32.7 22.5 C 32.7 22.7 32.8 22.9 33 23.1 C 33.2 23.2 33.4 23.2 33.6 23.2 Z M 36.5 23.6 L 36.5 18.5 L 37 18.5 C 37 18.5 37.03 20.61 37 20.6 C 37.3 20.1 37.7 19.9 38.3 19.9 C 38.7 19.9 39 20 39.3 20.3 C 39.5 20.6 39.7 20.9 39.7 21.4 C 39.65 21.35 39.7 23.6 39.7 23.6 L 39.1 23.6 C 39.1 23.6 39.12 21.49 39.1 21.5 C 39.1 21.1 39 20.9 38.9 20.7 C 38.7 20.5 38.4 20.4 38.1 20.4 C 37.8 20.4 37.5 20.5 37.3 20.7 C 37.1 20.9 37 21.2 37 21.5 C 37.03 21.53 37 23.6 37 23.6 L 36.5 23.6 Z " stroke="none" fill="#000"/>  </g>  <g id="Polygon43852">    <path d="M 3 9.3 L 3 8.6 L 3.6 8.6 L 3.6 9.3 L 3 9.3 Z M 1.7 9.3 L 1.7 8.6 L 2.3 8.6 L 2.3 9.3 L 1.7 9.3 Z M 2.7 14.7 C 2 14.7 1.5 14.5 1.2 14.1 C 0.8 13.7 0.6 13.2 0.6 12.5 C 0.62 12.55 0.6 9.7 0.6 9.7 L 1.2 9.7 C 1.2 9.7 1.17 12.51 1.2 12.5 C 1.2 13 1.3 13.4 1.6 13.7 C 1.8 14 2.2 14.2 2.7 14.2 C 3.1 14.2 3.5 14 3.8 13.8 C 4 13.5 4.1 13.1 4.1 12.5 C 4.14 12.55 4.1 9.7 4.1 9.7 L 4.7 9.7 C 4.7 9.7 4.7 12.51 4.7 12.5 C 4.7 13.2 4.5 13.7 4.1 14.1 C 3.8 14.5 3.3 14.7 2.7 14.7 Z M 5.9 14.6 L 5.9 11 L 6.5 11 C 6.5 11 6.45 11.93 6.5 11.9 C 6.6 11.6 6.8 11.4 7 11.2 C 7.3 11 7.6 10.9 7.9 10.9 C 7.93 10.92 7.9 11.5 7.9 11.5 C 7.9 11.5 7.89 11.5 7.9 11.5 C 7.5 11.5 7.1 11.6 6.9 11.9 C 6.6 12.2 6.5 12.6 6.5 13.2 C 6.45 13.16 6.5 14.6 6.5 14.6 L 5.9 14.6 Z M 10.6 10.4 L 10.6 9.8 L 11.2 9.8 L 11.2 10.4 L 10.6 10.4 Z M 9.3 10.4 L 9.3 9.8 L 10 9.8 L 10 10.4 L 9.3 10.4 Z M 11.3 14 C 11 14.4 10.6 14.7 10.1 14.7 C 9.7 14.7 9.3 14.5 9.1 14.3 C 8.8 14 8.7 13.7 8.7 13.2 C 8.69 13.23 8.7 11 8.7 11 L 9.2 11 C 9.2 11 9.23 13.09 9.2 13.1 C 9.2 13.4 9.3 13.7 9.5 13.9 C 9.7 14.1 9.9 14.2 10.2 14.2 C 10.5 14.2 10.8 14.1 11 13.9 C 11.2 13.7 11.3 13.4 11.3 13.1 C 11.32 13.05 11.3 11 11.3 11 L 11.9 11 L 11.9 14.6 L 11.3 14.6 L 11.3 14 C 11.3 14 11.32 13.97 11.3 14 Z M 13.1 14.6 L 13.1 11 L 13.6 11 C 13.6 11 13.6 11.61 13.6 11.6 C 13.9 11.1 14.3 10.9 14.8 10.9 C 15.3 10.9 15.6 11 15.9 11.3 C 16.1 11.6 16.2 11.9 16.2 12.4 C 16.23 12.35 16.2 14.6 16.2 14.6 L 15.7 14.6 C 15.7 14.6 15.69 12.49 15.7 12.5 C 15.7 12.1 15.6 11.9 15.4 11.7 C 15.2 11.5 15 11.4 14.7 11.4 C 14.4 11.4 14.1 11.5 13.9 11.7 C 13.7 11.9 13.6 12.2 13.6 12.5 C 13.6 12.53 13.6 14.6 13.6 14.6 L 13.1 14.6 Z M 19.6 14.6 L 19.6 9.7 L 20.1 9.7 L 20.1 12.6 L 22.9 9.7 L 23.7 9.7 L 21.5 11.8 L 23.7 14.6 L 23 14.6 L 21.2 12.2 L 20.1 13.3 L 20.1 14.6 L 19.6 14.6 Z M 26.2 14.7 C 25.6 14.7 25.2 14.5 24.8 14.1 C 24.5 13.8 24.3 13.3 24.3 12.8 C 24.3 12.8 24.3 12.8 24.3 12.8 C 24.3 12.3 24.5 11.8 24.8 11.5 C 25.2 11.1 25.6 10.9 26.2 10.9 C 26.7 10.9 27.2 11.1 27.5 11.5 C 27.9 11.8 28.1 12.3 28.1 12.8 C 28.1 12.8 28.1 12.8 28.1 12.8 C 28.1 13.3 27.9 13.8 27.5 14.1 C 27.2 14.5 26.7 14.7 26.2 14.7 Z M 26.2 14.2 C 26.6 14.2 26.9 14.1 27.1 13.8 C 27.4 13.5 27.5 13.2 27.5 12.8 C 27.5 12.8 27.5 12.8 27.5 12.8 C 27.5 12.4 27.4 12.1 27.1 11.8 C 26.9 11.5 26.5 11.4 26.2 11.4 C 25.8 11.4 25.5 11.5 25.2 11.8 C 25 12.1 24.8 12.4 24.8 12.8 C 24.8 12.8 24.8 12.8 24.8 12.8 C 24.8 13.2 25 13.5 25.2 13.8 C 25.5 14.1 25.8 14.2 26.2 14.2 Z M 31.9 13.9 C 31.6 14.4 31.1 14.7 30.5 14.7 C 30.1 14.7 29.7 14.5 29.3 14.2 C 29 13.8 28.8 13.4 28.8 12.8 C 28.8 12.8 28.8 12.8 28.8 12.8 C 28.8 12.2 29 11.8 29.3 11.4 C 29.7 11.1 30.1 10.9 30.5 10.9 C 31.1 10.9 31.6 11.2 31.9 11.7 C 31.93 11.67 31.9 9.5 31.9 9.5 L 32.5 9.5 L 32.5 14.6 L 31.9 14.6 L 31.9 13.9 C 31.9 13.9 31.93 13.87 31.9 13.9 Z M 30.6 14.2 C 31 14.2 31.3 14.1 31.6 13.8 C 31.8 13.5 32 13.2 32 12.8 C 32 12.8 32 12.8 32 12.8 C 32 12.4 31.8 12 31.6 11.8 C 31.3 11.5 31 11.4 30.6 11.4 C 30.3 11.4 30 11.5 29.7 11.8 C 29.5 12 29.4 12.4 29.4 12.8 C 29.4 12.8 29.4 12.8 29.4 12.8 C 29.4 13.2 29.5 13.6 29.7 13.8 C 30 14.1 30.3 14.2 30.6 14.2 Z M 36.2 14 C 36 14.4 35.5 14.7 35 14.7 C 34.6 14.7 34.2 14.5 34 14.3 C 33.7 14 33.6 13.7 33.6 13.2 C 33.62 13.23 33.6 11 33.6 11 L 34.2 11 C 34.2 11 34.16 13.09 34.2 13.1 C 34.2 13.4 34.2 13.7 34.4 13.9 C 34.6 14.1 34.8 14.2 35.2 14.2 C 35.5 14.2 35.7 14.1 35.9 13.9 C 36.1 13.7 36.2 13.4 36.2 13.1 C 36.25 13.05 36.2 11 36.2 11 L 36.8 11 L 36.8 14.6 L 36.2 14.6 L 36.2 14 C 36.2 14 36.25 13.97 36.2 14 Z M 38 11.7 L 38 11 L 38.6 11 L 38.6 11.7 L 38 11.7 Z M 38 14.6 L 38 13.9 L 38.6 13.9 L 38.6 14.6 L 38 14.6 Z M 41.7 14.6 L 41.7 13.8 L 44.4 10.6 L 41.8 10.6 L 41.8 9.7 L 45.8 9.7 L 45.8 10.5 L 43.1 13.7 L 45.8 13.7 L 45.8 14.6 L 41.7 14.6 Z M 46.8 14.6 L 46.8 9.7 C 46.8 9.7 48.72 9.7 48.7 9.7 C 49.5 9.7 50.1 9.9 50.6 10.4 C 51.1 10.9 51.3 11.4 51.3 12.1 C 51.3 12.1 51.3 12.1 51.3 12.1 C 51.3 12.8 51.1 13.4 50.6 13.9 C 50.1 14.4 49.5 14.6 48.7 14.6 C 48.72 14.6 46.8 14.6 46.8 14.6 Z M 48.7 10.7 C 48.72 10.67 47.9 10.7 47.9 10.7 L 47.9 13.6 C 47.9 13.6 48.72 13.63 48.7 13.6 C 49.2 13.6 49.5 13.5 49.8 13.2 C 50.1 13 50.2 12.6 50.2 12.2 C 50.2 12.2 50.2 12.1 50.2 12.1 C 50.2 11.7 50.1 11.4 49.8 11.1 C 49.5 10.8 49.2 10.7 48.7 10.7 Z M 56 14.7 C 55.2 14.7 54.5 14.4 54.1 13.8 C 54.1 13.8 54.8 13.1 54.8 13.1 C 55.1 13.5 55.5 13.7 56 13.7 C 56.2 13.7 56.4 13.7 56.5 13.6 C 56.6 13.4 56.7 13.3 56.7 13.1 C 56.7 13.1 56.7 13.1 56.7 13.1 C 56.7 12.9 56.6 12.8 56.4 12.6 C 56.3 12.5 56 12.5 55.7 12.5 C 55.72 12.49 55.3 12.5 55.3 12.5 L 55.1 11.8 L 56.3 10.6 L 54.3 10.6 L 54.3 9.7 L 57.7 9.7 L 57.7 10.5 C 57.7 10.5 56.42 11.69 56.4 11.7 C 57.3 11.8 57.7 12.3 57.7 13.1 C 57.7 13.1 57.7 13.1 57.7 13.1 C 57.7 13.6 57.6 13.9 57.3 14.2 C 56.9 14.5 56.5 14.7 56 14.7 Z M 60.3 14.7 C 59.5 14.7 58.9 14.4 58.4 13.8 C 58.4 13.8 59.1 13.1 59.1 13.1 C 59.5 13.5 59.9 13.7 60.3 13.7 C 60.5 13.7 60.7 13.7 60.8 13.6 C 61 13.4 61 13.3 61 13.1 C 61 13.1 61 13.1 61 13.1 C 61 12.9 60.9 12.8 60.8 12.6 C 60.6 12.5 60.4 12.5 60.1 12.5 C 60.07 12.49 59.6 12.5 59.6 12.5 L 59.5 11.8 L 60.6 10.6 L 58.7 10.6 L 58.7 9.7 L 62 9.7 L 62 10.5 C 62 10.5 60.77 11.69 60.8 11.7 C 61.6 11.8 62.1 12.3 62.1 13.1 C 62.1 13.1 62.1 13.1 62.1 13.1 C 62.1 13.6 61.9 13.9 61.6 14.2 C 61.3 14.5 60.9 14.7 60.3 14.7 Z M 65 14.7 C 64.4 14.7 63.9 14.4 63.5 14 C 63.1 13.5 62.9 12.9 62.9 12.2 C 62.9 12.2 62.9 12.1 62.9 12.1 C 62.9 11.4 63.1 10.8 63.5 10.3 C 63.9 9.9 64.4 9.6 65.1 9.6 C 65.7 9.6 66.2 9.9 66.6 10.3 C 67 10.8 67.2 11.4 67.2 12.1 C 67.2 12.1 67.2 12.1 67.2 12.1 C 67.2 12.9 67 13.5 66.6 14 C 66.2 14.4 65.7 14.7 65 14.7 Z M 64 12.1 C 64 12.6 64.1 13 64.3 13.3 C 64.5 13.6 64.7 13.7 65.1 13.7 C 65.4 13.7 65.6 13.6 65.8 13.3 C 66 13 66.1 12.6 66.1 12.2 C 66.1 12.2 66.1 12.1 66.1 12.1 C 66.1 11.7 66 11.3 65.8 11 C 65.6 10.7 65.4 10.6 65 10.6 C 64.7 10.6 64.5 10.7 64.3 11 C 64.1 11.3 64 11.7 64 12.1 C 63.97 12.14 64 12.1 64 12.1 C 64 12.1 63.97 12.15 64 12.1 Z M 67.9 14.6 L 67.9 13.7 C 67.9 13.7 69.57 12.41 69.6 12.4 C 69.9 12.1 70.1 11.9 70.2 11.8 C 70.4 11.6 70.4 11.4 70.4 11.2 C 70.4 11 70.4 10.9 70.2 10.8 C 70.1 10.7 70 10.6 69.8 10.6 C 69.6 10.6 69.4 10.6 69.3 10.7 C 69.1 10.8 69 11 68.8 11.3 C 68.8 11.3 68 10.6 68 10.6 C 68.3 10.3 68.5 10 68.8 9.9 C 69.1 9.7 69.4 9.6 69.8 9.6 C 70.3 9.6 70.7 9.8 71.1 10 C 71.4 10.3 71.5 10.7 71.5 11.1 C 71.5 11.1 71.5 11.2 71.5 11.2 C 71.5 11.5 71.4 11.9 71.2 12.1 C 71.1 12.4 70.7 12.7 70.2 13.1 C 70.23 13.05 69.4 13.7 69.4 13.7 L 71.6 13.7 L 71.6 14.6 L 67.9 14.6 Z M 74.1 14.7 C 73.4 14.7 72.8 14.4 72.3 13.9 C 72.3 13.9 72.9 13.2 72.9 13.2 C 73.3 13.5 73.7 13.7 74.1 13.7 C 74.3 13.7 74.5 13.6 74.7 13.5 C 74.8 13.4 74.9 13.2 74.9 13 C 74.9 13 74.9 13 74.9 13 C 74.9 12.8 74.8 12.6 74.7 12.5 C 74.5 12.4 74.3 12.3 74 12.3 C 73.8 12.3 73.5 12.4 73.2 12.5 C 73.21 12.53 72.6 12.1 72.6 12.1 L 72.7 9.7 L 75.7 9.7 L 75.7 10.6 L 73.7 10.6 C 73.7 10.6 73.6 11.49 73.6 11.5 C 73.8 11.4 74 11.4 74.2 11.4 C 74.7 11.4 75.2 11.5 75.5 11.8 C 75.8 12.1 76 12.5 76 13 C 76 13 76 13 76 13 C 76 13.5 75.8 13.9 75.4 14.2 C 75.1 14.5 74.7 14.7 74.1 14.7 Z M 77 14.6 L 79.1 10.6 L 76.8 10.6 L 76.8 9.7 L 80.4 9.7 L 80.4 10.5 L 78.2 14.6 L 77 14.6 Z " stroke="none" fill="#000"/>  </g>  <g id="Polygon43851">    <path d="M 2.3 5.7 C 1.5 5.7 0.8 5.4 0.3 4.9 C 0.3 4.9 0.9 4.1 0.9 4.1 C 1.4 4.5 1.9 4.7 2.4 4.7 C 2.6 4.7 2.7 4.7 2.9 4.6 C 3 4.5 3.1 4.4 3.1 4.3 C 3.1 4.3 3.1 4.2 3.1 4.2 C 3.1 4.1 3 4 2.9 3.9 C 2.7 3.8 2.5 3.7 2.1 3.6 C 1.8 3.5 1.6 3.5 1.4 3.4 C 1.2 3.3 1.1 3.3 0.9 3.1 C 0.7 3 0.6 2.9 0.6 2.7 C 0.5 2.6 0.4 2.4 0.4 2.1 C 0.4 2.1 0.4 2.1 0.4 2.1 C 0.4 1.7 0.6 1.3 0.9 1 C 1.2 0.8 1.7 0.6 2.2 0.6 C 2.9 0.6 3.5 0.8 4 1.3 C 4 1.3 3.4 2.1 3.4 2.1 C 3 1.7 2.5 1.6 2.1 1.6 C 1.9 1.6 1.8 1.6 1.7 1.7 C 1.6 1.8 1.5 1.9 1.5 2 C 1.5 2 1.5 2 1.5 2 C 1.5 2.2 1.6 2.3 1.7 2.4 C 1.9 2.5 2.1 2.6 2.6 2.7 C 3.1 2.8 3.5 3 3.8 3.2 C 4 3.4 4.1 3.7 4.1 4.1 C 4.1 4.1 4.1 4.2 4.1 4.2 C 4.1 4.6 4 5 3.6 5.3 C 3.3 5.5 2.9 5.7 2.3 5.7 Z M 7.1 5.4 C 6.8 5.6 6.5 5.7 6.2 5.7 C 5.9 5.7 5.6 5.6 5.4 5.4 C 5.2 5.2 5.1 4.9 5.1 4.5 C 5.13 4.54 5.1 2.8 5.1 2.8 L 4.7 2.8 L 4.7 1.8 L 5.1 1.8 L 5.1 0.9 L 6.2 0.9 L 6.2 1.8 L 7.1 1.8 L 7.1 2.8 L 6.2 2.8 C 6.2 2.8 6.19 4.36 6.2 4.4 C 6.2 4.6 6.3 4.7 6.5 4.7 C 6.7 4.7 6.9 4.7 7.1 4.6 C 7.06 4.59 7.1 5.4 7.1 5.4 C 7.1 5.4 7.06 5.45 7.1 5.4 Z M 10.1 5.2 C 9.8 5.5 9.4 5.7 8.9 5.7 C 8.6 5.7 8.2 5.6 8 5.4 C 7.8 5.2 7.6 4.9 7.6 4.5 C 7.6 4.5 7.6 4.5 7.6 4.5 C 7.6 4.1 7.8 3.8 8 3.6 C 8.3 3.4 8.7 3.3 9.1 3.3 C 9.5 3.3 9.8 3.4 10.1 3.5 C 10.1 3.5 10.1 3.4 10.1 3.4 C 10.1 2.9 9.8 2.7 9.3 2.7 C 8.9 2.7 8.6 2.8 8.2 2.9 C 8.2 2.9 8 2.1 8 2.1 C 8.4 1.9 8.9 1.8 9.4 1.8 C 10 1.8 10.4 1.9 10.7 2.2 C 11 2.5 11.1 2.9 11.1 3.4 C 11.09 3.42 11.1 5.6 11.1 5.6 L 10.1 5.6 L 10.1 5.2 C 10.1 5.2 10.06 5.19 10.1 5.2 Z M 9.2 4.9 C 9.5 4.9 9.7 4.9 9.9 4.8 C 10 4.6 10.1 4.5 10.1 4.3 C 10.1 4.3 10.1 4.1 10.1 4.1 C 9.9 4 9.6 3.9 9.4 3.9 C 9.2 3.9 9 4 8.9 4.1 C 8.7 4.2 8.7 4.3 8.7 4.5 C 8.7 4.5 8.7 4.5 8.7 4.5 C 8.7 4.6 8.7 4.7 8.8 4.8 C 8.9 4.9 9.1 4.9 9.2 4.9 Z M 12 5.6 L 12 1.8 L 13.1 1.8 C 13.1 1.8 13.07 2.38 13.1 2.4 C 13.4 2 13.7 1.8 14.2 1.8 C 14.6 1.8 14.9 1.9 15.1 2.1 C 15.3 2.4 15.4 2.7 15.4 3.2 C 15.44 3.17 15.4 5.6 15.4 5.6 L 14.4 5.6 C 14.4 5.6 14.38 3.51 14.4 3.5 C 14.4 3 14.2 2.7 13.7 2.7 C 13.5 2.7 13.4 2.8 13.2 2.9 C 13.1 3.1 13.1 3.3 13.1 3.5 C 13.07 3.51 13.1 5.6 13.1 5.6 L 12 5.6 Z M 19.1 5.1 C 18.8 5.5 18.4 5.7 17.9 5.7 C 17.4 5.7 17 5.5 16.7 5.1 C 16.4 4.8 16.2 4.3 16.2 3.7 C 16.2 3.7 16.2 3.7 16.2 3.7 C 16.2 3.1 16.4 2.6 16.7 2.3 C 17 2 17.4 1.8 17.9 1.8 C 18.4 1.8 18.8 2 19.1 2.3 C 19.07 2.34 19.1 0.5 19.1 0.5 L 20.1 0.5 L 20.1 5.6 L 19.1 5.6 L 19.1 5.1 C 19.1 5.1 19.07 5.06 19.1 5.1 Z M 17.3 3.7 C 17.3 4 17.4 4.3 17.5 4.5 C 17.7 4.7 17.9 4.8 18.2 4.8 C 18.4 4.8 18.7 4.7 18.8 4.5 C 19 4.3 19.1 4 19.1 3.7 C 19.1 3.7 19.1 3.7 19.1 3.7 C 19.1 3.4 19 3.2 18.8 3 C 18.7 2.8 18.4 2.7 18.2 2.7 C 17.9 2.7 17.7 2.8 17.5 3 C 17.4 3.2 17.3 3.4 17.3 3.7 C 17.26 3.72 17.3 3.7 17.3 3.7 C 17.3 3.7 17.26 3.73 17.3 3.7 Z M 23.3 5.6 L 23.3 0.7 C 23.3 0.7 25.58 0.7 25.6 0.7 C 26.1 0.7 26.6 0.8 26.9 1.1 C 27.1 1.4 27.2 1.6 27.2 2 C 27.2 2 27.2 2 27.2 2 C 27.2 2.5 27 2.8 26.6 3 C 26.9 3.2 27.1 3.3 27.2 3.5 C 27.4 3.7 27.5 3.9 27.5 4.2 C 27.5 4.2 27.5 4.3 27.5 4.3 C 27.5 4.7 27.3 5 27 5.3 C 26.7 5.5 26.2 5.6 25.6 5.6 C 25.63 5.6 23.3 5.6 23.3 5.6 Z M 25.3 2.7 C 25.9 2.7 26.1 2.5 26.1 2.2 C 26.1 2.2 26.1 2.1 26.1 2.1 C 26.1 1.8 25.9 1.6 25.4 1.6 C 25.42 1.64 24.4 1.6 24.4 1.6 L 24.4 2.7 L 25.3 2.7 C 25.3 2.7 25.35 2.68 25.3 2.7 Z M 25.6 4.7 C 26.1 4.7 26.4 4.5 26.4 4.1 C 26.4 4.1 26.4 4.1 26.4 4.1 C 26.4 3.8 26.1 3.6 25.6 3.6 C 25.6 3.58 24.4 3.6 24.4 3.6 L 24.4 4.7 L 25.6 4.7 C 25.6 4.7 25.63 4.65 25.6 4.7 Z M 30.6 5.1 C 30.3 5.5 29.9 5.7 29.5 5.7 C 29.1 5.7 28.8 5.5 28.5 5.3 C 28.3 5.1 28.2 4.7 28.2 4.3 C 28.22 4.28 28.2 1.8 28.2 1.8 L 29.3 1.8 C 29.3 1.8 29.28 3.94 29.3 3.9 C 29.3 4.4 29.5 4.7 29.9 4.7 C 30.1 4.7 30.3 4.6 30.4 4.5 C 30.5 4.4 30.6 4.2 30.6 3.9 C 30.59 3.94 30.6 1.8 30.6 1.8 L 31.7 1.8 L 31.7 5.6 L 30.6 5.6 L 30.6 5.1 C 30.6 5.1 30.59 5.07 30.6 5.1 Z M 32.7 5.6 L 32.7 0.5 L 33.7 0.5 L 33.7 5.6 L 32.7 5.6 Z M 36.9 5.2 C 36.6 5.5 36.3 5.7 35.8 5.7 C 35.4 5.7 35.1 5.6 34.9 5.4 C 34.6 5.2 34.5 4.9 34.5 4.5 C 34.5 4.5 34.5 4.5 34.5 4.5 C 34.5 4.1 34.6 3.8 34.9 3.6 C 35.2 3.4 35.5 3.3 36 3.3 C 36.3 3.3 36.6 3.4 36.9 3.5 C 36.9 3.5 36.9 3.4 36.9 3.4 C 36.9 2.9 36.7 2.7 36.1 2.7 C 35.8 2.7 35.4 2.8 35.1 2.9 C 35.1 2.9 34.8 2.1 34.8 2.1 C 35.3 1.9 35.8 1.8 36.3 1.8 C 36.8 1.8 37.3 1.9 37.5 2.2 C 37.8 2.5 37.9 2.9 37.9 3.4 C 37.95 3.42 37.9 5.6 37.9 5.6 L 36.9 5.6 L 36.9 5.2 C 36.9 5.2 36.92 5.19 36.9 5.2 Z M 36.1 4.9 C 36.4 4.9 36.6 4.9 36.7 4.8 C 36.9 4.6 36.9 4.5 36.9 4.3 C 36.9 4.3 36.9 4.1 36.9 4.1 C 36.7 4 36.5 3.9 36.3 3.9 C 36 3.9 35.9 4 35.7 4.1 C 35.6 4.2 35.5 4.3 35.5 4.5 C 35.5 4.5 35.5 4.5 35.5 4.5 C 35.5 4.6 35.6 4.7 35.7 4.8 C 35.8 4.9 35.9 4.9 36.1 4.9 Z M 40 6.8 L 39.2 6.4 C 39.2 6.4 39.71 5.62 39.7 5.6 C 39.3 5.5 38.9 5.4 38.6 5.1 C 38.6 5.1 39 4.4 39 4.4 C 39.4 4.7 39.8 4.9 40.2 4.9 C 40.5 4.9 40.7 4.8 40.7 4.6 C 40.7 4.6 40.7 4.6 40.7 4.6 C 40.7 4.5 40.6 4.5 40.6 4.5 C 40.6 4.4 40.6 4.4 40.6 4.4 C 40.5 4.4 40.5 4.4 40.5 4.3 C 40.5 4.3 40.4 4.3 40.4 4.3 C 40.3 4.3 40.3 4.2 40.2 4.2 C 40.2 4.2 40.1 4.2 40 4.2 C 40 4.2 39.9 4.1 39.9 4.1 C 39.7 4.1 39.6 4 39.5 4 C 39.4 3.9 39.2 3.9 39.1 3.8 C 39 3.7 38.9 3.6 38.9 3.5 C 38.8 3.3 38.8 3.2 38.8 3 C 38.8 3 38.8 3 38.8 3 C 38.8 2.6 38.9 2.3 39.2 2.1 C 39.4 1.9 39.7 1.8 40.1 1.8 C 40.6 1.8 41.1 1.9 41.5 2.2 C 41.5 2.2 41.1 3 41.1 3 C 40.7 2.7 40.4 2.6 40.1 2.6 C 40 2.6 39.9 2.6 39.8 2.7 C 39.8 2.7 39.7 2.8 39.7 2.9 C 39.7 2.9 39.7 2.9 39.7 2.9 C 39.7 3 39.8 3 39.9 3.1 C 40 3.2 40.2 3.3 40.5 3.3 C 40.6 3.4 40.8 3.4 40.9 3.5 C 41 3.5 41.1 3.6 41.2 3.7 C 41.4 3.8 41.5 3.9 41.5 4 C 41.6 4.1 41.6 4.3 41.6 4.4 C 41.6 4.4 41.6 4.5 41.6 4.5 C 41.6 4.8 41.5 5.1 41.3 5.3 C 41.1 5.5 40.8 5.6 40.5 5.6 C 40.51 5.65 40 6.8 40 6.8 Z M 42.4 5.6 L 42.4 1.8 L 43.5 1.8 L 43.5 5.6 L 42.4 5.6 Z M 44.5 5.6 L 44.5 0.5 L 45.6 0.5 L 45.6 3.2 L 46.8 1.8 L 48.1 1.8 L 46.6 3.3 L 48.1 5.6 L 46.9 5.6 L 45.9 4.1 L 45.6 4.5 L 45.6 5.6 L 44.5 5.6 Z M 50.8 5.6 L 50.8 0.7 L 52 0.7 L 53.3 2.8 L 54.6 0.7 L 55.7 0.7 L 55.7 5.6 L 54.7 5.6 L 54.7 2.4 L 53.3 4.5 L 53.3 4.5 L 51.9 2.4 L 51.9 5.6 L 50.8 5.6 Z M 59 5.2 C 58.7 5.5 58.3 5.7 57.9 5.7 C 57.5 5.7 57.2 5.6 57 5.4 C 56.7 5.2 56.6 4.9 56.6 4.5 C 56.6 4.5 56.6 4.5 56.6 4.5 C 56.6 4.1 56.7 3.8 57 3.6 C 57.3 3.4 57.6 3.3 58.1 3.3 C 58.4 3.3 58.7 3.4 59 3.5 C 59 3.5 59 3.4 59 3.4 C 59 2.9 58.7 2.7 58.2 2.7 C 57.9 2.7 57.5 2.8 57.2 2.9 C 57.2 2.9 56.9 2.1 56.9 2.1 C 57.4 1.9 57.9 1.8 58.4 1.8 C 58.9 1.8 59.4 1.9 59.6 2.2 C 59.9 2.5 60 2.9 60 3.4 C 60.04 3.42 60 5.6 60 5.6 L 59 5.6 L 59 5.2 C 59 5.2 59.01 5.19 59 5.2 Z M 58.2 4.9 C 58.4 4.9 58.7 4.9 58.8 4.8 C 59 4.6 59 4.5 59 4.3 C 59 4.3 59 4.1 59 4.1 C 58.8 4 58.6 3.9 58.4 3.9 C 58.1 3.9 57.9 4 57.8 4.1 C 57.7 4.2 57.6 4.3 57.6 4.5 C 57.6 4.5 57.6 4.5 57.6 4.5 C 57.6 4.6 57.7 4.7 57.8 4.8 C 57.9 4.9 58 4.9 58.2 4.9 Z M 61 5.6 L 61 0.5 L 62 0.5 L 62 3.2 L 63.3 1.8 L 64.5 1.8 L 63.1 3.3 L 64.6 5.6 L 63.4 5.6 L 62.4 4.1 L 62 4.5 L 62 5.6 L 61 5.6 Z M 65.1 1.4 L 65.1 0.5 L 66.2 0.5 L 66.2 1.4 L 65.1 1.4 Z M 65.1 5.6 L 65.1 1.8 L 66.2 1.8 L 66.2 5.6 L 65.1 5.6 Z M 67.2 5.6 L 67.2 1.8 L 68.3 1.8 C 68.3 1.8 68.28 2.38 68.3 2.4 C 68.6 2 69 1.8 69.4 1.8 C 69.8 1.8 70.1 1.9 70.3 2.1 C 70.5 2.4 70.6 2.7 70.6 3.2 C 70.65 3.17 70.6 5.6 70.6 5.6 L 69.6 5.6 C 69.6 5.6 69.59 3.51 69.6 3.5 C 69.6 3 69.4 2.7 68.9 2.7 C 68.7 2.7 68.6 2.8 68.5 2.9 C 68.3 3.1 68.3 3.3 68.3 3.5 C 68.28 3.51 68.3 5.6 68.3 5.6 L 67.2 5.6 Z M 74.9 5 C 74.5 5.5 74 5.7 73.4 5.7 C 72.8 5.7 72.3 5.5 71.9 5.1 C 71.6 4.8 71.4 4.3 71.4 3.7 C 71.4 3.7 71.4 3.7 71.4 3.7 C 71.4 3.2 71.6 2.7 71.9 2.3 C 72.3 2 72.7 1.8 73.2 1.8 C 73.8 1.8 74.3 2 74.6 2.4 C 74.9 2.8 75.1 3.2 75.1 3.8 C 75.1 3.9 75.1 4 75.1 4.1 C 75.1 4.1 72.4 4.1 72.4 4.1 C 72.5 4.3 72.6 4.5 72.8 4.6 C 72.9 4.8 73.1 4.8 73.4 4.8 C 73.7 4.8 74 4.7 74.3 4.4 C 74.28 4.44 74.9 5 74.9 5 C 74.9 5 74.88 4.98 74.9 5 Z M 72.4 3.4 C 72.4 3.4 74 3.4 74 3.4 C 74 3.2 73.9 3 73.8 2.8 C 73.6 2.7 73.5 2.6 73.2 2.6 C 73 2.6 72.8 2.7 72.7 2.8 C 72.6 3 72.5 3.2 72.4 3.4 Z M 77.2 5.7 C 76.6 5.7 76.1 5.5 75.6 5.1 C 75.6 5.1 76 4.4 76 4.4 C 76.4 4.7 76.8 4.9 77.2 4.9 C 77.5 4.9 77.7 4.8 77.7 4.6 C 77.7 4.6 77.7 4.6 77.7 4.6 C 77.7 4.5 77.7 4.5 77.6 4.5 C 77.6 4.4 77.6 4.4 77.6 4.4 C 77.5 4.4 77.5 4.4 77.5 4.3 C 77.5 4.3 77.4 4.3 77.4 4.3 C 77.3 4.3 77.3 4.2 77.2 4.2 C 77.2 4.2 77.1 4.2 77.1 4.2 C 77 4.2 76.9 4.1 76.9 4.1 C 76.7 4.1 76.6 4 76.5 4 C 76.4 3.9 76.2 3.9 76.1 3.8 C 76 3.7 75.9 3.6 75.9 3.5 C 75.8 3.3 75.8 3.2 75.8 3 C 75.8 3 75.8 3 75.8 3 C 75.8 2.6 75.9 2.3 76.2 2.1 C 76.4 1.9 76.7 1.8 77.1 1.8 C 77.6 1.8 78.1 1.9 78.5 2.2 C 78.5 2.2 78.1 3 78.1 3 C 77.7 2.7 77.4 2.6 77.1 2.6 C 77 2.6 76.9 2.6 76.8 2.7 C 76.8 2.7 76.7 2.8 76.7 2.9 C 76.7 2.9 76.7 2.9 76.7 2.9 C 76.7 3 76.8 3 76.9 3.1 C 77 3.2 77.2 3.3 77.5 3.3 C 77.6 3.4 77.8 3.4 77.9 3.5 C 78 3.5 78.1 3.6 78.2 3.7 C 78.4 3.8 78.5 3.9 78.5 4 C 78.6 4.1 78.6 4.3 78.6 4.4 C 78.6 4.4 78.6 4.5 78.6 4.5 C 78.6 4.9 78.5 5.2 78.2 5.4 C 78 5.6 77.6 5.7 77.2 5.7 Z M 79.4 1.4 L 79.4 0.5 L 80.5 0.5 L 80.5 1.4 L 79.4 1.4 Z M 79.4 5.6 L 79.4 1.8 L 80.5 1.8 L 80.5 5.6 L 79.4 5.6 Z M 83.7 5.6 L 83.7 0.7 L 87.4 0.7 L 87.4 1.7 L 84.8 1.7 L 84.8 2.7 L 87.1 2.7 L 87.1 3.7 L 84.8 3.7 L 84.8 5.6 L 83.7 5.6 Z M 88.2 5.6 L 88.2 1.8 L 89.3 1.8 L 89.3 5.6 L 88.2 5.6 Z M 90.3 5.6 L 90.3 1.8 L 91.4 1.8 C 91.4 1.8 91.36 2.6 91.4 2.6 C 91.6 2 92 1.8 92.6 1.8 C 92.56 1.78 92.6 2.9 92.6 2.9 C 92.6 2.9 92.5 2.89 92.5 2.9 C 92.1 2.9 91.9 3 91.7 3.2 C 91.5 3.4 91.4 3.8 91.4 4.2 C 91.36 4.21 91.4 5.6 91.4 5.6 L 90.3 5.6 Z M 94.7 6.8 L 93.8 6.4 C 93.8 6.4 94.4 5.6 94.4 5.6 C 94 5.5 93.7 5.2 93.4 4.9 C 93.2 4.6 93 4.2 93 3.7 C 93 3.7 93 3.7 93 3.7 C 93 3.2 93.2 2.7 93.6 2.3 C 94 2 94.4 1.8 95 1.8 C 95.6 1.8 96.1 2 96.5 2.4 C 96.5 2.4 95.9 3.1 95.9 3.1 C 95.7 3 95.6 2.9 95.5 2.8 C 95.3 2.7 95.2 2.7 95 2.7 C 94.7 2.7 94.5 2.8 94.4 3 C 94.2 3.2 94.1 3.4 94.1 3.7 C 94.1 3.7 94.1 3.7 94.1 3.7 C 94.1 4 94.2 4.3 94.4 4.5 C 94.5 4.7 94.8 4.8 95 4.8 C 95.3 4.8 95.6 4.6 95.9 4.4 C 95.9 4.4 96.5 5 96.5 5 C 96.3 5.2 96.2 5.4 95.9 5.5 C 95.7 5.6 95.5 5.7 95.2 5.7 C 95.17 5.68 94.7 6.8 94.7 6.8 Z M 99.4 5.2 C 99.1 5.5 98.8 5.7 98.3 5.7 C 97.9 5.7 97.6 5.6 97.4 5.4 C 97.1 5.2 97 4.9 97 4.5 C 97 4.5 97 4.5 97 4.5 C 97 4.1 97.1 3.8 97.4 3.6 C 97.7 3.4 98 3.3 98.5 3.3 C 98.8 3.3 99.1 3.4 99.4 3.5 C 99.4 3.5 99.4 3.4 99.4 3.4 C 99.4 2.9 99.2 2.7 98.6 2.7 C 98.3 2.7 97.9 2.8 97.6 2.9 C 97.6 2.9 97.3 2.1 97.3 2.1 C 97.8 1.9 98.3 1.8 98.8 1.8 C 99.3 1.8 99.8 1.9 100 2.2 C 100.3 2.5 100.4 2.9 100.4 3.4 C 100.45 3.42 100.4 5.6 100.4 5.6 L 99.4 5.6 L 99.4 5.2 C 99.4 5.2 99.42 5.19 99.4 5.2 Z M 98.6 4.9 C 98.9 4.9 99.1 4.9 99.2 4.8 C 99.4 4.6 99.4 4.5 99.4 4.3 C 99.4 4.3 99.4 4.1 99.4 4.1 C 99.2 4 99 3.9 98.8 3.9 C 98.5 3.9 98.4 4 98.2 4.1 C 98.1 4.2 98 4.3 98 4.5 C 98 4.5 98 4.5 98 4.5 C 98 4.6 98.1 4.7 98.2 4.8 C 98.3 4.9 98.4 4.9 98.6 4.9 Z M 102.7 5.7 C 102.1 5.7 101.6 5.5 101.1 5.1 C 101.1 5.1 101.5 4.4 101.5 4.4 C 101.9 4.7 102.3 4.9 102.7 4.9 C 103 4.9 103.2 4.8 103.2 4.6 C 103.2 4.6 103.2 4.6 103.2 4.6 C 103.2 4.5 103.2 4.5 103.1 4.5 C 103.1 4.4 103.1 4.4 103.1 4.4 C 103 4.4 103 4.4 103 4.3 C 103 4.3 102.9 4.3 102.9 4.3 C 102.8 4.3 102.8 4.2 102.7 4.2 C 102.7 4.2 102.6 4.2 102.6 4.2 C 102.5 4.2 102.4 4.1 102.4 4.1 C 102.2 4.1 102.1 4 102 4 C 101.9 3.9 101.7 3.9 101.6 3.8 C 101.5 3.7 101.4 3.6 101.4 3.5 C 101.3 3.3 101.3 3.2 101.3 3 C 101.3 3 101.3 3 101.3 3 C 101.3 2.6 101.4 2.3 101.7 2.1 C 101.9 1.9 102.2 1.8 102.6 1.8 C 103.1 1.8 103.6 1.9 104 2.2 C 104 2.2 103.6 3 103.6 3 C 103.2 2.7 102.9 2.6 102.6 2.6 C 102.5 2.6 102.4 2.6 102.3 2.7 C 102.3 2.7 102.2 2.8 102.2 2.9 C 102.2 2.9 102.2 2.9 102.2 2.9 C 102.2 3 102.3 3 102.4 3.1 C 102.5 3.2 102.7 3.3 103 3.3 C 103.1 3.4 103.3 3.4 103.4 3.5 C 103.5 3.5 103.6 3.6 103.7 3.7 C 103.9 3.8 104 3.9 104 4 C 104.1 4.1 104.1 4.3 104.1 4.4 C 104.1 4.4 104.1 4.5 104.1 4.5 C 104.1 4.9 104 5.2 103.7 5.4 C 103.5 5.6 103.1 5.7 102.7 5.7 Z M 104.9 5.6 L 104.9 1.8 L 106 1.8 L 106 5.6 L 104.9 5.6 Z " stroke="none" fill="#000"/>  </g></svg>