<?xml version="1.0" standalone="no"?><!DOCTYPE svg PUBLIC "-//W3C//DTD SVG 1.1//EN" "http://www.w3.org/Graphics/SVG/1.1/DTD/svg11.dtd"><svg xmlns="http://www.w3.org/2000/svg" version="1.1" width="93px" height="93.4px" viewBox="0 -3 93 93.4" style="top:-3px">  <desc>Bula k F r as – DIISH r n Kodu: ZD 26667 Renk: Black PP L 23,5 cm, W 5 cm, H 5 cm Tasar m: Mavro/Lef vre</desc>  <defs/>  <g id="Polygon52901">    <path d="M 2 59.6 L 2 55.2 L 0.3 55.2 L 0.3 54.7 L 4.2 54.7 L 4.2 55.2 L 2.5 55.2 L 2.5 59.6 L 2 59.6 Z M 7.5 59.1 C 7.2 59.5 6.7 59.7 6.2 59.7 C 5.8 59.7 5.5 59.6 5.2 59.4 C 5 59.2 4.8 58.9 4.8 58.5 C 4.8 58.5 4.8 58.5 4.8 58.5 C 4.8 58.2 5 57.9 5.2 57.7 C 5.5 57.5 5.9 57.4 6.4 57.4 C 6.7 57.4 7.1 57.4 7.5 57.5 C 7.5 57.5 7.5 57.4 7.5 57.4 C 7.5 57.1 7.4 56.8 7.2 56.7 C 7 56.5 6.7 56.4 6.4 56.4 C 6 56.4 5.7 56.5 5.3 56.7 C 5.3 56.7 5.1 56.2 5.1 56.2 C 5.6 56 6 55.9 6.5 55.9 C 7 55.9 7.4 56.1 7.6 56.3 C 7.9 56.6 8 56.9 8 57.4 C 7.99 57.39 8 59.6 8 59.6 L 7.5 59.6 L 7.5 59.1 C 7.5 59.1 7.48 59.05 7.5 59.1 Z M 6.3 59.2 C 6.6 59.2 6.9 59.2 7.1 59 C 7.4 58.8 7.5 58.6 7.5 58.3 C 7.5 58.3 7.5 57.9 7.5 57.9 C 7.1 57.8 6.8 57.8 6.4 57.8 C 6.1 57.8 5.8 57.8 5.6 58 C 5.5 58.1 5.4 58.3 5.4 58.5 C 5.4 58.5 5.4 58.5 5.4 58.5 C 5.4 58.7 5.5 58.9 5.6 59.1 C 5.8 59.2 6 59.2 6.3 59.2 Z M 10.3 59.7 C 9.8 59.7 9.3 59.5 8.8 59.1 C 8.8 59.1 9.1 58.8 9.1 58.8 C 9.5 59.1 9.9 59.2 10.4 59.2 C 10.6 59.2 10.8 59.2 10.9 59.1 C 11 59 11.1 58.8 11.1 58.6 C 11.1 58.6 11.1 58.6 11.1 58.6 C 11.1 58.5 11 58.3 10.9 58.2 C 10.7 58.2 10.5 58.1 10.2 58 C 10.1 58 10 57.9 9.9 57.9 C 9.9 57.9 9.8 57.8 9.7 57.8 C 9.5 57.8 9.5 57.7 9.4 57.7 C 9.3 57.6 9.3 57.6 9.2 57.5 C 9.1 57.4 9.1 57.4 9.1 57.3 C 9 57.2 9 57.1 9 57 C 9 57 9 57 9 57 C 9 56.6 9.1 56.4 9.4 56.2 C 9.6 56 9.9 55.9 10.2 55.9 C 10.7 55.9 11.1 56.1 11.5 56.3 C 11.5 56.3 11.3 56.7 11.3 56.7 C 10.9 56.5 10.6 56.4 10.2 56.4 C 10 56.4 9.9 56.4 9.7 56.5 C 9.6 56.6 9.5 56.7 9.5 56.9 C 9.5 56.9 9.5 56.9 9.5 56.9 C 9.5 57 9.6 57 9.6 57.1 C 9.6 57.1 9.7 57.2 9.7 57.2 C 9.8 57.3 9.8 57.3 9.9 57.4 C 10 57.4 10.1 57.4 10.2 57.4 C 10.2 57.5 10.3 57.5 10.5 57.5 C 10.6 57.6 10.7 57.6 10.8 57.6 C 10.9 57.7 11 57.7 11.1 57.8 C 11.2 57.8 11.3 57.9 11.4 58 C 11.5 58 11.5 58.1 11.6 58.2 C 11.6 58.3 11.6 58.4 11.6 58.6 C 11.6 58.6 11.6 58.6 11.6 58.6 C 11.6 58.9 11.5 59.2 11.3 59.4 C 11 59.6 10.7 59.7 10.3 59.7 Z M 15 59.1 C 14.7 59.5 14.3 59.7 13.7 59.7 C 13.3 59.7 13 59.6 12.8 59.4 C 12.5 59.2 12.4 58.9 12.4 58.5 C 12.4 58.5 12.4 58.5 12.4 58.5 C 12.4 58.2 12.5 57.9 12.8 57.7 C 13.1 57.5 13.4 57.4 13.9 57.4 C 14.3 57.4 14.6 57.4 15 57.5 C 15 57.5 15 57.4 15 57.4 C 15 57.1 14.9 56.8 14.7 56.7 C 14.5 56.5 14.3 56.4 13.9 56.4 C 13.6 56.4 13.2 56.5 12.8 56.7 C 12.8 56.7 12.7 56.2 12.7 56.2 C 13.1 56 13.5 55.9 14 55.9 C 14.5 55.9 14.9 56.1 15.2 56.3 C 15.4 56.6 15.5 56.9 15.5 57.4 C 15.53 57.39 15.5 59.6 15.5 59.6 L 15 59.6 L 15 59.1 C 15 59.1 15.01 59.05 15 59.1 Z M 13.8 59.2 C 14.2 59.2 14.4 59.2 14.7 59 C 14.9 58.8 15 58.6 15 58.3 C 15 58.3 15 57.9 15 57.9 C 14.7 57.8 14.3 57.8 14 57.8 C 13.6 57.8 13.4 57.8 13.2 58 C 13 58.1 12.9 58.3 12.9 58.5 C 12.9 58.5 12.9 58.5 12.9 58.5 C 12.9 58.7 13 58.9 13.2 59.1 C 13.3 59.2 13.6 59.2 13.8 59.2 Z M 16.7 59.6 L 16.7 56 L 17.2 56 C 17.2 56 17.22 56.93 17.2 56.9 C 17.4 56.6 17.6 56.4 17.8 56.2 C 18.1 56 18.4 55.9 18.7 55.9 C 18.7 55.92 18.7 56.5 18.7 56.5 C 18.7 56.5 18.65 56.5 18.7 56.5 C 18.2 56.5 17.9 56.6 17.6 56.9 C 17.4 57.2 17.2 57.6 17.2 58.2 C 17.22 58.16 17.2 59.6 17.2 59.6 L 16.7 59.6 Z M 19.6 59.6 L 19.6 56 L 20.1 56 L 20.1 59.6 L 19.6 59.6 Z M 21.4 59.6 L 21.4 56 L 21.9 56 C 21.9 56 21.9 56.59 21.9 56.6 C 22 56.4 22.2 56.2 22.4 56.1 C 22.6 56 22.8 55.9 23.1 55.9 C 23.6 55.9 24 56.1 24.2 56.6 C 24.5 56.1 25 55.9 25.5 55.9 C 25.9 55.9 26.2 56 26.5 56.3 C 26.7 56.6 26.8 56.9 26.8 57.4 C 26.84 57.36 26.8 59.6 26.8 59.6 L 26.3 59.6 C 26.3 59.6 26.31 57.49 26.3 57.5 C 26.3 57.1 26.2 56.9 26.1 56.7 C 25.9 56.5 25.7 56.4 25.4 56.4 C 25.1 56.4 24.9 56.5 24.7 56.7 C 24.5 56.9 24.4 57.2 24.4 57.5 C 24.37 57.51 24.4 59.6 24.4 59.6 L 23.8 59.6 C 23.8 59.6 23.83 57.47 23.8 57.5 C 23.8 57.1 23.8 56.9 23.6 56.7 C 23.4 56.5 23.2 56.4 22.9 56.4 C 22.6 56.4 22.4 56.5 22.2 56.7 C 22 56.9 21.9 57.2 21.9 57.5 C 21.9 57.53 21.9 59.6 21.9 59.6 L 21.4 59.6 Z M 28 56.7 L 28 56 L 28.6 56 L 28.6 56.7 L 28 56.7 Z M 28 59.6 L 28 58.9 L 28.6 58.9 L 28.6 59.6 L 28 59.6 Z M 32 59.6 L 32 54.7 L 32.5 54.7 L 34.3 57.4 L 36.1 54.7 L 36.7 54.7 L 36.7 59.6 L 36.1 59.6 L 36.1 55.6 L 34.3 58.3 L 34.3 58.3 L 32.5 55.6 L 32.5 59.6 L 32 59.6 Z M 40.3 59.1 C 40 59.5 39.6 59.7 39 59.7 C 38.7 59.7 38.3 59.6 38.1 59.4 C 37.8 59.2 37.7 58.9 37.7 58.5 C 37.7 58.5 37.7 58.5 37.7 58.5 C 37.7 58.2 37.8 57.9 38.1 57.7 C 38.4 57.5 38.8 57.4 39.2 57.4 C 39.6 57.4 40 57.4 40.3 57.5 C 40.3 57.5 40.3 57.4 40.3 57.4 C 40.3 57.1 40.2 56.8 40.1 56.7 C 39.9 56.5 39.6 56.4 39.3 56.4 C 38.9 56.4 38.5 56.5 38.2 56.7 C 38.2 56.7 38 56.2 38 56.2 C 38.4 56 38.9 55.9 39.3 55.9 C 39.8 55.9 40.2 56.1 40.5 56.3 C 40.7 56.6 40.9 56.9 40.9 57.4 C 40.85 57.39 40.9 59.6 40.9 59.6 L 40.3 59.6 L 40.3 59.1 C 40.3 59.1 40.33 59.05 40.3 59.1 Z M 39.1 59.2 C 39.5 59.2 39.8 59.2 40 59 C 40.2 58.8 40.3 58.6 40.3 58.3 C 40.3 58.3 40.3 57.9 40.3 57.9 C 40 57.8 39.6 57.8 39.3 57.8 C 38.9 57.8 38.7 57.8 38.5 58 C 38.3 58.1 38.2 58.3 38.2 58.5 C 38.2 58.5 38.2 58.5 38.2 58.5 C 38.2 58.7 38.3 58.9 38.5 59.1 C 38.7 59.2 38.9 59.2 39.1 59.2 Z M 43.2 59.6 L 41.6 56 L 42.2 56 L 43.5 59 L 44.7 56 L 45.3 56 L 43.7 59.6 L 43.2 59.6 Z M 46.1 59.6 L 46.1 56 L 46.6 56 C 46.6 56 46.65 56.93 46.6 56.9 C 46.8 56.6 47 56.4 47.2 56.2 C 47.5 56 47.8 55.9 48.1 55.9 C 48.12 55.92 48.1 56.5 48.1 56.5 C 48.1 56.5 48.08 56.5 48.1 56.5 C 47.7 56.5 47.3 56.6 47.1 56.9 C 46.8 57.2 46.6 57.6 46.6 58.2 C 46.65 58.16 46.6 59.6 46.6 59.6 L 46.1 59.6 Z M 50.6 59.7 C 50.1 59.7 49.6 59.5 49.3 59.1 C 48.9 58.8 48.7 58.3 48.7 57.8 C 48.7 57.8 48.7 57.8 48.7 57.8 C 48.7 57.3 48.9 56.8 49.3 56.5 C 49.6 56.1 50.1 55.9 50.6 55.9 C 51.1 55.9 51.6 56.1 52 56.5 C 52.3 56.8 52.5 57.3 52.5 57.8 C 52.5 57.8 52.5 57.8 52.5 57.8 C 52.5 58.3 52.3 58.8 51.9 59.1 C 51.6 59.5 51.1 59.7 50.6 59.7 Z M 50.6 59.2 C 51 59.2 51.3 59.1 51.6 58.8 C 51.8 58.5 51.9 58.2 51.9 57.8 C 51.9 57.8 51.9 57.8 51.9 57.8 C 51.9 57.4 51.8 57.1 51.6 56.8 C 51.3 56.5 51 56.4 50.6 56.4 C 50.2 56.4 49.9 56.5 49.6 56.8 C 49.4 57.1 49.3 57.4 49.3 57.8 C 49.3 57.8 49.3 57.8 49.3 57.8 C 49.3 58.2 49.4 58.5 49.7 58.8 C 49.9 59.1 50.2 59.2 50.6 59.2 Z M 52.7 60.5 L 56 54 L 56.5 54 L 53.2 60.5 L 52.7 60.5 Z M 57.1 59.6 L 57.1 54.7 L 57.7 54.7 L 57.7 59.1 L 60.4 59.1 L 60.4 59.6 L 57.1 59.6 Z M 64.4 59 C 64 59.5 63.5 59.7 62.9 59.7 C 62.4 59.7 62 59.5 61.6 59.2 C 61.3 58.8 61.1 58.4 61.1 57.8 C 61.1 57.8 61.1 57.8 61.1 57.8 C 61.1 57.3 61.3 56.8 61.6 56.4 C 61.9 56.1 62.3 55.9 62.8 55.9 C 63.4 55.9 63.8 56.1 64.1 56.4 C 64.4 56.8 64.5 57.3 64.5 57.8 C 64.5 57.9 64.5 57.9 64.5 58 C 64.5 58 61.6 58 61.6 58 C 61.7 58.4 61.8 58.7 62.1 58.9 C 62.3 59.1 62.6 59.2 62.9 59.2 C 63.4 59.2 63.7 59 64.1 58.7 C 64.06 58.7 64.4 59 64.4 59 C 64.4 59 64.4 59 64.4 59 Z M 61.6 57.6 C 61.6 57.6 64 57.6 64 57.6 C 64 57.2 63.8 56.9 63.6 56.7 C 63.4 56.5 63.2 56.4 62.8 56.4 C 62.5 56.4 62.2 56.5 62 56.7 C 61.8 56.9 61.7 57.2 61.6 57.6 Z M 65.7 59.6 L 65.7 56.5 L 65.2 56.5 L 65.2 56 L 65.7 56 C 65.7 56 65.67 55.67 65.7 55.7 C 65.7 55.3 65.8 55 66 54.7 C 66.2 54.6 66.4 54.5 66.8 54.5 C 67 54.5 67.2 54.5 67.4 54.6 C 67.4 54.6 67.4 55 67.4 55 C 67.1 55 67 54.9 66.8 54.9 C 66.4 54.9 66.2 55.2 66.2 55.7 C 66.21 55.7 66.2 56 66.2 56 L 67.4 56 L 67.4 56.5 L 66.2 56.5 L 66.2 59.6 L 65.7 59.6 Z M 71.1 59 C 70.7 59.5 70.2 59.7 69.6 59.7 C 69.1 59.7 68.7 59.5 68.3 59.2 C 68 58.8 67.8 58.4 67.8 57.8 C 67.8 57.8 67.8 57.8 67.8 57.8 C 67.8 57.3 68 56.8 68.3 56.4 C 68.6 56.1 69.1 55.9 69.6 55.9 C 70.1 55.9 70.5 56.1 70.8 56.4 C 71.1 56.8 71.2 57.3 71.2 57.8 C 71.2 57.9 71.2 57.9 71.2 58 C 71.2 58 68.4 58 68.4 58 C 68.4 58.4 68.5 58.7 68.8 58.9 C 69 59.1 69.3 59.2 69.6 59.2 C 70.1 59.2 70.4 59 70.8 58.7 C 70.78 58.7 71.1 59 71.1 59 C 71.1 59 71.11 59 71.1 59 Z M 68.4 57.6 C 68.4 57.6 70.7 57.6 70.7 57.6 C 70.7 57.2 70.6 56.9 70.4 56.7 C 70.2 56.5 69.9 56.4 69.5 56.4 C 69.2 56.4 69 56.5 68.7 56.7 C 68.5 56.9 68.4 57.2 68.4 57.6 Z M 69.3 55.4 L 68.5 54.7 L 69.1 54.4 L 69.8 55.4 L 69.3 55.4 Z M 73.4 59.6 L 71.8 56 L 72.4 56 L 73.6 59 L 74.9 56 L 75.4 56 L 73.9 59.6 L 73.4 59.6 Z M 76.3 59.6 L 76.3 56 L 76.8 56 C 76.8 56 76.83 56.93 76.8 56.9 C 77 56.6 77.2 56.4 77.4 56.2 C 77.7 56 78 55.9 78.3 55.9 C 78.31 55.92 78.3 56.5 78.3 56.5 C 78.3 56.5 78.27 56.5 78.3 56.5 C 77.9 56.5 77.5 56.6 77.2 56.9 C 77 57.2 76.8 57.6 76.8 58.2 C 76.83 58.16 76.8 59.6 76.8 59.6 L 76.3 59.6 Z M 82.2 59 C 81.8 59.5 81.3 59.7 80.7 59.7 C 80.2 59.7 79.8 59.5 79.4 59.2 C 79.1 58.8 78.9 58.4 78.9 57.8 C 78.9 57.8 78.9 57.8 78.9 57.8 C 78.9 57.3 79.1 56.8 79.4 56.4 C 79.7 56.1 80.1 55.9 80.6 55.9 C 81.2 55.9 81.6 56.1 81.9 56.4 C 82.2 56.8 82.3 57.3 82.3 57.8 C 82.3 57.9 82.3 57.9 82.3 58 C 82.3 58 79.4 58 79.4 58 C 79.5 58.4 79.6 58.7 79.9 58.9 C 80.1 59.1 80.4 59.2 80.7 59.2 C 81.2 59.2 81.5 59 81.9 58.7 C 81.86 58.7 82.2 59 82.2 59 C 82.2 59 82.2 59 82.2 59 Z M 79.4 57.6 C 79.4 57.6 81.8 57.6 81.8 57.6 C 81.8 57.2 81.6 56.9 81.4 56.7 C 81.2 56.5 81 56.4 80.6 56.4 C 80.3 56.4 80 56.5 79.8 56.7 C 79.6 56.9 79.5 57.2 79.4 57.6 Z " stroke="none" fill="#000"/>  </g>  <g id="Polygon52900">    <path d="M 0.7 50.6 L 0.7 45.7 L 1.2 45.7 L 1.2 50.1 L 4 50.1 L 4 50.6 L 0.7 50.6 Z M 6.7 50.6 L 6.7 50.2 C 6.7 50.2 8.52 48.6 8.5 48.6 C 8.9 48.3 9.2 48 9.3 47.8 C 9.5 47.5 9.5 47.3 9.5 47.1 C 9.5 46.8 9.4 46.6 9.3 46.4 C 9.1 46.2 8.8 46.1 8.6 46.1 C 8.3 46.1 8 46.2 7.8 46.3 C 7.6 46.5 7.4 46.7 7.2 47 C 7.2 47 6.8 46.7 6.8 46.7 C 7.1 46.3 7.3 46 7.6 45.9 C 7.9 45.7 8.2 45.6 8.6 45.6 C 9 45.6 9.4 45.8 9.7 46 C 10 46.3 10.1 46.6 10.1 47 C 10.1 47 10.1 47 10.1 47 C 10.1 47.4 10 47.7 9.8 47.9 C 9.7 48.2 9.3 48.5 8.9 48.9 C 8.88 48.93 7.6 50.1 7.6 50.1 L 10.2 50.1 L 10.2 50.6 L 6.7 50.6 Z M 12.8 50.7 C 12 50.7 11.4 50.4 10.9 49.8 C 10.9 49.8 11.3 49.5 11.3 49.5 C 11.7 49.9 12.2 50.2 12.8 50.2 C 13.1 50.2 13.3 50.1 13.5 49.9 C 13.8 49.7 13.9 49.5 13.9 49.2 C 13.9 49.2 13.9 49.2 13.9 49.2 C 13.9 48.9 13.7 48.7 13.5 48.5 C 13.2 48.4 12.9 48.3 12.5 48.3 C 12.48 48.27 12.2 48.3 12.2 48.3 L 12.1 47.9 L 13.6 46.2 L 11.2 46.2 L 11.2 45.7 L 14.3 45.7 L 14.3 46.1 C 14.3 46.1 12.8 47.81 12.8 47.8 C 13.3 47.9 13.7 48 14 48.2 C 14.3 48.4 14.4 48.8 14.4 49.2 C 14.4 49.2 14.4 49.2 14.4 49.2 C 14.4 49.6 14.3 50 13.9 50.3 C 13.6 50.5 13.2 50.7 12.8 50.7 Z M 15.3 51.5 C 15.3 51.5 15.2 51.2 15.2 51.2 C 15.6 51.1 15.7 50.9 15.7 50.6 C 15.68 50.6 15.4 50.6 15.4 50.6 L 15.4 49.9 L 16.1 49.9 C 16.1 49.9 16.07 50.49 16.1 50.5 C 16.1 50.8 16 51 15.9 51.1 C 15.8 51.3 15.6 51.4 15.3 51.5 Z M 18.7 50.7 C 18.1 50.7 17.5 50.4 17 49.9 C 17 49.9 17.3 49.5 17.3 49.5 C 17.8 50 18.3 50.2 18.7 50.2 C 19.1 50.2 19.4 50.1 19.6 49.9 C 19.8 49.7 19.9 49.4 19.9 49.1 C 19.9 49.1 19.9 49.1 19.9 49.1 C 19.9 48.8 19.8 48.5 19.6 48.3 C 19.3 48.1 19.1 48.1 18.7 48.1 C 18.3 48.1 18 48.1 17.7 48.3 C 17.67 48.33 17.3 48.1 17.3 48.1 L 17.4 45.7 L 20.3 45.7 L 20.3 46.2 L 17.9 46.2 C 17.9 46.2 17.81 47.78 17.8 47.8 C 18.1 47.6 18.4 47.6 18.8 47.6 C 19.3 47.6 19.7 47.7 20 48 C 20.3 48.2 20.5 48.6 20.5 49.1 C 20.5 49.1 20.5 49.1 20.5 49.1 C 20.5 49.5 20.3 49.9 20 50.2 C 19.7 50.5 19.2 50.7 18.7 50.7 Z M 26.7 50 C 26.3 50.5 25.8 50.7 25.2 50.7 C 24.7 50.7 24.3 50.5 23.9 50.1 C 23.5 49.8 23.4 49.3 23.4 48.8 C 23.4 48.8 23.4 48.8 23.4 48.8 C 23.4 48.3 23.5 47.8 23.9 47.5 C 24.3 47.1 24.7 46.9 25.2 46.9 C 25.8 46.9 26.3 47.1 26.7 47.5 C 26.7 47.5 26.3 47.9 26.3 47.9 C 26 47.6 25.6 47.4 25.2 47.4 C 24.8 47.4 24.5 47.5 24.3 47.8 C 24 48.1 23.9 48.4 23.9 48.8 C 23.9 48.8 23.9 48.8 23.9 48.8 C 23.9 49.2 24 49.5 24.3 49.8 C 24.6 50.1 24.9 50.2 25.2 50.2 C 25.6 50.2 26 50 26.4 49.7 C 26.35 49.66 26.7 50 26.7 50 C 26.7 50 26.7 49.98 26.7 50 Z M 27.6 50.6 L 27.6 47 L 28.1 47 C 28.1 47 28.13 47.59 28.1 47.6 C 28.3 47.4 28.4 47.2 28.6 47.1 C 28.8 47 29 46.9 29.3 46.9 C 29.8 46.9 30.2 47.1 30.5 47.6 C 30.8 47.1 31.2 46.9 31.7 46.9 C 32.2 46.9 32.5 47 32.7 47.3 C 33 47.6 33.1 47.9 33.1 48.4 C 33.07 48.36 33.1 50.6 33.1 50.6 L 32.5 50.6 C 32.5 50.6 32.54 48.49 32.5 48.5 C 32.5 48.1 32.5 47.9 32.3 47.7 C 32.1 47.5 31.9 47.4 31.6 47.4 C 31.3 47.4 31.1 47.5 30.9 47.7 C 30.7 47.9 30.6 48.2 30.6 48.5 C 30.6 48.51 30.6 50.6 30.6 50.6 L 30.1 50.6 C 30.1 50.6 30.06 48.47 30.1 48.5 C 30.1 48.1 30 47.9 29.8 47.7 C 29.7 47.5 29.4 47.4 29.1 47.4 C 28.8 47.4 28.6 47.5 28.4 47.7 C 28.2 47.9 28.1 48.2 28.1 48.5 C 28.13 48.53 28.1 50.6 28.1 50.6 L 27.6 50.6 Z M 34 51.5 C 34 51.5 33.9 51.2 33.9 51.2 C 34.3 51.1 34.4 50.9 34.4 50.6 C 34.41 50.6 34.2 50.6 34.2 50.6 L 34.2 49.9 L 34.8 49.9 C 34.8 49.9 34.8 50.49 34.8 50.5 C 34.8 50.8 34.7 51 34.6 51.1 C 34.5 51.3 34.3 51.4 34 51.5 Z M 39.5 50.6 L 37.8 45.7 L 38.4 45.7 L 39.8 49.8 L 41.1 45.7 L 41.6 45.7 L 42.9 49.8 L 44.3 45.7 L 44.9 45.7 L 43.1 50.6 L 42.7 50.6 L 41.3 46.7 L 40 50.6 L 39.5 50.6 Z M 49.4 50.7 C 48.8 50.7 48.2 50.4 47.7 49.9 C 47.7 49.9 48 49.5 48 49.5 C 48.5 50 48.9 50.2 49.4 50.2 C 49.8 50.2 50 50.1 50.3 49.9 C 50.5 49.7 50.6 49.4 50.6 49.1 C 50.6 49.1 50.6 49.1 50.6 49.1 C 50.6 48.8 50.5 48.5 50.3 48.3 C 50 48.1 49.7 48.1 49.4 48.1 C 49 48.1 48.7 48.1 48.3 48.3 C 48.35 48.33 48 48.1 48 48.1 L 48.1 45.7 L 50.9 45.7 L 50.9 46.2 L 48.6 46.2 C 48.6 46.2 48.5 47.78 48.5 47.8 C 48.8 47.6 49.1 47.6 49.5 47.6 C 50 47.6 50.4 47.7 50.7 48 C 51 48.2 51.2 48.6 51.2 49.1 C 51.2 49.1 51.2 49.1 51.2 49.1 C 51.2 49.5 51 49.9 50.7 50.2 C 50.3 50.5 49.9 50.7 49.4 50.7 Z M 57.4 50 C 57 50.5 56.5 50.7 55.9 50.7 C 55.4 50.7 54.9 50.5 54.6 50.1 C 54.2 49.8 54 49.3 54 48.8 C 54 48.8 54 48.8 54 48.8 C 54 48.3 54.2 47.8 54.6 47.5 C 54.9 47.1 55.4 46.9 55.9 46.9 C 56.5 46.9 56.9 47.1 57.4 47.5 C 57.4 47.5 57 47.9 57 47.9 C 56.6 47.6 56.3 47.4 55.9 47.4 C 55.5 47.4 55.2 47.5 55 47.8 C 54.7 48.1 54.6 48.4 54.6 48.8 C 54.6 48.8 54.6 48.8 54.6 48.8 C 54.6 49.2 54.7 49.5 55 49.8 C 55.2 50.1 55.6 50.2 55.9 50.2 C 56.3 50.2 56.7 50 57 49.7 C 57.04 49.66 57.4 50 57.4 50 C 57.4 50 57.38 49.98 57.4 50 Z M 58.3 50.6 L 58.3 47 L 58.8 47 C 58.8 47 58.81 47.59 58.8 47.6 C 59 47.4 59.1 47.2 59.3 47.1 C 59.5 47 59.7 46.9 60 46.9 C 60.5 46.9 60.9 47.1 61.1 47.6 C 61.5 47.1 61.9 46.9 62.4 46.9 C 62.8 46.9 63.2 47 63.4 47.3 C 63.6 47.6 63.8 47.9 63.8 48.4 C 63.76 48.36 63.8 50.6 63.8 50.6 L 63.2 50.6 C 63.2 50.6 63.22 48.49 63.2 48.5 C 63.2 48.1 63.1 47.9 63 47.7 C 62.8 47.5 62.6 47.4 62.3 47.4 C 62 47.4 61.8 47.5 61.6 47.7 C 61.4 47.9 61.3 48.2 61.3 48.5 C 61.28 48.51 61.3 50.6 61.3 50.6 L 60.7 50.6 C 60.7 50.6 60.75 48.47 60.7 48.5 C 60.7 48.1 60.7 47.9 60.5 47.7 C 60.3 47.5 60.1 47.4 59.8 47.4 C 59.5 47.4 59.3 47.5 59.1 47.7 C 58.9 47.9 58.8 48.2 58.8 48.5 C 58.81 48.53 58.8 50.6 58.8 50.6 L 58.3 50.6 Z M 64.7 51.5 C 64.7 51.5 64.6 51.2 64.6 51.2 C 65 51.1 65.1 50.9 65.1 50.6 C 65.09 50.6 64.8 50.6 64.8 50.6 L 64.8 49.9 L 65.5 49.9 C 65.5 49.9 65.48 50.49 65.5 50.5 C 65.5 50.8 65.4 51 65.3 51.1 C 65.2 51.3 65 51.4 64.7 51.5 Z M 68.8 50.6 L 68.8 45.7 L 69.4 45.7 L 69.4 47.9 L 72.2 47.9 L 72.2 45.7 L 72.7 45.7 L 72.7 50.6 L 72.2 50.6 L 72.2 48.4 L 69.4 48.4 L 69.4 50.6 L 68.8 50.6 Z M 77.7 50.7 C 77 50.7 76.4 50.4 75.9 49.9 C 75.9 49.9 76.3 49.5 76.3 49.5 C 76.7 50 77.2 50.2 77.7 50.2 C 78 50.2 78.3 50.1 78.5 49.9 C 78.7 49.7 78.8 49.4 78.8 49.1 C 78.8 49.1 78.8 49.1 78.8 49.1 C 78.8 48.8 78.7 48.5 78.5 48.3 C 78.3 48.1 78 48.1 77.6 48.1 C 77.3 48.1 76.9 48.1 76.6 48.3 C 76.6 48.33 76.2 48.1 76.2 48.1 L 76.4 45.7 L 79.2 45.7 L 79.2 46.2 L 76.9 46.2 C 76.9 46.2 76.75 47.78 76.7 47.8 C 77.1 47.6 77.4 47.6 77.7 47.6 C 78.2 47.6 78.6 47.7 78.9 48 C 79.2 48.2 79.4 48.6 79.4 49.1 C 79.4 49.1 79.4 49.1 79.4 49.1 C 79.4 49.5 79.2 49.9 78.9 50.2 C 78.6 50.5 78.2 50.7 77.7 50.7 Z M 85.6 50 C 85.2 50.5 84.7 50.7 84.2 50.7 C 83.6 50.7 83.2 50.5 82.8 50.1 C 82.5 49.8 82.3 49.3 82.3 48.8 C 82.3 48.8 82.3 48.8 82.3 48.8 C 82.3 48.3 82.5 47.8 82.8 47.5 C 83.2 47.1 83.6 46.9 84.2 46.9 C 84.7 46.9 85.2 47.1 85.6 47.5 C 85.6 47.5 85.2 47.9 85.2 47.9 C 84.9 47.6 84.5 47.4 84.1 47.4 C 83.8 47.4 83.5 47.5 83.2 47.8 C 83 48.1 82.9 48.4 82.9 48.8 C 82.9 48.8 82.9 48.8 82.9 48.8 C 82.9 49.2 83 49.5 83.2 49.8 C 83.5 50.1 83.8 50.2 84.2 50.2 C 84.6 50.2 85 50 85.3 49.7 C 85.29 49.66 85.6 50 85.6 50 C 85.6 50 85.63 49.98 85.6 50 Z M 86.5 50.6 L 86.5 47 L 87.1 47 C 87.1 47 87.06 47.59 87.1 47.6 C 87.2 47.4 87.4 47.2 87.5 47.1 C 87.7 47 87.9 46.9 88.2 46.9 C 88.8 46.9 89.2 47.1 89.4 47.6 C 89.7 47.1 90.1 46.9 90.7 46.9 C 91.1 46.9 91.4 47 91.6 47.3 C 91.9 47.6 92 47.9 92 48.4 C 92.01 48.36 92 50.6 92 50.6 L 91.5 50.6 C 91.5 50.6 91.47 48.49 91.5 48.5 C 91.5 48.1 91.4 47.9 91.2 47.7 C 91.1 47.5 90.8 47.4 90.5 47.4 C 90.2 47.4 90 47.5 89.8 47.7 C 89.6 47.9 89.5 48.2 89.5 48.5 C 89.53 48.51 89.5 50.6 89.5 50.6 L 89 50.6 C 89 50.6 89 48.47 89 48.5 C 89 48.1 88.9 47.9 88.7 47.7 C 88.6 47.5 88.4 47.4 88.1 47.4 C 87.8 47.4 87.5 47.5 87.3 47.7 C 87.2 47.9 87.1 48.2 87.1 48.5 C 87.06 48.53 87.1 50.6 87.1 50.6 L 86.5 50.6 Z " stroke="none" fill="#000"/>  </g>  <g id="Polygon52899">    <path d="M 0.7 41.6 L 0.7 36.7 C 0.7 36.7 2.53 36.7 2.5 36.7 C 3.1 36.7 3.5 36.8 3.9 37.1 C 4.2 37.4 4.4 37.8 4.4 38.3 C 4.4 38.3 4.4 38.3 4.4 38.3 C 4.4 38.8 4.2 39.2 3.8 39.5 C 3.4 39.7 3 39.9 2.4 39.9 C 2.44 39.87 1.2 39.9 1.2 39.9 L 1.2 41.6 L 0.7 41.6 Z M 1.2 39.4 C 1.2 39.4 2.46 39.37 2.5 39.4 C 2.9 39.4 3.2 39.3 3.4 39.1 C 3.7 38.9 3.8 38.6 3.8 38.3 C 3.8 38.3 3.8 38.3 3.8 38.3 C 3.8 37.9 3.7 37.7 3.4 37.5 C 3.2 37.3 2.9 37.2 2.5 37.2 C 2.49 37.21 1.2 37.2 1.2 37.2 L 1.2 39.4 Z M 5.4 41.6 L 5.4 36.7 C 5.4 36.7 7.2 36.7 7.2 36.7 C 7.8 36.7 8.2 36.8 8.5 37.1 C 8.9 37.4 9 37.8 9 38.3 C 9 38.3 9 38.3 9 38.3 C 9 38.8 8.9 39.2 8.5 39.5 C 8.1 39.7 7.7 39.9 7.1 39.9 C 7.11 39.87 5.9 39.9 5.9 39.9 L 5.9 41.6 L 5.4 41.6 Z M 5.9 39.4 C 5.9 39.4 7.13 39.37 7.1 39.4 C 7.5 39.4 7.9 39.3 8.1 39.1 C 8.4 38.9 8.5 38.6 8.5 38.3 C 8.5 38.3 8.5 38.3 8.5 38.3 C 8.5 37.9 8.4 37.7 8.1 37.5 C 7.9 37.3 7.6 37.2 7.2 37.2 C 7.16 37.21 5.9 37.2 5.9 37.2 L 5.9 39.4 Z " stroke="none" fill="#000"/>  </g>  <g id="Polygon52898">    <path d="M 0.7 23.6 L 0.7 18.7 C 0.7 18.7 2.8 18.7 2.8 18.7 C 3.4 18.7 3.9 18.9 4.2 19.2 C 4.4 19.4 4.6 19.8 4.6 20.2 C 4.6 20.2 4.6 20.2 4.6 20.2 C 4.6 20.6 4.4 20.9 4.2 21.1 C 4 21.4 3.6 21.5 3.2 21.6 C 3.24 21.6 4.7 23.6 4.7 23.6 L 4.1 23.6 L 2.6 21.7 L 1.2 21.7 L 1.2 23.6 L 0.7 23.6 Z M 1.2 21.2 C 1.2 21.2 2.75 21.2 2.8 21.2 C 3.1 21.2 3.4 21.1 3.7 20.9 C 3.9 20.7 4 20.5 4 20.2 C 4 20.2 4 20.2 4 20.2 C 4 19.9 3.9 19.6 3.7 19.5 C 3.5 19.3 3.2 19.2 2.8 19.2 C 2.76 19.21 1.2 19.2 1.2 19.2 L 1.2 21.2 Z M 8.7 23 C 8.3 23.5 7.8 23.7 7.2 23.7 C 6.7 23.7 6.3 23.5 6 23.2 C 5.6 22.8 5.4 22.4 5.4 21.8 C 5.4 21.8 5.4 21.8 5.4 21.8 C 5.4 21.3 5.6 20.8 5.9 20.4 C 6.3 20.1 6.7 19.9 7.2 19.9 C 7.7 19.9 8.1 20.1 8.4 20.4 C 8.7 20.8 8.9 21.3 8.9 21.8 C 8.9 21.9 8.9 21.9 8.9 22 C 8.9 22 6 22 6 22 C 6 22.4 6.2 22.7 6.4 22.9 C 6.6 23.1 6.9 23.2 7.3 23.2 C 7.7 23.2 8.1 23 8.4 22.7 C 8.4 22.7 8.7 23 8.7 23 C 8.7 23 8.74 23 8.7 23 Z M 6 21.6 C 6 21.6 8.3 21.6 8.3 21.6 C 8.3 21.2 8.2 20.9 8 20.7 C 7.8 20.5 7.5 20.4 7.2 20.4 C 6.8 20.4 6.6 20.5 6.4 20.7 C 6.1 20.9 6 21.2 6 21.6 Z M 9.8 23.6 L 9.8 20 L 10.3 20 C 10.3 20 10.35 20.61 10.3 20.6 C 10.6 20.1 11.1 19.9 11.6 19.9 C 12 19.9 12.4 20 12.6 20.3 C 12.8 20.6 13 20.9 13 21.4 C 12.97 21.35 13 23.6 13 23.6 L 12.4 23.6 C 12.4 23.6 12.43 21.49 12.4 21.5 C 12.4 21.1 12.3 20.9 12.2 20.7 C 12 20.5 11.7 20.4 11.4 20.4 C 11.1 20.4 10.9 20.5 10.7 20.7 C 10.4 20.9 10.3 21.2 10.3 21.5 C 10.35 21.53 10.3 23.6 10.3 23.6 L 9.8 23.6 Z M 14.1 23.6 L 14.1 18.5 L 14.7 18.5 L 14.7 22 L 16.6 20 L 17.3 20 L 15.8 21.5 L 17.3 23.6 L 16.7 23.6 L 15.4 21.9 L 14.7 22.7 L 14.7 23.6 L 14.1 23.6 Z M 18.1 20.7 L 18.1 20 L 18.7 20 L 18.7 20.7 L 18.1 20.7 Z M 18.1 23.6 L 18.1 22.9 L 18.7 22.9 L 18.7 23.6 L 18.1 23.6 Z M 22.1 23.6 L 22.1 18.7 C 22.1 18.7 24.16 18.7 24.2 18.7 C 24.7 18.7 25.1 18.8 25.4 19.1 C 25.6 19.3 25.8 19.6 25.8 19.9 C 25.8 19.9 25.8 19.9 25.8 19.9 C 25.8 20.5 25.5 20.8 25 21.1 C 25.7 21.3 26 21.7 26 22.2 C 26 22.2 26 22.3 26 22.3 C 26 22.7 25.9 23 25.5 23.2 C 25.2 23.5 24.8 23.6 24.2 23.6 C 24.25 23.6 22.1 23.6 22.1 23.6 Z M 25.2 20 C 25.2 20 25.2 20 25.2 20 C 25.2 19.7 25.1 19.6 24.9 19.4 C 24.7 19.3 24.5 19.2 24.1 19.2 C 24.11 19.2 22.6 19.2 22.6 19.2 L 22.6 20.9 C 22.6 20.9 24.07 20.88 24.1 20.9 C 24.4 20.9 24.7 20.8 24.9 20.7 C 25.1 20.5 25.2 20.3 25.2 20 Z M 25.5 22.2 C 25.5 22.2 25.5 22.2 25.5 22.2 C 25.5 21.9 25.4 21.7 25.1 21.6 C 24.9 21.4 24.6 21.4 24.2 21.4 C 24.16 21.37 22.6 21.4 22.6 21.4 L 22.6 23.1 C 22.6 23.1 24.26 23.1 24.3 23.1 C 24.6 23.1 24.9 23 25.1 22.9 C 25.4 22.7 25.5 22.5 25.5 22.2 Z M 27.1 23.6 L 27.1 18.5 L 27.6 18.5 L 27.6 23.6 L 27.1 23.6 Z M 31.3 23.1 C 30.9 23.5 30.5 23.7 30 23.7 C 29.6 23.7 29.3 23.6 29 23.4 C 28.7 23.2 28.6 22.9 28.6 22.5 C 28.6 22.5 28.6 22.5 28.6 22.5 C 28.6 22.2 28.7 21.9 29 21.7 C 29.3 21.5 29.7 21.4 30.1 21.4 C 30.5 21.4 30.9 21.4 31.3 21.5 C 31.3 21.5 31.3 21.4 31.3 21.4 C 31.3 21.1 31.2 20.8 31 20.7 C 30.8 20.5 30.5 20.4 30.2 20.4 C 29.8 20.4 29.5 20.5 29.1 20.7 C 29.1 20.7 28.9 20.2 28.9 20.2 C 29.3 20 29.8 19.9 30.2 19.9 C 30.8 19.9 31.1 20.1 31.4 20.3 C 31.7 20.6 31.8 20.9 31.8 21.4 C 31.78 21.39 31.8 23.6 31.8 23.6 L 31.3 23.6 L 31.3 23.1 C 31.3 23.1 31.26 23.05 31.3 23.1 Z M 30.1 23.2 C 30.4 23.2 30.7 23.2 30.9 23 C 31.2 22.8 31.3 22.6 31.3 22.3 C 31.3 22.3 31.3 21.9 31.3 21.9 C 30.9 21.8 30.5 21.8 30.2 21.8 C 29.9 21.8 29.6 21.8 29.4 22 C 29.2 22.1 29.1 22.3 29.1 22.5 C 29.1 22.5 29.1 22.5 29.1 22.5 C 29.1 22.7 29.2 22.9 29.4 23.1 C 29.6 23.2 29.8 23.2 30.1 23.2 Z M 36 23 C 35.6 23.5 35.1 23.7 34.6 23.7 C 34 23.7 33.6 23.5 33.2 23.1 C 32.9 22.8 32.7 22.3 32.7 21.8 C 32.7 21.8 32.7 21.8 32.7 21.8 C 32.7 21.3 32.9 20.8 33.2 20.5 C 33.6 20.1 34 19.9 34.6 19.9 C 35.1 19.9 35.6 20.1 36 20.5 C 36 20.5 35.7 20.9 35.7 20.9 C 35.3 20.6 34.9 20.4 34.6 20.4 C 34.2 20.4 33.9 20.5 33.6 20.8 C 33.4 21.1 33.3 21.4 33.3 21.8 C 33.3 21.8 33.3 21.8 33.3 21.8 C 33.3 22.2 33.4 22.5 33.6 22.8 C 33.9 23.1 34.2 23.2 34.6 23.2 C 35 23.2 35.4 23 35.7 22.7 C 35.69 22.66 36 23 36 23 C 36 23 36.04 22.98 36 23 Z M 36.9 23.6 L 36.9 18.5 L 37.5 18.5 L 37.5 22 L 39.4 20 L 40.1 20 L 38.6 21.5 L 40.1 23.6 L 39.5 23.6 L 38.2 21.9 L 37.5 22.7 L 37.5 23.6 L 36.9 23.6 Z " stroke="none" fill="#000"/>  </g>  <g id="Polygon52897">    <path d="M 3 9.3 L 3 8.6 L 3.6 8.6 L 3.6 9.3 L 3 9.3 Z M 1.7 9.3 L 1.7 8.6 L 2.3 8.6 L 2.3 9.3 L 1.7 9.3 Z M 2.7 14.7 C 2 14.7 1.5 14.5 1.2 14.1 C 0.8 13.7 0.6 13.2 0.6 12.5 C 0.62 12.55 0.6 9.7 0.6 9.7 L 1.2 9.7 C 1.2 9.7 1.17 12.51 1.2 12.5 C 1.2 13 1.3 13.4 1.6 13.7 C 1.8 14 2.2 14.2 2.7 14.2 C 3.1 14.2 3.5 14 3.8 13.8 C 4 13.5 4.1 13.1 4.1 12.5 C 4.14 12.55 4.1 9.7 4.1 9.7 L 4.7 9.7 C 4.7 9.7 4.7 12.51 4.7 12.5 C 4.7 13.2 4.5 13.7 4.1 14.1 C 3.8 14.5 3.3 14.7 2.7 14.7 Z M 5.9 14.6 L 5.9 11 L 6.5 11 C 6.5 11 6.45 11.93 6.5 11.9 C 6.6 11.6 6.8 11.4 7 11.2 C 7.3 11 7.6 10.9 7.9 10.9 C 7.93 10.92 7.9 11.5 7.9 11.5 C 7.9 11.5 7.89 11.5 7.9 11.5 C 7.5 11.5 7.1 11.6 6.9 11.9 C 6.6 12.2 6.5 12.6 6.5 13.2 C 6.45 13.16 6.5 14.6 6.5 14.6 L 5.9 14.6 Z M 10.6 10.4 L 10.6 9.8 L 11.2 9.8 L 11.2 10.4 L 10.6 10.4 Z M 9.3 10.4 L 9.3 9.8 L 10 9.8 L 10 10.4 L 9.3 10.4 Z M 11.3 14 C 11 14.4 10.6 14.7 10.1 14.7 C 9.7 14.7 9.3 14.5 9.1 14.3 C 8.8 14 8.7 13.7 8.7 13.2 C 8.69 13.23 8.7 11 8.7 11 L 9.2 11 C 9.2 11 9.23 13.09 9.2 13.1 C 9.2 13.4 9.3 13.7 9.5 13.9 C 9.7 14.1 9.9 14.2 10.2 14.2 C 10.5 14.2 10.8 14.1 11 13.9 C 11.2 13.7 11.3 13.4 11.3 13.1 C 11.32 13.05 11.3 11 11.3 11 L 11.9 11 L 11.9 14.6 L 11.3 14.6 L 11.3 14 C 11.3 14 11.32 13.97 11.3 14 Z M 13.1 14.6 L 13.1 11 L 13.6 11 C 13.6 11 13.6 11.61 13.6 11.6 C 13.9 11.1 14.3 10.9 14.8 10.9 C 15.3 10.9 15.6 11 15.9 11.3 C 16.1 11.6 16.2 11.9 16.2 12.4 C 16.23 12.35 16.2 14.6 16.2 14.6 L 15.7 14.6 C 15.7 14.6 15.69 12.49 15.7 12.5 C 15.7 12.1 15.6 11.9 15.4 11.7 C 15.2 11.5 15 11.4 14.7 11.4 C 14.4 11.4 14.1 11.5 13.9 11.7 C 13.7 11.9 13.6 12.2 13.6 12.5 C 13.6 12.53 13.6 14.6 13.6 14.6 L 13.1 14.6 Z M 19.6 14.6 L 19.6 9.7 L 20.1 9.7 L 20.1 12.6 L 22.9 9.7 L 23.7 9.7 L 21.5 11.8 L 23.7 14.6 L 23 14.6 L 21.2 12.2 L 20.1 13.3 L 20.1 14.6 L 19.6 14.6 Z M 26.2 14.7 C 25.6 14.7 25.2 14.5 24.8 14.1 C 24.5 13.8 24.3 13.3 24.3 12.8 C 24.3 12.8 24.3 12.8 24.3 12.8 C 24.3 12.3 24.5 11.8 24.8 11.5 C 25.2 11.1 25.6 10.9 26.2 10.9 C 26.7 10.9 27.2 11.1 27.5 11.5 C 27.9 11.8 28.1 12.3 28.1 12.8 C 28.1 12.8 28.1 12.8 28.1 12.8 C 28.1 13.3 27.9 13.8 27.5 14.1 C 27.2 14.5 26.7 14.7 26.2 14.7 Z M 26.2 14.2 C 26.6 14.2 26.9 14.1 27.1 13.8 C 27.4 13.5 27.5 13.2 27.5 12.8 C 27.5 12.8 27.5 12.8 27.5 12.8 C 27.5 12.4 27.4 12.1 27.1 11.8 C 26.9 11.5 26.5 11.4 26.2 11.4 C 25.8 11.4 25.5 11.5 25.2 11.8 C 25 12.1 24.8 12.4 24.8 12.8 C 24.8 12.8 24.8 12.8 24.8 12.8 C 24.8 13.2 25 13.5 25.2 13.8 C 25.5 14.1 25.8 14.2 26.2 14.2 Z M 31.9 13.9 C 31.6 14.4 31.1 14.7 30.5 14.7 C 30.1 14.7 29.7 14.5 29.3 14.2 C 29 13.8 28.8 13.4 28.8 12.8 C 28.8 12.8 28.8 12.8 28.8 12.8 C 28.8 12.2 29 11.8 29.3 11.4 C 29.7 11.1 30.1 10.9 30.5 10.9 C 31.1 10.9 31.6 11.2 31.9 11.7 C 31.93 11.67 31.9 9.5 31.9 9.5 L 32.5 9.5 L 32.5 14.6 L 31.9 14.6 L 31.9 13.9 C 31.9 13.9 31.93 13.87 31.9 13.9 Z M 30.6 14.2 C 31 14.2 31.3 14.1 31.6 13.8 C 31.8 13.5 32 13.2 32 12.8 C 32 12.8 32 12.8 32 12.8 C 32 12.4 31.8 12 31.6 11.8 C 31.3 11.5 31 11.4 30.6 11.4 C 30.3 11.4 30 11.5 29.7 11.8 C 29.5 12 29.4 12.4 29.4 12.8 C 29.4 12.8 29.4 12.8 29.4 12.8 C 29.4 13.2 29.5 13.6 29.7 13.8 C 30 14.1 30.3 14.2 30.6 14.2 Z M 36.2 14 C 36 14.4 35.5 14.7 35 14.7 C 34.6 14.7 34.2 14.5 34 14.3 C 33.7 14 33.6 13.7 33.6 13.2 C 33.62 13.23 33.6 11 33.6 11 L 34.2 11 C 34.2 11 34.16 13.09 34.2 13.1 C 34.2 13.4 34.2 13.7 34.4 13.9 C 34.6 14.1 34.8 14.2 35.2 14.2 C 35.5 14.2 35.7 14.1 35.9 13.9 C 36.1 13.7 36.2 13.4 36.2 13.1 C 36.25 13.05 36.2 11 36.2 11 L 36.8 11 L 36.8 14.6 L 36.2 14.6 L 36.2 14 C 36.2 14 36.25 13.97 36.2 14 Z M 38 11.7 L 38 11 L 38.6 11 L 38.6 11.7 L 38 11.7 Z M 38 14.6 L 38 13.9 L 38.6 13.9 L 38.6 14.6 L 38 14.6 Z M 41.7 14.6 L 41.7 13.8 L 44.4 10.6 L 41.8 10.6 L 41.8 9.7 L 45.8 9.7 L 45.8 10.5 L 43.1 13.7 L 45.8 13.7 L 45.8 14.6 L 41.7 14.6 Z M 46.8 14.6 L 46.8 9.7 C 46.8 9.7 48.72 9.7 48.7 9.7 C 49.5 9.7 50.1 9.9 50.6 10.4 C 51.1 10.9 51.3 11.4 51.3 12.1 C 51.3 12.1 51.3 12.1 51.3 12.1 C 51.3 12.8 51.1 13.4 50.6 13.9 C 50.1 14.4 49.5 14.6 48.7 14.6 C 48.72 14.6 46.8 14.6 46.8 14.6 Z M 48.7 10.7 C 48.72 10.67 47.9 10.7 47.9 10.7 L 47.9 13.6 C 47.9 13.6 48.72 13.63 48.7 13.6 C 49.2 13.6 49.5 13.5 49.8 13.2 C 50.1 13 50.2 12.6 50.2 12.2 C 50.2 12.2 50.2 12.1 50.2 12.1 C 50.2 11.7 50.1 11.4 49.8 11.1 C 49.5 10.8 49.2 10.7 48.7 10.7 Z M 54.1 14.6 L 54.1 13.7 C 54.1 13.7 55.77 12.41 55.8 12.4 C 56.1 12.1 56.3 11.9 56.4 11.8 C 56.6 11.6 56.6 11.4 56.6 11.2 C 56.6 11 56.6 10.9 56.4 10.8 C 56.3 10.7 56.2 10.6 56 10.6 C 55.8 10.6 55.6 10.6 55.5 10.7 C 55.3 10.8 55.1 11 55 11.3 C 55 11.3 54.2 10.6 54.2 10.6 C 54.5 10.3 54.7 10 55 9.9 C 55.3 9.7 55.6 9.6 56 9.6 C 56.5 9.6 56.9 9.8 57.2 10 C 57.6 10.3 57.7 10.7 57.7 11.1 C 57.7 11.1 57.7 11.2 57.7 11.2 C 57.7 11.5 57.6 11.9 57.4 12.1 C 57.2 12.4 56.9 12.7 56.4 13.1 C 56.43 13.05 55.6 13.7 55.6 13.7 L 57.8 13.7 L 57.8 14.6 L 54.1 14.6 Z M 60.5 14.7 C 59.9 14.7 59.5 14.5 59.1 14.2 C 58.7 13.8 58.5 13.2 58.5 12.3 C 58.5 12.3 58.5 12.3 58.5 12.3 C 58.5 11.5 58.7 10.9 59.1 10.4 C 59.4 9.9 60 9.6 60.7 9.6 C 61.3 9.6 61.8 9.8 62.2 10.2 C 62.2 10.2 61.6 11 61.6 11 C 61.5 10.9 61.3 10.8 61.2 10.7 C 61 10.6 60.8 10.6 60.6 10.6 C 60.5 10.6 60.3 10.6 60.2 10.7 C 60.1 10.8 60 10.9 59.9 11 C 59.8 11.1 59.8 11.3 59.7 11.4 C 59.7 11.5 59.7 11.6 59.7 11.7 C 60 11.5 60.3 11.4 60.7 11.4 C 61.2 11.4 61.6 11.6 61.9 11.8 C 62.2 12.1 62.4 12.5 62.4 13 C 62.4 13 62.4 13 62.4 13 C 62.4 13.5 62.2 13.9 61.9 14.2 C 61.5 14.5 61.1 14.7 60.5 14.7 Z M 59.6 13 C 59.6 13.2 59.7 13.4 59.9 13.6 C 60 13.7 60.2 13.8 60.5 13.8 C 60.7 13.8 61 13.7 61.1 13.6 C 61.3 13.4 61.3 13.3 61.3 13 C 61.3 13 61.3 13 61.3 13 C 61.3 12.8 61.2 12.6 61.1 12.5 C 60.9 12.4 60.7 12.3 60.5 12.3 C 60.2 12.3 60 12.4 59.9 12.5 C 59.7 12.6 59.6 12.8 59.6 13 C 59.63 13.02 59.6 13 59.6 13 C 59.6 13 59.63 13.03 59.6 13 Z M 65.2 14.7 C 64.6 14.7 64.1 14.5 63.7 14.2 C 63.4 13.8 63.2 13.2 63.2 12.3 C 63.2 12.3 63.2 12.3 63.2 12.3 C 63.2 11.5 63.3 10.9 63.7 10.4 C 64.1 9.9 64.6 9.6 65.3 9.6 C 65.9 9.6 66.4 9.8 66.8 10.2 C 66.8 10.2 66.3 11 66.3 11 C 66.1 10.9 65.9 10.8 65.8 10.7 C 65.6 10.6 65.5 10.6 65.3 10.6 C 65.1 10.6 65 10.6 64.8 10.7 C 64.7 10.8 64.6 10.9 64.5 11 C 64.4 11.1 64.4 11.3 64.4 11.4 C 64.3 11.5 64.3 11.6 64.3 11.7 C 64.6 11.5 64.9 11.4 65.3 11.4 C 65.8 11.4 66.2 11.6 66.5 11.8 C 66.9 12.1 67 12.5 67 13 C 67 13 67 13 67 13 C 67 13.5 66.9 13.9 66.5 14.2 C 66.1 14.5 65.7 14.7 65.2 14.7 Z M 64.3 13 C 64.3 13.2 64.3 13.4 64.5 13.6 C 64.7 13.7 64.9 13.8 65.1 13.8 C 65.4 13.8 65.6 13.7 65.7 13.6 C 65.9 13.4 66 13.3 66 13 C 66 13 66 13 66 13 C 66 12.8 65.9 12.6 65.7 12.5 C 65.6 12.4 65.4 12.3 65.1 12.3 C 64.8 12.3 64.6 12.4 64.5 12.5 C 64.3 12.6 64.3 12.8 64.3 13 C 64.27 13.02 64.3 13 64.3 13 C 64.3 13 64.27 13.03 64.3 13 Z M 69.8 14.7 C 69.2 14.7 68.7 14.5 68.4 14.2 C 68 13.8 67.8 13.2 67.8 12.3 C 67.8 12.3 67.8 12.3 67.8 12.3 C 67.8 11.5 68 10.9 68.3 10.4 C 68.7 9.9 69.2 9.6 70 9.6 C 70.5 9.6 71 9.8 71.5 10.2 C 71.5 10.2 70.9 11 70.9 11 C 70.7 10.9 70.6 10.8 70.4 10.7 C 70.3 10.6 70.1 10.6 69.9 10.6 C 69.7 10.6 69.6 10.6 69.5 10.7 C 69.3 10.8 69.2 10.9 69.2 11 C 69.1 11.1 69 11.3 69 11.4 C 69 11.5 68.9 11.6 68.9 11.7 C 69.2 11.5 69.6 11.4 69.9 11.4 C 70.4 11.4 70.9 11.6 71.2 11.8 C 71.5 12.1 71.7 12.5 71.7 13 C 71.7 13 71.7 13 71.7 13 C 71.7 13.5 71.5 13.9 71.1 14.2 C 70.8 14.5 70.3 14.7 69.8 14.7 Z M 68.9 13 C 68.9 13.2 69 13.4 69.1 13.6 C 69.3 13.7 69.5 13.8 69.8 13.8 C 70 13.8 70.2 13.7 70.4 13.6 C 70.5 13.4 70.6 13.3 70.6 13 C 70.6 13 70.6 13 70.6 13 C 70.6 12.8 70.5 12.6 70.4 12.5 C 70.2 12.4 70 12.3 69.7 12.3 C 69.5 12.3 69.3 12.4 69.1 12.5 C 69 12.6 68.9 12.8 68.9 13 C 68.9 13.02 68.9 13 68.9 13 C 68.9 13 68.9 13.03 68.9 13 Z M 72.6 14.6 L 74.8 10.6 L 72.5 10.6 L 72.5 9.7 L 76.1 9.7 L 76.1 10.5 L 73.9 14.6 L 72.6 14.6 Z " stroke="none" fill="#000"/>  </g>  <g id="Polygon52896">    <path d="M 0.6 5.6 L 0.6 0.7 C 0.6 0.7 2.86 0.7 2.9 0.7 C 3.4 0.7 3.9 0.8 4.1 1.1 C 4.4 1.4 4.5 1.6 4.5 2 C 4.5 2 4.5 2 4.5 2 C 4.5 2.5 4.3 2.8 3.8 3 C 4.1 3.2 4.4 3.3 4.5 3.5 C 4.7 3.7 4.8 3.9 4.8 4.2 C 4.8 4.2 4.8 4.3 4.8 4.3 C 4.8 4.7 4.6 5 4.3 5.3 C 3.9 5.5 3.5 5.6 2.9 5.6 C 2.92 5.6 0.6 5.6 0.6 5.6 Z M 2.6 2.7 C 3.2 2.7 3.4 2.5 3.4 2.2 C 3.4 2.2 3.4 2.1 3.4 2.1 C 3.4 1.8 3.2 1.6 2.7 1.6 C 2.7 1.64 1.6 1.6 1.6 1.6 L 1.6 2.7 L 2.6 2.7 C 2.6 2.7 2.63 2.68 2.6 2.7 Z M 2.9 4.7 C 3.4 4.7 3.7 4.5 3.7 4.1 C 3.7 4.1 3.7 4.1 3.7 4.1 C 3.7 3.8 3.4 3.6 2.9 3.6 C 2.88 3.58 1.6 3.6 1.6 3.6 L 1.6 4.7 L 2.9 4.7 C 2.9 4.7 2.92 4.65 2.9 4.7 Z M 7.9 5.1 C 7.6 5.5 7.2 5.7 6.8 5.7 C 6.4 5.7 6.1 5.5 5.8 5.3 C 5.6 5.1 5.5 4.7 5.5 4.3 C 5.5 4.28 5.5 1.8 5.5 1.8 L 6.6 1.8 C 6.6 1.8 6.57 3.94 6.6 3.9 C 6.6 4.4 6.8 4.7 7.2 4.7 C 7.4 4.7 7.6 4.6 7.7 4.5 C 7.8 4.4 7.9 4.2 7.9 3.9 C 7.87 3.94 7.9 1.8 7.9 1.8 L 8.9 1.8 L 8.9 5.6 L 7.9 5.6 L 7.9 5.1 C 7.9 5.1 7.87 5.07 7.9 5.1 Z M 9.9 5.6 L 9.9 0.5 L 11 0.5 L 11 5.6 L 9.9 5.6 Z M 14.2 5.2 C 13.9 5.5 13.5 5.7 13.1 5.7 C 12.7 5.7 12.4 5.6 12.1 5.4 C 11.9 5.2 11.8 4.9 11.8 4.5 C 11.8 4.5 11.8 4.5 11.8 4.5 C 11.8 4.1 11.9 3.8 12.2 3.6 C 12.5 3.4 12.8 3.3 13.3 3.3 C 13.6 3.3 13.9 3.4 14.2 3.5 C 14.2 3.5 14.2 3.4 14.2 3.4 C 14.2 2.9 13.9 2.7 13.4 2.7 C 13.1 2.7 12.7 2.8 12.4 2.9 C 12.4 2.9 12.1 2.1 12.1 2.1 C 12.6 1.9 13.1 1.8 13.6 1.8 C 14.1 1.8 14.5 1.9 14.8 2.2 C 15.1 2.5 15.2 2.9 15.2 3.4 C 15.23 3.42 15.2 5.6 15.2 5.6 L 14.2 5.6 L 14.2 5.2 C 14.2 5.2 14.2 5.19 14.2 5.2 Z M 13.4 4.9 C 13.6 4.9 13.8 4.9 14 4.8 C 14.1 4.6 14.2 4.5 14.2 4.3 C 14.2 4.3 14.2 4.1 14.2 4.1 C 14 4 13.8 3.9 13.5 3.9 C 13.3 3.9 13.1 4 13 4.1 C 12.9 4.2 12.8 4.3 12.8 4.5 C 12.8 4.5 12.8 4.5 12.8 4.5 C 12.8 4.6 12.9 4.7 13 4.8 C 13.1 4.9 13.2 4.9 13.4 4.9 Z M 17.3 6.8 L 16.4 6.4 C 16.4 6.4 17 5.62 17 5.6 C 16.6 5.5 16.2 5.4 15.9 5.1 C 15.9 5.1 16.3 4.4 16.3 4.4 C 16.7 4.7 17.1 4.9 17.5 4.9 C 17.8 4.9 17.9 4.8 17.9 4.6 C 17.9 4.6 17.9 4.6 17.9 4.6 C 17.9 4.5 17.9 4.5 17.9 4.5 C 17.9 4.4 17.9 4.4 17.9 4.4 C 17.8 4.4 17.8 4.4 17.8 4.3 C 17.7 4.3 17.7 4.3 17.6 4.3 C 17.6 4.3 17.5 4.2 17.5 4.2 C 17.5 4.2 17.4 4.2 17.3 4.2 C 17.3 4.2 17.2 4.1 17.2 4.1 C 17 4.1 16.9 4 16.8 4 C 16.6 3.9 16.5 3.9 16.4 3.8 C 16.3 3.7 16.2 3.6 16.1 3.5 C 16.1 3.3 16 3.2 16 3 C 16 3 16 3 16 3 C 16 2.6 16.2 2.3 16.4 2.1 C 16.7 1.9 17 1.8 17.4 1.8 C 17.9 1.8 18.4 1.9 18.8 2.2 C 18.8 2.2 18.4 3 18.4 3 C 18 2.7 17.7 2.6 17.4 2.6 C 17.3 2.6 17.2 2.6 17.1 2.7 C 17 2.7 17 2.8 17 2.9 C 17 2.9 17 2.9 17 2.9 C 17 3 17.1 3 17.2 3.1 C 17.3 3.2 17.5 3.3 17.8 3.3 C 17.9 3.4 18.1 3.4 18.2 3.5 C 18.3 3.5 18.4 3.6 18.5 3.7 C 18.6 3.8 18.7 3.9 18.8 4 C 18.9 4.1 18.9 4.3 18.9 4.4 C 18.9 4.4 18.9 4.5 18.9 4.5 C 18.9 4.8 18.8 5.1 18.6 5.3 C 18.4 5.5 18.1 5.6 17.8 5.6 C 17.79 5.65 17.3 6.8 17.3 6.8 Z M 19.7 5.6 L 19.7 1.8 L 20.8 1.8 L 20.8 5.6 L 19.7 5.6 Z M 21.8 5.6 L 21.8 0.5 L 22.8 0.5 L 22.8 3.2 L 24.1 1.8 L 25.4 1.8 L 23.9 3.3 L 25.4 5.6 L 24.2 5.6 L 23.2 4.1 L 22.8 4.5 L 22.8 5.6 L 21.8 5.6 Z M 28.1 5.6 L 28.1 0.7 L 31.9 0.7 L 31.9 1.7 L 29.2 1.7 L 29.2 2.7 L 31.5 2.7 L 31.5 3.7 L 29.2 3.7 L 29.2 5.6 L 28.1 5.6 Z M 32.7 5.6 L 32.7 1.8 L 33.7 1.8 L 33.7 5.6 L 32.7 5.6 Z M 34.7 5.6 L 34.7 1.8 L 35.8 1.8 C 35.8 1.8 35.79 2.6 35.8 2.6 C 36 2 36.4 1.8 37 1.8 C 36.99 1.78 37 2.9 37 2.9 C 37 2.9 36.93 2.89 36.9 2.9 C 36.6 2.9 36.3 3 36.1 3.2 C 35.9 3.4 35.8 3.8 35.8 4.2 C 35.79 4.21 35.8 5.6 35.8 5.6 L 34.7 5.6 Z M 39.1 6.8 L 38.3 6.4 C 38.3 6.4 38.83 5.6 38.8 5.6 C 38.4 5.5 38.1 5.2 37.8 4.9 C 37.6 4.6 37.5 4.2 37.5 3.7 C 37.5 3.7 37.5 3.7 37.5 3.7 C 37.5 3.2 37.7 2.7 38 2.3 C 38.4 2 38.9 1.8 39.4 1.8 C 40.1 1.8 40.6 2 40.9 2.4 C 40.9 2.4 40.3 3.1 40.3 3.1 C 40.1 3 40 2.9 39.9 2.8 C 39.8 2.7 39.6 2.7 39.4 2.7 C 39.2 2.7 39 2.8 38.8 3 C 38.6 3.2 38.5 3.4 38.5 3.7 C 38.5 3.7 38.5 3.7 38.5 3.7 C 38.5 4 38.6 4.3 38.8 4.5 C 39 4.7 39.2 4.8 39.5 4.8 C 39.8 4.8 40.1 4.6 40.3 4.4 C 40.3 4.4 41 5 41 5 C 40.8 5.2 40.6 5.4 40.4 5.5 C 40.2 5.6 39.9 5.7 39.6 5.7 C 39.6 5.68 39.1 6.8 39.1 6.8 Z M 43.8 5.2 C 43.6 5.5 43.2 5.7 42.7 5.7 C 42.3 5.7 42 5.6 41.8 5.4 C 41.5 5.2 41.4 4.9 41.4 4.5 C 41.4 4.5 41.4 4.5 41.4 4.5 C 41.4 4.1 41.6 3.8 41.8 3.6 C 42.1 3.4 42.5 3.3 42.9 3.3 C 43.2 3.3 43.5 3.4 43.9 3.5 C 43.9 3.5 43.9 3.4 43.9 3.4 C 43.9 2.9 43.6 2.7 43 2.7 C 42.7 2.7 42.4 2.8 42 2.9 C 42 2.9 41.7 2.1 41.7 2.1 C 42.2 1.9 42.7 1.8 43.2 1.8 C 43.8 1.8 44.2 1.9 44.5 2.2 C 44.7 2.5 44.9 2.9 44.9 3.4 C 44.88 3.42 44.9 5.6 44.9 5.6 L 43.8 5.6 L 43.8 5.2 C 43.8 5.2 43.85 5.19 43.8 5.2 Z M 43 4.9 C 43.3 4.9 43.5 4.9 43.6 4.8 C 43.8 4.6 43.9 4.5 43.9 4.3 C 43.9 4.3 43.9 4.1 43.9 4.1 C 43.7 4 43.4 3.9 43.2 3.9 C 43 3.9 42.8 4 42.7 4.1 C 42.5 4.2 42.5 4.3 42.5 4.5 C 42.5 4.5 42.5 4.5 42.5 4.5 C 42.5 4.6 42.5 4.7 42.6 4.8 C 42.7 4.9 42.9 4.9 43 4.9 Z M 47.1 5.7 C 46.5 5.7 46 5.5 45.5 5.1 C 45.5 5.1 46 4.4 46 4.4 C 46.4 4.7 46.8 4.9 47.1 4.9 C 47.4 4.9 47.6 4.8 47.6 4.6 C 47.6 4.6 47.6 4.6 47.6 4.6 C 47.6 4.5 47.6 4.5 47.6 4.5 C 47.6 4.4 47.5 4.4 47.5 4.4 C 47.5 4.4 47.4 4.4 47.4 4.3 C 47.4 4.3 47.3 4.3 47.3 4.3 C 47.2 4.3 47.2 4.2 47.1 4.2 C 47.1 4.2 47.1 4.2 47 4.2 C 46.9 4.2 46.9 4.1 46.8 4.1 C 46.7 4.1 46.5 4 46.4 4 C 46.3 3.9 46.2 3.9 46.1 3.8 C 45.9 3.7 45.8 3.6 45.8 3.5 C 45.7 3.3 45.7 3.2 45.7 3 C 45.7 3 45.7 3 45.7 3 C 45.7 2.6 45.8 2.3 46.1 2.1 C 46.3 1.9 46.7 1.8 47.1 1.8 C 47.6 1.8 48 1.9 48.5 2.2 C 48.5 2.2 48.1 3 48.1 3 C 47.7 2.7 47.3 2.6 47 2.6 C 46.9 2.6 46.8 2.6 46.7 2.7 C 46.7 2.7 46.6 2.8 46.6 2.9 C 46.6 2.9 46.6 2.9 46.6 2.9 C 46.6 3 46.7 3 46.8 3.1 C 47 3.2 47.2 3.3 47.4 3.3 C 47.6 3.4 47.7 3.4 47.8 3.5 C 47.9 3.5 48 3.6 48.2 3.7 C 48.3 3.8 48.4 3.9 48.4 4 C 48.5 4.1 48.5 4.3 48.5 4.4 C 48.5 4.4 48.5 4.5 48.5 4.5 C 48.5 4.9 48.4 5.2 48.1 5.4 C 47.9 5.6 47.5 5.7 47.1 5.7 Z M 49.4 5.6 L 49.4 1.8 L 50.4 1.8 L 50.4 5.6 L 49.4 5.6 Z M 53.4 3.9 L 53.4 2.9 L 56.4 2.9 L 56.4 3.9 L 53.4 3.9 Z M 59.4 5.6 L 59.4 0.7 C 59.4 0.7 61.34 0.7 61.3 0.7 C 62.1 0.7 62.7 0.9 63.2 1.4 C 63.7 1.9 63.9 2.4 63.9 3.1 C 63.9 3.1 63.9 3.1 63.9 3.1 C 63.9 3.8 63.7 4.4 63.2 4.9 C 62.7 5.4 62.1 5.6 61.3 5.6 C 61.34 5.6 59.4 5.6 59.4 5.6 Z M 61.3 1.7 C 61.34 1.67 60.5 1.7 60.5 1.7 L 60.5 4.6 C 60.5 4.6 61.34 4.63 61.3 4.6 C 61.8 4.6 62.1 4.5 62.4 4.2 C 62.7 4 62.8 3.6 62.8 3.2 C 62.8 3.2 62.8 3.1 62.8 3.1 C 62.8 2.7 62.7 2.4 62.4 2.1 C 62.1 1.8 61.8 1.7 61.3 1.7 Z M 65 5.6 L 65 0.7 L 66 0.7 L 66 5.6 L 65 5.6 Z M 67.3 5.6 L 67.3 0.7 L 68.4 0.7 L 68.4 5.6 L 67.3 5.6 Z M 71.3 5.7 C 70.5 5.7 69.8 5.4 69.3 4.9 C 69.3 4.9 69.9 4.1 69.9 4.1 C 70.4 4.5 70.9 4.7 71.4 4.7 C 71.6 4.7 71.8 4.7 71.9 4.6 C 72 4.5 72.1 4.4 72.1 4.3 C 72.1 4.3 72.1 4.2 72.1 4.2 C 72.1 4.1 72 4 71.9 3.9 C 71.8 3.8 71.5 3.7 71.1 3.6 C 70.8 3.5 70.6 3.5 70.4 3.4 C 70.2 3.3 70.1 3.3 69.9 3.1 C 69.8 3 69.6 2.9 69.6 2.7 C 69.5 2.6 69.5 2.4 69.5 2.1 C 69.5 2.1 69.5 2.1 69.5 2.1 C 69.5 1.7 69.6 1.3 69.9 1 C 70.3 0.8 70.7 0.6 71.2 0.6 C 71.9 0.6 72.5 0.8 73 1.3 C 73 1.3 72.4 2.1 72.4 2.1 C 72 1.7 71.5 1.6 71.2 1.6 C 71 1.6 70.8 1.6 70.7 1.7 C 70.6 1.8 70.5 1.9 70.5 2 C 70.5 2 70.5 2 70.5 2 C 70.5 2.2 70.6 2.3 70.7 2.4 C 70.9 2.5 71.2 2.6 71.6 2.7 C 72.1 2.8 72.5 3 72.8 3.2 C 73 3.4 73.1 3.7 73.1 4.1 C 73.1 4.1 73.1 4.2 73.1 4.2 C 73.1 4.6 73 5 72.7 5.3 C 72.3 5.5 71.9 5.7 71.3 5.7 Z M 74.1 5.6 L 74.1 0.7 L 75.2 0.7 L 75.2 2.6 L 77.2 2.6 L 77.2 0.7 L 78.2 0.7 L 78.2 5.6 L 77.2 5.6 L 77.2 3.6 L 75.2 3.6 L 75.2 5.6 L 74.1 5.6 Z " stroke="none" fill="#000"/>  </g></svg>