<?xml version="1.0" standalone="no"?><!DOCTYPE svg PUBLIC "-//W3C//DTD SVG 1.1//EN" "http://www.w3.org/Graphics/SVG/1.1/DTD/svg11.dtd"><svg xmlns="http://www.w3.org/2000/svg" version="1.1" width="16.2px" height="12.4px" viewBox="0 -1 16.2 12.4" style="top:-1px"><desc/><defs/><g id="Polygon370158"><path d="m2.2 7.6c-.8 0-1.4-.3-1.8-.9l.3-.4c.4.5.9.8 1.5.8c.3 0 .5-.1.7-.3c.3-.2.4-.4.4-.7c0-.3-.2-.5-.4-.7c-.3-.2-.6-.3-1-.3c-.02.05-.3 0-.3 0l-.1-.3L3 3.1H.6v-.5h3.1v.4L2.2 4.7c.5 0 .9.2 1.2.4c.3.2.4.5.4 1c0 .4-.1.8-.5 1c-.3.3-.7.5-1.1.5zm5.1-.1V6.3H4.7l-.1-.4l2.8-3.4h.4v3.4h.8v.4h-.8v1.2h-.5zm-2-1.6h2V3.3l-2 2.6zm4 1.6v-.4s1.8-1.62 1.8-1.6c.4-.4.7-.6.8-.9c.1-.2.2-.4.2-.7c0-.2-.1-.5-.3-.6c-.2-.2-.4-.3-.7-.3c-.2 0-.5.1-.7.2c-.2.1-.4.4-.6.6l-.4-.2c.3-.4.5-.7.8-.8c.2-.2.6-.3 1-.3c.4 0 .8.1 1.1.4c.3.3.4.6.4 1c0 .3-.1.7-.3.9c-.2.3-.5.6-.9 1c-.04.01-1.4 1.2-1.4 1.2h2.6v.5H9.3z" stroke="none" fill="#000"/></g></svg>