<?xml version="1.0" standalone="no"?><!DOCTYPE svg PUBLIC "-//W3C//DTD SVG 1.1//EN" "http://www.w3.org/Graphics/SVG/1.1/DTD/svg11.dtd"><svg xmlns="http://www.w3.org/2000/svg" version="1.1" width="232.4px" height="226.6px" viewBox="0 -4 232.4 226.6" style="top:-4px"><desc>ZELL KLER k ve i levsel 220°C/428°F’ye kadar s ya dayan kl Uzun m rl kalite Danimarka retimi Bula k makinesi...</desc><defs/><g id="Polygon369634"><path d="m3 114.8c0 .3-.1.5-.3.7c-.3.2-.5.3-.8.3c-.3 0-.5-.1-.7-.3c-.2-.2-.3-.4-.3-.7c0-.3.1-.6.3-.8c.2-.2.4-.3.7-.3c.3 0 .5.1.7.3c.3.2.4.5.4.8c-.04-.02 0 0 0 0c0 0-.04-.01 0 0zm10.8 2.9c-.8 0-1.4-.3-2-.9l.4-.4c.5.5 1 .7 1.6.7c.4 0 .7-.1.9-.3c.3-.3.4-.6.4-.9c0-.4-.1-.7-.4-.9c-.2-.2-.6-.3-1-.3c-.4 0-.8.1-1.1.3c-.05.01-.5-.3-.5-.3l.2-2.7h3.2v.6h-2.7s-.08 1.78-.1 1.8c.4-.2.7-.3 1.1-.3c.6 0 1 .2 1.4.5c.4.3.6.7.6 1.2v.1c0 .5-.2.9-.6 1.3c-.4.3-.8.5-1.4.5zm7.3-.8l1.3-3.4h.7s-1.76 4.24-1.8 4.2c-.1.5-.3.8-.5.9c-.3.2-.5.3-.8.3c-.3 0-.6-.1-.9-.2l.2-.5c.2.1.4.2.6.2c.2 0 .4-.1.5-.2c.1-.1.3-.3.4-.6l-1.9-4.1h.7l1.5 3.4zm3 .7v-4.1h.6v4.1h-.6zm2.1 0v-5.8h.6v5.8h-.6zm7.9.7c-.4.4-.9.6-1.6.6c-.7 0-1.3-.2-1.9-.6l.3-.5c.5.4 1 .6 1.6.6c.5 0 .8-.2 1.1-.4c.3-.3.4-.6.4-1.1v-.5c-.5.6-1 .9-1.6.9c-.6 0-1-.2-1.4-.6c-.4-.3-.6-.8-.6-1.4c0-.6.2-1 .6-1.4c.4-.3.8-.5 1.4-.5c.6 0 1.2.3 1.6.8c-.02.01 0-.7 0-.7h.6s-.01 3.38 0 3.4c0 .6-.2 1.1-.5 1.4zm-1.6-1.6c.4 0 .7-.1 1-.4c.4-.2.5-.6.5-1c0-.4-.1-.7-.4-1c-.4-.2-.7-.4-1.1-.4c-.4 0-.8.1-1 .4c-.3.3-.4.6-.4 1c0 .4.1.8.4 1c.3.3.6.4 1 .4zm6.2.3c-.4.5-.9.7-1.5.7c-.4 0-.8-.1-1.1-.4c-.3-.2-.4-.5-.4-.9c0-.4.1-.8.4-1c.4-.2.8-.4 1.3-.4c.4 0 .9.1 1.3.2v-.1c0-.4-.1-.7-.3-.9c-.2-.2-.5-.2-.9-.2c-.5 0-.9.1-1.3.3l-.2-.5c.5-.3 1-.4 1.5-.4c.6 0 1.1.2 1.4.5c.2.2.4.6.4 1.2c-.01-.03 0 2.5 0 2.5h-.6v-.6s0-.02 0 0zm-1.4.2c.4 0 .7-.1 1-.3c.3-.2.4-.5.4-.8v-.4c-.4-.1-.8-.2-1.2-.2c-.4 0-.7.1-.9.2c-.2.2-.3.4-.3.7c0 .2.1.4.3.6c.2.1.4.2.7.2zm3.3.4v-4.1h.6s.02 1.04 0 1c.2-.3.4-.6.7-.8c.3-.2.6-.3 1-.3v.7s-.04-.04 0 0c-.5 0-.9.1-1.2.5c-.3.3-.5.7-.5 1.4c.02-.05 0 1.6 0 1.6h-.6zm5.8-.6c-.4.5-.9.7-1.5.7c-.4 0-.8-.1-1.1-.4c-.3-.2-.5-.5-.5-.9c0-.4.2-.8.5-1c.3-.2.8-.4 1.3-.4c.4 0 .8.1 1.3.2v-.1c0-.4-.1-.7-.4-.9c-.2-.2-.5-.2-.9-.2c-.4 0-.8.1-1.2.3l-.2-.5c.5-.3 1-.4 1.5-.4c.6 0 1 .2 1.3.5c.3.2.5.6.5 1.2c-.04-.03 0 2.5 0 2.5h-.6v-.6s-.03-.02 0 0zm-1.4.2c.4 0 .7-.1 1-.3c.2-.2.4-.5.4-.8v-.4c-.4-.1-.8-.2-1.2-.2c-.4 0-.7.1-.9.2c-.2.2-.3.4-.3.7c0 .2.1.4.3.6c.2.1.4.2.7.2zm3.3.4v-4.1h.6v.7c.3-.6.8-.8 1.4-.8c.5 0 .9.1 1.2.4c.2.3.4.7.4 1.2v2.6h-.6s-.03-2.42 0-2.4c0-.4-.1-.7-.3-.9c-.2-.3-.5-.4-.9-.4c-.3 0-.6.2-.9.4c-.2.2-.3.5-.3.9v2.4h-.6zm7-.1c-.2.1-.4.2-.7.2c-.4 0-.7-.1-.9-.3c-.2-.2-.3-.5-.3-.9c.02 0 0-2.5 0-2.5h-.6v-.5h.6v-1.3h.6v1.3h1.3v.5H54s.03 2.42 0 2.4c0 .5.3.7.7.7c.2 0 .4 0 .6-.1c.03-.03 0 .5 0 .5c0 0 .03 0 0 0zm1.1-4.9v-.7h.8v.7h-.8zm.1 5v-4.1h.6v4.1h-.6z" stroke="none" fill="#000"/></g><g id="Polygon369633"><path d="m3 98.8c0 .3-.1.5-.3.7c-.3.2-.5.3-.8.3c-.3 0-.5-.1-.7-.3c-.2-.2-.3-.4-.3-.7c0-.3.1-.6.3-.8c.2-.2.4-.3.7-.3c.3 0 .5.1.7.3c.3.2.4.5.4.8c-.04-.02 0 0 0 0c0 0-.04-.01 0 0zm9.1 2.8V96h2.4c.6 0 1.1.2 1.5.5c.2.2.3.5.3.9c0 .6-.3 1-.8 1.3c.8.2 1.2.7 1.2 1.4c0 .4-.2.8-.6 1.1c-.4.3-.9.4-1.5.4h-2.5zm3.6-4.1c0-.3-.1-.5-.3-.7c-.2-.2-.5-.2-.9-.2c-.04-.03-1.7 0-1.7 0v1.9h1.6c.4 0 .7-.1 1-.3c.2-.1.3-.4.3-.7zm.3 2.5c0-.3-.1-.5-.4-.7c-.2-.2-.6-.2-1.1-.2c.02-.04-1.7 0-1.7 0v1.9s1.83.03 1.8 0c.5 0 .8-.1 1-.2c.3-.2.4-.5.4-.8zm4.7.9c-.3.5-.8.8-1.4.8c-.5 0-.9-.2-1.1-.5c-.3-.3-.5-.7-.5-1.2c.04.03 0-2.5 0-2.5h.7s-.05 2.38 0 2.4c0 .4.1.7.3.9c.2.2.4.3.8.3c.4 0 .7-.1.9-.3c.2-.3.3-.6.3-1c.04.03 0-2.3 0-2.3h.6v4.1h-.6v-.7s.04-.02 0 0zm2.1.7v-5.8h.6v5.8h-.6zm4.8-.6c-.4.5-.9.7-1.5.7c-.4 0-.8-.1-1.1-.4c-.3-.2-.5-.5-.5-.9c0-.4.2-.8.5-1c.3-.2.8-.4 1.3-.4c.4 0 .8.1 1.3.2v-.1c0-.4-.1-.7-.4-.9c-.2-.2-.5-.2-.9-.2c-.4 0-.8.1-1.2.3l-.2-.5c.5-.3 1-.4 1.5-.4c.6 0 1 .2 1.3.5c.3.2.5.6.5 1.2c-.05-.03 0 2.5 0 2.5h-.6v-.6s-.04-.02 0 0zm-1.4.2c.4 0 .7-.1 1-.3c.2-.2.4-.5.4-.8v-.4c-.4-.1-.9-.2-1.2-.2c-.4 0-.7.1-.9.2c-.2.2-.4.4-.4.7c0 .2.1.4.4.6c.2.1.4.2.7.2zm4.3 1.6l-.6-.2s.58-.94.6-.9c-.5-.1-1-.3-1.4-.6l.3-.5c.5.4 1 .6 1.5.6c.2 0 .4-.1.6-.2c.1-.1.2-.3.2-.5c0-.2-.1-.3-.2-.4c-.2-.1-.5-.2-.8-.3c-.2-.1-.3-.1-.3-.1c-.1-.1-.2-.1-.3-.2c-.2 0-.3-.1-.3-.1c-.1-.1-.2-.1-.3-.2c0-.1-.1-.2-.1-.3c-.1-.1-.1-.2-.1-.3c0-.4.2-.7.4-.9c.3-.2.6-.3 1-.3c.6 0 1.1.1 1.5.4l-.3.5c-.4-.3-.8-.4-1.2-.4c-.2 0-.4.1-.6.2c-.1.1-.2.2-.2.4c0 .1 0 .2.1.2c0 .1.1.2.1.2c.1 0 .2.1.3.1c.1.1.2.1.3.1c0 .1.1.1.3.1c.1.1.3.1.4.2c.1 0 .2.1.3.1c.1.1.3.2.3.2c.1.1.2.2.2.3c.1.1.1.3.1.4c0 .4-.1.7-.4.9c-.2.2-.5.3-.9.4c-.01-.03-.5 1.1-.5 1.1zm3-1.2v-4.1h.6v4.1h-.6zm2.1 0v-5.8h.6v4l2.2-2.3h.8l-1.8 1.7l1.8 2.4h-.7L37 99.7l-.8.8v1.1h-.6zm6.9 0v-4.1h.6s.02.66 0 .7c.2-.3.4-.5.6-.6c.2-.2.4-.2.8-.2c.6 0 1 .3 1.3.8c.4-.5.8-.8 1.4-.8c.5 0 .9.1 1.2.4c.2.3.4.7.4 1.2c-.02.04 0 2.6 0 2.6h-.6s-.04-2.42 0-2.4c0-.4-.1-.7-.3-.9c-.2-.3-.5-.4-.8-.4c-.3 0-.6.2-.8.4c-.2.2-.4.5-.4.9c.05.02 0 2.4 0 2.4h-.6s.04-2.43 0-2.4c0-.4-.1-.7-.2-.9c-.2-.3-.5-.4-.8-.4c-.4 0-.6.2-.9.4c-.2.2-.3.6-.3.9c.02.04 0 2.4 0 2.4h-.6zm10.3-.6c-.3.5-.8.7-1.5.7c-.4 0-.8-.1-1.1-.4c-.3-.2-.4-.5-.4-.9c0-.4.1-.8.5-1c.3-.2.7-.4 1.2-.4c.5 0 .9.1 1.3.2v-.1c0-.4-.1-.7-.3-.9c-.2-.2-.5-.2-.9-.2c-.4 0-.8.1-1.3.3l-.2-.5c.5-.3 1-.4 1.5-.4c.6 0 1.1.2 1.4.5c.3.2.4.6.4 1.2c.01-.03 0 2.5 0 2.5h-.6v-.6s.02-.02 0 0zm-1.4.2c.4 0 .8-.1 1-.3c.3-.2.4-.5.4-.8v-.4c-.4-.1-.8-.2-1.2-.2c-.4 0-.7.1-.9.2c-.2.2-.3.4-.3.7c0 .2.1.4.3.6c.2.1.5.2.7.2zm3.3.4v-5.8h.6v4l2.3-2.3h.7l-1.7 1.7l1.8 2.4h-.7l-1.5-1.9l-.9.8v1.1h-.6zm4.6-5v-.7h.7v.7h-.7zm0 5v-4.1h.6v4.1h-.6zm2.1 0v-4.1h.6v.7c.3-.6.8-.8 1.4-.8c.5 0 .9.1 1.2.4c.3.3.4.7.4 1.2v2.6h-.6s-.02-2.42 0-2.4c0-.4-.1-.7-.3-.9c-.2-.3-.5-.4-.9-.4c-.3 0-.6.2-.9.4c-.2.2-.3.5-.3.9v2.4h-.6zm8.4-.7c-.4.5-1 .8-1.7.8c-.6 0-1.1-.2-1.5-.6c-.4-.4-.6-.9-.6-1.6c0-.6.2-1.1.6-1.5c.4-.4.9-.6 1.4-.6c.6 0 1.1.2 1.4.6c.4.4.6.9.6 1.6v.2h-3.3c0 .4.2.7.4 1c.3.2.7.4 1 .4c.5 0 1-.2 1.3-.6c.03-.02.4.3.4.3c0 0 .02.02 0 0zm-3.1-1.6h2.6c0-.4-.1-.7-.4-1c-.2-.3-.5-.4-.9-.4c-.3 0-.6.1-.9.4c-.2.3-.4.6-.4 1zm5.7 2.4c-.6 0-1.2-.2-1.7-.6l.3-.5c.5.4.9.6 1.4.6c.3 0 .5-.1.7-.2c.1-.1.2-.3.2-.5c0-.2-.1-.3-.3-.4c-.1-.1-.4-.2-.7-.3c-.2-.1-.3-.1-.4-.1c0-.1-.1-.1-.3-.2c-.1 0-.2-.1-.3-.1c0-.1-.1-.1-.2-.2c-.1-.1-.1-.2-.2-.3v-.3c0-.4.1-.7.4-.9c.3-.2.6-.3 1-.3c.5 0 1 .1 1.5.4l-.3.5c-.4-.3-.8-.4-1.2-.4c-.3 0-.4.1-.6.2c-.1.1-.2.2-.2.4c0 .1 0 .2.1.2c0 .1 0 .2.1.2c.1 0 .1.1.2.1c.2.1.3.1.3.1c.1.1.2.1.4.1c.1.1.2.1.3.2c.1 0 .3.1.4.1c.1.1.2.2.3.2c.1.1.1.2.2.3c.1.1.1.3.1.4c0 .4-.2.7-.4.9c-.3.3-.7.4-1.1.4zm2.6-5.1v-.7h.7v.7h-.7zm.1 5v-4.1h.6v4.1h-.6zm2 0v-4.1h.6s.05.68 0 .7c.4-.6.9-.8 1.5-.8c.5 0 .8.1 1.1.4c.3.3.4.7.4 1.2c.05.03 0 2.6 0 2.6h-.6s.03-2.42 0-2.4c0-.4-.1-.7-.3-.9c-.2-.3-.5-.4-.8-.4c-.4 0-.7.2-.9.4c-.2.2-.4.5-.4.9c.05.03 0 2.4 0 2.4h-.6zm8.3-.8c-.4.6-1 .9-1.6.9c-.5 0-1-.2-1.4-.6c-.4-.4-.6-.9-.6-1.6c0-.6.2-1.1.6-1.5c.4-.4.9-.6 1.4-.6c.6 0 1.2.3 1.6.9c-.02-.04 0-2.5 0-2.5h.6v5.8h-.6v-.8s-.02-.03 0 0zm-1.5.3c.4 0 .8-.1 1.1-.4c.3-.3.4-.7.4-1.2c0-.4-.1-.8-.4-1.1c-.3-.3-.7-.5-1.1-.5c-.4 0-.8.2-1 .5c-.3.2-.5.6-.5 1.1c0 .5.2.9.5 1.2c.2.3.6.4 1 .4zm7-.2c-.5.5-1 .8-1.7.8c-.6 0-1.1-.2-1.5-.6c-.4-.4-.6-.9-.6-1.6c0-.6.2-1.1.6-1.5c.4-.4.8-.6 1.4-.6c.6 0 1.1.2 1.4.6c.4.4.5.9.5 1.6v.2h-3.3c.1.4.2.7.5 1c.3.2.6.4 1 .4c.5 0 .9-.2 1.3-.6c0-.02.4.3.4.3c0 0-.02.02 0 0zm-3.2-1.6h2.7c0-.4-.2-.7-.4-1c-.2-.3-.5-.4-.9-.4c-.4 0-.7.1-.9.4c-.3.3-.4.6-.5 1zm8.6 1.6l1.3-3.4h.7s-1.78 4.24-1.8 4.2c-.1.5-.3.8-.6.9c-.2.2-.4.3-.8.3c-.3 0-.5-.1-.8-.2l.2-.5c.2.1.4.2.6.2c.2 0 .4-.1.5-.2c.1-.1.2-.3.4-.6c-.03-.02-1.9-4.1-1.9-4.1h.7l1.5 3.4zm3 .7v-4.1h.6v4.1h-.6zm2 0v-5.8h.7v4l2.2-2.3h.8l-1.8 1.7l1.8 2.4h-.7l-1.5-1.9l-.8.8v1.1h-.7zm7.2-.6c-.3.5-.8.7-1.5.7c-.4 0-.7-.1-1-.4c-.4-.2-.5-.5-.5-.9c0-.4.2-.8.5-1c.3-.2.7-.4 1.3-.4c.4 0 .8.1 1.2.2v-.1c0-.4-.1-.7-.3-.9c-.2-.2-.5-.2-.9-.2c-.4 0-.8.1-1.3.3l-.1-.5c.4-.3 1-.4 1.5-.4c.6 0 1 .2 1.3.5c.3.2.4.6.4 1.2c.03-.03 0 2.5 0 2.5h-.6v-.6s.04-.02 0 0zm-1.3.2c.3 0 .7-.1.9-.3c.3-.2.4-.5.4-.8v-.4c-.4-.1-.8-.2-1.2-.2c-.4 0-.7.1-.9.2c-.2.2-.3.4-.3.7c0 .2.1.4.3.6c.2.1.5.2.8.2zm3.2.4v-4.1h.7s-.04.68 0 .7c.3-.6.8-.8 1.4-.8c.5 0 .8.1 1.1.4c.3.3.5.7.5 1.2c-.04.03 0 2.6 0 2.6h-.7s.04-2.42 0-2.4c0-.4-.1-.7-.3-.9c-.2-.3-.4-.4-.8-.4c-.4 0-.7.2-.9.4c-.2.2-.3.5-.3.9c-.04.03 0 2.4 0 2.4h-.7zm7.7-.6c-.4.5-.9.7-1.5.7c-.4 0-.8-.1-1.1-.4c-.3-.2-.4-.5-.4-.9c0-.4.1-.8.4-1c.4-.2.8-.4 1.3-.4c.4 0 .9.1 1.3.2v-.1c0-.4-.1-.7-.3-.9c-.2-.2-.5-.2-.9-.2c-.5 0-.9.1-1.3.3l-.2-.5c.5-.3 1-.4 1.5-.4c.6 0 1.1.2 1.4.5c.2.2.4.6.4 1.2c-.01-.03 0 2.5 0 2.5h-.6v-.6s0-.02 0 0zm-1.4.2c.4 0 .7-.1 1-.3c.3-.2.4-.5.4-.8v-.4c-.4-.1-.8-.2-1.2-.2c-.4 0-.7.1-.9.2c-.2.2-.3.4-.3.7c0 .2.1.4.3.6c.2.1.4.2.7.2zm5.5.5c-.7 0-1.2-.3-1.6-.9c.02.01 0 .8 0 .8h-.6v-5.8h.6s.02 2.5 0 2.5c.4-.6 1-.9 1.6-.9c.5 0 1 .2 1.4.6c.4.3.6.9.6 1.5c0 .7-.2 1.2-.6 1.6c-.4.4-.9.6-1.4.6zm-.1-.6c.4 0 .8-.1 1-.4c.3-.3.4-.7.4-1.2c0-.5-.1-.8-.4-1.1c-.3-.3-.6-.5-1-.5c-.4 0-.8.2-1.1.5c-.3.3-.4.7-.4 1.1c0 .5.1.9.4 1.2c.3.3.7.4 1.1.4zm3.2-4.5v-.7h.7v.7h-.7zm.1 5v-4.1h.6v4.1h-.6zm2.1 0v-5.8h.6v5.8h-.6zm2-5v-.7h.7v.7h-.7zm.1 5v-4.1h.6v4.1h-.6zm2 0v-4.1h.6s.04 1.04 0 1c.2-.3.4-.6.7-.8c.3-.2.6-.3 1-.3c.03-.01 0 .7 0 .7c0 0-.02-.04 0 0c-.5 0-.9.1-1.2.5c-.3.3-.5.7-.5 1.4c.04-.05 0 1.6 0 1.6h-.6z" stroke="none" fill="#000"/></g><g id="Polygon369632"><path d="m3 82.8c0 .3-.1.5-.3.7c-.3.2-.5.3-.8.3c-.3 0-.5-.1-.7-.3c-.2-.2-.3-.4-.3-.7c0-.3.1-.6.3-.8c.2-.2.4-.3.7-.3c.3 0 .5.1.7.3c.3.2.4.5.4.8c-.04-.02 0 0 0 0c0 0-.04-.01 0 0zm9.1 2.8V80h2c.8 0 1.6.3 2.1.8c.6.5.9 1.2.9 2c0 .8-.3 1.5-.9 2c-.5.5-1.3.8-2.1.8h-2zm2-5c-.03-.02-1.3 0-1.3 0v4.4s1.27.02 1.3 0c.7 0 1.2-.2 1.7-.6c.4-.4.6-.9.6-1.6c0-.6-.2-1.2-.6-1.6c-.5-.4-1-.6-1.7-.6zM21 85c-.4.5-.9.7-1.5.7c-.4 0-.8-.1-1.1-.4c-.3-.2-.4-.5-.4-.9c0-.4.1-.8.5-1c.3-.2.7-.4 1.2-.4c.5 0 .9.1 1.3.2v-.1c0-.4-.1-.7-.3-.9c-.2-.2-.5-.2-.9-.2c-.4 0-.9.1-1.3.3l-.2-.5c.5-.3 1-.4 1.5-.4c.6 0 1.1.2 1.4.5c.3.2.4.6.4 1.2v2.5h-.6v-.6s.01-.02 0 0zm-1.4.2c.4 0 .8-.1 1-.3c.3-.2.4-.5.4-.8v-.4c-.4-.1-.8-.2-1.2-.2c-.4 0-.7.1-.9.2c-.2.2-.3.4-.3.7c0 .2.1.4.3.6c.2.1.4.2.7.2zm3.3.4v-4.1h.6s.03.68 0 .7c.4-.6.8-.8 1.4-.8c.5 0 .9.1 1.2.4c.3.3.4.7.4 1.2c.03.03 0 2.6 0 2.6h-.6v-2.4c0-.4-.1-.7-.3-.9c-.2-.3-.5-.4-.8-.4c-.4 0-.7.2-.9.4c-.3.2-.4.5-.4.9c.03.03 0 2.4 0 2.4h-.6zm5-5v-.7h.7v.7h-.7zm0 5v-4.1h.6v4.1h-.6zm2 0v-4.1h.7s-.04.66 0 .7c.1-.3.3-.5.5-.6c.2-.2.5-.2.8-.2c.6 0 1.1.3 1.3.8c.4-.5.9-.8 1.5-.8c.5 0 .8.1 1.1.4c.3.3.4.7.4 1.2c.02.04 0 2.6 0 2.6h-.6v-2.4c0-.4-.1-.7-.3-.9c-.2-.3-.4-.4-.8-.4c-.3 0-.6.2-.8.4c-.2.2-.3.5-.3.9v2.4h-.6s-.02-2.43 0-2.4c0-.4-.1-.7-.3-.9c-.2-.3-.5-.4-.8-.4c-.3 0-.6.2-.8.4c-.2.2-.3.6-.3.9c-.04.04 0 2.4 0 2.4h-.7zm10.4-.6c-.4.5-.9.7-1.5.7c-.5 0-.8-.1-1.1-.4c-.3-.2-.5-.5-.5-.9c0-.4.2-.8.5-1c.3-.2.8-.4 1.3-.4c.4 0 .8.1 1.3.2v-.1c0-.4-.1-.7-.4-.9c-.2-.2-.5-.2-.9-.2c-.4 0-.8.1-1.2.3l-.2-.5c.5-.3 1-.4 1.5-.4c.6 0 1 .2 1.3.5c.3.2.5.6.5 1.2c-.05-.03 0 2.5 0 2.5h-.6v-.6s-.04-.02 0 0zm-1.4.2c.4 0 .7-.1 1-.3c.2-.2.4-.5.4-.8v-.4c-.4-.1-.9-.2-1.2-.2c-.4 0-.7.1-.9.2c-.3.2-.4.4-.4.7c0 .2.1.4.3.6c.2.1.5.2.8.2zm3.3.4v-4.1h.6s-.02 1.04 0 1c.1-.3.4-.6.7-.8c.3-.2.6-.3 1-.3c-.03-.01 0 .7 0 .7c0 0-.08-.04-.1 0c-.5 0-.8.1-1.2.5c-.3.3-.4.7-.4 1.4c-.02-.05 0 1.6 0 1.6h-.6zm3.2 0v-5.8h.6v4l2.3-2.3h.7l-1.7 1.7l1.8 2.4h-.8l-1.4-1.9l-.9.8v1.1h-.6zm7.2-.6c-.4.5-.9.7-1.5.7c-.4 0-.8-.1-1.1-.4c-.3-.2-.4-.5-.4-.9c0-.4.1-.8.4-1c.4-.2.8-.4 1.3-.4c.5 0 .9.1 1.3.2v-.1c0-.4-.1-.7-.3-.9c-.2-.2-.5-.2-.9-.2c-.4 0-.9.1-1.3.3l-.2-.5c.5-.3 1-.4 1.5-.4c.6 0 1.1.2 1.4.5c.3.2.4.6.4 1.2c-.01-.03 0 2.5 0 2.5h-.6v-.6s0-.02 0 0zm-1.4.2c.4 0 .7-.1 1-.3c.3-.2.4-.5.4-.8v-.4c-.4-.1-.8-.2-1.2-.2c-.4 0-.7.1-.9.2c-.2.2-.3.4-.3.7c0 .2.1.4.3.6c.2.1.4.2.7.2zm7.8-4.4v-.7h.7v.7h-.7zm-1.4 0v-.7h.7v.7h-.7zm2.2 4.1c-.3.5-.8.8-1.4.8c-.5 0-.9-.2-1.1-.5c-.3-.3-.5-.7-.5-1.2c.04.03 0-2.5 0-2.5h.7s-.04 2.38 0 2.4c0 .4.1.7.3.9c.2.2.4.3.8.3c.4 0 .7-.1.9-.3c.2-.3.3-.6.3-1c.04.03 0-2.3 0-2.3h.7v4.1h-.7v-.7s.04-.02 0 0zm2 .7v-4.1h.7s-.05 1.04 0 1c.1-.3.3-.6.6-.8c.3-.2.7-.3 1-.3c.04-.01 0 .7 0 .7c0 0-.01-.04 0 0c-.5 0-.9.1-1.2.5c-.3.3-.4.7-.4 1.4c-.05-.05 0 1.6 0 1.6h-.7zm6.6-.7c-.4.5-1 .8-1.7.8c-.6 0-1.1-.2-1.5-.6c-.4-.4-.6-.9-.6-1.6c0-.6.2-1.1.6-1.5c.4-.4.9-.6 1.4-.6c.6 0 1.1.2 1.4.6c.4.4.6.9.6 1.6c0 0 0 .1-.1.2h-3.2c0 .4.2.7.4 1c.3.2.6.4 1 .4c.5 0 .9-.2 1.3-.6c.03-.02.4.3.4.3c0 0 .01.02 0 0zm-3.1-1.6h2.6c0-.4-.1-.7-.4-1c-.2-.3-.5-.4-.9-.4c-.3 0-.6.1-.9.4c-.2.3-.4.6-.4 1zm6.5 2.2c-.3.1-.5.2-.8.2c-.3 0-.6-.1-.8-.3c-.2-.2-.3-.5-.3-.9c-.05 0 0-2.5 0-2.5h-.6v-.5h.6v-1.3h.6v1.3h1.3v.5h-1.3s-.03 2.42 0 2.4c0 .5.2.7.7.7c.2 0 .4 0 .6-.1c-.04-.03 0 .5 0 .5c0 0-.04 0 0 0zm1.1-4.9v-.7h.7v.7h-.7zm0 5v-4.1h.6v4.1h-.6zm2.1 0v-4.1h.6v.7c.2-.3.3-.5.5-.6c.2-.2.5-.2.8-.2c.6 0 1.1.3 1.3.8c.4-.5.9-.8 1.5-.8c.5 0 .9.1 1.1.4c.3.3.4.7.4 1.2c.04.04 0 2.6 0 2.6h-.6s.03-2.42 0-2.4c0-.4-.1-.7-.3-.9c-.1-.3-.4-.4-.7-.4c-.4 0-.6.2-.9.4c-.2.2-.3.5-.3.9v2.4h-.6v-2.4c0-.4-.1-.7-.3-.9c-.2-.3-.4-.4-.8-.4c-.3 0-.6.2-.8.4c-.2.2-.3.6-.3.9v2.4h-.6zm7.6-5v-.7h.7v.7h-.7zm0 5v-4.1h.6v4.1h-.6z" stroke="none" fill="#000"/></g><g id="Polygon369631"><path d="m3 66.8c0 .3-.1.5-.3.7c-.3.2-.5.3-.8.3c-.3 0-.5-.1-.7-.3c-.2-.2-.3-.4-.3-.7c0-.3.1-.6.3-.8c.2-.2.4-.3.7-.3c.3 0 .5.1.7.3c.3.2.4.5.4.8c-.04-.02 0 0 0 0c0 0-.04-.01 0 0zm11.4 2.9c-.7 0-1.3-.2-1.7-.6c-.4-.5-.7-1.1-.7-1.8c.04-.04 0-3.3 0-3.3h.7s-.03 3.22 0 3.2c0 .6.1 1.1.4 1.4c.3.3.7.5 1.3.5c.5 0 .9-.2 1.2-.5c.3-.3.5-.7.5-1.3c-.03-.04 0-3.3 0-3.3h.6v3.2c0 .8-.2 1.4-.6 1.8c-.4.5-1 .7-1.7.7zm3.5-.1v-.4l2.7-3.2H18v-.5h3.4v.4l-2.7 3.2h2.7v.5h-3.5zm7.6-.7c-.4.5-.8.8-1.4.8c-.5 0-.9-.2-1.2-.5c-.3-.3-.4-.7-.4-1.2c-.02.03 0-2.5 0-2.5h.6v2.4c0 .4.1.7.3.9c.2.2.5.3.8.3c.4 0 .7-.1.9-.3c.3-.3.4-.6.4-1c-.02.03 0-2.3 0-2.3h.6v4.1h-.6v-.7s-.02-.02 0 0zm2 .7v-4.1h.6v.7c.3-.6.8-.8 1.4-.8c.5 0 .9.1 1.2.4c.2.3.4.7.4 1.2v2.6h-.6s-.03-2.42 0-2.4c0-.4-.1-.7-.3-.9c-.2-.3-.5-.4-.9-.4c-.3 0-.6.2-.9.4c-.2.2-.3.5-.3.9v2.4h-.6zm9.5-4.8v-.7h.8v.7h-.8zm-1.4 0v-.7h.8v.7h-.8zm1.1 4.9c-.6 0-1.1-.2-1.5-.6c-.4-.5-.7-1-.7-1.5v-.1c0-.6.3-1.1.7-1.5c.4-.4.9-.6 1.5-.6c.6 0 1.1.2 1.5.6c.5.4.7.9.7 1.5c0 .6-.2 1.1-.7 1.6c-.4.4-.9.6-1.5.6zm0-.6c.4 0 .8-.1 1.1-.4c.3-.3.4-.7.4-1.1v-.1c0-.4-.1-.8-.4-1.1c-.3-.3-.7-.5-1.1-.5c-.4 0-.8.2-1.1.5c-.3.3-.4.7-.4 1.1c0 .5.1.9.4 1.2c.3.3.7.4 1.1.4zm3.3.5v-4.1h.6v.7c.2-.3.3-.5.5-.6c.2-.2.5-.2.8-.2c.6 0 1.1.3 1.4.8c.3-.5.8-.8 1.4-.8c.5 0 .9.1 1.1.4c.3.3.4.7.4 1.2c.04.04 0 2.6 0 2.6h-.6s.03-2.42 0-2.4c0-.4-.1-.7-.3-.9c-.1-.3-.4-.4-.7-.4c-.4 0-.6.2-.9.4c-.2.2-.3.5-.3.9v2.4h-.6v-2.4c0-.4-.1-.7-.3-.9c-.2-.3-.4-.4-.8-.4c-.3 0-.6.2-.8.4c-.2.2-.3.6-.3.9v2.4h-.6zm9.6-4.8v-.7h.7v.7h-.7zm-1.4 0v-.7h.7v.7h-.7zm2.3 4.1c-.3.5-.8.8-1.4.8c-.5 0-.9-.2-1.2-.5c-.3-.3-.4-.7-.4-1.2c-.01.03 0-2.5 0-2.5h.6v2.4c0 .4.1.7.3.9c.2.2.5.3.9.3c.3 0 .6-.1.8-.3c.3-.3.4-.6.4-1v-2.3h.6v4.1h-.6v-.7s-.01-.02 0 0zm2 .7v-4.1h.6v1c.2-.3.4-.6.7-.8c.3-.2.6-.3 1-.3v.7s-.06-.04-.1 0c-.4 0-.8.1-1.1.5c-.3.3-.5.7-.5 1.4v1.6h-.6zm3.3 0v-5.8h.6v5.8h-.6zm4.1-4.8v-.7h.7v.7h-.7zm-1.4 0v-.7h.7v.7h-.7zm2.3 4.1c-.4.5-.8.8-1.5.8c-.4 0-.8-.2-1.1-.5c-.3-.3-.4-.7-.4-1.2c-.04.03 0-2.5 0-2.5h.6s-.02 2.38 0 2.4c0 .4.1.7.3.9c.2.2.5.3.8.3c.4 0 .7-.1.9-.3c.2-.3.4-.6.4-1c-.04.03 0-2.3 0-2.3h.6v4.1h-.6v-.7s-.04-.02 0 0zm4.4.7v-5.8h.6v4l2.2-2.3h.8L67 67.2l1.8 2.4h-.7l-1.5-1.9l-.8.8v1.1h-.6zm7.2-.6c-.4.5-.9.7-1.5.7c-.5 0-.8-.1-1.1-.4c-.3-.2-.5-.5-.5-.9c0-.4.2-.8.5-1c.3-.2.7-.4 1.3-.4c.4 0 .8.1 1.3.2v-.1c0-.4-.2-.7-.4-.9c-.2-.2-.5-.2-.9-.2c-.4 0-.8.1-1.2.3l-.2-.5c.5-.3 1-.4 1.5-.4c.6 0 1 .2 1.3.5c.3.2.4.6.4 1.2c.05-.03 0 2.5 0 2.5h-.5v-.6s-.05-.02 0 0zm-1.4.2c.4 0 .7-.1 1-.3c.2-.2.4-.5.4-.8v-.4c-.5-.1-.9-.2-1.3-.2c-.3 0-.6.1-.8.2c-.3.2-.4.4-.4.7c0 .2.1.4.3.6c.2.1.5.2.8.2zm3.3.4v-5.8h.6v5.8h-.6zm2.1-5v-.7h.7v.7h-.7zm0 5v-4.1h.6v4.1h-.6zm4.2-.1c-.2.1-.5.2-.8.2c-.3 0-.6-.1-.8-.3c-.2-.2-.3-.5-.3-.9c-.02 0 0-2.5 0-2.5h-.6v-.5h.6v-1.3h.6v1.3h1.3v.5h-1.3v2.4c0 .5.2.7.7.7c.2 0 .4 0 .6-.1v.5s-.01 0 0 0zm4.5-.6c-.5.5-1 .8-1.7.8c-.6 0-1.1-.2-1.5-.6c-.4-.4-.6-.9-.6-1.6c0-.6.2-1.1.6-1.5c.4-.4.8-.6 1.4-.6c.6 0 1.1.2 1.4.6c.4.4.5.9.5 1.6v.2h-3.3c.1.4.2.7.5 1c.3.2.6.4 1 .4c.5 0 .9-.2 1.3-.6c.01-.02.4.3.4.3c0 0-.01.02 0 0zm-3.2-1.6h2.7c0-.4-.2-.7-.4-1c-.2-.3-.5-.4-.9-.4c-.4 0-.7.1-.9.4c-.3.3-.4.6-.5 1z" stroke="none" fill="#000"/></g><g id="Polygon369630"><path d="m3 50.8c0 .3-.1.5-.3.7c-.3.2-.5.3-.8.3c-.3 0-.5-.1-.7-.3c-.2-.2-.3-.4-.3-.7c0-.3.1-.6.3-.8c.2-.2.4-.3.7-.3c.3 0 .5.1.7.3c.3.2.4.5.4.8c-.04-.02 0 0 0 0c0 0-.04-.01 0 0zm8.7 2.8v-.5s2.05-1.78 2.1-1.8l.9-.9c.1-.3.2-.6.2-.8c0-.4-.1-.6-.3-.8c-.2-.2-.5-.3-.8-.3c-.3 0-.6.1-.8.2c-.2.2-.5.4-.7.7l-.5-.3c.3-.4.6-.7.9-.9c.3-.2.7-.3 1.1-.3c.5 0 1 .2 1.3.5c.3.3.5.6.5 1.1c0 .4-.1.8-.3 1.1c-.2.3-.6.6-1.1 1.1c-.04 0-1.5 1.3-1.5 1.3h2.9v.6h-3.9zm4.8 0v-.5s2.05-1.78 2-1.8c.5-.4.8-.7 1-.9c.1-.3.2-.6.2-.8c0-.4-.1-.6-.3-.8c-.2-.2-.5-.3-.8-.3c-.3 0-.6.1-.8.2c-.3.2-.5.4-.7.7l-.5-.3c.3-.4.6-.7.9-.9c.3-.2.7-.3 1.1-.3c.5 0 1 .2 1.3.5c.3.3.5.6.5 1.1c0 .4-.1.8-.3 1.1c-.2.3-.6.6-1.1 1.1c-.05 0-1.5 1.3-1.5 1.3h2.9v.6h-3.9zm9.6-2.8c0 .8-.2 1.5-.6 2.1c-.4.5-1 .8-1.7.8c-.7 0-1.3-.3-1.7-.8c-.5-.6-.7-1.3-.7-2.1c0-.8.2-1.5.7-2.1c.4-.5 1-.8 1.7-.8c.7 0 1.3.3 1.7.8c.4.6.6 1.3.6 2.1c.05-.02 0 0 0 0c0 0 .05 0 0 0zm-4 0c0 .6.1 1.2.5 1.6c.3.5.7.7 1.2.7c.5 0 .9-.2 1.2-.7c.3-.4.5-.9.5-1.6c0-.6-.2-1.2-.5-1.6c-.3-.5-.7-.7-1.2-.7c-.5 0-.9.2-1.3.7c-.3.4-.4.9-.4 1.6c-.03-.02 0 0 0 0c0 0-.03 0 0 0zm7.6-1.6c0 .3-.1.6-.3.8c-.3.3-.6.4-.9.4c-.4 0-.6-.1-.9-.4c-.3-.2-.4-.5-.4-.8c0-.4.1-.6.4-.9c.2-.2.5-.3.9-.3c.3 0 .6.1.9.3c.2.3.3.5.3.9c.03-.03 0 0 0 0c0 0 .03-.02 0 0zm-2 0c0 .2.1.4.2.5c.2.2.4.3.6.3c.2 0 .4-.1.5-.3c.2-.1.3-.3.3-.5c0-.2-.1-.4-.3-.6c-.1-.2-.3-.2-.5-.2c-.2 0-.4 0-.6.2c-.1.2-.2.4-.2.6c-.02-.03 0 0 0 0c0 0-.02-.02 0 0zm6 4.5c-.8 0-1.5-.3-2-.8c-.6-.6-.8-1.3-.8-2.1c0-.8.2-1.5.8-2.1c.5-.5 1.2-.8 2-.8c.5 0 .9.1 1.2.2c.3.2.7.4 1 .7l-.5.5c-.2-.3-.5-.5-.8-.6c-.3-.1-.6-.2-.9-.2c-.6 0-1.2.2-1.6.7c-.4.4-.6.9-.6 1.6c0 .7.2 1.2.6 1.6c.4.5 1 .7 1.6.7c.3 0 .7-.1.9-.2c.3-.1.6-.3.9-.6l.4.4c-.3.3-.6.6-1 .7c-.4.2-.8.3-1.2.3zm2.4.9l3.7-7.4h.6l-3.8 7.4h-.5zm6.9-1v-1.3h-2.9l-.2-.5l3.2-3.8h.5v3.7h.9v.6h-.9v1.3h-.6zm-2.3-1.9h2.3v-2.8l-2.3 2.8zm4.6 1.9v-.5s2.03-1.78 2-1.8c.5-.4.8-.7.9-.9c.2-.3.3-.6.3-.8c0-.4-.1-.6-.3-.8c-.2-.2-.5-.3-.8-.3c-.3 0-.6.1-.8.2c-.3.2-.5.4-.7.7l-.5-.3c.3-.4.6-.7.9-.9c.3-.2.6-.3 1.1-.3c.5 0 .9.2 1.3.5c.3.3.5.6.5 1.1c0 .4-.1.8-.4 1.1c-.2.3-.5.6-1.1 1.1c.04 0-1.5 1.3-1.5 1.3h3v.6h-3.9zm9-1.5c0 .5-.2.8-.6 1.1c-.4.3-.9.5-1.5.5c-.6 0-1.1-.2-1.5-.5c-.4-.3-.6-.6-.6-1.1c0-.3.1-.6.3-.8c.2-.3.5-.5.9-.6c-.7-.3-1-.7-1-1.3c0-.4.2-.8.6-1.1c.4-.2.8-.4 1.3-.4c.5 0 1 .2 1.4.4c.4.3.5.7.5 1.1c0 .6-.3 1-.9 1.3c.3.1.6.3.8.5c.2.3.3.6.3.9c.03-.03 0 0 0 0c0 0 .03-.01 0 0zm-3.4-2.6c0 .3.2.5.4.7c.3.2.6.3.9.3c.4 0 .7-.1.9-.3c.3-.2.4-.4.4-.7v-.1c0-.2-.1-.5-.4-.7c-.2-.1-.5-.2-.9-.2c-.3 0-.6.1-.9.2c-.2.2-.4.5-.4.7c.05.04 0 .1 0 .1c0 0 .05-.04 0 0zm-.1 2.6c0 .3.1.5.4.7c.2.2.6.3 1 .3c.5 0 .8-.1 1.1-.3c.3-.2.4-.4.4-.7c0-.3-.2-.6-.4-.8c-.3-.2-.7-.3-1.1-.3c-.4 0-.7.1-1 .3c-.3.2-.4.5-.4.8c-.04-.04 0 0 0 0c0 0-.04-.02 0 0zm7-2.9c0 .3-.1.6-.3.8c-.3.3-.6.4-.9.4c-.4 0-.6-.1-.9-.4c-.3-.2-.4-.5-.4-.8c0-.4.1-.6.4-.9c.2-.2.5-.3.9-.3c.3 0 .6.1.9.3c.2.3.3.5.3.9c.03-.03 0 0 0 0c0 0 .03-.02 0 0zm-2 0c0 .2.1.4.2.5c.2.2.4.3.6.3c.2 0 .4-.1.5-.3c.2-.1.3-.3.3-.5c0-.2-.1-.4-.3-.6c-.1-.2-.3-.2-.5-.2c-.2 0-.4 0-.6.2c-.1.2-.2.4-.2.6c-.01-.03 0 0 0 0c0 0-.01-.02 0 0zm3.4 4.4V48h4v.6h-3.4v2h3.1v.6h-3.1v2.4h-.6zm5.1-3.8l-.1-.3c.4-.1.6-.3.6-.7c-.04.04-.3 0-.3 0v-.8h.7v.7c0 .3-.1.6-.2.8c-.1.1-.4.2-.7.3zm3.9 3.1l1.4-3.4h.6l-1.7 4.2c-.2.5-.4.8-.6.9c-.2.2-.5.3-.8.3c-.3 0-.6-.1-.9-.2l.2-.5c.2.1.4.2.7.2c.2 0 .3-.1.5-.2c.1-.1.2-.3.3-.6c.03-.02-1.8-4.1-1.8-4.1h.6l1.5 3.4zm6.3 0c-.5.5-1.1.8-1.7.8c-.6 0-1.1-.2-1.5-.6c-.4-.4-.6-.9-.6-1.6c0-.6.2-1.1.6-1.5c.3-.4.8-.6 1.4-.6c.6 0 1 .2 1.4.6c.3.4.5.9.5 1.6v.2h-3.3c.1.4.2.7.5 1c.3.2.6.4 1 .4c.5 0 .9-.2 1.3-.6l.4.3s-.03.02 0 0zm-3.2-1.6h2.7c0-.4-.2-.7-.4-1c-.2-.3-.5-.4-.9-.4c-.4 0-.7.1-.9.4c-.3.3-.4.6-.5 1zm6.8 2.3v-5.8h.6v4l2.2-2.3h.8L80 51.2l1.8 2.4h-.8l-1.5-1.9l-.8.8v1.1h-.6zm7.2-.6c-.4.5-.9.7-1.5.7c-.4 0-.8-.1-1.1-.4c-.3-.2-.5-.5-.5-.9c0-.4.2-.8.5-1c.4-.2.8-.4 1.3-.4c.4 0 .9.1 1.3.2v-.1c0-.4-.1-.7-.3-.9c-.2-.2-.5-.2-.9-.2c-.5 0-.9.1-1.3.3l-.2-.5c.5-.3 1-.4 1.5-.4c.6 0 1.1.2 1.4.5c.2.2.4.6.4 1.2c-.02-.03 0 2.5 0 2.5h-.6v-.6s-.01-.02 0 0zm-1.4.2c.4 0 .7-.1 1-.3c.3-.2.4-.5.4-.8v-.4c-.4-.1-.8-.2-1.2-.2c-.4 0-.7.1-.9.2c-.2.2-.3.4-.3.7c0 .2.1.4.3.6c.2.1.4.2.7.2zm6.6-.4c-.4.6-.9.9-1.6.9c-.5 0-1-.2-1.4-.6c-.3-.4-.5-.9-.5-1.6c0-.6.2-1.1.5-1.5c.4-.4.9-.6 1.4-.6c.7 0 1.2.3 1.6.9c.01-.04 0-2.5 0-2.5h.6v5.8h-.6v-.8s.01-.03 0 0zm-1.5.3c.4 0 .8-.1 1.1-.4c.3-.3.4-.7.4-1.2c0-.4-.1-.8-.4-1.1c-.3-.3-.7-.5-1.1-.5c-.4 0-.7.2-1 .5c-.3.2-.4.6-.4 1.1c0 .5.1.9.4 1.2c.3.3.6.4 1 .4zm6.2-.1c-.3.5-.8.7-1.5.7c-.4 0-.7-.1-1-.4c-.4-.2-.5-.5-.5-.9c0-.4.2-.8.5-1c.3-.2.7-.4 1.3-.4c.4 0 .8.1 1.2.2v-.1c0-.4-.1-.7-.3-.9c-.2-.2-.5-.2-.9-.2c-.4 0-.8.1-1.3.3l-.1-.5c.4-.3.9-.4 1.5-.4c.6 0 1 .2 1.3.5c.3.2.4.6.4 1.2c.03-.03 0 2.5 0 2.5h-.6v-.6s.03-.02 0 0zm-1.3.2c.3 0 .7-.1.9-.3c.3-.2.4-.5.4-.8v-.4c-.4-.1-.8-.2-1.2-.2c-.4 0-.7.1-.9.2c-.2.2-.3.4-.3.7c0 .2.1.4.3.6c.2.1.5.2.8.2zm3.2.4v-4.1h.7s-.05 1.04 0 1c.1-.3.3-.6.6-.8c.3-.2.7-.3 1-.3c.04-.01 0 .7 0 .7c0 0-.01-.04 0 0c-.5 0-.9.1-1.2.5c-.3.3-.4.7-.4 1.4c-.05-.05 0 1.6 0 1.6h-.7zm5.7 0v-4.1h.6v4.1h-.6zm3.4.1c-.6 0-1.2-.2-1.7-.6l.3-.5c.5.4 1 .6 1.5.6c.2 0 .4-.1.6-.2c.2-.1.2-.3.2-.5c0-.2-.1-.3-.2-.4c-.2-.1-.5-.2-.8-.3c-.1-.1-.3-.1-.3-.1c-.1-.1-.2-.1-.3-.2c-.2 0-.3-.1-.3-.1c-.1-.1-.2-.1-.2-.2c-.1-.1-.2-.2-.2-.3c0-.1-.1-.2-.1-.3c0-.4.2-.7.4-.9c.3-.2.6-.3 1-.3c.6 0 1.1.1 1.5.4l-.2.5c-.5-.3-.9-.4-1.3-.4c-.2 0-.4.1-.6.2c-.1.1-.2.2-.2.4c0 .1.1.2.1.2c0 .1.1.2.1.2c.1 0 .2.1.3.1c.1.1.2.1.3.1c0 .1.1.1.3.1c.1.1.3.1.4.2c.1 0 .2.1.3.1c.2.1.3.2.3.2c.1.1.2.2.2.3c.1.1.1.3.1.4c0 .4-.1.7-.4.9c-.3.3-.6.4-1.1.4zm2.7-.1v-4.1h.6v4.1h-.6zm3.8-.7l1.4-3.4h.6l-1.7 4.2c-.2.5-.4.8-.6.9c-.2.2-.5.3-.8.3c-.3 0-.6-.1-.9-.2l.2-.5c.2.1.5.2.7.2c.2 0 .3-.1.5-.2c.1-.1.2-.3.3-.6c.03-.02-1.8-4.1-1.8-4.1h.6l1.5 3.4zm5.5.1c-.3.5-.8.7-1.5.7c-.4 0-.7-.1-1.1-.4c-.3-.2-.4-.5-.4-.9c0-.4.1-.8.5-1c.3-.2.7-.4 1.3-.4c.4 0 .8.1 1.2.2v-.1c0-.4-.1-.7-.3-.9c-.2-.2-.5-.2-.9-.2c-.4 0-.8.1-1.3.3l-.1-.5c.4-.3.9-.4 1.5-.4c.5 0 1 .2 1.3.5c.3.2.4.6.4 1.2c.02-.03 0 2.5 0 2.5h-.6v-.6s.03-.02 0 0zm-1.4.2c.4 0 .8-.1 1-.3c.3-.2.4-.5.4-.8v-.4c-.4-.1-.8-.2-1.2-.2c-.4 0-.7.1-.9.2c-.2.2-.3.4-.3.7c0 .2.1.4.3.6c.2.1.5.2.7.2zm9-.4c-.4.6-.9.9-1.5.9c-.6 0-1-.2-1.4-.6c-.4-.4-.6-.9-.6-1.6c0-.6.2-1.1.6-1.5c.4-.4.8-.6 1.4-.6c.6 0 1.1.3 1.5.9c.05-.04 0-2.5 0-2.5h.7v5.8h-.7v-.8s.05-.03 0 0zm-1.4.3c.4 0 .7-.1 1-.4c.3-.3.5-.7.5-1.2c0-.4-.2-.8-.5-1.1c-.3-.3-.6-.5-1-.5c-.4 0-.8.2-1.1.5c-.2.2-.4.6-.4 1.1c0 .5.2.9.4 1.2c.3.3.7.4 1.1.4zm6.2-.1c-.4.5-.9.7-1.5.7c-.4 0-.8-.1-1.1-.4c-.3-.2-.5-.5-.5-.9c0-.4.2-.8.5-1c.3-.2.8-.4 1.3-.4c.4 0 .8.1 1.3.2v-.1c0-.4-.1-.7-.4-.9c-.2-.2-.5-.2-.9-.2c-.4 0-.8.1-1.2.3l-.2-.5c.5-.3 1-.4 1.5-.4c.6 0 1 .2 1.3.5c.3.2.5.6.5 1.2c-.04-.03 0 2.5 0 2.5h-.6v-.6s-.03-.02 0 0zm-1.4.2c.4 0 .7-.1 1-.3c.2-.2.4-.5.4-.8v-.4c-.4-.1-.8-.2-1.2-.2c-.4 0-.7.1-.9.2c-.2.2-.3.4-.3.7c0 .2.1.4.3.6c.2.1.4.2.7.2zm4.9-.3l1.3-3.4h.7s-1.77 4.24-1.8 4.2c-.1.5-.3.8-.6.9c-.2.2-.4.3-.7.3c-.3 0-.6-.1-.9-.2l.2-.5c.2.1.4.2.6.2c.2 0 .4-.1.5-.2c.1-.1.3-.3.4-.6l-1.9-4.1h.7l1.5 3.4zm5.5.1c-.4.5-.9.7-1.5.7c-.4 0-.8-.1-1.1-.4c-.3-.2-.5-.5-.5-.9c0-.4.2-.8.5-1c.3-.2.8-.4 1.3-.4c.4 0 .8.1 1.3.2v-.1c0-.4-.1-.7-.4-.9c-.2-.2-.5-.2-.9-.2c-.4 0-.8.1-1.2.3l-.2-.5c.5-.3 1-.4 1.5-.4c.6 0 1 .2 1.3.5c.3.2.5.6.5 1.2c-.04-.03 0 2.5 0 2.5h-.6v-.6s-.03-.02 0 0zm-1.4.2c.4 0 .7-.1 1-.3c.2-.2.4-.5.4-.8v-.4c-.4-.1-.8-.2-1.2-.2c-.4 0-.7.1-.9.2c-.2.2-.3.4-.3.7c0 .2.1.4.3.6c.2.1.4.2.7.2zm3.3.4v-4.1h.6v.7c.3-.6.8-.8 1.4-.8c.5 0 .9.1 1.2.4c.2.3.4.7.4 1.2v2.6h-.6s-.03-2.42 0-2.4c0-.4-.1-.7-.3-.9c-.2-.3-.5-.4-.9-.4c-.3 0-.6.2-.9.4c-.2.2-.3.5-.3.9v2.4h-.6zm5 0v-4.1h.6v4.1h-.6zm2 0v-5.8h.6v4l2.3-2.3h.7l-1.7 1.7l1.8 2.4h-.8l-1.4-1.9l-.9.8v1.1h-.6zm4.6 0v-5.8h.6v5.8h-.6zm2.1 0v-4.1h.6v4.1h-.6z" stroke="none" fill="#000"/></g><g id="Polygon369629"><path d="m3 34.8c0 .3-.1.5-.3.7c-.3.2-.5.3-.8.3c-.3 0-.5-.1-.7-.3c-.2-.2-.3-.4-.3-.7c0-.3.1-.6.3-.8c.2-.2.4-.3.7-.3c.3 0 .5.1.7.3c.3.2.4.5.4.8c-.04-.02 0 0 0 0c0 0-.04-.01 0 0zm10.7 4l-.6-.2s.61-.94.6-.9c-.7-.1-1.4-.4-1.9-.9l.4-.5c.3.3.6.5.9.6c.3.1.6.2 1 .2c.3 0 .6-.1.9-.3c.2-.1.3-.4.3-.6v-.1c0-.2-.1-.4-.3-.6c-.2-.2-.6-.3-1.1-.4c-.7-.2-1.2-.4-1.5-.6c-.3-.2-.4-.6-.4-1v-.1c0-.4.2-.8.5-1c.4-.3.8-.5 1.3-.5c.4 0 .8.1 1.1.2c.3.1.6.3.9.5l-.4.5c-.5-.4-1-.6-1.6-.6c-.4 0-.6.1-.9.2c-.2.2-.3.4-.3.7c0 .3.1.5.3.7c.2.1.6.3 1.2.4c.7.1 1.1.3 1.4.6c.3.2.5.6.5 1c0 .4-.2.8-.5 1.1c-.3.3-.8.4-1.3.5c.03-.03-.5 1.1-.5 1.1zm3.5-1.2v-4.1h.6v4.1h-.6zm2.1 0v-5.8h.6v4l2.2-2.3h.8l-1.8 1.7l1.8 2.4h-.7l-1.5-1.9l-.8.8v1.1h-.6zm8.3 0l-1.8-4.1h.7l1.4 3.4l1.4-3.4h.6l-1.8 4.1h-.5zm6.6-.7c-.5.5-1.1.8-1.7.8c-.6 0-1.1-.2-1.5-.6c-.4-.4-.6-.9-.6-1.6c0-.6.2-1.1.6-1.5c.3-.4.8-.6 1.4-.6c.6 0 1 .2 1.4.6c.3.4.5.9.5 1.6v.2H31c.1.4.2.7.5 1c.3.2.6.4 1 .4c.5 0 .9-.2 1.3-.6l.4.3s-.03.02 0 0zM31 35.3h2.7c0-.4-.2-.7-.4-1c-.2-.3-.5-.4-.9-.4c-.4 0-.7.1-.9.4c-.3.3-.4.6-.5 1zm6.8-2.7v-.7h.7v.7h-.7zm.1 5v-4.1h.6v4.1h-.6zm3 1.2l-.6-.2s.61-.94.6-.9c-.5-.1-1-.3-1.3-.6l.3-.5c.4.4.9.6 1.4.6c.3 0 .5-.1.6-.2c.2-.1.3-.3.3-.5c0-.2-.1-.3-.3-.4c-.2-.1-.4-.2-.8-.3c-.1-.1-.2-.1-.3-.1c-.1-.1-.2-.1-.3-.2c-.1 0-.2-.1-.3-.1l-.2-.2c-.1-.1-.2-.2-.2-.3v-.3c0-.4.1-.7.3-.9c.3-.2.7-.3 1.1-.3c.5 0 1 .1 1.4.4l-.2.5c-.4-.3-.8-.4-1.3-.4c-.2 0-.4.1-.5.2c-.2.1-.3.2-.3.4c0 .1.1.2.1.2c.1.1.1.2.2.2c0 0 .1.1.2.1c.1.1.2.1.3.1c.1.1.2.1.3.1c.2.1.3.1.4.2c.1 0 .2.1.3.1c.2.1.3.2.4.2c0 .1.1.2.2.3v.4c0 .4-.1.7-.3.9c-.3.2-.6.3-1 .4c.03-.03-.5 1.1-.5 1.1zm3-1.2v-5.8h.7v5.8h-.7zm5.6-.7c-.5.5-1 .8-1.7.8c-.6 0-1.1-.2-1.5-.6c-.4-.4-.6-.9-.6-1.6c0-.6.2-1.1.6-1.5c.4-.4.8-.6 1.4-.6c.6 0 1.1.2 1.4.6c.4.4.5.9.5 1.6v.2h-3.2c0 .4.2.7.4 1c.3.2.6.4 1 .4c.5 0 .9-.2 1.3-.6c.01-.02.4.3.4.3c0 0 0 .02 0 0zm-3.1-1.6h2.6c0-.4-.1-.7-.4-1c-.2-.3-.5-.4-.9-.4c-.4 0-.7.1-.9.4c-.3.3-.4.6-.4 1zm5.5 2.3l-1.8-4.1h.7l1.4 3.4l1.4-3.4h.6l-1.8 4.1h-.5zm4.5.1c-.6 0-1.2-.2-1.7-.6l.3-.5c.5.4 1 .6 1.5.6c.2 0 .4-.1.6-.2c.1-.1.2-.3.2-.5c0-.2-.1-.3-.3-.4c-.1-.1-.4-.2-.7-.3c-.2-.1-.3-.1-.3-.1c-.1-.1-.2-.1-.4-.2c-.1 0-.2-.1-.3-.1c0-.1-.1-.1-.2-.2c0-.1-.1-.2-.1-.3c-.1-.1-.1-.2-.1-.3c0-.4.1-.7.4-.9c.3-.2.6-.3 1-.3c.6 0 1.1.1 1.5.4l-.3.5c-.4-.3-.8-.4-1.2-.4c-.2 0-.4.1-.6.2c-.1.1-.2.2-.2.4c0 .1 0 .2.1.2c0 .1.1.2.1.2c.1 0 .2.1.3.1c.1.1.2.1.2.1c.1.1.2.1.4.1c.1.1.3.1.4.2c.1 0 .2.1.3.1c.1.1.2.2.3.2c.1.1.2.2.2.3c.1.1.1.3.1.4c0 .4-.1.7-.4.9c-.3.3-.6.4-1.1.4zm6.2-.8c-.5.5-1.1.8-1.8.8c-.5 0-1-.2-1.4-.6c-.4-.4-.6-.9-.6-1.6c0-.6.2-1.1.5-1.5c.4-.4.9-.6 1.5-.6c.6 0 1 .2 1.4.6c.3.4.5.9.5 1.6v.2h-3.3c.1.4.2.7.5 1c.3.2.6.4 1 .4c.5 0 .9-.2 1.3-.6l.4.3s-.05.02 0 0zm-3.2-1.6h2.7c-.1-.4-.2-.7-.4-1c-.2-.3-.6-.4-.9-.4c-.4 0-.7.1-1 .4c-.2.3-.3.6-.4 1zm4.4 2.3v-5.8h.6v5.8h-.6z" stroke="none" fill="#000"/></g><g id="Polygon369628"><path d="m9.6 5.4c0 1.2-.5 2.2-1.3 3.1c-.9.8-1.9 1.2-3.2 1.2c-1.3 0-2.4-.4-3.2-1.2C1.1 7.7.6 6.6.6 5.4c0-1.2.5-2.2 1.3-3.1c.9-.8 1.9-1.2 3.2-1.2c1.3 0 2.4.4 3.2 1.2c.8.8 1.3 1.9 1.3 3.1c-.04-.02 0 0 0 0c0 0-.04 0 0 0zm-7 0c0 .7.2 1.4.7 1.9c.5.5 1.1.7 1.8.7c.7 0 1.4-.2 1.8-.7c.5-.5.7-1.1.7-1.9c0-.7-.2-1.4-.7-1.9c-.5-.5-1.1-.7-1.8-.7c-.7 0-1.4.2-1.8.7c-.5.5-.7 1.1-.7 1.9c-.03-.02 0 0 0 0c0 0-.03 0 0 0zm2.9-5v-1.5h1.8v1.5H5.5zM2.9.4v-1.5h1.8v1.5H2.9zm7.6 9.2V8.2l4.7-5.4h-4.5V1.2h6.8v1.4L12.9 8h4.6v1.6h-7zm8.8 0V1.2h6.3v1.6h-4.5v1.7h4v1.7h-4v1.8h4.6v1.6h-6.4zm8 0V1.2h1.9v6.7h4.2v1.7h-6.1zm7.5 0V1.2h1.8v6.7h4.2v1.7h-6zm7.5 0V1.2h1.8v8.4h-1.8zm0-9.1V-1h1.8v1.5h-1.8zm3.9 9.1V1.2h1.9v3.7l3.3-3.7h2.3l-3.4 3.6l3.6 4.8h-2.3L49 6l-.9 1v2.6h-1.9zm8.8 0V1.2h1.8v6.7h4.2v1.7h-6zm7.4 0V1.2h6.3v1.6h-4.5v1.7h4v1.7h-4v1.8h4.6v1.6h-6.4zm8 0V1.2h3.9c1 0 1.9.3 2.4.9c.5.4.7 1.1.7 1.9c0 1.3-.6 2.2-1.8 2.6c.05 0 2.1 3 2.1 3h-2.2l-1.8-2.7h-1.4v2.7h-1.9zm1.9-4.3s1.86-.02 1.9 0c.4 0 .8-.1 1-.3c.3-.3.4-.5.4-.9c0-.4-.2-.7-.4-.9c-.3-.2-.6-.3-1.1-.3c.02-.03-1.8 0-1.8 0v2.4z" stroke="none" fill="#000"/></g></svg>