<?xml version="1.0" standalone="no"?><!DOCTYPE svg PUBLIC "-//W3C//DTD SVG 1.1//EN" "http://www.w3.org/Graphics/SVG/1.1/DTD/svg11.dtd"><svg xmlns="http://www.w3.org/2000/svg" version="1.1" width="428px" height="132px" viewBox="0 -18 428 132" style="top:-18px"><desc>Elstra</desc><defs/><g id="Polygon363676"><path d="m6.7 64v-56H49v11h-30v11.3h26.4v11H19V53h30.4v11H6.7zm52.9 0V5.6h12.2V64H59.6zm38.6.8c-6.7 0-12.8-2.2-18.4-6.5l5.2-8c4.7 3.4 9.2 5.1 13.6 5.1c3.4 0 5.1-1 5.1-3.2v-.1c0-.4-.1-.7-.2-1.1c-.2-.3-.4-.6-.8-.8c-.4-.2-.7-.5-1-.7c-.3-.2-.8-.4-1.5-.6c-.6-.2-1.1-.4-1.6-.6c-.4-.1-1-.3-1.8-.6c-.9-.2-1.5-.4-2-.6c-1.8-.5-3.3-1-4.6-1.6c-1.3-.6-2.6-1.3-4-2.3c-1.4-1-2.4-2.2-3.1-3.7c-.7-1.5-1.1-3.3-1.1-5.3v-.1c0-4.2 1.5-7.6 4.5-10c3-2.4 6.7-3.6 11.2-3.6c5.6 0 11 1.6 16 4.9l-4.7 8.4c-4.5-2.6-8.4-4-11.6-4c-1.4 0-2.5.3-3.3.9c-.8.5-1.1 1.2-1.1 2.1v.2c0 1 .7 1.9 2.2 2.6c1.4.7 3.6 1.6 6.5 2.5c1.8.6 3.3 1.2 4.6 1.7c1.3.6 2.6 1.4 4 2.4c1.4 1 2.5 2.2 3.2 3.6c.8 1.5 1.1 3.1 1.1 5v.2c0 4.5-1.5 8-4.5 10.3c-3 2.3-7 3.5-11.9 3.5zm48.4-2.6c-2.7 1.7-5.9 2.5-9.6 2.5c-4 0-7-1-9.2-2.9c-2.2-1.9-3.2-5.3-3.2-10c-.04.04 0-20.3 0-20.3h-5.2V21.1h5.2V10.2h12.1v10.9h10.1v10.4h-10.1s.02 18.34 0 18.3c0 2.8 1.3 4.2 3.9 4.2c2.2 0 4.2-.5 6-1.5c.04-.02 0 9.7 0 9.7c0 0 .04.04 0 0zm9.2 1.8V21.1h12.1s.02 8.66 0 8.7c2.8-6.6 7.4-9.7 13.7-9.5V33s-.64.04-.6 0c-4.2 0-7.4 1.3-9.7 3.8c-2.2 2.5-3.4 6.3-3.4 11.4c.02-.04 0 15.8 0 15.8h-12.1zm56.5-4.6c-3.2 3.6-7.6 5.4-12.9 5.4c-4.3 0-7.8-1.2-10.6-3.5c-2.8-2.3-4.2-5.5-4.2-9.6v-.2c0-4.5 1.6-7.9 4.7-10.2c3.1-2.3 7.3-3.5 12.6-3.5c3.5 0 7 .6 10.5 1.8v-.7c0-5.2-3.1-7.9-9.2-7.9c-3.9 0-7.8.8-11.8 2.4l-3.1-9.3c5.4-2.3 11-3.5 16.7-3.5c6.4 0 11.2 1.6 14.4 4.8c3.1 3.1 4.7 7.7 4.7 13.7c-.02.02 0 24.9 0 24.9h-11.8v-4.6s.02-.04 0 0zm-9.3-3c2.9 0 5.2-.7 7-2.1c1.7-1.4 2.6-3.2 2.6-5.4v-2.2c-2.4-1-5-1.6-7.8-1.6c-2.6 0-4.7.5-6.2 1.5c-1.5 1.1-2.2 2.5-2.2 4.4v.2c0 1.6.6 2.9 1.8 3.8c1.3.9 2.9 1.4 4.8 1.4z" stroke="none" fill="#fff"/></g></svg>