<?xml version="1.0" standalone="no"?><!DOCTYPE svg PUBLIC "-//W3C//DTD SVG 1.1//EN" "http://www.w3.org/Graphics/SVG/1.1/DTD/svg11.dtd"><svg xmlns="http://www.w3.org/2000/svg" version="1.1" width="318.4px" height="63.6px" viewBox="0 -6 318.4 63.6" style="top:-6px"><desc>– neredeysen orada</desc><defs/><g id="Polygon361607"><path d="m26.1 15.1l.5-2.2h11.2l-.6 2.2H26.1zm21.8 7.3l3.9-14.5h2.1s-.58 2.38-.6 2.4c1.6-1.8 3.3-2.7 5.1-2.7c1.4 0 2.5.4 3.3 1.2c.8.8 1.2 1.9 1.2 3.3c0 .6-.1 1.4-.3 2.2c.01.04-2.1 8.1-2.1 8.1h-2.2l2.2-8.2c.1-.6.2-1.1.2-1.6c0-1-.3-1.7-.8-2.3c-.6-.5-1.4-.8-2.4-.8c-1.1 0-2.2.5-3.2 1.4c-1 .8-1.7 2-2 3.3c-.05.02-2.2 8.2-2.2 8.2h-2.2zM80 13.2c0 .8-.2 1.8-.5 2.7H68.2c-.1.1-.1.3-.1.6c0 1.3.4 2.4 1.2 3.2c.8.8 1.8 1.2 3.1 1.2c1.7 0 3.2-.6 4.6-1.7l1.1 1.4c-1.7 1.4-3.7 2.1-5.9 2.1c-1.8 0-3.3-.5-4.5-1.7c-1.1-1.1-1.7-2.6-1.7-4.4c0-2.5.9-4.7 2.7-6.5c1.6-1.7 3.5-2.5 5.7-2.5c1.8 0 3.1.5 4.1 1.6c1 1.1 1.5 2.4 1.5 4zm-5.7-3.8c-1.5 0-2.8.6-4 1.8c-.9.8-1.5 1.8-1.9 3.1h9.4c.1-.3.1-.7.1-1.1c0-1.1-.3-2-.9-2.7c-.6-.7-1.5-1.1-2.7-1.1zm7.3 13l3.9-14.5h2.1s-.96 3.8-1 3.8c2-2.8 4.3-4.2 6.9-4c.03-.03-.6 2.3-.6 2.3h-.1c-1.7 0-3.2.6-4.6 1.8c-1.4 1.1-2.3 2.8-2.9 4.9c-.01-.01-1.5 5.7-1.5 5.7h-2.2zm26-9.2c0 .8-.2 1.8-.5 2.7H95.8c-.1.1-.1.3-.1.6c0 1.3.4 2.4 1.2 3.2c.8.8 1.8 1.2 3.1 1.2c1.7 0 3.2-.6 4.6-1.7l1.1 1.4c-1.7 1.4-3.7 2.1-5.8 2.1c-1.9 0-3.4-.5-4.6-1.7c-1.1-1.1-1.7-2.6-1.7-4.4c0-2.5.9-4.7 2.7-6.5c1.6-1.7 3.5-2.5 5.7-2.5c1.8 0 3.1.5 4.1 1.6c1 1.1 1.5 2.4 1.5 4zm-5.7-3.8c-1.5 0-2.8.6-4 1.8c-.9.8-1.5 1.8-1.9 3.1h9.4c.1-.3.1-.7.1-1.1c0-1.1-.3-2-.9-2.7c-.6-.7-1.5-1.1-2.7-1.1zm18.8 13l.7-2.5c-1.7 1.9-3.5 2.8-5.5 2.8c-1.7 0-3-.5-4.1-1.7c-1.1-1.1-1.6-2.6-1.6-4.4c0-2.6.9-4.8 2.6-6.6c1.6-1.6 3.4-2.4 5.5-2.4c2.6 0 4.4 1.2 5.4 3.6l2.5-9.2h2.1l-5.4 20.4h-2.2zm-4.2-1.6c1.6 0 3-.6 4.3-1.9c1.4-1.4 2.2-3.1 2.2-4.9c0-1.3-.5-2.4-1.3-3.2c-.8-.9-1.9-1.3-3.2-1.3c-1.6 0-2.9.6-4 1.7c-1.4 1.4-2.1 3.1-2.1 5.2c0 1.4.4 2.4 1.1 3.2c.8.8 1.8 1.2 3 1.2zm26.1-7.6c0 .8-.2 1.8-.5 2.7h-11.4v.6c0 1.3.4 2.4 1.2 3.2c.7.8 1.8 1.2 3.1 1.2c1.6 0 3.2-.6 4.6-1.7l1 1.4c-1.6 1.4-3.6 2.1-5.8 2.1c-1.8 0-3.4-.5-4.5-1.7c-1.2-1.1-1.7-2.6-1.7-4.4c0-2.5.9-4.7 2.7-6.5c1.6-1.7 3.5-2.5 5.7-2.5c1.7 0 3.1.5 4.1 1.6c1 1.1 1.5 2.4 1.5 4zm-5.7-3.8c-1.5 0-2.8.6-4.1 1.8c-.8.8-1.4 1.8-1.8 3.1h9.3c.1-.3.2-.7.2-1.1c0-1.1-.3-2-.9-2.7c-.7-.7-1.6-1.1-2.7-1.1zm11.5 13c-.02 0-2.7-14.5-2.7-14.5h2.3l2 12.1l7.8-12.1h2.4l-9.9 15c-1 1.5-1.9 2.5-2.9 3.1c-.9.7-1.9 1-3 1c-1.2 0-2.2-.4-3.2-1l1.2-1.6c.6.5 1.4.7 2.2.7c.6 0 1.2-.2 1.8-.6c.6-.4 1.3-1.1 2-2.1zm16.5.3c-2.5 0-4.6-.8-6.2-2.5l1.4-1.4c1.4 1.4 3.1 2.1 5 2.1c.9 0 1.6-.2 2.2-.7c.7-.4 1-1 1-1.7c0-.5-.2-.9-.6-1.3c-.4-.4-1.2-.8-2.2-1.2c-1.4-.5-2.4-1.1-3.1-1.7c-.6-.5-.9-1.3-.9-2.2c0-1.3.5-2.4 1.5-3.2c.9-.9 2.3-1.3 3.9-1.3c1 0 2 .2 3 .6c.9.4 1.7.8 2.4 1.4l-1.3 1.5c-1.4-1.1-2.8-1.7-4.3-1.7c-.9 0-1.7.2-2.3.7c-.5.4-.8 1-.8 1.6c0 .5.2.9.6 1.3c.4.3 1.2.7 2.3 1.2c1.4.5 2.4 1.1 3 1.7c.6.6.9 1.3.9 2.2c0 1.4-.5 2.5-1.6 3.3c-1 .9-2.4 1.3-3.9 1.3zm23.2-9.5c0 .8-.2 1.8-.5 2.7h-11.4v.6c0 1.3.4 2.4 1.2 3.2c.7.8 1.8 1.2 3.1 1.2c1.6 0 3.2-.6 4.6-1.7l1 1.4c-1.7 1.4-3.6 2.1-5.8 2.1c-1.8 0-3.4-.5-4.5-1.7c-1.2-1.1-1.7-2.6-1.7-4.4c0-2.5.9-4.7 2.7-6.5c1.6-1.7 3.5-2.5 5.7-2.5c1.7 0 3.1.5 4.1 1.6c1 1.1 1.5 2.4 1.5 4zm-5.7-3.8c-1.5 0-2.9.6-4.1 1.8c-.8.8-1.4 1.8-1.8 3.1h9.3c.1-.3.2-.7.2-1.1c0-1.1-.3-2-.9-2.7c-.7-.7-1.6-1.1-2.7-1.1zm7.3 13l3.8-14.5h2.2s-.62 2.38-.6 2.4c1.5-1.8 3.2-2.7 5-2.7c1.4 0 2.5.4 3.4 1.2c.8.8 1.2 1.9 1.2 3.3c0 .6-.1 1.4-.3 2.2l-2.2 8.1h-2.1s2.18-8.2 2.2-8.2c.1-.6.2-1.1.2-1.6c0-1-.3-1.7-.9-2.3c-.6-.5-1.3-.8-2.3-.8c-1.2 0-2.2.5-3.2 1.4c-1 .8-1.7 2-2.1 3.3c.02.02-2.2 8.2-2.2 8.2h-2.1zm39-2.2c-1.7 1.7-3.7 2.5-6 2.5c-1.9 0-3.5-.6-4.7-1.8c-1.2-1.2-1.8-2.8-1.8-4.7c0-2.3.8-4.4 2.6-6c1.7-1.7 3.6-2.6 5.9-2.6c1.9 0 3.5.6 4.7 1.8c1.3 1.2 1.9 2.8 1.9 4.7c0 2.3-.9 4.3-2.6 6.1zm-5.8.6c1.5 0 2.9-.6 4.1-1.8c1.4-1.4 2.1-3 2.1-4.8c0-1.5-.4-2.6-1.3-3.4c-.8-.9-1.9-1.3-3.3-1.3c-1.5 0-2.9.6-4.1 1.8c-1.4 1.4-2.1 3-2.1 4.9c0 1.4.5 2.6 1.3 3.4c.8.8 1.9 1.2 3.3 1.2zm10.2 1.6L237 7.9h2.1s-.96 3.8-1 3.8c2-2.8 4.3-4.2 6.9-4c.03-.03-.6 2.3-.6 2.3h-.1c-1.7 0-3.2.6-4.6 1.8c-1.3 1.1-2.3 2.8-2.9 4.9l-1.5 5.7h-2.2zm20.9-2.3c-1.5 1.7-3.3 2.6-5.4 2.6c-1.3 0-2.4-.4-3.3-1.1c-.9-.7-1.3-1.7-1.3-2.9c0-1.4.5-2.5 1.4-3.4c1.2-1.2 2.9-1.8 5-1.8c1.7 0 3.4.2 5.2.8l.1-.4c.1-.5.2-.9.2-1.3c0-2-1.3-3-4-3c-1.2 0-2.6.3-4 .8l-.4-1.8c1.5-.6 3.1-.9 4.8-.9c1.8 0 3.2.4 4.2 1.2c1 .8 1.5 1.9 1.5 3.3c0 .6-.1 1.3-.3 2c-.04 0-2.2 8.2-2.2 8.2h-2.1l.6-2.3s-.01.03 0 0zm-4.7.9c1.2 0 2.4-.4 3.5-1.2c1.1-.8 1.8-1.8 2.1-3.1l.3-1c-1.5-.4-3-.6-4.7-.6c-1.5 0-2.6.4-3.4 1.2c-.6.5-.9 1.3-.9 2.2c0 .7.3 1.4.8 1.8c.6.5 1.3.7 2.3.7zm22.3 1.4s.65-2.46.6-2.5c-1.7 1.9-3.5 2.8-5.4 2.8c-1.7 0-3.1-.5-4.2-1.7c-1-1.1-1.6-2.6-1.6-4.4c0-2.6.9-4.8 2.7-6.6c1.6-1.6 3.4-2.4 5.4-2.4c2.6 0 4.4 1.2 5.5 3.6c-.03 0 2.4-9.2 2.4-9.2h2.2l-5.5 20.4h-2.1zm-4.2-1.6c1.5 0 3-.6 4.3-1.9c1.4-1.4 2.1-3.1 2.1-4.9c0-1.3-.4-2.4-1.2-3.2c-.9-.9-1.9-1.3-3.3-1.3c-1.5 0-2.8.6-3.9 1.7c-1.4 1.4-2.1 3.1-2.1 5.2c0 1.4.4 2.4 1.1 3.2c.8.8 1.7 1.2 3 1.2zm21.2-.7c-1.5 1.7-3.3 2.6-5.4 2.6c-1.3 0-2.4-.4-3.3-1.1c-.9-.7-1.3-1.7-1.3-2.9c0-1.4.5-2.5 1.4-3.4c1.2-1.2 2.9-1.8 5-1.8c1.7 0 3.4.2 5.2.8l.1-.4c.1-.5.2-.9.2-1.3c0-2-1.3-3-3.9-3c-1.3 0-2.7.3-4.1.8l-.4-1.8c1.6-.6 3.1-.9 4.8-.9c1.8 0 3.2.4 4.2 1.2c1 .8 1.5 1.9 1.5 3.3c0 .6-.1 1.3-.3 2c-.03 0-2.2 8.2-2.2 8.2H288l.6-2.3s0 .03 0 0zm-4.7.9c1.2 0 2.4-.4 3.5-1.2c1.1-.8 1.8-1.8 2.2-3.1l.2-1c-1.5-.4-3-.6-4.7-.6c-1.4 0-2.6.4-3.4 1.2c-.6.5-.9 1.3-.9 2.2c0 .7.3 1.4.8 1.8c.6.5 1.3.7 2.3.7z" stroke="none" fill="#fff"/></g></svg>