<?xml version="1.0" standalone="no"?><!DOCTYPE svg PUBLIC "-//W3C//DTD SVG 1.1//EN" "http://www.w3.org/Graphics/SVG/1.1/DTD/svg11.dtd"><svg xmlns="http://www.w3.org/2000/svg" version="1.1" width="84.1px" height="12.4px" viewBox="0 -1 84.1 12.4" style="top:-1px"><desc>VILLA COLLECTION</desc><defs/><g id="Polygon359367"><path d="m15.5 7.5l-2.1-4.9h.6l1.7 4.2l1.8-4.2h.6L16 7.5h-.5zm3.6 0V2.6h.5v4.9h-.5zm2 0V2.6h.5v4.4h2.8v.5h-3.3zm4.3 0V2.6h.5v4.4h2.8v.5h-3.3zm3.9 0l2.2-5h.5l2.2 5h-.6l-.5-1.3h-2.7l-.6 1.3h-.5zm1.3-1.8h2.3l-1.2-2.5l-1.1 2.5zm8.9 1.9c-.7 0-1.2-.3-1.7-.8c-.5-.5-.7-1-.7-1.8c0-.7.2-1.3.7-1.8c.5-.5 1.1-.7 1.8-.7c.4 0 .7.1 1 .2c.3.1.6.3.9.6l-.4.4c-.2-.2-.5-.4-.7-.5c-.2-.1-.5-.2-.8-.2c-.6 0-1 .2-1.4.6c-.4.4-.5.8-.5 1.4c0 .6.1 1.1.5 1.5c.4.4.8.6 1.4.6c.3 0 .6-.1.8-.2c.2-.1.5-.3.7-.6l.4.4c-.3.3-.6.5-.9.6c-.3.2-.6.3-1.1.3zM47.1 5c0 .7-.2 1.3-.7 1.8c-.4.5-1 .8-1.8.8c-.7 0-1.3-.3-1.8-.8c-.4-.5-.7-1.1-.7-1.8c0-.7.3-1.3.8-1.8c.4-.5 1-.7 1.8-.7c.7 0 1.3.2 1.7.7c.5.5.7 1.1.7 1.8c.04.01 0 0 0 0c0 0 .04.03 0 0zm-4.4 0c0 .6.2 1.1.6 1.5c.3.4.8.6 1.4.6c.5 0 1-.2 1.3-.6c.4-.4.6-.9.6-1.5c0-.5-.2-1-.6-1.4c-.3-.4-.8-.6-1.4-.6c-.5 0-1 .2-1.3.6c-.4.4-.6.8-.6 1.4c.02.01 0 0 0 0c0 0 .02.03 0 0zm5.6 2.5V2.6h.6v4.4h2.7v.5h-3.3zm4.3 0V2.6h.6v4.4h2.7v.5h-3.3zm4.3 0V2.6h3.6v.5h-3v1.7h2.7v.5h-2.7v1.7h3v.5h-3.6zm7 .1c-.7 0-1.3-.3-1.8-.8c-.5-.5-.7-1-.7-1.8c0-.7.2-1.3.7-1.8c.5-.5 1.1-.7 1.8-.7c.4 0 .8.1 1 .2c.3.1.6.3.9.6l-.4.4c-.2-.2-.5-.4-.7-.5c-.2-.1-.5-.2-.8-.2c-.6 0-1 .2-1.4.6c-.3.4-.5.8-.5 1.4c0 .6.2 1.1.5 1.5c.4.4.8.6 1.4.6c.3 0 .6-.1.8-.2c.3-.1.5-.3.7-.6l.4.4c-.3.3-.6.5-.9.6c-.3.2-.6.3-1 .3zm4.2-.1V3.1h-1.7v-.5h3.9v.5h-1.7v4.4h-.5zm3.2 0V2.6h.6v4.9h-.6zM78.1 5c0 .7-.2 1.3-.7 1.8c-.5.5-1.1.8-1.8.8c-.7 0-1.3-.3-1.8-.8c-.5-.5-.7-1.1-.7-1.8c0-.7.2-1.3.7-1.8c.5-.5 1.1-.7 1.8-.7c.7 0 1.3.2 1.8.7c.5.5.7 1.1.7 1.8c.01.01 0 0 0 0c0 0 .01.03 0 0zm-4.4 0c0 .6.2 1.1.5 1.5c.4.4.9.6 1.4.6c.6 0 1-.2 1.4-.6c.4-.4.5-.9.5-1.5c0-.5-.1-1-.5-1.4c-.4-.4-.8-.6-1.4-.6c-.5 0-1 .2-1.4.6c-.3.4-.5.8-.5 1.4c-.01.01 0 0 0 0c0 0-.01.03 0 0zm5.6 2.5V2.6h.5l3.1 3.9V2.6h.5v4.9h-.4l-3.2-4v4h-.5z" stroke="none" fill="#000"/></g></svg>