<?xml version="1.0" standalone="no"?><!DOCTYPE svg PUBLIC "-//W3C//DTD SVG 1.1//EN" "http://www.w3.org/Graphics/SVG/1.1/DTD/svg11.dtd"><svg xmlns="http://www.w3.org/2000/svg" version="1.1" width="42.3px" height="12.8px" viewBox="0 -2 42.3 12.8" style="top:-2px"><desc>Paslanmaz elik, Siyah</desc><defs/><g id="Polygon370204"><path d="m1.3 7.5c-.4 0-.8-.1-1.1-.4L.3 7c.2.1.3.2.5.3c.1 0 .3.1.5.1c.2 0 .3-.1.5-.2c.1-.1.2-.2.2-.4c0-.1-.1-.2-.2-.3c-.1-.1-.3-.2-.6-.2C.9 6.2.7 6.1.5 6c-.1-.1-.2-.3-.2-.5c0-.2.1-.3.3-.5c.1-.1.3-.2.6-.2c.2 0 .3.1.5.1c.1.1.2.1.4.3l-.1.1c-.3-.2-.5-.3-.8-.3c-.2 0-.4.1-.5.2c-.1.1-.2.2-.2.3c0 .2.1.3.2.4c.1.1.3.1.6.2c.3.1.5.1.7.3c.1.1.2.2.2.4c0 .2-.1.4-.3.5c-.2.2-.4.2-.6.2zm1.5-2.4v-.3h.2v.3h-.2zm0 2.4V5.6h.2v1.9h-.2zm1.7-.2l.7-1.7h.2s-.83 1.98-.8 2c-.1.2-.2.3-.3.4c-.1.1-.2.1-.4.1c-.1 0-.2 0-.4-.1l.1-.1h.3c.1 0 .2 0 .3-.1c.1 0 .1-.1.2-.3l-.9-1.9h.2l.8 1.7zm2.6-.1c-.2.2-.4.4-.7.4c-.2 0-.4-.1-.5-.2c-.2-.1-.2-.3-.2-.4v-.1c0-.2 0-.3.2-.4c.1-.1.3-.2.6-.2c.2 0 .4 0 .6.1v-.1c0-.2 0-.3-.1-.4c-.1-.1-.3-.2-.5-.2c-.2 0-.4.1-.6.2l-.1-.2c.3-.1.5-.1.7-.1c.3 0 .5 0 .6.2c.1.1.2.3.2.5v1.2h-.2v-.3s.03-.01 0 0zm-.7.2c.2 0 .4-.1.5-.2c.2-.1.2-.2.2-.4v-.2c-.2-.1-.4-.1-.6-.1c-.2 0-.4 0-.5.1c-.1.1-.2.2-.2.3c0 .2.1.3.2.4c.1 0 .3.1.4.1zm1.6.1V4.8h.2s-.05 1.15 0 1.1c.1-.2.3-.4.6-.4c.3 0 .5.1.6.3c.1.1.2.3.2.5v1.2h-.2s.03-1.13 0-1.1c0-.2 0-.4-.1-.5c-.1-.1-.3-.2-.5-.2c-.2 0-.3.1-.5.2c-.1.1-.1.3-.1.5c-.05 0 0 1.1 0 1.1h-.2z" stroke="none" fill="#000"/></g><g id="Polygon370203"><path d="m.4 3V.4s.95-.02.9 0c.3 0 .6 0 .8.2c.1.1.2.3.2.6c0 .3-.1.5-.3.6c-.2.2-.4.2-.7.2c0 .03-.7 0-.7 0v1h-.2zm.2-1.2s.71.05.7 0c.3 0 .5 0 .6-.1c.2-.1.2-.3.2-.5c0-.2 0-.4-.2-.5c-.1-.1-.3-.1-.6-.1C1.33.56.6.6.6.6v1.2zm3.5.9c-.1.2-.4.4-.7.4c-.2 0-.4-.1-.5-.2c-.2-.1-.2-.3-.2-.4v-.1c0-.2 0-.3.2-.4c.1-.1.4-.2.6-.2c.2 0 .4 0 .6.1v-.1c0-.2 0-.3-.1-.4c-.1-.1-.3-.2-.5-.2c-.2 0-.4.1-.6.2l-.1-.2c.3-.1.5-.1.7-.1c.3 0 .5 0 .6.2c.2.1.2.3.2.5c.02.01 0 1.2 0 1.2h-.2v-.3s.04-.01 0 0zm-.7.2c.2 0 .4-.1.5-.2c.2-.1.2-.2.2-.4v-.2C3.9 2 3.7 2 3.5 2c-.2 0-.4 0-.5.1c-.1.1-.1.2-.1.3c0 .2 0 .3.1.4c.1 0 .3.1.4.1zm2.2.1c-.3 0-.5 0-.8-.2l.1-.2c.2.2.5.3.7.3c.1 0 .3-.1.3-.1c.1-.1.2-.2.2-.3c0-.1 0-.1-.1-.1c0-.1 0-.1-.1-.1c0-.1-.1-.1-.1-.1c-.1 0-.1-.1-.2-.1h-.2C5.3 2 5.3 2 5.2 2c-.1 0-.1-.1-.2-.1v-.1c-.1-.1-.1-.1-.1-.2c0-.2.1-.3.2-.4c.1-.1.3-.1.4-.1c.3 0 .5 0 .7.2l-.1.1c-.2-.1-.4-.2-.6-.2c-.1 0-.2.1-.3.1c-.1.1-.1.2-.1.3v.1c.1 0 .1.1.2.1l.1.1h.2c.1.1.2.1.3.1c0 0 .1.1.2.1c0 .1.1.1.1.2c0 0 .1.1.1.2c0 .2-.1.3-.2.4c-.1.1-.3.1-.5.1zm1.3 0V.3h.2v2.7h-.2zm2.2-.3c-.2.2-.4.4-.7.4c-.2 0-.4-.1-.5-.2c-.2-.1-.3-.3-.3-.4v-.1c0-.2.1-.3.3-.4c.1-.1.3-.2.6-.2c.2 0 .4 0 .6.1v-.1c0-.2 0-.3-.2-.4c-.1-.1-.2-.2-.4-.2c-.2 0-.4.1-.6.2l-.1-.2c.2-.1.5-.1.7-.1c.2 0 .5 0 .6.2c.1.1.2.3.2.5v1.2h-.2v-.3s.01-.01 0 0zm-.7.2c.2 0 .4-.1.5-.2c.1-.1.2-.2.2-.4v-.2C8.9 2 8.7 2 8.5 2c-.2 0-.4 0-.5.1c-.1.1-.2.2-.2.3c0 .2.1.3.2.4c.1 0 .2.1.4.1zm1.5.1V1.1h.2s.03.35 0 .3c.2-.2.4-.4.7-.4c.3 0 .5.1.6.3c.1.1.2.3.2.5v1.2h-.2s.01-1.13 0-1.1c0-.2 0-.4-.2-.5c-.1-.1-.2-.2-.4-.2c-.2 0-.4.1-.5.2c-.1.1-.2.3-.2.5c.03 0 0 1.1 0 1.1h-.2zm2.4 0V1.1h.1s.04.33 0 .3c.2-.2.4-.4.7-.4c.3 0 .5.2.6.5c.2-.3.4-.5.7-.5c.2 0 .4.1.6.3c.1.1.2.3.2.5c-.05.05 0 1.2 0 1.2h-.2s-.03-1.13 0-1.1c0-.2-.1-.4-.2-.5c-.1-.1-.2-.2-.4-.2c-.2 0-.3.1-.4.2c-.1.1-.2.3-.2.5v1.1h-.2s.01-1.14 0-1.1c0-.2 0-.4-.1-.5c-.1-.1-.3-.2-.4-.2c-.2 0-.4.1-.5.2c-.1.1-.2.3-.2.5c.04 0 0 1.1 0 1.1h-.1zm4.8-.3c-.1.2-.4.4-.7.4c-.2 0-.4-.1-.5-.2c-.2-.1-.2-.3-.2-.4v-.1c0-.2 0-.3.2-.4c.1-.1.3-.2.6-.2c.2 0 .4 0 .6.1v-.1c0-.2 0-.3-.1-.4c-.1-.1-.3-.2-.5-.2c-.2 0-.4.1-.6.2l-.1-.2c.3-.1.5-.1.7-.1c.3 0 .5 0 .6.2c.1.1.2.3.2.5v1.2h-.2v-.3s.03-.01 0 0zm-.7.2c.2 0 .4-.1.5-.2c.2-.1.2-.2.2-.4v-.2c-.2-.1-.4-.1-.6-.1c-.2 0-.4 0-.5.1c-.1.1-.1.2-.1.3c0 .2 0 .3.1.4c.1 0 .3.1.4.1zm1.4.1v-.1l1.4-1.6h-1.3v-.2h1.6v.1l-1.4 1.6h1.4v.2h-1.7zm4.4.6l-.2-.1s.3-.45.3-.5c-.3 0-.6-.1-.9-.4c-.2-.2-.3-.5-.3-.9c0-.4.1-.7.4-1c.2-.2.6-.4.9-.4c.2 0 .4.1.6.1c.1.1.3.2.5.4l-.2.1c-.3-.3-.6-.4-.9-.4c-.3 0-.6.1-.8.3c-.2.3-.3.6-.3.9c0 .3.1.6.3.8c.3.3.5.4.8.4c.2 0 .4-.1.5-.1c.2-.1.3-.2.4-.3l.2.1c-.2.1-.3.3-.5.3c-.1.1-.3.1-.5.2c-.03-.05-.3.5-.3.5zm3.3-.9c-.2.2-.4.4-.7.4c-.3 0-.5-.1-.7-.3c-.2-.2-.3-.5-.3-.7v-.1c0-.2.1-.5.3-.7c.1-.2.4-.3.6-.3c.3 0 .5.1.7.3c.1.2.2.5.2.7v.1H24c0 .3.1.4.2.6c.2.1.4.2.6.2c.2 0 .4-.1.6-.3c.02-.02.1.1.1.1c0 0 .05-.01 0 0zM24 2h1.4c0-.3-.1-.4-.2-.6c-.1-.1-.3-.2-.5-.2c-.2 0-.3.1-.5.2c-.1.2-.2.3-.2.6zm2.2 1V.3h.2v2.7h-.2zm.9-2.4v-.3h.2v.3h-.2zm0 2.4V1.1h.2v1.9h-.2zm.9 0V.3h.2v2l1.2-1.2h.2l-.8.8l.9 1.1h-.3l-.7-.9l-.5.4v.5h-.2zm2 .4v-.1c.1 0 .1-.1.1-.1c.1-.1.1-.1.1-.2h-.1v-.3h.2s.03.27 0 .3v.2c-.1.1-.2.2-.3.2z" stroke="none" fill="#000"/></g></svg>