<?xml version="1.0" standalone="no"?><!DOCTYPE svg PUBLIC "-//W3C//DTD SVG 1.1//EN" "http://www.w3.org/Graphics/SVG/1.1/DTD/svg11.dtd"><svg xmlns="http://www.w3.org/2000/svg" version="1.1" width="238px" height="27px" viewBox="0 -3 238 27" style="top:-3px"><desc>GROUND STEEL LOW KOMB NASYONLARI:</desc><defs/><g id="Polygon374975"><path d="m7.2 7c-.9.7-1.9 1.1-3 1.1c-1.1 0-2-.3-2.6-1C.9 6.4.5 5.6.5 4.5c0-1 .4-1.9 1.1-2.6c.7-.7 1.6-1 2.6-1c.6 0 1.1.1 1.5.2c.5.2.9.4 1.2.7L6 3c-.3-.2-.6-.4-.9-.5c-.2-.1-.6-.2-.9-.2c-.6 0-1.1.2-1.5.6c-.4.5-.6 1-.6 1.6c0 .6.2 1.2.6 1.6c.4.4.9.6 1.6.6c.5 0 1-.1 1.4-.4v-1H4.2V4h3v3s0 .01 0 0zm1.5 1v-7h3.2c.9 0 1.5.2 2 .7c.4.4.6.9.6 1.6c0 1.1-.5 1.8-1.5 2.2c.02 0 1.7 2.5 1.7 2.5h-1.8l-1.5-2.2h-1.2v2.2H8.7zm1.5-3.6h1.6c.4 0 .6-.1.8-.3c.3-.1.4-.4.4-.7c0-.3-.1-.6-.4-.8c-.2-.1-.5-.2-.9-.2h-1.5v2zm12.8.1c0 1-.3 1.9-1 2.6c-.7.7-1.6 1-2.7 1c-1.1 0-1.9-.3-2.6-1c-.7-.7-1.1-1.6-1.1-2.6c0-1 .4-1.9 1.1-2.6c.7-.7 1.6-1 2.6-1c1.1 0 2 .3 2.7 1c.7.7 1 1.6 1 2.6c.04-.02 0 0 0 0c0 0 .04 0 0 0zm-5.8 0c0 .6.2 1.1.6 1.6c.4.4.9.6 1.5.6c.6 0 1.1-.2 1.5-.6c.4-.5.6-1 .6-1.6c0-.6-.2-1.1-.6-1.6c-.4-.4-.9-.6-1.5-.6c-.6 0-1.1.2-1.5.6c-.4.4-.6 1-.6 1.6c.01-.02 0 0 0 0c0 0 .01 0 0 0zm13.2.4c0 1.1-.3 1.9-.8 2.4c-.6.5-1.3.8-2.3.8c-.9 0-1.7-.3-2.2-.8c-.5-.5-.8-1.3-.8-2.3v-4h1.5s.04 3.96 0 4c0 .5.2 1 .4 1.2c.3.3.7.5 1.1.5c.5 0 .9-.2 1.2-.4c.2-.3.4-.7.4-1.3c-.04.01 0-4 0-4h1.5v3.9s0 .05 0 0zM32 8v-7h1.4l3.3 4.3V1h1.5v7h-1.3l-3.4-4.5v4.5H32zm7.9 0v-7h2.7c1.1 0 2 .3 2.7 1c.7.7 1 1.5 1 2.5c0 1-.3 1.8-1 2.5c-.7.7-1.6 1-2.7 1h-2.7zm2.7-5.6h-1.2v4.2h1.2c.6 0 1.1-.2 1.5-.6c.4-.4.6-.9.6-1.5c0-.6-.2-1.1-.6-1.5c-.4-.4-.9-.6-1.5-.6zm10.6 5.7c-1.2 0-2.2-.4-3-1.1l.9-1.1c.7.6 1.4.8 2.1.8c.3 0 .6 0 .8-.1c.1-.2.2-.3.2-.5c0-.2-.1-.4-.3-.5c-.1-.2-.5-.3-1.1-.4c-.4-.1-.7-.2-1-.3c-.2-.1-.5-.3-.7-.4c-.2-.2-.4-.4-.5-.6c-.1-.3-.1-.5-.1-.9c0-.6.2-1.1.7-1.5c.4-.4 1-.6 1.7-.6c1 0 1.9.3 2.6.9l-.8 1.1c-.6-.4-1.2-.6-1.8-.6c-.3 0-.5 0-.7.1c-.1.1-.2.3-.2.5c0 .2.1.4.3.5c.2.1.6.2 1.2.4c.8.2 1.3.5 1.7.8c.4.3.5.7.5 1.3c0 .7-.2 1.2-.7 1.6c-.4.4-1 .6-1.8.6zm5.4-.1V2.4h-2.2V1h5.8v1.4h-2.1v5.6h-1.5zm4.8 0v-7h5.3v1.4h-3.8v1.4h3.3v1.4h-3.3v1.4h3.8v1.4h-5.3zm6.7 0v-7h5.3v1.4h-3.8v1.4h3.3v1.4h-3.3v1.4h3.8v1.4h-5.3zm6.7 0v-7h1.6v5.6h3.4v1.4h-5zM86 8v-7h1.5v5.6h3.5v1.4h-5zm12.9-3.5c0 1-.3 1.9-1 2.6c-.7.7-1.6 1-2.7 1c-1.1 0-2-.3-2.7-1c-.7-.7-1-1.6-1-2.6c0-1 .3-1.9 1.1-2.6c.7-.7 1.6-1 2.6-1c1.1 0 2 .3 2.7 1c.7.7 1 1.6 1 2.6c.03-.02 0 0 0 0c0 0 .03 0 0 0zm-5.8 0c0 .6.2 1.1.6 1.6c.4.4.9.6 1.5.6c.6 0 1.1-.2 1.5-.6c.4-.5.6-1 .6-1.6c0-.6-.2-1.1-.6-1.6c-.4-.4-.9-.6-1.5-.6c-.6 0-1.1.2-1.5.6c-.4.4-.6 1-.6 1.6c0-.02 0 0 0 0zm8.6 3.5l-2.3-7h1.6l1.5 4.7L104 1h1.3l1.6 4.7l1.5-4.7h1.6l-2.4 7h-1.4l-1.5-4.5l-1.6 4.5h-1.4zm12.4 0v-7h1.6v3.1l2.8-3.1h1.9l-2.9 3l3 4h-1.9l-2.1-3l-.8.9v2.1h-1.6zM128 4.5c0 1-.4 1.9-1.1 2.6c-.7.7-1.6 1-2.6 1c-1.1 0-2-.3-2.7-1c-.7-.7-1-1.6-1-2.6c0-1 .3-1.9 1-2.6c.7-.7 1.6-1 2.7-1c1.1 0 1.9.3 2.6 1c.7.7 1.1 1.6 1.1 2.6c0-.02 0 0 0 0zm-5.8 0c0 .6.2 1.1.6 1.6c.4.4.9.6 1.5.6c.6 0 1.1-.2 1.5-.6c.4-.5.6-1 .6-1.6c0-.6-.2-1.1-.6-1.6c-.4-.4-.9-.6-1.5-.6c-.6 0-1.1.2-1.5.6c-.4.4-.6 1-.6 1.6c-.03-.02 0 0 0 0c0 0-.03 0 0 0zm7.2 3.5v-7h1.6l1.9 3l1.8-3h1.7v7h-1.6V3.4l-1.9 3h-.1l-1.9-2.9v4.5h-1.5zm8.6 0v-7h3.3c.8 0 1.4.2 1.8.6c.3.3.5.7.5 1.2c0 .7-.3 1.2-.9 1.5c.4.2.7.4 1 .7c.2.3.3.6.3 1.1c0 .6-.2 1.1-.7 1.4c-.5.3-1.1.5-1.9.5H138zm3-4.2c.7 0 1.1-.2 1.1-.7c0-.5-.4-.8-1-.8c-.03.05-1.6 0-1.6 0v1.5h1.5s-.03.03 0 0zm.4 2.8c.7 0 1.1-.2 1.1-.7c0-.5-.4-.8-1.2-.8c.03.01-1.8 0-1.8 0v1.5h1.9s-.02.05 0 0zm3.9 1.4v-7h1.6v7h-1.6zm.1-7.6V-.8h1.5v1.2h-1.5zm3.2 7.6v-7h1.4l3.3 4.3V1h1.5v7h-1.3l-3.4-4.5v4.5h-1.5zm7.3 0l3-7.1h1.4l3 7.1h-1.6l-.6-1.6h-3l-.6 1.6h-1.6zm2.8-2.9h1.8l-.9-2.3l-.9 2.3zm8.1 3c-1.1 0-2.1-.4-3-1.1l1-1.1c.7.6 1.4.8 2 .8c.4 0 .6 0 .8-.1c.2-.2.3-.3.3-.5c0-.2-.1-.4-.3-.5c-.2-.2-.6-.3-1.2-.4c-.3-.1-.7-.2-.9-.3c-.3-.1-.5-.3-.7-.4c-.3-.2-.4-.4-.5-.6c-.1-.3-.2-.5-.2-.9c0-.6.3-1.1.7-1.5c.5-.4 1.1-.6 1.8-.6c1 0 1.8.3 2.6.9l-.8 1.1c-.7-.4-1.3-.6-1.8-.6c-.3 0-.6 0-.7.1c-.2.1-.2.3-.2.5c0 .2.1.4.2.5c.2.1.6.2 1.3.4c.7.2 1.3.5 1.6.8c.4.3.6.7.6 1.3c0 .7-.2 1.2-.7 1.6c-.5.4-1.1.6-1.9.6zm5.6-.1V5.2L169.7 1h1.8l1.7 2.8l1.7-2.8h1.7l-2.7 4.2v2.8h-1.5zm11.7-3.5c0 1-.3 1.9-1 2.6c-.8.7-1.6 1-2.7 1c-1.1 0-2-.3-2.7-1c-.7-.7-1-1.6-1-2.6c0-1 .3-1.9 1-2.6c.8-.7 1.6-1 2.7-1c1.1 0 2 .3 2.7 1c.7.7 1 1.6 1 2.6c.02-.02 0 0 0 0c0 0 .02 0 0 0zm-5.8 0c0 .6.2 1.1.6 1.6c.4.4.9.6 1.5.6c.6 0 1.1-.2 1.5-.6c.4-.5.6-1 .6-1.6c0-.6-.2-1.1-.6-1.6c-.4-.4-.9-.6-1.5-.6c-.6 0-1.1.2-1.5.6c-.4.4-.6 1-.6 1.6c-.01-.02 0 0 0 0c0 0-.01 0 0 0zm7.2 3.5v-7h1.4l3.3 4.3V1h1.5v7h-1.3L187 3.5v4.5h-1.5zm7.9 0v-7h1.5v5.6h3.5v1.4h-5zm5.6 0l3-7.1h1.4l3 7.1h-1.6l-.7-1.6h-2.9l-.7 1.6H199zm2.7-2.9h1.9l-.9-2.3l-1 2.3zm5.8 2.9v-7h3.2c.9 0 1.5.2 2 .7c.4.4.6.9.6 1.6c0 1.1-.5 1.8-1.5 2.2c.02 0 1.7 2.5 1.7 2.5h-1.8l-1.5-2.2H209v2.2h-1.5zm1.5-3.6h1.6c.4 0 .6-.1.8-.3c.3-.1.4-.4.4-.7c0-.3-.1-.6-.4-.8c-.2-.1-.5-.2-.9-.2H209v2zm5.8 3.6v-7h1.5v7h-1.5zm3.1-3.8V2.6h1.6v1.6h-1.6zm0 3.8V6.4h1.6v1.6h-1.6z" stroke="none" fill="#000"/></g></svg>