<?xml version="1.0" standalone="no"?><!DOCTYPE svg PUBLIC "-//W3C//DTD SVG 1.1//EN" "http://www.w3.org/Graphics/SVG/1.1/DTD/svg11.dtd"><svg xmlns="http://www.w3.org/2000/svg" version="1.1" width="31.4px" height="65.2px" viewBox="0 -2 31.4 65.2" style="top:-2px"><desc>Kubbe: G vde: Ayaklar:</desc><defs/><g id="Polygon374287"><path d="m.1 57.3l1.8-4.2h.9l1.8 4.2h-1l-.3-.9H1.5l-.4.9h-1zm1.7-1.7h1.1l-.5-1.4l-.6 1.4zm4 1.7v-1.6l-1.7-2.6h1.1l1 1.7l1.1-1.7h1l-1.6 2.5v1.7h-.9zm2 0l1.8-4.2h.9l1.8 4.2h-1l-.3-.9H9.2l-.4.9h-1zm1.7-1.7h1.1l-.5-1.4l-.6 1.4zm3.4 1.7v-4.2h1v1.8l1.7-1.8h1.1L15 54.9l1.8 2.4h-1.1l-1.3-1.8l-.5.5v1.3h-1zm4.4 0v-4.2h.9v3.4h2.1v.8h-3zm3.4 0l1.8-4.2h.8l1.8 4.2h-.9l-.4-.9H22l-.4.9h-.9zm1.6-1.7h1.1l-.5-1.4l-.6 1.4zm3.5 1.7v-4.2h1.9c.5 0 .9.1 1.2.4c.2.3.4.6.4 1c0 .6-.3 1.1-.9 1.3c-.04.01 1 1.5 1 1.5h-1.1l-.9-1.3h-.7v1.3h-.9zm.9-2.2s.92.05.9 0c.2 0 .4 0 .5-.1c.2-.1.2-.3.2-.4v-.1c0-.2 0-.3-.2-.4c-.1-.1-.3-.2-.5-.2c0 .04-.9 0-.9 0v1.2zm3.3 0v-1h1v1h-1zm0 2.2v-.9h1v.9h-1z" stroke="none" fill="#000"/></g><g id="Polygon374286"><path d="m4.3 29.5c-.5.4-1.1.6-1.8.6c-.6 0-1.2-.2-1.6-.6c-.4-.4-.6-.9-.6-1.5c0-.6.2-1.2.7-1.6c.4-.4.9-.6 1.5-.6c.4 0 .7 0 1 .1c.2.1.5.3.7.5l-.6.7c-.2-.2-.3-.3-.5-.4c-.2 0-.4-.1-.6-.1c-.3 0-.6.2-.9.4c-.2.3-.3.6-.3.9v.1c0 .3.1.7.3.9c.3.3.6.4 1 .4c.3 0 .6-.1.8-.3c.04.04 0-.6 0-.6h-.9v-.8h1.8v1.9s.03-.03 0 0zM9.5 28c0 .6-.2 1.1-.6 1.5c-.5.4-1 .6-1.6.6c-.7 0-1.2-.2-1.6-.6c-.5-.4-.7-.9-.7-1.5c0-.6.3-1.2.7-1.6c.4-.4.9-.6 1.6-.6c.6 0 1.2.2 1.6.6c.4.4.6.9.6 1.5v.1s.01-.04 0 0zM6 28c0 .3.1.6.4.9c.2.3.5.4.9.4c.4 0 .7-.1.9-.4c.2-.2.3-.6.3-.9c0-.4-.1-.7-.3-1c-.3-.2-.6-.4-.9-.4c-.4 0-.7.2-.9.4c-.3.3-.4.6-.4.9v.1s.01-.04 0 0zm1.5-2.5v-.8h.9v.8h-.9zm-1.3 0v-.8h.9v.8h-.9zm5.2 4.6l-1.7-4.2h1l1.1 2.9l1.1-2.9h1l-1.7 4.2h-.8zm3.2 0v-4.2s1.62-.05 1.6 0c.7 0 1.2.2 1.6.6c.5.3.7.8.7 1.4v.1c0 .6-.2 1.1-.7 1.5c-.4.4-.9.6-1.6.6c.02-.04-1.6 0-1.6 0zm1.6-3.4h-.7v2.5s.72.03.7 0c.4 0 .7-.1.9-.3c.3-.3.4-.6.4-.9c0-.4-.1-.7-.4-1c-.2-.2-.5-.3-.9-.3zm3.1 3.4v-4.2h3.2v.8h-2.3v.8h2v.9h-2v.8h2.3v.9h-3.2zm3.9-2.3v-1h1v1h-1zm0 2.3v-1h1v1h-1z" stroke="none" fill="#000"/></g><g id="Polygon374285"><path d="m.5 4.8V.6h.9v1.8L3.1.6h1.2L2.5 2.4l1.8 2.4H3.2L1.9 3l-.5.5v1.3h-.9zM8.4 3c0 .6-.2 1.1-.5 1.4c-.3.3-.8.5-1.3.5c-.6 0-1.1-.2-1.4-.5c-.3-.3-.5-.8-.5-1.4c.04.01 0-2.4 0-2.4h1s-.03 2.38 0 2.4c0 .3 0 .6.2.8c.2.1.4.2.7.2c.3 0 .5-.1.6-.2c.2-.2.3-.5.3-.8V.6h.9v2.4s.01-.02 0 0zm1 1.8V.6h1.9c.5 0 .9.1 1.1.4c.2.2.3.4.3.7c0 .4-.2.7-.5.9c.2.1.4.2.5.4c.2.2.2.4.2.6v.1c0 .3-.1.6-.4.8c-.3.2-.6.3-1.1.3h-2zm1.7-2.5c.5 0 .7-.1.7-.4v-.1c0-.2-.2-.4-.6-.4c-.02.01-.9 0-.9 0v.9h.8s.02 0 0 0zm.3 1.7c.4 0 .6-.2.6-.5c0-.3-.2-.4-.7-.4c.03-.02-1 0-1 0v.9h1.1s-.04 0 0 0zm2.3.8V.6h2c.4 0 .8.1 1.1.4c.2.2.2.4.2.7c0 .4-.1.7-.5.9c.3.1.5.2.6.4c.1.2.2.4.2.6v.1c0 .3-.2.6-.4.8c-.3.2-.7.3-1.2.3h-2zm1.8-2.5c.4 0 .6-.1.6-.4v-.1c0-.2-.2-.4-.6-.4c.02.01-.9 0-.9 0v.9h.9s-.04 0 0 0zm.2 1.7c.4 0 .7-.2.7-.5c0-.3-.3-.4-.7-.4c-.02-.02-1.1 0-1.1 0v.9h1.1s.01 0 0 0zm2.3.8V.6h3.2v.8H19v.9h2v.8h-2v.9h2.3v.8H18zm4-2.2v-1h1v1h-1zm0 2.2v-.9h1v.9h-1z" stroke="none" fill="#000"/></g></svg>