<?xml version="1.0" standalone="no"?><!DOCTYPE svg PUBLIC "-//W3C//DTD SVG 1.1//EN" "http://www.w3.org/Graphics/SVG/1.1/DTD/svg11.dtd"><svg xmlns="http://www.w3.org/2000/svg" version="1.1" width="65.2px" height="17.4px" viewBox="0 -2 65.2 17.4" style="top:-2px"><desc>Nickel Ground,</desc><defs/><g id="Polygon368722"><path d="m.7 5.6V.7h.5l3.1 3.9V.7h.5v4.9h-.4l-3.2-4v4h-.5zm5.4-4.4v-.6h.7v.6h-.7zm.1 4.4V2h.5v3.6h-.5zm4.9-.6c-.4.5-.9.7-1.5.7c-.5 0-1-.2-1.3-.6c-.4-.3-.6-.8-.6-1.3c0-.5.2-1 .6-1.3c.3-.4.8-.6 1.3-.6c.6 0 1 .2 1.5.6l-.4.4c-.3-.3-.7-.5-1.1-.5c-.4 0-.7.1-.9.4c-.3.3-.4.6-.4 1c0 .4.1.7.4 1c.2.3.6.4.9.4c.4 0 .8-.2 1.1-.5c.04-.04.4.3.4.3c0 0-.02-.02 0 0zm.9.6V.5h.5v3.5l2-2h.6l-1.5 1.5l1.6 2.1h-.7l-1.3-1.7l-.7.8v.9h-.5zm6.9-.6c-.4.5-.9.7-1.5.7c-.5 0-1-.2-1.3-.5c-.4-.4-.5-.8-.5-1.4c0-.5.1-1 .4-1.4c.4-.3.8-.5 1.3-.5c.5 0 .9.2 1.2.5c.3.4.5.9.5 1.4v.2h-2.9c0 .4.2.7.4.9c.3.2.5.3.9.3c.4 0 .8-.2 1.1-.5l.4.3s-.05 0 0 0zm-2.8-1.4h2.3c0-.4-.1-.7-.3-.9c-.2-.2-.5-.3-.8-.3c-.3 0-.6.1-.8.3c-.2.2-.4.5-.4.9zm3.9 2V.5h.5v5.1h-.5zm8.2-.7c-.6.5-1.2.8-2 .8c-.7 0-1.3-.3-1.8-.7c-.4-.5-.7-1.1-.7-1.8v-.1c0-.6.3-1.2.7-1.7c.5-.5 1.1-.8 1.8-.8c.4 0 .7.1 1 .2c.3.1.6.2.8.5l-.3.4c-.5-.4-1-.6-1.5-.6c-.6 0-1 .2-1.4.6c-.3.4-.5.9-.5 1.4c0 .6.2 1.1.5 1.5c.4.4.9.6 1.4.6c.6 0 1.1-.2 1.5-.5c-.04 0 0-1.2 0-1.2h-1.5v-.5h2v1.9s0 .03 0 0zm1.2.7V2h.5s-.01.93 0 .9c.1-.3.3-.5.6-.7c.2-.2.5-.3.9-.3c-.03.02 0 .6 0 .6h-.1c-.4 0-.7.1-1 .4c-.3.3-.4.7-.4 1.3v1.4h-.5zm4.3.1c-.6 0-1-.2-1.4-.6c-.3-.3-.5-.8-.5-1.3c0-.5.2-1 .5-1.3c.4-.4.9-.6 1.4-.6c.5 0 1 .2 1.3.6c.4.3.6.8.6 1.3c0 .5-.2 1-.6 1.3c-.3.4-.8.6-1.3.6zm0-.5c.4 0 .7-.1.9-.4c.3-.3.4-.6.4-1c0-.4-.1-.7-.4-1c-.2-.3-.5-.4-.9-.4c-.4 0-.7.1-1 .4c-.2.3-.3.6-.3 1c0 .4.1.7.3 1c.3.3.6.4 1 .4zm5.4-.2c-.3.4-.7.7-1.2.7c-.4 0-.8-.2-1-.4c-.3-.3-.4-.6-.4-1.1V2h.5s.04 2.09 0 2.1c0 .3.1.6.3.8c.2.2.4.3.7.3c.4 0 .6-.1.8-.3c.2-.2.3-.5.3-.8c.02-.05 0-2.1 0-2.1h.6v3.6h-.6v-.6s.02-.03 0 0zm1.8.6V2h.5v.6c.3-.5.7-.7 1.2-.7c.5 0 .8.1 1.1.4c.2.3.3.6.3 1.1c.03-.05 0 2.2 0 2.2h-.5V3.5c0-.4-.1-.6-.3-.8c-.1-.2-.4-.3-.7-.3c-.3 0-.6.1-.8.3c-.2.2-.3.5-.3.8v2.1h-.5zm7.2-.7c-.4.5-.9.8-1.4.8c-.5 0-.9-.2-1.2-.5c-.4-.4-.5-.8-.5-1.4c0-.6.1-1 .5-1.4c.3-.3.7-.5 1.2-.5c.6 0 1 .3 1.4.8c-.02-.03 0-2.2 0-2.2h.5v5.1h-.5v-.7s-.02-.03 0 0zm-1.3.3c.3 0 .7-.1.9-.4c.3-.3.4-.6.4-1c0-.4-.1-.8-.4-1c-.2-.3-.6-.4-.9-.4c-.4 0-.7.1-.9.4c-.3.2-.4.6-.4 1c0 .4.1.8.4 1c.2.3.5.4.9.4zm2.8 1.3l-.1-.3c.4-.1.5-.3.5-.6h-.2v-.7h.6v.6c0 .3-.1.5-.2.6c-.1.2-.3.3-.6.4z" stroke="none" fill="#000"/></g></svg>