<?xml version="1.0" standalone="no"?><!DOCTYPE svg PUBLIC "-//W3C//DTD SVG 1.1//EN" "http://www.w3.org/Graphics/SVG/1.1/DTD/svg11.dtd"><svg xmlns="http://www.w3.org/2000/svg" version="1.1" width="132.2px" height="88.5px" viewBox="0 -8 132.2 88.5" style="top:-8px"><desc>LE FEU DESIGN</desc><defs/><g id="Polygon364963"><path d="m2.7 62.7V40s8.92-.04 8.9 0c3.6 0 6.5 1 8.7 3.2c2.3 2.2 3.4 4.8 3.4 8.1c0 3.3-1.1 6-3.4 8.2c-2.2 2.2-5.1 3.2-8.7 3.2c.02.04-8.9 0-8.9 0zm8.9-18.2c.02-.02-3.9 0-3.9 0v13.7h3.9c2.1 0 3.7-.6 5-1.9c1.2-1.2 1.9-2.9 1.9-4.9v-.1c0-2-.7-3.6-1.9-4.9c-1.3-1.3-2.9-1.9-5-1.9zm16.6 18.2V40h17.2v4.4H33.2v4.6h10.7v4.5H33.2v4.8h12.3v4.4H28.2zm29.9.4c-3.8 0-7-1.3-9.7-3.7l3-3.5c2.3 1.8 4.5 2.7 6.8 2.7c1 0 1.8-.2 2.4-.5c.6-.4.9-.9.9-1.6v-.1c0-.6-.3-1.2-.9-1.6c-.7-.4-1.9-.8-3.7-1.3c-1.3-.3-2.4-.6-3.2-.9c-.8-.3-1.6-.8-2.3-1.3c-.7-.5-1.2-1.2-1.6-1.9c-.3-.8-.5-1.8-.5-2.8v-.1c0-2.1.8-3.7 2.2-5c1.5-1.2 3.4-1.9 5.8-1.9c3.2 0 6 1 8.5 2.9l-2.6 3.8c-2.2-1.5-4.2-2.2-6-2.2c-.9 0-1.6.1-2.1.5c-.5.4-.8.9-.8 1.4v.1c0 .7.3 1.3.9 1.7c.7.3 2 .8 4 1.3c2.5.7 4.3 1.5 5.5 2.5c1.2 1 1.7 2.4 1.7 4.3v.1c0 2.2-.7 3.9-2.2 5.2c-1.6 1.2-3.6 1.9-6.1 1.9zm12.9-.4V40h5v22.7h-5zm31.4-3.2c-2.8 2.4-6.1 3.6-9.7 3.6c-3.5 0-6.4-1.1-8.6-3.3c-2.3-2.2-3.4-5-3.4-8.4v-.1c0-3.2 1.2-6 3.4-8.3c2.3-2.3 5.2-3.4 8.6-3.4c1.9 0 3.6.2 5 .7c1.4.5 2.7 1.3 3.9 2.4l-3.1 3.8c-1-.8-1.9-1.4-2.8-1.7c-.9-.4-2-.6-3.2-.6c-1.8 0-3.4.7-4.6 2.1c-1.3 1.4-1.9 3-1.9 5c0 2.1.6 3.9 1.9 5.2c1.3 1.4 2.9 2.1 5 2.1c1.8 0 3.4-.5 4.7-1.4c-.02 0 0-3.3 0-3.3h-5.1v-4.3h9.9v9.9s.03.01 0 0zm4.8 3.2V40h4.7l10.6 14v-14h5v22.7h-4.3l-11-14.4v14.4h-5z" stroke="none" fill="#000"/></g><g id="Polygon364962"><path d="m2.7 26V3.3h5v18.2h11.4v4.5H2.7zm20.2 0V3.3h17.2v4.4H27.9v4.6h10.7v4.5H27.9v4.8h12.3v4.4H22.9zm31.5 0V3.3h17.4v4.5H59.4v4.9h10.9v4.5H59.4v8.8h-5zm21.4 0V3.3H93v4.4H80.8v4.6h10.7v4.5H80.8v4.8h12.3v4.4H75.8zm41.3-9.9c0 3.4-.9 6-2.7 7.7c-1.7 1.7-4.2 2.6-7.3 2.6c-3.1 0-5.6-.9-7.3-2.6c-1.7-1.7-2.6-4.2-2.6-7.5c.03-.03 0-13 0-13h5s.04 12.84 0 12.8c0 1.9.5 3.3 1.3 4.2c.9 1 2.1 1.5 3.6 1.5c1.6 0 2.8-.5 3.7-1.4c.8-.9 1.3-2.3 1.3-4.1c-.04 0 0-13 0-13h5v12.8s-.03.01 0 0z" stroke="none" fill="#000"/></g></svg>