<?xml version="1.0" standalone="no"?><!DOCTYPE svg PUBLIC "-//W3C//DTD SVG 1.1//EN" "http://www.w3.org/Graphics/SVG/1.1/DTD/svg11.dtd"><svg xmlns="http://www.w3.org/2000/svg" version="1.1" width="325px" height="23.8px" viewBox="0 -3 325 23.8" style="top:-3px"><desc>Do adan ilham alan bu model, t m y zeylerde kusursuz bir denge sunar.</desc><defs/><g id="Polygon368165"><path d="m.9 7.2V.9h2.1c1 0 1.8.3 2.4.9c.7.6 1 1.3 1 2.2c0 .9-.3 1.7-1 2.3c-.6.6-1.4.9-2.4.9H.9zM3 1.3c.03.03-1.6 0-1.6 0v5.5s1.63-.03 1.6 0c.9 0 1.6-.3 2.1-.8c.5-.5.8-1.2.8-1.9v-.1c0-.7-.3-1.4-.8-1.9c-.5-.5-1.2-.8-2.1-.8zm9.3 3.6c0 .7-.3 1.2-.7 1.7c-.5.5-1 .7-1.7.7c-.7 0-1.2-.2-1.7-.7c-.4-.5-.6-1-.6-1.7c0-.6.2-1.2.6-1.7c.5-.5 1.1-.7 1.7-.7c.7 0 1.3.2 1.7.7c.5.5.7 1 .7 1.7c-.02-.01 0 0 0 0c0 0-.02 0 0 0zm-2.4 2c.6 0 1-.2 1.4-.6c.3-.4.5-.8.5-1.4c0-.6-.2-1-.6-1.4c-.3-.4-.8-.6-1.3-.6c-.5 0-1 .2-1.3.6c-.4.4-.6.8-.6 1.4c0 .6.2 1 .6 1.4c.4.4.8.6 1.3.6zM17.3 8c-.4.5-.9.7-1.6.7c-.8 0-1.5-.3-2.2-.7l.3-.4c.6.4 1.2.6 1.9.6c.5 0 .9-.1 1.3-.4c.3-.3.5-.8.5-1.3v-.7c-.5.7-1.2 1.1-2 1.1c-.5 0-1.1-.2-1.5-.6c-.4-.5-.7-1-.7-1.6c0-.7.3-1.2.7-1.6c.4-.4 1-.6 1.5-.6c.8 0 1.5.3 2 1c-.04.03 0-.9 0-.9h.4v3.9c0 .6-.2 1.2-.6 1.5zm-1.7-1.6c.5 0 .9-.1 1.3-.5c.4-.3.6-.7.6-1.2c0-.5-.2-1-.6-1.3c-.4-.3-.8-.5-1.3-.5c-.5 0-.9.2-1.3.5c-.3.3-.5.7-.5 1.3c0 .5.2.9.5 1.2c.4.4.8.5 1.3.5zM17 .9c0 .3-.2.5-.4.7c-.2.2-.5.3-.8.3c-.4 0-.6-.1-.9-.3c-.2-.2-.3-.4-.3-.7h.3c.2.3.4.5.9.5c.4 0 .7-.2.8-.5c.03-.05.4 0 .4 0c0 0-.02-.05 0 0zm5.7 5.5c-.4.6-1 .9-1.7.9c-.5 0-.9-.1-1.3-.4c-.3-.2-.5-.6-.5-1v-.1c0-.4.2-.8.5-1.1c.4-.2.9-.3 1.5-.3c.5 0 1 0 1.5.2v-.2c0-.5-.1-.9-.4-1.1c-.2-.2-.6-.3-1.1-.3c-.5 0-.9.1-1.4.3l-.2-.4c.6-.2 1.1-.4 1.6-.4c.7 0 1.2.2 1.5.5c.3.4.5.8.5 1.3c-.04.04 0 2.9 0 2.9h-.5v-.8s.02.03 0 0zm-1.7.5c.5 0 .9-.1 1.2-.4c.4-.3.5-.6.5-1v-.5c-.5-.2-1-.2-1.5-.2c-.5 0-.9 0-1.1.2c-.3.2-.4.5-.4.8c0 .4.1.6.4.8c.2.2.5.3.9.3zm7.6-.7c-.5.7-1.2 1.1-1.9 1.1c-.6 0-1.1-.2-1.6-.6c-.4-.5-.7-1.1-.7-1.8c0-.7.3-1.3.7-1.7c.5-.5 1-.7 1.6-.7c.7 0 1.4.4 1.9 1.1c-.03 0 0-3 0-3h.4v6.6h-.4v-1s-.03-.03 0 0zm-3.7-1.3c0 .6.2 1.1.5 1.4c.4.4.8.6 1.3.6c.5 0 1-.2 1.3-.6c.4-.3.6-.8.6-1.4c0-.6-.2-1-.6-1.4c-.3-.4-.8-.6-1.3-.6c-.5 0-.9.2-1.3.6c-.3.3-.5.8-.5 1.4c.02-.01 0 0 0 0c0 0 .02 0 0 0zm8.9 1.5c-.4.6-1 .9-1.7.9c-.5 0-.9-.1-1.3-.4c-.3-.2-.5-.6-.5-1v-.1c0-.4.2-.8.6-1.1c.3-.2.8-.3 1.4-.3c.5 0 1 0 1.5.2v-.2c0-.5-.1-.9-.4-1.1c-.2-.2-.6-.3-1.1-.3c-.5 0-.9.1-1.4.3l-.2-.4c.6-.2 1.1-.4 1.6-.4c.7 0 1.2.2 1.5.5c.3.4.5.8.5 1.3c-.04.04 0 2.9 0 2.9h-.5v-.8s.03.03 0 0zm-1.7.5c.5 0 .9-.1 1.2-.4c.4-.3.5-.6.5-1v-.5c-.5-.2-1-.2-1.5-.2c-.5 0-.9 0-1.1.2c-.3.2-.4.5-.4.8c0 .4.1.6.4.8c.2.2.5.3.9.3zm3.7.3V2.6h.5s-.01.86 0 .9c.4-.7.9-1 1.6-1c.6 0 1.1.2 1.4.5c.3.4.5.8.5 1.4c-.02-.01 0 2.8 0 2.8h-.5s.04-2.73 0-2.7c0-.5-.1-.9-.3-1.2c-.3-.3-.7-.4-1.1-.4c-.5 0-.9.2-1.2.5c-.3.3-.4.7-.4 1.1v2.7h-.5zm8.3-5.8v-.6h.5v.6h-.5zm0 5.8V2.6h.5v4.6h-.5zm2.3 0V.6h.4v6.6h-.4zm2.1 0V.6h.5v2.9c.4-.7.9-1 1.6-1c.6 0 1.1.2 1.4.5c.3.4.5.8.5 1.4c-.02-.01 0 2.8 0 2.8h-.5s.04-2.73 0-2.7c0-.5-.1-.9-.3-1.2c-.3-.3-.7-.4-1.1-.4c-.5 0-.9.2-1.2.5c-.3.3-.4.7-.4 1.1v2.7h-.5zm8.7-.8c-.4.6-1 .9-1.7.9c-.5 0-.9-.1-1.3-.4c-.3-.2-.5-.6-.5-1v-.1c0-.4.2-.8.5-1.1c.4-.2.9-.3 1.5-.3c.5 0 1 0 1.5.2v-.2c0-.5-.1-.9-.4-1.1c-.2-.2-.6-.3-1.1-.3c-.5 0-1 .1-1.4.3l-.2-.4c.5-.2 1.1-.4 1.6-.4c.7 0 1.1.2 1.5.5c.3.4.4.8.4 1.3c.04.04 0 2.9 0 2.9h-.4v-.8s.01.03 0 0zm-1.7.5c.5 0 .9-.1 1.2-.4c.4-.3.5-.6.5-1v-.5c-.5-.2-1-.2-1.5-.2c-.5 0-.9 0-1.2.2c-.2.2-.3.5-.3.8c0 .4.1.6.3.8c.3.2.6.3 1 .3zm3.7.3V2.6h.5s-.03.83 0 .8c.3-.6.9-.9 1.5-.9c.7 0 1.2.3 1.5 1c.4-.7 1-1 1.7-1c.5 0 1 .2 1.3.5c.3.4.5.8.5 1.4c-.03.02 0 2.8 0 2.8h-.5s.03-2.73 0-2.7c0-.5-.1-.9-.3-1.2c-.3-.3-.6-.4-1-.4c-.4 0-.8.2-1.1.4c-.2.3-.4.7-.4 1.2c.02.03 0 2.7 0 2.7h-.4s-.02-2.75 0-2.8c0-.4-.1-.8-.4-1.1c-.2-.3-.5-.4-1-.4c-.4 0-.7.2-1 .5c-.3.3-.4.7-.4 1.2c-.03-.05 0 2.6 0 2.6h-.5zm14.4-.8c-.4.6-1 .9-1.8.9c-.4 0-.8-.1-1.2-.4c-.3-.2-.5-.6-.5-1v-.1c0-.4.2-.8.5-1.1c.4-.2.9-.3 1.5-.3c.5 0 1 0 1.5.2v-.2c0-.5-.1-.9-.4-1.1c-.3-.2-.6-.3-1.1-.3c-.5 0-1 .1-1.5.3l-.1-.4c.5-.2 1.1-.4 1.6-.4c.6 0 1.1.2 1.5.5c.3.4.4.8.4 1.3c.03.04 0 2.9 0 2.9h-.4v-.8s0 .03 0 0zm-1.7.5c.5 0 .9-.1 1.2-.4c.3-.3.5-.6.5-1v-.5c-.5-.2-1-.2-1.5-.2c-.5 0-.9 0-1.2.2c-.2.2-.4.5-.4.8c0 .4.2.6.4.8c.3.2.6.3 1 .3zm3.8.3V.6h.4v6.6h-.4zm5.3-.8c-.4.6-1 .9-1.7.9c-.5 0-.9-.1-1.3-.4c-.3-.2-.5-.6-.5-1v-.1c0-.4.2-.8.5-1.1c.4-.2.9-.3 1.5-.3c.5 0 1 0 1.5.2v-.2c0-.5-.1-.9-.4-1.1c-.3-.2-.6-.3-1.1-.3c-.5 0-1 .1-1.4.3l-.2-.4c.5-.2 1.1-.4 1.6-.4c.7 0 1.1.2 1.5.5c.3.4.4.8.4 1.3c.04.04 0 2.9 0 2.9h-.4v-.8s.01.03 0 0zm-1.7.5c.5 0 .9-.1 1.2-.4c.3-.3.5-.6.5-1v-.5c-.5-.2-1-.2-1.5-.2c-.5 0-.9 0-1.2.2c-.2.2-.4.5-.4.8c0 .4.2.6.4.8c.3.2.6.3 1 .3zm3.7.3V2.6h.5s-.04.86 0 .9c.3-.7.9-1 1.6-1c.6 0 1 .2 1.4.5c.3.4.5.8.5 1.4c-.04-.01 0 2.8 0 2.8h-.5s.02-2.73 0-2.7c0-.5-.1-.9-.4-1.2c-.2-.3-.6-.4-1-.4c-.5 0-.9.2-1.2.5c-.3.3-.4.7-.4 1.1c-.04.04 0 2.7 0 2.7h-.5zm10.6.1c-.8 0-1.4-.4-1.9-1.1c-.02.01 0 1 0 1h-.5V.6h.5s-.02 3.04 0 3c.5-.7 1.1-1.1 1.9-1.1c.6 0 1.1.2 1.5.7c.5.4.7 1 .7 1.7c0 .7-.2 1.3-.7 1.7c-.4.5-.9.7-1.5.7zm-.1-.4c.5 0 1-.2 1.3-.5c.4-.4.5-.9.5-1.5c0-.6-.1-1.1-.5-1.4c-.4-.4-.8-.6-1.3-.6c-.5 0-.9.2-1.3.6c-.4.4-.5.8-.5 1.4c0 .6.1 1.1.5 1.4c.4.4.8.6 1.3.6zm7.1-.6c-.4.7-.9 1-1.7 1c-.5 0-1-.2-1.3-.5c-.3-.4-.5-.8-.5-1.4V2.6h.4s.03 2.74 0 2.7c0 .5.2.9.4 1.2c.3.3.6.4 1.1.4c.4 0 .8-.2 1.1-.5c.3-.3.5-.7.5-1.1c-.02-.04 0-2.7 0-2.7h.4v4.6h-.4v-.9s-.02.04 0 0zm4.8.9V2.6h.4s.04.83 0 .8c.4-.6.9-.9 1.6-.9c.7 0 1.2.3 1.5 1c.4-.7 1-1 1.7-1c.5 0 .9.2 1.3.5c.3.4.4.8.4 1.4c.04.02 0 2.8 0 2.8h-.4V4.5c0-.5-.1-.9-.4-1.2c-.2-.3-.5-.4-1-.4c-.4 0-.7.2-1 .4c-.3.3-.4.7-.4 1.2v2.7h-.5s.05-2.75 0-2.8c0-.4-.1-.8-.3-1.1c-.3-.3-.6-.4-1-.4c-.4 0-.8.2-1 .5c-.3.3-.5.7-.5 1.2c.04-.05 0 2.6 0 2.6h-.4zm12.9-2.3c0 .7-.2 1.2-.7 1.7c-.4.5-1 .7-1.6.7c-.7 0-1.3-.2-1.7-.7c-.5-.5-.7-1-.7-1.7c0-.6.2-1.2.7-1.7c.4-.5 1-.7 1.7-.7c.6 0 1.2.2 1.7.7c.4.5.6 1 .6 1.7c.02-.01 0 0 0 0c0 0 .02 0 0 0zm-2.3 2c.5 0 1-.2 1.3-.6c.4-.4.5-.8.5-1.4c0-.6-.1-1-.5-1.4c-.4-.4-.8-.6-1.3-.6c-.6 0-1 .2-1.4.6c-.3.4-.5.8-.5 1.4c0 .6.2 1 .5 1.4c.4.4.8.6 1.4.6zm7.5-.7c-.5.7-1.1 1.1-1.9 1.1c-.6 0-1.1-.2-1.5-.6c-.5-.5-.7-1.1-.7-1.8c0-.7.2-1.3.7-1.7c.4-.5.9-.7 1.5-.7c.8 0 1.4.4 1.9 1.1v-3h.4v6.6h-.4v-1s.01-.03 0 0zm-3.6-1.3c0 .6.1 1.1.5 1.4c.3.4.8.6 1.3.6c.5 0 .9-.2 1.3-.6c.3-.3.5-.8.5-1.4c0-.6-.2-1-.5-1.4c-.4-.4-.8-.6-1.3-.6c-.6 0-1 .2-1.3.6c-.4.3-.5.8-.5 1.4c-.04-.01 0 0 0 0c0 0-.04 0 0 0zm9.6 1.5c-.6.6-1.2.9-1.9.9c-.7 0-1.2-.2-1.6-.7c-.5-.4-.7-1-.7-1.7c0-.7.2-1.2.6-1.7c.4-.5 1-.7 1.6-.7c.6 0 1.1.2 1.5.7c.4.4.6 1 .6 1.7v.2h-3.8c0 .5.2 1 .5 1.3c.4.3.8.5 1.3.5c.6 0 1.1-.2 1.5-.7c.05-.03.4.2.4.2c0 0-.05.04 0 0zm-3.7-1.7h3.3c0-.5-.2-.9-.5-1.3c-.2-.3-.6-.5-1.1-.5c-.5 0-.9.2-1.2.5c-.3.4-.5.8-.5 1.3zm5.1 2.5V.6h.5v6.6h-.5zm2 1l-.1-.3c.2-.1.3-.2.4-.3c0-.1.1-.2.1-.4h-.3v-.8h.6v.7c0 .3 0 .5-.2.7c-.1.1-.3.3-.5.4zm7.3-1.1c-.3.1-.5.2-.8.2c-.4 0-.7-.1-.9-.3c-.3-.2-.4-.6-.4-1c.03.02 0-3 0-3h-.6v-.4h.6V1.1h.5v1.5h1.6v.4h-1.6s-.03 2.98 0 3c0 .6.3.9.9.9c.2 0 .4-.1.7-.2c-.04 0 0 .4 0 .4c0 0-.04.02 0 0zm4.7-.8c-.4.7-.9 1-1.7 1c-.5 0-1-.2-1.3-.5c-.3-.4-.5-.8-.5-1.4V2.6h.4s.04 2.74 0 2.7c0 .5.2.9.4 1.2c.3.3.6.4 1.1.4c.5 0 .8-.2 1.1-.5c.3-.3.5-.7.5-1.1V2.6h.4v4.6h-.4v-.9s-.01.04 0 0zm-1.1-4.5v-.7h.6v.7h-.6zm-1.5 0v-.7h.6v.7h-.6zm4.7 5.4V2.6h.4s.04.83 0 .8c.4-.6.9-.9 1.6-.9c.7 0 1.2.3 1.5 1c.4-.7 1-1 1.7-1c.5 0 .9.2 1.3.5c.3.4.4.8.4 1.4c.04.02 0 2.8 0 2.8h-.4V4.5c0-.5-.1-.9-.4-1.2c-.2-.3-.5-.4-1-.4c-.4 0-.7.2-1 .4c-.3.3-.4.7-.4 1.2v2.7h-.4s-.05-2.75 0-2.8c0-.4-.2-.8-.4-1.1c-.2-.3-.6-.4-1-.4c-.4 0-.8.2-1 .5c-.3.3-.5.7-.5 1.2c.04-.05 0 2.6 0 2.6h-.4zm13.2-.5l1.6-4.1h.5l-2 4.8c-.2.4-.4.8-.6 1c-.3.2-.6.3-.9.3c-.3 0-.6-.1-.9-.2l.1-.4c.3.1.5.2.8.2c.3 0 .5-.1.6-.3c.2-.2.4-.4.5-.8c.05-.03-2.2-4.6-2.2-4.6h.6l1.9 4.1zm6.7-.4c-.4.7-.9 1-1.6 1c-.6 0-1.1-.2-1.4-.5c-.3-.4-.5-.8-.5-1.4c.03.02 0-2.8 0-2.8h.5s-.03 2.74 0 2.7c0 .5.1.9.4 1.2c.2.3.6.4 1 .4c.5 0 .9-.2 1.2-.5c.3-.3.4-.7.4-1.1c.02-.04 0-2.7 0-2.7h.5v4.6h-.5v-.9s.02.04 0 0zm-1.1-4.5v-.7h.6v.7h-.6zm-1.5 0v-.7h.7v.7h-.7zm4.4 5.4v-.3L172 3h-3.2v-.4h3.9v.3l-3.3 3.9h3.3v.4h-4zm9-.8c-.5.6-1.1.9-1.9.9c-.6 0-1.1-.2-1.6-.7c-.4-.4-.6-1-.6-1.7c0-.7.2-1.2.6-1.7c.4-.5.9-.7 1.5-.7c.7 0 1.2.2 1.6.7c.4.4.6 1 .6 1.7c0 .1 0 .1-.1.2H174c.1.5.3 1 .6 1.3c.4.3.8.5 1.2.5c.6 0 1.2-.2 1.6-.7c.01-.03.3.2.3.2c0 0 .02.04 0 0zM174 4.7h3.4c-.1-.5-.2-.9-.5-1.3c-.3-.3-.7-.5-1.2-.5c-.4 0-.8.2-1.1.5c-.3.4-.5.8-.6 1.3zm6.9 2l1.6-4.1h.5l-2 4.8c-.2.4-.4.8-.7 1c-.2.2-.5.3-.8.3c-.3 0-.6-.1-.9-.2l.1-.4c.3.1.5.2.8.2c.2 0 .5-.1.6-.3c.2-.2.4-.4.5-.8c.04-.03-2.2-4.6-2.2-4.6h.5l2 4.1zm3.4.5V.6h.4v6.6h-.4zm6-.8c-.5.6-1.2.9-1.9.9c-.6 0-1.2-.2-1.6-.7c-.4-.4-.7-1-.7-1.7c0-.7.2-1.2.7-1.7c.4-.5.9-.7 1.5-.7c.6 0 1.2.2 1.5.7c.4.4.6 1 .6 1.7v.2h-3.8c0 .5.2 1 .6 1.3c.3.3.7.5 1.2.5c.6 0 1.1-.2 1.6-.7c-.02-.03.3.2.3.2c0 0-.02.04 0 0zm-3.7-1.7h3.3c0-.5-.2-.9-.4-1.3c-.3-.3-.7-.5-1.2-.5c-.5 0-.8.2-1.2.5c-.3.4-.5.8-.5 1.3zm5.1 2.5V2.6h.4s.05 1.31 0 1.3c.2-.4.5-.8.9-1c.3-.3.7-.4 1.2-.4c-.02.04 0 .5 0 .5c0 0-.06.02-.1 0c-.5 0-1 .2-1.4.6c-.4.4-.6 1-.6 1.7c.05.02 0 1.9 0 1.9h-.4zm7.2-1c-.5.7-1.1 1.1-1.9 1.1c-.6 0-1.1-.2-1.5-.6c-.5-.5-.7-1.1-.7-1.8c0-.7.2-1.3.7-1.7c.4-.5.9-.7 1.5-.7c.8 0 1.4.4 1.9 1.1v-3h.4v6.6h-.4v-1s.01-.03 0 0zm-3.6-1.3c0 .6.1 1.1.5 1.4c.3.4.8.6 1.3.6c.5 0 .9-.2 1.3-.6c.3-.3.5-.8.5-1.4c0-.6-.2-1-.5-1.4c-.4-.4-.8-.6-1.3-.6c-.6 0-1 .2-1.3.6c-.4.3-.5.8-.5 1.4c-.04-.01 0 0 0 0c0 0-.04 0 0 0zm9.6 1.5c-.6.6-1.2.9-1.9.9c-.7 0-1.2-.2-1.6-.7c-.5-.4-.7-1-.7-1.7c0-.7.2-1.2.6-1.7c.4-.5 1-.7 1.6-.7c.6 0 1.1.2 1.5.7c.4.4.6 1 .6 1.7v.2h-3.8c0 .5.2 1 .6 1.3c.3.3.7.5 1.2.5c.6 0 1.1-.2 1.5-.7c.05-.03.4.2.4.2c0 0-.04.04 0 0zm-3.7-1.7h3.3c0-.5-.2-.9-.5-1.3c-.2-.3-.6-.5-1.1-.5c-.5 0-.9.2-1.2.5c-.3.4-.5.8-.5 1.3zm7.8 2.5V.6h.4v5l2.9-3h.5l-2 2l2.1 2.6h-.5L210.5 5l-1.1 1.1v1.1h-.4zm8.3-.9c-.3.7-.9 1-1.6 1c-.6 0-1-.2-1.4-.5c-.3-.4-.5-.8-.5-1.4c.04.02 0-2.8 0-2.8h.5s-.02 2.74 0 2.7c0 .5.1.9.4 1.2c.2.3.6.4 1 .4c.5 0 .9-.2 1.2-.5c.3-.3.4-.7.4-1.1c.03-.04 0-2.7 0-2.7h.5v4.6h-.5v-.9s.03.04 0 0zm3.6 1c-.7 0-1.3-.2-1.9-.7l.3-.3c.5.4 1.1.6 1.7.6c.3 0 .5-.1.7-.3c.3-.1.4-.3.4-.6c0-.1-.1-.3-.1-.4c-.1-.1-.2-.1-.3-.2c-.1-.1-.3-.1-.4-.2c-.1 0-.3-.1-.5-.1c-.2-.1-.3-.1-.4-.2c-.1 0-.2-.1-.4-.1c-.2-.1-.3-.2-.4-.3c-.1 0-.2-.1-.2-.3c-.1-.1-.1-.2-.1-.4c0-.4.1-.7.4-.9c.3-.3.6-.4 1.1-.4c.6 0 1.1.2 1.6.5l-.2.4c-.5-.3-1-.5-1.4-.5c-.3 0-.6.1-.8.3c-.2.1-.3.3-.3.5v.1c0 .1.1.2.1.3c.1.1.2.1.3.2c.2.1.3.1.4.2c.1 0 .3.1.5.1c.2.1.4.2.6.2c.1.1.3.2.4.3c.2.1.3.2.4.3c.1.2.1.3.1.5c0 .5-.1.8-.4 1c-.3.3-.7.4-1.2.4zm6.4-1c-.4.7-.9 1-1.6 1c-.6 0-1.1-.2-1.4-.5c-.3-.4-.5-.8-.5-1.4c.03.02 0-2.8 0-2.8h.5s-.03 2.74 0 2.7c0 .5.1.9.4 1.2c.2.3.6.4 1 .4c.5 0 .9-.2 1.2-.5c.3-.3.4-.7.4-1.1c.02-.04 0-2.7 0-2.7h.5v4.6h-.5v-.9s.02.04 0 0zm2.1.9V2.6h.5s-.03 1.31 0 1.3c.2-.4.4-.8.8-1c.4-.3.8-.4 1.2-.4v.5s-.04.02 0 0c-.6 0-1.1.2-1.4.6c-.4.4-.6 1-.6 1.7c-.03.02 0 1.9 0 1.9h-.5zm5.1.1c-.7 0-1.3-.2-1.9-.7l.3-.3c.5.4 1.1.6 1.6.6c.4 0 .6-.1.8-.3c.2-.1.4-.3.4-.6c0-.1-.1-.3-.1-.4c-.1-.1-.2-.1-.3-.2c-.2-.1-.3-.1-.4-.2c-.1 0-.3-.1-.5-.1c-.2-.1-.3-.1-.4-.2c-.1 0-.3-.1-.4-.1c-.2-.1-.3-.2-.4-.3c-.1 0-.2-.1-.2-.3c-.1-.1-.1-.2-.1-.4c0-.4.1-.7.4-.9c.3-.3.6-.4 1.1-.4c.6 0 1.1.2 1.6.5l-.2.4c-.5-.3-1-.5-1.4-.5c-.4 0-.6.1-.8.3c-.2.1-.3.3-.3.5v.1c0 .1 0 .2.1.3c.1.1.2.1.3.2c.2.1.3.1.4.2c.1 0 .3.1.5.1c.2.1.4.2.6.2c.1.1.2.2.4.3c.2.1.3.2.4.3c.1.2.1.3.1.5c0 .5-.1.8-.4 1c-.3.3-.7.4-1.2.4zm6.4-1c-.4.7-.9 1-1.6 1c-.6 0-1.1-.2-1.4-.5c-.3-.4-.5-.8-.5-1.4c.02.02 0-2.8 0-2.8h.5s-.04 2.74 0 2.7c0 .5.1.9.3 1.2c.3.3.7.4 1.1.4c.5 0 .9-.2 1.2-.5c.3-.3.4-.7.4-1.1V2.6h.4v4.6h-.4v-.9s.01.04 0 0zm1.8.9v-.3L246 3h-3.2v-.4h3.9v.3l-3.3 3.9h3.3v.4h-4zm10.3.1c-.7 0-1.4-.4-1.8-1.1c-.05.01 0 1 0 1h-.5V.6h.5s-.05 3.04 0 3c.4-.7 1.1-1.1 1.8-1.1c.6 0 1.1.2 1.6.7c.4.4.7 1 .7 1.7c0 .7-.3 1.3-.7 1.7c-.5.5-1 .7-1.6.7zm0-.4c.5 0 .9-.2 1.3-.5c.3-.4.5-.9.5-1.5c0-.6-.2-1.1-.5-1.4c-.4-.4-.8-.6-1.3-.6c-.5 0-.9.2-1.3.6c-.4.4-.6.8-.6 1.4c0 .6.2 1.1.6 1.4c.4.4.8.6 1.3.6zm3.7-5.5v-.6h.5v.6h-.5zm0 5.8V2.6h.5v4.6h-.5zm2.2 0V2.6h.4s.03 1.31 0 1.3c.2-.4.5-.8.9-1c.3-.3.7-.4 1.2-.4c-.03.04 0 .5 0 .5c0 0-.08.02-.1 0c-.5 0-1 .2-1.4.6c-.4.4-.6 1-.6 1.7c.03.02 0 1.9 0 1.9h-.4zm10.1-1c-.5.7-1.1 1.1-1.9 1.1c-.6 0-1.1-.2-1.5-.6c-.5-.5-.7-1.1-.7-1.8c0-.7.2-1.3.7-1.7c.4-.5.9-.7 1.5-.7c.8 0 1.4.4 1.9 1.1c.02 0 0-3 0-3h.5v6.6h-.5v-1s.02-.03 0 0zm-3.6-1.3c0 .6.1 1.1.5 1.4c.3.4.8.6 1.3.6c.5 0 .9-.2 1.3-.6c.4-.3.5-.8.5-1.4c0-.6-.1-1-.5-1.4c-.4-.4-.8-.6-1.3-.6c-.5 0-1 .2-1.3.6c-.4.3-.5.8-.5 1.4c-.03-.01 0 0 0 0c0 0-.03 0 0 0zm9.6 1.5c-.6.6-1.2.9-1.9.9c-.7 0-1.2-.2-1.6-.7c-.5-.4-.7-1-.7-1.7c0-.7.2-1.2.6-1.7c.5-.5 1-.7 1.6-.7c.6 0 1.1.2 1.5.7c.4.4.6 1 .6 1.7v.2h-3.8c0 .5.2 1 .6 1.3c.3.3.7.5 1.2.5c.6 0 1.1-.2 1.6-.7l.3.2s-.04.04 0 0zm-3.7-1.7h3.3c0-.5-.2-.9-.5-1.3c-.2-.3-.6-.5-1.1-.5c-.5 0-.9.2-1.2.5c-.3.4-.5.8-.5 1.3zm5.1 2.5V2.6h.4s.03.86 0 .9c.4-.7 1-1 1.7-1c.6 0 1 .2 1.3.5c.4.4.5.8.5 1.4c.02-.01 0 2.8 0 2.8h-.4s-.02-2.73 0-2.7c0-.5-.1-.9-.4-1.2c-.3-.3-.6-.4-1.1-.4c-.4 0-.8.2-1.1.5c-.3.3-.5.7-.5 1.1c.03.04 0 2.7 0 2.7h-.4zm9.2.8c-.4.5-1 .7-1.7.7c-.8 0-1.5-.3-2.1-.7l.3-.4c.5.4 1.1.6 1.8.6c.6 0 1-.1 1.3-.4c.4-.3.5-.8.5-1.3v-.7c-.5.7-1.1 1.1-1.9 1.1c-.6 0-1.1-.2-1.5-.6c-.5-.5-.7-1-.7-1.6c0-.7.2-1.2.7-1.6c.4-.4.9-.6 1.5-.6c.8 0 1.4.3 1.9 1c.03.03 0-.9 0-.9h.5s-.03 3.89 0 3.9c0 .6-.2 1.2-.6 1.5zm-1.7-1.6c.5 0 .9-.1 1.3-.5c.4-.3.6-.7.6-1.2c0-.5-.2-1-.6-1.3c-.4-.3-.8-.5-1.3-.5c-.5 0-1 .2-1.3.5c-.3.3-.5.7-.5 1.3c0 .5.2.9.5 1.2c.4.4.8.5 1.3.5zm7.8 0c-.6.6-1.2.9-1.9.9c-.6 0-1.2-.2-1.6-.7c-.5-.4-.7-1-.7-1.7c0-.7.2-1.2.7-1.7c.4-.5.9-.7 1.5-.7c.6 0 1.1.2 1.5.7c.4.4.6 1 .6 1.7v.2H288c0 .5.2 1 .6 1.3c.3.3.7.5 1.2.5c.6 0 1.1-.2 1.6-.7l.3.2s-.02.04 0 0zM288 4.7h3.3c0-.5-.2-.9-.4-1.3c-.3-.3-.7-.5-1.2-.5c-.5 0-.8.2-1.2.5c-.3.4-.5.8-.5 1.3zm9.3 2.6c-.7 0-1.3-.2-1.9-.7l.3-.3c.5.4 1 .6 1.6.6c.3 0 .6-.1.8-.3c.2-.1.3-.3.3-.6c0-.1 0-.3-.1-.4c0-.1-.1-.1-.3-.2c-.1-.1-.2-.1-.3-.2c-.1 0-.3-.1-.5-.1c-.2-.1-.4-.1-.5-.2c-.1 0-.2-.1-.4-.1c-.1-.1-.3-.2-.3-.3c-.1 0-.2-.1-.3-.3c0-.1-.1-.2-.1-.4c0-.4.2-.7.5-.9c.2-.3.6-.4 1-.4c.6 0 1.2.2 1.7.5l-.3.4c-.4-.3-.9-.5-1.4-.5c-.3 0-.5.1-.7.3c-.2.1-.3.3-.3.5v.1c0 .1 0 .2.1.3c0 .1.1.1.3.2c.1.1.3.1.4.2c.1 0 .2.1.5.1c.2.1.4.2.5.2c.2.1.3.2.5.3c.1.1.3.2.3.3c.1.2.2.3.2.5c0 .5-.2.8-.5 1c-.3.3-.7.4-1.1.4zm6.4-1c-.4.7-1 1-1.7 1c-.6 0-1-.2-1.3-.5c-.4-.4-.5-.8-.5-1.4c-.02.02 0-2.8 0-2.8h.4s.02 2.74 0 2.7c0 .5.1.9.4 1.2c.3.3.6.4 1.1.4c.4 0 .8-.2 1.1-.5c.3-.3.5-.7.5-1.1c-.03-.04 0-2.7 0-2.7h.4v4.6h-.4v-.9s-.03.04 0 0zm2.1.9V2.6h.4s.03.86 0 .9c.4-.7 1-1 1.7-1c.6 0 1 .2 1.3.5c.4.4.5.8.5 1.4c.02-.01 0 2.8 0 2.8h-.4s-.02-2.73 0-2.7c0-.5-.1-.9-.4-1.2c-.3-.3-.6-.4-1.1-.4c-.4 0-.8.2-1.1.5c-.3.3-.5.7-.5 1.1c.03.04 0 2.7 0 2.7h-.4zm8.7-.8c-.5.6-1.1.9-1.8.9c-.5 0-.9-.1-1.2-.4c-.4-.2-.6-.6-.6-1v-.1c0-.4.2-.8.6-1.1c.3-.2.8-.3 1.4-.3c.6 0 1.1 0 1.6.2v-.2c0-.5-.2-.9-.4-1.1c-.3-.2-.7-.3-1.2-.3c-.4 0-.9.1-1.4.3l-.2-.4c.6-.2 1.1-.4 1.7-.4c.6 0 1.1.2 1.4.5c.3.4.5.8.5 1.3v2.9h-.4v-.8s-.04.03 0 0zm-1.8.5c.5 0 .9-.1 1.3-.4c.3-.3.5-.6.5-1v-.5c-.6-.2-1.1-.2-1.6-.2c-.5 0-.8 0-1.1.2c-.3.2-.4.5-.4.8c0 .4.1.6.4.8c.2.2.6.3.9.3zm3.8.3V2.6h.4v1.3c.2-.4.5-.8.8-1c.4-.3.8-.4 1.2-.4c.05.04 0 .5 0 .5c0 0 0 .02 0 0c-.6 0-1 .2-1.4.6c-.4.4-.6 1-.6 1.7v1.9h-.4zm2.7 0v-.8h.6v.8h-.6z" stroke="none" fill="#000"/></g></svg>