<?xml version="1.0" standalone="no"?><!DOCTYPE svg PUBLIC "-//W3C//DTD SVG 1.1//EN" "http://www.w3.org/Graphics/SVG/1.1/DTD/svg11.dtd"><svg xmlns="http://www.w3.org/2000/svg" version="1.1" width="35px" height="13.8px" viewBox="0 -2 35 13.8" style="top:-2px"><desc>S YAH</desc><defs/><g id="Polygon374663"><path d="m1.3 3C.9 3 .5 2.9.2 2.6l.1-.1c.2.1.3.2.5.3c.1 0 .3.1.5.1c.2 0 .3-.1.5-.2c.1-.1.2-.2.2-.4c0-.1-.1-.2-.2-.3c-.1-.1-.3-.2-.6-.2c-.3-.1-.5-.2-.7-.3C.4 1.4.3 1.2.3 1C.3.8.4.7.6.5c.1-.1.3-.2.6-.2c.2 0 .3.1.5.1c.1.1.2.1.4.3L2 .8C1.7.6 1.5.5 1.2.5C1 .5.8.6.7.7C.6.8.5.9.5 1c0 .2.1.3.2.4c.1.1.3.1.6.2c.3.1.5.1.7.3c.1.1.2.2.2.4c0 .2-.1.4-.3.5c-.2.2-.4.2-.6.2zm1.5 0V.4h.2v2.6h-.2zm0-2.9v-.3h.3v.3h-.3zM4.7 3v-1L3.6.4h.2l1 1.4l1-1.4h.2L4.9 2v1h-.2zm1.2 0L7.1.4h.2L8.5 3h-.2L8 2.3H6.4l-.3.7h-.2zm.6-.9h1.4L7.2.6l-.7 1.5zm2.6.9V.4h.2v1.2h1.7V.4h.2v2.6h-.2V1.8H9.3v1.2h-.2z" stroke="none" fill="#000"/></g></svg>