<?xml version="1.0" standalone="no"?><!DOCTYPE svg PUBLIC "-//W3C//DTD SVG 1.1//EN" "http://www.w3.org/Graphics/SVG/1.1/DTD/svg11.dtd"><svg xmlns="http://www.w3.org/2000/svg" version="1.1" width="173px" height="30.5px" viewBox="0 -3 173 30.5" style="top:-3px"><desc>ELEKTR E GEREK YOK Baca veya havaland rma gerektirmez</desc><defs/><g id="Polygon365280"><path d="m19.3 16v-5.3s2.24.05 2.2 0c.6 0 1.1.2 1.4.5c.2.2.3.5.3.8v.1c0 .5-.2.9-.8 1.2c.8.2 1.1.6 1.1 1.2c0 .5-.1.8-.5 1.1c-.3.2-.8.4-1.4.4c.03-.03-2.3 0-2.3 0zm3.3-3.9c0-.2-.1-.4-.3-.6c-.2-.1-.4-.2-.8-.2c-.02-.02-1.6 0-1.6 0v1.8s1.54-.03 1.5 0c.4 0 .7-.1.9-.3c.2-.1.3-.4.3-.7zm.3 2.4c0-.3-.1-.5-.3-.7c-.3-.1-.6-.2-1.1-.2h-1.6v1.8s1.75.04 1.7 0c.5 0 .8 0 1-.2c.2-.2.3-.4.3-.7zm4.2.9c-.3.4-.8.6-1.3.6c-.4 0-.8-.1-1.1-.3c-.2-.2-.4-.5-.4-.9c0-.4.2-.7.5-.9c.3-.2.7-.3 1.2-.3c.4 0 .7 0 1.1.2v-.2c0-.3-.1-.6-.3-.8c-.2-.1-.4-.2-.8-.2c-.4 0-.8.1-1.2.2l-.1-.4c.4-.2.9-.3 1.4-.3c.5 0 .9.1 1.2.4c.3.2.4.6.4 1.1v2.4h-.6v-.6s.05-.01 0 0zm-1.2.2c.3 0 .6-.1.9-.3c.2-.2.4-.4.4-.8v-.3c-.4-.1-.8-.2-1.2-.2c-.3 0-.6.1-.8.2c-.2.2-.3.4-.3.6c0 .3.1.4.3.6c.2.1.4.2.7.2zm6.3-.3c-.4.5-.9.8-1.5.8c-.6 0-1.1-.2-1.5-.6c-.3-.4-.5-.9-.5-1.4v-.1c0-.5.2-1 .5-1.4c.4-.4.9-.6 1.5-.6c.6 0 1.1.3 1.5.7l-.4.4c-.3-.4-.7-.6-1.1-.6c-.4 0-.8.2-1 .5c-.3.3-.4.6-.4 1c0 .5.1.8.4 1.1c.2.3.6.4 1 .4c.4 0 .8-.1 1.2-.5l.3.3s.03.01 0 0zm3.5.1c-.3.4-.8.6-1.4.6c-.4 0-.7-.1-1-.3c-.3-.2-.4-.5-.4-.9c0-.4.1-.7.4-.9c.3-.2.7-.3 1.2-.3c.4 0 .8 0 1.2.2v-.2c0-.3-.1-.6-.3-.8c-.2-.1-.5-.2-.8-.2c-.4 0-.8.1-1.2.2l-.2-.4c.5-.2 1-.3 1.4-.3c.6 0 1 .1 1.3.4c.2.2.4.6.4 1.1c-.02.01 0 2.4 0 2.4h-.6v-.6s.02-.01 0 0zm-1.3.2c.4 0 .7-.1 1-.3c.2-.2.3-.4.3-.8v-.3c-.4-.1-.7-.2-1.1-.2c-.4 0-.6.1-.8.2c-.2.2-.3.4-.3.6c0 .3.1.4.3.6c.1.1.4.2.6.2zm6.6.4l-1.6-3.9h.6l1.3 3.2l1.3-3.2h.6L41.5 16h-.5zm6.2-.7c-.5.5-1 .8-1.6.8c-.6 0-1-.2-1.4-.6c-.4-.4-.5-.9-.5-1.5c0-.5.1-1 .5-1.4c.3-.4.8-.6 1.3-.6c.6 0 1 .2 1.3.6c.3.4.5.9.5 1.5v.2h-3.1c.1.4.2.7.5.9c.2.2.5.4.9.4c.4 0 .9-.2 1.2-.6l.4.3s-.04.03 0 0zm-3-1.5h2.5c0-.3-.1-.7-.3-.9c-.3-.3-.5-.4-.9-.4c-.3 0-.6.1-.9.4c-.2.2-.3.5-.4.9zm5.6 1.5l1.2-3.2h.6l-1.6 4c-.2.4-.3.7-.5.8c-.2.2-.5.3-.8.3c-.3 0-.5-.1-.8-.2l.2-.5c.2.1.4.2.6.2c.2 0 .3-.1.4-.2c.2-.1.3-.3.4-.5l-1.8-3.9h.7l1.4 3.2zm5.1.1c-.4.4-.8.6-1.4.6c-.4 0-.7-.1-1-.3c-.3-.2-.5-.5-.5-.9c0-.4.2-.7.5-.9c.3-.2.7-.3 1.2-.3c.4 0 .8 0 1.2.2v-.2c0-.3-.1-.6-.3-.8c-.2-.1-.5-.2-.9-.2c-.4 0-.7.1-1.1.2l-.2-.4c.4-.2.9-.3 1.4-.3c.5 0 1 .1 1.2.4c.3.2.4.6.4 1.1c.04.01 0 2.4 0 2.4h-.5v-.6s-.02-.01 0 0zm-1.3.2c.4 0 .7-.1.9-.3c.3-.2.4-.4.4-.8v-.3c-.4-.1-.8-.2-1.1-.2c-.4 0-.7.1-.9.2c-.2.2-.3.4-.3.6c0 .3.1.4.3.6c.2.1.4.2.7.2zm5.3.4v-5.5h.6s-.03 2.28 0 2.3c.3-.5.7-.8 1.3-.8c.4 0 .8.2 1.1.5c.2.2.4.6.4 1.1c-.03-.03 0 2.4 0 2.4h-.6v-2.3c0-.3-.1-.6-.3-.8c-.2-.2-.4-.3-.8-.3c-.3 0-.6.1-.8.3c-.2.2-.3.5-.3.9c-.03-.04 0 2.2 0 2.2h-.6zm7.1-.6c-.3.4-.8.6-1.4.6c-.3 0-.7-.1-1-.3c-.3-.2-.4-.5-.4-.9c0-.4.2-.7.5-.9c.3-.2.7-.3 1.1-.3c.4 0 .8 0 1.2.2v-.2c0-.3-.1-.6-.3-.8c-.2-.1-.4-.2-.8-.2c-.4 0-.8.1-1.2.2l-.2-.4c.5-.2 1-.3 1.4-.3c.6 0 1 .1 1.3.4c.3.2.4.6.4 1.1v2.4h-.6v-.6s.03-.01 0 0zm-1.2.2c.3 0 .6-.1.9-.3c.2-.2.3-.4.3-.8v-.3c-.3-.1-.7-.2-1.1-.2c-.3 0-.6.1-.8.2c-.2.2-.3.4-.3.6c0 .3.1.4.3.6c.2.1.4.2.7.2zm4.2.4l-1.7-3.9h.6l1.3 3.2l1.3-3.2h.6L69.5 16h-.5zm5.4-.6c-.3.4-.8.6-1.4.6c-.4 0-.7-.1-1-.3c-.3-.2-.4-.5-.4-.9c0-.4.1-.7.4-.9c.3-.2.7-.3 1.2-.3c.4 0 .8 0 1.2.2v-.2c0-.3-.1-.6-.3-.8c-.2-.1-.5-.2-.9-.2c-.3 0-.7.1-1.1.2l-.2-.4c.5-.2.9-.3 1.4-.3c.6 0 1 .1 1.3.4c.2.2.3.6.3 1.1c.05.01 0 2.4 0 2.4h-.5v-.6s0-.01 0 0zm-1.3.2c.4 0 .7-.1.9-.3c.3-.2.4-.4.4-.8v-.3c-.4-.1-.8-.2-1.1-.2c-.4 0-.7.1-.9.2c-.2.2-.3.4-.3.6c0 .3.1.4.3.6c.2.1.4.2.7.2zm3.1.4v-5.5h.6v5.5h-.6zm4.5-.6c-.4.4-.8.6-1.4.6c-.4 0-.7-.1-1-.3c-.3-.2-.5-.5-.5-.9c0-.4.2-.7.5-.9c.3-.2.7-.3 1.2-.3c.4 0 .8 0 1.2.2v-.2c0-.3-.1-.6-.3-.8c-.2-.1-.5-.2-.9-.2c-.4 0-.8.1-1.1.2l-.2-.4c.4-.2.9-.3 1.4-.3c.5 0 .9.1 1.2.4c.3.2.4.6.4 1.1c.03.01 0 2.4 0 2.4h-.5v-.6s-.02-.01 0 0zm-1.3.2c.4 0 .7-.1.9-.3c.3-.2.4-.4.4-.8v-.3c-.4-.1-.8-.2-1.2-.2c-.3 0-.6.1-.8.2c-.2.2-.3.4-.3.6c0 .3.1.4.3.6c.2.1.4.2.7.2zm3.1.4v-3.9h.5s.03.68 0 .7c.3-.5.8-.8 1.3-.8c.5 0 .9.2 1.1.5c.3.2.4.6.4 1.1c.02-.03 0 2.4 0 2.4h-.6s.05-2.29 0-2.3c0-.3 0-.6-.2-.8c-.2-.2-.5-.3-.8-.3c-.4 0-.6.1-.8.3c-.3.2-.4.5-.4.9c.03-.04 0 2.2 0 2.2h-.5zm7.6-.8c-.4.6-.8.8-1.4.8c-.5 0-1-.1-1.3-.5c-.4-.4-.6-.8-.6-1.5c0-.6.2-1.1.6-1.4c.3-.4.8-.6 1.3-.6c.6 0 1.1.3 1.4.8c.04.05 0-2.3 0-2.3h.6v5.5h-.6v-.8s.04-.01 0 0zm-1.3.3c.3 0 .7-.1.9-.4c.3-.3.5-.6.5-1.1c0-.4-.2-.8-.5-1c-.2-.3-.6-.5-.9-.5c-.4 0-.7.2-1 .4c-.3.3-.4.7-.4 1.1c0 .5.1.9.4 1.1c.3.3.6.4 1 .4zm3.3.5v-3.9h.5v3.9h-.5zm1.9 0v-3.9h.5s.03 1.02 0 1c.2-.3.4-.6.7-.8c.2-.2.6-.3.9-.3v.7s-.04-.04 0 0c-.5 0-.8.1-1.1.4c-.3.3-.5.8-.5 1.3c.03.03 0 1.6 0 1.6h-.5zm3 0v-3.9h.6s-.05.66 0 .7c.1-.3.3-.4.5-.6c.2-.1.4-.2.7-.2c.6 0 1 .3 1.2.8c.4-.5.8-.8 1.4-.8c.4 0 .8.2 1 .4c.3.3.4.7.4 1.2c.03-.02 0 2.4 0 2.4h-.5s-.05-2.29 0-2.3c0-.4-.1-.6-.3-.8c-.2-.2-.4-.3-.7-.3c-.3 0-.6.1-.8.3c-.2.2-.3.5-.3.8v2.3h-.6s.02-2.3 0-2.3c0-.4-.1-.6-.2-.8c-.2-.2-.5-.3-.8-.3c-.3 0-.5.1-.7.3c-.2.2-.3.5-.3.9c-.05-.03 0 2.2 0 2.2h-.6zm9.6-.6c-.3.4-.8.6-1.4.6c-.4 0-.7-.1-1-.3c-.3-.2-.4-.5-.4-.9c0-.4.1-.7.4-.9c.3-.2.7-.3 1.2-.3c.4 0 .8 0 1.2.2v-.2c0-.3-.1-.6-.3-.8c-.2-.1-.5-.2-.9-.2c-.3 0-.7.1-1.1.2l-.2-.4c.5-.2.9-.3 1.4-.3c.6 0 1 .1 1.3.4c.2.2.3.6.3 1.1c.05.01 0 2.4 0 2.4h-.5v-.6s-.01-.01 0 0zm-1.3.2c.4 0 .7-.1.9-.3c.3-.2.4-.4.4-.8v-.3c-.4-.1-.8-.2-1.1-.2c-.4 0-.7.1-.9.2c-.2.2-.3.4-.3.6c0 .3.1.4.3.6c.2.1.4.2.7.2zm8.5 1.1c-.4.3-.8.5-1.5.5c-.6 0-1.2-.2-1.7-.6l.2-.4c.5.3 1 .5 1.5.5c.4 0 .8-.1 1-.4c.3-.2.4-.5.4-1v-.4c-.4.5-.9.8-1.5.8c-.5 0-.9-.2-1.3-.5c-.3-.4-.5-.8-.5-1.3v-.1c0-.5.2-.9.5-1.3c.4-.3.8-.5 1.3-.5c.6 0 1.1.3 1.5.8v-.7h.6s-.02 3.2 0 3.2c0 .6-.2 1-.5 1.4zm-1.5-1.5c.4 0 .7-.2 1-.4c.3-.3.4-.6.4-.9v-.1c0-.3-.1-.7-.4-.9c-.3-.2-.6-.4-1-.4c-.4 0-.7.2-.9.4c-.3.2-.4.5-.4.9c0 .4.1.7.4 1c.2.2.5.4.9.4zm6.5.1c-.4.5-.9.8-1.6.8c-.5 0-.9-.2-1.3-.6c-.4-.4-.6-.9-.6-1.5c0-.5.2-1 .5-1.4c.4-.4.8-.6 1.4-.6c.5 0 1 .2 1.3.6c.3.4.5.9.5 1.5v.2h-3.1c0 .4.2.7.4.9c.3.2.6.4 1 .4c.4 0 .8-.2 1.2-.6c-.02.01.3.3.3.3c0 0 .03.03 0 0zm-2.9-1.5h2.5c0-.3-.2-.7-.4-.9c-.2-.3-.5-.4-.8-.4c-.4 0-.7.1-.9.4c-.2.2-.4.5-.4.9zM120 16v-3.9h.5s.05 1.02 0 1c.2-.3.4-.6.7-.8c.3-.2.6-.3.9-.3c.02.04 0 .7 0 .7c0 0-.02-.04 0 0c-.5 0-.8.1-1.1.4c-.3.3-.5.8-.5 1.3c.05.03 0 1.6 0 1.6h-.5zm6.1-.7c-.4.5-.9.8-1.6.8c-.5 0-1-.2-1.3-.6c-.4-.4-.6-.9-.6-1.5c0-.5.2-1 .5-1.4c.4-.4.8-.6 1.3-.6c.6 0 1 .2 1.4.6c.3.4.4.9.4 1.5v.2h-3c0 .4.2.7.4.9c.3.2.6.4.9.4c.5 0 .9-.2 1.2-.6c.05.01.4.3.4.3c0 0 .01.03 0 0zm-2.9-1.5h2.5c-.1-.3-.2-.7-.4-.9c-.2-.3-.5-.4-.9-.4c-.3 0-.6.1-.8.4c-.2.2-.4.5-.4.9zm4 2.2v-5.5h.6v3.8l2.1-2.2h.7l-1.6 1.7l1.7 2.2h-.7l-1.4-1.8l-.8.8v1h-.6zm6.2-.1c-.2.1-.4.1-.7.1c-.3 0-.6-.1-.8-.2c-.2-.2-.3-.5-.3-.9c.02.05 0-2.3 0-2.3h-.5v-.5h.5v-1.2h.6v1.2h1.2v.5h-1.2v2.3c0 .4.2.6.6.6c.2 0 .4 0 .6-.1v.5s0-.03 0 0zm1-4.6v-.7h.7v.7h-.7zm.1 4.7v-3.9h.6v3.9h-.6zm1.9 0v-3.9h.6s-.03 1.02 0 1c.1-.3.3-.6.6-.8c.3-.2.6-.3.9-.3c.04.04 0 .7 0 .7c0 0 0-.04 0 0c-.4 0-.8.1-1.1.4c-.3.3-.4.8-.4 1.3c-.03.03 0 1.6 0 1.6h-.6zm3 0v-3.9h.6v.7c.1-.3.3-.4.5-.6c.2-.1.4-.2.7-.2c.6 0 1 .3 1.3.8c.3-.5.8-.8 1.3-.8c.5 0 .8.2 1.1.4c.2.3.4.7.4 1.2c-.04-.02 0 2.4 0 2.4h-.6v-2.3c0-.4-.1-.6-.3-.8c-.2-.2-.4-.3-.7-.3c-.3 0-.6.1-.8.3c-.2.2-.3.5-.3.8c.02.04 0 2.3 0 2.3h-.5s-.05-2.3 0-2.3c0-.4-.1-.6-.3-.8c-.2-.2-.4-.3-.7-.3c-.3 0-.6.1-.8.3c-.2.2-.3.5-.3.9c-.01-.03 0 2.2 0 2.2h-.6zm10.4-.7c-.5.5-1 .8-1.6.8c-.6 0-1-.2-1.4-.6c-.4-.4-.6-.9-.6-1.5c0-.5.2-1 .6-1.4c.3-.4.8-.6 1.3-.6c.5 0 1 .2 1.3.6c.3.4.5.9.5 1.5v.2h-3.1c.1.4.2.7.5.9c.2.2.5.4.9.4c.4 0 .8-.2 1.2-.6l.4.3s-.04.03 0 0zm-3-1.5h2.5c0-.3-.1-.7-.4-.9c-.2-.3-.5-.4-.8-.4c-.4 0-.6.1-.9.4c-.2.2-.3.5-.4.9zm3.8 2.2v-.4l2.5-3h-2.4v-.5h3.2v.4l-2.6 3h2.6v.5h-3.3z" stroke="none" fill="#000"/></g><g id="Polygon365279"><path d="m41.4 6V.7h3.9v1.1h-2.8v1h2.5v1h-2.5v1.1h2.8v1.1h-3.9zm5 0V.7h1.1v4.2h2.6v1.1h-3.7zM51 6V.7h3.9v1.1h-2.8v1h2.5v1h-2.5v1.1h2.9v1.1h-4zm5 0V.7h1.1v2.3L59.2.7h1.4L58.5 3l2.2 3h-1.4l-1.6-2.3l-.6.7v1.6H56zm6.6 0V1.8H61V.7h4.3v1.1h-1.6v4.2h-1.1zm3.6 0V.7s2.37.05 2.4 0c.6 0 1.1.2 1.5.6c.3.3.4.7.4 1.2c0 .8-.3 1.3-1.1 1.6c.02 0 1.3 1.9 1.3 1.9h-1.3l-1.2-1.7h-.9v1.7h-1.1zm1.1-2.7s1.19-.02 1.2 0c.3 0 .5-.1.6-.2c.2-.1.3-.3.3-.6c0-.2-.1-.4-.3-.5c-.1-.2-.3-.2-.6-.2c-.03-.02-1.2 0-1.2 0v1.5zM71.6 6V.7h1.2v5.3h-1.2zm0-5.7v-.9h1.2v.9h-1.2zm7.2 4.9c-.6.6-1.4.9-2.2.9c-.8 0-1.5-.3-2-.8c-.5-.5-.8-1.1-.8-1.9c0-.8.3-1.4.8-2c.6-.5 1.2-.7 2-.7c.4 0 .8 0 1.1.1c.4.1.7.3.9.6l-.7.8c-.2-.1-.4-.3-.6-.4c-.2 0-.5-.1-.8-.1c-.4 0-.7.2-1 .5c-.3.3-.5.7-.5 1.1v.1c0 .4.2.8.5 1.1c.3.4.7.5 1.1.5c.5 0 .8-.1 1.1-.3v-.7h-1.1v-1h2.2v2.2s.02.03 0 0zm-.9-6c0 .3-.1.6-.4.8c-.2.2-.6.3-1 .3c-.4 0-.7-.1-1-.3c-.2-.2-.4-.5-.4-.8h.8c.1.2.3.3.6.3c.4 0 .6-.1.7-.3c-.03-.04.7 0 .7 0c0 0 .04-.04 0 0zm2 6.8V.7h4v1.1h-2.8v1h2.4v1h-2.4v1.1h2.8v1.1h-4zm12-.8c-.6.6-1.4.9-2.2.9c-.8 0-1.5-.3-2-.8c-.5-.5-.8-1.1-.8-1.9c0-.8.3-1.4.8-2c.5-.5 1.2-.7 2-.7c.4 0 .8 0 1.1.1c.3.1.6.3.9.6l-.7.8c-.2-.1-.4-.3-.6-.4c-.2 0-.5-.1-.8-.1c-.4 0-.7.2-1 .5c-.3.3-.5.7-.5 1.1v.1c0 .4.2.8.5 1.1c.3.4.6.5 1.1.5c.4 0 .8-.1 1.1-.3v-.7h-1.2v-1h2.3v2.2s.01.03 0 0zM93 6V.7h3.9v1.1h-2.7v1h2.4v1h-2.4v1.1h2.8v1.1h-4zm5 0V.7s2.39.05 2.4 0c.7 0 1.2.2 1.5.6c.3.3.5.7.5 1.2c0 .8-.4 1.3-1.2 1.6c.04 0 1.3 1.9 1.3 1.9h-1.3l-1.1-1.7h-.9v1.7H98zm1.2-2.7s1.12-.02 1.1 0c.3 0 .5-.1.7-.2c.1-.1.2-.3.2-.6c0-.2-.1-.4-.2-.5c-.2-.2-.4-.2-.7-.2c0-.02-1.1 0-1.1 0v1.5zm4.2 2.7V.7h3.9v1.1h-2.8v1h2.5v1h-2.5v1.1h2.9v1.1h-4zm5 0V.7h1.1v2.3l2.1-2.3h1.5L110.9 3l2.2 3h-1.3l-1.7-2.3l-.6.7v1.6h-1.1zm9.1 0V3.9l-2-3.2h1.4l1.2 2.1l1.3-2.1h1.3l-2 3.2v2.1h-1.2zm8.8-2.6c0 .7-.3 1.3-.8 1.9c-.5.5-1.2.8-2 .8c-.8 0-1.4-.3-2-.8c-.5-.5-.8-1.2-.8-1.9c0-.8.3-1.4.8-2c.6-.5 1.2-.7 2-.7c.8 0 1.5.2 2 .7c.5.6.8 1.2.8 1.9v.1s-.01-.04 0 0zm-4.4 0c0 .4.2.8.5 1.1c.3.3.7.5 1.1.5c.5 0 .9-.2 1.1-.5c.3-.3.5-.7.5-1.1c0-.5-.2-.9-.5-1.2c-.3-.3-.6-.5-1.1-.5c-.5 0-.8.2-1.1.5c-.3.3-.5.7-.5 1.1c.04.04 0 .1 0 .1c0 0 .04-.04 0 0zm5.4 2.6V.7h1.2v2.3l2.1-2.3h1.4L129.8 3l2.3 3h-1.4l-1.6-2.3l-.6.7v1.6h-1.2z" stroke="none" fill="#000"/></g></svg>