<?xml version="1.0" standalone="no"?><!DOCTYPE svg PUBLIC "-//W3C//DTD SVG 1.1//EN" "http://www.w3.org/Graphics/SVG/1.1/DTD/svg11.dtd"><svg xmlns="http://www.w3.org/2000/svg" version="1.1" width="31px" height="14.6px" viewBox="0 -3 31 14.6" style="top:-3px"><desc>D REK:</desc><defs/><g id="Polygon366489"><path d="m1.6 6.5V.8s2.23.01 2.2 0c.9 0 1.6.3 2.2.8c.6.6.9 1.2.9 2v.1c0 .8-.3 1.5-.9 2c-.6.5-1.3.8-2.2.8c.03.01-2.2 0-2.2 0zm2.2-4.6c.03.04-.9 0-.9 0v3.5s.93-.02.9 0c.5 0 1-.2 1.3-.5c.3-.3.5-.7.5-1.2c0-.5-.2-1-.5-1.3c-.3-.3-.8-.5-1.3-.5zM8 6.5V.8h1.3v5.7H8zM8.1.4V-.7h1.2v1.1H8.1zm2.6 6.1V.8h2.6c.7 0 1.3.2 1.7.6c.3.3.5.7.5 1.3c0 .9-.5 1.5-1.3 1.8c.04-.03 1.4 2 1.4 2h-1.4l-1.3-1.8h-.9v1.8h-1.3zM12 3.6s1.23-.02 1.2 0c.3 0 .6-.1.7-.2c.2-.2.3-.4.3-.6c0-.3-.1-.5-.3-.6c-.1-.2-.4-.3-.7-.3c0 .04-1.2 0-1.2 0v1.7zm4.6 2.9V.8h4.3v1.1h-3.1v1.2h2.7v1.1h-2.7v1.2h3.1v1.1h-4.3zm5.4 0V.8h1.3v2.5L25.6.8h1.5l-2.3 2.4l2.4 3.3h-1.5l-1.8-2.4l-.6.7v1.7H22zm5.8-3.1V2.1h1.4v1.3h-1.4zm0 3.1V5.2h1.4v1.3h-1.4z" stroke="none" fill="#000"/></g></svg>