<?xml version="1.0" standalone="no"?><!DOCTYPE svg PUBLIC "-//W3C//DTD SVG 1.1//EN" "http://www.w3.org/Graphics/SVG/1.1/DTD/svg11.dtd"><svg xmlns="http://www.w3.org/2000/svg" version="1.1" width="372px" height="74.8px" viewBox="0 -4 372 74.8" style="top:-4px"><desc>E ML TAVANLAR N UYGUN E imli tavan y zeylerinde Le Feu Sky, zel a l montaj aparat yla monte edilir. Siyah, f ...</desc><defs/><g id="Polygon366301"><path d="m3.1 44.4c-1 0-1.8-.3-2.6-1l.3-.3c.4.3.7.5 1.1.7c.3.1.7.2 1.2.2c.5 0 .8-.1 1.1-.4c.3-.2.5-.5.5-.9c0-.3-.1-.6-.4-.8c-.2-.2-.7-.4-1.4-.5c-.8-.2-1.3-.4-1.6-.7c-.4-.2-.5-.6-.5-1.1c0-.5.2-.9.6-1.2c.3-.3.8-.5 1.4-.5c.5 0 .8.1 1.2.2c.3.1.6.3 1 .6l-.3.4c-.6-.5-1.2-.7-1.9-.7c-.5 0-.8.1-1.1.3c-.3.2-.4.5-.4.8v.1c0 .3.1.6.3.8c.3.2.8.4 1.5.5c.7.2 1.2.4 1.6.7c.3.2.5.6.5 1.1c0 .5-.2.9-.6 1.2c-.4.4-.9.5-1.5.5zm3.5-5.9v-.6h.6v.6h-.6zm.1 5.8v-4.6h.4v4.6h-.4zm4.1-.5l1.6-4.1h.5s-1.97 4.79-2 4.8c-.2.5-.4.8-.6 1c-.3.2-.6.3-.9.3c-.3 0-.6-.1-.9-.2l.1-.4c.3.1.5.2.8.2c.3 0 .5-.1.6-.3c.2-.1.4-.4.6-.8c-.04 0-2.2-4.6-2.2-4.6h.5l1.9 4.1zm6.3-.2c-.5.5-1.1.8-1.8.8c-.5 0-.9-.1-1.2-.3c-.4-.3-.6-.7-.6-1.1c0-.5.2-.9.6-1.1c.3-.3.8-.4 1.4-.4c.5 0 1.1 0 1.6.2v-.2c0-.5-.2-.8-.4-1.1c-.3-.2-.7-.3-1.2-.3c-.4 0-.9.1-1.4.3l-.2-.3c.6-.3 1.1-.4 1.7-.4c.6 0 1.1.1 1.4.5c.3.3.5.7.5 1.3v2.8h-.4v-.7s-.05-.04 0 0zm-1.8.4c.5 0 .9-.1 1.3-.4c.3-.2.5-.6.5-1v-.5c-.6-.2-1.1-.2-1.6-.2c-.5 0-.8.1-1.1.3c-.3.2-.4.4-.4.7v.1c0 .3.1.5.4.7c.2.2.6.3.9.3zm3.8.3v-6.5h.4v2.8c.4-.7.9-1 1.7-1c.5 0 1 .2 1.3.5c.3.4.5.9.5 1.4v2.8h-.4s-.04-2.7 0-2.7c0-.5-.2-.9-.4-1.1c-.3-.3-.6-.5-1.1-.5c-.5 0-.8.2-1.1.5c-.3.3-.5.7-.5 1.2v2.6h-.4zm5.2 1l-.1-.2c.2-.1.4-.3.4-.4c.1-.1.1-.2.1-.4c.03.02-.2 0-.2 0v-.7h.6s-.02.63 0 .6c0 .3-.1.5-.2.7c-.1.2-.3.3-.6.4zm5.3-1v-4.2h-.6v-.4h.6s.03-.42 0-.4c0-.5.2-.9.4-1.2c.3-.3.6-.4 1-.4c.2 0 .5.1.7.1v.4c-.3 0-.5-.1-.7-.1c-.6 0-.9.4-.9 1.2c-.03-.01 0 .4 0 .4h1.6v.4h-1.6v4.2h-.5zm3.1 0v-4.6h.4v4.6h-.4zm2.2 0v-4.6h.4v1.3c.2-.4.5-.7.8-1c.4-.2.8-.3 1.2-.3c.03-.04 0 .4 0 .4c0 0-.01.05 0 0c-.6 0-1 .3-1.4.7c-.4.4-.6.9-.6 1.6v1.9h-.4zm4.9 1.4l-.5-.3s.65-.99.7-1c-.6-.1-1.1-.3-1.5-.8c-.4-.4-.6-1-.6-1.6c0-.6.2-1.2.7-1.7c.4-.4 1-.7 1.7-.7c.7 0 1.3.3 1.8.9l-.3.3c-.5-.5-1-.8-1.6-.8c-.5 0-.9.2-1.3.6c-.3.4-.5.9-.5 1.4c0 .6.2 1.1.5 1.4c.4.4.9.6 1.4.6c.6 0 1.1-.2 1.5-.7l.3.2c-.5.6-1.1.9-1.7.9c-.04.03-.6 1.3-.6 1.3zm6.7-2.1c-.4.5-1 .8-1.7.8c-.5 0-.9-.1-1.3-.3c-.3-.3-.5-.7-.5-1.1c0-.5.2-.9.5-1.1c.4-.3.9-.4 1.5-.4c.5 0 1 0 1.5.2v-.2c0-.5-.1-.8-.4-1.1c-.2-.2-.6-.3-1.1-.3c-.5 0-1 .1-1.4.3l-.2-.3c.6-.3 1.1-.4 1.6-.4c.7 0 1.1.1 1.5.5c.3.3.5.7.5 1.3c-.05-.04 0 2.8 0 2.8h-.5v-.7s.02-.04 0 0zm-1.7.4c.5 0 .9-.1 1.2-.4c.4-.2.5-.6.5-1v-.5c-.5-.2-1-.2-1.5-.2c-.5 0-.9.1-1.1.3c-.3.2-.4.4-.4.7v.1c0 .3.1.5.4.7c.2.2.5.3.9.3zm3.8.3v-6.5h.4v6.5h-.4zm5.3-.7c-.4.5-1 .8-1.7.8c-.5 0-.9-.1-1.3-.3c-.3-.3-.5-.7-.5-1.1c0-.5.2-.9.5-1.1c.4-.3.9-.4 1.5-.4c.5 0 1 0 1.5.2v-.2c0-.5-.1-.8-.4-1.1c-.2-.2-.6-.3-1.1-.3c-.5 0-.9.1-1.4.3l-.2-.3c.6-.3 1.1-.4 1.6-.4c.7 0 1.2.1 1.5.5c.3.3.5.7.5 1.3c-.04-.04 0 2.8 0 2.8h-.5v-.7s.03-.04 0 0zm-1.7.4c.5 0 .9-.1 1.2-.4c.4-.2.5-.6.5-1v-.5c-.5-.2-1-.2-1.5-.2c-.5 0-.9.1-1.1.3c-.3.2-.4.4-.4.7v.1c0 .3.1.5.4.7c.2.2.5.3.9.3zm3.7.3v-4.6h.5s-.02.89 0 .9c.4-.7.9-1 1.6-1c.6 0 1.1.2 1.4.5c.3.4.5.9.5 1.4c-.02.02 0 2.8 0 2.8h-.5s.04-2.7 0-2.7c0-.5-.1-.9-.3-1.1c-.3-.3-.7-.5-1.1-.5c-.5 0-.9.2-1.2.5c-.3.3-.4.7-.4 1.2c-.02-.03 0 2.6 0 2.6h-.5zm5.6 0v-4.6h.4v.9c.4-.7.9-1 1.5-1c.7 0 1.3.4 1.6 1c.4-.6.9-1 1.6-1c.6 0 1 .2 1.3.5c.3.4.5.9.5 1.4v2.8h-.4s-.04-2.7 0-2.7c0-.5-.2-.9-.4-1.2c-.2-.2-.6-.4-1-.4c-.4 0-.8.2-1 .5c-.3.3-.4.7-.4 1.2c-.05-.05 0 2.6 0 2.6h-.5v-2.7c0-.5-.1-.9-.4-1.2c-.2-.2-.5-.4-.9-.4c-.4 0-.8.2-1.1.5c-.3.3-.4.7-.4 1.2v2.6h-.4zm8.5 0v-4.6h.5v4.6h-.5zm3.2 1.4l-.5-.3l.7-1c-.6-.1-1.1-.3-1.6-.7l.3-.3c.5.4 1.1.6 1.6.6c.4 0 .6-.1.8-.2c.2-.2.3-.4.3-.7v-.3l-.3-.3c-.2-.1-.3-.1-.4-.2c-.1 0-.3 0-.5-.1c-.2-.1-.3-.1-.4-.1c-.1-.1-.3-.1-.4-.2c-.2-.1-.3-.2-.4-.2c-.1-.1-.2-.2-.2-.3c-.1-.2-.1-.3-.1-.5c0-.4.1-.7.4-.9c.3-.2.6-.4 1.1-.4c.6 0 1.1.2 1.6.5l-.2.4c-.5-.3-1-.4-1.5-.4c-.3 0-.5 0-.7.2c-.2.1-.3.3-.3.6c0 .1 0 .2.1.3c.1.1.2.2.3.2c.2.1.3.2.4.2c.1.1.3.1.5.2c.2 0 .4.1.5.2c.2 0 .3.1.5.2c.2.1.3.2.4.4c.1.1.1.3.1.5c0 .4-.2.7-.4.9c-.3.3-.7.4-1.1.4l-.6 1.3zm7.7 0l-.5-.3s.72-.99.7-1c-.6-.1-1.1-.3-1.4-.8c-.4-.4-.6-1-.6-1.6c0-.6.2-1.2.7-1.7c.4-.4 1-.7 1.6-.7c.7 0 1.3.3 1.9.9l-.4.3c-.4-.5-1-.8-1.5-.8c-.5 0-.9.2-1.3.6c-.4.4-.5.9-.5 1.4c0 .6.1 1.1.5 1.4c.4.4.8.6 1.3.6c.6 0 1.1-.2 1.6-.7l.3.2c-.5.6-1.1.9-1.8.9c.03.03-.6 1.3-.6 1.3zm7.3-2.1c-.5.5-1.1.8-1.9.8c-.6 0-1.1-.2-1.6-.6c-.4-.5-.6-1.1-.6-1.8c0-.6.2-1.2.6-1.7c.4-.4.9-.7 1.6-.7c.6 0 1.1.3 1.5.7c.4.5.6 1 .6 1.7v.2h-3.8c0 .6.2 1 .5 1.3c.4.4.8.5 1.3.5c.5 0 1.1-.2 1.5-.7c.03 0 .3.3.3.3c0 0 .03-.03 0 0zm-3.6-1.8h3.3c0-.5-.2-.9-.5-1.3c-.3-.3-.7-.5-1.2-.5c-.4 0-.8.2-1.1.5c-.3.4-.5.8-.5 1.3zm5.1 2.5v-6.5h.5v6.5h-.5zm2.2-5.8v-.6h.6v.6h-.6zm.1 5.8v-4.6h.4v4.6h-.4zm2.1 0v-6.5h.5v4.9l2.8-3h.6l-2 2.1l2.1 2.5h-.6l-1.8-2.2l-1.1 1.1v1.1h-.5zm9.4.1l-2.1-4.7h.5l1.8 4.1l1.7-4.1h.5l-2.1 4.7h-.3zm7.2-.8c-.6.5-1.2.8-1.9.8c-.6 0-1.2-.2-1.6-.6c-.4-.5-.7-1.1-.7-1.8c0-.6.2-1.2.7-1.7c.4-.4.9-.7 1.5-.7c.6 0 1.1.3 1.5.7c.4.5.6 1 .6 1.7v.2H107c0 .6.2 1 .6 1.3c.3.4.7.5 1.2.5c.6 0 1.1-.2 1.6-.7c-.03 0 .3.3.3.3c0 0-.02-.03 0 0zm-3.7-1.8h3.3c0-.5-.2-.9-.4-1.3c-.3-.3-.7-.5-1.2-.5c-.5 0-.8.2-1.2.5c-.3.4-.5.8-.5 1.3zm7.8 2.5v-4.6h.4s.04 1.34 0 1.3c.2-.4.5-.7.9-1c.3-.2.7-.3 1.2-.3c-.02-.04 0 .4 0 .4c0 0-.07.05-.1 0c-.5 0-1 .3-1.4.7c-.4.4-.6.9-.6 1.6c.04.04 0 1.9 0 1.9h-.4zm7.8-2.3c0 .7-.2 1.2-.7 1.7c-.5.5-1 .7-1.7.7c-.7 0-1.2-.2-1.7-.7c-.4-.4-.6-1-.6-1.7c0-.6.2-1.2.6-1.7c.5-.4 1.1-.7 1.7-.7c.7 0 1.3.3 1.7.7c.5.5.7 1.1.7 1.7c-.02.01 0 0 0 0c0 0-.02.03 0 0zm-2.4 2c.6 0 1-.2 1.4-.6c.3-.3.5-.8.5-1.4c0-.5-.2-1-.5-1.4c-.4-.4-.9-.6-1.4-.6c-.5 0-1 .2-1.3.6c-.4.4-.6.9-.6 1.4c0 .6.2 1.1.6 1.4c.4.4.8.6 1.3.6zm5.2.4c-.7 0-1.3-.2-1.9-.7l.3-.3c.5.4 1.1.6 1.6.6c.4 0 .6-.1.8-.2c.3-.2.4-.4.4-.7c0-.1-.1-.2-.1-.3l-.3-.3c-.2-.1-.3-.1-.4-.2c-.1 0-.3 0-.5-.1c-.2-.1-.3-.1-.4-.1c-.1-.1-.3-.1-.4-.2c-.2-.1-.3-.2-.4-.2c-.1-.1-.2-.2-.2-.3c-.1-.2-.1-.3-.1-.5c0-.4.1-.7.4-.9c.3-.2.6-.4 1.1-.4c.6 0 1.1.2 1.6.5l-.2.4c-.5-.3-1-.4-1.4-.4c-.4 0-.6 0-.8.2c-.2.1-.3.3-.3.6c0 .1 0 .2.1.3c.1.1.2.2.3.2c.2.1.3.2.4.2c.1.1.3.1.5.2c.2 0 .4.1.6.2c.1 0 .3.1.4.2c.2.1.3.2.4.4c.1.1.1.3.1.5c0 .4-.1.7-.4.9c-.3.3-.7.4-1.2.4zm6.8-.8c-.5.5-1.1.8-1.9.8c-.6 0-1.1-.2-1.5-.6c-.5-.5-.7-1.1-.7-1.8c0-.6.2-1.2.6-1.7c.4-.4 1-.7 1.6-.7c.6 0 1.1.3 1.5.7c.4.5.6 1 .6 1.7v.2h-3.8c0 .6.2 1 .5 1.3c.4.4.8.5 1.3.5c.6 0 1.1-.2 1.5-.7c.04 0 .3.3.3.3c0 0 .04-.03 0 0zm-3.6-1.8h3.3c0-.5-.2-.9-.5-1.3c-.3-.3-.6-.5-1.1-.5c-.5 0-.9.2-1.2.5c-.3.4-.5.8-.5 1.3zm11.4 3.4c-.4.4-.9.6-1.6.6c-.8 0-1.5-.3-2.1-.7l.2-.4c.6.5 1.2.7 1.9.7c.5 0 1-.2 1.3-.5c.3-.3.5-.7.5-1.3v-.7c-.5.7-1.2 1.1-1.9 1.1c-.6 0-1.1-.2-1.6-.6c-.4-.4-.6-.9-.6-1.6c0-.6.2-1.2.6-1.6c.5-.4 1-.6 1.6-.6c.8 0 1.4.4 1.9 1.1v-1h.4s.03 3.91 0 3.9c0 .7-.2 1.2-.6 1.6zm-1.7-1.6c.5 0 1-.2 1.3-.5c.4-.4.6-.8.6-1.3c0-.5-.2-.9-.6-1.3c-.3-.3-.8-.5-1.3-.5c-.5 0-.9.2-1.2.5c-.4.3-.6.8-.6 1.3c0 .5.2.9.6 1.3c.3.3.7.5 1.2.5zm8.4-1.6c0 .7-.2 1.2-.7 1.7c-.4.5-1 .7-1.7.7c-.6 0-1.2-.2-1.6-.7c-.5-.4-.7-1-.7-1.7c0-.6.2-1.2.7-1.7c.4-.4 1-.7 1.7-.7c.6 0 1.2.3 1.6.7c.5.5.7 1.1.7 1.7c.01.01 0 0 0 0c0 0 .01.03 0 0zm-2.3 2c.5 0 .9-.2 1.3-.6c.4-.3.5-.8.5-1.4c0-.5-.2-1-.5-1.4c-.4-.4-.8-.6-1.4-.6c-.5 0-.9.2-1.3.6c-.4.4-.5.9-.5 1.4c0 .6.2 1.1.5 1.4c.4.4.8.6 1.4.6zm3.7.3v-6.5h.5v6.5h-.5zm6-1c-.5.8-1.1 1.1-1.9 1.1c-.5 0-1.1-.2-1.5-.6c-.5-.5-.7-1-.7-1.8c0-.7.2-1.3.7-1.7c.4-.4 1-.7 1.5-.7c.8 0 1.4.4 1.9 1.1c.03.02 0-2.9 0-2.9h.5v6.5h-.5v-1s.03 0 0 0zm-3.6-1.3c0 .6.2 1.1.5 1.5c.4.3.8.5 1.3.5c.5 0 .9-.2 1.3-.5c.4-.4.6-.9.6-1.5c0-.5-.2-1-.6-1.4c-.4-.4-.8-.6-1.3-.6c-.5 0-1 .2-1.3.6c-.3.3-.5.8-.5 1.4c-.01.01 0 0 0 0c0 0-.01.03 0 0zm8.4 2.3v-6.5h.5v4.9l2.8-3h.6l-2 2.1l2.1 2.5h-.6l-1.8-2.2l-1.1 1.1v1.1h-.5zm8.1-.7c-.4.5-1 .8-1.7.8c-.5 0-.9-.1-1.2-.3c-.4-.3-.6-.7-.6-1.1c0-.5.2-.9.6-1.1c.3-.3.8-.4 1.4-.4c.5 0 1 0 1.5.2v-.2c0-.5-.1-.8-.3-1.1c-.3-.2-.7-.3-1.2-.3c-.4 0-.9.1-1.4.3l-.2-.3c.6-.3 1.1-.4 1.7-.4c.6 0 1.1.1 1.4.5c.3.3.5.7.5 1.3c-.02-.04 0 2.8 0 2.8h-.5v-.7s.05-.04 0 0zm-1.7.4c.5 0 .9-.1 1.2-.4c.4-.2.6-.6.6-1v-.5c-.6-.2-1.1-.2-1.6-.2c-.5 0-.9.1-1.1.3c-.3.2-.4.4-.4.7v.1c0 .3.1.5.4.7c.2.2.6.3.9.3zm3.8 1.8v-6.1h.4v1.1c.5-.8 1.1-1.2 1.9-1.2c.6 0 1.1.2 1.6.7c.4.4.6 1 .6 1.7c0 .7-.2 1.3-.6 1.8c-.5.4-1 .6-1.6.6c-.8 0-1.4-.3-1.9-1.1v2.5h-.4zm2.2-1.8c.6 0 1-.2 1.3-.5c.4-.4.5-.9.5-1.5c0-.6-.1-1-.5-1.4c-.3-.4-.8-.6-1.3-.6c-.4 0-.9.2-1.3.6c-.3.4-.5.9-.5 1.4c0 .6.2 1.1.5 1.5c.4.3.9.5 1.3.5zm3.8.3v-6.5h.4v6.5h-.4zm5.3-.7c-.4.5-1 .8-1.8.8c-.4 0-.8-.1-1.2-.3c-.4-.3-.5-.7-.5-1.1c0-.5.1-.9.5-1.1c.4-.3.9-.4 1.5-.4c.5 0 1 0 1.5.2v-.2c0-.5-.1-.8-.4-1.1c-.3-.2-.6-.3-1.1-.3c-.5 0-1 .1-1.5.3l-.1-.3c.5-.3 1.1-.4 1.6-.4c.6 0 1.1.1 1.5.5c.3.3.4.7.4 1.3c.03-.04 0 2.8 0 2.8h-.4v-.7s-.01-.04 0 0zm-1.7.4c.4 0 .9-.1 1.2-.4c.3-.2.5-.6.5-1v-.5c-.5-.2-1.1-.2-1.6-.2c-.4 0-.8.1-1.1.3c-.2.2-.4.4-.4.7v.1c0 .3.2.5.4.7c.3.2.6.3 1 .3zm3.7.3v-4.6h.5s-.05.85 0 .9c.3-.7.8-1 1.5-1c.7 0 1.2.4 1.5 1c.4-.6 1-1 1.7-1c.5 0 1 .2 1.3.5c.3.4.4.9.4 1.4c.05.04 0 2.8 0 2.8h-.4v-2.7c0-.5-.1-.9-.4-1.2c-.2-.2-.5-.4-1-.4c-.4 0-.7.2-1 .5c-.3.3-.4.7-.4 1.2v2.6h-.4s-.04-2.73 0-2.7c0-.5-.2-.9-.4-1.2c-.2-.2-.6-.4-1-.4c-.4 0-.7.2-1 .5c-.3.3-.4.7-.4 1.2c-.05-.02 0 2.6 0 2.6h-.5zm11.7-.7c-.4.5-1 .8-1.8.8c-.4 0-.9-.1-1.2-.3c-.4-.3-.5-.7-.5-1.1c0-.5.1-.9.5-1.1c.4-.3.9-.4 1.5-.4c.5 0 1 0 1.5.2v-.2c0-.5-.1-.8-.4-1.1c-.3-.2-.6-.3-1.1-.3c-.5 0-1 .1-1.5.3l-.1-.3c.5-.3 1.1-.4 1.6-.4c.6 0 1.1.1 1.4.5c.4.3.5.7.5 1.3v2.8h-.4v-.7s-.02-.04 0 0zm-1.7.4c.4 0 .8-.1 1.2-.4c.3-.2.5-.6.5-1v-.5c-.5-.2-1.1-.2-1.6-.2c-.4 0-.8.1-1.1.3c-.2.2-.4.4-.4.7v.1c0 .3.2.5.4.7c.3.2.6.3 1 .3zm7.9.4c-.7 0-1.3-.2-1.9-.7l.3-.3c.5.4 1 .6 1.6.6c.3 0 .6-.1.8-.2c.2-.2.3-.4.3-.7c0-.1 0-.2-.1-.3c0-.1-.1-.2-.3-.3c-.1-.1-.2-.1-.3-.2c-.1 0-.3 0-.5-.1c-.2-.1-.4-.1-.5-.1c-.1-.1-.2-.1-.4-.2c-.1-.1-.3-.2-.3-.2l-.3-.3c0-.2-.1-.3-.1-.5c0-.4.2-.7.5-.9c.2-.2.6-.4 1-.4c.6 0 1.2.2 1.7.5l-.3.4c-.4-.3-.9-.4-1.4-.4c-.3 0-.5 0-.7.2c-.2.1-.3.3-.3.6c0 .1 0 .2.1.3c0 .1.1.2.3.2c.1.1.3.2.4.2c.1.1.2.1.5.2c.2 0 .4.1.5.2c.2 0 .3.1.5.2c.1.1.3.2.3.4c.1.1.2.3.2.5c0 .4-.2.7-.5.9c-.3.3-.7.4-1.1.4zm6.8-.8c-.5.5-1.2.8-1.9.8c-.6 0-1.1-.2-1.6-.6c-.4-.5-.6-1.1-.6-1.8c0-.6.2-1.2.6-1.7c.4-.4.9-.7 1.5-.7c.7 0 1.2.3 1.6.7c.3.5.5 1 .5 1.7v.2h-3.8c.1.6.3 1 .6 1.3c.3.4.8.5 1.2.5c.6 0 1.1-.2 1.6-.7l.3.3s.01-.03 0 0zm-3.7-1.8h3.4c-.1-.5-.2-.9-.5-1.3c-.3-.3-.7-.5-1.2-.5c-.4 0-.8.2-1.1.5c-.4.4-.5.8-.6 1.3zm6.7 3.9l-.5-.3s.65-.99.6-1c-.5-.1-1-.3-1.4-.8c-.4-.4-.6-1-.6-1.6c0-.6.2-1.2.7-1.7c.4-.4 1-.7 1.7-.7c.6 0 1.3.3 1.8.9l-.3.3c-.5-.5-1-.8-1.6-.8c-.5 0-.9.2-1.3.6c-.3.4-.5.9-.5 1.4c0 .6.2 1.1.5 1.4c.4.4.9.6 1.4.6c.5 0 1.1-.2 1.5-.7l.3.2c-.5.6-1.1.9-1.7.9c-.04.03-.6 1.3-.6 1.3zm7.3-2.1c-.6.5-1.2.8-1.9.8c-.7 0-1.2-.2-1.6-.6c-.5-.5-.7-1.1-.7-1.8c0-.6.2-1.2.6-1.7c.5-.4 1-.7 1.6-.7c.6 0 1.1.3 1.5.7c.4.5.6 1 .6 1.7v.2h-3.8c0 .6.2 1 .6 1.3c.3.4.7.5 1.2.5c.6 0 1.1-.2 1.6-.7c-.04 0 .3.3.3.3c0 0-.03-.03 0 0zm-3.7-1.8h3.3c0-.5-.2-.9-.5-1.3c-.2-.3-.6-.5-1.1-.5c-.5 0-.9.2-1.2.5c-.3.4-.5.8-.5 1.3zm5.1 2.5v-4.6h.4s.03.89 0 .9c.4-.7 1-1 1.7-1c.6 0 1 .2 1.3.5c.4.4.5.9.5 1.4c.02.02 0 2.8 0 2.8h-.4s-.02-2.7 0-2.7c0-.5-.1-.9-.4-1.1c-.3-.3-.6-.5-1.1-.5c-.4 0-.8.2-1.1.5c-.3.3-.5.7-.5 1.2c.03-.03 0 2.6 0 2.6h-.4zm9.3-.7c-.5.5-1.1.8-1.9.8c-.6 0-1.1-.2-1.5-.6c-.5-.5-.7-1.1-.7-1.8c0-.6.2-1.2.6-1.7c.4-.4.9-.7 1.6-.7c.6 0 1.1.3 1.5.7c.4.5.6 1 .6 1.7v.2h-3.8c0 .6.2 1 .5 1.3c.4.4.8.5 1.3.5c.6 0 1.1-.2 1.5-.7c.03 0 .3.3.3.3c0 0 .04-.03 0 0zm-3.6-1.8h3.3c0-.5-.2-.9-.5-1.3c-.3-.3-.7-.5-1.2-.5c-.4 0-.8.2-1.1.5c-.3.4-.5.8-.5 1.3zm5.1 2.5v-6.5h.4v4.9l2.8-3h.6l-2 2.1l2.1 2.5h-.6l-1.8-2.2l-1.1 1.1v1.1h-.4zm5.1 0v-6.5h.4v6.5h-.4zm6-.7c-.6.5-1.2.8-1.9.8c-.6 0-1.2-.2-1.6-.6c-.5-.5-.7-1.1-.7-1.8c0-.6.2-1.2.7-1.7c.4-.4.9-.7 1.5-.7c.6 0 1.1.3 1.5.7c.4.5.6 1 .6 1.7v.2H237c0 .6.2 1 .6 1.3c.3.4.7.5 1.2.5c.6 0 1.1-.2 1.6-.7c-.03 0 .3.3.3.3c0 0-.02-.03 0 0zm-3.7-1.8h3.3c0-.5-.2-.9-.4-1.3c-.3-.3-.7-.5-1.2-.5c-.5 0-.8.2-1.2.5c-.3.4-.5.8-.5 1.3zm5.1 2.5v-4.6h.4s.04 1.34 0 1.3c.2-.4.5-.7.9-1c.3-.2.7-.3 1.2-.3c-.03-.04 0 .4 0 .4c0 0-.07.05-.1 0c-.5 0-1 .3-1.4.7c-.4.4-.6.9-.6 1.6c.04.04 0 1.9 0 1.9h-.4zm3.6-5.8v-.6h.6v.6h-.6zm.1 5.8v-4.6h.4v4.6h-.4zm4.8 0v-4.6h.5s-.02.85 0 .9c.4-.7.9-1 1.5-1c.7 0 1.2.4 1.6 1c.3-.6.9-1 1.6-1c.6 0 1 .2 1.3.5c.3.4.5.9.5 1.4c-.02.04 0 2.8 0 2.8h-.5s.04-2.7 0-2.7c0-.5-.1-.9-.3-1.2c-.3-.2-.6-.4-1-.4c-.4 0-.8.2-1.1.5c-.2.3-.4.7-.4 1.2c.03-.05 0 2.6 0 2.6h-.4v-2.7c0-.5-.1-.9-.4-1.2c-.2-.2-.5-.4-1-.4c-.4 0-.7.2-1 .5c-.3.3-.4.7-.4 1.2c-.02-.02 0 2.6 0 2.6h-.5zm12.4-.7c-.5.5-1.2.8-1.9.8c-.6 0-1.2-.2-1.6-.6c-.4-.5-.7-1.1-.7-1.8c0-.6.3-1.2.7-1.7c.4-.4.9-.7 1.5-.7c.7 0 1.2.3 1.5.7c.4.5.6 1 .6 1.7v.2h-3.8c0 .6.2 1 .6 1.3c.3.4.7.5 1.2.5c.6 0 1.1-.2 1.6-.7l.3.3s-.01-.03 0 0zm-3.7-1.8h3.4c-.1-.5-.2-.9-.5-1.3c-.3-.3-.7-.5-1.2-.5c-.4 0-.8.2-1.2.5c-.3.4-.5.8-.5 1.3zm6.5 2.6l-2.1-4.7h.5l1.8 4.1l1.7-4.1h.5l-2 4.7h-.4zm7.3-.9c-.6.6-1.2.9-1.9.9c-.7 0-1.2-.2-1.7-.7c-.4-.4-.7-1-.7-1.7c0-.6.3-1.2.7-1.7c.5-.4 1-.7 1.7-.7c.7 0 1.3.3 1.8.9l-.3.3c-.5-.5-1-.8-1.5-.8c-.5 0-1 .2-1.3.6c-.4.4-.6.9-.6 1.4c0 .6.2 1.1.6 1.4c.3.4.8.6 1.3.6c.6 0 1.1-.2 1.6-.7c-.05-.05.3.2.3.2c0 0-.04.02 0 0zm4.6 0c-.4.6-1 .9-1.7.9c-.6 0-1-.1-1.3-.5c-.4-.3-.5-.8-.5-1.4c-.04.04 0-2.8 0-2.8h.4v2.8c0 .4.1.8.4 1.1c.2.3.6.4 1.1.4c.4 0 .8-.1 1.1-.4c.3-.3.5-.7.5-1.2c-.04-.01 0-2.7 0-2.7h.4v4.6h-.4v-.8s-.04-.03 0 0zm4.3.7c-.2.2-.4.2-.7.2c-.4 0-.7-.1-.9-.3c-.3-.2-.4-.5-.4-1v-3h-.7v-.4h.7v-1.4h.5v1.4h1.6v.4h-1.6s-.05 3 0 3c0 .6.3.9.9.9c.2 0 .4-.1.6-.2c.05.03 0 .4 0 .4c0 0 .05.04 0 0zm3.6 0c-.2.2-.4.2-.7.2c-.4 0-.7-.1-.9-.3c-.3-.2-.4-.5-.4-1v-3h-.7v-.4h.7v-1.4h.5v1.4h1.6v.4h-1.6s-.05 3 0 3c0 .6.3.9.9.9c.2 0 .4-.1.6-.2c.05.03 0 .4 0 .4c0 0 .05.04 0 0zm4.8-.7c-.4.6-1 .9-1.7.9c-.6 0-1-.1-1.3-.5c-.4-.3-.5-.8-.5-1.4c-.02.04 0-2.8 0-2.8h.4s.02 2.76 0 2.8c0 .4.1.8.4 1.1c.3.3.6.4 1.1.4c.4 0 .8-.1 1.1-.4c.3-.3.5-.7.5-1.2c-.03-.01 0-2.7 0-2.7h.4v4.6h-.4v-.8s-.03-.03 0 0zm2.1.8v-4.6h.4s.03 1.34 0 1.3c.2-.4.5-.7.9-1c.3-.2.7-.3 1.2-.3c-.04-.04 0 .4 0 .4c0 0-.08.05-.1 0c-.5 0-1 .3-1.4.7c-.4.4-.6.9-.6 1.6c.03.04 0 1.9 0 1.9h-.4zm2.7 0v-.7h.6v.7h-.6z" stroke="none" fill="#000"/></g><g id="Polygon366300"><path d="m.9 31.3V25h4.5v.5h-4v2.4h3.6v.5H1.4v2.5h4.1v.4H.9zm9.6.9c-.5.4-1 .6-1.7.6c-.8 0-1.5-.3-2.1-.7l.2-.4c.6.5 1.2.7 1.9.7c.5 0 1-.2 1.3-.5c.3-.3.5-.7.5-1.3v-.7c-.5.7-1.1 1.1-1.9 1.1c-.6 0-1.1-.2-1.6-.6c-.4-.4-.6-.9-.6-1.6c0-.6.2-1.2.6-1.6c.5-.4 1-.6 1.6-.6c.8 0 1.4.4 1.9 1.1v-1h.4s.04 3.91 0 3.9c0 .7-.2 1.2-.5 1.6zm-1.8-1.6c.5 0 1-.2 1.4-.5c.3-.4.5-.8.5-1.3c0-.5-.2-.9-.5-1.3c-.4-.3-.9-.5-1.4-.5c-.5 0-.9.2-1.2.5c-.4.3-.5.8-.5 1.3c0 .5.1.9.5 1.3c.3.3.7.5 1.2.5zm1.4-5.6c0 .3-.1.5-.3.7c-.3.2-.5.3-.9.3c-.3 0-.6-.1-.8-.3c-.2-.2-.3-.4-.4-.7h.4c.1.4.4.6.8.6c.5 0 .7-.2.9-.6c-.03-.02.3 0 .3 0c0 0 .03-.02 0 0zm2.6.5v-.6h.6v.6h-.6zm.1 5.8v-4.6h.4v4.6h-.4zm2.2 0v-4.6h.4v.9c.4-.7.9-1 1.5-1c.7 0 1.3.4 1.6 1c.4-.6.9-1 1.6-1c.6 0 1 .2 1.3.5c.3.4.5.9.5 1.4v2.8h-.4s-.04-2.7 0-2.7c0-.5-.2-.9-.4-1.2c-.2-.2-.6-.4-1-.4c-.4 0-.8.2-1 .5c-.3.3-.5.7-.5 1.2c.05-.05 0 2.6 0 2.6h-.4v-2.7c0-.5-.1-.9-.4-1.2c-.2-.2-.5-.4-.9-.4c-.4 0-.8.2-1.1.5c-.3.3-.4.7-.4 1.2v2.6h-.4zm8.5 0v-6.5h.5v6.5h-.5zm2.2-5.8v-.6h.6v.6h-.6zm.1 5.8v-4.6h.4v4.6h-.4zm7.1-.1c-.2.2-.4.2-.7.2c-.4 0-.7-.1-.9-.3c-.3-.2-.4-.5-.4-1v-3h-.7v-.4h.7v-1.4h.4v1.4h1.7v.4h-1.7s.05 3 0 3c0 .6.4.9 1 .9c.2 0 .4-.1.6-.2c.04.03 0 .4 0 .4c0 0 .04.04 0 0zm4.5-.6c-.4.5-1 .8-1.7.8c-.5 0-.9-.1-1.3-.3c-.3-.3-.5-.7-.5-1.1c0-.5.2-.9.5-1.1c.4-.3.9-.4 1.5-.4c.5 0 1 0 1.5.2v-.2c0-.5-.1-.8-.4-1.1c-.2-.2-.6-.3-1.1-.3c-.5 0-1 .1-1.4.3l-.2-.3c.5-.3 1.1-.4 1.6-.4c.7 0 1.1.1 1.5.5c.3.3.4.7.4 1.3c.04-.04 0 2.8 0 2.8h-.4v-.7s.01-.04 0 0zm-1.7.4c.5 0 .9-.1 1.2-.4c.4-.2.5-.6.5-1v-.5c-.5-.2-1-.2-1.5-.2c-.5 0-.9.1-1.2.3c-.2.2-.3.4-.3.7v.1c0 .3.1.5.3.7c.3.2.6.3 1 .3zm5.1.4l-2-4.7h.5l1.7 4.1l1.8-4.1h.5l-2.1 4.7h-.4zm6.6-.8c-.4.5-1 .8-1.7.8c-.5 0-.9-.1-1.3-.3c-.3-.3-.5-.7-.5-1.1c0-.5.2-.9.5-1.1c.4-.3.9-.4 1.5-.4c.5 0 1 0 1.5.2v-.2c0-.5-.1-.8-.4-1.1c-.2-.2-.6-.3-1.1-.3c-.5 0-1 .1-1.4.3l-.2-.3c.5-.3 1.1-.4 1.6-.4c.7 0 1.1.1 1.5.5c.3.3.4.7.4 1.3c.04-.04 0 2.8 0 2.8h-.4v-.7s.01-.04 0 0zm-1.7.4c.5 0 .9-.1 1.2-.4c.4-.2.5-.6.5-1v-.5c-.5-.2-1-.2-1.5-.2c-.5 0-.9.1-1.2.3c-.2.2-.3.4-.3.7v.1c0 .3.1.5.3.7c.3.2.6.3 1 .3zm3.7.3v-4.6h.5s-.03.89 0 .9c.3-.7.9-1 1.6-1c.6 0 1 .2 1.4.5c.3.4.5.9.5 1.4c-.04.02 0 2.8 0 2.8h-.5s.02-2.7 0-2.7c0-.5-.1-.9-.4-1.1c-.2-.3-.6-.5-1-.5c-.5 0-.9.2-1.2.5c-.3.3-.4.7-.4 1.2c-.03-.03 0 2.6 0 2.6h-.5zm10.2-.5l1.6-4.1h.5s-1.97 4.79-2 4.8c-.2.5-.4.8-.6 1c-.3.2-.6.3-.9.3c-.3 0-.6-.1-.9-.2l.1-.4c.3.1.5.2.8.2c.3 0 .5-.1.7-.3c.1-.1.3-.4.5-.8c-.04 0-2.2-4.6-2.2-4.6h.5l1.9 4.1zm6.7-.3c-.3.6-.9.9-1.6.9c-.6 0-1-.1-1.4-.5c-.3-.3-.5-.8-.5-1.4c.05.04 0-2.8 0-2.8h.5v2.8c0 .4.1.8.4 1.1c.2.3.6.4 1 .4c.5 0 .9-.1 1.2-.4c.3-.3.4-.7.4-1.2c.04-.01 0-2.7 0-2.7h.5v4.6h-.5v-.8s.04-.03 0 0zM65.2 26v-.8h.7v.8h-.7zm-1.4 0v-.8h.6v.8h-.6zm4.3 5.3v-.2l3.4-4h-3.2v-.4h3.8v.3l-3.3 3.9h3.3v.4h-4zm9-.7c-.5.5-1.1.8-1.9.8c-.6 0-1.1-.2-1.5-.6c-.5-.5-.7-1.1-.7-1.8c0-.6.2-1.2.6-1.7c.4-.4.9-.7 1.6-.7c.6 0 1.1.3 1.5.7c.4.5.6 1 .6 1.7v.2h-3.8c0 .6.2 1 .5 1.3c.4.4.8.5 1.3.5c.6 0 1.1-.2 1.5-.7c.03 0 .3.3.3.3c0 0 .04-.03 0 0zm-3.6-1.8h3.3c0-.5-.2-.9-.5-1.3c-.3-.3-.7-.5-1.2-.5c-.4 0-.8.2-1.1.5c-.3.4-.5.8-.5 1.3zm6.8 2l1.6-4.1h.5s-1.98 4.79-2 4.8c-.2.5-.4.8-.6 1c-.3.2-.6.3-.9.3c-.3 0-.6-.1-.9-.2l.1-.4c.3.1.5.2.8.2c.3 0 .5-.1.6-.3c.2-.1.4-.4.6-.8c-.05 0-2.3-4.6-2.3-4.6h.6l1.9 4.1zm3.4.5v-6.5h.4v6.5h-.4zm6-.7c-.5.5-1.2.8-1.9.8c-.6 0-1.1-.2-1.6-.6c-.4-.5-.6-1.1-.6-1.8c0-.6.2-1.2.6-1.7c.4-.4.9-.7 1.5-.7c.7 0 1.2.3 1.6.7c.3.5.5 1 .5 1.7v.2H86c.1.6.2 1 .6 1.3c.3.4.8.5 1.2.5c.6 0 1.1-.2 1.6-.7l.3.3s0-.03 0 0zM86 28.8h3.4c-.1-.5-.2-.9-.5-1.3c-.3-.3-.7-.5-1.2-.5c-.4 0-.8.2-1.1.5c-.4.4-.5.8-.6 1.3zm5.1 2.5v-4.6h.5s-.04 1.34 0 1.3c.2-.4.4-.7.8-1c.3-.2.7-.3 1.2-.3v.4s-.05.05 0 0c-.6 0-1.1.3-1.5.7c-.3.4-.5.9-.5 1.6c-.04.04 0 1.9 0 1.9h-.5zm3.6-5.8v-.6h.6v.6h-.6zm.1 5.8v-4.6h.4v4.6h-.4zm2.2 0v-4.6h.4s.01.89 0 .9c.4-.7.9-1 1.7-1c.5 0 1 .2 1.3.5c.3.4.5.9.5 1.4v2.8h-.4s-.04-2.7 0-2.7c0-.5-.2-.9-.4-1.1c-.3-.3-.6-.5-1.1-.5c-.5 0-.8.2-1.1.5c-.3.3-.5.7-.5 1.2v2.6h-.4zm9.3-1c-.5.8-1.1 1.1-1.9 1.1c-.6 0-1.1-.2-1.5-.6c-.5-.5-.7-1-.7-1.8c0-.7.2-1.3.7-1.7c.4-.4.9-.7 1.5-.7c.8 0 1.4.4 1.9 1.1v-2.9h.4v6.5h-.4v-1s.01 0 0 0zm-3.6-1.3c0 .6.1 1.1.5 1.5c.3.3.8.5 1.3.5c.5 0 .9-.2 1.3-.5c.3-.4.5-.9.5-1.5c0-.5-.2-1-.5-1.4c-.4-.4-.8-.6-1.3-.6c-.6 0-1 .2-1.3.6c-.4.3-.5.8-.5 1.4c-.04.01 0 0 0 0c0 0-.04.03 0 0zm9.6 1.6c-.6.5-1.2.8-1.9.8c-.7 0-1.2-.2-1.6-.6c-.5-.5-.7-1.1-.7-1.8c0-.6.2-1.2.6-1.7c.4-.4 1-.7 1.6-.7c.6 0 1.1.3 1.5.7c.4.5.6 1 .6 1.7v.2h-3.8c0 .6.2 1 .6 1.3c.3.4.7.5 1.2.5c.6 0 1.1-.2 1.5-.7c.05 0 .4.3.4.3c0 0-.04-.03 0 0zm-3.7-1.8h3.3c0-.5-.2-.9-.5-1.3c-.2-.3-.6-.5-1.1-.5c-.5 0-.9.2-1.2.5c-.3.4-.5.8-.5 1.3zm7.9 2.5V25h.4v5.9h3.7v.4h-4.1zm9.2-.7c-.5.5-1.2.8-1.9.8c-.6 0-1.2-.2-1.6-.6c-.4-.5-.7-1.1-.7-1.8c0-.6.3-1.2.7-1.7c.4-.4.9-.7 1.5-.7c.7 0 1.2.3 1.5.7c.4.5.6 1 .6 1.7v.2H122c0 .6.2 1 .6 1.3c.3.4.7.5 1.2.5c.6 0 1.1-.2 1.6-.7l.3.3s-.01-.03 0 0zm-3.7-1.8h3.4c-.1-.5-.3-.9-.5-1.3c-.3-.3-.7-.5-1.2-.5c-.4 0-.8.2-1.2.5c-.3.4-.5.8-.5 1.3zm7.9 2.5V25h4.5v.5h-4v2.5h3.5v.5h-3.5v2.8h-.5zm9.5-.7c-.5.5-1.1.8-1.9.8c-.6 0-1.1-.2-1.6-.6c-.4-.5-.6-1.1-.6-1.8c0-.6.2-1.2.6-1.7c.4-.4.9-.7 1.5-.7c.7 0 1.2.3 1.6.7c.4.5.6 1 .6 1.7c0 .1-.1.2-.1.2h-3.8c.1.6.3 1 .6 1.3c.4.4.8.5 1.2.5c.6 0 1.2-.2 1.6-.7l.3.3s.02-.03 0 0zm-3.7-1.8h3.4c-.1-.5-.2-.9-.5-1.3c-.3-.3-.7-.5-1.2-.5c-.4 0-.8.2-1.1.5c-.3.4-.5.8-.6 1.3zm8.5 1.7c-.3.6-.9.9-1.6.9c-.6 0-1-.1-1.4-.5c-.3-.3-.5-.8-.5-1.4c.05.04 0-2.8 0-2.8h.5v2.8c0 .4.1.8.4 1.1c.2.3.6.4 1 .4c.5 0 .9-.1 1.2-.4c.3-.3.4-.7.4-1.2c.04-.01 0-2.7 0-2.7h.5v4.6h-.5v-.8s.04-.03 0 0zm7.1.9c-1 0-1.8-.3-2.5-1l.3-.3c.3.3.7.5 1 .7c.4.1.8.2 1.2.2c.5 0 .9-.1 1.2-.4c.3-.2.4-.5.4-.9c0-.3-.1-.6-.4-.8c-.2-.2-.7-.4-1.4-.5c-.7-.2-1.3-.4-1.6-.7c-.3-.2-.5-.6-.5-1.1c0-.5.2-.9.6-1.2c.4-.3.8-.5 1.4-.5c.5 0 .9.1 1.2.2c.3.1.7.3 1 .6l-.3.4c-.6-.5-1.2-.7-1.9-.7c-.4 0-.8.1-1.1.3c-.3.2-.4.5-.4.8v.1c0 .3.1.6.4.8c.2.2.7.4 1.4.5c.7.2 1.3.4 1.6.7c.3.2.5.6.5 1.1c0 .5-.2.9-.6 1.2c-.4.4-.9.5-1.5.5zm3.5-.1v-6.5h.5v4.9l2.8-3h.6l-2 2.1l2 2.5h-.5l-1.8-2.2l-1.1 1.1v1.1h-.5zm6.9-.5l1.7-4.1h.4s-1.95 4.79-1.9 4.8c-.2.5-.5.8-.7 1c-.3.2-.5.3-.9.3c-.3 0-.6-.1-.9-.2l.2-.4c.2.1.5.2.8.2c.2 0 .4-.1.6-.3c.1-.1.3-.4.5-.8l-2.2-4.6h.5l1.9 4.1zm2.3 1.5l-.1-.2c.2-.1.4-.3.4-.4c.1-.1.1-.2.1-.4c.04.02-.2 0-.2 0v-.7h.6v.6c0 .3-.1.5-.2.7c-.1.2-.3.3-.6.4zm9.5-3.3c0 .7-.3 1.2-.7 1.7c-.5.5-1 .7-1.7.7c-.7 0-1.2-.2-1.7-.7c-.4-.4-.7-1-.7-1.7c0-.6.3-1.2.7-1.7c.5-.4 1-.7 1.7-.7c.7 0 1.2.3 1.7.7c.4.5.7 1.1.7 1.7c-.04.01 0 0 0 0c0 0-.04.03 0 0zm-2.4 2c.6 0 1-.2 1.4-.6c.3-.3.5-.8.5-1.4c0-.5-.2-1-.6-1.4c-.3-.4-.8-.6-1.3-.6c-.5 0-1 .2-1.3.6c-.4.4-.6.9-.6 1.4c0 .6.2 1.1.6 1.4c.3.4.8.6 1.3.6zm.4-5v-.8h.7v.8h-.7zm-1.4 0v-.8h.6v.8h-.6zm4.2 5.3v-.2l3.3-4h-3.1v-.4h3.8v.3l-3.3 3.9h3.3v.4h-4zm9-.7c-.5.5-1.1.8-1.9.8c-.6 0-1.1-.2-1.6-.6c-.4-.5-.6-1.1-.6-1.8c0-.6.2-1.2.6-1.7c.4-.4.9-.7 1.6-.7c.6 0 1.1.3 1.5.7c.4.5.6 1 .6 1.7v.2h-3.9c.1.6.3 1 .6 1.3c.4.4.8.5 1.2.5c.6 0 1.2-.2 1.6-.7c.02 0 .3.3.3.3c0 0 .03-.03 0 0zm-3.7-1.8h3.4c-.1-.5-.2-.9-.5-1.3c-.3-.3-.7-.5-1.2-.5c-.4 0-.8.2-1.1.5c-.3.4-.5.8-.6 1.3zm5.2 2.5v-6.5h.5v6.5h-.5zm8-.7c-.4.5-1 .8-1.7.8c-.5 0-.9-.1-1.3-.3c-.3-.3-.5-.7-.5-1.1c0-.5.2-.9.6-1.1c.3-.3.8-.4 1.4-.4c.5 0 1 0 1.5.2v-.2c0-.5-.1-.8-.4-1.1c-.2-.2-.6-.3-1.1-.3c-.5 0-.9.1-1.4.3l-.2-.3c.6-.3 1.1-.4 1.7-.4c.6 0 1.1.1 1.4.5c.3.3.5.7.5 1.3c-.03-.04 0 2.8 0 2.8h-.5v-.7s.04-.04 0 0zm-1.7.4c.5 0 .9-.1 1.2-.4c.4-.2.5-.6.5-1v-.5c-.5-.2-1-.2-1.5-.2c-.5 0-.9.1-1.1.3c-.3.2-.4.4-.4.7v.1c0 .3.1.5.4.7c.2.2.5.3.9.3zm5.3 1.7l-.5-.3s.68-.99.7-1c-.6-.1-1.1-.3-1.5-.8c-.4-.4-.6-1-.6-1.6c0-.6.3-1.2.7-1.7c.5-.4 1-.7 1.7-.7c.7 0 1.3.3 1.8.9l-.3.3c-.5-.5-1-.8-1.5-.8c-.5 0-1 .2-1.3.6c-.4.4-.6.9-.6 1.4c0 .6.2 1.1.6 1.4c.3.4.8.6 1.3.6c.6 0 1.1-.2 1.5-.7l.4.2c-.6.6-1.2.9-1.8.9l-.6 1.3zm3.7-1.4v-4.6h.4v4.6h-.4zm2.2 0v-6.5h.4v6.5h-.4zm2.2 0v-4.6h.5v4.6h-.5zm4.9 0v-4.6h.5s-.04.85 0 .9c.3-.7.8-1 1.5-1c.7 0 1.2.4 1.5 1c.4-.6 1-1 1.7-1c.5 0 1 .2 1.3.5c.3.4.5.9.5 1.4c-.04.04 0 2.8 0 2.8h-.5s.02-2.7 0-2.7c0-.5-.1-.9-.3-1.2c-.3-.2-.6-.4-1-.4c-.5 0-.8.2-1.1.5c-.3.3-.4.7-.4 1.2v2.6h-.4s-.03-2.73 0-2.7c0-.5-.2-.9-.4-1.2c-.2-.2-.6-.4-1-.4c-.4 0-.7.2-1 .5c-.3.3-.4.7-.4 1.2c-.04-.02 0 2.6 0 2.6h-.5zm12.9-2.3c0 .7-.2 1.2-.6 1.7c-.5.5-1.1.7-1.7.7c-.7 0-1.3-.2-1.7-.7c-.5-.4-.7-1-.7-1.7c0-.6.3-1.2.7-1.7c.5-.4 1-.7 1.7-.7c.7 0 1.2.3 1.7.7c.4.5.6 1.1.6 1.7c.04.01 0 0 0 0c0 0 .04.03 0 0zm-2.3 2c.5 0 1-.2 1.3-.6c.4-.3.6-.8.6-1.4c0-.5-.2-1-.6-1.4c-.3-.4-.8-.6-1.3-.6c-.6 0-1 .2-1.4.6c-.3.4-.5.9-.5 1.4c0 .6.2 1.1.6 1.4c.3.4.8.6 1.3.6zm3.7.3v-4.6h.4s.04.89 0 .9c.4-.7 1-1 1.7-1c.6 0 1 .2 1.3.5c.4.4.5.9.5 1.4c.03.02 0 2.8 0 2.8h-.4v-2.7c0-.5-.1-.9-.4-1.1c-.2-.3-.6-.5-1.1-.5c-.4 0-.8.2-1.1.5c-.3.3-.5.7-.5 1.2c.04-.03 0 2.6 0 2.6h-.4zm7.8-.1c-.2.2-.5.2-.8.2c-.3 0-.6-.1-.9-.3c-.2-.2-.3-.5-.3-1c-.04.05 0-3 0-3h-.7v-.4h.7v-1.4h.4v1.4h1.6v.4h-1.6v3c0 .6.3.9.9.9c.2 0 .5-.1.7-.2v.4s0 .04 0 0zm4.5-.6c-.5.5-1 .8-1.8.8c-.5 0-.9-.1-1.2-.3c-.4-.3-.6-.7-.6-1.1c0-.5.2-.9.6-1.1c.4-.3.8-.4 1.4-.4c.6 0 1.1 0 1.6.2v-.2c0-.5-.2-.8-.4-1.1c-.3-.2-.7-.3-1.1-.3c-.5 0-1 .1-1.5.3l-.1-.3c.5-.3 1-.4 1.6-.4c.6 0 1.1.1 1.4.5c.3.3.5.7.5 1.3v2.8h-.4v-.7s-.03-.04 0 0zm-1.8.4c.5 0 .9-.1 1.3-.4c.3-.2.5-.6.5-1v-.5c-.6-.2-1.1-.2-1.6-.2c-.5 0-.8.1-1.1.3c-.3.2-.4.4-.4.7v.1c0 .3.1.5.4.7c.3.2.6.3.9.3zm3.8-5.5v-.6h.5v.6h-.5zm-.5 7.3h-.4v-.4h.4c.2 0 .3-.1.4-.2c.1-.1.1-.2.1-.4c.05-.04 0-5.1 0-5.1h.5s-.01 5.03 0 5c0 .4-.1.6-.3.8c-.1.2-.4.3-.7.3zm8.6-2.2c-.5.5-1 .8-1.8.8c-.4 0-.9-.1-1.2-.3c-.4-.3-.6-.7-.6-1.1c0-.5.2-.9.6-1.1c.4-.3.8-.4 1.5-.4c.5 0 1 0 1.5.2v-.2c0-.5-.2-.8-.4-1.1c-.3-.2-.7-.3-1.1-.3c-.5 0-1 .1-1.5.3l-.1-.3c.5-.3 1.1-.4 1.6-.4c.6 0 1.1.1 1.4.5c.4.3.5.7.5 1.3v2.8h-.4v-.7s-.03-.04 0 0zm-1.8.4c.5 0 .9-.1 1.3-.4c.3-.2.5-.6.5-1v-.5c-.6-.2-1.1-.2-1.6-.2c-.5 0-.8.1-1.1.3c-.3.2-.4.4-.4.7v.1c0 .3.1.5.4.7c.3.2.6.3.9.3zm3.8 1.8v-6.1h.4s.03 1.06 0 1.1c.5-.8 1.1-1.2 1.9-1.2c.6 0 1.1.2 1.6.7c.4.4.7 1 .7 1.7c0 .7-.3 1.3-.7 1.8c-.5.4-1 .6-1.6.6c-.7 0-1.4-.3-1.9-1.1c.03.03 0 2.5 0 2.5h-.4zm2.3-1.8c.5 0 .9-.2 1.3-.5c.3-.4.5-.9.5-1.5c0-.6-.2-1-.5-1.4c-.4-.4-.8-.6-1.3-.6c-.5 0-1 .2-1.3.6c-.4.4-.6.9-.6 1.4c0 .6.2 1.1.6 1.5c.3.3.8.5 1.3.5zm6.8-.4c-.4.5-1 .8-1.8.8c-.4 0-.9-.1-1.2-.3c-.4-.3-.5-.7-.5-1.1c0-.5.1-.9.5-1.1c.4-.3.9-.4 1.5-.4c.5 0 1 0 1.5.2v-.2c0-.5-.2-.8-.4-1.1c-.3-.2-.7-.3-1.1-.3c-.5 0-1 .1-1.5.3l-.1-.3c.5-.3 1.1-.4 1.6-.4c.6 0 1.1.1 1.4.5c.4.3.5.7.5 1.3v2.8h-.4v-.7s-.02-.04 0 0zm-1.7.4c.4 0 .8-.1 1.2-.4c.3-.2.5-.6.5-1v-.5c-.6-.2-1.1-.2-1.6-.2c-.4 0-.8.1-1.1.3c-.2.2-.4.4-.4.7v.1c0 .3.2.5.4.7c.3.2.6.3 1 .3zm3.7.3v-4.6h.4s.04 1.34 0 1.3c.2-.4.5-.7.9-1c.3-.2.7-.3 1.2-.3c-.03-.04 0 .4 0 .4c0 0-.07.05-.1 0c-.5 0-1 .3-1.4.7c-.4.4-.6.9-.6 1.6c.04.04 0 1.9 0 1.9h-.4zm6.5-.7c-.4.5-1 .8-1.7.8c-.5 0-.9-.1-1.3-.3c-.3-.3-.5-.7-.5-1.1c0-.5.2-.9.5-1.1c.4-.3.9-.4 1.5-.4c.5 0 1 0 1.5.2v-.2c0-.5-.1-.8-.4-1.1c-.2-.2-.6-.3-1.1-.3c-.5 0-1 .1-1.4.3l-.2-.3c.6-.3 1.1-.4 1.6-.4c.7 0 1.1.1 1.5.5c.3.3.5.7.5 1.3c-.05-.04 0 2.8 0 2.8h-.5v-.7s.02-.04 0 0zm-1.7.4c.5 0 .9-.1 1.2-.4c.4-.2.5-.6.5-1v-.5c-.5-.2-1-.2-1.5-.2c-.5 0-.9.1-1.1.3c-.3.2-.4.4-.4.7v.1c0 .3.1.5.4.7c.2.2.5.3.9.3zm6 .2c-.3.2-.5.2-.8.2c-.4 0-.7-.1-.9-.3c-.2-.2-.4-.5-.4-1c.04.05 0-3 0-3h-.6v-.4h.6v-1.4h.5v1.4h1.6v.4h-1.6s-.02 3 0 3c0 .6.3.9.9.9c.2 0 .4-.1.7-.2c-.03.03 0 .4 0 .4c0 0-.03.04 0 0zm1.4.1v-4.6h.4v4.6h-.4zm4.1-.5l1.6-4.1h.5s-1.98 4.79-2 4.8c-.2.5-.4.8-.6 1c-.3.2-.6.3-.9.3c-.3 0-.6-.1-.9-.2l.1-.4c.3.1.5.2.8.2c.3 0 .5-.1.6-.3c.2-.1.4-.4.6-.8c-.05 0-2.3-4.6-2.3-4.6h.6l1.9 4.1zm3.4.5v-6.5h.4v6.5h-.4zm5.3-.7c-.4.5-1 .8-1.7.8c-.5 0-.9-.1-1.3-.3c-.3-.3-.5-.7-.5-1.1c0-.5.2-.9.5-1.1c.4-.3.9-.4 1.5-.4c.5 0 1 0 1.5.2v-.2c0-.5-.1-.8-.4-1.1c-.2-.2-.6-.3-1.1-.3c-.5 0-1 .1-1.4.3l-.2-.3c.5-.3 1.1-.4 1.6-.4c.7 0 1.1.1 1.5.5c.3.3.4.7.4 1.3c.05-.04 0 2.8 0 2.8h-.4v-.7s.02-.04 0 0zm-1.7.4c.5 0 .9-.1 1.2-.4c.4-.2.5-.6.5-1v-.5c-.5-.2-1-.2-1.5-.2c-.5 0-.9.1-1.1.3c-.3.2-.4.4-.4.7v.1c0 .3.1.5.3.7c.3.2.6.3 1 .3zm6.4.3v-4.6h.5s-.03.85 0 .9c.3-.7.9-1 1.5-1c.7 0 1.2.4 1.6 1c.3-.6.9-1 1.6-1c.5 0 1 .2 1.3.5c.3.4.5.9.5 1.4c-.03.04 0 2.8 0 2.8h-.5s.03-2.7 0-2.7c0-.5-.1-.9-.3-1.2c-.3-.2-.6-.4-1-.4c-.4 0-.8.2-1.1.5c-.2.3-.4.7-.4 1.2c.02-.05 0 2.6 0 2.6h-.4s-.02-2.73 0-2.7c0-.5-.1-.9-.4-1.2c-.2-.2-.5-.4-1-.4c-.4 0-.7.2-1 .5c-.3.3-.4.7-.4 1.2c-.03-.02 0 2.6 0 2.6h-.5zm13-2.3c0 .7-.3 1.2-.7 1.7c-.5.5-1 .7-1.7.7c-.7 0-1.2-.2-1.7-.7c-.4-.4-.7-1-.7-1.7c0-.6.3-1.2.7-1.7c.5-.4 1-.7 1.7-.7c.7 0 1.2.3 1.7.7c.4.5.7 1.1.7 1.7c-.04.01 0 0 0 0c0 0-.04.03 0 0zm-2.4 2c.5 0 1-.2 1.3-.6c.4-.3.6-.8.6-1.4c0-.5-.2-1-.6-1.4c-.3-.4-.8-.6-1.3-.6c-.6 0-1 .2-1.4.6c-.3.4-.5.9-.5 1.4c0 .6.2 1.1.6 1.4c.3.4.8.6 1.3.6zm3.7.3v-4.6h.5s-.04.89 0 .9c.3-.7.9-1 1.6-1c.6 0 1 .2 1.4.5c.3.4.4.9.4 1.4c.05.02 0 2.8 0 2.8h-.4v-2.7c0-.5-.1-.9-.4-1.1c-.2-.3-.6-.5-1.1-.5c-.4 0-.8.2-1.1.5c-.3.3-.4.7-.4 1.2c-.04-.03 0 2.6 0 2.6h-.5zm7.8-.1c-.2.2-.5.2-.7.2c-.4 0-.7-.1-1-.3c-.2-.2-.3-.5-.3-1c-.02.05 0-3 0-3h-.7v-.4h.7v-1.4h.4v1.4h1.6v.4h-1.6s.02 3 0 3c0 .6.3.9.9.9c.2 0 .5-.1.7-.2v.4s.01.04 0 0zm5-.6c-.5.5-1.1.8-1.9.8c-.6 0-1.1-.2-1.6-.6c-.4-.5-.6-1.1-.6-1.8c0-.6.2-1.2.6-1.7c.4-.4.9-.7 1.6-.7c.6 0 1.1.3 1.5.7c.4.5.6 1 .6 1.7v.2h-3.8c0 .6.2 1 .5 1.3c.4.4.8.5 1.3.5c.5 0 1.1-.2 1.5-.7c.03 0 .3.3.3.3c0 0 .03-.03 0 0zm-3.6-1.8h3.3c-.1-.5-.2-.9-.5-1.3c-.3-.3-.7-.5-1.2-.5c-.4 0-.8.2-1.1.5c-.3.4-.5.8-.5 1.3zm11.6 1.8c-.5.5-1.2.8-1.9.8c-.6 0-1.2-.2-1.6-.6c-.4-.5-.7-1.1-.7-1.8c0-.6.2-1.2.7-1.7c.4-.4.9-.7 1.5-.7c.6 0 1.2.3 1.5.7c.4.5.6 1 .6 1.7v.2h-3.8c0 .6.2 1 .6 1.3c.3.4.7.5 1.2.5c.6 0 1.1-.2 1.6-.7c-.02 0 .3.3.3.3c0 0-.01-.03 0 0zm-3.7-1.8h3.3c0-.5-.2-.9-.4-1.3c-.3-.3-.7-.5-1.2-.5c-.5 0-.8.2-1.2.5c-.3.4-.5.8-.5 1.3zm8.9 1.5c-.5.8-1.1 1.1-1.9 1.1c-.5 0-1.1-.2-1.5-.6c-.5-.5-.7-1-.7-1.8c0-.7.2-1.3.7-1.7c.4-.4 1-.7 1.5-.7c.8 0 1.4.4 1.9 1.1c.03.02 0-2.9 0-2.9h.5v6.5h-.5v-1s.03 0 0 0zm-3.6-1.3c0 .6.2 1.1.5 1.5c.4.3.8.5 1.3.5c.5 0 .9-.2 1.3-.5c.4-.4.6-.9.6-1.5c0-.5-.2-1-.6-1.4c-.4-.4-.8-.6-1.3-.6c-.5 0-1 .2-1.3.6c-.3.3-.5.8-.5 1.4c-.01.01 0 0 0 0c0 0-.01.03 0 0zm5.8-3.5v-.6h.5v.6h-.5zm0 5.8v-4.6h.5v4.6h-.5zm2.3 0v-6.5h.4v6.5h-.4zm2.1-5.8v-.6h.6v.6h-.6zm.1 5.8v-4.6h.4v4.6h-.4zm2.2 0v-4.6h.4v1.3c.2-.4.5-.7.8-1c.4-.2.8-.3 1.2-.3c.05-.04 0 .4 0 .4c0 0 0 .05 0 0c-.6 0-1 .3-1.4.7c-.4.4-.6.9-.6 1.6v1.9h-.4zm2.7 0v-.7h.6v.7h-.6z" stroke="none" fill="#000"/></g><g id="Polygon366299"><path d="m2.2 11.2V1.4h7.4v1.9H4.3v2h4.6v1.9H4.3v2.1h5.3v1.9H2.2zm18.3-1.4c-1.3 1-2.7 1.6-4.2 1.6c-1.5 0-2.8-.5-3.7-1.5c-1-.9-1.5-2.1-1.5-3.6c0-1.4.5-2.6 1.5-3.6c1-1 2.2-1.5 3.7-1.5c.8 0 1.5.1 2.1.4c.6.2 1.2.5 1.7 1l-1.3 1.6c-.4-.3-.8-.6-1.2-.7c-.4-.2-.9-.3-1.4-.3c-.8 0-1.5.3-2 .9c-.6.6-.8 1.3-.8 2.2c0 .9.3 1.6.8 2.2c.6.6 1.3.9 2.1.9c.8 0 1.5-.2 2.1-.6c-.03.02 0-1.4 0-1.4h-2.2V5.6h4.3v4.2s-.04.01 0 0zM18.8-1.6c-.1.7-.3 1.2-.8 1.6c-.5.3-1.1.5-1.9.5c-.7 0-1.3-.2-1.8-.5c-.5-.4-.7-.9-.8-1.6h1.4c.2.5.6.7 1.2.7c.7 0 1.1-.2 1.3-.7c-.05.03 1.4 0 1.4 0c0 0 .01.03 0 0zm3.8 12.8V1.4h2.2v9.8h-2.2zM22.7.6v-1.7h2.1v1.7h-2.1zm4.5 10.6V1.4h2.4l2.5 4.1l2.6-4.1h2.3v9.8h-2.1V4.8L32.1 9l-2.8-4.2v6.4h-2.1zm12.2 0V1.4h2.1v7.8h4.9v2h-7zm8.8 0V1.4h2.1v9.8h-2.1zm0-10.6v-1.7h2.1v1.7h-2.1zm11 10.6V3.4h-2.9v-2h8.1v2h-3v7.8h-2.2zm4.7 0l4.2-9.9h2l4.2 9.9h-2.2L71.2 9H67l-.9 2.2h-2.2zm3.9-4.1h2.6l-1.3-3.2l-1.3 3.2zm9.8 4.2l-4-9.9h2.4l2.5 6.9l2.6-6.9h2.3l-3.9 9.9h-1.9zm5.1-.1l4.2-9.9h2l4.2 9.9h-2.3L89.9 9h-4.1l-.9 2.2h-2.2zm3.9-4.1h2.6l-1.3-3.2l-1.3 3.2zm8 4.1V1.4h2l4.6 6v-6h2.1v9.8h-1.8L96.7 5v6.2h-2.1zm11 0V1.4h2.2v7.8h4.9v2h-7.1zm7.9 0l4.2-9.9h2l4.2 9.9h-2.3l-.9-2.2h-4.1l-.9 2.2h-2.2zm3.8-4.1h2.6l-1.3-3.2l-1.3 3.2zm8.1 4.1V1.4h4.5c1.2 0 2.1.3 2.8 1c.6.6.9 1.3.9 2.2v.1c0 1.5-.7 2.5-2.1 3c-.05 0 2.3 3.5 2.3 3.5h-2.5l-2.1-3.1h-1.7v3.1h-2.1zm2.1-5s2.22-.04 2.2 0c.5 0 .9-.2 1.2-.4c.3-.3.5-.6.5-1v-.1c0-.4-.2-.8-.5-1c-.3-.2-.7-.4-1.2-.4c-.03.05-2.2 0-2.2 0v2.9zm12.3 5V1.4h2.2v9.8h-2.2zm0-10.6v-1.7h2.1v1.7h-2.1zm8.6 13l-1.7-.7l1.1-1.7c-1.1-.2-2.1-.8-2.8-1.7c-.7-.9-1-2-1-3.2c0-1.4.4-2.6 1.4-3.6c1-1 2.2-1.5 3.7-1.5c1.5 0 2.8.5 3.8 1.5l-1.3 1.6c-.9-.7-1.7-1.1-2.5-1.1c-.8 0-1.5.3-2.1.9c-.5.6-.8 1.3-.8 2.2c0 .9.3 1.6.8 2.2c.6.6 1.2.9 2.1.9c.5 0 .9-.1 1.3-.3c.4-.2.8-.5 1.2-.9l1.4 1.4c-1 1.1-2.2 1.7-3.6 1.8c-.04-.05-1 2.2-1 2.2zm6.4-2.4V1.4h2.2v9.8h-2.2zm.1-10.6v-1.7h2.1v1.7h-2.1zm4.5 10.6V1.4h2l4.6 6v-6h2.1v9.8h-1.8L161.6 5v6.2h-2.2zm23.7-4.3c0 1.5-.4 2.6-1.2 3.3c-.7.8-1.8 1.2-3.1 1.2c-1.4 0-2.4-.4-3.1-1.2c-.8-.7-1.2-1.8-1.2-3.2c.04 0 0-5.6 0-5.6h2.2v5.5c0 .8.2 1.4.6 1.8c.3.5.8.7 1.5.7c.7 0 1.2-.2 1.6-.6c.3-.4.5-1 .5-1.8c.03.01 0-5.6 0-5.6h2.2v5.5s-.02.03 0 0zm4.9 4.3V7.3l-3.7-5.9h2.5l2.3 3.9l2.4-3.9h2.5l-3.8 5.9v3.9H188zm15.4-1.4c-1.3 1-2.6 1.6-4.2 1.6c-1.5 0-2.8-.5-3.7-1.5c-1-.9-1.5-2.1-1.5-3.6c0-1.4.5-2.6 1.5-3.6c1-1 2.2-1.5 3.7-1.5c.8 0 1.5.1 2.1.4c.6.2 1.2.5 1.7 1l-1.3 1.6c-.4-.3-.8-.6-1.2-.7c-.4-.2-.9-.3-1.4-.3c-.8 0-1.5.3-2 .9c-.5.6-.8 1.3-.8 2.2c0 .9.3 1.6.8 2.2c.6.6 1.3.9 2.2.9c.8 0 1.4-.2 2-.6c-.02.02 0-1.4 0-1.4h-2.2V5.6h4.3v4.2s-.03.01 0 0zm10.4-2.9c0 1.5-.4 2.6-1.1 3.3c-.8.8-1.8 1.2-3.2 1.2c-1.3 0-2.4-.4-3.1-1.2c-.7-.7-1.1-1.8-1.1-3.2V1.4h2.1s.04 5.54 0 5.5c0 .8.2 1.4.6 1.8c.4.5.9.7 1.6.7c.6 0 1.1-.2 1.5-.6c.4-.4.6-1 .6-1.8c-.03.01 0-5.6 0-5.6h2.1v5.5s.03.03 0 0zm2.2 4.3V1.4h2l4.6 6v-6h2.1v9.8h-1.8L218.2 5v6.2H216z" stroke="none" fill="#000"/></g></svg>