<?xml version="1.0" standalone="no"?><!DOCTYPE svg PUBLIC "-//W3C//DTD SVG 1.1//EN" "http://www.w3.org/Graphics/SVG/1.1/DTD/svg11.dtd"><svg xmlns="http://www.w3.org/2000/svg" version="1.1" width="111px" height="66px" viewBox="0 -2 111 66" style="top:-2px"><desc>BLACK Paslanmaz elik, F r alanm</desc><defs/><g id="Polygon366615"><path d="m.5 44.9v-3.5h2.5v.2H.8v1.5h2v.2h-2v1.6h-.3zm3.3 0v-2.6h.3v2.6h-.3zm1.3 0v-2.6h.2s.02.79 0 .8c.1-.3.3-.4.5-.6c.2-.1.4-.2.7-.2c-.03.01 0 .3 0 .3c0 0-.05-.02-.1 0c-.3 0-.5.1-.8.3c-.2.3-.3.6-.3 1c.02-.02 0 1 0 1h-.2zm2.7.8l-.2-.1s.35-.61.3-.6c-.3 0-.6-.2-.8-.5c-.2-.2-.3-.5-.3-.8v-.1c0-.3.1-.6.4-.9c.2-.3.6-.4.9-.4c.4 0 .8.1 1.1.5l-.2.1c-.3-.2-.6-.4-.9-.4c-.3 0-.5.1-.7.3c-.2.3-.3.5-.3.8c0 .4.1.6.3.8c.2.3.4.4.7.4c.4 0 .6-.2.9-.5l.2.2c-.3.3-.6.5-1 .5c-.02 0-.4.7-.4.7zm3.9-1.2c-.3.3-.6.5-1 .5c-.3 0-.5-.1-.7-.2c-.2-.2-.3-.4-.3-.6c0-.3.1-.5.3-.6c.2-.2.5-.3.8-.3c.3 0 .6.1.9.1v-.1c0-.2-.1-.4-.3-.6c-.1-.1-.3-.2-.6-.2c-.3 0-.5.1-.8.3l-.1-.3c.3-.1.6-.2.9-.2c.4 0 .7.1.8.3c.2.2.3.4.3.7v1.6h-.2v-.4s-.04.01 0 0zm-1 .3c.3 0 .5-.1.7-.3c.2-.1.3-.3.3-.5v-.3c-.3-.1-.6-.1-.9-.1c-.3 0-.5 0-.6.1c-.2.1-.3.3-.3.5c0 .2.1.3.3.4c.1.1.3.2.5.2zm2.1.1v-3.7h.3v3.7h-.3zm3-.4c-.2.3-.5.5-.9.5c-.3 0-.5-.1-.7-.2c-.2-.2-.3-.4-.3-.6c0-.3.1-.5.3-.6c.2-.2.4-.3.8-.3c.3 0 .6.1.8.1v-.1c0-.2 0-.4-.2-.6c-.1-.1-.3-.2-.6-.2c-.3 0-.6.1-.8.3l-.1-.3c.3-.1.6-.2.9-.2c.4 0 .6.1.8.3c.2.2.3.4.3.7v1.6h-.3v-.4s.04.01 0 0zm-.9.3c.2 0 .5-.1.7-.3c.2-.1.2-.3.2-.5v-.3c-.3-.1-.5-.1-.8-.1c-.3 0-.5 0-.7.1c-.1.1-.2.3-.2.5c0 .2.1.3.2.4c.2.1.4.2.6.2zm2.1.1v-2.6h.2s.03.53 0 .5c.2-.3.6-.5 1-.5c.3 0 .5.1.7.3c.2.2.3.4.3.8v1.5h-.2s-.05-1.5 0-1.5c0-.3-.1-.5-.3-.6c-.1-.2-.3-.3-.6-.3c-.2 0-.4.1-.6.3c-.2.1-.3.4-.3.6c.03.04 0 1.5 0 1.5h-.2zm3.1 0v-2.6h.2s.05.51 0 .5c.3-.3.5-.5.9-.5c.4 0 .7.2.9.5c.2-.3.5-.5.9-.5c.3 0 .6.1.7.3c.2.2.3.4.3.8c.02-.03 0 1.5 0 1.5h-.2s-.03-1.5 0-1.5c0-.3-.1-.5-.2-.7c-.2-.1-.4-.2-.6-.2c-.2 0-.4.1-.6.3c-.1.1-.2.4-.2.6c-.02.03 0 1.5 0 1.5h-.3s.03-1.51 0-1.5c0-.3 0-.5-.2-.7c-.1-.1-.3-.2-.5-.2c-.3 0-.5.1-.6.3c-.2.2-.3.4-.3.6c.05.05 0 1.5 0 1.5h-.2zm4.8 0v-2.6h.3v2.6h-.3zm1.8.8l-.3-.1s.43-.62.4-.6c-.3-.1-.6-.2-.8-.4l.1-.2c.3.2.6.4.9.4c.2 0 .4-.1.5-.2c.1-.1.2-.2.2-.3c0-.1-.1-.2-.1-.2c0-.1-.1-.1-.2-.2c0 0-.1-.1-.2-.1c0 0-.1 0-.2-.1h-.3c0-.1-.1-.1-.2-.1c-.1-.1-.2-.1-.2-.2c-.1 0-.1-.1-.2-.1v-.3c0-.2.1-.4.2-.5c.2-.1.4-.2.6-.2c.4 0 .7.1 1 .3l-.2.2c-.2-.2-.5-.3-.8-.3c-.2 0-.3.1-.4.2c-.1 0-.2.2-.2.3c0 .1.1.1.1.2c0 0 .1.1.2.1c0 .1.1.1.2.1c0 0 .1.1.3.1c.1 0 .2.1.3.1c.1 0 .1.1.2.1l.2.2c.1.1.1.2.1.3c0 .3-.1.4-.2.6c-.2.1-.4.2-.6.2c-.04-.01-.4.7-.4.7z" stroke="none" fill="#000"/></g><g id="Polygon366614"><path d="m.5 38.8v-3.5s1.32-.04 1.3 0c.4 0 .7.1 1 .2c.2.2.3.5.3.8v.1c0 .3-.1.6-.4.8c-.2.2-.5.3-.9.3h-1v1.3h-.3zm.3-1.6s.97.05 1 0c.3 0 .6 0 .8-.2c.2-.2.3-.4.3-.6c0-.3-.1-.5-.3-.7c-.2-.1-.5-.2-.8-.2h-1v1.7zm4.8 1.2c-.2.3-.6.5-1 .5c-.3 0-.5-.1-.7-.2c-.2-.2-.3-.4-.3-.6c0-.3.1-.5.3-.7c.2-.1.5-.2.8-.2c.3 0 .6 0 .9.1v-.1c0-.3-.1-.4-.2-.6c-.2-.1-.4-.2-.7-.2c-.2 0-.5.1-.8.2l-.1-.2c.3-.1.7-.2 1-.2c.3 0 .6.1.8.3c.2.1.2.4.2.7c.04 0 0 1.6 0 1.6h-.2v-.4s0-.02 0 0zm-1 .2c.3 0 .5 0 .7-.2c.2-.1.3-.3.3-.6v-.2c-.3-.1-.6-.2-.9-.2c-.2 0-.5.1-.6.2c-.2.1-.2.3-.2.4c0 .2 0 .4.2.5c.1.1.3.1.5.1zm3 .3c-.4 0-.8-.2-1.1-.4l.2-.2c.3.2.6.3.9.3c.2 0 .3 0 .4-.1c.2-.1.2-.2.2-.4v-.2c-.1 0-.1-.1-.2-.1c-.1 0-.1-.1-.2-.1c-.1 0-.2-.1-.3-.1c-.1 0-.2 0-.2-.1c-.1 0-.2 0-.3-.1c-.1 0-.1 0-.2-.1s-.1-.1-.1-.2s-.1-.1-.1-.2c0-.2.1-.4.3-.5c.1-.2.3-.2.6-.2c.3 0 .6.1.9.3l-.1.2c-.3-.2-.5-.3-.8-.3c-.2 0-.3 0-.4.1c-.2.1-.2.2-.2.4v.1l.2.2c.1 0 .2.1.2.1c.1 0 .2 0 .3.1c.1 0 .3 0 .3.1c.1 0 .2.1.3.1c.1.1.2.1.2.2c0 .1.1.2.1.3c0 .2-.1.4-.3.6c-.2.1-.4.2-.6.2zm1.7-.1v-3.7h.2v3.7h-.2zm3-.4c-.2.3-.6.5-1 .5c-.2 0-.5-.1-.7-.2c-.2-.2-.3-.4-.3-.6c0-.3.1-.5.3-.7c.2-.1.5-.2.8-.2c.3 0 .6 0 .9.1v-.1c0-.3-.1-.4-.2-.6c-.2-.1-.4-.2-.6-.2c-.3 0-.6.1-.9.2l-.1-.2c.4-.1.7-.2 1-.2c.3 0 .6.1.8.3c.2.1.2.4.2.7c.05 0 0 1.6 0 1.6h-.2v-.4s.01-.02 0 0zm-1 .2c.3 0 .5 0 .7-.2c.2-.1.3-.3.3-.6v-.2c-.3-.1-.6-.2-.9-.2c-.2 0-.4.1-.6.2c-.1.1-.2.3-.2.4c0 .2.1.4.2.5c.1.1.3.1.5.1zm2.1.2v-2.6h.3v.5c.2-.4.5-.5.9-.5c.4 0 .6.1.8.3c.2.2.3.4.3.7c-.03.03 0 1.6 0 1.6h-.3s.02-1.52 0-1.5c0-.3-.1-.5-.2-.7c-.1-.1-.3-.2-.6-.2c-.3 0-.5.1-.6.3c-.2.1-.3.3-.3.6v1.5h-.3zm3.2 0v-2.6h.2v.5c.2-.4.5-.5.9-.5c.4 0 .7.1.8.5c.3-.4.6-.5 1-.5c.3 0 .5.1.7.3c.2.2.3.4.3.7c-.02.05 0 1.6 0 1.6h-.3s.03-1.52 0-1.5c0-.3 0-.5-.2-.7c-.1-.1-.3-.2-.5-.2c-.3 0-.5.1-.6.2c-.2.2-.3.4-.3.7c.04.01 0 1.5 0 1.5h-.2v-1.5c0-.3-.1-.5-.2-.7c-.1-.1-.3-.2-.6-.2c-.2 0-.4.1-.6.3c-.1.1-.2.4-.2.6v1.5h-.2zm6.6-.4c-.3.3-.6.5-1 .5c-.3 0-.5-.1-.7-.2c-.2-.2-.3-.4-.3-.6c0-.3.1-.5.3-.7c.2-.1.5-.2.8-.2c.3 0 .6 0 .9.1v-.1c0-.3-.1-.4-.3-.6c-.1-.1-.3-.2-.6-.2c-.3 0-.5.1-.8.2l-.1-.2c.3-.1.6-.2.9-.2c.4 0 .6.1.8.3c.2.1.3.4.3.7v1.6h-.2v-.4s-.05-.02 0 0zm-1 .2c.2 0 .5 0 .7-.2c.2-.1.3-.3.3-.6v-.2c-.3-.1-.6-.2-.9-.2c-.3 0-.5.1-.7.2c-.1.1-.2.3-.2.4c0 .2.1.4.2.5c.2.1.4.1.6.1zm1.9.2v-.1l1.9-2.3h-1.8v-.2h2.2v.2l-1.9 2.2h1.9v.2h-2.3zm5.9.8l-.3-.2l.4-.5c-.4-.1-.8-.3-1.1-.6c-.3-.4-.5-.8-.5-1.3c0-.5.2-.9.5-1.3c.4-.3.8-.5 1.3-.5c.3 0 .6 0 .8.1c.2.1.4.3.6.5l-.2.2c-.4-.4-.8-.6-1.2-.6c-.4 0-.8.2-1.1.5c-.3.3-.4.7-.4 1.1c0 .5.1.9.4 1.2c.3.3.7.4 1.1.4c.3 0 .5 0 .7-.1c.2-.1.3-.2.5-.4l.2.2c-.2.2-.4.3-.6.4c-.2.1-.5.2-.7.2c-.03-.02-.4.7-.4.7zm4.5-1.2c-.3.3-.6.5-1 .5c-.4 0-.7-.1-.9-.4c-.3-.3-.4-.6-.4-1c0-.4.1-.7.3-.9c.3-.3.6-.4.9-.4c.4 0 .7.1.9.3c.2.3.3.6.3 1v.1h-2.2c.1.3.2.6.4.8c.2.2.4.2.7.2c.3 0 .6-.1.9-.4c-.05.04.1.2.1.2c0 0 .02-.01 0 0zm-2.1-1h1.9c0-.3-.1-.5-.2-.7c-.2-.2-.4-.3-.7-.3c-.3 0-.5.1-.7.3c-.1.2-.2.4-.3.7zm3 1.4v-3.7h.2v3.7h-.2zm1.2-3.3v-.3h.3v.3h-.3zm0 3.3v-2.6h.3v2.6h-.3zm1.3 0v-3.7h.2v2.8l1.6-1.7h.3l-1.1 1.2l1.2 1.4h-.3l-1.1-1.2l-.6.6v.6h-.2zm2.7.6l-.1-.2c.1 0 .2-.1.2-.1c.1-.1.1-.2.1-.3c-.01.02-.2 0-.2 0v-.4h.4s-.02.36 0 .4c0 .1 0 .2-.1.3l-.3.3z" stroke="none" fill="#000"/></g><g id="Polygon366613"><path d="m93.1 4.1V.5h1.5c.4 0 .7.1.9.3c.1.2.2.4.2.6c0 .4-.2.7-.6.8l.6.3c.1.2.2.4.2.6c0 .3-.1.5-.3.7c-.3.2-.6.3-1 .3c.03-.03-1.5 0-1.5 0zm2.3-2.7c0-.2 0-.4-.2-.5c-.2-.1-.4-.1-.7-.1c.05-.05-1.2 0-1.2 0v1.4s1.22-.05 1.2 0c.3 0 .5-.1.7-.2c.2-.2.2-.4.2-.6zm.2 1.7c0-.2-.1-.4-.2-.5c-.2-.1-.5-.2-.8-.2h-1.3v1.4s1.34.02 1.3 0c.3 0 .6 0 .8-.2c.1-.1.2-.3.2-.5zm1.2 1V.5h.2v3.3h2.1v.3h-2.3zm2.8 0l1.6-3.6h.3l1.6 3.6h-.3l-.4-1h-2.1l-.5 1h-.2zm.8-1.3h1.9l-1-2l-.9 2zm4.9 1.3c-.5 0-.9-.1-1.3-.5c-.3-.4-.5-.8-.5-1.3c0-.5.2-1 .5-1.3c.4-.4.8-.6 1.3-.6c.3 0 .6.1.8.2c.2.1.4.2.6.4l-.2.2c-.4-.3-.8-.5-1.2-.5c-.4 0-.8.1-1.1.4c-.3.4-.4.7-.4 1.2c0 .4.1.8.4 1.1c.3.3.7.5 1.1.5c.3 0 .5-.1.7-.1c.2-.1.3-.3.5-.5l.2.2c-.2.2-.4.4-.6.5c-.3.1-.5.1-.8.1zm2.2 0V.5h.2v2.3L110 .5h.4l-1.6 1.6l1.6 2h-.3l-1.5-1.8l-.9.9v.9h-.2z" stroke="none" fill="#000"/></g></svg>