<?xml version="1.0" standalone="no"?><!DOCTYPE svg PUBLIC "-//W3C//DTD SVG 1.1//EN" "http://www.w3.org/Graphics/SVG/1.1/DTD/svg11.dtd"><svg xmlns="http://www.w3.org/2000/svg" version="1.1" width="478.3px" height="29.8px" viewBox="0 -3 478.3 29.8" style="top:-3px"><desc>Do al ve zarif bir g r n m i in el i ili iyle retilmi p r zs z ah ap ayaklar tercih edin ya da rose gold ayaklarl...</desc><defs/><g id="Polygon367339"><path d="m200.9 20.6l1.6-4.1h.5s-1.98 4.74-2 4.7c-.2.5-.4.8-.6 1c-.3.2-.6.3-.9.3c-.3 0-.6 0-.9-.2l.1-.3c.3.1.5.1.8.1c.3 0 .5-.1.6-.2c.2-.2.4-.5.6-.9c-.05.05-2.3-4.5-2.3-4.5h.6l1.9 4.1zm6.3-.3c-.5.6-1.1.9-1.8.9c-.5 0-.9-.1-1.2-.4c-.4-.3-.6-.6-.6-1.1c0-.4.2-.8.6-1.1c.3-.2.8-.4 1.4-.4c.5 0 1.1.1 1.6.2v-.2c0-.4-.2-.8-.4-1c-.3-.3-.7-.4-1.2-.4c-.4 0-.9.1-1.4.4l-.2-.4c.6-.3 1.1-.4 1.7-.4c.6 0 1.1.2 1.4.5c.3.3.5.8.5 1.3c-.02.01 0 2.9 0 2.9h-.4v-.8s-.05.01 0 0zm-1.8.5c.5 0 .9-.2 1.3-.4c.3-.3.5-.6.5-1v-.6c-.6-.1-1.1-.2-1.6-.2c-.5 0-.8.1-1.1.3c-.3.2-.4.5-.4.8c0 .3.1.6.4.8c.2.2.6.3.9.3zm10.3-.8c-.5.8-1.1 1.2-1.9 1.2c-.6 0-1.1-.2-1.6-.7c-.4-.4-.6-1-.6-1.7c0-.7.2-1.3.6-1.8c.5-.4 1-.6 1.6-.6c.8 0 1.4.3 1.9 1.1v-3h.4v6.6h-.4V20s-.01.05 0 0zm-3.7-1.2c0 .6.2 1 .6 1.4c.3.4.7.6 1.2.6c.5 0 1-.2 1.4-.6c.3-.4.5-.8.5-1.4c0-.6-.2-1.1-.5-1.4c-.4-.4-.9-.6-1.4-.6c-.5 0-.9.2-1.2.5c-.4.4-.6.9-.6 1.5c.05-.04 0 0 0 0c0 0 .05-.02 0 0zm9 1.5c-.5.6-1.1.9-1.8.9c-.5 0-.9-.1-1.2-.4c-.4-.3-.6-.6-.6-1.1c0-.4.2-.8.6-1.1c.3-.2.8-.4 1.4-.4c.6 0 1.1.1 1.6.2v-.2c0-.4-.2-.8-.4-1c-.3-.3-.7-.4-1.2-.4c-.4 0-.9.1-1.4.4l-.2-.4c.6-.3 1.1-.4 1.7-.4c.6 0 1.1.2 1.4.5c.3.3.5.8.5 1.3v2.9h-.4v-.8s-.04.01 0 0zm-1.8.5c.5 0 .9-.2 1.3-.4c.3-.3.5-.6.5-1v-.6c-.6-.1-1.1-.2-1.6-.2c-.5 0-.8.1-1.1.3c-.3.2-.4.5-.4.8c0 .3.1.6.4.8c.3.2.6.3.9.3zm6.5.3v-4.6h.4v1.3c.2-.4.5-.8.8-1c.4-.3.8-.4 1.2-.4c.05.01 0 .5 0 .5c-.6 0-1 .2-1.4.6c-.4.4-.6 1-.6 1.7v1.9h-.4zm7.7-2.3c0 .6-.2 1.2-.6 1.7c-.5.4-1 .7-1.7.7c-.7 0-1.2-.3-1.7-.7c-.4-.5-.7-1-.7-1.7c0-.7.3-1.2.7-1.7c.5-.5 1-.7 1.7-.7c.7 0 1.2.2 1.7.7c.4.4.6 1 .6 1.7c.05-.04 0 0 0 0c0 0 .05-.02 0 0zm-2.3 2c.5 0 1-.2 1.3-.6c.4-.4.6-.9.6-1.4c0-.6-.2-1-.6-1.4c-.3-.4-.8-.6-1.3-.6c-.6 0-1 .2-1.4.6c-.3.4-.5.8-.5 1.4c0 .5.2 1 .6 1.4c.3.4.8.6 1.3.6zm5.2.4c-.7 0-1.3-.3-1.9-.7l.3-.4c.5.4 1 .7 1.6.7c.3 0 .6-.1.8-.3c.2-.1.3-.4.3-.6c0-.2 0-.3-.1-.4c0-.1-.1-.2-.3-.2c-.1-.1-.2-.2-.3-.2c-.1 0-.3-.1-.5-.2c-.2 0-.4-.1-.5-.1l-.4-.2c-.1 0-.3-.1-.3-.2l-.3-.3c0-.1-.1-.3-.1-.4c0-.4.2-.7.5-.9c.2-.3.6-.4 1-.4c.6 0 1.2.2 1.7.5l-.3.4c-.4-.3-.9-.5-1.4-.5c-.3 0-.5.1-.7.2c-.2.2-.3.4-.3.6c0 .1 0 .3.1.3c0 .1.1.2.3.3c.1.1.3.1.4.2c.1 0 .2.1.5.1c.2.1.4.1.5.2c.2.1.3.1.5.2c.2.1.3.3.4.4c0 .1.1.3.1.5c0 .4-.2.7-.5 1c-.3.2-.7.4-1.1.4zm6.8-.9c-.5.6-1.2.9-1.9.9c-.6 0-1.1-.2-1.6-.7c-.4-.4-.6-1-.6-1.7c0-.7.2-1.3.6-1.7c.4-.5.9-.7 1.5-.7c.7 0 1.2.2 1.6.7c.4.4.6 1 .6 1.7c0 .1-.1.1-.1.2h-3.8c.1.5.3 1 .6 1.3c.4.3.8.5 1.2.5c.6 0 1.2-.3 1.6-.8c.01.05.3.3.3.3c0 0 .02.02 0 0zm-3.7-1.7h3.4c-.1-.5-.2-1-.5-1.3c-.3-.3-.7-.5-1.2-.5c-.4 0-.8.2-1.1.5c-.4.3-.5.8-.6 1.3zm11.5 3.3c-.4.4-.9.6-1.6.6c-.8 0-1.5-.2-2.2-.7l.3-.3c.6.4 1.2.6 1.9.6c.5 0 .9-.1 1.3-.4c.3-.4.5-.8.5-1.4v-.6c-.5.7-1.2 1-2 1c-.5 0-1-.2-1.5-.6c-.4-.4-.7-.9-.7-1.5c0-.7.3-1.2.7-1.6c.5-.4 1-.6 1.5-.6c.8 0 1.5.3 2 1c-.04 0 0-.9 0-.9h.4v3.9c0 .6-.2 1.1-.6 1.5zm-1.7-1.6c.5 0 .9-.2 1.3-.5c.4-.3.6-.7.6-1.2v-.1c0-.5-.2-.9-.6-1.2c-.4-.3-.8-.5-1.3-.5c-.5 0-.9.2-1.3.5c-.3.3-.5.7-.5 1.2v.1c0 .5.2.9.5 1.2c.4.3.8.5 1.3.5zm8.4-1.5c0 .6-.2 1.2-.7 1.7c-.5.4-1 .7-1.7.7c-.7 0-1.2-.3-1.7-.7c-.4-.5-.6-1-.6-1.7c0-.7.2-1.2.6-1.7c.5-.5 1.1-.7 1.7-.7c.7 0 1.3.2 1.7.7c.5.4.7 1 .7 1.7c-.02-.04 0 0 0 0c0 0-.02-.02 0 0zm-2.4 2c.6 0 1-.2 1.4-.6c.3-.4.5-.9.5-1.4c0-.6-.2-1-.5-1.4c-.4-.4-.9-.6-1.4-.6c-.5 0-1 .2-1.3.6c-.4.4-.6.8-.6 1.4c0 .5.2 1 .6 1.4c.4.4.8.6 1.3.6zm3.8.3v-6.6h.4v6.6h-.4zm6-1.1c-.5.8-1.1 1.2-1.9 1.2c-.6 0-1.1-.2-1.5-.7c-.5-.4-.7-1-.7-1.7c0-.7.2-1.3.7-1.8c.4-.4.9-.6 1.5-.6c.8 0 1.4.3 1.9 1.1v-3h.4v6.6h-.4V20s0 .05 0 0zm-3.6-1.2c0 .6.1 1 .5 1.4c.3.4.8.6 1.3.6c.5 0 .9-.2 1.3-.6c.3-.4.5-.8.5-1.4c0-.6-.2-1.1-.5-1.4c-.4-.4-.8-.6-1.3-.6c-.6 0-1 .2-1.3.5c-.4.4-.5.9-.5 1.5c-.04-.04 0 0 0 0c0 0-.04-.02 0 0zm11.6 1.5c-.5.6-1 .9-1.8.9c-.5 0-.9-.1-1.2-.4c-.4-.3-.6-.6-.6-1.1c0-.4.2-.8.6-1.1c.4-.2.8-.4 1.4-.4c.6 0 1.1.1 1.6.2v-.2c0-.4-.2-.8-.4-1c-.3-.3-.7-.4-1.1-.4c-.5 0-1 .1-1.5.4l-.1-.4c.5-.3 1-.4 1.6-.4c.6 0 1.1.2 1.4.5c.3.3.5.8.5 1.3v2.9h-.4v-.8s-.03.01 0 0zm-1.8.5c.5 0 .9-.2 1.3-.4c.3-.3.5-.6.5-1v-.6c-.6-.1-1.1-.2-1.6-.2c-.5 0-.8.1-1.1.3c-.3.2-.4.5-.4.8c0 .3.1.6.4.8c.3.2.6.3.9.3zm5.5-.2l1.7-4.1h.5l-2 4.7c-.2.5-.4.8-.7 1c-.2.2-.5.3-.8.3c-.3 0-.6 0-.9-.2l.1-.3c.2.1.5.1.8.1c.2 0 .4-.1.6-.2c.2-.2.4-.5.5-.9l-2.2-4.5h.5l1.9 4.1zm6.3-.3c-.4.6-1 .9-1.7.9c-.5 0-.9-.1-1.3-.4c-.3-.3-.5-.6-.5-1.1c0-.4.2-.8.5-1.1c.4-.2.9-.4 1.5-.4c.5 0 1 .1 1.5.2v-.2c0-.4-.1-.8-.4-1c-.2-.3-.6-.4-1.1-.4c-.5 0-1 .1-1.4.4l-.2-.4c.6-.3 1.1-.4 1.6-.4c.7 0 1.1.2 1.5.5c.3.3.5.8.5 1.3c-.05.01 0 2.9 0 2.9h-.5v-.8s.02.01 0 0zm-1.7.5c.5 0 .9-.2 1.2-.4c.4-.3.5-.6.5-1v-.6c-.5-.1-1-.2-1.5-.2c-.5 0-.9.1-1.1.3c-.3.2-.4.5-.4.8c0 .3.1.6.4.8c.2.2.5.3.9.3zm3.7.3v-6.6h.5v4.9l2.8-2.9h.6l-2 2l2.1 2.6h-.6l-1.8-2.3l-1.1 1.2v1.1h-.5zm5.1 0v-6.6h.5v6.6h-.5zm5.4-.8c-.5.6-1 .9-1.8.9c-.5 0-.9-.1-1.2-.4c-.4-.3-.6-.6-.6-1.1c0-.4.2-.8.6-1.1c.4-.2.8-.4 1.4-.4c.6 0 1.1.1 1.6.2v-.2c0-.4-.2-.8-.4-1c-.3-.3-.7-.4-1.1-.4c-.5 0-1 .1-1.5.4l-.1-.4c.5-.3 1-.4 1.6-.4c.6 0 1.1.2 1.4.5c.3.3.5.8.5 1.3v2.9h-.4v-.8s-.03.01 0 0zm-1.8.5c.5 0 .9-.2 1.3-.4c.3-.3.5-.6.5-1v-.6c-.6-.1-1.1-.2-1.6-.2c-.5 0-.8.1-1.1.3c-.3.2-.4.5-.4.8c0 .3.1.6.4.8c.3.2.6.3.9.3zm3.8.3v-4.6h.4s.02 1.29 0 1.3c.2-.4.5-.8.8-1c.4-.3.8-.4 1.3-.4c-.04.01 0 .5 0 .5h-.1c-.5 0-1 .2-1.4.6c-.4.4-.6 1-.6 1.7c.02-.01 0 1.9 0 1.9h-.4zm3.6 0v-6.6h.5v6.6h-.5zm5.4-.8c-.5.6-1 .9-1.8.9c-.4 0-.9-.1-1.2-.4c-.4-.3-.6-.6-.6-1.1c0-.4.2-.8.6-1.1c.4-.2.8-.4 1.5-.4c.5 0 1 .1 1.5.2v-.2c0-.4-.2-.8-.4-1c-.3-.3-.7-.4-1.1-.4c-.5 0-1 .1-1.5.4l-.1-.4c.5-.3 1-.4 1.6-.4c.6 0 1.1.2 1.4.5c.4.3.5.8.5 1.3v2.9h-.4v-.8s-.03.01 0 0zm-1.8.5c.5 0 .9-.2 1.3-.4c.3-.3.5-.6.5-1v-.6c-.6-.1-1.1-.2-1.6-.2c-.5 0-.8.1-1.1.3c-.3.2-.4.5-.4.8c0 .3.1.6.4.8c.3.2.6.3.9.3zm6.5.3v-4.6h.4s.03.8 0 .8c.4-.6.9-.9 1.6-.9c.7 0 1.2.3 1.5 1c.4-.7.9-1 1.7-1c.5 0 .9.2 1.3.5c.3.3.4.8.4 1.4c.03-.01 0 2.8 0 2.8h-.4v-2.8c0-.5-.1-.8-.4-1.1c-.2-.3-.5-.4-1-.4c-.4 0-.7.1-1 .4c-.3.3-.4.7-.4 1.2c-.02 0 0 2.7 0 2.7h-.5s.04-2.78 0-2.8c0-.5-.1-.8-.3-1.1c-.3-.3-.6-.4-1-.4c-.4 0-.8.1-1 .5c-.3.3-.5.7-.5 1.1c.03.03 0 2.7 0 2.7h-.4zm12.9-2.3c0 .6-.2 1.2-.7 1.7c-.4.4-1 .7-1.7.7c-.6 0-1.2-.3-1.6-.7c-.5-.5-.7-1-.7-1.7c0-.7.2-1.2.7-1.7c.4-.5 1-.7 1.7-.7c.6 0 1.2.2 1.6.7c.5.4.7 1 .7 1.7c.01-.04 0 0 0 0c0 0 .01-.02 0 0zm-2.3 2c.5 0 1-.2 1.3-.6c.4-.4.5-.9.5-1.4c0-.6-.1-1-.5-1.4c-.4-.4-.8-.6-1.4-.6c-.5 0-.9.2-1.3.6c-.3.4-.5.8-.5 1.4c0 .5.2 1 .5 1.4c.4.4.8.6 1.4.6zm7.5-.8c-.5.8-1.1 1.2-1.9 1.2c-.6 0-1.1-.2-1.5-.7c-.5-.4-.7-1-.7-1.7c0-.7.2-1.3.7-1.8c.4-.4.9-.6 1.5-.6c.8 0 1.4.3 1.9 1.1v-3h.4v6.6h-.4V20s0 .05 0 0zm-3.6-1.2c0 .6.1 1 .5 1.4c.3.4.8.6 1.3.6c.5 0 .9-.2 1.3-.6c.3-.4.5-.8.5-1.4c0-.6-.2-1.1-.5-1.4c-.4-.4-.8-.6-1.3-.6c-.6 0-1 .2-1.3.5c-.4.4-.5.9-.5 1.5c-.05-.04 0 0 0 0c0 0-.05-.02 0 0zm9.5 1.5c-.5.6-1.1.9-1.9.9c-.6 0-1.1-.2-1.5-.7c-.5-.4-.7-1-.7-1.7c0-.7.2-1.3.6-1.7c.4-.5 1-.7 1.6-.7c.6 0 1.1.2 1.5.7c.4.4.6 1 .6 1.7v.2h-3.8c0 .5.2 1 .5 1.3c.4.3.8.5 1.3.5c.6 0 1.1-.3 1.5-.8l.3.3s.05.02 0 0zm-3.6-1.7h3.3c0-.5-.2-1-.5-1.3c-.3-.3-.6-.5-1.1-.5c-.5 0-.9.2-1.2.5c-.3.3-.5.8-.5 1.3zm5.1 2.5v-4.6h.4v1.3c.2-.4.5-.8.8-1c.4-.3.8-.4 1.2-.4c.04.01 0 .5 0 .5c-.6 0-1 .2-1.4.6c-.4.4-.6 1-.6 1.7v1.9h-.4zm3.6 0v-4.6h.4v.8c.4-.6.9-.9 1.7-.9c.5 0 1 .2 1.3.5c.3.3.5.8.5 1.4v2.8h-.4s-.04-2.75 0-2.8c0-.4-.2-.8-.4-1.1c-.3-.3-.6-.4-1.1-.4c-.5 0-.8.1-1.1.4c-.3.3-.5.7-.5 1.2v2.7h-.4zm9.8 0l-2.1-4.6h.5l1.8 4.1l1.7-4.1h.5l-2 4.6h-.4zm7.2-.8c-.5.6-1.2.9-1.9.9c-.6 0-1.2-.2-1.6-.7c-.4-.4-.7-1-.7-1.7c0-.7.2-1.3.7-1.7c.4-.5.9-.7 1.5-.7c.6 0 1.2.2 1.5.7c.4.4.6 1 .6 1.7v.2h-3.8c0 .5.2 1 .6 1.3c.3.3.7.5 1.2.5c.6 0 1.1-.3 1.6-.8c-.02.05.3.3.3.3c0 0-.01.02 0 0zm-3.7-1.7h3.3c0-.5-.2-1-.4-1.3c-.3-.3-.7-.5-1.2-.5c-.5 0-.8.2-1.2.5c-.3.3-.5.8-.5 1.3zm9.3 3.8l-.5-.2l.7-1c-.6-.1-1-.4-1.4-.8c-.4-.5-.6-1-.6-1.6c0-.7.2-1.2.7-1.7c.4-.5 1-.7 1.6-.7c.7 0 1.3.3 1.9.8l-.3.3c-.5-.5-1-.7-1.6-.7c-.5 0-.9.2-1.3.6c-.3.3-.5.8-.5 1.4c0 .5.2 1 .5 1.4c.4.4.8.6 1.4.6c.5 0 1-.3 1.5-.8l.3.3c-.5.5-1.1.9-1.8.9c.04-.02-.6 1.2-.6 1.2zm6.8-2.1c-.4.6-1 .9-1.8.9c-.4 0-.8-.1-1.2-.4c-.4-.3-.5-.6-.5-1.1c0-.4.2-.8.5-1.1c.4-.2.9-.4 1.5-.4c.5 0 1 .1 1.5.2v-.2c0-.4-.1-.8-.4-1c-.3-.3-.6-.4-1.1-.4c-.5 0-1 .1-1.5.4l-.1-.4c.5-.3 1.1-.4 1.6-.4c.6 0 1.1.2 1.5.5c.3.3.4.8.4 1.3c.03.01 0 2.9 0 2.9h-.4v-.8s0 .01 0 0zm-1.7.5c.5 0 .9-.2 1.2-.4c.3-.3.5-.6.5-1v-.6c-.5-.1-1.1-.2-1.5-.2c-.5 0-.9.1-1.2.3c-.2.2-.4.5-.4.8c0 .3.2.6.4.8c.3.2.6.3 1 .3zm3.7.3v-4.6h.5s-.04 1.29 0 1.3c.1-.4.4-.8.8-1c.3-.3.7-.4 1.2-.4v.5h-.1c-.5 0-1 .2-1.4.6c-.4.4-.5 1-.5 1.7c-.04-.01 0 1.9 0 1.9h-.5zm3.6 1.4v-6h.5s-.04 1.01 0 1c.4-.7 1.1-1.1 1.8-1.1c.6 0 1.2.2 1.6.6c.5.5.7 1 .7 1.8c0 .7-.2 1.3-.7 1.7c-.4.5-1 .7-1.6.7c-.7 0-1.4-.4-1.8-1.1c-.04-.02 0 2.4 0 2.4h-.5zm2.3-1.7c.5 0 .9-.2 1.3-.6c.3-.3.5-.8.5-1.4c0-.6-.2-1.1-.5-1.5c-.4-.3-.8-.5-1.3-.5c-.5 0-.9.2-1.3.6c-.4.3-.6.8-.6 1.4c0 .6.2 1 .6 1.4c.4.4.8.6 1.3.6zm3.7.3v-4.6h.5v4.6h-.5zm6.1-.8c-.5.6-1.2.9-1.9.9c-.6 0-1.2-.3-1.6-.7c-.5-.5-.7-1.1-.7-1.7c0-.7.2-1.2.7-1.7c.4-.5 1-.7 1.6-.7c.7 0 1.3.3 1.9.8l-.4.3c-.5-.5-1-.7-1.5-.7c-.5 0-1 .2-1.3.6c-.4.3-.5.8-.5 1.4c0 .5.1 1 .5 1.4c.4.4.8.6 1.3.6c.6 0 1.1-.3 1.6-.8l.3.3s-.01-.03 0 0zm1.3.8v-4.6h.4v4.6h-.4zm7.2.1c-.8 0-1.4-.4-1.9-1.1c.02-.02 0 1 0 1h-.4v-6.6h.4s.02 3.01 0 3c.5-.7 1.1-1.1 1.9-1.1c.6 0 1.1.2 1.6.6c.4.5.6 1 .6 1.8c0 .7-.2 1.3-.6 1.7c-.5.5-1 .7-1.6.7zm0-.4c.5 0 .9-.2 1.2-.6c.4-.3.6-.8.6-1.4c0-.6-.2-1.1-.6-1.5c-.3-.3-.7-.5-1.2-.5c-.5 0-1 .2-1.3.6c-.4.3-.6.8-.6 1.4c0 .6.2 1 .6 1.4c.3.4.8.6 1.3.6zm3.6-5.5v-.6h.6v.6h-.6zm.1 5.8v-4.6h.4v4.6h-.4zm2.2 0v-4.6h.4v1.3c.2-.4.5-.8.8-1c.4-.3.8-.4 1.2-.4c.03.01 0 .5 0 .5c0 0-.01 0 0 0c-.6 0-1 .2-1.4.6c-.4.4-.6 1-.6 1.7v1.9h-.4zm6.3 0v-6.6h.4v4.9l2.8-2.9h.6l-2 2l2.1 2.6h-.6l-1.8-2.3l-1.1 1.2v1.1h-.4zm9.2-2.3c0 .6-.3 1.2-.7 1.7c-.5.4-1 .7-1.7.7c-.7 0-1.2-.3-1.7-.7c-.4-.5-.6-1-.6-1.7c0-.7.2-1.2.6-1.7c.5-.5 1.1-.7 1.7-.7c.7 0 1.3.2 1.7.7c.4.4.7 1 .7 1.7c-.03-.04 0 0 0 0c0 0-.03-.02 0 0zm-2.4 2c.6 0 1-.2 1.4-.6c.3-.4.5-.9.5-1.4c0-.6-.2-1-.6-1.4c-.3-.4-.8-.6-1.3-.6c-.5 0-1 .2-1.3.6c-.4.4-.6.8-.6 1.4c0 .5.2 1 .6 1.4c.3.4.8.6 1.3.6zm3.7.3v-4.6h.5s-.03.84 0 .8c.3-.6.9-.9 1.6-.9c.6 0 1 .2 1.4.5c.3.3.5.8.5 1.4c-.04-.03 0 2.8 0 2.8h-.5s.02-2.75 0-2.8c0-.4-.1-.8-.4-1.1c-.2-.3-.6-.4-1-.4c-.5 0-.9.1-1.2.4c-.3.3-.4.7-.4 1.2c-.03.02 0 2.7 0 2.7h-.5zm7.8-.1c-.2.1-.5.2-.7.2c-.4 0-.7-.1-1-.4c-.2-.2-.3-.5-.3-.9v-3h-.7v-.4h.7V15h.4v1.5h1.6v.4h-1.6s.03 2.95 0 3c0 .5.3.8.9.8c.3 0 .5 0 .7-.1c.02-.02 0 .4 0 .4c0 0 .02-.01 0 0zm1.3.1v-4.6h.5v1.3c.2-.4.5-.8.8-1c.4-.3.8-.4 1.2-.4c.02.01 0 .5 0 .5c0 0-.02 0 0 0c-.6 0-1.1.2-1.4.6c-.4.4-.6 1-.6 1.7v1.9h-.5zm6.6-.8c-.5.6-1 .9-1.8.9c-.5 0-.9-.1-1.2-.4c-.4-.3-.6-.6-.6-1.1c0-.4.2-.8.6-1.1c.4-.2.8-.4 1.5-.4c.5 0 1 .1 1.5.2v-.2c0-.4-.2-.8-.4-1c-.3-.3-.7-.4-1.1-.4c-.5 0-1 .1-1.5.4l-.1-.4c.5-.3 1-.4 1.6-.4c.6 0 1.1.2 1.4.5c.3.3.5.8.5 1.3v2.9h-.4v-.8s-.03.01 0 0zm-1.8.5c.5 0 .9-.2 1.3-.4c.3-.3.5-.6.5-1v-.6c-.6-.1-1.1-.2-1.6-.2c-.5 0-.8.1-1.1.3c-.3.2-.4.5-.4.8c0 .3.1.6.4.8c.3.2.6.3.9.3zm5.3.4c-.7 0-1.3-.3-1.9-.7l.3-.4c.5.4 1 .7 1.6.7c.3 0 .6-.1.8-.3c.2-.1.3-.4.3-.6c0-.2 0-.3-.1-.4c0-.1-.1-.2-.3-.2c-.1-.1-.2-.2-.3-.2c-.2 0-.3-.1-.5-.2c-.2 0-.4-.1-.5-.1c-.1 0-.2-.1-.4-.2c-.2 0-.3-.1-.4-.2c0-.1-.1-.2-.2-.3c0-.1-.1-.3-.1-.4c0-.4.2-.7.4-.9c.3-.3.7-.4 1.1-.4c.6 0 1.2.2 1.7.5l-.3.4c-.4-.3-.9-.5-1.4-.5c-.3 0-.6.1-.7.2c-.2.2-.3.4-.3.6c0 .1 0 .3.1.3c0 .1.1.2.3.3c.1.1.3.1.4.2c.1 0 .2.1.4.1c.3.1.5.1.6.2c.1.1.3.1.5.2c.1.1.3.3.3.4c.1.1.2.3.2.5c0 .4-.2.7-.5 1c-.3.2-.7.4-1.1.4zm5.1-.2c-.2.1-.4.2-.7.2c-.4 0-.7-.1-.9-.4c-.3-.2-.4-.5-.4-.9v-3h-.7v-.4h.7V15h.5v1.5h1.6v.4h-1.6s-.04 2.95 0 3c0 .5.3.8.9.8c.2 0 .4 0 .6-.1c.05-.02 0 .4 0 .4c0 0 .05-.01 0 0zm6-.4l1.7-4.1h.4s-1.94 4.74-1.9 4.7c-.2.5-.5.8-.7 1c-.2.2-.5.3-.9.3c-.3 0-.6 0-.9-.2l.2-.3c.2.1.5.1.8.1c.2 0 .4-.1.6-.2c.2-.2.3-.5.5-.9c-.01.05-2.2-4.5-2.2-4.5h.5l1.9 4.1zm6.3-.3c-.4.6-1 .9-1.8.9c-.4 0-.8-.1-1.2-.4c-.4-.3-.5-.6-.5-1.1c0-.4.1-.8.5-1.1c.4-.2.9-.4 1.5-.4c.5 0 1 .1 1.5.2v-.2c0-.4-.1-.8-.4-1c-.3-.3-.6-.4-1.1-.4c-.5 0-1 .1-1.5.4l-.1-.4c.5-.3 1.1-.4 1.6-.4c.6 0 1.1.2 1.5.5c.3.3.4.8.4 1.3c.02.01 0 2.9 0 2.9h-.4v-.8s-.01.01 0 0zm-1.7.5c.4 0 .9-.2 1.2-.4c.3-.3.5-.6.5-1v-.6c-.5-.1-1.1-.2-1.6-.2c-.4 0-.8.1-1.1.3c-.2.2-.4.5-.4.8c0 .3.2.6.4.8c.3.2.6.3 1 .3zm3.7.3v-4.6h.4s.05 1.29 0 1.3c.2-.4.5-.8.9-1c.3-.3.7-.4 1.2-.4c-.02.01 0 .5 0 .5h-.1c-.5 0-1 .2-1.4.6c-.4.4-.6 1-.6 1.7c.05-.01 0 1.9 0 1.9h-.4zm6.5-.8c-.4.6-1 .9-1.7.9c-.5 0-.9-.1-1.3-.4c-.3-.3-.5-.6-.5-1.1c0-.4.2-.8.6-1.1c.3-.2.8-.4 1.4-.4c.5 0 1 .1 1.5.2v-.2c0-.4-.1-.8-.4-1c-.2-.3-.6-.4-1.1-.4c-.5 0-.9.1-1.4.4l-.2-.4c.6-.3 1.1-.4 1.6-.4c.7 0 1.2.2 1.5.5c.3.3.5.8.5 1.3c-.04.01 0 2.9 0 2.9h-.5v-.8s.03.01 0 0zm-1.7.5c.5 0 .9-.2 1.2-.4c.4-.3.5-.6.5-1v-.6c-.5-.1-1-.2-1.5-.2c-.5 0-.9.1-1.1.3c-.3.2-.4.5-.4.8c0 .3.1.6.4.8c.2.2.5.3.9.3zm6 .2c-.3.1-.5.2-.8.2c-.4 0-.7-.1-.9-.4c-.2-.2-.4-.5-.4-.9c.04 0 0-3 0-3h-.6v-.4h.6V15h.5v1.5h1.6v.4h-1.6s-.02 2.95 0 3c0 .5.3.8.9.8c.2 0 .4 0 .7-.1c-.02-.02 0 .4 0 .4c0 0-.02-.01 0 0zm1.4.1v-4.6h.4v4.6h-.4zm2.1 0v-4.6h.5s-.02.84 0 .8c.4-.6.9-.9 1.6-.9c.6 0 1.1.2 1.4.5c.3.3.5.8.5 1.4c-.03-.03 0 2.8 0 2.8h-.5s.03-2.75 0-2.8c0-.4-.1-.8-.3-1.1c-.3-.3-.7-.4-1.1-.4c-.5 0-.9.1-1.2.4c-.3.3-.4.7-.4 1.2c-.02.02 0 2.7 0 2.7h-.5zm5.5 0v-.8h.6v.8h-.6z" stroke="none" fill="#000"/></g><g id="Polygon367338"><path d="m92.5 7.2V.9h2.1c.9 0 1.7.3 2.4.9c.6.6.9 1.3.9 2.2c0 .9-.3 1.7-.9 2.3c-.7.6-1.5.9-2.4.9h-2.1zm2.1-5.9c-.04.03-1.7 0-1.7 0v5.5s1.66-.03 1.7 0c.8 0 1.5-.3 2-.8c.6-.5.8-1.2.8-1.9v-.1c0-.7-.2-1.4-.8-1.9c-.5-.5-1.2-.8-2-.8zm9.2 3.6c0 .7-.2 1.2-.7 1.7c-.4.5-1 .7-1.7.7c-.6 0-1.2-.2-1.6-.7c-.5-.5-.7-1-.7-1.7c0-.6.2-1.2.7-1.7c.4-.5 1-.7 1.6-.7c.7 0 1.3.2 1.7.7c.5.5.7 1 .7 1.7c0-.01 0 0 0 0zm-2.4 2c.6 0 1-.2 1.4-.6c.3-.4.5-.8.5-1.4c0-.6-.2-1-.5-1.4c-.4-.4-.8-.6-1.4-.6c-.5 0-1 .2-1.3.6c-.4.4-.5.8-.5 1.4c0 .6.1 1 .5 1.4c.4.4.8.6 1.3.6zm7.4 1.1c-.4.5-.9.7-1.6.7c-.8 0-1.5-.3-2.1-.7l.2-.4c.6.4 1.2.6 1.9.6c.5 0 1-.1 1.3-.4c.3-.3.5-.8.5-1.3v-.7c-.5.7-1.2 1.1-1.9 1.1c-.6 0-1.1-.2-1.6-.6c-.4-.5-.6-1-.6-1.6c0-.7.2-1.2.6-1.6c.5-.4 1-.6 1.6-.6c.8 0 1.4.3 1.9 1c-.02.03 0-.9 0-.9h.4s.02 3.89 0 3.9c0 .6-.2 1.2-.6 1.5zm-1.7-1.6c.5 0 1-.1 1.3-.5c.4-.3.6-.7.6-1.2c0-.5-.2-1-.6-1.3c-.3-.3-.8-.5-1.3-.5c-.5 0-.9.2-1.2.5c-.4.3-.6.7-.6 1.3c0 .5.2.9.6 1.2c.3.4.7.5 1.2.5zm1.4-5.5c0 .3-.1.5-.4.7c-.2.2-.4.3-.8.3c-.3 0-.6-.1-.8-.3c-.2-.2-.4-.4-.4-.7h.4c.1.3.4.5.8.5c.4 0 .7-.2.9-.5c-.05-.05.3 0 .3 0c0 0 .01-.05 0 0zm5.7 5.5c-.4.6-1 .9-1.7.9c-.5 0-.9-.1-1.2-.4c-.4-.2-.6-.6-.6-1v-.1c0-.4.2-.8.6-1.1c.3-.2.8-.3 1.4-.3c.5 0 1 0 1.5.2v-.2c0-.5-.1-.9-.3-1.1c-.3-.2-.7-.3-1.2-.3c-.4 0-.9.1-1.4.3l-.2-.4c.6-.2 1.1-.4 1.7-.4c.6 0 1.1.2 1.4.5c.3.4.5.8.5 1.3c-.02.04 0 2.9 0 2.9h-.5v-.8s.05.03 0 0zm-1.7.5c.5 0 .9-.1 1.2-.4c.4-.3.6-.6.6-1v-.5c-.6-.2-1.1-.2-1.6-.2c-.5 0-.9 0-1.1.2c-.3.2-.4.5-.4.8c0 .4.1.6.4.8c.2.2.6.3.9.3zm3.8.3V.6h.5v6.6h-.5zm6.5 0l-2.1-4.6h.5l1.8 4.1l1.7-4.1h.5l-2 4.6h-.4zm7.2-.8c-.5.6-1.2.9-1.9.9c-.6 0-1.1-.2-1.6-.7c-.4-.4-.6-1-.6-1.7c0-.7.2-1.2.6-1.7c.4-.5.9-.7 1.5-.7c.7 0 1.2.2 1.6.7c.3.4.5 1 .5 1.7v.2h-3.8c.1.5.3 1 .6 1.3c.3.3.8.5 1.2.5c.6 0 1.1-.2 1.6-.7c0-.03.3.2.3.2c0 0 .01.04 0 0zm-3.7-1.7h3.4c-.1-.5-.2-.9-.5-1.3c-.3-.3-.7-.5-1.2-.5c-.4 0-.8.2-1.1.5c-.4.4-.5.8-.6 1.3zm7.5 2.5v-.3l3.3-3.9h-3.2v-.4h3.9v.3l-3.3 3.9h3.3v.4h-4zm8.5-.8c-.5.6-1 .9-1.8.9c-.5 0-.9-.1-1.2-.4c-.4-.2-.6-.6-.6-1v-.1c0-.4.2-.8.6-1.1c.4-.2.8-.3 1.4-.3c.6 0 1.1 0 1.6.2v-.2c0-.5-.2-.9-.4-1.1c-.3-.2-.7-.3-1.1-.3c-.5 0-1 .1-1.5.3l-.2-.4c.6-.2 1.1-.4 1.7-.4c.6 0 1.1.2 1.4.5c.3.4.5.8.5 1.3v2.9h-.4v-.8s-.04.03 0 0zm-1.8.5c.5 0 .9-.1 1.3-.4c.3-.3.5-.6.5-1v-.5c-.6-.2-1.1-.2-1.6-.2c-.5 0-.8 0-1.1.2c-.3.2-.4.5-.4.8c0 .4.1.6.4.8c.3.2.6.3.9.3zm3.8.3V2.6h.4s.02 1.31 0 1.3c.2-.4.5-.8.8-1c.4-.3.8-.4 1.3-.4c-.05.04 0 .5 0 .5c0 0-.09.02-.1 0c-.5 0-1 .2-1.4.6c-.4.4-.6 1-.6 1.7c.02.02 0 1.9 0 1.9h-.4zm3.6-5.8v-.6h.5v.6h-.5zm0 5.8V2.6h.5v4.6h-.5zm2.5 0V3h-.7v-.4h.7v-.4c0-.6.1-1 .4-1.2c.2-.3.6-.4 1-.4c.2 0 .4 0 .6.1v.4c-.2-.1-.4-.1-.6-.1c-.7 0-1 .4-1 1.2c.03-.03 0 .4 0 .4h1.6v.4h-1.6v4.2h-.4zm8 .1c-.8 0-1.4-.4-1.9-1.1c.02.01 0 1 0 1h-.4V.6h.4s.02 3.04 0 3c.5-.7 1.1-1.1 1.9-1.1c.6 0 1.1.2 1.6.7c.4.4.6 1 .6 1.7c0 .7-.2 1.3-.6 1.7c-.5.5-1 .7-1.6.7zm0-.4c.5 0 .9-.2 1.3-.5c.3-.4.5-.9.5-1.5c0-.6-.2-1.1-.6-1.4c-.3-.4-.7-.6-1.2-.6c-.5 0-1 .2-1.3.6c-.4.4-.6.8-.6 1.4c0 .6.2 1.1.6 1.4c.3.4.8.6 1.3.6zm3.6-5.5v-.6h.6v.6h-.6zm.1 5.8V2.6h.4v4.6h-.4zm2.2 0V2.6h.4v1.3c.2-.4.5-.8.8-1c.4-.3.8-.4 1.2-.4c.03.04 0 .5 0 .5c0 0-.01.02 0 0c-.6 0-1 .2-1.4.6c-.4.4-.6 1-.6 1.7v1.9h-.4zm9.9.8c-.4.5-.9.7-1.6.7c-.8 0-1.5-.3-2.1-.7l.2-.4c.6.4 1.2.6 1.9.6c.5 0 1-.1 1.3-.4c.3-.3.5-.8.5-1.3v-.7c-.5.7-1.2 1.1-1.9 1.1c-.6 0-1.1-.2-1.6-.6c-.4-.5-.6-1-.6-1.6c0-.7.2-1.2.6-1.6c.5-.4 1-.6 1.6-.6c.8 0 1.4.3 1.9 1c-.02.03 0-.9 0-.9h.4s.02 3.89 0 3.9c0 .6-.2 1.2-.6 1.5zm-1.7-1.6c.5 0 1-.1 1.3-.5c.4-.3.6-.7.6-1.2c0-.5-.2-1-.6-1.3c-.3-.3-.8-.5-1.3-.5c-.5 0-.9.2-1.2.5c-.4.3-.6.7-.6 1.3c0 .5.2.9.6 1.2c.3.4.7.5 1.2.5zm8.4-1.5c0 .7-.2 1.2-.7 1.7c-.4.5-1 .7-1.7.7c-.6 0-1.2-.2-1.6-.7c-.5-.5-.7-1-.7-1.7c0-.6.2-1.2.7-1.7c.4-.5 1-.7 1.7-.7c.6 0 1.2.2 1.6.7c.5.5.7 1 .7 1.7c0-.01 0 0 0 0zm-2.3 2c.5 0 .9-.2 1.3-.6c.3-.4.5-.8.5-1.4c0-.6-.2-1-.5-1.4c-.4-.4-.8-.6-1.4-.6c-.5 0-1 .2-1.3.6c-.4.4-.5.8-.5 1.4c0 .6.1 1 .5 1.4c.4.4.8.6 1.4.6zm.4-5.1v-.7h.6v.7h-.6zm-1.5 0v-.7h.6v.7h-.6zm4.8 5.4V2.6h.4v1.3c.2-.4.5-.8.8-1c.4-.3.8-.4 1.2-.4c.03.04 0 .5 0 .5c0 0-.01.02 0 0c-.6 0-1 .2-1.4.6c-.4.4-.6 1-.6 1.7v1.9h-.4zm7-.9c-.4.7-1 1-1.7 1c-.6 0-1-.2-1.3-.5c-.4-.4-.5-.8-.5-1.4c-.03.02 0-2.8 0-2.8h.4v2.7c0 .5.1.9.4 1.2c.2.3.6.4 1.1.4c.4 0 .8-.2 1.1-.5c.3-.3.5-.7.5-1.1c-.04-.04 0-2.7 0-2.7h.4v4.6h-.4v-.9s-.04.04 0 0zm-1.1-4.5v-.7h.6v.7h-.6zm-1.5 0v-.7h.6v.7h-.6zm4.7 5.4V2.6h.4s.02.86 0 .9c.4-.7.9-1 1.7-1c.5 0 1 .2 1.3.5c.3.4.5.8.5 1.4v2.8h-.4s-.03-2.73 0-2.7c0-.5-.2-.9-.4-1.2c-.3-.3-.6-.4-1.1-.4c-.4 0-.8.2-1.1.5c-.3.3-.5.7-.5 1.1c.02.04 0 2.7 0 2.7h-.4zm8.9-.9c-.4.7-.9 1-1.7 1c-.5 0-1-.2-1.3-.5c-.3-.4-.5-.8-.5-1.4V2.6h.4s.04 2.74 0 2.7c0 .5.2.9.4 1.2c.3.3.6.4 1.1.4c.5 0 .8-.2 1.1-.5c.3-.3.5-.7.5-1.1V2.6h.4v4.6h-.4v-.9s-.01.04 0 0zm-1.1-4.5v-.7h.6v.7h-.6zm-1.5 0v-.7h.6v.7h-.6zm4.7 5.4V2.6h.5s-.05.83 0 .8c.3-.6.8-.9 1.5-.9c.7 0 1.2.3 1.5 1c.4-.7 1-1 1.7-1c.5 0 1 .2 1.3.5c.3.4.4.8.4 1.4c.05.02 0 2.8 0 2.8h-.4V4.5c0-.5-.1-.9-.4-1.2c-.2-.3-.5-.4-1-.4c-.4 0-.7.2-1 .4c-.3.3-.4.7-.4 1.2v2.7h-.4s-.04-2.75 0-2.8c0-.4-.2-.8-.4-1.1c-.2-.3-.6-.4-1-.4c-.4 0-.7.2-1 .5c-.3.3-.4.7-.4 1.2c-.05-.05 0 2.6 0 2.6h-.5zm11.2-5.8v-.6h.6v.6h-.6zm.1 5.8V2.6h.4v4.6h-.4zm3.7 1.3l-.5-.2s.69-1.01.7-1c-.6-.1-1.1-.3-1.5-.8c-.3-.5-.5-1-.5-1.6c0-.6.2-1.2.6-1.7c.5-.5 1-.7 1.7-.7c.7 0 1.3.3 1.8.8l-.3.4c-.5-.5-1-.8-1.5-.8c-.5 0-1 .2-1.3.6c-.4.4-.6.8-.6 1.4c0 .6.2 1 .6 1.4c.4.4.8.6 1.3.6c.6 0 1.1-.3 1.6-.8l.3.3c-.5.6-1.1.9-1.8.9c.01.01-.6 1.2-.6 1.2zm3.6-7.1v-.6h.6v.6h-.6zm.1 5.8V2.6h.4v4.6h-.4zm2.2 0V2.6h.4s-.01.86 0 .9c.4-.7.9-1 1.7-1c.5 0 1 .2 1.3.5c.3.4.5.8.5 1.4v2.8h-.5s.05-2.73 0-2.7c0-.5-.1-.9-.3-1.2c-.3-.3-.7-.4-1.1-.4c-.5 0-.8.2-1.2.5c-.3.3-.4.7-.4 1.1v2.7h-.4zm12-.8c-.5.6-1.2.9-1.9.9c-.6 0-1.1-.2-1.6-.7c-.4-.4-.6-1-.6-1.7c0-.7.2-1.2.6-1.7c.4-.5.9-.7 1.5-.7c.7 0 1.2.2 1.6.7c.3.4.5 1 .5 1.7v.2h-3.8c.1.5.3 1 .6 1.3c.3.3.8.5 1.2.5c.6 0 1.1-.2 1.6-.7c0-.03.3.2.3.2c0 0 0 .04 0 0zm-3.7-1.7h3.4c-.1-.5-.2-.9-.5-1.3c-.3-.3-.7-.5-1.2-.5c-.4 0-.8.2-1.1.5c-.4.4-.5.8-.6 1.3zm5.2 2.5V.6h.4v6.6h-.4zm4.9-5.8v-.6h.5v.6h-.5zm0 5.8V2.6h.5v4.6h-.5zm3.2 1.3l-.5-.2s.67-1.03.7-1c-.6-.1-1.2-.3-1.6-.7l.3-.3c.5.4 1 .6 1.6.6c.3 0 .6-.1.8-.3c.2-.1.3-.3.3-.6c0-.1 0-.3-.1-.4c0-.1-.1-.1-.3-.2c-.1-.1-.2-.1-.3-.2c-.1 0-.3-.1-.5-.1c-.2-.1-.4-.1-.5-.2c0 0-.2-.1-.4-.1c-.1-.1-.3-.2-.3-.3c-.1 0-.2-.1-.3-.3c0-.1-.1-.2-.1-.4c0-.4.2-.7.5-.9c.2-.3.6-.4 1-.4c.6 0 1.2.2 1.7.5l-.3.4c-.4-.3-.9-.5-1.4-.5c-.3 0-.5.1-.7.3c-.2.1-.3.3-.3.5v.1c0 .1 0 .2.1.3c0 .1.1.1.3.2c.1.1.3.1.4.2c.1 0 .2.1.5.1c.2.1.4.2.5.2c.2.1.3.2.5.3c.2.1.3.2.4.3c0 .2.1.3.1.5c0 .4-.2.7-.5 1c-.2.2-.6.4-1 .4c-.03-.01-.6 1.2-.6 1.2zm5 0l-.5-.2l.7-1c-.6-.1-1.1-.3-1.5-.8c-.3-.5-.5-1-.5-1.6c0-.6.2-1.2.6-1.7c.5-.5 1.1-.7 1.7-.7c.7 0 1.3.3 1.8.8l-.3.4c-.5-.5-1-.8-1.5-.8c-.5 0-1 .2-1.3.6c-.4.4-.6.8-.6 1.4c0 .6.2 1 .6 1.4c.4.4.8.6 1.3.6c.6 0 1.1-.3 1.6-.8l.3.3c-.5.6-1.1.9-1.8.9c.01.01-.6 1.2-.6 1.2zm3.6-7.1v-.6h.6v.6h-.6zm.1 5.8V2.6h.4v4.6h-.4zm2.2 0V.6h.5v6.6h-.5zm2.2-5.8v-.6h.6v.6h-.6zm.1 5.8V2.6h.4v4.6h-.4zm5.8.8c-.4.5-.9.7-1.6.7c-.8 0-1.5-.3-2.1-.7l.2-.4c.6.4 1.2.6 1.9.6c.5 0 .9-.1 1.3-.4c.3-.3.5-.8.5-1.3v-.7c-.5.7-1.2 1.1-1.9 1.1c-.6 0-1.1-.2-1.6-.6c-.4-.5-.7-1-.7-1.6c0-.7.3-1.2.7-1.6c.5-.4 1-.6 1.6-.6c.7 0 1.4.3 1.9 1c-.03.03 0-.9 0-.9h.4v3.9c0 .6-.2 1.2-.6 1.5zm-1.7-1.6c.5 0 .9-.1 1.3-.5c.4-.3.6-.7.6-1.2c0-.5-.2-1-.6-1.3c-.4-.3-.8-.5-1.3-.5c-.5 0-.9.2-1.3.5c-.3.3-.5.7-.5 1.3c0 .5.2.9.5 1.2c.4.4.8.5 1.3.5zm1.4-5.5c0 .3-.2.5-.4.7c-.2.2-.5.3-.8.3c-.3 0-.6-.1-.8-.3c-.3-.2-.4-.4-.4-.7h.3c.2.3.5.5.9.5c.4 0 .7-.2.8-.5c.04-.05.4 0 .4 0c0 0-.01-.05 0 0zm2.6.5v-.6h.5v.6h-.5zm0 5.8V2.6h.5v4.6h-.5zm4.2-.5l1.6-4.1h.5l-2 4.8c-.2.4-.4.8-.7 1c-.2.2-.5.3-.8.3c-.3 0-.6-.1-.9-.2l.1-.4c.3.1.5.2.8.2c.3 0 .5-.1.6-.3c.2-.2.4-.4.5-.8c.04-.03-2.2-4.6-2.2-4.6h.6l1.9 4.1zm3.4.5V.6h.4v6.6h-.4zm6-.8c-.5.6-1.2.9-1.9.9c-.6 0-1.2-.2-1.6-.7c-.4-.4-.7-1-.7-1.7c0-.7.2-1.2.7-1.7c.4-.5.9-.7 1.5-.7c.6 0 1.2.2 1.5.7c.4.4.6 1 .6 1.7v.2h-3.8c0 .5.2 1 .6 1.3c.3.3.7.5 1.2.5c.6 0 1.1-.2 1.6-.7c-.02-.03.3.2.3.2c0 0-.01.04 0 0zm-3.7-1.7h3.3c0-.5-.2-.9-.4-1.3c-.3-.3-.7-.5-1.2-.5c-.4 0-.8.2-1.2.5c-.3.4-.5.8-.5 1.3zm11.2 1.6c-.4.7-.9 1-1.6 1c-.6 0-1.1-.2-1.4-.5c-.3-.4-.5-.8-.5-1.4c.02.02 0-2.8 0-2.8h.5s-.04 2.74 0 2.7c0 .5.1.9.3 1.2c.3.3.7.4 1.1.4c.5 0 .9-.2 1.2-.5c.3-.3.4-.7.4-1.1V2.6h.5v4.6h-.5v-.9s.01.04 0 0zm-1.1-4.5v-.7h.6v.7h-.6zm-1.5 0v-.7h.7v.7h-.7zm4.7 5.4V2.6h.5s-.03 1.31 0 1.3c.2-.4.4-.8.8-1c.4-.3.8-.4 1.2-.4v.5s-.04.02 0 0c-.6 0-1.1.2-1.5.6c-.3.4-.5 1-.5 1.7c-.03.02 0 1.9 0 1.9h-.5zm7.2-.8c-.5.6-1.1.9-1.9.9c-.6 0-1.1-.2-1.5-.7c-.5-.4-.7-1-.7-1.7c0-.7.2-1.2.6-1.7c.4-.5.9-.7 1.6-.7c.6 0 1.1.2 1.5.7c.4.4.6 1 .6 1.7v.2H293c0 .5.2 1 .5 1.3c.4.3.8.5 1.3.5c.6 0 1.1-.2 1.5-.7c.03-.03.3.2.3.2c0 0 .04.04 0 0zM293 4.7h3.3c0-.5-.2-.9-.5-1.3c-.3-.3-.7-.5-1.2-.5c-.4 0-.8.2-1.1.5c-.3.4-.5.8-.5 1.3zm7.3 2.4c-.2.1-.5.2-.7.2c-.4 0-.7-.1-.9-.3c-.3-.2-.4-.6-.4-1v-3h-.7v-.4h.7V1.1h.4v1.5h1.7v.4h-1.7s.04 2.98 0 3c0 .6.4.9 1 .9c.2 0 .4-.1.6-.2c.04 0 0 .4 0 .4c0 0 .04.02 0 0zm1.4-5.7v-.6h.5v.6h-.5zm0 5.8V2.6h.5v4.6h-.5zm2.3 0V.6h.4v6.6h-.4zm2.1 0V2.6h.5s-.02.83 0 .8c.4-.6.9-.9 1.5-.9c.7 0 1.2.3 1.6 1c.3-.7.9-1 1.6-1c.6 0 1 .2 1.3.5c.3.4.5.8.5 1.4c-.02.02 0 2.8 0 2.8h-.5s.04-2.73 0-2.7c0-.5-.1-.9-.3-1.2c-.3-.3-.6-.4-1-.4c-.4 0-.8.2-1 .4c-.3.3-.5.7-.5 1.2c.03.03 0 2.7 0 2.7h-.4V4.4c0-.4-.1-.8-.4-1.1c-.2-.3-.5-.4-1-.4c-.4 0-.7.2-1 .5c-.3.3-.4.7-.4 1.2c-.02-.05 0 2.6 0 2.6h-.5zm8.6-5.8v-.6h.5v.6h-.5zm0 5.8V2.6h.5v4.6h-.5zm3.2 1.3l-.5-.2s.67-1.03.7-1c-.6-.1-1.2-.3-1.6-.7l.3-.3c.5.4 1 .6 1.6.6c.3 0 .6-.1.8-.3c.2-.1.3-.3.3-.6c0-.1 0-.3-.1-.4c0-.1-.1-.1-.3-.2c-.1-.1-.2-.1-.3-.2c-.1 0-.3-.1-.5-.1c-.2-.1-.4-.1-.5-.2c0 0-.2-.1-.4-.1c-.1-.1-.3-.2-.3-.3c-.1 0-.2-.1-.3-.3c0-.1-.1-.2-.1-.4c0-.4.2-.7.5-.9c.2-.3.6-.4 1-.4c.6 0 1.2.2 1.7.5l-.3.4c-.4-.3-.9-.5-1.4-.5c-.3 0-.5.1-.7.3c-.2.1-.3.3-.3.5v.1c0 .1 0 .2.1.3c0 .1.1.1.3.2c.1.1.3.1.4.2c.1 0 .2.1.5.1c.2.1.4.2.5.2c.2.1.3.2.5.3c.1.1.3.2.4.3c0 .2.1.3.1.5c0 .4-.2.7-.5 1c-.2.2-.6.4-1 .4c-.03-.01-.6 1.2-.6 1.2zm6.2.1v-6h.4s.02 1.04 0 1c.5-.7 1.1-1.1 1.9-1.1c.6 0 1.1.2 1.6.7c.4.4.6 1 .6 1.7c0 .7-.2 1.3-.6 1.7c-.5.5-1 .7-1.6.7c-.8 0-1.4-.4-1.9-1.1c.02.01 0 2.4 0 2.4h-.4zm2.3-1.7c.5 0 .9-.2 1.3-.5c.3-.4.5-.9.5-1.5c0-.6-.2-1.1-.6-1.4c-.3-.4-.7-.6-1.2-.6c-.5 0-1 .2-1.3.6c-.4.4-.6.8-.6 1.4c0 .6.2 1.1.6 1.4c.3.4.8.6 1.3.6zm7-.6c-.4.7-.9 1-1.6 1c-.6 0-1.1-.2-1.4-.5c-.3-.4-.5-.8-.5-1.4c.03.02 0-2.8 0-2.8h.5s-.03 2.74 0 2.7c0 .5.1.9.4 1.2c.2.3.6.4 1 .4c.5 0 .9-.2 1.2-.5c.3-.3.4-.7.4-1.1c.02-.04 0-2.7 0-2.7h.5v4.6h-.5v-.9s.02.04 0 0zm-1.1-4.5v-.7h.6v.7h-.6zm-1.5 0v-.7h.7v.7h-.7zm4.7 5.4V2.6h.5s-.02 1.31 0 1.3c.2-.4.4-.8.8-1c.4-.3.8-.4 1.2-.4v.5s-.03.02 0 0c-.6 0-1.1.2-1.4.6c-.4.4-.6 1-.6 1.7c-.02.02 0 1.9 0 1.9h-.5zm7-.9c-.3.7-.9 1-1.6 1c-.6 0-1-.2-1.4-.5c-.3-.4-.5-.8-.5-1.4c.05.02 0-2.8 0-2.8h.5v2.7c0 .5.1.9.4 1.2c.2.3.6.4 1 .4c.5 0 .9-.2 1.2-.5c.3-.3.4-.7.4-1.1c.04-.04 0-2.7 0-2.7h.5v4.6h-.5v-.9s.04.04 0 0zm-1.1-4.5v-.7h.7v.7h-.7zm-1.4 0v-.7h.6v.7h-.6zm4.3 5.4v-.3l3.3-3.9h-3.1v-.4h3.8v.3L345 6.8h3.3v.4h-4zm6.8.1c-.7 0-1.3-.2-1.9-.7l.3-.3c.5.4 1.1.6 1.7.6c.3 0 .5-.1.7-.3c.3-.1.4-.3.4-.6c0-.1-.1-.3-.1-.4c-.1-.1-.2-.1-.3-.2c-.2-.1-.3-.1-.4-.2c-.1 0-.3-.1-.5-.1c-.2-.1-.3-.1-.4-.2c-.1 0-.2-.1-.4-.1c-.2-.1-.3-.2-.4-.3c-.1 0-.2-.1-.2-.3c-.1-.1-.1-.2-.1-.4c0-.4.1-.7.4-.9c.3-.3.6-.4 1.1-.4c.6 0 1.1.2 1.6.5l-.2.4c-.5-.3-1-.5-1.4-.5c-.4 0-.6.1-.8.3c-.2.1-.3.3-.3.5v.1c0 .1 0 .2.1.3c.1.1.2.1.3.2c.2.1.3.1.4.2c.1 0 .3.1.5.1c.2.1.4.2.6.2c.1.1.3.2.4.3c.2.1.3.2.4.3c.1.2.1.3.1.5c0 .5-.1.8-.4 1c-.3.3-.7.4-1.2.4zm6.4-1c-.4.7-.9 1-1.6 1c-.6 0-1.1-.2-1.4-.5c-.3-.4-.5-.8-.5-1.4c.02.02 0-2.8 0-2.8h.5s-.04 2.74 0 2.7c0 .5.1.9.3 1.2c.3.3.7.4 1.1.4c.5 0 .9-.2 1.2-.5c.3-.3.4-.7.4-1.1V2.6h.5v4.6h-.5v-.9s.01.04 0 0zm-1.1-4.5v-.7h.6v.7h-.6zm-1.5 0v-.7h.7v.7h-.7zm4.4 5.4v-.3l3.3-3.9h-3.2v-.4h3.9v.3L360 6.8h3.3v.4h-4zm11.2-.8c-.5.6-1 .9-1.8.9c-.5 0-.9-.1-1.2-.4c-.4-.2-.6-.6-.6-1v-.1c0-.4.2-.8.6-1.1c.4-.2.8-.3 1.4-.3c.6 0 1.1 0 1.6.2v-.2c0-.5-.2-.9-.4-1.1c-.3-.2-.7-.3-1.1-.3c-.5 0-1 .1-1.5.3l-.2-.4c.6-.2 1.1-.4 1.7-.4c.6 0 1.1.2 1.4.5c.3.4.5.8.5 1.3v2.9h-.4v-.8s-.04.03 0 0zm-1.8.5c.5 0 .9-.1 1.3-.4c.3-.3.5-.6.5-1v-.5c-.6-.2-1.1-.2-1.6-.2c-.5 0-.8 0-1.1.2c-.3.2-.4.5-.4.8c0 .4.1.6.4.8c.3.2.6.3.9.3zm3.8.3V.6h.4s.02 2.86 0 2.9c.4-.7.9-1 1.7-1c.5 0 1 .2 1.3.5c.3.4.5.8.5 1.4v2.8h-.4s-.03-2.73 0-2.7c0-.5-.2-.9-.4-1.2c-.3-.3-.6-.4-1.1-.4c-.4 0-.8.2-1.1.5c-.3.3-.5.7-.5 1.1c.02.04 0 2.7 0 2.7h-.4zm6.5 1.3l-.5-.2s.66-1.03.7-1c-.6-.1-1.2-.3-1.6-.7l.3-.3c.5.4 1 .6 1.6.6c.3 0 .6-.1.8-.3c.2-.1.3-.3.3-.6c0-.1 0-.3-.1-.4c0-.1-.1-.1-.3-.2c-.1-.1-.2-.1-.3-.2c-.1 0-.3-.1-.5-.1c-.2-.1-.4-.1-.5-.2c-.1 0-.2-.1-.4-.1c-.1-.1-.3-.2-.4-.3c0 0-.1-.1-.2-.3c0-.1-.1-.2-.1-.4c0-.4.2-.7.4-.9c.3-.3.7-.4 1.1-.4c.6 0 1.2.2 1.7.5l-.3.4c-.4-.3-.9-.5-1.4-.5c-.3 0-.5.1-.7.3c-.2.1-.3.3-.3.5v.1c0 .1 0 .2.1.3c0 .1.1.1.3.2c.1.1.3.1.4.2c.1 0 .2.1.5.1c.2.1.4.2.5.2c.2.1.3.2.5.3c.1.1.3.2.3.3c.1.2.2.3.2.5c0 .4-.2.7-.5 1c-.3.2-.6.4-1 .4c-.04-.01-.6 1.2-.6 1.2zm6.6-2.1c-.4.6-1 .9-1.7.9c-.5 0-.9-.1-1.3-.4c-.3-.2-.5-.6-.5-1v-.1c0-.4.2-.8.5-1.1c.4-.2.9-.3 1.5-.3c.5 0 1 0 1.5.2v-.2c0-.5-.1-.9-.4-1.1c-.2-.2-.6-.3-1.1-.3c-.5 0-1 .1-1.4.3l-.2-.4c.6-.2 1.1-.4 1.6-.4c.7 0 1.1.2 1.5.5c.3.4.5.8.5 1.3c-.05.04 0 2.9 0 2.9h-.5v-.8s.02.03 0 0zm-1.7.5c.5 0 .9-.1 1.2-.4c.4-.3.5-.6.5-1v-.5c-.5-.2-1-.2-1.5-.2c-.5 0-.9 0-1.1.2c-.3.2-.4.5-.4.8c0 .4.1.6.4.8c.2.2.5.3.9.3zm3.7 1.7v-6h.5s-.02 1.04 0 1c.5-.7 1.1-1.1 1.9-1.1c.6 0 1.1.2 1.5.7c.5.4.7 1 .7 1.7c0 .7-.2 1.3-.7 1.7c-.4.5-.9.7-1.5.7c-.8 0-1.4-.4-1.9-1.1c-.02.01 0 2.4 0 2.4h-.5zm2.3-1.7c.5 0 1-.2 1.3-.5c.4-.4.5-.9.5-1.5c0-.6-.2-1.1-.5-1.4c-.4-.4-.8-.6-1.3-.6c-.5 0-.9.2-1.3.6c-.4.4-.6.8-.6 1.4c0 .6.2 1.1.6 1.4c.4.4.8.6 1.3.6zm9.5-.5c-.4.6-1 .9-1.7.9c-.5 0-.9-.1-1.3-.4c-.3-.2-.5-.6-.5-1v-.1c0-.4.2-.8.5-1.1c.4-.2.9-.3 1.5-.3c.5 0 1 0 1.5.2v-.2c0-.5-.1-.9-.4-1.1c-.2-.2-.6-.3-1.1-.3c-.5 0-.9.1-1.4.3l-.2-.4c.6-.2 1.1-.4 1.6-.4c.7 0 1.2.2 1.5.5c.3.4.5.8.5 1.3c-.04.04 0 2.9 0 2.9h-.5v-.8s.03.03 0 0zm-1.7.5c.5 0 .9-.1 1.2-.4c.4-.3.5-.6.5-1v-.5c-.5-.2-1-.2-1.5-.2c-.5 0-.9 0-1.1.2c-.3.2-.4.5-.4.8c0 .4.1.6.4.8c.2.2.5.3.9.3zm5.5-.2l1.7-4.1h.4s-1.95 4.76-2 4.8c-.1.4-.4.8-.6 1c-.3.2-.5.3-.9.3c-.3 0-.6-.1-.9-.2l.2-.4c.2.1.5.2.7.2c.3 0 .5-.1.7-.3c.1-.2.3-.4.5-.8l-2.2-4.6h.5l1.9 4.1zm6.3-.3c-.4.6-1 .9-1.8.9c-.4 0-.9-.1-1.2-.4c-.4-.2-.5-.6-.5-1v-.1c0-.4.1-.8.5-1.1c.4-.2.9-.3 1.5-.3c.5 0 1 0 1.5.2v-.2c0-.5-.2-.9-.4-1.1c-.3-.2-.7-.3-1.1-.3c-.5 0-1 .1-1.5.3l-.1-.4c.5-.2 1.1-.4 1.6-.4c.6 0 1.1.2 1.4.5c.4.4.5.8.5 1.3v2.9h-.4v-.8s-.02.03 0 0zm-1.7.5c.4 0 .8-.1 1.2-.4c.3-.3.5-.6.5-1v-.5c-.6-.2-1.1-.2-1.6-.2c-.4 0-.8 0-1.1.2c-.2.2-.4.5-.4.8c0 .4.1.6.4.8c.3.2.6.3 1 .3zm3.7.3V.6h.4v5l2.9-3h.6l-2 2l2 2.6h-.5L413.1 5l-1.2 1.1v1.1h-.4zm5.1 0V.6h.4v6.6h-.4zm5.3-.8c-.4.6-1 .9-1.7.9c-.5 0-.9-.1-1.3-.4c-.3-.2-.5-.6-.5-1v-.1c0-.4.2-.8.5-1.1c.4-.2.9-.3 1.5-.3c.5 0 1 0 1.5.2v-.2c0-.5-.1-.9-.4-1.1c-.2-.2-.6-.3-1.1-.3c-.5 0-.9.1-1.4.3l-.2-.4c.6-.2 1.1-.4 1.6-.4c.7 0 1.2.2 1.5.5c.3.4.5.8.5 1.3c-.04.04 0 2.9 0 2.9h-.5v-.8s.03.03 0 0zm-1.7.5c.5 0 .9-.1 1.2-.4c.4-.3.5-.6.5-1v-.5c-.5-.2-1-.2-1.5-.2c-.5 0-.9 0-1.1.2c-.3.2-.4.5-.4.8c0 .4.1.6.4.8c.2.2.5.3.9.3zm3.7.3V2.6h.5s-.02 1.31 0 1.3c.2-.4.4-.8.8-1c.4-.3.8-.4 1.2-.4c.02.04 0 .5 0 .5c0 0-.03.02 0 0c-.6 0-1.1.2-1.4.6c-.4.4-.6 1-.6 1.7c-.02.02 0 1.9 0 1.9h-.5zm3.7 0V2.6h.4v4.6h-.4zm7.2-.1c-.3.1-.5.2-.8.2c-.4 0-.7-.1-.9-.3c-.3-.2-.4-.6-.4-1c.02.02 0-3 0-3h-.6v-.4h.6V1.1h.5v1.5h1.6v.4h-1.6s-.03 2.98 0 3c0 .6.3.9.9.9c.2 0 .4-.1.7-.2c-.04 0 0 .4 0 .4c0 0-.04.02 0 0zm5-.7c-.6.6-1.2.9-1.9.9c-.6 0-1.2-.2-1.6-.7c-.4-.4-.7-1-.7-1.7c0-.7.2-1.2.7-1.7c.4-.5.9-.7 1.5-.7c.6 0 1.1.2 1.5.7c.4.4.6 1 .6 1.7v.2h-3.8c0 .5.2 1 .6 1.3c.3.3.7.5 1.2.5c.6 0 1.1-.2 1.6-.7l.3.2s-.02.04 0 0zm-3.7-1.7h3.3c0-.5-.2-.9-.4-1.3c-.3-.3-.7-.5-1.2-.5c-.5 0-.8.2-1.2.5c-.3.4-.5.8-.5 1.3zm5.1 2.5V2.6h.4s.04 1.31 0 1.3c.2-.4.5-.8.9-1c.3-.3.7-.4 1.2-.4c-.02.04 0 .5 0 .5c0 0-.07.02-.1 0c-.5 0-1 .2-1.4.6c-.4.4-.6 1-.6 1.7c.04.02 0 1.9 0 1.9h-.4zm7.3-.8c-.6.6-1.2.9-1.9.9c-.7 0-1.2-.2-1.7-.7c-.4-.5-.6-1-.6-1.7c0-.6.2-1.2.6-1.7c.5-.5 1-.7 1.7-.7c.7 0 1.3.3 1.8.8l-.3.4c-.5-.5-1-.8-1.5-.8c-.5 0-1 .2-1.3.6c-.4.4-.6.8-.6 1.4c0 .6.2 1 .6 1.4c.4.4.8.6 1.3.6c.6 0 1.1-.3 1.6-.8c-.03.03.3.3.3.3c0 0-.03 0 0 0zm1.2-5v-.6h.6v.6h-.6zm.1 5.8V2.6h.4v4.6h-.4zm2.2 0V.6h.4v2.9c.4-.7.9-1 1.7-1c.5 0 1 .2 1.3.5c.3.4.5.8.5 1.4v2.8h-.5s.05-2.73 0-2.7c0-.5-.1-.9-.3-1.2c-.3-.3-.6-.4-1.1-.4c-.5 0-.8.2-1.1.5c-.3.3-.5.7-.5 1.1v2.7h-.4zm12-.8c-.5.6-1.2.9-1.9.9c-.6 0-1.1-.2-1.6-.7c-.4-.4-.6-1-.6-1.7c0-.7.2-1.2.6-1.7c.4-.5.9-.7 1.5-.7c.7 0 1.2.2 1.6.7c.4.4.5 1 .5 1.7v.2h-3.8c.1.5.3 1 .6 1.3c.4.3.8.5 1.2.5c.6 0 1.1-.2 1.6-.7c0-.03.3.2.3.2c0 0 .01.04 0 0zm-3.7-1.7h3.4c-.1-.5-.2-.9-.5-1.3c-.3-.3-.7-.5-1.2-.5c-.4 0-.8.2-1.1.5c-.4.4-.5.8-.6 1.3zm9 1.5c-.6.7-1.2 1.1-1.9 1.1c-.6 0-1.1-.2-1.6-.6c-.4-.5-.7-1.1-.7-1.8c0-.7.3-1.3.7-1.7c.5-.5 1-.7 1.6-.7c.7 0 1.4.4 1.9 1.1c-.04 0 0-3 0-3h.4v6.6h-.4v-1s-.04-.03 0 0zm-3.7-1.3c0 .6.2 1.1.5 1.4c.4.4.8.6 1.3.6c.5 0 .9-.2 1.3-.6c.4-.3.6-.8.6-1.4c0-.6-.2-1-.6-1.4c-.4-.4-.8-.6-1.3-.6c-.5 0-.9.2-1.3.6c-.3.3-.5.8-.5 1.4c.01-.01 0 0 0 0c0 0 .01 0 0 0zm5.8-3.5v-.6h.5v.6h-.5zm0 5.8V2.6h.5v4.6h-.5zm2.2 0V2.6h.5s-.05.86 0 .9c.3-.7.9-1 1.6-1c.6 0 1 .2 1.4.5c.3.4.4.8.4 1.4c.04-.01 0 2.8 0 2.8h-.4V4.5c0-.5-.1-.9-.4-1.2c-.2-.3-.6-.4-1.1-.4c-.4 0-.8.2-1.1.5c-.3.3-.4.7-.4 1.1c-.05.04 0 2.7 0 2.7h-.5z" stroke="none" fill="#000"/></g></svg>