<?xml version="1.0" standalone="no"?><!DOCTYPE svg PUBLIC "-//W3C//DTD SVG 1.1//EN" "http://www.w3.org/Graphics/SVG/1.1/DTD/svg11.dtd"><svg xmlns="http://www.w3.org/2000/svg" version="1.1" width="234.3px" height="117.8px" viewBox="0 -3 234.3 117.8" style="top:-3px"><desc>LE FEU EN OK SATAN Sky, benzersiz tavan ask sistemi ile karakterize edilir; bu zellik mineyi hafif ve zarif g st...</desc><defs/><g id="Polygon365978"><path d="m2.7 97.3c-.8 0-1.6-.3-2.2-.9l.2-.3c.4.3.7.5 1 .6c.3.1.6.2 1.1.2c.4 0 .7-.1 1-.3c.2-.2.4-.5.4-.8c0-.3-.1-.6-.4-.8c-.2-.1-.6-.3-1.2-.4c-.7-.2-1.2-.3-1.5-.6c-.3-.2-.4-.6-.4-1c0-.4.2-.8.5-1.1c.3-.2.8-.4 1.3-.4c.4 0 .7.1 1 .2c.3.1.6.3.9.5l-.2.3c-.5-.4-1.1-.6-1.7-.6c-.4 0-.8.1-1 .3c-.3.2-.4.5-.4.8c0 .3.1.5.4.7c.2.2.6.4 1.2.5c.7.1 1.2.3 1.5.6c.2.2.4.5.4.9v.1c0 .4-.2.8-.5 1.1c-.4.2-.8.4-1.4.4zm3.2-.1v-5.8h.4v4.3l2.5-2.6h.5l-1.8 1.8l1.9 2.3h-.5l-1.7-2l-.9 1v1h-.4zm6.1-.4l1.5-3.7h.4s-1.78 4.24-1.8 4.2c-.2.5-.4.8-.6.9c-.2.2-.4.3-.7.3c-.3 0-.6-.1-.8-.2l.1-.3c.2.1.4.1.7.1c.2 0 .4 0 .5-.2c.2-.1.3-.4.5-.7l-2-4.1h.5l1.7 3.7zm6.7.5c-.6 0-1.2-.2-1.7-.6l.2-.3c.5.3 1 .5 1.5.5c.3 0 .5-.1.7-.2c.2-.1.3-.3.3-.6c0-.1 0-.2-.1-.3c0-.1-.1-.1-.2-.2c-.2-.1-.3-.1-.4-.2c-.1 0-.2 0-.4-.1c-.2 0-.3-.1-.4-.1c-.1 0-.2-.1-.4-.2c-.1 0-.2-.1-.3-.2c-.1 0-.1-.1-.2-.2c-.1-.1-.1-.3-.1-.4c0-.4.1-.6.4-.8c.2-.3.6-.4 1-.4c.5 0 1 .2 1.4.5l-.2.3c-.4-.3-.8-.4-1.3-.4c-.2 0-.5.1-.6.2c-.2.1-.3.3-.3.5c0 .1 0 .2.1.3c.1.1.1.2.3.2c.1.1.2.2.3.2c.1 0 .3.1.5.1c.2.1.3.1.5.2c.1 0 .2.1.4.2l.3.3c.1.2.1.3.1.5c0 .3-.1.6-.4.9c-.3.2-.6.3-1 .3zm2.7-5.2v-.6h.4v.6h-.4zm0 5.1v-4.1h.4v4.1h-.4zm1.7 0v-.2l2.9-3.5h-2.8v-.4h3.4v.2l-3 3.5h3v.4h-3.5zm4.7-5.1v-.6h.5v.6h-.5zm0 5.1v-4.1h.4v4.1h-.4zm2 0v-4.1h.4s-.05.78 0 .8c.3-.6.8-.9 1.4-.9c.5 0 .9.2 1.2.5c.3.3.5.7.5 1.2c-.04 0 0 2.5 0 2.5h-.4s-.04-2.42 0-2.4c0-.5-.1-.8-.4-1c-.2-.3-.5-.4-.9-.4c-.4 0-.8.1-1 .4c-.3.3-.4.6-.4 1c-.05.04 0 2.4 0 2.4h-.4zm7.3-5.1v-.6h.5v.6h-.5zm0 5.1v-4.1h.4v4.1h-.4zm3.3 1.2l-.4-.2s.58-.92.6-.9c-.5-.1-1-.3-1.3-.7c-.4-.4-.5-.9-.5-1.4c0-.6.2-1.1.6-1.5c.4-.5.9-.7 1.5-.7c.6 0 1.1.3 1.6.8l-.3.3c-.4-.5-.9-.7-1.4-.7c-.4 0-.8.2-1.1.5c-.3.3-.5.8-.5 1.2v.1c0 .5.2.9.5 1.2c.3.4.7.5 1.2.5c.5 0 .9-.2 1.3-.7l.3.3c-.4.5-1 .8-1.5.8c-.05 0-.6 1.1-.6 1.1zm3.2-6.3v-.6h.5v.6h-.5zm.1 5.1v-4.1h.4v4.1h-.4zm1.9 0v-4.1h.4v.8c.3-.6.8-.9 1.5-.9c.5 0 .9.2 1.2.5c.3.3.4.7.4 1.2c.01 0 0 2.5 0 2.5h-.4s.02-2.42 0-2.4c0-.5-.1-.8-.3-1c-.2-.3-.6-.4-1-.4c-.4 0-.7.1-1 .4c-.3.3-.4.6-.4 1v2.4h-.4zm7.3 0v-5.8h.4v4.3l2.5-2.6h.6l-1.8 1.8l1.8 2.3h-.5l-1.6-2l-1 1v1h-.4zm7.7-.7c-.5.5-1 .8-1.7.8c-.5 0-1-.2-1.4-.6c-.4-.4-.6-.9-.6-1.5c0-.6.2-1.1.6-1.6c.3-.4.8-.6 1.4-.6c.5 0 1 .2 1.3.6c.4.4.5.9.5 1.6v.1h-3.4c.1.5.2.9.5 1.2c.4.3.7.4 1.1.4c.6 0 1-.2 1.4-.6c.04-.01.3.2.3.2c0 0 .01.03 0 0zM57.3 95h3c0-.5-.2-.9-.4-1.2c-.3-.3-.6-.4-1.1-.4c-.4 0-.7.1-1 .4c-.3.3-.4.7-.5 1.2zm5.9 2.3c-.6 0-1.2-.2-1.7-.6l.3-.3c.4.3.9.5 1.4.5c.3 0 .5-.1.7-.2c.2-.1.3-.3.3-.6c0-.1 0-.2-.1-.3c0-.1-.1-.1-.2-.2c-.2-.1-.3-.1-.4-.2c-.1 0-.2 0-.4-.1c-.2 0-.3-.1-.4-.1c-.1 0-.2-.1-.4-.2c-.1 0-.2-.1-.3-.2c-.1 0-.1-.1-.2-.2c-.1-.1-.1-.3-.1-.4c0-.4.1-.6.4-.8c.2-.3.6-.4 1-.4c.5 0 1 .2 1.4.5l-.2.3c-.4-.3-.8-.4-1.3-.4c-.2 0-.5.1-.6.2c-.2.1-.3.3-.3.5c0 .1 0 .2.1.3c.1.1.2.2.3.2c.1.1.2.2.3.2c.1 0 .3.1.5.1c.2.1.3.1.5.2c.1 0 .2.1.4.2l.3.3c.1.2.1.3.1.5c0 .3-.1.6-.4.9c-.3.2-.6.3-1 .3zm2.7-5.2v-.6h.4v.6h-.4zm0 5.1v-4.1h.4v4.1h-.4zm1.9 0v-4.1h.4s.03.78 0 .8c.4-.6.9-.9 1.5-.9c.5 0 .9.2 1.2.5c.3.3.4.7.4 1.2c.04 0 0 2.5 0 2.5h-.4s.04-2.42 0-2.4c0-.5-.1-.8-.3-1c-.2-.3-.5-.4-1-.4c-.4 0-.7.1-1 .4c-.2.3-.4.6-.4 1c.03.04 0 2.4 0 2.4h-.4zm5 0v-5.8h.4v5.8h-.4zm1.9-5.1v-.6h.5v.6h-.5zm.1 5.1v-4.1h.4v4.1h-.4zm1.9 0v-5.8h.4v4.3l2.5-2.6h.6l-1.8 1.8l1.8 2.3h-.5l-1.6-2l-1 1v1h-.4zm4.6 0v-5.8h.4v5.8h-.4zm5.3-.7c-.5.5-1 .8-1.7.8c-.5 0-1-.2-1.4-.6c-.4-.4-.6-.9-.6-1.5c0-.6.2-1.1.6-1.6c.3-.4.8-.6 1.4-.6c.5 0 1 .2 1.3.6c.4.4.5.9.5 1.6v.1h-3.4c.1.5.2.9.5 1.2c.4.3.7.4 1.1.4c.6 0 1-.2 1.4-.6c.03-.01.3.2.3.2c0 0 .01.03 0 0zM83.3 95h3c0-.5-.2-.9-.4-1.2c-.3-.3-.6-.4-1.1-.4c-.4 0-.7.1-1 .4c-.3.3-.4.7-.5 1.2zm10.4 1.3c-.5.7-1 1-1.7 1c-.5 0-1-.2-1.4-.6c-.4-.4-.6-.9-.6-1.5c0-.7.2-1.2.6-1.6c.4-.4.9-.6 1.4-.6c.7 0 1.2.3 1.7 1c-.03 0 0-2.6 0-2.6h.4v5.8h-.4v-.9s-.03-.01 0 0zm-3.3-1.1c0 .5.2.9.5 1.2c.3.4.7.5 1.1.5c.5 0 .9-.1 1.2-.5c.3-.3.5-.7.5-1.2c0-.6-.2-1-.5-1.3c-.3-.3-.7-.5-1.2-.5c-.4 0-.8.2-1.1.5c-.3.3-.5.7-.5 1.2c.03.04 0 .1 0 .1c0 0 .03-.04 0 0zm9.1 0c0 .5-.2 1-.6 1.5c-.4.4-.9.6-1.5.6c-.6 0-1.1-.2-1.5-.6c-.4-.4-.6-.9-.6-1.5c0-.6.2-1.1.6-1.5c.4-.5.9-.7 1.5-.7c.6 0 1.1.2 1.5.6c.4.5.6 1 .6 1.5c-.04.04 0 .1 0 .1c0 0-.04-.04 0 0zm-2.1 1.7c.5 0 .9-.1 1.2-.5c.3-.3.4-.7.4-1.2c0-.5-.1-1-.4-1.3c-.4-.3-.8-.5-1.2-.5c-.5 0-.9.2-1.2.5c-.3.3-.5.8-.5 1.2v.1c0 .5.2.9.5 1.2c.3.4.7.5 1.2.5zm6.5 1.1c-.3.3-.8.5-1.4.5c-.7 0-1.3-.2-1.9-.6l.2-.3c.5.3 1.1.5 1.7.5c.5 0 .8-.1 1.1-.4c.3-.3.5-.6.5-1.2v-.5c-.5.6-1 .9-1.7.9c-.6 0-1-.2-1.4-.5c-.4-.4-.6-.9-.6-1.4c0-.6.2-1.1.6-1.4c.4-.4.8-.6 1.4-.6c.7 0 1.2.3 1.7.9c-.03.04 0-.8 0-.8h.4s-.04 3.47 0 3.5c0 .5-.2 1-.6 1.4zm-1.5-1.5c.5 0 .8-.1 1.2-.4c.3-.3.5-.7.5-1.1c0-.5-.2-.9-.5-1.2c-.4-.3-.7-.4-1.2-.4c-.4 0-.8.1-1.1.4c-.3.3-.5.7-.5 1.1v.1c0 .4.2.8.5 1.1c.3.3.7.4 1.1.4zm1.2-4.9c0 .2-.1.5-.3.6c-.2.2-.4.3-.7.3c-.3 0-.6-.1-.8-.3c-.2-.1-.3-.4-.3-.6h.3c.1.3.4.5.8.5c.4 0 .6-.2.7-.5c.03-.04.3 0 .3 0c0 0 .05-.04 0 0zm2.4 5.6v-4.1h.3s.04 1.18 0 1.2c.2-.4.5-.7.8-.9c.3-.2.7-.4 1.1-.3c-.05-.04 0 .4 0 .4h-.1c-.5 0-.9.2-1.2.5c-.4.4-.6.9-.6 1.5c.04.03 0 1.7 0 1.7h-.3zm6.2-.8c-.4.6-.8.9-1.5.9c-.5 0-.9-.2-1.2-.5c-.3-.3-.4-.7-.4-1.2c-.03.02 0-2.5 0-2.5h.4s-.04 2.44 0 2.4c0 .5.1.8.3 1.1c.2.2.5.3 1 .3c.4 0 .7-.1 1-.4c.2-.2.4-.6.4-1c-.03-.02 0-2.4 0-2.4h.4v4.1h-.4v-.8s-.03.04 0 0zm5.1 2l-.4-.2s.59-.94.6-.9c-.6-.1-1-.3-1.4-.6l.2-.3c.5.3 1 .5 1.5.5c.3 0 .5-.1.7-.2c.2-.1.3-.3.3-.6c0-.1 0-.2-.1-.3c-.1-.1-.1-.1-.3-.2c-.1-.1-.2-.1-.3-.2c-.1 0-.2 0-.4-.1c-.2 0-.3-.1-.4-.1c-.1 0-.2-.1-.4-.2c-.1 0-.2-.1-.3-.2c-.1 0-.1-.1-.2-.2c-.1-.1-.1-.3-.1-.4c0-.4.1-.6.4-.8c.2-.3.6-.4.9-.4c.6 0 1.1.2 1.5.5l-.2.3c-.4-.3-.8-.4-1.3-.4c-.2 0-.5.1-.6.2c-.2.1-.3.3-.3.5c0 .1 0 .2.1.3c0 .1.1.2.3.2c.1.1.2.2.3.2c.1 0 .2.1.4.1c.2.1.4.1.5.2c.2 0 .3.1.4.2c.2.1.3.2.4.3c0 .2.1.3.1.5c0 .3-.1.6-.4.8c-.3.3-.6.4-1 .4c.05-.02-.5 1.1-.5 1.1zm7-3.2c0 .5-.2 1-.6 1.5c-.4.4-.9.6-1.5.6c-.6 0-1.1-.2-1.5-.6c-.4-.4-.5-.9-.5-1.5c0-.6.2-1.1.6-1.5c.4-.5.9-.7 1.5-.7c.6 0 1 .2 1.4.6c.4.5.6 1 .6 1.5c.04.04 0 .1 0 .1c0 0 .04-.04 0 0zm-2 1.7c.4 0 .8-.1 1.1-.5c.4-.3.5-.7.5-1.2c0-.5-.1-1-.5-1.3c-.3-.3-.7-.5-1.2-.5c-.4 0-.8.2-1.2.5c-.3.3-.4.8-.4 1.2v.1c0 .5.1.9.5 1.2c.3.4.7.5 1.2.5zm.3-4.5v-.6h.6v.6h-.6zm-1.3 0v-.6h.6v.6h-.6zm4.3 4.8v-4.1h.3s.04.75 0 .7c.4-.5.8-.8 1.4-.8c.6 0 1.1.3 1.4.9c.3-.6.8-.9 1.5-.9c.4 0 .8.2 1.1.5c.3.3.4.7.4 1.2c.02.03 0 2.5 0 2.5h-.4s.03-2.42 0-2.4c0-.5-.1-.8-.3-1.1c-.2-.2-.5-.3-.9-.3c-.3 0-.6.1-.9.4c-.2.2-.4.6-.4 1c.03.02 0 2.4 0 2.4h-.4s.04-2.45 0-2.4c0-.5-.1-.8-.3-1.1c-.2-.2-.5-.3-.9-.3c-.3 0-.6.1-.9.4c-.2.3-.4.6-.4 1c.04.05 0 2.4 0 2.4h-.3zm7.5-5.1v-.6h.5v.6h-.5zm.1 5.1v-4.1h.4v4.1h-.4zm1.9 0v-4.1h.4v.8c.3-.6.8-.9 1.5-.9c.5 0 .9.2 1.2.5c.3.3.4.7.4 1.2c.01 0 0 2.5 0 2.5h-.4s.02-2.42 0-2.4c0-.5-.1-.8-.3-1c-.2-.3-.6-.4-1-.4c-.4 0-.7.1-1 .4c-.3.3-.4.6-.4 1v2.4h-.4zm8.3-.7c-.4.5-1 .8-1.7.8c-.5 0-1-.2-1.4-.6c-.4-.4-.6-.9-.6-1.5c0-.6.2-1.1.6-1.6c.4-.4.8-.6 1.4-.6c.5 0 1 .2 1.3.6c.4.4.6.9.6 1.6l-.1.1h-3.3c0 .5.2.9.5 1.2c.3.3.6.4 1.1.4c.5 0 1-.2 1.4-.6c-.04-.01.2.2.2.2c0 0 .03.03 0 0zm-3.2-1.5h2.9c0-.5-.2-.9-.4-1.2c-.2-.3-.6-.4-1-.4c-.4 0-.8.1-1.1.4c-.3.3-.4.7-.4 1.2zm4.3 2.2v-.7h.6v.7h-.6z" stroke="none" fill="#000"/></g><g id="Polygon365977"><path d="m.7 85.2v-5.8h.4v4.3l2.6-2.6h.5l-1.8 1.8l1.8 2.3h-.5l-1.6-2l-1 1v1h-.4zm7.2-.7c-.3.5-.9.8-1.5.8c-.4 0-.8-.1-1.1-.3c-.3-.3-.5-.6-.5-1c0-.4.2-.7.5-1c.3-.2.8-.3 1.3-.3c.5 0 .9 0 1.3.1v-.1c0-.4-.1-.7-.3-1c-.2-.2-.6-.3-1-.3c-.4 0-.9.1-1.3.4l-.1-.4c.5-.2.9-.3 1.4-.3c.6 0 1 .1 1.3.4c.3.3.4.7.4 1.2c.03-.04 0 2.5 0 2.5h-.4v-.7s.04.02 0 0zm-1.5.4c.4 0 .8-.1 1.1-.3c.3-.3.5-.6.5-.9v-.5c-.5-.1-1-.2-1.4-.2c-.5 0-.8.1-1 .3c-.3.2-.4.4-.4.7c0 .3.1.5.4.7c.2.1.5.2.8.2zm3.3 1.6v-5.4h.4s.03.93 0 .9c.5-.6 1-1 1.7-1c.5 0 1 .2 1.4.6c.4.4.6.9.6 1.5v.1c0 .6-.2 1.1-.6 1.5c-.4.4-.9.6-1.4.6c-.7 0-1.2-.3-1.7-1c.03.02 0 2.2 0 2.2h-.4zm2.1-1.6c.4 0 .8-.1 1.1-.5c.3-.3.5-.7.5-1.2c0-.6-.2-1-.5-1.3c-.3-.3-.7-.5-1.1-.5c-.5 0-.9.2-1.2.5c-.3.3-.5.7-.5 1.3c0 .5.2.9.5 1.2c.3.4.7.5 1.2.5zm3.3.3v-5.8h.4v5.8h-.4zm4.7-.7c-.4.5-.9.8-1.6.8c-.4 0-.7-.1-1.1-.3c-.3-.3-.4-.6-.4-1c0-.4.1-.7.5-1c.3-.2.7-.3 1.3-.3c.4 0 .9 0 1.3.1v-.1c0-.4-.1-.7-.3-1c-.3-.2-.6-.3-1-.3c-.5 0-.9.1-1.3.4l-.2-.4c.5-.2 1-.3 1.5-.3c.5 0 1 .1 1.3.4c.3.3.4.7.4 1.2c-.01-.04 0 2.5 0 2.5h-.4v-.7s.01.02 0 0zm-1.5.4c.4 0 .8-.1 1.1-.3c.3-.3.4-.6.4-.9v-.5c-.5-.1-.9-.2-1.4-.2c-.4 0-.7.1-1 .3c-.2.2-.3.4-.3.7c0 .3.1.5.3.7c.3.1.5.2.9.2zm3.3.3v-4.1h.4v.7c.3-.5.8-.8 1.4-.8c.6 0 1 .3 1.3.9c.4-.6.9-.9 1.5-.9c.5 0 .9.2 1.1.5c.3.3.5.7.5 1.2c-.03.03 0 2.5 0 2.5h-.4s-.02-2.42 0-2.4c0-.5-.1-.8-.3-1.1c-.3-.2-.6-.3-.9-.3c-.4 0-.7.1-.9.4c-.3.2-.4.6-.4 1c-.02.02 0 2.4 0 2.4h-.4v-2.4c0-.5-.1-.8-.3-1.1c-.2-.2-.5-.3-.9-.3c-.4 0-.7.1-.9.4c-.3.3-.4.6-.4 1v2.4h-.4zm10.4-.7c-.4.5-.9.8-1.6.8c-.4 0-.8-.1-1.1-.3c-.3-.3-.5-.6-.5-1c0-.4.2-.7.5-1c.4-.2.8-.3 1.3-.3c.5 0 .9 0 1.4.1v-.1c0-.4-.1-.7-.4-1c-.2-.2-.5-.3-1-.3c-.4 0-.8.1-1.2.4l-.2-.4c.5-.2 1-.3 1.5-.3c.5 0 .9.1 1.2.4c.3.3.5.7.5 1.2c-.04-.04 0 2.5 0 2.5h-.4v-.7s-.02.02 0 0zm-1.6.4c.5 0 .8-.1 1.1-.3c.3-.3.5-.6.5-.9v-.5c-.5-.1-1-.2-1.4-.2c-.4 0-.8.1-1 .3c-.2.2-.3.4-.3.7c0 .3.1.5.3.7c.2.1.5.2.8.2zm4.9-.1l1.5-3.7h.4s-1.74 4.24-1.7 4.2c-.2.5-.4.8-.6.9c-.2.2-.5.3-.8.3c-.3 0-.5-.1-.8-.2l.1-.3c.2.1.5.1.7.1c.2 0 .4 0 .6-.2c.1-.1.3-.4.4-.7c.04-.02-1.9-4.1-1.9-4.1h.4l1.7 3.7zm5.6-.3c-.4.5-.9.8-1.5.8c-.5 0-.8-.1-1.1-.3c-.4-.3-.5-.6-.5-1c0-.4.1-.7.5-1c.3-.2.7-.3 1.3-.3c.4 0 .9 0 1.3.1v-.1c0-.4-.1-.7-.3-1c-.3-.2-.6-.3-1-.3c-.5 0-.9.1-1.3.4l-.2-.4c.5-.2 1-.3 1.5-.3c.6 0 1 .1 1.3.4c.3.3.4.7.4 1.2v2.5h-.4v-.7s.01.02 0 0zm-1.5.4c.4 0 .8-.1 1.1-.3c.3-.3.4-.6.4-.9v-.5c-.5-.1-.9-.2-1.4-.2c-.4 0-.7.1-1 .3c-.2.2-.3.4-.3.7c0 .3.1.5.3.7c.3.1.6.2.9.2zm3.3.3v-4.1h.4v.8c.3-.6.8-.9 1.5-.9c.5 0 .9.2 1.2.5c.3.3.4.7.4 1.2v2.5h-.4v-2.4c0-.5-.1-.8-.3-1c-.3-.3-.6-.4-1-.4c-.4 0-.7.1-1 .4c-.3.3-.4.6-.4 1v2.4h-.4zm4.7.9l-.1-.2c.2-.1.3-.2.4-.3v-.4h-.2v-.7h.5s.05.61 0 .6c0 .3 0 .5-.1.6c-.1.1-.3.3-.5.4zm5.8-.8c-.7 0-1.2-.2-1.7-.6l.2-.3c.5.3 1 .5 1.5.5c.3 0 .5-.1.7-.2c.2-.1.3-.3.3-.6c0-.1-.1-.2-.1-.3c-.1-.1-.1-.1-.3-.2c-.1-.1-.2-.1-.3-.2c-.1 0-.2 0-.4-.1c-.2 0-.3-.1-.4-.1c-.1 0-.2-.1-.4-.2c-.1 0-.2-.1-.3-.2c-.1 0-.2-.1-.2-.2c-.1-.1-.1-.3-.1-.4c0-.4.1-.6.4-.8c.2-.3.5-.4.9-.4c.6 0 1.1.2 1.5.5l-.2.3c-.4-.3-.8-.4-1.3-.4c-.3 0-.5.1-.6.2c-.2.1-.3.3-.3.5c0 .1 0 .2.1.3c0 .1.1.2.3.2c.1.1.2.2.3.2c.1 0 .2.1.4.1c.2.1.4.1.5.2c.2 0 .3.1.4.2c.2.1.3.2.4.3c0 .2.1.3.1.5c0 .3-.2.6-.4.9c-.3.2-.6.3-1 .3zm5.4-.8c-.4.5-.9.8-1.5.8c-.5 0-.8-.1-1.1-.3c-.4-.3-.5-.6-.5-1c0-.4.1-.7.5-1c.3-.2.7-.3 1.3-.3c.4 0 .9 0 1.3.1v-.1c0-.4-.1-.7-.3-1c-.3-.2-.6-.3-1-.3c-.4 0-.9.1-1.3.4l-.1-.4c.4-.2.9-.3 1.4-.3c.6 0 1 .1 1.3.4c.3.3.4.7.4 1.2c.01-.04 0 2.5 0 2.5h-.4v-.7s.02.02 0 0zm-1.5.4c.4 0 .8-.1 1.1-.3c.3-.3.4-.6.4-.9v-.5c-.4-.1-.9-.2-1.4-.2c-.4 0-.7.1-.9.3c-.3.2-.4.4-.4.7c0 .3.1.5.4.7c.2.1.5.2.8.2zm6.7-.6c-.4.7-1 1-1.7 1c-.5 0-.9-.2-1.3-.6c-.4-.4-.6-.9-.6-1.5c0-.7.2-1.2.6-1.6c.4-.4.8-.6 1.3-.6c.7 0 1.3.3 1.7 1c.02 0 0-2.6 0-2.6h.4v5.8h-.4v-.9s.02-.01 0 0zm-3.2-1.1c0 .5.1.9.4 1.2c.4.4.7.5 1.2.5c.4 0 .8-.1 1.1-.5c.4-.3.5-.7.5-1.2c0-.6-.1-1-.5-1.3c-.3-.3-.7-.5-1.1-.5c-.5 0-.9.2-1.2.5c-.3.3-.4.7-.4 1.2c-.02.04 0 .1 0 .1c0 0-.02-.04 0 0zm8.5 1.3c-.5.5-1 .8-1.7.8c-.5 0-1-.2-1.4-.6c-.4-.4-.6-.9-.6-1.5c0-.6.2-1.1.6-1.6c.3-.4.8-.6 1.4-.6c.5 0 1 .2 1.3.6c.4.4.5.9.5 1.6v.1h-3.4c.1.5.2.9.5 1.2c.4.3.7.4 1.1.4c.6 0 1-.2 1.4-.6c.03-.01.3.2.3.2c0 0 0 .03 0 0zM65.8 83h3c0-.5-.2-.9-.4-1.2c-.3-.3-.6-.4-1.1-.4c-.4 0-.7.1-1 .4c-.3.3-.4.7-.5 1.2zm9.8 1.5c-.4.5-.9.8-1.6.8c-.4 0-.8-.1-1.1-.3c-.3-.3-.5-.6-.5-1c0-.4.2-.7.5-1c.3-.2.8-.3 1.3-.3c.5 0 .9 0 1.4.1v-.1c0-.4-.2-.7-.4-1c-.2-.2-.6-.3-1-.3c-.4 0-.8.1-1.3.4l-.1-.4c.5-.2 1-.3 1.4-.3c.6 0 1 .1 1.3.4c.3.3.5.7.5 1.2c-.05-.04 0 2.5 0 2.5h-.4v-.7s-.03.02 0 0zm-1.6.4c.5 0 .8-.1 1.1-.3c.3-.3.5-.6.5-.9v-.5c-.5-.1-1-.2-1.4-.2c-.4 0-.8.1-1 .3c-.2.2-.4.4-.4.7c0 .3.2.5.4.7c.2.1.5.2.8.2zm3.4.3v-4.1h.4s-.05.75 0 .7c.3-.5.7-.8 1.3-.8c.6 0 1.1.3 1.4.9c.3-.6.8-.9 1.5-.9c.4 0 .8.2 1.1.5c.3.3.4.7.4 1.2c.03.03 0 2.5 0 2.5h-.4s.03-2.42 0-2.4c0-.5-.1-.8-.3-1.1c-.2-.2-.5-.3-.9-.3c-.3 0-.6.1-.9.4c-.2.2-.4.6-.4 1c.04.02 0 2.4 0 2.4h-.4s.05-2.45 0-2.4c0-.5-.1-.8-.3-1.1c-.2-.2-.5-.3-.8-.3c-.4 0-.7.1-1 .4c-.2.3-.3.6-.3 1c-.05.05 0 2.4 0 2.4h-.4zm10.3-.7c-.3.5-.9.8-1.5.8c-.4 0-.8-.1-1.1-.3c-.3-.3-.5-.6-.5-1c0-.4.2-.7.5-1c.3-.2.7-.3 1.3-.3c.4 0 .9 0 1.3.1v-.1c0-.4-.1-.7-.3-1c-.3-.2-.6-.3-1-.3c-.4 0-.9.1-1.3.4l-.1-.4c.5-.2.9-.3 1.4-.3c.6 0 1 .1 1.3.4c.3.3.4.7.4 1.2c.02-.04 0 2.5 0 2.5h-.4v-.7s.03.02 0 0zm-1.5.4c.4 0 .8-.1 1.1-.3c.3-.3.4-.6.4-.9v-.5c-.4-.1-.9-.2-1.3-.2c-.5 0-.8.1-1 .3c-.3.2-.4.4-.4.7c0 .3.1.5.4.7c.2.1.5.2.8.2zm9.1-.6c-.4.7-1 1-1.7 1c-.5 0-.9-.2-1.3-.6c-.4-.4-.6-.9-.6-1.5c0-.7.2-1.2.6-1.6c.4-.4.8-.6 1.3-.6c.7 0 1.3.3 1.7 1c.03 0 0-2.6 0-2.6h.4v5.8h-.4v-.9s.03-.01 0 0zm-3.2-1.1c0 .5.1.9.5 1.2c.3.4.6.5 1.1.5c.4 0 .8-.1 1.2-.5c.3-.3.5-.7.5-1.2c0-.6-.2-1-.5-1.3c-.4-.3-.8-.5-1.2-.5c-.5 0-.9.2-1.2.5c-.3.3-.4.7-.4 1.2v.1s-.01-.04 0 0zm5.1-3.1v-.6h.5v.6h-.5zm.1 5.1v-4.1h.4v4.1h-.4zm1.9 0v-5.8h.4v4.3l2.5-2.6h.5l-1.7 1.8l1.8 2.3h-.5l-1.6-2l-1 1v1h-.4zm4.5 0v-5.8h.4v4.3l2.5-2.6h.5l-1.8 1.8l1.9 2.3h-.5l-1.6-2l-1 1v1h-.4zm7.2-.7c-.4.5-.9.8-1.6.8c-.4 0-.8-.1-1.1-.3c-.3-.3-.5-.6-.5-1c0-.4.2-.7.5-1c.4-.2.8-.3 1.3-.3c.5 0 .9 0 1.4.1v-.1c0-.4-.1-.7-.4-1c-.2-.2-.5-.3-1-.3c-.4 0-.8.1-1.2.4l-.2-.4c.5-.2 1-.3 1.5-.3c.5 0 .9.1 1.2.4c.3.3.5.7.5 1.2c-.04-.04 0 2.5 0 2.5h-.4v-.7s-.02.02 0 0zm-1.6.4c.5 0 .8-.1 1.1-.3c.3-.3.5-.6.5-.9v-.5c-.5-.1-1-.2-1.4-.2c-.4 0-.8.1-1 .3c-.2.2-.3.4-.3.7c0 .3.1.5.3.7c.2.1.5.2.8.2zm5.4.2c-.3.1-.5.2-.7.2c-.4 0-.6-.1-.8-.3c-.2-.2-.4-.5-.4-.8c.05-.05 0-2.7 0-2.7h-.5v-.4h.5v-1.3h.4v1.3h1.5v.4h-1.5s.04 2.61 0 2.6c0 .5.3.8.9.8c.1 0 .3 0 .6-.1c-.05-.04 0 .3 0 .3c0 0-.05.03 0 0zm4.9 1.3l-.4-.2s.56-.92.6-.9c-.6-.1-1-.3-1.3-.7c-.4-.4-.5-.9-.5-1.4c0-.6.2-1.1.6-1.5c.4-.5.8-.7 1.4-.7c.6 0 1.2.3 1.7.8l-.3.3c-.5-.5-.9-.7-1.4-.7c-.4 0-.8.2-1.1.5c-.4.3-.5.8-.5 1.2v.1c0 .5.1.9.5 1.2c.3.4.7.5 1.2.5c.5 0 .9-.2 1.3-.7l.3.3c-.5.5-1 .8-1.6.8c.03 0-.5 1.1-.5 1.1zm6.5-1.9c-.5.5-1.1.8-1.7.8c-.6 0-1-.2-1.4-.6c-.4-.4-.6-.9-.6-1.5c0-.6.2-1.1.6-1.6c.3-.4.8-.6 1.3-.6c.6 0 1 .2 1.4.6c.3.4.5.9.5 1.6v.1h-3.4c0 .5.2.9.5 1.2c.3.3.7.4 1.1.4c.5 0 1-.2 1.4-.6c.01-.01.3.2.3.2c0 0-.01.03 0 0zm-3.3-1.5h3c-.1-.5-.2-.9-.4-1.2c-.3-.3-.6-.4-1.1-.4c-.4 0-.7.1-1 .4c-.3.3-.5.7-.5 1.2zm4.6 2.2v-5.8h.3v4.3l2.6-2.6h.5l-1.8 1.8l1.8 2.3h-.4l-1.7-2l-1 1v1h-.3zm4.4-5.1v-.6h.5v.6h-.5zm.1 5.1v-4.1h.4v4.1h-.4zm5.4-.7c-.5.5-1 .8-1.7.8c-.6 0-1.1-.2-1.5-.6c-.4-.5-.6-.9-.6-1.5c0-.6.2-1.1.6-1.5c.4-.5.9-.7 1.5-.7c.6 0 1.2.3 1.7.8l-.3.3c-.5-.5-.9-.7-1.4-.7c-.4 0-.8.2-1.2.5c-.3.3-.4.8-.4 1.2v.1c0 .5.1.9.5 1.2c.3.4.7.5 1.1.5c.6 0 1-.2 1.4-.7c.01.05.3.3.3.3c0 0-.01-.01 0 0zm1.1-4.4v-.6h.5v.6h-.5zm0 5.1v-4.1h.4v4.1h-.4zm6.5.1c-.7 0-1.3-.3-1.7-1c-.03.02 0 .9 0 .9h-.4v-5.8h.4s-.03 2.63 0 2.6c.4-.6 1-1 1.7-1c.5 0 .9.2 1.3.6c.4.4.6.9.6 1.5v.1c0 .6-.2 1.1-.6 1.5c-.4.4-.8.6-1.3.6zm-.1-.4c.5 0 .9-.1 1.2-.5c.3-.3.4-.7.4-1.2c0-.6-.1-1-.5-1.3c-.3-.3-.6-.5-1.1-.5c-.4 0-.8.2-1.1.5c-.4.3-.5.7-.5 1.3c0 .5.1.9.5 1.2c.3.4.7.5 1.1.5zm3.3-4.8v-.6h.5v.6h-.5zm0 5.1v-4.1h.4v4.1h-.4zm2 0v-4.1h.3s.05 1.18 0 1.2c.2-.4.5-.7.8-.9c.3-.2.7-.4 1.1-.3c-.05-.04 0 .4 0 .4h-.1c-.5 0-.9.2-1.2.5c-.4.4-.6.9-.6 1.5c.05.03 0 1.7 0 1.7h-.3zm5.6 1.3v-5.4h.3s.05.93 0 .9c.5-.6 1-1 1.7-1c.5 0 1 .2 1.4.6c.4.4.6.9.6 1.5v.1c0 .6-.2 1.1-.6 1.5c-.4.4-.9.6-1.4.6c-.7 0-1.2-.3-1.7-1c.05.02 0 2.2 0 2.2h-.3zm2-1.6c.4 0 .8-.1 1.1-.5c.3-.3.5-.7.5-1.2c0-.6-.2-1-.5-1.3c-.3-.3-.7-.5-1.1-.5c-.5 0-.8.2-1.2.5c-.3.3-.5.7-.5 1.3c0 .5.2.9.5 1.2c.4.4.7.5 1.2.5zm6-.4c-.3.5-.9.8-1.5.8c-.4 0-.8-.1-1.1-.3c-.3-.3-.5-.6-.5-1c0-.4.2-.7.5-1c.3-.2.7-.3 1.3-.3c.4 0 .9 0 1.3.1v-.1c0-.4-.1-.7-.3-1c-.3-.2-.6-.3-1-.3c-.4 0-.9.1-1.3.4l-.1-.4c.5-.2.9-.3 1.4-.3c.6 0 1 .1 1.3.4c.3.3.4.7.4 1.2c.02-.04 0 2.5 0 2.5h-.4v-.7s.03.02 0 0zm-1.5.4c.4 0 .8-.1 1.1-.3c.3-.3.4-.6.4-.9v-.5c-.4-.1-.9-.2-1.3-.2c-.5 0-.8.1-1 .3c-.3.2-.4.4-.4.7c0 .3.1.5.4.7c.2.1.5.2.8.2zm3.3.3v-4.1h.4s.02 1.18 0 1.2c.2-.4.4-.7.7-.9c.4-.2.7-.4 1.1-.3c.03-.04 0 .4 0 .4c0 0-.01-.01 0 0c-.5 0-.9.2-1.3.5c-.3.4-.5.9-.5 1.5c.02.03 0 1.7 0 1.7h-.4zm4.4 1.2l-.5-.2s.65-.92.7-.9c-.6-.1-1-.3-1.3-.7c-.4-.4-.6-.9-.6-1.4c0-.6.2-1.1.6-1.5c.5-.5.9-.7 1.5-.7c.6 0 1.2.3 1.7.8l-.3.3c-.5-.5-.9-.7-1.4-.7c-.4 0-.8.2-1.2.5c-.3.3-.4.8-.4 1.2v.1c0 .5.1.9.5 1.2c.3.4.7.5 1.1.5c.6 0 1-.2 1.4-.7l.3.3c-.5.5-1 .8-1.6.8c.02 0-.5 1.1-.5 1.1zm6-1.9c-.4.5-.9.8-1.6.8c-.4 0-.7-.1-1.1-.3c-.3-.3-.4-.6-.4-1c0-.4.1-.7.4-1c.4-.2.8-.3 1.3-.3c.5 0 1 0 1.4.1v-.1c0-.4-.1-.7-.4-1c-.2-.2-.5-.3-1-.3c-.4 0-.8.1-1.2.4l-.2-.4c.5-.2 1-.3 1.5-.3c.5 0 1 .1 1.3.4c.2.3.4.7.4 1.2c-.02-.04 0 2.5 0 2.5h-.4v-.7s-.01.02 0 0zm-1.5.4c.4 0 .7-.1 1-.3c.4-.3.5-.6.5-.9v-.5c-.5-.1-.9-.2-1.4-.2c-.4 0-.7.1-1 .3c-.2.2-.3.4-.3.7c0 .3.1.5.3.7c.3.1.5.2.9.2zm8.5-.4c-.4.5-.9.8-1.6.8c-.4 0-.8-.1-1.1-.3c-.3-.3-.5-.6-.5-1c0-.4.2-.7.5-1c.4-.2.8-.3 1.3-.3c.5 0 .9 0 1.4.1v-.1c0-.4-.1-.7-.4-1c-.2-.2-.5-.3-1-.3c-.4 0-.8.1-1.2.4l-.2-.4c.5-.2 1-.3 1.5-.3c.5 0 1 .1 1.3.4c.2.3.4.7.4 1.2c-.03-.04 0 2.5 0 2.5h-.4v-.7s-.01.02 0 0zm-1.6.4c.5 0 .8-.1 1.1-.3c.3-.3.5-.6.5-.9v-.5c-.5-.1-.9-.2-1.4-.2c-.4 0-.7.1-1 .3c-.2.2-.3.4-.3.7c0 .3.1.5.3.7c.2.1.5.2.8.2zm3.4.3v-4.1h.4s-.03 1.18 0 1.2c.1-.4.4-.7.7-.9c.3-.2.7-.4 1.1-.3c-.02-.04 0 .4 0 .4h-.1c-.5 0-.9.2-1.2.5c-.4.4-.5.9-.5 1.5c-.03.03 0 1.7 0 1.7h-.4zm3.2 0v-4.1h.4v4.1h-.4zm3.7-.4l1.5-3.7h.4s-1.77 4.24-1.8 4.2c-.2.5-.3.8-.6.9c-.2.2-.4.3-.7.3c-.3 0-.6-.1-.8-.2l.1-.3c.2.1.4.1.7.1c.2 0 .4 0 .5-.2c.2-.1.3-.4.5-.7l-2-4.1h.5l1.7 3.7zm6.6-1.6c0 .5-.2 1-.6 1.5c-.4.4-.9.6-1.5.6c-.6 0-1.1-.2-1.5-.6c-.3-.4-.5-.9-.5-1.5c0-.6.2-1.1.6-1.5c.4-.5.9-.7 1.5-.7c.6 0 1.1.2 1.4.6c.4.5.6 1 .6 1.5c.05.04 0 .1 0 .1c0 0 .05-.04 0 0zm-2 1.7c.4 0 .8-.1 1.1-.5c.4-.3.5-.7.5-1.2c0-.5-.1-1-.5-1.3c-.3-.3-.7-.5-1.2-.5c-.4 0-.8.2-1.2.5c-.3.3-.4.8-.4 1.2v.1c0 .5.1.9.5 1.2c.3.4.7.5 1.2.5zm3.3.3v-4.1h.3s.05 1.18 0 1.2c.2-.4.5-.7.8-.9c.3-.2.7-.4 1.1-.3c-.05-.04 0 .4 0 .4h-.1c-.5 0-.9.2-1.2.5c-.4.4-.6.9-.6 1.5c.05.03 0 1.7 0 1.7h-.3zm4.5.1c-.6 0-1.2-.2-1.7-.6l.2-.3c.5.3 1 .5 1.5.5c.3 0 .5-.1.7-.2c.2-.1.3-.3.3-.6c0-.1 0-.2-.1-.3c-.1-.1-.1-.1-.3-.2c-.1-.1-.2-.1-.3-.2c-.1 0-.2 0-.4-.1c-.2 0-.3-.1-.4-.1c-.1 0-.2-.1-.4-.2c-.1 0-.2-.1-.3-.2c-.1 0-.1-.1-.2-.2c-.1-.1-.1-.3-.1-.4c0-.4.1-.6.4-.8c.2-.3.6-.4.9-.4c.6 0 1.1.2 1.5.5l-.2.3c-.4-.3-.8-.4-1.3-.4c-.2 0-.5.1-.6.2c-.2.1-.3.3-.3.5c0 .1 0 .2.1.3c0 .1.1.2.3.2c.1.1.2.2.3.2c.1 0 .2.1.4.1c.2.1.4.1.5.2c.2 0 .3.1.4.2c.2.1.3.2.4.3c0 .2.1.3.1.5c0 .3-.2.6-.4.9c-.3.2-.6.3-1 .3zm5.4-.8c-.3.5-.9.8-1.5.8c-.4 0-.8-.1-1.1-.3c-.3-.3-.5-.6-.5-1c0-.4.2-.7.5-1c.3-.2.7-.3 1.3-.3c.4 0 .9 0 1.3.1v-.1c0-.4-.1-.7-.3-1c-.3-.2-.6-.3-1-.3c-.4 0-.9.1-1.3.4l-.1-.4c.4-.2.9-.3 1.4-.3c.6 0 1 .1 1.3.4c.3.3.4.7.4 1.2c.01-.04 0 2.5 0 2.5h-.4v-.7s.03.02 0 0zm-1.5.4c.4 0 .8-.1 1.1-.3c.3-.3.4-.6.4-.9v-.5c-.4-.1-.9-.2-1.3-.2c-.5 0-.8.1-1 .3c-.3.2-.4.4-.4.7c0 .3.1.5.4.7c.2.1.5.2.8.2zm3.3.3v-4.1h.4v.8c.3-.6.8-.9 1.5-.9c.5 0 .9.2 1.2.5c.3.3.4.7.4 1.2c.02 0 0 2.5 0 2.5h-.4s.03-2.42 0-2.4c0-.5-.1-.8-.3-1c-.2-.3-.6-.4-1-.4c-.4 0-.7.1-1 .4c-.3.3-.4.6-.4 1v2.4h-.4zm5 0v-4.1h.4v4.1h-.4zm1.6 0v-.2l3-3.5h-2.9v-.4h3.5v.2l-3 3.5h3v.4h-3.6zm4.5.9l-.1-.2c.2-.1.3-.2.4-.3c.1-.1.1-.2.1-.4h-.2v-.7h.5v.6c0 .3-.1.5-.2.6c-.1.1-.2.3-.5.4z" stroke="none" fill="#000"/></g><g id="Polygon365976"><path d="m2.1 73.3c-.7 0-1.2-.2-1.7-.6l.2-.3c.5.3 1 .5 1.5.5c.3 0 .5-.1.7-.2c.2-.1.3-.3.3-.6c0-.1-.1-.2-.1-.3c-.1-.1-.1-.1-.3-.2c-.1-.1-.2-.1-.3-.2c-.1 0-.2 0-.4-.1c-.2 0-.3-.1-.4-.1c-.1 0-.2-.1-.4-.2c-.1 0-.3-.1-.3-.2c-.1 0-.2-.1-.2-.2c-.1-.1-.1-.3-.1-.4c0-.4.1-.6.4-.8c.2-.3.5-.4.9-.4c.6 0 1 .2 1.5.5l-.2.3c-.4-.3-.9-.4-1.3-.4c-.3 0-.5.1-.7.2c-.1.1-.2.3-.2.5c0 .1 0 .2.1.3c0 .1.1.2.3.2c.1.1.2.2.3.2c.1 0 .2.1.4.1c.2.1.4.1.5.2c.2 0 .3.1.4.2c.2.1.3.2.4.3c0 .2.1.3.1.5c0 .3-.2.6-.4.9c-.3.2-.6.3-1 .3zm5.4-.8c-.4.5-.9.8-1.5.8c-.5 0-.8-.1-1.1-.3c-.4-.3-.5-.6-.5-1c0-.4.1-.7.5-1c.3-.2.7-.3 1.3-.3c.4 0 .9 0 1.3.1v-.1c0-.4-.1-.7-.3-1c-.3-.2-.6-.3-1-.3c-.5 0-.9.1-1.3.4l-.1-.4c.4-.2.9-.3 1.4-.3c.6 0 1 .1 1.3.4c.3.3.4.7.4 1.2v2.5h-.4v-.7s.02.02 0 0zm-1.5.4c.4 0 .8-.1 1.1-.3c.3-.3.4-.6.4-.9v-.5c-.5-.1-.9-.2-1.4-.2c-.4 0-.7.1-.9.3c-.3.2-.4.4-.4.7c0 .3.1.5.3.7c.3.1.6.2.9.2zm3.3.3v-4.1h.4v.7c.3-.5.8-.8 1.4-.8c.6 0 1.1.3 1.3.9c.4-.6.9-.9 1.5-.9c.5 0 .9.2 1.2.5c.2.3.4.7.4 1.2c-.02.03 0 2.5 0 2.5h-.4v-2.4c0-.5-.1-.8-.3-1.1c-.2-.2-.5-.3-.9-.3c-.4 0-.7.1-.9.4c-.3.2-.4.6-.4 1v2.4h-.4v-2.4c0-.5-.1-.8-.3-1.1c-.2-.2-.5-.3-.9-.3c-.4 0-.7.1-.9.4c-.3.3-.4.6-.4 1v2.4h-.4zm7.6-5.1v-.6h.5v.6h-.5zm0 5.1v-4.1h.4v4.1h-.4zm2 0v-4.1h.4s-.03.75 0 .7c.3-.5.8-.8 1.3-.8c.7 0 1.1.3 1.4.9c.3-.6.8-.9 1.5-.9c.5 0 .8.2 1.1.5c.3.3.4.7.4 1.2c.05.03 0 2.5 0 2.5h-.3s-.04-2.42 0-2.4c0-.5-.2-.8-.4-1.1c-.2-.2-.5-.3-.9-.3c-.3 0-.6.1-.9.4c-.2.2-.3.6-.3 1c-.04.02 0 2.4 0 2.4h-.4s-.03-2.45 0-2.4c0-.5-.1-.8-.4-1.1c-.2-.2-.5-.3-.8-.3c-.4 0-.7.1-1 .4c-.2.3-.3.6-.3 1c-.03.05 0 2.4 0 2.4h-.4zm7.6-5.1v-.6h.5v.6h-.5zm0 5.1v-4.1h.4v4.1h-.4zm5.8 0l-1.9-4.1h.5l1.5 3.7l1.6-3.7h.4l-1.8 4.1h-.3zm6.4-.7c-.5.5-1.1.8-1.7.8c-.6 0-1-.2-1.4-.6c-.4-.4-.6-.9-.6-1.5c0-.6.2-1.1.5-1.6c.4-.4.9-.6 1.4-.6c.6 0 1 .2 1.4.6c.3.4.5.9.5 1.6v.1h-3.4c0 .5.2.9.5 1.2c.3.3.7.4 1.1.4c.5 0 1-.2 1.4-.6l.3.2s-.03.03 0 0zM35.4 71h3c-.1-.5-.2-.9-.5-1.2c-.2-.3-.6-.4-1-.4c-.4 0-.7.1-1 .4c-.3.3-.5.7-.5 1.2zm6.9 2.2v-5.8h.4s.03 2.48 0 2.5c.4-.6.8-.9 1.5-.9c.5 0 .9.2 1.2.5c.3.3.4.7.4 1.2c.03 0 0 2.5 0 2.5h-.4s.04-2.42 0-2.4c0-.5-.1-.8-.3-1c-.2-.3-.5-.4-1-.4c-.4 0-.7.1-1 .4c-.2.3-.4.6-.4 1c.03.04 0 2.4 0 2.4h-.4zm8-.8c-.4.6-.9.9-1.5.9c-.5 0-.9-.2-1.2-.5c-.3-.3-.4-.7-.4-1.2c-.04.02 0-2.5 0-2.5h.4s-.05 2.44 0 2.4c0 .5.1.8.3 1.1c.2.2.5.3.9.3c.5 0 .8-.1 1.1-.4c.2-.2.4-.6.4-1c-.04-.02 0-2.4 0-2.4h.4v4.1h-.4v-.8s-.04.04 0 0zm1.6.8v-.2l2.9-3.5H52v-.4h3.4v.2l-3 3.5h3v.4h-3.5zm7.7-.8c-.3.6-.8.9-1.5.9c-.5 0-.9-.2-1.2-.5c-.3-.3-.4-.7-.4-1.2v-2.5h.4v2.4c0 .5.1.8.3 1.1c.3.2.6.3 1 .3c.4 0 .7-.1 1-.4c.3-.2.4-.6.4-1v-2.4h.4v4.1h-.4v-.8s0 .04 0 0zm1.9.8v-4.1h.4s-.03 1.18 0 1.2c.1-.4.4-.7.7-.9c.3-.2.7-.4 1.1-.3c-.02-.04 0 .4 0 .4h-.1c-.5 0-.9.2-1.2.5c-.4.4-.5.9-.5 1.5c-.03.03 0 1.7 0 1.7h-.4zm3.2 0v-5.8h.4v5.8h-.4zm5-.8c-.3.6-.8.9-1.5.9c-.5 0-.9-.2-1.2-.5c-.3-.3-.4-.7-.4-1.2c-.01.02 0-2.5 0-2.5h.4s-.02 2.44 0 2.4c0 .5.1.8.3 1.1c.2.2.6.3 1 .3c.4 0 .7-.1 1-.4c.3-.2.4-.6.4-1v-2.4h.4v4.1h-.4v-.8s-.01.04 0 0zm6.3.9c-.6 0-1.2-.3-1.6-1c-.03.02 0 .9 0 .9h-.4v-5.8h.4s-.03 2.63 0 2.6c.4-.6 1-1 1.6-1c.6 0 1 .2 1.4.6c.4.4.6.9.6 1.5v.1c0 .6-.2 1.1-.6 1.5c-.4.4-.8.6-1.4.6zm0-.4c.5 0 .8-.1 1.2-.5c.3-.3.4-.7.4-1.2c0-.6-.1-1-.5-1.3c-.3-.3-.7-.5-1.1-.5c-.4 0-.8.2-1.2.5c-.3.3-.5.7-.5 1.3c0 .5.2.9.5 1.2c.4.4.8.5 1.2.5zm3.3-4.8v-.6h.5v.6h-.5zm0 5.1v-4.1h.4v4.1h-.4zm1.9 0v-4.1h.4s.04 1.18 0 1.2c.2-.4.5-.7.8-.9c.3-.2.6-.4 1-.3c.05-.04 0 .4 0 .4c0 0 .01-.01 0 0c-.5 0-.9.2-1.2.5c-.4.4-.6.9-.6 1.5c.04.03 0 1.7 0 1.7h-.4zm8.4-.7c-.3.5-.9.8-1.5.8c-.4 0-.8-.1-1.1-.3c-.3-.3-.5-.6-.5-1c0-.4.2-.7.5-1c.3-.2.8-.3 1.3-.3c.5 0 .9 0 1.3.1v-.1c0-.4-.1-.7-.3-1c-.2-.2-.6-.3-1-.3c-.4 0-.9.1-1.3.4l-.1-.4c.5-.2.9-.3 1.4-.3c.6 0 1 .1 1.3.4c.3.3.4.7.4 1.2c.03-.04 0 2.5 0 2.5h-.4v-.7s.05.02 0 0zm-1.5.4c.4 0 .8-.1 1.1-.3c.3-.3.5-.6.5-.9v-.5c-.5-.1-1-.2-1.4-.2c-.5 0-.8.1-1 .3c-.3.2-.4.4-.4.7c0 .3.1.5.4.7c.2.1.5.2.8.2zm5.3.2c-.2.1-.4.2-.6.2c-.4 0-.7-.1-.9-.3c-.2-.2-.3-.5-.3-.8v-2.7h-.6v-.4h.6v-1.3h.4v1.3h1.4v.4H92v2.6c0 .5.3.8.8.8c.2 0 .4 0 .6-.1c.02-.04 0 .3 0 .3c0 0 .02.03 0 0zm1.2.1v-4.1h.4v.7c.3-.5.8-.8 1.4-.8c.6 0 1 .3 1.3.9c.4-.6.9-.9 1.5-.9c.5 0 .9.2 1.1.5c.3.3.5.7.5 1.2c-.03.03 0 2.5 0 2.5h-.4s-.03-2.42 0-2.4c0-.5-.1-.8-.3-1.1c-.3-.2-.6-.3-.9-.3c-.4 0-.7.1-.9.4c-.3.2-.4.6-.4 1c-.02.02 0 2.4 0 2.4h-.4v-2.4c0-.5-.1-.8-.3-1.1c-.2-.2-.5-.3-.9-.3c-.4 0-.7.1-.9.4c-.3.3-.4.6-.4 1v2.4h-.4zm11.5-2c0 .5-.2 1-.6 1.5c-.4.4-.9.6-1.5.6c-.6 0-1.1-.2-1.5-.6c-.4-.4-.6-.9-.6-1.5c0-.6.2-1.1.6-1.5c.4-.5.9-.7 1.5-.7c.6 0 1.1.2 1.5.6c.4.5.6 1 .6 1.5v.1s-.01-.04 0 0zm-2.1 1.7c.5 0 .9-.1 1.2-.5c.3-.3.5-.7.5-1.2c0-.5-.2-1-.5-1.3c-.4-.3-.7-.5-1.2-.5c-.5 0-.9.2-1.2.5c-.3.3-.5.8-.5 1.2v.1c0 .5.2.9.5 1.2c.3.4.7.5 1.2.5zm4.6.4c-.6 0-1.2-.2-1.7-.6l.3-.3c.4.3.9.5 1.4.5c.3 0 .6-.1.7-.2c.2-.1.3-.3.3-.6c0-.1 0-.2-.1-.3c0-.1-.1-.1-.2-.2c-.1-.1-.2-.1-.3-.2c-.1 0-.3 0-.5-.1c-.1 0-.3-.1-.4-.1c-.1 0-.2-.1-.3-.2c-.2 0-.3-.1-.4-.2l-.2-.2c0-.1-.1-.3-.1-.4c0-.4.2-.6.4-.8c.3-.3.6-.4 1-.4c.5 0 1 .2 1.4.5l-.2.3c-.4-.3-.8-.4-1.2-.4c-.3 0-.5.1-.7.2c-.2.1-.3.3-.3.5c0 .1.1.2.1.3c.1.1.2.2.3.2c.1.1.2.2.3.2c.1 0 .3.1.5.1c.2.1.4.1.5.2c.1 0 .2.1.4.2l.3.3c.1.2.1.3.1.5c0 .3-.1.6-.4.9c-.2.2-.6.3-1 .3zm2.9-.1v-3.7h-.6v-.4h.6v-.4c0-.4.1-.8.4-1c.2-.3.5-.4.8-.4c.2 0 .4.1.6.1v.4c-.2-.1-.4-.1-.6-.1c-.5 0-.8.3-.8 1v.4h1.4v.4h-1.4v3.7h-.4zm6-.7c-.5.5-1 .8-1.7.8c-.5 0-1-.2-1.4-.6c-.4-.4-.6-.9-.6-1.5c0-.6.2-1.1.6-1.6c.3-.4.8-.6 1.3-.6c.6 0 1.1.2 1.4.6c.3.4.5.9.5 1.6v.1h-3.4c.1.5.2.9.5 1.2c.3.3.7.4 1.1.4c.6 0 1-.2 1.4-.6c.02-.01.3.2.3.2c0 0-.01.03 0 0zm-3.3-1.5h3c0-.5-.2-.9-.4-1.2c-.3-.3-.6-.4-1.1-.4c-.4 0-.7.1-1 .4c-.3.3-.4.7-.5 1.2zm4.6 2.2v-4.1h.4s-.05 1.18 0 1.2c.1-.4.4-.7.7-.9c.3-.2.7-.4 1.1-.3c-.04-.04 0 .4 0 .4h-.1c-.5 0-.9.2-1.2.5c-.4.4-.5.9-.5 1.5c-.05.03 0 1.7 0 1.7h-.4zm9.5-2c0 .5-.2 1-.6 1.5c-.4.4-.9.6-1.5.6c-.6 0-1.1-.2-1.5-.6c-.4-.4-.6-.9-.6-1.5c0-.6.2-1.1.6-1.5c.4-.5.9-.7 1.5-.7c.6 0 1.1.2 1.5.6c.4.5.6 1 .6 1.5c-.03.04 0 .1 0 .1c0 0-.03-.04 0 0zm-2.1 1.7c.5 0 .9-.1 1.2-.5c.3-.3.4-.7.4-1.2c0-.5-.1-1-.4-1.3c-.4-.3-.8-.5-1.2-.5c-.5 0-.9.2-1.2.5c-.3.3-.5.8-.5 1.2v.1c0 .5.2.9.5 1.2c.3.4.7.5 1.2.5zm3.3.3v-5.8h.4v5.8h-.4zm5-.8c-.3.6-.8.9-1.5.9c-.5 0-.9-.2-1.2-.5c-.3-.3-.4-.7-.4-1.2c-.01.02 0-2.5 0-2.5h.4s-.02 2.44 0 2.4c0 .5.1.8.3 1.1c.2.2.6.3 1 .3c.4 0 .7-.1 1-.4c.3-.2.4-.6.4-1v-2.4h.4v4.1h-.4v-.8s-.01.04 0 0zm2.7 2l-.4-.2s.61-.94.6-.9c-.5-.1-1-.3-1.4-.6l.3-.3c.4.3.9.5 1.4.5c.3 0 .5-.1.7-.2c.2-.1.3-.3.3-.6c0-.1 0-.2-.1-.3c0-.1-.1-.1-.2-.2c-.2-.1-.3-.1-.4-.2c-.1 0-.2 0-.4-.1c-.2 0-.3-.1-.4-.1c-.1 0-.2-.1-.3-.2c-.2 0-.3-.1-.4-.2c-.1 0-.1-.1-.2-.2c0-.1-.1-.3-.1-.4c0-.4.1-.6.4-.8c.2-.3.6-.4 1-.4c.5 0 1 .2 1.4.5l-.2.3c-.4-.3-.8-.4-1.2-.4c-.3 0-.6.1-.7.2c-.2.1-.3.3-.3.5c0 .1.1.2.1.3c.1.1.2.2.3.2c.1.1.2.2.3.2c.1 0 .3.1.5.1c.2.1.3.1.5.2c.1 0 .2.1.4.2l.3.3c.1.2.1.3.1.5c0 .3-.1.6-.4.8c-.2.3-.6.4-.9.4c-.03-.02-.6 1.1-.6 1.1zm5.1-1.3c-.2.1-.4.2-.7.2c-.3 0-.6-.1-.8-.3c-.2-.2-.3-.5-.3-.8v-2.7h-.6v-.4h.6v-1.3h.4v1.3h1.4v.4h-1.4s-.02 2.61 0 2.6c0 .5.2.8.8.8c.2 0 .4 0 .6-.1v.3s-.01.03 0 0zm4.2-.7c-.3.6-.8.9-1.5.9c-.5 0-.9-.2-1.2-.5c-.3-.3-.4-.7-.4-1.2c-.01.02 0-2.5 0-2.5h.4s-.02 2.44 0 2.4c0 .5.1.8.3 1.1c.2.2.6.3 1 .3c.4 0 .7-.1 1-.4c.3-.2.4-.6.4-1v-2.4h.4v4.1h-.4v-.8s-.01.04 0 0zm1.9.8v-4.1h.4s-.03 1.18 0 1.2c.1-.4.4-.7.7-.9c.3-.2.7-.4 1.1-.3c-.03-.04 0 .4 0 .4h-.1c-.5 0-.9.2-1.2.5c-.4.4-.5.9-.5 1.5c-.03.03 0 1.7 0 1.7h-.4zm6.2-.8c-.3.6-.8.9-1.5.9c-.5 0-.9-.2-1.2-.5c-.3-.3-.4-.7-.4-1.2c-.01.02 0-2.5 0-2.5h.4v2.4c0 .5.1.8.3 1.1c.3.2.6.3 1 .3c.4 0 .7-.1 1-.4c.3-.2.4-.6.4-1v-2.4h.4v4.1h-.4v-.8s0 .04 0 0zm1.9.8v-4.1h.4s-.03 1.18 0 1.2c.1-.4.4-.7.7-.9c.3-.2.7-.4 1.1-.3c-.02-.04 0 .4 0 .4h-.1c-.5 0-.9.2-1.2.5c-.4.4-.5.9-.5 1.5c-.03.03 0 1.7 0 1.7h-.4zm2.4 0v-.7h.5v.7h-.5zm4.4 0v-5.6h4v.4h-3.6v2.2h3.2v.4h-3.2v2.2h3.6v.4h-4zm8.4.8c-.3.3-.8.5-1.4.5c-.7 0-1.3-.2-1.9-.6l.2-.3c.5.3 1.1.5 1.7.5c.5 0 .8-.1 1.1-.4c.3-.3.5-.6.5-1.2v-.5c-.5.6-1 .9-1.7.9c-.5 0-1-.2-1.4-.5c-.4-.4-.6-.9-.6-1.4c0-.6.2-1.1.6-1.4c.4-.4.9-.6 1.4-.6c.7 0 1.2.3 1.7.9c-.02.04 0-.8 0-.8h.4s-.03 3.47 0 3.5c0 .5-.2 1-.6 1.4zm-1.5-1.5c.5 0 .9-.1 1.2-.4c.3-.3.5-.7.5-1.1c0-.5-.2-.9-.5-1.2c-.3-.3-.7-.4-1.2-.4c-.4 0-.8.1-1.1.4c-.3.3-.5.7-.5 1.1v.1c0 .4.2.8.5 1.1c.3.3.7.4 1.1.4zm1.3-4.9c-.1.2-.2.5-.4.6c-.2.2-.4.3-.7.3c-.3 0-.6-.1-.8-.3c-.1-.1-.3-.4-.3-.6h.3c.1.3.4.5.8.5c.4 0 .6-.2.7-.5c.04-.04.4 0 .4 0c0 0-.05-.04 0 0zm5.7 4.9c-.5.5-1.1.8-1.7.8c-.6 0-1-.2-1.4-.6c-.4-.4-.6-.9-.6-1.5c0-.6.2-1.1.5-1.6c.4-.4.9-.6 1.4-.6c.6 0 1 .2 1.4.6c.3.4.5.9.5 1.6v.1h-3.4c0 .5.2.9.5 1.2c.3.3.7.4 1.1.4c.5 0 1-.2 1.4-.6l.3.2s-.03.03 0 0zm-3.3-1.5h3c-.1-.5-.2-.9-.5-1.2c-.2-.3-.6-.4-1-.4c-.4 0-.7.1-1 .4c-.3.3-.5.7-.5 1.2zm4.5 2.2v-4.1h.4s.02 1.18 0 1.2c.2-.4.4-.7.8-.9c.3-.2.6-.4 1-.3c.03-.04 0 .4 0 .4c0 0-.01-.01 0 0c-.5 0-.9.2-1.3.5c-.3.4-.5.9-.5 1.5c.02.03 0 1.7 0 1.7h-.4zm5.3 0v-.2l3-3.5h-2.8v-.4h3.4v.2l-3 3.5h3v.4h-3.6zm8-.7c-.4.5-1 .8-1.6.8c-.6 0-1.1-.2-1.5-.6c-.3-.4-.5-.9-.5-1.5c0-.6.1-1.1.5-1.6c.4-.4.8-.6 1.4-.6c.6 0 1 .2 1.4.6c.3.4.5.9.5 1.6v.1h-3.4c0 .5.2.9.5 1.2c.3.3.7.4 1.1.4c.5 0 1-.2 1.4-.6l.2.2s.05.03 0 0zm-3.2-1.5h2.9c0-.5-.1-.9-.4-1.2c-.2-.3-.6-.4-1-.4c-.4 0-.8.1-1 .4c-.3.3-.5.7-.5 1.2zm4.5 2.2v-4.1h.4v.7c.3-.5.8-.8 1.4-.8c.6 0 1.1.3 1.3.9c.4-.6.9-.9 1.5-.9c.5 0 .9.2 1.2.5c.2.3.4.7.4 1.2c-.02.03 0 2.5 0 2.5h-.4v-2.4c0-.5-.1-.8-.3-1.1c-.2-.2-.5-.3-.9-.3c-.4 0-.7.1-.9.4c-.3.2-.4.6-.4 1v2.4h-.4v-2.4c0-.5-.1-.8-.3-1.1c-.2-.2-.5-.3-.9-.3c-.4 0-.7.1-.9.4c-.3.3-.4.6-.4 1v2.4h-.4zm7.6-5.1v-.6h.5v.6h-.5zm0 5.1v-4.1h.4v4.1h-.4zm2 0v-4.1h.4s-.03.78 0 .8c.3-.6.8-.9 1.4-.9c.6 0 1 .2 1.2.5c.3.3.5.7.5 1.2c-.02 0 0 2.5 0 2.5h-.4v-2.4c0-.5-.1-.8-.4-1c-.2-.3-.5-.4-.9-.4c-.4 0-.8.1-1 .4c-.3.3-.4.6-.4 1c-.03.04 0 2.4 0 2.4h-.4zm8.3-.9c-.5.7-1 1-1.7 1c-.5 0-1-.2-1.4-.6c-.4-.4-.6-.9-.6-1.5c0-.7.2-1.2.6-1.6c.4-.4.9-.6 1.4-.6c.7 0 1.2.3 1.7 1v-2.6h.4v5.8h-.4v-.9s-.01-.01 0 0zm-3.3-1.1c0 .5.2.9.5 1.2c.3.4.7.5 1.1.5c.5 0 .9-.1 1.2-.5c.3-.3.5-.7.5-1.2c0-.6-.2-1-.5-1.3c-.3-.3-.7-.5-1.2-.5c-.4 0-.8.2-1.1.5c-.3.3-.5.7-.5 1.2c.05.04 0 .1 0 .1c0 0 .05-.04 0 0zm8.6 1.3c-.5.5-1.1.8-1.7.8c-.6 0-1-.2-1.4-.6c-.4-.4-.6-.9-.6-1.5c0-.6.2-1.1.5-1.6c.4-.4.9-.6 1.4-.6c.6 0 1 .2 1.4.6c.3.4.5.9.5 1.6v.1h-3.4c0 .5.2.9.5 1.2c.3.3.7.4 1.1.4c.5 0 1-.2 1.4-.6l.3.2s-.03.03 0 0zm-3.3-1.5h3c-.1-.5-.2-.9-.5-1.2c-.2-.3-.6-.4-1-.4c-.4 0-.7.1-1 .4c-.3.3-.5.7-.5 1.2zm8.7 1.8l1.4-3.7h.5l-1.8 4.2c-.2.5-.4.8-.6.9c-.2.2-.5.3-.8.3c-.2 0-.5-.1-.8-.2l.2-.3c.2.1.4.1.7.1c.2 0 .4 0 .5-.2c.2-.1.3-.4.5-.7c-.04-.02-2-4.1-2-4.1h.5l1.7 3.7zm6.1-.3c-.5.5-1 .8-1.7.8c-.5 0-1-.2-1.4-.6c-.4-.4-.6-.9-.6-1.5c0-.6.2-1.1.6-1.6c.3-.4.8-.6 1.4-.6c.5 0 1 .2 1.3.6c.4.4.5.9.5 1.6v.1h-3.4c.1.5.2.9.5 1.2c.4.3.7.4 1.1.4c.6 0 1-.2 1.4-.6c.04-.01.3.2.3.2c0 0 .01.03 0 0zm-3.3-1.5h3c0-.5-.2-.9-.4-1.2c-.3-.3-.6-.4-1.1-.4c-.4 0-.7.1-1 .4c-.3.3-.4.7-.5 1.2zm4.6 2.2v-4.1h.4s-.04 1.18 0 1.2c.1-.4.4-.7.7-.9c.3-.2.7-.4 1.1-.3c-.03-.04 0 .4 0 .4h-.1c-.5 0-.9.2-1.2.5c-.4.4-.5.9-.5 1.5c-.04.03 0 1.7 0 1.7h-.4z" stroke="none" fill="#000"/></g><g id="Polygon365975"><path d="m.7 61.2v-5.8h.4s.04 2.48 0 2.5c.4-.6.9-.9 1.5-.9c.5 0 .9.2 1.2.5c.3.3.4.7.4 1.2c.04 0 0 2.5 0 2.5h-.4s.05-2.42 0-2.4c0-.5-.1-.8-.3-1c-.2-.3-.5-.4-.9-.4c-.5 0-.8.1-1.1.4c-.2.3-.4.6-.4 1c.04.04 0 2.4 0 2.4h-.4zm7.7-.7c-.3.5-.9.8-1.5.8c-.4 0-.8-.1-1.1-.3c-.3-.3-.5-.6-.5-1c0-.4.2-.7.5-1c.3-.2.8-.3 1.3-.3c.5 0 .9 0 1.3.1v-.1c0-.4-.1-.7-.3-1c-.2-.2-.6-.3-1-.3c-.4 0-.8.1-1.3.4l-.1-.4c.5-.2.9-.3 1.4-.3c.6 0 1 .1 1.3.4c.3.3.4.7.4 1.2c.03-.04 0 2.5 0 2.5h-.4v-.7s.05.02 0 0zm-1.5.4c.4 0 .8-.1 1.1-.3c.3-.3.5-.6.5-.9v-.5c-.5-.1-1-.2-1.4-.2c-.5 0-.8.1-1 .3c-.3.2-.4.4-.4.7c0 .3.1.5.4.7c.2.1.5.2.8.2zm4.6.3l-1.8-4.1h.4l1.6 3.7l1.5-3.7h.5l-1.9 4.1h-.3zm5.8-.7c-.3.5-.9.8-1.5.8c-.4 0-.8-.1-1.1-.3c-.3-.3-.5-.6-.5-1c0-.4.2-.7.5-1c.3-.2.7-.3 1.3-.3c.4 0 .9 0 1.3.1v-.1c0-.4-.1-.7-.3-1c-.3-.2-.6-.3-1-.3c-.4 0-.9.1-1.3.4l-.1-.4c.5-.2.9-.3 1.4-.3c.6 0 1 .1 1.3.4c.3.3.4.7.4 1.2c.02-.04 0 2.5 0 2.5h-.4v-.7s.04.02 0 0zm-1.5.4c.4 0 .8-.1 1.1-.3c.3-.3.4-.6.4-.9v-.5c-.4-.1-.9-.2-1.3-.2c-.5 0-.8.1-1 .3c-.3.2-.4.4-.4.7c0 .3.1.5.4.7c.2.1.5.2.8.2zm6.7-.6c-.4.7-1 1-1.7 1c-.5 0-.9-.2-1.3-.6c-.4-.4-.6-.9-.6-1.5c0-.7.2-1.2.6-1.6c.4-.4.8-.6 1.3-.6c.7 0 1.3.3 1.7 1c.03 0 0-2.6 0-2.6h.4v5.8h-.4v-.9s.03-.01 0 0zm-3.2-1.1c0 .5.1.9.5 1.2c.3.4.6.5 1.1.5c.4 0 .8-.1 1.2-.5c.3-.3.5-.7.5-1.2c0-.6-.2-1-.5-1.3c-.4-.3-.8-.5-1.2-.5c-.5 0-.9.2-1.2.5c-.3.3-.4.7-.4 1.2v.1s-.01-.04 0 0zm7.9 1.3c-.4.5-.9.8-1.6.8c-.4 0-.7-.1-1.1-.3c-.3-.3-.4-.6-.4-1c0-.4.1-.7.5-1c.3-.2.7-.3 1.3-.3c.4 0 .9 0 1.3.1v-.1c0-.4-.1-.7-.3-1c-.3-.2-.6-.3-1-.3c-.5 0-.9.1-1.3.4l-.2-.4c.5-.2 1-.3 1.5-.3c.5 0 1 .1 1.3.4c.3.3.4.7.4 1.2c-.01-.04 0 2.5 0 2.5h-.4v-.7s.01.02 0 0zm-1.5.4c.4 0 .8-.1 1.1-.3c.3-.3.4-.6.4-.9v-.5c-.5-.1-.9-.2-1.4-.2c-.4 0-.7.1-1 .3c-.2.2-.3.4-.3.7c0 .3.1.5.3.7c.3.1.5.2.9.2zm8.5-.4c-.4.5-.9.8-1.6.8c-.4 0-.7-.1-1.1-.3c-.3-.3-.4-.6-.4-1c0-.4.1-.7.5-1c.3-.2.7-.3 1.2-.3c.5 0 1 0 1.4.1v-.1c0-.4-.1-.7-.4-1c-.2-.2-.5-.3-.9-.3c-.5 0-.9.1-1.3.4l-.2-.4c.5-.2 1-.3 1.5-.3c.5 0 1 .1 1.3.4c.2.3.4.7.4 1.2c-.02-.04 0 2.5 0 2.5h-.4v-.7s0 .02 0 0zm-1.5.4c.4 0 .8-.1 1.1-.3c.3-.3.4-.6.4-.9v-.5c-.5-.1-.9-.2-1.4-.2c-.4 0-.7.1-1 .3c-.2.2-.3.4-.3.7c0 .3.1.5.3.7c.3.1.5.2.9.2zm6.7-.6c-.5.7-1 1-1.7 1c-.5 0-1-.2-1.4-.6c-.4-.4-.6-.9-.6-1.5c0-.7.2-1.2.6-1.6c.4-.4.9-.6 1.4-.6c.7 0 1.3.3 1.7 1v-2.6h.4v5.8h-.4v-.9s-.01-.01 0 0zm-3.2-1.1c0 .5.1.9.4 1.2c.3.4.7.5 1.2.5c.4 0 .8-.1 1.1-.5c.3-.3.5-.7.5-1.2c0-.6-.2-1-.5-1.3c-.3-.3-.7-.5-1.1-.5c-.5 0-.9.2-1.2.5c-.3.3-.4.7-.4 1.2c-.05.04 0 .1 0 .1c0 0-.05-.04 0 0zm8.5 1.3c-.5.5-1.1.8-1.7.8c-.6 0-1-.2-1.4-.6c-.4-.4-.6-.9-.6-1.5c0-.6.2-1.1.5-1.6c.4-.4.9-.6 1.4-.6c.6 0 1 .2 1.4.6c.3.4.5.9.5 1.6v.1h-3.4c0 .5.2.9.5 1.2c.3.3.7.4 1.1.4c.5 0 1-.2 1.4-.6c.01-.01.3.2.3.2c0 0-.02.03 0 0zM41.4 59h3c-.1-.5-.2-.9-.5-1.2c-.2-.3-.5-.4-1-.4c-.4 0-.7.1-1 .4c-.3.3-.5.7-.5 1.2zm6.6 2.1c-.2.1-.5.2-.7.2c-.3 0-.6-.1-.8-.3c-.2-.2-.3-.5-.3-.8c-.04-.05 0-2.7 0-2.7h-.6v-.4h.6v-1.3h.4v1.3h1.4v.4h-1.4s-.05 2.61 0 2.6c0 .5.2.8.8.8c.2 0 .4 0 .6-.1c-.03-.04 0 .3 0 .3c0 0-.03.03 0 0zm3.9-.6c-.3.5-.9.8-1.5.8c-.4 0-.8-.1-1.1-.3c-.3-.3-.5-.6-.5-1c0-.4.2-.7.5-1c.3-.2.8-.3 1.3-.3c.4 0 .9 0 1.3.1v-.1c0-.4-.1-.7-.3-1c-.2-.2-.6-.3-1-.3c-.4 0-.9.1-1.3.4l-.1-.4c.5-.2.9-.3 1.4-.3c.6 0 1 .1 1.3.4c.3.3.4.7.4 1.2c.03-.04 0 2.5 0 2.5h-.4v-.7s.04.02 0 0zm-1.5.4c.4 0 .8-.1 1.1-.3c.3-.3.5-.6.5-.9v-.5c-.5-.1-1-.2-1.4-.2c-.5 0-.8.1-1 .3c-.3.2-.4.4-.4.7c0 .3.1.5.4.7c.2.1.5.2.8.2zm7.1.4c-.7 0-1.2-.2-1.7-.6l.2-.3c.5.3 1 .5 1.5.5c.3 0 .5-.1.7-.2c.2-.1.3-.3.3-.6c0-.1-.1-.2-.1-.3c-.1-.1-.2-.1-.3-.2c-.1-.1-.2-.1-.3-.2c-.1 0-.2 0-.4-.1c-.2 0-.3-.1-.4-.1c-.1 0-.2-.1-.4-.2c-.1 0-.3-.1-.3-.2c-.1 0-.2-.1-.2-.2c-.1-.1-.1-.3-.1-.4c0-.4.1-.6.4-.8c.2-.3.5-.4.9-.4c.6 0 1 .2 1.5.5l-.2.3c-.4-.3-.9-.4-1.3-.4c-.3 0-.5.1-.7.2c-.1.1-.2.3-.2.5c0 .1 0 .2.1.3c0 .1.1.2.2.2c.2.1.3.2.4.2c.1 0 .2.1.4.1c.2.1.4.1.5.2c.1 0 .3.1.4.2c.2.1.3.2.4.3c0 .2.1.3.1.5c0 .3-.2.6-.4.9c-.3.2-.6.3-1 .3zm5.6-.9c-.3.6-.8.9-1.4.9c-.5 0-.9-.2-1.2-.5c-.3-.3-.5-.7-.5-1.2c.03.02 0-2.5 0-2.5h.4s.02 2.44 0 2.4c0 .5.1.8.4 1.1c.2.2.5.3.9.3c.4 0 .8-.1 1-.4c.3-.2.4-.6.4-1c.04-.02 0-2.4 0-2.4h.4v4.1h-.4v-.8s.04.04 0 0zm-.9-4v-.6h.5v.6h-.5zm-1.4 0v-.6h.6v.6h-.6zm3.9 4.8v-.2l3-3.5h-2.9v-.4h3.5v.2l-3 3.5h3v.4h-3.6zm7.8-.8c-.4.6-.9.9-1.5.9c-.5 0-.9-.2-1.2-.5c-.3-.3-.4-.7-.4-1.2c-.03.02 0-2.5 0-2.5h.4s-.04 2.44 0 2.4c0 .5.1.8.3 1.1c.2.2.5.3 1 .3c.4 0 .7-.1 1-.4c.2-.2.4-.6.4-1c-.03-.02 0-2.4 0-2.4h.4v4.1h-.4v-.8s-.03.04 0 0zm-1-4v-.6h.5v.6h-.5zm-1.3 0v-.6h.5v.6h-.5zm4.2 4.8v-5.8h.4v5.8h-.4zm5-.8c-.4.6-.9.9-1.5.9c-.5 0-.9-.2-1.2-.5c-.3-.3-.4-.7-.4-1.2c-.04.02 0-2.5 0-2.5h.4s-.05 2.44 0 2.4c0 .5.1.8.3 1.1c.2.2.5.3 1 .3c.4 0 .7-.1 1-.4c.2-.2.4-.6.4-1c-.03-.02 0-2.4 0-2.4h.4v4.1h-.4v-.8s-.03.04 0 0zm-1-4v-.6h.5v.6h-.5zm-1.3 0v-.6h.5v.6h-.5zm4.1 4.8v-4.1h.4s.04 1.18 0 1.2c.2-.4.5-.7.8-.9c.3-.2.6-.4 1-.3c.05-.04 0 .4 0 .4c0 0 .01-.01 0 0c-.5 0-.9.2-1.2.5c-.4.4-.6.9-.6 1.5c.04.03 0 1.7 0 1.7h-.4zm3.2 0v-5.8h.4v4.3l2.6-2.6h.5l-1.8 1.8l1.8 2.3h-.5l-1.6-2l-1 1v1h-.4zm7.7-.7c-.4.5-1 .8-1.7.8c-.5 0-1-.2-1.4-.6c-.4-.4-.6-.9-.6-1.5c0-.6.2-1.1.6-1.6c.4-.4.8-.6 1.4-.6c.5 0 1 .2 1.3.6c.4.4.6.9.6 1.6c0 0 0 .1-.1.1h-3.3c0 .5.2.9.5 1.2c.3.3.6.4 1.1.4c.5 0 1-.2 1.4-.6c-.04-.01.2.2.2.2c0 0 .03.03 0 0zM88.9 59h2.9c0-.5-.1-.9-.4-1.2c-.2-.3-.6-.4-1-.4c-.4 0-.8.1-1.1.4c-.2.3-.4.7-.4 1.2zm4.5 2.2v-4.1h.4v.8c.3-.6.8-.9 1.5-.9c.5 0 .9.2 1.2.5c.2.3.4.7.4 1.2c-.01 0 0 2.5 0 2.5h-.4v-2.4c0-.5-.1-.8-.3-1c-.3-.3-.6-.4-1-.4c-.4 0-.7.1-1 .4c-.3.3-.4.6-.4 1v2.4h-.4zm9-.4l1.5-3.7h.4s-1.74 4.24-1.7 4.2c-.2.5-.4.8-.6.9c-.2.2-.5.3-.8.3c-.3 0-.5-.1-.8-.2l.1-.3c.2.1.5.1.7.1c.2 0 .4 0 .6-.2c.1-.1.3-.4.4-.7c.03-.02-1.9-4.1-1.9-4.1h.4l1.7 3.7zm6-.4c-.3.6-.8.9-1.4.9c-.5 0-.9-.2-1.2-.5c-.3-.3-.5-.7-.5-1.2c.03.02 0-2.5 0-2.5h.4s.02 2.44 0 2.4c0 .5.1.8.4 1.1c.2.2.5.3.9.3c.4 0 .8-.1 1-.4c.3-.2.4-.6.4-1c.03-.02 0-2.4 0-2.4h.4v4.1h-.4v-.8s.03.04 0 0zm1.9.8v-4.1h.4v.7c.3-.5.8-.8 1.4-.8c.6 0 1.1.3 1.3.9c.4-.6.9-.9 1.5-.9c.5 0 .9.2 1.2.5c.2.3.4.7.4 1.2c-.02.03 0 2.5 0 2.5h-.4v-2.4c0-.5-.1-.8-.3-1.1c-.2-.2-.5-.3-.9-.3c-.4 0-.7.1-.9.4c-.3.2-.4.6-.4 1v2.4h-.4v-2.4c0-.5-.1-.8-.3-1.1c-.2-.2-.5-.3-.9-.3c-.4 0-.7.1-.9.4c-.3.3-.4.6-.4 1v2.4h-.4zm10.6-.8c-.3.6-.8.9-1.5.9c-.5 0-.9-.2-1.2-.5c-.2-.3-.4-.7-.4-1.2c.01.02 0-2.5 0-2.5h.4v2.4c0 .5.1.8.3 1.1c.3.2.6.3 1 .3c.4 0 .7-.1 1-.4c.3-.2.4-.6.4-1v-2.4h.4v4.1h-.4v-.8s.01.04 0 0zm2.7 2l-.4-.2l.6-.9c-.5-.1-1-.3-1.4-.6l.3-.3c.4.3.9.5 1.4.5c.3 0 .6-.1.7-.2c.2-.1.3-.3.3-.6c0-.1 0-.2-.1-.3c0-.1-.1-.1-.2-.2c-.1-.1-.2-.1-.3-.2c-.1 0-.3 0-.5-.1c-.2 0-.3-.1-.4-.1c-.1 0-.2-.1-.3-.2c-.2 0-.3-.1-.4-.2l-.2-.2c0-.1-.1-.3-.1-.4c0-.4.2-.6.4-.8c.3-.3.6-.4 1-.4c.5 0 1 .2 1.4.5l-.2.3c-.4-.3-.8-.4-1.2-.4c-.3 0-.5.1-.7.2c-.2.1-.3.3-.3.5c0 .1.1.2.1.3c.1.1.2.2.3.2c.1.1.2.2.3.2c.1 0 .3.1.5.1c.2.1.3.1.5.2c.1 0 .2.1.4.2l.3.3c.1.2.1.3.1.5c0 .3-.1.6-.4.8c-.2.3-.5.4-.9.4c-.02-.02-.6 1.1-.6 1.1zm6-1.9c-.4.5-.9.8-1.6.8c-.4 0-.8-.1-1.1-.3c-.3-.3-.5-.6-.5-1c0-.4.2-.7.5-1c.3-.2.8-.3 1.3-.3c.5 0 .9 0 1.4.1v-.1c0-.4-.2-.7-.4-1c-.2-.2-.6-.3-1-.3c-.4 0-.8.1-1.3.4l-.1-.4c.5-.2 1-.3 1.4-.3c.6 0 1 .1 1.3.4c.3.3.5.7.5 1.2c-.05-.04 0 2.5 0 2.5h-.4v-.7s-.03.02 0 0zm-1.6.4c.5 0 .8-.1 1.1-.3c.3-.3.5-.6.5-.9v-.5c-.5-.1-1-.2-1.4-.2c-.4 0-.8.1-1 .3c-.2.2-.4.4-.4.7c0 .3.2.5.4.7c.2.1.5.2.8.2zm3.4.3v-5.8h.4v4.3l2.5-2.6h.5l-1.8 1.8l1.9 2.3h-.5l-1.7-2l-.9 1v1h-.4zm8.9.1c-.7 0-1.2-.3-1.7-1c.03.02 0 .9 0 .9h-.4v-5.8h.4s.03 2.63 0 2.6c.5-.6 1-1 1.7-1c.5 0 1 .2 1.4.6c.4.4.6.9.6 1.5v.1c0 .6-.2 1.1-.6 1.5c-.4.4-.9.6-1.4.6zm0-.4c.4 0 .8-.1 1.1-.5c.3-.3.5-.7.5-1.2c0-.6-.2-1-.5-1.3c-.3-.3-.7-.5-1.1-.5c-.5 0-.9.2-1.2.5c-.3.3-.5.7-.5 1.3c0 .5.2.9.5 1.2c.3.4.7.5 1.2.5zm3.2-4.8v-.6h.5v.6h-.5zm.1 5.1v-4.1h.4v4.1h-.4zm1.9 0v-4.1h.4v1.2c.2-.4.4-.7.7-.9c.4-.2.7-.4 1.1-.3v.4s-.03-.01 0 0c-.5 0-.9.2-1.3.5c-.3.4-.5.9-.5 1.5v1.7h-.4zm6.9.1c-.6 0-1.1-.2-1.6-.6l.2-.3c.5.3.9.5 1.5.5c.2 0 .5-.1.7-.2c.1-.1.2-.3.2-.6v-.3c-.1-.1-.2-.1-.3-.2c-.1-.1-.2-.1-.3-.2c-.1 0-.3 0-.4-.1c-.2 0-.4-.1-.5-.1c0 0-.2-.1-.3-.2c-.2 0-.3-.1-.4-.2l-.2-.2v-.4c0-.4.1-.6.3-.8c.3-.3.6-.4 1-.4c.5 0 1 .2 1.4.5l-.2.3c-.4-.3-.8-.4-1.2-.4c-.3 0-.5.1-.7.2c-.2.1-.2.3-.2.5v.3c.1.1.2.2.3.2c.2.1.3.2.4.2c.1 0 .2.1.4.1c.2.1.4.1.5.2c.1 0 .3.1.4.2c.1.1.3.2.3.3c.1.2.1.3.1.5c0 .3-.1.6-.4.9c-.2.2-.6.3-1 .3zm2.7-.1v-4.1h.4v4.1h-.4zm5.4-.7c-.4.5-1 .8-1.6.8c-.6 0-1.1-.2-1.5-.6c-.4-.5-.6-.9-.6-1.5c0-.6.2-1.1.6-1.5c.4-.5.9-.7 1.5-.7c.6 0 1.1.3 1.6.8l-.3.3c-.4-.5-.9-.7-1.3-.7c-.5 0-.9.2-1.2.5c-.3.3-.5.8-.5 1.2v.1c0 .5.2.9.5 1.2c.3.4.7.5 1.2.5c.5 0 1-.2 1.4-.7c-.03.05.2.3.2.3c0 0 .04-.01 0 0zm3.9 0c-.3.5-.9.8-1.5.8c-.4 0-.8-.1-1.1-.3c-.3-.3-.5-.6-.5-1c0-.4.2-.7.5-1c.3-.2.8-.3 1.3-.3c.5 0 .9 0 1.3.1v-.1c0-.4-.1-.7-.3-1c-.2-.2-.6-.3-1-.3c-.4 0-.9.1-1.3.4l-.1-.4c.5-.2.9-.3 1.4-.3c.6 0 1 .1 1.3.4c.3.3.4.7.4 1.2c.03-.04 0 2.5 0 2.5h-.4v-.7s.05.02 0 0zm-1.5.4c.4 0 .8-.1 1.1-.3c.3-.3.5-.6.5-.9v-.5c-.5-.1-1-.2-1.4-.2c-.5 0-.8.1-1 .3c-.3.2-.4.4-.4.7c0 .3.1.5.4.7c.2.1.5.2.8.2zm3.3.3v-5.8h.4v4.3l2.6-2.6h.5l-1.8 1.8l1.8 2.3h-.5l-1.6-2l-1 1v1h-.4zm4.6 0v-5.8h.4v5.8h-.4zm2 0v-4.1h.4v4.1h-.4zm1.9 0v-5.8h.4v4.3l2.5-2.6h.5l-1.7 1.8l1.8 2.3h-.5l-1.6-2l-1 1v1h-.4zm8.6-.4l1.5-3.7h.4s-1.76 4.24-1.8 4.2c-.1.5-.3.8-.6.9c-.2.2-.4.3-.7.3c-.3 0-.6-.1-.8-.2l.1-.3c.2.1.4.1.7.1c.2 0 .4 0 .6-.2c.1-.1.3-.4.4-.7c.01-.02-2-4.1-2-4.1h.5l1.7 3.7zm5.6-.3c-.4.5-.9.8-1.6.8c-.4 0-.8-.1-1.1-.3c-.3-.3-.5-.6-.5-1c0-.4.2-.7.5-1c.4-.2.8-.3 1.3-.3c.5 0 .9 0 1.4.1v-.1c0-.4-.1-.7-.4-1c-.2-.2-.5-.3-1-.3c-.4 0-.8.1-1.2.4l-.2-.4c.5-.2 1-.3 1.5-.3c.5 0 1 .1 1.3.4c.2.3.4.7.4 1.2c-.03-.04 0 2.5 0 2.5h-.4v-.7s-.01.02 0 0zm-1.6.4c.5 0 .8-.1 1.1-.3c.3-.3.5-.6.5-.9v-.5c-.5-.1-.9-.2-1.4-.2c-.4 0-.7.1-1 .3c-.2.2-.3.4-.3.7c0 .3.1.5.3.7c.2.1.5.2.8.2zm4.9-.1l1.5-3.7h.4s-1.73 4.24-1.7 4.2c-.2.5-.4.8-.6.9c-.2.2-.5.3-.8.3c-.3 0-.5-.1-.8-.2l.1-.3c.2.1.5.1.7.1c.3 0 .4 0 .6-.2c.1-.1.3-.4.4-.7c.05-.02-1.9-4.1-1.9-4.1h.4l1.7 3.7zm5.6-.3c-.4.5-.9.8-1.5.8c-.5 0-.8-.1-1.1-.3c-.4-.3-.5-.6-.5-1c0-.4.1-.7.5-1c.3-.2.7-.3 1.3-.3c.4 0 .9 0 1.3.1v-.1c0-.4-.1-.7-.3-1c-.3-.2-.6-.3-1-.3c-.4 0-.9.1-1.3.4l-.1-.4c.4-.2.9-.3 1.4-.3c.6 0 1 .1 1.3.4c.3.3.4.7.4 1.2c.01-.04 0 2.5 0 2.5h-.4v-.7s.02.02 0 0zm-1.5.4c.4 0 .8-.1 1.1-.3c.3-.3.4-.6.4-.9v-.5c-.5-.1-.9-.2-1.4-.2c-.4 0-.7.1-.9.3c-.3.2-.4.4-.4.7c0 .3.1.5.3.7c.3.1.6.2.9.2zm3.3.3v-4.1h.4v1.2c.2-.4.4-.7.7-.9c.4-.2.7-.4 1.1-.3v.4s-.03-.01 0 0c-.5 0-.9.2-1.3.5c-.3.4-.5.9-.5 1.5c.01.03 0 1.7 0 1.7h-.4zm2.3.9l-.1-.2c.1-.1.3-.2.3-.3c.1-.1.1-.2.1-.4h-.2v-.7h.5s.03.61 0 .6c0 .3 0 .5-.1.6c-.1.1-.3.3-.5.4z" stroke="none" fill="#000"/></g><g id="Polygon365974"><path d="m2.8 49.3c-.7 0-1.2-.3-1.7-1c.04.02 0 .9 0 .9h-.4v-5.8h.4s.04 2.63 0 2.6c.5-.6 1-1 1.7-1c.5 0 1 .2 1.4.6c.4.4.6.9.6 1.5v.1c0 .6-.2 1.1-.6 1.5c-.4.4-.9.6-1.4.6zm0-.4c.4 0 .8-.1 1.1-.5c.3-.3.5-.7.5-1.2c0-.6-.2-1-.5-1.3c-.3-.3-.7-.5-1.1-.5c-.5 0-.9.2-1.2.5c-.3.3-.5.7-.5 1.3c0 .5.2.9.5 1.2c.3.4.7.5 1.2.5zm6.2-.5c-.3.6-.8.9-1.4.9c-.5 0-.9-.2-1.2-.5c-.3-.3-.5-.7-.5-1.2c.04.02 0-2.5 0-2.5h.4s.04 2.44 0 2.4c0 .5.1.8.4 1.1c.2.2.5.3.9.3c.4 0 .8-.1 1-.4c.3-.2.4-.6.4-1c.05-.02 0-2.4 0-2.4h.4v4.1h-.4v-.8s.05.04 0 0zm8.2-1.2c0 .5-.2 1-.6 1.5c-.4.4-.9.6-1.5.6c-.6 0-1.1-.2-1.5-.6c-.4-.4-.6-.9-.6-1.5c0-.6.2-1.1.7-1.5c.4-.5.9-.7 1.5-.7c.5 0 1 .2 1.4.6c.4.5.6 1 .6 1.5c.04.04 0 .1 0 .1c0 0 .04-.04 0 0zm-2 1.7c.4 0 .8-.1 1.1-.5c.4-.3.5-.7.5-1.2c0-.5-.1-1-.5-1.3c-.3-.3-.7-.5-1.2-.5c-.4 0-.8.2-1.2.5c-.3.3-.4.8-.4 1.2v.1c0 .5.1.9.5 1.2c.3.4.7.5 1.2.5zm.3-4.5v-.6h.6v.6h-.6zm-1.3 0v-.6h.6v.6h-.6zm3.8 4.8v-.2l3-3.5h-2.9v-.4h3.4v.2l-2.9 3.5h2.9v.4H18zm8-.7c-.5.5-1 .8-1.7.8c-.5 0-1-.2-1.4-.6c-.4-.4-.6-.9-.6-1.5c0-.6.2-1.1.6-1.6c.3-.4.8-.6 1.4-.6c.5 0 1 .2 1.3.6c.4.4.5.9.5 1.6v.1h-3.4c.1.5.2.9.5 1.2c.4.3.7.4 1.1.4c.6 0 1-.2 1.4-.6c.04-.01.3.2.3.2c0 0 .01.03 0 0zM22.7 47h3c0-.5-.2-.9-.4-1.2c-.3-.3-.6-.4-1.1-.4c-.4 0-.7.1-1 .4c-.3.3-.4.7-.5 1.2zm4.6 2.2v-5.8h.4v5.8h-.4zm2 0v-5.8h.4v5.8h-.4zm2-5.1v-.6h.5v.6h-.5zm0 5.1v-4.1h.4v4.1h-.4zm1.9 0v-5.8h.4v4.3l2.6-2.6h.5l-1.8 1.8l1.8 2.3h-.5l-1.6-2l-1 1v1h-.4zm7.8 1.2l-.5-.2s.66-.94.7-.9c-.6-.1-1-.3-1.4-.6l.2-.3c.5.3 1 .5 1.5.5c.3 0 .5-.1.7-.2c.2-.1.3-.3.3-.6c0-.1-.1-.2-.1-.3c-.1-.1-.2-.1-.3-.2c-.1-.1-.2-.1-.3-.2c-.1 0-.2 0-.4-.1c-.2 0-.4-.1-.4-.1c-.1 0-.2-.1-.4-.2c-.2 0-.3-.1-.3-.2c-.1 0-.2-.1-.2-.2c-.1-.1-.1-.3-.1-.4c0-.4.1-.6.4-.8c.2-.3.5-.4.9-.4c.5 0 1 .2 1.5.5l-.2.3c-.5-.3-.9-.4-1.3-.4c-.3 0-.5.1-.7.2c-.1.1-.2.3-.2.5c0 .1 0 .2.1.3c0 .1.1.2.2.2c.2.1.3.2.4.2c.1 0 .2.1.4.1c.2.1.4.1.5.2c.1 0 .3.1.4.2c.2.1.3.2.3.3c.1.2.2.3.2.5c0 .3-.2.6-.4.8c-.3.3-.6.4-1 .4l-.5 1.1zm7-3.2c0 .5-.2 1-.6 1.5c-.4.4-.9.6-1.5.6c-.6 0-1.1-.2-1.5-.6c-.4-.4-.6-.9-.6-1.5c0-.6.2-1.1.6-1.5c.4-.5.9-.7 1.5-.7c.6 0 1.1.2 1.5.6c.4.5.6 1 .6 1.5c.02.04 0 .1 0 .1c0 0 .02-.04 0 0zm-2.1 1.7c.5 0 .9-.1 1.2-.5c.3-.3.5-.7.5-1.2c0-.5-.2-1-.5-1.3c-.3-.3-.7-.5-1.2-.5c-.5 0-.9.2-1.2.5c-.3.3-.5.8-.5 1.2v.1c0 .5.2.9.5 1.2c.4.4.8.5 1.2.5zm.4-4.5v-.6h.5v.6h-.5zm-1.3 0v-.6h.5v.6h-.5zm4.2 4.8v-4.1h.4s.02.75 0 .7c.3-.5.8-.8 1.4-.8c.6 0 1.1.3 1.4.9c.3-.6.8-.9 1.4-.9c.5 0 .9.2 1.2.5c.2.3.4.7.4 1.2c-.01.03 0 2.5 0 2.5h-.4v-2.4c0-.5-.1-.8-.3-1.1c-.2-.2-.5-.3-.9-.3c-.4 0-.7.1-.9.4c-.3.2-.4.6-.4 1v2.4h-.4v-2.4c0-.5-.1-.8-.3-1.1c-.2-.2-.5-.3-.9-.3c-.3 0-.7.1-.9.4c-.3.3-.4.6-.4 1c.02.05 0 2.4 0 2.4h-.4zm7.6-5.1v-.6h.5v.6h-.5zm.1 5.1v-4.1h.3v4.1h-.3zm1.9 0v-4.1h.4s-.02.78 0 .8c.3-.6.8-.9 1.5-.9c.5 0 .9.2 1.2.5c.2.3.4.7.4 1.2c-.01 0 0 2.5 0 2.5h-.4v-2.4c0-.5-.1-.8-.3-1c-.3-.3-.6-.4-1-.4c-.4 0-.7.1-1 .4c-.3.3-.4.6-.4 1c-.02.04 0 2.4 0 2.4h-.4zm8.3-.7c-.5.5-1 .8-1.7.8c-.5 0-1-.2-1.4-.6c-.4-.4-.6-.9-.6-1.5c0-.6.2-1.1.6-1.6c.3-.4.8-.6 1.4-.6c.5 0 1 .2 1.3.6c.4.4.5.9.5 1.6v.1h-3.4c.1.5.2.9.5 1.2c.4.3.7.4 1.1.4c.6 0 1-.2 1.4-.6c.03-.01.3.2.3.2c0 0 0 .03 0 0zM63.8 47h3c0-.5-.2-.9-.4-1.2c-.3-.3-.6-.4-1.1-.4c-.4 0-.7.1-1 .4c-.3.3-.4.7-.5 1.2zm6.1 1.8l1.5-3.7h.4s-1.78 4.24-1.8 4.2c-.2.5-.3.8-.6.9c-.2.2-.4.3-.7.3c-.3 0-.6-.1-.8-.2l.1-.3c.2.1.4.1.7.1c.2 0 .4 0 .5-.2c.2-.1.3-.4.5-.7l-2-4.1h.5l1.7 3.7zm3-4.7v-.6h.5v.6h-.5zm0 5.1v-4.1h.4v4.1h-.4zm4.4 0v-5.8h.4s-.04 2.48 0 2.5c.3-.6.8-.9 1.4-.9c.5 0 .9.2 1.2.5c.3.3.5.7.5 1.2c-.04 0 0 2.5 0 2.5h-.4s-.03-2.42 0-2.4c0-.5-.1-.8-.4-1c-.2-.3-.5-.4-.9-.4c-.4 0-.8.1-1 .4c-.3.3-.4.6-.4 1c-.04.04 0 2.4 0 2.4h-.4zm7.7-.7c-.4.5-.9.8-1.6.8c-.4 0-.8-.1-1.1-.3c-.3-.3-.5-.6-.5-1c0-.4.2-.7.5-1c.3-.2.8-.3 1.3-.3c.5 0 .9 0 1.4.1v-.1c0-.4-.2-.7-.4-1c-.2-.2-.6-.3-1-.3c-.4 0-.8.1-1.3.4l-.1-.4c.5-.2 1-.3 1.4-.3c.6 0 1 .1 1.3.4c.3.3.5.7.5 1.2c-.05-.04 0 2.5 0 2.5h-.4v-.7s-.03.02 0 0zm-1.6.4c.5 0 .8-.1 1.1-.3c.3-.3.5-.6.5-.9v-.5c-.5-.1-1-.2-1.4-.2c-.4 0-.8.1-1 .3c-.2.2-.4.4-.4.7c0 .3.2.5.4.7c.2.1.5.2.8.2zm3.6.3v-3.7h-.6v-.4h.6v-.4c0-.4.1-.8.4-1c.2-.3.5-.4.8-.4c.2 0 .4.1.6.1v.4c-.2-.1-.4-.1-.6-.1c-.5 0-.8.3-.8 1v.4h1.4v.4h-1.4v3.7h-.4zm2.7 0v-4.1h.4v4.1h-.4zm0-5.1v-.6h.5v.6h-.5zm2.2 5.1v-3.7h-.6v-.4h.6v-.4c0-.4.1-.8.3-1c.3-.3.5-.4.9-.4c.2 0 .4.1.6.1v.4c-.2-.1-.4-.1-.6-.1c-.5 0-.8.3-.8 1c-.02.03 0 .4 0 .4h1.4v.4h-1.4v3.7h-.4zm6.5 0l-1.9-4.1h.5l1.5 3.7l1.6-3.7h.4l-1.8 4.1h-.3zm6.4-.7c-.5.5-1.1.8-1.7.8c-.6 0-1-.2-1.4-.6c-.4-.4-.6-.9-.6-1.5c0-.6.2-1.1.5-1.6c.4-.4.9-.6 1.4-.6c.6 0 1 .2 1.4.6c.3.4.5.9.5 1.6v.1h-3.4c0 .5.2.9.5 1.2c.3.3.7.4 1.1.4c.5 0 1-.2 1.4-.6l.3.2s-.03.03 0 0zm-3.3-1.5h3c-.1-.5-.2-.9-.5-1.2c-.2-.3-.6-.4-1-.4c-.4 0-.7.1-1 .4c-.3.3-.5.7-.5 1.2zm6.7 2.2v-.2l2.9-3.5h-2.8v-.4h3.4v.2l-3 3.5h3v.4h-3.5zm7.5-.7c-.4.5-.9.8-1.6.8c-.4 0-.8-.1-1.1-.3c-.3-.3-.5-.6-.5-1c0-.4.2-.7.5-1c.3-.2.8-.3 1.3-.3c.5 0 .9 0 1.4.1v-.1c0-.4-.2-.7-.4-1c-.2-.2-.6-.3-1-.3c-.4 0-.8.1-1.3.4l-.1-.4c.5-.2 1-.3 1.4-.3c.6 0 1 .1 1.3.4c.3.3.4.7.4 1.2c.05-.04 0 2.5 0 2.5h-.3v-.7s-.04.02 0 0zm-1.6.4c.5 0 .8-.1 1.1-.3c.3-.3.5-.6.5-.9v-.5c-.5-.1-1-.2-1.4-.2c-.4 0-.8.1-1 .3c-.2.2-.4.4-.4.7c0 .3.2.5.4.7c.2.1.5.2.8.2zm3.4.3v-4.1h.3s.05 1.18 0 1.2c.2-.4.5-.7.8-.9c.3-.2.7-.4 1.1-.3c-.05-.04 0 .4 0 .4h-.1c-.5 0-.9.2-1.2.5c-.4.4-.6.9-.6 1.5c.05.03 0 1.7 0 1.7h-.3zm3.2-5.1v-.6h.5v.6h-.5zm0 5.1v-4.1h.4v4.1h-.4zm2.2 0v-3.7h-.6v-.4h.6v-.4c0-.4.1-.8.3-1c.3-.3.5-.4.9-.4c.2 0 .4.1.6.1v.4c-.2-.1-.4-.1-.6-.1c-.5 0-.8.3-.8 1c-.02.03 0 .4 0 .4h1.4v.4h-1.4v3.7h-.4zm8.3.8c-.3.3-.8.5-1.5.5c-.7 0-1.3-.2-1.8-.6l.2-.3c.5.3 1 .5 1.6.5c.5 0 .9-.1 1.2-.4c.3-.3.4-.6.4-1.2v-.5c-.4.6-1 .9-1.7.9c-.5 0-.9-.2-1.3-.5c-.4-.4-.6-.9-.6-1.4c0-.6.2-1.1.6-1.4c.4-.4.8-.6 1.3-.6c.7 0 1.3.3 1.7.9c.04.04 0-.8 0-.8h.4s.03 3.47 0 3.5c0 .5-.1 1-.5 1.4zm-1.5-1.5c.4 0 .8-.1 1.2-.4c.3-.3.5-.7.5-1.1c0-.5-.2-.9-.5-1.2c-.4-.3-.8-.4-1.2-.4c-.5 0-.8.1-1.1.4c-.3.3-.5.7-.5 1.1v.1c0 .4.2.8.5 1.1c.3.3.6.4 1.1.4zm7.4-1.3c0 .5-.2 1-.6 1.5c-.4.4-.9.6-1.5.6c-.6 0-1.1-.2-1.5-.6c-.4-.4-.6-.9-.6-1.5c0-.6.2-1.1.6-1.5c.4-.5.9-.7 1.5-.7c.6 0 1.1.2 1.5.6c.4.5.6 1 .6 1.5c.03.04 0 .1 0 .1c0 0 .03-.04 0 0zm-2.1 1.7c.5 0 .9-.1 1.2-.5c.4-.3.5-.7.5-1.2c0-.5-.2-1-.5-1.3c-.3-.3-.7-.5-1.2-.5c-.4 0-.8.2-1.2.5c-.3.3-.4.8-.4 1.2v.1c0 .5.1.9.5 1.2c.3.4.7.5 1.1.5zm.4-4.5v-.6h.6v.6h-.6zm-1.3 0v-.6h.6v.6h-.6zm5.6 4.9c-.7 0-1.2-.2-1.7-.6l.2-.3c.5.3 1 .5 1.5.5c.3 0 .5-.1.7-.2c.2-.1.3-.3.3-.6c0-.1-.1-.2-.1-.3c-.1-.1-.1-.1-.3-.2c-.1-.1-.2-.1-.3-.2c-.1 0-.2 0-.4-.1c-.2 0-.3-.1-.4-.1c-.1 0-.2-.1-.4-.2c-.1 0-.3-.1-.3-.2c-.1 0-.2-.1-.2-.2c-.1-.1-.1-.3-.1-.4c0-.4.1-.6.4-.8c.2-.3.5-.4.9-.4c.6 0 1 .2 1.5.5l-.2.3c-.4-.3-.9-.4-1.3-.4c-.3 0-.5.1-.7.2c-.1.1-.2.3-.2.5c0 .1 0 .2.1.3c0 .1.1.2.3.2c.1.1.2.2.3.2c.1 0 .2.1.4.1c.2.1.4.1.5.2c.2 0 .3.1.4.2c.2.1.3.2.4.3c0 .2.1.3.1.5c0 .3-.2.6-.4.9c-.3.2-.6.3-1 .3zm4.6-.2c-.3.1-.5.2-.7.2c-.3 0-.6-.1-.8-.3c-.2-.2-.3-.5-.3-.8c-.05-.05 0-2.7 0-2.7h-.6v-.4h.6v-1.3h.3v1.3h1.5v.4h-1.5s.05 2.61 0 2.6c0 .5.3.8.9.8c.1 0 .3 0 .6-.1c-.04-.04 0 .3 0 .3c0 0-.04.03 0 0zm4.4-.6c-.4.5-1 .8-1.7.8c-.5 0-1-.2-1.4-.6c-.4-.4-.6-.9-.6-1.5c0-.6.2-1.1.6-1.6c.4-.4.8-.6 1.4-.6c.5 0 1 .2 1.3.6c.4.4.5.9.5 1.6v.1h-3.3c0 .5.2.9.5 1.2c.3.3.6.4 1.1.4c.5 0 .9-.2 1.4-.6c-.05-.01.2.2.2.2c0 0 .03.03 0 0zm-3.2-1.5h2.9c0-.5-.2-.9-.4-1.2c-.3-.3-.6-.4-1-.4c-.4 0-.8.1-1.1.4c-.3.3-.4.7-.4 1.2zm4.5 2.2v-4.1h.4s-.02 1.18 0 1.2c.2-.4.4-.7.7-.9c.3-.2.7-.4 1.1-.3v.4h-.1c-.4 0-.9.2-1.2.5c-.3.4-.5.9-.5 1.5c-.02.03 0 1.7 0 1.7h-.4zm3.2-5.1v-.6h.5v.6h-.5zm0 5.1v-4.1h.4v4.1h-.4zm2 0v-4.1h.4s-.03 1.18 0 1.2c.1-.4.4-.7.7-.9c.3-.2.7-.4 1.1-.3c-.02-.04 0 .4 0 .4h-.1c-.5 0-.9.2-1.2.5c-.4.4-.5.9-.5 1.5c-.03.03 0 1.7 0 1.7h-.4zm2.4 0v-.7h.5v.7h-.5zm4.4 0v-5.6h4v.4h-3.6v2.2h3.2v.4h-3.2v2.2h3.6v.4h-4zm5.3 0v-5.8h.4v5.8h-.4zm2-5.1v-.6h.4v.6h-.4zm0 5.1v-4.1h.4v4.1h-.4zm1.9 1.3v-5.4h.4s.04.93 0 .9c.5-.6 1-1 1.7-1c.5 0 1 .2 1.4.6c.4.4.6.9.6 1.5v.1c0 .6-.2 1.1-.6 1.5c-.4.4-.9.6-1.4.6c-.7 0-1.2-.3-1.7-1c.04.02 0 2.2 0 2.2h-.4zm2.1-1.6c.4 0 .8-.1 1.1-.5c.3-.3.5-.7.5-1.2c0-.6-.2-1-.5-1.3c-.3-.3-.7-.5-1.1-.5c-.5 0-.9.2-1.2.5c-.3.3-.5.7-.5 1.3c0 .5.2.9.5 1.2c.3.4.7.5 1.2.5zm5.2.2c-.2.1-.4.2-.6.2c-.4 0-.6-.1-.8-.3c-.3-.2-.4-.5-.4-.8c.04-.05 0-2.7 0-2.7h-.6v-.4h.6v-1.3h.4v1.3h1.5v.4h-1.5s.03 2.61 0 2.6c0 .5.3.8.8.8c.2 0 .4 0 .6-.1c.05-.04 0 .3 0 .3c0 0 .05.03 0 0zm1.2-5v-.6h.5v.6h-.5zm.1 5.1v-4.1h.4v4.1h-.4zm1.9 0v-5.8h.4v4.3l2.5-2.6h.6l-1.8 1.8l1.8 2.3h-.5l-1.6-2l-1 1v1h-.4zm6.9 0v-5.8h.4v4.3l2.5-2.6h.5l-1.7 1.8l1.8 2.3h-.5l-1.6-2l-1 1v1h-.4zm7.4-.8c-.3.6-.8.9-1.5.9c-.5 0-.9-.2-1.1-.5c-.3-.3-.5-.7-.5-1.2c.02.02 0-2.5 0-2.5h.4v2.4c0 .5.1.8.3 1.1c.3.2.6.3 1 .3c.4 0 .7-.1 1-.4c.3-.2.4-.6.4-1c.02-.02 0-2.4 0-2.4h.4v4.1h-.4v-.8s.02.04 0 0zm4 .9c-.7 0-1.3-.3-1.7-1c-.01.02 0 .9 0 .9h-.4v-5.8h.4v2.6c.4-.6 1-1 1.7-1c.5 0 1 .2 1.4.6c.4.4.6.9.6 1.5v.1c0 .6-.2 1.1-.6 1.5c-.4.4-.9.6-1.4.6zm-.1-.4c.5 0 .9-.1 1.2-.5c.3-.3.4-.7.4-1.2c0-.6-.1-1-.4-1.3c-.3-.3-.7-.5-1.2-.5c-.4 0-.8.2-1.1.5c-.4.3-.5.7-.5 1.3c0 .5.1.9.5 1.2c.3.4.7.5 1.1.5zm5.4.4c-.7 0-1.3-.3-1.7-1c-.03.02 0 .9 0 .9h-.4v-5.8h.4s-.03 2.63 0 2.6c.4-.6 1-1 1.7-1c.5 0 .9.2 1.3.6c.4.4.6.9.6 1.5v.1c0 .6-.2 1.1-.6 1.5c-.4.4-.8.6-1.3.6zm-.1-.4c.5 0 .9-.1 1.2-.5c.3-.3.4-.7.4-1.2c0-.6-.1-1-.5-1.3c-.3-.3-.6-.5-1.1-.5c-.4 0-.8.2-1.2.5c-.3.3-.5.7-.5 1.3c0 .5.2.9.5 1.2c.4.4.8.5 1.2.5zm6.7-.4c-.5.5-1.1.8-1.7.8c-.6 0-1-.2-1.4-.6c-.4-.4-.6-.9-.6-1.5c0-.6.2-1.1.5-1.6c.4-.4.9-.6 1.4-.6c.6 0 1 .2 1.4.6c.3.4.5.9.5 1.6v.1h-3.4c0 .5.2.9.5 1.2c.3.3.7.4 1.1.4c.5 0 1-.2 1.4-.6l.3.2s-.03.03 0 0zm-3.3-1.5h3c-.1-.5-.2-.9-.5-1.2c-.2-.3-.6-.4-1-.4c-.4 0-.7.1-1 .4c-.3.3-.5.7-.5 1.2z" stroke="none" fill="#000"/></g><g id="Polygon365973"><path d="m2.7 37.3c-.8 0-1.6-.3-2.2-.9l.2-.3c.4.3.7.5 1 .6c.3.1.6.2 1.1.2c.4 0 .7-.1 1-.3c.2-.2.4-.5.4-.8c0-.3-.1-.6-.4-.8c-.2-.1-.6-.3-1.2-.4c-.7-.2-1.2-.3-1.5-.6c-.3-.2-.4-.6-.4-1c0-.4.2-.8.5-1.1c.3-.2.8-.4 1.3-.4c.4 0 .7.1 1 .2c.3.1.6.3.9.5l-.2.3c-.5-.4-1.1-.6-1.7-.6c-.4 0-.8.1-1 .3c-.3.2-.4.5-.4.8c0 .3.1.5.4.7c.2.2.6.4 1.2.5c.7.1 1.2.3 1.5.6c.2.2.4.5.4.9v.1c0 .4-.2.8-.5 1.1c-.4.2-.8.4-1.4.4zm3.2-.1v-5.8h.4v4.3l2.5-2.6h.5l-1.8 1.8l1.9 2.3h-.5l-1.7-2l-.9 1v1h-.4zm6.1-.4l1.5-3.7h.4s-1.78 4.24-1.8 4.2c-.2.5-.4.8-.6.9c-.2.2-.4.3-.7.3c-.3 0-.6-.1-.8-.2l.1-.3c.2.1.4.1.7.1c.2 0 .4 0 .5-.2c.2-.1.3-.4.5-.7l-2-4.1h.5l1.7 3.7zm2.1 1.3l-.1-.2c.1-.1.3-.2.3-.3c.1-.1.1-.2.1-.4h-.2v-.7h.5s.03.61 0 .6c0 .3 0 .5-.1.6c-.1.1-.3.3-.5.4zm6.5-.8c-.7 0-1.2-.3-1.7-1c.02.02 0 .9 0 .9h-.4v-5.8h.4s.02 2.63 0 2.6c.5-.6 1-1 1.7-1c.5 0 1 .2 1.4.6c.4.4.6.9.6 1.5v.1c0 .6-.2 1.1-.6 1.5c-.4.4-.9.6-1.4.6zm0-.4c.4 0 .8-.1 1.1-.5c.3-.3.5-.7.5-1.2c0-.6-.2-1-.5-1.3c-.3-.3-.7-.5-1.1-.5c-.5 0-.9.2-1.2.5c-.3.3-.5.7-.5 1.3c0 .5.2.9.5 1.2c.3.4.7.5 1.2.5zm6.6-.4c-.5.5-1 .8-1.7.8c-.5 0-1-.2-1.4-.6c-.4-.4-.6-.9-.6-1.5c0-.6.2-1.1.6-1.6c.4-.4.8-.6 1.4-.6c.5 0 1 .2 1.3.6c.4.4.5.9.5 1.6v.1h-3.4c.1.5.2.9.6 1.2c.3.3.6.4 1 .4c.6 0 1-.2 1.4-.6c.04-.01.3.2.3.2c0 0 .02.03 0 0zM23.9 35h3c0-.5-.2-.9-.4-1.2c-.3-.3-.6-.4-1.1-.4c-.4 0-.7.1-1 .4c-.3.3-.4.7-.5 1.2zm4.6 2.2v-4.1h.4s-.03.78 0 .8c.3-.6.8-.9 1.4-.9c.6 0 .9.2 1.2.5c.3.3.5.7.5 1.2c-.02 0 0 2.5 0 2.5h-.4s-.02-2.42 0-2.4c0-.5-.1-.8-.4-1c-.2-.3-.5-.4-.9-.4c-.4 0-.8.1-1 .4c-.3.3-.4.6-.4 1c-.03.04 0 2.4 0 2.4h-.4zm4.6 0v-.2l2.9-3.5h-2.8v-.4h3.4v.2l-2.9 3.5h2.9v.4h-3.5zm8-.7c-.5.5-1 .8-1.7.8c-.5 0-1-.2-1.4-.6c-.4-.4-.6-.9-.6-1.5c0-.6.2-1.1.6-1.6c.3-.4.8-.6 1.4-.6c.5 0 1 .2 1.3.6c.4.4.5.9.5 1.6v.1h-3.4c.1.5.2.9.5 1.2c.4.3.7.4 1.1.4c.6 0 1-.2 1.4-.6c.03-.01.3.2.3.2c0 0 0 .03 0 0zM37.8 35h3c0-.5-.2-.9-.4-1.2c-.3-.3-.6-.4-1.1-.4c-.4 0-.7.1-1 .4c-.3.3-.4.7-.5 1.2zm4.6 2.2v-4.1h.4s-.04 1.18 0 1.2c.1-.4.4-.7.7-.9c.3-.2.7-.4 1.1-.3c-.03-.04 0 .4 0 .4h-.1c-.5 0-.9.2-1.2.5c-.4.4-.5.9-.5 1.5c-.04.03 0 1.7 0 1.7h-.4zm4.5.1c-.6 0-1.2-.2-1.7-.6l.2-.3c.5.3 1 .5 1.5.5c.3 0 .5-.1.7-.2c.2-.1.3-.3.3-.6c0-.1 0-.2-.1-.3c0-.1-.1-.1-.2-.2c-.2-.1-.3-.1-.4-.2c-.1 0-.2 0-.4-.1c-.2 0-.3-.1-.4-.1c-.1 0-.2-.1-.4-.2c-.1 0-.2-.1-.3-.2c-.1 0-.1-.1-.2-.2c-.1-.1-.1-.3-.1-.4c0-.4.1-.6.4-.8c.2-.3.6-.4 1-.4c.5 0 1 .2 1.4.5l-.2.3c-.4-.3-.8-.4-1.3-.4c-.2 0-.5.1-.6.2c-.2.1-.3.3-.3.5c0 .1 0 .2.1.3c.1.1.1.2.3.2c.1.1.2.2.3.2c.1 0 .3.1.5.1c.2.1.3.1.5.2c.1 0 .2.1.4.2l.3.3c.1.2.1.3.1.5c0 .3-.1.6-.4.9c-.3.2-.6.3-1 .3zm2.7-5.2v-.6h.4v.6h-.4zm0 5.1v-4.1h.4v4.1h-.4zm1.7 0v-.2l2.9-3.5h-2.8v-.4h3.4v.2l-3 3.5h3v.4h-3.5zm9.1-.1c-.2.1-.4.2-.7.2c-.3 0-.6-.1-.8-.3c-.2-.2-.3-.5-.3-.8c-.02-.05 0-2.7 0-2.7h-.6v-.4h.6v-1.3h.4v1.3h1.4v.4H59s-.02 2.61 0 2.6c0 .5.2.8.8.8c.2 0 .4 0 .6-.1v.3s-.01.03 0 0zm4-.6c-.4.5-.9.8-1.6.8c-.4 0-.8-.1-1.1-.3c-.3-.3-.5-.6-.5-1c0-.4.2-.7.5-1c.3-.2.8-.3 1.3-.3c.5 0 .9 0 1.4.1v-.1c0-.4-.2-.7-.4-1c-.2-.2-.6-.3-1-.3c-.4 0-.8.1-1.3.4l-.1-.4c.5-.2 1-.3 1.4-.3c.6 0 1 .1 1.3.4c.3.3.5.7.5 1.2c-.05-.04 0 2.5 0 2.5h-.4v-.7s-.03.02 0 0zm-1.6.4c.5 0 .8-.1 1.1-.3c.3-.3.5-.6.5-.9v-.5c-.5-.1-1-.2-1.4-.2c-.4 0-.8.1-1 .3c-.2.2-.4.4-.4.7c0 .3.2.5.4.7c.2.1.5.2.8.2zm4.6.3l-1.8-4.1h.4l1.6 3.7l1.5-3.7h.5l-1.8 4.1h-.4zm5.9-.7c-.4.5-.9.8-1.6.8c-.4 0-.8-.1-1.1-.3c-.3-.3-.5-.6-.5-1c0-.4.2-.7.5-1c.3-.2.8-.3 1.3-.3c.5 0 .9 0 1.4.1v-.1c0-.4-.2-.7-.4-1c-.2-.2-.6-.3-1-.3c-.4 0-.8.1-1.3.4l-.1-.4c.5-.2 1-.3 1.4-.3c.6 0 1 .1 1.3.4c.3.3.4.7.4 1.2c.04-.04 0 2.5 0 2.5h-.3v-.7s-.04.02 0 0zm-1.6.4c.4 0 .8-.1 1.1-.3c.3-.3.5-.6.5-.9v-.5c-.5-.1-1-.2-1.4-.2c-.4 0-.8.1-1 .3c-.2.2-.4.4-.4.7c0 .3.2.5.4.7c.2.1.5.2.8.2zm3.3.3v-4.1h.4s.04.78 0 .8c.4-.6.9-.9 1.5-.9c.5 0 .9.2 1.2.5c.3.3.4.7.4 1.2c.04 0 0 2.5 0 2.5h-.3s-.05-2.42 0-2.4c0-.5-.2-.8-.4-1c-.2-.3-.5-.4-.9-.4c-.5 0-.8.1-1.1.4c-.2.3-.4.6-.4 1c.04.04 0 2.4 0 2.4h-.4zm10.2-.7c-.4.5-.9.8-1.6.8c-.4 0-.8-.1-1.1-.3c-.3-.3-.5-.6-.5-1c0-.4.2-.7.5-1c.3-.2.8-.3 1.3-.3c.5 0 .9 0 1.4.1v-.1c0-.4-.2-.7-.4-1c-.2-.2-.6-.3-1-.3c-.4 0-.8.1-1.3.4l-.1-.4c.5-.2 1-.3 1.4-.3c.6 0 1 .1 1.3.4c.3.3.4.7.4 1.2c.03-.04 0 2.5 0 2.5h-.3v-.7s-.05.02 0 0zm-1.6.4c.4 0 .8-.1 1.1-.3c.3-.3.5-.6.5-.9v-.5c-.5-.1-1-.2-1.4-.2c-.5 0-.8.1-1 .3c-.3.2-.4.4-.4.7c0 .3.1.5.4.7c.2.1.5.2.8.2zm4.7.4c-.7 0-1.2-.2-1.7-.6l.2-.3c.5.3 1 .5 1.5.5c.3 0 .5-.1.7-.2c.2-.1.3-.3.3-.6c0-.1-.1-.2-.1-.3c-.1-.1-.1-.1-.3-.2c-.1-.1-.2-.1-.3-.2c-.1 0-.2 0-.4-.1c-.2 0-.3-.1-.4-.1c-.1 0-.2-.1-.4-.2c-.1 0-.3-.1-.3-.2c-.1 0-.2-.1-.2-.2c-.1-.1-.1-.3-.1-.4c0-.4.1-.6.4-.8c.2-.3.5-.4.9-.4c.6 0 1 .2 1.5.5l-.2.3c-.4-.3-.9-.4-1.3-.4c-.3 0-.5.1-.7.2c-.1.1-.2.3-.2.5c0 .1 0 .2.1.3c0 .1.1.2.3.2c.1.1.2.2.3.2c.1 0 .2.1.4.1c.2.1.4.1.5.2c.2 0 .3.1.4.2c.2.1.3.2.4.3c0 .2.1.3.1.5c0 .3-.2.6-.4.9c-.3.2-.6.3-1 .3zm2.6-.1v-5.8h.4v4.3l2.5-2.6h.6l-1.8 1.8l1.8 2.3h-.5l-1.6-2l-1 1v1h-.4zm4.6 0v-4.1h.3v4.1h-.3zm5.6.1c-.6 0-1.2-.2-1.7-.6l.3-.3c.4.3.9.5 1.4.5c.3 0 .6-.1.7-.2c.2-.1.3-.3.3-.6c0-.1 0-.2-.1-.3c0-.1-.1-.1-.2-.2c-.1-.1-.2-.1-.3-.2c-.1 0-.3 0-.5-.1c-.2 0-.3-.1-.4-.1c-.1 0-.2-.1-.3-.2c-.2 0-.3-.1-.4-.2l-.2-.2c0-.1-.1-.3-.1-.4c0-.4.2-.6.4-.8c.3-.3.6-.4 1-.4c.5 0 1 .2 1.4.5l-.2.3c-.4-.3-.8-.4-1.2-.4c-.3 0-.5.1-.7.2c-.2.1-.3.3-.3.5c0 .1.1.2.1.3c.1.1.2.2.3.2c.1.1.2.2.3.2c.1 0 .3.1.5.1c.2.1.3.1.5.2c.1 0 .2.1.4.2l.3.3c.1.2.1.3.1.5c0 .3-.1.6-.4.9c-.2.2-.6.3-1 .3zm2.7-5.2v-.6h.5v.6h-.5zm0 5.1v-4.1h.4v4.1h-.4zm3.3.1c-.6 0-1.2-.2-1.7-.6l.2-.3c.5.3 1 .5 1.5.5c.3 0 .5-.1.7-.2c.2-.1.3-.3.3-.6c0-.1 0-.2-.1-.3c0-.1-.1-.1-.2-.2c-.2-.1-.3-.1-.4-.2c-.1 0-.2 0-.4-.1c-.2 0-.3-.1-.4-.1c-.1 0-.2-.1-.4-.2c-.1 0-.2-.1-.3-.2c-.1 0-.1-.1-.2-.2c-.1-.1-.1-.3-.1-.4c0-.4.1-.6.4-.8c.2-.3.6-.4 1-.4c.5 0 1 .2 1.4.5l-.2.3c-.4-.3-.8-.4-1.3-.4c-.2 0-.5.1-.6.2c-.2.1-.3.3-.3.5c0 .1 0 .2.1.3c0 .1.1.2.3.2c.1.1.2.2.3.2c.1 0 .2.1.4.1c.3.1.4.1.5.2c.2 0 .3.1.5.2l.3.3c.1.2.1.3.1.5c0 .3-.1.6-.4.9c-.3.2-.6.3-1 .3zm4.6-.2c-.2.1-.5.2-.7.2c-.3 0-.6-.1-.8-.3c-.2-.2-.3-.5-.3-.8c-.03-.05 0-2.7 0-2.7h-.6v-.4h.6v-1.3h.4v1.3h1.4v.4h-1.4s-.04 2.61 0 2.6c0 .5.2.8.8.8c.2 0 .4 0 .6-.1c-.02-.04 0 .3 0 .3c0 0-.02.03 0 0zm4.4-.6c-.4.5-1 .8-1.6.8c-.6 0-1.1-.2-1.5-.6c-.3-.4-.5-.9-.5-1.5c0-.6.1-1.1.5-1.6c.4-.4.8-.6 1.4-.6c.6 0 1 .2 1.3.6c.4.4.6.9.6 1.6v.1h-3.4c0 .5.2.9.5 1.2c.3.3.7.4 1.1.4c.5 0 1-.2 1.4-.6c-.03-.01.2.2.2.2c0 0 .04.03 0 0zm-3.2-1.5h2.9c0-.5-.1-.9-.4-1.2c-.2-.3-.6-.4-1-.4c-.4 0-.8.1-1.1.4c-.2.3-.4.7-.4 1.2zm4.5 2.2v-4.1h.4v.7c.3-.5.8-.8 1.4-.8c.6 0 1 .3 1.3.9c.4-.6.9-.9 1.5-.9c.5 0 .9.2 1.2.5c.2.3.4.7.4 1.2c-.03.03 0 2.5 0 2.5h-.4s-.02-2.42 0-2.4c0-.5-.1-.8-.3-1.1c-.3-.2-.5-.3-.9-.3c-.4 0-.7.1-.9.4c-.3.2-.4.6-.4 1v2.4h-.4v-2.4c0-.5-.1-.8-.3-1.1c-.2-.2-.5-.3-.9-.3c-.4 0-.7.1-.9.4c-.3.3-.4.6-.4 1v2.4h-.4zm7.6-5.1v-.6h.5v.6h-.5zm0 5.1v-4.1h.4v4.1h-.4zm4.4-5.1v-.6h.5v.6h-.5zm0 5.1v-4.1h.4v4.1h-.4zm2 0v-5.8h.4v5.8h-.4zm5.4-.7c-.5.5-1.1.8-1.7.8c-.6 0-1-.2-1.4-.6c-.4-.4-.6-.9-.6-1.5c0-.6.2-1.1.5-1.6c.4-.4.9-.6 1.4-.6c.6 0 1 .2 1.4.6c.3.4.5.9.5 1.6v.1h-3.4c0 .5.2.9.5 1.2c.3.3.7.4 1.1.4c.5 0 1-.2 1.4-.6l.3.2s-.03.03 0 0zm-3.3-1.5h3c-.1-.5-.2-.9-.5-1.2c-.2-.3-.6-.4-1-.4c-.4 0-.7.1-1 .4c-.3.3-.5.7-.5 1.2zm6.9 2.2v-5.8h.4v4.3l2.6-2.6h.5l-1.8 1.8l1.8 2.3h-.5l-1.6-2l-1 1v1h-.4zm7.2-.7c-.3.5-.9.8-1.5.8c-.4 0-.8-.1-1.1-.3c-.3-.3-.5-.6-.5-1c0-.4.2-.7.5-1c.3-.2.7-.3 1.3-.3c.4 0 .9 0 1.3.1v-.1c0-.4-.1-.7-.3-1c-.3-.2-.6-.3-1-.3c-.4 0-.9.1-1.3.4l-.1-.4c.4-.2.9-.3 1.4-.3c.6 0 1 .1 1.3.4c.3.3.4.7.4 1.2c.01-.04 0 2.5 0 2.5h-.4v-.7s.03.02 0 0zm-1.5.4c.4 0 .8-.1 1.1-.3c.3-.3.4-.6.4-.9v-.5c-.4-.1-.9-.2-1.3-.2c-.5 0-.8.1-1 .3c-.3.2-.4.4-.4.7c0 .3.1.5.4.7c.2.1.5.2.8.2zm3.3.3v-4.1h.4v1.2c.2-.4.4-.7.7-.9c.4-.2.7-.4 1.1-.3c.02-.04 0 .4 0 .4c0 0-.02-.01 0 0c-.5 0-.9.2-1.3.5c-.3.4-.5.9-.5 1.5c.01.03 0 1.7 0 1.7h-.4zm5.8-.7c-.4.5-.9.8-1.5.8c-.5 0-.8-.1-1.1-.3c-.4-.3-.5-.6-.5-1c0-.4.1-.7.5-1c.3-.2.7-.3 1.3-.3c.4 0 .9 0 1.3.1v-.1c0-.4-.1-.7-.3-1c-.3-.2-.6-.3-1-.3c-.4 0-.9.1-1.3.4l-.1-.4c.4-.2.9-.3 1.4-.3c.6 0 1 .1 1.3.4c.3.3.4.7.4 1.2c.01-.04 0 2.5 0 2.5h-.4v-.7s.02.02 0 0zm-1.5.4c.4 0 .8-.1 1.1-.3c.3-.3.4-.6.4-.9v-.5c-.5-.1-.9-.2-1.4-.2c-.4 0-.7.1-.9.3c-.3.2-.4.4-.4.7c0 .3.1.5.3.7c.3.1.6.2.9.2zm3.3.3v-5.8h.4v4.3l2.5-2.6h.6l-1.8 1.8l1.8 2.3h-.5l-1.6-2l-1 1v1h-.4zm6.4-.1c-.2.1-.4.2-.6.2c-.4 0-.6-.1-.9-.3c-.2-.2-.3-.5-.3-.8c.03-.05 0-2.7 0-2.7h-.6v-.4h.6v-1.3h.4v1.3h1.5v.4H162s.02 2.61 0 2.6c0 .5.3.8.8.8c.2 0 .4 0 .6-.1c.04-.04 0 .3 0 .3c0 0 .04.03 0 0zm4.5-.6c-.5.5-1 .8-1.7.8c-.5 0-1-.2-1.4-.6c-.4-.4-.6-.9-.6-1.5c0-.6.2-1.1.6-1.6c.3-.4.8-.6 1.3-.6c.6 0 1.1.2 1.4.6c.3.4.5.9.5 1.6v.1h-3.4c.1.5.2.9.5 1.2c.4.3.7.4 1.1.4c.6 0 1-.2 1.4-.6c.03-.01.3.2.3.2c0 0 0 .03 0 0zm-3.3-1.5h3c0-.5-.2-.9-.4-1.2c-.3-.3-.6-.4-1.1-.4c-.4 0-.7.1-1 .4c-.3.3-.4.7-.5 1.2zm4.6 2.2v-4.1h.4s-.04 1.18 0 1.2c.1-.4.4-.7.7-.9c.3-.2.7-.4 1.1-.3c-.03-.04 0 .4 0 .4h-.1c-.5 0-.9.2-1.2.5c-.4.4-.5.9-.5 1.5c-.04.03 0 1.7 0 1.7h-.4zm3.2-5.1v-.6h.5v.6h-.5zm0 5.1v-4.1h.4v4.1h-.4zm1.7 0v-.2l2.9-3.5h-2.8v-.4h3.4v.2l-2.9 3.5h2.9v.4h-3.5zm8-.7c-.5.5-1.1.8-1.7.8c-.6 0-1-.2-1.4-.6c-.4-.4-.6-.9-.6-1.5c0-.6.2-1.1.5-1.6c.4-.4.9-.6 1.4-.6c.6 0 1 .2 1.4.6c.3.4.5.9.5 1.6v.1h-3.4c0 .5.2.9.5 1.2c.3.3.7.4 1.1.4c.5 0 1-.2 1.4-.6c.01-.01.3.2.3.2c0 0-.02.03 0 0zm-3.3-1.5h3c-.1-.5-.2-.9-.5-1.2c-.2-.3-.5-.4-1-.4c-.4 0-.7.1-1 .4c-.3.3-.5.7-.5 1.2zm10.3 1.5c-.4.5-1 .8-1.6.8c-.6 0-1.1-.2-1.5-.6c-.3-.4-.5-.9-.5-1.5c0-.6.1-1.1.5-1.6c.4-.4.8-.6 1.4-.6c.6 0 1 .2 1.4.6c.3.4.5.9.5 1.6v.1h-3.4c0 .5.2.9.5 1.2c.3.3.7.4 1.1.4c.5 0 1-.2 1.4-.6l.2.2s.05.03 0 0zm-3.2-1.5h2.9c0-.5-.1-.9-.4-1.2c-.2-.3-.6-.4-1-.4c-.4 0-.8.1-1 .4c-.3.3-.5.7-.5 1.2zm7.9 1.3c-.4.7-1 1-1.7 1c-.5 0-1-.2-1.4-.6c-.4-.4-.6-.9-.6-1.5c0-.7.2-1.2.6-1.6c.4-.4.9-.6 1.4-.6c.7 0 1.3.3 1.7 1v-2.6h.4v5.8h-.4v-.9s.01-.01 0 0zm-3.2-1.1c0 .5.1.9.4 1.2c.4.4.7.5 1.2.5c.4 0 .8-.1 1.1-.5c.4-.3.5-.7.5-1.2c0-.6-.1-1-.5-1.3c-.3-.3-.7-.5-1.1-.5c-.5 0-.9.2-1.2.5c-.3.3-.4.7-.4 1.2c-.03.04 0 .1 0 .1c0 0-.03-.04 0 0zm5.1-3.1v-.6h.5v.6h-.5zm0 5.1v-4.1h.4v4.1h-.4zm2 0v-5.8h.4v5.8h-.4zm2-5.1v-.6h.5v.6h-.5zm0 5.1v-4.1h.4v4.1h-.4zm2 0v-4.1h.4s-.04 1.18 0 1.2c.1-.4.4-.7.7-.9c.3-.2.7-.4 1.1-.3c-.03-.04 0 .4 0 .4h-.1c-.5 0-.9.2-1.2.5c-.4.4-.5.9-.5 1.5c-.04.03 0 1.7 0 1.7h-.4zm3.1-3.4v-.7h.5v.7h-.5zm-.1 4.3l-.1-.2c.2-.1.3-.2.4-.3v-.4h-.2v-.7h.5s.05.61 0 .6c0 .3 0 .5-.1.6c-.1.1-.3.3-.5.4z" stroke="none" fill="#000"/></g><g id="Polygon365972"><path d="m.8 7.2V.9h1.3v5h3.2v1.3H.8zm5.5 0V.9h4.8v1.2H7.7v1.3h3v1.2h-3v1.4h3.4v1.2H6.3zm8.8 0V.9h4.8v1.3h-3.5v1.3h3v1.3h-3v2.4h-1.3zm5.9 0V.9h4.7v1.2h-3.4v1.3h3v1.2h-3v1.4h3.5v1.2H21zm11.4-2.7c0 .9-.3 1.6-.8 2.1c-.4.5-1.1.7-2 .7c-.8 0-1.5-.2-2-.7c-.5-.5-.7-1.2-.7-2.1c-.01 0 0-3.6 0-3.6h1.4s-.02 3.56 0 3.6c0 .5.1.9.3 1.1c.3.3.6.4 1 .4c.5 0 .8-.1 1-.4c.3-.2.4-.6.4-1.1V.9h1.4v3.6s-.02-.05 0 0zm4.1 2.7V.9h4.7v1.2h-3.3v1.3h2.9v1.2h-2.9v1.4h3.4v1.2h-4.8zm6 0V.9h1.3l3 3.9V.9h1.3v6.3h-1.2l-3-4v4h-1.4zm12.4 1.6l-1.1-.5s.71-1.08.7-1.1c-.7-.1-1.3-.5-1.8-1.1c-.4-.6-.6-1.3-.6-2v-.1c0-.9.3-1.6.9-2.3c.6-.6 1.4-.9 2.3-.9c1 0 1.9.3 2.5 1l-.9 1c-.5-.5-1-.7-1.6-.7c-.5 0-.9.2-1.3.5c-.3.4-.5.9-.5 1.4c0 .6.2 1.1.5 1.5c.4.3.8.5 1.3.5c.4 0 .7 0 .9-.2c.3-.1.5-.3.8-.5l.9.9c-.7.7-1.5 1.1-2.4 1.1c.02 0-.6 1.5-.6 1.5zM65.2 4c0 1-.3 1.7-.9 2.4c-.7.6-1.5.9-2.4.9c-1 0-1.8-.3-2.4-.9c-.7-.7-1-1.4-1-2.3v-.1c0-.9.3-1.6 1-2.3c.6-.6 1.4-.9 2.4-.9c.9 0 1.7.3 2.4.9c.6.7.9 1.4.9 2.3c.01.03 0 0 0 0c0 0 .01.05 0 0zM60 4c0 .6.1 1.1.5 1.5c.4.3.8.5 1.4.5c.5 0 1-.2 1.3-.5c.4-.4.6-.9.6-1.4v-.1c0-.5-.2-1-.6-1.4c-.3-.3-.8-.5-1.3-.5c-.6 0-1 .2-1.4.5c-.4.4-.5.9-.5 1.4c-.03.03 0 0 0 0c0 0-.03.05 0 0zm6.4 3.2V.9h1.4v2.8L70.4.9h1.7l-2.6 2.7l2.7 3.6h-1.7l-1.9-2.7l-.8.8v1.9h-1.4zm11.6.1c-1.1 0-2-.3-2.7-1l.8-1c.6.5 1.3.8 1.9.8c.3 0 .5-.1.7-.2c.1-.1.2-.2.2-.4c0-.2-.1-.4-.3-.5c-.1-.1-.5-.2-1-.3c-.3-.1-.6-.2-.8-.3c-.3-.1-.5-.2-.7-.4c-.2-.1-.3-.3-.4-.5c-.1-.2-.2-.5-.2-.8c0-.6.2-1 .6-1.4c.5-.3 1-.5 1.6-.5c.9 0 1.7.3 2.4.8l-.7 1.1c-.6-.5-1.2-.7-1.7-.7c-.2 0-.4.1-.6.2c-.1.1-.2.2-.2.4c0 .2.1.4.3.5c.1.1.5.2 1.1.3c.7.2 1.2.4 1.5.7c.3.3.5.7.5 1.2c0 .6-.2 1.1-.7 1.5c-.4.3-.9.5-1.6.5zm2.8-.1L83.5.9h1.3l2.7 6.3H86l-.5-1.4h-2.7l-.6 1.4h-1.4zm2.5-2.6h1.7l-.9-2.1l-.8 2.1zm5.8 2.6v-5h-1.9V.9h5.2v1.3h-1.9v5h-1.4zm3 0L94.8.9h1.3l2.7 6.3h-1.4l-.6-1.4h-2.7l-.6 1.4h-1.4zm2.5-2.6h1.7l-.9-2.1l-.8 2.1zm5.2 2.6V.9h1.3l2.9 3.9V.9h1.4v6.3h-1.2l-3.1-4v4h-1.3z" stroke="none" fill="#000"/></g></svg>