<?xml version="1.0" standalone="no"?><!DOCTYPE svg PUBLIC "-//W3C//DTD SVG 1.1//EN" "http://www.w3.org/Graphics/SVG/1.1/DTD/svg11.dtd"><svg xmlns="http://www.w3.org/2000/svg" version="1.1" width="431px" height="32.6px" viewBox="0 -5 431 32.6" style="top:-5px"><desc>HAILO TL100 TopLine</desc><defs/><g id="Polygon367016"><path d="m1.5 14.4V1.8h2.8v5h5.1v-5h2.8v12.6H9.4V9.3H4.3v5.1H1.5zm12.6 0l5.4-12.7h2.6l5.4 12.7h-2.9l-1.2-2.8h-5.3l-1.2 2.8h-2.8zm5-5.3h3.3L20.8 5l-1.7 4.1zm10.4 5.3V1.8h2.8v12.6h-2.8zm6 0V1.8h2.7v10.1h6.3v2.5h-9zm23.2-6.3c0 1.8-.6 3.4-1.9 4.6c-1.3 1.3-2.9 1.9-4.8 1.9c-1.9 0-3.5-.6-4.8-1.9c-1.2-1.2-1.9-2.8-1.9-4.6c0-1.8.7-3.4 1.9-4.6c1.3-1.3 2.9-1.9 4.8-1.9c2 0 3.6.6 4.8 1.9c1.3 1.2 1.9 2.8 1.9 4.6c.02-.04 0 0 0 0c0 0 .02 0 0 0zm-10.5 0c0 1.1.4 2 1.1 2.8c.7.8 1.6 1.2 2.7 1.2c1.1 0 2-.4 2.8-1.2c.7-.7 1-1.7 1-2.8c0-1.1-.3-2-1.1-2.8c-.7-.8-1.6-1.2-2.7-1.2c-1.1 0-2 .4-2.7 1.2c-.7.7-1.1 1.7-1.1 2.8c.02-.04 0 0 0 0c0 0 .02 0 0 0zm21.3 6.3v-10h-3.8V1.8h10.4v2.6h-3.8v10h-2.8zm8.7 0V1.8h2.8v10.1h6.3v2.5h-9.1zm12.9 0V4.5l-2.2.6l-.6-2.3l3.6-1.1h1.9v12.7h-2.7zm10.9.2c-1.6 0-3-.6-4-1.8c-1-1.2-1.6-2.8-1.6-4.7c0-1.9.6-3.4 1.6-4.7c1.1-1.2 2.4-1.8 4.1-1.8c1.6 0 2.9.6 4 1.8c1 1.3 1.5 2.8 1.5 4.7c0 1.9-.5 3.4-1.5 4.7c-1.1 1.2-2.4 1.8-4.1 1.8zm-2.7-6.5c0 1.2.2 2.1.8 2.9c.5.7 1.1 1.1 2 1.1c.8 0 1.4-.4 1.9-1.1c.5-.7.8-1.7.8-2.9c0-1.2-.3-2.1-.8-2.9c-.5-.7-1.2-1.1-2-1.1c-.8 0-1.5.4-2 1.1c-.5.7-.7 1.7-.7 2.9c-.01-.04 0 0 0 0c0 0-.01 0 0 0zm15.9 6.5c-1.7 0-3.1-.6-4.1-1.8c-1-1.2-1.5-2.8-1.5-4.7c0-1.9.5-3.4 1.5-4.7c1.1-1.2 2.4-1.8 4.1-1.8c1.6 0 3 .6 4 1.8c1.1 1.3 1.6 2.8 1.6 4.7c0 1.9-.5 3.4-1.6 4.7c-1 1.2-2.4 1.8-4 1.8zm-2.8-6.5c0 1.2.3 2.1.8 2.9c.5.7 1.2 1.1 2 1.1c.8 0 1.5-.4 2-1.1c.5-.7.7-1.7.7-2.9c0-1.2-.2-2.1-.7-2.9c-.6-.7-1.2-1.1-2-1.1c-.9 0-1.5.4-2 1.1c-.5.7-.8 1.7-.8 2.9c.03-.04 0 0 0 0c0 0 .03 0 0 0zm19.2 6.3v-10h-3.8V1.8h10.4v2.6h-3.8v10h-2.8zm11.3.2c-1.5 0-2.7-.5-3.7-1.4c-1-1-1.5-2.2-1.5-3.6c0-1.4.5-2.6 1.5-3.6c1-.9 2.2-1.4 3.7-1.4c1.5 0 2.7.5 3.7 1.4c1 1 1.5 2.2 1.5 3.6c0 1.4-.5 2.6-1.5 3.6c-1 .9-2.2 1.4-3.7 1.4zm0-2.3c.8 0 1.4-.3 1.8-.8c.5-.5.7-1.1.7-1.9c0-.7-.2-1.4-.7-1.9c-.5-.5-1.1-.8-1.8-.8c-.8 0-1.4.3-1.8.8c-.5.5-.7 1.1-.7 1.9c0 .7.2 1.4.7 1.9c.5.5 1.1.8 1.8.8zm7.2 5V4.8h2.7s.04 1.34 0 1.3c.8-1 1.8-1.5 3-1.5c1.2 0 2.3.4 3.1 1.3c.9.9 1.3 2.1 1.3 3.7c0 1.5-.4 2.7-1.3 3.6c-.8.9-1.8 1.4-3.1 1.4c-1.2 0-2.2-.5-3-1.5c.04.04 0 4.2 0 4.2h-2.7zm2.7-7.7c0 .8.2 1.4.7 1.9c.4.5 1 .8 1.6.8c.7 0 1.3-.3 1.7-.8c.5-.5.7-1.1.7-1.9c0-.8-.2-1.5-.7-2c-.4-.5-1-.7-1.7-.7c-.6 0-1.2.2-1.6.7c-.5.5-.7 1.2-.7 2c0-.04 0 0 0 0c0 0 0-.01 0 0zm9.7 4.8V1.8h2.8v10.1h6.3v2.5h-9.1zm10.9-10.7V1.3h2.9v2.4h-2.9zm.1 10.7V4.8h2.8v9.6h-2.8zm5.3 0V4.8h2.8s-.04 1.32 0 1.3c.8-1 1.7-1.5 2.8-1.5c1 0 1.8.3 2.4.9c.6.6.9 1.5.9 2.7c-.03-.05 0 6.2 0 6.2h-2.8s.03-5.38 0-5.4c0-1.3-.5-1.9-1.6-1.9c-.6 0-1 .1-1.3.5c-.3.3-.4.8-.4 1.4c-.04.02 0 5.4 0 5.4h-2.8zm19.8-1.6c-1 1.2-2.3 1.8-4 1.8c-1.5 0-2.7-.4-3.6-1.4c-1-.9-1.4-2.1-1.4-3.6c0-1.4.4-2.6 1.3-3.6c.9-.9 2.1-1.4 3.4-1.4c1.6 0 2.7.5 3.5 1.5c.8 1 1.2 2.2 1.2 3.7v.7h-6.7c.1.6.4 1.1.8 1.4c.4.4.9.5 1.5.5c.9 0 1.7-.3 2.4-1c-.01.03 1.6 1.4 1.6 1.4c0 0-.04.02 0 0zm-6.3-4h4.1c-.1-.6-.3-1.1-.7-1.5c-.3-.3-.8-.5-1.4-.5c-.5 0-1 .2-1.3.5c-.4.4-.6.9-.7 1.5z" stroke="none" fill="#000"/></g></svg>