<?xml version="1.0" standalone="no"?><!DOCTYPE svg PUBLIC "-//W3C//DTD SVG 1.1//EN" "http://www.w3.org/Graphics/SVG/1.1/DTD/svg11.dtd"><svg xmlns="http://www.w3.org/2000/svg" version="1.1" width="431px" height="233.4px" viewBox="0 -4 431 233.4" style="top:-4px"><desc>Sal n ml kapakl b y k hacimli p kutusu (35 L) zellikler Kendili inden kapanan, iki kanatl sal n m kapakl ; dikd...</desc><defs/><g id="Polygon374096"><path d="m.6 159.6v-4.9h1.1v4.9H.6zm.1-5.3v-.9h1v.9h-1zm3.6 6.5l-.9-.4l.6-.8c-.4-.1-.7-.4-1-.7c-.2-.3-.4-.7-.4-1.2c0-.5.2-1 .6-1.4c.4-.3.8-.5 1.4-.5c.6 0 1.1.2 1.5.6l-.6.7c-.2-.1-.3-.2-.4-.3c-.2-.1-.3-.1-.5-.1c-.3 0-.5.1-.6.3c-.2.2-.3.4-.3.7c0 .3.1.6.3.8c.1.2.4.3.6.3c.3 0 .6-.2.9-.4l.6.6c-.2.2-.3.4-.6.5c-.2.1-.4.2-.7.2c-.03-.02-.5 1.1-.5 1.1zm4.6-1.2v-5.1h1.1v2.7l1.2-1.4h1.3l-1.4 1.5l1.5 2.3h-1.3l-.9-1.5l-.4.4v1.1H8.9zm5.8.1c-.5 0-1-.2-1.4-.6c-.4-.3-.6-.8-.6-1.4c0-.5.2-1 .6-1.4c.4-.3.9-.5 1.4-.5c.6 0 1.1.2 1.5.5c.4.4.6.9.6 1.4c0 .6-.2 1-.6 1.4c-.4.4-.9.6-1.5.6zm0-.9c.3 0 .6-.1.8-.3c.1-.2.2-.5.2-.8c0-.3-.1-.5-.3-.7c-.1-.2-.4-.3-.7-.3c-.3 0-.5.1-.7.3c-.1.2-.2.4-.2.7c0 .3.1.6.2.8c.2.2.5.3.7.3zm3.8.8l-1.5-3.8h1.1l.9 2.6l.8-2.6h1.1l-1.5 3.8h-.9zm5.1-.4c-.3.3-.7.5-1.2.5c-.3 0-.7-.1-.9-.3c-.2-.2-.4-.5-.4-.9c0-.4.2-.7.4-.9c.3-.2.7-.3 1.1-.3c.3 0 .7.1 1 .2v-.1c0-.5-.3-.7-.8-.7c-.4 0-.7.1-1.1.2l-.2-.8c.4-.2.9-.3 1.4-.3c.6 0 1 .1 1.3.4c.2.3.4.7.4 1.2c-.02.02 0 2.2 0 2.2h-1v-.4s-.05-.01 0 0zm-.9-.3c.3 0 .5 0 .6-.1c.2-.2.3-.3.3-.5v-.2c-.2-.1-.5-.2-.7-.2c-.2 0-.4.1-.5.2c-.2.1-.2.2-.2.4c0 .1 0 .2.1.3c.1.1.3.1.4.1zm2.8.7v-5.1h1.1v5.1h-1.1zm4.3-.4c-.3.3-.7.5-1.1.5c-.4 0-.7-.1-.9-.3c-.3-.2-.4-.5-.4-.9c0-.4.1-.7.4-.9c.3-.2.6-.3 1.1-.3c.3 0 .6.1.9.2v-.1c0-.5-.2-.7-.8-.7c-.3 0-.7.1-1 .2l-.3-.8c.5-.2 1-.3 1.5-.3c.5 0 1 .1 1.2.4c.3.3.4.7.4 1.2c.04.02 0 2.2 0 2.2h-1v-.4s.01-.01 0 0zm-.8-.3c.3 0 .5 0 .6-.1c.2-.2.2-.3.2-.5v-.2c-.2-.1-.4-.2-.6-.2c-.3 0-.5.1-.6.2c-.1.1-.2.2-.2.4c0 .1.1.2.2.3c.1.1.2.1.4.1zm2.8.7v-3.8h1s.02.8 0 .8c.3-.6.7-.8 1.2-.8c.02-.02 0 1.1 0 1.1c0 0-.04-.01 0 0c-.4 0-.7.1-.9.3c-.2.2-.3.6-.3 1c.02.01 0 1.4 0 1.4h-1zm2.9-2.6v-1.2h1.1v1.2h-1.1zm0 2.6v-1.1h1.1v1.1h-1.1zm6.3-3.7c0 .3-.1.6-.4.9c-.2.2-.4.3-.7.3c-.4 0-.6-.1-.8-.3c-.3-.3-.4-.6-.4-.9c0-.3.1-.6.4-.9c.2-.2.4-.4.8-.4c.3 0 .5.2.8.4c.2.3.3.5.3.9c-.04-.02 0 0 0 0c0 0-.04 0 0 0zm-1.1-.9c-.2 0-.4.1-.5.3c-.1.1-.2.3-.2.6c0 .2.1.4.2.6c.1.2.3.3.5.3c.2 0 .3-.1.4-.3c.1-.2.2-.4.2-.6c0-.2-.1-.4-.2-.6c-.1-.2-.3-.3-.4-.3zm1.2 2l1.7-2.3h.5l-1.8 2.6l-1.7 2.3h-.6l1.9-2.6zm1.6 2.7c-.3 0-.5-.2-.8-.4c-.2-.3-.3-.5-.3-.9c0-.3.1-.6.4-.9c.2-.2.4-.4.7-.4c.4 0 .6.2.8.4c.2.3.3.6.3.9c0 .3-.1.6-.3.9c-.2.2-.4.4-.8.4zm0-.4c.2 0 .4-.1.5-.3c.1-.1.2-.3.2-.6c0-.2-.1-.4-.2-.6c-.1-.2-.3-.3-.5-.3c-.2 0-.3.1-.4.3c-.1.2-.2.4-.2.6c0 .2.1.4.2.6c.1.2.3.3.4.3zm2.8.3v-4.4l-1 .3l-.1-.4l1.2-.4h.4v4.9h-.5zm5.8-2.5c0 .8-.2 1.4-.6 1.8c-.4.5-.9.8-1.5.8c-.6 0-1.1-.3-1.5-.7c-.4-.5-.5-1.1-.5-1.8v-.1c0-.7.2-1.3.5-1.7c.4-.5.9-.8 1.5-.8c.7 0 1.2.3 1.5.7c.4.5.6 1.1.6 1.8c0 .04 0 0 0 0c0 0 0 .05 0 0zm-3.6 0c0 .6.2 1.1.4 1.5c.3.4.7.6 1.1.6c.5 0 .8-.2 1.1-.6c.3-.4.4-.9.4-1.4v-.1c0-.5-.1-1-.4-1.4c-.3-.4-.6-.6-1.1-.6c-.4 0-.8.2-1.1.6c-.2.4-.4.9-.4 1.4c.03.04 0 0 0 0c0 0 .03.05 0 0zm8.6 0c0 .8-.2 1.4-.6 1.8c-.4.5-.9.8-1.5.8c-.6 0-1.1-.3-1.5-.7c-.3-.5-.5-1.1-.5-1.8v-.1c0-.7.2-1.3.5-1.7c.4-.5.9-.8 1.5-.8c.7 0 1.2.3 1.5.7c.4.5.6 1.1.6 1.8c0 .04 0 0 0 0c0 0 0 .05 0 0zm-3.6 0c0 .6.2 1.1.5 1.5c.2.4.6.6 1 .6c.5 0 .8-.2 1.1-.6c.3-.4.4-.9.4-1.4v-.1c0-.5-.1-1-.4-1.4c-.3-.4-.6-.6-1.1-.6c-.4 0-.8.2-1 .6c-.3.4-.5.9-.5 1.4c.04.04 0 0 0 0c0 0 .04.05 0 0zm9.7 3.2c-.3.3-.8.4-1.4.4c-.6 0-1.1-.1-1.6-.5l.2-.4c.5.3.9.5 1.4.5c.4 0 .8-.1 1-.4c.2-.2.3-.5.3-.9v-.4c-.3.5-.8.7-1.4.7c-.4 0-.8-.1-1.2-.5c-.3-.3-.5-.7-.5-1.2c0-.5.2-.9.5-1.2c.4-.3.8-.5 1.2-.5c.6 0 1.1.2 1.4.7c.04.03 0-.6 0-.6h.6s-.02 2.97 0 3c0 .5-.2.9-.5 1.3zm-1.4-1.5c.4 0 .7-.1 1-.3c.2-.2.4-.5.4-.9c0-.4-.2-.6-.4-.9c-.3-.2-.6-.3-1-.3c-.3 0-.6.1-.9.3c-.2.2-.3.5-.3.9c0 .4.1.7.3.9c.3.2.6.3.9.3zm6.2.2c-.4.5-.9.7-1.5.7c-.5 0-1-.2-1.3-.5c-.4-.4-.5-.8-.5-1.4c0-.5.1-1 .5-1.4c.3-.3.7-.5 1.2-.5c.5 0 .9.2 1.2.5c.3.4.5.9.5 1.4v.2h-2.9c0 .4.2.7.4.9c.3.2.5.3.9.3c.4 0 .8-.2 1.1-.5c.02 0 .4.3.4.3c0 0-.04 0 0 0zm-2.8-1.4h2.3c0-.4-.1-.7-.3-.9c-.2-.2-.5-.3-.8-.3c-.3 0-.6.1-.8.3c-.2.2-.4.5-.4.9zm3.8 2V156h.6s-.03.93 0 .9c.1-.3.3-.5.6-.7c.2-.2.5-.3.8-.3c.04.02 0 .6 0 .6c-.4 0-.8.1-1 .4c-.3.3-.4.7-.4 1.3c-.03-.04 0 1.4 0 1.4h-.6zm2.9-4.4v-.6h.6v.6h-.6zm0 4.4V156h.6v3.6h-.6zm6.8-.7c-.4.5-.8.8-1.4.8c-.4 0-.8-.2-1.2-.5c-.3-.4-.5-.8-.5-1.4c0-.6.2-1 .5-1.4c.4-.3.8-.5 1.2-.5c.6 0 1.1.3 1.4.8c.01-.03 0-2.2 0-2.2h.5v5.1h-.5v-.7s.01-.03 0 0zm-1.3.3c.4 0 .7-.1.9-.4c.3-.3.4-.6.4-1c0-.4-.1-.8-.4-1c-.2-.3-.5-.4-.9-.4c-.3 0-.6.1-.9.4c-.2.2-.4.6-.4 1c0 .4.2.8.4 1c.3.3.6.4.9.4zm5-3.8v-.6h.6v.6h-.6zm-1.2 0v-.6h.6v.6h-.6zm.9 4.3c-.5 0-1-.2-1.3-.6c-.4-.3-.6-.8-.6-1.3c0-.5.2-1 .6-1.3c.3-.4.8-.6 1.3-.6c.6 0 1 .2 1.4.6c.3.3.5.8.5 1.3c0 .5-.2 1-.5 1.3c-.4.4-.9.6-1.4.6zm0-.5c.4 0 .7-.1 1-.4c.2-.3.3-.6.3-1c0-.4-.1-.7-.3-1c-.3-.3-.6-.4-1-.4c-.4 0-.7.1-.9.4c-.3.3-.4.6-.4 1c0 .4.1.7.4 1c.2.3.5.4.9.4zm2.9.4V156h.5v.6c.3-.5.7-.7 1.3-.7c.4 0 .7.1 1 .4c.2.3.3.6.3 1.1c.04-.05 0 2.2 0 2.2h-.5v-2.1c0-.4-.1-.6-.3-.8c-.1-.2-.4-.3-.7-.3c-.3 0-.6.1-.8.3c-.2.2-.3.5-.3.8v2.1h-.5zm6.1-4.2v-.6h.6v.6h-.6zm-1.2 0v-.6h.6v.6h-.6zm2 3.6c-.3.4-.8.7-1.3.7c-.4 0-.8-.2-1-.4c-.2-.3-.4-.6-.4-1.1c.03.03 0-2.2 0-2.2h.6s-.03 2.09 0 2.1c0 .3.1.6.2.8c.2.2.5.3.8.3c.3 0 .5-.1.7-.3c.3-.2.4-.5.4-.8c-.05-.05 0-2.1 0-2.1h.5v3.6h-.5v-.6s-.05-.03 0 0zm2.6 1.7l-.6-.3s.59-.75.6-.8c-.5 0-.9-.2-1.2-.5l.3-.3c.4.3.8.4 1.2.4c.2 0 .4 0 .6-.1c.1-.1.2-.3.2-.5c0-.1-.1-.3-.3-.4c-.1 0-.3-.1-.6-.2c-.2 0-.3-.1-.3-.1c-.1 0-.2-.1-.3-.1c-.1 0-.2-.1-.2-.1c-.1-.1-.2-.1-.2-.2c-.1-.1-.2-.1-.2-.2v-.3c0-.4.1-.6.3-.8c.2-.2.5-.3.9-.3c.5 0 .9.2 1.3.4l-.2.4c-.4-.2-.8-.3-1.1-.3c-.2 0-.4 0-.5.1c-.1.1-.2.2-.2.4v.2c.1 0 .1.1.2.1c0 .1.1.1.2.2h.2c.1.1.2.1.3.1c.2.1.3.1.4.1c.1.1.2.1.3.2c.1 0 .2.1.2.2c.1 0 .2.1.2.2c.1.1.1.2.1.4c0 .3-.1.5-.3.7c-.2.2-.5.3-.9.4c.03-.04-.4 1-.4 1zm4.4-1.2c-.2.1-.4.2-.7.2c-.3 0-.5-.1-.7-.3c-.2-.2-.3-.4-.3-.8v-2.1h-.5v-.5h.5v-1.1h.5v1.1h1.2v.5h-1.2s.04 2.07 0 2.1c0 .4.2.6.7.6c.1 0 .3-.1.5-.2c-.02.05 0 .5 0 .5c0 0-.02.01 0 0zm2.8-4.1v-.6h.6v.6h-.6zm-1.3 0v-.6h.7v.6h-.7zm2 3.6c-.3.4-.7.7-1.2.7c-.5 0-.8-.2-1-.4c-.3-.3-.4-.6-.4-1.1c-.01.03 0-2.2 0-2.2h.5s.02 2.09 0 2.1c0 .3.1.6.3.8c.2.2.4.3.7.3c.3 0 .6-.1.8-.3c.2-.2.3-.5.3-.8V156h.5v3.6h-.5v-.6s.01-.03 0 0zm1.8.6V156h.5s-.01.93 0 .9c.1-.3.3-.5.6-.7c.2-.2.5-.3.9-.3c-.03.02 0 .6 0 .6h-.1c-.4 0-.7.1-1 .4c-.3.3-.4.7-.4 1.3v1.4h-.5zm4.6-4.2v-.6h.6v.6h-.6zm-1.2 0v-.6h.6v.6h-.6zm2 3.6c-.3.4-.7.7-1.3.7c-.4 0-.7-.2-1-.4c-.2-.3-.4-.6-.4-1.1c.03.03 0-2.2 0-2.2h.6s-.03 2.09 0 2.1c0 .3.1.6.2.8c.2.2.5.3.8.3c.3 0 .5-.1.7-.3c.3-.2.4-.5.4-.8c-.04-.05 0-2.1 0-2.1h.5v3.6h-.5v-.6s-.04-.03 0 0zm1.7.6v-5.1h.6v5.1h-.6zm1.8 0V156h.6s-.02.59 0 .6c.1-.2.3-.4.5-.5c.1-.1.4-.2.6-.2c.6 0 1 .2 1.2.7c.3-.5.8-.7 1.3-.7c.4 0 .7.1 1 .4c.2.3.3.6.3 1.1c.03-.04 0 2.2 0 2.2h-.5v-2.1c0-.4-.1-.6-.3-.8c-.1-.2-.4-.3-.6-.3c-.3 0-.6.1-.8.3c-.2.2-.2.5-.2.8c-.05.01 0 2.1 0 2.1h-.6s.02-2.13 0-2.1c0-.4-.1-.6-.2-.8c-.2-.2-.4-.3-.7-.3c-.3 0-.5.1-.7.3c-.2.2-.3.5-.3.8c-.02.03 0 2.1 0 2.1h-.6zm8.5-4.2v-.6h.6v.6h-.6zm-1.2 0v-.6h.6v.6h-.6zm1.9 3.6c-.2.4-.7.7-1.2.7c-.4 0-.8-.2-1-.4c-.3-.3-.4-.6-.4-1.1c.02.03 0-2.2 0-2.2h.6s-.04 2.09 0 2.1c0 .3 0 .6.2.8c.2.2.4.3.8.3c.3 0 .5-.1.7-.3c.2-.2.3-.5.3-.8c.05-.05 0-2.1 0-2.1h.6v3.6h-.6v-.6s.05-.03 0 0zm2.7 1.7l-.6-.3s.58-.75.6-.8c-.5 0-.9-.2-1.2-.5l.3-.3c.4.3.8.4 1.2.4c.2 0 .4 0 .6-.1c.1-.1.2-.3.2-.5c0-.1-.1-.3-.3-.4c-.1 0-.3-.1-.6-.2c-.2 0-.3-.1-.3-.1c-.1 0-.2-.1-.3-.1c-.1 0-.2-.1-.3-.1c0-.1-.1-.1-.1-.2c-.1-.1-.2-.1-.2-.2v-.3c0-.4.1-.6.3-.8c.2-.2.5-.3.9-.3c.5 0 .9.2 1.3.4l-.2.4c-.4-.2-.8-.3-1.1-.3c-.2 0-.4 0-.5.1c-.2.1-.2.2-.2.4v.2c.1 0 .1.1.2.1c0 .1.1.1.2.2h.2c.1.1.2.1.3.1c.1.1.3.1.4.1c0 .1.1.1.3.2c.1 0 .2.1.2.2c.1 0 .2.1.2.2c.1.1.1.2.1.4c0 .3-.1.5-.3.7c-.3.2-.5.3-.9.4c.03-.04-.4 1-.4 1zm4.7 0V156h.5v.7c.4-.5.9-.8 1.4-.8c.5 0 .9.2 1.2.5c.4.4.5.8.5 1.4c0 .6-.1 1-.5 1.4c-.3.3-.7.5-1.2.5c-.6 0-1-.3-1.4-.8c.01.01 0 1.8 0 1.8h-.5zm1.8-1.5c.4 0 .7-.1.9-.4c.3-.2.4-.6.4-1c0-.4-.1-.8-.4-1c-.2-.3-.5-.4-.9-.4c-.3 0-.6.1-.9.4c-.3.3-.4.6-.4 1c0 .4.1.7.4 1c.2.3.6.4.9.4zm2.9.4v-5.1h.5v5.1h-.5zm4.2-.5c-.4.4-.8.6-1.4.6c-.3 0-.6-.1-.9-.3c-.3-.2-.4-.5-.4-.9c0-.3.1-.6.4-.8c.3-.2.7-.3 1.1-.3c.4 0 .8 0 1.2.1v-.1c0-.3-.1-.6-.3-.7c-.2-.2-.5-.3-.8-.3c-.4 0-.8.1-1.1.3l-.2-.5c.4-.2.9-.3 1.3-.3c.5 0 .9.2 1.2.4c.2.3.4.6.4 1.1c-.03-.01 0 2.2 0 2.2h-.5v-.5s-.05-.05 0 0zm-1.3.1c.4 0 .7 0 .9-.2c.2-.2.4-.4.4-.7v-.4c-.4-.1-.8-.1-1.1-.1c-.3 0-.6 0-.8.2c-.2.1-.3.3-.3.5c0 .2.1.4.3.6c.2.1.4.1.6.1zm4.1.5c-.5 0-1-.2-1.5-.6l.3-.3c.4.3.8.4 1.2.4c.3 0 .4 0 .6-.1c.1-.1.2-.3.2-.5c0-.1-.1-.3-.2-.4c-.2 0-.4-.1-.7-.2c-.1 0-.2-.1-.3-.1c-.1 0-.1-.1-.3-.1c-.1 0-.2-.1-.2-.1l-.2-.2l-.2-.2v-.3c0-.4.1-.6.3-.8c.3-.2.6-.3.9-.3c.5 0 .9.2 1.3.4l-.2.4c-.4-.2-.7-.3-1.1-.3c-.2 0-.4 0-.5.1c-.1.1-.2.2-.2.4c0 .1 0 .1.1.2s0 .1.1.1c0 .1.1.1.2.2h.3c0 .1.1.1.2.1c.2.1.3.1.4.1c.1.1.2.1.3.2c.1 0 .2.1.3.2c0 0 .1.1.1.2c.1.1.1.2.1.4c0 .3-.1.6-.4.8c-.2.2-.5.3-.9.3zm4.1-.2c-.2.1-.4.2-.7.2c-.3 0-.5-.1-.7-.3c-.2-.2-.3-.4-.3-.8c.02.04 0-2.1 0-2.1h-.5v-.5h.5v-1.1h.6v1.1h1.1v.5h-1.1s-.04 2.07 0 2.1c0 .4.2.6.6.6c.1 0 .3-.1.5-.2v.5s-.01.01 0 0zm1-4.3v-.6h.6v.6h-.6zm0 4.4V156h.5v3.6h-.5zm1.8 0v-5.1h.5v3.5l2-2h.7l-1.6 1.5l1.6 2.1h-.6l-1.3-1.7l-.8.8v.9h-.5zm3.8.9l-.1-.3c.3-.1.5-.3.5-.6h-.3v-.7h.7s-.03.59 0 .6c0 .3-.1.5-.2.6c-.1.2-.3.3-.6.4zm5.2-.8c-.6 0-1.1-.2-1.5-.6l.3-.3c.4.3.8.4 1.2.4c.2 0 .4 0 .6-.1c.1-.1.2-.3.2-.5c0-.1-.1-.3-.3-.4c-.1 0-.3-.1-.6-.2c-.2 0-.3-.1-.3-.1c-.1 0-.2-.1-.3-.1c-.1 0-.2-.1-.2-.1c-.1-.1-.2-.1-.2-.2c-.1-.1-.2-.1-.2-.2v-.3c0-.4.1-.6.3-.8c.3-.2.5-.3.9-.3c.5 0 .9.2 1.3.4l-.2.4c-.4-.2-.8-.3-1.1-.3c-.2 0-.4 0-.5.1c-.1.1-.2.2-.2.4v.2c.1 0 .1.1.2.1c0 .1.1.1.2.2h.2c.1.1.2.1.3.1c.2.1.3.1.4.1c.1.1.2.1.3.2c.1 0 .2.1.2.2c.1 0 .2.1.2.2c.1.1.1.2.1.4c0 .3-.1.6-.4.8c-.2.2-.5.3-.9.3zm2.3-4.5v-.6h.6v.6h-.6zm0 4.4V156h.6v3.6h-.6zm3.4-.6l1.1-3h.6l-1.5 3.7c-.2.4-.3.6-.5.8c-.2.2-.4.2-.7.2c-.3 0-.5 0-.8-.1l.2-.5c.2.1.4.2.6.2c.1 0 .3-.1.4-.2c.1-.1.2-.3.3-.5c.01-.01-1.6-3.6-1.6-3.6h.6l1.3 3zm4.8.1c-.3.4-.8.6-1.3.6c-.4 0-.7-.1-1-.3c-.3-.2-.4-.5-.4-.9c0-.3.2-.6.4-.8c.3-.2.7-.3 1.2-.3c.3 0 .7 0 1.1.1v-.1c0-.3-.1-.6-.3-.7c-.2-.2-.5-.3-.8-.3c-.4 0-.7.1-1.1.3l-.2-.5c.5-.2.9-.3 1.4-.3c.5 0 .9.2 1.1.4c.3.3.4.6.4 1.1c-.01-.01 0 2.2 0 2.2h-.5v-.5s-.02-.05 0 0zm-1.2.1c.3 0 .6 0 .8-.2c.3-.2.4-.4.4-.7v-.4c-.4-.1-.7-.1-1.1-.1c-.3 0-.6 0-.8.2c-.1.1-.2.3-.2.5c0 .2 0 .4.2.6c.2.1.4.1.7.1zm2.8.4v-5.1h.6s-.02 2.11 0 2.1c.3-.5.7-.7 1.2-.7c.4 0 .8.1 1 .4c.3.3.4.6.4 1.1c.01-.05 0 2.2 0 2.2h-.5s-.03-2.11 0-2.1c0-.4-.1-.6-.3-.8c-.2-.2-.4-.3-.7-.3c-.3 0-.6.1-.8.3c-.2.2-.3.5-.3.8c-.02.03 0 2.1 0 2.1h-.6zm6.9-2c0 1.1.5 1.9 1.6 2.6l-.2.4c-1.3-.7-2-1.7-2-3c0-1.3.7-2.3 2-3l.2.4c-1.1.6-1.6 1.5-1.6 2.6c-.03-.01 0 0 0 0c0 0-.03 0 0 0zm3.2 2v-4.4l-.9.3l-.1-.4l1.2-.4h.4v4.9h-.6zm2.3 0l2.2-4.4h-2.7v-.5h3.3v.4l-2.2 4.5h-.6zm6 0v-4.9h.5v4.4h2.8v.5H187zm7.6-.8v-1.4h-1.5v-.5h1.5v-1.5h.5v1.5h1.5v.5h-1.5v1.4h-.5zm5.4-.1c.4.3.8.5 1.2.5c.5 0 .8-.2 1.1-.6c.3-.4.4-.9.4-1.5v-.1c-.4.6-.8.8-1.4.8c-.5 0-.9-.1-1.2-.4c-.4-.3-.5-.7-.5-1.1c0-.5.2-.9.5-1.2c.3-.3.7-.5 1.3-.5c.5 0 .9.2 1.2.5c.4.4.6 1.1.6 1.9c0 .8-.1 1.4-.5 1.9c-.4.5-.9.8-1.5.8c-.5 0-1-.2-1.5-.6c0-.02.3-.4.3-.4c0 0 .02-.05 0 0zm1.4-1.4c.3 0 .6-.1.8-.3c.3-.2.4-.5.4-.8c0-.3-.1-.6-.4-.8c-.2-.2-.5-.3-.9-.3c-.3 0-.6.1-.8.3c-.2.3-.3.5-.3.9c0 .3.1.5.3.7c.2.2.5.3.9.3zm5.1 2.3v-4.9h.5v4.4h2.8v.5h-3.3zm6.1-2c0 1.3-.6 2.3-1.9 3l-.2-.4c1.1-.7 1.6-1.5 1.6-2.6c0-1.1-.5-2-1.6-2.6l.2-.4c1.3.7 1.9 1.7 1.9 3c.04-.01 0 0 0 0c0 0 .04 0 0 0z" stroke="none" fill="#000"/></g><g id="Polygon374095"><path d="m.6 149.6v-4.9h2c.6 0 1 .2 1.4.5c.3.3.5.7.5 1.2c0 .6-.2 1-.6 1.3c-.4.3-.8.4-1.4.4c-.01.03-.8 0-.8 0v1.5H.6zm1.1-2.4s.82-.03.8 0c.3 0 .5-.1.6-.2c.2-.2.3-.4.3-.6c0-.2-.1-.4-.3-.5c-.1-.2-.3-.2-.6-.2c0-.03-.8 0-.8 0v1.5zm6.7 1.8c-.3.5-.9.7-1.5.7c-.6 0-1-.2-1.4-.6c-.4-.3-.6-.8-.6-1.4c0-.5.2-1 .6-1.4c.3-.3.8-.5 1.3-.5c.6 0 1 .2 1.3.6c.4.4.5.8.5 1.4v.3H6c0 .2.1.4.3.5c.2.2.4.2.6.2c.3 0 .6-.1.9-.4c.02.04.6.6.6.6c0 0 .03-.02 0 0zM6 147.4h1.6c-.1-.2-.1-.4-.3-.6c-.1-.1-.3-.2-.5-.2c-.2 0-.4.1-.5.2c-.2.2-.3.4-.3.6zm6.1 1.7c-.3.4-.7.6-1.2.6c-.4 0-.8-.2-1.2-.6c-.3-.3-.5-.8-.5-1.4c0-.6.2-1.1.5-1.4c.4-.3.8-.5 1.2-.5c.5 0 .9.2 1.2.5c.02.04 0-1.8 0-1.8h1.1v5.1h-1.1v-.5s.02-.04 0 0zm-1.8-1.4c0 .3.1.6.3.8c.1.2.4.3.6.3c.3 0 .5-.1.7-.3c.1-.2.2-.5.2-.8c0-.3-.1-.5-.2-.7c-.2-.2-.4-.3-.7-.3c-.2 0-.5.1-.6.3c-.2.2-.3.4-.3.7c0 .02 0 0 0 0c0 0 0 .03 0 0zm6 1.5c-.3.3-.6.5-1.1.5c-.4 0-.7-.1-.9-.3c-.3-.2-.4-.5-.4-.9c0-.4.1-.7.4-.9c.3-.2.7-.3 1.1-.3c.3 0 .6.1.9.2v-.1c0-.5-.2-.7-.8-.7c-.3 0-.7.1-1 .2l-.3-.8c.5-.2 1-.3 1.5-.3c.6 0 1 .1 1.3.4c.2.3.4.7.4 1.2c-.04.02 0 2.2 0 2.2h-1.1v-.4s.03-.01 0 0zm-.8-.3c.3 0 .5 0 .6-.1c.2-.2.3-.3.3-.5v-.2c-.3-.1-.5-.2-.7-.2c-.3 0-.4.1-.6.2c-.1.1-.2.2-.2.4c0 .1.1.2.2.3c.1.1.2.1.4.1zm2.8.7v-5.1h1.1v5.1h-1.1zm2.1-2.6v-1.2h1.1v1.2h-1.1zm0 2.6v-1.1h1.1v1.1h-1.1zm4.4 0v-4.9h1.8c.6 0 1 .1 1.3.4c.4.3.5.7.5 1.2c0 .5-.1.9-.5 1.2c-.4.2-.8.4-1.4.4c.02-.03-1.2 0-1.2 0v1.7h-.5zm.5-2.2s1.24-.03 1.2 0c.4 0 .8-.1 1-.3c.3-.2.4-.5.4-.8c0-.4-.1-.6-.4-.8c-.2-.2-.5-.3-.9-.3h-1.3v2.2zm4.1 2.2v-5.1h.6v5.1h-.6zm4.2-.5c-.3.4-.8.6-1.3.6c-.4 0-.7-.1-1-.3c-.2-.2-.4-.5-.4-.9c0-.3.2-.6.5-.8c.2-.2.6-.3 1.1-.3c.3 0 .7 0 1.1.1v-.1c0-.3-.1-.6-.3-.7c-.2-.2-.4-.3-.8-.3c-.3 0-.7.1-1.1.3l-.1-.5c.4-.2.8-.3 1.3-.3c.5 0 .9.2 1.1.4c.3.3.4.6.4 1.1c.01-.01 0 2.2 0 2.2h-.5v-.5s-.01-.05 0 0zm-1.2.1c.3 0 .6 0 .8-.2c.3-.2.4-.4.4-.7v-.4c-.4-.1-.7-.1-1.1-.1c-.3 0-.6 0-.7.2c-.2.1-.3.3-.3.5c0 .2.1.4.2.6c.2.1.4.1.7.1zm4.1.5c-.6 0-1.1-.2-1.5-.6l.2-.3c.4.3.8.4 1.3.4c.2 0 .4 0 .5-.1c.2-.1.2-.3.2-.5c0-.1 0-.3-.2-.4c-.2 0-.4-.1-.7-.2c-.1 0-.2-.1-.3-.1c0 0-.1-.1-.2-.1c-.1 0-.2-.1-.3-.1c0-.1-.1-.1-.2-.2c0-.1-.1-.1-.1-.2c-.1-.1-.1-.2-.1-.3c0-.4.1-.6.4-.8c.2-.2.5-.3.9-.3c.4 0 .9.2 1.3.4l-.3.4c-.3-.2-.7-.3-1-.3c-.3 0-.4 0-.6.1c-.1.1-.1.2-.1.4v.2l.1.1c.1.1.2.1.3.2h.2c.1.1.2.1.3.1c.1.1.2.1.3.1c.1.1.2.1.3.2c.1 0 .2.1.3.2c.1 0 .1.1.2.2v.4c0 .3-.1.6-.3.8c-.3.2-.6.3-.9.3zm4-.2c-.2.1-.4.2-.6.2c-.3 0-.6-.1-.8-.3c-.1-.2-.2-.4-.2-.8c-.04.04 0-2.1 0-2.1h-.5v-.5h.5v-1.1h.5v1.1h1.2v.5h-1.2v2.1c0 .4.2.6.6.6c.2 0 .4-.1.5-.2c.04.05 0 .5 0 .5c0 0 .04.01 0 0zm1-4.3v-.6h.6v.6h-.6zm.1 4.4V146h.5v3.6h-.5zm1.7 0v-5.1h.6v3.5l1.9-2h.7l-1.5 1.5l1.6 2.1h-.7l-1.3-1.7l-.7.8v.9h-.6zm3.8.9l-.1-.3c.4-.1.5-.3.5-.6h-.2v-.7h.6v.6c0 .3-.1.5-.2.6c-.1.2-.3.3-.6.4zm5.2-.8c-.5 0-1-.2-1.5-.6l.3-.3c.4.3.8.4 1.3.4c.2 0 .4 0 .5-.1c.1-.1.2-.3.2-.5c0-.1-.1-.3-.2-.4c-.2 0-.4-.1-.7-.2c-.1 0-.2-.1-.3-.1c0 0-.1-.1-.2-.1c-.2 0-.2-.1-.3-.1l-.2-.2c-.1-.1-.1-.1-.1-.2c-.1-.1-.1-.2-.1-.3c0-.4.1-.6.4-.8c.2-.2.5-.3.8-.3c.5 0 .9.2 1.3.4l-.2.4c-.4-.2-.7-.3-1.1-.3c-.2 0-.3 0-.5.1c-.1.1-.2.2-.2.4c0 .1.1.1.1.2l.1.1l.2.2h.3c0 .1.1.1.3.1c.1.1.2.1.3.1c.1.1.2.1.3.2c.1 0 .2.1.3.2c.1 0 .1.1.2.2v.4c0 .3-.1.6-.3.8c-.3.2-.6.3-1 .3zm2.3-4.5v-.6h.7v.6h-.7zm.1 4.4V146h.5v3.6h-.5zm3.3-.6l1.2-3h.6s-1.57 3.72-1.6 3.7c-.1.4-.3.6-.5.8c-.2.2-.4.2-.7.2c-.2 0-.5 0-.7-.1l.1-.5c.2.1.4.2.6.2c.2 0 .3-.1.4-.2c.1-.1.2-.3.3-.5c.05-.01-1.6-3.6-1.6-3.6h.6l1.3 3zm4.8.1c-.3.4-.7.6-1.3.6c-.4 0-.7-.1-.9-.3c-.3-.2-.4-.5-.4-.9c0-.3.1-.6.4-.8c.3-.2.6-.3 1.1-.3c.4 0 .7 0 1.1.1v-.1c0-.3-.1-.6-.3-.7c-.1-.2-.4-.3-.8-.3c-.3 0-.7.1-1.1.3l-.1-.5c.4-.2.8-.3 1.3-.3c.5 0 .9.2 1.2.4c.2.3.3.6.3 1.1c.03-.01 0 2.2 0 2.2h-.5v-.5s.02-.05 0 0zm-1.2.1c.4 0 .6 0 .9-.2c.2-.2.3-.4.3-.7v-.4c-.3-.1-.7-.1-1-.1c-.4 0-.6 0-.8.2c-.2.1-.3.3-.3.5c0 .2.1.4.3.6c.1.1.4.1.6.1zm2.9.4v-5.1h.5s.02 2.11 0 2.1c.3-.5.7-.7 1.3-.7c.4 0 .7.1 1 .4c.2.3.3.6.3 1.1c.05-.05 0 2.2 0 2.2h-.5v-2.1c0-.4-.1-.6-.3-.8c-.1-.2-.4-.3-.7-.3c-.3 0-.6.1-.8.3c-.2.2-.3.5-.3.8c.02.03 0 2.1 0 2.1h-.5z" stroke="none" fill="#000"/></g><g id="Polygon374094"><path d="m.6 139.6v-4.9h1.1v2.1l1.9-2.1h1.4l-2 2.1l2 2.8H3.8l-1.6-2.1l-.5.6v1.5H.6zm7.1-.4c-.3.3-.6.5-1.1.5c-.4 0-.7-.1-.9-.3c-.3-.2-.4-.5-.4-.9c0-.4.1-.7.4-.9c.3-.2.6-.3 1.1-.3c.3 0 .6.1.9.2v-.1c0-.5-.2-.7-.8-.7c-.3 0-.7.1-1 .2l-.3-.8c.5-.2 1-.3 1.5-.3c.5 0 1 .1 1.2.4c.3.3.4.7.4 1.2c.04.02 0 2.2 0 2.2h-1v-.4s.01-.01 0 0zm-.8-.3c.3 0 .5 0 .6-.1c.2-.2.2-.3.2-.5v-.2c-.2-.1-.4-.2-.6-.2c-.3 0-.5.1-.6.2c-.1.1-.2.2-.2.4c0 .1.1.2.2.3c.1.1.2.1.4.1zm2.8 1.8v-4.9h1s.02.59 0 .6c.3-.4.7-.6 1.2-.6c.5 0 .9.2 1.2.5c.3.3.5.8.5 1.4c0 .6-.2 1.1-.5 1.4c-.3.4-.7.6-1.2.6c-.5 0-.9-.2-1.2-.6c.02.01 0 1.6 0 1.6h-1zm1-3c0 .3.1.6.3.8c.1.2.4.3.6.3c.3 0 .5-.1.7-.3c.1-.2.2-.5.2-.8c0-.3-.1-.5-.2-.7c-.2-.2-.4-.3-.7-.3c-.2 0-.5.1-.6.3c-.2.2-.3.4-.3.7c.01.02 0 0 0 0c0 0 .01.03 0 0zm5.9 1.5c-.3.3-.7.5-1.2.5c-.3 0-.6-.1-.9-.3c-.2-.2-.3-.5-.3-.9c0-.4.1-.7.4-.9c.2-.2.6-.3 1.1-.3c.3 0 .6.1.9.2v-.1c0-.5-.3-.7-.8-.7c-.4 0-.7.1-1.1.2l-.2-.8c.5-.2.9-.3 1.4-.3c.6 0 1 .1 1.3.4c.3.3.4.7.4 1.2c.01.02 0 2.2 0 2.2h-1v-.4s-.02-.01 0 0zm-.8-.3c.2 0 .4 0 .6-.1c.1-.2.2-.3.2-.5v-.2c-.2-.1-.4-.2-.7-.2c-.2 0-.4.1-.5.2c-.1.1-.2.2-.2.4c0 .1 0 .2.2.3c.1.1.2.1.4.1zm2.7.7v-5.1h1.1v2.7l1.2-1.4h1.3l-1.4 1.5l1.5 2.3h-1.3l-.9-1.5l-.4.4v1.1h-1.1zm4.2-2.6v-1.2h1.1v1.2h-1.1zm0 2.6v-1.1h1.1v1.1h-1.1zm4.4 0v-4.9h1.8c.6 0 1 .1 1.3.4c.4.3.5.7.5 1.2c0 .5-.2.9-.5 1.2c-.4.2-.8.4-1.4.4c0-.03-1.2 0-1.2 0v1.7h-.5zm.5-2.2s1.23-.03 1.2 0c.4 0 .8-.1 1-.3c.2-.2.4-.5.4-.8c0-.4-.1-.6-.4-.8c-.2-.2-.5-.3-.9-.3h-1.3v2.2zm4.1 2.2v-5.1h.5v5.1h-.5zm4.2-.5c-.3.4-.8.6-1.3.6c-.4 0-.7-.1-1-.3c-.3-.2-.4-.5-.4-.9c0-.3.2-.6.4-.8c.3-.2.7-.3 1.2-.3c.3 0 .7 0 1.1.1v-.1c0-.3-.1-.6-.3-.7c-.2-.2-.5-.3-.8-.3c-.4 0-.7.1-1.1.3l-.2-.5c.5-.2.9-.3 1.4-.3c.5 0 .9.2 1.1.4c.3.3.4.6.4 1.1c-.01-.01 0 2.2 0 2.2h-.5v-.5s-.03-.05 0 0zm-1.2.1c.3 0 .6 0 .8-.2c.3-.2.4-.4.4-.7v-.4c-.4-.1-.7-.1-1.1-.1c-.3 0-.6 0-.8.2c-.1.1-.2.3-.2.5c0 .2 0 .4.2.6c.2.1.4.1.7.1zm4 .5c-.5 0-1-.2-1.5-.6l.3-.3c.4.3.8.4 1.3.4c.2 0 .4 0 .5-.1c.1-.1.2-.3.2-.5c0-.1-.1-.3-.2-.4c-.2 0-.4-.1-.7-.2c-.1 0-.2-.1-.3-.1c0 0-.1-.1-.2-.1c-.2 0-.2-.1-.3-.1l-.2-.2c-.1-.1-.1-.1-.1-.2c-.1-.1-.1-.2-.1-.3c0-.4.1-.6.4-.8c.2-.2.5-.3.8-.3c.5 0 .9.2 1.3.4l-.2.4c-.4-.2-.7-.3-1.1-.3c-.2 0-.3 0-.5.1c-.1.1-.2.2-.2.4c0 .1.1.1.1.2l.1.1l.2.2h.3c0 .1.1.1.3.1c.1.1.2.1.3.1c.1.1.2.1.3.2c.1 0 .2.1.3.2c.1 0 .1.1.2.2v.4c0 .3-.1.6-.3.8c-.3.2-.6.3-1 .3zm4.1-.2c-.2.1-.4.2-.6.2c-.3 0-.6-.1-.8-.3c-.2-.2-.3-.4-.3-.8c.05.04 0-2.1 0-2.1h-.5v-.5h.5v-1.1h.6v1.1h1.1v.5h-1.1s-.02 2.07 0 2.1c0 .4.2.6.6.6c.2 0 .3-.1.5-.2c.02.05 0 .5 0 .5c0 0 .02.01 0 0zm1-4.3v-.6h.6v.6h-.6zm0 4.4V136h.6v3.6h-.6zm1.8 0v-5.1h.6v3.5l1.9-2h.7l-1.5 1.5l1.5 2.1h-.6l-1.3-1.7l-.7.8v.9h-.6z" stroke="none" fill="#000"/></g><g id="Polygon374093"><path d="m2.6 117.1c0 .3-.1.5-.3.7c-.2.2-.4.3-.6.3c-.3 0-.5-.1-.7-.3c-.2-.2-.2-.4-.2-.7c0-.2 0-.4.2-.6c.2-.2.4-.3.7-.3c.2 0 .4.1.6.3c.2.2.3.4.3.6c-.01.03 0 0 0 0c0 0-.01.04 0 0zm6.6 2.5v-4.9h1.7c.8 0 1.4.2 1.9.7c.5.5.7 1 .7 1.7c0 .7-.2 1.3-.7 1.8c-.5.5-1.1.7-1.9.7H9.2zm1.7-4.4H9.7v3.9h1.2c.6 0 1.1-.2 1.5-.6c.3-.3.5-.8.5-1.3v-.1c0-.5-.2-1-.5-1.3c-.4-.4-.9-.6-1.5-.6zm5.5.2v-.6h.6v.6h-.6zm-1.2 0v-.6h.6v.6h-.6zm1.9 3.6c-.2.4-.7.7-1.2.7c-.4 0-.8-.2-1-.4c-.3-.3-.4-.6-.4-1.1c.02.03 0-2.2 0-2.2h.6s-.04 2.09 0 2.1c0 .3.1.6.2.8c.2.2.4.3.8.3c.3 0 .5-.1.7-.3c.2-.2.3-.5.3-.8c.05-.05 0-2.1 0-2.1h.6v3.6h-.6v-.6s.05-.03 0 0zm1.6.6v-.3l2.4-2.9h-2.3v-.4h3v.3l-2.4 2.8h2.4v.5h-3.1zm6.2 1.1V116h.5s.02.71 0 .7c.4-.5.9-.8 1.4-.8c.5 0 .9.2 1.2.5c.4.4.5.8.5 1.4c0 .6-.1 1-.5 1.4c-.3.3-.7.5-1.2.5c-.6 0-1-.3-1.4-.8c.02.01 0 1.8 0 1.8h-.5zm1.8-1.5c.4 0 .7-.1.9-.4c.3-.2.4-.6.4-1c0-.4-.1-.8-.4-1c-.2-.3-.5-.4-.9-.4c-.3 0-.6.1-.9.4c-.3.3-.4.6-.4 1c0 .4.1.7.4 1c.3.3.6.4.9.4zm5.2-.1c-.3.4-.7.6-1.3.6c-.4 0-.7-.1-.9-.3c-.3-.2-.4-.5-.4-.9c0-.3.1-.6.4-.8c.3-.2.6-.3 1.1-.3c.4 0 .7 0 1.1.1v-.1c0-.3-.1-.6-.3-.7c-.1-.2-.4-.3-.8-.3c-.3 0-.7.1-1.1.3l-.1-.5c.4-.2.8-.3 1.3-.3c.5 0 .9.2 1.2.4c.2.3.3.6.3 1.1c.04-.01 0 2.2 0 2.2h-.5v-.5s.02-.05 0 0zm-1.2.1c.4 0 .6 0 .9-.2c.2-.2.3-.4.3-.7v-.4c-.3-.1-.7-.1-1-.1c-.4 0-.6 0-.8.2c-.2.1-.3.3-.3.5c0 .2.1.4.3.6c.1.1.4.1.6.1zm2.9.4v-5.1h.5v3.5l2-2h.6l-1.5 1.5l1.6 2.1h-.6l-1.3-1.7l-.8.8v.9h-.5zm6.9-.6c-.4.5-.9.7-1.5.7c-.5 0-1-.2-1.3-.5c-.4-.4-.5-.8-.5-1.4c0-.5.1-1 .5-1.4c.3-.3.7-.5 1.2-.5c.5 0 .9.2 1.2.5c.3.4.5.9.5 1.4v.2h-2.9c.1.4.2.7.4.9c.3.2.6.3.9.3c.4 0 .8-.2 1.1-.5c.03 0 .4.3.4.3c0 0-.03 0 0 0zm-2.8-1.4h2.3c0-.4-.1-.7-.3-.9c-.2-.2-.5-.3-.8-.3c-.3 0-.6.1-.8.3c-.2.2-.3.5-.4.9zm5.7 1.9c-.2.1-.4.2-.7.2c-.3 0-.5-.1-.7-.3c-.2-.2-.3-.4-.3-.8c.03.04 0-2.1 0-2.1h-.5v-.5h.5v-1.1h.6v1.1h1.1v.5h-1.1s-.04 2.07 0 2.1c0 .4.2.6.6.6c.2 0 .3-.1.5-.2v.5s0 .01 0 0zm1 .1v-5.1h.6v5.1h-.6zm1.8-4.4v-.6h.6v.6h-.6zm.1 4.4V116h.5v3.6h-.5zm1.6.9l-.1-.3c.3-.1.5-.3.4-.6h-.2v-.7h.6s.03.59 0 .6c0 .3 0 .5-.2.6c-.1.2-.3.3-.5.4zm4-.9v-5.1h.5v2.1c.3-.5.7-.7 1.2-.7c.5 0 .8.1 1.1.4c.2.3.3.6.3 1.1c.03-.05 0 2.2 0 2.2h-.5v-2.1c0-.4-.1-.6-.3-.8c-.2-.2-.4-.3-.7-.3c-.3 0-.6.1-.8.3c-.2.2-.3.5-.3.8v2.1h-.5zm4.3 0V116h.6v3.6h-.6zm1.6 0v-.3l2.4-2.9h-2.3v-.4h3v.3l-2.4 2.8h2.4v.5h-3.1zm4.2 0v-5.1h.5v5.1h-.5zm1.8 0V116h.5v3.6h-.5zm3.9 0v-5.1h.5v3.5l2-2h.7l-1.6 1.5l1.6 2.1h-.6l-1.3-1.7l-.8.8v.9h-.5zm6.5-.6c-.3.4-.7.7-1.3.7c-.4 0-.7-.2-1-.4c-.2-.3-.4-.6-.4-1.1c.04.03 0-2.2 0-2.2h.6s-.02 2.09 0 2.1c0 .3.1.6.2.8c.2.2.5.3.8.3c.3 0 .6-.1.8-.3c.2-.2.3-.5.3-.8c-.03-.05 0-2.1 0-2.1h.5v3.6h-.5v-.6s-.03-.03 0 0zm1.7.6V116h.6s-.05.93 0 .9c.1-.3.3-.5.5-.7c.3-.2.6-.3.9-.3c.03.02 0 .6 0 .6c0 0-.01 0 0 0c-.4 0-.8.1-1 .4c-.3.3-.4.7-.4 1.3c-.05-.04 0 1.4 0 1.4h-.6zm5.4-.6c-.3.4-.7.7-1.2.7c-.5 0-.8-.2-1-.4c-.3-.3-.4-.6-.4-1.1c-.01.03 0-2.2 0-2.2h.5s.03 2.09 0 2.1c0 .3.1.6.3.8c.2.2.4.3.7.3c.3 0 .6-.1.8-.3c.2-.2.3-.5.3-.8c.02-.05 0-2.1 0-2.1h.5v3.6h-.5v-.6s.02-.03 0 0zm1.8.6v-5.1h.5v5.1h-.5zm4.4-.6c-.3.4-.7.7-1.3.7c-.4 0-.7-.2-1-.4c-.2-.3-.4-.6-.4-1.1c.04.03 0-2.2 0-2.2h.6s-.02 2.09 0 2.1c0 .3.1.6.2.8c.2.2.5.3.8.3c.3 0 .6-.1.8-.3c.2-.2.3-.5.3-.8c-.03-.05 0-2.1 0-2.1h.5v3.6h-.5v-.6s-.03-.03 0 0zm1.7.6V116h.6s-.05.59 0 .6c.1-.2.3-.4.4-.5c.2-.1.4-.2.7-.2c.6 0 1 .2 1.2.7c.3-.5.7-.7 1.3-.7c.4 0 .7.1.9.4c.3.3.4.6.4 1.1v2.2h-.5s-.04-2.11 0-2.1c0-.4-.1-.6-.3-.8c-.2-.2-.4-.3-.7-.3c-.3 0-.5.1-.7.3c-.2.2-.3.5-.3.8c.02.01 0 2.1 0 2.1h-.5v-2.1c0-.4-.1-.6-.3-.8c-.1-.2-.4-.3-.6-.3c-.3 0-.6.1-.8.3c-.2.2-.2.5-.2.8c-.05.03 0 2.1 0 2.1h-.6z" stroke="none" fill="#000"/></g><g id="Polygon374092"><path d="m2.6 107.1c0 .3-.1.5-.3.7c-.2.2-.4.3-.6.3c-.3 0-.5-.1-.7-.3c-.2-.2-.2-.4-.2-.7c0-.2 0-.4.2-.6c.2-.2.4-.3.7-.3c.2 0 .4.1.6.3c.2.2.3.4.3.6c-.01.03 0 0 0 0c0 0-.01.04 0 0zm6.6 2.5v-4.9h1.8c.6 0 1 .1 1.4.4c.3.3.5.7.5 1.2c0 .5-.2.9-.6 1.2c-.4.2-.8.4-1.4.4c.04-.03-1.2 0-1.2 0v1.7h-.5zm.5-2.2s1.26-.03 1.3 0c.4 0 .7-.1.9-.3c.3-.2.4-.5.4-.8c0-.4-.1-.6-.3-.8c-.3-.2-.6-.3-1-.3H9.7v2.2zm6.4 1.7c-.3.4-.8.6-1.3.6c-.4 0-.7-.1-1-.3c-.2-.2-.4-.5-.4-.9c0-.3.2-.6.5-.8c.2-.2.6-.3 1.1-.3c.4 0 .7 0 1.1.1v-.1c0-.3-.1-.6-.3-.7c-.2-.2-.4-.3-.8-.3c-.3 0-.7.1-1.1.3l-.1-.5c.4-.2.8-.3 1.3-.3c.5 0 .9.2 1.1.4c.3.3.4.6.4 1.1c.02-.01 0 2.2 0 2.2h-.5v-.5s0-.05 0 0zm-1.2.1c.3 0 .6 0 .9-.2c.2-.2.3-.4.3-.7v-.4c-.4-.1-.7-.1-1.1-.1c-.3 0-.6 0-.7.2c-.2.1-.3.3-.3.5c0 .2.1.4.3.6c.1.1.3.1.6.1zm4.7.3c-.2.1-.4.2-.7.2c-.3 0-.5-.1-.7-.3c-.2-.2-.3-.4-.3-.8c.02.04 0-2.1 0-2.1h-.5v-.5h.5v-1.1h.6v1.1h1.1v.5h-1.1s-.04 2.07 0 2.1c0 .4.2.6.6.6c.1 0 .3-.1.5-.2v.5s-.01.01 0 0zm3.9-.5c-.4.5-.9.7-1.5.7c-.5 0-.9-.2-1.2-.5c-.4-.4-.6-.8-.6-1.4c0-.5.2-1 .5-1.4c.4-.3.8-.5 1.3-.5c.5 0 .9.2 1.2.5c.3.4.5.9.5 1.4c0 .1-.1.1-.1.2h-2.8c0 .4.2.7.4.9c.2.2.5.3.8.3c.5 0 .9-.2 1.2-.5l.3.3s.03 0 0 0zm-2.7-1.4h2.3c0-.4-.1-.7-.3-.9c-.2-.2-.5-.3-.8-.3c-.4 0-.6.1-.8.3c-.3.2-.4.5-.4.9zm3.8 2V106h.5s.04.61 0 .6c.3-.5.7-.7 1.3-.7c.4 0 .7.1 1 .4c.2.3.4.6.4 1.1c-.04-.05 0 2.2 0 2.2h-.6s.02-2.11 0-2.1c0-.4-.1-.6-.2-.8c-.2-.2-.5-.3-.8-.3c-.3 0-.6.1-.8.3c-.2.2-.3.5-.3.8c.04.03 0 2.1 0 2.1h-.5zm6.2-.1c-.2.1-.4.2-.7.2c-.3 0-.5-.1-.7-.3c-.2-.2-.3-.4-.3-.8v-2.1h-.5v-.5h.5v-1.1h.5v1.1h1.2v.5h-1.2s.04 2.07 0 2.1c0 .4.2.6.6.6c.2 0 .4-.1.6-.2c-.03.05 0 .5 0 .5c0 0-.03.01 0 0zm1 .1v-5.1h.5v5.1h-.5zm1.8-4.4v-.6h.6v.6h-.6zm0 4.4V106h.6v3.6h-.6zm5.2 1.1l-.5-.3s.51-.75.5-.8c-.4 0-.8-.2-1.1-.6c-.3-.3-.4-.7-.4-1.2c0-.5.2-1 .5-1.3c.4-.4.8-.6 1.3-.6c.6 0 1.1.2 1.5.6l-.4.4c-.3-.3-.7-.5-1.1-.5c-.3 0-.6.1-.9.4c-.2.3-.4.6-.4 1c0 .4.2.7.4 1c.3.3.6.4 1 .4c.4 0 .7-.2 1.1-.5l.3.3c-.4.4-.8.7-1.3.7c-.05-.02-.5 1-.5 1zm4.6-5.3v-.6h.6v.6h-.6zm-1.3 0v-.6h.7v.6h-.7zm1 4.3c-.6 0-1-.2-1.4-.6c-.3-.3-.5-.8-.5-1.3c0-.5.2-1 .5-1.3c.4-.4.8-.6 1.4-.6c.5 0 1 .2 1.3.6c.4.3.6.8.6 1.3c0 .5-.2 1-.6 1.3c-.3.4-.8.6-1.3.6zm0-.5c.4 0 .7-.1.9-.4c.3-.3.4-.6.4-1c0-.4-.1-.7-.4-1c-.2-.3-.6-.4-.9-.4c-.4 0-.7.1-1 .4c-.2.3-.4.6-.4 1c0 .4.2.7.4 1c.3.3.6.4 1 .4zm2.8 1.5V106h.6s-.03.71 0 .7c.3-.5.8-.8 1.4-.8c.4 0 .8.2 1.2.5c.3.4.5.8.5 1.4c0 .6-.2 1-.5 1.4c-.4.3-.8.5-1.2.5c-.6 0-1.1-.3-1.4-.8c-.03.01 0 1.8 0 1.8h-.6zm1.9-1.5c.3 0 .6-.1.9-.4c.2-.2.3-.6.3-1c0-.4-.1-.8-.3-1c-.3-.3-.6-.4-.9-.4c-.4 0-.7.1-1 .4c-.2.3-.3.6-.3 1c0 .4.1.7.3 1c.3.3.6.4 1 .4zm6.7.3c-.1.1-.4.2-.6.2c-.3 0-.6-.1-.8-.3c-.1-.2-.2-.4-.2-.8c-.03.04 0-2.1 0-2.1h-.5v-.5h.5v-1.1h.5v1.1h1.2v.5h-1.2v2.1c0 .4.2.6.6.6c.2 0 .4-.1.5-.2c.04.05 0 .5 0 .5c0 0 .04.01 0 0zm2.6.2c-.6 0-1-.2-1.4-.6c-.3-.3-.5-.8-.5-1.3c0-.5.2-1 .5-1.3c.4-.4.8-.6 1.4-.6c.5 0 1 .2 1.3.6c.4.3.6.8.6 1.3c0 .5-.2 1-.6 1.3c-.4.4-.8.6-1.3.6zm0-.5c.4 0 .7-.1.9-.4c.3-.3.4-.6.4-1c0-.4-.1-.7-.4-1c-.2-.3-.6-.4-.9-.4c-.4 0-.7.1-1 .4c-.2.3-.4.6-.4 1c0 .4.2.7.4 1c.3.3.6.4 1 .4zm2.8.4V106h.6s-.04.93 0 .9c.1-.3.3-.5.6-.7c.2-.2.5-.3.8-.3c.04.02 0 .6 0 .6c-.4 0-.8.1-1 .4c-.3.3-.4.7-.4 1.3c-.04-.04 0 1.4 0 1.4h-.6zm4.8.1c-.6 0-1.1-.3-1.4-.8v.7h-.5v-5.1h.5v2.2c.4-.5.8-.8 1.4-.8c.4 0 .9.2 1.2.5c.3.4.5.8.5 1.4c0 .6-.2 1-.5 1.4c-.3.3-.8.5-1.2.5zm-.1-.5c.4 0 .7-.1.9-.4c.2-.2.4-.6.4-1c0-.4-.2-.8-.4-1c-.3-.3-.6-.4-.9-.4c-.4 0-.7.1-.9.4c-.3.3-.4.6-.4 1c0 .4.1.7.4 1c.2.3.5.4.9.4zm5.2-.1c-.3.4-.8.6-1.3.6c-.4 0-.7-.1-1-.3c-.2-.2-.4-.5-.4-.9c0-.3.2-.6.5-.8c.2-.2.6-.3 1.1-.3c.4 0 .7 0 1.1.1v-.1c0-.3-.1-.6-.3-.7c-.2-.2-.4-.3-.8-.3c-.3 0-.7.1-1.1.3l-.1-.5c.4-.2.8-.3 1.3-.3c.5 0 .9.2 1.1.4c.3.3.4.6.4 1.1c.01-.01 0 2.2 0 2.2h-.5v-.5s0-.05 0 0zm-1.2.1c.3 0 .6 0 .9-.2c.2-.2.3-.4.3-.7v-.4c-.4-.1-.7-.1-1.1-.1c-.3 0-.6 0-.7.2c-.2.1-.3.3-.3.5c0 .2.1.4.2.6c.2.1.4.1.7.1zm4.1.5c-.6 0-1.1-.2-1.5-.6l.2-.3c.4.3.9.4 1.3.4c.2 0 .4 0 .5-.1c.2-.1.2-.3.2-.5c0-.1 0-.3-.2-.4c-.1 0-.4-.1-.7-.2c-.1 0-.2-.1-.3-.1c0 0-.1-.1-.2-.1c-.1 0-.2-.1-.3-.1c0-.1-.1-.1-.2-.2c0-.1-.1-.1-.1-.2c0-.1-.1-.2-.1-.3c0-.4.2-.6.4-.8c.2-.2.5-.3.9-.3c.4 0 .9.2 1.3.4l-.3.4c-.3-.2-.7-.3-1-.3c-.3 0-.4 0-.6.1c-.1.1-.1.2-.1.4v.2l.1.1c.1.1.2.1.3.2h.2c.1.1.2.1.3.1c.1.1.2.1.3.1c.1.1.2.1.3.2c.1 0 .2.1.3.2c.1 0 .1.1.2.2v.4c0 .3-.1.6-.3.8c-.3.2-.6.3-.9.3zm2.3-.1V106h.5v3.6h-.5zm3.9 0v-5.1h.5v3.5l2-2h.7l-1.6 1.5l1.6 2.1h-.6l-1.3-1.7l-.8.8v.9h-.5zm4 0v-5.1h.6v5.1h-.6zm1.8-4.4v-.6h.6v.6h-.6zm.1 4.4V106h.5v3.6h-.5zm1.8 1.1V106h.5v.7c.4-.5.8-.8 1.4-.8c.4 0 .8.2 1.2.5c.3.4.5.8.5 1.4c0 .6-.2 1-.5 1.4c-.4.3-.8.5-1.2.5c-.6 0-1.1-.3-1.4-.8c-.01.01 0 1.8 0 1.8h-.5zm1.8-1.5c.3 0 .6-.1.9-.4c.2-.2.4-.6.4-1c0-.4-.2-.8-.4-1c-.3-.3-.6-.4-.9-.4c-.4 0-.7.1-.9.4c-.3.3-.4.6-.4 1c0 .4.1.7.4 1c.2.3.5.4.9.4zm4 .5c-.6 0-1.1-.2-1.5-.6l.3-.3c.4.3.8.4 1.2.4c.2 0 .4 0 .6-.1c.1-.1.2-.3.2-.5c0-.1-.1-.3-.3-.4c-.1 0-.3-.1-.6-.2c-.2 0-.3-.1-.3-.1c-.1 0-.2-.1-.3-.1c-.1 0-.2-.1-.2-.1c-.1-.1-.2-.1-.2-.2l-.2-.2v-.3c0-.4.1-.6.3-.8c.3-.2.5-.3.9-.3c.5 0 .9.2 1.3.4l-.2.4c-.4-.2-.8-.3-1.1-.3c-.2 0-.4 0-.5.1c-.1.1-.2.2-.2.4v.2c.1 0 .1.1.2.1c0 .1.1.1.2.2h.2c.1.1.2.1.3.1c.2.1.3.1.4.1c.1.1.2.1.3.2c.1 0 .2.1.2.2c.1 0 .2.1.2.2c.1.1.1.2.1.4c0 .3-.1.6-.4.8c-.2.2-.5.3-.9.3zm1.5.8l3.3-6.5h.5l-3.3 6.5h-.5zm5.1.2l-.6-.3s.58-.75.6-.8c-.5 0-.8-.2-1.1-.6c-.3-.3-.4-.7-.4-1.2c0-.5.1-1 .5-1.3c.3-.4.8-.6 1.3-.6c.6 0 1.1.2 1.5.6l-.4.4c-.3-.3-.7-.5-1.1-.5c-.4 0-.7.1-.9.4c-.3.3-.4.6-.4 1c0 .4.1.7.4 1c.2.3.6.4.9.4c.4 0 .8-.2 1.1-.5l.4.3c-.4.4-.8.7-1.4.7c.02-.02-.4 1-.4 1zm5.6-1.7c-.3.5-.8.7-1.4.7c-.5 0-1-.2-1.3-.5c-.4-.4-.5-.8-.5-1.4c0-.5.1-1 .4-1.4c.4-.3.8-.5 1.3-.5c.5 0 .9.2 1.2.5c.3.4.5.9.5 1.4v.2h-2.9c0 .4.2.7.4.9c.3.2.5.3.9.3c.4 0 .8-.2 1.1-.5l.3.3s.05 0 0 0zm-2.7-1.4h2.3c0-.4-.1-.7-.3-.9c-.2-.2-.5-.3-.8-.3c-.3 0-.6.1-.8.3c-.2.2-.4.5-.4.9zm3.8 2V106h.6s-.04.93 0 .9c.1-.3.3-.5.6-.7c.2-.2.5-.3.8-.3c.03.02 0 .6 0 .6c0 0-.01 0 0 0c-.4 0-.8.1-1 .4c-.3.3-.4.7-.4 1.3c-.04-.04 0 1.4 0 1.4h-.6zm4 1.1l-.6-.3s.59-.75.6-.8c-.4 0-.8-.2-1.1-.6c-.3-.3-.4-.7-.4-1.2c0-.5.2-1 .5-1.3c.4-.4.8-.6 1.3-.6c.6 0 1.1.2 1.5.6l-.4.4c-.3-.3-.7-.5-1.1-.5c-.3 0-.7.1-.9.4c-.2.3-.4.6-.4 1c0 .4.2.7.4 1c.3.3.6.4 1 .4c.4 0 .7-.2 1.1-.5l.3.3c-.4.4-.8.7-1.4.7c.04-.02-.4 1-.4 1zm5.7-1.7c-.4.5-.9.7-1.5.7c-.5 0-1-.2-1.3-.5c-.4-.4-.5-.8-.5-1.4c0-.5.1-1 .5-1.4c.3-.3.7-.5 1.2-.5c.5 0 .9.2 1.2.5c.3.4.5.9.5 1.4v.2h-2.9c.1.4.2.7.4.9c.3.2.6.3.9.3c.4 0 .8-.2 1.1-.5c.03 0 .4.3.4.3c0 0-.04 0 0 0zm-2.8-1.4h2.3c0-.4-.1-.7-.3-.9c-.2-.2-.5-.3-.8-.3c-.3 0-.6.1-.8.3c-.2.2-.3.5-.4.9zm4.9 2l-1.6-3.6h.6l1.2 3l1.2-3h.6l-1.6 3.6h-.4zm5.7-.6c-.4.5-.9.7-1.5.7c-.5 0-.9-.2-1.2-.5c-.4-.4-.6-.8-.6-1.4c0-.5.2-1 .5-1.4c.4-.3.8-.5 1.3-.5c.5 0 .9.2 1.2.5c.3.4.5.9.5 1.4v.2h-2.9c0 .4.2.7.4.9c.2.2.5.3.9.3c.4 0 .8-.2 1.1-.5l.3.3s.03 0 0 0zm-2.7-1.4h2.3c0-.4-.1-.7-.3-.9c-.2-.2-.5-.3-.8-.3c-.4 0-.6.1-.8.3c-.3.2-.4.5-.4.9zm7.1 2.1c-.6 0-1.1-.2-1.5-.6l.3-.3c.4.3.8.4 1.2.4c.3 0 .4 0 .6-.1c.1-.1.2-.3.2-.5c0-.1-.1-.3-.3-.4c-.1 0-.3-.1-.6-.2c-.2 0-.3-.1-.3-.1c-.1 0-.2-.1-.3-.1c-.1 0-.2-.1-.2-.1c-.1-.1-.2-.1-.2-.2l-.2-.2v-.3c0-.4.1-.6.3-.8c.3-.2.5-.3.9-.3c.5 0 .9.2 1.3.4l-.2.4c-.4-.2-.8-.3-1.1-.3c-.2 0-.4 0-.5.1c-.1.1-.2.2-.2.4c0 .1 0 .1.1.2s0 .1.1.1c0 .1.1.1.2.2h.2c.1.1.2.1.3.1c.2.1.3.1.4.1c.1.1.2.1.3.2c.1 0 .2.1.2.2c.1 0 .2.1.2.2c.1.1.1.2.1.4c0 .3-.1.6-.4.8c-.2.2-.5.3-.9.3zm2.3-4.5v-.6h.6v.6h-.6zm0 4.4V106h.6v3.6h-.6zm3 .1c-.5 0-1-.2-1.5-.6l.3-.3c.4.3.8.4 1.3.4c.2 0 .4 0 .5-.1c.1-.1.2-.3.2-.5c0-.1-.1-.3-.2-.4c-.2 0-.4-.1-.7-.2c-.1 0-.2-.1-.3-.1c0 0-.1-.1-.3-.1c-.1 0-.2-.1-.2-.1l-.2-.2l-.2-.2v-.3c0-.4.1-.6.4-.8c.2-.2.5-.3.8-.3c.5 0 .9.2 1.3.4l-.2.4c-.4-.2-.7-.3-1.1-.3c-.2 0-.4 0-.5.1c-.1.1-.2.2-.2.4c0 .1 0 .1.1.2l.1.1l.2.2h.3c0 .1.1.1.3.1c.1.1.2.1.3.1c.1.1.2.1.3.2c.1 0 .2.1.3.2c0 0 .1.1.1.2c.1.1.1.2.1.4c0 .3-.1.6-.3.8c-.3.2-.6.3-1 .3zm4.1-.2c-.2.1-.4.2-.6.2c-.4 0-.6-.1-.8-.3c-.2-.2-.3-.4-.3-.8c.03.04 0-2.1 0-2.1h-.5v-.5h.5v-1.1h.6v1.1h1.1v.5h-1.1s-.03 2.07 0 2.1c0 .4.2.6.6.6c.2 0 .3-.1.5-.2v.5s.01.01 0 0zm3.9-.5c-.4.5-.9.7-1.4.7c-.6 0-1-.2-1.3-.5c-.4-.4-.6-.8-.6-1.4c0-.5.2-1 .5-1.4c.4-.3.8-.5 1.3-.5c.5 0 .9.2 1.2.5c.3.4.5.9.5 1.4v.2h-2.9c0 .4.2.7.4.9c.2.2.5.3.9.3c.4 0 .8-.2 1.1-.5l.3.3s.04 0 0 0zm-2.7-1.4h2.3c0-.4-.1-.7-.3-.9c-.2-.2-.5-.3-.8-.3c-.3 0-.6.1-.8.3c-.2.2-.4.5-.4.9zm3.8 2V106h.6s-.05.59 0 .6c.1-.2.3-.4.4-.5c.2-.1.4-.2.7-.2c.6 0 1 .2 1.2.7c.3-.5.7-.7 1.3-.7c.4 0 .7.1.9.4c.3.3.4.6.4 1.1v2.2h-.5s-.04-2.11 0-2.1c0-.4-.1-.6-.3-.8c-.2-.2-.4-.3-.7-.3c-.3 0-.5.1-.7.3c-.2.2-.3.5-.3.8c.02.01 0 2.1 0 2.1h-.5v-2.1c0-.4-.1-.6-.3-.8c-.1-.2-.4-.3-.6-.3c-.3 0-.6.1-.8.3c-.2.2-.2.5-.2.8c-.05.03 0 2.1 0 2.1h-.6zm6.7-4.4v-.6h.6v.6h-.6zm0 4.4V106h.5v3.6h-.5z" stroke="none" fill="#000"/></g><g id="Polygon374091"><path d="m2.6 97.1c0 .3-.1.5-.3.7c-.2.2-.4.3-.6.3c-.3 0-.5-.1-.7-.3c-.2-.2-.2-.4-.2-.7c0-.2 0-.4.2-.6c.2-.2.4-.3.7-.3c.2 0 .4.1.6.3c.2.2.3.4.3.6c-.01.03 0 0 0 0c0 0-.01.04 0 0zm8.9 2.5v-1.2H8.9l-.1-.4l2.8-3.3h.5v3.3h.7v.4h-.7v1.2h-.6zm-2-1.6h2v-2.6l-2 2.6zm8.8 1.1c-.3.4-.8.6-1.3.6c-.4 0-.7-.1-1-.3c-.2-.2-.4-.5-.4-.9c0-.3.2-.6.5-.8c.2-.2.6-.3 1.1-.3c.3 0 .7 0 1.1.1v-.1c0-.3-.1-.6-.3-.7c-.2-.2-.4-.3-.8-.3c-.4 0-.7.1-1.1.3l-.1-.5c.4-.2.8-.3 1.3-.3c.5 0 .9.2 1.1.4c.3.3.4.6.4 1.1c.01-.01 0 2.2 0 2.2h-.5v-.5s-.01-.05 0 0zm-1.2.1c.3 0 .6 0 .8-.2c.3-.2.4-.4.4-.7v-.4c-.4-.1-.7-.1-1.1-.1c-.3 0-.6 0-.7.2c-.2.1-.3.3-.3.5c0 .2.1.4.2.6c.2.1.4.1.7.1zm5.8-.3c-.4.5-.9.8-1.4.8c-.5 0-.9-.2-1.2-.5c-.4-.4-.6-.8-.6-1.4c0-.6.2-1 .6-1.4c.3-.3.7-.5 1.2-.5c.5 0 1 .3 1.4.8c-.04-.03 0-2.2 0-2.2h.5v5.1h-.5v-.7s-.04-.03 0 0zm-1.3.3c.3 0 .6-.1.9-.4c.3-.3.4-.6.4-1c0-.4-.1-.8-.4-1c-.3-.3-.6-.4-.9-.4c-.4 0-.7.1-.9.4c-.3.2-.4.6-.4 1c0 .4.1.8.4 1c.2.3.5.4.9.4zm6.1-.2c-.4.5-.9.7-1.5.7c-.5 0-.9-.2-1.3-.5c-.3-.4-.5-.8-.5-1.4c0-.5.1-1 .5-1.4c.3-.3.7-.5 1.2-.5c.5 0 .9.2 1.2.5c.4.4.5.9.5 1.4v.2h-2.9c.1.4.2.7.4.9c.3.2.6.3.9.3c.4 0 .8-.2 1.1-.5c.04 0 .4.3.4.3c0 0-.02 0 0 0zm-2.8-1.4h2.4c-.1-.4-.2-.7-.4-.9c-.2-.2-.5-.3-.8-.3c-.3 0-.6.1-.8.3c-.2.2-.3.5-.4.9zm5.7 1.9c-.2.1-.4.2-.6.2c-.4 0-.6-.1-.8-.3c-.2-.2-.3-.4-.3-.8c.04.04 0-2.1 0-2.1h-.5v-.5h.5v-1.1h.6v1.1h1.1v.5h-1.1s-.02 2.07 0 2.1c0 .4.2.6.6.6c.2 0 .3-.1.5-.2v.5s.01.01 0 0zm3.1.1v-5.1h.5v3.5l2-2h.6l-1.5 1.5l1.6 2.1h-.7l-1.3-1.7l-.7.8v.9h-.5zm6.3-.5c-.3.4-.8.6-1.3.6c-.4 0-.7-.1-1-.3c-.3-.2-.4-.5-.4-.9c0-.3.2-.6.4-.8c.3-.2.7-.3 1.2-.3c.3 0 .7 0 1.1.1v-.1c0-.3-.1-.6-.3-.7c-.2-.2-.5-.3-.8-.3c-.4 0-.7.1-1.1.3l-.2-.5c.5-.2.9-.3 1.4-.3c.5 0 .9.2 1.1.4c.3.3.4.6.4 1.1c-.01-.01 0 2.2 0 2.2h-.5v-.5s-.02-.05 0 0zm-1.2.1c.3 0 .6 0 .8-.2c.3-.2.4-.4.4-.7v-.4c-.4-.1-.7-.1-1.1-.1c-.3 0-.6 0-.8.2c-.1.1-.2.3-.2.5c0 .2 0 .4.2.6c.2.1.4.1.7.1zM43 99l1.2-3h.6s-1.53 3.72-1.5 3.7c-.2.4-.4.6-.5.8c-.2.2-.5.2-.7.2c-.3 0-.6 0-.8-.1l.2-.5c.1.1.3.2.5.2c.2 0 .3-.1.5-.2c.1-.1.2-.3.3-.5c-.02-.01-1.7-3.6-1.7-3.6h.6l1.3 3zm2.6.6V96h.6s-.02.59 0 .6c.1-.2.3-.4.5-.5c.1-.1.4-.2.6-.2c.6 0 1 .2 1.2.7c.3-.5.8-.7 1.3-.7c.4 0 .7.1 1 .4c.2.3.3.6.3 1.1c.03-.04 0 2.2 0 2.2h-.5v-2.1c0-.4-.1-.6-.3-.8c-.1-.2-.4-.3-.7-.3c-.2 0-.5.1-.7.3c-.2.2-.3.5-.3.8c.05.01 0 2.1 0 2.1h-.5s.02-2.13 0-2.1c0-.4-.1-.6-.2-.8c-.2-.2-.4-.3-.7-.3c-.3 0-.5.1-.7.3c-.2.2-.3.5-.3.8c-.02.03 0 2.1 0 2.1h-.6zm9.1-.5c-.4.4-.8.6-1.3.6c-.4 0-.7-.1-1-.3c-.3-.2-.4-.5-.4-.9c0-.3.1-.6.4-.8c.3-.2.7-.3 1.1-.3c.4 0 .8 0 1.2.1v-.1c0-.3-.1-.6-.3-.7c-.2-.2-.5-.3-.8-.3c-.4 0-.7.1-1.1.3l-.2-.5c.4-.2.9-.3 1.3-.3c.6 0 .9.2 1.2.4c.3.3.4.6.4 1.1c-.02-.01 0 2.2 0 2.2h-.5v-.5s-.04-.05 0 0zm-1.2.1c.3 0 .6 0 .8-.2c.3-.2.4-.4.4-.7v-.4c-.4-.1-.8-.1-1.1-.1c-.3 0-.6 0-.8.2c-.2.1-.3.3-.3.5c0 .2.1.4.3.6c.2.1.4.1.7.1zm2.6.4v-.3l2.4-2.9h-2.3v-.4h3.1v.3l-2.5 2.8h2.5v.5h-3.2zm8.6-.5c-.3.4-.7.6-1.3.6c-.4 0-.7-.1-1-.3c-.2-.2-.4-.5-.4-.9c0-.3.2-.6.5-.8c.3-.2.6-.3 1.1-.3c.4 0 .7 0 1.1.1v-.1c0-.3-.1-.6-.3-.7c-.2-.2-.4-.3-.8-.3c-.3 0-.7.1-1.1.3l-.1-.5c.4-.2.8-.3 1.3-.3c.5 0 .9.2 1.2.4c.2.3.3.6.3 1.1c.02-.01 0 2.2 0 2.2h-.5v-.5s.01-.05 0 0zm-1.2.1c.3 0 .6 0 .9-.2c.2-.2.3-.4.3-.7v-.4c-.4-.1-.7-.1-1.1-.1c-.3 0-.5 0-.7.2c-.2.1-.3.3-.3.5c0 .2.1.4.3.6c.1.1.4.1.6.1zm4.3-.2l1.1-3h.6L68 99.7c-.2.4-.3.6-.5.8c-.2.2-.4.2-.7.2c-.3 0-.5 0-.8-.1l.2-.5c.2.1.4.2.6.2c.1 0 .3-.1.4-.2c.1-.1.2-.3.3-.5c.01-.01-1.6-3.6-1.6-3.6h.6l1.3 3zm4.8.1c-.3.4-.8.6-1.3.6c-.4 0-.7-.1-1-.3c-.2-.2-.4-.5-.4-.9c0-.3.2-.6.4-.8c.3-.2.7-.3 1.2-.3c.3 0 .7 0 1.1.1v-.1c0-.3-.1-.6-.3-.7c-.2-.2-.5-.3-.8-.3c-.4 0-.7.1-1.1.3l-.2-.5c.5-.2.9-.3 1.4-.3c.5 0 .9.2 1.1.4c.3.3.4.6.4 1.1v2.2h-.5v-.5s-.02-.05 0 0zm-1.2.1c.3 0 .6 0 .8-.2c.3-.2.4-.4.4-.7v-.4c-.4-.1-.7-.1-1.1-.1c-.3 0-.6 0-.8.2c-.1.1-.2.3-.2.5c0 .2.1.4.2.6c.2.1.4.1.7.1zm2.8.4v-5.1h.6v3.5l1.9-2h.7l-1.5 1.5l1.6 2.1h-.7l-1.3-1.7l-.7.8v.9h-.6z" stroke="none" fill="#000"/></g><g id="Polygon374090"><path d="m2.6 87.1c0 .3-.1.5-.3.7c-.2.2-.4.3-.6.3c-.3 0-.5-.1-.7-.3c-.2-.2-.2-.4-.2-.7c0-.2 0-.4.2-.6c.2-.2.4-.3.7-.3c.2 0 .4.1.6.3c.2.2.3.4.3.6c-.01.03 0 0 0 0c0 0-.01.04 0 0zm6.6 2.5v-4.9h.5v2.9l2.9-2.9h.7l-2.1 2.1l2.2 2.8h-.7l-1.9-2.4l-1.1 1.1v1.3h-.5zM17 89c-.4.5-.9.7-1.5.7c-.5 0-.9-.2-1.3-.5c-.3-.4-.5-.8-.5-1.4c0-.5.2-1 .5-1.4c.3-.3.7-.5 1.2-.5c.6 0 1 .2 1.3.5c.3.4.4.9.4 1.4v.2h-2.8c0 .4.1.7.4.9c.2.2.5.3.8.3c.5 0 .8-.2 1.2-.5c-.03 0 .3.3.3.3zm-2.7-1.4h2.3c0-.4-.2-.7-.4-.9c-.2-.2-.4-.3-.8-.3c-.3 0-.6.1-.8.3c-.2.2-.3.5-.3.9zm3.8 2V86h.5v.6c.3-.5.7-.7 1.3-.7c.4 0 .7.1 1 .4c.2.3.3.6.3 1.1c.04-.05 0 2.2 0 2.2h-.5v-2.1c0-.4-.1-.6-.3-.8c-.1-.2-.4-.3-.7-.3c-.3 0-.6.1-.8.3c-.2.2-.3.5-.3.8v2.1h-.5zm7.2-.7c-.4.5-.8.8-1.4.8c-.5 0-.9-.2-1.2-.5c-.4-.4-.5-.8-.5-1.4c0-.6.1-1 .5-1.4c.3-.3.7-.5 1.2-.5c.6 0 1 .3 1.4.8c-.01-.03 0-2.2 0-2.2h.5v5.1h-.5v-.7s-.01-.03 0 0zm-1.3.3c.4 0 .7-.1.9-.4c.3-.3.4-.6.4-1c0-.4-.1-.8-.4-1c-.2-.3-.5-.4-.9-.4c-.4 0-.7.1-.9.4c-.3.2-.4.6-.4 1c0 .4.2.8.4 1c.2.3.5.4.9.4zm3-4v-.6h.7v.6h-.7zm.1 4.4V86h.5v3.6h-.5zm1.8 0v-5.1h.6v5.1h-.6zm1.8-4.4v-.6h.6v.6h-.6zm.1 4.4V86h.5v3.6h-.5zm4.7.7c-.3.3-.7.4-1.3.4c-.7 0-1.2-.1-1.7-.5l.3-.4c.4.3.9.5 1.4.5c.4 0 .7-.1.9-.4c.3-.2.4-.5.4-.9v-.4c-.4.5-.9.7-1.5.7c-.4 0-.8-.1-1.1-.5c-.4-.3-.6-.7-.6-1.2c0-.5.2-.9.6-1.2c.3-.3.7-.5 1.1-.5c.6 0 1.1.2 1.5.7c-.04.03 0-.6 0-.6h.5v3c0 .5-.2.9-.5 1.3zm-1.3-1.5c.3 0 .6-.1.9-.3c.2-.2.4-.5.4-.9c0-.4-.2-.6-.4-.9c-.3-.2-.6-.3-.9-.3c-.4 0-.7.1-.9.3c-.3.2-.4.5-.4.9c0 .4.1.7.4.9c.2.2.5.3.9.3zm1.1-4.2c0 .2-.1.5-.3.6c-.2.2-.4.2-.7.2c-.3 0-.5 0-.7-.2c-.2-.1-.3-.4-.3-.6h.4c0 .3.3.4.6.4c.3 0 .5-.1.6-.4c.04-.03.4 0 .4 0c0 0 .03-.03 0 0zm1.9.6v-.6h.6v.6h-.6zm.1 4.4V86h.5v3.6h-.5zm1.7 0V86h.6s-.02.61 0 .6c.3-.5.7-.7 1.2-.7c.5 0 .8.1 1 .4c.3.3.4.6.4 1.1c.01-.05 0 2.2 0 2.2h-.5s-.03-2.11 0-2.1c0-.4-.1-.6-.3-.8c-.2-.2-.4-.3-.7-.3c-.3 0-.6.1-.8.3c-.2.2-.3.5-.3.8c-.02.03 0 2.1 0 2.1h-.6zm7.3-.7c-.4.5-.9.8-1.4.8c-.5 0-.9-.2-1.2-.5c-.4-.4-.6-.8-.6-1.4c0-.6.2-1 .6-1.4c.3-.3.7-.5 1.2-.5c.5 0 1 .3 1.4.8c-.04-.03 0-2.2 0-2.2h.5v5.1h-.5v-.7s-.04-.03 0 0zm-1.3.3c.3 0 .6-.1.9-.4c.3-.3.4-.6.4-1c0-.4-.1-.8-.4-1c-.3-.3-.6-.4-.9-.4c-.4 0-.7.1-.9.4c-.3.2-.4.6-.4 1c0 .4.1.8.4 1c.2.3.5.4.9.4zm6.1-.2c-.4.5-.9.7-1.5.7c-.5 0-.9-.2-1.3-.5c-.3-.4-.5-.8-.5-1.4c0-.5.1-1 .5-1.4c.3-.3.7-.5 1.2-.5c.5 0 .9.2 1.2.5c.4.4.5.9.5 1.4v.2h-2.9c.1.4.2.7.4.9c.3.2.6.3.9.3c.4 0 .8-.2 1.1-.5c.04 0 .4.3.4.3c0 0-.02 0 0 0zm-2.8-1.4h2.4c-.1-.4-.2-.7-.4-.9c-.2-.2-.5-.3-.8-.3c-.3 0-.6.1-.8.3c-.2.2-.3.5-.4.9zm3.8 2V86h.6v.6c.3-.5.7-.7 1.2-.7c.5 0 .8.1 1 .4c.3.3.4.6.4 1.1c.01-.05 0 2.2 0 2.2h-.5s-.03-2.11 0-2.1c0-.4-.1-.6-.3-.8c-.2-.2-.4-.3-.7-.3c-.3 0-.6.1-.8.3c-.2.2-.3.5-.3.8v2.1h-.6zm6.5 0v-5.1h.5v3.5l2-2h.6l-1.5 1.5l1.6 2.1h-.7l-1.3-1.7l-.7.8v.9h-.5zm6.3-.5c-.4.4-.8.6-1.3.6c-.4 0-.7-.1-1-.3c-.3-.2-.4-.5-.4-.9c0-.3.1-.6.4-.8c.3-.2.7-.3 1.1-.3c.4 0 .8 0 1.2.1v-.1c0-.3-.1-.6-.3-.7c-.2-.2-.5-.3-.8-.3c-.4 0-.7.1-1.1.3l-.2-.5c.4-.2.9-.3 1.3-.3c.6 0 .9.2 1.2.4c.3.3.4.6.4 1.1c-.02-.01 0 2.2 0 2.2h-.5v-.5s-.04-.05 0 0zm-1.2.1c.3 0 .6 0 .8-.2c.3-.2.4-.4.4-.7v-.4c-.4-.1-.8-.1-1.1-.1c-.3 0-.6 0-.8.2c-.2.1-.3.3-.3.5c0 .2.1.4.3.6c.2.1.4.1.7.1zm2.8 1.5V86h.6s-.04.71 0 .7c.3-.5.8-.8 1.4-.8c.4 0 .8.2 1.2.5c.3.4.5.8.5 1.4c0 .6-.2 1-.5 1.4c-.4.3-.8.5-1.2.5c-.6 0-1.1-.3-1.4-.8c-.04.01 0 1.8 0 1.8h-.6zm1.9-1.5c.3 0 .6-.1.9-.4c.2-.2.3-.6.3-1c0-.4-.1-.8-.3-1c-.3-.3-.6-.4-.9-.4c-.4 0-.7.1-1 .4c-.2.3-.4.6-.4 1c0 .4.2.7.4 1c.3.3.6.4 1 .4zm5.2-.1c-.4.4-.8.6-1.3.6c-.4 0-.7-.1-1-.3c-.3-.2-.4-.5-.4-.9c0-.3.1-.6.4-.8c.3-.2.7-.3 1.1-.3c.4 0 .8 0 1.2.1v-.1c0-.3-.1-.6-.3-.7c-.2-.2-.5-.3-.8-.3c-.4 0-.7.1-1.1.3l-.2-.5c.4-.2.9-.3 1.3-.3c.6 0 .9.2 1.2.4c.3.3.4.6.4 1.1c-.02-.01 0 2.2 0 2.2h-.5v-.5s-.04-.05 0 0zm-1.2.1c.3 0 .6 0 .8-.2c.3-.2.4-.4.4-.7v-.4c-.4-.1-.8-.1-1.1-.1c-.3 0-.6 0-.8.2c-.2.1-.3.3-.3.5c0 .2.1.4.3.6c.2.1.4.1.7.1zm2.8.4V86h.6s-.03.61 0 .6c.3-.5.7-.7 1.2-.7c.4 0 .8.1 1 .4c.3.3.4.6.4 1.1c-.01-.05 0 2.2 0 2.2h-.5s-.05-2.11 0-2.1c0-.4-.1-.6-.3-.8c-.2-.2-.4-.3-.7-.3c-.4 0-.6.1-.8.3c-.2.2-.3.5-.3.8c-.03.03 0 2.1 0 2.1h-.6zm6.7-.5c-.3.4-.7.6-1.3.6c-.3 0-.7-.1-.9-.3c-.3-.2-.4-.5-.4-.9c0-.3.1-.6.4-.8c.3-.2.6-.3 1.1-.3c.4 0 .8 0 1.1.1v-.1c0-.3-.1-.6-.3-.7c-.1-.2-.4-.3-.8-.3c-.3 0-.7.1-1.1.3l-.1-.5c.4-.2.9-.3 1.3-.3c.5 0 .9.2 1.2.4c.2.3.3.6.3 1.1c.04-.01 0 2.2 0 2.2h-.5v-.5s.03-.05 0 0zm-1.2.1c.4 0 .6 0 .9-.2c.2-.2.3-.4.3-.7v-.4c-.3-.1-.7-.1-1-.1c-.4 0-.6 0-.8.2c-.2.1-.3.3-.3.5c0 .2.1.4.3.6c.2.1.4.1.6.1zm2.9.4V86h.5s.03.61 0 .6c.3-.5.7-.7 1.3-.7c.4 0 .7.1 1 .4c.2.3.4.6.4 1.1c-.04-.05 0 2.2 0 2.2h-.6s.02-2.11 0-2.1c0-.4-.1-.6-.2-.8c-.2-.2-.5-.3-.8-.3c-.3 0-.6.1-.8.3c-.2.2-.3.5-.3.8c.03.03 0 2.1 0 2.1h-.5zm4.1.9l-.1-.3c.4-.1.5-.3.5-.6h-.3v-.7h.7s-.02.59 0 .6c0 .3-.1.5-.2.6c-.1.2-.3.3-.6.4zm4-5.3v-.6h.6v.6h-.6zm.1 4.4V86h.5v3.6h-.5zm1.8 0v-5.1h.5v3.5l2-2h.6l-1.5 1.5l1.6 2.1h-.7l-1.3-1.7l-.7.8v.9h-.5zm4-4.4v-.6h.6v.6h-.6zm0 4.4V86h.5v3.6h-.5zm3.9 1.1V86h.5s.02.71 0 .7c.4-.5.9-.8 1.4-.8c.5 0 .9.2 1.2.5c.4.4.5.8.5 1.4c0 .6-.1 1-.5 1.4c-.3.3-.7.5-1.2.5c-.6 0-1-.3-1.4-.8c.02.01 0 1.8 0 1.8h-.5zm1.8-1.5c.4 0 .7-.1.9-.4c.3-.2.4-.6.4-1c0-.4-.1-.8-.4-1c-.2-.3-.5-.4-.9-.4c-.3 0-.6.1-.9.4c-.3.3-.4.6-.4 1c0 .4.1.7.4 1c.3.3.6.4.9.4zm5.2-.1c-.3.4-.7.6-1.3.6c-.4 0-.7-.1-.9-.3c-.3-.2-.4-.5-.4-.9c0-.3.1-.6.4-.8c.3-.2.6-.3 1.1-.3c.4 0 .7 0 1.1.1v-.1c0-.3-.1-.6-.3-.7c-.1-.2-.4-.3-.8-.3c-.3 0-.7.1-1.1.3l-.1-.5c.4-.2.8-.3 1.3-.3c.5 0 .9.2 1.2.4c.2.3.3.6.3 1.1c.04-.01 0 2.2 0 2.2h-.5v-.5s.02-.05 0 0zm-1.2.1c.4 0 .6 0 .9-.2c.2-.2.3-.4.3-.7v-.4c-.3-.1-.7-.1-1-.1c-.4 0-.6 0-.8.2c-.2.1-.3.3-.3.5c0 .2.1.4.3.6c.1.1.4.1.6.1zm2.9.4V86h.5s.02.93 0 .9c.2-.3.4-.5.6-.7c.3-.2.6-.3.9-.3v.6s-.04 0 0 0c-.5 0-.8.1-1.1.4c-.2.3-.4.7-.4 1.3c.02-.04 0 1.4 0 1.4h-.5zm3.9 1.1l-.5-.3l.6-.8c-.5 0-.8-.2-1.1-.6c-.3-.3-.5-.7-.5-1.2c0-.5.2-1 .6-1.3c.3-.4.8-.6 1.3-.6c.6 0 1 .2 1.4.6l-.3.4c-.4-.3-.7-.5-1.1-.5c-.4 0-.7.1-.9.4c-.3.3-.4.6-.4 1c0 .4.1.7.4 1c.2.3.5.4.9.4c.4 0 .8-.2 1.1-.5l.4.3c-.4.4-.9.7-1.4.7l-.5 1zm5.1-1.6c-.3.4-.7.6-1.3.6c-.3 0-.6-.1-.9-.3c-.3-.2-.4-.5-.4-.9c0-.3.1-.6.4-.8c.3-.2.7-.3 1.1-.3c.4 0 .8 0 1.1.1v-.1c0-.3 0-.6-.2-.7c-.2-.2-.5-.3-.8-.3c-.4 0-.8.1-1.1.3l-.2-.5c.4-.2.9-.3 1.3-.3c.5 0 .9.2 1.2.4c.2.3.4.6.4 1.1c-.03-.01 0 2.2 0 2.2h-.6v-.5s.05-.05 0 0zm-1.2.1c.4 0 .7 0 .9-.2c.2-.2.4-.4.4-.7v-.4c-.4-.1-.8-.1-1.1-.1c-.3 0-.6 0-.8.2c-.2.1-.3.3-.3.5c0 .2.1.4.3.6c.2.1.4.1.6.1zm3 .4v-5.1h.5v5.1h-.5zm1.8 0V86h.5v3.6h-.5zm5.1.1c-.6 0-1.1-.2-1.5-.6l.3-.3c.4.3.8.4 1.2.4c.2 0 .4 0 .6-.1c.1-.1.2-.3.2-.5c0-.1-.1-.3-.3-.4c-.1 0-.3-.1-.6-.2c-.2 0-.3-.1-.3-.1c-.1 0-.2-.1-.3-.1c-.1 0-.2-.1-.2-.1c-.1-.1-.2-.1-.2-.2c-.1-.1-.2-.1-.2-.2v-.3c0-.4.1-.6.3-.8c.2-.2.5-.3.9-.3c.5 0 .9.2 1.3.4l-.2.4c-.4-.2-.8-.3-1.1-.3c-.2 0-.4 0-.5.1c-.1.1-.2.2-.2.4v.2c.1 0 .1.1.2.1c0 .1.1.1.2.2h.2c.1.1.2.1.3.1c.2.1.3.1.4.1c.1.1.2.1.3.2c.1 0 .2.1.2.2c.1 0 .2.1.2.2c.1.1.1.2.1.4c0 .3-.1.6-.4.8c-.2.2-.5.3-.9.3zm4.7-.6c-.3.4-.8.6-1.3.6c-.4 0-.7-.1-1-.3c-.3-.2-.4-.5-.4-.9c0-.3.2-.6.4-.8c.3-.2.7-.3 1.2-.3c.3 0 .7 0 1.1.1v-.1c0-.3-.1-.6-.3-.7c-.2-.2-.5-.3-.8-.3c-.4 0-.7.1-1.1.3l-.2-.5c.5-.2.9-.3 1.3-.3c.6 0 1 .2 1.2.4c.3.3.4.6.4 1.1c-.01-.01 0 2.2 0 2.2h-.5v-.5s-.03-.05 0 0zm-1.2.1c.3 0 .6 0 .8-.2c.3-.2.4-.4.4-.7v-.4c-.4-.1-.7-.1-1.1-.1c-.3 0-.6 0-.8.2c-.2.1-.2.3-.2.5c0 .2 0 .4.2.6c.2.1.4.1.7.1zm2.9.4v-5.1h.5v5.1h-.5zm1.8 0V86h.6v3.6h-.6zm1.8 0V86h.6s-.04.61 0 .6c.3-.5.7-.7 1.2-.7c.4 0 .8.1 1 .4c.3.3.4.6.4 1.1c-.02-.05 0 2.2 0 2.2h-.6s.04-2.11 0-2.1c0-.4 0-.6-.2-.8c-.2-.2-.4-.3-.8-.3c-.3 0-.5.1-.7.3c-.2.2-.3.5-.3.8c-.04.03 0 2.1 0 2.1h-.6zm4.4 0V86h.5v3.6h-.5zm1.8 0V86h.5v.6c.2-.2.3-.4.5-.5c.2-.1.4-.2.7-.2c.5 0 .9.2 1.1.7c.4-.5.8-.7 1.3-.7c.4 0 .8.1 1 .4c.2.3.4.6.4 1.1c-.04-.04 0 2.2 0 2.2h-.6s.02-2.11 0-2.1c0-.4-.1-.6-.2-.8c-.2-.2-.4-.3-.7-.3c-.3 0-.5.1-.7.3c-.2.2-.3.5-.3.8c-.02.01 0 2.1 0 2.1h-.6s.05-2.13 0-2.1c0-.4 0-.6-.2-.8c-.2-.2-.4-.3-.7-.3c-.3 0-.5.1-.7.3c-.2.2-.3.5-.3.8v2.1h-.5zm8.7 0v-5.1h.5v3.5l2-2h.7l-1.5 1.5l1.5 2.1h-.6l-1.3-1.7l-.8.8v.9h-.5zm6.3-.5c-.3.4-.7.6-1.3.6c-.4 0-.7-.1-1-.3c-.2-.2-.4-.5-.4-.9c0-.3.2-.6.5-.8c.3-.2.6-.3 1.1-.3c.4 0 .7 0 1.1.1v-.1c0-.3-.1-.6-.3-.7c-.2-.2-.4-.3-.8-.3c-.3 0-.7.1-1.1.3l-.1-.5c.4-.2.8-.3 1.3-.3c.5 0 .9.2 1.2.4c.2.3.3.6.3 1.1c.02-.01 0 2.2 0 2.2h-.5v-.5s.01-.05 0 0zm-1.2.1c.3 0 .6 0 .9-.2c.2-.2.3-.4.3-.7v-.4c-.4-.1-.7-.1-1.1-.1c-.3 0-.5 0-.7.2c-.2.1-.3.3-.3.5c0 .2.1.4.3.6c.1.1.4.1.6.1zm2.9 1.5V86h.5v.7c.4-.5.9-.8 1.4-.8c.5 0 .9.2 1.2.5c.4.4.5.8.5 1.4c0 .6-.1 1-.5 1.4c-.3.3-.7.5-1.2.5c-.6 0-1-.3-1.4-.8c.01.01 0 1.8 0 1.8h-.5zm1.8-1.5c.4 0 .7-.1.9-.4c.3-.2.4-.6.4-1c0-.4-.1-.8-.4-1c-.2-.3-.5-.4-.9-.4c-.3 0-.7.1-.9.4c-.3.3-.4.6-.4 1c0 .4.1.7.4 1c.2.3.5.4.9.4zm5.2-.1c-.3.4-.7.6-1.3.6c-.4 0-.7-.1-1-.3c-.2-.2-.4-.5-.4-.9c0-.3.2-.6.5-.8c.3-.2.6-.3 1.1-.3c.4 0 .7 0 1.1.1v-.1c0-.3-.1-.6-.3-.7c-.2-.2-.4-.3-.8-.3c-.3 0-.7.1-1.1.3l-.1-.5c.4-.2.8-.3 1.3-.3c.5 0 .9.2 1.2.4c.2.3.3.6.3 1.1c.03-.01 0 2.2 0 2.2h-.5v-.5s.01-.05 0 0zm-1.2.1c.3 0 .6 0 .9-.2c.2-.2.3-.4.3-.7v-.4c-.3-.1-.7-.1-1-.1c-.4 0-.6 0-.8.2c-.2.1-.3.3-.3.5c0 .2.1.4.3.6c.1.1.4.1.6.1zm2.9.4v-5.1h.5v3.5l2-2h.6l-1.5 1.5l1.6 2.1h-.7l-1.3-1.7l-.7.8v.9h-.5z" stroke="none" fill="#000"/></g><g id="Polygon374089"><path d="m2.6 77.1c0 .3-.1.5-.3.7c-.2.2-.4.3-.6.3c-.3 0-.5-.1-.7-.3c-.2-.2-.2-.4-.2-.7c0-.2 0-.4.2-.6c.2-.2.4-.3.7-.3c.2 0 .4.1.6.3c.2.2.3.4.3.6c-.01.03 0 0 0 0c0 0-.01.04 0 0zm6.6 2.5v-4.9h.5v2.9l2.9-2.9h.7l-2.1 2.1l2.2 2.8h-.7l-1.9-2.4l-1.1 1.1v1.3h-.5zm7.3-.5c-.4.4-.8.6-1.4.6c-.3 0-.6-.1-.9-.3c-.3-.2-.4-.5-.4-.9c0-.3.1-.6.4-.8c.3-.2.7-.3 1.1-.3c.4 0 .8 0 1.2.1v-.1c0-.3-.1-.6-.3-.7c-.2-.2-.5-.3-.8-.3c-.4 0-.8.1-1.1.3l-.2-.5c.4-.2.9-.3 1.3-.3c.5 0 .9.2 1.2.4c.3.3.4.6.4 1.1c-.03-.01 0 2.2 0 2.2h-.5v-.5s-.04-.05 0 0zm-1.2.1c.3 0 .6 0 .8-.2c.2-.2.4-.4.4-.7v-.4c-.4-.1-.8-.1-1.1-.1c-.3 0-.6 0-.8.2c-.2.1-.3.3-.3.5c0 .2.1.4.3.6c.2.1.4.1.7.1zm2.8 1.5V76h.6s-.04.71 0 .7c.3-.5.8-.8 1.3-.8c.5 0 .9.2 1.3.5c.3.4.5.8.5 1.4c0 .6-.2 1-.5 1.4c-.4.3-.8.5-1.3.5c-.5 0-1-.3-1.3-.8c-.04.01 0 1.8 0 1.8h-.6zm1.8-1.5c.4 0 .7-.1 1-.4c.2-.2.3-.6.3-1c0-.4-.1-.8-.3-1c-.3-.3-.6-.4-1-.4c-.3 0-.6.1-.9.4c-.2.3-.4.6-.4 1c0 .4.2.7.4 1c.3.3.6.4.9.4zm5.3-.1c-.4.4-.8.6-1.4.6c-.3 0-.6-.1-.9-.3c-.3-.2-.4-.5-.4-.9c0-.3.1-.6.4-.8c.3-.2.7-.3 1.1-.3c.4 0 .8 0 1.2.1v-.1c0-.3-.1-.6-.3-.7c-.2-.2-.5-.3-.8-.3c-.4 0-.8.1-1.1.3l-.2-.5c.4-.2.9-.3 1.3-.3c.5 0 .9.2 1.2.4c.3.3.4.6.4 1.1c-.03-.01 0 2.2 0 2.2h-.5v-.5s-.04-.05 0 0zm-1.2.1c.3 0 .6 0 .8-.2c.2-.2.4-.4.4-.7v-.4c-.4-.1-.8-.1-1.1-.1c-.3 0-.6 0-.8.2c-.2.1-.3.3-.3.5c0 .2.1.4.3.6c.2.1.4.1.7.1zm2.8.4v-5.1h.6v3.5l1.9-2h.7l-1.5 1.5l1.5 2.1h-.6l-1.3-1.7l-.7.8v.9h-.6zm7.3 0L32.5 76h.6l1.3 3l1.2-3h.6l-1.6 3.6h-.5zm5.8-.6c-.4.5-.9.7-1.5.7c-.5 0-.9-.2-1.3-.5c-.3-.4-.5-.8-.5-1.4c0-.5.1-1 .5-1.4c.3-.3.7-.5 1.2-.5c.5 0 .9.2 1.2.5c.4.4.5.9.5 1.4v.2h-2.9c.1.4.2.7.4.9c.3.2.6.3.9.3c.4 0 .8-.2 1.1-.5c.04 0 .4.3.4.3c0 0-.02 0 0 0zm-2.8-1.4h2.4c-.1-.4-.2-.7-.4-.9c-.2-.2-.5-.3-.8-.3c-.3 0-.6.1-.8.3c-.2.2-.3.5-.4.9zm7.8 1.9c-.2.1-.4.2-.6.2c-.4 0-.6-.1-.8-.3c-.2-.2-.3-.4-.3-.8c.04.04 0-2.1 0-2.1h-.5v-.5h.5v-1.1h.6v1.1h1.1v.5h-1.1s-.02 2.07 0 2.1c0 .4.2.6.6.6c.2 0 .3-.1.5-.2v.5s.01.01 0 0zm3.4-.4c-.4.4-.8.6-1.3.6c-.4 0-.7-.1-1-.3c-.3-.2-.4-.5-.4-.9c0-.3.1-.6.4-.8c.3-.2.7-.3 1.2-.3c.3 0 .7 0 1.1.1v-.1c0-.3-.1-.6-.3-.7c-.2-.2-.5-.3-.8-.3c-.4 0-.7.1-1.1.3l-.2-.5c.4-.2.9-.3 1.3-.3c.6 0 .9.2 1.2.4c.3.3.4.6.4 1.1c-.02-.01 0 2.2 0 2.2h-.5v-.5s-.04-.05 0 0zm-1.2.1c.3 0 .6 0 .8-.2c.3-.2.4-.4.4-.7v-.4c-.4-.1-.7-.1-1.1-.1c-.3 0-.6 0-.8.2c-.2.1-.3.3-.3.5c0 .2.1.4.3.6c.2.1.4.1.7.1zm4.8.5c-.6 0-1.1-.3-1.4-.8c-.03.01 0 .7 0 .7h-.6v-5.1h.6s-.03 2.21 0 2.2c.3-.5.8-.8 1.4-.8c.4 0 .8.2 1.2.5c.3.4.5.8.5 1.4c0 .6-.2 1-.5 1.4c-.4.3-.8.5-1.2.5zm-.1-.5c.3 0 .6-.1.9-.4c.2-.2.3-.6.3-1c0-.4-.1-.8-.3-1c-.3-.3-.6-.4-.9-.4c-.4 0-.7.1-1 .4c-.2.3-.4.6-.4 1c0 .4.2.7.4 1c.3.3.6.4 1 .4zm5.2-.1c-.4.4-.8.6-1.3.6c-.4 0-.7-.1-1-.3c-.3-.2-.4-.5-.4-.9c0-.3.1-.6.4-.8c.3-.2.7-.3 1.2-.3c.3 0 .7 0 1.1.1v-.1c0-.3-.1-.6-.3-.7c-.2-.2-.5-.3-.8-.3c-.4 0-.7.1-1.1.3l-.2-.5c.5-.2.9-.3 1.3-.3c.6 0 .9.2 1.2.4c.3.3.4.6.4 1.1c-.02-.01 0 2.2 0 2.2h-.5v-.5s-.04-.05 0 0zm-1.2.1c.3 0 .6 0 .8-.2c.3-.2.4-.4.4-.7v-.4c-.4-.1-.7-.1-1.1-.1c-.3 0-.6 0-.8.2c-.2.1-.2.3-.2.5c0 .2 0 .4.2.6c.2.1.4.1.7.1zm2.8.4V76h.6s-.03.61 0 .6c.3-.5.7-.7 1.2-.7c.4 0 .8.1 1 .4c.3.3.4.6.4 1.1c-.01-.05 0 2.2 0 2.2h-.5s-.04-2.11 0-2.1c0-.4-.1-.6-.3-.8c-.2-.2-.4-.3-.7-.3c-.4 0-.6.1-.8.3c-.2.2-.3.5-.3.8c-.03.03 0 2.1 0 2.1h-.6zm4.3-2.9v-.7h.7v.7h-.7zm0 2.9v-.7h.7v.7h-.7zm5.5-.6l1.1-3h.6s-1.52 3.72-1.5 3.7c-.2.4-.3.6-.5.8c-.2.2-.4.2-.7.2c-.3 0-.5 0-.8-.1l.2-.5c.2.1.4.2.6.2c.1 0 .3-.1.4-.2c.1-.1.2-.3.3-.5L66.5 76h.6l1.3 3zm4.4-3.6v-.6h.6v.6h-.6zm-1.2 0v-.6h.6v.6h-.6zm1.9 3.6c-.3.4-.7.7-1.2.7c-.4 0-.8-.2-1-.4c-.3-.3-.4-.6-.4-1.1V76h.5s.04 2.09 0 2.1c0 .3.1.6.3.8c.2.2.4.3.7.3c.4 0 .6-.1.8-.3c.2-.2.3-.5.3-.8c.03-.05 0-2.1 0-2.1h.6v3.6h-.6v-.6s.03-.03 0 0zm1.8.6v-5.1h.5v3.5l2-2h.6l-1.5 1.5l1.6 2.1h-.7l-1.3-1.7l-.7.8v.9h-.5zm5.1.1c-.6 0-1.1-.2-1.5-.6l.3-.3c.4.3.8.4 1.2.4c.3 0 .4 0 .6-.1c.1-.1.2-.3.2-.5c0-.1-.1-.3-.3-.4c-.1 0-.3-.1-.6-.2c-.2 0-.3-.1-.3-.1c-.1 0-.2-.1-.3-.1c-.1 0-.2-.1-.2-.1c-.1-.1-.2-.1-.2-.2l-.2-.2v-.3c0-.4.1-.6.3-.8c.3-.2.5-.3.9-.3c.5 0 .9.2 1.3.4l-.2.4c-.4-.2-.8-.3-1.1-.3c-.2 0-.4 0-.5.1c-.1.1-.2.2-.2.4c0 .1 0 .1.1.2s0 .1.1.1c0 .1.1.1.2.2h.2c.1.1.2.1.3.1c.2.1.3.1.4.1c.1.1.2.1.3.2c.1 0 .2.1.2.2c.1 0 .2.1.2.2c.1.1.1.2.1.4c0 .3-.1.6-.4.8c-.2.2-.5.3-.9.3zm5.4-.7c-.4.5-.9.7-1.5.7c-.5 0-1-.2-1.3-.5c-.4-.4-.5-.8-.5-1.4c0-.5.1-1 .5-1.4c.3-.3.7-.5 1.2-.5c.5 0 .9.2 1.2.5c.3.4.5.9.5 1.4v.2H83c0 .4.2.7.4.9c.3.2.6.3.9.3c.4 0 .8-.2 1.1-.5c.03 0 .4.3.4.3c0 0-.04 0 0 0zM83 77.6h2.3c0-.4-.1-.7-.3-.9c-.2-.2-.5-.3-.8-.3c-.3 0-.6.1-.8.3c-.2.2-.4.5-.4.9zm3.8 2v-5.1h.6v3.5l1.9-2h.7l-1.5 1.5l1.5 2.1h-.6l-1.3-1.7l-.7.8v.9h-.6zm6.1 0v-5.1h.6v3.5l1.9-2h.7l-1.5 1.5l1.5 2.1h-.6l-1.3-1.7l-.7.8v.9h-.6zm6.3-.5c-.3.4-.7.6-1.3.6c-.4 0-.7-.1-.9-.3c-.3-.2-.4-.5-.4-.9c0-.3.1-.6.4-.8c.3-.2.6-.3 1.1-.3c.4 0 .7 0 1.1.1v-.1c0-.3-.1-.6-.3-.7c-.2-.2-.4-.3-.8-.3c-.3 0-.7.1-1.1.3l-.1-.5c.4-.2.8-.3 1.3-.3c.5 0 .9.2 1.2.4c.2.3.3.6.3 1.1c.03-.01 0 2.2 0 2.2h-.5v-.5s.02-.05 0 0zm-1.2.1c.4 0 .6 0 .9-.2c.2-.2.3-.4.3-.7v-.4c-.3-.1-.7-.1-1-.1c-.4 0-.6 0-.8.2c-.2.1-.3.3-.3.5c0 .2.1.4.3.6c.1.1.4.1.6.1zm2.9.4v-5.1h.6v5.1h-.6zm1.8-4.4v-.6h.7v.6h-.7zm.1 4.4V76h.5v3.6h-.5zm3.6-.1c-.2.1-.4.2-.6.2c-.3 0-.6-.1-.8-.3c-.2-.2-.2-.4-.2-.8c-.05.04 0-2.1 0-2.1h-.6v-.5h.6v-1.1h.5v1.1h1.1v.5h-1.1v2.1c0 .4.2.6.6.6c.2 0 .4-.1.5-.2c.03.05 0 .5 0 .5c0 0 .03.01 0 0zm4-.5c-.4.5-.9.7-1.5.7c-.5 0-1-.2-1.3-.5c-.4-.4-.5-.8-.5-1.4c0-.5.1-1 .5-1.4c.3-.3.7-.5 1.2-.5c.5 0 .9.2 1.2.5c.3.4.5.9.5 1.4v.2h-2.9c0 .4.2.7.4.9c.3.2.6.3.9.3c.4 0 .8-.2 1.1-.5c.02 0 .4.3.4.3c0 0-.04 0 0 0zm-2.8-1.4h2.3c0-.4-.1-.7-.3-.9c-.2-.2-.5-.3-.8-.3c-.3 0-.6.1-.8.3c-.2.2-.4.5-.4.9zm3.9 2v-5.1h.5v5.1h-.5zm1.8-4.4v-.6h.6v.6h-.6zm0 4.4V76h.6v3.6h-.6zm3.9 1.1V76h.6s-.05.71 0 .7c.3-.5.8-.8 1.3-.8c.5 0 .9.2 1.2.5c.4.4.6.8.6 1.4c0 .6-.2 1-.6 1.4c-.3.3-.7.5-1.2.5c-.5 0-1-.3-1.3-.8c-.05.01 0 1.8 0 1.8h-.6zm1.8-1.5c.4 0 .7-.1.9-.4c.3-.2.4-.6.4-1c0-.4-.1-.8-.4-1c-.2-.3-.5-.4-.9-.4c-.3 0-.6.1-.9.4c-.2.3-.4.6-.4 1c0 .4.2.7.4 1c.3.3.6.4.9.4zm2.9.4v-5.1h.5v5.1h-.5zm4.2-.5c-.3.4-.8.6-1.3.6c-.4 0-.7-.1-1-.3c-.2-.2-.4-.5-.4-.9c0-.3.2-.6.5-.8c.2-.2.6-.3 1.1-.3c.3 0 .7 0 1.1.1v-.1c0-.3-.1-.6-.3-.7c-.2-.2-.4-.3-.8-.3c-.4 0-.7.1-1.1.3l-.2-.5c.5-.2.9-.3 1.4-.3c.5 0 .9.2 1.1.4c.3.3.4.6.4 1.1c.01-.01 0 2.2 0 2.2h-.5v-.5s-.01-.05 0 0zm-1.2.1c.3 0 .6 0 .8-.2c.3-.2.4-.4.4-.7v-.4c-.4-.1-.7-.1-1.1-.1c-.3 0-.6 0-.7.2c-.2.1-.3.3-.3.5c0 .2.1.4.2.6c.2.1.4.1.7.1zm4.1.5c-.6 0-1.1-.2-1.5-.6l.2-.3c.4.3.8.4 1.3.4c.2 0 .4 0 .5-.1c.2-.1.2-.3.2-.5c0-.1 0-.3-.2-.4c-.2 0-.4-.1-.7-.2c-.1 0-.2-.1-.3-.1c0 0-.1-.1-.2-.1c-.1 0-.2-.1-.3-.1c0-.1-.1-.1-.2-.2c0-.1-.1-.1-.1-.2c-.1-.1-.1-.2-.1-.3c0-.4.1-.6.4-.8c.2-.2.5-.3.9-.3c.4 0 .9.2 1.3.4l-.3.4c-.3-.2-.7-.3-1.1-.3c-.2 0-.3 0-.5.1c-.1.1-.2.2-.2.4c0 .1.1.1.1.2l.1.1l.2.2h.3c.1.1.1.1.3.1c.1.1.2.1.3.1c.1.1.2.1.3.2c.1 0 .2.1.3.2c.1 0 .1.1.2.2v.4c0 .3-.1.6-.3.8c-.3.2-.6.3-.9.3zm4-.2c-.2.1-.4.2-.6.2c-.3 0-.6-.1-.8-.3c-.1-.2-.2-.4-.2-.8c-.04.04 0-2.1 0-2.1h-.5v-.5h.5v-1.1h.5v1.1h1.1v.5h-1.1v2.1c0 .4.2.6.6.6c.2 0 .4-.1.5-.2c.03.05 0 .5 0 .5c0 0 .03.01 0 0zm1-4.3v-.6h.6v.6h-.6zm0 4.4V76h.6v3.6h-.6zm1.8 0v-5.1h.6v3.5l1.9-2h.7l-1.5 1.5l1.6 2.1h-.7l-1.3-1.7l-.7.8v.9h-.6z" stroke="none" fill="#000"/></g><g id="Polygon374088"><path d="m2.6 67.1c0 .3-.1.5-.3.7c-.2.2-.4.3-.6.3c-.3 0-.5-.1-.7-.3c-.2-.2-.2-.4-.2-.7c0-.2 0-.4.2-.6c.2-.2.4-.3.7-.3c.2 0 .4.1.6.3c.2.2.3.4.3.6c-.01.03 0 0 0 0c0 0-.01.04 0 0zm6.6 2.5v-4.9h1.7c.8 0 1.4.2 1.9.7c.5.5.7 1 .7 1.7c0 .7-.2 1.3-.7 1.8c-.5.5-1.1.7-1.9.7H9.2zm1.7-4.4H9.7v3.9h1.2c.6 0 1.1-.2 1.5-.6c.3-.3.5-.8.5-1.3v-.1c0-.5-.2-1-.5-1.3c-.4-.4-.9-.6-1.5-.6zm3.7 0v-.6h.6v.6h-.6zm0 4.4V66h.6v3.6h-.6zm1.8 0v-5.1h.6v3.5l1.9-2h.7l-1.5 1.5l1.5 2.1h-.6l-1.3-1.7l-.7.8v.9h-.6zm6.7-.7c-.3.5-.8.8-1.4.8c-.4 0-.8-.2-1.2-.5c-.3-.4-.5-.8-.5-1.4c0-.6.2-1 .5-1.4c.4-.3.8-.5 1.2-.5c.6 0 1.1.3 1.4.8c.03-.03 0-2.2 0-2.2h.6v5.1h-.6v-.7s.03-.03 0 0zm-1.3.3c.4 0 .7-.1 1-.4c.2-.3.4-.6.4-1c0-.4-.2-.8-.4-1c-.3-.3-.6-.4-1-.4c-.3 0-.6.1-.9.4c-.2.2-.3.6-.3 1c0 .4.1.8.3 1c.3.3.6.4.9.4zm5-3.8v-.6h.7v.6h-.7zm-1.2 0v-.6h.6v.6h-.6zm.9 4.3c-.5 0-1-.2-1.3-.6c-.4-.3-.5-.8-.5-1.3c0-.5.1-1 .5-1.3c.4-.4.8-.6 1.3-.6c.6 0 1 .2 1.4.6c.3.3.5.8.5 1.3c0 .5-.2 1-.5 1.3c-.4.4-.8.6-1.4.6zm0-.5c.4 0 .7-.1 1-.4c.2-.3.4-.6.4-1c0-.4-.2-.7-.4-1c-.3-.3-.6-.4-1-.4c-.4 0-.7.1-.9.4c-.3.3-.4.6-.4 1c0 .4.1.7.4 1c.2.3.6.4.9.4zm2.9.4V66h.5s.04.93 0 .9c.2-.3.4-.5.6-.7c.3-.2.6-.3.9-.3v.6s-.03 0 0 0c-.4 0-.8.1-1.1.4c-.2.3-.4.7-.4 1.3c.04-.04 0 1.4 0 1.4h-.5zm4.7-.1c-.2.1-.4.2-.7.2c-.3 0-.5-.1-.7-.3c-.2-.2-.3-.4-.3-.8c.02.04 0-2.1 0-2.1h-.5v-.5h.5v-1.1h.6v1.1h1.1v.5H33s-.04 2.07 0 2.1c0 .4.2.6.6.6c.1 0 .3-.1.5-.2v.5s0 .01 0 0zm3.8.8c-.3.3-.7.4-1.3.4c-.7 0-1.2-.1-1.7-.5l.3-.4c.4.3.9.5 1.4.5c.4 0 .7-.1.9-.4c.3-.2.4-.5.4-.9v-.4c-.4.5-.9.7-1.5.7c-.4 0-.8-.1-1.1-.5c-.4-.3-.6-.7-.6-1.2c0-.5.2-.9.6-1.2c.3-.3.7-.5 1.1-.5c.6 0 1.1.2 1.5.7c-.04.03 0-.6 0-.6h.5v3c0 .5-.2.9-.5 1.3zm-1.3-1.5c.3 0 .6-.1.9-.3c.2-.2.4-.5.4-.9c0-.4-.1-.6-.4-.9c-.3-.2-.6-.3-.9-.3c-.4 0-.7.1-.9.3c-.3.2-.4.5-.4.9c0 .4.1.7.4.9c.2.2.5.3.9.3zm6.1.2c-.4.5-.9.7-1.5.7c-.5 0-.9-.2-1.3-.5c-.3-.4-.5-.8-.5-1.4c0-.5.1-1 .5-1.4c.3-.3.7-.5 1.2-.5c.5 0 .9.2 1.2.5c.4.4.5.9.5 1.4v.2h-2.9c.1.4.2.7.4.9c.3.2.6.3.9.3c.4 0 .8-.2 1.1-.5c.04 0 .4.3.4.3c0 0-.02 0 0 0zm-2.8-1.4h2.4c-.1-.4-.2-.7-.4-.9c-.2-.2-.5-.3-.8-.3c-.3 0-.6.1-.8.3c-.2.2-.3.5-.4.9zm3.8 2V66h.6v.6c.3-.5.7-.7 1.2-.7c.5 0 .8.1 1 .4c.3.3.4.6.4 1.1c.01-.05 0 2.2 0 2.2h-.5s-.03-2.11 0-2.1c0-.4-.1-.6-.3-.8c-.2-.2-.4-.3-.7-.3c-.3 0-.6.1-.8.3c-.2.2-.3.5-.3.8v2.1h-.6zm9.4.7c-.3.3-.7.4-1.3.4c-.6 0-1.2-.1-1.7-.5l.3-.4c.4.3.9.5 1.4.5c.4 0 .7-.1.9-.4c.3-.2.4-.5.4-.9v-.4c-.4.5-.9.7-1.4.7c-.5 0-.9-.1-1.2-.5c-.4-.3-.5-.7-.5-1.2c0-.5.1-.9.5-1.2c.3-.3.7-.5 1.2-.5c.5 0 1 .2 1.4.7c-.03.03 0-.6 0-.6h.5v3c0 .5-.1.9-.5 1.3zm-1.3-1.5c.3 0 .6-.1.9-.3c.3-.2.4-.5.4-.9c0-.4-.1-.6-.4-.9c-.3-.2-.6-.3-.9-.3c-.4 0-.7.1-.9.3c-.3.2-.4.5-.4.9c0 .4.1.7.4.9c.2.2.5.3.9.3zm5-3.4v-.6h.6v.6h-.6zm-1.3 0v-.6h.7v.6h-.7zm1 4.3c-.6 0-1-.2-1.4-.6c-.3-.3-.5-.8-.5-1.3c0-.5.2-1 .5-1.3c.4-.4.8-.6 1.4-.6c.5 0 1 .2 1.3.6c.4.3.6.8.6 1.3c0 .5-.2 1-.6 1.3c-.3.4-.8.6-1.3.6zm0-.5c.4 0 .7-.1.9-.4c.3-.3.4-.6.4-1c0-.4-.1-.7-.4-1c-.2-.3-.6-.4-.9-.4c-.4 0-.7.1-1 .4c-.2.3-.4.6-.4 1c0 .4.2.7.4 1c.3.3.6.4 1 .4zm3.8.4L58.8 66h.6l1.2 3l1.2-3h.6l-1.6 3.6h-.5zm5.7-.7c-.4.5-.9.8-1.4.8c-.5 0-.9-.2-1.2-.5c-.4-.4-.6-.8-.6-1.4c0-.6.2-1 .6-1.4c.3-.3.7-.5 1.2-.5c.5 0 1 .3 1.4.8c-.04-.03 0-2.2 0-2.2h.5v5.1h-.5v-.7s-.04-.03 0 0zm-1.3.3c.3 0 .6-.1.9-.4c.2-.3.4-.6.4-1c0-.4-.2-.8-.4-1c-.3-.3-.6-.4-.9-.4c-.4 0-.7.1-.9.4c-.3.2-.4.6-.4 1c0 .4.1.8.4 1c.2.3.5.4.9.4zm6.1-.2c-.4.5-.9.7-1.5.7c-.5 0-.9-.2-1.3-.5c-.3-.4-.5-.8-.5-1.4c0-.5.1-1 .5-1.4c.3-.3.7-.5 1.2-.5c.5 0 .9.2 1.2.5c.3.4.5.9.5 1.4v.2H68c.1.4.2.7.4.9c.3.2.6.3.9.3c.4 0 .8-.2 1.1-.5c.04 0 .4.3.4.3c0 0-.02 0 0 0zM68 67.6h2.4c-.1-.4-.2-.7-.4-.9c-.2-.2-.5-.3-.8-.3c-.3 0-.6.1-.8.3c-.2.2-.3.5-.4.9zm3.8-.9v-.7h.7v.7h-.7zm0 2.9v-.7h.7v.7h-.7zm3.9 1.1V66h.6s-.04.71 0 .7c.3-.5.8-.8 1.3-.8c.5 0 .9.2 1.3.5c.3.4.5.8.5 1.4c0 .6-.2 1-.5 1.4c-.4.3-.8.5-1.3.5c-.5 0-1-.3-1.3-.8c-.04.01 0 1.8 0 1.8h-.6zm1.9-1.5c.3 0 .6-.1.9-.4c.2-.2.3-.6.3-1c0-.4-.1-.8-.3-1c-.3-.3-.6-.4-.9-.4c-.4 0-.7.1-1 .4c-.2.3-.4.6-.4 1c0 .4.2.7.4 1c.3.3.6.4 1 .4zm5.2-.1c-.4.4-.8.6-1.4.6c-.3 0-.6-.1-.9-.3c-.3-.2-.4-.5-.4-.9c0-.3.1-.6.4-.8c.3-.2.7-.3 1.1-.3c.4 0 .8 0 1.2.1v-.1c0-.3-.1-.6-.3-.7c-.2-.2-.5-.3-.8-.3c-.4 0-.7.1-1.1.3l-.2-.5c.4-.2.9-.3 1.3-.3c.6 0 .9.2 1.2.4c.3.3.4.6.4 1.1c-.02-.01 0 2.2 0 2.2h-.5v-.5s-.04-.05 0 0zm-1.2.1c.3 0 .6 0 .8-.2c.2-.2.4-.4.4-.7v-.4c-.4-.1-.8-.1-1.1-.1c-.3 0-.6 0-.8.2c-.2.1-.3.3-.3.5c0 .2.1.4.3.6c.2.1.4.1.7.1zm4 .5c-.5 0-1-.2-1.5-.6l.3-.3c.4.3.8.4 1.2.4c.3 0 .5 0 .6-.1c.1-.1.2-.3.2-.5c0-.1-.1-.3-.2-.4c-.2 0-.4-.1-.7-.2c-.1 0-.2-.1-.3-.1c-.1 0-.1-.1-.3-.1c-.1 0-.2-.1-.2-.1l-.2-.2l-.2-.2v-.3c0-.4.1-.6.3-.8c.3-.2.6-.3.9-.3c.5 0 .9.2 1.3.4l-.2.4c-.4-.2-.7-.3-1.1-.3c-.2 0-.4 0-.5.1c-.1.1-.2.2-.2.4c0 .1 0 .1.1.2l.1.1c0 .1.1.1.2.2h.3c0 .1.1.1.2.1c.2.1.3.1.4.1c.1.1.2.1.3.2c.1 0 .2.1.3.2c0 0 .1.1.1.2c.1.1.1.2.1.4c0 .3-.1.6-.4.8c-.2.2-.5.3-.9.3zm2.4-.1v-5.1h.5v5.1h-.5zm4.1-.5c-.3.4-.7.6-1.3.6c-.3 0-.7-.1-.9-.3c-.3-.2-.4-.5-.4-.9c0-.3.1-.6.4-.8c.3-.2.7-.3 1.1-.3c.4 0 .8 0 1.1.1v-.1c0-.3-.1-.6-.2-.7c-.2-.2-.5-.3-.8-.3c-.4 0-.8.1-1.1.3l-.2-.5c.4-.2.9-.3 1.3-.3c.5 0 .9.2 1.2.4c.2.3.4.6.4 1.1c-.04-.01 0 2.2 0 2.2h-.6v-.5s.04-.05 0 0zm-1.2.1c.4 0 .7 0 .9-.2c.2-.2.3-.4.3-.7v-.4c-.3-.1-.7-.1-1-.1c-.4 0-.6 0-.8.2c-.2.1-.3.3-.3.5c0 .2.1.4.3.6c.2.1.4.1.6.1zm2.9.4V66h.5s.04.61 0 .6c.3-.5.8-.7 1.3-.7c.4 0 .8.1 1 .4c.2.3.4.6.4 1.1c-.03-.05 0 2.2 0 2.2h-.6s.03-2.11 0-2.1c0-.4-.1-.6-.2-.8c-.2-.2-.5-.3-.8-.3c-.3 0-.5.1-.7.3c-.3.2-.4.5-.4.8c.04.03 0 2.1 0 2.1h-.5zm4.3 0V66h.6s-.04.59 0 .6c.1-.2.3-.4.4-.5c.2-.1.4-.2.7-.2c.6 0 1 .2 1.2.7c.3-.5.7-.7 1.3-.7c.4 0 .7.1.9.4c.3.3.4.6.4 1.1v2.2h-.5s-.03-2.11 0-2.1c0-.4-.1-.6-.3-.8c-.1-.2-.4-.3-.7-.3c-.3 0-.5.1-.7.3c-.2.2-.3.5-.3.8c.03.01 0 2.1 0 2.1h-.5v-2.1c0-.4-.1-.6-.3-.8c-.1-.2-.3-.3-.6-.3c-.3 0-.6.1-.8.3c-.1.2-.2.5-.2.8c-.04.03 0 2.1 0 2.1h-.6zm9-.5c-.3.4-.7.6-1.3.6c-.3 0-.6-.1-.9-.3c-.3-.2-.4-.5-.4-.9c0-.3.1-.6.4-.8c.3-.2.7-.3 1.1-.3c.4 0 .8 0 1.1.1v-.1c0-.3-.1-.6-.2-.7c-.2-.2-.5-.3-.8-.3c-.4 0-.8.1-1.1.3l-.2-.5c.4-.2.9-.3 1.3-.3c.5 0 .9.2 1.2.4c.2.3.4.6.4 1.1c-.04-.01 0 2.2 0 2.2h-.6v-.5s.04-.05 0 0zm-1.2.1c.4 0 .7 0 .9-.2c.2-.2.3-.4.3-.7v-.4c-.3-.1-.7-.1-1-.1c-.4 0-.6 0-.8.2c-.2.1-.3.3-.3.5c0 .2.1.4.3.6c.2.1.4.1.6.1zm2.7.4v-.3l2.4-2.9h-2.3v-.4h3v.3l-2.4 2.8h2.4v.5h-3.1zm7.5 1.1l-.6-.3s.59-.75.6-.8c-.4 0-.8-.2-1.1-.6c-.3-.3-.4-.7-.4-1.2c0-.5.2-1 .5-1.3c.4-.4.8-.6 1.3-.6c.6 0 1.1.2 1.5.6l-.4.4c-.3-.3-.7-.5-1.1-.5c-.3 0-.7.1-.9.4c-.2.3-.4.6-.4 1c0 .4.2.7.4 1c.3.3.6.4 1 .4c.4 0 .7-.2 1.1-.5l.3.3c-.4.4-.8.7-1.4.7c.03-.02-.4 1-.4 1zm5.7-1.7c-.4.5-.9.7-1.5.7c-.5 0-1-.2-1.3-.5c-.4-.4-.5-.8-.5-1.4c0-.5.1-1 .5-1.4c.3-.3.7-.5 1.2-.5c.5 0 .9.2 1.2.5c.3.4.5.9.5 1.4v.2H119c0 .4.2.7.4.9c.3.2.6.3.9.3c.4 0 .8-.2 1.1-.5c.03 0 .4.3.4.3c0 0-.04 0 0 0zm-2.8-1.4h2.3c0-.4-.1-.7-.3-.9c-.2-.2-.5-.3-.8-.3c-.3 0-.6.1-.8.3c-.2.2-.4.5-.4.9zm3.9 2v-5.1h.5v5.1h-.5zm1.8-4.4v-.6h.6v.6h-.6zm0 4.4V66h.6v3.6h-.6zm1.8 0v-5.1h.6v3.5l1.9-2h.7l-1.5 1.5l1.5 2.1h-.6l-1.3-1.7l-.7.8v.9h-.6zm7.3 0l-1.6-3.6h.6l1.3 3l1.2-3h.6l-1.6 3.6h-.5zm5.8-.6c-.4.5-.9.7-1.5.7c-.5 0-1-.2-1.3-.5c-.4-.4-.5-.8-.5-1.4c0-.5.1-1 .5-1.4c.3-.3.7-.5 1.2-.5c.5 0 .9.2 1.2.5c.3.4.5.9.5 1.4v.2h-2.9c.1.4.2.7.4.9c.3.2.6.3.9.3c.4 0 .8-.2 1.1-.5c.03 0 .4.3.4.3c0 0-.03 0 0 0zm-2.8-1.4h2.3c0-.4-.1-.7-.3-.9c-.2-.2-.5-.3-.8-.3c-.3 0-.6.1-.8.3c-.2.2-.3.5-.4.9zM142 69l1.2-3h.5s-1.47 3.72-1.5 3.7c-.1.4-.3.6-.5.8c-.2.2-.4.2-.7.2c-.2 0-.5 0-.7-.1l.1-.5c.2.1.4.2.6.2c.2 0 .3-.1.4-.2c.1-.1.2-.3.3-.5c.05-.01-1.6-3.6-1.6-3.6h.6l1.3 3zm4.8.1c-.3.4-.7.6-1.3.6c-.4 0-.7-.1-.9-.3c-.3-.2-.4-.5-.4-.9c0-.3.1-.6.4-.8c.3-.2.6-.3 1.1-.3c.4 0 .7 0 1.1.1v-.1c0-.3-.1-.6-.3-.7c-.2-.2-.4-.3-.8-.3c-.3 0-.7.1-1.1.3l-.1-.5c.4-.2.8-.3 1.3-.3c.5 0 .9.2 1.2.4c.2.3.3.6.3 1.1c.03-.01 0 2.2 0 2.2h-.5v-.5s.01-.05 0 0zm-1.2.1c.4 0 .6 0 .9-.2c.2-.2.3-.4.3-.7v-.4c-.3-.1-.7-.1-1-.1c-.4 0-.6 0-.8.2c-.2.1-.3.3-.3.5c0 .2.1.4.3.6c.1.1.4.1.6.1zm5 .4v-5.1h.5v3.5l2-2h.6l-1.5 1.5l1.6 2.1h-.7l-1.2-1.7l-.8.8v.9h-.5zm5.4.1c-.5 0-.9-.2-1.3-.6c-.4-.3-.5-.8-.5-1.3c0-.5.1-1 .5-1.3c.4-.4.8-.6 1.4-.6c.5 0 .9.2 1.3.6c.4.3.5.8.5 1.3c0 .5-.1 1-.5 1.3c-.4.4-.8.6-1.4.6zm.1-.5c.3 0 .7-.1.9-.4c.3-.3.4-.6.4-1c0-.4-.1-.7-.4-1c-.3-.3-.6-.4-1-.4c-.3 0-.7.1-.9.4c-.3.3-.4.6-.4 1c0 .4.1.7.4 1c.3.3.6.4 1 .4zm2.8.4V66h.5s.05.93 0 .9c.2-.3.4-.5.6-.7c.3-.2.6-.3.9-.3c.03.02 0 .6 0 .6c0 0-.02 0 0 0c-.4 0-.8.1-1 .4c-.3.3-.5.7-.5 1.3c.05-.04 0 1.4 0 1.4h-.5zm4.3.1c-.5 0-.9-.2-1.3-.6c-.4-.3-.5-.8-.5-1.3c0-.5.1-1 .5-1.3c.4-.4.8-.6 1.4-.6c.5 0 .9.2 1.3.6c.4.3.5.8.5 1.3c0 .5-.1 1-.5 1.3c-.4.4-.8.6-1.4.6zm.1-.5c.3 0 .7-.1.9-.4c.3-.3.4-.6.4-1c0-.4-.1-.7-.4-1c-.3-.3-.6-.4-1-.4c-.3 0-.7.1-.9.4c-.3.3-.4.6-.4 1c0 .4.1.7.4 1c.3.3.6.4 1 .4zm2.5.4v-.3l2.4-2.9h-2.4v-.4h3.1v.3l-2.4 2.8h2.4v.5h-3.1zm5.6-.6l1.2-3h.5s-1.47 3.72-1.5 3.7c-.1.4-.3.6-.5.8c-.2.2-.4.2-.7.2c-.2 0-.5 0-.7-.1l.1-.5c.2.1.4.2.6.2c.2 0 .3-.1.4-.2c.1-.1.2-.3.3-.5c.05-.01-1.6-3.6-1.6-3.6h.6l1.3 3zm4 .7c-.5 0-.9-.2-1.3-.6c-.4-.3-.5-.8-.5-1.3c0-.5.1-1 .5-1.3c.4-.4.8-.6 1.4-.6c.5 0 .9.2 1.3.6c.4.3.5.8.5 1.3c0 .5-.1 1-.5 1.3c-.4.4-.8.6-1.4.6zm.1-.5c.3 0 .7-.1.9-.4c.3-.3.4-.6.4-1c0-.4-.1-.7-.4-1c-.3-.3-.6-.4-1-.4c-.3 0-.7.1-.9.4c-.3.3-.4.6-.4 1c0 .4.2.7.4 1c.3.3.6.4 1 .4zm2.8.4V66h.6s-.05.61 0 .6c.2-.5.7-.7 1.2-.7c.4 0 .8.1 1 .4c.3.3.4.6.4 1.1c-.02-.05 0 2.2 0 2.2h-.6s.04-2.11 0-2.1c0-.4 0-.6-.2-.8c-.2-.2-.4-.3-.8-.3c-.3 0-.5.1-.7.3c-.2.2-.3.5-.3.8c-.05.03 0 2.1 0 2.1h-.6zm6.7-.5c-.3.4-.7.6-1.3.6c-.4 0-.7-.1-.9-.3c-.3-.2-.4-.5-.4-.9c0-.3.1-.6.4-.8c.3-.2.6-.3 1.1-.3c.4 0 .7 0 1.1.1v-.1c0-.3-.1-.6-.3-.7c-.2-.2-.4-.3-.8-.3c-.3 0-.7.1-1.1.3l-.1-.5c.4-.2.8-.3 1.3-.3c.5 0 .9.2 1.2.4c.2.3.3.6.3 1.1c.03-.01 0 2.2 0 2.2h-.5v-.5s.01-.05 0 0zm-1.2.1c.4 0 .6 0 .9-.2c.2-.2.3-.4.3-.7v-.4c-.3-.1-.7-.1-1-.1c-.4 0-.6 0-.8.2c-.2.1-.3.3-.3.5c0 .2.1.4.3.6c.1.1.4.1.6.1zm7.9-.3c-.4.5-.9.8-1.4.8c-.5 0-.9-.2-1.2-.5c-.4-.4-.5-.8-.5-1.4c0-.6.1-1 .5-1.4c.3-.3.7-.5 1.2-.5c.6 0 1 .3 1.4.8c-.02-.03 0-2.2 0-2.2h.5v5.1h-.5v-.7s-.02-.03 0 0zm-1.3.3c.3 0 .7-.1.9-.4c.3-.3.4-.6.4-1c0-.4-.1-.8-.4-1c-.2-.3-.6-.4-.9-.4c-.4 0-.7.1-.9.4c-.3.2-.4.6-.4 1c0 .4.1.8.4 1c.2.3.5.4.9.4zm5.4-.1c-.3.4-.7.6-1.3.6c-.4 0-.7-.1-.9-.3c-.3-.2-.4-.5-.4-.9c0-.3.1-.6.4-.8c.3-.2.6-.3 1.1-.3c.4 0 .7 0 1.1.1v-.1c0-.3-.1-.6-.3-.7c-.2-.2-.4-.3-.8-.3c-.3 0-.7.1-1.1.3l-.1-.5c.4-.2.8-.3 1.3-.3c.5 0 .9.2 1.2.4c.2.3.3.6.3 1.1c.03-.01 0 2.2 0 2.2h-.5v-.5s.01-.05 0 0zm-1.2.1c.4 0 .6 0 .9-.2c.2-.2.3-.4.3-.7v-.4c-.3-.1-.7-.1-1-.1c-.4 0-.6 0-.8.2c-.2.1-.3.3-.3.5c0 .2.1.4.3.6c.1.1.4.1.6.1zm4.3-.2l1.1-3h.6l-1.5 3.7c-.1.4-.3.6-.5.8c-.2.2-.4.2-.7.2c-.3 0-.5 0-.8-.1l.2-.5c.2.1.4.2.6.2c.1 0 .3-.1.4-.2c.1-.1.2-.3.3-.5c.02-.01-1.6-3.6-1.6-3.6h.6l1.3 3zm4.8.1c-.3.4-.8.6-1.3.6c-.4 0-.7-.1-1-.3c-.2-.2-.4-.5-.4-.9c0-.3.2-.6.5-.8c.2-.2.6-.3 1.1-.3c.3 0 .7 0 1.1.1v-.1c0-.3-.1-.6-.3-.7c-.2-.2-.4-.3-.8-.3c-.4 0-.7.1-1.1.3l-.1-.5c.4-.2.8-.3 1.3-.3c.5 0 .9.2 1.1.4c.3.3.4.6.4 1.1c.01-.01 0 2.2 0 2.2h-.5v-.5s-.01-.05 0 0zm-1.2.1c.3 0 .6 0 .8-.2c.3-.2.4-.4.4-.7v-.4c-.4-.1-.7-.1-1.1-.1c-.3 0-.6 0-.7.2c-.2.1-.3.3-.3.5c0 .2.1.4.2.6c.2.1.4.1.7.1zm2.9.4V66h.5v.6c.3-.5.7-.7 1.2-.7c.5 0 .8.1 1 .4c.3.3.4.6.4 1.1c.02-.05 0 2.2 0 2.2h-.5s-.02-2.11 0-2.1c0-.4-.1-.6-.3-.8c-.2-.2-.4-.3-.7-.3c-.3 0-.6.1-.8.3c-.2.2-.3.5-.3.8v2.1h-.5zm4.3 0V66h.6v3.6h-.6zm1.8 0v-5.1h.5v3.5l2-2h.7l-1.5 1.5l1.5 2.1h-.6l-1.3-1.7l-.8.8v.9h-.5zm4 0v-5.1h.6v5.1h-.6zm1.9 0V66h.5v3.6h-.5zm3.9 0v-5.1h.5v3.5l2-2h.6l-1.5 1.5l1.6 2.1h-.7l-1.3-1.7l-.7.8v.9h-.5zm6.3-.5c-.3.4-.8.6-1.3.6c-.4 0-.7-.1-1-.3c-.3-.2-.4-.5-.4-.9c0-.3.2-.6.4-.8c.3-.2.7-.3 1.2-.3c.3 0 .7 0 1.1.1v-.1c0-.3-.1-.6-.3-.7c-.2-.2-.5-.3-.8-.3c-.4 0-.7.1-1.1.3l-.2-.5c.5-.2.9-.3 1.4-.3c.5 0 .9.2 1.1.4c.3.3.4.6.4 1.1c-.01-.01 0 2.2 0 2.2h-.5v-.5s-.03-.05 0 0zm-1.2.1c.3 0 .6 0 .8-.2c.3-.2.4-.4.4-.7v-.4c-.4-.1-.7-.1-1.1-.1c-.3 0-.6 0-.8.2c-.1.1-.2.3-.2.5c0 .2 0 .4.2.6c.2.1.4.1.7.1zm2.8 1.5V66h.6s-.02.71 0 .7c.4-.5.8-.8 1.4-.8c.4 0 .8.2 1.2.5c.3.4.5.8.5 1.4c0 .6-.2 1-.5 1.4c-.4.3-.8.5-1.2.5c-.6 0-1.1-.3-1.4-.8c-.02.01 0 1.8 0 1.8h-.6zm1.9-1.5c.3 0 .6-.1.9-.4c.2-.2.3-.6.3-1c0-.4-.1-.8-.3-1c-.3-.3-.6-.4-.9-.4c-.4 0-.7.1-.9.4c-.3.3-.4.6-.4 1c0 .4.1.7.3 1c.3.3.6.4 1 .4zm2.8.4v-5.1h.6v5.1h-.6zm4.2-.5c-.3.4-.7.6-1.3.6c-.4 0-.7-.1-.9-.3c-.3-.2-.4-.5-.4-.9c0-.3.1-.6.4-.8c.3-.2.6-.3 1.1-.3c.4 0 .7 0 1.1.1v-.1c0-.3-.1-.6-.3-.7c-.2-.2-.4-.3-.8-.3c-.3 0-.7.1-1.1.3l-.1-.5c.4-.2.8-.3 1.3-.3c.5 0 .9.2 1.2.4c.2.3.3.6.3 1.1c.03-.01 0 2.2 0 2.2h-.5v-.5s.01-.05 0 0zm-1.2.1c.4 0 .6 0 .9-.2c.2-.2.3-.4.3-.7v-.4c-.3-.1-.7-.1-1-.1c-.4 0-.6 0-.8.2c-.2.1-.3.3-.3.5c0 .2.1.4.3.6c.1.1.4.1.6.1zm2.9.4V66h.5s.02.59 0 .6c.2-.2.3-.4.5-.5c.2-.1.4-.2.7-.2c.5 0 .9.2 1.2.7c.3-.5.7-.7 1.2-.7c.4 0 .8.1 1 .4c.2.3.4.6.4 1.1c-.03-.04 0 2.2 0 2.2h-.6s.03-2.11 0-2.1c0-.4-.1-.6-.2-.8c-.2-.2-.4-.3-.7-.3c-.3 0-.5.1-.7.3c-.2.2-.3.5-.3.8v2.1h-.5s-.04-2.13 0-2.1c0-.4-.1-.6-.3-.8c-.2-.2-.4-.3-.7-.3c-.3 0-.5.1-.7.3c-.2.2-.3.5-.3.8c.02.03 0 2.1 0 2.1h-.5zm9-.5c-.3.4-.8.6-1.3.6c-.4 0-.7-.1-1-.3c-.2-.2-.4-.5-.4-.9c0-.3.2-.6.5-.8c.2-.2.6-.3 1.1-.3c.4 0 .7 0 1.1.1v-.1c0-.3-.1-.6-.3-.7c-.2-.2-.4-.3-.8-.3c-.3 0-.7.1-1.1.3l-.1-.5c.4-.2.8-.3 1.3-.3c.5 0 .9.2 1.2.4c.2.3.3.6.3 1.1c.02-.01 0 2.2 0 2.2h-.5v-.5s0-.05 0 0zm-1.2.1c.3 0 .6 0 .9-.2c.2-.2.3-.4.3-.7v-.4c-.4-.1-.7-.1-1.1-.1c-.3 0-.5 0-.7.2c-.2.1-.3.3-.3.5c0 .2.1.4.3.6c.1.1.3.1.6.1zm2.9.4v-5.1h.6v5.1h-.6zm1.9 0V66h.5v3.6h-.5zm5.1 1.1l-.5-.3s.55-.75.5-.8c-.4 0-.8-.2-1-.6c-.3-.3-.5-.7-.5-1.2c0-.5.2-1 .6-1.3c.3-.4.8-.6 1.3-.6c.5 0 1 .2 1.4.6l-.3.4c-.4-.3-.7-.5-1.1-.5c-.4 0-.7.1-.9.4c-.3.3-.4.6-.4 1c0 .4.1.7.4 1c.2.3.5.4.9.4c.4 0 .8-.2 1.1-.5l.4.3c-.4.4-.9.7-1.4.7c-.01-.02-.5 1-.5 1zm5.7-1.7c-.4.5-.9.7-1.5.7c-.5 0-.9-.2-1.3-.5c-.3-.4-.5-.8-.5-1.4c0-.5.2-1 .5-1.4c.3-.3.8-.5 1.3-.5c.5 0 .9.2 1.2.5c.3.4.4.9.4 1.4v.2h-2.8c0 .4.1.7.4.9c.2.2.5.3.8.3c.5 0 .8-.2 1.2-.5c-.02 0 .3.3.3.3c0 0 .02 0 0 0zm-2.7-1.4h2.3c0-.4-.1-.7-.3-.9c-.2-.2-.5-.3-.9-.3c-.3 0-.5.1-.8.3c-.2.2-.3.5-.3.9zm3.8 2v-5.1h.6v5.1h-.6zm1.8-4.4v-.6h.7v.6h-.7zm.1 4.4V66h.5v3.6h-.5zm1.8 0v-5.1h.5v3.5l2-2h.6l-1.5 1.5l1.6 2.1h-.7l-1.3-1.7l-.7.8v.9h-.5zm7.2.1c-.5 0-1-.2-1.4-.6l.2-.3c.4.3.8.4 1.3.4c.2 0 .4 0 .5-.1c.2-.1.2-.3.2-.5c0-.1-.1-.3-.2-.4c-.2 0-.4-.1-.7-.2c-.1 0-.2-.1-.3-.1c0 0-.1-.1-.2-.1c-.1 0-.2-.1-.3-.1l-.2-.2c0-.1-.1-.1-.1-.2c-.1-.1-.1-.2-.1-.3c0-.4.1-.6.4-.8c.2-.2.5-.3.9-.3c.4 0 .9.2 1.3.4l-.3.4c-.3-.2-.7-.3-1.1-.3c-.2 0-.3 0-.5.1c-.1.1-.2.2-.2.4c0 .1.1.1.1.2l.1.1l.2.2h.3c0 .1.1.1.3.1c.1.1.2.1.3.1c.1.1.2.1.3.2c.1 0 .2.1.3.2c.1 0 .1.1.2.2v.4c0 .3-.1.6-.3.8c-.3.2-.6.3-1 .3zm4.7-.6c-.3.4-.7.6-1.3.6c-.3 0-.7-.1-.9-.3c-.3-.2-.4-.5-.4-.9c0-.3.1-.6.4-.8c.3-.2.6-.3 1.1-.3c.4 0 .8 0 1.1.1v-.1c0-.3-.1-.6-.3-.7c-.1-.2-.4-.3-.8-.3c-.3 0-.7.1-1.1.3l-.1-.5c.4-.2.9-.3 1.3-.3c.5 0 .9.2 1.2.4c.2.3.3.6.3 1.1c.04-.01 0 2.2 0 2.2h-.5v-.5s.02-.05 0 0zm-1.2.1c.4 0 .6 0 .9-.2c.2-.2.3-.4.3-.7v-.4c-.3-.1-.7-.1-1-.1c-.4 0-.6 0-.8.2c-.2.1-.3.3-.3.5c0 .2.1.4.3.6c.2.1.4.1.6.1zm6-.2c-.4.5-.9.7-1.5.7c-.5 0-.9-.2-1.3-.6c-.4-.3-.5-.8-.5-1.3c0-.5.1-1 .5-1.3c.4-.4.8-.6 1.3-.6c.6 0 1.1.2 1.5.6l-.4.4c-.3-.3-.7-.5-1.1-.5c-.4 0-.7.1-.9.4c-.3.3-.4.6-.4 1c0 .4.1.7.4 1c.3.3.6.4.9.4c.5 0 .8-.2 1.2-.5l.3.3s0-.02 0 0z" stroke="none" fill="#000"/></g><g id="Polygon374087"><path d="m.7 49.6v-4.9h.5v2.9l2.9-2.9h.7l-2.1 2.1l2.2 2.8h-.7l-1.9-2.4l-1.1 1.1v1.3h-.5zm7.8-.6c-.4.5-.9.7-1.5.7c-.5 0-.9-.2-1.3-.5c-.3-.4-.5-.8-.5-1.4c0-.5.2-1 .5-1.4c.3-.3.7-.5 1.2-.5c.6 0 1 .2 1.3.5c.3.4.4.9.4 1.4v.2H5.7c.1.4.2.7.5.9c.2.2.5.3.8.3c.5 0 .8-.2 1.2-.5c-.04 0 .3.3.3.3zm-2.8-1.4h2.4c-.1-.4-.2-.7-.4-.9c-.2-.2-.4-.3-.8-.3c-.3 0-.6.1-.8.3c-.2.2-.3.5-.4.9zm3.9 2V46h.5v.6c.3-.5.7-.7 1.2-.7c.5 0 .8.1 1.1.4c.2.3.3.6.3 1.1c.03-.05 0 2.2 0 2.2h-.5v-2.1c0-.4-.1-.6-.3-.8c-.1-.2-.4-.3-.7-.3c-.3 0-.6.1-.8.3c-.2.2-.3.5-.3.8v2.1h-.5zm7.2-.7c-.4.5-.8.8-1.4.8c-.5 0-.9-.2-1.2-.5c-.4-.4-.5-.8-.5-1.4c0-.6.1-1 .5-1.4c.3-.3.7-.5 1.2-.5c.6 0 1 .3 1.4.8c-.01-.03 0-2.2 0-2.2h.5v5.1h-.5v-.7s-.01-.03 0 0zm-1.3.3c.3 0 .7-.1.9-.4c.3-.3.4-.6.4-1c0-.4-.1-.8-.4-1c-.2-.3-.6-.4-.9-.4c-.4 0-.7.1-.9.4c-.3.2-.4.6-.4 1c0 .4.1.8.4 1c.2.3.5.4.9.4zm3-4v-.6h.7v.6h-.7zm.1 4.4V46h.5v3.6h-.5zm1.8 0v-5.1h.6v5.1h-.6zm1.8-4.4v-.6h.6v.6h-.6zm.1 4.4V46h.5v3.6h-.5zm4.7.7c-.3.3-.7.4-1.3.4c-.7 0-1.2-.1-1.7-.5l.3-.4c.4.3.8.5 1.3.5c.5 0 .8-.1 1-.4c.2-.2.4-.5.4-.9v-.4c-.4.5-.9.7-1.5.7c-.4 0-.8-.1-1.1-.5c-.4-.3-.6-.7-.6-1.2c0-.5.2-.9.5-1.2c.4-.3.8-.5 1.2-.5c.6 0 1.1.2 1.5.7c-.04.03 0-.6 0-.6h.5v3c0 .5-.2.9-.5 1.3zm-1.4-1.5c.4 0 .7-.1 1-.3c.2-.2.4-.5.4-.9c0-.4-.2-.6-.4-.9c-.3-.2-.6-.3-1-.3c-.3 0-.6.1-.8.3c-.3.2-.4.5-.4.9c0 .4.1.7.4.9c.2.2.5.3.8.3zm1.2-4.2c0 .2-.1.5-.3.6c-.2.2-.4.2-.7.2c-.3 0-.5 0-.7-.2c-.2-.1-.3-.4-.3-.6h.4c0 .3.3.4.6.4c.3 0 .5-.1.6-.4c.04-.03.4 0 .4 0c0 0 .03-.03 0 0zm1.9.6v-.6h.6v.6h-.6zm0 4.4V46h.6v3.6h-.6zm1.8 0V46h.6s-.02.61 0 .6c.3-.5.7-.7 1.2-.7c.4 0 .8.1 1 .4c.3.3.4.6.4 1.1v2.2h-.5s-.03-2.11 0-2.1c0-.4-.1-.6-.3-.8c-.2-.2-.4-.3-.7-.3c-.3 0-.6.1-.8.3c-.2.2-.3.5-.3.8c-.02.03 0 2.1 0 2.1h-.6zm7.3-.7c-.4.5-.9.8-1.4.8c-.5 0-.9-.2-1.2-.5c-.4-.4-.6-.8-.6-1.4c0-.6.2-1 .6-1.4c.3-.3.7-.5 1.2-.5c.5 0 1 .3 1.4.8c-.04-.03 0-2.2 0-2.2h.5v5.1h-.5v-.7s-.04-.03 0 0zm-1.3.3c.3 0 .6-.1.9-.4c.2-.3.4-.6.4-1c0-.4-.2-.8-.4-1c-.3-.3-.6-.4-.9-.4c-.4 0-.7.1-.9.4c-.3.2-.4.6-.4 1c0 .4.1.8.4 1c.2.3.5.4.9.4zm6.1-.2c-.4.5-.9.7-1.5.7c-.5 0-.9-.2-1.3-.5c-.3-.4-.5-.8-.5-1.4c0-.5.1-1 .5-1.4c.3-.3.7-.5 1.2-.5c.5 0 .9.2 1.2.5c.3.4.5.9.5 1.4v.2h-2.9c.1.4.2.7.4.9c.3.2.6.3.9.3c.4 0 .8-.2 1.1-.5c.04 0 .4.3.4.3c0 0-.03 0 0 0zm-2.8-1.4h2.4c-.1-.4-.2-.7-.4-.9c-.2-.2-.5-.3-.8-.3c-.3 0-.6.1-.8.3c-.2.2-.3.5-.4.9zm3.8 2V46h.6s-.02.61 0 .6c.3-.5.7-.7 1.2-.7c.5 0 .8.1 1 .4c.3.3.4.6.4 1.1c.01-.05 0 2.2 0 2.2h-.5s-.03-2.11 0-2.1c0-.4-.1-.6-.3-.8c-.2-.2-.4-.3-.7-.3c-.3 0-.6.1-.8.3c-.2.2-.3.5-.3.8c-.02.03 0 2.1 0 2.1h-.6zm6.5 0v-5.1h.5v3.5l1.9-2h.7l-1.5 1.5l1.6 2.1h-.7l-1.3-1.7l-.7.8v.9h-.5zm6.3-.5c-.4.4-.8.6-1.4.6c-.3 0-.6-.1-.9-.3c-.3-.2-.4-.5-.4-.9c0-.3.1-.6.4-.8c.3-.2.7-.3 1.1-.3c.4 0 .8 0 1.2.1v-.1c0-.3-.1-.6-.3-.7c-.2-.2-.5-.3-.8-.3c-.4 0-.8.1-1.1.3l-.2-.5c.4-.2.9-.3 1.3-.3c.5 0 .9.2 1.2.4c.3.3.4.6.4 1.1c-.03-.01 0 2.2 0 2.2h-.5v-.5s-.04-.05 0 0zm-1.2.1c.3 0 .6 0 .8-.2c.2-.2.4-.4.4-.7v-.4c-.4-.1-.8-.1-1.1-.1c-.3 0-.6 0-.8.2c-.2.1-.3.3-.3.5c0 .2.1.4.3.6c.2.1.4.1.7.1zm2.8 1.5V46h.6s-.04.71 0 .7c.3-.5.8-.8 1.3-.8c.5 0 .9.2 1.3.5c.3.4.5.8.5 1.4c0 .6-.2 1-.5 1.4c-.4.3-.8.5-1.3.5c-.5 0-1-.3-1.3-.8c-.04.01 0 1.8 0 1.8h-.6zm1.8-1.5c.4 0 .7-.1 1-.4c.2-.2.3-.6.3-1c0-.4-.1-.8-.3-1c-.3-.3-.6-.4-1-.4c-.3 0-.6.1-.9.4c-.2.3-.4.6-.4 1c0 .4.2.7.4 1c.3.3.6.4.9.4zm5.3-.1c-.4.4-.8.6-1.4.6c-.3 0-.6-.1-.9-.3c-.3-.2-.4-.5-.4-.9c0-.3.1-.6.4-.8c.3-.2.7-.3 1.1-.3c.4 0 .8 0 1.2.1v-.1c0-.3-.1-.6-.3-.7c-.2-.2-.5-.3-.8-.3c-.4 0-.8.1-1.1.3l-.2-.5c.4-.2.9-.3 1.3-.3c.5 0 .9.2 1.2.4c.3.3.4.6.4 1.1c-.03-.01 0 2.2 0 2.2h-.5v-.5s-.04-.05 0 0zm-1.2.1c.3 0 .6 0 .8-.2c.2-.2.4-.4.4-.7v-.4c-.4-.1-.8-.1-1.1-.1c-.3 0-.6 0-.8.2c-.2.1-.3.3-.3.5c0 .2.1.4.3.6c.2.1.4.1.7.1zm2.8.4V46h.6s-.04.61 0 .6c.3-.5.7-.7 1.2-.7c.4 0 .8.1 1 .4c.3.3.4.6.4 1.1c-.01-.05 0 2.2 0 2.2h-.6s.05-2.11 0-2.1c0-.4 0-.6-.2-.8c-.2-.2-.4-.3-.8-.3c-.3 0-.5.1-.7.3c-.2.2-.3.5-.3.8c-.04.03 0 2.1 0 2.1h-.6zm6.7-.5c-.3.4-.7.6-1.3.6c-.4 0-.7-.1-.9-.3c-.3-.2-.4-.5-.4-.9c0-.3.1-.6.4-.8c.3-.2.6-.3 1.1-.3c.4 0 .7 0 1.1.1v-.1c0-.3-.1-.6-.3-.7c-.1-.2-.4-.3-.8-.3c-.3 0-.7.1-1.1.3l-.1-.5c.4-.2.8-.3 1.3-.3c.5 0 .9.2 1.2.4c.2.3.3.6.3 1.1c.04-.01 0 2.2 0 2.2h-.5v-.5s.02-.05 0 0zm-1.2.1c.4 0 .6 0 .9-.2c.2-.2.3-.4.3-.7v-.4c-.3-.1-.7-.1-1-.1c-.4 0-.6 0-.8.2c-.2.1-.3.3-.3.5c0 .2.1.4.3.6c.2.1.4.1.6.1zm2.9.4V46h.5s.03.61 0 .6c.3-.5.7-.7 1.3-.7c.4 0 .7.1 1 .4c.2.3.4.6.4 1.1c-.05-.05 0 2.2 0 2.2h-.6v-2.1c0-.4-.1-.6-.2-.8c-.2-.2-.5-.3-.8-.3c-.3 0-.6.1-.8.3c-.2.2-.3.5-.3.8c.03.03 0 2.1 0 2.1h-.5zm4.1.9l-.1-.3c.4-.1.5-.3.5-.6h-.3v-.7h.7s-.02.59 0 .6c0 .3-.1.5-.2.6c-.1.2-.3.3-.6.4zm4-5.3v-.6h.6v.6h-.6zm.1 4.4V46h.5v3.6h-.5zm1.8 0v-5.1h.5v3.5l1.9-2h.7l-1.5 1.5l1.6 2.1h-.7l-1.3-1.7l-.7.8v.9h-.5zm4-4.4v-.6h.6v.6h-.6zm0 4.4V46h.5v3.6h-.5zm3.9 0v-5.1h.5v3.5l2-2h.6l-1.5 1.5l1.6 2.1h-.7l-1.2-1.7l-.8.8v.9h-.5zm6.3-.5c-.3.4-.8.6-1.3.6c-.4 0-.7-.1-1-.3c-.2-.2-.4-.5-.4-.9c0-.3.2-.6.4-.8c.3-.2.7-.3 1.2-.3c.3 0 .7 0 1.1.1v-.1c0-.3-.1-.6-.3-.7c-.2-.2-.5-.3-.8-.3c-.4 0-.7.1-1.1.3l-.2-.5c.5-.2.9-.3 1.4-.3c.5 0 .9.2 1.1.4c.3.3.4.6.4 1.1v2.2h-.5v-.5s-.02-.05 0 0zm-1.2.1c.3 0 .6 0 .8-.2c.3-.2.4-.4.4-.7v-.4c-.4-.1-.7-.1-1.1-.1c-.3 0-.6 0-.8.2c-.1.1-.2.3-.2.5c0 .2.1.4.2.6c.2.1.4.1.7.1zm2.8.4V46h.6s-.02.61 0 .6c.3-.5.7-.7 1.2-.7c.5 0 .8.1 1 .4c.3.3.4.6.4 1.1c.01-.05 0 2.2 0 2.2h-.5s-.03-2.11 0-2.1c0-.4-.1-.6-.3-.8c-.2-.2-.4-.3-.7-.3c-.3 0-.6.1-.8.3c-.2.2-.3.5-.3.8c-.02.03 0 2.1 0 2.1h-.6zm6.7-.5c-.3.4-.7.6-1.3.6c-.3 0-.6-.1-.9-.3c-.3-.2-.4-.5-.4-.9c0-.3.1-.6.4-.8c.3-.2.7-.3 1.1-.3c.4 0 .8 0 1.1.1v-.1c0-.3 0-.6-.2-.7c-.2-.2-.5-.3-.8-.3c-.4 0-.8.1-1.1.3l-.2-.5c.4-.2.9-.3 1.3-.3c.5 0 .9.2 1.2.4c.2.3.4.6.4 1.1c-.04-.01 0 2.2 0 2.2h-.6v-.5s.04-.05 0 0zm-1.2.1c.4 0 .7 0 .9-.2c.2-.2.4-.4.4-.7v-.4c-.4-.1-.8-.1-1.1-.1c-.3 0-.6 0-.8.2c-.2.1-.3.3-.3.5c0 .2.1.4.3.6c.2.1.4.1.6.1zm4.7.3c-.1.1-.4.2-.6.2c-.3 0-.6-.1-.8-.3c-.1-.2-.2-.4-.2-.8c-.04.04 0-2.1 0-2.1h-.5v-.5h.5v-1.1h.5v1.1h1.2v.5H110v2.1c0 .4.2.6.6.6c.2 0 .4-.1.5-.2c.04.05 0 .5 0 .5c0 0 .04.01 0 0zm1.1.1v-5.1h.5v5.1h-.5zm1.8 0V46h.5v3.6h-.5zm5.1.1c-.6 0-1.1-.2-1.5-.6l.3-.3c.4.3.8.4 1.2.4c.2 0 .4 0 .6-.1c.1-.1.2-.3.2-.5c0-.1-.1-.3-.3-.4c-.1 0-.4-.1-.6-.2c-.2 0-.3-.1-.3-.1c-.1 0-.2-.1-.3-.1c-.1 0-.2-.1-.3-.1c0-.1-.1-.1-.1-.2c-.1-.1-.2-.1-.2-.2v-.3c0-.4.1-.6.3-.8c.2-.2.5-.3.9-.3c.5 0 .9.2 1.3.4l-.3.4c-.3-.2-.7-.3-1-.3c-.2 0-.4 0-.5.1c-.2.1-.2.2-.2.4v.2c.1 0 .1.1.2.1c0 .1.1.1.2.2h.2c.1.1.2.1.3.1c.1.1.3.1.3.1c.1.1.2.1.4.2c.1 0 .2.1.2.2c.1 0 .2.1.2.2c0 .1.1.2.1.4c0 .3-.2.6-.4.8c-.2.2-.5.3-.9.3zm4.7-.6c-.4.4-.8.6-1.4.6c-.3 0-.6-.1-.9-.3c-.3-.2-.4-.5-.4-.9c0-.3.1-.6.4-.8c.3-.2.7-.3 1.1-.3c.4 0 .8 0 1.2.1v-.1c0-.3-.1-.6-.3-.7c-.2-.2-.5-.3-.8-.3c-.4 0-.8.1-1.1.3l-.2-.5c.4-.2.9-.3 1.3-.3c.5 0 .9.2 1.2.4c.3.3.4.6.4 1.1c-.02-.01 0 2.2 0 2.2h-.5v-.5s-.04-.05 0 0zm-1.2.1c.3 0 .6 0 .8-.2c.2-.2.4-.4.4-.7v-.4c-.4-.1-.8-.1-1.1-.1c-.3 0-.6 0-.8.2c-.2.1-.3.3-.3.5c0 .2.1.4.3.6c.2.1.4.1.7.1zm2.9.4v-5.1h.5v5.1h-.5zm1.8 0V46h.6v3.6h-.6zm1.8 0V46h.5s.04.61 0 .6c.3-.5.8-.7 1.3-.7c.4 0 .8.1 1 .4c.2.3.4.6.4 1.1c-.03-.05 0 2.2 0 2.2h-.6s.03-2.11 0-2.1c0-.4-.1-.6-.2-.8c-.2-.2-.5-.3-.8-.3c-.3 0-.5.1-.7.3c-.3.2-.4.5-.4.8c.04.03 0 2.1 0 2.1h-.5zm4.4 0V46h.5v3.6h-.5zm1.8 0V46h.5v.6c.1-.2.3-.4.5-.5c.2-.1.4-.2.7-.2c.5 0 .9.2 1.1.7c.4-.5.8-.7 1.3-.7c.4 0 .8.1 1 .4c.2.3.3.6.3 1.1c.05-.04 0 2.2 0 2.2h-.5v-2.1c0-.4-.1-.6-.2-.8c-.2-.2-.4-.3-.7-.3c-.3 0-.5.1-.7.3c-.2.2-.3.5-.3.8c-.03.01 0 2.1 0 2.1h-.6s.04-2.13 0-2.1c0-.4 0-.6-.2-.8c-.2-.2-.4-.3-.7-.3c-.3 0-.5.1-.7.3c-.2.2-.3.5-.3.8v2.1h-.5zm8.7 0v-5.1h.5v3.5l2-2h.7l-1.6 1.5l1.6 2.1h-.6l-1.3-1.7l-.8.8v.9h-.5zm6.3-.5c-.3.4-.8.6-1.3.6c-.4 0-.7-.1-1-.3c-.2-.2-.4-.5-.4-.9c0-.3.2-.6.5-.8c.2-.2.6-.3 1.1-.3c.3 0 .7 0 1.1.1v-.1c0-.3-.1-.6-.3-.7c-.2-.2-.4-.3-.8-.3c-.3 0-.7.1-1.1.3l-.1-.5c.4-.2.8-.3 1.3-.3c.5 0 .9.2 1.1.4c.3.3.4.6.4 1.1c.01-.01 0 2.2 0 2.2h-.5v-.5s-.01-.05 0 0zm-1.2.1c.3 0 .6 0 .9-.2c.2-.2.3-.4.3-.7v-.4c-.4-.1-.7-.1-1.1-.1c-.3 0-.6 0-.7.2c-.2.1-.3.3-.3.5c0 .2.1.4.2.6c.2.1.4.1.7.1zm2.9 1.5V46h.5v.7c.4-.5.8-.8 1.4-.8c.4 0 .9.2 1.2.5c.3.4.5.8.5 1.4c0 .6-.2 1-.5 1.4c-.3.3-.8.5-1.2.5c-.6 0-1.1-.3-1.4-.8v1.8h-.5zm1.8-1.5c.4 0 .7-.1.9-.4c.2-.2.4-.6.4-1c0-.4-.2-.8-.4-1c-.3-.3-.6-.4-.9-.4c-.4 0-.7.1-.9.4c-.3.3-.4.6-.4 1c0 .4.1.7.4 1c.2.3.5.4.9.4zm5.2-.1c-.3.4-.8.6-1.3.6c-.4 0-.7-.1-1-.3c-.2-.2-.4-.5-.4-.9c0-.3.2-.6.5-.8c.2-.2.6-.3 1.1-.3c.4 0 .7 0 1.1.1v-.1c0-.3-.1-.6-.3-.7c-.2-.2-.4-.3-.8-.3c-.3 0-.7.1-1.1.3l-.1-.5c.4-.2.8-.3 1.3-.3c.5 0 .9.2 1.1.4c.3.3.4.6.4 1.1c.01-.01 0 2.2 0 2.2h-.5v-.5s0-.05 0 0zm-1.2.1c.3 0 .6 0 .9-.2c.2-.2.3-.4.3-.7v-.4c-.4-.1-.7-.1-1.1-.1c-.3 0-.6 0-.7.2c-.2.1-.3.3-.3.5c0 .2.1.4.2.6c.2.1.4.1.7.1zm2.9.4v-5.1h.5v3.5l2-2h.6l-1.5 1.5l1.6 2.1h-.7l-1.3-1.7l-.7.8v.9h-.5zm4 0v-5.1h.5v5.1h-.5zm1.8 0V46h.6v3.6h-.6zm1.8-2.9v-.7h.6v.7h-.6zm-.1 3.8l-.1-.3c.3-.1.5-.3.4-.6h-.2v-.7h.6s.04.59 0 .6c0 .3 0 .5-.1.6c-.2.2-.4.3-.6.4zm6.9-1.6c-.4.5-.8.8-1.4.8c-.4 0-.8-.2-1.2-.5c-.3-.4-.5-.8-.5-1.4c0-.6.2-1 .5-1.4c.4-.3.8-.5 1.2-.5c.6 0 1.1.3 1.4.8c.02-.03 0-2.2 0-2.2h.6v5.1h-.6v-.7s.02-.03 0 0zm-1.3.3c.4 0 .7-.1.9-.4c.3-.3.4-.6.4-1c0-.4-.1-.8-.4-1c-.2-.3-.5-.4-.9-.4c-.3 0-.6.1-.9.4c-.2.2-.3.6-.3 1c0 .4.1.8.3 1c.3.3.6.4.9.4zm3.1-4v-.6h.6v.6h-.6zm0 4.4V46h.5v3.6h-.5zm1.8 0v-5.1h.5v3.5l2-2h.7l-1.6 1.5l1.6 2.1h-.6l-1.3-1.7l-.8.8v.9h-.5zm6.7-.7c-.4.5-.8.8-1.4.8c-.4 0-.8-.2-1.2-.5c-.3-.4-.5-.8-.5-1.4c0-.6.2-1 .5-1.4c.4-.3.8-.5 1.2-.5c.6 0 1.1.3 1.4.8c.01-.03 0-2.2 0-2.2h.6v5.1h-.6v-.7s.01-.03 0 0zm-1.3.3c.4 0 .7-.1.9-.4c.3-.3.4-.6.4-1c0-.4-.1-.8-.4-1c-.2-.3-.5-.4-.9-.4c-.3 0-.6.1-.9.4c-.2.2-.3.6-.3 1c0 .4.1.8.3 1c.3.3.6.4.9.4zm5-3.8v-.6h.6v.6h-.6zm-1.2 0v-.6h.6v.6h-.6zm.9 4.3c-.5 0-1-.2-1.3-.6c-.4-.3-.6-.8-.6-1.3c0-.5.2-1 .6-1.3c.3-.4.8-.6 1.3-.6c.6 0 1 .2 1.4.6c.3.3.5.8.5 1.3c0 .5-.2 1-.5 1.3c-.4.4-.9.6-1.4.6zm0-.5c.4 0 .7-.1 1-.4c.2-.3.4-.6.4-1c0-.4-.2-.7-.4-1c-.3-.3-.6-.4-1-.4c-.4 0-.7.1-.9.4c-.3.3-.4.6-.4 1c0 .4.1.7.4 1c.2.3.5.4.9.4zm2.9.4V46h.5s.02.93 0 .9c.2-.3.4-.5.6-.7c.3-.2.6-.3.9-.3v.6s-.05 0 0 0c-.5 0-.8.1-1.1.4c-.2.3-.4.7-.4 1.3c.02-.04 0 1.4 0 1.4h-.5zm4.7-.1c-.2.1-.4.2-.7.2c-.3 0-.5-.1-.7-.3c-.2-.2-.3-.4-.3-.8v-2.1h-.5v-.5h.5v-1.1h.5v1.1h1.2v.5h-1.2s.04 2.07 0 2.1c0 .4.2.6.6.6c.2 0 .4-.1.6-.2c-.03.05 0 .5 0 .5c0 0-.03.01 0 0zm3.8.8c-.3.3-.8.4-1.4.4c-.6 0-1.1-.1-1.6-.5l.2-.4c.5.3.9.5 1.4.5c.4 0 .8-.1 1-.4c.2-.2.3-.5.3-.9v-.4c-.3.5-.8.7-1.4.7c-.4 0-.8-.1-1.2-.5c-.3-.3-.5-.7-.5-1.2c0-.5.2-.9.5-1.2c.4-.3.8-.5 1.2-.5c.6 0 1.1.2 1.4.7c.04.03 0-.6 0-.6h.6s-.02 2.97 0 3c0 .5-.2.9-.5 1.3zm-1.4-1.5c.4 0 .7-.1 1-.3c.2-.2.4-.5.4-.9c0-.4-.2-.6-.4-.9c-.3-.2-.6-.3-1-.3c-.3 0-.6.1-.9.3c-.2.2-.3.5-.3.9c0 .4.1.7.3.9c.3.2.6.3.9.3zm6.2.2c-.4.5-.9.7-1.5.7c-.5 0-1-.2-1.3-.5c-.4-.4-.5-.8-.5-1.4c0-.5.1-1 .5-1.4c.3-.3.7-.5 1.2-.5c.5 0 .9.2 1.2.5c.3.4.5.9.5 1.4v.2h-2.9c0 .4.2.7.4.9c.3.2.5.3.9.3c.4 0 .8-.2 1.1-.5c.02 0 .4.3.4.3c0 0-.04 0 0 0zm-2.8-1.4h2.3c0-.4-.1-.7-.3-.9c-.2-.2-.5-.3-.8-.3c-.3 0-.6.1-.8.3c-.2.2-.4.5-.4.9zm3.8 2V46h.6s-.03.61 0 .6c.3-.5.7-.7 1.2-.7c.4 0 .8.1 1 .4c.3.3.4.6.4 1.1c-.01-.05 0 2.2 0 2.2h-.5s-.05-2.11 0-2.1c0-.4-.1-.6-.3-.8c-.2-.2-.4-.3-.7-.3c-.4 0-.6.1-.8.3c-.2.2-.3.5-.3.8c-.03.03 0 2.1 0 2.1h-.6zm9.4.7c-.3.3-.8.4-1.4.4c-.6 0-1.1-.1-1.6-.5l.2-.4c.5.3.9.5 1.4.5c.4 0 .8-.1 1-.4c.2-.2.4-.5.4-.9v-.4c-.4.5-.9.7-1.5.7c-.4 0-.8-.1-1.2-.5c-.3-.3-.5-.7-.5-1.2c0-.5.2-.9.5-1.2c.4-.3.8-.5 1.2-.5c.6 0 1.1.2 1.4.7c.04.03 0-.6 0-.6h.6s-.02 2.97 0 3c0 .5-.2.9-.5 1.3zm-1.4-1.5c.4 0 .7-.1 1-.3c.2-.2.4-.5.4-.9c0-.4-.2-.6-.4-.9c-.3-.2-.6-.3-1-.3c-.3 0-.6.1-.9.3c-.2.2-.3.5-.3.9c0 .4.1.7.3.9c.3.2.6.3.9.3zm5-3.4v-.6h.7v.6h-.7zm-1.2 0v-.6h.6v.6h-.6zm.9 4.3c-.5 0-.9-.2-1.3-.6c-.4-.3-.5-.8-.5-1.3c0-.5.1-1 .5-1.3c.4-.4.8-.6 1.4-.6c.5 0 .9.2 1.3.6c.4.3.5.8.5 1.3c0 .5-.1 1-.5 1.3c-.4.4-.8.6-1.4.6zm.1-.5c.3 0 .7-.1.9-.4c.3-.3.4-.6.4-1c0-.4-.1-.7-.4-1c-.3-.3-.6-.4-1-.4c-.3 0-.7.1-.9.4c-.3.3-.4.6-.4 1c0 .4.1.7.4 1c.3.3.6.4 1 .4zm3.8.4L221 46h.6l1.3 3l1.2-3h.6l-1.6 3.6h-.5zm5.6-.7c-.3.5-.8.8-1.3.8c-.5 0-.9-.2-1.3-.5c-.3-.4-.5-.8-.5-1.4c0-.6.2-1 .5-1.4c.4-.3.8-.5 1.3-.5c.5 0 1 .3 1.3.8c.04-.03 0-2.2 0-2.2h.6v5.1h-.6v-.7s.04-.03 0 0zm-1.3.3c.4 0 .7-.1 1-.4c.2-.3.4-.6.4-1c0-.4-.2-.8-.4-1c-.3-.3-.6-.4-1-.4c-.3 0-.6.1-.9.4c-.2.2-.3.6-.3 1c0 .4.1.8.3 1c.3.3.6.4.9.4zm6.2-.2c-.4.5-.9.7-1.5.7c-.5 0-1-.2-1.3-.5c-.4-.4-.5-.8-.5-1.4c0-.5.1-1 .5-1.4c.3-.3.7-.5 1.2-.5c.5 0 .9.2 1.2.5c.3.4.5.9.5 1.4v.2h-2.9c0 .4.2.7.4.9c.3.2.5.3.9.3c.4 0 .8-.2 1.1-.5c.02 0 .4.3.4.3c0 0-.05 0 0 0zm-2.8-1.4h2.3c0-.4-.1-.7-.3-.9c-.2-.2-.5-.3-.8-.3c-.3 0-.6.1-.8.3c-.2.2-.4.5-.4.9zm3.9 2v-5.1h.5v5.1h-.5zm1.8-4.4v-.6h.6v.6h-.6zm0 4.4V46h.6v3.6h-.6zm1.6.9l-.1-.3c.4-.1.5-.3.5-.6h-.3v-.7h.7v.6c0 .3-.1.5-.2.6c-.1.2-.3.3-.6.4zm4-.9v-5.1h.6v3.5l1.9-2h.7l-1.5 1.5l1.5 2.1h-.6l-1.3-1.7l-.7.8v.9h-.6zm6.3-.5c-.3.4-.7.6-1.3.6c-.4 0-.7-.1-.9-.3c-.3-.2-.4-.5-.4-.9c0-.3.1-.6.4-.8c.3-.2.6-.3 1.1-.3c.4 0 .7 0 1.1.1v-.1c0-.3-.1-.6-.3-.7c-.1-.2-.4-.3-.8-.3c-.3 0-.7.1-1.1.3l-.1-.5c.4-.2.8-.3 1.3-.3c.5 0 .9.2 1.2.4c.2.3.3.6.3 1.1c.04-.01 0 2.2 0 2.2h-.5v-.5s.02-.05 0 0zm-1.2.1c.4 0 .6 0 .9-.2c.2-.2.3-.4.3-.7v-.4c-.3-.1-.7-.1-1-.1c-.4 0-.6 0-.8.2c-.2.1-.3.3-.3.5c0 .2.1.4.3.6c.2.1.4.1.6.1zm4.3-.2l1.2-3h.5s-1.49 3.72-1.5 3.7c-.1.4-.3.6-.5.8c-.2.2-.4.2-.7.2c-.3 0-.5 0-.8-.1l.2-.5c.2.1.4.2.6.2c.2 0 .3-.1.4-.2c.1-.1.2-.3.3-.5c.03-.01-1.6-3.6-1.6-3.6h.6l1.3 3zm2.6.6V46h.5s.02.59 0 .6c.2-.2.3-.4.5-.5c.2-.1.4-.2.7-.2c.5 0 .9.2 1.2.7c.3-.5.7-.7 1.2-.7c.4 0 .8.1 1 .4c.3.3.4.6.4 1.1c-.03-.04 0 2.2 0 2.2h-.6s.03-2.11 0-2.1c0-.4 0-.6-.2-.8c-.2-.2-.4-.3-.7-.3c-.3 0-.5.1-.7.3c-.2.2-.3.5-.3.8v2.1h-.5s-.04-2.13 0-2.1c0-.4-.1-.6-.3-.8c-.2-.2-.4-.3-.7-.3c-.3 0-.5.1-.7.3c-.2.2-.3.5-.3.8c.02.03 0 2.1 0 2.1h-.5zm9-.5c-.3.4-.7.6-1.3.6c-.4 0-.7-.1-1-.3c-.2-.2-.4-.5-.4-.9c0-.3.2-.6.5-.8c.3-.2.6-.3 1.1-.3c.4 0 .7 0 1.1.1v-.1c0-.3-.1-.6-.3-.7c-.2-.2-.4-.3-.8-.3c-.3 0-.7.1-1.1.3l-.1-.5c.4-.2.8-.3 1.3-.3c.5 0 .9.2 1.2.4c.2.3.3.6.3 1.1c.03-.01 0 2.2 0 2.2h-.5v-.5s.01-.05 0 0zm-1.2.1c.3 0 .6 0 .9-.2c.2-.2.3-.4.3-.7v-.4c-.3-.1-.7-.1-1-.1c-.4 0-.6 0-.8.2c-.2.1-.3.3-.3.5c0 .2.1.4.3.6c.1.1.4.1.6.1zm2.7.4v-.3l2.4-2.9h-2.4v-.4h3.1v.3l-2.4 2.8h2.4v.5h-3.1zm8.6-.5c-.4.4-.8.6-1.4.6c-.3 0-.6-.1-.9-.3c-.3-.2-.4-.5-.4-.9c0-.3.1-.6.4-.8c.3-.2.7-.3 1.1-.3c.4 0 .8 0 1.2.1v-.1c0-.3-.1-.6-.3-.7c-.2-.2-.5-.3-.8-.3c-.4 0-.8.1-1.1.3l-.2-.5c.4-.2.9-.3 1.3-.3c.5 0 .9.2 1.2.4c.2.3.4.6.4 1.1c-.03-.01 0 2.2 0 2.2h-.5v-.5s-.05-.05 0 0zm-1.3.1c.4 0 .7 0 .9-.2c.2-.2.4-.4.4-.7v-.4c-.4-.1-.8-.1-1.1-.1c-.3 0-.6 0-.8.2c-.2.1-.3.3-.3.5c0 .2.1.4.3.6c.2.1.4.1.6.1zm4.3-.2l1.2-3h.6s-1.56 3.72-1.6 3.7c-.1.4-.3.6-.5.8c-.2.2-.4.2-.7.2c-.2 0-.5 0-.7-.1l.2-.5c.1.1.3.2.5.2c.2 0 .3-.1.4-.2c.1-.1.3-.3.4-.5c-.04-.01-1.7-3.6-1.7-3.6h.6l1.3 3zm4.8.1c-.3.4-.7.6-1.3.6c-.3 0-.7-.1-.9-.3c-.3-.2-.4-.5-.4-.9c0-.3.1-.6.4-.8c.3-.2.6-.3 1.1-.3c.4 0 .8 0 1.1.1v-.1c0-.3-.1-.6-.3-.7c-.1-.2-.4-.3-.8-.3c-.3 0-.7.1-1 .3l-.2-.5c.4-.2.9-.3 1.3-.3c.5 0 .9.2 1.2.4c.2.3.3.6.3 1.1c.04-.01 0 2.2 0 2.2h-.5v-.5s.03-.05 0 0zm-1.2.1c.4 0 .7 0 .9-.2c.2-.2.3-.4.3-.7v-.4c-.3-.1-.7-.1-1-.1c-.4 0-.6 0-.8.2c-.2.1-.3.3-.3.5c0 .2.1.4.3.6c.2.1.4.1.6.1zm2.9.4v-5.1h.5v3.5l2-2h.7l-1.6 1.5l1.6 2.1h-.6l-1.3-1.7l-.8.8v.9h-.5zm4 0v-5.1h.6v5.1h-.6zm1.9 0V46h.5v3.6h-.5zm5.1 0l-1.6-3.6h.6l1.2 3l1.2-3h.6l-1.6 3.6h-.4zm5.7-.6c-.4.5-.9.7-1.5.7c-.5 0-.9-.2-1.2-.5c-.4-.4-.6-.8-.6-1.4c0-.5.2-1 .5-1.4c.4-.3.8-.5 1.3-.5c.5 0 .9.2 1.2.5c.3.4.5.9.5 1.4c0 .1 0 .1-.1.2h-2.8c0 .4.2.7.4.9c.2.2.5.3.9.3c.4 0 .8-.2 1.1-.5l.3.3s.03 0 0 0zm-2.7-1.4h2.3c0-.4-.1-.7-.3-.9c-.2-.2-.5-.3-.8-.3c-.4 0-.6.1-.8.3c-.3.2-.4.5-.4.9zm7.8 1.9c-.2.1-.4.2-.7.2c-.3 0-.5-.1-.7-.3c-.2-.2-.3-.4-.3-.8v-2.1h-.5v-.5h.5v-1.1h.5v1.1h1.2v.5h-1.2s.03 2.07 0 2.1c0 .4.2.6.6.6c.2 0 .4-.1.6-.2c-.04.05 0 .5 0 .5c0 0-.04.01 0 0zm2.5.2c-.6 0-1-.2-1.4-.6c-.3-.3-.5-.8-.5-1.3c0-.5.2-1 .5-1.3c.4-.4.8-.6 1.4-.6c.5 0 1 .2 1.3.6c.4.3.6.8.6 1.3c0 .5-.2 1-.6 1.3c-.3.4-.8.6-1.3.6zm0-.5c.4 0 .7-.1.9-.4c.3-.3.4-.6.4-1c0-.4-.1-.7-.4-1c-.2-.3-.5-.4-.9-.4c-.4 0-.7.1-1 .4c-.2.3-.3.6-.3 1c0 .4.1.7.3 1c.3.3.6.4 1 .4zm2.8.4V46h.6s-.02.93 0 .9c.1-.3.3-.5.6-.7c.2-.2.5-.3.9-.3c-.04.02 0 .6 0 .6h-.1c-.4 0-.7.1-1 .4c-.3.3-.4.7-.4 1.3c-.02-.04 0 1.4 0 1.4h-.6zm4.8.1c-.6 0-1-.3-1.4-.8c.02.01 0 .7 0 .7h-.5v-5.1h.5s.02 2.21 0 2.2c.4-.5.9-.8 1.4-.8c.5 0 .9.2 1.2.5c.4.4.5.8.5 1.4c0 .6-.1 1-.5 1.4c-.3.3-.7.5-1.2.5zm-.1-.5c.4 0 .7-.1.9-.4c.3-.2.4-.6.4-1c0-.4-.1-.8-.4-1c-.2-.3-.5-.4-.9-.4c-.3 0-.6.1-.9.4c-.3.3-.4.6-.4 1c0 .4.1.7.4 1c.3.3.6.4.9.4zm5.2-.1c-.3.4-.7.6-1.3.6c-.4 0-.7-.1-.9-.3c-.3-.2-.4-.5-.4-.9c0-.3.1-.6.4-.8c.3-.2.6-.3 1.1-.3c.4 0 .7 0 1.1.1v-.1c0-.3-.1-.6-.3-.7c-.2-.2-.4-.3-.8-.3c-.3 0-.7.1-1.1.3l-.1-.5c.4-.2.8-.3 1.3-.3c.5 0 .9.2 1.2.4c.2.3.3.6.3 1.1c.03-.01 0 2.2 0 2.2h-.5v-.5s.02-.05 0 0zm-1.2.1c.4 0 .6 0 .9-.2c.2-.2.3-.4.3-.7v-.4c-.3-.1-.7-.1-1-.1c-.4 0-.6 0-.8.2c-.2.1-.3.3-.3.5c0 .2.1.4.3.6c.1.1.4.1.6.1zm6.2.5c-.6 0-1.1-.2-1.5-.6l.3-.3c.4.3.8.4 1.2.4c.2 0 .4 0 .5-.1c.2-.1.3-.3.3-.5c0-.1-.1-.3-.3-.4c-.1 0-.4-.1-.6-.2c-.2 0-.3-.1-.3-.1c-.1 0-.2-.1-.3-.1c-.1 0-.2-.1-.3-.1c0-.1-.1-.1-.2-.2c0-.1-.1-.1-.1-.2v-.3c0-.4.1-.6.3-.8c.2-.2.5-.3.9-.3c.5 0 .9.2 1.3.4l-.3.4c-.3-.2-.7-.3-1-.3c-.2 0-.4 0-.5.1c-.2.1-.2.2-.2.4v.2c.1 0 .1.1.2.1c0 .1.1.1.2.2h.2c.1.1.2.1.3.1c.1.1.3.1.3.1c.1.1.2.1.4.2c.1 0 .2.1.2.2c.1 0 .1.1.2.2c0 .1.1.2.1.4c0 .3-.2.6-.4.8c-.2.2-.5.3-.9.3zm4.7-.6c-.4.4-.8.6-1.4.6c-.3 0-.6-.1-.9-.3c-.3-.2-.4-.5-.4-.9c0-.3.1-.6.4-.8c.3-.2.7-.3 1.1-.3c.4 0 .8 0 1.2.1v-.1c0-.3-.1-.6-.3-.7c-.2-.2-.5-.3-.8-.3c-.4 0-.8.1-1.1.3l-.2-.5c.4-.2.9-.3 1.3-.3c.5 0 .9.2 1.2.4c.2.3.4.6.4 1.1c-.03-.01 0 2.2 0 2.2h-.5v-.5s-.05-.05 0 0zm-1.3.1c.4 0 .7 0 .9-.2c.2-.2.4-.4.4-.7v-.4c-.4-.1-.8-.1-1.1-.1c-.3 0-.6 0-.8.2c-.2.1-.3.3-.3.5c0 .2.1.4.3.6c.2.1.4.1.6.1zm4.8.5c-.5 0-1-.3-1.3-.8c-.04.01 0 .7 0 .7h-.6v-5.1h.6s-.04 2.21 0 2.2c.3-.5.8-.8 1.3-.8c.5 0 .9.2 1.3.5c.3.4.5.8.5 1.4c0 .6-.2 1-.5 1.4c-.4.3-.8.5-1.3.5zm-.1-.5c.4 0 .7-.1 1-.4c.2-.2.3-.6.3-1c0-.4-.1-.8-.3-1c-.3-.3-.6-.4-1-.4c-.3 0-.6.1-.9.4c-.2.3-.4.6-.4 1c0 .4.2.7.4 1c.3.3.6.4.9.4zm2.9-4v-.6h.6v.6h-.6zm0 4.4V46h.6v3.6h-.6zm3.7-.1c-.2.1-.4.2-.7.2c-.3 0-.5-.1-.7-.3c-.2-.2-.3-.4-.3-.8v-2.1h-.5v-.5h.5v-1.1h.5v1.1h1.2v.5h-1.2s.04 2.07 0 2.1c0 .4.2.6.6.6c.2 0 .4-.1.6-.2c-.03.05 0 .5 0 .5c0 0-.03.01 0 0zm1 .1v-5.1h.5v5.1h-.5zm4.9-.6c-.4.5-.9.7-1.5.7c-.5 0-1-.2-1.3-.5c-.4-.4-.5-.8-.5-1.4c0-.5.1-1 .4-1.4c.4-.3.8-.5 1.3-.5c.5 0 .9.2 1.2.5c.3.4.5.9.5 1.4v.2H342c0 .4.2.7.4.9c.3.2.5.3.9.3c.4 0 .8-.2 1.1-.5l.4.3s-.05 0 0 0zm-2.8-1.4h2.3c0-.4-.1-.7-.3-.9c-.2-.2-.5-.3-.8-.3c-.3 0-.6.1-.8.3c-.2.2-.4.5-.4.9zm3.8 2V46h.6s-.04.59 0 .6c.1-.2.3-.4.4-.5c.2-.1.4-.2.7-.2c.6 0 1 .2 1.2.7c.3-.5.7-.7 1.3-.7c.4 0 .7.1 1 .4c.2.3.3.6.3 1.1c.01-.04 0 2.2 0 2.2h-.5s-.03-2.11 0-2.1c0-.4-.1-.6-.3-.8c-.1-.2-.4-.3-.7-.3c-.2 0-.5.1-.7.3c-.2.2-.3.5-.3.8c.03.01 0 2.1 0 2.1h-.5v-2.1c0-.4-.1-.6-.2-.8c-.2-.2-.4-.3-.7-.3c-.3 0-.6.1-.8.3c-.1.2-.2.5-.2.8c-.04.03 0 2.1 0 2.1h-.6zm9.7-.6c-.4.5-.9.7-1.5.7c-.5 0-.9-.2-1.2-.5c-.4-.4-.6-.8-.6-1.4c0-.5.2-1 .5-1.4c.4-.3.8-.5 1.3-.5c.5 0 .9.2 1.2.5c.3.4.5.9.5 1.4c0 .1 0 .1-.1.2h-2.8c0 .4.2.7.4.9c.2.2.5.3.9.3c.4 0 .8-.2 1.1-.5l.3.3s.03 0 0 0zm-2.7-1.4h2.3c0-.4-.1-.7-.3-.9c-.2-.2-.5-.3-.8-.3c-.4 0-.6.1-.8.3c-.3.2-.4.5-.4.9zm7.2 3.1l-.5-.3s.5-.75.5-.8c-.4 0-.8-.2-1.1-.6c-.3-.3-.4-.7-.4-1.2c0-.5.2-1 .5-1.3c.4-.4.8-.6 1.3-.6c.6 0 1.1.2 1.5.6l-.4.4c-.3-.3-.7-.5-1.1-.5c-.3 0-.7.1-.9.4c-.2.3-.4.6-.4 1c0 .4.2.7.4 1c.3.3.6.4 1 .4c.4 0 .7-.2 1.1-.5l.3.3c-.4.4-.8.7-1.4.7c.04-.02-.4 1-.4 1zm5.7-1.7c-.4.5-.9.7-1.5.7c-.5 0-1-.2-1.3-.5c-.4-.4-.5-.8-.5-1.4c0-.5.1-1 .5-1.4c.3-.3.7-.5 1.2-.5c.5 0 .9.2 1.2.5c.3.4.5.9.5 1.4v.2h-2.9c.1.4.2.7.4.9c.3.2.6.3.9.3c.4 0 .8-.2 1.1-.5c.03 0 .4.3.4.3c0 0-.03 0 0 0zm-2.8-1.4h2.3c0-.4-.1-.7-.3-.9c-.2-.2-.5-.3-.8-.3c-.3 0-.6.1-.8.3c-.2.2-.3.5-.4.9zm3.8 2V46h.6s-.02.93 0 .9c.1-.3.3-.5.6-.7c.2-.2.5-.3.9-.3c-.05.02 0 .6 0 .6h-.1c-.4 0-.7.1-1 .4c-.3.3-.4.7-.4 1.3c-.02-.04 0 1.4 0 1.4h-.6zm4 1.1l-.5-.3s.51-.75.5-.8c-.4 0-.8-.2-1.1-.6c-.3-.3-.4-.7-.4-1.2c0-.5.2-1 .5-1.3c.4-.4.8-.6 1.3-.6c.6 0 1.1.2 1.5.6l-.4.4c-.3-.3-.7-.5-1.1-.5c-.3 0-.6.1-.9.4c-.2.3-.4.6-.4 1c0 .4.2.7.4 1c.3.3.6.4 1 .4c.4 0 .7-.2 1.1-.5l.3.3c-.4.4-.8.7-1.3.7c-.05-.02-.5 1-.5 1zm5.7-1.7c-.4.5-.9.7-1.5.7c-.5 0-.9-.2-1.3-.5c-.3-.4-.5-.8-.5-1.4c0-.5.2-1 .5-1.4c.3-.3.7-.5 1.2-.5c.5 0 1 .2 1.3.5c.3.4.4.9.4 1.4v.2h-2.9c.1.4.2.7.4.9c.3.2.6.3.9.3c.4 0 .8-.2 1.1-.5c.05 0 .4.3.4.3c0 0-.02 0 0 0zm-2.8-1.4h2.4c-.1-.4-.2-.7-.4-.9c-.2-.2-.4-.3-.8-.3c-.3 0-.6.1-.8.3c-.2.2-.3.5-.4.9zm4.9 2l-1.6-3.6h.6l1.2 3l1.3-3h.5l-1.5 3.6h-.5zm5.8-.6c-.4.5-.9.7-1.5.7c-.5 0-1-.2-1.3-.5c-.4-.4-.5-.8-.5-1.4c0-.5.1-1 .4-1.4c.4-.3.8-.5 1.3-.5c.5 0 .9.2 1.2.5c.3.4.5.9.5 1.4v.2h-2.9c0 .4.2.7.4.9c.3.2.5.3.9.3c.4 0 .8-.2 1.1-.5c.02 0 .4.3.4.3c0 0-.05 0 0 0zm-2.8-1.4h2.3c0-.4-.1-.7-.3-.9c-.2-.2-.5-.3-.8-.3c-.3 0-.6.1-.8.3c-.2.2-.4.5-.4.9zm3.9 2v-5.1h.5v5.1h-.5zm1.8-4.4v-.6h.6v.6h-.6zm0 4.4V46h.6v3.6h-.6zm5.5.1c-.8 0-1.4-.3-1.8-.9l.4-.3c.3.4.8.7 1.4.7c.3 0 .5-.1.7-.3c.3-.2.4-.4.4-.7c0-.3-.2-.5-.4-.7c-.3-.1-.6-.2-1-.2c-.01-.03-.3 0-.3 0l-.1-.4l1.5-1.7h-2.4v-.5h3.1v.4l-1.5 1.7c.5.1.9.2 1.2.4c.3.2.4.6.4 1c0 .4-.1.8-.5 1.1c-.3.2-.7.4-1.1.4zm4.2 0c-.7 0-1.3-.3-1.8-.8l.4-.4c.5.5.9.7 1.4.7c.3 0 .6-.1.8-.3c.3-.2.4-.5.4-.8c0-.3-.1-.6-.4-.8c-.2-.2-.5-.2-.8-.2c-.4 0-.7 0-1.1.2c.02.03-.3-.2-.3-.2l.1-2.4h2.8v.5h-2.3s-.13 1.58-.1 1.6c.3-.2.6-.2.9-.2c.5 0 .9.1 1.2.4c.4.2.5.6.5 1.1c0 .4-.1.8-.5 1.1c-.3.3-.7.5-1.2.5zm4.9-.1v-4.9h.6v4.4h2.7v.5h-3.3zm6.3 0v-5.1h.6v3.5l1.9-2h.7l-1.5 1.5l1.6 2.1h-.7l-1.3-1.7l-.7.8v.9h-.6zm6.5-.6c-.3.4-.7.7-1.2.7c-.4 0-.8-.2-1-.4c-.3-.3-.4-.6-.4-1.1c.01.03 0-2.2 0-2.2h.5s.04 2.09 0 2.1c0 .3.1.6.3.8c.2.2.4.3.7.3c.4 0 .6-.1.8-.3c.2-.2.3-.5.3-.8c.03-.05 0-2.1 0-2.1h.6v3.6h-.6v-.6s.03-.03 0 0zm3.6.5c-.2.1-.4.2-.6.2c-.3 0-.6-.1-.8-.3c-.1-.2-.2-.4-.2-.8c-.04.04 0-2.1 0-2.1h-.5v-.5h.5v-1.1h.5v1.1h1.1v.5h-1.1v2.1c0 .4.2.6.6.6c.2 0 .4-.1.5-.2c.04.05 0 .5 0 .5c0 0 .04.01 0 0zm3.6-.5c-.3.4-.7.7-1.3.7c-.4 0-.7-.2-1-.4c-.2-.3-.4-.6-.4-1.1c.05.03 0-2.2 0-2.2h.6s-.02 2.09 0 2.1c0 .3.1.6.2.8c.2.2.5.3.8.3c.3 0 .6-.1.8-.3c.2-.2.3-.5.3-.8c-.03-.05 0-2.1 0-2.1h.5v3.6h-.5v-.6s-.03-.03 0 0zm1.6.6v-.7h.7v.7h-.7z" stroke="none" fill="#000"/></g><g id="Polygon374086"><path d="m5.6 27.1c0 .8-.3 1.4-.8 1.8c-.5.5-1.1.8-1.8.8c-.8 0-1.4-.3-1.9-.7c-.5-.5-.7-1.1-.7-1.8v-.1c0-.7.2-1.3.7-1.7c.5-.5 1.1-.8 1.9-.8c.7 0 1.3.3 1.8.7c.5.5.8 1.1.8 1.8c-.02.04 0 0 0 0c0 0-.02.05 0 0zm-4.1 0c0 .5.1.8.4 1.1c.3.3.7.5 1.1.5c.4 0 .8-.2 1-.5c.3-.2.5-.6.5-1v-.1c0-.4-.2-.7-.5-1c-.2-.3-.6-.5-1-.5c-.5 0-.8.2-1.1.5c-.3.2-.4.6-.4 1c0 .04 0 0 0 0c0 0 0 .05 0 0zm1.7-2.9v-.8h1v.8h-1zm-1.5 0v-.8h1v.8h-1zm4.6 5.4v-.7l1.9-2.2H6.4v-.9h3.2v.8l-2 2.1h2v.9H6.3zm7.3-.6c-.4.5-.9.7-1.6.7c-.5 0-1-.2-1.4-.6c-.3-.3-.5-.8-.5-1.4c0-.5.2-1 .5-1.4c.4-.3.8-.5 1.3-.5c.6 0 1.1.2 1.4.6c.3.4.5.8.5 1.4c0 .1 0 .2-.1.3h-2.6c.1.2.2.4.4.5c.1.2.3.2.6.2c.3 0 .6-.1.9-.4c-.04.04.6.6.6.6c0 0-.03-.02 0 0zm-2.5-1.6h1.6c0-.2-.1-.4-.2-.6c-.2-.1-.3-.2-.6-.2c-.2 0-.4.1-.5.2l-.3.6zm3.5 2.2v-5.1h1.1v5.1h-1.1zm2.1 0v-5.1h1.1v5.1h-1.1zm2.1-4.2v-.9h1.1v.9h-1.1zm0 4.2v-3.8h1.1v3.8h-1.1zm2.1 0v-5.1h1.1v2.7l1.2-1.4h1.3l-1.4 1.5l1.4 2.3h-1.2l-1-1.5l-.3.4v1.1h-1.1zm4.2 0v-5.1h1.1v5.1h-1.1zm5.4-.6c-.4.5-.9.7-1.6.7c-.5 0-1-.2-1.4-.6c-.3-.3-.5-.8-.5-1.4c0-.5.1-1 .5-1.4c.3-.3.8-.5 1.3-.5c.6 0 1.1.2 1.4.6c.3.4.5.8.5 1.4c0 .1-.1.2-.1.3H28c.1.2.2.4.3.5c.2.2.4.2.6.2c.4 0 .7-.1 1-.4c-.05.04.6.6.6.6c0 0-.04-.02 0 0zM28 27.4h1.6c0-.2-.1-.4-.2-.6c-.2-.1-.4-.2-.6-.2c-.2 0-.4.1-.5.2c-.2.2-.2.4-.3.6zm3.4 2.2v-3.8h1.1v.8c.2-.6.6-.8 1.2-.8v1.1h-.1c-.3 0-.6.1-.8.3c-.2.2-.3.6-.3 1v1.4h-1.1z" stroke="none" fill="#000"/></g><g id="Polygon374085"><path d="m4 9.7c-1.4 0-2.6-.4-3.6-1.3l1.1-1.3c.9.6 1.7 1 2.5 1c.4 0 .7-.1.9-.2c.2-.2.3-.4.3-.6c0-.3-.1-.5-.3-.6c-.2-.2-.7-.3-1.3-.5c-.5-.1-.9-.2-1.2-.4c-.3-.1-.6-.2-.9-.4c-.2-.2-.4-.4-.5-.7C.8 4.4.8 4 .8 3.6c0-.7.2-1.4.8-1.8c.5-.5 1.2-.7 2.1-.7c1.2 0 2.2.3 3.1 1l-.9 1.4c-.8-.5-1.6-.8-2.2-.8c-.4 0-.6.1-.8.2c-.2.2-.3.3-.3.5v.1c0 .2.1.4.3.6c.3.1.8.3 1.5.5c.9.2 1.6.5 2 .9c.5.4.7.9.7 1.6c0 .8-.3 1.5-.9 1.9c-.5.5-1.3.7-2.2.7zm8.3-.8c-.5.5-1.2.8-2 .8c-.6 0-1.1-.2-1.6-.5c-.4-.4-.6-.8-.6-1.4v-.1c0-.6.2-1.2.7-1.5c.5-.4 1.1-.5 1.9-.5c.5 0 1 .1 1.6.2v-.1c0-.8-.5-1.1-1.4-1.1c-.6 0-1.2.1-1.8.3l-.4-1.4c.8-.3 1.6-.5 2.5-.5c.9 0 1.7.2 2.1.7c.5.5.7 1.2.7 2.1c.03-.03 0 3.7 0 3.7h-1.7v-.7s-.04 0 0 0zm-1.4-.4c.4 0 .7-.1 1-.4c.3-.2.4-.4.4-.8v-.3c-.4-.2-.7-.2-1.2-.2c-.4 0-.7 0-.9.2c-.2.1-.3.4-.3.7c0 .2.1.4.3.5c.1.2.4.3.7.3zm4.8 1.1V.8h1.8v8.8h-1.8zm3.6 0V3.2h1.8v6.4h-1.8zm3.5 0V3.2h1.9s-.03.88 0 .9c.5-.7 1.1-1.1 1.9-1.1c.7 0 1.2.3 1.6.7c.3.4.5 1 .5 1.7c.04.04 0 4.2 0 4.2h-1.8s.02-3.59 0-3.6c0-.9-.4-1.3-1.1-1.3c-.3 0-.6.1-.8.3c-.2.3-.3.6-.3 1c-.03.01 0 3.6 0 3.6h-1.9zm7.6 0V3.2h1.8v6.4h-1.8zm3.5 0V3.2h1.9s-.03.88 0 .9c.5-.7 1.1-1.1 1.9-1.1c.8 0 1.4.4 1.8 1.1C40 3.4 40.8 3 41.6 3c.7 0 1.2.2 1.6.7c.4.4.6.9.6 1.7c-.04.01 0 4.2 0 4.2h-1.9s.04-3.59 0-3.6c0-.9-.3-1.3-1-1.3c-.4 0-.6.1-.8.3c-.2.3-.3.6-.3 1c-.03.01 0 3.6 0 3.6h-1.9s.04-3.59 0-3.6c0-.9-.3-1.3-1-1.3c-.4 0-.6.1-.8.3c-.2.3-.3.6-.3 1c-.03.01 0 3.6 0 3.6h-1.9zm11.5 0V.8h1.9v8.8h-1.9zm3.7 0V3.2h1.8v6.4h-1.8zm7.1 0V.8h1.8v4.7l2.2-2.3h2.1l-2.4 2.5l2.5 3.9h-2.1L58.7 7l-.7.6v2h-1.8zm10.7-.7c-.4.5-1.1.8-1.9.8c-.6 0-1.2-.2-1.6-.5c-.4-.4-.6-.8-.6-1.4v-.1c0-.6.2-1.2.7-1.5c.5-.4 1.1-.5 1.9-.5c.5 0 1 .1 1.6.2v-.1c0-.8-.5-1.1-1.4-1.1c-.6 0-1.2.1-1.8.3l-.5-1.4c.9-.3 1.7-.5 2.5-.5c1 0 1.7.2 2.2.7c.5.5.7 1.2.7 2.1c.01-.03 0 3.7 0 3.7h-1.8v-.7s.05 0 0 0zm-1.3-.4c.4 0 .7-.1 1-.4c.3-.2.4-.4.4-.8v-.3c-.4-.2-.8-.2-1.2-.2c-.4 0-.7 0-.9.2c-.2.1-.3.4-.3.7c0 .2.1.4.2.5c.2.2.5.3.8.3zm4.7 3V3.2h1.8s.01.89 0 .9c.5-.7 1.2-1.1 2-1.1c.8 0 1.5.3 2.1.9c.6.6.8 1.4.8 2.5c0 1-.2 1.8-.8 2.4c-.6.6-1.3.9-2.1.9c-.8 0-1.5-.3-2-.9v2.7h-1.8zm1.8-5.1c0 .5.1.9.4 1.3c.3.3.7.5 1.1.5c.5 0 .9-.2 1.2-.5c.3-.3.4-.8.4-1.3c0-.5-.1-1-.4-1.3c-.3-.3-.7-.5-1.2-.5c-.4 0-.8.2-1.1.5c-.3.3-.4.8-.4 1.3c-.02-.03 0 0 0 0c0 0-.02 0 0 0zm10.1 2.5c-.5.5-1.2.8-2 .8c-.6 0-1.2-.2-1.6-.5c-.4-.4-.6-.8-.6-1.4v-.1c0-.6.2-1.2.7-1.5c.5-.4 1.1-.5 1.9-.5c.5 0 1 .1 1.6.2v-.1c0-.8-.5-1.1-1.4-1.1c-.6 0-1.2.1-1.8.3l-.4-1.4c.8-.3 1.6-.5 2.4-.5c1 0 1.7.2 2.2.7c.5.5.7 1.2.7 2.1c.01-.03 0 3.7 0 3.7h-1.7v-.7s-.05 0 0 0zm-1.4-.4c.4 0 .7-.1 1-.4c.3-.2.4-.4.4-.8v-.3c-.4-.2-.8-.2-1.2-.2c-.4 0-.7 0-.9.2c-.2.1-.3.4-.3.7c0 .2.1.4.2.5c.2.2.5.3.8.3zm4.7 1.1V.8h1.8v4.7l2.1-2.3h2.2l-2.4 2.5l2.5 3.9h-2.1L88 7l-.7.6v2h-1.8zm7.2 0V.8h1.8v8.8h-1.8zm3.6 0V3.2h1.8v6.4h-1.8zm11 .1c-.8 0-1.5-.3-2-.9c-.04-.04 0 .8 0 .8h-1.9V.8h1.9s-.04 3.29 0 3.3c.5-.7 1.1-1.1 2-1.1c.8 0 1.5.3 2 .9c.6.6.9 1.4.9 2.5c0 1-.3 1.8-.9 2.4c-.5.6-1.2.9-2 .9zm-2.1-3.3c0 .5.2.9.5 1.3c.3.3.7.5 1.1.5c.4 0 .8-.2 1.1-.5c.3-.3.5-.8.5-1.3c0-.5-.2-1-.5-1.3c-.3-.3-.7-.5-1.1-.5c-.4 0-.8.2-1.1.5c-.3.3-.5.8-.5 1.3c.04-.03 0 0 0 0c0 0 .04 0 0 0zm10.4 2.3c-.6.7-1.2 1-1.9 1c-.7 0-1.3-.2-1.6-.6c-.4-.4-.6-1-.6-1.8V3.2h1.8s.01 3.56 0 3.6c0 .8.4 1.3 1.1 1.3c.4 0 .7-.1.9-.4c.2-.2.3-.5.3-.9c-.04-.04 0-3.6 0-3.6h1.8v6.4h-1.8v-.9s-.04-.01 0 0zm-.8-6.2V.8h1.8v1.7h-1.8zm-2.5 0V.8h1.8v1.7h-1.8zm9.5 5l1.4-4.3h1.9s-2.44 6.56-2.4 6.6c-.3.6-.6 1.1-.9 1.3c-.3.3-.7.5-1.3.5c-.5 0-1.1-.2-1.6-.5l.6-1.3c.3.2.6.2.8.2h.4c.1-.1.2-.2.3-.4c-.04.02-2.6-6.4-2.6-6.4h2l1.4 4.3zm8.4 1.2c-.5.7-1.1 1-1.9 1c-.6 0-1.2-.2-1.6-.6c-.3-.4-.5-1-.5-1.8c-.03.03 0-4.1 0-4.1h1.8s-.01 3.56 0 3.6c0 .8.4 1.3 1.1 1.3c.4 0 .6-.1.8-.4c.2-.2.3-.5.3-.9c.03-.04 0-3.6 0-3.6h1.9v6.4h-1.9v-.9s.03-.01 0 0zm-.7-6.2V.8h1.7v1.7h-1.7zm-2.5 0V.8h1.7v1.7H127zm6.7 7.1V.8h1.8v4.7l2.1-2.3h2.2l-2.4 2.5l2.5 3.9h-2.1L136.2 7l-.7.6v2h-1.8zm10.7 0V.8h1.8s.02 3.28 0 3.3c.6-.7 1.2-1.1 1.9-1.1c.7 0 1.2.3 1.6.7c.4.4.6 1 .6 1.7v4.2h-1.8s-.04-3.59 0-3.6c0-.9-.4-1.3-1.1-1.3c-.4 0-.7.1-.9.3c-.2.3-.3.6-.3 1c.02.01 0 3.6 0 3.6h-1.8zm11.2-.7c-.5.5-1.1.8-1.9.8c-.6 0-1.2-.2-1.6-.5c-.4-.4-.6-.8-.6-1.4v-.1c0-.6.2-1.2.7-1.5c.5-.4 1.1-.5 1.9-.5c.5 0 1 .1 1.5.2v-.1c0-.8-.4-1.1-1.3-1.1c-.6 0-1.2.1-1.8.3l-.5-1.4c.8-.3 1.7-.5 2.5-.5c1 0 1.7.2 2.2.7c.5.5.7 1.2.7 2.1v3.7h-1.8v-.7s.04 0 0 0zm-1.4-.4c.5 0 .8-.1 1.1-.4c.2-.2.4-.4.4-.8v-.3c-.4-.2-.8-.2-1.2-.2c-.4 0-.7 0-.9.2c-.2.1-.4.4-.4.7c0 .2.1.4.3.5c.2.2.4.3.7.3zm7.8 1.2c-.9 0-1.7-.3-2.4-.9c-.6-.7-.9-1.5-.9-2.4c0-.9.3-1.7.9-2.4c.7-.6 1.5-1 2.4-1c1.1 0 1.9.4 2.6 1.1l-1.1 1.2c-.2-.2-.5-.4-.7-.5c-.2-.1-.5-.2-.8-.2c-.4 0-.8.2-1.1.5c-.3.4-.4.8-.4 1.3c0 .5.1.9.4 1.3c.3.3.7.5 1.2.5c.5 0 1-.3 1.5-.7l1 1.1c-.3.4-.7.6-1.1.8c-.4.2-.9.3-1.5.3zm3.9-7.2V.8h1.9v1.7h-1.9zm0 7.1V3.2h1.8v6.4h-1.8zm3.5 0V3.2h1.9s-.03.88 0 .9c.5-.7 1.1-1.1 1.9-1.1c.8 0 1.4.4 1.8 1.1c.5-.7 1.3-1.1 2.1-1.1c.7 0 1.2.2 1.6.7c.4.4.6.9.6 1.7c-.04.01 0 4.2 0 4.2h-1.9s.04-3.59 0-3.6c0-.9-.3-1.3-1-1.3c-.4 0-.6.1-.8.3c-.2.3-.3.6-.3 1c-.03.01 0 3.6 0 3.6h-1.9s.04-3.59 0-3.6c0-.9-.3-1.3-1-1.3c-.4 0-.6.1-.8.3c-.2.3-.3.6-.3 1c-.03.01 0 3.6 0 3.6h-1.9zm11.5 0V.8h1.9v8.8h-1.9zm3.6-7.1V.8h1.9v1.7h-1.9zm.1 7.1V3.2h1.8v6.4h-1.8zm9.7 2.1l-1.6-.7l1-1.4c-.7-.2-1.2-.6-1.7-1.2c-.4-.6-.6-1.2-.6-2c0-.9.3-1.7.9-2.4c.7-.6 1.5-1 2.5-1c1 0 1.9.4 2.5 1.1l-1.1 1.2c-.2-.2-.4-.4-.7-.5c-.2-.1-.5-.2-.8-.2c-.4 0-.8.2-1.1.5c-.3.4-.4.8-.4 1.3c0 .5.1.9.4 1.3c.3.3.7.5 1.2.5c.5 0 1-.3 1.5-.7l1.1 1.1c-.4.3-.7.6-1 .8c-.4.2-.8.3-1.4.3c.03.03-.7 2-.7 2zm7.2-2c-1 0-1.8-.3-2.4-.9c-.7-.7-1-1.4-1-2.4c0-.9.3-1.7 1-2.4c.6-.6 1.5-1 2.4-1c1 0 1.9.4 2.5 1c.7.6 1 1.4 1 2.4c0 .9-.3 1.7-1 2.4c-.7.6-1.5.9-2.5.9zm0-1.5c.6 0 1-.2 1.3-.5c.3-.4.4-.8.4-1.3c0-.5-.1-.9-.5-1.3c-.3-.3-.7-.5-1.2-.5c-.5 0-.9.2-1.2.5c-.3.4-.4.8-.4 1.3c0 .5.1.9.4 1.2c.3.4.8.6 1.2.6zm.4-5.7V.8h1.8v1.7h-1.8zm-2.5 0V.8h1.8v1.7h-1.8zm6.9 9V3.2h1.9s-.04.89 0 .9c.5-.7 1.1-1.1 2-1.1c.8 0 1.5.3 2 .9c.6.6.9 1.4.9 2.5c0 1-.3 1.8-.9 2.4c-.5.6-1.2.9-2 .9c-.8 0-1.5-.3-2-.9c-.04-.04 0 2.7 0 2.7h-1.9zm1.8-5.1c0 .5.2.9.5 1.3c.3.3.7.5 1.1.5c.4 0 .8-.2 1.1-.5c.3-.3.5-.8.5-1.3c0-.5-.2-1-.5-1.3c-.3-.3-.7-.5-1.1-.5c-.4 0-.8.2-1.1.5c-.3.3-.5.8-.5 1.3c.04-.03 0 0 0 0c0 0 .04 0 0 0zm9.9 3.2V.8h1.9v4.7l2.1-2.3h2.2l-2.5 2.5l2.6 3.9h-2.1L220.5 7l-.6.6v2H218zm11-.9c-.5.7-1.1 1-1.8 1c-.7 0-1.3-.2-1.7-.6c-.3-.4-.5-1-.5-1.8c-.03.03 0-4.1 0-4.1h1.8v3.6c0 .8.4 1.3 1.1 1.3c.4 0 .6-.1.8-.4c.2-.2.3-.5.3-.9c.04-.04 0-3.6 0-3.6h1.9v6.4H229v-.9s.04-.01 0 0zm7.1.6c-.4.3-.9.4-1.4.4c-.6 0-1.1-.1-1.4-.4c-.3-.3-.5-.8-.5-1.5V4.7h-.8V3.2h.8V1.5h1.8v1.7h1.5v1.5h-1.5s.02 2.78 0 2.8c0 .4.2.6.6.6c.3 0 .6-.1.9-.2v1.4s.01.04 0 0zm5.4-.6c-.5.7-1.2 1-1.9 1c-.7 0-1.2-.2-1.6-.6c-.4-.4-.6-1-.6-1.8c.03.03 0-4.1 0-4.1h1.9s-.05 3.56 0 3.6c0 .8.3 1.3 1.1 1.3c.3 0 .6-.1.8-.4c.2-.2.3-.5.3-.9V3.2h1.8v6.4h-1.8v-.9s0-.01 0 0zm5.7 1c-1 0-1.9-.3-2.8-1l.8-1.2c.7.6 1.4.8 2.1.8c.5 0 .7-.1.7-.5v-.1c0-.1-.1-.1-.1-.2c-.1 0-.1 0-.2-.1s-.1 0-.2-.1c-.1 0-.2 0-.2-.1h-.3c-.1-.1-.2-.1-.3-.1c-.3-.1-.5-.2-.7-.3l-.6-.3c-.2-.2-.4-.4-.5-.6c-.1-.2-.1-.5-.1-.8c0-.6.2-1.1.6-1.5c.5-.3 1.1-.5 1.7-.5c.9 0 1.7.2 2.4.7l-.7 1.3c-.7-.4-1.2-.6-1.7-.6c-.2 0-.4 0-.5.1c-.1.1-.2.2-.2.3c0 .2.1.3.3.4c.3.2.6.3 1 .4c.3.1.5.2.7.3l.6.3c.2.2.4.4.5.6c.1.2.2.4.2.7c0 .7-.3 1.2-.7 1.6c-.5.3-1.1.5-1.8.5zm7.8-1c-.5.7-1.2 1-1.9 1c-.7 0-1.2-.2-1.6-.6c-.4-.4-.6-1-.6-1.8c.03.03 0-4.1 0-4.1h1.9s-.05 3.56 0 3.6c0 .8.3 1.3 1.1 1.3c.3 0 .6-.1.8-.4c.2-.2.3-.5.3-.9V3.2h1.8v6.4H255v-.9s0-.01 0 0zm11.1 1.4l-.8 1.2c-1.2-.6-2-1.3-2.5-2.2c-.6-.8-.9-1.8-.9-2.9v-.1c0-1.1.3-2.1.9-2.9c.5-.9 1.3-1.6 2.5-2.2l.8 1.2c-.9.6-1.4 1.2-1.8 1.8c-.4.6-.5 1.3-.5 2.2c0 .8.1 1.5.5 2.1c.4.6 1 1.2 1.8 1.8zm4.2-.4c-1.4 0-2.5-.4-3.3-1.4l1.3-1.2c.6.7 1.3 1 2 1c.4 0 .7-.1.9-.3c.2-.2.3-.4.3-.7v-.1c0-.3-.1-.6-.4-.7c-.3-.2-.7-.3-1.2-.3c-.03-.02-.8 0-.8 0l-.3-1.2l2-2h-3.3V1.2h5.7v1.4l-2.1 2c1.5.3 2.2 1.1 2.2 2.4c0 .8-.2 1.5-.8 2c-.5.5-1.3.7-2.2.7zm7.3 0c-1.2 0-2.2-.4-3.1-1.2l1.1-1.3c.7.6 1.3.9 2 .9c.4 0 .8-.1 1-.3c.3-.2.4-.5.4-.9c0-.4-.1-.7-.4-.9c-.3-.2-.6-.3-1.1-.3c-.5 0-.9.1-1.4.3c.01.05-1.1-.7-1.1-.7l.3-4.1h5.1v1.6h-3.5s-.13 1.47-.1 1.5c.4-.1.7-.2 1.1-.2c.9 0 1.6.3 2.1.7c.5.4.8 1.1.8 2c0 .9-.3 1.6-.9 2.2c-.5.5-1.3.7-2.3.7zm8.5-.1V1.2h1.9v6.7h4.2v1.7h-6.1zm7.8 1.7l-.8-1.2c.8-.6 1.4-1.2 1.7-1.8c.4-.6.6-1.3.6-2.1v-.1c0-.8-.2-1.5-.6-2.1c-.3-.6-.9-1.2-1.7-1.8l.8-1.2c1.1.6 1.9 1.3 2.5 2.2c.5.8.8 1.8.8 3c0 1.1-.3 2.1-.8 2.9c-.6.9-1.4 1.6-2.5 2.2z" stroke="none" fill="#000"/></g></svg>