<?xml version="1.0" standalone="no"?><!DOCTYPE svg PUBLIC "-//W3C//DTD SVG 1.1//EN" "http://www.w3.org/Graphics/SVG/1.1/DTD/svg11.dtd"><svg xmlns="http://www.w3.org/2000/svg" version="1.1" width="58.4px" height="20.5px" viewBox="0 -1 58.4 20.5" style="top:-1px"><desc>₺4.592,64</desc><defs/><g id="Polygon373601"><path d="m2.3 4.8v7.1h-.9V4.8h.9zm1.9 3.4h.9s.03.38 0 .4c0 .5 0 1-.2 1.4c-.1.4-.3.8-.5 1.1c-.3.3-.6.5-1 .7c-.3.1-.7.2-1.1.2h-.5c-.1 0-.3-.1-.4-.1l.9-.7c.3 0 .6 0 .8-.2c.2-.1.4-.2.6-.5c.2-.2.3-.5.4-.8c.1-.3.1-.7.1-1.1v-.4zm-.7-2.7v.9L.2 7.9v-.9l3.3-1.5zm0 1.6v.9L.2 9.5v-.9l3.3-1.5zM11 9.5v.8H5.8v-.6L9 4.8h.7L9 6.2l-2.1 3.3h4.1zm-1-4.7v7.1h-.9V4.8h.9zm1.9 6.6c0-.1 0-.2.1-.4c.1-.1.3-.1.5-.1c.1 0 .3 0 .4.1c.1.2.1.3.1.4c0 .2 0 .3-.1.4c-.1.1-.3.2-.4.2c-.2 0-.4-.1-.5-.2c-.1-.1-.1-.2-.1-.4zm3.7-2.9c-.04.03-.8-.2-.8-.2l.4-3.5h3.6v.8H16s-.26 1.97-.3 2c.2-.1.3-.2.5-.2c.2-.1.5-.1.7-.1c.4 0 .7 0 .9.1c.3.1.5.3.7.5c.2.2.3.5.4.8c.1.3.1.6.1.9c0 .4 0 .7-.1 1c-.1.3-.2.5-.4.7c-.2.3-.4.4-.7.5c-.3.2-.6.2-1 .2c-.3 0-.6 0-.8-.1c-.3-.1-.5-.2-.7-.4c-.2-.1-.4-.3-.5-.6c-.1-.2-.2-.5-.2-.9h.8c.1.3.2.5.3.7c.1.2.2.3.4.4c.2.1.4.2.7.2c.2 0 .4-.1.6-.1c.1-.1.3-.2.4-.4c.1-.1.2-.3.2-.5c.1-.2.1-.4.1-.6c0-.3 0-.5-.1-.7c0-.2-.1-.3-.2-.5c-.2-.1-.3-.2-.5-.3c-.2-.1-.4-.1-.6-.1c-.3 0-.5 0-.7.1c-.1.1-.3.2-.4.3zm5.3 2.7s.13-.04.1 0c.5 0 1-.1 1.3-.3c.3-.1.6-.3.7-.6c.2-.2.3-.5.4-.8c.1-.3.1-.6.1-.9V7.5c0-.4 0-.6-.1-.9c-.1-.2-.2-.5-.3-.6c-.1-.2-.3-.3-.4-.4c-.2-.1-.4-.1-.6-.1c-.2 0-.4 0-.5.1c-.2.1-.3.2-.4.3l-.3.6c-.1.2-.1.4-.1.6c0 .2 0 .4.1.6c.1.2.1.4.2.6c.1.1.3.3.4.3c.2.1.4.2.6.2c.2 0 .4-.1.6-.1c.2-.1.3-.2.5-.4c.1-.1.2-.3.3-.4c.1-.2.1-.4.1-.6h.5c0 .3-.1.6-.2.8c-.1.3-.3.5-.4.7c-.2.2-.5.4-.7.5c-.3.2-.5.2-.8.2c-.4 0-.7 0-1-.2c-.2-.1-.4-.3-.6-.5c-.1-.2-.3-.5-.3-.8c-.1-.3-.2-.5-.2-.8c0-.4.1-.7.2-1c.1-.3.2-.5.4-.8c.2-.2.4-.4.7-.5c.3-.1.6-.2.9-.2c.4 0 .8.1 1.1.3c.3.1.5.3.7.6c.2.3.3.6.4.9c.1.4.1.7.1 1.1v.3c0 .4 0 .8-.1 1.1c0 .4-.1.8-.2 1.1c-.2.4-.4.7-.6.9c-.3.3-.6.5-1 .7c-.4.1-.9.2-1.5.2c.03.03-.1 0-.1 0v-.7zm9.4 0v.7h-4.6v-.6s2.29-2.63 2.3-2.6c.3-.3.5-.6.7-.8c.1-.3.2-.5.3-.6c.1-.2.1-.4.1-.6c0-.2-.1-.4-.2-.6c-.1-.2-.2-.4-.4-.5c-.2-.1-.4-.1-.7-.1c-.3 0-.5 0-.7.1c-.3.2-.4.3-.5.5c-.1.3-.2.5-.2.8h-.9c0-.4.1-.8.3-1.1c.2-.3.4-.6.8-.8c.3-.2.7-.3 1.2-.3c.5 0 .9.1 1.2.2c.3.2.6.4.7.7c.2.3.3.6.3 1c0 .2 0 .4-.1.6c-.1.3-.2.5-.3.7c-.1.2-.3.4-.4.6c-.2.2-.4.4-.5.6c-.05.01-2 2.1-2 2.1h3.6zm1.9-.4v.8c0 .3-.1.6-.2.9c-.2.3-.4.6-.7.8l-.5-.3c.1-.2.2-.3.3-.5c.1-.1.1-.3.2-.4v-1.3h.9zm4.5-6h.1v.8s-.09-.04-.1 0c-.5 0-.9 0-1.2.2c-.3.1-.6.4-.8.6c-.1.3-.3.6-.4.9c0 .3-.1.6-.1 1v1c0 .3 0 .6.1.9l.3.6c.2.1.3.3.5.3c.1.1.3.2.5.2c.2 0 .4-.1.5-.2c.2 0 .3-.1.5-.3c.1-.1.2-.3.2-.5c.1-.2.1-.4.1-.7c0-.2 0-.4-.1-.6c0-.2-.1-.3-.2-.5c-.1-.2-.3-.3-.4-.4c-.2-.1-.4-.1-.6-.1c-.2 0-.5.1-.7.2c-.2.1-.4.3-.5.5c-.2.2-.2.4-.3.6h-.4c0-.4.1-.7.2-.9c.1-.3.3-.5.5-.7c.2-.1.4-.3.6-.3c.2-.1.5-.1.8-.1c.3 0 .6 0 .9.2c.2.1.4.3.6.5c.2.2.3.5.4.7c.1.3.1.6.1.9c0 .3-.1.6-.1.9c-.1.3-.3.6-.5.8c-.2.2-.4.4-.7.5c-.2.2-.6.2-.9.2c-.4 0-.7-.1-1-.2c-.3-.2-.5-.4-.7-.7c-.2-.2-.4-.5-.5-.8c-.1-.4-.1-.7-.1-1v-.4c0-.5.1-1 .2-1.5c.1-.5.2-.9.5-1.3c.2-.4.6-.7 1-1c.5-.2 1-.3 1.7-.3zm7 4.7v.8h-5.2v-.6l3.2-4.9h.8l-.8 1.4l-2.1 3.3h4.1zm-1-4.7v7.1h-.9V4.8h.9z" stroke="none" fill="#000"/></g></svg>