<?xml version="1.0" standalone="no"?><!DOCTYPE svg PUBLIC "-//W3C//DTD SVG 1.1//EN" "http://www.w3.org/Graphics/SVG/1.1/DTD/svg11.dtd"><svg xmlns="http://www.w3.org/2000/svg" version="1.1" width="431px" height="144.4px" viewBox="0 -4 431 144.4" style="top:-4px"><desc>Hafif, d z al minyum basamakl merdiven (geni elik basamaklar &amp; kayd rmaz paspaslar) Ortak zellikler Al minyum g v...</desc><defs/><g id="Polygon365077"><path d="m2.6 123.1c0 .3-.1.5-.3.7c-.2.2-.4.3-.6.3c-.3 0-.5-.1-.7-.3c-.2-.2-.2-.4-.2-.7c0-.2 0-.4.2-.6c.2-.2.4-.3.7-.3c.2 0 .4.1.6.3c.2.2.3.4.3.6c-.01.03 0 0 0 0c0 0-.01.04 0 0zm7.9 2.5v-4.4H8.8v-.5h3.9v.5H11v4.4h-.5zm4.6-.5c-.3.4-.7.6-1.3.6c-.4 0-.7-.1-.9-.3c-.3-.2-.4-.5-.4-.9c0-.3.1-.6.4-.8c.3-.2.6-.3 1.1-.3c.4 0 .7 0 1.1.1v-.1c0-.3-.1-.6-.3-.7c-.1-.2-.4-.3-.8-.3c-.3 0-.7.1-1.1.3l-.1-.5c.4-.2.8-.3 1.3-.3c.5 0 .9.2 1.2.4c.2.3.3.6.3 1.1c.04-.01 0 2.2 0 2.2h-.5v-.5s.02-.05 0 0zm-1.2.1c.4 0 .6 0 .9-.2c.2-.2.3-.4.3-.7v-.4c-.3-.1-.7-.1-1-.1c-.4 0-.6 0-.8.2c-.2.1-.3.3-.3.5c0 .2.1.4.3.6c.1.1.4.1.6.1zm3.8 1.5l-.6-.3l.6-.8c-.5 0-.9-.2-1.2-.5l.3-.3c.4.3.8.4 1.2.4c.2 0 .4 0 .6-.1c.1-.1.2-.3.2-.5c0-.1-.1-.3-.3-.4c-.1 0-.4-.1-.6-.2c-.2 0-.3-.1-.3-.1c-.1 0-.2-.1-.3-.1c-.1 0-.2-.1-.3-.1c0-.1-.1-.1-.1-.2c-.1-.1-.2-.1-.2-.2v-.3c0-.4.1-.6.3-.8c.2-.2.5-.3.9-.3c.5 0 .9.2 1.3.4l-.3.4c-.3-.2-.7-.3-1-.3c-.2 0-.4 0-.5.1c-.2.1-.2.2-.2.4v.2c.1 0 .1.1.2.1c0 .1.1.1.2.2h.2c.1.1.2.1.3.1c.1.1.3.1.3.1c.1.1.2.1.4.2c.1 0 .2.1.2.2c.1 0 .2.1.2.2c0 .1.1.2.1.4c0 .3-.1.5-.3.7c-.3.2-.5.3-.9.4l-.4 1zm2.6-1.1V122h.6v3.6h-.6zm1.8 0V122h.6s-.05.59 0 .6c.1-.2.3-.4.4-.5c.2-.1.4-.2.7-.2c.6 0 1 .2 1.2.7c.3-.5.7-.7 1.3-.7c.4 0 .7.1.9.4c.3.3.4.6.4 1.1v2.2h-.5s-.04-2.11 0-2.1c0-.4-.1-.6-.3-.8c-.2-.2-.4-.3-.7-.3c-.3 0-.5.1-.7.3c-.2.2-.3.5-.3.8c.02.01 0 2.1 0 2.1h-.5v-2.1c0-.4-.1-.6-.3-.8c-.1-.2-.4-.3-.6-.3c-.3 0-.6.1-.8.3c-.2.2-.2.5-.2.8c-.05.03 0 2.1 0 2.1h-.6zm9-.5c-.3.4-.7.6-1.3.6c-.3 0-.7-.1-.9-.3c-.3-.2-.4-.5-.4-.9c0-.3.1-.6.4-.8c.3-.2.7-.3 1.1-.3c.4 0 .8 0 1.1.1v-.1c0-.3-.1-.6-.2-.7c-.2-.2-.5-.3-.8-.3c-.4 0-.8.1-1.1.3l-.2-.5c.4-.2.9-.3 1.3-.3c.5 0 .9.2 1.2.4c.2.3.4.6.4 1.1c-.05-.01 0 2.2 0 2.2h-.6v-.5s.03-.05 0 0zm-1.2.1c.4 0 .7 0 .9-.2c.2-.2.3-.4.3-.7v-.4c-.3-.1-.7-.1-1-.1c-.4 0-.6 0-.8.2c-.2.1-.3.3-.3.5c0 .2.1.4.3.6c.2.1.4.1.6.1zm5 .4v-5.1h.5v3.5l2-2h.7l-1.6 1.5l1.6 2.1h-.6l-1.3-1.7l-.8.8v.9h-.5zm6.3-.5c-.3.4-.8.6-1.3.6c-.4 0-.7-.1-1-.3c-.2-.2-.4-.5-.4-.9c0-.3.2-.6.5-.8c.2-.2.6-.3 1.1-.3c.4 0 .7 0 1.1.1v-.1c0-.3-.1-.6-.3-.7c-.2-.2-.4-.3-.8-.3c-.3 0-.7.1-1.1.3l-.1-.5c.4-.2.8-.3 1.3-.3c.5 0 .9.2 1.1.4c.3.3.4.6.4 1.1c.02-.01 0 2.2 0 2.2h-.5v-.5s0-.05 0 0zm-1.2.1c.3 0 .6 0 .9-.2c.2-.2.3-.4.3-.7v-.4c-.4-.1-.7-.1-1.1-.1c-.3 0-.6 0-.7.2c-.2.1-.3.3-.3.5c0 .2.1.4.3.6c.1.1.3.1.6.1zm2.9 1.5V122h.5v.7c.4-.5.8-.8 1.4-.8c.5 0 .9.2 1.2.5c.3.4.5.8.5 1.4c0 .6-.2 1-.5 1.4c-.3.3-.7.5-1.2.5c-.6 0-1-.3-1.4-.8c.01.01 0 1.8 0 1.8h-.5zm1.8-1.5c.4 0 .7-.1.9-.4c.2-.2.4-.6.4-1c0-.4-.2-.8-.4-1c-.2-.3-.5-.4-.9-.4c-.4 0-.7.1-.9.4c-.3.3-.4.6-.4 1c0 .4.1.7.4 1c.2.3.5.4.9.4zm5.2-.1c-.3.4-.8.6-1.3.6c-.4 0-.7-.1-1-.3c-.2-.2-.4-.5-.4-.9c0-.3.2-.6.5-.8c.2-.2.6-.3 1.1-.3c.4 0 .7 0 1.1.1v-.1c0-.3-.1-.6-.3-.7c-.2-.2-.4-.3-.8-.3c-.3 0-.7.1-1.1.3l-.1-.5c.4-.2.8-.3 1.3-.3c.5 0 .9.2 1.1.4c.3.3.4.6.4 1.1c.02-.01 0 2.2 0 2.2h-.5v-.5s0-.05 0 0zm-1.2.1c.3 0 .6 0 .9-.2c.2-.2.3-.4.3-.7v-.4c-.4-.1-.7-.1-1.1-.1c-.3 0-.6 0-.7.2c-.2.1-.3.3-.3.5c0 .2.1.4.3.6c.1.1.3.1.6.1zm4.1.5c-.6 0-1.1-.2-1.5-.6l.2-.3c.4.3.9.4 1.3.4c.2 0 .4 0 .5-.1c.2-.1.2-.3.2-.5c0-.1 0-.3-.2-.4c-.1 0-.4-.1-.7-.2c-.1 0-.2-.1-.2-.1c-.1 0-.2-.1-.3-.1c-.1 0-.2-.1-.3-.1c0-.1-.1-.1-.2-.2c0-.1-.1-.1-.1-.2c0-.1-.1-.2-.1-.3c0-.4.2-.6.4-.8c.2-.2.5-.3.9-.3c.4 0 .9.2 1.3.4l-.3.4c-.3-.2-.7-.3-1-.3c-.3 0-.4 0-.5.1c-.2.1-.2.2-.2.4v.2c.1 0 .1.1.1.1c.1.1.2.1.3.2h.2c.1.1.2.1.3.1c.1.1.2.1.3.1c.1.1.2.1.3.2c.2 0 .2.1.3.2c.1 0 .1.1.2.2c0 .1.1.2.1.4c0 .3-.2.6-.4.8c-.3.2-.6.3-.9.3zm2.3-4.5v-.6h.6v.6h-.6zm0 4.4V122h.5v3.6h-.5zm3.7-.1c-.2.1-.4.2-.7.2c-.3 0-.6-.1-.7-.3c-.2-.2-.3-.4-.3-.8c-.02.04 0-2.1 0-2.1h-.5v-.5h.5v-1.1h.5v1.1h1.2v.5h-1.2s.02 2.07 0 2.1c0 .4.2.6.6.6c.2 0 .4-.1.6-.2c-.04.05 0 .5 0 .5c0 0-.04.01 0 0zm3.9-.5c-.4.5-.9.7-1.5.7c-.5 0-.9-.2-1.3-.5c-.3-.4-.5-.8-.5-1.4c0-.5.2-1 .5-1.4c.3-.3.7-.5 1.2-.5c.5 0 1 .2 1.3.5c.3.4.4.9.4 1.4v.2h-2.9c.1.4.2.7.5.9c.2.2.5.3.8.3c.4 0 .8-.2 1.2-.5c-.05 0 .3.3.3.3c0 0-.01 0 0 0zm-2.8-1.4h2.4c-.1-.4-.2-.7-.4-.9c-.2-.2-.4-.3-.8-.3c-.3 0-.6.1-.8.3c-.2.2-.3.5-.4.9zm5.1 2.1c-.6 0-1.1-.2-1.5-.6l.2-.3c.4.3.9.4 1.3.4c.2 0 .4 0 .5-.1c.2-.1.2-.3.2-.5c0-.1 0-.3-.2-.4c-.1 0-.4-.1-.7-.2c-.1 0-.2-.1-.3-.1c0 0-.1-.1-.2-.1c-.1 0-.2-.1-.3-.1c0-.1-.1-.1-.2-.2c0-.1-.1-.1-.1-.2c0-.1-.1-.2-.1-.3c0-.4.2-.6.4-.8c.2-.2.5-.3.9-.3c.4 0 .9.2 1.3.4l-.3.4c-.3-.2-.7-.3-1-.3c-.3 0-.4 0-.6.1c-.1.1-.1.2-.1.4v.2l.1.1c.1.1.2.1.3.2h.2c.1.1.2.1.3.1c.1.1.2.1.3.1c.1.1.2.1.3.2c.1 0 .2.1.3.2c.1 0 .1.1.2.2v.4c0 .3-.1.6-.3.8c-.3.2-.6.3-.9.3zm2.3-4.5v-.6h.6v.6h-.6zm0 4.4V122h.5v3.6h-.5zm1.8-2.9v-.7h.6v.7h-.6zm0 2.9v-.7h.6v.7h-.6zm4.5 0v-4.4l-.9.3l-.1-.4l1.2-.4h.4v4.9h-.6zm3.4.1c-.7 0-1.2-.3-1.8-.8l.4-.4c.5.5.9.7 1.4.7c.3 0 .6-.1.8-.3c.3-.2.4-.5.4-.8c0-.3-.1-.6-.4-.8c-.2-.2-.5-.2-.8-.2c-.4 0-.7 0-1.1.2l-.3-.2l.1-2.4h2.8v.5h-2.3s-.12 1.58-.1 1.6c.3-.2.6-.2.9-.2c.5 0 .9.1 1.3.4c.3.2.4.6.4 1.1c0 .4-.1.8-.4 1.1c-.4.3-.8.5-1.3.5zm6.7-2.6c0 .8-.2 1.4-.5 1.8c-.4.5-.9.8-1.5.8c-.7 0-1.2-.3-1.5-.7c-.4-.5-.6-1.1-.6-1.8v-.1c0-.7.2-1.3.6-1.7c.4-.5.9-.8 1.5-.8c.6 0 1.1.3 1.5.7c.3.5.5 1.1.5 1.8c.02.04 0 0 0 0c0 0 .02.05 0 0zm-3.5 0c0 .6.1 1.1.4 1.5c.3.4.6.6 1.1.6c.4 0 .8-.2 1-.6c.3-.4.5-.9.5-1.4v-.1c0-.5-.2-1-.5-1.4c-.2-.4-.6-.6-1-.6c-.5 0-.9.2-1.1.6c-.3.4-.4.9-.4 1.4c-.04.04 0 0 0 0c0 0-.04.05 0 0zm6.7 2.5v-5.1h.5v3.5l2-2h.6l-1.5 1.5l1.6 2.1h-.7l-1.3-1.7l-.7.8v.9h-.5zm6.8.7c-.4.3-.8.4-1.4.4c-.6 0-1.2-.1-1.7-.5l.3-.4c.4.3.9.5 1.4.5c.4 0 .7-.1.9-.4c.3-.2.4-.5.4-.9v-.4c-.4.5-.9.7-1.4.7c-.5 0-.9-.1-1.2-.5c-.4-.3-.5-.7-.5-1.2c0-.5.1-.9.5-1.2c.3-.3.7-.5 1.2-.5c.5 0 1 .2 1.4.7c-.03.03 0-.6 0-.6h.5v3c0 .5-.1.9-.4 1.3zm-1.4-1.5c.3 0 .6-.1.9-.3c.3-.2.4-.5.4-.9c0-.4-.1-.6-.4-.9c-.3-.2-.6-.3-.9-.3c-.4 0-.7.1-.9.3c-.3.2-.4.5-.4.9c0 .4.1.7.4.9c.2.2.5.3.9.3z" stroke="none" fill="#000"/></g><g id="Polygon365076"><path d="m2.6 113.1c0 .3-.1.5-.3.7c-.2.2-.4.3-.6.3c-.3 0-.5-.1-.7-.3c-.2-.2-.2-.4-.2-.7c0-.2 0-.4.2-.6c.2-.2.4-.3.7-.3c.2 0 .4.1.6.3c.2.2.3.4.3.6c-.01.03 0 0 0 0c0 0-.01.04 0 0zm6.6 2.5v-4.9h.5v2.9l2.9-2.9h.7l-2.1 2.1l2.2 2.8h-.7l-1.9-2.4l-1.1 1.1v1.3h-.5zm7.3-.5c-.4.4-.8.6-1.4.6c-.3 0-.6-.1-.9-.3c-.3-.2-.4-.5-.4-.9c0-.3.1-.6.4-.8c.3-.2.7-.3 1.1-.3c.4 0 .8 0 1.2.1v-.1c0-.3-.1-.6-.3-.7c-.2-.2-.5-.3-.8-.3c-.4 0-.8.1-1.1.3l-.2-.5c.4-.2.9-.3 1.3-.3c.5 0 .9.2 1.2.4c.3.3.4.6.4 1.1c-.03-.01 0 2.2 0 2.2h-.5v-.5s-.04-.05 0 0zm-1.2.1c.3 0 .6 0 .8-.2c.2-.2.4-.4.4-.7v-.4c-.4-.1-.8-.1-1.1-.1c-.3 0-.6 0-.8.2c-.2.1-.3.3-.3.5c0 .2.1.4.3.6c.2.1.4.1.7.1zm4.6.3c-.1.1-.4.2-.6.2c-.3 0-.6-.1-.7-.3c-.2-.2-.3-.4-.3-.8c-.02.04 0-2.1 0-2.1h-.5v-.5h.5v-1.1h.5v1.1h1.2v.5h-1.2v2.1c0 .4.2.6.6.6c.2 0 .4-.1.5-.2c.05.05 0 .5 0 .5c0 0 .05.01 0 0zm1.1.1v-5.1h.5v5.1h-.5zm1.8 0V112h.5v3.6h-.5zm3.9 0v-5.1h.5v3.5l2-2h.7l-1.6 1.5l1.6 2.1h-.6l-1.3-1.7l-.8.8v.9h-.5zm6.3-.5c-.3.4-.8.6-1.3.6c-.4 0-.7-.1-1-.3c-.2-.2-.4-.5-.4-.9c0-.3.2-.6.5-.8c.2-.2.6-.3 1.1-.3c.4 0 .7 0 1.1.1v-.1c0-.3-.1-.6-.3-.7c-.2-.2-.4-.3-.8-.3c-.3 0-.7.1-1.1.3l-.1-.5c.4-.2.8-.3 1.3-.3c.5 0 .9.2 1.1.4c.3.3.4.6.4 1.1c.01-.01 0 2.2 0 2.2h-.5v-.5s0-.05 0 0zm-1.2.1c.3 0 .6 0 .9-.2c.2-.2.3-.4.3-.7v-.4c-.4-.1-.7-.1-1.1-.1c-.3 0-.6 0-.7.2c-.2.1-.3.3-.3.5c0 .2.1.4.2.6c.2.1.4.1.7.1zm2.9.4v-5.1h.6v5.1h-.6zm1.9 0V112h.5v3.6h-.5zm1.7 0V112h.6s-.02.61 0 .6c.3-.5.7-.7 1.2-.7c.5 0 .8.1 1 .4c.3.3.4.6.4 1.1c.01-.05 0 2.2 0 2.2h-.5s-.03-2.11 0-2.1c0-.4-.1-.6-.3-.8c-.2-.2-.4-.3-.7-.3c-.3 0-.6.1-.8.3c-.2.2-.3.5-.3.8c-.02.03 0 2.1 0 2.1h-.6zm4.4 0v-5.1h.5v5.1h-.5zm1.8 0V112h.6v3.6h-.6zm1.8 0v-5.1h.6v3.5l1.9-2h.7l-1.5 1.5l1.6 2.1h-.7l-1.3-1.7l-.7.8v.9h-.6zm7.7-.6l1.1-3h.6s-1.52 3.72-1.5 3.7c-.2.4-.3.6-.5.8c-.2.2-.4.2-.7.2c-.3 0-.5 0-.8-.1l.2-.5c.2.1.4.2.6.2c.1 0 .3-.1.4-.2c.1-.1.2-.3.3-.5l-1.6-3.6h.6l1.3 3zm4.8.1c-.3.4-.8.6-1.3.6c-.4 0-.7-.1-1-.3c-.3-.2-.4-.5-.4-.9c0-.3.2-.6.4-.8c.3-.2.7-.3 1.2-.3c.3 0 .7 0 1.1.1v-.1c0-.3-.1-.6-.3-.7c-.2-.2-.5-.3-.8-.3c-.4 0-.7.1-1.1.3l-.2-.5c.5-.2.9-.3 1.3-.3c.6 0 1 .2 1.2.4c.3.3.4.6.4 1.1c-.01-.01 0 2.2 0 2.2h-.5v-.5s-.03-.05 0 0zm-1.2.1c.3 0 .6 0 .8-.2c.3-.2.4-.4.4-.7v-.4c-.4-.1-.7-.1-1.1-.1c-.3 0-.6 0-.8.2c-.2.1-.2.3-.2.5c0 .2 0 .4.2.6c.2.1.4.1.7.1zm2.9.4v-5.1h.5v5.1h-.5zm1.8 0V112h.5s.02.61 0 .6c.3-.5.7-.7 1.3-.7c.4 0 .7.1 1 .4c.2.3.3.6.3 1.1c.04-.05 0 2.2 0 2.2h-.5v-2.1c0-.4-.1-.6-.3-.8c-.1-.2-.4-.3-.7-.3c-.3 0-.6.1-.8.3c-.2.2-.3.5-.3.8c.02.03 0 2.1 0 2.1h-.5zm4.3 0V112h.6v3.6h-.6zm1.6 0v-.3l2.4-2.9h-2.3v-.4h3.1v.3l-2.5 2.8h2.5v.5h-3.2zm7.1-.6c-.4.5-.9.7-1.5.7c-.5 0-.9-.2-1.3-.6c-.3-.3-.5-.8-.5-1.3c0-.5.2-1 .5-1.3c.4-.4.8-.6 1.3-.6c.6 0 1.1.2 1.5.6l-.4.4c-.3-.3-.7-.5-1.1-.5c-.3 0-.6.1-.9.4c-.2.3-.4.6-.4 1c0 .4.2.7.4 1c.3.3.6.4 1 .4c.4 0 .7-.2 1.1-.5c-.02-.04.3.3.3.3c0 0 .02-.02 0 0zm3.3.1c-.3.4-.8.6-1.3.6c-.4 0-.7-.1-1-.3c-.2-.2-.4-.5-.4-.9c0-.3.2-.6.5-.8c.2-.2.6-.3 1.1-.3c.4 0 .7 0 1.1.1v-.1c0-.3-.1-.6-.3-.7c-.2-.2-.4-.3-.8-.3c-.3 0-.7.1-1.1.3l-.1-.5c.4-.2.8-.3 1.3-.3c.5 0 .9.2 1.1.4c.3.3.4.6.4 1.1c.02-.01 0 2.2 0 2.2h-.5v-.5s0-.05 0 0zm-1.2.1c.3 0 .6 0 .9-.2c.2-.2.3-.4.3-.7v-.4c-.4-.1-.7-.1-1.1-.1c-.3 0-.6 0-.7.2c-.2.1-.3.3-.3.5c0 .2.1.4.3.6c.1.1.3.1.6.1zm6.5.5c-.7 0-1.2-.3-1.8-.8l.4-.4c.5.5.9.7 1.4.7c.3 0 .6-.1.8-.3c.3-.2.4-.5.4-.8c0-.3-.1-.6-.4-.8c-.2-.2-.5-.2-.8-.2c-.4 0-.7 0-1.1.2l-.3-.2l.1-2.4h2.8v.5h-2.3s-.12 1.58-.1 1.6c.3-.2.6-.2.9-.2c.5 0 .9.1 1.3.4c.3.2.4.6.4 1.1c0 .4-.1.8-.5 1.1c-.3.3-.7.5-1.2.5zm8-.7c-.5.5-.9.7-1.5.7c-.5 0-1-.2-1.3-.6c-.4-.3-.6-.8-.6-1.3c0-.5.2-1 .6-1.3c.3-.4.8-.6 1.3-.6c.5 0 1 .2 1.4.6l-.3.4c-.4-.3-.7-.5-1.1-.5c-.4 0-.7.1-.9.4c-.3.3-.4.6-.4 1c0 .4.1.7.4 1c.2.3.5.4.9.4c.4 0 .8-.2 1.1-.5c.02-.04.4.3.4.3c0 0-.04-.02 0 0zm.8.6V112h.6v.6c.1-.2.3-.4.5-.5c.1-.1.4-.2.7-.2c.5 0 .9.2 1.1.7c.3-.5.8-.7 1.3-.7c.4 0 .7.1 1 .4c.2.3.3.6.3 1.1c.04-.04 0 2.2 0 2.2h-.5v-2.1c0-.4-.1-.6-.3-.8c-.1-.2-.3-.3-.6-.3c-.3 0-.6.1-.8.3c-.1.2-.2.5-.2.8c-.04.01 0 2.1 0 2.1h-.6s.03-2.13 0-2.1c0-.4-.1-.6-.2-.8c-.2-.2-.4-.3-.7-.3c-.3 0-.5.1-.7.3c-.2.2-.3.5-.3.8v2.1h-.6z" stroke="none" fill="#000"/></g><g id="Polygon365075"><path d="m2.6 103.1c0 .3-.1.5-.3.7c-.2.2-.4.3-.6.3c-.3 0-.5-.1-.7-.3c-.2-.2-.2-.4-.2-.7c0-.2 0-.4.2-.6c.2-.2.4-.3.7-.3c.2 0 .4.1.6.3c.2.2.3.4.3.6c-.01.03 0 0 0 0c0 0-.01.04 0 0zm7.9 2.5v-4.4H8.8v-.5h3.9v.5H11v4.4h-.5zm4.6-.5c-.3.4-.7.6-1.3.6c-.4 0-.7-.1-.9-.3c-.3-.2-.4-.5-.4-.9c0-.3.1-.6.4-.8c.3-.2.6-.3 1.1-.3c.4 0 .7 0 1.1.1v-.1c0-.3-.1-.6-.3-.7c-.1-.2-.4-.3-.8-.3c-.3 0-.7.1-1.1.3l-.1-.5c.4-.2.8-.3 1.3-.3c.5 0 .9.2 1.2.4c.2.3.3.6.3 1.1c.04-.01 0 2.2 0 2.2h-.5v-.5s.02-.05 0 0zm-1.2.1c.4 0 .6 0 .9-.2c.2-.2.3-.4.3-.7v-.4c-.3-.1-.7-.1-1-.1c-.4 0-.6 0-.8.2c-.2.1-.3.3-.3.5c0 .2.1.4.3.6c.1.1.4.1.6.1zm2.9.4V102h.5s.02.59 0 .6c.2-.2.3-.4.5-.5c.2-.1.4-.2.7-.2c.5 0 .9.2 1.2.7c.3-.5.7-.7 1.2-.7c.4 0 .8.1 1 .4c.3.3.4.6.4 1.1c-.03-.04 0 2.2 0 2.2h-.6s.03-2.11 0-2.1c0-.4 0-.6-.2-.8c-.2-.2-.4-.3-.7-.3c-.3 0-.5.1-.7.3c-.2.2-.3.5-.3.8v2.1h-.5s-.04-2.13 0-2.1c0-.4-.1-.6-.3-.8c-.2-.2-.4-.3-.7-.3c-.3 0-.5.1-.7.3c-.2.2-.3.5-.3.8c.02.03 0 2.1 0 2.1h-.5zm10.3-.6l1.1-3h.6s-1.52 3.72-1.5 3.7c-.2.4-.3.6-.5.8c-.2.2-.4.2-.7.2c-.3 0-.5 0-.8-.1l.2-.5c.2.1.4.2.6.2c.1 0 .3-.1.4-.2c.1-.1.2-.3.3-.5l-1.6-3.6h.6l1.3 3zm4.4-3.6v-.6h.6v.6h-.6zm-1.2 0v-.6h.6v.6h-.6zm1.9 3.6c-.3.4-.7.7-1.2.7c-.4 0-.8-.2-1-.4c-.3-.3-.4-.6-.4-1.1V102h.5s.04 2.09 0 2.1c0 .3.1.6.3.8c.2.2.4.3.7.3c.4 0 .6-.1.8-.3c.2-.2.3-.5.3-.8c.03-.05 0-2.1 0-2.1h.6v3.6h-.6v-.6s.03-.03 0 0zm1.6.6v-.3l2.4-2.9h-2.4v-.4h3.1v.3l-2.4 2.8h2.4v.5h-3.1zm7-.6c-.4.5-.9.7-1.5.7c-.5 0-.9-.2-1.2-.5c-.4-.4-.6-.8-.6-1.4c0-.5.2-1 .5-1.4c.4-.3.8-.5 1.3-.5c.5 0 .9.2 1.2.5c.3.4.5.9.5 1.4c0 .1 0 .1-.1.2h-2.8c0 .4.2.7.4.9c.2.2.5.3.9.3c.4 0 .8-.2 1.1-.5l.3.3s.03 0 0 0zm-2.7-1.4h2.3c0-.4-.1-.7-.3-.9c-.2-.2-.5-.3-.8-.3c-.4 0-.6.1-.8.3c-.3.2-.4.5-.4.9zm5.2 1.4l1.1-3h.6l-1.5 3.7c-.2.4-.3.6-.5.8c-.2.2-.4.2-.7.2c-.3 0-.5 0-.8-.1l.2-.5c.2.1.4.2.6.2c.1 0 .3-.1.4-.2c.1-.1.2-.3.3-.5c.01-.01-1.6-3.6-1.6-3.6h.6l1.3 3zm5.4 0c-.4.5-.9.7-1.5.7c-.5 0-.9-.2-1.2-.5c-.4-.4-.6-.8-.6-1.4c0-.5.2-1 .5-1.4c.4-.3.8-.5 1.3-.5c.5 0 .9.2 1.2.5c.3.4.5.9.5 1.4c0 .1-.1.1-.1.2H46c0 .4.2.7.4.9c.2.2.5.3.8.3c.5 0 .9-.2 1.2-.5l.3.3s.03 0 0 0zm-2.7-1.4h2.3c0-.4-.1-.7-.3-.9c-.2-.2-.5-.3-.8-.3c-.4 0-.6.1-.8.3c-.3.2-.4.5-.4.9zm7.8 2.1c-.6 0-1-.3-1.4-.8c.04.01 0 .7 0 .7h-.5v-5.1h.5s.04 2.21 0 2.2c.4-.5.9-.8 1.4-.8c.5 0 .9.2 1.2.5c.4.4.6.8.6 1.4c0 .6-.2 1-.6 1.4c-.3.3-.7.5-1.2.5zm-.1-.5c.4 0 .7-.1.9-.4c.3-.2.4-.6.4-1c0-.4-.1-.8-.4-1c-.2-.3-.5-.4-.9-.4c-.3 0-.6.1-.9.4c-.3.3-.4.6-.4 1c0 .4.1.7.4 1c.3.3.6.4.9.4zm5.2-.1c-.3.4-.7.6-1.3.6c-.3 0-.7-.1-.9-.3c-.3-.2-.4-.5-.4-.9c0-.3.1-.6.4-.8c.3-.2.7-.3 1.1-.3c.4 0 .8 0 1.1.1v-.1c0-.3-.1-.6-.2-.7c-.2-.2-.5-.3-.8-.3c-.4 0-.8.1-1.1.3l-.2-.5c.4-.2.9-.3 1.3-.3c.5 0 .9.2 1.2.4c.2.3.3.6.3 1.1c.05-.01 0 2.2 0 2.2h-.5v-.5s.03-.05 0 0zm-1.2.1c.4 0 .7 0 .9-.2c.2-.2.3-.4.3-.7v-.4c-.3-.1-.7-.1-1-.1c-.4 0-.6 0-.8.2c-.2.1-.3.3-.3.5c0 .2.1.4.3.6c.2.1.4.1.6.1zm4.1.5c-.6 0-1.1-.2-1.5-.6l.3-.3c.4.3.8.4 1.2.4c.2 0 .4 0 .6-.1c.1-.1.2-.3.2-.5c0-.1-.1-.3-.3-.4c-.1 0-.3-.1-.6-.2c-.2 0-.3-.1-.3-.1c-.1 0-.2-.1-.3-.1c-.1 0-.2-.1-.2-.1c-.1-.1-.2-.1-.2-.2c-.1-.1-.2-.1-.2-.2v-.3c0-.4.1-.6.3-.8c.2-.2.5-.3.9-.3c.5 0 .9.2 1.3.4l-.2.4c-.4-.2-.8-.3-1.1-.3c-.2 0-.4 0-.5.1c-.1.1-.2.2-.2.4v.2c.1 0 .1.1.2.1c0 .1.1.1.2.2h.2c.1.1.2.1.3.1c.2.1.3.1.4.1c.1.1.2.1.3.2c.1 0 .2.1.2.2c.1 0 .2.1.2.2c.1.1.1.2.1.4c0 .3-.1.6-.4.8c-.2.2-.5.3-.9.3zm4.7-.6c-.3.4-.8.6-1.3.6c-.4 0-.7-.1-1-.3c-.3-.2-.4-.5-.4-.9c0-.3.2-.6.4-.8c.3-.2.7-.3 1.2-.3c.3 0 .7 0 1.1.1v-.1c0-.3-.1-.6-.3-.7c-.2-.2-.5-.3-.8-.3c-.4 0-.7.1-1.1.3l-.2-.5c.5-.2.9-.3 1.3-.3c.6 0 1 .2 1.2.4c.3.3.4.6.4 1.1c-.01-.01 0 2.2 0 2.2h-.5v-.5s-.03-.05 0 0zm-1.2.1c.3 0 .6 0 .8-.2c.3-.2.4-.4.4-.7v-.4c-.4-.1-.7-.1-1.1-.1c-.3 0-.6 0-.8.2c-.2.1-.2.3-.2.5c0 .2 0 .4.2.6c.2.1.4.1.7.1zm2.8.4V102h.6s-.02.61 0 .6c.3-.5.7-.7 1.2-.7c.4 0 .8.1 1 .4c.3.3.4.6.4 1.1v2.2h-.5s-.04-2.11 0-2.1c0-.4-.1-.6-.3-.8c-.2-.2-.4-.3-.7-.3c-.4 0-.6.1-.8.3c-.2.2-.3.5-.3.8c-.02.03 0 2.1 0 2.1h-.6zm4.2.9l-.1-.3c.3-.1.5-.3.4-.6h-.2v-.7h.6s.03.59 0 .6c0 .3 0 .5-.2.6c-.1.2-.3.3-.5.4zm4-.9v-5.1h.5v3.5l2-2h.6l-1.5 1.5l1.6 2.1h-.7l-1.3-1.7l-.7.8v.9h-.5zm6.3-.5c-.4.4-.8.6-1.3.6c-.4 0-.7-.1-1-.3c-.3-.2-.4-.5-.4-.9c0-.3.1-.6.4-.8c.3-.2.7-.3 1.2-.3c.3 0 .7 0 1.1.1v-.1c0-.3-.1-.6-.3-.7c-.2-.2-.5-.3-.8-.3c-.4 0-.7.1-1.1.3l-.2-.5c.4-.2.9-.3 1.3-.3c.6 0 .9.2 1.2.4c.3.3.4.6.4 1.1c-.02-.01 0 2.2 0 2.2h-.5v-.5s-.04-.05 0 0zm-1.2.1c.3 0 .6 0 .8-.2c.3-.2.4-.4.4-.7v-.4c-.4-.1-.7-.1-1.1-.1c-.3 0-.6 0-.8.2c-.2.1-.3.3-.3.5c0 .2.1.4.3.6c.2.1.4.1.7.1zm4.2-.2l1.2-3h.6s-1.55 3.72-1.5 3.7c-.2.4-.4.6-.6.8c-.1.2-.4.2-.7.2c-.2 0-.5 0-.7-.1l.2-.5c.1.1.3.2.5.2c.2 0 .3-.1.4-.2c.2-.1.3-.3.4-.5c-.03-.01-1.7-3.6-1.7-3.6h.6l1.3 3zm2.6.6V102h.6s-.03.59 0 .6c.1-.2.3-.4.4-.5c.2-.1.5-.2.7-.2c.6 0 1 .2 1.2.7c.3-.5.7-.7 1.3-.7c.4 0 .7.1 1 .4c.2.3.3.6.3 1.1c.01-.04 0 2.2 0 2.2h-.5s-.02-2.11 0-2.1c0-.4-.1-.6-.3-.8c-.1-.2-.4-.3-.7-.3c-.2 0-.5.1-.7.3c-.2.2-.3.5-.3.8c.04.01 0 2.1 0 2.1h-.5v-2.1c0-.4-.1-.6-.2-.8c-.2-.2-.4-.3-.7-.3c-.3 0-.6.1-.7.3c-.2.2-.3.5-.3.8c-.03.03 0 2.1 0 2.1h-.6zm9-.5c-.3.4-.7.6-1.3.6c-.3 0-.6-.1-.9-.3c-.3-.2-.4-.5-.4-.9c0-.3.1-.6.4-.8c.3-.2.7-.3 1.1-.3c.4 0 .8 0 1.1.1v-.1c0-.3 0-.6-.2-.7c-.2-.2-.5-.3-.8-.3c-.4 0-.8.1-1.1.3l-.2-.5c.4-.2.9-.3 1.3-.3c.5 0 .9.2 1.2.4c.2.3.4.6.4 1.1c-.03-.01 0 2.2 0 2.2h-.6v-.5s.05-.05 0 0zm-1.2.1c.4 0 .7 0 .9-.2c.2-.2.4-.4.4-.7v-.4c-.4-.1-.8-.1-1.1-.1c-.3 0-.6 0-.8.2c-.2.1-.3.3-.3.5c0 .2.1.4.3.6c.2.1.4.1.6.1zm2.7.4v-.3l2.4-2.9h-2.3v-.4h3v.3l-2.4 2.8h2.4v.5h-3.1zm8.6-.5c-.3.4-.8.6-1.3.6c-.4 0-.7-.1-1-.3c-.2-.2-.4-.5-.4-.9c0-.3.2-.6.5-.8c.2-.2.6-.3 1.1-.3c.3 0 .7 0 1.1.1v-.1c0-.3-.1-.6-.3-.7c-.2-.2-.4-.3-.8-.3c-.3 0-.7.1-1.1.3l-.1-.5c.4-.2.8-.3 1.3-.3c.5 0 .9.2 1.1.4c.3.3.4.6.4 1.1c.01-.01 0 2.2 0 2.2h-.5v-.5s-.01-.05 0 0zm-1.2.1c.3 0 .6 0 .9-.2c.2-.2.3-.4.3-.7v-.4c-.4-.1-.7-.1-1.1-.1c-.3 0-.6 0-.7.2c-.2.1-.3.3-.3.5c0 .2.1.4.2.6c.2.1.4.1.7.1zm4.3-.2l1.1-3h.6s-1.52 3.72-1.5 3.7c-.2.4-.3.6-.5.8c-.2.2-.4.2-.7.2c-.3 0-.5 0-.8-.1l.2-.5c.2.1.4.2.6.2c.1 0 .3-.1.4-.2c.1-.1.2-.3.3-.5l-1.6-3.6h.6l1.3 3zm4.8.1c-.3.4-.8.6-1.3.6c-.4 0-.7-.1-1-.3c-.3-.2-.4-.5-.4-.9c0-.3.1-.6.4-.8c.3-.2.7-.3 1.2-.3c.3 0 .7 0 1.1.1v-.1c0-.3-.1-.6-.3-.7c-.2-.2-.5-.3-.8-.3c-.4 0-.7.1-1.1.3l-.2-.5c.5-.2.9-.3 1.3-.3c.6 0 .9.2 1.2.4c.3.3.4.6.4 1.1c-.01-.01 0 2.2 0 2.2h-.5v-.5s-.03-.05 0 0zm-1.2.1c.3 0 .6 0 .8-.2c.3-.2.4-.4.4-.7v-.4c-.4-.1-.7-.1-1.1-.1c-.3 0-.6 0-.8.2c-.2.1-.2.3-.2.5c0 .2 0 .4.2.6c.2.1.4.1.7.1zm2.8.4v-5.1h.6v3.5l1.9-2h.7l-1.5 1.5l1.5 2.1h-.6l-1.3-1.7l-.7.8v.9h-.6zm6.1 0v-5.1h.6v3.5l1.9-2h.7l-1.5 1.5l1.5 2.1h-.6l-1.3-1.7l-.7.8v.9h-.6zm6.3-.5c-.3.4-.7.6-1.3.6c-.4 0-.7-.1-.9-.3c-.3-.2-.4-.5-.4-.9c0-.3.1-.6.4-.8c.3-.2.6-.3 1.1-.3c.4 0 .7 0 1.1.1v-.1c0-.3-.1-.6-.3-.7c-.1-.2-.4-.3-.8-.3c-.3 0-.7.1-1.1.3l-.1-.5c.4-.2.8-.3 1.3-.3c.5 0 .9.2 1.2.4c.2.3.3.6.3 1.1c.04-.01 0 2.2 0 2.2h-.5v-.5s.02-.05 0 0zm-1.2.1c.4 0 .6 0 .9-.2c.2-.2.3-.4.3-.7v-.4c-.3-.1-.7-.1-1-.1c-.4 0-.6 0-.8.2c-.2.1-.3.3-.3.5c0 .2.1.4.3.6c.1.1.4.1.6.1zm2.9 1.5V102h.5s.02.71 0 .7c.4-.5.9-.8 1.4-.8c.5 0 .9.2 1.2.5c.4.4.5.8.5 1.4c0 .6-.1 1-.5 1.4c-.3.3-.7.5-1.2.5c-.6 0-1-.3-1.4-.8c.02.01 0 1.8 0 1.8h-.5zm1.8-1.5c.4 0 .7-.1.9-.4c.3-.2.4-.6.4-1c0-.4-.1-.8-.4-1c-.2-.3-.5-.4-.9-.4c-.3 0-.6.1-.9.4c-.3.3-.4.6-.4 1c0 .4.1.7.4 1c.3.3.6.4.9.4zm5.2-.1c-.3.4-.7.6-1.3.6c-.4 0-.7-.1-.9-.3c-.3-.2-.4-.5-.4-.9c0-.3.1-.6.4-.8c.3-.2.6-.3 1.1-.3c.4 0 .7 0 1.1.1v-.1c0-.3-.1-.6-.3-.7c-.1-.2-.4-.3-.8-.3c-.3 0-.7.1-1.1.3l-.1-.5c.4-.2.8-.3 1.3-.3c.5 0 .9.2 1.2.4c.2.3.3.6.3 1.1c.04-.01 0 2.2 0 2.2h-.5v-.5s.02-.05 0 0zm-1.2.1c.4 0 .6 0 .9-.2c.2-.2.3-.4.3-.7v-.4c-.3-.1-.7-.1-1-.1c-.4 0-.6 0-.8.2c-.2.1-.3.3-.3.5c0 .2.1.4.3.6c.1.1.4.1.6.1zm2.9.4v-5.1h.5v3.5l2-2h.6l-1.5 1.5l1.6 2.1h-.6l-1.3-1.7l-.8.8v.9h-.5zm4 0v-5.1h.6v5.1h-.6zm4.2-.5c-.3.4-.8.6-1.3.6c-.4 0-.7-.1-1-.3c-.2-.2-.4-.5-.4-.9c0-.3.2-.6.5-.8c.2-.2.6-.3 1.1-.3c.4 0 .7 0 1.1.1v-.1c0-.3-.1-.6-.3-.7c-.2-.2-.4-.3-.8-.3c-.3 0-.7.1-1.1.3l-.1-.5c.4-.2.8-.3 1.3-.3c.5 0 .9.2 1.1.4c.3.3.4.6.4 1.1c.01-.01 0 2.2 0 2.2h-.5v-.5s0-.05 0 0zm-1.2.1c.3 0 .6 0 .9-.2c.2-.2.3-.4.3-.7v-.4c-.4-.1-.7-.1-1.1-.1c-.3 0-.6 0-.7.2c-.2.1-.3.3-.3.5c0 .2.1.4.2.6c.2.1.4.1.7.1zm2.9.4V102h.5v.9c.1-.3.3-.5.6-.7c.3-.2.5-.3.9-.3c-.02.02 0 .6 0 .6h-.1c-.4 0-.7.1-1 .4c-.3.3-.4.7-.4 1.3v1.4h-.5zm2.8 0V102h.6v3.6h-.6zm4-4.4v-.6h.6v.6h-.6zm0 4.4V102h.5v3.6h-.5zm1.8 0v-5.1h.6v5.1h-.6zm4.9-.6c-.4.5-.9.7-1.5.7c-.5 0-.9-.2-1.3-.5c-.3-.4-.5-.8-.5-1.4c0-.5.2-1 .5-1.4c.3-.3.7-.5 1.2-.5c.5 0 1 .2 1.3.5c.3.4.4.9.4 1.4v.2h-2.9c.1.4.2.7.5.9c.2.2.5.3.8.3c.4 0 .8-.2 1.2-.5c-.04 0 .3.3.3.3c0 0-.01 0 0 0zm-2.8-1.4h2.4c-.1-.4-.2-.7-.4-.9c-.2-.2-.4-.3-.8-.3c-.3 0-.6.1-.8.3c-.2.2-.3.5-.4.9zm7.5 1.4l1.2-3h.5s-1.47 3.72-1.5 3.7c-.1.4-.3.6-.5.8c-.2.2-.4.2-.7.2c-.2 0-.5 0-.7-.1l.1-.5c.2.1.4.2.6.2c.2 0 .3-.1.4-.2c.1-.1.2-.3.3-.5c.04-.01-1.6-3.6-1.6-3.6h.6l1.3 3zm4.4-3.6v-.6h.6v.6h-.6zm-1.2 0v-.6h.6v.6h-.6zm2 3.6c-.3.4-.7.7-1.3.7c-.4 0-.7-.2-1-.4c-.2-.3-.4-.6-.4-1.1c.04.03 0-2.2 0-2.2h.6s-.02 2.09 0 2.1c0 .3.1.6.2.8c.2.2.5.3.8.3c.3 0 .6-.1.8-.3c.2-.2.3-.5.3-.8c-.03-.05 0-2.1 0-2.1h.5v3.6h-.5v-.6s-.03-.03 0 0zm1.7.6v-5.1h.6v3.5l1.9-2h.7l-1.5 1.5l1.5 2.1h-.6l-1.3-1.7l-.7.8v.9h-.6zm5.1.1c-.5 0-1-.2-1.5-.6l.3-.3c.4.3.8.4 1.3.4c.2 0 .4 0 .5-.1c.2-.1.2-.3.2-.5c0-.1-.1-.3-.2-.4c-.2 0-.4-.1-.7-.2c-.1 0-.2-.1-.3-.1c0 0-.1-.1-.2-.1c-.2 0-.2-.1-.3-.1l-.2-.2c-.1-.1-.1-.1-.1-.2c-.1-.1-.1-.2-.1-.3c0-.4.1-.6.4-.8c.2-.2.5-.3.9-.3c.4 0 .9.2 1.3.4l-.3.4c-.4-.2-.7-.3-1.1-.3c-.2 0-.3 0-.5.1c-.1.1-.2.2-.2.4c0 .1.1.1.1.2l.1.1l.2.2h.3c0 .1.1.1.3.1c.1.1.2.1.3.1c.1.1.2.1.3.2c.1 0 .2.1.3.2c.1 0 .1.1.2.2v.4c0 .3-.1.6-.3.8c-.3.2-.6.3-1 .3zm5.4-.7c-.4.5-.9.7-1.5.7c-.5 0-.9-.2-1.3-.5c-.3-.4-.5-.8-.5-1.4c0-.5.2-1 .5-1.4c.3-.3.7-.5 1.2-.5c.6 0 1 .2 1.3.5c.3.4.4.9.4 1.4v.2h-2.8c0 .4.1.7.4.9c.2.2.5.3.8.3c.5 0 .8-.2 1.2-.5c-.03 0 .3.3.3.3zm-2.7-1.4h2.3c0-.4-.2-.7-.4-.9c-.2-.2-.4-.3-.8-.3c-.3 0-.5.1-.8.3c-.2.2-.3.5-.3.9zm3.8 2v-5.1h.5v3.5l2-2h.6l-1.5 1.5l1.6 2.1h-.7l-1.3-1.7l-.7.8v.9h-.5zm7.3.1c-.6 0-1.1-.2-1.5-.6l.2-.3c.4.3.8.4 1.3.4c.2 0 .4 0 .5-.1c.2-.1.2-.3.2-.5c0-.1 0-.3-.2-.4c-.2 0-.4-.1-.7-.2c-.1 0-.2-.1-.3-.1c0 0-.1-.1-.2-.1c-.1 0-.2-.1-.3-.1c0-.1-.1-.1-.2-.2c0-.1-.1-.1-.1-.2c-.1-.1-.1-.2-.1-.3c0-.4.1-.6.4-.8c.2-.2.5-.3.9-.3c.4 0 .9.2 1.3.4l-.3.4c-.3-.2-.7-.3-1-.3c-.3 0-.4 0-.6.1c-.1.1-.1.2-.1.4v.2l.1.1c.1.1.2.1.3.2h.2c.1.1.2.1.3.1c.1.1.2.1.3.1c.1.1.2.1.3.2c.1 0 .2.1.3.2c.1 0 .1.1.2.2v.4c0 .3-.1.6-.3.8c-.3.2-.6.3-.9.3zm4-.2c-.2.1-.4.2-.6.2c-.3 0-.6-.1-.8-.3c-.1-.2-.2-.4-.2-.8c-.04.04 0-2.1 0-2.1h-.5v-.5h.5v-1.1h.5v1.1h1.2v.5h-1.2v2.1c0 .4.2.6.6.6c.2 0 .4-.1.5-.2c.04.05 0 .5 0 .5c0 0 .04.01 0 0zm3.4-.4c-.3.4-.8.6-1.3.6c-.4 0-.7-.1-1-.3c-.2-.2-.4-.5-.4-.9c0-.3.2-.6.5-.8c.2-.2.6-.3 1.1-.3c.3 0 .7 0 1.1.1v-.1c0-.3-.1-.6-.3-.7c-.2-.2-.4-.3-.8-.3c-.4 0-.7.1-1.1.3l-.1-.5c.4-.2.8-.3 1.3-.3c.5 0 .9.2 1.1.4c.3.3.4.6.4 1.1c.01-.01 0 2.2 0 2.2h-.5v-.5s-.01-.05 0 0zm-1.2.1c.3 0 .6 0 .8-.2c.3-.2.4-.4.4-.7v-.4c-.4-.1-.7-.1-1.1-.1c-.3 0-.6 0-.7.2c-.2.1-.3.3-.3.5c0 .2.1.4.2.6c.2.1.4.1.7.1zm4.8.5c-.6 0-1.1-.3-1.4-.8v.7h-.5v-5.1h.5s-.01 2.21 0 2.2c.4-.5.8-.8 1.4-.8c.4 0 .8.2 1.2.5c.3.4.5.8.5 1.4c0 .6-.2 1-.5 1.4c-.4.3-.8.5-1.2.5zm-.1-.5c.3 0 .6-.1.9-.4c.2-.2.4-.6.4-1c0-.4-.2-.8-.4-1c-.3-.3-.6-.4-.9-.4c-.4 0-.7.1-.9.4c-.3.3-.4.6-.4 1c0 .4.1.7.4 1c.2.3.5.4.9.4zm2.8-4v-.6h.6v.6h-.6zm.1 4.4V102h.5v3.6h-.5zm1.8 0v-5.1h.5v5.1h-.5zm1.8-4.4v-.6h.6v.6h-.6zm0 4.4V102h.6v3.6h-.6zm3.7-.1c-.2.1-.4.2-.7.2c-.3 0-.5-.1-.7-.3c-.2-.2-.3-.4-.3-.8v-2.1h-.5v-.5h.5v-1.1h.6v1.1h1.1v.5h-1.1s-.05 2.07 0 2.1c0 .4.2.6.6.6c.1 0 .3-.1.5-.2v.5s-.01.01 0 0zm3.9-.5c-.4.5-.9.7-1.5.7c-.5 0-.9-.2-1.3-.5c-.3-.4-.5-.8-.5-1.4c0-.5.2-1 .5-1.4c.3-.3.8-.5 1.3-.5c.5 0 .9.2 1.2.5c.3.4.4.9.4 1.4v.2h-2.8c0 .4.1.7.4.9c.2.2.5.3.8.3c.5 0 .9-.2 1.2-.5l.3.3s.02 0 0 0zm-2.7-1.4h2.3c0-.4-.1-.7-.3-.9c-.2-.2-.5-.3-.9-.3c-.3 0-.5.1-.7.3c-.3.2-.4.5-.4.9z" stroke="none" fill="#000"/></g><g id="Polygon365074"><path d="m2.6 93.1c0 .3-.1.5-.3.7c-.2.2-.4.3-.6.3c-.3 0-.5-.1-.7-.3c-.2-.2-.2-.4-.2-.7c0-.2 0-.4.2-.6c.2-.2.4-.3.7-.3c.2 0 .4.1.6.3c.2.2.3.4.3.6c-.01.03 0 0 0 0c0 0-.01.04 0 0zm6.6 2.5v-4.9h.5v2.9l2.9-2.9h.7l-2.1 2.1l2.2 2.8h-.7l-1.9-2.4l-1.1 1.1v1.3h-.5zm7.3-.5c-.4.4-.8.6-1.4.6c-.3 0-.6-.1-.9-.3c-.3-.2-.4-.5-.4-.9c0-.3.1-.6.4-.8c.3-.2.7-.3 1.1-.3c.4 0 .8 0 1.2.1v-.1c0-.3-.1-.6-.3-.7c-.2-.2-.5-.3-.8-.3c-.4 0-.8.1-1.1.3l-.2-.5c.4-.2.9-.3 1.3-.3c.5 0 .9.2 1.2.4c.3.3.4.6.4 1.1c-.03-.01 0 2.2 0 2.2h-.5v-.5s-.04-.05 0 0zm-1.2.1c.3 0 .6 0 .8-.2c.2-.2.4-.4.4-.7v-.4c-.4-.1-.8-.1-1.1-.1c-.3 0-.6 0-.8.2c-.2.1-.3.3-.3.5c0 .2.1.4.3.6c.2.1.4.1.7.1zm4.6.3c-.1.1-.4.2-.6.2c-.3 0-.6-.1-.7-.3c-.2-.2-.3-.4-.3-.8c-.02.04 0-2.1 0-2.1h-.5v-.5h.5v-1.1h.5v1.1h1.2v.5h-1.2v2.1c0 .4.2.6.6.6c.2 0 .4-.1.5-.2c.05.05 0 .5 0 .5c0 0 .05.01 0 0zm1.1.1v-5.1h.5v5.1h-.5zm4.1-.5c-.3.4-.7.6-1.3.6c-.3 0-.6-.1-.9-.3c-.3-.2-.4-.5-.4-.9c0-.3.1-.6.4-.8c.3-.2.7-.3 1.1-.3c.4 0 .8 0 1.1.1v-.1c0-.3-.1-.6-.2-.7c-.2-.2-.5-.3-.8-.3c-.4 0-.8.1-1.1.3l-.2-.5c.4-.2.9-.3 1.3-.3c.5 0 .9.2 1.2.4c.2.3.4.6.4 1.1c-.04-.01 0 2.2 0 2.2h-.6v-.5s.04-.05 0 0zm-1.2.1c.4 0 .7 0 .9-.2c.2-.2.3-.4.3-.7v-.4c-.3-.1-.7-.1-1-.1c-.4 0-.6 0-.8.2c-.2.1-.3.3-.3.5c0 .2.1.4.3.6c.2.1.4.1.6.1zm2.9.4V92h.5s.05.61 0 .6c.3-.5.8-.7 1.3-.7c.4 0 .8.1 1 .4c.2.3.4.6.4 1.1c-.03-.05 0 2.2 0 2.2h-.6s.03-2.11 0-2.1c0-.4-.1-.6-.2-.8c-.2-.2-.4-.3-.8-.3c-.3 0-.5.1-.7.3c-.2.2-.4.5-.4.8c.05.03 0 2.1 0 2.1h-.5zm4.3 0V92h.6s-.04.59 0 .6c.1-.2.3-.4.4-.5c.2-.1.4-.2.7-.2c.6 0 1 .2 1.2.7c.3-.5.7-.7 1.3-.7c.4 0 .7.1 1 .4c.2.3.3.6.3 1.1c.01-.04 0 2.2 0 2.2h-.5s-.03-2.11 0-2.1c0-.4-.1-.6-.3-.8c-.1-.2-.4-.3-.7-.3c-.2 0-.5.1-.7.3c-.2.2-.3.5-.3.8c.03.01 0 2.1 0 2.1h-.5v-2.1c0-.4-.1-.6-.2-.8c-.2-.2-.4-.3-.7-.3c-.3 0-.6.1-.8.3c-.1.2-.2.5-.2.8c-.04.03 0 2.1 0 2.1h-.6zm9-.5c-.3.4-.7.6-1.3.6c-.3 0-.6-.1-.9-.3c-.3-.2-.4-.5-.4-.9c0-.3.1-.6.4-.8c.3-.2.7-.3 1.1-.3c.4 0 .8 0 1.1.1v-.1c0-.3 0-.6-.2-.7c-.2-.2-.5-.3-.8-.3c-.4 0-.8.1-1.1.3l-.2-.5c.4-.2.9-.3 1.3-.3c.5 0 .9.2 1.2.4c.2.3.4.6.4 1.1c-.04-.01 0 2.2 0 2.2h-.6v-.5s.04-.05 0 0zm-1.2.1c.4 0 .7 0 .9-.2c.2-.2.4-.4.4-.7v-.4c-.4-.1-.8-.1-1.1-.1c-.3 0-.6 0-.8.2c-.2.1-.3.3-.3.5c0 .2.1.4.3.6c.2.1.4.1.6.1zM47 95c-.4.5-.9.7-1.5.7c-.5 0-.9-.2-1.3-.5c-.3-.4-.5-.8-.5-1.4c0-.5.2-1 .5-1.4c.3-.3.7-.5 1.2-.5c.5 0 1 .2 1.3.5c.3.4.4.9.4 1.4v.2h-2.9c.1.4.2.7.4.9c.3.2.6.3.9.3c.4 0 .8-.2 1.1-.5c.05 0 .4.3.4.3c0 0-.02 0 0 0zm-2.8-1.4h2.4c-.1-.4-.2-.7-.4-.9c-.2-.2-.4-.3-.8-.3c-.3 0-.6.1-.8.3c-.2.2-.3.5-.4.9zm3.9 2V92h.5v.6c.1-.2.3-.4.5-.5c.2-.1.4-.2.7-.2c.5 0 .9.2 1.1.7c.3-.5.8-.7 1.3-.7c.4 0 .7.1 1 .4c.2.3.3.6.3 1.1c.04-.04 0 2.2 0 2.2h-.5v-2.1c0-.4-.1-.6-.2-.8c-.2-.2-.4-.3-.7-.3c-.3 0-.6.1-.7.3c-.2.2-.3.5-.3.8c-.04.01 0 2.1 0 2.1h-.6s.03-2.13 0-2.1c0-.4-.1-.6-.2-.8c-.2-.2-.4-.3-.7-.3c-.3 0-.5.1-.7.3c-.2.2-.3.5-.3.8v2.1h-.5zm6.6 0V92h.5s.03.61 0 .6c.3-.5.7-.7 1.3-.7c.4 0 .7.1 1 .4c.2.3.4.6.4 1.1c-.05-.05 0 2.2 0 2.2h-.6v-2.1c0-.4-.1-.6-.2-.8c-.2-.2-.5-.3-.8-.3c-.3 0-.6.1-.8.3c-.2.2-.3.5-.3.8c.03.03 0 2.1 0 2.1h-.5zm4.3-4.4v-.6h.6v.6h-.6zm.1 4.4V92h.5v3.6h-.5zm3.3-.6l1.2-3h.5s-1.49 3.72-1.5 3.7c-.1.4-.3.6-.5.8c-.2.2-.4.2-.7.2c-.3 0-.5 0-.8-.1l.2-.5c.2.1.4.2.6.2c.1 0 .3-.1.4-.2c.1-.1.2-.3.3-.5c.02-.01-1.6-3.6-1.6-3.6h.6l1.3 3zm5.4 0c-.4.5-.9.7-1.4.7c-.6 0-1-.2-1.3-.5c-.4-.4-.6-.8-.6-1.4c0-.5.2-1 .5-1.4c.4-.3.8-.5 1.3-.5c.5 0 .9.2 1.2.5c.3.4.5.9.5 1.4v.2h-2.9c0 .4.2.7.4.9c.2.2.5.3.9.3c.4 0 .8-.2 1.1-.5l.3.3s.04 0 0 0zm-2.7-1.4h2.3c0-.4-.1-.7-.3-.9c-.2-.2-.5-.3-.8-.3c-.3 0-.6.1-.8.3c-.2.2-.4.5-.4.9zm5.7 1.9c-.2.1-.4.2-.7.2c-.3 0-.5-.1-.7-.3c-.2-.2-.3-.4-.3-.8v-2.1h-.5v-.5h.5v-1.1h.5v1.1h1.2v.5h-1.2s.04 2.07 0 2.1c0 .4.2.6.7.6c.1 0 .3-.1.5-.2c-.02.05 0 .5 0 .5c0 0-.02.01 0 0zm1-4.3v-.6h.6v.6h-.6zm0 4.4V92h.5v3.6h-.5zm4.3-2c0 1.1.5 1.9 1.6 2.6l-.2.4c-1.3-.7-1.9-1.7-1.9-3c0-1.3.6-2.3 1.9-3l.2.4c-1.1.6-1.6 1.5-1.6 2.6c0-.01 0 0 0 0zm5.4 2.7c-.3.3-.8.4-1.4.4c-.6 0-1.1-.1-1.6-.5l.2-.4c.4.3.9.5 1.4.5c.4 0 .7-.1 1-.4c.2-.2.3-.5.3-.9v-.4c-.4.5-.8.7-1.4.7c-.5 0-.8-.1-1.2-.5c-.3-.3-.5-.7-.5-1.2c0-.5.2-.9.5-1.2c.3-.3.7-.5 1.2-.5c.6 0 1 .2 1.4.7c.02.03 0-.6 0-.6h.6s-.05 2.97 0 3c0 .5-.2.9-.5 1.3zm-1.4-1.5c.4 0 .7-.1.9-.3c.3-.2.4-.5.4-.9c0-.4-.1-.6-.4-.9c-.2-.2-.5-.3-.9-.3c-.3 0-.6.1-.9.3c-.2.2-.3.5-.3.9c0 .4.1.7.3.9c.3.2.6.3.9.3zm4.9-3.4v-.6h.6v.6h-.6zm-1.2 0v-.6h.6v.6h-.6zm1.9 3.6c-.3.4-.7.7-1.2.7c-.4 0-.8-.2-1-.4c-.3-.3-.4-.6-.4-1.1V92h.5s.04 2.09 0 2.1c0 .3.1.6.3.8c.2.2.4.3.7.3c.4 0 .6-.1.8-.3c.2-.2.3-.5.3-.8c.03-.05 0-2.1 0-2.1h.6v3.6h-.6v-.6s.03-.03 0 0zm3 .6L87.1 92h.6l1.2 3l1.3-3h.5l-1.5 3.6h-.5zm5.7-.6c-.4.5-.9.7-1.4.7c-.6 0-1-.2-1.3-.5c-.4-.4-.6-.8-.6-1.4c0-.5.2-1 .5-1.4c.4-.3.8-.5 1.3-.5c.5 0 .9.2 1.2.5c.3.4.5.9.5 1.4v.2h-2.9c0 .4.2.7.4.9c.2.2.5.3.9.3c.4 0 .8-.2 1.1-.5l.3.3s.04 0 0 0zm-2.7-1.4h2.3c0-.4-.1-.7-.3-.9c-.2-.2-.5-.3-.8-.3c-.3 0-.6.1-.8.3c-.2.2-.4.5-.4.9zm3.8 2V92h.6s-.05.61 0 .6c.2-.5.7-.7 1.2-.7c.4 0 .8.1 1 .4c.3.3.4.6.4 1.1c-.02-.05 0 2.2 0 2.2h-.6s.04-2.11 0-2.1c0-.4 0-.6-.2-.8c-.2-.2-.4-.3-.8-.3c-.3 0-.5.1-.7.3c-.2.2-.3.5-.3.8c-.05.03 0 2.1 0 2.1h-.6zm4.4 0v-5.1h.5v5.1h-.5zm1.8-4.4v-.6h.6v.6h-.6zm0 4.4V92h.6v3.6h-.6zm1.8 0v-5.1h.5v3.5l2-2h.7l-1.5 1.5l1.5 2.1h-.6l-1.3-1.7l-.8.8v.9h-.5zm6.1 0v-5.1h.5v3.5l2-2h.7l-1.6 1.5l1.6 2.1h-.6l-1.3-1.7l-.8.8v.9h-.5zm4-4.4v-.6h.6v.6h-.6zm0 4.4V92h.6v3.6h-.6zm1.9 0v-5.1h.5v5.1h-.5zm1.8-4.4v-.6h.6v.6h-.6zm0 4.4V92h.5v3.6h-.5zm4.7-.7c-.4.5-.8.8-1.4.8c-.4 0-.9-.2-1.2-.5c-.3-.4-.5-.8-.5-1.4c0-.6.2-1 .5-1.4c.3-.3.8-.5 1.2-.5c.6 0 1 .3 1.4.8v-2.2h.5v5.1h-.5v-.7s0-.03 0 0zm-1.3.3c.4 0 .7-.1.9-.4c.3-.3.4-.6.4-1c0-.4-.1-.8-.4-1c-.2-.3-.5-.4-.9-.4c-.4 0-.7.1-.9.4c-.2.2-.4.6-.4 1c0 .4.2.8.4 1c.3.3.6.4.9.4zm3.1-4v-.6h.6v.6h-.6zm0 4.4V92h.5v3.6h-.5zm3.7-2c0 1.3-.6 2.3-1.9 3l-.2-.4c1.1-.7 1.6-1.5 1.6-2.6c0-1.1-.5-2-1.6-2.6l.2-.4c1.3.7 1.9 1.7 1.9 3c.04-.01 0 0 0 0c0 0 .04 0 0 0z" stroke="none" fill="#000"/></g><g id="Polygon365073"><path d="m2.6 83.1c0 .3-.1.5-.3.7c-.2.2-.4.3-.6.3c-.3 0-.5-.1-.7-.3c-.2-.2-.2-.4-.2-.7c0-.2 0-.4.2-.6c.2-.2.4-.3.7-.3c.2 0 .4.1.6.3c.2.2.3.4.3.6c-.01.03 0 0 0 0c0 0-.01.04 0 0zm6.6 2.5v-4.9h.5v2.9l2.9-2.9h.7l-2.1 2.1l2.2 2.8h-.7l-1.9-2.4l-1.1 1.1v1.3h-.5zm7.3-.5c-.4.4-.8.6-1.4.6c-.3 0-.6-.1-.9-.3c-.3-.2-.4-.5-.4-.9c0-.3.1-.6.4-.8c.3-.2.7-.3 1.1-.3c.4 0 .8 0 1.2.1v-.1c0-.3-.1-.6-.3-.7c-.2-.2-.5-.3-.8-.3c-.4 0-.8.1-1.1.3l-.2-.5c.4-.2.9-.3 1.3-.3c.5 0 .9.2 1.2.4c.3.3.4.6.4 1.1c-.03-.01 0 2.2 0 2.2h-.5v-.5s-.04-.05 0 0zm-1.2.1c.3 0 .6 0 .8-.2c.2-.2.4-.4.4-.7v-.4c-.4-.1-.8-.1-1.1-.1c-.3 0-.6 0-.8.2c-.2.1-.3.3-.3.5c0 .2.1.4.3.6c.2.1.4.1.7.1zm3.9.4L17.6 82h.6l1.2 3l1.3-3h.5l-1.5 3.6h-.5zm2.9 0V82h.5s.03.93 0 .9c.2-.3.4-.5.6-.7c.3-.2.6-.3.9-.3v.6s-.04 0 0 0c-.5 0-.8.1-1.1.4c-.2.3-.4.7-.4 1.3c.03-.04 0 1.4 0 1.4h-.5zm5-.5c-.3.4-.7.6-1.3.6c-.3 0-.7-.1-.9-.3c-.3-.2-.4-.5-.4-.9c0-.3.1-.6.4-.8c.3-.2.7-.3 1.1-.3c.4 0 .8 0 1.1.1v-.1c0-.3-.1-.6-.2-.7c-.2-.2-.5-.3-.8-.3c-.4 0-.8.1-1.1.3l-.2-.5c.4-.2.9-.3 1.3-.3c.5 0 .9.2 1.2.4c.2.3.4.6.4 1.1c-.04-.01 0 2.2 0 2.2h-.6v-.5s.04-.05 0 0zm-1.2.1c.4 0 .7 0 .9-.2c.2-.2.3-.4.3-.7v-.4c-.3-.1-.7-.1-1-.1c-.4 0-.6 0-.8.2c-.2.1-.3.3-.3.5c0 .2.1.4.3.6c.2.1.4.1.6.1zm2.9.4V82h.5s.04.59 0 .6c.2-.2.3-.4.5-.5c.2-.1.4-.2.7-.2c.6 0 .9.2 1.2.7c.3-.5.7-.7 1.2-.7c.5 0 .8.1 1 .4c.3.3.4.6.4 1.1c-.01-.04 0 2.2 0 2.2h-.5s-.05-2.11 0-2.1c0-.4-.1-.6-.3-.8c-.2-.2-.4-.3-.7-.3c-.3 0-.5.1-.7.3c-.2.2-.3.5-.3.8v2.1h-.5s-.02-2.13 0-2.1c0-.4-.1-.6-.3-.8c-.1-.2-.4-.3-.6-.3c-.3 0-.6.1-.8.3c-.2.2-.3.5-.3.8c.04.03 0 2.1 0 2.1h-.5zm9-.5c-.3.4-.7.6-1.3.6c-.3 0-.7-.1-.9-.3c-.3-.2-.4-.5-.4-.9c0-.3.1-.6.4-.8c.3-.2.6-.3 1.1-.3c.4 0 .8 0 1.1.1v-.1c0-.3-.1-.6-.3-.7c-.1-.2-.4-.3-.8-.3c-.3 0-.7.1-1.1.3l-.1-.5c.4-.2.9-.3 1.3-.3c.5 0 .9.2 1.2.4c.2.3.3.6.3 1.1c.04-.01 0 2.2 0 2.2h-.5v-.5s.03-.05 0 0zm-1.2.1c.4 0 .7 0 .9-.2c.2-.2.3-.4.3-.7v-.4c-.3-.1-.7-.1-1-.1c-.4 0-.6 0-.8.2c-.2.1-.3.3-.3.5c0 .2.1.4.3.6c.2.1.4.1.6.1zm4.1.5c-.6 0-1.1-.2-1.5-.6l.3-.3c.4.3.8.4 1.2.4c.2 0 .4 0 .6-.1c.1-.1.2-.3.2-.5c0-.1-.1-.3-.3-.4c-.1 0-.3-.1-.6-.2c-.2 0-.3-.1-.3-.1c-.1 0-.2-.1-.3-.1c-.1 0-.2-.1-.3-.1c0-.1-.1-.1-.1-.2c-.1-.1-.2-.1-.2-.2v-.3c0-.4.1-.6.3-.8c.2-.2.5-.3.9-.3c.5 0 .9.2 1.3.4l-.2.4c-.4-.2-.8-.3-1.1-.3c-.2 0-.4 0-.5.1c-.2.1-.2.2-.2.4v.2c.1 0 .1.1.2.1c0 .1.1.1.2.2h.2c.1.1.2.1.3.1c.2.1.3.1.4.1c0 .1.1.1.3.2c.1 0 .2.1.2.2c.1 0 .2.1.2.2c.1.1.1.2.1.4c0 .3-.1.6-.4.8c-.2.2-.5.3-.9.3zm2.3-.1V82h.6v3.6h-.6zm6.9.7c-.3.3-.8.4-1.4.4c-.6 0-1.1-.1-1.6-.5l.2-.4c.5.3.9.5 1.4.5c.4 0 .7-.1 1-.4c.2-.2.3-.5.3-.9v-.4c-.4.5-.8.7-1.4.7c-.4 0-.8-.1-1.2-.5c-.3-.3-.5-.7-.5-1.2c0-.5.2-.9.5-1.2c.4-.3.8-.5 1.2-.5c.6 0 1.1.2 1.4.7c.02.03 0-.6 0-.6h.6s-.04 2.97 0 3c0 .5-.2.9-.5 1.3zm-1.4-1.5c.4 0 .7-.1.9-.3c.3-.2.4-.5.4-.9c0-.4-.1-.6-.3-.9c-.3-.2-.6-.3-1-.3c-.3 0-.6.1-.9.3c-.2.2-.3.5-.3.9c0 .4.1.7.3.9c.3.2.6.3.9.3zm4.9-3.4v-.6h.6v.6h-.6zm-1.2 0v-.6h.6v.6h-.6zm1.9 3.6c-.3.4-.7.7-1.2.7c-.4 0-.8-.2-1-.4c-.3-.3-.4-.6-.4-1.1c.01.03 0-2.2 0-2.2h.6s-.05 2.09 0 2.1c0 .3 0 .6.2.8c.2.2.4.3.8.3c.3 0 .5-.1.7-.3c.2-.2.3-.5.3-.8c.04-.05 0-2.1 0-2.1h.6v3.6h-.6v-.6s.04-.03 0 0zm3 .6L55.5 82h.6l1.2 3l1.3-3h.5l-1.5 3.6h-.5zm5.8-.6c-.4.5-.9.7-1.5.7c-.5 0-1-.2-1.3-.5c-.4-.4-.5-.8-.5-1.4c0-.5.1-1 .4-1.4c.4-.3.8-.5 1.3-.5c.5 0 .9.2 1.2.5c.3.4.5.9.5 1.4v.2h-2.9c0 .4.2.7.4.9c.3.2.5.3.9.3c.4 0 .8-.2 1.1-.5c.02 0 .4.3.4.3c0 0-.05 0 0 0zm-2.8-1.4h2.3c0-.4-.1-.7-.3-.9c-.2-.2-.5-.3-.8-.3c-.3 0-.6.1-.8.3c-.2.2-.4.5-.4.9zm3.8 2V82h.6s-.04.61 0 .6c.3-.5.7-.7 1.2-.7c.4 0 .8.1 1 .4c.3.3.4.6.4 1.1c-.01-.05 0 2.2 0 2.2h-.6s.05-2.11 0-2.1c0-.4 0-.6-.2-.8c-.2-.2-.4-.3-.8-.3c-.3 0-.5.1-.7.3c-.2.2-.3.5-.3.8c-.04.03 0 2.1 0 2.1h-.6zm4.4 0v-5.1h.5v5.1h-.5zm1.8-4.4v-.6h.6v.6h-.6zm0 4.4V82h.6v3.6h-.6zm3.9 0v-5.1h.6v3.5l1.9-2h.7l-1.5 1.5l1.5 2.1h-.6l-1.3-1.7l-.7.8v.9h-.6zm6.3-.5c-.3.4-.7.6-1.3.6c-.4 0-.7-.1-.9-.3c-.3-.2-.4-.5-.4-.9c0-.3.1-.6.4-.8c.3-.2.6-.3 1.1-.3c.4 0 .7 0 1.1.1v-.1c0-.3-.1-.6-.3-.7c-.2-.2-.4-.3-.8-.3c-.3 0-.7.1-1.1.3l-.1-.5c.4-.2.8-.3 1.3-.3c.5 0 .9.2 1.2.4c.2.3.3.6.3 1.1c.03-.01 0 2.2 0 2.2h-.5v-.5s.02-.05 0 0zm-1.2.1c.4 0 .6 0 .9-.2c.2-.2.3-.4.3-.7v-.4c-.3-.1-.7-.1-1-.1c-.4 0-.6 0-.8.2c-.2.1-.3.3-.3.5c0 .2.1.4.3.6c.1.1.4.1.6.1zm2.9.4V82h.5s.02.93 0 .9c.2-.3.4-.5.6-.7c.3-.2.6-.3.9-.3v.6s-.04 0 0 0c-.5 0-.8.1-1.1.4c-.2.3-.4.7-.4 1.3c.02-.04 0 1.4 0 1.4h-.5zm5.7-.6c-.4.5-.9.7-1.5.7c-.5 0-.9-.2-1.2-.5c-.4-.4-.6-.8-.6-1.4c0-.5.2-1 .5-1.4c.4-.3.8-.5 1.3-.5c.5 0 .9.2 1.2.5c.3.4.5.9.5 1.4v.2H85c0 .4.2.7.4.9c.2.2.5.3.9.3c.4 0 .8-.2 1.1-.5l.3.3s.04 0 0 0zM85 83.6h2.3c0-.4-.1-.7-.3-.9c-.2-.2-.5-.3-.8-.3c-.4 0-.6.1-.8.3c-.3.2-.4.5-.4.9zm7.8 2.1c-.5 0-1-.3-1.4-.8c.05.01 0 .7 0 .7h-.5v-5.1h.5s.05 2.21 0 2.2c.4-.5.9-.8 1.4-.8c.5 0 .9.2 1.2.5c.4.4.6.8.6 1.4c0 .6-.2 1-.6 1.4c-.3.3-.7.5-1.2.5zm-.1-.5c.4 0 .7-.1.9-.4c.3-.2.4-.6.4-1c0-.4-.1-.8-.4-1c-.2-.3-.5-.4-.9-.4c-.3 0-.6.1-.9.4c-.2.3-.4.6-.4 1c0 .4.2.7.4 1c.3.3.6.4.9.4zm4.5.5c-.5 0-1-.2-1.3-.6c-.4-.3-.6-.8-.6-1.3c0-.5.2-1 .6-1.3c.3-.4.8-.6 1.3-.6c.6 0 1 .2 1.4.6c.3.3.5.8.5 1.3c0 .5-.2 1-.5 1.3c-.4.4-.9.6-1.4.6zm0-.5c.4 0 .7-.1 1-.4c.2-.3.4-.6.4-1c0-.4-.2-.7-.4-1c-.3-.3-.6-.4-1-.4c-.4 0-.7.1-.9.4c-.3.3-.4.6-.4 1c0 .4.1.7.4 1c.2.3.5.4.9.4zm2.9.4V82h.5s.02.93 0 .9c.2-.3.4-.5.6-.7c.3-.2.6-.3.9-.3v.6s-.05 0 0 0c-.5 0-.8.1-1.1.4c-.2.3-.4.7-.4 1.3c.02-.04 0 1.4 0 1.4h-.5zm5.4-.6c-.3.4-.7.7-1.3.7c-.4 0-.7-.2-1-.4c-.2-.3-.3-.6-.3-1.1c-.04.03 0-2.2 0-2.2h.5v2.1c0 .3.1.6.3.8c.1.2.4.3.7.3c.3 0 .6-.1.8-.3c.2-.2.3-.5.3-.8c-.02-.05 0-2.1 0-2.1h.5v3.6h-.5v-.6s-.02-.03 0 0zm5.6-3.6v-.6h.7v.6h-.7zm-1.2 0v-.6h.6v.6h-.6zm2 3.6c-.3.4-.7.7-1.2.7c-.5 0-.8-.2-1.1-.4c-.2-.3-.3-.6-.3-1.1c-.03.03 0-2.2 0-2.2h.5v2.1c0 .3.1.6.3.8c.1.2.4.3.7.3c.3 0 .6-.1.8-.3c.2-.2.3-.5.3-.8V82h.5v3.6h-.5v-.6s-.01-.03 0 0zm2.9.7c-.5 0-1-.2-1.5-.6l.3-.3c.4.3.8.4 1.3.4c.2 0 .4 0 .5-.1c.1-.1.2-.3.2-.5c0-.1-.1-.3-.2-.4c-.2 0-.4-.1-.7-.2c-.1 0-.2-.1-.3-.1c0 0-.1-.1-.2-.1c-.2 0-.3-.1-.3-.1l-.2-.2c-.1-.1-.1-.1-.1-.2c-.1-.1-.1-.2-.1-.3c0-.4.1-.6.4-.8c.2-.2.5-.3.8-.3c.5 0 .9.2 1.3.4l-.2.4c-.4-.2-.7-.3-1.1-.3c-.2 0-.4 0-.5.1c-.1.1-.2.2-.2.4c0 .1 0 .1.1.2l.1.1l.2.2h.3c0 .1.1.1.3.1c.1.1.2.1.3.1c.1.1.2.1.3.2c.1 0 .2.1.3.2l.2.2v.4c0 .3-.1.6-.3.8c-.3.2-.6.3-1 .3zm4.1-.2c-.2.1-.4.2-.6.2c-.4 0-.6-.1-.8-.3c-.2-.2-.3-.4-.3-.8c.04.04 0-2.1 0-2.1h-.5v-.5h.5v-1.1h.6v1.1h1.1v.5h-1.1s-.02 2.07 0 2.1c0 .4.2.6.6.6c.2 0 .3-.1.5-.2v.5s.01.01 0 0zm3.1.1v-5.1h.5v3.5l2-2h.6l-1.5 1.5l1.6 2.1h-.7l-1.2-1.7l-.8.8v.9h-.5zm5.4.1c-.5 0-.9-.2-1.3-.6c-.4-.3-.5-.8-.5-1.3c0-.5.1-1 .5-1.3c.4-.4.8-.6 1.4-.6c.5 0 .9.2 1.3.6c.4.3.5.8.5 1.3c0 .5-.1 1-.5 1.3c-.4.4-.8.6-1.4.6zm.1-.5c.3 0 .7-.1.9-.4c.3-.3.4-.6.4-1c0-.4-.1-.7-.4-1c-.3-.3-.6-.4-1-.4c-.3 0-.7.1-.9.4c-.3.3-.4.6-.4 1c0 .4.1.7.4 1c.3.3.6.4 1 .4zm2.8.4V82h.5s.05.93 0 .9c.2-.3.4-.5.6-.7c.3-.2.6-.3.9-.3c.03.02 0 .6 0 .6c0 0-.02 0 0 0c-.4 0-.8.1-1 .4c-.3.3-.5.7-.5 1.3c.05-.04 0 1.4 0 1.4h-.5zm2.8 0v-5.1h.6v3.5l1.9-2h.7l-1.5 1.5l1.6 2.1h-.7l-1.3-1.7l-.7.8v.9h-.6zm6.5-.6c-.3.4-.7.7-1.2.7c-.4 0-.8-.2-1-.4c-.3-.3-.4-.6-.4-1.1V82h.5s.04 2.09 0 2.1c0 .3.1.6.3.8c.2.2.4.3.7.3c.4 0 .6-.1.8-.3c.2-.2.3-.5.3-.8c.03-.05 0-2.1 0-2.1h.6v3.6h-.6v-.6s.03-.03 0 0zm1.8.6v-5.1h.6v5.1h-.6zm4.4-.6c-.3.4-.7.7-1.3.7c-.4 0-.7-.2-1-.4c-.2-.3-.3-.6-.3-1.1c-.05.03 0-2.2 0-2.2h.5v2.1c0 .3.1.6.3.8c.1.2.4.3.7.3c.3 0 .6-.1.8-.3c.2-.2.3-.5.3-.8c-.02-.05 0-2.1 0-2.1h.5v3.6h-.5v-.6s-.02-.03 0 0zm1.7.6v-5.1h.6v3.5l1.9-2h.7l-1.5 1.5l1.5 2.1h-.6l-1.3-1.7l-.7.8v.9h-.6z" stroke="none" fill="#000"/></g><g id="Polygon365072"><path d="m2.6 73.1c0 .3-.1.5-.3.7c-.2.2-.4.3-.6.3c-.3 0-.5-.1-.7-.3c-.2-.2-.2-.4-.2-.7c0-.2 0-.4.2-.6c.2-.2.4-.3.7-.3c.2 0 .4.1.6.3c.2.2.3.4.3.6c-.01.03 0 0 0 0c0 0-.01.04 0 0zm10.8 1.8c-.5.5-1.2.8-1.9.8c-.8 0-1.4-.3-1.8-.7c-.5-.5-.7-1.1-.7-1.8v-.1c0-.6.2-1.2.7-1.7c.4-.5 1-.8 1.7-.8c.4 0 .8.1 1 .2c.3.1.6.2.9.5l-.4.4c-.4-.4-.9-.6-1.5-.6c-.5 0-1 .2-1.3.6c-.4.4-.5.9-.5 1.4c0 .6.1 1.1.5 1.5c.3.4.8.6 1.4.6c.5 0 1-.2 1.4-.5v-1.2h-1.5v-.5h2v1.9s.04.03 0 0zm4.3.1c-.4.5-.9.7-1.5.7c-.5 0-1-.2-1.3-.5c-.4-.4-.5-.8-.5-1.4c0-.5.1-1 .5-1.4c.3-.3.7-.5 1.2-.5c.5 0 .9.2 1.2.5c.3.4.5.9.5 1.4v.2h-2.9c.1.4.2.7.4.9c.3.2.6.3.9.3c.4 0 .8-.2 1.1-.5c.03 0 .4.3.4.3c0 0-.03 0 0 0zm-2.8-1.4h2.3c0-.4-.1-.7-.3-.9c-.2-.2-.5-.3-.8-.3c-.3 0-.6.1-.8.3c-.2.2-.3.5-.4.9zm3.8 2V72h.6s-.02.61 0 .6c.3-.5.7-.7 1.2-.7c.4 0 .8.1 1 .4c.3.3.4.6.4 1.1v2.2h-.5s-.04-2.11 0-2.1c0-.4-.1-.6-.3-.8c-.2-.2-.4-.3-.7-.3c-.4 0-.6.1-.8.3c-.2.2-.3.5-.3.8c-.02.03 0 2.1 0 2.1h-.6zm4.4-4.4v-.6h.6v.6h-.6zm0 4.4V72h.5v3.6h-.5zm2.7 1.1l-.6-.3s.58-.75.6-.8c-.5 0-.9-.2-1.2-.5l.3-.3c.4.3.8.4 1.2.4c.2 0 .4 0 .6-.1c.1-.1.2-.3.2-.5c0-.1-.1-.3-.3-.4c-.1 0-.3-.1-.6-.2c-.2 0-.3-.1-.3-.1c-.1 0-.2-.1-.3-.1c-.1 0-.2-.1-.3-.1c0-.1-.1-.1-.1-.2c-.1-.1-.2-.1-.2-.2v-.3c0-.4.1-.6.3-.8c.2-.2.5-.3.9-.3c.5 0 .9.2 1.3.4l-.2.4c-.4-.2-.8-.3-1.1-.3c-.2 0-.4 0-.5.1c-.2.1-.2.2-.2.4v.2c.1 0 .1.1.2.1c0 .1.1.1.2.2h.2c.1.1.2.1.3.1c.1.1.3.1.4.1c0 .1.1.1.3.2c.1 0 .2.1.2.2c.1 0 .2.1.2.2c.1.1.1.2.1.4c0 .3-.1.5-.3.7c-.3.2-.5.3-.9.4c.03-.04-.4 1-.4 1zm6 0l-.6-.3l.6-.8c-.5 0-.8-.2-1.1-.6c-.3-.3-.4-.7-.4-1.2c0-.5.1-1 .5-1.3c.3-.4.8-.6 1.3-.6c.6 0 1.1.2 1.5.6l-.4.4c-.3-.3-.7-.5-1.1-.5c-.4 0-.7.1-.9.4c-.3.3-.4.6-.4 1c0 .4.1.7.4 1c.2.3.6.4.9.4c.4 0 .8-.2 1.1-.5l.4.3c-.4.4-.9.7-1.4.7l-.4 1zm5.6-1.7c-.4.5-.9.7-1.4.7c-.6 0-1-.2-1.3-.5c-.4-.4-.6-.8-.6-1.4c0-.5.2-1 .5-1.4c.4-.3.8-.5 1.3-.5c.5 0 .9.2 1.2.5c.3.4.5.9.5 1.4v.2h-2.9c0 .4.2.7.4.9c.2.2.5.3.9.3c.4 0 .8-.2 1.1-.5l.3.3s.04 0 0 0zm-2.7-1.4h2.3c0-.4-.1-.7-.3-.9c-.2-.2-.5-.3-.8-.3c-.3 0-.6.1-.8.3c-.2.2-.4.5-.4.9zm3.9 2v-5.1h.5v5.1h-.5zm1.8-4.4v-.6h.6v.6h-.6zm0 4.4V72h.5v3.6h-.5zm1.8 0v-5.1h.5v3.5l2-2h.7l-1.6 1.5l1.6 2.1h-.6l-1.3-1.7l-.8.8v.9h-.5zm8 .1c-.6 0-1-.3-1.4-.8c.02.01 0 .7 0 .7h-.5v-5.1h.5s.02 2.21 0 2.2c.4-.5.9-.8 1.4-.8c.5 0 .9.2 1.2.5c.4.4.5.8.5 1.4c0 .6-.1 1-.5 1.4c-.3.3-.7.5-1.2.5zm-.1-.5c.4 0 .7-.1.9-.4c.3-.2.4-.6.4-1c0-.4-.1-.8-.4-1c-.2-.3-.5-.4-.9-.4c-.3 0-.6.1-.9.4c-.3.3-.4.6-.4 1c0 .4.1.7.4 1c.2.3.6.4.9.4zm5.2-.1c-.3.4-.7.6-1.3.6c-.4 0-.7-.1-.9-.3c-.3-.2-.4-.5-.4-.9c0-.3.1-.6.4-.8c.3-.2.6-.3 1.1-.3c.4 0 .7 0 1.1.1v-.1c0-.3-.1-.6-.3-.7c-.2-.2-.4-.3-.8-.3c-.3 0-.7.1-1.1.3l-.1-.5c.4-.2.8-.3 1.3-.3c.5 0 .9.2 1.2.4c.2.3.3.6.3 1.1c.03-.01 0 2.2 0 2.2h-.5v-.5s.01-.05 0 0zm-1.2.1c.3 0 .6 0 .9-.2c.2-.2.3-.4.3-.7v-.4c-.3-.1-.7-.1-1-.1c-.4 0-.6 0-.8.2c-.2.1-.3.3-.3.5c0 .2.1.4.3.6c.1.1.4.1.6.1zm4.1.5c-.6 0-1.1-.2-1.5-.6l.3-.3c.4.3.8.4 1.2.4c.2 0 .4 0 .5-.1c.2-.1.3-.3.3-.5c0-.1-.1-.3-.3-.4c-.1 0-.4-.1-.7-.2c-.1 0-.2-.1-.2-.1c-.1 0-.2-.1-.3-.1c-.1 0-.2-.1-.3-.1c0-.1-.1-.1-.2-.2c0-.1-.1-.1-.1-.2v-.3c0-.4.1-.6.3-.8c.2-.2.5-.3.9-.3c.5 0 .9.2 1.3.4l-.3.4c-.3-.2-.7-.3-1-.3c-.2 0-.4 0-.5.1c-.2.1-.2.2-.2.4v.2c.1 0 .1.1.2.1c0 .1.1.1.2.2h.2c.1.1.2.1.3.1c.1.1.2.1.3.1c.1.1.2.1.3.2c.2 0 .3.1.3.2c.1 0 .1.1.2.2c0 .1.1.2.1.4c0 .3-.2.6-.4.8c-.2.2-.6.3-.9.3zm4.7-.6c-.4.4-.8.6-1.4.6c-.3 0-.6-.1-.9-.3c-.3-.2-.4-.5-.4-.9c0-.3.1-.6.4-.8c.3-.2.7-.3 1.1-.3c.4 0 .8 0 1.2.1v-.1c0-.3-.1-.6-.3-.7c-.2-.2-.5-.3-.8-.3c-.4 0-.8.1-1.1.3l-.2-.5c.4-.2.9-.3 1.3-.3c.5 0 .9.2 1.2.4c.2.3.4.6.4 1.1c-.03-.01 0 2.2 0 2.2h-.5v-.5s-.05-.05 0 0zm-1.3.1c.4 0 .7 0 .9-.2c.2-.2.4-.4.4-.7v-.4c-.4-.1-.8-.1-1.1-.1c-.3 0-.6 0-.8.2c-.2.1-.3.3-.3.5c0 .2.1.4.3.6c.2.1.4.1.6.1zm2.9.4V72h.6s-.04.59 0 .6c.1-.2.3-.4.4-.5c.2-.1.4-.2.7-.2c.6 0 1 .2 1.2.7c.3-.5.7-.7 1.3-.7c.4 0 .7.1.9.4c.3.3.4.6.4 1.1v2.2h-.5s-.03-2.11 0-2.1c0-.4-.1-.6-.3-.8c-.1-.2-.4-.3-.7-.3c-.3 0-.5.1-.7.3c-.2.2-.3.5-.3.8c.03.01 0 2.1 0 2.1h-.5v-2.1c0-.4-.1-.6-.3-.8c-.1-.2-.3-.3-.6-.3c-.3 0-.6.1-.8.3c-.1.2-.2.5-.2.8c-.04.03 0 2.1 0 2.1h-.6zm9-.5c-.3.4-.7.6-1.3.6c-.3 0-.6-.1-.9-.3c-.3-.2-.4-.5-.4-.9c0-.3.1-.6.4-.8c.3-.2.7-.3 1.1-.3c.4 0 .8 0 1.1.1v-.1c0-.3-.1-.6-.2-.7c-.2-.2-.5-.3-.8-.3c-.4 0-.8.1-1.1.3l-.2-.5c.4-.2.9-.3 1.3-.3c.5 0 .9.2 1.2.4c.2.3.4.6.4 1.1c-.04-.01 0 2.2 0 2.2h-.6v-.5s.04-.05 0 0zm-1.2.1c.4 0 .7 0 .9-.2c.2-.2.3-.4.3-.7v-.4c-.3-.1-.7-.1-1-.1c-.4 0-.6 0-.8.2c-.2.1-.3.3-.3.5c0 .2.1.4.3.6c.2.1.4.1.6.1zm2.9.4v-5.1h.5v3.5l2-2h.7l-1.5 1.5l1.5 2.1h-.6l-1.3-1.7l-.8.8v.9h-.5zm4 0v-5.1h.6v5.1h-.6zm4.2-.5c-.3.4-.7.6-1.3.6c-.4 0-.7-.1-.9-.3c-.3-.2-.4-.5-.4-.9c0-.3.1-.6.4-.8c.3-.2.6-.3 1.1-.3c.4 0 .7 0 1.1.1v-.1c0-.3-.1-.6-.3-.7c-.2-.2-.4-.3-.8-.3c-.3 0-.7.1-1.1.3l-.1-.5c.4-.2.8-.3 1.3-.3c.5 0 .9.2 1.2.4c.2.3.3.6.3 1.1c.03-.01 0 2.2 0 2.2h-.5v-.5s.02-.05 0 0zm-1.2.1c.4 0 .6 0 .9-.2c.2-.2.3-.4.3-.7v-.4c-.3-.1-.7-.1-1-.1c-.4 0-.6 0-.8.2c-.2.1-.3.3-.3.5c0 .2.1.4.3.6c.1.1.4.1.6.1zm2.9.4V72h.5s.02.93 0 .9c.2-.3.4-.5.6-.7c.3-.2.6-.3.9-.3v.6s-.04 0 0 0c-.5 0-.8.1-1.1.4c-.2.3-.4.7-.4 1.3c.02-.04 0 1.4 0 1.4h-.5zm2 .9l-.1-.3c.3-.1.5-.3.5-.6h-.3v-.7h.7s-.03.59 0 .6c0 .3-.1.5-.2.6c-.1.2-.3.3-.6.4zm5.2-.8c-.6 0-1.1-.2-1.5-.6l.3-.3c.4.3.8.4 1.2.4c.3 0 .4 0 .6-.1c.1-.1.2-.3.2-.5c0-.1-.1-.3-.3-.4c-.1 0-.3-.1-.6-.2c-.2 0-.3-.1-.3-.1c-.1 0-.2-.1-.3-.1c-.1 0-.2-.1-.2-.1c-.1-.1-.2-.1-.2-.2l-.2-.2v-.3c0-.4.1-.6.3-.8c.3-.2.5-.3.9-.3c.5 0 .9.2 1.3.4l-.2.4c-.4-.2-.8-.3-1.1-.3c-.2 0-.4 0-.5.1c-.1.1-.2.2-.2.4c0 .1 0 .1.1.2s0 .1.1.1c0 .1.1.1.2.2h.2c.1.1.2.1.3.1c.2.1.3.1.4.1c.1.1.2.1.3.2c.1 0 .2.1.2.2c.1 0 .2.1.2.2c.1.1.1.2.1.4c0 .3-.1.6-.4.8c-.2.2-.5.3-.9.3zm2.3-4.5v-.6h.6v.6h-.6zm0 4.4V72h.6v3.6h-.6zM98 75l1.1-3h.6l-1.5 3.7c-.2.4-.3.6-.5.8c-.2.2-.4.2-.7.2c-.3 0-.5 0-.8-.1l.2-.5c.2.1.4.2.6.2c.1 0 .3-.1.4-.2c.1-.1.2-.3.3-.5c.01-.01-1.6-3.6-1.6-3.6h.6l1.3 3zm4.8.1c-.3.4-.8.6-1.3.6c-.4 0-.7-.1-1-.3c-.2-.2-.4-.5-.4-.9c0-.3.2-.6.4-.8c.3-.2.7-.3 1.2-.3c.3 0 .7 0 1.1.1v-.1c0-.3-.1-.6-.3-.7c-.2-.2-.5-.3-.8-.3c-.4 0-.7.1-1.1.3l-.2-.5c.5-.2.9-.3 1.4-.3c.5 0 .9.2 1.1.4c.3.3.4.6.4 1.1v2.2h-.5v-.5s-.02-.05 0 0zm-1.2.1c.3 0 .6 0 .8-.2c.3-.2.4-.4.4-.7v-.4c-.4-.1-.7-.1-1.1-.1c-.3 0-.6 0-.8.2c-.1.1-.2.3-.2.5c0 .2.1.4.2.6c.2.1.4.1.7.1zm2.8.4v-5.1h.6s-.02 2.11 0 2.1c.3-.5.7-.7 1.2-.7c.5 0 .8.1 1 .4c.3.3.4.6.4 1.1c.01-.05 0 2.2 0 2.2h-.5s-.03-2.11 0-2.1c0-.4-.1-.6-.3-.8c-.2-.2-.4-.3-.7-.3c-.3 0-.6.1-.8.3c-.2.2-.3.5-.3.8c-.02.03 0 2.1 0 2.1h-.6zm6.5 0v-5.1h.5v3.5l1.9-2h.7l-1.5 1.5l1.6 2.1h-.7l-1.3-1.7l-.7.8v.9h-.5zm6.3-.5c-.4.4-.8.6-1.4.6c-.3 0-.6-.1-.9-.3c-.3-.2-.4-.5-.4-.9c0-.3.1-.6.4-.8c.3-.2.7-.3 1.1-.3c.4 0 .8 0 1.2.1v-.1c0-.3-.1-.6-.3-.7c-.2-.2-.5-.3-.8-.3c-.4 0-.8.1-1.1.3l-.2-.5c.4-.2.9-.3 1.3-.3c.5 0 .9.2 1.2.4c.3.3.4.6.4 1.1c-.03-.01 0 2.2 0 2.2h-.5v-.5s-.04-.05 0 0zm-1.2.1c.3 0 .6 0 .8-.2c.2-.2.4-.4.4-.7v-.4c-.4-.1-.8-.1-1.1-.1c-.3 0-.6 0-.8.2c-.2.1-.3.3-.3.5c0 .2.1.4.3.6c.2.1.4.1.7.1zm4.2-.2l1.2-3h.6s-1.55 3.72-1.6 3.7c-.1.4-.3.6-.5.8c-.2.2-.4.2-.7.2c-.2 0-.5 0-.7-.1l.2-.5c.1.1.3.2.5.2c.2 0 .3-.1.4-.2c.1-.1.3-.3.4-.5c-.04-.01-1.7-3.6-1.7-3.6h.6l1.3 3zm5.3-.1c-.3.5-.8.8-1.3.8c-.5 0-.9-.2-1.2-.5c-.4-.4-.6-.8-.6-1.4c0-.6.2-1 .6-1.4c.3-.3.7-.5 1.2-.5c.5 0 1 .3 1.3.8c.05-.03 0-2.2 0-2.2h.6v5.1h-.6v-.7s.05-.03 0 0zm-1.2.3c.3 0 .6-.1.9-.4c.2-.3.4-.6.4-1c0-.4-.2-.8-.4-1c-.3-.3-.6-.4-.9-.4c-.4 0-.7.1-.9.4c-.3.2-.4.6-.4 1c0 .4.1.8.4 1c.2.3.5.4.9.4zm3 .4V72h.6v3.6h-.6zm1.8 0V72h.6s-.03.93 0 .9c.1-.3.3-.5.6-.7c.2-.2.5-.3.8-.3c.05.02 0 .6 0 .6c0 0 .01 0 0 0c-.4 0-.8.1-1 .4c-.3.3-.4.7-.4 1.3c-.03-.04 0 1.4 0 1.4h-.6zm2.9 0V72h.5v.6c.2-.2.3-.4.5-.5c.2-.1.4-.2.7-.2c.5 0 .9.2 1.1.7c.4-.5.8-.7 1.3-.7c.4 0 .8.1 1 .4c.2.3.4.6.4 1.1c-.04-.04 0 2.2 0 2.2h-.6s.02-2.11 0-2.1c0-.4-.1-.6-.2-.8c-.2-.2-.4-.3-.7-.3c-.3 0-.5.1-.7.3c-.2.2-.3.5-.3.8c-.02.01 0 2.1 0 2.1h-.6s.05-2.13 0-2.1c0-.4 0-.6-.2-.8c-.2-.2-.4-.3-.7-.3c-.3 0-.5.1-.7.3c-.2.2-.3.5-.3.8v2.1h-.5zm9-.5c-.3.4-.8.6-1.3.6c-.4 0-.7-.1-1-.3c-.2-.2-.4-.5-.4-.9c0-.3.2-.6.5-.8c.2-.2.6-.3 1.1-.3c.3 0 .7 0 1.1.1v-.1c0-.3-.1-.6-.3-.7c-.2-.2-.4-.3-.8-.3c-.4 0-.7.1-1.1.3l-.1-.5c.4-.2.8-.3 1.3-.3c.5 0 .9.2 1.1.4c.3.3.4.6.4 1.1c.01-.01 0 2.2 0 2.2h-.5v-.5s-.01-.05 0 0zm-1.2.1c.3 0 .6 0 .8-.2c.3-.2.4-.4.4-.7v-.4c-.4-.1-.7-.1-1.1-.1c-.3 0-.6 0-.7.2c-.2.1-.3.3-.3.5c0 .2.1.4.2.6c.2.1.4.1.7.1zm2.6.4v-.3l2.4-2.9h-2.3v-.4h3.1v.3l-2.4 2.8h2.4v.5h-3.2zm6.2 1.1V72h.6v.7c.4-.5.8-.8 1.4-.8c.4 0 .8.2 1.2.5c.3.4.5.8.5 1.4c0 .6-.2 1-.5 1.4c-.4.3-.8.5-1.2.5c-.6 0-1.1-.3-1.4-.8c-.01.01 0 1.8 0 1.8h-.6zm1.9-1.5c.3 0 .6-.1.9-.4c.2-.2.3-.6.3-1c0-.4-.1-.8-.3-1c-.3-.3-.6-.4-.9-.4c-.4 0-.7.1-.9.4c-.3.3-.4.6-.4 1c0 .4.1.7.4 1c.2.3.5.4.9.4zm5.2-.1c-.3.4-.8.6-1.3.6c-.4 0-.7-.1-1-.3c-.2-.2-.4-.5-.4-.9c0-.3.2-.6.4-.8c.3-.2.7-.3 1.2-.3c.3 0 .7 0 1.1.1v-.1c0-.3-.1-.6-.3-.7c-.2-.2-.4-.3-.8-.3c-.4 0-.7.1-1.1.3l-.2-.5c.5-.2.9-.3 1.4-.3c.5 0 .9.2 1.1.4c.3.3.4.6.4 1.1v2.2h-.5v-.5s-.02-.05 0 0zm-1.2.1c.3 0 .6 0 .8-.2c.3-.2.4-.4.4-.7v-.4c-.4-.1-.7-.1-1.1-.1c-.3 0-.6 0-.8.2c-.1.1-.2.3-.2.5c0 .2.1.4.2.6c.2.1.4.1.7.1zm4 .5c-.5 0-1-.2-1.5-.6l.3-.3c.4.3.8.4 1.3.4c.2 0 .4 0 .5-.1c.2-.1.2-.3.2-.5c0-.1-.1-.3-.2-.4c-.2 0-.4-.1-.7-.2c-.1 0-.2-.1-.3-.1c0 0-.1-.1-.2-.1c-.1 0-.2-.1-.3-.1l-.2-.2c-.1-.1-.1-.1-.1-.2c-.1-.1-.1-.2-.1-.3c0-.4.1-.6.4-.8c.2-.2.5-.3.9-.3c.4 0 .9.2 1.3.4l-.3.4c-.3-.2-.7-.3-1.1-.3c-.2 0-.3 0-.5.1c-.1.1-.2.2-.2.4c0 .1.1.1.1.2l.1.1l.2.2h.3c0 .1.1.1.3.1c.1.1.2.1.3.1c.1.1.2.1.3.2c.1 0 .2.1.3.2c.1 0 .1.1.2.2v.4c0 .3-.1.6-.3.8c-.3.2-.6.3-1 .3zm2.3 1V72h.6s-.03.71 0 .7c.4-.5.8-.8 1.4-.8c.4 0 .8.2 1.2.5c.3.4.5.8.5 1.4c0 .6-.2 1-.5 1.4c-.4.3-.8.5-1.2.5c-.6 0-1.1-.3-1.4-.8c-.03.01 0 1.8 0 1.8h-.6zm1.9-1.5c.3 0 .6-.1.9-.4c.2-.2.3-.6.3-1c0-.4-.1-.8-.3-1c-.3-.3-.6-.4-.9-.4c-.4 0-.7.1-1 .4c-.2.3-.3.6-.3 1c0 .4.1.7.3 1c.3.3.6.4 1 .4zm5.2-.1c-.3.4-.8.6-1.3.6c-.4 0-.7-.1-1-.3c-.3-.2-.4-.5-.4-.9c0-.3.2-.6.4-.8c.3-.2.7-.3 1.2-.3c.3 0 .7 0 1.1.1v-.1c0-.3-.1-.6-.3-.7c-.2-.2-.5-.3-.8-.3c-.4 0-.7.1-1.1.3l-.2-.5c.5-.2.9-.3 1.3-.3c.6 0 1 .2 1.2.4c.3.3.4.6.4 1.1c-.01-.01 0 2.2 0 2.2h-.5v-.5s-.03-.05 0 0zm-1.2.1c.3 0 .6 0 .8-.2c.3-.2.4-.4.4-.7v-.4c-.4-.1-.7-.1-1.1-.1c-.3 0-.6 0-.8.2c-.2.1-.2.3-.2.5c0 .2 0 .4.2.6c.2.1.4.1.7.1zm4 .5c-.5 0-1-.2-1.5-.6l.3-.3c.4.3.8.4 1.3.4c.2 0 .4 0 .5-.1c.1-.1.2-.3.2-.5c0-.1-.1-.3-.2-.4c-.2 0-.4-.1-.7-.2c-.1 0-.2-.1-.3-.1c0 0-.1-.1-.2-.1c-.2 0-.2-.1-.3-.1l-.2-.2c-.1-.1-.1-.1-.1-.2c-.1-.1-.1-.2-.1-.3c0-.4.1-.6.4-.8c.2-.2.5-.3.8-.3c.5 0 .9.2 1.3.4l-.2.4c-.4-.2-.7-.3-1.1-.3c-.2 0-.4 0-.5.1c-.1.1-.2.2-.2.4c0 .1 0 .1.1.2l.1.1l.2.2h.3c0 .1.1.1.3.1c.1.1.2.1.3.1c.1.1.2.1.3.2c.1 0 .2.1.3.2l.2.2v.4c0 .3-.1.6-.3.8c-.3.2-.6.3-1 .3zm2.4-.1v-5.1h.5v5.1h-.5zm1.8 0V72h.6v3.6h-.6z" stroke="none" fill="#000"/></g><g id="Polygon365071"><path d="m2.6 63.1c0 .3-.1.5-.3.7c-.2.2-.4.3-.6.3c-.3 0-.5-.1-.7-.3c-.2-.2-.2-.4-.2-.7c0-.2 0-.4.2-.6c.2-.2.4-.3.7-.3c.2 0 .4.1.6.3c.2.2.3.4.3.6c-.01.03 0 0 0 0c0 0-.01.04 0 0zm6.2 2.5l2.2-4.9h.5l2.3 4.9h-.6l-.6-1.3H9.9l-.6 1.3h-.5zm1.3-1.8h2.3l-1.1-2.5l-1.2 2.5zm4.6 1.8v-5.1h.5v5.1h-.5zm3.6-4.2v-.6h.6v.6h-.6zm-1.2 0v-.6h.6v.6h-.6zM19 65c-.2.4-.7.7-1.2.7c-.4 0-.8-.2-1-.4c-.3-.3-.4-.6-.4-1.1c.02.03 0-2.2 0-2.2h.6s-.04 2.09 0 2.1c0 .3 0 .6.2.8c.2.2.4.3.8.3c.3 0 .5-.1.7-.3c.2-.2.3-.5.3-.8c.05-.05 0-2.1 0-2.1h.6v3.6h-.6v-.6s.05-.03 0 0zm1.8.6V62h.5s.03.59 0 .6c.2-.2.3-.4.5-.5c.2-.1.4-.2.7-.2c.5 0 .9.2 1.2.7c.3-.5.7-.7 1.2-.7c.5 0 .8.1 1 .4c.3.3.4.6.4 1.1c-.02-.04 0 2.2 0 2.2h-.6s.04-2.11 0-2.1c0-.4 0-.6-.2-.8c-.2-.2-.4-.3-.7-.3c-.3 0-.5.1-.7.3c-.2.2-.3.5-.3.8v2.1h-.5s-.03-2.13 0-2.1c0-.4-.1-.6-.3-.8c-.1-.2-.4-.3-.7-.3c-.3 0-.5.1-.7.3c-.2.2-.3.5-.3.8c.03.03 0 2.1 0 2.1h-.5zm6.6-4.4v-.6h.7v.6h-.7zm.1 4.4V62h.5v3.6h-.5zm1.8 0V62h.5v.6c.3-.5.7-.7 1.2-.7c.5 0 .8.1 1.1.4c.2.3.3.6.3 1.1c.03-.05 0 2.2 0 2.2h-.5v-2.1c0-.4-.1-.6-.3-.8c-.1-.2-.4-.3-.7-.3c-.3 0-.6.1-.8.3c-.2.2-.3.5-.3.8v2.1h-.5zM35 65l1.2-3h.6s-1.56 3.72-1.6 3.7c-.1.4-.3.6-.5.8c-.2.2-.4.2-.7.2c-.2 0-.5 0-.7-.1l.1-.5c.2.1.4.2.6.2c.2 0 .3-.1.4-.2c.1-.1.2-.3.4-.5c-.05-.01-1.7-3.6-1.7-3.6h.6l1.3 3zm5.2 0c-.3.4-.7.7-1.3.7c-.4 0-.7-.2-1-.4c-.2-.3-.3-.6-.3-1.1c-.05.03 0-2.2 0-2.2h.5v2.1c0 .3.1.6.3.8c.1.2.4.3.7.3c.3 0 .6-.1.8-.3c.2-.2.3-.5.3-.8c-.02-.05 0-2.1 0-2.1h.5v3.6h-.5v-.6s-.02-.03 0 0zm1.7.6V62h.6s-.04.59 0 .6c.1-.2.3-.4.4-.5c.2-.1.4-.2.7-.2c.6 0 1 .2 1.2.7c.3-.5.7-.7 1.3-.7c.4 0 .7.1 1 .4c.2.3.3.6.3 1.1c.01-.04 0 2.2 0 2.2h-.5s-.03-2.11 0-2.1c0-.4-.1-.6-.3-.8c-.1-.2-.4-.3-.7-.3c-.2 0-.5.1-.7.3c-.2.2-.3.5-.3.8c.03.01 0 2.1 0 2.1h-.5v-2.1c0-.4-.1-.6-.2-.8c-.2-.2-.4-.3-.7-.3c-.3 0-.6.1-.8.3c-.1.2-.2.5-.2.8c-.04.03 0 2.1 0 2.1h-.6zm11.7.7c-.3.3-.7.4-1.3.4c-.7 0-1.2-.1-1.7-.5l.3-.4c.4.3.9.5 1.4.5c.4 0 .7-.1.9-.4c.3-.2.4-.5.4-.9v-.4c-.4.5-.9.7-1.5.7c-.4 0-.8-.1-1.1-.5c-.4-.3-.6-.7-.6-1.2c0-.5.2-.9.6-1.2c.3-.3.7-.5 1.1-.5c.6 0 1.1.2 1.5.7c-.04.03 0-.6 0-.6h.5v3c0 .5-.2.9-.5 1.3zm-1.3-1.5c.3 0 .6-.1.9-.3c.3-.2.4-.5.4-.9c0-.4-.1-.6-.4-.9c-.3-.2-.6-.3-.9-.3c-.4 0-.7.1-.9.3c-.3.2-.4.5-.4.9c0 .4.1.7.4.9c.2.2.5.3.9.3zm5-3.4v-.6h.6v.6h-.6zm-1.3 0v-.6h.7v.6h-.7zm1 4.3c-.6 0-1-.2-1.4-.6c-.3-.3-.5-.8-.5-1.3c0-.5.2-1 .5-1.3c.4-.4.8-.6 1.4-.6c.5 0 1 .2 1.3.6c.4.3.6.8.6 1.3c0 .5-.2 1-.6 1.3c-.3.4-.8.6-1.3.6zm0-.5c.4 0 .7-.1.9-.4c.3-.3.4-.6.4-1c0-.4-.1-.7-.4-1c-.2-.3-.6-.4-.9-.4c-.4 0-.7.1-1 .4c-.2.3-.4.6-.4 1c0 .4.2.7.4 1c.3.3.6.4 1 .4zm3.8.4L59.3 62h.6l1.2 3l1.2-3h.6l-1.6 3.6h-.5zm5.7-.7c-.4.5-.9.8-1.4.8c-.5 0-.9-.2-1.2-.5c-.4-.4-.6-.8-.6-1.4c0-.6.2-1 .6-1.4c.3-.3.7-.5 1.2-.5c.5 0 1 .3 1.4.8c-.04-.03 0-2.2 0-2.2h.5v5.1h-.5v-.7s-.04-.03 0 0zm-1.3.3c.3 0 .6-.1.9-.4c.2-.3.4-.6.4-1c0-.4-.2-.8-.4-1c-.3-.3-.6-.4-.9-.4c-.4 0-.7.1-.9.4c-.3.2-.4.6-.4 1c0 .4.1.8.4 1c.2.3.5.4.9.4zm6.1-.2c-.4.5-.9.7-1.5.7c-.5 0-.9-.2-1.3-.5c-.3-.4-.5-.8-.5-1.4c0-.5.1-1 .5-1.4c.3-.3.7-.5 1.2-.5c.5 0 .9.2 1.2.5c.3.4.5.9.5 1.4v.2h-2.9c.1.4.2.7.4.9c.3.2.6.3.9.3c.4 0 .8-.2 1.1-.5c.04 0 .4.3.4.3c0 0-.03 0 0 0zm-2.8-1.4h2.4c-.1-.4-.2-.7-.4-.9c-.2-.2-.5-.3-.8-.3c-.3 0-.6.1-.8.3c-.2.2-.3.5-.4.9zm6.4 0c0 1.1.5 1.9 1.6 2.6l-.2.4c-1.3-.7-2-1.7-2-3c0-1.3.7-2.3 2-3l.2.4c-1.1.6-1.6 1.5-1.6 2.6c-.04-.01 0 0 0 0c0 0-.04 0 0 0zm2.6 2v-5.1h.5s.02 2.11 0 2.1c.3-.5.7-.7 1.3-.7c.4 0 .7.1 1 .4c.2.3.3.6.3 1.1c.05-.05 0 2.2 0 2.2h-.5v-2.1c0-.4-.1-.6-.3-.8c-.1-.2-.4-.3-.7-.3c-.3 0-.6.1-.8.3c-.2.2-.3.5-.3.8c.02.03 0 2.1 0 2.1h-.5zm5.9.1c-.5 0-.9-.2-1.3-.6c-.4-.3-.5-.8-.5-1.3c0-.5.1-1 .5-1.3c.4-.4.8-.6 1.4-.6c.5 0 .9.2 1.3.6c.4.3.5.8.5 1.3c0 .5-.1 1-.5 1.3c-.4.4-.8.6-1.4.6zm.1-.5c.3 0 .7-.1.9-.4c.3-.3.4-.6.4-1c0-.4-.1-.7-.4-1c-.3-.3-.6-.4-1-.4c-.3 0-.7.1-.9.4c-.3.3-.4.6-.4 1c0 .4.2.7.4 1c.3.3.6.4 1 .4zm2.9.4v-5.1h.5v5.1h-.5zm1.8 0V62h.5v.6c.1-.2.3-.4.5-.5c.2-.1.4-.2.7-.2c.5 0 .9.2 1.1.7c.3-.5.8-.7 1.3-.7c.4 0 .7.1 1 .4c.2.3.3.6.3 1.1c.04-.04 0 2.2 0 2.2h-.5v-2.1c0-.4-.1-.6-.2-.8c-.2-.2-.4-.3-.7-.3c-.3 0-.6.1-.7.3c-.2.2-.3.5-.3.8c-.03.01 0 2.1 0 2.1h-.6s.03-2.13 0-2.1c0-.4 0-.6-.2-.8c-.2-.2-.4-.3-.7-.3c-.3 0-.5.1-.7.3c-.2.2-.3.5-.3.8v2.1h-.5zm9.7-.6c-.4.5-.9.7-1.5.7c-.5 0-1-.2-1.3-.5c-.4-.4-.5-.8-.5-1.4c0-.5.1-1 .5-1.4c.3-.3.7-.5 1.2-.5c.5 0 .9.2 1.2.5c.3.4.5.9.5 1.4v.2h-2.9c.1.4.2.7.4.9c.3.2.6.3.9.3c.4 0 .8-.2 1.1-.5c.03 0 .4.3.4.3c0 0-.04 0 0 0zm-2.8-1.4h2.3c0-.4-.1-.7-.3-.9c-.2-.2-.5-.3-.8-.3c-.3 0-.6.1-.8.3c-.2.2-.3.5-.4.9zm5.6 0c0 1.3-.7 2.3-2 3l-.2-.4c1.1-.7 1.6-1.5 1.6-2.6c0-1.1-.5-2-1.6-2.6l.2-.4c1.3.7 2 1.7 2 3c-.01-.01 0 0 0 0c0 0-.01 0 0 0z" stroke="none" fill="#000"/></g><g id="Polygon365070"><path d="m5.6 43.1c0 .8-.3 1.4-.8 1.8c-.5.5-1.1.8-1.8.8c-.8 0-1.4-.3-1.9-.7c-.5-.5-.7-1.1-.7-1.8v-.1c0-.7.2-1.3.7-1.7c.5-.5 1.1-.8 1.9-.8c.7 0 1.3.3 1.8.7c.5.5.8 1.1.8 1.8c-.02.04 0 0 0 0c0 0-.02.05 0 0zm-4.1 0c0 .5.1.8.4 1.1c.3.3.7.5 1.1.5c.4 0 .8-.2 1-.5c.3-.2.5-.6.5-1v-.1c0-.4-.2-.7-.5-1c-.2-.3-.6-.5-1-.5c-.5 0-.8.2-1.1.5c-.3.2-.4.6-.4 1c0 .04 0 0 0 0c0 0 0 .05 0 0zm4.9 2.5v-3.8h1.1v.8c.2-.6.6-.8 1.2-.8c-.01-.02 0 1.1 0 1.1h-.1c-.3 0-.6.1-.8.3c-.2.2-.3.6-.3 1v1.4H6.4zm5.1-.2c-.3.2-.6.3-.9.3c-.3 0-.6-.1-.8-.3c-.2-.2-.3-.5-.3-.9c.03.04 0-1.7 0-1.7h-.4v-1h.4v-.9h1.1v.9h.9v1h-.9v1.6c0 .2.1.3.3.3c.2 0 .4 0 .6-.1c-.04-.01 0 .8 0 .8c0 0-.04.05 0 0zm3-.2c-.3.3-.7.5-1.2.5c-.3 0-.7-.1-.9-.3c-.2-.2-.4-.5-.4-.9c0-.4.2-.7.4-.9c.3-.2.7-.3 1.1-.3c.3 0 .7.1 1 .2v-.1c0-.5-.3-.7-.8-.7c-.4 0-.7.1-1.1.2l-.2-.8c.4-.2.9-.3 1.4-.3c.6 0 1 .1 1.3.4c.2.3.4.7.4 1.2c-.02.02 0 2.2 0 2.2h-1v-.4s-.05-.01 0 0zm-.9-.3c.3 0 .5 0 .6-.1c.2-.2.3-.3.3-.5v-.2c-.2-.1-.5-.2-.7-.2c-.2 0-.4.1-.5.2c-.2.1-.2.2-.2.4c0 .1 0 .2.1.3c.1.1.3.1.4.1zm2.8.7v-5.1h1.1v2.7l1.2-1.4h1.3l-1.4 1.5l1.4 2.3h-1.2l-1-1.5l-.3.4v1.1h-1.1zm8.1.1c-.6 0-1.1-.2-1.5-.6c-.3-.3-.5-.8-.5-1.4c0-.5.2-1 .5-1.4c.4-.3.9-.5 1.5-.5c.6 0 1.1.2 1.4.5c.4.4.6.9.6 1.4c0 .6-.2 1-.6 1.4c-.4.4-.8.6-1.4.6zm0-.9c.3 0 .5-.1.7-.3c.2-.2.3-.5.3-.8c0-.3-.1-.5-.3-.7c-.2-.2-.4-.3-.7-.3c-.3 0-.5.1-.7.3c-.2.2-.3.4-.3.7c0 .3.1.6.3.8c.2.2.4.3.7.3zm.2-3.4v-.9h1v.9h-1zm-1.4 0v-.9h1v.9h-1zm3.7 4.2v-.7l2-2.2h-1.9v-.9h3.2v.8l-2 2.1h2v.9H27zm7.3-.6c-.4.5-.9.7-1.5.7c-.6 0-1.1-.2-1.4-.6c-.4-.3-.6-.8-.6-1.4c0-.5.2-1 .5-1.4c.4-.3.8-.5 1.4-.5c.6 0 1 .2 1.3.6c.3.4.5.8.5 1.4v.3h-2.6c0 .2.1.4.3.5c.1.2.3.2.6.2c.3 0 .6-.1.9-.4c-.01.04.6.6.6.6c0 0 0-.02 0 0zm-2.5-1.6h1.7l-.3-.6c-.1-.1-.3-.2-.5-.2c-.3 0-.4.1-.6.2l-.3.6zm3.5 2.2v-5.1h1.1v5.1h-1.1zm2.1 0v-5.1h1.1v5.1h-1.1zm2.1-4.2v-.9h1.1v.9h-1.1zm.1 4.2v-3.8h1v3.8h-1zm2 0v-5.1h1.1v2.7l1.2-1.4h1.3l-1.4 1.5l1.5 2.3H44l-.9-1.5l-.4.4v1.1h-1.1zm4.2 0v-5.1h1.1v5.1h-1.1zm5.4-.6c-.4.5-.9.7-1.5.7c-.6 0-1.1-.2-1.4-.6c-.4-.3-.6-.8-.6-1.4c0-.5.2-1 .5-1.4c.4-.3.8-.5 1.4-.5c.5 0 1 .2 1.3.6c.3.4.5.8.5 1.4v.3h-2.6c0 .2.1.4.3.5c.1.2.3.2.6.2c.3 0 .6-.1.9-.4c-.02.04.6.6.6.6c0 0-.01-.02 0 0zm-2.5-1.6h1.6c0-.2-.1-.4-.2-.6c-.2-.1-.3-.2-.5-.2c-.3 0-.4.1-.6.2l-.3.6zm3.5 2.2v-3.8h1s.03.8 0 .8c.3-.6.7-.8 1.2-.8c.03-.02 0 1.1 0 1.1c0 0-.02-.01 0 0c-.4 0-.7.1-.9.3c-.2.2-.3.6-.3 1c.03.01 0 1.4 0 1.4h-1z" stroke="none" fill="#000"/></g><g id="Polygon365069"><path d="m4.8 26.1L4 27.3c-1.1-.6-1.9-1.3-2.5-2.2c-.5-.8-.8-1.8-.8-2.9v-.1c0-1.1.3-2.1.8-2.9c.6-.9 1.4-1.6 2.5-2.2l.8 1.2c-.8.6-1.4 1.2-1.7 1.8c-.4.6-.6 1.3-.6 2.2c0 .8.2 1.5.6 2.1c.3.6.9 1.2 1.7 1.8zm6.6.6c-.5.6-1.5.8-2.7.8c-1.1 0-2-.2-2.9-.6l.7-1.4c.7.4 1.4.6 2.1.6c1.3 0 1.9-.6 1.9-1.8v-.3c-.3.4-.6.6-1 .8c-.3.2-.7.3-1.1.3c-.8 0-1.5-.3-2.1-.8c-.5-.6-.8-1.3-.8-2.2v-.1c0-.9.3-1.6.8-2.1c.6-.6 1.3-.9 2.1-.9c.8 0 1.5.4 2 1c.04.01 0-.8 0-.8h1.9s-.04 4.95 0 4.9c0 1.2-.3 2-.9 2.6zm-4.1-4.6c0 .4.2.8.5 1.1c.3.2.6.4 1.1.4c.4 0 .8-.2 1.1-.5c.3-.2.5-.6.5-1v-.1c0-.4-.2-.7-.5-1c-.3-.3-.7-.4-1.1-.4c-.5 0-.8.1-1.1.4c-.3.3-.5.6-.5 1c.03.05 0 .1 0 .1c0 0 .03-.03 0 0zm12.3 2.4c-.7.8-1.6 1.2-2.7 1.2c-.9 0-1.7-.3-2.4-.9c-.6-.6-.9-1.4-.9-2.4c0-.9.3-1.7.9-2.4c.6-.6 1.3-1 2.3-1c1 0 1.8.4 2.3 1.1c.5.6.8 1.5.8 2.4v.5h-4.5c.1.4.3.7.5 1c.3.2.7.3 1.1.3c.5 0 1-.2 1.5-.7l1.1.9s-.03.04 0 0zm-4.2-2.6h2.7c0-.4-.2-.8-.4-1c-.3-.3-.6-.4-.9-.4c-.4 0-.7.1-1 .4c-.2.2-.4.6-.4 1zm5.9 3.7v-6.4h1.8s-.02.88 0 .9c.5-.7 1.1-1.1 1.9-1.1c.7 0 1.2.3 1.6.7c.4.4.5 1 .5 1.7c.04.04 0 4.2 0 4.2h-1.8s.02-3.59 0-3.6c0-.9-.3-1.3-1.1-1.3c-.3 0-.6.1-.8.3c-.2.3-.3.6-.3 1c-.02.01 0 3.6 0 3.6h-1.8zm7.5-7.1v-1.7h1.9v1.7h-1.9zm0 7.1v-6.4h1.8v6.4h-1.8zm5.6 2.1l-1.6-.7s1-1.36 1-1.4c-.7-.1-1.4-.4-2-.9l.8-1.2c.7.6 1.4.8 2.1.8c.5 0 .7-.1.7-.5v-.1c0-.1-.1-.1-.1-.2c-.1 0-.1 0-.2-.1s-.1 0-.2-.1c-.1 0-.2 0-.2-.1h-.3c-.1-.1-.2-.1-.3-.1c-.3-.1-.5-.2-.7-.3l-.6-.3c-.2-.2-.4-.4-.5-.6c-.1-.2-.1-.5-.1-.8c0-.6.2-1.1.6-1.5c.5-.3 1.1-.5 1.7-.5c.9 0 1.7.2 2.4.7l-.7 1.3c-.7-.4-1.2-.6-1.7-.6c-.2 0-.4 0-.5.1c-.1.1-.2.2-.2.3c0 .2.1.3.3.4c.3.2.6.3 1 .4c.3.1.5.2.7.3l.6.3c.2.2.4.4.5.6c.1.2.2.4.2.7c0 .6-.2 1.1-.5 1.4c-.4.4-.9.6-1.4.7c-.03-.02-.8 2-.8 2zm10.1 0L43 27l1-1.4c-.7-.2-1.3-.6-1.7-1.2c-.4-.6-.6-1.2-.6-2c0-.9.3-1.7.9-2.4c.7-.6 1.5-1 2.4-1c1.1 0 1.9.4 2.6 1.1l-1.1 1.2c-.2-.2-.5-.4-.7-.5c-.2-.1-.5-.2-.8-.2c-.4 0-.8.2-1.1.5c-.3.4-.4.8-.4 1.3c0 .5.1.9.4 1.3c.3.3.7.5 1.2.5c.5 0 1-.3 1.5-.7l1 1.1c-.3.3-.6.6-1 .8c-.3.2-.8.3-1.3.3c.01.03-.8 2-.8 2zm9.8-3.2c-.6.8-1.5 1.2-2.6 1.2c-1 0-1.8-.3-2.4-.9c-.6-.6-1-1.4-1-2.4c0-.9.3-1.7.9-2.4c.6-.6 1.4-1 2.3-1c1 0 1.8.4 2.3 1.1c.6.6.8 1.5.8 2.4v.5h-4.5c.1.4.3.7.6 1c.3.2.6.3 1 .3c.6 0 1.1-.2 1.6-.7c-.02.02 1 .9 1 .9c0 0 .02.04 0 0zm-4.2-2.6h2.8c-.1-.4-.2-.8-.5-1c-.2-.3-.5-.4-.9-.4c-.4 0-.7.1-.9.4c-.2.2-.4.6-.5 1zm6 3.7v-8.8h1.8v8.8h-1.8zm3.6-7.1v-1.7h1.9v1.7h-1.9zm0 7.1v-6.4h1.8v6.4h-1.8zm3.6 0v-8.8h1.8v4.7l2.1-2.3h2.2l-2.5 2.5l2.6 3.9h-2.1L65.7 23l-.6.6v2h-1.8zm14.5.1c-.8 0-1.5-.3-2-.9c-.02-.04 0 .8 0 .8H74v-8.8h1.8s-.02 3.29 0 3.3c.5-.7 1.2-1.1 2-1.1c.8 0 1.5.3 2 .9c.6.6.9 1.4.9 2.5c0 1-.3 1.8-.8 2.4c-.6.6-1.3.9-2.1.9zm-2-3.3c0 .5.1.9.4 1.3c.3.3.7.5 1.1.5c.5 0 .8-.2 1.1-.5c.3-.3.5-.8.5-1.3c0-.5-.2-1-.5-1.3c-.3-.3-.6-.5-1.1-.5c-.4 0-.8.2-1.1.5c-.3.3-.4.8-.4 1.3c-.05-.03 0 0 0 0c0 0-.05 0 0 0zm10 2.5c-.5.5-1.1.8-1.9.8c-.7 0-1.2-.2-1.6-.5c-.4-.4-.6-.8-.6-1.4v-.1c0-.6.2-1.2.7-1.5c.4-.4 1.1-.5 1.9-.5c.5 0 1 .1 1.5.2v-.1c0-.8-.4-1.1-1.3-1.1c-.6 0-1.2.1-1.8.3l-.5-1.4c.8-.3 1.7-.5 2.5-.5c1 0 1.7.2 2.2.7c.5.5.7 1.2.7 2.1c-.01-.03 0 3.7 0 3.7h-1.8v-.7s.02 0 0 0zm-1.4-.4c.5 0 .8-.1 1.1-.4c.2-.2.4-.4.4-.8v-.3c-.4-.2-.8-.2-1.2-.2c-.4 0-.7 0-.9.2c-.3.1-.4.4-.4.7c0 .2.1.4.3.5c.2.2.4.3.7.3zm7 1.2c-1 0-1.9-.3-2.7-1l.7-1.2c.7.6 1.4.8 2.1.8c.5 0 .7-.1.7-.5v-.1c0-.1-.1-.1-.1-.2c-.1 0-.1 0-.2-.1s-.1 0-.2-.1c-.1 0-.2 0-.2-.1h-.3c-.1-.1-.2-.1-.3-.1c-.3-.1-.5-.2-.7-.3l-.6-.3c-.2-.2-.4-.4-.5-.6c-.1-.2-.1-.5-.1-.8c0-.6.2-1.1.7-1.5c.4-.3 1-.5 1.6-.5c.9 0 1.7.2 2.4.7l-.7 1.3c-.6-.4-1.2-.6-1.7-.6c-.2 0-.4 0-.5.1c-.1.1-.2.2-.2.3c0 .2.1.3.4.4c.2.2.5.3.9.4c.3.1.5.2.7.3l.6.3c.2.2.4.4.5.6c.1.2.2.4.2.7c0 .7-.3 1.2-.7 1.6c-.5.3-1 .5-1.8.5zm7.6-.8c-.5.5-1.2.8-2 .8c-.6 0-1.2-.2-1.6-.5c-.4-.4-.6-.8-.6-1.4v-.1c0-.6.2-1.2.7-1.5c.5-.4 1.1-.5 1.9-.5c.5 0 1 .1 1.6.2v-.1c0-.8-.5-1.1-1.4-1.1c-.6 0-1.2.1-1.8.3l-.4-1.4c.8-.3 1.6-.5 2.4-.5c1 0 1.7.2 2.2.7c.5.5.7 1.2.7 2.1c.01-.03 0 3.7 0 3.7H99v-.7s-.05 0 0 0zm-1.4-.4c.4 0 .7-.1 1-.4c.3-.2.4-.4.4-.8v-.3c-.4-.2-.8-.2-1.2-.2c-.4 0-.7 0-.9.2c-.2.1-.3.4-.3.7c0 .2.1.4.2.5c.2.2.5.3.8.3zm4.7 1.1v-6.4h1.8s.01.88 0 .9c.5-.7 1.2-1.1 1.9-1.1c.9 0 1.5.4 1.8 1.1c.6-.7 1.3-1.1 2.1-1.1c.7 0 1.3.2 1.6.7c.4.4.6.9.6 1.7v4.2h-1.8s-.02-3.59 0-3.6c0-.9-.4-1.3-1.1-1.3c-.3 0-.6.1-.8.3c-.2.3-.3.6-.3 1c.01.01 0 3.6 0 3.6h-1.8s-.02-3.59 0-3.6c0-.9-.4-1.3-1.1-1.3c-.3 0-.6.1-.8.3c-.2.3-.3.6-.3 1c.01.01 0 3.6 0 3.6h-1.8zm15.2-.7c-.5.5-1.2.8-2 .8c-.6 0-1.1-.2-1.6-.5c-.4-.4-.6-.8-.6-1.4v-.1c0-.6.2-1.2.7-1.5c.5-.4 1.1-.5 1.9-.5c.5 0 1 .1 1.6.2v-.1c0-.8-.5-1.1-1.4-1.1c-.6 0-1.2.1-1.8.3l-.4-1.4c.8-.3 1.6-.5 2.5-.5c.9 0 1.6.2 2.1.7c.5.5.7 1.2.7 2.1c.02-.03 0 3.7 0 3.7h-1.7v-.7s-.05 0 0 0zm-1.4-.4c.4 0 .7-.1 1-.4c.3-.2.4-.4.4-.8v-.3c-.4-.2-.8-.2-1.2-.2c-.4 0-.7 0-.9.2c-.2.1-.3.4-.3.7c0 .2.1.4.2.5c.2.2.5.3.8.3zm4.7 1.1v-8.8h1.8v4.7l2.2-2.3h2.1l-2.4 2.5l2.5 3.9h-2.1l-1.6-2.6l-.7.6v2h-1.8zm7.2 0v-8.8h1.8v8.8H128zm7.3-.7c-.5.5-1.2.8-2 .8c-.6 0-1.1-.2-1.5-.5c-.5-.4-.7-.8-.7-1.4v-.1c0-.6.3-1.2.7-1.5c.5-.4 1.1-.5 1.9-.5c.5 0 1.1.1 1.6.2v-.1c0-.8-.5-1.1-1.4-1.1c-.6 0-1.2.1-1.8.3l-.4-1.4c.8-.3 1.6-.5 2.5-.5c.9 0 1.7.2 2.2.7c.4.5.6 1.2.6 2.1c.05-.03 0 3.7 0 3.7h-1.7v-.7s-.01 0 0 0zm-1.4-.4c.4 0 .8-.1 1-.4c.3-.2.4-.4.4-.8v-.3c-.3-.2-.7-.2-1.1-.2c-.4 0-.7 0-1 .2c-.2.1-.3.4-.3.7c0 .2.1.4.3.5c.2.2.4.3.7.3zm4.7 1.1v-6.4h1.8s.05 1.26 0 1.3c.5-1 1.1-1.5 2.1-1.5v2s-.1-.04-.1 0c-.6 0-1.1.1-1.4.5c-.4.4-.6 1-.6 1.7c.05.02 0 2.4 0 2.4h-1.8zm14.5.2s-.99-1.02-1-1c-.8.6-1.6.9-2.5.9c-.8 0-1.4-.2-2-.6c-.5-.5-.8-1.1-.8-1.8c0-1.1.6-1.8 1.7-2.3c-.4-.6-.6-1.1-.6-1.7c0-.6.2-1.2.7-1.6c.4-.4 1-.6 1.8-.6c.7 0 1.3.2 1.7.6c.5.4.7.9.7 1.5c0 1-.6 1.7-1.8 2.2l1.1 1.1c.2-.3.5-.8.8-1.4l1.4.7c-.4.8-.8 1.4-1.1 1.8c0-.02 1.2 1.2 1.2 1.2l-1.3 1zm-3.5-6.4c0 .3.1.6.5 1c.3-.1.6-.3.8-.5c.2-.1.3-.3.3-.6c0-.3-.1-.5-.2-.6c-.2-.1-.4-.2-.6-.2c-.3 0-.5.1-.6.2c-.2.2-.2.4-.2.6c-.03.05 0 .1 0 .1c0 0-.03-.03 0 0zm.3 4.8c.4 0 .8-.2 1.2-.5l-1.6-1.6c-.6.3-.8.6-.8 1.1c0 .3.1.6.3.7c.2.2.5.3.9.3zm9.3 1.4v-8.8h1.8v4.7l2.1-2.3h2.2l-2.4 2.5l2.5 3.9h-2.1l-1.6-2.6l-.7.6v2h-1.8zm10.7-.7c-.4.5-1.1.8-1.9.8c-.6 0-1.2-.2-1.6-.5c-.4-.4-.6-.8-.6-1.4v-.1c0-.6.2-1.2.7-1.5c.5-.4 1.1-.5 1.9-.5c.5 0 1 .1 1.6.2v-.1c0-.8-.5-1.1-1.4-1.1c-.6 0-1.2.1-1.8.3l-.5-1.4c.8-.3 1.7-.5 2.5-.5c1 0 1.7.2 2.2.7c.5.5.7 1.2.7 2.1c.01-.03 0 3.7 0 3.7h-1.8v-.7s.04 0 0 0zm-1.4-.4c.5 0 .8-.1 1.1-.4c.2-.2.4-.4.4-.8v-.3c-.4-.2-.8-.2-1.2-.2c-.4 0-.7 0-.9.2c-.2.1-.3.4-.3.7c0 .2 0 .4.2.5c.2.2.5.3.7.3zm7.4-1l1.4-4.3h1.9s-2.51 6.56-2.5 6.6c-.3.6-.5 1.1-.8 1.3c-.4.3-.8.5-1.3.5c-.6 0-1.1-.2-1.6-.5l.6-1.3c.2.2.5.2.7.2h.4c.1-.1.2-.2.3-.4c-.02.02-2.5-6.4-2.5-6.4h1.9l1.5 4.3zm8.7 1.2c-.5.7-1.2 1-2 1c-.8 0-1.5-.3-2.1-.9c-.6-.6-.9-1.4-.9-2.4c0-1.1.3-1.9.9-2.5c.6-.6 1.3-.9 2.1-.9c.8 0 1.4.4 2 1c-.02.01 0-3.2 0-3.2h1.8v8.8h-1.8v-.9s-.02-.02 0 0zm-3.1-2.3c0 .5.1.9.4 1.3c.3.3.7.5 1.1.5c.5 0 .9-.2 1.2-.5c.3-.4.4-.8.4-1.3c0-.5-.1-1-.4-1.3c-.3-.3-.7-.5-1.2-.5c-.4 0-.8.2-1.1.5c-.3.3-.4.7-.4 1.3c-.03-.03 0 0 0 0c0 0-.03 0 0 0zm6.6 3.2v-6.4h1.8v6.4h-1.8zm3.6 0v-6.4h1.8v1.3c.4-1 1.1-1.5 2-1.5c.04.05 0 2 0 2c0 0-.06-.04-.1 0c-.6 0-1.1.1-1.4.5c-.3.4-.5 1-.5 1.7v2.4h-1.8zm5 0v-6.4h1.8v.9c.5-.7 1.2-1.1 1.9-1.1c.9 0 1.5.4 1.8 1.1c.6-.7 1.3-1.1 2.1-1.1c.7 0 1.2.2 1.6.7c.4.4.6.9.6 1.7v4.2h-1.8s-.03-3.59 0-3.6c0-.9-.4-1.3-1.1-1.3c-.3 0-.6.1-.8.3c-.2.3-.3.6-.3 1v3.6h-1.8s-.03-3.59 0-3.6c0-.9-.4-1.3-1.1-1.3c-.3 0-.6.1-.8.3c-.2.3-.3.6-.3 1v3.6h-1.8zm15.1-.7c-.4.5-1.1.8-1.9.8c-.6 0-1.2-.2-1.6-.5c-.4-.4-.6-.8-.6-1.4v-.1c0-.6.2-1.2.7-1.5c.5-.4 1.1-.5 1.9-.5c.5 0 1 .1 1.6.2v-.1c0-.8-.5-1.1-1.4-1.1c-.6 0-1.2.1-1.8.3l-.5-1.4c.9-.3 1.7-.5 2.5-.5c1 0 1.7.2 2.2.7c.5.5.7 1.2.7 2.1c.01-.03 0 3.7 0 3.7h-1.8v-.7s.05 0 0 0zm-1.3-.4c.4 0 .7-.1 1-.4c.3-.2.4-.4.4-.8v-.3c-.4-.2-.8-.2-1.2-.2c-.4 0-.7 0-.9.2c-.2.1-.3.4-.3.7c0 .2 0 .4.2.5c.2.2.5.3.8.3zm4.5 1.1v-1.3l3.3-3.7h-3.2v-1.4h5.5v1.3l-3.4 3.6h3.4v1.5H215zm10.5 1.9v-8.3h1.9s-.04.89 0 .9c.5-.7 1.1-1.1 2-1.1c.8 0 1.5.3 2 .9c.6.6.9 1.4.9 2.5c0 1-.3 1.8-.9 2.4c-.5.6-1.2.9-2 .9c-.8 0-1.5-.3-2-.9c-.04-.04 0 2.7 0 2.7h-1.9zm1.8-5.1c0 .5.2.9.5 1.3c.3.3.7.5 1.1.5c.4 0 .8-.2 1.1-.5c.3-.3.5-.8.5-1.3c0-.5-.2-1-.5-1.3c-.3-.3-.7-.5-1.1-.5c-.4 0-.8.2-1.1.5c-.3.3-.5.8-.5 1.3c.04-.03 0 0 0 0c0 0 .04 0 0 0zm10.1 2.5c-.5.5-1.1.8-1.9.8c-.7 0-1.2-.2-1.6-.5c-.4-.4-.6-.8-.6-1.4v-.1c0-.6.2-1.2.7-1.5c.4-.4 1.1-.5 1.8-.5c.6 0 1.1.1 1.6.2v-.1c0-.8-.4-1.1-1.4-1.1c-.5 0-1.1.1-1.7.3l-.5-1.4c.8-.3 1.6-.5 2.5-.5c1 0 1.7.2 2.2.7c.4.5.7 1.2.7 2.1c-.03-.03 0 3.7 0 3.7h-1.8v-.7zm-1.4-.4c.4 0 .8-.1 1.1-.4c.2-.2.3-.4.3-.8v-.3c-.3-.2-.7-.2-1.1-.2c-.4 0-.7 0-.9.2c-.3.1-.4.4-.4.7c0 .2.1.4.3.5c.2.2.4.3.7.3zm7 1.2c-1 0-1.9-.3-2.8-1l.8-1.2c.7.6 1.4.8 2 .8c.6 0 .8-.1.8-.5v-.1c0-.1-.1-.1-.1-.2c-.1 0-.1 0-.2-.1s-.1 0-.2-.1c-.1 0-.2 0-.2-.1h-.3c-.1-.1-.2-.1-.3-.1c-.3-.1-.5-.2-.7-.3l-.6-.3c-.2-.2-.4-.4-.5-.6c-.1-.2-.1-.5-.1-.8c0-.6.2-1.1.6-1.5c.5-.3 1-.5 1.7-.5c.9 0 1.7.2 2.4.7l-.7 1.3c-.7-.4-1.2-.6-1.7-.6c-.2 0-.4 0-.5.1c-.1.1-.2.2-.2.3c0 .2.1.3.3.4c.3.2.6.3 1 .4c.3.1.5.2.7.3l.6.3c.2.2.4.4.5.6c.1.2.2.4.2.7c0 .7-.3 1.2-.7 1.6c-.5.3-1.1.5-1.8.5zm3.8 1.8v-8.3h1.8s-.01.89 0 .9c.5-.7 1.2-1.1 2-1.1c.8 0 1.5.3 2.1.9c.5.6.8 1.4.8 2.5c0 1-.3 1.8-.8 2.4c-.6.6-1.3.9-2.1.9c-.8 0-1.5-.3-2-.9v2.7h-1.8zm1.8-5.1c0 .5.1.9.4 1.3c.3.3.7.5 1.1.5c.5 0 .8-.2 1.1-.5c.3-.3.5-.8.5-1.3c0-.5-.2-1-.5-1.3c-.3-.3-.6-.5-1.1-.5c-.4 0-.8.2-1.1.5c-.3.3-.4.8-.4 1.3c-.04-.03 0 0 0 0c0 0-.04 0 0 0zm10 2.5c-.5.5-1.1.8-1.9.8c-.6 0-1.2-.2-1.6-.5c-.4-.4-.6-.8-.6-1.4v-.1c0-.6.2-1.2.7-1.5c.5-.4 1.1-.5 1.9-.5c.5 0 1 .1 1.5.2v-.1c0-.8-.4-1.1-1.3-1.1c-.6 0-1.2.1-1.8.3l-.5-1.4c.8-.3 1.7-.5 2.5-.5c1 0 1.7.2 2.2.7c.5.5.7 1.2.7 2.1v3.7h-1.8v-.7s.03 0 0 0zm-1.4-.4c.5 0 .8-.1 1.1-.4c.2-.2.4-.4.4-.8v-.3c-.4-.2-.8-.2-1.2-.2c-.4 0-.7 0-.9.2c-.2.1-.4.4-.4.7c0 .2.1.4.3.5c.2.2.4.3.7.3zm7 1.2c-1 0-1.9-.3-2.7-1l.7-1.2c.7.6 1.4.8 2.1.8c.5 0 .7-.1.7-.5v-.1c0-.1 0-.1-.1-.2c-.1 0-.1 0-.2-.1s-.1 0-.2-.1c-.1 0-.2 0-.2-.1h-.3c-.1-.1-.2-.1-.3-.1c-.3-.1-.5-.2-.7-.3l-.6-.3c-.2-.2-.3-.4-.4-.6c-.2-.2-.2-.5-.2-.8c0-.6.2-1.1.7-1.5c.4-.3 1-.5 1.6-.5c.9 0 1.7.2 2.4.7l-.7 1.3c-.6-.4-1.2-.6-1.7-.6c-.2 0-.4 0-.5.1c-.1.1-.2.2-.2.3c0 .2.1.3.4.4c.2.2.5.3.9.4c.3.1.5.2.7.3l.6.3c.2.2.4.4.5.6c.1.2.2.4.2.7c0 .7-.2 1.2-.7 1.6c-.4.3-1 .5-1.8.5zm3.9-.1v-8.8h1.8v8.8h-1.8zm7.3-.7c-.5.5-1.2.8-2 .8c-.6 0-1.1-.2-1.5-.5c-.5-.4-.7-.8-.7-1.4v-.1c0-.6.3-1.2.7-1.5c.5-.4 1.1-.5 1.9-.5c.5 0 1.1.1 1.6.2v-.1c0-.8-.5-1.1-1.4-1.1c-.6 0-1.2.1-1.8.3l-.4-1.4c.8-.3 1.6-.5 2.5-.5c.9 0 1.7.2 2.2.7c.4.5.6 1.2.6 2.1c.05-.03 0 3.7 0 3.7h-1.7v-.7s-.02 0 0 0zm-1.4-.4c.4 0 .8-.1 1-.4c.3-.2.4-.4.4-.8v-.3c-.3-.2-.7-.2-1.1-.2c-.4 0-.7 0-1 .2c-.2.1-.3.4-.3.7c0 .2.1.4.3.5c.2.2.4.3.7.3zm4.7 1.1v-6.4h1.8s.04 1.26 0 1.3c.5-1 1.1-1.5 2.1-1.5v2s-.1-.04-.1 0c-.6 0-1.1.1-1.4.5c-.4.4-.6 1-.6 1.7c.04.02 0 2.4 0 2.4h-1.8zm5.5 1.7l-.8-1.2c.8-.6 1.4-1.2 1.8-1.8c.4-.6.5-1.3.5-2.1v-.1c0-.8-.1-1.5-.5-2.1c-.4-.6-1-1.2-1.8-1.8l.8-1.2c1.1.6 2 1.3 2.5 2.2c.6.8.9 1.8.9 3c0 1.1-.3 2.1-.9 2.9c-.5.9-1.4 1.6-2.5 2.2z" stroke="none" fill="#000"/></g><g id="Polygon365068"><path d="m1 9.6V1.2h1.9v3.3h3.4V1.2h1.8v8.4H6.3V6.2H2.9v3.4H1zm12.7-.7c-.5.5-1.1.8-1.9.8c-.7 0-1.2-.2-1.6-.5c-.4-.4-.6-.8-.6-1.4v-.1c0-.6.2-1.2.7-1.5c.4-.4 1.1-.5 1.8-.5c.6 0 1.1.1 1.6.2v-.1c0-.8-.4-1.1-1.4-1.1c-.5 0-1.1.1-1.7.3l-.5-1.4c.8-.3 1.6-.5 2.5-.5c1 0 1.7.2 2.2.7c.4.5.7 1.2.7 2.1c-.03-.03 0 3.7 0 3.7h-1.8v-.7zm-1.4-.4c.4 0 .8-.1 1-.4c.3-.2.4-.4.4-.8v-.3c-.3-.2-.7-.2-1.1-.2c-.4 0-.7 0-.9.2c-.3.1-.4.4-.4.7c0 .2.1.4.3.5c.2.2.4.3.7.3zm5.1 1.1V4.7h-.8V3.2h.8s-.05-.38 0-.4c0-.7.1-1.2.5-1.5c.3-.4.8-.5 1.4-.5c.5 0 1 0 1.3.1v1.5c-.3-.1-.5-.1-.8-.1c-.4 0-.6.2-.6.7c-.05-.01 0 .2 0 .2h1.4v1.5h-1.4v4.9h-1.8zm4.3 0V3.2h1.8v6.4h-1.8zm0-7.1V.8h1.9v1.7h-1.9zm3.9 7.1V4.7h-.8V3.2h.8s-.04-.38 0-.4c0-.7.1-1.2.5-1.5c.3-.4.8-.5 1.5-.5c.4 0 .9 0 1.2.1v1.5c-.2-.1-.5-.1-.8-.1c-.4 0-.6.2-.6.7c-.04-.01 0 .2 0 .2h1.4v1.5h-1.4v4.9h-1.8zm3.3 1.9l-.1-.7c.8-.1 1.2-.5 1.2-1.2h-.8V7.7h2s-.04 1.6 0 1.6c0 .8-.2 1.3-.6 1.7c-.4.4-.9.5-1.7.5zM41 8.7c-.5.7-1.2 1-2 1c-.8 0-1.5-.3-2.1-.9c-.6-.6-.9-1.4-.9-2.4c0-1.1.3-1.9.9-2.5c.6-.6 1.3-.9 2.1-.9c.8 0 1.4.4 2 1c-.03.01 0-3.2 0-3.2h1.8v8.8H41v-.9s-.03-.02 0 0zm-3.1-2.3c0 .5.1.9.4 1.3c.3.3.7.5 1.1.5c.5 0 .8-.2 1.1-.5c.3-.4.5-.8.5-1.3c0-.5-.2-1-.5-1.3c-.3-.3-.6-.5-1.1-.5c-.4 0-.8.2-1.1.5c-.3.3-.4.7-.4 1.3c-.04-.03 0 0 0 0c0 0-.04 0 0 0zm10.5 2.3c-.5.7-1.1 1-1.8 1c-.7 0-1.3-.2-1.7-.6c-.3-.4-.5-1-.5-1.8c-.02.03 0-4.1 0-4.1h1.8v3.6c0 .8.4 1.3 1.1 1.3c.4 0 .6-.1.8-.4c.2-.2.3-.5.3-.9c.04-.04 0-3.6 0-3.6h1.9v6.4h-1.9v-.9s.04-.01 0 0zm-.7-6.2V.8h1.7v1.7h-1.7zm-2.5 0V.8h1.7v1.7h-1.7zm6.5 7.1V8.3L55 4.6h-3.2V3.2h5.5v1.3l-3.4 3.6h3.4v1.5h-5.6zM66 8.9c-.5.5-1.1.8-1.9.8c-.7 0-1.2-.2-1.6-.5c-.4-.4-.6-.8-.6-1.4v-.1c0-.6.2-1.2.7-1.5c.4-.4 1.1-.5 1.9-.5c.5 0 1 .1 1.5.2v-.1c0-.8-.4-1.1-1.3-1.1c-.6 0-1.2.1-1.8.3l-.5-1.4c.8-.3 1.7-.5 2.5-.5c1 0 1.7.2 2.2.7c.5.5.7 1.2.7 2.1c-.01-.03 0 3.7 0 3.7H66v-.7s.02 0 0 0zm-1.4-.4c.5 0 .8-.1 1.1-.4c.2-.2.4-.4.4-.8v-.3c-.4-.2-.8-.2-1.2-.2c-.4 0-.7 0-.9.2c-.3.1-.4.4-.4.7c0 .2.1.4.3.5c.2.2.4.3.7.3zm4.8 1.1V.8h1.9v8.8h-1.9zm7.6-.9c-.5.7-1.2 1-1.9 1c-.7 0-1.2-.2-1.6-.6c-.4-.4-.6-1-.6-1.8c.03.03 0-4.1 0-4.1h1.9s-.04 3.56 0 3.6c0 .8.3 1.3 1.1 1.3c.3 0 .6-.1.8-.4c.2-.2.3-.5.3-.9V3.2h1.8v6.4H77v-.9s0-.01 0 0zm-.8-6.2V.8h1.8v1.7h-1.8zm-2.4 0V.8h1.7v1.7h-1.7zm6.7 7.1V3.2h1.8s-.02.88 0 .9c.5-.7 1.2-1.1 1.9-1.1c.8 0 1.4.4 1.8 1.1c.6-.7 1.3-1.1 2.1-1.1c.7 0 1.2.2 1.6.7c.4.4.6.9.6 1.7c-.03.01 0 4.2 0 4.2h-1.8s-.05-3.59 0-3.6c0-.9-.4-1.3-1.1-1.3c-.4 0-.6.1-.8.3c-.2.3-.3.6-.3 1c-.02.01 0 3.6 0 3.6h-1.8s-.05-3.59 0-3.6c0-.9-.4-1.3-1.1-1.3c-.4 0-.6.1-.8.3c-.2.3-.3.6-.3 1c-.02.01 0 3.6 0 3.6h-1.8zm11.4-7.1V.8h1.9v1.7h-1.9zm0 7.1V3.2h1.9v6.4h-1.9zm3.6 0V3.2h1.8s.01.88 0 .9c.5-.7 1.2-1.1 1.9-1.1c.7 0 1.2.3 1.6.7c.4.4.6 1 .6 1.7c-.03.04 0 4.2 0 4.2h-1.8s-.05-3.59 0-3.6c0-.9-.4-1.3-1.2-1.3c-.3 0-.6.1-.8.3c-.2.3-.3.6-.3 1c.01.01 0 3.6 0 3.6h-1.8zm10.1-2.1l1.4-4.3h1.9s-2.47 6.56-2.5 6.6c-.2.6-.5 1.1-.8 1.3c-.3.3-.8.5-1.3.5c-.6 0-1.1-.2-1.6-.5l.6-1.3c.3.2.5.2.8.2h.4c.1-.1.1-.2.2-.4c.02.02-2.5-6.4-2.5-6.4h1.9l1.5 4.3zm8.4 1.2c-.5.7-1.2 1-1.9 1c-.7 0-1.2-.2-1.6-.6c-.4-.4-.6-1-.6-1.8c.03.03 0-4.1 0-4.1h1.9s-.05 3.56 0 3.6c0 .8.3 1.3 1.1 1.3c.3 0 .6-.1.8-.4c.2-.2.3-.5.3-.9V3.2h1.8v6.4H114v-.9s0-.01 0 0zm3.5.9V3.2h1.8s-.02.88 0 .9c.5-.7 1.1-1.1 1.9-1.1c.8 0 1.4.4 1.8 1.1c.6-.7 1.3-1.1 2.1-1.1c.7 0 1.2.2 1.6.7c.4.4.6.9.6 1.7c-.03.01 0 4.2 0 4.2h-1.9s.05-3.59 0-3.6c0-.9-.3-1.3-1-1.3c-.4 0-.6.1-.8.3c-.2.3-.3.6-.3 1c-.03.01 0 3.6 0 3.6h-1.9s.05-3.59 0-3.6c0-.9-.3-1.3-1-1.3c-.4 0-.6.1-.8.3c-.2.3-.3.6-.3 1c-.02.01 0 3.6 0 3.6h-1.8zm18.8.1c-.8 0-1.5-.3-2-.9c-.02-.04 0 .8 0 .8h-1.8V.8h1.8s-.02 3.29 0 3.3c.5-.7 1.1-1.1 2-1.1c.8 0 1.5.3 2 .9c.6.6.9 1.4.9 2.5c0 1-.3 1.8-.8 2.4c-.6.6-1.3.9-2.1.9zm-2-3.3c0 .5.1.9.4 1.3c.3.3.7.5 1.1.5c.5 0 .8-.2 1.1-.5c.3-.3.5-.8.5-1.3c0-.5-.2-1-.5-1.3c-.3-.3-.6-.5-1.1-.5c-.4 0-.8.2-1.1.5c-.3.3-.4.8-.4 1.3c-.05-.03 0 0 0 0c0 0-.05 0 0 0zm10 2.5c-.5.5-1.1.8-1.9.8c-.7 0-1.2-.2-1.6-.5c-.4-.4-.6-.8-.6-1.4v-.1c0-.6.2-1.2.7-1.5c.4-.4 1.1-.5 1.9-.5c.5 0 1 .1 1.5.2v-.1c0-.8-.4-1.1-1.3-1.1c-.6 0-1.2.1-1.8.3l-.5-1.4c.8-.3 1.7-.5 2.5-.5c1 0 1.7.2 2.2.7c.5.5.7 1.2.7 2.1c-.01-.03 0 3.7 0 3.7h-1.8v-.7s.02 0 0 0zm-1.4-.4c.5 0 .8-.1 1.1-.4c.2-.2.4-.4.4-.8v-.3c-.4-.2-.8-.2-1.2-.2c-.4 0-.7 0-.9.2c-.3.1-.4.4-.4.7c0 .2.1.4.3.5c.2.2.4.3.7.3zm7 1.2c-1 0-1.9-.3-2.7-1l.7-1.2c.7.6 1.4.8 2.1.8c.5 0 .7-.1.7-.5v-.1c0-.1-.1-.1-.1-.2c-.1 0-.1 0-.2-.1s-.1 0-.2-.1c-.1 0-.2 0-.2-.1h-.3c-.1-.1-.2-.1-.3-.1c-.3-.1-.5-.2-.7-.3l-.6-.3c-.2-.2-.4-.4-.5-.6c-.1-.2-.1-.5-.1-.8c0-.6.2-1.1.6-1.5c.5-.3 1.1-.5 1.7-.5c.9 0 1.7.2 2.4.7l-.7 1.3c-.6-.4-1.2-.6-1.7-.6c-.2 0-.4 0-.5.1c-.1.1-.2.2-.2.3c0 .2.1.3.4.4c.2.2.5.3.9.4c.3.1.5.2.7.3l.6.3c.2.2.4.4.5.6c.1.2.2.4.2.7c0 .7-.3 1.2-.7 1.6c-.5.3-1.1.5-1.8.5zm7.5-.8c-.4.5-1.1.8-1.9.8c-.6 0-1.2-.2-1.6-.5c-.4-.4-.6-.8-.6-1.4v-.1c0-.6.2-1.2.7-1.5c.5-.4 1.1-.5 1.9-.5c.5 0 1 .1 1.6.2v-.1c0-.8-.5-1.1-1.4-1.1c-.6 0-1.2.1-1.8.3l-.5-1.4c.9-.3 1.7-.5 2.5-.5c1 0 1.7.2 2.2.7c.5.5.7 1.2.7 2.1c.01-.03 0 3.7 0 3.7h-1.8v-.7s.05 0 0 0zm-1.3-.4c.4 0 .7-.1 1-.4c.3-.2.4-.4.4-.8v-.3c-.4-.2-.8-.2-1.2-.2c-.4 0-.7 0-.9.2c-.2.1-.3.4-.3.7c0 .2.1.4.2.5c.2.2.5.3.8.3zm4.7 1.1V3.2h1.8s.01.88 0 .9c.5-.7 1.2-1.1 1.9-1.1c.9 0 1.5.4 1.8 1.1c.6-.7 1.3-1.1 2.1-1.1c.7 0 1.3.2 1.6.7c.4.4.6.9.6 1.7v4.2h-1.8s-.02-3.59 0-3.6c0-.9-.4-1.3-1.1-1.3c-.3 0-.6.1-.8.3c-.2.3-.3.6-.3 1c.01.01 0 3.6 0 3.6h-1.8s-.02-3.59 0-3.6c0-.9-.4-1.3-1.1-1.3c-.3 0-.6.1-.8.3c-.2.3-.3.6-.3 1c.01.01 0 3.6 0 3.6h-1.8zm15.2-.7c-.5.5-1.2.8-2 .8c-.6 0-1.1-.2-1.6-.5c-.4-.4-.6-.8-.6-1.4v-.1c0-.6.2-1.2.7-1.5c.5-.4 1.1-.5 1.9-.5c.5 0 1 .1 1.6.2v-.1c0-.8-.5-1.1-1.4-1.1c-.6 0-1.2.1-1.8.3l-.4-1.4c.8-.3 1.6-.5 2.4-.5c1 0 1.7.2 2.2.7c.5.5.7 1.2.7 2.1c.02-.03 0 3.7 0 3.7H176v-.7s-.05 0 0 0zm-1.4-.4c.4 0 .7-.1 1-.4c.3-.2.4-.4.4-.8v-.3c-.4-.2-.8-.2-1.2-.2c-.4 0-.7 0-.9.2c-.2.1-.3.4-.3.7c0 .2.1.4.2.5c.2.2.5.3.8.3zm4.7 1.1V.8h1.8v4.7l2.1-2.3h2.2L183 5.7l2.5 3.9h-2.1L181.8 7l-.7.6v2h-1.8zm7.2 0V.8h1.8v8.8h-1.8zm3.6 0V3.2h1.8v6.4h-1.8zm7.1 0V3.2h1.9s-.04.88 0 .9c.5-.7 1.1-1.1 1.9-1.1c.8 0 1.4.4 1.8 1.1c.5-.7 1.2-1.1 2.1-1.1c.7 0 1.2.2 1.6.7c.4.4.6.9.6 1.7c-.04.01 0 4.2 0 4.2h-1.9s.03-3.59 0-3.6c0-.9-.3-1.3-1-1.3c-.4 0-.6.1-.8.3c-.2.3-.3.6-.3 1c-.04.01 0 3.6 0 3.6h-1.9s.04-3.59 0-3.6c0-.9-.3-1.3-1-1.3c-.4 0-.6.1-.8.3c-.2.3-.3.6-.3 1c-.04.01 0 3.6 0 3.6h-1.9zm17.1-1.1c-.6.8-1.5 1.2-2.6 1.2c-1 0-1.8-.3-2.4-.9c-.7-.6-1-1.4-1-2.4c0-.9.3-1.7.9-2.4c.6-.6 1.4-1 2.3-1c1 0 1.8.4 2.3 1.1c.6.6.8 1.5.8 2.4v.5h-4.5c.1.4.3.7.6 1c.3.2.6.3 1 .3c.6 0 1.1-.2 1.6-.7c-.03.02 1 .9 1 .9c0 0 .02.04 0 0zm-4.2-2.6h2.8c-.1-.4-.2-.8-.5-1c-.2-.3-.5-.4-.9-.4c-.4 0-.7.1-.9.4c-.3.2-.4.6-.5 1zm5.9 3.7V3.2h1.8s.02 1.26 0 1.3c.4-1 1.1-1.5 2.1-1.5c-.03.05 0 2 0 2c0 0-.12-.04-.1 0c-.6 0-1.1.1-1.5.5c-.3.4-.5 1-.5 1.7c.02.02 0 2.4 0 2.4H216zm9.5-.9c-.5.7-1.1 1-2 1c-.8 0-1.5-.3-2-.9c-.6-.6-.9-1.4-.9-2.4c0-1.1.3-1.9.9-2.5c.5-.6 1.2-.9 2-.9c.8 0 1.5.4 2 1c.04.01 0-3.2 0-3.2h1.9v8.8h-1.9v-.9s.04-.02 0 0zm-3.1-2.3c0 .5.2.9.5 1.3c.3.3.7.5 1.1.5c.4 0 .8-.2 1.1-.5c.3-.4.5-.8.5-1.3c0-.5-.2-1-.5-1.3c-.3-.3-.7-.5-1.1-.5c-.4 0-.8.2-1.1.5c-.3.3-.5.7-.5 1.3c.03-.03 0 0 0 0c0 0 .03 0 0 0zm6.6-3.9V.8h1.9v1.7H229zm.1 7.1V3.2h1.8v6.4h-1.8zm5.5 0L232 3.2h2l1.4 4.3l1.5-4.3h1.9l-2.6 6.4h-1.6zm10.5-1.1c-.6.8-1.5 1.2-2.6 1.2c-1 0-1.8-.3-2.4-.9c-.6-.6-1-1.4-1-2.4c0-.9.3-1.7.9-2.4c.6-.6 1.4-1 2.3-1c1 0 1.8.4 2.4 1.1c.5.6.8 1.5.8 2.4c0 .1-.1.3-.1.5H241c0 .4.2.7.5 1c.3.2.6.3 1 .3c.6 0 1.1-.2 1.6-.7c-.01.02 1 .9 1 .9c0 0 .03.04 0 0zm-4.2-2.6h2.8c-.1-.4-.2-.8-.5-1c-.2-.3-.5-.4-.9-.4c-.4 0-.7.1-.9.4c-.2.2-.4.6-.5 1zm5.9 3.7V3.2h1.8s.04.88 0 .9c.6-.7 1.2-1.1 1.9-1.1c.7 0 1.3.3 1.6.7c.4.4.6 1 .6 1.7v4.2h-1.8s-.02-3.59 0-3.6c0-.9-.4-1.3-1.1-1.3c-.4 0-.7.1-.9.3c-.2.3-.3.6-.3 1c.04.01 0 3.6 0 3.6h-1.8z" stroke="none" fill="#000"/></g></svg>