<?xml version="1.0" standalone="no"?><!DOCTYPE svg PUBLIC "-//W3C//DTD SVG 1.1//EN" "http://www.w3.org/Graphics/SVG/1.1/DTD/svg11.dtd"><svg xmlns="http://www.w3.org/2000/svg" version="1.1" width="84.1px" height="12.4px" viewBox="0 -1 84.1 12.4" style="top:-1px"><desc>GENSE</desc><defs/><g id="Polygon363549"><path d="m64.2 6.8c-.6.5-1.2.8-2 .8c-.7 0-1.3-.3-1.8-.8c-.5-.4-.7-1-.7-1.8c0-.7.2-1.3.7-1.8c.5-.5 1.1-.7 1.8-.7c.4 0 .7 0 1 .2c.3.1.5.2.8.4l-.4.5c-.4-.4-.9-.6-1.4-.6c-.6 0-1 .2-1.4.6c-.3.4-.5.9-.5 1.4c0 .6.2 1.1.5 1.5c.4.4.8.6 1.4.6c.6 0 1-.2 1.4-.5c.04-.03 0-1.2 0-1.2h-1.4v-.5h2v1.9s-.02.01 0 0zm1.2.7V2.6h3.6v.5h-3v1.7h2.6v.5H66v1.7h3v.5h-3.6zm4.7 0V2.6h.5l3.1 3.9V2.6h.6v4.9h-.5l-3.1-4v4h-.6zm7.2 0c-.7 0-1.4-.2-2-.7l.4-.4c.2.2.5.4.7.5c.3.1.6.2.9.2c.4 0 .6-.1.8-.3c.2-.1.3-.3.3-.6c0-.2-.1-.4-.2-.6c-.2-.1-.5-.2-1-.3c-.6-.2-1-.3-1.3-.5c-.3-.2-.4-.5-.4-.9v-.1c0-.3.2-.7.5-.9c.3-.3.7-.4 1.1-.4c.4 0 .7.1 1 .2c.2.1.5.2.7.4l-.3.4c-.4-.3-.9-.5-1.4-.5c-.3 0-.6.1-.7.2c-.2.2-.3.4-.3.6c0 .3.1.4.2.6c.2.1.6.3 1.1.4c.6.1 1 .3 1.2.5c.3.2.4.5.4.8v.1c0 .4-.2.7-.5 1c-.3.2-.7.3-1.2.3zm2.8 0V2.6h3.6v.5h-3v1.7h2.6v.5h-2.6v1.7h3v.5h-3.6z" stroke="none" fill="#000"/></g></svg>