<?xml version="1.0" standalone="no"?><!DOCTYPE svg PUBLIC "-//W3C//DTD SVG 1.1//EN" "http://www.w3.org/Graphics/SVG/1.1/DTD/svg11.dtd"><svg xmlns="http://www.w3.org/2000/svg" version="1.1" width="52.5px" height="20.5px" viewBox="0 -1 52.5 20.5" style="top:-1px"><desc>₺13.440,40</desc><defs/><g id="Polygon368793"><path d="m2.3 4.8v7.1h-.9V4.8h.9zm1.9 3.4h.9s.03.38 0 .4c0 .5 0 1-.2 1.4c-.1.4-.3.8-.5 1.1c-.3.3-.6.5-1 .7c-.3.1-.7.2-1.1.2h-.5c-.1 0-.3-.1-.4-.1l.9-.7c.3 0 .6 0 .8-.2c.2-.1.4-.2.6-.5c.2-.2.3-.5.4-.8c.1-.3.1-.7.1-1.1v-.4zm-.7-2.7v.9L.2 7.9v-.9l3.3-1.5zm0 1.6v.9L.2 9.5v-.9l3.3-1.5zm5.6-2.3v7.1h-.9v-6l-1.8.7v-.9L9 4.8h.1zm4 3.1s.64.02.6 0c.4 0 .6 0 .8-.1c.2-.1.4-.3.5-.5c.1-.2.1-.4.1-.6c0-.3 0-.5-.1-.7c-.1-.2-.2-.3-.4-.4c-.2-.1-.4-.1-.7-.1c-.3 0-.5 0-.7.1c-.2.1-.3.2-.4.4c-.1.2-.2.4-.2.7h-.9c0-.4.1-.7.3-1c.2-.3.4-.6.8-.7c.3-.2.7-.3 1.1-.3c.4 0 .8.1 1.1.2c.4.2.6.4.8.7c.2.3.2.7.2 1.1c0 .2 0 .4-.1.6c-.1.2-.2.4-.4.6c-.1.1-.4.3-.6.4c-.3.1-.6.2-1 .2c-.03-.04-.8 0-.8 0v-.6zm0 .8v-.6s.77.02.8 0c.4 0 .8.1 1.1.2c.3.1.5.2.7.4c.2.2.3.4.4.6c0 .2.1.4.1.6c0 .4-.1.7-.2.9c-.1.3-.3.5-.5.7c-.2.2-.4.3-.7.4c-.3.1-.6.1-.9.1c-.3 0-.6 0-.9-.1c-.2-.1-.5-.2-.7-.4c-.2-.2-.4-.4-.5-.6c-.1-.3-.1-.5-.1-.9h.9c0 .3 0 .5.1.7c.1.2.3.3.5.4c.2.1.4.2.7.2c.3 0 .5-.1.7-.2c.2-.1.4-.2.5-.4c.1-.2.1-.5.1-.7c0-.3 0-.6-.1-.8c-.2-.2-.3-.3-.6-.4c-.2-.1-.5-.1-.8-.1c.04-.04-.6 0-.6 0zm4.4 2.7c0-.1.1-.2.2-.4c0-.1.2-.1.4-.1c.2 0 .3 0 .4.1c.1.2.1.3.1.4c0 .2 0 .3-.1.4c-.1.1-.2.2-.4.2c-.2 0-.4-.1-.4-.2c-.1-.1-.2-.2-.2-.4zm7.3-1.9v.8h-5.1v-.6l3.2-4.9h.7l-.8 1.4l-2.1 3.3h4.1zm-1-4.7v7.1h-.9V4.8h.9zm6.7 4.7v.8h-5.2v-.6l3.2-4.9h.7l-.7 1.4l-2.2 3.3h4.2zm-1-4.7v7.1h-.9V4.8h.9zm6.2 3v1.1c0 .6 0 1.1-.1 1.5c-.1.4-.3.7-.5.9c-.2.3-.4.4-.7.5c-.2.2-.6.2-.9.2c-.3 0-.5 0-.8-.1l-.6-.3c-.2-.2-.3-.4-.5-.6l-.3-.9c0-.3-.1-.8-.1-1.2V7.8c0-.6.1-1.1.2-1.5c.1-.4.3-.7.5-.9c.2-.3.4-.4.7-.5c.2-.1.5-.2.9-.2c.3 0 .5 0 .8.1l.6.3c.2.2.3.4.4.6c.2.2.3.5.3.9c.1.3.1.7.1 1.2zM34.8 9V6.8c-.1-.2-.1-.4-.2-.6c-.1-.2-.2-.3-.3-.4l-.3-.3c-.2 0-.3-.1-.5-.1c-.2 0-.4.1-.6.2c-.2 0-.3.2-.4.3c-.1.2-.2.4-.3.7v3.3c0 .2.1.4.2.6c.1.2.1.3.3.4c.1.2.2.2.3.3c.2 0 .3.1.5.1c.2 0 .4-.1.6-.2c.1 0 .3-.2.4-.4c.1-.1.2-.4.2-.7c.1-.2.1-.6.1-1zm3 1.8v.8c0 .3-.1.6-.2.9c-.2.3-.4.6-.6.8l-.6-.3c.1-.2.2-.3.3-.5c.1-.1.1-.3.2-.4v-.5c.03-.02 0-.8 0-.8h.9zm5.9-1.3v.8h-5.2v-.6l3.2-4.9h.8l-.8 1.4l-2.1 3.3h4.1zm-1-4.7v7.1h-.9V4.8h.9zm6.2 3v1.1c0 .6 0 1.1-.1 1.5c-.1.4-.3.7-.5.9c-.2.3-.4.4-.7.5c-.2.2-.6.2-.9.2c-.3 0-.5 0-.8-.1l-.6-.3c-.2-.2-.3-.4-.4-.6c-.2-.3-.3-.6-.3-.9c-.1-.3-.1-.8-.1-1.2V7.8c0-.6 0-1.1.1-1.5c.1-.4.3-.7.5-.9c.2-.3.4-.4.7-.5c.2-.1.6-.2.9-.2c.3 0 .5 0 .8.1l.6.3c.2.2.3.4.4.6c.2.2.3.5.3.9c.1.3.1.7.1 1.2zM48 9V6.8c-.1-.2-.1-.4-.2-.6c-.1-.2-.1-.3-.3-.4l-.3-.3c-.2 0-.3-.1-.5-.1c-.2 0-.4.1-.6.2c-.1 0-.3.2-.4.3c-.1.2-.2.4-.3.7v3.3c.1.2.1.4.2.6c.1.2.2.3.3.4c.1.2.2.2.3.3c.2 0 .3.1.5.1c.2 0 .4-.1.6-.2c.2 0 .3-.2.4-.4c.1-.1.2-.4.3-.7v-1z" stroke="none" fill="#000"/></g></svg>