<?xml version="1.0" standalone="no"?><!DOCTYPE svg PUBLIC "-//W3C//DTD SVG 1.1//EN" "http://www.w3.org/Graphics/SVG/1.1/DTD/svg11.dtd"><svg xmlns="http://www.w3.org/2000/svg" version="1.1" width="16.2px" height="12.4px" viewBox="0 -1 16.2 12.4" style="top:-1px"><desc/><defs/><g id="Polygon377893"><path d="m7.4 7.6c-.8 0-1.4-.3-1.9-.9l.4-.4c.4.5.9.8 1.5.8c.3 0 .5-.1.7-.3c.2-.2.3-.4.3-.7c0-.3-.1-.5-.3-.7c-.3-.2-.6-.3-1-.3c-.03.05-.3 0-.3 0l-.2-.3l1.6-1.7H5.8v-.5h3.1v.4S7.39 4.69 7.4 4.7c.5 0 .8.2 1.1.4c.4.2.5.5.5 1c0 .4-.2.8-.5 1c-.3.3-.7.5-1.1.5zm3.3-.1V3.1l-.9.3l-.1-.4l1.2-.5h.4v5h-.6zm2.2 0l2.3-4.4h-2.7v-.5h3.3v.4l-2.2 4.5h-.7z" stroke="none" fill="#000"/></g></svg>