<?xml version="1.0" standalone="no"?><!DOCTYPE svg PUBLIC "-//W3C//DTD SVG 1.1//EN" "http://www.w3.org/Graphics/SVG/1.1/DTD/svg11.dtd"><svg xmlns="http://www.w3.org/2000/svg" version="1.1" width="16.2px" height="12.4px" viewBox="0 -1 16.2 12.4" style="top:-1px"><desc/><defs/><g id="Polygon372010"><path d="m.3 7.5v-.4l1.8-1.6c.4-.4.7-.6.8-.9c.2-.2.2-.4.2-.7c0-.2-.1-.5-.3-.6c-.1-.2-.4-.3-.7-.3c-.2 0-.5.1-.7.2c-.2.1-.4.4-.6.6l-.4-.2c.3-.4.5-.7.8-.8c.2-.2.6-.3 1-.3c.4 0 .8.1 1.1.4c.3.3.4.6.4 1c0 .3-.1.7-.3.9c-.1.3-.5.6-.9 1C2.47 5.81 1.2 7 1.2 7h2.6v.5H.3zm4.8-1c.4.4.8.6 1.2.6c.4 0 .8-.2 1-.6c.3-.4.4-.9.4-1.5v-.1c-.3.5-.8.8-1.4.8c-.5 0-.9-.2-1.2-.4c-.3-.3-.5-.7-.5-1.1c0-.5.2-.9.5-1.2c.4-.3.8-.5 1.3-.5c.5 0 .9.2 1.3.5c.4.4.6 1 .6 1.9c0 .8-.2 1.4-.6 1.9c-.4.5-.8.8-1.4.8c-.6 0-1.1-.2-1.6-.6c.05-.04.4-.5.4-.5c0 0-.03.03 0 0zm1.3-1.3c.4 0 .7-.1.9-.3c.2-.2.3-.5.3-.8c0-.3-.1-.6-.3-.8c-.3-.2-.6-.3-.9-.3c-.4 0-.7.1-.9.3c-.2.2-.3.5-.3.8c0 .4.1.6.3.8c.3.2.6.3.9.3zm6.4 1c0 .4-.2.7-.6 1c-.3.2-.7.3-1.3.3c-.5 0-.9-.1-1.3-.3c-.3-.3-.5-.6-.5-1v-.1c0-.2.1-.5.3-.7c.1-.2.4-.3.7-.5c-.6-.2-.8-.6-.8-1.1c0-.4.1-.7.4-.9c.4-.3.8-.4 1.2-.4c.5 0 .9.1 1.2.4c.3.2.5.5.5.9c0 .5-.3.9-.8 1.1c.3.2.5.3.7.5c.2.2.3.5.3.7c-.03.04 0 .1 0 .1c0 0-.03-.05 0 0zm-3-2.3c0 .2.1.4.3.6c.2.2.5.2.8.2c.3 0 .6 0 .8-.2c.2-.2.3-.4.3-.6v-.1c0-.2-.1-.4-.3-.6c-.2-.1-.5-.2-.8-.2c-.3 0-.6.1-.8.2c-.2.2-.3.4-.3.6v.1s.01-.05 0 0zm-.2 2.2c0 .3.2.5.4.7c.2.2.5.3.9.3c.4 0 .7-.1 1-.3c.2-.2.3-.4.3-.7c0-.2-.1-.5-.4-.6c-.2-.2-.5-.3-.9-.3c-.3 0-.6.1-.9.3c-.2.1-.4.4-.4.6c.05.03 0 0 0 0c0 0 .05.05 0 0z" stroke="none" fill="#000"/></g></svg>