<?xml version="1.0" standalone="no"?><!DOCTYPE svg PUBLIC "-//W3C//DTD SVG 1.1//EN" "http://www.w3.org/Graphics/SVG/1.1/DTD/svg11.dtd"><svg xmlns="http://www.w3.org/2000/svg" version="1.1" width="350.4px" height="55.4px" viewBox="0 -4 350.4 55.4" style="top:-4px"><desc>B RL KTE YEMEK YEMEK SA LIKLIDIR</desc><defs/><g id="Polygon364310"><path d="m1.7 13.7v-12h5.1c1.3 0 2.4.4 3.1 1.1c.5.5.8 1.1.8 1.9c0 1.3-.6 2.2-1.9 2.8c1.7.5 2.6 1.4 2.6 2.9c0 1-.4 1.8-1.2 2.4c-.8.6-1.9.9-3.2.9c.01-.02-5.3 0-5.3 0zm7.6-8.8c0-.6-.2-1.1-.7-1.5c-.4-.3-1.1-.5-1.9-.5c-.03.02-3.7 0-3.7 0v4.1s3.57.04 3.6 0c.8 0 1.5-.1 2-.5c.5-.4.7-.9.7-1.6zm.7 5.4c0-.7-.3-1.2-.8-1.5c-.6-.4-1.4-.6-2.4-.6c.01.04-3.8 0-3.8 0v4.3s4.05-.03 4 0c1 0 1.7-.2 2.2-.6c.5-.4.8-.9.8-1.6zm4.2 3.4v-12h1.3v12h-1.3zM14 .6V-.9h1.7v1.5H14zm5 13.1v-12h5.2c1.4 0 2.6.4 3.4 1.2c.6.6.9 1.4.9 2.4c0 1-.3 1.7-.9 2.3c-.6.6-1.4 1-2.4 1.2c.04-.01 3.7 4.9 3.7 4.9h-1.6L23.8 9h-3.4v4.7H19zm1.4-5.9s3.64.01 3.6 0c1 0 1.7-.2 2.3-.7c.5-.4.8-1 .8-1.7v-.1c0-.7-.2-1.3-.8-1.7c-.5-.4-1.3-.6-2.2-.6c-.04-.04-3.7 0-3.7 0v4.8zm11 5.9v-12h1.3v10.7h6.8v1.3h-8.1zm10.6 0v-12h1.4v12H42zM41.9.6V-.9h1.6v1.5h-1.6zm5 13.1v-12h1.3v7.2l6.9-7.2h1.8l-5.2 5.2l5.4 6.8h-1.7l-4.6-5.8l-2.6 2.6v3.2h-1.3zm15.2 0V3h-4V1.7h9.4v1.3h-4v10.7h-1.4zm7.9 0v-12h8.6v1.2h-7.3v4.1h6.5v1.3h-6.5v4.1h7.4v1.3H70zm20.3 0V8.9l-5-7.2h1.7l4 6l4.1-6h1.5l-4.9 7.2v4.8h-1.4zm8.5 0v-12h8.6v1.2h-7.3v4.1h6.6v1.3h-6.6v4.1h7.4v1.3h-8.7zm11.4 0v-12h1.4l4.4 6.5l4.3-6.5h1.4v12h-1.4V4l-4.3 6.4h-.1L111.6 4v9.7h-1.4zm14.9 0v-12h8.6v1.2h-7.3v4.1h6.6v1.3h-6.6v4.1h7.4v1.3h-8.7zm11.4 0v-12h1.4v7.2l6.9-7.2h1.7l-5.1 5.2l5.3 6.8H145l-4.6-5.8l-2.5 2.6v3.2h-1.4zm21.2 0V8.9l-5-7.2h1.7l4 6l4.1-6h1.6l-5 7.2v4.8h-1.4zm8.5 0v-12h8.7v1.2h-7.3v4.1h6.5v1.3h-6.5v4.1h7.3v1.3h-8.7zm11.5 0v-12h1.3l4.4 6.5l4.4-6.5h1.3v12h-1.3V4l-4.4 6.4h-.1L179 4v9.7h-1.3zm14.8 0v-12h8.7v1.2h-7.3v4.1h6.5v1.3h-6.5v4.1h7.3v1.3h-8.7zm11.5 0v-12h1.3v7.2l6.9-7.2h1.8l-5.2 5.2l5.4 6.8h-1.7l-4.6-5.8l-2.6 2.6v3.2H204zm21.5.2c-1.9 0-3.5-.7-4.9-2l.8-1c.7.6 1.3 1.1 2 1.3c.6.3 1.3.4 2.1.4c.8 0 1.5-.2 2-.5c.5-.4.7-.9.7-1.5c0-.6-.2-1.1-.6-1.4c-.5-.3-1.3-.6-2.5-.9c-1.4-.3-2.4-.7-3.1-1.2c-.6-.6-.9-1.3-.9-2.3c0-.9.4-1.7 1.1-2.3c.7-.7 1.7-1 2.8-1c.9 0 1.6.2 2.3.4c.6.2 1.3.6 1.9 1.1l-.8 1.1c-1-.9-2.2-1.3-3.4-1.3c-.8 0-1.4.1-1.9.5c-.4.4-.7.8-.7 1.4c0 .6.3 1.1.7 1.4c.5.4 1.3.7 2.6.9c1.3.4 2.3.8 2.9 1.3c.7.5 1 1.2 1 2.1v.1c0 1-.4 1.8-1.2 2.4c-.7.6-1.7 1-2.9 1zm5.6-.2l5.4-12.1h1.3l5.4 12.1h-1.4l-1.4-3.2h-6.5l-1.5 3.2h-1.3zm3.3-4.4h5.4l-2.7-6.1l-2.7 6.1zm18.4-10.7c-.1.6-.3 1.1-.8 1.4c-.5.3-1 .5-1.8.5c-.7 0-1.3-.2-1.7-.5c-.5-.3-.7-.8-.8-1.4h1c.2.6.7.9 1.5.9c.8 0 1.3-.3 1.5-.9c.04-.04 1.1 0 1.1 0c0 0-.03-.04 0 0zm2.4 13.5c-1.3 1.2-2.9 1.8-4.8 1.8c-1.8 0-3.3-.6-4.4-1.8c-1.1-1.2-1.6-2.6-1.6-4.4c0-1.7.5-3.1 1.6-4.4c1.2-1.2 2.6-1.8 4.4-1.8c.9 0 1.7.1 2.4.4c.7.3 1.4.7 2 1.2l-.9 1c-1-.9-2.2-1.3-3.6-1.3c-1.3 0-2.4.4-3.2 1.4c-.9.9-1.3 2.1-1.3 3.5c0 1.4.4 2.6 1.2 3.6c.9.9 2.1 1.4 3.5 1.4c1.3 0 2.5-.4 3.4-1.2c.05-.03 0-3 0-3h-3.6V7.3h4.9v4.8s.05-.04 0 0zm3.1 1.6v-12h1.3v10.7h6.8v1.3h-8.1zm10.6 0v-12h1.4v12h-1.4zm4.9 0v-12h1.3v7.2l6.9-7.2h1.8l-5.2 5.2l5.4 6.8h-1.7l-4.6-5.8l-2.6 2.6v3.2h-1.3zm12.3 0v-12h1.3v10.7h6.8v1.3h-8.1zm10.6 0v-12h1.4v12h-1.4zm4.9 0v-12h4.1c1.9 0 3.4.6 4.6 1.7c1.2 1.1 1.8 2.6 1.8 4.3c0 1.7-.6 3.1-1.8 4.3c-1.2 1.1-2.7 1.7-4.6 1.7c.03-.02-4.1 0-4.1 0zM305.7 3c.03-.04-2.8 0-2.8 0v9.4s2.83.03 2.8 0c1.5 0 2.7-.4 3.6-1.3c.9-.9 1.4-2 1.4-3.4c0-1.4-.5-2.5-1.4-3.4c-.9-.9-2.1-1.3-3.6-1.3zm9.4 10.7v-12h1.3v12h-1.3zm4.8 0v-12h5.2c1.4 0 2.6.4 3.4 1.2c.6.6.9 1.4.9 2.4c0 1-.3 1.7-.9 2.3c-.6.6-1.4 1-2.4 1.2c.04-.01 3.7 4.9 3.7 4.9h-1.6L324.7 9h-3.4v4.7h-1.4zm1.4-5.9s3.65.01 3.6 0c1 0 1.7-.2 2.3-.7c.5-.4.8-1 .8-1.7v-.1c0-.7-.2-1.3-.8-1.7c-.5-.4-1.3-.6-2.2-.6c-.04-.04-3.7 0-3.7 0v4.8z" stroke="none" fill="#fff"/></g></svg>