<?xml version="1.0" standalone="no"?><!DOCTYPE svg PUBLIC "-//W3C//DTD SVG 1.1//EN" "http://www.w3.org/Graphics/SVG/1.1/DTD/svg11.dtd"><svg xmlns="http://www.w3.org/2000/svg" version="1.1" width="16.2px" height="12.4px" viewBox="0 -1 16.2 12.4" style="top:-1px"><desc/><defs/><g id="Polygon377541"><path d="m2.2 7.6c-.8 0-1.4-.3-1.8-.9l.3-.4c.4.5.9.8 1.5.8c.3 0 .5-.1.7-.3c.3-.2.4-.4.4-.7c0-.3-.2-.5-.4-.7c-.3-.2-.6-.3-1-.3c-.02.05-.3 0-.3 0l-.1-.3L3 3.1H.6v-.5h3.1v.4L2.2 4.7c.5 0 .9.2 1.2.4c.3.2.4.5.4 1c0 .4-.1.8-.5 1c-.3.3-.7.5-1.1.5zm3.3-.1V3.1l-.9.3l-.1-.4l1.2-.5h.4v5h-.6zm4.3 0V6.3H7.2l-.1-.4l2.8-3.4h.5v3.4h.7v.4h-.7v1.2h-.6zm-2-1.6h2V3.3l-2 2.6z" stroke="none" fill="#000"/></g></svg>