<?xml version="1.0" standalone="no"?><!DOCTYPE svg PUBLIC "-//W3C//DTD SVG 1.1//EN" "http://www.w3.org/Graphics/SVG/1.1/DTD/svg11.dtd"><svg xmlns="http://www.w3.org/2000/svg" version="1.1" width="16.2px" height="12.4px" viewBox="0 -1 16.2 12.4" style="top:-1px"><desc/><defs/><g id="Polygon377692"><path d="m7.3 7.6c-.8 0-1.4-.3-1.9-.9l.4-.4c.4.5.9.8 1.5.8c.3 0 .5-.1.7-.3c.2-.2.3-.4.3-.7c0-.3-.1-.5-.3-.7c-.3-.2-.6-.3-1-.3c-.04.05-.4 0-.4 0l-.1-.3l1.6-1.7H5.7v-.5h3.1v.4S7.27 4.69 7.3 4.7c.4 0 .8.2 1.1.4c.3.2.5.5.5 1c0 .4-.2.8-.5 1c-.3.3-.7.5-1.1.5zm3.3-.1V3.1l-.9.3l-.1-.4l1.2-.5h.4v5h-.6zm3.4.1c-.7 0-1.2-.3-1.8-.8l.4-.4c.5.4.9.7 1.4.7c.3 0 .6-.1.9-.4c.2-.2.3-.4.3-.7c0-.3-.1-.6-.4-.8c-.2-.2-.5-.3-.8-.3c-.4 0-.7.1-1.1.3c.04.01-.3-.2-.3-.2l.1-2.4h2.8v.5h-2.3s-.12 1.56-.1 1.6c.3-.2.6-.3 1-.3c.4 0 .8.2 1.2.4c.3.3.4.7.4 1.1v.1c0 .4-.1.8-.4 1.1c-.4.3-.8.5-1.3.5z" stroke="none" fill="#000"/></g></svg>