<?xml version="1.0" standalone="no"?><!DOCTYPE svg PUBLIC "-//W3C//DTD SVG 1.1//EN" "http://www.w3.org/Graphics/SVG/1.1/DTD/svg11.dtd"><svg xmlns="http://www.w3.org/2000/svg" version="1.1" width="312px" height="156px" viewBox="0 -3 312 156" style="top:-3px"><desc>Renkli camdan su bardaklar , Kusintha serisi s rahi ve matara/ i elerle ayn zarif yivli g r n me sahiptir. Bardaklar...</desc><defs/><g id="Polygon377642"><path d="m105.8 56.1c-.9 0-1.6-.3-2.2-.9l.4-.3c.5.5 1.1.8 1.8.8c.4 0 .7-.1 1-.3c.2-.2.4-.5.4-.8c0-.2-.1-.3-.3-.5c-.1-.2-.4-.3-.8-.5c-.6-.1-.9-.3-1.1-.5c-.3-.2-.4-.5-.4-.8c0-.4.2-.8.6-1.1c.3-.3.8-.4 1.3-.4c.7 0 1.3.2 1.9.7l-.4.3c-.5-.4-1-.6-1.5-.6c-.4 0-.8.1-1 .3c-.2.2-.4.4-.4.7c0 .2.1.4.3.5c.1.1.4.3.9.5c.5.2.9.4 1.1.6c.2.2.3.5.3.8c0 .4-.2.8-.6 1.1c-.3.3-.8.4-1.3.4zm8.1-3.4c0 .3 0 .6-.1.9h-4.2v.4c0 .5.1.9.5 1.2c.3.3.6.5 1.1.5c.7 0 1.3-.3 1.8-.7l.3.3c-.6.6-1.3.8-2.1.8c-.6 0-1.1-.2-1.5-.6c-.4-.4-.6-.9-.6-1.5c0-.5.1-.9.2-1.3c.2-.4.4-.8.8-1.1c.5-.5 1.2-.8 1.9-.8c.6 0 1.1.2 1.4.5c.4.4.5.9.5 1.4zm-1.9-1.5c-.6 0-1.1.3-1.6.7c-.3.4-.6.8-.7 1.3h3.7v-.4c0-.5-.1-.8-.3-1.1c-.3-.3-.6-.5-1.1-.5zm4.1 6.3l-.5-.3s1.06-1.13 1.1-1.1c-.5-.1-1-.4-1.3-.8c-.3-.3-.5-.8-.5-1.4c0-.8.3-1.6.9-2.2c.6-.6 1.3-.9 2.1-.9c.9 0 1.6.4 2 1.2l-.4.2c-.2-.3-.4-.5-.7-.7c-.2-.2-.5-.3-.9-.3c-.6 0-1.2.3-1.7.8c-.5.5-.8 1.1-.8 1.9c0 .5.2 1 .5 1.3c.4.3.8.5 1.2.5c.6 0 1.2-.3 1.7-.8l.3.3c-.6.6-1.2.9-2 .9c.02.02 0 0 0 0l-1 1.4zm9.2-4.8c0 .3 0 .6-.1.9H121v.4c0 .5.1.9.4 1.2c.3.3.7.5 1.2.5c.6 0 1.2-.3 1.8-.7l.3.3c-.6.6-1.3.8-2.1.8c-.6 0-1.2-.2-1.6-.6c-.4-.4-.6-.9-.6-1.5c0-.5.1-.9.3-1.3c.2-.4.4-.8.7-1.1c.6-.5 1.2-.8 2-.8c.6 0 1.1.2 1.4.5c.3.4.5.9.5 1.4zm-1.9-1.5c-.6 0-1.2.3-1.6.7c-.4.4-.6.8-.7 1.3h3.7v-.4c0-.5-.1-.8-.4-1.1c-.2-.3-.6-.5-1-.5zM126 56l1.4-5.1h.5s-.29.95-.3.9c.3-.3.6-.6.9-.7c.3-.2.6-.3 1-.3c.5 0 .9.1 1.3.4c.3.3.4.7.4 1.2c0 .2 0 .5-.1.7l-.8 2.9h-.5s.83-2.92.8-2.9c.1-.2.1-.4.1-.7c0-.3-.1-.6-.3-.9c-.3-.2-.6-.3-1-.3c-.5 0-.9.2-1.3.6c-.4.3-.7.8-.8 1.3c-.03.02-.8 2.9-.8 2.9h-.5zm11.2-3.3c0 .3 0 .6-.1.9h-4.2v.4c0 .5.1.9.5 1.2c.3.3.6.5 1.1.5c.7 0 1.3-.3 1.8-.7l.3.3c-.6.6-1.3.8-2.1.8c-.6 0-1.1-.2-1.5-.6c-.4-.4-.6-.9-.6-1.5c0-.5.1-.9.2-1.3c.2-.4.4-.8.8-1.1c.5-.5 1.2-.8 1.9-.8c.6 0 1.1.2 1.4.5c.4.4.5.9.5 1.4zm-1.9-1.5c-.6 0-1.1.3-1.6.7c-.3.4-.6.8-.7 1.3h3.7v-.4c0-.5-.1-.8-.3-1.1c-.3-.3-.6-.5-1.1-.5zm2.6 4.8l2-7.3h.5l-1.5 5.4l4-3.2h.7l-2.8 2.3l1.5 2.8h-.6l-1.3-2.5l-1.6 1.3l-.4 1.2h-.5zm5.7 0l2-7.3h.5l-2 7.3h-.5zm7.6-3.3c0 .3-.1.6-.2.9h-4.2v.4c0 .5.2.9.5 1.2c.3.3.7.5 1.2.5c.6 0 1.2-.3 1.8-.7l.2.3c-.6.6-1.3.8-2 .8c-.7 0-1.2-.2-1.6-.6c-.4-.4-.6-.9-.6-1.5c0-.5.1-.9.3-1.3c.1-.4.4-.8.7-1.1c.6-.5 1.2-.8 1.9-.8c.7 0 1.1.2 1.5.5c.3.4.5.9.5 1.4zm-2-1.5c-.6 0-1.1.3-1.5.7c-.4.4-.6.8-.8 1.3h3.7c.1-.1.1-.2.1-.4c0-.5-.1-.8-.4-1.1c-.2-.3-.6-.5-1.1-.5zm2.7 4.8l1.3-5.1h.5s-.35 1.45-.4 1.4c.8-1 1.7-1.5 2.7-1.5c-.03.02-.2.6-.2.6c0 0-.01-.04 0 0c-.6 0-1.2.2-1.8.6c-.5.5-.9 1.1-1.1 1.9c.03.01-.5 2.1-.5 2.1h-.5zm8.1 0s.25-.99.2-1c-.6.8-1.3 1.1-2.1 1.1c-.6 0-1-.2-1.4-.6c-.4-.4-.6-.9-.6-1.5c0-1 .3-1.8.9-2.4c.6-.5 1.2-.8 2-.8c.5 0 .9.1 1.3.4c.3.3.5.6.7 1l.9-3.5h.5l-1.9 7.3h-.5zm-1.8-.3c.6 0 1.2-.3 1.7-.8c.6-.6.8-1.2.8-1.9c0-.5-.1-.9-.5-1.3c-.3-.3-.7-.5-1.2-.5c-.6 0-1.2.3-1.6.7c-.5.5-.8 1.2-.8 2c0 .5.2 1 .4 1.3c.3.3.7.5 1.2.5zm9.3-3c0 .3-.1.6-.2.9h-4.2v.4c0 .5.2.9.5 1.2c.3.3.7.5 1.2.5c.6 0 1.2-.3 1.8-.7l.2.3c-.6.6-1.3.8-2.1.8c-.6 0-1.1-.2-1.5-.6c-.4-.4-.6-.9-.6-1.5c0-.5.1-.9.3-1.3c.1-.4.4-.8.7-1.1c.5-.5 1.2-.8 1.9-.8c.6 0 1.1.2 1.5.5c.3.4.5.9.5 1.4zm-2-1.5c-.6 0-1.1.3-1.5.7c-.4.4-.6.8-.8 1.3h3.7c.1-.1.1-.2.1-.4c0-.5-.2-.8-.4-1.1c-.2-.3-.6-.5-1.1-.5zm7.6 4.9c-.9 0-1.6-.3-2.2-.9l.4-.3c.5.5 1.1.8 1.8.8c.4 0 .7-.1 1-.3c.2-.2.4-.5.4-.8c0-.2-.1-.3-.3-.5c-.1-.2-.4-.3-.8-.5c-.6-.1-.9-.3-1.1-.5c-.3-.2-.4-.5-.4-.8c0-.4.2-.8.6-1.1c.3-.3.8-.4 1.3-.4c.7 0 1.3.2 1.9.7l-.4.3c-.5-.4-1-.6-1.5-.6c-.4 0-.8.1-1 .3c-.2.2-.4.4-.4.7c0 .2.1.4.3.5c.1.1.4.3.9.5c.5.2.9.4 1.1.6c.2.2.3.5.3.8c0 .4-.2.8-.6 1.1c-.3.3-.8.4-1.3.4zm5.1 0c-.5 0-.9-.1-1.2-.4c-.3-.3-.5-.7-.5-1.2c0-.2.1-.5.1-.7c.04-.02.8-2.9.8-2.9h.5s-.79 2.92-.8 2.9c0 .2-.1.4-.1.6c0 .4.1.7.4.9c.2.3.5.4.9.4c.5 0 .9-.2 1.3-.6c.4-.3.7-.8.9-1.3c-.03-.02.7-2.9.7-2.9h.5l-1.3 5.1h-.5s.23-.95.2-1c-.3.4-.5.7-.8.8c-.4.2-.7.3-1.1.3zm4-.1l1.4-5.1h.5s-.26.95-.3.9c.3-.3.6-.6.9-.7c.3-.2.7-.3 1.1-.3c.5 0 .9.1 1.2.4c.3.3.4.7.4 1.2c0 .2 0 .5-.1.7c.03.02-.7 2.9-.7 2.9h-.5s.76-2.92.8-2.9v-.7c0-.3-.1-.6-.3-.9c-.2-.2-.6-.3-1-.3c-.4 0-.9.2-1.3.6c-.4.3-.7.8-.8 1.3l-.8 2.9h-.5zm8.2.1c-.5 0-.9-.1-1.2-.4c-.3-.3-.4-.7-.4-1.2c0-.2 0-.5.1-.7c-.03-.02.7-2.9.7-2.9h.5s-.76 2.92-.8 2.9v.6c0 .4.1.7.3.9c.2.3.6.4 1 .4c.4 0 .8-.2 1.3-.6c.4-.3.7-.8.8-1.3l.8-2.9h.5l-1.4 5.1h-.5s.26-.95.3-1c-.3.4-.6.7-.9.8c-.3.2-.7.3-1.1.3zm4.1-.1l2-7.3h.5l-2 7.3h-.5zm4.5.1c-.5 0-.9-.1-1.2-.4c-.3-.3-.4-.7-.4-1.2c0-.2 0-.5.1-.7c-.01-.02.7-2.9.7-2.9h.5s-.74 2.92-.7 2.9c-.1.2-.1.4-.1.6c0 .4.1.7.3.9c.3.3.6.4 1 .4c.4 0 .9-.2 1.3-.6c.4-.3.7-.8.8-1.3c.02-.02.8-2.9.8-2.9h.5l-1.4 5.1h-.5l.3-1c-.3.4-.6.7-.9.8c-.3.2-.7.3-1.1.3zm4.1-.1l1.3-5.1h.5s-.34 1.45-.3 1.4c.7-1 1.6-1.5 2.6-1.5c-.02.02-.2.6-.2.6c0 0 0-.04 0 0c-.6 0-1.2.2-1.7.6c-.6.5-1 1.1-1.2 1.9c.04.01-.5 2.1-.5 2.1h-.5zm2.9 0l.3-.9h.6l-.2.9h-.7z" stroke="none" fill="#000"/></g><g id="Polygon377641"><path d="m20.3 44l1.9-7h2.6c.6 0 1.1.1 1.5.4c.4.3.6.7.6 1.2c0 .5-.2.9-.5 1.2c-.4.4-.8.6-1.4.7c.9.2 1.4.7 1.4 1.4c0 .6-.3 1.1-.8 1.5c-.5.4-1.2.6-2.1.6h-3.2zm.7-.5s2.5.02 2.5 0c.7 0 1.3-.1 1.7-.4c.4-.3.6-.7.6-1.2c0-.4-.1-.7-.5-.9c-.3-.2-.7-.3-1.3-.3h-2.3l-.7 2.8zm.8-3.3s2.21.03 2.2 0c.7 0 1.3-.1 1.7-.4c.4-.3.6-.7.6-1.2c0-.3-.1-.6-.4-.8c-.3-.2-.7-.3-1.2-.3c.04-.02-2.1 0-2.1 0l-.8 2.7zm9.5 2.9c-.6.7-1.3 1-2.1 1c-.4 0-.8-.1-1.2-.4c-.3-.2-.4-.6-.4-1c0-.5.1-.9.4-1.2c.5-.4 1.1-.7 1.9-.7c.6 0 1.3.1 1.9.3l.1-.1v-.5c0-.4-.1-.7-.4-.9c-.2-.2-.6-.3-1.1-.3c-.5 0-1 .1-1.5.2l-.1-.4c.5-.2 1.1-.3 1.6-.3c.6 0 1.1.2 1.5.4c.3.3.5.7.5 1.2c0 .2 0 .5-.1.7l-.8 2.9h-.5l.3-.9s-.02.02 0 0zm-2 .6c.5 0 1-.2 1.4-.5c.5-.3.8-.7.9-1.2l.1-.5c-.6-.1-1.3-.2-1.9-.2c-.6 0-1 .1-1.4.5c-.2.2-.3.5-.3.8c0 .3.1.6.3.8c.2.2.5.3.9.3zm4 .3l1.3-5.1h.5s-.34 1.45-.3 1.4c.7-1 1.6-1.5 2.6-1.5c-.02.02-.2.6-.2.6c0 0 0-.04 0 0c-.6 0-1.2.2-1.7.6c-.6.5-1 1.1-1.2 1.9c.04.01-.5 2.1-.5 2.1h-.5zm8.1 0s.26-.99.3-1c-.7.8-1.4 1.1-2.2 1.1c-.5 0-1-.2-1.4-.6c-.4-.4-.6-.9-.6-1.5c0-1 .3-1.8.9-2.4c.6-.5 1.2-.8 2-.8c.5 0 .9.1 1.3.4c.3.3.5.6.7 1l.9-3.5h.5L41.9 44h-.5zm-1.8-.3c.6 0 1.2-.3 1.7-.8c.6-.6.8-1.2.8-1.9c0-.5-.1-.9-.4-1.3c-.4-.3-.8-.5-1.3-.5c-.6 0-1.1.3-1.6.7c-.5.5-.8 1.2-.8 2c0 .5.2 1 .5 1.3c.3.3.6.5 1.1.5zm7.8-.6c-.5.7-1.2 1-2 1c-.5 0-.9-.1-1.2-.4c-.3-.2-.5-.6-.5-1c0-.5.2-.9.5-1.2c.4-.4 1-.7 1.8-.7c.7 0 1.3.1 2 .3v-.1c.1-.2.1-.4.1-.5c0-.4-.1-.7-.4-.9c-.3-.2-.6-.3-1.1-.3c-.5 0-1 .1-1.5.2l-.1-.4c.5-.2 1-.3 1.6-.3c.6 0 1.1.2 1.5.4c.3.3.5.7.5 1.2c0 .2-.1.5-.1.7c-.02-.02-.8 2.9-.8 2.9h-.5l.2-.9s.05.02 0 0zm-1.9.6c.5 0 .9-.2 1.4-.5c.4-.3.7-.7.9-1.2l.1-.5c-.7-.1-1.3-.2-1.9-.2c-.6 0-1.1.1-1.4.5c-.2.2-.4.5-.4.8c0 .3.2.6.4.8c.2.2.5.3.9.3zm4 .3l1.9-7.3h.5l-1.4 5.4l3.9-3.2h.7l-2.8 2.3l1.5 2.8h-.6l-1.3-2.5l-1.6 1.3l-.4 1.2h-.4zm5.6 0l2-7.3h.5l-2 7.3h-.5zm6.2-.9c-.6.7-1.3 1-2.1 1c-.5 0-.8-.1-1.2-.4c-.3-.2-.5-.6-.5-1c0-.5.2-.9.5-1.2c.5-.4 1.1-.7 1.8-.7c.7 0 1.3.1 2 .3v-.1c.1-.2.1-.4.1-.5c0-.4-.1-.7-.4-.9c-.3-.2-.6-.3-1.1-.3c-.5 0-1 .1-1.5.2l-.1-.4c.5-.2 1.1-.3 1.6-.3c.6 0 1.1.2 1.5.4c.3.3.5.7.5 1.2c0 .2 0 .5-.1.7c-.01-.02-.8 2.9-.8 2.9h-.5l.3-.9s-.04.02 0 0zm-2 .6c.5 0 1-.2 1.4-.5c.4-.3.7-.7.9-1.2l.1-.5c-.6-.1-1.3-.2-1.9-.2c-.6 0-1.1.1-1.4.5c-.2.2-.3.5-.3.8c0 .3.1.6.3.8c.2.2.5.3.9.3zm4 .3l1.3-5.1h.5s-.36 1.45-.4 1.4c.8-1 1.7-1.5 2.7-1.5c-.04.02-.2.6-.2.6c0 0-.02-.04 0 0c-.6 0-1.2.2-1.8.6c-.5.5-.9 1.1-1.1 1.9c.02.01-.5 2.1-.5 2.1h-.5zm8.6 0c-.03-.01-1.1-5.1-1.1-5.1h.6l.8 4.6l3.1-4.6h.6s-3.63 5.28-3.6 5.3c-.4.5-.8.9-1.1 1.1c-.3.2-.6.3-1 .3c-.4 0-.8-.1-1.1-.3l.3-.4c.2.2.5.3.8.3c.3 0 .6-.1.8-.3c.3-.2.6-.5.9-.9zm8.9-3.3c0 .3 0 .6-.1.9h-4.2v.4c0 .5.1.9.4 1.2c.3.3.7.5 1.2.5c.7 0 1.3-.3 1.8-.7l.3.3c-.6.6-1.3.8-2.1.8c-.6 0-1.1-.2-1.5-.6c-.4-.4-.6-.9-.6-1.5c0-.5 0-.9.2-1.3c.2-.4.4-.8.7-1.1c.6-.5 1.3-.8 2-.8c.6 0 1.1.2 1.4.5c.4.4.5.9.5 1.4zm-1.9-1.5c-.6 0-1.1.3-1.6.7c-.3.4-.6.8-.7 1.3h3.7v-.4c0-.5-.1-.8-.3-1.1c-.3-.3-.6-.5-1.1-.5zm3.4 6.3l-.5-.3s1.12-1.14 1.1-1.1c-.6-.2-1.2-.4-1.6-.9l.3-.3c.6.5 1.2.8 1.9.8c.4 0 .7-.1.9-.3c.3-.2.4-.5.4-.8c0-.2 0-.3-.2-.5c-.2-.2-.5-.3-.9-.5c-.5-.1-.8-.3-1.1-.5c-.2-.2-.3-.5-.3-.8c0-.4.2-.8.5-1.1c.4-.3.8-.4 1.4-.4c.7 0 1.3.2 1.8.7l-.3.3c-.5-.4-1-.6-1.6-.6c-.4 0-.7.1-.9.3c-.3.2-.4.4-.4.7c0 .2.1.4.2.5c.2.1.5.3 1 .5c.5.2.8.4 1 .6c.3.2.4.5.4.8c0 .4-.2.8-.6 1.1c-.4.3-.8.4-1.3.4h-.2l-1 1.4zm4.3-1.5l1.3-5.1h.5L87 44h-.4zm1.6-6.4l.2-.7h.6l-.2.7h-.6zm.9 6.4l1.9-7.3h.5l-2 7.3h-.4zm1.8 1.1l-.1-.3c.5-.1.8-.4.8-.8h-.2l.2-.9h.7s-.23.79-.2.8c-.1.3-.3.6-.4.8c-.2.1-.5.3-.8.4zm5.9-1.1l2-7.3h.4l-1.4 5.4l4-3.2h.7l-2.9 2.3l1.5 2.8h-.5l-1.4-2.5l-1.6 1.3l-.3 1.2h-.5zm10.4-3.3c0 .3 0 .6-.1.9h-4.2v.4c0 .5.1.9.4 1.2c.3.3.7.5 1.2.5c.7 0 1.3-.3 1.8-.7l.3.3c-.6.6-1.3.8-2.1.8c-.6 0-1.1-.2-1.5-.6c-.5-.4-.7-.9-.7-1.5c0-.5.1-.9.3-1.3c.2-.4.4-.8.7-1.1c.6-.5 1.3-.8 2-.8c.6 0 1.1.2 1.4.5c.4.4.5.9.5 1.4zm-1.9-1.5c-.6 0-1.1.3-1.6.7c-.3.4-.6.8-.7 1.3h3.7v-.4c0-.5-.1-.8-.3-1.1c-.3-.3-.6-.5-1.1-.5zm2.6 4.8l2-7.3h.5s-.87 3.15-.9 3.1c.3-.3.6-.6.9-.7c.3-.2.7-.3 1.1-.3c.5 0 .9.1 1.2.4c.3.3.4.7.4 1.2c0 .2 0 .5-.1.7c.02.02-.7 2.9-.7 2.9h-.5s.75-2.92.7-2.9c.1-.2.1-.4.1-.7c0-.3-.1-.6-.3-.9c-.3-.2-.6-.3-1-.3c-.4 0-.9.2-1.3.6c-.4.3-.7.8-.8 1.3l-.8 2.9h-.5zm6.1 0l1.4-5.1h.5s-.39 1.45-.4 1.4c.8-1 1.6-1.5 2.6-1.5c.03.02-.1.6-.1.6c0 0-.05-.04-.1 0c-.6 0-1.2.2-1.7.6c-.5.5-.9 1.1-1.1 1.9l-.6 2.1h-.5zm4.1 0l1.3-5.1h.5l-1.3 5.1h-.5zm1.6-6.4l.2-.7h.6l-.2.7h-.6zm5.6 5.7c-.6.6-1.2.8-1.9.8c-.6 0-1-.1-1.3-.4c-.4-.2-.6-.6-.8-1c.04 0-.3 1.3-.3 1.3h-.5l2-7.3h.4s-.82 3.2-.8 3.2c.6-.7 1.3-1.1 2.1-1.1c.6 0 1.1.2 1.5.6c.4.4.5.9.5 1.5c0 1-.3 1.8-.9 2.4zm-2 .4c.7 0 1.2-.3 1.6-.7c.5-.5.8-1.2.8-2c0-.5-.1-1-.4-1.3c-.3-.3-.7-.5-1.2-.5c-.6 0-1.2.3-1.7.8c-.5.6-.8 1.2-.8 1.9c0 .5.1.9.5 1.3c.3.3.7.5 1.2.5zm7.4-.6c-.5.7-1.2 1-2 1c-.5 0-.9-.1-1.2-.4c-.3-.2-.5-.6-.5-1c0-.5.2-.9.5-1.2c.4-.4 1-.7 1.8-.7c.7 0 1.3.1 2 .3v-.1c.1-.2.1-.4.1-.5c0-.4-.1-.7-.4-.9c-.3-.2-.7-.3-1.2-.3c-.4 0-.9.1-1.4.2l-.1-.4c.5-.2 1-.3 1.6-.3c.6 0 1.1.2 1.4.4c.4.3.6.7.6 1.2c0 .2-.1.5-.1.7c-.03-.02-.8 2.9-.8 2.9h-.5l.2-.9s.04.02 0 0zm-1.9.6c.5 0 .9-.2 1.4-.5c.4-.3.7-.7.9-1.2l.1-.5c-.7-.1-1.3-.2-2-.2c-.5 0-1 .1-1.3.5c-.2.2-.4.5-.4.8c0 .3.1.6.4.8c.2.2.5.3.9.3zm3.9.3l1.4-5.1h.5s-.38 1.45-.4 1.4c.8-1 1.6-1.5 2.6-1.5c.04.02-.1.6-.1.6c0 0-.04-.04 0 0c-.7 0-1.2.2-1.8.6c-.5.5-.9 1.1-1.1 1.9l-.6 2.1h-.5zm9.8 1.1l-.3.3c-1.2-1-1.8-2.2-1.8-3.6c0-1.3.5-2.4 1.5-3.4c.7-.6 1.5-1.2 2.5-1.6l.2.4c-.9.4-1.7.9-2.3 1.4c-.9.9-1.3 2-1.3 3.2c0 .7.1 1.3.4 1.8c.2.5.6 1 1.1 1.5zm5.2-2c-.5.7-1.2 1-2 1c-.5 0-.9-.1-1.2-.4c-.4-.2-.5-.6-.5-1c0-.5.1-.9.5-1.2c.4-.4 1-.7 1.8-.7c.6 0 1.3.1 1.9.3l.1-.1c0-.2.1-.4.1-.5c0-.4-.2-.7-.4-.9c-.3-.2-.7-.3-1.2-.3c-.5 0-.9.1-1.5.2l-.1-.4c.6-.2 1.1-.3 1.7-.3c.6 0 1.1.2 1.4.4c.4.3.5.7.5 1.2c0 .2 0 .5-.1.7c.04-.02-.7 2.9-.7 2.9h-.5l.2-.9s.01.02 0 0zm-2 .6c.5 0 1-.2 1.5-.5c.4-.3.7-.7.8-1.2l.1-.5c-.6-.1-1.2-.2-1.9-.2c-.6 0-1 .1-1.3.5c-.3.2-.4.5-.4.8c0 .3.1.6.3.8c.3.2.6.3.9.3zm4 .3l1.4-5.1h.5s-.28.95-.3.9c.3-.3.6-.6.9-.8c.2-.1.6-.2.9-.2c.5 0 .8.1 1.1.3c.2.3.4.6.4.9c.5-.8 1.3-1.2 2.2-1.2c.4 0 .8.1 1.1.4c.3.3.5.7.5 1.2c0 .2-.1.4-.2.7c.04.02-.7 2.9-.7 2.9h-.5s.77-2.92.8-2.9v-.7c0-.3-.1-.6-.3-.9c-.2-.2-.5-.3-.9-.3c-.4 0-.8.2-1.2.6c-.4.3-.7.8-.8 1.3c.01.02-.8 2.9-.8 2.9h-.4s.74-2.92.7-2.9c.1-.2.1-.4.1-.7c0-.3-.1-.6-.3-.9c-.2-.2-.5-.3-.9-.3c-.4 0-.8.2-1.2.6c-.4.3-.7.8-.8 1.3c-.02.02-.8 2.9-.8 2.9h-.5zm14.3-.7c-.5.6-1.1.8-1.9.8c-.5 0-.9-.1-1.3-.4c-.3-.2-.6-.6-.7-1l-.4 1.3h-.4l1.9-7.3h.5s-.86 3.2-.9 3.2c.7-.7 1.4-1.1 2.2-1.1c.5 0 1 .2 1.4.6c.4.4.6.9.6 1.5c0 1-.3 1.8-1 2.4zm-1.9.4c.6 0 1.1-.3 1.6-.7c.5-.5.8-1.2.8-2c0-.5-.2-1-.5-1.3c-.3-.3-.6-.5-1.1-.5c-.6 0-1.2.3-1.7.8c-.6.6-.9 1.2-.9 1.9c0 .5.2.9.5 1.3c.4.3.8.5 1.3.5zm8.8-3c0 .3 0 .6-.1.9h-4.2v.4c0 .5.1.9.4 1.2c.3.3.7.5 1.2.5c.7 0 1.3-.3 1.8-.7l.3.3c-.6.6-1.3.8-2.1.8c-.6 0-1.1-.2-1.5-.6c-.5-.4-.7-.9-.7-1.5c0-.5.1-.9.3-1.3c.2-.4.4-.8.7-1.1c.6-.5 1.3-.8 2-.8c.6 0 1.1.2 1.4.5c.4.4.5.9.5 1.4zm-1.9-1.5c-.6 0-1.1.3-1.6.7c-.3.4-.6.8-.7 1.3h3.7v-.4c0-.5-.1-.8-.3-1.1c-.3-.3-.6-.5-1.1-.5zm2.6 4.8l1.4-5.1h.5s-.4 1.45-.4 1.4c.8-1 1.6-1.5 2.6-1.5c.02.02-.1.6-.1.6c0 0-.06-.04-.1 0c-.6 0-1.2.2-1.7.6c-.5.5-.9 1.1-1.1 1.9c-.02.01-.6 2.1-.6 2.1h-.5zm5.2-6.9l.3-.3c1.2 1.1 1.7 2.3 1.7 3.6c0 1.3-.5 2.4-1.4 3.4c-.7.6-1.5 1.2-2.5 1.6l-.2-.4c.9-.4 1.7-.9 2.3-1.4c.9-.9 1.3-2 1.3-3.2c0-.7-.1-1.3-.4-1.8c-.2-.5-.6-1-1.1-1.5zm2.5 8l-.1-.3c.5-.1.8-.4.8-.8h-.2l.2-.9h.7s-.23.79-.2.8c-.1.3-.3.6-.4.8c-.2.1-.5.3-.8.4zm10.7-1.8c-.6.6-1.2.8-1.9.8c-.6 0-1-.1-1.3-.4c-.4-.2-.6-.6-.8-1c.04 0-.7 2.9-.7 2.9h-.5l1.8-6.7h.4s-.22 1-.2 1c.6-.7 1.3-1.1 2.1-1.1c.6 0 1.1.2 1.5.6c.4.4.5.9.5 1.5c0 1-.3 1.8-.9 2.4zm-2 .4c.7 0 1.2-.3 1.6-.7c.5-.5.8-1.2.8-2c0-.5-.1-1-.4-1.3c-.3-.3-.7-.5-1.2-.5c-.6 0-1.2.3-1.7.8c-.5.6-.8 1.2-.8 1.9c0 .5.1.9.5 1.3c.3.3.7.5 1.2.5zm8.9-3c0 .3-.1.6-.2.9h-4.2v.4c0 .5.2.9.5 1.2c.3.3.7.5 1.2.5c.6 0 1.2-.3 1.8-.7l.2.3c-.6.6-1.3.8-2.1.8c-.6 0-1.1-.2-1.5-.6c-.4-.4-.6-.9-.6-1.5c0-.5.1-.9.3-1.3c.1-.4.4-.8.7-1.1c.5-.5 1.2-.8 1.9-.8c.6 0 1.1.2 1.5.5c.3.4.5.9.5 1.4zm-2-1.5c-.6 0-1.1.3-1.5.7c-.4.4-.6.8-.8 1.3h3.7c.1-.1.1-.2.1-.4c0-.5-.2-.8-.4-1.1c-.2-.3-.6-.5-1.1-.5zm2.7 4.8l1.3-5.1h.5s-.23.95-.2.9l.8-.8c.3-.1.6-.2 1-.2c.4 0 .8.1 1 .3c.3.3.4.6.5.9c.5-.8 1.2-1.2 2.1-1.2c.5 0 .9.1 1.2.4c.3.3.4.7.4 1.2c0 .2 0 .4-.1.7l-.8 2.9h-.5s.82-2.92.8-2.9c.1-.2.1-.4.1-.7c0-.3-.1-.6-.3-.9c-.2-.2-.5-.3-.9-.3c-.4 0-.8.2-1.2.6c-.4.3-.7.8-.8 1.3c-.04.02-.8 2.9-.8 2.9h-.5s.79-2.92.8-2.9c0-.2.1-.4.1-.7c0-.3-.1-.6-.4-.9c-.2-.2-.5-.3-.8-.3c-.5 0-.9.2-1.3.6c-.4.3-.6.8-.8 1.3c.03.02-.7 2.9-.7 2.9h-.5zm14.3-.7c-.6.6-1.2.8-1.9.8c-.6 0-1-.1-1.3-.4c-.4-.2-.6-.6-.8-1c.04 0-.3 1.3-.3 1.3h-.5l2-7.3h.5s-.92 3.2-.9 3.2c.6-.7 1.3-1.1 2.1-1.1c.6 0 1.1.2 1.5.6c.4.4.6.9.6 1.5c0 1-.4 1.8-1 2.4zm-1.9.4c.6 0 1.1-.3 1.5-.7c.6-.5.8-1.2.8-2c0-.5-.1-1-.4-1.3c-.3-.3-.7-.5-1.2-.5c-.6 0-1.2.3-1.7.8c-.5.6-.8 1.2-.8 1.9c0 .5.2.9.5 1.3c.3.3.7.5 1.3.5zm8.8-3c0 .3-.1.6-.2.9h-4.2v.4c0 .5.2.9.5 1.2c.3.3.7.5 1.2.5c.6 0 1.2-.3 1.8-.7l.2.3c-.6.6-1.3.8-2 .8c-.7 0-1.2-.2-1.6-.6c-.4-.4-.6-.9-.6-1.5c0-.5.1-.9.3-1.3c.1-.4.4-.8.7-1.1c.6-.5 1.2-.8 1.9-.8c.7 0 1.1.2 1.5.5c.3.4.5.9.5 1.4zm-2-1.5c-.6 0-1.1.3-1.5.7c-.4.4-.6.8-.8 1.3h3.7c.1-.1.1-.2.1-.4c0-.5-.1-.8-.4-1.1c-.2-.3-.6-.5-1.1-.5zm2 5.9l-.1-.3c.5-.1.8-.4.8-.8h-.2l.2-.9h.7s-.25.79-.2.8c-.2.3-.3.6-.5.8c-.1.1-.4.3-.7.4zm5.9-1.1l1.3-5.1h.5l-.2.9l.8-.8c.3-.1.6-.2 1-.2c.4 0 .8.1 1 .3c.3.3.4.6.5.9c.5-.8 1.2-1.2 2.1-1.2c.5 0 .9.1 1.2.4c.3.3.4.7.4 1.2c0 .2 0 .4-.1.7l-.8 2.9h-.4s.73-2.92.7-2.9c.1-.2.1-.4.1-.7c0-.3-.1-.6-.3-.9c-.2-.2-.5-.3-.9-.3c-.4 0-.8.2-1.2.6c-.4.3-.7.8-.8 1.3c-.03.02-.8 2.9-.8 2.9h-.5l.8-2.9c.1-.2.1-.4.1-.7c0-.3-.1-.6-.3-.9c-.3-.2-.6-.3-.9-.3c-.4 0-.8.2-1.2.6c-.4.3-.7.8-.9 1.3c.04.02-.7 2.9-.7 2.9h-.5zm13.2-.9c-.5.7-1.2 1-2 1c-.5 0-.9-.1-1.2-.4c-.3-.2-.5-.6-.5-1c0-.5.2-.9.5-1.2c.4-.4 1-.7 1.8-.7c.7 0 1.3.1 2 .3v-.1c.1-.2.1-.4.1-.5c0-.4-.2-.7-.4-.9c-.3-.2-.7-.3-1.2-.3c-.4 0-.9.1-1.4.2l-.1-.4c.5-.2 1-.3 1.6-.3c.6 0 1.1.2 1.4.4c.4.3.6.7.6 1.2c0 .2-.1.5-.1.7c-.05-.02-.8 2.9-.8 2.9h-.5l.2-.9s.02.02 0 0zm-1.9.6c.5 0 .9-.2 1.4-.5c.4-.3.7-.7.8-1.2l.2-.5c-.7-.1-1.3-.2-2-.2c-.5 0-1 .1-1.3.5c-.3.2-.4.5-.4.8c0 .3.1.6.4.8c.2.2.5.3.9.3zm5.2.3l-.9-5.1h.5l.7 4.5l3.1-4.5h.6l-3.6 5.1h-.4zm4.1 0l1.3-5.1h.5l-1.3 5.1h-.5zm1.6-6.4l.2-.7h.6l-.1.7h-.7zm5.3 6.4l-.9-5.1h.6l.7 4.5l3.1-4.5h.6l-3.6 5.1h-.5zm9-3.3c0 .3 0 .6-.1.9h-4.2v.4c0 .5.1.9.4 1.2c.3.3.7.5 1.2.5c.6 0 1.2-.3 1.8-.7l.3.3c-.6.6-1.3.8-2.1.8c-.6 0-1.2-.2-1.6-.6c-.4-.4-.6-.9-.6-1.5c0-.5.1-.9.3-1.3c.2-.4.4-.8.7-1.1c.6-.5 1.2-.8 2-.8c.6 0 1.1.2 1.4.5c.3.4.5.9.5 1.4zm-1.9-1.5c-.6 0-1.2.3-1.6.7c-.4.4-.6.8-.7 1.3h3.7v-.4c0-.5-.1-.8-.4-1.1c-.2-.3-.6-.5-1-.5zm6.4 6.3l-.5-.3s1.08-1.14 1.1-1.1c-.7-.2-1.2-.4-1.6-.9l.3-.3c.5.5 1.2.8 1.9.8c.3 0 .6-.1.9-.3c.3-.2.4-.5.4-.8c0-.2-.1-.3-.2-.5c-.2-.2-.5-.3-.9-.5c-.5-.1-.9-.3-1.1-.5c-.2-.2-.3-.5-.3-.8c0-.4.1-.8.5-1.1c.3-.3.8-.4 1.4-.4c.6 0 1.3.2 1.8.7l-.3.3c-.5-.4-1-.6-1.6-.6c-.4 0-.7.1-1 .3c-.2.2-.3.4-.3.7c0 .2.1.4.2.5c.2.1.5.3.9.5c.5.2.9.4 1.1.6c.2.2.3.5.3.8c0 .4-.2.8-.5 1.1c-.4.3-.8.4-1.4.4h-.1l-1 1.4zm9.3-4.8c0 .3-.1.6-.2.9h-4.1c-.1.1-.1.2-.1.4c0 .5.2.9.5 1.2c.3.3.7.5 1.2.5c.6 0 1.2-.3 1.8-.7l.3.3c-.7.6-1.4.8-2.1.8c-.7 0-1.2-.2-1.6-.6c-.4-.4-.6-.9-.6-1.5c0-.5.1-.9.3-1.3c.1-.4.4-.8.7-1.1c.6-.5 1.2-.8 2-.8c.6 0 1 .2 1.4.5c.3.4.5.9.5 1.4zm-2-1.5c-.5 0-1.1.3-1.5.7c-.4.4-.6.8-.8 1.3h3.7c.1-.1.1-.2.1-.4c0-.5-.1-.8-.4-1.1c-.2-.3-.6-.5-1.1-.5zm3 4.8l1.2-4.7h-.7l.1-.4h.8s.15-.74.2-.7c.1-.5.3-.8.5-1.1c.3-.3.6-.4 1.1-.4c.4 0 .7.1 1 .2l-.1.5c-.4-.2-.7-.3-.9-.3c-.6 0-1 .4-1.2 1.2l-.2.6h1.9l-.1.4h-1.9l-1.2 4.7h-.5zm3.6 0l1.3-4.7h-.8l.1-.4h.8s.17-.74.2-.7c.1-.5.3-.8.5-1.1c.3-.3.7-.4 1.1-.4c.4 0 .7.1 1 .2l-.1.5c-.3-.2-.6-.3-.9-.3c-.6 0-1 .4-1.2 1.2c.03-.03-.1.6-.1.6h1.8l-.1.4h-1.9l-1.2 4.7h-.5zm6.9-.9c-.6.7-1.3 1-2.1 1c-.4 0-.8-.1-1.2-.4c-.3-.2-.4-.6-.4-1c0-.5.1-.9.4-1.2c.5-.4 1.1-.7 1.9-.7c.6 0 1.3.1 1.9.3l.1-.1v-.5c0-.4-.1-.7-.4-.9c-.2-.2-.6-.3-1.1-.3c-.5 0-1 .1-1.5.2l-.1-.4c.5-.2 1.1-.3 1.6-.3c.6 0 1.1.2 1.5.4c.3.3.5.7.5 1.2c0 .2 0 .5-.1.7l-.8 2.9h-.5l.3-.9s-.03.02 0 0zm-2 .6c.5 0 1-.2 1.4-.5c.5-.3.8-.7.9-1.2l.1-.5c-.6-.1-1.3-.2-1.9-.2c-.6 0-1 .1-1.4.5c-.2.2-.3.5-.3.8c0 .3.1.6.3.8c.2.2.5.3.9.3zm4.3.3l1.2-4.7h-.7l.1-.4h.8s.15-.74.2-.7c.1-.5.3-.8.5-1.1c.3-.3.6-.4 1.1-.4c.4 0 .7.1 1 .2l-.1.5c-.4-.2-.7-.3-.9-.3c-.6 0-1 .4-1.2 1.2l-.2.6h1.9l-.1.4h-1.9l-1.2 4.7h-.5z" stroke="none" fill="#000"/></g><g id="Polygon377640"><path d="m55.1 21.5l-.7-.3l.7-1.1c-.6-.1-1.2-.4-1.7-.8l.4-.5c.6.4 1.2.6 1.8.6c.3 0 .6 0 .8-.2c.2-.1.3-.3.3-.6c0-.2-.1-.4-.3-.5c-.3-.2-.6-.3-1-.4c-.2-.1-.3-.1-.4-.1c-.1-.1-.2-.1-.4-.2c-.2 0-.3-.1-.4-.2c-.1 0-.1-.1-.2-.2l-.3-.3v-.5c0-.4.1-.8.5-1.1c.3-.2.7-.4 1.2-.4c.7 0 1.3.2 1.9.6l-.3.6c-.6-.3-1.1-.5-1.6-.5c-.3 0-.5.1-.7.2c-.2.1-.3.3-.3.5v.1c0 .1 0 .1.1.2c.1.1.1.2.2.2c0 .1.2.1.3.2c.1 0 .3.1.3.1c.1 0 .3.1.5.1c.1.1.3.2.4.2c.2.1.3.1.5.2c.1.1.3.2.4.3c.1.1.1.2.2.3c.1.2.1.3.1.5c0 .5-.1.9-.4 1.1c-.3.3-.7.4-1.2.5c-.03-.01-.7 1.4-.7 1.4zm3.8-7.8v-.9h.8v.9h-.8zm0 6.3v-5.2h.8v5.2h-.8zm3.8 1.5l-.7-.3s.74-1.13.7-1.1c-.6-.1-1.2-.4-1.7-.8l.4-.5c.6.4 1.2.6 1.8.6c.3 0 .6 0 .8-.2c.2-.1.3-.3.3-.6c0-.2-.1-.4-.3-.5c-.3-.2-.6-.3-1-.4c-.2-.1-.3-.1-.4-.1c-.1-.1-.2-.1-.4-.2c-.2 0-.3-.1-.4-.2l-.2-.2c-.1-.1-.2-.2-.2-.3c-.1-.2-.1-.3-.1-.5c0-.4.2-.8.5-1.1c.3-.2.7-.4 1.3-.4c.6 0 1.2.2 1.8.6l-.3.6c-.6-.3-1.1-.5-1.6-.5c-.3 0-.5.1-.7.2c-.2.1-.3.3-.3.5v.1c0 .1.1.1.1.2c.1.1.1.2.2.2c.1.1.2.1.3.2c.2 0 .3.1.4.1c0 0 .2.1.4.1c.2.1.3.2.4.2c.2.1.3.1.5.2c.2.1.3.2.4.3c.1.1.2.2.2.3c.1.2.1.3.1.5c0 .5-.1.9-.4 1.1c-.3.3-.7.4-1.2.5c-.02-.01-.7 1.4-.7 1.4zm8.1-2.4c-.5.7-1.2 1-2.1 1c-.7 0-1.3-.2-1.8-.7c-.5-.5-.8-1.2-.8-2c0-.7.3-1.4.7-1.9c.5-.5 1.1-.8 1.8-.8c.8 0 1.3.3 1.8.8c.4.5.6 1.2.6 1.9v.3h-4.1c.1.5.3 1 .6 1.3c.4.3.8.4 1.2.4c.6 0 1.2-.2 1.7-.7c-.04.02.4.4.4.4c0 0 .04.05 0 0zm-3.9-2h3.3c0-.5-.2-.9-.4-1.2c-.3-.4-.7-.5-1.2-.5c-.5 0-.8.1-1.1.5c-.4.3-.5.7-.6 1.2zm5.5 2.9v-7.3h.8v7.3h-.8zm7-.9c-.6.7-1.3 1-2.1 1c-.8 0-1.4-.2-1.9-.7c-.5-.5-.7-1.2-.7-2c0-.7.2-1.4.7-1.9c.5-.5 1-.8 1.8-.8c.7 0 1.3.3 1.7.8c.5.5.7 1.2.7 1.9v.3h-4.1c0 .5.2 1 .6 1.3c.3.3.7.4 1.2.4c.6 0 1.1-.2 1.6-.7l.5.4s-.01.05 0 0zm-3.9-2h3.3c0-.5-.2-.9-.5-1.2c-.3-.4-.7-.5-1.2-.5c-.4 0-.8.1-1.1.5c-.3.3-.5.7-.5 1.2zm5.4 2.9v-5.2h.8v1.4c.2-.5.5-.8.8-1.1c.4-.2.8-.4 1.3-.4v.9s-.06-.03-.1 0c-.6 0-1 .2-1.4.6c-.4.4-.6 1-.6 1.7v2.1h-.8zm4.1 0v-7.3h.8v7.3h-.8zm7-.9c-.6.7-1.3 1-2.1 1c-.8 0-1.4-.2-1.9-.7c-.5-.5-.7-1.2-.7-2c0-.7.2-1.4.7-1.9c.5-.5 1-.8 1.8-.8c.7 0 1.3.3 1.7.8c.5.5.7 1.2.7 1.9v.3h-4.1c0 .5.2 1 .6 1.3c.3.3.7.4 1.2.4c.6 0 1.1-.2 1.6-.7l.5.4s-.01.05 0 0zm-3.9-2h3.3c0-.5-.2-.9-.5-1.2c-.3-.4-.7-.5-1.2-.5c-.4 0-.8.1-1.1.5c-.3.3-.5.7-.5 1.2zm11.8 2.1c-.4.6-1 .9-1.8.9c-.6 0-1-.1-1.4-.4c-.4-.3-.6-.7-.6-1.2c0-.5.2-1 .6-1.3c.4-.2 1-.4 1.6-.4c.6 0 1.1.1 1.6.2v-.2c0-.4-.1-.8-.4-1c-.2-.2-.6-.4-1.1-.4c-.5 0-1.1.2-1.6.4l-.2-.6c.6-.3 1.2-.4 1.9-.4c.7 0 1.3.1 1.6.5c.4.4.6.9.6 1.5c-.03.04 0 3.2 0 3.2h-.8v-.8s.03.02 0 0zm-1.7.3c.5 0 .9-.1 1.2-.4c.4-.3.5-.6.5-1v-.5c-.5-.1-1-.2-1.5-.2c-.5 0-.8.1-1.1.3c-.3.2-.4.4-.4.7v.1c0 .3.1.5.4.7c.2.2.6.3.9.3zm6.1-.4l1.7-4.3h.8s-2.17 5.37-2.2 5.4c-.2.5-.4.9-.7 1.1c-.3.2-.6.3-1 .3c-.4 0-.7-.1-1.1-.2l.3-.6c.2.1.5.1.8.1c.2 0 .4 0 .6-.2c.1-.1.3-.4.4-.7c.04-.02-2.3-5.2-2.3-5.2h.8l1.9 4.3zm3.7.9v-5.2h.8s-.01.93 0 .9c.4-.6 1-1 1.8-1c.6 0 1.1.2 1.4.6c.4.4.5.9.5 1.5c.04-.01 0 3.2 0 3.2h-.7s-.03-3.02 0-3c0-.5-.2-.9-.4-1.2c-.3-.2-.6-.4-1.1-.4c-.4 0-.8.2-1.1.5c-.3.3-.4.7-.4 1.1v3h-.8zm6.3 0v-5.2h.7v5.2h-.7zm5.2 0v-.5l3.4-4h-3.3v-.7h4.4v.5l-3.4 4h3.4v.7h-4.5zm9.3-.8c-.5.6-1.1.9-1.9.9c-.5 0-1-.1-1.3-.4c-.4-.3-.6-.7-.6-1.2c0-.5.2-1 .6-1.3c.4-.2.9-.4 1.6-.4c.5 0 1 .1 1.6.2v-.2c0-.4-.2-.8-.4-1c-.3-.2-.7-.4-1.2-.4c-.5 0-1 .2-1.5.4l-.3-.6c.6-.3 1.3-.4 1.9-.4c.8 0 1.3.1 1.7.5c.3.4.5.9.5 1.5c.02.04 0 3.2 0 3.2h-.7v-.8s-.02.02 0 0zm-1.7.3c.4 0 .9-.1 1.2-.4c.3-.3.5-.6.5-1v-.5c-.5-.1-1-.2-1.5-.2c-.5 0-.9.1-1.1.3c-.3.2-.4.4-.4.7v.1c0 .3.1.5.3.7c.3.2.6.3 1 .3zm4.1.5v-5.2h.7s.03 1.38 0 1.4c.2-.5.5-.8.9-1.1c.3-.2.8-.4 1.2-.4c.04.04 0 .9 0 .9c0 0-.02-.03 0 0c-.6 0-1.1.2-1.5.6c-.4.4-.6 1-.6 1.7c.03.04 0 2.1 0 2.1h-.7zm4-6.3v-.9h.9v.9h-.9zm.1 6.3v-5.2h.8v5.2h-.8zm2.8 0v-4.5h-.7v-.7h.7s.03-.41 0-.4c0-.6.2-1 .5-1.3c.2-.3.6-.4 1.1-.4c.3 0 .6 0 .8.1v.7c-.3-.1-.5-.2-.7-.2c-.6 0-.9.4-.9 1.1v.4h1.6v.7h-1.6v4.5h-.8zm8.6-.9l1.7-4.3h.8s-2.17 5.37-2.2 5.4c-.2.5-.4.9-.7 1.1c-.3.2-.6.3-1 .3c-.4 0-.7-.1-1.1-.2l.3-.6c.2.1.5.1.8.1c.2 0 .4 0 .6-.2c.1-.1.3-.4.4-.7c.04-.02-2.3-5.2-2.3-5.2h.8l1.9 4.3zm3.7-5.4v-.9h.9v.9h-.9zm.1 6.3v-5.2h.8v5.2h-.8zm4.3 0l-2.3-5.2h.9l1.7 4.3l1.8-4.3h.8l-2.2 5.2h-.7zm4.2 0v-7.3h.8v7.3h-.8zm2.6-6.3v-.9h.9v.9h-.9zm0 6.3v-5.2h.8v5.2h-.8zm9.8.9c-.4.5-1.1.7-1.9.7c-.9 0-1.7-.2-2.4-.7l.4-.6c.6.4 1.2.7 2 .7c.5 0 1-.2 1.3-.5c.4-.3.5-.8.5-1.4v-.6c-.5.7-1.2 1.1-2 1.1c-.6 0-1.2-.2-1.7-.7c-.5-.4-.7-1-.7-1.7c0-.8.2-1.4.7-1.8c.5-.5 1.1-.7 1.7-.7c.8 0 1.5.4 2 1.1c.03-.04 0-1 0-1h.8v4.3c0 .8-.2 1.4-.7 1.8zm-1.9-2c.5 0 .9-.1 1.3-.5c.4-.3.6-.7.6-1.2v-.1c0-.5-.2-.9-.6-1.2c-.4-.3-.8-.5-1.3-.5c-.5 0-1 .2-1.3.5c-.4.3-.5.7-.5 1.2v.1c0 .5.1.9.5 1.2c.3.4.8.5 1.3.5zm7.1-4.9v-.9h.9v.9h-.9zm-1.7 0v-.9h.9v.9h-.9zm1.3 6.1c-.8 0-1.4-.2-1.9-.8c-.5-.5-.8-1.1-.8-1.9c0-.7.3-1.4.8-1.9c.5-.5 1.1-.8 1.9-.8c.8 0 1.4.3 1.9.8c.5.5.8 1.2.8 1.9c0 .8-.3 1.4-.8 1.9c-.5.6-1.1.8-1.9.8zm0-.7c.5 0 1-.2 1.4-.6c.3-.3.5-.8.5-1.4c0-.5-.2-1-.6-1.4c-.3-.4-.8-.6-1.3-.6c-.6 0-1 .2-1.4.6c-.3.4-.5.8-.5 1.4c0 .6.2 1.1.5 1.4c.4.4.9.6 1.4.6zm4.1.6v-5.2h.7s.05 1.38 0 1.4c.2-.5.5-.8.9-1.1c.4-.2.8-.4 1.3-.4c-.04.04 0 .9 0 .9c0 0-.1-.03-.1 0c-.6 0-1.1.2-1.5.6c-.4.4-.6 1-.6 1.7c.05.04 0 2.1 0 2.1h-.7zm6.6-6v-.9h.9v.9h-.9zm-1.7 0v-.9h.9v.9h-.9zm2.8 5.1c-.4.7-1 1-1.8 1c-.6 0-1.1-.2-1.4-.6c-.4-.3-.6-.8-.6-1.5c.05.04 0-3.2 0-3.2h.8s.02 3.05 0 3c0 .5.1.9.4 1.2c.2.3.6.4 1 .4c.5 0 .9-.1 1.2-.4c.3-.3.4-.7.4-1.2v-3h.8v5.2h-.8v-.9zm2.5.9v-5.2h.8s-.04.93 0 .9c.4-.6 1-1 1.7-1c.6 0 1.1.2 1.5.6c.3.4.5.9.5 1.5v3.2h-.8s.04-3.02 0-3c0-.5-.1-.9-.3-1.2c-.3-.2-.6-.4-1.1-.4c-.4 0-.8.2-1.1.5c-.3.3-.4.7-.4 1.1c-.04.04 0 3 0 3h-.8zm8.7-6v-.9h.9v.9h-.9zm-1.7 0v-.9h.9v.9h-.9zm2.8 5.1c-.4.7-1 1-1.8 1c-.6 0-1-.2-1.4-.6c-.4-.3-.5-.8-.5-1.5c-.03.04 0-3.2 0-3.2h.7s.04 3.05 0 3c0 .5.2.9.4 1.2c.3.3.6.4 1.1.4c.4 0 .8-.1 1.1-.4c.3-.3.4-.7.4-1.2c.02-.01 0-3 0-3h.8v5.2h-.8v-.9s.02 0 0 0zm2.5.9v-5.2h.8s-.02.9 0 .9c.2-.3.4-.5.7-.7c.2-.2.5-.3.9-.3c.8 0 1.4.4 1.7 1c.5-.6 1.1-1 1.8-1c.6 0 1.1.2 1.4.6c.4.3.5.9.5 1.5c.05 0 0 3.2 0 3.2h-.7s-.02-3.02 0-3c0-.5-.1-.9-.4-1.2c-.2-.2-.5-.4-1-.4c-.4 0-.7.2-1 .4c-.3.3-.4.7-.4 1.2v3h-.8s.05-3.04 0-3c0-.5-.1-.9-.3-1.2c-.2-.2-.6-.4-1-.4c-.4 0-.7.2-1 .5c-.3.3-.4.7-.4 1.1c-.02.05 0 3 0 3h-.8zm13.9-.9c-.6.7-1.3 1-2.2 1c-.7 0-1.3-.2-1.8-.7c-.5-.5-.7-1.2-.7-2c0-.7.2-1.4.7-1.9c.4-.5 1-.8 1.7-.8c.8 0 1.4.3 1.8.8c.4.5.7 1.2.7 1.9c0 .2 0 .2-.1.3h-4.1c.1.5.3 1 .6 1.3c.4.3.8.4 1.3.4c.6 0 1.1-.2 1.6-.7c0 .02.5.4.5.4c0 0-.02.05 0 0zm-4-2h3.4c-.1-.5-.2-.9-.5-1.2c-.3-.4-.7-.5-1.2-.5c-.4 0-.8.1-1.1.5c-.3.3-.5.7-.6 1.2zm10.2 3c-.8 0-1.5-.3-2.1-.8l.4-.5c.5.4 1.1.6 1.8.6c.3 0 .5 0 .7-.2c.2-.1.3-.3.3-.6c0-.2-.1-.4-.3-.5c-.2-.2-.5-.3-1-.4c-.1-.1-.3-.1-.4-.1c-.1-.1-.2-.1-.4-.2c-.1 0-.2-.1-.3-.2c-.1 0-.2-.1-.3-.2c-.1-.1-.2-.2-.2-.3c0-.2-.1-.3-.1-.5c0-.4.2-.8.5-1.1c.4-.2.8-.4 1.3-.4c.7 0 1.3.2 1.8.6l-.3.6c-.5-.3-1-.5-1.5-.5c-.3 0-.6.1-.8.2c-.1.1-.2.3-.2.5v.3l.2.2c.1.1.2.1.3.2c.2 0 .3.1.4.1c.1 0 .2.1.4.1c.2.1.4.2.5.2c.1.1.3.1.4.2c.2.1.3.2.4.3l.3.3c0 .2.1.3.1.5c0 .5-.2.9-.6 1.2c-.3.3-.7.4-1.3.4zm6.7-.9c-.5.6-1.1.9-1.9.9c-.5 0-.9-.1-1.3-.4c-.4-.3-.6-.7-.6-1.2c0-.5.2-1 .6-1.3c.4-.2.9-.4 1.6-.4c.5 0 1.1.1 1.6.2v-.2c0-.4-.1-.8-.4-1c-.3-.2-.6-.4-1.1-.4c-.6 0-1.1.2-1.6.4l-.2-.6c.6-.3 1.2-.4 1.8-.4c.8 0 1.3.1 1.7.5c.4.4.5.9.5 1.5c.04.04 0 3.2 0 3.2h-.7v-.8s0 .02 0 0zm-1.7.3c.5 0 .9-.1 1.2-.4c.3-.3.5-.6.5-1v-.5c-.5-.1-1-.2-1.5-.2c-.5 0-.9.1-1.1.3c-.3.2-.4.4-.4.7v.1c0 .3.1.5.4.7c.2.2.5.3.9.3zm4.1.5v-7.3h.7s.05 3.03 0 3c.5-.6 1.1-1 1.8-1c.6 0 1.1.2 1.5.6c.3.4.5.9.5 1.5v3.2h-.8s.03-3.02 0-3c0-.5-.1-.9-.3-1.2c-.3-.2-.6-.4-1.1-.4c-.4 0-.8.2-1.1.5c-.3.3-.5.7-.5 1.1c.05.04 0 3 0 3h-.7zm6.2-6.3v-.9h.8v.9h-.8zm0 6.3v-5.2h.8v5.2h-.8zm2.6 1.6v-6.8h.7s.04 1.07 0 1.1c.6-.8 1.2-1.2 2-1.2c.7 0 1.3.3 1.7.7c.5.5.8 1.2.8 2c0 .8-.3 1.5-.8 2c-.4.5-1 .7-1.7.7c-.8 0-1.5-.4-2-1.1c.04.01 0 2.6 0 2.6h-.7zm2.6-2.2c.5 0 .9-.2 1.3-.5c.3-.4.5-.9.5-1.5c0-.6-.2-1.1-.5-1.4c-.4-.4-.8-.6-1.3-.6c-.5 0-.9.2-1.3.6c-.4.4-.6.8-.6 1.4c0 .6.2 1.1.6 1.5c.3.3.8.5 1.3.5zm6.7.5c-.3.1-.6.2-1 .2c-.4 0-.8-.1-1-.4c-.3-.2-.4-.6-.4-1.1c-.02.03 0-3.1 0-3.1h-.7v-.7h.7v-1.5h.7v1.5h1.7v.7h-1.7s.05 3.03 0 3c0 .6.3.9.9.9c.3 0 .5-.1.8-.2c-.03.01 0 .7 0 .7c0 0-.03-.03 0 0zm1.4-6.2v-.9h.8v.9h-.8zm0 6.3v-5.2h.8v5.2h-.8zm2.6 0v-5.2h.7s.05 1.38 0 1.4c.2-.5.5-.8.9-1.1c.4-.2.8-.4 1.3-.4c-.04.04 0 .9 0 .9c0 0-.1-.03-.1 0c-.6 0-1.1.2-1.5.6c-.4.4-.6 1-.6 1.7c.05.04 0 2.1 0 2.1h-.7zm3 0v-1.1h.9v1.1h-.9z" stroke="none" fill="#000"/></g><g id="Polygon377639"><path d="m4.1 8v-7h3c.8 0 1.5.2 2 .7c.3.4.5.8.5 1.4c0 .6-.2 1-.5 1.4c-.3.3-.8.5-1.4.6L9.9 8h-1l-2-2.7h-2v2.7h-.8zm.8-3.4s2.12-.03 2.1 0c.6 0 1-.2 1.3-.4c.4-.3.5-.6.5-1.1c0-.4-.1-.8-.5-1c-.3-.2-.7-.4-1.3-.4c.03.03-2.1 0-2.1 0v2.9zm10.6 2.5c-.6.7-1.3 1-2.2 1c-.7 0-1.3-.2-1.8-.7c-.5-.5-.7-1.2-.7-2c0-.7.2-1.4.7-1.9c.4-.5 1-.8 1.7-.8c.8 0 1.4.3 1.8.8c.4.5.6 1.2.6 1.9v.3h-4.1c.1.5.3 1 .6 1.3c.4.3.8.4 1.3.4c.6 0 1.1-.2 1.6-.7c-.01.02.5.4.5.4c0 0-.03.05 0 0zm-4-2h3.4c-.1-.5-.2-.9-.5-1.2c-.3-.4-.7-.5-1.2-.5c-.4 0-.8.1-1.1.5c-.3.3-.5.7-.6 1.2zM17 8V2.8h.8s-.03.93 0 .9c.4-.6 1-1 1.7-1c.7 0 1.1.2 1.5.6c.3.4.5.9.5 1.5c.02-.01 0 3.2 0 3.2h-.8s.05-3.02 0-3c0-.5-.1-.9-.3-1.2c-.3-.2-.6-.4-1.1-.4c-.4 0-.8.2-1.1.5c-.3.3-.4.7-.4 1.1c-.03.04 0 3 0 3h-.8zm6.2 0V.7h.7v5l2.8-2.9h1L25.5 5l2.2 3h-.9L25 5.6l-1.1 1v1.4h-.7zm5.7 0V.7h.8v7.3h-.8zm2.6-6.3v-.9h.9v.9h-.9zm0 6.3V2.8h.8v5.2h-.8zm10-.9c-.5.7-1.2 1-2.1 1c-.7 0-1.3-.2-1.9-.8c-.5-.5-.7-1.1-.7-1.9c0-.7.2-1.4.7-1.9c.6-.5 1.2-.8 1.9-.8c.8 0 1.5.3 2.1.9l-.5.6c-.5-.5-1-.8-1.6-.8c-.5 0-.9.2-1.3.6c-.3.4-.5.8-.5 1.4c0 .6.2 1.1.5 1.4c.4.4.8.6 1.4.6c.6 0 1.1-.2 1.6-.7l.4.4s.05.02 0 0zm4.7.1c-.4.6-1 .9-1.8.9c-.6 0-1-.1-1.4-.4c-.4-.3-.6-.7-.6-1.2c0-.5.2-1 .6-1.3c.4-.2 1-.4 1.6-.4c.6 0 1.1.1 1.6.2v-.2c0-.4-.1-.8-.4-1c-.2-.2-.6-.4-1.1-.4c-.5 0-1.1.2-1.6.4l-.2-.6c.6-.3 1.2-.4 1.9-.4c.7 0 1.3.1 1.6.5c.4.4.6.9.6 1.5c-.03.04 0 3.2 0 3.2h-.8v-.8s.03.02 0 0zm-1.7.3c.5 0 .9-.1 1.2-.4c.4-.3.5-.6.5-1v-.5c-.5-.1-1-.2-1.5-.2c-.5 0-.8.1-1.1.3c-.3.2-.4.4-.4.7v.1c0 .3.1.5.4.7c.2.2.5.3.9.3zm4.1.5V2.8h.8s-.02.9 0 .9c.2-.3.4-.5.7-.7c.2-.2.5-.3.9-.3c.8 0 1.4.4 1.7 1c.5-.6 1.1-1 1.8-1c.6 0 1.1.2 1.4.6c.4.3.5.9.5 1.5c.05 0 0 3.2 0 3.2h-.7s-.02-3.02 0-3c0-.5-.1-.9-.4-1.2c-.2-.2-.5-.4-1-.4c-.4 0-.7.2-1 .4c-.3.3-.4.7-.4 1.2v3h-.8s.05-3.04 0-3c0-.5-.1-.9-.3-1.2c-.2-.2-.6-.4-1-.4c-.4 0-.7.2-1 .5c-.3.3-.4.7-.4 1.1c-.02.05 0 3 0 3h-.8zm13.6-1c-.5.7-1.2 1.1-1.9 1.1c-.7 0-1.3-.2-1.8-.7c-.5-.5-.7-1.2-.7-2c0-.8.2-1.4.7-1.9c.5-.5 1.1-.8 1.8-.8c.8 0 1.4.4 1.9 1.1c.04.02 0-3.1 0-3.1h.8v7.3h-.8v-1s.04-.04 0 0zm-1.8.4c.5 0 .9-.2 1.3-.5c.4-.4.6-.9.6-1.5c0-.6-.2-1-.6-1.4c-.4-.4-.8-.6-1.3-.6c-.5 0-1 .2-1.3.5c-.3.4-.5.9-.5 1.5c0 .6.2 1.1.5 1.5c.4.3.8.5 1.3.5zm7.7-.2c-.4.6-1 .9-1.8.9c-.6 0-1-.1-1.4-.4c-.4-.3-.6-.7-.6-1.2c0-.5.2-1 .6-1.3c.4-.2 1-.4 1.6-.4c.6 0 1.1.1 1.6.2v-.2c0-.4-.1-.8-.4-1c-.2-.2-.6-.4-1.1-.4c-.5 0-1 .2-1.6.4l-.2-.6c.6-.3 1.2-.4 1.9-.4c.7 0 1.3.1 1.6.5c.4.4.6.9.6 1.5c-.02.04 0 3.2 0 3.2h-.8v-.8s.04.02 0 0zm-1.7.3c.5 0 .9-.1 1.2-.4c.4-.3.5-.6.5-1v-.5c-.5-.1-1-.2-1.5-.2c-.5 0-.8.1-1.1.3c-.3.2-.4.4-.4.7v.1c0 .3.1.5.4.7c.3.2.6.3.9.3zm4.1.5V2.8h.8s-.01.93 0 .9c.4-.6 1-1 1.8-1c.6 0 1.1.2 1.4.6c.4.4.5.9.5 1.5c.04-.01 0 3.2 0 3.2h-.7s-.03-3.02 0-3c0-.5-.2-.9-.4-1.2c-.3-.2-.6-.4-1.1-.4c-.4 0-.8.2-1.1.5c-.3.3-.4.7-.4 1.1v3h-.8zm10.9.1c-.8 0-1.5-.3-2.2-.8l.4-.5c.6.4 1.2.6 1.8.6c.3 0 .6 0 .8-.2c.2-.1.3-.3.3-.6c0-.2-.1-.4-.3-.5c-.3-.2-.6-.3-1-.4c-.2-.1-.3-.1-.4-.1c-.1-.1-.2-.1-.4-.2c-.1 0-.3-.1-.4-.2l-.2-.2c-.1-.1-.2-.2-.2-.3c-.1-.2-.1-.3-.1-.5c0-.4.2-.8.5-1.1c.3-.2.7-.4 1.3-.4c.6 0 1.2.2 1.8.6l-.3.6c-.5-.3-1.1-.5-1.6-.5c-.3 0-.5.1-.7.2c-.2.1-.3.3-.3.5v.1c0 .1.1.1.1.2c.1.1.1.2.2.2c.1.1.2.1.3.2c.2 0 .3.1.4.1c0 0 .2.1.4.1c.2.1.3.2.5.2c.1.1.2.1.4.2c.2.1.3.2.4.3c.1.1.2.2.2.3c.1.2.1.3.1.5c0 .5-.1.9-.5 1.2c-.3.3-.8.4-1.3.4zm6.9-1c-.4.7-1 1-1.7 1c-.7 0-1.1-.2-1.5-.6c-.3-.3-.5-.8-.5-1.5c-.02.04 0-3.2 0-3.2h.7s.05 3.05 0 3c0 .5.2.9.4 1.2c.3.3.6.4 1.1.4c.4 0 .8-.1 1.1-.4c.3-.3.4-.7.4-1.2c.03-.01 0-3 0-3h.8v5.2h-.8v-.9s.03 0 0 0zm8.3 1c-.9 0-1.5-.4-2-1.1v1h-.8V.7h.8v3.2c.5-.8 1.2-1.2 2-1.2c.6 0 1.2.3 1.7.7c.5.5.7 1.2.7 2c0 .8-.2 1.5-.7 2c-.5.5-1.1.7-1.7.7zm-.2-.7c.5 0 1-.2 1.3-.5c.4-.4.5-.9.5-1.5c0-.6-.1-1.1-.5-1.4c-.3-.4-.8-.6-1.3-.6c-.5 0-.9.2-1.3.6c-.4.4-.5.8-.5 1.4c0 .6.1 1.1.5 1.5c.4.3.8.5 1.3.5zm7.5-.2c-.5.6-1.1.9-1.9.9c-.5 0-1-.1-1.4-.4c-.3-.3-.5-.7-.5-1.2c0-.5.2-1 .6-1.3c.4-.2.9-.4 1.6-.4c.5 0 1 .1 1.6.2v-.2c0-.4-.2-.8-.4-1c-.3-.2-.7-.4-1.2-.4c-.5 0-1 .2-1.5.4l-.3-.6c.6-.3 1.3-.4 1.9-.4c.7 0 1.3.1 1.7.5c.3.4.5.9.5 1.5v3.2h-.7v-.8s-.03.02 0 0zm-1.8.3c.5 0 .9-.1 1.3-.4c.3-.3.5-.6.5-1v-.5c-.5-.1-1.1-.2-1.5-.2c-.5 0-.9.1-1.2.3c-.2.2-.4.4-.4.7v.1c0 .3.2.5.4.7c.3.2.6.3.9.3zm4.1.5V2.8h.8s.02 1.38 0 1.4c.2-.5.5-.8.9-1.1c.3-.2.8-.4 1.2-.4c.03.04 0 .9 0 .9c0 0-.03-.03 0 0c-.6 0-1.1.2-1.5.6c-.4.4-.6 1-.6 1.7c.02.04 0 2.1 0 2.1h-.8zm8-1c-.5.7-1.2 1.1-1.9 1.1c-.7 0-1.3-.2-1.8-.7c-.5-.5-.7-1.2-.7-2c0-.8.2-1.4.7-1.9c.5-.5 1.1-.8 1.8-.8c.8 0 1.4.4 1.9 1.1c.04.02 0-3.1 0-3.1h.8v7.3h-.8v-1s.04-.04 0 0zm-1.8.4c.5 0 .9-.2 1.3-.5c.4-.4.6-.9.6-1.5c0-.6-.2-1-.6-1.4c-.4-.4-.8-.6-1.3-.6c-.5 0-1 .2-1.3.5c-.4.4-.5.9-.5 1.5c0 .6.2 1.1.5 1.5c.4.3.8.5 1.3.5zm7.7-.2c-.4.6-1 .9-1.8.9c-.6 0-1-.1-1.4-.4c-.4-.3-.6-.7-.6-1.2c0-.5.2-1 .6-1.3c.4-.2 1-.4 1.6-.4c.6 0 1.1.1 1.6.2v-.2c0-.4-.1-.8-.4-1c-.2-.2-.6-.4-1.1-.4c-.5 0-1 .2-1.6.4l-.2-.6c.6-.3 1.2-.4 1.9-.4c.7 0 1.3.1 1.6.5c.4.4.6.9.6 1.5c-.02.04 0 3.2 0 3.2h-.8v-.8s.04.02 0 0zm-1.7.3c.5 0 .9-.1 1.2-.4c.4-.3.5-.6.5-1v-.5c-.5-.1-1-.2-1.5-.2c-.5 0-.8.1-1.1.3c-.3.2-.4.4-.4.7v.1c0 .3.1.5.4.7c.2.2.6.3.9.3zm4.1.5V.7h.8v5l2.8-2.9h.9L124.9 5l2.2 3h-.9l-1.9-2.4l-1 1v1.4h-.8zm5.8 0V.7h.7v7.3h-.7zm5.9-.8c-.4.6-1 .9-1.8.9c-.5 0-1-.1-1.4-.4c-.4-.3-.6-.7-.6-1.2c0-.5.2-1 .7-1.3c.4-.2.9-.4 1.6-.4c.5 0 1 .1 1.5.2v-.2c0-.4-.1-.8-.4-1c-.2-.2-.6-.4-1.1-.4c-.5 0-1 .2-1.6.4l-.2-.6c.6-.3 1.2-.4 1.9-.4c.7 0 1.3.1 1.7.5c.3.4.5.9.5 1.5v3.2h-.8v-.8s.05.02 0 0zm-1.7.3c.5 0 .9-.1 1.3-.4c.3-.3.5-.6.5-1v-.5c-.6-.1-1.1-.2-1.6-.2c-.4 0-.8.1-1.1.3c-.2.2-.4.4-.4.7v.1c0 .3.2.5.4.7c.3.2.6.3.9.3zm4.1.5V2.8h.8v1.4c.2-.5.5-.8.8-1.1c.4-.2.8-.4 1.3-.4c.01.04 0 .9 0 .9c0 0-.05-.03-.1 0c-.5 0-1 .2-1.4.6c-.4.4-.6 1-.6 1.7v2.1h-.8zm4.1 0V2.8h.8v5.2h-.8zm2.3 1.2l-.1-.3c.5-.2.7-.5.7-.9h-.4V6.9h.9s.04.95 0 .9c0 .4-.1.8-.2 1c-.2.2-.5.3-.9.4zm5.9-1.2v-7h.8v4.2l4-4.2h1l-3 3.1l3.1 3.9h-.9l-2.7-3.4l-1.5 1.5v1.9h-.8zm10.5-.9c-.4.7-1 1-1.8 1c-.6 0-1.1-.2-1.4-.6c-.4-.3-.5-.8-.5-1.5c-.03.04 0-3.2 0-3.2h.7s.04 3.05 0 3c0 .5.2.9.4 1.2c.3.3.6.4 1.1.4c.4 0 .8-.1 1.1-.4c.3-.3.4-.7.4-1.2c.02-.01 0-3 0-3h.8v5.2h-.8v-.9s.02 0 0 0zm4.2 1c-.8 0-1.5-.3-2.1-.8l.4-.5c.5.4 1.1.6 1.8.6c.3 0 .5 0 .7-.2c.2-.1.3-.3.3-.6c0-.2-.1-.4-.3-.5c-.2-.2-.5-.3-1-.4c-.2-.1-.3-.1-.4-.1c-.1-.1-.2-.1-.4-.2c-.1 0-.2-.1-.3-.2c-.1 0-.2-.1-.3-.2c-.1-.1-.2-.2-.2-.3c-.1-.2-.1-.3-.1-.5c0-.4.2-.8.5-1.1c.4-.2.8-.4 1.3-.4c.7 0 1.3.2 1.8.6l-.3.6c-.5-.3-1-.5-1.5-.5c-.3 0-.6.1-.8.2c-.1.1-.2.3-.2.5v.3l.2.2c.1.1.2.1.3.2c.2 0 .3.1.4.1c.1 0 .2.1.4.1c.2.1.4.2.5.2c.1.1.3.1.4.2c.2.1.3.2.4.3l.3.3c0 .2.1.3.1.5c0 .5-.2.9-.6 1.2c-.3.3-.8.4-1.3.4zm3.3-6.4v-.9h.9v.9h-.9zM167 8V2.8h.7v5.2h-.7zm2.5 0V2.8h.8s-.01.93 0 .9c.4-.6 1-1 1.8-1c.6 0 1.1.2 1.4.6c.4.4.5.9.5 1.5c.04-.01 0 3.2 0 3.2h-.7s-.03-3.02 0-3c0-.5-.2-.9-.4-1.2c-.3-.2-.6-.4-1.1-.4c-.4 0-.8.2-1.1.5c-.3.3-.4.7-.4 1.1v3h-.8zm8.8-.1c-.2.1-.5.2-.9.2c-.4 0-.8-.1-1.1-.4c-.2-.2-.4-.6-.4-1.1c.05.03 0-3.1 0-3.1h-.7v-.7h.7V1.3h.8v1.5h1.7v.7h-1.7s.02 3.03 0 3c0 .6.3.9.9.9c.2 0 .5-.1.7-.2c.04.01 0 .7 0 .7c0 0 .04-.03 0 0zm1.4.1V.7h.8v3c.4-.6 1-1 1.8-1c.6 0 1.1.2 1.4.6c.4.4.5.9.5 1.5c.04-.01 0 3.2 0 3.2h-.7s-.03-3.02 0-3c0-.5-.2-.9-.4-1.2c-.3-.2-.6-.4-1.1-.4c-.4 0-.8.2-1.1.5c-.3.3-.4.7-.4 1.1v3h-.8zm9.6-.8c-.5.6-1.1.9-1.9.9c-.5 0-1-.1-1.3-.4c-.4-.3-.6-.7-.6-1.2c0-.5.2-1 .6-1.3c.4-.2.9-.4 1.6-.4c.5 0 1.1.1 1.6.2v-.2c0-.4-.1-.8-.4-1c-.3-.2-.7-.4-1.2-.4c-.5 0-1 .2-1.5.4l-.3-.6c.7-.3 1.3-.4 1.9-.4c.8 0 1.3.1 1.7.5c.3.4.5.9.5 1.5c.03.04 0 3.2 0 3.2h-.7v-.8s-.01.02 0 0zm-1.7.3c.5 0 .9-.1 1.2-.4c.3-.3.5-.6.5-1v-.5c-.5-.1-1-.2-1.5-.2c-.5 0-.9.1-1.1.3c-.3.2-.4.4-.4.7v.1c0 .3.1.5.3.7c.3.2.6.3 1 .3zm8.8.6c-.8 0-1.5-.3-2.2-.8l.4-.5c.6.4 1.2.6 1.8.6c.3 0 .6 0 .8-.2c.2-.1.3-.3.3-.6c0-.2-.1-.4-.3-.5c-.3-.2-.6-.3-1-.4c-.2-.1-.3-.1-.4-.1c-.1-.1-.2-.1-.4-.2c-.2 0-.3-.1-.4-.2c-.1 0-.1-.1-.2-.2l-.3-.3v-.5c0-.4.1-.8.5-1.1c.3-.2.7-.4 1.2-.4c.7 0 1.3.2 1.9.6l-.3.6c-.6-.3-1.1-.5-1.6-.5c-.3 0-.5.1-.7.2c-.2.1-.3.3-.3.5v.1c0 .1.1.1.1.2c.1.1.1.2.2.2c.1.1.2.1.3.2c.1 0 .3.1.3.1c.1 0 .3.1.5.1c.1.1.3.2.4.2c.2.1.3.1.5.2c.1.1.3.2.4.3c.1.1.1.2.2.3c.1.2.1.3.1.5c0 .5-.2.9-.5 1.2c-.4.3-.8.4-1.3.4zm7.6-1c-.5.7-1.2 1-2.1 1c-.7 0-1.3-.2-1.8-.7c-.5-.5-.8-1.2-.8-2c0-.7.3-1.4.7-1.9c.5-.5 1.1-.8 1.8-.8c.7 0 1.3.3 1.8.8c.4.5.6 1.2.6 1.9v.3h-4.1c.1.5.3 1 .6 1.3c.3.3.8.4 1.2.4c.6 0 1.2-.2 1.7-.7c-.05.02.4.4.4.4c0 0 .03.05 0 0zm-3.9-2h3.3c0-.5-.2-.9-.5-1.2c-.2-.4-.6-.5-1.1-.5c-.5 0-.8.1-1.2.5c-.3.3-.4.7-.5 1.2zm5.5 2.9V2.8h.7s.03 1.38 0 1.4c.2-.5.5-.8.9-1.1c.4-.2.8-.4 1.2-.4c.04.04 0 .9 0 .9c0 0-.02-.03 0 0c-.6 0-1.1.2-1.5.6c-.4.4-.6 1-.6 1.7c.03.04 0 2.1 0 2.1h-.7zm4-6.3v-.9h.9v.9h-.9zm.1 6.3V2.8h.8v5.2h-.8zm4.3.1c-.8 0-1.6-.3-2.2-.8l.4-.5c.6.4 1.2.6 1.8.6c.3 0 .6 0 .8-.2c.2-.1.3-.3.3-.6c0-.2-.1-.4-.4-.5c-.2-.2-.5-.3-.9-.4c-.2-.1-.3-.1-.4-.1c-.1-.1-.2-.1-.4-.2c-.2 0-.3-.1-.4-.2c-.1 0-.2-.1-.3-.2c-.1-.1-.1-.2-.2-.3v-.5c0-.4.1-.8.5-1.1c.3-.2.7-.4 1.2-.4c.7 0 1.3.2 1.9.6l-.4.6c-.5-.3-1-.5-1.5-.5c-.3 0-.5.1-.7.2c-.2.1-.3.3-.3.5v.1c0 .1 0 .1.1.2c0 .1.1.2.2.2c0 .1.1.1.3.2c.1 0 .2.1.3.1c.1 0 .2.1.4.1c.2.1.4.2.5.2c.1.1.3.1.5.2c.1.1.3.2.3.3l.3.3c.1.2.1.3.1.5c0 .5-.2.9-.5 1.2c-.4.3-.8.4-1.3.4zm3.2-6.4v-.9h.9v.9h-.9zm.1 6.3V2.8h.8v5.2h-.8zm7.3.1c-.8 0-1.5-.3-2.2-.8l.4-.5c.6.4 1.2.6 1.8.6c.3 0 .6 0 .8-.2c.2-.1.3-.3.3-.6c0-.2-.1-.4-.4-.5c-.2-.2-.5-.3-.9-.4c-.2-.1-.3-.1-.4-.1c-.1-.1-.2-.1-.4-.2c-.2 0-.3-.1-.4-.2c-.1 0-.2-.1-.3-.2c0-.1-.1-.2-.2-.3v-.5c0-.4.1-.8.5-1.1c.3-.2.7-.4 1.2-.4c.7 0 1.3.2 1.9.6l-.4.6c-.5-.3-1-.5-1.5-.5c-.3 0-.5.1-.7.2c-.2.1-.3.3-.3.5v.1c0 .1 0 .1.1.2c0 .1.1.2.2.2c0 .1.1.1.3.2c.1 0 .2.1.3.1c.1 0 .3.1.4.1c.2.1.4.2.5.2c.2.1.3.1.5.2c.1.1.3.2.4.3c.1.1.1.2.2.3c.1.2.1.3.1.5c0 .5-.2.9-.5 1.2c-.4.3-.8.4-1.3.4zm5.8-6.1v-.9h.9v.9h-.9zm-1.7 0v-.9h.9v.9h-.9zm2.8 5.1c-.4.7-1 1-1.8 1c-.6 0-1.1-.2-1.4-.6c-.4-.3-.5-.8-.5-1.5c-.05.04 0-3.2 0-3.2h.7s.02 3.05 0 3c0 .5.1.9.4 1.2c.2.3.6.4 1.1.4c.4 0 .8-.1 1.1-.4c.3-.3.4-.7.4-1.2v-3h.8v5.2h-.8v-.9zm2.5.9V2.8h.8s-.04 1.38 0 1.4c.2-.5.4-.8.8-1.1c.4-.2.8-.4 1.3-.4c-.03.04 0 .9 0 .9c0 0-.09-.03-.1 0c-.6 0-1.1.2-1.5.6c-.3.4-.5 1-.5 1.7c-.04.04 0 2.1 0 2.1h-.8zm7.2-.8c-.4.6-1.1.9-1.9.9c-.5 0-.9-.1-1.3-.4c-.4-.3-.6-.7-.6-1.2c0-.5.2-1 .6-1.3c.4-.2.9-.4 1.6-.4c.5 0 1.1.1 1.6.2v-.2c0-.4-.1-.8-.4-1c-.3-.2-.6-.4-1.1-.4c-.6 0-1.1.2-1.6.4l-.2-.6c.6-.3 1.2-.4 1.8-.4c.8 0 1.3.1 1.7.5c.4.4.5.9.5 1.5c.04.04 0 3.2 0 3.2h-.7v-.8s0 .02 0 0zm-1.7.3c.5 0 .9-.1 1.2-.4c.3-.3.5-.6.5-1v-.5c-.5-.1-1-.2-1.5-.2c-.5 0-.9.1-1.1.3c-.3.2-.4.4-.4.7v.1c0 .3.1.5.4.7c.2.2.5.3.9.3zm4.1.5V.7h.8s-.05 3.03 0 3c.4-.6 1-1 1.7-1c.6 0 1.1.2 1.5.6c.3.4.5.9.5 1.5v3.2h-.8s.03-3.02 0-3c0-.5-.1-.9-.3-1.2c-.3-.2-.6-.4-1.1-.4c-.4 0-.8.2-1.1.5c-.3.3-.4.7-.4 1.1c-.05.04 0 3 0 3h-.8zm6.2-6.3v-.9h.8v.9h-.8zm0 6.3V2.8h.8v5.2h-.8zm7.3 0l-2.2-5.2h.8l1.8 4.3l1.7-4.3h.8L257.8 8h-.7zm8.2-.9c-.5.7-1.2 1-2.1 1c-.7 0-1.3-.2-1.8-.7c-.5-.5-.8-1.2-.8-2c0-.7.3-1.4.7-1.9c.5-.5 1.1-.8 1.8-.8c.7 0 1.3.3 1.8.8c.4.5.6 1.2.6 1.9v.3h-4.1c.1.5.3 1 .6 1.3c.3.3.8.4 1.2.4c.6 0 1.2-.2 1.7-.7c-.05.02.4.4.4.4c0 0 .03.05 0 0zm-3.9-2h3.3c0-.5-.2-.9-.5-1.2c-.2-.4-.6-.5-1.1-.5c-.5 0-.8.1-1.2.5c-.3.3-.4.7-.5 1.2zm8.5 2.9V2.8h.7s.03.9 0 .9c.2-.3.5-.5.7-.7c.3-.2.6-.3 1-.3c.8 0 1.3.4 1.7 1c.4-.6 1-1 1.8-1c.6 0 1.1.2 1.4.6c.3.3.5.9.5 1.5v3.2h-.8s.03-3.02 0-3c0-.5-.1-.9-.3-1.2c-.3-.2-.6-.4-1-.4c-.4 0-.7.2-1 .4c-.3.3-.4.7-.4 1.2c-.04.02 0 3 0 3h-.8v-3c0-.5-.1-.9-.4-1.2c-.2-.2-.5-.4-.9-.4c-.4 0-.8.2-1.1.5c-.2.3-.4.7-.4 1.1c.03.05 0 3 0 3h-.7zm12.9-.8c-.5.6-1.1.9-1.9.9c-.5 0-1-.1-1.4-.4c-.4-.3-.5-.7-.5-1.2c0-.5.2-1 .6-1.3c.4-.2.9-.4 1.6-.4c.5 0 1 .1 1.6.2v-.2c0-.4-.2-.8-.4-1c-.3-.2-.7-.4-1.2-.4c-.5 0-1 .2-1.6.4l-.2-.6c.6-.3 1.2-.4 1.9-.4c.7 0 1.3.1 1.7.5c.3.4.5.9.5 1.5v3.2h-.7v-.8s-.05.02 0 0zm-1.8.3c.5 0 .9-.1 1.3-.4c.3-.3.5-.6.5-1v-.5c-.6-.1-1.1-.2-1.6-.2c-.4 0-.8.1-1.1.3c-.2.2-.4.4-.4.7v.1c0 .3.2.5.4.7c.3.2.6.3.9.3zm6.7.4c-.2.1-.5.2-.9.2c-.4 0-.8-.1-1.1-.4c-.2-.2-.3-.6-.3-1.1c-.05.03 0-3.1 0-3.1h-.8v-.7h.8V1.3h.7v1.5h1.7v.7h-1.7s.02 3.03 0 3c0 .6.3.9.9.9c.2 0 .5-.1.7-.2c.04.01 0 .7 0 .7c0 0 .04-.03 0 0zm4.8-.7c-.4.6-1 .9-1.8.9c-.6 0-1-.1-1.4-.4c-.4-.3-.6-.7-.6-1.2c0-.5.2-1 .6-1.3c.4-.2 1-.4 1.6-.4c.6 0 1.1.1 1.6.2v-.2c0-.4-.1-.8-.4-1c-.2-.2-.6-.4-1.1-.4c-.5 0-1.1.2-1.6.4l-.2-.6c.6-.3 1.2-.4 1.9-.4c.7 0 1.3.1 1.6.5c.4.4.6.9.6 1.5c-.03.04 0 3.2 0 3.2h-.8v-.8s.03.02 0 0zm-1.7.3c.5 0 .9-.1 1.2-.4c.4-.3.5-.6.5-1v-.5c-.5-.1-1-.2-1.5-.2c-.5 0-.8.1-1.1.3c-.3.2-.4.4-.4.7v.1c0 .3.1.5.4.7c.2.2.6.3.9.3zm4.1.5V2.8h.8s-.02 1.38 0 1.4c.2-.5.5-.8.8-1.1c.4-.2.8-.4 1.3-.4c-.01.04 0 .9 0 .9c0 0-.07-.03-.1 0c-.6 0-1.1.2-1.4.6c-.4.4-.6 1-.6 1.7c-.02.04 0 2.1 0 2.1h-.8zm7.2-.8c-.4.6-1.1.9-1.8.9c-.6 0-1-.1-1.4-.4c-.4-.3-.6-.7-.6-1.2c0-.5.2-1 .6-1.3c.4-.2 1-.4 1.6-.4c.6 0 1.1.1 1.6.2v-.2c0-.4-.1-.8-.4-1c-.2-.2-.6-.4-1.1-.4c-.5 0-1.1.2-1.6.4l-.2-.6c.6-.3 1.2-.4 1.9-.4c.7 0 1.3.1 1.6.5c.4.4.6.9.6 1.5c-.04.04 0 3.2 0 3.2h-.8v-.8s.02.02 0 0zm-1.7.3c.5 0 .9-.1 1.2-.4c.4-.3.5-.6.5-1v-.5c-.5-.1-1-.2-1.5-.2c-.5 0-.8.1-1.1.3c-.3.2-.4.4-.4.7v.1c0 .3.1.5.4.7c.2.2.5.3.9.3zm3 1.8l4.7-9.3h.7l-4.7 9.3h-.7z" stroke="none" fill="#000"/></g></svg>