<?xml version="1.0" standalone="no"?><!DOCTYPE svg PUBLIC "-//W3C//DTD SVG 1.1//EN" "http://www.w3.org/Graphics/SVG/1.1/DTD/svg11.dtd"><svg xmlns="http://www.w3.org/2000/svg" version="1.1" width="16.2px" height="12.4px" viewBox="0 -1 16.2 12.4" style="top:-1px"><desc/><defs/><g id="Polygon373781"><path d="m4.8 7.6c-.8 0-1.4-.3-1.9-.9l.4-.4c.4.5.9.8 1.5.8c.3 0 .5-.1.7-.3c.2-.2.3-.4.3-.7c0-.3-.1-.5-.3-.7c-.3-.2-.6-.3-1-.3c-.04.05-.4 0-.4 0L4 4.8l1.6-1.7H3.2v-.5h3.1v.4S4.78 4.69 4.8 4.7c.4 0 .8.2 1.1.4c.3.2.5.5.5 1c0 .4-.2.8-.5 1c-.3.3-.7.5-1.1.5zM11.4 5c0 .7-.2 1.3-.5 1.8c-.4.5-.9.8-1.5.8c-.6 0-1.1-.3-1.5-.8c-.4-.5-.6-1.1-.6-1.8c0-.7.2-1.3.6-1.8c.4-.5.9-.7 1.5-.7c.6 0 1.1.2 1.5.7c.4.5.5 1.1.5 1.8c.04.01 0 0 0 0c0 0 .04.03 0 0zM7.9 5c0 .6.1 1.1.4 1.5c.3.4.6.6 1.1.6c.4 0 .8-.2 1.1-.6c.2-.4.4-.9.4-1.5c0-.5-.2-1-.5-1.4c-.2-.4-.6-.6-1-.6c-.5 0-.8.2-1.1.6c-.3.4-.4.9-.4 1.4c-.02.01 0 0 0 0c0 0-.02.03 0 0zM14 7.6c-.7 0-1.2-.3-1.8-.8l.4-.4c.5.4.9.7 1.4.7c.3 0 .6-.1.9-.4c.2-.2.3-.4.3-.7c0-.3-.1-.6-.4-.8c-.2-.2-.5-.3-.8-.3c-.4 0-.7.1-1.1.3c.04.01-.3-.2-.3-.2l.1-2.4h2.8v.5h-2.3s-.12 1.56-.1 1.6c.3-.2.6-.3 1-.3c.4 0 .8.2 1.2.4c.3.3.4.7.4 1.1v.1c0 .4-.1.8-.4 1.1c-.4.3-.8.5-1.3.5z" stroke="none" fill="#000"/></g></svg>